# Converted from B3D for Luanti (With Correct Normals)
# Object Name: multidecor_embossed_ext_quadratic_painting

v 1.000000 1.000000 0.800000
v -1.000000 1.000000 0.800000
v -1.000000 1.000000 1.000000
v 1.000000 1.000000 1.000000
v 1.000000 -1.000000 1.000000
v 1.000000 1.000000 1.000000
v -1.000000 1.000000 1.000000
v -1.000000 -1.000000 1.000000
v -1.000000 -0.919187 0.695000
v -2.919187 -0.919187 0.695000
v -2.919187 -0.919187 0.750000
v -1.000000 -0.919187 0.750000
v -1.000000 -0.838375 0.750000
v -2.838375 -0.838375 0.750000
v -2.838375 -0.838375 0.800000
v -1.000000 -0.838375 0.800000
v 1.000000 -1.000000 0.800000
v 1.000000 1.000000 0.800000
v 1.000000 1.000000 1.000000
v 1.000000 -1.000000 1.000000
v 0.838375 0.838375 0.800000
v 0.838375 -0.838375 0.800000
v 0.765000 -0.765000 0.800000
v 0.765000 0.765000 0.800000
v 0.765000 0.765000 0.800000
v 0.765000 -0.765000 0.800000
v 0.765000 -0.765000 0.900000
v 0.765000 0.765000 0.900000
v -1.000000 -1.000000 1.000000
v -3.000000 -1.000000 1.000000
v -3.000000 -1.000000 0.800000
v -1.000000 -1.000000 0.800000
v 0.838375 -0.838375 0.800000
v -1.000000 -0.838375 0.800000
v -1.000000 -0.765000 0.800000
v 0.765000 -0.765000 0.800000
v -1.000000 1.000000 0.695000
v -3.000000 1.000000 0.695000
v -3.000000 1.000000 0.750000
v -1.000000 1.000000 0.750000
v -1.000000 -0.765000 0.900000
v -1.000000 0.765000 0.900000
v 0.765000 0.765000 0.900000
v 0.765000 -0.765000 0.900000
v -1.000000 1.000000 0.750000
v -3.000000 1.000000 0.750000
v -3.000000 1.000000 0.800000
v -1.000000 1.000000 0.800000
v 0.765000 -0.765000 0.800000
v -1.000000 -0.765000 0.800000
v -1.000000 -0.765000 0.900000
v 0.765000 -0.765000 0.900000
v -1.000000 0.765000 0.800000
v 0.765000 0.765000 0.800000
v 0.765000 0.765000 0.900000
v -1.000000 0.765000 0.900000
v 1.000000 1.000000 0.800000
v 1.000000 -1.000000 0.800000
v 1.000000 -1.000000 0.750000
v 1.000000 1.000000 0.750000
v 0.838375 -0.838375 0.800000
v 0.838375 0.838375 0.800000
v 0.838375 0.838375 0.750000
v 0.838375 -0.838375 0.750000
v -1.000000 0.838375 0.750000
v -2.838375 0.838375 0.750000
v -2.919187 0.919187 0.750000
v -1.000000 0.919187 0.750000
v 0.838375 0.838375 0.800000
v -1.000000 0.838375 0.800000
v -1.000000 0.838375 0.750000
v 0.838375 0.838375 0.750000
v -1.000000 0.919187 0.695000
v -2.919187 0.919187 0.695000
v -3.000000 1.000000 0.695000
v -1.000000 1.000000 0.695000
v 0.919188 -0.919187 0.750000
v -1.000000 -0.919187 0.750000
v -1.000000 -0.838375 0.750000
v 0.838375 -0.838375 0.750000
v -1.000000 0.765000 0.800000
v -2.765000 0.765000 0.800000
v -2.838375 0.838375 0.800000
v -1.000000 0.838375 0.800000
v 0.919188 0.919187 0.750000
v 0.919188 -0.919187 0.750000
v 0.838375 -0.838375 0.750000
v 0.838375 0.838375 0.750000
v -3.000000 1.000000 0.750000
v -3.000000 1.000000 0.695000
v -3.000000 -1.000000 0.695000
v -3.000000 -1.000000 0.750000
v -2.919187 0.919187 0.750000
v -2.919187 0.919187 0.695000
v -1.000000 0.919187 0.695000
v -1.000000 0.919187 0.750000
v -3.000000 -1.000000 0.695000
v -2.919187 -0.919187 0.695000
v -1.000000 -0.919187 0.695000
v -1.000000 -1.000000 0.695000
v 1.000000 -1.000000 0.800000
v -1.000000 -1.000000 0.800000
v -1.000000 -1.000000 0.750000
v 1.000000 -1.000000 0.750000
v 0.919188 -0.919187 0.750000
v 0.919188 0.919187 0.750000
v 0.919188 0.919187 0.695000
v 0.919188 -0.919187 0.695000
v 1.000000 -1.000000 0.750000
v -1.000000 -1.000000 0.750000
v -1.000000 -1.000000 0.695000
v 1.000000 -1.000000 0.695000
v -3.000000 1.000000 0.695000
v -2.919187 0.919187 0.695000
v -2.919187 -0.919187 0.695000
v -3.000000 -1.000000 0.695000
v -3.000000 -1.000000 0.750000
v -3.000000 -1.000000 0.695000
v -1.000000 -1.000000 0.695000
v -1.000000 -1.000000 0.750000
v 1.000000 1.000000 0.695000
v 1.000000 -1.000000 0.695000
v 0.919188 -0.919187 0.695000
v 0.919188 0.919187 0.695000
v -2.919187 -0.919187 0.750000
v -2.919187 -0.919187 0.695000
v -2.919187 0.919187 0.695000
v -2.919187 0.919187 0.750000
v 1.000000 -1.000000 0.695000
v -1.000000 -1.000000 0.695000
v -1.000000 -0.919187 0.695000
v 0.919188 -0.919187 0.695000
v -3.000000 -1.000000 0.800000
v -3.000000 -1.000000 0.750000
v -1.000000 -1.000000 0.750000
v -1.000000 -1.000000 0.800000
v -2.919187 0.919187 0.750000
v -2.838375 0.838375 0.750000
v -2.838375 -0.838375 0.750000
v -2.919187 -0.919187 0.750000
v 0.919188 0.919187 0.750000
v -1.000000 0.919187 0.750000
v -1.000000 0.919187 0.695000
v 0.919188 0.919187 0.695000
v 1.000000 1.000000 0.750000
v 1.000000 -1.000000 0.750000
v 1.000000 -1.000000 0.695000
v 1.000000 1.000000 0.695000
v -2.919187 -0.919187 0.750000
v -2.838375 -0.838375 0.750000
v -1.000000 -0.838375 0.750000
v -1.000000 -0.919187 0.750000
v -2.838375 0.838375 0.800000
v -2.838375 0.838375 0.750000
v -1.000000 0.838375 0.750000
v -1.000000 0.838375 0.800000
v -2.838375 -0.838375 0.800000
v -2.838375 -0.838375 0.750000
v -2.838375 0.838375 0.750000
v -2.838375 0.838375 0.800000
v -1.000000 0.765000 0.800000
v -1.000000 0.838375 0.800000
v 0.838375 0.838375 0.800000
v 0.765000 0.765000 0.800000
v -1.000000 0.919187 0.695000
v -1.000000 1.000000 0.695000
v 1.000000 1.000000 0.695000
v 0.919188 0.919187 0.695000
v -3.000000 1.000000 0.800000
v -3.000000 1.000000 0.750000
v -3.000000 -1.000000 0.750000
v -3.000000 -1.000000 0.800000
v -1.000000 0.838375 0.750000
v -1.000000 0.919187 0.750000
v 0.919188 0.919187 0.750000
v 0.838375 0.838375 0.750000
v -1.000000 1.000000 0.750000
v -1.000000 1.000000 0.800000
v 1.000000 1.000000 0.800000
v 1.000000 1.000000 0.750000
v -1.000000 1.000000 0.695000
v -1.000000 1.000000 0.750000
v 1.000000 1.000000 0.750000
v 1.000000 1.000000 0.695000
v -1.000000 0.765000 0.800000
v -1.000000 0.765000 0.900000
v -2.765000 0.765000 0.900000
v -2.765000 0.765000 0.800000
v -2.765000 -0.765000 0.800000
v -2.765000 -0.765000 0.900000
v -1.000000 -0.765000 0.900000
v -1.000000 -0.765000 0.800000
v -1.000000 -0.765000 0.900000
v -2.765000 -0.765000 0.900000
v -2.765000 0.765000 0.900000
v -1.000000 0.765000 0.900000
v -2.838375 -0.838375 0.800000
v -2.765000 -0.765000 0.800000
v -1.000000 -0.765000 0.800000
v -1.000000 -0.838375 0.800000
v -1.000000 -1.000000 1.000000
v -1.000000 -1.000000 0.800000
v 1.000000 -1.000000 0.800000
v 1.000000 -1.000000 1.000000
v -2.765000 0.765000 0.800000
v -2.765000 0.765000 0.900000
v -2.765000 -0.765000 0.900000
v -2.765000 -0.765000 0.800000
v -2.838375 0.838375 0.800000
v -2.765000 0.765000 0.800000
v -2.765000 -0.765000 0.800000
v -2.838375 -0.838375 0.800000
v -1.000000 -0.838375 0.750000
v -1.000000 -0.838375 0.800000
v 0.838375 -0.838375 0.800000
v 0.838375 -0.838375 0.750000
v -3.000000 -1.000000 0.800000
v -3.000000 -1.000000 1.000000
v -3.000000 1.000000 1.000000
v -3.000000 1.000000 0.800000
v -1.000000 -0.919187 0.695000
v -1.000000 -0.919187 0.750000
v 0.919188 -0.919187 0.750000
v 0.919188 -0.919187 0.695000
v -3.000000 -1.000000 1.000000
v -1.000000 -1.000000 1.000000
v -1.000000 1.000000 1.000000
v -3.000000 1.000000 1.000000
v -3.000000 1.000000 0.800000
v -3.000000 1.000000 1.000000
v -1.000000 1.000000 1.000000
v -1.000000 1.000000 0.800000

vt 0.122024 0.500000
vt 0.084226 0.877976
vt 0.084226 0.500000
vt 0.122024 0.877976
vt 0.084226 0.877976
vt 0.122024 0.500000
vt 0.122024 0.500000
vt 0.500000 0.877977
vt 0.122024 0.877976
vt 0.500001 0.500000
vt 0.500000 0.877977
vt 0.122024 0.500000
vt 0.583309 0.137296
vt 0.572915 0.500000
vt 0.572914 0.137296
vt 0.583309 0.500000
vt 0.572915 0.500000
vt 0.583309 0.137296
vt 0.608031 0.152569
vt 0.598582 0.500000
vt 0.598582 0.152569
vt 0.608031 0.500000
vt 0.598582 0.500000
vt 0.608031 0.152569
vt 0.122024 0.877976
vt 0.500000 0.915775
vt 0.122024 0.915774
vt 0.500000 0.877977
vt 0.500000 0.915775
vt 0.122024 0.877976
vt 0.455588 0.999875
vt 0.152570 0.986007
vt 0.469455 0.986008
vt 0.166437 0.999875
vt 0.152570 0.986007
vt 0.455588 0.999875
vt 0.641299 0.642241
vt 0.660198 0.353089
vt 0.660198 0.642241
vt 0.641299 0.353089
vt 0.660198 0.353089
vt 0.641299 0.642241
vt 0.537798 0.122024
vt 0.500001 0.500000
vt 0.500000 0.122024
vt 0.537798 0.500000
vt 0.500001 0.500000
vt 0.537798 0.122024
vt 0.621898 0.500000
vt 0.608031 0.847432
vt 0.608031 0.500000
vt 0.621898 0.833565
vt 0.608031 0.847432
vt 0.621898 0.500000
vt 0.074778 0.122024
vt 0.064382 0.500000
vt 0.064384 0.122023
vt 0.074777 0.500000
vt 0.064382 0.500000
vt 0.074778 0.122024
vt 0.084227 0.122024
vt 0.074777 0.500000
vt 0.074778 0.122024
vt 0.084226 0.500000
vt 0.074777 0.500000
vt 0.084227 0.122024
vt 0.641299 0.333688
vt 0.660198 0.000125
vt 0.660198 0.333688
vt 0.641299 0.000125
vt 0.660198 0.000125
vt 0.641299 0.333688
vt 0.622149 0.333940
vt 0.955712 0.352838
vt 0.622149 0.352838
vt 0.955712 0.333939
vt 0.955712 0.352838
vt 0.622149 0.333940
vt 0.500000 0.925224
vt 0.122024 0.915774
vt 0.500000 0.915775
vt 0.122024 0.925223
vt 0.122024 0.915774
vt 0.500000 0.925224
vt 0.152570 0.976558
vt 0.469455 0.986008
vt 0.152570 0.986007
vt 0.469455 0.976558
vt 0.469455 0.986008
vt 0.152570 0.976558
vt 0.038716 0.137296
vt 0.023443 0.500000
vt 0.023443 0.152569
vt 0.038715 0.500000
vt 0.023443 0.500000
vt 0.038716 0.137296
vt 0.023443 0.500000
vt 0.013992 0.847431
vt 0.013993 0.500000
vt 0.023442 0.847431
vt 0.013992 0.847431
vt 0.023443 0.500000
vt 0.064384 0.122023
vt 0.049110 0.500000
vt 0.049111 0.137296
vt 0.064382 0.500000
vt 0.049110 0.500000
vt 0.064384 0.122023
vt 0.598582 0.500000
vt 0.583309 0.862704
vt 0.583309 0.500000
vt 0.598582 0.847432
vt 0.583309 0.862704
vt 0.598582 0.500000
vt 0.013993 0.152569
vt 0.000126 0.500000
vt 0.000126 0.166436
vt 0.013993 0.500000
vt 0.000126 0.500000
vt 0.013993 0.152569
vt 0.469455 0.976558
vt 0.137297 0.961285
vt 0.484727 0.961285
vt 0.152570 0.976558
vt 0.137297 0.961285
vt 0.469455 0.976558
vt 0.500000 0.064382
vt 0.122024 0.074777
vt 0.122024 0.064383
vt 0.500000 0.074776
vt 0.122024 0.074777
vt 0.500000 0.064382
vt 0.049110 0.500000
vt 0.038716 0.137296
vt 0.049111 0.137296
vt 0.038715 0.500000
vt 0.038716 0.137296
vt 0.049110 0.500000
vt 0.572915 0.500000
vt 0.557641 0.122024
vt 0.572914 0.137296
vt 0.557642 0.500000
vt 0.557641 0.122024
vt 0.572915 0.500000
vt 0.547248 0.500000
vt 0.537798 0.877977
vt 0.537798 0.500000
vt 0.547248 0.877977
vt 0.537798 0.877977
vt 0.547248 0.500000
vt 0.137297 0.950890
vt 0.484727 0.961285
vt 0.137297 0.961285
vt 0.484727 0.950891
vt 0.484727 0.961285
vt 0.137297 0.950890
vt 0.557642 0.500000
vt 0.547248 0.877977
vt 0.547248 0.500000
vt 0.557643 0.877977
vt 0.547248 0.877977
vt 0.557642 0.500000
vt 0.484728 0.049109
vt 0.122024 0.064383
vt 0.137297 0.049110
vt 0.500000 0.064382
vt 0.122024 0.064383
vt 0.484728 0.049109
vt 0.557642 0.500000
vt 0.547247 0.122024
vt 0.557641 0.122024
vt 0.547248 0.500000
vt 0.547247 0.122024
vt 0.557642 0.500000
vt 0.484727 0.950891
vt 0.122024 0.935617
vt 0.500000 0.935618
vt 0.137297 0.950890
vt 0.122024 0.935617
vt 0.484727 0.950891
vt 0.137297 0.049110
vt 0.484728 0.038715
vt 0.484728 0.049109
vt 0.137297 0.038715
vt 0.484728 0.038715
vt 0.137297 0.049110
vt 0.572915 0.500000
vt 0.557643 0.877977
vt 0.557642 0.500000
vt 0.572915 0.862704
vt 0.557643 0.877977
vt 0.572915 0.500000
vt 0.547248 0.500000
vt 0.537798 0.122024
vt 0.547247 0.122024
vt 0.537798 0.500000
vt 0.537798 0.122024
vt 0.547248 0.500000
vt 0.469455 0.023443
vt 0.137297 0.038715
vt 0.152570 0.023443
vt 0.484728 0.038715
vt 0.137297 0.038715
vt 0.469455 0.023443
vt 0.049110 0.500000
vt 0.038714 0.862704
vt 0.038715 0.500000
vt 0.049109 0.862704
vt 0.038714 0.862704
vt 0.049110 0.500000
vt 0.500000 0.935618
vt 0.122024 0.925223
vt 0.500000 0.925224
vt 0.122024 0.935617
vt 0.122024 0.925223
vt 0.500000 0.935618
vt 0.598582 0.500000
vt 0.583309 0.137296
vt 0.598582 0.152569
vt 0.583309 0.500000
vt 0.583309 0.137296
vt 0.598582 0.500000
vt 0.023443 0.500000
vt 0.013993 0.152569
vt 0.023443 0.152569
vt 0.013993 0.500000
vt 0.013993 0.152569
vt 0.023443 0.500000
vt 0.152570 0.023443
vt 0.469455 0.013993
vt 0.469455 0.023443
vt 0.152570 0.013993
vt 0.469455 0.013993
vt 0.152570 0.023443
vt 0.013992 0.847431
vt 0.000126 0.500000
vt 0.013993 0.500000
vt 0.000125 0.833564
vt 0.000126 0.500000
vt 0.013992 0.847431
vt 0.064381 0.877976
vt 0.049110 0.500000
vt 0.064382 0.500000
vt 0.049109 0.862704
vt 0.049110 0.500000
vt 0.064381 0.877976
vt 0.500000 0.074776
vt 0.122024 0.084226
vt 0.122024 0.074777
vt 0.500000 0.084226
vt 0.122024 0.084226
vt 0.500000 0.074776
vt 0.038714 0.862704
vt 0.023443 0.500000
vt 0.038715 0.500000
vt 0.023442 0.847431
vt 0.023443 0.500000
vt 0.038714 0.862704
vt 0.084226 0.877976
vt 0.074777 0.500000
vt 0.084226 0.500000
vt 0.074776 0.877976
vt 0.074777 0.500000
vt 0.084226 0.877976
vt 0.074776 0.877976
vt 0.064382 0.500000
vt 0.074777 0.500000
vt 0.064381 0.877976
vt 0.064382 0.500000
vt 0.074776 0.877976
vt 0.641048 0.000125
vt 0.622149 0.333688
vt 0.641048 0.333688
vt 0.622150 0.000125
vt 0.622149 0.333688
vt 0.641048 0.000125
vt 0.660449 0.333688
vt 0.679348 0.000125
vt 0.660449 0.000125
vt 0.679348 0.333688
vt 0.679348 0.000125
vt 0.660449 0.333688
vt 0.621898 0.500000
vt 0.608031 0.152569
vt 0.621898 0.166436
vt 0.608031 0.500000
vt 0.608031 0.152569
vt 0.621898 0.500000
vt 0.537798 0.877977
vt 0.500001 0.500000
vt 0.537798 0.500000
vt 0.500000 0.877977
vt 0.500001 0.500000
vt 0.537798 0.877977
vt 0.622149 0.642241
vt 0.641048 0.353089
vt 0.622149 0.353089
vt 0.641048 0.642241
vt 0.641048 0.353089
vt 0.622149 0.642241
vt 0.455588 0.000126
vt 0.152570 0.013993
vt 0.166438 0.000125
vt 0.469455 0.013993
vt 0.152570 0.013993
vt 0.455588 0.000126
vt 0.608031 0.847432
vt 0.598582 0.500000
vt 0.608031 0.500000
vt 0.598582 0.847432
vt 0.598582 0.500000
vt 0.608031 0.847432
vt 0.122024 0.122024
vt 0.500000 0.084226
vt 0.500000 0.122024
vt 0.122024 0.084226
vt 0.500000 0.084226
vt 0.122024 0.122024
vt 0.583309 0.862704
vt 0.572915 0.500000
vt 0.583309 0.500000
vt 0.572915 0.862704
vt 0.572915 0.500000
vt 0.583309 0.862704
vt 0.122024 0.500000
vt 0.500000 0.122024
vt 0.500001 0.500000
vt 0.122024 0.122024
vt 0.500000 0.122024
vt 0.122024 0.500000
vt 0.122024 0.500000
vt 0.084227 0.122024
vt 0.122024 0.122024
vt 0.084226 0.500000
vt 0.084227 0.122024
vt 0.122024 0.500000
vt -0.000457 0.999524
vt 0.498895 0.000475
vt 0.498895 0.999524
vt -0.000457 0.000475
vt 0.498895 0.000475
vt -0.000457 0.999524
vt 0.998247 0.999525
vt 0.498895 0.000475
vt 0.998247 0.000475
vt 0.498895 0.999524
vt 0.498895 0.000475
vt 0.998247 0.999525

vn -0.000000 1.000000 0.000000
vn -0.000000 1.000000 0.000000
vn -0.000000 1.000000 0.000000
vn -0.000000 1.000000 0.000000
vn -0.000000 1.000000 0.000000
vn -0.000000 1.000000 0.000000
vn 0.000000 0.000000 1.000000
vn 0.000000 0.000000 1.000000
vn 0.000000 0.000000 1.000000
vn 0.000000 0.000000 1.000000
vn 0.000000 0.000000 1.000000
vn 0.000000 0.000000 1.000000
vn 0.000000 1.000000 0.000000
vn 0.000000 1.000000 0.000000
vn 0.000000 1.000000 0.000000
vn -0.000000 1.000000 0.000000
vn -0.000000 1.000000 0.000000
vn -0.000000 1.000000 0.000000
vn -0.000000 1.000000 0.000000
vn -0.000000 1.000000 0.000000
vn -0.000000 1.000000 0.000000
vn -0.000000 1.000000 0.000000
vn -0.000000 1.000000 0.000000
vn -0.000000 1.000000 0.000000
vn 1.000000 0.000000 0.000000
vn 1.000000 0.000000 0.000000
vn 1.000000 0.000000 0.000000
vn 1.000000 0.000000 -0.000001
vn 1.000000 0.000000 -0.000001
vn 1.000000 0.000000 -0.000001
vn -0.000001 0.000000 -1.000000
vn -0.000001 0.000000 -1.000000
vn -0.000001 0.000000 -1.000000
vn -0.000001 0.000000 -1.000000
vn -0.000001 0.000000 -1.000000
vn -0.000001 0.000000 -1.000000
vn -1.000000 0.000000 0.000000
vn -1.000000 0.000000 0.000000
vn -1.000000 0.000000 0.000000
vn -1.000000 0.000000 0.000002
vn -1.000000 0.000000 0.000002
vn -1.000000 0.000000 0.000002
vn -0.000000 -1.000000 0.000000
vn -0.000000 -1.000000 0.000000
vn -0.000000 -1.000000 0.000000
vn -0.000000 -1.000000 0.000000
vn -0.000000 -1.000000 0.000000
vn -0.000000 -1.000000 0.000000
vn -0.000000 0.000000 -1.000000
vn -0.000000 0.000000 -1.000000
vn -0.000000 0.000000 -1.000000
vn -0.000000 0.000000 -1.000000
vn -0.000000 0.000000 -1.000000
vn -0.000000 0.000000 -1.000000
vn -0.000000 1.000000 0.000000
vn -0.000000 1.000000 0.000000
vn -0.000000 1.000000 0.000000
vn -0.000000 1.000000 0.000000
vn -0.000000 1.000000 0.000000
vn -0.000000 1.000000 0.000000
vn -0.000000 1.000000 0.000000
vn -0.000000 1.000000 0.000000
vn -0.000000 1.000000 0.000000
vn -0.000000 1.000000 0.000000
vn -0.000000 1.000000 0.000000
vn -0.000000 1.000000 0.000000
vn 0.000000 1.000000 0.000000
vn 0.000000 1.000000 0.000000
vn 0.000000 1.000000 0.000000
vn -0.000000 1.000000 0.000000
vn -0.000000 1.000000 0.000000
vn -0.000000 1.000000 0.000000
vn -0.000000 -1.000000 0.000000
vn -0.000000 -1.000000 0.000000
vn -0.000000 -1.000000 0.000000
vn -0.000000 -1.000000 0.000000
vn -0.000000 -1.000000 0.000000
vn -0.000000 -1.000000 0.000000
vn 1.000000 0.000000 0.000000
vn 1.000000 0.000000 0.000000
vn 1.000000 0.000000 0.000000
vn 1.000000 0.000000 0.000000
vn 1.000000 0.000000 0.000000
vn 1.000000 0.000000 0.000000
vn -1.000000 0.000000 0.000000
vn -1.000000 0.000000 0.000000
vn -1.000000 0.000000 0.000000
vn -1.000000 0.000000 0.000000
vn -1.000000 0.000000 0.000000
vn -1.000000 0.000000 0.000000
vn 0.000000 -0.000002 -1.000000
vn 0.000000 -0.000002 -1.000000
vn 0.000000 -0.000002 -1.000000
vn 0.000000 0.000000 -1.000000
vn 0.000000 0.000000 -1.000000
vn 0.000000 0.000000 -1.000000
vn 0.000000 -1.000000 0.000000
vn 0.000000 -1.000000 0.000000
vn 0.000000 -1.000000 0.000000
vn -0.000000 -1.000000 0.000000
vn -0.000000 -1.000000 0.000000
vn -0.000000 -1.000000 0.000000
vn 0.000000 0.000000 -1.000000
vn 0.000000 0.000000 -1.000000
vn 0.000000 0.000000 -1.000000
vn 0.000000 0.000000 -1.000000
vn 0.000000 0.000000 -1.000000
vn 0.000000 0.000000 -1.000000
vn -0.000000 0.000000 -1.000000
vn -0.000000 0.000000 -1.000000
vn -0.000000 0.000000 -1.000000
vn -0.000000 0.000000 -1.000000
vn -0.000000 0.000000 -1.000000
vn -0.000000 0.000000 -1.000000
vn 0.000000 0.000000 -1.000000
vn 0.000000 0.000000 -1.000000
vn 0.000000 0.000000 -1.000000
vn 0.000000 0.000000 -1.000000
vn 0.000000 0.000000 -1.000000
vn 0.000000 0.000000 -1.000000
vn -0.000000 0.000000 -1.000000
vn -0.000000 0.000000 -1.000000
vn -0.000000 0.000000 -1.000000
vn -0.000000 0.000000 -1.000000
vn -0.000000 0.000000 -1.000000
vn -0.000000 0.000000 -1.000000
vn -1.000000 0.000000 0.000000
vn -1.000000 0.000000 0.000000
vn -1.000000 0.000000 0.000000
vn -1.000000 0.000000 0.000000
vn -1.000000 0.000000 0.000000
vn -1.000000 0.000000 0.000000
vn -0.000000 -1.000000 0.000000
vn -0.000000 -1.000000 0.000000
vn -0.000000 -1.000000 0.000000
vn -0.000000 -1.000000 0.000000
vn -0.000000 -1.000000 0.000000
vn -0.000000 -1.000000 0.000000
vn 0.000000 0.000000 -1.000000
vn 0.000000 0.000000 -1.000000
vn 0.000000 0.000000 -1.000000
vn 0.000000 0.000000 -1.000000
vn 0.000000 0.000000 -1.000000
vn 0.000000 0.000000 -1.000000
vn -0.000000 -1.000000 0.000000
vn -0.000000 -1.000000 0.000000
vn -0.000000 -1.000000 0.000000
vn -0.000000 -1.000000 0.000000
vn -0.000000 -1.000000 0.000000
vn -0.000000 -1.000000 0.000000
vn -1.000000 0.000000 0.000000
vn -1.000000 0.000000 0.000000
vn -1.000000 0.000000 0.000000
vn -1.000000 0.000000 0.000000
vn -1.000000 0.000000 0.000000
vn -1.000000 0.000000 0.000000
vn -0.000000 -1.000000 0.000000
vn -0.000000 -1.000000 0.000000
vn -0.000000 -1.000000 0.000000
vn -0.000000 -1.000000 0.000000
vn -0.000000 -1.000000 0.000000
vn -0.000000 -1.000000 0.000000
vn 0.000001 0.000000 -1.000000
vn 0.000001 0.000000 -1.000000
vn 0.000001 0.000000 -1.000000
vn 0.000001 0.000000 -1.000000
vn 0.000001 0.000000 -1.000000
vn 0.000001 0.000000 -1.000000
vn -0.000000 -1.000000 0.000000
vn -0.000000 -1.000000 0.000000
vn -0.000000 -1.000000 0.000000
vn -0.000000 -1.000000 0.000000
vn -0.000000 -1.000000 0.000000
vn -0.000000 -1.000000 0.000000
vn -0.000000 0.000000 -1.000000
vn -0.000000 0.000000 -1.000000
vn -0.000000 0.000000 -1.000000
vn -0.000000 0.000000 -1.000000
vn -0.000000 0.000000 -1.000000
vn -0.000000 0.000000 -1.000000
vn 1.000000 0.000000 0.000000
vn 1.000000 0.000000 0.000000
vn 1.000000 0.000000 0.000000
vn 1.000000 0.000000 0.000000
vn 1.000000 0.000000 0.000000
vn 1.000000 0.000000 0.000000
vn -0.000000 0.000000 -1.000000
vn -0.000000 0.000000 -1.000000
vn -0.000000 0.000000 -1.000000
vn -0.000000 -0.000002 -1.000000
vn -0.000000 -0.000002 -1.000000
vn -0.000000 -0.000002 -1.000000
vn -0.000000 -1.000000 0.000000
vn -0.000000 -1.000000 0.000000
vn -0.000000 -1.000000 0.000000
vn -0.000000 -1.000000 0.000000
vn -0.000000 -1.000000 0.000000
vn -0.000000 -1.000000 0.000000
vn 0.000001 0.000000 -1.000000
vn 0.000001 0.000000 -1.000000
vn 0.000001 0.000000 -1.000000
vn 0.000001 0.000000 -1.000000
vn 0.000001 0.000000 -1.000000
vn 0.000001 0.000000 -1.000000
vn 0.000000 -1.000000 0.000000
vn 0.000000 -1.000000 0.000000
vn 0.000000 -1.000000 0.000000
vn -0.000000 -1.000000 0.000000
vn -0.000000 -1.000000 0.000000
vn -0.000000 -1.000000 0.000000
vn 1.000000 0.000000 0.000000
vn 1.000000 0.000000 0.000000
vn 1.000000 0.000000 0.000000
vn 1.000000 0.000000 0.000000
vn 1.000000 0.000000 0.000000
vn 1.000000 0.000000 0.000000
vn 0.000000 0.000001 -1.000000
vn 0.000000 0.000001 -1.000000
vn 0.000000 0.000001 -1.000000
vn 0.000000 0.000000 -1.000000
vn 0.000000 0.000000 -1.000000
vn 0.000000 0.000000 -1.000000
vn -0.000000 -1.000000 0.000000
vn -0.000000 -1.000000 0.000000
vn -0.000000 -1.000000 0.000000
vn -0.000000 -1.000000 0.000000
vn -0.000000 -1.000000 0.000000
vn -0.000000 -1.000000 0.000000
vn 1.000000 0.000000 0.000000
vn 1.000000 0.000000 0.000000
vn 1.000000 0.000000 0.000000
vn 1.000000 0.000000 0.000000
vn 1.000000 0.000000 0.000000
vn 1.000000 0.000000 0.000000
vn -0.000000 0.000000 -1.000000
vn -0.000000 0.000000 -1.000000
vn -0.000000 0.000000 -1.000000
vn -0.000000 0.000000 -1.000000
vn -0.000000 0.000000 -1.000000
vn -0.000000 0.000000 -1.000000
vn -0.000000 0.000000 -1.000000
vn -0.000000 0.000000 -1.000000
vn -0.000000 0.000000 -1.000000
vn -0.000000 0.000002 -1.000000
vn -0.000000 0.000002 -1.000000
vn -0.000000 0.000002 -1.000000
vn -1.000000 0.000000 0.000000
vn -1.000000 0.000000 0.000000
vn -1.000000 0.000000 0.000000
vn -1.000000 0.000000 0.000000
vn -1.000000 0.000000 0.000000
vn -1.000000 0.000000 0.000000
vn -0.000000 0.000000 -1.000000
vn -0.000000 0.000000 -1.000000
vn -0.000000 0.000000 -1.000000
vn -0.000000 0.000000 -1.000000
vn -0.000000 0.000000 -1.000000
vn -0.000000 0.000000 -1.000000
vn -0.000000 1.000000 0.000000
vn -0.000000 1.000000 0.000000
vn -0.000000 1.000000 0.000000
vn -0.000000 1.000000 0.000000
vn -0.000000 1.000000 0.000000
vn -0.000000 1.000000 0.000000
vn -0.000000 1.000000 0.000000
vn -0.000000 1.000000 0.000000
vn -0.000000 1.000000 0.000000
vn -0.000000 1.000000 0.000000
vn -0.000000 1.000000 0.000000
vn -0.000000 1.000000 0.000000
vn -0.000000 -1.000000 0.000000
vn -0.000000 -1.000000 0.000000
vn -0.000000 -1.000000 0.000000
vn -0.000000 -1.000000 0.000000
vn -0.000000 -1.000000 0.000000
vn -0.000000 -1.000000 0.000000
vn 0.000000 1.000000 0.000000
vn 0.000000 1.000000 0.000000
vn 0.000000 1.000000 0.000000
vn -0.000000 1.000000 0.000000
vn -0.000000 1.000000 0.000000
vn -0.000000 1.000000 0.000000
vn 0.000000 0.000001 -1.000000
vn 0.000000 0.000001 -1.000000
vn 0.000000 0.000001 -1.000000
vn 0.000000 0.000000 -1.000000
vn 0.000000 0.000000 -1.000000
vn 0.000000 0.000000 -1.000000
vn -0.000000 -1.000000 0.000000
vn -0.000000 -1.000000 0.000000
vn -0.000000 -1.000000 0.000000
vn -0.000000 -1.000000 0.000000
vn -0.000000 -1.000000 0.000000
vn -0.000000 -1.000000 0.000000
vn 1.000000 0.000000 0.000000
vn 1.000000 0.000000 0.000000
vn 1.000000 0.000000 0.000000
vn 1.000000 0.000000 0.000000
vn 1.000000 0.000000 0.000000
vn 1.000000 0.000000 0.000000
vn -0.000000 0.000000 -1.000000
vn -0.000000 0.000000 -1.000000
vn -0.000000 0.000000 -1.000000
vn -0.000000 0.000000 -1.000000
vn -0.000000 0.000000 -1.000000
vn -0.000000 0.000000 -1.000000
vn -0.000000 1.000000 0.000000
vn -0.000000 1.000000 0.000000
vn -0.000000 1.000000 0.000000
vn -0.000000 1.000000 0.000000
vn -0.000000 1.000000 0.000000
vn -0.000000 1.000000 0.000000
vn -1.000000 0.000000 -0.000002
vn -1.000000 0.000000 -0.000002
vn -1.000000 0.000000 -0.000002
vn -1.000000 0.000000 -0.000002
vn -1.000000 0.000000 -0.000002
vn -1.000000 0.000000 -0.000002
vn -0.000000 1.000000 0.000000
vn -0.000000 1.000000 0.000000
vn -0.000000 1.000000 0.000000
vn -0.000000 1.000000 0.000000
vn -0.000000 1.000000 0.000000
vn -0.000000 1.000000 0.000000
vn -0.000000 0.000000 1.000000
vn -0.000000 0.000000 1.000000
vn -0.000000 0.000000 1.000000
vn -0.000000 0.000000 1.000000
vn -0.000000 0.000000 1.000000
vn -0.000000 0.000000 1.000000
vn -0.000000 1.000000 0.000000
vn -0.000000 1.000000 0.000000
vn -0.000000 1.000000 0.000000
vn -0.000000 1.000000 0.000000
vn -0.000000 1.000000 0.000000
vn -0.000000 1.000000 0.000000
vn -0.000000 0.000000 -1.000000
vn -0.000000 0.000000 -1.000000
vn -0.000000 0.000000 -1.000000
vn -0.000000 0.000000 -1.000000
vn -0.000000 0.000000 -1.000000
vn -0.000000 0.000000 -1.000000
vn 0.000000 0.000000 -1.000000
vn 0.000000 0.000000 -1.000000
vn 0.000000 0.000000 -1.000000
vn 0.000000 0.000000 -1.000000
vn 0.000000 0.000000 -1.000000
vn 0.000000 0.000000 -1.000000

g Material
f 3/1/1 1/2/2 2/3/3
f 4/4/4 1/5/5 3/6/6
f 7/7/7 5/8/8 6/9/9
f 8/10/10 5/11/11 7/12/12
f 11/13/13 9/14/14 10/15/15
f 12/16/16 9/17/17 11/18/18
f 15/19/19 13/20/20 14/21/21
f 16/22/22 13/23/23 15/24/24
f 19/25/25 17/26/26 18/27/27
f 20/28/28 17/29/29 19/30/30
f 23/31/31 21/32/32 22/33/33
f 24/34/34 21/35/35 23/36/36
f 27/37/37 25/38/38 26/39/39
f 28/40/40 25/41/41 27/42/42
f 31/43/43 29/44/44 30/45/45
f 32/46/46 29/47/47 31/48/48
f 35/49/49 33/50/50 34/51/51
f 36/52/52 33/53/53 35/54/54
f 39/55/55 37/56/56 38/57/57
f 40/58/58 37/59/59 39/60/60
f 47/61/61 45/62/62 46/63/63
f 48/64/64 45/65/65 47/66/66
f 51/67/67 49/68/68 50/69/69
f 52/70/70 49/71/71 51/72/72
f 55/73/73 53/74/74 54/75/75
f 56/76/76 53/77/77 55/78/78
f 59/79/79 57/80/80 58/81/81
f 60/82/82 57/83/83 59/84/84
f 63/85/85 61/86/86 62/87/87
f 64/88/88 61/89/89 63/90/90
f 67/91/91 65/92/92 66/93/93
f 68/94/94 65/95/95 67/96/96
f 71/97/97 69/98/98 70/99/99
f 72/100/100 69/101/101 71/102/102
f 75/103/103 73/104/104 74/105/105
f 76/106/106 73/107/107 75/108/108
f 79/109/109 77/110/110 78/111/111
f 80/112/112 77/113/113 79/114/114
f 83/115/115 81/116/116 82/117/117
f 84/118/118 81/119/119 83/120/120
f 87/121/121 85/122/122 86/123/123
f 88/124/124 85/125/125 87/126/126
f 91/127/127 89/128/128 90/129/129
f 92/130/130 89/131/131 91/132/132
f 95/133/133 93/134/134 94/135/135
f 96/136/136 93/137/137 95/138/138
f 99/139/139 97/140/140 98/141/141
f 100/142/142 97/143/143 99/144/144
f 103/145/145 101/146/146 102/147/147
f 104/148/148 101/149/149 103/150/150
f 107/151/151 105/152/152 106/153/153
f 108/154/154 105/155/155 107/156/156
f 111/157/157 109/158/158 110/159/159
f 112/160/160 109/161/161 111/162/162
f 115/163/163 113/164/164 114/165/165
f 116/166/166 113/167/167 115/168/168
f 119/169/169 117/170/170 118/171/171
f 120/172/172 117/173/173 119/174/174
f 123/175/175 121/176/176 122/177/177
f 124/178/178 121/179/179 123/180/180
f 127/181/181 125/182/182 126/183/183
f 128/184/184 125/185/185 127/186/186
f 131/187/187 129/188/188 130/189/189
f 132/190/190 129/191/191 131/192/192
f 135/193/193 133/194/194 134/195/195
f 136/196/196 133/197/197 135/198/198
f 139/199/199 137/200/200 138/201/201
f 140/202/202 137/203/203 139/204/204
f 143/205/205 141/206/206 142/207/207
f 144/208/208 141/209/209 143/210/210
f 147/211/211 145/212/212 146/213/213
f 148/214/214 145/215/215 147/216/216
f 151/217/217 149/218/218 150/219/219
f 152/220/220 149/221/221 151/222/222
f 155/223/223 153/224/224 154/225/225
f 156/226/226 153/227/227 155/228/228
f 159/229/229 157/230/230 158/231/231
f 160/232/232 157/233/233 159/234/234
f 163/235/235 161/236/236 162/237/237
f 164/238/238 161/239/239 163/240/240
f 167/241/241 165/242/242 166/243/243
f 168/244/244 165/245/245 167/246/246
f 171/247/247 169/248/248 170/249/249
f 172/250/250 169/251/251 171/252/252
f 175/253/253 173/254/254 174/255/255
f 176/256/256 173/257/257 175/258/258
f 179/259/259 177/260/260 178/261/261
f 180/262/262 177/263/263 179/264/264
f 183/265/265 181/266/266 182/267/267
f 184/268/268 181/269/269 183/270/270
f 187/271/271 185/272/272 186/273/273
f 188/274/274 185/275/275 187/276/276
f 191/277/277 189/278/278 190/279/279
f 192/280/280 189/281/281 191/282/282
f 199/283/283 197/284/284 198/285/285
f 200/286/286 197/287/287 199/288/288
f 203/289/289 201/290/290 202/291/291
f 204/292/292 201/293/293 203/294/294
f 207/295/295 205/296/296 206/297/297
f 208/298/298 205/299/299 207/300/300
f 211/301/301 209/302/302 210/303/303
f 212/304/304 209/305/305 211/306/306
f 215/307/307 213/308/308 214/309/309
f 216/310/310 213/311/311 215/312/312
f 219/313/313 217/314/314 218/315/315
f 220/316/316 217/317/317 219/318/318
f 223/319/319 221/320/320 222/321/321
f 224/322/322 221/323/323 223/324/324
f 227/325/325 225/326/326 226/327/327
f 228/328/328 225/329/329 227/330/330
f 231/331/331 229/332/332 230/333/333
f 232/334/334 229/335/335 231/336/336

g Material.001
f 43/337/337 41/338/338 42/339/339
f 44/340/340 41/341/341 43/342/342
f 195/343/343 193/344/344 194/345/345
f 196/346/346 193/347/347 195/348/348

