# Converted from B3D for Luanti (With Correct Normals)
# Object Name: multidecor_window_segment_2

v 0.800000 0.875000 0.800000
v 0.800000 0.875000 -1.000000
v 0.800000 1.000000 -1.000000
v 0.800000 1.000000 0.800000
v 1.000000 0.750000 1.000000
v 1.000000 0.750000 -1.000000
v 1.000000 1.000000 -1.000000
v 1.000000 1.000000 1.000000
v 1.000000 1.000000 1.000000
v -1.000000 1.000000 1.000000
v -1.000000 0.750000 1.000000
v 1.000000 0.750000 1.000000
v 0.800000 0.875000 0.800000
v -1.000000 0.875000 0.800000
v -1.000000 0.750000 0.800000
v 0.800000 0.750000 0.800000
v 1.000000 0.750000 1.000000
v 0.800000 0.750000 0.800000
v 0.800000 0.750000 -1.000000
v 1.000000 0.750000 -1.000000
v -1.000000 0.750000 1.000000
v -1.000000 0.750000 0.800000
v 0.800000 0.750000 0.800000
v 1.000000 0.750000 1.000000
v 1.000000 1.000000 1.000000
v 0.800000 1.000000 0.800000
v -1.000000 1.000000 0.800000
v -1.000000 1.000000 1.000000
v 1.000000 1.000000 -1.000000
v 0.800000 1.000000 -1.000000
v 0.800000 1.000000 0.800000
v 1.000000 1.000000 1.000000
v 0.800000 1.000000 0.800000
v -1.000000 1.000000 0.800000
v -1.000000 0.875000 0.800000
v 0.800000 0.875000 0.800000
v 0.800000 0.750000 0.800000
v 0.800000 0.750000 -1.000000
v 0.800000 0.875000 -1.000000
v 0.800000 0.875000 0.800000
v -1.000000 0.875000 0.800000
v -1.000000 0.875000 -1.000000
v 0.800000 0.875000 -1.000000
v 0.800000 0.875000 0.800000

vt 0.837679 0.999865
vt 0.900162 0.100107
vt 0.900162 0.999865
vt 0.837679 0.100107
vt 0.900162 0.100107
vt 0.837679 0.999865
vt 0.737706 0.999865
vt 0.612739 0.000134
vt 0.612739 0.999865
vt 0.737705 0.000134
vt 0.612739 0.000134
vt 0.737706 0.999865
vt 0.162591 0.000134
vt 0.287557 0.999866
vt 0.287558 0.000134
vt 0.162591 0.999866
vt 0.287557 0.999866
vt 0.162591 0.000134
vt 0.062618 0.000134
vt 0.000134 0.899893
vt 0.000135 0.000134
vt 0.062618 0.899893
vt 0.000134 0.899893
vt 0.062618 0.000134
vt 0.512766 0.999866
vt 0.612739 0.000134
vt 0.512766 0.100107
vt 0.612739 0.999865
vt 0.612739 0.000134
vt 0.512766 0.999866
vt 0.062618 0.899893
vt 0.162591 0.000134
vt 0.062618 0.000134
vt 0.162591 0.999866
vt 0.162591 0.000134
vt 0.062618 0.899893
vt 0.387531 0.000134
vt 0.287557 0.999866
vt 0.387530 0.899892
vt 0.287558 0.000134
vt 0.287557 0.999866
vt 0.387531 0.000134
vt 0.837679 0.100107
vt 0.737706 0.999865
vt 0.837679 0.999865
vt 0.737705 0.000134
vt 0.737706 0.999865
vt 0.837679 0.100107
vt 0.450014 0.000134
vt 0.387530 0.899892
vt 0.387531 0.000134
vt 0.450014 0.899893
vt 0.387530 0.899892
vt 0.450014 0.000134
vt 0.450283 0.999866
vt 0.512766 0.100107
vt 0.512766 0.999866
vt 0.450282 0.100107
vt 0.512766 0.100107
vt 0.450283 0.999866
vt 0.999900 0.000100
vt 0.000100 0.999900
vt 0.000100 0.000100
vt 0.999900 0.999900
vt 0.000100 0.999900
vt 0.999900 0.000100

vn 1.000000 0.000000 0.000000
vn 1.000000 0.000000 0.000000
vn 1.000000 0.000000 0.000000
vn 1.000000 0.000000 0.000000
vn 1.000000 0.000000 0.000000
vn 1.000000 0.000000 0.000000
vn 1.000000 0.000000 0.000000
vn 1.000000 0.000000 0.000000
vn 1.000000 0.000000 0.000000
vn 1.000000 0.000000 0.000000
vn 1.000000 0.000000 0.000000
vn 1.000000 0.000000 0.000000
vn -0.000000 0.000000 1.000000
vn -0.000000 0.000000 1.000000
vn -0.000000 0.000000 1.000000
vn -0.000000 0.000000 1.000000
vn -0.000000 0.000000 1.000000
vn -0.000000 0.000000 1.000000
vn -0.000000 0.000000 1.000000
vn -0.000000 0.000000 1.000000
vn -0.000000 0.000000 1.000000
vn -0.000000 0.000000 1.000000
vn -0.000000 0.000000 1.000000
vn -0.000000 0.000000 1.000000
vn 0.000000 -1.000000 0.000000
vn 0.000000 -1.000000 0.000000
vn 0.000000 -1.000000 0.000000
vn -0.000000 -1.000000 0.000000
vn -0.000000 -1.000000 0.000000
vn -0.000000 -1.000000 0.000000
vn -0.000000 -1.000000 0.000000
vn -0.000000 -1.000000 0.000000
vn -0.000000 -1.000000 0.000000
vn -0.000000 -1.000000 0.000000
vn -0.000000 -1.000000 0.000000
vn -0.000000 -1.000000 0.000000
vn -0.000000 1.000000 -0.000001
vn -0.000000 1.000000 -0.000001
vn -0.000000 1.000000 -0.000001
vn -0.000000 1.000000 -0.000001
vn -0.000000 1.000000 -0.000001
vn -0.000000 1.000000 -0.000001
vn -0.000000 1.000000 0.000000
vn -0.000000 1.000000 0.000000
vn -0.000000 1.000000 0.000000
vn -0.000000 1.000000 -0.000000
vn -0.000000 1.000000 -0.000000
vn -0.000000 1.000000 -0.000000
vn -0.000000 0.000000 1.000000
vn -0.000000 0.000000 1.000000
vn -0.000000 0.000000 1.000000
vn -0.000000 0.000001 1.000000
vn -0.000000 0.000001 1.000000
vn -0.000000 0.000001 1.000000
vn 1.000000 0.000000 -0.000000
vn 1.000000 0.000000 -0.000000
vn 1.000000 0.000000 -0.000000
vn 1.000000 0.000000 0.000000
vn 1.000000 0.000000 0.000000
vn 1.000000 0.000000 0.000000
vn -0.000000 -1.000000 0.000000
vn -0.000000 -1.000000 0.000000
vn -0.000000 -1.000000 0.000000
vn -0.000000 -1.000000 0.000000
vn -0.000000 -1.000000 0.000000
vn -0.000000 -1.000000 0.000000

g Material
f 3/1/1 1/2/2 2/3/3
f 4/4/4 1/5/5 3/6/6
f 7/7/7 5/8/8 6/9/9
f 8/10/10 5/11/11 7/12/12
f 11/13/13 9/14/14 10/15/15
f 12/16/16 9/17/17 11/18/18
f 15/19/19 13/20/20 14/21/21
f 16/22/22 13/23/23 15/24/24
f 19/25/25 17/26/26 18/27/27
f 20/28/28 17/29/29 19/30/30
f 23/31/31 21/32/32 22/33/33
f 24/34/34 21/35/35 23/36/36
f 27/37/37 25/38/38 26/39/39
f 28/40/40 25/41/41 27/42/42
f 31/43/43 29/44/44 30/45/45
f 32/46/46 29/47/47 31/48/48
f 35/49/49 33/50/50 34/51/51
f 36/52/52 33/53/53 35/54/54
f 39/55/55 37/56/56 38/57/57
f 40/58/58 37/59/59 39/60/60

g Material.001
f 43/61/61 41/62/62 42/63/63
f 44/64/64 41/65/65 43/66/66

