# Converted from B3D for Luanti (With Correct Normals)
# Object Name: multidecor_modern_wooden_door

v 1.000000 3.000000 -0.150000
v -1.000000 3.000000 0.150000
v 1.000000 3.000000 0.150000
v -1.000000 3.000000 -0.150000
v -1.000000 3.000000 0.150000
v 1.000000 3.000000 -0.150000
v 1.000000 3.000000 -0.150000
v -1.000000 -1.000000 -0.150000
v -1.000000 3.000000 -0.150000
v 1.000000 -1.000000 -0.150000
v -1.000000 -1.000000 -0.150000
v 1.000000 3.000000 -0.150000
v 1.000000 3.000000 0.150000
v 1.000000 -1.000000 -0.150000
v 1.000000 3.000000 -0.150000
v 1.000000 -1.000000 0.150000
v 1.000000 -1.000000 -0.150000
v 1.000000 3.000000 0.150000
v -1.000000 -1.000000 -0.150000
v 1.000000 -1.000000 0.150000
v -1.000000 -1.000000 0.150000
v 1.000000 -1.000000 -0.150000
v 1.000000 -1.000000 0.150000
v -1.000000 -1.000000 -0.150000
v -1.000000 3.000000 -0.150000
v -1.000000 -1.000000 0.150000
v -1.000000 3.000000 0.150000
v -1.000000 -1.000000 -0.150000
v -1.000000 -1.000000 0.150000
v -1.000000 3.000000 -0.150000
v -1.000000 3.000000 0.150000
v 1.000000 -1.000000 0.150000
v 1.000000 3.000000 0.150000
v -1.000000 -1.000000 0.150000
v 1.000000 -1.000000 0.150000
v -1.000000 3.000000 0.150000
v -0.600000 0.895424 -0.356698
v -0.900000 0.895424 -0.249999
v -0.900000 0.895424 -0.356698
v -0.600000 0.895424 -0.249999
v -0.900000 0.895424 -0.249999
v -0.600000 0.895424 -0.356698
v -0.600000 1.195424 -0.356698
v -0.600000 0.895424 -0.249999
v -0.600000 0.895424 -0.356698
v -0.600000 1.195424 -0.249999
v -0.600000 0.895424 -0.249999
v -0.600000 1.195424 -0.356698
v -0.900000 1.195424 -0.356698
v -0.600000 1.195424 -0.249999
v -0.600000 1.195424 -0.356698
v -0.900000 1.195424 -0.249999
v -0.600000 1.195424 -0.249999
v -0.900000 1.195424 -0.356698
v -0.900000 0.895424 -0.356698
v -0.900000 1.195424 -0.249999
v -0.900000 1.195424 -0.356698
v -0.900000 0.895424 -0.249999
v -0.900000 1.195424 -0.249999
v -0.900000 0.895424 -0.356698
v -0.900000 1.195424 -0.249999
v -0.600000 0.895424 -0.249999
v -0.600000 1.195424 -0.249999
v -0.900000 0.895424 -0.249999
v -0.600000 0.895424 -0.249999
v -0.900000 1.195424 -0.249999
v -0.900000 0.895424 -0.356698
v -0.600000 1.195424 -0.356698
v -0.600000 0.895424 -0.356698
v -0.900000 1.195424 -0.356698
v -0.600000 1.195424 -0.356698
v -0.900000 0.895424 -0.356698
v -0.600000 1.195424 0.356698
v -0.600000 0.895424 0.356698
v -0.600000 0.895424 0.249999
v -0.600000 1.195424 0.249999
v -0.600000 1.195424 0.356698
v -0.600000 0.895424 0.249999
v -0.600000 0.895424 0.356698
v -0.900000 0.895424 0.356698
v -0.900000 0.895424 0.249999
v -0.600000 0.895424 0.249999
v -0.600000 0.895424 0.356698
v -0.900000 0.895424 0.249999
v -0.675000 0.970424 -0.150000
v -0.825000 0.970424 -0.249999
v -0.675000 0.970424 -0.249999
v -0.825000 0.970424 -0.150000
v -0.825000 0.970424 -0.249999
v -0.675000 0.970424 -0.150000
v -0.825000 0.970424 -0.150000
v -0.825000 1.120424 -0.249999
v -0.825000 0.970424 -0.249999
v -0.825000 1.120424 -0.150000
v -0.825000 1.120424 -0.249999
v -0.825000 0.970424 -0.150000
v -0.675000 1.120424 -0.150000
v -0.675000 0.970424 -0.249999
v -0.675000 1.120424 -0.249999
v -0.675000 0.970424 -0.150000
v -0.675000 0.970424 -0.249999
v -0.675000 1.120424 -0.150000
v -0.825000 1.120424 -0.150000
v -0.675000 1.120424 -0.249999
v -0.825000 1.120424 -0.249999
v -0.675000 1.120424 -0.150000
v -0.675000 1.120424 -0.249999
v -0.825000 1.120424 -0.150000
v -0.900000 1.195424 0.356698
v -0.600000 1.195424 0.356698
v -0.600000 1.195424 0.249999
v -0.900000 1.195424 0.249999
v -0.900000 1.195424 0.356698
v -0.600000 1.195424 0.249999
v -0.900000 0.895424 0.356698
v -0.900000 1.195424 0.356698
v -0.900000 1.195424 0.249999
v -0.900000 0.895424 0.249999
v -0.900000 0.895424 0.356698
v -0.900000 1.195424 0.249999
v -0.900000 1.195424 0.249999
v -0.600000 1.195424 0.249999
v -0.600000 0.895424 0.249999
v -0.900000 0.895424 0.249999
v -0.900000 1.195424 0.249999
v -0.600000 0.895424 0.249999
v -0.900000 0.895424 0.356698
v -0.600000 0.895424 0.356698
v -0.600000 1.195424 0.356698
v -0.900000 1.195424 0.356698
v -0.900000 0.895424 0.356698
v -0.600000 1.195424 0.356698
v -0.675000 0.970424 0.150000
v -0.675000 0.970424 0.249999
v -0.825000 0.970424 0.249999
v -0.825000 0.970424 0.150000
v -0.675000 0.970424 0.150000
v -0.825000 0.970424 0.249999
v -0.825000 0.970424 0.150000
v -0.825000 0.970424 0.249999
v -0.825000 1.120424 0.249999
v -0.825000 1.120424 0.150000
v -0.825000 0.970424 0.150000
v -0.825000 1.120424 0.249999
v -0.675000 1.120424 0.150000
v -0.675000 1.120424 0.249999
v -0.675000 0.970424 0.249999
v -0.675000 0.970424 0.150000
v -0.675000 1.120424 0.150000
v -0.675000 0.970424 0.249999
v -0.825000 1.120424 0.150000
v -0.825000 1.120424 0.249999
v -0.675000 1.120424 0.249999
v -0.675000 1.120424 0.150000
v -0.825000 1.120424 0.150000
v -0.675000 1.120424 0.249999

vt 0.499950 0.190354
vt 0.565154 0.190354
vt 0.499950 0.625050
vt 0.565154 0.190354
vt 0.565154 0.625050
vt 0.499950 0.625050
vt 0.749900 0.000304
vt 0.250068 0.000304
vt 0.749900 0.999696
vt 0.250068 0.000304
vt 0.250068 0.999696
vt 0.749900 0.999696
vt 0.666016 0.065304
vt 0.731220 0.065304
vt 0.666016 0.934695
vt 0.731220 0.065304
vt 0.731220 0.934695
vt 0.666016 0.934695
vt 0.565154 0.559645
vt 0.499950 0.559646
vt 0.565154 0.124950
vt 0.499950 0.559646
vt 0.499950 0.124950
vt 0.565154 0.124950
vt 0.666016 0.065304
vt 0.731220 0.065304
vt 0.666016 0.934696
vt 0.731220 0.065304
vt 0.731220 0.934696
vt 0.666016 0.934696
vt 0.250068 0.000304
vt 0.749900 0.000304
vt 0.250068 0.999696
vt 0.749900 0.000304
vt 0.749900 0.999696
vt 0.250068 0.999696
vt 0.626739 0.360750
vt 0.626739 0.094761
vt 0.721342 0.360750
vt 0.626739 0.094761
vt 0.721342 0.094761
vt 0.721342 0.360750
vt 0.626739 0.094761
vt 0.360750 0.094761
vt 0.626739 0.000158
vt 0.360750 0.094761
vt 0.360750 0.000158
vt 0.626739 0.000158
vt 0.360750 0.094761
vt 0.360750 0.360750
vt 0.266147 0.094761
vt 0.360750 0.360750
vt 0.266147 0.360750
vt 0.266147 0.094761
vt 0.360750 0.360750
vt 0.626739 0.360750
vt 0.360750 0.455353
vt 0.626739 0.360750
vt 0.626739 0.455353
vt 0.360750 0.455353
vt 0.266147 0.094761
vt 0.266147 0.360750
vt 0.000158 0.094761
vt 0.266147 0.360750
vt 0.000158 0.360750
vt 0.000158 0.094761
vt 0.626739 0.094761
vt 0.626739 0.360750
vt 0.360750 0.094761
vt 0.626739 0.360750
vt 0.360750 0.360750
vt 0.360750 0.094761
vt 0.626739 0.455669
vt 0.360750 0.550272
vt 0.626739 0.550272
vt 0.626739 0.455669
vt 0.360750 0.455669
vt 0.360750 0.550272
vt 0.721342 0.816261
vt 0.626739 0.550272
vt 0.626739 0.816261
vt 0.721342 0.816261
vt 0.721342 0.550272
vt 0.626739 0.550272
vt 0.721658 0.266147
vt 0.810320 0.266147
vt 0.721658 0.399142
vt 0.810320 0.266147
vt 0.810320 0.399142
vt 0.721658 0.399142
vt 0.721658 0.399142
vt 0.810320 0.399142
vt 0.721658 0.532136
vt 0.810320 0.399142
vt 0.810320 0.532136
vt 0.721658 0.532136
vt 0.721658 0.133153
vt 0.810320 0.133153
vt 0.721658 0.266147
vt 0.810320 0.133153
vt 0.810320 0.266147
vt 0.721658 0.266147
vt 0.721658 0.000158
vt 0.810320 0.000158
vt 0.721658 0.133153
vt 0.810320 0.000158
vt 0.810320 0.133153
vt 0.721658 0.133153
vt 0.266147 0.550272
vt 0.360750 0.816261
vt 0.360750 0.550272
vt 0.266147 0.550272
vt 0.266147 0.816261
vt 0.360750 0.816261
vt 0.360750 0.910864
vt 0.626739 0.816261
vt 0.360750 0.816261
vt 0.360750 0.910864
vt 0.626739 0.910864
vt 0.626739 0.816261
vt 0.000158 0.550272
vt 0.266147 0.816261
vt 0.266147 0.550272
vt 0.000158 0.550272
vt 0.000158 0.816261
vt 0.266147 0.816261
vt 0.360750 0.550272
vt 0.626739 0.816261
vt 0.626739 0.550272
vt 0.360750 0.550272
vt 0.360750 0.816261
vt 0.626739 0.816261
vt 0.399141 0.999842
vt 0.266147 0.911180
vt 0.266147 0.999842
vt 0.399141 0.999842
vt 0.399141 0.911180
vt 0.266147 0.911180
vt 0.532136 0.999842
vt 0.399141 0.911180
vt 0.399141 0.999842
vt 0.532136 0.999842
vt 0.532136 0.911180
vt 0.399141 0.911180
vt 0.266147 0.999842
vt 0.133152 0.911180
vt 0.133152 0.999842
vt 0.266147 0.999842
vt 0.266147 0.911180
vt 0.133152 0.911180
vt 0.133152 0.999842
vt 0.000158 0.911180
vt 0.000158 0.999842
vt 0.133152 0.999842
vt 0.133152 0.911180
vt 0.000158 0.911180

vn -0.000000 1.000000 0.000000
vn -0.000000 1.000000 0.000000
vn -0.000000 1.000000 0.000000
vn -0.000000 1.000000 0.000000
vn -0.000000 1.000000 0.000000
vn -0.000000 1.000000 0.000000
vn -0.000000 0.000000 -1.000000
vn -0.000000 0.000000 -1.000000
vn -0.000000 0.000000 -1.000000
vn -0.000000 0.000000 -1.000000
vn -0.000000 0.000000 -1.000000
vn -0.000000 0.000000 -1.000000
vn 1.000000 0.000000 0.000000
vn 1.000000 0.000000 0.000000
vn 1.000000 0.000000 0.000000
vn 1.000000 0.000000 0.000000
vn 1.000000 0.000000 0.000000
vn 1.000000 0.000000 0.000000
vn -0.000000 -1.000000 0.000000
vn -0.000000 -1.000000 0.000000
vn -0.000000 -1.000000 0.000000
vn -0.000000 -1.000000 0.000000
vn -0.000000 -1.000000 0.000000
vn -0.000000 -1.000000 0.000000
vn -1.000000 0.000000 0.000000
vn -1.000000 0.000000 0.000000
vn -1.000000 0.000000 0.000000
vn -1.000000 0.000000 0.000000
vn -1.000000 0.000000 0.000000
vn -1.000000 0.000000 0.000000
vn -0.000000 0.000000 1.000000
vn -0.000000 0.000000 1.000000
vn -0.000000 0.000000 1.000000
vn -0.000000 0.000000 1.000000
vn -0.000000 0.000000 1.000000
vn -0.000000 0.000000 1.000000
vn -0.000000 -1.000000 0.000000
vn -0.000000 -1.000000 0.000000
vn -0.000000 -1.000000 0.000000
vn -0.000000 -1.000000 0.000000
vn -0.000000 -1.000000 0.000000
vn -0.000000 -1.000000 0.000000
vn 1.000000 -0.000000 0.000000
vn 1.000000 -0.000000 0.000000
vn 1.000000 -0.000000 0.000000
vn 1.000000 -0.000000 0.000000
vn 1.000000 -0.000000 0.000000
vn 1.000000 -0.000000 0.000000
vn -0.000000 1.000000 0.000000
vn -0.000000 1.000000 0.000000
vn -0.000000 1.000000 0.000000
vn -0.000000 1.000000 0.000000
vn -0.000000 1.000000 0.000000
vn -0.000000 1.000000 0.000000
vn -1.000000 0.000000 0.000000
vn -1.000000 0.000000 0.000000
vn -1.000000 0.000000 0.000000
vn -1.000000 0.000000 0.000000
vn -1.000000 0.000000 0.000000
vn -1.000000 0.000000 0.000000
vn -0.000000 0.000000 1.000000
vn -0.000000 0.000000 1.000000
vn -0.000000 0.000000 1.000000
vn -0.000000 0.000000 1.000000
vn -0.000000 0.000000 1.000000
vn -0.000000 0.000000 1.000000
vn -0.000000 0.000000 -1.000000
vn -0.000000 0.000000 -1.000000
vn -0.000000 0.000000 -1.000000
vn -0.000000 0.000000 -1.000000
vn -0.000000 0.000000 -1.000000
vn -0.000000 0.000000 -1.000000
vn 1.000000 -0.000000 0.000000
vn 1.000000 -0.000000 0.000000
vn 1.000000 -0.000000 0.000000
vn 1.000000 -0.000000 0.000000
vn 1.000000 -0.000000 0.000000
vn 1.000000 -0.000000 0.000000
vn -0.000000 -1.000000 0.000000
vn -0.000000 -1.000000 0.000000
vn -0.000000 -1.000000 0.000000
vn -0.000000 -1.000000 0.000000
vn -0.000000 -1.000000 0.000000
vn -0.000000 -1.000000 0.000000
vn -0.000000 -1.000000 0.000000
vn -0.000000 -1.000000 0.000000
vn -0.000000 -1.000000 0.000000
vn -0.000000 -1.000000 0.000000
vn -0.000000 -1.000000 0.000000
vn -0.000000 -1.000000 0.000000
vn -1.000000 0.000000 0.000000
vn -1.000000 0.000000 0.000000
vn -1.000000 0.000000 0.000000
vn -1.000000 0.000000 0.000000
vn -1.000000 0.000000 0.000000
vn -1.000000 0.000000 0.000000
vn 1.000000 0.000000 0.000000
vn 1.000000 0.000000 0.000000
vn 1.000000 0.000000 0.000000
vn 1.000000 0.000000 0.000000
vn 1.000000 0.000000 0.000000
vn 1.000000 0.000000 0.000000
vn -0.000000 1.000000 0.000000
vn -0.000000 1.000000 0.000000
vn -0.000000 1.000000 0.000000
vn -0.000000 1.000000 0.000000
vn -0.000000 1.000000 0.000000
vn -0.000000 1.000000 0.000000
vn -0.000000 1.000000 0.000000
vn -0.000000 1.000000 0.000000
vn -0.000000 1.000000 0.000000
vn -0.000000 1.000000 0.000000
vn -0.000000 1.000000 0.000000
vn -0.000000 1.000000 0.000000
vn -1.000000 0.000000 0.000000
vn -1.000000 0.000000 0.000000
vn -1.000000 0.000000 0.000000
vn -1.000000 0.000000 0.000000
vn -1.000000 0.000000 0.000000
vn -1.000000 0.000000 0.000000
vn -0.000000 0.000000 -1.000000
vn -0.000000 0.000000 -1.000000
vn -0.000000 0.000000 -1.000000
vn -0.000000 0.000000 -1.000000
vn -0.000000 0.000000 -1.000000
vn -0.000000 0.000000 -1.000000
vn -0.000000 0.000000 1.000000
vn -0.000000 0.000000 1.000000
vn -0.000000 0.000000 1.000000
vn -0.000000 0.000000 1.000000
vn -0.000000 0.000000 1.000000
vn -0.000000 0.000000 1.000000
vn -0.000000 -1.000000 0.000000
vn -0.000000 -1.000000 0.000000
vn -0.000000 -1.000000 0.000000
vn -0.000000 -1.000000 0.000000
vn -0.000000 -1.000000 0.000000
vn -0.000000 -1.000000 0.000000
vn -1.000000 0.000000 0.000000
vn -1.000000 0.000000 0.000000
vn -1.000000 0.000000 0.000000
vn -1.000000 0.000000 0.000000
vn -1.000000 0.000000 0.000000
vn -1.000000 0.000000 0.000000
vn 1.000000 0.000000 0.000000
vn 1.000000 0.000000 0.000000
vn 1.000000 0.000000 0.000000
vn 1.000000 0.000000 0.000000
vn 1.000000 0.000000 0.000000
vn 1.000000 0.000000 0.000000
vn -0.000000 1.000000 0.000000
vn -0.000000 1.000000 0.000000
vn -0.000000 1.000000 0.000000
vn -0.000000 1.000000 0.000000
vn -0.000000 1.000000 0.000000
vn -0.000000 1.000000 0.000000

g Material.001
f 3/1/1 1/2/2 2/3/3
f 6/4/4 4/5/5 5/6/6
f 9/7/7 7/8/8 8/9/9
f 12/10/10 10/11/11 11/12/12
f 15/13/13 13/14/14 14/15/15
f 18/16/16 16/17/17 17/18/18
f 21/19/19 19/20/20 20/21/21
f 24/22/22 22/23/23 23/24/24
f 27/25/25 25/26/26 26/27/27
f 30/28/28 28/29/29 29/30/30
f 33/31/31 31/32/32 32/33/33
f 36/34/34 34/35/35 35/36/36

g Material.002
f 39/37/37 37/38/38 38/39/39
f 42/40/40 40/41/41 41/42/42
f 45/43/43 43/44/44 44/45/45
f 48/46/46 46/47/47 47/48/48
f 51/49/49 49/50/50 50/51/51
f 54/52/52 52/53/53 53/54/54
f 57/55/55 55/56/56 56/57/57
f 60/58/58 58/59/59 59/60/60
f 63/61/61 61/62/62 62/63/63
f 66/64/64 64/65/65 65/66/66
f 69/67/67 67/68/68 68/69/69
f 72/70/70 70/71/71 71/72/72
f 75/73/73 73/74/74 74/75/75
f 78/76/76 76/77/77 77/78/78
f 81/79/79 79/80/80 80/81/81
f 84/82/82 82/83/83 83/84/84
f 87/85/85 85/86/86 86/87/87
f 90/88/88 88/89/89 89/90/90
f 93/91/91 91/92/92 92/93/93
f 96/94/94 94/95/95 95/96/96
f 99/97/97 97/98/98 98/99/99
f 102/100/100 100/101/101 101/102/102
f 105/103/103 103/104/104 104/105/105
f 108/106/106 106/107/107 107/108/108
f 111/109/109 109/110/110 110/111/111
f 114/112/112 112/113/113 113/114/114
f 117/115/115 115/116/116 116/117/117
f 120/118/118 118/119/119 119/120/120
f 123/121/121 121/122/122 122/123/123
f 126/124/124 124/125/125 125/126/126
f 129/127/127 127/128/128 128/129/129
f 132/130/130 130/131/131 131/132/132
f 135/133/133 133/134/134 134/135/135
f 138/136/136 136/137/137 137/138/138
f 141/139/139 139/140/140 140/141/141
f 144/142/142 142/143/143 143/144/144
f 147/145/145 145/146/146 146/147/147
f 150/148/148 148/149/149 149/150/150
f 153/151/151 151/152/152 152/153/153
f 156/154/154 154/155/155 155/156/156

