# Blender v3.0.1 OBJ File: 'jungle_bed.blend'
# www.blender.org
o Cube.001
v -1.099999 -0.150000 0.675000
v 1.100001 -0.150000 0.675000
v 1.099999 -0.150000 -3.725001
v -1.100001 -0.150000 -3.725000
v -1.100001 -1.250000 -3.725000
v 1.099999 -1.250000 -3.725001
v 1.100001 -1.250000 0.675000
v -1.099999 -1.250000 0.675000
v 1.100001 -0.150000 1.225000
v 1.100001 -1.250000 1.225000
v -1.099999 -0.150000 1.225001
v -1.099999 -1.250000 1.225001
v 1.100001 1.225000 0.675000
v 1.100001 1.225000 1.225000
v -1.099999 1.225000 0.675000
v -1.099999 1.225000 1.225001
v 0.860857 0.985857 0.675000
v 0.860857 0.125000 0.675000
v 0.860857 0.125000 0.737148
v 0.860857 0.985857 0.737148
v -1.099999 0.125000 0.675000
v 1.100001 0.125000 0.675000
v 1.099999 0.125000 -3.725001
v -1.100001 0.125000 -3.725000
v -1.210001 0.033333 -3.835000
v -1.209999 0.033333 0.675000
v 1.210001 0.033333 0.675000
v 1.209999 0.033333 -3.835001
v 1.210001 -0.058333 0.675000
v -1.209999 -0.058333 0.675000
v -1.210001 -0.058333 -3.835000
v 1.209999 -0.058333 -3.835001
v -0.825053 0.125000 0.607041
v -0.825054 0.125000 -0.562139
v 0.825054 0.125000 -0.562140
v 0.825054 0.125000 0.607040
v -0.546430 0.622196 0.354347
v 0.546431 0.622196 0.354347
v 0.546431 0.622196 -0.309446
v -0.546430 0.622196 -0.309446
v -0.905441 0.345000 -0.619097
v -0.905440 0.345000 0.663999
v -0.825053 0.455000 0.607041
v -0.825054 0.455000 -0.562139
v 0.905442 0.345000 0.663998
v 0.905441 0.345000 -0.619098
v 0.825054 0.455000 -0.562140
v 0.825054 0.455000 0.607040
v 0.905442 0.235000 0.663998
v -0.905440 0.235000 0.663999
v -0.905441 0.235000 -0.619097
v 0.905441 0.235000 -0.619098
v -0.860856 0.125000 0.675000
v -0.860856 0.985857 0.675000
v -0.860856 0.125000 0.737148
v -0.860856 0.985857 0.737148
vt 0.118465 0.855404
vt 0.000303 0.855404
vt 0.000302 0.619080
vt 0.118465 0.619080
vt 0.118465 0.500918
vt 0.591113 0.500918
vt 0.591113 0.619080
vt 0.591113 0.855404
vt 0.591113 0.973566
vt 0.118465 0.973566
vt 0.650194 0.500918
vt 0.650194 0.619080
vt 0.768356 0.619080
vt 0.768356 0.855404
vt 0.650194 0.855404
vt 0.917268 0.893961
vt 0.917268 0.953042
vt 0.769566 0.953042
vt 0.769566 0.893961
vt 0.650194 0.973566
vt 0.710485 0.893961
vt 0.710485 0.657637
vt 0.769566 0.657637
vt 0.868110 0.935530
vt 0.775637 0.935530
vt 0.775637 0.928854
vt 0.868110 0.928854
vt 0.917268 0.598556
vt 0.917268 0.657637
vt 0.769566 0.598556
vt 0.904348 0.720320
vt 0.904348 0.535373
vt 0.933889 0.509685
vt 0.933889 0.746009
vt 0.794650 0.525991
vt 0.794650 0.710938
vt 0.768961 0.736627
vt 0.768961 0.500302
vt 0.887123 0.525991
vt 0.916663 0.500302
vt 0.887123 0.710938
vt 0.916663 0.736627
vt 0.341582 0.431954
vt 0.341582 0.247008
vt 0.434055 0.247008
vt 0.434055 0.431955
vt 0.768961 0.928854
vt 0.768961 0.743907
vt 0.775637 0.743907
vt 0.775637 0.737231
vt 0.868110 0.737232
vt 0.868110 0.743908
vt 0.874786 0.743908
vt 0.874786 0.928854
vt 0.000302 0.709880
vt 0.000302 0.473556
vt 0.472951 0.473556
vt 0.472951 0.709880
vt 0.501459 0.028649
vt 0.737783 0.028649
vt 0.737783 0.501298
vt 0.501459 0.501298
vt 0.859316 0.499875
vt 0.859316 0.015411
vt 0.874698 0.015411
vt 0.874697 0.488058
vt 0.818102 0.499874
vt 0.818102 0.015411
vt 0.833483 0.027227
vt 0.833483 0.499874
vt 0.942497 0.260259
vt 0.942496 0.000302
vt 0.957878 0.012119
vt 0.957878 0.248443
vt 0.978177 0.260260
vt 0.978176 0.000302
vt 0.988023 0.012119
vt 0.988023 0.248444
vt 0.958483 0.248444
vt 0.958483 0.012119
vt 0.968329 0.000302
vt 0.968330 0.260260
vt 0.917268 0.248443
vt 0.917268 0.012119
vt 0.932650 0.000302
vt 0.932649 0.260259
vt 0.792874 0.499874
vt 0.792873 0.027227
vt 0.808255 0.015411
vt 0.808255 0.499874
vt 0.834088 0.488059
vt 0.834088 0.015411
vt 0.849469 0.015411
vt 0.849470 0.499875
vt 0.634360 0.458335
vt 0.508767 0.458335
vt 0.508767 0.281080
vt 0.634360 0.281080
vt 0.711562 0.352662
vt 0.828957 0.352662
vt 0.828957 0.423967
vt 0.711562 0.423967
vt 0.684505 0.352662
vt 0.684505 0.490492
vt 0.669870 0.484374
vt 0.669870 0.358781
vt 0.951217 0.281080
vt 0.951217 0.418910
vt 0.936582 0.412792
vt 0.936582 0.287199
vt 0.875950 0.281080
vt 0.875950 0.475605
vt 0.862643 0.466970
vt 0.862643 0.289715
vt 0.829490 0.326935
vt 0.634965 0.326935
vt 0.643600 0.313628
vt 0.820855 0.313629
vt 0.820855 0.352057
vt 0.643600 0.352057
vt 0.634965 0.338751
vt 0.829490 0.338751
vt 0.901072 0.289715
vt 0.901072 0.466970
vt 0.887766 0.475605
vt 0.887766 0.281080
vt 0.977669 0.287199
vt 0.977669 0.412792
vt 0.963034 0.418910
vt 0.963033 0.281080
vt 0.710957 0.358781
vt 0.710957 0.484374
vt 0.696322 0.490492
vt 0.696321 0.352662
vt 0.830095 0.437040
vt 0.830095 0.319645
vt 0.634965 0.457230
vt 0.634965 0.385925
vt 0.901677 0.385648
vt 0.901677 0.314343
vt 0.673530 0.281080
vt 0.790925 0.281080
vn -0.0000 0.0000 -1.0000
vn 1.0000 0.0000 -0.0000
vn -0.0000 -1.0000 -0.0000
vn -1.0000 -0.0000 0.0000
vn 0.0000 0.0000 1.0000
vn 0.0000 1.0000 0.0000
vn -0.6402 0.7682 0.0000
vn 0.6402 0.7682 -0.0000
vn -0.0000 0.7682 -0.6402
vn -0.0000 -0.7682 -0.6402
vn 0.6402 -0.7682 -0.0000
vn -0.6402 -0.7682 0.0000
vn -0.8074 0.5900 0.0000
vn 0.8074 0.5900 -0.0000
vn -0.0000 0.4598 -0.8880
vn 0.0000 0.4598 0.8880
vn 0.0000 -0.4598 0.8880
vn -0.0000 -0.4598 -0.8880
vn 0.8074 -0.5900 -0.0000
vn -0.8074 -0.5900 0.0000
vn -0.0000 0.8340 -0.5518
vn -0.5145 0.8575 0.0000
vn 0.5145 0.8575 0.0000
vn 0.0000 0.8340 0.5518
g Cube.001_Cube.001_Default_OBJ
s 1
f 5/1/1 4/2/1 3/3/1 6/4/1
f 6/4/2 3/5/2 2/6/2 7/7/2
f 7/7/3 8/8/3 5/1/3 6/4/3
f 8/8/4 1/9/4 4/10/4 5/1/4
f 7/7/2 2/6/2 9/11/2 10/12/2
f 10/12/5 9/13/5 11/14/5 12/15/5
f 8/8/3 7/7/3 10/12/3 12/15/3
f 9/16/2 2/17/2 13/18/2 14/19/2
f 1/9/4 8/8/4 12/15/4 11/20/4
f 13/21/6 15/22/6 16/23/6 14/19/6
f 17/24/4 18/25/4 19/26/4 20/27/4
f 1/28/4 11/29/4 16/23/4 15/30/4
f 11/29/5 9/16/5 14/19/5 16/23/5
f 53/31/1 18/32/1 2/33/1 1/34/1
f 17/35/1 54/36/1 15/37/1 13/38/1
f 18/39/1 17/35/1 13/38/1 2/40/1
f 54/36/1 53/41/1 1/42/1 15/37/1
f 19/43/1 55/44/1 56/45/1 20/46/1
f 18/47/6 53/48/6 55/49/6 19/26/6
f 53/50/2 54/51/2 56/52/2 55/49/2
f 54/53/3 17/54/3 20/27/3 56/52/3
g Cube.001_Cube.001_Material.001
f 1/55/6 2/56/6 3/57/6 4/58/6
f 21/59/6 22/60/6 23/61/6 24/62/6
f 25/63/7 26/64/7 21/65/7 24/66/7
f 27/67/8 28/68/8 23/69/8 22/70/8
f 28/71/9 25/72/9 24/73/9 23/74/9
f 26/75/5 27/76/5 22/77/5 21/78/5
f 1/79/5 2/80/5 29/81/5 30/82/5
f 30/82/5 29/81/5 27/76/5 26/75/5
f 3/83/10 4/84/10 31/85/10 32/86/10
f 32/86/1 31/85/1 25/72/1 28/71/1
f 2/87/11 3/88/11 32/89/11 29/90/11
f 29/90/2 32/89/2 28/68/2 27/67/2
f 4/91/12 1/92/12 30/93/12 31/94/12
f 31/94/4 30/93/4 26/64/4 25/63/4
f 33/95/3 34/96/3 35/97/3 36/98/3
f 37/99/6 38/100/6 39/101/6 40/102/6
f 41/103/13 42/104/13 43/105/13 44/106/13
f 45/107/14 46/108/14 47/109/14 48/110/14
f 46/111/15 41/112/15 44/113/15 47/114/15
f 42/115/16 45/116/16 48/117/16 43/118/16
f 33/119/17 36/120/17 49/121/17 50/122/17
f 50/122/5 49/121/5 45/116/5 42/115/5
f 35/123/18 34/124/18 51/125/18 52/126/18
f 52/126/1 51/125/1 41/112/1 46/111/1
f 36/127/19 35/128/19 52/129/19 49/130/19
f 49/130/2 52/129/2 46/108/2 45/107/2
f 34/131/20 33/132/20 50/133/20 51/134/20
f 51/134/4 50/133/4 42/104/4 41/103/4
f 40/135/21 39/136/21 47/114/21 44/113/21
f 37/137/22 40/138/22 44/106/22 43/105/22
f 39/139/23 38/140/23 48/110/23 47/109/23
f 38/141/24 37/142/24 43/118/24 48/117/24
