# Converted from B3D for Luanti (With Correct Normals)
# Object Name: multidecor_ext_quadratic2_painting

v 1.000000 1.000000 1.000001
v 1.000000 -1.000000 0.800000
v 1.000000 1.000000 0.800000
v 1.000000 -1.000001 1.000000
v 1.000000 -1.000000 0.800000
v 1.000000 1.000000 1.000001
v 1.000000 1.000000 1.000001
v -1.000000 -1.000000 1.000000
v 1.000000 -1.000001 1.000000
v -1.000000 1.000000 1.000001
v -1.000000 -1.000000 1.000000
v 1.000000 1.000000 1.000001
v -1.000000 3.000000 0.800000
v -1.000000 1.000000 1.000001
v -1.000000 3.000000 1.000000
v -1.000000 1.000000 0.800000
v -1.000000 1.000000 1.000001
v -1.000000 3.000000 0.800000
v 1.000000 3.000000 0.800000
v 0.850000 1.000000 0.800000
v 0.850000 2.850000 0.800000
v 1.000000 1.000000 0.800000
v 0.850000 1.000000 0.800000
v 1.000000 3.000000 0.800000
v 1.000000 -1.000001 1.000000
v -1.000000 -1.000000 0.800000
v 1.000000 -1.000000 0.800000
v -1.000000 -1.000000 1.000000
v -1.000000 -1.000000 0.800000
v 1.000000 -1.000001 1.000000
v -0.850000 -0.850000 0.800000
v 1.000000 -1.000000 0.800000
v -1.000000 -1.000000 0.800000
v 0.850000 -0.850001 0.800000
v 1.000000 -1.000000 0.800000
v -0.850000 -0.850000 0.800000
v -0.850000 -0.850000 0.900000
v 0.850000 -0.850001 0.800000
v -0.850000 -0.850000 0.800000
v 0.850000 -0.850001 0.900000
v 0.850000 -0.850001 0.800000
v -0.850000 -0.850000 0.900000
v 0.850000 2.850000 0.900000
v 0.850000 1.000000 0.800000
v 0.850000 1.000000 0.900001
v 0.850000 2.850000 0.800000
v 0.850000 1.000000 0.800000
v 0.850000 2.850000 0.900000
v -0.850000 1.000000 0.800000
v -1.000000 -1.000000 0.800000
v -1.000000 1.000000 0.800000
v -0.850000 -0.850000 0.800000
v -1.000000 -1.000000 0.800000
v -0.850000 1.000000 0.800000
v -0.850000 1.000000 0.900001
v -0.850001 2.850000 0.800000
v -0.850001 2.850000 0.900000
v -0.850000 1.000000 0.800000
v -0.850001 2.850000 0.800000
v -0.850000 1.000000 0.900001
v -0.850000 1.000000 0.900001
v -0.850000 -0.850000 0.800000
v -0.850000 1.000000 0.800000
v -0.850000 -0.850000 0.900000
v -0.850000 -0.850000 0.800000
v -0.850000 1.000000 0.900001
v 0.850000 -0.850001 0.900000
v 0.850000 1.000000 0.800000
v 0.850000 -0.850001 0.800000
v 0.850000 1.000000 0.900001
v 0.850000 1.000000 0.800000
v 0.850000 -0.850001 0.900000
v -0.850000 1.000000 0.800000
v -1.000000 3.000000 0.800000
v -0.850001 2.850000 0.800000
v -1.000000 1.000000 0.800000
v -1.000000 3.000000 0.800000
v -0.850000 1.000000 0.800000
v 1.000000 -1.000000 0.800000
v 0.850000 1.000000 0.800000
v 1.000000 1.000000 0.800000
v 0.850000 -0.850001 0.800000
v 0.850000 1.000000 0.800000
v 1.000000 -1.000000 0.800000
v -0.850001 2.850000 0.900000
v 0.850000 2.850000 0.800000
v 0.850000 2.850000 0.900000
v -0.850001 2.850000 0.800000
v 0.850000 2.850000 0.800000
v -0.850001 2.850000 0.900000
v -0.850001 2.850000 0.800000
v 1.000000 3.000000 0.800000
v 0.850000 2.850000 0.800000
v -1.000000 3.000000 0.800000
v 1.000000 3.000000 0.800000
v -0.850001 2.850000 0.800000
v 1.000000 3.000000 1.000000
v -1.000000 3.000000 0.800000
v -1.000000 3.000000 1.000000
v 1.000000 3.000000 0.800000
v -1.000000 3.000000 0.800000
v 1.000000 3.000000 1.000000
v -1.000000 -1.000000 0.800000
v -1.000000 1.000000 1.000001
v -1.000000 1.000000 0.800000
v -1.000000 -1.000000 1.000000
v -1.000000 1.000000 1.000001
v -1.000000 -1.000000 0.800000
v 1.000000 1.000000 1.000001
v -1.000000 3.000000 1.000000
v -1.000000 1.000000 1.000001
v 1.000000 3.000000 1.000000
v -1.000000 3.000000 1.000000
v 1.000000 1.000000 1.000001
v 1.000000 1.000000 1.000001
v 1.000000 3.000000 0.800000
v 1.000000 3.000000 1.000000
v 1.000000 1.000000 0.800000
v 1.000000 3.000000 0.800000
v 1.000000 1.000000 1.000001
v 0.850000 -0.850001 0.900000
v -0.850000 1.000000 0.900001
v 0.850000 1.000000 0.900001
v -0.850000 -0.850000 0.900000
v -0.850000 1.000000 0.900001
v 0.850000 -0.850001 0.900000
v 0.850000 2.850000 0.900000
v -0.850000 1.000000 0.900001
v -0.850001 2.850000 0.900000
v 0.850000 1.000000 0.900001
v -0.850000 1.000000 0.900001
v 0.850000 2.850000 0.900000

vt 0.032037 0.500000
vt 0.074579 0.500000
vt 0.032036 0.074579
vt 0.074579 0.500000
vt 0.074579 0.074579
vt 0.032036 0.074579
vt 0.074579 0.074579
vt 0.074579 0.500000
vt 0.500000 0.074579
vt 0.074579 0.500000
vt 0.500000 0.500000
vt 0.500000 0.074579
vt 0.500000 0.925421
vt 0.542542 0.925421
vt 0.500000 0.500000
vt 0.542542 0.925421
vt 0.542542 0.500000
vt 0.500000 0.500000
vt 0.000131 0.893515
vt 0.032037 0.925421
vt 0.000130 0.500000
vt 0.032037 0.925421
vt 0.032037 0.500000
vt 0.000130 0.500000
vt 0.074579 0.032037
vt 0.074579 0.074579
vt 0.500000 0.032036
vt 0.074579 0.074579
vt 0.500000 0.074579
vt 0.500000 0.032036
vt 0.500000 0.032036
vt 0.468093 0.000130
vt 0.074579 0.032037
vt 0.468093 0.000130
vt 0.106485 0.000130
vt 0.074579 0.032037
vt 0.617772 0.043192
vt 0.639043 0.043192
vt 0.617771 0.404797
vt 0.639043 0.043192
vt 0.639043 0.404797
vt 0.617771 0.404797
vt 0.574709 0.042932
vt 0.968224 0.042932
vt 0.574709 0.021661
vt 0.968224 0.042932
vt 0.968224 0.021661
vt 0.574709 0.021661
vt 0.542542 0.500000
vt 0.574449 0.500000
vt 0.542542 0.074579
vt 0.574449 0.500000
vt 0.574449 0.106485
vt 0.542542 0.074579
vt 0.968220 0.000130
vt 0.574709 0.000130
vt 0.968220 0.021401
vt 0.574709 0.000130
vt 0.574709 0.021401
vt 0.968220 0.021401
vt 0.968222 0.436966
vt 0.968222 0.458237
vt 0.574709 0.436966
vt 0.968222 0.458237
vt 0.574709 0.458237
vt 0.574709 0.436966
vt 0.595980 0.436706
vt 0.574709 0.436706
vt 0.595980 0.043192
vt 0.574709 0.436706
vt 0.574709 0.043192
vt 0.595980 0.043192
vt 0.574449 0.893515
vt 0.574449 0.500000
vt 0.542542 0.925421
vt 0.574449 0.500000
vt 0.542542 0.500000
vt 0.542542 0.925421
vt 0.032037 0.500000
vt 0.032036 0.074579
vt 0.000130 0.500000
vt 0.032036 0.074579
vt 0.000130 0.106485
vt 0.000130 0.500000
vt 0.617511 0.404797
vt 0.617511 0.043192
vt 0.596240 0.404797
vt 0.617511 0.043192
vt 0.596240 0.043192
vt 0.596240 0.404797
vt 0.106486 0.999870
vt 0.468094 0.999870
vt 0.074579 0.967963
vt 0.468094 0.999870
vt 0.500000 0.967963
vt 0.074579 0.967963
vt 0.500000 0.925421
vt 0.074579 0.925421
vt 0.500000 0.967963
vt 0.074579 0.925421
vt 0.074579 0.967963
vt 0.500000 0.967963
vt 0.542542 0.500000
vt 0.542542 0.074579
vt 0.500000 0.500000
vt 0.542542 0.074579
vt 0.500000 0.074579
vt 0.500000 0.500000
vt 0.500000 0.500000
vt 0.074579 0.500000
vt 0.500000 0.925421
vt 0.074579 0.500000
vt 0.074579 0.925421
vt 0.500000 0.925421
vt 0.074579 0.925421
vt 0.074579 0.500000
vt 0.032037 0.925421
vt 0.074579 0.500000
vt 0.032037 0.500000
vt 0.032037 0.925421
vt -0.000079 0.500479
vt -0.000079 0.000547
vt 0.999679 0.500479
vt -0.000079 0.000547
vt 0.999679 0.000547
vt 0.999679 0.500479
vt 0.999679 1.000411
vt -0.000079 1.000411
vt 0.999679 0.500479
vt -0.000079 1.000411
vt -0.000079 0.500479
vt 0.999679 0.500479

vn 1.000000 0.000000 0.000000
vn 1.000000 0.000000 0.000000
vn 1.000000 0.000000 0.000000
vn 1.000000 0.000000 0.000001
vn 1.000000 0.000000 0.000001
vn 1.000000 0.000000 0.000001
vn -0.000000 -0.000000 1.000000
vn -0.000000 -0.000000 1.000000
vn -0.000000 -0.000000 1.000000
vn -0.000000 -0.000000 1.000000
vn -0.000000 -0.000000 1.000000
vn -0.000000 -0.000000 1.000000
vn -1.000000 -0.000000 0.000000
vn -1.000000 -0.000000 0.000000
vn -1.000000 -0.000000 0.000000
vn -1.000000 -0.000000 0.000000
vn -1.000000 -0.000000 0.000000
vn -1.000000 -0.000000 0.000000
vn -0.000001 -0.000000 -1.000000
vn -0.000001 -0.000000 -1.000000
vn -0.000001 -0.000000 -1.000000
vn -0.000000 -0.000000 -1.000000
vn -0.000000 -0.000000 -1.000000
vn -0.000000 -0.000000 -1.000000
vn -0.000000 -1.000000 -0.000001
vn -0.000000 -1.000000 -0.000001
vn -0.000000 -1.000000 -0.000001
vn -0.000000 -1.000000 -0.000001
vn -0.000000 -1.000000 -0.000001
vn -0.000000 -1.000000 -0.000001
vn -0.000000 0.000000 -1.000000
vn -0.000000 0.000000 -1.000000
vn -0.000000 0.000000 -1.000000
vn -0.000000 -0.000000 -1.000000
vn -0.000000 -0.000000 -1.000000
vn -0.000000 -0.000000 -1.000000
vn 0.000000 1.000000 0.000001
vn 0.000000 1.000000 0.000001
vn 0.000000 1.000000 0.000001
vn 0.000000 1.000000 0.000001
vn 0.000000 1.000000 0.000001
vn 0.000000 1.000000 0.000001
vn -1.000000 -0.000000 0.000000
vn -1.000000 -0.000000 0.000000
vn -1.000000 -0.000000 0.000000
vn -1.000000 -0.000000 0.000000
vn -1.000000 -0.000000 0.000000
vn -1.000000 -0.000000 0.000000
vn -0.000000 0.000000 -1.000000
vn -0.000000 0.000000 -1.000000
vn -0.000000 0.000000 -1.000000
vn -0.000000 0.000000 -1.000000
vn -0.000000 0.000000 -1.000000
vn -0.000000 0.000000 -1.000000
vn 1.000000 0.000000 0.000000
vn 1.000000 0.000000 0.000000
vn 1.000000 0.000000 0.000000
vn 1.000000 0.000000 0.000000
vn 1.000000 0.000000 0.000000
vn 1.000000 0.000000 0.000000
vn 1.000000 0.000000 -0.000001
vn 1.000000 0.000000 -0.000001
vn 1.000000 0.000000 -0.000001
vn 1.000000 0.000000 0.000001
vn 1.000000 0.000000 0.000001
vn 1.000000 0.000000 0.000001
vn -1.000000 -0.000000 0.000001
vn -1.000000 -0.000000 0.000001
vn -1.000000 -0.000000 0.000001
vn -1.000000 -0.000000 -0.000001
vn -1.000000 -0.000000 -0.000001
vn -1.000000 -0.000000 -0.000001
vn 0.000001 -0.000000 -1.000000
vn 0.000001 -0.000000 -1.000000
vn 0.000001 -0.000000 -1.000000
vn -0.000000 -0.000000 -1.000000
vn -0.000000 -0.000000 -1.000000
vn -0.000000 -0.000000 -1.000000
vn -0.000000 0.000000 -1.000000
vn -0.000000 0.000000 -1.000000
vn -0.000000 0.000000 -1.000000
vn 0.000000 0.000000 -1.000000
vn 0.000000 0.000000 -1.000000
vn 0.000000 0.000000 -1.000000
vn -0.000000 -1.000000 0.000000
vn -0.000000 -1.000000 0.000000
vn -0.000000 -1.000000 0.000000
vn -0.000000 -1.000000 0.000000
vn -0.000000 -1.000000 0.000000
vn -0.000000 -1.000000 0.000000
vn -0.000000 -0.000001 -1.000000
vn -0.000000 -0.000001 -1.000000
vn -0.000000 -0.000001 -1.000000
vn -0.000000 0.000000 -1.000000
vn -0.000000 0.000000 -1.000000
vn -0.000000 0.000000 -1.000000
vn 0.000000 1.000000 0.000000
vn 0.000000 1.000000 0.000000
vn 0.000000 1.000000 0.000000
vn 0.000000 1.000000 0.000000
vn 0.000000 1.000000 0.000000
vn 0.000000 1.000000 0.000000
vn -1.000000 -0.000000 0.000000
vn -1.000000 -0.000000 0.000000
vn -1.000000 -0.000000 0.000000
vn -1.000000 -0.000000 0.000000
vn -1.000000 -0.000000 0.000000
vn -1.000000 -0.000000 0.000000
vn 0.000000 0.000000 1.000000
vn 0.000000 0.000000 1.000000
vn 0.000000 0.000000 1.000000
vn 0.000000 0.000000 1.000000
vn 0.000000 0.000000 1.000000
vn 0.000000 0.000000 1.000000
vn 1.000000 0.000000 0.000000
vn 1.000000 0.000000 0.000000
vn 1.000000 0.000000 0.000000
vn 1.000000 0.000000 0.000000
vn 1.000000 0.000000 0.000000
vn 1.000000 0.000000 0.000000
vn 0.000000 0.000000 -1.000000
vn 0.000000 0.000000 -1.000000
vn 0.000000 0.000000 -1.000000
vn 0.000000 0.000000 -1.000000
vn 0.000000 0.000000 -1.000000
vn 0.000000 0.000000 -1.000000
vn -0.000000 -0.000000 -1.000000
vn -0.000000 -0.000000 -1.000000
vn -0.000000 -0.000000 -1.000000
vn -0.000000 -0.000000 -1.000000
vn -0.000000 -0.000000 -1.000000
vn -0.000000 -0.000000 -1.000000

g Material.001
f 3/1/1 1/2/2 2/3/3
f 6/4/4 4/5/5 5/6/6
f 9/7/7 7/8/8 8/9/9
f 12/10/10 10/11/11 11/12/12
f 15/13/13 13/14/14 14/15/15
f 18/16/16 16/17/17 17/18/18
f 21/19/19 19/20/20 20/21/21
f 24/22/22 22/23/23 23/24/24
f 27/25/25 25/26/26 26/27/27
f 30/28/28 28/29/29 29/30/30
f 33/31/31 31/32/32 32/33/33
f 36/34/34 34/35/35 35/36/36
f 39/37/37 37/38/38 38/39/39
f 42/40/40 40/41/41 41/42/42
f 45/43/43 43/44/44 44/45/45
f 48/46/46 46/47/47 47/48/48
f 51/49/49 49/50/50 50/51/51
f 54/52/52 52/53/53 53/54/54
f 57/55/55 55/56/56 56/57/57
f 60/58/58 58/59/59 59/60/60
f 63/61/61 61/62/62 62/63/63
f 66/64/64 64/65/65 65/66/66
f 69/67/67 67/68/68 68/69/69
f 72/70/70 70/71/71 71/72/72
f 75/73/73 73/74/74 74/75/75
f 78/76/76 76/77/77 77/78/78
f 81/79/79 79/80/80 80/81/81
f 84/82/82 82/83/83 83/84/84
f 87/85/85 85/86/86 86/87/87
f 90/88/88 88/89/89 89/90/90
f 93/91/91 91/92/92 92/93/93
f 96/94/94 94/95/95 95/96/96
f 99/97/97 97/98/98 98/99/99
f 102/100/100 100/101/101 101/102/102
f 105/103/103 103/104/104 104/105/105
f 108/106/106 106/107/107 107/108/108
f 111/109/109 109/110/110 110/111/111
f 114/112/112 112/113/113 113/114/114
f 117/115/115 115/116/116 116/117/117
f 120/118/118 118/119/119 119/120/120

g Material.002
f 123/121/121 121/122/122 122/123/123
f 126/124/124 124/125/125 125/126/126
f 129/127/127 127/128/128 128/129/129
f 132/130/130 130/131/131 131/132/132

