# Converted from B3D for Luanti (With Correct Normals)
# Object Name: multidecor_ceiling_round_lamp

v -0.530330 0.700000 0.530330
v -0.750000 0.700000 -0.000000
v -0.530330 0.700000 -0.530330
v -0.000000 0.700000 0.750000
v -0.000000 1.000000 0.750000
v -0.530330 1.000000 0.530330
v -0.530330 0.700000 0.530330
v 0.530330 0.700000 0.530330
v -0.000000 0.700000 0.750000
v -0.530330 0.700000 0.530330
v -0.530330 0.700000 0.530330
v -0.530330 1.000000 0.530330
v -0.750000 1.000000 -0.000000
v -0.750000 0.700000 -0.000000
v -0.530330 1.000000 -0.530330
v -0.750000 1.000000 -0.000000
v 0.750000 1.000000 0.000000
v -0.750000 0.700000 -0.000000
v -0.750000 1.000000 -0.000000
v -0.530330 1.000000 -0.530330
v -0.530330 0.700000 -0.530330
v 0.000000 1.000000 -0.750000
v -0.530330 1.000000 -0.530330
v 0.750000 1.000000 0.000000
v -0.530330 0.700000 -0.530330
v -0.530330 1.000000 -0.530330
v 0.000000 1.000000 -0.750000
v 0.000000 0.700000 -0.750000
v 0.530330 0.700000 0.530330
v -0.530330 0.700000 0.530330
v -0.530330 0.700000 -0.530330
v 0.750000 1.000000 0.000000
v 0.530330 1.000000 -0.530330
v 0.000000 1.000000 -0.750000
v 0.000000 0.700000 -0.750000
v 0.000000 1.000000 -0.750000
v 0.530330 1.000000 -0.530330
v 0.530330 0.700000 -0.530330
v 0.530330 0.700000 -0.530330
v 0.750000 0.700000 0.000000
v 0.530330 0.700000 0.530330
v -0.000000 1.000000 0.750000
v 0.530330 1.000000 0.530330
v 0.750000 1.000000 0.000000
v 0.530330 0.700000 -0.530330
v 0.530330 1.000000 -0.530330
v 0.750000 1.000000 0.000000
v 0.750000 0.700000 0.000000
v -0.750000 1.000000 -0.000000
v -0.000000 1.000000 0.750000
v 0.750000 1.000000 0.000000
v -0.750000 1.000000 -0.000000
v -0.530330 1.000000 0.530330
v -0.000000 1.000000 0.750000
v 0.750000 0.700000 0.000000
v 0.750000 1.000000 0.000000
v 0.530330 1.000000 0.530330
v 0.530330 0.700000 0.530330
v -0.530330 0.700000 -0.530330
v 0.000000 0.700000 -0.750000
v 0.530330 0.700000 -0.530330
v 0.530330 0.700000 0.530330
v 0.530330 1.000000 0.530330
v -0.000000 1.000000 0.750000
v -0.000000 0.700000 0.750000
v -0.530330 0.700000 -0.530330
v 0.530330 0.700000 -0.530330
v 0.530330 0.700000 0.530330

vt 0.450920 0.318891
vt 0.318891 0.000144
vt 0.450920 0.132173
vt 0.749964 0.738508
vt 0.500000 0.869146
vt 0.500000 0.738508
vt 0.749964 0.869146
vt 0.500000 0.869146
vt 0.749964 0.738508
vt 0.318891 0.000144
vt 0.000144 0.132173
vt 0.132173 0.000144
vt 0.999928 0.738508
vt 0.749964 0.869146
vt 0.749964 0.738508
vt 0.999928 0.869146
vt 0.749964 0.869146
vt 0.999928 0.738508
vt 0.564641 0.127103
vt 1.001657 0.127103
vt 1.001657 0.308121
vt 0.250036 0.869290
vt 0.000072 0.999928
vt 0.000072 0.869290
vt 0.250036 0.999928
vt 0.000072 0.999928
vt 0.250036 0.869290
vt 0.564641 0.127103
vt 0.873658 -0.000896
vt 1.001657 0.127103
vt 0.500000 0.869290
vt 0.250036 0.999928
vt 0.250036 0.869290
vt 0.500000 0.999928
vt 0.250036 0.999928
vt 0.500000 0.869290
vt 0.450920 0.318891
vt 0.000144 0.132173
vt 0.318891 0.000144
vt 0.873658 -0.000896
vt 0.564641 0.127103
vt 0.692640 -0.000896
vt 0.749964 0.869290
vt 0.500000 0.999928
vt 0.500000 0.869290
vt 0.749964 0.999928
vt 0.500000 0.999928
vt 0.749964 0.869290
vt 0.000144 0.132173
vt 0.132173 0.450920
vt 0.000144 0.318891
vt 0.564641 0.127103
vt 0.692640 0.436120
vt 0.564641 0.308121
vt 0.999928 0.869290
vt 0.749964 0.999928
vt 0.749964 0.869290
vt 0.999928 0.999928
vt 0.749964 0.999928
vt 0.999928 0.869290
vt 0.564641 0.127103
vt 1.001657 0.308121
vt 0.692640 0.436120
vt 0.692640 0.436120
vt 1.001657 0.308121
vt 0.873658 0.436120
vt 0.250036 0.738508
vt 0.000072 0.869146
vt 0.000072 0.738508
vt 0.250036 0.869146
vt 0.000072 0.869146
vt 0.250036 0.738508
vt 0.132173 0.450920
vt 0.450920 0.318891
vt 0.318891 0.450920
vt 0.500000 0.738508
vt 0.250036 0.869146
vt 0.250036 0.738508
vt 0.500000 0.869146
vt 0.250036 0.869146
vt 0.500000 0.738508
vt 0.000144 0.132173
vt 0.450920 0.318891
vt 0.132173 0.450920

vn 0.000000 -1.000000 0.000000
vn 0.000000 -1.000000 0.000000
vn 0.000000 -1.000000 0.000000
vn -0.382683 0.000000 0.923880
vn -0.382683 0.000000 0.923880
vn -0.382683 0.000000 0.923880
vn -0.382683 0.000000 0.923880
vn -0.382683 0.000000 0.923880
vn -0.382683 0.000000 0.923880
vn -0.000000 -1.000000 0.000000
vn -0.000000 -1.000000 0.000000
vn -0.000000 -1.000000 0.000000
vn -0.923879 0.000000 0.382684
vn -0.923879 0.000000 0.382684
vn -0.923879 0.000000 0.382684
vn -0.923880 0.000000 0.382683
vn -0.923880 0.000000 0.382683
vn -0.923880 0.000000 0.382683
vn -0.000000 1.000000 0.000000
vn -0.000000 1.000000 0.000000
vn -0.000000 1.000000 0.000000
vn -0.923879 0.000000 -0.382684
vn -0.923879 0.000000 -0.382684
vn -0.923879 0.000000 -0.382684
vn -0.923880 0.000000 -0.382683
vn -0.923880 0.000000 -0.382683
vn -0.923880 0.000000 -0.382683
vn -0.000000 1.000000 0.000000
vn -0.000000 1.000000 0.000000
vn -0.000000 1.000000 0.000000
vn -0.382683 0.000000 -0.923880
vn -0.382683 0.000000 -0.923880
vn -0.382683 0.000000 -0.923880
vn -0.382683 0.000000 -0.923880
vn -0.382683 0.000000 -0.923880
vn -0.382683 0.000000 -0.923880
vn 0.000000 -1.000000 0.000000
vn 0.000000 -1.000000 0.000000
vn 0.000000 -1.000000 0.000000
vn -0.000000 1.000000 0.000000
vn -0.000000 1.000000 0.000000
vn -0.000000 1.000000 0.000000
vn 0.382683 0.000000 -0.923880
vn 0.382683 0.000000 -0.923880
vn 0.382683 0.000000 -0.923880
vn 0.382684 0.000000 -0.923879
vn 0.382684 0.000000 -0.923879
vn 0.382684 0.000000 -0.923879
vn -0.000000 -1.000000 0.000000
vn -0.000000 -1.000000 0.000000
vn -0.000000 -1.000000 0.000000
vn -0.000000 1.000000 0.000000
vn -0.000000 1.000000 0.000000
vn -0.000000 1.000000 0.000000
vn 0.923879 0.000000 -0.382683
vn 0.923879 0.000000 -0.382683
vn 0.923879 0.000000 -0.382683
vn 0.923880 0.000000 -0.382683
vn 0.923880 0.000000 -0.382683
vn 0.923880 0.000000 -0.382683
vn -0.000000 1.000000 0.000000
vn -0.000000 1.000000 0.000000
vn -0.000000 1.000000 0.000000
vn -0.000000 1.000000 0.000000
vn -0.000000 1.000000 0.000000
vn -0.000000 1.000000 0.000000
vn 0.923879 0.000000 0.382683
vn 0.923879 0.000000 0.382683
vn 0.923879 0.000000 0.382683
vn 0.923880 0.000000 0.382683
vn 0.923880 0.000000 0.382683
vn 0.923880 0.000000 0.382683
vn -0.000000 -1.000000 0.000000
vn -0.000000 -1.000000 0.000000
vn -0.000000 -1.000000 0.000000
vn 0.382683 0.000000 0.923880
vn 0.382683 0.000000 0.923880
vn 0.382683 0.000000 0.923880
vn 0.382684 0.000000 0.923880
vn 0.382684 0.000000 0.923880
vn 0.382684 0.000000 0.923880
vn -0.000000 -1.000000 0.000000
vn -0.000000 -1.000000 0.000000
vn -0.000000 -1.000000 0.000000

g Material
f 3/1/1 1/2/2 2/3/3
f 6/4/4 4/5/5 5/6/6
f 7/7/7 4/8/8 6/9/9
f 10/10/10 8/11/11 9/12/12
f 13/13/13 11/14/14 12/15/15
f 14/16/16 11/17/17 13/18/18
f 17/19/19 15/20/20 16/21/21
f 20/22/22 18/23/23 19/24/24
f 21/25/25 18/26/26 20/27/27
f 24/28/28 22/29/29 23/30/30
f 27/31/31 25/32/32 26/33/33
f 28/34/34 25/35/35 27/36/36
f 31/37/37 29/38/38 30/39/39
f 34/40/40 32/41/41 33/42/42
f 37/43/43 35/44/44 36/45/45
f 38/46/46 35/47/47 37/48/48
f 41/49/49 39/50/50 40/51/51
f 44/52/52 42/53/53 43/54/54
f 47/55/55 45/56/56 46/57/57
f 48/58/58 45/59/59 47/60/60
f 51/61/61 49/62/62 50/63/63
f 54/64/64 52/65/65 53/66/66
f 57/67/67 55/68/68 56/69/69
f 58/70/70 55/71/71 57/72/72
f 61/73/73 59/74/74 60/75/75
f 64/76/76 62/77/77 63/78/78
f 65/79/79 62/80/80 64/81/81
f 68/82/82 66/83/83 67/84/84

