# Converted from B3D for Luanti (With Correct Normals)
# Object Name: multidecor_porcelain_plate

v 0.000000 -1.000000 0.400000
v 0.000000 -0.880000 0.480000
v -0.339411 -0.880000 0.339411
v -0.282843 -1.000000 0.282843
v -0.282843 -1.000000 0.282843
v -0.339411 -0.880000 0.339411
v -0.480000 -0.880000 -0.000000
v -0.400000 -1.000000 -0.000000
v -0.400000 -1.000000 -0.000000
v -0.480000 -0.880000 -0.000000
v -0.339411 -0.880000 -0.339411
v -0.282843 -1.000000 -0.282843
v -0.282843 -1.000000 -0.282843
v -0.339411 -0.880000 -0.339411
v 0.000000 -0.880000 -0.480000
v 0.000000 -1.000000 -0.400000
v 0.000000 -1.000000 -0.400000
v 0.000000 -0.880000 -0.480000
v 0.339411 -0.880000 -0.339411
v 0.282843 -1.000000 -0.282843
v 0.282843 -1.000000 -0.282843
v 0.339411 -0.880000 -0.339411
v 0.480000 -0.880000 0.000000
v 0.400000 -1.000000 0.000000
v -0.339411 -0.880000 -0.339411
v -0.480000 -0.880000 -0.000000
v -0.624000 -0.880000 -0.000000
v -0.441235 -0.880000 -0.441235
v 0.400000 -1.000000 0.000000
v 0.480000 -0.880000 0.000000
v 0.339411 -0.880000 0.339411
v 0.282843 -1.000000 0.282843
v 0.282843 -1.000000 0.282843
v 0.339411 -0.880000 0.339411
v 0.000000 -0.880000 0.480000
v 0.000000 -1.000000 0.400000
v -0.282843 -1.000000 -0.282843
v 0.282843 -1.000000 -0.282843
v 0.282843 -1.000000 0.282843
v 0.480000 -0.880000 0.000000
v 0.339411 -0.880000 -0.339411
v 0.441235 -0.880000 -0.441235
v 0.624000 -0.880000 0.000000
v 0.000000 -0.880000 -0.480000
v -0.339411 -0.880000 -0.339411
v -0.441235 -0.880000 -0.441235
v 0.000000 -0.880000 -0.624000
v 0.339411 -0.880000 0.339411
v 0.480000 -0.880000 0.000000
v 0.624000 -0.880000 0.000000
v 0.441235 -0.880000 0.441235
v -0.480000 -0.880000 -0.000000
v -0.339411 -0.880000 0.339411
v -0.441235 -0.880000 0.441235
v -0.624000 -0.880000 -0.000000
v 0.339411 -0.880000 -0.339411
v 0.000000 -0.880000 -0.480000
v 0.000000 -0.880000 -0.624000
v 0.441235 -0.880000 -0.441235
v 0.000000 -0.880000 0.480000
v 0.339411 -0.880000 0.339411
v 0.441235 -0.880000 0.441235
v -0.000000 -0.880000 0.624000
v -0.339411 -0.880000 0.339411
v 0.000000 -0.880000 0.480000
v -0.000000 -0.880000 0.624000
v -0.441235 -0.880000 0.441235
v 0.441235 -0.880000 0.441235
v 0.624000 -0.880000 0.000000
v 0.624000 -0.800000 0.000000
v 0.441235 -0.800000 0.441235
v 0.441235 -0.880000 -0.441235
v 0.000000 -0.880000 -0.624000
v 0.000000 -0.800000 -0.624000
v 0.441235 -0.800000 -0.441235
v -0.441235 -0.880000 -0.441235
v -0.624000 -0.880000 -0.000000
v -0.624000 -0.800000 -0.000000
v -0.441235 -0.800000 -0.441235
v -0.441235 -0.880000 0.441235
v -0.000000 -0.880000 0.624000
v -0.000000 -0.800000 0.624000
v -0.441235 -0.800000 0.441235
v -0.000000 -0.880000 0.624000
v 0.441235 -0.880000 0.441235
v 0.441235 -0.800000 0.441235
v -0.000000 -0.800000 0.624000
v 0.624000 -0.880000 0.000000
v 0.441235 -0.880000 -0.441235
v 0.441235 -0.800000 -0.441235
v 0.624000 -0.800000 0.000000
v 0.000000 -0.880000 -0.624000
v -0.441235 -0.880000 -0.441235
v -0.441235 -0.800000 -0.441235
v 0.000000 -0.800000 -0.624000
v -0.624000 -0.880000 -0.000000
v -0.441235 -0.880000 0.441235
v -0.441235 -0.800000 0.441235
v -0.624000 -0.800000 -0.000000
v -0.624000 -0.800000 -0.000000
v -0.441235 -0.800000 0.441235
v -0.308864 -0.800000 0.308864
v -0.436800 -0.800000 -0.000000
v 0.000000 -0.800000 -0.624000
v -0.441235 -0.800000 -0.441235
v -0.308864 -0.800000 -0.308864
v 0.000000 -0.800000 -0.436800
v 0.624000 -0.800000 0.000000
v 0.441235 -0.800000 -0.441235
v 0.308864 -0.800000 -0.308864
v 0.436800 -0.800000 0.000000
v -0.000000 -0.800000 0.624000
v 0.441235 -0.800000 0.441235
v 0.308864 -0.800000 0.308864
v -0.000000 -0.800000 0.436800
v -0.441235 -0.800000 0.441235
v -0.000000 -0.800000 0.624000
v -0.000000 -0.800000 0.436800
v -0.308864 -0.800000 0.308864
v -0.441235 -0.800000 -0.441235
v -0.624000 -0.800000 -0.000000
v -0.436800 -0.800000 -0.000000
v -0.308864 -0.800000 -0.308864
v 0.441235 -0.800000 -0.441235
v 0.000000 -0.800000 -0.624000
v 0.000000 -0.800000 -0.436800
v 0.308864 -0.800000 -0.308864
v 0.441235 -0.800000 0.441235
v 0.624000 -0.800000 0.000000
v 0.436800 -0.800000 0.000000
v 0.308864 -0.800000 0.308864
v 0.308864 -0.800000 0.308864
v 0.436800 -0.800000 0.000000
v 0.436800 -0.880000 0.000000
v 0.308864 -0.880000 0.308864
v -0.436800 -0.800000 -0.000000
v -0.308864 -0.800000 0.308864
v -0.308864 -0.880000 0.308864
v -0.436800 -0.880000 -0.000000
v 0.000000 -0.800000 -0.436800
v -0.308864 -0.800000 -0.308864
v -0.308864 -0.880000 -0.308864
v 0.000000 -0.880000 -0.436800
v 0.436800 -0.800000 0.000000
v 0.308864 -0.800000 -0.308864
v 0.308864 -0.880000 -0.308864
v 0.436800 -0.880000 0.000000
v -0.000000 -0.800000 0.436800
v 0.308864 -0.800000 0.308864
v 0.308864 -0.880000 0.308864
v -0.000000 -0.880000 0.436800
v -0.308864 -0.800000 0.308864
v -0.000000 -0.800000 0.436800
v -0.000000 -0.880000 0.436800
v -0.308864 -0.880000 0.308864
v -0.308864 -0.800000 -0.308864
v -0.436800 -0.800000 -0.000000
v -0.436800 -0.880000 -0.000000
v -0.308864 -0.880000 -0.308864
v 0.308864 -0.800000 -0.308864
v 0.000000 -0.800000 -0.436800
v 0.000000 -0.880000 -0.436800
v 0.308864 -0.880000 -0.308864
v 0.308864 -0.880000 -0.308864
v -0.308864 -0.880000 -0.308864
v -0.308864 -0.880000 0.308864
v -0.308864 -0.880000 0.308864
v -0.000000 -0.880000 0.436800
v 0.308864 -0.880000 -0.308864
v -0.000000 -0.880000 0.436800
v 0.308864 -0.880000 0.308864
v 0.308864 -0.880000 -0.308864
v 0.308864 -0.880000 0.308864
v 0.436800 -0.880000 0.000000
v 0.308864 -0.880000 -0.308864
v 0.308864 -0.880000 -0.308864
v 0.000000 -0.880000 -0.436800
v -0.308864 -0.880000 -0.308864
v -0.308864 -0.880000 -0.308864
v -0.436800 -0.880000 -0.000000
v -0.308864 -0.880000 0.308864
v 0.282843 -1.000000 0.282843
v 0.000000 -1.000000 0.400000
v -0.282843 -1.000000 0.282843
v -0.282843 -1.000000 0.282843
v -0.400000 -1.000000 -0.000000
v -0.282843 -1.000000 -0.282843
v -0.282843 -1.000000 -0.282843
v 0.000000 -1.000000 -0.400000
v 0.282843 -1.000000 -0.282843
v 0.282843 -1.000000 -0.282843
v 0.400000 -1.000000 0.000000
v 0.282843 -1.000000 0.282843
v 0.282843 -1.000000 0.282843
v -0.282843 -1.000000 0.282843
v -0.282843 -1.000000 -0.282843

vt 0.371477 0.999525
vt 0.298037 0.824042
vt 0.371477 0.808089
vt 0.298037 0.983572
vt 0.298037 0.824042
vt 0.371477 0.999525
vt 0.901728 0.816364
vt 0.828288 0.640881
vt 0.901728 0.624927
vt 0.828288 0.800411
vt 0.828288 0.640881
vt 0.901728 0.816364
vt 0.074866 0.808089
vt 0.148306 0.983572
vt 0.074866 0.999525
vt 0.148306 0.824042
vt 0.148306 0.983572
vt 0.074866 0.808089
vt 0.827338 0.816364
vt 0.753898 0.640881
vt 0.827338 0.624927
vt 0.753898 0.800411
vt 0.753898 0.640881
vt 0.827338 0.816364
vt 0.223646 0.808089
vt 0.297086 0.983572
vt 0.223646 0.999525
vt 0.297086 0.824042
vt 0.297086 0.983572
vt 0.223646 0.808089
vt 0.073915 0.999525
vt 0.000475 0.824042
vt 0.073915 0.808089
vt 0.000475 0.983572
vt 0.000475 0.824042
vt 0.073915 0.999525
vt 0.683622 0.873795
vt 0.752948 0.653643
vt 0.752948 0.845079
vt 0.683622 0.624927
vt 0.752948 0.653643
vt 0.683622 0.873795
vt 0.222696 0.999525
vt 0.149256 0.824042
vt 0.222696 0.808089
vt 0.149256 0.983572
vt 0.149256 0.824042
vt 0.222696 0.999525
vt 0.976119 0.816364
vt 0.902679 0.640881
vt 0.976119 0.624927
vt 0.902679 0.800411
vt 0.902679 0.640881
vt 0.976119 0.816364
vt 0.113280 0.807138
vt 0.272810 0.421998
vt 0.385615 0.694333
vt 0.935094 0.000475
vt 0.865769 0.220627
vt 0.865769 0.029191
vt 0.935094 0.249342
vt 0.865769 0.220627
vt 0.935094 0.000475
vt 0.865769 0.499160
vt 0.935094 0.279008
vt 0.935094 0.470444
vt 0.865769 0.250292
vt 0.935094 0.279008
vt 0.865769 0.499160
vt 0.844021 0.500110
vt 0.774696 0.720262
vt 0.774696 0.528825
vt 0.844021 0.748977
vt 0.774696 0.720262
vt 0.844021 0.500110
vt 0.915247 0.748977
vt 0.984572 0.528825
vt 0.984572 0.720262
vt 0.915247 0.500110
vt 0.984572 0.528825
vt 0.915247 0.748977
vt 0.661875 0.624927
vt 0.592549 0.845079
vt 0.592549 0.653643
vt 0.661875 0.873794
vt 0.592549 0.845079
vt 0.661875 0.624927
vt 0.914296 0.500110
vt 0.844971 0.720262
vt 0.844971 0.528825
vt 0.914296 0.748977
vt 0.844971 0.720262
vt 0.914296 0.500110
vt 0.576599 0.573253
vt 0.507274 0.793405
vt 0.507274 0.601969
vt 0.576599 0.822121
vt 0.507274 0.793405
vt 0.576599 0.573253
vt 0.339636 0.498210
vt 0.381324 0.249343
vt 0.381324 0.498210
vt 0.339636 0.249343
vt 0.381324 0.249343
vt 0.339636 0.498210
vt 0.339637 0.995943
vt 0.381324 0.747076
vt 0.381324 0.995943
vt 0.339636 0.747076
vt 0.381324 0.747076
vt 0.339637 0.995943
vt 0.296998 0.498210
vt 0.338686 0.249343
vt 0.338686 0.498210
vt 0.296998 0.249343
vt 0.338686 0.249343
vt 0.296998 0.498210
vt 0.296999 0.995943
vt 0.338686 0.747076
vt 0.338686 0.995943
vt 0.296999 0.747076
vt 0.338686 0.747076
vt 0.296999 0.995943
vt 0.339636 0.249343
vt 0.381324 0.000475
vt 0.381324 0.249343
vt 0.339636 0.000475
vt 0.381324 0.000475
vt 0.339636 0.249343
vt 0.339636 0.747076
vt 0.381324 0.498210
vt 0.381324 0.747076
vt 0.339636 0.498210
vt 0.381324 0.498210
vt 0.339636 0.747076
vt 0.296998 0.249343
vt 0.338686 0.000475
vt 0.338686 0.249343
vt 0.296999 0.000475
vt 0.338686 0.000475
vt 0.296998 0.249343
vt 0.296999 0.747076
vt 0.338686 0.498210
vt 0.338686 0.747076
vt 0.296998 0.498210
vt 0.338686 0.498210
vt 0.296999 0.747076
vt 0.619603 0.213798
vt 0.529480 0.002261
vt 0.529480 0.251128
vt 0.619603 0.039591
vt 0.529480 0.002261
vt 0.619603 0.213798
vt 0.619603 0.038641
vt 0.529480 0.250178
vt 0.529480 0.001311
vt 0.619603 0.212848
vt 0.529480 0.250178
vt 0.619603 0.038641
vt 0.619603 0.212848
vt 0.529480 0.001311
vt 0.529480 0.250178
vt 0.619603 0.038641
vt 0.529480 0.001311
vt 0.619603 0.212848
vt 0.619603 0.212848
vt 0.529480 0.001311
vt 0.529480 0.250178
vt 0.619603 0.038641
vt 0.529480 0.001311
vt 0.619603 0.212848
vt 0.619603 0.039591
vt 0.529480 0.251128
vt 0.529480 0.002261
vt 0.619603 0.213798
vt 0.529480 0.251128
vt 0.619603 0.039591
vt 0.619603 0.212848
vt 0.529480 0.001311
vt 0.529480 0.250178
vt 0.619603 0.038641
vt 0.529480 0.001311
vt 0.619603 0.212848
vt 0.619603 0.038641
vt 0.529480 0.250178
vt 0.529480 0.001311
vt 0.619603 0.212848
vt 0.529480 0.250178
vt 0.619603 0.038641
vt 0.619603 0.039591
vt 0.529480 0.251128
vt 0.529480 0.002261
vt 0.619603 0.213798
vt 0.529480 0.251128
vt 0.619603 0.039591
vt 0.466599 0.348889
vt 0.424912 0.523096
vt 0.424912 0.348889
vt 0.466599 0.523096
vt 0.424912 0.523096
vt 0.466599 0.348889
vt 0.423961 0.174682
vt 0.382274 0.348890
vt 0.382274 0.174682
vt 0.423961 0.348890
vt 0.382274 0.348890
vt 0.423961 0.174682
vt 0.423961 0.523096
vt 0.382274 0.697303
vt 0.382274 0.523096
vt 0.423961 0.697303
vt 0.382274 0.697303
vt 0.423961 0.523096
vt 0.466599 0.174682
vt 0.424912 0.348889
vt 0.424912 0.174682
vt 0.466599 0.348889
vt 0.424912 0.348889
vt 0.466599 0.174682
vt 0.466599 0.523096
vt 0.424912 0.697303
vt 0.424912 0.523096
vt 0.466599 0.697303
vt 0.424912 0.697303
vt 0.466599 0.523096
vt 0.423961 0.000475
vt 0.382274 0.174682
vt 0.382274 0.000475
vt 0.423961 0.174682
vt 0.382274 0.174682
vt 0.423961 0.000475
vt 0.423961 0.348890
vt 0.382274 0.523096
vt 0.382274 0.348890
vt 0.423961 0.523096
vt 0.382274 0.523096
vt 0.423961 0.348890
vt 0.466599 0.000475
vt 0.424912 0.174682
vt 0.424912 0.000475
vt 0.466599 0.174682
vt 0.424912 0.174682
vt 0.466599 0.000475
vt 0.186158 0.437975
vt 0.360365 0.858548
vt 0.062975 0.735365
vt 0.360365 0.858548
vt 0.186158 0.437975
vt 0.360365 0.437975
vt 0.360365 0.858548
vt 0.360365 0.437975
vt 0.483548 0.561158
vt 0.360365 0.858548
vt 0.483548 0.561158
vt 0.483548 0.735365
vt 0.062975 0.735365
vt 0.360365 0.858548
vt 0.186158 0.858548
vt 0.186158 0.437975
vt 0.062975 0.735365
vt 0.062975 0.561158
vt 0.000475 0.534803
vt 0.113280 0.807138
vt 0.000475 0.694333
vt 0.272810 0.421998
vt 0.000475 0.534803
vt 0.113280 0.421998
vt 0.385615 0.694333
vt 0.272810 0.421998
vt 0.385615 0.534803
vt 0.113280 0.807138
vt 0.385615 0.694333
vt 0.272810 0.807138
vt 0.272810 0.421998
vt 0.113280 0.807138
vt 0.000475 0.534803

vn -0.325838 -0.524428 0.786641
vn -0.325838 -0.524428 0.786641
vn -0.325838 -0.524428 0.786641
vn -0.325838 -0.524427 0.786642
vn -0.325838 -0.524427 0.786642
vn -0.325838 -0.524427 0.786642
vn -0.786642 -0.524428 0.325838
vn -0.786642 -0.524428 0.325838
vn -0.786642 -0.524428 0.325838
vn -0.786642 -0.524428 0.325837
vn -0.786642 -0.524428 0.325837
vn -0.786642 -0.524428 0.325837
vn -0.786642 -0.524428 -0.325838
vn -0.786642 -0.524428 -0.325838
vn -0.786642 -0.524428 -0.325838
vn -0.786642 -0.524428 -0.325837
vn -0.786642 -0.524428 -0.325837
vn -0.786642 -0.524428 -0.325837
vn -0.325838 -0.524428 -0.786642
vn -0.325838 -0.524428 -0.786642
vn -0.325838 -0.524428 -0.786642
vn -0.325838 -0.524428 -0.786642
vn -0.325838 -0.524428 -0.786642
vn -0.325838 -0.524428 -0.786642
vn 0.325838 -0.524428 -0.786642
vn 0.325838 -0.524428 -0.786642
vn 0.325838 -0.524428 -0.786642
vn 0.325838 -0.524428 -0.786642
vn 0.325838 -0.524428 -0.786642
vn 0.325838 -0.524428 -0.786642
vn 0.786641 -0.524428 -0.325838
vn 0.786641 -0.524428 -0.325838
vn 0.786641 -0.524428 -0.325838
vn 0.786642 -0.524428 -0.325838
vn 0.786642 -0.524428 -0.325838
vn 0.786642 -0.524428 -0.325838
vn -0.000000 -1.000000 0.000000
vn -0.000000 -1.000000 0.000000
vn -0.000000 -1.000000 0.000000
vn -0.000000 -1.000000 0.000000
vn -0.000000 -1.000000 0.000000
vn -0.000000 -1.000000 0.000000
vn 0.786642 -0.524428 0.325838
vn 0.786642 -0.524428 0.325838
vn 0.786642 -0.524428 0.325838
vn 0.786641 -0.524428 0.325838
vn 0.786641 -0.524428 0.325838
vn 0.786641 -0.524428 0.325838
vn 0.325838 -0.524428 0.786642
vn 0.325838 -0.524428 0.786642
vn 0.325838 -0.524428 0.786642
vn 0.325838 -0.524428 0.786642
vn 0.325838 -0.524428 0.786642
vn 0.325838 -0.524428 0.786642
vn -0.000000 -1.000000 0.000000
vn -0.000000 -1.000000 0.000000
vn -0.000000 -1.000000 0.000000
vn -0.000000 -1.000000 0.000000
vn -0.000000 -1.000000 0.000000
vn -0.000000 -1.000000 0.000000
vn -0.000000 -1.000000 0.000000
vn -0.000000 -1.000000 0.000000
vn -0.000000 -1.000000 0.000000
vn -0.000000 -1.000000 0.000000
vn -0.000000 -1.000000 0.000000
vn -0.000000 -1.000000 0.000000
vn -0.000000 -1.000000 0.000000
vn -0.000000 -1.000000 0.000000
vn -0.000000 -1.000000 0.000000
vn -0.000000 -1.000000 0.000000
vn -0.000000 -1.000000 0.000000
vn -0.000000 -1.000000 0.000000
vn -0.000000 -1.000000 0.000000
vn -0.000000 -1.000000 0.000000
vn -0.000000 -1.000000 0.000000
vn -0.000001 -1.000000 0.000000
vn -0.000001 -1.000000 0.000000
vn -0.000001 -1.000000 0.000000
vn -0.000000 -1.000000 0.000000
vn -0.000000 -1.000000 0.000000
vn -0.000000 -1.000000 0.000000
vn 0.000000 -1.000000 0.000000
vn 0.000000 -1.000000 0.000000
vn 0.000000 -1.000000 0.000000
vn -0.000000 -1.000000 0.000000
vn -0.000000 -1.000000 0.000000
vn -0.000000 -1.000000 0.000000
vn 0.000000 -1.000000 0.000000
vn 0.000000 -1.000000 0.000000
vn 0.000000 -1.000000 0.000000
vn 0.000000 -1.000000 0.000000
vn 0.000000 -1.000000 0.000000
vn 0.000000 -1.000000 0.000000
vn -0.000000 -1.000000 0.000000
vn -0.000000 -1.000000 0.000000
vn -0.000000 -1.000000 0.000000
vn -0.000000 -1.000000 0.000000
vn -0.000000 -1.000000 0.000000
vn -0.000000 -1.000000 0.000000
vn 0.923880 0.000000 0.382683
vn 0.923880 0.000000 0.382683
vn 0.923880 0.000000 0.382683
vn 0.923880 0.000000 0.382683
vn 0.923880 0.000000 0.382683
vn 0.923880 0.000000 0.382683
vn 0.382683 0.000000 -0.923880
vn 0.382683 0.000000 -0.923880
vn 0.382683 0.000000 -0.923880
vn 0.382683 0.000000 -0.923880
vn 0.382683 0.000000 -0.923880
vn 0.382683 0.000000 -0.923880
vn -0.923880 0.000000 -0.382683
vn -0.923880 0.000000 -0.382683
vn -0.923880 0.000000 -0.382683
vn -0.923880 0.000000 -0.382683
vn -0.923880 0.000000 -0.382683
vn -0.923880 0.000000 -0.382683
vn -0.382683 0.000000 0.923880
vn -0.382683 0.000000 0.923880
vn -0.382683 0.000000 0.923880
vn -0.382683 0.000000 0.923880
vn -0.382683 0.000000 0.923880
vn -0.382683 0.000000 0.923880
vn 0.382683 0.000000 0.923879
vn 0.382683 0.000000 0.923879
vn 0.382683 0.000000 0.923879
vn 0.382683 0.000000 0.923879
vn 0.382683 0.000000 0.923879
vn 0.382683 0.000000 0.923879
vn 0.923880 0.000000 -0.382683
vn 0.923880 0.000000 -0.382683
vn 0.923880 0.000000 -0.382683
vn 0.923880 0.000000 -0.382683
vn 0.923880 0.000000 -0.382683
vn 0.923880 0.000000 -0.382683
vn -0.382683 0.000000 -0.923879
vn -0.382683 0.000000 -0.923879
vn -0.382683 0.000000 -0.923879
vn -0.382683 0.000000 -0.923879
vn -0.382683 0.000000 -0.923879
vn -0.382683 0.000000 -0.923879
vn -0.923879 0.000000 0.382684
vn -0.923879 0.000000 0.382684
vn -0.923879 0.000000 0.382684
vn -0.923880 0.000000 0.382683
vn -0.923880 0.000000 0.382683
vn -0.923880 0.000000 0.382683
vn -0.000000 1.000000 0.000000
vn -0.000000 1.000000 0.000000
vn -0.000000 1.000000 0.000000
vn -0.000000 1.000000 0.000000
vn -0.000000 1.000000 0.000000
vn -0.000000 1.000000 0.000000
vn 0.000000 1.000000 0.000000
vn 0.000000 1.000000 0.000000
vn 0.000000 1.000000 0.000000
vn -0.000000 1.000000 0.000000
vn -0.000000 1.000000 0.000000
vn -0.000000 1.000000 0.000000
vn -0.000000 1.000000 0.000000
vn -0.000000 1.000000 0.000000
vn -0.000000 1.000000 0.000000
vn -0.000000 1.000000 0.000000
vn -0.000000 1.000000 0.000000
vn -0.000000 1.000000 0.000000
vn 0.000000 1.000000 0.000000
vn 0.000000 1.000000 0.000000
vn 0.000000 1.000000 0.000000
vn -0.000000 1.000000 0.000000
vn -0.000000 1.000000 0.000000
vn -0.000000 1.000000 0.000000
vn -0.000000 1.000000 0.000000
vn -0.000000 1.000000 0.000000
vn -0.000000 1.000000 0.000000
vn 0.000000 1.000000 0.000000
vn 0.000000 1.000000 0.000000
vn 0.000000 1.000000 0.000000
vn -0.000000 1.000000 0.000000
vn -0.000000 1.000000 0.000000
vn -0.000000 1.000000 0.000000
vn -0.000000 1.000000 0.000000
vn -0.000000 1.000000 0.000000
vn -0.000000 1.000000 0.000000
vn -0.000000 1.000000 0.000000
vn -0.000000 1.000000 0.000000
vn -0.000000 1.000000 0.000000
vn 0.000000 1.000000 0.000000
vn 0.000000 1.000000 0.000000
vn 0.000000 1.000000 0.000000
vn -0.000000 1.000000 0.000000
vn -0.000000 1.000000 0.000000
vn -0.000000 1.000000 0.000000
vn -0.000000 1.000000 0.000000
vn -0.000000 1.000000 0.000000
vn -0.000000 1.000000 0.000000
vn -0.923880 0.000000 -0.382683
vn -0.923880 0.000000 -0.382683
vn -0.923880 0.000000 -0.382683
vn -0.923880 0.000000 -0.382683
vn -0.923880 0.000000 -0.382683
vn -0.923880 0.000000 -0.382683
vn 0.923880 0.000000 -0.382683
vn 0.923880 0.000000 -0.382683
vn 0.923880 0.000000 -0.382683
vn 0.923879 0.000000 -0.382684
vn 0.923879 0.000000 -0.382684
vn 0.923879 0.000000 -0.382684
vn 0.382684 0.000000 0.923879
vn 0.382684 0.000000 0.923879
vn 0.382684 0.000000 0.923879
vn 0.382683 0.000000 0.923880
vn 0.382683 0.000000 0.923880
vn 0.382683 0.000000 0.923880
vn -0.923880 0.000000 0.382683
vn -0.923880 0.000000 0.382683
vn -0.923880 0.000000 0.382683
vn -0.923880 0.000000 0.382683
vn -0.923880 0.000000 0.382683
vn -0.923880 0.000000 0.382683
vn -0.382684 0.000000 -0.923879
vn -0.382684 0.000000 -0.923879
vn -0.382684 0.000000 -0.923879
vn -0.382683 0.000000 -0.923880
vn -0.382683 0.000000 -0.923880
vn -0.382683 0.000000 -0.923880
vn 0.382684 0.000000 -0.923880
vn 0.382684 0.000000 -0.923880
vn 0.382684 0.000000 -0.923880
vn 0.382683 0.000000 -0.923880
vn 0.382683 0.000000 -0.923880
vn 0.382683 0.000000 -0.923880
vn 0.923879 0.000000 0.382684
vn 0.923879 0.000000 0.382684
vn 0.923879 0.000000 0.382684
vn 0.923879 0.000000 0.382684
vn 0.923879 0.000000 0.382684
vn 0.923879 0.000000 0.382684
vn -0.382684 0.000000 0.923879
vn -0.382684 0.000000 0.923879
vn -0.382684 0.000000 0.923879
vn -0.382683 0.000000 0.923880
vn -0.382683 0.000000 0.923880
vn -0.382683 0.000000 0.923880
vn -0.000000 1.000000 0.000000
vn -0.000000 1.000000 0.000000
vn -0.000000 1.000000 0.000000
vn 0.000000 1.000000 0.000000
vn 0.000000 1.000000 0.000000
vn 0.000000 1.000000 0.000000
vn 0.000000 1.000000 0.000000
vn 0.000000 1.000000 0.000000
vn 0.000000 1.000000 0.000000
vn -0.000000 1.000000 0.000000
vn -0.000000 1.000000 0.000000
vn -0.000000 1.000000 0.000000
vn -0.000000 1.000000 0.000000
vn -0.000000 1.000000 0.000000
vn -0.000000 1.000000 0.000000
vn -0.000000 1.000000 0.000000
vn -0.000000 1.000000 0.000000
vn -0.000000 1.000000 0.000000
vn -0.000000 -1.000000 0.000000
vn -0.000000 -1.000000 0.000000
vn -0.000000 -1.000000 0.000000
vn -0.000000 -1.000000 0.000000
vn -0.000000 -1.000000 0.000000
vn -0.000000 -1.000000 0.000000
vn -0.000000 -1.000000 0.000000
vn -0.000000 -1.000000 0.000000
vn -0.000000 -1.000000 0.000000
vn -0.000000 -1.000000 0.000000
vn -0.000000 -1.000000 0.000000
vn -0.000000 -1.000000 0.000000
vn -0.000000 -1.000000 0.000000
vn -0.000000 -1.000000 0.000000
vn -0.000000 -1.000000 0.000000

g Material.001
f 3/1/1 1/2/2 2/3/3
f 4/4/4 1/5/5 3/6/6
f 7/7/7 5/8/8 6/9/9
f 8/10/10 5/11/11 7/12/12
f 11/13/13 9/14/14 10/15/15
f 12/16/16 9/17/17 11/18/18
f 15/19/19 13/20/20 14/21/21
f 16/22/22 13/23/23 15/24/24
f 19/25/25 17/26/26 18/27/27
f 20/28/28 17/29/29 19/30/30
f 23/31/31 21/32/32 22/33/33
f 24/34/34 21/35/35 23/36/36
f 27/37/37 25/38/38 26/39/39
f 28/40/40 25/41/41 27/42/42
f 31/43/43 29/44/44 30/45/45
f 32/46/46 29/47/47 31/48/48
f 35/49/49 33/50/50 34/51/51
f 36/52/52 33/53/53 35/54/54
f 39/55/55 37/56/56 38/57/57
f 42/58/58 40/59/59 41/60/60
f 43/61/61 40/62/62 42/63/63
f 46/64/64 44/65/65 45/66/66
f 47/67/67 44/68/68 46/69/69
f 50/70/70 48/71/71 49/72/72
f 51/73/73 48/74/74 50/75/75
f 54/76/76 52/77/77 53/78/78
f 55/79/79 52/80/80 54/81/81
f 58/82/82 56/83/83 57/84/84
f 59/85/85 56/86/86 58/87/87
f 62/88/88 60/89/89 61/90/90
f 63/91/91 60/92/92 62/93/93
f 66/94/94 64/95/95 65/96/96
f 67/97/97 64/98/98 66/99/99
f 70/100/100 68/101/101 69/102/102
f 71/103/103 68/104/104 70/105/105
f 74/106/106 72/107/107 73/108/108
f 75/109/109 72/110/110 74/111/111
f 78/112/112 76/113/113 77/114/114
f 79/115/115 76/116/116 78/117/117
f 82/118/118 80/119/119 81/120/120
f 83/121/121 80/122/122 82/123/123
f 86/124/124 84/125/125 85/126/126
f 87/127/127 84/128/128 86/129/129
f 90/130/130 88/131/131 89/132/132
f 91/133/133 88/134/134 90/135/135
f 94/136/136 92/137/137 93/138/138
f 95/139/139 92/140/140 94/141/141
f 98/142/142 96/143/143 97/144/144
f 99/145/145 96/146/146 98/147/147
f 102/148/148 100/149/149 101/150/150
f 103/151/151 100/152/152 102/153/153
f 106/154/154 104/155/155 105/156/156
f 107/157/157 104/158/158 106/159/159
f 110/160/160 108/161/161 109/162/162
f 111/163/163 108/164/164 110/165/165
f 114/166/166 112/167/167 113/168/168
f 115/169/169 112/170/170 114/171/171
f 118/172/172 116/173/173 117/174/174
f 119/175/175 116/176/176 118/177/177
f 122/178/178 120/179/179 121/180/180
f 123/181/181 120/182/182 122/183/183
f 126/184/184 124/185/185 125/186/186
f 127/187/187 124/188/188 126/189/189
f 130/190/190 128/191/191 129/192/192
f 131/193/193 128/194/194 130/195/195
f 134/196/196 132/197/197 133/198/198
f 135/199/199 132/200/200 134/201/201
f 138/202/202 136/203/203 137/204/204
f 139/205/205 136/206/206 138/207/207
f 142/208/208 140/209/209 141/210/210
f 143/211/211 140/212/212 142/213/213
f 146/214/214 144/215/215 145/216/216
f 147/217/217 144/218/218 146/219/219
f 150/220/220 148/221/221 149/222/222
f 151/223/223 148/224/224 150/225/225
f 154/226/226 152/227/227 153/228/228
f 155/229/229 152/230/230 154/231/231
f 158/232/232 156/233/233 157/234/234
f 159/235/235 156/236/236 158/237/237
f 162/238/238 160/239/239 161/240/240
f 163/241/241 160/242/242 162/243/243
f 166/244/244 164/245/245 165/246/246
f 169/247/247 167/248/248 168/249/249
f 172/250/250 170/251/251 171/252/252
f 175/253/253 173/254/254 174/255/255
f 178/256/256 176/257/257 177/258/258
f 181/259/259 179/260/260 180/261/261
f 184/262/262 182/263/263 183/264/264
f 187/265/265 185/266/266 186/267/267
f 190/268/268 188/269/269 189/270/270
f 193/271/271 191/272/272 192/273/273
f 196/274/274 194/275/275 195/276/276

