# Converted from B3D for Luanti (With Correct Normals)
# Object Name: multidecor_wooden_table_with_metallic_legs

v 1.000000 1.000000 1.000000
v 1.000000 1.000000 -1.000000
v -1.000000 1.000000 -1.000000
v -1.000000 1.000000 1.000000
v -1.000000 0.900000 1.000000
v -1.000000 1.000000 1.000000
v -1.000000 1.000000 -1.000000
v -1.000000 0.900000 -1.000000
v -1.000000 0.900000 -1.000000
v -1.000000 1.000000 -1.000000
v 1.000000 1.000000 -1.000000
v 1.000000 0.900000 -1.000000
v 1.000000 0.900000 -1.000000
v 1.000000 0.900000 1.000000
v -1.000000 0.900000 1.000000
v -1.000000 0.900000 -1.000000
v 1.000000 0.900000 1.000000
v 1.000000 1.000000 1.000000
v -1.000000 1.000000 1.000000
v -1.000000 0.900000 1.000000
v 1.000000 0.900000 -1.000000
v 1.000000 1.000000 -1.000000
v 1.000000 1.000000 1.000000
v 1.000000 0.900000 1.000000
v 1.000000 0.840445 0.900000
v 1.000000 0.840445 -0.900000
v -1.000000 0.840445 -0.900000
v -1.000000 0.840445 0.900000
v -1.000000 0.740445 0.900000
v -1.000000 0.840445 0.900000
v -1.000000 0.840445 -0.900000
v -1.000000 0.740445 -0.900000
v -1.000000 0.740445 -0.900000
v -1.000000 0.840445 -0.900000
v 1.000000 0.840445 -0.900000
v 1.000000 0.740445 -0.900000
v 1.000000 0.740445 -0.900000
v 1.000000 0.740445 0.900000
v -1.000000 0.740445 0.900000
v -1.000000 0.740445 -0.900000
v 1.000000 0.740445 0.900000
v 1.000000 0.840445 0.900000
v -1.000000 0.840445 0.900000
v -1.000000 0.740445 0.900000
v 1.000000 0.740445 -0.900000
v 1.000000 0.840445 -0.900000
v 1.000000 0.840445 0.900000
v 1.000000 0.740445 0.900000
v -0.800000 0.740445 0.900000
v -1.000000 0.740445 0.900000
v -1.000000 0.840445 0.900000
v -0.800000 0.840445 0.900000
v -0.800000 0.740445 1.100000
v -0.800000 0.840445 1.100000
v -1.000000 0.840445 1.100000
v -1.000000 0.740445 1.100000
v -0.800000 0.740445 1.000000
v -0.800000 0.740445 1.100000
v -0.800000 -0.798697 0.800006
v -0.800000 -0.798697 0.700006
v -1.000000 0.740445 1.000000
v -1.000000 0.740445 1.100000
v -1.000000 0.840445 1.100000
v -0.800000 0.840445 0.900000
v -1.000000 0.840445 0.900000
v -1.000000 0.840445 1.100000
v -0.800000 0.840445 1.100000
v -0.800000 0.840445 1.100000
v -0.800000 0.740445 1.100000
v -0.800000 0.740445 1.000000
v -0.800000 0.740445 0.900000
v -0.800000 0.740445 1.000000
v -1.000000 0.740445 1.000000
v -1.000000 0.740445 0.900000
v -1.000000 -0.798697 0.700006
v -0.800000 -0.798697 0.700006
v -0.800000 -0.896654 0.679876
v -1.000000 -0.896654 0.679876
v -0.800000 0.740445 1.100000
v -1.000000 0.740445 1.100000
v -1.000000 -0.798697 0.800006
v -0.800000 -0.798697 0.800006
v -1.000000 0.740445 1.100000
v -1.000000 0.740445 1.000000
v -1.000000 -0.798697 0.700006
v -1.000000 -0.798697 0.800006
v -1.000000 0.740445 1.000000
v -0.800000 0.740445 1.000000
v -0.800000 -0.798697 0.700006
v -1.000000 -0.798697 0.700006
v -1.000000 -0.896654 0.679876
v -0.800000 -0.896654 0.679876
v -0.800000 -0.896654 0.779876
v -1.000000 -0.896654 0.779876
v -0.800000 -0.798697 0.800006
v -1.000000 -0.798697 0.800006
v -1.000000 -0.896654 0.779876
v -0.800000 -0.896654 0.779876
v -0.800000 -0.798697 0.700006
v -0.800000 -0.798697 0.800006
v -0.800000 -0.896654 0.779876
v -0.800000 -0.896654 0.679876
v -1.000000 -0.798697 0.800006
v -1.000000 -0.798697 0.700006
v -1.000000 -0.896654 0.679876
v -1.000000 -0.896654 0.779876
v -0.800000 0.740445 -1.100000
v -1.000000 0.740445 -1.100000
v -1.000000 0.840445 -1.100000
v -0.800000 0.840445 -1.100000
v -0.800000 0.740445 -1.000000
v -0.800000 -0.798697 -0.700006
v -0.800000 -0.798697 -0.800006
v -0.800000 0.740445 -1.100000
v -1.000000 0.840445 -1.100000
v -1.000000 0.740445 -1.100000
v -1.000000 0.740445 -1.000000
v -0.800000 0.840445 -0.900000
v -0.800000 0.840445 -1.100000
v -1.000000 0.840445 -1.100000
v -1.000000 0.840445 -0.900000
v -0.800000 0.740445 -1.000000
v -0.800000 0.840445 -1.100000
v -0.800000 0.840445 -0.900000
v -0.800000 0.740445 -0.900000
v -1.000000 0.740445 -0.900000
v -1.000000 0.740445 -1.000000
v -0.800000 0.740445 -1.000000
v -1.000000 -0.798697 -0.700006
v -0.800000 -0.798697 -0.700006
v -0.800000 -0.896654 -0.679876
v -1.000000 -0.896654 -0.679876
v -0.800000 0.740445 -1.100000
v -0.800000 -0.798697 -0.800006
v -1.000000 -0.798697 -0.800006
v -1.000000 0.740445 -1.100000
v -1.000000 0.740445 -1.100000
v -1.000000 -0.798697 -0.800006
v -1.000000 -0.798697 -0.700006
v -1.000000 0.740445 -1.000000
v -1.000000 0.740445 -1.000000
v -1.000000 -0.798697 -0.700006
v -0.800000 -0.798697 -0.700006
v -0.800000 0.740445 -1.000000
v -1.000000 -0.896654 -0.679876
v -1.000000 -0.896654 -0.779876
v -0.800000 -0.896654 -0.779876
v -0.800000 -0.896654 -0.679876
v -0.800000 -0.798697 -0.800006
v -0.800000 -0.896654 -0.779876
v -1.000000 -0.896654 -0.779876
v -1.000000 -0.798697 -0.800006
v -0.800000 -0.798697 -0.700006
v -0.800000 -0.896654 -0.679876
v -0.800000 -0.896654 -0.779876
v -0.800000 -0.798697 -0.800006
v -1.000000 -0.798697 -0.800006
v -1.000000 -0.896654 -0.779876
v -1.000000 -0.896654 -0.679876
v -1.000000 -0.798697 -0.700006
v -1.000000 -0.798697 0.700006
v -0.800000 -0.798697 0.700006
v -0.800000 -0.798697 -0.700006
v -1.000000 -0.798697 -0.700006
v -0.800000 -0.798697 -0.700006
v -0.800000 -0.798697 0.700006
v -0.800000 -0.896654 0.679876
v -0.800000 -0.896654 -0.679876
v -0.950668 -0.896654 0.630544
v -0.950668 -0.896654 -0.630544
v -0.950668 -0.896654 -0.630544
v -0.950668 -0.896654 0.630544
v -1.000000 -0.896654 -0.679876
v -1.000000 -0.896654 0.679876
v -1.000000 -0.798697 0.700006
v -1.000000 -0.798697 -0.700006
v -0.950668 -0.896654 0.630544
v -0.849332 -0.896654 0.630544
v -0.800000 -0.896654 0.679876
v -1.000000 -0.896654 0.679876
v -0.849332 -0.896654 -0.630544
v -0.950668 -0.896654 -0.630544
v -1.000000 -0.896654 -0.679876
v -0.800000 -0.896654 -0.679876
v -0.849332 -0.896654 0.630544
v -0.849332 -0.896654 -0.630544
v -0.800000 -0.896654 -0.679876
v -0.800000 -0.896654 0.679876
v -0.950668 -0.896654 -0.630544
v -0.950668 -0.896654 0.630544
v -1.000000 -0.896654 0.679876
v -1.000000 -0.896654 -0.679876
v -0.849332 -0.896654 -0.630544
v -0.849332 -0.896654 0.630544
v -0.849332 -1.000000 0.630544
v -0.849332 -1.000000 -0.630544
v -0.950668 -0.896654 -0.630544
v -0.849332 -0.896654 -0.630544
v -0.849332 -0.896654 -0.630544
v -0.950668 -0.896654 -0.630544
v -0.849332 -0.896654 -0.630544
v -0.849332 -0.896654 0.630544
v -0.849332 -0.896654 0.630544
v -0.849332 -0.896654 -0.630544
v -0.849332 -0.896654 0.630544
v -0.950668 -0.896654 0.630544
v -0.950668 -0.896654 0.630544
v -0.849332 -0.896654 0.630544
v -0.849332 -1.000000 -0.630544
v -0.849332 -1.000000 0.630544
v -0.950668 -1.000000 0.630544
v -0.950668 -1.000000 -0.630544
v -0.849332 -0.896654 0.630544
v -0.950668 -0.896654 0.630544
v -0.950668 -1.000000 0.630544
v -0.849332 -1.000000 0.630544
v -0.950668 -0.896654 0.630544
v -0.950668 -0.896654 -0.630544
v -0.950668 -1.000000 -0.630544
v -0.950668 -1.000000 0.630544
v -0.950668 -0.896654 -0.630544
v -0.849332 -0.896654 -0.630544
v -0.849332 -1.000000 -0.630544
v -0.950668 -1.000000 -0.630544
v 0.800000 0.740445 1.100000
v 1.000000 0.740445 1.100000
v 1.000000 0.840445 1.100000
v 0.800000 0.840445 1.100000
v 0.800000 0.740445 1.000000
v 0.800000 -0.798697 0.700006
v 0.800000 -0.798697 0.800006
v 0.800000 0.740445 1.100000
v 1.000000 0.840445 1.100000
v 1.000000 0.740445 1.100000
v 1.000000 0.740445 1.000000
v 0.800000 0.840445 0.900000
v 1.000000 0.840445 0.900000
v 1.000000 0.840445 1.100000
v 0.800000 0.840445 1.100000
v 0.800000 0.740445 1.000000
v 0.800000 0.840445 1.100000
v 0.800000 0.840445 0.900000
v 0.800000 0.740445 0.900000
v 1.000000 0.740445 0.900000
v 1.000000 0.740445 1.000000
v 0.800000 0.740445 1.000000
v 1.000000 -0.798697 0.700006
v 0.800000 -0.798697 0.700006
v 0.800000 -0.896654 0.679876
v 1.000000 -0.896654 0.679876
v 0.800000 0.740445 1.100000
v 0.800000 -0.798697 0.800006
v 1.000000 -0.798697 0.800006
v 1.000000 0.740445 1.100000
v 1.000000 0.740445 1.100000
v 1.000000 -0.798697 0.800006
v 1.000000 -0.798697 0.700006
v 1.000000 0.740445 1.000000
v 1.000000 0.740445 1.000000
v 1.000000 -0.798697 0.700006
v 0.800000 -0.798697 0.700006
v 0.800000 0.740445 1.000000
v 1.000000 -0.896654 0.679876
v 1.000000 -0.896654 0.779876
v 0.800000 -0.896654 0.779876
v 0.800000 -0.896654 0.679876
v 0.800000 -0.798697 0.800006
v 0.800000 -0.896654 0.779876
v 1.000000 -0.896654 0.779876
v 1.000000 -0.798697 0.800006
v 0.800000 -0.798697 0.700006
v 0.800000 -0.896654 0.679876
v 0.800000 -0.896654 0.779876
v 0.800000 -0.798697 0.800006
v 1.000000 -0.798697 0.800006
v 1.000000 -0.896654 0.779876
v 1.000000 -0.896654 0.679876
v 1.000000 -0.798697 0.700006
v 0.800000 0.740445 -1.100000
v 0.800000 0.840445 -1.100000
v 1.000000 0.840445 -1.100000
v 1.000000 0.740445 -1.100000
v 0.800000 0.740445 -1.000000
v 0.800000 0.740445 -1.100000
v 0.800000 -0.798697 -0.800006
v 0.800000 -0.798697 -0.700006
v 1.000000 0.740445 -1.000000
v 1.000000 0.740445 -1.100000
v 1.000000 0.840445 -1.100000
v 0.800000 0.840445 -0.900000
v 1.000000 0.840445 -0.900000
v 1.000000 0.840445 -1.100000
v 0.800000 0.840445 -1.100000
v 0.800000 0.840445 -1.100000
v 0.800000 0.740445 -1.100000
v 0.800000 0.740445 -1.000000
v 0.800000 0.740445 -0.900000
v 0.800000 0.740445 -1.000000
v 1.000000 0.740445 -1.000000
v 1.000000 0.740445 -0.900000
v 1.000000 -0.798697 -0.700006
v 0.800000 -0.798697 -0.700006
v 0.800000 -0.896654 -0.679876
v 1.000000 -0.896654 -0.679876
v 0.800000 0.740445 -1.100000
v 1.000000 0.740445 -1.100000
v 1.000000 -0.798697 -0.800006
v 0.800000 -0.798697 -0.800006
v 1.000000 0.740445 -1.100000
v 1.000000 0.740445 -1.000000
v 1.000000 -0.798697 -0.700006
v 1.000000 -0.798697 -0.800006
v 1.000000 0.740445 -1.000000
v 0.800000 0.740445 -1.000000
v 0.800000 -0.798697 -0.700006
v 1.000000 -0.798697 -0.700006
v 1.000000 -0.896654 -0.679876
v 0.800000 -0.896654 -0.679876
v 0.800000 -0.896654 -0.779876
v 1.000000 -0.896654 -0.779876
v 0.800000 -0.798697 -0.800006
v 1.000000 -0.798697 -0.800006
v 1.000000 -0.896654 -0.779876
v 0.800000 -0.896654 -0.779876
v 0.800000 -0.798697 -0.700006
v 0.800000 -0.798697 -0.800006
v 0.800000 -0.896654 -0.779876
v 0.800000 -0.896654 -0.679876
v 1.000000 -0.798697 -0.800006
v 1.000000 -0.798697 -0.700006
v 1.000000 -0.896654 -0.679876
v 1.000000 -0.896654 -0.779876
v 1.000000 -0.798697 0.700006
v 1.000000 -0.798697 -0.700006
v 0.800000 -0.798697 -0.700006
v 0.800000 -0.798697 0.700006
v 0.800000 -0.798697 -0.700006
v 0.800000 -0.896654 -0.679876
v 0.800000 -0.896654 0.679876
v 0.800000 -0.798697 0.700006
v 0.950668 -0.896654 0.630544
v 0.950668 -0.896654 -0.630544
v 0.950668 -0.896654 -0.630544
v 0.950668 -0.896654 0.630544
v 1.000000 -0.896654 -0.679876
v 1.000000 -0.798697 -0.700006
v 1.000000 -0.798697 0.700006
v 1.000000 -0.896654 0.679876
v 0.950668 -0.896654 0.630544
v 1.000000 -0.896654 0.679876
v 0.800000 -0.896654 0.679876
v 0.849332 -0.896654 0.630544
v 0.849332 -0.896654 -0.630544
v 0.800000 -0.896654 -0.679876
v 1.000000 -0.896654 -0.679876
v 0.950668 -0.896654 -0.630544
v 0.849332 -0.896654 0.630544
v 0.800000 -0.896654 0.679876
v 0.800000 -0.896654 -0.679876
v 0.849332 -0.896654 -0.630544
v 0.950668 -0.896654 -0.630544
v 1.000000 -0.896654 -0.679876
v 1.000000 -0.896654 0.679876
v 0.950668 -0.896654 0.630544
v 0.849332 -0.896654 -0.630544
v 0.849332 -1.000000 -0.630544
v 0.849332 -1.000000 0.630544
v 0.849332 -0.896654 0.630544
v 0.950668 -0.896654 -0.630544
v 0.849332 -0.896654 -0.630544
v 0.849332 -0.896654 -0.630544
v 0.950668 -0.896654 -0.630544
v 0.849332 -0.896654 -0.630544
v 0.849332 -0.896654 0.630544
v 0.849332 -0.896654 0.630544
v 0.849332 -0.896654 -0.630544
v 0.849332 -0.896654 0.630544
v 0.950668 -0.896654 0.630544
v 0.950668 -0.896654 0.630544
v 0.849332 -0.896654 0.630544
v 0.849332 -1.000000 -0.630544
v 0.950668 -1.000000 -0.630544
v 0.950668 -1.000000 0.630544
v 0.849332 -1.000000 0.630544
v 0.849332 -0.896654 0.630544
v 0.849332 -1.000000 0.630544
v 0.950668 -1.000000 0.630544
v 0.950668 -0.896654 0.630544
v 0.950668 -0.896654 0.630544
v 0.950668 -1.000000 0.630544
v 0.950668 -1.000000 -0.630544
v 0.950668 -0.896654 -0.630544
v 0.950668 -0.896654 -0.630544
v 0.950668 -1.000000 -0.630544
v 0.849332 -1.000000 -0.630544
v 0.849332 -0.896654 -0.630544
v -1.000000 0.840445 1.100000
v -1.000000 0.840445 0.900000
v -1.000000 0.740445 1.000000
v -1.000000 0.840445 0.900000
v -1.000000 0.740445 0.900000
v -1.000000 0.740445 1.000000
v -0.800000 0.740445 1.000000
v -0.800000 0.740445 0.900000
v -0.800000 0.840445 0.900000
v -0.800000 0.840445 0.900000
v -0.800000 0.840445 1.100000
v -0.800000 0.740445 1.000000
v -1.000000 0.740445 -0.900000
v -1.000000 0.840445 -0.900000
v -1.000000 0.740445 -1.000000
v -1.000000 0.840445 -0.900000
v -1.000000 0.840445 -1.100000
v -1.000000 0.740445 -1.000000
v -0.800000 0.840445 -0.900000
v -0.800000 0.740445 -0.900000
v -0.800000 0.740445 -1.000000
v -0.800000 0.740445 -1.000000
v -0.800000 0.740445 -1.100000
v -0.800000 0.840445 -1.100000
v 1.000000 0.740445 0.900000
v 1.000000 0.840445 0.900000
v 1.000000 0.740445 1.000000
v 1.000000 0.840445 0.900000
v 1.000000 0.840445 1.100000
v 1.000000 0.740445 1.000000
v 0.800000 0.840445 0.900000
v 0.800000 0.740445 0.900000
v 0.800000 0.740445 1.000000
v 0.800000 0.740445 1.000000
v 0.800000 0.740445 1.100000
v 0.800000 0.840445 1.100000
v 1.000000 0.840445 -1.100000
v 1.000000 0.840445 -0.900000
v 1.000000 0.740445 -1.000000
v 1.000000 0.840445 -0.900000
v 1.000000 0.740445 -0.900000
v 1.000000 0.740445 -1.000000
v 0.800000 0.740445 -1.000000
v 0.800000 0.740445 -0.900000
v 0.800000 0.840445 -0.900000
v 0.800000 0.840445 -0.900000
v 0.800000 0.840445 -1.100000
v 0.800000 0.740445 -1.000000

vt 0.017320 0.350756
vt 0.350205 0.017872
vt 0.350205 0.350756
vt 0.017320 0.017872
vt 0.350205 0.017872
vt 0.017320 0.350756
vt 0.017320 0.350756
vt 0.000676 0.017872
vt 0.017320 0.017872
vt 0.000676 0.350756
vt 0.000676 0.017872
vt 0.017320 0.350756
vt 0.350205 0.350756
vt 0.017320 0.367401
vt 0.017320 0.350756
vt 0.350205 0.367401
vt 0.017320 0.367401
vt 0.350205 0.350756
vt 0.017320 0.700285
vt 0.350205 0.367401
vt 0.350205 0.700285
vt 0.017320 0.367401
vt 0.350205 0.367401
vt 0.017320 0.700285
vt 0.017320 0.017872
vt 0.350205 0.001228
vt 0.350205 0.017872
vt 0.017320 0.001228
vt 0.350205 0.001228
vt 0.017320 0.017872
vt 0.350205 0.017872
vt 0.366849 0.350756
vt 0.350205 0.350756
vt 0.366849 0.017872
vt 0.366849 0.350756
vt 0.350205 0.017872
vt 0.023297 0.435554
vt 0.481360 0.023297
vt 0.481360 0.435554
vt 0.023297 0.023297
vt 0.481360 0.023297
vt 0.023297 0.435554
vt 0.023297 0.435554
vt 0.000394 0.023297
vt 0.023297 0.023297
vt 0.000394 0.435554
vt 0.000394 0.023297
vt 0.023297 0.435554
vt 0.481360 0.435554
vt 0.023297 0.458457
vt 0.023297 0.435554
vt 0.481360 0.458457
vt 0.023297 0.458457
vt 0.481360 0.435554
vt 0.023297 0.870714
vt 0.481360 0.458457
vt 0.481360 0.870714
vt 0.023297 0.458457
vt 0.481360 0.458457
vt 0.023297 0.870714
vt 0.023297 0.023297
vt 0.481360 0.000394
vt 0.481360 0.023297
vt 0.023297 0.000394
vt 0.481360 0.000394
vt 0.023297 0.023297
vt 0.481360 0.023297
vt 0.504263 0.435554
vt 0.481360 0.435554
vt 0.504263 0.023297
vt 0.504263 0.435554
vt 0.481360 0.023297
vt 0.562221 0.707588
vt 0.587629 0.752053
vt 0.549516 0.726644
vt 0.600334 0.732996
vt 0.587629 0.752053
vt 0.562221 0.707588
vt 0.524107 0.682179
vt 0.530460 0.631361
vt 0.549516 0.644066
vt 0.505051 0.669475
vt 0.530460 0.631361
vt 0.524107 0.682179
vt 0.601121 0.629391
vt 0.623601 0.984154
vt 0.601121 0.988536
vt 0.623601 0.625009
vt 0.623601 0.984154
vt 0.601121 0.629391
vt 0.524107 0.682179
vt 0.530460 0.713940
vt 0.511403 0.701236
vt 0.524107 0.682179
vt 0.587629 0.669474
vt 0.562221 0.707588
vt 0.549516 0.644066
vt 0.587629 0.669474
vt 0.524107 0.682179
vt 0.581277 0.637713
vt 0.549516 0.644066
vt 0.562221 0.625009
vt 0.530460 0.713940
vt 0.524108 0.764757
vt 0.505051 0.752053
vt 0.549516 0.726644
vt 0.524108 0.764757
vt 0.530460 0.713940
vt 0.837039 0.858466
vt 0.814135 0.904273
vt 0.814135 0.858466
vt 0.837039 0.904273
vt 0.814135 0.904273
vt 0.837039 0.858466
vt 0.720948 0.360327
vt 0.766754 0.719472
vt 0.720948 0.719472
vt 0.766754 0.360327
vt 0.766754 0.719472
vt 0.720948 0.360327
vt 0.953071 0.723853
vt 0.930591 0.360327
vt 0.953071 0.364708
vt 0.930591 0.719472
vt 0.930591 0.360327
vt 0.953071 0.723853
vt 0.859942 0.359539
vt 0.814136 0.000394
vt 0.859942 0.000394
vt 0.814136 0.359539
vt 0.814136 0.000394
vt 0.859942 0.359539
vt 0.672516 0.880753
vt 0.695419 0.834946
vt 0.695419 0.880753
vt 0.672516 0.834946
vt 0.695419 0.834946
vt 0.672516 0.880753
vt 0.672516 0.834946
vt 0.649612 0.880753
vt 0.649612 0.834946
vt 0.672516 0.880753
vt 0.649612 0.880753
vt 0.672516 0.834946
vt 0.672516 0.880753
vt 0.690809 0.903188
vt 0.667906 0.903188
vt 0.695419 0.880753
vt 0.690809 0.903188
vt 0.672516 0.880753
vt 0.695419 0.834946
vt 0.667906 0.812511
vt 0.690809 0.812511
vt 0.672516 0.834946
vt 0.667906 0.812511
vt 0.695419 0.834946
vt 0.813348 0.788969
vt 0.790445 0.743163
vt 0.790445 0.788969
vt 0.813348 0.743163
vt 0.790445 0.743163
vt 0.813348 0.788969
vt 0.884056 0.364708
vt 0.906536 0.719472
vt 0.906536 0.360327
vt 0.884056 0.723854
vt 0.906536 0.719472
vt 0.884056 0.364708
vt 0.836251 0.811872
vt 0.813348 0.788969
vt 0.813348 0.811872
vt 0.813348 0.788969
vt 0.859154 0.743163
vt 0.813348 0.743163
vt 0.859154 0.788969
vt 0.859154 0.743163
vt 0.813348 0.788969
vt 0.859154 0.743163
vt 0.836251 0.720260
vt 0.813348 0.743163
vt 0.836251 0.811872
vt 0.859154 0.857679
vt 0.859154 0.811872
vt 0.836251 0.857679
vt 0.859154 0.857679
vt 0.836251 0.811872
vt 0.767542 0.858466
vt 0.813348 0.881370
vt 0.767542 0.881370
vt 0.813348 0.858466
vt 0.813348 0.881370
vt 0.767542 0.858466
vt 0.814136 0.360327
vt 0.859942 0.719472
vt 0.859942 0.360327
vt 0.814136 0.719472
vt 0.859942 0.719472
vt 0.814136 0.360327
vt 0.860788 0.360327
vt 0.883268 0.723854
vt 0.883268 0.364708
vt 0.860788 0.719472
vt 0.883268 0.723854
vt 0.860788 0.360327
vt 0.766754 0.359539
vt 0.720948 0.000394
vt 0.720948 0.359539
vt 0.766754 0.000394
vt 0.720948 0.000394
vt 0.766754 0.359539
vt 0.527955 0.833786
vt 0.550858 0.787980
vt 0.527955 0.787980
vt 0.550858 0.833786
vt 0.550858 0.787980
vt 0.527955 0.833786
vt 0.527955 0.787980
vt 0.505051 0.833786
vt 0.527955 0.833786
vt 0.505051 0.787980
vt 0.505051 0.833786
vt 0.527955 0.787980
vt 0.527955 0.833786
vt 0.546248 0.856221
vt 0.550858 0.833786
vt 0.523344 0.856221
vt 0.546248 0.856221
vt 0.527955 0.833786
vt 0.550858 0.787980
vt 0.523345 0.765545
vt 0.527955 0.787980
vt 0.546248 0.765545
vt 0.523345 0.765545
vt 0.550858 0.787980
vt 0.505051 0.312701
vt 0.548597 0.617522
vt 0.505051 0.617522
vt 0.548596 0.312701
vt 0.548597 0.617522
vt 0.505051 0.312701
vt 0.627497 0.619839
vt 0.648825 0.319401
vt 0.648825 0.624222
vt 0.627497 0.323784
vt 0.648825 0.319401
vt 0.627497 0.619839
vt 0.585879 0.331706
vt 0.581760 0.602907
vt 0.580062 0.330694
vt 0.582684 0.602262
vt 0.581760 0.602907
vt 0.585879 0.331706
vt 0.548597 0.617522
vt 0.569925 0.317084
vt 0.569924 0.613139
vt 0.548596 0.312701
vt 0.569925 0.317084
vt 0.548597 0.617522
vt 0.627497 0.619839
vt 0.581760 0.602907
vt 0.617359 0.606229
vt 0.569924 0.613139
vt 0.581760 0.602907
vt 0.627497 0.619839
vt 0.569925 0.317084
vt 0.615662 0.334016
vt 0.580062 0.330694
vt 0.627497 0.323784
vt 0.615662 0.334016
vt 0.569925 0.317084
vt 0.627497 0.323784
vt 0.617359 0.606229
vt 0.615662 0.334016
vt 0.627497 0.619839
vt 0.617359 0.606229
vt 0.627497 0.323784
vt 0.569924 0.613139
vt 0.580062 0.330694
vt 0.581760 0.602907
vt 0.569925 0.317084
vt 0.580062 0.330694
vt 0.569924 0.613139
vt 0.696491 0.312892
vt 0.720161 0.024064
vt 0.720161 0.312892
vt 0.696491 0.024064
vt 0.720161 0.024064
vt 0.696491 0.312892
vt 0.614737 0.334661
vt 0.580062 0.330694
vt 0.615662 0.334016
vt 0.585879 0.331706
vt 0.580062 0.330694
vt 0.614737 0.334661
vt 0.611542 0.605217
vt 0.615662 0.334016
vt 0.617359 0.606229
vt 0.614737 0.334661
vt 0.615662 0.334016
vt 0.611542 0.605217
vt 0.582684 0.602262
vt 0.617359 0.606229
vt 0.581760 0.602907
vt 0.611542 0.605217
vt 0.617359 0.606229
vt 0.582684 0.602262
vt 0.673282 0.312892
vt 0.696491 0.024064
vt 0.696491 0.312892
vt 0.673282 0.024064
vt 0.696491 0.024064
vt 0.673282 0.312892
vt 0.673282 0.312892
vt 0.696491 0.336562
vt 0.673282 0.336562
vt 0.696491 0.312892
vt 0.696491 0.336562
vt 0.673282 0.312892
vt 0.673282 0.024064
vt 0.649612 0.312892
vt 0.649612 0.024064
vt 0.673282 0.312892
vt 0.649612 0.312892
vt 0.673282 0.024064
vt 0.696491 0.024064
vt 0.673282 0.000394
vt 0.696491 0.000394
vt 0.673282 0.024064
vt 0.673282 0.000394
vt 0.696491 0.024064
vt 0.695419 0.743014
vt 0.718322 0.788821
vt 0.718322 0.743014
vt 0.695419 0.788821
vt 0.718322 0.788821
vt 0.695419 0.743014
vt 0.953858 0.364708
vt 0.976339 0.719472
vt 0.976339 0.360327
vt 0.953858 0.723854
vt 0.976339 0.719472
vt 0.953858 0.364708
vt 0.672515 0.720111
vt 0.695419 0.743014
vt 0.695419 0.720111
vt 0.695419 0.743014
vt 0.649612 0.788821
vt 0.649612 0.743014
vt 0.695419 0.788821
vt 0.649612 0.788821
vt 0.695419 0.743014
vt 0.649612 0.788821
vt 0.672515 0.811724
vt 0.695419 0.788821
vt 0.672515 0.720111
vt 0.649612 0.674305
vt 0.649612 0.720111
vt 0.672515 0.674305
vt 0.649612 0.674305
vt 0.672515 0.720111
vt 0.766754 0.881370
vt 0.720948 0.858466
vt 0.766754 0.858466
vt 0.720948 0.881370
vt 0.720948 0.858466
vt 0.766754 0.881370
vt 0.767542 0.360327
vt 0.813348 0.719472
vt 0.813348 0.360327
vt 0.767542 0.719472
vt 0.813348 0.719472
vt 0.767542 0.360327
vt 0.646869 0.988536
vt 0.624389 0.625009
vt 0.624389 0.984154
vt 0.646869 0.629391
vt 0.624389 0.625009
vt 0.646869 0.988536
vt 0.813348 0.359539
vt 0.767542 0.000394
vt 0.767542 0.359539
vt 0.813348 0.000394
vt 0.767542 0.000394
vt 0.813348 0.359539
vt 0.574549 0.787980
vt 0.551645 0.833786
vt 0.574549 0.833786
vt 0.551645 0.787980
vt 0.551645 0.833786
vt 0.574549 0.787980
vt 0.574549 0.833786
vt 0.597452 0.787980
vt 0.574549 0.787980
vt 0.597452 0.833786
vt 0.597452 0.787980
vt 0.574549 0.833786
vt 0.574549 0.787980
vt 0.556256 0.765545
vt 0.551645 0.787980
vt 0.579159 0.765545
vt 0.556256 0.765545
vt 0.574549 0.787980
vt 0.551645 0.833786
vt 0.579159 0.856221
vt 0.574549 0.833786
vt 0.556256 0.856221
vt 0.579159 0.856221
vt 0.551645 0.833786
vt 0.743851 0.788969
vt 0.720948 0.743163
vt 0.743851 0.743163
vt 0.720948 0.788969
vt 0.720948 0.743163
vt 0.743851 0.788969
vt 0.907323 0.364708
vt 0.929803 0.719472
vt 0.907323 0.723854
vt 0.929803 0.360327
vt 0.929803 0.719472
vt 0.907323 0.364708
vt 0.743851 0.788969
vt 0.766754 0.811872
vt 0.743851 0.811872
vt 0.743851 0.788969
vt 0.789658 0.743163
vt 0.789658 0.788969
vt 0.743851 0.743163
vt 0.789658 0.743163
vt 0.743851 0.788969
vt 0.766754 0.720260
vt 0.743851 0.743163
vt 0.743851 0.720260
vt 0.766754 0.811872
vt 0.789657 0.857679
vt 0.766754 0.857679
vt 0.789658 0.811872
vt 0.789657 0.857679
vt 0.766754 0.811872
vt 0.719111 0.812511
vt 0.696207 0.858317
vt 0.696207 0.812511
vt 0.719111 0.858317
vt 0.696207 0.858317
vt 0.719111 0.812511
vt 0.907323 0.000394
vt 0.953130 0.359539
vt 0.907323 0.359539
vt 0.953130 0.000394
vt 0.953130 0.359539
vt 0.907323 0.000394
vt 0.977126 0.360327
vt 0.999606 0.723853
vt 0.977126 0.719472
vt 0.999606 0.364708
vt 0.999606 0.723853
vt 0.977126 0.360327
vt 0.860729 0.000394
vt 0.906536 0.359539
vt 0.860730 0.359539
vt 0.906536 0.000394
vt 0.906536 0.359539
vt 0.860729 0.000394
vt 0.527486 0.879913
vt 0.573292 0.902816
vt 0.527486 0.902816
vt 0.573292 0.879913
vt 0.573292 0.902816
vt 0.527486 0.879913
vt 0.573292 0.879913
vt 0.527486 0.857009
vt 0.573292 0.857009
vt 0.527486 0.879913
vt 0.527486 0.857009
vt 0.573292 0.879913
vt 0.527486 0.879913
vt 0.505051 0.898206
vt 0.505051 0.875302
vt 0.527486 0.902816
vt 0.505051 0.898206
vt 0.527486 0.879913
vt 0.573292 0.902816
vt 0.595728 0.875302
vt 0.595728 0.898206
vt 0.573292 0.879913
vt 0.595728 0.875302
vt 0.573292 0.902816
vt 0.505051 0.000394
vt 0.548597 0.305215
vt 0.548596 0.000394
vt 0.505051 0.305215
vt 0.548597 0.305215
vt 0.505051 0.000394
vt 0.627497 0.307531
vt 0.648825 0.007093
vt 0.627497 0.011476
vt 0.648825 0.311914
vt 0.648825 0.007093
vt 0.627497 0.307531
vt 0.585879 0.019398
vt 0.581760 0.290599
vt 0.580062 0.018387
vt 0.582685 0.289954
vt 0.581760 0.290599
vt 0.585879 0.019398
vt 0.548597 0.305215
vt 0.569925 0.004776
vt 0.548596 0.000394
vt 0.569925 0.300832
vt 0.569925 0.004776
vt 0.548597 0.305215
vt 0.627497 0.307531
vt 0.581760 0.290599
vt 0.569925 0.300832
vt 0.617359 0.293921
vt 0.581760 0.290599
vt 0.627497 0.307531
vt 0.569925 0.004776
vt 0.615662 0.021708
vt 0.627497 0.011476
vt 0.580062 0.018387
vt 0.615662 0.021708
vt 0.569925 0.004776
vt 0.627497 0.011476
vt 0.617359 0.293921
vt 0.627497 0.307531
vt 0.615662 0.021708
vt 0.617359 0.293921
vt 0.627497 0.011476
vt 0.569925 0.300832
vt 0.580062 0.018387
vt 0.569925 0.004776
vt 0.581760 0.290599
vt 0.580062 0.018387
vt 0.569925 0.300832
vt 0.696491 0.649848
vt 0.720161 0.361019
vt 0.696491 0.361019
vt 0.720161 0.649848
vt 0.720161 0.361019
vt 0.696491 0.649848
vt 0.614737 0.022353
vt 0.580062 0.018387
vt 0.615662 0.021708
vt 0.585879 0.019398
vt 0.580062 0.018387
vt 0.614737 0.022353
vt 0.611542 0.292909
vt 0.615662 0.021708
vt 0.617359 0.293921
vt 0.614737 0.022353
vt 0.615662 0.021708
vt 0.611542 0.292909
vt 0.582685 0.289954
vt 0.617359 0.293921
vt 0.581760 0.290599
vt 0.611542 0.292909
vt 0.617359 0.293921
vt 0.582685 0.289954
vt 0.673282 0.649848
vt 0.696491 0.361019
vt 0.673282 0.361019
vt 0.696491 0.649848
vt 0.696491 0.361019
vt 0.673282 0.649848
vt 0.673282 0.649848
vt 0.696491 0.673517
vt 0.696491 0.649848
vt 0.673282 0.673517
vt 0.696491 0.673517
vt 0.673282 0.649848
vt 0.673282 0.361019
vt 0.649612 0.649848
vt 0.673282 0.649848
vt 0.649612 0.361019
vt 0.649612 0.649848
vt 0.673282 0.361019
vt 0.696491 0.361019
vt 0.673282 0.337349
vt 0.673282 0.361019
vt 0.696491 0.337349
vt 0.673282 0.337349
vt 0.696491 0.361019
vt 0.530460 0.713940
vt 0.524107 0.682179
vt 0.562221 0.707588
vt 0.530460 0.713940
vt 0.562221 0.707588
vt 0.549516 0.726644
vt 0.587629 0.669474
vt 0.581277 0.637713
vt 0.600334 0.650418
vt 0.581277 0.637713
vt 0.587629 0.669474
vt 0.549516 0.644066
vt 0.836251 0.811872
vt 0.859154 0.811872
vt 0.859154 0.788969
vt 0.836251 0.811872
vt 0.859154 0.788969
vt 0.813348 0.788969
vt 0.836251 0.720260
vt 0.859154 0.743163
vt 0.859154 0.720260
vt 0.813348 0.743163
vt 0.836251 0.720260
vt 0.813348 0.720260
vt 0.672515 0.720111
vt 0.649612 0.720111
vt 0.649612 0.743014
vt 0.672515 0.720111
vt 0.649612 0.743014
vt 0.695419 0.743014
vt 0.672515 0.811724
vt 0.649612 0.788821
vt 0.649612 0.811724
vt 0.695419 0.788821
vt 0.672515 0.811724
vt 0.695418 0.811724
vt 0.766754 0.811872
vt 0.743851 0.788969
vt 0.789658 0.788969
vt 0.766754 0.811872
vt 0.789658 0.788969
vt 0.789658 0.811872
vt 0.789658 0.743163
vt 0.766754 0.720260
vt 0.789658 0.720260
vt 0.766754 0.720260
vt 0.789658 0.743163
vt 0.743851 0.743163

vn -0.000000 1.000000 0.000000
vn -0.000000 1.000000 0.000000
vn -0.000000 1.000000 0.000000
vn -0.000000 1.000000 0.000000
vn -0.000000 1.000000 0.000000
vn -0.000000 1.000000 0.000000
vn -1.000000 0.000000 0.000000
vn -1.000000 0.000000 0.000000
vn -1.000000 0.000000 0.000000
vn -1.000000 0.000000 0.000000
vn -1.000000 0.000000 0.000000
vn -1.000000 0.000000 0.000000
vn -0.000000 0.000000 -1.000000
vn -0.000000 0.000000 -1.000000
vn -0.000000 0.000000 -1.000000
vn -0.000000 0.000000 -1.000000
vn -0.000000 0.000000 -1.000000
vn -0.000000 0.000000 -1.000000
vn -0.000000 -1.000000 0.000000
vn -0.000000 -1.000000 0.000000
vn -0.000000 -1.000000 0.000000
vn -0.000000 -1.000000 0.000000
vn -0.000000 -1.000000 0.000000
vn -0.000000 -1.000000 0.000000
vn 0.000000 0.000000 1.000000
vn 0.000000 0.000000 1.000000
vn 0.000000 0.000000 1.000000
vn 0.000000 0.000000 1.000000
vn 0.000000 0.000000 1.000000
vn 0.000000 0.000000 1.000000
vn 1.000000 0.000000 -0.000000
vn 1.000000 0.000000 -0.000000
vn 1.000000 0.000000 -0.000000
vn 1.000000 0.000000 -0.000000
vn 1.000000 0.000000 -0.000000
vn 1.000000 0.000000 -0.000000
vn -0.000000 1.000000 0.000000
vn -0.000000 1.000000 0.000000
vn -0.000000 1.000000 0.000000
vn -0.000000 1.000000 0.000000
vn -0.000000 1.000000 0.000000
vn -0.000000 1.000000 0.000000
vn -1.000000 0.000000 0.000000
vn -1.000000 0.000000 0.000000
vn -1.000000 0.000000 0.000000
vn -1.000000 0.000000 0.000000
vn -1.000000 0.000000 0.000000
vn -1.000000 0.000000 0.000000
vn -0.000000 0.000000 -1.000000
vn -0.000000 0.000000 -1.000000
vn -0.000000 0.000000 -1.000000
vn -0.000000 0.000000 -1.000000
vn -0.000000 0.000000 -1.000000
vn -0.000000 0.000000 -1.000000
vn -0.000000 -1.000000 0.000000
vn -0.000000 -1.000000 0.000000
vn -0.000000 -1.000000 0.000000
vn -0.000000 -1.000000 0.000000
vn -0.000000 -1.000000 0.000000
vn -0.000000 -1.000000 0.000000
vn 0.000000 0.000000 1.000000
vn 0.000000 0.000000 1.000000
vn 0.000000 0.000000 1.000000
vn 0.000000 0.000000 1.000000
vn 0.000000 0.000000 1.000000
vn 0.000000 0.000000 1.000000
vn 1.000000 0.000000 -0.000000
vn 1.000000 0.000000 -0.000000
vn 1.000000 0.000000 -0.000000
vn 1.000000 0.000000 -0.000000
vn 1.000000 0.000000 -0.000000
vn 1.000000 0.000000 -0.000000
vn -0.000000 0.000000 -1.000000
vn -0.000000 0.000000 -1.000000
vn -0.000000 0.000000 -1.000000
vn -0.000000 0.000000 -1.000000
vn -0.000000 0.000000 -1.000000
vn -0.000000 0.000000 -1.000000
vn -0.000000 0.000000 1.000000
vn -0.000000 0.000000 1.000000
vn -0.000000 0.000000 1.000000
vn -0.000000 0.000000 1.000000
vn -0.000000 0.000000 1.000000
vn -0.000000 0.000000 1.000000
vn 1.000000 0.000000 0.000000
vn 1.000000 0.000000 0.000000
vn 1.000000 0.000000 0.000000
vn 1.000000 0.000000 0.000000
vn 1.000000 0.000000 0.000000
vn 1.000000 0.000000 0.000000
vn -1.000000 0.000000 0.000000
vn -1.000000 0.000000 0.000000
vn -1.000000 0.000000 0.000000
vn -0.000000 1.000000 0.000000
vn -0.000000 1.000000 0.000000
vn -0.000000 1.000000 0.000000
vn -0.000000 1.000000 0.000000
vn -0.000000 1.000000 0.000000
vn -0.000000 1.000000 0.000000
vn 1.000000 0.000000 0.000000
vn 1.000000 0.000000 0.000000
vn 1.000000 0.000000 0.000000
vn -0.000000 -1.000000 0.000000
vn -0.000000 -1.000000 0.000000
vn -0.000000 -1.000000 0.000000
vn -0.000000 -1.000000 0.000000
vn -0.000000 -1.000000 0.000000
vn -0.000000 -1.000000 0.000000
vn -0.000000 0.201289 -0.979532
vn -0.000000 0.201289 -0.979532
vn -0.000000 0.201289 -0.979532
vn -0.000000 0.201289 -0.979532
vn -0.000000 0.201289 -0.979532
vn -0.000000 0.201289 -0.979532
vn -0.000000 -0.191310 0.981530
vn -0.000000 -0.191310 0.981530
vn -0.000000 -0.191310 0.981530
vn -0.000000 -0.191310 0.981530
vn -0.000000 -0.191310 0.981530
vn -0.000000 -0.191310 0.981530
vn -1.000000 0.000000 0.000000
vn -1.000000 0.000000 0.000000
vn -1.000000 0.000000 0.000000
vn -1.000000 0.000000 0.000000
vn -1.000000 0.000000 0.000000
vn -1.000000 0.000000 0.000000
vn -0.000000 0.191310 -0.981530
vn -0.000000 0.191310 -0.981530
vn -0.000000 0.191310 -0.981530
vn -0.000000 0.191310 -0.981530
vn -0.000000 0.191310 -0.981530
vn -0.000000 0.191310 -0.981530
vn -0.000000 -1.000000 0.000001
vn -0.000000 -1.000000 0.000001
vn -0.000000 -1.000000 0.000001
vn -0.000000 -1.000000 0.000001
vn -0.000000 -1.000000 0.000001
vn -0.000000 -1.000000 0.000001
vn -0.000000 -0.201289 0.979532
vn -0.000000 -0.201289 0.979532
vn -0.000000 -0.201289 0.979532
vn -0.000000 -0.201289 0.979532
vn -0.000000 -0.201289 0.979532
vn -0.000000 -0.201289 0.979532
vn 1.000000 0.000000 0.000000
vn 1.000000 0.000000 0.000000
vn 1.000000 0.000000 0.000000
vn 1.000000 0.000000 -0.000002
vn 1.000000 0.000000 -0.000002
vn 1.000000 0.000000 -0.000002
vn -1.000000 0.000000 0.000000
vn -1.000000 0.000000 0.000000
vn -1.000000 0.000000 0.000000
vn -1.000000 0.000000 0.000000
vn -1.000000 0.000000 0.000000
vn -1.000000 0.000000 0.000000
vn -0.000000 0.000000 -1.000000
vn -0.000000 0.000000 -1.000000
vn -0.000000 0.000000 -1.000000
vn -0.000000 0.000000 -1.000000
vn -0.000000 0.000000 -1.000000
vn -0.000000 0.000000 -1.000000
vn 1.000000 0.000000 0.000000
vn 1.000000 0.000000 0.000000
vn 1.000000 0.000000 0.000000
vn 1.000000 0.000000 0.000000
vn 1.000000 0.000000 0.000000
vn 1.000000 0.000000 0.000000
vn -1.000000 0.000000 0.000000
vn -1.000000 0.000000 0.000000
vn -1.000000 0.000000 0.000000
vn -0.000000 1.000000 0.000000
vn -0.000000 1.000000 0.000000
vn -0.000000 1.000000 0.000000
vn -0.000000 1.000000 0.000000
vn -0.000000 1.000000 0.000000
vn -0.000000 1.000000 0.000000
vn 1.000000 0.000000 0.000000
vn 1.000000 0.000000 0.000000
vn 1.000000 0.000000 0.000000
vn -0.000000 -1.000000 0.000000
vn -0.000000 -1.000000 0.000000
vn -0.000000 -1.000000 0.000000
vn -0.000000 -1.000000 0.000000
vn -0.000000 -1.000000 0.000000
vn -0.000000 -1.000000 0.000000
vn -0.000000 -0.201289 -0.979532
vn -0.000000 -0.201289 -0.979532
vn -0.000000 -0.201289 -0.979532
vn -0.000000 -0.201289 -0.979532
vn -0.000000 -0.201289 -0.979532
vn -0.000000 -0.201289 -0.979532
vn -0.000000 -0.191310 -0.981530
vn -0.000000 -0.191310 -0.981530
vn -0.000000 -0.191310 -0.981530
vn -0.000000 -0.191310 -0.981530
vn -0.000000 -0.191310 -0.981530
vn -0.000000 -0.191310 -0.981530
vn -1.000000 0.000000 0.000000
vn -1.000000 0.000000 0.000000
vn -1.000000 0.000000 0.000000
vn -1.000000 0.000000 0.000000
vn -1.000000 0.000000 0.000000
vn -1.000000 0.000000 0.000000
vn -0.000000 0.191310 0.981530
vn -0.000000 0.191310 0.981530
vn -0.000000 0.191310 0.981530
vn -0.000000 0.191310 0.981530
vn -0.000000 0.191310 0.981530
vn -0.000000 0.191310 0.981530
vn -0.000000 -1.000000 0.000000
vn -0.000000 -1.000000 0.000000
vn -0.000000 -1.000000 0.000000
vn -0.000000 -1.000000 0.000000
vn -0.000000 -1.000000 0.000000
vn -0.000000 -1.000000 0.000000
vn -0.000000 -0.201290 -0.979532
vn -0.000000 -0.201290 -0.979532
vn -0.000000 -0.201290 -0.979532
vn -0.000000 -0.201289 -0.979532
vn -0.000000 -0.201289 -0.979532
vn -0.000000 -0.201289 -0.979532
vn 1.000000 0.000000 0.000000
vn 1.000000 0.000000 0.000000
vn 1.000000 0.000000 0.000000
vn 1.000000 0.000000 0.000000
vn 1.000000 0.000000 0.000000
vn 1.000000 0.000000 0.000000
vn -1.000000 0.000000 0.000000
vn -1.000000 0.000000 0.000000
vn -1.000000 0.000000 0.000000
vn -1.000000 0.000000 0.000000
vn -1.000000 0.000000 0.000000
vn -1.000000 0.000000 0.000000
vn -0.000000 1.000000 0.000000
vn -0.000000 1.000000 0.000000
vn -0.000000 1.000000 0.000000
vn -0.000000 1.000000 0.000000
vn -0.000000 1.000000 0.000000
vn -0.000000 1.000000 0.000000
vn 1.000000 0.000000 -0.000000
vn 1.000000 0.000000 -0.000000
vn 1.000000 0.000000 -0.000000
vn 1.000000 -0.000000 -0.000000
vn 1.000000 -0.000000 -0.000000
vn 1.000000 -0.000000 -0.000000
vn -0.000000 1.000000 0.000000
vn -0.000000 1.000000 0.000000
vn -0.000000 1.000000 0.000000
vn -0.000000 1.000000 0.000000
vn -0.000000 1.000000 0.000000
vn -0.000000 1.000000 0.000000
vn -1.000000 -0.000000 0.000000
vn -1.000000 -0.000000 0.000000
vn -1.000000 -0.000000 0.000000
vn -1.000000 0.000000 0.000000
vn -1.000000 0.000000 0.000000
vn -1.000000 0.000000 0.000000
vn -0.000000 -1.000000 0.000000
vn -0.000000 -1.000000 0.000000
vn -0.000000 -1.000000 0.000000
vn -0.000000 -1.000000 0.000000
vn -0.000000 -1.000000 0.000000
vn -0.000000 -1.000000 0.000000
vn -0.000000 -1.000000 0.000000
vn -0.000000 -1.000000 0.000000
vn -0.000000 -1.000000 0.000000
vn -0.000000 -1.000000 0.000000
vn -0.000000 -1.000000 0.000000
vn -0.000000 -1.000000 0.000000
vn 0.000004 -1.000000 -0.000000
vn 0.000004 -1.000000 -0.000000
vn 0.000004 -1.000000 -0.000000
vn -0.000000 -1.000000 -0.000000
vn -0.000000 -1.000000 -0.000000
vn -0.000000 -1.000000 -0.000000
vn -0.000004 -1.000000 -0.000000
vn -0.000004 -1.000000 -0.000000
vn -0.000004 -1.000000 -0.000000
vn -0.000000 -1.000000 -0.000000
vn -0.000000 -1.000000 -0.000000
vn -0.000000 -1.000000 -0.000000
vn 1.000000 0.000000 -0.000000
vn 1.000000 0.000000 -0.000000
vn 1.000000 0.000000 -0.000000
vn 1.000000 0.000000 -0.000000
vn 1.000000 0.000000 -0.000000
vn 1.000000 0.000000 -0.000000
vn -0.000000 1.000000 0.000000
vn -0.000000 1.000000 0.000000
vn -0.000000 1.000000 0.000000
vn -0.000000 1.000000 0.000000
vn -0.000000 1.000000 0.000000
vn -0.000000 1.000000 0.000000
vn -0.000000 1.000000 0.000000
vn -0.000000 1.000000 0.000000
vn -0.000000 1.000000 0.000000
vn -0.000000 1.000000 0.000000
vn -0.000000 1.000000 0.000000
vn -0.000000 1.000000 0.000000
vn -0.000000 1.000000 0.000000
vn -0.000000 1.000000 0.000000
vn -0.000000 1.000000 0.000000
vn -0.000000 1.000000 0.000000
vn -0.000000 1.000000 0.000000
vn -0.000000 1.000000 0.000000
vn -0.000000 -1.000000 -0.000000
vn -0.000000 -1.000000 -0.000000
vn -0.000000 -1.000000 -0.000000
vn -0.000000 -1.000000 -0.000000
vn -0.000000 -1.000000 -0.000000
vn -0.000000 -1.000000 -0.000000
vn -0.000000 0.000000 1.000000
vn -0.000000 0.000000 1.000000
vn -0.000000 0.000000 1.000000
vn -0.000000 0.000000 1.000000
vn -0.000000 0.000000 1.000000
vn -0.000000 0.000000 1.000000
vn -1.000000 0.000000 0.000000
vn -1.000000 0.000000 0.000000
vn -1.000000 0.000000 0.000000
vn -1.000000 0.000000 0.000000
vn -1.000000 0.000000 0.000000
vn -1.000000 0.000000 0.000000
vn -0.000000 0.000000 -1.000000
vn -0.000000 0.000000 -1.000000
vn -0.000000 0.000000 -1.000000
vn -0.000000 0.000000 -1.000000
vn -0.000000 0.000000 -1.000000
vn -0.000000 0.000000 -1.000000
vn -0.000000 0.000000 1.000000
vn -0.000000 0.000000 1.000000
vn -0.000000 0.000000 1.000000
vn -0.000000 0.000000 1.000000
vn -0.000000 0.000000 1.000000
vn -0.000000 0.000000 1.000000
vn -1.000000 0.000000 0.000000
vn -1.000000 0.000000 0.000000
vn -1.000000 0.000000 0.000000
vn -1.000000 0.000000 0.000000
vn -1.000000 0.000000 0.000000
vn -1.000000 0.000000 0.000000
vn 1.000000 0.000000 0.000000
vn 1.000000 0.000000 0.000000
vn 1.000000 0.000000 0.000000
vn -0.000000 -1.000000 0.000000
vn -0.000000 -1.000000 0.000000
vn -0.000000 -1.000000 0.000000
vn -0.000000 -1.000000 0.000000
vn -0.000000 -1.000000 0.000000
vn -0.000000 -1.000000 0.000000
vn -1.000000 0.000000 0.000000
vn -1.000000 0.000000 0.000000
vn -1.000000 0.000000 0.000000
vn -0.000000 -1.000000 0.000000
vn -0.000000 -1.000000 0.000000
vn -0.000000 -1.000000 0.000000
vn -0.000000 -1.000000 0.000000
vn -0.000000 -1.000000 0.000000
vn -0.000000 -1.000000 0.000000
vn -0.000000 -0.201288 0.979532
vn -0.000000 -0.201288 0.979532
vn -0.000000 -0.201288 0.979532
vn -0.000000 -0.201288 0.979532
vn -0.000000 -0.201288 0.979532
vn -0.000000 -0.201288 0.979532
vn -0.000000 -0.191310 0.981530
vn -0.000000 -0.191310 0.981530
vn -0.000000 -0.191310 0.981530
vn -0.000000 -0.191310 0.981530
vn -0.000000 -0.191310 0.981530
vn -0.000000 -0.191310 0.981530
vn 1.000000 0.000000 0.000000
vn 1.000000 0.000000 0.000000
vn 1.000000 0.000000 0.000000
vn 1.000000 0.000000 0.000000
vn 1.000000 0.000000 0.000000
vn 1.000000 0.000000 0.000000
vn -0.000000 0.191310 -0.981530
vn -0.000000 0.191310 -0.981530
vn -0.000000 0.191310 -0.981530
vn -0.000000 0.191310 -0.981530
vn -0.000000 0.191310 -0.981530
vn -0.000000 0.191310 -0.981530
vn -0.000000 -1.000000 0.000001
vn -0.000000 -1.000000 0.000001
vn -0.000000 -1.000000 0.000001
vn -0.000000 -1.000000 0.000001
vn -0.000000 -1.000000 0.000001
vn -0.000000 -1.000000 0.000001
vn -0.000000 -0.201290 0.979532
vn -0.000000 -0.201290 0.979532
vn -0.000000 -0.201290 0.979532
vn -0.000000 -0.201289 0.979532
vn -0.000000 -0.201289 0.979532
vn -0.000000 -0.201289 0.979532
vn -1.000000 0.000000 0.000000
vn -1.000000 0.000000 0.000000
vn -1.000000 0.000000 0.000000
vn -1.000000 0.000000 0.000000
vn -1.000000 0.000000 0.000000
vn -1.000000 0.000000 0.000000
vn 1.000000 0.000000 0.000000
vn 1.000000 0.000000 0.000000
vn 1.000000 0.000000 0.000000
vn 1.000000 0.000000 0.000000
vn 1.000000 0.000000 0.000000
vn 1.000000 0.000000 0.000000
vn -0.000000 0.000000 -1.000000
vn -0.000000 0.000000 -1.000000
vn -0.000000 0.000000 -1.000000
vn -0.000000 0.000000 -1.000000
vn -0.000000 0.000000 -1.000000
vn -0.000000 0.000000 -1.000000
vn -1.000000 0.000000 0.000000
vn -1.000000 0.000000 0.000000
vn -1.000000 0.000000 0.000000
vn -1.000000 0.000000 0.000000
vn -1.000000 0.000000 0.000000
vn -1.000000 0.000000 0.000000
vn 1.000000 0.000000 0.000000
vn 1.000000 0.000000 0.000000
vn 1.000000 0.000000 0.000000
vn -0.000000 1.000000 0.000000
vn -0.000000 1.000000 0.000000
vn -0.000000 1.000000 0.000000
vn -0.000000 1.000000 0.000000
vn -0.000000 1.000000 0.000000
vn -0.000000 1.000000 0.000000
vn -1.000000 0.000000 0.000000
vn -1.000000 0.000000 0.000000
vn -1.000000 0.000000 0.000000
vn -0.000000 -1.000000 0.000000
vn -0.000000 -1.000000 0.000000
vn -0.000000 -1.000000 0.000000
vn -0.000000 -1.000000 0.000000
vn -0.000000 -1.000000 0.000000
vn -0.000000 -1.000000 0.000000
vn -0.000000 0.201289 0.979532
vn -0.000000 0.201289 0.979532
vn -0.000000 0.201289 0.979532
vn -0.000000 0.201289 0.979532
vn -0.000000 0.201289 0.979532
vn -0.000000 0.201289 0.979532
vn -0.000000 -0.191310 -0.981530
vn -0.000000 -0.191310 -0.981530
vn -0.000000 -0.191310 -0.981530
vn -0.000000 -0.191310 -0.981530
vn -0.000000 -0.191310 -0.981530
vn -0.000000 -0.191310 -0.981530
vn 1.000000 0.000000 0.000000
vn 1.000000 0.000000 0.000000
vn 1.000000 0.000000 0.000000
vn 1.000000 0.000000 0.000000
vn 1.000000 0.000000 0.000000
vn 1.000000 0.000000 0.000000
vn -0.000000 0.191310 0.981530
vn -0.000000 0.191310 0.981530
vn -0.000000 0.191310 0.981530
vn -0.000000 0.191310 0.981530
vn -0.000000 0.191310 0.981530
vn -0.000000 0.191310 0.981530
vn -0.000000 -1.000000 0.000000
vn -0.000000 -1.000000 0.000000
vn -0.000000 -1.000000 0.000000
vn -0.000000 -1.000000 0.000000
vn -0.000000 -1.000000 0.000000
vn -0.000000 -1.000000 0.000000
vn -0.000000 -0.201289 -0.979532
vn -0.000000 -0.201289 -0.979532
vn -0.000000 -0.201289 -0.979532
vn -0.000000 -0.201289 -0.979532
vn -0.000000 -0.201289 -0.979532
vn -0.000000 -0.201289 -0.979532
vn -1.000000 0.000000 0.000000
vn -1.000000 0.000000 0.000000
vn -1.000000 0.000000 0.000000
vn -1.000000 0.000000 0.000000
vn -1.000000 0.000000 0.000000
vn -1.000000 0.000000 0.000000
vn 1.000000 0.000000 0.000000
vn 1.000000 0.000000 0.000000
vn 1.000000 0.000000 0.000000
vn 1.000000 0.000000 0.000000
vn 1.000000 0.000000 0.000000
vn 1.000000 0.000000 0.000000
vn -0.000000 1.000000 0.000000
vn -0.000000 1.000000 0.000000
vn -0.000000 1.000000 0.000000
vn -0.000000 1.000000 0.000000
vn -0.000000 1.000000 0.000000
vn -0.000000 1.000000 0.000000
vn -1.000000 0.000000 0.000000
vn -1.000000 0.000000 0.000000
vn -1.000000 0.000000 0.000000
vn -1.000000 -0.000000 0.000000
vn -1.000000 -0.000000 0.000000
vn -1.000000 -0.000000 0.000000
vn -0.000000 1.000000 0.000000
vn -0.000000 1.000000 0.000000
vn -0.000000 1.000000 0.000000
vn -0.000000 1.000000 0.000000
vn -0.000000 1.000000 0.000000
vn -0.000000 1.000000 0.000000
vn 1.000000 -0.000000 -0.000000
vn 1.000000 -0.000000 -0.000000
vn 1.000000 -0.000000 -0.000000
vn 1.000000 0.000000 -0.000000
vn 1.000000 0.000000 -0.000000
vn 1.000000 0.000000 -0.000000
vn -0.000000 -1.000000 0.000000
vn -0.000000 -1.000000 0.000000
vn -0.000000 -1.000000 0.000000
vn -0.000000 -1.000000 0.000000
vn -0.000000 -1.000000 0.000000
vn -0.000000 -1.000000 0.000000
vn -0.000000 -1.000000 0.000000
vn -0.000000 -1.000000 0.000000
vn -0.000000 -1.000000 0.000000
vn -0.000000 -1.000000 0.000000
vn -0.000000 -1.000000 0.000000
vn -0.000000 -1.000000 0.000000
vn 0.000001 -1.000000 -0.000000
vn 0.000001 -1.000000 -0.000000
vn 0.000001 -1.000000 -0.000000
vn -0.000004 -1.000000 -0.000000
vn -0.000004 -1.000000 -0.000000
vn -0.000004 -1.000000 -0.000000
vn -0.000001 -1.000000 -0.000000
vn -0.000001 -1.000000 -0.000000
vn -0.000001 -1.000000 -0.000000
vn 0.000004 -1.000000 -0.000000
vn 0.000004 -1.000000 -0.000000
vn 0.000004 -1.000000 -0.000000
vn -1.000000 0.000000 0.000000
vn -1.000000 0.000000 0.000000
vn -1.000000 0.000000 0.000000
vn -1.000000 0.000000 0.000000
vn -1.000000 0.000000 0.000000
vn -1.000000 0.000000 0.000000
vn -0.000000 1.000000 0.000000
vn -0.000000 1.000000 0.000000
vn -0.000000 1.000000 0.000000
vn -0.000000 1.000000 0.000000
vn -0.000000 1.000000 0.000000
vn -0.000000 1.000000 0.000000
vn -0.000000 1.000000 0.000000
vn -0.000000 1.000000 0.000000
vn -0.000000 1.000000 0.000000
vn -0.000000 1.000000 0.000000
vn -0.000000 1.000000 0.000000
vn -0.000000 1.000000 0.000000
vn -0.000000 1.000000 0.000000
vn -0.000000 1.000000 0.000000
vn -0.000000 1.000000 0.000000
vn -0.000000 1.000000 0.000000
vn -0.000000 1.000000 0.000000
vn -0.000000 1.000000 0.000000
vn -0.000000 -1.000000 -0.000000
vn -0.000000 -1.000000 -0.000000
vn -0.000000 -1.000000 -0.000000
vn -0.000000 -1.000000 -0.000000
vn -0.000000 -1.000000 -0.000000
vn -0.000000 -1.000000 -0.000000
vn -0.000000 0.000000 1.000000
vn -0.000000 0.000000 1.000000
vn -0.000000 0.000000 1.000000
vn -0.000000 0.000000 1.000000
vn -0.000000 0.000000 1.000000
vn -0.000000 0.000000 1.000000
vn 1.000000 0.000000 0.000000
vn 1.000000 0.000000 0.000000
vn 1.000000 0.000000 0.000000
vn 1.000000 0.000000 -0.000000
vn 1.000000 0.000000 -0.000000
vn 1.000000 0.000000 -0.000000
vn -0.000000 0.000000 -1.000000
vn -0.000000 0.000000 -1.000000
vn -0.000000 0.000000 -1.000000
vn -0.000000 0.000000 -1.000000
vn -0.000000 0.000000 -1.000000
vn -0.000000 0.000000 -1.000000
vn -1.000000 0.000000 0.000000
vn -1.000000 0.000000 0.000000
vn -1.000000 0.000000 0.000000
vn -1.000000 0.000000 0.000000
vn -1.000000 0.000000 0.000000
vn -1.000000 0.000000 0.000000
vn 1.000000 0.000000 0.000000
vn 1.000000 0.000000 0.000000
vn 1.000000 0.000000 0.000000
vn 1.000000 0.000000 0.000000
vn 1.000000 0.000000 0.000000
vn 1.000000 0.000000 0.000000
vn -1.000000 0.000000 0.000000
vn -1.000000 0.000000 0.000000
vn -1.000000 0.000000 0.000000
vn -1.000000 0.000000 0.000000
vn -1.000000 0.000000 0.000000
vn -1.000000 0.000000 0.000000
vn 1.000000 0.000000 0.000000
vn 1.000000 0.000000 0.000000
vn 1.000000 0.000000 0.000000
vn 1.000000 0.000000 0.000000
vn 1.000000 0.000000 0.000000
vn 1.000000 0.000000 0.000000
vn 1.000000 0.000000 0.000000
vn 1.000000 0.000000 0.000000
vn 1.000000 0.000000 0.000000
vn 1.000000 0.000000 0.000000
vn 1.000000 0.000000 0.000000
vn 1.000000 0.000000 0.000000
vn -1.000000 0.000000 0.000000
vn -1.000000 0.000000 0.000000
vn -1.000000 0.000000 0.000000
vn -1.000000 0.000000 0.000000
vn -1.000000 0.000000 0.000000
vn -1.000000 0.000000 0.000000
vn 1.000000 0.000000 0.000000
vn 1.000000 0.000000 0.000000
vn 1.000000 0.000000 0.000000
vn 1.000000 0.000000 0.000000
vn 1.000000 0.000000 0.000000
vn 1.000000 0.000000 0.000000
vn -1.000000 0.000000 0.000000
vn -1.000000 0.000000 0.000000
vn -1.000000 0.000000 0.000000
vn -1.000000 0.000000 0.000000
vn -1.000000 0.000000 0.000000
vn -1.000000 0.000000 0.000000

g Material
f 3/1/1 1/2/2 2/3/3
f 4/4/4 1/5/5 3/6/6
f 7/7/7 5/8/8 6/9/9
f 8/10/10 5/11/11 7/12/12
f 11/13/13 9/14/14 10/15/15
f 12/16/16 9/17/17 11/18/18
f 15/19/19 13/20/20 14/21/21
f 16/22/22 13/23/23 15/24/24
f 19/25/25 17/26/26 18/27/27
f 20/28/28 17/29/29 19/30/30
f 23/31/31 21/32/32 22/33/33
f 24/34/34 21/35/35 23/36/36

g Material.001
f 27/37/37 25/38/38 26/39/39
f 28/40/40 25/41/41 27/42/42
f 31/43/43 29/44/44 30/45/45
f 32/46/46 29/47/47 31/48/48
f 35/49/49 33/50/50 34/51/51
f 36/52/52 33/53/53 35/54/54
f 39/55/55 37/56/56 38/57/57
f 40/58/58 37/59/59 39/60/60
f 43/61/61 41/62/62 42/63/63
f 44/64/64 41/65/65 43/66/66
f 47/67/67 45/68/68 46/69/69
f 48/70/70 45/71/71 47/72/72
f 51/73/73 49/74/74 50/75/75
f 52/76/76 49/77/77 51/78/78
f 55/79/79 53/80/80 54/81/81
f 56/82/82 53/83/83 55/84/84
f 59/85/85 57/86/86 58/87/87
f 60/88/88 57/89/89 59/90/90
f 63/91/91 61/92/92 62/93/93
f 66/94/94 64/95/95 65/96/96
f 67/97/97 64/98/98 66/99/99
f 70/100/100 68/101/101 69/102/102
f 73/103/103 71/104/104 72/105/105
f 74/106/106 71/107/107 73/108/108
f 77/109/109 75/110/110 76/111/111
f 78/112/112 75/113/113 77/114/114
f 81/115/115 79/116/116 80/117/117
f 82/118/118 79/119/119 81/120/120
f 85/121/121 83/122/122 84/123/123
f 86/124/124 83/125/125 85/126/126
f 89/127/127 87/128/128 88/129/129
f 90/130/130 87/131/131 89/132/132
f 93/133/133 91/134/134 92/135/135
f 94/136/136 91/137/137 93/138/138
f 97/139/139 95/140/140 96/141/141
f 98/142/142 95/143/143 97/144/144
f 101/145/145 99/146/146 100/147/147
f 102/148/148 99/149/149 101/150/150
f 105/151/151 103/152/152 104/153/153
f 106/154/154 103/155/155 105/156/156
f 109/157/157 107/158/158 108/159/159
f 110/160/160 107/161/161 109/162/162
f 113/163/163 111/164/164 112/165/165
f 114/166/166 111/167/167 113/168/168
f 117/169/169 115/170/170 116/171/171
f 120/172/172 118/173/173 119/174/174
f 121/175/175 118/176/176 120/177/177
f 124/178/178 122/179/179 123/180/180
f 127/181/181 125/182/182 126/183/183
f 128/184/184 125/185/185 127/186/186
f 131/187/187 129/188/188 130/189/189
f 132/190/190 129/191/191 131/192/192
f 135/193/193 133/194/194 134/195/195
f 136/196/196 133/197/197 135/198/198
f 139/199/199 137/200/200 138/201/201
f 140/202/202 137/203/203 139/204/204
f 143/205/205 141/206/206 142/207/207
f 144/208/208 141/209/209 143/210/210
f 147/211/211 145/212/212 146/213/213
f 148/214/214 145/215/215 147/216/216
f 151/217/217 149/218/218 150/219/219
f 152/220/220 149/221/221 151/222/222
f 155/223/223 153/224/224 154/225/225
f 156/226/226 153/227/227 155/228/228
f 159/229/229 157/230/230 158/231/231
f 160/232/232 157/233/233 159/234/234
f 163/235/235 161/236/236 162/237/237
f 164/238/238 161/239/239 163/240/240
f 167/241/241 165/242/242 166/243/243
f 168/244/244 165/245/245 167/246/246
f 171/247/247 169/248/248 170/249/249
f 172/250/250 169/251/251 171/252/252
f 175/253/253 173/254/254 174/255/255
f 176/256/256 173/257/257 175/258/258
f 179/259/259 177/260/260 178/261/261
f 180/262/262 177/263/263 179/264/264
f 183/265/265 181/266/266 182/267/267
f 184/268/268 181/269/269 183/270/270
f 187/271/271 185/272/272 186/273/273
f 188/274/274 185/275/275 187/276/276
f 191/277/277 189/278/278 190/279/279
f 192/280/280 189/281/281 191/282/282
f 195/283/283 193/284/284 194/285/285
f 196/286/286 193/287/287 195/288/288
f 199/289/289 197/290/290 198/291/291
f 200/292/292 197/293/293 199/294/294
f 203/295/295 201/296/296 202/297/297
f 204/298/298 201/299/299 203/300/300
f 207/301/301 205/302/302 206/303/303
f 208/304/304 205/305/305 207/306/306
f 211/307/307 209/308/308 210/309/309
f 212/310/310 209/311/311 211/312/312
f 215/313/313 213/314/314 214/315/315
f 216/316/316 213/317/317 215/318/318
f 219/319/319 217/320/320 218/321/321
f 220/322/322 217/323/323 219/324/324
f 223/325/325 221/326/326 222/327/327
f 224/328/328 221/329/329 223/330/330
f 227/331/331 225/332/332 226/333/333
f 228/334/334 225/335/335 227/336/336
f 231/337/337 229/338/338 230/339/339
f 232/340/340 229/341/341 231/342/342
f 235/343/343 233/344/344 234/345/345
f 238/346/346 236/347/347 237/348/348
f 239/349/349 236/350/350 238/351/351
f 242/352/352 240/353/353 241/354/354
f 245/355/355 243/356/356 244/357/357
f 246/358/358 243/359/359 245/360/360
f 249/361/361 247/362/362 248/363/363
f 250/364/364 247/365/365 249/366/366
f 253/367/367 251/368/368 252/369/369
f 254/370/370 251/371/371 253/372/372
f 257/373/373 255/374/374 256/375/375
f 258/376/376 255/377/377 257/378/378
f 261/379/379 259/380/380 260/381/381
f 262/382/382 259/383/383 261/384/384
f 265/385/385 263/386/386 264/387/387
f 266/388/388 263/389/389 265/390/390
f 269/391/391 267/392/392 268/393/393
f 270/394/394 267/395/395 269/396/396
f 273/397/397 271/398/398 272/399/399
f 274/400/400 271/401/401 273/402/402
f 277/403/403 275/404/404 276/405/405
f 278/406/406 275/407/407 277/408/408
f 281/409/409 279/410/410 280/411/411
f 282/412/412 279/413/413 281/414/414
f 285/415/415 283/416/416 284/417/417
f 286/418/418 283/419/419 285/420/420
f 289/421/421 287/422/422 288/423/423
f 292/424/424 290/425/425 291/426/426
f 293/427/427 290/428/428 292/429/429
f 296/430/430 294/431/431 295/432/432
f 299/433/433 297/434/434 298/435/435
f 300/436/436 297/437/437 299/438/438
f 303/439/439 301/440/440 302/441/441
f 304/442/442 301/443/443 303/444/444
f 307/445/445 305/446/446 306/447/447
f 308/448/448 305/449/449 307/450/450
f 311/451/451 309/452/452 310/453/453
f 312/454/454 309/455/455 311/456/456
f 315/457/457 313/458/458 314/459/459
f 316/460/460 313/461/461 315/462/462
f 319/463/463 317/464/464 318/465/465
f 320/466/466 317/467/467 319/468/468
f 323/469/469 321/470/470 322/471/471
f 324/472/472 321/473/473 323/474/474
f 327/475/475 325/476/476 326/477/477
f 328/478/478 325/479/479 327/480/480
f 331/481/481 329/482/482 330/483/483
f 332/484/484 329/485/485 331/486/486
f 335/487/487 333/488/488 334/489/489
f 336/490/490 333/491/491 335/492/492
f 339/493/493 337/494/494 338/495/495
f 340/496/496 337/497/497 339/498/498
f 343/499/499 341/500/500 342/501/501
f 344/502/502 341/503/503 343/504/504
f 347/505/505 345/506/506 346/507/507
f 348/508/508 345/509/509 347/510/510
f 351/511/511 349/512/512 350/513/513
f 352/514/514 349/515/515 351/516/516
f 355/517/517 353/518/518 354/519/519
f 356/520/520 353/521/521 355/522/522
f 359/523/523 357/524/524 358/525/525
f 360/526/526 357/527/527 359/528/528
f 363/529/529 361/530/530 362/531/531
f 364/532/532 361/533/533 363/534/534
f 367/535/535 365/536/536 366/537/537
f 368/538/538 365/539/539 367/540/540
f 371/541/541 369/542/542 370/543/543
f 372/544/544 369/545/545 371/546/546
f 375/547/547 373/548/548 374/549/549
f 376/550/550 373/551/551 375/552/552
f 379/553/553 377/554/554 378/555/555
f 380/556/556 377/557/557 379/558/558
f 383/559/559 381/560/560 382/561/561
f 384/562/562 381/563/563 383/564/564
f 387/565/565 385/566/566 386/567/567
f 388/568/568 385/569/569 387/570/570
f 391/571/571 389/572/572 390/573/573
f 392/574/574 389/575/575 391/576/576
f 395/577/577 393/578/578 394/579/579
f 396/580/580 393/581/581 395/582/582
f 399/583/583 397/584/584 398/585/585
f 402/586/586 400/587/587 401/588/588
f 405/589/589 403/590/590 404/591/591
f 408/592/592 406/593/593 407/594/594
f 411/595/595 409/596/596 410/597/597
f 414/598/598 412/599/599 413/600/600
f 417/601/601 415/602/602 416/603/603
f 420/604/604 418/605/605 419/606/606
f 423/607/607 421/608/608 422/609/609
f 426/610/610 424/611/611 425/612/612
f 429/613/613 427/614/614 428/615/615
f 432/616/616 430/617/617 431/618/618
f 435/619/619 433/620/620 434/621/621
f 438/622/622 436/623/623 437/624/624
f 441/625/625 439/626/626 440/627/627
f 444/628/628 442/629/629 443/630/630

