# Converted from B3D for Luanti (With Correct Normals)
# Object Name: multidecor_dresser_with_mirror

v -0.800000 0.799975 0.947818
v 0.850000 -0.900025 0.947818
v -0.800000 -0.900025 0.947818
v 0.850000 0.799975 0.947818
v 0.850000 -0.900025 0.947818
v -0.800000 0.799975 0.947818
v 1.000000 1.000000 1.000000
v -1.000000 0.900000 1.000000
v 1.000000 0.900000 1.000000
v -1.000000 1.000000 1.000000
v -1.000000 0.900000 1.000000
v 1.000000 1.000000 1.000000
v 1.000000 -1.000000 -1.000000
v -1.000000 -1.000000 -1.000000
v -0.800000 -0.900025 -1.000000
v 1.000000 0.900000 1.000000
v 1.000000 -1.000000 -1.000000
v 1.000000 0.900000 -1.000000
v 1.000000 -1.000000 1.000000
v 1.000000 -1.000000 -1.000000
v 1.000000 0.900000 1.000000
v -1.000000 -1.000000 -1.000000
v 1.000000 -1.000000 1.000000
v -1.000000 -1.000000 1.000000
v 1.000000 -1.000000 -1.000000
v 1.000000 -1.000000 1.000000
v -1.000000 -1.000000 -1.000000
v -1.200000 -0.900025 -1.000000
v -1.000000 -1.000000 -1.000000
v -3.000000 -1.000000 -1.000000
v -1.000000 0.900000 1.000000
v 1.000000 -1.000000 1.000000
v 1.000000 0.900000 1.000000
v -1.000000 -1.000000 1.000000
v 1.000000 -1.000000 1.000000
v -1.000000 0.900000 1.000000
v 1.000000 1.000000 -1.000000
v -1.000000 1.000000 1.000000
v 1.000000 1.000000 1.000000
v -1.000000 1.000000 -1.000000
v -1.000000 1.000000 1.000000
v 1.000000 1.000000 -1.000000
v 1.000000 1.000000 -1.100000
v -1.000000 1.000000 -1.000000
v 1.000000 1.000000 -1.000000
v -1.000000 1.000000 -1.100000
v -1.000000 1.000000 -1.000000
v 1.000000 1.000000 -1.100000
v 1.000000 1.000000 -1.000000
v 1.000000 0.900000 1.000000
v 1.000000 0.900000 -1.000000
v 1.000000 1.000000 1.000000
v 1.000000 0.900000 1.000000
v 1.000000 1.000000 -1.000000
v -3.000000 1.000000 1.000000
v -1.000000 0.900000 1.000000
v -1.000000 1.000000 1.000000
v -3.000000 0.900000 1.000000
v -1.000000 0.900000 1.000000
v -3.000000 1.000000 1.000000
v -1.000000 1.000000 -1.100000
v 1.000000 0.900000 -1.100000
v -1.000000 0.900000 -1.100000
v 1.000000 1.000000 -1.100000
v 1.000000 0.900000 -1.100000
v -1.000000 1.000000 -1.100000
v 1.000000 0.900000 -1.100000
v 1.000000 1.000000 -1.000000
v 1.000000 0.900000 -1.000000
v 1.000000 1.000000 -1.100000
v 1.000000 1.000000 -1.000000
v 1.000000 0.900000 -1.100000
v -1.000000 0.900000 -1.100000
v 1.000000 0.900000 -1.000000
v -1.000000 0.900000 -1.000000
v 1.000000 0.900000 -1.100000
v 1.000000 0.900000 -1.000000
v -1.000000 0.900000 -1.100000
v -1.200000 0.799975 0.947818
v -2.850000 -0.900025 0.947818
v -2.850000 0.799975 0.947818
v -1.200000 -0.900025 0.947818
v -2.850000 -0.900025 0.947818
v -1.200000 0.799975 0.947818
v -0.800000 0.799975 0.947818
v 0.850000 0.799975 -1.000000
v 0.850000 0.799975 0.947818
v -0.800000 0.799975 -1.000000
v 0.850000 0.799975 -1.000000
v -0.800000 0.799975 0.947818
v 0.850000 -0.900025 0.947818
v -0.800000 -0.900025 -1.000000
v -0.800000 -0.900025 0.947818
v 0.850000 -0.900025 -1.000000
v -0.800000 -0.900025 -1.000000
v 0.850000 -0.900025 0.947818
v 1.000000 0.900000 -1.000000
v -0.800000 0.799975 -1.000000
v -1.000000 0.900000 -1.000000
v -0.800000 -0.145000 -1.000000
v -0.800000 -0.900025 0.947818
v -0.800000 -0.900025 -1.000000
v 0.850000 0.799975 0.947818
v 0.850000 -0.900025 -1.000000
v 0.850000 -0.900025 0.947818
v 0.850000 0.799975 -1.000000
v 0.850000 -0.900025 -1.000000
v 0.850000 0.799975 0.947818
v -3.000000 0.900000 1.000000
v -3.000000 -1.000000 -1.000000
v -3.000000 -1.000000 1.000000
v -3.000000 0.900000 -1.000000
v -3.000000 -1.000000 -1.000000
v -3.000000 0.900000 1.000000
v -1.000000 -1.000000 -1.000000
v -3.000000 -1.000000 1.000000
v -3.000000 -1.000000 -1.000000
v -1.000000 -1.000000 1.000000
v -3.000000 -1.000000 1.000000
v -1.000000 -1.000000 -1.000000
v -1.000000 0.900000 1.000000
v -3.000000 -1.000000 1.000000
v -1.000000 -1.000000 1.000000
v -3.000000 0.900000 1.000000
v -3.000000 -1.000000 1.000000
v -1.000000 0.900000 1.000000
v -3.000000 1.000000 -1.000000
v -1.000000 1.000000 1.000000
v -1.000000 1.000000 -1.000000
v -3.000000 1.000000 1.000000
v -1.000000 1.000000 1.000000
v -3.000000 1.000000 -1.000000
v -3.000000 1.000000 -1.100000
v -1.000000 1.000000 -1.000000
v -1.000000 1.000000 -1.100000
v -3.000000 1.000000 -1.000000
v -1.000000 1.000000 -1.000000
v -3.000000 1.000000 -1.100000
v -3.000000 1.000000 -1.000000
v -3.000000 0.900000 1.000000
v -3.000000 1.000000 1.000000
v -3.000000 0.900000 -1.000000
v -3.000000 0.900000 1.000000
v -3.000000 1.000000 -1.000000
v -1.000000 1.000000 -1.100000
v -3.000000 0.900000 -1.100000
v -3.000000 1.000000 -1.100000
v -1.000000 0.900000 -1.100000
v -3.000000 0.900000 -1.100000
v -1.000000 1.000000 -1.100000
v -3.000000 0.900000 -1.100000
v -3.000000 1.000000 -1.000000
v -3.000000 1.000000 -1.100000
v -3.000000 0.900000 -1.000000
v -3.000000 1.000000 -1.000000
v -3.000000 0.900000 -1.100000
v -1.000000 0.900000 -1.100000
v -3.000000 0.900000 -1.000000
v -3.000000 0.900000 -1.100000
v -1.000000 0.900000 -1.000000
v -3.000000 0.900000 -1.000000
v -1.000000 0.900000 -1.100000
v -1.200000 0.799975 0.947818
v -2.850000 0.799975 -1.000000
v -1.200000 0.799975 -1.000000
v -2.850000 0.799975 0.947818
v -2.850000 0.799975 -1.000000
v -1.200000 0.799975 0.947818
v -2.850000 -0.900025 0.947818
v -1.200000 -0.900025 -1.000000
v -2.850000 -0.900025 -1.000000
v -1.200000 -0.900025 0.947818
v -1.200000 -0.900025 -1.000000
v -2.850000 -0.900025 0.947818
v -1.000000 0.900000 -1.000000
v -1.200000 0.799975 -1.000000
v -3.000000 0.900000 -1.000000
v -1.200000 0.799975 0.947818
v -1.200000 -0.145000 -1.000000
v -1.200000 -0.900025 0.947818
v -2.850000 0.799975 0.947818
v -2.850000 -0.900025 -1.000000
v -2.850000 0.799975 -1.000000
v -2.850000 -0.900025 0.947818
v -2.850000 -0.900025 -1.000000
v -2.850000 0.799975 0.947818
v 0.200000 3.400000 1.000000
v 0.200000 1.000000 0.800000
v 0.200000 3.400000 0.800000
v 0.200000 1.000000 1.000000
v 0.200000 1.000000 0.800000
v 0.200000 3.400000 1.000000
v -2.200000 3.400000 1.000000
v 0.200000 1.000000 1.000000
v 0.200000 3.400000 1.000000
v -2.200000 1.000000 1.000000
v 0.200000 1.000000 1.000000
v -2.200000 3.400000 1.000000
v -2.200000 3.400000 0.800000
v -2.200000 1.000000 1.000000
v -2.200000 3.400000 1.000000
v -2.200000 1.000000 0.800000
v -2.200000 1.000000 1.000000
v -2.200000 3.400000 0.800000
v -2.020000 1.180000 0.800000
v 0.200000 1.000000 0.800000
v -2.200000 1.000000 0.800000
v 0.020000 1.180000 0.800000
v 0.200000 1.000000 0.800000
v -2.020000 1.180000 0.800000
v 0.200000 3.500000 1.000000
v -2.200000 3.400000 1.000000
v 0.200000 3.400000 1.000000
v -2.200000 3.500000 1.000000
v -2.200000 3.400000 1.000000
v 0.200000 3.500000 1.000000
v 0.020000 1.180000 0.900000
v 0.020000 3.220000 0.800000
v 0.020000 1.180000 0.800000
v 0.020000 3.220000 0.900000
v 0.020000 3.220000 0.800000
v 0.020000 1.180000 0.900000
v -2.020000 3.220000 0.800000
v -2.200000 1.000000 0.800000
v -2.200000 3.400000 0.800000
v -2.020000 1.180000 0.800000
v -2.200000 1.000000 0.800000
v -2.020000 3.220000 0.800000
v 0.020000 3.220000 0.800000
v -2.200000 3.400000 0.800000
v 0.200000 3.400000 0.800000
v -2.020000 3.220000 0.800000
v -2.200000 3.400000 0.800000
v 0.020000 3.220000 0.800000
v 0.020000 1.180000 0.800000
v 0.200000 3.400000 0.800000
v 0.200000 1.000000 0.800000
v 0.020000 3.220000 0.800000
v 0.200000 3.400000 0.800000
v 0.020000 1.180000 0.800000
v -2.020000 1.180000 0.900000
v 0.020000 1.180000 0.800000
v -2.020000 1.180000 0.800000
v 0.020000 1.180000 0.900000
v 0.020000 1.180000 0.800000
v -2.020000 1.180000 0.900000
v -2.020000 3.220000 0.900000
v -2.020000 1.180000 0.800000
v -2.020000 3.220000 0.800000
v -2.020000 1.180000 0.900000
v -2.020000 1.180000 0.800000
v -2.020000 3.220000 0.900000
v 0.020000 3.220000 0.900000
v -2.020000 3.220000 0.800000
v 0.020000 3.220000 0.800000
v -2.020000 3.220000 0.900000
v -2.020000 3.220000 0.800000
v 0.020000 3.220000 0.900000
v 0.200000 3.500000 0.800000
v -2.200000 3.500000 1.000000
v 0.200000 3.500000 1.000000
v -2.200000 3.500000 0.800000
v -2.200000 3.500000 1.000000
v 0.200000 3.500000 0.800000
v -2.200000 3.500000 1.000000
v -2.200000 3.400000 0.800000
v -2.200000 3.400000 1.000000
v -2.200000 3.500000 0.800000
v -2.200000 3.400000 0.800000
v -2.200000 3.500000 1.000000
v 0.200000 3.500000 0.800000
v 0.200000 3.400000 1.000000
v 0.200000 3.400000 0.800000
v 0.200000 3.500000 1.000000
v 0.200000 3.400000 1.000000
v 0.200000 3.500000 0.800000
v 0.200000 3.500000 0.700000
v -2.200000 3.500000 0.800000
v 0.200000 3.500000 0.800000
v -2.200000 3.500000 0.700000
v -2.200000 3.500000 0.800000
v 0.200000 3.500000 0.700000
v -2.200000 3.500000 0.700000
v 0.200000 3.400000 0.700000
v -2.200000 3.400000 0.700000
v 0.200000 3.500000 0.700000
v 0.200000 3.400000 0.700000
v -2.200000 3.500000 0.700000
v 0.200000 3.400000 0.700000
v 0.200000 3.500000 0.800000
v 0.200000 3.400000 0.800000
v 0.200000 3.500000 0.700000
v 0.200000 3.500000 0.800000
v 0.200000 3.400000 0.700000
v -2.200000 3.500000 0.700000
v -2.200000 3.400000 0.800000
v -2.200000 3.500000 0.800000
v -2.200000 3.400000 0.700000
v -2.200000 3.400000 0.800000
v -2.200000 3.500000 0.700000
v -2.200000 3.400000 0.700000
v 0.200000 3.400000 0.800000
v -2.200000 3.400000 0.800000
v 0.200000 3.400000 0.700000
v 0.200000 3.400000 0.800000
v -2.200000 3.400000 0.700000
v -0.800000 -0.900025 -1.000000
v -1.000000 -1.000000 -1.000000
v -0.800000 -0.145000 -1.000000
v 1.000000 -1.000000 -1.000000
v -0.800000 -0.900025 -1.000000
v 0.850000 -0.900025 -1.000000
v -1.200000 -0.145000 -1.000000
v -1.000000 -1.000000 -1.000000
v -1.200000 -0.900025 -1.000000
v -2.850000 -0.900025 -1.000000
v -1.200000 -0.900025 -1.000000
v -3.000000 -1.000000 -1.000000
v 0.850000 -0.900025 -1.000000
v 1.000000 0.900000 -1.000000
v 1.000000 -1.000000 -1.000000
v 0.850000 0.799975 -1.000000
v 1.000000 0.900000 -1.000000
v 0.850000 -0.900025 -1.000000
v -1.000000 0.900000 -1.000000
v -0.800000 -0.145000 -1.000000
v -1.000000 -1.000000 -1.000000
v -0.800000 0.799975 -1.000000
v 1.000000 0.900000 -1.000000
v 0.850000 0.799975 -1.000000
v -1.000000 0.900000 -1.000000
v -0.800000 0.799975 -1.000000
v -0.800000 -0.145000 -1.000000
v -3.000000 -1.000000 -1.000000
v -3.000000 0.900000 -1.000000
v -2.850000 -0.900025 -1.000000
v -2.850000 -0.900025 -1.000000
v -3.000000 0.900000 -1.000000
v -2.850000 0.799975 -1.000000
v -1.000000 -1.000000 -1.000000
v -1.200000 -0.145000 -1.000000
v -1.000000 0.900000 -1.000000
v -2.850000 0.799975 -1.000000
v -3.000000 0.900000 -1.000000
v -1.200000 0.799975 -1.000000
v -1.200000 -0.145000 -1.000000
v -1.200000 0.799975 -1.000000
v -1.000000 0.900000 -1.000000
v -0.800000 0.799975 0.947818
v -0.800000 -0.145000 -1.000000
v -0.800000 0.799975 -1.000000
v -0.800000 -0.145000 -1.000000
v -0.800000 0.799975 0.947818
v -0.800000 -0.900025 0.947818
v -1.200000 -0.145000 -1.000000
v -1.200000 0.799975 0.947818
v -1.200000 0.799975 -1.000000
v -1.200000 -0.900025 0.947818
v -1.200000 -0.145000 -1.000000
v -1.200000 -0.900025 -1.000000
v 0.020000 3.220000 0.900000
v -2.020000 1.180000 0.900000
v -2.020000 3.220000 0.900000
v 0.020000 1.180000 0.900000
v -2.020000 1.180000 0.900000
v 0.020000 3.220000 0.900000

vt 0.294510 0.159757
vt 0.294510 0.299668
vt 0.158714 0.159757
vt 0.294510 0.299668
vt 0.158714 0.299668
vt 0.158714 0.159757
vt 0.925092 0.008509
vt 0.916862 0.008509
vt 0.925092 0.173111
vt 0.916862 0.008509
vt 0.916862 0.173111
vt 0.925092 0.173111
vt 0.991493 0.791482
vt 0.999721 0.643341
vt 0.999721 0.807942
vt 0.422500 0.000279
vt 0.587101 0.000279
vt 0.422500 0.156650
vt 0.587101 0.000279
vt 0.587101 0.156650
vt 0.422500 0.156650
vt 0.751702 0.156650
vt 0.751702 0.321252
vt 0.587101 0.156650
vt 0.751702 0.321252
vt 0.587101 0.321252
vt 0.587101 0.156650
vt 0.916862 0.502871
vt 0.768721 0.494643
vt 0.752261 0.502872
vt 0.587101 0.000279
vt 0.751702 0.000279
vt 0.587101 0.156650
vt 0.751702 0.000279
vt 0.751702 0.156650
vt 0.587101 0.156650
vt 0.916862 0.008509
vt 0.752261 0.008509
vt 0.916862 0.173111
vt 0.752261 0.008509
vt 0.752261 0.173111
vt 0.916862 0.173111
vt 0.942669 0.354730
vt 0.950899 0.354730
vt 0.942669 0.519332
vt 0.950899 0.354730
vt 0.950899 0.519332
vt 0.942669 0.519332
vt 0.752261 0.000279
vt 0.752261 0.008509
vt 0.916862 0.000279
vt 0.752261 0.008509
vt 0.916862 0.008509
vt 0.916862 0.000279
vt 0.916862 0.173111
vt 0.916862 0.337712
vt 0.925092 0.173111
vt 0.916862 0.337712
vt 0.925092 0.337712
vt 0.925092 0.173111
vt 0.959129 0.519332
vt 0.950899 0.519332
vt 0.959129 0.354730
vt 0.950899 0.519332
vt 0.950899 0.354730
vt 0.959129 0.354730
vt 0.959129 0.346500
vt 0.959129 0.354730
vt 0.950899 0.346500
vt 0.959129 0.354730
vt 0.950899 0.354730
vt 0.950899 0.346500
vt 0.967359 0.519332
vt 0.959129 0.519332
vt 0.967359 0.354730
vt 0.959129 0.519332
vt 0.959129 0.354730
vt 0.967359 0.354730
vt 0.158207 0.704951
vt 0.158207 0.840747
vt 0.298118 0.704950
vt 0.158207 0.840747
vt 0.298118 0.840747
vt 0.298118 0.704950
vt 0.158714 0.299668
vt 0.294510 0.299668
vt 0.158714 0.459975
vt 0.294510 0.299668
vt 0.294510 0.459975
vt 0.158714 0.459975
vt 0.294510 0.159757
vt 0.158714 0.159757
vt 0.294510 -0.000550
vt 0.158714 0.159757
vt 0.158714 -0.000550
vt 0.294510 -0.000550
vt 0.843350 0.807942
vt 0.843350 0.643341
vt 0.851582 0.791482
vt 0.454817 0.159757
vt 0.454817 0.221896
vt 0.294510 0.159757
vt 0.158714 0.159757
vt 0.158714 0.299668
vt -0.001593 0.159757
vt 0.158714 0.299668
vt -0.001592 0.299668
vt -0.001593 0.159757
vt 0.587101 0.478181
vt 0.587101 0.321810
vt 0.422500 0.478181
vt 0.587101 0.321810
vt 0.422500 0.321810
vt 0.422500 0.478181
vt 0.587101 0.642783
vt 0.751702 0.642783
vt 0.587101 0.478181
vt 0.751702 0.642783
vt 0.751702 0.478181
vt 0.587101 0.478181
vt 0.751702 0.478181
vt 0.751702 0.321810
vt 0.587101 0.478181
vt 0.751702 0.321810
vt 0.587101 0.321810
vt 0.587101 0.478181
vt 0.752261 0.173111
vt 0.752261 0.337712
vt 0.916862 0.173111
vt 0.752261 0.337712
vt 0.916862 0.337712
vt 0.916862 0.173111
vt 0.942111 0.000279
vt 0.942111 0.164881
vt 0.950341 0.000279
vt 0.942111 0.164881
vt 0.950341 0.164881
vt 0.950341 0.000279
vt 0.916862 0.337712
vt 0.752261 0.337712
vt 0.916862 0.345942
vt 0.752261 0.337712
vt 0.752261 0.345942
vt 0.916862 0.345942
vt 0.942111 0.164881
vt 0.942111 0.000279
vt 0.933881 0.164881
vt 0.942111 0.000279
vt 0.933881 0.000279
vt 0.933881 0.164881
vt 0.942111 0.164881
vt 0.933881 0.164881
vt 0.942111 0.173111
vt 0.933881 0.164881
vt 0.933881 0.173111
vt 0.942111 0.173111
vt 0.933881 0.164881
vt 0.933881 0.000279
vt 0.925650 0.164881
vt 0.933881 0.000279
vt 0.925650 0.000279
vt 0.925650 0.164881
vt -0.002100 0.840747
vt 0.158207 0.840747
vt -0.002100 0.704951
vt 0.158207 0.840747
vt 0.158207 0.704951
vt -0.002100 0.704951
vt 0.458425 0.704950
vt 0.298118 0.704950
vt 0.458425 0.840747
vt 0.298118 0.704950
vt 0.298118 0.840747
vt 0.458425 0.840747
vt 0.916862 0.346500
vt 0.752261 0.346500
vt 0.768721 0.354732
vt 0.298118 0.840747
vt 0.158207 0.840747
vt 0.235979 1.001053
vt 0.158207 0.544644
vt 0.158207 0.704951
vt 0.298118 0.544644
vt 0.158207 0.704951
vt 0.298118 0.704950
vt 0.298118 0.544644
vt 0.447190 0.873783
vt 0.447190 0.857323
vt 0.644712 0.873783
vt 0.447190 0.857323
vt 0.644712 0.857323
vt 0.644712 0.873783
vt 0.447190 0.857323
vt 0.447190 0.659801
vt 0.644712 0.857323
vt 0.447190 0.659801
vt 0.644711 0.659801
vt 0.644712 0.857323
vt 0.447190 0.659801
vt 0.447190 0.643341
vt 0.644711 0.659801
vt 0.447190 0.643341
vt 0.644711 0.643341
vt 0.644711 0.659801
vt 0.645270 0.840863
vt 0.660084 0.826048
vt 0.842791 0.840862
vt 0.660084 0.826048
vt 0.827977 0.826048
vt 0.842791 0.840862
vt 0.447190 0.857323
vt 0.438960 0.857323
vt 0.447190 0.659801
vt 0.438960 0.857323
vt 0.438960 0.659801
vt 0.447190 0.659801
vt 0.967917 0.168172
vt 0.959687 0.168173
vt 0.967917 0.000279
vt 0.959687 0.168173
vt 0.959687 0.000279
vt 0.967917 0.000279
vt 0.645270 0.643341
vt 0.660084 0.658155
vt 0.645270 0.840863
vt 0.660084 0.658155
vt 0.660084 0.826048
vt 0.645270 0.840863
vt 0.842791 0.643341
vt 0.827977 0.658155
vt 0.645270 0.643341
vt 0.827977 0.658155
vt 0.660084 0.658155
vt 0.645270 0.643341
vt 0.842791 0.840862
vt 0.827977 0.826048
vt 0.842791 0.643341
vt 0.827977 0.826048
vt 0.827977 0.658155
vt 0.842791 0.643341
vt 0.967917 0.336066
vt 0.959687 0.336066
vt 0.967917 0.168172
vt 0.959687 0.336066
vt 0.959687 0.168173
vt 0.967917 0.168172
vt 0.950899 0.168172
vt 0.959129 0.168172
vt 0.950899 0.336066
vt 0.959129 0.168172
vt 0.959129 0.336066
vt 0.950899 0.336066
vt 0.950899 0.000279
vt 0.959129 0.000279
vt 0.950899 0.168172
vt 0.959129 0.000279
vt 0.959129 0.168172
vt 0.950899 0.168172
vt 0.438960 0.857323
vt 0.422500 0.857323
vt 0.438960 0.659801
vt 0.422500 0.857323
vt 0.422500 0.659801
vt 0.438960 0.659801
vt 0.447190 0.659801
vt 0.438960 0.659801
vt 0.447190 0.643341
vt 0.438960 0.659801
vt 0.438960 0.643341
vt 0.447190 0.643341
vt 0.447190 0.873783
vt 0.438960 0.873783
vt 0.447190 0.857323
vt 0.438960 0.873783
vt 0.438960 0.857323
vt 0.447190 0.857323
vt 0.917421 0.354730
vt 0.925651 0.354730
vt 0.917420 0.552253
vt 0.925651 0.354730
vt 0.925650 0.552253
vt 0.917420 0.552253
vt 0.933881 0.552253
vt 0.925650 0.552253
vt 0.933881 0.354730
vt 0.925650 0.552253
vt 0.925651 0.354730
vt 0.933881 0.354730
vt 0.933881 0.346500
vt 0.933881 0.354730
vt 0.925651 0.346500
vt 0.933881 0.354730
vt 0.925651 0.354730
vt 0.925651 0.346500
vt 0.925650 0.560483
vt 0.925650 0.552253
vt 0.933880 0.560483
vt 0.925650 0.552253
vt 0.933881 0.552253
vt 0.933880 0.560483
vt 0.942111 0.552253
vt 0.933881 0.552253
vt 0.942111 0.354730
vt 0.933881 0.552253
vt 0.933881 0.354730
vt 0.942111 0.354730
vt 0.929354 0.791482
vt 0.991493 0.791482
vt 0.999721 0.807942
vt 0.991493 0.655686
vt 0.999721 0.643341
vt 0.991493 0.791482
vt 0.768721 0.494643
vt 0.768721 0.432504
vt 0.752261 0.502872
vt 0.916862 0.502871
vt 0.904517 0.494643
vt 0.768721 0.494643
vt 0.999721 0.643341
vt 0.991493 0.655686
vt 0.843350 0.643341
vt 0.991493 0.655686
vt 0.851582 0.655686
vt 0.843350 0.643341
vt 0.999721 0.807942
vt 0.843350 0.807942
vt 0.929354 0.791482
vt 0.851582 0.655686
vt 0.851582 0.791482
vt 0.843350 0.643341
vt 0.929354 0.791482
vt 0.843350 0.807942
vt 0.851582 0.791482
vt 0.904517 0.494643
vt 0.916862 0.502871
vt 0.916862 0.346500
vt 0.904517 0.354733
vt 0.904517 0.494643
vt 0.916862 0.346500
vt 0.752261 0.346500
vt 0.752261 0.502872
vt 0.768721 0.432504
vt 0.768721 0.354732
vt 0.904517 0.354733
vt 0.916862 0.346500
vt 0.752261 0.346500
vt 0.768721 0.432504
vt 0.768721 0.354732
vt 0.454817 0.299668
vt 0.294510 0.299668
vt 0.454817 0.221896
vt 0.294510 0.159757
vt 0.454817 0.221896
vt 0.294510 0.299668
vt 0.158207 1.001053
vt 0.235979 1.001053
vt 0.158207 0.840747
vt 0.298118 1.001053
vt 0.298118 0.840747
vt 0.235979 1.001053
vt 0.001607 0.001607
vt 0.998393 0.001607
vt 0.001607 0.998393
vt 0.998393 0.001607
vt 0.998393 0.998393
vt 0.001607 0.998393

vn -0.000000 0.000000 -1.000000
vn -0.000000 0.000000 -1.000000
vn -0.000000 0.000000 -1.000000
vn -0.000000 0.000000 -1.000000
vn -0.000000 0.000000 -1.000000
vn -0.000000 0.000000 -1.000000
vn -0.000000 0.000000 1.000000
vn -0.000000 0.000000 1.000000
vn -0.000000 0.000000 1.000000
vn -0.000000 0.000000 1.000000
vn -0.000000 0.000000 1.000000
vn -0.000000 0.000000 1.000000
vn -0.000000 0.000000 -1.000000
vn -0.000000 0.000000 -1.000000
vn -0.000000 0.000000 -1.000000
vn 1.000000 0.000000 0.000000
vn 1.000000 0.000000 0.000000
vn 1.000000 0.000000 0.000000
vn 1.000000 0.000000 0.000000
vn 1.000000 0.000000 0.000000
vn 1.000000 0.000000 0.000000
vn -0.000000 -1.000000 0.000000
vn -0.000000 -1.000000 0.000000
vn -0.000000 -1.000000 0.000000
vn -0.000000 -1.000000 0.000000
vn -0.000000 -1.000000 0.000000
vn -0.000000 -1.000000 0.000000
vn -0.000000 0.000000 -1.000000
vn -0.000000 0.000000 -1.000000
vn -0.000000 0.000000 -1.000000
vn -0.000000 0.000000 1.000000
vn -0.000000 0.000000 1.000000
vn -0.000000 0.000000 1.000000
vn -0.000000 0.000000 1.000000
vn -0.000000 0.000000 1.000000
vn -0.000000 0.000000 1.000000
vn -0.000000 1.000000 0.000000
vn -0.000000 1.000000 0.000000
vn -0.000000 1.000000 0.000000
vn -0.000000 1.000000 0.000000
vn -0.000000 1.000000 0.000000
vn -0.000000 1.000000 0.000000
vn -0.000000 1.000000 0.000000
vn -0.000000 1.000000 0.000000
vn -0.000000 1.000000 0.000000
vn -0.000000 1.000000 0.000000
vn -0.000000 1.000000 0.000000
vn -0.000000 1.000000 0.000000
vn 1.000000 0.000000 0.000000
vn 1.000000 0.000000 0.000000
vn 1.000000 0.000000 0.000000
vn 1.000000 0.000000 0.000000
vn 1.000000 0.000000 0.000000
vn 1.000000 0.000000 0.000000
vn -0.000000 0.000000 1.000000
vn -0.000000 0.000000 1.000000
vn -0.000000 0.000000 1.000000
vn -0.000000 0.000000 1.000000
vn -0.000000 0.000000 1.000000
vn -0.000000 0.000000 1.000000
vn -0.000000 0.000000 -1.000000
vn -0.000000 0.000000 -1.000000
vn -0.000000 0.000000 -1.000000
vn -0.000000 0.000000 -1.000000
vn -0.000000 0.000000 -1.000000
vn -0.000000 0.000000 -1.000000
vn 1.000000 0.000000 0.000000
vn 1.000000 0.000000 0.000000
vn 1.000000 0.000000 0.000000
vn 1.000000 0.000000 0.000000
vn 1.000000 0.000000 0.000000
vn 1.000000 0.000000 0.000000
vn -0.000000 -1.000000 0.000000
vn -0.000000 -1.000000 0.000000
vn -0.000000 -1.000000 0.000000
vn -0.000000 -1.000000 0.000000
vn -0.000000 -1.000000 0.000000
vn -0.000000 -1.000000 0.000000
vn -0.000000 0.000000 -1.000000
vn -0.000000 0.000000 -1.000000
vn -0.000000 0.000000 -1.000000
vn -0.000000 0.000000 -1.000000
vn -0.000000 0.000000 -1.000000
vn -0.000000 0.000000 -1.000000
vn -0.000000 -1.000000 0.000000
vn -0.000000 -1.000000 0.000000
vn -0.000000 -1.000000 0.000000
vn -0.000000 -1.000000 0.000000
vn -0.000000 -1.000000 0.000000
vn -0.000000 -1.000000 0.000000
vn -0.000000 1.000000 0.000000
vn -0.000000 1.000000 0.000000
vn -0.000000 1.000000 0.000000
vn -0.000000 1.000000 0.000000
vn -0.000000 1.000000 0.000000
vn -0.000000 1.000000 0.000000
vn -0.000000 0.000000 -1.000000
vn -0.000000 0.000000 -1.000000
vn -0.000000 0.000000 -1.000000
vn 1.000000 0.000000 0.000000
vn 1.000000 0.000000 0.000000
vn 1.000000 0.000000 0.000000
vn -1.000000 0.000000 0.000000
vn -1.000000 0.000000 0.000000
vn -1.000000 0.000000 0.000000
vn -1.000000 0.000000 0.000000
vn -1.000000 0.000000 0.000000
vn -1.000000 0.000000 0.000000
vn -1.000000 0.000000 0.000000
vn -1.000000 0.000000 0.000000
vn -1.000000 0.000000 0.000000
vn -1.000000 0.000000 0.000000
vn -1.000000 0.000000 0.000000
vn -1.000000 0.000000 0.000000
vn -0.000000 -1.000000 0.000000
vn -0.000000 -1.000000 0.000000
vn -0.000000 -1.000000 0.000000
vn -0.000000 -1.000000 0.000000
vn -0.000000 -1.000000 0.000000
vn -0.000000 -1.000000 0.000000
vn -0.000000 0.000000 1.000000
vn -0.000000 0.000000 1.000000
vn -0.000000 0.000000 1.000000
vn -0.000000 0.000000 1.000000
vn -0.000000 0.000000 1.000000
vn -0.000000 0.000000 1.000000
vn -0.000000 1.000000 0.000000
vn -0.000000 1.000000 0.000000
vn -0.000000 1.000000 0.000000
vn -0.000000 1.000000 0.000000
vn -0.000000 1.000000 0.000000
vn -0.000000 1.000000 0.000000
vn -0.000000 1.000000 0.000000
vn -0.000000 1.000000 0.000000
vn -0.000000 1.000000 0.000000
vn -0.000000 1.000000 0.000000
vn -0.000000 1.000000 0.000000
vn -0.000000 1.000000 0.000000
vn -1.000000 0.000000 0.000000
vn -1.000000 0.000000 0.000000
vn -1.000000 0.000000 0.000000
vn -1.000000 0.000000 0.000000
vn -1.000000 0.000000 0.000000
vn -1.000000 0.000000 0.000000
vn -0.000000 0.000000 -1.000000
vn -0.000000 0.000000 -1.000000
vn -0.000000 0.000000 -1.000000
vn -0.000000 0.000000 -1.000000
vn -0.000000 0.000000 -1.000000
vn -0.000000 0.000000 -1.000000
vn -1.000000 0.000000 0.000000
vn -1.000000 0.000000 0.000000
vn -1.000000 0.000000 0.000000
vn -1.000000 0.000000 0.000000
vn -1.000000 0.000000 0.000000
vn -1.000000 0.000000 0.000000
vn -0.000000 -1.000000 0.000000
vn -0.000000 -1.000000 0.000000
vn -0.000000 -1.000000 0.000000
vn -0.000000 -1.000000 0.000000
vn -0.000000 -1.000000 0.000000
vn -0.000000 -1.000000 0.000000
vn -0.000000 -1.000000 0.000000
vn -0.000000 -1.000000 0.000000
vn -0.000000 -1.000000 0.000000
vn -0.000000 -1.000000 0.000000
vn -0.000000 -1.000000 0.000000
vn -0.000000 -1.000000 0.000000
vn -0.000000 1.000000 0.000000
vn -0.000000 1.000000 0.000000
vn -0.000000 1.000000 0.000000
vn -0.000000 1.000000 0.000000
vn -0.000000 1.000000 0.000000
vn -0.000000 1.000000 0.000000
vn -0.000000 0.000000 -1.000000
vn -0.000000 0.000000 -1.000000
vn -0.000000 0.000000 -1.000000
vn -1.000000 0.000000 -0.000000
vn -1.000000 0.000000 -0.000000
vn -1.000000 0.000000 -0.000000
vn 1.000000 0.000000 0.000000
vn 1.000000 0.000000 0.000000
vn 1.000000 0.000000 0.000000
vn 1.000000 0.000000 0.000000
vn 1.000000 0.000000 0.000000
vn 1.000000 0.000000 0.000000
vn 1.000000 0.000000 0.000000
vn 1.000000 0.000000 0.000000
vn 1.000000 0.000000 0.000000
vn 1.000000 0.000000 0.000000
vn 1.000000 0.000000 0.000000
vn 1.000000 0.000000 0.000000
vn -0.000000 0.000000 1.000000
vn -0.000000 0.000000 1.000000
vn -0.000000 0.000000 1.000000
vn -0.000000 0.000000 1.000000
vn -0.000000 0.000000 1.000000
vn -0.000000 0.000000 1.000000
vn -1.000000 0.000000 0.000000
vn -1.000000 0.000000 0.000000
vn -1.000000 0.000000 0.000000
vn -1.000000 0.000000 0.000000
vn -1.000000 0.000000 0.000000
vn -1.000000 0.000000 0.000000
vn -0.000000 0.000000 -1.000000
vn -0.000000 0.000000 -1.000000
vn -0.000000 0.000000 -1.000000
vn -0.000000 -0.000000 -1.000000
vn -0.000000 -0.000000 -1.000000
vn -0.000000 -0.000000 -1.000000
vn -0.000000 0.000000 1.000000
vn -0.000000 0.000000 1.000000
vn -0.000000 0.000000 1.000000
vn -0.000000 0.000000 1.000000
vn -0.000000 0.000000 1.000000
vn -0.000000 0.000000 1.000000
vn -1.000000 0.000000 0.000000
vn -1.000000 0.000000 0.000000
vn -1.000000 0.000000 0.000000
vn -1.000000 0.000000 0.000000
vn -1.000000 0.000000 0.000000
vn -1.000000 0.000000 0.000000
vn -0.000000 0.000000 -1.000000
vn -0.000000 0.000000 -1.000000
vn -0.000000 0.000000 -1.000000
vn -0.000000 0.000000 -1.000000
vn -0.000000 0.000000 -1.000000
vn -0.000000 0.000000 -1.000000
vn -0.000000 0.000000 -1.000000
vn -0.000000 0.000000 -1.000000
vn -0.000000 0.000000 -1.000000
vn -0.000000 0.000000 -1.000000
vn -0.000000 0.000000 -1.000000
vn -0.000000 0.000000 -1.000000
vn -0.000000 0.000000 -1.000000
vn -0.000000 0.000000 -1.000000
vn -0.000000 0.000000 -1.000000
vn -0.000000 0.000000 -1.000000
vn -0.000000 0.000000 -1.000000
vn -0.000000 0.000000 -1.000000
vn -0.000000 1.000000 0.000000
vn -0.000000 1.000000 0.000000
vn -0.000000 1.000000 0.000000
vn -0.000000 1.000000 0.000000
vn -0.000000 1.000000 0.000000
vn -0.000000 1.000000 0.000000
vn 1.000000 0.000000 0.000000
vn 1.000000 0.000000 0.000000
vn 1.000000 0.000000 0.000000
vn 1.000000 0.000000 0.000000
vn 1.000000 0.000000 0.000000
vn 1.000000 0.000000 0.000000
vn -0.000000 -1.000000 0.000000
vn -0.000000 -1.000000 0.000000
vn -0.000000 -1.000000 0.000000
vn -0.000000 -1.000000 0.000000
vn -0.000000 -1.000000 0.000000
vn -0.000000 -1.000000 0.000000
vn -0.000000 1.000000 0.000000
vn -0.000000 1.000000 0.000000
vn -0.000000 1.000000 0.000000
vn -0.000000 1.000000 0.000000
vn -0.000000 1.000000 0.000000
vn -0.000000 1.000000 0.000000
vn -1.000000 0.000000 0.000000
vn -1.000000 0.000000 0.000000
vn -1.000000 0.000000 0.000000
vn -1.000000 0.000000 0.000000
vn -1.000000 0.000000 0.000000
vn -1.000000 0.000000 0.000000
vn 1.000000 0.000000 0.000000
vn 1.000000 0.000000 0.000000
vn 1.000000 0.000000 0.000000
vn 1.000000 0.000000 0.000000
vn 1.000000 0.000000 0.000000
vn 1.000000 0.000000 0.000000
vn -0.000000 1.000000 0.000000
vn -0.000000 1.000000 0.000000
vn -0.000000 1.000000 0.000000
vn -0.000000 1.000000 0.000000
vn -0.000000 1.000000 0.000000
vn -0.000000 1.000000 0.000000
vn -0.000000 0.000000 -1.000000
vn -0.000000 0.000000 -1.000000
vn -0.000000 0.000000 -1.000000
vn -0.000000 0.000000 -1.000000
vn -0.000000 0.000000 -1.000000
vn -0.000000 0.000000 -1.000000
vn 1.000000 0.000000 0.000000
vn 1.000000 0.000000 0.000000
vn 1.000000 0.000000 0.000000
vn 1.000000 0.000000 0.000000
vn 1.000000 0.000000 0.000000
vn 1.000000 0.000000 0.000000
vn -1.000000 0.000000 0.000000
vn -1.000000 0.000000 0.000000
vn -1.000000 0.000000 0.000000
vn -1.000000 0.000000 0.000000
vn -1.000000 0.000000 0.000000
vn -1.000000 0.000000 0.000000
vn -0.000000 -1.000000 0.000000
vn -0.000000 -1.000000 0.000000
vn -0.000000 -1.000000 0.000000
vn -0.000000 -1.000000 0.000000
vn -0.000000 -1.000000 0.000000
vn -0.000000 -1.000000 0.000000
vn -0.000000 0.000000 -1.000000
vn -0.000000 0.000000 -1.000000
vn -0.000000 0.000000 -1.000000
vn -0.000000 0.000000 -1.000000
vn -0.000000 0.000000 -1.000000
vn -0.000000 0.000000 -1.000000
vn -0.000000 0.000000 -1.000000
vn -0.000000 0.000000 -1.000000
vn -0.000000 0.000000 -1.000000
vn -0.000000 0.000000 -1.000000
vn -0.000000 0.000000 -1.000000
vn -0.000000 0.000000 -1.000000
vn -0.000000 0.000000 -1.000000
vn -0.000000 0.000000 -1.000000
vn -0.000000 0.000000 -1.000000
vn -0.000000 0.000000 -1.000000
vn -0.000000 0.000000 -1.000000
vn -0.000000 0.000000 -1.000000
vn -0.000000 0.000000 -1.000000
vn -0.000000 0.000000 -1.000000
vn -0.000000 0.000000 -1.000000
vn -0.000000 0.000000 -1.000000
vn -0.000000 0.000000 -1.000000
vn -0.000000 0.000000 -1.000000
vn -0.000000 0.000000 -1.000000
vn -0.000000 0.000000 -1.000000
vn -0.000000 0.000000 -1.000000
vn -0.000000 0.000000 -1.000000
vn -0.000000 0.000000 -1.000000
vn -0.000000 0.000000 -1.000000
vn -0.000000 0.000000 -1.000000
vn -0.000000 0.000000 -1.000000
vn -0.000000 0.000000 -1.000000
vn -0.000000 0.000000 -1.000000
vn -0.000000 0.000000 -1.000000
vn -0.000000 0.000000 -1.000000
vn -0.000000 0.000000 -1.000000
vn -0.000000 0.000000 -1.000000
vn -0.000000 0.000000 -1.000000
vn -0.000000 0.000000 -1.000000
vn -0.000000 0.000000 -1.000000
vn -0.000000 0.000000 -1.000000
vn 1.000000 -0.000000 0.000000
vn 1.000000 -0.000000 0.000000
vn 1.000000 -0.000000 0.000000
vn 1.000000 0.000000 -0.000000
vn 1.000000 0.000000 -0.000000
vn 1.000000 0.000000 -0.000000
vn -1.000000 -0.000000 0.000000
vn -1.000000 -0.000000 0.000000
vn -1.000000 -0.000000 0.000000
vn -1.000000 0.000000 0.000000
vn -1.000000 0.000000 0.000000
vn -1.000000 0.000000 0.000000
vn -0.000000 0.000000 -1.000000
vn -0.000000 0.000000 -1.000000
vn -0.000000 0.000000 -1.000000
vn -0.000000 0.000000 -1.000000
vn -0.000000 0.000000 -1.000000
vn -0.000000 0.000000 -1.000000

g Material.001
f 3/1/1 1/2/2 2/3/3
f 6/4/4 4/5/5 5/6/6
f 9/7/7 7/8/8 8/9/9
f 12/10/10 10/11/11 11/12/12
f 15/13/13 13/14/14 14/15/15
f 18/16/16 16/17/17 17/18/18
f 21/19/19 19/20/20 20/21/21
f 24/22/22 22/23/23 23/24/24
f 27/25/25 25/26/26 26/27/27
f 30/28/28 28/29/29 29/30/30
f 33/31/31 31/32/32 32/33/33
f 36/34/34 34/35/35 35/36/36
f 39/37/37 37/38/38 38/39/39
f 42/40/40 40/41/41 41/42/42
f 45/43/43 43/44/44 44/45/45
f 48/46/46 46/47/47 47/48/48
f 51/49/49 49/50/50 50/51/51
f 54/52/52 52/53/53 53/54/54
f 57/55/55 55/56/56 56/57/57
f 60/58/58 58/59/59 59/60/60
f 63/61/61 61/62/62 62/63/63
f 66/64/64 64/65/65 65/66/66
f 69/67/67 67/68/68 68/69/69
f 72/70/70 70/71/71 71/72/72
f 75/73/73 73/74/74 74/75/75
f 78/76/76 76/77/77 77/78/78
f 81/79/79 79/80/80 80/81/81
f 84/82/82 82/83/83 83/84/84
f 87/85/85 85/86/86 86/87/87
f 90/88/88 88/89/89 89/90/90
f 93/91/91 91/92/92 92/93/93
f 96/94/94 94/95/95 95/96/96
f 99/97/97 97/98/98 98/99/99
f 102/100/100 100/101/101 101/102/102
f 105/103/103 103/104/104 104/105/105
f 108/106/106 106/107/107 107/108/108
f 111/109/109 109/110/110 110/111/111
f 114/112/112 112/113/113 113/114/114
f 117/115/115 115/116/116 116/117/117
f 120/118/118 118/119/119 119/120/120
f 123/121/121 121/122/122 122/123/123
f 126/124/124 124/125/125 125/126/126
f 129/127/127 127/128/128 128/129/129
f 132/130/130 130/131/131 131/132/132
f 135/133/133 133/134/134 134/135/135
f 138/136/136 136/137/137 137/138/138
f 141/139/139 139/140/140 140/141/141
f 144/142/142 142/143/143 143/144/144
f 147/145/145 145/146/146 146/147/147
f 150/148/148 148/149/149 149/150/150
f 153/151/151 151/152/152 152/153/153
f 156/154/154 154/155/155 155/156/156
f 159/157/157 157/158/158 158/159/159
f 162/160/160 160/161/161 161/162/162
f 165/163/163 163/164/164 164/165/165
f 168/166/166 166/167/167 167/168/168
f 171/169/169 169/170/170 170/171/171
f 174/172/172 172/173/173 173/174/174
f 177/175/175 175/176/176 176/177/177
f 180/178/178 178/179/179 179/180/180
f 183/181/181 181/182/182 182/183/183
f 186/184/184 184/185/185 185/186/186
f 189/187/187 187/188/188 188/189/189
f 192/190/190 190/191/191 191/192/192
f 195/193/193 193/194/194 194/195/195
f 198/196/196 196/197/197 197/198/198
f 201/199/199 199/200/200 200/201/201
f 204/202/202 202/203/203 203/204/204
f 207/205/205 205/206/206 206/207/207
f 210/208/208 208/209/209 209/210/210
f 213/211/211 211/212/212 212/213/213
f 216/214/214 214/215/215 215/216/216
f 219/217/217 217/218/218 218/219/219
f 222/220/220 220/221/221 221/222/222
f 225/223/223 223/224/224 224/225/225
f 228/226/226 226/227/227 227/228/228
f 231/229/229 229/230/230 230/231/231
f 234/232/232 232/233/233 233/234/234
f 237/235/235 235/236/236 236/237/237
f 240/238/238 238/239/239 239/240/240
f 243/241/241 241/242/242 242/243/243
f 246/244/244 244/245/245 245/246/246
f 249/247/247 247/248/248 248/249/249
f 252/250/250 250/251/251 251/252/252
f 255/253/253 253/254/254 254/255/255
f 258/256/256 256/257/257 257/258/258
f 261/259/259 259/260/260 260/261/261
f 264/262/262 262/263/263 263/264/264
f 267/265/265 265/266/266 266/267/267
f 270/268/268 268/269/269 269/270/270
f 273/271/271 271/272/272 272/273/273
f 276/274/274 274/275/275 275/276/276
f 279/277/277 277/278/278 278/279/279
f 282/280/280 280/281/281 281/282/282
f 285/283/283 283/284/284 284/285/285
f 288/286/286 286/287/287 287/288/288
f 291/289/289 289/290/290 290/291/291
f 294/292/292 292/293/293 293/294/294
f 297/295/295 295/296/296 296/297/297
f 300/298/298 298/299/299 299/300/300
f 303/301/301 301/302/302 302/303/303
f 306/304/304 304/305/305 305/306/306
f 309/307/307 307/308/308 308/309/309
f 312/310/310 310/311/311 311/312/312
f 315/313/313 313/314/314 314/315/315
f 318/316/316 316/317/317 317/318/318
f 321/319/319 319/320/320 320/321/321
f 324/322/322 322/323/323 323/324/324
f 327/325/325 325/326/326 326/327/327
f 330/328/328 328/329/329 329/330/330
f 333/331/331 331/332/332 332/333/333
f 336/334/334 334/335/335 335/336/336
f 339/337/337 337/338/338 338/339/339
f 342/340/340 340/341/341 341/342/342
f 345/343/343 343/344/344 344/345/345
f 348/346/346 346/347/347 347/348/348
f 351/349/349 349/350/350 350/351/351
f 354/352/352 352/353/353 353/354/354
f 357/355/355 355/356/356 356/357/357
f 360/358/358 358/359/359 359/360/360

g Material.015
f 363/361/361 361/362/362 362/363/363
f 366/364/364 364/365/365 365/366/366

