# Converted from B3D for Luanti (With Correct Normals)
# Object Name: multidecor_three_level_wooden_rack

v 1.000000 -1.000000 -0.450000
v 1.000000 1.150000 -0.450000
v 0.850000 1.150000 -0.450000
v 0.850000 -1.000000 -0.450000
v 0.850000 -1.000000 -0.450000
v 0.850000 1.150000 -0.450000
v 0.850000 1.150000 -0.600000
v 0.850000 -1.000000 -0.600000
v 0.850000 -1.000000 -0.600000
v 0.850000 1.150000 -0.600000
v 1.000000 1.150000 -0.600000
v 1.000000 -1.000000 -0.600000
v 1.000000 -1.000000 -0.600000
v 1.000000 1.150000 -0.600000
v 1.000000 1.150000 -0.450000
v 1.000000 -1.000000 -0.450000
v 0.850000 -1.000000 -0.450000
v 0.850000 -1.000000 -0.600000
v 1.000000 -1.000000 -0.600000
v 1.000000 -1.000000 -0.450000
v 0.850000 1.150000 -0.600000
v 0.850000 1.150000 -0.450000
v 1.000000 1.150000 -0.450000
v 1.000000 1.150000 -0.600000
v -0.850000 -1.000000 1.000000
v -0.850000 1.150000 1.000000
v -1.000000 1.150000 1.000000
v -1.000000 -1.000000 1.000000
v -1.000000 -1.000000 1.000000
v -1.000000 1.150000 1.000000
v -1.000000 1.150000 0.850000
v -1.000000 -1.000000 0.850000
v -1.000000 -1.000000 0.850000
v -1.000000 1.150000 0.850000
v -0.850000 1.150000 0.850000
v -0.850000 -1.000000 0.850000
v -0.850000 -1.000000 0.850000
v -0.850000 1.150000 0.850000
v -0.850000 1.150000 1.000000
v -0.850000 -1.000000 1.000000
v -1.000000 -1.000000 1.000000
v -1.000000 -1.000000 0.850000
v -0.850000 -1.000000 0.850000
v -0.850000 -1.000000 1.000000
v -1.000000 1.150000 0.850000
v -1.000000 1.150000 1.000000
v -0.850000 1.150000 1.000000
v -0.850000 1.150000 0.850000
v -1.000000 1.150000 -0.600000
v -1.000000 1.150000 -0.450000
v -0.850000 1.150000 -0.450000
v -0.850000 1.150000 -0.600000
v -1.000000 -1.000000 -0.450000
v -1.000000 -1.000000 -0.600000
v -0.850000 -1.000000 -0.600000
v -0.850000 -1.000000 -0.450000
v -0.850000 -1.000000 -0.600000
v -0.850000 1.150000 -0.600000
v -0.850000 1.150000 -0.450000
v -0.850000 -1.000000 -0.450000
v -1.000000 -1.000000 -0.600000
v -1.000000 1.150000 -0.600000
v -0.850000 1.150000 -0.600000
v -0.850000 -1.000000 -0.600000
v -1.000000 -1.000000 -0.450000
v -1.000000 1.150000 -0.450000
v -1.000000 1.150000 -0.600000
v -1.000000 -1.000000 -0.600000
v -0.850000 -1.000000 -0.450000
v -0.850000 1.150000 -0.450000
v -1.000000 1.150000 -0.450000
v -1.000000 -1.000000 -0.450000
v -0.900000 -0.575000 -0.500000
v -0.900000 -0.575000 0.900000
v 0.900000 -0.575000 0.900000
v 0.900000 -0.575000 -0.500000
v 0.900000 -0.675000 -0.500000
v 0.900000 -0.575000 -0.500000
v 0.900000 -0.575000 0.900000
v 0.900000 -0.675000 0.900000
v 0.900000 -0.675000 0.900000
v 0.900000 -0.575000 0.900000
v -0.900000 -0.575000 0.900000
v -0.900000 -0.675000 0.900000
v -0.900000 -0.675000 0.900000
v -0.900000 -0.675000 -0.500000
v 0.900000 -0.675000 -0.500000
v 0.900000 -0.675000 0.900000
v -0.900000 -0.675000 -0.500000
v -0.900000 -0.575000 -0.500000
v 0.900000 -0.575000 -0.500000
v 0.900000 -0.675000 -0.500000
v -0.900000 -0.675000 0.900000
v -0.900000 -0.575000 0.900000
v -0.900000 -0.575000 -0.500000
v -0.900000 -0.675000 -0.500000
v -0.900000 1.000000 -0.500000
v -0.900000 1.000000 0.900000
v 0.900000 1.000000 0.900000
v 0.900000 1.000000 -0.500000
v 0.900000 0.900000 -0.500000
v 0.900000 1.000000 -0.500000
v 0.900000 1.000000 0.900000
v 0.900000 0.900000 0.900000
v 0.900000 0.900000 0.900000
v 0.900000 1.000000 0.900000
v -0.900000 1.000000 0.900000
v -0.900000 0.900000 0.900000
v -0.900000 0.900000 0.900000
v -0.900000 0.900000 -0.500000
v 0.900000 0.900000 -0.500000
v 0.900000 0.900000 0.900000
v -0.900000 0.900000 -0.500000
v -0.900000 1.000000 -0.500000
v 0.900000 1.000000 -0.500000
v 0.900000 0.900000 -0.500000
v -0.900000 0.900000 0.900000
v -0.900000 1.000000 0.900000
v -0.900000 1.000000 -0.500000
v -0.900000 0.900000 -0.500000
v -0.900000 0.112500 0.900000
v -0.900000 0.212500 0.900000
v -0.900000 0.212500 -0.500000
v -0.900000 0.112500 -0.500000
v -0.900000 0.112500 -0.500000
v -0.900000 0.212500 -0.500000
v 0.900000 0.212500 -0.500000
v 0.900000 0.112500 -0.500000
v -0.900000 0.112500 0.900000
v -0.900000 0.112500 -0.500000
v 0.900000 0.112500 -0.500000
v 0.900000 0.112500 0.900000
v 0.900000 0.112500 0.900000
v 0.900000 0.212500 0.900000
v -0.900000 0.212500 0.900000
v -0.900000 0.112500 0.900000
v 0.900000 0.112500 -0.500000
v 0.900000 0.212500 -0.500000
v 0.900000 0.212500 0.900000
v 0.900000 0.112500 0.900000
v -0.900000 0.212500 -0.500000
v -0.900000 0.212500 0.900000
v 0.900000 0.212500 0.900000
v 0.900000 0.212500 -0.500000
v 1.000000 -1.000000 1.000000
v 1.000000 1.150000 1.000000
v 0.850000 1.150000 1.000000
v 0.850000 -1.000000 1.000000
v 0.850000 -1.000000 1.000000
v 0.850000 1.150000 1.000000
v 0.850000 1.150000 0.850000
v 0.850000 -1.000000 0.850000
v 0.850000 -1.000000 0.850000
v 0.850000 1.150000 0.850000
v 1.000000 1.150000 0.850000
v 1.000000 -1.000000 0.850000
v 1.000000 -1.000000 0.850000
v 1.000000 1.150000 0.850000
v 1.000000 1.150000 1.000000
v 1.000000 -1.000000 1.000000
v 0.850000 -1.000000 1.000000
v 0.850000 -1.000000 0.850000
v 1.000000 -1.000000 0.850000
v 1.000000 -1.000000 1.000000
v 0.850000 1.150000 0.850000
v 0.850000 1.150000 1.000000
v 1.000000 1.150000 1.000000
v 1.000000 1.150000 0.850000

vt 0.041752 0.916599
vt 0.638732 0.958248
vt 0.041752 0.958249
vt 0.638732 0.916599
vt 0.638732 0.958248
vt 0.041752 0.916599
vt 0.041752 0.874949
vt 0.638732 0.916599
vt 0.041752 0.916599
vt 0.638732 0.874950
vt 0.638732 0.916599
vt 0.041752 0.874949
vt 0.041752 0.833299
vt 0.638732 0.874950
vt 0.041752 0.874949
vt 0.638732 0.833300
vt 0.638732 0.874950
vt 0.041752 0.833299
vt 0.041752 0.958249
vt 0.638732 0.999897
vt 0.041752 0.999898
vt 0.638732 0.958248
vt 0.638732 0.999897
vt 0.041752 0.958249
vt 0.680381 0.874950
vt 0.638732 0.916599
vt 0.638732 0.874950
vt 0.680381 0.916599
vt 0.638732 0.916599
vt 0.680381 0.874950
vt 0.000102 0.916599
vt 0.041752 0.874949
vt 0.041752 0.916599
vt 0.000102 0.874949
vt 0.041752 0.874949
vt 0.000102 0.916599
vt 0.041752 0.916599
vt 0.638732 0.958248
vt 0.041752 0.958249
vt 0.638732 0.916599
vt 0.638732 0.958248
vt 0.041752 0.916599
vt 0.041752 0.874949
vt 0.638732 0.916599
vt 0.041752 0.916599
vt 0.638732 0.874950
vt 0.638732 0.916599
vt 0.041752 0.874949
vt 0.041752 0.833299
vt 0.638732 0.874950
vt 0.041752 0.874949
vt 0.638732 0.833300
vt 0.638732 0.874950
vt 0.041752 0.833299
vt 0.041752 0.958249
vt 0.638732 0.999897
vt 0.041752 0.999898
vt 0.638732 0.958248
vt 0.638732 0.999897
vt 0.041752 0.958249
vt 0.680381 0.874950
vt 0.638732 0.916599
vt 0.638732 0.874950
vt 0.680381 0.916599
vt 0.638732 0.916599
vt 0.680381 0.874950
vt 0.000102 0.916599
vt 0.041752 0.874949
vt 0.041752 0.916599
vt 0.000102 0.874949
vt 0.041752 0.874949
vt 0.000102 0.916599
vt 0.000102 0.916599
vt 0.041752 0.874949
vt 0.041752 0.916599
vt 0.000102 0.874949
vt 0.041752 0.874949
vt 0.000102 0.916599
vt 0.680381 0.874950
vt 0.638732 0.916599
vt 0.638732 0.874950
vt 0.680381 0.916599
vt 0.638732 0.916599
vt 0.680381 0.874950
vt 0.041752 0.958249
vt 0.638732 0.999897
vt 0.041752 0.999898
vt 0.638732 0.958248
vt 0.638732 0.999897
vt 0.041752 0.958249
vt 0.041752 0.833299
vt 0.638732 0.874950
vt 0.041752 0.874949
vt 0.638732 0.833300
vt 0.638732 0.874950
vt 0.041752 0.833299
vt 0.041752 0.874949
vt 0.638732 0.916599
vt 0.041752 0.916599
vt 0.638732 0.874950
vt 0.638732 0.916599
vt 0.041752 0.874949
vt 0.041752 0.916599
vt 0.638732 0.958248
vt 0.041752 0.958249
vt 0.638732 0.916599
vt 0.638732 0.958248
vt 0.041752 0.916599
vt 0.527664 0.416599
vt 0.027868 0.805329
vt 0.027868 0.416599
vt 0.527664 0.805329
vt 0.027868 0.805329
vt 0.527664 0.416599
vt 0.527664 0.416599
vt 0.555430 0.805329
vt 0.527664 0.805329
vt 0.555430 0.416599
vt 0.555430 0.805329
vt 0.527664 0.416599
vt 0.027868 0.416599
vt 0.527664 0.388832
vt 0.527664 0.416599
vt 0.027868 0.388832
vt 0.527664 0.388832
vt 0.027868 0.416599
vt 0.527665 0.000102
vt 0.027868 0.388832
vt 0.027868 0.000102
vt 0.527664 0.388832
vt 0.027868 0.388832
vt 0.527665 0.000102
vt 0.527664 0.805329
vt 0.027868 0.833095
vt 0.027868 0.805329
vt 0.527664 0.833096
vt 0.027868 0.833095
vt 0.527664 0.805329
vt 0.027868 0.805329
vt 0.000102 0.416599
vt 0.027868 0.416599
vt 0.000102 0.805329
vt 0.000102 0.416599
vt 0.027868 0.805329
vt 0.527664 0.416599
vt 0.027868 0.805329
vt 0.027868 0.416599
vt 0.527664 0.805329
vt 0.027868 0.805329
vt 0.527664 0.416599
vt 0.527664 0.416599
vt 0.555430 0.805329
vt 0.527664 0.805329
vt 0.555430 0.416599
vt 0.555430 0.805329
vt 0.527664 0.416599
vt 0.027868 0.416599
vt 0.527664 0.388832
vt 0.527664 0.416599
vt 0.027868 0.388832
vt 0.527664 0.388832
vt 0.027868 0.416599
vt 0.527665 0.000102
vt 0.027868 0.388832
vt 0.027868 0.000102
vt 0.527664 0.388832
vt 0.027868 0.388832
vt 0.527665 0.000102
vt 0.527664 0.805329
vt 0.027868 0.833095
vt 0.027868 0.805329
vt 0.527664 0.833096
vt 0.027868 0.833095
vt 0.527664 0.805329
vt 0.027868 0.805329
vt 0.000102 0.416599
vt 0.027868 0.416599
vt 0.000102 0.805329
vt 0.000102 0.416599
vt 0.027868 0.805329
vt 0.027868 0.805329
vt 0.000102 0.416599
vt 0.027868 0.416599
vt 0.000102 0.805329
vt 0.000102 0.416599
vt 0.027868 0.805329
vt 0.527664 0.805329
vt 0.027868 0.833095
vt 0.027868 0.805329
vt 0.527664 0.833096
vt 0.027868 0.833095
vt 0.527664 0.805329
vt 0.527665 0.000102
vt 0.027868 0.388832
vt 0.027868 0.000102
vt 0.527664 0.388832
vt 0.027868 0.388832
vt 0.527665 0.000102
vt 0.027868 0.416599
vt 0.527664 0.388832
vt 0.527664 0.416599
vt 0.027868 0.388832
vt 0.527664 0.388832
vt 0.027868 0.416599
vt 0.527664 0.416599
vt 0.555430 0.805329
vt 0.527664 0.805329
vt 0.555430 0.416599
vt 0.555430 0.805329
vt 0.527664 0.416599
vt 0.527664 0.416599
vt 0.027868 0.805329
vt 0.027868 0.416599
vt 0.527664 0.805329
vt 0.027868 0.805329
vt 0.527664 0.416599
vt 0.041752 0.916599
vt 0.638732 0.958248
vt 0.041752 0.958249
vt 0.638732 0.916599
vt 0.638732 0.958248
vt 0.041752 0.916599
vt 0.041752 0.874949
vt 0.638732 0.916599
vt 0.041752 0.916599
vt 0.638732 0.874950
vt 0.638732 0.916599
vt 0.041752 0.874949
vt 0.041752 0.833299
vt 0.638732 0.874950
vt 0.041752 0.874949
vt 0.638732 0.833300
vt 0.638732 0.874950
vt 0.041752 0.833299
vt 0.041752 0.958249
vt 0.638732 0.999897
vt 0.041752 0.999898
vt 0.638732 0.958248
vt 0.638732 0.999897
vt 0.041752 0.958249
vt 0.680381 0.874950
vt 0.638732 0.916599
vt 0.638732 0.874950
vt 0.680381 0.916599
vt 0.638732 0.916599
vt 0.680381 0.874950
vt 0.000102 0.916599
vt 0.041752 0.874949
vt 0.041752 0.916599
vt 0.000102 0.874949
vt 0.041752 0.874949
vt 0.000102 0.916599

vn -0.000000 0.000000 1.000000
vn -0.000000 0.000000 1.000000
vn -0.000000 0.000000 1.000000
vn -0.000000 0.000000 1.000000
vn -0.000000 0.000000 1.000000
vn -0.000000 0.000000 1.000000
vn -1.000000 0.000000 0.000000
vn -1.000000 0.000000 0.000000
vn -1.000000 0.000000 0.000000
vn -1.000000 0.000000 0.000000
vn -1.000000 0.000000 0.000000
vn -1.000000 0.000000 0.000000
vn -0.000000 0.000000 -1.000000
vn -0.000000 0.000000 -1.000000
vn -0.000000 0.000000 -1.000000
vn -0.000000 0.000000 -1.000000
vn -0.000000 0.000000 -1.000000
vn -0.000000 0.000000 -1.000000
vn 1.000000 0.000000 0.000000
vn 1.000000 0.000000 0.000000
vn 1.000000 0.000000 0.000000
vn 1.000000 0.000000 0.000000
vn 1.000000 0.000000 0.000000
vn 1.000000 0.000000 0.000000
vn -0.000000 -1.000000 0.000000
vn -0.000000 -1.000000 0.000000
vn -0.000000 -1.000000 0.000000
vn -0.000000 -1.000000 0.000000
vn -0.000000 -1.000000 0.000000
vn -0.000000 -1.000000 0.000000
vn -0.000000 1.000000 0.000000
vn -0.000000 1.000000 0.000000
vn -0.000000 1.000000 0.000000
vn -0.000000 1.000000 0.000000
vn -0.000000 1.000000 0.000000
vn -0.000000 1.000000 0.000000
vn -0.000000 0.000000 1.000000
vn -0.000000 0.000000 1.000000
vn -0.000000 0.000000 1.000000
vn -0.000000 0.000000 1.000000
vn -0.000000 0.000000 1.000000
vn -0.000000 0.000000 1.000000
vn -1.000000 0.000000 0.000000
vn -1.000000 0.000000 0.000000
vn -1.000000 0.000000 0.000000
vn -1.000000 0.000000 0.000000
vn -1.000000 0.000000 0.000000
vn -1.000000 0.000000 0.000000
vn -0.000000 0.000000 -1.000000
vn -0.000000 0.000000 -1.000000
vn -0.000000 0.000000 -1.000000
vn -0.000000 0.000000 -1.000000
vn -0.000000 0.000000 -1.000000
vn -0.000000 0.000000 -1.000000
vn 1.000000 0.000000 0.000000
vn 1.000000 0.000000 0.000000
vn 1.000000 0.000000 0.000000
vn 1.000000 0.000000 0.000000
vn 1.000000 0.000000 0.000000
vn 1.000000 0.000000 0.000000
vn -0.000000 -1.000000 0.000000
vn -0.000000 -1.000000 0.000000
vn -0.000000 -1.000000 0.000000
vn -0.000000 -1.000000 0.000000
vn -0.000000 -1.000000 0.000000
vn -0.000000 -1.000000 0.000000
vn -0.000000 1.000000 0.000000
vn -0.000000 1.000000 0.000000
vn -0.000000 1.000000 0.000000
vn -0.000000 1.000000 0.000000
vn -0.000000 1.000000 0.000000
vn -0.000000 1.000000 0.000000
vn -0.000000 1.000000 0.000000
vn -0.000000 1.000000 0.000000
vn -0.000000 1.000000 0.000000
vn -0.000000 1.000000 0.000000
vn -0.000000 1.000000 0.000000
vn -0.000000 1.000000 0.000000
vn -0.000000 -1.000000 0.000000
vn -0.000000 -1.000000 0.000000
vn -0.000000 -1.000000 0.000000
vn -0.000000 -1.000000 0.000000
vn -0.000000 -1.000000 0.000000
vn -0.000000 -1.000000 0.000000
vn 1.000000 0.000000 0.000000
vn 1.000000 0.000000 0.000000
vn 1.000000 0.000000 0.000000
vn 1.000000 0.000000 0.000000
vn 1.000000 0.000000 0.000000
vn 1.000000 0.000000 0.000000
vn -0.000000 0.000000 -1.000000
vn -0.000000 0.000000 -1.000000
vn -0.000000 0.000000 -1.000000
vn -0.000000 0.000000 -1.000000
vn -0.000000 0.000000 -1.000000
vn -0.000000 0.000000 -1.000000
vn -1.000000 0.000000 0.000000
vn -1.000000 0.000000 0.000000
vn -1.000000 0.000000 0.000000
vn -1.000000 0.000000 0.000000
vn -1.000000 0.000000 0.000000
vn -1.000000 0.000000 0.000000
vn -0.000000 0.000000 1.000000
vn -0.000000 0.000000 1.000000
vn -0.000000 0.000000 1.000000
vn -0.000000 0.000000 1.000000
vn -0.000000 0.000000 1.000000
vn -0.000000 0.000000 1.000000
vn -0.000000 1.000000 0.000000
vn -0.000000 1.000000 0.000000
vn -0.000000 1.000000 0.000000
vn -0.000000 1.000000 0.000000
vn -0.000000 1.000000 0.000000
vn -0.000000 1.000000 0.000000
vn 1.000000 0.000000 0.000000
vn 1.000000 0.000000 0.000000
vn 1.000000 0.000000 0.000000
vn 1.000000 0.000000 0.000000
vn 1.000000 0.000000 0.000000
vn 1.000000 0.000000 0.000000
vn -0.000000 0.000000 1.000000
vn -0.000000 0.000000 1.000000
vn -0.000000 0.000000 1.000000
vn -0.000000 0.000000 1.000000
vn -0.000000 0.000000 1.000000
vn -0.000000 0.000000 1.000000
vn 0.000000 -1.000000 0.000000
vn 0.000000 -1.000000 0.000000
vn 0.000000 -1.000000 0.000000
vn -0.000000 -1.000000 0.000000
vn -0.000000 -1.000000 0.000000
vn -0.000000 -1.000000 0.000000
vn 0.000000 0.000000 -1.000000
vn 0.000000 0.000000 -1.000000
vn 0.000000 0.000000 -1.000000
vn 0.000000 0.000000 -1.000000
vn 0.000000 0.000000 -1.000000
vn 0.000000 0.000000 -1.000000
vn -1.000000 0.000000 -0.000000
vn -1.000000 0.000000 -0.000000
vn -1.000000 0.000000 -0.000000
vn -1.000000 0.000000 0.000000
vn -1.000000 0.000000 0.000000
vn -1.000000 0.000000 0.000000
vn -0.000000 1.000000 0.000000
vn -0.000000 1.000000 0.000000
vn -0.000000 1.000000 0.000000
vn -0.000000 1.000000 0.000000
vn -0.000000 1.000000 0.000000
vn -0.000000 1.000000 0.000000
vn 1.000000 0.000000 0.000000
vn 1.000000 0.000000 0.000000
vn 1.000000 0.000000 0.000000
vn 1.000000 0.000000 0.000000
vn 1.000000 0.000000 0.000000
vn 1.000000 0.000000 0.000000
vn -0.000000 0.000000 1.000000
vn -0.000000 0.000000 1.000000
vn -0.000000 0.000000 1.000000
vn -0.000000 0.000000 1.000000
vn -0.000000 0.000000 1.000000
vn -0.000000 0.000000 1.000000
vn -0.000000 -1.000000 0.000000
vn -0.000000 -1.000000 0.000000
vn -0.000000 -1.000000 0.000000
vn -0.000000 -1.000000 0.000000
vn -0.000000 -1.000000 0.000000
vn -0.000000 -1.000000 0.000000
vn 0.000000 0.000000 -1.000000
vn 0.000000 0.000000 -1.000000
vn 0.000000 0.000000 -1.000000
vn 0.000000 0.000000 -1.000000
vn 0.000000 0.000000 -1.000000
vn 0.000000 0.000000 -1.000000
vn -1.000000 0.000000 -0.000000
vn -1.000000 0.000000 -0.000000
vn -1.000000 0.000000 -0.000000
vn -1.000000 0.000000 0.000000
vn -1.000000 0.000000 0.000000
vn -1.000000 0.000000 0.000000
vn -1.000000 0.000000 -0.000000
vn -1.000000 0.000000 -0.000000
vn -1.000000 0.000000 -0.000000
vn -1.000000 0.000000 0.000000
vn -1.000000 0.000000 0.000000
vn -1.000000 0.000000 0.000000
vn 0.000000 0.000000 -1.000000
vn 0.000000 0.000000 -1.000000
vn 0.000000 0.000000 -1.000000
vn 0.000000 0.000000 -1.000000
vn 0.000000 0.000000 -1.000000
vn 0.000000 0.000000 -1.000000
vn -0.000000 -1.000000 0.000000
vn -0.000000 -1.000000 0.000000
vn -0.000000 -1.000000 0.000000
vn -0.000000 -1.000000 0.000000
vn -0.000000 -1.000000 0.000000
vn -0.000000 -1.000000 0.000000
vn -0.000000 0.000000 1.000000
vn -0.000000 0.000000 1.000000
vn -0.000000 0.000000 1.000000
vn -0.000000 0.000000 1.000000
vn -0.000000 0.000000 1.000000
vn -0.000000 0.000000 1.000000
vn 1.000000 0.000000 0.000000
vn 1.000000 0.000000 0.000000
vn 1.000000 0.000000 0.000000
vn 1.000000 0.000000 0.000000
vn 1.000000 0.000000 0.000000
vn 1.000000 0.000000 0.000000
vn -0.000000 1.000000 0.000000
vn -0.000000 1.000000 0.000000
vn -0.000000 1.000000 0.000000
vn -0.000000 1.000000 0.000000
vn -0.000000 1.000000 0.000000
vn -0.000000 1.000000 0.000000
vn -0.000000 0.000000 1.000000
vn -0.000000 0.000000 1.000000
vn -0.000000 0.000000 1.000000
vn -0.000000 0.000000 1.000000
vn -0.000000 0.000000 1.000000
vn -0.000000 0.000000 1.000000
vn -1.000000 0.000000 0.000000
vn -1.000000 0.000000 0.000000
vn -1.000000 0.000000 0.000000
vn -1.000000 0.000000 0.000000
vn -1.000000 0.000000 0.000000
vn -1.000000 0.000000 0.000000
vn -0.000000 0.000000 -1.000000
vn -0.000000 0.000000 -1.000000
vn -0.000000 0.000000 -1.000000
vn -0.000000 0.000000 -1.000000
vn -0.000000 0.000000 -1.000000
vn -0.000000 0.000000 -1.000000
vn 1.000000 0.000000 0.000000
vn 1.000000 0.000000 0.000000
vn 1.000000 0.000000 0.000000
vn 1.000000 0.000000 0.000000
vn 1.000000 0.000000 0.000000
vn 1.000000 0.000000 0.000000
vn -0.000000 -1.000000 0.000000
vn -0.000000 -1.000000 0.000000
vn -0.000000 -1.000000 0.000000
vn -0.000000 -1.000000 0.000000
vn -0.000000 -1.000000 0.000000
vn -0.000000 -1.000000 0.000000
vn -0.000000 1.000000 0.000000
vn -0.000000 1.000000 0.000000
vn -0.000000 1.000000 0.000000
vn -0.000000 1.000000 0.000000
vn -0.000000 1.000000 0.000000
vn -0.000000 1.000000 0.000000

g Material
f 3/1/1 1/2/2 2/3/3
f 4/4/4 1/5/5 3/6/6
f 7/7/7 5/8/8 6/9/9
f 8/10/10 5/11/11 7/12/12
f 11/13/13 9/14/14 10/15/15
f 12/16/16 9/17/17 11/18/18
f 15/19/19 13/20/20 14/21/21
f 16/22/22 13/23/23 15/24/24
f 19/25/25 17/26/26 18/27/27
f 20/28/28 17/29/29 19/30/30
f 23/31/31 21/32/32 22/33/33
f 24/34/34 21/35/35 23/36/36
f 27/37/37 25/38/38 26/39/39
f 28/40/40 25/41/41 27/42/42
f 31/43/43 29/44/44 30/45/45
f 32/46/46 29/47/47 31/48/48
f 35/49/49 33/50/50 34/51/51
f 36/52/52 33/53/53 35/54/54
f 39/55/55 37/56/56 38/57/57
f 40/58/58 37/59/59 39/60/60
f 43/61/61 41/62/62 42/63/63
f 44/64/64 41/65/65 43/66/66
f 47/67/67 45/68/68 46/69/69
f 48/70/70 45/71/71 47/72/72
f 51/73/73 49/74/74 50/75/75
f 52/76/76 49/77/77 51/78/78
f 55/79/79 53/80/80 54/81/81
f 56/82/82 53/83/83 55/84/84
f 59/85/85 57/86/86 58/87/87
f 60/88/88 57/89/89 59/90/90
f 63/91/91 61/92/92 62/93/93
f 64/94/94 61/95/95 63/96/96
f 67/97/97 65/98/98 66/99/99
f 68/100/100 65/101/101 67/102/102
f 71/103/103 69/104/104 70/105/105
f 72/106/106 69/107/107 71/108/108
f 75/109/109 73/110/110 74/111/111
f 76/112/112 73/113/113 75/114/114
f 79/115/115 77/116/116 78/117/117
f 80/118/118 77/119/119 79/120/120
f 83/121/121 81/122/122 82/123/123
f 84/124/124 81/125/125 83/126/126
f 87/127/127 85/128/128 86/129/129
f 88/130/130 85/131/131 87/132/132
f 91/133/133 89/134/134 90/135/135
f 92/136/136 89/137/137 91/138/138
f 95/139/139 93/140/140 94/141/141
f 96/142/142 93/143/143 95/144/144
f 99/145/145 97/146/146 98/147/147
f 100/148/148 97/149/149 99/150/150
f 103/151/151 101/152/152 102/153/153
f 104/154/154 101/155/155 103/156/156
f 107/157/157 105/158/158 106/159/159
f 108/160/160 105/161/161 107/162/162
f 111/163/163 109/164/164 110/165/165
f 112/166/166 109/167/167 111/168/168
f 115/169/169 113/170/170 114/171/171
f 116/172/172 113/173/173 115/174/174
f 119/175/175 117/176/176 118/177/177
f 120/178/178 117/179/179 119/180/180
f 123/181/181 121/182/182 122/183/183
f 124/184/184 121/185/185 123/186/186
f 127/187/187 125/188/188 126/189/189
f 128/190/190 125/191/191 127/192/192
f 131/193/193 129/194/194 130/195/195
f 132/196/196 129/197/197 131/198/198
f 135/199/199 133/200/200 134/201/201
f 136/202/202 133/203/203 135/204/204
f 139/205/205 137/206/206 138/207/207
f 140/208/208 137/209/209 139/210/210
f 143/211/211 141/212/212 142/213/213
f 144/214/214 141/215/215 143/216/216
f 147/217/217 145/218/218 146/219/219
f 148/220/220 145/221/221 147/222/222
f 151/223/223 149/224/224 150/225/225
f 152/226/226 149/227/227 151/228/228
f 155/229/229 153/230/230 154/231/231
f 156/232/232 153/233/233 155/234/234
f 159/235/235 157/236/236 158/237/237
f 160/238/238 157/239/239 159/240/240
f 163/241/241 161/242/242 162/243/243
f 164/244/244 161/245/245 163/246/246
f 167/247/247 165/248/248 166/249/249
f 168/250/250 165/251/251 167/252/252

