# Converted from B3D for Luanti (With Correct Normals)
# Object Name: multidecor_porcelain_plate_with_fork_and_knife

v 0.000000 -1.000000 0.400000
v 0.000000 -0.880000 0.480000
v -0.339411 -0.880000 0.339411
v -0.282843 -1.000000 0.282843
v -0.282843 -1.000000 0.282843
v -0.339411 -0.880000 0.339411
v -0.480000 -0.880000 -0.000000
v -0.400000 -1.000000 -0.000000
v -0.400000 -1.000000 -0.000000
v -0.480000 -0.880000 -0.000000
v -0.339411 -0.880000 -0.339411
v -0.282843 -1.000000 -0.282843
v -0.282843 -1.000000 -0.282843
v -0.339411 -0.880000 -0.339411
v 0.000000 -0.880000 -0.480000
v 0.000000 -1.000000 -0.400000
v 0.000000 -1.000000 -0.400000
v 0.000000 -0.880000 -0.480000
v 0.339411 -0.880000 -0.339411
v 0.282843 -1.000000 -0.282843
v 0.282843 -1.000000 -0.282843
v 0.339411 -0.880000 -0.339411
v 0.480000 -0.880000 0.000000
v 0.400000 -1.000000 0.000000
v -0.339411 -0.880000 -0.339411
v -0.480000 -0.880000 -0.000000
v -0.624000 -0.880000 -0.000000
v -0.441235 -0.880000 -0.441235
v 0.400000 -1.000000 0.000000
v 0.480000 -0.880000 0.000000
v 0.339411 -0.880000 0.339411
v 0.282843 -1.000000 0.282843
v 0.282843 -1.000000 0.282843
v 0.339411 -0.880000 0.339411
v 0.000000 -0.880000 0.480000
v 0.000000 -1.000000 0.400000
v -0.282843 -1.000000 -0.282843
v 0.282843 -1.000000 -0.282843
v 0.282843 -1.000000 0.282843
v 0.480000 -0.880000 0.000000
v 0.339411 -0.880000 -0.339411
v 0.441235 -0.880000 -0.441235
v 0.624000 -0.880000 0.000000
v 0.000000 -0.880000 -0.480000
v -0.339411 -0.880000 -0.339411
v -0.441235 -0.880000 -0.441235
v 0.000000 -0.880000 -0.624000
v 0.339411 -0.880000 0.339411
v 0.480000 -0.880000 0.000000
v 0.624000 -0.880000 0.000000
v 0.441235 -0.880000 0.441235
v -0.480000 -0.880000 -0.000000
v -0.339411 -0.880000 0.339411
v -0.441235 -0.880000 0.441235
v -0.624000 -0.880000 -0.000000
v 0.339411 -0.880000 -0.339411
v 0.000000 -0.880000 -0.480000
v 0.000000 -0.880000 -0.624000
v 0.441235 -0.880000 -0.441235
v 0.000000 -0.880000 0.480000
v 0.339411 -0.880000 0.339411
v 0.441235 -0.880000 0.441235
v -0.000000 -0.880000 0.624000
v -0.339411 -0.880000 0.339411
v 0.000000 -0.880000 0.480000
v -0.000000 -0.880000 0.624000
v -0.441235 -0.880000 0.441235
v 0.441235 -0.880000 0.441235
v 0.624000 -0.880000 0.000000
v 0.624000 -0.800000 0.000000
v 0.441235 -0.800000 0.441235
v 0.441235 -0.880000 -0.441235
v 0.000000 -0.880000 -0.624000
v 0.000000 -0.800000 -0.624000
v 0.441235 -0.800000 -0.441235
v -0.441235 -0.880000 -0.441235
v -0.624000 -0.880000 -0.000000
v -0.624000 -0.800000 -0.000000
v -0.441235 -0.800000 -0.441235
v -0.441235 -0.880000 0.441235
v -0.000000 -0.880000 0.624000
v -0.000000 -0.800000 0.624000
v -0.441235 -0.800000 0.441235
v -0.000000 -0.880000 0.624000
v 0.441235 -0.880000 0.441235
v 0.441235 -0.800000 0.441235
v -0.000000 -0.800000 0.624000
v 0.624000 -0.880000 0.000000
v 0.441235 -0.880000 -0.441235
v 0.441235 -0.800000 -0.441235
v 0.624000 -0.800000 0.000000
v 0.000000 -0.880000 -0.624000
v -0.441235 -0.880000 -0.441235
v -0.441235 -0.800000 -0.441235
v 0.000000 -0.800000 -0.624000
v -0.624000 -0.880000 -0.000000
v -0.441235 -0.880000 0.441235
v -0.441235 -0.800000 0.441235
v -0.624000 -0.800000 -0.000000
v -0.624000 -0.800000 -0.000000
v -0.441235 -0.800000 0.441235
v -0.308864 -0.800000 0.308864
v -0.436800 -0.800000 -0.000000
v 0.000000 -0.800000 -0.624000
v -0.441235 -0.800000 -0.441235
v -0.308864 -0.800000 -0.308864
v 0.000000 -0.800000 -0.436800
v 0.624000 -0.800000 0.000000
v 0.441235 -0.800000 -0.441235
v 0.308864 -0.800000 -0.308864
v 0.436800 -0.800000 0.000000
v -0.000000 -0.800000 0.624000
v 0.441235 -0.800000 0.441235
v 0.308864 -0.800000 0.308864
v -0.000000 -0.800000 0.436800
v -0.441235 -0.800000 0.441235
v -0.000000 -0.800000 0.624000
v -0.000000 -0.800000 0.436800
v -0.308864 -0.800000 0.308864
v -0.441235 -0.800000 -0.441235
v -0.624000 -0.800000 -0.000000
v -0.436800 -0.800000 -0.000000
v -0.308864 -0.800000 -0.308864
v 0.441235 -0.800000 -0.441235
v 0.000000 -0.800000 -0.624000
v 0.000000 -0.800000 -0.436800
v 0.308864 -0.800000 -0.308864
v 0.441235 -0.800000 0.441235
v 0.624000 -0.800000 0.000000
v 0.436800 -0.800000 0.000000
v 0.308864 -0.800000 0.308864
v 0.308864 -0.800000 0.308864
v 0.436800 -0.800000 0.000000
v 0.436800 -0.880000 0.000000
v 0.308864 -0.880000 0.308864
v -0.436800 -0.800000 -0.000000
v -0.308864 -0.800000 0.308864
v -0.308864 -0.880000 0.308864
v -0.436800 -0.880000 -0.000000
v 0.000000 -0.800000 -0.436800
v -0.308864 -0.800000 -0.308864
v -0.308864 -0.880000 -0.308864
v 0.000000 -0.880000 -0.436800
v 0.436800 -0.800000 0.000000
v 0.308864 -0.800000 -0.308864
v 0.308864 -0.880000 -0.308864
v 0.436800 -0.880000 0.000000
v -0.000000 -0.800000 0.436800
v 0.308864 -0.800000 0.308864
v 0.308864 -0.880000 0.308864
v -0.000000 -0.880000 0.436800
v -0.308864 -0.800000 0.308864
v -0.000000 -0.800000 0.436800
v -0.000000 -0.880000 0.436800
v -0.308864 -0.880000 0.308864
v -0.308864 -0.800000 -0.308864
v -0.436800 -0.800000 -0.000000
v -0.436800 -0.880000 -0.000000
v -0.308864 -0.880000 -0.308864
v 0.308864 -0.800000 -0.308864
v 0.000000 -0.800000 -0.436800
v 0.000000 -0.880000 -0.436800
v 0.308864 -0.880000 -0.308864
v 0.308864 -0.880000 -0.308864
v -0.308864 -0.880000 -0.308864
v -0.308864 -0.880000 0.308864
v -0.308864 -0.880000 0.308864
v -0.000000 -0.880000 0.436800
v 0.308864 -0.880000 -0.308864
v -0.000000 -0.880000 0.436800
v 0.308864 -0.880000 0.308864
v 0.308864 -0.880000 -0.308864
v 0.308864 -0.880000 0.308864
v 0.436800 -0.880000 0.000000
v 0.308864 -0.880000 -0.308864
v 0.308864 -0.880000 -0.308864
v 0.000000 -0.880000 -0.436800
v -0.308864 -0.880000 -0.308864
v -0.308864 -0.880000 -0.308864
v -0.436800 -0.880000 -0.000000
v -0.308864 -0.880000 0.308864
v 0.282843 -1.000000 0.282843
v 0.000000 -1.000000 0.400000
v -0.282843 -1.000000 0.282843
v -0.282843 -1.000000 0.282843
v -0.400000 -1.000000 -0.000000
v -0.282843 -1.000000 -0.282843
v -0.282843 -1.000000 -0.282843
v 0.000000 -1.000000 -0.400000
v 0.282843 -1.000000 -0.282843
v 0.282843 -1.000000 -0.282843
v 0.400000 -1.000000 0.000000
v 0.282843 -1.000000 0.282843
v 0.282843 -1.000000 0.282843
v -0.282843 -1.000000 0.282843
v -0.282843 -1.000000 -0.282843
v 0.850000 -0.960000 -0.624000
v 0.850000 -0.960000 0.176000
v 0.850000 -1.000000 0.176000
v 0.850000 -1.000000 -0.624000
v 0.850000 -1.000000 0.176000
v 0.900000 -1.000000 0.276000
v 0.700000 -1.000000 0.276000
v 0.750000 -1.000000 0.176000
v 0.750000 -0.960000 0.176000
v 0.750000 -0.960000 -0.624000
v 0.750000 -1.000000 -0.624000
v 0.750000 -1.000000 0.176000
v 0.750000 -0.960000 -0.624000
v 0.850000 -0.960000 -0.624000
v 0.850000 -1.000000 -0.624000
v 0.750000 -1.000000 -0.624000
v 0.850000 -0.960000 0.176000
v 0.850000 -0.960000 -0.624000
v 0.750000 -0.960000 -0.624000
v 0.750000 -0.960000 0.176000
v 0.750000 -1.000000 0.176000
v 0.750000 -1.000000 -0.624000
v 0.850000 -1.000000 -0.624000
v 0.850000 -1.000000 0.176000
v 0.842857 -1.000000 0.326000
v 0.814286 -1.000000 0.326000
v 0.900000 -1.000000 0.276000
v 0.850000 -0.960000 0.176000
v 0.900000 -0.960000 0.276000
v 0.900000 -1.000000 0.276000
v 0.850000 -1.000000 0.176000
v 0.750000 -1.000000 0.176000
v 0.700000 -1.000000 0.276000
v 0.700000 -0.960000 0.276000
v 0.750000 -0.960000 0.176000
v 0.750000 -0.960000 0.176000
v 0.700000 -0.960000 0.276000
v 0.900000 -0.960000 0.276000
v 0.850000 -0.960000 0.176000
v 0.814286 -0.960000 0.326000
v 0.814286 -0.960000 0.626000
v 0.842857 -0.960000 0.626000
v 0.842857 -0.960000 0.326000
v 0.900000 -0.960000 0.276000
v 0.900000 -0.960000 0.326000
v 0.900000 -1.000000 0.326000
v 0.900000 -1.000000 0.276000
v 0.700000 -1.000000 0.276000
v 0.700000 -1.000000 0.326000
v 0.700000 -0.960000 0.326000
v 0.700000 -0.960000 0.276000
v 0.757143 -0.960000 0.326000
v 0.785714 -0.960000 0.326000
v 0.700000 -0.960000 0.276000
v 0.700000 -0.960000 0.326000
v 0.728571 -0.960000 0.326000
v 0.700000 -0.960000 0.276000
v 0.871428 -0.960000 0.326000
v 0.871428 -0.960000 0.626000
v 0.900000 -0.960000 0.626000
v 0.900000 -0.960000 0.326000
v 0.871428 -0.960000 0.326000
v 0.842857 -0.960000 0.326000
v 0.842857 -1.000000 0.326000
v 0.871428 -1.000000 0.326000
v 0.900000 -0.960000 0.326000
v 0.900000 -0.960000 0.626000
v 0.900000 -1.000000 0.626000
v 0.900000 -1.000000 0.326000
v 0.814286 -0.960000 0.326000
v 0.785714 -0.960000 0.326000
v 0.785714 -1.000000 0.326000
v 0.814286 -1.000000 0.326000
v 0.785714 -1.000000 0.326000
v 0.785714 -1.000000 0.626000
v 0.757143 -1.000000 0.626000
v 0.757143 -1.000000 0.326000
v 0.757143 -0.960000 0.326000
v 0.728571 -0.960000 0.326000
v 0.728571 -1.000000 0.326000
v 0.757143 -1.000000 0.326000
v 0.728571 -0.960000 0.626000
v 0.700000 -0.960000 0.626000
v 0.700000 -1.000000 0.626000
v 0.728571 -1.000000 0.626000
v 0.900000 -0.960000 0.626000
v 0.871428 -0.960000 0.626000
v 0.871428 -1.000000 0.626000
v 0.900000 -1.000000 0.626000
v 0.842857 -0.960000 0.626000
v 0.814286 -0.960000 0.626000
v 0.814286 -1.000000 0.626000
v 0.842857 -1.000000 0.626000
v 0.785714 -0.960000 0.626000
v 0.757143 -0.960000 0.626000
v 0.757143 -1.000000 0.626000
v 0.785714 -1.000000 0.626000
v 0.871428 -1.000000 0.326000
v 0.871428 -1.000000 0.626000
v 0.871428 -0.960000 0.626000
v 0.871428 -0.960000 0.326000
v 0.728571 -1.000000 0.326000
v 0.728571 -1.000000 0.626000
v 0.700000 -1.000000 0.626000
v 0.700000 -1.000000 0.326000
v 0.842857 -0.960000 0.326000
v 0.842857 -0.960000 0.626000
v 0.842857 -1.000000 0.626000
v 0.842857 -1.000000 0.326000
v 0.700000 -1.000000 0.326000
v 0.700000 -1.000000 0.626000
v 0.700000 -0.960000 0.626000
v 0.700000 -0.960000 0.326000
v 0.900000 -1.000000 0.326000
v 0.900000 -1.000000 0.626000
v 0.871428 -1.000000 0.626000
v 0.871428 -1.000000 0.326000
v 0.814286 -1.000000 0.326000
v 0.814286 -1.000000 0.626000
v 0.814286 -0.960000 0.626000
v 0.814286 -0.960000 0.326000
v 0.700000 -0.960000 0.326000
v 0.700000 -0.960000 0.626000
v 0.728571 -0.960000 0.626000
v 0.728571 -0.960000 0.326000
v 0.785714 -0.960000 0.326000
v 0.785714 -0.960000 0.626000
v 0.785714 -1.000000 0.626000
v 0.785714 -1.000000 0.326000
v 0.842857 -1.000000 0.326000
v 0.842857 -1.000000 0.626000
v 0.814286 -1.000000 0.626000
v 0.814286 -1.000000 0.326000
v 0.757143 -1.000000 0.326000
v 0.757143 -1.000000 0.626000
v 0.757143 -0.960000 0.626000
v 0.757143 -0.960000 0.326000
v 0.757143 -0.960000 0.326000
v 0.757143 -0.960000 0.626000
v 0.785714 -0.960000 0.626000
v 0.785714 -0.960000 0.326000
v 0.728571 -0.960000 0.326000
v 0.728571 -0.960000 0.626000
v 0.728571 -1.000000 0.626000
v 0.728571 -1.000000 0.326000
v -0.750000 -0.960000 -0.624000
v -0.750000 -0.960000 -0.024000
v -0.750000 -1.000000 -0.024000
v -0.750000 -1.000000 -0.624000
v -0.850000 -0.960000 -0.024000
v -0.850000 -0.960000 -0.624000
v -0.850000 -1.000000 -0.624000
v -0.850000 -1.000000 -0.024000
v -0.850000 -0.960000 -0.624000
v -0.750000 -0.960000 -0.624000
v -0.750000 -1.000000 -0.624000
v -0.850000 -1.000000 -0.624000
v -0.750000 -0.960000 -0.024000
v -0.750000 -0.960000 -0.624000
v -0.850000 -0.960000 -0.624000
v -0.850000 -0.960000 -0.024000
v -0.850000 -1.000000 -0.024000
v -0.850000 -1.000000 -0.624000
v -0.750000 -1.000000 -0.624000
v -0.750000 -1.000000 -0.024000
v -0.750000 -0.960000 -0.024000
v -0.850000 -0.960000 -0.024000
v -0.850000 -1.000000 -0.024000
v -0.750000 -1.000000 -0.024000
v -0.740000 -0.980000 0.300000
v -0.850000 -0.980000 0.624000
v -0.760000 -0.980000 0.462000
v -0.760000 -0.980000 0.462000
v -0.850000 -0.980000 0.624000
v -0.831000 -0.980000 0.624000
v -0.850000 -0.980000 0.624000
v -0.740000 -0.980000 0.300000
v -0.850000 -0.980000 -0.024000
v -0.850000 -0.980000 -0.024000
v -0.730000 -0.980000 0.138000
v -0.770000 -0.980000 -0.024000
v -0.740000 -0.980000 0.300000
v -0.730000 -0.980000 0.138000
v -0.850000 -0.980000 -0.024000
v 0.700000 -0.960000 0.276000
v 0.785714 -0.960000 0.326000
v 0.900000 -0.960000 0.276000
v 0.728571 -0.960000 0.326000
v 0.757143 -0.960000 0.326000
v 0.700000 -0.960000 0.276000
v 0.900000 -0.960000 0.276000
v 0.871428 -0.960000 0.326000
v 0.900000 -0.960000 0.326000
v 0.842857 -0.960000 0.326000
v 0.900000 -0.960000 0.276000
v 0.814286 -0.960000 0.326000
v 0.814286 -0.960000 0.326000
v 0.900000 -0.960000 0.276000
v 0.785714 -0.960000 0.326000
v 0.900000 -0.960000 0.276000
v 0.842857 -0.960000 0.326000
v 0.871428 -0.960000 0.326000
v 0.900000 -1.000000 0.326000
v 0.871428 -1.000000 0.326000
v 0.900000 -1.000000 0.276000
v 0.900000 -1.000000 0.276000
v 0.814286 -1.000000 0.326000
v 0.700000 -1.000000 0.276000
v 0.871428 -1.000000 0.326000
v 0.842857 -1.000000 0.326000
v 0.900000 -1.000000 0.276000
v 0.700000 -1.000000 0.276000
v 0.728571 -1.000000 0.326000
v 0.700000 -1.000000 0.326000
v 0.757143 -1.000000 0.326000
v 0.700000 -1.000000 0.276000
v 0.785714 -1.000000 0.326000
v 0.785714 -1.000000 0.326000
v 0.700000 -1.000000 0.276000
v 0.814286 -1.000000 0.326000
v 0.700000 -1.000000 0.276000
v 0.757143 -1.000000 0.326000
v 0.728571 -1.000000 0.326000

vt 0.371477 0.999525
vt 0.298037 0.824042
vt 0.371477 0.808089
vt 0.298037 0.983572
vt 0.298037 0.824042
vt 0.371477 0.999525
vt 0.901728 0.816364
vt 0.828288 0.640881
vt 0.901728 0.624927
vt 0.828288 0.800411
vt 0.828288 0.640881
vt 0.901728 0.816364
vt 0.074866 0.808089
vt 0.148306 0.983572
vt 0.074866 0.999525
vt 0.148306 0.824042
vt 0.148306 0.983572
vt 0.074866 0.808089
vt 0.827338 0.816364
vt 0.753898 0.640881
vt 0.827338 0.624927
vt 0.753898 0.800411
vt 0.753898 0.640881
vt 0.827338 0.816364
vt 0.223646 0.808089
vt 0.297086 0.983572
vt 0.223646 0.999525
vt 0.297086 0.824042
vt 0.297086 0.983572
vt 0.223646 0.808089
vt 0.073915 0.999525
vt 0.000475 0.824042
vt 0.073915 0.808089
vt 0.000475 0.983572
vt 0.000475 0.824042
vt 0.073915 0.999525
vt 0.683622 0.873795
vt 0.752948 0.653643
vt 0.752948 0.845079
vt 0.683622 0.624927
vt 0.752948 0.653643
vt 0.683622 0.873795
vt 0.222696 0.999525
vt 0.149256 0.824042
vt 0.222696 0.808089
vt 0.149256 0.983572
vt 0.149256 0.824042
vt 0.222696 0.999525
vt 0.976119 0.816364
vt 0.902679 0.640881
vt 0.976119 0.624927
vt 0.902679 0.800411
vt 0.902679 0.640881
vt 0.976119 0.816364
vt 0.113280 0.807138
vt 0.272810 0.421998
vt 0.385615 0.694333
vt 0.935094 0.000475
vt 0.865769 0.220627
vt 0.865769 0.029191
vt 0.935094 0.249342
vt 0.865769 0.220627
vt 0.935094 0.000475
vt 0.865769 0.499160
vt 0.935094 0.279008
vt 0.935094 0.470444
vt 0.865769 0.250292
vt 0.935094 0.279008
vt 0.865769 0.499160
vt 0.844021 0.500110
vt 0.774696 0.720262
vt 0.774696 0.528825
vt 0.844021 0.748977
vt 0.774696 0.720262
vt 0.844021 0.500110
vt 0.915247 0.748977
vt 0.984572 0.528825
vt 0.984572 0.720262
vt 0.915247 0.500110
vt 0.984572 0.528825
vt 0.915247 0.748977
vt 0.661875 0.624927
vt 0.592549 0.845079
vt 0.592549 0.653643
vt 0.661875 0.873794
vt 0.592549 0.845079
vt 0.661875 0.624927
vt 0.914296 0.500110
vt 0.844971 0.720262
vt 0.844971 0.528825
vt 0.914296 0.748977
vt 0.844971 0.720262
vt 0.914296 0.500110
vt 0.576599 0.573253
vt 0.507274 0.793405
vt 0.507274 0.601969
vt 0.576599 0.822121
vt 0.507274 0.793405
vt 0.576599 0.573253
vt 0.339636 0.498210
vt 0.381324 0.249343
vt 0.381324 0.498210
vt 0.339636 0.249343
vt 0.381324 0.249343
vt 0.339636 0.498210
vt 0.339637 0.995943
vt 0.381324 0.747076
vt 0.381324 0.995943
vt 0.339636 0.747076
vt 0.381324 0.747076
vt 0.339637 0.995943
vt 0.296998 0.498210
vt 0.338686 0.249343
vt 0.338686 0.498210
vt 0.296998 0.249343
vt 0.338686 0.249343
vt 0.296998 0.498210
vt 0.296999 0.995943
vt 0.338686 0.747076
vt 0.338686 0.995943
vt 0.296999 0.747076
vt 0.338686 0.747076
vt 0.296999 0.995943
vt 0.339636 0.249343
vt 0.381324 0.000475
vt 0.381324 0.249343
vt 0.339636 0.000475
vt 0.381324 0.000475
vt 0.339636 0.249343
vt 0.339636 0.747076
vt 0.381324 0.498210
vt 0.381324 0.747076
vt 0.339636 0.498210
vt 0.381324 0.498210
vt 0.339636 0.747076
vt 0.296998 0.249343
vt 0.338686 0.000475
vt 0.338686 0.249343
vt 0.296999 0.000475
vt 0.338686 0.000475
vt 0.296998 0.249343
vt 0.296999 0.747076
vt 0.338686 0.498210
vt 0.338686 0.747076
vt 0.296998 0.498210
vt 0.338686 0.498210
vt 0.296999 0.747076
vt 0.619603 0.213798
vt 0.529480 0.002261
vt 0.529480 0.251128
vt 0.619603 0.039591
vt 0.529480 0.002261
vt 0.619603 0.213798
vt 0.619603 0.038641
vt 0.529480 0.250178
vt 0.529480 0.001311
vt 0.619603 0.212848
vt 0.529480 0.250178
vt 0.619603 0.038641
vt 0.619603 0.212848
vt 0.529480 0.001311
vt 0.529480 0.250178
vt 0.619603 0.038641
vt 0.529480 0.001311
vt 0.619603 0.212848
vt 0.619603 0.212848
vt 0.529480 0.001311
vt 0.529480 0.250178
vt 0.619603 0.038641
vt 0.529480 0.001311
vt 0.619603 0.212848
vt 0.619603 0.039591
vt 0.529480 0.251128
vt 0.529480 0.002261
vt 0.619603 0.213798
vt 0.529480 0.251128
vt 0.619603 0.039591
vt 0.619603 0.212848
vt 0.529480 0.001311
vt 0.529480 0.250178
vt 0.619603 0.038641
vt 0.529480 0.001311
vt 0.619603 0.212848
vt 0.619603 0.038641
vt 0.529480 0.250178
vt 0.529480 0.001311
vt 0.619603 0.212848
vt 0.529480 0.250178
vt 0.619603 0.038641
vt 0.619603 0.039591
vt 0.529480 0.251128
vt 0.529480 0.002261
vt 0.619603 0.213798
vt 0.529480 0.251128
vt 0.619603 0.039591
vt 0.466599 0.348889
vt 0.424912 0.523096
vt 0.424912 0.348889
vt 0.466599 0.523096
vt 0.424912 0.523096
vt 0.466599 0.348889
vt 0.423961 0.174682
vt 0.382274 0.348890
vt 0.382274 0.174682
vt 0.423961 0.348890
vt 0.382274 0.348890
vt 0.423961 0.174682
vt 0.423961 0.523096
vt 0.382274 0.697303
vt 0.382274 0.523096
vt 0.423961 0.697303
vt 0.382274 0.697303
vt 0.423961 0.523096
vt 0.466599 0.174682
vt 0.424912 0.348889
vt 0.424912 0.174682
vt 0.466599 0.348889
vt 0.424912 0.348889
vt 0.466599 0.174682
vt 0.466599 0.523096
vt 0.424912 0.697303
vt 0.424912 0.523096
vt 0.466599 0.697303
vt 0.424912 0.697303
vt 0.466599 0.523096
vt 0.423961 0.000475
vt 0.382274 0.174682
vt 0.382274 0.000475
vt 0.423961 0.174682
vt 0.382274 0.174682
vt 0.423961 0.000475
vt 0.423961 0.348890
vt 0.382274 0.523096
vt 0.382274 0.348890
vt 0.423961 0.523096
vt 0.382274 0.523096
vt 0.423961 0.348890
vt 0.466599 0.000475
vt 0.424912 0.174682
vt 0.424912 0.000475
vt 0.466599 0.174682
vt 0.424912 0.174682
vt 0.466599 0.000475
vt 0.186158 0.437975
vt 0.360365 0.858548
vt 0.062975 0.735365
vt 0.360365 0.858548
vt 0.186158 0.437975
vt 0.360365 0.437975
vt 0.360365 0.858548
vt 0.360365 0.437975
vt 0.483548 0.561158
vt 0.360365 0.858548
vt 0.483548 0.561158
vt 0.483548 0.735365
vt 0.062975 0.735365
vt 0.360365 0.858548
vt 0.186158 0.858548
vt 0.186158 0.437975
vt 0.062975 0.735365
vt 0.062975 0.561158
vt 0.000475 0.534803
vt 0.113280 0.807138
vt 0.000475 0.694333
vt 0.272810 0.421998
vt 0.000475 0.534803
vt 0.113280 0.421998
vt 0.385615 0.694333
vt 0.272810 0.421998
vt 0.385615 0.534803
vt 0.113280 0.807138
vt 0.385615 0.694333
vt 0.272810 0.807138
vt 0.272810 0.421998
vt 0.113280 0.807138
vt 0.000475 0.534803
vt 0.960716 0.551310
vt 0.321018 0.583295
vt 0.960716 0.583296
vt 0.321018 0.551311
vt 0.321018 0.583295
vt 0.960716 0.551310
vt 0.160626 0.280103
vt 0.280570 0.360065
vt 0.320551 0.280103
vt 0.200607 0.360066
vt 0.280570 0.360065
vt 0.160626 0.280103
vt 0.960716 0.518858
vt 0.321018 0.550843
vt 0.960716 0.550844
vt 0.321018 0.518858
vt 0.321018 0.550843
vt 0.960716 0.518858
vt 0.497403 0.324794
vt 0.417440 0.356779
vt 0.497403 0.356779
vt 0.417440 0.324794
vt 0.417440 0.356779
vt 0.497403 0.324794
vt 0.158031 0.000233
vt 0.237993 0.639934
vt 0.237993 0.000234
vt 0.158030 0.639934
vt 0.237993 0.639934
vt 0.158031 0.000233
vt 0.280570 0.999766
vt 0.200607 0.360066
vt 0.200608 0.999766
vt 0.280570 0.360065
vt 0.200607 0.360066
vt 0.280570 0.999766
vt 0.320551 0.280103
vt 0.274858 0.240122
vt 0.252012 0.240122
vt 0.417440 0.234927
vt 0.449425 0.324327
vt 0.449425 0.234927
vt 0.417440 0.324327
vt 0.449425 0.324327
vt 0.417440 0.234927
vt 0.600888 0.615748
vt 0.690289 0.583763
vt 0.600888 0.583763
vt 0.690289 0.615748
vt 0.690289 0.583763
vt 0.600888 0.615748
vt 0.277974 0.719897
vt 0.158030 0.639934
vt 0.118049 0.719897
vt 0.237993 0.639934
vt 0.158030 0.639934
vt 0.277974 0.719897
vt 0.232281 0.999767
vt 0.209434 0.759878
vt 0.209434 0.999767
vt 0.232281 0.759878
vt 0.209434 0.759878
vt 0.232281 0.999767
vt 0.417440 0.194945
vt 0.449425 0.234927
vt 0.449425 0.194945
vt 0.417440 0.234927
vt 0.449425 0.234927
vt 0.417440 0.194945
vt 0.560906 0.615748
vt 0.600888 0.583763
vt 0.560906 0.583763
vt 0.600888 0.615748
vt 0.600888 0.583763
vt 0.560906 0.615748
vt 0.118049 0.719897
vt 0.163742 0.759878
vt 0.186588 0.759878
vt 0.118049 0.719897
vt 0.118049 0.759878
vt 0.140895 0.759878
vt 0.277974 0.999766
vt 0.255127 0.759878
vt 0.255127 0.999766
vt 0.277974 0.759878
vt 0.255127 0.759878
vt 0.277974 0.999766
vt 0.440754 0.421683
vt 0.463600 0.389698
vt 0.440754 0.389698
vt 0.463600 0.421683
vt 0.463600 0.389698
vt 0.440754 0.421683
vt 0.417440 0.032218
vt 0.657328 0.000234
vt 0.417440 0.000233
vt 0.657328 0.032219
vt 0.657328 0.000234
vt 0.417440 0.032218
vt 0.417440 0.454135
vt 0.440287 0.422150
vt 0.417440 0.422150
vt 0.440287 0.454135
vt 0.440287 0.422150
vt 0.417440 0.454135
vt 0.206319 0.000234
vt 0.229166 0.240122
vt 0.229166 0.000233
vt 0.206319 0.240122
vt 0.229166 0.240122
vt 0.206319 0.000234
vt 0.440754 0.389231
vt 0.463600 0.357246
vt 0.440754 0.357246
vt 0.463600 0.389231
vt 0.463600 0.357246
vt 0.440754 0.389231
vt 0.417440 0.389231
vt 0.440287 0.357246
vt 0.417440 0.357246
vt 0.440287 0.389231
vt 0.440287 0.357246
vt 0.417440 0.389231
vt 0.449892 0.226930
vt 0.472739 0.194945
vt 0.449892 0.194945
vt 0.472739 0.226930
vt 0.472739 0.194945
vt 0.449892 0.226930
vt 0.440754 0.454135
vt 0.463600 0.422150
vt 0.440754 0.422150
vt 0.463600 0.454135
vt 0.463600 0.422150
vt 0.440754 0.454135
vt 0.417440 0.421683
vt 0.440287 0.389698
vt 0.417440 0.389698
vt 0.440287 0.421683
vt 0.440287 0.389698
vt 0.417440 0.421683
vt 0.321018 0.648200
vt 0.560906 0.616215
vt 0.321018 0.616215
vt 0.560906 0.648200
vt 0.560906 0.616215
vt 0.321018 0.648200
vt 0.160626 0.000234
vt 0.183473 0.240122
vt 0.183472 0.000234
vt 0.160626 0.240122
vt 0.183473 0.240122
vt 0.160626 0.000234
vt 0.417440 0.194478
vt 0.657328 0.162493
vt 0.417440 0.162493
vt 0.657328 0.194478
vt 0.657328 0.162493
vt 0.417440 0.194478
vt 0.321018 0.615748
vt 0.560906 0.583763
vt 0.321018 0.583763
vt 0.560906 0.615748
vt 0.560906 0.583763
vt 0.321018 0.615748
vt 0.297705 0.000234
vt 0.320551 0.240122
vt 0.320551 0.000234
vt 0.297705 0.240122
vt 0.320551 0.240122
vt 0.297705 0.000234
vt 0.417440 0.162026
vt 0.657328 0.130041
vt 0.417440 0.130041
vt 0.657328 0.162026
vt 0.657328 0.130041
vt 0.417440 0.162026
vt 0.140895 0.999766
vt 0.118049 0.759878
vt 0.118048 0.999766
vt 0.140895 0.759878
vt 0.118049 0.759878
vt 0.140895 0.999766
vt 0.417440 0.129574
vt 0.657328 0.097589
vt 0.417440 0.097589
vt 0.657328 0.129574
vt 0.657328 0.097589
vt 0.417440 0.129574
vt 0.252012 0.000234
vt 0.274858 0.240122
vt 0.274858 0.000234
vt 0.252012 0.240122
vt 0.274858 0.240122
vt 0.252012 0.000234
vt 0.417440 0.097122
vt 0.657328 0.065137
vt 0.417440 0.065138
vt 0.657328 0.097122
vt 0.657328 0.065137
vt 0.417440 0.097122
vt 0.186588 0.999766
vt 0.163742 0.759878
vt 0.163741 0.999766
vt 0.186588 0.759878
vt 0.163742 0.759878
vt 0.186588 0.999766
vt 0.417440 0.064670
vt 0.657328 0.032685
vt 0.417440 0.032686
vt 0.657328 0.064670
vt 0.657328 0.032685
vt 0.417440 0.064670
vt 0.207040 0.129773
vt 0.191047 0.259312
vt 0.279006 0.000233
vt 0.263813 0.000233
vt 0.207040 0.129773
vt 0.279006 0.000233
vt 0.279006 0.518391
vt 0.279006 0.000233
vt 0.191047 0.259312
vt 0.353003 0.518391
vt 0.416973 0.518391
vt 0.321018 0.388852
vt 0.279006 0.518391
vt 0.191047 0.259312
vt 0.183051 0.388852
vt 0.277974 0.719897
vt 0.118049 0.719897
vt 0.186588 0.759878
vt 0.118049 0.719897
vt 0.140895 0.759878
vt 0.163742 0.759878
vt 0.277974 0.759878
vt 0.277974 0.719897
vt 0.255127 0.759878
vt 0.209434 0.759878
vt 0.232281 0.759878
vt 0.277974 0.719897
vt 0.186588 0.759878
vt 0.209434 0.759878
vt 0.277974 0.719897
vt 0.255127 0.759878
vt 0.277974 0.719897
vt 0.232281 0.759878
vt 0.320551 0.280103
vt 0.320551 0.240122
vt 0.297705 0.240122
vt 0.160626 0.280103
vt 0.320551 0.280103
vt 0.252012 0.240122
vt 0.320551 0.280103
vt 0.297705 0.240122
vt 0.274858 0.240122
vt 0.160626 0.240122
vt 0.160626 0.280103
vt 0.183473 0.240122
vt 0.229166 0.240122
vt 0.206319 0.240122
vt 0.160626 0.280103
vt 0.252012 0.240122
vt 0.229166 0.240122
vt 0.160626 0.280103
vt 0.183473 0.240122
vt 0.160626 0.280103
vt 0.206319 0.240122
vt 0.941120 0.205920
vt 0.058880 0.264736
vt 0.941120 0.264736
vt 0.058880 0.205920
vt 0.058880 0.264736
vt 0.941120 0.205920
vt 0.058880 0.058880
vt 0.941120 0.000064
vt 0.058880 0.000064
vt 0.941120 0.058880
vt 0.941120 0.000064
vt 0.058880 0.058880
vt 0.000064 0.264736
vt 0.058880 0.411776
vt 0.058880 0.264736
vt 0.000064 0.411776
vt 0.058880 0.411776
vt 0.000064 0.264736
vt 0.058880 0.411776
vt 0.941120 0.264736
vt 0.058880 0.264736
vt 0.941120 0.411776
vt 0.941120 0.264736
vt 0.058880 0.411776
vt 0.058880 0.205920
vt 0.941120 0.058880
vt 0.058880 0.058880
vt 0.941120 0.205920
vt 0.941120 0.058880
vt 0.058880 0.205920
vt 0.999936 0.411776
vt 0.941120 0.264736
vt 0.941120 0.411776
vt 0.999936 0.264736
vt 0.941120 0.264736
vt 0.999936 0.411776

vn -0.325838 -0.524428 0.786641
vn -0.325838 -0.524428 0.786641
vn -0.325838 -0.524428 0.786641
vn -0.325838 -0.524427 0.786642
vn -0.325838 -0.524427 0.786642
vn -0.325838 -0.524427 0.786642
vn -0.786642 -0.524428 0.325838
vn -0.786642 -0.524428 0.325838
vn -0.786642 -0.524428 0.325838
vn -0.786642 -0.524428 0.325837
vn -0.786642 -0.524428 0.325837
vn -0.786642 -0.524428 0.325837
vn -0.786642 -0.524428 -0.325838
vn -0.786642 -0.524428 -0.325838
vn -0.786642 -0.524428 -0.325838
vn -0.786642 -0.524428 -0.325837
vn -0.786642 -0.524428 -0.325837
vn -0.786642 -0.524428 -0.325837
vn -0.325838 -0.524428 -0.786642
vn -0.325838 -0.524428 -0.786642
vn -0.325838 -0.524428 -0.786642
vn -0.325838 -0.524428 -0.786642
vn -0.325838 -0.524428 -0.786642
vn -0.325838 -0.524428 -0.786642
vn 0.325838 -0.524428 -0.786642
vn 0.325838 -0.524428 -0.786642
vn 0.325838 -0.524428 -0.786642
vn 0.325838 -0.524428 -0.786642
vn 0.325838 -0.524428 -0.786642
vn 0.325838 -0.524428 -0.786642
vn 0.786641 -0.524428 -0.325838
vn 0.786641 -0.524428 -0.325838
vn 0.786641 -0.524428 -0.325838
vn 0.786642 -0.524428 -0.325838
vn 0.786642 -0.524428 -0.325838
vn 0.786642 -0.524428 -0.325838
vn -0.000000 -1.000000 0.000000
vn -0.000000 -1.000000 0.000000
vn -0.000000 -1.000000 0.000000
vn -0.000000 -1.000000 0.000000
vn -0.000000 -1.000000 0.000000
vn -0.000000 -1.000000 0.000000
vn 0.786642 -0.524428 0.325838
vn 0.786642 -0.524428 0.325838
vn 0.786642 -0.524428 0.325838
vn 0.786641 -0.524428 0.325838
vn 0.786641 -0.524428 0.325838
vn 0.786641 -0.524428 0.325838
vn 0.325838 -0.524428 0.786642
vn 0.325838 -0.524428 0.786642
vn 0.325838 -0.524428 0.786642
vn 0.325838 -0.524428 0.786642
vn 0.325838 -0.524428 0.786642
vn 0.325838 -0.524428 0.786642
vn -0.000000 -1.000000 0.000000
vn -0.000000 -1.000000 0.000000
vn -0.000000 -1.000000 0.000000
vn -0.000000 -1.000000 0.000000
vn -0.000000 -1.000000 0.000000
vn -0.000000 -1.000000 0.000000
vn -0.000000 -1.000000 0.000000
vn -0.000000 -1.000000 0.000000
vn -0.000000 -1.000000 0.000000
vn -0.000000 -1.000000 0.000000
vn -0.000000 -1.000000 0.000000
vn -0.000000 -1.000000 0.000000
vn -0.000000 -1.000000 0.000000
vn -0.000000 -1.000000 0.000000
vn -0.000000 -1.000000 0.000000
vn -0.000000 -1.000000 0.000000
vn -0.000000 -1.000000 0.000000
vn -0.000000 -1.000000 0.000000
vn -0.000000 -1.000000 0.000000
vn -0.000000 -1.000000 0.000000
vn -0.000000 -1.000000 0.000000
vn -0.000001 -1.000000 0.000000
vn -0.000001 -1.000000 0.000000
vn -0.000001 -1.000000 0.000000
vn -0.000000 -1.000000 0.000000
vn -0.000000 -1.000000 0.000000
vn -0.000000 -1.000000 0.000000
vn 0.000000 -1.000000 0.000000
vn 0.000000 -1.000000 0.000000
vn 0.000000 -1.000000 0.000000
vn -0.000000 -1.000000 0.000000
vn -0.000000 -1.000000 0.000000
vn -0.000000 -1.000000 0.000000
vn 0.000000 -1.000000 0.000000
vn 0.000000 -1.000000 0.000000
vn 0.000000 -1.000000 0.000000
vn 0.000000 -1.000000 0.000000
vn 0.000000 -1.000000 0.000000
vn 0.000000 -1.000000 0.000000
vn -0.000000 -1.000000 0.000000
vn -0.000000 -1.000000 0.000000
vn -0.000000 -1.000000 0.000000
vn -0.000000 -1.000000 0.000000
vn -0.000000 -1.000000 0.000000
vn -0.000000 -1.000000 0.000000
vn 0.923880 0.000000 0.382683
vn 0.923880 0.000000 0.382683
vn 0.923880 0.000000 0.382683
vn 0.923880 0.000000 0.382683
vn 0.923880 0.000000 0.382683
vn 0.923880 0.000000 0.382683
vn 0.382683 0.000000 -0.923880
vn 0.382683 0.000000 -0.923880
vn 0.382683 0.000000 -0.923880
vn 0.382683 0.000000 -0.923880
vn 0.382683 0.000000 -0.923880
vn 0.382683 0.000000 -0.923880
vn -0.923880 0.000000 -0.382683
vn -0.923880 0.000000 -0.382683
vn -0.923880 0.000000 -0.382683
vn -0.923880 0.000000 -0.382683
vn -0.923880 0.000000 -0.382683
vn -0.923880 0.000000 -0.382683
vn -0.382683 0.000000 0.923880
vn -0.382683 0.000000 0.923880
vn -0.382683 0.000000 0.923880
vn -0.382683 0.000000 0.923880
vn -0.382683 0.000000 0.923880
vn -0.382683 0.000000 0.923880
vn 0.382683 0.000000 0.923879
vn 0.382683 0.000000 0.923879
vn 0.382683 0.000000 0.923879
vn 0.382683 0.000000 0.923879
vn 0.382683 0.000000 0.923879
vn 0.382683 0.000000 0.923879
vn 0.923880 0.000000 -0.382683
vn 0.923880 0.000000 -0.382683
vn 0.923880 0.000000 -0.382683
vn 0.923880 0.000000 -0.382683
vn 0.923880 0.000000 -0.382683
vn 0.923880 0.000000 -0.382683
vn -0.382683 0.000000 -0.923879
vn -0.382683 0.000000 -0.923879
vn -0.382683 0.000000 -0.923879
vn -0.382683 0.000000 -0.923879
vn -0.382683 0.000000 -0.923879
vn -0.382683 0.000000 -0.923879
vn -0.923879 0.000000 0.382684
vn -0.923879 0.000000 0.382684
vn -0.923879 0.000000 0.382684
vn -0.923880 0.000000 0.382683
vn -0.923880 0.000000 0.382683
vn -0.923880 0.000000 0.382683
vn -0.000000 1.000000 0.000000
vn -0.000000 1.000000 0.000000
vn -0.000000 1.000000 0.000000
vn -0.000000 1.000000 0.000000
vn -0.000000 1.000000 0.000000
vn -0.000000 1.000000 0.000000
vn 0.000000 1.000000 0.000000
vn 0.000000 1.000000 0.000000
vn 0.000000 1.000000 0.000000
vn -0.000000 1.000000 0.000000
vn -0.000000 1.000000 0.000000
vn -0.000000 1.000000 0.000000
vn -0.000000 1.000000 0.000000
vn -0.000000 1.000000 0.000000
vn -0.000000 1.000000 0.000000
vn -0.000000 1.000000 0.000000
vn -0.000000 1.000000 0.000000
vn -0.000000 1.000000 0.000000
vn 0.000000 1.000000 0.000000
vn 0.000000 1.000000 0.000000
vn 0.000000 1.000000 0.000000
vn -0.000000 1.000000 0.000000
vn -0.000000 1.000000 0.000000
vn -0.000000 1.000000 0.000000
vn -0.000000 1.000000 0.000000
vn -0.000000 1.000000 0.000000
vn -0.000000 1.000000 0.000000
vn 0.000000 1.000000 0.000000
vn 0.000000 1.000000 0.000000
vn 0.000000 1.000000 0.000000
vn -0.000000 1.000000 0.000000
vn -0.000000 1.000000 0.000000
vn -0.000000 1.000000 0.000000
vn -0.000000 1.000000 0.000000
vn -0.000000 1.000000 0.000000
vn -0.000000 1.000000 0.000000
vn -0.000000 1.000000 0.000000
vn -0.000000 1.000000 0.000000
vn -0.000000 1.000000 0.000000
vn 0.000000 1.000000 0.000000
vn 0.000000 1.000000 0.000000
vn 0.000000 1.000000 0.000000
vn -0.000000 1.000000 0.000000
vn -0.000000 1.000000 0.000000
vn -0.000000 1.000000 0.000000
vn -0.000000 1.000000 0.000000
vn -0.000000 1.000000 0.000000
vn -0.000000 1.000000 0.000000
vn -0.923880 0.000000 -0.382683
vn -0.923880 0.000000 -0.382683
vn -0.923880 0.000000 -0.382683
vn -0.923880 0.000000 -0.382683
vn -0.923880 0.000000 -0.382683
vn -0.923880 0.000000 -0.382683
vn 0.923880 0.000000 -0.382683
vn 0.923880 0.000000 -0.382683
vn 0.923880 0.000000 -0.382683
vn 0.923879 0.000000 -0.382684
vn 0.923879 0.000000 -0.382684
vn 0.923879 0.000000 -0.382684
vn 0.382684 0.000000 0.923879
vn 0.382684 0.000000 0.923879
vn 0.382684 0.000000 0.923879
vn 0.382683 0.000000 0.923880
vn 0.382683 0.000000 0.923880
vn 0.382683 0.000000 0.923880
vn -0.923880 0.000000 0.382683
vn -0.923880 0.000000 0.382683
vn -0.923880 0.000000 0.382683
vn -0.923880 0.000000 0.382683
vn -0.923880 0.000000 0.382683
vn -0.923880 0.000000 0.382683
vn -0.382684 0.000000 -0.923879
vn -0.382684 0.000000 -0.923879
vn -0.382684 0.000000 -0.923879
vn -0.382683 0.000000 -0.923880
vn -0.382683 0.000000 -0.923880
vn -0.382683 0.000000 -0.923880
vn 0.382684 0.000000 -0.923880
vn 0.382684 0.000000 -0.923880
vn 0.382684 0.000000 -0.923880
vn 0.382683 0.000000 -0.923880
vn 0.382683 0.000000 -0.923880
vn 0.382683 0.000000 -0.923880
vn 0.923879 0.000000 0.382684
vn 0.923879 0.000000 0.382684
vn 0.923879 0.000000 0.382684
vn 0.923879 0.000000 0.382684
vn 0.923879 0.000000 0.382684
vn 0.923879 0.000000 0.382684
vn -0.382684 0.000000 0.923879
vn -0.382684 0.000000 0.923879
vn -0.382684 0.000000 0.923879
vn -0.382683 0.000000 0.923880
vn -0.382683 0.000000 0.923880
vn -0.382683 0.000000 0.923880
vn -0.000000 1.000000 0.000000
vn -0.000000 1.000000 0.000000
vn -0.000000 1.000000 0.000000
vn 0.000000 1.000000 0.000000
vn 0.000000 1.000000 0.000000
vn 0.000000 1.000000 0.000000
vn 0.000000 1.000000 0.000000
vn 0.000000 1.000000 0.000000
vn 0.000000 1.000000 0.000000
vn -0.000000 1.000000 0.000000
vn -0.000000 1.000000 0.000000
vn -0.000000 1.000000 0.000000
vn -0.000000 1.000000 0.000000
vn -0.000000 1.000000 0.000000
vn -0.000000 1.000000 0.000000
vn -0.000000 1.000000 0.000000
vn -0.000000 1.000000 0.000000
vn -0.000000 1.000000 0.000000
vn -0.000000 -1.000000 0.000000
vn -0.000000 -1.000000 0.000000
vn -0.000000 -1.000000 0.000000
vn -0.000000 -1.000000 0.000000
vn -0.000000 -1.000000 0.000000
vn -0.000000 -1.000000 0.000000
vn -0.000000 -1.000000 0.000000
vn -0.000000 -1.000000 0.000000
vn -0.000000 -1.000000 0.000000
vn -0.000000 -1.000000 0.000000
vn -0.000000 -1.000000 0.000000
vn -0.000000 -1.000000 0.000000
vn -0.000000 -1.000000 0.000000
vn -0.000000 -1.000000 0.000000
vn -0.000000 -1.000000 0.000000
vn 1.000000 0.000000 0.000000
vn 1.000000 0.000000 0.000000
vn 1.000000 0.000000 0.000000
vn 1.000000 0.000000 0.000000
vn 1.000000 0.000000 0.000000
vn 1.000000 0.000000 0.000000
vn -0.000000 -1.000000 0.000000
vn -0.000000 -1.000000 0.000000
vn -0.000000 -1.000000 0.000000
vn -0.000000 -1.000000 0.000000
vn -0.000000 -1.000000 0.000000
vn -0.000000 -1.000000 0.000000
vn -1.000000 0.000000 0.000000
vn -1.000000 0.000000 0.000000
vn -1.000000 0.000000 0.000000
vn -1.000000 0.000000 0.000000
vn -1.000000 0.000000 0.000000
vn -1.000000 0.000000 0.000000
vn -0.000000 0.000000 -1.000000
vn -0.000000 0.000000 -1.000000
vn -0.000000 0.000000 -1.000000
vn -0.000000 0.000000 -1.000000
vn -0.000000 0.000000 -1.000000
vn -0.000000 0.000000 -1.000000
vn -0.000000 1.000000 0.000000
vn -0.000000 1.000000 0.000000
vn -0.000000 1.000000 0.000000
vn -0.000000 1.000000 0.000000
vn -0.000000 1.000000 0.000000
vn -0.000000 1.000000 0.000000
vn -0.000000 -1.000000 0.000000
vn -0.000000 -1.000000 0.000000
vn -0.000000 -1.000000 0.000000
vn -0.000000 -1.000000 0.000000
vn -0.000000 -1.000000 0.000000
vn -0.000000 -1.000000 0.000000
vn -0.000000 -1.000000 0.000000
vn -0.000000 -1.000000 0.000000
vn -0.000000 -1.000000 0.000000
vn 0.894427 0.000000 -0.447214
vn 0.894427 0.000000 -0.447214
vn 0.894427 0.000000 -0.447214
vn 0.894427 0.000000 -0.447214
vn 0.894427 0.000000 -0.447214
vn 0.894427 0.000000 -0.447214
vn -0.894427 0.000000 -0.447214
vn -0.894427 0.000000 -0.447214
vn -0.894427 0.000000 -0.447214
vn -0.894427 0.000000 -0.447214
vn -0.894427 0.000000 -0.447214
vn -0.894427 0.000000 -0.447214
vn -0.000000 1.000000 0.000000
vn -0.000000 1.000000 0.000000
vn -0.000000 1.000000 0.000000
vn -0.000000 1.000000 0.000000
vn -0.000000 1.000000 0.000000
vn -0.000000 1.000000 0.000000
vn -0.000000 1.000000 0.000000
vn -0.000000 1.000000 0.000000
vn -0.000000 1.000000 0.000000
vn -0.000000 1.000000 0.000000
vn -0.000000 1.000000 0.000000
vn -0.000000 1.000000 0.000000
vn 1.000000 0.000000 0.000000
vn 1.000000 0.000000 0.000000
vn 1.000000 0.000000 0.000000
vn 1.000000 0.000000 0.000000
vn 1.000000 0.000000 0.000000
vn 1.000000 0.000000 0.000000
vn -1.000000 0.000000 0.000000
vn -1.000000 0.000000 0.000000
vn -1.000000 0.000000 0.000000
vn -1.000000 0.000000 0.000000
vn -1.000000 0.000000 0.000000
vn -1.000000 0.000000 0.000000
vn -0.000000 1.000000 0.000000
vn -0.000000 1.000000 0.000000
vn -0.000000 1.000000 0.000000
vn -0.000000 1.000000 0.000000
vn -0.000000 1.000000 0.000000
vn -0.000000 1.000000 0.000000
vn -0.000000 1.000000 0.000000
vn -0.000000 1.000000 0.000000
vn -0.000000 1.000000 0.000000
vn -0.000000 1.000000 0.000000
vn -0.000000 1.000000 0.000000
vn -0.000000 1.000000 0.000000
vn -0.000000 0.000000 1.000000
vn -0.000000 0.000000 1.000000
vn -0.000000 0.000000 1.000000
vn -0.000000 0.000000 1.000000
vn -0.000000 0.000000 1.000000
vn -0.000000 0.000000 1.000000
vn 1.000000 0.000000 0.000000
vn 1.000000 0.000000 0.000000
vn 1.000000 0.000000 0.000000
vn 1.000000 0.000000 0.000000
vn 1.000000 0.000000 0.000000
vn 1.000000 0.000000 0.000000
vn -0.000000 0.000000 1.000000
vn -0.000000 0.000000 1.000000
vn -0.000000 0.000000 1.000000
vn -0.000000 0.000000 1.000000
vn -0.000000 0.000000 1.000000
vn -0.000000 0.000000 1.000000
vn -0.000000 -1.000000 0.000000
vn -0.000000 -1.000000 0.000000
vn -0.000000 -1.000000 0.000000
vn -0.000000 -1.000000 0.000000
vn -0.000000 -1.000000 0.000000
vn -0.000000 -1.000000 0.000000
vn -0.000000 0.000000 1.000000
vn -0.000000 0.000000 1.000000
vn -0.000000 0.000000 1.000000
vn -0.000000 0.000000 1.000000
vn -0.000000 0.000000 1.000000
vn -0.000000 0.000000 1.000000
vn -0.000000 0.000000 1.000000
vn -0.000000 0.000000 1.000000
vn -0.000000 0.000000 1.000000
vn -0.000000 0.000000 1.000000
vn -0.000000 0.000000 1.000000
vn -0.000000 0.000000 1.000000
vn -0.000000 0.000000 1.000000
vn -0.000000 0.000000 1.000000
vn -0.000000 0.000000 1.000000
vn -0.000000 0.000000 1.000000
vn -0.000000 0.000000 1.000000
vn -0.000000 0.000000 1.000000
vn -0.000000 0.000000 1.000000
vn -0.000000 0.000000 1.000000
vn -0.000000 0.000000 1.000000
vn -0.000000 0.000000 1.000000
vn -0.000000 0.000000 1.000000
vn -0.000000 0.000000 1.000000
vn -0.000000 0.000000 1.000000
vn -0.000000 0.000000 1.000000
vn -0.000000 0.000000 1.000000
vn -0.000000 0.000000 1.000000
vn -0.000000 0.000000 1.000000
vn -0.000000 0.000000 1.000000
vn -1.000000 -0.000001 0.000000
vn -1.000000 -0.000001 0.000000
vn -1.000000 -0.000001 0.000000
vn -1.000000 -0.000001 0.000000
vn -1.000000 -0.000001 0.000000
vn -1.000000 -0.000001 0.000000
vn -0.000000 -1.000000 0.000000
vn -0.000000 -1.000000 0.000000
vn -0.000000 -1.000000 0.000000
vn -0.000000 -1.000000 0.000000
vn -0.000000 -1.000000 0.000000
vn -0.000000 -1.000000 0.000000
vn 1.000000 0.000001 0.000000
vn 1.000000 0.000001 0.000000
vn 1.000000 0.000001 0.000000
vn 1.000000 0.000001 0.000000
vn 1.000000 0.000001 0.000000
vn 1.000000 0.000001 0.000000
vn -1.000000 0.000000 0.000000
vn -1.000000 0.000000 0.000000
vn -1.000000 0.000000 0.000000
vn -1.000000 0.000000 0.000000
vn -1.000000 0.000000 0.000000
vn -1.000000 0.000000 0.000000
vn -0.000000 -1.000000 0.000000
vn -0.000000 -1.000000 0.000000
vn -0.000000 -1.000000 0.000000
vn -0.000000 -1.000000 0.000000
vn -0.000000 -1.000000 0.000000
vn -0.000000 -1.000000 0.000000
vn -1.000000 -0.000001 0.000000
vn -1.000000 -0.000001 0.000000
vn -1.000000 -0.000001 0.000000
vn -1.000000 -0.000001 0.000000
vn -1.000000 -0.000001 0.000000
vn -1.000000 -0.000001 0.000000
vn -0.000000 1.000000 0.000000
vn -0.000000 1.000000 0.000000
vn -0.000000 1.000000 0.000000
vn -0.000000 1.000000 0.000000
vn -0.000000 1.000000 0.000000
vn -0.000000 1.000000 0.000000
vn 1.000000 0.000001 0.000000
vn 1.000000 0.000001 0.000000
vn 1.000000 0.000001 0.000000
vn 1.000000 0.000001 0.000000
vn 1.000000 0.000001 0.000000
vn 1.000000 0.000001 0.000000
vn -0.000000 -1.000000 0.000000
vn -0.000000 -1.000000 0.000000
vn -0.000000 -1.000000 0.000000
vn -0.000000 -1.000000 0.000000
vn -0.000000 -1.000000 0.000000
vn -0.000000 -1.000000 0.000000
vn -1.000000 -0.000001 0.000000
vn -1.000000 -0.000001 0.000000
vn -1.000000 -0.000001 0.000000
vn -1.000000 -0.000001 0.000000
vn -1.000000 -0.000001 0.000000
vn -1.000000 -0.000001 0.000000
vn -0.000000 1.000000 0.000000
vn -0.000000 1.000000 0.000000
vn -0.000000 1.000000 0.000000
vn -0.000000 1.000000 0.000000
vn -0.000000 1.000000 0.000000
vn -0.000000 1.000000 0.000000
vn 1.000000 0.000001 0.000000
vn 1.000000 0.000001 0.000000
vn 1.000000 0.000001 0.000000
vn 1.000000 0.000001 0.000000
vn 1.000000 0.000001 0.000000
vn 1.000000 0.000001 0.000000
vn -0.000000 1.000000 0.000000
vn -0.000000 1.000000 0.000000
vn -0.000000 1.000000 0.000000
vn -0.000000 1.000000 0.000000
vn -0.000000 1.000000 0.000000
vn -0.000000 1.000000 0.000000
vn -0.000001 1.000000 0.000000
vn -0.000001 1.000000 0.000000
vn -0.000001 1.000000 0.000000
vn -0.000000 1.000000 0.000000
vn -0.000000 1.000000 0.000000
vn -0.000000 1.000000 0.000000
vn 0.000001 1.000000 0.000000
vn 0.000001 1.000000 0.000000
vn 0.000001 1.000000 0.000000
vn -0.000000 1.000000 0.000000
vn -0.000000 1.000000 0.000000
vn -0.000000 1.000000 0.000000
vn -0.000000 1.000000 0.000000
vn -0.000000 1.000000 0.000000
vn -0.000000 1.000000 0.000000
vn -0.000000 1.000000 0.000000
vn -0.000000 1.000000 0.000000
vn -0.000000 1.000000 0.000000
vn -0.000000 1.000000 0.000000
vn -0.000000 1.000000 0.000000
vn -0.000000 1.000000 0.000000
vn -0.000000 1.000000 0.000000
vn -0.000000 1.000000 0.000000
vn -0.000000 1.000000 0.000000
vn -0.000000 1.000000 0.000000
vn -0.000000 1.000000 0.000000
vn -0.000000 1.000000 0.000000
vn -0.000000 -1.000000 0.000000
vn -0.000000 -1.000000 0.000000
vn -0.000000 -1.000000 0.000000
vn -0.000000 -1.000000 0.000000
vn -0.000000 -1.000000 0.000000
vn -0.000000 -1.000000 0.000000
vn -0.000000 -1.000000 0.000000
vn -0.000000 -1.000000 0.000000
vn -0.000000 -1.000000 0.000000
vn -0.000000 -1.000000 0.000000
vn -0.000000 -1.000000 0.000000
vn -0.000000 -1.000000 0.000000
vn -0.000000 -1.000000 0.000000
vn -0.000000 -1.000000 0.000000
vn -0.000000 -1.000000 0.000000
vn -0.000000 -1.000000 0.000000
vn -0.000000 -1.000000 0.000000
vn -0.000000 -1.000000 0.000000
vn -0.000000 -1.000000 0.000000
vn -0.000000 -1.000000 0.000000
vn -0.000000 -1.000000 0.000000
vn 1.000000 0.000000 0.000000
vn 1.000000 0.000000 0.000000
vn 1.000000 0.000000 0.000000
vn 1.000000 0.000000 0.000000
vn 1.000000 0.000000 0.000000
vn 1.000000 0.000000 0.000000
vn -1.000000 0.000000 0.000000
vn -1.000000 0.000000 0.000000
vn -1.000000 0.000000 0.000000
vn -1.000000 0.000000 0.000000
vn -1.000000 0.000000 0.000000
vn -1.000000 0.000000 0.000000
vn -0.000000 0.000000 -1.000000
vn -0.000000 0.000000 -1.000000
vn -0.000000 0.000000 -1.000000
vn -0.000000 0.000000 -1.000000
vn -0.000000 0.000000 -1.000000
vn -0.000000 0.000000 -1.000000
vn -0.000000 1.000000 0.000000
vn -0.000000 1.000000 0.000000
vn -0.000000 1.000000 0.000000
vn -0.000000 1.000000 0.000000
vn -0.000000 1.000000 0.000000
vn -0.000000 1.000000 0.000000
vn -0.000000 -1.000000 0.000000
vn -0.000000 -1.000000 0.000000
vn -0.000000 -1.000000 0.000000
vn -0.000000 -1.000000 0.000000
vn -0.000000 -1.000000 0.000000
vn -0.000000 -1.000000 0.000000
vn -0.000000 0.000000 1.000000
vn -0.000000 0.000000 1.000000
vn -0.000000 0.000000 1.000000
vn -0.000000 0.000000 1.000000
vn -0.000000 0.000000 1.000000
vn -0.000000 0.000000 1.000000

g Material.001
f 3/1/1 1/2/2 2/3/3
f 4/4/4 1/5/5 3/6/6
f 7/7/7 5/8/8 6/9/9
f 8/10/10 5/11/11 7/12/12
f 11/13/13 9/14/14 10/15/15
f 12/16/16 9/17/17 11/18/18
f 15/19/19 13/20/20 14/21/21
f 16/22/22 13/23/23 15/24/24
f 19/25/25 17/26/26 18/27/27
f 20/28/28 17/29/29 19/30/30
f 23/31/31 21/32/32 22/33/33
f 24/34/34 21/35/35 23/36/36
f 27/37/37 25/38/38 26/39/39
f 28/40/40 25/41/41 27/42/42
f 31/43/43 29/44/44 30/45/45
f 32/46/46 29/47/47 31/48/48
f 35/49/49 33/50/50 34/51/51
f 36/52/52 33/53/53 35/54/54
f 39/55/55 37/56/56 38/57/57
f 42/58/58 40/59/59 41/60/60
f 43/61/61 40/62/62 42/63/63
f 46/64/64 44/65/65 45/66/66
f 47/67/67 44/68/68 46/69/69
f 50/70/70 48/71/71 49/72/72
f 51/73/73 48/74/74 50/75/75
f 54/76/76 52/77/77 53/78/78
f 55/79/79 52/80/80 54/81/81
f 58/82/82 56/83/83 57/84/84
f 59/85/85 56/86/86 58/87/87
f 62/88/88 60/89/89 61/90/90
f 63/91/91 60/92/92 62/93/93
f 66/94/94 64/95/95 65/96/96
f 67/97/97 64/98/98 66/99/99
f 70/100/100 68/101/101 69/102/102
f 71/103/103 68/104/104 70/105/105
f 74/106/106 72/107/107 73/108/108
f 75/109/109 72/110/110 74/111/111
f 78/112/112 76/113/113 77/114/114
f 79/115/115 76/116/116 78/117/117
f 82/118/118 80/119/119 81/120/120
f 83/121/121 80/122/122 82/123/123
f 86/124/124 84/125/125 85/126/126
f 87/127/127 84/128/128 86/129/129
f 90/130/130 88/131/131 89/132/132
f 91/133/133 88/134/134 90/135/135
f 94/136/136 92/137/137 93/138/138
f 95/139/139 92/140/140 94/141/141
f 98/142/142 96/143/143 97/144/144
f 99/145/145 96/146/146 98/147/147
f 102/148/148 100/149/149 101/150/150
f 103/151/151 100/152/152 102/153/153
f 106/154/154 104/155/155 105/156/156
f 107/157/157 104/158/158 106/159/159
f 110/160/160 108/161/161 109/162/162
f 111/163/163 108/164/164 110/165/165
f 114/166/166 112/167/167 113/168/168
f 115/169/169 112/170/170 114/171/171
f 118/172/172 116/173/173 117/174/174
f 119/175/175 116/176/176 118/177/177
f 122/178/178 120/179/179 121/180/180
f 123/181/181 120/182/182 122/183/183
f 126/184/184 124/185/185 125/186/186
f 127/187/187 124/188/188 126/189/189
f 130/190/190 128/191/191 129/192/192
f 131/193/193 128/194/194 130/195/195
f 134/196/196 132/197/197 133/198/198
f 135/199/199 132/200/200 134/201/201
f 138/202/202 136/203/203 137/204/204
f 139/205/205 136/206/206 138/207/207
f 142/208/208 140/209/209 141/210/210
f 143/211/211 140/212/212 142/213/213
f 146/214/214 144/215/215 145/216/216
f 147/217/217 144/218/218 146/219/219
f 150/220/220 148/221/221 149/222/222
f 151/223/223 148/224/224 150/225/225
f 154/226/226 152/227/227 153/228/228
f 155/229/229 152/230/230 154/231/231
f 158/232/232 156/233/233 157/234/234
f 159/235/235 156/236/236 158/237/237
f 162/238/238 160/239/239 161/240/240
f 163/241/241 160/242/242 162/243/243
f 166/244/244 164/245/245 165/246/246
f 169/247/247 167/248/248 168/249/249
f 172/250/250 170/251/251 171/252/252
f 175/253/253 173/254/254 174/255/255
f 178/256/256 176/257/257 177/258/258
f 181/259/259 179/260/260 180/261/261
f 184/262/262 182/263/263 183/264/264
f 187/265/265 185/266/266 186/267/267
f 190/268/268 188/269/269 189/270/270
f 193/271/271 191/272/272 192/273/273
f 196/274/274 194/275/275 195/276/276

g Material
f 199/277/277 197/278/278 198/279/279
f 200/280/280 197/281/281 199/282/282
f 203/283/283 201/284/284 202/285/285
f 204/286/286 201/287/287 203/288/288
f 207/289/289 205/290/290 206/291/291
f 208/292/292 205/293/293 207/294/294
f 211/295/295 209/296/296 210/297/297
f 212/298/298 209/299/299 211/300/300
f 215/301/301 213/302/302 214/303/303
f 216/304/304 213/305/305 215/306/306
f 219/307/307 217/308/308 218/309/309
f 220/310/310 217/311/311 219/312/312
f 223/313/313 221/314/314 222/315/315
f 226/316/316 224/317/317 225/318/318
f 227/319/319 224/320/320 226/321/321
f 230/322/322 228/323/323 229/324/324
f 231/325/325 228/326/326 230/327/327
f 234/328/328 232/329/329 233/330/330
f 235/331/331 232/332/332 234/333/333
f 238/334/334 236/335/335 237/336/336
f 239/337/337 236/338/338 238/339/339
f 242/340/340 240/341/341 241/342/342
f 243/343/343 240/344/344 242/345/345
f 246/346/346 244/347/347 245/348/348
f 247/349/349 244/350/350 246/351/351
f 250/352/352 248/353/353 249/354/354
f 253/355/355 251/356/356 252/357/357
f 256/358/358 254/359/359 255/360/360
f 257/361/361 254/362/362 256/363/363
f 260/364/364 258/365/365 259/366/366
f 261/367/367 258/368/368 260/369/369
f 264/370/370 262/371/371 263/372/372
f 265/373/373 262/374/374 264/375/375
f 268/376/376 266/377/377 267/378/378
f 269/379/379 266/380/380 268/381/381
f 272/382/382 270/383/383 271/384/384
f 273/385/385 270/386/386 272/387/387
f 276/388/388 274/389/389 275/390/390
f 277/391/391 274/392/392 276/393/393
f 280/394/394 278/395/395 279/396/396
f 281/397/397 278/398/398 280/399/399
f 284/400/400 282/401/401 283/402/402
f 285/403/403 282/404/404 284/405/405
f 288/406/406 286/407/407 287/408/408
f 289/409/409 286/410/410 288/411/411
f 292/412/412 290/413/413 291/414/414
f 293/415/415 290/416/416 292/417/417
f 296/418/418 294/419/419 295/420/420
f 297/421/421 294/422/422 296/423/423
f 300/424/424 298/425/425 299/426/426
f 301/427/427 298/428/428 300/429/429
f 304/430/430 302/431/431 303/432/432
f 305/433/433 302/434/434 304/435/435
f 308/436/436 306/437/437 307/438/438
f 309/439/439 306/440/440 308/441/441
f 312/442/442 310/443/443 311/444/444
f 313/445/445 310/446/446 312/447/447
f 316/448/448 314/449/449 315/450/450
f 317/451/451 314/452/452 316/453/453
f 320/454/454 318/455/455 319/456/456
f 321/457/457 318/458/458 320/459/459
f 324/460/460 322/461/461 323/462/462
f 325/463/463 322/464/464 324/465/465
f 328/466/466 326/467/467 327/468/468
f 329/469/469 326/470/470 328/471/471
f 332/472/472 330/473/473 331/474/474
f 333/475/475 330/476/476 332/477/477
f 336/478/478 334/479/479 335/480/480
f 337/481/481 334/482/482 336/483/483
f 340/484/484 338/485/485 339/486/486
f 341/487/487 338/488/488 340/489/489
f 368/490/490 366/491/491 367/492/492
f 371/493/493 369/494/494 370/495/495
f 374/496/496 372/497/497 373/498/498
f 377/499/499 375/500/500 376/501/501
f 380/502/502 378/503/503 379/504/504
f 383/505/505 381/506/506 382/507/507
f 386/508/508 384/509/509 385/510/510
f 389/511/511 387/512/512 388/513/513
f 392/514/514 390/515/515 391/516/516
f 395/517/517 393/518/518 394/519/519
f 398/520/520 396/521/521 397/522/522
f 401/523/523 399/524/524 400/525/525
f 404/526/526 402/527/527 403/528/528
f 407/529/529 405/530/530 406/531/531
f 410/532/532 408/533/533 409/534/534
f 413/535/535 411/536/536 412/537/537
f 416/538/538 414/539/539 415/540/540
f 419/541/541 417/542/542 418/543/543

g Material.002
f 344/544/544 342/545/545 343/546/546
f 345/547/547 342/548/548 344/549/549
f 348/550/550 346/551/551 347/552/552
f 349/553/553 346/554/554 348/555/555
f 352/556/556 350/557/557 351/558/558
f 353/559/559 350/560/560 352/561/561
f 356/562/562 354/563/563 355/564/564
f 357/565/565 354/566/566 356/567/567
f 360/568/568 358/569/569 359/570/570
f 361/571/571 358/572/572 360/573/573
f 364/574/574 362/575/575 363/576/576
f 365/577/577 362/578/578 364/579/579

