# Converted from B3D for Luanti (With Correct Normals)
# Object Name: multidecor_dark_rusty_fence_3

v -1.900000 0.266667 1.700000
v -1.900000 1.000000 1.700000
v -1.829289 1.000000 1.729289
v -1.829289 0.266667 1.729289
v -1.800000 0.266667 1.800000
v -1.800000 1.000000 1.800000
v -1.829289 1.000000 1.870711
v -1.829289 0.266667 1.870711
v -1.829289 0.266667 1.870711
v -1.829289 1.000000 1.870711
v -1.900000 1.000000 1.900000
v -1.900000 0.266667 1.900000
v -1.800000 1.000000 1.800000
v -1.900000 1.000000 1.700000
v -1.900000 1.000000 1.800000
v -1.829289 -1.000000 1.870711
v -1.900000 -1.000000 1.870711
v -1.900000 -1.000000 1.800000
v -1.829289 0.900000 1.750000
v 0.029290 0.900000 1.750000
v 0.029290 0.864645 1.764645
v -1.829289 0.864645 1.764645
v -1.829289 0.864645 1.764645
v 0.029290 0.864645 1.764645
v 0.029290 0.850000 1.800000
v -1.829289 0.850000 1.800000
v -1.829289 0.850000 1.800000
v 0.029290 0.850000 1.800000
v 0.029290 0.864645 1.835355
v -1.829289 0.864645 1.835355
v -1.829289 0.864645 1.835355
v 0.029290 0.864645 1.835355
v 0.029290 0.900000 1.850000
v -1.829289 0.900000 1.850000
v -1.829289 0.900000 1.850000
v 0.029290 0.900000 1.850000
v 0.029290 0.935355 1.835355
v -1.829289 0.935355 1.835355
v -1.829289 0.935355 1.835355
v 0.029290 0.935355 1.835355
v 0.029290 0.950000 1.800000
v -1.829289 0.950000 1.800000
v -1.829289 0.950000 1.800000
v 0.029290 0.950000 1.800000
v 0.029290 0.935355 1.764645
v -1.829289 0.935355 1.764645
v -1.829289 0.935355 1.764645
v 0.029290 0.935355 1.764645
v 0.029290 0.900000 1.750000
v -1.829289 0.900000 1.750000
v 0.100000 0.266667 1.900000
v 0.100000 1.000000 1.900000
v 0.029289 1.000000 1.870711
v 0.029289 0.266667 1.870711
v 0.029289 0.266667 1.870711
v 0.029289 1.000000 1.870711
v 0.000000 1.000000 1.800000
v 0.000000 0.266667 1.800000
v 0.000000 1.000000 1.800000
v 0.100000 1.000000 1.900000
v 0.100000 1.000000 1.800000
v 0.029289 0.266667 1.729289
v 0.029289 1.000000 1.729289
v 0.100000 1.000000 1.700000
v 0.100000 0.266667 1.700000
v 0.029289 -1.000000 1.870711
v 0.000000 -1.000000 1.800000
v 0.029289 -1.000000 1.729289
v -1.800000 1.000000 1.800000
v -1.829289 1.000000 1.729289
v -1.900000 1.000000 1.700000
v -1.829289 1.000000 1.870711
v -1.800000 1.000000 1.800000
v -1.900000 1.000000 1.800000
v -1.900000 1.000000 1.841421
v -1.829289 -1.000000 1.729289
v -1.800000 -1.000000 1.800000
v -1.829289 -1.000000 1.870711
v -1.829289 -1.000000 1.870711
v -1.900000 -1.000000 1.900000
v -1.900000 -1.000000 1.870711
v 0.100000 1.000000 1.700000
v 0.029289 1.000000 1.729289
v 0.000000 1.000000 1.800000
v 0.000000 1.000000 1.800000
v 0.029289 1.000000 1.870711
v 0.100000 1.000000 1.900000
v 0.029289 -1.000000 1.729289
v 0.100000 -1.000000 1.700000
v 0.100000 -1.000000 1.800000
v 0.100000 -1.000000 1.900000
v 0.029289 -1.000000 1.870711
v 0.029289 -1.000000 1.729289
v -1.829289 -0.700000 1.750000
v 0.029290 -0.700000 1.750000
v 0.029290 -0.735355 1.764645
v -1.829289 -0.735355 1.764645
v -1.829289 -0.735355 1.764645
v 0.029290 -0.735355 1.764645
v 0.029290 -0.750000 1.800000
v -1.829289 -0.750000 1.800000
v -1.829289 -0.750000 1.800000
v 0.029290 -0.750000 1.800000
v 0.029290 -0.735355 1.835355
v -1.829289 -0.735355 1.835355
v -1.829289 -0.735355 1.835355
v 0.029290 -0.735355 1.835355
v 0.029290 -0.700000 1.850000
v -1.829289 -0.700000 1.850000
v -1.829289 -0.700000 1.850000
v 0.029290 -0.700000 1.850000
v 0.029290 -0.664645 1.835355
v -1.829289 -0.664645 1.835355
v -1.829289 -0.664645 1.835355
v 0.029290 -0.664645 1.835355
v 0.029290 -0.650000 1.800000
v -1.829289 -0.650000 1.800000
v -1.829289 -0.650000 1.800000
v 0.029290 -0.650000 1.800000
v 0.029290 -0.664645 1.764645
v -1.829289 -0.664645 1.764645
v -1.829289 -0.664645 1.764645
v 0.029290 -0.664645 1.764645
v 0.029290 -0.700000 1.750000
v -1.829289 -0.700000 1.750000
v -1.829289 -0.650000 1.800000
v -1.829289 0.850000 1.800000
v 0.029290 0.850000 1.800000
v 0.029290 -0.650000 1.800000
v 0.029289 1.000000 1.729289
v 0.029289 0.266667 1.729289
v 0.014645 0.266667 1.764645
v -1.800000 1.000000 1.800000
v -1.800000 0.266667 1.800000
v -1.814645 0.266667 1.764645
v 0.014645 -0.066667 1.764645
v 0.029289 -0.066667 1.729289
v 0.029289 -1.000000 1.729289
v 0.029289 -1.000000 1.729289
v 0.029289 -0.066667 1.729289
v 0.100000 -0.066667 1.700000
v 0.100000 -1.000000 1.700000
v 0.029289 -0.066667 1.729289
v 0.029289 0.266667 1.729289
v 0.100000 0.266667 1.700000
v 0.100000 -0.066667 1.700000
v 0.029289 -1.000000 1.870711
v 0.029289 -0.066667 1.870711
v 0.000000 -0.066667 1.800000
v 0.000000 -1.000000 1.800000
v 0.029289 -0.066667 1.870711
v 0.029289 0.266667 1.870711
v 0.000000 0.266667 1.800000
v 0.000000 -0.066667 1.800000
v 0.100000 -1.000000 1.900000
v 0.100000 -0.066667 1.900000
v 0.029289 -0.066667 1.870711
v 0.029289 -1.000000 1.870711
v 0.100000 -0.066667 1.900000
v 0.100000 0.266667 1.900000
v 0.029289 0.266667 1.870711
v 0.029289 -0.066667 1.870711
v -1.814645 -0.066667 1.764645
v -1.800000 -0.066667 1.800000
v -1.800000 -1.000000 1.800000
v -1.829289 -1.000000 1.870711
v -1.829289 -0.066667 1.870711
v -1.900000 -0.066667 1.900000
v -1.900000 -1.000000 1.900000
v -1.829289 -0.066667 1.870711
v -1.829289 0.266667 1.870711
v -1.900000 0.266667 1.900000
v -1.900000 -0.066667 1.900000
v -1.800000 -1.000000 1.800000
v -1.800000 -0.066667 1.800000
v -1.829289 -0.066667 1.870711
v -1.829289 -1.000000 1.870711
v -1.800000 -0.066667 1.800000
v -1.800000 0.266667 1.800000
v -1.829289 0.266667 1.870711
v -1.829289 -0.066667 1.870711
v -1.900000 -1.000000 1.700000
v -1.900000 -0.066667 1.700000
v -1.829289 -0.066667 1.729289
v -1.829289 -1.000000 1.729289
v -1.900000 -0.066667 1.700000
v -1.900000 0.266667 1.700000
v -1.829289 0.266667 1.729289
v -1.829289 -0.066667 1.729289
v 0.029289 -0.066667 1.729289
v -1.829289 -0.066667 1.729289
v -1.829289 0.266667 1.729289
v 0.029289 0.266667 1.729289
v -1.814645 0.266667 1.764645
v -1.814645 -0.066667 1.764645
v 0.014645 -0.066667 1.764645
v 0.014645 0.266667 1.764645
v 0.014645 -0.066667 1.764645
v -1.814645 -0.066667 1.764645
v -1.829289 -0.066667 1.729289
v 0.029289 -0.066667 1.729289
v 0.014645 0.266667 1.764645
v 0.029289 0.266667 1.729289
v -1.829289 0.266667 1.729289
v -1.814645 0.266667 1.764645
v 0.000000 -0.066667 1.800000
v 0.000000 0.266667 1.800000
v 0.014645 0.266667 1.764645
v 0.014645 -0.066667 1.764645
v -1.800000 -0.066667 1.800000
v -1.814645 -0.066667 1.764645
v -1.814645 0.266667 1.764645
v -1.800000 0.266667 1.800000
v 0.014645 0.266667 1.764645
v 0.000000 0.266667 1.800000
v 0.000000 1.000000 1.800000
v 0.000000 1.000000 1.800000
v 0.029289 1.000000 1.729289
v 0.014645 0.266667 1.764645
v -1.814645 0.266667 1.764645
v -1.829289 0.266667 1.729289
v -1.829289 1.000000 1.729289
v -1.829289 1.000000 1.729289
v -1.800000 1.000000 1.800000
v -1.814645 0.266667 1.764645
v 0.029289 -1.000000 1.729289
v 0.000000 -1.000000 1.800000
v 0.014645 -0.066667 1.764645
v 0.000000 -1.000000 1.800000
v 0.000000 -0.066667 1.800000
v 0.014645 -0.066667 1.764645
v -1.800000 -1.000000 1.800000
v -1.829289 -1.000000 1.729289
v -1.814645 -0.066667 1.764645
v -1.829289 -1.000000 1.729289
v -1.829289 -0.066667 1.729289
v -1.814645 -0.066667 1.764645
v -1.900000 1.000000 1.841421
v -1.900000 1.000000 1.900000
v -1.829289 1.000000 1.870711
v -1.900000 -1.000000 1.729289
v -1.900000 -1.000000 1.700000
v -1.829289 -1.000000 1.729289
v -1.900000 -1.000000 1.800000
v -1.900000 -1.000000 1.729289
v -1.829289 -1.000000 1.729289
v -1.829289 -1.000000 1.870711
v 0.100000 1.000000 1.800000
v 0.100000 1.000000 1.700000
v 0.000000 1.000000 1.800000
v 0.100000 -1.000000 1.800000
v 0.100000 -1.000000 1.900000
v 0.029289 -1.000000 1.729289

vt 0.319703 0.437835
vt 0.261166 0.998708
vt 0.261165 0.437835
vt 0.319703 0.998708
vt 0.261166 0.998708
vt 0.319703 0.437835
vt 0.436778 0.437835
vt 0.378241 0.998708
vt 0.378240 0.437835
vt 0.436778 0.998708
vt 0.378241 0.998708
vt 0.436778 0.437835
vt 0.495315 0.437835
vt 0.436778 0.998708
vt 0.436778 0.437835
vt 0.495315 0.998708
vt 0.436778 0.998708
vt 0.495315 0.437835
vt 0.691646 0.354978
vt 0.762307 0.325710
vt 0.720915 0.425639
vt 0.691646 0.212987
vt 0.620985 0.242256
vt 0.641681 0.192291
vt 1.056266 0.970385
vt -0.000878 0.941123
vt 1.056266 0.941117
vt -0.000878 0.970394
vt -0.000878 0.941123
vt 1.056266 0.970385
vt 1.056266 0.999653
vt -0.000878 0.970394
vt 1.056266 0.970385
vt -0.000878 0.999665
vt -0.000878 0.970394
vt 1.056266 0.999653
vt 1.056266 0.794779
vt -0.000877 0.765496
vt 1.056266 0.765511
vt -0.000878 0.794767
vt -0.000877 0.765496
vt 1.056266 0.794779
vt 1.056266 0.824047
vt -0.000878 0.794767
vt 1.056266 0.794779
vt -0.000878 0.824038
vt -0.000878 0.794767
vt 1.056266 0.824047
vt 1.056266 0.853314
vt -0.000878 0.824039
vt 1.056266 0.824046
vt -0.000878 0.853309
vt -0.000878 0.824039
vt 1.056266 0.853314
vt 1.056266 0.882582
vt -0.000878 0.853310
vt 1.056266 0.853314
vt -0.000878 0.882580
vt -0.000878 0.853310
vt 1.056266 0.882582
vt 1.056266 0.911850
vt -0.000878 0.882581
vt 1.056266 0.882582
vt -0.000878 0.911852
vt -0.000878 0.882581
vt 1.056266 0.911850
vt 1.056266 0.941117
vt -0.000878 0.911852
vt 1.056266 0.911849
vt -0.000878 0.941123
vt -0.000878 0.911852
vt 1.056266 0.941117
vt -0.016578 0.437835
vt -0.075116 0.998708
vt -0.075115 0.437835
vt -0.016579 0.998708
vt -0.075116 0.998708
vt -0.016578 0.437835
vt 0.083352 0.437835
vt 0.024814 0.998708
vt 0.024814 0.437835
vt 0.083351 0.998708
vt 0.024814 0.998708
vt 0.083352 0.437835
vt 0.662377 0.426309
vt 0.691646 0.496969
vt 0.591716 0.455577
vt 0.300356 0.437835
vt 0.241819 0.998709
vt 0.241819 0.437835
vt 0.300356 0.998709
vt 0.241819 0.998709
vt 0.300356 0.437835
vt 0.691646 0.129533
vt 0.650254 0.029604
vt 0.691646 0.070996
vt 0.720915 0.425639
vt 0.762307 0.325709
vt 0.762307 0.384247
vt 0.691646 0.354978
vt 0.720915 0.284317
vt 0.762307 0.325710
vt 0.679522 0.325710
vt 0.720915 0.284317
vt 0.691646 0.354978
vt 0.620984 0.242256
vt 0.720914 0.283648
vt 0.662377 0.283648
vt 0.641681 0.192291
vt 0.620985 0.242256
vt 0.620985 0.183718
vt 0.691646 0.496969
vt 0.733038 0.397040
vt 0.733038 0.455577
vt 0.591717 0.455577
vt 0.691646 0.496969
vt 0.633109 0.496969
vt 0.620985 0.100264
vt 0.691646 0.129533
vt 0.650254 0.170925
vt 0.691646 0.129533
vt 0.591716 0.029603
vt 0.650254 0.029603
vt 1.053151 0.555976
vt -0.000549 0.526700
vt 1.053151 0.526708
vt -0.000549 0.555971
vt -0.000549 0.526700
vt 1.053151 0.555976
vt 1.053151 0.585243
vt -0.000549 0.555971
vt 1.053151 0.555975
vt -0.000549 0.585242
vt -0.000549 0.555971
vt 1.053151 0.585243
vt 1.053151 0.614511
vt -0.000549 0.585242
vt 1.053151 0.585243
vt -0.000549 0.614513
vt -0.000549 0.585242
vt 1.053151 0.614511
vt 1.053151 0.643779
vt -0.000549 0.614513
vt 1.053151 0.614511
vt -0.000549 0.643784
vt -0.000549 0.614513
vt 1.053151 0.643779
vt 1.053151 0.673046
vt -0.000549 0.643784
vt 1.053151 0.643778
vt -0.000549 0.673055
vt -0.000549 0.643784
vt 1.053151 0.673046
vt 1.053151 0.702314
vt -0.000549 0.673056
vt 1.053151 0.673046
vt -0.000549 0.702326
vt -0.000549 0.673056
vt 1.053151 0.702314
vt 1.053151 0.497440
vt -0.000548 0.468158
vt 1.053151 0.468172
vt -0.000548 0.497428
vt -0.000548 0.468158
vt 1.053151 0.497440
vt 1.053151 0.526708
vt -0.000548 0.497429
vt 1.053151 0.497440
vt -0.000549 0.526700
vt -0.000548 0.497429
vt 1.053151 0.526708
vt 0.171158 0.998708
vt 0.200427 0.437835
vt 0.200427 0.998708
vt 0.348972 0.998708
vt 0.378240 0.437835
vt 0.378241 0.998708
vt 0.700426 0.967487
vt 0.671158 0.253652
vt 0.700426 0.253651
vt 0.800356 0.253651
vt 0.741818 0.967488
vt 0.741818 0.253651
vt 0.800355 0.967488
vt 0.741818 0.967488
vt 0.800356 0.253651
vt 0.800356 -0.001291
vt 0.741819 0.253651
vt 0.741819 -0.001291
vt 0.800356 0.253651
vt 0.741819 0.253651
vt 0.800356 -0.001291
vt 0.583351 0.253652
vt 0.524814 0.967488
vt 0.524814 0.253652
vt 0.583351 0.967487
vt 0.524814 0.967488
vt 0.583351 0.253652
vt 0.583351 -0.001292
vt 0.524814 0.253652
vt 0.524814 -0.001292
vt 0.583351 0.253652
vt 0.524814 0.253652
vt 0.583351 -0.001292
vt 0.483422 0.253652
vt 0.424884 0.967487
vt 0.424884 0.253652
vt 0.483421 0.967487
vt 0.424884 0.967487
vt 0.483422 0.253652
vt 0.483422 -0.001292
vt 0.424885 0.253652
vt 0.424884 -0.001292
vt 0.483422 0.253652
vt 0.424885 0.253652
vt 0.483422 -0.001292
vt 0.878240 0.967487
vt 0.848972 0.253651
vt 0.878241 0.253651
vt 0.995316 0.253651
vt 0.936778 0.967487
vt 0.936778 0.253651
vt 0.995315 0.967487
vt 0.936778 0.967487
vt 0.995316 0.253651
vt 0.995316 -0.001292
vt 0.936778 0.253651
vt 0.936778 -0.001292
vt 0.995316 0.253651
vt 0.936778 0.253651
vt 0.995316 -0.001292
vt 0.936778 0.253651
vt 0.878240 0.967487
vt 0.878241 0.253651
vt 0.936778 0.967487
vt 0.878240 0.967487
vt 0.936778 0.253651
vt 0.936778 -0.001292
vt 0.878241 0.253651
vt 0.878241 -0.001292
vt 0.936778 0.253651
vt 0.878241 0.253651
vt 0.936778 -0.001292
vt 0.819703 0.253651
vt 0.761165 0.967487
vt 0.761166 0.253651
vt 0.819703 0.967487
vt 0.761165 0.967487
vt 0.819703 0.253651
vt 0.819703 -0.001292
vt 0.761165 0.253651
vt 0.761166 -0.001292
vt 0.819703 0.253651
vt 0.761165 0.253651
vt 0.819703 -0.001292
vt 0.671157 -0.001292
vt 0.641889 0.253652
vt 0.641889 -0.001292
vt 0.671158 0.253652
vt 0.641889 0.253652
vt 0.671157 -0.001292
vt 0.848972 -0.001292
vt 0.878241 0.253651
vt 0.848972 0.253651
vt 0.878241 -0.001292
vt 0.878241 0.253651
vt 0.848972 -0.001292
vt 0.141889 0.437835
vt 0.171157 0.998708
vt 0.141889 0.998708
vt 0.171157 0.998708
vt 0.141889 0.437835
vt 0.200427 0.437835
vt 0.319703 0.437835
vt 0.348972 0.998708
vt 0.319703 0.998708
vt 0.348972 0.998708
vt 0.319703 0.437835
vt 0.378240 0.437835
vt 0.671158 0.253652
vt 0.700426 0.967487
vt 0.641889 0.967487
vt 0.671159 0.253652
vt 0.641889 0.967487
vt 0.641889 0.253652
vt 0.848972 0.253651
vt 0.878240 0.967487
vt 0.819703 0.967487
vt 0.848972 0.253651
vt 0.819703 0.967487
vt 0.819703 0.253651
vt 0.720915 0.284317
vt 0.679523 0.325710
vt 0.662377 0.284317
vt 0.720915 0.283648
vt 0.741611 0.233683
vt 0.762307 0.242256
vt 0.720915 0.283648
vt 0.691646 0.212987
vt 0.741611 0.233683
vt 0.620985 0.242256
vt 0.691646 0.212987
vt 0.720915 0.283648
vt 0.691646 0.496970
vt 0.662377 0.426309
vt 0.733038 0.397040
vt 0.691646 0.129533
vt 0.620985 0.100264
vt 0.591717 0.029603
vt 1.027910 0.555124
vt -0.004968 0.474824
vt 0.471321 -0.001466
vt 0.551621 1.031413
vt -0.004968 0.474824
vt 1.027910 0.555124
vt 0.999933 0.444592
vt -0.056790 0.243647
vt 0.999933 0.243644
vt -0.056789 0.444595
vt -0.056790 0.243647
vt 0.999933 0.444592
vt -0.047902 0.222329
vt 0.991105 0.021382
vt 0.991104 0.222330
vt -0.047901 0.021380
vt 0.991105 0.021382
vt -0.047902 0.222329
vt 0.999878 0.243644
vt -0.047954 0.222329
vt 0.991160 0.222330
vt -0.056738 0.243646
vt -0.047954 0.222329
vt 0.999878 0.243644
vt 0.999879 0.000067
vt -0.047954 0.021381
vt -0.056736 0.000067
vt 0.991160 0.021382
vt -0.047954 0.021381
vt 0.999879 0.000067

vn 0.382683 0.000000 -0.923880
vn 0.382683 0.000000 -0.923880
vn 0.382683 0.000000 -0.923880
vn 0.382682 0.000000 -0.923880
vn 0.382682 0.000000 -0.923880
vn 0.382682 0.000000 -0.923880
vn 0.923879 0.000000 0.382684
vn 0.923879 0.000000 0.382684
vn 0.923879 0.000000 0.382684
vn 0.923881 0.000000 0.382680
vn 0.923881 0.000000 0.382680
vn 0.923881 0.000000 0.382680
vn 0.382682 0.000000 0.923880
vn 0.382682 0.000000 0.923880
vn 0.382682 0.000000 0.923880
vn 0.382683 0.000000 0.923880
vn 0.382683 0.000000 0.923880
vn 0.382683 0.000000 0.923880
vn -0.000000 1.000000 0.000000
vn -0.000000 1.000000 0.000000
vn -0.000000 1.000000 0.000000
vn -0.000000 -1.000000 0.000000
vn -0.000000 -1.000000 0.000000
vn -0.000000 -1.000000 0.000000
vn -0.000000 -0.382684 -0.923879
vn -0.000000 -0.382684 -0.923879
vn -0.000000 -0.382684 -0.923879
vn -0.000000 -0.382684 -0.923879
vn -0.000000 -0.382684 -0.923879
vn -0.000000 -0.382684 -0.923879
vn -0.000000 -0.923879 -0.382685
vn -0.000000 -0.923879 -0.382685
vn -0.000000 -0.923879 -0.382685
vn -0.000000 -0.923880 -0.382682
vn -0.000000 -0.923880 -0.382682
vn -0.000000 -0.923880 -0.382682
vn -0.000000 -0.923879 0.382685
vn -0.000000 -0.923879 0.382685
vn -0.000000 -0.923879 0.382685
vn -0.000000 -0.923879 0.382685
vn -0.000000 -0.923879 0.382685
vn -0.000000 -0.923879 0.382685
vn -0.000000 -0.382684 0.923879
vn -0.000000 -0.382684 0.923879
vn -0.000000 -0.382684 0.923879
vn 0.000000 -0.382684 0.923879
vn 0.000000 -0.382684 0.923879
vn 0.000000 -0.382684 0.923879
vn 0.000000 0.382678 0.923882
vn 0.000000 0.382678 0.923882
vn 0.000000 0.382678 0.923882
vn -0.000000 0.382690 0.923877
vn -0.000000 0.382690 0.923877
vn -0.000000 0.382690 0.923877
vn -0.000000 0.923880 0.382683
vn -0.000000 0.923880 0.382683
vn -0.000000 0.923880 0.382683
vn -0.000000 0.923880 0.382683
vn -0.000000 0.923880 0.382683
vn -0.000000 0.923880 0.382683
vn -0.000000 0.923881 -0.382681
vn -0.000000 0.923881 -0.382681
vn -0.000000 0.923881 -0.382681
vn -0.000000 0.923880 -0.382683
vn -0.000000 0.923880 -0.382683
vn -0.000000 0.923880 -0.382683
vn -0.000000 0.382690 -0.923877
vn -0.000000 0.382690 -0.923877
vn -0.000000 0.382690 -0.923877
vn -0.000000 0.382678 -0.923882
vn -0.000000 0.382678 -0.923882
vn -0.000000 0.382678 -0.923882
vn -0.382681 0.000000 0.923881
vn -0.382681 0.000000 0.923881
vn -0.382681 0.000000 0.923881
vn -0.382681 0.000000 0.923881
vn -0.382681 0.000000 0.923881
vn -0.382681 0.000000 0.923881
vn -0.923880 0.000000 0.382683
vn -0.923880 0.000000 0.382683
vn -0.923880 0.000000 0.382683
vn -0.923880 0.000000 0.382683
vn -0.923880 0.000000 0.382683
vn -0.923880 0.000000 0.382683
vn -0.000000 1.000000 0.000000
vn -0.000000 1.000000 0.000000
vn -0.000000 1.000000 0.000000
vn -0.382684 0.000000 -0.923879
vn -0.382684 0.000000 -0.923879
vn -0.382684 0.000000 -0.923879
vn -0.382684 0.000000 -0.923879
vn -0.382684 0.000000 -0.923879
vn -0.382684 0.000000 -0.923879
vn -0.000000 -1.000000 0.000000
vn -0.000000 -1.000000 0.000000
vn -0.000000 -1.000000 0.000000
vn -0.000000 1.000000 0.000000
vn -0.000000 1.000000 0.000000
vn -0.000000 1.000000 0.000000
vn -0.000000 1.000000 0.000000
vn -0.000000 1.000000 0.000000
vn -0.000000 1.000000 0.000000
vn -0.000000 1.000000 0.000000
vn -0.000000 1.000000 0.000000
vn -0.000000 1.000000 0.000000
vn -0.000000 -1.000000 0.000000
vn -0.000000 -1.000000 0.000000
vn -0.000000 -1.000000 0.000000
vn -0.000000 -1.000000 0.000000
vn -0.000000 -1.000000 0.000000
vn -0.000000 -1.000000 0.000000
vn -0.000000 1.000000 0.000000
vn -0.000000 1.000000 0.000000
vn -0.000000 1.000000 0.000000
vn -0.000000 1.000000 0.000000
vn -0.000000 1.000000 0.000000
vn -0.000000 1.000000 0.000000
vn -0.000000 -1.000000 0.000000
vn -0.000000 -1.000000 0.000000
vn -0.000000 -1.000000 0.000000
vn -0.000000 -1.000000 0.000000
vn -0.000000 -1.000000 0.000000
vn -0.000000 -1.000000 0.000000
vn -0.000000 -0.382684 -0.923879
vn -0.000000 -0.382684 -0.923879
vn -0.000000 -0.382684 -0.923879
vn -0.000000 -0.382684 -0.923879
vn -0.000000 -0.382684 -0.923879
vn -0.000000 -0.382684 -0.923879
vn -0.000000 -0.923879 -0.382685
vn -0.000000 -0.923879 -0.382685
vn -0.000000 -0.923879 -0.382685
vn -0.000000 -0.923880 -0.382682
vn -0.000000 -0.923880 -0.382682
vn -0.000000 -0.923880 -0.382682
vn -0.000000 -0.923879 0.382685
vn -0.000000 -0.923879 0.382685
vn -0.000000 -0.923879 0.382685
vn -0.000000 -0.923879 0.382685
vn -0.000000 -0.923879 0.382685
vn -0.000000 -0.923879 0.382685
vn -0.000000 -0.382684 0.923879
vn -0.000000 -0.382684 0.923879
vn -0.000000 -0.382684 0.923879
vn 0.000000 -0.382684 0.923879
vn 0.000000 -0.382684 0.923879
vn 0.000000 -0.382684 0.923879
vn 0.000000 0.382678 0.923882
vn 0.000000 0.382678 0.923882
vn 0.000000 0.382678 0.923882
vn -0.000000 0.382690 0.923877
vn -0.000000 0.382690 0.923877
vn -0.000000 0.382690 0.923877
vn -0.000000 0.923880 0.382683
vn -0.000000 0.923880 0.382683
vn -0.000000 0.923880 0.382683
vn -0.000000 0.923880 0.382683
vn -0.000000 0.923880 0.382683
vn -0.000000 0.923880 0.382683
vn -0.000000 0.923881 -0.382681
vn -0.000000 0.923881 -0.382681
vn -0.000000 0.923881 -0.382681
vn -0.000000 0.923880 -0.382683
vn -0.000000 0.923880 -0.382683
vn -0.000000 0.923880 -0.382683
vn -0.000000 0.382690 -0.923877
vn -0.000000 0.382690 -0.923877
vn -0.000000 0.382690 -0.923877
vn -0.000000 0.382678 -0.923882
vn -0.000000 0.382678 -0.923882
vn -0.000000 0.382678 -0.923882
vn -0.923880 0.000000 -0.382683
vn -0.923880 0.000000 -0.382683
vn -0.923880 0.000000 -0.382683
vn 0.923878 0.000000 -0.382688
vn 0.923878 0.000000 -0.382688
vn 0.923878 0.000000 -0.382688
vn -0.923880 0.000000 -0.382683
vn -0.923880 0.000000 -0.382683
vn -0.923880 0.000000 -0.382683
vn -0.382684 0.000000 -0.923879
vn -0.382684 0.000000 -0.923879
vn -0.382684 0.000000 -0.923879
vn -0.382684 0.000000 -0.923879
vn -0.382684 0.000000 -0.923879
vn -0.382684 0.000000 -0.923879
vn -0.382684 0.000000 -0.923879
vn -0.382684 0.000000 -0.923879
vn -0.382684 0.000000 -0.923879
vn -0.382684 0.000000 -0.923879
vn -0.382684 0.000000 -0.923879
vn -0.382684 0.000000 -0.923879
vn -0.923880 0.000000 0.382683
vn -0.923880 0.000000 0.382683
vn -0.923880 0.000000 0.382683
vn -0.923880 0.000000 0.382683
vn -0.923880 0.000000 0.382683
vn -0.923880 0.000000 0.382683
vn -0.923880 0.000000 0.382683
vn -0.923880 0.000000 0.382683
vn -0.923880 0.000000 0.382683
vn -0.923880 0.000000 0.382683
vn -0.923880 0.000000 0.382683
vn -0.923880 0.000000 0.382683
vn -0.382681 0.000000 0.923881
vn -0.382681 0.000000 0.923881
vn -0.382681 0.000000 0.923881
vn -0.382681 0.000000 0.923881
vn -0.382681 0.000000 0.923881
vn -0.382681 0.000000 0.923881
vn -0.382681 0.000000 0.923881
vn -0.382681 0.000000 0.923881
vn -0.382681 0.000000 0.923881
vn -0.382681 0.000000 0.923881
vn -0.382681 0.000000 0.923881
vn -0.382681 0.000000 0.923881
vn 0.923880 0.000000 -0.382682
vn 0.923880 0.000000 -0.382682
vn 0.923880 0.000000 -0.382682
vn 0.382682 0.000000 0.923880
vn 0.382682 0.000000 0.923880
vn 0.382682 0.000000 0.923880
vn 0.382682 0.000000 0.923880
vn 0.382682 0.000000 0.923880
vn 0.382682 0.000000 0.923880
vn 0.382683 0.000000 0.923880
vn 0.382683 0.000000 0.923880
vn 0.382683 0.000000 0.923880
vn 0.382682 0.000000 0.923880
vn 0.382682 0.000000 0.923880
vn 0.382682 0.000000 0.923880
vn 0.923880 0.000000 0.382682
vn 0.923880 0.000000 0.382682
vn 0.923880 0.000000 0.382682
vn 0.923880 0.000000 0.382682
vn 0.923880 0.000000 0.382682
vn 0.923880 0.000000 0.382682
vn 0.923881 0.000000 0.382679
vn 0.923881 0.000000 0.382679
vn 0.923881 0.000000 0.382679
vn 0.923880 0.000000 0.382683
vn 0.923880 0.000000 0.382683
vn 0.923880 0.000000 0.382683
vn 0.382682 0.000000 -0.923880
vn 0.382682 0.000000 -0.923880
vn 0.382682 0.000000 -0.923880
vn 0.382682 0.000000 -0.923880
vn 0.382682 0.000000 -0.923880
vn 0.382682 0.000000 -0.923880
vn 0.382682 0.000000 -0.923880
vn 0.382682 0.000000 -0.923880
vn 0.382682 0.000000 -0.923880
vn 0.382683 0.000000 -0.923880
vn 0.382683 0.000000 -0.923880
vn 0.382683 0.000000 -0.923880
vn -0.923880 0.000000 -0.382683
vn -0.923880 0.000000 -0.382683
vn -0.923880 0.000000 -0.382683
vn -0.923880 0.000000 -0.382683
vn -0.923880 0.000000 -0.382683
vn -0.923880 0.000000 -0.382683
vn 0.923881 0.000000 -0.382680
vn 0.923881 0.000000 -0.382680
vn 0.923881 0.000000 -0.382680
vn 0.923881 0.000000 -0.382680
vn 0.923881 0.000000 -0.382680
vn 0.923881 0.000000 -0.382680
vn -0.923880 0.000000 -0.382683
vn -0.923880 0.000000 -0.382683
vn -0.923880 0.000000 -0.382683
vn -0.923880 0.000000 -0.382683
vn -0.923880 0.000000 -0.382683
vn -0.923880 0.000000 -0.382683
vn 0.923881 0.000000 -0.382681
vn 0.923881 0.000000 -0.382681
vn 0.923881 0.000000 -0.382681
vn 0.923881 0.000000 -0.382681
vn 0.923881 0.000000 -0.382681
vn 0.923881 0.000000 -0.382681
vn -0.923880 0.000000 -0.382683
vn -0.923880 0.000000 -0.382683
vn -0.923880 0.000000 -0.382683
vn -0.923880 0.000000 -0.382683
vn -0.923880 0.000000 -0.382683
vn -0.923880 0.000000 -0.382683
vn 0.923880 0.000000 -0.382682
vn 0.923880 0.000000 -0.382682
vn 0.923880 0.000000 -0.382682
vn 0.923880 0.000000 -0.382682
vn 0.923880 0.000000 -0.382682
vn 0.923880 0.000000 -0.382682
vn -0.000000 1.000000 0.000000
vn -0.000000 1.000000 0.000000
vn -0.000000 1.000000 0.000000
vn -0.000000 -1.000000 0.000000
vn -0.000000 -1.000000 0.000000
vn -0.000000 -1.000000 0.000000
vn -0.000000 -1.000000 0.000000
vn -0.000000 -1.000000 0.000000
vn -0.000000 -1.000000 0.000000
vn -0.000000 -1.000000 0.000000
vn -0.000000 -1.000000 0.000000
vn -0.000000 -1.000000 0.000000
vn -0.000000 1.000000 0.000000
vn -0.000000 1.000000 0.000000
vn -0.000000 1.000000 0.000000
vn -0.000000 -1.000000 0.000000
vn -0.000000 -1.000000 0.000000
vn -0.000000 -1.000000 0.000000
vn -0.000000 0.000000 -1.000000
vn -0.000000 0.000000 -1.000000
vn -0.000000 0.000000 -1.000000
vn -0.000000 0.000000 -1.000000
vn -0.000000 0.000000 -1.000000
vn -0.000000 0.000000 -1.000000
vn -0.000000 0.000000 -1.000000
vn -0.000000 0.000000 -1.000000
vn -0.000000 0.000000 -1.000000
vn -0.000000 0.000000 -1.000000
vn -0.000000 0.000000 -1.000000
vn -0.000000 0.000000 -1.000000
vn -0.000000 0.000000 1.000000
vn -0.000000 0.000000 1.000000
vn -0.000000 0.000000 1.000000
vn -0.000000 0.000000 1.000000
vn -0.000000 0.000000 1.000000
vn -0.000000 0.000000 1.000000
vn -0.000000 -1.000000 0.000000
vn -0.000000 -1.000000 0.000000
vn -0.000000 -1.000000 0.000000
vn -0.000000 -1.000000 0.000000
vn -0.000000 -1.000000 0.000000
vn -0.000000 -1.000000 0.000000
vn -0.000000 1.000000 0.000000
vn -0.000000 1.000000 0.000000
vn -0.000000 1.000000 0.000000
vn -0.000000 1.000000 0.000000
vn -0.000000 1.000000 0.000000
vn -0.000000 1.000000 0.000000

g Material.001
f 3/1/1 1/2/2 2/3/3
f 4/4/4 1/5/5 3/6/6
f 7/7/7 5/8/8 6/9/9
f 8/10/10 5/11/11 7/12/12
f 11/13/13 9/14/14 10/15/15
f 12/16/16 9/17/17 11/18/18
f 15/19/19 13/20/20 14/21/21
f 18/22/22 16/23/23 17/24/24
f 21/25/25 19/26/26 20/27/27
f 22/28/28 19/29/29 21/30/30
f 25/31/31 23/32/32 24/33/33
f 26/34/34 23/35/35 25/36/36
f 29/37/37 27/38/38 28/39/39
f 30/40/40 27/41/41 29/42/42
f 33/43/43 31/44/44 32/45/45
f 34/46/46 31/47/47 33/48/48
f 37/49/49 35/50/50 36/51/51
f 38/52/52 35/53/53 37/54/54
f 41/55/55 39/56/56 40/57/57
f 42/58/58 39/59/59 41/60/60
f 45/61/61 43/62/62 44/63/63
f 46/64/64 43/65/65 45/66/66
f 49/67/67 47/68/68 48/69/69
f 50/70/70 47/71/71 49/72/72
f 53/73/73 51/74/74 52/75/75
f 54/76/76 51/77/77 53/78/78
f 57/79/79 55/80/80 56/81/81
f 58/82/82 55/83/83 57/84/84
f 61/85/85 59/86/86 60/87/87
f 64/88/88 62/89/89 63/90/90
f 65/91/91 62/92/92 64/93/93
f 68/94/94 66/95/95 67/96/96
f 71/97/97 69/98/98 70/99/99
f 74/100/100 72/101/101 73/102/102
f 75/103/103 72/104/104 74/105/105
f 78/106/106 76/107/107 77/108/108
f 81/109/109 79/110/110 80/111/111
f 84/112/112 82/113/113 83/114/114
f 87/115/115 85/116/116 86/117/117
f 90/118/118 88/119/119 89/120/120
f 93/121/121 91/122/122 92/123/123
f 96/124/124 94/125/125 95/126/126
f 97/127/127 94/128/128 96/129/129
f 100/130/130 98/131/131 99/132/132
f 101/133/133 98/134/134 100/135/135
f 104/136/136 102/137/137 103/138/138
f 105/139/139 102/140/140 104/141/141
f 108/142/142 106/143/143 107/144/144
f 109/145/145 106/146/146 108/147/147
f 112/148/148 110/149/149 111/150/150
f 113/151/151 110/152/152 112/153/153
f 116/154/154 114/155/155 115/156/156
f 117/157/157 114/158/158 116/159/159
f 120/160/160 118/161/161 119/162/162
f 121/163/163 118/164/164 120/165/165
f 124/166/166 122/167/167 123/168/168
f 125/169/169 122/170/170 124/171/171
f 132/172/172 130/173/173 131/174/174
f 135/175/175 133/176/176 134/177/177
f 138/178/178 136/179/179 137/180/180
f 141/181/181 139/182/182 140/183/183
f 142/184/184 139/185/185 141/186/186
f 145/187/187 143/188/188 144/189/189
f 146/190/190 143/191/191 145/192/192
f 149/193/193 147/194/194 148/195/195
f 150/196/196 147/197/197 149/198/198
f 153/199/199 151/200/200 152/201/201
f 154/202/202 151/203/203 153/204/204
f 157/205/205 155/206/206 156/207/207
f 158/208/208 155/209/209 157/210/210
f 161/211/211 159/212/212 160/213/213
f 162/214/214 159/215/215 161/216/216
f 165/217/217 163/218/218 164/219/219
f 168/220/220 166/221/221 167/222/222
f 169/223/223 166/224/224 168/225/225
f 172/226/226 170/227/227 171/228/228
f 173/229/229 170/230/230 172/231/231
f 176/232/232 174/233/233 175/234/234
f 177/235/235 174/236/236 176/237/237
f 180/238/238 178/239/239 179/240/240
f 181/241/241 178/242/242 180/243/243
f 184/244/244 182/245/245 183/246/246
f 185/247/247 182/248/248 184/249/249
f 188/250/250 186/251/251 187/252/252
f 189/253/253 186/254/254 188/255/255
f 208/256/256 206/257/257 207/258/258
f 209/259/259 206/260/260 208/261/261
f 212/262/262 210/263/263 211/264/264
f 213/265/265 210/266/266 212/267/267
f 216/268/268 214/269/269 215/270/270
f 219/271/271 217/272/272 218/273/273
f 222/274/274 220/275/275 221/276/276
f 225/277/277 223/278/278 224/279/279
f 228/280/280 226/281/281 227/282/282
f 231/283/283 229/284/284 230/285/285
f 234/286/286 232/287/287 233/288/288
f 237/289/289 235/290/290 236/291/291
f 240/292/292 238/293/293 239/294/294
f 243/295/295 241/296/296 242/297/297
f 246/298/298 244/299/299 245/300/300
f 247/301/301 244/302/302 246/303/303
f 250/304/304 248/305/305 249/306/306
f 253/307/307 251/308/308 252/309/309

g Material.002
f 128/310/310 126/311/311 127/312/312
f 129/313/313 126/314/314 128/315/315

g Material.003
f 192/316/316 190/317/317 191/318/318
f 193/319/319 190/320/320 192/321/321
f 196/322/322 194/323/323 195/324/324
f 197/325/325 194/326/326 196/327/327
f 200/328/328 198/329/329 199/330/330
f 201/331/331 198/332/332 200/333/333
f 204/334/334 202/335/335 203/336/336
f 205/337/337 202/338/338 204/339/339

