# Converted from B3D for Luanti (With Correct Normals)
# Object Name: multidecor_modern_sofa_3

v 1.000000 -0.800000 1.000000
v 1.000000 -0.700000 1.000000
v -1.000000 -0.700000 1.000000
v -1.000000 -0.800000 1.000000
v -1.000000 -0.800000 -0.599999
v 1.000000 -0.800000 -0.600000
v 1.000000 -0.800000 1.000000
v -1.000000 -0.800000 1.000000
v -1.000000 -0.800000 -0.599999
v -1.000000 -0.700000 -0.599999
v 1.000000 -0.700000 -0.600000
v 1.000000 -0.800000 -0.600000
v 1.000000 -0.400000 -0.600000
v -1.000000 -0.400000 -0.599999
v -1.000000 -0.400000 0.900000
v 1.000000 -0.400000 0.900000
v 1.000000 -0.700000 -0.600000
v -1.000000 -0.700000 -0.599999
v -1.000000 -0.400000 -0.599999
v 1.000000 -0.400000 -0.600000
v -1.000000 -0.700000 0.900000
v 1.000000 -0.700000 0.900000
v 1.000000 -0.400000 0.900000
v -1.000000 -0.400000 0.900000
v -1.000000 -0.700000 0.900000
v -1.000000 0.800000 0.900000
v 1.000000 0.800000 0.900000
v 1.000000 -0.700000 0.900000
v 1.000000 -0.700000 1.000000
v 1.000000 0.800000 1.000000
v -1.000000 0.800000 1.000000
v -1.000000 -0.700000 1.000000
v 1.000000 0.800000 0.900000
v -1.000000 0.800000 0.900000
v -1.000000 0.800000 1.000000
v 1.000000 0.800000 1.000000
v -0.466666 -0.400000 0.400000
v -0.466666 -0.383333 0.837500
v -0.911111 -0.377778 0.816667
v -0.933333 -0.383333 0.400000
v -0.756423 0.080170 0.671647
v -0.911111 -0.022222 0.816667
v -0.466666 -0.016667 0.837500
v -1.000000 -0.133333 0.400000
v -0.933333 -0.133333 0.837500
v -0.911111 -0.022222 0.816667
v -0.933333 -0.016667 0.400000
v 0.466667 -0.133333 0.900000
v 0.933334 -0.133333 0.837500
v 0.911111 -0.022222 0.816667
v 0.466667 -0.016667 0.837500
v -0.466667 -0.133333 -0.600000
v -0.933333 -0.133333 -0.537499
v -0.911111 -0.022222 -0.516666
v -0.466667 -0.016667 -0.537500
v 1.000000 -0.133333 -0.100000
v 0.933333 -0.133333 -0.537500
v 0.911111 -0.022222 -0.516667
v 0.933333 -0.016667 -0.100000
v 0.933334 -0.133333 0.837500
v 1.000000 -0.133333 0.400000
v 0.933334 -0.016667 0.400000
v 0.911111 -0.022222 0.816667
v 1.000000 -0.133333 0.400000
v 1.000000 -0.133333 -0.100000
v 0.933333 -0.016667 -0.100000
v 0.933334 -0.016667 0.400000
v 0.911111 -0.377778 0.816667
v 0.933334 -0.383333 0.400000
v 1.000000 -0.266667 0.400000
v 0.933334 -0.266667 0.837500
v 0.933334 -0.266667 0.837500
v 1.000000 -0.266667 0.400000
v 1.000000 -0.133333 0.400000
v 0.933334 -0.133333 0.837500
v 0.933334 -0.383333 0.400000
v 0.933333 -0.383333 -0.100000
v 1.000000 -0.266667 -0.100000
v 1.000000 -0.266667 0.400000
v 1.000000 -0.266667 0.400000
v 1.000000 -0.266667 -0.100000
v 1.000000 -0.133333 -0.100000
v 1.000000 -0.133333 0.400000
v 0.933333 -0.383333 -0.100000
v 0.911111 -0.377778 -0.516667
v 0.933333 -0.266667 -0.537500
v 1.000000 -0.266667 -0.100000
v 1.000000 -0.266667 -0.100000
v 0.933333 -0.266667 -0.537500
v 0.933333 -0.133333 -0.537500
v 1.000000 -0.133333 -0.100000
v 0.933333 -0.133333 -0.537500
v 0.466666 -0.133333 -0.600000
v 0.466666 -0.016667 -0.537500
v 0.911111 -0.022222 -0.516667
v 0.466666 -0.133333 -0.600000
v -0.466667 -0.133333 -0.600000
v -0.466667 -0.016667 -0.537500
v 0.466666 -0.016667 -0.537500
v 0.911111 -0.377778 -0.516667
v 0.466666 -0.383333 -0.537500
v 0.466666 -0.266667 -0.600000
v 0.933333 -0.266667 -0.537500
v 0.933333 -0.266667 -0.537500
v 0.466666 -0.266667 -0.600000
v 0.466666 -0.133333 -0.600000
v 0.933333 -0.133333 -0.537500
v 0.466666 -0.383333 -0.537500
v -0.466667 -0.383333 -0.537500
v -0.466667 -0.266667 -0.600000
v 0.466666 -0.266667 -0.600000
v 0.466666 -0.266667 -0.600000
v -0.466667 -0.266667 -0.600000
v -0.466667 -0.133333 -0.600000
v 0.466666 -0.133333 -0.600000
v -0.466667 -0.383333 -0.537500
v -0.911111 -0.377778 -0.516666
v -0.933333 -0.266667 -0.537499
v -0.466667 -0.266667 -0.600000
v -0.466667 -0.266667 -0.600000
v -0.933333 -0.266667 -0.537499
v -0.933333 -0.133333 -0.537499
v -0.466667 -0.133333 -0.600000
v -0.933333 -0.133333 0.837500
v -0.466666 -0.133333 0.900000
v -0.466666 -0.016667 0.837500
v -0.911111 -0.022222 0.816667
v -0.466666 -0.133333 0.900000
v 0.466667 -0.133333 0.900000
v 0.466667 -0.016667 0.837500
v -0.466666 -0.016667 0.837500
v -0.911111 -0.377778 0.816667
v -0.466666 -0.383333 0.837500
v -0.466666 -0.266667 0.900000
v -0.933333 -0.266667 0.837500
v -0.933333 -0.266667 0.837500
v -0.466666 -0.266667 0.900000
v -0.466666 -0.133333 0.900000
v -0.933333 -0.133333 0.837500
v -0.466666 -0.383333 0.837500
v 0.466667 -0.383333 0.837500
v 0.466667 -0.266667 0.900000
v -0.466666 -0.266667 0.900000
v -0.466666 -0.266667 0.900000
v 0.466667 -0.266667 0.900000
v 0.466667 -0.133333 0.900000
v -0.466666 -0.133333 0.900000
v 0.466667 -0.383333 0.837500
v 0.911111 -0.377778 0.816667
v 0.933334 -0.266667 0.837500
v 0.466667 -0.266667 0.900000
v 0.466667 -0.266667 0.900000
v 0.933334 -0.266667 0.837500
v 0.933334 -0.133333 0.837500
v 0.466667 -0.133333 0.900000
v -0.933333 -0.133333 -0.537499
v -1.000000 -0.133333 -0.099999
v -0.933333 -0.016667 -0.100000
v -0.911111 -0.022222 -0.516666
v -1.000000 -0.133333 -0.099999
v -1.000000 -0.133333 0.400000
v -0.933333 -0.016667 0.400000
v -0.933333 -0.016667 -0.100000
v -0.911111 -0.377778 -0.516666
v -0.933333 -0.383333 -0.100000
v -1.000000 -0.266667 -0.099999
v -0.933333 -0.266667 -0.537499
v -0.933333 -0.266667 -0.537499
v -1.000000 -0.266667 -0.099999
v -1.000000 -0.133333 -0.099999
v -0.933333 -0.133333 -0.537499
v -0.933333 -0.383333 -0.100000
v -0.933333 -0.383333 0.400000
v -1.000000 -0.266667 0.400000
v -1.000000 -0.266667 -0.099999
v -1.000000 -0.266667 -0.099999
v -1.000000 -0.266667 0.400000
v -1.000000 -0.133333 0.400000
v -1.000000 -0.133333 -0.099999
v -0.933333 -0.383333 0.400000
v -0.911111 -0.377778 0.816667
v -0.933333 -0.266667 0.837500
v -1.000000 -0.266667 0.400000
v -1.000000 -0.266667 0.400000
v -0.933333 -0.266667 0.837500
v -0.933333 -0.133333 0.837500
v -1.000000 -0.133333 0.400000
v 0.756424 0.080170 0.671647
v 0.911111 -0.022222 0.816667
v 0.933334 -0.016667 0.400000
v 0.756424 0.080170 0.671647
v -0.756423 0.080170 0.671647
v -0.466666 -0.016667 0.837500
v 0.466667 -0.016667 0.837500
v 0.911111 -0.022222 -0.516667
v 0.756423 0.080170 -0.371647
v 0.933333 -0.016667 -0.100000
v 0.933333 -0.016667 -0.100000
v 0.756423 0.080170 -0.371647
v 0.756424 0.080170 0.671647
v 0.933334 -0.016667 0.400000
v 0.466666 -0.016667 -0.537500
v -0.466667 -0.016667 -0.537500
v -0.756423 0.080170 -0.371647
v 0.756423 0.080170 -0.371647
v 0.756423 0.080170 -0.371647
v -0.756423 0.080170 -0.371647
v -0.756423 0.080170 0.671647
v 0.756424 0.080170 0.671647
v -0.911111 -0.022222 -0.516666
v -0.756423 0.080170 -0.371647
v -0.466667 -0.016667 -0.537500
v -0.756423 0.080170 -0.371647
v -0.933333 -0.016667 -0.100000
v -0.933333 -0.016667 0.400000
v -0.756423 0.080170 0.671647
v -0.466667 -0.383333 -0.537500
v -0.466667 -0.400000 -0.100000
v -0.933333 -0.383333 -0.100000
v -0.911111 -0.377778 -0.516666
v -0.466667 -0.400000 -0.100000
v -0.466666 -0.400000 0.400000
v -0.933333 -0.383333 0.400000
v -0.933333 -0.383333 -0.100000
v 0.911111 -0.377778 -0.516667
v 0.933333 -0.383333 -0.100000
v 0.466667 -0.400000 -0.100000
v 0.466666 -0.383333 -0.537500
v 0.466666 -0.383333 -0.537500
v 0.466667 -0.400000 -0.100000
v -0.466667 -0.400000 -0.100000
v -0.466667 -0.383333 -0.537500
v 0.933333 -0.383333 -0.100000
v 0.933334 -0.383333 0.400000
v 0.466667 -0.400000 0.400000
v 0.466667 -0.400000 -0.100000
v 0.466667 -0.400000 -0.100000
v 0.466667 -0.400000 0.400000
v -0.466666 -0.400000 0.400000
v -0.466667 -0.400000 -0.100000
v 0.933334 -0.383333 0.400000
v 0.911111 -0.377778 0.816667
v 0.466667 -0.383333 0.837500
v 0.466667 -0.400000 0.400000
v 0.466667 -0.400000 0.400000
v 0.466667 -0.383333 0.837500
v -0.466666 -0.383333 0.837500
v -0.466666 -0.400000 0.400000
v -0.756423 0.080170 0.671647
v -0.933333 -0.016667 0.400000
v -0.911111 -0.022222 0.816667
v 0.756424 0.080170 0.671647
v 0.466667 -0.016667 0.837500
v 0.911111 -0.022222 0.816667
v 0.911111 -0.022222 -0.516667
v 0.466666 -0.016667 -0.537500
v 0.756423 0.080170 -0.371647
v -0.911111 -0.022222 -0.516666
v -0.933333 -0.016667 -0.100000
v -0.756423 0.080170 -0.371647
v -0.466666 0.801817 0.916667
v -0.466666 1.151817 0.900000
v -0.911111 1.135150 0.894445
v -0.933333 0.801817 0.900000
v -0.756423 1.019134 0.436497
v -0.911111 1.135150 0.538889
v -0.266666 1.151817 0.533333
v -1.000000 0.801817 0.650000
v -0.933333 1.151817 0.650000
v -0.911111 1.135150 0.538889
v -0.933333 0.801817 0.533334
v 0.466667 1.201817 0.650000
v 0.933334 1.151817 0.650000
v 0.911111 1.135150 0.538889
v 0.466667 1.151817 0.533333
v -0.466666 0.001817 0.650000
v -0.933333 0.051817 0.650000
v -0.911111 0.068484 0.538889
v -0.466666 0.051817 0.533333
v 1.000000 0.401817 0.650000
v 0.933334 0.051817 0.650000
v 0.911111 0.068484 0.538889
v 0.933334 0.401817 0.533333
v 0.933334 1.151817 0.650000
v 1.000000 0.801817 0.650000
v 0.933334 0.801817 0.533333
v 0.911111 1.135150 0.538889
v 1.000000 0.801817 0.650000
v 1.000000 0.401817 0.650000
v 0.933334 0.401817 0.533333
v 0.933334 0.801817 0.533333
v 0.911111 1.135150 0.894444
v 0.933334 0.801817 0.900000
v 1.000000 0.801817 0.783333
v 0.933334 1.151817 0.783333
v 0.933334 1.151817 0.783333
v 1.000000 0.801817 0.783333
v 1.000000 0.801817 0.650000
v 0.933334 1.151817 0.650000
v 0.933334 0.801817 0.900000
v 0.933334 0.401817 0.900000
v 1.000000 0.401817 0.783333
v 1.000000 0.801817 0.783333
v 1.000000 0.801817 0.783333
v 1.000000 0.401817 0.783333
v 1.000000 0.401817 0.650000
v 1.000000 0.801817 0.650000
v 0.933334 0.401817 0.900000
v 0.911111 0.068484 0.894444
v 0.933334 0.051817 0.783333
v 1.000000 0.401817 0.783333
v 1.000000 0.401817 0.783333
v 0.933334 0.051817 0.783333
v 0.933334 0.051817 0.650000
v 1.000000 0.401817 0.650000
v 0.933334 0.051817 0.650000
v 0.466667 0.001817 0.650000
v 0.466667 0.051817 0.533333
v 0.911111 0.068484 0.538889
v 0.466667 0.001817 0.650000
v -0.466666 0.001817 0.650000
v -0.466666 0.051817 0.533333
v 0.466667 0.051817 0.533333
v 0.911111 0.068484 0.894444
v 0.466667 0.051817 0.900000
v 0.466667 0.001817 0.783333
v 0.933334 0.051817 0.783333
v 0.933334 0.051817 0.783333
v 0.466667 0.001817 0.783333
v 0.466667 0.001817 0.650000
v 0.933334 0.051817 0.650000
v 0.466667 0.051817 0.900000
v -0.466666 0.051817 0.900000
v -0.466666 0.001817 0.783334
v 0.466667 0.001817 0.783333
v 0.466667 0.001817 0.783333
v -0.466666 0.001817 0.783334
v -0.466666 0.001817 0.650000
v 0.466667 0.001817 0.650000
v -0.466666 0.051817 0.900000
v -0.911111 0.068484 0.894445
v -0.933333 0.051817 0.783334
v -0.466666 0.001817 0.783334
v -0.466666 0.001817 0.783334
v -0.933333 0.051817 0.783334
v -0.933333 0.051817 0.650000
v -0.466666 0.001817 0.650000
v -0.933333 1.151817 0.650000
v -0.266666 1.201817 0.650000
v -0.266666 1.151817 0.533333
v -0.911111 1.135150 0.538889
v -0.266666 1.201817 0.650000
v 0.466667 1.201817 0.650000
v 0.466667 1.151817 0.533333
v -0.266666 1.151817 0.533333
v -0.911111 1.135150 0.894445
v -0.466666 1.151817 0.900000
v -0.266666 1.201817 0.783333
v -0.933333 1.151817 0.783334
v -0.933333 1.151817 0.783334
v -0.266666 1.201817 0.783333
v -0.266666 1.201817 0.650000
v -0.933333 1.151817 0.650000
v -0.466666 1.151817 0.900000
v 0.466667 1.151817 0.900000
v 0.466667 1.201817 0.783333
v -0.266666 1.201817 0.783333
v -0.266666 1.201817 0.783333
v 0.466667 1.201817 0.783333
v 0.466667 1.201817 0.650000
v -0.266666 1.201817 0.650000
v 0.466667 1.151817 0.900000
v 0.911111 1.135150 0.894444
v 0.933334 1.151817 0.783333
v 0.466667 1.201817 0.783333
v 0.466667 1.201817 0.783333
v 0.933334 1.151817 0.783333
v 0.933334 1.151817 0.650000
v 0.466667 1.201817 0.650000
v -0.933333 0.051817 0.650000
v -1.000000 0.401817 0.650000
v -0.933333 0.401817 0.533334
v -0.911111 0.068484 0.538889
v -1.000000 0.401817 0.650000
v -1.000000 0.801817 0.650000
v -0.933333 0.801817 0.533334
v -0.933333 0.401817 0.533334
v -0.911111 0.068484 0.894445
v -0.933333 0.401817 0.900000
v -1.000000 0.401817 0.783334
v -0.933333 0.051817 0.783334
v -0.933333 0.051817 0.783334
v -1.000000 0.401817 0.783334
v -1.000000 0.401817 0.650000
v -0.933333 0.051817 0.650000
v -0.933333 0.401817 0.900000
v -0.933333 0.801817 0.900000
v -1.000000 0.801817 0.783334
v -1.000000 0.401817 0.783334
v -1.000000 0.401817 0.783334
v -1.000000 0.801817 0.783334
v -1.000000 0.801817 0.650000
v -1.000000 0.401817 0.650000
v -0.933333 0.801817 0.900000
v -0.911111 1.135150 0.894445
v -0.933333 1.151817 0.783334
v -1.000000 0.801817 0.783334
v -1.000000 0.801817 0.783334
v -0.933333 1.151817 0.783334
v -0.933333 1.151817 0.650000
v -1.000000 0.801817 0.650000
v 0.756424 1.019134 0.436497
v 0.911111 1.135150 0.538889
v 0.933334 0.801817 0.533333
v 0.756424 1.019134 0.436497
v -0.756423 1.019134 0.436497
v -0.266666 1.151817 0.533333
v 0.466667 1.151817 0.533333
v 0.911111 0.068484 0.538889
v 0.756424 0.184499 0.436497
v 0.933334 0.401817 0.533333
v 0.933334 0.401817 0.533333
v 0.756424 0.184499 0.436497
v 0.756424 1.019134 0.436497
v 0.933334 0.801817 0.533333
v 0.466667 0.051817 0.533333
v -0.466666 0.051817 0.533333
v -0.756423 0.184499 0.436497
v 0.756424 0.184499 0.436497
v 0.756424 0.184499 0.436497
v -0.756423 0.184499 0.436497
v -0.756423 1.019134 0.436497
v 0.756424 1.019134 0.436497
v -0.911111 0.068484 0.538889
v -0.756423 0.184499 0.436497
v -0.466666 0.051817 0.533333
v -0.756423 0.184499 0.436497
v -0.933333 0.401817 0.533334
v -0.933333 0.801817 0.533334
v -0.756423 1.019134 0.436497
v -0.466666 0.051817 0.900000
v -0.466666 0.401817 0.916667
v -0.933333 0.401817 0.900000
v -0.911111 0.068484 0.894445
v -0.466666 0.401817 0.916667
v -0.466666 0.801817 0.916667
v -0.933333 0.801817 0.900000
v -0.933333 0.401817 0.900000
v 0.911111 0.068484 0.894444
v 0.933334 0.401817 0.900000
v 0.466667 0.401817 0.916667
v 0.466667 0.051817 0.900000
v 0.466667 0.051817 0.900000
v 0.466667 0.401817 0.916667
v -0.466666 0.401817 0.916667
v -0.466666 0.051817 0.900000
v 0.933334 0.401817 0.900000
v 0.933334 0.801817 0.900000
v 0.466667 0.801817 0.916667
v 0.466667 0.401817 0.916667
v 0.466667 0.401817 0.916667
v 0.466667 0.801817 0.916667
v -0.466666 0.801817 0.916667
v -0.466666 0.401817 0.916667
v 0.933334 0.801817 0.900000
v 0.911111 1.135150 0.894444
v 0.466667 1.151817 0.900000
v 0.466667 0.801817 0.916667
v 0.466667 0.801817 0.916667
v 0.466667 1.151817 0.900000
v -0.466666 1.151817 0.900000
v -0.466666 0.801817 0.916667
v -0.756423 1.019134 0.436497
v -0.933333 0.801817 0.533334
v -0.911111 1.135150 0.538889
v 0.756424 1.019134 0.436497
v 0.466667 1.151817 0.533333
v 0.911111 1.135150 0.538889
v 0.911111 0.068484 0.538889
v 0.466667 0.051817 0.533333
v 0.756424 0.184499 0.436497
v -0.911111 0.068484 0.538889
v -0.933333 0.401817 0.533334
v -0.756423 0.184499 0.436497

vt 0.036945 0.667371
vt 0.757990 0.631319
vt 0.757990 0.667371
vt 0.036945 0.631319
vt 0.757990 0.631319
vt 0.036945 0.667371
vt 0.757990 0.631319
vt 0.036945 0.054484
vt 0.757989 0.054483
vt 0.036945 0.631319
vt 0.036945 0.054484
vt 0.757990 0.631319
vt 0.757989 0.018431
vt 0.036945 0.054484
vt 0.036945 0.018431
vt 0.757989 0.054483
vt 0.036945 0.054484
vt 0.757989 0.018431
vt 0.290013 0.241747
vt -0.031765 0.000413
vt 0.290013 0.000413
vt -0.031765 0.241747
vt -0.031765 0.000413
vt 0.290013 0.241747
vt 0.999587 -0.031765
vt 0.951320 0.290013
vt 0.951320 -0.031765
vt 0.999587 0.290013
vt 0.951320 0.290013
vt 0.999587 -0.031765
vt -0.031765 0.241747
vt 0.290013 0.290013
vt -0.031765 0.290013
vt 0.290013 0.241747
vt 0.290013 0.290013
vt -0.031765 0.241747
vt 0.226484 0.241747
vt 0.548262 0.000413
vt 0.548262 0.241747
vt 0.226484 0.000413
vt 0.548262 0.000413
vt 0.226484 0.241747
vt 0.226484 0.758244
vt 0.548262 0.516911
vt 0.548262 0.758244
vt 0.226484 0.516911
vt 0.548262 0.516911
vt 0.226484 0.758244
vt 0.548262 0.257836
vt 0.226484 0.241747
vt 0.548262 0.241747
vt 0.226484 0.257836
vt 0.226484 0.241747
vt 0.548262 0.257836
vt 0.218345 0.813719
vt 0.151259 0.742170
vt 0.221701 0.742198
vt 0.151290 0.817299
vt 0.151259 0.742170
vt 0.218345 0.813719
vt 0.746531 0.563821
vt 0.715632 0.517202
vt 0.744155 0.492270
vt 0.860064 0.760215
vt 0.841369 0.828233
vt 0.841587 0.757153
vt 0.862916 0.827546
vt 0.841369 0.828233
vt 0.860064 0.760215
vt 0.827538 0.265629
vt 0.846290 0.193089
vt 0.845933 0.268964
vt 0.824958 0.193773
vt 0.846290 0.193089
vt 0.827538 0.265629
vt 0.819049 -0.028421
vt 0.800297 0.044120
vt 0.800653 -0.031755
vt 0.821628 0.043435
vt 0.800297 0.044120
vt 0.819049 -0.028421
vt 0.890285 0.969114
vt 0.908980 0.901095
vt 0.908763 0.972176
vt 0.887433 0.901782
vt 0.908980 0.901095
vt 0.890285 0.969114
vt 0.887515 0.827584
vt 0.909081 0.757134
vt 0.909204 0.828303
vt 0.890535 0.760150
vt 0.909081 0.757134
vt 0.887515 0.827584
vt 0.891441 0.904469
vt 0.913149 0.825216
vt 0.912949 0.904175
vt 0.891560 0.824898
vt 0.913149 0.825216
vt 0.891441 0.904469
vt 0.906590 0.828233
vt 0.925285 0.760215
vt 0.928137 0.827546
vt 0.906808 0.757153
vt 0.925285 0.760215
vt 0.906590 0.828233
vt 0.897201 0.829906
vt 0.918799 0.758678
vt 0.918522 0.829867
vt 0.897041 0.758631
vt 0.918799 0.758678
vt 0.897201 0.829906
vt 0.902421 0.904113
vt 0.924129 0.824860
vt 0.924010 0.904431
vt 0.902621 0.825154
vt 0.924129 0.824860
vt 0.902421 0.904113
vt 0.897056 0.904314
vt 0.918514 0.825015
vt 0.918353 0.904269
vt 0.897217 0.825059
vt 0.918514 0.825015
vt 0.897056 0.904314
vt 0.906489 0.972194
vt 0.928055 0.901745
vt 0.925035 0.969178
vt 0.906366 0.901025
vt 0.928055 0.901745
vt 0.906489 0.972194
vt 0.896772 0.970651
vt 0.918369 0.899422
vt 0.918529 0.970698
vt 0.897049 0.899462
vt 0.918369 0.899422
vt 0.896772 0.970651
vt 0.821543 0.193801
vt 0.800357 0.269046
vt 0.800122 0.193084
vt 0.818807 0.265746
vt 0.800357 0.269046
vt 0.821543 0.193801
vt 0.822913 0.043786
vt 0.801565 0.193059
vt 0.801722 0.044147
vt 0.822843 0.193372
vt 0.801565 0.193059
vt 0.822913 0.043786
vt 0.781653 0.193089
vt 0.762902 0.265629
vt 0.760322 0.193773
vt 0.781297 0.268964
vt 0.762902 0.265629
vt 0.781653 0.193089
vt 0.801641 0.192898
vt 0.780021 0.268667
vt 0.780140 0.192901
vt 0.801668 0.268692
vt 0.780021 0.268667
vt 0.801641 0.192898
vt 0.780389 0.044182
vt 0.759033 0.193390
vt 0.759103 0.043804
vt 0.780232 0.193095
vt 0.759033 0.193390
vt 0.780389 0.044182
vt 0.801755 0.044403
vt 0.780195 0.192806
vt 0.780422 0.044439
vt 0.801528 0.192770
vt 0.780195 0.192806
vt 0.801755 0.044403
vt 0.781593 -0.031837
vt 0.760408 0.043408
vt 0.763144 -0.028538
vt 0.781829 0.044125
vt 0.760408 0.043408
vt 0.781593 -0.031837
vt 0.801930 -0.031459
vt 0.780309 0.044311
vt 0.780282 -0.031484
vt 0.801810 0.044307
vt 0.780309 0.044311
vt 0.801930 -0.031459
vt 0.825044 0.043408
vt 0.846230 -0.031837
vt 0.846465 0.044125
vt 0.827780 -0.028538
vt 0.846230 -0.031837
vt 0.825044 0.043408
vt 0.823669 0.193390
vt 0.845026 0.044182
vt 0.844869 0.193095
vt 0.823740 0.043804
vt 0.845026 0.044182
vt 0.823669 0.193390
vt 0.864934 0.044119
vt 0.883685 -0.028421
vt 0.886265 0.043435
vt 0.865290 -0.031755
vt 0.883685 -0.028421
vt 0.864934 0.044119
vt 0.844946 0.044311
vt 0.866566 -0.031459
vt 0.866446 0.044307
vt 0.844918 -0.031484
vt 0.866566 -0.031459
vt 0.844946 0.044311
vt 0.866202 0.193059
vt 0.887550 0.043786
vt 0.887480 0.193372
vt 0.866359 0.044146
vt 0.887550 0.043786
vt 0.866202 0.193059
vt 0.844832 0.192806
vt 0.866392 0.044403
vt 0.866164 0.192770
vt 0.845059 0.044439
vt 0.866392 0.044403
vt 0.844832 0.192806
vt 0.864994 0.269046
vt 0.886179 0.193801
vt 0.883443 0.265746
vt 0.864758 0.193084
vt 0.886179 0.193801
vt 0.864994 0.269046
vt 0.844657 0.268667
vt 0.866277 0.192898
vt 0.866305 0.268692
vt 0.844777 0.192901
vt 0.866277 0.192898
vt 0.844657 0.268667
vt 0.862834 0.901744
vt 0.841268 0.972194
vt 0.841145 0.901025
vt 0.859814 0.969178
vt 0.841268 0.972194
vt 0.862834 0.901744
vt 0.858908 0.824860
vt 0.837200 0.904113
vt 0.837400 0.825153
vt 0.858789 0.904431
vt 0.837200 0.904113
vt 0.858908 0.824860
vt 0.843760 0.901095
vt 0.825065 0.969114
vt 0.822213 0.901782
vt 0.843542 0.972176
vt 0.825065 0.969114
vt 0.843760 0.901095
vt 0.853148 0.899422
vt 0.831551 0.970651
vt 0.831828 0.899462
vt 0.853308 0.970698
vt 0.831551 0.970651
vt 0.853148 0.899422
vt 0.847928 0.825216
vt 0.826220 0.904469
vt 0.826339 0.824898
vt 0.847728 0.904175
vt 0.826220 0.904469
vt 0.847928 0.825216
vt 0.853293 0.825015
vt 0.831835 0.904314
vt 0.831996 0.825059
vt 0.853132 0.904269
vt 0.831835 0.904314
vt 0.853293 0.825015
vt 0.843860 0.757134
vt 0.822295 0.827584
vt 0.825314 0.760150
vt 0.843983 0.828304
vt 0.822295 0.827584
vt 0.843860 0.757134
vt 0.853578 0.758678
vt 0.831981 0.829906
vt 0.831820 0.758631
vt 0.853301 0.829867
vt 0.831981 0.829906
vt 0.853578 0.758678
vt 0.671322 0.788218
vt 0.715026 0.755771
vt 0.738408 0.785578
vt 0.746563 0.563800
vt 0.715664 0.760581
vt 0.715664 0.517181
vt 0.746563 0.713963
vt 0.715664 0.760581
vt 0.746563 0.563800
vt 0.592152 0.788219
vt 0.525066 0.785578
vt 0.548447 0.755771
vt 0.715664 0.756629
vt 0.591515 0.789077
vt 0.547810 0.756629
vt 0.671959 0.789077
vt 0.591515 0.789077
vt 0.715664 0.756629
vt 0.547810 0.517181
vt 0.516910 0.713963
vt 0.516910 0.563800
vt 0.547810 0.760581
vt 0.516910 0.713963
vt 0.547810 0.517181
vt 0.715664 0.517181
vt 0.547810 0.760581
vt 0.547810 0.517181
vt 0.715664 0.760581
vt 0.547810 0.760581
vt 0.715664 0.517181
vt 0.516942 0.563821
vt 0.519319 0.492270
vt 0.547841 0.517202
vt 0.671959 0.488685
vt 0.547810 0.521133
vt 0.591515 0.488685
vt 0.715664 0.521133
vt 0.547810 0.521133
vt 0.671959 0.488685
vt 0.070859 0.817313
vt 0.000427 0.742208
vt 0.070881 0.742174
vt 0.003792 0.813741
vt 0.000427 0.742208
vt 0.070859 0.817313
vt 0.151305 0.817283
vt 0.070850 0.742161
vt 0.151289 0.742158
vt 0.070846 0.817292
vt 0.070850 0.742161
vt 0.151305 0.817283
vt 0.070865 0.592053
vt 0.003779 0.520505
vt 0.070834 0.516925
vt 0.000423 0.592026
vt 0.003779 0.520505
vt 0.070865 0.592053
vt 0.070858 0.742181
vt 0.000411 0.592028
vt 0.070844 0.592041
vt 0.000416 0.742200
vt 0.000411 0.592028
vt 0.070858 0.742181
vt 0.151274 0.592062
vt 0.070820 0.516941
vt 0.151279 0.516932
vt 0.070835 0.592066
vt 0.070820 0.516941
vt 0.151274 0.592062
vt 0.151282 0.742172
vt 0.070842 0.592051
vt 0.151264 0.592053
vt 0.070860 0.742171
vt 0.070842 0.592051
vt 0.151282 0.742172
vt 0.221697 0.592015
vt 0.151265 0.516910
vt 0.218333 0.520483
vt 0.151243 0.592050
vt 0.151265 0.516910
vt 0.221697 0.592015
vt 0.221714 0.742196
vt 0.151266 0.592043
vt 0.221708 0.592023
vt 0.151280 0.742182
vt 0.151266 0.592043
vt 0.221714 0.742196
vt 0.738408 0.492184
vt 0.715026 0.521992
vt 0.671321 0.489544
vt 0.744155 0.785492
vt 0.715632 0.760560
vt 0.746531 0.713942
vt 0.547841 0.760560
vt 0.519319 0.785492
vt 0.516942 0.713942
vt 0.548447 0.521992
vt 0.525066 0.492184
vt 0.592152 0.489544
vt 0.750100 0.488321
vt 0.803783 0.559875
vt 0.747406 0.559843
vt 0.803750 0.484746
vt 0.803783 0.559875
vt 0.750100 0.488321
vt 0.930121 0.337729
vt 0.903661 0.258950
vt 0.928518 0.234024
vt 0.373576 0.765641
vt 0.354723 0.820438
vt 0.355081 0.763250
vt 0.376255 0.819611
vt 0.354723 0.820438
vt 0.373576 0.765641
vt 0.947672 -0.028333
vt 0.929225 0.043835
vt 0.929458 -0.031756
vt 0.949672 0.043396
vt 0.929225 0.043835
vt 0.947672 -0.028333
vt 0.806719 0.725032
vt 0.788271 0.797200
vt 0.788504 0.721608
vt 0.808718 0.796761
vt 0.788271 0.797200
vt 0.806719 0.725032
vt 0.308489 0.765641
vt 0.289636 0.820438
vt 0.289994 0.763250
vt 0.311168 0.819611
vt 0.289636 0.820438
vt 0.308489 0.765641
vt 0.311066 0.876327
vt 0.289546 0.932771
vt 0.289347 0.875441
vt 0.308156 0.930452
vt 0.289546 0.932771
vt 0.311066 0.876327
vt 0.307105 0.816247
vt 0.285378 0.879362
vt 0.285625 0.816534
vt 0.306949 0.879693
vt 0.285378 0.879362
vt 0.307105 0.816247
vt 0.291947 0.875551
vt 0.273095 0.930348
vt 0.270416 0.876378
vt 0.291590 0.932740
vt 0.273095 0.930348
vt 0.291947 0.875551
vt 0.301322 0.873480
vt 0.279698 0.930814
vt 0.280069 0.873532
vt 0.301519 0.930888
vt 0.279698 0.930814
vt 0.301322 0.873480
vt 0.296206 0.816628
vt 0.274479 0.879742
vt 0.274635 0.816297
vt 0.295959 0.879455
vt 0.274479 0.879742
vt 0.296206 0.816628
vt 0.301503 0.816430
vt 0.280081 0.879559
vt 0.280293 0.816491
vt 0.301291 0.879499
vt 0.280081 0.879559
vt 0.301503 0.816430
vt 0.292038 0.763218
vt 0.270518 0.819663
vt 0.273428 0.765537
vt 0.292237 0.820548
vt 0.270518 0.819663
vt 0.292038 0.763218
vt 0.301886 0.765175
vt 0.280262 0.822509
vt 0.280065 0.765101
vt 0.301515 0.822458
vt 0.280262 0.822509
vt 0.301886 0.765175
vt 0.808663 0.947038
vt 0.788312 1.022229
vt 0.788160 0.946579
vt 0.806562 1.018828
vt 0.788312 1.022229
vt 0.808663 0.947038
vt 0.809562 0.796987
vt 0.789104 0.946562
vt 0.789204 0.797217
vt 0.809517 0.946760
vt 0.789104 0.946562
vt 0.809562 0.796987
vt 0.768659 0.946582
vt 0.750211 1.018750
vt 0.748212 0.947021
vt 0.768426 1.022174
vt 0.750211 1.018750
vt 0.768659 0.946582
vt 0.789154 0.946463
vt 0.767589 1.021985
vt 0.767668 0.946465
vt 0.789170 1.022001
vt 0.767589 1.021985
vt 0.789154 0.946463
vt 0.767829 0.797241
vt 0.747366 0.946774
vt 0.747411 0.797001
vt 0.767729 0.946586
vt 0.747366 0.946774
vt 0.767829 0.797241
vt 0.789225 0.797380
vt 0.767706 0.946402
vt 0.767850 0.797405
vt 0.789080 0.946378
vt 0.767706 0.946402
vt 0.789225 0.797380
vt 0.768618 0.721553
vt 0.748267 0.796744
vt 0.750368 0.724954
vt 0.768770 0.797203
vt 0.748267 0.796744
vt 0.768618 0.721553
vt 0.789341 0.721797
vt 0.767777 0.797319
vt 0.767760 0.721781
vt 0.789262 0.797317
vt 0.767777 0.797319
vt 0.789341 0.721797
vt 0.950494 0.161411
vt 0.929266 0.268864
vt 0.930065 0.161085
vt 0.947515 0.265463
vt 0.929266 0.268864
vt 0.950494 0.161411
vt 0.950518 0.043643
vt 0.930065 0.161085
vt 0.930155 0.043831
vt 0.950494 0.161411
vt 0.930065 0.161085
vt 0.950518 0.043643
vt 0.908690 0.161109
vt 0.891165 0.265385
vt 0.889166 0.193657
vt 0.909379 0.268809
vt 0.891165 0.265385
vt 0.908690 0.161109
vt 0.930065 0.161085
vt 0.908543 0.268620
vt 0.908690 0.161109
vt 0.930124 0.268636
vt 0.908543 0.268620
vt 0.930065 0.161085
vt 0.908780 0.043855
vt 0.888322 0.193430
vt 0.888367 0.043657
vt 0.908690 0.161109
vt 0.888322 0.193430
vt 0.908780 0.043855
vt 0.930178 0.044015
vt 0.908690 0.161109
vt 0.908803 0.044040
vt 0.930065 0.161085
vt 0.908690 0.161109
vt 0.930178 0.044015
vt 0.909571 -0.031812
vt 0.889220 0.043379
vt 0.891322 -0.028411
vt 0.909724 0.043838
vt 0.889220 0.043379
vt 0.909571 -0.031812
vt 0.930294 -0.031567
vt 0.908730 0.043955
vt 0.908713 -0.031584
vt 0.930216 0.043952
vt 0.908730 0.043955
vt 0.930294 -0.031567
vt 0.376153 0.876327
vt 0.354633 0.932771
vt 0.354434 0.875441
vt 0.373243 0.930452
vt 0.354633 0.932771
vt 0.376153 0.876327
vt 0.372191 0.816247
vt 0.350465 0.879362
vt 0.350711 0.816534
vt 0.372035 0.879693
vt 0.350465 0.879362
vt 0.372191 0.816247
vt 0.357034 0.875551
vt 0.338182 0.930348
vt 0.335503 0.876379
vt 0.356677 0.932740
vt 0.338182 0.930348
vt 0.357034 0.875551
vt 0.366409 0.873480
vt 0.344785 0.930814
vt 0.345156 0.873532
vt 0.366606 0.930888
vt 0.344785 0.930814
vt 0.366409 0.873480
vt 0.361293 0.816628
vt 0.339566 0.879742
vt 0.339722 0.816297
vt 0.361046 0.879455
vt 0.339566 0.879742
vt 0.361293 0.816628
vt 0.366589 0.816430
vt 0.345168 0.879559
vt 0.345380 0.816491
vt 0.366378 0.879499
vt 0.345168 0.879559
vt 0.366589 0.816430
vt 0.357125 0.763218
vt 0.335605 0.819663
vt 0.338514 0.765537
vt 0.357324 0.820548
vt 0.335605 0.819663
vt 0.357125 0.763218
vt 0.366973 0.765175
vt 0.345349 0.822509
vt 0.345151 0.765101
vt 0.366602 0.822458
vt 0.345349 0.822509
vt 0.366973 0.765175
vt 0.867932 0.529970
vt 0.902896 0.497522
vt 0.921623 0.527330
vt 0.930121 0.337729
vt 0.903693 0.502333
vt 0.903693 0.258932
vt 0.930121 0.455714
vt 0.903693 0.502333
vt 0.930121 0.337729
vt 0.805170 0.529970
vt 0.751479 0.527329
vt 0.770206 0.497522
vt 0.903693 0.498381
vt 0.804373 0.530829
vt 0.769409 0.498381
vt 0.868729 0.530829
vt 0.804373 0.530829
vt 0.903693 0.498381
vt 0.769409 0.258932
vt 0.742981 0.455714
vt 0.742981 0.305551
vt 0.769409 0.502333
vt 0.742981 0.455714
vt 0.769409 0.258932
vt 0.903693 0.258932
vt 0.769409 0.502333
vt 0.769409 0.258932
vt 0.903693 0.502333
vt 0.769409 0.502333
vt 0.903693 0.258932
vt 0.743013 0.305569
vt 0.744584 0.234024
vt 0.769441 0.258950
vt 0.868729 0.230436
vt 0.769409 0.262884
vt 0.804373 0.230436
vt 0.903693 0.262884
vt 0.769409 0.262884
vt 0.868729 0.230436
vt 0.868081 0.484731
vt 0.924448 0.559834
vt 0.868059 0.559873
vt 0.921743 0.488299
vt 0.924448 0.559834
vt 0.868081 0.484731
vt 0.803730 0.484762
vt 0.868097 0.559885
vt 0.803745 0.559888
vt 0.868101 0.484755
vt 0.868097 0.559885
vt 0.803730 0.484762
vt 0.868075 0.709987
vt 0.921759 0.781541
vt 0.868109 0.785116
vt 0.924453 0.710019
vt 0.921759 0.781541
vt 0.868075 0.709987
vt 0.868090 0.559867
vt 0.924472 0.710014
vt 0.868104 0.709999
vt 0.924466 0.559846
vt 0.924472 0.710014
vt 0.868090 0.559867
vt 0.803761 0.709977
vt 0.868129 0.785100
vt 0.803757 0.785108
vt 0.868114 0.709975
vt 0.868129 0.785100
vt 0.803761 0.709977
vt 0.803752 0.559876
vt 0.868106 0.709986
vt 0.803771 0.709984
vt 0.868087 0.559879
vt 0.868106 0.709986
vt 0.803752 0.559876
vt 0.747411 0.710028
vt 0.803777 0.785131
vt 0.750116 0.781564
vt 0.803799 0.709989
vt 0.803777 0.785131
vt 0.747411 0.710028
vt 0.747387 0.559848
vt 0.803769 0.709996
vt 0.747392 0.710016
vt 0.803755 0.559864
vt 0.803769 0.709996
vt 0.747387 0.559848
vt 0.921623 0.233935
vt 0.902896 0.263743
vt 0.867932 0.231295
vt 0.928518 0.527241
vt 0.903661 0.502315
vt 0.930089 0.455696
vt 0.769441 0.502315
vt 0.744584 0.527241
vt 0.743013 0.455696
vt 0.770206 0.263743
vt 0.751479 0.233935
vt 0.805170 0.231295

vn 0.000000 0.000000 1.000000
vn 0.000000 0.000000 1.000000
vn 0.000000 0.000000 1.000000
vn 0.000000 0.000000 1.000000
vn 0.000000 0.000000 1.000000
vn 0.000000 0.000000 1.000000
vn -0.000000 -1.000000 0.000000
vn -0.000000 -1.000000 0.000000
vn -0.000000 -1.000000 0.000000
vn -0.000000 -1.000000 0.000000
vn -0.000000 -1.000000 0.000000
vn -0.000000 -1.000000 0.000000
vn -0.000000 0.000000 -1.000000
vn -0.000000 0.000000 -1.000000
vn -0.000000 0.000000 -1.000000
vn -0.000000 0.000000 -1.000000
vn -0.000000 0.000000 -1.000000
vn -0.000000 0.000000 -1.000000
vn 0.000000 1.000000 0.000000
vn 0.000000 1.000000 0.000000
vn 0.000000 1.000000 0.000000
vn -0.000000 1.000000 0.000000
vn -0.000000 1.000000 0.000000
vn -0.000000 1.000000 0.000000
vn -0.000000 0.000000 -1.000000
vn -0.000000 0.000000 -1.000000
vn -0.000000 0.000000 -1.000000
vn -0.000000 0.000000 -1.000000
vn -0.000000 0.000000 -1.000000
vn -0.000000 0.000000 -1.000000
vn 0.000000 0.000000 1.000000
vn 0.000000 0.000000 1.000000
vn 0.000000 0.000000 1.000000
vn 0.000000 0.000000 1.000000
vn 0.000000 0.000000 1.000000
vn 0.000000 0.000000 1.000000
vn -0.000000 0.000000 -1.000000
vn -0.000000 0.000000 -1.000000
vn -0.000000 0.000000 -1.000000
vn -0.000000 0.000000 -1.000000
vn -0.000000 0.000000 -1.000000
vn -0.000000 0.000000 -1.000000
vn 0.000000 0.000000 1.000000
vn 0.000000 0.000000 1.000000
vn 0.000000 0.000000 1.000000
vn 0.000000 0.000000 1.000000
vn 0.000000 0.000000 1.000000
vn 0.000000 0.000000 1.000000
vn 0.000000 1.000000 0.000000
vn 0.000000 1.000000 0.000000
vn 0.000000 1.000000 0.000000
vn -0.000000 1.000000 0.000000
vn -0.000000 1.000000 0.000000
vn -0.000000 1.000000 0.000000
vn -0.014274 -0.999173 0.038064
vn -0.014274 -0.999173 0.038064
vn -0.014274 -0.999173 0.038064
vn -0.035687 -0.999247 0.015227
vn -0.035687 -0.999247 0.015227
vn -0.035687 -0.999247 0.015227
vn -0.036224 0.834162 0.550328
vn -0.036224 0.834162 0.550328
vn -0.036224 0.834162 0.550328
vn -0.964277 0.220406 0.146938
vn -0.964277 0.220406 0.146938
vn -0.964277 0.220406 0.146938
vn -0.867030 0.495445 0.052848
vn -0.867030 0.495445 0.052848
vn -0.867030 0.495445 0.052848
vn 0.129847 0.207756 0.969524
vn 0.129847 0.207756 0.969524
vn 0.129847 0.207756 0.969524
vn 0.047170 0.471696 0.880499
vn 0.047170 0.471696 0.880499
vn 0.047170 0.471696 0.880499
vn -0.129847 0.207756 -0.969524
vn -0.129847 0.207756 -0.969524
vn -0.129847 0.207756 -0.969524
vn -0.047170 0.471696 -0.880499
vn -0.047170 0.471696 -0.880499
vn -0.047170 0.471696 -0.880499
vn 0.964277 0.220407 -0.146938
vn 0.964277 0.220407 -0.146938
vn 0.964277 0.220407 -0.146938
vn 0.867030 0.495445 -0.052848
vn 0.867030 0.495445 -0.052848
vn 0.867030 0.495445 -0.052848
vn 0.860743 0.491853 0.131160
vn 0.860743 0.491853 0.131160
vn 0.860743 0.491853 0.131160
vn 0.977076 0.205701 0.054853
vn 0.977076 0.205701 0.054853
vn 0.977076 0.205701 0.054853
vn 0.868243 0.496138 -0.000000
vn 0.868243 0.496138 -0.000000
vn 0.868243 0.496138 -0.000000
vn 0.868243 0.496139 -0.000000
vn 0.868243 0.496139 -0.000000
vn 0.868243 0.496139 -0.000000
vn 0.867030 -0.495445 0.052847
vn 0.867030 -0.495445 0.052847
vn 0.867030 -0.495445 0.052847
vn 0.964277 -0.220407 0.146937
vn 0.964277 -0.220407 0.146937
vn 0.964277 -0.220407 0.146937
vn 0.988588 0.000000 0.150641
vn 0.988588 0.000000 0.150641
vn 0.988588 0.000000 0.150641
vn 0.988588 0.000000 0.150642
vn 0.988588 0.000000 0.150642
vn 0.988588 0.000000 0.150642
vn 0.868243 -0.496139 -0.000000
vn 0.868243 -0.496139 -0.000000
vn 0.868243 -0.496139 -0.000000
vn 0.868243 -0.496139 -0.000000
vn 0.868243 -0.496139 -0.000000
vn 0.868243 -0.496139 -0.000000
vn 1.000000 0.000000 -0.000000
vn 1.000000 0.000000 -0.000000
vn 1.000000 0.000000 -0.000000
vn 1.000000 0.000000 -0.000000
vn 1.000000 0.000000 -0.000000
vn 1.000000 0.000000 -0.000000
vn 0.977076 -0.205701 -0.054854
vn 0.977076 -0.205701 -0.054854
vn 0.977076 -0.205701 -0.054854
vn 0.860743 -0.491852 -0.131161
vn 0.860743 -0.491852 -0.131161
vn 0.860743 -0.491852 -0.131161
vn 0.988588 0.000000 -0.150642
vn 0.988588 0.000000 -0.150642
vn 0.988588 0.000000 -0.150642
vn 0.988588 0.000000 -0.150642
vn 0.988588 0.000000 -0.150642
vn 0.988588 0.000000 -0.150642
vn 0.117241 0.468964 -0.875401
vn 0.117241 0.468964 -0.875401
vn 0.117241 0.468964 -0.875401
vn 0.048351 0.193407 -0.979926
vn 0.048351 0.193407 -0.979926
vn 0.048351 0.193407 -0.979926
vn -0.000000 0.472222 -0.881480
vn -0.000000 0.472222 -0.881480
vn -0.000000 0.472222 -0.881480
vn -0.000000 0.472221 -0.881480
vn -0.000000 0.472221 -0.881480
vn -0.000000 0.472221 -0.881480
vn 0.047169 -0.471696 -0.880499
vn 0.047169 -0.471696 -0.880499
vn 0.047169 -0.471696 -0.880499
vn 0.129847 -0.207756 -0.969524
vn 0.129847 -0.207756 -0.969524
vn 0.129847 -0.207756 -0.969524
vn 0.132743 0.000000 -0.991150
vn 0.132743 0.000000 -0.991150
vn 0.132743 0.000000 -0.991150
vn 0.132743 0.000000 -0.991150
vn 0.132743 0.000000 -0.991150
vn 0.132743 0.000000 -0.991150
vn -0.000000 -0.472222 -0.881480
vn -0.000000 -0.472222 -0.881480
vn -0.000000 -0.472222 -0.881480
vn -0.000000 -0.472221 -0.881480
vn -0.000000 -0.472221 -0.881480
vn -0.000000 -0.472221 -0.881480
vn -0.000000 0.000000 -1.000000
vn -0.000000 0.000000 -1.000000
vn -0.000000 0.000000 -1.000000
vn -0.000000 0.000000 -1.000000
vn -0.000000 0.000000 -1.000000
vn -0.000000 0.000000 -1.000000
vn -0.048352 -0.193407 -0.979926
vn -0.048352 -0.193407 -0.979926
vn -0.048352 -0.193407 -0.979926
vn -0.117241 -0.468965 -0.875401
vn -0.117241 -0.468965 -0.875401
vn -0.117241 -0.468965 -0.875401
vn -0.132744 0.000000 -0.991150
vn -0.132744 0.000000 -0.991150
vn -0.132744 0.000000 -0.991150
vn -0.132744 0.000000 -0.991150
vn -0.132744 0.000000 -0.991150
vn -0.132744 0.000000 -0.991150
vn -0.117241 0.468964 0.875401
vn -0.117241 0.468964 0.875401
vn -0.117241 0.468964 0.875401
vn -0.048351 0.193408 0.979926
vn -0.048351 0.193408 0.979926
vn -0.048351 0.193408 0.979926
vn 0.000000 0.472222 0.881480
vn 0.000000 0.472222 0.881480
vn 0.000000 0.472222 0.881480
vn 0.000000 0.472221 0.881480
vn 0.000000 0.472221 0.881480
vn 0.000000 0.472221 0.881480
vn -0.047169 -0.471696 0.880499
vn -0.047169 -0.471696 0.880499
vn -0.047169 -0.471696 0.880499
vn -0.129847 -0.207756 0.969524
vn -0.129847 -0.207756 0.969524
vn -0.129847 -0.207756 0.969524
vn -0.132743 0.000000 0.991150
vn -0.132743 0.000000 0.991150
vn -0.132743 0.000000 0.991150
vn -0.132743 0.000000 0.991150
vn -0.132743 0.000000 0.991150
vn -0.132743 0.000000 0.991150
vn 0.000000 -0.472223 0.881479
vn 0.000000 -0.472223 0.881479
vn 0.000000 -0.472223 0.881479
vn 0.000000 -0.472220 0.881481
vn 0.000000 -0.472220 0.881481
vn 0.000000 -0.472220 0.881481
vn 0.000000 0.000000 1.000000
vn 0.000000 0.000000 1.000000
vn 0.000000 0.000000 1.000000
vn 0.000000 0.000000 1.000000
vn 0.000000 0.000000 1.000000
vn 0.000000 0.000000 1.000000
vn 0.048352 -0.193408 0.979926
vn 0.048352 -0.193408 0.979926
vn 0.048352 -0.193408 0.979926
vn 0.117241 -0.468964 0.875401
vn 0.117241 -0.468964 0.875401
vn 0.117241 -0.468964 0.875401
vn 0.132744 0.000000 0.991150
vn 0.132744 0.000000 0.991150
vn 0.132744 0.000000 0.991150
vn 0.132744 0.000000 0.991150
vn 0.132744 0.000000 0.991150
vn 0.132744 0.000000 0.991150
vn -0.860743 0.491852 -0.131161
vn -0.860743 0.491852 -0.131161
vn -0.860743 0.491852 -0.131161
vn -0.977076 0.205701 -0.054853
vn -0.977076 0.205701 -0.054853
vn -0.977076 0.205701 -0.054853
vn -0.868243 0.496139 0.000000
vn -0.868243 0.496139 0.000000
vn -0.868243 0.496139 0.000000
vn -0.868243 0.496138 0.000000
vn -0.868243 0.496138 0.000000
vn -0.868243 0.496138 0.000000
vn -0.867030 -0.495446 -0.052848
vn -0.867030 -0.495446 -0.052848
vn -0.867030 -0.495446 -0.052848
vn -0.964277 -0.220407 -0.146937
vn -0.964277 -0.220407 -0.146937
vn -0.964277 -0.220407 -0.146937
vn -0.988588 0.000000 -0.150641
vn -0.988588 0.000000 -0.150641
vn -0.988588 0.000000 -0.150641
vn -0.988588 0.000000 -0.150642
vn -0.988588 0.000000 -0.150642
vn -0.988588 0.000000 -0.150642
vn -0.868243 -0.496138 0.000000
vn -0.868243 -0.496138 0.000000
vn -0.868243 -0.496138 0.000000
vn -0.868244 -0.496138 0.000000
vn -0.868244 -0.496138 0.000000
vn -0.868244 -0.496138 0.000000
vn -1.000000 0.000000 0.000000
vn -1.000000 0.000000 0.000000
vn -1.000000 0.000000 0.000000
vn -1.000000 0.000000 0.000000
vn -1.000000 0.000000 0.000000
vn -1.000000 0.000000 0.000000
vn -0.977077 -0.205700 0.054854
vn -0.977077 -0.205700 0.054854
vn -0.977077 -0.205700 0.054854
vn -0.860743 -0.491853 0.131161
vn -0.860743 -0.491853 0.131161
vn -0.860743 -0.491853 0.131161
vn -0.988588 0.000000 0.150642
vn -0.988588 0.000000 0.150642
vn -0.988588 0.000000 0.150642
vn -0.988588 0.000000 0.150643
vn -0.988588 0.000000 0.150643
vn -0.988588 0.000000 0.150643
vn 0.525612 0.849813 0.039364
vn 0.525612 0.849813 0.039364
vn 0.525612 0.849813 0.039364
vn 0.000000 0.863577 0.504217
vn 0.000000 0.863577 0.504217
vn 0.000000 0.863577 0.504217
vn 0.000000 0.863577 0.504216
vn 0.000000 0.863577 0.504216
vn 0.000000 0.863577 0.504216
vn 0.525612 0.849813 -0.039363
vn 0.525612 0.849813 -0.039363
vn 0.525612 0.849813 -0.039363
vn 0.480152 0.877185 -0.000000
vn 0.480152 0.877185 -0.000000
vn 0.480152 0.877185 -0.000000
vn 0.480152 0.877185 -0.000000
vn 0.480152 0.877185 -0.000000
vn 0.480152 0.877185 -0.000000
vn -0.000000 0.863577 -0.504217
vn -0.000000 0.863577 -0.504217
vn -0.000000 0.863577 -0.504217
vn -0.000000 0.863577 -0.504217
vn -0.000000 0.863577 -0.504217
vn -0.000000 0.863577 -0.504217
vn 0.000000 1.000000 0.000000
vn 0.000000 1.000000 0.000000
vn 0.000000 1.000000 0.000000
vn -0.000000 1.000000 0.000000
vn -0.000000 1.000000 0.000000
vn -0.000000 1.000000 0.000000
vn -0.036224 0.834162 -0.550328
vn -0.036224 0.834162 -0.550328
vn -0.036224 0.834162 -0.550328
vn -0.480152 0.877185 0.000000
vn -0.480152 0.877185 0.000000
vn -0.480152 0.877185 0.000000
vn -0.480152 0.877185 0.000000
vn -0.480152 0.877185 0.000000
vn -0.480152 0.877185 0.000000
vn -0.035666 -0.998639 -0.038043
vn -0.035666 -0.998639 -0.038043
vn -0.035666 -0.998639 -0.038043
vn -0.013155 -0.999815 -0.014033
vn -0.013155 -0.999815 -0.014033
vn -0.013155 -0.999815 -0.014033
vn -0.035691 -0.999363 0.000000
vn -0.035691 -0.999363 0.000000
vn -0.035691 -0.999363 0.000000
vn -0.035691 -0.999363 0.000000
vn -0.035691 -0.999363 0.000000
vn -0.035691 -0.999363 0.000000
vn 0.035687 -0.999247 -0.015227
vn 0.035687 -0.999247 -0.015227
vn 0.035687 -0.999247 -0.015227
vn 0.014274 -0.999173 -0.038064
vn 0.014274 -0.999173 -0.038064
vn 0.014274 -0.999173 -0.038064
vn -0.000000 -0.999275 -0.038068
vn -0.000000 -0.999275 -0.038068
vn -0.000000 -0.999275 -0.038068
vn -0.000000 -0.999275 -0.038068
vn -0.000000 -0.999275 -0.038068
vn -0.000000 -0.999275 -0.038068
vn 0.035691 -0.999363 -0.000000
vn 0.035691 -0.999363 -0.000000
vn 0.035691 -0.999363 -0.000000
vn 0.035692 -0.999363 -0.000000
vn 0.035692 -0.999363 -0.000000
vn 0.035692 -0.999363 -0.000000
vn -0.000000 -1.000000 0.000000
vn -0.000000 -1.000000 0.000000
vn -0.000000 -1.000000 0.000000
vn -0.000000 -1.000000 0.000000
vn -0.000000 -1.000000 0.000000
vn -0.000000 -1.000000 0.000000
vn 0.013155 -0.999815 0.014033
vn 0.013155 -0.999815 0.014033
vn 0.013155 -0.999815 0.014033
vn 0.035666 -0.998639 0.038043
vn 0.035666 -0.998639 0.038043
vn 0.035666 -0.998639 0.038043
vn -0.000000 -0.999275 0.038068
vn -0.000000 -0.999275 0.038068
vn -0.000000 -0.999275 0.038068
vn -0.000000 -0.999275 0.038068
vn -0.000000 -0.999275 0.038068
vn -0.000000 -0.999275 0.038068
vn -0.525612 0.849813 0.039364
vn -0.525612 0.849813 0.039364
vn -0.525612 0.849813 0.039364
vn 0.036224 0.834162 0.550328
vn 0.036224 0.834162 0.550328
vn 0.036224 0.834162 0.550328
vn 0.036223 0.834162 -0.550328
vn 0.036223 0.834162 -0.550328
vn 0.036223 0.834162 -0.550328
vn -0.525612 0.849813 -0.039364
vn -0.525612 0.849813 -0.039364
vn -0.525612 0.849813 -0.039364
vn -0.014268 0.047560 0.998766
vn -0.014268 0.047560 0.998766
vn -0.014268 0.047560 0.998766
vn -0.035685 0.019032 0.999182
vn -0.035685 0.019032 0.999182
vn -0.035685 0.019032 0.999182
vn -0.023246 0.643933 -0.764729
vn -0.023246 0.643933 -0.764729
vn -0.023246 0.643933 -0.764729
vn -0.958475 0.182567 -0.219079
vn -0.958475 0.182567 -0.219079
vn -0.958475 0.182567 -0.219079
vn -0.866350 0.066008 -0.495057
vn -0.866350 0.066008 -0.495057
vn -0.866350 0.066008 -0.495057
vn 0.105018 0.980172 -0.168028
vn 0.105018 0.980172 -0.168028
vn 0.105018 0.980172 -0.168028
vn 0.039361 0.918432 -0.393615
vn 0.039361 0.918432 -0.393615
vn 0.039361 0.918432 -0.393615
vn -0.105018 -0.980172 -0.168030
vn -0.105018 -0.980172 -0.168030
vn -0.105018 -0.980172 -0.168030
vn -0.039362 -0.918433 -0.393614
vn -0.039362 -0.918433 -0.393614
vn -0.039362 -0.918433 -0.393614
vn 0.958474 -0.182566 -0.219083
vn 0.958474 -0.182566 -0.219083
vn 0.958474 -0.182566 -0.219083
vn 0.866350 -0.066008 -0.495057
vn 0.866350 -0.066008 -0.495057
vn 0.866350 -0.066008 -0.495057
vn 0.856608 0.163163 -0.489491
vn 0.856608 0.163163 -0.489491
vn 0.856608 0.163163 -0.489491
vn 0.976251 0.068509 -0.205527
vn 0.976251 0.068509 -0.205527
vn 0.976251 0.068509 -0.205527
vn 0.868243 0.000000 -0.496139
vn 0.868243 0.000000 -0.496139
vn 0.868243 0.000000 -0.496139
vn 0.868243 0.000000 -0.496138
vn 0.868243 0.000000 -0.496138
vn 0.868243 0.000000 -0.496138
vn 0.866350 0.066008 0.495056
vn 0.866350 0.066008 0.495056
vn 0.866350 0.066008 0.495056
vn 0.958474 0.182567 0.219080
vn 0.958474 0.182567 0.219080
vn 0.958474 0.182567 0.219080
vn 0.982339 0.187112 0.000000
vn 0.982339 0.187112 0.000000
vn 0.982339 0.187112 0.000000
vn 0.982339 0.187112 0.000000
vn 0.982339 0.187112 0.000000
vn 0.982339 0.187112 0.000000
vn 0.868243 0.000000 0.496139
vn 0.868243 0.000000 0.496139
vn 0.868243 0.000000 0.496139
vn 0.868243 0.000000 0.496139
vn 0.868243 0.000000 0.496139
vn 0.868243 0.000000 0.496139
vn 1.000000 0.000000 0.000000
vn 1.000000 0.000000 0.000000
vn 1.000000 0.000000 0.000000
vn 1.000000 0.000000 0.000000
vn 1.000000 0.000000 0.000000
vn 1.000000 0.000000 0.000000
vn 0.976251 -0.068509 0.205527
vn 0.976251 -0.068509 0.205527
vn 0.976251 -0.068509 0.205527
vn 0.856608 -0.163164 0.489490
vn 0.856608 -0.163164 0.489490
vn 0.856608 -0.163164 0.489490
vn 0.982339 -0.187112 0.000000
vn 0.982339 -0.187112 0.000000
vn 0.982339 -0.187112 0.000000
vn 0.982339 -0.187112 0.000000
vn 0.982339 -0.187112 0.000000
vn 0.982339 -0.187112 0.000000
vn 0.098006 -0.914720 -0.392023
vn 0.098006 -0.914720 -0.392023
vn 0.098006 -0.914720 -0.392023
vn 0.038961 -0.987013 -0.155845
vn 0.038961 -0.987013 -0.155845
vn 0.038961 -0.987013 -0.155845
vn -0.000000 -0.919145 -0.393919
vn -0.000000 -0.919145 -0.393919
vn -0.000000 -0.919145 -0.393919
vn -0.000000 -0.919145 -0.393920
vn -0.000000 -0.919145 -0.393920
vn -0.000000 -0.919145 -0.393920
vn 0.039362 -0.918433 0.393614
vn 0.039362 -0.918433 0.393614
vn 0.039362 -0.918433 0.393614
vn 0.105019 -0.980172 0.168030
vn 0.105019 -0.980172 0.168030
vn 0.105019 -0.980172 0.168030
vn 0.106533 -0.994309 -0.000000
vn 0.106533 -0.994309 -0.000000
vn 0.106533 -0.994309 -0.000000
vn 0.106533 -0.994309 0.000000
vn 0.106533 -0.994309 0.000000
vn 0.106533 -0.994309 0.000000
vn 0.000000 -0.919145 0.393919
vn 0.000000 -0.919145 0.393919
vn 0.000000 -0.919145 0.393919
vn 0.000000 -0.919145 0.393919
vn 0.000000 -0.919145 0.393919
vn 0.000000 -0.919145 0.393919
vn -0.000000 -1.000000 0.000000
vn -0.000000 -1.000000 0.000000
vn -0.000000 -1.000000 0.000000
vn -0.000000 -1.000000 0.000000
vn -0.000000 -1.000000 0.000000
vn -0.000000 -1.000000 0.000000
vn -0.038961 -0.987013 0.155844
vn -0.038961 -0.987013 0.155844
vn -0.038961 -0.987013 0.155844
vn -0.098006 -0.914720 0.392023
vn -0.098006 -0.914720 0.392023
vn -0.098006 -0.914720 0.392023
vn -0.106533 -0.994309 0.000000
vn -0.106533 -0.994309 0.000000
vn -0.106533 -0.994309 0.000000
vn -0.106533 -0.994309 0.000000
vn -0.106533 -0.994309 0.000000
vn -0.106533 -0.994309 0.000000
vn -0.068773 0.916969 -0.392987
vn -0.068773 0.916969 -0.392987
vn -0.068773 0.916969 -0.392987
vn -0.026869 0.987777 -0.153539
vn -0.026869 0.987777 -0.153539
vn -0.026869 0.987777 -0.153539
vn -0.000000 0.919145 -0.393920
vn -0.000000 0.919145 -0.393920
vn -0.000000 0.919145 -0.393920
vn -0.000000 0.919145 -0.393919
vn -0.000000 0.919145 -0.393919
vn -0.000000 0.919145 -0.393919
vn -0.039490 0.941156 0.335657
vn -0.039490 0.941156 0.335657
vn -0.039490 0.941156 0.335657
vn -0.073798 0.983969 0.162355
vn -0.073798 0.983969 0.162355
vn -0.073798 0.983969 0.162355
vn -0.074790 0.997199 0.000000
vn -0.074790 0.997199 0.000000
vn -0.074790 0.997199 0.000000
vn -0.074790 0.997199 0.000000
vn -0.074790 0.997199 0.000000
vn -0.074790 0.997199 0.000000
vn 0.000000 0.919145 0.393920
vn 0.000000 0.919145 0.393920
vn 0.000000 0.919145 0.393920
vn -0.000000 0.919145 0.393919
vn -0.000000 0.919145 0.393919
vn -0.000000 0.919145 0.393919
vn -0.000000 1.000000 0.000000
vn -0.000000 1.000000 0.000000
vn -0.000000 1.000000 0.000000
vn -0.000000 1.000000 0.000000
vn -0.000000 1.000000 0.000000
vn -0.000000 1.000000 0.000000
vn 0.038961 0.987013 0.155844
vn 0.038961 0.987013 0.155844
vn 0.038961 0.987013 0.155844
vn 0.098006 0.914720 0.392023
vn 0.098006 0.914720 0.392023
vn 0.098006 0.914720 0.392023
vn 0.106533 0.994309 0.000000
vn 0.106533 0.994309 0.000000
vn 0.106533 0.994309 0.000000
vn 0.106533 0.994309 -0.000000
vn 0.106533 0.994309 -0.000000
vn 0.106533 0.994309 -0.000000
vn -0.856608 -0.163163 -0.489490
vn -0.856608 -0.163163 -0.489490
vn -0.856608 -0.163163 -0.489490
vn -0.976251 -0.068509 -0.205526
vn -0.976251 -0.068509 -0.205526
vn -0.976251 -0.068509 -0.205526
vn -0.868243 0.000000 -0.496139
vn -0.868243 0.000000 -0.496139
vn -0.868243 0.000000 -0.496139
vn -0.868243 0.000000 -0.496139
vn -0.868243 0.000000 -0.496139
vn -0.868243 0.000000 -0.496139
vn -0.866350 -0.066007 0.495056
vn -0.866350 -0.066007 0.495056
vn -0.866350 -0.066007 0.495056
vn -0.958474 -0.182567 0.219082
vn -0.958474 -0.182567 0.219082
vn -0.958474 -0.182567 0.219082
vn -0.982338 -0.187112 0.000000
vn -0.982338 -0.187112 0.000000
vn -0.982338 -0.187112 0.000000
vn -0.982339 -0.187112 0.000000
vn -0.982339 -0.187112 0.000000
vn -0.982339 -0.187112 0.000000
vn -0.868243 0.000000 0.496139
vn -0.868243 0.000000 0.496139
vn -0.868243 0.000000 0.496139
vn -0.868243 0.000000 0.496139
vn -0.868243 0.000000 0.496139
vn -0.868243 0.000000 0.496139
vn -1.000000 0.000000 0.000000
vn -1.000000 0.000000 0.000000
vn -1.000000 0.000000 0.000000
vn -1.000000 0.000000 0.000000
vn -1.000000 0.000000 0.000000
vn -1.000000 0.000000 0.000000
vn -0.976250 0.068509 0.205529
vn -0.976250 0.068509 0.205529
vn -0.976250 0.068509 0.205529
vn -0.856608 0.163163 0.489490
vn -0.856608 0.163163 0.489490
vn -0.856608 0.163163 0.489490
vn -0.982339 0.187112 0.000000
vn -0.982339 0.187112 0.000000
vn -0.982339 0.187112 0.000000
vn -0.982338 0.187112 0.000000
vn -0.982338 0.187112 0.000000
vn -0.982338 0.187112 0.000000
vn 0.525383 0.049183 -0.849443
vn 0.525383 0.049183 -0.849443
vn 0.525383 0.049183 -0.849443
vn -0.000000 0.589526 -0.807749
vn -0.000000 0.589526 -0.807749
vn -0.000000 0.589526 -0.807749
vn -0.000000 0.589526 -0.807750
vn -0.000000 0.589526 -0.807750
vn -0.000000 0.589526 -0.807750
vn 0.525383 -0.049183 -0.849443
vn 0.525383 -0.049183 -0.849443
vn 0.525383 -0.049183 -0.849443
vn 0.480151 -0.000000 -0.877186
vn 0.480151 -0.000000 -0.877186
vn 0.480151 -0.000000 -0.877186
vn 0.480151 -0.000000 -0.877186
vn 0.480151 -0.000000 -0.877186
vn 0.480151 -0.000000 -0.877186
vn -0.000000 -0.589526 -0.807749
vn -0.000000 -0.589526 -0.807749
vn -0.000000 -0.589526 -0.807749
vn -0.000000 -0.589526 -0.807750
vn -0.000000 -0.589526 -0.807750
vn -0.000000 -0.589526 -0.807750
vn -0.000000 -0.000000 -1.000000
vn -0.000000 -0.000000 -1.000000
vn -0.000000 -0.000000 -1.000000
vn -0.000000 -0.000000 -1.000000
vn -0.000000 -0.000000 -1.000000
vn -0.000000 -0.000000 -1.000000
vn -0.033484 -0.635876 -0.771065
vn -0.033484 -0.635876 -0.771065
vn -0.033484 -0.635876 -0.771065
vn -0.480152 0.000000 -0.877185
vn -0.480152 0.000000 -0.877185
vn -0.480152 0.000000 -0.877185
vn -0.480152 -0.000000 -0.877185
vn -0.480152 -0.000000 -0.877185
vn -0.480152 -0.000000 -0.877185
vn -0.035651 -0.047535 0.998233
vn -0.035651 -0.047535 0.998233
vn -0.035651 -0.047535 0.998233
vn -0.013154 -0.017539 0.999760
vn -0.013154 -0.017539 0.999760
vn -0.013154 -0.017539 0.999760
vn -0.035691 0.000000 0.999363
vn -0.035691 0.000000 0.999363
vn -0.035691 0.000000 0.999363
vn -0.035691 0.000000 0.999363
vn -0.035691 0.000000 0.999363
vn -0.035691 0.000000 0.999363
vn 0.035685 -0.019032 0.999182
vn 0.035685 -0.019032 0.999182
vn 0.035685 -0.019032 0.999182
vn 0.014268 -0.047560 0.998766
vn 0.014268 -0.047560 0.998766
vn 0.014268 -0.047560 0.998766
vn 0.000000 -0.047565 0.998868
vn 0.000000 -0.047565 0.998868
vn 0.000000 -0.047565 0.998868
vn 0.000000 -0.047565 0.998868
vn 0.000000 -0.047565 0.998868
vn 0.000000 -0.047565 0.998868
vn 0.035692 0.000000 0.999363
vn 0.035692 0.000000 0.999363
vn 0.035692 0.000000 0.999363
vn 0.035692 0.000000 0.999363
vn 0.035692 0.000000 0.999363
vn 0.035692 0.000000 0.999363
vn 0.000000 0.000000 1.000000
vn 0.000000 0.000000 1.000000
vn 0.000000 0.000000 1.000000
vn 0.000000 0.000000 1.000000
vn 0.000000 0.000000 1.000000
vn 0.000000 0.000000 1.000000
vn 0.013155 0.017540 0.999760
vn 0.013155 0.017540 0.999760
vn 0.013155 0.017540 0.999760
vn 0.035651 0.047535 0.998233
vn 0.035651 0.047535 0.998233
vn 0.035651 0.047535 0.998233
vn 0.000000 0.047565 0.998868
vn 0.000000 0.047565 0.998868
vn 0.000000 0.047565 0.998868
vn 0.000000 0.047565 0.998868
vn 0.000000 0.047565 0.998868
vn 0.000000 0.047565 0.998868
vn -0.525384 0.049183 -0.849443
vn -0.525384 0.049183 -0.849443
vn -0.525384 0.049183 -0.849443
vn 0.033483 0.635875 -0.771065
vn 0.033483 0.635875 -0.771065
vn 0.033483 0.635875 -0.771065
vn 0.033484 -0.635876 -0.771065
vn 0.033484 -0.635876 -0.771065
vn 0.033484 -0.635876 -0.771065
vn -0.525383 -0.049183 -0.849443
vn -0.525383 -0.049183 -0.849443
vn -0.525383 -0.049183 -0.849443

g Material.001
f 3/1/1 1/2/2 2/3/3
f 4/4/4 1/5/5 3/6/6
f 7/7/7 5/8/8 6/9/9
f 8/10/10 5/11/11 7/12/12
f 11/13/13 9/14/14 10/15/15
f 12/16/16 9/17/17 11/18/18

g Material
f 15/19/19 13/20/20 14/21/21
f 16/22/22 13/23/23 15/24/24
f 19/25/25 17/26/26 18/27/27
f 20/28/28 17/29/29 19/30/30
f 23/31/31 21/32/32 22/33/33
f 24/34/34 21/35/35 23/36/36
f 27/37/37 25/38/38 26/39/39
f 28/40/40 25/41/41 27/42/42
f 31/43/43 29/44/44 30/45/45
f 32/46/46 29/47/47 31/48/48
f 35/49/49 33/50/50 34/51/51
f 36/52/52 33/53/53 35/54/54
f 39/55/55 37/56/56 38/57/57
f 40/58/58 37/59/59 39/60/60
f 43/61/61 41/62/62 42/63/63
f 46/64/64 44/65/65 45/66/66
f 47/67/67 44/68/68 46/69/69
f 50/70/70 48/71/71 49/72/72
f 51/73/73 48/74/74 50/75/75
f 54/76/76 52/77/77 53/78/78
f 55/79/79 52/80/80 54/81/81
f 58/82/82 56/83/83 57/84/84
f 59/85/85 56/86/86 58/87/87
f 62/88/88 60/89/89 61/90/90
f 63/91/91 60/92/92 62/93/93
f 66/94/94 64/95/95 65/96/96
f 67/97/97 64/98/98 66/99/99
f 70/100/100 68/101/101 69/102/102
f 71/103/103 68/104/104 70/105/105
f 74/106/106 72/107/107 73/108/108
f 75/109/109 72/110/110 74/111/111
f 78/112/112 76/113/113 77/114/114
f 79/115/115 76/116/116 78/117/117
f 82/118/118 80/119/119 81/120/120
f 83/121/121 80/122/122 82/123/123
f 86/124/124 84/125/125 85/126/126
f 87/127/127 84/128/128 86/129/129
f 90/130/130 88/131/131 89/132/132
f 91/133/133 88/134/134 90/135/135
f 94/136/136 92/137/137 93/138/138
f 95/139/139 92/140/140 94/141/141
f 98/142/142 96/143/143 97/144/144
f 99/145/145 96/146/146 98/147/147
f 102/148/148 100/149/149 101/150/150
f 103/151/151 100/152/152 102/153/153
f 106/154/154 104/155/155 105/156/156
f 107/157/157 104/158/158 106/159/159
f 110/160/160 108/161/161 109/162/162
f 111/163/163 108/164/164 110/165/165
f 114/166/166 112/167/167 113/168/168
f 115/169/169 112/170/170 114/171/171
f 118/172/172 116/173/173 117/174/174
f 119/175/175 116/176/176 118/177/177
f 122/178/178 120/179/179 121/180/180
f 123/181/181 120/182/182 122/183/183
f 126/184/184 124/185/185 125/186/186
f 127/187/187 124/188/188 126/189/189
f 130/190/190 128/191/191 129/192/192
f 131/193/193 128/194/194 130/195/195
f 134/196/196 132/197/197 133/198/198
f 135/199/199 132/200/200 134/201/201
f 138/202/202 136/203/203 137/204/204
f 139/205/205 136/206/206 138/207/207
f 142/208/208 140/209/209 141/210/210
f 143/211/211 140/212/212 142/213/213
f 146/214/214 144/215/215 145/216/216
f 147/217/217 144/218/218 146/219/219
f 150/220/220 148/221/221 149/222/222
f 151/223/223 148/224/224 150/225/225
f 154/226/226 152/227/227 153/228/228
f 155/229/229 152/230/230 154/231/231
f 158/232/232 156/233/233 157/234/234
f 159/235/235 156/236/236 158/237/237
f 162/238/238 160/239/239 161/240/240
f 163/241/241 160/242/242 162/243/243
f 166/244/244 164/245/245 165/246/246
f 167/247/247 164/248/248 166/249/249
f 170/250/250 168/251/251 169/252/252
f 171/253/253 168/254/254 170/255/255
f 174/256/256 172/257/257 173/258/258
f 175/259/259 172/260/260 174/261/261
f 178/262/262 176/263/263 177/264/264
f 179/265/265 176/266/266 178/267/267
f 182/268/268 180/269/269 181/270/270
f 183/271/271 180/272/272 182/273/273
f 186/274/274 184/275/275 185/276/276
f 187/277/277 184/278/278 186/279/279
f 190/280/280 188/281/281 189/282/282
f 193/283/283 191/284/284 192/285/285
f 194/286/286 191/287/287 193/288/288
f 197/289/289 195/290/290 196/291/291
f 200/292/292 198/293/293 199/294/294
f 201/295/295 198/296/296 200/297/297
f 204/298/298 202/299/299 203/300/300
f 205/301/301 202/302/302 204/303/303
f 208/304/304 206/305/305 207/306/306
f 209/307/307 206/308/308 208/309/309
f 212/310/310 210/311/311 211/312/312
f 215/313/313 213/314/314 214/315/315
f 216/316/316 213/317/317 215/318/318
f 219/319/319 217/320/320 218/321/321
f 220/322/322 217/323/323 219/324/324
f 223/325/325 221/326/326 222/327/327
f 224/328/328 221/329/329 223/330/330
f 227/331/331 225/332/332 226/333/333
f 228/334/334 225/335/335 227/336/336
f 231/337/337 229/338/338 230/339/339
f 232/340/340 229/341/341 231/342/342
f 235/343/343 233/344/344 234/345/345
f 236/346/346 233/347/347 235/348/348
f 239/349/349 237/350/350 238/351/351
f 240/352/352 237/353/353 239/354/354
f 243/355/355 241/356/356 242/357/357
f 244/358/358 241/359/359 243/360/360
f 247/361/361 245/362/362 246/363/363
f 248/364/364 245/365/365 247/366/366
f 251/367/367 249/368/368 250/369/369
f 254/370/370 252/371/371 253/372/372
f 257/373/373 255/374/374 256/375/375
f 260/376/376 258/377/377 259/378/378
f 263/379/379 261/380/380 262/381/381
f 264/382/382 261/383/383 263/384/384
f 267/385/385 265/386/386 266/387/387
f 270/388/388 268/389/389 269/390/390
f 271/391/391 268/392/392 270/393/393
f 274/394/394 272/395/395 273/396/396
f 275/397/397 272/398/398 274/399/399
f 278/400/400 276/401/401 277/402/402
f 279/403/403 276/404/404 278/405/405
f 282/406/406 280/407/407 281/408/408
f 283/409/409 280/410/410 282/411/411
f 286/412/412 284/413/413 285/414/414
f 287/415/415 284/416/416 286/417/417
f 290/418/418 288/419/419 289/420/420
f 291/421/421 288/422/422 290/423/423
f 294/424/424 292/425/425 293/426/426
f 295/427/427 292/428/428 294/429/429
f 298/430/430 296/431/431 297/432/432
f 299/433/433 296/434/434 298/435/435
f 302/436/436 300/437/437 301/438/438
f 303/439/439 300/440/440 302/441/441
f 306/442/442 304/443/443 305/444/444
f 307/445/445 304/446/446 306/447/447
f 310/448/448 308/449/449 309/450/450
f 311/451/451 308/452/452 310/453/453
f 314/454/454 312/455/455 313/456/456
f 315/457/457 312/458/458 314/459/459
f 318/460/460 316/461/461 317/462/462
f 319/463/463 316/464/464 318/465/465
f 322/466/466 320/467/467 321/468/468
f 323/469/469 320/470/470 322/471/471
f 326/472/472 324/473/473 325/474/474
f 327/475/475 324/476/476 326/477/477
f 330/478/478 328/479/479 329/480/480
f 331/481/481 328/482/482 330/483/483
f 334/484/484 332/485/485 333/486/486
f 335/487/487 332/488/488 334/489/489
f 338/490/490 336/491/491 337/492/492
f 339/493/493 336/494/494 338/495/495
f 342/496/496 340/497/497 341/498/498
f 343/499/499 340/500/500 342/501/501
f 346/502/502 344/503/503 345/504/504
f 347/505/505 344/506/506 346/507/507
f 350/508/508 348/509/509 349/510/510
f 351/511/511 348/512/512 350/513/513
f 354/514/514 352/515/515 353/516/516
f 355/517/517 352/518/518 354/519/519
f 358/520/520 356/521/521 357/522/522
f 359/523/523 356/524/524 358/525/525
f 362/526/526 360/527/527 361/528/528
f 363/529/529 360/530/530 362/531/531
f 366/532/532 364/533/533 365/534/534
f 367/535/535 364/536/536 366/537/537
f 370/538/538 368/539/539 369/540/540
f 371/541/541 368/542/542 370/543/543
f 374/544/544 372/545/545 373/546/546
f 375/547/547 372/548/548 374/549/549
f 378/550/550 376/551/551 377/552/552
f 379/553/553 376/554/554 378/555/555
f 382/556/556 380/557/557 381/558/558
f 383/559/559 380/560/560 382/561/561
f 386/562/562 384/563/563 385/564/564
f 387/565/565 384/566/566 386/567/567
f 390/568/568 388/569/569 389/570/570
f 391/571/571 388/572/572 390/573/573
f 394/574/574 392/575/575 393/576/576
f 395/577/577 392/578/578 394/579/579
f 398/580/580 396/581/581 397/582/582
f 399/583/583 396/584/584 398/585/585
f 402/586/586 400/587/587 401/588/588
f 403/589/589 400/590/590 402/591/591
f 406/592/592 404/593/593 405/594/594
f 407/595/595 404/596/596 406/597/597
f 410/598/598 408/599/599 409/600/600
f 411/601/601 408/602/602 410/603/603
f 414/604/604 412/605/605 413/606/606
f 417/607/607 415/608/608 416/609/609
f 418/610/610 415/611/611 417/612/612
f 421/613/613 419/614/614 420/615/615
f 424/616/616 422/617/617 423/618/618
f 425/619/619 422/620/620 424/621/621
f 428/622/622 426/623/623 427/624/624
f 429/625/625 426/626/626 428/627/627
f 432/628/628 430/629/629 431/630/630
f 433/631/631 430/632/632 432/633/633
f 436/634/634 434/635/635 435/636/636
f 439/637/637 437/638/638 438/639/639
f 440/640/640 437/641/641 439/642/642
f 443/643/643 441/644/644 442/645/645
f 444/646/646 441/647/647 443/648/648
f 447/649/649 445/650/650 446/651/651
f 448/652/652 445/653/653 447/654/654
f 451/655/655 449/656/656 450/657/657
f 452/658/658 449/659/659 451/660/660
f 455/661/661 453/662/662 454/663/663
f 456/664/664 453/665/665 455/666/666
f 459/667/667 457/668/668 458/669/669
f 460/670/670 457/671/671 459/672/672
f 463/673/673 461/674/674 462/675/675
f 464/676/676 461/677/677 463/678/678
f 467/679/679 465/680/680 466/681/681
f 468/682/682 465/683/683 467/684/684
f 471/685/685 469/686/686 470/687/687
f 472/688/688 469/689/689 471/690/690
f 475/691/691 473/692/692 474/693/693
f 478/694/694 476/695/695 477/696/696
f 481/697/697 479/698/698 480/699/699
f 484/700/700 482/701/701 483/702/702

