# Converted from B3D for Luanti (With Correct Normals)
# Object Name: multidecor_kitchen_cabinet_three_shelves

v 1.000000 -0.800000 -0.850000
v 1.000000 0.900000 -0.850000
v 1.000000 0.900000 1.000000
v 1.000000 -0.800000 1.000000
v 1.000000 -0.800000 1.000000
v 1.000000 0.900000 1.000000
v -1.000000 0.900000 1.000000
v -1.000000 -0.800000 1.000000
v -1.000000 -0.800000 1.000000
v -1.000000 -0.800000 -0.850000
v 1.000000 -0.800000 -0.850000
v 1.000000 -0.800000 1.000000
v 0.850000 0.350000 -0.850000
v 0.850000 0.800000 -0.850000
v 0.850000 0.800000 0.900000
v 0.850000 0.350000 0.900000
v -1.000000 -0.800000 1.000000
v -1.000000 0.900000 1.000000
v -1.000000 0.900000 -0.850000
v -1.000000 -0.800000 -0.850000
v -1.000000 0.900000 1.000000
v -1.000000 1.000000 1.000000
v -1.000000 1.000000 -1.000000
v -1.000000 0.900000 -1.000000
v -1.000000 0.900000 -1.000000
v -1.000000 1.000000 -1.000000
v 1.000000 1.000000 -1.000000
v 1.000000 0.900000 -1.000000
v 1.000000 0.900000 1.000000
v 1.000000 1.000000 1.000000
v -1.000000 1.000000 1.000000
v -1.000000 0.900000 1.000000
v 1.000000 0.900000 -1.000000
v 1.000000 1.000000 -1.000000
v 1.000000 1.000000 1.000000
v 1.000000 0.900000 1.000000
v 1.000000 1.000000 1.000000
v 1.000000 1.000000 -1.000000
v -1.000000 1.000000 -1.000000
v -1.000000 1.000000 1.000000
v 0.750000 -0.800000 -0.550000
v 0.650000 -0.800000 -0.550000
v 0.650000 -1.000000 -0.550000
v 0.750000 -1.000000 -0.550000
v 0.550000 -0.800000 -0.750000
v 0.650000 -0.800000 -0.850000
v 0.650000 -1.000000 -0.850000
v 0.550000 -1.000000 -0.750000
v 0.750000 -0.800000 -0.850000
v 0.850000 -0.800000 -0.750000
v 0.850000 -1.000000 -0.750000
v 0.750000 -1.000000 -0.850000
v 0.850000 -0.800000 -0.650000
v 0.750000 -0.800000 -0.550000
v 0.750000 -1.000000 -0.550000
v 0.850000 -1.000000 -0.650000
v 0.650000 -0.800000 -0.550000
v 0.550000 -0.800000 -0.650000
v 0.550000 -1.000000 -0.650000
v 0.650000 -1.000000 -0.550000
v 0.550000 -0.800000 -0.650000
v 0.550000 -0.800000 -0.750000
v 0.550000 -1.000000 -0.750000
v 0.550000 -1.000000 -0.650000
v 0.650000 -0.800000 -0.850000
v 0.750000 -0.800000 -0.850000
v 0.750000 -1.000000 -0.850000
v 0.650000 -1.000000 -0.850000
v 0.850000 -0.800000 -0.750000
v 0.850000 -0.800000 -0.650000
v 0.850000 -1.000000 -0.650000
v 0.850000 -1.000000 -0.750000
v 0.750000 -1.000000 -0.850000
v 0.850000 -1.000000 -0.750000
v 0.550000 -1.000000 -0.650000
v 0.850000 -1.000000 -0.750000
v 0.850000 -1.000000 -0.650000
v 0.550000 -1.000000 -0.650000
v 0.850000 -1.000000 -0.650000
v 0.750000 -1.000000 -0.550000
v 0.550000 -1.000000 -0.650000
v 0.750000 -1.000000 -0.550000
v 0.650000 -1.000000 -0.550000
v 0.550000 -1.000000 -0.650000
v 0.550000 -1.000000 -0.650000
v 0.550000 -1.000000 -0.750000
v 0.650000 -1.000000 -0.850000
v 0.650000 -1.000000 -0.850000
v 0.750000 -1.000000 -0.850000
v 0.550000 -1.000000 -0.650000
v -0.550000 -0.800000 -0.750000
v -0.550000 -0.800000 -0.650000
v -0.550000 -1.000000 -0.650000
v -0.550000 -1.000000 -0.750000
v -0.750000 -0.800000 -0.550000
v -0.850000 -0.800000 -0.650000
v -0.850000 -1.000000 -0.650000
v -0.750000 -1.000000 -0.550000
v -0.850000 -0.800000 -0.750000
v -0.750000 -0.800000 -0.850000
v -0.750000 -1.000000 -0.850000
v -0.850000 -1.000000 -0.750000
v -0.650000 -0.800000 -0.850000
v -0.550000 -0.800000 -0.750000
v -0.550000 -1.000000 -0.750000
v -0.650000 -1.000000 -0.850000
v -0.550000 -0.800000 -0.650000
v -0.650000 -0.800000 -0.550000
v -0.650000 -1.000000 -0.550000
v -0.550000 -1.000000 -0.650000
v -0.650000 -0.800000 -0.550000
v -0.750000 -0.800000 -0.550000
v -0.750000 -1.000000 -0.550000
v -0.650000 -1.000000 -0.550000
v -0.850000 -0.800000 -0.650000
v -0.850000 -0.800000 -0.750000
v -0.850000 -1.000000 -0.750000
v -0.850000 -1.000000 -0.650000
v -0.750000 -0.800000 -0.850000
v -0.650000 -0.800000 -0.850000
v -0.650000 -1.000000 -0.850000
v -0.750000 -1.000000 -0.850000
v -0.850000 -1.000000 -0.750000
v -0.750000 -1.000000 -0.850000
v -0.650000 -1.000000 -0.550000
v -0.750000 -1.000000 -0.850000
v -0.650000 -1.000000 -0.850000
v -0.650000 -1.000000 -0.550000
v -0.650000 -1.000000 -0.850000
v -0.550000 -1.000000 -0.750000
v -0.650000 -1.000000 -0.550000
v -0.550000 -1.000000 -0.750000
v -0.550000 -1.000000 -0.650000
v -0.650000 -1.000000 -0.550000
v -0.650000 -1.000000 -0.550000
v -0.750000 -1.000000 -0.550000
v -0.850000 -1.000000 -0.650000
v -0.850000 -1.000000 -0.650000
v -0.850000 -1.000000 -0.750000
v -0.650000 -1.000000 -0.550000
v -0.750000 -0.800000 0.550000
v -0.650000 -0.800000 0.550000
v -0.650000 -1.000000 0.550000
v -0.750000 -1.000000 0.550000
v -0.550000 -0.800000 0.750000
v -0.650000 -0.800000 0.850000
v -0.650000 -1.000000 0.850000
v -0.550000 -1.000000 0.750000
v -0.750000 -0.800000 0.850000
v -0.850000 -0.800000 0.750000
v -0.850000 -1.000000 0.750000
v -0.750000 -1.000000 0.850000
v -0.850000 -0.800000 0.650000
v -0.750000 -0.800000 0.550000
v -0.750000 -1.000000 0.550000
v -0.850000 -1.000000 0.650000
v -0.650000 -0.800000 0.550000
v -0.550000 -0.800000 0.650000
v -0.550000 -1.000000 0.650000
v -0.650000 -1.000000 0.550000
v -0.550000 -0.800000 0.650000
v -0.550000 -0.800000 0.750000
v -0.550000 -1.000000 0.750000
v -0.550000 -1.000000 0.650000
v -0.650000 -0.800000 0.850000
v -0.750000 -0.800000 0.850000
v -0.750000 -1.000000 0.850000
v -0.650000 -1.000000 0.850000
v -0.850000 -0.800000 0.750000
v -0.850000 -0.800000 0.650000
v -0.850000 -1.000000 0.650000
v -0.850000 -1.000000 0.750000
v -0.750000 -1.000000 0.850000
v -0.850000 -1.000000 0.750000
v -0.550000 -1.000000 0.650000
v -0.850000 -1.000000 0.750000
v -0.850000 -1.000000 0.650000
v -0.550000 -1.000000 0.650000
v -0.850000 -1.000000 0.650000
v -0.750000 -1.000000 0.550000
v -0.550000 -1.000000 0.650000
v -0.750000 -1.000000 0.550000
v -0.650000 -1.000000 0.550000
v -0.550000 -1.000000 0.650000
v -0.550000 -1.000000 0.650000
v -0.550000 -1.000000 0.750000
v -0.650000 -1.000000 0.850000
v -0.650000 -1.000000 0.850000
v -0.750000 -1.000000 0.850000
v -0.550000 -1.000000 0.650000
v 0.550000 -0.800000 0.750000
v 0.550000 -0.800000 0.650000
v 0.550000 -1.000000 0.650000
v 0.550000 -1.000000 0.750000
v 0.750000 -0.800000 0.550000
v 0.850000 -0.800000 0.650000
v 0.850000 -1.000000 0.650000
v 0.750000 -1.000000 0.550000
v 0.850000 -0.800000 0.750000
v 0.750000 -0.800000 0.850000
v 0.750000 -1.000000 0.850000
v 0.850000 -1.000000 0.750000
v 0.650000 -0.800000 0.850000
v 0.550000 -0.800000 0.750000
v 0.550000 -1.000000 0.750000
v 0.650000 -1.000000 0.850000
v 0.550000 -0.800000 0.650000
v 0.650000 -0.800000 0.550000
v 0.650000 -1.000000 0.550000
v 0.550000 -1.000000 0.650000
v 0.650000 -0.800000 0.550000
v 0.750000 -0.800000 0.550000
v 0.750000 -1.000000 0.550000
v 0.650000 -1.000000 0.550000
v 0.850000 -0.800000 0.650000
v 0.850000 -0.800000 0.750000
v 0.850000 -1.000000 0.750000
v 0.850000 -1.000000 0.650000
v 0.750000 -0.800000 0.850000
v 0.650000 -0.800000 0.850000
v 0.650000 -1.000000 0.850000
v 0.750000 -1.000000 0.850000
v 0.850000 -1.000000 0.750000
v 0.750000 -1.000000 0.850000
v 0.650000 -1.000000 0.550000
v 0.750000 -1.000000 0.850000
v 0.650000 -1.000000 0.850000
v 0.650000 -1.000000 0.550000
v 0.650000 -1.000000 0.850000
v 0.550000 -1.000000 0.750000
v 0.650000 -1.000000 0.550000
v 0.550000 -1.000000 0.750000
v 0.550000 -1.000000 0.650000
v 0.650000 -1.000000 0.550000
v 0.650000 -1.000000 0.550000
v 0.750000 -1.000000 0.550000
v 0.850000 -1.000000 0.650000
v 0.850000 -1.000000 0.650000
v 0.850000 -1.000000 0.750000
v 0.650000 -1.000000 0.550000
v 1.000000 0.900000 1.000000
v -1.000000 0.900000 1.000000
v -1.000000 0.900000 -1.000000
v 1.000000 0.900000 -1.000000
v -0.850000 0.350000 0.900000
v -0.850000 0.800000 0.900000
v -0.850000 0.800000 -0.850000
v -0.850000 0.350000 -0.850000
v 0.850000 -0.700000 0.900000
v -0.850000 -0.700000 0.900000
v -0.850000 -0.700000 -0.850000
v 0.850000 -0.700000 -0.850000
v 0.850000 0.350000 0.900000
v 0.850000 0.800000 0.900000
v -0.850000 0.800000 0.900000
v -0.850000 0.350000 0.900000
v -1.000000 -0.800000 -0.850000
v -0.850000 -0.700000 -0.850000
v 0.850000 -0.700000 -0.850000
v 1.000000 -0.800000 -0.850000
v 0.850000 -0.700000 0.900000
v 0.850000 -0.250000 0.900000
v -0.850000 -0.250000 0.900000
v -0.850000 -0.700000 0.900000
v 0.850000 -0.250000 0.900000
v 0.850000 -0.150000 0.900000
v -0.850000 -0.150000 0.900000
v -0.850000 -0.250000 0.900000
v -0.850000 -0.700000 0.900000
v -0.850000 -0.250000 0.900000
v -0.850000 -0.250000 -0.850000
v -0.850000 -0.700000 -0.850000
v -0.850000 -0.250000 0.900000
v -0.850000 -0.150000 0.900000
v -0.850000 -0.150000 -0.850000
v -0.850000 -0.250000 -0.850000
v 0.850000 -0.700000 -0.850000
v 0.850000 -0.250000 -0.850000
v 0.850000 -0.250000 0.900000
v 0.850000 -0.700000 0.900000
v 0.850000 -0.250000 -0.850000
v 0.850000 -0.150000 -0.850000
v 0.850000 -0.150000 0.900000
v 0.850000 -0.250000 0.900000
v 0.850000 -0.150000 0.900000
v 0.850000 -0.150000 -0.850000
v -0.850000 -0.150000 -0.850000
v -0.850000 -0.150000 0.900000
v 0.850000 -0.250000 -0.850000
v 0.850000 -0.250000 0.900000
v -0.850000 -0.250000 0.900000
v -0.850000 -0.250000 -0.850000
v 0.850000 -0.150000 -0.850000
v 0.850000 -0.250000 -0.850000
v -0.850000 -0.250000 -0.850000
v -0.850000 -0.150000 -0.850000
v 1.000000 -0.800000 -0.850000
v 0.850000 -0.250000 -0.850000
v 0.850000 -0.150000 -0.850000
v -0.850000 0.350000 -0.850000
v -0.850000 0.250000 -0.850000
v -1.000000 0.900000 -0.850000
v 0.850000 0.800000 0.900000
v 0.850000 0.800000 -0.850000
v -0.850000 0.800000 -0.850000
v -0.850000 0.800000 0.900000
v 0.850000 0.800000 -0.850000
v -0.850000 0.800000 -0.850000
v -1.000000 0.900000 -0.850000
v 1.000000 0.900000 -0.850000
v 0.850000 -0.150000 0.900000
v 0.850000 0.250000 0.900000
v -0.850000 0.250000 0.900000
v -0.850000 -0.150000 0.900000
v -0.850000 -0.150000 0.900000
v -0.850000 0.250000 0.900000
v -0.850000 0.250000 -0.850000
v -0.850000 -0.150000 -0.850000
v 0.850000 -0.150000 -0.850000
v 0.850000 0.250000 -0.850000
v 0.850000 0.250000 0.900000
v 0.850000 -0.150000 0.900000
v 0.850000 0.800000 -0.850000
v 1.000000 0.900000 -0.850000
v 0.850000 0.350000 -0.850000
v 1.000000 0.900000 -0.850000
v 1.000000 -0.800000 -0.850000
v 0.850000 0.250000 -0.850000
v 0.850000 0.350000 -0.850000
v 1.000000 0.900000 -0.850000
v 0.850000 0.250000 -0.850000
v 1.000000 -0.800000 -0.850000
v 0.850000 -0.700000 -0.850000
v 0.850000 -0.250000 -0.850000
v 0.850000 -0.150000 -0.850000
v 0.850000 0.250000 -0.850000
v 1.000000 -0.800000 -0.850000
v -0.850000 0.250000 -0.850000
v -0.850000 -0.150000 -0.850000
v -1.000000 -0.800000 -0.850000
v -0.850000 -0.150000 -0.850000
v -0.850000 -0.250000 -0.850000
v -1.000000 -0.800000 -0.850000
v -0.850000 -0.250000 -0.850000
v -0.850000 -0.700000 -0.850000
v -1.000000 -0.800000 -0.850000
v -1.000000 -0.800000 -0.850000
v -1.000000 0.900000 -0.850000
v -0.850000 0.250000 -0.850000
v -1.000000 0.900000 -0.850000
v -0.850000 0.800000 -0.850000
v -0.850000 0.350000 -0.850000
v 0.850000 0.350000 0.900000
v 0.850000 0.350000 -0.850000
v -0.850000 0.350000 -0.850000
v -0.850000 0.350000 0.900000
v 0.850000 0.250000 0.900000
v -0.850000 0.250000 0.900000
v -0.850000 0.250000 -0.850000
v 0.850000 0.250000 -0.850000
v -0.850000 0.250000 -0.850000
v -0.850000 0.350000 -0.850000
v 0.850000 0.350000 -0.850000
v 0.850000 0.250000 -0.850000

vt 0.000316 0.616186
vt 0.217989 0.853066
vt 0.000316 0.853066
vt 0.217989 0.616186
vt 0.217989 0.853066
vt 0.000316 0.616186
vt 0.218621 0.571371
vt 0.436294 0.827457
vt 0.218621 0.827457
vt 0.436294 0.571371
vt 0.436294 0.827457
vt 0.218621 0.571371
vt 0.474707 0.333860
vt 0.218621 0.570739
vt 0.218621 0.333860
vt 0.474707 0.570739
vt 0.218621 0.570739
vt 0.474707 0.333860
vt 0.282010 0.000316
vt 0.506086 0.057935
vt 0.506086 0.000316
vt 0.282010 0.057935
vt 0.506086 0.057935
vt 0.282010 0.000316
vt 0.693012 0.846664
vt 0.475339 0.609784
vt 0.693012 0.609784
vt 0.475339 0.846664
vt 0.475339 0.609784
vt 0.693012 0.846664
vt 0.506086 0.333228
vt 0.282010 0.275608
vt 0.282010 0.333228
vt 0.506086 0.275608
vt 0.282010 0.275608
vt 0.506086 0.333228
vt 0.217989 0.615554
vt 0.000316 0.391479
vt 0.217989 0.391479
vt 0.000316 0.615554
vt 0.000316 0.391479
vt 0.217989 0.615554
vt 0.224391 0.275608
vt 0.282010 0.057935
vt 0.224391 0.057935
vt 0.282010 0.275608
vt 0.282010 0.057935
vt 0.224391 0.275608
vt 0.711587 0.019523
vt 0.724391 0.256402
vt 0.711587 0.237196
vt 0.724391 0.000316
vt 0.724391 0.256402
vt 0.711587 0.019523
vt 0.217989 0.333860
vt 0.000316 0.391479
vt 0.000316 0.333860
vt 0.217989 0.391479
vt 0.000316 0.391479
vt 0.217989 0.333860
vt 0.931156 0.775610
vt 0.918352 0.557937
vt 0.931156 0.557937
vt 0.918352 0.775610
vt 0.918352 0.557937
vt 0.931156 0.775610
vt 0.782643 0.224391
vt 0.725023 0.000316
vt 0.782643 0.000316
vt 0.725023 0.224391
vt 0.725023 0.000316
vt 0.782643 0.224391
vt 0.931156 0.999684
vt 0.918352 0.775610
vt 0.931156 0.775610
vt 0.918352 0.999684
vt 0.918352 0.775610
vt 0.931156 0.999684
vt 0.783275 0.000316
vt 0.840894 0.224391
vt 0.783275 0.224391
vt 0.840894 0.000316
vt 0.840894 0.224391
vt 0.783275 0.000316
vt 0.931156 0.557937
vt 0.918352 0.333860
vt 0.931156 0.333860
vt 0.918352 0.557937
vt 0.918352 0.333860
vt 0.931156 0.557937
vt 0.917719 0.769838
vt 0.693644 0.552165
vt 0.917719 0.552165
vt 0.693644 0.769838
vt 0.693644 0.552165
vt 0.917719 0.769838
vt 0.917719 0.551533
vt 0.693644 0.333860
vt 0.917720 0.333860
vt 0.693644 0.551533
vt 0.693644 0.333860
vt 0.917719 0.551533
vt 0.463167 0.789044
vt 0.450363 0.571371
vt 0.463167 0.571371
vt 0.450363 0.789044
vt 0.450363 0.571371
vt 0.463167 0.789044
vt 0.641164 0.019523
vt 0.724391 0.000316
vt 0.653968 0.019523
vt 0.506718 0.256402
vt 0.577142 0.237196
vt 0.589946 0.237196
vt 0.000316 0.275608
vt 0.224391 0.057935
vt 0.000316 0.057935
vt 0.224391 0.275608
vt 0.224391 0.057935
vt 0.000316 0.275608
vt 0.449731 0.571371
vt 0.436926 0.808250
vt 0.436926 0.590578
vt 0.449731 0.827457
vt 0.436926 0.808250
vt 0.449731 0.571371
vt 0.475339 0.557935
vt 0.693012 0.609152
vt 0.693012 0.557935
vt 0.475339 0.609152
vt 0.693012 0.609152
vt 0.475339 0.557935
vt 0.506718 0.308252
vt 0.730793 0.257034
vt 0.730793 0.308252
vt 0.506718 0.257034
vt 0.730793 0.257034
vt 0.506718 0.308252
vt 0.841526 0.000316
vt 0.892744 0.224391
vt 0.841526 0.224391
vt 0.892744 0.000316
vt 0.892744 0.224391
vt 0.841526 0.000316
vt 0.577142 0.019523
vt 0.519523 0.019522
vt 0.506719 0.000316
vt 0.589946 0.019523
vt 0.506719 0.000316
vt 0.724391 0.000316
vt 0.589946 0.019523
vt 0.577142 0.019523
vt 0.506719 0.000316
vt 0.653968 0.019523
vt 0.724391 0.000316
vt 0.711587 0.019523
vt 0.724391 0.000316
vt 0.641164 0.019523
vt 0.589946 0.019523
vt 0.724391 0.256402
vt 0.589946 0.237196
vt 0.641163 0.237196
vt 0.724391 0.256402
vt 0.641163 0.237196
vt 0.653968 0.237196
vt 0.724391 0.256402
vt 0.653968 0.237196
vt 0.711587 0.237196
vt 0.589946 0.237196
vt 0.724391 0.256402
vt 0.506718 0.256402
vt 0.577142 0.237196
vt 0.506718 0.256402
vt 0.519522 0.237196
vt 0.506086 0.275608
vt 0.282010 0.057935
vt 0.506086 0.057935
vt 0.282010 0.275608
vt 0.282010 0.057935
vt 0.506086 0.275608
vt 0.475339 0.333860
vt 0.693012 0.557935
vt 0.475339 0.557935
vt 0.693012 0.333860
vt 0.693012 0.557935
vt 0.475339 0.333860
vt 0.577142 0.019523
vt 0.589946 0.237196
vt 0.577142 0.237196
vt 0.589946 0.019523
vt 0.589946 0.237196
vt 0.577142 0.019523
vt 0.022289 0.977711
vt 0.000070 0.500000
vt 0.022289 0.500000
vt 0.000070 0.977711
vt 0.000070 0.500000
vt 0.022289 0.977711
vt 0.466671 0.977711
vt 0.022289 0.999930
vt 0.022289 0.977711
vt 0.466671 0.999930
vt 0.022289 0.999930
vt 0.466671 0.977711
vt 0.022289 0.500000
vt 0.466671 0.477781
vt 0.466671 0.500000
vt 0.022289 0.477781
vt 0.466671 0.477781
vt 0.022289 0.500000
vt 0.466671 0.500000
vt 0.488890 0.977711
vt 0.466671 0.977711
vt 0.488890 0.500000
vt 0.488890 0.977711
vt 0.466671 0.500000
vt 0.022289 0.977711
vt 0.466671 0.500000
vt 0.466671 0.977711
vt 0.022289 0.500000
vt 0.466671 0.500000
vt 0.022289 0.977711
vt 0.022289 0.000070
vt 0.466671 0.477781
vt 0.022289 0.477781
vt 0.466671 0.000070
vt 0.466671 0.477781
vt 0.022289 0.000070
vt 0.514682 0.327862
vt 0.343534 0.413436
vt 0.343534 0.327862
vt 0.514682 0.413436
vt 0.343534 0.413436
vt 0.514682 0.327862
vt 0.514682 0.000247
vt 0.343534 0.121267
vt 0.343534 0.000247
vt 0.514682 0.121268
vt 0.343534 0.121267
vt 0.514682 0.000247
vt 0.514682 0.620031
vt 0.343534 0.741051
vt 0.343534 0.620031
vt 0.514682 0.741051
vt 0.343534 0.741051
vt 0.514682 0.620031
vt 0.514682 0.413436
vt 0.343534 0.534457
vt 0.343534 0.413436
vt 0.514682 0.534457
vt 0.343534 0.534457
vt 0.514682 0.413436
vt 0.514682 0.206842
vt 0.343534 0.327862
vt 0.343534 0.206842
vt 0.514682 0.327862
vt 0.343534 0.327862
vt 0.514682 0.206842
vt 0.514682 0.121268
vt 0.343534 0.206842
vt 0.343534 0.121267
vt 0.514682 0.206842
vt 0.343534 0.206842
vt 0.514682 0.121268
vt 0.514682 0.741051
vt 0.343534 0.826626
vt 0.343534 0.741051
vt 0.514682 0.826625
vt 0.343534 0.826626
vt 0.514682 0.741051
vt 0.514682 0.534457
vt 0.343534 0.620031
vt 0.343534 0.534457
vt 0.514682 0.620031
vt 0.343534 0.620031
vt 0.514682 0.534457
vt 0.939243 0.000247
vt 0.939243 0.242288
vt 0.818222 0.242288
vt 0.939243 0.000247
vt 0.818222 0.242288
vt 0.757712 0.181778
vt 0.939243 0.000247
vt 0.757712 0.181778
vt 0.757712 0.060757
vt 0.939243 0.000247
vt 0.757712 0.060757
vt 0.818222 0.000247
vt 0.999753 0.181778
vt 0.939243 0.000247
vt 0.999753 0.060757
vt 0.939243 0.000247
vt 0.999753 0.181778
vt 0.939243 0.242288
vt 0.206842 0.998269
vt 0.121268 0.827120
vt 0.206842 0.827120
vt 0.121268 0.998269
vt 0.121268 0.827120
vt 0.206842 0.998269
vt 0.534457 0.998269
vt 0.413436 0.827120
vt 0.534457 0.827120
vt 0.413436 0.998269
vt 0.413436 0.827120
vt 0.534457 0.998269
vt 0.741051 0.998269
vt 0.620031 0.827120
vt 0.741051 0.827120
vt 0.620031 0.998269
vt 0.620031 0.827120
vt 0.741051 0.998269
vt 0.121268 0.998269
vt 0.000247 0.827120
vt 0.121268 0.827120
vt 0.000247 0.998269
vt 0.000247 0.827120
vt 0.121268 0.998269
vt 0.327862 0.998269
vt 0.206842 0.827120
vt 0.327862 0.827120
vt 0.206842 0.998269
vt 0.206842 0.827120
vt 0.327862 0.998269
vt 0.413436 0.998269
vt 0.327862 0.827120
vt 0.413436 0.827120
vt 0.327862 0.998269
vt 0.327862 0.827120
vt 0.413436 0.998269
vt 0.620031 0.998269
vt 0.534457 0.827120
vt 0.620031 0.827120
vt 0.534457 0.998269
vt 0.534457 0.827120
vt 0.620031 0.998269
vt 0.826626 0.998269
vt 0.741051 0.827120
vt 0.826626 0.827120
vt 0.741051 0.998269
vt 0.741051 0.827120
vt 0.826626 0.998269
vt 0.757218 0.666848
vt 0.515177 0.666848
vt 0.515177 0.545828
vt 0.757218 0.666848
vt 0.515177 0.545828
vt 0.575687 0.485318
vt 0.757218 0.666848
vt 0.575687 0.485318
vt 0.696707 0.485318
vt 0.757218 0.666848
vt 0.696707 0.485318
vt 0.757218 0.545828
vt 0.575687 0.727358
vt 0.757218 0.666848
vt 0.696708 0.727358
vt 0.757218 0.666848
vt 0.575687 0.727358
vt 0.515177 0.666848
vt 0.171891 0.826626
vt 0.343039 0.741051
vt 0.343039 0.826626
vt 0.171890 0.741051
vt 0.343039 0.741051
vt 0.171891 0.826626
vt 0.171891 0.327862
vt 0.343039 0.206842
vt 0.343039 0.327862
vt 0.171891 0.206842
vt 0.343039 0.206842
vt 0.171891 0.327862
vt 0.171890 0.534457
vt 0.343039 0.413437
vt 0.343039 0.534457
vt 0.171891 0.413436
vt 0.343039 0.413437
vt 0.171890 0.534457
vt 0.171890 0.741051
vt 0.343039 0.620031
vt 0.343039 0.741051
vt 0.171891 0.620031
vt 0.343039 0.620031
vt 0.171890 0.741051
vt 0.171891 0.121268
vt 0.343039 0.000247
vt 0.343039 0.121268
vt 0.171891 0.000247
vt 0.343039 0.000247
vt 0.171891 0.121268
vt 0.171891 0.206842
vt 0.343039 0.121268
vt 0.343039 0.206842
vt 0.171891 0.121268
vt 0.343039 0.121268
vt 0.171891 0.206842
vt 0.171891 0.413436
vt 0.343039 0.327862
vt 0.343039 0.413437
vt 0.171891 0.327862
vt 0.343039 0.327862
vt 0.171891 0.413436
vt 0.171891 0.620031
vt 0.343039 0.534457
vt 0.343039 0.620031
vt 0.171890 0.534457
vt 0.343039 0.534457
vt 0.171891 0.620031
vt 0.515177 0.303293
vt 0.757218 0.303293
vt 0.757218 0.424313
vt 0.515177 0.303293
vt 0.757218 0.424313
vt 0.696707 0.484823
vt 0.515177 0.303293
vt 0.696707 0.484823
vt 0.575687 0.484823
vt 0.515177 0.303293
vt 0.575687 0.484823
vt 0.515177 0.424313
vt 0.696707 0.242783
vt 0.515177 0.303293
vt 0.575687 0.242782
vt 0.515177 0.303293
vt 0.696707 0.242783
vt 0.757218 0.303293
vt 0.171396 0.121267
vt 0.000247 0.206842
vt 0.000247 0.121268
vt 0.171396 0.206842
vt 0.000247 0.206842
vt 0.171396 0.121267
vt 0.171396 0.620031
vt 0.000247 0.741051
vt 0.000247 0.620031
vt 0.171396 0.741051
vt 0.000247 0.741051
vt 0.171396 0.620031
vt 0.171396 0.413436
vt 0.000247 0.534457
vt 0.000247 0.413436
vt 0.171396 0.534457
vt 0.000247 0.534457
vt 0.171396 0.413436
vt 0.171396 0.206842
vt 0.000247 0.327862
vt 0.000247 0.206842
vt 0.171396 0.327862
vt 0.000247 0.327862
vt 0.171396 0.206842
vt 0.171396 0.000247
vt 0.000247 0.121268
vt 0.000247 0.000247
vt 0.171396 0.121267
vt 0.000247 0.121268
vt 0.171396 0.000247
vt 0.171396 0.741051
vt 0.000247 0.826626
vt 0.000247 0.741051
vt 0.171396 0.826626
vt 0.000247 0.826626
vt 0.171396 0.741051
vt 0.171396 0.534457
vt 0.000247 0.620031
vt 0.000247 0.534457
vt 0.171396 0.620031
vt 0.000247 0.620031
vt 0.171396 0.534457
vt 0.171396 0.327862
vt 0.000247 0.413436
vt 0.000247 0.327862
vt 0.171396 0.413436
vt 0.000247 0.413436
vt 0.171396 0.327862
vt 0.515177 0.060758
vt 0.757218 0.060757
vt 0.757218 0.181778
vt 0.515177 0.060758
vt 0.757218 0.181778
vt 0.696707 0.242288
vt 0.515177 0.060758
vt 0.696707 0.242288
vt 0.575687 0.242288
vt 0.515177 0.060758
vt 0.575687 0.242288
vt 0.515177 0.181778
vt 0.696707 0.000247
vt 0.515177 0.060758
vt 0.575687 0.000247
vt 0.515177 0.060758
vt 0.696707 0.000247
vt 0.757218 0.060757

vn 1.000000 0.000000 0.000000
vn 1.000000 0.000000 0.000000
vn 1.000000 0.000000 0.000000
vn 1.000000 0.000000 0.000000
vn 1.000000 0.000000 0.000000
vn 1.000000 0.000000 0.000000
vn -0.000000 0.000000 1.000000
vn -0.000000 0.000000 1.000000
vn -0.000000 0.000000 1.000000
vn -0.000000 0.000000 1.000000
vn -0.000000 0.000000 1.000000
vn -0.000000 0.000000 1.000000
vn -0.000000 -1.000000 0.000000
vn -0.000000 -1.000000 0.000000
vn -0.000000 -1.000000 0.000000
vn -0.000000 -1.000000 0.000000
vn -0.000000 -1.000000 0.000000
vn -0.000000 -1.000000 0.000000
vn 1.000000 0.000000 0.000000
vn 1.000000 0.000000 0.000000
vn 1.000000 0.000000 0.000000
vn 1.000000 0.000000 0.000000
vn 1.000000 0.000000 0.000000
vn 1.000000 0.000000 0.000000
vn -1.000000 0.000000 0.000000
vn -1.000000 0.000000 0.000000
vn -1.000000 0.000000 0.000000
vn -1.000000 0.000000 -0.000000
vn -1.000000 0.000000 -0.000000
vn -1.000000 0.000000 -0.000000
vn -1.000000 0.000000 -0.000000
vn -1.000000 0.000000 -0.000000
vn -1.000000 0.000000 -0.000000
vn -1.000000 0.000000 -0.000000
vn -1.000000 0.000000 -0.000000
vn -1.000000 0.000000 -0.000000
vn 0.000000 -1.000000 0.000000
vn 0.000000 -1.000000 0.000000
vn 0.000000 -1.000000 0.000000
vn -0.000000 -1.000000 0.000000
vn -0.000000 -1.000000 0.000000
vn -0.000000 -1.000000 0.000000
vn -0.000000 0.000000 1.000000
vn -0.000000 0.000000 1.000000
vn -0.000000 0.000000 1.000000
vn -0.000000 0.000000 1.000000
vn -0.000000 0.000000 1.000000
vn -0.000000 0.000000 1.000000
vn 0.000000 0.000000 -1.000000
vn 0.000000 0.000000 -1.000000
vn 0.000000 0.000000 -1.000000
vn 0.000000 0.000001 -1.000000
vn 0.000000 0.000001 -1.000000
vn 0.000000 0.000001 -1.000000
vn -0.000000 0.000000 1.000000
vn -0.000000 0.000000 1.000000
vn -0.000000 0.000000 1.000000
vn -0.000000 0.000000 1.000000
vn -0.000000 0.000000 1.000000
vn -0.000000 0.000000 1.000000
vn -0.000000 0.000000 1.000000
vn -0.000000 0.000000 1.000000
vn -0.000000 0.000000 1.000000
vn -0.000000 0.000000 1.000000
vn -0.000000 0.000000 1.000000
vn -0.000000 0.000000 1.000000
vn -1.000000 0.000000 -0.000000
vn -1.000000 0.000000 -0.000000
vn -1.000000 0.000000 -0.000000
vn -1.000000 0.000000 -0.000000
vn -1.000000 0.000000 -0.000000
vn -1.000000 0.000000 -0.000000
vn -1.000000 0.000000 0.000000
vn -1.000000 0.000000 0.000000
vn -1.000000 0.000000 0.000000
vn -1.000000 0.000000 -0.000000
vn -1.000000 0.000000 -0.000000
vn -1.000000 0.000000 -0.000000
vn 1.000000 0.000000 0.000000
vn 1.000000 0.000000 0.000000
vn 1.000000 0.000000 0.000000
vn 1.000000 0.000000 0.000000
vn 1.000000 0.000000 0.000000
vn 1.000000 0.000000 0.000000
vn 1.000000 0.000000 0.000000
vn 1.000000 0.000000 0.000000
vn 1.000000 0.000000 0.000000
vn 1.000000 0.000000 0.000000
vn 1.000000 0.000000 0.000000
vn 1.000000 0.000000 0.000000
vn -0.000000 1.000000 0.000000
vn -0.000000 1.000000 0.000000
vn -0.000000 1.000000 0.000000
vn 0.000000 1.000000 -0.000000
vn 0.000000 1.000000 -0.000000
vn 0.000000 1.000000 -0.000000
vn -0.000000 -1.000000 -0.000000
vn -0.000000 -1.000000 -0.000000
vn -0.000000 -1.000000 -0.000000
vn 0.000000 -1.000000 0.000000
vn 0.000000 -1.000000 0.000000
vn 0.000000 -1.000000 0.000000
vn 0.000000 0.000000 -1.000000
vn 0.000000 0.000000 -1.000000
vn 0.000000 0.000000 -1.000000
vn 0.000000 0.000000 -1.000000
vn 0.000000 0.000000 -1.000000
vn 0.000000 0.000000 -1.000000
vn -0.000000 0.000000 -1.000000
vn -0.000000 0.000000 -1.000000
vn -0.000000 0.000000 -1.000000
vn -0.000000 0.000000 -1.000000
vn -0.000000 0.000000 -1.000000
vn -0.000000 0.000000 -1.000000
vn -0.000000 1.000000 0.000000
vn -0.000000 1.000000 0.000000
vn -0.000000 1.000000 0.000000
vn -0.000000 1.000000 0.000000
vn -0.000000 1.000000 0.000000
vn -0.000000 1.000000 0.000000
vn 0.000000 0.000000 -1.000000
vn 0.000000 0.000000 -1.000000
vn 0.000000 0.000000 -1.000000
vn 0.000000 -0.000001 -1.000000
vn 0.000000 -0.000001 -1.000000
vn 0.000000 -0.000001 -1.000000
vn -0.000000 0.000000 1.000000
vn -0.000000 0.000000 1.000000
vn -0.000000 0.000000 1.000000
vn -0.000000 0.000000 1.000000
vn -0.000000 0.000000 1.000000
vn -0.000000 0.000000 1.000000
vn -1.000000 0.000000 -0.000000
vn -1.000000 0.000000 -0.000000
vn -1.000000 0.000000 -0.000000
vn -1.000000 0.000000 -0.000000
vn -1.000000 0.000000 -0.000000
vn -1.000000 0.000000 -0.000000
vn 1.000000 0.000000 0.000000
vn 1.000000 0.000000 0.000000
vn 1.000000 0.000000 0.000000
vn 1.000000 0.000000 0.000000
vn 1.000000 0.000000 0.000000
vn 1.000000 0.000000 0.000000
vn -0.000000 0.000000 -1.000000
vn -0.000000 0.000000 -1.000000
vn -0.000000 0.000000 -1.000000
vn -0.000000 0.000000 -1.000000
vn -0.000000 0.000000 -1.000000
vn -0.000000 0.000000 -1.000000
vn -0.000000 0.000000 -1.000000
vn -0.000000 0.000000 -1.000000
vn -0.000000 0.000000 -1.000000
vn -0.000000 0.000000 -1.000000
vn -0.000000 0.000000 -1.000000
vn -0.000000 0.000000 -1.000000
vn -0.000000 0.000000 -1.000000
vn -0.000000 0.000000 -1.000000
vn -0.000000 0.000000 -1.000000
vn -0.000000 0.000000 -1.000000
vn -0.000000 0.000000 -1.000000
vn -0.000000 0.000000 -1.000000
vn -0.000000 0.000000 -1.000000
vn -0.000000 0.000000 -1.000000
vn -0.000000 0.000000 -1.000000
vn -0.000000 0.000000 -1.000000
vn -0.000000 0.000000 -1.000000
vn -0.000000 0.000000 -1.000000
vn -0.000000 0.000000 -1.000000
vn -0.000000 0.000000 -1.000000
vn -0.000000 0.000000 -1.000000
vn -0.000000 0.000000 -1.000000
vn -0.000000 0.000000 -1.000000
vn -0.000000 0.000000 -1.000000
vn -0.000000 1.000000 0.000000
vn -0.000000 1.000000 0.000000
vn -0.000000 1.000000 0.000000
vn 0.000000 1.000000 0.000000
vn 0.000000 1.000000 0.000000
vn 0.000000 1.000000 0.000000
vn -0.000000 -1.000000 0.000000
vn -0.000000 -1.000000 0.000000
vn -0.000000 -1.000000 0.000000
vn -0.000000 -1.000000 -0.000000
vn -0.000000 -1.000000 -0.000000
vn -0.000000 -1.000000 -0.000000
vn 0.000000 0.000000 -1.000000
vn 0.000000 0.000000 -1.000000
vn 0.000000 0.000000 -1.000000
vn 0.000000 0.000000 -1.000000
vn 0.000000 0.000000 -1.000000
vn 0.000000 0.000000 -1.000000
vn -1.000000 0.000000 0.000000
vn -1.000000 0.000000 0.000000
vn -1.000000 0.000000 0.000000
vn -1.000000 0.000000 0.000000
vn -1.000000 0.000000 0.000000
vn -1.000000 0.000000 0.000000
vn -0.000000 0.000000 -1.000000
vn -0.000000 0.000000 -1.000000
vn -0.000000 0.000000 -1.000000
vn -0.000000 0.000000 -1.000000
vn -0.000000 0.000000 -1.000000
vn -0.000000 0.000000 -1.000000
vn -0.000000 0.000000 1.000000
vn -0.000000 0.000000 1.000000
vn -0.000000 0.000000 1.000000
vn -0.000000 0.000000 1.000000
vn -0.000000 0.000000 1.000000
vn -0.000000 0.000000 1.000000
vn 1.000000 0.000000 0.000000
vn 1.000000 0.000000 0.000000
vn 1.000000 0.000000 0.000000
vn 1.000000 0.000000 0.000000
vn 1.000000 0.000000 0.000000
vn 1.000000 0.000000 0.000000
vn -0.000000 1.000000 0.000000
vn -0.000000 1.000000 0.000000
vn -0.000000 1.000000 0.000000
vn -0.000000 1.000000 0.000000
vn -0.000000 1.000000 0.000000
vn -0.000000 1.000000 0.000000
vn -0.000000 -1.000000 0.000000
vn -0.000000 -1.000000 0.000000
vn -0.000000 -1.000000 0.000000
vn -0.000000 -1.000000 0.000000
vn -0.000000 -1.000000 0.000000
vn -0.000000 -1.000000 0.000000
vn -0.000000 0.000000 1.000000
vn -0.000000 0.000000 1.000000
vn -0.000000 0.000000 1.000000
vn -0.000000 0.000000 1.000000
vn -0.000000 0.000000 1.000000
vn -0.000000 0.000000 1.000000
vn -0.707107 0.000000 -0.707106
vn -0.707107 0.000000 -0.707106
vn -0.707107 0.000000 -0.707106
vn -0.707107 0.000000 -0.707107
vn -0.707107 0.000000 -0.707107
vn -0.707107 0.000000 -0.707107
vn 0.707106 0.000000 -0.707108
vn 0.707106 0.000000 -0.707108
vn 0.707106 0.000000 -0.707108
vn 0.707106 0.000000 -0.707108
vn 0.707106 0.000000 -0.707108
vn 0.707106 0.000000 -0.707108
vn 0.707107 0.000000 0.707106
vn 0.707107 0.000000 0.707106
vn 0.707107 0.000000 0.707106
vn 0.707107 0.000000 0.707106
vn 0.707107 0.000000 0.707106
vn 0.707107 0.000000 0.707106
vn -0.707107 0.000000 0.707107
vn -0.707107 0.000000 0.707107
vn -0.707107 0.000000 0.707107
vn -0.707107 0.000000 0.707106
vn -0.707107 0.000000 0.707106
vn -0.707107 0.000000 0.707106
vn -1.000000 0.000000 -0.000000
vn -1.000000 0.000000 -0.000000
vn -1.000000 0.000000 -0.000000
vn -1.000000 0.000000 0.000000
vn -1.000000 0.000000 0.000000
vn -1.000000 0.000000 0.000000
vn 0.000002 0.000000 -1.000000
vn 0.000002 0.000000 -1.000000
vn 0.000002 0.000000 -1.000000
vn 0.000002 0.000000 -1.000000
vn 0.000002 0.000000 -1.000000
vn 0.000002 0.000000 -1.000000
vn 1.000000 0.000000 0.000001
vn 1.000000 0.000000 0.000001
vn 1.000000 0.000000 0.000001
vn 1.000000 0.000000 0.000003
vn 1.000000 0.000000 0.000003
vn 1.000000 0.000000 0.000003
vn -0.000000 -1.000000 -0.000001
vn -0.000000 -1.000000 -0.000001
vn -0.000000 -1.000000 -0.000001
vn 0.000000 -1.000000 0.000001
vn 0.000000 -1.000000 0.000001
vn 0.000000 -1.000000 0.000001
vn 0.000000 -1.000000 -0.000001
vn 0.000000 -1.000000 -0.000001
vn 0.000000 -1.000000 -0.000001
vn -0.000001 -1.000000 0.000002
vn -0.000001 -1.000000 0.000002
vn -0.000001 -1.000000 0.000002
vn -0.000003 -1.000000 -0.000001
vn -0.000003 -1.000000 -0.000001
vn -0.000003 -1.000000 -0.000001
vn 0.000001 -1.000000 0.000001
vn 0.000001 -1.000000 0.000001
vn 0.000001 -1.000000 0.000001
vn 1.000000 0.000000 0.000000
vn 1.000000 0.000000 0.000000
vn 1.000000 0.000000 0.000000
vn 1.000000 0.000000 -0.000001
vn 1.000000 0.000000 -0.000001
vn 1.000000 0.000000 -0.000001
vn -0.707107 0.000000 0.707107
vn -0.707107 0.000000 0.707107
vn -0.707107 0.000000 0.707107
vn -0.707106 0.000000 0.707107
vn -0.707106 0.000000 0.707107
vn -0.707106 0.000000 0.707107
vn -0.707108 0.000000 -0.707106
vn -0.707108 0.000000 -0.707106
vn -0.707108 0.000000 -0.707106
vn -0.707107 0.000000 -0.707106
vn -0.707107 0.000000 -0.707106
vn -0.707107 0.000000 -0.707106
vn 0.707106 0.000000 -0.707107
vn 0.707106 0.000000 -0.707107
vn 0.707106 0.000000 -0.707107
vn 0.707107 0.000000 -0.707107
vn 0.707107 0.000000 -0.707107
vn 0.707107 0.000000 -0.707107
vn 0.707107 0.000000 0.707107
vn 0.707107 0.000000 0.707107
vn 0.707107 0.000000 0.707107
vn 0.707106 0.000000 0.707108
vn 0.707106 0.000000 0.707108
vn 0.707106 0.000000 0.707108
vn 0.000001 0.000000 1.000000
vn 0.000001 0.000000 1.000000
vn 0.000001 0.000000 1.000000
vn 0.000001 0.000000 1.000000
vn 0.000001 0.000000 1.000000
vn 0.000001 0.000000 1.000000
vn -1.000000 0.000000 -0.000001
vn -1.000000 0.000000 -0.000001
vn -1.000000 0.000000 -0.000001
vn -1.000000 0.000000 -0.000001
vn -1.000000 0.000000 -0.000001
vn -1.000000 0.000000 -0.000001
vn 0.000001 0.000000 -1.000000
vn 0.000001 0.000000 -1.000000
vn 0.000001 0.000000 -1.000000
vn 0.000001 0.000000 -1.000000
vn 0.000001 0.000000 -1.000000
vn 0.000001 0.000000 -1.000000
vn -0.000001 -1.000000 0.000000
vn -0.000001 -1.000000 0.000000
vn -0.000001 -1.000000 0.000000
vn 0.000002 -1.000000 -0.000000
vn 0.000002 -1.000000 -0.000000
vn 0.000002 -1.000000 -0.000000
vn -0.000001 -1.000000 -0.000000
vn -0.000001 -1.000000 -0.000000
vn -0.000001 -1.000000 -0.000000
vn 0.000003 -1.000000 0.000001
vn 0.000003 -1.000000 0.000001
vn 0.000003 -1.000000 0.000001
vn -0.000001 -1.000000 0.000002
vn -0.000001 -1.000000 0.000002
vn -0.000001 -1.000000 0.000002
vn 0.000001 -1.000000 -0.000001
vn 0.000001 -1.000000 -0.000001
vn 0.000001 -1.000000 -0.000001
vn -0.000002 0.000000 -1.000000
vn -0.000002 0.000000 -1.000000
vn -0.000002 0.000000 -1.000000
vn -0.000002 0.000000 -1.000000
vn -0.000002 0.000000 -1.000000
vn -0.000002 0.000000 -1.000000
vn 0.707107 0.000000 0.707107
vn 0.707107 0.000000 0.707107
vn 0.707107 0.000000 0.707107
vn 0.707107 0.000000 0.707107
vn 0.707107 0.000000 0.707107
vn 0.707107 0.000000 0.707107
vn -0.707107 0.000000 0.707107
vn -0.707107 0.000000 0.707107
vn -0.707107 0.000000 0.707107
vn -0.707105 0.000000 0.707108
vn -0.707105 0.000000 0.707108
vn -0.707105 0.000000 0.707108
vn -0.707107 0.000000 -0.707106
vn -0.707107 0.000000 -0.707106
vn -0.707107 0.000000 -0.707106
vn -0.707107 0.000000 -0.707106
vn -0.707107 0.000000 -0.707106
vn -0.707107 0.000000 -0.707106
vn 0.707107 0.000000 -0.707107
vn 0.707107 0.000000 -0.707107
vn 0.707107 0.000000 -0.707107
vn 0.707108 0.000000 -0.707106
vn 0.707108 0.000000 -0.707106
vn 0.707108 0.000000 -0.707106
vn 1.000000 0.000000 -0.000001
vn 1.000000 0.000000 -0.000001
vn 1.000000 0.000000 -0.000001
vn 1.000000 0.000000 -0.000001
vn 1.000000 0.000000 -0.000001
vn 1.000000 0.000000 -0.000001
vn -0.000001 0.000000 1.000000
vn -0.000001 0.000000 1.000000
vn -0.000001 0.000000 1.000000
vn -0.000001 0.000000 1.000000
vn -0.000001 0.000000 1.000000
vn -0.000001 0.000000 1.000000
vn -1.000000 0.000000 -0.000001
vn -1.000000 0.000000 -0.000001
vn -1.000000 0.000000 -0.000001
vn -1.000000 0.000000 0.000000
vn -1.000000 0.000000 0.000000
vn -1.000000 0.000000 0.000000
vn 0.000000 -1.000000 0.000001
vn 0.000000 -1.000000 0.000001
vn 0.000000 -1.000000 0.000001
vn -0.000000 -1.000000 -0.000001
vn -0.000000 -1.000000 -0.000001
vn -0.000000 -1.000000 -0.000001
vn -0.000000 -1.000000 0.000001
vn -0.000000 -1.000000 0.000001
vn -0.000000 -1.000000 0.000001
vn 0.000001 -1.000000 -0.000002
vn 0.000001 -1.000000 -0.000002
vn 0.000001 -1.000000 -0.000002
vn 0.000003 -1.000000 0.000001
vn 0.000003 -1.000000 0.000001
vn 0.000003 -1.000000 0.000001
vn -0.000001 -1.000000 -0.000001
vn -0.000001 -1.000000 -0.000001
vn -0.000001 -1.000000 -0.000001
vn -1.000000 0.000000 0.000002
vn -1.000000 0.000000 0.000002
vn -1.000000 0.000000 0.000002
vn -1.000000 0.000000 0.000001
vn -1.000000 0.000000 0.000001
vn -1.000000 0.000000 0.000001
vn 0.707107 0.000000 -0.707107
vn 0.707107 0.000000 -0.707107
vn 0.707107 0.000000 -0.707107
vn 0.707106 0.000000 -0.707107
vn 0.707106 0.000000 -0.707107
vn 0.707106 0.000000 -0.707107
vn 0.707108 0.000000 0.707106
vn 0.707108 0.000000 0.707106
vn 0.707108 0.000000 0.707106
vn 0.707107 0.000000 0.707106
vn 0.707107 0.000000 0.707106
vn 0.707107 0.000000 0.707106
vn -0.707106 0.000000 0.707107
vn -0.707106 0.000000 0.707107
vn -0.707106 0.000000 0.707107
vn -0.707107 0.000000 0.707107
vn -0.707107 0.000000 0.707107
vn -0.707107 0.000000 0.707107
vn -0.707107 0.000000 -0.707107
vn -0.707107 0.000000 -0.707107
vn -0.707107 0.000000 -0.707107
vn -0.707106 0.000000 -0.707108
vn -0.707106 0.000000 -0.707108
vn -0.707106 0.000000 -0.707108
vn -0.000002 0.000000 -1.000000
vn -0.000002 0.000000 -1.000000
vn -0.000002 0.000000 -1.000000
vn -0.000002 0.000000 -1.000000
vn -0.000002 0.000000 -1.000000
vn -0.000002 0.000000 -1.000000
vn 1.000000 0.000000 0.000001
vn 1.000000 0.000000 0.000001
vn 1.000000 0.000000 0.000001
vn 1.000000 0.000000 0.000000
vn 1.000000 0.000000 0.000000
vn 1.000000 0.000000 0.000000
vn -0.000000 0.000000 1.000000
vn -0.000000 0.000000 1.000000
vn -0.000000 0.000000 1.000000
vn -0.000000 0.000000 1.000000
vn -0.000000 0.000000 1.000000
vn -0.000000 0.000000 1.000000
vn 0.000001 -1.000000 -0.000000
vn 0.000001 -1.000000 -0.000000
vn 0.000001 -1.000000 -0.000000
vn -0.000002 -1.000000 0.000000
vn -0.000002 -1.000000 0.000000
vn -0.000002 -1.000000 0.000000
vn 0.000001 -1.000000 0.000000
vn 0.000001 -1.000000 0.000000
vn 0.000001 -1.000000 0.000000
vn -0.000003 -1.000000 -0.000001
vn -0.000003 -1.000000 -0.000001
vn -0.000003 -1.000000 -0.000001
vn 0.000001 -1.000000 -0.000002
vn 0.000001 -1.000000 -0.000002
vn 0.000001 -1.000000 -0.000002
vn -0.000001 -1.000000 0.000001
vn -0.000001 -1.000000 0.000001
vn -0.000001 -1.000000 0.000001

g Material.003
f 3/1/1 1/2/2 2/3/3
f 4/4/4 1/5/5 3/6/6
f 7/7/7 5/8/8 6/9/9
f 8/10/10 5/11/11 7/12/12
f 11/13/13 9/14/14 10/15/15
f 12/16/16 9/17/17 11/18/18
f 15/19/19 13/20/20 14/21/21
f 16/22/22 13/23/23 15/24/24
f 19/25/25 17/26/26 18/27/27
f 20/28/28 17/29/29 19/30/30
f 247/31/31 245/32/32 246/33/33
f 248/34/34 245/35/35 247/36/36
f 251/37/37 249/38/38 250/39/39
f 252/40/40 249/41/41 251/42/42
f 255/43/43 253/44/44 254/45/45
f 256/46/46 253/47/47 255/48/48
f 259/49/49 257/50/50 258/51/51
f 260/52/52 257/53/53 259/54/54
f 263/55/55 261/56/56 262/57/57
f 264/58/58 261/59/59 263/60/60
f 267/61/61 265/62/62 266/63/63
f 268/64/64 265/65/65 267/66/66
f 271/67/67 269/68/68 270/69/69
f 272/70/70 269/71/71 271/72/72
f 275/73/73 273/74/74 274/75/75
f 276/76/76 273/77/77 275/78/78
f 279/79/79 277/80/80 278/81/81
f 280/82/82 277/83/83 279/84/84
f 283/85/85 281/86/86 282/87/87
f 284/88/88 281/89/89 283/90/90
f 287/91/91 285/92/92 286/93/93
f 288/94/94 285/95/95 287/96/96
f 291/97/97 289/98/98 290/99/99
f 292/100/100 289/101/101 291/102/102
f 295/103/103 293/104/104 294/105/105
f 296/106/106 293/107/107 295/108/108
f 299/109/109 297/110/110 298/111/111
f 302/112/112 300/113/113 301/114/114
f 305/115/115 303/116/116 304/117/117
f 306/118/118 303/119/119 305/120/120
f 309/121/121 307/122/122 308/123/123
f 310/124/124 307/125/125 309/126/126
f 313/127/127 311/128/128 312/129/129
f 314/130/130 311/131/131 313/132/132
f 317/133/133 315/134/134 316/135/135
f 318/136/136 315/137/137 317/138/138
f 321/139/139 319/140/140 320/141/141
f 322/142/142 319/143/143 321/144/144
f 325/145/145 323/146/146 324/147/147
f 328/148/148 326/149/149 327/150/150
f 331/151/151 329/152/152 330/153/153
f 334/154/154 332/155/155 333/156/156
f 337/157/157 335/158/158 336/159/159
f 340/160/160 338/161/161 339/162/162
f 343/163/163 341/164/164 342/165/165
f 346/166/166 344/167/167 345/168/168
f 349/169/169 347/170/170 348/171/171
f 352/172/172 350/173/173 351/174/174
f 355/175/175 353/176/176 354/177/177
f 356/178/178 353/179/179 355/180/180
f 359/181/181 357/182/182 358/183/183
f 360/184/184 357/185/185 359/186/186
f 363/187/187 361/188/188 362/189/189
f 364/190/190 361/191/191 363/192/192

g Material
f 23/193/193 21/194/194 22/195/195
f 24/196/196 21/197/197 23/198/198
f 27/199/199 25/200/200 26/201/201
f 28/202/202 25/203/203 27/204/204
f 31/205/205 29/206/206 30/207/207
f 32/208/208 29/209/209 31/210/210
f 35/211/211 33/212/212 34/213/213
f 36/214/214 33/215/215 35/216/216
f 39/217/217 37/218/218 38/219/219
f 40/220/220 37/221/221 39/222/222
f 243/223/223 241/224/224 242/225/225
f 244/226/226 241/227/227 243/228/228

g Material.004
f 43/229/229 41/230/230 42/231/231
f 44/232/232 41/233/233 43/234/234
f 47/235/235 45/236/236 46/237/237
f 48/238/238 45/239/239 47/240/240
f 51/241/241 49/242/242 50/243/243
f 52/244/244 49/245/245 51/246/246
f 55/247/247 53/248/248 54/249/249
f 56/250/250 53/251/251 55/252/252
f 59/253/253 57/254/254 58/255/255
f 60/256/256 57/257/257 59/258/258
f 63/259/259 61/260/260 62/261/261
f 64/262/262 61/263/263 63/264/264
f 67/265/265 65/266/266 66/267/267
f 68/268/268 65/269/269 67/270/270
f 71/271/271 69/272/272 70/273/273
f 72/274/274 69/275/275 71/276/276
f 75/277/277 73/278/278 74/279/279
f 78/280/280 76/281/281 77/282/282
f 81/283/283 79/284/284 80/285/285
f 84/286/286 82/287/287 83/288/288
f 87/289/289 85/290/290 86/291/291
f 90/292/292 88/293/293 89/294/294
f 93/295/295 91/296/296 92/297/297
f 94/298/298 91/299/299 93/300/300
f 97/301/301 95/302/302 96/303/303
f 98/304/304 95/305/305 97/306/306
f 101/307/307 99/308/308 100/309/309
f 102/310/310 99/311/311 101/312/312
f 105/313/313 103/314/314 104/315/315
f 106/316/316 103/317/317 105/318/318
f 109/319/319 107/320/320 108/321/321
f 110/322/322 107/323/323 109/324/324
f 113/325/325 111/326/326 112/327/327
f 114/328/328 111/329/329 113/330/330
f 117/331/331 115/332/332 116/333/333
f 118/334/334 115/335/335 117/336/336
f 121/337/337 119/338/338 120/339/339
f 122/340/340 119/341/341 121/342/342
f 125/343/343 123/344/344 124/345/345
f 128/346/346 126/347/347 127/348/348
f 131/349/349 129/350/350 130/351/351
f 134/352/352 132/353/353 133/354/354
f 137/355/355 135/356/356 136/357/357
f 140/358/358 138/359/359 139/360/360
f 143/361/361 141/362/362 142/363/363
f 144/364/364 141/365/365 143/366/366
f 147/367/367 145/368/368 146/369/369
f 148/370/370 145/371/371 147/372/372
f 151/373/373 149/374/374 150/375/375
f 152/376/376 149/377/377 151/378/378
f 155/379/379 153/380/380 154/381/381
f 156/382/382 153/383/383 155/384/384
f 159/385/385 157/386/386 158/387/387
f 160/388/388 157/389/389 159/390/390
f 163/391/391 161/392/392 162/393/393
f 164/394/394 161/395/395 163/396/396
f 167/397/397 165/398/398 166/399/399
f 168/400/400 165/401/401 167/402/402
f 171/403/403 169/404/404 170/405/405
f 172/406/406 169/407/407 171/408/408
f 175/409/409 173/410/410 174/411/411
f 178/412/412 176/413/413 177/414/414
f 181/415/415 179/416/416 180/417/417
f 184/418/418 182/419/419 183/420/420
f 187/421/421 185/422/422 186/423/423
f 190/424/424 188/425/425 189/426/426
f 193/427/427 191/428/428 192/429/429
f 194/430/430 191/431/431 193/432/432
f 197/433/433 195/434/434 196/435/435
f 198/436/436 195/437/437 197/438/438
f 201/439/439 199/440/440 200/441/441
f 202/442/442 199/443/443 201/444/444
f 205/445/445 203/446/446 204/447/447
f 206/448/448 203/449/449 205/450/450
f 209/451/451 207/452/452 208/453/453
f 210/454/454 207/455/455 209/456/456
f 213/457/457 211/458/458 212/459/459
f 214/460/460 211/461/461 213/462/462
f 217/463/463 215/464/464 216/465/465
f 218/466/466 215/467/467 217/468/468
f 221/469/469 219/470/470 220/471/471
f 222/472/472 219/473/473 221/474/474
f 225/475/475 223/476/476 224/477/477
f 228/478/478 226/479/479 227/480/480
f 231/481/481 229/482/482 230/483/483
f 234/484/484 232/485/485 233/486/486
f 237/487/487 235/488/488 236/489/489
f 240/490/490 238/491/491 239/492/492

