# Converted from B3D for Luanti (With Correct Normals)
# Object Name: multidecor_technical_door

v -1.000000 -1.000000 -0.150000
v -0.650000 1.250000 -0.150000
v -0.050000 1.250000 -0.150000
v 1.000000 -1.000000 -0.150000
v 1.000000 1.250000 -0.150000
v 1.000000 1.250000 0.050000
v 1.000000 -1.000000 0.050000
v 1.000000 -1.000000 0.050000
v -1.000000 -1.000000 0.050000
v -1.000000 -1.000000 -0.150000
v 1.000000 -1.000000 -0.150000
v -1.000000 -1.000000 0.050000
v -1.000000 1.250000 0.050000
v -1.000000 1.250000 -0.150000
v -1.000000 -1.000000 -0.150000
v 1.000000 3.000000 0.050000
v -1.000000 3.000000 0.050000
v -0.650000 2.650000 0.050000
v 0.640000 2.650000 0.050000
v -0.705000 0.745423 -0.230000
v -0.825000 0.625423 -0.230000
v -0.945000 0.745423 -0.230000
v -0.909853 0.830276 -0.150000
v -0.825000 0.865424 -0.150000
v -0.825000 0.865424 -0.230000
v -0.909853 0.830276 -0.230000
v -0.909853 0.660571 -0.150000
v -0.945000 0.745423 -0.150000
v -0.945000 0.745423 -0.230000
v -0.909853 0.660571 -0.230000
v -0.740147 0.660571 -0.150000
v -0.825000 0.625423 -0.150000
v -0.825000 0.625423 -0.230000
v -0.740147 0.660571 -0.230000
v -0.740147 0.830276 -0.150000
v -0.705000 0.745423 -0.150000
v -0.705000 0.745423 -0.230000
v -0.740147 0.830276 -0.230000
v -0.945000 0.745423 -0.150000
v -0.909853 0.830276 -0.150000
v -0.909853 0.830276 -0.230000
v -0.945000 0.745423 -0.230000
v -0.825000 0.625423 -0.150000
v -0.909853 0.660571 -0.150000
v -0.909853 0.660571 -0.230000
v -0.825000 0.625423 -0.230000
v -0.705000 0.745423 -0.150000
v -0.740147 0.660571 -0.150000
v -0.740147 0.660571 -0.230000
v -0.705000 0.745423 -0.230000
v -0.825000 0.865424 -0.150000
v -0.740147 0.830276 -0.150000
v -0.740147 0.830276 -0.230000
v -0.825000 0.865424 -0.230000
v -0.485603 0.686026 -0.297092
v -0.485603 0.804820 -0.297092
v -0.485603 0.804820 -0.230000
v -0.485603 0.686026 -0.230000
v -0.884397 0.804820 -0.230000
v -0.884397 0.686027 -0.230000
v -0.485603 0.686026 -0.230000
v -0.485603 0.804820 -0.230000
v -0.884397 0.686027 -0.230000
v -0.884397 0.686027 -0.297092
v -0.485603 0.686026 -0.297092
v -0.485603 0.686026 -0.230000
v -0.884397 0.804820 -0.230000
v -0.884397 0.804820 -0.297092
v -0.884397 0.686027 -0.297092
v -0.884397 0.686027 -0.230000
v -0.485603 0.804820 -0.297092
v -0.485603 0.686026 -0.297092
v -0.884397 0.686027 -0.297092
v -0.884397 0.804820 -0.297092
v 1.000000 -1.000000 0.050000
v 0.640000 1.250000 0.050000
v 0.050000 1.250000 0.050000
v -1.000000 3.000000 -0.150000
v 1.000000 3.000000 -0.150000
v 0.640000 2.650000 -0.150000
v -0.650000 2.650000 -0.150000
v -1.000000 3.000000 0.050000
v 1.000000 3.000000 0.050000
v 1.000000 3.000000 -0.150000
v -1.000000 3.000000 -0.150000
v 1.000000 1.250000 -0.150000
v 1.000000 3.000000 -0.150000
v 1.000000 3.000000 0.050000
v 1.000000 1.250000 0.050000
v 1.000000 1.250000 0.050000
v 1.000000 3.000000 0.050000
v 0.640000 2.650000 0.050000
v 0.640000 1.250000 0.050000
v 1.000000 3.000000 -0.150000
v 1.000000 1.250000 -0.150000
v 0.640000 1.250000 -0.150000
v 0.640000 2.650000 -0.150000
v -1.000000 1.250000 0.050000
v -1.000000 3.000000 0.050000
v -1.000000 3.000000 -0.150000
v -1.000000 1.250000 -0.150000
v -1.000000 1.250000 -0.150000
v -1.000000 3.000000 -0.150000
v -0.650000 2.650000 -0.150000
v -0.650000 1.250000 -0.150000
v -1.000000 3.000000 0.050000
v -1.000000 1.250000 0.050000
v -0.650000 1.250000 0.050000
v -0.650000 2.650000 0.050000
v -0.650000 1.250000 -0.150000
v -0.050000 1.250000 -0.150000
v 0.050000 1.250000 -0.150000
v 0.640000 1.250000 -0.150000
v 0.640000 1.250000 -0.050000
v -0.650000 1.250000 -0.050000
v -0.650000 2.650000 0.050000
v -0.650000 2.650000 -0.050000
v -0.650000 1.250000 -0.050000
v -0.650000 1.250000 0.050000
v 0.640000 1.250000 0.050000
v 0.640000 1.250000 -0.050000
v 0.640000 2.650000 -0.050000
v 0.640000 2.650000 0.050000
v 0.640000 2.650000 0.050000
v 0.640000 2.650000 -0.050000
v -0.650000 2.650000 -0.050000
v -0.650000 2.650000 0.050000
v 0.640000 1.250000 -0.150000
v 0.640000 2.650000 -0.150000
v 0.640000 2.650000 -0.050000
v 0.640000 1.250000 -0.050000
v 0.640000 2.650000 -0.150000
v -0.650000 2.650000 -0.150000
v -0.650000 2.650000 -0.050000
v 0.640000 2.650000 -0.050000
v -0.650000 1.250000 -0.050000
v 0.640000 1.250000 -0.050000
v 0.640000 1.250000 0.050000
v 0.050000 1.250000 0.050000
v -0.050000 1.250000 0.050000
v -0.650000 1.250000 0.050000
v -0.650000 2.650000 -0.150000
v -0.650000 1.250000 -0.150000
v -0.650000 1.250000 -0.050000
v -0.650000 2.650000 -0.050000
v 0.050000 1.250000 -0.150000
v 0.640000 1.250000 -0.150000
v 1.000000 -1.000000 -0.150000
v 0.640000 1.250000 -0.150000
v 1.000000 1.250000 -0.150000
v 1.000000 -1.000000 -0.150000
v 0.050000 1.250000 -0.150000
v 1.000000 -1.000000 -0.150000
v -1.000000 -1.000000 -0.150000
v -1.000000 -1.000000 -0.150000
v -1.000000 1.250000 -0.150000
v -0.650000 1.250000 -0.150000
v -0.050000 1.250000 -0.150000
v 0.050000 1.250000 -0.150000
v -1.000000 -1.000000 -0.150000
v -0.050000 1.250000 0.050000
v -0.650000 1.250000 0.050000
v -1.000000 -1.000000 0.050000
v -0.650000 1.250000 0.050000
v -1.000000 1.250000 0.050000
v -1.000000 -1.000000 0.050000
v -0.050000 1.250000 0.050000
v -1.000000 -1.000000 0.050000
v 1.000000 -1.000000 0.050000
v 1.000000 -1.000000 0.050000
v 1.000000 1.250000 0.050000
v 0.640000 1.250000 0.050000
v 0.050000 1.250000 0.050000
v -0.050000 1.250000 0.050000
v 1.000000 -1.000000 0.050000
v -0.485603 0.804820 -0.297092
v -0.884397 0.804820 -0.297092
v -0.884397 0.804820 -0.230000
v -0.485603 0.804820 -0.230000
v -0.945000 0.745423 -0.230000
v -0.909853 0.830276 -0.230000
v -0.825000 0.865424 -0.230000
v -0.825000 0.865424 -0.230000
v -0.740147 0.830276 -0.230000
v -0.945000 0.745423 -0.230000
v -0.740147 0.830276 -0.230000
v -0.705000 0.745423 -0.230000
v -0.945000 0.745423 -0.230000
v -0.705000 0.745423 -0.230000
v -0.740147 0.660571 -0.230000
v -0.825000 0.625423 -0.230000
v -0.825000 0.625423 -0.230000
v -0.909853 0.660571 -0.230000
v -0.945000 0.745423 -0.230000
v -0.705000 0.745423 0.130000
v -0.825000 0.625423 0.130000
v -0.945000 0.745423 0.130000
v -0.909853 0.830276 0.050000
v -0.825000 0.865424 0.050000
v -0.825000 0.865424 0.130000
v -0.909853 0.830276 0.130000
v -0.909853 0.660571 0.050000
v -0.945000 0.745423 0.050000
v -0.945000 0.745423 0.130000
v -0.909853 0.660571 0.130000
v -0.740147 0.660571 0.050000
v -0.825000 0.625423 0.050000
v -0.825000 0.625423 0.130000
v -0.740147 0.660571 0.130000
v -0.740147 0.830276 0.050000
v -0.705000 0.745423 0.050000
v -0.705000 0.745423 0.130000
v -0.740147 0.830276 0.130000
v -0.945000 0.745423 0.050000
v -0.909853 0.830276 0.050000
v -0.909853 0.830276 0.130000
v -0.945000 0.745423 0.130000
v -0.825000 0.625423 0.050000
v -0.909853 0.660571 0.050000
v -0.909853 0.660571 0.130000
v -0.825000 0.625423 0.130000
v -0.705000 0.745423 0.050000
v -0.740147 0.660571 0.050000
v -0.740147 0.660571 0.130000
v -0.705000 0.745423 0.130000
v -0.825000 0.865424 0.050000
v -0.740147 0.830276 0.050000
v -0.740147 0.830276 0.130000
v -0.825000 0.865424 0.130000
v -0.485603 0.804820 0.130000
v -0.485603 0.686026 0.130000
v -0.485603 0.686026 0.197093
v -0.485603 0.804820 0.197093
v -0.485603 0.686026 0.130000
v -0.600000 0.686026 0.130000
v -0.884397 0.686027 0.130000
v -0.884397 0.686027 0.197093
v -0.485603 0.686026 0.197093
v -0.884397 0.804820 0.130000
v -0.884397 0.804820 0.197093
v -0.884397 0.686027 0.197093
v -0.884397 0.686027 0.130000
v -0.600000 0.804820 0.130000
v -0.884397 0.804820 0.130000
v -0.884397 0.686027 0.130000
v -0.600000 0.686026 0.130000
v -0.485603 0.686026 0.130000
v -0.485603 0.804820 0.130000
v -0.600000 0.804820 0.130000
v -0.600000 0.686026 0.130000
v -0.485603 0.804820 0.197093
v -0.485603 0.686026 0.197093
v -0.884397 0.686027 0.197093
v -0.884397 0.804820 0.197093
v -0.945000 0.745423 0.130000
v -0.909853 0.830276 0.130000
v -0.825000 0.865424 0.130000
v -0.825000 0.865424 0.130000
v -0.740147 0.830276 0.130000
v -0.945000 0.745423 0.130000
v -0.740147 0.830276 0.130000
v -0.705000 0.745423 0.130000
v -0.945000 0.745423 0.130000
v -0.705000 0.745423 0.130000
v -0.740147 0.660571 0.130000
v -0.825000 0.625423 0.130000
v -0.825000 0.625423 0.130000
v -0.909853 0.660571 0.130000
v -0.945000 0.745423 0.130000
v -0.485603 0.804820 0.130000
v -0.485603 0.804820 0.197093
v -0.884397 0.804820 0.197093
v -0.884397 0.804820 0.130000
v -0.600000 0.804820 0.130000
v 0.640000 1.250000 -0.050000
v 0.640000 2.650000 -0.050000
v -0.650000 2.650000 -0.050000
v -0.650000 1.250000 -0.050000

vt 0.215661 0.000341
vt 0.000341 0.510309
vt 0.079670 0.000341
vt 0.954328 0.510309
vt 0.999659 0.000341
vt 0.999659 0.510309
vt 0.954328 0.000341
vt 0.999659 0.000341
vt 0.954328 0.510309
vt 0.907633 0.510991
vt 0.862302 0.964295
vt 0.862302 0.510991
vt 0.907633 0.964295
vt 0.862302 0.964295
vt 0.907633 0.510991
vt 0.908315 0.510309
vt 0.953646 0.000341
vt 0.953646 0.510309
vt 0.908315 0.000341
vt 0.953646 0.000341
vt 0.908315 0.510309
vt 0.000341 0.884968
vt 0.079670 0.510992
vt 0.079670 0.964296
vt 0.000341 0.592586
vt 0.079670 0.510992
vt 0.000341 0.884968
vt 0.669648 0.000341
vt 0.454328 0.510309
vt 0.535923 0.000341
vt 0.159680 0.592586
vt 0.080352 0.964296
vt 0.080352 0.510992
vt 0.159680 0.884968
vt 0.080352 0.964296
vt 0.159680 0.592586
vt 0.861620 0.510991
vt 0.816289 0.964295
vt 0.816289 0.510991
vt 0.861620 0.964295
vt 0.816289 0.964295
vt 0.861620 0.510991
vt 0.954328 0.906950
vt 0.999659 0.510309
vt 0.999659 0.906950
vt 0.954328 0.510309
vt 0.999659 0.510309
vt 0.954328 0.906950
vt 0.241958 0.590320
vt 0.160363 0.907633
vt 0.160363 0.510992
vt 0.241958 0.907633
vt 0.160363 0.907633
vt 0.241958 0.590320
vt 0.639282 0.592586
vt 0.242640 0.510992
vt 0.639282 0.510992
vt 0.321969 0.592586
vt 0.242640 0.510992
vt 0.639282 0.592586
vt 0.908315 0.906950
vt 0.953646 0.510309
vt 0.953646 0.906950
vt 0.908315 0.510309
vt 0.953646 0.510309
vt 0.908315 0.906950
vt 0.719975 0.828305
vt 0.799303 0.510992
vt 0.799303 0.907633
vt 0.719975 0.510992
vt 0.799303 0.510992
vt 0.719975 0.828305
vt 0.639964 0.907633
vt 0.719292 0.510992
vt 0.719292 0.907633
vt 0.639964 0.590320
vt 0.719292 0.510992
vt 0.639964 0.907633
vt 0.289336 0.797037
vt 0.289336 0.955694
vt 0.289336 0.819702
vt 0.289336 0.615934
vt 0.606649 0.593269
vt 0.606649 0.615934
vt 0.289336 0.593269
vt 0.606649 0.593269
vt 0.289336 0.615934
vt 0.289336 0.639282
vt 0.606649 0.616617
vt 0.606649 0.639282
vt 0.289336 0.616617
vt 0.606649 0.616617
vt 0.289336 0.639282
vt 0.289336 0.662629
vt 0.581718 0.639964
vt 0.581718 0.662630
vt 0.289336 0.639964
vt 0.581718 0.639964
vt 0.289336 0.662629
vt 0.288653 0.593269
vt 0.265988 0.910582
vt 0.265988 0.593269
vt 0.288653 0.910582
vt 0.265988 0.910582
vt 0.288653 0.593269
vt 0.607331 0.885651
vt 0.629997 0.593269
vt 0.629997 0.885651
vt 0.607332 0.593269
vt 0.629997 0.593269
vt 0.607331 0.885651
vt 0.605066 0.639964
vt 0.582401 0.932345
vt 0.582400 0.639964
vt 0.242640 0.910582
vt 0.265306 0.593269
vt 0.265305 0.910582
vt 0.242640 0.593269
vt 0.265306 0.593269
vt 0.242640 0.910582
vt 0.453646 0.510309
vt 0.238326 0.000341
vt 0.372051 0.000341
vt 0.453646 0.510309
vt 0.372051 0.000341
vt 0.453646 0.000341
vt 0.000341 0.510309
vt 0.238326 0.000341
vt 0.453646 0.510309
vt 0.079670 0.000341
vt 0.000341 0.510309
vt 0.000342 0.000341
vt 0.000341 0.510309
vt 0.215661 0.000341
vt 0.238326 0.000341
vt 0.907633 0.510309
vt 0.692313 0.000341
vt 0.828304 0.000341
vt 0.907633 0.510309
vt 0.828304 0.000341
vt 0.907633 0.000341
vt 0.454328 0.510309
vt 0.692313 0.000341
vt 0.907633 0.510309
vt 0.535923 0.000341
vt 0.454328 0.510309
vt 0.454328 0.000341
vt 0.454328 0.510309
vt 0.669648 0.000341
vt 0.692313 0.000341
vt 0.594008 0.536901
vt 0.840058 0.638818
vt 0.666074 0.710884
vt 1.001677 0.375163
vt 0.899760 0.286389
vt 1.001677 0.286389
vt 0.899760 0.375163
vt 0.899760 0.286389
vt 1.001677 0.375163
vt 0.797842 0.375163
vt 0.695925 0.286389
vt 0.797842 0.286389
vt 0.695925 0.375163
vt 0.695925 0.286389
vt 0.797842 0.375163
vt 0.410243 0.042617
vt 0.512160 0.131391
vt 0.410243 0.131391
vt 0.512160 0.042617
vt 0.512160 0.131391
vt 0.410243 0.042617
vt 0.614078 0.042617
vt 0.715995 0.131391
vt 0.614078 0.131391
vt 0.715995 0.042617
vt 0.715995 0.131391
vt 0.614078 0.042617
vt 0.899760 0.375163
vt 0.797842 0.286389
vt 0.899760 0.286389
vt 0.797842 0.375163
vt 0.797842 0.286389
vt 0.899760 0.375163
vt 0.695925 0.375163
vt 0.594008 0.286389
vt 0.695925 0.286389
vt 0.594008 0.375163
vt 0.594008 0.286389
vt 0.695925 0.375163
vt 0.512160 0.042617
vt 0.614078 0.131391
vt 0.512160 0.131391
vt 0.614078 0.042617
vt 0.614078 0.131391
vt 0.512160 0.042617
vt 0.715995 0.042617
vt 0.817912 0.131391
vt 0.715995 0.131391
vt 0.817912 0.042617
vt 0.817912 0.131391
vt 0.715995 0.042617
vt 0.002125 0.469936
vt 0.076576 0.338113
vt 0.076576 0.469936
vt 0.002125 0.338113
vt 0.076576 0.338113
vt 0.002125 0.469936
vt 0.076576 0.263663
vt 0.519109 0.131839
vt 0.519109 0.263663
vt 0.076576 0.131840
vt 0.519109 0.131839
vt 0.076576 0.263663
vt 0.076576 0.338113
vt 0.519109 0.263663
vt 0.519109 0.338113
vt 0.076576 0.263663
vt 0.519109 0.263663
vt 0.076576 0.338113
vt 0.519109 0.338113
vt 0.593559 0.469936
vt 0.519109 0.469936
vt 0.593560 0.338113
vt 0.593559 0.469936
vt 0.519109 0.338113
vt 0.519109 0.338113
vt 0.076576 0.469936
vt 0.076576 0.338113
vt 0.519109 0.469936
vt 0.076576 0.469936
vt 0.519109 0.338113
vt 0.519109 0.544387
vt 0.076576 0.469936
vt 0.519109 0.469936
vt 0.076576 0.544387
vt 0.076576 0.469936
vt 0.519109 0.544387
vt 0.767992 0.464834
vt 0.594008 0.536901
vt 0.666074 0.464834
vt 0.594008 0.536901
vt 0.767992 0.464834
vt 0.840058 0.536901
vt 0.594008 0.536901
vt 0.840058 0.536901
vt 0.840058 0.638818
vt 0.666074 0.710884
vt 0.840058 0.638818
vt 0.767992 0.710884
vt 0.594008 0.536901
vt 0.666074 0.710884
vt 0.594008 0.638818
vt 0.594008 0.783399
vt 0.840058 0.885317
vt 0.666074 0.957383
vt 0.594008 0.375612
vt 0.695925 0.464386
vt 0.594008 0.464386
vt 0.695925 0.375612
vt 0.695925 0.464386
vt 0.594008 0.375612
vt 0.797843 0.375612
vt 0.899760 0.464386
vt 0.797843 0.464386
vt 0.899760 0.375612
vt 0.899760 0.464386
vt 0.797843 0.375612
vt 0.409795 0.131391
vt 0.307877 0.042617
vt 0.409795 0.042617
vt 0.307877 0.131391
vt 0.307877 0.042617
vt 0.409795 0.131391
vt 0.205960 0.131391
vt 0.104042 0.042617
vt 0.205960 0.042617
vt 0.104043 0.131391
vt 0.104042 0.042617
vt 0.205960 0.131391
vt 0.695925 0.375612
vt 0.797843 0.464386
vt 0.695925 0.464386
vt 0.797843 0.375612
vt 0.797843 0.464386
vt 0.695925 0.375612
vt 0.899760 0.375612
vt 1.001677 0.464386
vt 0.899760 0.464386
vt 1.001677 0.375612
vt 1.001677 0.464386
vt 0.899760 0.375612
vt 0.307877 0.131391
vt 0.205960 0.042617
vt 0.307877 0.042617
vt 0.205960 0.131391
vt 0.205960 0.042617
vt 0.307877 0.131391
vt 0.104043 0.131391
vt 0.002125 0.042617
vt 0.104042 0.042617
vt 0.002125 0.131391
vt 0.002125 0.042617
vt 0.104043 0.131391
vt 0.076576 0.751109
vt 0.002125 0.882932
vt 0.002125 0.751109
vt 0.076576 0.882932
vt 0.002125 0.882932
vt 0.076576 0.751109
vt 0.519109 0.676658
vt 0.076576 0.676658
vt 0.203520 0.676659
vt 0.519109 0.751109
vt 0.593560 0.882932
vt 0.519109 0.882932
vt 0.593560 0.751109
vt 0.593560 0.882932
vt 0.519109 0.751109
vt 0.519109 0.676658
vt 0.203520 0.544835
vt 0.519109 0.544835
vt 0.203520 0.676659
vt 0.203520 0.544835
vt 0.519109 0.676658
vt 0.203520 0.544835
vt 0.076576 0.676658
vt 0.076576 0.544835
vt 0.203520 0.676659
vt 0.076576 0.676658
vt 0.203520 0.544835
vt 0.519109 0.751109
vt 0.076576 0.882932
vt 0.076576 0.751109
vt 0.519109 0.882932
vt 0.076576 0.882932
vt 0.519109 0.751109
vt 0.767992 0.711333
vt 0.594008 0.783399
vt 0.666074 0.711333
vt 0.594008 0.783399
vt 0.767992 0.711333
vt 0.840058 0.783399
vt 0.594008 0.783399
vt 0.840058 0.783399
vt 0.840058 0.885317
vt 0.666074 0.957383
vt 0.840058 0.885317
vt 0.767992 0.957383
vt 0.594008 0.783399
vt 0.666074 0.957383
vt 0.594008 0.885316
vt 0.519109 0.882932
vt 0.076576 0.957383
vt 0.076576 0.882932
vt 0.488496 1.179197
vt 0.432948 -0.179197
vt 1.139919 0.527774
vt -0.218475 0.472226
vt 0.432948 -0.179197
vt 0.488496 1.179197

vn -0.000000 -0.000000 -1.000000
vn -0.000000 -0.000000 -1.000000
vn -0.000000 -0.000000 -1.000000
vn 1.000000 0.000000 0.000000
vn 1.000000 0.000000 0.000000
vn 1.000000 0.000000 0.000000
vn 1.000000 0.000000 0.000000
vn 1.000000 0.000000 0.000000
vn 1.000000 0.000000 0.000000
vn -0.000000 -1.000000 0.000000
vn -0.000000 -1.000000 0.000000
vn -0.000000 -1.000000 0.000000
vn -0.000000 -1.000000 0.000000
vn -0.000000 -1.000000 0.000000
vn -0.000000 -1.000000 0.000000
vn -1.000000 0.000000 0.000000
vn -1.000000 0.000000 0.000000
vn -1.000000 0.000000 0.000000
vn -1.000000 0.000000 0.000000
vn -1.000000 0.000000 0.000000
vn -1.000000 0.000000 0.000000
vn -0.000000 0.000000 1.000000
vn -0.000000 0.000000 1.000000
vn -0.000000 0.000000 1.000000
vn -0.000000 -0.000000 1.000000
vn -0.000000 -0.000000 1.000000
vn -0.000000 -0.000000 1.000000
vn -0.000000 0.000000 1.000000
vn -0.000000 0.000000 1.000000
vn -0.000000 0.000000 1.000000
vn -0.000000 0.000000 -1.000000
vn -0.000000 0.000000 -1.000000
vn -0.000000 0.000000 -1.000000
vn -0.000000 0.000000 -1.000000
vn -0.000000 0.000000 -1.000000
vn -0.000000 0.000000 -1.000000
vn -0.000000 1.000000 0.000000
vn -0.000000 1.000000 0.000000
vn -0.000000 1.000000 0.000000
vn -0.000000 1.000000 0.000000
vn -0.000000 1.000000 0.000000
vn -0.000000 1.000000 0.000000
vn 1.000000 0.000000 0.000000
vn 1.000000 0.000000 0.000000
vn 1.000000 0.000000 0.000000
vn 1.000000 0.000000 0.000000
vn 1.000000 0.000000 0.000000
vn 1.000000 0.000000 0.000000
vn -0.000000 0.000000 1.000000
vn -0.000000 0.000000 1.000000
vn -0.000000 0.000000 1.000000
vn -0.000000 0.000000 1.000000
vn -0.000000 0.000000 1.000000
vn -0.000000 0.000000 1.000000
vn -0.000000 0.000000 -1.000000
vn -0.000000 0.000000 -1.000000
vn -0.000000 0.000000 -1.000000
vn -0.000000 0.000000 -1.000000
vn -0.000000 0.000000 -1.000000
vn -0.000000 0.000000 -1.000000
vn -1.000000 0.000000 0.000000
vn -1.000000 0.000000 0.000000
vn -1.000000 0.000000 0.000000
vn -1.000000 0.000000 0.000000
vn -1.000000 0.000000 0.000000
vn -1.000000 0.000000 0.000000
vn -0.000000 0.000000 -1.000000
vn -0.000000 0.000000 -1.000000
vn -0.000000 0.000000 -1.000000
vn -0.000000 0.000000 -1.000000
vn -0.000000 0.000000 -1.000000
vn -0.000000 0.000000 -1.000000
vn -0.000000 0.000000 1.000000
vn -0.000000 0.000000 1.000000
vn -0.000000 0.000000 1.000000
vn -0.000000 0.000000 1.000000
vn -0.000000 0.000000 1.000000
vn -0.000000 0.000000 1.000000
vn -0.000000 1.000000 0.000000
vn -0.000000 1.000000 0.000000
vn -0.000000 1.000000 0.000000
vn -1.000000 0.000000 0.000000
vn -1.000000 0.000000 0.000000
vn -1.000000 0.000000 0.000000
vn -1.000000 0.000000 0.000000
vn -1.000000 0.000000 0.000000
vn -1.000000 0.000000 0.000000
vn 1.000000 0.000000 0.000000
vn 1.000000 0.000000 0.000000
vn 1.000000 0.000000 0.000000
vn 1.000000 0.000000 0.000000
vn 1.000000 0.000000 0.000000
vn 1.000000 0.000000 0.000000
vn -0.000000 1.000000 0.000000
vn -0.000000 1.000000 0.000000
vn -0.000000 1.000000 0.000000
vn -0.000000 1.000000 0.000000
vn -0.000000 1.000000 0.000000
vn -0.000000 1.000000 0.000000
vn 1.000000 0.000000 0.000000
vn 1.000000 0.000000 0.000000
vn 1.000000 0.000000 0.000000
vn 1.000000 0.000000 0.000000
vn 1.000000 0.000000 0.000000
vn 1.000000 0.000000 0.000000
vn -0.000000 1.000000 0.000000
vn -0.000000 1.000000 0.000000
vn -0.000000 1.000000 0.000000
vn -0.000000 1.000000 0.000000
vn -0.000000 1.000000 0.000000
vn -0.000000 1.000000 0.000000
vn -0.000000 -1.000000 0.000000
vn -0.000000 -1.000000 0.000000
vn -0.000000 -1.000000 0.000000
vn -1.000000 0.000000 0.000000
vn -1.000000 0.000000 0.000000
vn -1.000000 0.000000 0.000000
vn -1.000000 0.000000 0.000000
vn -1.000000 0.000000 0.000000
vn -1.000000 0.000000 0.000000
vn -0.000000 0.000000 -1.000000
vn -0.000000 0.000000 -1.000000
vn -0.000000 0.000000 -1.000000
vn -0.000000 0.000000 -1.000000
vn -0.000000 0.000000 -1.000000
vn -0.000000 0.000000 -1.000000
vn -0.000000 0.000000 -1.000000
vn -0.000000 0.000000 -1.000000
vn -0.000000 0.000000 -1.000000
vn -0.000000 0.000000 -1.000000
vn -0.000000 0.000000 -1.000000
vn -0.000000 0.000000 -1.000000
vn -0.000000 0.000000 -1.000000
vn -0.000000 0.000000 -1.000000
vn -0.000000 0.000000 -1.000000
vn -0.000000 -0.000000 1.000000
vn -0.000000 -0.000000 1.000000
vn -0.000000 -0.000000 1.000000
vn -0.000000 0.000000 1.000000
vn -0.000000 0.000000 1.000000
vn -0.000000 0.000000 1.000000
vn -0.000000 0.000000 1.000000
vn -0.000000 0.000000 1.000000
vn -0.000000 0.000000 1.000000
vn -0.000000 0.000000 1.000000
vn -0.000000 0.000000 1.000000
vn -0.000000 0.000000 1.000000
vn -0.000000 -0.000000 1.000000
vn -0.000000 -0.000000 1.000000
vn -0.000000 -0.000000 1.000000
vn -0.000000 -0.000000 -1.000000
vn -0.000000 -0.000000 -1.000000
vn -0.000000 -0.000000 -1.000000
vn -0.382685 0.923879 0.000000
vn -0.382685 0.923879 0.000000
vn -0.382685 0.923879 0.000000
vn -0.382683 0.923880 0.000000
vn -0.382683 0.923880 0.000000
vn -0.382683 0.923880 0.000000
vn -0.923880 -0.382683 0.000000
vn -0.923880 -0.382683 0.000000
vn -0.923880 -0.382683 0.000000
vn -0.923880 -0.382684 0.000000
vn -0.923880 -0.382684 0.000000
vn -0.923880 -0.382684 0.000000
vn 0.382683 -0.923880 0.000000
vn 0.382683 -0.923880 0.000000
vn 0.382683 -0.923880 0.000000
vn 0.382683 -0.923880 0.000000
vn 0.382683 -0.923880 0.000000
vn 0.382683 -0.923880 0.000000
vn 0.923879 0.382684 0.000000
vn 0.923879 0.382684 0.000000
vn 0.923879 0.382684 0.000000
vn 0.923879 0.382684 0.000000
vn 0.923879 0.382684 0.000000
vn 0.923879 0.382684 0.000000
vn -0.923880 0.382683 0.000000
vn -0.923880 0.382683 0.000000
vn -0.923880 0.382683 0.000000
vn -0.923880 0.382683 0.000000
vn -0.923880 0.382683 0.000000
vn -0.923880 0.382683 0.000000
vn -0.382683 -0.923880 0.000000
vn -0.382683 -0.923880 0.000000
vn -0.382683 -0.923880 0.000000
vn -0.382683 -0.923880 0.000000
vn -0.382683 -0.923880 0.000000
vn -0.382683 -0.923880 0.000000
vn 0.923879 -0.382684 0.000000
vn 0.923879 -0.382684 0.000000
vn 0.923879 -0.382684 0.000000
vn 0.923879 -0.382684 0.000000
vn 0.923879 -0.382684 0.000000
vn 0.923879 -0.382684 0.000000
vn 0.382683 0.923880 0.000000
vn 0.382683 0.923880 0.000000
vn 0.382683 0.923880 0.000000
vn 0.382685 0.923879 0.000000
vn 0.382685 0.923879 0.000000
vn 0.382685 0.923879 0.000000
vn 1.000000 0.000000 0.000000
vn 1.000000 0.000000 0.000000
vn 1.000000 0.000000 0.000000
vn 1.000000 0.000000 0.000000
vn 1.000000 0.000000 0.000000
vn 1.000000 0.000000 0.000000
vn -0.000000 0.000000 1.000000
vn -0.000000 0.000000 1.000000
vn -0.000000 0.000000 1.000000
vn -0.000000 0.000000 1.000000
vn -0.000000 0.000000 1.000000
vn -0.000000 0.000000 1.000000
vn -0.000000 -1.000000 0.000000
vn -0.000000 -1.000000 0.000000
vn -0.000000 -1.000000 0.000000
vn -0.000000 -1.000000 0.000000
vn -0.000000 -1.000000 0.000000
vn -0.000000 -1.000000 0.000000
vn -1.000000 0.000000 0.000000
vn -1.000000 0.000000 0.000000
vn -1.000000 0.000000 0.000000
vn -1.000000 0.000000 0.000000
vn -1.000000 0.000000 0.000000
vn -1.000000 0.000000 0.000000
vn -0.000000 0.000000 -1.000000
vn -0.000000 0.000000 -1.000000
vn -0.000000 0.000000 -1.000000
vn -0.000000 0.000000 -1.000000
vn -0.000000 0.000000 -1.000000
vn -0.000000 0.000000 -1.000000
vn -0.000000 1.000000 0.000000
vn -0.000000 1.000000 0.000000
vn -0.000000 1.000000 0.000000
vn -0.000000 1.000000 0.000000
vn -0.000000 1.000000 0.000000
vn -0.000000 1.000000 0.000000
vn -0.000000 0.000000 -1.000000
vn -0.000000 0.000000 -1.000000
vn -0.000000 0.000000 -1.000000
vn -0.000000 0.000000 -1.000000
vn -0.000000 0.000000 -1.000000
vn -0.000000 0.000000 -1.000000
vn -0.000000 0.000000 -1.000000
vn -0.000000 0.000000 -1.000000
vn -0.000000 0.000000 -1.000000
vn -0.000000 0.000000 -1.000000
vn -0.000000 0.000000 -1.000000
vn -0.000000 0.000000 -1.000000
vn -0.000000 -0.000001 -1.000000
vn -0.000000 -0.000001 -1.000000
vn -0.000000 -0.000001 -1.000000
vn -0.000000 0.000000 -1.000000
vn -0.000000 0.000000 -1.000000
vn -0.000000 0.000000 -1.000000
vn 0.382685 -0.923879 0.000000
vn 0.382685 -0.923879 0.000000
vn 0.382685 -0.923879 0.000000
vn 0.382683 -0.923880 0.000000
vn 0.382683 -0.923880 0.000000
vn 0.382683 -0.923880 0.000000
vn 0.923880 0.382684 0.000000
vn 0.923880 0.382684 0.000000
vn 0.923880 0.382684 0.000000
vn 0.923880 0.382684 0.000000
vn 0.923880 0.382684 0.000000
vn 0.923880 0.382684 0.000000
vn -0.382683 0.923880 0.000000
vn -0.382683 0.923880 0.000000
vn -0.382683 0.923880 0.000000
vn -0.382683 0.923880 0.000000
vn -0.382683 0.923880 0.000000
vn -0.382683 0.923880 0.000000
vn -0.923879 -0.382684 0.000000
vn -0.923879 -0.382684 0.000000
vn -0.923879 -0.382684 0.000000
vn -0.923879 -0.382684 0.000000
vn -0.923879 -0.382684 0.000000
vn -0.923879 -0.382684 0.000000
vn 0.923880 -0.382684 0.000000
vn 0.923880 -0.382684 0.000000
vn 0.923880 -0.382684 0.000000
vn 0.923880 -0.382683 0.000000
vn 0.923880 -0.382683 0.000000
vn 0.923880 -0.382683 0.000000
vn 0.382683 0.923880 0.000000
vn 0.382683 0.923880 0.000000
vn 0.382683 0.923880 0.000000
vn 0.382683 0.923880 0.000000
vn 0.382683 0.923880 0.000000
vn 0.382683 0.923880 0.000000
vn -0.923879 0.382684 0.000000
vn -0.923879 0.382684 0.000000
vn -0.923879 0.382684 0.000000
vn -0.923879 0.382684 0.000000
vn -0.923879 0.382684 0.000000
vn -0.923879 0.382684 0.000000
vn -0.382683 -0.923880 0.000000
vn -0.382683 -0.923880 0.000000
vn -0.382683 -0.923880 0.000000
vn -0.382685 -0.923879 0.000000
vn -0.382685 -0.923879 0.000000
vn -0.382685 -0.923879 0.000000
vn -1.000000 0.000000 0.000000
vn -1.000000 0.000000 0.000000
vn -1.000000 0.000000 0.000000
vn -1.000000 0.000000 0.000000
vn -1.000000 0.000000 0.000000
vn -1.000000 0.000000 0.000000
vn -0.000000 0.263516 -0.964655
vn -0.000000 0.263516 -0.964655
vn -0.000000 0.263516 -0.964655
vn 1.000000 0.000000 0.000000
vn 1.000000 0.000000 0.000000
vn 1.000000 0.000000 0.000000
vn 1.000000 0.000000 0.000000
vn 1.000000 0.000000 0.000000
vn 1.000000 0.000000 0.000000
vn -0.000000 0.000000 1.000000
vn -0.000000 0.000000 1.000000
vn -0.000000 0.000000 1.000000
vn -0.000000 0.000000 1.000000
vn -0.000000 0.000000 1.000000
vn -0.000000 0.000000 1.000000
vn -0.000000 0.000000 1.000000
vn -0.000000 0.000000 1.000000
vn -0.000000 0.000000 1.000000
vn -0.000000 0.000000 1.000000
vn -0.000000 0.000000 1.000000
vn -0.000000 0.000000 1.000000
vn -0.000000 0.000000 -1.000000
vn -0.000000 0.000000 -1.000000
vn -0.000000 0.000000 -1.000000
vn -0.000000 0.000000 -1.000000
vn -0.000000 0.000000 -1.000000
vn -0.000000 0.000000 -1.000000
vn -0.000000 0.000000 -1.000000
vn -0.000000 0.000000 -1.000000
vn -0.000000 0.000000 -1.000000
vn -0.000000 0.000000 -1.000000
vn -0.000000 0.000000 -1.000000
vn -0.000000 0.000000 -1.000000
vn -0.000000 0.000000 -1.000000
vn -0.000000 0.000000 -1.000000
vn -0.000000 0.000000 -1.000000
vn -0.000000 -0.000000 -1.000000
vn -0.000000 -0.000000 -1.000000
vn -0.000000 -0.000000 -1.000000
vn -0.000000 -0.000000 -1.000000
vn -0.000000 -0.000000 -1.000000
vn -0.000000 -0.000000 -1.000000
vn -0.000000 -1.000000 0.000000
vn -0.000000 -1.000000 0.000000
vn -0.000000 -1.000000 0.000000
vn -0.000000 0.000000 1.000000
vn -0.000000 0.000000 1.000000
vn -0.000000 0.000000 1.000000
vn -0.000000 0.000000 1.000000
vn -0.000000 0.000000 1.000000
vn -0.000000 0.000000 1.000000

g Material
f 3/1/1 1/2/2 2/3/3
f 6/4/4 4/5/5 5/6/6
f 7/7/7 4/8/8 6/9/9
f 10/10/10 8/11/11 9/12/12
f 11/13/13 8/14/14 10/15/15
f 14/16/16 12/17/17 13/18/18
f 15/19/19 12/20/20 14/21/21
f 18/22/22 16/23/23 17/24/24
f 19/25/25 16/26/26 18/27/27
f 77/28/28 75/29/29 76/30/30
f 80/31/31 78/32/32 79/33/33
f 81/34/34 78/35/35 80/36/36
f 84/37/37 82/38/38 83/39/39
f 85/40/40 82/41/41 84/42/42
f 88/43/43 86/44/44 87/45/45
f 89/46/46 86/47/47 88/48/48
f 92/49/49 90/50/50 91/51/51
f 93/52/52 90/53/53 92/54/54
f 96/55/55 94/56/56 95/57/57
f 97/58/58 94/59/59 96/60/60
f 100/61/61 98/62/62 99/63/63
f 101/64/64 98/65/65 100/66/66
f 104/67/67 102/68/68 103/69/69
f 105/70/70 102/71/71 104/72/72
f 108/73/73 106/74/74 107/75/75
f 109/76/76 106/77/77 108/78/78
f 112/79/79 110/80/80 111/81/81
f 118/82/82 116/83/83 117/84/84
f 119/85/85 116/86/86 118/87/87
f 122/88/88 120/89/89 121/90/90
f 123/91/91 120/92/92 122/93/93
f 126/94/94 124/95/95 125/96/96
f 127/97/97 124/98/98 126/99/99
f 130/100/100 128/101/101 129/102/102
f 131/103/103 128/104/104 130/105/105
f 134/106/106 132/107/107 133/108/108
f 135/109/109 132/110/110 134/111/111
f 138/112/112 136/113/113 137/114/114
f 144/115/115 142/116/116 143/117/117
f 145/118/118 142/119/119 144/120/120
f 148/121/121 146/122/122 147/123/123
f 151/124/124 149/125/125 150/126/126
f 154/127/127 152/128/128 153/129/129
f 157/130/130 155/131/131 156/132/132
f 160/133/133 158/134/134 159/135/135
f 163/136/136 161/137/137 162/138/138
f 166/139/139 164/140/140 165/141/141
f 169/142/142 167/143/143 168/144/144
f 172/145/145 170/146/146 171/147/147
f 175/148/148 173/149/149 174/150/150

g Material.001
f 22/151/151 20/152/152 21/153/153
f 25/154/154 23/155/155 24/156/156
f 26/157/157 23/158/158 25/159/159
f 29/160/160 27/161/161 28/162/162
f 30/163/163 27/164/164 29/165/165
f 33/166/166 31/167/167 32/168/168
f 34/169/169 31/170/170 33/171/171
f 37/172/172 35/173/173 36/174/174
f 38/175/175 35/176/176 37/177/177
f 41/178/178 39/179/179 40/180/180
f 42/181/181 39/182/182 41/183/183
f 45/184/184 43/185/185 44/186/186
f 46/187/187 43/188/188 45/189/189
f 49/190/190 47/191/191 48/192/192
f 50/193/193 47/194/194 49/195/195
f 53/196/196 51/197/197 52/198/198
f 54/199/199 51/200/200 53/201/201
f 57/202/202 55/203/203 56/204/204
f 58/205/205 55/206/206 57/207/207
f 61/208/208 59/209/209 60/210/210
f 62/211/211 59/212/212 61/213/213
f 65/214/214 63/215/215 64/216/216
f 66/217/217 63/218/218 65/219/219
f 69/220/220 67/221/221 68/222/222
f 70/223/223 67/224/224 69/225/225
f 73/226/226 71/227/227 72/228/228
f 74/229/229 71/230/230 73/231/231
f 178/232/232 176/233/233 177/234/234
f 179/235/235 176/236/236 178/237/237
f 182/238/238 180/239/239 181/240/240
f 185/241/241 183/242/242 184/243/243
f 188/244/244 186/245/245 187/246/246
f 191/247/247 189/248/248 190/249/249
f 194/250/250 192/251/251 193/252/252
f 197/253/253 195/254/254 196/255/255
f 200/256/256 198/257/257 199/258/258
f 201/259/259 198/260/260 200/261/261
f 204/262/262 202/263/263 203/264/264
f 205/265/265 202/266/266 204/267/267
f 208/268/268 206/269/269 207/270/270
f 209/271/271 206/272/272 208/273/273
f 212/274/274 210/275/275 211/276/276
f 213/277/277 210/278/278 212/279/279
f 216/280/280 214/281/281 215/282/282
f 217/283/283 214/284/284 216/285/285
f 220/286/286 218/287/287 219/288/288
f 221/289/289 218/290/290 220/291/291
f 224/292/292 222/293/293 223/294/294
f 225/295/295 222/296/296 224/297/297
f 228/298/298 226/299/299 227/300/300
f 229/301/301 226/302/302 228/303/303
f 232/304/304 230/305/305 231/306/306
f 233/307/307 230/308/308 232/309/309
f 236/310/310 234/311/311 235/312/312
f 241/313/313 239/314/314 240/315/315
f 242/316/316 239/317/317 241/318/318
f 245/319/319 243/320/320 244/321/321
f 246/322/322 243/323/323 245/324/324
f 249/325/325 247/326/326 248/327/327
f 250/328/328 247/329/329 249/330/330
f 253/331/331 251/332/332 252/333/333
f 254/334/334 251/335/335 253/336/336
f 257/337/337 255/338/338 256/339/339
f 260/340/340 258/341/341 259/342/342
f 263/343/343 261/344/344 262/345/345
f 266/346/346 264/347/347 265/348/348
f 269/349/349 267/350/350 268/351/351
f 272/352/352 270/353/353 271/354/354

g Material.004
f 277/355/355 275/356/356 276/357/357
f 278/358/358 275/359/359 277/360/360

