# Converted from B3D for Luanti (With Correct Normals)
# Object Name: multidecor_white_pine_glass_door

v -1.000000 3.000000 -0.150000
v -1.000000 -1.000000 -0.150000
v -1.000000 -1.000000 0.050000
v -1.000000 3.000000 0.050000
v 0.700000 2.600000 -0.150000
v 0.700000 -0.600000 -0.150000
v 0.700000 -0.600000 0.050000
v 0.700000 2.600000 0.050000
v -0.700000 2.600000 -0.150000
v -0.700000 2.600000 0.050000
v -0.700000 -0.600000 0.050000
v -0.700000 -0.600000 -0.150000
v 1.000000 3.000000 -0.150000
v 1.000000 3.000000 0.050000
v 1.000000 -1.000000 0.050000
v 1.000000 -1.000000 -0.150000
v 1.000000 3.000000 0.050000
v 1.000000 3.000000 -0.150000
v -1.000000 3.000000 -0.150000
v -1.000000 3.000000 0.050000
v -0.945000 0.745423 -0.230000
v -0.705000 0.745423 -0.230000
v -0.825000 0.625423 -0.230000
v -0.825000 0.865424 -0.230000
v -0.909853 0.830276 -0.150000
v -0.825000 0.865424 -0.150000
v -0.909853 0.830276 -0.230000
v -0.909853 0.830276 -0.150000
v -0.825000 0.865424 -0.230000
v -0.945000 0.745423 -0.230000
v -0.909853 0.660571 -0.150000
v -0.945000 0.745423 -0.150000
v -0.909853 0.660571 -0.230000
v -0.909853 0.660571 -0.150000
v -0.945000 0.745423 -0.230000
v -0.825000 0.625423 -0.230000
v -0.740147 0.660571 -0.150000
v -0.825000 0.625423 -0.150000
v -0.740147 0.660571 -0.230000
v -0.740147 0.660571 -0.150000
v -0.825000 0.625423 -0.230000
v -0.705000 0.745423 -0.230000
v -0.740147 0.830276 -0.150000
v -0.705000 0.745423 -0.150000
v -0.740147 0.830276 -0.230000
v -0.740147 0.830276 -0.150000
v -0.705000 0.745423 -0.230000
v -0.909853 0.830276 -0.230000
v -0.945000 0.745423 -0.150000
v -0.909853 0.830276 -0.150000
v -0.945000 0.745423 -0.230000
v -0.945000 0.745423 -0.150000
v -0.909853 0.830276 -0.230000
v -0.909853 0.660571 -0.230000
v -0.825000 0.625423 -0.150000
v -0.909853 0.660571 -0.150000
v -0.825000 0.625423 -0.230000
v -0.825000 0.625423 -0.150000
v -0.909853 0.660571 -0.230000
v -0.740147 0.660571 -0.230000
v -0.705000 0.745423 -0.150000
v -0.740147 0.660571 -0.150000
v -0.705000 0.745423 -0.230000
v -0.705000 0.745423 -0.150000
v -0.740147 0.660571 -0.230000
v -0.740147 0.830276 -0.230000
v -0.825000 0.865424 -0.150000
v -0.740147 0.830276 -0.150000
v -0.825000 0.865424 -0.230000
v -0.825000 0.865424 -0.150000
v -0.740147 0.830276 -0.230000
v -0.485603 0.804820 -0.230000
v -0.485603 0.686026 -0.297092
v -0.485603 0.804820 -0.297092
v -0.485603 0.686026 -0.230000
v -0.485603 0.686026 -0.297092
v -0.485603 0.804820 -0.230000
v -0.485603 0.686026 -0.230000
v -0.884397 0.804820 -0.230000
v -0.884397 0.686027 -0.230000
v -0.485603 0.804820 -0.230000
v -0.884397 0.804820 -0.230000
v -0.485603 0.686026 -0.230000
v -0.485603 0.686026 -0.297092
v -0.884397 0.686027 -0.230000
v -0.884397 0.686027 -0.297092
v -0.485603 0.686026 -0.230000
v -0.884397 0.686027 -0.230000
v -0.485603 0.686026 -0.297092
v -0.884397 0.686027 -0.297092
v -0.884397 0.804820 -0.230000
v -0.884397 0.804820 -0.297092
v -0.884397 0.686027 -0.230000
v -0.884397 0.804820 -0.230000
v -0.884397 0.686027 -0.297092
v -0.884397 0.686027 -0.297092
v -0.485603 0.804820 -0.297092
v -0.485603 0.686026 -0.297092
v -0.884397 0.804820 -0.297092
v -0.485603 0.804820 -0.297092
v -0.884397 0.686027 -0.297092
v -0.884397 0.804820 -0.230000
v -0.485603 0.804820 -0.297092
v -0.884397 0.804820 -0.297092
v -0.485603 0.804820 -0.230000
v -0.485603 0.804820 -0.297092
v -0.884397 0.804820 -0.230000
v -0.825000 0.865424 -0.230000
v -0.945000 0.745423 -0.230000
v -0.909853 0.830276 -0.230000
v -0.945000 0.745423 -0.230000
v -0.825000 0.865424 -0.230000
v -0.740147 0.830276 -0.230000
v -0.945000 0.745423 -0.230000
v -0.740147 0.830276 -0.230000
v -0.705000 0.745423 -0.230000
v -0.825000 0.625423 -0.230000
v -0.705000 0.745423 -0.230000
v -0.740147 0.660571 -0.230000
v -0.945000 0.745423 -0.230000
v -0.825000 0.625423 -0.230000
v -0.909853 0.660571 -0.230000
v -0.825000 0.625423 0.130000
v -0.705000 0.745423 0.130000
v -0.945000 0.745423 0.130000
v -0.825000 0.865424 0.130000
v -0.909853 0.830276 0.050000
v -0.909853 0.830276 0.130000
v -0.825000 0.865424 0.050000
v -0.909853 0.830276 0.050000
v -0.825000 0.865424 0.130000
v -0.945000 0.745423 0.130000
v -0.909853 0.660571 0.050000
v -0.909853 0.660571 0.130000
v -0.945000 0.745423 0.050000
v -0.909853 0.660571 0.050000
v -0.945000 0.745423 0.130000
v -0.825000 0.625423 0.130000
v -0.740147 0.660571 0.050000
v -0.740147 0.660571 0.130000
v -0.825000 0.625423 0.050000
v -0.740147 0.660571 0.050000
v -0.825000 0.625423 0.130000
v -0.705000 0.745423 0.130000
v -0.740147 0.830276 0.050000
v -0.740147 0.830276 0.130000
v -0.705000 0.745423 0.050000
v -0.740147 0.830276 0.050000
v -0.705000 0.745423 0.130000
v -0.909853 0.830276 0.130000
v -0.945000 0.745423 0.050000
v -0.945000 0.745423 0.130000
v -0.909853 0.830276 0.050000
v -0.945000 0.745423 0.050000
v -0.909853 0.830276 0.130000
v -0.909853 0.660571 0.130000
v -0.825000 0.625423 0.050000
v -0.825000 0.625423 0.130000
v -0.909853 0.660571 0.050000
v -0.825000 0.625423 0.050000
v -0.909853 0.660571 0.130000
v -0.740147 0.660571 0.130000
v -0.705000 0.745423 0.050000
v -0.705000 0.745423 0.130000
v -0.740147 0.660571 0.050000
v -0.705000 0.745423 0.050000
v -0.740147 0.660571 0.130000
v -0.740147 0.830276 0.130000
v -0.825000 0.865424 0.050000
v -0.825000 0.865424 0.130000
v -0.740147 0.830276 0.050000
v -0.825000 0.865424 0.050000
v -0.740147 0.830276 0.130000
v -0.485603 0.686026 0.197093
v -0.485603 0.804820 0.130000
v -0.485603 0.804820 0.197093
v -0.485603 0.686026 0.130000
v -0.485603 0.804820 0.130000
v -0.485603 0.686026 0.197093
v -0.884397 0.686027 0.197093
v -0.485603 0.686026 0.130000
v -0.485603 0.686026 0.197093
v -0.884397 0.686027 0.197093
v -0.884397 0.804820 0.130000
v -0.884397 0.686027 0.130000
v -0.884397 0.804820 0.197093
v -0.884397 0.804820 0.130000
v -0.884397 0.686027 0.197093
v -0.884397 0.686027 0.130000
v -0.600000 0.804820 0.130000
v -0.600000 0.686026 0.130000
v -0.884397 0.804820 0.130000
v -0.600000 0.804820 0.130000
v -0.884397 0.686027 0.130000
v -0.600000 0.804820 0.130000
v -0.485603 0.686026 0.130000
v -0.600000 0.686026 0.130000
v -0.485603 0.804820 0.130000
v -0.485603 0.686026 0.130000
v -0.600000 0.804820 0.130000
v -0.884397 0.686027 0.197093
v -0.485603 0.804820 0.197093
v -0.884397 0.804820 0.197093
v -0.485603 0.686026 0.197093
v -0.485603 0.804820 0.197093
v -0.884397 0.686027 0.197093
v -0.909853 0.830276 0.130000
v -0.945000 0.745423 0.130000
v -0.825000 0.865424 0.130000
v -0.740147 0.830276 0.130000
v -0.825000 0.865424 0.130000
v -0.945000 0.745423 0.130000
v -0.705000 0.745423 0.130000
v -0.740147 0.830276 0.130000
v -0.945000 0.745423 0.130000
v -0.740147 0.660571 0.130000
v -0.705000 0.745423 0.130000
v -0.825000 0.625423 0.130000
v -0.909853 0.660571 0.130000
v -0.825000 0.625423 0.130000
v -0.945000 0.745423 0.130000
v -0.884397 0.804820 0.130000
v -0.485603 0.804820 0.130000
v -0.600000 0.804820 0.130000
v 1.000000 -1.000000 -0.150000
v 1.000000 -1.000000 0.050000
v -1.000000 -1.000000 0.050000
v -1.000000 -1.000000 -0.150000
v 0.700000 2.600000 0.050000
v -0.700000 2.600000 0.050000
v -0.700000 2.600000 -0.150000
v 0.700000 2.600000 -0.150000
v 0.700000 -0.600000 -0.150000
v -0.700000 -0.600000 -0.150000
v -0.700000 -0.600000 0.050000
v 0.700000 -0.600000 0.050000
v 0.700000 1.850000 0.050000
v 0.700000 1.850000 -0.150000
v 0.050000 1.850000 -0.150000
v 0.050000 1.850000 0.050000
v 0.700000 1.050000 0.050000
v 0.700000 1.050000 -0.150000
v 0.050000 1.050000 -0.150000
v 0.050000 1.050000 0.050000
v 0.700000 0.250000 0.050000
v 0.700000 0.250000 -0.150000
v 0.050000 0.250000 -0.150000
v 0.050000 0.250000 0.050000
v 0.700000 1.750000 0.050000
v 0.050000 1.750000 0.050000
v 0.050000 1.750000 -0.150000
v 0.700000 1.750000 -0.150000
v 0.700000 0.950000 0.050000
v 0.050000 0.950000 0.050000
v 0.050000 0.950000 -0.150000
v 0.700000 0.950000 -0.150000
v 0.700000 0.150000 0.050000
v 0.050000 0.150000 0.050000
v 0.050000 0.150000 -0.150000
v 0.700000 0.150000 -0.150000
v -0.050000 1.850000 0.050000
v -0.050000 1.850000 -0.150000
v -0.700000 1.850000 -0.150000
v -0.700000 1.850000 0.050000
v -0.050000 1.050000 0.050000
v -0.050000 1.050000 -0.150000
v -0.700000 1.050000 -0.150000
v -0.700000 1.050000 0.050000
v -0.050000 0.250000 0.050000
v -0.050000 0.250000 -0.150000
v -0.700000 0.250000 -0.150000
v -0.700000 0.250000 0.050000
v -0.050000 1.750000 0.050000
v -0.700000 1.750000 0.050000
v -0.700000 1.750000 -0.150000
v -0.050000 1.750000 -0.150000
v -0.050000 0.950000 0.050000
v -0.700000 0.950000 0.050000
v -0.700000 0.950000 -0.150000
v -0.050000 0.950000 -0.150000
v -0.050000 0.150000 0.050000
v -0.700000 0.150000 0.050000
v -0.700000 0.150000 -0.150000
v -0.050000 0.150000 -0.150000
v -0.050000 1.850000 -0.150000
v -0.050000 1.850000 0.050000
v -0.050000 2.600000 0.050000
v -0.050000 2.600000 -0.150000
v 0.050000 1.850000 0.050000
v 0.050000 1.850000 -0.150000
v 0.050000 2.600000 -0.150000
v 0.050000 2.600000 0.050000
v -0.050000 1.750000 -0.150000
v -0.050000 1.050000 -0.150000
v -0.050000 1.050000 0.050000
v -0.050000 1.750000 0.050000
v 0.050000 1.750000 0.050000
v 0.050000 1.050000 0.050000
v 0.050000 1.050000 -0.150000
v 0.050000 1.750000 -0.150000
v -0.050000 0.950000 -0.150000
v -0.050000 0.250000 -0.150000
v -0.050000 0.250000 0.050000
v -0.050000 0.950000 0.050000
v 0.050000 0.950000 0.050000
v 0.050000 0.250000 0.050000
v 0.050000 0.250000 -0.150000
v 0.050000 0.950000 -0.150000
v -0.050000 0.150000 -0.150000
v -0.050000 -0.600000 -0.150000
v -0.050000 -0.600000 0.050000
v -0.050000 0.150000 0.050000
v 0.050000 0.150000 0.050000
v 0.050000 -0.600000 0.050000
v 0.050000 -0.600000 -0.150000
v 0.050000 0.150000 -0.150000
v -0.050000 2.600000 -0.150000
v 0.050000 2.600000 -0.150000
v 0.050000 1.850000 -0.150000
v -0.050000 1.850000 -0.150000
v 0.700000 1.850000 -0.150000
v 0.700000 1.750000 -0.150000
v 0.050000 1.750000 -0.150000
v 0.050000 1.850000 -0.150000
v -0.050000 1.850000 -0.150000
v -0.050000 1.750000 -0.150000
v -0.700000 1.750000 -0.150000
v -0.700000 1.850000 -0.150000
v -0.050000 1.050000 -0.150000
v -0.050000 1.750000 -0.150000
v 0.050000 1.750000 -0.150000
v 0.050000 1.050000 -0.150000
v 0.700000 1.050000 -0.150000
v 0.700000 0.950000 -0.150000
v 0.050000 0.950000 -0.150000
v 0.050000 1.050000 -0.150000
v -0.050000 1.050000 -0.150000
v -0.050000 0.950000 -0.150000
v -0.700000 0.950000 -0.150000
v -0.700000 1.050000 -0.150000
v -0.050000 0.250000 -0.150000
v -0.050000 0.950000 -0.150000
v 0.050000 0.950000 -0.150000
v 0.050000 0.250000 -0.150000
v 0.700000 0.250000 -0.150000
v 0.700000 0.150000 -0.150000
v 0.050000 0.150000 -0.150000
v 0.050000 0.250000 -0.150000
v -0.050000 0.250000 -0.150000
v -0.050000 0.150000 -0.150000
v -0.700000 0.150000 -0.150000
v -0.700000 0.250000 -0.150000
v -0.050000 -0.600000 -0.150000
v -0.050000 0.150000 -0.150000
v 0.050000 0.150000 -0.150000
v 0.050000 -0.600000 -0.150000
v 0.050000 1.850000 -0.150000
v 0.050000 1.750000 -0.150000
v -0.050000 1.750000 -0.150000
v -0.050000 1.850000 -0.150000
v -0.050000 0.950000 -0.150000
v -0.050000 1.050000 -0.150000
v 0.050000 1.050000 -0.150000
v 0.050000 0.950000 -0.150000
v 0.050000 0.250000 -0.150000
v 0.050000 0.150000 -0.150000
v -0.050000 0.150000 -0.150000
v -0.050000 0.250000 -0.150000
v -1.000000 3.000000 -0.150000
v -0.700000 -0.600000 -0.150000
v -1.000000 -1.000000 -0.150000
v -0.700000 -0.600000 -0.150000
v 1.000000 -1.000000 -0.150000
v -1.000000 -1.000000 -0.150000
v -0.700000 -0.600000 -0.150000
v 0.700000 -0.600000 -0.150000
v 1.000000 -1.000000 -0.150000
v 0.700000 -0.600000 -0.150000
v 1.000000 3.000000 -0.150000
v 1.000000 -1.000000 -0.150000
v -1.000000 3.000000 -0.150000
v -0.700000 2.600000 -0.150000
v -0.700000 -0.600000 -0.150000
v 0.700000 2.600000 -0.150000
v 1.000000 3.000000 -0.150000
v 0.700000 -0.600000 -0.150000
v -1.000000 3.000000 -0.150000
v 0.700000 2.600000 -0.150000
v -0.700000 2.600000 -0.150000
v -1.000000 3.000000 -0.150000
v 1.000000 3.000000 -0.150000
v 0.700000 2.600000 -0.150000
v -0.050000 1.850000 0.050000
v 0.050000 1.850000 0.050000
v 0.050000 2.600000 0.050000
v -0.050000 2.600000 0.050000
v -0.700000 1.850000 0.050000
v -0.700000 1.750000 0.050000
v -0.050000 1.750000 0.050000
v -0.050000 1.850000 0.050000
v 0.050000 1.850000 0.050000
v 0.050000 1.750000 0.050000
v 0.700000 1.750000 0.050000
v 0.700000 1.850000 0.050000
v 0.050000 1.050000 0.050000
v 0.050000 1.750000 0.050000
v -0.050000 1.750000 0.050000
v -0.050000 1.050000 0.050000
v -0.700000 1.050000 0.050000
v -0.700000 0.950000 0.050000
v -0.050000 0.950000 0.050000
v -0.050000 1.050000 0.050000
v 0.050000 1.050000 0.050000
v 0.050000 0.950000 0.050000
v 0.700000 0.950000 0.050000
v 0.700000 1.050000 0.050000
v -0.050000 0.950000 0.050000
v 0.050000 0.950000 0.050000
v 0.050000 0.250000 0.050000
v -0.050000 0.250000 0.050000
v -0.700000 0.250000 0.050000
v -0.700000 0.150000 0.050000
v -0.050000 0.150000 0.050000
v -0.050000 0.250000 0.050000
v 0.050000 0.250000 0.050000
v 0.050000 0.150000 0.050000
v 0.700000 0.150000 0.050000
v 0.700000 0.250000 0.050000
v 0.050000 1.050000 0.050000
v -0.050000 1.050000 0.050000
v -0.050000 0.950000 0.050000
v 0.050000 0.950000 0.050000
v -0.050000 1.850000 0.050000
v -0.050000 1.750000 0.050000
v 0.050000 1.750000 0.050000
v 0.050000 1.850000 0.050000
v 0.050000 0.250000 0.050000
v -0.050000 0.250000 0.050000
v -0.050000 0.150000 0.050000
v 0.050000 0.150000 0.050000
v -0.050000 0.150000 0.050000
v -0.050000 -0.600000 0.050000
v 0.050000 -0.600000 0.050000
v 0.050000 0.150000 0.050000
v 1.000000 3.000000 0.050000
v 0.700000 -0.600000 0.050000
v 1.000000 -1.000000 0.050000
v 0.700000 -0.600000 0.050000
v -1.000000 -1.000000 0.050000
v 1.000000 -1.000000 0.050000
v 0.700000 -0.600000 0.050000
v -0.700000 -0.600000 0.050000
v -1.000000 -1.000000 0.050000
v -0.700000 -0.600000 0.050000
v -1.000000 3.000000 0.050000
v -1.000000 -1.000000 0.050000
v 1.000000 3.000000 0.050000
v 0.700000 2.600000 0.050000
v 0.700000 -0.600000 0.050000
v -0.700000 2.600000 0.050000
v -1.000000 3.000000 0.050000
v -0.700000 -0.600000 0.050000
v 1.000000 3.000000 0.050000
v -0.700000 2.600000 0.050000
v 0.700000 2.600000 0.050000
v 1.000000 3.000000 0.050000
v -1.000000 3.000000 0.050000
v -0.700000 2.600000 0.050000
v -0.050000 1.850000 -0.050000
v -0.700000 1.850000 -0.050000
v -0.700000 2.600000 -0.050000
v -0.050000 2.600000 -0.050000
v -0.050000 1.050000 -0.050000
v -0.700000 1.050000 -0.050000
v -0.700000 1.800000 -0.050000
v -0.050000 1.800000 -0.050000
v -0.050000 0.250000 -0.050000
v -0.700000 0.250000 -0.050000
v -0.700000 1.000000 -0.050000
v -0.050000 1.000000 -0.050000
v -0.050000 -0.600000 -0.050000
v -0.700000 -0.600000 -0.050000
v -0.700000 0.150000 -0.050000
v -0.050000 0.150000 -0.050000
v 0.700000 -0.600000 -0.050000
v 0.050000 -0.600000 -0.050000
v 0.050000 0.150000 -0.050000
v 0.700000 0.150000 -0.050000
v 0.700000 0.200000 -0.050000
v 0.050000 0.200000 -0.050000
v 0.050000 0.950000 -0.050000
v 0.700000 0.950000 -0.050000
v 0.700000 1.000000 -0.050000
v 0.050000 1.000000 -0.050000
v 0.050000 1.750000 -0.050000
v 0.700000 1.750000 -0.050000
v 0.700000 1.850000 -0.050000
v 0.050000 1.850000 -0.050000
v 0.050000 2.600000 -0.050000
v 0.700000 2.600000 -0.050000

vt 0.625000 0.015625
vt 0.593750 1.000000
vt 0.593750 0.015625
vt 0.625000 1.000000
vt 0.593750 1.000000
vt 0.625000 0.015625
vt 0.687500 0.796875
vt 0.640625 0.015625
vt 0.640625 0.796875
vt 0.687500 0.015625
vt 0.640625 0.015625
vt 0.687500 0.796875
vt 0.703125 0.796875
vt 0.734375 0.015625
vt 0.703125 0.015625
vt 0.734375 0.796875
vt 0.734375 0.015625
vt 0.703125 0.796875
vt 0.593750 1.000000
vt 0.546875 0.015625
vt 0.593750 0.015625
vt 0.546875 1.000000
vt 0.546875 0.015625
vt 0.593750 1.000000
vt 0.468750 0.859375
vt 0.421875 0.343750
vt 0.468750 0.343750
vt 0.421875 0.859375
vt 0.421875 0.343750
vt 0.468750 0.859375
vt 0.468750 0.343750
vt 0.515625 0.859375
vt 0.468750 0.859375
vt 0.515625 0.343750
vt 0.515625 0.859375
vt 0.468750 0.343750
vt 0.421875 0.718750
vt 0.343750 0.343750
vt 0.343750 0.718750
vt 0.421875 0.343750
vt 0.343750 0.343750
vt 0.421875 0.718750
vt 0.562500 0.890625
vt 0.515625 0.546875
vt 0.515625 0.890625
vt 0.562500 0.546875
vt 0.515625 0.546875
vt 0.562500 0.890625
vt 0.562500 0.593750
vt 0.718750 0.546875
vt 0.718750 0.593750
vt 0.562500 0.546875
vt 0.718750 0.546875
vt 0.562500 0.593750
vt 0.343750 0.953125
vt 0.515625 0.890625
vt 0.515625 0.953125
vt 0.343750 0.890625
vt 0.515625 0.890625
vt 0.343750 0.953125
vt 0.703125 0.984375
vt 0.656250 0.812500
vt 0.703125 0.812500
vt 0.656250 0.984375
vt 0.656250 0.812500
vt 0.703125 0.984375
vt 0.515625 0.953125
vt 0.671875 0.890625
vt 0.515625 0.890625
vt 0.671875 0.953125
vt 0.671875 0.890625
vt 0.515625 0.953125
vt 0.562500 0.859375
vt 0.718750 0.812500
vt 0.562500 0.812500
vt 0.718750 0.859375
vt 0.718750 0.812500
vt 0.562500 0.859375
vt 0.562500 0.718750
vt 0.718750 0.656250
vt 0.562500 0.656250
vt 0.718750 0.718750
vt 0.718750 0.656250
vt 0.562500 0.718750
vt 0.562500 0.812500
vt 0.718750 0.765625
vt 0.718750 0.812500
vt 0.562500 0.765625
vt 0.718750 0.765625
vt 0.562500 0.812500
vt 0.750000 0.421875
vt 0.578125 0.468750
vt 0.578125 0.421875
vt 0.750000 0.468750
vt 0.578125 0.468750
vt 0.750000 0.421875
vt 0.562500 0.656250
vt 0.718750 0.593750
vt 0.718750 0.656250
vt 0.562500 0.593750
vt 0.718750 0.593750
vt 0.562500 0.656250
vt 0.343750 0.890625
vt 0.515625 0.859375
vt 0.343750 0.859375
vt 0.515625 0.890625
vt 0.515625 0.859375
vt 0.343750 0.890625
vt 0.515625 1.000000
vt 0.671875 0.953125
vt 0.515625 0.953125
vt 0.671875 1.000000
vt 0.671875 0.953125
vt 0.515625 1.000000
vt 0.562500 0.765625
vt 0.718750 0.718750
vt 0.562500 0.718750
vt 0.718750 0.765625
vt 0.718750 0.718750
vt 0.562500 0.765625
vt 0.359375 0.812500
vt 0.406250 1.000000
vt 0.359375 1.000000
vt 0.406250 0.812500
vt 0.406250 1.000000
vt 0.359375 0.812500
vt 0.453125 1.000000
vt 0.406250 0.812500
vt 0.453125 0.812500
vt 0.406250 1.000000
vt 0.406250 0.812500
vt 0.453125 1.000000
vt 0.656250 0.984375
vt 0.609375 0.812500
vt 0.609375 0.984375
vt 0.656250 0.812500
vt 0.609375 0.812500
vt 0.656250 0.984375
vt 0.609375 0.984375
vt 0.546875 0.812500
vt 0.546875 0.984375
vt 0.609375 0.812500
vt 0.546875 0.812500
vt 0.609375 0.984375
vt 0.500000 0.812500
vt 0.546875 0.984375
vt 0.546875 0.812500
vt 0.500000 0.984375
vt 0.546875 0.984375
vt 0.500000 0.812500
vt 0.500000 0.984375
vt 0.453125 0.812500
vt 0.453125 0.984375
vt 0.500000 0.812500
vt 0.453125 0.812500
vt 0.500000 0.984375
vt 0.296875 1.000000
vt 0.250000 0.812500
vt 0.250000 1.000000
vt 0.296875 0.812500
vt 0.250000 0.812500
vt 0.296875 1.000000
vt 0.296875 0.812500
vt 0.359375 1.000000
vt 0.359375 0.812500
vt 0.296875 1.000000
vt 0.359375 1.000000
vt 0.296875 0.812500
vt 0.421875 0.609375
vt 0.437500 0.796875
vt 0.421875 0.796875
vt 0.437500 0.609375
vt 0.437500 0.796875
vt 0.421875 0.609375
vt 0.421875 0.578125
vt 0.250000 0.609375
vt 0.250000 0.578125
vt 0.421875 0.609375
vt 0.250000 0.609375
vt 0.421875 0.578125
vt 0.609375 0.578125
vt 0.437500 0.609375
vt 0.437500 0.578125
vt 0.609375 0.609375
vt 0.437500 0.609375
vt 0.609375 0.578125
vt 0.421875 0.578125
vt 0.437500 0.421875
vt 0.437500 0.578125
vt 0.421875 0.421875
vt 0.437500 0.421875
vt 0.421875 0.578125
vt 0.421875 0.968750
vt 0.250000 1.000000
vt 0.250000 0.968750
vt 0.421875 1.000000
vt 0.250000 1.000000
vt 0.421875 0.968750
vt 0.609375 0.968750
vt 0.437500 1.000000
vt 0.437500 0.968750
vt 0.609375 1.000000
vt 0.437500 1.000000
vt 0.609375 0.968750
vt 0.421875 0.968750
vt 0.437500 0.781250
vt 0.437500 0.968750
vt 0.421875 0.781250
vt 0.437500 0.781250
vt 0.421875 0.968750
vt 0.421875 0.765625
vt 0.250000 0.781250
vt 0.250000 0.765625
vt 0.421875 0.781250
vt 0.250000 0.781250
vt 0.421875 0.765625
vt 0.609375 0.765625
vt 0.437500 0.781250
vt 0.437500 0.765625
vt 0.609375 0.781250
vt 0.437500 0.781250
vt 0.609375 0.765625
vt 0.421875 0.765625
vt 0.437500 0.593750
vt 0.437500 0.765625
vt 0.421875 0.593750
vt 0.437500 0.593750
vt 0.421875 0.765625
vt 0.437500 0.578125
vt 0.421875 0.609375
vt 0.421875 0.578125
vt 0.437500 0.609375
vt 0.421875 0.609375
vt 0.437500 0.578125
vt 0.421875 1.000000
vt 0.437500 0.968750
vt 0.437500 1.000000
vt 0.421875 0.968750
vt 0.437500 0.968750
vt 0.421875 1.000000
vt 0.437500 0.765625
vt 0.421875 0.781250
vt 0.421875 0.765625
vt 0.437500 0.781250
vt 0.421875 0.781250
vt 0.437500 0.765625
vt 0.250000 0.015625
vt 0.250000 1.000000
vt 0.328125 0.109375
vt 0.250000 0.015625
vt 0.328125 0.109375
vt 0.750000 0.015625
vt 0.750000 0.015625
vt 0.328125 0.109375
vt 0.671875 0.109375
vt 0.750000 0.015625
vt 0.671875 0.109375
vt 0.750000 1.000000
vt 0.328125 0.109375
vt 0.250000 1.000000
vt 0.328125 0.906250
vt 0.671875 0.109375
vt 0.671875 0.906250
vt 0.750000 1.000000
vt 0.328125 0.906250
vt 0.250000 1.000000
vt 0.671875 0.906250
vt 0.671875 0.906250
vt 0.250000 1.000000
vt 0.750000 1.000000
vt 0.546875 0.843750
vt 0.578125 0.656250
vt 0.546875 0.656250
vt 0.578125 0.843750
vt 0.578125 0.656250
vt 0.546875 0.843750
vt 0.578125 0.625000
vt 0.750000 0.656250
vt 0.750000 0.625000
vt 0.578125 0.656250
vt 0.750000 0.656250
vt 0.578125 0.625000
vt 0.406250 0.625000
vt 0.546875 0.656250
vt 0.546875 0.625000
vt 0.406250 0.656250
vt 0.546875 0.656250
vt 0.406250 0.625000
vt 0.578125 0.625000
vt 0.546875 0.468750
vt 0.546875 0.625000
vt 0.578125 0.468750
vt 0.546875 0.468750
vt 0.578125 0.625000
vt 0.578125 0.968750
vt 0.750000 1.000000
vt 0.750000 0.968750
vt 0.578125 1.000000
vt 0.750000 1.000000
vt 0.578125 0.968750
vt 0.406250 0.968750
vt 0.546875 1.000000
vt 0.546875 0.968750
vt 0.406250 1.000000
vt 0.546875 1.000000
vt 0.406250 0.968750
vt 0.546875 0.781250
vt 0.578125 0.968750
vt 0.546875 0.968750
vt 0.578125 0.781250
vt 0.578125 0.968750
vt 0.546875 0.781250
vt 0.578125 0.765625
vt 0.750000 0.781250
vt 0.750000 0.765625
vt 0.578125 0.781250
vt 0.750000 0.781250
vt 0.578125 0.765625
vt 0.406250 0.765625
vt 0.546875 0.781250
vt 0.546875 0.765625
vt 0.406250 0.781250
vt 0.546875 0.781250
vt 0.406250 0.765625
vt 0.578125 0.968750
vt 0.546875 1.000000
vt 0.578125 1.000000
vt 0.546875 0.968750
vt 0.546875 1.000000
vt 0.578125 0.968750
vt 0.546875 0.625000
vt 0.578125 0.656250
vt 0.578125 0.625000
vt 0.546875 0.656250
vt 0.578125 0.656250
vt 0.546875 0.625000
vt 0.578125 0.765625
vt 0.546875 0.781250
vt 0.578125 0.781250
vt 0.546875 0.765625
vt 0.546875 0.781250
vt 0.578125 0.765625
vt 0.546875 0.593750
vt 0.578125 0.765625
vt 0.578125 0.593750
vt 0.546875 0.765625
vt 0.578125 0.765625
vt 0.546875 0.593750
vt 0.750000 1.000000
vt 0.750000 0.015625
vt 0.671875 0.906250
vt 0.750000 1.000000
vt 0.671875 0.906250
vt 0.250000 1.000000
vt 0.250000 1.000000
vt 0.671875 0.906250
vt 0.328125 0.906250
vt 0.250000 1.000000
vt 0.328125 0.906250
vt 0.250000 0.015625
vt 0.671875 0.906250
vt 0.750000 0.015625
vt 0.671875 0.109375
vt 0.328125 0.906250
vt 0.328125 0.109375
vt 0.250000 0.015625
vt 0.671875 0.109375
vt 0.750000 0.015625
vt 0.328125 0.109375
vt 0.328125 0.109375
vt 0.750000 0.015625
vt 0.250000 0.015625
vt 0.666074 0.710884
vt 0.594008 0.536901
vt 0.840058 0.638818
vt 1.001677 0.286389
vt 1.001677 0.375163
vt 0.899760 0.286389
vt 1.001677 0.375163
vt 0.899760 0.375163
vt 0.899760 0.286389
vt 0.797842 0.286389
vt 0.797842 0.375163
vt 0.695925 0.286389
vt 0.797842 0.375163
vt 0.695925 0.375163
vt 0.695925 0.286389
vt 0.410243 0.131391
vt 0.410243 0.042617
vt 0.512160 0.131391
vt 0.410243 0.042617
vt 0.512160 0.042617
vt 0.512160 0.131391
vt 0.614078 0.131391
vt 0.614078 0.042617
vt 0.715995 0.131391
vt 0.614078 0.042617
vt 0.715995 0.042617
vt 0.715995 0.131391
vt 0.899760 0.286389
vt 0.899760 0.375163
vt 0.797842 0.286389
vt 0.899760 0.375163
vt 0.797842 0.375163
vt 0.797842 0.286389
vt 0.695925 0.286389
vt 0.695925 0.375163
vt 0.594008 0.286389
vt 0.695925 0.375163
vt 0.594008 0.375163
vt 0.594008 0.286389
vt 0.512160 0.131391
vt 0.512160 0.042617
vt 0.614078 0.131391
vt 0.512160 0.042617
vt 0.614078 0.042617
vt 0.614078 0.131391
vt 0.715995 0.131391
vt 0.715995 0.042617
vt 0.817912 0.131391
vt 0.715995 0.042617
vt 0.817912 0.042617
vt 0.817912 0.131391
vt 0.076576 0.469936
vt 0.002125 0.469936
vt 0.076576 0.338113
vt 0.002125 0.469936
vt 0.002125 0.338113
vt 0.076576 0.338113
vt 0.519109 0.263663
vt 0.076576 0.263663
vt 0.519109 0.131839
vt 0.076576 0.263663
vt 0.076576 0.131840
vt 0.519109 0.131839
vt 0.519109 0.338113
vt 0.076576 0.338113
vt 0.519109 0.263663
vt 0.076576 0.338113
vt 0.076576 0.263663
vt 0.519109 0.263663
vt 0.519109 0.469936
vt 0.519109 0.338113
vt 0.593559 0.469936
vt 0.519109 0.338113
vt 0.593560 0.338113
vt 0.593559 0.469936
vt 0.076576 0.338113
vt 0.519109 0.338113
vt 0.076576 0.469936
vt 0.519109 0.338113
vt 0.519109 0.469936
vt 0.076576 0.469936
vt 0.519109 0.469936
vt 0.519109 0.544387
vt 0.076576 0.469936
vt 0.519109 0.544387
vt 0.076576 0.544387
vt 0.076576 0.469936
vt 0.666074 0.464834
vt 0.767992 0.464834
vt 0.594008 0.536901
vt 0.840058 0.536901
vt 0.594008 0.536901
vt 0.767992 0.464834
vt 0.840058 0.638818
vt 0.594008 0.536901
vt 0.840058 0.536901
vt 0.767992 0.710884
vt 0.666074 0.710884
vt 0.840058 0.638818
vt 0.594008 0.638818
vt 0.594008 0.536901
vt 0.666074 0.710884
vt 0.594008 0.783399
vt 0.666074 0.957383
vt 0.840058 0.885317
vt 0.695925 0.375612
vt 0.594008 0.375612
vt 0.695925 0.464386
vt 0.594008 0.375612
vt 0.594008 0.464386
vt 0.695925 0.464386
vt 0.899760 0.375612
vt 0.797843 0.375612
vt 0.899760 0.464386
vt 0.797843 0.375612
vt 0.797843 0.464386
vt 0.899760 0.464386
vt 0.307877 0.131391
vt 0.409795 0.131391
vt 0.307877 0.042617
vt 0.409795 0.131391
vt 0.409795 0.042617
vt 0.307877 0.042617
vt 0.104043 0.131391
vt 0.205960 0.131391
vt 0.104042 0.042617
vt 0.205960 0.131391
vt 0.205960 0.042617
vt 0.104042 0.042617
vt 0.797843 0.375612
vt 0.695925 0.375612
vt 0.797843 0.464386
vt 0.695925 0.375612
vt 0.695925 0.464386
vt 0.797843 0.464386
vt 1.001677 0.375612
vt 0.899760 0.375612
vt 1.001677 0.464386
vt 0.899760 0.375612
vt 0.899760 0.464386
vt 1.001677 0.464386
vt 0.205960 0.131391
vt 0.307877 0.131391
vt 0.205960 0.042617
vt 0.307877 0.131391
vt 0.307877 0.042617
vt 0.205960 0.042617
vt 0.002125 0.131391
vt 0.104043 0.131391
vt 0.002125 0.042617
vt 0.104043 0.131391
vt 0.104042 0.042617
vt 0.002125 0.042617
vt 0.076576 0.882932
vt 0.076576 0.751109
vt 0.002125 0.882932
vt 0.076576 0.751109
vt 0.002125 0.751109
vt 0.002125 0.882932
vt 0.076576 0.751109
vt 0.519109 0.751109
vt 0.076576 0.676658
vt 0.593560 0.751109
vt 0.519109 0.751109
vt 0.593560 0.882932
vt 0.519109 0.751109
vt 0.519109 0.882932
vt 0.593560 0.882932
vt 0.203520 0.676659
vt 0.519109 0.676658
vt 0.203520 0.544835
vt 0.519109 0.676658
vt 0.519109 0.544835
vt 0.203520 0.544835
vt 0.203520 0.676659
vt 0.203520 0.544835
vt 0.076576 0.676658
vt 0.203520 0.544835
vt 0.076576 0.544835
vt 0.076576 0.676658
vt 0.519109 0.882932
vt 0.519109 0.751109
vt 0.076576 0.882932
vt 0.519109 0.751109
vt 0.076576 0.751109
vt 0.076576 0.882932
vt 0.767992 0.711333
vt 0.666074 0.711333
vt 0.594008 0.783399
vt 0.594008 0.783399
vt 0.840058 0.783399
vt 0.767992 0.711333
vt 0.594008 0.783399
vt 0.840058 0.885317
vt 0.840058 0.783399
vt 0.666074 0.957383
vt 0.767992 0.957383
vt 0.840058 0.885317
vt 0.594008 0.783399
vt 0.594008 0.885316
vt 0.666074 0.957383
vt 0.203520 0.957383
vt 0.519109 0.957383
vt 0.076576 0.957383
vt 0.000248 0.333086
vt 0.288707 0.000248
vt 0.000248 0.000248
vt 0.288707 0.333086
vt 0.288707 0.000248
vt 0.000248 0.333086
vt 0.333581 0.666419
vt 0.622040 0.333581
vt 0.333581 0.333581
vt 0.622040 0.666419
vt 0.622040 0.333581
vt 0.333581 0.666419
vt 0.289203 0.333085
vt 0.577662 0.000248
vt 0.289203 0.000248
vt 0.577662 0.333085
vt 0.577662 0.000248
vt 0.289203 0.333085
vt 0.866617 0.000248
vt 0.578158 0.333085
vt 0.866617 0.333085
vt 0.578158 0.000248
vt 0.578158 0.333085
vt 0.866617 0.000248
vt 0.622536 0.666419
vt 0.910995 0.333581
vt 0.622536 0.333581
vt 0.910995 0.666419
vt 0.910995 0.333581
vt 0.622536 0.666419
vt 0.000248 0.333581
vt 0.333085 0.622040
vt 0.333085 0.333581
vt 0.000248 0.622040
vt 0.333085 0.622040
vt 0.000248 0.333581
vt 0.000248 0.955374
vt 0.288707 0.622536
vt 0.000248 0.622536
vt 0.288707 0.955374
vt 0.288707 0.622536
vt 0.000248 0.955374
vt 0.333581 0.999752
vt 0.622040 0.666915
vt 0.333581 0.666915
vt 0.622040 0.999752
vt 0.622040 0.666915
vt 0.333581 0.999752

vn -1.000000 0.000000 0.000000
vn -1.000000 0.000000 0.000000
vn -1.000000 0.000000 0.000000
vn -1.000000 0.000000 0.000000
vn -1.000000 0.000000 0.000000
vn -1.000000 0.000000 0.000000
vn -1.000000 0.000000 0.000000
vn -1.000000 0.000000 0.000000
vn -1.000000 0.000000 0.000000
vn -1.000000 0.000000 0.000000
vn -1.000000 0.000000 0.000000
vn -1.000000 0.000000 0.000000
vn 1.000000 0.000000 0.000000
vn 1.000000 0.000000 0.000000
vn 1.000000 0.000000 0.000000
vn 1.000000 0.000000 0.000000
vn 1.000000 0.000000 0.000000
vn 1.000000 0.000000 0.000000
vn 1.000000 0.000000 0.000000
vn 1.000000 0.000000 0.000000
vn 1.000000 0.000000 0.000000
vn 1.000000 0.000000 0.000000
vn 1.000000 0.000000 0.000000
vn 1.000000 0.000000 0.000000
vn -0.000000 1.000000 0.000000
vn -0.000000 1.000000 0.000000
vn -0.000000 1.000000 0.000000
vn -0.000000 1.000000 0.000000
vn -0.000000 1.000000 0.000000
vn -0.000000 1.000000 0.000000
vn -0.000000 -1.000000 0.000000
vn -0.000000 -1.000000 0.000000
vn -0.000000 -1.000000 0.000000
vn -0.000000 -1.000000 0.000000
vn -0.000000 -1.000000 0.000000
vn -0.000000 -1.000000 0.000000
vn -0.000000 -1.000000 0.000000
vn -0.000000 -1.000000 0.000000
vn -0.000000 -1.000000 0.000000
vn -0.000000 -1.000000 0.000000
vn -0.000000 -1.000000 0.000000
vn -0.000000 -1.000000 0.000000
vn -0.000000 1.000000 0.000000
vn -0.000000 1.000000 0.000000
vn -0.000000 1.000000 0.000000
vn -0.000000 1.000000 0.000000
vn -0.000000 1.000000 0.000000
vn -0.000000 1.000000 0.000000
vn -0.000000 1.000000 0.000000
vn -0.000000 1.000000 0.000000
vn -0.000000 1.000000 0.000000
vn -0.000000 1.000000 0.000000
vn -0.000000 1.000000 0.000000
vn -0.000000 1.000000 0.000000
vn -0.000000 1.000000 0.000000
vn -0.000000 1.000000 0.000000
vn -0.000000 1.000000 0.000000
vn -0.000000 1.000000 0.000000
vn -0.000000 1.000000 0.000000
vn -0.000000 1.000000 0.000000
vn -0.000000 1.000000 0.000000
vn -0.000000 1.000000 0.000000
vn -0.000000 1.000000 0.000000
vn -0.000000 1.000000 -0.000001
vn -0.000000 1.000000 -0.000001
vn -0.000000 1.000000 -0.000001
vn -0.000000 -1.000000 0.000000
vn -0.000000 -1.000000 0.000000
vn -0.000000 -1.000000 0.000000
vn -0.000000 -1.000000 0.000000
vn -0.000000 -1.000000 0.000000
vn -0.000000 -1.000000 0.000000
vn -0.000000 -1.000000 0.000000
vn -0.000000 -1.000000 0.000000
vn -0.000000 -1.000000 0.000000
vn -0.000000 -1.000000 0.000000
vn -0.000000 -1.000000 0.000000
vn -0.000000 -1.000000 0.000000
vn -0.000000 -1.000000 0.000000
vn -0.000000 -1.000000 0.000000
vn -0.000000 -1.000000 0.000000
vn -0.000000 -1.000000 0.000000
vn -0.000000 -1.000000 0.000000
vn -0.000000 -1.000000 0.000000
vn -0.000000 1.000000 0.000000
vn -0.000000 1.000000 0.000000
vn -0.000000 1.000000 0.000000
vn -0.000000 1.000000 0.000000
vn -0.000000 1.000000 0.000000
vn -0.000000 1.000000 0.000000
vn -0.000000 1.000000 0.000001
vn -0.000000 1.000000 0.000001
vn -0.000000 1.000000 0.000001
vn -0.000000 1.000000 0.000000
vn -0.000000 1.000000 0.000000
vn -0.000000 1.000000 0.000000
vn 0.000000 1.000000 -0.000001
vn 0.000000 1.000000 -0.000001
vn 0.000000 1.000000 -0.000001
vn -0.000000 1.000000 0.000000
vn -0.000000 1.000000 0.000000
vn -0.000000 1.000000 0.000000
vn -0.000000 -1.000000 0.000000
vn -0.000000 -1.000000 0.000000
vn -0.000000 -1.000000 0.000000
vn -0.000000 -1.000000 0.000000
vn -0.000000 -1.000000 0.000000
vn -0.000000 -1.000000 0.000000
vn -0.000000 -1.000000 0.000000
vn -0.000000 -1.000000 0.000000
vn -0.000000 -1.000000 0.000000
vn -0.000000 -1.000000 0.000000
vn -0.000000 -1.000000 0.000000
vn -0.000000 -1.000000 0.000000
vn -0.000000 -1.000000 0.000000
vn -0.000000 -1.000000 0.000000
vn -0.000000 -1.000000 0.000000
vn -0.000000 -1.000000 0.000000
vn -0.000000 -1.000000 0.000000
vn -0.000000 -1.000000 0.000000
vn -1.000000 0.000000 0.000000
vn -1.000000 0.000000 0.000000
vn -1.000000 0.000000 0.000000
vn -1.000000 0.000000 0.000000
vn -1.000000 0.000000 0.000000
vn -1.000000 0.000000 0.000000
vn 1.000000 0.000000 0.000000
vn 1.000000 0.000000 0.000000
vn 1.000000 0.000000 0.000000
vn 1.000000 0.000000 0.000000
vn 1.000000 0.000000 0.000000
vn 1.000000 0.000000 0.000000
vn -1.000000 0.000000 0.000000
vn -1.000000 0.000000 0.000000
vn -1.000000 0.000000 0.000000
vn -1.000000 0.000000 0.000000
vn -1.000000 0.000000 0.000000
vn -1.000000 0.000000 0.000000
vn 1.000000 0.000000 0.000000
vn 1.000000 0.000000 0.000000
vn 1.000000 0.000000 0.000000
vn 1.000000 0.000000 0.000000
vn 1.000000 0.000000 0.000000
vn 1.000000 0.000000 0.000000
vn -1.000000 0.000000 0.000000
vn -1.000000 0.000000 0.000000
vn -1.000000 0.000000 0.000000
vn -1.000000 0.000000 0.000000
vn -1.000000 0.000000 0.000000
vn -1.000000 0.000000 0.000000
vn 1.000000 0.000000 0.000000
vn 1.000000 0.000000 0.000000
vn 1.000000 0.000000 0.000000
vn 1.000000 0.000000 0.000000
vn 1.000000 0.000000 0.000000
vn 1.000000 0.000000 0.000000
vn -1.000000 0.000000 0.000000
vn -1.000000 0.000000 0.000000
vn -1.000000 0.000000 0.000000
vn -1.000000 0.000000 0.000000
vn -1.000000 0.000000 0.000000
vn -1.000000 0.000000 0.000000
vn 1.000000 0.000000 0.000000
vn 1.000000 0.000000 0.000000
vn 1.000000 0.000000 0.000000
vn 1.000000 0.000000 0.000000
vn 1.000000 0.000000 0.000000
vn 1.000000 0.000000 0.000000
vn -0.000000 0.000000 -1.000000
vn -0.000000 0.000000 -1.000000
vn -0.000000 0.000000 -1.000000
vn -0.000000 0.000000 -1.000000
vn -0.000000 0.000000 -1.000000
vn -0.000000 0.000000 -1.000000
vn -0.000000 0.000000 -1.000000
vn -0.000000 0.000000 -1.000000
vn -0.000000 0.000000 -1.000000
vn -0.000000 0.000000 -1.000000
vn -0.000000 0.000000 -1.000000
vn -0.000000 0.000000 -1.000000
vn -0.000000 0.000000 -1.000000
vn -0.000000 0.000000 -1.000000
vn -0.000000 0.000000 -1.000000
vn -0.000000 0.000000 -1.000000
vn -0.000000 0.000000 -1.000000
vn -0.000000 0.000000 -1.000000
vn -0.000000 0.000000 -1.000000
vn -0.000000 0.000000 -1.000000
vn -0.000000 0.000000 -1.000000
vn -0.000000 0.000000 -1.000000
vn -0.000000 0.000000 -1.000000
vn -0.000000 0.000000 -1.000000
vn -0.000000 0.000000 -1.000000
vn -0.000000 0.000000 -1.000000
vn -0.000000 0.000000 -1.000000
vn -0.000000 0.000000 -1.000000
vn -0.000000 0.000000 -1.000000
vn -0.000000 0.000000 -1.000000
vn -0.000000 0.000000 -1.000000
vn -0.000000 0.000000 -1.000000
vn -0.000000 0.000000 -1.000000
vn -0.000000 0.000000 -1.000000
vn -0.000000 0.000000 -1.000000
vn -0.000000 0.000000 -1.000000
vn -0.000000 0.000000 -1.000000
vn -0.000000 0.000000 -1.000000
vn -0.000000 0.000000 -1.000000
vn -0.000000 0.000000 -1.000000
vn -0.000000 0.000000 -1.000000
vn -0.000000 0.000000 -1.000000
vn -0.000000 0.000000 -1.000000
vn -0.000000 0.000000 -1.000000
vn -0.000000 0.000000 -1.000000
vn -0.000000 0.000000 -1.000000
vn -0.000000 0.000000 -1.000000
vn -0.000000 0.000000 -1.000000
vn -0.000000 0.000000 -1.000000
vn -0.000000 0.000000 -1.000000
vn -0.000000 0.000000 -1.000000
vn -0.000000 0.000000 -1.000000
vn -0.000000 0.000000 -1.000000
vn -0.000000 0.000000 -1.000000
vn -0.000000 0.000000 -1.000000
vn -0.000000 0.000000 -1.000000
vn -0.000000 0.000000 -1.000000
vn -0.000000 0.000000 -1.000000
vn -0.000000 0.000000 -1.000000
vn -0.000000 0.000000 -1.000000
vn -0.000000 -0.000000 -1.000000
vn -0.000000 -0.000000 -1.000000
vn -0.000000 -0.000000 -1.000000
vn -0.000000 0.000000 -1.000000
vn -0.000000 0.000000 -1.000000
vn -0.000000 0.000000 -1.000000
vn -0.000000 0.000000 -1.000000
vn -0.000000 0.000000 -1.000000
vn -0.000000 0.000000 -1.000000
vn -0.000000 0.000000 -1.000000
vn -0.000000 0.000000 -1.000000
vn -0.000000 0.000000 -1.000000
vn -0.000000 0.000000 -1.000000
vn -0.000000 0.000000 -1.000000
vn -0.000000 0.000000 -1.000000
vn -0.000000 0.000000 -1.000000
vn -0.000000 0.000000 -1.000000
vn -0.000000 0.000000 -1.000000
vn -0.000000 0.000000 -1.000000
vn -0.000000 0.000000 -1.000000
vn -0.000000 0.000000 -1.000000
vn -0.000000 -0.000000 -1.000000
vn -0.000000 -0.000000 -1.000000
vn -0.000000 -0.000000 -1.000000
vn -0.000000 0.000000 -1.000000
vn -0.000000 0.000000 -1.000000
vn -0.000000 0.000000 -1.000000
vn -0.000000 0.000000 -1.000000
vn -0.000000 0.000000 -1.000000
vn -0.000000 0.000000 -1.000000
vn -0.000000 0.000000 -1.000000
vn -0.000000 0.000000 -1.000000
vn -0.000000 0.000000 -1.000000
vn -0.000000 0.000000 -1.000000
vn -0.000000 0.000000 -1.000000
vn -0.000000 0.000000 -1.000000
vn -0.000000 -0.000000 -1.000000
vn -0.000000 -0.000000 -1.000000
vn -0.000000 -0.000000 -1.000000
vn -0.000000 0.000000 -1.000000
vn -0.000000 0.000000 -1.000000
vn -0.000000 0.000000 -1.000000
vn -0.000000 0.000000 1.000000
vn -0.000000 0.000000 1.000000
vn -0.000000 0.000000 1.000000
vn -0.000000 0.000000 1.000000
vn -0.000000 0.000000 1.000000
vn -0.000000 0.000000 1.000000
vn -0.000000 0.000000 1.000000
vn -0.000000 0.000000 1.000000
vn -0.000000 0.000000 1.000000
vn -0.000000 0.000000 1.000000
vn -0.000000 0.000000 1.000000
vn -0.000000 0.000000 1.000000
vn -0.000000 0.000000 1.000000
vn -0.000000 0.000000 1.000000
vn -0.000000 0.000000 1.000000
vn -0.000000 0.000000 1.000000
vn -0.000000 0.000000 1.000000
vn -0.000000 0.000000 1.000000
vn -0.000000 0.000000 1.000000
vn -0.000000 0.000000 1.000000
vn -0.000000 0.000000 1.000000
vn -0.000000 0.000000 1.000000
vn -0.000000 0.000000 1.000000
vn -0.000000 0.000000 1.000000
vn -0.000000 0.000000 1.000000
vn -0.000000 0.000000 1.000000
vn -0.000000 0.000000 1.000000
vn -0.000000 0.000000 1.000000
vn -0.000000 0.000000 1.000000
vn -0.000000 0.000000 1.000000
vn -0.000000 0.000000 1.000000
vn -0.000000 0.000000 1.000000
vn -0.000000 0.000000 1.000000
vn -0.000000 0.000000 1.000000
vn -0.000000 0.000000 1.000000
vn -0.000000 0.000000 1.000000
vn -0.000000 0.000000 -1.000000
vn -0.000000 0.000000 -1.000000
vn -0.000000 0.000000 -1.000000
vn -0.000000 0.000000 -1.000000
vn -0.000000 0.000000 -1.000000
vn -0.000000 0.000000 -1.000000
vn -0.000000 0.000000 1.000000
vn -0.000000 0.000000 1.000000
vn -0.000000 0.000000 1.000000
vn -0.000000 0.000000 1.000000
vn -0.000000 0.000000 1.000000
vn -0.000000 0.000000 1.000000
vn -0.000000 0.000000 1.000000
vn -0.000000 0.000000 1.000000
vn -0.000000 0.000000 1.000000
vn -0.000000 0.000000 1.000000
vn -0.000000 0.000000 1.000000
vn -0.000000 0.000000 1.000000
vn -0.000000 0.000000 1.000000
vn -0.000000 0.000000 1.000000
vn -0.000000 0.000000 1.000000
vn -0.000000 0.000000 1.000000
vn -0.000000 0.000000 1.000000
vn -0.000000 0.000000 1.000000
vn -0.000000 0.000000 1.000000
vn -0.000000 0.000000 1.000000
vn -0.000000 0.000000 1.000000
vn -0.000000 -0.000000 1.000000
vn -0.000000 -0.000000 1.000000
vn -0.000000 -0.000000 1.000000
vn -0.000000 0.000000 1.000000
vn -0.000000 0.000000 1.000000
vn -0.000000 0.000000 1.000000
vn -0.000000 0.000000 1.000000
vn -0.000000 0.000000 1.000000
vn -0.000000 0.000000 1.000000
vn -0.000000 0.000000 1.000000
vn -0.000000 0.000000 1.000000
vn -0.000000 0.000000 1.000000
vn -0.000000 0.000000 1.000000
vn -0.000000 0.000000 1.000000
vn -0.000000 0.000000 1.000000
vn -0.000000 0.000000 1.000000
vn -0.000000 0.000000 1.000000
vn -0.000000 0.000000 1.000000
vn -0.000000 0.000000 1.000000
vn -0.000000 0.000000 1.000000
vn -0.000000 0.000000 1.000000
vn -0.000000 0.000000 1.000000
vn -0.000000 0.000000 1.000000
vn -0.000000 0.000000 1.000000
vn -0.000000 0.000000 1.000000
vn -0.000000 0.000000 1.000000
vn -0.000000 0.000000 1.000000
vn -0.000000 0.000000 1.000000
vn -0.000000 0.000000 1.000000
vn -0.000000 0.000000 1.000000
vn -0.000000 0.000000 1.000000
vn -0.000000 0.000000 1.000000
vn -0.000000 0.000000 1.000000
vn -0.000000 -0.000000 1.000000
vn -0.000000 -0.000000 1.000000
vn -0.000000 -0.000000 1.000000
vn -0.000000 0.000000 1.000000
vn -0.000000 0.000000 1.000000
vn -0.000000 0.000000 1.000000
vn -0.000000 0.000000 -1.000000
vn -0.000000 0.000000 -1.000000
vn -0.000000 0.000000 -1.000000
vn -0.382685 0.923879 0.000000
vn -0.382685 0.923879 0.000000
vn -0.382685 0.923879 0.000000
vn -0.382683 0.923880 0.000000
vn -0.382683 0.923880 0.000000
vn -0.382683 0.923880 0.000000
vn -0.923880 -0.382683 0.000000
vn -0.923880 -0.382683 0.000000
vn -0.923880 -0.382683 0.000000
vn -0.923880 -0.382684 0.000000
vn -0.923880 -0.382684 0.000000
vn -0.923880 -0.382684 0.000000
vn 0.382683 -0.923880 0.000000
vn 0.382683 -0.923880 0.000000
vn 0.382683 -0.923880 0.000000
vn 0.382683 -0.923880 0.000000
vn 0.382683 -0.923880 0.000000
vn 0.382683 -0.923880 0.000000
vn 0.923879 0.382684 0.000000
vn 0.923879 0.382684 0.000000
vn 0.923879 0.382684 0.000000
vn 0.923879 0.382684 0.000000
vn 0.923879 0.382684 0.000000
vn 0.923879 0.382684 0.000000
vn -0.923880 0.382683 0.000000
vn -0.923880 0.382683 0.000000
vn -0.923880 0.382683 0.000000
vn -0.923880 0.382683 0.000000
vn -0.923880 0.382683 0.000000
vn -0.923880 0.382683 0.000000
vn -0.382683 -0.923880 0.000000
vn -0.382683 -0.923880 0.000000
vn -0.382683 -0.923880 0.000000
vn -0.382683 -0.923880 0.000000
vn -0.382683 -0.923880 0.000000
vn -0.382683 -0.923880 0.000000
vn 0.923879 -0.382684 0.000000
vn 0.923879 -0.382684 0.000000
vn 0.923879 -0.382684 0.000000
vn 0.923879 -0.382684 0.000000
vn 0.923879 -0.382684 0.000000
vn 0.923879 -0.382684 0.000000
vn 0.382683 0.923880 0.000000
vn 0.382683 0.923880 0.000000
vn 0.382683 0.923880 0.000000
vn 0.382685 0.923879 0.000000
vn 0.382685 0.923879 0.000000
vn 0.382685 0.923879 0.000000
vn 1.000000 0.000000 0.000000
vn 1.000000 0.000000 0.000000
vn 1.000000 0.000000 0.000000
vn 1.000000 0.000000 0.000000
vn 1.000000 0.000000 0.000000
vn 1.000000 0.000000 0.000000
vn -0.000000 0.000000 1.000000
vn -0.000000 0.000000 1.000000
vn -0.000000 0.000000 1.000000
vn -0.000000 0.000000 1.000000
vn -0.000000 0.000000 1.000000
vn -0.000000 0.000000 1.000000
vn -0.000000 -1.000000 0.000000
vn -0.000000 -1.000000 0.000000
vn -0.000000 -1.000000 0.000000
vn -0.000000 -1.000000 0.000000
vn -0.000000 -1.000000 0.000000
vn -0.000000 -1.000000 0.000000
vn -1.000000 0.000000 0.000000
vn -1.000000 0.000000 0.000000
vn -1.000000 0.000000 0.000000
vn -1.000000 0.000000 0.000000
vn -1.000000 0.000000 0.000000
vn -1.000000 0.000000 0.000000
vn -0.000000 0.000000 -1.000000
vn -0.000000 0.000000 -1.000000
vn -0.000000 0.000000 -1.000000
vn -0.000000 0.000000 -1.000000
vn -0.000000 0.000000 -1.000000
vn -0.000000 0.000000 -1.000000
vn -0.000000 1.000000 0.000000
vn -0.000000 1.000000 0.000000
vn -0.000000 1.000000 0.000000
vn -0.000000 1.000000 0.000000
vn -0.000000 1.000000 0.000000
vn -0.000000 1.000000 0.000000
vn -0.000000 0.000000 -1.000000
vn -0.000000 0.000000 -1.000000
vn -0.000000 0.000000 -1.000000
vn -0.000000 0.000000 -1.000000
vn -0.000000 0.000000 -1.000000
vn -0.000000 0.000000 -1.000000
vn -0.000000 0.000000 -1.000000
vn -0.000000 0.000000 -1.000000
vn -0.000000 0.000000 -1.000000
vn -0.000000 0.000000 -1.000000
vn -0.000000 0.000000 -1.000000
vn -0.000000 0.000000 -1.000000
vn -0.000000 0.000000 -1.000000
vn -0.000000 0.000000 -1.000000
vn -0.000000 0.000000 -1.000000
vn -0.000000 0.000000 1.000000
vn -0.000000 0.000000 1.000000
vn -0.000000 0.000000 1.000000
vn -0.382683 0.923880 0.000000
vn -0.382683 0.923880 0.000000
vn -0.382683 0.923880 0.000000
vn -0.382685 0.923879 0.000000
vn -0.382685 0.923879 0.000000
vn -0.382685 0.923879 0.000000
vn -0.923880 -0.382684 0.000000
vn -0.923880 -0.382684 0.000000
vn -0.923880 -0.382684 0.000000
vn -0.923880 -0.382684 0.000000
vn -0.923880 -0.382684 0.000000
vn -0.923880 -0.382684 0.000000
vn 0.382683 -0.923880 0.000000
vn 0.382683 -0.923880 0.000000
vn 0.382683 -0.923880 0.000000
vn 0.382683 -0.923880 0.000000
vn 0.382683 -0.923880 0.000000
vn 0.382683 -0.923880 0.000000
vn 0.923879 0.382684 0.000000
vn 0.923879 0.382684 0.000000
vn 0.923879 0.382684 0.000000
vn 0.923879 0.382684 0.000000
vn 0.923879 0.382684 0.000000
vn 0.923879 0.382684 0.000000
vn -0.923880 0.382683 0.000000
vn -0.923880 0.382683 0.000000
vn -0.923880 0.382683 0.000000
vn -0.923880 0.382684 0.000000
vn -0.923880 0.382684 0.000000
vn -0.923880 0.382684 0.000000
vn -0.382683 -0.923880 0.000000
vn -0.382683 -0.923880 0.000000
vn -0.382683 -0.923880 0.000000
vn -0.382683 -0.923880 0.000000
vn -0.382683 -0.923880 0.000000
vn -0.382683 -0.923880 0.000000
vn 0.923879 -0.382684 0.000000
vn 0.923879 -0.382684 0.000000
vn 0.923879 -0.382684 0.000000
vn 0.923879 -0.382684 0.000000
vn 0.923879 -0.382684 0.000000
vn 0.923879 -0.382684 0.000000
vn 0.382685 0.923879 0.000000
vn 0.382685 0.923879 0.000000
vn 0.382685 0.923879 0.000000
vn 0.382683 0.923880 0.000000
vn 0.382683 0.923880 0.000000
vn 0.382683 0.923880 0.000000
vn 1.000000 0.000000 0.000000
vn 1.000000 0.000000 0.000000
vn 1.000000 0.000000 0.000000
vn 1.000000 0.000000 0.000000
vn 1.000000 0.000000 0.000000
vn 1.000000 0.000000 0.000000
vn -0.000000 -1.000000 0.000000
vn -0.000000 -1.000000 0.000000
vn -0.000000 -1.000000 0.000000
vn -1.000000 0.000000 0.000000
vn -1.000000 0.000000 0.000000
vn -1.000000 0.000000 0.000000
vn -1.000000 0.000000 0.000000
vn -1.000000 0.000000 0.000000
vn -1.000000 0.000000 0.000000
vn -0.000000 0.000000 -1.000000
vn -0.000000 0.000000 -1.000000
vn -0.000000 0.000000 -1.000000
vn -0.000000 0.000000 -1.000000
vn -0.000000 0.000000 -1.000000
vn -0.000000 0.000000 -1.000000
vn -0.000000 0.000000 -1.000000
vn -0.000000 0.000000 -1.000000
vn -0.000000 0.000000 -1.000000
vn -0.000000 0.000000 -1.000000
vn -0.000000 0.000000 -1.000000
vn -0.000000 0.000000 -1.000000
vn -0.000000 0.000000 1.000000
vn -0.000000 0.000000 1.000000
vn -0.000000 0.000000 1.000000
vn -0.000000 0.000000 1.000000
vn -0.000000 0.000000 1.000000
vn -0.000000 0.000000 1.000000
vn -0.000000 -0.000000 1.000000
vn -0.000000 -0.000000 1.000000
vn -0.000000 -0.000000 1.000000
vn -0.000000 0.000000 1.000000
vn -0.000000 0.000000 1.000000
vn -0.000000 0.000000 1.000000
vn -0.000000 -0.000000 1.000000
vn -0.000000 -0.000000 1.000000
vn -0.000000 -0.000000 1.000000
vn -0.000000 0.000000 1.000000
vn -0.000000 0.000000 1.000000
vn -0.000000 0.000000 1.000000
vn -0.000000 0.000000 1.000000
vn -0.000000 0.000000 1.000000
vn -0.000000 0.000000 1.000000
vn -0.000000 1.000000 0.000000
vn -0.000000 1.000000 0.000000
vn -0.000000 1.000000 0.000000
vn -0.000000 0.000000 -1.000000
vn -0.000000 0.000000 -1.000000
vn -0.000000 0.000000 -1.000000
vn -0.000000 -0.000000 -1.000000
vn -0.000000 -0.000000 -1.000000
vn -0.000000 -0.000000 -1.000000
vn -0.000000 0.000000 -1.000000
vn -0.000000 0.000000 -1.000000
vn -0.000000 0.000000 -1.000000
vn -0.000000 -0.000000 -1.000000
vn -0.000000 -0.000000 -1.000000
vn -0.000000 -0.000000 -1.000000
vn -0.000000 0.000000 -1.000000
vn -0.000000 0.000000 -1.000000
vn -0.000000 0.000000 -1.000000
vn -0.000000 -0.000000 -1.000000
vn -0.000000 -0.000000 -1.000000
vn -0.000000 -0.000000 -1.000000
vn -0.000000 0.000000 -1.000000
vn -0.000000 0.000000 -1.000000
vn -0.000000 0.000000 -1.000000
vn -0.000000 -0.000000 -1.000000
vn -0.000000 -0.000000 -1.000000
vn -0.000000 -0.000000 -1.000000
vn -0.000000 0.000000 -1.000000
vn -0.000000 0.000000 -1.000000
vn -0.000000 0.000000 -1.000000
vn -0.000000 0.000000 -1.000000
vn -0.000000 0.000000 -1.000000
vn -0.000000 0.000000 -1.000000
vn -0.000000 0.000000 -1.000000
vn -0.000000 0.000000 -1.000000
vn -0.000000 0.000000 -1.000000
vn -0.000000 0.000000 -1.000000
vn -0.000000 0.000000 -1.000000
vn -0.000000 0.000000 -1.000000
vn -0.000000 0.000000 -1.000000
vn -0.000000 0.000000 -1.000000
vn -0.000000 0.000000 -1.000000
vn -0.000000 0.000000 -1.000000
vn -0.000000 0.000000 -1.000000
vn -0.000000 0.000000 -1.000000
vn -0.000000 0.000000 -1.000000
vn -0.000000 0.000000 -1.000000
vn -0.000000 0.000000 -1.000000
vn -0.000000 0.000000 -1.000000
vn -0.000000 0.000000 -1.000000
vn -0.000000 0.000000 -1.000000

g Material.001
f 3/1/1 1/2/2 2/3/3
f 4/4/4 1/5/5 3/6/6
f 7/7/7 5/8/8 6/9/9
f 8/10/10 5/11/11 7/12/12
f 11/13/13 9/14/14 10/15/15
f 12/16/16 9/17/17 11/18/18
f 15/19/19 13/20/20 14/21/21
f 16/22/22 13/23/23 15/24/24
f 19/25/25 17/26/26 18/27/27
f 20/28/28 17/29/29 19/30/30
f 227/31/31 225/32/32 226/33/33
f 228/34/34 225/35/35 227/36/36
f 231/37/37 229/38/38 230/39/39
f 232/40/40 229/41/41 231/42/42
f 235/43/43 233/44/44 234/45/45
f 236/46/46 233/47/47 235/48/48
f 239/49/49 237/50/50 238/51/51
f 240/52/52 237/53/53 239/54/54
f 243/55/55 241/56/56 242/57/57
f 244/58/58 241/59/59 243/60/60
f 247/61/61 245/62/62 246/63/63
f 248/64/64 245/65/65 247/66/66
f 251/67/67 249/68/68 250/69/69
f 252/70/70 249/71/71 251/72/72
f 255/73/73 253/74/74 254/75/75
f 256/76/76 253/77/77 255/78/78
f 259/79/79 257/80/80 258/81/81
f 260/82/82 257/83/83 259/84/84
f 263/85/85 261/86/86 262/87/87
f 264/88/88 261/89/89 263/90/90
f 267/91/91 265/92/92 266/93/93
f 268/94/94 265/95/95 267/96/96
f 271/97/97 269/98/98 270/99/99
f 272/100/100 269/101/101 271/102/102
f 275/103/103 273/104/104 274/105/105
f 276/106/106 273/107/107 275/108/108
f 279/109/109 277/110/110 278/111/111
f 280/112/112 277/113/113 279/114/114
f 283/115/115 281/116/116 282/117/117
f 284/118/118 281/119/119 283/120/120
f 287/121/121 285/122/122 286/123/123
f 288/124/124 285/125/125 287/126/126
f 291/127/127 289/128/128 290/129/129
f 292/130/130 289/131/131 291/132/132
f 295/133/133 293/134/134 294/135/135
f 296/136/136 293/137/137 295/138/138
f 299/139/139 297/140/140 298/141/141
f 300/142/142 297/143/143 299/144/144
f 303/145/145 301/146/146 302/147/147
f 304/148/148 301/149/149 303/150/150
f 307/151/151 305/152/152 306/153/153
f 308/154/154 305/155/155 307/156/156
f 311/157/157 309/158/158 310/159/159
f 312/160/160 309/161/161 311/162/162
f 315/163/163 313/164/164 314/165/165
f 316/166/166 313/167/167 315/168/168
f 319/169/169 317/170/170 318/171/171
f 320/172/172 317/173/173 319/174/174
f 323/175/175 321/176/176 322/177/177
f 324/178/178 321/179/179 323/180/180
f 327/181/181 325/182/182 326/183/183
f 328/184/184 325/185/185 327/186/186
f 331/187/187 329/188/188 330/189/189
f 332/190/190 329/191/191 331/192/192
f 335/193/193 333/194/194 334/195/195
f 336/196/196 333/197/197 335/198/198
f 339/199/199 337/200/200 338/201/201
f 340/202/202 337/203/203 339/204/204
f 343/205/205 341/206/206 342/207/207
f 344/208/208 341/209/209 343/210/210
f 347/211/211 345/212/212 346/213/213
f 348/214/214 345/215/215 347/216/216
f 351/217/217 349/218/218 350/219/219
f 352/220/220 349/221/221 351/222/222
f 355/223/223 353/224/224 354/225/225
f 356/226/226 353/227/227 355/228/228
f 359/229/229 357/230/230 358/231/231
f 360/232/232 357/233/233 359/234/234
f 363/235/235 361/236/236 362/237/237
f 364/238/238 361/239/239 363/240/240
f 367/241/241 365/242/242 366/243/243
f 368/244/244 365/245/245 367/246/246
f 371/247/247 369/248/248 370/249/249
f 374/250/250 372/251/251 373/252/252
f 377/253/253 375/254/254 376/255/255
f 380/256/256 378/257/257 379/258/258
f 383/259/259 381/260/260 382/261/261
f 386/262/262 384/263/263 385/264/264
f 389/265/265 387/266/266 388/267/267
f 392/268/268 390/269/269 391/270/270
f 395/271/271 393/272/272 394/273/273
f 396/274/274 393/275/275 395/276/276
f 399/277/277 397/278/278 398/279/279
f 400/280/280 397/281/281 399/282/282
f 403/283/283 401/284/284 402/285/285
f 404/286/286 401/287/287 403/288/288
f 407/289/289 405/290/290 406/291/291
f 408/292/292 405/293/293 407/294/294
f 411/295/295 409/296/296 410/297/297
f 412/298/298 409/299/299 411/300/300
f 415/301/301 413/302/302 414/303/303
f 416/304/304 413/305/305 415/306/306
f 419/307/307 417/308/308 418/309/309
f 420/310/310 417/311/311 419/312/312
f 423/313/313 421/314/314 422/315/315
f 424/316/316 421/317/317 423/318/318
f 427/319/319 425/320/320 426/321/321
f 428/322/322 425/323/323 427/324/324
f 431/325/325 429/326/326 430/327/327
f 432/328/328 429/329/329 431/330/330
f 435/331/331 433/332/332 434/333/333
f 436/334/334 433/335/335 435/336/336
f 439/337/337 437/338/338 438/339/339
f 440/340/340 437/341/341 439/342/342
f 443/343/343 441/344/344 442/345/345
f 444/346/346 441/347/347 443/348/348
f 447/349/349 445/350/350 446/351/351
f 450/352/352 448/353/353 449/354/354
f 453/355/355 451/356/356 452/357/357
f 456/358/358 454/359/359 455/360/360
f 459/361/361 457/362/362 458/363/363
f 462/364/364 460/365/365 461/366/366
f 465/367/367 463/368/368 464/369/369
f 468/370/370 466/371/371 467/372/372

g Material.002
f 23/373/373 21/374/374 22/375/375
f 26/376/376 24/377/377 25/378/378
f 29/379/379 27/380/380 28/381/381
f 32/382/382 30/383/383 31/384/384
f 35/385/385 33/386/386 34/387/387
f 38/388/388 36/389/389 37/390/390
f 41/391/391 39/392/392 40/393/393
f 44/394/394 42/395/395 43/396/396
f 47/397/397 45/398/398 46/399/399
f 50/400/400 48/401/401 49/402/402
f 53/403/403 51/404/404 52/405/405
f 56/406/406 54/407/407 55/408/408
f 59/409/409 57/410/410 58/411/411
f 62/412/412 60/413/413 61/414/414
f 65/415/415 63/416/416 64/417/417
f 68/418/418 66/419/419 67/420/420
f 71/421/421 69/422/422 70/423/423
f 74/424/424 72/425/425 73/426/426
f 77/427/427 75/428/428 76/429/429
f 80/430/430 78/431/431 79/432/432
f 83/433/433 81/434/434 82/435/435
f 86/436/436 84/437/437 85/438/438
f 89/439/439 87/440/440 88/441/441
f 92/442/442 90/443/443 91/444/444
f 95/445/445 93/446/446 94/447/447
f 98/448/448 96/449/449 97/450/450
f 101/451/451 99/452/452 100/453/453
f 104/454/454 102/455/455 103/456/456
f 107/457/457 105/458/458 106/459/459
f 110/460/460 108/461/461 109/462/462
f 113/463/463 111/464/464 112/465/465
f 116/466/466 114/467/467 115/468/468
f 119/469/469 117/470/470 118/471/471
f 122/472/472 120/473/473 121/474/474
f 125/475/475 123/476/476 124/477/477
f 128/478/478 126/479/479 127/480/480
f 131/481/481 129/482/482 130/483/483
f 134/484/484 132/485/485 133/486/486
f 137/487/487 135/488/488 136/489/489
f 140/490/490 138/491/491 139/492/492
f 143/493/493 141/494/494 142/495/495
f 146/496/496 144/497/497 145/498/498
f 149/499/499 147/500/500 148/501/501
f 152/502/502 150/503/503 151/504/504
f 155/505/505 153/506/506 154/507/507
f 158/508/508 156/509/509 157/510/510
f 161/511/511 159/512/512 160/513/513
f 164/514/514 162/515/515 163/516/516
f 167/517/517 165/518/518 166/519/519
f 170/520/520 168/521/521 169/522/522
f 173/523/523 171/524/524 172/525/525
f 176/526/526 174/527/527 175/528/528
f 179/529/529 177/530/530 178/531/531
f 182/532/532 180/533/533 181/534/534
f 185/535/535 183/536/536 184/537/537
f 188/538/538 186/539/539 187/540/540
f 191/541/541 189/542/542 190/543/543
f 194/544/544 192/545/545 193/546/546
f 197/547/547 195/548/548 196/549/549
f 200/550/550 198/551/551 199/552/552
f 203/553/553 201/554/554 202/555/555
f 206/556/556 204/557/557 205/558/558
f 209/559/559 207/560/560 208/561/561
f 212/562/562 210/563/563 211/564/564
f 215/565/565 213/566/566 214/567/567
f 218/568/568 216/569/569 217/570/570
f 221/571/571 219/572/572 220/573/573
f 224/574/574 222/575/575 223/576/576

g Material
f 471/577/577 469/578/578 470/579/579
f 472/580/580 469/581/581 471/582/582
f 475/583/583 473/584/584 474/585/585
f 476/586/586 473/587/587 475/588/588
f 479/589/589 477/590/590 478/591/591
f 480/592/592 477/593/593 479/594/594
f 483/595/595 481/596/596 482/597/597
f 484/598/598 481/599/599 483/600/600
f 487/601/601 485/602/602 486/603/603
f 488/604/604 485/605/605 487/606/606
f 491/607/607 489/608/608 490/609/609
f 492/610/610 489/611/611 491/612/612
f 495/613/613 493/614/614 494/615/615
f 496/616/616 493/617/617 495/618/618
f 499/619/619 497/620/620 498/621/621
f 500/622/622 497/623/623 499/624/624

