# Blender v3.0.0 OBJ File: 'multidecor_bedside_table.blend'
# www.blender.org
mtllib multidecor_bedside_table.mtl
o Cube
v -0.850000 -0.602352 0.898547
v -0.850000 -0.902352 0.898547
v -0.850000 -0.602352 -0.661453
v -0.850000 -0.902352 -0.661453
v 0.850000 -0.602352 0.898546
v 0.850000 -0.902352 0.898546
v 0.850000 -0.602352 -0.661454
v 0.850000 -0.902352 -0.661454
v 1.000000 -0.902352 -0.961454
v 1.000000 0.947648 -0.961454
v 1.000000 -0.902352 0.898546
v 1.000000 0.947648 0.898546
v 0.850000 -0.902352 -0.961454
v 0.850000 0.947648 -0.961454
v 0.850000 -0.902352 0.898546
v 0.850000 0.947648 0.898546
v 1.000000 0.947648 -0.961454
v 1.000000 1.097648 -0.961454
v 1.000000 0.947648 0.898546
v 1.000000 1.097648 0.898546
v -1.000000 0.947648 -0.961453
v -1.000000 1.097648 -0.961453
v -1.000000 0.947648 0.898547
v -1.000000 1.097648 0.898547
v -0.850000 -0.902352 -0.961453
v -0.850000 0.947648 -0.961453
v -0.850000 -0.902352 0.898547
v -0.850000 0.947648 0.898547
v -1.000000 -0.902352 -0.961453
v -1.000000 0.947648 -0.961453
v -1.000000 -0.902352 0.898547
v -1.000000 0.947648 0.898547
v 1.000000 -0.902352 0.898546
v 1.000000 1.097649 0.898546
v 1.000000 -0.902352 0.948546
v 1.000000 1.097649 0.948546
v -1.000000 -0.902352 0.898547
v -1.000000 1.097649 0.898547
v -1.000000 -0.902352 0.948547
v -1.000000 1.097649 0.948547
v 0.850000 0.247648 -0.961454
v 0.850000 0.097648 -0.961454
v 0.850000 0.247648 0.898546
v 0.850000 0.097648 0.898546
v -0.850000 0.247648 -0.961454
v -0.850000 0.097648 -0.961454
v -0.850000 0.247648 0.898547
v -0.850000 0.097648 0.898547
vt 0.969231 0.941697
vt 0.749779 0.941697
vt 0.749779 0.740318
vt 0.969231 0.740318
vt 0.969231 0.701591
vt 0.749779 0.701591
vt 0.749779 0.500212
vt 0.969231 0.500212
vt 0.316906 0.259682
vt 0.555721 0.259682
vt 0.555721 0.499787
vt 0.316906 0.499787
vt 0.316906 0.000212
vt 0.555721 0.000213
vt 0.555721 0.240318
vt 0.316906 0.240318
vt 0.297542 0.000212
vt 0.297542 0.240318
vt 0.000212 0.259682
vt 0.019576 0.259682
vt 0.019576 0.499788
vt 0.000212 0.499788
vt 0.297117 0.499788
vt 0.277754 0.499788
vt 0.277754 0.259682
vt 0.297117 0.259682
vt 0.277754 0.240318
vt 0.019576 0.240318
vt 0.019576 0.000212
vt 0.277754 0.000212
vt 0.575509 0.259682
vt 0.814324 0.259682
vt 0.814324 0.499787
vt 0.575509 0.499787
vt 0.575509 0.000212
vt 0.814324 0.000213
vt 0.814324 0.240318
vt 0.575509 0.240318
vt 0.556146 0.499787
vt 0.556146 0.259682
vt 0.264845 0.764845
vt 0.006667 0.764845
vt 0.006667 0.506667
vt 0.264845 0.506667
vt 0.529903 0.759682
vt 0.749354 0.759682
vt 0.749354 0.740318
vt 0.529903 0.740318
vt 0.749354 0.999787
vt 0.529903 0.999788
vt 0.529903 0.500212
vt 0.749354 0.500212
vt 0.953126 0.929349
vt 0.953125 0.000138
vt 0.976355 0.000138
vt 0.976355 0.929349
vt 0.929342 0.023368
vt 0.929342 0.952572
vt 0.000138 0.952572
vt 0.000138 0.023368
vt 0.976632 0.929349
vt 0.976632 0.000138
vt 0.999862 0.000138
vt 0.999862 0.929349
vt 0.000138 0.000138
vt 0.929342 0.000139
vt 0.929619 0.929349
vt 0.929619 0.000138
vt 0.952849 0.000138
vt 0.952849 0.929349
vn 0.0000 1.0000 0.0000
vn -0.0000 0.0000 -1.0000
vn 0.0000 -1.0000 0.0000
vn 1.0000 0.0000 -0.0000
vn -1.0000 0.0000 0.0000
vn 0.0000 0.0000 1.0000
usemtl Material
s off
f 1/1/1 5/2/1 7/3/1 3/4/1
f 4/5/2 3/4/2 7/3/2 8/6/2
f 6/7/3 2/8/3 4/5/3 8/6/3
f 9/9/4 10/10/4 12/11/4 11/12/4
f 15/13/5 16/14/5 14/15/5 13/16/5
f 13/16/2 14/15/2 10/10/2 9/9/2
f 11/17/3 15/13/3 13/16/3 9/18/3
f 17/19/4 18/20/4 20/21/4 19/22/4
f 23/23/5 24/24/5 22/25/5 21/26/5
f 21/27/2 22/25/2 18/20/2 17/28/2
f 19/29/3 23/30/3 21/27/3 17/28/3
f 24/24/1 20/21/1 18/20/1 22/25/1
f 25/31/4 26/32/4 28/33/4 27/34/4
f 31/35/5 32/36/5 30/37/5 29/38/5
f 29/38/2 30/37/2 26/32/2 25/31/2
f 27/34/3 31/39/3 29/40/3 25/31/3
f 37/41/2 38/42/2 34/43/2 33/44/2
f 45/45/2 41/46/2 42/47/2 46/48/2
f 43/49/1 41/46/1 45/45/1 47/50/1
f 48/51/3 46/48/3 42/47/3 44/52/3
usemtl Material.003
f 33/53/4 34/54/4 36/55/4 35/56/4
f 35/57/6 36/58/6 40/59/6 39/60/6
f 39/61/5 40/62/5 38/63/5 37/64/5
f 35/57/3 39/60/3 37/65/3 33/66/3
f 40/67/1 36/68/1 34/69/1 38/70/1
