# Converted from B3D for Luanti (With Correct Normals)
# Object Name: multidecor_wardrobe_wooden_glass_door_right

v -0.887554 -0.265149 -0.215591
v -0.929010 -0.210111 -0.150000
v -0.887554 -0.210111 -0.150000
v -0.962445 -0.291634 -0.184027
v -0.933358 -0.263082 -0.150000
v -0.962445 -0.263082 -0.150000
v -0.962445 -0.291634 -0.184027
v -0.962445 -0.263082 -0.150000
v -0.962445 -0.210111 -0.150000
v -0.962445 -0.265149 -0.215591
v -0.887554 -0.362764 -0.225094
v -0.887554 -0.291634 -0.184027
v -0.962445 -0.291634 -0.184027
v -0.962445 -0.362764 -0.225094
v -0.962445 -0.348671 -0.263813
v -0.962445 -0.265149 -0.215591
v -0.887554 -0.265149 -0.215591
v -0.887554 -0.348671 -0.263813
v -0.887554 -0.348671 -0.263813
v -0.887554 -0.265149 -0.215591
v -0.887554 -0.291634 -0.184027
v -0.887554 -0.362764 -0.225094
v -0.887554 -0.265149 -0.215591
v -0.887554 -0.210111 -0.150000
v -0.887554 -0.263082 -0.150000
v -0.887554 -0.291634 -0.184027
v -0.887554 -0.443649 -0.280560
v -0.887554 -0.348671 -0.263813
v -0.887554 -0.362764 -0.225094
v -0.887554 -0.443649 -0.239356
v -0.962445 -0.443649 -0.280560
v -0.962445 -0.348671 -0.263813
v -0.887554 -0.348671 -0.263813
v -0.887554 -0.443649 -0.280560
v -0.887554 -0.443649 -0.239356
v -0.887554 -0.362764 -0.225094
v -0.962445 -0.362764 -0.225094
v -0.962445 -0.443649 -0.239356
v -0.962445 -0.443649 -0.239356
v -0.962445 -0.362764 -0.225094
v -0.962445 -0.348671 -0.263813
v -0.962445 -0.443649 -0.280560
v -0.962445 -0.362764 -0.225094
v -0.962445 -0.291634 -0.184027
v -0.962445 -0.265149 -0.215591
v -0.962445 -0.348671 -0.263813
v -0.962445 -0.622150 -0.215591
v -0.887554 -0.622150 -0.215591
v -0.887554 -0.677188 -0.150000
v -0.962445 -0.677188 -0.150000
v -0.887554 -0.595665 -0.184027
v -0.962445 -0.595665 -0.184027
v -0.962445 -0.624217 -0.150000
v -0.887554 -0.624217 -0.150000
v -0.962445 -0.595665 -0.184027
v -0.962445 -0.622150 -0.215591
v -0.962445 -0.677188 -0.150000
v -0.962445 -0.624217 -0.150000
v -0.887554 -0.524535 -0.225094
v -0.962445 -0.524535 -0.225094
v -0.962445 -0.595665 -0.184027
v -0.887554 -0.595665 -0.184027
v -0.962445 -0.538628 -0.263813
v -0.887554 -0.538628 -0.263813
v -0.887554 -0.622150 -0.215591
v -0.962445 -0.622150 -0.215591
v -0.887554 -0.538628 -0.263813
v -0.887554 -0.524535 -0.225094
v -0.887554 -0.595665 -0.184027
v -0.887554 -0.622150 -0.215591
v -0.887554 -0.622150 -0.215591
v -0.887554 -0.595665 -0.184027
v -0.887554 -0.624217 -0.150000
v -0.887554 -0.677188 -0.150000
v -0.887554 -0.443649 -0.280560
v -0.887554 -0.443649 -0.239356
v -0.887554 -0.524535 -0.225094
v -0.887554 -0.538628 -0.263813
v -0.962445 -0.443649 -0.280560
v -0.887554 -0.443649 -0.280560
v -0.887554 -0.538628 -0.263813
v -0.962445 -0.538628 -0.263813
v -0.887554 -0.443649 -0.239356
v -0.962445 -0.443649 -0.239356
v -0.962445 -0.524535 -0.225094
v -0.887554 -0.524535 -0.225094
v -0.962445 -0.443649 -0.239356
v -0.962445 -0.443649 -0.280560
v -0.962445 -0.538628 -0.263813
v -0.962445 -0.524535 -0.225094
v -0.962445 -0.524535 -0.225094
v -0.962445 -0.538628 -0.263813
v -0.962445 -0.622150 -0.215591
v -0.962445 -0.595665 -0.184027
v -0.000000 -1.075000 -0.150000
v -0.000000 1.075000 -0.150000
v -0.000000 1.075000 0.000000
v -0.000000 -1.075000 0.000000
v -0.000000 -1.075000 0.000000
v -0.850000 -0.925000 0.000000
v -1.000000 -1.075000 0.000000
v -1.000000 -1.075000 0.000000
v -1.000000 1.075000 0.000000
v -1.000000 1.075000 -0.150000
v -1.000000 -1.075000 -0.150000
v -1.000000 -1.075000 -0.150000
v -0.850000 -0.925000 -0.150000
v -0.000000 -1.075000 -0.150000
v -0.000000 -1.075000 0.000000
v -1.000000 -1.075000 0.000000
v -1.000000 -1.075000 -0.150000
v -0.000000 -1.075000 -0.150000
v -1.000000 1.075000 0.000000
v -0.000000 1.075000 0.000000
v -0.000000 1.075000 -0.150000
v -1.000000 1.075000 -0.150000
v -0.850000 0.752500 -0.150000
v -0.850000 0.925000 -0.150000
v -0.850000 0.925000 -0.075000
v -0.850000 0.925000 0.000000
v -0.000000 1.075000 0.000000
v -1.000000 1.075000 0.000000
v -0.850000 0.925000 -0.150000
v -1.000000 1.075000 -0.150000
v -0.000000 1.075000 -0.150000
v -0.150000 -0.925000 -0.075000
v -0.150000 -0.925000 0.000000
v -0.150000 0.925000 0.000000
v -0.150000 0.925000 -0.075000
v -0.150000 -0.925000 -0.075000
v -0.150000 -0.925000 -0.150000
v -0.850000 -0.925000 -0.150000
v -0.850000 -0.925000 -0.075000
v -0.850000 0.925000 -0.075000
v -0.850000 0.925000 -0.150000
v -0.150000 0.925000 -0.150000
v -0.150000 0.925000 -0.075000
v -0.850000 0.925000 0.000000
v -0.850000 0.925000 -0.075000
v -0.150000 0.925000 -0.075000
v -0.150000 0.925000 0.000000
v -0.150000 -0.925000 0.000000
v -0.150000 -0.925000 -0.075000
v -0.850000 -0.925000 -0.075000
v -0.850000 -0.925000 0.000000
v -0.150000 -0.925000 -0.150000
v -0.150000 -0.925000 -0.075000
v -0.150000 0.925000 -0.075000
v -0.150000 0.925000 -0.150000
v -0.850000 -0.925000 0.000000
v -0.850000 -0.925000 -0.075000
v -0.850000 0.925000 -0.075000
v -0.850000 0.925000 0.000000
v -0.850000 -0.752500 0.000000
v -0.150000 0.925000 -0.075000
v -0.150000 -0.925000 -0.075000
v -0.850000 -0.925000 -0.075000
v -0.850000 0.925000 -0.075000
v -0.962445 -0.210111 -0.150000
v -0.962445 -0.263082 -0.150000
v -1.000000 -1.075000 -0.150000
v -0.850000 -0.925000 -0.150000
v -0.150000 -0.925000 -0.150000
v -0.000000 -1.075000 -0.150000
v -1.000000 -1.075000 -0.150000
v -0.962445 -0.677188 -0.150000
v -0.850000 -0.925000 -0.150000
v -0.000000 1.075000 -0.150000
v -0.000000 -1.075000 -0.150000
v -0.150000 -0.925000 -0.150000
v -0.000000 1.075000 -0.150000
v -0.150000 -0.925000 -0.150000
v -0.150000 0.925000 -0.150000
v -0.850000 0.925000 -0.150000
v -0.850000 0.752500 -0.150000
v -1.000000 1.075000 -0.150000
v -0.000000 1.075000 -0.150000
v -0.150000 0.925000 -0.150000
v -0.850000 0.925000 -0.150000
v -0.933358 -0.263082 -0.150000
v -0.887554 -0.263082 -0.150000
v -0.887554 -0.624217 -0.150000
v -0.000000 -1.075000 0.000000
v -0.000000 1.075000 0.000000
v -0.150000 0.925000 0.000000
v -0.000000 -1.075000 0.000000
v -0.150000 0.925000 0.000000
v -0.150000 -0.925000 0.000000
v -0.850000 -0.925000 0.000000
v -0.850000 -0.752500 0.000000
v -1.000000 -1.075000 0.000000
v -0.000000 -1.075000 0.000000
v -0.150000 -0.925000 0.000000
v -0.850000 -0.925000 0.000000
v -1.000000 1.075000 0.000000
v -1.000000 -1.075000 0.000000
v -0.850000 -0.752500 0.000000
v -0.850000 0.925000 0.000000
v -0.150000 0.925000 0.000000
v -0.000000 1.075000 0.000000
v -1.000000 1.075000 0.000000
v -0.850000 -0.752500 0.000000
v -0.850000 0.925000 0.000000
v -0.962445 -0.210111 -0.150000
v -0.929010 -0.210111 -0.150000
v -0.962445 -0.265149 -0.215591
v -0.962445 -0.265149 -0.215591
v -0.929010 -0.210111 -0.150000
v -0.887554 -0.265149 -0.215591
v -0.887554 -0.263082 -0.150000
v -0.933358 -0.263082 -0.150000
v -0.887554 -0.291634 -0.184027
v -0.887554 -0.291634 -0.184027
v -0.933358 -0.263082 -0.150000
v -0.962445 -0.291634 -0.184027
v -1.000000 -1.075000 -0.150000
v -0.962445 -0.624217 -0.150000
v -0.962445 -0.677188 -0.150000
v -0.962445 -0.677188 -0.150000
v -0.887554 -0.677188 -0.150000
v -0.850000 -0.925000 -0.150000
v -0.850000 0.752500 -0.150000
v -0.850000 -0.925000 -0.150000
v -0.887554 -0.210111 -0.150000
v -0.850000 -0.925000 -0.150000
v -0.887554 -0.677188 -0.150000
v -0.887554 -0.624217 -0.150000
v -0.850000 -0.925000 -0.150000
v -0.887554 -0.624217 -0.150000
v -0.887554 -0.263082 -0.150000
v -0.887554 -0.210111 -0.150000
v -0.929010 -0.210111 -0.150000
v -0.850000 0.752500 -0.150000
v -0.887554 -0.263082 -0.150000
v -0.887554 -0.210111 -0.150000
v -0.850000 -0.925000 -0.150000
v -0.962445 -0.624217 -0.150000
v -1.000000 -1.075000 -0.150000
v -0.933358 -0.263082 -0.150000
v -0.962445 -0.624217 -0.150000
v -0.933358 -0.263082 -0.150000
v -0.887554 -0.624217 -0.150000
v -1.000000 1.075000 -0.150000
v -0.850000 0.752500 -0.150000
v -0.962445 -0.210111 -0.150000
v -0.850000 0.752500 -0.150000
v -0.929010 -0.210111 -0.150000
v -0.962445 -0.210111 -0.150000
v -0.962445 -0.263082 -0.150000
v -0.933358 -0.263082 -0.150000
v -1.000000 -1.075000 -0.150000
v -1.000000 1.075000 -0.150000
v -0.962445 -0.210111 -0.150000
v -1.000000 -1.075000 -0.150000
v -0.850000 0.925000 -0.075000
v -0.850000 -0.925000 -0.075000
v -0.850000 0.752500 -0.150000
v -0.850000 -0.925000 -0.075000
v -0.850000 -0.925000 -0.150000
v -0.850000 0.752500 -0.150000

vt 0.000157 0.838734
vt 0.153826 0.838734
vt 0.000157 0.913135
vt 0.469419 0.749214
vt 0.469419 0.669495
vt 0.521622 0.749214
vt 0.234474 0.838420
vt 0.173406 0.692110
vt 0.234474 0.743352
vt 0.116757 0.739644
vt 0.173406 0.692110
vt 0.234474 0.838420
vt 0.469419 0.669495
vt 0.603826 0.522090
vt 0.603826 0.669495
vt 0.469419 0.522090
vt 0.603826 0.522090
vt 0.469419 0.669495
vt 0.153826 0.838734
vt 0.326913 0.973141
vt 0.153826 0.973141
vt 0.326913 0.838734
vt 0.326913 0.973141
vt 0.153826 0.838734
vt 0.408036 0.146467
vt 0.264844 0.248831
vt 0.351388 0.098933
vt 0.334334 0.274123
vt 0.264844 0.248831
vt 0.408036 0.146467
vt 0.469105 0.095225
vt 0.351388 0.098933
vt 0.469105 0.000157
vt 0.408036 0.146467
vt 0.351388 0.098933
vt 0.469105 0.095225
vt 0.334334 0.274123
vt 0.234788 0.419289
vt 0.264844 0.248831
vt 0.308737 0.419288
vt 0.234788 0.419289
vt 0.334334 0.274123
vt 0.326913 0.838734
vt 0.500000 0.973141
vt 0.326913 0.973141
vt 0.500000 0.838734
vt 0.500000 0.973141
vt 0.326913 0.838734
vt 0.469419 0.522090
vt 0.603826 0.374686
vt 0.603826 0.522090
vt 0.469419 0.374686
vt 0.603826 0.374686
vt 0.469419 0.522090
vt 0.030213 0.589746
vt 0.074107 0.419289
vt 0.099703 0.564454
vt 0.000157 0.419288
vt 0.074107 0.419289
vt 0.030213 0.589746
vt 0.116757 0.739644
vt 0.099703 0.564454
vt 0.173406 0.692110
vt 0.030213 0.589746
vt 0.099703 0.564454
vt 0.116757 0.739644
vt 0.999843 0.838734
vt 0.846174 0.973141
vt 0.846175 0.838734
vt 0.999843 0.973141
vt 0.846174 0.973141
vt 0.999843 0.838734
vt 0.469419 0.000157
vt 0.603826 0.079876
vt 0.469419 0.079876
vt 0.603826 0.000157
vt 0.603826 0.079876
vt 0.469419 0.000157
vt 0.234474 0.000157
vt 0.173406 0.146467
vt 0.116757 0.098933
vt 0.234474 0.095225
vt 0.173406 0.146467
vt 0.234474 0.000157
vt 0.469419 0.079876
vt 0.603826 0.227281
vt 0.469419 0.227281
vt 0.603826 0.079876
vt 0.603826 0.227281
vt 0.469419 0.079876
vt 0.846175 0.838734
vt 0.673087 0.973141
vt 0.673087 0.838734
vt 0.846174 0.973141
vt 0.673087 0.973141
vt 0.846175 0.838734
vt 0.408036 0.692110
vt 0.264844 0.589746
vt 0.334334 0.564454
vt 0.351388 0.739644
vt 0.264844 0.589746
vt 0.408036 0.692110
vt 0.469105 0.743352
vt 0.351388 0.739644
vt 0.408036 0.692110
vt 0.469105 0.838420
vt 0.351388 0.739644
vt 0.469105 0.743352
vt 0.334334 0.564454
vt 0.234788 0.419289
vt 0.308737 0.419288
vt 0.264844 0.589746
vt 0.234788 0.419289
vt 0.334334 0.564454
vt 0.673087 0.838734
vt 0.500000 0.973141
vt 0.500000 0.838734
vt 0.673087 0.973141
vt 0.500000 0.973141
vt 0.673087 0.838734
vt 0.469419 0.227281
vt 0.603826 0.374686
vt 0.469419 0.374686
vt 0.603826 0.227281
vt 0.603826 0.374686
vt 0.469419 0.227281
vt 0.030213 0.248831
vt 0.074107 0.419289
vt 0.000157 0.419288
vt 0.099703 0.274123
vt 0.074107 0.419289
vt 0.030213 0.248831
vt 0.116757 0.098933
vt 0.099703 0.274123
vt 0.030213 0.248831
vt 0.173406 0.146467
vt 0.099703 0.274123
vt 0.116757 0.098933
vt 0.153826 0.973141
vt 0.000157 0.973141
vt 0.000157 0.913135
vt 0.153826 0.838734
vt 0.153826 0.973141
vt 0.000157 0.913135
vt 0.603826 0.669495
vt 0.603826 0.749214
vt 0.521622 0.749214
vt 0.469419 0.669495
vt 0.603826 0.669495
vt 0.521622 0.749214
vt 0.262077 0.307627
vt 0.215974 0.968433
vt 0.215974 0.307627
vt 0.262077 0.968433
vt 0.215974 0.968433
vt 0.262077 0.307627
vt 0.617416 0.307627
vt 0.617416 0.000276
vt 0.663519 0.261525
vt 0.262629 0.968433
vt 0.308731 0.307627
vt 0.308731 0.968433
vt 0.262628 0.307627
vt 0.308731 0.307627
vt 0.262629 0.968433
vt 0.710173 0.000276
vt 0.710173 0.307627
vt 0.664071 0.261525
vt 0.262628 0.307627
vt 0.308731 0.000276
vt 0.308731 0.307627
vt 0.262628 0.000276
vt 0.308731 0.000276
vt 0.262628 0.307627
vt 0.215974 0.307627
vt 0.262077 0.000276
vt 0.262077 0.307627
vt 0.215974 0.000276
vt 0.262077 0.000276
vt 0.215974 0.307627
vt 0.570210 0.000276
vt 0.547159 0.053294
vt 0.547159 0.000276
vt 0.616865 0.615530
vt 0.570762 0.569427
vt 0.616865 0.308179
vt 0.616865 0.307627
vt 0.570762 0.046379
vt 0.616865 0.000276
vt 0.499951 0.000276
vt 0.523003 0.568872
vt 0.499952 0.568872
vt 0.523003 0.000276
vt 0.523003 0.568872
vt 0.499951 0.000276
vt 0.547158 0.568877
vt 0.570210 0.784022
vt 0.547159 0.784022
vt 0.570210 0.568877
vt 0.570210 0.784022
vt 0.547158 0.568877
vt 0.523555 0.568867
vt 0.546607 0.784017
vt 0.523555 0.784017
vt 0.546607 0.568867
vt 0.546607 0.784017
vt 0.523555 0.568867
vt 0.215974 0.992036
vt 0.431121 0.968985
vt 0.431121 0.992036
vt 0.215974 0.968985
vt 0.431121 0.968985
vt 0.215974 0.992036
vt 0.523003 0.784017
vt 0.499952 0.568872
vt 0.523003 0.568872
vt 0.499952 0.784017
vt 0.499952 0.568872
vt 0.523003 0.784017
vt 0.546607 0.568867
vt 0.523556 0.000276
vt 0.546607 0.000276
vt 0.523555 0.568867
vt 0.523556 0.000276
vt 0.546607 0.568867
vt 0.431121 0.992036
vt 0.999724 0.968985
vt 0.999724 0.992036
vt 0.359435 0.000276
vt 0.348615 0.240881
vt 0.348507 0.221473
vt 0.710173 0.000276
vt 0.664071 0.261525
vt 0.664071 0.046379
vt 0.316578 0.036832
vt 0.359435 0.000276
vt 0.347147 0.101890
vt 0.406642 0.614978
vt 0.452745 0.000276
vt 0.452745 0.661081
vt 0.406642 0.046379
vt 0.452745 0.000276
vt 0.406642 0.614978
vt 0.359435 0.647972
vt 0.309550 0.598550
vt 0.309283 0.541449
vt 0.570762 0.046379
vt 0.616865 0.307627
vt 0.570762 0.261525
vt 0.325908 0.117419
vt 0.339583 0.221659
vt 0.324961 0.220862
vt 0.453296 0.614978
vt 0.499399 0.000276
vt 0.499399 0.661081
vt 0.453296 0.046379
vt 0.499399 0.000276
vt 0.453296 0.614978
vt 0.406090 0.661081
vt 0.359988 0.614978
vt 0.359988 0.561960
vt 0.663519 0.261525
vt 0.617416 0.000276
vt 0.663519 0.046379
vt 0.359988 0.561960
vt 0.406090 0.000276
vt 0.406090 0.661081
vt 0.616865 0.308179
vt 0.570762 0.569427
vt 0.570762 0.354282
vt 0.359987 0.046379
vt 0.406090 0.000276
vt 0.359988 0.561960
vt 0.347147 0.101890
vt 0.359435 0.000276
vt 0.346951 0.117996
vt 0.316578 0.036832
vt 0.347147 0.101890
vt 0.325977 0.102393
vt 0.324474 0.240939
vt 0.309283 0.541449
vt 0.316578 0.036832
vt 0.325908 0.117419
vt 0.316578 0.036832
vt 0.325977 0.102393
vt 0.324961 0.220862
vt 0.316578 0.036832
vt 0.325908 0.117419
vt 0.309283 0.541449
vt 0.324474 0.240939
vt 0.337861 0.240590
vt 0.316578 0.036832
vt 0.324961 0.220862
vt 0.324474 0.240939
vt 0.339583 0.221659
vt 0.346951 0.117996
vt 0.359435 0.000276
vt 0.325908 0.117419
vt 0.346951 0.117996
vt 0.339583 0.221659
vt 0.348615 0.240881
vt 0.359435 0.647972
vt 0.309283 0.541449
vt 0.348615 0.240881
vt 0.309283 0.541449
vt 0.337861 0.240590
vt 0.359435 0.000276
vt 0.348507 0.221473
vt 0.339583 0.221659
vt 0.359435 0.000276
vt 0.359435 0.647972
vt 0.348615 0.240881
vt 0.547159 0.053294
vt 0.570210 0.000276
vt 0.570210 0.568877
vt 0.547159 0.053294
vt 0.570210 0.568877
vt 0.547158 0.568877
vt 0.666799 0.987526
vt 0.298899 0.015220
vt 0.298899 0.987526
vt 0.666799 0.015220
vt 0.298899 0.015220
vt 0.666799 0.987526

vn 0.000004 0.766045 -0.642787
vn 0.000004 0.766045 -0.642787
vn 0.000004 0.766045 -0.642787
vn 0.000001 -0.766044 0.642788
vn 0.000001 -0.766044 0.642788
vn 0.000001 -0.766044 0.642788
vn -1.000000 0.000000 -0.000002
vn -1.000000 0.000000 -0.000002
vn -1.000000 0.000000 -0.000002
vn -1.000000 0.000000 0.000000
vn -1.000000 0.000000 0.000000
vn -1.000000 0.000000 0.000000
vn -0.000000 -0.500000 0.866026
vn -0.000000 -0.500000 0.866026
vn -0.000000 -0.500000 0.866026
vn -0.000000 -0.500001 0.866025
vn -0.000000 -0.500001 0.866025
vn -0.000000 -0.500001 0.866025
vn -0.000000 0.500000 -0.866025
vn -0.000000 0.500000 -0.866025
vn -0.000000 0.500000 -0.866025
vn -0.000000 0.500000 -0.866025
vn -0.000000 0.500000 -0.866025
vn -0.000000 0.500000 -0.866025
vn 1.000000 0.000000 0.000000
vn 1.000000 0.000000 0.000000
vn 1.000000 0.000000 0.000000
vn 1.000000 0.000000 -0.000002
vn 1.000000 0.000000 -0.000002
vn 1.000000 0.000000 -0.000002
vn 1.000000 0.000000 0.000002
vn 1.000000 0.000000 0.000002
vn 1.000000 0.000000 0.000002
vn 1.000000 0.000000 0.000002
vn 1.000000 0.000000 0.000002
vn 1.000000 0.000000 0.000002
vn 1.000000 0.000000 0.000000
vn 1.000000 0.000000 0.000000
vn 1.000000 0.000000 0.000000
vn 1.000000 0.000000 0.000000
vn 1.000000 0.000000 0.000000
vn 1.000000 0.000000 0.000000
vn -0.000000 0.173648 -0.984808
vn -0.000000 0.173648 -0.984808
vn -0.000000 0.173648 -0.984808
vn -0.000000 0.173649 -0.984808
vn -0.000000 0.173649 -0.984808
vn -0.000000 0.173649 -0.984808
vn -0.000000 -0.173648 0.984808
vn -0.000000 -0.173648 0.984808
vn -0.000000 -0.173648 0.984808
vn -0.000000 -0.173649 0.984808
vn -0.000000 -0.173649 0.984808
vn -0.000000 -0.173649 0.984808
vn -1.000000 0.000000 0.000004
vn -1.000000 0.000000 0.000004
vn -1.000000 0.000000 0.000004
vn -1.000000 0.000000 0.000000
vn -1.000000 0.000000 0.000000
vn -1.000000 0.000000 0.000000
vn -1.000000 0.000000 0.000000
vn -1.000000 0.000000 0.000000
vn -1.000000 0.000000 0.000000
vn -1.000000 0.000000 0.000004
vn -1.000000 0.000000 0.000004
vn -1.000000 0.000000 0.000004
vn -0.000000 -0.766044 -0.642788
vn -0.000000 -0.766044 -0.642788
vn -0.000000 -0.766044 -0.642788
vn -0.000000 -0.766045 -0.642788
vn -0.000000 -0.766045 -0.642788
vn -0.000000 -0.766045 -0.642788
vn -0.000000 0.766045 0.642787
vn -0.000000 0.766045 0.642787
vn -0.000000 0.766045 0.642787
vn -0.000000 0.766044 0.642788
vn -0.000000 0.766044 0.642788
vn -0.000000 0.766044 0.642788
vn -1.000000 0.000000 -0.000001
vn -1.000000 0.000000 -0.000001
vn -1.000000 0.000000 -0.000001
vn -1.000000 0.000000 0.000000
vn -1.000000 0.000000 0.000000
vn -1.000000 0.000000 0.000000
vn -0.000000 0.500001 0.866025
vn -0.000000 0.500001 0.866025
vn -0.000000 0.500001 0.866025
vn -0.000000 0.500000 0.866026
vn -0.000000 0.500000 0.866026
vn -0.000000 0.500000 0.866026
vn -0.000000 -0.500000 -0.866025
vn -0.000000 -0.500000 -0.866025
vn -0.000000 -0.500000 -0.866025
vn -0.000000 -0.500000 -0.866025
vn -0.000000 -0.500000 -0.866025
vn -0.000000 -0.500000 -0.866025
vn 1.000000 0.000000 -0.000001
vn 1.000000 0.000000 -0.000001
vn 1.000000 0.000000 -0.000001
vn 1.000000 0.000000 0.000002
vn 1.000000 0.000000 0.000002
vn 1.000000 0.000000 0.000002
vn 1.000000 0.000000 0.000000
vn 1.000000 0.000000 0.000000
vn 1.000000 0.000000 0.000000
vn 1.000000 0.000000 -0.000000
vn 1.000000 0.000000 -0.000000
vn 1.000000 0.000000 -0.000000
vn 1.000000 0.000000 0.000001
vn 1.000000 0.000000 0.000001
vn 1.000000 0.000000 0.000001
vn 1.000000 0.000000 0.000000
vn 1.000000 0.000000 0.000000
vn 1.000000 0.000000 0.000000
vn -0.000000 -0.173649 -0.984808
vn -0.000000 -0.173649 -0.984808
vn -0.000000 -0.173649 -0.984808
vn -0.000000 -0.173648 -0.984808
vn -0.000000 -0.173648 -0.984808
vn -0.000000 -0.173648 -0.984808
vn -0.000000 0.173649 0.984808
vn -0.000000 0.173649 0.984808
vn -0.000000 0.173649 0.984808
vn -0.000000 0.173648 0.984808
vn -0.000000 0.173648 0.984808
vn -0.000000 0.173648 0.984808
vn -1.000000 0.000000 0.000001
vn -1.000000 0.000000 0.000001
vn -1.000000 0.000000 0.000001
vn -1.000000 0.000000 -0.000004
vn -1.000000 0.000000 -0.000004
vn -1.000000 0.000000 -0.000004
vn -1.000000 0.000000 -0.000001
vn -1.000000 0.000000 -0.000001
vn -1.000000 0.000000 -0.000001
vn -1.000000 0.000000 0.000004
vn -1.000000 0.000000 0.000004
vn -1.000000 0.000000 0.000004
vn -0.000005 0.766045 -0.642787
vn -0.000005 0.766045 -0.642787
vn -0.000005 0.766045 -0.642787
vn -0.000000 0.766043 -0.642789
vn -0.000000 0.766043 -0.642789
vn -0.000000 0.766043 -0.642789
vn -0.000001 -0.766045 0.642787
vn -0.000001 -0.766045 0.642787
vn -0.000001 -0.766045 0.642787
vn -0.000000 -0.766044 0.642788
vn -0.000000 -0.766044 0.642788
vn -0.000000 -0.766044 0.642788
vn 1.000000 0.000000 0.000000
vn 1.000000 0.000000 0.000000
vn 1.000000 0.000000 0.000000
vn 1.000000 0.000000 0.000000
vn 1.000000 0.000000 0.000000
vn 1.000000 0.000000 0.000000
vn -0.000000 0.000000 1.000000
vn -0.000000 0.000000 1.000000
vn -0.000000 0.000000 1.000000
vn -1.000000 0.000000 0.000000
vn -1.000000 0.000000 0.000000
vn -1.000000 0.000000 0.000000
vn -1.000000 0.000000 0.000000
vn -1.000000 0.000000 0.000000
vn -1.000000 0.000000 0.000000
vn -0.000000 0.000000 -1.000000
vn -0.000000 0.000000 -1.000000
vn -0.000000 0.000000 -1.000000
vn -0.000000 -1.000000 0.000000
vn -0.000000 -1.000000 0.000000
vn -0.000000 -1.000000 0.000000
vn -0.000000 -1.000000 0.000000
vn -0.000000 -1.000000 0.000000
vn -0.000000 -1.000000 0.000000
vn -0.000000 1.000000 0.000000
vn -0.000000 1.000000 0.000000
vn -0.000000 1.000000 0.000000
vn -0.000000 1.000000 0.000000
vn -0.000000 1.000000 0.000000
vn -0.000000 1.000000 0.000000
vn 1.000000 0.000000 0.000000
vn 1.000000 0.000000 0.000000
vn 1.000000 0.000000 0.000000
vn -0.000000 0.000000 1.000000
vn -0.000000 0.000000 1.000000
vn -0.000000 0.000000 1.000000
vn -0.000000 0.000000 -1.000000
vn -0.000000 0.000000 -1.000000
vn -0.000000 0.000000 -1.000000
vn -1.000000 0.000000 0.000000
vn -1.000000 0.000000 0.000000
vn -1.000000 0.000000 0.000000
vn -1.000000 0.000000 0.000000
vn -1.000000 0.000000 0.000000
vn -1.000000 0.000000 0.000000
vn -0.000000 1.000000 0.000000
vn -0.000000 1.000000 0.000000
vn -0.000000 1.000000 0.000000
vn -0.000000 1.000000 0.000000
vn -0.000000 1.000000 0.000000
vn -0.000000 1.000000 0.000000
vn -0.000000 -1.000000 0.000000
vn -0.000000 -1.000000 0.000000
vn -0.000000 -1.000000 0.000000
vn -0.000000 -1.000000 0.000000
vn -0.000000 -1.000000 0.000000
vn -0.000000 -1.000000 0.000000
vn -0.000000 -1.000000 0.000000
vn -0.000000 -1.000000 0.000000
vn -0.000000 -1.000000 0.000000
vn -0.000000 -1.000000 0.000000
vn -0.000000 -1.000000 0.000000
vn -0.000000 -1.000000 0.000000
vn -0.000000 1.000000 0.000000
vn -0.000000 1.000000 0.000000
vn -0.000000 1.000000 0.000000
vn -0.000000 1.000000 0.000000
vn -0.000000 1.000000 0.000000
vn -0.000000 1.000000 0.000000
vn -1.000000 0.000000 0.000000
vn -1.000000 0.000000 0.000000
vn -1.000000 0.000000 0.000000
vn -1.000000 0.000000 0.000000
vn -1.000000 0.000000 0.000000
vn -1.000000 0.000000 0.000000
vn 1.000000 0.000000 0.000000
vn 1.000000 0.000000 0.000000
vn 1.000000 0.000000 0.000000
vn -0.000000 0.000000 -1.000000
vn -0.000000 0.000000 -1.000000
vn -0.000000 0.000000 -1.000000
vn -0.000000 -0.000000 -1.000000
vn -0.000000 -0.000000 -1.000000
vn -0.000000 -0.000000 -1.000000
vn -0.000000 0.000000 -1.000000
vn -0.000000 0.000000 -1.000000
vn -0.000000 0.000000 -1.000000
vn -0.000000 0.000000 -1.000000
vn -0.000000 0.000000 -1.000000
vn -0.000000 0.000000 -1.000000
vn -0.000000 0.000000 -1.000000
vn -0.000000 0.000000 -1.000000
vn -0.000000 0.000000 -1.000000
vn -0.000000 0.000000 -1.000000
vn -0.000000 0.000000 -1.000000
vn -0.000000 0.000000 -1.000000
vn -0.000000 0.000000 -1.000000
vn -0.000000 0.000000 -1.000000
vn -0.000000 0.000000 -1.000000
vn -0.000000 0.000000 -1.000000
vn -0.000000 0.000000 -1.000000
vn -0.000000 0.000000 -1.000000
vn -0.000000 0.000000 1.000000
vn -0.000000 0.000000 1.000000
vn -0.000000 0.000000 1.000000
vn -0.000000 0.000000 1.000000
vn -0.000000 0.000000 1.000000
vn -0.000000 0.000000 1.000000
vn -0.000000 0.000000 1.000000
vn -0.000000 0.000000 1.000000
vn -0.000000 0.000000 1.000000
vn -0.000000 0.000000 1.000000
vn -0.000000 0.000000 1.000000
vn -0.000000 0.000000 1.000000
vn -0.000000 0.000000 1.000000
vn -0.000000 0.000000 1.000000
vn -0.000000 0.000000 1.000000
vn -0.000000 0.000000 1.000000
vn -0.000000 0.000000 1.000000
vn -0.000000 0.000000 1.000000
vn -0.000000 0.000000 1.000000
vn -0.000000 0.000000 1.000000
vn -0.000000 0.000000 1.000000
vn -0.000000 0.000000 -1.000000
vn -0.000000 0.000000 -1.000000
vn -0.000000 0.000000 -1.000000
vn -0.000000 -0.000000 -1.000000
vn -0.000000 -0.000000 -1.000000
vn -0.000000 -0.000000 -1.000000
vn -0.000000 0.000000 -1.000000
vn -0.000000 0.000000 -1.000000
vn -0.000000 0.000000 -1.000000
vn -0.000000 0.000000 -1.000000
vn -0.000000 0.000000 -1.000000
vn -0.000000 0.000000 -1.000000
vn -0.000000 0.000000 -1.000000
vn -0.000000 0.000000 -1.000000
vn -0.000000 0.000000 -1.000000
vn -0.000000 0.000000 -1.000000
vn -0.000000 0.000000 -1.000000
vn -0.000000 0.000000 -1.000000
vn -0.000000 0.000000 -1.000000
vn -0.000000 0.000000 -1.000000
vn -0.000000 0.000000 -1.000000
vn -0.000000 0.000000 -1.000000
vn -0.000000 0.000000 -1.000000
vn -0.000000 0.000000 -1.000000
vn -0.000000 0.000000 -1.000000
vn -0.000000 0.000000 -1.000000
vn -0.000000 0.000000 -1.000000
vn -0.000000 0.000000 -1.000000
vn -0.000000 0.000000 -1.000000
vn -0.000000 0.000000 -1.000000
vn -0.000000 0.000000 -1.000000
vn -0.000000 0.000000 -1.000000
vn -0.000000 0.000000 -1.000000
vn -0.000000 0.000000 -1.000000
vn -0.000000 0.000000 -1.000000
vn -0.000000 0.000000 -1.000000
vn -0.000000 0.000000 -1.000000
vn -0.000000 0.000000 -1.000000
vn -0.000000 0.000000 -1.000000
vn 1.000000 0.000000 0.000000
vn 1.000000 0.000000 0.000000
vn 1.000000 0.000000 0.000000
vn 1.000000 0.000000 0.000000
vn 1.000000 0.000000 0.000000
vn 1.000000 0.000000 0.000000
vn -0.000000 0.000000 -1.000000
vn -0.000000 0.000000 -1.000000
vn -0.000000 0.000000 -1.000000
vn -0.000000 0.000000 -1.000000
vn -0.000000 0.000000 -1.000000
vn -0.000000 0.000000 -1.000000

g Material.003
f 3/1/1 1/2/2 2/3/3
f 6/4/4 4/5/5 5/6/6
f 9/7/7 7/8/8 8/9/9
f 10/10/10 7/11/11 9/12/12
f 13/13/13 11/14/14 12/15/15
f 14/16/16 11/17/17 13/18/18
f 17/19/19 15/20/20 16/21/21
f 18/22/22 15/23/23 17/24/24
f 21/25/25 19/26/26 20/27/27
f 22/28/28 19/29/29 21/30/30
f 25/31/31 23/32/32 24/33/33
f 26/34/34 23/35/35 25/36/36
f 29/37/37 27/38/38 28/39/39
f 30/40/40 27/41/41 29/42/42
f 33/43/43 31/44/44 32/45/45
f 34/46/46 31/47/47 33/48/48
f 37/49/49 35/50/50 36/51/51
f 38/52/52 35/53/53 37/54/54
f 41/55/55 39/56/56 40/57/57
f 42/58/58 39/59/59 41/60/60
f 45/61/61 43/62/62 44/63/63
f 46/64/64 43/65/65 45/66/66
f 49/67/67 47/68/68 48/69/69
f 50/70/70 47/71/71 49/72/72
f 53/73/73 51/74/74 52/75/75
f 54/76/76 51/77/77 53/78/78
f 57/79/79 55/80/80 56/81/81
f 58/82/82 55/83/83 57/84/84
f 61/85/85 59/86/86 60/87/87
f 62/88/88 59/89/89 61/90/90
f 65/91/91 63/92/92 64/93/93
f 66/94/94 63/95/95 65/96/96
f 69/97/97 67/98/98 68/99/99
f 70/100/100 67/101/101 69/102/102
f 73/103/103 71/104/104 72/105/105
f 74/106/106 71/107/107 73/108/108
f 77/109/109 75/110/110 76/111/111
f 78/112/112 75/113/113 77/114/114
f 81/115/115 79/116/116 80/117/117
f 82/118/118 79/119/119 81/120/120
f 85/121/121 83/122/122 84/123/123
f 86/124/124 83/125/125 85/126/126
f 89/127/127 87/128/128 88/129/129
f 90/130/130 87/131/131 89/132/132
f 93/133/133 91/134/134 92/135/135
f 94/136/136 91/137/137 93/138/138
f 206/139/139 204/140/140 205/141/141
f 209/142/142 207/143/143 208/144/144
f 212/145/145 210/146/146 211/147/147
f 215/148/148 213/149/149 214/150/150

g Material.001
f 97/151/151 95/152/152 96/153/153
f 98/154/154 95/155/155 97/156/156
f 101/157/157 99/158/158 100/159/159
f 104/160/160 102/161/161 103/162/162
f 105/163/163 102/164/164 104/165/165
f 108/166/166 106/167/167 107/168/168
f 111/169/169 109/170/170 110/171/171
f 112/172/172 109/173/173 111/174/174
f 115/175/175 113/176/176 114/177/177
f 116/178/178 113/179/179 115/180/180
f 119/181/181 117/182/182 118/183/183
f 122/184/184 120/185/185 121/186/186
f 125/187/187 123/188/188 124/189/189
f 128/190/190 126/191/191 127/192/192
f 129/193/193 126/194/194 128/195/195
f 132/196/196 130/197/197 131/198/198
f 133/199/199 130/200/200 132/201/201
f 136/202/202 134/203/203 135/204/204
f 137/205/205 134/206/206 136/207/207
f 140/208/208 138/209/209 139/210/210
f 141/211/211 138/212/212 140/213/213
f 144/214/214 142/215/215 143/216/216
f 145/217/217 142/218/218 144/219/219
f 148/220/220 146/221/221 147/222/222
f 149/223/223 146/224/224 148/225/225
f 152/226/226 150/227/227 151/228/228
f 161/229/229 159/230/230 160/231/231
f 164/232/232 162/233/233 163/234/234
f 167/235/235 165/236/236 166/237/237
f 170/238/238 168/239/239 169/240/240
f 173/241/241 171/242/242 172/243/243
f 176/244/244 174/245/245 175/246/246
f 179/247/247 177/248/248 178/249/249
f 182/250/250 180/251/251 181/252/252
f 185/253/253 183/254/254 184/255/255
f 188/256/256 186/257/257 187/258/258
f 191/259/259 189/260/260 190/261/261
f 194/262/262 192/263/263 193/264/264
f 197/265/265 195/266/266 196/267/267
f 200/268/268 198/269/269 199/270/270
f 203/271/271 201/272/272 202/273/273
f 218/274/274 216/275/275 217/276/276
f 221/277/277 219/278/278 220/279/279
f 224/280/280 222/281/281 223/282/282
f 227/283/283 225/284/284 226/285/285
f 230/286/286 228/287/287 229/288/288
f 233/289/289 231/290/290 232/291/291
f 236/292/292 234/293/293 235/294/294
f 239/295/295 237/296/296 238/297/297
f 242/298/298 240/299/299 241/300/300
f 245/301/301 243/302/302 244/303/303
f 248/304/304 246/305/305 247/306/306
f 251/307/307 249/308/308 250/309/309
f 254/310/310 252/311/311 253/312/312
f 257/313/313 255/314/314 256/315/315
f 260/316/316 258/317/317 259/318/318

g Material.002
f 157/319/319 155/320/320 156/321/321
f 158/322/322 155/323/323 157/324/324

