# Blender v3.0.0 OBJ File: 'multidecor_wooden_desk_door.blend'
# www.blender.org
o Cube.002_Cube.001
v 1.300000 0.500000 0.000000
v 0.000000 0.500000 0.000000
v 1.300000 -0.500000 0.000000
v 0.000000 -0.500000 0.000000
v 1.300000 0.500000 0.100000
v 1.300000 -0.500000 0.100000
v -0.000000 0.500000 0.100000
v -0.000000 -0.500000 0.100000
v 1.164098 -0.191500 0.100000
v 1.074098 -0.191500 0.100000
v 1.164098 -0.166500 0.100000
v 1.074098 -0.166500 0.100000
v 1.164098 -0.191500 0.175000
v 1.074098 -0.191500 0.175000
v 1.164098 -0.166500 0.175000
v 1.074098 -0.166500 0.175000
v 1.164098 0.308500 0.100000
v 1.074098 0.308500 0.100000
v 1.164098 0.283500 0.100000
v 1.074098 0.283500 0.100000
v 1.164098 0.308500 0.175000
v 1.074098 0.308500 0.175000
v 1.164098 0.283500 0.175000
v 1.074098 0.283500 0.175000
v 1.177598 -0.216500 0.175000
v 1.060598 -0.216500 0.175000
v 1.177598 -0.166500 0.175000
v 1.060598 -0.166500 0.175000
v 1.177598 0.333500 0.175000
v 1.060598 0.333500 0.175000
v 1.177598 0.283500 0.175000
v 1.060598 0.283500 0.175000
v 1.177598 -0.216500 0.225000
v 1.060598 -0.216500 0.225000
v 1.177598 -0.166500 0.225000
v 1.060598 -0.166500 0.225000
v 1.177598 0.333500 0.225000
v 1.060598 0.333500 0.225000
v 1.177598 0.283500 0.225000
v 1.060598 0.283500 0.225000
vt 1.004234 0.963160
vt 1.004234 0.599610
vt 0.967879 0.599610
vt 0.967879 0.963160
vt 0.495263 0.999516
vt 0.967879 0.999516
vt 0.495263 0.963160
vt 0.458908 0.599609
vt 0.458908 0.963160
vt 0.495263 0.599609
vt 0.092368 0.155562
vt 0.092368 0.198930
vt 0.056228 0.198930
vt 0.056228 0.155562
vt 0.056228 0.254345
vt 0.056228 0.210977
vt 0.092368 0.210977
vt 0.092368 0.254345
vt 0.068274 0.254594
vt 0.068274 0.290734
vt 0.056228 0.290734
vt 0.056228 0.254594
vt 0.092368 0.056530
vt 0.092368 0.099898
vt 0.056228 0.099898
vt 0.056228 0.056530
vt 0.056228 0.155313
vt 0.056228 0.111945
vt 0.092368 0.111945
vt 0.092368 0.155313
vt 0.056228 0.044483
vt 0.092368 0.044483
vt 0.145553 0.047140
vt 0.145552 0.263981
vt 0.102184 0.263981
vt 0.102185 0.047140
vt 0.152058 0.047140
vt 0.152057 0.263981
vt 0.152057 0.288075
vt 0.145552 0.276028
vt 0.145553 0.035094
vt 0.102185 0.035094
vt 0.095680 0.023047
vt 0.152058 0.023047
vt 0.095680 0.047140
vt 0.095678 0.263981
vt 0.095678 0.288075
vt 0.102184 0.276028
vt 0.176151 0.312168
vt 0.176151 0.288075
vt 0.232530 0.288075
vt 0.232530 0.312168
vt 0.256623 0.288075
vt 0.232530 0.263981
vt 0.256623 0.263981
vt 0.176151 0.023047
vt 0.176151 0.047140
vt 0.176151 0.263981
vt 0.176151 -0.001046
vt 0.232530 -0.001046
vt 0.232530 0.023047
vt 0.256623 0.023047
vt 0.256623 0.047140
vt 0.232530 0.047140
vt 0.967879 0.563254
vt 0.495263 0.563254
vt 0.967880 0.199703
vt 0.495264 0.199703
vn 1.0000 0.0000 0.0000
vn 0.0000 -1.0000 0.0000
vn -1.0000 0.0000 -0.0000
vn 0.0000 1.0000 0.0000
vn 0.0000 0.0000 -1.0000
vn 0.0000 0.0000 1.0000
s off
f 3/1/1 1/2/1 5/3/1 6/4/1
f 4/5/2 3/6/2 6/4/2 8/7/2
f 2/8/3 4/9/3 8/7/3 7/10/3
f 11/11/4 12/12/4 16/13/4 15/14/4
f 13/15/2 14/16/2 10/17/2 9/18/2
f 11/19/1 15/20/1 13/21/1 9/22/1
f 16/13/3 12/12/3 10/17/3 14/16/3
f 19/23/4 20/24/4 24/25/4 23/26/4
f 21/27/2 22/28/2 18/29/2 17/30/2
f 19/23/3 23/26/3 21/31/3 17/32/3
f 24/25/1 20/24/1 18/29/1 22/28/1
f 16/33/5 24/34/5 23/35/5 15/36/5
f 24/34/5 16/33/5 28/37/5 32/38/5
f 24/34/5 32/38/5 30/39/5 22/40/5
f 14/41/5 13/42/5 25/43/5 26/44/5
f 13/42/5 15/36/5 27/45/5 25/43/5
f 15/36/5 23/35/5 31/46/5 27/45/5
f 22/40/5 30/39/5 29/47/5 21/48/5
f 16/33/5 14/41/5 26/44/5 28/37/5
f 21/48/5 29/47/5 31/46/5 23/35/5
f 30/49/4 38/50/4 37/51/4 29/52/4
f 29/53/1 37/51/1 39/54/1 31/55/1
f 28/37/3 26/44/3 34/56/3 36/57/3
f 32/38/3 28/37/3 36/57/3 40/58/3
f 32/38/3 40/58/3 38/50/3 30/39/3
f 26/59/2 25/60/2 33/61/2 34/56/2
f 25/62/1 27/63/1 35/64/1 33/61/1
f 27/63/1 31/55/1 39/54/1 35/64/1
f 35/64/6 39/54/6 40/58/6 36/57/6
f 36/57/6 34/56/6 33/61/6 35/64/6
f 40/58/6 39/54/6 37/51/6 38/50/6
f 5/3/4 1/65/4 2/66/4 7/10/4
f 3/67/5 4/68/5 2/66/5 1/65/5
f 6/4/6 5/3/6 7/10/6 8/7/6
