# Converted from B3D for Luanti (With Correct Normals)
# Object Name: multidecor_bathroom_fluffy_rug

v 0.600000 -0.865000 -0.420000
v 0.900000 -0.865000 -0.420000
v 0.810000 -0.865000 -0.567000
v 0.600000 -0.865000 -0.630000
v -0.810000 -1.000000 -0.567000
v -0.810000 -0.865000 -0.567000
v -0.600000 -0.865000 -0.630000
v -0.600000 -1.000000 -0.630000
v 0.810000 -1.000000 -0.567000
v 0.810000 -0.865000 -0.567000
v 0.900000 -0.865000 -0.420000
v 0.900000 -1.000000 -0.420000
v -0.600000 -1.000000 -0.420000
v -0.900000 -1.000000 -0.420000
v -0.810000 -1.000000 -0.567000
v -0.600000 -1.000000 -0.630000
v -0.810000 -1.000000 0.567000
v -0.810000 -0.865000 0.567000
v -0.900000 -0.865000 0.420000
v -0.900000 -1.000000 0.420000
v 0.810000 -1.000000 0.567000
v 0.810000 -0.865000 0.567000
v 0.600000 -0.865000 0.630000
v 0.600000 -1.000000 0.630000
v -0.600000 -1.000000 0.630000
v -0.600000 -0.865000 0.630000
v -0.810000 -0.865000 0.567000
v -0.810000 -1.000000 0.567000
v 0.600000 -1.000000 0.630000
v 0.600000 -0.865000 0.630000
v -0.600000 -0.865000 0.630000
v -0.600000 -1.000000 0.630000
v -0.900000 -1.000000 -0.420000
v -0.900000 -0.865000 -0.420000
v -0.810000 -0.865000 -0.567000
v -0.810000 -1.000000 -0.567000
v -0.900000 -1.000000 0.420000
v -0.900000 -0.865000 0.420000
v -0.900000 -0.865000 -0.420000
v -0.900000 -1.000000 -0.420000
v 0.900000 -1.000000 -0.420000
v 0.600000 -1.000000 -0.420000
v 0.600000 -1.000000 -0.630000
v 0.810000 -1.000000 -0.567000
v 0.600000 -1.000000 -0.420000
v -0.600000 -1.000000 -0.420000
v -0.600000 -1.000000 -0.630000
v 0.600000 -1.000000 -0.630000
v 0.810000 -1.000000 0.567000
v 0.600000 -1.000000 0.630000
v 0.600000 -1.000000 0.420000
v 0.900000 -1.000000 0.420000
v 0.900000 -1.000000 0.420000
v 0.600000 -1.000000 0.420000
v 0.600000 -1.000000 -0.420000
v 0.900000 -1.000000 -0.420000
v 0.600000 -1.000000 0.630000
v -0.600000 -1.000000 0.630000
v -0.600000 -1.000000 0.420000
v 0.600000 -1.000000 0.420000
v 0.600000 -1.000000 0.420000
v -0.600000 -1.000000 0.420000
v -0.600000 -1.000000 -0.420000
v 0.600000 -1.000000 -0.420000
v -0.600000 -1.000000 0.630000
v -0.810000 -1.000000 0.567000
v -0.900000 -1.000000 0.420000
v -0.600000 -1.000000 0.420000
v -0.600000 -1.000000 0.420000
v -0.900000 -1.000000 0.420000
v -0.900000 -1.000000 -0.420000
v -0.600000 -1.000000 -0.420000
v 0.900000 -1.000000 0.420000
v 0.900000 -0.865000 0.420000
v 0.810000 -0.865000 0.567000
v 0.810000 -1.000000 0.567000
v 0.900000 -1.000000 -0.420000
v 0.900000 -0.865000 -0.420000
v 0.900000 -0.865000 0.420000
v 0.900000 -1.000000 0.420000
v 0.600000 -1.000000 -0.630000
v 0.600000 -0.865000 -0.630000
v 0.810000 -0.865000 -0.567000
v 0.810000 -1.000000 -0.567000
v -0.600000 -1.000000 -0.630000
v -0.600000 -0.865000 -0.630000
v 0.600000 -0.865000 -0.630000
v 0.600000 -1.000000 -0.630000
v -0.900000 -0.865000 -0.420000
v -0.600000 -0.865000 -0.420000
v -0.600000 -0.865000 -0.630000
v -0.810000 -0.865000 -0.567000
v -0.600000 -0.865000 -0.420000
v 0.600000 -0.865000 -0.420000
v 0.600000 -0.865000 -0.630000
v -0.600000 -0.865000 -0.630000
v -0.810000 -0.865000 0.567000
v -0.600000 -0.865000 0.630000
v -0.600000 -0.865000 0.420000
v -0.900000 -0.865000 0.420000
v -0.900000 -0.865000 0.420000
v -0.600000 -0.865000 0.420000
v -0.600000 -0.865000 -0.420000
v -0.900000 -0.865000 -0.420000
v -0.600000 -0.865000 0.630000
v 0.600000 -0.865000 0.630000
v 0.600000 -0.865000 0.420000
v -0.600000 -0.865000 0.420000
v -0.600000 -0.865000 0.420000
v 0.600000 -0.865000 0.420000
v 0.600000 -0.865000 -0.420000
v -0.600000 -0.865000 -0.420000
v 0.600000 -0.865000 0.630000
v 0.810000 -0.865000 0.567000
v 0.900000 -0.865000 0.420000
v 0.600000 -0.865000 0.420000
v 0.600000 -0.865000 0.420000
v 0.900000 -0.865000 0.420000
v 0.900000 -0.865000 -0.420000
v 0.600000 -0.865000 -0.420000

vt 0.664972 0.050075
vt 0.583319 0.166722
vt 0.583319 0.000084
vt 0.699967 0.166722
vt 0.583319 0.166722
vt 0.664972 0.050075
vt 0.082482 0.133888
vt 0.000107 0.000106
vt 0.082482 0.000106
vt 0.000107 0.133888
vt 0.000107 0.000106
vt 0.082482 0.133888
vt 0.165283 0.617838
vt 0.247658 0.723011
vt 0.165283 0.723011
vt 0.247658 0.617838
vt 0.247658 0.723011
vt 0.165283 0.617838
vt 0.949925 0.664972
vt 0.833277 0.583319
vt 0.999916 0.583319
vt 0.833277 0.699967
vt 0.833277 0.583319
vt 0.949925 0.664972
vt 0.330246 0.105280
vt 0.247870 0.000106
vt 0.330246 0.000106
vt 0.247870 0.105280
vt 0.247870 0.000106
vt 0.330246 0.105280
vt 0.082695 0.866112
vt 0.165070 0.999894
vt 0.082695 0.999894
vt 0.165070 0.866112
vt 0.165070 0.999894
vt 0.082695 0.866112
vt 0.082694 0.000106
vt 0.165070 0.133888
vt 0.082694 0.133888
vt 0.165070 0.000106
vt 0.165070 0.133888
vt 0.082694 0.000106
vt 0.082694 0.133888
vt 0.165070 0.866112
vt 0.082695 0.866112
vt 0.165070 0.133888
vt 0.165070 0.866112
vt 0.082694 0.133888
vt 0.330246 0.723011
vt 0.247870 0.617837
vt 0.330246 0.617837
vt 0.247870 0.723011
vt 0.247870 0.617837
vt 0.330246 0.723011
vt 0.330246 0.617837
vt 0.247870 0.105280
vt 0.330246 0.105280
vt 0.247870 0.617837
vt 0.247870 0.105280
vt 0.330246 0.617837
vt 0.166722 0.699966
vt 0.000084 0.583319
vt 0.166722 0.583319
vt 0.050075 0.664972
vt 0.000084 0.583319
vt 0.166722 0.699966
vt 0.833277 0.699967
vt 0.166722 0.583319
vt 0.833277 0.583319
vt 0.166722 0.699966
vt 0.166722 0.583319
vt 0.833277 0.699967
vt 0.166722 0.116731
vt 0.050075 0.035078
vt 0.166722 0.000084
vt 0.000084 0.116731
vt 0.050075 0.035078
vt 0.166722 0.116731
vt 0.166722 0.583319
vt 0.000084 0.116731
vt 0.166722 0.116731
vt 0.000084 0.583319
vt 0.000084 0.116731
vt 0.166722 0.583319
vt 0.833277 0.116731
vt 0.166722 0.000084
vt 0.833277 0.000084
vt 0.166722 0.116731
vt 0.166722 0.000084
vt 0.833277 0.116731
vt 0.833277 0.583319
vt 0.166722 0.116731
vt 0.833277 0.116731
vt 0.166722 0.583319
vt 0.166722 0.116731
vt 0.833277 0.583319
vt 0.999916 0.116731
vt 0.833277 0.000084
vt 0.949925 0.035078
vt 0.833277 0.116731
vt 0.833277 0.000084
vt 0.999916 0.116731
vt 0.999916 0.583319
vt 0.833277 0.116731
vt 0.999916 0.116731
vt 0.833277 0.583319
vt 0.833277 0.116731
vt 0.999916 0.583319
vt 0.165282 0.000106
vt 0.247658 0.105280
vt 0.165282 0.105280
vt 0.247658 0.000106
vt 0.247658 0.105280
vt 0.165282 0.000106
vt 0.165282 0.105280
vt 0.247658 0.617838
vt 0.165283 0.617838
vt 0.247658 0.105280
vt 0.247658 0.617838
vt 0.165282 0.105280
vt 0.082482 0.999893
vt 0.000106 0.866112
vt 0.082482 0.866112
vt 0.000106 0.999893
vt 0.000106 0.866112
vt 0.082482 0.999893
vt 0.082482 0.866112
vt 0.000107 0.133888
vt 0.082482 0.133888
vt 0.000106 0.866112
vt 0.000107 0.133888
vt 0.082482 0.866112
vt 0.699967 0.833277
vt 0.583320 0.999916
vt 0.583319 0.833277
vt 0.664972 0.949924
vt 0.583320 0.999916
vt 0.699967 0.833277
vt 0.699967 0.166722
vt 0.583319 0.833277
vt 0.583319 0.166722
vt 0.699967 0.833277
vt 0.583319 0.833277
vt 0.699967 0.166722
vt 0.116731 0.833278
vt 0.035078 0.949925
vt 0.000084 0.833278
vt 0.116731 0.999916
vt 0.035078 0.949925
vt 0.116731 0.833278
vt 0.583319 0.833277
vt 0.116731 0.999916
vt 0.116731 0.833278
vt 0.583320 0.999916
vt 0.116731 0.999916
vt 0.583319 0.833277
vt 0.116731 0.166723
vt 0.000084 0.833278
vt 0.000084 0.166723
vt 0.116731 0.833278
vt 0.000084 0.833278
vt 0.116731 0.166723
vt 0.583319 0.166722
vt 0.116731 0.833278
vt 0.116731 0.166723
vt 0.583319 0.833277
vt 0.116731 0.833278
vt 0.583319 0.166722
vt 0.116731 0.000084
vt 0.000084 0.166723
vt 0.035078 0.050075
vt 0.116731 0.166723
vt 0.000084 0.166723
vt 0.116731 0.000084
vt 0.583319 0.000084
vt 0.116731 0.166723
vt 0.116731 0.000084
vt 0.583319 0.166722
vt 0.116731 0.166723
vt 0.583319 0.000084

vn -0.000000 1.000000 0.000000
vn -0.000000 1.000000 0.000000
vn -0.000000 1.000000 0.000000
vn -0.000000 1.000000 0.000000
vn -0.000000 1.000000 0.000000
vn -0.000000 1.000000 0.000000
vn -0.287348 0.000000 -0.957826
vn -0.287348 0.000000 -0.957826
vn -0.287348 0.000000 -0.957826
vn -0.287348 0.000000 -0.957826
vn -0.287348 0.000000 -0.957826
vn -0.287348 0.000000 -0.957826
vn 0.852851 0.000000 -0.522154
vn 0.852851 0.000000 -0.522154
vn 0.852851 0.000000 -0.522154
vn 0.852851 0.000000 -0.522154
vn 0.852851 0.000000 -0.522154
vn 0.852851 0.000000 -0.522154
vn -0.000000 -1.000000 0.000000
vn -0.000000 -1.000000 0.000000
vn -0.000000 -1.000000 0.000000
vn -0.000000 -1.000000 0.000000
vn -0.000000 -1.000000 0.000000
vn -0.000000 -1.000000 0.000000
vn -0.852851 0.000000 0.522154
vn -0.852851 0.000000 0.522154
vn -0.852851 0.000000 0.522154
vn -0.852851 0.000000 0.522154
vn -0.852851 0.000000 0.522154
vn -0.852851 0.000000 0.522154
vn 0.287348 0.000000 0.957826
vn 0.287348 0.000000 0.957826
vn 0.287348 0.000000 0.957826
vn 0.287348 0.000000 0.957826
vn 0.287348 0.000000 0.957826
vn 0.287348 0.000000 0.957826
vn -0.287348 0.000000 0.957826
vn -0.287348 0.000000 0.957826
vn -0.287348 0.000000 0.957826
vn -0.287348 0.000000 0.957826
vn -0.287348 0.000000 0.957826
vn -0.287348 0.000000 0.957826
vn -0.000000 0.000000 1.000000
vn -0.000000 0.000000 1.000000
vn -0.000000 0.000000 1.000000
vn -0.000000 0.000000 1.000000
vn -0.000000 0.000000 1.000000
vn -0.000000 0.000000 1.000000
vn -0.852851 0.000000 -0.522154
vn -0.852851 0.000000 -0.522154
vn -0.852851 0.000000 -0.522154
vn -0.852851 0.000000 -0.522154
vn -0.852851 0.000000 -0.522154
vn -0.852851 0.000000 -0.522154
vn -1.000000 0.000000 0.000000
vn -1.000000 0.000000 0.000000
vn -1.000000 0.000000 0.000000
vn -1.000000 0.000000 0.000000
vn -1.000000 0.000000 0.000000
vn -1.000000 0.000000 0.000000
vn -0.000000 -1.000000 0.000000
vn -0.000000 -1.000000 0.000000
vn -0.000000 -1.000000 0.000000
vn -0.000000 -1.000000 0.000000
vn -0.000000 -1.000000 0.000000
vn -0.000000 -1.000000 0.000000
vn -0.000000 -1.000000 0.000000
vn -0.000000 -1.000000 0.000000
vn -0.000000 -1.000000 0.000000
vn -0.000000 -1.000000 0.000000
vn -0.000000 -1.000000 0.000000
vn -0.000000 -1.000000 0.000000
vn -0.000000 -1.000000 0.000000
vn -0.000000 -1.000000 0.000000
vn -0.000000 -1.000000 0.000000
vn -0.000000 -1.000000 0.000000
vn -0.000000 -1.000000 0.000000
vn -0.000000 -1.000000 0.000000
vn -0.000000 -1.000000 0.000000
vn -0.000000 -1.000000 0.000000
vn -0.000000 -1.000000 0.000000
vn -0.000000 -1.000000 0.000000
vn -0.000000 -1.000000 0.000000
vn -0.000000 -1.000000 0.000000
vn -0.000000 -1.000000 0.000000
vn -0.000000 -1.000000 0.000000
vn -0.000000 -1.000000 0.000000
vn -0.000000 -1.000000 0.000000
vn -0.000000 -1.000000 0.000000
vn -0.000000 -1.000000 0.000000
vn -0.000000 -1.000000 0.000000
vn -0.000000 -1.000000 0.000000
vn -0.000000 -1.000000 0.000000
vn -0.000000 -1.000000 0.000000
vn -0.000000 -1.000000 0.000000
vn -0.000000 -1.000000 0.000000
vn -0.000000 -1.000000 0.000000
vn -0.000000 -1.000000 0.000000
vn -0.000000 -1.000000 0.000000
vn -0.000000 -1.000000 0.000000
vn -0.000000 -1.000000 0.000000
vn -0.000000 -1.000000 0.000000
vn -0.000000 -1.000000 0.000000
vn -0.000000 -1.000000 0.000000
vn -0.000000 -1.000000 0.000000
vn -0.000000 -1.000000 0.000000
vn -0.000000 -1.000000 0.000000
vn -0.000000 -1.000000 0.000000
vn 0.852851 0.000000 0.522154
vn 0.852851 0.000000 0.522154
vn 0.852851 0.000000 0.522154
vn 0.852851 0.000000 0.522154
vn 0.852851 0.000000 0.522154
vn 0.852851 0.000000 0.522154
vn 1.000000 0.000000 0.000000
vn 1.000000 0.000000 0.000000
vn 1.000000 0.000000 0.000000
vn 1.000000 0.000000 0.000000
vn 1.000000 0.000000 0.000000
vn 1.000000 0.000000 0.000000
vn 0.287348 0.000000 -0.957826
vn 0.287348 0.000000 -0.957826
vn 0.287348 0.000000 -0.957826
vn 0.287348 0.000000 -0.957826
vn 0.287348 0.000000 -0.957826
vn 0.287348 0.000000 -0.957826
vn -0.000000 0.000000 -1.000000
vn -0.000000 0.000000 -1.000000
vn -0.000000 0.000000 -1.000000
vn -0.000000 0.000000 -1.000000
vn -0.000000 0.000000 -1.000000
vn -0.000000 0.000000 -1.000000
vn -0.000000 1.000000 0.000000
vn -0.000000 1.000000 0.000000
vn -0.000000 1.000000 0.000000
vn -0.000000 1.000000 0.000000
vn -0.000000 1.000000 0.000000
vn -0.000000 1.000000 0.000000
vn -0.000000 1.000000 0.000000
vn -0.000000 1.000000 0.000000
vn -0.000000 1.000000 0.000000
vn -0.000000 1.000000 0.000000
vn -0.000000 1.000000 0.000000
vn -0.000000 1.000000 0.000000
vn 0.000000 1.000000 0.000000
vn 0.000000 1.000000 0.000000
vn 0.000000 1.000000 0.000000
vn -0.000000 1.000000 0.000000
vn -0.000000 1.000000 0.000000
vn -0.000000 1.000000 0.000000
vn -0.000000 1.000000 0.000000
vn -0.000000 1.000000 0.000000
vn -0.000000 1.000000 0.000000
vn -0.000000 1.000000 0.000000
vn -0.000000 1.000000 0.000000
vn -0.000000 1.000000 0.000000
vn -0.000000 1.000000 0.000000
vn -0.000000 1.000000 0.000000
vn -0.000000 1.000000 0.000000
vn -0.000000 1.000000 0.000000
vn -0.000000 1.000000 0.000000
vn -0.000000 1.000000 0.000000
vn -0.000000 1.000000 0.000000
vn -0.000000 1.000000 0.000000
vn -0.000000 1.000000 0.000000
vn -0.000000 1.000000 0.000000
vn -0.000000 1.000000 0.000000
vn -0.000000 1.000000 0.000000
vn -0.000000 1.000000 0.000000
vn -0.000000 1.000000 0.000000
vn -0.000000 1.000000 0.000000
vn -0.000000 1.000000 0.000000
vn -0.000000 1.000000 0.000000
vn -0.000000 1.000000 0.000000
vn -0.000000 1.000000 0.000000
vn -0.000000 1.000000 0.000000
vn -0.000000 1.000000 0.000000
vn -0.000000 1.000000 0.000000
vn -0.000000 1.000000 0.000000
vn -0.000000 1.000000 0.000000

g Material
f 3/1/1 1/2/2 2/3/3
f 4/4/4 1/5/5 3/6/6
f 7/7/7 5/8/8 6/9/9
f 8/10/10 5/11/11 7/12/12
f 11/13/13 9/14/14 10/15/15
f 12/16/16 9/17/17 11/18/18
f 15/19/19 13/20/20 14/21/21
f 16/22/22 13/23/23 15/24/24
f 19/25/25 17/26/26 18/27/27
f 20/28/28 17/29/29 19/30/30
f 23/31/31 21/32/32 22/33/33
f 24/34/34 21/35/35 23/36/36
f 27/37/37 25/38/38 26/39/39
f 28/40/40 25/41/41 27/42/42
f 31/43/43 29/44/44 30/45/45
f 32/46/46 29/47/47 31/48/48
f 35/49/49 33/50/50 34/51/51
f 36/52/52 33/53/53 35/54/54
f 39/55/55 37/56/56 38/57/57
f 40/58/58 37/59/59 39/60/60
f 43/61/61 41/62/62 42/63/63
f 44/64/64 41/65/65 43/66/66
f 47/67/67 45/68/68 46/69/69
f 48/70/70 45/71/71 47/72/72
f 51/73/73 49/74/74 50/75/75
f 52/76/76 49/77/77 51/78/78
f 55/79/79 53/80/80 54/81/81
f 56/82/82 53/83/83 55/84/84
f 59/85/85 57/86/86 58/87/87
f 60/88/88 57/89/89 59/90/90
f 63/91/91 61/92/92 62/93/93
f 64/94/94 61/95/95 63/96/96
f 67/97/97 65/98/98 66/99/99
f 68/100/100 65/101/101 67/102/102
f 71/103/103 69/104/104 70/105/105
f 72/106/106 69/107/107 71/108/108
f 75/109/109 73/110/110 74/111/111
f 76/112/112 73/113/113 75/114/114
f 79/115/115 77/116/116 78/117/117
f 80/118/118 77/119/119 79/120/120
f 83/121/121 81/122/122 82/123/123
f 84/124/124 81/125/125 83/126/126
f 87/127/127 85/128/128 86/129/129
f 88/130/130 85/131/131 87/132/132
f 91/133/133 89/134/134 90/135/135
f 92/136/136 89/137/137 91/138/138
f 95/139/139 93/140/140 94/141/141
f 96/142/142 93/143/143 95/144/144
f 99/145/145 97/146/146 98/147/147
f 100/148/148 97/149/149 99/150/150
f 103/151/151 101/152/152 102/153/153
f 104/154/154 101/155/155 103/156/156
f 107/157/157 105/158/158 106/159/159
f 108/160/160 105/161/161 107/162/162
f 111/163/163 109/164/164 110/165/165
f 112/166/166 109/167/167 111/168/168
f 115/169/169 113/170/170 114/171/171
f 116/172/172 113/173/173 115/174/174
f 119/175/175 117/176/176 118/177/177
f 120/178/178 117/179/179 119/180/180

