# Converted from B3D for Luanti (With Correct Normals)
# Object Name: multidecor_upscaled_ext_quadratic_painting

v 1.000000 3.000000 0.800000
v -3.000000 3.000000 0.800000
v -3.000000 3.000000 1.000000
v 1.000000 3.000000 1.000000
v 1.000000 -1.000000 1.000000
v 1.000000 3.000000 1.000000
v -3.000000 3.000000 1.000000
v -3.000000 -1.000000 1.000000
v 1.000000 -1.000000 0.800000
v 1.000000 3.000000 0.800000
v 1.000000 3.000000 1.000000
v 1.000000 -1.000000 1.000000
v 1.000000 3.000000 0.800000
v 1.000000 -1.000000 0.800000
v 0.850000 -0.850000 0.800000
v 0.850000 2.850000 0.800000
v 0.850000 2.850000 0.800000
v 0.850000 -0.850000 0.800000
v 0.850000 -0.850000 0.900000
v 0.850000 2.850000 0.900000
v 1.000000 -1.000000 0.800000
v -3.000000 -1.000000 0.800000
v -3.000000 -0.850000 0.800000
v 0.850000 -0.850000 0.800000
v -3.000000 -0.850000 0.900000
v -3.000000 2.850000 0.900000
v 0.850000 2.850000 0.900000
v 0.850000 -0.850000 0.900000
v 0.850000 -0.850000 0.800000
v -3.000000 -0.850000 0.800000
v -3.000000 -0.850000 0.900000
v 0.850000 -0.850000 0.900000
v -3.000000 2.850000 0.800000
v 0.850000 2.850000 0.800000
v 0.850000 2.850000 0.900000
v -3.000000 2.850000 0.900000
v -3.000000 2.850000 0.800000
v -3.000000 3.000000 0.800000
v 1.000000 3.000000 0.800000
v 0.850000 2.850000 0.800000
v -3.000000 -1.000000 1.000000
v -3.000000 -1.000000 0.800000
v 1.000000 -1.000000 0.800000
v 1.000000 -1.000000 1.000000
v -7.000000 3.000000 0.800000
v -7.000000 3.000000 1.000000
v -3.000000 3.000000 1.000000
v -3.000000 3.000000 0.800000
v -7.000000 -1.000000 1.000000
v -3.000000 -1.000000 1.000000
v -3.000000 3.000000 1.000000
v -7.000000 3.000000 1.000000
v -7.000000 -1.000000 0.800000
v -7.000000 -1.000000 1.000000
v -7.000000 3.000000 1.000000
v -7.000000 3.000000 0.800000
v -7.000000 3.000000 0.800000
v -6.850000 2.850000 0.800000
v -6.850000 -0.850000 0.800000
v -7.000000 -1.000000 0.800000
v -6.850000 2.850000 0.800000
v -6.850000 2.850000 0.900000
v -6.850000 -0.850000 0.900000
v -6.850000 -0.850000 0.800000
v -7.000000 -1.000000 0.800000
v -6.850000 -0.850000 0.800000
v -3.000000 -0.850000 0.800000
v -3.000000 -1.000000 0.800000
v -3.000000 -0.850000 0.900000
v -6.850000 -0.850000 0.900000
v -6.850000 2.850000 0.900000
v -3.000000 2.850000 0.900000
v -6.850000 -0.850000 0.800000
v -6.850000 -0.850000 0.900000
v -3.000000 -0.850000 0.900000
v -3.000000 -0.850000 0.800000
v -3.000000 2.850000 0.800000
v -3.000000 2.850000 0.900000
v -6.850000 2.850000 0.900000
v -6.850000 2.850000 0.800000
v -3.000000 2.850000 0.800000
v -6.850000 2.850000 0.800000
v -7.000000 3.000000 0.800000
v -3.000000 3.000000 0.800000
v -3.000000 -1.000000 1.000000
v -7.000000 -1.000000 1.000000
v -7.000000 -1.000000 0.800000
v -3.000000 -1.000000 0.800000

vt 0.500000 0.040337
vt 0.959663 0.017354
vt 0.500000 0.017354
vt 0.959663 0.040337
vt 0.959663 0.017354
vt 0.500000 0.040337
vt 0.500000 0.040337
vt 0.959663 0.500001
vt 0.959663 0.040337
vt 0.500000 0.500001
vt 0.959663 0.500001
vt 0.500000 0.040337
vt 0.959663 0.040337
vt 0.982647 0.500001
vt 0.982647 0.040337
vt 0.959663 0.500001
vt 0.982647 0.500001
vt 0.959663 0.040337
vt 0.999884 0.482763
vt 0.982647 0.040337
vt 0.982647 0.500001
vt 0.999884 0.057574
vt 0.982647 0.040337
vt 0.999884 0.482763
vt 0.501167 0.540453
vt 0.489674 0.965635
vt 0.489675 0.540453
vt 0.501167 0.965635
vt 0.489674 0.965635
vt 0.501167 0.540453
vt 0.500000 0.540221
vt 0.959663 0.522984
vt 0.500000 0.522984
vt 0.942426 0.540222
vt 0.959663 0.522984
vt 0.500000 0.540221
vt 0.454270 0.551945
vt 0.011840 0.540454
vt 0.454270 0.540453
vt 0.011840 0.551945
vt 0.011840 0.540454
vt 0.454270 0.551945
vt 0.011608 0.540453
vt 0.000117 0.982884
vt 0.000116 0.540453
vt 0.011608 0.982884
vt 0.000117 0.982884
vt 0.011608 0.540453
vt 0.959663 0.017354
vt 0.500000 0.000116
vt 0.500000 0.017354
vt 0.942425 0.000116
vt 0.500000 0.000116
vt 0.959663 0.017354
vt 0.959663 0.522984
vt 0.500000 0.500001
vt 0.500000 0.522984
vt 0.959663 0.500001
vt 0.500000 0.500001
vt 0.959663 0.522984
vt 0.500000 0.040337
vt 0.040336 0.017355
vt 0.040337 0.040337
vt 0.500000 0.017354
vt 0.040336 0.017355
vt 0.500000 0.040337
vt 0.500000 0.040337
vt 0.040337 0.500001
vt 0.500000 0.500001
vt 0.040337 0.040337
vt 0.040337 0.500001
vt 0.500000 0.040337
vt 0.040337 0.040337
vt 0.017353 0.500001
vt 0.040337 0.500001
vt 0.017353 0.040337
vt 0.017353 0.500001
vt 0.040337 0.040337
vt 0.000116 0.482763
vt 0.017353 0.040337
vt 0.000116 0.057575
vt 0.017353 0.500001
vt 0.017353 0.040337
vt 0.000116 0.482763
vt 0.489442 0.540453
vt 0.477950 0.965635
vt 0.489442 0.965635
vt 0.477951 0.540453
vt 0.477950 0.965635
vt 0.489442 0.540453
vt 0.500000 0.540221
vt 0.040336 0.522983
vt 0.057574 0.540221
vt 0.500000 0.522984
vt 0.040336 0.522983
vt 0.500000 0.540221
vt 0.466227 0.982875
vt 0.477718 0.540453
vt 0.466226 0.540454
vt 0.477718 0.982875
vt 0.477718 0.540453
vt 0.466227 0.982875
vt 0.465994 0.540453
vt 0.454502 0.982875
vt 0.465994 0.982875
vt 0.454503 0.540453
vt 0.454502 0.982875
vt 0.465994 0.540453
vt 0.040336 0.017355
vt 0.500000 0.000116
vt 0.057574 0.000117
vt 0.500000 0.017354
vt 0.500000 0.000116
vt 0.040336 0.017355
vt 0.040336 0.522983
vt 0.500000 0.500001
vt 0.040337 0.500001
vt 0.500000 0.522984
vt 0.500000 0.500001
vt 0.040336 0.522983
vt 0.000069 0.998965
vt 0.500000 -0.002114
vt 0.500000 0.998965
vt 0.000069 -0.002114
vt 0.500000 -0.002114
vt 0.000069 0.998965
vt 0.999931 0.998965
vt 0.500000 -0.002114
vt 0.999931 -0.002114
vt 0.500000 0.998965
vt 0.500000 -0.002114
vt 0.999931 0.998965

vn -0.000000 1.000000 0.000000
vn -0.000000 1.000000 0.000000
vn -0.000000 1.000000 0.000000
vn -0.000000 1.000000 0.000000
vn -0.000000 1.000000 0.000000
vn -0.000000 1.000000 0.000000
vn 0.000000 0.000000 1.000000
vn 0.000000 0.000000 1.000000
vn 0.000000 0.000000 1.000000
vn 0.000000 0.000000 1.000000
vn 0.000000 0.000000 1.000000
vn 0.000000 0.000000 1.000000
vn 1.000000 0.000000 0.000000
vn 1.000000 0.000000 0.000000
vn 1.000000 0.000000 0.000000
vn 1.000000 0.000000 -0.000001
vn 1.000000 0.000000 -0.000001
vn 1.000000 0.000000 -0.000001
vn -0.000000 0.000000 -1.000000
vn -0.000000 0.000000 -1.000000
vn -0.000000 0.000000 -1.000000
vn -0.000000 0.000000 -1.000000
vn -0.000000 0.000000 -1.000000
vn -0.000000 0.000000 -1.000000
vn -1.000000 0.000000 0.000000
vn -1.000000 0.000000 0.000000
vn -1.000000 0.000000 0.000000
vn -1.000000 0.000000 0.000001
vn -1.000000 0.000000 0.000001
vn -1.000000 0.000000 0.000001
vn -0.000000 0.000000 -1.000000
vn -0.000000 0.000000 -1.000000
vn -0.000000 0.000000 -1.000000
vn -0.000000 0.000001 -1.000000
vn -0.000000 0.000001 -1.000000
vn -0.000000 0.000001 -1.000000
vn -0.000000 1.000000 0.000000
vn -0.000000 1.000000 0.000000
vn -0.000000 1.000000 0.000000
vn -0.000000 1.000000 0.000000
vn -0.000000 1.000000 0.000000
vn -0.000000 1.000000 0.000000
vn -0.000000 -1.000000 0.000000
vn -0.000000 -1.000000 0.000000
vn -0.000000 -1.000000 0.000000
vn -0.000000 -1.000000 0.000000
vn -0.000000 -1.000000 0.000000
vn -0.000000 -1.000000 0.000000
vn -0.000000 0.000000 -1.000000
vn -0.000000 0.000000 -1.000000
vn -0.000000 0.000000 -1.000000
vn -0.000000 -0.000001 -1.000000
vn -0.000000 -0.000001 -1.000000
vn -0.000000 -0.000001 -1.000000
vn -0.000000 -1.000000 0.000000
vn -0.000000 -1.000000 0.000000
vn -0.000000 -1.000000 0.000000
vn -0.000000 -1.000000 0.000000
vn -0.000000 -1.000000 0.000000
vn -0.000000 -1.000000 0.000000
vn -0.000000 1.000000 0.000000
vn -0.000000 1.000000 0.000000
vn -0.000000 1.000000 0.000000
vn -0.000000 1.000000 0.000000
vn -0.000000 1.000000 0.000000
vn -0.000000 1.000000 0.000000
vn -0.000000 0.000000 1.000000
vn -0.000000 0.000000 1.000000
vn -0.000000 0.000000 1.000000
vn -0.000000 0.000000 1.000000
vn -0.000000 0.000000 1.000000
vn -0.000000 0.000000 1.000000
vn -1.000000 0.000000 0.000000
vn -1.000000 0.000000 0.000000
vn -1.000000 0.000000 0.000000
vn -1.000000 0.000000 0.000000
vn -1.000000 0.000000 0.000000
vn -1.000000 0.000000 0.000000
vn 0.000000 0.000000 -1.000000
vn 0.000000 0.000000 -1.000000
vn 0.000000 0.000000 -1.000000
vn 0.000000 0.000000 -1.000000
vn 0.000000 0.000000 -1.000000
vn 0.000000 0.000000 -1.000000
vn 1.000000 0.000000 0.000000
vn 1.000000 0.000000 0.000000
vn 1.000000 0.000000 0.000000
vn 1.000000 0.000000 0.000000
vn 1.000000 0.000000 0.000000
vn 1.000000 0.000000 0.000000
vn 0.000000 -0.000000 -1.000000
vn 0.000000 -0.000000 -1.000000
vn 0.000000 -0.000000 -1.000000
vn 0.000000 0.000000 -1.000000
vn 0.000000 0.000000 -1.000000
vn 0.000000 0.000000 -1.000000
vn -0.000000 1.000000 0.000000
vn -0.000000 1.000000 0.000000
vn -0.000000 1.000000 0.000000
vn -0.000000 1.000000 0.000000
vn -0.000000 1.000000 0.000000
vn -0.000000 1.000000 0.000000
vn -0.000000 -1.000000 0.000000
vn -0.000000 -1.000000 0.000000
vn -0.000000 -1.000000 0.000000
vn -0.000000 -1.000000 0.000000
vn -0.000000 -1.000000 0.000000
vn -0.000000 -1.000000 0.000000
vn 0.000000 0.000000 -1.000000
vn 0.000000 0.000000 -1.000000
vn 0.000000 0.000000 -1.000000
vn 0.000000 0.000000 -1.000000
vn 0.000000 0.000000 -1.000000
vn 0.000000 0.000000 -1.000000
vn -0.000000 -1.000000 0.000000
vn -0.000000 -1.000000 0.000000
vn -0.000000 -1.000000 0.000000
vn -0.000000 -1.000000 0.000000
vn -0.000000 -1.000000 0.000000
vn -0.000000 -1.000000 0.000000
vn -0.000000 0.000000 -1.000000
vn -0.000000 0.000000 -1.000000
vn -0.000000 0.000000 -1.000000
vn -0.000000 0.000000 -1.000000
vn -0.000000 0.000000 -1.000000
vn -0.000000 0.000000 -1.000000
vn 0.000000 0.000000 -1.000000
vn 0.000000 0.000000 -1.000000
vn 0.000000 0.000000 -1.000000
vn 0.000000 0.000000 -1.000000
vn 0.000000 0.000000 -1.000000
vn 0.000000 0.000000 -1.000000

g Material
f 3/1/1 1/2/2 2/3/3
f 4/4/4 1/5/5 3/6/6
f 7/7/7 5/8/8 6/9/9
f 8/10/10 5/11/11 7/12/12
f 11/13/13 9/14/14 10/15/15
f 12/16/16 9/17/17 11/18/18
f 15/19/19 13/20/20 14/21/21
f 16/22/22 13/23/23 15/24/24
f 19/25/25 17/26/26 18/27/27
f 20/28/28 17/29/29 19/30/30
f 23/31/31 21/32/32 22/33/33
f 24/34/34 21/35/35 23/36/36
f 31/37/37 29/38/38 30/39/39
f 32/40/40 29/41/41 31/42/42
f 35/43/43 33/44/44 34/45/45
f 36/46/46 33/47/47 35/48/48
f 39/49/49 37/50/50 38/51/51
f 40/52/52 37/53/53 39/54/54
f 43/55/55 41/56/56 42/57/57
f 44/58/58 41/59/59 43/60/60
f 47/61/61 45/62/62 46/63/63
f 48/64/64 45/65/65 47/66/66
f 51/67/67 49/68/68 50/69/69
f 52/70/70 49/71/71 51/72/72
f 55/73/73 53/74/74 54/75/75
f 56/76/76 53/77/77 55/78/78
f 59/79/79 57/80/80 58/81/81
f 60/82/82 57/83/83 59/84/84
f 63/85/85 61/86/86 62/87/87
f 64/88/88 61/89/89 63/90/90
f 67/91/91 65/92/92 66/93/93
f 68/94/94 65/95/95 67/96/96
f 75/97/97 73/98/98 74/99/99
f 76/100/100 73/101/101 75/102/102
f 79/103/103 77/104/104 78/105/105
f 80/106/106 77/107/107 79/108/108
f 83/109/109 81/110/110 82/111/111
f 84/112/112 81/113/113 83/114/114
f 87/115/115 85/116/116 86/117/117
f 88/118/118 85/119/119 87/120/120

g Material.001
f 27/121/121 25/122/122 26/123/123
f 28/124/124 25/125/125 27/126/126
f 71/127/127 69/128/128 70/129/129
f 72/130/130 69/131/131 71/132/132

