# Converted from B3D for Luanti (With Correct Normals)
# Object Name: multidecor_slatted_ceiling_with_lamp

v -1.000000 1.000000 1.000000
v 1.000000 1.000000 1.000000
v 1.000000 1.000000 -1.000000
v -1.000000 1.000000 -1.000000
v -1.000000 0.700000 -1.000000
v -1.000000 1.000000 -1.000000
v 1.000000 1.000000 -1.000000
v 1.000000 0.700000 -1.000000
v 1.000000 0.700000 -1.000000
v 1.000000 1.000000 -1.000000
v 1.000000 1.000000 1.000000
v 1.000000 0.700000 1.000000
v 1.000000 0.700000 1.000000
v -1.000000 0.700000 1.000000
v -1.000000 0.700000 -1.000000
v 1.000000 0.700000 -1.000000
v -1.000000 0.700000 1.000000
v -1.000000 1.000000 1.000000
v -1.000000 1.000000 -1.000000
v -1.000000 0.700000 -1.000000
v 1.000000 0.700000 1.000000
v 1.000000 1.000000 1.000000
v -1.000000 1.000000 1.000000
v -1.000000 0.700000 1.000000
v -0.000000 0.500000 0.500000
v -0.000000 0.700000 0.500000
v -0.353553 0.700000 0.353553
v -0.353553 0.500000 0.353553
v -0.257883 0.550000 0.257883
v -0.257883 0.550000 -0.257883
v 0.257882 0.550000 -0.257883
v 0.257883 0.550000 0.257882
v -0.257883 0.550000 0.257883
v 0.257882 0.550000 -0.257883
v 0.257882 0.550000 -0.257883
v 0.364701 0.550000 0.000000
v 0.257883 0.550000 0.257882
v -0.257883 0.550000 -0.257883
v 0.000000 0.550000 -0.364701
v 0.257882 0.550000 -0.257883
v -0.257883 0.550000 0.257883
v -0.364701 0.550000 -0.000000
v -0.257883 0.550000 -0.257883
v 0.257883 0.550000 0.257882
v -0.000000 0.550000 0.364701
v -0.257883 0.550000 0.257883
v -0.353553 0.500000 0.353553
v -0.353553 0.700000 0.353553
v -0.500000 0.700000 -0.000000
v -0.500000 0.500000 -0.000000
v -0.500000 0.500000 -0.000000
v -0.500000 0.700000 -0.000000
v -0.353553 0.700000 -0.353553
v -0.353553 0.500000 -0.353553
v -0.353553 0.500000 -0.353553
v -0.353553 0.700000 -0.353553
v 0.000000 0.700000 -0.500000
v 0.000000 0.500000 -0.500000
v 0.000000 0.500000 -0.500000
v 0.000000 0.700000 -0.500000
v 0.353553 0.700000 -0.353553
v 0.353553 0.500000 -0.353553
v 0.353553 0.500000 -0.353553
v 0.353553 0.700000 -0.353553
v 0.500000 0.700000 0.000000
v 0.500000 0.500000 0.000000
v 0.500000 0.500000 0.000000
v 0.500000 0.700000 0.000000
v 0.353553 0.700000 0.353553
v 0.353553 0.500000 0.353553
v 0.353553 0.500000 0.353553
v 0.353553 0.700000 0.353553
v -0.000000 0.700000 0.500000
v -0.000000 0.500000 0.500000
v -0.000000 0.500000 0.364701
v -0.257883 0.500000 0.257883
v -0.257883 0.550000 0.257883
v -0.000000 0.550000 0.364701
v -0.257883 0.500000 0.257883
v -0.000000 0.500000 0.364701
v -0.000000 0.500000 0.500000
v -0.353553 0.500000 0.353553
v -0.364701 0.500000 -0.000000
v -0.257883 0.500000 0.257883
v -0.353553 0.500000 0.353553
v -0.500000 0.500000 -0.000000
v -0.257883 0.500000 -0.257883
v -0.364701 0.500000 -0.000000
v -0.500000 0.500000 -0.000000
v -0.353553 0.500000 -0.353553
v 0.000000 0.500000 -0.364701
v -0.257883 0.500000 -0.257883
v -0.353553 0.500000 -0.353553
v 0.000000 0.500000 -0.500000
v 0.257882 0.500000 -0.257883
v 0.000000 0.500000 -0.364701
v 0.000000 0.500000 -0.500000
v 0.353553 0.500000 -0.353553
v 0.364701 0.500000 0.000000
v 0.257882 0.500000 -0.257883
v 0.353553 0.500000 -0.353553
v 0.500000 0.500000 0.000000
v 0.257883 0.500000 0.257882
v 0.364701 0.500000 0.000000
v 0.500000 0.500000 0.000000
v 0.353553 0.500000 0.353553
v -0.000000 0.500000 0.364701
v 0.257883 0.500000 0.257882
v 0.353553 0.500000 0.353553
v -0.000000 0.500000 0.500000
v 0.257883 0.500000 0.257882
v -0.000000 0.500000 0.364701
v -0.000000 0.550000 0.364701
v 0.257883 0.550000 0.257882
v 0.257882 0.500000 -0.257883
v 0.364701 0.500000 0.000000
v 0.364701 0.550000 0.000000
v 0.257882 0.550000 -0.257883
v -0.257883 0.500000 -0.257883
v 0.000000 0.500000 -0.364701
v 0.000000 0.550000 -0.364701
v -0.257883 0.550000 -0.257883
v -0.257883 0.500000 0.257883
v -0.364701 0.500000 -0.000000
v -0.364701 0.550000 -0.000000
v -0.257883 0.550000 0.257883
v 0.364701 0.500000 0.000000
v 0.257883 0.500000 0.257882
v 0.257883 0.550000 0.257882
v 0.364701 0.550000 0.000000
v 0.000000 0.500000 -0.364701
v 0.257882 0.500000 -0.257883
v 0.257882 0.550000 -0.257883
v 0.000000 0.550000 -0.364701
v -0.364701 0.500000 -0.000000
v -0.257883 0.500000 -0.257883
v -0.257883 0.550000 -0.257883
v -0.364701 0.550000 -0.000000

vt 0.000000 1.156250
vt 1.000000 2.156250
vt 0.000000 2.156250
vt 1.000000 1.156250
vt 1.000000 2.156250
vt 0.000000 1.156250
vt 0.000000 1.156250
vt 1.000000 1.000000
vt 1.000000 1.156250
vt 0.000000 1.000000
vt 1.000000 1.000000
vt 0.000000 1.156250
vt -0.156250 0.000000
vt 0.000000 1.000000
vt -0.156250 1.000000
vt 0.000000 0.000000
vt 0.000000 1.000000
vt -0.156250 0.000000
vt 1.000000 1.000000
vt 0.000000 0.000000
vt 1.000000 0.000000
vt 0.000000 1.000000
vt 0.000000 0.000000
vt 1.000000 1.000000
vt 1.156250 1.000000
vt 1.000000 0.000000
vt 1.156250 0.000000
vt 1.000000 1.000000
vt 1.000000 0.000000
vt 1.156250 1.000000
vt 1.000000 -0.156250
vt 0.000000 0.000000
vt 0.000000 -0.156250
vt 1.000000 0.000000
vt 0.000000 0.000000
vt 1.000000 -0.156250
vt 0.751304 0.955661
vt 0.848859 0.644502
vt 0.955661 0.751304
vt 0.644502 0.848859
vt 0.848859 0.644502
vt 0.751304 0.955661
vt 0.355498 0.999900
vt 0.644502 0.848859
vt 0.644502 0.999900
vt 0.355498 0.848859
vt 0.644502 0.848859
vt 0.355498 0.999900
vt 0.044339 0.751304
vt 0.355498 0.848859
vt 0.248696 0.955661
vt 0.151141 0.644502
vt 0.355498 0.848859
vt 0.044339 0.751304
vt 0.000100 0.355498
vt 0.151141 0.644502
vt 0.000100 0.644502
vt 0.151141 0.355498
vt 0.151141 0.644502
vt 0.000100 0.355498
vt 0.248696 0.044339
vt 0.151141 0.355498
vt 0.044339 0.248696
vt 0.355498 0.151141
vt 0.151141 0.355498
vt 0.248696 0.044339
vt 0.644502 0.000100
vt 0.355498 0.151141
vt 0.355498 0.000100
vt 0.644502 0.151141
vt 0.355498 0.151141
vt 0.644502 0.000100
vt 0.955661 0.248696
vt 0.644502 0.151141
vt 0.751304 0.044339
vt 0.848859 0.355498
vt 0.644502 0.151141
vt 0.955661 0.248696
vt 0.999900 0.644502
vt 0.848859 0.355498
vt 0.999900 0.355498
vt 0.848859 0.644502
vt 0.848859 0.355498
vt 0.999900 0.644502
vt 0.578700 0.727758
vt 0.754459 0.605400
vt 0.605400 0.754459
vt 0.727758 0.578700
vt 0.754459 0.605400
vt 0.578700 0.727758
vt 0.848859 0.644502
vt 0.605400 0.754459
vt 0.754459 0.605400
vt 0.644502 0.848859
vt 0.605400 0.754459
vt 0.848859 0.644502
vt 0.644502 0.848859
vt 0.394600 0.754459
vt 0.605400 0.754459
vt 0.355498 0.848859
vt 0.394600 0.754459
vt 0.644502 0.848859
vt 0.355498 0.848859
vt 0.245542 0.605400
vt 0.394600 0.754459
vt 0.151141 0.644502
vt 0.245542 0.605400
vt 0.355498 0.848859
vt 0.151141 0.644502
vt 0.245542 0.394600
vt 0.245542 0.605400
vt 0.151141 0.355498
vt 0.245542 0.394600
vt 0.151141 0.644502
vt 0.151141 0.355498
vt 0.394600 0.245541
vt 0.245542 0.394600
vt 0.355498 0.151141
vt 0.394600 0.245541
vt 0.151141 0.355498
vt 0.355498 0.151141
vt 0.605400 0.245541
vt 0.394600 0.245541
vt 0.644502 0.151141
vt 0.605400 0.245541
vt 0.355498 0.151141
vt 0.644502 0.151141
vt 0.754459 0.394600
vt 0.605400 0.245541
vt 0.848859 0.355498
vt 0.754459 0.394600
vt 0.644502 0.151141
vt 0.848859 0.355498
vt 0.754459 0.605400
vt 0.754459 0.394600
vt 0.848859 0.644502
vt 0.754459 0.605400
vt 0.848859 0.355498
vt 0.716698 0.605400
vt 0.754459 0.394600
vt 0.754459 0.605400
vt 0.716698 0.394600
vt 0.754459 0.394600
vt 0.716698 0.605400
vt 0.605400 0.283302
vt 0.394600 0.245541
vt 0.605400 0.245541
vt 0.394600 0.283302
vt 0.394600 0.245541
vt 0.605400 0.283302
vt 0.283302 0.394600
vt 0.245542 0.605400
vt 0.245542 0.394600
vt 0.283302 0.605400
vt 0.245542 0.605400
vt 0.283302 0.394600
vt 0.394600 0.716698
vt 0.605400 0.754459
vt 0.394600 0.754459
vt 0.605400 0.716698
vt 0.605400 0.754459
vt 0.394600 0.716698
vt 0.727758 0.421300
vt 0.605400 0.245541
vt 0.754459 0.394600
vt 0.578700 0.272242
vt 0.605400 0.245541
vt 0.727758 0.421300
vt 0.421301 0.272242
vt 0.245542 0.394600
vt 0.394600 0.245541
vt 0.272242 0.421300
vt 0.245542 0.394600
vt 0.421301 0.272242
vt 0.272242 0.578700
vt 0.394600 0.754459
vt 0.245542 0.605400
vt 0.421300 0.727758
vt 0.394600 0.754459
vt 0.272242 0.578700
vt 0.310779 0.934898
vt 0.658217 0.096106
vt 0.903894 0.689221
vt 0.310779 0.934898
vt 0.065102 0.341783
vt 0.658217 0.096106
vt 0.065102 0.341783
vt 0.310779 0.934898
vt 0.065102 0.689222
vt 0.310779 0.934898
vt 0.903894 0.689221
vt 0.658218 0.934898
vt 0.903894 0.689221
vt 0.658217 0.096106
vt 0.903894 0.341782
vt 0.658217 0.096106
vt 0.065102 0.341783
vt 0.310778 0.096106

vn -0.000000 1.000000 0.000000
vn -0.000000 1.000000 0.000000
vn -0.000000 1.000000 0.000000
vn -0.000000 1.000000 0.000000
vn -0.000000 1.000000 0.000000
vn -0.000000 1.000000 0.000000
vn -0.000000 0.000000 -1.000000
vn -0.000000 0.000000 -1.000000
vn -0.000000 0.000000 -1.000000
vn -0.000000 0.000000 -1.000000
vn -0.000000 0.000000 -1.000000
vn -0.000000 0.000000 -1.000000
vn 1.000000 0.000000 0.000000
vn 1.000000 0.000000 0.000000
vn 1.000000 0.000000 0.000000
vn 1.000000 0.000000 0.000000
vn 1.000000 0.000000 0.000000
vn 1.000000 0.000000 0.000000
vn -0.000000 -1.000000 0.000000
vn -0.000000 -1.000000 0.000000
vn -0.000000 -1.000000 0.000000
vn -0.000000 -1.000000 0.000000
vn -0.000000 -1.000000 0.000000
vn -0.000000 -1.000000 0.000000
vn -1.000000 0.000000 0.000000
vn -1.000000 0.000000 0.000000
vn -1.000000 0.000000 0.000000
vn -1.000000 0.000000 0.000000
vn -1.000000 0.000000 0.000000
vn -1.000000 0.000000 0.000000
vn -0.000000 0.000000 1.000000
vn -0.000000 0.000000 1.000000
vn -0.000000 0.000000 1.000000
vn -0.000000 0.000000 1.000000
vn -0.000000 0.000000 1.000000
vn -0.000000 0.000000 1.000000
vn -0.382683 0.000000 0.923880
vn -0.382683 0.000000 0.923880
vn -0.382683 0.000000 0.923880
vn -0.382683 0.000000 0.923880
vn -0.382683 0.000000 0.923880
vn -0.382683 0.000000 0.923880
vn -0.923879 0.000000 0.382684
vn -0.923879 0.000000 0.382684
vn -0.923879 0.000000 0.382684
vn -0.923880 0.000000 0.382683
vn -0.923880 0.000000 0.382683
vn -0.923880 0.000000 0.382683
vn -0.923879 0.000000 -0.382684
vn -0.923879 0.000000 -0.382684
vn -0.923879 0.000000 -0.382684
vn -0.923880 0.000000 -0.382683
vn -0.923880 0.000000 -0.382683
vn -0.923880 0.000000 -0.382683
vn -0.382683 0.000000 -0.923880
vn -0.382683 0.000000 -0.923880
vn -0.382683 0.000000 -0.923880
vn -0.382683 0.000000 -0.923880
vn -0.382683 0.000000 -0.923880
vn -0.382683 0.000000 -0.923880
vn 0.382683 0.000000 -0.923880
vn 0.382683 0.000000 -0.923880
vn 0.382683 0.000000 -0.923880
vn 0.382684 0.000000 -0.923879
vn 0.382684 0.000000 -0.923879
vn 0.382684 0.000000 -0.923879
vn 0.923879 0.000000 -0.382684
vn 0.923879 0.000000 -0.382684
vn 0.923879 0.000000 -0.382684
vn 0.923880 0.000000 -0.382683
vn 0.923880 0.000000 -0.382683
vn 0.923880 0.000000 -0.382683
vn 0.923879 0.000000 0.382684
vn 0.923879 0.000000 0.382684
vn 0.923879 0.000000 0.382684
vn 0.923880 0.000000 0.382683
vn 0.923880 0.000000 0.382683
vn 0.923880 0.000000 0.382683
vn 0.382683 0.000000 0.923880
vn 0.382683 0.000000 0.923880
vn 0.382683 0.000000 0.923880
vn 0.382684 0.000000 0.923879
vn 0.382684 0.000000 0.923879
vn 0.382684 0.000000 0.923879
vn 0.382684 0.000000 -0.923879
vn 0.382684 0.000000 -0.923879
vn 0.382684 0.000000 -0.923879
vn 0.382683 0.000000 -0.923880
vn 0.382683 0.000000 -0.923880
vn 0.382683 0.000000 -0.923880
vn -0.000000 -1.000000 0.000000
vn -0.000000 -1.000000 0.000000
vn -0.000000 -1.000000 0.000000
vn -0.000000 -1.000000 0.000000
vn -0.000000 -1.000000 0.000000
vn -0.000000 -1.000000 0.000000
vn -0.000000 -1.000000 0.000000
vn -0.000000 -1.000000 0.000000
vn -0.000000 -1.000000 0.000000
vn -0.000000 -1.000000 0.000000
vn -0.000000 -1.000000 0.000000
vn -0.000000 -1.000000 0.000000
vn -0.000000 -1.000000 0.000000
vn -0.000000 -1.000000 0.000000
vn -0.000000 -1.000000 0.000000
vn -0.000000 -1.000000 0.000000
vn -0.000000 -1.000000 0.000000
vn -0.000000 -1.000000 0.000000
vn -0.000000 -1.000000 0.000000
vn -0.000000 -1.000000 0.000000
vn -0.000000 -1.000000 0.000000
vn -0.000000 -1.000000 0.000000
vn -0.000000 -1.000000 0.000000
vn -0.000000 -1.000000 0.000000
vn -0.000000 -1.000000 0.000000
vn -0.000000 -1.000000 0.000000
vn -0.000000 -1.000000 0.000000
vn -0.000000 -1.000000 0.000000
vn -0.000000 -1.000000 0.000000
vn -0.000000 -1.000000 0.000000
vn -0.000000 -1.000000 0.000000
vn -0.000000 -1.000000 0.000000
vn -0.000000 -1.000000 0.000000
vn -0.000001 -1.000000 0.000000
vn -0.000001 -1.000000 0.000000
vn -0.000001 -1.000000 0.000000
vn 0.000001 -1.000000 0.000000
vn 0.000001 -1.000000 0.000000
vn 0.000001 -1.000000 0.000000
vn 0.000001 -1.000000 0.000000
vn 0.000001 -1.000000 0.000000
vn 0.000001 -1.000000 0.000000
vn -0.000000 -1.000000 0.000000
vn -0.000000 -1.000000 0.000000
vn -0.000000 -1.000000 0.000000
vn 0.000000 -1.000000 0.000000
vn 0.000000 -1.000000 0.000000
vn 0.000000 -1.000000 0.000000
vn -0.382684 0.000000 -0.923879
vn -0.382684 0.000000 -0.923879
vn -0.382684 0.000000 -0.923879
vn -0.382683 0.000000 -0.923880
vn -0.382683 0.000000 -0.923880
vn -0.382683 0.000000 -0.923880
vn -0.923880 0.000000 0.382683
vn -0.923880 0.000000 0.382683
vn -0.923880 0.000000 0.382683
vn -0.923879 0.000000 0.382684
vn -0.923879 0.000000 0.382684
vn -0.923879 0.000000 0.382684
vn 0.382684 0.000000 0.923879
vn 0.382684 0.000000 0.923879
vn 0.382684 0.000000 0.923879
vn 0.382683 0.000000 0.923880
vn 0.382683 0.000000 0.923880
vn 0.382683 0.000000 0.923880
vn 0.923880 0.000000 -0.382683
vn 0.923880 0.000000 -0.382683
vn 0.923880 0.000000 -0.382683
vn 0.923879 0.000000 -0.382684
vn 0.923879 0.000000 -0.382684
vn 0.923879 0.000000 -0.382684
vn -0.923880 0.000000 -0.382683
vn -0.923880 0.000000 -0.382683
vn -0.923880 0.000000 -0.382683
vn -0.923879 0.000000 -0.382684
vn -0.923879 0.000000 -0.382684
vn -0.923879 0.000000 -0.382684
vn -0.382684 0.000000 0.923879
vn -0.382684 0.000000 0.923879
vn -0.382684 0.000000 0.923879
vn -0.382683 0.000000 0.923880
vn -0.382683 0.000000 0.923880
vn -0.382683 0.000000 0.923880
vn 0.923880 0.000000 0.382683
vn 0.923880 0.000000 0.382683
vn 0.923880 0.000000 0.382683
vn 0.923879 0.000000 0.382684
vn 0.923879 0.000000 0.382684
vn 0.923879 0.000000 0.382684
vn -0.000000 -1.000000 0.000000
vn -0.000000 -1.000000 0.000000
vn -0.000000 -1.000000 0.000000
vn 0.000000 -1.000000 0.000000
vn 0.000000 -1.000000 0.000000
vn 0.000000 -1.000000 0.000000
vn -0.000000 -1.000000 0.000000
vn -0.000000 -1.000000 0.000000
vn -0.000000 -1.000000 0.000000
vn -0.000000 -1.000000 0.000000
vn -0.000000 -1.000000 0.000000
vn -0.000000 -1.000000 0.000000
vn -0.000000 -1.000000 0.000000
vn -0.000000 -1.000000 0.000000
vn -0.000000 -1.000000 0.000000
vn -0.000000 -1.000000 0.000000
vn -0.000000 -1.000000 0.000000
vn -0.000000 -1.000000 0.000000

g Material
f 3/1/1 1/2/2 2/3/3
f 4/4/4 1/5/5 3/6/6
f 7/7/7 5/8/8 6/9/9
f 8/10/10 5/11/11 7/12/12
f 11/13/13 9/14/14 10/15/15
f 12/16/16 9/17/17 11/18/18
f 15/19/19 13/20/20 14/21/21
f 16/22/22 13/23/23 15/24/24
f 19/25/25 17/26/26 18/27/27
f 20/28/28 17/29/29 19/30/30
f 23/31/31 21/32/32 22/33/33
f 24/34/34 21/35/35 23/36/36

g Material.001
f 27/37/37 25/38/38 26/39/39
f 28/40/40 25/41/41 27/42/42
f 49/43/43 47/44/44 48/45/45
f 50/46/46 47/47/47 49/48/48
f 53/49/49 51/50/50 52/51/51
f 54/52/52 51/53/53 53/54/54
f 57/55/55 55/56/56 56/57/57
f 58/58/58 55/59/59 57/60/60
f 61/61/61 59/62/62 60/63/63
f 62/64/64 59/65/65 61/66/66
f 65/67/67 63/68/68 64/69/69
f 66/70/70 63/71/71 65/72/72
f 69/73/73 67/74/74 68/75/75
f 70/76/76 67/77/77 69/78/78
f 73/79/79 71/80/80 72/81/81
f 74/82/82 71/83/83 73/84/84
f 77/85/85 75/86/86 76/87/87
f 78/88/88 75/89/89 77/90/90
f 81/91/91 79/92/92 80/93/93
f 82/94/94 79/95/95 81/96/96
f 85/97/97 83/98/98 84/99/99
f 86/100/100 83/101/101 85/102/102
f 89/103/103 87/104/104 88/105/105
f 90/106/106 87/107/107 89/108/108
f 93/109/109 91/110/110 92/111/111
f 94/112/112 91/113/113 93/114/114
f 97/115/115 95/116/116 96/117/117
f 98/118/118 95/119/119 97/120/120
f 101/121/121 99/122/122 100/123/123
f 102/124/124 99/125/125 101/126/126
f 105/127/127 103/128/128 104/129/129
f 106/130/130 103/131/131 105/132/132
f 109/133/133 107/134/134 108/135/135
f 110/136/136 107/137/137 109/138/138
f 113/139/139 111/140/140 112/141/141
f 114/142/142 111/143/143 113/144/144
f 117/145/145 115/146/146 116/147/147
f 118/148/148 115/149/149 117/150/150
f 121/151/151 119/152/152 120/153/153
f 122/154/154 119/155/155 121/156/156
f 125/157/157 123/158/158 124/159/159
f 126/160/160 123/161/161 125/162/162
f 129/163/163 127/164/164 128/165/165
f 130/166/166 127/167/167 129/168/168
f 133/169/169 131/170/170 132/171/171
f 134/172/172 131/173/173 133/174/174
f 137/175/175 135/176/176 136/177/177
f 138/178/178 135/179/179 137/180/180

g Material.002
f 31/181/181 29/182/182 30/183/183
f 34/184/184 32/185/185 33/186/186
f 37/187/187 35/188/188 36/189/189
f 40/190/190 38/191/191 39/192/192
f 43/193/193 41/194/194 42/195/195
f 46/196/196 44/197/197 45/198/198

