# Converted from B3D for Luanti (With Correct Normals)
# Object Name: multidecor_kitchen_hood

v -0.408573 -0.200000 0.182853
v -0.408573 -0.200000 1.000000
v -0.408573 1.000000 1.000000
v -0.408573 1.000000 0.182853
v 1.000000 -1.000000 -1.000000
v 1.000000 -0.900000 -1.000000
v 1.000000 -0.900000 1.000000
v 1.000000 -1.000000 1.000000
v 1.000000 -1.000000 1.000000
v 1.000000 -0.900000 1.000000
v -1.000000 -0.900000 1.000000
v -1.000000 -1.000000 1.000000
v -0.850000 -1.000000 0.850000
v -0.850000 -1.000000 -0.550000
v 0.850000 -1.000000 -0.550000
v 0.850000 -1.000000 0.850000
v -1.000000 -1.000000 -1.000000
v -1.000000 -0.900000 -1.000000
v 1.000000 -0.900000 -1.000000
v 1.000000 -1.000000 -1.000000
v -1.000000 -1.000000 1.000000
v -1.000000 -0.900000 1.000000
v -1.000000 -0.900000 -1.000000
v -1.000000 -1.000000 -1.000000
v 0.408573 -0.200000 0.182853
v 0.408573 -0.200000 1.000000
v 1.000000 -0.900000 1.000000
v 1.000000 -0.900000 -1.000000
v -0.408573 -0.200000 0.182853
v 0.408573 -0.200000 0.182853
v 1.000000 -0.900000 -1.000000
v -1.000000 -0.900000 -1.000000
v 0.408573 -0.200000 1.000000
v -0.408573 -0.200000 1.000000
v -1.000000 -0.900000 1.000000
v 1.000000 -0.900000 1.000000
v -0.408573 -0.200000 1.000000
v -0.408573 -0.200000 0.182853
v -1.000000 -0.900000 -1.000000
v -1.000000 -0.900000 1.000000
v -0.408573 1.000000 0.182853
v -0.408573 1.000000 1.000000
v 0.408573 1.000000 1.000000
v 0.408573 1.000000 0.182853
v 0.408573 -0.200000 0.182853
v -0.408573 -0.200000 0.182853
v -0.408573 1.000000 0.182853
v 0.408573 1.000000 0.182853
v -0.408573 -0.200000 1.000000
v 0.408573 -0.200000 1.000000
v 0.408573 1.000000 1.000000
v -0.408573 1.000000 1.000000
v 0.408573 -0.200000 1.000000
v 0.408573 -0.200000 0.182853
v 0.408573 1.000000 0.182853
v 0.408573 1.000000 1.000000
v -0.850000 -1.000000 0.850000
v 0.850000 -1.000000 0.850000
v 1.000000 -1.000000 1.000000
v -1.000000 -1.000000 1.000000
v -0.850000 -1.000000 -0.550000
v -0.850000 -1.000000 0.850000
v -1.000000 -1.000000 1.000000
v -1.000000 -1.000000 -1.000000
v 0.850000 -1.000000 0.850000
v 0.850000 -1.000000 -0.550000
v 1.000000 -1.000000 -1.000000
v 1.000000 -1.000000 1.000000
v 0.850000 -1.000000 -0.550000
v -0.850000 -1.000000 -0.550000
v -1.000000 -1.000000 -1.000000
v 1.000000 -1.000000 -1.000000

vt 0.159834 0.319436
vt 0.394213 0.159834
vt 0.394213 0.319436
vt 0.159834 0.159834
vt 0.394213 0.159834
vt 0.159834 0.319436
vt 0.390865 0.929098
vt 0.000233 0.948630
vt 0.000233 0.929098
vt 0.390865 0.948630
vt 0.000233 0.948630
vt 0.390865 0.929098
vt 0.999767 0.781962
vt 0.980236 0.391329
vt 0.999767 0.391329
vt 0.980236 0.781962
vt 0.980236 0.391329
vt 0.999767 0.781962
vt 0.000233 0.688709
vt 0.390865 0.669178
vt 0.390865 0.688709
vt 0.000233 0.669178
vt 0.390865 0.669178
vt 0.000233 0.688709
vt 0.000233 0.658636
vt 0.390865 0.639105
vt 0.390865 0.658636
vt 0.000233 0.639104
vt 0.390865 0.639105
vt 0.000233 0.658636
vt 0.842585 0.391329
vt 0.663597 0.550931
vt 0.663597 0.391329
vt 0.842585 0.781961
vt 0.663597 0.550931
vt 0.842585 0.391329
vt 0.663132 0.391329
vt 0.394678 0.666446
vt 0.394678 0.506844
vt 0.663132 0.781961
vt 0.394678 0.666446
vt 0.663132 0.391329
vt 0.979771 0.391329
vt 0.843050 0.666446
vt 0.843050 0.506845
vt 0.979771 0.781961
vt 0.843050 0.666446
vt 0.979771 0.391329
vt 0.964763 0.000233
vt 0.785775 0.390864
vt 0.785775 0.231263
vt 0.964763 0.390864
vt 0.785775 0.390864
vt 0.964763 0.000233
vt 0.159834 0.479038
vt 0.000233 0.319436
vt 0.159834 0.319436
vt 0.000233 0.479038
vt 0.000233 0.319436
vt 0.159834 0.479038
vt 0.159834 0.159834
vt 0.394213 0.000233
vt 0.394213 0.159834
vt 0.159834 0.000233
vt 0.394213 0.000233
vt 0.159834 0.159834
vt 0.159834 0.479038
vt 0.394213 0.319436
vt 0.394213 0.479038
vt 0.159834 0.319436
vt 0.394213 0.319436
vt 0.159834 0.479038
vt 0.159834 0.638639
vt 0.394213 0.479038
vt 0.394213 0.638639
vt 0.159834 0.479038
vt 0.394213 0.479038
vt 0.159834 0.638639
vt 0.000233 0.538466
vt 0.361567 0.567764
vt 0.029530 0.567763
vt 0.390864 0.538466
vt 0.361567 0.567764
vt 0.000233 0.538466
vt 0.390864 0.538466
vt 0.361567 0.841206
vt 0.361567 0.567764
vt 0.390864 0.929098
vt 0.361567 0.841206
vt 0.390864 0.538466
vt 0.000233 0.929098
vt 0.029530 0.567763
vt 0.029530 0.841206
vt 0.000233 0.538466
vt 0.029530 0.567763
vt 0.000233 0.929098
vt 0.390864 0.929098
vt 0.029530 0.841206
vt 0.361567 0.841206
vt 0.000233 0.929098
vt 0.029530 0.841206
vt 0.390864 0.929098
vt 0.999909 0.000091
vt 0.000091 0.843002
vt 0.000091 0.000091
vt 0.999909 0.843002
vt 0.000091 0.843002
vt 0.999909 0.000091

vn -1.000000 0.000000 -0.000000
vn -1.000000 0.000000 -0.000000
vn -1.000000 0.000000 -0.000000
vn -1.000000 0.000000 0.000000
vn -1.000000 0.000000 0.000000
vn -1.000000 0.000000 0.000000
vn 1.000000 0.000000 0.000000
vn 1.000000 0.000000 0.000000
vn 1.000000 0.000000 0.000000
vn 1.000000 0.000000 0.000000
vn 1.000000 0.000000 0.000000
vn 1.000000 0.000000 0.000000
vn -0.000000 0.000000 1.000000
vn -0.000000 0.000000 1.000000
vn -0.000000 0.000000 1.000000
vn -0.000000 0.000000 1.000000
vn -0.000000 0.000000 1.000000
vn -0.000000 0.000000 1.000000
vn 0.000000 0.000000 -1.000000
vn 0.000000 0.000000 -1.000000
vn 0.000000 0.000000 -1.000000
vn 0.000000 0.000000 -1.000000
vn 0.000000 0.000000 -1.000000
vn 0.000000 0.000000 -1.000000
vn -1.000000 0.000000 0.000000
vn -1.000000 0.000000 0.000000
vn -1.000000 0.000000 0.000000
vn -1.000000 0.000000 -0.000000
vn -1.000000 0.000000 -0.000000
vn -1.000000 0.000000 -0.000000
vn 0.763860 0.645382 0.000000
vn 0.763860 0.645382 0.000000
vn 0.763860 0.645382 0.000000
vn 0.763860 0.645382 0.000000
vn 0.763860 0.645382 0.000000
vn 0.763860 0.645382 0.000000
vn 0.000000 0.860595 -0.509291
vn 0.000000 0.860595 -0.509291
vn 0.000000 0.860595 -0.509291
vn -0.000000 0.860595 -0.509291
vn -0.000000 0.860595 -0.509291
vn -0.000000 0.860595 -0.509291
vn -0.000000 0.000000 1.000000
vn -0.000000 0.000000 1.000000
vn -0.000000 0.000000 1.000000
vn -0.000000 0.000000 1.000000
vn -0.000000 0.000000 1.000000
vn -0.000000 0.000000 1.000000
vn -0.763860 0.645382 0.000000
vn -0.763860 0.645382 0.000000
vn -0.763860 0.645382 0.000000
vn -0.763860 0.645382 -0.000000
vn -0.763860 0.645382 -0.000000
vn -0.763860 0.645382 -0.000000
vn -0.000000 1.000000 0.000000
vn -0.000000 1.000000 0.000000
vn -0.000000 1.000000 0.000000
vn -0.000000 1.000000 0.000000
vn -0.000000 1.000000 0.000000
vn -0.000000 1.000000 0.000000
vn 0.000000 0.000000 -1.000000
vn 0.000000 0.000000 -1.000000
vn 0.000000 0.000000 -1.000000
vn 0.000000 0.000000 -1.000000
vn 0.000000 0.000000 -1.000000
vn 0.000000 0.000000 -1.000000
vn -0.000000 0.000000 1.000000
vn -0.000000 0.000000 1.000000
vn -0.000000 0.000000 1.000000
vn -0.000000 0.000000 1.000000
vn -0.000000 0.000000 1.000000
vn -0.000000 0.000000 1.000000
vn 1.000000 0.000000 0.000000
vn 1.000000 0.000000 0.000000
vn 1.000000 0.000000 0.000000
vn 1.000000 0.000000 0.000000
vn 1.000000 0.000000 0.000000
vn 1.000000 0.000000 0.000000
vn -0.000000 -1.000000 0.000000
vn -0.000000 -1.000000 0.000000
vn -0.000000 -1.000000 0.000000
vn -0.000000 -1.000000 0.000000
vn -0.000000 -1.000000 0.000000
vn -0.000000 -1.000000 0.000000
vn -0.000001 -1.000000 0.000000
vn -0.000001 -1.000000 0.000000
vn -0.000001 -1.000000 0.000000
vn 0.000001 -1.000000 0.000000
vn 0.000001 -1.000000 0.000000
vn 0.000001 -1.000000 0.000000
vn -0.000000 -1.000000 0.000000
vn -0.000000 -1.000000 0.000000
vn -0.000000 -1.000000 0.000000
vn -0.000001 -1.000000 0.000000
vn -0.000001 -1.000000 0.000000
vn -0.000001 -1.000000 0.000000
vn -0.000000 -1.000000 0.000000
vn -0.000000 -1.000000 0.000000
vn -0.000000 -1.000000 0.000000
vn -0.000000 -1.000000 0.000000
vn -0.000000 -1.000000 0.000000
vn -0.000000 -1.000000 0.000000
vn 0.000000 -1.000000 0.000000
vn 0.000000 -1.000000 0.000000
vn 0.000000 -1.000000 0.000000
vn -0.000000 -1.000000 0.000000
vn -0.000000 -1.000000 0.000000
vn -0.000000 -1.000000 0.000000

g Material
f 3/1/1 1/2/2 2/3/3
f 4/4/4 1/5/5 3/6/6
f 7/7/7 5/8/8 6/9/9
f 8/10/10 5/11/11 7/12/12
f 11/13/13 9/14/14 10/15/15
f 12/16/16 9/17/17 11/18/18
f 19/19/19 17/20/20 18/21/21
f 20/22/22 17/23/23 19/24/24
f 23/25/25 21/26/26 22/27/27
f 24/28/28 21/29/29 23/30/30
f 27/31/31 25/32/32 26/33/33
f 28/34/34 25/35/35 27/36/36
f 31/37/37 29/38/38 30/39/39
f 32/40/40 29/41/41 31/42/42
f 35/43/43 33/44/44 34/45/45
f 36/46/46 33/47/47 35/48/48
f 39/49/49 37/50/50 38/51/51
f 40/52/52 37/53/53 39/54/54
f 43/55/55 41/56/56 42/57/57
f 44/58/58 41/59/59 43/60/60
f 47/61/61 45/62/62 46/63/63
f 48/64/64 45/65/65 47/66/66
f 51/67/67 49/68/68 50/69/69
f 52/70/70 49/71/71 51/72/72
f 55/73/73 53/74/74 54/75/75
f 56/76/76 53/77/77 55/78/78
f 59/79/79 57/80/80 58/81/81
f 60/82/82 57/83/83 59/84/84
f 63/85/85 61/86/86 62/87/87
f 64/88/88 61/89/89 63/90/90
f 67/91/91 65/92/92 66/93/93
f 68/94/94 65/95/95 67/96/96
f 71/97/97 69/98/98 70/99/99
f 72/100/100 69/101/101 71/102/102

g Material.001
f 15/103/103 13/104/104 14/105/105
f 16/106/106 13/107/107 15/108/108

