# Converted from B3D for Luanti (With Correct Normals)
# Object Name: multidecor_spiral_ledged_stair_segment

v -1.000000 -0.200000 -1.000000
v -0.732051 -0.200000 0.000000
v -0.732051 0.000000 0.000000
v -1.000000 0.000000 -1.000000
v -0.732051 -0.200000 0.000000
v -0.366025 -0.200000 0.366025
v -0.366025 0.000000 0.366025
v -0.732051 0.000000 0.000000
v 0.000000 -0.200000 0.732051
v 1.000000 -0.200000 1.000000
v 1.000000 0.000000 1.000000
v 0.000000 0.000000 0.732051
v 1.000000 -0.200000 1.000000
v 1.000000 -0.200000 -1.000000
v 1.000000 0.000000 -1.000000
v 1.000000 0.000000 1.000000
v -0.366025 0.800000 0.366026
v 1.000000 0.800000 -1.000000
v 1.000000 0.000000 -1.000000
v -0.366025 0.000000 0.366025
v -1.000000 -1.000000 -1.000000
v 1.000000 -1.000000 -1.000000
v -0.732051 -1.000000 0.000000
v -1.000000 -0.200000 -1.000000
v 1.000000 -0.200000 -1.000000
v 1.000000 -1.000000 -1.000000
v -1.000000 -1.000000 -1.000000
v -1.000000 0.000000 -1.000000
v -0.732051 0.000000 0.000000
v 1.000000 0.000000 -1.000000
v -0.366025 -0.200000 0.366025
v 0.000000 -0.200000 0.732051
v 0.000000 0.000000 0.732051
v -0.366025 0.000000 0.366025
v 1.000000 -1.000000 -1.000000
v 0.000000 -1.000000 0.732051
v -0.366025 -1.000000 0.366025
v 1.000000 0.800000 1.000000
v 1.000000 0.000000 1.000000
v 1.000000 0.000000 -1.000000
v 1.000000 0.800000 -1.000000
v 0.000000 0.800000 0.732051
v 1.000000 0.800000 1.000000
v 1.000000 1.000000 1.000000
v 0.000000 1.000000 0.732051
v 0.000000 0.800000 0.732051
v 0.000000 1.000000 0.732051
v -0.366025 1.000000 0.366026
v -0.366025 0.800000 0.366026
v -0.366025 1.000000 0.366026
v 0.000000 1.000000 0.732051
v 1.000000 1.000000 -1.000000
v 0.000000 1.000000 0.732051
v 1.000000 1.000000 1.000000
v 1.000000 1.000000 -1.000000
v -0.732051 0.000000 0.000000
v -0.366025 0.000000 0.366025
v 1.000000 0.000000 -1.000000
v 1.000000 -1.000000 -1.000000
v -0.366025 -1.000000 0.366025
v -0.732051 -1.000000 0.000000
v 0.000000 -1.000000 0.732051
v 1.000000 -1.000000 -1.000000
v 1.000000 -1.000000 1.000000
v -0.366025 -1.000000 0.366025
v 0.000000 -1.000000 0.732051
v 0.000000 -0.200000 0.732051
v -0.366025 -0.200000 0.366025
v 1.000000 0.000000 -1.000000
v 1.000000 0.000000 -1.200000
v -1.000000 0.000000 -1.200000
v -1.000000 0.000000 -1.000000
v 1.000000 -1.000000 1.000000
v 1.000000 -1.000000 -1.000000
v 1.000000 -0.200000 -1.000000
v 1.000000 -0.200000 1.000000
v 0.000000 -1.000000 0.732051
v 1.000000 -1.000000 1.000000
v 1.000000 -0.200000 1.000000
v 0.000000 -0.200000 0.732051
v -0.732051 -1.000000 0.000000
v -0.366025 -1.000000 0.366025
v -0.366025 -0.200000 0.366025
v -0.732051 -0.200000 0.000000
v -1.000000 -1.000000 -1.000000
v -0.732051 -1.000000 0.000000
v -0.732051 -0.200000 0.000000
v -1.000000 -0.200000 -1.000000
v 0.000000 0.000000 0.732051
v 0.000000 0.800000 0.732051
v -0.366025 0.800000 0.366026
v -0.366025 0.000000 0.366025
v 0.000000 0.000000 0.732051
v 1.000000 0.000000 1.000000
v 1.000000 0.800000 1.000000
v 0.000000 0.800000 0.732051
v 1.000000 1.000000 1.000000
v 1.000000 0.800000 1.000000
v 1.000000 0.800000 -1.000000
v 1.000000 1.000000 -1.000000
v 1.000000 1.000000 -1.000000
v 0.858579 1.000000 -1.141421
v -0.507447 1.000000 0.224604
v -0.366025 1.000000 0.366026
v -0.507447 1.000000 0.224604
v 0.858579 1.000000 -1.141421
v 0.858579 0.800000 -1.141421
v -0.507447 0.800000 0.224604
v -0.366025 1.000000 0.366026
v -0.507447 1.000000 0.224604
v -0.507447 0.800000 0.224604
v -0.366025 0.800000 0.366026
v 1.000000 0.800000 -1.000000
v 0.858579 0.800000 -1.141421
v 0.858579 1.000000 -1.141421
v 1.000000 1.000000 -1.000000
v -0.366025 0.800000 0.366026
v -0.507447 0.800000 0.224604
v 0.858579 0.800000 -1.141421
v 1.000000 0.800000 -1.000000
v -1.000000 0.000000 -1.200000
v 1.000000 0.000000 -1.200000
v 1.000000 -0.200000 -1.200000
v -1.000000 -0.200000 -1.200000
v -1.000000 0.000000 -1.000000
v -1.000000 0.000000 -1.200000
v -1.000000 -0.200000 -1.200000
v -1.000000 -0.200000 -1.000000
v -1.000000 -0.200000 -1.000000
v -1.000000 -0.200000 -1.200000
v 1.000000 -0.200000 -1.200000
v 1.000000 -0.200000 -1.000000
v 1.000000 -0.200000 -1.000000
v 1.000000 -0.200000 -1.200000
v 1.000000 0.000000 -1.200000
v 1.000000 0.000000 -1.000000

vt -0.049924 0.017495
vt 0.000004 0.275938
vt 0.000004 0.017495
vt -0.049924 0.275938
vt 0.000004 0.275938
vt -0.049924 0.017495
vt -0.049924 -0.111727
vt 0.000004 0.017495
vt 0.000004 -0.111727
vt -0.049924 0.017495
vt 0.000004 0.017495
vt -0.049924 -0.111727
vt -0.049924 -0.499392
vt 0.000004 -0.240949
vt 0.000004 -0.499392
vt -0.049924 -0.240949
vt 0.000004 -0.240949
vt -0.049924 -0.499392
vt 0.450062 0.000594
vt 0.499989 0.499868
vt 0.499989 0.000594
vt 0.450062 0.499867
vt 0.499989 0.499868
vt 0.450062 0.000594
vt 0.800265 0.982841
vt 0.600555 0.500579
vt 0.600555 0.982841
vt 0.800265 0.500579
vt 0.600555 0.500579
vt 0.800265 0.982841
vt 0.267315 -0.249755
vt 0.200425 -0.000118
vt 0.699699 -0.000118
vt 0.499989 0.999853
vt 0.300280 0.500579
vt 0.300280 0.999853
vt 0.499989 0.500579
vt 0.300280 0.500579
vt 0.499989 0.999853
vt 0.041450 0.775923
vt 0.041450 0.276649
vt -0.208187 0.343539
vt -0.049924 -0.240949
vt 0.000004 -0.111727
vt 0.000004 -0.240949
vt -0.049924 -0.111727
vt 0.000004 -0.111727
vt -0.049924 -0.240949
vt 0.358689 -0.341129
vt 0.699699 -0.000118
vt 0.450062 -0.432502
vt 0.450062 0.000594
vt 0.250352 0.499868
vt 0.450062 0.499867
vt 0.250352 0.000594
vt 0.250352 0.499868
vt 0.450062 0.000594
vt -0.299561 -0.499392
vt -0.249633 -0.240949
vt -0.249633 -0.499392
vt -0.299561 -0.240949
vt -0.249633 -0.240949
vt -0.299561 -0.499392
vt -0.299561 -0.111727
vt -0.249633 -0.240949
vt -0.299561 -0.240949
vt -0.249633 -0.111727
vt -0.249633 -0.240949
vt -0.299561 -0.111727
vt 1.041421 -0.499392
vt 0.700410 -0.158381
vt 0.791784 -0.067008
vt 1.041421 -0.499392
vt 0.791784 -0.067008
vt 1.041421 -0.000118
vt 0.041450 0.775923
vt -0.208187 0.343539
vt -0.299561 0.434913
vt 0.267315 -0.249755
vt 0.699699 -0.000118
vt 0.358689 -0.341129
vt 0.699699 -0.499392
vt 0.450062 -0.432502
vt 0.699699 -0.000118
vt 0.000004 -0.240949
vt 0.199713 -0.111727
vt 0.199713 -0.240949
vt 0.000004 -0.111727
vt 0.199713 -0.111727
vt 0.000004 -0.240949
vt 0.092088 0.326577
vt 0.042161 0.825851
vt 0.092088 0.825851
vt 0.042161 0.326577
vt 0.042161 0.825851
vt 0.092088 0.326577
vt 0.499989 0.000594
vt 0.699699 0.499868
vt 0.699699 0.000594
vt 0.499989 0.499868
vt 0.699699 0.499868
vt 0.499989 0.000594
vt 0.000004 -0.499392
vt 0.199713 -0.240949
vt 0.199713 -0.499392
vt 0.000004 -0.240949
vt 0.199713 -0.240949
vt 0.000004 -0.499392
vt 0.000004 -0.111727
vt 0.199713 0.017495
vt 0.199713 -0.111727
vt 0.000004 0.017495
vt 0.199713 0.017495
vt 0.000004 -0.111727
vt 0.000004 0.017495
vt 0.199713 0.275938
vt 0.199713 0.017495
vt 0.000004 0.275938
vt 0.199713 0.275938
vt 0.000004 0.017495
vt -0.249633 -0.111727
vt -0.049924 -0.240949
vt -0.249633 -0.240949
vt -0.049924 -0.111727
vt -0.049924 -0.240949
vt -0.249633 -0.111727
vt -0.249633 -0.499392
vt -0.049924 -0.240949
vt -0.049924 -0.499392
vt -0.249633 -0.240949
vt -0.049924 -0.240949
vt -0.249633 -0.499392
vt 0.250352 0.000594
vt 0.200425 0.499868
vt 0.250352 0.499868
vt 0.200425 0.000594
vt 0.200425 0.499868
vt 0.250352 0.000594
vt 0.142727 0.326577
vt 0.092800 0.808839
vt 0.142727 0.808839
vt 0.092799 0.326577
vt 0.092800 0.808839
vt 0.142727 0.326577
vt 0.550628 0.982841
vt 0.500701 0.500579
vt 0.500701 0.982841
vt 0.550628 0.500579
vt 0.500701 0.500579
vt 0.550628 0.982841
vt 0.142727 0.276649
vt 0.092799 0.326577
vt 0.142727 0.326577
vt 0.092799 0.276649
vt 0.092799 0.326577
vt 0.142727 0.276649
vt 0.142727 0.808839
vt 0.092800 0.858766
vt 0.142727 0.858766
vt 0.092800 0.808839
vt 0.092800 0.858766
vt 0.142727 0.808839
vt 0.550628 0.982841
vt 0.600555 0.500579
vt 0.550628 0.500579
vt 0.600555 0.982841
vt 0.600555 0.500579
vt 0.550628 0.982841
vt 0.250353 0.999853
vt 0.200425 0.500579
vt 0.200425 0.999853
vt 0.250352 0.500579
vt 0.200425 0.500579
vt 0.250353 0.999853
vt 0.092088 0.276649
vt 0.042161 0.326577
vt 0.092088 0.326577
vt 0.042161 0.276649
vt 0.042161 0.326577
vt 0.092088 0.276649
vt 0.250353 0.999853
vt 0.300280 0.500579
vt 0.250352 0.500579
vt 0.300280 0.999853
vt 0.300280 0.500579
vt 0.250353 0.999853
vt 0.092088 0.825851
vt 0.042161 0.875778
vt 0.092088 0.875778
vt 0.042161 0.825851
vt 0.042161 0.875778
vt 0.092088 0.825851

vn -0.965926 0.000000 0.258819
vn -0.965926 0.000000 0.258819
vn -0.965926 0.000000 0.258819
vn -0.965926 0.000000 0.258819
vn -0.965926 0.000000 0.258819
vn -0.965926 0.000000 0.258819
vn -0.707107 0.000000 0.707107
vn -0.707107 0.000000 0.707107
vn -0.707107 0.000000 0.707107
vn -0.707107 0.000000 0.707107
vn -0.707107 0.000000 0.707107
vn -0.707107 0.000000 0.707107
vn -0.258819 0.000000 0.965926
vn -0.258819 0.000000 0.965926
vn -0.258819 0.000000 0.965926
vn -0.258819 0.000000 0.965926
vn -0.258819 0.000000 0.965926
vn -0.258819 0.000000 0.965926
vn 1.000000 0.000000 -0.000000
vn 1.000000 0.000000 -0.000000
vn 1.000000 0.000000 -0.000000
vn 1.000000 0.000000 0.000000
vn 1.000000 0.000000 0.000000
vn 1.000000 0.000000 0.000000
vn -0.707107 0.000000 -0.707107
vn -0.707107 0.000000 -0.707107
vn -0.707107 0.000000 -0.707107
vn -0.707107 0.000000 -0.707107
vn -0.707107 0.000000 -0.707107
vn -0.707107 0.000000 -0.707107
vn -0.000000 -1.000000 0.000000
vn -0.000000 -1.000000 0.000000
vn -0.000000 -1.000000 0.000000
vn -0.000000 0.000000 -1.000000
vn -0.000000 0.000000 -1.000000
vn -0.000000 0.000000 -1.000000
vn -0.000000 0.000000 -1.000000
vn -0.000000 0.000000 -1.000000
vn -0.000000 0.000000 -1.000000
vn -0.000000 1.000000 0.000000
vn -0.000000 1.000000 0.000000
vn -0.000000 1.000000 0.000000
vn -0.707107 0.000000 0.707107
vn -0.707107 0.000000 0.707107
vn -0.707107 0.000000 0.707107
vn -0.707107 0.000000 0.707107
vn -0.707107 0.000000 0.707107
vn -0.707107 0.000000 0.707107
vn -0.000000 -1.000000 0.000000
vn -0.000000 -1.000000 0.000000
vn -0.000000 -1.000000 0.000000
vn 1.000000 0.000000 0.000000
vn 1.000000 0.000000 0.000000
vn 1.000000 0.000000 0.000000
vn 1.000000 0.000000 -0.000000
vn 1.000000 0.000000 -0.000000
vn 1.000000 0.000000 -0.000000
vn -0.258819 0.000000 0.965926
vn -0.258819 0.000000 0.965926
vn -0.258819 0.000000 0.965926
vn -0.258819 0.000000 0.965926
vn -0.258819 0.000000 0.965926
vn -0.258819 0.000000 0.965926
vn -0.707107 0.000000 0.707107
vn -0.707107 0.000000 0.707107
vn -0.707107 0.000000 0.707107
vn -0.707107 0.000000 0.707107
vn -0.707107 0.000000 0.707107
vn -0.707107 0.000000 0.707107
vn 0.000000 1.000000 0.000000
vn 0.000000 1.000000 0.000000
vn 0.000000 1.000000 0.000000
vn 0.000000 1.000000 0.000000
vn 0.000000 1.000000 0.000000
vn 0.000000 1.000000 0.000000
vn -0.000000 1.000000 0.000000
vn -0.000000 1.000000 0.000000
vn -0.000000 1.000000 0.000000
vn -0.000000 -1.000000 0.000000
vn -0.000000 -1.000000 0.000000
vn -0.000000 -1.000000 0.000000
vn -0.000000 -1.000000 0.000000
vn -0.000000 -1.000000 0.000000
vn -0.000000 -1.000000 0.000000
vn -0.707107 0.000000 0.707107
vn -0.707107 0.000000 0.707107
vn -0.707107 0.000000 0.707107
vn -0.707107 0.000000 0.707107
vn -0.707107 0.000000 0.707107
vn -0.707107 0.000000 0.707107
vn -0.000000 1.000000 0.000000
vn -0.000000 1.000000 0.000000
vn -0.000000 1.000000 0.000000
vn -0.000000 1.000000 0.000000
vn -0.000000 1.000000 0.000000
vn -0.000000 1.000000 0.000000
vn 1.000000 0.000000 -0.000000
vn 1.000000 0.000000 -0.000000
vn 1.000000 0.000000 -0.000000
vn 1.000000 0.000000 0.000000
vn 1.000000 0.000000 0.000000
vn 1.000000 0.000000 0.000000
vn -0.258819 0.000000 0.965926
vn -0.258819 0.000000 0.965926
vn -0.258819 0.000000 0.965926
vn -0.258819 0.000000 0.965926
vn -0.258819 0.000000 0.965926
vn -0.258819 0.000000 0.965926
vn -0.707107 0.000000 0.707107
vn -0.707107 0.000000 0.707107
vn -0.707107 0.000000 0.707107
vn -0.707107 0.000000 0.707107
vn -0.707107 0.000000 0.707107
vn -0.707107 0.000000 0.707107
vn -0.965926 0.000000 0.258819
vn -0.965926 0.000000 0.258819
vn -0.965926 0.000000 0.258819
vn -0.965926 0.000000 0.258819
vn -0.965926 0.000000 0.258819
vn -0.965926 0.000000 0.258819
vn -0.707107 0.000000 0.707107
vn -0.707107 0.000000 0.707107
vn -0.707107 0.000000 0.707107
vn -0.707107 0.000000 0.707107
vn -0.707107 0.000000 0.707107
vn -0.707107 0.000000 0.707107
vn -0.258819 0.000000 0.965926
vn -0.258819 0.000000 0.965926
vn -0.258819 0.000000 0.965926
vn -0.258819 0.000000 0.965926
vn -0.258819 0.000000 0.965926
vn -0.258819 0.000000 0.965926
vn 1.000000 0.000000 0.000000
vn 1.000000 0.000000 0.000000
vn 1.000000 0.000000 0.000000
vn 1.000000 0.000000 -0.000000
vn 1.000000 0.000000 -0.000000
vn 1.000000 0.000000 -0.000000
vn 0.000000 1.000000 0.000000
vn 0.000000 1.000000 0.000000
vn 0.000000 1.000000 0.000000
vn -0.000001 1.000000 0.000000
vn -0.000001 1.000000 0.000000
vn -0.000001 1.000000 0.000000
vn -0.707106 0.000000 -0.707107
vn -0.707106 0.000000 -0.707107
vn -0.707106 0.000000 -0.707107
vn -0.707107 0.000000 -0.707106
vn -0.707107 0.000000 -0.707106
vn -0.707107 0.000000 -0.707106
vn -0.707106 0.000000 0.707107
vn -0.707106 0.000000 0.707107
vn -0.707106 0.000000 0.707107
vn -0.707107 0.000000 0.707107
vn -0.707107 0.000000 0.707107
vn -0.707107 0.000000 0.707107
vn 0.707107 0.000000 -0.707107
vn 0.707107 0.000000 -0.707107
vn 0.707107 0.000000 -0.707107
vn 0.707106 0.000000 -0.707108
vn 0.707106 0.000000 -0.707108
vn 0.707106 0.000000 -0.707108
vn 0.000000 -1.000000 0.000000
vn 0.000000 -1.000000 0.000000
vn 0.000000 -1.000000 0.000000
vn 0.000001 -1.000000 0.000000
vn 0.000001 -1.000000 0.000000
vn 0.000001 -1.000000 0.000000
vn -0.000000 0.000000 -1.000000
vn -0.000000 0.000000 -1.000000
vn -0.000000 0.000000 -1.000000
vn -0.000000 0.000000 -1.000000
vn -0.000000 0.000000 -1.000000
vn -0.000000 0.000000 -1.000000
vn -1.000000 0.000000 0.000000
vn -1.000000 0.000000 0.000000
vn -1.000000 0.000000 0.000000
vn -1.000000 0.000000 0.000001
vn -1.000000 0.000000 0.000001
vn -1.000000 0.000000 0.000001
vn -0.000000 -1.000000 0.000000
vn -0.000000 -1.000000 0.000000
vn -0.000000 -1.000000 0.000000
vn -0.000000 -1.000000 0.000000
vn -0.000000 -1.000000 0.000000
vn -0.000000 -1.000000 0.000000
vn 1.000000 0.000000 0.000000
vn 1.000000 0.000000 0.000000
vn 1.000000 0.000000 0.000000
vn 1.000000 0.000000 0.000000
vn 1.000000 0.000000 0.000000
vn 1.000000 0.000000 0.000000

g Material_0
f 3/1/1 1/2/2 2/3/3
f 4/4/4 1/5/5 3/6/6
f 7/7/7 5/8/8 6/9/9
f 8/10/10 5/11/11 7/12/12
f 11/13/13 9/14/14 10/15/15
f 12/16/16 9/17/17 11/18/18
f 15/19/19 13/20/20 14/21/21
f 16/22/22 13/23/23 15/24/24
f 19/25/25 17/26/26 18/27/27
f 20/28/28 17/29/29 19/30/30
f 23/31/31 21/32/32 22/33/33
f 26/34/34 24/35/35 25/36/36
f 27/37/37 24/38/38 26/39/39
f 30/40/40 28/41/41 29/42/42
f 33/43/43 31/44/44 32/45/45
f 34/46/46 31/47/47 33/48/48
f 37/49/49 35/50/50 36/51/51
f 40/52/52 38/53/53 39/54/54
f 41/55/55 38/56/56 40/57/57
f 44/58/58 42/59/59 43/60/60
f 45/61/61 42/62/62 44/63/63
f 48/64/64 46/65/65 47/66/66
f 49/67/67 46/68/68 48/69/69
f 52/70/70 50/71/71 51/72/72
f 55/73/73 53/74/74 54/75/75
f 58/76/76 56/77/77 57/78/78
f 61/79/79 59/80/80 60/81/81
f 64/82/82 62/83/83 63/84/84
f 67/85/85 65/86/86 66/87/87
f 68/88/88 65/89/89 67/90/90
f 71/91/91 69/92/92 70/93/93
f 72/94/94 69/95/95 71/96/96
f 75/97/97 73/98/98 74/99/99
f 76/100/100 73/101/101 75/102/102
f 79/103/103 77/104/104 78/105/105
f 80/106/106 77/107/107 79/108/108
f 83/109/109 81/110/110 82/111/111
f 84/112/112 81/113/113 83/114/114
f 87/115/115 85/116/116 86/117/117
f 88/118/118 85/119/119 87/120/120
f 91/121/121 89/122/122 90/123/123
f 92/124/124 89/125/125 91/126/126
f 95/127/127 93/128/128 94/129/129
f 96/130/130 93/131/131 95/132/132
f 99/133/133 97/134/134 98/135/135
f 100/136/136 97/137/137 99/138/138
f 103/139/139 101/140/140 102/141/141
f 104/142/142 101/143/143 103/144/144
f 107/145/145 105/146/146 106/147/147
f 108/148/148 105/149/149 107/150/150
f 111/151/151 109/152/152 110/153/153
f 112/154/154 109/155/155 111/156/156
f 115/157/157 113/158/158 114/159/159
f 116/160/160 113/161/161 115/162/162
f 119/163/163 117/164/164 118/165/165
f 120/166/166 117/167/167 119/168/168
f 123/169/169 121/170/170 122/171/171
f 124/172/172 121/173/173 123/174/174
f 127/175/175 125/176/176 126/177/177
f 128/178/178 125/179/179 127/180/180
f 131/181/181 129/182/182 130/183/183
f 132/184/184 129/185/185 131/186/186
f 135/187/187 133/188/188 134/189/189
f 136/190/190 133/191/191 135/192/192

