# Converted from B3D for Luanti (With Correct Normals)
# Object Name: multidecor_louvers_bottom

v 0.900000 -1.000000 0.100000
v 0.900000 -1.000000 -0.100000
v -0.900000 -1.000000 -0.100000
v -0.900000 -1.000000 0.100000
v 0.900000 -0.886603 0.050000
v 0.900000 -0.713397 -0.050000
v -0.900000 -0.713397 -0.050000
v -0.900000 -0.886603 0.050000
v 0.900000 -0.686603 0.050000
v 0.900000 -0.513397 -0.050000
v -0.900000 -0.513397 -0.050000
v -0.900000 -0.686603 0.050000
v 0.900000 -0.486603 0.050000
v 0.900000 -0.313397 -0.050000
v -0.900000 -0.313397 -0.050000
v -0.900000 -0.486603 0.050000
v 0.900000 -0.286603 0.050000
v 0.900000 -0.113397 -0.050000
v -0.900000 -0.113397 -0.050000
v -0.900000 -0.286603 0.050000
v 0.900000 -0.086603 0.050000
v 0.900000 0.086603 -0.050000
v -0.900000 0.086603 -0.050000
v -0.900000 -0.086603 0.050000
v 0.900000 0.113397 0.050000
v 0.900000 0.286603 -0.050000
v -0.900000 0.286603 -0.050000
v -0.900000 0.113397 0.050000
v 0.900000 0.313397 0.050000
v 0.900000 0.486603 -0.050000
v -0.900000 0.486603 -0.050000
v -0.900000 0.313397 0.050000
v 0.490000 -1.000000 -0.100000
v 0.490000 1.000000 -0.100000
v 0.510000 1.000000 -0.100000
v 0.510000 -1.000000 -0.100000
v 0.900000 -0.950000 0.100000
v -0.900000 -0.950000 0.100000
v -0.900000 -0.950000 -0.100000
v 0.900000 -0.950000 -0.100000
v -0.900000 -1.000000 -0.100000
v -0.900000 -0.950000 -0.100000
v 0.900000 -0.950000 -0.100000
v 0.900000 -1.000000 -0.100000
v 0.900000 -1.000000 -0.100000
v 0.900000 -0.950000 -0.100000
v 0.900000 -0.950000 0.100000
v 0.900000 -1.000000 0.100000
v -0.900000 -1.000000 0.100000
v -0.900000 -0.950000 0.100000
v -0.900000 -0.950000 -0.100000
v -0.900000 -1.000000 -0.100000
v 0.900000 -1.000000 0.100000
v 0.900000 -0.950000 0.100000
v -0.900000 -0.950000 0.100000
v -0.900000 -1.000000 0.100000
v 0.490000 -1.000000 -0.100000
v 0.510000 -1.000000 -0.100000
v 0.510000 -1.000000 0.100000
v 0.490000 -1.000000 0.100000
v 0.490000 -1.000000 0.100000
v 0.510000 -1.000000 0.100000
v 0.510000 -1.000000 0.100000
v 0.490000 -1.000000 0.100000
v 0.490000 -1.000000 0.100000
v 0.510000 -1.000000 0.100000
v 0.510000 1.000000 0.100000
v 0.490000 1.000000 0.100000
v -0.510000 -1.000000 -0.100000
v -0.510000 1.000000 -0.100000
v -0.490000 1.000000 -0.100000
v -0.490000 -1.000000 -0.100000
v -0.510000 -1.000000 -0.100000
v -0.490000 -1.000000 -0.100000
v -0.490000 -1.000000 0.100000
v -0.510000 -1.000000 0.100000
v -0.510000 -1.000000 0.100000
v -0.490000 -1.000000 0.100000
v -0.490000 1.000000 0.100000
v -0.510000 1.000000 0.100000
v 0.900000 0.513397 0.050000
v 0.900000 0.686603 -0.050000
v -0.900000 0.686603 -0.050000
v -0.900000 0.513397 0.050000
v 0.900000 0.713397 0.050000
v 0.900000 0.886603 -0.050000
v -0.900000 0.886603 -0.050000
v -0.900000 0.713397 0.050000
v 0.900000 0.913397 0.050000
v 0.900000 1.086602 -0.050000
v -0.900000 1.086602 -0.050000
v -0.900000 0.913397 0.050000

vt 0.566864 0.616274
vt 0.500269 0.016918
vt 0.566864 0.016918
vt 0.500269 0.616274
vt 0.500269 0.016918
vt 0.566864 0.616274
vt 0.834069 0.563877
vt 0.841938 0.000269
vt 0.841938 0.563844
vt 0.834069 0.000302
vt 0.841938 0.000269
vt 0.834069 0.563877
vt 0.417025 0.616274
vt 0.483621 0.016918
vt 0.483620 0.616274
vt 0.417026 0.016918
vt 0.483621 0.016918
vt 0.417025 0.616274
vt 0.417026 0.016918
vt 0.400377 0.616274
vt 0.417025 0.616274
vt 0.400377 0.016918
vt 0.400377 0.616274
vt 0.417026 0.016918
vt 0.483621 0.016918
vt 0.417026 0.000269
vt 0.417026 0.016918
vt 0.483621 0.000269
vt 0.417026 0.000269
vt 0.483621 0.016918
vt 0.417025 0.616274
vt 0.483620 0.632923
vt 0.483620 0.616274
vt 0.417025 0.632923
vt 0.483620 0.632923
vt 0.417025 0.616274
vt 0.483620 0.616274
vt 0.500269 0.016918
vt 0.483621 0.016918
vt 0.500269 0.616274
vt 0.500269 0.016918
vt 0.483620 0.616274
vt 0.824799 0.077305
vt 0.817423 0.000269
vt 0.825124 0.000301
vt 0.817099 0.077273
vt 0.817423 0.000269
vt 0.824799 0.077305
vt 0.824799 0.077440
vt 0.817099 0.077273
vt 0.824799 0.077305
vt 0.817098 0.077407
vt 0.817099 0.077273
vt 0.824799 0.077440
vt 0.825205 0.628937
vt 0.817098 0.077407
vt 0.824799 0.077440
vt 0.817505 0.628905
vt 0.817098 0.077407
vt 0.825205 0.628937
vt 0.842476 0.563877
vt 0.850345 0.000269
vt 0.850345 0.563844
vt 0.842476 0.000302
vt 0.850345 0.000269
vt 0.842476 0.563877
vt 0.567402 0.606820
vt 0.633997 0.600161
vt 0.633997 0.606820
vt 0.567402 0.600161
vt 0.633997 0.600161
vt 0.567402 0.606820
vt 0.825662 -0.112448
vt 0.833531 0.451173
vt 0.825662 0.451134
vt 0.833531 -0.112409
vt 0.833531 0.451173
vt 0.825662 -0.112448
vt 0.000269 0.799946
vt 0.599623 0.866542
vt 0.599623 0.799946
vt 0.000269 0.866541
vt 0.599623 0.866542
vt 0.000269 0.799946
vt 0.567402 0.599623
vt 0.633997 0.000269
vt 0.567402 0.000269
vt 0.633997 0.599623
vt 0.633997 0.000269
vt 0.567402 0.599623
vt 0.701668 0.599623
vt 0.768263 0.000269
vt 0.701668 0.000269
vt 0.768263 0.599623
vt 0.768263 0.000269
vt 0.701668 0.599623
vt 0.634535 0.599623
vt 0.701130 0.000269
vt 0.634535 0.000269
vt 0.701130 0.599623
vt 0.701130 0.000269
vt 0.634535 0.599623
vt 0.400377 0.700594
vt 0.999731 0.767189
vt 0.999731 0.700594
vt 0.400377 0.767189
vt 0.999731 0.767189
vt 0.400377 0.700594
vt 0.400377 0.633461
vt 0.999731 0.700056
vt 0.999731 0.633461
vt 0.400377 0.700056
vt 0.999731 0.700056
vt 0.400377 0.633461
vt 0.000269 0.867079
vt 0.599623 0.933675
vt 0.599623 0.867079
vt 0.000269 0.933674
vt 0.599623 0.933675
vt 0.000269 0.867079
vt 0.000269 0.867079
vt 0.599623 0.933675
vt 0.599623 0.867079
vt 0.000269 0.933674
vt 0.599623 0.933675
vt 0.000269 0.867079
vt 0.000269 0.867079
vt 0.599623 0.933675
vt 0.599623 0.867079
vt 0.000269 0.933674
vt 0.599623 0.933675
vt 0.000269 0.867079
vt 0.000269 0.867079
vt 0.599623 0.933675
vt 0.599623 0.867079
vt 0.000269 0.933674
vt 0.599623 0.933675
vt 0.000269 0.867079

vn -0.000000 1.000000 0.000000
vn -0.000000 1.000000 0.000000
vn -0.000000 1.000000 0.000000
vn -0.000000 1.000000 0.000000
vn -0.000000 1.000000 0.000000
vn -0.000000 1.000000 0.000000
vn -0.000000 0.000000 -1.000000
vn -0.000000 0.000000 -1.000000
vn -0.000000 0.000000 -1.000000
vn -0.000000 0.000000 -1.000000
vn -0.000000 0.000000 -1.000000
vn -0.000000 0.000000 -1.000000
vn -0.000000 -1.000000 0.000000
vn -0.000000 -1.000000 0.000000
vn -0.000000 -1.000000 0.000000
vn -0.000000 -1.000000 0.000000
vn -0.000000 -1.000000 0.000000
vn -0.000000 -1.000000 0.000000
vn -0.000000 0.000000 -1.000000
vn -0.000000 0.000000 -1.000000
vn -0.000000 0.000000 -1.000000
vn -0.000000 0.000000 -1.000000
vn -0.000000 0.000000 -1.000000
vn -0.000000 0.000000 -1.000000
vn 1.000000 0.000000 0.000000
vn 1.000000 0.000000 0.000000
vn 1.000000 0.000000 0.000000
vn 1.000000 0.000000 0.000000
vn 1.000000 0.000000 0.000000
vn 1.000000 0.000000 0.000000
vn -1.000000 0.000000 0.000000
vn -1.000000 0.000000 0.000000
vn -1.000000 0.000000 0.000000
vn -1.000000 0.000000 0.000000
vn -1.000000 0.000000 0.000000
vn -1.000000 0.000000 0.000000
vn -0.000000 0.000000 1.000000
vn -0.000000 0.000000 1.000000
vn -0.000000 0.000000 1.000000
vn -0.000000 0.000000 1.000000
vn -0.000000 0.000000 1.000000
vn -0.000000 0.000000 1.000000
vn -0.000000 -1.000000 0.000000
vn -0.000000 -1.000000 0.000000
vn -0.000000 -1.000000 0.000000
vn -0.000000 -1.000000 0.000000
vn -0.000000 -1.000000 0.000000
vn -0.000000 -1.000000 0.000000
vn -0.000000 1.000000 0.000000
vn -0.000000 1.000000 0.000000
vn -0.000000 1.000000 0.000000
vn -0.000000 1.000000 0.000000
vn -0.000000 1.000000 0.000000
vn -0.000000 1.000000 0.000000
vn -0.000000 0.000000 1.000000
vn -0.000000 0.000000 1.000000
vn -0.000000 0.000000 1.000000
vn -0.000000 0.000000 1.000000
vn -0.000000 0.000000 1.000000
vn -0.000000 0.000000 1.000000
vn -0.000000 0.000000 -1.000000
vn -0.000000 0.000000 -1.000000
vn -0.000000 0.000000 -1.000000
vn -0.000000 0.000000 -1.000000
vn -0.000000 0.000000 -1.000000
vn -0.000000 0.000000 -1.000000
vn -0.000000 -1.000000 0.000000
vn -0.000000 -1.000000 0.000000
vn -0.000000 -1.000000 0.000000
vn -0.000000 -1.000000 0.000000
vn -0.000000 -1.000000 0.000000
vn -0.000000 -1.000000 0.000000
vn -0.000000 0.000000 1.000000
vn -0.000000 0.000000 1.000000
vn -0.000000 0.000000 1.000000
vn -0.000000 0.000000 1.000000
vn -0.000000 0.000000 1.000000
vn -0.000000 0.000000 1.000000
vn -0.000000 0.500000 0.866025
vn -0.000000 0.500000 0.866025
vn -0.000000 0.500000 0.866025
vn -0.000000 0.500000 0.866025
vn -0.000000 0.500000 0.866025
vn -0.000000 0.500000 0.866025
vn -0.000000 0.500000 0.866025
vn -0.000000 0.500000 0.866025
vn -0.000000 0.500000 0.866025
vn -0.000000 0.500000 0.866025
vn -0.000000 0.500000 0.866025
vn -0.000000 0.500000 0.866025
vn -0.000000 0.500000 0.866025
vn -0.000000 0.500000 0.866025
vn -0.000000 0.500000 0.866025
vn -0.000000 0.500000 0.866025
vn -0.000000 0.500000 0.866025
vn -0.000000 0.500000 0.866025
vn -0.000000 0.500000 0.866025
vn -0.000000 0.500000 0.866025
vn -0.000000 0.500000 0.866025
vn -0.000000 0.500000 0.866025
vn -0.000000 0.500000 0.866025
vn -0.000000 0.500000 0.866025
vn -0.000000 0.500000 0.866025
vn -0.000000 0.500000 0.866025
vn -0.000000 0.500000 0.866025
vn -0.000000 0.500000 0.866025
vn -0.000000 0.500000 0.866025
vn -0.000000 0.500000 0.866025
vn -0.000000 0.500000 0.866025
vn -0.000000 0.500000 0.866025
vn -0.000000 0.500000 0.866025
vn -0.000000 0.500000 0.866025
vn -0.000000 0.500000 0.866025
vn -0.000000 0.500000 0.866025
vn -0.000000 0.500000 0.866025
vn -0.000000 0.500000 0.866025
vn -0.000000 0.500000 0.866025
vn -0.000000 0.500000 0.866025
vn -0.000000 0.500000 0.866025
vn -0.000000 0.500000 0.866025
vn -0.000000 0.500000 0.866025
vn -0.000000 0.500000 0.866025
vn -0.000000 0.500000 0.866025
vn -0.000000 0.500000 0.866025
vn -0.000000 0.500000 0.866025
vn -0.000000 0.500000 0.866025
vn -0.000000 0.500000 0.866025
vn -0.000000 0.500000 0.866025
vn -0.000000 0.500000 0.866025
vn -0.000000 0.500000 0.866025
vn -0.000000 0.500000 0.866025
vn -0.000000 0.500000 0.866025
vn -0.000000 0.500000 0.866025
vn -0.000000 0.500000 0.866025
vn -0.000000 0.500000 0.866025
vn -0.000000 0.500000 0.866025
vn -0.000000 0.500000 0.866025
vn -0.000000 0.500000 0.866025

g Material
f 3/1/1 1/2/2 2/3/3
f 4/4/4 1/5/5 3/6/6
f 35/7/7 33/8/8 34/9/9
f 36/10/10 33/11/11 35/12/12
f 39/13/13 37/14/14 38/15/15
f 40/16/16 37/17/17 39/18/18
f 43/19/19 41/20/20 42/21/21
f 44/22/22 41/23/23 43/24/24
f 47/25/25 45/26/26 46/27/27
f 48/28/28 45/29/29 47/30/30
f 51/31/31 49/32/32 50/33/33
f 52/34/34 49/35/35 51/36/36
f 55/37/37 53/38/38 54/39/39
f 56/40/40 53/41/41 55/42/42
f 59/43/43 57/44/44 58/45/45
f 60/46/46 57/47/47 59/48/48
f 63/49/49 61/50/50 62/51/51
f 64/52/52 61/53/53 63/54/54
f 67/55/55 65/56/56 66/57/57
f 68/58/58 65/59/59 67/60/60
f 71/61/61 69/62/62 70/63/63
f 72/64/64 69/65/65 71/66/66
f 75/67/67 73/68/68 74/69/69
f 76/70/70 73/71/71 75/72/72
f 79/73/73 77/74/74 78/75/75
f 80/76/76 77/77/77 79/78/78

g Material.001
f 7/79/79 5/80/80 6/81/81
f 8/82/82 5/83/83 7/84/84
f 11/85/85 9/86/86 10/87/87
f 12/88/88 9/89/89 11/90/90
f 15/91/91 13/92/92 14/93/93
f 16/94/94 13/95/95 15/96/96
f 19/97/97 17/98/98 18/99/99
f 20/100/100 17/101/101 19/102/102
f 23/103/103 21/104/104 22/105/105
f 24/106/106 21/107/107 23/108/108
f 27/109/109 25/110/110 26/111/111
f 28/112/112 25/113/113 27/114/114
f 31/115/115 29/116/116 30/117/117
f 32/118/118 29/119/119 31/120/120
f 83/121/121 81/122/122 82/123/123
f 84/124/124 81/125/125 83/126/126
f 87/127/127 85/128/128 86/129/129
f 88/130/130 85/131/131 87/132/132
f 91/133/133 89/134/134 90/135/135
f 92/136/136 89/137/137 91/138/138

