# Blender 4.0.2
# www.blender.org
mtllib multidecor_glass_vase_with_flowers.mtl
o Circle
v 0.298652 -0.372508 0.298652
v 0.253415 -1.000000 -0.000000
v 0.422358 -0.372508 -0.000000
v 0.179191 -1.000000 0.179191
v 0.253415 -1.000000 -0.000000
v 0.298652 -0.372508 0.298652
v -0.422358 -0.372508 0.000000
v -0.179191 -1.000000 0.179191
v -0.298652 -0.372508 0.298652
v -0.253415 -1.000000 0.000000
v -0.179191 -1.000000 0.179191
v -0.422358 -0.372508 0.000000
v -0.000000 -0.372508 -0.422358
v -0.179191 -1.000000 -0.179191
v -0.298652 -0.372508 -0.298652
v -0.000000 -1.000000 -0.253415
v -0.179191 -1.000000 -0.179191
v -0.000000 -0.372508 -0.422358
v 0.422358 -0.372508 -0.000000
v 0.179191 -1.000000 -0.179191
v 0.298652 -0.372508 -0.298652
v 0.253415 -1.000000 -0.000000
v 0.179191 -1.000000 -0.179191
v 0.422358 -0.372508 -0.000000
v 0.000000 -0.372508 0.422358
v 0.179191 -1.000000 0.179191
v 0.298652 -0.372508 0.298652
v 0.000000 -1.000000 0.253415
v 0.179191 -1.000000 0.179191
v 0.000000 -0.372508 0.422358
v -0.298652 -0.372508 0.298652
v 0.000000 -1.000000 0.253415
v 0.000000 -0.372508 0.422358
v -0.179191 -1.000000 0.179191
v 0.000000 -1.000000 0.253415
v -0.298652 -0.372508 0.298652
v -0.298652 -0.372508 -0.298652
v -0.253415 -1.000000 0.000000
v -0.422358 -0.372508 0.000000
v -0.179191 -1.000000 -0.179191
v -0.253415 -1.000000 0.000000
v -0.298652 -0.372508 -0.298652
v 0.298652 -0.372508 -0.298652
v -0.000000 -1.000000 -0.253415
v -0.000000 -0.372508 -0.422358
v 0.179191 -1.000000 -0.179191
v -0.000000 -1.000000 -0.253415
v 0.298652 -0.372508 -0.298652
v -0.000000 -0.051615 -0.422358
v -0.298652 -0.372508 -0.298652
v -0.298652 -0.051615 -0.298652
v -0.000000 -0.372508 -0.422358
v -0.298652 -0.372508 -0.298652
v -0.000000 -0.051615 -0.422358
v 0.422358 -0.051615 -0.000000
v 0.298652 -0.372508 -0.298652
v 0.298652 -0.051615 -0.298652
v 0.422358 -0.372508 -0.000000
v 0.298652 -0.372508 -0.298652
v 0.422358 -0.051615 -0.000000
v 0.000000 -0.051615 0.422358
v 0.298652 -0.372508 0.298652
v 0.298652 -0.051615 0.298652
v 0.000000 -0.372508 0.422358
v 0.298652 -0.372508 0.298652
v 0.000000 -0.051615 0.422358
v -0.298652 -0.051615 0.298652
v 0.000000 -0.372508 0.422358
v 0.000000 -0.051615 0.422358
v -0.298652 -0.372508 0.298652
v 0.000000 -0.372508 0.422358
v -0.298652 -0.051615 0.298652
v -0.298652 -0.051615 -0.298652
v -0.422358 -0.372508 0.000000
v -0.422358 -0.051615 0.000000
v -0.298652 -0.372508 -0.298652
v -0.422358 -0.372508 0.000000
v -0.298652 -0.051615 -0.298652
v 0.298652 -0.051615 -0.298652
v -0.000000 -0.372508 -0.422358
v -0.000000 -0.051615 -0.422358
v 0.298652 -0.372508 -0.298652
v -0.000000 -0.372508 -0.422358
v 0.298652 -0.051615 -0.298652
v 0.298652 -0.051615 0.298652
v 0.422358 -0.372508 -0.000000
v 0.422358 -0.051615 -0.000000
v 0.298652 -0.372508 0.298652
v 0.422358 -0.372508 -0.000000
v 0.298652 -0.051615 0.298652
v -0.422358 -0.051615 0.000000
v -0.298652 -0.372508 0.298652
v -0.298652 -0.051615 0.298652
v -0.422358 -0.372508 0.000000
v -0.298652 -0.372508 0.298652
v -0.422358 -0.051615 0.000000
v -0.295650 0.280000 0.000000
v -0.298652 -0.051615 0.298652
v -0.209056 0.280000 0.209056
v -0.422358 -0.051615 0.000000
v -0.298652 -0.051615 0.298652
v -0.295650 0.280000 0.000000
v -0.000000 0.280000 -0.295650
v -0.298652 -0.051615 -0.298652
v -0.209056 0.280000 -0.209056
v -0.000000 -0.051615 -0.422358
v -0.298652 -0.051615 -0.298652
v -0.000000 0.280000 -0.295650
v 0.295650 0.280000 -0.000000
v 0.298652 -0.051615 -0.298652
v 0.209056 0.280000 -0.209056
v 0.422358 -0.051615 -0.000000
v 0.298652 -0.051615 -0.298652
v 0.295650 0.280000 -0.000000
v 0.000000 0.280000 0.295650
v 0.298652 -0.051615 0.298652
v 0.209056 0.280000 0.209056
v 0.000000 -0.051615 0.422358
v 0.298652 -0.051615 0.298652
v 0.000000 0.280000 0.295650
v -0.209056 0.280000 0.209056
v 0.000000 -0.051615 0.422358
v 0.000000 0.280000 0.295650
v -0.298652 -0.051615 0.298652
v 0.000000 -0.051615 0.422358
v -0.209056 0.280000 0.209056
v -0.209056 0.280000 -0.209056
v -0.422358 -0.051615 0.000000
v -0.295650 0.280000 0.000000
v -0.298652 -0.051615 -0.298652
v -0.422358 -0.051615 0.000000
v -0.209056 0.280000 -0.209056
v 0.209056 0.280000 -0.209056
v -0.000000 -0.051615 -0.422358
v -0.000000 0.280000 -0.295650
v 0.298652 -0.051615 -0.298652
v -0.000000 -0.051615 -0.422358
v 0.209056 0.280000 -0.209056
v 0.209056 0.280000 0.209056
v 0.422358 -0.051615 -0.000000
v 0.295650 0.280000 -0.000000
v 0.298652 -0.051615 0.298652
v 0.422358 -0.051615 -0.000000
v 0.209056 0.280000 0.209056
v 0.253415 -1.000000 -0.000000
v 0.000000 -1.000000 0.253415
v -0.000000 -1.000000 -0.253415
v 0.179191 -1.000000 0.179191
v 0.000000 -1.000000 0.253415
v 0.253415 -1.000000 -0.000000
v 0.179191 -1.000000 -0.179191
v 0.253415 -1.000000 -0.000000
v -0.000000 -1.000000 -0.253415
v -0.179191 -1.000000 -0.179191
v -0.000000 -1.000000 -0.253415
v 0.000000 -1.000000 0.253415
v -0.253415 -1.000000 0.000000
v -0.179191 -1.000000 -0.179191
v 0.000000 -1.000000 0.253415
v -0.179191 -1.000000 0.179191
v -0.253415 -1.000000 0.000000
v 0.000000 -1.000000 0.253415
v 0.238922 -0.242006 0.238921
v 0.202732 -0.904000 -0.000000
v 0.143353 -0.904000 0.143353
v 0.337886 -0.242006 -0.000000
v 0.202732 -0.904000 -0.000000
v 0.238922 -0.242006 0.238921
v -0.337886 -0.242006 0.000000
v -0.143353 -0.904000 0.143353
v -0.202732 -0.904000 0.000000
v -0.238922 -0.242006 0.238922
v -0.143353 -0.904000 0.143353
v -0.337886 -0.242006 0.000000
v -0.000000 -0.242006 -0.337886
v -0.143353 -0.904000 -0.143353
v -0.000000 -0.904000 -0.202732
v -0.238922 -0.242006 -0.238922
v -0.143353 -0.904000 -0.143353
v -0.000000 -0.242006 -0.337886
v 0.337886 -0.242006 -0.000000
v 0.143353 -0.904000 -0.143353
v 0.202732 -0.904000 -0.000000
v 0.238921 -0.242006 -0.238922
v 0.143353 -0.904000 -0.143353
v 0.337886 -0.242006 -0.000000
v 0.000000 -0.242006 0.337886
v 0.143353 -0.904000 0.143353
v 0.000000 -0.904000 0.202732
v 0.238922 -0.242006 0.238921
v 0.143353 -0.904000 0.143353
v 0.000000 -0.242006 0.337886
v -0.238922 -0.242006 0.238922
v 0.000000 -0.904000 0.202732
v -0.143353 -0.904000 0.143353
v 0.000000 -0.242006 0.337886
v 0.000000 -0.904000 0.202732
v -0.238922 -0.242006 0.238922
v -0.238922 -0.242006 -0.238922
v -0.202732 -0.904000 0.000000
v -0.143353 -0.904000 -0.143353
v -0.337886 -0.242006 0.000000
v -0.202732 -0.904000 0.000000
v -0.238922 -0.242006 -0.238922
v 0.238921 -0.242006 -0.238922
v -0.000000 -0.904000 -0.202732
v 0.143353 -0.904000 -0.143353
v -0.000000 -0.242006 -0.337886
v -0.000000 -0.904000 -0.202732
v 0.238921 -0.242006 -0.238922
v -0.000000 0.014708 -0.337886
v -0.238922 -0.242006 -0.238922
v -0.000000 -0.242006 -0.337886
v -0.238922 0.014708 -0.238922
v -0.238922 -0.242006 -0.238922
v -0.000000 0.014708 -0.337886
v 0.337886 0.014708 -0.000000
v 0.238921 -0.242006 -0.238922
v 0.337886 -0.242006 -0.000000
v 0.238921 0.014708 -0.238922
v 0.238921 -0.242006 -0.238922
v 0.337886 0.014708 -0.000000
v 0.000000 0.014708 0.337886
v 0.238922 -0.242006 0.238921
v 0.000000 -0.242006 0.337886
v 0.238922 0.014708 0.238921
v 0.238922 -0.242006 0.238921
v 0.000000 0.014708 0.337886
v -0.238922 0.014708 0.238922
v 0.000000 -0.242006 0.337886
v -0.238922 -0.242006 0.238922
v 0.000000 0.014708 0.337886
v 0.000000 -0.242006 0.337886
v -0.238922 0.014708 0.238922
v -0.238922 0.014708 -0.238922
v -0.337886 -0.242006 0.000000
v -0.238922 -0.242006 -0.238922
v -0.337886 0.014708 0.000000
v -0.337886 -0.242006 0.000000
v -0.238922 0.014708 -0.238922
v 0.238921 0.014708 -0.238922
v -0.000000 -0.242006 -0.337886
v 0.238921 -0.242006 -0.238922
v -0.000000 0.014708 -0.337886
v -0.000000 -0.242006 -0.337886
v 0.238921 0.014708 -0.238922
v 0.238922 0.014708 0.238921
v 0.337886 -0.242006 -0.000000
v 0.238922 -0.242006 0.238921
v 0.337886 0.014708 -0.000000
v 0.337886 -0.242006 -0.000000
v 0.238922 0.014708 0.238921
v -0.337886 0.014708 0.000000
v -0.238922 -0.242006 0.238922
v -0.337886 -0.242006 0.000000
v -0.238922 0.014708 0.238922
v -0.238922 -0.242006 0.238922
v -0.337886 0.014708 0.000000
v -0.236520 0.280000 0.000000
v -0.238922 0.014708 0.238922
v -0.337886 0.014708 0.000000
v -0.167245 0.280000 0.167245
v -0.238922 0.014708 0.238922
v -0.236520 0.280000 0.000000
v -0.000000 0.280000 -0.236520
v -0.238922 0.014708 -0.238922
v -0.000000 0.014708 -0.337886
v -0.167245 0.280000 -0.167245
v -0.238922 0.014708 -0.238922
v -0.000000 0.280000 -0.236520
v 0.236520 0.280000 -0.000000
v 0.238921 0.014708 -0.238922
v 0.337886 0.014708 -0.000000
v 0.167245 0.280000 -0.167245
v 0.238921 0.014708 -0.238922
v 0.236520 0.280000 -0.000000
v 0.000000 0.280000 0.236520
v 0.238922 0.014708 0.238921
v 0.000000 0.014708 0.337886
v 0.167245 0.280000 0.167245
v 0.238922 0.014708 0.238921
v 0.000000 0.280000 0.236520
v -0.167245 0.280000 0.167245
v 0.000000 0.014708 0.337886
v -0.238922 0.014708 0.238922
v 0.000000 0.280000 0.236520
v 0.000000 0.014708 0.337886
v -0.167245 0.280000 0.167245
v -0.167245 0.280000 -0.167245
v -0.337886 0.014708 0.000000
v -0.238922 0.014708 -0.238922
v -0.236520 0.280000 0.000000
v -0.337886 0.014708 0.000000
v -0.167245 0.280000 -0.167245
v 0.167245 0.280000 -0.167245
v -0.000000 0.014708 -0.337886
v 0.238921 0.014708 -0.238922
v -0.000000 0.280000 -0.236520
v -0.000000 0.014708 -0.337886
v 0.167245 0.280000 -0.167245
v 0.167245 0.280000 0.167245
v 0.337886 0.014708 -0.000000
v 0.238922 0.014708 0.238921
v 0.236520 0.280000 -0.000000
v 0.337886 0.014708 -0.000000
v 0.167245 0.280000 0.167245
v -0.000000 -0.904000 -0.202732
v 0.000000 -0.904000 0.202732
v 0.202732 -0.904000 -0.000000
v 0.202732 -0.904000 -0.000000
v 0.000000 -0.904000 0.202732
v 0.143353 -0.904000 0.143353
v -0.000000 -0.904000 -0.202732
v 0.202732 -0.904000 -0.000000
v 0.143353 -0.904000 -0.143353
v 0.000000 -0.904000 0.202732
v -0.000000 -0.904000 -0.202732
v -0.143353 -0.904000 -0.143353
v 0.000000 -0.904000 0.202732
v -0.143353 -0.904000 -0.143353
v -0.202732 -0.904000 0.000000
v 0.000000 -0.904000 0.202732
v -0.202732 -0.904000 0.000000
v -0.143353 -0.904000 0.143353
v 0.167245 0.280000 0.167245
v 0.000000 0.280000 0.236520
v 0.000000 0.280000 0.295650
v 0.000000 0.280000 0.295650
v 0.000000 0.280000 0.236520
v -0.209056 0.280000 0.209056
v 0.000000 0.280000 0.236520
v -0.167245 0.280000 0.167245
v -0.209056 0.280000 0.209056
v 0.209056 0.280000 0.209056
v 0.295650 0.280000 -0.000000
v 0.167245 0.280000 0.167245
v -0.209056 0.280000 0.209056
v -0.167245 0.280000 0.167245
v -0.295650 0.280000 0.000000
v 0.167245 0.280000 0.167245
v 0.295650 0.280000 -0.000000
v 0.236520 0.280000 -0.000000
v -0.167245 0.280000 0.167245
v -0.236520 0.280000 0.000000
v -0.295650 0.280000 0.000000
v -0.295650 0.280000 0.000000
v -0.236520 0.280000 0.000000
v -0.209056 0.280000 -0.209056
v -0.236520 0.280000 0.000000
v -0.167245 0.280000 -0.167245
v -0.209056 0.280000 -0.209056
v 0.236520 0.280000 -0.000000
v 0.295650 0.280000 -0.000000
v 0.167245 0.280000 -0.167245
v 0.295650 0.280000 -0.000000
v 0.209056 0.280000 -0.209056
v 0.167245 0.280000 -0.167245
v 0.167245 0.280000 -0.167245
v 0.209056 0.280000 -0.209056
v -0.000000 0.280000 -0.236520
v -0.167245 0.280000 -0.167245
v -0.000000 0.280000 -0.236520
v -0.209056 0.280000 -0.209056
v 0.209056 0.280000 -0.209056
v -0.000000 0.280000 -0.295650
v -0.000000 0.280000 -0.236520
v -0.209056 0.280000 -0.209056
v -0.000000 0.280000 -0.236520
v -0.000000 0.280000 -0.295650
v 0.209056 0.280000 0.209056
v 0.167245 0.280000 0.167245
v 0.000000 0.280000 0.295650
v -0.354780 1.183480 0.000000
v 0.354780 0.063480 -0.000000
v -0.354780 0.063480 0.000000
v 0.354780 1.183480 -0.000000
v 0.354780 0.063480 -0.000000
v -0.354780 1.183480 0.000000
v 0.000000 1.183480 0.354780
v -0.000000 0.063480 -0.354780
v 0.000000 0.063480 0.354780
v -0.000000 1.183480 -0.354780
v -0.000000 0.063480 -0.354780
v 0.000000 1.183480 0.354780
vn 0.8966 -0.2414 0.3714
vn -0.8966 -0.2414 0.3714
vn -0.3714 -0.2414 -0.8966
vn 0.8966 -0.2414 -0.3714
vn 0.3714 -0.2414 0.8966
vn -0.3714 -0.2414 0.8966
vn -0.8966 -0.2414 -0.3714
vn 0.3714 -0.2414 -0.8966
vn -0.3827 -0.0000 -0.9239
vn 0.9239 -0.0000 -0.3827
vn 0.3827 -0.0000 0.9239
vn -0.3827 -0.0000 0.9239
vn -0.9239 -0.0000 -0.3827
vn 0.3827 -0.0000 -0.9239
vn 0.9239 -0.0000 0.3827
vn -0.9239 -0.0000 0.3827
vn -0.8712 0.3329 0.3609
vn -0.3609 0.3329 -0.8712
vn 0.8712 0.3329 -0.3609
vn 0.3609 0.3329 0.8712
vn -0.3609 0.3329 0.8712
vn -0.8712 0.3329 -0.3609
vn 0.3609 0.3329 -0.8712
vn 0.8712 0.3329 0.3609
vn -0.0000 -1.0000 -0.0000
vn -0.9079 0.1854 -0.3761
vn 0.9079 0.1854 -0.3761
vn 0.3761 0.1854 0.9079
vn -0.9079 0.1854 0.3761
vn -0.3761 0.1854 -0.9079
vn 0.3761 0.1854 -0.9079
vn 0.9079 0.1854 0.3761
vn -0.3761 0.1854 0.9079
vn 0.8712 -0.3329 -0.3609
vn 0.3609 -0.3329 0.8712
vn -0.8712 -0.3329 0.3609
vn -0.3609 -0.3329 -0.8712
vn 0.3609 -0.3329 -0.8712
vn 0.8712 -0.3329 0.3609
vn -0.3609 -0.3329 0.8712
vn -0.8712 -0.3329 -0.3609
vn -0.0000 1.0000 -0.0000
vn -0.0000 -0.0000 -1.0000
vn -1.0000 -0.0000 -0.0000
vt 0.405400 0.277996
vt 0.304100 0.277996
vt 0.385140 0.528615
vt 0.324360 0.528615
vt 0.101498 0.277996
vt 0.000197 0.277996
vt 0.081238 0.528615
vt 0.020457 0.528615
vt 0.250816 0.832912
vt 0.250816 0.731611
vt 0.000197 0.812652
vt 0.000197 0.751871
vt 0.250816 0.630310
vt 0.250816 0.529009
vt 0.000197 0.610050
vt 0.000197 0.549269
vt 0.202799 0.277996
vt 0.283840 0.528615
vt 0.223059 0.528615
vt 0.182539 0.528615
vt 0.121758 0.528615
vt 0.250816 0.934213
vt 0.000197 0.913953
vt 0.000197 0.853172
vt 0.000197 0.711351
vt 0.000197 0.650570
vt 0.376516 0.832912
vt 0.376516 0.731611
vt 0.376516 0.630310
vt 0.376516 0.529009
vt 0.304100 0.152296
vt 0.202799 0.152296
vt 0.101498 0.152296
vt 0.376516 0.934212
vt 0.405400 0.152296
vt 0.000197 0.152296
vt 0.086303 0.017316
vt 0.015392 0.017316
vt 0.511496 0.817717
vt 0.511496 0.746806
vt 0.511496 0.615115
vt 0.511496 0.544204
vt 0.288904 0.017316
vt 0.217994 0.017316
vt 0.187604 0.017317
vt 0.116693 0.017317
vt 0.511496 0.919017
vt 0.511496 0.848107
vt 0.511496 0.716416
vt 0.511496 0.645505
vt 0.390205 0.017316
vt 0.319295 0.017316
vt 0.834110 0.000197
vt 0.730352 0.043175
vt 0.773330 0.146934
vt 0.730352 0.103956
vt 0.773330 0.000197
vt 0.877089 0.043175
vt 0.877089 0.103956
vt 0.834110 0.146934
vt 0.999803 0.593842
vt 0.737553 0.610050
vt 0.999803 0.545218
vt 0.737553 0.529009
vt 0.999803 0.836964
vt 0.737553 0.853172
vt 0.999803 0.788340
vt 0.737553 0.772131
vt 0.551668 0.000197
vt 0.567876 0.262447
vt 0.503043 0.000197
vt 0.486835 0.262447
vt 0.713749 0.000197
vt 0.729957 0.262447
vt 0.665125 0.000197
vt 0.648917 0.262447
vt 0.999803 0.674883
vt 0.737553 0.691091
vt 0.999803 0.626258
vt 0.999803 0.755923
vt 0.999803 0.707299
vt 0.470627 0.000197
vt 0.422003 0.000197
vt 0.405795 0.262447
vt 0.632708 0.000197
vt 0.584084 0.000197
vt 0.567876 0.363007
vt 0.486835 0.363007
vt 0.729957 0.363007
vt 0.648917 0.363007
vt 0.636993 0.691091
vt 0.636993 0.610050
vt 0.636993 0.772131
vt 0.405795 0.363007
vt 0.636993 0.529009
vt 0.636993 0.853172
vt 0.529009 0.841016
vt 0.529009 0.784287
vt 0.555720 0.470991
vt 0.498991 0.470991
vt 0.717801 0.470991
vt 0.661073 0.470991
vt 0.529009 0.678934
vt 0.529009 0.622206
vt 0.529009 0.759975
vt 0.529009 0.703247
vt 0.474679 0.470991
vt 0.417951 0.470991
vt 0.636761 0.470991
vt 0.580032 0.470991
vt 0.529009 0.597894
vt 0.529009 0.541165
vt 0.730352 0.181711
vt 0.813359 0.147328
vt 0.764734 0.264718
vt 0.730352 0.230335
vt 0.764734 0.147328
vt 0.847741 0.181711
vt 0.847741 0.230335
vt 0.813359 0.264718
vt 0.281813 0.000197
vt 0.225085 0.000197
vt 0.180513 0.000197
vt 0.123784 0.000197
vt 0.326386 0.000197
vt 0.079212 0.000197
vt 0.383114 0.000197
vt 0.022483 0.000197
vt 0.528615 0.911926
vt 0.528615 0.855198
vt 0.528615 0.608024
vt 0.528615 0.551296
vt 0.528615 0.709325
vt 0.528615 0.652596
vt 0.528615 0.810625
vt 0.528615 0.753897
vt 1.000000 0.000000
vt 1.000000 1.000000
vt 0.000000 0.000000
vt 0.000000 1.000000
s 0
usemtl Material.156
f 3/1/1 1/2/1 2/3/1
f 6/2/1 4/4/1 5/3/1
f 9/5/2 7/6/2 8/7/2
f 12/6/2 10/8/2 11/7/2
f 15/9/3 13/10/3 14/11/3
f 18/10/3 16/12/3 17/11/3
f 21/13/4 19/14/4 20/15/4
f 24/14/4 22/16/4 23/15/4
f 27/2/5 25/17/5 26/18/5
f 30/17/5 28/19/5 29/18/5
f 33/17/6 31/5/6 32/20/6
f 36/5/6 34/21/6 35/20/6
f 39/22/7 37/9/7 38/23/7
f 42/9/7 40/24/7 41/23/7
f 45/10/8 43/13/8 44/25/8
f 48/13/8 46/26/8 47/25/8
f 51/27/9 49/28/9 50/9/9
f 54/28/9 52/10/9 53/9/9
f 57/29/10 55/30/10 56/13/10
f 60/30/10 58/14/10 59/13/10
f 63/31/11 61/32/11 62/2/11
f 66/32/11 64/17/11 65/2/11
f 69/32/12 67/33/12 68/17/12
f 72/33/12 70/5/12 71/17/12
f 75/34/13 73/27/13 74/22/13
f 78/27/13 76/9/13 77/22/13
f 81/28/14 79/29/14 80/10/14
f 84/29/14 82/13/14 83/10/14
f 87/35/15 85/31/15 86/1/15
f 90/31/15 88/2/15 89/1/15
f 93/33/16 91/36/16 92/5/16
f 96/36/16 94/6/16 95/5/16
f 99/37/17 97/38/17 98/33/17
f 102/38/17 100/36/17 101/33/17
f 105/39/18 103/40/18 104/27/18
f 108/40/18 106/28/18 107/27/18
f 111/41/19 109/42/19 110/29/19
f 114/42/19 112/30/19 113/29/19
f 117/43/20 115/44/20 116/31/20
f 120/44/20 118/32/20 119/31/20
f 123/45/21 121/46/21 122/32/21
f 126/46/21 124/33/21 125/32/21
f 129/47/22 127/48/22 128/34/22
f 132/48/22 130/27/22 131/34/22
f 135/49/23 133/50/23 134/28/23
f 138/50/23 136/29/23 137/28/23
f 141/51/24 139/52/24 140/35/24
f 144/52/24 142/31/24 143/35/24
f 147/53/25 145/54/25 146/55/25
f 150/54/25 148/56/25 149/55/25
f 153/53/25 151/57/25 152/54/25
f 156/55/25 154/58/25 155/53/25
f 159/55/25 157/59/25 158/58/25
f 162/55/25 160/60/25 161/59/25
f 165/61/26 163/62/26 164/63/26
f 168/62/26 166/64/26 167/63/26
f 171/65/27 169/66/27 170/67/27
f 174/66/27 172/68/27 173/67/27
f 177/69/28 175/70/28 176/71/28
f 180/70/28 178/72/28 179/71/28
f 183/73/29 181/74/29 182/75/29
f 186/74/29 184/76/29 185/75/29
f 189/77/30 187/78/30 188/79/30
f 192/78/30 190/62/30 191/79/30
f 195/80/31 193/68/31 194/81/31
f 198/68/31 196/78/31 197/81/31
f 201/82/32 199/72/32 200/83/32
f 204/72/32 202/84/32 203/83/32
f 207/85/33 205/76/33 206/86/33
f 210/76/33 208/70/33 209/86/33
f 213/70/11 211/87/11 212/72/11
f 216/87/11 214/88/11 215/72/11
f 219/74/16 217/89/16 218/76/16
f 222/89/16 220/90/16 221/76/16
f 225/78/9 223/91/9 224/62/9
f 228/91/9 226/92/9 227/62/9
f 231/68/14 229/93/14 230/78/14
f 234/93/14 232/91/14 233/78/14
f 237/72/15 235/88/15 236/84/15
f 240/88/15 238/94/15 239/84/15
f 243/76/12 241/90/12 242/70/12
f 246/90/12 244/87/12 245/70/12
f 249/62/13 247/92/13 248/64/13
f 252/92/13 250/95/13 251/64/13
f 255/66/10 253/96/10 254/68/10
f 258/96/10 256/93/10 257/68/10
f 261/96/34 259/97/34 260/93/34
f 264/97/34 262/98/34 263/93/34
f 267/87/35 265/99/35 266/88/35
f 270/99/35 268/100/35 269/88/35
f 273/89/36 271/101/36 272/90/36
f 276/101/36 274/102/36 275/90/36
f 279/91/37 277/103/37 278/92/37
f 282/103/37 280/104/37 281/92/37
f 285/93/38 283/105/38 284/91/38
f 288/105/38 286/106/38 287/91/38
f 291/88/39 289/107/39 290/94/39
f 294/107/39 292/108/39 293/94/39
f 297/90/40 295/109/40 296/87/40
f 300/109/40 298/110/40 299/87/40
f 303/92/41 301/111/41 302/95/41
f 306/111/41 304/112/41 305/95/41
f 309/113/42 307/114/42 308/115/42
f 312/116/42 310/113/42 311/115/42
f 315/117/42 313/114/42 314/113/42
f 318/118/42 316/115/42 317/114/42
f 321/119/42 319/115/42 320/118/42
f 324/120/42 322/115/42 323/119/42
f 327/44/42 325/121/42 326/122/42
f 330/46/42 328/45/42 329/123/42
f 333/46/42 331/123/42 332/124/42
f 336/125/42 334/52/42 335/51/42
f 339/38/42 337/37/42 338/126/42
f 342/127/42 340/125/42 341/51/42
f 345/38/42 343/126/42 344/128/42
f 348/48/42 346/47/42 347/129/42
f 351/48/42 349/129/42 350/130/42
f 354/131/42 352/132/42 353/42/42
f 357/131/42 355/42/42 356/41/42
f 360/133/42 358/134/42 359/50/42
f 363/39/42 361/135/42 362/136/42
f 366/133/42 364/50/42 365/49/42
f 369/40/42 367/39/42 368/136/42
f 372/44/42 370/43/42 371/121/42
usemtl Material.157
f 375/137/43 373/138/43 374/139/43
f 378/138/43 376/140/43 377/139/43
f 381/137/44 379/138/44 380/139/44
f 384/138/44 382/140/44 383/139/44
