# Converted from B3D for Luanti (With Correct Normals)
# Object Name: multidecor_bedside_table

v -0.849999 -0.602352 0.898547
v 0.850001 -0.602352 0.898546
v 0.849999 -0.602352 -0.661454
v -0.850001 -0.602352 -0.661453
v -0.850001 -0.902352 -0.661453
v -0.850001 -0.602352 -0.661453
v 0.849999 -0.602352 -0.661454
v 0.849999 -0.902352 -0.661454
v 0.850001 -0.902352 0.898546
v -0.849999 -0.902352 0.898547
v -0.850001 -0.902352 -0.661453
v 0.849999 -0.902352 -0.661454
v 0.999999 -0.902352 -0.961454
v 0.999999 0.947648 -0.961454
v 1.000000 0.947648 0.898546
v 1.000000 -0.902352 0.898546
v 0.850001 -0.902352 0.898546
v 0.850001 0.947648 0.898546
v 0.849999 0.947648 -0.961454
v 0.849999 -0.902352 -0.961454
v 0.849999 -0.902352 -0.961454
v 0.849999 0.947648 -0.961454
v 0.999999 0.947648 -0.961454
v 0.999999 -0.902352 -0.961454
v 1.000000 -0.902352 0.898546
v 0.850001 -0.902352 0.898546
v 0.849999 -0.902352 -0.961454
v 0.999999 -0.902352 -0.961454
v 0.999999 0.947648 -0.961454
v 0.999999 1.097648 -0.961454
v 1.000000 1.097648 0.898546
v 1.000000 0.947648 0.898546
v -0.999999 0.947648 0.898547
v -0.999999 1.097648 0.898547
v -1.000001 1.097648 -0.961453
v -1.000001 0.947648 -0.961453
v -1.000001 0.947648 -0.961453
v -1.000001 1.097648 -0.961453
v 0.999999 1.097648 -0.961454
v 0.999999 0.947648 -0.961454
v 1.000000 0.947648 0.898546
v -0.999999 0.947648 0.898547
v -1.000001 0.947648 -0.961453
v 0.999999 0.947648 -0.961454
v -0.999999 1.097648 0.898547
v 1.000000 1.097648 0.898546
v 0.999999 1.097648 -0.961454
v -1.000001 1.097648 -0.961453
v -0.850001 -0.902352 -0.961453
v -0.850001 0.947648 -0.961453
v -0.849999 0.947648 0.898547
v -0.849999 -0.902352 0.898547
v -0.999999 -0.902352 0.898547
v -0.999999 0.947648 0.898547
v -1.000001 0.947648 -0.961453
v -1.000001 -0.902352 -0.961453
v -1.000001 -0.902352 -0.961453
v -1.000001 0.947648 -0.961453
v -0.850001 0.947648 -0.961453
v -0.850001 -0.902352 -0.961453
v -0.849999 -0.902352 0.898547
v -0.999999 -0.902352 0.898547
v -1.000001 -0.902352 -0.961453
v -0.850001 -0.902352 -0.961453
v 1.000000 -0.902352 0.898546
v 1.000000 1.097649 0.898546
v 1.000001 1.097649 0.948546
v 1.000001 -0.902352 0.948546
v 1.000001 -0.902352 0.948546
v 1.000001 1.097649 0.948546
v -0.999999 1.097649 0.948547
v -0.999999 -0.902352 0.948547
v -0.999999 -0.902352 0.948547
v -0.999999 1.097649 0.948547
v -0.999999 1.097649 0.898547
v -0.999999 -0.902352 0.898547
v -0.999999 -0.902352 0.898547
v -0.999999 1.097649 0.898547
v 1.000000 1.097649 0.898546
v 1.000000 -0.902352 0.898546
v 1.000001 -0.902352 0.948546
v -0.999999 -0.902352 0.948547
v -0.999999 -0.902352 0.898547
v 1.000000 -0.902352 0.898546
v -0.999999 1.097649 0.948547
v 1.000001 1.097649 0.948546
v 1.000000 1.097649 0.898546
v -0.999999 1.097649 0.898547
v -0.850001 0.247648 -0.961453
v 0.849999 0.247648 -0.961454
v 0.849999 0.097648 -0.961454
v -0.850001 0.097648 -0.961453
v 0.850001 0.247648 0.898546
v 0.849999 0.247648 -0.961454
v -0.850001 0.247648 -0.961453
v -0.849999 0.247648 0.898547
v -0.849999 0.097648 0.898547
v -0.850001 0.097648 -0.961453
v 0.849999 0.097648 -0.961454
v 0.850001 0.097648 0.898546

vt 0.749779 0.740318
vt 0.969231 0.941697
vt 0.749779 0.941697
vt 0.969231 0.740318
vt 0.969231 0.941697
vt 0.749779 0.740318
vt 0.749779 0.740318
vt 0.969231 0.701591
vt 0.969231 0.740318
vt 0.749779 0.701591
vt 0.969231 0.701591
vt 0.749779 0.740318
vt 0.969231 0.701591
vt 0.749779 0.500212
vt 0.969231 0.500212
vt 0.749779 0.701591
vt 0.749779 0.500212
vt 0.969231 0.701591
vt 0.555721 0.499787
vt 0.316906 0.259682
vt 0.555721 0.259682
vt 0.316906 0.499787
vt 0.316906 0.259682
vt 0.555721 0.499787
vt 0.555721 0.240318
vt 0.316906 0.000212
vt 0.555721 0.000213
vt 0.316906 0.240318
vt 0.316906 0.000212
vt 0.555721 0.240318
vt 0.555721 0.259682
vt 0.316906 0.240318
vt 0.555721 0.240318
vt 0.316906 0.259682
vt 0.316906 0.240318
vt 0.555721 0.259682
vt 0.316906 0.240318
vt 0.297542 0.000212
vt 0.316906 0.000212
vt 0.297542 0.240318
vt 0.297542 0.000212
vt 0.316906 0.240318
vt 0.019576 0.499788
vt 0.000212 0.259682
vt 0.019576 0.259682
vt 0.000212 0.499788
vt 0.000212 0.259682
vt 0.019576 0.499788
vt 0.277754 0.259682
vt 0.297117 0.499788
vt 0.277754 0.499788
vt 0.297117 0.259682
vt 0.297117 0.499788
vt 0.277754 0.259682
vt 0.019576 0.259682
vt 0.277754 0.240318
vt 0.277754 0.259682
vt 0.019576 0.240318
vt 0.277754 0.240318
vt 0.019576 0.259682
vt 0.277754 0.240318
vt 0.019576 0.000212
vt 0.277754 0.000212
vt 0.019576 0.240318
vt 0.019576 0.000212
vt 0.277754 0.240318
vt 0.019576 0.259682
vt 0.277754 0.499788
vt 0.019576 0.499788
vt 0.277754 0.259682
vt 0.277754 0.499788
vt 0.019576 0.259682
vt 0.814324 0.499787
vt 0.575509 0.259682
vt 0.814324 0.259682
vt 0.575509 0.499787
vt 0.575509 0.259682
vt 0.814324 0.499787
vt 0.814324 0.240318
vt 0.575509 0.000212
vt 0.814324 0.000213
vt 0.575509 0.240318
vt 0.575509 0.000212
vt 0.814324 0.240318
vt 0.814324 0.259682
vt 0.575509 0.240318
vt 0.814324 0.240318
vt 0.575509 0.259682
vt 0.575509 0.240318
vt 0.814324 0.259682
vt 0.556146 0.259682
vt 0.575509 0.499787
vt 0.556146 0.499787
vt 0.575509 0.259682
vt 0.575509 0.499787
vt 0.556146 0.259682
vt 0.006667 0.506667
vt 0.264845 0.764845
vt 0.006667 0.764845
vt 0.264845 0.506667
vt 0.264845 0.764845
vt 0.006667 0.506667
vt 0.749354 0.740318
vt 0.529903 0.759682
vt 0.749354 0.759682
vt 0.529903 0.740318
vt 0.529903 0.759682
vt 0.749354 0.740318
vt 0.529903 0.759682
vt 0.749354 0.999787
vt 0.749354 0.759682
vt 0.529903 0.999788
vt 0.749354 0.999787
vt 0.529903 0.759682
vt 0.749354 0.740318
vt 0.529903 0.500212
vt 0.529903 0.740318
vt 0.749354 0.500212
vt 0.529903 0.500212
vt 0.749354 0.740318
vt 0.976355 0.000138
vt 0.953126 0.929349
vt 0.953125 0.000138
vt 0.976355 0.929349
vt 0.953126 0.929349
vt 0.976355 0.000138
vt 0.000138 0.952572
vt 0.929342 0.023368
vt 0.929342 0.952572
vt 0.000138 0.023368
vt 0.929342 0.023368
vt 0.000138 0.952572
vt 0.999862 0.000138
vt 0.976632 0.929349
vt 0.976632 0.000138
vt 0.999862 0.929349
vt 0.976632 0.929349
vt 0.999862 0.000138
vt 0.000138 0.000138
vt 0.929342 0.023368
vt 0.000138 0.023368
vt 0.929342 0.000139
vt 0.929342 0.023368
vt 0.000138 0.000138
vt 0.952849 0.000138
vt 0.929619 0.929349
vt 0.929619 0.000138
vt 0.952849 0.929349
vt 0.929619 0.929349
vt 0.952849 0.000138

vn 0.000000 1.000000 0.000000
vn 0.000000 1.000000 0.000000
vn 0.000000 1.000000 0.000000
vn -0.000000 1.000000 0.000000
vn -0.000000 1.000000 0.000000
vn -0.000000 1.000000 0.000000
vn -0.000001 0.000000 -1.000000
vn -0.000001 0.000000 -1.000000
vn -0.000001 0.000000 -1.000000
vn -0.000001 0.000000 -1.000000
vn -0.000001 0.000000 -1.000000
vn -0.000001 0.000000 -1.000000
vn 0.000000 -1.000000 0.000000
vn 0.000000 -1.000000 0.000000
vn 0.000000 -1.000000 0.000000
vn -0.000000 -1.000000 0.000000
vn -0.000000 -1.000000 0.000000
vn -0.000000 -1.000000 0.000000
vn 1.000000 0.000000 -0.000001
vn 1.000000 0.000000 -0.000001
vn 1.000000 0.000000 -0.000001
vn 1.000000 0.000000 -0.000001
vn 1.000000 0.000000 -0.000001
vn 1.000000 0.000000 -0.000001
vn -1.000000 0.000000 0.000001
vn -1.000000 0.000000 0.000001
vn -1.000000 0.000000 0.000001
vn -1.000000 0.000000 0.000001
vn -1.000000 0.000000 0.000001
vn -1.000000 0.000000 0.000001
vn -0.000001 0.000000 -1.000000
vn -0.000001 0.000000 -1.000000
vn -0.000001 0.000000 -1.000000
vn -0.000001 0.000000 -1.000000
vn -0.000001 0.000000 -1.000000
vn -0.000001 0.000000 -1.000000
vn 0.000000 -1.000000 0.000000
vn 0.000000 -1.000000 0.000000
vn 0.000000 -1.000000 0.000000
vn -0.000000 -1.000000 0.000000
vn -0.000000 -1.000000 0.000000
vn -0.000000 -1.000000 0.000000
vn 1.000000 0.000000 -0.000001
vn 1.000000 0.000000 -0.000001
vn 1.000000 0.000000 -0.000001
vn 1.000000 0.000000 -0.000001
vn 1.000000 0.000000 -0.000001
vn 1.000000 0.000000 -0.000001
vn -1.000000 0.000000 0.000001
vn -1.000000 0.000000 0.000001
vn -1.000000 0.000000 0.000001
vn -1.000000 0.000000 0.000001
vn -1.000000 0.000000 0.000001
vn -1.000000 0.000000 0.000001
vn -0.000001 0.000000 -1.000000
vn -0.000001 0.000000 -1.000000
vn -0.000001 0.000000 -1.000000
vn -0.000001 0.000000 -1.000000
vn -0.000001 0.000000 -1.000000
vn -0.000001 0.000000 -1.000000
vn 0.000000 -1.000000 0.000000
vn 0.000000 -1.000000 0.000000
vn 0.000000 -1.000000 0.000000
vn -0.000000 -1.000000 0.000000
vn -0.000000 -1.000000 0.000000
vn -0.000000 -1.000000 0.000000
vn -0.000000 1.000000 0.000000
vn -0.000000 1.000000 0.000000
vn -0.000000 1.000000 0.000000
vn -0.000000 1.000000 0.000000
vn -0.000000 1.000000 0.000000
vn -0.000000 1.000000 0.000000
vn 1.000000 0.000000 -0.000001
vn 1.000000 0.000000 -0.000001
vn 1.000000 0.000000 -0.000001
vn 1.000000 0.000000 -0.000001
vn 1.000000 0.000000 -0.000001
vn 1.000000 0.000000 -0.000001
vn -1.000000 0.000000 0.000001
vn -1.000000 0.000000 0.000001
vn -1.000000 0.000000 0.000001
vn -1.000000 0.000000 0.000001
vn -1.000000 0.000000 0.000001
vn -1.000000 0.000000 0.000001
vn -0.000001 0.000000 -1.000000
vn -0.000001 0.000000 -1.000000
vn -0.000001 0.000000 -1.000000
vn -0.000001 0.000000 -1.000000
vn -0.000001 0.000000 -1.000000
vn -0.000001 0.000000 -1.000000
vn 0.000000 -1.000000 0.000000
vn 0.000000 -1.000000 0.000000
vn 0.000000 -1.000000 0.000000
vn -0.000000 -1.000000 0.000000
vn -0.000000 -1.000000 0.000000
vn -0.000000 -1.000000 0.000000
vn -0.000001 0.000000 -1.000000
vn -0.000001 0.000000 -1.000000
vn -0.000001 0.000000 -1.000000
vn -0.000001 0.000000 -1.000000
vn -0.000001 0.000000 -1.000000
vn -0.000001 0.000000 -1.000000
vn -0.000001 0.000000 -1.000000
vn -0.000001 0.000000 -1.000000
vn -0.000001 0.000000 -1.000000
vn -0.000001 0.000000 -1.000000
vn -0.000001 0.000000 -1.000000
vn -0.000001 0.000000 -1.000000
vn -0.000000 1.000000 0.000000
vn -0.000000 1.000000 0.000000
vn -0.000000 1.000000 0.000000
vn 0.000000 1.000000 0.000000
vn 0.000000 1.000000 0.000000
vn 0.000000 1.000000 0.000000
vn -0.000000 -1.000000 0.000000
vn -0.000000 -1.000000 0.000000
vn -0.000000 -1.000000 0.000000
vn 0.000000 -1.000000 0.000000
vn 0.000000 -1.000000 0.000000
vn 0.000000 -1.000000 0.000000
vn 1.000000 0.000000 0.000000
vn 1.000000 0.000000 0.000000
vn 1.000000 0.000000 0.000000
vn 1.000000 0.000000 -0.000005
vn 1.000000 0.000000 -0.000005
vn 1.000000 0.000000 -0.000005
vn 0.000001 0.000000 1.000000
vn 0.000001 0.000000 1.000000
vn 0.000001 0.000000 1.000000
vn 0.000001 0.000000 1.000000
vn 0.000001 0.000000 1.000000
vn 0.000001 0.000000 1.000000
vn -1.000000 0.000000 0.000000
vn -1.000000 0.000000 0.000000
vn -1.000000 0.000000 0.000000
vn -1.000000 0.000000 0.000000
vn -1.000000 0.000000 0.000000
vn -1.000000 0.000000 0.000000
vn 0.000000 -1.000000 0.000000
vn 0.000000 -1.000000 0.000000
vn 0.000000 -1.000000 0.000000
vn -0.000000 -1.000000 0.000000
vn -0.000000 -1.000000 0.000000
vn -0.000000 -1.000000 0.000000
vn -0.000000 1.000000 0.000000
vn -0.000000 1.000000 0.000000
vn -0.000000 1.000000 0.000000
vn -0.000000 1.000000 0.000000
vn -0.000000 1.000000 0.000000
vn -0.000000 1.000000 0.000000

g Material
f 3/1/1 1/2/2 2/3/3
f 4/4/4 1/5/5 3/6/6
f 7/7/7 5/8/8 6/9/9
f 8/10/10 5/11/11 7/12/12
f 11/13/13 9/14/14 10/15/15
f 12/16/16 9/17/17 11/18/18
f 15/19/19 13/20/20 14/21/21
f 16/22/22 13/23/23 15/24/24
f 19/25/25 17/26/26 18/27/27
f 20/28/28 17/29/29 19/30/30
f 23/31/31 21/32/32 22/33/33
f 24/34/34 21/35/35 23/36/36
f 27/37/37 25/38/38 26/39/39
f 28/40/40 25/41/41 27/42/42
f 31/43/43 29/44/44 30/45/45
f 32/46/46 29/47/47 31/48/48
f 35/49/49 33/50/50 34/51/51
f 36/52/52 33/53/53 35/54/54
f 39/55/55 37/56/56 38/57/57
f 40/58/58 37/59/59 39/60/60
f 43/61/61 41/62/62 42/63/63
f 44/64/64 41/65/65 43/66/66
f 47/67/67 45/68/68 46/69/69
f 48/70/70 45/71/71 47/72/72
f 51/73/73 49/74/74 50/75/75
f 52/76/76 49/77/77 51/78/78
f 55/79/79 53/80/80 54/81/81
f 56/82/82 53/83/83 55/84/84
f 59/85/85 57/86/86 58/87/87
f 60/88/88 57/89/89 59/90/90
f 63/91/91 61/92/92 62/93/93
f 64/94/94 61/95/95 63/96/96
f 79/97/97 77/98/98 78/99/99
f 80/100/100 77/101/101 79/102/102
f 91/103/103 89/104/104 90/105/105
f 92/106/106 89/107/107 91/108/108
f 95/109/109 93/110/110 94/111/111
f 96/112/112 93/113/113 95/114/114
f 99/115/115 97/116/116 98/117/117
f 100/118/118 97/119/119 99/120/120

g Material.003
f 67/121/121 65/122/122 66/123/123
f 68/124/124 65/125/125 67/126/126
f 71/127/127 69/128/128 70/129/129
f 72/130/130 69/131/131 71/132/132
f 75/133/133 73/134/134 74/135/135
f 76/136/136 73/137/137 75/138/138
f 83/139/139 81/140/140 82/141/141
f 84/142/142 81/143/143 83/144/144
f 87/145/145 85/146/146 86/147/147
f 88/148/148 85/149/149 87/150/150

