# Converted from B3D for Luanti (With Correct Normals)
# Object Name: multidecor_soft_modern_jungle_chair

v -0.616786 -0.287500 0.528000
v 0.616787 -0.417048 0.527999
v 0.616787 -0.287500 0.527999
v -0.616786 -0.417048 0.528000
v 0.616787 -0.417048 0.527999
v -0.616786 -0.287500 0.528000
v -0.616787 -0.287500 -0.616786
v -0.616786 -0.417048 0.528000
v -0.616786 -0.287500 0.528000
v -0.616787 -0.417048 -0.616786
v -0.616786 -0.417048 0.528000
v -0.616787 -0.287500 -0.616786
v 0.616787 -0.417048 0.527999
v -0.616787 -0.417048 -0.616786
v 0.616786 -0.417048 -0.616787
v -0.616786 -0.417048 0.528000
v -0.616787 -0.417048 -0.616786
v 0.616787 -0.417048 0.527999
v 0.616787 -0.287500 0.527999
v 0.616786 -0.417048 -0.616787
v 0.616786 -0.287500 -0.616787
v 0.616787 -0.417048 0.527999
v 0.616786 -0.417048 -0.616787
v 0.616787 -0.287500 0.527999
v 0.616786 -0.287500 -0.616787
v -0.616787 -0.417048 -0.616786
v -0.616787 -0.287500 -0.616786
v 0.616786 -0.417048 -0.616787
v -0.616787 -0.417048 -0.616786
v 0.616786 -0.287500 -0.616787
v 0.640000 -1.687500 -0.528000
v 0.640000 -1.687500 -0.640000
v 0.640000 -0.287500 -0.640000
v 0.640000 -0.287500 -0.488000
v 0.640000 -1.687500 -0.528000
v 0.640000 -0.287500 -0.640000
v 0.528000 -1.687500 -0.528000
v 0.640000 -1.687500 -0.528000
v 0.640000 -0.287500 -0.488000
v 0.488000 -0.287500 -0.488000
v 0.528000 -1.687500 -0.528000
v 0.640000 -0.287500 -0.488000
v 0.528000 -1.687500 -0.640000
v 0.528000 -1.687500 -0.528000
v 0.488000 -0.287500 -0.488000
v 0.487999 -0.287500 -0.640000
v 0.528000 -1.687500 -0.640000
v 0.488000 -0.287500 -0.488000
v 0.640000 -1.687500 -0.640000
v 0.528000 -1.687500 -0.640000
v 0.487999 -0.287500 -0.640000
v 0.640000 -0.287500 -0.640000
v 0.640000 -1.687500 -0.640000
v 0.487999 -0.287500 -0.640000
v 0.640000 -1.687500 -0.640000
v 0.640000 -1.687500 -0.528000
v 0.528000 -1.687500 -0.528000
v 0.528000 -1.687500 -0.640000
v 0.640000 -1.687500 -0.640000
v 0.528000 -1.687500 -0.528000
v -0.528000 -1.687500 -0.640000
v -0.640000 -1.687500 -0.640000
v -0.640000 -0.287500 -0.640000
v -0.488000 -0.287500 -0.640000
v -0.528000 -1.687500 -0.640000
v -0.640000 -0.287500 -0.640000
v -0.528000 -1.687500 -0.528000
v -0.528000 -1.687500 -0.640000
v -0.488000 -0.287500 -0.640000
v -0.488000 -0.287500 -0.488000
v -0.528000 -1.687500 -0.528000
v -0.488000 -0.287500 -0.640000
v -0.640000 -1.687500 -0.527999
v -0.528000 -1.687500 -0.528000
v -0.488000 -0.287500 -0.488000
v -0.640000 -0.287500 -0.487999
v -0.640000 -1.687500 -0.527999
v -0.488000 -0.287500 -0.488000
v -0.640000 -1.687500 -0.640000
v -0.640000 -1.687500 -0.527999
v -0.640000 -0.287500 -0.487999
v -0.640000 -0.287500 -0.640000
v -0.640000 -1.687500 -0.640000
v -0.640000 -0.287500 -0.487999
v -0.640000 -1.687500 -0.640000
v -0.528000 -1.687500 -0.640000
v -0.528000 -1.687500 -0.528000
v -0.640000 -1.687500 -0.527999
v -0.640000 -1.687500 -0.640000
v -0.528000 -1.687500 -0.528000
v -0.553950 -0.824589 0.532409
v -0.553950 -0.917550 -0.528000
v -0.553950 -0.824589 -0.528000
v -0.553950 -0.917550 0.535869
v -0.553950 -0.917550 -0.528000
v -0.553950 -0.824589 0.532409
v -0.614050 -0.824589 -0.527999
v -0.614049 -0.917550 0.535869
v -0.614049 -0.824589 0.532409
v -0.614050 -0.917550 -0.527999
v -0.614049 -0.917550 0.535869
v -0.614050 -0.824589 -0.527999
v -0.614049 -0.917550 0.535869
v -0.553950 -0.917550 -0.528000
v -0.553950 -0.917550 0.535869
v -0.614050 -0.917550 -0.527999
v -0.553950 -0.917550 -0.528000
v -0.614049 -0.917550 0.535869
v -0.614050 -0.824589 -0.527999
v -0.553950 -0.824589 0.532409
v -0.553950 -0.824589 -0.528000
v -0.614049 -0.824589 0.532409
v -0.553950 -0.824589 0.532409
v -0.614050 -0.824589 -0.527999
v 0.553950 -0.824589 -0.528000
v 0.553950 -0.917550 0.536224
v 0.553950 -0.824589 0.532218
v 0.553950 -0.917550 -0.528000
v 0.553950 -0.917550 0.536224
v 0.553950 -0.824589 -0.528000
v 0.614050 -0.824589 0.532218
v 0.614049 -0.917550 -0.528000
v 0.614049 -0.824589 -0.528000
v 0.614050 -0.917550 0.536224
v 0.614049 -0.917550 -0.528000
v 0.614050 -0.824589 0.532218
v 0.614049 -0.917550 -0.528000
v 0.553950 -0.917550 0.536224
v 0.553950 -0.917550 -0.528000
v 0.614050 -0.917550 0.536224
v 0.553950 -0.917550 0.536224
v 0.614049 -0.917550 -0.528000
v 0.614050 -0.824589 0.532218
v 0.553950 -0.824589 -0.528000
v 0.553950 -0.824589 0.532218
v 0.614049 -0.824589 -0.528000
v 0.553950 -0.824589 -0.528000
v 0.614050 -0.824589 0.532218
v -0.674167 -1.679233 0.674769
v -0.522167 -1.681751 0.565229
v -0.522167 -1.679233 0.674769
v -0.674167 -1.681751 0.565229
v -0.522167 -1.681751 0.565229
v -0.674167 -1.679233 0.674769
v -0.674167 -1.679233 0.674769
v -0.674167 -0.851193 0.533115
v -0.674167 -1.681751 0.565229
v -0.674167 -0.853940 0.635248
v -0.674167 -0.851193 0.533115
v -0.674167 -1.679233 0.674769
v -0.674167 -1.681751 0.565229
v -0.522167 -0.851193 0.533115
v -0.522167 -1.681751 0.565229
v -0.674167 -0.851193 0.533115
v -0.522167 -0.851193 0.533115
v -0.674167 -1.681751 0.565229
v -0.522167 -1.681751 0.565229
v -0.522167 -0.853940 0.635248
v -0.522167 -1.679233 0.674769
v -0.522167 -0.851193 0.533115
v -0.522167 -0.853940 0.635248
v -0.522167 -1.681751 0.565229
v -0.522167 -1.679233 0.674769
v -0.674167 -0.853940 0.635248
v -0.674167 -1.679233 0.674769
v -0.522167 -0.853940 0.635248
v -0.674167 -0.853940 0.635248
v -0.522167 -1.679233 0.674769
v 0.674168 -1.679233 0.674768
v 0.522168 -1.679233 0.674768
v 0.522168 -1.681751 0.565228
v 0.674168 -1.681751 0.565228
v 0.674168 -1.679233 0.674768
v 0.522168 -1.681751 0.565228
v 0.674168 -1.679233 0.674768
v 0.674168 -1.681751 0.565228
v 0.674168 -0.851193 0.533114
v 0.674168 -0.853940 0.635247
v 0.674168 -1.679233 0.674768
v 0.674168 -0.851193 0.533114
v 0.674168 -1.681751 0.565228
v 0.522168 -1.681751 0.565228
v 0.522168 -0.851193 0.533114
v 0.674168 -0.851193 0.533114
v 0.674168 -1.681751 0.565228
v 0.522168 -0.851193 0.533114
v 0.522168 -1.681751 0.565228
v 0.522168 -1.679233 0.674768
v 0.522168 -0.853940 0.635248
v 0.522168 -0.851193 0.533114
v 0.522168 -1.681751 0.565228
v 0.522168 -0.853940 0.635248
v 0.522168 -1.679233 0.674768
v 0.674168 -1.679233 0.674768
v 0.674168 -0.853940 0.635247
v 0.522168 -0.853940 0.635248
v 0.522168 -1.679233 0.674768
v 0.674168 -0.853940 0.635247
v 0.522168 -0.026953 0.637045
v 0.674168 -0.026956 0.637046
v 0.674168 0.392374 0.662931
v 0.522168 0.392374 0.662932
v 0.522168 -0.026953 0.637045
v 0.674168 0.392374 0.662931
v 0.522168 -0.022586 0.533963
v 0.522168 -0.026953 0.637045
v 0.522168 0.392374 0.662932
v 0.522168 0.397617 0.559491
v 0.522168 -0.022586 0.533963
v 0.522168 0.392374 0.662932
v 0.674168 -0.022586 0.533963
v 0.522168 -0.022586 0.533963
v 0.522168 0.397617 0.559491
v 0.674168 0.397617 0.559491
v 0.674168 -0.022586 0.533963
v 0.522168 0.397617 0.559491
v 0.674168 -0.026956 0.637046
v 0.674168 -0.022586 0.533963
v 0.674168 0.397617 0.559491
v 0.674168 0.392374 0.662931
v 0.674168 -0.026956 0.637046
v 0.674168 0.397617 0.559491
v 0.674168 0.815134 0.705371
v 0.674168 0.821295 0.601654
v 0.674168 1.677673 0.735356
v 0.674168 1.669550 0.839379
v 0.674168 0.815134 0.705371
v 0.674168 1.677673 0.735356
v 0.674168 0.821295 0.601654
v 0.522168 0.821295 0.601654
v 0.522168 1.677673 0.735356
v 0.674168 1.677673 0.735356
v 0.674168 0.821295 0.601654
v 0.522168 1.677673 0.735356
v 0.522168 0.821295 0.601654
v 0.522168 0.815134 0.705371
v 0.522168 1.669550 0.839380
v 0.522168 1.677673 0.735356
v 0.522168 0.821295 0.601654
v 0.522168 1.669550 0.839380
v 0.522168 0.815134 0.705371
v 0.674168 0.815134 0.705371
v 0.674168 1.669550 0.839379
v 0.522168 1.669550 0.839380
v 0.522168 0.815134 0.705371
v 0.674168 1.669550 0.839379
v 0.522168 -0.853940 0.635248
v 0.674168 -0.853940 0.635247
v 0.674168 -0.442502 0.627801
v 0.522168 -0.442502 0.627801
v 0.522168 -0.853940 0.635248
v 0.674168 -0.442502 0.627801
v 0.522168 -0.851193 0.533114
v 0.522168 -0.853940 0.635248
v 0.522168 -0.442502 0.627801
v 0.522168 -0.438971 0.525158
v 0.522168 -0.851193 0.533114
v 0.522168 -0.442502 0.627801
v 0.674168 -0.851193 0.533114
v 0.522168 -0.851193 0.533114
v 0.522168 -0.438971 0.525158
v 0.674168 -0.438971 0.525158
v 0.674168 -0.851193 0.533114
v 0.522168 -0.438971 0.525158
v 0.674168 -0.853940 0.635247
v 0.674168 -0.851193 0.533114
v 0.674168 -0.438971 0.525158
v 0.674168 -0.442502 0.627801
v 0.674168 -0.853940 0.635247
v 0.674168 -0.438971 0.525158
v 0.674168 0.392374 0.662931
v 0.674168 0.397617 0.559491
v 0.674168 0.821295 0.601654
v 0.674168 0.815134 0.705371
v 0.674168 0.392374 0.662931
v 0.674168 0.821295 0.601654
v 0.674168 0.397617 0.559491
v 0.522168 0.397617 0.559491
v 0.522168 0.821295 0.601654
v 0.674168 0.821295 0.601654
v 0.674168 0.397617 0.559491
v 0.522168 0.821295 0.601654
v 0.522168 0.397617 0.559491
v 0.522168 0.392374 0.662932
v 0.522168 0.815134 0.705371
v 0.522168 0.821295 0.601654
v 0.522168 0.397617 0.559491
v 0.522168 0.815134 0.705371
v 0.522168 0.392374 0.662932
v 0.674168 0.392374 0.662931
v 0.674168 0.815134 0.705371
v 0.522168 0.815134 0.705371
v 0.522168 0.392374 0.662932
v 0.674168 0.815134 0.705371
v 0.674168 -0.442502 0.627801
v 0.674168 -0.438971 0.525158
v 0.674168 -0.022586 0.533963
v 0.674168 -0.026956 0.637046
v 0.674168 -0.442502 0.627801
v 0.674168 -0.022586 0.533963
v 0.674168 -0.438971 0.525158
v 0.522168 -0.438971 0.525158
v 0.522168 -0.022586 0.533963
v 0.674168 -0.022586 0.533963
v 0.674168 -0.438971 0.525158
v 0.522168 -0.022586 0.533963
v 0.522168 -0.438971 0.525158
v 0.522168 -0.442502 0.627801
v 0.522168 -0.026953 0.637045
v 0.522168 -0.022586 0.533963
v 0.522168 -0.438971 0.525158
v 0.522168 -0.026953 0.637045
v 0.522168 -0.442502 0.627801
v 0.674168 -0.442502 0.627801
v 0.674168 -0.026956 0.637046
v 0.522168 -0.026953 0.637045
v 0.522168 -0.442502 0.627801
v 0.674168 -0.026956 0.637046
v -0.522167 -0.026953 0.637046
v -0.674167 0.392374 0.662932
v -0.674167 -0.026956 0.637047
v -0.522167 0.392374 0.662932
v -0.674167 0.392374 0.662932
v -0.522167 -0.026953 0.637046
v -0.522167 -0.022586 0.533963
v -0.522167 0.392374 0.662932
v -0.522167 -0.026953 0.637046
v -0.522167 0.397617 0.559491
v -0.522167 0.392374 0.662932
v -0.522167 -0.022586 0.533963
v -0.674167 -0.022586 0.533963
v -0.522167 0.397617 0.559491
v -0.522167 -0.022586 0.533963
v -0.674167 0.397617 0.559491
v -0.522167 0.397617 0.559491
v -0.674167 -0.022586 0.533963
v -0.674167 -0.026956 0.637047
v -0.674167 0.397617 0.559491
v -0.674167 -0.022586 0.533963
v -0.674167 0.392374 0.662932
v -0.674167 0.397617 0.559491
v -0.674167 -0.026956 0.637047
v -0.674167 0.815134 0.705372
v -0.674167 1.677673 0.735357
v -0.674167 0.821295 0.601655
v -0.674167 1.669550 0.839380
v -0.674167 1.677673 0.735357
v -0.674167 0.815134 0.705372
v -0.674167 0.821295 0.601655
v -0.522167 1.677673 0.735357
v -0.522167 0.821295 0.601654
v -0.674167 1.677673 0.735357
v -0.522167 1.677673 0.735357
v -0.674167 0.821295 0.601655
v -0.522167 0.821295 0.601654
v -0.522167 1.669550 0.839380
v -0.522167 0.815134 0.705371
v -0.522167 1.677673 0.735357
v -0.522167 1.669550 0.839380
v -0.522167 0.821295 0.601654
v -0.522167 0.815134 0.705371
v -0.674167 1.669550 0.839380
v -0.674167 0.815134 0.705372
v -0.522167 1.669550 0.839380
v -0.674167 1.669550 0.839380
v -0.522167 0.815134 0.705371
v -0.522167 -0.853940 0.635248
v -0.674167 -0.442502 0.627802
v -0.674167 -0.853940 0.635248
v -0.522167 -0.442502 0.627802
v -0.674167 -0.442502 0.627802
v -0.522167 -0.853940 0.635248
v -0.522167 -0.851193 0.533115
v -0.522167 -0.442502 0.627802
v -0.522167 -0.853940 0.635248
v -0.522167 -0.438971 0.525159
v -0.522167 -0.442502 0.627802
v -0.522167 -0.851193 0.533115
v -0.674167 -0.851193 0.533115
v -0.522167 -0.438971 0.525159
v -0.522167 -0.851193 0.533115
v -0.674167 -0.438971 0.525159
v -0.522167 -0.438971 0.525159
v -0.674167 -0.851193 0.533115
v -0.674167 -0.853940 0.635248
v -0.674167 -0.438971 0.525159
v -0.674167 -0.851193 0.533115
v -0.674167 -0.442502 0.627802
v -0.674167 -0.438971 0.525159
v -0.674167 -0.853940 0.635248
v -0.674167 -0.442502 0.627802
v -0.674167 -0.022586 0.533963
v -0.674167 -0.438971 0.525159
v -0.674167 -0.026956 0.637047
v -0.674167 -0.022586 0.533963
v -0.674167 -0.442502 0.627802
v -0.674167 -0.438971 0.525159
v -0.522167 -0.022586 0.533963
v -0.522167 -0.438971 0.525159
v -0.674167 -0.022586 0.533963
v -0.522167 -0.022586 0.533963
v -0.674167 -0.438971 0.525159
v -0.522167 -0.438971 0.525159
v -0.522167 -0.026953 0.637046
v -0.522167 -0.442502 0.627802
v -0.522167 -0.022586 0.533963
v -0.522167 -0.026953 0.637046
v -0.522167 -0.438971 0.525159
v -0.522167 -0.442502 0.627802
v -0.674167 -0.026956 0.637047
v -0.674167 -0.442502 0.627802
v -0.522167 -0.026953 0.637046
v -0.674167 -0.026956 0.637047
v -0.522167 -0.442502 0.627802
v -0.674167 0.392374 0.662932
v -0.674167 0.821295 0.601655
v -0.674167 0.397617 0.559491
v -0.674167 0.815134 0.705372
v -0.674167 0.821295 0.601655
v -0.674167 0.392374 0.662932
v -0.674167 0.397617 0.559491
v -0.522167 0.821295 0.601654
v -0.522167 0.397617 0.559491
v -0.674167 0.821295 0.601655
v -0.522167 0.821295 0.601654
v -0.674167 0.397617 0.559491
v -0.522167 0.397617 0.559491
v -0.522167 0.815134 0.705371
v -0.522167 0.392374 0.662932
v -0.522167 0.821295 0.601654
v -0.522167 0.815134 0.705371
v -0.522167 0.397617 0.559491
v -0.522167 0.392374 0.662932
v -0.674167 0.815134 0.705372
v -0.674167 0.392374 0.662932
v -0.522167 0.815134 0.705371
v -0.674167 0.815134 0.705372
v -0.522167 0.392374 0.662932
v 0.522168 1.610281 0.807510
v 0.522168 0.820145 0.621911
v 0.522168 1.615152 0.744055
v 0.522168 0.816385 0.685185
v 0.522168 0.820145 0.621911
v 0.522168 1.610281 0.807510
v -0.522167 1.610281 0.807511
v 0.522168 0.816385 0.685185
v 0.522168 1.610281 0.807510
v -0.522167 0.816385 0.685186
v 0.522168 0.816385 0.685185
v -0.522167 1.610281 0.807511
v -0.522167 1.615152 0.744056
v -0.522167 0.816385 0.685186
v -0.522167 1.610281 0.807511
v -0.522167 0.820145 0.621912
v -0.522167 0.816385 0.685186
v -0.522167 1.615152 0.744056
v 0.522168 1.615152 0.744055
v -0.522167 0.820145 0.621912
v -0.522167 1.615152 0.744056
v 0.522168 0.820145 0.621911
v -0.522167 0.820145 0.621912
v 0.522168 1.615152 0.744055
v -0.522167 0.117157 0.560828
v 0.522168 0.114316 0.623793
v -0.522167 0.114316 0.623793
v 0.522168 0.117157 0.560827
v 0.522168 0.114316 0.623793
v -0.522167 0.117157 0.560828
v 0.522168 1.615152 0.744055
v -0.522167 1.610281 0.807511
v 0.522168 1.610281 0.807510
v -0.522167 1.615152 0.744056
v -0.522167 1.610281 0.807511
v 0.522168 1.615152 0.744055
v 0.522168 0.820145 0.621911
v -0.522167 0.396643 0.579696
v -0.522167 0.820145 0.621912
v 0.522168 0.396643 0.579695
v -0.522167 0.396643 0.579696
v 0.522168 0.820145 0.621911
v -0.522167 0.820145 0.621912
v -0.522167 0.393445 0.642797
v -0.522167 0.816385 0.685186
v -0.522167 0.396643 0.579696
v -0.522167 0.393445 0.642797
v -0.522167 0.820145 0.621912
v -0.522167 0.816385 0.685186
v 0.522168 0.393445 0.642796
v 0.522168 0.816385 0.685185
v -0.522167 0.393445 0.642797
v 0.522168 0.393445 0.642796
v -0.522167 0.816385 0.685186
v 0.522168 0.816385 0.685185
v 0.522168 0.396643 0.579695
v 0.522168 0.820145 0.621911
v 0.522168 0.393445 0.642796
v 0.522168 0.396643 0.579695
v 0.522168 0.816385 0.685185
v 0.522168 0.393445 0.642796
v 0.522168 0.117157 0.560827
v 0.522168 0.396643 0.579695
v 0.522168 0.114316 0.623793
v 0.522168 0.117157 0.560827
v 0.522168 0.393445 0.642796
v -0.522167 0.393445 0.642797
v 0.522168 0.114316 0.623793
v 0.522168 0.393445 0.642796
v -0.522167 0.114316 0.623793
v 0.522168 0.114316 0.623793
v -0.522167 0.393445 0.642797
v -0.522167 0.396643 0.579696
v -0.522167 0.114316 0.623793
v -0.522167 0.393445 0.642797
v -0.522167 0.117157 0.560828
v -0.522167 0.114316 0.623793
v -0.522167 0.396643 0.579696
v 0.522168 0.396643 0.579695
v -0.522167 0.117157 0.560828
v -0.522167 0.396643 0.579696
v 0.522168 0.117157 0.560827
v -0.522167 0.117157 0.560828
v 0.522168 0.396643 0.579695
v -0.522167 1.669550 0.839380
v -0.674167 1.677673 0.735357
v -0.674167 1.669550 0.839380
v -0.522167 1.677673 0.735357
v -0.674167 1.677673 0.735357
v -0.522167 1.669550 0.839380
v 0.522168 1.669550 0.839380
v 0.674168 1.669550 0.839379
v 0.674168 1.677673 0.735356
v 0.522168 1.677673 0.735356
v 0.522168 1.669550 0.839380
v 0.674168 1.677673 0.735356
v 0.522168 -0.141680 0.597959
v 0.522168 -0.510200 0.528000
v 0.522168 -0.141680 0.528000
v 0.522168 -0.510200 0.597959
v 0.522168 -0.510200 0.528000
v 0.522168 -0.141680 0.597959
v -0.522167 -0.141680 0.597960
v 0.522168 -0.510200 0.597959
v 0.522168 -0.141680 0.597959
v -0.522167 -0.510200 0.597960
v 0.522168 -0.510200 0.597959
v -0.522167 -0.141680 0.597960
v -0.522167 -0.141680 0.528000
v -0.522167 -0.510200 0.597960
v -0.522167 -0.141680 0.597960
v -0.522167 -0.510200 0.528000
v -0.522167 -0.510200 0.597960
v -0.522167 -0.141680 0.528000
v 0.522168 -0.141680 0.528000
v -0.522167 -0.510200 0.528000
v -0.522167 -0.141680 0.528000
v 0.522168 -0.510200 0.528000
v -0.522167 -0.510200 0.528000
v 0.522168 -0.141680 0.528000
v -0.522167 -0.510200 0.528000
v 0.522168 -0.510200 0.597959
v -0.522167 -0.510200 0.597960
v 0.522168 -0.510200 0.528000
v 0.522168 -0.510200 0.597959
v -0.522167 -0.510200 0.528000
v 0.522168 -0.141680 0.528000
v -0.522167 -0.141680 0.597960
v 0.522168 -0.141680 0.597959
v -0.522167 -0.141680 0.528000
v -0.522167 -0.141680 0.597960
v 0.522168 -0.141680 0.528000
v -0.674168 -0.287500 -0.674167
v -0.674167 -0.200699 0.528000
v -0.674167 -0.287500 0.528000
v -0.674168 -0.200699 -0.674167
v -0.674167 -0.200699 0.528000
v -0.674168 -0.287500 -0.674167
v 0.606641 -0.151558 -0.606642
v -0.606641 -0.151558 0.452228
v 0.606642 -0.151558 0.452227
v -0.606642 -0.151558 -0.606641
v -0.606641 -0.151558 0.452228
v 0.606641 -0.151558 -0.606642
v 0.674168 -0.200699 0.527999
v 0.606641 -0.151558 -0.606642
v 0.606642 -0.151558 0.452227
v 0.674167 -0.200699 -0.674168
v 0.606641 -0.151558 -0.606642
v 0.674168 -0.200699 0.527999
v -0.674167 -0.200699 0.528000
v 0.606642 -0.151558 0.452227
v -0.606641 -0.151558 0.452228
v 0.674168 -0.200699 0.527999
v 0.606642 -0.151558 0.452227
v -0.674167 -0.200699 0.528000
v -0.674168 -0.200699 -0.674167
v -0.606641 -0.151558 0.452228
v -0.606642 -0.151558 -0.606641
v -0.674167 -0.200699 0.528000
v -0.606641 -0.151558 0.452228
v -0.674168 -0.200699 -0.674167
v 0.674167 -0.200699 -0.674168
v -0.606642 -0.151558 -0.606641
v 0.606641 -0.151558 -0.606642
v -0.674168 -0.200699 -0.674167
v -0.606642 -0.151558 -0.606641
v 0.674167 -0.200699 -0.674168
v -0.674167 -0.200699 0.528000
v 0.674168 -0.287500 0.527999
v -0.674167 -0.287500 0.528000
v 0.674168 -0.200699 0.527999
v 0.674168 -0.287500 0.527999
v -0.674167 -0.200699 0.528000
v 0.674168 -0.200699 0.527999
v 0.674167 -0.287500 -0.674168
v 0.674167 -0.200699 -0.674168
v 0.674168 -0.287500 0.527999
v 0.674167 -0.287500 -0.674168
v 0.674168 -0.200699 0.527999
v 0.674167 -0.200699 -0.674168
v -0.674168 -0.287500 -0.674167
v -0.674168 -0.200699 -0.674167
v 0.674167 -0.287500 -0.674168
v -0.674168 -0.287500 -0.674167
v 0.674167 -0.200699 -0.674168
v -0.674167 -0.287500 0.528000
v 0.674167 -0.287500 -0.674168
v 0.674168 -0.287500 0.527999
v -0.674168 -0.287500 -0.674167
v 0.674167 -0.287500 -0.674168
v -0.674167 -0.287500 0.528000
v 0.522168 1.278195 0.685583
v 0.522168 0.824448 0.543647
v 0.522168 1.283276 0.607158
v 0.522168 0.820145 0.621911
v 0.522168 0.824448 0.543647
v 0.522168 1.278195 0.685583
v -0.522167 1.278195 0.685584
v 0.522168 0.820145 0.621911
v 0.522168 1.278195 0.685583
v -0.522167 0.820145 0.621912
v 0.522168 0.820145 0.621911
v -0.522167 1.278195 0.685584
v -0.522167 1.283276 0.607158
v -0.522167 0.820145 0.621912
v -0.522167 1.278195 0.685584
v -0.522167 0.824448 0.543648
v -0.522167 0.820145 0.621912
v -0.522167 1.283276 0.607158
v 0.522168 1.283276 0.607158
v -0.522167 0.824448 0.543648
v -0.522167 1.283276 0.607158
v 0.522168 0.824448 0.543647
v -0.522167 0.824448 0.543648
v 0.522168 1.283276 0.607158
v -0.522167 0.236066 0.489800
v 0.522168 0.232727 0.567750
v -0.522167 0.232727 0.567751
v 0.522168 0.236066 0.489799
v 0.522168 0.232727 0.567750
v -0.522167 0.236066 0.489800
v 0.522168 1.283276 0.607158
v -0.522167 1.278195 0.685584
v 0.522168 1.278195 0.685583
v -0.522167 1.283276 0.607158
v -0.522167 1.278195 0.685584
v 0.522168 1.283276 0.607158
v 0.522168 0.824448 0.543647
v -0.522167 0.400253 0.501644
v -0.522167 0.824448 0.543648
v 0.522168 0.400253 0.501643
v -0.522167 0.400253 0.501644
v 0.522168 0.824448 0.543647
v -0.522167 0.824448 0.543648
v -0.522167 0.396643 0.579696
v -0.522167 0.820145 0.621912
v -0.522167 0.400253 0.501644
v -0.522167 0.396643 0.579696
v -0.522167 0.824448 0.543648
v -0.522167 0.820145 0.621912
v 0.522168 0.396643 0.579695
v 0.522168 0.820145 0.621911
v -0.522167 0.396643 0.579696
v 0.522168 0.396643 0.579695
v -0.522167 0.820145 0.621912
v 0.522168 0.820145 0.621911
v 0.522168 0.400253 0.501643
v 0.522168 0.824448 0.543647
v 0.522168 0.396643 0.579695
v 0.522168 0.400253 0.501643
v 0.522168 0.820145 0.621911
v 0.522168 0.396643 0.579695
v 0.522168 0.236066 0.489799
v 0.522168 0.400253 0.501643
v 0.522168 0.232727 0.567750
v 0.522168 0.236066 0.489799
v 0.522168 0.396643 0.579695
v -0.522167 0.396643 0.579696
v 0.522168 0.232727 0.567750
v 0.522168 0.396643 0.579695
v -0.522167 0.232727 0.567751
v 0.522168 0.232727 0.567750
v -0.522167 0.396643 0.579696
v -0.522167 0.400253 0.501644
v -0.522167 0.232727 0.567751
v -0.522167 0.396643 0.579696
v -0.522167 0.236066 0.489800
v -0.522167 0.232727 0.567751
v -0.522167 0.400253 0.501644
v 0.522168 0.400253 0.501643
v -0.522167 0.236066 0.489800
v -0.522167 0.400253 0.501644
v 0.522168 0.236066 0.489799
v -0.522167 0.236066 0.489800
v 0.522168 0.400253 0.501643

vt 0.239858 0.022486
vt 0.239858 0.232905
vt 0.217760 0.022486
vt 0.239858 0.232905
vt 0.217760 0.232905
vt 0.217760 0.022486
vt 0.217760 0.255003
vt 0.022486 0.255003
vt 0.217760 0.232905
vt 0.022486 0.255003
vt 0.022486 0.232905
vt 0.217760 0.232905
vt 0.022486 0.022486
vt 0.217760 0.022486
vt 0.022486 0.232905
vt 0.217760 0.022486
vt 0.217760 0.232905
vt 0.022486 0.232905
vt 0.022486 0.000388
vt 0.217760 0.000389
vt 0.022486 0.022486
vt 0.217760 0.000389
vt 0.217760 0.022486
vt 0.022486 0.022486
vt 0.000388 0.232905
vt 0.000388 0.022486
vt 0.022486 0.232905
vt 0.000388 0.022486
vt 0.022486 0.022486
vt 0.022486 0.232905
vt 0.004087 0.782779
vt 0.240383 0.743312
vt 0.242018 0.762346
vt 0.004087 0.782779
vt 0.001868 0.756947
vt 0.240383 0.743312
vt 0.001868 0.756947
vt 0.239293 0.724238
vt 0.240383 0.743312
vt 0.001868 0.756947
vt 0.000388 0.731061
vt 0.239293 0.724238
vt 0.000388 0.731061
vt 0.239293 0.705133
vt 0.239293 0.724238
vt 0.000388 0.731061
vt 0.000388 0.705133
vt 0.239293 0.705133
vt 0.006305 0.808612
vt 0.242018 0.762346
vt 0.243653 0.781380
vt 0.006305 0.808612
vt 0.004087 0.782779
vt 0.242018 0.762346
vt 0.239293 0.724238
vt 0.258398 0.705133
vt 0.258398 0.724238
vt 0.239293 0.724238
vt 0.239293 0.705133
vt 0.258398 0.705133
vt 0.004087 0.782779
vt 0.243653 0.781381
vt 0.242018 0.762347
vt 0.004087 0.782779
vt 0.006305 0.808612
vt 0.243653 0.781381
vt 0.000388 0.705134
vt 0.239293 0.724239
vt 0.239293 0.705134
vt 0.000388 0.705134
vt 0.000388 0.731061
vt 0.239293 0.724239
vt 0.000388 0.731061
vt 0.240384 0.743312
vt 0.239293 0.724239
vt 0.000388 0.731061
vt 0.001868 0.756947
vt 0.240384 0.743312
vt 0.001868 0.756947
vt 0.242018 0.762347
vt 0.240384 0.743312
vt 0.001868 0.756947
vt 0.004087 0.782779
vt 0.242018 0.762347
vt 0.239293 0.724239
vt 0.258398 0.705134
vt 0.239293 0.705134
vt 0.239293 0.724239
vt 0.258398 0.724239
vt 0.258398 0.705134
vt 0.231522 0.438088
vt 0.231522 0.618969
vt 0.215665 0.438088
vt 0.231522 0.618969
vt 0.215665 0.619559
vt 0.215665 0.438088
vt 0.189556 0.618969
vt 0.189556 0.438088
vt 0.205413 0.619559
vt 0.189556 0.438088
vt 0.205413 0.438088
vt 0.205413 0.619559
vt 0.215665 0.619559
vt 0.205413 0.619559
vt 0.215665 0.438088
vt 0.205413 0.619559
vt 0.205413 0.438088
vt 0.215665 0.438088
vt 0.179304 0.438088
vt 0.189556 0.438088
vt 0.179304 0.618969
vt 0.189556 0.438088
vt 0.189556 0.618969
vt 0.179304 0.618969
vt 0.179304 0.436628
vt 0.179304 0.255780
vt 0.195161 0.437311
vt 0.179304 0.255780
vt 0.195162 0.255780
vt 0.195161 0.437311
vt 0.221270 0.255780
vt 0.221270 0.436628
vt 0.205413 0.255780
vt 0.221270 0.436628
vt 0.205413 0.437311
vt 0.205413 0.255780
vt 0.195162 0.255780
vt 0.205413 0.255780
vt 0.195161 0.437311
vt 0.205413 0.255780
vt 0.205413 0.437311
vt 0.195161 0.437311
vt 0.231522 0.436628
vt 0.221270 0.436628
vt 0.231522 0.255780
vt 0.221270 0.436628
vt 0.221270 0.255780
vt 0.231522 0.255780
vt 0.463318 0.426780
vt 0.489246 0.426780
vt 0.463318 0.408090
vt 0.489246 0.426780
vt 0.489246 0.408090
vt 0.463318 0.408090
vt 0.373045 0.428123
vt 0.391686 0.429469
vt 0.360618 0.569356
vt 0.391686 0.429469
vt 0.378041 0.569744
vt 0.360618 0.569356
vt 0.463318 1.000474
vt 0.489246 1.000474
vt 0.463318 0.858695
vt 0.489246 1.000474
vt 0.489246 0.858695
vt 0.463318 0.858695
vt 0.430326 1.000549
vt 0.411685 1.001895
vt 0.416681 0.860275
vt 0.411685 1.001895
vt 0.399258 0.860662
vt 0.416681 0.860275
vt 0.489246 0.426780
vt 0.463318 0.426780
vt 0.489246 0.567717
vt 0.463318 0.426780
vt 0.463318 0.567717
vt 0.489246 0.567717
vt 0.489246 0.408090
vt 0.463318 0.426780
vt 0.489246 0.426780
vt 0.489246 0.408090
vt 0.463318 0.408090
vt 0.463318 0.426780
vt 0.360618 0.569356
vt 0.391686 0.429469
vt 0.373045 0.428123
vt 0.360618 0.569356
vt 0.378041 0.569744
vt 0.391686 0.429469
vt 0.463318 0.858695
vt 0.489246 1.000474
vt 0.463318 1.000474
vt 0.463318 0.858695
vt 0.489246 0.858695
vt 0.489246 1.000474
vt 0.416681 0.860275
vt 0.411685 1.001896
vt 0.430326 1.000549
vt 0.416681 0.860275
vt 0.399258 0.860662
vt 0.411685 1.001896
vt 0.463318 0.567717
vt 0.489246 0.426780
vt 0.463318 0.426780
vt 0.463318 0.567717
vt 0.489246 0.567717
vt 0.489246 0.426780
vt 0.463318 0.780474
vt 0.489246 0.708811
vt 0.463318 0.708810
vt 0.463318 0.780474
vt 0.489246 0.780474
vt 0.489246 0.708811
vt 0.410960 0.647707
vt 0.392463 0.719484
vt 0.410062 0.719365
vt 0.410960 0.647707
vt 0.393293 0.647680
vt 0.392463 0.719484
vt 0.463318 0.645516
vt 0.489246 0.717325
vt 0.463318 0.717325
vt 0.463318 0.645516
vt 0.489246 0.645516
vt 0.489246 0.717325
vt 0.354653 0.782338
vt 0.371422 0.710653
vt 0.353823 0.710534
vt 0.354653 0.782338
vt 0.372320 0.782311
vt 0.371422 0.710653
vt 0.373895 1.001895
vt 0.376010 0.854693
vt 0.358288 0.854874
vt 0.373895 1.001895
vt 0.391686 1.001383
vt 0.376010 0.854693
vt 0.463318 0.425042
vt 0.489246 0.572890
vt 0.463318 0.572890
vt 0.463318 0.425042
vt 0.489246 0.425042
vt 0.489246 0.572890
vt 0.430326 0.428636
vt 0.396928 0.575144
vt 0.414650 0.575325
vt 0.430326 0.428636
vt 0.412535 0.428123
vt 0.396928 0.575144
vt 0.463318 1.000474
vt 0.489246 0.852950
vt 0.463318 0.852950
vt 0.463318 1.000474
vt 0.489246 1.000475
vt 0.489246 0.852950
vt 0.463318 0.637910
vt 0.489246 0.567717
vt 0.463318 0.567717
vt 0.463318 0.637910
vt 0.489246 0.637910
vt 0.489246 0.567717
vt 0.411967 0.790240
vt 0.399258 0.860662
vt 0.416681 0.860275
vt 0.411967 0.790240
vt 0.394450 0.790498
vt 0.399258 0.860662
vt 0.463318 0.788367
vt 0.489246 0.858695
vt 0.463318 0.858695
vt 0.463318 0.788367
vt 0.489246 0.788367
vt 0.489246 0.858695
vt 0.355810 0.639521
vt 0.378041 0.569744
vt 0.360618 0.569356
vt 0.355810 0.639521
vt 0.373327 0.639779
vt 0.378041 0.569744
vt 0.358288 0.854874
vt 0.372320 0.782311
vt 0.354653 0.782338
vt 0.358288 0.854874
vt 0.376010 0.854693
vt 0.372320 0.782311
vt 0.463318 0.572890
vt 0.489246 0.645516
vt 0.463318 0.645516
vt 0.463318 0.572890
vt 0.489246 0.572890
vt 0.489246 0.645516
vt 0.414650 0.575325
vt 0.393293 0.647680
vt 0.410960 0.647707
vt 0.414650 0.575325
vt 0.396928 0.575144
vt 0.393293 0.647680
vt 0.463318 0.852950
vt 0.489246 0.780474
vt 0.463318 0.780474
vt 0.463318 0.852950
vt 0.489246 0.852950
vt 0.489246 0.780474
vt 0.353823 0.710534
vt 0.373327 0.639779
vt 0.355810 0.639521
vt 0.353823 0.710534
vt 0.371422 0.710653
vt 0.373327 0.639779
vt 0.463318 0.717325
vt 0.489246 0.788367
vt 0.463318 0.788367
vt 0.463318 0.717325
vt 0.489246 0.717325
vt 0.489246 0.788367
vt 0.410062 0.719365
vt 0.394450 0.790498
vt 0.411967 0.790240
vt 0.410062 0.719365
vt 0.392463 0.719484
vt 0.394450 0.790498
vt 0.463318 0.708810
vt 0.489246 0.637910
vt 0.463318 0.637910
vt 0.463318 0.708810
vt 0.489246 0.708811
vt 0.489246 0.637910
vt 0.489246 0.708810
vt 0.463318 0.708811
vt 0.489246 0.780474
vt 0.463318 0.708811
vt 0.463318 0.780474
vt 0.489246 0.780474
vt 0.410062 0.719365
vt 0.392463 0.719484
vt 0.410960 0.647707
vt 0.392463 0.719484
vt 0.393293 0.647680
vt 0.410960 0.647707
vt 0.463318 0.717325
vt 0.489246 0.717325
vt 0.463318 0.645516
vt 0.489246 0.717325
vt 0.489246 0.645516
vt 0.463318 0.645516
vt 0.353823 0.710534
vt 0.371422 0.710653
vt 0.354653 0.782338
vt 0.371422 0.710653
vt 0.372320 0.782311
vt 0.354653 0.782338
vt 0.358288 0.854874
vt 0.376010 0.854693
vt 0.373895 1.001895
vt 0.376010 0.854693
vt 0.391686 1.001383
vt 0.373895 1.001895
vt 0.463318 0.572890
vt 0.489246 0.572890
vt 0.463318 0.425042
vt 0.489246 0.572890
vt 0.489246 0.425042
vt 0.463318 0.425042
vt 0.414650 0.575325
vt 0.396928 0.575144
vt 0.430326 0.428636
vt 0.396928 0.575144
vt 0.412535 0.428123
vt 0.430326 0.428636
vt 0.489246 0.852950
vt 0.463318 0.852950
vt 0.489246 1.000475
vt 0.463318 0.852950
vt 0.463318 1.000475
vt 0.489246 1.000475
vt 0.489246 0.567717
vt 0.463318 0.567717
vt 0.489246 0.637910
vt 0.463318 0.567717
vt 0.463318 0.637910
vt 0.489246 0.637910
vt 0.416681 0.860275
vt 0.399258 0.860662
vt 0.411967 0.790240
vt 0.399258 0.860662
vt 0.394450 0.790498
vt 0.411967 0.790240
vt 0.463318 0.858695
vt 0.489246 0.858695
vt 0.463318 0.788367
vt 0.489246 0.858695
vt 0.489246 0.788367
vt 0.463318 0.788367
vt 0.360618 0.569356
vt 0.378041 0.569744
vt 0.355810 0.639521
vt 0.378041 0.569744
vt 0.373327 0.639779
vt 0.355810 0.639521
vt 0.355810 0.639521
vt 0.373327 0.639779
vt 0.353823 0.710534
vt 0.373327 0.639779
vt 0.371422 0.710653
vt 0.353823 0.710534
vt 0.463318 0.788367
vt 0.489246 0.788367
vt 0.463318 0.717325
vt 0.489246 0.788367
vt 0.489246 0.717325
vt 0.463318 0.717325
vt 0.411967 0.790240
vt 0.394450 0.790498
vt 0.410062 0.719365
vt 0.394450 0.790498
vt 0.392463 0.719484
vt 0.410062 0.719365
vt 0.489246 0.637910
vt 0.463318 0.637910
vt 0.489246 0.708810
vt 0.463318 0.637910
vt 0.463318 0.708811
vt 0.489246 0.708810
vt 0.354653 0.782338
vt 0.372320 0.782311
vt 0.358288 0.854874
vt 0.372320 0.782311
vt 0.376010 0.854693
vt 0.358288 0.854874
vt 0.463318 0.645516
vt 0.489246 0.645516
vt 0.463318 0.572890
vt 0.489246 0.645516
vt 0.489246 0.572890
vt 0.463318 0.572890
vt 0.410960 0.647707
vt 0.393293 0.647680
vt 0.414650 0.575325
vt 0.393293 0.647680
vt 0.396928 0.575144
vt 0.414650 0.575325
vt 0.489246 0.780474
vt 0.463318 0.780474
vt 0.489246 0.852950
vt 0.463318 0.780474
vt 0.463318 0.852950
vt 0.489246 0.852950
vt 0.683521 0.270097
vt 0.694365 0.269602
vt 0.679371 0.407235
vt 0.694365 0.269602
vt 0.690162 0.406556
vt 0.679371 0.407235
vt 0.178528 0.523778
vt 0.000388 0.523778
vt 0.178528 0.386759
vt 0.000388 0.523778
vt 0.000388 0.386759
vt 0.178528 0.386759
vt 0.710136 0.527523
vt 0.699292 0.527028
vt 0.705933 0.390570
vt 0.699292 0.527028
vt 0.695142 0.389891
vt 0.705933 0.390570
vt 0.240635 0.011244
vt 0.418774 0.011244
vt 0.240635 0.148445
vt 0.418774 0.011244
vt 0.418774 0.148445
vt 0.240635 0.148445
vt 0.000388 0.266531
vt 0.000388 0.255780
vt 0.178528 0.266531
vt 0.000388 0.255780
vt 0.178528 0.255780
vt 0.178528 0.266531
vt 0.418774 0.000389
vt 0.418774 0.011244
vt 0.240635 0.000388
vt 0.418774 0.011244
vt 0.240635 0.011244
vt 0.240635 0.000388
vt 0.240635 0.148445
vt 0.418774 0.148445
vt 0.240635 0.221043
vt 0.418774 0.148445
vt 0.418774 0.221043
vt 0.240635 0.221043
vt 0.705933 0.390570
vt 0.695142 0.389891
vt 0.707550 0.318083
vt 0.695142 0.389891
vt 0.696800 0.317312
vt 0.707550 0.318083
vt 0.178528 0.386759
vt 0.000388 0.386759
vt 0.178528 0.314254
vt 0.000388 0.386759
vt 0.000388 0.314254
vt 0.178528 0.314254
vt 0.679371 0.407235
vt 0.690162 0.406556
vt 0.681029 0.479813
vt 0.690162 0.406556
vt 0.691779 0.479043
vt 0.681029 0.479813
vt 0.681029 0.479813
vt 0.691779 0.479043
vt 0.683646 0.527524
vt 0.691779 0.479043
vt 0.694365 0.526696
vt 0.683646 0.527524
vt 0.178528 0.314254
vt 0.000388 0.314254
vt 0.178528 0.266531
vt 0.000388 0.314254
vt 0.000388 0.266531
vt 0.178528 0.266531
vt 0.707550 0.318083
vt 0.696800 0.317312
vt 0.710136 0.270430
vt 0.696800 0.317312
vt 0.699417 0.269602
vt 0.710136 0.270430
vt 0.240635 0.221043
vt 0.418774 0.221043
vt 0.240635 0.268825
vt 0.418774 0.221043
vt 0.418774 0.268825
vt 0.240635 0.268825
vt 0.489246 0.407244
vt 0.463318 0.407244
vt 0.489246 0.425042
vt 0.463318 0.407244
vt 0.463318 0.425042
vt 0.489246 0.425042
vt 0.489246 0.425042
vt 0.463318 0.407244
vt 0.489246 0.407244
vt 0.489246 0.425042
vt 0.463318 0.425042
vt 0.463318 0.407244
vt 0.639219 0.012322
vt 0.639219 0.000388
vt 0.702080 0.012322
vt 0.639219 0.000388
vt 0.702080 0.000388
vt 0.702080 0.012322
vt 0.776874 0.012322
vt 0.776874 0.190461
vt 0.714013 0.012322
vt 0.776874 0.190461
vt 0.714013 0.190461
vt 0.714013 0.012322
vt 0.639219 0.202395
vt 0.639219 0.190461
vt 0.702080 0.202395
vt 0.639219 0.190461
vt 0.702080 0.190461
vt 0.702080 0.202395
vt 0.639219 0.190461
vt 0.639219 0.012322
vt 0.702080 0.190461
vt 0.639219 0.012322
vt 0.702080 0.012322
vt 0.702080 0.190461
vt 0.714013 0.190461
vt 0.702080 0.190461
vt 0.714013 0.012322
vt 0.702080 0.190461
vt 0.702080 0.012322
vt 0.714013 0.012322
vt 0.627285 0.012322
vt 0.639219 0.012322
vt 0.627285 0.190461
vt 0.639219 0.012322
vt 0.639219 0.190461
vt 0.627285 0.190461
vt 0.879108 0.712327
vt 0.961080 0.520734
vt 0.895005 0.712742
vt 0.961080 0.520734
vt 0.974914 0.526652
vt 0.895005 0.712742
vt 0.706484 0.500542
vt 0.706484 0.681161
vt 0.499526 0.500542
vt 0.706484 0.681161
vt 0.499526 0.681161
vt 0.499526 0.500542
vt 0.981013 0.874957
vt 0.970982 0.896421
vt 0.909157 0.712132
vt 0.970982 0.896421
vt 0.894369 0.712321
vt 0.909157 0.712132
vt 0.911088 0.712097
vt 0.895005 0.712742
vt 0.983614 0.906841
vt 0.895005 0.712742
vt 0.973154 0.923079
vt 0.983614 0.906841
vt 0.983614 0.543147
vt 0.974914 0.526652
vt 0.911088 0.712097
vt 0.974914 0.526652
vt 0.895005 0.712742
vt 0.911088 0.712097
vt 0.909157 0.712132
vt 0.894369 0.712321
vt 0.981013 0.524370
vt 0.894369 0.712321
vt 0.972088 0.508974
vt 0.981013 0.524370
vt 0.879108 0.712327
vt 0.895005 0.712742
vt 0.959255 0.928238
vt 0.895005 0.712742
vt 0.973154 0.923079
vt 0.959255 0.928238
vt 0.894369 0.712321
vt 0.970982 0.896421
vt 0.879108 0.712327
vt 0.970982 0.896421
vt 0.953815 0.903346
vt 0.879108 0.712327
vt 0.972088 0.508974
vt 0.894369 0.712321
vt 0.958667 0.503852
vt 0.894369 0.712321
vt 0.879108 0.712327
vt 0.958667 0.503852
vt 0.769703 0.500915
vt 0.999698 0.500915
vt 0.769703 0.705977
vt 0.999698 0.500915
vt 0.999698 0.705977
vt 0.769703 0.705977
vt 0.934624 0.989854
vt 0.948014 0.990492
vt 0.932624 0.910868
vt 0.948014 0.990492
vt 0.945972 0.911634
vt 0.932624 0.910868
vt 0.856649 0.986378
vt 0.678510 0.986378
vt 0.856649 0.907494
vt 0.678510 0.986378
vt 0.678510 0.907494
vt 0.856649 0.907494
vt 0.948014 0.990492
vt 0.934624 0.989854
vt 0.945972 0.911634
vt 0.934624 0.989854
vt 0.932624 0.910868
vt 0.945972 0.911634
vt 0.678682 1.000266
vt 0.500543 1.000266
vt 0.678682 0.921254
vt 0.500543 1.000266
vt 0.500543 0.921254
vt 0.678682 0.921254
vt 0.678510 0.806862
vt 0.678510 0.793554
vt 0.856649 0.806862
vt 0.678510 0.793554
vt 0.856649 0.793554
vt 0.856649 0.806862
vt 0.856649 0.986378
vt 0.856649 0.999784
vt 0.678510 0.986378
vt 0.856649 0.999784
vt 0.678510 0.999784
vt 0.678510 0.986378
vt 0.678682 0.921254
vt 0.500543 0.921254
vt 0.678682 0.848543
vt 0.500543 0.921254
vt 0.500543 0.848543
vt 0.678682 0.848543
vt 0.945972 0.911634
vt 0.932624 0.910868
vt 0.946907 0.839043
vt 0.932624 0.910868
vt 0.933608 0.838163
vt 0.946907 0.839043
vt 0.856649 0.907494
vt 0.678510 0.907494
vt 0.856649 0.834897
vt 0.678510 0.907494
vt 0.678510 0.834897
vt 0.856649 0.834897
vt 0.932624 0.910868
vt 0.945972 0.911634
vt 0.933608 0.838163
vt 0.945972 0.911634
vt 0.946907 0.839043
vt 0.933608 0.838163
vt 0.933608 0.838163
vt 0.946907 0.839043
vt 0.934737 0.810107
vt 0.946907 0.839043
vt 0.948014 0.811030
vt 0.934737 0.810107
vt 0.856649 0.834897
vt 0.678510 0.834897
vt 0.856649 0.806862
vt 0.678510 0.834897
vt 0.678510 0.806862
vt 0.856649 0.806862
vt 0.946907 0.839043
vt 0.933608 0.838163
vt 0.948014 0.811030
vt 0.933608 0.838163
vt 0.934737 0.810107
vt 0.948014 0.811030
vt 0.678682 0.848543
vt 0.500543 0.848543
vt 0.678682 0.820464
vt 0.500543 0.848543
vt 0.500543 0.820464
vt 0.678682 0.820464

vn 0.000001 0.000000 1.000000
vn 0.000001 0.000000 1.000000
vn 0.000001 0.000000 1.000000
vn 0.000001 0.000000 1.000000
vn 0.000001 0.000000 1.000000
vn 0.000001 0.000000 1.000000
vn -1.000000 0.000000 0.000001
vn -1.000000 0.000000 0.000001
vn -1.000000 0.000000 0.000001
vn -1.000000 0.000000 0.000001
vn -1.000000 0.000000 0.000001
vn -1.000000 0.000000 0.000001
vn -0.000000 -1.000000 0.000000
vn -0.000000 -1.000000 0.000000
vn -0.000000 -1.000000 0.000000
vn -0.000000 -1.000000 0.000000
vn -0.000000 -1.000000 0.000000
vn -0.000000 -1.000000 0.000000
vn 1.000000 0.000000 -0.000001
vn 1.000000 0.000000 -0.000001
vn 1.000000 0.000000 -0.000001
vn 1.000000 0.000000 -0.000001
vn 1.000000 0.000000 -0.000001
vn 1.000000 0.000000 -0.000001
vn -0.000001 0.000000 -1.000000
vn -0.000001 0.000000 -1.000000
vn -0.000001 0.000000 -1.000000
vn -0.000001 0.000000 -1.000000
vn -0.000001 0.000000 -1.000000
vn -0.000001 0.000000 -1.000000
vn 1.000000 0.000000 -0.000002
vn 1.000000 0.000000 -0.000002
vn 1.000000 0.000000 -0.000002
vn 1.000000 -0.000000 0.000000
vn 1.000000 -0.000000 0.000000
vn 1.000000 -0.000000 0.000000
vn 0.000001 -0.028560 0.999592
vn 0.000001 -0.028560 0.999592
vn 0.000001 -0.028560 0.999592
vn 0.000001 -0.028560 0.999592
vn 0.000001 -0.028560 0.999592
vn 0.000001 -0.028560 0.999592
vn -0.999592 -0.028560 0.000001
vn -0.999592 -0.028560 0.000001
vn -0.999592 -0.028560 0.000001
vn -0.999592 -0.028560 0.000000
vn -0.999592 -0.028560 0.000000
vn -0.999592 -0.028560 0.000000
vn -0.000001 0.000000 -1.000000
vn -0.000001 0.000000 -1.000000
vn -0.000001 0.000000 -1.000000
vn -0.000001 0.000000 -1.000000
vn -0.000001 0.000000 -1.000000
vn -0.000001 0.000000 -1.000000
vn -0.000000 -1.000000 0.000000
vn -0.000000 -1.000000 0.000000
vn -0.000000 -1.000000 0.000000
vn -0.000001 -1.000000 0.000000
vn -0.000001 -1.000000 0.000000
vn -0.000001 -1.000000 0.000000
vn -0.000001 0.000000 -1.000000
vn -0.000001 0.000000 -1.000000
vn -0.000001 0.000000 -1.000000
vn -0.000001 -0.000000 -1.000000
vn -0.000001 -0.000000 -1.000000
vn -0.000001 -0.000000 -1.000000
vn 0.999592 -0.028560 -0.000001
vn 0.999592 -0.028560 -0.000001
vn 0.999592 -0.028560 -0.000001
vn 0.999592 -0.028560 -0.000002
vn 0.999592 -0.028560 -0.000002
vn 0.999592 -0.028560 -0.000002
vn 0.000001 -0.028560 0.999592
vn 0.000001 -0.028560 0.999592
vn 0.000001 -0.028560 0.999592
vn 0.000001 -0.028560 0.999592
vn 0.000001 -0.028560 0.999592
vn 0.000001 -0.028560 0.999592
vn -1.000000 0.000000 0.000000
vn -1.000000 0.000000 0.000000
vn -1.000000 0.000000 0.000000
vn -1.000000 0.000000 0.000001
vn -1.000000 0.000000 0.000001
vn -1.000000 0.000000 0.000001
vn -0.000001 -1.000000 0.000000
vn -0.000001 -1.000000 0.000000
vn -0.000001 -1.000000 0.000000
vn -0.000000 -1.000000 0.000000
vn -0.000000 -1.000000 0.000000
vn -0.000000 -1.000000 0.000000
vn 1.000000 0.000000 -0.000001
vn 1.000000 0.000000 -0.000001
vn 1.000000 0.000000 -0.000001
vn 1.000000 -0.000000 -0.000001
vn 1.000000 -0.000000 -0.000001
vn 1.000000 -0.000000 -0.000001
vn -1.000000 0.000000 0.000001
vn -1.000000 0.000000 0.000001
vn -1.000000 0.000000 0.000001
vn -1.000000 0.000000 0.000001
vn -1.000000 0.000000 0.000001
vn -1.000000 0.000000 0.000001
vn 0.000002 -1.000000 0.000000
vn 0.000002 -1.000000 0.000000
vn 0.000002 -1.000000 0.000000
vn 0.000002 -1.000000 0.000000
vn 0.000002 -1.000000 0.000000
vn 0.000002 -1.000000 0.000000
vn 0.000002 1.000000 0.000000
vn 0.000002 1.000000 0.000000
vn 0.000002 1.000000 0.000000
vn -0.000001 1.000000 0.000000
vn -0.000001 1.000000 0.000000
vn -0.000001 1.000000 0.000000
vn -1.000000 0.000000 0.000001
vn -1.000000 0.000000 0.000001
vn -1.000000 0.000000 0.000001
vn -1.000000 0.000000 0.000001
vn -1.000000 0.000000 0.000001
vn -1.000000 0.000000 0.000001
vn 1.000000 0.000000 -0.000001
vn 1.000000 0.000000 -0.000001
vn 1.000000 0.000000 -0.000001
vn 1.000000 -0.000000 -0.000001
vn 1.000000 -0.000000 -0.000001
vn 1.000000 -0.000000 -0.000001
vn -0.000002 -1.000000 0.000000
vn -0.000002 -1.000000 0.000000
vn -0.000002 -1.000000 0.000000
vn -0.000002 -1.000000 0.000000
vn -0.000002 -1.000000 0.000000
vn -0.000002 -1.000000 0.000000
vn -0.000000 1.000000 0.000000
vn -0.000000 1.000000 0.000000
vn -0.000000 1.000000 0.000000
vn -0.000003 1.000000 0.000000
vn -0.000003 1.000000 0.000000
vn -0.000003 1.000000 0.000000
vn -0.000002 -0.999736 0.022978
vn -0.000002 -0.999736 0.022978
vn -0.000002 -0.999736 0.022978
vn 0.000001 -0.999736 0.022978
vn 0.000001 -0.999736 0.022978
vn 0.000001 -0.999736 0.022978
vn -1.000000 0.000000 0.000001
vn -1.000000 0.000000 0.000001
vn -1.000000 0.000000 0.000001
vn -1.000000 0.000000 -0.000001
vn -1.000000 0.000000 -0.000001
vn -1.000000 0.000000 -0.000001
vn -0.000000 -0.038636 -0.999253
vn -0.000000 -0.038636 -0.999253
vn -0.000000 -0.038636 -0.999253
vn -0.000000 -0.038636 -0.999253
vn -0.000000 -0.038636 -0.999253
vn -0.000000 -0.038636 -0.999253
vn 1.000000 0.000000 0.000001
vn 1.000000 0.000000 0.000001
vn 1.000000 0.000000 0.000001
vn 1.000000 0.000000 0.000001
vn 1.000000 0.000000 0.000001
vn 1.000000 0.000000 0.000001
vn 0.000000 0.047832 0.998855
vn 0.000000 0.047832 0.998855
vn 0.000000 0.047832 0.998855
vn 0.000000 0.047832 0.998855
vn 0.000000 0.047832 0.998855
vn 0.000000 0.047832 0.998855
vn 0.000001 -0.999736 0.022978
vn 0.000001 -0.999736 0.022978
vn 0.000001 -0.999736 0.022978
vn -0.000000 -0.999736 0.022978
vn -0.000000 -0.999736 0.022978
vn -0.000000 -0.999736 0.022978
vn 1.000000 -0.000000 -0.000001
vn 1.000000 -0.000000 -0.000001
vn 1.000000 -0.000000 -0.000001
vn 1.000000 -0.000000 0.000000
vn 1.000000 -0.000000 0.000000
vn 1.000000 -0.000000 0.000000
vn -0.000000 -0.038636 -0.999253
vn -0.000000 -0.038636 -0.999253
vn -0.000000 -0.038636 -0.999253
vn -0.000000 -0.038636 -0.999253
vn -0.000000 -0.038636 -0.999253
vn -0.000000 -0.038636 -0.999253
vn -1.000000 0.000000 0.000002
vn -1.000000 0.000000 0.000002
vn -1.000000 0.000000 0.000002
vn -1.000000 0.000000 0.000002
vn -1.000000 0.000000 0.000002
vn -1.000000 0.000000 0.000002
vn 0.000000 0.047832 0.998855
vn 0.000000 0.047832 0.998855
vn 0.000000 0.047832 0.998855
vn 0.000000 0.047832 0.998855
vn 0.000000 0.047832 0.998855
vn 0.000000 0.047832 0.998855
vn -0.000011 -0.061612 0.998100
vn -0.000011 -0.061612 0.998100
vn -0.000011 -0.061612 0.998100
vn 0.000000 -0.061616 0.998100
vn 0.000000 -0.061616 0.998100
vn 0.000000 -0.061616 0.998100
vn -1.000000 -0.000000 0.000002
vn -1.000000 -0.000000 0.000002
vn -1.000000 -0.000000 0.000002
vn -1.000000 -0.000000 0.000003
vn -1.000000 -0.000000 0.000003
vn -1.000000 -0.000000 0.000003
vn -0.000000 0.060640 -0.998160
vn -0.000000 0.060640 -0.998160
vn -0.000000 0.060640 -0.998160
vn -0.000000 0.060640 -0.998160
vn -0.000000 0.060640 -0.998160
vn -0.000000 0.060640 -0.998160
vn 1.000000 0.000000 -0.000000
vn 1.000000 0.000000 -0.000000
vn 1.000000 0.000000 -0.000000
vn 1.000000 0.000000 -0.000001
vn 1.000000 0.000000 -0.000001
vn 1.000000 0.000000 -0.000001
vn 1.000000 0.000000 -0.000001
vn 1.000000 0.000000 -0.000001
vn 1.000000 0.000000 -0.000001
vn 1.000000 0.000000 -0.000001
vn 1.000000 0.000000 -0.000001
vn 1.000000 0.000000 -0.000001
vn -0.000000 0.154256 -0.988031
vn -0.000000 0.154256 -0.988031
vn -0.000000 0.154256 -0.988031
vn -0.000000 0.154256 -0.988031
vn -0.000000 0.154256 -0.988031
vn -0.000000 0.154256 -0.988031
vn -1.000000 -0.000000 0.000002
vn -1.000000 -0.000000 0.000002
vn -1.000000 -0.000000 0.000002
vn -1.000000 -0.000000 0.000003
vn -1.000000 -0.000000 0.000003
vn -1.000000 -0.000000 0.000003
vn 0.000000 -0.154948 0.987923
vn 0.000000 -0.154948 0.987923
vn 0.000000 -0.154948 0.987923
vn 0.000000 -0.154948 0.987922
vn 0.000000 -0.154948 0.987922
vn 0.000000 -0.154948 0.987922
vn 0.000000 0.018095 0.999836
vn 0.000000 0.018095 0.999836
vn 0.000000 0.018095 0.999836
vn 0.000000 0.018095 0.999836
vn 0.000000 0.018095 0.999836
vn 0.000000 0.018095 0.999836
vn -1.000000 0.000000 0.000002
vn -1.000000 0.000000 0.000002
vn -1.000000 0.000000 0.000002
vn -1.000000 0.000000 0.000003
vn -1.000000 0.000000 0.000003
vn -1.000000 0.000000 0.000003
vn -0.000000 -0.019296 -0.999814
vn -0.000000 -0.019296 -0.999814
vn -0.000000 -0.019296 -0.999814
vn -0.000000 -0.019297 -0.999814
vn -0.000000 -0.019297 -0.999814
vn -0.000000 -0.019297 -0.999814
vn 1.000000 -0.000000 -0.000001
vn 1.000000 -0.000000 -0.000001
vn 1.000000 -0.000000 -0.000001
vn 1.000000 -0.000000 0.000000
vn 1.000000 -0.000000 0.000000
vn 1.000000 -0.000000 0.000000
vn 1.000000 -0.000000 0.000001
vn 1.000000 -0.000000 0.000001
vn 1.000000 -0.000000 0.000001
vn 1.000000 -0.000000 0.000000
vn 1.000000 -0.000000 0.000000
vn 1.000000 -0.000000 0.000000
vn -0.000000 0.099028 -0.995085
vn -0.000000 0.099028 -0.995085
vn -0.000000 0.099028 -0.995085
vn -0.000000 0.099028 -0.995085
vn -0.000000 0.099028 -0.995085
vn -0.000000 0.099028 -0.995085
vn -1.000000 -0.000000 0.000002
vn -1.000000 -0.000000 0.000002
vn -1.000000 -0.000000 0.000002
vn -1.000000 -0.000000 0.000003
vn -1.000000 -0.000000 0.000003
vn -1.000000 -0.000000 0.000003
vn 0.000000 -0.099885 0.994999
vn 0.000000 -0.099885 0.994999
vn 0.000000 -0.099885 0.994999
vn 0.000000 -0.099884 0.994999
vn 0.000000 -0.099884 0.994999
vn 0.000000 -0.099884 0.994999
vn 1.000000 0.000000 -0.000000
vn 1.000000 0.000000 -0.000000
vn 1.000000 0.000000 -0.000000
vn 1.000000 0.000000 0.000000
vn 1.000000 0.000000 0.000000
vn 1.000000 0.000000 0.000000
vn -0.000000 0.021140 -0.999776
vn -0.000000 0.021140 -0.999776
vn -0.000000 0.021140 -0.999776
vn -0.000000 0.021140 -0.999776
vn -0.000000 0.021140 -0.999776
vn -0.000000 0.021140 -0.999776
vn -1.000000 -0.000000 0.000002
vn -1.000000 -0.000000 0.000002
vn -1.000000 -0.000000 0.000002
vn -1.000000 -0.000000 0.000002
vn -1.000000 -0.000000 0.000002
vn -1.000000 -0.000000 0.000002
vn 0.000000 -0.022243 0.999753
vn 0.000000 -0.022243 0.999753
vn 0.000000 -0.022243 0.999753
vn -0.000010 -0.022239 0.999753
vn -0.000010 -0.022239 0.999753
vn -0.000010 -0.022239 0.999753
vn 0.000012 -0.061612 0.998100
vn 0.000012 -0.061612 0.998100
vn 0.000012 -0.061612 0.998100
vn 0.000000 -0.061616 0.998100
vn 0.000000 -0.061616 0.998100
vn 0.000000 -0.061616 0.998100
vn 1.000000 -0.000000 0.000001
vn 1.000000 -0.000000 0.000001
vn 1.000000 -0.000000 0.000001
vn 1.000000 -0.000000 0.000001
vn 1.000000 -0.000000 0.000001
vn 1.000000 -0.000000 0.000001
vn -0.000000 0.060640 -0.998160
vn -0.000000 0.060640 -0.998160
vn -0.000000 0.060640 -0.998160
vn -0.000000 0.060640 -0.998160
vn -0.000000 0.060640 -0.998160
vn -0.000000 0.060640 -0.998160
vn -1.000000 -0.000000 0.000001
vn -1.000000 -0.000000 0.000001
vn -1.000000 -0.000000 0.000001
vn -1.000000 -0.000000 0.000001
vn -1.000000 -0.000000 0.000001
vn -1.000000 -0.000000 0.000001
vn -1.000000 -0.000000 0.000001
vn -1.000000 -0.000000 0.000001
vn -1.000000 -0.000000 0.000001
vn -1.000000 -0.000000 0.000001
vn -1.000000 -0.000000 0.000001
vn -1.000000 -0.000000 0.000001
vn -0.000000 0.154256 -0.988031
vn -0.000000 0.154256 -0.988031
vn -0.000000 0.154256 -0.988031
vn -0.000000 0.154256 -0.988031
vn -0.000000 0.154256 -0.988031
vn -0.000000 0.154256 -0.988031
vn 1.000000 -0.000000 0.000000
vn 1.000000 -0.000000 0.000000
vn 1.000000 -0.000000 0.000000
vn 1.000000 -0.000000 0.000002
vn 1.000000 -0.000000 0.000002
vn 1.000000 -0.000000 0.000002
vn 0.000000 -0.154948 0.987922
vn 0.000000 -0.154948 0.987922
vn 0.000000 -0.154948 0.987922
vn 0.000000 -0.154948 0.987923
vn 0.000000 -0.154948 0.987923
vn 0.000000 -0.154948 0.987923
vn 0.000000 0.018095 0.999836
vn 0.000000 0.018095 0.999836
vn 0.000000 0.018095 0.999836
vn 0.000000 0.018095 0.999836
vn 0.000000 0.018095 0.999836
vn 0.000000 0.018095 0.999836
vn 1.000000 0.000000 0.000001
vn 1.000000 0.000000 0.000001
vn 1.000000 0.000000 0.000001
vn 1.000000 0.000000 0.000001
vn 1.000000 0.000000 0.000001
vn 1.000000 0.000000 0.000001
vn -0.000000 -0.019297 -0.999814
vn -0.000000 -0.019297 -0.999814
vn -0.000000 -0.019297 -0.999814
vn -0.000000 -0.019296 -0.999814
vn -0.000000 -0.019296 -0.999814
vn -0.000000 -0.019296 -0.999814
vn -1.000000 0.000000 0.000001
vn -1.000000 0.000000 0.000001
vn -1.000000 0.000000 0.000001
vn -1.000000 0.000000 -0.000001
vn -1.000000 0.000000 -0.000001
vn -1.000000 0.000000 -0.000001
vn -1.000000 -0.000000 0.000001
vn -1.000000 -0.000000 0.000001
vn -1.000000 -0.000000 0.000001
vn -1.000000 -0.000000 0.000000
vn -1.000000 -0.000000 0.000000
vn -1.000000 -0.000000 0.000000
vn -0.000000 0.021140 -0.999776
vn -0.000000 0.021140 -0.999776
vn -0.000000 0.021140 -0.999776
vn -0.000000 0.021140 -0.999776
vn -0.000000 0.021140 -0.999776
vn -0.000000 0.021140 -0.999776
vn 1.000000 -0.000000 0.000001
vn 1.000000 -0.000000 0.000001
vn 1.000000 -0.000000 0.000001
vn 1.000000 -0.000000 0.000001
vn 1.000000 -0.000000 0.000001
vn 1.000000 -0.000000 0.000001
vn 0.000000 -0.022243 0.999753
vn 0.000000 -0.022243 0.999753
vn 0.000000 -0.022243 0.999753
vn 0.000011 -0.022239 0.999753
vn 0.000011 -0.022239 0.999753
vn 0.000011 -0.022239 0.999753
vn -1.000000 0.000000 0.000000
vn -1.000000 0.000000 0.000000
vn -1.000000 0.000000 0.000000
vn -1.000000 0.000000 -0.000000
vn -1.000000 0.000000 -0.000000
vn -1.000000 0.000000 -0.000000
vn -0.000000 0.099027 -0.995085
vn -0.000000 0.099027 -0.995085
vn -0.000000 0.099027 -0.995085
vn -0.000000 0.099028 -0.995085
vn -0.000000 0.099028 -0.995085
vn -0.000000 0.099028 -0.995085
vn 1.000000 -0.000000 0.000003
vn 1.000000 -0.000000 0.000003
vn 1.000000 -0.000000 0.000003
vn 1.000000 -0.000000 -0.000000
vn 1.000000 -0.000000 -0.000000
vn 1.000000 -0.000000 -0.000000
vn 0.000000 -0.099884 0.994999
vn 0.000000 -0.099884 0.994999
vn 0.000000 -0.099884 0.994999
vn 0.000000 -0.099884 0.994999
vn 0.000000 -0.099884 0.994999
vn 0.000000 -0.099884 0.994999
vn 1.000000 0.000000 0.000000
vn 1.000000 0.000000 0.000000
vn 1.000000 0.000000 0.000000
vn 1.000000 -0.000000 -0.000001
vn 1.000000 -0.000000 -0.000001
vn 1.000000 -0.000000 -0.000001
vn 0.000001 -0.152285 0.988337
vn 0.000001 -0.152285 0.988337
vn 0.000001 -0.152285 0.988337
vn 0.000001 -0.152285 0.988337
vn 0.000001 -0.152285 0.988337
vn 0.000001 -0.152285 0.988337
vn -1.000000 0.000000 0.000000
vn -1.000000 0.000000 0.000000
vn -1.000000 0.000000 0.000000
vn -1.000000 0.000000 0.000001
vn -1.000000 0.000000 0.000001
vn -1.000000 0.000000 0.000001
vn -0.000001 0.151856 -0.988403
vn -0.000001 0.151856 -0.988403
vn -0.000001 0.151856 -0.988403
vn -0.000001 0.151856 -0.988403
vn -0.000001 0.151856 -0.988403
vn -0.000001 0.151856 -0.988403
vn -0.000000 -0.998984 -0.045076
vn -0.000000 -0.998984 -0.045076
vn -0.000000 -0.998984 -0.045076
vn -0.000000 -0.998984 -0.045076
vn -0.000000 -0.998984 -0.045076
vn -0.000000 -0.998984 -0.045076
vn -0.000000 0.997067 0.076533
vn -0.000000 0.997067 0.076533
vn -0.000000 0.997067 0.076533
vn -0.000000 0.997067 0.076532
vn -0.000000 0.997067 0.076532
vn -0.000000 0.997067 0.076532
vn -0.000001 0.099193 -0.995068
vn -0.000001 0.099193 -0.995068
vn -0.000001 0.099193 -0.995068
vn -0.000001 0.099193 -0.995068
vn -0.000001 0.099193 -0.995068
vn -0.000001 0.099193 -0.995068
vn -1.000000 0.000000 0.000000
vn -1.000000 0.000000 0.000000
vn -1.000000 0.000000 0.000000
vn -1.000000 0.000000 0.000002
vn -1.000000 0.000000 0.000002
vn -1.000000 0.000000 0.000002
vn 0.000001 -0.099725 0.995015
vn 0.000001 -0.099725 0.995015
vn 0.000001 -0.099725 0.995015
vn 0.000001 -0.099725 0.995015
vn 0.000001 -0.099725 0.995015
vn 0.000001 -0.099725 0.995015
vn 1.000000 -0.000000 0.000000
vn 1.000000 -0.000000 0.000000
vn 1.000000 -0.000000 0.000000
vn 1.000000 0.000000 -0.000002
vn 1.000000 0.000000 -0.000002
vn 1.000000 0.000000 -0.000002
vn 1.000000 0.000000 0.000002
vn 1.000000 0.000000 0.000002
vn 1.000000 0.000000 0.000002
vn 1.000000 0.000000 -0.000002
vn 1.000000 0.000000 -0.000002
vn 1.000000 0.000000 -0.000002
vn 0.000001 -0.067924 0.997690
vn 0.000001 -0.067924 0.997690
vn 0.000001 -0.067924 0.997690
vn 0.000001 -0.067923 0.997690
vn 0.000001 -0.067923 0.997690
vn 0.000001 -0.067923 0.997690
vn -1.000000 -0.000000 0.000002
vn -1.000000 -0.000000 0.000002
vn -1.000000 -0.000000 0.000002
vn -1.000000 -0.000000 -0.000001
vn -1.000000 -0.000000 -0.000001
vn -1.000000 -0.000000 -0.000001
vn -0.000001 0.067354 -0.997729
vn -0.000001 0.067354 -0.997729
vn -0.000001 0.067354 -0.997729
vn -0.000001 0.067354 -0.997729
vn -0.000001 0.067354 -0.997729
vn -0.000001 0.067354 -0.997729
vn -0.000000 0.996965 0.077857
vn -0.000000 0.996965 0.077857
vn -0.000000 0.996965 0.077857
vn -0.000001 0.996965 0.077857
vn -0.000001 0.996965 0.077857
vn -0.000001 0.996965 0.077857
vn -0.000001 0.996965 0.077857
vn -0.000001 0.996965 0.077857
vn -0.000001 0.996965 0.077857
vn 0.000002 0.996965 0.077857
vn 0.000002 0.996965 0.077857
vn 0.000002 0.996965 0.077857
vn 1.000000 0.000000 -0.000002
vn 1.000000 0.000000 -0.000002
vn 1.000000 0.000000 -0.000002
vn 1.000000 0.000000 0.000000
vn 1.000000 0.000000 0.000000
vn 1.000000 0.000000 0.000000
vn 0.000001 0.000000 1.000000
vn 0.000001 0.000000 1.000000
vn 0.000001 0.000000 1.000000
vn 0.000001 0.000000 1.000000
vn 0.000001 0.000000 1.000000
vn 0.000001 0.000000 1.000000
vn -1.000000 0.000000 0.000000
vn -1.000000 0.000000 0.000000
vn -1.000000 0.000000 0.000000
vn -1.000000 0.000000 0.000002
vn -1.000000 0.000000 0.000002
vn -1.000000 0.000000 0.000002
vn -0.000001 0.000000 -1.000000
vn -0.000001 0.000000 -1.000000
vn -0.000001 0.000000 -1.000000
vn -0.000001 0.000000 -1.000000
vn -0.000001 0.000000 -1.000000
vn -0.000001 0.000000 -1.000000
vn -0.000000 -1.000000 0.000000
vn -0.000000 -1.000000 0.000000
vn -0.000000 -1.000000 0.000000
vn -0.000000 -1.000000 0.000000
vn -0.000000 -1.000000 0.000000
vn -0.000000 -1.000000 0.000000
vn -0.000000 1.000000 0.000000
vn -0.000000 1.000000 0.000000
vn -0.000000 1.000000 0.000000
vn -0.000000 1.000000 0.000000
vn -0.000000 1.000000 0.000000
vn -0.000000 1.000000 0.000000
vn 1.000000 0.000000 -0.000001
vn 1.000000 0.000000 -0.000001
vn 1.000000 0.000000 -0.000001
vn 1.000000 0.000000 -0.000001
vn 1.000000 0.000000 -0.000001
vn 1.000000 0.000000 -0.000001
vn -0.000000 1.000000 0.000000
vn -0.000000 1.000000 0.000000
vn -0.000000 1.000000 0.000000
vn -0.000000 1.000000 0.000000
vn -0.000000 1.000000 0.000000
vn -0.000000 1.000000 0.000000
vn 0.588418 0.808557 -0.000000
vn 0.588418 0.808557 -0.000000
vn 0.588418 0.808557 -0.000000
vn 0.588417 0.808557 -0.000000
vn 0.588417 0.808557 -0.000000
vn 0.588417 0.808557 -0.000000
vn 0.000000 0.839003 0.544127
vn 0.000000 0.839003 0.544127
vn 0.000000 0.839003 0.544127
vn 0.000000 0.839003 0.544126
vn 0.000000 0.839003 0.544126
vn 0.000000 0.839003 0.544126
vn -0.588418 0.808557 0.000000
vn -0.588418 0.808557 0.000000
vn -0.588418 0.808557 0.000000
vn -0.588418 0.808557 0.000000
vn -0.588418 0.808557 0.000000
vn -0.588418 0.808557 0.000000
vn -0.000000 0.808557 -0.588418
vn -0.000000 0.808557 -0.588418
vn -0.000000 0.808557 -0.588418
vn -0.000000 0.808558 -0.588417
vn -0.000000 0.808558 -0.588417
vn -0.000000 0.808558 -0.588417
vn -0.000001 0.000000 -1.000000
vn -0.000001 0.000000 -1.000000
vn -0.000001 0.000000 -1.000000
vn -0.000001 0.000000 -1.000000
vn -0.000001 0.000000 -1.000000
vn -0.000001 0.000000 -1.000000
vn 1.000000 0.000000 -0.000001
vn 1.000000 0.000000 -0.000001
vn 1.000000 0.000000 -0.000001
vn 1.000000 0.000000 -0.000001
vn 1.000000 0.000000 -0.000001
vn 1.000000 0.000000 -0.000001
vn -0.000001 0.000000 -1.000000
vn -0.000001 0.000000 -1.000000
vn -0.000001 0.000000 -1.000000
vn -0.000001 0.000000 -1.000000
vn -0.000001 0.000000 -1.000000
vn -0.000001 0.000000 -1.000000
vn -0.000000 -1.000000 0.000000
vn -0.000000 -1.000000 0.000000
vn -0.000000 -1.000000 0.000000
vn 0.000000 -1.000000 0.000000
vn 0.000000 -1.000000 0.000000
vn 0.000000 -1.000000 0.000000
vn 1.000000 -0.000000 0.000000
vn 1.000000 -0.000000 0.000000
vn 1.000000 -0.000000 0.000000
vn 1.000000 0.000000 -0.000001
vn 1.000000 0.000000 -0.000001
vn 1.000000 0.000000 -0.000001
vn 0.000001 -0.137682 0.990476
vn 0.000001 -0.137682 0.990476
vn 0.000001 -0.137682 0.990476
vn 0.000001 -0.137682 0.990476
vn 0.000001 -0.137682 0.990476
vn 0.000001 -0.137682 0.990476
vn -1.000000 0.000000 0.000000
vn -1.000000 0.000000 0.000000
vn -1.000000 0.000000 0.000000
vn -1.000000 0.000000 0.000002
vn -1.000000 0.000000 0.000002
vn -1.000000 0.000000 0.000002
vn -0.000001 0.137111 -0.990556
vn -0.000001 0.137111 -0.990556
vn -0.000001 0.137111 -0.990556
vn -0.000001 0.137111 -0.990556
vn -0.000001 0.137111 -0.990556
vn -0.000001 0.137111 -0.990556
vn -0.000000 -0.999084 -0.042791
vn -0.000000 -0.999084 -0.042791
vn -0.000000 -0.999084 -0.042791
vn -0.000000 -0.999084 -0.042792
vn -0.000000 -0.999084 -0.042792
vn -0.000000 -0.999084 -0.042792
vn -0.000000 0.997908 0.064654
vn -0.000000 0.997908 0.064654
vn -0.000000 0.997908 0.064654
vn 0.000000 0.997908 0.064654
vn 0.000000 0.997908 0.064654
vn 0.000000 0.997908 0.064654
vn -0.000001 0.098540 -0.995133
vn -0.000001 0.098540 -0.995133
vn -0.000001 0.098540 -0.995133
vn -0.000001 0.098540 -0.995133
vn -0.000001 0.098540 -0.995133
vn -0.000001 0.098540 -0.995133
vn -1.000000 0.000000 0.000000
vn -1.000000 0.000000 0.000000
vn -1.000000 0.000000 0.000000
vn -1.000000 0.000000 -0.000000
vn -1.000000 0.000000 -0.000000
vn -1.000000 0.000000 -0.000000
vn 0.000001 -0.099192 0.995068
vn 0.000001 -0.099192 0.995068
vn 0.000001 -0.099192 0.995068
vn 0.000001 -0.099193 0.995068
vn 0.000001 -0.099193 0.995068
vn 0.000001 -0.099193 0.995068
vn 1.000000 -0.000000 0.000001
vn 1.000000 -0.000000 0.000001
vn 1.000000 -0.000000 0.000001
vn 1.000000 -0.000000 -0.000000
vn 1.000000 -0.000000 -0.000000
vn 1.000000 -0.000000 -0.000000
vn 1.000000 0.000000 0.000000
vn 1.000000 0.000000 0.000000
vn 1.000000 0.000000 0.000000
vn 1.000000 0.000000 -0.000000
vn 1.000000 0.000000 -0.000000
vn 1.000000 0.000000 -0.000000
vn 0.000001 -0.072678 0.997355
vn 0.000001 -0.072678 0.997355
vn 0.000001 -0.072678 0.997355
vn 0.000001 -0.072678 0.997355
vn 0.000001 -0.072678 0.997355
vn 0.000001 -0.072678 0.997355
vn -1.000000 -0.000000 0.000000
vn -1.000000 -0.000000 0.000000
vn -1.000000 -0.000000 0.000000
vn -1.000000 -0.000000 0.000002
vn -1.000000 -0.000000 0.000002
vn -1.000000 -0.000000 0.000002
vn -0.000001 0.071950 -0.997408
vn -0.000001 0.071950 -0.997408
vn -0.000001 0.071950 -0.997408
vn -0.000001 0.071948 -0.997408
vn -0.000001 0.071948 -0.997408
vn -0.000001 0.071948 -0.997408

g Material.001
f 3/1/1 1/2/2 2/3/3
f 6/4/4 4/5/5 5/6/6
f 9/7/7 7/8/8 8/9/9
f 12/10/10 10/11/11 11/12/12
f 15/13/13 13/14/14 14/15/15
f 18/16/16 16/17/17 17/18/18
f 21/19/19 19/20/20 20/21/21
f 24/22/22 22/23/23 23/24/24
f 27/25/25 25/26/26 26/27/27
f 30/28/28 28/29/29 29/30/30
f 33/31/31 31/32/32 32/33/33
f 36/34/34 34/35/35 35/36/36
f 39/37/37 37/38/38 38/39/39
f 42/40/40 40/41/41 41/42/42
f 45/43/43 43/44/44 44/45/45
f 48/46/46 46/47/47 47/48/48
f 51/49/49 49/50/50 50/51/51
f 54/52/52 52/53/53 53/54/54
f 57/55/55 55/56/56 56/57/57
f 60/58/58 58/59/59 59/60/60
f 63/61/61 61/62/62 62/63/63
f 66/64/64 64/65/65 65/66/66
f 69/67/67 67/68/68 68/69/69
f 72/70/70 70/71/71 71/72/72
f 75/73/73 73/74/74 74/75/75
f 78/76/76 76/77/77 77/78/78
f 81/79/79 79/80/80 80/81/81
f 84/82/82 82/83/83 83/84/84
f 87/85/85 85/86/86 86/87/87
f 90/88/88 88/89/89 89/90/90
f 93/91/91 91/92/92 92/93/93
f 96/94/94 94/95/95 95/96/96
f 99/97/97 97/98/98 98/99/99
f 102/100/100 100/101/101 101/102/102
f 105/103/103 103/104/104 104/105/105
f 108/106/106 106/107/107 107/108/108
f 111/109/109 109/110/110 110/111/111
f 114/112/112 112/113/113 113/114/114
f 117/115/115 115/116/116 116/117/117
f 120/118/118 118/119/119 119/120/120
f 123/121/121 121/122/122 122/123/123
f 126/124/124 124/125/125 125/126/126
f 129/127/127 127/128/128 128/129/129
f 132/130/130 130/131/131 131/132/132
f 135/133/133 133/134/134 134/135/135
f 138/136/136 136/137/137 137/138/138
f 141/139/139 139/140/140 140/141/141
f 144/142/142 142/143/143 143/144/144
f 147/145/145 145/146/146 146/147/147
f 150/148/148 148/149/149 149/150/150
f 153/151/151 151/152/152 152/153/153
f 156/154/154 154/155/155 155/156/156
f 159/157/157 157/158/158 158/159/159
f 162/160/160 160/161/161 161/162/162
f 165/163/163 163/164/164 164/165/165
f 168/166/166 166/167/167 167/168/168
f 171/169/169 169/170/170 170/171/171
f 174/172/172 172/173/173 173/174/174
f 177/175/175 175/176/176 176/177/177
f 180/178/178 178/179/179 179/180/180
f 183/181/181 181/182/182 182/183/183
f 186/184/184 184/185/185 185/186/186
f 189/187/187 187/188/188 188/189/189
f 192/190/190 190/191/191 191/192/192
f 195/193/193 193/194/194 194/195/195
f 198/196/196 196/197/197 197/198/198
f 201/199/199 199/200/200 200/201/201
f 204/202/202 202/203/203 203/204/204
f 207/205/205 205/206/206 206/207/207
f 210/208/208 208/209/209 209/210/210
f 213/211/211 211/212/212 212/213/213
f 216/214/214 214/215/215 215/216/216
f 219/217/217 217/218/218 218/219/219
f 222/220/220 220/221/221 221/222/222
f 225/223/223 223/224/224 224/225/225
f 228/226/226 226/227/227 227/228/228
f 231/229/229 229/230/230 230/231/231
f 234/232/232 232/233/233 233/234/234
f 237/235/235 235/236/236 236/237/237
f 240/238/238 238/239/239 239/240/240
f 243/241/241 241/242/242 242/243/243
f 246/244/244 244/245/245 245/246/246
f 249/247/247 247/248/248 248/249/249
f 252/250/250 250/251/251 251/252/252
f 255/253/253 253/254/254 254/255/255
f 258/256/256 256/257/257 257/258/258
f 261/259/259 259/260/260 260/261/261
f 264/262/262 262/263/263 263/264/264
f 267/265/265 265/266/266 266/267/267
f 270/268/268 268/269/269 269/270/270
f 273/271/271 271/272/272 272/273/273
f 276/274/274 274/275/275 275/276/276
f 279/277/277 277/278/278 278/279/279
f 282/280/280 280/281/281 281/282/282
f 285/283/283 283/284/284 284/285/285
f 288/286/286 286/287/287 287/288/288
f 291/289/289 289/290/290 290/291/291
f 294/292/292 292/293/293 293/294/294
f 297/295/295 295/296/296 296/297/297
f 300/298/298 298/299/299 299/300/300
f 303/301/301 301/302/302 302/303/303
f 306/304/304 304/305/305 305/306/306
f 309/307/307 307/308/308 308/309/309
f 312/310/310 310/311/311 311/312/312
f 315/313/313 313/314/314 314/315/315
f 318/316/316 316/317/317 317/318/318
f 321/319/319 319/320/320 320/321/321
f 324/322/322 322/323/323 323/324/324
f 327/325/325 325/326/326 326/327/327
f 330/328/328 328/329/329 329/330/330
f 333/331/331 331/332/332 332/333/333
f 336/334/334 334/335/335 335/336/336
f 339/337/337 337/338/338 338/339/339
f 342/340/340 340/341/341 341/342/342
f 345/343/343 343/344/344 344/345/345
f 348/346/346 346/347/347 347/348/348
f 351/349/349 349/350/350 350/351/351
f 354/352/352 352/353/353 353/354/354
f 357/355/355 355/356/356 356/357/357
f 360/358/358 358/359/359 359/360/360
f 363/361/361 361/362/362 362/363/363
f 366/364/364 364/365/365 365/366/366
f 369/367/367 367/368/368 368/369/369
f 372/370/370 370/371/371 371/372/372
f 375/373/373 373/374/374 374/375/375
f 378/376/376 376/377/377 377/378/378
f 381/379/379 379/380/380 380/381/381
f 384/382/382 382/383/383 383/384/384
f 387/385/385 385/386/386 386/387/387
f 390/388/388 388/389/389 389/390/390
f 393/391/391 391/392/392 392/393/393
f 396/394/394 394/395/395 395/396/396
f 399/397/397 397/398/398 398/399/399
f 402/400/400 400/401/401 401/402/402
f 405/403/403 403/404/404 404/405/405
f 408/406/406 406/407/407 407/408/408
f 411/409/409 409/410/410 410/411/411
f 414/412/412 412/413/413 413/414/414
f 417/415/415 415/416/416 416/417/417
f 420/418/418 418/419/419 419/420/420
f 423/421/421 421/422/422 422/423/423
f 426/424/424 424/425/425 425/426/426
f 429/427/427 427/428/428 428/429/429
f 432/430/430 430/431/431 431/432/432
f 435/433/433 433/434/434 434/435/435
f 438/436/436 436/437/437 437/438/438
f 441/439/439 439/440/440 440/441/441
f 444/442/442 442/443/443 443/444/444
f 447/445/445 445/446/446 446/447/447
f 450/448/448 448/449/449 449/450/450
f 453/451/451 451/452/452 452/453/453
f 456/454/454 454/455/455 455/456/456
f 459/457/457 457/458/458 458/459/459
f 462/460/460 460/461/461 461/462/462
f 465/463/463 463/464/464 464/465/465
f 468/466/466 466/467/467 467/468/468
f 471/469/469 469/470/470 470/471/471
f 474/472/472 472/473/473 473/474/474
f 477/475/475 475/476/476 476/477/477
f 480/478/478 478/479/479 479/480/480
f 483/481/481 481/482/482 482/483/483
f 486/484/484 484/485/485 485/486/486
f 489/487/487 487/488/488 488/489/489
f 492/490/490 490/491/491 491/492/492
f 495/493/493 493/494/494 494/495/495
f 498/496/496 496/497/497 497/498/498
f 501/499/499 499/500/500 500/501/501
f 504/502/502 502/503/503 503/504/504
f 507/505/505 505/506/506 506/507/507
f 510/508/508 508/509/509 509/510/510
f 513/511/511 511/512/512 512/513/513
f 516/514/514 514/515/515 515/516/516
f 519/517/517 517/518/518 518/519/519
f 522/520/520 520/521/521 521/522/522
f 525/523/523 523/524/524 524/525/525
f 528/526/526 526/527/527 527/528/528
f 531/529/529 529/530/530 530/531/531
f 534/532/532 532/533/533 533/534/534
f 537/535/535 535/536/536 536/537/537
f 540/538/538 538/539/539 539/540/540
f 543/541/541 541/542/542 542/543/543
f 546/544/544 544/545/545 545/546/546
f 549/547/547 547/548/548 548/549/549
f 552/550/550 550/551/551 551/552/552
f 555/553/553 553/554/554 554/555/555
f 558/556/556 556/557/557 557/558/558
f 561/559/559 559/560/560 560/561/561
f 564/562/562 562/563/563 563/564/564
f 567/565/565 565/566/566 566/567/567
f 570/568/568 568/569/569 569/570/570

g Material.002
f 573/571/571 571/572/572 572/573/573
f 576/574/574 574/575/575 575/576/576
f 579/577/577 577/578/578 578/579/579
f 582/580/580 580/581/581 581/582/582
f 585/583/583 583/584/584 584/585/585
f 588/586/586 586/587/587 587/588/588
f 591/589/589 589/590/590 590/591/591
f 594/592/592 592/593/593 593/594/594
f 597/595/595 595/596/596 596/597/597
f 600/598/598 598/599/599 599/600/600
f 603/601/601 601/602/602 602/603/603
f 606/604/604 604/605/605 605/606/606
f 609/607/607 607/608/608 608/609/609
f 612/610/610 610/611/611 611/612/612
f 615/613/613 613/614/614 614/615/615
f 618/616/616 616/617/617 617/618/618
f 621/619/619 619/620/620 620/621/621
f 624/622/622 622/623/623 623/624/624
f 627/625/625 625/626/626 626/627/627
f 630/628/628 628/629/629 629/630/630
f 633/631/631 631/632/632 632/633/633
f 636/634/634 634/635/635 635/636/636
f 639/637/637 637/638/638 638/639/639
f 642/640/640 640/641/641 641/642/642
f 645/643/643 643/644/644 644/645/645
f 648/646/646 646/647/647 647/648/648
f 651/649/649 649/650/650 650/651/651
f 654/652/652 652/653/653 653/654/654
f 657/655/655 655/656/656 656/657/657
f 660/658/658 658/659/659 659/660/660
f 663/661/661 661/662/662 662/663/663
f 666/664/664 664/665/665 665/666/666
f 669/667/667 667/668/668 668/669/669
f 672/670/670 670/671/671 671/672/672
f 675/673/673 673/674/674 674/675/675
f 678/676/676 676/677/677 677/678/678
f 681/679/679 679/680/680 680/681/681
f 684/682/682 682/683/683 683/684/684
f 687/685/685 685/686/686 686/687/687
f 690/688/688 688/689/689 689/690/690
f 693/691/691 691/692/692 692/693/693
f 696/694/694 694/695/695 695/696/696
f 699/697/697 697/698/698 698/699/699
f 702/700/700 700/701/701 701/702/702
f 705/703/703 703/704/704 704/705/705
f 708/706/706 706/707/707 707/708/708
f 711/709/709 709/710/710 710/711/711
f 714/712/712 712/713/713 713/714/714

