# Converted from B3D for Luanti (With Correct Normals)
# Object Name: multidecor_wooden_doorjamb

v 1.000000 3.450000 1.000000
v 1.450000 3.450000 1.000000
v 1.450000 3.450000 0.800000
v 1.000000 3.450000 0.800000
v 1.000000 -1.000000 0.800000
v 1.000000 3.450000 0.800000
v 1.450000 3.450000 0.800000
v 1.450000 -1.000000 0.800000
v 1.450000 -1.000000 0.800000
v 1.450000 3.450000 0.800000
v 1.450000 3.450000 1.000000
v 1.450000 -1.000000 1.000000
v 1.450000 -1.000000 1.000000
v 1.000000 -1.000000 1.000000
v 1.000000 -1.000000 0.800000
v 1.450000 -1.000000 0.800000
v 1.000000 -1.000000 1.000000
v 1.000000 3.450000 1.000000
v 1.000000 3.450000 0.800000
v 1.000000 -1.000000 0.800000
v 1.450000 -1.000000 1.000000
v 1.450000 3.450000 1.000000
v 1.000000 3.450000 1.000000
v 1.000000 -1.000000 1.000000
v -1.450000 3.450000 1.000000
v -1.000000 3.450000 1.000000
v -1.000000 3.450000 0.800000
v -1.450000 3.450000 0.800000
v -1.450000 -1.000000 0.800000
v -1.450000 3.450000 0.800000
v -1.000000 3.450000 0.800000
v -1.000000 -1.000000 0.800000
v -1.000000 -1.000000 0.800000
v -1.000000 3.450000 0.800000
v -1.000000 3.450000 1.000000
v -1.000000 -1.000000 1.000000
v -1.000000 -1.000000 1.000000
v -1.450000 -1.000000 1.000000
v -1.450000 -1.000000 0.800000
v -1.000000 -1.000000 0.800000
v -1.450000 -1.000000 1.000000
v -1.450000 3.450000 1.000000
v -1.450000 3.450000 0.800000
v -1.450000 -1.000000 0.800000
v -1.000000 -1.000000 1.000000
v -1.000000 3.450000 1.000000
v -1.450000 3.450000 1.000000
v -1.450000 -1.000000 1.000000
v 1.000000 3.000000 0.800000
v -1.000000 3.000000 0.800000
v -1.000000 3.450000 0.800000
v 1.000000 3.450000 0.800000
v 1.000000 3.450000 0.800000
v -1.000000 3.450000 0.800000
v -1.000000 3.450000 1.000000
v 1.000000 3.450000 1.000000
v 1.000000 3.000000 1.000000
v -1.000000 3.000000 1.000000
v -1.000000 3.000000 0.800000
v 1.000000 3.000000 0.800000
v 1.000000 3.450000 1.000000
v -1.000000 3.450000 1.000000
v -1.000000 3.000000 1.000000
v 1.000000 3.000000 1.000000

vt 0.690035 1.000880
vt 0.597277 0.959654
vt 0.690035 0.959654
vt 0.597277 1.000880
vt 0.597277 0.959654
vt 0.690035 1.000880
vt 0.463293 0.959653
vt 0.556051 0.042378
vt 0.556051 0.959654
vt 0.463294 0.042378
vt 0.556051 0.042378
vt 0.463293 0.959653
vt 0.690035 0.959654
vt 0.731261 0.042378
vt 0.731261 0.959654
vt 0.690035 0.042378
vt 0.731261 0.042378
vt 0.690035 0.959654
vt 0.597277 0.001153
vt 0.690035 0.042378
vt 0.597277 0.042378
vt 0.690035 0.001153
vt 0.690035 0.042378
vt 0.597277 0.001153
vt 0.556051 0.959654
vt 0.597277 0.042378
vt 0.597277 0.959654
vt 0.556051 0.042378
vt 0.597277 0.042378
vt 0.556051 0.959654
vt 0.597277 0.959654
vt 0.690035 0.042378
vt 0.690035 0.959654
vt 0.597277 0.042378
vt 0.690035 0.042378
vt 0.597277 0.959654
vt 0.865519 1.000880
vt 0.772760 0.959654
vt 0.865519 0.959654
vt 0.772760 1.000880
vt 0.772760 0.959654
vt 0.865519 1.000880
vt 0.906744 0.959654
vt 0.999502 0.042378
vt 0.999503 0.959654
vt 0.906745 0.042379
vt 0.999502 0.042378
vt 0.906744 0.959654
vt 0.865519 0.959654
vt 0.906745 0.042379
vt 0.906744 0.959654
vt 0.865519 0.042379
vt 0.906745 0.042379
vt 0.865519 0.959654
vt 0.772761 0.001153
vt 0.865519 0.042379
vt 0.772761 0.042379
vt 0.865519 0.001153
vt 0.865519 0.042379
vt 0.772761 0.001153
vt 0.731534 0.959654
vt 0.772761 0.042379
vt 0.772760 0.959654
vt 0.731535 0.042379
vt 0.772761 0.042379
vt 0.731534 0.959654
vt 0.772760 0.959654
vt 0.865519 0.042379
vt 0.865519 0.959654
vt 0.772761 0.042379
vt 0.865519 0.042379
vt 0.772760 0.959654
vt 0.268887 0.464476
vt 0.176129 0.876733
vt 0.176129 0.464476
vt 0.268887 0.876733
vt 0.176129 0.876733
vt 0.268887 0.464476
vt 0.042145 0.464476
vt 0.000919 0.876733
vt 0.000919 0.464476
vt 0.042145 0.876733
vt 0.000919 0.876733
vt 0.042145 0.464476
vt 0.176129 0.464476
vt 0.134903 0.876733
vt 0.134903 0.464476
vt 0.176129 0.876733
vt 0.134903 0.876733
vt 0.176129 0.464476
vt 0.134903 0.464476
vt 0.042145 0.876733
vt 0.042145 0.464476
vt 0.134903 0.876733
vt 0.042145 0.876733
vt 0.134903 0.464476

vn -0.000000 1.000000 0.000000
vn -0.000000 1.000000 0.000000
vn -0.000000 1.000000 0.000000
vn -0.000000 1.000000 0.000000
vn -0.000000 1.000000 0.000000
vn -0.000000 1.000000 0.000000
vn -0.000000 0.000000 -1.000000
vn -0.000000 0.000000 -1.000000
vn -0.000000 0.000000 -1.000000
vn -0.000000 0.000000 -1.000000
vn -0.000000 0.000000 -1.000000
vn -0.000000 0.000000 -1.000000
vn 1.000000 0.000000 0.000000
vn 1.000000 0.000000 0.000000
vn 1.000000 0.000000 0.000000
vn 1.000000 0.000000 0.000000
vn 1.000000 0.000000 0.000000
vn 1.000000 0.000000 0.000000
vn -0.000000 -1.000000 0.000000
vn -0.000000 -1.000000 0.000000
vn -0.000000 -1.000000 0.000000
vn -0.000000 -1.000000 0.000000
vn -0.000000 -1.000000 0.000000
vn -0.000000 -1.000000 0.000000
vn -1.000000 0.000000 0.000000
vn -1.000000 0.000000 0.000000
vn -1.000000 0.000000 0.000000
vn -1.000000 0.000000 0.000000
vn -1.000000 0.000000 0.000000
vn -1.000000 0.000000 0.000000
vn -0.000000 0.000000 1.000000
vn -0.000000 0.000000 1.000000
vn -0.000000 0.000000 1.000000
vn -0.000000 0.000000 1.000000
vn -0.000000 0.000000 1.000000
vn -0.000000 0.000000 1.000000
vn -0.000000 1.000000 0.000000
vn -0.000000 1.000000 0.000000
vn -0.000000 1.000000 0.000000
vn -0.000000 1.000000 0.000000
vn -0.000000 1.000000 0.000000
vn -0.000000 1.000000 0.000000
vn -0.000000 0.000000 -1.000000
vn -0.000000 0.000000 -1.000000
vn -0.000000 0.000000 -1.000000
vn -0.000000 0.000000 -1.000000
vn -0.000000 0.000000 -1.000000
vn -0.000000 0.000000 -1.000000
vn 1.000000 0.000000 0.000000
vn 1.000000 0.000000 0.000000
vn 1.000000 0.000000 0.000000
vn 1.000000 0.000000 0.000000
vn 1.000000 0.000000 0.000000
vn 1.000000 0.000000 0.000000
vn -0.000000 -1.000000 0.000000
vn -0.000000 -1.000000 0.000000
vn -0.000000 -1.000000 0.000000
vn -0.000000 -1.000000 0.000000
vn -0.000000 -1.000000 0.000000
vn -0.000000 -1.000000 0.000000
vn -1.000000 0.000000 0.000000
vn -1.000000 0.000000 0.000000
vn -1.000000 0.000000 0.000000
vn -1.000000 0.000000 0.000000
vn -1.000000 0.000000 0.000000
vn -1.000000 0.000000 0.000000
vn -0.000000 0.000000 1.000000
vn -0.000000 0.000000 1.000000
vn -0.000000 0.000000 1.000000
vn -0.000000 0.000000 1.000000
vn -0.000000 0.000000 1.000000
vn -0.000000 0.000000 1.000000
vn -0.000000 0.000000 -1.000000
vn -0.000000 0.000000 -1.000000
vn -0.000000 0.000000 -1.000000
vn -0.000000 0.000000 -1.000000
vn -0.000000 0.000000 -1.000000
vn -0.000000 0.000000 -1.000000
vn -0.000000 1.000000 0.000000
vn -0.000000 1.000000 0.000000
vn -0.000000 1.000000 0.000000
vn -0.000000 1.000000 0.000000
vn -0.000000 1.000000 0.000000
vn -0.000000 1.000000 0.000000
vn -0.000000 -1.000000 0.000000
vn -0.000000 -1.000000 0.000000
vn -0.000000 -1.000000 0.000000
vn -0.000000 -1.000000 0.000000
vn -0.000000 -1.000000 0.000000
vn -0.000000 -1.000000 0.000000
vn -0.000000 0.000000 1.000000
vn -0.000000 0.000000 1.000000
vn -0.000000 0.000000 1.000000
vn -0.000000 0.000000 1.000000
vn -0.000000 0.000000 1.000000
vn -0.000000 0.000000 1.000000

g Material
f 3/1/1 1/2/2 2/3/3
f 4/4/4 1/5/5 3/6/6
f 7/7/7 5/8/8 6/9/9
f 8/10/10 5/11/11 7/12/12
f 11/13/13 9/14/14 10/15/15
f 12/16/16 9/17/17 11/18/18
f 15/19/19 13/20/20 14/21/21
f 16/22/22 13/23/23 15/24/24
f 19/25/25 17/26/26 18/27/27
f 20/28/28 17/29/29 19/30/30
f 23/31/31 21/32/32 22/33/33
f 24/34/34 21/35/35 23/36/36
f 27/37/37 25/38/38 26/39/39
f 28/40/40 25/41/41 27/42/42
f 31/43/43 29/44/44 30/45/45
f 32/46/46 29/47/47 31/48/48
f 35/49/49 33/50/50 34/51/51
f 36/52/52 33/53/53 35/54/54
f 39/55/55 37/56/56 38/57/57
f 40/58/58 37/59/59 39/60/60
f 43/61/61 41/62/62 42/63/63
f 44/64/64 41/65/65 43/66/66
f 47/67/67 45/68/68 46/69/69
f 48/70/70 45/71/71 47/72/72
f 51/73/73 49/74/74 50/75/75
f 52/76/76 49/77/77 51/78/78
f 55/79/79 53/80/80 54/81/81
f 56/82/82 53/83/83 55/84/84
f 59/85/85 57/86/86 58/87/87
f 60/88/88 57/89/89 59/90/90
f 63/91/91 61/92/92 62/93/93
f 64/94/94 61/95/95 63/96/96

