# Converted from B3D for Luanti (With Correct Normals)
# Object Name: multidecor_quadratic_cornice_4

v -1.000000 -0.637500 -0.062500
v -0.062500 -0.637500 0.062500
v -0.062500 -0.637500 -0.062500
v -1.000000 -0.637500 0.062500
v -0.062500 -0.637500 0.062500
v -1.000000 -0.637500 -0.062500
v -1.000000 -0.637500 0.062500
v -1.000000 -0.762500 -0.062500
v -1.000000 -0.762500 0.062500
v -1.000000 -0.637500 -0.062500
v -1.000000 -0.762500 -0.062500
v -1.000000 -0.637500 0.062500
v -0.062500 -0.637500 -0.062500
v -1.000000 -0.762500 -0.062500
v -1.000000 -0.637500 -0.062500
v -0.062500 -0.762500 -0.062500
v -1.000000 -0.762500 -0.062500
v -0.062500 -0.637500 -0.062500
v -1.000000 -0.762500 0.062500
v -0.062500 -0.762500 -0.062500
v -0.062500 -0.762500 0.062500
v -1.000000 -0.762500 -0.062500
v -0.062500 -0.762500 -0.062500
v -1.000000 -0.762500 0.062500
v -1.000000 -0.637500 0.062500
v -0.062500 -0.762500 0.062500
v -0.062500 -0.637500 0.062500
v -1.000000 -0.762500 0.062500
v -0.062500 -0.762500 0.062500
v -1.000000 -0.637500 0.062500
v 0.062500 -0.762500 -0.062500
v -0.062500 -0.762500 0.062500
v -0.062500 -0.762500 -0.062500
v 0.062500 -0.762500 0.062500
v -0.062500 -0.762500 0.062500
v 0.062500 -0.762500 -0.062500
v 0.062500 -0.637500 -0.062500
v 0.062500 -0.762500 0.062500
v 0.062500 -0.762500 -0.062500
v 0.062500 -0.637500 0.062500
v 0.062500 -0.762500 0.062500
v 0.062500 -0.637500 -0.062500
v 0.062500 -0.637500 0.062500
v -0.062500 -0.637500 -0.062500
v -0.062500 -0.637500 0.062500
v 0.062500 -0.637500 -0.062500
v -0.062500 -0.637500 -0.062500
v 0.062500 -0.637500 0.062500
v 0.062500 -0.762500 0.062500
v -0.062500 -0.637500 0.062500
v -0.062500 -0.762500 0.062500
v 0.062500 -0.637500 0.062500
v -0.062500 -0.637500 0.062500
v 0.062500 -0.762500 0.062500
v 0.062500 -0.762500 -1.000000
v 0.062500 -0.637500 -0.062500
v 0.062500 -0.762500 -0.062500
v 0.062500 -0.637500 -1.000000
v 0.062500 -0.637500 -0.062500
v 0.062500 -0.762500 -1.000000
v 0.062500 -0.637500 -1.000000
v -0.062500 -0.762500 -1.000000
v -0.062500 -0.637500 -1.000000
v 0.062500 -0.762500 -1.000000
v -0.062500 -0.762500 -1.000000
v 0.062500 -0.637500 -1.000000
v 0.062500 -0.637500 -1.000000
v -0.062500 -0.637500 -0.062500
v 0.062500 -0.637500 -0.062500
v -0.062500 -0.637500 -1.000000
v -0.062500 -0.637500 -0.062500
v 0.062500 -0.637500 -1.000000
v -0.062500 -0.637500 -1.000000
v -0.062500 -0.762500 -0.062500
v -0.062500 -0.637500 -0.062500
v -0.062500 -0.762500 -1.000000
v -0.062500 -0.762500 -0.062500
v -0.062500 -0.637500 -1.000000
v -0.062500 -0.762500 -1.000000
v 0.062500 -0.762500 -0.062500
v -0.062500 -0.762500 -0.062500
v 0.062500 -0.762500 -1.000000
v 0.062500 -0.762500 -0.062500
v -0.062500 -0.762500 -1.000000

vt 0.869046 0.043564
vt 0.456436 0.043564
vt 0.869046 0.000131
vt 0.456436 0.043564
vt 0.456436 0.000131
vt 0.869046 0.000131
vt 0.956174 0.912217
vt 0.912741 0.912217
vt 0.956174 0.868785
vt 0.912741 0.912217
vt 0.912741 0.868785
vt 0.956174 0.868785
vt 0.912741 0.868785
vt 0.912741 0.456175
vt 0.956174 0.868785
vt 0.912741 0.456175
vt 0.956174 0.456175
vt 0.956174 0.868785
vt 0.412741 0.456174
vt 0.000131 0.456174
vt 0.412741 0.412741
vt 0.000131 0.456174
vt 0.000131 0.412741
vt 0.412741 0.412741
vt 0.956436 0.412741
vt 0.956436 0.000131
vt 0.999869 0.412741
vt 0.956436 0.000131
vt 0.999869 0.000131
vt 0.999869 0.412741
vt 0.412741 0.412741
vt 0.456174 0.412741
vt 0.412741 0.456174
vt 0.456174 0.412741
vt 0.456174 0.456174
vt 0.412741 0.456174
vt 0.999869 0.499607
vt 0.956436 0.499607
vt 0.999869 0.456174
vt 0.956436 0.499607
vt 0.956436 0.456174
vt 0.999869 0.456174
vt 0.869046 0.000131
vt 0.912479 0.000131
vt 0.869046 0.043564
vt 0.912479 0.000131
vt 0.912479 0.043564
vt 0.869046 0.043564
vt 0.999869 0.412741
vt 0.999869 0.456174
vt 0.956436 0.412741
vt 0.999869 0.456174
vt 0.956436 0.456174
vt 0.956436 0.412741
vt 0.999869 0.499607
vt 0.999869 0.912217
vt 0.956436 0.499607
vt 0.999869 0.912217
vt 0.956436 0.912217
vt 0.956436 0.499607
vt 0.912741 0.043564
vt 0.912741 0.000131
vt 0.956174 0.043564
vt 0.912741 0.000131
vt 0.956174 0.000131
vt 0.956174 0.043564
vt 0.912479 0.043564
vt 0.912479 0.456174
vt 0.869046 0.043564
vt 0.912479 0.456174
vt 0.869046 0.456174
vt 0.869046 0.043564
vt 0.912741 0.456175
vt 0.912741 0.043564
vt 0.956174 0.456175
vt 0.912741 0.043564
vt 0.956174 0.043564
vt 0.956174 0.456175
vt 0.412741 0.412741
vt 0.412741 0.000131
vt 0.456174 0.412741
vt 0.412741 0.000131
vt 0.456174 0.000131
vt 0.456174 0.412741

vn -0.000000 1.000000 0.000000
vn -0.000000 1.000000 0.000000
vn -0.000000 1.000000 0.000000
vn 0.000000 1.000000 0.000000
vn 0.000000 1.000000 0.000000
vn 0.000000 1.000000 0.000000
vn -1.000000 0.000000 0.000000
vn -1.000000 0.000000 0.000000
vn -1.000000 0.000000 0.000000
vn -1.000000 0.000000 0.000000
vn -1.000000 0.000000 0.000000
vn -1.000000 0.000000 0.000000
vn -0.000000 0.000000 -1.000000
vn -0.000000 0.000000 -1.000000
vn -0.000000 0.000000 -1.000000
vn -0.000000 0.000000 -1.000000
vn -0.000000 0.000000 -1.000000
vn -0.000000 0.000000 -1.000000
vn 0.000000 -1.000000 0.000000
vn 0.000000 -1.000000 0.000000
vn 0.000000 -1.000000 0.000000
vn -0.000000 -1.000000 0.000000
vn -0.000000 -1.000000 0.000000
vn -0.000000 -1.000000 0.000000
vn 0.000000 0.000000 1.000000
vn 0.000000 0.000000 1.000000
vn 0.000000 0.000000 1.000000
vn 0.000000 0.000000 1.000000
vn 0.000000 0.000000 1.000000
vn 0.000000 0.000000 1.000000
vn -0.000000 -1.000000 0.000000
vn -0.000000 -1.000000 0.000000
vn -0.000000 -1.000000 0.000000
vn -0.000000 -1.000000 0.000000
vn -0.000000 -1.000000 0.000000
vn -0.000000 -1.000000 0.000000
vn 1.000000 0.000000 0.000000
vn 1.000000 0.000000 0.000000
vn 1.000000 0.000000 0.000000
vn 1.000000 0.000000 0.000000
vn 1.000000 0.000000 0.000000
vn 1.000000 0.000000 0.000000
vn -0.000000 1.000000 0.000000
vn -0.000000 1.000000 0.000000
vn -0.000000 1.000000 0.000000
vn -0.000000 1.000000 0.000000
vn -0.000000 1.000000 0.000000
vn -0.000000 1.000000 0.000000
vn -0.000000 0.000000 1.000000
vn -0.000000 0.000000 1.000000
vn -0.000000 0.000000 1.000000
vn -0.000000 0.000000 1.000000
vn -0.000000 0.000000 1.000000
vn -0.000000 0.000000 1.000000
vn 1.000000 0.000000 0.000000
vn 1.000000 0.000000 0.000000
vn 1.000000 0.000000 0.000000
vn 1.000000 0.000000 0.000000
vn 1.000000 0.000000 0.000000
vn 1.000000 0.000000 0.000000
vn -0.000000 0.000000 -1.000000
vn -0.000000 0.000000 -1.000000
vn -0.000000 0.000000 -1.000000
vn -0.000000 0.000000 -1.000000
vn -0.000000 0.000000 -1.000000
vn -0.000000 0.000000 -1.000000
vn -0.000000 1.000000 0.000000
vn -0.000000 1.000000 0.000000
vn -0.000000 1.000000 0.000000
vn -0.000000 1.000000 0.000000
vn -0.000000 1.000000 0.000000
vn -0.000000 1.000000 0.000000
vn -1.000000 0.000000 0.000000
vn -1.000000 0.000000 0.000000
vn -1.000000 0.000000 0.000000
vn -1.000000 0.000000 0.000000
vn -1.000000 0.000000 0.000000
vn -1.000000 0.000000 0.000000
vn -0.000000 -1.000000 0.000000
vn -0.000000 -1.000000 0.000000
vn -0.000000 -1.000000 0.000000
vn -0.000000 -1.000000 0.000000
vn -0.000000 -1.000000 0.000000
vn -0.000000 -1.000000 0.000000

g Material.001
f 3/1/1 1/2/2 2/3/3
f 6/4/4 4/5/5 5/6/6
f 9/7/7 7/8/8 8/9/9
f 12/10/10 10/11/11 11/12/12
f 15/13/13 13/14/14 14/15/15
f 18/16/16 16/17/17 17/18/18
f 21/19/19 19/20/20 20/21/21
f 24/22/22 22/23/23 23/24/24
f 27/25/25 25/26/26 26/27/27
f 30/28/28 28/29/29 29/30/30
f 33/31/31 31/32/32 32/33/33
f 36/34/34 34/35/35 35/36/36
f 39/37/37 37/38/38 38/39/39
f 42/40/40 40/41/41 41/42/42
f 45/43/43 43/44/44 44/45/45
f 48/46/46 46/47/47 47/48/48
f 51/49/49 49/50/50 50/51/51
f 54/52/52 52/53/53 53/54/54
f 57/55/55 55/56/56 56/57/57
f 60/58/58 58/59/59 59/60/60
f 63/61/61 61/62/62 62/63/63
f 66/64/64 64/65/65 65/66/66
f 69/67/67 67/68/68 68/69/69
f 72/70/70 70/71/71 71/72/72
f 75/73/73 73/74/74 74/75/75
f 78/76/76 76/77/77 77/78/78
f 81/79/79 79/80/80 80/81/81
f 84/82/82 82/83/83 83/84/84

