# Blender 4.0.2
# www.blender.org
mtllib multidecor_high_corrugated_gate.mtl
o Cylinder
v -0.829290 2.800000 -0.950000
v 0.729290 -0.650000 -0.950000
v -0.829290 -0.650000 -0.950000
v -0.729290 2.900000 -0.950000
v 0.829289 -0.550000 -0.950000
v 0.829289 2.900000 -0.950000
v 0.929289 -0.550000 -1.000000
v 0.929289 2.900000 -1.000000
v 0.929289 2.900000 -0.900000
v 0.929289 -0.550000 -0.900000
v 0.729290 -0.650000 -1.000000
v 0.829289 -0.650000 -1.000000
v 0.829289 -0.750000 -1.000000
v 0.729290 -0.750000 -1.000000
v -0.829290 -0.650000 -1.000000
v 0.729290 -0.650000 -1.000000
v 0.729290 -0.750000 -1.000000
v -0.829290 -0.750000 -1.000000
v 0.729290 -0.650000 -1.000000
v -0.829290 -0.650000 -1.000000
v -0.829290 -0.650000 -0.950000
v 0.729290 -0.650000 -0.950000
v 0.729290 -0.650000 -0.950000
v -0.829290 -0.650000 -0.950000
v -0.829290 -0.650000 -0.900000
v 0.729290 -0.650000 -0.900000
v -0.829289 0.933333 -0.879289
v 0.829289 0.933333 -0.879289
v 0.829289 1.266667 -0.879289
v -0.829289 1.266667 -0.879289
v 0.814645 1.266667 -0.914645
v 0.814645 0.933333 -0.914645
v -0.814645 0.933333 -0.914645
v -0.814645 1.266667 -0.914645
v -0.814645 0.933333 -0.914645
v 0.814645 0.933333 -0.914645
v 0.829289 0.933333 -0.879289
v -0.829289 0.933333 -0.879289
v -0.814645 1.266667 -0.914645
v -0.829289 1.266667 -0.879289
v 0.829289 1.266667 -0.879289
v 0.814645 1.266667 -0.914645
v -0.729290 2.900000 -1.000000
v -0.829290 2.900000 -1.000000
v -0.829290 3.000000 -1.000000
v -0.729290 3.000000 -1.000000
v 0.829289 2.900000 -1.000000
v -0.729290 2.900000 -1.000000
v -0.729290 3.000000 -1.000000
v 0.829289 3.000000 -1.000000
v -0.729290 3.000000 -0.900000
v -0.729290 3.000000 -1.000000
v -0.829290 3.000000 -1.000000
v -0.829290 3.000000 -0.900000
v 0.729290 -0.650000 -0.900000
v -0.829290 -0.650000 -0.900000
v -0.829290 -0.750000 -0.900000
v 0.729290 -0.750000 -0.900000
v -0.829290 2.800000 -1.000000
v -0.829290 2.800000 -0.950000
v -0.829290 -0.650000 -0.950000
v -0.829290 -0.650000 -1.000000
v -0.829290 -0.750000 -1.000000
v -0.829290 -0.750000 -0.900000
v -0.929290 -0.750000 -0.900000
v -0.929290 -0.750000 -1.000000
v -0.829290 3.000000 -1.000000
v -0.829290 2.900000 -1.000000
v -0.929290 2.900000 -1.000000
v -0.929290 3.000000 -1.000000
v -0.829290 2.800000 -0.950000
v -0.829290 2.800000 -0.900000
v -0.829290 -0.650000 -0.900000
v -0.829290 -0.650000 -0.950000
v -0.829290 -0.750000 -0.900000
v -0.829290 -0.650000 -0.900000
v -0.929290 -0.650000 -0.900000
v -0.929290 -0.750000 -0.900000
v -0.829290 3.000000 -0.900000
v -0.829290 3.000000 -1.000000
v -0.929290 3.000000 -1.000000
v -0.929290 3.000000 -0.900000
v -0.829290 2.900000 -0.900000
v -0.829290 3.000000 -0.900000
v -0.929290 3.000000 -0.900000
v -0.929290 2.900000 -0.900000
v -0.829290 2.800000 -0.900000
v -0.829290 2.900000 -0.900000
v -0.929290 2.900000 -0.900000
v -0.929290 2.800000 -0.900000
v -0.829290 -0.650000 -1.000000
v -0.829290 -0.750000 -1.000000
v -0.929290 -0.750000 -1.000000
v -0.929290 -0.650000 -1.000000
v -0.929290 2.900000 -1.000000
v -0.929290 2.900000 -0.900000
v -0.929290 3.000000 -0.900000
v -0.929290 3.000000 -1.000000
v -0.929290 2.800000 -1.000000
v -0.929290 2.800000 -0.900000
v -0.929290 2.900000 -0.900000
v -0.929290 2.900000 -1.000000
v -0.929290 -0.750000 -0.900000
v -0.929290 -0.650000 -0.900000
v -0.929290 -0.650000 -1.000000
v -0.929290 -0.750000 -1.000000
v 0.729290 -0.650000 -0.900000
v 0.829289 -0.650000 -0.900000
v 0.829289 -0.550000 -0.900000
v -0.729290 2.900000 -0.900000
v 0.829289 -0.550000 -0.900000
v 0.829289 -0.550000 -0.950000
v -0.729290 2.900000 -0.950000
v 0.829289 3.000000 -0.900000
v 0.829289 2.900000 -0.900000
v 0.929289 2.900000 -0.900000
v 0.929289 3.000000 -0.900000
v 0.829289 2.900000 -0.950000
v 0.829289 -0.550000 -0.950000
v 0.829289 -0.550000 -0.900000
v 0.829289 2.900000 -0.900000
v 0.829289 -0.750000 -1.000000
v 0.829289 -0.650000 -1.000000
v 0.929289 -0.650000 -1.000000
v 0.929289 -0.750000 -1.000000
v 0.829289 -0.750000 -0.900000
v 0.829289 -0.750000 -1.000000
v 0.929289 -0.750000 -1.000000
v 0.929289 -0.750000 -0.900000
v 0.829289 2.900000 -1.000000
v 0.829289 3.000000 -1.000000
v 0.929289 3.000000 -1.000000
v 0.929289 2.900000 -1.000000
v 0.829289 -0.650000 -0.900000
v 0.829289 -0.750000 -0.900000
v 0.929289 -0.750000 -0.900000
v 0.929289 -0.650000 -0.900000
v 0.829289 -0.550000 -0.900000
v 0.829289 -0.650000 -0.900000
v 0.929289 -0.650000 -0.900000
v 0.929289 -0.550000 -0.900000
v 0.829289 3.000000 -1.000000
v 0.829289 3.000000 -0.900000
v 0.929289 3.000000 -0.900000
v 0.929289 3.000000 -1.000000
v 0.929289 3.000000 -1.000000
v 0.929289 3.000000 -0.900000
v 0.929289 2.900000 -0.900000
v 0.929289 2.900000 -1.000000
v 0.829289 2.900000 -0.900000
v 0.829289 -0.550000 -0.900000
v 0.929289 -0.550000 -0.900000
v 0.929289 2.900000 -0.900000
v 0.929289 -0.750000 -0.900000
v 0.929289 -0.750000 -1.000000
v 0.929289 -0.650000 -1.000000
v 0.929289 -0.650000 -0.900000
v 0.929289 -0.650000 -1.000000
v 0.929289 -0.550000 -1.000000
v 0.929289 -0.550000 -0.900000
v 0.929289 -0.650000 -0.900000
v 0.829289 -0.550000 -1.000000
v 0.829289 2.900000 -1.000000
v 0.929289 2.900000 -1.000000
v 0.929289 -0.550000 -1.000000
v 0.829289 -0.650000 -1.000000
v 0.829289 -0.550000 -1.000000
v 0.929289 -0.550000 -1.000000
v 0.929289 -0.650000 -1.000000
v 0.829289 2.900000 -1.000000
v 0.829289 -0.550000 -1.000000
v 0.829289 -0.550000 -0.950000
v 0.829289 2.900000 -0.950000
v 0.829289 3.000000 -1.000000
v -0.729290 3.000000 -1.000000
v -0.729290 3.000000 -0.900000
v 0.829289 3.000000 -0.900000
v -0.829290 -0.650000 -0.900000
v -0.829290 2.800000 -0.900000
v -0.929290 2.800000 -0.900000
v -0.929290 -0.650000 -0.900000
v -0.829290 2.800000 -1.000000
v -0.829290 -0.650000 -1.000000
v -0.929290 -0.650000 -1.000000
v -0.929290 2.800000 -1.000000
v -0.829290 2.900000 -1.000000
v -0.829290 2.800000 -1.000000
v -0.929290 2.800000 -1.000000
v -0.929290 2.900000 -1.000000
v 0.729290 -0.650000 -1.000000
v 0.729290 -0.650000 -0.950000
v -0.829290 2.800000 -0.950000
v -0.829290 2.800000 -1.000000
v -0.829290 2.800000 -0.950000
v 0.729290 -0.650000 -0.950000
v 0.729290 -0.650000 -0.900000
v -0.829290 2.800000 -0.900000
v 0.829289 -0.650000 -0.900000
v 0.729290 -0.650000 -0.900000
v 0.729290 -0.750000 -0.900000
v 0.829289 -0.750000 -0.900000
v -0.729290 2.900000 -0.950000
v 0.829289 -0.550000 -0.950000
v 0.829289 -0.550000 -1.000000
v -0.729290 2.900000 -1.000000
v 0.829289 -0.550000 -1.000000
v -0.829290 2.800000 -1.000000
v -0.729290 2.900000 -1.000000
v 0.729290 -0.750000 -1.000000
v 0.729290 -0.750000 -0.900000
v -0.829290 -0.750000 -0.900000
v -0.829290 -0.750000 -1.000000
v 0.829289 -0.750000 -1.000000
v 0.829289 -0.750000 -0.900000
v 0.729290 -0.750000 -0.900000
v 0.729290 -0.750000 -1.000000
v -0.729290 2.900000 -0.900000
v 0.829289 2.900000 -0.900000
v 0.829289 3.000000 -0.900000
v -0.729290 3.000000 -0.900000
v -0.829290 2.900000 -0.900000
v -0.729290 2.900000 -0.900000
v -0.729290 3.000000 -0.900000
v -0.829290 3.000000 -0.900000
v 0.829289 2.900000 -0.950000
v -0.729290 2.900000 -0.950000
v -0.729290 2.900000 -1.000000
v 0.829289 2.900000 -1.000000
v 0.829289 2.900000 -0.900000
v -0.729290 2.900000 -0.900000
v -0.729290 2.900000 -0.950000
v 0.829289 2.900000 -0.950000
v -0.929290 -0.650000 -0.900000
v -0.929290 2.800000 -0.900000
v -0.929290 2.800000 -1.000000
v -0.929290 -0.650000 -1.000000
v 0.929289 2.513169 -0.900000
v 1.000000 2.513169 -0.900000
v 1.000000 2.713169 -0.900000
v 0.929289 2.713169 -0.900000
v 0.929289 2.713169 -0.900000
v 1.000000 2.713169 -0.900000
v 1.000000 2.713169 -1.000000
v 0.929289 2.713169 -1.000000
v 0.929289 2.713169 -1.000000
v 1.000000 2.713169 -1.000000
v 1.000000 2.513169 -1.000000
v 0.929289 2.513169 -1.000000
v 0.929289 2.513169 -1.000000
v 1.000000 2.513169 -1.000000
v 1.000000 2.513169 -0.900000
v 0.929289 2.513169 -0.900000
v 1.000000 2.713169 -1.000000
v 1.000000 2.713169 -0.900000
v 1.000000 2.513169 -0.900000
v 1.000000 2.513169 -1.000000
v 0.929289 -0.163169 -0.900000
v 1.000000 -0.163169 -0.900000
v 1.000000 -0.363169 -0.900000
v 0.929289 -0.363169 -0.900000
v 0.929289 -0.363169 -0.900000
v 1.000000 -0.363169 -0.900000
v 1.000000 -0.363169 -1.000000
v 0.929289 -0.363169 -1.000000
v 0.929289 -0.363169 -1.000000
v 1.000000 -0.363169 -1.000000
v 1.000000 -0.163169 -1.000000
v 0.929289 -0.163169 -1.000000
v 0.929289 -0.163169 -1.000000
v 1.000000 -0.163169 -1.000000
v 1.000000 -0.163169 -0.900000
v 0.929289 -0.163169 -0.900000
v 1.000000 -0.363169 -1.000000
v 1.000000 -0.363169 -0.900000
v 1.000000 -0.163169 -0.900000
v 1.000000 -0.163169 -1.000000
v -0.914290 1.345495 -1.000000
v -0.914290 1.345495 -1.132842
v -0.844290 1.345495 -1.132842
v -0.844290 1.345495 -1.000000
v -0.844290 1.345495 -1.000000
v -0.844290 1.345495 -1.132842
v -0.844290 1.405495 -1.132842
v -0.844290 1.405495 -1.000000
v -0.844290 1.405495 -1.000000
v -0.844290 1.405495 -1.132842
v -0.914290 1.405495 -1.132842
v -0.914290 1.405495 -1.000000
v -0.914290 1.405495 -1.000000
v -0.914290 1.405495 -1.132842
v -0.914290 1.345495 -1.132842
v -0.914290 1.345495 -1.000000
v -0.844290 0.796390 -1.000000
v -0.844290 0.796390 -1.132842
v -0.914290 0.796390 -1.132842
v -0.914290 0.796390 -1.000000
v -0.844290 1.405495 -1.132842
v -0.844290 1.345495 -1.132842
v -0.914290 1.345495 -1.132842
v -0.914290 1.405495 -1.132842
v -0.914290 1.345495 -1.132842
v -0.914290 1.100943 -1.132842
v -0.914290 1.100943 -1.082842
v -0.914290 1.345495 -1.082842
v -0.914290 1.345495 -1.082842
v -0.914290 1.100943 -1.082842
v -0.844290 1.100943 -1.082842
v -0.844290 1.345495 -1.082842
v -0.844290 1.345495 -1.082842
v -0.844290 1.100943 -1.082842
v -0.844290 1.100943 -1.132842
v -0.844290 1.345495 -1.132842
v -0.844290 1.345495 -1.132842
v -0.844290 1.100943 -1.132842
v -0.914290 1.100943 -1.132842
v -0.914290 1.345495 -1.132842
v -0.844290 0.856390 -1.000000
v -0.844290 0.856390 -1.132842
v -0.844290 0.796390 -1.132842
v -0.844290 0.796390 -1.000000
v -0.914290 0.856390 -1.000000
v -0.914290 0.856390 -1.132842
v -0.844290 0.856390 -1.132842
v -0.844290 0.856390 -1.000000
v -0.914290 0.796390 -1.000000
v -0.914290 0.796390 -1.132842
v -0.914290 0.856390 -1.132842
v -0.914290 0.856390 -1.000000
v -0.844290 0.796390 -1.132842
v -0.844290 0.856390 -1.132842
v -0.914290 0.856390 -1.132842
v -0.914290 0.796390 -1.132842
v -0.914290 0.856390 -1.132842
v -0.914290 1.100943 -1.132842
v -0.914290 1.100943 -1.082842
v -0.914290 0.856390 -1.082842
v -0.914290 0.856390 -1.082842
v -0.914290 1.100943 -1.082842
v -0.844290 1.100943 -1.082842
v -0.844290 0.856390 -1.082842
v -0.844290 0.856390 -1.082842
v -0.844290 1.100943 -1.082842
v -0.844290 1.100943 -1.132842
v -0.844290 0.856390 -1.132842
v -0.844290 0.856390 -1.132842
v -0.844290 1.100943 -1.132842
v -0.914290 1.100943 -1.132842
v -0.914290 0.856390 -1.132842
v 0.829289 -0.550000 -0.900000
v -0.729290 2.900000 -0.900000
v -0.829290 2.800000 -0.900000
v -0.729290 2.900000 -0.900000
v -0.829290 2.900000 -0.900000
v -0.829290 2.800000 -0.900000
v -0.829290 2.800000 -0.900000
v 0.729290 -0.650000 -0.900000
v 0.829289 -0.550000 -0.900000
v 0.829289 -0.550000 -1.000000
v 0.829289 -0.650000 -1.000000
v 0.729290 -0.650000 -1.000000
v 0.729290 -0.650000 -1.000000
v -0.829290 2.800000 -1.000000
v 0.829289 -0.550000 -1.000000
v -0.829290 2.800000 -1.000000
v -0.829290 2.900000 -1.000000
v -0.729290 2.900000 -1.000000
vn -0.0000 -0.0000 -1.0000
vn -0.0000 -0.0000 1.0000
vn 1.0000 -0.0000 -0.0000
vn -0.0000 1.0000 -0.0000
vn -0.0000 -1.0000 -0.0000
vn -1.0000 -0.0000 -0.0000
vn 0.9113 0.4117 -0.0000
vn -0.9113 -0.4117 -0.0000
vt 0.308769 -0.103450
vt 1.149633 0.737415
vt -0.071102 0.276421
vt 1.503186 1.090968
vt 1.123316 1.470839
vt 0.662322 0.250104
vt 0.353893 -0.508439
vt 0.328461 0.368979
vt 0.328460 -0.508439
vt 0.353894 0.368979
vt 0.000209 0.486028
vt 0.025642 0.511460
vt 0.000209 0.511460
vt 0.025642 0.486028
vt 0.422028 0.511460
vt 0.422028 0.486028
vt 0.422028 0.524176
vt 0.025642 0.524177
vt 0.422028 0.435163
vt 0.025642 0.422446
vt 0.422028 0.422446
vt 0.025642 0.435163
vt -0.022622 0.844264
vt 0.002811 0.818831
vt 0.002811 0.844265
vt -0.022622 0.818831
vt -0.022620 0.818833
vt 0.002812 0.422446
vt 0.002812 0.818832
vt -0.022620 0.422447
vt 0.486028 0.844265
vt 0.460596 0.818832
vt 0.486028 0.818832
vt 0.460596 0.844265
vt 0.422028 0.460595
vt 0.025642 0.460595
vt 0.289893 0.394412
vt 0.277177 -0.483006
vt 0.289893 -0.483006
vt 0.277177 0.394412
vt 0.417894 0.163815
vt 0.392461 0.189248
vt 0.392461 0.163815
vt 0.417894 0.189248
vt 0.901111 0.342680
vt 0.926543 0.368112
vt 0.901111 0.368112
vt 0.926543 0.342679
vt 0.200878 0.394412
vt 0.188164 -0.483006
vt 0.200880 -0.483006
vt 0.188162 0.394412
vt 0.443326 0.163815
vt 0.417894 0.138382
vt 0.443326 0.138382
vt 0.417894 0.342680
vt 0.443326 0.317248
vt 0.443326 0.342680
vt 0.417894 0.317248
vt 0.926544 0.317248
vt 0.901111 0.291815
vt 0.926544 0.291815
vt 0.901111 0.317248
vt 0.226310 -0.508440
vt 0.200878 -0.483008
vt 0.200878 -0.508440
vt 0.226311 -0.483008
vt 0.443326 0.214680
vt 0.417894 0.214680
vt 0.443326 0.189248
vt 0.926544 0.317247
vt 0.901112 0.342680
vt 0.901112 0.317247
vt 0.926544 0.342680
vt 0.226312 -0.508441
vt 0.251744 -0.483009
vt 0.226312 -0.483009
vt 0.251744 -0.508441
vt 0.635050 0.439769
vt 0.599107 0.441067
vt 0.616430 0.422446
vt 0.647767 0.439769
vt 0.635050 1.327635
vt 0.647766 1.327635
vt 0.901112 0.112531
vt 0.926543 0.137964
vt 0.901112 0.137964
vt 0.926544 0.112531
vt 0.379326 0.368979
vt 0.392042 -0.508439
vt 0.392042 0.368979
vt 0.379326 -0.508439
vt 0.443326 0.240531
vt 0.417894 0.215099
vt 0.443326 0.215099
vt 0.417894 0.240531
vt 0.392461 0.265964
vt 0.392461 0.240531
vt 0.417894 0.265964
vt 0.926544 0.087099
vt 0.901112 0.061666
vt 0.926544 0.061666
vt 0.901111 0.087099
vt 0.443326 0.291396
vt 0.417894 0.291396
vt 0.443326 0.265964
vt 0.353894 0.394412
vt 0.379326 0.394412
vt 0.417894 0.112531
vt 0.443326 0.087099
vt 0.443326 0.112531
vt 0.417894 0.087099
vt 0.901112 0.112531
vt 0.926544 0.087099
vt 0.926544 0.112531
vt 0.901112 0.087099
vt 0.379325 -0.508439
vt 0.353893 -0.508439
vt 0.328461 0.394412
vt 0.328461 -0.508438
vt 0.303028 0.368979
vt 0.303028 -0.508438
vt 0.303028 0.394412
vt 0.290312 0.368979
vt 0.303028 -0.508439
vt 0.290312 -0.508439
vt 0.486028 0.422446
vt 0.460596 0.422446
vt 0.226312 -0.483006
vt 0.200880 -0.483006
vt 0.226311 0.394412
vt 0.251744 0.394412
vt 0.277177 -0.483006
vt 0.251744 -0.483006
vt 0.251744 -0.483011
vt 0.277177 -0.508444
vt 0.277177 -0.483011
vt 0.251744 -0.508444
vt 0.585972 1.328932
vt 0.573255 0.441066
vt 0.585972 0.441067
vt 0.573255 1.328932
vt 0.586390 1.328932
vt 0.586391 0.441066
vt 0.599107 1.328932
vt 0.000209 0.435163
vt 0.000209 0.460595
vt 0.537312 0.439769
vt 0.524595 1.327635
vt 0.524596 0.439769
vt 0.537312 1.327635
vt 0.164906 1.327635
vt 0.200849 1.328932
vt 0.969244 0.422446
vt 0.943811 0.818832
vt 0.943811 0.422446
vt 0.969244 0.818832
vt 0.969243 0.818831
vt 0.943810 0.844265
vt 0.943810 0.818833
vt 0.969243 0.844266
vt 0.511461 0.818832
vt 0.524177 0.422446
vt 0.524177 0.818832
vt 0.511460 0.422446
vt 0.422447 0.818832
vt 0.435163 0.422446
vt 0.435163 0.818832
vt 0.422446 0.422446
vt 0.251744 -0.483006
vt 0.226312 -0.483006
vt 0.231997 -0.113821
vt 0.249980 -0.062957
vt 0.231997 -0.062957
vt 0.249980 -0.113821
vt 0.374059 0.394831
vt 0.392042 0.420263
vt 0.374059 0.420263
vt 0.392042 0.394831
vt 0.286785 -0.062954
vt 0.268801 -0.113820
vt 0.286785 -0.113820
vt 0.268801 -0.062954
vt 0.206146 0.420263
vt 0.188162 0.394831
vt 0.206146 0.394831
vt 0.188162 0.420263
vt 0.689363 0.420263
vt 0.740229 0.394831
vt 0.740229 0.420263
vt 0.689363 0.394830
vt 0.355238 0.394831
vt 0.304373 0.412814
vt 0.304373 0.394831
vt 0.355238 0.412814
vt 0.250399 0.394831
vt 0.268382 0.420263
vt 0.250399 0.420263
vt 0.268382 0.394831
vt 0.373640 0.445696
vt 0.355657 0.394831
vt 0.373640 0.394831
vt 0.355657 0.445696
vt 0.417894 0.393964
vt 0.392461 0.411947
vt 0.392461 0.393964
vt 0.417894 0.411947
vt 0.417894 0.419397
vt 0.392461 0.368531
vt 0.417894 0.368531
vt 0.392461 0.419397
vt 0.971512 1.328932
vt 1.007455 1.327635
vt 0.990133 1.346256
vt 0.555933 0.422446
vt 0.182229 1.346256
vt 0.442068 0.000210
vt 0.357293 0.422028
vt 0.357293 0.000210
vt 0.442068 0.422028
vt -0.160349 0.418303
vt -0.245124 0.003934
vt -0.160349 0.003934
vt -0.245124 0.418303
vt 0.102968 0.000210
vt 0.093976 0.418303
vt 0.093976 0.003934
vt 0.102968 0.422028
vt 0.000209 0.000209
vt 0.009201 0.418303
vt 0.000209 0.422027
vt 0.009202 0.003934
vt 0.120074 0.480154
vt 0.385607 0.620074
vt 0.120074 0.620074
vt 0.385607 0.480154
vt 0.120074 0.680040
vt 0.385607 0.799971
vt 0.120074 0.799971
vt 0.385607 0.680040
vt 0.120074 0.740006
vt 0.385607 0.879926
vt 0.120074 0.879926
vt 0.385607 0.740006
vt 0.120074 0.819960
vt 0.385607 0.939892
vt 0.120074 0.939892
vt 0.385607 0.819960
vt 0.698240 0.259994
vt 0.963774 0.399915
vt 0.698240 0.399915
vt 0.963774 0.259994
vt 0.200029 0.740006
vt 0.319960 0.879926
vt 0.200029 0.879926
vt 0.319960 0.740005
vt 0.289083 0.240006
vt -0.199743 0.339949
vt 0.289083 0.339949
vt -0.199744 0.240006
vt 0.289083 0.100085
vt -0.199744 0.240006
vt -0.199744 0.100085
vt 0.289083 0.000142
vt -0.199744 0.100085
vt -0.199743 0.000142
vt -0.199743 0.479869
vt 0.289083 0.479869
vt -0.199743 0.339949
vt 0.698241 0.200028
vt 0.963774 0.319960
vt 0.698241 0.319960
vt 0.963774 0.200028
vt 0.698241 0.000142
vt 0.963774 0.140063
vt 0.698241 0.140063
vt 0.963774 0.000142
vt 0.698241 0.339949
vt 0.963774 0.459881
vt 0.698240 0.459881
vt 0.963774 0.339949
vt 0.778195 0.259994
vt 0.898127 0.399915
vt 0.778195 0.399915
vt 0.898127 0.259994
vt 0.777910 0.339949
vt 0.777909 0.240006
vt 0.777909 0.240006
vt 0.777909 0.100085
vt 0.777909 0.100085
vt 0.777910 0.000143
vt 0.777910 0.479869
vt 0.777910 0.339948
s 0
usemtl Material.168
f 3/1/1 1/2/1 2/3/1
f 6/4/2 4/5/2 5/6/2
usemtl Material.169
f 9/7/3 7/8/3 8/9/3
f 10/10/3 7/8/3 9/7/3
f 13/11/1 11/12/1 12/13/1
f 14/14/1 11/12/1 13/11/1
f 17/14/1 15/15/1 16/12/1
f 18/16/1 15/15/1 17/14/1
f 21/17/4 19/12/4 20/15/4
f 22/18/4 19/12/4 21/17/4
f 25/19/4 23/20/4 24/21/4
f 26/22/4 23/20/4 25/19/4
f 45/23/1 43/24/1 44/25/1
f 46/26/1 43/24/1 45/23/1
f 49/27/1 47/28/1 48/29/1
f 50/30/1 47/28/1 49/27/1
f 53/31/4 51/32/4 52/33/4
f 54/34/4 51/32/4 53/31/4
f 57/35/2 55/22/2 56/19/2
f 58/36/2 55/22/2 57/35/2
f 61/37/3 59/38/3 60/39/3
f 62/40/3 59/38/3 61/37/3
f 65/41/5 63/42/5 64/43/5
f 66/44/5 63/42/5 65/41/5
f 69/45/1 67/46/1 68/47/1
f 70/48/1 67/46/1 69/45/1
f 73/49/3 71/50/3 72/51/3
f 74/52/3 71/50/3 73/49/3
f 77/53/2 75/54/2 76/55/2
f 78/41/2 75/54/2 77/53/2
f 81/56/4 79/57/4 80/58/4
f 82/59/4 79/57/4 81/56/4
f 85/60/2 83/61/2 84/62/2
f 86/63/2 83/61/2 85/60/2
f 89/64/2 87/65/2 88/66/2
f 90/67/2 87/65/2 89/64/2
f 93/44/1 91/68/1 92/69/1
f 94/70/1 91/68/1 93/44/1
f 97/71/6 95/72/6 96/73/6
f 98/74/6 95/72/6 97/71/6
f 101/75/6 99/76/6 100/77/6
f 102/78/6 99/76/6 101/75/6
f 105/70/6 103/41/6 104/53/6
f 106/44/6 103/41/6 105/70/6
f 109/79/2 107/80/2 108/81/2
f 112/82/7 110/83/7 111/79/7
f 113/84/7 110/83/7 112/82/7
f 116/85/2 114/86/2 115/87/2
f 117/88/2 114/86/2 116/85/2
f 120/89/6 118/90/6 119/91/6
f 121/92/6 118/90/6 120/89/6
f 124/93/1 122/94/1 123/95/1
f 125/96/1 122/94/1 124/93/1
f 128/96/5 126/97/5 127/98/5
f 129/99/5 126/97/5 128/96/5
f 132/100/1 130/101/1 131/102/1
f 133/103/1 130/101/1 132/100/1
f 136/99/2 134/104/2 135/105/2
f 137/106/2 134/104/2 136/99/2
f 140/107/2 138/89/2 139/108/2
f 141/10/2 138/89/2 140/107/2
f 144/109/4 142/110/4 143/111/4
f 145/112/4 142/110/4 144/109/4
f 148/113/3 146/114/3 147/115/3
f 149/116/3 146/114/3 148/113/3
f 152/10/2 150/117/2 151/89/2
f 153/118/2 150/117/2 152/10/2
f 156/93/3 154/99/3 155/96/3
f 157/106/3 154/99/3 156/93/3
f 160/10/3 158/119/3 159/8/3
f 161/107/3 158/119/3 160/10/3
f 164/120/1 162/121/1 163/122/1
f 165/8/1 162/121/1 164/120/1
f 168/8/1 166/123/1 167/121/1
f 169/119/1 166/123/1 168/8/1
f 172/124/6 170/125/6 171/121/6
f 173/126/6 170/125/6 172/124/6
f 176/32/4 174/127/4 175/33/4
f 177/128/4 174/127/4 176/32/4
f 180/129/2 178/49/2 179/130/2
f 181/131/2 178/49/2 180/129/2
f 184/132/1 182/133/1 183/40/1
f 185/134/1 182/133/1 184/132/1
f 188/135/1 186/136/1 187/137/1
f 189/138/1 186/136/1 188/135/1
f 192/139/8 190/140/8 191/141/8
f 193/142/8 190/140/8 192/139/8
f 196/80/8 194/143/8 195/144/8
f 197/145/8 194/143/8 196/80/8
f 200/36/2 198/146/2 199/22/2
f 201/147/2 198/146/2 200/36/2
f 204/148/7 202/149/7 203/150/7
f 205/151/7 202/149/7 204/148/7
f 208/152/1 206/148/1 207/153/1
f 211/35/5 209/14/5 210/36/5
f 212/16/5 209/14/5 211/35/5
f 215/36/5 213/11/5 214/147/5
f 216/14/5 213/11/5 215/36/5
f 219/154/2 217/155/2 218/156/2
f 220/157/2 217/155/2 219/154/2
f 223/158/2 221/159/2 222/160/2
f 224/161/2 221/159/2 223/158/2
f 227/162/5 225/163/5 226/164/5
f 228/165/5 225/163/5 227/162/5
f 231/166/5 229/167/5 230/168/5
f 232/169/5 229/167/5 231/166/5
f 235/170/6 233/131/6 234/171/6
f 236/132/6 233/131/6 235/170/6
f 239/172/2 237/173/2 238/174/2
f 240/175/2 237/173/2 239/172/2
f 243/176/4 241/177/4 242/178/4
f 244/179/4 241/177/4 243/176/4
f 247/180/1 245/181/1 246/182/1
f 248/183/1 245/181/1 247/180/1
f 251/184/5 249/185/5 250/186/5
f 252/187/5 249/185/5 251/184/5
f 255/188/3 253/189/3 254/190/3
f 256/191/3 253/189/3 255/188/3
f 259/192/1 257/193/1 258/194/1
f 260/195/1 257/193/1 259/192/1
f 263/196/4 261/197/4 262/198/4
f 264/199/4 261/197/4 263/196/4
f 267/200/2 265/201/2 266/202/2
f 268/203/2 265/201/2 267/200/2
f 271/204/5 269/205/5 270/206/5
f 272/207/5 269/205/5 271/204/5
f 275/208/6 273/209/6 274/210/6
f 276/211/6 273/209/6 275/208/6
f 351/212/2 349/79/2 350/213/2
f 354/212/2 352/213/2 353/214/2
f 357/79/2 355/212/2 356/80/2
f 360/140/1 358/148/1 359/215/1
f 363/148/1 361/140/1 362/153/1
f 366/152/1 364/153/1 365/216/1
usemtl Material.170
f 29/217/2 27/218/2 28/219/2
f 30/220/2 27/218/2 29/217/2
f 33/221/1 31/222/1 32/223/1
f 34/224/1 31/222/1 33/221/1
f 37/225/5 35/226/5 36/227/5
f 38/228/5 35/226/5 37/225/5
f 41/229/4 39/230/4 40/231/4
f 42/232/4 39/230/4 41/229/4
usemtl Material.171
f 279/233/5 277/234/5 278/235/5
f 280/236/5 277/234/5 279/233/5
f 283/237/3 281/238/3 282/239/3
f 284/240/3 281/238/3 283/237/3
f 287/241/4 285/242/4 286/243/4
f 288/244/4 285/242/4 287/241/4
f 291/245/6 289/246/6 290/247/6
f 292/248/6 289/246/6 291/245/6
f 295/249/4 293/250/4 294/251/4
f 296/252/4 293/250/4 295/249/4
f 299/253/1 297/254/1 298/255/1
f 300/256/1 297/254/1 299/253/1
f 303/257/6 301/258/6 302/259/6
f 304/260/6 301/258/6 303/257/6
f 307/261/2 305/262/2 306/257/2
f 308/263/2 305/262/2 307/261/2
f 311/264/3 309/265/3 310/261/3
f 312/266/3 309/265/3 311/264/3
f 315/259/1 313/267/1 314/268/1
f 316/269/1 313/267/1 315/259/1
f 319/270/6 317/271/6 318/272/6
f 320/273/6 317/271/6 319/270/6
f 323/274/5 321/275/5 322/276/5
f 324/277/5 321/275/5 323/274/5
f 327/278/3 325/279/3 326/280/3
f 328/281/3 325/279/3 327/278/3
f 331/282/2 329/283/2 330/284/2
f 332/285/2 329/283/2 331/282/2
f 335/257/3 333/286/3 334/259/3
f 336/287/3 333/286/3 335/257/3
f 339/261/1 337/288/1 338/257/1
f 340/289/1 337/288/1 339/261/1
f 343/264/6 341/290/6 342/261/6
f 344/291/6 341/290/6 343/264/6
f 347/259/2 345/292/2 346/268/2
f 348/293/2 345/292/2 347/259/2
