# Converted from B3D for Luanti (With Correct Normals)
# Object Name: multidecor_quadratic_cornice_2

v 1.000000 -0.635355 0.064645
v -0.850000 -0.635355 -0.064645
v -0.850000 -0.635355 0.064645
v 1.000000 -0.635355 -0.064645
v -0.850000 -0.635355 -0.064645
v 1.000000 -0.635355 0.064645
v 1.000000 -0.635355 -0.064645
v 1.000000 -0.764645 0.064645
v 1.000000 -0.764645 -0.064645
v 1.000000 -0.635355 0.064645
v 1.000000 -0.764645 0.064645
v 1.000000 -0.635355 -0.064645
v -0.850000 -0.635355 0.064645
v 1.000000 -0.764645 0.064645
v 1.000000 -0.635355 0.064645
v -0.850000 -0.764645 0.064645
v 1.000000 -0.764645 0.064645
v -0.850000 -0.635355 0.064645
v 1.000000 -0.764645 -0.064645
v -0.850000 -0.764645 0.064645
v -0.850000 -0.764645 -0.064645
v 1.000000 -0.764645 0.064645
v -0.850000 -0.764645 0.064645
v 1.000000 -0.764645 -0.064645
v 1.000000 -0.635355 -0.064645
v -0.850000 -0.764645 -0.064645
v -0.850000 -0.635355 -0.064645
v 1.000000 -0.764645 -0.064645
v -0.850000 -0.764645 -0.064645
v 1.000000 -0.635355 -0.064645
v -0.850000 -0.635355 0.064645
v -0.850000 -0.764645 -0.064645
v -0.850000 -0.764645 0.064645
v -0.850000 -0.635355 -0.064645
v -0.850000 -0.764645 -0.064645
v -0.850000 -0.635355 0.064645
v -0.850000 -0.500000 -0.200000
v -0.850000 -0.900000 0.200000
v -0.850000 -0.900000 -0.200000
v -0.850000 -0.500000 0.200000
v -0.850000 -0.900000 0.200000
v -0.850000 -0.500000 -0.200000
v -1.000000 -0.500000 -0.200000
v -1.000000 -0.900000 0.200000
v -1.000000 -0.500000 0.200000
v -1.000000 -0.900000 -0.200000
v -1.000000 -0.900000 0.200000
v -1.000000 -0.500000 -0.200000
v -1.000000 -0.500000 0.200000
v -0.850000 -0.900000 0.200000
v -0.850000 -0.500000 0.200000
v -1.000000 -0.900000 0.200000
v -0.850000 -0.900000 0.200000
v -1.000000 -0.500000 0.200000
v -1.000000 -0.900000 0.200000
v -0.850000 -0.900000 -0.200000
v -0.850000 -0.900000 0.200000
v -1.000000 -0.900000 -0.200000
v -0.850000 -0.900000 -0.200000
v -1.000000 -0.900000 0.200000
v -1.000000 -0.500000 -0.200000
v -0.850000 -0.500000 0.200000
v -0.850000 -0.500000 -0.200000
v -1.000000 -0.500000 0.200000
v -0.850000 -0.500000 0.200000
v -1.000000 -0.500000 -0.200000
v -1.000000 -0.900000 -0.200000
v -0.850000 -0.500000 -0.200000
v -0.850000 -0.900000 -0.200000
v -1.000000 -0.500000 -0.200000
v -0.850000 -0.500000 -0.200000
v -1.000000 -0.900000 -0.200000

vt 0.364157 0.095356
vt 0.364157 0.904644
vt 0.302609 0.095356
vt 0.364157 0.904644
vt 0.302608 0.904644
vt 0.302609 0.095356
vt 0.207398 0.921475
vt 0.268946 0.921475
vt 0.207398 0.983024
vt 0.268946 0.921475
vt 0.268946 0.983024
vt 0.207398 0.983024
vt 0.016976 0.904644
vt 0.016977 0.095355
vt 0.078525 0.904644
vt 0.016977 0.095355
vt 0.078526 0.095356
vt 0.078525 0.904644
vt 0.173736 0.095356
vt 0.173735 0.904644
vt 0.112188 0.095356
vt 0.173735 0.904644
vt 0.112187 0.904644
vt 0.112188 0.095356
vt 0.268947 0.095356
vt 0.268946 0.904644
vt 0.207398 0.095356
vt 0.268946 0.904644
vt 0.207398 0.904644
vt 0.207398 0.095356
vt 0.207398 0.016976
vt 0.268947 0.016976
vt 0.207398 0.078525
vt 0.268947 0.016976
vt 0.268947 0.078525
vt 0.207398 0.078525
vt 0.643108 0.071553
vt 0.833529 0.071553
vt 0.643108 0.261974
vt 0.833529 0.071553
vt 0.833529 0.261974
vt 0.643108 0.261974
vt 0.381279 0.261974
vt 0.381279 0.071553
vt 0.571700 0.261974
vt 0.381279 0.071553
vt 0.571700 0.071553
vt 0.571700 0.261974
vt 0.833529 0.261974
vt 0.833529 0.333382
vt 0.643108 0.261974
vt 0.833529 0.333382
vt 0.643108 0.333382
vt 0.643108 0.261974
vt 0.643108 0.261974
vt 0.571700 0.261974
vt 0.643108 0.071553
vt 0.571700 0.261974
vt 0.571700 0.071553
vt 0.643108 0.071553
vt 0.833529 0.071553
vt 0.904937 0.071553
vt 0.833529 0.261974
vt 0.904937 0.071553
vt 0.904937 0.261974
vt 0.833529 0.261974
vt 0.643108 0.071553
vt 0.643108 0.000145
vt 0.833529 0.071553
vt 0.643108 0.000145
vt 0.833529 0.000145
vt 0.833529 0.071553

vn -0.000000 1.000000 0.000000
vn -0.000000 1.000000 0.000000
vn -0.000000 1.000000 0.000000
vn -0.000000 1.000000 0.000000
vn -0.000000 1.000000 0.000000
vn -0.000000 1.000000 0.000000
vn 1.000000 0.000000 0.000000
vn 1.000000 0.000000 0.000000
vn 1.000000 0.000000 0.000000
vn 1.000000 0.000000 0.000000
vn 1.000000 0.000000 0.000000
vn 1.000000 0.000000 0.000000
vn 0.000000 0.000000 1.000000
vn 0.000000 0.000000 1.000000
vn 0.000000 0.000000 1.000000
vn 0.000000 0.000000 1.000000
vn 0.000000 0.000000 1.000000
vn 0.000000 0.000000 1.000000
vn -0.000000 -1.000000 0.000000
vn -0.000000 -1.000000 0.000000
vn -0.000000 -1.000000 0.000000
vn 0.000000 -1.000000 0.000000
vn 0.000000 -1.000000 0.000000
vn 0.000000 -1.000000 0.000000
vn -0.000000 0.000000 -1.000000
vn -0.000000 0.000000 -1.000000
vn -0.000000 0.000000 -1.000000
vn -0.000000 0.000000 -1.000000
vn -0.000000 0.000000 -1.000000
vn -0.000000 0.000000 -1.000000
vn -1.000000 0.000000 0.000000
vn -1.000000 0.000000 0.000000
vn -1.000000 0.000000 0.000000
vn -1.000000 0.000000 0.000000
vn -1.000000 0.000000 0.000000
vn -1.000000 0.000000 0.000000
vn 1.000000 0.000000 0.000000
vn 1.000000 0.000000 0.000000
vn 1.000000 0.000000 0.000000
vn 1.000000 0.000000 0.000000
vn 1.000000 0.000000 0.000000
vn 1.000000 0.000000 0.000000
vn -1.000000 0.000000 0.000000
vn -1.000000 0.000000 0.000000
vn -1.000000 0.000000 0.000000
vn -1.000000 0.000000 -0.000000
vn -1.000000 0.000000 -0.000000
vn -1.000000 0.000000 -0.000000
vn 0.000000 0.000000 1.000000
vn 0.000000 0.000000 1.000000
vn 0.000000 0.000000 1.000000
vn 0.000000 0.000000 1.000000
vn 0.000000 0.000000 1.000000
vn 0.000000 0.000000 1.000000
vn -0.000000 -1.000000 0.000000
vn -0.000000 -1.000000 0.000000
vn -0.000000 -1.000000 0.000000
vn -0.000000 -1.000000 0.000000
vn -0.000000 -1.000000 0.000000
vn -0.000000 -1.000000 0.000000
vn -0.000000 1.000000 0.000000
vn -0.000000 1.000000 0.000000
vn -0.000000 1.000000 0.000000
vn -0.000000 1.000000 0.000000
vn -0.000000 1.000000 0.000000
vn -0.000000 1.000000 0.000000
vn -0.000000 0.000000 -1.000000
vn -0.000000 0.000000 -1.000000
vn -0.000000 0.000000 -1.000000
vn -0.000000 0.000000 -1.000000
vn -0.000000 0.000000 -1.000000
vn -0.000000 0.000000 -1.000000

g Material.001
f 3/1/1 1/2/2 2/3/3
f 6/4/4 4/5/5 5/6/6
f 9/7/7 7/8/8 8/9/9
f 12/10/10 10/11/11 11/12/12
f 15/13/13 13/14/14 14/15/15
f 18/16/16 16/17/17 17/18/18
f 21/19/19 19/20/20 20/21/21
f 24/22/22 22/23/23 23/24/24
f 27/25/25 25/26/26 26/27/27
f 30/28/28 28/29/29 29/30/30
f 33/31/31 31/32/32 32/33/33
f 36/34/34 34/35/35 35/36/36
f 39/37/37 37/38/38 38/39/39
f 42/40/40 40/41/41 41/42/42
f 45/43/43 43/44/44 44/45/45
f 48/46/46 46/47/47 47/48/48
f 51/49/49 49/50/50 50/51/51
f 54/52/52 52/53/53 53/54/54
f 57/55/55 55/56/56 56/57/57
f 60/58/58 58/59/59 59/60/60
f 63/61/61 61/62/62 62/63/63
f 66/64/64 64/65/65 65/66/66
f 69/67/67 67/68/68 68/69/69
f 72/70/70 70/71/71 71/72/72

