# Converted from B3D for Luanti (With Correct Normals)
# Object Name: multidecor_spiral_stair_base

v 1.000000 -1.000000 -1.000000
v 0.732051 -1.000000 -0.000000
v -1.000000 -1.000000 -1.000000
v 0.732051 -1.000000 -0.000000
v 0.000000 -1.000000 0.732051
v -1.000000 -1.000000 -1.000000
v 0.000000 -1.000000 0.732051
v -1.000000 -1.000000 1.000000
v -1.000000 -1.000000 -1.000000
v 1.000000 1.000000 -1.000000
v -1.000000 1.000000 -1.000000
v 0.732051 1.000000 -0.000000
v 0.732051 1.000000 -0.000000
v -1.000000 1.000000 -1.000000
v 0.000000 1.000000 0.732051
v 0.000000 1.000000 0.732051
v -1.000000 1.000000 -1.000000
v -1.000000 1.000000 1.000000
v 1.000000 -1.000000 -1.000000
v 1.000000 1.000000 -1.000000
v 0.732051 1.000000 -0.000000
v 0.732051 -1.000000 -0.000000
v -1.000000 -1.000000 1.000000
v -1.000000 1.000000 1.000000
v -1.000000 1.000000 -1.000000
v -1.000000 -1.000000 -1.000000
v 0.732051 -1.000000 -0.000000
v 0.732051 1.000000 -0.000000
v 0.000000 1.000000 0.732051
v 0.000000 -1.000000 0.732051
v 0.000000 -1.000000 0.732051
v 0.000000 1.000000 0.732051
v -1.000000 1.000000 1.000000
v -1.000000 -1.000000 1.000000
v 1.000000 1.000000 -1.000000
v 1.000000 -1.000000 -1.000000
v -1.000000 -1.000000 -1.000000
v -1.000000 1.000000 -1.000000

vt 1.499494 0.223453
vt 0.999902 0.223453
vt 1.066835 -0.026343
vt 1.499494 0.223453
vt 1.066835 -0.026343
vt 1.249698 -0.209207
vt 1.499494 0.223453
vt 1.249698 -0.209207
vt 1.499494 -0.276139
vt 0.749582 0.290910
vt 0.999378 0.223977
vt 0.999378 0.723570
vt 0.566718 0.473773
vt 0.749582 0.290910
vt 0.999378 0.723570
vt 0.499785 0.723570
vt 0.566718 0.473773
vt 0.999378 0.723570
vt 0.499261 -0.017531
vt -0.000331 -0.276139
vt 0.499261 -0.276139
vt -0.000331 -0.017531
vt -0.000331 -0.276139
vt 0.499261 -0.017531
vt 0.999378 -0.276139
vt 0.499785 0.223453
vt 0.499785 -0.276139
vt 0.999378 0.223453
vt 0.499785 0.223453
vt 0.999378 -0.276139
vt 0.499261 0.241077
vt -0.000331 -0.017531
vt 0.499261 -0.017531
vt -0.000331 0.241077
vt -0.000331 -0.017531
vt 0.499261 0.241077
vt 0.499261 0.499685
vt -0.000331 0.241077
vt 0.499261 0.241077
vt -0.000331 0.499685
vt -0.000331 0.241077
vt 0.499261 0.499685
vt -0.000331 0.999801
vt 0.499261 0.500209
vt 0.499261 0.999802
vt -0.000331 0.500209
vt 0.499261 0.500209
vt -0.000331 0.999801

vn -0.000000 -1.000000 0.000000
vn -0.000000 -1.000000 0.000000
vn -0.000000 -1.000000 0.000000
vn -0.000000 -1.000000 0.000000
vn -0.000000 -1.000000 0.000000
vn -0.000000 -1.000000 0.000000
vn -0.000000 -1.000000 0.000000
vn -0.000000 -1.000000 0.000000
vn -0.000000 -1.000000 0.000000
vn -0.000000 1.000000 0.000000
vn -0.000000 1.000000 0.000000
vn -0.000000 1.000000 0.000000
vn -0.000000 1.000000 0.000000
vn -0.000000 1.000000 0.000000
vn -0.000000 1.000000 0.000000
vn -0.000000 1.000000 0.000000
vn -0.000000 1.000000 0.000000
vn -0.000000 1.000000 0.000000
vn 0.965926 0.000000 0.258819
vn 0.965926 0.000000 0.258819
vn 0.965926 0.000000 0.258819
vn 0.965926 0.000000 0.258819
vn 0.965926 0.000000 0.258819
vn 0.965926 0.000000 0.258819
vn -1.000000 0.000000 0.000000
vn -1.000000 0.000000 0.000000
vn -1.000000 0.000000 0.000000
vn -1.000000 0.000000 0.000000
vn -1.000000 0.000000 0.000000
vn -1.000000 0.000000 0.000000
vn 0.707107 0.000000 0.707107
vn 0.707107 0.000000 0.707107
vn 0.707107 0.000000 0.707107
vn 0.707107 0.000000 0.707107
vn 0.707107 0.000000 0.707107
vn 0.707107 0.000000 0.707107
vn 0.258819 0.000000 0.965926
vn 0.258819 0.000000 0.965926
vn 0.258819 0.000000 0.965926
vn 0.258819 0.000000 0.965926
vn 0.258819 0.000000 0.965926
vn 0.258819 0.000000 0.965926
vn -0.000000 0.000000 -1.000000
vn -0.000000 0.000000 -1.000000
vn -0.000000 0.000000 -1.000000
vn -0.000000 0.000000 -1.000000
vn -0.000000 0.000000 -1.000000
vn -0.000000 0.000000 -1.000000

g Material_0
f 3/1/1 1/2/2 2/3/3
f 6/4/4 4/5/5 5/6/6
f 9/7/7 7/8/8 8/9/9
f 12/10/10 10/11/11 11/12/12
f 15/13/13 13/14/14 14/15/15
f 18/16/16 16/17/17 17/18/18
f 21/19/19 19/20/20 20/21/21
f 22/22/22 19/23/23 21/24/24
f 25/25/25 23/26/26 24/27/27
f 26/28/28 23/29/29 25/30/30
f 29/31/31 27/32/32 28/33/33
f 30/34/34 27/35/35 29/36/36
f 33/37/37 31/38/38 32/39/39
f 34/40/40 31/41/41 33/42/42
f 37/43/43 35/44/44 36/45/45
f 38/46/46 35/47/47 37/48/48

