# Blender v3.0.0 OBJ File: 'multidecor_wooden_desk_drawer.blend'
# www.blender.org
o Cube.001_Cube.005
v -0.550000 0.261510 -0.940533
v 0.550000 0.261510 -0.940533
v -0.550000 0.261510 0.759467
v 0.550000 0.261510 0.759467
v -0.550000 -0.138490 -0.940533
v 0.550000 -0.138490 -0.940533
v -0.550000 -0.138490 0.759467
v 0.550000 -0.138490 0.759467
v -0.500000 0.261510 -0.890533
v 0.500000 0.261510 -0.890533
v -0.500000 0.261510 0.759467
v -0.500000 -0.088490 -0.890533
v 0.500000 -0.088490 -0.890533
v -0.500000 -0.088490 0.759467
v 0.500000 -0.088490 0.759467
v -0.650000 0.261510 0.759467
v -0.650000 -0.138490 0.759467
v 0.650000 0.261510 0.759467
v 0.650000 -0.138490 0.759467
v -0.550000 -0.138490 0.859467
v 0.550000 -0.138490 0.859467
v -0.650000 0.261510 0.859467
v -0.650000 -0.138490 0.859467
v 0.650000 0.261510 0.859467
v 0.650000 -0.138490 0.859467
v 0.500000 0.261510 0.759467
v -0.250000 0.036789 0.859467
v -0.250000 0.126789 0.859467
v -0.225000 0.036789 0.859467
v -0.225000 0.126789 0.859467
v -0.250000 0.036789 0.934467
v -0.250000 0.126789 0.934467
v -0.225000 0.036789 0.934467
v -0.225000 0.126789 0.934467
v 0.250000 0.036789 0.859467
v 0.250000 0.126789 0.859467
v 0.225000 0.036789 0.859467
v 0.225000 0.126789 0.859467
v 0.250000 0.036789 0.934467
v 0.250000 0.126789 0.934467
v 0.225000 0.036789 0.934467
v 0.225000 0.126789 0.934467
v -0.275000 0.023289 0.934467
v -0.275000 0.140289 0.934467
v -0.225000 0.023289 0.934467
v -0.225000 0.140289 0.934467
v 0.275000 0.023289 0.934467
v 0.275000 0.140289 0.934467
v 0.225000 0.023289 0.934467
v 0.225000 0.140289 0.934467
v -0.275000 0.023289 0.984467
v -0.275000 0.140289 0.984467
v -0.225000 0.023289 0.984467
v -0.225000 0.140289 0.984467
v 0.275000 0.023289 0.984467
v 0.275000 0.140289 0.984467
v 0.225000 0.023289 0.984467
v 0.225000 0.140289 0.984467
vt 0.557219 0.492142
vt 0.557219 0.595975
vt 0.998511 0.595975
vt 0.998511 0.492142
vt 0.453386 0.881517
vt 0.557219 0.881517
vt 0.453386 0.595975
vt 0.998511 0.985350
vt 0.998511 0.881517
vt 0.557219 0.985350
vt 0.999849 0.091005
vt 0.999849 0.519318
vt 0.908995 0.519318
vt 0.908995 0.091005
vt 0.649411 0.000151
vt 0.908995 0.000151
vt 0.649411 0.091005
vt 0.558557 0.519318
vt 0.558557 0.091005
vt 0.649411 0.519318
vt 0.441443 0.619989
vt 0.415485 0.619989
vt 0.415485 0.723823
vt 0.441443 0.723823
vt 0.000151 0.723823
vt 0.026109 0.723823
vt 0.026109 0.619989
vt 0.000151 0.619989
vt 0.052068 0.723823
vt 0.052067 0.619989
vt 0.363568 0.594031
vt 0.363568 0.619989
vt 0.389526 0.619989
vt 0.389526 0.594031
vt 0.078026 0.594031
vt 0.078026 0.619989
vt 0.389526 0.723823
vt 0.052067 0.594031
vt 0.363568 0.749781
vt 0.350588 0.749781
vt 0.649411 0.610173
vt 0.998511 0.479161
vt 0.570199 0.479162
vt 0.440407 0.608954
vt 0.440407 0.868538
vt 0.998511 0.998330
vt 0.570198 0.998329
vt 0.266463 0.167541
vt 0.266463 0.210120
vt 0.230981 0.210120
vt 0.230981 0.167541
vt 0.230981 0.155714
vt 0.230981 0.113135
vt 0.266463 0.113135
vt 0.266463 0.155714
vt 0.266463 0.221947
vt 0.230981 0.221947
vt 0.266463 0.058179
vt 0.230981 0.058179
vt 0.230981 0.100758
vt 0.266463 0.100758
vt 0.230981 0.046352
vt 0.266463 0.046352
vt 0.266463 0.003773
vt 0.230981 0.003773
vt 0.230981 0.112585
vt 0.266463 0.112585
vt 0.181465 0.263977
vt 0.181465 0.051083
vt 0.224044 0.051083
vt 0.224044 0.263977
vt 0.175078 0.263977
vt 0.175078 0.051083
vt 0.175078 0.027428
vt 0.181465 0.039255
vt 0.181465 0.275804
vt 0.224044 0.275804
vt 0.230431 0.287632
vt 0.175078 0.287631
vt 0.230431 0.263977
vt 0.230431 0.051083
vt 0.230431 0.027428
vt 0.224044 0.039256
vt 0.151423 0.003773
vt 0.151423 0.027428
vt 0.096071 0.027428
vt 0.096071 0.003773
vt 0.072416 0.027428
vt 0.096071 0.051083
vt 0.072416 0.051083
vt 0.151423 0.287631
vt 0.151423 0.263977
vt 0.151423 0.051083
vt 0.151423 0.311286
vt 0.096071 0.311286
vt 0.096071 0.287631
vt 0.072416 0.287631
vt 0.072416 0.263977
vt 0.096071 0.263977
vt 0.091005 0.749781
vt 0.078026 0.749781
vt 0.052068 0.749781
vt 0.389526 0.749781
vt 0.908995 0.610173
vn -1.0000 0.0000 -0.0000
vn 0.0000 0.0000 -1.0000
vn 1.0000 0.0000 0.0000
vn 0.0000 -1.0000 0.0000
vn 0.0000 0.0000 1.0000
vn 0.0000 1.0000 0.0000
s off
f 1/1/1 5/2/1 7/3/1 3/4/1
f 2/5/2 6/6/2 5/2/2 1/7/2
f 4/8/3 8/9/3 6/6/3 2/10/3
f 6/6/4 8/9/4 7/3/4 5/2/4
f 9/11/3 11/12/3 14/13/3 12/14/3
f 10/15/5 9/16/5 12/14/5 13/17/5
f 26/18/1 10/19/1 13/17/1 15/20/1
f 13/17/6 12/14/6 14/13/6 15/20/6
f 7/21/2 17/22/2 16/23/2 3/24/2
f 4/25/2 18/26/2 19/27/2 8/28/2
f 18/26/3 24/29/3 25/30/3 19/27/3
f 7/31/4 20/32/4 23/33/4 17/34/4
f 8/35/4 21/36/4 20/32/4 7/31/4
f 17/22/1 23/33/1 22/37/1 16/23/1
f 19/38/4 25/30/4 21/36/4 8/35/4
f 24/29/5 20/32/5 21/36/5
f 3/39/6 22/37/6 11/40/6
f 14/13/2 26/41/2 15/20/2
f 3/4/6 11/42/6 9/43/6 1/1/6
f 2/5/6 1/7/6 9/44/6 10/45/6
f 26/46/6 4/8/6 2/10/6 10/47/6
f 29/48/3 30/49/3 34/50/3 33/51/3
f 31/52/1 32/53/1 28/54/1 27/55/1
f 29/48/4 33/51/4 31/52/4 27/55/4
f 34/50/6 30/49/6 28/56/6 32/57/6
f 37/58/1 41/59/1 42/60/1 38/61/1
f 39/62/3 35/63/3 36/64/3 40/65/3
f 37/58/4 35/63/4 39/62/4 41/59/4
f 42/60/6 40/66/6 36/67/6 38/61/6
f 34/68/2 42/69/2 41/70/2 33/71/2
f 42/69/2 34/68/2 46/72/2 50/73/2
f 42/69/2 50/73/2 48/74/2 40/75/2
f 32/76/2 31/77/2 43/78/2 44/79/2
f 31/77/2 33/71/2 45/80/2 43/78/2
f 33/71/2 41/70/2 49/81/2 45/80/2
f 40/75/2 48/74/2 47/82/2 39/83/2
f 34/68/2 32/76/2 44/79/2 46/72/2
f 39/83/2 47/82/2 49/81/2 41/70/2
f 48/84/3 56/85/3 55/86/3 47/87/3
f 47/88/4 55/86/4 57/89/4 49/90/4
f 46/72/6 44/79/6 52/91/6 54/92/6
f 50/73/6 46/72/6 54/92/6 58/93/6
f 50/73/6 58/93/6 56/85/6 48/74/6
f 44/94/1 43/95/1 51/96/1 52/91/1
f 43/97/4 45/98/4 53/99/4 51/96/4
f 45/98/4 49/90/4 57/89/4 53/99/4
f 53/99/5 57/89/5 58/93/5 54/92/5
f 11/40/6 24/29/6 26/100/6
f 54/92/5 52/91/5 51/96/5 53/99/5
f 58/93/5 57/89/5 55/86/5 56/85/5
f 26/100/6 24/29/6 4/101/6
f 4/101/6 24/29/6 18/102/6
f 24/29/6 11/40/6 22/37/6
f 22/37/6 3/39/6 16/103/6
f 23/33/5 20/32/5 22/37/5
f 22/37/5 20/32/5 24/29/5
f 24/29/5 21/36/5 25/30/5
f 14/13/2 11/104/2 26/41/2
