# Blender v3.0.0 OBJ File: 'multidecor_wooden_bed_with_legs.blend'
# www.blender.org
o Cube
v -0.999999 0.200000 2.800000
v -0.999999 -0.200000 2.800000
v -1.000001 0.200000 -0.800000
v -1.000001 -0.200000 -0.800000
v 1.000001 0.200000 2.800000
v 1.000001 -0.200000 2.800000
v 0.999999 0.200000 -0.800000
v 0.999999 -0.200000 -0.800000
v -0.799999 -0.800000 3.000000
v -0.799999 1.200000 3.000000
v -0.799999 -0.800000 2.800000
v -0.799999 1.200000 2.800000
v 1.099999 0.900000 -0.750002
v 1.099999 -0.800000 -0.750002
v 1.099999 0.900000 -1.050002
v 1.099999 -0.800000 -1.050002
v 1.100001 -0.800000 3.049999
v 1.100001 1.400000 3.049999
v -0.800001 0.700000 -0.800000
v -0.800001 -0.800000 -0.800000
v 1.100001 -0.800000 2.750000
v 1.100001 1.400000 2.750000
v -0.800001 0.700000 -1.000000
v -0.800001 -0.800000 -1.000000
v 0.799999 0.700000 -0.800000
v 0.799999 -0.800000 -0.800000
v 0.799999 0.700000 -1.000000
v 0.799999 -0.800000 -1.000000
v 0.900001 0.200000 2.800000
v 0.899999 0.200000 -0.800000
v -0.900001 0.400000 -0.800000
v 0.899999 0.400000 -0.800000
v -0.899999 0.400000 2.800000
v 0.900001 0.400000 2.800000
v 0.949999 0.266667 -0.800000
v 0.949999 0.333333 -0.800000
v 0.950001 0.333333 2.800000
v 0.950001 0.266667 2.800000
v 0.799999 -0.800000 -1.050001
v 0.799999 0.900000 -1.050001
v 0.799999 -0.800000 -0.750002
v 0.799999 0.900000 -0.750002
v 0.800001 1.200000 2.800000
v 0.800001 -0.800000 2.800000
v 0.800001 1.200000 3.000000
v 0.800001 -0.800000 3.000000
v 0.800001 -0.800000 3.049999
v 0.800001 1.400000 3.049999
v 0.800001 -0.800000 2.750000
v 0.800001 1.400000 2.750000
v 1.006367 -1.000000 -0.956370
v 1.043070 -0.800000 -0.993072
v 1.006367 -1.000000 -0.843634
v 1.043070 -0.800000 -0.806931
v 0.893631 -1.000000 -0.956370
v 0.856929 -0.800000 -0.993072
v 0.893631 -1.000000 -0.843633
v 0.856929 -0.800000 -0.806931
v 1.043070 -0.900000 -0.993072
v 1.043070 -0.900000 -0.806931
v 0.856929 -0.900000 -0.806931
v 0.856929 -0.900000 -0.993072
v 1.006369 -1.000000 2.956367
v 1.043071 -0.800000 2.993070
v 1.006369 -1.000000 2.843631
v 1.043071 -0.800000 2.806929
v 0.893632 -1.000000 2.956368
v 0.856930 -0.800000 2.993070
v 0.893632 -1.000000 2.843632
v 0.856930 -0.800000 2.806929
v 1.043071 -0.900000 2.993070
v 1.043071 -0.900000 2.806929
v 0.856930 -0.900000 2.806929
v 0.856930 -0.900000 2.993070
v -0.671229 0.400000 1.767039
v 0.671230 0.400000 1.767038
v -0.671229 0.400000 2.718071
v 0.671230 0.400000 2.718070
v -0.671229 0.600000 1.767039
v 0.671230 0.600000 1.767038
v -0.671229 0.600000 2.718071
v 0.671230 0.600000 2.718070
v -0.248295 0.400000 1.767038
v 0.248296 0.400000 1.767038
v -0.671229 0.400000 2.418454
v -0.671229 0.400000 2.066656
v 0.671230 0.400000 2.066655
v 0.671230 0.400000 2.418453
v 0.223744 0.400000 2.718071
v -0.223743 0.400000 2.718071
v -0.248295 0.600000 1.767038
v 0.248296 0.600000 1.767038
v -0.671229 0.600000 2.418454
v -0.671229 0.600000 2.066656
v 0.671230 0.600000 2.066655
v 0.671230 0.600000 2.418453
v 0.248296 0.600000 2.718071
v -0.248295 0.600000 2.718071
v 0.744887 0.463009 2.770251
v 0.744887 0.536991 2.770251
v -0.744886 0.536991 2.770252
v -0.744886 0.463009 2.770252
v -0.744887 0.536991 1.714858
v -0.744887 0.463009 1.714858
v 0.744887 0.463009 1.714857
v 0.744887 0.536991 1.714857
v 0.248296 0.463009 1.714857
v 0.248296 0.536991 1.714857
v -0.248295 0.463009 1.714858
v -0.248295 0.536991 1.714858
v 0.744887 0.463009 2.418453
v 0.744887 0.536991 2.418453
v 0.744887 0.463009 2.066655
v 0.744887 0.536991 2.066655
v -0.744887 0.463009 2.066656
v -0.744887 0.536991 2.066656
v -0.744886 0.463009 2.418454
v -0.744886 0.536991 2.418454
v -0.248295 0.463009 2.770252
v -0.248295 0.536991 2.770252
v 0.248296 0.463009 2.770251
v 0.248296 0.536991 2.770251
v -0.384515 0.728943 2.514955
v -0.384515 0.728943 1.970154
v 0.384516 0.728943 2.514955
v 0.384515 0.728943 1.970154
v -1.100001 0.900000 -0.750001
v -1.100001 -0.800000 -0.750001
v -1.100001 0.900000 -1.050001
v -1.100001 -0.800000 -1.050001
v -0.800001 -0.800000 -1.050001
v -0.800001 0.900000 -1.050001
v -0.800001 -0.800000 -0.750001
v -0.800001 0.900000 -0.750001
v -1.006369 -1.000000 -0.956369
v -1.043071 -0.800000 -0.993072
v -1.006369 -1.000000 -0.843633
v -1.043071 -0.800000 -0.806930
v -0.893632 -1.000000 -0.956369
v -0.856930 -0.800000 -0.993072
v -0.893632 -1.000000 -0.843633
v -0.856930 -0.800000 -0.806930
v -1.043071 -0.900000 -0.993072
v -1.043071 -0.900000 -0.806930
v -0.856930 -0.900000 -0.806930
v -0.856930 -0.900000 -0.993072
v -1.099999 -0.800000 3.050000
v -1.099999 1.400000 3.050000
v -1.099999 -0.800000 2.750000
v -1.099999 1.400000 2.750000
v -0.799999 -0.800000 3.050000
v -0.799999 1.400000 3.050000
v -0.799999 -0.800000 2.750000
v -0.799999 1.400000 2.750000
v -1.006367 -1.000000 2.956368
v -1.043070 -0.800000 2.993071
v -1.006367 -1.000000 2.843632
v -1.043070 -0.800000 2.806930
v -0.893631 -1.000000 2.956368
v -0.856929 -0.800000 2.993071
v -0.893631 -1.000000 2.843632
v -0.856929 -0.800000 2.806929
v -1.043070 -0.900000 2.993071
v -1.043070 -0.900000 2.806930
v -0.856929 -0.900000 2.806929
v -0.856929 -0.900000 2.993071
v -0.899999 0.200000 2.800000
v -0.900001 0.200000 -0.800000
v -0.950001 0.266667 -0.800000
v -0.950001 0.333333 -0.800000
v -0.949999 0.333333 2.800000
v -0.949999 0.266667 2.800000
vt 0.473246 0.000238
vt 0.473246 0.263020
vt 0.000238 0.263020
vt 0.000238 0.000238
vt 0.000238 0.315577
vt 0.473246 0.315577
vt 0.473246 0.578359
vt 0.000238 0.578359
vt 0.473246 0.630916
vt 0.000238 0.630916
vt 0.552556 0.394412
vt 0.289774 0.394412
vt 0.289774 0.184185
vt 0.552556 0.184185
vt 0.578835 0.184185
vt 0.578835 0.394412
vt 0.841617 0.394412
vt 0.841617 0.184185
vt 0.867896 0.184185
vt 0.867896 0.394412
vt 0.802675 0.408026
vt 0.802675 0.697087
vt 0.763258 0.697087
vt 0.763258 0.408026
vt 0.723840 0.697087
vt 0.723840 0.408026
vt 0.039655 0.881510
vt 0.039655 0.920927
vt 0.000238 0.920928
vt 0.000238 0.881510
vt 0.263020 0.920927
vt 0.263020 0.881510
vt 0.302437 0.881510
vt 0.302437 0.920928
vt 0.263020 0.999762
vt 0.039655 0.999762
vt 0.039655 0.960345
vt 0.263020 0.960345
vt 0.039655 0.842093
vt 0.263020 0.842093
vt 0.684423 0.697087
vt 0.684423 0.408026
vt 0.842093 0.408026
vt 0.842093 0.697087
vt 0.723840 0.368608
vt 0.763258 0.368608
vt 0.420690 0.841617
vt 0.420690 0.631391
vt 0.446968 0.631391
vt 0.446968 0.841617
vt 0.223603 0.631391
vt 0.223603 0.841617
vt 0.197325 0.841617
vt 0.197325 0.631391
vt 0.842093 0.736504
vt 0.802675 0.736504
vt 0.000238 0.841617
vt 0.000238 0.631391
vt 0.039655 0.881510
vt 0.039655 0.920927
vt 0.000238 0.920928
vt 0.000238 0.881510
vt 0.263020 0.920927
vt 0.263020 0.881510
vt 0.302437 0.881510
vt 0.302437 0.920928
vt 0.263020 0.999762
vt 0.039655 0.999762
vt 0.039655 0.960345
vt 0.263020 0.960345
vt 0.039655 0.842093
vt 0.263020 0.842093
vt 0.802675 0.408026
vt 0.802675 0.697087
vt 0.763258 0.697087
vt 0.763258 0.408026
vt 0.723840 0.697087
vt 0.723840 0.408026
vt 0.684423 0.697087
vt 0.684423 0.408026
vt 0.842093 0.408026
vt 0.842093 0.697087
vt 0.723840 0.368608
vt 0.763258 0.368608
vt 0.842093 0.736504
vt 0.802675 0.736504
vt 0.813361 0.720045
vt 0.453412 0.720045
vt 0.453412 0.000146
vt 0.813361 0.000146
vt 0.436749 0.720045
vt 0.436747 0.000146
vt 0.406756 0.720045
vt 0.406751 0.000146
vt 0.423416 0.000146
vt 0.423418 0.720045
vt 0.048256 0.936989
vt 0.067554 0.999855
vt 0.007639 0.999855
vt 0.844807 0.397653
vt 0.844807 0.298349
vt 0.861166 0.313078
vt 0.861166 0.397653
vt 0.880841 0.140845
vt 0.880841 0.211194
vt 0.861457 0.200760
vt 0.861457 0.140845
vt 0.847830 0.666902
vt 0.847830 0.596552
vt 0.867214 0.606987
vt 0.867214 0.666902
vt 0.830012 0.198754
vt 0.830012 0.298058
vt 0.813652 0.283329
vt 0.813652 0.198754
vt 0.830012 0.000146
vt 0.830012 0.099450
vt 0.813652 0.099450
vt 0.813652 0.014875
vt 0.861166 0.014875
vt 0.861166 0.099449
vt 0.844807 0.099450
vt 0.844806 0.000146
vt 0.861166 0.198754
vt 0.844807 0.198754
vt 0.861166 0.283329
vt 0.844807 0.298058
vt 0.847830 0.807601
vt 0.847830 0.737252
vt 0.867214 0.737252
vt 0.867214 0.797167
vt 0.813652 0.797167
vt 0.813652 0.737252
vt 0.833036 0.737252
vt 0.833036 0.807601
vt 0.813652 0.666902
vt 0.833036 0.666902
vt 0.813652 0.606987
vt 0.833036 0.596552
vt 0.880841 0.000146
vt 0.880841 0.070495
vt 0.861457 0.070495
vt 0.861457 0.010580
vt 0.915019 0.010580
vt 0.915019 0.070495
vt 0.895635 0.070495
vt 0.895635 0.000146
vt 0.915019 0.140845
vt 0.895635 0.140845
vt 0.915018 0.200760
vt 0.895635 0.211194
vt 0.844807 0.596262
vt 0.844807 0.496957
vt 0.861166 0.496957
vt 0.861166 0.581532
vt 0.813653 0.581532
vt 0.813652 0.492048
vt 0.830012 0.496957
vt 0.830012 0.596262
vt 0.813652 0.402563
vt 0.830012 0.397653
vt 0.813652 0.313078
vt 0.830012 0.298349
vt 0.067554 0.720338
vt 0.048256 0.783204
vt 0.007639 0.720338
vt 0.000146 0.909749
vt 0.000146 0.810444
vt 0.197818 0.720338
vt 0.157201 0.783204
vt 0.137903 0.720338
vt 0.205311 0.810444
vt 0.205311 0.909748
vt 0.157201 0.936989
vt 0.205311 0.994323
vt 0.137903 0.999855
vt 0.000146 0.994323
vt 0.197818 0.999855
vt 0.000146 0.725870
vt 0.205311 0.725870
vt 0.436749 0.720045
vt 0.436747 0.000146
vt 0.453412 0.000146
vt 0.453412 0.720045
vt 0.406756 0.720045
vt 0.406751 0.000146
vt 0.423416 0.000146
vt 0.423418 0.720045
vt 0.438004 0.266645
vt 0.438004 0.344856
vt 0.292421 0.344856
vt 0.292421 0.266645
vt 0.146839 0.344856
vt 0.146839 0.266645
vt 0.001256 0.344856
vt 0.001256 0.266645
vt 0.583586 0.266645
vt 0.583586 0.344856
vt 0.263716 0.183333
vt 0.175544 0.183333
vt 0.175544 0.095161
vt 0.263716 0.095161
vt 0.554881 0.183333
vt 0.466709 0.183333
vt 0.118134 0.183333
vt 0.029961 0.183333
vt 0.409298 0.183333
vt 0.321127 0.183333
vt 0.438004 0.266646
vt 0.438004 0.344856
vt 0.292421 0.344856
vt 0.292421 0.266645
vt 0.146839 0.344856
vt 0.146839 0.266645
vt 0.001256 0.344856
vt 0.001256 0.266645
vt 0.583586 0.266646
vt 0.583586 0.344856
vt 0.263716 0.183333
vt 0.175544 0.183333
vt 0.175544 0.095161
vt 0.263716 0.095161
vt 0.554881 0.183333
vt 0.466709 0.183333
vt 0.118133 0.183333
vt 0.029961 0.183333
vt 0.409299 0.183333
vt 0.321127 0.183333
vt 0.438004 0.266645
vt 0.438004 0.344856
vt 0.292421 0.344856
vt 0.292421 0.266645
vt 0.146839 0.344856
vt 0.146839 0.266645
vt 0.001256 0.344856
vt 0.001256 0.266645
vt 0.583586 0.266645
vt 0.583586 0.344856
vt 0.263716 0.183333
vt 0.175544 0.183333
vt 0.175544 0.095161
vt 0.263716 0.095161
vt 0.554881 0.183333
vt 0.466709 0.183333
vt 0.118134 0.183333
vt 0.029961 0.183333
vt 0.409298 0.183333
vt 0.321127 0.183333
vt 0.438004 0.266646
vt 0.438004 0.344856
vt 0.292421 0.344856
vt 0.292421 0.266645
vt 0.146839 0.344856
vt 0.146839 0.266645
vt 0.001256 0.344856
vt 0.001256 0.266645
vt 0.583586 0.266646
vt 0.583586 0.344856
vt 0.263716 0.183333
vt 0.175544 0.183333
vt 0.175544 0.095161
vt 0.263716 0.095161
vt 0.554881 0.183333
vt 0.466709 0.183333
vt 0.118133 0.183333
vt 0.029961 0.183333
vt 0.409299 0.183333
vt 0.321127 0.183333
vn 0.0000 1.0000 0.0000
vn 1.0000 0.0000 -0.0000
vn 0.0000 -1.0000 0.0000
vn -1.0000 0.0000 0.0000
vn -0.0000 0.0000 -1.0000
vn 0.0000 0.0000 1.0000
vn 0.8000 0.6000 -0.0000
vn 0.8000 -0.6000 -0.0000
vn 0.4102 0.9120 -0.0000
vn 0.0000 0.6378 0.7702
vn -0.6500 0.7599 0.0000
vn 0.6500 0.7599 -0.0000
vn -0.0000 0.6378 -0.7702
vn -0.0000 -0.6378 -0.7702
vn 0.6500 -0.7599 -0.0000
vn -0.6500 -0.7599 0.0000
vn -0.0000 -0.6378 0.7702
vn -0.4102 0.9120 0.0000
vn -0.0000 0.8443 -0.5359
vn 0.0000 0.8443 0.5359
vn 0.0000 0.8442 0.5359
vn -0.0000 -0.3446 -0.9388
vn -0.9388 -0.3446 0.0000
vn 0.0000 -0.3446 0.9388
vn 0.9388 -0.3446 0.0000
vn -0.0000 0.3446 -0.9388
vn 0.9388 0.3446 -0.0000
vn 0.0000 0.3446 0.9388
vn -0.9388 0.3446 0.0000
s off
f 1/1/1 5/2/1 7/3/1 3/4/1
f 8/5/2 7/3/2 5/2/2 6/6/2
f 6/6/3 2/7/3 4/8/3 8/5/3
f 2/7/4 1/9/4 3/10/4 4/8/4
f 9/11/5 10/12/5 45/13/5 46/14/5
f 44/15/1 11/16/1 9/11/1 46/14/1
f 12/17/3 43/18/3 45/19/3 10/20/3
f 17/21/4 18/22/4 22/23/4 21/24/4
f 21/24/6 22/23/6 50/25/6 49/26/6
f 42/27/1 13/28/1 15/29/1 40/30/1
f 14/31/3 41/32/3 39/33/3 16/34/3
f 39/35/5 40/36/5 15/37/5 16/38/5
f 41/32/4 42/27/4 40/39/4 39/40/4
f 49/26/2 50/25/2 48/41/2 47/42/2
f 14/31/6 13/28/6 42/27/6 41/32/6
f 47/43/5 48/44/5 18/22/5 17/21/5
f 16/38/2 15/37/2 13/28/2 14/31/2
f 21/24/1 49/26/1 47/45/1 17/46/1
f 19/47/1 25/48/1 27/49/1 23/50/1
f 26/51/3 20/52/3 24/53/3 28/54/3
f 50/55/3 22/56/3 18/22/3 48/44/3
f 24/53/5 23/57/5 27/58/5 28/54/5
f 26/51/6 25/48/6 19/47/6 20/52/6
f 44/15/6 43/18/6 12/17/6 11/16/6
f 134/59/3 127/60/3 129/61/3 132/62/3
f 128/63/1 133/64/1 131/65/1 130/66/1
f 131/67/6 132/68/6 129/69/6 130/70/6
f 133/64/4 134/59/4 132/71/4 131/72/4
f 128/63/5 127/60/5 134/59/5 133/64/5
f 130/70/2 129/69/2 127/60/2 128/63/2
f 147/73/4 148/74/4 150/75/4 149/76/4
f 149/76/5 150/75/5 154/77/5 153/78/5
f 153/78/2 154/77/2 152/79/2 151/80/2
f 151/81/6 152/82/6 148/74/6 147/73/6
f 149/76/3 153/78/3 151/83/3 147/84/3
f 154/85/1 150/86/1 148/74/1 152/82/1
f 33/87/1 34/88/1 32/89/1 31/90/1
f 37/91/7 36/92/7 32/89/7 34/88/7
f 29/93/8 30/94/8 35/95/8 38/96/8
f 38/96/2 35/95/2 36/92/2 37/91/2
f 126/97/9 95/98/9 80/99/9
f 122/100/10 100/101/10 82/102/10 97/103/10
f 118/104/11 101/105/11 81/106/11 93/107/11
f 114/108/12 106/109/12 80/110/12 95/111/12
f 110/112/13 103/113/13 79/114/13 91/115/13
f 106/116/13 108/117/13 92/118/13 80/119/13
f 108/117/13 110/112/13 91/115/13 92/118/13
f 76/120/14 84/121/14 107/122/14 105/123/14
f 105/123/5 107/122/5 108/117/5 106/116/5
f 84/121/14 83/124/14 109/125/14 107/122/14
f 107/122/5 109/125/5 110/112/5 108/117/5
f 83/124/14 75/126/14 104/127/14 109/125/14
f 109/125/5 104/127/5 103/113/5 110/112/5
f 100/128/12 112/129/12 96/130/12 82/131/12
f 112/129/12 114/108/12 95/111/12 96/130/12
f 78/132/15 88/133/15 111/134/15 99/135/15
f 99/135/2 111/134/2 112/129/2 100/128/2
f 88/133/15 87/136/15 113/137/15 111/134/15
f 111/134/2 113/137/2 114/108/2 112/129/2
f 87/136/15 76/138/15 105/139/15 113/137/15
f 113/137/2 105/139/2 106/109/2 114/108/2
f 103/140/11 116/141/11 94/142/11 79/143/11
f 116/141/11 118/104/11 93/107/11 94/142/11
f 75/144/16 86/145/16 115/146/16 104/147/16
f 104/147/4 115/146/4 116/141/4 103/140/4
f 86/145/16 85/148/16 117/149/16 115/146/16
f 115/146/4 117/149/4 118/104/4 116/141/4
f 85/148/16 77/150/16 102/151/16 117/149/16
f 117/149/4 102/151/4 101/105/4 118/104/4
f 101/152/10 120/153/10 98/154/10 81/155/10
f 120/153/10 122/100/10 97/103/10 98/154/10
f 77/156/17 90/157/17 119/158/17 102/159/17
f 102/159/6 119/158/6 120/153/6 101/152/6
f 90/157/17 89/160/17 121/161/17 119/158/17
f 119/158/6 121/161/6 122/100/6 120/153/6
f 89/160/17 78/162/17 99/163/17 121/161/17
f 121/161/6 99/163/6 100/101/6 122/100/6
f 94/164/18 124/165/18 79/166/18
f 124/165/19 126/97/19 92/167/19 91/168/19
f 81/169/18 123/170/18 93/171/18
f 93/171/18 123/170/18 124/165/18 94/164/18
f 98/172/20 97/173/20 125/174/20 123/170/20
f 123/170/1 125/174/1 126/97/1 124/165/1
f 97/173/20 82/175/20 125/174/20
f 125/174/9 96/176/9 95/98/9 126/97/9
f 80/177/19 92/167/19 126/97/19
f 125/174/9 82/178/9 96/176/9
f 79/179/19 124/165/19 91/168/19
f 123/170/21 81/180/21 98/172/21
f 171/181/8 170/182/8 31/183/8 33/184/8
f 167/185/7 168/186/7 169/187/7 172/188/7
f 172/188/2 169/187/2 170/182/2 171/181/2
f 59/189/2 52/190/2 54/191/2 60/192/2
f 60/192/6 54/191/6 58/193/6 61/194/6
f 61/194/4 58/193/4 56/195/4 62/196/4
f 62/197/5 56/198/5 52/190/5 59/189/5
f 53/199/3 57/200/3 55/201/3 51/202/3
f 55/203/22 62/197/22 59/189/22 51/204/22
f 57/205/23 61/194/23 62/196/23 55/206/23
f 53/199/24 60/192/24 61/194/24 57/200/24
f 51/207/25 59/189/25 60/192/25 53/208/25
f 71/209/4 64/210/4 66/211/4 72/212/4
f 72/212/6 66/211/6 70/213/6 73/214/6
f 73/214/2 70/213/2 68/215/2 74/216/2
f 74/217/5 68/218/5 64/210/5 71/209/5
f 65/219/1 69/220/1 67/221/1 63/222/1
f 67/223/26 74/217/26 71/209/26 63/224/26
f 69/225/27 73/214/27 74/216/27 67/226/27
f 65/219/28 72/212/28 73/214/28 69/220/28
f 63/227/29 71/209/29 72/212/29 65/228/29
f 143/229/2 136/230/2 138/231/2 144/232/2
f 144/232/5 138/231/5 142/233/5 145/234/5
f 145/234/4 142/233/4 140/235/4 146/236/4
f 146/237/6 140/238/6 136/230/6 143/229/6
f 137/239/1 141/240/1 139/241/1 135/242/1
f 139/243/28 146/237/28 143/229/28 135/244/28
f 141/245/29 145/234/29 146/236/29 139/246/29
f 137/239/26 144/232/26 145/234/26 141/240/26
f 135/247/27 143/229/27 144/232/27 137/248/27
f 163/249/4 156/250/4 158/251/4 164/252/4
f 164/252/5 158/251/5 162/253/5 165/254/5
f 165/254/2 162/253/2 160/255/2 166/256/2
f 166/257/6 160/258/6 156/250/6 163/249/6
f 157/259/3 161/260/3 159/261/3 155/262/3
f 159/263/24 166/257/24 163/249/24 155/264/24
f 161/265/25 165/254/25 166/256/25 159/266/25
f 157/259/22 164/252/22 165/254/22 161/260/22
f 155/267/23 163/249/23 164/252/23 157/268/23
