# Converted from B3D for Luanti (With Correct Normals)
# Object Name: multidecor_cupboard_with_glass_doors

v -1.075000 1.518649 1.742208
v 0.925000 1.518649 1.742208
v 0.925000 1.518649 0.242208
v -1.075000 1.518649 0.242208
v -0.925000 1.368649 1.592208
v 0.775000 1.368649 1.592208
v 0.775000 1.368649 0.242208
v -0.925000 1.368649 0.242208
v 0.925000 -3.481351 0.242208
v 0.925000 1.518649 0.242208
v 0.925000 1.518649 1.742208
v 0.925000 -3.481351 1.742208
v 0.925000 -3.481351 1.742208
v -1.075000 -3.481351 1.742208
v -1.075000 -3.481351 0.242208
v 0.925000 -3.481351 0.242208
v -1.075000 -3.481351 1.742208
v -1.075000 1.518649 1.742208
v -1.075000 1.518649 0.242208
v -1.075000 -3.481351 0.242208
v 0.925000 -3.481351 1.742208
v 0.925000 1.518649 1.742208
v -1.075000 1.518649 1.742208
v -1.075000 -3.481351 1.742208
v 0.775000 -0.481351 1.592208
v -0.925000 -0.481351 1.592208
v -0.925000 -0.481351 0.242208
v 0.775000 -0.481351 0.242208
v 0.775000 0.518649 1.592208
v 0.775000 1.368649 1.592208
v -0.925000 1.368649 1.592208
v -0.925000 0.518649 1.592208
v 0.775000 -0.481351 0.242208
v 0.775000 0.368649 0.242208
v 0.775000 0.368649 1.592208
v 0.775000 -0.481351 1.592208
v 0.775000 -0.631351 1.592208
v -0.925000 -0.631351 1.592208
v -0.925000 -0.631351 0.242208
v 0.775000 -0.631351 0.242208
v 0.775000 -3.331351 1.592208
v -0.925000 -3.331351 1.592208
v -0.925000 -3.331351 0.242208
v 0.775000 -3.331351 0.242208
v -0.925000 -2.331351 1.592208
v 0.775000 -2.331351 1.592208
v 0.775000 -1.481351 1.592208
v -0.925000 -1.481351 1.592208
v -0.925000 -3.331351 1.592208
v 0.775000 -3.331351 1.592208
v 0.775000 -2.481351 1.592208
v -0.925000 -2.481351 1.592208
v 0.775000 -3.331351 1.592208
v 0.775000 -3.331351 0.242208
v 0.775000 -2.481351 0.242208
v 0.775000 -2.481351 1.592208
v 0.775000 -1.481351 1.592208
v 0.775000 -1.481351 0.242208
v -0.925000 -1.481351 0.242208
v -0.925000 -1.481351 1.592208
v 0.775000 -1.331351 1.592208
v 0.775000 -1.331351 0.242208
v -0.925000 -1.331351 0.242208
v -0.925000 -1.331351 1.592208
v 0.775000 -0.631351 0.242208
v 0.775000 -1.331351 0.242208
v 0.775000 -1.331351 1.592208
v 0.775000 -0.631351 1.592208
v 0.775000 -0.631351 1.592208
v 0.775000 -1.331351 1.592208
v -0.925000 -1.331351 1.592208
v -0.925000 -0.631351 1.592208
v -0.925000 -0.631351 1.592208
v -0.925000 -1.331351 1.592208
v -0.925000 -1.331351 0.242208
v -0.925000 -0.631351 0.242208
v -0.925000 0.518649 1.592208
v -0.925000 1.368649 1.592208
v -0.925000 1.368649 0.242208
v -0.925000 0.518649 0.242208
v 0.775000 -0.481351 1.592208
v 0.775000 0.368649 1.592208
v -0.925000 0.368649 1.592208
v -0.925000 -0.481351 1.592208
v 0.775000 0.518649 0.242208
v 0.775000 1.368649 0.242208
v 0.775000 1.368649 1.592208
v 0.775000 0.518649 1.592208
v 0.775000 -2.331351 1.592208
v 0.775000 -2.331351 0.242208
v 0.775000 -1.481351 0.242208
v 0.775000 -1.481351 1.592208
v -0.925000 -2.331351 0.242208
v -0.925000 -2.331351 1.592208
v -0.925000 -1.481351 1.592208
v -0.925000 -1.481351 0.242208
v 0.775000 -2.481351 1.592208
v 0.775000 -2.481351 0.242208
v -0.925000 -2.481351 0.242208
v -0.925000 -2.481351 1.592208
v -0.925000 -3.331351 0.242208
v -0.925000 -3.331351 1.592208
v -0.925000 -2.481351 1.592208
v -0.925000 -2.481351 0.242208
v 0.775000 -2.331351 0.242208
v 0.775000 -2.331351 1.592208
v -0.925000 -2.331351 1.592208
v -0.925000 -2.331351 0.242208
v 0.775000 0.518649 1.592208
v -0.925000 0.518649 1.592208
v -0.925000 0.518649 0.242208
v 0.775000 0.518649 0.242208
v 0.775000 0.368649 1.592208
v 0.775000 0.368649 0.242208
v -0.925000 0.368649 0.242208
v -0.925000 0.368649 1.592208
v -0.925000 -0.481351 1.592208
v -0.925000 0.368649 1.592208
v -0.925000 0.368649 0.242208
v -0.925000 -0.481351 0.242208
v 0.925000 1.518649 0.242208
v 0.775000 1.368649 0.242208
v -0.925000 1.368649 0.242208
v -1.075000 1.518649 0.242208
v -1.075000 -3.481351 0.242208
v -0.925000 -3.331351 0.242208
v 0.775000 -3.331351 0.242208
v 0.925000 -3.481351 0.242208
v 0.775000 0.368649 0.242208
v 0.775000 0.518649 0.242208
v 0.925000 1.518649 0.242208
v 0.925000 1.518649 0.242208
v 0.925000 -3.481351 0.242208
v 0.775000 -1.331351 0.242208
v 0.925000 -3.481351 0.242208
v 0.775000 -3.331351 0.242208
v 0.775000 -2.481351 0.242208
v 0.775000 -2.481351 0.242208
v 0.775000 -2.331351 0.242208
v 0.925000 -3.481351 0.242208
v 0.775000 -2.331351 0.242208
v 0.775000 -1.481351 0.242208
v 0.925000 -3.481351 0.242208
v 0.925000 -3.481351 0.242208
v 0.775000 -1.481351 0.242208
v 0.775000 -1.331351 0.242208
v 0.775000 0.518649 0.242208
v 0.775000 1.368649 0.242208
v 0.925000 1.518649 0.242208
v 0.775000 -0.631351 0.242208
v 0.775000 -0.481351 0.242208
v 0.925000 1.518649 0.242208
v 0.775000 -0.481351 0.242208
v 0.775000 0.368649 0.242208
v 0.925000 1.518649 0.242208
v 0.775000 -0.631351 0.242208
v 0.925000 1.518649 0.242208
v 0.775000 -1.331351 0.242208
v -1.075000 1.518649 0.242208
v -0.925000 -0.631351 0.242208
v -0.925000 -1.331351 0.242208
v -0.925000 -3.331351 0.242208
v -1.075000 -3.481351 0.242208
v -0.925000 -2.481351 0.242208
v -1.075000 -3.481351 0.242208
v -1.075000 1.518649 0.242208
v -0.925000 -1.331351 0.242208
v -0.925000 -2.481351 0.242208
v -1.075000 -3.481351 0.242208
v -0.925000 -2.331351 0.242208
v -1.075000 1.518649 0.242208
v -0.925000 1.368649 0.242208
v -0.925000 0.518649 0.242208
v -0.925000 0.368649 0.242208
v -0.925000 -0.481351 0.242208
v -1.075000 1.518649 0.242208
v -0.925000 -0.481351 0.242208
v -0.925000 -0.631351 0.242208
v -1.075000 1.518649 0.242208
v -1.075000 1.518649 0.242208
v -0.925000 0.518649 0.242208
v -0.925000 0.368649 0.242208
v -0.925000 -2.331351 0.242208
v -1.075000 -3.481351 0.242208
v -0.925000 -1.481351 0.242208
v -0.925000 -1.331351 0.242208
v -0.925000 -1.481351 0.242208
v -1.075000 -3.481351 0.242208
v 0.775000 0.518649 0.242208
v -0.925000 0.518649 0.242208
v -0.925000 0.368649 0.242208
v 0.775000 0.368649 0.242208
v -0.925000 -0.481351 0.242208
v -0.925000 -0.631351 0.242208
v 0.775000 -0.631351 0.242208
v 0.775000 -0.481351 0.242208
v 0.775000 -1.481351 0.242208
v 0.775000 -1.331351 0.242208
v -0.925000 -1.331351 0.242208
v -0.925000 -1.481351 0.242208
v -0.925000 -2.481351 0.242208
v 0.775000 -2.481351 0.242208
v 0.775000 -2.331351 0.242208
v -0.925000 -2.331351 0.242208
v 0.675000 -3.481351 1.742208
v 0.675000 -3.481351 0.642208
v -0.825000 -3.481351 0.642208
v -0.825000 -3.481351 1.742208
v 0.675000 -3.881351 1.742208
v -0.825000 -3.881351 1.742208
v -0.825000 -3.881351 0.642208
v 0.675000 -3.881351 0.642208
v -0.825000 -3.481351 0.642208
v 0.675000 -3.481351 0.642208
v 0.675000 -3.881351 0.642208
v -0.825000 -3.881351 0.642208
v 0.675000 -3.481351 1.742208
v -0.825000 -3.481351 1.742208
v -0.825000 -3.881351 1.742208
v 0.675000 -3.881351 1.742208
v -0.825000 -3.881351 1.742208
v -1.075000 -3.881351 1.742208
v -1.075000 -3.881351 0.242208
v -0.825000 -3.881351 0.242208
v 0.675000 -3.481351 0.242208
v 0.925000 -3.481351 0.242208
v 0.925000 -3.881351 0.242208
v 0.675000 -3.881351 0.242208
v 0.925000 -3.881351 1.742208
v 0.675000 -3.881351 1.742208
v 0.675000 -3.881351 0.242208
v 0.925000 -3.881351 0.242208
v 0.925000 -3.481351 1.742208
v 0.925000 -3.881351 1.742208
v 0.925000 -3.881351 0.242208
v 0.925000 -3.481351 0.242208
v -1.075000 -3.481351 0.242208
v -0.825000 -3.481351 0.242208
v -0.825000 -3.881351 0.242208
v -1.075000 -3.881351 0.242208
v 0.675000 -3.881351 1.742208
v 0.675000 -3.481351 1.742208
v 0.675000 -3.481351 0.242208
v 0.675000 -3.881351 0.242208
v -0.825000 -3.481351 1.742208
v -0.825000 -3.881351 1.742208
v -0.825000 -3.881351 0.242208
v -0.825000 -3.481351 0.242208
v -1.075000 -3.881351 1.742208
v -1.075000 -3.481351 1.742208
v -1.075000 -3.481351 0.242208
v -1.075000 -3.881351 0.242208
v -1.075000 -3.881351 1.742208
v -0.825000 -3.881351 1.742208
v -0.825000 -3.481351 1.742208
v -1.075000 -3.481351 1.742208
v 0.675000 -3.881351 1.742208
v 0.925000 -3.881351 1.742208
v 0.925000 -3.481351 1.742208
v 0.675000 -3.481351 1.742208

vt 0.000291 0.296383
vt 0.127188 0.127188
vt 0.127188 0.296383
vt 0.000291 0.127188
vt 0.127188 0.127188
vt 0.000291 0.296383
vt 0.216015 0.724184
vt 0.072199 0.609977
vt 0.216015 0.609977
vt 0.072199 0.724184
vt 0.072199 0.609977
vt 0.216015 0.724184
vt 0.127188 0.296383
vt 0.550177 0.423280
vt 0.127188 0.423280
vt 0.550177 0.296383
vt 0.550177 0.423280
vt 0.127188 0.296383
vt 0.677073 0.127188
vt 0.550177 0.296383
vt 0.550177 0.127188
vt 0.677073 0.296383
vt 0.550177 0.296383
vt 0.677073 0.127188
vt 0.127188 0.000291
vt 0.550177 0.127188
vt 0.127188 0.127188
vt 0.550177 0.000291
vt 0.550177 0.127188
vt 0.127188 0.000291
vt 0.127188 0.127188
vt 0.550177 0.296383
vt 0.127188 0.296383
vt 0.550177 0.127188
vt 0.550177 0.296383
vt 0.127188 0.127188
vt 0.360414 0.423862
vt 0.504230 0.538069
vt 0.360414 0.538069
vt 0.504230 0.423862
vt 0.504230 0.538069
vt 0.360414 0.423862
vt 0.072199 0.609977
vt 0.216015 0.538069
vt 0.216015 0.609977
vt 0.072199 0.538069
vt 0.216015 0.538069
vt 0.072199 0.609977
vt 0.504230 0.609977
vt 0.576138 0.724184
vt 0.504230 0.724184
vt 0.576138 0.609977
vt 0.576138 0.724184
vt 0.504230 0.609977
vt 0.779755 0.999709
vt 0.635938 0.885502
vt 0.779755 0.885502
vt 0.635939 0.999709
vt 0.635938 0.885502
vt 0.779755 0.999709
vt 0.749564 0.000291
vt 0.893380 0.114498
vt 0.749563 0.114498
vt 0.893380 0.000291
vt 0.893380 0.114498
vt 0.749564 0.000291
vt 0.762835 0.495770
vt 0.690927 0.639586
vt 0.690927 0.495770
vt 0.762835 0.639586
vt 0.690927 0.639586
vt 0.762835 0.495770
vt 0.893380 0.186406
vt 0.749563 0.114498
vt 0.893380 0.114498
vt 0.749564 0.186406
vt 0.749563 0.114498
vt 0.893380 0.186406
vt 0.893380 0.300613
vt 0.965288 0.186406
vt 0.965288 0.300613
vt 0.893380 0.186406
vt 0.965288 0.186406
vt 0.893380 0.300613
vt 0.877042 0.639586
vt 0.762835 0.495770
vt 0.877042 0.495770
vt 0.762835 0.639586
vt 0.762835 0.495770
vt 0.877042 0.639586
vt 0.779755 0.712076
vt 0.635938 0.826284
vt 0.635938 0.712076
vt 0.779755 0.826284
vt 0.635938 0.826284
vt 0.779755 0.712076
vt 0.576720 0.885502
vt 0.635939 0.999709
vt 0.576720 0.999709
vt 0.635938 0.885502
vt 0.635939 0.999709
vt 0.576720 0.885502
vt 0.779755 0.826284
vt 0.635938 0.885502
vt 0.635938 0.826284
vt 0.779755 0.885502
vt 0.635938 0.885502
vt 0.779755 0.826284
vt 0.838973 0.999709
vt 0.779755 0.885502
vt 0.838973 0.885502
vt 0.779755 0.999709
vt 0.779755 0.885502
vt 0.838973 0.999709
vt 0.072199 0.724184
vt 0.000291 0.609977
vt 0.072199 0.609977
vt 0.000291 0.724184
vt 0.000291 0.609977
vt 0.072199 0.724184
vt 0.360414 0.609977
vt 0.504230 0.538069
vt 0.504230 0.609977
vt 0.360414 0.538069
vt 0.504230 0.538069
vt 0.360414 0.609977
vt 0.216015 0.609977
vt 0.287924 0.724184
vt 0.216015 0.724184
vt 0.287924 0.609977
vt 0.287924 0.724184
vt 0.216015 0.609977
vt 0.877042 0.495770
vt 0.762835 0.423862
vt 0.877042 0.423862
vt 0.762835 0.495770
vt 0.762835 0.423862
vt 0.877042 0.495770
vt 0.762835 0.639586
vt 0.877042 0.711495
vt 0.762835 0.711495
vt 0.877042 0.639586
vt 0.877042 0.711495
vt 0.762835 0.639586
vt 0.749563 0.300613
vt 0.893380 0.186406
vt 0.893380 0.300613
vt 0.749564 0.186406
vt 0.893380 0.186406
vt 0.749563 0.300613
vt 0.749564 0.186406
vt 0.677655 0.300613
vt 0.677655 0.186406
vt 0.749563 0.300613
vt 0.677655 0.300613
vt 0.749564 0.186406
vt 0.690927 0.639586
vt 0.576720 0.495770
vt 0.690927 0.495770
vt 0.576720 0.639586
vt 0.576720 0.495770
vt 0.690927 0.639586
vt 0.072199 0.423862
vt 0.216015 0.538069
vt 0.072199 0.538069
vt 0.216015 0.423862
vt 0.216015 0.538069
vt 0.072199 0.423862
vt 0.360414 0.724184
vt 0.504230 0.609977
vt 0.504230 0.724184
vt 0.360414 0.609977
vt 0.504230 0.609977
vt 0.360414 0.724184
vt 0.360414 0.724184
vt 0.288506 0.609977
vt 0.360414 0.609977
vt 0.288505 0.724184
vt 0.288506 0.609977
vt 0.360414 0.724184
vt 0.379079 0.881272
vt 0.366389 0.724766
vt 0.379079 0.737456
vt 0.366389 0.893962
vt 0.366389 0.724766
vt 0.379079 0.881272
vt 0.877624 0.436552
vt 0.890314 0.593058
vt 0.877624 0.580368
vt 0.890314 0.423862
vt 0.890314 0.593058
vt 0.877624 0.436552
vt 0.980598 0.000291
vt 0.966772 0.096769
vt 0.966931 0.084165
vt 0.967992 0.239796
vt 0.980598 0.000291
vt 0.980597 0.420478
vt 0.969097 0.351353
vt 0.980597 0.420478
vt 0.970038 0.410250
vt 0.980597 0.420478
vt 0.969097 0.351353
vt 0.968932 0.340959
vt 0.980597 0.420478
vt 0.968932 0.340959
vt 0.967991 0.282061
vt 0.967992 0.239796
vt 0.980597 0.420478
vt 0.967991 0.282061
vt 0.980598 0.000291
vt 0.966931 0.084165
vt 0.967833 0.012737
vt 0.980598 0.000291
vt 0.967922 0.180974
vt 0.965870 0.168197
vt 0.980598 0.000291
vt 0.965870 0.168197
vt 0.966772 0.096769
vt 0.967992 0.239796
vt 0.967922 0.180974
vt 0.980598 0.000291
vt 0.983240 0.181210
vt 0.995862 0.421028
vt 0.983239 0.241430
vt 0.982210 0.084281
vt 0.983085 0.012758
vt 0.995862 0.000291
vt 0.983240 0.181210
vt 0.995862 0.000291
vt 0.995862 0.421028
vt 0.982055 0.096900
vt 0.982210 0.084281
vt 0.995862 0.000291
vt 0.984396 0.352321
vt 0.995862 0.421028
vt 0.985360 0.410867
vt 0.995862 0.421028
vt 0.984225 0.341989
vt 0.983261 0.283443
vt 0.995862 0.421028
vt 0.983261 0.283443
vt 0.983239 0.241430
vt 0.984225 0.341989
vt 0.995862 0.421028
vt 0.984396 0.352321
vt 0.981179 0.168418
vt 0.982055 0.096900
vt 0.995862 0.000291
vt 0.995862 0.000291
vt 0.983240 0.181210
vt 0.981179 0.168418
vt 0.392351 0.724766
vt 0.379661 0.868582
vt 0.379661 0.724766
vt 0.392351 0.868582
vt 0.379661 0.868582
vt 0.392351 0.724766
vt 0.392933 0.724766
vt 0.405622 0.868582
vt 0.392933 0.868582
vt 0.405622 0.724766
vt 0.405622 0.868582
vt 0.392933 0.724766
vt 0.418894 0.868582
vt 0.406204 0.724766
vt 0.418894 0.724766
vt 0.406204 0.868582
vt 0.406204 0.724766
vt 0.418894 0.868582
vt 0.419476 0.868582
vt 0.432166 0.724766
vt 0.432166 0.868582
vt 0.419476 0.724766
vt 0.432166 0.724766
vt 0.419476 0.868582
vt 0.966452 0.838973
vt 0.839555 0.932031
vt 0.839555 0.838973
vt 0.966452 0.932031
vt 0.839555 0.932031
vt 0.966452 0.838973
vt 0.966452 0.805134
vt 0.839555 0.712076
vt 0.966452 0.712076
vt 0.839555 0.805134
vt 0.839555 0.712076
vt 0.966452 0.805134
vt 0.839555 0.805134
vt 0.966452 0.838973
vt 0.839555 0.838973
vt 0.966452 0.805134
vt 0.966452 0.838973
vt 0.839555 0.805134
vt 0.966452 0.965870
vt 0.839555 0.932031
vt 0.966452 0.932031
vt 0.839555 0.965870
vt 0.839555 0.932031
vt 0.966452 0.965870
vt 0.021440 0.872812
vt 0.000291 0.745916
vt 0.021440 0.745916
vt 0.000291 0.872812
vt 0.000291 0.745916
vt 0.021440 0.872812
vt 0.077011 0.745916
vt 0.110850 0.724766
vt 0.110850 0.745916
vt 0.077011 0.724766
vt 0.110850 0.724766
vt 0.077011 0.745916
vt 0.055861 0.745916
vt 0.077011 0.872812
vt 0.055861 0.872812
vt 0.077011 0.745916
vt 0.077011 0.872812
vt 0.055861 0.745916
vt 0.077011 0.745916
vt 0.110850 0.872812
vt 0.077011 0.872812
vt 0.110850 0.745916
vt 0.110850 0.872812
vt 0.077011 0.745916
vt 0.021440 0.893962
vt 0.055280 0.872812
vt 0.055280 0.893962
vt 0.021440 0.872812
vt 0.055280 0.872812
vt 0.021440 0.893962
vt 0.365807 0.724766
vt 0.238911 0.758605
vt 0.238911 0.724766
vt 0.365807 0.758605
vt 0.238911 0.758605
vt 0.365807 0.724766
vt 0.111432 0.758605
vt 0.238329 0.724766
vt 0.238329 0.758605
vt 0.111432 0.724766
vt 0.238329 0.724766
vt 0.111432 0.758605
vt 0.055280 0.872812
vt 0.021440 0.745916
vt 0.055280 0.745916
vt 0.021440 0.872812
vt 0.021440 0.745916
vt 0.055280 0.872812
vt 0.055280 0.724766
vt 0.021440 0.745916
vt 0.021440 0.724766
vt 0.055280 0.745916
vt 0.021440 0.745916
vt 0.055280 0.724766
vt 0.110850 0.872812
vt 0.077011 0.893962
vt 0.077011 0.872812
vt 0.110850 0.893962
vt 0.077011 0.893962
vt 0.110850 0.872812

vn -0.000000 1.000000 0.000000
vn -0.000000 1.000000 0.000000
vn -0.000000 1.000000 0.000000
vn -0.000000 1.000000 0.000000
vn -0.000000 1.000000 0.000000
vn -0.000000 1.000000 0.000000
vn -0.000000 1.000000 0.000000
vn -0.000000 1.000000 0.000000
vn -0.000000 1.000000 0.000000
vn -0.000000 1.000000 0.000000
vn -0.000000 1.000000 0.000000
vn -0.000000 1.000000 0.000000
vn 1.000000 0.000000 0.000000
vn 1.000000 0.000000 0.000000
vn 1.000000 0.000000 0.000000
vn 1.000000 0.000000 0.000000
vn 1.000000 0.000000 0.000000
vn 1.000000 0.000000 0.000000
vn -0.000000 -1.000000 0.000000
vn -0.000000 -1.000000 0.000000
vn -0.000000 -1.000000 0.000000
vn -0.000000 -1.000000 0.000000
vn -0.000000 -1.000000 0.000000
vn -0.000000 -1.000000 0.000000
vn -1.000000 0.000000 0.000000
vn -1.000000 0.000000 0.000000
vn -1.000000 0.000000 0.000000
vn -1.000000 0.000000 0.000000
vn -1.000000 0.000000 0.000000
vn -1.000000 0.000000 0.000000
vn -0.000000 0.000000 1.000000
vn -0.000000 0.000000 1.000000
vn -0.000000 0.000000 1.000000
vn -0.000000 0.000000 1.000000
vn -0.000000 0.000000 1.000000
vn -0.000000 0.000000 1.000000
vn -0.000000 -1.000000 0.000000
vn -0.000000 -1.000000 0.000000
vn -0.000000 -1.000000 0.000000
vn -0.000000 -1.000000 0.000000
vn -0.000000 -1.000000 0.000000
vn -0.000000 -1.000000 0.000000
vn -0.000000 0.000000 1.000000
vn -0.000000 0.000000 1.000000
vn -0.000000 0.000000 1.000000
vn -0.000000 0.000000 1.000000
vn -0.000000 0.000000 1.000000
vn -0.000000 0.000000 1.000000
vn 1.000000 0.000000 0.000000
vn 1.000000 0.000000 0.000000
vn 1.000000 0.000000 0.000000
vn 1.000000 0.000000 0.000000
vn 1.000000 0.000000 0.000000
vn 1.000000 0.000000 0.000000
vn -0.000000 -1.000000 0.000000
vn -0.000000 -1.000000 0.000000
vn -0.000000 -1.000000 0.000000
vn -0.000000 -1.000000 0.000000
vn -0.000000 -1.000000 0.000000
vn -0.000000 -1.000000 0.000000
vn -0.000000 -1.000000 0.000000
vn -0.000000 -1.000000 0.000000
vn -0.000000 -1.000000 0.000000
vn -0.000000 -1.000000 0.000000
vn -0.000000 -1.000000 0.000000
vn -0.000000 -1.000000 0.000000
vn -0.000000 0.000000 1.000000
vn -0.000000 0.000000 1.000000
vn -0.000000 0.000000 1.000000
vn -0.000000 0.000000 1.000000
vn -0.000000 0.000000 1.000000
vn -0.000000 0.000000 1.000000
vn -0.000000 0.000000 1.000000
vn -0.000000 0.000000 1.000000
vn -0.000000 0.000000 1.000000
vn -0.000000 0.000000 1.000000
vn -0.000000 0.000000 1.000000
vn -0.000000 0.000000 1.000000
vn 1.000000 0.000000 0.000000
vn 1.000000 0.000000 0.000000
vn 1.000000 0.000000 0.000000
vn 1.000000 0.000000 0.000000
vn 1.000000 0.000000 0.000000
vn 1.000000 0.000000 0.000000
vn -0.000000 1.000000 0.000000
vn -0.000000 1.000000 0.000000
vn -0.000000 1.000000 0.000000
vn -0.000000 1.000000 0.000000
vn -0.000000 1.000000 0.000000
vn -0.000000 1.000000 0.000000
vn -0.000000 1.000000 0.000000
vn -0.000000 1.000000 0.000000
vn -0.000000 1.000000 0.000000
vn -0.000000 1.000000 0.000000
vn -0.000000 1.000000 0.000000
vn -0.000000 1.000000 0.000000
vn -1.000000 0.000000 0.000000
vn -1.000000 0.000000 0.000000
vn -1.000000 0.000000 0.000000
vn -1.000000 0.000000 0.000000
vn -1.000000 0.000000 0.000000
vn -1.000000 0.000000 0.000000
vn -0.000000 0.000000 -1.000000
vn -0.000000 0.000000 -1.000000
vn -0.000000 0.000000 -1.000000
vn -0.000000 0.000000 -1.000000
vn -0.000000 0.000000 -1.000000
vn -0.000000 0.000000 -1.000000
vn 1.000000 -0.000000 0.000000
vn 1.000000 -0.000000 0.000000
vn 1.000000 -0.000000 0.000000
vn 1.000000 -0.000000 0.000000
vn 1.000000 -0.000000 0.000000
vn 1.000000 -0.000000 0.000000
vn -1.000000 0.000000 0.000000
vn -1.000000 0.000000 0.000000
vn -1.000000 0.000000 0.000000
vn -1.000000 0.000000 0.000000
vn -1.000000 0.000000 0.000000
vn -1.000000 0.000000 0.000000
vn -0.000000 0.000000 1.000000
vn -0.000000 0.000000 1.000000
vn -0.000000 0.000000 1.000000
vn -0.000000 0.000000 1.000000
vn -0.000000 0.000000 1.000000
vn -0.000000 0.000000 1.000000
vn 1.000000 0.000000 0.000000
vn 1.000000 0.000000 0.000000
vn 1.000000 0.000000 0.000000
vn 1.000000 0.000000 0.000000
vn 1.000000 0.000000 0.000000
vn 1.000000 0.000000 0.000000
vn 1.000000 0.000000 0.000000
vn 1.000000 0.000000 0.000000
vn 1.000000 0.000000 0.000000
vn 1.000000 0.000000 0.000000
vn 1.000000 0.000000 0.000000
vn 1.000000 0.000000 0.000000
vn -1.000000 0.000000 0.000000
vn -1.000000 0.000000 0.000000
vn -1.000000 0.000000 0.000000
vn -1.000000 0.000000 0.000000
vn -1.000000 0.000000 0.000000
vn -1.000000 0.000000 0.000000
vn -0.000000 1.000000 0.000000
vn -0.000000 1.000000 0.000000
vn -0.000000 1.000000 0.000000
vn -0.000000 1.000000 0.000000
vn -0.000000 1.000000 0.000000
vn -0.000000 1.000000 0.000000
vn -1.000000 0.000000 0.000000
vn -1.000000 0.000000 0.000000
vn -1.000000 0.000000 0.000000
vn -1.000000 0.000000 0.000000
vn -1.000000 0.000000 0.000000
vn -1.000000 0.000000 0.000000
vn 0.000000 -1.000000 0.000000
vn 0.000000 -1.000000 0.000000
vn 0.000000 -1.000000 0.000000
vn -0.000000 -1.000000 0.000000
vn -0.000000 -1.000000 0.000000
vn -0.000000 -1.000000 0.000000
vn -0.000000 -1.000000 0.000000
vn -0.000000 -1.000000 0.000000
vn -0.000000 -1.000000 0.000000
vn -0.000000 -1.000000 0.000000
vn -0.000000 -1.000000 0.000000
vn -0.000000 -1.000000 0.000000
vn -0.000000 1.000000 0.000000
vn -0.000000 1.000000 0.000000
vn -0.000000 1.000000 0.000000
vn -0.000000 1.000000 0.000000
vn -0.000000 1.000000 0.000000
vn -0.000000 1.000000 0.000000
vn -1.000000 0.000000 0.000000
vn -1.000000 0.000000 0.000000
vn -1.000000 0.000000 0.000000
vn -1.000000 0.000000 0.000000
vn -1.000000 0.000000 0.000000
vn -1.000000 0.000000 0.000000
vn -0.000000 -0.000000 -1.000000
vn -0.000000 -0.000000 -1.000000
vn -0.000000 -0.000000 -1.000000
vn -0.000000 0.000000 -1.000000
vn -0.000000 0.000000 -1.000000
vn -0.000000 0.000000 -1.000000
vn -0.000000 0.000000 -1.000000
vn -0.000000 0.000000 -1.000000
vn -0.000000 0.000000 -1.000000
vn -0.000000 -0.000000 -1.000000
vn -0.000000 -0.000000 -1.000000
vn -0.000000 -0.000000 -1.000000
vn -0.000000 0.000000 -1.000000
vn -0.000000 0.000000 -1.000000
vn -0.000000 0.000000 -1.000000
vn -0.000000 0.000000 -1.000000
vn -0.000000 0.000000 -1.000000
vn -0.000000 0.000000 -1.000000
vn -0.000000 0.000000 -1.000000
vn -0.000000 0.000000 -1.000000
vn -0.000000 0.000000 -1.000000
vn -0.000000 0.000000 -1.000000
vn -0.000000 0.000000 -1.000000
vn -0.000000 0.000000 -1.000000
vn -0.000000 0.000000 -1.000000
vn -0.000000 0.000000 -1.000000
vn -0.000000 0.000000 -1.000000
vn -0.000000 0.000000 -1.000000
vn -0.000000 0.000000 -1.000000
vn -0.000000 0.000000 -1.000000
vn -0.000000 0.000000 -1.000000
vn -0.000000 0.000000 -1.000000
vn -0.000000 0.000000 -1.000000
vn -0.000000 0.000000 -1.000000
vn -0.000000 0.000000 -1.000000
vn -0.000000 0.000000 -1.000000
vn -0.000000 0.000000 -1.000000
vn -0.000000 0.000000 -1.000000
vn -0.000000 0.000000 -1.000000
vn -0.000000 0.000000 -1.000000
vn -0.000000 0.000000 -1.000000
vn -0.000000 0.000000 -1.000000
vn -0.000000 0.000000 -1.000000
vn -0.000000 0.000000 -1.000000
vn -0.000000 0.000000 -1.000000
vn -0.000000 0.000000 -1.000000
vn -0.000000 0.000000 -1.000000
vn -0.000000 0.000000 -1.000000
vn -0.000000 0.000000 -1.000000
vn -0.000000 0.000000 -1.000000
vn -0.000000 0.000000 -1.000000
vn -0.000000 0.000000 -1.000000
vn -0.000000 0.000000 -1.000000
vn -0.000000 0.000000 -1.000000
vn -0.000000 0.000000 -1.000000
vn -0.000000 0.000000 -1.000000
vn -0.000000 0.000000 -1.000000
vn -0.000000 0.000000 -1.000000
vn -0.000000 0.000000 -1.000000
vn -0.000000 0.000000 -1.000000
vn -0.000000 0.000000 -1.000000
vn -0.000000 0.000000 -1.000000
vn -0.000000 0.000000 -1.000000
vn -0.000000 0.000000 -1.000000
vn -0.000000 0.000000 -1.000000
vn -0.000000 0.000000 -1.000000
vn -0.000000 0.000000 -1.000000
vn -0.000000 0.000000 -1.000000
vn -0.000000 0.000000 -1.000000
vn -0.000000 0.000000 -1.000000
vn -0.000000 0.000000 -1.000000
vn -0.000000 0.000000 -1.000000
vn -0.000000 0.000000 1.000000
vn -0.000000 0.000000 1.000000
vn -0.000000 0.000000 1.000000
vn -0.000000 0.000000 1.000000
vn -0.000000 0.000000 1.000000
vn -0.000000 0.000000 1.000000
vn -0.000000 0.000000 1.000000
vn -0.000000 0.000000 1.000000
vn -0.000000 0.000000 1.000000
vn -0.000000 0.000000 1.000000
vn -0.000000 0.000000 1.000000
vn -0.000000 0.000000 1.000000
vn -0.000000 0.000000 1.000000
vn -0.000000 0.000000 1.000000
vn -0.000000 0.000000 1.000000
vn -0.000000 0.000000 1.000000
vn -0.000000 0.000000 1.000000
vn -0.000000 0.000000 1.000000
vn -0.000000 0.000000 1.000000
vn -0.000000 0.000000 1.000000
vn -0.000000 0.000000 1.000000
vn -0.000000 0.000000 1.000000
vn -0.000000 0.000000 1.000000
vn -0.000000 0.000000 1.000000
vn -0.000000 1.000000 0.000000
vn -0.000000 1.000000 0.000000
vn -0.000000 1.000000 0.000000
vn -0.000000 1.000000 0.000000
vn -0.000000 1.000000 0.000000
vn -0.000000 1.000000 0.000000
vn -0.000000 -1.000000 0.000000
vn -0.000000 -1.000000 0.000000
vn -0.000000 -1.000000 0.000000
vn -0.000000 -1.000000 0.000000
vn -0.000000 -1.000000 0.000000
vn -0.000000 -1.000000 0.000000
vn -0.000000 0.000000 -1.000000
vn -0.000000 0.000000 -1.000000
vn -0.000000 0.000000 -1.000000
vn -0.000000 0.000000 -1.000000
vn -0.000000 0.000000 -1.000000
vn -0.000000 0.000000 -1.000000
vn -0.000000 0.000000 1.000000
vn -0.000000 0.000000 1.000000
vn -0.000000 0.000000 1.000000
vn -0.000000 0.000000 1.000000
vn -0.000000 0.000000 1.000000
vn -0.000000 0.000000 1.000000
vn -0.000000 -1.000000 0.000000
vn -0.000000 -1.000000 0.000000
vn -0.000000 -1.000000 0.000000
vn -0.000000 -1.000000 0.000000
vn -0.000000 -1.000000 0.000000
vn -0.000000 -1.000000 0.000000
vn -0.000000 0.000000 -1.000000
vn -0.000000 0.000000 -1.000000
vn -0.000000 0.000000 -1.000000
vn -0.000000 0.000000 -1.000000
vn -0.000000 0.000000 -1.000000
vn -0.000000 0.000000 -1.000000
vn -0.000000 -1.000000 0.000000
vn -0.000000 -1.000000 0.000000
vn -0.000000 -1.000000 0.000000
vn -0.000000 -1.000000 0.000000
vn -0.000000 -1.000000 0.000000
vn -0.000000 -1.000000 0.000000
vn 1.000000 0.000000 0.000000
vn 1.000000 0.000000 0.000000
vn 1.000000 0.000000 0.000000
vn 1.000000 0.000000 0.000000
vn 1.000000 0.000000 0.000000
vn 1.000000 0.000000 0.000000
vn -0.000000 0.000000 -1.000000
vn -0.000000 0.000000 -1.000000
vn -0.000000 0.000000 -1.000000
vn -0.000000 0.000000 -1.000000
vn -0.000000 0.000000 -1.000000
vn -0.000000 0.000000 -1.000000
vn -1.000000 0.000000 0.000000
vn -1.000000 0.000000 0.000000
vn -1.000000 0.000000 0.000000
vn -1.000000 0.000000 0.000000
vn -1.000000 0.000000 0.000000
vn -1.000000 0.000000 0.000000
vn 1.000000 0.000000 0.000000
vn 1.000000 0.000000 0.000000
vn 1.000000 0.000000 0.000000
vn 1.000000 0.000000 0.000000
vn 1.000000 0.000000 0.000000
vn 1.000000 0.000000 0.000000
vn -1.000000 0.000000 0.000000
vn -1.000000 0.000000 0.000000
vn -1.000000 0.000000 0.000000
vn -1.000000 0.000000 0.000000
vn -1.000000 0.000000 0.000000
vn -1.000000 0.000000 0.000000
vn -0.000000 0.000000 1.000000
vn -0.000000 0.000000 1.000000
vn -0.000000 0.000000 1.000000
vn -0.000000 0.000000 1.000000
vn -0.000000 0.000000 1.000000
vn -0.000000 0.000000 1.000000
vn -0.000000 0.000000 1.000000
vn -0.000000 0.000000 1.000000
vn -0.000000 0.000000 1.000000
vn -0.000000 0.000000 1.000000
vn -0.000000 0.000000 1.000000
vn -0.000000 0.000000 1.000000

g Material
f 3/1/1 1/2/2 2/3/3
f 4/4/4 1/5/5 3/6/6
f 7/7/7 5/8/8 6/9/9
f 8/10/10 5/11/11 7/12/12
f 11/13/13 9/14/14 10/15/15
f 12/16/16 9/17/17 11/18/18
f 15/19/19 13/20/20 14/21/21
f 16/22/22 13/23/23 15/24/24
f 19/25/25 17/26/26 18/27/27
f 20/28/28 17/29/29 19/30/30
f 23/31/31 21/32/32 22/33/33
f 24/34/34 21/35/35 23/36/36
f 27/37/37 25/38/38 26/39/39
f 28/40/40 25/41/41 27/42/42
f 31/43/43 29/44/44 30/45/45
f 32/46/46 29/47/47 31/48/48
f 35/49/49 33/50/50 34/51/51
f 36/52/52 33/53/53 35/54/54
f 39/55/55 37/56/56 38/57/57
f 40/58/58 37/59/59 39/60/60
f 43/61/61 41/62/62 42/63/63
f 44/64/64 41/65/65 43/66/66
f 47/67/67 45/68/68 46/69/69
f 48/70/70 45/71/71 47/72/72
f 51/73/73 49/74/74 50/75/75
f 52/76/76 49/77/77 51/78/78
f 55/79/79 53/80/80 54/81/81
f 56/82/82 53/83/83 55/84/84
f 59/85/85 57/86/86 58/87/87
f 60/88/88 57/89/89 59/90/90
f 63/91/91 61/92/92 62/93/93
f 64/94/94 61/95/95 63/96/96
f 67/97/97 65/98/98 66/99/99
f 68/100/100 65/101/101 67/102/102
f 71/103/103 69/104/104 70/105/105
f 72/106/106 69/107/107 71/108/108
f 75/109/109 73/110/110 74/111/111
f 76/112/112 73/113/113 75/114/114
f 79/115/115 77/116/116 78/117/117
f 80/118/118 77/119/119 79/120/120
f 83/121/121 81/122/122 82/123/123
f 84/124/124 81/125/125 83/126/126
f 87/127/127 85/128/128 86/129/129
f 88/130/130 85/131/131 87/132/132
f 91/133/133 89/134/134 90/135/135
f 92/136/136 89/137/137 91/138/138
f 95/139/139 93/140/140 94/141/141
f 96/142/142 93/143/143 95/144/144
f 99/145/145 97/146/146 98/147/147
f 100/148/148 97/149/149 99/150/150
f 103/151/151 101/152/152 102/153/153
f 104/154/154 101/155/155 103/156/156
f 107/157/157 105/158/158 106/159/159
f 108/160/160 105/161/161 107/162/162
f 111/163/163 109/164/164 110/165/165
f 112/166/166 109/167/167 111/168/168
f 115/169/169 113/170/170 114/171/171
f 116/172/172 113/173/173 115/174/174
f 119/175/175 117/176/176 118/177/177
f 120/178/178 117/179/179 119/180/180
f 123/181/181 121/182/182 122/183/183
f 124/184/184 121/185/185 123/186/186
f 127/187/187 125/188/188 126/189/189
f 128/190/190 125/191/191 127/192/192
f 131/193/193 129/194/194 130/195/195
f 134/196/196 132/197/197 133/198/198
f 137/199/199 135/200/200 136/201/201
f 140/202/202 138/203/203 139/204/204
f 143/205/205 141/206/206 142/207/207
f 146/208/208 144/209/209 145/210/210
f 149/211/211 147/212/212 148/213/213
f 152/214/214 150/215/215 151/216/216
f 155/217/217 153/218/218 154/219/219
f 158/220/220 156/221/221 157/222/222
f 161/223/223 159/224/224 160/225/225
f 164/226/226 162/227/227 163/228/228
f 167/229/229 165/230/230 166/231/231
f 170/232/232 168/233/233 169/234/234
f 173/235/235 171/236/236 172/237/237
f 176/238/238 174/239/239 175/240/240
f 179/241/241 177/242/242 178/243/243
f 182/244/244 180/245/245 181/246/246
f 185/247/247 183/248/248 184/249/249
f 188/250/250 186/251/251 187/252/252
f 191/253/253 189/254/254 190/255/255
f 192/256/256 189/257/257 191/258/258
f 195/259/259 193/260/260 194/261/261
f 196/262/262 193/263/263 195/264/264
f 199/265/265 197/266/266 198/267/267
f 200/268/268 197/269/269 199/270/270
f 203/271/271 201/272/272 202/273/273
f 204/274/274 201/275/275 203/276/276
f 207/277/277 205/278/278 206/279/279
f 208/280/280 205/281/281 207/282/282
f 211/283/283 209/284/284 210/285/285
f 212/286/286 209/287/287 211/288/288
f 215/289/289 213/290/290 214/291/291
f 216/292/292 213/293/293 215/294/294
f 219/295/295 217/296/296 218/297/297
f 220/298/298 217/299/299 219/300/300
f 223/301/301 221/302/302 222/303/303
f 224/304/304 221/305/305 223/306/306
f 227/307/307 225/308/308 226/309/309
f 228/310/310 225/311/311 227/312/312
f 231/313/313 229/314/314 230/315/315
f 232/316/316 229/317/317 231/318/318
f 235/319/319 233/320/320 234/321/321
f 236/322/322 233/323/323 235/324/324
f 239/325/325 237/326/326 238/327/327
f 240/328/328 237/329/329 239/330/330
f 243/331/331 241/332/332 242/333/333
f 244/334/334 241/335/335 243/336/336
f 247/337/337 245/338/338 246/339/339
f 248/340/340 245/341/341 247/342/342
f 251/343/343 249/344/344 250/345/345
f 252/346/346 249/347/347 251/348/348
f 255/349/349 253/350/350 254/351/351
f 256/352/352 253/353/353 255/354/354
f 259/355/355 257/356/356 258/357/357
f 260/358/358 257/359/359 259/360/360

