# Converted from B3D for Luanti (With Correct Normals)
# Object Name: multidecor_window_segment_3

v 1.000000 1.000000 1.000000
v -1.000000 1.000000 1.000000
v -1.000000 0.750000 1.000000
v 1.000000 0.750000 1.000000
v 1.000000 0.875000 0.800000
v -1.000000 0.875000 0.800000
v -1.000000 0.750000 0.800000
v 1.000000 0.750000 0.800000
v -1.000000 0.750000 1.000000
v -1.000000 0.750000 0.800000
v 1.000000 0.750000 0.800000
v 1.000000 0.750000 1.000000
v 1.000000 1.000000 1.000000
v 1.000000 1.000000 0.800000
v -1.000000 1.000000 0.800000
v -1.000000 1.000000 1.000000
v 1.000000 1.000000 0.800000
v -1.000000 1.000000 0.800000
v -1.000000 0.875000 0.800000
v 1.000000 0.875000 0.800000
v -1.000000 0.875000 0.800000
v -1.000000 0.875000 -1.000000
v 1.000000 0.875000 -1.000000
v 1.000000 0.875000 0.800000

vt 0.000067 0.162546
vt 0.999933 0.287529
vt 0.000067 0.287529
vt 0.999933 0.162546
vt 0.999933 0.287529
vt 0.000067 0.162546
vt 0.000067 0.062559
vt 0.999933 0.000067
vt 0.000067 0.000067
vt 0.999933 0.062559
vt 0.999933 0.000067
vt 0.000067 0.062559
vt 0.999933 0.062559
vt 0.000067 0.162546
vt 0.000067 0.062559
vt 0.999933 0.162546
vt 0.000067 0.162546
vt 0.999933 0.062559
vt 0.000067 0.387516
vt 0.999933 0.287529
vt 0.999933 0.387515
vt 0.000067 0.287529
vt 0.999933 0.287529
vt 0.000067 0.387516
vt 0.000067 0.450007
vt 0.999933 0.387515
vt 0.000067 0.387516
vt 0.999933 0.450008
vt 0.999933 0.387515
vt 0.000067 0.450007
vt 0.999905 0.000095
vt 0.000095 0.899924
vt 0.000095 0.000095
vt 0.999905 0.899924
vt 0.000095 0.899924
vt 0.999905 0.000095

vn -0.000000 0.000000 1.000000
vn -0.000000 0.000000 1.000000
vn -0.000000 0.000000 1.000000
vn -0.000000 0.000000 1.000000
vn -0.000000 0.000000 1.000000
vn -0.000000 0.000000 1.000000
vn -0.000000 0.000000 1.000000
vn -0.000000 0.000000 1.000000
vn -0.000000 0.000000 1.000000
vn -0.000000 0.000000 1.000000
vn -0.000000 0.000000 1.000000
vn -0.000000 0.000000 1.000000
vn -0.000000 -1.000000 0.000000
vn -0.000000 -1.000000 0.000000
vn -0.000000 -1.000000 0.000000
vn -0.000000 -1.000000 0.000000
vn -0.000000 -1.000000 0.000000
vn -0.000000 -1.000000 0.000000
vn -0.000000 1.000000 -0.000001
vn -0.000000 1.000000 -0.000001
vn -0.000000 1.000000 -0.000001
vn -0.000000 1.000000 -0.000001
vn -0.000000 1.000000 -0.000001
vn -0.000000 1.000000 -0.000001
vn -0.000000 0.000000 1.000000
vn -0.000000 0.000000 1.000000
vn -0.000000 0.000000 1.000000
vn -0.000000 0.000001 1.000000
vn -0.000000 0.000001 1.000000
vn -0.000000 0.000001 1.000000
vn -0.000000 -1.000000 0.000000
vn -0.000000 -1.000000 0.000000
vn -0.000000 -1.000000 0.000000
vn -0.000000 -1.000000 0.000000
vn -0.000000 -1.000000 0.000000
vn -0.000000 -1.000000 0.000000

g Material
f 3/1/1 1/2/2 2/3/3
f 4/4/4 1/5/5 3/6/6
f 7/7/7 5/8/8 6/9/9
f 8/10/10 5/11/11 7/12/12
f 11/13/13 9/14/14 10/15/15
f 12/16/16 9/17/17 11/18/18
f 15/19/19 13/20/20 14/21/21
f 16/22/22 13/23/23 15/24/24
f 19/25/25 17/26/26 18/27/27
f 20/28/28 17/29/29 19/30/30

g Material.001
f 23/31/31 21/32/32 22/33/33
f 24/34/34 21/35/35 23/36/36

