# Converted from B3D for Luanti (With Correct Normals)
# Object Name: multidecor_kitchen_cabinet_two_shelves

v 1.000000 -0.800000 -0.850000
v 1.000000 0.900000 -0.850000
v 1.000000 0.900000 1.000000
v 1.000000 -0.800000 1.000000
v 1.000000 -0.800000 1.000000
v 1.000000 0.900000 1.000000
v -1.000000 0.900000 1.000000
v -1.000000 -0.800000 1.000000
v -1.000000 -0.800000 1.000000
v -1.000000 -0.800000 -0.850000
v 1.000000 -0.800000 -0.850000
v 1.000000 -0.800000 1.000000
v 0.850000 0.100000 -0.850000
v 0.850000 0.750000 -0.850000
v 0.850000 0.750000 0.900000
v 0.850000 0.100000 0.900000
v -1.000000 -0.800000 1.000000
v -1.000000 0.900000 1.000000
v -1.000000 0.900000 -0.850000
v -1.000000 -0.800000 -0.850000
v -1.000000 0.900000 1.000000
v -1.000000 1.000000 1.000000
v -1.000000 1.000000 -1.000000
v -1.000000 0.900000 -1.000000
v -1.000000 0.900000 -1.000000
v -1.000000 1.000000 -1.000000
v 1.000000 1.000000 -1.000000
v 1.000000 0.900000 -1.000000
v 1.000000 0.900000 1.000000
v 1.000000 1.000000 1.000000
v -1.000000 1.000000 1.000000
v -1.000000 0.900000 1.000000
v 1.000000 0.900000 -1.000000
v 1.000000 1.000000 -1.000000
v 1.000000 1.000000 1.000000
v 1.000000 0.900000 1.000000
v 1.000000 1.000000 1.000000
v 1.000000 1.000000 -1.000000
v -1.000000 1.000000 -1.000000
v -1.000000 1.000000 1.000000
v 0.750000 -0.800000 -0.550000
v 0.650000 -0.800000 -0.550000
v 0.650000 -1.000000 -0.550000
v 0.750000 -1.000000 -0.550000
v 0.550000 -0.800000 -0.750000
v 0.650000 -0.800000 -0.850000
v 0.650000 -1.000000 -0.850000
v 0.550000 -1.000000 -0.750000
v 0.750000 -0.800000 -0.850000
v 0.850000 -0.800000 -0.750000
v 0.850000 -1.000000 -0.750000
v 0.750000 -1.000000 -0.850000
v 0.850000 -0.800000 -0.650000
v 0.750000 -0.800000 -0.550000
v 0.750000 -1.000000 -0.550000
v 0.850000 -1.000000 -0.650000
v 0.650000 -0.800000 -0.550000
v 0.550000 -0.800000 -0.650000
v 0.550000 -1.000000 -0.650000
v 0.650000 -1.000000 -0.550000
v 0.550000 -0.800000 -0.650000
v 0.550000 -0.800000 -0.750000
v 0.550000 -1.000000 -0.750000
v 0.550000 -1.000000 -0.650000
v 0.650000 -0.800000 -0.850000
v 0.750000 -0.800000 -0.850000
v 0.750000 -1.000000 -0.850000
v 0.650000 -1.000000 -0.850000
v 0.850000 -0.800000 -0.750000
v 0.850000 -0.800000 -0.650000
v 0.850000 -1.000000 -0.650000
v 0.850000 -1.000000 -0.750000
v 0.750000 -1.000000 -0.850000
v 0.850000 -1.000000 -0.750000
v 0.550000 -1.000000 -0.650000
v 0.850000 -1.000000 -0.750000
v 0.850000 -1.000000 -0.650000
v 0.550000 -1.000000 -0.650000
v 0.850000 -1.000000 -0.650000
v 0.750000 -1.000000 -0.550000
v 0.550000 -1.000000 -0.650000
v 0.750000 -1.000000 -0.550000
v 0.650000 -1.000000 -0.550000
v 0.550000 -1.000000 -0.650000
v 0.550000 -1.000000 -0.650000
v 0.550000 -1.000000 -0.750000
v 0.650000 -1.000000 -0.850000
v 0.650000 -1.000000 -0.850000
v 0.750000 -1.000000 -0.850000
v 0.550000 -1.000000 -0.650000
v -0.550000 -0.800000 -0.750000
v -0.550000 -0.800000 -0.650000
v -0.550000 -1.000000 -0.650000
v -0.550000 -1.000000 -0.750000
v -0.750000 -0.800000 -0.550000
v -0.850000 -0.800000 -0.650000
v -0.850000 -1.000000 -0.650000
v -0.750000 -1.000000 -0.550000
v -0.850000 -0.800000 -0.750000
v -0.750000 -0.800000 -0.850000
v -0.750000 -1.000000 -0.850000
v -0.850000 -1.000000 -0.750000
v -0.650000 -0.800000 -0.850000
v -0.550000 -0.800000 -0.750000
v -0.550000 -1.000000 -0.750000
v -0.650000 -1.000000 -0.850000
v -0.550000 -0.800000 -0.650000
v -0.650000 -0.800000 -0.550000
v -0.650000 -1.000000 -0.550000
v -0.550000 -1.000000 -0.650000
v -0.650000 -0.800000 -0.550000
v -0.750000 -0.800000 -0.550000
v -0.750000 -1.000000 -0.550000
v -0.650000 -1.000000 -0.550000
v -0.850000 -0.800000 -0.650000
v -0.850000 -0.800000 -0.750000
v -0.850000 -1.000000 -0.750000
v -0.850000 -1.000000 -0.650000
v -0.750000 -0.800000 -0.850000
v -0.650000 -0.800000 -0.850000
v -0.650000 -1.000000 -0.850000
v -0.750000 -1.000000 -0.850000
v -0.850000 -1.000000 -0.750000
v -0.750000 -1.000000 -0.850000
v -0.650000 -1.000000 -0.550000
v -0.750000 -1.000000 -0.850000
v -0.650000 -1.000000 -0.850000
v -0.650000 -1.000000 -0.550000
v -0.650000 -1.000000 -0.850000
v -0.550000 -1.000000 -0.750000
v -0.650000 -1.000000 -0.550000
v -0.550000 -1.000000 -0.750000
v -0.550000 -1.000000 -0.650000
v -0.650000 -1.000000 -0.550000
v -0.650000 -1.000000 -0.550000
v -0.750000 -1.000000 -0.550000
v -0.850000 -1.000000 -0.650000
v -0.850000 -1.000000 -0.650000
v -0.850000 -1.000000 -0.750000
v -0.650000 -1.000000 -0.550000
v -0.750000 -0.800000 0.550000
v -0.650000 -0.800000 0.550000
v -0.650000 -1.000000 0.550000
v -0.750000 -1.000000 0.550000
v -0.550000 -0.800000 0.750000
v -0.650000 -0.800000 0.850000
v -0.650000 -1.000000 0.850000
v -0.550000 -1.000000 0.750000
v -0.750000 -0.800000 0.850000
v -0.850000 -0.800000 0.750000
v -0.850000 -1.000000 0.750000
v -0.750000 -1.000000 0.850000
v -0.850000 -0.800000 0.650000
v -0.750000 -0.800000 0.550000
v -0.750000 -1.000000 0.550000
v -0.850000 -1.000000 0.650000
v -0.650000 -0.800000 0.550000
v -0.550000 -0.800000 0.650000
v -0.550000 -1.000000 0.650000
v -0.650000 -1.000000 0.550000
v -0.550000 -0.800000 0.650000
v -0.550000 -0.800000 0.750000
v -0.550000 -1.000000 0.750000
v -0.550000 -1.000000 0.650000
v -0.650000 -0.800000 0.850000
v -0.750000 -0.800000 0.850000
v -0.750000 -1.000000 0.850000
v -0.650000 -1.000000 0.850000
v -0.850000 -0.800000 0.750000
v -0.850000 -0.800000 0.650000
v -0.850000 -1.000000 0.650000
v -0.850000 -1.000000 0.750000
v -0.750000 -1.000000 0.850000
v -0.850000 -1.000000 0.750000
v -0.550000 -1.000000 0.650000
v -0.850000 -1.000000 0.750000
v -0.850000 -1.000000 0.650000
v -0.550000 -1.000000 0.650000
v -0.850000 -1.000000 0.650000
v -0.750000 -1.000000 0.550000
v -0.550000 -1.000000 0.650000
v -0.750000 -1.000000 0.550000
v -0.650000 -1.000000 0.550000
v -0.550000 -1.000000 0.650000
v -0.550000 -1.000000 0.650000
v -0.550000 -1.000000 0.750000
v -0.650000 -1.000000 0.850000
v -0.650000 -1.000000 0.850000
v -0.750000 -1.000000 0.850000
v -0.550000 -1.000000 0.650000
v 0.550000 -0.800000 0.750000
v 0.550000 -0.800000 0.650000
v 0.550000 -1.000000 0.650000
v 0.550000 -1.000000 0.750000
v 0.750000 -0.800000 0.550000
v 0.850000 -0.800000 0.650000
v 0.850000 -1.000000 0.650000
v 0.750000 -1.000000 0.550000
v 0.850000 -0.800000 0.750000
v 0.750000 -0.800000 0.850000
v 0.750000 -1.000000 0.850000
v 0.850000 -1.000000 0.750000
v 0.650000 -0.800000 0.850000
v 0.550000 -0.800000 0.750000
v 0.550000 -1.000000 0.750000
v 0.650000 -1.000000 0.850000
v 0.550000 -0.800000 0.650000
v 0.650000 -0.800000 0.550000
v 0.650000 -1.000000 0.550000
v 0.550000 -1.000000 0.650000
v 0.650000 -0.800000 0.550000
v 0.750000 -0.800000 0.550000
v 0.750000 -1.000000 0.550000
v 0.650000 -1.000000 0.550000
v 0.850000 -0.800000 0.650000
v 0.850000 -0.800000 0.750000
v 0.850000 -1.000000 0.750000
v 0.850000 -1.000000 0.650000
v 0.750000 -0.800000 0.850000
v 0.650000 -0.800000 0.850000
v 0.650000 -1.000000 0.850000
v 0.750000 -1.000000 0.850000
v 0.850000 -1.000000 0.750000
v 0.750000 -1.000000 0.850000
v 0.650000 -1.000000 0.550000
v 0.750000 -1.000000 0.850000
v 0.650000 -1.000000 0.850000
v 0.650000 -1.000000 0.550000
v 0.650000 -1.000000 0.850000
v 0.550000 -1.000000 0.750000
v 0.650000 -1.000000 0.550000
v 0.550000 -1.000000 0.750000
v 0.550000 -1.000000 0.650000
v 0.650000 -1.000000 0.550000
v 0.650000 -1.000000 0.550000
v 0.750000 -1.000000 0.550000
v 0.850000 -1.000000 0.650000
v 0.850000 -1.000000 0.650000
v 0.850000 -1.000000 0.750000
v 0.650000 -1.000000 0.550000
v 1.000000 0.900000 1.000000
v -1.000000 0.900000 1.000000
v -1.000000 0.900000 -1.000000
v 1.000000 0.900000 -1.000000
v -0.850000 0.100000 0.900000
v -0.850000 0.750000 0.900000
v -0.850000 0.750000 -0.850000
v -0.850000 0.100000 -0.850000
v 0.850000 -0.650000 0.900000
v -0.850000 -0.650000 0.900000
v -0.850000 -0.650000 -0.850000
v 0.850000 -0.650000 -0.850000
v 0.850000 0.100000 0.900000
v 0.850000 0.750000 0.900000
v -0.850000 0.750000 0.900000
v -0.850000 0.100000 0.900000
v 0.850000 0.100000 -0.850000
v 0.850000 0.750000 -0.850000
v 1.000000 0.900000 -0.850000
v -1.000000 -0.800000 -0.850000
v -0.850000 -0.650000 -0.850000
v 0.850000 -0.650000 -0.850000
v 1.000000 -0.800000 -0.850000
v -0.850000 -0.000000 -0.850000
v -0.850000 -0.650000 -0.850000
v -1.000000 -0.800000 -0.850000
v 0.850000 -0.650000 0.900000
v 0.850000 -0.000000 0.900000
v -0.850000 0.000000 0.900000
v -0.850000 -0.650000 0.900000
v 0.850000 -0.000000 0.900000
v 0.850000 0.100000 0.900000
v -0.850000 0.100000 0.900000
v -0.850000 0.000000 0.900000
v -0.850000 -0.650000 0.900000
v -0.850000 0.000000 0.900000
v -0.850000 -0.000000 -0.850000
v -0.850000 -0.650000 -0.850000
v -0.850000 0.000000 0.900000
v -0.850000 0.100000 0.900000
v -0.850000 0.100000 -0.850000
v -0.850000 -0.000000 -0.850000
v 0.850000 -0.650000 -0.850000
v 0.850000 0.000000 -0.850000
v 0.850000 -0.000000 0.900000
v 0.850000 -0.650000 0.900000
v 0.850000 0.000000 -0.850000
v 0.850000 0.100000 -0.850000
v 0.850000 0.100000 0.900000
v 0.850000 -0.000000 0.900000
v 0.850000 0.100000 0.900000
v 0.850000 0.100000 -0.850000
v -0.850000 0.100000 -0.850000
v -0.850000 0.100000 0.900000
v 0.850000 0.000000 -0.850000
v 0.850000 -0.000000 0.900000
v -0.850000 0.000000 0.900000
v -0.850000 -0.000000 -0.850000
v 0.850000 0.100000 -0.850000
v 0.850000 0.000000 -0.850000
v -0.850000 -0.000000 -0.850000
v -0.850000 0.100000 -0.850000
v 1.000000 0.900000 -0.850000
v 1.000000 -0.800000 -0.850000
v 0.850000 0.100000 -0.850000
v 1.000000 -0.800000 -0.850000
v 0.850000 -0.650000 -0.850000
v 0.850000 0.000000 -0.850000
v 0.850000 0.000000 -0.850000
v 0.850000 0.100000 -0.850000
v 1.000000 -0.800000 -0.850000
v -1.000000 -0.800000 -0.850000
v -1.000000 0.900000 -0.850000
v -0.850000 0.100000 -0.850000
v -1.000000 0.900000 -0.850000
v -0.850000 0.750000 -0.850000
v -0.850000 0.100000 -0.850000
v -0.850000 0.100000 -0.850000
v -0.850000 -0.000000 -0.850000
v -1.000000 -0.800000 -0.850000
v 0.850000 0.750000 0.900000
v 0.850000 0.750000 -0.850000
v -0.850000 0.750000 -0.850000
v -0.850000 0.750000 0.900000
v 0.850000 0.750000 -0.850000
v -0.850000 0.750000 -0.850000
v -1.000000 0.900000 -0.850000
v 1.000000 0.900000 -0.850000

vt 0.483286 0.263056
vt 0.724101 0.525120
vt 0.483286 0.525120
vt 0.724101 0.263056
vt 0.724101 0.525120
vt 0.483286 0.263056
vt 0.000331 0.340967
vt 0.241146 0.624279
vt 0.000331 0.624279
vt 0.241146 0.340967
vt 0.241146 0.624279
vt 0.000331 0.340967
vt 0.525120 0.000331
vt 0.241808 0.262395
vt 0.241808 0.000331
vt 0.525120 0.262395
vt 0.241808 0.262395
vt 0.525120 0.000331
vt 0.297809 0.547032
vt 0.389886 0.794931
vt 0.297809 0.794931
vt 0.389886 0.547032
vt 0.389886 0.794931
vt 0.297809 0.547032
vt 0.525782 0.000331
vt 0.766597 0.262395
vt 0.525782 0.262395
vt 0.766597 0.000331
vt 0.766597 0.262395
vt 0.525782 0.000331
vt 0.390547 0.547032
vt 0.482624 0.794931
vt 0.390547 0.794931
vt 0.482624 0.547032
vt 0.482624 0.794931
vt 0.390547 0.547032
vt 0.000331 0.000331
vt 0.241146 0.248229
vt 0.000331 0.248229
vt 0.241146 0.000331
vt 0.241146 0.248229
vt 0.000331 0.000331
vt 0.483286 0.952073
vt 0.724101 0.859997
vt 0.724101 0.952073
vt 0.483286 0.859997
vt 0.724101 0.859997
vt 0.483286 0.952073
vt 0.241811 0.263056
vt 0.355135 0.284305
vt 0.263059 0.284305
vt 0.461376 0.284305
vt 0.482624 0.546371
vt 0.461375 0.525122
vt 0.482624 0.263057
vt 0.482624 0.546371
vt 0.461376 0.284305
vt 0.482624 0.546371
vt 0.369299 0.525122
vt 0.461375 0.525122
vt 0.000331 0.340306
vt 0.241146 0.248229
vt 0.241146 0.340306
vt 0.000331 0.248229
vt 0.241146 0.248229
vt 0.000331 0.340306
vt 0.987488 0.751772
vt 0.973323 0.510957
vt 0.987488 0.510957
vt 0.973323 0.751772
vt 0.973323 0.510957
vt 0.987488 0.751772
vt 0.823922 0.773680
vt 0.731845 0.525782
vt 0.823922 0.525782
vt 0.731845 0.773680
vt 0.731845 0.525782
vt 0.823922 0.773680
vt 0.987488 0.999669
vt 0.973323 0.751772
vt 0.987488 0.751772
vt 0.973323 0.999669
vt 0.973323 0.751772
vt 0.987488 0.999669
vt 0.731184 0.767259
vt 0.483286 0.859335
vt 0.483286 0.767259
vt 0.731184 0.859335
vt 0.483286 0.859335
vt 0.731184 0.767259
vt 0.987488 0.510957
vt 0.973322 0.263056
vt 0.987488 0.263056
vt 0.973323 0.510957
vt 0.973322 0.263056
vt 0.987488 0.510957
vt 0.000331 0.624941
vt 0.248229 0.865756
vt 0.000331 0.865756
vt 0.248229 0.624941
vt 0.248229 0.865756
vt 0.000331 0.624941
vt 0.731184 0.766597
vt 0.483286 0.525782
vt 0.731184 0.525782
vt 0.483286 0.766597
vt 0.483286 0.525782
vt 0.731184 0.766597
vt 0.781424 0.241146
vt 0.767259 0.000331
vt 0.781424 0.000331
vt 0.767259 0.241146
vt 0.767259 0.000331
vt 0.781424 0.241146
vt 0.355135 0.284305
vt 0.241811 0.263056
vt 0.482624 0.263057
vt 0.369300 0.284305
vt 0.482624 0.263057
vt 0.461376 0.284305
vt 0.482624 0.263057
vt 0.369300 0.284305
vt 0.355135 0.284305
vt 0.355133 0.525122
vt 0.482624 0.546371
vt 0.241808 0.546371
vt 0.355133 0.525122
vt 0.241808 0.546371
vt 0.263056 0.525122
vt 0.482624 0.546371
vt 0.355133 0.525122
vt 0.369299 0.525122
vt 0.724763 0.263056
vt 0.972661 0.503872
vt 0.724763 0.503872
vt 0.972661 0.263056
vt 0.972661 0.503872
vt 0.724763 0.263056
vt 0.297148 0.547032
vt 0.275900 0.809097
vt 0.275899 0.568281
vt 0.297148 0.830346
vt 0.275900 0.809097
vt 0.297148 0.547032
vt 0.022289 0.977711
vt 0.000070 0.500000
vt 0.022289 0.500000
vt 0.000070 0.977711
vt 0.000070 0.500000
vt 0.022289 0.977711
vt 0.466671 0.977711
vt 0.022289 0.999930
vt 0.022289 0.977711
vt 0.466671 0.999930
vt 0.022289 0.999930
vt 0.466671 0.977711
vt 0.022289 0.500000
vt 0.466671 0.477781
vt 0.466671 0.500000
vt 0.022289 0.477781
vt 0.466671 0.477781
vt 0.022289 0.500000
vt 0.466671 0.500000
vt 0.488890 0.977711
vt 0.466671 0.977711
vt 0.488890 0.500000
vt 0.488890 0.977711
vt 0.466671 0.500000
vt 0.022289 0.977711
vt 0.466671 0.500000
vt 0.466671 0.977711
vt 0.022289 0.500000
vt 0.466671 0.500000
vt 0.022289 0.977711
vt 0.022289 0.000070
vt 0.466671 0.477781
vt 0.022289 0.477781
vt 0.466671 0.000070
vt 0.466671 0.477781
vt 0.022289 0.000070
vt 0.514682 0.327862
vt 0.343534 0.413436
vt 0.343534 0.327862
vt 0.514682 0.413436
vt 0.343534 0.413436
vt 0.514682 0.327862
vt 0.514682 0.000247
vt 0.343534 0.121267
vt 0.343534 0.000247
vt 0.514682 0.121268
vt 0.343534 0.121267
vt 0.514682 0.000247
vt 0.514682 0.620031
vt 0.343534 0.741051
vt 0.343534 0.620031
vt 0.514682 0.741051
vt 0.343534 0.741051
vt 0.514682 0.620031
vt 0.514682 0.413436
vt 0.343534 0.534457
vt 0.343534 0.413436
vt 0.514682 0.534457
vt 0.343534 0.534457
vt 0.514682 0.413436
vt 0.514682 0.206842
vt 0.343534 0.327862
vt 0.343534 0.206842
vt 0.514682 0.327862
vt 0.343534 0.327862
vt 0.514682 0.206842
vt 0.514682 0.121268
vt 0.343534 0.206842
vt 0.343534 0.121267
vt 0.514682 0.206842
vt 0.343534 0.206842
vt 0.514682 0.121268
vt 0.514682 0.741051
vt 0.343534 0.826626
vt 0.343534 0.741051
vt 0.514682 0.826625
vt 0.343534 0.826626
vt 0.514682 0.741051
vt 0.514682 0.534457
vt 0.343534 0.620031
vt 0.343534 0.534457
vt 0.514682 0.620031
vt 0.343534 0.620031
vt 0.514682 0.534457
vt 0.939243 0.000247
vt 0.939243 0.242288
vt 0.818222 0.242288
vt 0.939243 0.000247
vt 0.818222 0.242288
vt 0.757712 0.181778
vt 0.939243 0.000247
vt 0.757712 0.181778
vt 0.757712 0.060757
vt 0.939243 0.000247
vt 0.757712 0.060757
vt 0.818222 0.000247
vt 0.999753 0.181778
vt 0.939243 0.000247
vt 0.999753 0.060757
vt 0.939243 0.000247
vt 0.999753 0.181778
vt 0.939243 0.242288
vt 0.206842 0.998269
vt 0.121268 0.827120
vt 0.206842 0.827120
vt 0.121268 0.998269
vt 0.121268 0.827120
vt 0.206842 0.998269
vt 0.534457 0.998269
vt 0.413436 0.827120
vt 0.534457 0.827120
vt 0.413436 0.998269
vt 0.413436 0.827120
vt 0.534457 0.998269
vt 0.741051 0.998269
vt 0.620031 0.827120
vt 0.741051 0.827120
vt 0.620031 0.998269
vt 0.620031 0.827120
vt 0.741051 0.998269
vt 0.121268 0.998269
vt 0.000247 0.827120
vt 0.121268 0.827120
vt 0.000247 0.998269
vt 0.000247 0.827120
vt 0.121268 0.998269
vt 0.327862 0.998269
vt 0.206842 0.827120
vt 0.327862 0.827120
vt 0.206842 0.998269
vt 0.206842 0.827120
vt 0.327862 0.998269
vt 0.413436 0.998269
vt 0.327862 0.827120
vt 0.413436 0.827120
vt 0.327862 0.998269
vt 0.327862 0.827120
vt 0.413436 0.998269
vt 0.620031 0.998269
vt 0.534457 0.827120
vt 0.620031 0.827120
vt 0.534457 0.998269
vt 0.534457 0.827120
vt 0.620031 0.998269
vt 0.826626 0.998269
vt 0.741051 0.827120
vt 0.826626 0.827120
vt 0.741051 0.998269
vt 0.741051 0.827120
vt 0.826626 0.998269
vt 0.757218 0.666848
vt 0.515177 0.666848
vt 0.515177 0.545828
vt 0.757218 0.666848
vt 0.515177 0.545828
vt 0.575687 0.485318
vt 0.757218 0.666848
vt 0.575687 0.485318
vt 0.696707 0.485318
vt 0.757218 0.666848
vt 0.696707 0.485318
vt 0.757218 0.545828
vt 0.575687 0.727358
vt 0.757218 0.666848
vt 0.696708 0.727358
vt 0.757218 0.666848
vt 0.575687 0.727358
vt 0.515177 0.666848
vt 0.171891 0.826626
vt 0.343039 0.741051
vt 0.343039 0.826626
vt 0.171890 0.741051
vt 0.343039 0.741051
vt 0.171891 0.826626
vt 0.171891 0.327862
vt 0.343039 0.206842
vt 0.343039 0.327862
vt 0.171891 0.206842
vt 0.343039 0.206842
vt 0.171891 0.327862
vt 0.171890 0.534457
vt 0.343039 0.413437
vt 0.343039 0.534457
vt 0.171891 0.413436
vt 0.343039 0.413437
vt 0.171890 0.534457
vt 0.171890 0.741051
vt 0.343039 0.620031
vt 0.343039 0.741051
vt 0.171891 0.620031
vt 0.343039 0.620031
vt 0.171890 0.741051
vt 0.171891 0.121268
vt 0.343039 0.000247
vt 0.343039 0.121268
vt 0.171891 0.000247
vt 0.343039 0.000247
vt 0.171891 0.121268
vt 0.171891 0.206842
vt 0.343039 0.121268
vt 0.343039 0.206842
vt 0.171891 0.121268
vt 0.343039 0.121268
vt 0.171891 0.206842
vt 0.171891 0.413436
vt 0.343039 0.327862
vt 0.343039 0.413437
vt 0.171891 0.327862
vt 0.343039 0.327862
vt 0.171891 0.413436
vt 0.171891 0.620031
vt 0.343039 0.534457
vt 0.343039 0.620031
vt 0.171890 0.534457
vt 0.343039 0.534457
vt 0.171891 0.620031
vt 0.515177 0.303293
vt 0.757218 0.303293
vt 0.757218 0.424313
vt 0.515177 0.303293
vt 0.757218 0.424313
vt 0.696707 0.484823
vt 0.515177 0.303293
vt 0.696707 0.484823
vt 0.575687 0.484823
vt 0.515177 0.303293
vt 0.575687 0.484823
vt 0.515177 0.424313
vt 0.696707 0.242783
vt 0.515177 0.303293
vt 0.575687 0.242782
vt 0.515177 0.303293
vt 0.696707 0.242783
vt 0.757218 0.303293
vt 0.171396 0.121267
vt 0.000247 0.206842
vt 0.000247 0.121268
vt 0.171396 0.206842
vt 0.000247 0.206842
vt 0.171396 0.121267
vt 0.171396 0.620031
vt 0.000247 0.741051
vt 0.000247 0.620031
vt 0.171396 0.741051
vt 0.000247 0.741051
vt 0.171396 0.620031
vt 0.171396 0.413436
vt 0.000247 0.534457
vt 0.000247 0.413436
vt 0.171396 0.534457
vt 0.000247 0.534457
vt 0.171396 0.413436
vt 0.171396 0.206842
vt 0.000247 0.327862
vt 0.000247 0.206842
vt 0.171396 0.327862
vt 0.000247 0.327862
vt 0.171396 0.206842
vt 0.171396 0.000247
vt 0.000247 0.121268
vt 0.000247 0.000247
vt 0.171396 0.121267
vt 0.000247 0.121268
vt 0.171396 0.000247
vt 0.171396 0.741051
vt 0.000247 0.826626
vt 0.000247 0.741051
vt 0.171396 0.826626
vt 0.000247 0.826626
vt 0.171396 0.741051
vt 0.171396 0.534457
vt 0.000247 0.620031
vt 0.000247 0.534457
vt 0.171396 0.620031
vt 0.000247 0.620031
vt 0.171396 0.534457
vt 0.171396 0.327862
vt 0.000247 0.413436
vt 0.000247 0.327862
vt 0.171396 0.413436
vt 0.000247 0.413436
vt 0.171396 0.327862
vt 0.515177 0.060758
vt 0.757218 0.060757
vt 0.757218 0.181778
vt 0.515177 0.060758
vt 0.757218 0.181778
vt 0.696707 0.242288
vt 0.515177 0.060758
vt 0.696707 0.242288
vt 0.575687 0.242288
vt 0.515177 0.060758
vt 0.575687 0.242288
vt 0.515177 0.181778
vt 0.696707 0.000247
vt 0.515177 0.060758
vt 0.575687 0.000247
vt 0.515177 0.060758
vt 0.696707 0.000247
vt 0.757218 0.060757

vn 1.000000 0.000000 0.000000
vn 1.000000 0.000000 0.000000
vn 1.000000 0.000000 0.000000
vn 1.000000 0.000000 0.000000
vn 1.000000 0.000000 0.000000
vn 1.000000 0.000000 0.000000
vn -0.000000 0.000000 1.000000
vn -0.000000 0.000000 1.000000
vn -0.000000 0.000000 1.000000
vn -0.000000 0.000000 1.000000
vn -0.000000 0.000000 1.000000
vn -0.000000 0.000000 1.000000
vn -0.000000 -1.000000 0.000000
vn -0.000000 -1.000000 0.000000
vn -0.000000 -1.000000 0.000000
vn -0.000000 -1.000000 0.000000
vn -0.000000 -1.000000 0.000000
vn -0.000000 -1.000000 0.000000
vn 1.000000 0.000000 0.000000
vn 1.000000 0.000000 0.000000
vn 1.000000 0.000000 0.000000
vn 1.000000 0.000000 0.000000
vn 1.000000 0.000000 0.000000
vn 1.000000 0.000000 0.000000
vn -1.000000 0.000000 0.000000
vn -1.000000 0.000000 0.000000
vn -1.000000 0.000000 0.000000
vn -1.000000 0.000000 -0.000000
vn -1.000000 0.000000 -0.000000
vn -1.000000 0.000000 -0.000000
vn -1.000000 0.000000 -0.000000
vn -1.000000 0.000000 -0.000000
vn -1.000000 0.000000 -0.000000
vn -1.000000 0.000000 -0.000000
vn -1.000000 0.000000 -0.000000
vn -1.000000 0.000000 -0.000000
vn -0.000000 -1.000000 0.000000
vn -0.000000 -1.000000 0.000000
vn -0.000000 -1.000000 0.000000
vn -0.000000 -1.000000 0.000000
vn -0.000000 -1.000000 0.000000
vn -0.000000 -1.000000 0.000000
vn -0.000000 0.000000 1.000000
vn -0.000000 0.000000 1.000000
vn -0.000000 0.000000 1.000000
vn -0.000000 0.000000 1.000000
vn -0.000000 0.000000 1.000000
vn -0.000000 0.000000 1.000000
vn -0.000000 0.000000 -1.000000
vn -0.000000 0.000000 -1.000000
vn -0.000000 0.000000 -1.000000
vn 0.000000 0.000000 -1.000000
vn 0.000000 0.000000 -1.000000
vn 0.000000 0.000000 -1.000000
vn 0.000000 0.000001 -1.000000
vn 0.000000 0.000001 -1.000000
vn 0.000000 0.000001 -1.000000
vn -0.000000 0.000000 -1.000000
vn -0.000000 0.000000 -1.000000
vn -0.000000 0.000000 -1.000000
vn -0.000000 0.000000 1.000000
vn -0.000000 0.000000 1.000000
vn -0.000000 0.000000 1.000000
vn -0.000000 0.000000 1.000000
vn -0.000000 0.000000 1.000000
vn -0.000000 0.000000 1.000000
vn -0.000000 0.000000 1.000000
vn -0.000000 0.000000 1.000000
vn -0.000000 0.000000 1.000000
vn -0.000000 0.000000 1.000000
vn -0.000000 0.000000 1.000000
vn -0.000000 0.000000 1.000000
vn -1.000000 0.000000 0.000000
vn -1.000000 0.000000 0.000000
vn -1.000000 0.000000 0.000000
vn -1.000000 0.000000 -0.000000
vn -1.000000 0.000000 -0.000000
vn -1.000000 0.000000 -0.000000
vn -1.000000 0.000000 0.000000
vn -1.000000 0.000000 0.000000
vn -1.000000 0.000000 0.000000
vn -1.000000 0.000000 -0.000000
vn -1.000000 0.000000 -0.000000
vn -1.000000 0.000000 -0.000000
vn 1.000000 0.000000 0.000000
vn 1.000000 0.000000 0.000000
vn 1.000000 0.000000 0.000000
vn 1.000000 0.000000 0.000000
vn 1.000000 0.000000 0.000000
vn 1.000000 0.000000 0.000000
vn 1.000000 0.000000 0.000000
vn 1.000000 0.000000 0.000000
vn 1.000000 0.000000 0.000000
vn 1.000000 0.000000 0.000000
vn 1.000000 0.000000 0.000000
vn 1.000000 0.000000 0.000000
vn -0.000000 1.000000 0.000000
vn -0.000000 1.000000 0.000000
vn -0.000000 1.000000 0.000000
vn 0.000000 1.000000 -0.000000
vn 0.000000 1.000000 -0.000000
vn 0.000000 1.000000 -0.000000
vn -0.000000 -1.000000 -0.000000
vn -0.000000 -1.000000 -0.000000
vn -0.000000 -1.000000 -0.000000
vn 0.000000 -1.000000 0.000000
vn 0.000000 -1.000000 0.000000
vn 0.000000 -1.000000 0.000000
vn 0.000000 0.000000 -1.000000
vn 0.000000 0.000000 -1.000000
vn 0.000000 0.000000 -1.000000
vn 0.000000 0.000000 -1.000000
vn 0.000000 0.000000 -1.000000
vn 0.000000 0.000000 -1.000000
vn -0.000000 0.000000 -1.000000
vn -0.000000 0.000000 -1.000000
vn -0.000000 0.000000 -1.000000
vn -0.000000 0.000000 -1.000000
vn -0.000000 0.000000 -1.000000
vn -0.000000 0.000000 -1.000000
vn -0.000000 0.000000 -1.000000
vn -0.000000 0.000000 -1.000000
vn -0.000000 0.000000 -1.000000
vn -0.000000 0.000000 -1.000000
vn -0.000000 0.000000 -1.000000
vn -0.000000 0.000000 -1.000000
vn -0.000000 0.000000 -1.000000
vn -0.000000 0.000000 -1.000000
vn -0.000000 0.000000 -1.000000
vn -0.000000 0.000000 -1.000000
vn -0.000000 0.000000 -1.000000
vn -0.000000 0.000000 -1.000000
vn -0.000000 1.000000 0.000000
vn -0.000000 1.000000 0.000000
vn -0.000000 1.000000 0.000000
vn -0.000000 1.000000 0.000000
vn -0.000000 1.000000 0.000000
vn -0.000000 1.000000 0.000000
vn 0.000000 0.000000 -1.000000
vn 0.000000 0.000000 -1.000000
vn 0.000000 0.000000 -1.000000
vn 0.000000 -0.000001 -1.000000
vn 0.000000 -0.000001 -1.000000
vn 0.000000 -0.000001 -1.000000
vn -1.000000 0.000000 0.000000
vn -1.000000 0.000000 0.000000
vn -1.000000 0.000000 0.000000
vn -1.000000 0.000000 -0.000000
vn -1.000000 0.000000 -0.000000
vn -1.000000 0.000000 -0.000000
vn -0.000000 0.000000 -1.000000
vn -0.000000 0.000000 -1.000000
vn -0.000000 0.000000 -1.000000
vn -0.000000 0.000000 -1.000000
vn -0.000000 0.000000 -1.000000
vn -0.000000 0.000000 -1.000000
vn -0.000000 0.000000 1.000000
vn -0.000000 0.000000 1.000000
vn -0.000000 0.000000 1.000000
vn -0.000000 0.000000 1.000000
vn -0.000000 0.000000 1.000000
vn -0.000000 0.000000 1.000000
vn 1.000000 0.000000 0.000000
vn 1.000000 0.000000 0.000000
vn 1.000000 0.000000 0.000000
vn 1.000000 0.000000 0.000000
vn 1.000000 0.000000 0.000000
vn 1.000000 0.000000 0.000000
vn -0.000000 1.000000 0.000000
vn -0.000000 1.000000 0.000000
vn -0.000000 1.000000 0.000000
vn -0.000000 1.000000 0.000000
vn -0.000000 1.000000 0.000000
vn -0.000000 1.000000 0.000000
vn -0.000000 -1.000000 0.000000
vn -0.000000 -1.000000 0.000000
vn -0.000000 -1.000000 0.000000
vn -0.000000 -1.000000 0.000000
vn -0.000000 -1.000000 0.000000
vn -0.000000 -1.000000 0.000000
vn -0.000000 0.000000 1.000000
vn -0.000000 0.000000 1.000000
vn -0.000000 0.000000 1.000000
vn -0.000000 0.000000 1.000000
vn -0.000000 0.000000 1.000000
vn -0.000000 0.000000 1.000000
vn -0.707107 0.000000 -0.707106
vn -0.707107 0.000000 -0.707106
vn -0.707107 0.000000 -0.707106
vn -0.707107 0.000000 -0.707107
vn -0.707107 0.000000 -0.707107
vn -0.707107 0.000000 -0.707107
vn 0.707106 0.000000 -0.707108
vn 0.707106 0.000000 -0.707108
vn 0.707106 0.000000 -0.707108
vn 0.707106 0.000000 -0.707108
vn 0.707106 0.000000 -0.707108
vn 0.707106 0.000000 -0.707108
vn 0.707107 0.000000 0.707106
vn 0.707107 0.000000 0.707106
vn 0.707107 0.000000 0.707106
vn 0.707107 0.000000 0.707106
vn 0.707107 0.000000 0.707106
vn 0.707107 0.000000 0.707106
vn -0.707107 0.000000 0.707107
vn -0.707107 0.000000 0.707107
vn -0.707107 0.000000 0.707107
vn -0.707107 0.000000 0.707106
vn -0.707107 0.000000 0.707106
vn -0.707107 0.000000 0.707106
vn -1.000000 0.000000 -0.000000
vn -1.000000 0.000000 -0.000000
vn -1.000000 0.000000 -0.000000
vn -1.000000 0.000000 0.000000
vn -1.000000 0.000000 0.000000
vn -1.000000 0.000000 0.000000
vn 0.000002 0.000000 -1.000000
vn 0.000002 0.000000 -1.000000
vn 0.000002 0.000000 -1.000000
vn 0.000002 0.000000 -1.000000
vn 0.000002 0.000000 -1.000000
vn 0.000002 0.000000 -1.000000
vn 1.000000 0.000000 0.000001
vn 1.000000 0.000000 0.000001
vn 1.000000 0.000000 0.000001
vn 1.000000 0.000000 0.000003
vn 1.000000 0.000000 0.000003
vn 1.000000 0.000000 0.000003
vn -0.000000 -1.000000 -0.000001
vn -0.000000 -1.000000 -0.000001
vn -0.000000 -1.000000 -0.000001
vn 0.000000 -1.000000 0.000001
vn 0.000000 -1.000000 0.000001
vn 0.000000 -1.000000 0.000001
vn 0.000000 -1.000000 -0.000001
vn 0.000000 -1.000000 -0.000001
vn 0.000000 -1.000000 -0.000001
vn -0.000001 -1.000000 0.000002
vn -0.000001 -1.000000 0.000002
vn -0.000001 -1.000000 0.000002
vn -0.000003 -1.000000 -0.000001
vn -0.000003 -1.000000 -0.000001
vn -0.000003 -1.000000 -0.000001
vn 0.000001 -1.000000 0.000001
vn 0.000001 -1.000000 0.000001
vn 0.000001 -1.000000 0.000001
vn 1.000000 0.000000 0.000000
vn 1.000000 0.000000 0.000000
vn 1.000000 0.000000 0.000000
vn 1.000000 0.000000 -0.000001
vn 1.000000 0.000000 -0.000001
vn 1.000000 0.000000 -0.000001
vn -0.707107 0.000000 0.707107
vn -0.707107 0.000000 0.707107
vn -0.707107 0.000000 0.707107
vn -0.707106 0.000000 0.707107
vn -0.707106 0.000000 0.707107
vn -0.707106 0.000000 0.707107
vn -0.707108 0.000000 -0.707106
vn -0.707108 0.000000 -0.707106
vn -0.707108 0.000000 -0.707106
vn -0.707107 0.000000 -0.707106
vn -0.707107 0.000000 -0.707106
vn -0.707107 0.000000 -0.707106
vn 0.707106 0.000000 -0.707107
vn 0.707106 0.000000 -0.707107
vn 0.707106 0.000000 -0.707107
vn 0.707107 0.000000 -0.707107
vn 0.707107 0.000000 -0.707107
vn 0.707107 0.000000 -0.707107
vn 0.707107 0.000000 0.707107
vn 0.707107 0.000000 0.707107
vn 0.707107 0.000000 0.707107
vn 0.707106 0.000000 0.707108
vn 0.707106 0.000000 0.707108
vn 0.707106 0.000000 0.707108
vn 0.000001 0.000000 1.000000
vn 0.000001 0.000000 1.000000
vn 0.000001 0.000000 1.000000
vn 0.000001 0.000000 1.000000
vn 0.000001 0.000000 1.000000
vn 0.000001 0.000000 1.000000
vn -1.000000 0.000000 -0.000001
vn -1.000000 0.000000 -0.000001
vn -1.000000 0.000000 -0.000001
vn -1.000000 0.000000 -0.000001
vn -1.000000 0.000000 -0.000001
vn -1.000000 0.000000 -0.000001
vn 0.000001 0.000000 -1.000000
vn 0.000001 0.000000 -1.000000
vn 0.000001 0.000000 -1.000000
vn 0.000001 0.000000 -1.000000
vn 0.000001 0.000000 -1.000000
vn 0.000001 0.000000 -1.000000
vn -0.000001 -1.000000 0.000000
vn -0.000001 -1.000000 0.000000
vn -0.000001 -1.000000 0.000000
vn 0.000002 -1.000000 -0.000000
vn 0.000002 -1.000000 -0.000000
vn 0.000002 -1.000000 -0.000000
vn -0.000001 -1.000000 -0.000000
vn -0.000001 -1.000000 -0.000000
vn -0.000001 -1.000000 -0.000000
vn 0.000003 -1.000000 0.000001
vn 0.000003 -1.000000 0.000001
vn 0.000003 -1.000000 0.000001
vn -0.000001 -1.000000 0.000002
vn -0.000001 -1.000000 0.000002
vn -0.000001 -1.000000 0.000002
vn 0.000001 -1.000000 -0.000001
vn 0.000001 -1.000000 -0.000001
vn 0.000001 -1.000000 -0.000001
vn -0.000002 0.000000 -1.000000
vn -0.000002 0.000000 -1.000000
vn -0.000002 0.000000 -1.000000
vn -0.000002 0.000000 -1.000000
vn -0.000002 0.000000 -1.000000
vn -0.000002 0.000000 -1.000000
vn 0.707107 0.000000 0.707107
vn 0.707107 0.000000 0.707107
vn 0.707107 0.000000 0.707107
vn 0.707107 0.000000 0.707107
vn 0.707107 0.000000 0.707107
vn 0.707107 0.000000 0.707107
vn -0.707107 0.000000 0.707107
vn -0.707107 0.000000 0.707107
vn -0.707107 0.000000 0.707107
vn -0.707105 0.000000 0.707108
vn -0.707105 0.000000 0.707108
vn -0.707105 0.000000 0.707108
vn -0.707107 0.000000 -0.707106
vn -0.707107 0.000000 -0.707106
vn -0.707107 0.000000 -0.707106
vn -0.707107 0.000000 -0.707106
vn -0.707107 0.000000 -0.707106
vn -0.707107 0.000000 -0.707106
vn 0.707107 0.000000 -0.707107
vn 0.707107 0.000000 -0.707107
vn 0.707107 0.000000 -0.707107
vn 0.707108 0.000000 -0.707106
vn 0.707108 0.000000 -0.707106
vn 0.707108 0.000000 -0.707106
vn 1.000000 0.000000 -0.000001
vn 1.000000 0.000000 -0.000001
vn 1.000000 0.000000 -0.000001
vn 1.000000 0.000000 -0.000001
vn 1.000000 0.000000 -0.000001
vn 1.000000 0.000000 -0.000001
vn -0.000001 0.000000 1.000000
vn -0.000001 0.000000 1.000000
vn -0.000001 0.000000 1.000000
vn -0.000001 0.000000 1.000000
vn -0.000001 0.000000 1.000000
vn -0.000001 0.000000 1.000000
vn -1.000000 0.000000 -0.000001
vn -1.000000 0.000000 -0.000001
vn -1.000000 0.000000 -0.000001
vn -1.000000 0.000000 0.000000
vn -1.000000 0.000000 0.000000
vn -1.000000 0.000000 0.000000
vn 0.000000 -1.000000 0.000001
vn 0.000000 -1.000000 0.000001
vn 0.000000 -1.000000 0.000001
vn -0.000000 -1.000000 -0.000001
vn -0.000000 -1.000000 -0.000001
vn -0.000000 -1.000000 -0.000001
vn -0.000000 -1.000000 0.000001
vn -0.000000 -1.000000 0.000001
vn -0.000000 -1.000000 0.000001
vn 0.000001 -1.000000 -0.000002
vn 0.000001 -1.000000 -0.000002
vn 0.000001 -1.000000 -0.000002
vn 0.000003 -1.000000 0.000001
vn 0.000003 -1.000000 0.000001
vn 0.000003 -1.000000 0.000001
vn -0.000001 -1.000000 -0.000001
vn -0.000001 -1.000000 -0.000001
vn -0.000001 -1.000000 -0.000001
vn -1.000000 0.000000 0.000002
vn -1.000000 0.000000 0.000002
vn -1.000000 0.000000 0.000002
vn -1.000000 0.000000 0.000001
vn -1.000000 0.000000 0.000001
vn -1.000000 0.000000 0.000001
vn 0.707107 0.000000 -0.707107
vn 0.707107 0.000000 -0.707107
vn 0.707107 0.000000 -0.707107
vn 0.707106 0.000000 -0.707107
vn 0.707106 0.000000 -0.707107
vn 0.707106 0.000000 -0.707107
vn 0.707108 0.000000 0.707106
vn 0.707108 0.000000 0.707106
vn 0.707108 0.000000 0.707106
vn 0.707107 0.000000 0.707106
vn 0.707107 0.000000 0.707106
vn 0.707107 0.000000 0.707106
vn -0.707106 0.000000 0.707107
vn -0.707106 0.000000 0.707107
vn -0.707106 0.000000 0.707107
vn -0.707107 0.000000 0.707107
vn -0.707107 0.000000 0.707107
vn -0.707107 0.000000 0.707107
vn -0.707107 0.000000 -0.707107
vn -0.707107 0.000000 -0.707107
vn -0.707107 0.000000 -0.707107
vn -0.707106 0.000000 -0.707108
vn -0.707106 0.000000 -0.707108
vn -0.707106 0.000000 -0.707108
vn -0.000002 0.000000 -1.000000
vn -0.000002 0.000000 -1.000000
vn -0.000002 0.000000 -1.000000
vn -0.000002 0.000000 -1.000000
vn -0.000002 0.000000 -1.000000
vn -0.000002 0.000000 -1.000000
vn 1.000000 0.000000 0.000001
vn 1.000000 0.000000 0.000001
vn 1.000000 0.000000 0.000001
vn 1.000000 0.000000 0.000000
vn 1.000000 0.000000 0.000000
vn 1.000000 0.000000 0.000000
vn -0.000000 0.000000 1.000000
vn -0.000000 0.000000 1.000000
vn -0.000000 0.000000 1.000000
vn -0.000000 0.000000 1.000000
vn -0.000000 0.000000 1.000000
vn -0.000000 0.000000 1.000000
vn 0.000001 -1.000000 -0.000000
vn 0.000001 -1.000000 -0.000000
vn 0.000001 -1.000000 -0.000000
vn -0.000002 -1.000000 0.000000
vn -0.000002 -1.000000 0.000000
vn -0.000002 -1.000000 0.000000
vn 0.000001 -1.000000 0.000000
vn 0.000001 -1.000000 0.000000
vn 0.000001 -1.000000 0.000000
vn -0.000003 -1.000000 -0.000001
vn -0.000003 -1.000000 -0.000001
vn -0.000003 -1.000000 -0.000001
vn 0.000001 -1.000000 -0.000002
vn 0.000001 -1.000000 -0.000002
vn 0.000001 -1.000000 -0.000002
vn -0.000001 -1.000000 0.000001
vn -0.000001 -1.000000 0.000001
vn -0.000001 -1.000000 0.000001

g Material.003
f 3/1/1 1/2/2 2/3/3
f 4/4/4 1/5/5 3/6/6
f 7/7/7 5/8/8 6/9/9
f 8/10/10 5/11/11 7/12/12
f 11/13/13 9/14/14 10/15/15
f 12/16/16 9/17/17 11/18/18
f 15/19/19 13/20/20 14/21/21
f 16/22/22 13/23/23 15/24/24
f 19/25/25 17/26/26 18/27/27
f 20/28/28 17/29/29 19/30/30
f 247/31/31 245/32/32 246/33/33
f 248/34/34 245/35/35 247/36/36
f 251/37/37 249/38/38 250/39/39
f 252/40/40 249/41/41 251/42/42
f 255/43/43 253/44/44 254/45/45
f 256/46/46 253/47/47 255/48/48
f 259/49/49 257/50/50 258/51/51
f 262/52/52 260/53/53 261/54/54
f 263/55/55 260/56/56 262/57/57
f 266/58/58 264/59/59 265/60/60
f 269/61/61 267/62/62 268/63/63
f 270/64/64 267/65/65 269/66/66
f 273/67/67 271/68/68 272/69/69
f 274/70/70 271/71/71 273/72/72
f 277/73/73 275/74/74 276/75/75
f 278/76/76 275/77/77 277/78/78
f 281/79/79 279/80/80 280/81/81
f 282/82/82 279/83/83 281/84/84
f 285/85/85 283/86/86 284/87/87
f 286/88/88 283/89/89 285/90/90
f 289/91/91 287/92/92 288/93/93
f 290/94/94 287/95/95 289/96/96
f 293/97/97 291/98/98 292/99/99
f 294/100/100 291/101/101 293/102/102
f 297/103/103 295/104/104 296/105/105
f 298/106/106 295/107/107 297/108/108
f 301/109/109 299/110/110 300/111/111
f 302/112/112 299/113/113 301/114/114
f 305/115/115 303/116/116 304/117/117
f 308/118/118 306/119/119 307/120/120
f 311/121/121 309/122/122 310/123/123
f 314/124/124 312/125/125 313/126/126
f 317/127/127 315/128/128 316/129/129
f 320/130/130 318/131/131 319/132/132
f 323/133/133 321/134/134 322/135/135
f 324/136/136 321/137/137 323/138/138
f 327/139/139 325/140/140 326/141/141
f 328/142/142 325/143/143 327/144/144

g Material
f 23/145/145 21/146/146 22/147/147
f 24/148/148 21/149/149 23/150/150
f 27/151/151 25/152/152 26/153/153
f 28/154/154 25/155/155 27/156/156
f 31/157/157 29/158/158 30/159/159
f 32/160/160 29/161/161 31/162/162
f 35/163/163 33/164/164 34/165/165
f 36/166/166 33/167/167 35/168/168
f 39/169/169 37/170/170 38/171/171
f 40/172/172 37/173/173 39/174/174
f 243/175/175 241/176/176 242/177/177
f 244/178/178 241/179/179 243/180/180

g Material.004
f 43/181/181 41/182/182 42/183/183
f 44/184/184 41/185/185 43/186/186
f 47/187/187 45/188/188 46/189/189
f 48/190/190 45/191/191 47/192/192
f 51/193/193 49/194/194 50/195/195
f 52/196/196 49/197/197 51/198/198
f 55/199/199 53/200/200 54/201/201
f 56/202/202 53/203/203 55/204/204
f 59/205/205 57/206/206 58/207/207
f 60/208/208 57/209/209 59/210/210
f 63/211/211 61/212/212 62/213/213
f 64/214/214 61/215/215 63/216/216
f 67/217/217 65/218/218 66/219/219
f 68/220/220 65/221/221 67/222/222
f 71/223/223 69/224/224 70/225/225
f 72/226/226 69/227/227 71/228/228
f 75/229/229 73/230/230 74/231/231
f 78/232/232 76/233/233 77/234/234
f 81/235/235 79/236/236 80/237/237
f 84/238/238 82/239/239 83/240/240
f 87/241/241 85/242/242 86/243/243
f 90/244/244 88/245/245 89/246/246
f 93/247/247 91/248/248 92/249/249
f 94/250/250 91/251/251 93/252/252
f 97/253/253 95/254/254 96/255/255
f 98/256/256 95/257/257 97/258/258
f 101/259/259 99/260/260 100/261/261
f 102/262/262 99/263/263 101/264/264
f 105/265/265 103/266/266 104/267/267
f 106/268/268 103/269/269 105/270/270
f 109/271/271 107/272/272 108/273/273
f 110/274/274 107/275/275 109/276/276
f 113/277/277 111/278/278 112/279/279
f 114/280/280 111/281/281 113/282/282
f 117/283/283 115/284/284 116/285/285
f 118/286/286 115/287/287 117/288/288
f 121/289/289 119/290/290 120/291/291
f 122/292/292 119/293/293 121/294/294
f 125/295/295 123/296/296 124/297/297
f 128/298/298 126/299/299 127/300/300
f 131/301/301 129/302/302 130/303/303
f 134/304/304 132/305/305 133/306/306
f 137/307/307 135/308/308 136/309/309
f 140/310/310 138/311/311 139/312/312
f 143/313/313 141/314/314 142/315/315
f 144/316/316 141/317/317 143/318/318
f 147/319/319 145/320/320 146/321/321
f 148/322/322 145/323/323 147/324/324
f 151/325/325 149/326/326 150/327/327
f 152/328/328 149/329/329 151/330/330
f 155/331/331 153/332/332 154/333/333
f 156/334/334 153/335/335 155/336/336
f 159/337/337 157/338/338 158/339/339
f 160/340/340 157/341/341 159/342/342
f 163/343/343 161/344/344 162/345/345
f 164/346/346 161/347/347 163/348/348
f 167/349/349 165/350/350 166/351/351
f 168/352/352 165/353/353 167/354/354
f 171/355/355 169/356/356 170/357/357
f 172/358/358 169/359/359 171/360/360
f 175/361/361 173/362/362 174/363/363
f 178/364/364 176/365/365 177/366/366
f 181/367/367 179/368/368 180/369/369
f 184/370/370 182/371/371 183/372/372
f 187/373/373 185/374/374 186/375/375
f 190/376/376 188/377/377 189/378/378
f 193/379/379 191/380/380 192/381/381
f 194/382/382 191/383/383 193/384/384
f 197/385/385 195/386/386 196/387/387
f 198/388/388 195/389/389 197/390/390
f 201/391/391 199/392/392 200/393/393
f 202/394/394 199/395/395 201/396/396
f 205/397/397 203/398/398 204/399/399
f 206/400/400 203/401/401 205/402/402
f 209/403/403 207/404/404 208/405/405
f 210/406/406 207/407/407 209/408/408
f 213/409/409 211/410/410 212/411/411
f 214/412/412 211/413/413 213/414/414
f 217/415/415 215/416/416 216/417/417
f 218/418/418 215/419/419 217/420/420
f 221/421/421 219/422/422 220/423/423
f 222/424/424 219/425/425 221/426/426
f 225/427/427 223/428/428 224/429/429
f 228/430/430 226/431/431 227/432/432
f 231/433/433 229/434/434 230/435/435
f 234/436/436 232/437/437 233/438/438
f 237/439/439 235/440/440 236/441/441
f 240/442/442 238/443/443 239/444/444

