# Converted from B3D for Luanti (With Correct Normals)
# Object Name: multidecor_cast_iron_pan

v 0.000000 -1.000000 0.506250
v 0.000000 -0.687500 0.625000
v -0.441942 -0.687500 0.441942
v -0.357973 -1.000000 0.357973
v -0.357973 -1.000000 0.357973
v -0.441942 -0.687500 0.441942
v -0.625000 -0.687500 -0.000000
v -0.506250 -1.000000 -0.000000
v -0.506250 -1.000000 -0.000000
v -0.625000 -0.687500 -0.000000
v -0.441942 -0.687500 -0.441942
v -0.357973 -1.000000 -0.357973
v -0.357973 -1.000000 -0.357973
v -0.441942 -0.687500 -0.441942
v 0.000000 -0.687500 -0.625000
v 0.000000 -1.000000 -0.506250
v 0.000000 -1.000000 -0.506250
v 0.000000 -0.687500 -0.625000
v 0.441942 -0.687500 -0.441942
v 0.357973 -1.000000 -0.357973
v 0.357973 -1.000000 -0.357973
v 0.441942 -0.687500 -0.441942
v 0.625000 -0.687500 0.000000
v 0.506250 -1.000000 0.000000
v 0.506250 -1.000000 0.000000
v 0.625000 -0.687500 0.000000
v 0.441942 -0.687500 0.441942
v 0.357973 -1.000000 0.357973
v 0.357973 -1.000000 0.357973
v 0.441942 -0.687500 0.441942
v 0.000000 -0.687500 0.625000
v 0.000000 -1.000000 0.506250
v -0.357973 -1.000000 -0.357973
v 0.357973 -1.000000 -0.357973
v 0.357973 -1.000000 0.357973
v 0.000000 -0.953125 0.430312
v -0.304277 -0.953125 0.304277
v -0.375650 -0.687500 0.375650
v 0.000000 -0.687500 0.531250
v -0.304277 -0.953125 0.304277
v -0.430312 -0.953125 -0.000000
v -0.531250 -0.687500 -0.000000
v -0.375650 -0.687500 0.375650
v -0.430312 -0.953125 -0.000000
v -0.304277 -0.953125 -0.304277
v -0.375650 -0.687500 -0.375650
v -0.531250 -0.687500 -0.000000
v -0.304277 -0.953125 -0.304277
v 0.000000 -0.953125 -0.430312
v 0.000000 -0.687500 -0.531250
v -0.375650 -0.687500 -0.375650
v 0.000000 -0.953125 -0.430312
v 0.304277 -0.953125 -0.304277
v 0.375651 -0.687500 -0.375650
v 0.000000 -0.687500 -0.531250
v 0.304277 -0.953125 -0.304277
v 0.430312 -0.953125 0.000000
v 0.531250 -0.687500 0.000000
v 0.375651 -0.687500 -0.375650
v 0.430312 -0.953125 0.000000
v 0.304277 -0.953125 0.304277
v 0.375651 -0.687500 0.375650
v 0.531250 -0.687500 0.000000
v 0.304277 -0.953125 0.304277
v 0.000000 -0.953125 0.430312
v 0.000000 -0.687500 0.531250
v 0.375651 -0.687500 0.375650
v -0.304277 -0.953125 -0.304277
v 0.304277 -0.953125 0.304277
v 0.304277 -0.953125 -0.304277
v 0.625000 -0.687500 0.000000
v 0.531250 -0.687500 0.000000
v 0.375651 -0.687500 0.375650
v 0.441942 -0.687500 0.441942
v 0.441942 -0.687500 0.441942
v 0.375651 -0.687500 0.375650
v 0.000000 -0.687500 0.531250
v 0.000000 -0.687500 0.625000
v 0.000000 -0.687500 0.625000
v 0.000000 -0.687500 0.531250
v -0.375650 -0.687500 0.375650
v -0.441942 -0.687500 0.441942
v -0.441942 -0.687500 0.441942
v -0.375650 -0.687500 0.375650
v -0.531250 -0.687500 -0.000000
v -0.625000 -0.687500 -0.000000
v -0.625000 -0.687500 -0.000000
v -0.531250 -0.687500 -0.000000
v -0.375650 -0.687500 -0.375650
v -0.441942 -0.687500 -0.441942
v -0.441942 -0.687500 -0.441942
v -0.375650 -0.687500 -0.375650
v 0.000000 -0.687500 -0.531250
v 0.000000 -0.687500 -0.625000
v 0.000000 -0.687500 -0.625000
v 0.000000 -0.687500 -0.531250
v 0.375651 -0.687500 -0.375650
v 0.441942 -0.687500 -0.441942
v 0.441942 -0.687500 -0.441942
v 0.375651 -0.687500 -0.375650
v 0.531250 -0.687500 0.000000
v 0.625000 -0.687500 0.000000
v -0.531250 -0.843750 0.093750
v -0.531250 -0.750000 0.093750
v -1.500000 -0.750000 0.093750
v -1.500000 -0.843750 0.093750
v -1.500000 -0.843750 0.093750
v -1.500000 -0.750000 0.093750
v -1.500000 -0.750000 -0.093750
v -1.500000 -0.843750 -0.093750
v -1.500000 -0.843750 -0.093750
v -1.500000 -0.750000 -0.093750
v -0.531250 -0.750000 -0.093750
v -0.531250 -0.843750 -0.093750
v -0.531250 -0.843750 0.093750
v -1.500000 -0.843750 0.093750
v -1.500000 -0.843750 -0.093750
v -0.531250 -0.843750 -0.093750
v -1.500000 -0.750000 0.093750
v -0.531250 -0.750000 0.093750
v -0.531250 -0.750000 -0.093750
v -1.500000 -0.750000 -0.093750
v 0.357973 -1.000000 0.357973
v 0.000000 -1.000000 0.506250
v -0.357973 -1.000000 0.357973
v -0.357973 -1.000000 0.357973
v -0.506250 -1.000000 -0.000000
v 0.357973 -1.000000 0.357973
v -0.506250 -1.000000 -0.000000
v -0.357973 -1.000000 -0.357973
v 0.357973 -1.000000 0.357973
v -0.357973 -1.000000 -0.357973
v 0.000000 -1.000000 -0.506250
v 0.357973 -1.000000 -0.357973
v 0.357973 -1.000000 -0.357973
v 0.506250 -1.000000 0.000000
v 0.357973 -1.000000 0.357973
v 0.304277 -0.953125 0.304277
v -0.304277 -0.953125 -0.304277
v 0.000000 -0.953125 0.430312
v 0.000000 -0.953125 0.430312
v -0.304277 -0.953125 -0.304277
v -0.304277 -0.953125 0.304277
v -0.304277 -0.953125 0.304277
v -0.304277 -0.953125 -0.304277
v -0.430312 -0.953125 -0.000000
v -0.304277 -0.953125 -0.304277
v 0.304277 -0.953125 -0.304277
v 0.000000 -0.953125 -0.430312
v 0.304277 -0.953125 -0.304277
v 0.304277 -0.953125 0.304277
v 0.430312 -0.953125 0.000000

vt 0.966572 0.513469
vt 0.793634 0.381162
vt 0.775480 0.513469
vt 0.948418 0.381162
vt 0.793634 0.381162
vt 0.966572 0.513469
vt 1.157664 0.513469
vt 0.984726 0.381162
vt 0.966572 0.513469
vt 1.139510 0.381162
vt 0.984726 0.381162
vt 1.157664 0.513469
vt 1.157664 0.513469
vt 1.330602 0.381162
vt 1.348756 0.513469
vt 1.175817 0.381162
vt 1.330602 0.381162
vt 1.157664 0.513469
vt 1.348756 0.513469
vt 1.521694 0.381162
vt 1.539848 0.513469
vt 1.366910 0.381162
vt 1.521694 0.381162
vt 1.348756 0.513469
vt 0.011112 0.513469
vt 0.184051 0.381162
vt 0.202204 0.513469
vt 0.029266 0.381162
vt 0.184051 0.381162
vt 0.011112 0.513469
vt 0.202204 0.513469
vt 0.375142 0.381162
vt 0.393296 0.513469
vt 0.220358 0.381162
vt 0.375142 0.381162
vt 0.202204 0.513469
vt 0.393296 0.513469
vt 0.566234 0.381162
vt 0.584388 0.513469
vt 0.411450 0.381162
vt 0.566234 0.381162
vt 0.393296 0.513469
vt 0.584388 0.513469
vt 0.757326 0.381162
vt 0.775480 0.513468
vt 0.602542 0.381162
vt 0.757326 0.381162
vt 0.584388 0.513469
vt 0.000285 0.109734
vt 0.373968 0.264518
vt 0.109734 0.373968
vt 0.952240 0.548069
vt 0.805243 0.660529
vt 0.936809 0.660529
vt 0.789812 0.548069
vt 0.805243 0.660529
vt 0.952240 0.548069
vt 1.143332 0.548069
vt 0.996334 0.660529
vt 1.127901 0.660529
vt 0.980904 0.548069
vt 0.996334 0.660529
vt 1.143332 0.548069
vt 1.171996 0.548069
vt 1.318993 0.660529
vt 1.187426 0.660529
vt 1.334424 0.548069
vt 1.318993 0.660529
vt 1.171996 0.548069
vt 1.363088 0.548069
vt 1.510085 0.660529
vt 1.378518 0.660529
vt 1.525516 0.548069
vt 1.510085 0.660529
vt 1.363088 0.548069
vt 0.025444 0.548069
vt 0.172442 0.660529
vt 0.040875 0.660529
vt 0.187872 0.548069
vt 0.172442 0.660529
vt 0.025444 0.548069
vt 0.216536 0.548069
vt 0.363534 0.660530
vt 0.231967 0.660530
vt 0.378964 0.548069
vt 0.363534 0.660530
vt 0.216536 0.548069
vt 0.407628 0.548069
vt 0.554625 0.660529
vt 0.423059 0.660529
vt 0.570056 0.548069
vt 0.554625 0.660529
vt 0.407628 0.548069
vt 0.598720 0.548069
vt 0.745717 0.660529
vt 0.614151 0.660529
vt 0.761148 0.548069
vt 0.745717 0.660529
vt 0.598720 0.548069
vt 0.317915 0.467569
vt 0.093317 0.374537
vt 0.224883 0.692168
vt 0.407628 0.548069
vt 0.584388 0.513469
vt 0.570056 0.548069
vt 0.393296 0.513469
vt 0.584388 0.513469
vt 0.407628 0.548069
vt 0.598720 0.548069
vt 0.775480 0.513468
vt 0.761148 0.548069
vt 0.584388 0.513469
vt 0.775480 0.513468
vt 0.598720 0.548069
vt 0.952240 0.548069
vt 0.775480 0.513469
vt 0.789812 0.548069
vt 0.966572 0.513469
vt 0.775480 0.513469
vt 0.952240 0.548069
vt 1.143332 0.548069
vt 0.966572 0.513469
vt 0.980904 0.548069
vt 1.157664 0.513469
vt 0.966572 0.513469
vt 1.143332 0.548069
vt 1.171996 0.548069
vt 1.348756 0.513469
vt 1.334424 0.548069
vt 1.157664 0.513469
vt 1.348756 0.513469
vt 1.171996 0.548069
vt 1.363088 0.548069
vt 1.539848 0.513469
vt 1.525516 0.548069
vt 1.348756 0.513469
vt 1.539848 0.513469
vt 1.363088 0.548069
vt 0.025444 0.548069
vt 0.202204 0.513469
vt 0.187872 0.548069
vt 0.011112 0.513469
vt 0.202204 0.513469
vt 0.025444 0.548069
vt 0.216536 0.548069
vt 0.393296 0.513469
vt 0.378964 0.548069
vt 0.202204 0.513469
vt 0.393296 0.513469
vt 0.216536 0.548069
vt 0.264518 0.000285
vt 0.000285 0.109734
vt 0.109734 0.000285
vt 0.000285 0.109734
vt 0.264518 0.000285
vt 0.373968 0.109734
vt 0.000285 0.109734
vt 0.373968 0.109734
vt 0.373968 0.264518
vt 0.109734 0.373968
vt 0.373968 0.264518
vt 0.264518 0.373968
vt 0.000285 0.109734
vt 0.109734 0.373968
vt 0.000285 0.264518
vt 0.093317 0.692168
vt 0.224883 0.692168
vt 0.093317 0.374537
vt 0.000285 0.599136
vt 0.093317 0.692168
vt 0.093317 0.374537
vt 0.000285 0.467569
vt 0.000285 0.599136
vt 0.093317 0.374537
vt 0.224884 0.374537
vt 0.093317 0.374537
vt 0.317915 0.467569
vt 0.317915 0.599136
vt 0.317915 0.467569
vt 0.224883 0.692168
vt 0.524341 0.387279
vt 0.486890 0.000285
vt 0.524342 0.000285
vt 0.486890 0.387279
vt 0.486890 0.000285
vt 0.524341 0.387279
vt 0.599244 0.387279
vt 0.524341 0.424730
vt 0.524341 0.387279
vt 0.599244 0.424730
vt 0.524341 0.424730
vt 0.599244 0.387279
vt 0.374537 0.000285
vt 0.411988 0.387279
vt 0.374537 0.387279
vt 0.411988 0.000285
vt 0.411988 0.387279
vt 0.374537 0.000285
vt 0.411988 0.387279
vt 0.486890 0.000285
vt 0.486890 0.387279
vt 0.411988 0.000285
vt 0.486890 0.000285
vt 0.411988 0.387279
vt 0.599244 0.000285
vt 0.524341 0.387279
vt 0.524342 0.000285
vt 0.599244 0.387279
vt 0.524341 0.387279
vt 0.599244 0.000285

vn -0.361078 -0.331253 0.871719
vn -0.361078 -0.331253 0.871719
vn -0.361078 -0.331253 0.871719
vn -0.361078 -0.331253 0.871719
vn -0.361078 -0.331253 0.871719
vn -0.361078 -0.331253 0.871719
vn -0.871719 -0.331253 0.361078
vn -0.871719 -0.331253 0.361078
vn -0.871719 -0.331253 0.361078
vn -0.871719 -0.331253 0.361078
vn -0.871719 -0.331253 0.361078
vn -0.871719 -0.331253 0.361078
vn -0.871719 -0.331253 -0.361078
vn -0.871719 -0.331253 -0.361078
vn -0.871719 -0.331253 -0.361078
vn -0.871719 -0.331253 -0.361078
vn -0.871719 -0.331253 -0.361078
vn -0.871719 -0.331253 -0.361078
vn -0.361078 -0.331253 -0.871719
vn -0.361078 -0.331253 -0.871719
vn -0.361078 -0.331253 -0.871719
vn -0.361078 -0.331253 -0.871719
vn -0.361078 -0.331253 -0.871719
vn -0.361078 -0.331253 -0.871719
vn 0.361078 -0.331253 -0.871719
vn 0.361078 -0.331253 -0.871719
vn 0.361078 -0.331253 -0.871719
vn 0.361078 -0.331253 -0.871719
vn 0.361078 -0.331253 -0.871719
vn 0.361078 -0.331253 -0.871719
vn 0.871719 -0.331253 -0.361078
vn 0.871719 -0.331253 -0.361078
vn 0.871719 -0.331253 -0.361078
vn 0.871719 -0.331253 -0.361078
vn 0.871719 -0.331253 -0.361078
vn 0.871719 -0.331253 -0.361078
vn 0.871719 -0.331253 0.361078
vn 0.871719 -0.331253 0.361078
vn 0.871719 -0.331253 0.361078
vn 0.871719 -0.331253 0.361078
vn 0.871719 -0.331253 0.361078
vn 0.871719 -0.331253 0.361078
vn 0.361078 -0.331253 0.871719
vn 0.361078 -0.331253 0.871719
vn 0.361078 -0.331253 0.871719
vn 0.361078 -0.331253 0.871719
vn 0.361078 -0.331253 0.871719
vn 0.361078 -0.331253 0.871719
vn 0.000000 -1.000000 0.000000
vn 0.000000 -1.000000 0.000000
vn 0.000000 -1.000000 0.000000
vn 0.361078 0.331253 -0.871719
vn 0.361078 0.331253 -0.871719
vn 0.361078 0.331253 -0.871719
vn 0.361078 0.331253 -0.871719
vn 0.361078 0.331253 -0.871719
vn 0.361078 0.331253 -0.871719
vn 0.871719 0.331253 -0.361078
vn 0.871719 0.331253 -0.361078
vn 0.871719 0.331253 -0.361078
vn 0.871719 0.331253 -0.361078
vn 0.871719 0.331253 -0.361078
vn 0.871719 0.331253 -0.361078
vn 0.871719 0.331253 0.361078
vn 0.871719 0.331253 0.361078
vn 0.871719 0.331253 0.361078
vn 0.871719 0.331253 0.361078
vn 0.871719 0.331253 0.361078
vn 0.871719 0.331253 0.361078
vn 0.361078 0.331253 0.871719
vn 0.361078 0.331253 0.871719
vn 0.361078 0.331253 0.871719
vn 0.361078 0.331253 0.871719
vn 0.361078 0.331253 0.871719
vn 0.361078 0.331253 0.871719
vn -0.361078 0.331253 0.871719
vn -0.361078 0.331253 0.871719
vn -0.361078 0.331253 0.871719
vn -0.361078 0.331253 0.871719
vn -0.361078 0.331253 0.871719
vn -0.361078 0.331253 0.871719
vn -0.871719 0.331253 0.361078
vn -0.871719 0.331253 0.361078
vn -0.871719 0.331253 0.361078
vn -0.871719 0.331253 0.361078
vn -0.871719 0.331253 0.361078
vn -0.871719 0.331253 0.361078
vn -0.871719 0.331253 -0.361078
vn -0.871719 0.331253 -0.361078
vn -0.871719 0.331253 -0.361078
vn -0.871719 0.331253 -0.361078
vn -0.871719 0.331253 -0.361078
vn -0.871719 0.331253 -0.361078
vn -0.361078 0.331253 -0.871719
vn -0.361078 0.331253 -0.871719
vn -0.361078 0.331253 -0.871719
vn -0.361078 0.331253 -0.871719
vn -0.361078 0.331253 -0.871719
vn -0.361078 0.331253 -0.871719
vn -0.000000 1.000000 0.000000
vn -0.000000 1.000000 0.000000
vn -0.000000 1.000000 0.000000
vn 0.000000 1.000000 0.000000
vn 0.000000 1.000000 0.000000
vn 0.000000 1.000000 0.000000
vn -0.000000 1.000000 0.000000
vn -0.000000 1.000000 0.000000
vn -0.000000 1.000000 0.000000
vn -0.000000 1.000000 0.000000
vn -0.000000 1.000000 0.000000
vn -0.000000 1.000000 0.000000
vn -0.000000 1.000000 0.000000
vn -0.000000 1.000000 0.000000
vn -0.000000 1.000000 0.000000
vn -0.000000 1.000000 0.000000
vn -0.000000 1.000000 0.000000
vn -0.000000 1.000000 0.000000
vn 0.000001 1.000000 0.000000
vn 0.000001 1.000000 0.000000
vn 0.000001 1.000000 0.000000
vn -0.000000 1.000000 0.000000
vn -0.000000 1.000000 0.000000
vn -0.000000 1.000000 0.000000
vn -0.000000 1.000000 0.000000
vn -0.000000 1.000000 0.000000
vn -0.000000 1.000000 0.000000
vn -0.000000 1.000000 0.000000
vn -0.000000 1.000000 0.000000
vn -0.000000 1.000000 0.000000
vn 0.000001 1.000000 0.000000
vn 0.000001 1.000000 0.000000
vn 0.000001 1.000000 0.000000
vn 0.000000 1.000000 0.000000
vn 0.000000 1.000000 0.000000
vn 0.000000 1.000000 0.000000
vn 0.000000 1.000000 0.000000
vn 0.000000 1.000000 0.000000
vn 0.000000 1.000000 0.000000
vn -0.000000 1.000000 0.000000
vn -0.000000 1.000000 0.000000
vn -0.000000 1.000000 0.000000
vn -0.000001 1.000000 0.000000
vn -0.000001 1.000000 0.000000
vn -0.000001 1.000000 0.000000
vn 0.000000 1.000000 0.000000
vn 0.000000 1.000000 0.000000
vn 0.000000 1.000000 0.000000
vn -0.000000 1.000000 0.000000
vn -0.000000 1.000000 0.000000
vn -0.000000 1.000000 0.000000
vn -0.000000 -1.000000 0.000000
vn -0.000000 -1.000000 0.000000
vn -0.000000 -1.000000 0.000000
vn -0.000000 -1.000000 0.000000
vn -0.000000 -1.000000 0.000000
vn -0.000000 -1.000000 0.000000
vn -0.000000 -1.000000 0.000000
vn -0.000000 -1.000000 0.000000
vn -0.000000 -1.000000 0.000000
vn -0.000000 -1.000000 0.000000
vn -0.000000 -1.000000 0.000000
vn -0.000000 -1.000000 0.000000
vn -0.000000 -1.000000 0.000000
vn -0.000000 -1.000000 0.000000
vn -0.000000 -1.000000 0.000000
vn -0.000000 1.000000 0.000000
vn -0.000000 1.000000 0.000000
vn -0.000000 1.000000 0.000000
vn -0.000001 1.000000 0.000000
vn -0.000001 1.000000 0.000000
vn -0.000001 1.000000 0.000000
vn -0.000000 1.000000 0.000000
vn -0.000000 1.000000 0.000000
vn -0.000000 1.000000 0.000000
vn 0.000000 1.000000 0.000000
vn 0.000000 1.000000 0.000000
vn 0.000000 1.000000 0.000000
vn -0.000000 1.000000 0.000000
vn -0.000000 1.000000 0.000000
vn -0.000000 1.000000 0.000000
vn -0.000000 0.000000 1.000000
vn -0.000000 0.000000 1.000000
vn -0.000000 0.000000 1.000000
vn -0.000000 0.000000 1.000000
vn -0.000000 0.000000 1.000000
vn -0.000000 0.000000 1.000000
vn -1.000000 0.000000 0.000000
vn -1.000000 0.000000 0.000000
vn -1.000000 0.000000 0.000000
vn -1.000000 0.000000 0.000000
vn -1.000000 0.000000 0.000000
vn -1.000000 0.000000 0.000000
vn -0.000000 0.000000 -1.000000
vn -0.000000 0.000000 -1.000000
vn -0.000000 0.000000 -1.000000
vn -0.000000 0.000000 -1.000000
vn -0.000000 0.000000 -1.000000
vn -0.000000 0.000000 -1.000000
vn -0.000000 -1.000000 0.000000
vn -0.000000 -1.000000 0.000000
vn -0.000000 -1.000000 0.000000
vn -0.000000 -1.000000 0.000000
vn -0.000000 -1.000000 0.000000
vn -0.000000 -1.000000 0.000000
vn -0.000000 1.000000 0.000000
vn -0.000000 1.000000 0.000000
vn -0.000000 1.000000 0.000000
vn -0.000000 1.000000 0.000000
vn -0.000000 1.000000 0.000000
vn -0.000000 1.000000 0.000000

g Material.001
f 3/1/1 1/2/2 2/3/3
f 4/4/4 1/5/5 3/6/6
f 7/7/7 5/8/8 6/9/9
f 8/10/10 5/11/11 7/12/12
f 11/13/13 9/14/14 10/15/15
f 12/16/16 9/17/17 11/18/18
f 15/19/19 13/20/20 14/21/21
f 16/22/22 13/23/23 15/24/24
f 19/25/25 17/26/26 18/27/27
f 20/28/28 17/29/29 19/30/30
f 23/31/31 21/32/32 22/33/33
f 24/34/34 21/35/35 23/36/36
f 27/37/37 25/38/38 26/39/39
f 28/40/40 25/41/41 27/42/42
f 31/43/43 29/44/44 30/45/45
f 32/46/46 29/47/47 31/48/48
f 35/49/49 33/50/50 34/51/51
f 38/52/52 36/53/53 37/54/54
f 39/55/55 36/56/56 38/57/57
f 42/58/58 40/59/59 41/60/60
f 43/61/61 40/62/62 42/63/63
f 46/64/64 44/65/65 45/66/66
f 47/67/67 44/68/68 46/69/69
f 50/70/70 48/71/71 49/72/72
f 51/73/73 48/74/74 50/75/75
f 54/76/76 52/77/77 53/78/78
f 55/79/79 52/80/80 54/81/81
f 58/82/82 56/83/83 57/84/84
f 59/85/85 56/86/86 58/87/87
f 62/88/88 60/89/89 61/90/90
f 63/91/91 60/92/92 62/93/93
f 66/94/94 64/95/95 65/96/96
f 67/97/97 64/98/98 66/99/99
f 70/100/100 68/101/101 69/102/102
f 73/103/103 71/104/104 72/105/105
f 74/106/106 71/107/107 73/108/108
f 77/109/109 75/110/110 76/111/111
f 78/112/112 75/113/113 77/114/114
f 81/115/115 79/116/116 80/117/117
f 82/118/118 79/119/119 81/120/120
f 85/121/121 83/122/122 84/123/123
f 86/124/124 83/125/125 85/126/126
f 89/127/127 87/128/128 88/129/129
f 90/130/130 87/131/131 89/132/132
f 93/133/133 91/134/134 92/135/135
f 94/136/136 91/137/137 93/138/138
f 97/139/139 95/140/140 96/141/141
f 98/142/142 95/143/143 97/144/144
f 101/145/145 99/146/146 100/147/147
f 102/148/148 99/149/149 101/150/150
f 125/151/151 123/152/152 124/153/153
f 128/154/154 126/155/155 127/156/156
f 131/157/157 129/158/158 130/159/159
f 134/160/160 132/161/161 133/162/162
f 137/163/163 135/164/164 136/165/165
f 140/166/166 138/167/167 139/168/168
f 143/169/169 141/170/170 142/171/171
f 146/172/172 144/173/173 145/174/174
f 149/175/175 147/176/176 148/177/177
f 152/178/178 150/179/179 151/180/180

g Material.002
f 105/181/181 103/182/182 104/183/183
f 106/184/184 103/185/185 105/186/186
f 109/187/187 107/188/188 108/189/189
f 110/190/190 107/191/191 109/192/192
f 113/193/193 111/194/194 112/195/195
f 114/196/196 111/197/197 113/198/198
f 117/199/199 115/200/200 116/201/201
f 118/202/202 115/203/203 117/204/204
f 121/205/205 119/206/206 120/207/207
f 122/208/208 119/209/209 121/210/210

