# Converted from B3D for Luanti (With Correct Normals)
# Object Name: multidecor_kitchen_cutlery_organiser

v -0.150000 -0.200000 0.050000
v -0.125000 -0.200000 0.050000
v -0.125000 -0.800000 0.050000
v -0.150000 -0.800000 0.050000
v -0.050000 -0.200000 0.315000
v -0.075000 -0.200000 0.315000
v -0.075000 -0.800000 0.315000
v -0.050000 -0.800000 0.315000
v -0.150000 -0.200000 0.650000
v -0.150000 -0.200000 0.335000
v -0.150000 -0.800000 0.335000
v -0.150000 -0.800000 0.650000
v -0.075000 -0.200000 0.050000
v -0.050000 -0.200000 0.050000
v -0.050000 -0.800000 0.050000
v -0.075000 -0.800000 0.050000
v -0.150000 -0.200000 0.315000
v -0.150000 -0.200000 0.050000
v -0.150000 -0.800000 0.050000
v -0.150000 -0.800000 0.315000
v 0.150000 -0.200000 0.335000
v 0.150000 -0.200000 0.650000
v 0.150000 -0.800000 0.650000
v 0.150000 -0.800000 0.335000
v -0.075000 -0.200000 0.315000
v -0.075000 -0.200000 0.050000
v -0.075000 -0.800000 0.050000
v -0.075000 -0.800000 0.315000
v -0.125000 -0.200000 0.050000
v -0.125000 -0.200000 0.315000
v -0.125000 -0.800000 0.315000
v -0.125000 -0.800000 0.050000
v 0.150000 -0.200000 0.650000
v -0.150000 -0.200000 0.650000
v -0.150000 -0.800000 0.650000
v 0.150000 -0.800000 0.650000
v -0.050000 -0.200000 0.050000
v -0.050000 -0.200000 0.315000
v -0.050000 -0.800000 0.315000
v -0.050000 -0.800000 0.050000
v -0.150000 -0.200000 0.335000
v 0.150000 -0.200000 0.335000
v 0.150000 -0.800000 0.335000
v -0.150000 -0.800000 0.335000
v -0.125000 -0.200000 0.315000
v -0.150000 -0.200000 0.315000
v -0.150000 -0.800000 0.315000
v -0.125000 -0.800000 0.315000
v 0.200000 -0.200000 0.700000
v 0.150000 -0.200000 0.650000
v -0.150000 -0.200000 0.650000
v -0.200000 -0.200000 0.700000
v -0.200000 -0.200000 0.000000
v -0.200000 -0.200000 0.700000
v -0.150000 -0.200000 0.650000
v -0.150000 -0.200000 0.335000
v -0.150000 -0.200000 0.315000
v -0.150000 -0.200000 0.050000
v 0.200000 -0.200000 0.000000
v 0.150000 -0.200000 0.335000
v 0.150000 -0.200000 0.650000
v 0.200000 -0.200000 0.700000
v 0.200000 -0.200000 0.000000
v -0.200000 -0.200000 0.000000
v -0.150000 -0.200000 0.050000
v -0.125000 -0.200000 0.050000
v -0.075000 -0.200000 0.050000
v -0.050000 -0.200000 0.050000
v -0.050000 -0.200000 0.315000
v -0.050000 -0.200000 0.050000
v 0.200000 -0.200000 0.000000
v 0.150000 -0.200000 0.335000
v -0.125000 -0.200000 0.315000
v -0.125000 -0.200000 0.050000
v -0.075000 -0.200000 0.050000
v -0.075000 -0.200000 0.315000
v 0.150000 -0.200000 0.335000
v -0.150000 -0.200000 0.335000
v -0.150000 -0.200000 0.315000
v -0.125000 -0.200000 0.315000
v -0.075000 -0.200000 0.315000
v -0.050000 -0.200000 0.315000
v 0.150000 -0.800000 0.335000
v 0.150000 -0.800000 0.650000
v -0.150000 -0.800000 0.650000
v -0.150000 -0.800000 0.335000
v -0.050000 -0.800000 0.050000
v -0.050000 -0.800000 0.315000
v -0.075000 -0.800000 0.315000
v -0.075000 -0.800000 0.050000
v -0.125000 -0.800000 0.050000
v -0.125000 -0.800000 0.315000
v -0.150000 -0.800000 0.315000
v -0.150000 -0.800000 0.050000
v -0.200000 -1.000000 0.000000
v 0.200000 -1.000000 0.000000
v 0.200000 -1.000000 0.700000
v -0.200000 -1.000000 0.700000
v -0.200000 -0.900000 0.700000
v -0.200000 -0.900000 0.000000
v -0.200000 -1.000000 0.000000
v -0.200000 -1.000000 0.700000
v 0.200000 -0.900000 0.000000
v 0.200000 -0.900000 0.700000
v 0.200000 -1.000000 0.700000
v 0.200000 -1.000000 0.000000
v -0.200000 -0.900000 0.000000
v 0.200000 -0.900000 0.000000
v 0.200000 -1.000000 0.000000
v -0.200000 -1.000000 0.000000
v 0.200000 -0.900000 0.700000
v -0.200000 -0.900000 0.700000
v -0.200000 -1.000000 0.700000
v 0.200000 -1.000000 0.700000
v 0.200000 -0.900000 0.700000
v 0.200000 -0.250000 0.700000
v -0.200000 -0.250000 0.700000
v -0.200000 -0.900000 0.700000
v -0.200000 -0.900000 0.700000
v -0.200000 -0.250000 0.700000
v -0.200000 -0.250000 0.000000
v -0.200000 -0.900000 0.000000
v 0.200000 -0.900000 0.000000
v 0.200000 -0.250000 0.000000
v 0.200000 -0.250000 0.700000
v 0.200000 -0.900000 0.700000
v -0.200000 -0.900000 0.000000
v -0.200000 -0.250000 0.000000
v 0.200000 -0.250000 0.000000
v 0.200000 -0.900000 0.000000
v 0.200000 -0.200000 0.000000
v 0.200000 -0.250000 0.000000
v -0.200000 -0.250000 0.000000
v -0.200000 -0.200000 0.000000
v -0.200000 -0.200000 0.000000
v -0.200000 -0.250000 0.000000
v -0.200000 -0.250000 0.700000
v -0.200000 -0.200000 0.700000
v -0.200000 -0.200000 0.700000
v -0.200000 -0.250000 0.700000
v 0.200000 -0.250000 0.700000
v 0.200000 -0.200000 0.700000
v 0.200000 -0.200000 0.700000
v 0.200000 -0.250000 0.700000
v 0.200000 -0.250000 0.000000
v 0.200000 -0.200000 0.000000
v -0.015791 -0.798000 0.586502
v -0.072347 -0.002009 0.643058
v -0.100489 -0.006008 0.671200
v -0.043934 -0.802000 0.614645
v -0.100489 -0.006008 0.671200
v -0.072204 0.093491 0.713625
v -0.213625 0.093491 0.572203
v -0.171200 -0.006008 0.600489
v -0.143058 -0.002009 0.572347
v -0.086502 -0.798000 0.515791
v -0.114645 -0.802000 0.543934
v -0.171200 -0.006008 0.600489
v -0.072347 -0.002009 0.643058
v -0.015791 -0.798000 0.586502
v -0.086502 -0.798000 0.515791
v -0.143058 -0.002009 0.572347
v -0.171200 -0.006008 0.600489
v -0.114645 -0.802000 0.543934
v -0.043934 -0.802000 0.614645
v -0.100489 -0.006008 0.671200
v -0.116144 0.143241 0.676753
v -0.136347 0.143241 0.656550
v -0.072204 0.093491 0.713625
v -0.072347 -0.002009 0.643058
v -0.044061 0.097490 0.685482
v -0.072204 0.093491 0.713625
v -0.100489 -0.006008 0.671200
v -0.171200 -0.006008 0.600489
v -0.213625 0.093491 0.572203
v -0.185482 0.097490 0.544061
v -0.143058 -0.002009 0.572347
v -0.143058 -0.002009 0.572347
v -0.185482 0.097490 0.544061
v -0.044061 0.097490 0.685482
v -0.072347 -0.002009 0.643058
v -0.108205 0.147240 0.628408
v -0.129413 0.445737 0.649616
v -0.109210 0.445737 0.669819
v -0.088002 0.147240 0.648611
v -0.044061 0.097490 0.685482
v -0.047596 0.147240 0.689017
v -0.075738 0.143241 0.717160
v -0.072204 0.093491 0.713625
v -0.213625 0.093491 0.572203
v -0.217160 0.143241 0.575738
v -0.189017 0.147240 0.547596
v -0.185482 0.097490 0.544061
v -0.148611 0.147240 0.588002
v -0.128408 0.147240 0.608205
v -0.185482 0.097490 0.544061
v -0.189017 0.147240 0.547596
v -0.168814 0.147240 0.567799
v -0.185482 0.097490 0.544061
v -0.067799 0.147240 0.668814
v -0.089007 0.445737 0.690022
v -0.068804 0.445737 0.710225
v -0.047596 0.147240 0.689017
v -0.067799 0.147240 0.668814
v -0.088002 0.147240 0.648611
v -0.116144 0.143241 0.676753
v -0.095941 0.143241 0.696957
v -0.047596 0.147240 0.689017
v -0.068804 0.445737 0.710225
v -0.096947 0.441738 0.738368
v -0.075738 0.143241 0.717160
v -0.108205 0.147240 0.628408
v -0.128408 0.147240 0.608205
v -0.156550 0.143241 0.636347
v -0.136347 0.143241 0.656550
v -0.156550 0.143241 0.636347
v -0.177759 0.441738 0.657556
v -0.197962 0.441738 0.637353
v -0.176754 0.143241 0.616144
v -0.148611 0.147240 0.588002
v -0.168814 0.147240 0.567799
v -0.196957 0.143241 0.595941
v -0.176754 0.143241 0.616144
v -0.190022 0.445737 0.589007
v -0.210225 0.445737 0.568804
v -0.238368 0.441738 0.596947
v -0.218165 0.441738 0.617150
v -0.068804 0.445737 0.710225
v -0.089007 0.445737 0.690022
v -0.117150 0.441738 0.718165
v -0.096947 0.441738 0.738368
v -0.109210 0.445737 0.669819
v -0.129413 0.445737 0.649616
v -0.157556 0.441738 0.677759
v -0.137353 0.441738 0.697962
v -0.149616 0.445737 0.629413
v -0.169819 0.445737 0.609210
v -0.197962 0.441738 0.637353
v -0.177759 0.441738 0.657556
v -0.095941 0.143241 0.696957
v -0.117150 0.441738 0.718165
v -0.089007 0.445737 0.690022
v -0.067799 0.147240 0.668814
v -0.196957 0.143241 0.595941
v -0.218165 0.441738 0.617150
v -0.238368 0.441738 0.596947
v -0.217160 0.143241 0.575738
v -0.088002 0.147240 0.648611
v -0.109210 0.445737 0.669819
v -0.137353 0.441738 0.697962
v -0.116144 0.143241 0.676753
v -0.217160 0.143241 0.575738
v -0.238368 0.441738 0.596947
v -0.210225 0.445737 0.568804
v -0.189017 0.147240 0.547596
v -0.075738 0.143241 0.717160
v -0.096947 0.441738 0.738368
v -0.117150 0.441738 0.718165
v -0.095941 0.143241 0.696957
v -0.136347 0.143241 0.656550
v -0.157556 0.441738 0.677759
v -0.129413 0.445737 0.649616
v -0.108205 0.147240 0.628408
v -0.189017 0.147240 0.547596
v -0.210225 0.445737 0.568804
v -0.190022 0.445737 0.589007
v -0.168814 0.147240 0.567799
v -0.128408 0.147240 0.608205
v -0.149616 0.445737 0.629413
v -0.177759 0.441738 0.657556
v -0.156550 0.143241 0.636347
v -0.116144 0.143241 0.676753
v -0.137353 0.441738 0.697962
v -0.157556 0.441738 0.677759
v -0.136347 0.143241 0.656550
v -0.176754 0.143241 0.616144
v -0.197962 0.441738 0.637353
v -0.169819 0.445737 0.609210
v -0.148611 0.147240 0.588002
v -0.148611 0.147240 0.588002
v -0.169819 0.445737 0.609210
v -0.149616 0.445737 0.629413
v -0.128408 0.147240 0.608205
v -0.168814 0.147240 0.567799
v -0.190022 0.445737 0.589007
v -0.218165 0.441738 0.617150
v -0.196957 0.143241 0.595941
v -0.185482 0.097490 0.544061
v -0.128408 0.147240 0.608205
v -0.044061 0.097490 0.685482
v -0.168814 0.147240 0.567799
v -0.148611 0.147240 0.588002
v -0.185482 0.097490 0.544061
v -0.044061 0.097490 0.685482
v -0.067799 0.147240 0.668814
v -0.047596 0.147240 0.689017
v -0.088002 0.147240 0.648611
v -0.044061 0.097490 0.685482
v -0.108205 0.147240 0.628408
v -0.108205 0.147240 0.628408
v -0.044061 0.097490 0.685482
v -0.128408 0.147240 0.608205
v -0.044061 0.097490 0.685482
v -0.088002 0.147240 0.648611
v -0.067799 0.147240 0.668814
v -0.075738 0.143241 0.717160
v -0.095941 0.143241 0.696957
v -0.072204 0.093491 0.713625
v -0.072204 0.093491 0.713625
v -0.136347 0.143241 0.656550
v -0.213625 0.093491 0.572203
v -0.095941 0.143241 0.696957
v -0.116144 0.143241 0.676753
v -0.072204 0.093491 0.713625
v -0.213625 0.093491 0.572203
v -0.196957 0.143241 0.595941
v -0.217160 0.143241 0.575738
v -0.176754 0.143241 0.616144
v -0.213625 0.093491 0.572203
v -0.156550 0.143241 0.636347
v -0.156550 0.143241 0.636347
v -0.213625 0.093491 0.572203
v -0.136347 0.143241 0.656550
v -0.213625 0.093491 0.572203
v -0.176754 0.143241 0.616144
v -0.196957 0.143241 0.595941
v 0.173357 0.329507 0.532878
v 0.213092 0.324913 0.532878
v 0.218260 0.369615 0.472878
v 0.178525 0.374209 0.472878
v 0.082769 -0.802297 0.482878
v 0.082769 -0.802297 0.382878
v 0.176340 0.007030 0.382878
v 0.176340 0.007030 0.482878
v 0.082769 -0.802297 0.382878
v 0.043034 -0.797703 0.382878
v 0.136605 0.011624 0.382878
v 0.176340 0.007030 0.382878
v 0.043034 -0.797703 0.482878
v 0.082769 -0.802297 0.482878
v 0.176340 0.007030 0.482878
v 0.136605 0.011624 0.482878
v 0.043034 -0.797703 0.382878
v 0.043034 -0.797703 0.482878
v 0.136605 0.011624 0.482878
v 0.136605 0.011624 0.382878
v 0.178525 0.374209 0.472878
v 0.218260 0.369615 0.472878
v 0.218260 0.369615 0.392878
v 0.178525 0.374209 0.392878
v 0.218260 0.369615 0.472878
v 0.213092 0.324913 0.532878
v 0.249937 0.295319 0.512878
v 0.254072 0.331080 0.464878
v 0.218260 0.369615 0.392878
v 0.218260 0.369615 0.472878
v 0.254072 0.331080 0.464878
v 0.254072 0.331080 0.400878
v 0.213092 0.324913 0.332878
v 0.173357 0.329507 0.332878
v 0.178525 0.374209 0.392878
v 0.218260 0.369615 0.392878
v 0.176340 0.007030 0.382878
v 0.136605 0.011624 0.382878
v 0.145793 0.091095 0.332878
v 0.185528 0.086501 0.332878
v 0.185528 0.086501 0.332878
v 0.145793 0.091095 0.332878
v 0.154981 0.170566 0.312878
v 0.194716 0.165972 0.312878
v 0.194716 0.165972 0.312878
v 0.154981 0.170566 0.312878
v 0.164169 0.250036 0.312878
v 0.203904 0.245442 0.312878
v 0.203904 0.245442 0.312878
v 0.164169 0.250036 0.312878
v 0.173357 0.329507 0.332878
v 0.213092 0.324913 0.332878
v 0.203904 0.245442 0.312878
v 0.213092 0.324913 0.332878
v 0.249937 0.295319 0.352877
v 0.242587 0.231742 0.336877
v 0.194716 0.165972 0.552878
v 0.185528 0.086501 0.532878
v 0.227886 0.104589 0.512878
v 0.235236 0.168166 0.528877
v 0.194716 0.165972 0.312878
v 0.203904 0.245442 0.312878
v 0.242587 0.231742 0.336877
v 0.235236 0.168166 0.336877
v 0.185528 0.086501 0.532878
v 0.176340 0.007030 0.482878
v 0.220535 0.041013 0.472878
v 0.227886 0.104589 0.512878
v 0.185528 0.086501 0.332878
v 0.194716 0.165972 0.312878
v 0.235236 0.168166 0.336877
v 0.227886 0.104589 0.352877
v 0.213092 0.324913 0.332878
v 0.218260 0.369615 0.392878
v 0.254072 0.331080 0.400878
v 0.249937 0.295319 0.352877
v 0.203904 0.245442 0.552878
v 0.194716 0.165972 0.552878
v 0.235236 0.168166 0.528877
v 0.242587 0.231742 0.528877
v 0.176340 0.007030 0.382878
v 0.185528 0.086501 0.332878
v 0.227886 0.104589 0.352877
v 0.220535 0.041013 0.392878
v 0.136605 0.011624 0.482878
v 0.176340 0.007030 0.482878
v 0.185528 0.086501 0.532878
v 0.145793 0.091095 0.532878
v 0.145793 0.091095 0.532878
v 0.185528 0.086501 0.532878
v 0.194716 0.165972 0.552878
v 0.154981 0.170566 0.552878
v 0.154981 0.170566 0.552878
v 0.194716 0.165972 0.552878
v 0.203904 0.245442 0.552878
v 0.164169 0.250036 0.552878
v 0.164169 0.250036 0.552878
v 0.203904 0.245442 0.552878
v 0.213092 0.324913 0.532878
v 0.173357 0.329507 0.532878
v 0.213092 0.324913 0.532878
v 0.203904 0.245442 0.552878
v 0.242587 0.231742 0.528877
v 0.249937 0.295319 0.512878
v 0.249937 0.295319 0.512878
v 0.242587 0.231742 0.528877
v 0.270535 0.212270 0.486638
v 0.274651 0.247873 0.477678
v 0.227886 0.104589 0.352877
v 0.235236 0.168166 0.336877
v 0.266419 0.176667 0.379118
v 0.262303 0.141064 0.388077
v 0.254072 0.331080 0.464878
v 0.249937 0.295319 0.512878
v 0.274651 0.247873 0.477678
v 0.276967 0.267900 0.450797
v 0.242587 0.231742 0.528877
v 0.235236 0.168166 0.528877
v 0.266419 0.176667 0.486638
v 0.270535 0.212270 0.486638
v 0.235236 0.168166 0.336877
v 0.242587 0.231742 0.336877
v 0.270535 0.212270 0.379118
v 0.266419 0.176667 0.379118
v 0.254072 0.331080 0.400878
v 0.254072 0.331080 0.464878
v 0.276967 0.267900 0.450797
v 0.276967 0.267900 0.414957
v 0.227886 0.104589 0.512878
v 0.220535 0.041013 0.472878
v 0.258186 0.105462 0.455278
v 0.262303 0.141064 0.477678
v 0.235236 0.168166 0.528877
v 0.227886 0.104589 0.512878
v 0.262303 0.141064 0.477678
v 0.266419 0.176667 0.486638
v 0.242587 0.231742 0.336877
v 0.249937 0.295319 0.352877
v 0.274651 0.247873 0.388077
v 0.270535 0.212270 0.379118
v 0.220535 0.041013 0.392878
v 0.227886 0.104589 0.352877
v 0.262303 0.141064 0.388077
v 0.258186 0.105462 0.410478
v 0.249937 0.295319 0.352877
v 0.254072 0.331080 0.400878
v 0.276967 0.267900 0.414957
v 0.274651 0.247873 0.388077
v 0.276967 0.267900 0.414957
v 0.270535 0.212270 0.486638
v 0.270535 0.212270 0.379118
v 0.220535 0.041013 0.472878
v 0.220535 0.041013 0.392878
v 0.258186 0.105462 0.410478
v 0.258186 0.105462 0.455278
v 0.176340 0.007030 0.482878
v 0.176340 0.007030 0.382878
v 0.220535 0.041013 0.392878
v 0.220535 0.041013 0.472878
v 0.170466 0.304507 0.512878
v 0.202255 0.300831 0.512878
v 0.206389 0.336593 0.464878
v 0.174601 0.340268 0.464878
v 0.174601 0.340268 0.464878
v 0.206389 0.336593 0.464878
v 0.206389 0.336593 0.400878
v 0.174601 0.340268 0.400878
v 0.206389 0.336593 0.464878
v 0.202255 0.300831 0.512878
v 0.231731 0.277156 0.496878
v 0.235038 0.305766 0.458478
v 0.206389 0.336593 0.400878
v 0.206389 0.336593 0.464878
v 0.235038 0.305766 0.458478
v 0.235038 0.305766 0.407277
v 0.202255 0.300831 0.352877
v 0.170466 0.304507 0.352877
v 0.174601 0.340268 0.400878
v 0.206389 0.336593 0.400878
v 0.172853 0.046526 0.392878
v 0.141065 0.050201 0.392878
v 0.148415 0.113777 0.352877
v 0.180203 0.110102 0.352877
v 0.180203 0.110102 0.352877
v 0.148415 0.113777 0.352877
v 0.155765 0.177354 0.336877
v 0.187554 0.173678 0.336877
v 0.187554 0.173678 0.336877
v 0.155765 0.177354 0.336877
v 0.163116 0.240930 0.336877
v 0.194904 0.237255 0.336877
v 0.194904 0.237255 0.336877
v 0.163116 0.240930 0.336877
v 0.170466 0.304507 0.352877
v 0.202255 0.300831 0.352877
v 0.194904 0.237255 0.336877
v 0.202255 0.300831 0.352877
v 0.231731 0.277156 0.368878
v 0.225850 0.226295 0.356077
v 0.187554 0.173678 0.528877
v 0.180203 0.110102 0.512878
v 0.214090 0.124573 0.496878
v 0.219970 0.175434 0.509678
v 0.187554 0.173678 0.336877
v 0.194904 0.237255 0.336877
v 0.225850 0.226295 0.356077
v 0.219970 0.175434 0.356077
v 0.180203 0.110102 0.512878
v 0.172853 0.046526 0.472878
v 0.208209 0.073711 0.464878
v 0.214090 0.124573 0.496878
v 0.180203 0.110102 0.352877
v 0.187554 0.173678 0.336877
v 0.219970 0.175434 0.356077
v 0.214089 0.124573 0.368878
v 0.202255 0.300831 0.352877
v 0.206389 0.336593 0.400878
v 0.235038 0.305766 0.407277
v 0.231731 0.277156 0.368878
v 0.194904 0.237255 0.528877
v 0.187554 0.173678 0.528877
v 0.219970 0.175434 0.509678
v 0.225850 0.226295 0.509678
v 0.172853 0.046526 0.392878
v 0.180203 0.110102 0.352877
v 0.214089 0.124573 0.368878
v 0.208209 0.073711 0.400878
v 0.141065 0.050201 0.472878
v 0.172853 0.046526 0.472878
v 0.180203 0.110102 0.512878
v 0.148415 0.113777 0.512878
v 0.148415 0.113777 0.512878
v 0.180203 0.110102 0.512878
v 0.187554 0.173678 0.528877
v 0.155765 0.177354 0.528877
v 0.155765 0.177354 0.528877
v 0.187554 0.173678 0.528877
v 0.194904 0.237255 0.528877
v 0.163116 0.240930 0.528877
v 0.163116 0.240930 0.528877
v 0.194904 0.237255 0.528877
v 0.202255 0.300831 0.512878
v 0.170466 0.304507 0.512878
v 0.202255 0.300831 0.512878
v 0.194904 0.237255 0.528877
v 0.225850 0.226295 0.509678
v 0.231731 0.277156 0.496878
v 0.231731 0.277156 0.496878
v 0.225850 0.226295 0.509678
v 0.248209 0.210717 0.475886
v 0.251502 0.239200 0.468718
v 0.214089 0.124573 0.368878
v 0.219970 0.175434 0.356077
v 0.244916 0.182235 0.389870
v 0.241623 0.153753 0.397038
v 0.235038 0.305766 0.458478
v 0.231731 0.277156 0.496878
v 0.251502 0.239200 0.468718
v 0.253354 0.255221 0.447214
v 0.225850 0.226295 0.509678
v 0.219970 0.175434 0.509678
v 0.244916 0.182235 0.475886
v 0.248209 0.210717 0.475886
v 0.219970 0.175434 0.356077
v 0.225850 0.226295 0.356077
v 0.248209 0.210717 0.389870
v 0.244916 0.182235 0.389870
v 0.235038 0.305766 0.407277
v 0.235038 0.305766 0.458478
v 0.253354 0.255221 0.447214
v 0.253354 0.255221 0.418541
v 0.214090 0.124573 0.496878
v 0.208209 0.073711 0.464878
v 0.238330 0.125270 0.450797
v 0.241623 0.153753 0.468718
v 0.219970 0.175434 0.509678
v 0.214090 0.124573 0.496878
v 0.241623 0.153753 0.468718
v 0.244916 0.182235 0.475886
v 0.225850 0.226295 0.356077
v 0.231731 0.277156 0.368878
v 0.251502 0.239200 0.397038
v 0.248209 0.210717 0.389870
v 0.208209 0.073711 0.400878
v 0.214089 0.124573 0.368878
v 0.241623 0.153753 0.397038
v 0.238330 0.125270 0.414958
v 0.231731 0.277156 0.368878
v 0.235038 0.305766 0.407277
v 0.253354 0.255221 0.418541
v 0.251502 0.239200 0.397038
v 0.253354 0.255221 0.418541
v 0.248209 0.210717 0.475886
v 0.248209 0.210717 0.389870
v 0.208209 0.073711 0.464878
v 0.208209 0.073711 0.400878
v 0.238330 0.125270 0.414958
v 0.238330 0.125270 0.450797
v 0.172853 0.046526 0.472878
v 0.172853 0.046526 0.392878
v 0.208209 0.073711 0.400878
v 0.208209 0.073711 0.464878
v 0.178525 0.374209 0.392878
v 0.174601 0.340268 0.400878
v 0.174601 0.340268 0.464878
v 0.178525 0.374209 0.472878
v 0.173357 0.329507 0.332878
v 0.170466 0.304507 0.352877
v 0.174601 0.340268 0.400878
v 0.178525 0.374209 0.392878
v 0.164169 0.250036 0.312878
v 0.163116 0.240930 0.336877
v 0.170466 0.304507 0.352877
v 0.173357 0.329507 0.332878
v 0.154981 0.170566 0.312878
v 0.155765 0.177354 0.336877
v 0.163116 0.240930 0.336877
v 0.164169 0.250036 0.312878
v 0.145793 0.091095 0.332878
v 0.148415 0.113777 0.352877
v 0.155765 0.177354 0.336877
v 0.154981 0.170566 0.312878
v 0.136605 0.011624 0.382878
v 0.141065 0.050201 0.392878
v 0.148415 0.113777 0.352877
v 0.145793 0.091095 0.332878
v 0.141065 0.050201 0.392878
v 0.172853 0.046526 0.392878
v 0.172853 0.046526 0.472878
v 0.141065 0.050201 0.472878
v 0.145793 0.091095 0.532878
v 0.148415 0.113777 0.512878
v 0.141065 0.050201 0.472878
v 0.136605 0.011624 0.482878
v 0.136605 0.011624 0.482878
v 0.141065 0.050201 0.472878
v 0.141065 0.050201 0.392878
v 0.136605 0.011624 0.382878
v 0.154981 0.170566 0.552878
v 0.155765 0.177354 0.528877
v 0.148415 0.113777 0.512878
v 0.145793 0.091095 0.532878
v 0.164169 0.250036 0.552878
v 0.163116 0.240930 0.528877
v 0.155765 0.177354 0.528877
v 0.154981 0.170566 0.552878
v 0.173357 0.329507 0.532878
v 0.170466 0.304507 0.512878
v 0.163116 0.240930 0.528877
v 0.164169 0.250036 0.552878
v 0.178525 0.374209 0.472878
v 0.174601 0.340268 0.464878
v 0.170466 0.304507 0.512878
v 0.173357 0.329507 0.532878
v -0.157500 0.448000 0.195000
v -0.157500 -0.152000 0.195000
v -0.117500 -0.152000 0.195000
v -0.117500 0.448000 0.195000
v -0.157500 -0.152000 0.095000
v -0.157500 0.448000 0.095000
v -0.117500 0.448000 0.095000
v -0.117500 -0.152000 0.095000
v -0.157500 0.448000 0.095000
v -0.157500 0.448000 0.195000
v -0.117500 0.448000 0.195000
v -0.117500 0.448000 0.095000
v -0.157500 -0.152000 0.195000
v -0.157500 0.448000 0.195000
v -0.157500 0.448000 0.095000
v -0.157500 -0.152000 0.095000
v -0.117500 -0.152000 0.095000
v -0.117500 0.448000 0.095000
v -0.117500 0.448000 0.195000
v -0.117500 -0.152000 0.195000
v -0.157500 -0.152000 0.195000
v -0.157500 -0.152000 0.095000
v -0.117500 -0.152000 0.095000
v -0.117500 -0.152000 0.195000
v -0.137500 -0.476000 0.205000
v -0.137500 -0.800000 0.095000
v -0.137500 -0.638000 0.185000
v -0.137500 -0.638000 0.185000
v -0.137500 -0.800000 0.095000
v -0.137500 -0.800000 0.114000
v -0.137500 -0.800000 0.095000
v -0.137500 -0.476000 0.205000
v -0.137500 -0.152000 0.095000
v -0.137500 -0.152000 0.095000
v -0.137500 -0.314000 0.215000
v -0.137500 -0.152000 0.175000
v -0.137500 -0.476000 0.205000
v -0.137500 -0.314000 0.215000
v -0.137500 -0.152000 0.095000
v -0.082500 0.448000 0.265000
v -0.082500 -0.152000 0.265000
v -0.042500 -0.152000 0.265000
v -0.042500 0.448000 0.265000
v -0.082500 -0.152000 0.165000
v -0.082500 0.448000 0.165000
v -0.042500 0.448000 0.165000
v -0.042500 -0.152000 0.165000
v -0.082500 0.448000 0.165000
v -0.082500 0.448000 0.265000
v -0.042500 0.448000 0.265000
v -0.042500 0.448000 0.165000
v -0.082500 -0.152000 0.265000
v -0.082500 0.448000 0.265000
v -0.082500 0.448000 0.165000
v -0.082500 -0.152000 0.165000
v -0.042500 -0.152000 0.165000
v -0.042500 0.448000 0.165000
v -0.042500 0.448000 0.265000
v -0.042500 -0.152000 0.265000
v -0.082500 -0.152000 0.265000
v -0.082500 -0.152000 0.165000
v -0.042500 -0.152000 0.165000
v -0.042500 -0.152000 0.265000
v -0.062500 -0.476000 0.275000
v -0.062500 -0.800000 0.165000
v -0.062500 -0.638000 0.255000
v -0.062500 -0.638000 0.255000
v -0.062500 -0.800000 0.165000
v -0.062500 -0.800000 0.184000
v -0.062500 -0.800000 0.165000
v -0.062500 -0.476000 0.275000
v -0.062500 -0.152000 0.165000
v -0.062500 -0.152000 0.165000
v -0.062500 -0.314000 0.285000
v -0.062500 -0.152000 0.245000
v -0.062500 -0.476000 0.275000
v -0.062500 -0.314000 0.285000
v -0.062500 -0.152000 0.165000
v 0.266419 0.176667 0.486638
v 0.262303 0.141064 0.477678
v 0.262303 0.141064 0.388077
v 0.262303 0.141064 0.477678
v 0.258186 0.105462 0.455278
v 0.262303 0.141064 0.388077
v 0.258186 0.105462 0.455278
v 0.258186 0.105462 0.410478
v 0.262303 0.141064 0.388077
v 0.262303 0.141064 0.388077
v 0.266419 0.176667 0.379118
v 0.266419 0.176667 0.486638
v 0.266419 0.176667 0.379118
v 0.270535 0.212270 0.379118
v 0.266419 0.176667 0.486638
v 0.270535 0.212270 0.379118
v 0.274651 0.247873 0.388077
v 0.276967 0.267900 0.414957
v 0.276967 0.267900 0.414957
v 0.276967 0.267900 0.450797
v 0.270535 0.212270 0.486638
v 0.276967 0.267900 0.450797
v 0.274651 0.247873 0.477678
v 0.270535 0.212270 0.486638
v 0.270535 0.212270 0.486638
v 0.266419 0.176667 0.486638
v 0.270535 0.212270 0.379118
v 0.244916 0.182235 0.475886
v 0.241623 0.153753 0.468718
v 0.241623 0.153753 0.397038
v 0.241623 0.153753 0.468718
v 0.238330 0.125270 0.450797
v 0.241623 0.153753 0.397038
v 0.238330 0.125270 0.450797
v 0.238330 0.125270 0.414958
v 0.241623 0.153753 0.397038
v 0.241623 0.153753 0.397038
v 0.244916 0.182235 0.389870
v 0.244916 0.182235 0.475886
v 0.244916 0.182235 0.389870
v 0.248209 0.210717 0.389870
v 0.244916 0.182235 0.475886
v 0.248209 0.210717 0.389870
v 0.251502 0.239200 0.397038
v 0.253354 0.255221 0.418541
v 0.253354 0.255221 0.418541
v 0.253354 0.255221 0.447214
v 0.248209 0.210717 0.475886
v 0.253354 0.255221 0.447214
v 0.251502 0.239200 0.468718
v 0.248209 0.210717 0.475886
v 0.248209 0.210717 0.475886
v 0.244916 0.182235 0.475886
v 0.248209 0.210717 0.389870

vt 0.941507 0.330514
vt 0.927744 0.000200
vt 0.941507 0.000200
vt 0.927744 0.330514
vt 0.927744 0.000200
vt 0.941507 0.330514
vt 1.034763 0.834643
vt 1.021000 0.504329
vt 1.034763 0.504329
vt 1.021000 0.834643
vt 1.021000 0.504329
vt 1.034763 0.834643
vt 0.415357 0.173615
vt 0.588772 0.503928
vt 0.415357 0.503928
vt 0.588772 0.173615
vt 0.588772 0.503928
vt 0.415357 0.173615
vt 0.875111 0.834643
vt 0.861348 0.504329
vt 0.875112 0.504329
vt 0.861348 0.834643
vt 0.861348 0.504329
vt 0.875111 0.834643
vt 1.247047 0.330514
vt 1.101159 0.000200
vt 1.247047 0.000200
vt 1.101159 0.330514
vt 1.101159 0.000200
vt 1.247047 0.330514
vt 0.753929 0.173615
vt 0.927343 0.503929
vt 0.753929 0.503929
vt 0.927343 0.173615
vt 0.927343 0.503929
vt 0.753929 0.173615
vt 1.180652 0.834643
vt 1.034763 0.504329
vt 1.180652 0.504329
vt 1.034763 0.834643
vt 1.034763 0.504329
vt 1.180652 0.834643
vt 1.087396 0.330514
vt 0.941507 0.000200
vt 1.087396 0.000200
vt 0.941507 0.330514
vt 0.941507 0.000200
vt 1.087396 0.330514
vt 0.588772 0.173615
vt 0.753929 0.503929
vt 0.588772 0.503928
vt 0.753929 0.173615
vt 0.753929 0.503929
vt 0.588772 0.173615
vt 1.021000 0.834643
vt 0.875112 0.504329
vt 1.021000 0.504329
vt 0.875111 0.834643
vt 0.875112 0.504329
vt 1.021000 0.834643
vt 0.250200 0.173615
vt 0.415357 0.503928
vt 0.250200 0.503928
vt 0.415357 0.173615
vt 0.415357 0.503928
vt 0.250200 0.173615
vt 1.101159 0.330514
vt 1.087396 0.000200
vt 1.101159 0.000200
vt 1.087396 0.330514
vt 1.087396 0.000200
vt 1.101159 0.330514
vt 0.636595 0.562147
vt 0.833381 0.532471
vt 0.805419 0.560742
vt 0.608248 0.534455
vt 0.833381 0.532471
vt 0.636595 0.562147
vt 0.636595 0.562147
vt 0.616729 0.917131
vt 0.608248 0.534455
vt 0.805419 0.560742
vt 0.833381 0.918407
vt 0.805937 0.736762
vt 0.833381 0.532471
vt 0.833381 0.918407
vt 0.805419 0.560742
vt 0.643062 0.890663
vt 0.833381 0.918407
vt 0.616729 0.917131
vt 0.833381 0.918407
vt 0.696845 0.746710
vt 0.697035 0.890561
vt 0.805937 0.736762
vt 0.696845 0.746710
vt 0.833381 0.918407
vt 0.683522 0.890557
vt 0.655060 0.746921
vt 0.656516 0.890591
vt 0.683050 0.746662
vt 0.655060 0.746921
vt 0.683522 0.890557
vt 0.640401 0.747989
vt 0.805937 0.736762
vt 0.639790 0.734793
vt 0.588772 0.173615
vt 0.753929 0.000200
vt 0.753929 0.173615
vt 0.588772 0.000200
vt 0.753929 0.000200
vt 0.588772 0.173615
vt 1.021000 0.848406
vt 0.875111 0.834643
vt 1.021000 0.834643
vt 0.875111 0.848406
vt 0.875111 0.834643
vt 1.021000 0.848406
vt 1.087396 0.344277
vt 0.941507 0.330514
vt 1.087396 0.330514
vt 0.941507 0.344277
vt 0.941507 0.330514
vt 1.087396 0.344277
vt 0.525462 0.944747
vt 0.305253 0.559381
vt 0.525462 0.559381
vt 0.305253 0.944747
vt 0.305253 0.559381
vt 0.525462 0.944747
vt 0.305253 0.559381
vt 0.250200 0.944747
vt 0.250200 0.559381
vt 0.305253 0.944747
vt 0.250200 0.944747
vt 0.305253 0.559381
vt 0.525462 0.944747
vt 0.580514 0.559381
vt 0.580514 0.944747
vt 0.525462 0.559381
vt 0.580514 0.559381
vt 0.525462 0.944747
vt 0.525462 0.559381
vt 0.305253 0.504329
vt 0.525462 0.504329
vt 0.305253 0.559381
vt 0.305253 0.504329
vt 0.525462 0.559381
vt 0.305253 0.944747
vt 0.525462 0.999800
vt 0.305253 0.999800
vt 0.525462 0.944747
vt 0.525462 0.999800
vt 0.305253 0.944747
vt 0.616570 0.944213
vt 0.833381 0.918407
vt 0.833222 0.945488
vt 0.616729 0.917131
vt 0.833381 0.918407
vt 0.616570 0.944213
vt 0.580915 0.535061
vt 0.616729 0.917131
vt 0.589395 0.917737
vt 0.608248 0.534455
vt 0.616729 0.917131
vt 0.580915 0.535061
vt 0.833133 0.504329
vt 0.608248 0.534455
vt 0.608000 0.506313
vt 0.833381 0.532471
vt 0.608248 0.534455
vt 0.833133 0.504329
vt 0.860948 0.918407
vt 0.833381 0.532471
vt 0.860948 0.532471
vt 0.833381 0.918407
vt 0.833381 0.532471
vt 0.860948 0.918407
vt 0.273698 0.957963
vt 0.193354 0.620517
vt 0.402249 0.829412
vt 0.064803 0.749067
vt 0.193354 0.620517
vt 0.273698 0.957963
vt 0.755764 0.475897
vt 0.771833 0.042037
vt 0.980728 0.250933
vt 0.546869 0.267002
vt 0.771833 0.042037
vt 0.755764 0.475897
vt 0.402249 0.829412
vt 0.418318 0.395553
vt 0.627213 0.604448
vt 0.193354 0.620517
vt 0.418318 0.395553
vt 0.402249 0.829412
vt 0.627213 0.604448
vt 0.546869 0.267002
vt 0.755764 0.475897
vt 0.418318 0.395553
vt 0.546869 0.267002
vt 0.627213 0.604448
vt 0.894036 0.369888
vt 0.643357 0.092822
vt 0.907230 0.356694
vt 0.630163 0.106016
vt 0.643357 0.092822
vt 0.894036 0.369888
vt 0.419232 0.725191
vt 0.435724 0.642731
vt 0.485201 0.659223
vt 0.402740 0.675715
vt 0.435724 0.642731
vt 0.419232 0.725191
vt 0.880466 0.383464
vt 0.629784 0.106395
vt 0.893659 0.370270
vt 0.616591 0.119588
vt 0.629784 0.106395
vt 0.880466 0.383464
vt 0.105503 0.445205
vt 0.336393 0.742063
vt 0.072519 0.478189
vt 0.369377 0.709079
vt 0.336393 0.742063
vt 0.105503 0.445205
vt 0.171851 0.378857
vt 0.402740 0.675715
vt 0.138867 0.411842
vt 0.435724 0.642731
vt 0.402740 0.675715
vt 0.171851 0.378857
vt 0.485201 0.659223
vt 0.482845 0.694563
vt 0.473421 0.703987
vt 0.487517 0.096176
vt 0.511200 0.146247
vt 0.474323 0.109369
vt 0.524394 0.133053
vt 0.511200 0.146247
vt 0.487517 0.096176
vt 0.752516 0.384235
vt 0.728832 0.334164
vt 0.765710 0.371041
vt 0.715639 0.347357
vt 0.728832 0.334164
vt 0.752516 0.384235
vt 0.352885 0.791540
vt 0.369377 0.709079
vt 0.418853 0.725571
vt 0.336393 0.742063
vt 0.369377 0.709079
vt 0.352885 0.791540
vt 0.487177 0.888135
vt 0.397649 0.779760
vt 0.496601 0.878711
vt 0.388225 0.789184
vt 0.397649 0.779760
vt 0.487177 0.888135
vt 0.471024 0.079684
vt 0.474323 0.109369
vt 0.457831 0.092877
vt 0.487517 0.096176
vt 0.474323 0.109369
vt 0.471024 0.079684
vt 0.769008 0.400727
vt 0.765710 0.371041
vt 0.782202 0.387533
vt 0.752516 0.384235
vt 0.765710 0.371041
vt 0.769008 0.400727
vt 0.418853 0.725571
vt 0.416497 0.760912
vt 0.407073 0.770336
vt 0.418853 0.725571
vt 0.435345 0.742063
vt 0.425921 0.751487
vt 0.468329 0.906984
vt 0.378801 0.798608
vt 0.477753 0.897560
vt 0.369377 0.808032
vt 0.378801 0.798608
vt 0.468329 0.906984
vt 0.660045 0.676289
vt 0.637427 0.672519
vt 0.646851 0.663095
vt 0.650621 0.685713
vt 0.637427 0.672519
vt 0.660045 0.676289
vt 0.778394 0.490792
vt 0.864153 0.602939
vt 0.765200 0.503986
vt 0.877346 0.589745
vt 0.864153 0.602939
vt 0.778394 0.490792
vt 0.660424 0.649522
vt 0.656655 0.672140
vt 0.647231 0.662716
vt 0.669849 0.658946
vt 0.656655 0.672140
vt 0.660424 0.649522
vt 0.553525 0.821788
vt 0.463997 0.713411
vt 0.562949 0.812364
vt 0.454572 0.722835
vt 0.463997 0.713411
vt 0.553525 0.821788
vt 0.717988 0.521069
vt 0.695370 0.517299
vt 0.704794 0.507875
vt 0.708564 0.530493
vt 0.695370 0.517299
vt 0.717988 0.521069
vt 0.704415 0.507496
vt 0.681797 0.503726
vt 0.691221 0.494302
vt 0.694990 0.516920
vt 0.681797 0.503726
vt 0.704415 0.507496
vt 0.758707 0.561788
vt 0.736089 0.558019
vt 0.745513 0.548594
vt 0.749283 0.571212
vt 0.736089 0.558019
vt 0.758707 0.561788
vt 0.731561 0.534642
vt 0.708943 0.530872
vt 0.718367 0.521448
vt 0.722137 0.544066
vt 0.708943 0.530872
vt 0.731561 0.534642
vt 0.745134 0.548215
vt 0.722516 0.544445
vt 0.731940 0.535021
vt 0.735710 0.557639
vt 0.722516 0.544445
vt 0.745134 0.548215
vt 0.803941 0.360473
vt 0.889700 0.472619
vt 0.790747 0.373666
vt 0.902893 0.459425
vt 0.889700 0.472619
vt 0.803941 0.360473
vt 0.534677 0.840636
vt 0.445148 0.732259
vt 0.544101 0.831212
vt 0.435724 0.741683
vt 0.445148 0.732259
vt 0.534677 0.840636
vt 0.760199 0.508987
vt 0.845958 0.621134
vt 0.747005 0.522181
vt 0.859151 0.607940
vt 0.845958 0.621134
vt 0.760199 0.508987
vt 0.867961 0.499680
vt 0.782202 0.387533
vt 0.881155 0.486486
vt 0.769008 0.400727
vt 0.782202 0.387533
vt 0.867961 0.499680
vt 0.591222 0.784092
vt 0.501693 0.675715
vt 0.600646 0.774668
vt 0.492269 0.685139
vt 0.501693 0.675715
vt 0.591222 0.784092
vt 0.903273 0.459046
vt 0.817514 0.346900
vt 0.916466 0.445852
vt 0.804320 0.360093
vt 0.817514 0.346900
vt 0.903273 0.459046
vt 0.524873 0.850439
vt 0.435345 0.742063
vt 0.534297 0.841015
vt 0.425921 0.751487
vt 0.435345 0.742063
vt 0.524873 0.850439
vt 0.595108 0.714838
vt 0.680867 0.826985
vt 0.581915 0.728032
vt 0.694061 0.813791
vt 0.680867 0.826985
vt 0.595108 0.714838
vt 0.572373 0.802940
vt 0.482845 0.694563
vt 0.581797 0.793516
vt 0.473421 0.703987
vt 0.482845 0.694563
vt 0.572373 0.802940
vt 0.667294 0.840558
vt 0.581535 0.728411
vt 0.680488 0.827364
vt 0.568342 0.741605
vt 0.581535 0.728411
vt 0.667294 0.840558
vt 0.506025 0.869287
vt 0.416497 0.760912
vt 0.515449 0.859863
vt 0.407073 0.770336
vt 0.416497 0.760912
vt 0.506025 0.869287
vt 0.746625 0.522560
vt 0.832384 0.634707
vt 0.733432 0.535754
vt 0.845578 0.621513
vt 0.832384 0.634707
vt 0.746625 0.522560
vt 0.352885 0.791540
vt 0.418853 0.725571
vt 0.407073 0.770336
vt 0.418853 0.725571
vt 0.425921 0.751487
vt 0.416497 0.760912
vt 0.369377 0.808032
vt 0.352885 0.791540
vt 0.378801 0.798608
vt 0.397649 0.779760
vt 0.388225 0.789184
vt 0.352885 0.791540
vt 0.407073 0.770336
vt 0.397649 0.779760
vt 0.352885 0.791540
vt 0.378801 0.798608
vt 0.352885 0.791540
vt 0.388225 0.789184
vt 0.485201 0.659223
vt 0.501693 0.675715
vt 0.492269 0.685139
vt 0.419232 0.725191
vt 0.485201 0.659223
vt 0.473421 0.703987
vt 0.485201 0.659223
vt 0.492269 0.685139
vt 0.482845 0.694563
vt 0.435724 0.741683
vt 0.419232 0.725191
vt 0.445148 0.732259
vt 0.463997 0.713411
vt 0.454572 0.722835
vt 0.419232 0.725191
vt 0.473421 0.703987
vt 0.463997 0.713411
vt 0.419232 0.725191
vt 0.445148 0.732259
vt 0.419232 0.725191
vt 0.454572 0.722835
vt 0.529922 0.703186
vt 0.541467 0.665254
vt 0.554661 0.678448
vt 0.516729 0.689992
vt 0.541467 0.665254
vt 0.529922 0.703186
vt 0.503629 0.139435
vt 0.267885 0.441148
vt 0.234900 0.408164
vt 0.536613 0.172419
vt 0.267885 0.441148
vt 0.503629 0.139435
vt 0.490436 0.126241
vt 0.234900 0.408164
vt 0.221707 0.394970
vt 0.503629 0.139435
vt 0.234900 0.408164
vt 0.490436 0.126241
vt 0.536613 0.172419
vt 0.281079 0.454342
vt 0.267885 0.441148
vt 0.549807 0.185612
vt 0.281079 0.454342
vt 0.536613 0.172419
vt 0.457452 0.093257
vt 0.221707 0.394970
vt 0.188722 0.361986
vt 0.490436 0.126241
vt 0.221707 0.394970
vt 0.457452 0.093257
vt 0.688429 0.321034
vt 0.728010 0.334227
vt 0.714816 0.347421
vt 0.701622 0.307840
vt 0.728010 0.334227
vt 0.688429 0.321034
vt 0.571287 0.695668
vt 0.529922 0.703186
vt 0.554661 0.678448
vt 0.551497 0.715459
vt 0.529922 0.703186
vt 0.571287 0.695668
vt 0.694826 0.362134
vt 0.688429 0.321034
vt 0.714816 0.347421
vt 0.673716 0.341024
vt 0.688429 0.321034
vt 0.694826 0.362134
vt 0.701622 0.307840
vt 0.663691 0.296296
vt 0.676884 0.283102
vt 0.688429 0.321034
vt 0.663691 0.296296
vt 0.701622 0.307840
vt 0.596098 0.202316
vt 0.551787 0.184392
vt 0.564980 0.171199
vt 0.582904 0.215510
vt 0.551787 0.184392
vt 0.596098 0.202316
vt 0.623297 0.229515
vt 0.582904 0.215510
vt 0.596098 0.202316
vt 0.610104 0.242709
vt 0.582904 0.215510
vt 0.623297 0.229515
vt 0.649685 0.255902
vt 0.610104 0.242709
vt 0.623297 0.229515
vt 0.636491 0.269096
vt 0.610104 0.242709
vt 0.649685 0.255902
vt 0.676884 0.283102
vt 0.636491 0.269096
vt 0.649685 0.255902
vt 0.663691 0.296296
vt 0.636491 0.269096
vt 0.676884 0.283102
vt 0.641590 0.305490
vt 0.636491 0.269096
vt 0.663691 0.296296
vt 0.619830 0.283731
vt 0.636491 0.269096
vt 0.641590 0.305490
vt 0.645289 0.618916
vt 0.608248 0.624861
vt 0.635447 0.597661
vt 0.623529 0.640676
vt 0.608248 0.624861
vt 0.645289 0.618916
vt 0.618081 0.281459
vt 0.610104 0.242709
vt 0.636491 0.269096
vt 0.596971 0.260349
vt 0.610104 0.242709
vt 0.618081 0.281459
vt 0.673759 0.591966
vt 0.635447 0.597661
vt 0.666564 0.566544
vt 0.648865 0.616860
vt 0.635447 0.597661
vt 0.673759 0.591966
vt 0.594822 0.258524
vt 0.582904 0.215510
vt 0.610104 0.242709
vt 0.573062 0.236764
vt 0.582904 0.215510
vt 0.594822 0.258524
vt 0.666854 0.333307
vt 0.663691 0.296296
vt 0.688429 0.321034
vt 0.647064 0.313516
vt 0.663691 0.296296
vt 0.666854 0.333307
vt 0.621380 0.642501
vt 0.581860 0.651248
vt 0.608248 0.624861
vt 0.600270 0.663611
vt 0.581860 0.651248
vt 0.621380 0.642501
vt 0.569486 0.234708
vt 0.551787 0.184392
vt 0.582904 0.215510
vt 0.544592 0.209814
vt 0.551787 0.184392
vt 0.569486 0.234708
vt 0.635447 0.597661
vt 0.653371 0.553350
vt 0.666564 0.566544
vt 0.622253 0.584468
vt 0.653371 0.553350
vt 0.635447 0.597661
vt 0.608248 0.624861
vt 0.622253 0.584468
vt 0.635447 0.597661
vt 0.595054 0.611667
vt 0.622253 0.584468
vt 0.608248 0.624861
vt 0.581860 0.651248
vt 0.595054 0.611667
vt 0.608248 0.624861
vt 0.568666 0.638054
vt 0.595054 0.611667
vt 0.581860 0.651248
vt 0.554661 0.678448
vt 0.568666 0.638054
vt 0.581860 0.651248
vt 0.541467 0.665254
vt 0.568666 0.638054
vt 0.554661 0.678448
vt 0.598521 0.665883
vt 0.554661 0.678448
vt 0.581860 0.651248
vt 0.576762 0.687642
vt 0.554661 0.678448
vt 0.598521 0.665883
vt 0.618114 0.681909
vt 0.576762 0.687642
vt 0.598521 0.665883
vt 0.605928 0.694094
vt 0.576762 0.687642
vt 0.618114 0.681909
vt 0.577754 0.276530
vt 0.573062 0.236764
vt 0.594822 0.258524
vt 0.565569 0.264345
vt 0.573062 0.236764
vt 0.577754 0.276530
vt 0.591881 0.717307
vt 0.551497 0.715459
vt 0.571287 0.695668
vt 0.580798 0.728389
vt 0.551497 0.715459
vt 0.591881 0.717307
vt 0.634502 0.663557
vt 0.600270 0.663611
vt 0.621380 0.642501
vt 0.622680 0.675379
vt 0.600270 0.663611
vt 0.634502 0.663557
vt 0.595671 0.293227
vt 0.596971 0.260349
vt 0.618081 0.281459
vt 0.583849 0.281405
vt 0.596971 0.260349
vt 0.595671 0.293227
vt 0.668016 0.379656
vt 0.673716 0.341024
vt 0.694826 0.362134
vt 0.656194 0.367834
vt 0.673716 0.341024
vt 0.668016 0.379656
vt 0.677277 0.627565
vt 0.648865 0.616860
vt 0.673759 0.591966
vt 0.663337 0.641506
vt 0.648865 0.616860
vt 0.677277 0.627565
vt 0.652782 0.646497
vt 0.623529 0.640676
vt 0.645289 0.618916
vt 0.640597 0.658682
vt 0.623529 0.640676
vt 0.652782 0.646497
vt 0.612423 0.311942
vt 0.619830 0.283731
vt 0.641590 0.305490
vt 0.600237 0.299757
vt 0.619830 0.283731
vt 0.612423 0.311942
vt 0.555014 0.259354
vt 0.544592 0.209814
vt 0.569486 0.234708
vt 0.541074 0.245413
vt 0.544592 0.209814
vt 0.555014 0.259354
vt 0.637553 0.346237
vt 0.647064 0.313516
vt 0.666854 0.333307
vt 0.626470 0.335155
vt 0.647064 0.313516
vt 0.637553 0.346237
vt 0.694589 0.522880
vt 0.701238 0.553173
vt 0.659124 0.558345
vt 0.648780 0.497760
vt 0.603578 0.493722
vt 0.629966 0.467335
vt 0.634003 0.512537
vt 0.603578 0.493722
vt 0.648780 0.497760
vt 0.629966 0.467335
vt 0.581891 0.478632
vt 0.614875 0.445648
vt 0.603578 0.493722
vt 0.581891 0.478632
vt 0.629966 0.467335
vt 0.501335 0.234844
vt 0.531681 0.244079
vt 0.521126 0.254634
vt 0.511890 0.224289
vt 0.531681 0.244079
vt 0.501335 0.234844
vt 0.746349 0.479858
vt 0.778014 0.490413
vt 0.767459 0.500968
vt 0.756904 0.469303
vt 0.778014 0.490413
vt 0.746349 0.479858
vt 0.507349 0.267936
vt 0.501335 0.234844
vt 0.521126 0.254634
vt 0.491517 0.252103
vt 0.501335 0.234844
vt 0.507349 0.267936
vt 0.751467 0.512738
vt 0.746349 0.479858
vt 0.767459 0.500968
vt 0.734579 0.495850
vt 0.746349 0.479858
vt 0.751467 0.512738
vt 0.756904 0.469303
vt 0.726559 0.460067
vt 0.737114 0.449512
vt 0.746349 0.479858
vt 0.726559 0.460067
vt 0.756904 0.469303
vt 0.672485 0.384883
vt 0.637036 0.370545
vt 0.647591 0.359990
vt 0.661929 0.395438
vt 0.637036 0.370545
vt 0.672485 0.384883
vt 0.694244 0.406643
vt 0.661929 0.395438
vt 0.672485 0.384883
vt 0.683689 0.417198
vt 0.661929 0.395438
vt 0.694244 0.406643
vt 0.715354 0.427753
vt 0.683689 0.417198
vt 0.694244 0.406643
vt 0.704799 0.438308
vt 0.683689 0.417198
vt 0.715354 0.427753
vt 0.737114 0.449512
vt 0.704799 0.438308
vt 0.715354 0.427753
vt 0.726559 0.460067
vt 0.704799 0.438308
vt 0.737114 0.449512
vt 0.708878 0.467423
vt 0.704799 0.438308
vt 0.726559 0.460067
vt 0.691470 0.450015
vt 0.704799 0.438308
vt 0.708878 0.467423
vt 0.568751 0.327137
vt 0.563995 0.297504
vt 0.585755 0.319263
vt 0.551343 0.309729
vt 0.563995 0.297504
vt 0.568751 0.327137
vt 0.690071 0.448198
vt 0.683689 0.417198
vt 0.704799 0.438308
vt 0.673183 0.431310
vt 0.683689 0.417198
vt 0.690071 0.448198
vt 0.590311 0.349913
vt 0.585755 0.319263
vt 0.610648 0.344157
vt 0.570396 0.329998
vt 0.585755 0.319263
vt 0.590311 0.349913
vt 0.671464 0.429850
vt 0.661929 0.395438
vt 0.683689 0.417198
vt 0.654056 0.412442
vt 0.661929 0.395438
vt 0.671464 0.429850
vt 0.729090 0.489676
vt 0.726559 0.460067
vt 0.746349 0.479858
vt 0.713257 0.473844
vt 0.726559 0.460067
vt 0.729090 0.489676
vt 0.549883 0.308010
vt 0.542885 0.276394
vt 0.563995 0.297504
vt 0.532995 0.291122
vt 0.542885 0.276394
vt 0.549883 0.308010
vt 0.651195 0.410797
vt 0.637036 0.370545
vt 0.661929 0.395438
vt 0.631280 0.390882
vt 0.637036 0.370545
vt 0.651195 0.410797
vt 0.585755 0.319263
vt 0.621203 0.333602
vt 0.610648 0.344157
vt 0.596310 0.308708
vt 0.621203 0.333602
vt 0.585755 0.319263
vt 0.563995 0.297504
vt 0.596310 0.308708
vt 0.585755 0.319263
vt 0.574550 0.286949
vt 0.596310 0.308708
vt 0.563995 0.297504
vt 0.542885 0.276394
vt 0.574550 0.286949
vt 0.563995 0.297504
vt 0.553440 0.265839
vt 0.574550 0.286949
vt 0.542885 0.276394
vt 0.521126 0.254634
vt 0.553440 0.265839
vt 0.542885 0.276394
vt 0.531681 0.244079
vt 0.553440 0.265839
vt 0.521126 0.254634
vt 0.531178 0.289723
vt 0.521126 0.254634
vt 0.542885 0.276394
vt 0.513770 0.272315
vt 0.521126 0.254634
vt 0.531178 0.289723
vt 0.518357 0.305397
vt 0.513770 0.272315
vt 0.531178 0.289723
vt 0.508609 0.295649
vt 0.513770 0.272315
vt 0.518357 0.305397
vt 0.657810 0.444255
vt 0.654056 0.412442
vt 0.671464 0.429850
vt 0.648061 0.434507
vt 0.654056 0.412442
vt 0.657810 0.444255
vt 0.490038 0.284411
vt 0.491517 0.252103
vt 0.507349 0.267936
vt 0.481172 0.275544
vt 0.491517 0.252103
vt 0.490038 0.284411
vt 0.533038 0.318507
vt 0.532995 0.291122
vt 0.549883 0.308010
vt 0.523581 0.309050
vt 0.532995 0.291122
vt 0.533038 0.318507
vt 0.672143 0.457612
vt 0.673183 0.431310
vt 0.690071 0.448198
vt 0.662686 0.448155
vt 0.673183 0.431310
vt 0.672143 0.457612
vt 0.730019 0.526755
vt 0.734579 0.495850
vt 0.751467 0.512738
vt 0.720562 0.517298
vt 0.734579 0.495850
vt 0.730019 0.526755
vt 0.561832 0.352728
vt 0.570396 0.329998
vt 0.590311 0.349913
vt 0.550679 0.341575
vt 0.570396 0.329998
vt 0.561832 0.352728
vt 0.546686 0.333131
vt 0.551343 0.309729
vt 0.568751 0.327137
vt 0.536938 0.323383
vt 0.551343 0.309729
vt 0.546686 0.333131
vt 0.685544 0.472584
vt 0.691470 0.450015
vt 0.708878 0.467423
vt 0.675796 0.462836
vt 0.691470 0.450015
vt 0.685544 0.472584
vt 0.639618 0.430514
vt 0.631280 0.390882
vt 0.651195 0.410797
vt 0.628465 0.419361
vt 0.631280 0.390882
vt 0.639618 0.430514
vt 0.705649 0.500021
vt 0.713257 0.473844
vt 0.729090 0.489676
vt 0.696782 0.491155
vt 0.713257 0.473844
vt 0.705649 0.500021
vt 0.652231 0.714459
vt 0.657551 0.738693
vt 0.623860 0.742830
vt 0.595346 0.397668
vt 0.598576 0.361507
vt 0.619686 0.382617
vt 0.583525 0.385847
vt 0.598576 0.361507
vt 0.595346 0.397668
vt 0.619686 0.382617
vt 0.610648 0.344157
vt 0.637036 0.370545
vt 0.598576 0.361507
vt 0.610648 0.344157
vt 0.619686 0.382617
vt 0.736641 0.320319
vt 0.701622 0.307840
vt 0.715531 0.299209
vt 0.728010 0.334227
vt 0.701622 0.307840
vt 0.736641 0.320319
vt 0.707570 0.292590
vt 0.676884 0.283102
vt 0.687780 0.272800
vt 0.701622 0.307840
vt 0.676884 0.283102
vt 0.707570 0.292590
vt 0.678844 0.268236
vt 0.649685 0.255902
vt 0.657084 0.246476
vt 0.676884 0.283102
vt 0.649685 0.255902
vt 0.678844 0.268236
vt 0.654577 0.244963
vt 0.623297 0.229515
vt 0.633467 0.223853
vt 0.649685 0.255902
vt 0.623297 0.229515
vt 0.654577 0.244963
vt 0.631790 0.221555
vt 0.596098 0.202316
vt 0.610031 0.199796
vt 0.623297 0.229515
vt 0.596098 0.202316
vt 0.631790 0.221555
vt 0.608574 0.195620
vt 0.564980 0.171199
vt 0.583680 0.170727
vt 0.596098 0.202316
vt 0.564980 0.171199
vt 0.608574 0.195620
vt 0.610648 0.344157
vt 0.647591 0.359990
vt 0.637036 0.370545
vt 0.621203 0.333602
vt 0.647591 0.359990
vt 0.610648 0.344157
vt 0.634671 0.552878
vt 0.622253 0.584468
vt 0.609777 0.577772
vt 0.653371 0.553350
vt 0.622253 0.584468
vt 0.634671 0.552878
vt 0.627537 0.689006
vt 0.670032 0.705883
vt 0.653925 0.715393
vt 0.637048 0.672899
vt 0.670032 0.705883
vt 0.627537 0.689006
vt 0.608320 0.581948
vt 0.595054 0.611667
vt 0.586561 0.603707
vt 0.622253 0.584468
vt 0.595054 0.611667
vt 0.608320 0.581948
vt 0.584884 0.606005
vt 0.568666 0.638054
vt 0.563774 0.627115
vt 0.595054 0.611667
vt 0.568666 0.638054
vt 0.584884 0.606005
vt 0.561267 0.628628
vt 0.541467 0.665254
vt 0.539507 0.650387
vt 0.568666 0.638054
vt 0.541467 0.665254
vt 0.561267 0.628628
vt 0.530571 0.654952
vt 0.516729 0.689992
vt 0.510781 0.674742
vt 0.541467 0.665254
vt 0.516729 0.689992
vt 0.530571 0.654952
vt 0.631470 0.526907
vt 0.446758 0.315808
vt 0.644663 0.513713
vt 0.433565 0.329002
vt 0.446758 0.315808
vt 0.631470 0.526907
vt 0.400580 0.361986
vt 0.585292 0.573085
vt 0.387387 0.375180
vt 0.598486 0.559891
vt 0.585292 0.573085
vt 0.400580 0.361986
vt 0.433565 0.302614
vt 0.479743 0.282824
vt 0.446758 0.315808
vt 0.466549 0.269630
vt 0.479743 0.282824
vt 0.433565 0.302614
vt 0.479743 0.282824
vt 0.644663 0.513713
vt 0.446758 0.315808
vt 0.677648 0.480729
vt 0.644663 0.513713
vt 0.479743 0.282824
vt 0.433565 0.329002
vt 0.598486 0.559891
vt 0.400580 0.361986
vt 0.631470 0.526907
vt 0.598486 0.559891
vt 0.433565 0.329002
vt 0.690841 0.493923
vt 0.644663 0.513713
vt 0.677648 0.480729
vt 0.657857 0.526907
vt 0.644663 0.513713
vt 0.690841 0.493923
vt 0.746828 0.309957
vt 0.686797 0.263120
vt 0.829949 0.333706
vt 0.823681 0.339973
vt 0.746828 0.309957
vt 0.829949 0.333706
vt 0.616211 0.119968
vt 0.829949 0.333706
vt 0.686797 0.263120
vt 0.589823 0.146356
vt 0.616211 0.119968
vt 0.630064 0.212984
vt 0.616211 0.119968
vt 0.686797 0.263120
vt 0.630064 0.212984
vt 0.538735 0.619642
vt 0.354023 0.408543
vt 0.551928 0.606448
vt 0.340829 0.421737
vt 0.354023 0.408543
vt 0.538735 0.619642
vt 0.307845 0.454721
vt 0.492557 0.665820
vt 0.294652 0.467915
vt 0.505750 0.652626
vt 0.492557 0.665820
vt 0.307845 0.454721
vt 0.340830 0.395350
vt 0.387007 0.375559
vt 0.354023 0.408543
vt 0.373814 0.362365
vt 0.387007 0.375559
vt 0.340830 0.395350
vt 0.387007 0.375559
vt 0.551928 0.606448
vt 0.354023 0.408543
vt 0.584913 0.573464
vt 0.551928 0.606448
vt 0.387007 0.375559
vt 0.340829 0.421737
vt 0.505750 0.652626
vt 0.307845 0.454721
vt 0.538735 0.619642
vt 0.505750 0.652626
vt 0.340829 0.421737
vt 0.598106 0.586658
vt 0.551928 0.606448
vt 0.584913 0.573464
vt 0.565122 0.619642
vt 0.551928 0.606448
vt 0.598106 0.586658
vt 0.845877 0.537726
vt 0.785845 0.490888
vt 0.928997 0.561474
vt 0.922730 0.567741
vt 0.845877 0.537726
vt 0.928997 0.561474
vt 0.715259 0.347737
vt 0.928997 0.561474
vt 0.785845 0.490888
vt 0.688872 0.374124
vt 0.715259 0.347737
vt 0.729113 0.440752
vt 0.715259 0.347737
vt 0.785845 0.490888
vt 0.729113 0.440752
vt 0.667990 0.502193
vt 0.647302 0.546523
vt 0.638436 0.531747
vt 0.667990 0.502193
vt 0.638436 0.531747
vt 0.634003 0.512537
vt 0.667990 0.502193
vt 0.634003 0.512537
vt 0.648780 0.497760
vt 0.647302 0.546523
vt 0.667990 0.502193
vt 0.682767 0.511059
vt 0.647302 0.546523
vt 0.682767 0.511059
vt 0.694589 0.522880
vt 0.701238 0.553173
vt 0.694589 0.522880
vt 0.703455 0.537657
vt 0.659124 0.558345
vt 0.701238 0.553173
vt 0.689417 0.564995
vt 0.659124 0.558345
vt 0.689417 0.564995
vt 0.673901 0.567211
vt 0.694589 0.522880
vt 0.659124 0.558345
vt 0.647302 0.546523
vt 0.630952 0.697909
vt 0.614402 0.733373
vt 0.607309 0.721552
vt 0.630952 0.697909
vt 0.607309 0.721552
vt 0.603763 0.706184
vt 0.630952 0.697909
vt 0.603763 0.706184
vt 0.615584 0.694362
vt 0.614402 0.733373
vt 0.630952 0.697909
vt 0.642774 0.705002
vt 0.614402 0.733373
vt 0.642774 0.705002
vt 0.652231 0.714459
vt 0.657551 0.738693
vt 0.652231 0.714459
vt 0.659324 0.726280
vt 0.623860 0.742830
vt 0.657551 0.738693
vt 0.648094 0.748150
vt 0.623860 0.742830
vt 0.648094 0.748150
vt 0.635681 0.749923
vt 0.652231 0.714459
vt 0.623860 0.742830
vt 0.614402 0.733373

vn -0.000000 0.000000 -1.000000
vn -0.000000 0.000000 -1.000000
vn -0.000000 0.000000 -1.000000
vn -0.000000 0.000000 -1.000000
vn -0.000000 0.000000 -1.000000
vn -0.000000 0.000000 -1.000000
vn -0.000000 0.000000 1.000000
vn -0.000000 0.000000 1.000000
vn -0.000000 0.000000 1.000000
vn -0.000000 0.000000 1.000000
vn -0.000000 0.000000 1.000000
vn -0.000000 0.000000 1.000000
vn -1.000000 0.000000 0.000000
vn -1.000000 0.000000 0.000000
vn -1.000000 0.000000 0.000000
vn -1.000000 0.000000 0.000000
vn -1.000000 0.000000 0.000000
vn -1.000000 0.000000 0.000000
vn -0.000000 0.000000 -1.000000
vn -0.000000 0.000000 -1.000000
vn -0.000000 0.000000 -1.000000
vn -0.000000 0.000000 -1.000000
vn -0.000000 0.000000 -1.000000
vn -0.000000 0.000000 -1.000000
vn -1.000000 0.000000 0.000000
vn -1.000000 0.000000 0.000000
vn -1.000000 0.000000 0.000000
vn -1.000000 0.000000 0.000000
vn -1.000000 0.000000 0.000000
vn -1.000000 0.000000 0.000000
vn 1.000000 0.000000 0.000000
vn 1.000000 0.000000 0.000000
vn 1.000000 0.000000 0.000000
vn 1.000000 0.000000 0.000000
vn 1.000000 0.000000 0.000000
vn 1.000000 0.000000 0.000000
vn -1.000000 0.000000 0.000000
vn -1.000000 0.000000 0.000000
vn -1.000000 0.000000 0.000000
vn -1.000000 0.000000 0.000000
vn -1.000000 0.000000 0.000000
vn -1.000000 0.000000 0.000000
vn 1.000000 0.000000 0.000000
vn 1.000000 0.000000 0.000000
vn 1.000000 0.000000 0.000000
vn 1.000000 0.000000 0.000000
vn 1.000000 0.000000 0.000000
vn 1.000000 0.000000 0.000000
vn -0.000000 0.000000 1.000000
vn -0.000000 0.000000 1.000000
vn -0.000000 0.000000 1.000000
vn -0.000000 0.000000 1.000000
vn -0.000000 0.000000 1.000000
vn -0.000000 0.000000 1.000000
vn 1.000000 0.000000 0.000000
vn 1.000000 0.000000 0.000000
vn 1.000000 0.000000 0.000000
vn 1.000000 0.000000 0.000000
vn 1.000000 0.000000 0.000000
vn 1.000000 0.000000 0.000000
vn -0.000000 0.000000 -1.000000
vn -0.000000 0.000000 -1.000000
vn -0.000000 0.000000 -1.000000
vn -0.000000 0.000000 -1.000000
vn -0.000000 0.000000 -1.000000
vn -0.000000 0.000000 -1.000000
vn -0.000000 0.000000 1.000000
vn -0.000000 0.000000 1.000000
vn -0.000000 0.000000 1.000000
vn -0.000000 0.000000 1.000000
vn -0.000000 0.000000 1.000000
vn -0.000000 0.000000 1.000000
vn -0.000000 1.000000 0.000000
vn -0.000000 1.000000 0.000000
vn -0.000000 1.000000 0.000000
vn -0.000000 1.000000 0.000000
vn -0.000000 1.000000 0.000000
vn -0.000000 1.000000 0.000000
vn -0.000000 1.000000 0.000000
vn -0.000000 1.000000 0.000000
vn -0.000000 1.000000 0.000000
vn -0.000000 1.000000 0.000000
vn -0.000000 1.000000 0.000000
vn -0.000000 1.000000 0.000000
vn -0.000000 1.000000 0.000000
vn -0.000000 1.000000 0.000000
vn -0.000000 1.000000 0.000000
vn -0.000000 1.000000 0.000000
vn -0.000000 1.000000 0.000000
vn -0.000000 1.000000 0.000000
vn -0.000000 -1.000000 0.000000
vn -0.000000 -1.000000 0.000000
vn -0.000000 -1.000000 0.000000
vn -0.000000 -1.000000 0.000000
vn -0.000000 -1.000000 0.000000
vn -0.000000 -1.000000 0.000000
vn -0.000000 -1.000000 0.000000
vn -0.000000 -1.000000 0.000000
vn -0.000000 -1.000000 0.000000
vn -0.000000 -1.000000 0.000000
vn -0.000000 -1.000000 0.000000
vn -0.000000 -1.000000 0.000000
vn -0.000000 -1.000000 0.000000
vn -0.000000 -1.000000 0.000000
vn -0.000000 -1.000000 0.000000
vn -0.000000 -1.000000 0.000000
vn -0.000000 -1.000000 0.000000
vn -0.000000 -1.000000 0.000000
vn -0.000000 -1.000000 0.000000
vn -0.000000 -1.000000 0.000000
vn -0.000000 -1.000000 0.000000
vn -0.000000 -1.000000 0.000000
vn -0.000000 -1.000000 0.000000
vn -0.000000 -1.000000 0.000000
vn -0.000000 -1.000000 0.000000
vn -0.000000 -1.000000 0.000000
vn -0.000000 -1.000000 0.000000
vn -0.000000 -1.000000 0.000000
vn -0.000000 -1.000000 0.000000
vn -0.000000 -1.000000 0.000000
vn -0.000000 -1.000000 0.000000
vn -0.000000 -1.000000 0.000000
vn -0.000000 -1.000000 0.000000
vn -0.000000 -1.000000 0.000000
vn -0.000000 -1.000000 0.000000
vn -0.000000 -1.000000 0.000000
vn -0.000000 -1.000000 0.000000
vn -0.000000 -1.000000 0.000000
vn -0.000000 -1.000000 0.000000
vn -1.000000 0.000000 0.000000
vn -1.000000 0.000000 0.000000
vn -1.000000 0.000000 0.000000
vn -1.000000 0.000000 0.000000
vn -1.000000 0.000000 0.000000
vn -1.000000 0.000000 0.000000
vn 1.000000 0.000000 0.000000
vn 1.000000 0.000000 0.000000
vn 1.000000 0.000000 0.000000
vn 1.000000 0.000000 0.000000
vn 1.000000 0.000000 0.000000
vn 1.000000 0.000000 0.000000
vn -0.000000 0.000000 -1.000000
vn -0.000000 0.000000 -1.000000
vn -0.000000 0.000000 -1.000000
vn -0.000000 0.000000 -1.000000
vn -0.000000 0.000000 -1.000000
vn -0.000000 0.000000 -1.000000
vn -0.000000 0.000000 1.000000
vn -0.000000 0.000000 1.000000
vn -0.000000 0.000000 1.000000
vn -0.000000 0.000000 1.000000
vn -0.000000 0.000000 1.000000
vn -0.000000 0.000000 1.000000
vn -0.000000 0.000000 -1.000000
vn -0.000000 0.000000 -1.000000
vn -0.000000 0.000000 -1.000000
vn -0.000000 0.000000 -1.000000
vn -0.000000 0.000000 -1.000000
vn -0.000000 0.000000 -1.000000
vn -1.000000 0.000000 0.000000
vn -1.000000 0.000000 0.000000
vn -1.000000 0.000000 0.000000
vn -1.000000 0.000000 0.000000
vn -1.000000 0.000000 0.000000
vn -1.000000 0.000000 0.000000
vn -0.000000 0.000000 1.000000
vn -0.000000 0.000000 1.000000
vn -0.000000 0.000000 1.000000
vn -0.000000 0.000000 1.000000
vn -0.000000 0.000000 1.000000
vn -0.000000 0.000000 1.000000
vn 1.000000 0.000000 0.000000
vn 1.000000 0.000000 0.000000
vn 1.000000 0.000000 0.000000
vn 1.000000 0.000000 0.000000
vn 1.000000 0.000000 0.000000
vn 1.000000 0.000000 0.000000
vn -0.000000 0.000000 1.000000
vn -0.000000 0.000000 1.000000
vn -0.000000 0.000000 1.000000
vn -0.000000 0.000000 1.000000
vn -0.000000 0.000000 1.000000
vn -0.000000 0.000000 1.000000
vn -1.000000 0.000000 0.000000
vn -1.000000 0.000000 0.000000
vn -1.000000 0.000000 0.000000
vn -1.000000 0.000000 0.000000
vn -1.000000 0.000000 0.000000
vn -1.000000 0.000000 0.000000
vn 1.000000 0.000000 -0.000000
vn 1.000000 0.000000 -0.000000
vn 1.000000 0.000000 -0.000000
vn 1.000000 0.000000 0.000000
vn 1.000000 0.000000 0.000000
vn 1.000000 0.000000 0.000000
vn -0.000000 0.000000 -1.000000
vn -0.000000 0.000000 -1.000000
vn -0.000000 0.000000 -1.000000
vn -0.000000 0.000000 -1.000000
vn -0.000000 0.000000 -1.000000
vn -0.000000 0.000000 -1.000000
vn 0.707107 0.000000 0.707106
vn 0.707107 0.000000 0.707106
vn 0.707107 0.000000 0.707106
vn 0.707106 0.000000 0.707107
vn 0.707106 0.000000 0.707107
vn 0.707106 0.000000 0.707107
vn -0.703564 -0.099977 0.703564
vn -0.703564 -0.099977 0.703564
vn -0.703564 -0.099977 0.703564
vn -0.703564 -0.099978 0.703564
vn -0.703564 -0.099978 0.703564
vn -0.703564 -0.099978 0.703564
vn -0.707107 0.000000 -0.707107
vn -0.707107 0.000000 -0.707107
vn -0.707107 0.000000 -0.707107
vn -0.707106 0.000000 -0.707107
vn -0.707106 0.000000 -0.707107
vn -0.707106 0.000000 -0.707107
vn 0.703564 0.099977 -0.703564
vn 0.703564 0.099977 -0.703564
vn 0.703564 0.099977 -0.703564
vn 0.703564 0.099977 -0.703564
vn 0.703564 0.099977 -0.703564
vn 0.703564 0.099977 -0.703564
vn -0.703564 -0.099977 0.703564
vn -0.703564 -0.099977 0.703564
vn -0.703564 -0.099977 0.703564
vn -0.703564 -0.099977 0.703564
vn -0.703564 -0.099977 0.703564
vn -0.703564 -0.099977 0.703564
vn -0.703564 -0.099974 0.703564
vn -0.703564 -0.099974 0.703564
vn -0.703564 -0.099974 0.703564
vn 0.664072 -0.444973 0.600839
vn 0.664072 -0.444973 0.600839
vn 0.664072 -0.444973 0.600839
vn 0.664072 -0.444972 0.600840
vn 0.664072 -0.444972 0.600840
vn 0.664072 -0.444972 0.600840
vn -0.600839 -0.444973 -0.664072
vn -0.600839 -0.444973 -0.664072
vn -0.600839 -0.444973 -0.664072
vn -0.600840 -0.444973 -0.664071
vn -0.600840 -0.444973 -0.664071
vn -0.600840 -0.444973 -0.664071
vn 0.703564 0.099976 -0.703564
vn 0.703564 0.099976 -0.703564
vn 0.703564 0.099976 -0.703564
vn 0.703564 0.099976 -0.703564
vn 0.703564 0.099976 -0.703564
vn 0.703564 0.099976 -0.703564
vn 0.703564 0.099977 -0.703564
vn 0.703564 0.099977 -0.703564
vn 0.703564 0.099977 -0.703564
vn 0.703564 0.099977 -0.703564
vn 0.703564 0.099977 -0.703564
vn 0.703564 0.099977 -0.703564
vn 0.707106 0.000001 0.707107
vn 0.707106 0.000001 0.707107
vn 0.707106 0.000001 0.707107
vn 0.707107 0.000000 0.707106
vn 0.707107 0.000000 0.707106
vn 0.707107 0.000000 0.707106
vn -0.707106 0.000002 -0.707108
vn -0.707106 0.000002 -0.707108
vn -0.707106 0.000002 -0.707108
vn -0.707107 0.000001 -0.707107
vn -0.707107 0.000001 -0.707107
vn -0.707107 0.000001 -0.707107
vn 0.703565 0.099973 -0.703564
vn 0.703565 0.099973 -0.703564
vn 0.703565 0.099973 -0.703564
vn 0.703564 0.099976 -0.703564
vn 0.703564 0.099976 -0.703564
vn 0.703564 0.099976 -0.703564
vn 0.703563 0.099977 -0.703565
vn 0.703563 0.099977 -0.703565
vn 0.703563 0.099977 -0.703565
vn 0.703565 0.099977 -0.703563
vn 0.703565 0.099977 -0.703563
vn 0.703565 0.099977 -0.703563
vn -0.070694 0.994990 0.070695
vn -0.070694 0.994990 0.070695
vn -0.070694 0.994990 0.070695
vn -0.070696 0.994990 0.070696
vn -0.070696 0.994990 0.070696
vn -0.070696 0.994990 0.070696
vn 0.707107 -0.000000 0.707106
vn 0.707107 -0.000000 0.707106
vn 0.707107 -0.000000 0.707106
vn 0.707107 0.000000 0.707107
vn 0.707107 0.000000 0.707107
vn 0.707107 0.000000 0.707107
vn -0.070695 0.994990 0.070695
vn -0.070695 0.994990 0.070695
vn -0.070695 0.994990 0.070695
vn -0.070695 0.994990 0.070695
vn -0.070695 0.994990 0.070695
vn -0.070695 0.994990 0.070695
vn -0.703564 -0.099977 0.703564
vn -0.703564 -0.099977 0.703564
vn -0.703564 -0.099977 0.703564
vn -0.703564 -0.099977 0.703564
vn -0.703564 -0.099977 0.703564
vn -0.703564 -0.099977 0.703564
vn -0.070695 0.994990 0.070695
vn -0.070695 0.994990 0.070695
vn -0.070695 0.994990 0.070695
vn -0.070695 0.994990 0.070695
vn -0.070695 0.994990 0.070695
vn -0.070695 0.994990 0.070695
vn -0.070693 0.994990 0.070693
vn -0.070693 0.994990 0.070693
vn -0.070693 0.994990 0.070693
vn -0.070694 0.994990 0.070693
vn -0.070694 0.994990 0.070693
vn -0.070694 0.994990 0.070693
vn -0.070693 0.994990 0.070693
vn -0.070693 0.994990 0.070693
vn -0.070693 0.994990 0.070693
vn -0.070694 0.994990 0.070693
vn -0.070694 0.994990 0.070693
vn -0.070694 0.994990 0.070693
vn -0.070693 0.994990 0.070693
vn -0.070693 0.994990 0.070693
vn -0.070693 0.994990 0.070693
vn -0.070694 0.994990 0.070693
vn -0.070694 0.994990 0.070693
vn -0.070694 0.994990 0.070693
vn -0.070693 0.994990 0.070693
vn -0.070693 0.994990 0.070693
vn -0.070693 0.994990 0.070693
vn -0.070694 0.994990 0.070693
vn -0.070694 0.994990 0.070693
vn -0.070694 0.994990 0.070693
vn -0.707108 -0.000000 -0.707106
vn -0.707108 -0.000000 -0.707106
vn -0.707108 -0.000000 -0.707106
vn -0.707108 0.000000 -0.707106
vn -0.707108 0.000000 -0.707106
vn -0.707108 0.000000 -0.707106
vn -0.703563 -0.099977 0.703565
vn -0.703563 -0.099977 0.703565
vn -0.703563 -0.099977 0.703565
vn -0.703565 -0.099976 0.703563
vn -0.703565 -0.099976 0.703563
vn -0.703565 -0.099976 0.703563
vn 0.707108 -0.000001 0.707106
vn 0.707108 -0.000001 0.707106
vn 0.707108 -0.000001 0.707106
vn 0.707108 0.000001 0.707106
vn 0.707108 0.000001 0.707106
vn 0.707108 0.000001 0.707106
vn -0.707107 0.000000 -0.707106
vn -0.707107 0.000000 -0.707106
vn -0.707107 0.000000 -0.707106
vn -0.707106 -0.000000 -0.707108
vn -0.707106 -0.000000 -0.707108
vn -0.707106 -0.000000 -0.707108
vn -0.703564 -0.099977 0.703564
vn -0.703564 -0.099977 0.703564
vn -0.703564 -0.099977 0.703564
vn -0.703564 -0.099977 0.703564
vn -0.703564 -0.099977 0.703564
vn -0.703564 -0.099977 0.703564
vn -0.707107 0.000000 -0.707106
vn -0.707107 0.000000 -0.707106
vn -0.707107 0.000000 -0.707106
vn -0.707108 -0.000000 -0.707106
vn -0.707108 -0.000000 -0.707106
vn -0.707108 -0.000000 -0.707106
vn 0.703564 0.099977 -0.703564
vn 0.703564 0.099977 -0.703564
vn 0.703564 0.099977 -0.703564
vn 0.703564 0.099977 -0.703564
vn 0.703564 0.099977 -0.703564
vn 0.703564 0.099977 -0.703564
vn 0.707108 0.000000 0.707106
vn 0.707108 0.000000 0.707106
vn 0.707108 0.000000 0.707106
vn 0.707107 0.000000 0.707106
vn 0.707107 0.000000 0.707106
vn 0.707107 0.000000 0.707106
vn -0.703564 -0.099977 0.703564
vn -0.703564 -0.099977 0.703564
vn -0.703564 -0.099977 0.703564
vn -0.703564 -0.099977 0.703564
vn -0.703564 -0.099977 0.703564
vn -0.703564 -0.099977 0.703564
vn -0.707108 -0.000000 -0.707106
vn -0.707108 -0.000000 -0.707106
vn -0.707108 -0.000000 -0.707106
vn -0.707107 -0.000000 -0.707106
vn -0.707107 -0.000000 -0.707106
vn -0.707107 -0.000000 -0.707106
vn 0.703565 0.099977 -0.703563
vn 0.703565 0.099977 -0.703563
vn 0.703565 0.099977 -0.703563
vn 0.703564 0.099977 -0.703564
vn 0.703564 0.099977 -0.703564
vn 0.703564 0.099977 -0.703564
vn 0.707108 0.000000 0.707106
vn 0.707108 0.000000 0.707106
vn 0.707108 0.000000 0.707106
vn 0.707107 0.000000 0.707106
vn 0.707107 0.000000 0.707106
vn 0.707107 0.000000 0.707106
vn 0.703564 0.099978 -0.703564
vn 0.703564 0.099978 -0.703564
vn 0.703564 0.099978 -0.703564
vn 0.703564 0.099981 -0.703564
vn 0.703564 0.099981 -0.703564
vn 0.703564 0.099981 -0.703564
vn 0.703564 0.099977 -0.703564
vn 0.703564 0.099977 -0.703564
vn 0.703564 0.099977 -0.703564
vn 0.703564 0.099979 -0.703564
vn 0.703564 0.099979 -0.703564
vn 0.703564 0.099979 -0.703564
vn 0.703564 0.099980 -0.703564
vn 0.703564 0.099980 -0.703564
vn 0.703564 0.099980 -0.703564
vn 0.703564 0.099974 -0.703564
vn 0.703564 0.099974 -0.703564
vn 0.703564 0.099974 -0.703564
vn -0.703564 -0.099978 0.703564
vn -0.703564 -0.099978 0.703564
vn -0.703564 -0.099978 0.703564
vn -0.703564 -0.099976 0.703564
vn -0.703564 -0.099976 0.703564
vn -0.703564 -0.099976 0.703564
vn -0.703564 -0.099976 0.703564
vn -0.703564 -0.099976 0.703564
vn -0.703564 -0.099976 0.703564
vn -0.703564 -0.099978 0.703564
vn -0.703564 -0.099978 0.703564
vn -0.703564 -0.099978 0.703564
vn -0.703565 -0.099974 0.703564
vn -0.703565 -0.099974 0.703564
vn -0.703565 -0.099974 0.703564
vn -0.703562 -0.099985 0.703564
vn -0.703562 -0.099985 0.703564
vn -0.703562 -0.099985 0.703564
vn -0.703564 -0.099977 0.703564
vn -0.703564 -0.099977 0.703564
vn -0.703564 -0.099977 0.703564
vn 0.091882 0.794706 0.600000
vn 0.091882 0.794706 0.600000
vn 0.091882 0.794706 0.600000
vn 0.091882 0.794707 0.599999
vn 0.091882 0.794707 0.599999
vn 0.091882 0.794707 0.599999
vn 0.993383 -0.114851 0.000000
vn 0.993383 -0.114851 0.000000
vn 0.993383 -0.114851 0.000000
vn 0.993383 -0.114851 -0.000000
vn 0.993383 -0.114851 -0.000000
vn 0.993383 -0.114851 -0.000000
vn -0.000000 -0.000000 -1.000000
vn -0.000000 -0.000000 -1.000000
vn -0.000000 -0.000000 -1.000000
vn -0.000000 -0.000000 -1.000000
vn -0.000000 -0.000000 -1.000000
vn -0.000000 -0.000000 -1.000000
vn -0.000000 0.000000 1.000000
vn -0.000000 0.000000 1.000000
vn -0.000000 0.000000 1.000000
vn -0.000000 -0.000000 1.000000
vn -0.000000 -0.000000 1.000000
vn -0.000000 -0.000000 1.000000
vn -0.993383 0.114851 0.000000
vn -0.993383 0.114851 0.000000
vn -0.993383 0.114851 0.000000
vn -0.993383 0.114851 0.000000
vn -0.993383 0.114851 0.000000
vn -0.993383 0.114851 0.000000
vn 0.114852 0.993383 0.000000
vn 0.114852 0.993383 0.000000
vn 0.114852 0.993383 0.000000
vn 0.114853 0.993383 0.000000
vn 0.114853 0.993383 0.000000
vn 0.114853 0.993383 0.000000
vn 0.693764 0.547624 0.467759
vn 0.693764 0.547624 0.467759
vn 0.693764 0.547624 0.467759
vn 0.693763 0.547624 0.467761
vn 0.693763 0.547624 0.467761
vn 0.693763 0.547624 0.467761
vn 0.732517 0.680749 0.000000
vn 0.732517 0.680749 0.000000
vn 0.732517 0.680749 0.000000
vn 0.732517 0.680749 0.000000
vn 0.732517 0.680749 0.000000
vn 0.732517 0.680749 0.000000
vn 0.091882 0.794707 -0.599999
vn 0.091882 0.794707 -0.599999
vn 0.091882 0.794707 -0.599999
vn 0.091882 0.794706 -0.600000
vn 0.091882 0.794706 -0.600000
vn 0.091882 0.794706 -0.600000
vn -0.060871 -0.526492 -0.847998
vn -0.060871 -0.526492 -0.847998
vn -0.060871 -0.526492 -0.847998
vn -0.060870 -0.526492 -0.847998
vn -0.060870 -0.526492 -0.847998
vn -0.060870 -0.526492 -0.847998
vn -0.027855 -0.240931 -0.970142
vn -0.027855 -0.240931 -0.970142
vn -0.027855 -0.240931 -0.970142
vn -0.027856 -0.240931 -0.970142
vn -0.027856 -0.240931 -0.970142
vn -0.027856 -0.240931 -0.970142
vn -0.000000 0.000000 -1.000000
vn -0.000000 0.000000 -1.000000
vn -0.000000 0.000000 -1.000000
vn -0.000000 0.000000 -1.000000
vn -0.000000 0.000000 -1.000000
vn -0.000000 0.000000 -1.000000
vn 0.027856 0.240932 -0.970142
vn 0.027856 0.240932 -0.970142
vn 0.027856 0.240932 -0.970142
vn 0.027856 0.240930 -0.970143
vn 0.027856 0.240930 -0.970143
vn 0.027856 0.240930 -0.970143
vn 0.557586 0.141393 -0.817989
vn 0.557586 0.141393 -0.817989
vn 0.557586 0.141393 -0.817989
vn 0.557586 0.141394 -0.817989
vn 0.557586 0.141394 -0.817989
vn 0.557586 0.141394 -0.817989
vn 0.501956 -0.265213 0.823227
vn 0.501956 -0.265213 0.823227
vn 0.501956 -0.265213 0.823227
vn 0.501957 -0.265211 0.823227
vn 0.501957 -0.265211 0.823227
vn 0.501957 -0.265211 0.823227
vn 0.511091 -0.059090 -0.857493
vn 0.511091 -0.059090 -0.857493
vn 0.511091 -0.059090 -0.857493
vn 0.511091 -0.059090 -0.857493
vn 0.511091 -0.059090 -0.857493
vn 0.511091 -0.059090 -0.857493
vn 0.534650 -0.493448 0.686046
vn 0.534650 -0.493448 0.686046
vn 0.534650 -0.493448 0.686046
vn 0.534648 -0.493450 0.686046
vn 0.534648 -0.493450 0.686046
vn 0.534648 -0.493450 0.686046
vn 0.501956 -0.265212 -0.823227
vn 0.501956 -0.265212 -0.823227
vn 0.501956 -0.265212 -0.823227
vn 0.501955 -0.265212 -0.823227
vn 0.501955 -0.265212 -0.823227
vn 0.501955 -0.265212 -0.823227
vn 0.693763 0.547626 -0.467759
vn 0.693763 0.547626 -0.467759
vn 0.693763 0.547626 -0.467759
vn 0.693764 0.547624 -0.467760
vn 0.693764 0.547624 -0.467760
vn 0.693764 0.547624 -0.467760
vn 0.511092 -0.059090 0.857493
vn 0.511092 -0.059090 0.857493
vn 0.511092 -0.059090 0.857493
vn 0.511092 -0.059092 0.857492
vn 0.511092 -0.059092 0.857492
vn 0.511092 -0.059092 0.857492
vn 0.534648 -0.493449 -0.686046
vn 0.534648 -0.493449 -0.686046
vn 0.534648 -0.493449 -0.686046
vn 0.534649 -0.493449 -0.686046
vn 0.534649 -0.493449 -0.686046
vn 0.534649 -0.493449 -0.686046
vn -0.060871 -0.526492 0.847998
vn -0.060871 -0.526492 0.847998
vn -0.060871 -0.526492 0.847998
vn -0.060871 -0.526492 0.847998
vn -0.060871 -0.526492 0.847998
vn -0.060871 -0.526492 0.847998
vn -0.027855 -0.240931 0.970142
vn -0.027855 -0.240931 0.970142
vn -0.027855 -0.240931 0.970142
vn -0.027856 -0.240931 0.970142
vn -0.027856 -0.240931 0.970142
vn -0.027856 -0.240931 0.970142
vn -0.000000 0.000000 1.000000
vn -0.000000 0.000000 1.000000
vn -0.000000 0.000000 1.000000
vn -0.000000 0.000000 1.000000
vn -0.000000 0.000000 1.000000
vn -0.000000 0.000000 1.000000
vn 0.027856 0.240931 0.970142
vn 0.027856 0.240931 0.970142
vn 0.027856 0.240931 0.970142
vn 0.027856 0.240932 0.970142
vn 0.027856 0.240932 0.970142
vn 0.027856 0.240932 0.970142
vn 0.557586 0.141394 0.817988
vn 0.557586 0.141394 0.817988
vn 0.557586 0.141394 0.817988
vn 0.557586 0.141393 0.817989
vn 0.557586 0.141393 0.817989
vn 0.557586 0.141393 0.817989
vn 0.841408 0.038376 0.539036
vn 0.841408 0.038376 0.539036
vn 0.841408 0.038376 0.539036
vn 0.841409 0.038376 0.539034
vn 0.841409 0.038376 0.539034
vn 0.841409 0.038376 0.539034
vn 0.804424 -0.230766 -0.547402
vn 0.804424 -0.230766 -0.547402
vn 0.804424 -0.230766 -0.547402
vn 0.804424 -0.230766 -0.547401
vn 0.804424 -0.230766 -0.547401
vn 0.804424 -0.230766 -0.547401
vn 0.920615 0.270948 0.281167
vn 0.920615 0.270948 0.281167
vn 0.920615 0.270948 0.281167
vn 0.920615 0.270948 0.281167
vn 0.920615 0.270948 0.281167
vn 0.920615 0.270948 0.281167
vn 0.809901 -0.093637 0.579045
vn 0.809901 -0.093637 0.579045
vn 0.809901 -0.093637 0.579045
vn 0.809901 -0.093636 0.579045
vn 0.809901 -0.093636 0.579045
vn 0.809901 -0.093636 0.579045
vn 0.809901 -0.093637 -0.579045
vn 0.809901 -0.093637 -0.579045
vn 0.809901 -0.093637 -0.579045
vn 0.809901 -0.093637 -0.579044
vn 0.809901 -0.093637 -0.579044
vn 0.809901 -0.093637 -0.579044
vn 0.940174 0.340695 0.000000
vn 0.940174 0.340695 0.000000
vn 0.940174 0.340695 0.000000
vn 0.940174 0.340694 0.000000
vn 0.940174 0.340694 0.000000
vn 0.940174 0.340694 0.000000
vn 0.826073 -0.365434 0.429024
vn 0.826073 -0.365434 0.429024
vn 0.826073 -0.365434 0.429024
vn 0.826074 -0.365433 0.429024
vn 0.826074 -0.365433 0.429024
vn 0.826074 -0.365433 0.429024
vn 0.804424 -0.230766 0.547402
vn 0.804424 -0.230766 0.547402
vn 0.804424 -0.230766 0.547402
vn 0.804424 -0.230766 0.547402
vn 0.804424 -0.230766 0.547402
vn 0.804424 -0.230766 0.547402
vn 0.841408 0.038376 -0.539035
vn 0.841408 0.038376 -0.539035
vn 0.841408 0.038376 -0.539035
vn 0.841408 0.038376 -0.539035
vn 0.841408 0.038376 -0.539035
vn 0.841408 0.038376 -0.539035
vn 0.826073 -0.365434 -0.429023
vn 0.826073 -0.365434 -0.429023
vn 0.826073 -0.365434 -0.429023
vn 0.826073 -0.365434 -0.429024
vn 0.826073 -0.365434 -0.429024
vn 0.826073 -0.365434 -0.429024
vn 0.920615 0.270948 -0.281167
vn 0.920615 0.270948 -0.281167
vn 0.920615 0.270948 -0.281167
vn 0.920615 0.270949 -0.281167
vn 0.920615 0.270949 -0.281167
vn 0.920615 0.270949 -0.281167
vn 0.993383 -0.114851 0.000000
vn 0.993383 -0.114851 0.000000
vn 0.993383 -0.114851 0.000000
vn 0.863452 -0.504430 0.000000
vn 0.863452 -0.504430 0.000000
vn 0.863452 -0.504430 0.000000
vn 0.863452 -0.504431 0.000000
vn 0.863452 -0.504431 0.000000
vn 0.863452 -0.504431 0.000000
vn 0.609552 -0.792746 -0.000001
vn 0.609552 -0.792746 -0.000001
vn 0.609552 -0.792746 -0.000001
vn 0.609553 -0.792746 0.000000
vn 0.609553 -0.792746 0.000000
vn 0.609553 -0.792746 0.000000
vn 0.091881 0.794706 0.600000
vn 0.091881 0.794706 0.600000
vn 0.091881 0.794706 0.600000
vn 0.091880 0.794707 0.600000
vn 0.091880 0.794707 0.600000
vn 0.091880 0.794707 0.600000
vn 0.114849 0.993383 0.000000
vn 0.114849 0.993383 0.000000
vn 0.114849 0.993383 0.000000
vn 0.114851 0.993383 0.000000
vn 0.114851 0.993383 0.000000
vn 0.114851 0.993383 0.000000
vn 0.693763 0.547625 0.467761
vn 0.693763 0.547625 0.467761
vn 0.693763 0.547625 0.467761
vn 0.693763 0.547625 0.467760
vn 0.693763 0.547625 0.467760
vn 0.693763 0.547625 0.467760
vn 0.732517 0.680749 0.000000
vn 0.732517 0.680749 0.000000
vn 0.732517 0.680749 0.000000
vn 0.732517 0.680749 0.000000
vn 0.732517 0.680749 0.000000
vn 0.732517 0.680749 0.000000
vn 0.091881 0.794706 -0.600001
vn 0.091881 0.794706 -0.600001
vn 0.091881 0.794706 -0.600001
vn 0.091881 0.794706 -0.600000
vn 0.091881 0.794706 -0.600000
vn 0.091881 0.794706 -0.600000
vn -0.060872 -0.526493 -0.847998
vn -0.060872 -0.526493 -0.847998
vn -0.060872 -0.526493 -0.847998
vn -0.060872 -0.526492 -0.847998
vn -0.060872 -0.526492 -0.847998
vn -0.060872 -0.526492 -0.847998
vn -0.027856 -0.240931 -0.970142
vn -0.027856 -0.240931 -0.970142
vn -0.027856 -0.240931 -0.970142
vn -0.027856 -0.240931 -0.970142
vn -0.027856 -0.240931 -0.970142
vn -0.027856 -0.240931 -0.970142
vn -0.000000 0.000001 -1.000000
vn -0.000000 0.000001 -1.000000
vn -0.000000 0.000001 -1.000000
vn -0.000000 0.000000 -1.000000
vn -0.000000 0.000000 -1.000000
vn -0.000000 0.000000 -1.000000
vn 0.027855 0.240931 -0.970143
vn 0.027855 0.240931 -0.970143
vn 0.027855 0.240931 -0.970143
vn 0.027855 0.240932 -0.970142
vn 0.027855 0.240932 -0.970142
vn 0.027855 0.240932 -0.970142
vn 0.557585 0.141394 -0.817989
vn 0.557585 0.141394 -0.817989
vn 0.557585 0.141394 -0.817989
vn 0.557586 0.141393 -0.817989
vn 0.557586 0.141393 -0.817989
vn 0.557586 0.141393 -0.817989
vn 0.501957 -0.265212 0.823227
vn 0.501957 -0.265212 0.823227
vn 0.501957 -0.265212 0.823227
vn 0.501955 -0.265213 0.823227
vn 0.501955 -0.265213 0.823227
vn 0.501955 -0.265213 0.823227
vn 0.511091 -0.059090 -0.857493
vn 0.511091 -0.059090 -0.857493
vn 0.511091 -0.059090 -0.857493
vn 0.511091 -0.059089 -0.857493
vn 0.511091 -0.059089 -0.857493
vn 0.511091 -0.059089 -0.857493
vn 0.534650 -0.493449 0.686045
vn 0.534650 -0.493449 0.686045
vn 0.534650 -0.493449 0.686045
vn 0.534649 -0.493449 0.686045
vn 0.534649 -0.493449 0.686045
vn 0.534649 -0.493449 0.686045
vn 0.501956 -0.265211 -0.823227
vn 0.501956 -0.265211 -0.823227
vn 0.501956 -0.265211 -0.823227
vn 0.501957 -0.265213 -0.823227
vn 0.501957 -0.265213 -0.823227
vn 0.501957 -0.265213 -0.823227
vn 0.693763 0.547625 -0.467761
vn 0.693763 0.547625 -0.467761
vn 0.693763 0.547625 -0.467761
vn 0.693763 0.547625 -0.467760
vn 0.693763 0.547625 -0.467760
vn 0.693763 0.547625 -0.467760
vn 0.511090 -0.059090 0.857494
vn 0.511090 -0.059090 0.857494
vn 0.511090 -0.059090 0.857494
vn 0.511091 -0.059090 0.857493
vn 0.511091 -0.059090 0.857493
vn 0.511091 -0.059090 0.857493
vn 0.534649 -0.493448 -0.686046
vn 0.534649 -0.493448 -0.686046
vn 0.534649 -0.493448 -0.686046
vn 0.534648 -0.493450 -0.686045
vn 0.534648 -0.493450 -0.686045
vn 0.534648 -0.493450 -0.686045
vn -0.060872 -0.526492 0.847998
vn -0.060872 -0.526492 0.847998
vn -0.060872 -0.526492 0.847998
vn -0.060871 -0.526493 0.847998
vn -0.060871 -0.526493 0.847998
vn -0.060871 -0.526493 0.847998
vn -0.027855 -0.240930 0.970143
vn -0.027855 -0.240930 0.970143
vn -0.027855 -0.240930 0.970143
vn -0.027856 -0.240929 0.970143
vn -0.027856 -0.240929 0.970143
vn -0.027856 -0.240929 0.970143
vn -0.000000 -0.000002 1.000000
vn -0.000000 -0.000002 1.000000
vn -0.000000 -0.000002 1.000000
vn -0.000000 0.000002 1.000000
vn -0.000000 0.000002 1.000000
vn -0.000000 0.000002 1.000000
vn 0.027855 0.240930 0.970143
vn 0.027855 0.240930 0.970143
vn 0.027855 0.240930 0.970143
vn 0.027855 0.240930 0.970143
vn 0.027855 0.240930 0.970143
vn 0.027855 0.240930 0.970143
vn 0.557586 0.141394 0.817989
vn 0.557586 0.141394 0.817989
vn 0.557586 0.141394 0.817989
vn 0.557585 0.141394 0.817989
vn 0.557585 0.141394 0.817989
vn 0.557585 0.141394 0.817989
vn 0.841409 0.038377 0.539035
vn 0.841409 0.038377 0.539035
vn 0.841409 0.038377 0.539035
vn 0.841409 0.038377 0.539035
vn 0.841409 0.038377 0.539035
vn 0.841409 0.038377 0.539035
vn 0.804425 -0.230765 -0.547401
vn 0.804425 -0.230765 -0.547401
vn 0.804425 -0.230765 -0.547401
vn 0.804423 -0.230768 -0.547403
vn 0.804423 -0.230768 -0.547403
vn 0.804423 -0.230768 -0.547403
vn 0.920616 0.270947 0.281165
vn 0.920616 0.270947 0.281165
vn 0.920616 0.270947 0.281165
vn 0.920615 0.270948 0.281169
vn 0.920615 0.270948 0.281169
vn 0.920615 0.270948 0.281169
vn 0.809902 -0.093637 0.579044
vn 0.809902 -0.093637 0.579044
vn 0.809902 -0.093637 0.579044
vn 0.809901 -0.093639 0.579044
vn 0.809901 -0.093639 0.579044
vn 0.809901 -0.093639 0.579044
vn 0.809901 -0.093637 -0.579045
vn 0.809901 -0.093637 -0.579045
vn 0.809901 -0.093637 -0.579045
vn 0.809901 -0.093639 -0.579045
vn 0.809901 -0.093639 -0.579045
vn 0.809901 -0.093639 -0.579045
vn 0.940174 0.340694 0.000000
vn 0.940174 0.340694 0.000000
vn 0.940174 0.340694 0.000000
vn 0.940174 0.340694 0.000000
vn 0.940174 0.340694 0.000000
vn 0.940174 0.340694 0.000000
vn 0.826074 -0.365433 0.429023
vn 0.826074 -0.365433 0.429023
vn 0.826074 -0.365433 0.429023
vn 0.826074 -0.365432 0.429023
vn 0.826074 -0.365432 0.429023
vn 0.826074 -0.365432 0.429023
vn 0.804425 -0.230767 0.547401
vn 0.804425 -0.230767 0.547401
vn 0.804425 -0.230767 0.547401
vn 0.804425 -0.230765 0.547401
vn 0.804425 -0.230765 0.547401
vn 0.804425 -0.230765 0.547401
vn 0.841409 0.038376 -0.539035
vn 0.841409 0.038376 -0.539035
vn 0.841409 0.038376 -0.539035
vn 0.841408 0.038377 -0.539036
vn 0.841408 0.038377 -0.539036
vn 0.841408 0.038377 -0.539036
vn 0.826074 -0.365432 -0.429024
vn 0.826074 -0.365432 -0.429024
vn 0.826074 -0.365432 -0.429024
vn 0.826074 -0.365433 -0.429024
vn 0.826074 -0.365433 -0.429024
vn 0.826074 -0.365433 -0.429024
vn 0.920615 0.270948 -0.281166
vn 0.920615 0.270948 -0.281166
vn 0.920615 0.270948 -0.281166
vn 0.920616 0.270946 -0.281168
vn 0.920616 0.270946 -0.281168
vn 0.920616 0.270946 -0.281168
vn 0.993383 -0.114850 0.000000
vn 0.993383 -0.114850 0.000000
vn 0.993383 -0.114850 0.000000
vn 0.863452 -0.504430 0.000000
vn 0.863452 -0.504430 0.000000
vn 0.863452 -0.504430 0.000000
vn 0.863452 -0.504431 0.000000
vn 0.863452 -0.504431 0.000000
vn 0.863452 -0.504431 0.000000
vn 0.609552 -0.792746 0.000000
vn 0.609552 -0.792746 0.000000
vn 0.609552 -0.792746 0.000000
vn 0.609552 -0.792746 0.000000
vn 0.609552 -0.792746 0.000000
vn 0.609552 -0.792746 0.000000
vn -0.993383 0.114851 0.000000
vn -0.993383 0.114851 0.000000
vn -0.993383 0.114851 0.000000
vn -0.993383 0.114851 0.000000
vn -0.993383 0.114851 0.000000
vn -0.993383 0.114851 0.000000
vn -0.993383 0.114851 0.000000
vn -0.993383 0.114851 0.000000
vn -0.993383 0.114851 0.000000
vn -0.993383 0.114851 -0.000000
vn -0.993383 0.114851 -0.000000
vn -0.993383 0.114851 -0.000000
vn -0.993383 0.114850 0.000001
vn -0.993383 0.114850 0.000001
vn -0.993383 0.114850 0.000001
vn -0.993383 0.114851 -0.000002
vn -0.993383 0.114851 -0.000002
vn -0.993383 0.114851 -0.000002
vn -0.993383 0.114851 0.000000
vn -0.993383 0.114851 0.000000
vn -0.993383 0.114851 0.000000
vn -0.993383 0.114851 0.000000
vn -0.993383 0.114851 0.000000
vn -0.993383 0.114851 0.000000
vn -0.993383 0.114851 0.000001
vn -0.993383 0.114851 0.000001
vn -0.993383 0.114851 0.000001
vn -0.993383 0.114850 0.000001
vn -0.993383 0.114850 0.000001
vn -0.993383 0.114850 0.000001
vn -0.993383 0.114850 0.000000
vn -0.993383 0.114850 0.000000
vn -0.993383 0.114850 0.000000
vn -0.993383 0.114851 0.000000
vn -0.993383 0.114851 0.000000
vn -0.993383 0.114851 0.000000
vn -0.114852 -0.993383 0.000000
vn -0.114852 -0.993383 0.000000
vn -0.114852 -0.993383 0.000000
vn -0.114853 -0.993383 0.000000
vn -0.114853 -0.993383 0.000000
vn -0.114853 -0.993383 0.000000
vn -0.993383 0.114851 -0.000000
vn -0.993383 0.114851 -0.000000
vn -0.993383 0.114851 -0.000000
vn -0.993383 0.114851 0.000001
vn -0.993383 0.114851 0.000001
vn -0.993383 0.114851 0.000001
vn -0.993383 0.114850 0.000000
vn -0.993383 0.114850 0.000000
vn -0.993383 0.114850 0.000000
vn -0.993383 0.114851 0.000000
vn -0.993383 0.114851 0.000000
vn -0.993383 0.114851 0.000000
vn -0.993383 0.114851 0.000000
vn -0.993383 0.114851 0.000000
vn -0.993383 0.114851 0.000000
vn -0.993383 0.114851 -0.000001
vn -0.993383 0.114851 -0.000001
vn -0.993383 0.114851 -0.000001
vn -0.993383 0.114851 -0.000001
vn -0.993383 0.114851 -0.000001
vn -0.993383 0.114851 -0.000001
vn -0.993383 0.114850 0.000001
vn -0.993383 0.114850 0.000001
vn -0.993383 0.114850 0.000001
vn -0.993383 0.114851 -0.000001
vn -0.993383 0.114851 -0.000001
vn -0.993383 0.114851 -0.000001
vn -0.993383 0.114851 0.000000
vn -0.993383 0.114851 0.000000
vn -0.993383 0.114851 0.000000
vn -0.993383 0.114851 0.000000
vn -0.993383 0.114851 0.000000
vn -0.993383 0.114851 0.000000
vn -0.993383 0.114850 0.000001
vn -0.993383 0.114850 0.000001
vn -0.993383 0.114850 0.000001
vn -0.000000 -0.000000 1.000000
vn -0.000000 -0.000000 1.000000
vn -0.000000 -0.000000 1.000000
vn -0.000000 -0.000000 1.000000
vn -0.000000 -0.000000 1.000000
vn -0.000000 -0.000000 1.000000
vn -0.000000 0.000000 -1.000000
vn -0.000000 0.000000 -1.000000
vn -0.000000 0.000000 -1.000000
vn -0.000000 0.000000 -1.000000
vn -0.000000 0.000000 -1.000000
vn -0.000000 0.000000 -1.000000
vn -0.000000 1.000000 0.000000
vn -0.000000 1.000000 0.000000
vn -0.000000 1.000000 0.000000
vn -0.000000 1.000000 0.000000
vn -0.000000 1.000000 0.000000
vn -0.000000 1.000000 0.000000
vn -1.000000 0.000000 0.000000
vn -1.000000 0.000000 0.000000
vn -1.000000 0.000000 0.000000
vn -1.000000 0.000000 0.000000
vn -1.000000 0.000000 0.000000
vn -1.000000 0.000000 0.000000
vn 1.000000 -0.000000 0.000000
vn 1.000000 -0.000000 0.000000
vn 1.000000 -0.000000 0.000000
vn 1.000000 -0.000000 0.000000
vn 1.000000 -0.000000 0.000000
vn 1.000000 -0.000000 0.000000
vn -0.000000 -1.000000 0.000000
vn -0.000000 -1.000000 0.000000
vn -0.000000 -1.000000 0.000000
vn -0.000000 -1.000000 -0.000000
vn -0.000000 -1.000000 -0.000000
vn -0.000000 -1.000000 -0.000000
vn -1.000000 0.000000 0.000001
vn -1.000000 0.000000 0.000001
vn -1.000000 0.000000 0.000001
vn -1.000000 0.000000 0.000000
vn -1.000000 0.000000 0.000000
vn -1.000000 0.000000 0.000000
vn -1.000000 0.000000 0.000000
vn -1.000000 0.000000 0.000000
vn -1.000000 0.000000 0.000000
vn -1.000000 0.000000 0.000000
vn -1.000000 0.000000 0.000000
vn -1.000000 0.000000 0.000000
vn -1.000000 0.000000 0.000000
vn -1.000000 0.000000 0.000000
vn -1.000000 0.000000 0.000000
vn -0.000000 -0.000000 1.000000
vn -0.000000 -0.000000 1.000000
vn -0.000000 -0.000000 1.000000
vn -0.000000 0.000000 1.000000
vn -0.000000 0.000000 1.000000
vn -0.000000 0.000000 1.000000
vn -0.000000 0.000000 -1.000000
vn -0.000000 0.000000 -1.000000
vn -0.000000 0.000000 -1.000000
vn -0.000000 0.000000 -1.000000
vn -0.000000 0.000000 -1.000000
vn -0.000000 0.000000 -1.000000
vn -0.000000 1.000000 0.000000
vn -0.000000 1.000000 0.000000
vn -0.000000 1.000000 0.000000
vn -0.000000 1.000000 0.000000
vn -0.000000 1.000000 0.000000
vn -0.000000 1.000000 0.000000
vn -1.000000 0.000000 0.000000
vn -1.000000 0.000000 0.000000
vn -1.000000 0.000000 0.000000
vn -1.000000 0.000000 0.000000
vn -1.000000 0.000000 0.000000
vn -1.000000 0.000000 0.000000
vn 1.000000 -0.000000 -0.000000
vn 1.000000 -0.000000 -0.000000
vn 1.000000 -0.000000 -0.000000
vn 1.000000 -0.000000 0.000000
vn 1.000000 -0.000000 0.000000
vn 1.000000 -0.000000 0.000000
vn -0.000000 -1.000000 0.000000
vn -0.000000 -1.000000 0.000000
vn -0.000000 -1.000000 0.000000
vn -0.000000 -1.000000 -0.000000
vn -0.000000 -1.000000 -0.000000
vn -0.000000 -1.000000 -0.000000
vn -1.000000 0.000000 -0.000000
vn -1.000000 0.000000 -0.000000
vn -1.000000 0.000000 -0.000000
vn -1.000000 0.000000 0.000000
vn -1.000000 0.000000 0.000000
vn -1.000000 0.000000 0.000000
vn -1.000000 0.000000 0.000000
vn -1.000000 0.000000 0.000000
vn -1.000000 0.000000 0.000000
vn -1.000000 0.000000 0.000000
vn -1.000000 0.000000 0.000000
vn -1.000000 0.000000 0.000000
vn -1.000000 0.000000 0.000000
vn -1.000000 0.000000 0.000000
vn -1.000000 0.000000 0.000000
vn 0.993383 -0.114851 0.000000
vn 0.993383 -0.114851 0.000000
vn 0.993383 -0.114851 0.000000
vn 0.993383 -0.114850 0.000000
vn 0.993383 -0.114850 0.000000
vn 0.993383 -0.114850 0.000000
vn 0.993383 -0.114850 0.000000
vn 0.993383 -0.114850 0.000000
vn 0.993383 -0.114850 0.000000
vn 0.993383 -0.114851 0.000000
vn 0.993383 -0.114851 0.000000
vn 0.993383 -0.114851 0.000000
vn 0.993383 -0.114850 0.000000
vn 0.993383 -0.114850 0.000000
vn 0.993383 -0.114850 0.000000
vn 0.993383 -0.114850 -0.000002
vn 0.993383 -0.114850 -0.000002
vn 0.993383 -0.114850 -0.000002
vn 0.993383 -0.114851 0.000000
vn 0.993383 -0.114851 0.000000
vn 0.993383 -0.114851 0.000000
vn 0.993383 -0.114850 0.000001
vn 0.993383 -0.114850 0.000001
vn 0.993383 -0.114850 0.000001
vn 0.993383 -0.114850 0.000000
vn 0.993383 -0.114850 0.000000
vn 0.993383 -0.114850 0.000000
vn 0.993383 -0.114850 0.000000
vn 0.993383 -0.114850 0.000000
vn 0.993383 -0.114850 0.000000
vn 0.993383 -0.114851 0.000000
vn 0.993383 -0.114851 0.000000
vn 0.993383 -0.114851 0.000000
vn 0.993383 -0.114851 0.000000
vn 0.993383 -0.114851 0.000000
vn 0.993383 -0.114851 0.000000
vn 0.993383 -0.114850 0.000000
vn 0.993383 -0.114850 0.000000
vn 0.993383 -0.114850 0.000000
vn 0.993383 -0.114852 0.000000
vn 0.993383 -0.114852 0.000000
vn 0.993383 -0.114852 0.000000
vn 0.993383 -0.114849 0.000000
vn 0.993383 -0.114849 0.000000
vn 0.993383 -0.114849 0.000000
vn 0.993383 -0.114851 0.000000
vn 0.993383 -0.114851 0.000000
vn 0.993383 -0.114851 0.000000
vn 0.993383 -0.114849 0.000000
vn 0.993383 -0.114849 0.000000
vn 0.993383 -0.114849 0.000000
vn 0.993383 -0.114852 0.000000
vn 0.993383 -0.114852 0.000000
vn 0.993383 -0.114852 0.000000

g Material.008
f 3/1/1 1/2/2 2/3/3
f 4/4/4 1/5/5 3/6/6
f 7/7/7 5/8/8 6/9/9
f 8/10/10 5/11/11 7/12/12
f 11/13/13 9/14/14 10/15/15
f 12/16/16 9/17/17 11/18/18
f 15/19/19 13/20/20 14/21/21
f 16/22/22 13/23/23 15/24/24
f 19/25/25 17/26/26 18/27/27
f 20/28/28 17/29/29 19/30/30
f 23/31/31 21/32/32 22/33/33
f 24/34/34 21/35/35 23/36/36
f 27/37/37 25/38/38 26/39/39
f 28/40/40 25/41/41 27/42/42
f 31/43/43 29/44/44 30/45/45
f 32/46/46 29/47/47 31/48/48
f 35/49/49 33/50/50 34/51/51
f 36/52/52 33/53/53 35/54/54
f 39/55/55 37/56/56 38/57/57
f 40/58/58 37/59/59 39/60/60
f 43/61/61 41/62/62 42/63/63
f 44/64/64 41/65/65 43/66/66
f 47/67/67 45/68/68 46/69/69
f 48/70/70 45/71/71 47/72/72
f 51/73/73 49/74/74 50/75/75
f 52/76/76 49/77/77 51/78/78
f 55/79/79 53/80/80 54/81/81
f 61/82/82 59/83/83 60/84/84
f 62/85/85 59/86/86 61/87/87
f 65/88/88 63/89/89 64/90/90
f 71/91/91 69/92/92 70/93/93
f 72/94/94 69/95/95 71/96/96
f 75/97/97 73/98/98 74/99/99
f 76/100/100 73/101/101 75/102/102
f 79/103/103 77/104/104 78/105/105
f 85/106/106 83/107/107 84/108/108
f 86/109/109 83/110/110 85/111/111
f 89/112/112 87/113/113 88/114/114
f 90/115/115 87/116/116 89/117/117
f 93/118/118 91/119/119 92/120/120
f 94/121/121 91/122/122 93/123/123
f 97/124/124 95/125/125 96/126/126
f 98/127/127 95/128/128 97/129/129
f 101/130/130 99/131/131 100/132/132
f 102/133/133 99/134/134 101/135/135
f 105/136/136 103/137/137 104/138/138
f 106/139/139 103/140/140 105/141/141
f 109/142/142 107/143/143 108/144/144
f 110/145/145 107/146/146 109/147/147
f 113/148/148 111/149/149 112/150/150
f 114/151/151 111/152/152 113/153/153
f 133/154/154 131/155/155 132/156/156
f 134/157/157 131/158/158 133/159/159
f 137/160/160 135/161/161 136/162/162
f 138/163/163 135/164/164 137/165/165
f 141/166/166 139/167/167 140/168/168
f 142/169/169 139/170/170 141/171/171
f 145/172/172 143/173/173 144/174/174
f 146/175/175 143/176/176 145/177/177

g Material.009
f 117/178/178 115/179/179 116/180/180
f 118/181/181 115/182/182 117/183/183
f 121/184/184 119/185/185 120/186/186
f 122/187/187 119/188/188 121/189/189
f 125/190/190 123/191/191 124/192/192
f 126/193/193 123/194/194 125/195/195
f 129/196/196 127/197/197 128/198/198
f 130/199/199 127/200/200 129/201/201

g Material.001
f 149/202/202 147/203/203 148/204/204
f 150/205/205 147/206/206 149/207/207
f 153/208/208 151/209/209 152/210/210
f 154/211/211 151/212/212 153/213/213
f 157/214/214 155/215/215 156/216/216
f 158/217/217 155/218/218 157/219/219
f 161/220/220 159/221/221 160/222/222
f 162/223/223 159/224/224 161/225/225
f 165/226/226 163/227/227 164/228/228
f 166/229/229 163/230/230 165/231/231
f 169/232/232 167/233/233 168/234/234
f 172/235/235 170/236/236 171/237/237
f 173/238/238 170/239/239 172/240/240
f 176/241/241 174/242/242 175/243/243
f 177/244/244 174/245/245 176/246/246
f 180/247/247 178/248/248 179/249/249
f 181/250/250 178/251/251 180/252/252
f 184/253/253 182/254/254 183/255/255
f 185/256/256 182/257/257 184/258/258
f 188/259/259 186/260/260 187/261/261
f 189/262/262 186/263/263 188/264/264
f 192/265/265 190/266/266 191/267/267
f 193/268/268 190/269/269 192/270/270
f 196/271/271 194/272/272 195/273/273
f 199/274/274 197/275/275 198/276/276
f 202/277/277 200/278/278 201/279/279
f 203/280/280 200/281/281 202/282/282
f 206/283/283 204/284/284 205/285/285
f 207/286/286 204/287/287 206/288/288
f 210/289/289 208/290/290 209/291/291
f 211/292/292 208/293/293 210/294/294
f 214/295/295 212/296/296 213/297/297
f 215/298/298 212/299/299 214/300/300
f 218/301/301 216/302/302 217/303/303
f 219/304/304 216/305/305 218/306/306
f 222/307/307 220/308/308 221/309/309
f 223/310/310 220/311/311 222/312/312
f 226/313/313 224/314/314 225/315/315
f 227/316/316 224/317/317 226/318/318
f 230/319/319 228/320/320 229/321/321
f 231/322/322 228/323/323 230/324/324
f 234/325/325 232/326/326 233/327/327
f 235/328/328 232/329/329 234/330/330
f 238/331/331 236/332/332 237/333/333
f 239/334/334 236/335/335 238/336/336
f 242/337/337 240/338/338 241/339/339
f 243/340/340 240/341/341 242/342/342
f 246/343/343 244/344/344 245/345/345
f 247/346/346 244/347/347 246/348/348
f 250/349/349 248/350/350 249/351/351
f 251/352/352 248/353/353 250/354/354
f 254/355/355 252/356/356 253/357/357
f 255/358/358 252/359/359 254/360/360
f 258/361/361 256/362/362 257/363/363
f 259/364/364 256/365/365 258/366/366
f 262/367/367 260/368/368 261/369/369
f 263/370/370 260/371/371 262/372/372
f 266/373/373 264/374/374 265/375/375
f 267/376/376 264/377/377 266/378/378
f 270/379/379 268/380/380 269/381/381
f 271/382/382 268/383/383 270/384/384
f 274/385/385 272/386/386 273/387/387
f 275/388/388 272/389/389 274/390/390
f 278/391/391 276/392/392 277/393/393
f 279/394/394 276/395/395 278/396/396
f 282/397/397 280/398/398 281/399/399
f 283/400/400 280/401/401 282/402/402
f 286/403/403 284/404/404 285/405/405
f 287/406/406 284/407/407 286/408/408
f 290/409/409 288/410/410 289/411/411
f 293/412/412 291/413/413 292/414/414
f 296/415/415 294/416/416 295/417/417
f 299/418/418 297/419/419 298/420/420
f 302/421/421 300/422/422 301/423/423
f 305/424/424 303/425/425 304/426/426
f 308/427/427 306/428/428 307/429/429
f 311/430/430 309/431/431 310/432/432
f 314/433/433 312/434/434 313/435/435
f 317/436/436 315/437/437 316/438/438
f 320/439/439 318/440/440 319/441/441
f 323/442/442 321/443/443 322/444/444
f 326/445/445 324/446/446 325/447/447
f 329/448/448 327/449/449 328/450/450
f 330/451/451 327/452/452 329/453/453
f 333/454/454 331/455/455 332/456/456
f 334/457/457 331/458/458 333/459/459
f 337/460/460 335/461/461 336/462/462
f 338/463/463 335/464/464 337/465/465
f 341/466/466 339/467/467 340/468/468
f 342/469/469 339/470/470 341/471/471
f 345/472/472 343/473/473 344/474/474
f 346/475/475 343/476/476 345/477/477
f 349/478/478 347/479/479 348/480/480
f 350/481/481 347/482/482 349/483/483
f 353/484/484 351/485/485 352/486/486
f 354/487/487 351/488/488 353/489/489
f 357/490/490 355/491/491 356/492/492
f 358/493/493 355/494/494 357/495/495
f 361/496/496 359/497/497 360/498/498
f 362/499/499 359/500/500 361/501/501
f 365/502/502 363/503/503 364/504/504
f 366/505/505 363/506/506 365/507/507
f 369/508/508 367/509/509 368/510/510
f 370/511/511 367/512/512 369/513/513
f 373/514/514 371/515/515 372/516/516
f 374/517/517 371/518/518 373/519/519
f 377/520/520 375/521/521 376/522/522
f 378/523/523 375/524/524 377/525/525
f 381/526/526 379/527/527 380/528/528
f 382/529/529 379/530/530 381/531/531
f 385/532/532 383/533/533 384/534/534
f 386/535/535 383/536/536 385/537/537
f 389/538/538 387/539/539 388/540/540
f 390/541/541 387/542/542 389/543/543
f 393/544/544 391/545/545 392/546/546
f 394/547/547 391/548/548 393/549/549
f 397/550/550 395/551/551 396/552/552
f 398/553/553 395/554/554 397/555/555
f 401/556/556 399/557/557 400/558/558
f 402/559/559 399/560/560 401/561/561
f 405/562/562 403/563/563 404/564/564
f 406/565/565 403/566/566 405/567/567
f 409/568/568 407/569/569 408/570/570
f 410/571/571 407/572/572 409/573/573
f 413/574/574 411/575/575 412/576/576
f 414/577/577 411/578/578 413/579/579
f 417/580/580 415/581/581 416/582/582
f 418/583/583 415/584/584 417/585/585
f 421/586/586 419/587/587 420/588/588
f 422/589/589 419/590/590 421/591/591
f 425/592/592 423/593/593 424/594/594
f 426/595/595 423/596/596 425/597/597
f 429/598/598 427/599/599 428/600/600
f 430/601/601 427/602/602 429/603/603
f 433/604/604 431/605/605 432/606/606
f 434/607/607 431/608/608 433/609/609
f 437/610/610 435/611/611 436/612/612
f 438/613/613 435/614/614 437/615/615
f 441/616/616 439/617/617 440/618/618
f 442/619/619 439/620/620 441/621/621
f 445/622/622 443/623/623 444/624/624
f 446/625/625 443/626/626 445/627/627
f 449/628/628 447/629/629 448/630/630
f 450/631/631 447/632/632 449/633/633
f 453/634/634 451/635/635 452/636/636
f 454/637/637 451/638/638 453/639/639
f 457/640/640 455/641/641 456/642/642
f 458/643/643 455/644/644 457/645/645
f 461/646/646 459/647/647 460/648/648
f 462/649/649 459/650/650 461/651/651
f 465/652/652 463/653/653 464/654/654
f 466/655/655 463/656/656 465/657/657
f 469/658/658 467/659/659 468/660/660
f 470/661/661 467/662/662 469/663/663
f 473/664/664 471/665/665 472/666/666
f 474/667/667 471/668/668 473/669/669
f 477/670/670 475/671/671 476/672/672
f 480/673/673 478/674/674 479/675/675
f 481/676/676 478/677/677 480/678/678
f 484/679/679 482/680/680 483/681/681
f 485/682/682 482/683/683 484/684/684
f 488/685/685 486/686/686 487/687/687
f 489/688/688 486/689/689 488/690/690
f 492/691/691 490/692/692 491/693/693
f 493/694/694 490/695/695 492/696/696
f 496/697/697 494/698/698 495/699/699
f 497/700/700 494/701/701 496/702/702
f 500/703/703 498/704/704 499/705/705
f 501/706/706 498/707/707 500/708/708
f 504/709/709 502/710/710 503/711/711
f 505/712/712 502/713/713 504/714/714
f 508/715/715 506/716/716 507/717/717
f 509/718/718 506/719/719 508/720/720
f 512/721/721 510/722/722 511/723/723
f 513/724/724 510/725/725 512/726/726
f 516/727/727 514/728/728 515/729/729
f 517/730/730 514/731/731 516/732/732
f 520/733/733 518/734/734 519/735/735
f 521/736/736 518/737/737 520/738/738
f 524/739/739 522/740/740 523/741/741
f 525/742/742 522/743/743 524/744/744
f 528/745/745 526/746/746 527/747/747
f 529/748/748 526/749/749 528/750/750
f 532/751/751 530/752/752 531/753/753
f 533/754/754 530/755/755 532/756/756
f 536/757/757 534/758/758 535/759/759
f 537/760/760 534/761/761 536/762/762
f 540/763/763 538/764/764 539/765/765
f 541/766/766 538/767/767 540/768/768
f 544/769/769 542/770/770 543/771/771
f 545/772/772 542/773/773 544/774/774
f 548/775/775 546/776/776 547/777/777
f 549/778/778 546/779/779 548/780/780
f 552/781/781 550/782/782 551/783/783
f 553/784/784 550/785/785 552/786/786
f 556/787/787 554/788/788 555/789/789
f 557/790/790 554/791/791 556/792/792
f 560/793/793 558/794/794 559/795/795
f 561/796/796 558/797/797 560/798/798
f 564/799/799 562/800/800 563/801/801
f 565/802/802 562/803/803 564/804/804
f 568/805/805 566/806/806 567/807/807
f 569/808/808 566/809/809 568/810/810
f 572/811/811 570/812/812 571/813/813
f 573/814/814 570/815/815 572/816/816
f 576/817/817 574/818/818 575/819/819
f 577/820/820 574/821/821 576/822/822
f 580/823/823 578/824/824 579/825/825
f 581/826/826 578/827/827 580/828/828
f 584/829/829 582/830/830 583/831/831
f 585/832/832 582/833/833 584/834/834
f 588/835/835 586/836/836 587/837/837
f 589/838/838 586/839/839 588/840/840
f 592/841/841 590/842/842 591/843/843
f 593/844/844 590/845/845 592/846/846
f 596/847/847 594/848/848 595/849/849
f 597/850/850 594/851/851 596/852/852
f 600/853/853 598/854/854 599/855/855
f 601/856/856 598/857/857 600/858/858
f 604/859/859 602/860/860 603/861/861
f 605/862/862 602/863/863 604/864/864
f 608/865/865 606/866/866 607/867/867
f 609/868/868 606/869/869 608/870/870
f 612/871/871 610/872/872 611/873/873
f 613/874/874 610/875/875 612/876/876
f 616/877/877 614/878/878 615/879/879
f 617/880/880 614/881/881 616/882/882
f 620/883/883 618/884/884 619/885/885
f 623/886/886 621/887/887 622/888/888
f 624/889/889 621/890/890 623/891/891
f 627/892/892 625/893/893 626/894/894
f 628/895/895 625/896/896 627/897/897
f 631/898/898 629/899/899 630/900/900
f 632/901/901 629/902/902 631/903/903
f 635/904/904 633/905/905 634/906/906
f 636/907/907 633/908/908 635/909/909
f 639/910/910 637/911/911 638/912/912
f 640/913/913 637/914/914 639/915/915
f 643/916/916 641/917/917 642/918/918
f 644/919/919 641/920/920 643/921/921
f 647/922/922 645/923/923 646/924/924
f 648/925/925 645/926/926 647/927/927
f 651/928/928 649/929/929 650/930/930
f 652/931/931 649/932/932 651/933/933
f 655/934/934 653/935/935 654/936/936
f 656/937/937 653/938/938 655/939/939
f 659/940/940 657/941/941 658/942/942
f 660/943/943 657/944/944 659/945/945
f 663/946/946 661/947/947 662/948/948
f 664/949/949 661/950/950 663/951/951
f 667/952/952 665/953/953 666/954/954
f 668/955/955 665/956/956 667/957/957
f 671/958/958 669/959/959 670/960/960
f 672/961/961 669/962/962 671/963/963
f 675/964/964 673/965/965 674/966/966
f 676/967/967 673/968/968 675/969/969
f 679/970/970 677/971/971 678/972/972
f 680/973/973 677/974/974 679/975/975
f 683/976/976 681/977/977 682/978/978
f 684/979/979 681/980/980 683/981/981
f 687/982/982 685/983/983 686/984/984
f 688/985/985 685/986/986 687/987/987
f 691/988/988 689/989/989 690/990/990
f 692/991/991 689/992/992 691/993/993
f 695/994/994 693/995/995 694/996/996
f 696/997/997 693/998/998 695/999/999
f 699/1000/1000 697/1001/1001 698/1002/1002
f 700/1003/1003 697/1004/1004 699/1005/1005
f 703/1006/1006 701/1007/1007 702/1008/1008
f 704/1009/1009 701/1010/1010 703/1011/1011
f 707/1012/1012 705/1013/1013 706/1014/1014
f 710/1015/1015 708/1016/1016 709/1017/1017
f 713/1018/1018 711/1019/1019 712/1020/1020
f 716/1021/1021 714/1022/1022 715/1023/1023
f 719/1024/1024 717/1025/1025 718/1026/1026
f 722/1027/1027 720/1028/1028 721/1029/1029
f 723/1030/1030 720/1031/1031 722/1032/1032
f 726/1033/1033 724/1034/1034 725/1035/1035
f 727/1036/1036 724/1037/1037 726/1038/1038
f 730/1039/1039 728/1040/1040 729/1041/1041
f 731/1042/1042 728/1043/1043 730/1044/1044
f 734/1045/1045 732/1046/1046 733/1047/1047
f 735/1048/1048 732/1049/1049 734/1050/1050
f 738/1051/1051 736/1052/1052 737/1053/1053
f 739/1054/1054 736/1055/1055 738/1056/1056
f 742/1057/1057 740/1058/1058 741/1059/1059
f 743/1060/1060 740/1061/1061 742/1062/1062
f 746/1063/1063 744/1064/1064 745/1065/1065
f 749/1066/1066 747/1067/1067 748/1068/1068
f 752/1069/1069 750/1070/1070 751/1071/1071
f 755/1072/1072 753/1073/1073 754/1074/1074
f 758/1075/1075 756/1076/1076 757/1077/1077
f 761/1078/1078 759/1079/1079 760/1080/1080
f 764/1081/1081 762/1082/1082 763/1083/1083
f 767/1084/1084 765/1085/1085 766/1086/1086
f 770/1087/1087 768/1088/1088 769/1089/1089
f 773/1090/1090 771/1091/1091 772/1092/1092
f 776/1093/1093 774/1094/1094 775/1095/1095
f 779/1096/1096 777/1097/1097 778/1098/1098
f 782/1099/1099 780/1100/1100 781/1101/1101
f 785/1102/1102 783/1103/1103 784/1104/1104
f 788/1105/1105 786/1106/1106 787/1107/1107
f 791/1108/1108 789/1109/1109 790/1110/1110
f 794/1111/1111 792/1112/1112 793/1113/1113
f 797/1114/1114 795/1115/1115 796/1116/1116
f 800/1117/1117 798/1118/1118 799/1119/1119
f 803/1120/1120 801/1121/1121 802/1122/1122
f 806/1123/1123 804/1124/1124 805/1125/1125
f 809/1126/1126 807/1127/1127 808/1128/1128
f 812/1129/1129 810/1130/1130 811/1131/1131

