# Converted from B3D for Luanti (With Correct Normals)
# Object Name: multidecor_wall_shelf

v 1.000000 0.000000 1.000000
v -1.000000 -0.000000 1.000000
v -1.000000 -1.000001 1.000000
v 1.000001 -1.000000 1.000000
v 1.000001 -1.000000 0.800000
v 1.000001 -1.000000 1.000000
v -1.000000 -1.000001 1.000000
v -1.000000 -1.000001 0.800000
v -1.000000 -1.000001 0.800000
v -1.000000 -1.000001 1.000000
v -1.000000 -0.000000 1.000000
v -1.000000 -0.000000 0.800000
v -1.000000 -0.000000 0.800000
v 1.000000 0.000000 0.800000
v 1.000001 -1.000000 0.800000
v -1.000000 -1.000001 0.800000
v 1.000000 0.000000 0.800000
v 1.000000 0.000000 1.000000
v 1.000001 -1.000000 1.000000
v 1.000001 -1.000000 0.800000
v -1.000000 -0.000000 0.800000
v -1.000000 -0.000000 1.000000
v 1.000000 0.000000 1.000000
v 1.000000 0.000000 0.800000
v 0.800000 -1.000000 0.300000
v 0.800000 -1.000000 0.800000
v 0.800000 0.000000 0.800000
v 0.800000 0.000000 0.500000
v 0.800000 -0.500000 0.300000
v 0.800000 0.000000 0.500000
v 0.800000 0.000000 0.800000
v 1.000000 0.000000 0.800000
v 1.000000 0.000000 0.500000
v 1.000000 0.000000 0.500000
v 1.000000 0.000000 0.800000
v 1.000001 -1.000000 0.800000
v 1.000001 -1.000000 0.300000
v 1.000000 -0.500000 0.300000
v 1.000001 -1.000000 0.300000
v 1.000001 -1.000000 0.800000
v 0.800000 -1.000000 0.800000
v 0.800000 -1.000000 0.300000
v -0.800000 -1.000000 0.300000
v -0.800000 -1.000000 0.800000
v -0.800000 -0.000000 0.800000
v -0.800000 -0.000000 0.500000
v -0.800000 -0.500000 0.300000
v 0.800000 0.000000 0.500000
v 1.000000 0.000000 0.500000
v 1.000000 -0.500000 0.300000
v 0.800000 -0.500000 0.300000
v 0.800000 -0.500000 0.300000
v 1.000000 -0.500000 0.300000
v 1.000001 -1.000000 0.300000
v 0.800000 -1.000000 0.300000
v -0.800000 -0.000000 0.500000
v -0.800000 -0.000000 0.800000
v -1.000000 -0.000000 0.800000
v -1.000000 -0.000000 0.500000
v -1.000000 -0.000000 0.500000
v -1.000000 -0.000000 0.800000
v -1.000000 -1.000000 0.800000
v -1.000000 -1.000000 0.300000
v -1.000000 -0.500000 0.300000
v -1.000000 -1.000000 0.300000
v -1.000000 -1.000000 0.800000
v -0.800000 -1.000000 0.800000
v -0.800000 -1.000000 0.300000
v -0.800000 -0.000000 0.500000
v -1.000000 -0.000000 0.500000
v -1.000000 -0.500000 0.300000
v -0.800000 -0.500000 0.300000
v -0.800000 -0.500000 0.300000
v -1.000000 -0.500000 0.300000
v -1.000000 -1.000000 0.300000
v -0.800000 -1.000000 0.300000

vt 0.646758 0.058968
vt 0.352864 0.646758
vt 0.352863 0.058969
vt 0.646758 0.646758
vt 0.352864 0.646758
vt 0.646758 0.058968
vt 0.646758 0.058968
vt 0.705537 0.646758
vt 0.646758 0.646758
vt 0.705537 0.058968
vt 0.705537 0.646758
vt 0.646758 0.058968
vt 0.352863 0.058969
vt 0.646758 0.000189
vt 0.646758 0.058968
vt 0.352863 0.000190
vt 0.646758 0.000189
vt 0.352863 0.058969
vt 0.000189 0.646758
vt 0.294084 0.058968
vt 0.294084 0.646758
vt 0.000189 0.058969
vt 0.294084 0.058968
vt 0.000189 0.646758
vt 0.646758 0.646758
vt 0.352864 0.705537
vt 0.352864 0.646758
vt 0.646758 0.705537
vt 0.352864 0.705537
vt 0.646758 0.646758
vt 0.352864 0.646758
vt 0.294084 0.058968
vt 0.352863 0.058969
vt 0.294084 0.646758
vt 0.294084 0.058968
vt 0.352864 0.646758
vt 0.852863 0.294084
vt 0.705916 0.000189
vt 0.852863 0.000189
vt 0.912400 0.540520
vt 0.971179 0.452351
vt 0.971179 0.540520
vt 0.912400 0.452351
vt 0.971179 0.452351
vt 0.912400 0.540520
vt 0.147137 0.999811
vt 0.058968 0.705916
vt 0.147137 0.705916
vt 0.971179 0.000189
vt 0.912400 0.147137
vt 0.912400 0.000189
vt 0.971179 0.147137
vt 0.912400 0.147137
vt 0.971179 0.000189
vt 0.852863 0.588358
vt 0.705916 0.294463
vt 0.852863 0.294463
vt 0.912400 0.294084
vt 0.971179 0.452351
vt 0.912400 0.452351
vt 0.971179 0.294084
vt 0.971179 0.452351
vt 0.912400 0.294084
vt 0.912400 0.147137
vt 0.971179 0.294084
vt 0.912400 0.294084
vt 0.971179 0.147137
vt 0.971179 0.294084
vt 0.912400 0.147137
vt 0.853242 0.540520
vt 0.912021 0.452351
vt 0.912021 0.540520
vt 0.853242 0.452351
vt 0.912021 0.452351
vt 0.853242 0.540520
vt 0.852863 0.882631
vt 0.764695 0.588736
vt 0.852863 0.588736
vt 0.912021 0.000189
vt 0.853242 0.147137
vt 0.853242 0.000189
vt 0.912021 0.147137
vt 0.853242 0.147137
vt 0.912021 0.000189
vt 0.853242 0.294084
vt 0.912021 0.452351
vt 0.853242 0.452351
vt 0.912021 0.294084
vt 0.912021 0.452351
vt 0.853242 0.294084
vt 0.853242 0.147137
vt 0.912021 0.294084
vt 0.853242 0.294084
vt 0.912021 0.147137
vt 0.912021 0.294084
vt 0.853242 0.147137

vn 0.000000 0.000000 1.000000
vn 0.000000 0.000000 1.000000
vn 0.000000 0.000000 1.000000
vn 0.000000 -0.000000 1.000000
vn 0.000000 -0.000000 1.000000
vn 0.000000 -0.000000 1.000000
vn 0.000000 -1.000000 0.000000
vn 0.000000 -1.000000 0.000000
vn 0.000000 -1.000000 0.000000
vn 0.000000 -1.000000 0.000000
vn 0.000000 -1.000000 0.000000
vn 0.000000 -1.000000 0.000000
vn -1.000000 -0.000000 0.000000
vn -1.000000 -0.000000 0.000000
vn -1.000000 -0.000000 0.000000
vn -1.000000 -0.000000 0.000000
vn -1.000000 -0.000000 0.000000
vn -1.000000 -0.000000 0.000000
vn -0.000000 -0.000000 -1.000000
vn -0.000000 -0.000000 -1.000000
vn -0.000000 -0.000000 -1.000000
vn -0.000000 -0.000000 -1.000000
vn -0.000000 -0.000000 -1.000000
vn -0.000000 -0.000000 -1.000000
vn 1.000000 0.000000 -0.000000
vn 1.000000 0.000000 -0.000000
vn 1.000000 0.000000 -0.000000
vn 1.000000 0.000000 0.000000
vn 1.000000 0.000000 0.000000
vn 1.000000 0.000000 0.000000
vn -0.000000 1.000000 0.000000
vn -0.000000 1.000000 0.000000
vn -0.000000 1.000000 0.000000
vn -0.000000 1.000000 0.000000
vn -0.000000 1.000000 0.000000
vn -0.000000 1.000000 0.000000
vn -1.000000 -0.000000 0.000000
vn -1.000000 -0.000000 0.000000
vn -1.000000 -0.000000 0.000000
vn -0.000000 1.000000 0.000000
vn -0.000000 1.000000 0.000000
vn -0.000000 1.000000 0.000000
vn -0.000000 1.000000 0.000000
vn -0.000000 1.000000 0.000000
vn -0.000000 1.000000 0.000000
vn 1.000000 0.000000 -0.000000
vn 1.000000 0.000000 -0.000000
vn 1.000000 0.000000 -0.000000
vn 0.000001 -1.000000 -0.000000
vn 0.000001 -1.000000 -0.000000
vn 0.000001 -1.000000 -0.000000
vn 0.000001 -1.000000 -0.000000
vn 0.000001 -1.000000 -0.000000
vn 0.000001 -1.000000 -0.000000
vn -1.000000 -0.000000 0.000000
vn -1.000000 -0.000000 0.000000
vn -1.000000 -0.000000 0.000000
vn -0.000000 0.371391 -0.928477
vn -0.000000 0.371391 -0.928477
vn -0.000000 0.371391 -0.928477
vn -0.000000 0.371391 -0.928477
vn -0.000000 0.371391 -0.928477
vn -0.000000 0.371391 -0.928477
vn -0.000000 -0.000000 -1.000000
vn -0.000000 -0.000000 -1.000000
vn -0.000000 -0.000000 -1.000000
vn 0.000000 -0.000000 -1.000000
vn 0.000000 -0.000000 -1.000000
vn 0.000000 -0.000000 -1.000000
vn 0.000000 -1.000000 -0.000000
vn 0.000000 -1.000000 -0.000000
vn 0.000000 -1.000000 -0.000000
vn 0.000000 -1.000000 -0.000000
vn 0.000000 -1.000000 -0.000000
vn 0.000000 -1.000000 -0.000000
vn 1.000000 0.000000 0.000000
vn 1.000000 0.000000 0.000000
vn 1.000000 0.000000 0.000000
vn -0.000000 1.000000 0.000000
vn -0.000000 1.000000 0.000000
vn -0.000000 1.000000 0.000000
vn -0.000000 1.000000 0.000000
vn -0.000000 1.000000 0.000000
vn -0.000000 1.000000 0.000000
vn 0.000000 -0.371391 0.928477
vn 0.000000 -0.371391 0.928477
vn 0.000000 -0.371391 0.928477
vn 0.000000 -0.371391 0.928477
vn 0.000000 -0.371391 0.928477
vn 0.000000 -0.371391 0.928477
vn -0.000000 0.000000 1.000000
vn -0.000000 0.000000 1.000000
vn -0.000000 0.000000 1.000000
vn -0.000000 0.000000 1.000000
vn -0.000000 0.000000 1.000000
vn -0.000000 0.000000 1.000000

g Material
f 3/1/1 1/2/2 2/3/3
f 4/4/4 1/5/5 3/6/6
f 7/7/7 5/8/8 6/9/9
f 8/10/10 5/11/11 7/12/12
f 11/13/13 9/14/14 10/15/15
f 12/16/16 9/17/17 11/18/18
f 15/19/19 13/20/20 14/21/21
f 16/22/22 13/23/23 15/24/24
f 19/25/25 17/26/26 18/27/27
f 20/28/28 17/29/29 19/30/30
f 23/31/31 21/32/32 22/33/33
f 24/34/34 21/35/35 23/36/36
f 27/37/37 25/38/38 26/39/39
f 32/40/40 30/41/41 31/42/42
f 33/43/43 30/44/44 32/45/45
f 36/46/46 34/47/47 35/48/48
f 41/49/49 39/50/50 40/51/51
f 42/52/52 39/53/53 41/54/54
f 45/55/55 43/56/56 44/57/57
f 50/58/58 48/59/59 49/60/60
f 51/61/61 48/62/62 50/63/63
f 54/64/64 52/65/65 53/66/66
f 55/67/67 52/68/68 54/69/69
f 58/70/70 56/71/71 57/72/72
f 59/73/73 56/74/74 58/75/75
f 62/76/76 60/77/77 61/78/78
f 67/79/79 65/80/80 66/81/81
f 68/82/82 65/83/83 67/84/84
f 71/85/85 69/86/86 70/87/87
f 72/88/88 69/89/89 71/90/90
f 75/91/91 73/92/92 74/93/93
f 76/94/94 73/95/95 75/96/96

