# Converted from B3D for Luanti (With Correct Normals)
# Object Name: multidecor_kitchen_modern_wooden_table_with_cloth_5

v 1.257795 1.199375 -1.257795
v -1.257795 1.199375 1.257795
v 1.257795 1.199375 1.257795
v -1.257795 1.199375 -1.257795
v -1.257795 1.199375 1.257795
v 1.257795 1.199375 -1.257795
v 1.257795 1.199375 -1.257795
v -1.257795 0.960625 -1.257795
v -1.257795 1.199375 -1.257795
v 1.257795 0.960625 -1.257795
v -1.257795 0.960625 -1.257795
v 1.257795 1.199375 -1.257795
v 1.257795 1.199375 1.257795
v 1.257795 0.960625 -1.257795
v 1.257795 1.199375 -1.257795
v 1.257795 0.960625 1.257795
v 1.257795 0.960625 -1.257795
v 1.257795 1.199375 1.257795
v -1.257795 0.960625 -1.257795
v 1.257795 0.960625 1.257795
v -1.257795 0.960625 1.257795
v 1.257795 0.960625 -1.257795
v 1.257795 0.960625 1.257795
v -1.257795 0.960625 -1.257795
v -1.257795 1.199375 -1.257795
v -1.257795 0.960625 1.257795
v -1.257795 1.199375 1.257795
v -1.257795 0.960625 -1.257795
v -1.257795 0.960625 1.257795
v -1.257795 1.199375 -1.257795
v -1.257795 1.199375 1.257795
v 1.257795 0.960625 1.257795
v 1.257795 1.199375 1.257795
v -1.257795 0.960625 1.257795
v 1.257795 0.960625 1.257795
v -1.257795 1.199375 1.257795
v -1.307795 1.249375 -1.307795
v 1.307795 1.249375 1.307795
v 1.307795 1.249375 -1.307795
v -1.307795 1.249375 1.307795
v 1.307795 1.249375 1.307795
v -1.307795 1.249375 -1.307795

vt 0.042908 0.042908
vt 0.418395 0.042908
vt 0.042908 0.418395
vt 0.418395 0.042908
vt 0.418395 0.418395
vt 0.042908 0.418395
vt 0.425784 0.418395
vt 0.425784 0.042908
vt 0.461064 0.418395
vt 0.425784 0.042908
vt 0.461064 0.042908
vt 0.461064 0.418395
vt 0.418395 0.035519
vt 0.042908 0.035519
vt 0.418395 0.000239
vt 0.042908 0.035519
vt 0.042908 0.000239
vt 0.418395 0.000239
vt 0.836551 0.418395
vt 0.461064 0.418395
vt 0.836551 0.042908
vt 0.461064 0.418395
vt 0.461064 0.042908
vt 0.836551 0.042908
vt 0.042908 0.425784
vt 0.418395 0.425784
vt 0.042908 0.461064
vt 0.418395 0.425784
vt 0.418395 0.461064
vt 0.042908 0.461064
vt 0.035519 0.042908
vt 0.035519 0.418395
vt 0.000239 0.042908
vt 0.035519 0.418395
vt 0.000239 0.418395
vt 0.000239 0.042908
vt 0.000171 0.000171
vt 0.000170 0.499829
vt 0.499829 0.000170
vt 0.000170 0.499829
vt 0.499829 0.499830
vt 0.499829 0.000170

vn -0.000000 1.000000 -0.000000
vn -0.000000 1.000000 -0.000000
vn -0.000000 1.000000 -0.000000
vn -0.000000 1.000000 -0.000000
vn -0.000000 1.000000 -0.000000
vn -0.000000 1.000000 -0.000000
vn -0.000000 0.000000 -1.000000
vn -0.000000 0.000000 -1.000000
vn -0.000000 0.000000 -1.000000
vn -0.000000 0.000000 -1.000000
vn -0.000000 0.000000 -1.000000
vn -0.000000 0.000000 -1.000000
vn 1.000000 0.000000 0.000000
vn 1.000000 0.000000 0.000000
vn 1.000000 0.000000 0.000000
vn 1.000000 0.000000 -0.000000
vn 1.000000 0.000000 -0.000000
vn 1.000000 0.000000 -0.000000
vn -0.000000 -1.000000 0.000000
vn -0.000000 -1.000000 0.000000
vn -0.000000 -1.000000 0.000000
vn -0.000000 -1.000000 0.000000
vn -0.000000 -1.000000 0.000000
vn -0.000000 -1.000000 0.000000
vn -1.000000 0.000000 0.000000
vn -1.000000 0.000000 0.000000
vn -1.000000 0.000000 0.000000
vn -1.000000 0.000000 -0.000000
vn -1.000000 0.000000 -0.000000
vn -1.000000 0.000000 -0.000000
vn -0.000000 0.000000 1.000000
vn -0.000000 0.000000 1.000000
vn -0.000000 0.000000 1.000000
vn -0.000000 0.000000 1.000000
vn -0.000000 0.000000 1.000000
vn -0.000000 0.000000 1.000000
vn -0.000000 1.000000 -0.000000
vn -0.000000 1.000000 -0.000000
vn -0.000000 1.000000 -0.000000
vn -0.000000 1.000000 -0.000000
vn -0.000000 1.000000 -0.000000
vn -0.000000 1.000000 -0.000000

g Default OBJ.001
f 3/1/1 1/2/2 2/3/3
f 6/4/4 4/5/5 5/6/6
f 9/7/7 7/8/8 8/9/9
f 12/10/10 10/11/11 11/12/12
f 15/13/13 13/14/14 14/15/15
f 18/16/16 16/17/17 17/18/18
f 21/19/19 19/20/20 20/21/21
f 24/22/22 22/23/23 23/24/24
f 27/25/25 25/26/26 26/27/27
f 30/28/28 28/29/29 29/30/30
f 33/31/31 31/32/32 32/33/33
f 36/34/34 34/35/35 35/36/36

g Material.004
f 39/37/37 37/38/38 38/39/39
f 42/40/40 40/41/41 41/42/42

