# Converted from B3D for Luanti (With Correct Normals)
# Object Name: multidecor_toilet

v 0.392000 -1.000000 0.021289
v 0.560000 -0.600000 0.018936
v 0.560000 -0.600000 1.000000
v 0.392000 -1.000000 1.000000
v -0.560000 -0.200000 0.018936
v -0.560000 -0.600000 0.018936
v -0.560000 -0.600000 1.000000
v -0.560000 -0.200000 1.000000
v -0.560000 -0.600000 0.018936
v -0.560000 -0.200000 0.018936
v -0.452548 -0.200000 -0.533613
v -0.452548 -0.600000 -0.533613
v -0.452548 -0.600000 -0.533613
v -0.452548 -0.200000 -0.533613
v 0.000000 -0.200000 -0.721064
v 0.000000 -0.600000 -0.721064
v 0.000000 -0.600000 -0.721064
v 0.000000 -0.200000 -0.721064
v 0.452548 -0.200000 -0.533613
v 0.452548 -0.600000 -0.533613
v 0.452548 -0.600000 -0.533613
v 0.452548 -0.200000 -0.533613
v 0.560000 -0.200000 0.018936
v 0.560000 -0.600000 0.018936
v -0.392000 -1.000000 0.021289
v 0.392000 -1.000000 0.021289
v 0.392000 -1.000000 1.000000
v -0.392000 -1.000000 1.000000
v 0.560000 -0.600000 0.018936
v 0.560000 -0.200000 0.018936
v 0.560000 -0.200000 1.000000
v 0.560000 -0.600000 1.000000
v -0.560000 -0.600000 0.018936
v -0.392000 -1.000000 0.021289
v -0.392000 -1.000000 1.000000
v -0.560000 -0.600000 1.000000
v 0.316784 -1.000000 -0.395495
v 0.452548 -0.600000 -0.533613
v 0.560000 -0.600000 0.018936
v 0.392000 -1.000000 0.021289
v 0.392000 -1.000000 0.021289
v -0.392000 -1.000000 0.021289
v -0.316784 -1.000000 -0.395495
v 0.000000 -1.000000 -0.526711
v 0.316784 -1.000000 -0.395495
v 0.000000 -1.000000 -0.526711
v 0.000000 -0.600000 -0.721064
v 0.452548 -0.600000 -0.533613
v 0.316784 -1.000000 -0.395495
v -0.316784 -1.000000 -0.395495
v -0.452548 -0.600000 -0.533613
v 0.000000 -0.600000 -0.721064
v 0.000000 -1.000000 -0.526711
v -0.392000 -1.000000 0.021289
v -0.560000 -0.600000 0.018936
v -0.452548 -0.600000 -0.533613
v -0.316784 -1.000000 -0.395495
v -0.392000 -1.000000 1.000000
v 0.392000 -1.000000 1.000000
v 0.560000 -0.600000 1.000000
v -0.560000 -0.600000 1.000000
v -0.560000 -0.200000 1.000000
v -0.560000 -0.600000 1.000000
v 0.560000 -0.600000 1.000000
v 0.560000 -0.200000 1.000000
v -0.560000 0.950000 1.000000
v 0.560000 0.950000 1.000000
v 0.560000 0.950000 0.600000
v -0.560000 0.950000 0.600000
v 0.125000 0.950000 0.800000
v 0.088388 0.950000 0.711612
v 0.088388 1.000000 0.711612
v 0.125000 1.000000 0.800000
v -0.000000 0.950000 0.925000
v 0.088388 0.950000 0.888388
v 0.088388 1.000000 0.888388
v -0.000000 1.000000 0.925000
v -0.088388 0.950000 0.888388
v -0.000000 0.950000 0.925000
v -0.000000 1.000000 0.925000
v -0.088388 1.000000 0.888388
v -0.088388 0.950000 0.711612
v -0.125000 0.950000 0.800000
v -0.125000 1.000000 0.800000
v -0.088388 1.000000 0.711612
v 0.088388 0.950000 0.711612
v -0.000000 0.950000 0.675000
v -0.000000 1.000000 0.675000
v 0.088388 1.000000 0.711612
v 0.088388 0.950000 0.888388
v 0.125000 0.950000 0.800000
v 0.125000 1.000000 0.800000
v 0.088388 1.000000 0.888388
v -0.125000 0.950000 0.800000
v -0.088388 0.950000 0.888388
v -0.088388 1.000000 0.888388
v -0.125000 1.000000 0.800000
v -0.000000 0.950000 0.675000
v -0.088388 0.950000 0.711612
v -0.088388 1.000000 0.711612
v -0.000000 1.000000 0.675000
v -0.125000 1.000000 0.800000
v -0.088388 1.000000 0.888388
v -0.000000 1.000000 0.925000
v 0.000000 0.990000 0.468936
v 0.452548 0.802548 0.468936
v 0.560000 0.250000 0.468936
v 0.560000 0.250000 0.568936
v 0.452548 0.802548 0.568936
v 0.000000 0.990000 0.568936
v 0.560000 0.250000 0.468936
v 0.452548 0.802548 0.468936
v 0.452548 0.802548 0.568936
v 0.560000 0.250000 0.568936
v 0.000000 0.990000 0.468936
v -0.452548 0.802548 0.468936
v -0.452548 0.802548 0.568936
v 0.000000 0.990000 0.568936
v -0.560000 0.250000 0.468936
v 0.560000 0.250000 0.468936
v 0.560000 -0.200000 0.468936
v -0.560000 -0.200000 0.468936
v 0.452548 0.802548 0.468936
v 0.000000 0.990000 0.468936
v 0.000000 0.990000 0.568936
v 0.452548 0.802548 0.568936
v -0.452548 0.802548 0.468936
v -0.560000 0.250000 0.468936
v -0.560000 0.250000 0.568936
v -0.452548 0.802548 0.568936
v -0.560000 -0.200000 0.468936
v 0.560000 -0.200000 0.468936
v 0.560000 -0.200000 0.568936
v -0.560000 -0.200000 0.568936
v 0.560000 0.250000 0.468936
v 0.560000 0.250000 0.568936
v 0.560000 -0.200000 0.568936
v 0.560000 -0.200000 0.468936
v 0.560000 0.250000 0.568936
v -0.560000 0.250000 0.568936
v -0.560000 -0.200000 0.568936
v 0.560000 -0.200000 0.568936
v -0.560000 0.250000 0.568936
v -0.560000 0.250000 0.468936
v -0.560000 -0.200000 0.468936
v -0.560000 -0.200000 0.568936
v 0.235200 -0.800000 0.091687
v 0.235200 -0.800000 0.358914
v 0.420000 -0.500000 0.358914
v 0.420000 -0.500000 0.023115
v -0.420000 -0.200000 0.023115
v -0.420000 -0.200000 0.358914
v -0.420000 -0.500000 0.358914
v -0.420000 -0.500000 0.023115
v -0.420000 -0.500000 0.023115
v -0.339411 -0.500000 -0.391296
v -0.339411 -0.200000 -0.391296
v -0.420000 -0.200000 0.023115
v -0.339411 -0.500000 -0.391296
v 0.000000 -0.500000 -0.531885
v 0.000000 -0.200000 -0.531885
v -0.339411 -0.200000 -0.391296
v 0.000000 -0.500000 -0.531885
v 0.339411 -0.500000 -0.391296
v 0.339411 -0.200000 -0.391296
v 0.000000 -0.200000 -0.531885
v 0.339411 -0.500000 -0.391296
v 0.420000 -0.500000 0.023115
v 0.420000 -0.200000 0.023115
v 0.339411 -0.200000 -0.391296
v 0.420000 -0.500000 0.023115
v 0.420000 -0.500000 0.358914
v 0.420000 -0.200000 0.358914
v 0.420000 -0.200000 0.023115
v -0.420000 -0.500000 0.023115
v -0.420000 -0.500000 0.358914
v -0.235200 -0.800000 0.358914
v -0.235200 -0.800000 0.091687
v 0.190070 -0.800000 -0.158384
v 0.235200 -0.800000 0.091687
v 0.420000 -0.500000 0.023115
v 0.339411 -0.500000 -0.391296
v 0.000000 -0.800000 -0.237113
v 0.190070 -0.800000 -0.158384
v 0.339411 -0.500000 -0.391296
v 0.000000 -0.500000 -0.531885
v -0.190070 -0.800000 -0.158384
v 0.000000 -0.800000 -0.237113
v 0.000000 -0.500000 -0.531885
v -0.339411 -0.500000 -0.391296
v -0.235200 -0.800000 0.091687
v -0.190070 -0.800000 -0.158384
v -0.339411 -0.500000 -0.391296
v -0.420000 -0.500000 0.023115
v -0.420000 -0.200000 0.358914
v 0.420000 -0.200000 0.358914
v 0.420000 -0.500000 0.358914
v -0.420000 -0.500000 0.358914
v 0.560000 -0.200000 0.018936
v 0.420000 -0.200000 0.358914
v 0.560000 -0.200000 1.000000
v -0.452548 -0.200000 -0.533613
v -0.339411 -0.200000 -0.391296
v 0.000000 -0.200000 -0.531885
v 0.000000 -0.200000 -0.721064
v -0.420000 -0.200000 0.358914
v -0.560000 -0.200000 0.018936
v -0.560000 -0.200000 1.000000
v 0.560000 -0.200000 0.018936
v 0.420000 -0.200000 0.023115
v 0.420000 -0.200000 0.358914
v -0.420000 -0.200000 0.023115
v -0.560000 -0.200000 0.018936
v -0.420000 -0.200000 0.358914
v -0.560000 -0.200000 0.018936
v -0.420000 -0.200000 0.023115
v -0.339411 -0.200000 -0.391296
v -0.452548 -0.200000 -0.533613
v 0.452548 -0.200000 -0.533613
v 0.339411 -0.200000 -0.391296
v 0.420000 -0.200000 0.023115
v 0.560000 -0.200000 0.018936
v 0.000000 -0.200000 -0.721064
v 0.000000 -0.200000 -0.531885
v 0.339411 -0.200000 -0.391296
v 0.452548 -0.200000 -0.533613
v -0.560000 -0.200000 1.000000
v 0.560000 -0.200000 1.000000
v 0.420000 -0.200000 0.358914
v -0.420000 -0.200000 0.358914
v 0.235200 -0.800000 0.091687
v 0.129360 -0.975000 0.110625
v 0.129360 -0.975000 0.358914
v 0.235200 -0.800000 0.358914
v -0.190070 -0.800000 -0.158384
v -0.125802 -0.975000 -0.073080
v -0.011760 -0.975000 -0.120318
v 0.000000 -0.800000 -0.237113
v -0.235200 -0.800000 0.358914
v -0.152880 -0.975000 0.358914
v -0.152880 -0.975000 0.110625
v -0.235200 -0.800000 0.091687
v 0.000000 -0.800000 -0.237113
v -0.011760 -0.975000 -0.120318
v 0.102282 -0.975000 -0.073080
v 0.190070 -0.800000 -0.158384
v -0.235200 -0.800000 0.091687
v -0.152880 -0.975000 0.110625
v -0.125802 -0.975000 -0.073080
v -0.190070 -0.800000 -0.158384
v 0.190070 -0.800000 -0.158384
v 0.102282 -0.975000 -0.073080
v 0.129360 -0.975000 0.110625
v 0.235200 -0.800000 0.091687
v 0.235200 -0.800000 0.358914
v -0.235200 -0.800000 0.358914
v -0.420000 -0.500000 0.358914
v 0.420000 -0.500000 0.358914
v -0.152880 -0.975000 0.110625
v 0.129360 -0.975000 0.110625
v -0.011760 -0.975000 -0.120318
v -0.235200 -0.800000 0.358914
v -0.235200 -0.800000 0.758914
v -0.152880 -0.975000 0.758914
v -0.152880 -0.975000 0.358914
v 0.235200 -0.800000 0.358914
v 0.235200 -0.800000 0.758914
v -0.235200 -0.800000 0.758914
v -0.235200 -0.800000 0.358914
v 0.129360 -0.975000 0.358914
v 0.129360 -0.975000 0.758914
v 0.235200 -0.800000 0.758914
v 0.235200 -0.800000 0.358914
v -0.152880 -0.975000 0.358914
v -0.152880 -0.975000 0.758914
v 0.129360 -0.975000 0.758914
v 0.129360 -0.975000 0.358914
v 0.235200 -0.800000 0.758914
v 0.129360 -0.975000 0.758914
v -0.152880 -0.975000 0.758914
v -0.235200 -0.800000 0.758914
v -0.000000 1.000000 0.925000
v 0.088388 1.000000 0.888388
v -0.000000 1.000000 0.675000
v 0.088388 1.000000 0.888388
v 0.125000 1.000000 0.800000
v -0.000000 1.000000 0.675000
v 0.125000 1.000000 0.800000
v 0.088388 1.000000 0.711612
v -0.000000 1.000000 0.675000
v -0.000000 1.000000 0.675000
v -0.088388 1.000000 0.711612
v -0.000000 1.000000 0.925000
v -0.088388 1.000000 0.711612
v -0.125000 1.000000 0.800000
v -0.000000 1.000000 0.925000
v 0.560000 0.250000 0.468936
v -0.560000 0.250000 0.468936
v 0.000000 0.990000 0.468936
v -0.560000 0.250000 0.468936
v -0.452548 0.802548 0.468936
v 0.000000 0.990000 0.468936
v -0.452548 0.802548 0.568936
v -0.560000 0.250000 0.568936
v 0.000000 0.990000 0.568936
v -0.560000 0.250000 0.568936
v 0.560000 0.250000 0.568936
v 0.000000 0.990000 0.568936
v 0.129360 -0.975000 0.358914
v 0.129360 -0.975000 0.110625
v -0.152880 -0.975000 0.358914
v -0.152880 -0.975000 0.358914
v 0.129360 -0.975000 0.110625
v -0.152880 -0.975000 0.110625
v -0.152880 -0.975000 0.110625
v -0.011760 -0.975000 -0.120318
v -0.125802 -0.975000 -0.073080
v -0.011760 -0.975000 -0.120318
v 0.129360 -0.975000 0.110625
v 0.102282 -0.975000 -0.073080
v 0.560000 -0.200000 0.600000
v -0.560000 -0.200000 0.600000
v -0.560000 0.950000 0.600000
v 0.560000 0.950000 0.600000
v 0.560000 -0.200000 1.000000
v 0.560000 -0.200000 0.600000
v 0.560000 0.950000 0.600000
v 0.560000 0.950000 1.000000
v -0.560000 -0.200000 1.000000
v 0.560000 -0.200000 1.000000
v 0.560000 0.950000 1.000000
v -0.560000 0.950000 1.000000
v -0.560000 -0.200000 0.600000
v -0.560000 -0.200000 1.000000
v -0.560000 0.950000 1.000000
v -0.560000 0.950000 0.600000
v -0.235200 -0.800000 0.091687
v 0.235200 -0.800000 0.091687
v 0.000000 -0.800000 -0.237113
v 0.000000 -0.800000 -0.237113
v -0.190070 -0.800000 -0.158384
v -0.235200 -0.800000 0.091687
v -0.235200 -0.800000 0.091687
v -0.235200 -0.800000 0.358914
v 0.235200 -0.800000 0.358914
v 0.235200 -0.800000 0.358914
v 0.235200 -0.800000 0.091687
v -0.235200 -0.800000 0.091687
v 0.235200 -0.800000 0.091687
v 0.190070 -0.800000 -0.158384
v 0.000000 -0.800000 -0.237113

vt 0.925782 0.213010
vt 0.831802 0.001002
vt 0.925782 0.000493
vt 0.831802 0.213010
vt 0.831802 0.001002
vt 0.925782 0.213010
vt 0.937079 0.586812
vt 0.850431 0.374294
vt 0.937079 0.374294
vt 0.850431 0.586812
vt 0.850431 0.374294
vt 0.937079 0.586812
vt 0.831802 0.213995
vt 0.918450 0.335931
vt 0.831802 0.335931
vt 0.918450 0.213995
vt 0.918450 0.335931
vt 0.831802 0.213995
vt 0.542929 0.831396
vt 0.629577 0.937504
vt 0.542929 0.937504
vt 0.629577 0.831396
vt 0.629577 0.937504
vt 0.542929 0.831396
vt 0.087140 0.951222
vt 0.000493 0.845114
vt 0.087140 0.845114
vt 0.000493 0.951222
vt 0.000493 0.845114
vt 0.087140 0.951222
vt 0.244092 0.855945
vt 0.366027 0.769297
vt 0.366027 0.855945
vt 0.244092 0.769297
vt 0.366027 0.769297
vt 0.244092 0.855945
vt 0.830817 0.331208
vt 0.660987 0.119200
vt 0.830817 0.119200
vt 0.660987 0.331208
vt 0.660987 0.119200
vt 0.830817 0.331208
vt 0.850431 0.587797
vt 0.937079 0.800315
vt 0.850431 0.800315
vt 0.937079 0.587797
vt 0.937079 0.800315
vt 0.850431 0.587797
vt 0.636909 0.830411
vt 0.542929 0.617893
vt 0.636909 0.618403
vt 0.542929 0.830411
vt 0.542929 0.617893
vt 0.636909 0.830411
vt 0.787322 0.862749
vt 0.694029 0.764568
vt 0.787322 0.740814
vt 0.693562 0.856309
vt 0.694029 0.764568
vt 0.787322 0.862749
vt 0.677280 0.028916
vt 0.830817 0.119200
vt 0.660987 0.119200
vt 0.788307 0.809337
vt 0.883285 0.899334
vt 0.788307 0.915445
vt 0.883285 0.825058
vt 0.883285 0.899334
vt 0.788307 0.809337
vt 0.417388 0.806972
vt 0.512365 0.897359
vt 0.417388 0.913080
vt 0.512365 0.823083
vt 0.512365 0.897359
vt 0.417388 0.806972
vt 0.787322 0.739829
vt 0.693562 0.624333
vt 0.787322 0.617893
vt 0.694029 0.716074
vt 0.693562 0.624333
vt 0.787322 0.739829
vt 0.762798 0.374294
vt 0.676150 0.580516
vt 0.676150 0.410686
vt 0.762798 0.616908
vt 0.676150 0.580516
vt 0.762798 0.374294
vt 0.762798 0.374294
vt 0.849446 0.616908
vt 0.762798 0.616908
vt 0.849446 0.374294
vt 0.849446 0.616908
vt 0.762798 0.374294
vt 0.087140 0.249605
vt 0.329755 0.336253
vt 0.087140 0.336253
vt 0.329755 0.249605
vt 0.329755 0.336253
vt 0.087140 0.249605
vt 0.243107 0.746650
vt 0.121800 0.586351
vt 0.219830 0.626957
vt 0.417388 0.495601
vt 0.577686 0.616908
vt 0.457993 0.593632
vt 0.959726 0.480402
vt 0.938064 0.602337
vt 0.938064 0.480402
vt 0.959726 0.602337
vt 0.938064 0.602337
vt 0.959726 0.480402
vt 0.375049 0.692459
vt 0.396711 0.586351
vt 0.396711 0.692459
vt 0.375049 0.586351
vt 0.396711 0.586351
vt 0.375049 0.692459
vt 0.243107 0.844129
vt 0.000493 0.746650
vt 0.243107 0.746650
vt 0.000493 0.844129
vt 0.000493 0.746650
vt 0.243107 0.844129
vt 0.959726 0.374294
vt 0.938064 0.480402
vt 0.938064 0.374294
vt 0.959726 0.480402
vt 0.938064 0.480402
vt 0.959726 0.374294
vt 0.375049 0.814394
vt 0.396711 0.692459
vt 0.396711 0.814394
vt 0.375049 0.692459
vt 0.396711 0.692459
vt 0.375049 0.814394
vt 0.959726 0.699816
vt 0.938064 0.942430
vt 0.938064 0.699816
vt 0.959726 0.942430
vt 0.938064 0.942430
vt 0.959726 0.699816
vt 0.959726 0.699816
vt 0.938064 0.602337
vt 0.959726 0.602337
vt 0.938064 0.699816
vt 0.938064 0.602337
vt 0.959726 0.699816
vt 0.675165 0.374294
vt 0.577686 0.616908
vt 0.577686 0.374294
vt 0.675165 0.616908
vt 0.577686 0.616908
vt 0.675165 0.374294
vt 0.396711 0.911873
vt 0.375049 0.814394
vt 0.396711 0.814394
vt 0.375049 0.911873
vt 0.375049 0.814394
vt 0.396711 0.911873
vt 0.864633 0.989171
vt 0.788307 0.931284
vt 0.788307 0.989171
vt 0.864633 0.916430
vt 0.788307 0.931284
vt 0.864633 0.989171
vt 0.930604 0.989171
vt 0.865618 0.916430
vt 0.865618 0.989171
vt 0.930604 0.916430
vt 0.865618 0.916430
vt 0.930604 0.989171
vt 0.324951 0.979051
vt 0.416403 0.914065
vt 0.324951 0.914065
vt 0.416403 0.979051
vt 0.416403 0.914065
vt 0.324951 0.979051
vt 0.984421 0.367302
vt 0.919435 0.287721
vt 0.919435 0.367302
vt 0.984421 0.287721
vt 0.919435 0.287721
vt 0.984421 0.367302
vt 0.926767 0.000493
vt 0.991753 0.080073
vt 0.991753 0.000493
vt 0.926767 0.080073
vt 0.991753 0.080073
vt 0.926767 0.000493
vt 0.231544 0.936565
vt 0.166558 0.845114
vt 0.166558 0.936565
vt 0.231544 0.845114
vt 0.166558 0.845114
vt 0.231544 0.936565
vt 0.926767 0.146044
vt 0.999507 0.081058
vt 0.926767 0.081058
vt 0.999507 0.146044
vt 0.999507 0.081058
vt 0.926767 0.146044
vt 0.995761 0.286736
vt 0.919435 0.213995
vt 0.919435 0.286736
vt 0.995761 0.228849
vt 0.919435 0.213995
vt 0.995761 0.286736
vt 0.321539 0.948381
vt 0.244494 0.900280
vt 0.244092 0.955324
vt 0.321539 0.856930
vt 0.244494 0.900280
vt 0.321539 0.948381
vt 0.417388 0.914065
vt 0.505156 0.969210
vt 0.505156 0.924645
vt 0.417388 0.993646
vt 0.505156 0.969210
vt 0.417388 0.914065
vt 0.781330 0.943315
vt 0.693562 0.874314
vt 0.693562 0.918879
vt 0.781330 0.863734
vt 0.693562 0.874314
vt 0.781330 0.943315
vt 0.165573 0.943508
vt 0.088125 0.845114
vt 0.088528 0.900157
vt 0.165573 0.852056
vt 0.088125 0.845114
vt 0.165573 0.943508
vt 0.309078 0.768312
vt 0.244092 0.586351
vt 0.244092 0.768312
vt 0.309078 0.586351
vt 0.244092 0.586351
vt 0.309078 0.768312
vt 0.660002 0.373309
vt 0.660002 0.160791
vt 0.629675 0.234437
vt 0.538695 0.041473
vt 0.440664 0.041098
vt 0.465171 0.071927
vt 0.538695 0.000493
vt 0.440664 0.041098
vt 0.538695 0.041473
vt 0.417388 0.373309
vt 0.447714 0.234437
vt 0.417388 0.160791
vt 0.629675 0.234437
vt 0.660002 0.160791
vt 0.629675 0.161697
vt 0.447714 0.234437
vt 0.447714 0.161697
vt 0.417388 0.160791
vt 0.465171 0.071927
vt 0.417388 0.160791
vt 0.447714 0.161697
vt 0.440664 0.041098
vt 0.417388 0.160791
vt 0.465171 0.071927
vt 0.629675 0.161697
vt 0.636726 0.041098
vt 0.612218 0.071927
vt 0.660002 0.160791
vt 0.636726 0.041098
vt 0.629675 0.161697
vt 0.612218 0.071927
vt 0.538695 0.000493
vt 0.538695 0.041473
vt 0.636726 0.041098
vt 0.538695 0.000493
vt 0.612218 0.071927
vt 0.629675 0.234437
vt 0.417388 0.373309
vt 0.660002 0.373309
vt 0.447714 0.234437
vt 0.417388 0.373309
vt 0.629675 0.234437
vt 0.692577 0.617893
vt 0.648274 0.675780
vt 0.692577 0.671678
vt 0.648274 0.617893
vt 0.648274 0.675780
vt 0.692577 0.617893
vt 0.366556 0.868965
vt 0.322524 0.901495
vt 0.366556 0.895705
vt 0.322524 0.856930
vt 0.322524 0.901495
vt 0.366556 0.868965
vt 0.689978 0.736898
vt 0.648085 0.790682
vt 0.689978 0.790682
vt 0.648085 0.732795
vt 0.648085 0.790682
vt 0.689978 0.736898
vt 0.645114 0.882652
vt 0.690169 0.848585
vt 0.645114 0.855913
vt 0.690169 0.893150
vt 0.690169 0.848585
vt 0.645114 0.882652
vt 0.648630 0.831887
vt 0.690169 0.792554
vt 0.648085 0.791667
vt 0.690169 0.847600
vt 0.690169 0.792554
vt 0.648630 0.831887
vt 0.648085 0.731791
vt 0.692577 0.676765
vt 0.648749 0.691572
vt 0.692577 0.731810
vt 0.692577 0.676765
vt 0.648085 0.731791
vt 0.309078 0.586351
vt 0.374064 0.728280
vt 0.374064 0.626383
vt 0.309078 0.768312
vt 0.374064 0.728280
vt 0.309078 0.586351
vt 0.818877 0.617893
vt 0.788307 0.667920
vt 0.849446 0.667920
vt 0.455296 0.805987
vt 0.541944 0.764094
vt 0.455296 0.764094
vt 0.541944 0.805987
vt 0.541944 0.764094
vt 0.455296 0.805987
vt 0.455296 0.764094
vt 0.541944 0.662196
vt 0.455296 0.662196
vt 0.541944 0.764094
vt 0.541944 0.662196
vt 0.455296 0.764094
vt 0.455296 0.662196
vt 0.541944 0.617893
vt 0.455296 0.617893
vt 0.541944 0.662196
vt 0.541944 0.617893
vt 0.455296 0.662196
vt 0.849446 0.808352
vt 0.788307 0.721704
vt 0.788307 0.808352
vt 0.849446 0.721704
vt 0.788307 0.721704
vt 0.849446 0.808352
vt 0.417388 0.746262
vt 0.455296 0.662196
vt 0.417388 0.685123
vt 0.455296 0.764094
vt 0.455296 0.662196
vt 0.417388 0.746262
vt 0.121800 0.586351
vt 0.243107 0.746650
vt 0.000493 0.746650
vt 0.121800 0.586351
vt 0.000493 0.746650
vt 0.023769 0.626957
vt 0.417388 0.495601
vt 0.457993 0.397570
vt 0.577686 0.374294
vt 0.417388 0.495601
vt 0.577686 0.374294
vt 0.577686 0.616908
vt 0.788307 0.721704
vt 0.849446 0.721704
vt 0.849446 0.667920
vt 0.788307 0.667920
vt 0.788307 0.721704
vt 0.849446 0.667920
vt 0.794173 0.628126
vt 0.788307 0.667920
vt 0.818877 0.617893
vt 0.843580 0.628126
vt 0.818877 0.617893
vt 0.849446 0.667920
vt 0.329755 0.249605
vt 0.087140 0.000493
vt 0.329754 0.000493
vt 0.087140 0.249605
vt 0.087140 0.000493
vt 0.329755 0.249605
vt 0.000493 0.336253
vt 0.087141 0.585366
vt 0.000493 0.585366
vt 0.087140 0.336253
vt 0.087141 0.585366
vt 0.000493 0.336253
vt 0.087140 0.336253
vt 0.329755 0.585366
vt 0.087141 0.585366
vt 0.329755 0.336253
vt 0.329755 0.585366
vt 0.087140 0.336253
vt 0.329755 0.336253
vt 0.416403 0.585366
vt 0.329755 0.585366
vt 0.416403 0.336253
vt 0.416403 0.585366
vt 0.329755 0.336253
vt 0.623657 0.844065
vt 0.705110 0.688213
vt 0.705110 0.844065
vt 0.623657 0.688213
vt 0.705110 0.688213
vt 0.623657 0.844065
vt 0.623657 0.532361
vt 0.705110 0.376509
vt 0.705110 0.532361
vt 0.623657 0.376509
vt 0.705110 0.376509
vt 0.623657 0.532361
vt 0.623492 0.457961
vt 0.467639 0.376509
vt 0.623492 0.376509
vt 0.467639 0.457961
vt 0.467639 0.376509
vt 0.623492 0.457961
vt 0.311787 0.457961
vt 0.155935 0.376509
vt 0.311787 0.376509
vt 0.155935 0.457961
vt 0.155935 0.376509
vt 0.311787 0.457961
vt 0.623657 0.999917
vt 0.705110 0.844065
vt 0.705110 0.999917
vt 0.623657 0.844065
vt 0.705110 0.844065
vt 0.623657 0.999917
vt 0.623657 0.688213
vt 0.705110 0.532361
vt 0.705110 0.688213
vt 0.623657 0.532361
vt 0.705110 0.532361
vt 0.623657 0.688213
vt 0.467639 0.457961
vt 0.311787 0.376509
vt 0.467639 0.376509
vt 0.311787 0.457961
vt 0.311787 0.376509
vt 0.467639 0.457961
vt 0.155935 0.457961
vt 0.000083 0.376509
vt 0.155935 0.376509
vt 0.000083 0.457961
vt 0.000083 0.376509
vt 0.155935 0.457961
vt 0.000083 0.110287
vt 0.110287 0.376343
vt 0.000083 0.266139
vt 0.376343 0.266139
vt 0.000083 0.110287
vt 0.110287 0.000083
vt 0.376343 0.266139
vt 0.110287 0.000083
vt 0.266139 0.000083
vt 0.376343 0.266139
vt 0.266139 0.000083
vt 0.376343 0.110287
vt 0.000083 0.110287
vt 0.376343 0.266139
vt 0.266139 0.376343
vt 0.000083 0.110287
vt 0.266139 0.376343
vt 0.110287 0.376343
vt 0.394632 0.000089
vt 0.789175 0.551644
vt 0.000089 0.551644
vt 0.789175 0.551644
vt 0.394632 0.000089
vt 0.713471 0.132156
vt 0.000089 0.999911
vt 0.789175 0.551644
vt 0.789175 0.999911
vt 0.789175 0.551644
vt 0.000089 0.999911
vt 0.000089 0.551644
vt 0.394632 0.000089
vt 0.000089 0.551644
vt 0.075793 0.132156

vn 0.921982 -0.387233 0.000000
vn 0.921982 -0.387233 0.000000
vn 0.921982 -0.387233 0.000000
vn 0.921982 -0.387233 0.000000
vn 0.921982 -0.387233 0.000000
vn 0.921982 -0.387233 0.000000
vn -1.000000 0.000000 0.000000
vn -1.000000 0.000000 0.000000
vn -1.000000 0.000000 0.000000
vn -1.000000 0.000000 0.000000
vn -1.000000 0.000000 0.000000
vn -1.000000 0.000000 0.000000
vn -0.981611 0.000000 -0.190890
vn -0.981611 0.000000 -0.190890
vn -0.981611 0.000000 -0.190890
vn -0.981611 0.000000 -0.190890
vn -0.981611 0.000000 -0.190890
vn -0.981611 0.000000 -0.190890
vn -0.382683 0.000000 -0.923880
vn -0.382683 0.000000 -0.923880
vn -0.382683 0.000000 -0.923880
vn -0.382683 0.000000 -0.923880
vn -0.382683 0.000000 -0.923880
vn -0.382683 0.000000 -0.923880
vn 0.382683 0.000000 -0.923879
vn 0.382683 0.000000 -0.923879
vn 0.382683 0.000000 -0.923879
vn 0.382683 0.000000 -0.923879
vn 0.382683 0.000000 -0.923879
vn 0.382683 0.000000 -0.923879
vn 0.981611 0.000000 -0.190890
vn 0.981611 0.000000 -0.190890
vn 0.981611 0.000000 -0.190890
vn 0.981611 0.000000 -0.190890
vn 0.981611 0.000000 -0.190890
vn 0.981611 0.000000 -0.190890
vn 0.000000 -1.000000 0.000000
vn 0.000000 -1.000000 0.000000
vn 0.000000 -1.000000 0.000000
vn -0.000000 -1.000000 0.000000
vn -0.000000 -1.000000 0.000000
vn -0.000000 -1.000000 0.000000
vn 1.000000 0.000000 0.000000
vn 1.000000 0.000000 0.000000
vn 1.000000 0.000000 0.000000
vn 1.000000 0.000000 0.000000
vn 1.000000 0.000000 0.000000
vn 1.000000 0.000000 0.000000
vn -0.921982 -0.387233 0.000000
vn -0.921982 -0.387233 0.000000
vn -0.921982 -0.387233 0.000000
vn -0.921982 -0.387233 0.000000
vn -0.921982 -0.387233 0.000000
vn -0.921982 -0.387233 0.000000
vn 0.911691 -0.370656 -0.177293
vn 0.911691 -0.370656 -0.177293
vn 0.911691 -0.370656 -0.177293
vn 0.909143 -0.382805 -0.164071
vn 0.909143 -0.382805 -0.164071
vn 0.909143 -0.382805 -0.164071
vn -0.000000 -1.000000 0.000000
vn -0.000000 -1.000000 0.000000
vn -0.000000 -1.000000 0.000000
vn 0.349121 -0.409528 -0.842853
vn 0.349121 -0.409528 -0.842853
vn 0.349121 -0.409528 -0.842853
vn 0.349121 -0.409528 -0.842853
vn 0.349121 -0.409528 -0.842853
vn 0.349121 -0.409528 -0.842853
vn -0.349121 -0.409528 -0.842853
vn -0.349121 -0.409528 -0.842853
vn -0.349121 -0.409528 -0.842853
vn -0.349121 -0.409528 -0.842853
vn -0.349121 -0.409528 -0.842853
vn -0.349121 -0.409528 -0.842853
vn -0.907152 -0.382041 -0.176410
vn -0.907152 -0.382041 -0.176410
vn -0.907152 -0.382041 -0.176410
vn -0.915180 -0.367651 -0.165161
vn -0.915180 -0.367651 -0.165161
vn -0.915180 -0.367651 -0.165161
vn -0.000000 -0.000000 1.000000
vn -0.000000 -0.000000 1.000000
vn -0.000000 -0.000000 1.000000
vn -0.000000 0.000000 1.000000
vn -0.000000 0.000000 1.000000
vn -0.000000 0.000000 1.000000
vn -0.000000 0.000000 1.000000
vn -0.000000 0.000000 1.000000
vn -0.000000 0.000000 1.000000
vn -0.000000 0.000000 1.000000
vn -0.000000 0.000000 1.000000
vn -0.000000 0.000000 1.000000
vn -0.000000 1.000000 0.000000
vn -0.000000 1.000000 0.000000
vn -0.000000 1.000000 0.000000
vn -0.000000 1.000000 0.000000
vn -0.000000 1.000000 0.000000
vn -0.000000 1.000000 0.000000
vn 0.000000 0.000000 -1.000000
vn 0.000000 0.000000 -1.000000
vn 0.000000 0.000000 -1.000000
vn 0.000000 -0.000000 1.000000
vn 0.000000 -0.000000 1.000000
vn 0.000000 -0.000000 1.000000
vn 0.981612 0.190890 0.000000
vn 0.981612 0.190890 0.000000
vn 0.981612 0.190890 0.000000
vn 0.981611 0.190890 0.000000
vn 0.981611 0.190890 0.000000
vn 0.981611 0.190890 0.000000
vn -0.382683 0.923880 0.000000
vn -0.382683 0.923880 0.000000
vn -0.382683 0.923880 0.000000
vn -0.382683 0.923880 0.000000
vn -0.382683 0.923880 0.000000
vn -0.382683 0.923880 0.000000
vn 0.000000 0.000000 -1.000000
vn 0.000000 0.000000 -1.000000
vn 0.000000 0.000000 -1.000000
vn 0.000000 0.000000 -1.000000
vn 0.000000 0.000000 -1.000000
vn 0.000000 0.000000 -1.000000
vn 0.382683 0.923880 0.000000
vn 0.382683 0.923880 0.000000
vn 0.382683 0.923880 0.000000
vn 0.382683 0.923880 0.000000
vn 0.382683 0.923880 0.000000
vn 0.382683 0.923880 0.000000
vn -0.981611 0.190890 0.000000
vn -0.981611 0.190890 0.000000
vn -0.981611 0.190890 0.000000
vn -0.981611 0.190890 0.000000
vn -0.981611 0.190890 0.000000
vn -0.981611 0.190890 0.000000
vn -0.000000 -1.000000 0.000000
vn -0.000000 -1.000000 0.000000
vn -0.000000 -1.000000 0.000000
vn -0.000000 -1.000000 0.000000
vn -0.000000 -1.000000 0.000000
vn -0.000000 -1.000000 0.000000
vn 1.000000 0.000000 0.000000
vn 1.000000 0.000000 0.000000
vn 1.000000 0.000000 0.000000
vn 1.000000 0.000000 0.000000
vn 1.000000 0.000000 0.000000
vn 1.000000 0.000000 0.000000
vn -0.000000 0.000000 1.000000
vn -0.000000 0.000000 1.000000
vn -0.000000 0.000000 1.000000
vn -0.000000 0.000000 1.000000
vn -0.000000 0.000000 1.000000
vn -0.000000 0.000000 1.000000
vn -1.000000 0.000000 0.000000
vn -1.000000 0.000000 0.000000
vn -1.000000 0.000000 0.000000
vn -1.000000 0.000000 0.000000
vn -1.000000 0.000000 0.000000
vn -1.000000 0.000000 0.000000
vn -0.851424 0.524477 0.000000
vn -0.851424 0.524477 0.000000
vn -0.851424 0.524477 0.000000
vn -0.851424 0.524477 0.000000
vn -0.851424 0.524477 0.000000
vn -0.851424 0.524477 0.000000
vn 1.000000 0.000000 0.000000
vn 1.000000 0.000000 0.000000
vn 1.000000 0.000000 0.000000
vn 1.000000 0.000000 0.000000
vn 1.000000 0.000000 0.000000
vn 1.000000 0.000000 0.000000
vn 0.981611 0.000000 0.190890
vn 0.981611 0.000000 0.190890
vn 0.981611 0.000000 0.190890
vn 0.981611 0.000000 0.190890
vn 0.981611 0.000000 0.190890
vn 0.981611 0.000000 0.190890
vn 0.382683 0.000000 0.923880
vn 0.382683 0.000000 0.923880
vn 0.382683 0.000000 0.923880
vn 0.382683 0.000000 0.923880
vn 0.382683 0.000000 0.923880
vn 0.382683 0.000000 0.923880
vn -0.382683 0.000000 0.923880
vn -0.382683 0.000000 0.923880
vn -0.382683 0.000000 0.923880
vn -0.382683 0.000000 0.923880
vn -0.382683 0.000000 0.923880
vn -0.382683 0.000000 0.923880
vn -0.981611 0.000000 0.190890
vn -0.981611 0.000000 0.190890
vn -0.981611 0.000000 0.190890
vn -0.981611 0.000000 0.190890
vn -0.981611 0.000000 0.190890
vn -0.981611 0.000000 0.190890
vn -1.000000 0.000000 0.000000
vn -1.000000 0.000000 0.000000
vn -1.000000 0.000000 0.000000
vn -1.000000 0.000000 0.000000
vn -1.000000 0.000000 0.000000
vn -1.000000 0.000000 0.000000
vn 0.851424 0.524478 0.000000
vn 0.851424 0.524478 0.000000
vn 0.851424 0.524478 0.000000
vn 0.851424 0.524477 0.000000
vn 0.851424 0.524477 0.000000
vn 0.851424 0.524477 0.000000
vn -0.826321 0.543099 0.149124
vn -0.826321 0.543099 0.149124
vn -0.826321 0.543099 0.149124
vn -0.827965 0.537168 0.161011
vn -0.827965 0.537168 0.161011
vn -0.827965 0.537168 0.161011
vn -0.283348 0.672140 0.684062
vn -0.283348 0.672140 0.684062
vn -0.283348 0.672140 0.684062
vn -0.283348 0.672140 0.684062
vn -0.283348 0.672140 0.684062
vn -0.283348 0.672140 0.684062
vn 0.283348 0.672140 0.684062
vn 0.283348 0.672140 0.684062
vn 0.283348 0.672140 0.684062
vn 0.283348 0.672140 0.684063
vn 0.283348 0.672140 0.684063
vn 0.283348 0.672140 0.684063
vn 0.833477 0.531687 0.150416
vn 0.833477 0.531687 0.150416
vn 0.833477 0.531687 0.150416
vn 0.823663 0.543988 0.160174
vn 0.823663 0.543988 0.160174
vn 0.823663 0.543988 0.160174
vn -0.000000 0.000000 -1.000000
vn -0.000000 0.000000 -1.000000
vn -0.000000 0.000000 -1.000000
vn -0.000000 0.000000 -1.000000
vn -0.000000 0.000000 -1.000000
vn -0.000000 0.000000 -1.000000
vn -0.000000 1.000000 0.000000
vn -0.000000 1.000000 0.000000
vn -0.000000 1.000000 0.000000
vn -0.000000 1.000000 0.000000
vn -0.000000 1.000000 0.000000
vn -0.000000 1.000000 0.000000
vn -0.000000 1.000000 0.000000
vn -0.000000 1.000000 0.000000
vn -0.000000 1.000000 0.000000
vn -0.000000 1.000000 0.000000
vn -0.000000 1.000000 0.000000
vn -0.000000 1.000000 0.000000
vn -0.000000 1.000000 0.000000
vn -0.000000 1.000000 0.000000
vn -0.000000 1.000000 0.000000
vn 0.000000 1.000000 0.000000
vn 0.000000 1.000000 0.000000
vn 0.000000 1.000000 0.000000
vn -0.000000 1.000000 0.000000
vn -0.000000 1.000000 0.000000
vn -0.000000 1.000000 0.000000
vn 0.000000 1.000000 0.000000
vn 0.000000 1.000000 0.000000
vn 0.000000 1.000000 0.000000
vn -0.000000 1.000000 0.000000
vn -0.000000 1.000000 0.000000
vn -0.000000 1.000000 0.000000
vn -0.000000 1.000000 0.000000
vn -0.000000 1.000000 0.000000
vn -0.000000 1.000000 0.000000
vn -0.000000 1.000000 0.000000
vn -0.000000 1.000000 0.000000
vn -0.000000 1.000000 0.000000
vn -0.000000 1.000000 0.000000
vn -0.000000 1.000000 0.000000
vn -0.000000 1.000000 0.000000
vn -0.000000 1.000000 0.000000
vn -0.000000 1.000000 0.000000
vn -0.000000 1.000000 0.000000
vn -0.000000 1.000000 0.000000
vn -0.000000 1.000000 0.000000
vn -0.000000 1.000000 0.000000
vn -0.855676 0.517513 0.000000
vn -0.855676 0.517513 0.000000
vn -0.855676 0.517513 0.000000
vn -0.855676 0.517512 0.000000
vn -0.855676 0.517512 0.000000
vn -0.855676 0.517512 0.000000
vn 0.329466 0.508714 0.795401
vn 0.329466 0.508714 0.795401
vn 0.329466 0.508714 0.795401
vn 0.329466 0.508714 0.795401
vn 0.329466 0.508714 0.795401
vn 0.329466 0.508714 0.795401
vn 0.904884 0.425658 0.000000
vn 0.904884 0.425658 0.000000
vn 0.904884 0.425658 0.000000
vn 0.904884 0.425657 0.000000
vn 0.904884 0.425657 0.000000
vn 0.904884 0.425657 0.000000
vn -0.321984 0.540436 0.777339
vn -0.321984 0.540436 0.777339
vn -0.321984 0.540436 0.777339
vn -0.321984 0.540436 0.777339
vn -0.321984 0.540436 0.777339
vn -0.321984 0.540436 0.777339
vn 0.891485 0.433575 0.131404
vn 0.891485 0.433575 0.131404
vn 0.891485 0.433575 0.131404
vn 0.898103 0.408830 0.162079
vn 0.898103 0.408830 0.162079
vn 0.898103 0.408830 0.162079
vn -0.860464 0.493473 0.126831
vn -0.860464 0.493473 0.126831
vn -0.860464 0.493473 0.126831
vn -0.838486 0.523492 0.151320
vn -0.838486 0.523492 0.151320
vn -0.838486 0.523492 0.151320
vn -0.000000 0.000000 -1.000000
vn -0.000000 0.000000 -1.000000
vn -0.000000 0.000000 -1.000000
vn -0.000000 0.000000 -1.000000
vn -0.000000 0.000000 -1.000000
vn -0.000000 0.000000 -1.000000
vn 0.000000 1.000000 0.000000
vn 0.000000 1.000000 0.000000
vn 0.000000 1.000000 0.000000
vn 0.904884 0.425658 0.000000
vn 0.904884 0.425658 0.000000
vn 0.904884 0.425658 0.000000
vn 0.904884 0.425658 0.000000
vn 0.904884 0.425658 0.000000
vn 0.904884 0.425658 0.000000
vn -0.000000 -1.000000 0.000000
vn -0.000000 -1.000000 0.000000
vn -0.000000 -1.000000 0.000000
vn -0.000000 -1.000000 0.000000
vn -0.000000 -1.000000 0.000000
vn -0.000000 -1.000000 0.000000
vn -0.855676 0.517513 0.000000
vn -0.855676 0.517513 0.000000
vn -0.855676 0.517513 0.000000
vn -0.855676 0.517513 0.000000
vn -0.855676 0.517513 0.000000
vn -0.855676 0.517513 0.000000
vn -0.000000 1.000000 0.000000
vn -0.000000 1.000000 0.000000
vn -0.000000 1.000000 0.000000
vn -0.000000 1.000000 0.000000
vn -0.000000 1.000000 0.000000
vn -0.000000 1.000000 0.000000
vn -0.000000 0.000000 -1.000000
vn -0.000000 0.000000 -1.000000
vn -0.000000 0.000000 -1.000000
vn -0.000000 0.000000 -1.000000
vn -0.000000 0.000000 -1.000000
vn -0.000000 0.000000 -1.000000
vn -0.000000 -0.000000 -1.000000
vn -0.000000 -0.000000 -1.000000
vn -0.000000 -0.000000 -1.000000
vn -0.000000 0.000000 -1.000000
vn -0.000000 0.000000 -1.000000
vn -0.000000 0.000000 -1.000000
vn -0.000000 0.000000 1.000000
vn -0.000000 0.000000 1.000000
vn -0.000000 0.000000 1.000000
vn -0.000000 0.000000 1.000000
vn -0.000000 0.000000 1.000000
vn -0.000000 0.000000 1.000000
vn -0.000000 1.000000 0.000000
vn -0.000000 1.000000 0.000000
vn -0.000000 1.000000 0.000000
vn -0.000000 1.000000 0.000000
vn -0.000000 1.000000 0.000000
vn -0.000000 1.000000 0.000000
vn -0.000000 1.000000 0.000000
vn -0.000000 1.000000 0.000000
vn -0.000000 1.000000 0.000000
vn -0.000000 1.000000 0.000000
vn -0.000000 1.000000 0.000000
vn -0.000000 1.000000 0.000000
vn -0.000000 0.000000 -1.000000
vn -0.000000 0.000000 -1.000000
vn -0.000000 0.000000 -1.000000
vn -0.000000 0.000000 -1.000000
vn -0.000000 0.000000 -1.000000
vn -0.000000 0.000000 -1.000000
vn 1.000000 0.000000 0.000000
vn 1.000000 0.000000 0.000000
vn 1.000000 0.000000 0.000000
vn 1.000000 0.000000 0.000000
vn 1.000000 0.000000 0.000000
vn 1.000000 0.000000 0.000000
vn -0.000000 0.000000 1.000000
vn -0.000000 0.000000 1.000000
vn -0.000000 0.000000 1.000000
vn -0.000000 0.000000 1.000000
vn -0.000000 0.000000 1.000000
vn -0.000000 0.000000 1.000000
vn -1.000000 0.000000 0.000000
vn -1.000000 0.000000 0.000000
vn -1.000000 0.000000 0.000000
vn -1.000000 0.000000 0.000000
vn -1.000000 0.000000 0.000000
vn -1.000000 0.000000 0.000000
vn 0.923879 0.000000 -0.382684
vn 0.923879 0.000000 -0.382684
vn 0.923879 0.000000 -0.382684
vn 0.923880 0.000000 -0.382683
vn 0.923880 0.000000 -0.382683
vn 0.923880 0.000000 -0.382683
vn 0.382683 0.000000 0.923880
vn 0.382683 0.000000 0.923880
vn 0.382683 0.000000 0.923880
vn 0.382684 0.000000 0.923879
vn 0.382684 0.000000 0.923879
vn 0.382684 0.000000 0.923879
vn -0.382683 0.000000 0.923880
vn -0.382683 0.000000 0.923880
vn -0.382683 0.000000 0.923880
vn -0.382684 0.000000 0.923879
vn -0.382684 0.000000 0.923879
vn -0.382684 0.000000 0.923879
vn -0.923879 0.000000 -0.382684
vn -0.923879 0.000000 -0.382684
vn -0.923879 0.000000 -0.382684
vn -0.923880 0.000000 -0.382683
vn -0.923880 0.000000 -0.382683
vn -0.923880 0.000000 -0.382683
vn 0.382683 0.000000 -0.923880
vn 0.382683 0.000000 -0.923880
vn 0.382683 0.000000 -0.923880
vn 0.382684 0.000000 -0.923879
vn 0.382684 0.000000 -0.923879
vn 0.382684 0.000000 -0.923879
vn 0.923879 0.000000 0.382684
vn 0.923879 0.000000 0.382684
vn 0.923879 0.000000 0.382684
vn 0.923880 0.000000 0.382683
vn 0.923880 0.000000 0.382683
vn 0.923880 0.000000 0.382683
vn -0.923879 0.000000 0.382684
vn -0.923879 0.000000 0.382684
vn -0.923879 0.000000 0.382684
vn -0.923880 0.000000 0.382683
vn -0.923880 0.000000 0.382683
vn -0.923880 0.000000 0.382683
vn -0.382683 0.000000 -0.923880
vn -0.382683 0.000000 -0.923880
vn -0.382683 0.000000 -0.923880
vn -0.382684 0.000000 -0.923879
vn -0.382684 0.000000 -0.923879
vn -0.382684 0.000000 -0.923879
vn -0.000002 1.000000 0.000000
vn -0.000002 1.000000 0.000000
vn -0.000002 1.000000 0.000000
vn -0.000000 1.000000 0.000000
vn -0.000000 1.000000 0.000000
vn -0.000000 1.000000 0.000000
vn 0.000001 1.000000 0.000000
vn 0.000001 1.000000 0.000000
vn 0.000001 1.000000 0.000000
vn 0.000002 1.000000 0.000000
vn 0.000002 1.000000 0.000000
vn 0.000002 1.000000 0.000000
vn 0.000000 1.000000 0.000000
vn 0.000000 1.000000 0.000000
vn 0.000000 1.000000 0.000000
vn -0.000001 1.000000 0.000000
vn -0.000001 1.000000 0.000000
vn -0.000001 1.000000 0.000000
vn 0.000000 1.000000 0.000000
vn 0.000000 1.000000 0.000000
vn 0.000000 1.000000 0.000000
vn 0.000001 1.000000 0.000000
vn 0.000001 1.000000 0.000000
vn 0.000001 1.000000 0.000000
vn -0.000000 1.000000 0.000000
vn -0.000000 1.000000 0.000000
vn -0.000000 1.000000 0.000000
vn 0.000000 1.000000 0.000000
vn 0.000000 1.000000 0.000000
vn 0.000000 1.000000 0.000000
vn -0.000001 1.000000 0.000000
vn -0.000001 1.000000 0.000000
vn -0.000001 1.000000 0.000000

g Material.001
f 3/1/1 1/2/2 2/3/3
f 4/4/4 1/5/5 3/6/6
f 7/7/7 5/8/8 6/9/9
f 8/10/10 5/11/11 7/12/12
f 11/13/13 9/14/14 10/15/15
f 12/16/16 9/17/17 11/18/18
f 15/19/19 13/20/20 14/21/21
f 16/22/22 13/23/23 15/24/24
f 19/25/25 17/26/26 18/27/27
f 20/28/28 17/29/29 19/30/30
f 23/31/31 21/32/32 22/33/33
f 24/34/34 21/35/35 23/36/36
f 27/37/37 25/38/38 26/39/39
f 28/40/40 25/41/41 27/42/42
f 31/43/43 29/44/44 30/45/45
f 32/46/46 29/47/47 31/48/48
f 35/49/49 33/50/50 34/51/51
f 36/52/52 33/53/53 35/54/54
f 39/55/55 37/56/56 38/57/57
f 40/58/58 37/59/59 39/60/60
f 43/61/61 41/62/62 42/63/63
f 48/64/64 46/65/65 47/66/66
f 49/67/67 46/68/68 48/69/69
f 52/70/70 50/71/71 51/72/72
f 53/73/73 50/74/74 52/75/75
f 56/76/76 54/77/77 55/78/78
f 57/79/79 54/80/80 56/81/81
f 60/82/82 58/83/83 59/84/84
f 61/85/85 58/86/86 60/87/87
f 64/88/88 62/89/89 63/90/90
f 65/91/91 62/92/92 64/93/93
f 68/94/94 66/95/95 67/96/96
f 69/97/97 66/98/98 68/99/99
f 107/100/100 105/101/101 106/102/102
f 110/103/103 108/104/104 109/105/105
f 113/106/106 111/107/107 112/108/108
f 114/109/109 111/110/110 113/111/111
f 117/112/112 115/113/113 116/114/114
f 118/115/115 115/116/116 117/117/117
f 121/118/118 119/119/119 120/120/120
f 122/121/121 119/122/122 121/123/123
f 125/124/124 123/125/125 124/126/126
f 126/127/127 123/128/128 125/129/129
f 129/130/130 127/131/131 128/132/132
f 130/133/133 127/134/134 129/135/135
f 133/136/136 131/137/137 132/138/138
f 134/139/139 131/140/140 133/141/141
f 137/142/142 135/143/143 136/144/144
f 138/145/145 135/146/146 137/147/147
f 141/148/148 139/149/149 140/150/150
f 142/151/151 139/152/152 141/153/153
f 145/154/154 143/155/155 144/156/156
f 146/157/157 143/158/158 145/159/159
f 149/160/160 147/161/161 148/162/162
f 150/163/163 147/164/164 149/165/165
f 153/166/166 151/167/167 152/168/168
f 154/169/169 151/170/170 153/171/171
f 157/172/172 155/173/173 156/174/174
f 158/175/175 155/176/176 157/177/177
f 161/178/178 159/179/179 160/180/180
f 162/181/181 159/182/182 161/183/183
f 165/184/184 163/185/185 164/186/186
f 166/187/187 163/188/188 165/189/189
f 169/190/190 167/191/191 168/192/192
f 170/193/193 167/194/194 169/195/195
f 173/196/196 171/197/197 172/198/198
f 174/199/199 171/200/200 173/201/201
f 177/202/202 175/203/203 176/204/204
f 178/205/205 175/206/206 177/207/207
f 181/208/208 179/209/209 180/210/210
f 182/211/211 179/212/212 181/213/213
f 185/214/214 183/215/215 184/216/216
f 186/217/217 183/218/218 185/219/219
f 189/220/220 187/221/221 188/222/222
f 190/223/223 187/224/224 189/225/225
f 193/226/226 191/227/227 192/228/228
f 194/229/229 191/230/230 193/231/231
f 197/232/232 195/233/233 196/234/234
f 198/235/235 195/236/236 197/237/237
f 201/238/238 199/239/239 200/240/240
f 204/241/241 202/242/242 203/243/243
f 205/244/244 202/245/245 204/246/246
f 208/247/247 206/248/248 207/249/249
f 211/250/250 209/251/251 210/252/252
f 214/253/253 212/254/254 213/255/255
f 217/256/256 215/257/257 216/258/258
f 218/259/259 215/260/260 217/261/261
f 221/262/262 219/263/263 220/264/264
f 222/265/265 219/266/266 221/267/267
f 225/268/268 223/269/269 224/270/270
f 226/271/271 223/272/272 225/273/273
f 229/274/274 227/275/275 228/276/276
f 230/277/277 227/278/278 229/279/279
f 233/280/280 231/281/281 232/282/282
f 234/283/283 231/284/284 233/285/285
f 237/286/286 235/287/287 236/288/288
f 238/289/289 235/290/290 237/291/291
f 241/292/292 239/293/293 240/294/294
f 242/295/295 239/296/296 241/297/297
f 245/298/298 243/299/299 244/300/300
f 246/301/301 243/302/302 245/303/303
f 249/304/304 247/305/305 248/306/306
f 250/307/307 247/308/308 249/309/309
f 253/310/310 251/311/311 252/312/312
f 254/313/313 251/314/314 253/315/315
f 257/316/316 255/317/317 256/318/318
f 258/319/319 255/320/320 257/321/321
f 261/322/322 259/323/323 260/324/324
f 264/325/325 262/326/326 263/327/327
f 265/328/328 262/329/329 264/330/330
f 268/331/331 266/332/332 267/333/333
f 269/334/334 266/335/335 268/336/336
f 272/337/337 270/338/338 271/339/339
f 273/340/340 270/341/341 272/342/342
f 276/343/343 274/344/344 275/345/345
f 277/346/346 274/347/347 276/348/348
f 280/349/349 278/350/350 279/351/351
f 281/352/352 278/353/353 280/354/354
f 299/355/355 297/356/356 298/357/357
f 302/358/358 300/359/359 301/360/360
f 305/361/361 303/362/362 304/363/363
f 308/364/364 306/365/365 307/366/366
f 311/367/367 309/368/368 310/369/369
f 314/370/370 312/371/371 313/372/372
f 317/373/373 315/374/374 316/375/375
f 320/376/376 318/377/377 319/378/378
f 323/379/379 321/380/380 322/381/381
f 324/382/382 321/383/383 323/384/384
f 327/385/385 325/386/386 326/387/387
f 328/388/388 325/389/389 327/390/390
f 331/391/391 329/392/392 330/393/393
f 332/394/394 329/395/395 331/396/396
f 335/397/397 333/398/398 334/399/399
f 336/400/400 333/401/401 335/402/402

g Material.002
f 72/403/403 70/404/404 71/405/405
f 73/406/406 70/407/407 72/408/408
f 76/409/409 74/410/410 75/411/411
f 77/412/412 74/413/413 76/414/414
f 80/415/415 78/416/416 79/417/417
f 81/418/418 78/419/419 80/420/420
f 84/421/421 82/422/422 83/423/423
f 85/424/424 82/425/425 84/426/426
f 88/427/427 86/428/428 87/429/429
f 89/430/430 86/431/431 88/432/432
f 92/433/433 90/434/434 91/435/435
f 93/436/436 90/437/437 92/438/438
f 96/439/439 94/440/440 95/441/441
f 97/442/442 94/443/443 96/444/444
f 100/445/445 98/446/446 99/447/447
f 101/448/448 98/449/449 100/450/450
f 104/451/451 102/452/452 103/453/453
f 284/454/454 282/455/455 283/456/456
f 287/457/457 285/458/458 286/459/459
f 290/460/460 288/461/461 289/462/462
f 293/463/463 291/464/464 292/465/465
f 296/466/466 294/467/467 295/468/468

g Material.003
f 339/469/469 337/470/470 338/471/471
f 342/472/472 340/473/473 341/474/474
f 345/475/475 343/476/476 344/477/477
f 348/478/478 346/479/479 347/480/480
f 351/481/481 349/482/482 350/483/483

