# Converted from B3D for Luanti (With Correct Normals)
# Object Name: multidecor_window_segment_4

v -1.000000 0.875000 1.000000
v -1.000000 0.875000 -1.000000
v 1.000000 0.875000 -1.000000
v 1.000000 0.875000 1.000000

vt 0.999900 0.999900
vt 0.000100 0.000100
vt 0.999900 0.000100
vt 0.000100 0.999900
vt 0.000100 0.000100
vt 0.999900 0.999900

vn -0.000000 -1.000000 0.000000
vn -0.000000 -1.000000 0.000000
vn -0.000000 -1.000000 0.000000
vn -0.000000 -1.000000 0.000000
vn -0.000000 -1.000000 0.000000
vn -0.000000 -1.000000 0.000000

g Material.001
f 3/1/1 1/2/2 2/3/3
f 4/4/4 1/5/5 3/6/6

