# Blender 5.2.0 LTS
# www.blender.org
o Cube.001
v 0.039766 1.893821 0.087431
v 0.056237 1.893821 0.127197
v 0.056237 0.425129 0.127197
v 0.039766 0.425128 0.087431
v -0.039766 1.893821 0.166963
v -0.056237 1.893821 0.127197
v -0.056237 0.425129 0.127197
v -0.039766 0.425129 0.166963
v 0.056237 1.893821 0.127197
v 0.039766 1.893821 0.166963
v 0.039766 0.425128 0.166963
v 0.056237 0.425129 0.127197
v -0.000000 1.893821 0.070959
v 0.039766 1.893821 0.087431
v 0.039766 0.425128 0.087431
v -0.000000 0.425129 0.070960
v 0.000000 1.893821 0.183434
v -0.039766 1.893821 0.166963
v -0.039766 0.425129 0.166963
v 0.000000 0.425129 0.183434
v -0.039766 1.893821 0.087431
v -0.000000 1.893821 0.070959
v -0.000000 0.425129 0.070960
v -0.039766 0.425129 0.087431
v -0.056237 1.893821 0.127197
v -0.039766 1.893821 0.087431
v -0.039766 0.425129 0.087431
v -0.056237 0.425129 0.127197
v 0.039766 1.893821 0.166963
v 0.000000 1.893821 0.183434
v 0.000000 0.425129 0.183434
v 0.039766 0.425128 0.166963
v 0.000000 0.473195 0.199090
v -0.000000 0.473195 0.055304
v -0.195694 0.392136 0.055304
v -0.195694 0.392136 0.199090
v -0.195694 0.392136 0.199090
v -0.195694 0.392136 0.055304
v -0.276753 0.196442 0.055304
v -0.276753 0.196442 0.199091
v -0.276753 0.196442 0.199091
v -0.276753 0.196442 0.055304
v -0.195694 0.000748 0.055304
v -0.195694 0.000748 0.199091
v -0.195694 0.000748 0.199091
v -0.195694 0.000748 0.055304
v -0.000000 -0.080311 0.055304
v 0.000000 -0.080311 0.199090
v 0.000000 -0.080311 0.199090
v -0.000000 -0.080311 0.055304
v 0.195694 0.000748 0.055303
v 0.195694 0.000748 0.199090
v 0.195694 0.000748 0.199090
v 0.195694 0.000748 0.055303
v 0.276753 0.196442 0.055303
v 0.276753 0.196442 0.199090
v 0.276753 0.196442 0.055303
v -0.000000 -0.080311 0.055304
v -0.276753 0.196442 0.055304
v 0.276753 0.196442 0.199090
v 0.276753 0.196442 0.055303
v 0.195694 0.392136 0.055303
v 0.195694 0.392136 0.199090
v 0.195694 0.392136 0.199090
v 0.195694 0.392136 0.055303
v -0.000000 0.473195 0.055304
v 0.000000 0.473195 0.199090
v -0.195694 0.392136 0.199090
v -0.195694 0.000748 0.199091
v 0.195694 0.000748 0.199090
v -0.276753 0.196442 0.055304
v -0.195694 0.392136 0.055304
v -0.000000 0.473195 0.055304
v -0.000000 0.473195 0.055304
v 0.195694 0.392136 0.055303
v 0.276753 0.196442 0.055303
v 0.276753 0.196442 0.055303
v 0.195694 0.000748 0.055303
v -0.000000 -0.080311 0.055304
v -0.000000 -0.080311 0.055304
v -0.195694 0.000748 0.055304
v -0.276753 0.196442 0.055304
v -0.276753 0.196442 0.055304
v -0.000000 0.473195 0.055304
v 0.276753 0.196442 0.055303
v 0.195694 0.392136 0.199090
v 0.000000 0.473195 0.199090
v -0.195694 0.392136 0.199090
v -0.195694 0.392136 0.199090
v -0.276753 0.196442 0.199091
v -0.195694 0.000748 0.199091
v -0.195694 0.000748 0.199091
v 0.000000 -0.080311 0.199090
v 0.195694 0.000748 0.199090
v 0.195694 0.000748 0.199090
v 0.276753 0.196442 0.199090
v 0.195694 0.392136 0.199090
v 0.195694 0.392136 0.199090
v -0.195694 0.392136 0.199090
v 0.195694 0.000748 0.199090
vn 0.9239 -0.0000 -0.3827
vn -0.9239 -0.0000 0.3827
vn 0.9239 -0.0000 0.3827
vn 0.3827 -0.0000 -0.9239
vn -0.3827 -0.0000 0.9239
vn -0.3827 -0.0000 -0.9239
vn -0.9239 -0.0000 -0.3827
vn 0.3827 -0.0000 0.9239
vn -0.3827 0.9239 -0.0000
vn -0.9239 0.3827 -0.0000
vn -0.9239 -0.3827 -0.0000
vn -0.3827 -0.9239 -0.0000
vn 0.3827 -0.9239 -0.0000
vn 0.9239 -0.3827 -0.0000
vn -0.0000 -0.0000 -1.0000
vn 0.9239 0.3827 -0.0000
vn 0.3827 0.9239 -0.0000
vn -0.0000 -0.0000 1.0000
vt 0.790291 0.046491
vt 0.000177 0.069651
vt 0.000177 0.046495
vt 0.790292 0.069647
vt 0.790292 0.139118
vt 0.000177 0.162273
vt 0.000177 0.139117
vt 0.790292 0.162275
vt 0.790291 0.023334
vt 0.000177 0.023339
vt 0.000177 0.092806
vt 0.790292 0.092804
vt 0.000177 0.185428
vt 0.790292 0.185432
vt 0.000177 0.115962
vt 0.790292 0.115961
vt 0.790291 0.000177
vt 0.000177 0.000184
vt 0.999823 0.569945
vt 0.922469 0.455991
vt 0.999823 0.455991
vt 0.922469 0.569945
vt 0.999823 0.683899
vt 0.922469 0.683899
vt 0.999823 0.797852
vt 0.922469 0.797852
vt 0.999823 0.911806
vt 0.922469 0.911806
vt 0.999823 0.114130
vt 0.922469 0.000177
vt 0.999823 0.000177
vt 0.922469 0.114130
vt 0.999823 0.228084
vt 0.922469 0.228084
vt 0.275639 0.380317
vt 0.550747 0.266363
vt 0.470170 0.460894
vt 0.999823 0.342037
vt 0.922469 0.342037
vt 0.275285 0.266363
vt 0.000177 0.380317
vt 0.080754 0.185786
vt 0.356216 0.185786
vt 0.275639 0.266363
vt 0.470170 0.185786
vt 0.550747 0.380317
vt 0.356216 0.460894
vt 0.194708 0.460894
vt 0.080754 0.460894
vt 0.000177 0.266363
vt 0.194708 0.185786
vt 0.275285 0.380317
s 0
g Cube.001_Material.002
f 3/1/1 1/2/1 2/3/1
f 4/4/1 1/2/1 3/1/1
f 7/5/2 5/6/2 6/7/2
f 8/8/2 5/6/2 7/5/2
f 11/9/3 9/3/3 10/10/3
f 12/1/3 9/3/3 11/9/3
f 15/4/4 13/11/4 14/2/4
f 16/12/4 13/11/4 15/4/4
f 19/8/5 17/13/5 18/6/5
f 20/14/5 17/13/5 19/8/5
f 23/12/6 21/15/6 22/11/6
f 24/16/6 21/15/6 23/12/6
f 27/16/7 25/7/7 26/15/7
f 28/5/7 25/7/7 27/16/7
f 31/17/8 29/10/8 30/18/8
f 32/9/8 29/10/8 31/17/8
f 35/19/9 33/20/9 34/21/9
f 36/22/9 33/20/9 35/19/9
f 39/23/10 37/22/10 38/19/10
f 40/24/10 37/22/10 39/23/10
f 43/25/11 41/24/11 42/23/11
f 44/26/11 41/24/11 43/25/11
f 47/27/12 45/26/12 46/25/12
f 48/28/12 45/26/12 47/27/12
f 51/29/13 49/30/13 50/31/13
f 52/32/13 49/30/13 51/29/13
f 55/33/14 53/32/14 54/29/14
f 56/34/14 53/32/14 55/33/14
f 59/35/15 57/36/15 58/37/15
f 62/38/16 60/34/16 61/33/16
f 63/39/16 60/34/16 62/38/16
f 66/21/17 64/39/17 65/38/17
f 67/20/17 64/39/17 66/21/17
f 70/40/18 68/41/18 69/42/18
f 73/43/15 71/35/15 72/44/15
f 76/36/15 74/43/15 75/45/15
f 79/37/15 77/36/15 78/46/15
f 82/35/15 80/37/15 81/47/15
f 85/36/15 83/35/15 84/43/15
f 88/41/18 86/48/18 87/49/18
f 91/42/18 89/41/18 90/50/18
f 94/40/18 92/42/18 93/51/18
f 97/48/18 95/40/18 96/52/18
f 100/40/18 98/48/18 99/41/18
