# Converted from B3D for Luanti (With Correct Normals)
# Object Name: multidecor_faceted_glass

v -0.144000 -0.208000 0.249415
v 0.000000 -0.352000 0.288000
v 0.000000 -0.208000 0.288000
v -0.144000 -0.352000 0.249415
v 0.000000 -0.352000 0.288000
v -0.144000 -0.208000 0.249415
v -0.249415 -0.208000 0.144000
v -0.144000 -0.352000 0.249415
v -0.144000 -0.208000 0.249415
v -0.249415 -0.352000 0.144000
v -0.144000 -0.352000 0.249415
v -0.249415 -0.208000 0.144000
v -0.288000 -0.208000 -0.000000
v -0.249415 -0.352000 0.144000
v -0.249415 -0.208000 0.144000
v -0.288000 -0.352000 -0.000000
v -0.249415 -0.352000 0.144000
v -0.288000 -0.208000 -0.000000
v -0.249415 -0.208000 -0.144000
v -0.288000 -0.352000 -0.000000
v -0.288000 -0.208000 -0.000000
v -0.249415 -0.352000 -0.144000
v -0.288000 -0.352000 -0.000000
v -0.249415 -0.208000 -0.144000
v -0.144000 -0.208000 -0.249415
v -0.249415 -0.352000 -0.144000
v -0.249415 -0.208000 -0.144000
v -0.144000 -0.352000 -0.249415
v -0.249415 -0.352000 -0.144000
v -0.144000 -0.208000 -0.249415
v -0.000000 -0.208000 -0.288000
v -0.144000 -0.352000 -0.249415
v -0.144000 -0.208000 -0.249415
v -0.000000 -0.352000 -0.288000
v -0.144000 -0.352000 -0.249415
v -0.000000 -0.208000 -0.288000
v 0.144000 -0.208000 -0.249415
v -0.000000 -0.352000 -0.288000
v -0.000000 -0.208000 -0.288000
v 0.144000 -0.352000 -0.249415
v -0.000000 -0.352000 -0.288000
v 0.144000 -0.208000 -0.249415
v 0.249415 -0.208000 -0.144000
v 0.144000 -0.352000 -0.249415
v 0.144000 -0.208000 -0.249415
v 0.249415 -0.352000 -0.144000
v 0.144000 -0.352000 -0.249415
v 0.249415 -0.208000 -0.144000
v 0.288000 -0.208000 -0.000000
v 0.249415 -0.352000 -0.144000
v 0.249415 -0.208000 -0.144000
v 0.288000 -0.352000 -0.000000
v 0.249415 -0.352000 -0.144000
v 0.288000 -0.208000 -0.000000
v 0.249415 -0.208000 0.144000
v 0.288000 -0.352000 -0.000000
v 0.288000 -0.208000 -0.000000
v 0.249415 -0.352000 0.144000
v 0.288000 -0.352000 -0.000000
v 0.249415 -0.208000 0.144000
v 0.144000 -0.208000 0.249415
v 0.249415 -0.352000 0.144000
v 0.249415 -0.208000 0.144000
v 0.144000 -0.352000 0.249415
v 0.249415 -0.352000 0.144000
v 0.144000 -0.208000 0.249415
v 0.000000 -0.208000 0.288000
v 0.144000 -0.352000 0.249415
v 0.144000 -0.208000 0.249415
v 0.000000 -0.352000 0.288000
v 0.144000 -0.352000 0.249415
v 0.000000 -0.208000 0.288000
v 0.144000 -1.000000 0.249415
v -0.288000 -1.000000 -0.000000
v 0.144000 -1.000000 -0.249415
v 0.000000 -0.928000 0.288000
v 0.144000 -1.000000 0.249415
v 0.144000 -0.928000 0.249415
v 0.000000 -1.000000 0.288000
v 0.144000 -1.000000 0.249415
v 0.000000 -0.928000 0.288000
v 0.000000 -0.352000 0.288000
v 0.144000 -0.928000 0.249415
v 0.144000 -0.352000 0.249415
v 0.000000 -0.928000 0.288000
v 0.144000 -0.928000 0.249415
v 0.000000 -0.352000 0.288000
v 0.144000 -0.928000 0.249415
v 0.249415 -1.000000 0.144000
v 0.249415 -0.928000 0.144000
v 0.144000 -1.000000 0.249415
v 0.249415 -1.000000 0.144000
v 0.144000 -0.928000 0.249415
v -0.129600 -0.352000 -0.224474
v -0.249415 -0.352000 -0.144000
v -0.144000 -0.352000 -0.249415
v -0.224474 -0.352000 -0.129600
v -0.249415 -0.352000 -0.144000
v -0.129600 -0.352000 -0.224474
v 0.249415 -0.928000 0.144000
v 0.288000 -1.000000 -0.000000
v 0.288000 -0.928000 -0.000000
v 0.249415 -1.000000 0.144000
v 0.288000 -1.000000 -0.000000
v 0.249415 -0.928000 0.144000
v 0.249415 -0.352000 0.144000
v 0.288000 -0.928000 -0.000000
v 0.288000 -0.352000 -0.000000
v 0.249415 -0.928000 0.144000
v 0.288000 -0.928000 -0.000000
v 0.249415 -0.352000 0.144000
v 0.288000 -0.928000 -0.000000
v 0.249415 -1.000000 -0.144000
v 0.249415 -0.928000 -0.144000
v 0.288000 -1.000000 -0.000000
v 0.249415 -1.000000 -0.144000
v 0.288000 -0.928000 -0.000000
v -0.224474 -0.352000 -0.129600
v -0.249415 -0.928000 -0.144000
v -0.249415 -0.352000 -0.144000
v -0.224474 -0.928000 -0.129600
v -0.249415 -0.928000 -0.144000
v -0.224474 -0.352000 -0.129600
v 0.249415 -0.928000 -0.144000
v 0.144000 -1.000000 -0.249415
v 0.144000 -0.928000 -0.249415
v 0.249415 -1.000000 -0.144000
v 0.144000 -1.000000 -0.249415
v 0.249415 -0.928000 -0.144000
v 0.249415 -0.352000 -0.144000
v 0.144000 -0.928000 -0.249415
v 0.144000 -0.352000 -0.249415
v 0.249415 -0.928000 -0.144000
v 0.144000 -0.928000 -0.249415
v 0.249415 -0.352000 -0.144000
v 0.144000 -0.928000 -0.249415
v -0.000000 -1.000000 -0.288000
v -0.000000 -0.928000 -0.288000
v 0.144000 -1.000000 -0.249415
v -0.000000 -1.000000 -0.288000
v 0.144000 -0.928000 -0.249415
v 0.000000 -0.928000 0.259200
v -0.144000 -0.928000 0.249415
v 0.000000 -0.928000 0.288000
v -0.129600 -0.928000 0.224474
v -0.144000 -0.928000 0.249415
v 0.000000 -0.928000 0.259200
v -0.000000 -0.928000 -0.288000
v -0.144000 -1.000000 -0.249415
v -0.144000 -0.928000 -0.249415
v -0.000000 -1.000000 -0.288000
v -0.144000 -1.000000 -0.249415
v -0.000000 -0.928000 -0.288000
v -0.000000 -0.352000 -0.288000
v -0.144000 -0.928000 -0.249415
v -0.144000 -0.352000 -0.249415
v -0.000000 -0.928000 -0.288000
v -0.144000 -0.928000 -0.249415
v -0.000000 -0.352000 -0.288000
v -0.144000 -0.928000 -0.249415
v -0.249415 -1.000000 -0.144000
v -0.249415 -0.928000 -0.144000
v -0.144000 -1.000000 -0.249415
v -0.249415 -1.000000 -0.144000
v -0.144000 -0.928000 -0.249415
v 0.259200 -0.352000 -0.000000
v 0.249415 -0.352000 -0.144000
v 0.288000 -0.352000 -0.000000
v 0.224474 -0.352000 -0.129600
v 0.249415 -0.352000 -0.144000
v 0.259200 -0.352000 -0.000000
v -0.249415 -0.928000 -0.144000
v -0.288000 -1.000000 -0.000000
v -0.288000 -0.928000 -0.000000
v -0.249415 -1.000000 -0.144000
v -0.288000 -1.000000 -0.000000
v -0.249415 -0.928000 -0.144000
v -0.249415 -0.352000 -0.144000
v -0.288000 -0.928000 -0.000000
v -0.288000 -0.352000 -0.000000
v -0.249415 -0.928000 -0.144000
v -0.288000 -0.928000 -0.000000
v -0.249415 -0.352000 -0.144000
v -0.288000 -0.928000 -0.000000
v -0.249415 -1.000000 0.144000
v -0.249415 -0.928000 0.144000
v -0.288000 -1.000000 -0.000000
v -0.249415 -1.000000 0.144000
v -0.288000 -0.928000 -0.000000
v 0.000000 -0.352000 0.259200
v 0.000000 -0.928000 0.288000
v 0.000000 -0.352000 0.288000
v 0.000000 -0.928000 0.259200
v 0.000000 -0.928000 0.288000
v 0.000000 -0.352000 0.259200
v -0.249415 -0.928000 0.144000
v -0.144000 -1.000000 0.249415
v -0.144000 -0.928000 0.249415
v -0.249415 -1.000000 0.144000
v -0.144000 -1.000000 0.249415
v -0.249415 -0.928000 0.144000
v -0.249415 -0.352000 0.144000
v -0.144000 -0.928000 0.249415
v -0.144000 -0.352000 0.249415
v -0.249415 -0.928000 0.144000
v -0.144000 -0.928000 0.249415
v -0.249415 -0.352000 0.144000
v -0.144000 -0.928000 0.249415
v 0.000000 -1.000000 0.288000
v 0.000000 -0.928000 0.288000
v -0.144000 -1.000000 0.249415
v 0.000000 -1.000000 0.288000
v -0.144000 -0.928000 0.249415
v -0.224474 -0.928000 -0.129600
v -0.144000 -0.928000 -0.249415
v -0.249415 -0.928000 -0.144000
v -0.129600 -0.928000 -0.224474
v -0.144000 -0.928000 -0.249415
v -0.224474 -0.928000 -0.129600
v 0.129600 -0.352000 0.224474
v 0.224474 -0.928000 0.129600
v 0.224474 -0.352000 0.129600
v 0.129600 -0.928000 0.224474
v 0.224474 -0.928000 0.129600
v 0.129600 -0.352000 0.224474
v 0.259200 -0.352000 -0.000000
v 0.224474 -0.928000 -0.129600
v 0.224474 -0.352000 -0.129600
v 0.259200 -0.928000 -0.000000
v 0.224474 -0.928000 -0.129600
v 0.259200 -0.352000 -0.000000
v 0.129600 -0.352000 -0.224474
v -0.000000 -0.928000 -0.259200
v -0.000000 -0.352000 -0.259200
v 0.129600 -0.928000 -0.224474
v -0.000000 -0.928000 -0.259200
v 0.129600 -0.352000 -0.224474
v -0.129600 -0.352000 -0.224474
v -0.224474 -0.928000 -0.129600
v -0.224474 -0.352000 -0.129600
v -0.129600 -0.928000 -0.224474
v -0.224474 -0.928000 -0.129600
v -0.129600 -0.352000 -0.224474
v -0.259200 -0.352000 -0.000000
v -0.224474 -0.928000 0.129600
v -0.224474 -0.352000 0.129600
v -0.259200 -0.928000 -0.000000
v -0.224474 -0.928000 0.129600
v -0.259200 -0.352000 -0.000000
v -0.129600 -0.352000 0.224474
v 0.000000 -0.928000 0.259200
v 0.000000 -0.352000 0.259200
v -0.129600 -0.928000 0.224474
v 0.000000 -0.928000 0.259200
v -0.129600 -0.352000 0.224474
v 0.224474 -0.352000 -0.129600
v 0.249415 -0.928000 -0.144000
v 0.249415 -0.352000 -0.144000
v 0.224474 -0.928000 -0.129600
v 0.249415 -0.928000 -0.144000
v 0.224474 -0.352000 -0.129600
v -0.129600 -0.352000 0.224474
v 0.000000 -0.352000 0.288000
v -0.144000 -0.352000 0.249415
v 0.000000 -0.352000 0.259200
v 0.000000 -0.352000 0.288000
v -0.129600 -0.352000 0.224474
v -0.129600 -0.928000 0.224474
v -0.144000 -0.352000 0.249415
v -0.144000 -0.928000 0.249415
v -0.129600 -0.352000 0.224474
v -0.144000 -0.352000 0.249415
v -0.129600 -0.928000 0.224474
v -0.129600 -0.928000 -0.224474
v -0.144000 -0.352000 -0.249415
v -0.144000 -0.928000 -0.249415
v -0.129600 -0.352000 -0.224474
v -0.144000 -0.352000 -0.249415
v -0.129600 -0.928000 -0.224474
v 0.224474 -0.928000 0.129600
v 0.144000 -0.928000 0.249415
v 0.249415 -0.928000 0.144000
v 0.129600 -0.928000 0.224474
v 0.144000 -0.928000 0.249415
v 0.224474 -0.928000 0.129600
v 0.259200 -0.928000 -0.000000
v 0.288000 -0.352000 -0.000000
v 0.288000 -0.928000 -0.000000
v 0.259200 -0.352000 -0.000000
v 0.288000 -0.352000 -0.000000
v 0.259200 -0.928000 -0.000000
v -0.000000 -0.928000 -0.259200
v 0.144000 -0.928000 -0.249415
v -0.000000 -0.928000 -0.288000
v 0.129600 -0.928000 -0.224474
v 0.144000 -0.928000 -0.249415
v -0.000000 -0.928000 -0.259200
v 0.129600 -0.352000 0.224474
v 0.249415 -0.352000 0.144000
v 0.144000 -0.352000 0.249415
v 0.224474 -0.352000 0.129600
v 0.249415 -0.352000 0.144000
v 0.129600 -0.352000 0.224474
v -0.224474 -0.928000 0.129600
v -0.288000 -0.928000 -0.000000
v -0.249415 -0.928000 0.144000
v -0.259200 -0.928000 -0.000000
v -0.288000 -0.928000 -0.000000
v -0.224474 -0.928000 0.129600
v -0.224474 -0.352000 0.129600
v -0.249415 -0.928000 0.144000
v -0.249415 -0.352000 0.144000
v -0.224474 -0.928000 0.129600
v -0.249415 -0.928000 0.144000
v -0.224474 -0.352000 0.129600
v 0.129600 -0.352000 -0.224474
v -0.000000 -0.352000 -0.288000
v 0.144000 -0.352000 -0.249415
v -0.000000 -0.352000 -0.259200
v -0.000000 -0.352000 -0.288000
v 0.129600 -0.352000 -0.224474
v -0.000000 -0.352000 -0.259200
v -0.000000 -0.928000 -0.288000
v -0.000000 -0.352000 -0.288000
v -0.000000 -0.928000 -0.259200
v -0.000000 -0.928000 -0.288000
v -0.000000 -0.352000 -0.259200
v -0.259200 -0.352000 -0.000000
v -0.249415 -0.352000 0.144000
v -0.288000 -0.352000 -0.000000
v -0.224474 -0.352000 0.129600
v -0.249415 -0.352000 0.144000
v -0.259200 -0.352000 -0.000000
v 0.224474 -0.352000 0.129600
v 0.249415 -0.928000 0.144000
v 0.249415 -0.352000 0.144000
v 0.224474 -0.928000 0.129600
v 0.249415 -0.928000 0.144000
v 0.224474 -0.352000 0.129600
v -0.259200 -0.928000 -0.000000
v -0.288000 -0.352000 -0.000000
v -0.288000 -0.928000 -0.000000
v -0.259200 -0.352000 -0.000000
v -0.288000 -0.352000 -0.000000
v -0.259200 -0.928000 -0.000000
v 0.129600 -0.928000 -0.224474
v 0.144000 -0.352000 -0.249415
v 0.144000 -0.928000 -0.249415
v 0.129600 -0.352000 -0.224474
v 0.144000 -0.352000 -0.249415
v 0.129600 -0.928000 -0.224474
v 0.224474 -0.928000 -0.129600
v 0.288000 -0.928000 -0.000000
v 0.249415 -0.928000 -0.144000
v 0.259200 -0.928000 -0.000000
v 0.288000 -0.928000 -0.000000
v 0.224474 -0.928000 -0.129600
v 0.129600 -0.928000 0.224474
v 0.144000 -0.352000 0.249415
v 0.144000 -0.928000 0.249415
v 0.129600 -0.352000 0.224474
v 0.144000 -0.352000 0.249415
v 0.129600 -0.928000 0.224474
v -0.202026 -0.928000 -0.116640
v -0.224474 -0.352000 -0.129600
v -0.224474 -0.928000 -0.129600
v -0.202026 -0.352000 -0.116640
v -0.224474 -0.352000 -0.129600
v -0.202026 -0.928000 -0.116640
v 0.116640 -0.928000 0.202026
v 0.129600 -0.352000 0.224474
v 0.129600 -0.928000 0.224474
v 0.116640 -0.352000 0.202026
v 0.129600 -0.352000 0.224474
v 0.116640 -0.928000 0.202026
v -0.116640 -0.928000 0.202026
v -0.129600 -0.352000 0.224474
v -0.129600 -0.928000 0.224474
v -0.116640 -0.352000 0.202026
v -0.129600 -0.352000 0.224474
v -0.116640 -0.928000 0.202026
v 0.202026 -0.352000 -0.116640
v 0.224474 -0.928000 -0.129600
v 0.224474 -0.352000 -0.129600
v 0.202026 -0.928000 -0.116640
v 0.224474 -0.928000 -0.129600
v 0.202026 -0.352000 -0.116640
v -0.116640 -0.928000 -0.202026
v -0.129600 -0.352000 -0.224474
v -0.129600 -0.928000 -0.224474
v -0.116640 -0.352000 -0.202026
v -0.129600 -0.352000 -0.224474
v -0.116640 -0.928000 -0.202026
v -0.202026 -0.352000 0.116640
v -0.224474 -0.928000 0.129600
v -0.224474 -0.352000 0.129600
v -0.202026 -0.928000 0.116640
v -0.224474 -0.928000 0.129600
v -0.202026 -0.352000 0.116640
v 0.233280 -0.928000 -0.000000
v 0.259200 -0.352000 -0.000000
v 0.259200 -0.928000 -0.000000
v 0.233280 -0.352000 -0.000000
v 0.259200 -0.352000 -0.000000
v 0.233280 -0.928000 -0.000000
v -0.000000 -0.352000 -0.233280
v -0.000000 -0.928000 -0.259200
v -0.000000 -0.352000 -0.259200
v -0.000000 -0.928000 -0.233280
v -0.000000 -0.928000 -0.259200
v -0.000000 -0.352000 -0.233280
v -0.233280 -0.928000 -0.000000
v -0.259200 -0.352000 -0.000000
v -0.259200 -0.928000 -0.000000
v -0.233280 -0.352000 -0.000000
v -0.259200 -0.352000 -0.000000
v -0.233280 -0.928000 -0.000000
v 0.202026 -0.352000 0.116640
v 0.224474 -0.928000 0.129600
v 0.224474 -0.352000 0.129600
v 0.202026 -0.928000 0.116640
v 0.224474 -0.928000 0.129600
v 0.202026 -0.352000 0.116640
v 0.000000 -0.928000 0.233280
v 0.000000 -0.352000 0.259200
v 0.000000 -0.928000 0.259200
v 0.000000 -0.352000 0.233280
v 0.000000 -0.352000 0.259200
v 0.000000 -0.928000 0.233280
v 0.116640 -0.928000 -0.202026
v 0.129600 -0.352000 -0.224474
v 0.129600 -0.928000 -0.224474
v 0.116640 -0.352000 -0.202026
v 0.129600 -0.352000 -0.224474
v 0.116640 -0.928000 -0.202026
v -0.000000 -0.352000 -0.233280
v -0.116640 -0.928000 -0.202026
v -0.000000 -0.928000 -0.233280
v -0.116640 -0.352000 -0.202026
v -0.116640 -0.928000 -0.202026
v -0.000000 -0.352000 -0.233280
v 0.202026 -0.352000 -0.116640
v 0.116640 -0.928000 -0.202026
v 0.202026 -0.928000 -0.116640
v 0.116640 -0.352000 -0.202026
v 0.116640 -0.928000 -0.202026
v 0.202026 -0.352000 -0.116640
v 0.202026 -0.352000 0.116640
v 0.233280 -0.928000 -0.000000
v 0.202026 -0.928000 0.116640
v 0.233280 -0.352000 -0.000000
v 0.233280 -0.928000 -0.000000
v 0.202026 -0.352000 0.116640
v 0.116640 -0.352000 0.202026
v 0.000000 -0.928000 0.233280
v 0.116640 -0.928000 0.202026
v 0.000000 -0.352000 0.233280
v 0.000000 -0.928000 0.233280
v 0.116640 -0.352000 0.202026
v -0.202026 -0.352000 0.116640
v -0.116640 -0.928000 0.202026
v -0.202026 -0.928000 0.116640
v -0.116640 -0.352000 0.202026
v -0.116640 -0.928000 0.202026
v -0.202026 -0.352000 0.116640
v -0.202026 -0.352000 -0.116640
v -0.233280 -0.928000 -0.000000
v -0.202026 -0.928000 -0.116640
v -0.233280 -0.352000 -0.000000
v -0.233280 -0.928000 -0.000000
v -0.202026 -0.352000 -0.116640
v -0.115426 -0.208000 -0.199924
v -0.000000 -0.208000 -0.288000
v -0.144000 -0.208000 -0.249415
v -0.000000 -0.208000 -0.230853
v -0.000000 -0.208000 -0.288000
v -0.115426 -0.208000 -0.199924
v -0.199924 -0.208000 -0.115426
v -0.144000 -0.208000 -0.249415
v -0.249415 -0.208000 -0.144000
v -0.115426 -0.208000 -0.199924
v -0.144000 -0.208000 -0.249415
v -0.199924 -0.208000 -0.115426
v -0.230853 -0.208000 -0.000000
v -0.249415 -0.208000 -0.144000
v -0.288000 -0.208000 -0.000000
v -0.199924 -0.208000 -0.115426
v -0.249415 -0.208000 -0.144000
v -0.230853 -0.208000 -0.000000
v 0.115427 -0.208000 0.199924
v 0.000000 -0.208000 0.288000
v 0.144000 -0.208000 0.249415
v 0.000000 -0.208000 0.230853
v 0.000000 -0.208000 0.288000
v 0.115427 -0.208000 0.199924
v 0.000000 -0.208000 0.230853
v -0.144000 -0.208000 0.249415
v 0.000000 -0.208000 0.288000
v -0.115426 -0.208000 0.199924
v -0.144000 -0.208000 0.249415
v 0.000000 -0.208000 0.230853
v -0.199924 -0.208000 0.115426
v -0.288000 -0.208000 -0.000000
v -0.249415 -0.208000 0.144000
v -0.230853 -0.208000 -0.000000
v -0.288000 -0.208000 -0.000000
v -0.199924 -0.208000 0.115426
v 0.199924 -0.208000 0.115426
v 0.144000 -0.208000 0.249415
v 0.249415 -0.208000 0.144000
v 0.115427 -0.208000 0.199924
v 0.144000 -0.208000 0.249415
v 0.199924 -0.208000 0.115426
v -0.115426 -0.208000 0.199924
v -0.249415 -0.208000 0.144000
v -0.144000 -0.208000 0.249415
v -0.199924 -0.208000 0.115426
v -0.249415 -0.208000 0.144000
v -0.115426 -0.208000 0.199924
v 0.230853 -0.208000 -0.000000
v 0.249415 -0.208000 0.144000
v 0.288000 -0.208000 -0.000000
v 0.199924 -0.208000 0.115426
v 0.249415 -0.208000 0.144000
v 0.230853 -0.208000 -0.000000
v 0.199924 -0.208000 -0.115426
v 0.288000 -0.208000 -0.000000
v 0.249415 -0.208000 -0.144000
v 0.230853 -0.208000 -0.000000
v 0.288000 -0.208000 -0.000000
v 0.199924 -0.208000 -0.115426
v 0.115426 -0.208000 -0.199924
v 0.249415 -0.208000 -0.144000
v 0.144000 -0.208000 -0.249415
v 0.199924 -0.208000 -0.115426
v 0.249415 -0.208000 -0.144000
v 0.115426 -0.208000 -0.199924
v -0.000000 -0.208000 -0.230853
v 0.144000 -0.208000 -0.249415
v -0.000000 -0.208000 -0.288000
v 0.115426 -0.208000 -0.199924
v 0.144000 -0.208000 -0.249415
v -0.000000 -0.208000 -0.230853
v 0.199924 -0.208000 -0.115426
v 0.116640 -0.352000 -0.202026
v 0.202026 -0.352000 -0.116640
v 0.115426 -0.208000 -0.199924
v 0.116640 -0.352000 -0.202026
v 0.199924 -0.208000 -0.115426
v 0.199924 -0.208000 0.115426
v 0.233280 -0.352000 -0.000000
v 0.202026 -0.352000 0.116640
v 0.230853 -0.208000 -0.000000
v 0.233280 -0.352000 -0.000000
v 0.199924 -0.208000 0.115426
v 0.202026 -0.352000 -0.116640
v 0.230853 -0.208000 -0.000000
v 0.199924 -0.208000 -0.115426
v 0.233280 -0.352000 -0.000000
v 0.230853 -0.208000 -0.000000
v 0.202026 -0.352000 -0.116640
v 0.000000 -0.208000 0.230853
v 0.116640 -0.352000 0.202026
v 0.115427 -0.208000 0.199924
v 0.000000 -0.352000 0.233280
v 0.116640 -0.352000 0.202026
v 0.000000 -0.208000 0.230853
v -0.199924 -0.208000 0.115426
v -0.116640 -0.352000 0.202026
v -0.202026 -0.352000 0.116640
v -0.115426 -0.208000 0.199924
v -0.116640 -0.352000 0.202026
v -0.199924 -0.208000 0.115426
v -0.199924 -0.208000 -0.115426
v -0.233280 -0.352000 -0.000000
v -0.202026 -0.352000 -0.116640
v -0.230853 -0.208000 -0.000000
v -0.233280 -0.352000 -0.000000
v -0.199924 -0.208000 -0.115426
v -0.202026 -0.352000 0.116640
v -0.230853 -0.208000 -0.000000
v -0.199924 -0.208000 0.115426
v -0.233280 -0.352000 -0.000000
v -0.230853 -0.208000 -0.000000
v -0.202026 -0.352000 0.116640
v 0.000000 -0.352000 0.233280
v -0.115426 -0.208000 0.199924
v 0.000000 -0.208000 0.230853
v -0.116640 -0.352000 0.202026
v -0.115426 -0.208000 0.199924
v 0.000000 -0.352000 0.233280
v 0.202026 -0.352000 0.116640
v 0.115427 -0.208000 0.199924
v 0.199924 -0.208000 0.115426
v 0.116640 -0.352000 0.202026
v 0.115427 -0.208000 0.199924
v 0.202026 -0.352000 0.116640
v -0.000000 -0.208000 -0.230853
v -0.116640 -0.352000 -0.202026
v -0.000000 -0.352000 -0.233280
v -0.115426 -0.208000 -0.199924
v -0.116640 -0.352000 -0.202026
v -0.000000 -0.208000 -0.230853
v -0.202026 -0.352000 -0.116640
v -0.115426 -0.208000 -0.199924
v -0.199924 -0.208000 -0.115426
v -0.116640 -0.352000 -0.202026
v -0.115426 -0.208000 -0.199924
v -0.202026 -0.352000 -0.116640
v 0.116640 -0.352000 -0.202026
v -0.000000 -0.208000 -0.230853
v -0.000000 -0.352000 -0.233280
v 0.115426 -0.208000 -0.199924
v -0.000000 -0.208000 -0.230853
v 0.116640 -0.352000 -0.202026
v -0.233280 -0.928000 -0.000000
v 0.116640 -0.928000 -0.202026
v -0.202026 -0.928000 -0.116640
v 0.202026 -0.928000 0.116640
v 0.129600 -0.928000 0.224474
v 0.224474 -0.928000 0.129600
v 0.224474 -0.928000 -0.129600
v 0.233280 -0.928000 -0.000000
v 0.259200 -0.928000 -0.000000
v 0.116640 -0.928000 0.202026
v 0.129600 -0.928000 0.224474
v 0.202026 -0.928000 0.116640
v 0.116640 -0.928000 0.202026
v 0.202026 -0.928000 0.116640
v 0.233280 -0.928000 -0.000000
v 0.202026 -0.928000 -0.116640
v 0.233280 -0.928000 -0.000000
v 0.224474 -0.928000 -0.129600
v -0.000000 -0.928000 -0.259200
v 0.116640 -0.928000 -0.202026
v 0.129600 -0.928000 -0.224474
v 0.116640 -0.928000 -0.202026
v 0.233280 -0.928000 -0.000000
v 0.202026 -0.928000 -0.116640
v 0.233280 -0.928000 -0.000000
v 0.000000 -0.928000 0.233280
v 0.116640 -0.928000 0.202026
v 0.000000 -0.928000 0.233280
v -0.129600 -0.928000 0.224474
v 0.000000 -0.928000 0.259200
v 0.000000 -0.928000 0.233280
v -0.116640 -0.928000 0.202026
v -0.129600 -0.928000 0.224474
v -0.116640 -0.928000 0.202026
v 0.000000 -0.928000 0.233280
v 0.233280 -0.928000 -0.000000
v -0.116640 -0.928000 0.202026
v 0.233280 -0.928000 -0.000000
v 0.116640 -0.928000 -0.202026
v -0.000000 -0.928000 -0.233280
v 0.116640 -0.928000 -0.202026
v -0.000000 -0.928000 -0.259200
v -0.224474 -0.928000 -0.129600
v -0.116640 -0.928000 -0.202026
v -0.129600 -0.928000 -0.224474
v -0.116640 -0.928000 -0.202026
v 0.116640 -0.928000 -0.202026
v -0.000000 -0.928000 -0.233280
v -0.202026 -0.928000 0.116640
v -0.259200 -0.928000 -0.000000
v -0.224474 -0.928000 0.129600
v -0.233280 -0.928000 -0.000000
v -0.202026 -0.928000 0.116640
v -0.116640 -0.928000 0.202026
v -0.233280 -0.928000 -0.000000
v -0.116640 -0.928000 0.202026
v 0.116640 -0.928000 -0.202026
v -0.202026 -0.928000 -0.116640
v 0.116640 -0.928000 -0.202026
v -0.116640 -0.928000 -0.202026
v -0.202026 -0.928000 -0.116640
v -0.116640 -0.928000 -0.202026
v -0.224474 -0.928000 -0.129600
v -0.202026 -0.928000 0.116640
v -0.233280 -0.928000 -0.000000
v -0.259200 -0.928000 -0.000000
v -0.144000 -1.000000 0.249415
v 0.144000 -1.000000 0.249415
v 0.000000 -1.000000 0.288000
v -0.288000 -1.000000 -0.000000
v -0.144000 -1.000000 0.249415
v -0.249415 -1.000000 0.144000
v -0.144000 -1.000000 -0.249415
v -0.288000 -1.000000 -0.000000
v -0.249415 -1.000000 -0.144000
v -0.288000 -1.000000 -0.000000
v -0.144000 -1.000000 -0.249415
v -0.000000 -1.000000 -0.288000
v -0.288000 -1.000000 -0.000000
v -0.000000 -1.000000 -0.288000
v 0.144000 -1.000000 -0.249415
v 0.288000 -1.000000 -0.000000
v 0.144000 -1.000000 -0.249415
v 0.249415 -1.000000 -0.144000
v 0.144000 -1.000000 0.249415
v 0.288000 -1.000000 -0.000000
v 0.249415 -1.000000 0.144000
v -0.288000 -1.000000 -0.000000
v 0.144000 -1.000000 0.249415
v -0.144000 -1.000000 0.249415
v 0.144000 -1.000000 0.249415
v 0.144000 -1.000000 -0.249415
v 0.288000 -1.000000 -0.000000
v -0.116640 -0.352000 0.202026
v 0.000000 -0.352000 0.259200
v -0.129600 -0.352000 0.224474
v 0.000000 -0.352000 0.233280
v 0.000000 -0.352000 0.259200
v -0.116640 -0.352000 0.202026
v -0.233280 -0.352000 -0.000000
v -0.224474 -0.352000 0.129600
v -0.259200 -0.352000 -0.000000
v -0.202026 -0.352000 0.116640
v -0.224474 -0.352000 0.129600
v -0.233280 -0.352000 -0.000000
v -0.202026 -0.352000 -0.116640
v -0.129600 -0.352000 -0.224474
v -0.224474 -0.352000 -0.129600
v -0.116640 -0.352000 -0.202026
v -0.129600 -0.352000 -0.224474
v -0.202026 -0.352000 -0.116640
v 0.116640 -0.352000 -0.202026
v -0.000000 -0.352000 -0.259200
v 0.129600 -0.352000 -0.224474
v -0.000000 -0.352000 -0.233280
v -0.000000 -0.352000 -0.259200
v 0.116640 -0.352000 -0.202026
v 0.233280 -0.352000 -0.000000
v 0.224474 -0.352000 -0.129600
v 0.259200 -0.352000 -0.000000
v 0.202026 -0.352000 -0.116640
v 0.224474 -0.352000 -0.129600
v 0.233280 -0.352000 -0.000000
v 0.116640 -0.352000 0.202026
v 0.224474 -0.352000 0.129600
v 0.129600 -0.352000 0.224474
v 0.202026 -0.352000 0.116640
v 0.224474 -0.352000 0.129600
v 0.116640 -0.352000 0.202026

vt 0.677141 0.796025
vt 0.677141 0.741216
vt 0.730082 0.796025
vt 0.677141 0.741216
vt 0.730082 0.741216
vt 0.730082 0.796025
vt 0.595660 0.727747
vt 0.540851 0.727747
vt 0.595660 0.674806
vt 0.540851 0.727747
vt 0.540851 0.674807
vt 0.595660 0.674807
vt 0.666007 0.659735
vt 0.611198 0.659735
vt 0.666007 0.606794
vt 0.611198 0.659735
vt 0.611198 0.606794
vt 0.666007 0.606794
vt 0.696971 0.126073
vt 0.696971 0.071265
vt 0.749912 0.126073
vt 0.696971 0.071265
vt 0.749912 0.071265
vt 0.749912 0.126073
vt 0.144059 0.857450
vt 0.144059 0.802641
vt 0.197000 0.857450
vt 0.144059 0.802641
vt 0.197000 0.802641
vt 0.197000 0.857449
vt 0.749558 0.807159
vt 0.804366 0.807159
vt 0.749557 0.860100
vt 0.804366 0.807159
vt 0.804366 0.860100
vt 0.749557 0.860100
vt 0.007769 0.868584
vt 0.062578 0.868584
vt 0.007769 0.921525
vt 0.062578 0.868584
vt 0.062578 0.921525
vt 0.007769 0.921525
vt 0.540851 0.739146
vt 0.595660 0.739146
vt 0.540851 0.792087
vt 0.595660 0.739146
vt 0.595660 0.792087
vt 0.540851 0.792087
vt 0.799849 0.027928
vt 0.745041 0.027928
vt 0.799849 -0.025013
vt 0.745041 0.027928
vt 0.745041 -0.025013
vt 0.799849 -0.025013
vt 0.747488 0.796025
vt 0.747488 0.741216
vt 0.800429 0.796025
vt 0.747488 0.741216
vt 0.800429 0.741216
vt 0.800429 0.796025
vt 0.679475 0.324948
vt 0.679475 0.270140
vt 0.732416 0.324948
vt 0.679475 0.270140
vt 0.732416 0.270140
vt 0.732416 0.324948
vt 0.560681 0.137208
vt 0.615490 0.137208
vt 0.560681 0.190149
vt 0.615490 0.137208
vt 0.615490 0.190149
vt 0.560681 0.190149
vt 0.186212 0.207235
vt 0.027389 0.115539
vt 0.186212 0.023842
vt 0.701164 0.270140
vt 0.701164 0.324948
vt 0.674694 0.270140
vt 0.701164 0.324948
vt 0.674694 0.324948
vt 0.674694 0.270140
vt 0.208134 0.075366
vt 0.262943 0.075366
vt 0.208134 0.340071
vt 0.262943 0.075366
vt 0.262943 0.340071
vt 0.208134 0.340071
vt 0.262678 0.864376
vt 0.262678 0.919185
vt 0.236207 0.864376
vt 0.262678 0.919185
vt 0.236207 0.919185
vt 0.236207 0.864376
vt 0.111454 0.872988
vt 0.121681 0.875728
vt 0.111454 0.927796
vt 0.121681 0.875728
vt 0.121681 0.925056
vt 0.111454 0.927796
vt 0.227753 0.864376
vt 0.227753 0.919185
vt 0.201283 0.864376
vt 0.227753 0.919185
vt 0.201283 0.919185
vt 0.201283 0.864376
vt 0.611198 0.408084
vt 0.666007 0.408084
vt 0.611198 0.672788
vt 0.666007 0.408084
vt 0.666007 0.672788
vt 0.611198 0.672788
vt 0.297602 0.864376
vt 0.297602 0.919185
vt 0.271132 0.864376
vt 0.297602 0.919185
vt 0.271132 0.919185
vt 0.271132 0.864376
vt 0.960187 0.590070
vt 0.949599 0.590070
vt 0.960187 0.325363
vt 0.949599 0.590070
vt 0.949600 0.325363
vt 0.960188 0.325363
vt 0.883175 0.083188
vt 0.883175 0.028380
vt 0.909646 0.083188
vt 0.883175 0.028380
vt 0.909646 0.028380
vt 0.909646 0.083188
vt 0.595660 0.590068
vt 0.540851 0.590068
vt 0.595660 0.325363
vt 0.540851 0.590068
vt 0.540851 0.325363
vt 0.595660 0.325363
vt 0.348828 0.302350
vt 0.403636 0.302350
vt 0.348828 0.328821
vt 0.403636 0.302350
vt 0.403636 0.328821
vt 0.348828 0.328821
vt 0.613976 0.866558
vt 0.624204 0.869299
vt 0.613976 0.921367
vt 0.624204 0.869299
vt 0.624204 0.918626
vt 0.613976 0.921367
vt 0.871089 0.317665
vt 0.871089 0.262857
vt 0.897559 0.317665
vt 0.871089 0.262857
vt 0.897559 0.262857
vt 0.897559 0.317665
vt 0.078116 0.306444
vt 0.132925 0.306444
vt 0.078116 0.571148
vt 0.132925 0.306444
vt 0.132925 0.571148
vt 0.078116 0.571148
vt 0.278481 0.302350
vt 0.333290 0.302350
vt 0.278481 0.328821
vt 0.333290 0.302350
vt 0.333290 0.328821
vt 0.278481 0.328821
vt 0.688825 0.923701
vt 0.678598 0.920961
vt 0.688825 0.868893
vt 0.678598 0.920961
vt 0.678598 0.871633
vt 0.688825 0.868893
vt 0.367451 0.864376
vt 0.367451 0.919185
vt 0.340980 0.864376
vt 0.367451 0.919185
vt 0.340980 0.919185
vt 0.340980 0.864376
vt 0.062578 0.488428
vt 0.007769 0.488428
vt 0.062578 0.223723
vt 0.007769 0.488428
vt 0.007769 0.223723
vt 0.062578 0.223723
vt 0.332526 0.864376
vt 0.332527 0.919185
vt 0.306056 0.864376
vt 0.332527 0.919185
vt 0.306056 0.919185
vt 0.306056 0.864376
vt 0.899901 0.590070
vt 0.889313 0.590070
vt 0.899901 0.325363
vt 0.889313 0.590070
vt 0.889313 0.325363
vt 0.899901 0.325363
vt 0.856017 0.262857
vt 0.856017 0.317665
vt 0.829547 0.262857
vt 0.856017 0.317665
vt 0.829547 0.317665
vt 0.829547 0.262857
vt 0.457716 0.340486
vt 0.457716 0.395295
vt 0.193011 0.340486
vt 0.457716 0.395295
vt 0.193011 0.395295
vt 0.193011 0.340486
vt 0.505694 0.864037
vt 0.505694 0.809229
vt 0.532164 0.864037
vt 0.505694 0.809229
vt 0.532164 0.809228
vt 0.532164 0.864037
vt 0.674204 0.923701
vt 0.663977 0.920961
vt 0.674205 0.868893
vt 0.663977 0.920961
vt 0.663977 0.871633
vt 0.674205 0.868893
vt 0.721078 0.243912
vt 0.721078 0.194584
vt 0.985783 0.243912
vt 0.721078 0.194584
vt 0.985783 0.194584
vt 0.985783 0.243912
vt 0.270945 0.729426
vt 0.320272 0.729426
vt 0.270945 0.994131
vt 0.320272 0.729426
vt 0.320272 0.994131
vt 0.270945 0.994131
vt 0.680860 0.095584
vt 0.730188 0.095584
vt 0.680860 0.360288
vt 0.730188 0.095584
vt 0.730188 0.360288
vt 0.680860 0.360288
vt 0.383768 0.911411
vt 0.334441 0.911411
vt 0.383768 0.646706
vt 0.334441 0.911411
vt 0.334441 0.646706
vt 0.383768 0.646706
vt 0.207449 0.729426
vt 0.256777 0.729426
vt 0.207449 0.994131
vt 0.256777 0.729426
vt 0.256777 0.994131
vt 0.207449 0.994131
vt 0.275731 0.646976
vt 0.275731 0.597648
vt 0.540436 0.646976
vt 0.275731 0.597648
vt 0.540436 0.597648
vt 0.540436 0.646976
vt 0.914972 0.590070
vt 0.904384 0.590070
vt 0.914972 0.325363
vt 0.904385 0.590070
vt 0.904385 0.325363
vt 0.914973 0.325363
vt 0.659584 0.923701
vt 0.649357 0.920961
vt 0.659584 0.868893
vt 0.649357 0.920961
vt 0.649357 0.871633
vt 0.659584 0.868893
vt 0.129559 0.903868
vt 0.118971 0.903868
vt 0.129559 0.639161
vt 0.118971 0.903868
vt 0.118971 0.639161
vt 0.129559 0.639161
vt 0.854686 0.672791
vt 0.844098 0.672790
vt 0.854686 0.408084
vt 0.844098 0.672790
vt 0.844098 0.408084
vt 0.854686 0.408084
vt 0.741798 0.868893
vt 0.752026 0.871633
vt 0.741798 0.923701
vt 0.752026 0.871633
vt 0.752026 0.920961
vt 0.741798 0.923701
vt 0.493195 0.806633
vt 0.482607 0.806633
vt 0.493195 0.541927
vt 0.482607 0.806633
vt 0.482607 0.541927
vt 0.493196 0.541927
vt 0.031995 0.925462
vt 0.021768 0.922721
vt 0.031995 0.870653
vt 0.021768 0.922722
vt 0.021768 0.873394
vt 0.031995 0.870653
vt 0.058481 0.927796
vt 0.048253 0.925056
vt 0.058481 0.872988
vt 0.048253 0.925056
vt 0.048253 0.875728
vt 0.058481 0.872988
vt -0.011866 0.925462
vt -0.022094 0.922721
vt -0.011866 0.870653
vt -0.022094 0.922721
vt -0.022094 0.873394
vt -0.011866 0.870653
vt 0.945115 0.590070
vt 0.934527 0.590070
vt 0.945115 0.325363
vt 0.934528 0.590070
vt 0.934528 0.325363
vt 0.945116 0.325363
vt 0.041107 0.870653
vt 0.051335 0.873394
vt 0.041107 0.925462
vt 0.051334 0.873394
vt 0.051334 0.922722
vt 0.041107 0.925462
vt 0.346079 0.267426
vt 0.346079 0.256837
vt 0.610785 0.267425
vt 0.346079 0.256838
vt 0.610785 0.256838
vt 0.610785 0.267426
vt 0.055728 0.870653
vt 0.065955 0.873394
vt 0.055728 0.925462
vt 0.065955 0.873394
vt 0.065955 0.922721
vt 0.055728 0.925462
vt 0.930044 0.590070
vt 0.919456 0.590070
vt 0.930044 0.325363
vt 0.919456 0.590070
vt 0.919457 0.325363
vt 0.930044 0.325363
vt 0.839614 0.672790
vt 0.829026 0.672790
vt 0.839614 0.408084
vt 0.829027 0.672791
vt 0.829027 0.408084
vt 0.839615 0.408084
vt 0.884829 0.672791
vt 0.874241 0.672791
vt 0.884829 0.408084
vt 0.874241 0.672790
vt 0.874242 0.408084
vt 0.884830 0.408084
vt 0.937051 0.028380
vt 0.947278 0.031120
vt 0.937051 0.083188
vt 0.947278 0.031120
vt 0.947278 0.080448
vt 0.937051 0.083188
vt 0.869757 0.672790
vt 0.859169 0.672790
vt 0.869758 0.408084
vt 0.859170 0.672790
vt 0.859170 0.408084
vt 0.869758 0.408084
vt 0.886153 1.005508
vt 0.876623 1.005508
vt 0.886153 0.740803
vt 0.876623 1.005508
vt 0.876624 0.740803
vt 0.886153 0.740803
vt 0.813442 1.005506
vt 0.803913 1.005506
vt 0.813442 0.740801
vt 0.803913 1.005506
vt 0.803913 0.740801
vt 0.813442 0.740801
vt 0.856010 1.005508
vt 0.846480 1.005508
vt 0.856009 0.740803
vt 0.846480 1.005508
vt 0.846480 0.740803
vt 0.856010 0.740803
vt 0.936960 0.740803
vt 0.946489 0.740803
vt 0.936960 1.005508
vt 0.946489 0.740803
vt 0.946489 1.005508
vt 0.936959 1.005508
vt 0.916296 1.005508
vt 0.906767 1.005508
vt 0.916296 0.740803
vt 0.906767 1.005508
vt 0.906767 0.740803
vt 0.916296 0.740803
vt 0.931367 0.922788
vt 0.921838 0.922788
vt 0.931368 0.658083
vt 0.921838 0.922788
vt 0.921838 0.658083
vt 0.931368 0.658083
vt 0.946439 1.005508
vt 0.936910 1.005508
vt 0.946439 0.740803
vt 0.936910 1.005508
vt 0.936910 0.740803
vt 0.946439 0.740803
vt 0.997246 0.740803
vt 1.006775 0.740803
vt 0.997246 1.005508
vt 1.006775 0.740803
vt 1.006775 1.005508
vt 0.997246 1.005508
vt 0.842262 1.005508
vt 0.832732 1.005508
vt 0.842262 0.740803
vt 0.832732 1.005508
vt 0.832732 0.740803
vt 0.842262 0.740803
vt 0.862925 0.740801
vt 0.872455 0.740801
vt 0.862925 1.005506
vt 0.872454 0.740801
vt 0.872454 1.005506
vt 0.862925 1.005506
vt 0.871081 1.005508
vt 0.861552 1.005508
vt 0.871081 0.740803
vt 0.861552 1.005508
vt 0.861552 0.740803
vt 0.871081 0.740803
vt 1.010994 0.658083
vt 1.020523 0.658082
vt 1.010994 0.922788
vt 1.020523 0.658083
vt 1.020523 0.922788
vt 1.010994 0.922788
vt 0.397320 0.806631
vt 0.397320 0.541926
vt 0.441715 0.806631
vt 0.397320 0.541926
vt 0.441715 0.541926
vt 0.441715 0.806631
vt 0.454650 0.806631
vt 0.454650 0.541926
vt 0.499045 0.806631
vt 0.454650 0.541926
vt 0.499045 0.541926
vt 0.499045 0.806631
vt 0.845464 0.325363
vt 0.845464 0.590068
vt 0.801069 0.325363
vt 0.845464 0.590068
vt 0.801069 0.590068
vt 0.801069 0.325363
vt 0.147161 0.571149
vt 0.147161 0.306444
vt 0.191556 0.571149
vt 0.147161 0.306444
vt 0.191556 0.306444
vt 0.191556 0.571149
vt 0.743739 0.672789
vt 0.743739 0.408084
vt 0.788134 0.672789
vt 0.743739 0.408084
vt 0.788134 0.408084
vt 0.788134 0.672789
vt 0.705462 0.223400
vt 0.440757 0.223400
vt 0.705462 0.179005
vt 0.440757 0.223400
vt 0.440757 0.179005
vt 0.705462 0.179005
vt 0.796913 0.921367
vt 0.776619 0.915929
vt 0.796913 0.866558
vt 0.776619 0.915929
vt 0.776619 0.871996
vt 0.796913 0.866558
vt 0.631350 0.923701
vt 0.611056 0.918263
vt 0.631350 0.868893
vt 0.611056 0.918263
vt 0.611056 0.874330
vt 0.631350 0.868893
vt 0.769709 0.921367
vt 0.749415 0.915929
vt 0.769709 0.866558
vt 0.749415 0.915929
vt 0.749415 0.871996
vt 0.769709 0.866558
vt 0.735187 0.270139
vt 0.755481 0.275577
vt 0.735187 0.324948
vt 0.755481 0.275577
vt 0.755481 0.319510
vt 0.735187 0.324948
vt 0.586773 0.866558
vt 0.607067 0.871996
vt 0.586773 0.921367
vt 0.607067 0.871996
vt 0.607067 0.915929
vt 0.586773 0.921367
vt 0.375704 0.919185
vt 0.355410 0.913747
vt 0.375704 0.864376
vt 0.355410 0.913747
vt 0.355410 0.869814
vt 0.375704 0.864376
vt 0.430915 0.864376
vt 0.451209 0.869814
vt 0.430915 0.919185
vt 0.451209 0.869814
vt 0.451209 0.913747
vt 0.430915 0.919185
vt 0.899194 0.317665
vt 0.878900 0.312227
vt 0.899194 0.262857
vt 0.878900 0.312227
vt 0.878900 0.268294
vt 0.899194 0.262857
vt 0.742505 0.921367
vt 0.722211 0.915929
vt 0.742505 0.866558
vt 0.722211 0.915929
vt 0.722211 0.871996
vt 0.742506 0.866558
vt 0.559569 0.866558
vt 0.579863 0.871996
vt 0.559569 0.921367
vt 0.579863 0.871996
vt 0.579863 0.915929
vt 0.559569 0.921367
vt 0.604146 0.923701
vt 0.583852 0.918264
vt 0.604146 0.868893
vt 0.583852 0.918263
vt 0.583852 0.874331
vt 0.604146 0.868893
vt 0.471732 0.864376
vt 0.492026 0.869814
vt 0.471732 0.919185
vt 0.492026 0.869814
vt 0.492026 0.913747
vt 0.471732 0.919185
vt 0.683493 0.807927
vt 0.736441 0.808158
vt 0.683493 0.852322
vt 0.736441 0.808158
vt 0.736441 0.852091
vt 0.683493 0.852322
vt 0.933935 0.084490
vt 0.880987 0.084259
vt 0.933935 0.040095
vt 0.880987 0.084259
vt 0.880987 0.040326
vt 0.933935 0.040095
vt 0.527735 0.852091
vt 0.474787 0.852322
vt 0.527735 0.808158
vt 0.474787 0.852322
vt 0.474787 0.807927
vt 0.527735 0.808158
vt 0.676798 0.050631
vt 0.676798 0.006698
vt 0.729746 0.050862
vt 0.676798 0.006698
vt 0.729746 0.006467
vt 0.729746 0.050862
vt 0.800092 0.726979
vt 0.747145 0.726748
vt 0.800092 0.682585
vt 0.747144 0.726748
vt 0.747144 0.682815
vt 0.800092 0.682584
vt 0.210091 0.805745
vt 0.263039 0.805976
vt 0.210091 0.850140
vt 0.263039 0.805976
vt 0.263039 0.849909
vt 0.210091 0.850140
vt 0.195017 0.849909
vt 0.142069 0.850140
vt 0.195017 0.805976
vt 0.142069 0.850140
vt 0.142069 0.805745
vt 0.195017 0.805976
vt 0.815166 0.682815
vt 0.868114 0.682585
vt 0.815166 0.726748
vt 0.868114 0.682585
vt 0.868114 0.726979
vt 0.815166 0.726748
vt 0.744819 0.810492
vt 0.797767 0.810261
vt 0.744819 0.854425
vt 0.797767 0.810261
vt 0.797767 0.854656
vt 0.744819 0.854425
vt 0.530745 0.850140
vt 0.477797 0.849909
vt 0.530745 0.805745
vt 0.477797 0.849909
vt 0.477797 0.805976
vt 0.530745 0.805745
vt 0.676798 0.810492
vt 0.729746 0.810261
vt 0.676798 0.854425
vt 0.729746 0.810261
vt 0.729746 0.854656
vt 0.676798 0.854425
vt 0.462724 0.805745
vt 0.462724 0.850140
vt 0.409776 0.805976
vt 0.462724 0.850140
vt 0.409776 0.849909
vt 0.409776 0.805976
vt 0.807039 0.152519
vt 0.838431 0.121127
vt 0.838431 0.269675
vt 0.914597 0.077022
vt 0.905392 0.074556
vt 0.914597 0.027695
vt 0.146578 0.892531
vt 0.146360 0.941917
vt 0.137155 0.895055
vt 0.134638 0.955674
vt 0.126081 0.912112
vt 0.134638 0.907918
vt 0.976979 0.222320
vt 0.976979 0.308084
vt 0.965489 0.265202
vt 0.949551 0.213300
vt 0.940994 0.209106
vt 0.949551 0.165544
vt 0.500912 0.878890
vt 0.500912 0.928218
vt 0.491708 0.881357
vt 0.965489 0.156161
vt 0.976979 0.113279
vt 0.976979 0.199043
vt 0.850257 0.200561
vt 0.872454 0.117719
vt 0.872454 0.239008
vt 0.115684 0.921630
vt 0.106480 0.919164
vt 0.115684 0.872303
vt 0.928749 0.032014
vt 0.928749 0.079771
vt 0.920192 0.036208
vt 0.207826 0.583281
vt 0.207826 0.731830
vt 0.176434 0.700438
vt 0.533426 0.160899
vt 0.384877 0.075135
vt 0.533426 0.075134
vt 0.949551 0.151768
vt 0.940994 0.147574
vt 0.949551 0.104012
vt 0.102342 0.872303
vt 0.102342 0.921630
vt 0.093137 0.874769
vt 0.949290 0.265202
vt 0.960780 0.222320
vt 0.960780 0.308084
vt 0.487570 0.928218
vt 0.478365 0.925751
vt 0.487570 0.878890
vt 0.960780 0.113279
vt 0.960780 0.199043
vt 0.949290 0.156161
vt 0.364473 0.257384
vt 0.290198 0.128737
vt 0.364473 0.085855
vt 0.879840 0.156166
vt 0.902038 0.117719
vt 0.902038 0.239008
vt 0.941281 0.070739
vt 0.932724 0.066545
vt 0.941281 0.022982
vt 0.675015 0.011404
vt 0.675015 0.059160
vt 0.668184 0.014752
vt 0.184336 0.818411
vt 0.198522 0.765469
vt 0.198522 0.871352
vt 0.915183 0.168734
vt 0.929369 0.115793
vt 0.929369 0.221675
vt 0.203904 0.818410
vt 0.218090 0.765469
vt 0.218090 0.871351
vt 0.751999 0.060492
vt 0.751999 0.210232
vt 0.724595 0.107958
vt 0.799869 0.125482
vt 0.799869 0.308875
vt 0.761114 0.164238
vt 0.934751 0.168734
vt 0.948937 0.115793
vt 0.948937 0.221675
vt 0.499838 0.866372
vt 0.514024 0.813431
vt 0.514024 0.919313
vt 0.027389 0.679333
vt 0.080330 0.587637
vt 0.080330 0.771030
vt 0.095401 0.679333
vt 0.148342 0.587637
vt 0.148342 0.771030
vt 0.799231 0.726363
vt 0.790026 0.723897
vt 0.799230 0.677035
vt 0.790026 0.723897
vt 0.790026 0.679502
vt 0.799230 0.677035
vt 0.695380 0.007084
vt 0.702441 0.008976
vt 0.695380 0.056412
vt 0.704585 0.009550
vt 0.704585 0.053945
vt 0.695380 0.056412
vt 0.172154 0.941916
vt 0.162949 0.939450
vt 0.172154 0.892589
vt 0.162949 0.939450
vt 0.162949 0.895055
vt 0.172154 0.892589
vt 0.682038 0.868208
vt 0.691242 0.870674
vt 0.682038 0.917535
vt 0.691243 0.870674
vt 0.691243 0.915069
vt 0.682038 0.917535
vt 0.089218 0.921689
vt 0.079795 0.919164
vt 0.089000 0.872303
vt 0.079795 0.919164
vt 0.079795 0.874769
vt 0.089000 0.872303
vt 0.455833 0.863691
vt 0.465038 0.866157
vt 0.455833 0.913019
vt 0.465038 0.866158
vt 0.465038 0.910552
vt 0.455833 0.913019

vn -0.258819 0.000000 0.965926
vn -0.258819 0.000000 0.965926
vn -0.258819 0.000000 0.965926
vn -0.258819 0.000000 0.965926
vn -0.258819 0.000000 0.965926
vn -0.258819 0.000000 0.965926
vn -0.707107 0.000000 0.707107
vn -0.707107 0.000000 0.707107
vn -0.707107 0.000000 0.707107
vn -0.707107 0.000000 0.707107
vn -0.707107 0.000000 0.707107
vn -0.707107 0.000000 0.707107
vn -0.965926 0.000000 0.258819
vn -0.965926 0.000000 0.258819
vn -0.965926 0.000000 0.258819
vn -0.965926 0.000000 0.258819
vn -0.965926 0.000000 0.258819
vn -0.965926 0.000000 0.258819
vn -0.965926 0.000000 -0.258819
vn -0.965926 0.000000 -0.258819
vn -0.965926 0.000000 -0.258819
vn -0.965926 0.000000 -0.258819
vn -0.965926 0.000000 -0.258819
vn -0.965926 0.000000 -0.258819
vn -0.707107 0.000000 -0.707107
vn -0.707107 0.000000 -0.707107
vn -0.707107 0.000000 -0.707107
vn -0.707107 0.000000 -0.707107
vn -0.707107 0.000000 -0.707107
vn -0.707107 0.000000 -0.707107
vn -0.258819 0.000000 -0.965926
vn -0.258819 0.000000 -0.965926
vn -0.258819 0.000000 -0.965926
vn -0.258819 0.000000 -0.965926
vn -0.258819 0.000000 -0.965926
vn -0.258819 0.000000 -0.965926
vn 0.258819 0.000000 -0.965926
vn 0.258819 0.000000 -0.965926
vn 0.258819 0.000000 -0.965926
vn 0.258819 0.000000 -0.965926
vn 0.258819 0.000000 -0.965926
vn 0.258819 0.000000 -0.965926
vn 0.707107 0.000000 -0.707107
vn 0.707107 0.000000 -0.707107
vn 0.707107 0.000000 -0.707107
vn 0.707106 0.000000 -0.707107
vn 0.707106 0.000000 -0.707107
vn 0.707106 0.000000 -0.707107
vn 0.965926 0.000000 -0.258819
vn 0.965926 0.000000 -0.258819
vn 0.965926 0.000000 -0.258819
vn 0.965926 0.000000 -0.258820
vn 0.965926 0.000000 -0.258820
vn 0.965926 0.000000 -0.258820
vn 0.965926 0.000000 0.258819
vn 0.965926 0.000000 0.258819
vn 0.965926 0.000000 0.258819
vn 0.965926 0.000000 0.258819
vn 0.965926 0.000000 0.258819
vn 0.965926 0.000000 0.258819
vn 0.707107 0.000000 0.707106
vn 0.707107 0.000000 0.707106
vn 0.707107 0.000000 0.707106
vn 0.707107 0.000000 0.707106
vn 0.707107 0.000000 0.707106
vn 0.707107 0.000000 0.707106
vn 0.258819 0.000000 0.965926
vn 0.258819 0.000000 0.965926
vn 0.258819 0.000000 0.965926
vn 0.258819 0.000000 0.965926
vn 0.258819 0.000000 0.965926
vn 0.258819 0.000000 0.965926
vn 0.000000 -1.000000 0.000000
vn 0.000000 -1.000000 0.000000
vn 0.000000 -1.000000 0.000000
vn 0.258819 0.000000 0.965926
vn 0.258819 0.000000 0.965926
vn 0.258819 0.000000 0.965926
vn 0.258819 0.000000 0.965926
vn 0.258819 0.000000 0.965926
vn 0.258819 0.000000 0.965926
vn 0.258820 0.000000 0.965926
vn 0.258820 0.000000 0.965926
vn 0.258820 0.000000 0.965926
vn 0.258819 0.000000 0.965926
vn 0.258819 0.000000 0.965926
vn 0.258819 0.000000 0.965926
vn 0.707107 0.000000 0.707106
vn 0.707107 0.000000 0.707106
vn 0.707107 0.000000 0.707106
vn 0.707107 0.000000 0.707106
vn 0.707107 0.000000 0.707106
vn 0.707107 0.000000 0.707106
vn 0.000001 -1.000000 0.000000
vn 0.000001 -1.000000 0.000000
vn 0.000001 -1.000000 0.000000
vn -0.000000 -1.000000 0.000000
vn -0.000000 -1.000000 0.000000
vn -0.000000 -1.000000 0.000000
vn 0.965926 0.000000 0.258818
vn 0.965926 0.000000 0.258818
vn 0.965926 0.000000 0.258818
vn 0.965926 0.000000 0.258819
vn 0.965926 0.000000 0.258819
vn 0.965926 0.000000 0.258819
vn 0.965926 0.000000 0.258819
vn 0.965926 0.000000 0.258819
vn 0.965926 0.000000 0.258819
vn 0.965926 0.000000 0.258819
vn 0.965926 0.000000 0.258819
vn 0.965926 0.000000 0.258819
vn 0.965926 0.000000 -0.258819
vn 0.965926 0.000000 -0.258819
vn 0.965926 0.000000 -0.258819
vn 0.965926 0.000000 -0.258820
vn 0.965926 0.000000 -0.258820
vn 0.965926 0.000000 -0.258820
vn 0.500000 0.000000 -0.866025
vn 0.500000 0.000000 -0.866025
vn 0.500000 0.000000 -0.866025
vn 0.500000 0.000000 -0.866025
vn 0.500000 0.000000 -0.866025
vn 0.500000 0.000000 -0.866025
vn 0.707106 0.000000 -0.707107
vn 0.707106 0.000000 -0.707107
vn 0.707106 0.000000 -0.707107
vn 0.707107 0.000000 -0.707107
vn 0.707107 0.000000 -0.707107
vn 0.707107 0.000000 -0.707107
vn 0.707107 0.000000 -0.707107
vn 0.707107 0.000000 -0.707107
vn 0.707107 0.000000 -0.707107
vn 0.707106 0.000000 -0.707107
vn 0.707106 0.000000 -0.707107
vn 0.707106 0.000000 -0.707107
vn 0.258818 0.000000 -0.965926
vn 0.258818 0.000000 -0.965926
vn 0.258818 0.000000 -0.965926
vn 0.258819 0.000000 -0.965926
vn 0.258819 0.000000 -0.965926
vn 0.258819 0.000000 -0.965926
vn 0.000001 1.000000 0.000000
vn 0.000001 1.000000 0.000000
vn 0.000001 1.000000 0.000000
vn 0.000001 1.000000 0.000000
vn 0.000001 1.000000 0.000000
vn 0.000001 1.000000 0.000000
vn -0.258819 0.000000 -0.965926
vn -0.258819 0.000000 -0.965926
vn -0.258819 0.000000 -0.965926
vn -0.258819 0.000000 -0.965926
vn -0.258819 0.000000 -0.965926
vn -0.258819 0.000000 -0.965926
vn -0.258819 0.000000 -0.965926
vn -0.258819 0.000000 -0.965926
vn -0.258819 0.000000 -0.965926
vn -0.258819 0.000000 -0.965926
vn -0.258819 0.000000 -0.965926
vn -0.258819 0.000000 -0.965926
vn -0.707107 0.000000 -0.707107
vn -0.707107 0.000000 -0.707107
vn -0.707107 0.000000 -0.707107
vn -0.707107 0.000000 -0.707107
vn -0.707107 0.000000 -0.707107
vn -0.707107 0.000000 -0.707107
vn -0.000002 -1.000000 0.000000
vn -0.000002 -1.000000 0.000000
vn -0.000002 -1.000000 0.000000
vn -0.000000 -1.000000 0.000000
vn -0.000000 -1.000000 0.000000
vn -0.000000 -1.000000 0.000000
vn -0.965926 0.000000 -0.258820
vn -0.965926 0.000000 -0.258820
vn -0.965926 0.000000 -0.258820
vn -0.965926 0.000000 -0.258818
vn -0.965926 0.000000 -0.258818
vn -0.965926 0.000000 -0.258818
vn -0.965926 0.000000 -0.258819
vn -0.965926 0.000000 -0.258819
vn -0.965926 0.000000 -0.258819
vn -0.965926 0.000000 -0.258819
vn -0.965926 0.000000 -0.258819
vn -0.965926 0.000000 -0.258819
vn -0.965926 0.000000 0.258818
vn -0.965926 0.000000 0.258818
vn -0.965926 0.000000 0.258818
vn -0.965926 0.000000 0.258819
vn -0.965926 0.000000 0.258819
vn -0.965926 0.000000 0.258819
vn -1.000000 0.000000 0.000000
vn -1.000000 0.000000 0.000000
vn -1.000000 0.000000 0.000000
vn -1.000000 0.000000 0.000000
vn -1.000000 0.000000 0.000000
vn -1.000000 0.000000 0.000000
vn -0.707107 0.000000 0.707107
vn -0.707107 0.000000 0.707107
vn -0.707107 0.000000 0.707107
vn -0.707107 0.000000 0.707107
vn -0.707107 0.000000 0.707107
vn -0.707107 0.000000 0.707107
vn -0.707107 0.000000 0.707107
vn -0.707107 0.000000 0.707107
vn -0.707107 0.000000 0.707107
vn -0.707107 0.000000 0.707107
vn -0.707107 0.000000 0.707107
vn -0.707107 0.000000 0.707107
vn -0.258820 0.000000 0.965926
vn -0.258820 0.000000 0.965926
vn -0.258820 0.000000 0.965926
vn -0.258819 0.000000 0.965926
vn -0.258819 0.000000 0.965926
vn -0.258819 0.000000 0.965926
vn -0.000000 1.000000 0.000000
vn -0.000000 1.000000 0.000000
vn -0.000000 1.000000 0.000000
vn 0.000003 1.000000 0.000000
vn 0.000003 1.000000 0.000000
vn 0.000003 1.000000 0.000000
vn 0.707107 0.000000 0.707106
vn 0.707107 0.000000 0.707106
vn 0.707107 0.000000 0.707106
vn 0.707107 0.000000 0.707106
vn 0.707107 0.000000 0.707106
vn 0.707107 0.000000 0.707106
vn 0.965926 0.000000 -0.258820
vn 0.965926 0.000000 -0.258820
vn 0.965926 0.000000 -0.258820
vn 0.965926 0.000000 -0.258820
vn 0.965926 0.000000 -0.258820
vn 0.965926 0.000000 -0.258820
vn 0.258819 0.000000 -0.965926
vn 0.258819 0.000000 -0.965926
vn 0.258819 0.000000 -0.965926
vn 0.258819 0.000000 -0.965926
vn 0.258819 0.000000 -0.965926
vn 0.258819 0.000000 -0.965926
vn -0.707107 0.000000 -0.707107
vn -0.707107 0.000000 -0.707107
vn -0.707107 0.000000 -0.707107
vn -0.707107 0.000000 -0.707107
vn -0.707107 0.000000 -0.707107
vn -0.707107 0.000000 -0.707107
vn -0.965926 0.000000 0.258819
vn -0.965926 0.000000 0.258819
vn -0.965926 0.000000 0.258819
vn -0.965926 0.000000 0.258819
vn -0.965926 0.000000 0.258819
vn -0.965926 0.000000 0.258819
vn -0.258819 0.000000 0.965926
vn -0.258819 0.000000 0.965926
vn -0.258819 0.000000 0.965926
vn -0.258819 0.000000 0.965926
vn -0.258819 0.000000 0.965926
vn -0.258819 0.000000 0.965926
vn 0.500000 0.000000 0.866025
vn 0.500000 0.000000 0.866025
vn 0.500000 0.000000 0.866025
vn 0.500000 0.000000 0.866025
vn 0.500000 0.000000 0.866025
vn 0.500000 0.000000 0.866025
vn -0.000000 -1.000000 0.000000
vn -0.000000 -1.000000 0.000000
vn -0.000000 -1.000000 0.000000
vn -0.000000 -1.000000 0.000000
vn -0.000000 -1.000000 0.000000
vn -0.000000 -1.000000 0.000000
vn 0.866025 0.000000 0.500000
vn 0.866025 0.000000 0.500000
vn 0.866025 0.000000 0.500000
vn 0.866025 0.000000 0.500000
vn 0.866025 0.000000 0.500000
vn 0.866025 0.000000 0.500000
vn -0.866025 0.000000 0.500000
vn -0.866025 0.000000 0.500000
vn -0.866025 0.000000 0.500000
vn -0.866025 0.000000 0.500000
vn -0.866025 0.000000 0.500000
vn -0.866025 0.000000 0.500000
vn -0.000000 1.000000 0.000000
vn -0.000000 1.000000 0.000000
vn -0.000000 1.000000 0.000000
vn 0.000001 1.000000 0.000000
vn 0.000001 1.000000 0.000000
vn 0.000001 1.000000 0.000000
vn -0.000000 0.000000 -1.000000
vn -0.000000 0.000000 -1.000000
vn -0.000000 0.000000 -1.000000
vn -0.000000 0.000000 -1.000000
vn -0.000000 0.000000 -1.000000
vn -0.000000 0.000000 -1.000000
vn -0.000000 1.000000 0.000000
vn -0.000000 1.000000 0.000000
vn -0.000000 1.000000 0.000000
vn -0.000001 1.000000 0.000000
vn -0.000001 1.000000 0.000000
vn -0.000001 1.000000 0.000000
vn -0.000001 -1.000000 0.000000
vn -0.000001 -1.000000 0.000000
vn -0.000001 -1.000000 0.000000
vn 0.000001 -1.000000 0.000000
vn 0.000001 -1.000000 0.000000
vn 0.000001 -1.000000 0.000000
vn -0.000000 1.000000 0.000000
vn -0.000000 1.000000 0.000000
vn -0.000000 1.000000 0.000000
vn -0.000002 1.000000 0.000000
vn -0.000002 1.000000 0.000000
vn -0.000002 1.000000 0.000000
vn -0.500000 0.000000 -0.866025
vn -0.500000 0.000000 -0.866025
vn -0.500000 0.000000 -0.866025
vn -0.500000 0.000000 -0.866025
vn -0.500000 0.000000 -0.866025
vn -0.500000 0.000000 -0.866025
vn 0.000001 -1.000000 0.000000
vn 0.000001 -1.000000 0.000000
vn 0.000001 -1.000000 0.000000
vn -0.000000 -1.000000 0.000000
vn -0.000000 -1.000000 0.000000
vn -0.000000 -1.000000 0.000000
vn 1.000000 0.000000 -0.000000
vn 1.000000 0.000000 -0.000000
vn 1.000000 0.000000 -0.000000
vn 1.000000 0.000000 -0.000000
vn 1.000000 0.000000 -0.000000
vn 1.000000 0.000000 -0.000000
vn -0.000000 -1.000000 0.000000
vn -0.000000 -1.000000 0.000000
vn -0.000000 -1.000000 0.000000
vn -0.000002 -1.000000 0.000000
vn -0.000002 -1.000000 0.000000
vn -0.000002 -1.000000 0.000000
vn -0.500000 0.000000 0.866025
vn -0.500000 0.000000 0.866025
vn -0.500000 0.000000 0.866025
vn -0.500000 0.000000 0.866026
vn -0.500000 0.000000 0.866026
vn -0.500000 0.000000 0.866026
vn 0.000000 0.000000 1.000000
vn 0.000000 0.000000 1.000000
vn 0.000000 0.000000 1.000000
vn 0.000000 0.000000 1.000000
vn 0.000000 0.000000 1.000000
vn 0.000000 0.000000 1.000000
vn -0.866026 0.000000 -0.499999
vn -0.866026 0.000000 -0.499999
vn -0.866026 0.000000 -0.499999
vn -0.866025 0.000000 -0.500000
vn -0.866025 0.000000 -0.500000
vn -0.866025 0.000000 -0.500000
vn -0.000000 1.000000 0.000000
vn -0.000000 1.000000 0.000000
vn -0.000000 1.000000 0.000000
vn 0.000004 1.000000 0.000000
vn 0.000004 1.000000 0.000000
vn 0.000004 1.000000 0.000000
vn 0.866025 0.000000 -0.500001
vn 0.866025 0.000000 -0.500001
vn 0.866025 0.000000 -0.500001
vn 0.866025 0.000000 -0.500000
vn 0.866025 0.000000 -0.500000
vn 0.866025 0.000000 -0.500000
vn -0.500000 0.000000 0.866025
vn -0.500000 0.000000 0.866025
vn -0.500000 0.000000 0.866025
vn -0.500000 0.000000 0.866025
vn -0.500000 0.000000 0.866025
vn -0.500000 0.000000 0.866025
vn 0.866025 0.000000 -0.500000
vn 0.866025 0.000000 -0.500000
vn 0.866025 0.000000 -0.500000
vn 0.866025 0.000000 -0.500001
vn 0.866025 0.000000 -0.500001
vn 0.866025 0.000000 -0.500001
vn 0.866026 0.000000 0.500000
vn 0.866026 0.000000 0.500000
vn 0.866026 0.000000 0.500000
vn 0.866026 0.000000 0.500000
vn 0.866026 0.000000 0.500000
vn 0.866026 0.000000 0.500000
vn 0.500000 0.000000 0.866025
vn 0.500000 0.000000 0.866025
vn 0.500000 0.000000 0.866025
vn 0.500000 0.000000 0.866025
vn 0.500000 0.000000 0.866025
vn 0.500000 0.000000 0.866025
vn -0.866025 0.000000 0.500001
vn -0.866025 0.000000 0.500001
vn -0.866025 0.000000 0.500001
vn -0.866025 0.000000 0.500000
vn -0.866025 0.000000 0.500000
vn -0.866025 0.000000 0.500000
vn -0.500000 0.000000 -0.866026
vn -0.500000 0.000000 -0.866026
vn -0.500000 0.000000 -0.866026
vn -0.499999 0.000000 -0.866026
vn -0.499999 0.000000 -0.866026
vn -0.499999 0.000000 -0.866026
vn -0.000000 0.000000 -1.000000
vn -0.000000 0.000000 -1.000000
vn -0.000000 0.000000 -1.000000
vn -0.000000 0.000000 -1.000000
vn -0.000000 0.000000 -1.000000
vn -0.000000 0.000000 -1.000000
vn 1.000000 0.000000 -0.000000
vn 1.000000 0.000000 -0.000000
vn 1.000000 0.000000 -0.000000
vn 1.000000 0.000000 -0.000000
vn 1.000000 0.000000 -0.000000
vn 1.000000 0.000000 -0.000000
vn 0.000000 0.000000 1.000000
vn 0.000000 0.000000 1.000000
vn 0.000000 0.000000 1.000000
vn 0.000000 0.000000 1.000000
vn 0.000000 0.000000 1.000000
vn 0.000000 0.000000 1.000000
vn -0.499999 0.000000 0.866026
vn -0.499999 0.000000 0.866026
vn -0.499999 0.000000 0.866026
vn -0.499999 0.000000 0.866026
vn -0.499999 0.000000 0.866026
vn -0.499999 0.000000 0.866026
vn 1.000000 0.000000 0.000000
vn 1.000000 0.000000 0.000000
vn 1.000000 0.000000 0.000000
vn 1.000000 0.000000 0.000000
vn 1.000000 0.000000 0.000000
vn 1.000000 0.000000 0.000000
vn -0.866025 0.000000 -0.500000
vn -0.866025 0.000000 -0.500000
vn -0.866025 0.000000 -0.500000
vn -0.866025 0.000000 -0.500000
vn -0.866025 0.000000 -0.500000
vn -0.866025 0.000000 -0.500000
vn 0.258819 0.000000 0.965926
vn 0.258819 0.000000 0.965926
vn 0.258819 0.000000 0.965926
vn 0.258819 0.000000 0.965926
vn 0.258819 0.000000 0.965926
vn 0.258819 0.000000 0.965926
vn -0.707107 0.000000 0.707107
vn -0.707107 0.000000 0.707107
vn -0.707107 0.000000 0.707107
vn -0.707107 0.000000 0.707107
vn -0.707107 0.000000 0.707107
vn -0.707107 0.000000 0.707107
vn -0.965926 0.000000 -0.258818
vn -0.965926 0.000000 -0.258818
vn -0.965926 0.000000 -0.258818
vn -0.965926 0.000000 -0.258819
vn -0.965926 0.000000 -0.258819
vn -0.965926 0.000000 -0.258819
vn 0.258819 0.000000 0.965926
vn 0.258819 0.000000 0.965926
vn 0.258819 0.000000 0.965926
vn 0.258819 0.000000 0.965926
vn 0.258819 0.000000 0.965926
vn 0.258819 0.000000 0.965926
vn 0.707106 0.000000 -0.707107
vn 0.707106 0.000000 -0.707107
vn 0.707106 0.000000 -0.707107
vn 0.707107 0.000000 -0.707107
vn 0.707107 0.000000 -0.707107
vn 0.707107 0.000000 -0.707107
vn 0.965926 0.000000 0.258819
vn 0.965926 0.000000 0.258819
vn 0.965926 0.000000 0.258819
vn 0.965926 0.000000 0.258819
vn 0.965926 0.000000 0.258819
vn 0.965926 0.000000 0.258819
vn -0.000000 1.000000 0.000000
vn -0.000000 1.000000 0.000000
vn -0.000000 1.000000 0.000000
vn -0.000000 1.000000 0.000000
vn -0.000000 1.000000 0.000000
vn -0.000000 1.000000 0.000000
vn -0.000000 1.000000 0.000000
vn -0.000000 1.000000 0.000000
vn -0.000000 1.000000 0.000000
vn -0.000000 1.000000 0.000000
vn -0.000000 1.000000 0.000000
vn -0.000000 1.000000 0.000000
vn -0.000000 1.000000 0.000000
vn -0.000000 1.000000 0.000000
vn -0.000000 1.000000 0.000000
vn 0.000000 1.000000 0.000000
vn 0.000000 1.000000 0.000000
vn 0.000000 1.000000 0.000000
vn -0.000000 1.000000 0.000000
vn -0.000000 1.000000 0.000000
vn -0.000000 1.000000 0.000000
vn -0.000000 1.000000 0.000000
vn -0.000000 1.000000 0.000000
vn -0.000000 1.000000 0.000000
vn -0.000000 1.000000 0.000000
vn -0.000000 1.000000 0.000000
vn -0.000000 1.000000 0.000000
vn -0.000000 1.000000 0.000000
vn -0.000000 1.000000 0.000000
vn -0.000000 1.000000 0.000000
vn -0.000000 1.000000 0.000000
vn -0.000000 1.000000 0.000000
vn -0.000000 1.000000 0.000000
vn 0.000000 1.000000 0.000000
vn 0.000000 1.000000 0.000000
vn 0.000000 1.000000 0.000000
vn -0.000000 1.000000 0.000000
vn -0.000000 1.000000 0.000000
vn -0.000000 1.000000 0.000000
vn 0.000000 1.000000 0.000000
vn 0.000000 1.000000 0.000000
vn 0.000000 1.000000 0.000000
vn -0.000000 1.000000 0.000000
vn -0.000000 1.000000 0.000000
vn -0.000000 1.000000 0.000000
vn 0.000000 1.000000 0.000000
vn 0.000000 1.000000 0.000000
vn 0.000000 1.000000 0.000000
vn -0.000000 1.000000 0.000000
vn -0.000000 1.000000 0.000000
vn -0.000000 1.000000 0.000000
vn -0.000000 1.000000 0.000000
vn -0.000000 1.000000 0.000000
vn -0.000000 1.000000 0.000000
vn 0.000001 1.000000 0.000000
vn 0.000001 1.000000 0.000000
vn 0.000001 1.000000 0.000000
vn -0.000001 1.000000 0.000000
vn -0.000001 1.000000 0.000000
vn -0.000001 1.000000 0.000000
vn -0.000000 1.000000 0.000000
vn -0.000000 1.000000 0.000000
vn -0.000000 1.000000 0.000000
vn 0.000000 1.000000 0.000000
vn 0.000000 1.000000 0.000000
vn 0.000000 1.000000 0.000000
vn 0.000000 1.000000 0.000000
vn 0.000000 1.000000 0.000000
vn 0.000000 1.000000 0.000000
vn -0.000000 1.000000 0.000000
vn -0.000000 1.000000 0.000000
vn -0.000000 1.000000 0.000000
vn -0.707013 -0.016279 0.707013
vn -0.707013 -0.016279 0.707013
vn -0.707013 -0.016279 0.707013
vn -0.707013 -0.016279 0.707013
vn -0.707013 -0.016279 0.707013
vn -0.707013 -0.016279 0.707013
vn -0.965798 -0.016279 -0.258784
vn -0.965798 -0.016279 -0.258784
vn -0.965798 -0.016279 -0.258784
vn -0.965798 -0.016279 -0.258784
vn -0.965798 -0.016279 -0.258784
vn -0.965798 -0.016279 -0.258784
vn -0.965798 -0.016279 0.258785
vn -0.965798 -0.016279 0.258785
vn -0.965798 -0.016279 0.258785
vn -0.965798 -0.016279 0.258785
vn -0.965798 -0.016279 0.258785
vn -0.965798 -0.016279 0.258785
vn 0.258785 0.016280 0.965798
vn 0.258785 0.016280 0.965798
vn 0.258785 0.016280 0.965798
vn 0.258785 0.016279 0.965798
vn 0.258785 0.016279 0.965798
vn 0.258785 0.016279 0.965798
vn 0.707013 -0.016280 -0.707013
vn 0.707013 -0.016280 -0.707013
vn 0.707013 -0.016280 -0.707013
vn 0.707013 -0.016279 -0.707013
vn 0.707013 -0.016279 -0.707013
vn 0.707013 -0.016279 -0.707013
vn 0.965798 -0.016279 0.258785
vn 0.965798 -0.016279 0.258785
vn 0.965798 -0.016279 0.258785
vn 0.965798 -0.016279 0.258785
vn 0.965798 -0.016279 0.258785
vn 0.965798 -0.016279 0.258785
vn 0.965798 -0.016280 -0.258785
vn 0.965798 -0.016280 -0.258785
vn 0.965798 -0.016280 -0.258785
vn 0.965798 -0.016279 -0.258785
vn 0.965798 -0.016279 -0.258785
vn 0.965798 -0.016279 -0.258785
vn 0.258785 -0.016280 -0.965798
vn 0.258785 -0.016280 -0.965798
vn 0.258785 -0.016280 -0.965798
vn 0.258785 -0.016279 -0.965798
vn 0.258785 -0.016279 -0.965798
vn 0.258785 -0.016279 -0.965798
vn -0.707013 -0.016279 -0.707013
vn -0.707013 -0.016279 -0.707013
vn -0.707013 -0.016279 -0.707013
vn -0.707014 -0.016279 -0.707013
vn -0.707014 -0.016279 -0.707013
vn -0.707014 -0.016279 -0.707013
vn 0.258785 -0.016279 0.965798
vn 0.258785 -0.016279 0.965798
vn 0.258785 -0.016279 0.965798
vn 0.258785 -0.016280 0.965798
vn 0.258785 -0.016280 0.965798
vn 0.258785 -0.016280 0.965798
vn 0.707013 -0.016279 0.707013
vn 0.707013 -0.016279 0.707013
vn 0.707013 -0.016279 0.707013
vn 0.707013 -0.016279 0.707013
vn 0.707013 -0.016279 0.707013
vn 0.707013 -0.016279 0.707013
vn -0.258784 -0.016279 0.965798
vn -0.258784 -0.016279 0.965798
vn -0.258784 -0.016279 0.965798
vn -0.258784 -0.016280 0.965798
vn -0.258784 -0.016280 0.965798
vn -0.258784 -0.016280 0.965798
vn -0.000000 1.000000 0.000000
vn -0.000000 1.000000 0.000000
vn -0.000000 1.000000 0.000000
vn -0.000000 1.000000 0.000000
vn -0.000000 1.000000 0.000000
vn -0.000000 1.000000 0.000000
vn -0.000004 1.000000 0.000000
vn -0.000004 1.000000 0.000000
vn -0.000004 1.000000 0.000000
vn 0.000001 1.000000 0.000000
vn 0.000001 1.000000 0.000000
vn 0.000001 1.000000 0.000000
vn -0.000000 1.000000 0.000000
vn -0.000000 1.000000 0.000000
vn -0.000000 1.000000 0.000000
vn -0.000005 1.000000 0.000000
vn -0.000005 1.000000 0.000000
vn -0.000005 1.000000 0.000000
vn -0.000002 1.000000 0.000000
vn -0.000002 1.000000 0.000000
vn -0.000002 1.000000 0.000000
vn -0.000000 1.000000 0.000000
vn -0.000000 1.000000 0.000000
vn -0.000000 1.000000 0.000000
vn -0.000000 1.000000 0.000000
vn -0.000000 1.000000 0.000000
vn -0.000000 1.000000 0.000000
vn -0.000001 1.000000 0.000000
vn -0.000001 1.000000 0.000000
vn -0.000001 1.000000 0.000000
vn -0.000000 1.000000 0.000000
vn -0.000000 1.000000 0.000000
vn -0.000000 1.000000 0.000000
vn 0.000000 1.000000 0.000000
vn 0.000000 1.000000 0.000000
vn 0.000000 1.000000 0.000000
vn -0.000000 1.000000 0.000000
vn -0.000000 1.000000 0.000000
vn -0.000000 1.000000 0.000000
vn 0.000001 1.000000 0.000000
vn 0.000001 1.000000 0.000000
vn 0.000001 1.000000 0.000000
vn -0.000000 1.000000 0.000000
vn -0.000000 1.000000 0.000000
vn -0.000000 1.000000 0.000000
vn 0.000000 1.000000 0.000000
vn 0.000000 1.000000 0.000000
vn 0.000000 1.000000 0.000000
vn 0.000004 1.000000 0.000000
vn 0.000004 1.000000 0.000000
vn 0.000004 1.000000 0.000000
vn 0.000004 1.000000 0.000000
vn 0.000004 1.000000 0.000000
vn 0.000004 1.000000 0.000000
vn -0.000000 1.000000 0.000000
vn -0.000000 1.000000 0.000000
vn -0.000000 1.000000 0.000000
vn -0.000000 1.000000 0.000000
vn -0.000000 1.000000 0.000000
vn -0.000000 1.000000 0.000000
vn -0.000005 1.000000 0.000000
vn -0.000005 1.000000 0.000000
vn -0.000005 1.000000 0.000000
vn -0.000000 1.000000 0.000000
vn -0.000000 1.000000 0.000000
vn -0.000000 1.000000 0.000000
vn -0.000000 -1.000000 0.000000
vn -0.000000 -1.000000 0.000000
vn -0.000000 -1.000000 0.000000
vn -0.000000 -1.000000 0.000000
vn -0.000000 -1.000000 0.000000
vn -0.000000 -1.000000 0.000000
vn -0.000000 -1.000000 0.000000
vn -0.000000 -1.000000 0.000000
vn -0.000000 -1.000000 0.000000
vn -0.000000 -1.000000 0.000000
vn -0.000000 -1.000000 0.000000
vn -0.000000 -1.000000 0.000000
vn -0.000000 -1.000000 0.000000
vn -0.000000 -1.000000 0.000000
vn -0.000000 -1.000000 0.000000
vn -0.000000 -1.000000 0.000000
vn -0.000000 -1.000000 0.000000
vn -0.000000 -1.000000 0.000000
vn -0.000000 -1.000000 0.000000
vn -0.000000 -1.000000 0.000000
vn -0.000000 -1.000000 0.000000
vn -0.000000 -1.000000 0.000000
vn -0.000000 -1.000000 0.000000
vn -0.000000 -1.000000 0.000000
vn -0.000000 -1.000000 0.000000
vn -0.000000 -1.000000 0.000000
vn -0.000000 -1.000000 0.000000
vn -0.000000 -1.000000 0.000000
vn -0.000000 -1.000000 0.000000
vn -0.000000 -1.000000 0.000000
vn -0.000001 -1.000000 0.000000
vn -0.000001 -1.000000 0.000000
vn -0.000001 -1.000000 0.000000
vn -0.000002 -1.000000 0.000000
vn -0.000002 -1.000000 0.000000
vn -0.000002 -1.000000 0.000000
vn 0.000002 -1.000000 0.000000
vn 0.000002 -1.000000 0.000000
vn 0.000002 -1.000000 0.000000
vn -0.000000 1.000000 0.000000
vn -0.000000 1.000000 0.000000
vn -0.000000 1.000000 0.000000
vn 0.000001 1.000000 0.000000
vn 0.000001 1.000000 0.000000
vn 0.000001 1.000000 0.000000
vn 0.000001 -1.000000 0.000000
vn 0.000001 -1.000000 0.000000
vn 0.000001 -1.000000 0.000000
vn -0.000001 -1.000000 0.000000
vn -0.000001 -1.000000 0.000000
vn -0.000001 -1.000000 0.000000
vn -0.000000 -1.000000 0.000000
vn -0.000000 -1.000000 0.000000
vn -0.000000 -1.000000 0.000000
vn 0.000001 -1.000000 0.000000
vn 0.000001 -1.000000 0.000000
vn 0.000001 -1.000000 0.000000
vn -0.000000 -1.000000 0.000000
vn -0.000000 -1.000000 0.000000
vn -0.000000 -1.000000 0.000000
vn -0.000001 -1.000000 0.000000
vn -0.000001 -1.000000 0.000000
vn -0.000001 -1.000000 0.000000

g Material_0
f 3/1/1 1/2/2 2/3/3
f 6/4/4 4/5/5 5/6/6
f 9/7/7 7/8/8 8/9/9
f 12/10/10 10/11/11 11/12/12
f 15/13/13 13/14/14 14/15/15
f 18/16/16 16/17/17 17/18/18
f 21/19/19 19/20/20 20/21/21
f 24/22/22 22/23/23 23/24/24
f 27/25/25 25/26/26 26/27/27
f 30/28/28 28/29/29 29/30/30
f 33/31/31 31/32/32 32/33/33
f 36/34/34 34/35/35 35/36/36
f 39/37/37 37/38/38 38/39/39
f 42/40/40 40/41/41 41/42/42
f 45/43/43 43/44/44 44/45/45
f 48/46/46 46/47/47 47/48/48
f 51/49/49 49/50/50 50/51/51
f 54/52/52 52/53/53 53/54/54
f 57/55/55 55/56/56 56/57/57
f 60/58/58 58/59/59 59/60/60
f 63/61/61 61/62/62 62/63/63
f 66/64/64 64/65/65 65/66/66
f 69/67/67 67/68/68 68/69/69
f 72/70/70 70/71/71 71/72/72
f 75/73/73 73/74/74 74/75/75
f 78/76/76 76/77/77 77/78/78
f 81/79/79 79/80/80 80/81/81
f 84/82/82 82/83/83 83/84/84
f 87/85/85 85/86/86 86/87/87
f 90/88/88 88/89/89 89/90/90
f 93/91/91 91/92/92 92/93/93
f 96/94/94 94/95/95 95/96/96
f 99/97/97 97/98/98 98/99/99
f 102/100/100 100/101/101 101/102/102
f 105/103/103 103/104/104 104/105/105
f 108/106/106 106/107/107 107/108/108
f 111/109/109 109/110/110 110/111/111
f 114/112/112 112/113/113 113/114/114
f 117/115/115 115/116/116 116/117/117
f 120/118/118 118/119/119 119/120/120
f 123/121/121 121/122/122 122/123/123
f 126/124/124 124/125/125 125/126/126
f 129/127/127 127/128/128 128/129/129
f 132/130/130 130/131/131 131/132/132
f 135/133/133 133/134/134 134/135/135
f 138/136/136 136/137/137 137/138/138
f 141/139/139 139/140/140 140/141/141
f 144/142/142 142/143/143 143/144/144
f 147/145/145 145/146/146 146/147/147
f 150/148/148 148/149/149 149/150/150
f 153/151/151 151/152/152 152/153/153
f 156/154/154 154/155/155 155/156/156
f 159/157/157 157/158/158 158/159/159
f 162/160/160 160/161/161 161/162/162
f 165/163/163 163/164/164 164/165/165
f 168/166/166 166/167/167 167/168/168
f 171/169/169 169/170/170 170/171/171
f 174/172/172 172/173/173 173/174/174
f 177/175/175 175/176/176 176/177/177
f 180/178/178 178/179/179 179/180/180
f 183/181/181 181/182/182 182/183/183
f 186/184/184 184/185/185 185/186/186
f 189/187/187 187/188/188 188/189/189
f 192/190/190 190/191/191 191/192/192
f 195/193/193 193/194/194 194/195/195
f 198/196/196 196/197/197 197/198/198
f 201/199/199 199/200/200 200/201/201
f 204/202/202 202/203/203 203/204/204
f 207/205/205 205/206/206 206/207/207
f 210/208/208 208/209/209 209/210/210
f 213/211/211 211/212/212 212/213/213
f 216/214/214 214/215/215 215/216/216
f 219/217/217 217/218/218 218/219/219
f 222/220/220 220/221/221 221/222/222
f 225/223/223 223/224/224 224/225/225
f 228/226/226 226/227/227 227/228/228
f 231/229/229 229/230/230 230/231/231
f 234/232/232 232/233/233 233/234/234
f 237/235/235 235/236/236 236/237/237
f 240/238/238 238/239/239 239/240/240
f 243/241/241 241/242/242 242/243/243
f 246/244/244 244/245/245 245/246/246
f 249/247/247 247/248/248 248/249/249
f 252/250/250 250/251/251 251/252/252
f 255/253/253 253/254/254 254/255/255
f 258/256/256 256/257/257 257/258/258
f 261/259/259 259/260/260 260/261/261
f 264/262/262 262/263/263 263/264/264
f 267/265/265 265/266/266 266/267/267
f 270/268/268 268/269/269 269/270/270
f 273/271/271 271/272/272 272/273/273
f 276/274/274 274/275/275 275/276/276
f 279/277/277 277/278/278 278/279/279
f 282/280/280 280/281/281 281/282/282
f 285/283/283 283/284/284 284/285/285
f 288/286/286 286/287/287 287/288/288
f 291/289/289 289/290/290 290/291/291
f 294/292/292 292/293/293 293/294/294
f 297/295/295 295/296/296 296/297/297
f 300/298/298 298/299/299 299/300/300
f 303/301/301 301/302/302 302/303/303
f 306/304/304 304/305/305 305/306/306
f 309/307/307 307/308/308 308/309/309
f 312/310/310 310/311/311 311/312/312
f 315/313/313 313/314/314 314/315/315
f 318/316/316 316/317/317 317/318/318
f 321/319/319 319/320/320 320/321/321
f 324/322/322 322/323/323 323/324/324
f 327/325/325 325/326/326 326/327/327
f 330/328/328 328/329/329 329/330/330
f 333/331/331 331/332/332 332/333/333
f 336/334/334 334/335/335 335/336/336
f 339/337/337 337/338/338 338/339/339
f 342/340/340 340/341/341 341/342/342
f 345/343/343 343/344/344 344/345/345
f 348/346/346 346/347/347 347/348/348
f 351/349/349 349/350/350 350/351/351
f 354/352/352 352/353/353 353/354/354
f 357/355/355 355/356/356 356/357/357
f 360/358/358 358/359/359 359/360/360
f 363/361/361 361/362/362 362/363/363
f 366/364/364 364/365/365 365/366/366
f 369/367/367 367/368/368 368/369/369
f 372/370/370 370/371/371 371/372/372
f 375/373/373 373/374/374 374/375/375
f 378/376/376 376/377/377 377/378/378
f 381/379/379 379/380/380 380/381/381
f 384/382/382 382/383/383 383/384/384
f 387/385/385 385/386/386 386/387/387
f 390/388/388 388/389/389 389/390/390
f 393/391/391 391/392/392 392/393/393
f 396/394/394 394/395/395 395/396/396
f 399/397/397 397/398/398 398/399/399
f 402/400/400 400/401/401 401/402/402
f 405/403/403 403/404/404 404/405/405
f 408/406/406 406/407/407 407/408/408
f 411/409/409 409/410/410 410/411/411
f 414/412/412 412/413/413 413/414/414
f 417/415/415 415/416/416 416/417/417
f 420/418/418 418/419/419 419/420/420
f 423/421/421 421/422/422 422/423/423
f 426/424/424 424/425/425 425/426/426
f 429/427/427 427/428/428 428/429/429
f 432/430/430 430/431/431 431/432/432
f 435/433/433 433/434/434 434/435/435
f 438/436/436 436/437/437 437/438/438
f 441/439/439 439/440/440 440/441/441
f 444/442/442 442/443/443 443/444/444
f 447/445/445 445/446/446 446/447/447
f 450/448/448 448/449/449 449/450/450
f 453/451/451 451/452/452 452/453/453
f 456/454/454 454/455/455 455/456/456
f 459/457/457 457/458/458 458/459/459
f 462/460/460 460/461/461 461/462/462
f 465/463/463 463/464/464 464/465/465
f 468/466/466 466/467/467 467/468/468
f 471/469/469 469/470/470 470/471/471
f 474/472/472 472/473/473 473/474/474
f 477/475/475 475/476/476 476/477/477
f 480/478/478 478/479/479 479/480/480
f 483/481/481 481/482/482 482/483/483
f 486/484/484 484/485/485 485/486/486
f 489/487/487 487/488/488 488/489/489
f 492/490/490 490/491/491 491/492/492
f 495/493/493 493/494/494 494/495/495
f 498/496/496 496/497/497 497/498/498
f 501/499/499 499/500/500 500/501/501
f 504/502/502 502/503/503 503/504/504
f 507/505/505 505/506/506 506/507/507
f 510/508/508 508/509/509 509/510/510
f 513/511/511 511/512/512 512/513/513
f 516/514/514 514/515/515 515/516/516
f 519/517/517 517/518/518 518/519/519
f 522/520/520 520/521/521 521/522/522
f 525/523/523 523/524/524 524/525/525
f 528/526/526 526/527/527 527/528/528
f 531/529/529 529/530/530 530/531/531
f 534/532/532 532/533/533 533/534/534
f 537/535/535 535/536/536 536/537/537
f 540/538/538 538/539/539 539/540/540
f 543/541/541 541/542/542 542/543/543
f 546/544/544 544/545/545 545/546/546
f 549/547/547 547/548/548 548/549/549
f 552/550/550 550/551/551 551/552/552
f 555/553/553 553/554/554 554/555/555
f 558/556/556 556/557/557 557/558/558
f 561/559/559 559/560/560 560/561/561
f 564/562/562 562/563/563 563/564/564
f 567/565/565 565/566/566 566/567/567
f 570/568/568 568/569/569 569/570/570
f 573/571/571 571/572/572 572/573/573
f 576/574/574 574/575/575 575/576/576
f 579/577/577 577/578/578 578/579/579
f 582/580/580 580/581/581 581/582/582
f 585/583/583 583/584/584 584/585/585
f 588/586/586 586/587/587 587/588/588
f 591/589/589 589/590/590 590/591/591
f 594/592/592 592/593/593 593/594/594
f 597/595/595 595/596/596 596/597/597
f 600/598/598 598/599/599 599/600/600
f 603/601/601 601/602/602 602/603/603
f 606/604/604 604/605/605 605/606/606
f 609/607/607 607/608/608 608/609/609
f 612/610/610 610/611/611 611/612/612
f 615/613/613 613/614/614 614/615/615
f 618/616/616 616/617/617 617/618/618
f 621/619/619 619/620/620 620/621/621
f 624/622/622 622/623/623 623/624/624
f 627/625/625 625/626/626 626/627/627
f 630/628/628 628/629/629 629/630/630
f 633/631/631 631/632/632 632/633/633
f 636/634/634 634/635/635 635/636/636
f 639/637/637 637/638/638 638/639/639
f 642/640/640 640/641/641 641/642/642
f 645/643/643 643/644/644 644/645/645
f 648/646/646 646/647/647 647/648/648
f 651/649/649 649/650/650 650/651/651
f 654/652/652 652/653/653 653/654/654
f 657/655/655 655/656/656 656/657/657
f 660/658/658 658/659/659 659/660/660
f 663/661/661 661/662/662 662/663/663
f 666/664/664 664/665/665 665/666/666
f 669/667/667 667/668/668 668/669/669
f 672/670/670 670/671/671 671/672/672
f 675/673/673 673/674/674 674/675/675
f 678/676/676 676/677/677 677/678/678
f 681/679/679 679/680/680 680/681/681
f 684/682/682 682/683/683 683/684/684
f 687/685/685 685/686/686 686/687/687
f 690/688/688 688/689/689 689/690/690
f 693/691/691 691/692/692 692/693/693
f 696/694/694 694/695/695 695/696/696
f 699/697/697 697/698/698 698/699/699
f 702/700/700 700/701/701 701/702/702
f 705/703/703 703/704/704 704/705/705
f 708/706/706 706/707/707 707/708/708
f 711/709/709 709/710/710 710/711/711
f 714/712/712 712/713/713 713/714/714
f 717/715/715 715/716/716 716/717/717
f 720/718/718 718/719/719 719/720/720
f 723/721/721 721/722/722 722/723/723
f 726/724/724 724/725/725 725/726/726
f 729/727/727 727/728/728 728/729/729
f 732/730/730 730/731/731 731/732/732
f 735/733/733 733/734/734 734/735/735
f 738/736/736 736/737/737 737/738/738
f 741/739/739 739/740/740 740/741/741
f 744/742/742 742/743/743 743/744/744

