# Converted from B3D for Luanti (With Correct Normals)
# Object Name: multidecor_wooden_drawer

v -0.550000 0.261510 -0.940533
v -0.550000 -0.138490 -0.940533
v -0.550000 -0.138490 0.759467
v -0.550000 0.261510 0.759467
v 0.550000 0.261510 -0.940533
v 0.550000 -0.138490 -0.940533
v -0.550000 -0.138490 -0.940533
v -0.550000 0.261510 -0.940533
v 0.550000 0.261510 0.759467
v 0.550000 -0.138490 0.759467
v 0.550000 -0.138490 -0.940533
v 0.550000 0.261510 -0.940533
v 0.550000 -0.138490 -0.940533
v 0.550000 -0.138490 0.759467
v -0.550000 -0.138490 0.759467
v -0.550000 -0.138490 -0.940533
v -0.500000 0.261510 -0.890533
v -0.500000 0.261510 0.759467
v -0.500000 -0.088490 0.759467
v -0.500000 -0.088490 -0.890533
v 0.500000 0.261510 -0.890533
v -0.500000 0.261510 -0.890533
v -0.500000 -0.088490 -0.890533
v 0.500000 -0.088490 -0.890533
v 0.500000 0.261510 0.759467
v 0.500000 0.261510 -0.890533
v 0.500000 -0.088490 -0.890533
v 0.500000 -0.088490 0.759467
v 0.500000 -0.088490 -0.890533
v -0.500000 -0.088490 -0.890533
v -0.500000 -0.088490 0.759467
v 0.500000 -0.088490 0.759467
v -0.550000 -0.138490 0.759467
v -0.650000 -0.138490 0.759467
v -0.650000 0.261510 0.759467
v -0.550000 0.261510 0.759467
v 0.550000 0.261510 0.759467
v 0.650000 0.261510 0.759467
v 0.650000 -0.138490 0.759467
v 0.550000 -0.138490 0.759467
v 0.650000 0.261510 0.759467
v 0.650000 0.261510 0.859467
v 0.650000 -0.138490 0.859467
v 0.650000 -0.138490 0.759467
v -0.550000 -0.138490 0.759467
v -0.550000 -0.138490 0.859467
v -0.650000 -0.138490 0.859467
v -0.650000 -0.138490 0.759467
v 0.550000 -0.138490 0.759467
v 0.550000 -0.138490 0.859467
v -0.550000 -0.138490 0.859467
v -0.550000 -0.138490 0.759467
v -0.650000 -0.138490 0.759467
v -0.650000 -0.138490 0.859467
v -0.650000 0.261510 0.859467
v -0.650000 0.261510 0.759467
v 0.650000 -0.138490 0.759467
v 0.650000 -0.138490 0.859467
v 0.550000 -0.138490 0.859467
v 0.550000 -0.138490 0.759467
v 0.650000 0.261510 0.859467
v -0.550000 -0.138490 0.859467
v 0.550000 -0.138490 0.859467
v -0.550000 0.261510 0.759467
v -0.650000 0.261510 0.859467
v -0.500000 0.261510 0.759467
v -0.500000 -0.088490 0.759467
v 0.500000 0.261510 0.759467
v 0.500000 -0.088490 0.759467
v -0.550000 0.261510 0.759467
v -0.500000 0.261510 0.759467
v -0.500000 0.261510 -0.890533
v -0.550000 0.261510 -0.940533
v 0.550000 0.261510 -0.940533
v -0.550000 0.261510 -0.940533
v -0.500000 0.261510 -0.890533
v 0.500000 0.261510 -0.890533
v 0.500000 0.261510 0.759467
v 0.550000 0.261510 0.759467
v 0.550000 0.261510 -0.940533
v 0.500000 0.261510 -0.890533
v -0.225000 0.036789 0.859467
v -0.225000 0.126789 0.859467
v -0.225000 0.126789 0.934467
v -0.225000 0.036789 0.934467
v -0.250000 0.036789 0.934467
v -0.250000 0.126789 0.934467
v -0.250000 0.126789 0.859467
v -0.250000 0.036789 0.859467
v -0.225000 0.036789 0.859467
v -0.225000 0.036789 0.934467
v -0.250000 0.036789 0.934467
v -0.250000 0.036789 0.859467
v -0.225000 0.126789 0.934467
v -0.225000 0.126789 0.859467
v -0.250000 0.126789 0.859467
v -0.250000 0.126789 0.934467
v 0.225000 0.036789 0.859467
v 0.225000 0.036789 0.934467
v 0.225000 0.126789 0.934467
v 0.225000 0.126789 0.859467
v 0.250000 0.036789 0.934467
v 0.250000 0.036789 0.859467
v 0.250000 0.126789 0.859467
v 0.250000 0.126789 0.934467
v 0.225000 0.036789 0.859467
v 0.250000 0.036789 0.859467
v 0.250000 0.036789 0.934467
v 0.225000 0.036789 0.934467
v 0.225000 0.126789 0.934467
v 0.250000 0.126789 0.934467
v 0.250000 0.126789 0.859467
v 0.225000 0.126789 0.859467
v -0.225000 0.126789 0.934467
v 0.225000 0.126789 0.934467
v 0.225000 0.036789 0.934467
v -0.225000 0.036789 0.934467
v 0.225000 0.126789 0.934467
v -0.225000 0.126789 0.934467
v -0.225000 0.140289 0.934467
v 0.225000 0.140289 0.934467
v 0.225000 0.126789 0.934467
v 0.225000 0.140289 0.934467
v 0.275000 0.140289 0.934467
v 0.250000 0.126789 0.934467
v -0.250000 0.126789 0.934467
v -0.250000 0.036789 0.934467
v -0.275000 0.023289 0.934467
v -0.275000 0.140289 0.934467
v -0.250000 0.036789 0.934467
v -0.225000 0.036789 0.934467
v -0.225000 0.023289 0.934467
v -0.275000 0.023289 0.934467
v -0.225000 0.036789 0.934467
v 0.225000 0.036789 0.934467
v 0.225000 0.023289 0.934467
v -0.225000 0.023289 0.934467
v 0.250000 0.126789 0.934467
v 0.275000 0.140289 0.934467
v 0.275000 0.023289 0.934467
v 0.250000 0.036789 0.934467
v -0.225000 0.126789 0.934467
v -0.250000 0.126789 0.934467
v -0.275000 0.140289 0.934467
v -0.225000 0.140289 0.934467
v 0.250000 0.036789 0.934467
v 0.275000 0.023289 0.934467
v 0.225000 0.023289 0.934467
v 0.225000 0.036789 0.934467
v 0.275000 0.140289 0.934467
v 0.275000 0.140289 0.984467
v 0.275000 0.023289 0.984467
v 0.275000 0.023289 0.934467
v 0.275000 0.023289 0.934467
v 0.275000 0.023289 0.984467
v 0.225000 0.023289 0.984467
v 0.225000 0.023289 0.934467
v -0.225000 0.140289 0.934467
v -0.275000 0.140289 0.934467
v -0.275000 0.140289 0.984467
v -0.225000 0.140289 0.984467
v 0.225000 0.140289 0.934467
v -0.225000 0.140289 0.934467
v -0.225000 0.140289 0.984467
v 0.225000 0.140289 0.984467
v 0.225000 0.140289 0.934467
v 0.225000 0.140289 0.984467
v 0.275000 0.140289 0.984467
v 0.275000 0.140289 0.934467
v -0.275000 0.140289 0.934467
v -0.275000 0.023289 0.934467
v -0.275000 0.023289 0.984467
v -0.275000 0.140289 0.984467
v -0.275000 0.023289 0.934467
v -0.225000 0.023289 0.934467
v -0.225000 0.023289 0.984467
v -0.275000 0.023289 0.984467
v -0.225000 0.023289 0.934467
v 0.225000 0.023289 0.934467
v 0.225000 0.023289 0.984467
v -0.225000 0.023289 0.984467
v -0.225000 0.023289 0.984467
v 0.225000 0.023289 0.984467
v 0.225000 0.140289 0.984467
v -0.225000 0.140289 0.984467
v -0.500000 0.261510 0.759467
v 0.650000 0.261510 0.859467
v 0.500000 0.261510 0.759467
v -0.225000 0.140289 0.984467
v -0.275000 0.140289 0.984467
v -0.275000 0.023289 0.984467
v -0.225000 0.023289 0.984467
v 0.225000 0.140289 0.984467
v 0.225000 0.023289 0.984467
v 0.275000 0.023289 0.984467
v 0.275000 0.140289 0.984467
v 0.500000 0.261510 0.759467
v 0.650000 0.261510 0.859467
v 0.550000 0.261510 0.759467
v 0.550000 0.261510 0.759467
v 0.650000 0.261510 0.859467
v 0.650000 0.261510 0.759467
v 0.650000 0.261510 0.859467
v -0.500000 0.261510 0.759467
v -0.650000 0.261510 0.859467
v -0.650000 0.261510 0.859467
v -0.550000 0.261510 0.759467
v -0.650000 0.261510 0.759467
v -0.650000 -0.138490 0.859467
v -0.550000 -0.138490 0.859467
v -0.650000 0.261510 0.859467
v -0.650000 0.261510 0.859467
v -0.550000 -0.138490 0.859467
v 0.650000 0.261510 0.859467
v 0.650000 0.261510 0.859467
v 0.550000 -0.138490 0.859467
v 0.650000 -0.138490 0.859467
v -0.500000 -0.088490 0.759467
v -0.500000 0.261510 0.759467
v 0.500000 0.261510 0.759467

vt 0.998511 0.595975
vt 0.557219 0.492142
vt 0.557219 0.595975
vt 0.998511 0.492142
vt 0.557219 0.492142
vt 0.998511 0.595975
vt 0.557219 0.595975
vt 0.453386 0.881517
vt 0.557219 0.881517
vt 0.453386 0.595975
vt 0.453386 0.881517
vt 0.557219 0.595975
vt 0.557219 0.881517
vt 0.998511 0.985350
vt 0.998511 0.881517
vt 0.557219 0.985350
vt 0.998511 0.985350
vt 0.557219 0.881517
vt 0.998511 0.595975
vt 0.557219 0.881517
vt 0.998511 0.881517
vt 0.557219 0.595975
vt 0.557219 0.881517
vt 0.998511 0.595975
vt 0.908995 0.519318
vt 0.999849 0.091005
vt 0.999849 0.519318
vt 0.908995 0.091005
vt 0.999849 0.091005
vt 0.908995 0.519318
vt 0.908995 0.091005
vt 0.649411 0.000151
vt 0.908995 0.000151
vt 0.649411 0.091005
vt 0.649411 0.000151
vt 0.908995 0.091005
vt 0.649411 0.091005
vt 0.558557 0.519318
vt 0.558557 0.091005
vt 0.649411 0.519318
vt 0.558557 0.519318
vt 0.649411 0.091005
vt 0.908995 0.519318
vt 0.649411 0.091005
vt 0.908995 0.091005
vt 0.649411 0.519318
vt 0.649411 0.091005
vt 0.908995 0.519318
vt 0.415485 0.723823
vt 0.441443 0.619989
vt 0.415485 0.619989
vt 0.441443 0.723823
vt 0.441443 0.619989
vt 0.415485 0.723823
vt 0.026109 0.619989
vt 0.000151 0.723823
vt 0.026109 0.723823
vt 0.000151 0.619989
vt 0.000151 0.723823
vt 0.026109 0.619989
vt 0.052067 0.619989
vt 0.026109 0.723823
vt 0.052068 0.723823
vt 0.026109 0.619989
vt 0.026109 0.723823
vt 0.052067 0.619989
vt 0.389526 0.619989
vt 0.363568 0.594031
vt 0.363568 0.619989
vt 0.389526 0.594031
vt 0.363568 0.594031
vt 0.389526 0.619989
vt 0.363568 0.619989
vt 0.078026 0.594031
vt 0.078026 0.619989
vt 0.363568 0.594031
vt 0.078026 0.594031
vt 0.363568 0.619989
vt 0.389526 0.723823
vt 0.415485 0.619989
vt 0.389526 0.619989
vt 0.415485 0.723823
vt 0.415485 0.619989
vt 0.389526 0.723823
vt 0.078026 0.619989
vt 0.052067 0.594031
vt 0.052067 0.619989
vt 0.078026 0.594031
vt 0.052067 0.594031
vt 0.078026 0.619989
vt 0.078026 0.619989
vt 0.052068 0.723823
vt 0.363568 0.619989
vt 0.350588 0.749781
vt 0.363568 0.749781
vt 0.389526 0.723823
vt 0.649411 0.519318
vt 0.908995 0.519318
vt 0.649411 0.610173
vt 0.570199 0.479162
vt 0.998511 0.492142
vt 0.998511 0.479161
vt 0.557219 0.492142
vt 0.998511 0.492142
vt 0.570199 0.479162
vt 0.440407 0.608954
vt 0.453386 0.881517
vt 0.453386 0.595975
vt 0.440407 0.868538
vt 0.453386 0.881517
vt 0.440407 0.608954
vt 0.557219 0.985350
vt 0.998511 0.998330
vt 0.998511 0.985350
vt 0.570198 0.998329
vt 0.998511 0.998330
vt 0.557219 0.985350
vt 0.091005 0.749781
vt 0.350588 0.749781
vt 0.052068 0.723823
vt 0.078026 0.749781
vt 0.091005 0.749781
vt 0.052068 0.723823
vt 0.052068 0.749781
vt 0.078026 0.749781
vt 0.052068 0.723823
vt 0.389526 0.723823
vt 0.052068 0.723823
vt 0.350588 0.749781
vt 0.389526 0.749781
vt 0.389526 0.723823
vt 0.363568 0.749781
vt 0.389526 0.723823
vt 0.389526 0.619989
vt 0.363568 0.619989
vt 0.052068 0.723823
vt 0.389526 0.723823
vt 0.363568 0.619989
vt 0.052067 0.619989
vt 0.052068 0.723823
vt 0.078026 0.619989
vt 0.649411 0.610173
vt 0.908995 0.519318
vt 0.908995 0.610173
vt 0.514068 0.669417
vt 0.629427 0.530986
vt 0.629427 0.669417
vt 0.514068 0.530986
vt 0.629427 0.530986
vt 0.514068 0.669417
vt 0.629427 0.354103
vt 0.514068 0.492533
vt 0.514068 0.354103
vt 0.629427 0.492533
vt 0.514068 0.492533
vt 0.629427 0.354103
vt 0.514068 0.492533
vt 0.629427 0.530986
vt 0.514068 0.530986
vt 0.629427 0.492533
vt 0.629427 0.530986
vt 0.514068 0.492533
vt 0.629427 0.707869
vt 0.514068 0.669417
vt 0.629427 0.669417
vt 0.514068 0.707869
vt 0.514068 0.669417
vt 0.629427 0.707869
vt 0.514068 0.038565
vt 0.629427 0.176995
vt 0.514068 0.176996
vt 0.629427 0.038565
vt 0.629427 0.176995
vt 0.514068 0.038565
vt 0.629427 0.353879
vt 0.514068 0.215448
vt 0.629427 0.215448
vt 0.514068 0.353879
vt 0.514068 0.215448
vt 0.629427 0.353879
vt 0.514068 0.215448
vt 0.629427 0.176995
vt 0.629427 0.215448
vt 0.514068 0.176996
vt 0.629427 0.176995
vt 0.514068 0.215448
vt 0.629427 0.000112
vt 0.514068 0.038565
vt 0.514068 0.000112
vt 0.629427 0.038565
vt 0.514068 0.038565
vt 0.629427 0.000112
vt 0.020877 0.846076
vt 0.159308 0.153924
vt 0.159308 0.846076
vt 0.020877 0.153924
vt 0.159308 0.153924
vt 0.020877 0.846076
vt 0.180073 0.153924
vt 0.159308 0.846076
vt 0.159308 0.153924
vt 0.180073 0.846076
vt 0.159308 0.846076
vt 0.180073 0.153924
vt 0.180072 0.922982
vt 0.159308 0.846076
vt 0.180073 0.846076
vt 0.159308 0.884529
vt 0.159308 0.846076
vt 0.180072 0.922982
vt 0.000113 0.077017
vt 0.159308 0.115471
vt 0.020877 0.115471
vt 0.180073 0.077018
vt 0.159308 0.115471
vt 0.000113 0.077017
vt 0.000112 0.153924
vt 0.020877 0.115471
vt 0.020877 0.153924
vt 0.000113 0.077017
vt 0.020877 0.115471
vt 0.000112 0.153924
vt 0.000112 0.846076
vt 0.020877 0.153924
vt 0.020877 0.846076
vt 0.000112 0.153924
vt 0.020877 0.153924
vt 0.000112 0.846076
vt 0.000112 0.922982
vt 0.159308 0.884529
vt 0.180072 0.922982
vt 0.020877 0.884529
vt 0.159308 0.884529
vt 0.000112 0.922982
vt 0.180073 0.077018
vt 0.159308 0.153924
vt 0.159308 0.115471
vt 0.180073 0.153924
vt 0.159308 0.153924
vt 0.180073 0.077018
vt 0.000112 0.846076
vt 0.020877 0.884529
vt 0.000112 0.922982
vt 0.020877 0.846076
vt 0.020877 0.884529
vt 0.000112 0.846076
vt 0.436938 0.922982
vt 0.256979 0.999888
vt 0.256978 0.922982
vt 0.436938 0.999888
vt 0.256979 0.999888
vt 0.436938 0.922982
vt 0.436938 0.846076
vt 0.513844 0.922982
vt 0.436938 0.922982
vt 0.513844 0.846076
vt 0.513844 0.922982
vt 0.436938 0.846076
vt 0.256979 0.077018
vt 0.180073 0.153924
vt 0.180073 0.077018
vt 0.256979 0.153924
vt 0.180073 0.153924
vt 0.256979 0.077018
vt 0.256979 0.153924
vt 0.180073 0.846076
vt 0.180073 0.153924
vt 0.256979 0.846076
vt 0.180073 0.846076
vt 0.256979 0.153924
vt 0.256978 0.922982
vt 0.180073 0.846076
vt 0.256979 0.846076
vt 0.180072 0.922982
vt 0.180073 0.846076
vt 0.256978 0.922982
vt 0.436938 0.077018
vt 0.256979 0.000112
vt 0.436938 0.000112
vt 0.256979 0.077018
vt 0.256979 0.000112
vt 0.436938 0.077018
vt 0.436938 0.153924
vt 0.513844 0.077018
vt 0.513844 0.153924
vt 0.436938 0.077018
vt 0.513844 0.077018
vt 0.436938 0.153924
vt 0.436938 0.846076
vt 0.513844 0.153924
vt 0.513844 0.846076
vt 0.436938 0.153924
vt 0.513844 0.153924
vt 0.436938 0.846076
vt 0.256979 0.846076
vt 0.436938 0.153924
vt 0.436938 0.846076
vt 0.256979 0.153924
vt 0.436938 0.153924
vt 0.256979 0.846076
vt 0.436938 0.077018
vt 0.256979 0.153924
vt 0.256979 0.077018
vt 0.436938 0.153924
vt 0.256979 0.153924
vt 0.436938 0.077018
vt 0.436938 0.922982
vt 0.256979 0.846076
vt 0.436938 0.846076
vt 0.256978 0.922982
vt 0.256979 0.846076
vt 0.436938 0.922982

vn -1.000000 0.000000 0.000000
vn -1.000000 0.000000 0.000000
vn -1.000000 0.000000 0.000000
vn -1.000000 0.000000 0.000000
vn -1.000000 0.000000 0.000000
vn -1.000000 0.000000 0.000000
vn -0.000000 0.000000 -1.000000
vn -0.000000 0.000000 -1.000000
vn -0.000000 0.000000 -1.000000
vn -0.000000 0.000000 -1.000000
vn -0.000000 0.000000 -1.000000
vn -0.000000 0.000000 -1.000000
vn 1.000000 0.000000 -0.000000
vn 1.000000 0.000000 -0.000000
vn 1.000000 0.000000 -0.000000
vn 1.000000 0.000000 -0.000000
vn 1.000000 0.000000 -0.000000
vn 1.000000 0.000000 -0.000000
vn -0.000000 -1.000000 0.000000
vn -0.000000 -1.000000 0.000000
vn -0.000000 -1.000000 0.000000
vn -0.000000 -1.000000 0.000000
vn -0.000000 -1.000000 0.000000
vn -0.000000 -1.000000 0.000000
vn 1.000000 0.000000 -0.000000
vn 1.000000 0.000000 -0.000000
vn 1.000000 0.000000 -0.000000
vn 1.000000 0.000000 -0.000000
vn 1.000000 0.000000 -0.000000
vn 1.000000 0.000000 -0.000000
vn 0.000000 0.000000 1.000000
vn 0.000000 0.000000 1.000000
vn 0.000000 0.000000 1.000000
vn 0.000000 0.000000 1.000000
vn 0.000000 0.000000 1.000000
vn 0.000000 0.000000 1.000000
vn -1.000000 0.000000 0.000000
vn -1.000000 0.000000 0.000000
vn -1.000000 0.000000 0.000000
vn -1.000000 0.000000 0.000000
vn -1.000000 0.000000 0.000000
vn -1.000000 0.000000 0.000000
vn 0.000000 1.000000 0.000000
vn 0.000000 1.000000 0.000000
vn 0.000000 1.000000 0.000000
vn -0.000000 1.000000 0.000000
vn -0.000000 1.000000 0.000000
vn -0.000000 1.000000 0.000000
vn -0.000000 0.000000 -1.000000
vn -0.000000 0.000000 -1.000000
vn -0.000000 0.000000 -1.000000
vn -0.000000 0.000000 -1.000000
vn -0.000000 0.000000 -1.000000
vn -0.000000 0.000000 -1.000000
vn -0.000000 0.000000 -1.000000
vn -0.000000 0.000000 -1.000000
vn -0.000000 0.000000 -1.000000
vn -0.000000 0.000000 -1.000000
vn -0.000000 0.000000 -1.000000
vn -0.000000 0.000000 -1.000000
vn 1.000000 0.000000 0.000000
vn 1.000000 0.000000 0.000000
vn 1.000000 0.000000 0.000000
vn 1.000000 0.000000 0.000000
vn 1.000000 0.000000 0.000000
vn 1.000000 0.000000 0.000000
vn -0.000000 -1.000000 0.000000
vn -0.000000 -1.000000 0.000000
vn -0.000000 -1.000000 0.000000
vn -0.000000 -1.000000 0.000000
vn -0.000000 -1.000000 0.000000
vn -0.000000 -1.000000 0.000000
vn -0.000000 -1.000000 0.000000
vn -0.000000 -1.000000 0.000000
vn -0.000000 -1.000000 0.000000
vn -0.000000 -1.000000 0.000000
vn -0.000000 -1.000000 0.000000
vn -0.000000 -1.000000 0.000000
vn -1.000000 0.000000 0.000000
vn -1.000000 0.000000 0.000000
vn -1.000000 0.000000 0.000000
vn -1.000000 0.000000 0.000000
vn -1.000000 0.000000 0.000000
vn -1.000000 0.000000 0.000000
vn -0.000000 -1.000000 0.000000
vn -0.000000 -1.000000 0.000000
vn -0.000000 -1.000000 0.000000
vn -0.000000 -1.000000 0.000000
vn -0.000000 -1.000000 0.000000
vn -0.000000 -1.000000 0.000000
vn 0.000000 0.000000 1.000000
vn 0.000000 0.000000 1.000000
vn 0.000000 0.000000 1.000000
vn -0.000000 1.000000 0.000000
vn -0.000000 1.000000 0.000000
vn -0.000000 1.000000 0.000000
vn -0.000000 0.000000 -1.000000
vn -0.000000 0.000000 -1.000000
vn -0.000000 0.000000 -1.000000
vn -0.000000 1.000000 0.000000
vn -0.000000 1.000000 0.000000
vn -0.000000 1.000000 0.000000
vn -0.000000 1.000000 0.000000
vn -0.000000 1.000000 0.000000
vn -0.000000 1.000000 0.000000
vn 0.000000 1.000000 0.000000
vn 0.000000 1.000000 0.000000
vn 0.000000 1.000000 0.000000
vn -0.000000 1.000000 0.000000
vn -0.000000 1.000000 0.000000
vn -0.000000 1.000000 0.000000
vn -0.000000 1.000000 0.000000
vn -0.000000 1.000000 0.000000
vn -0.000000 1.000000 0.000000
vn -0.000000 1.000000 0.000000
vn -0.000000 1.000000 0.000000
vn -0.000000 1.000000 0.000000
vn 0.000000 1.000000 0.000000
vn 0.000000 1.000000 0.000000
vn 0.000000 1.000000 0.000000
vn -0.000000 1.000000 0.000000
vn -0.000000 1.000000 0.000000
vn -0.000000 1.000000 0.000000
vn -0.000000 1.000000 0.000000
vn -0.000000 1.000000 0.000000
vn -0.000000 1.000000 0.000000
vn -0.000000 1.000000 0.000000
vn -0.000000 1.000000 0.000000
vn -0.000000 1.000000 0.000000
vn -0.000000 1.000000 0.000000
vn -0.000000 1.000000 0.000000
vn -0.000000 1.000000 0.000000
vn -0.000000 0.000000 1.000000
vn -0.000000 0.000000 1.000000
vn -0.000000 0.000000 1.000000
vn 0.000000 0.000000 1.000000
vn 0.000000 0.000000 1.000000
vn 0.000000 0.000000 1.000000
vn -0.000000 0.000000 1.000000
vn -0.000000 0.000000 1.000000
vn -0.000000 0.000000 1.000000
vn -0.000000 0.000000 -1.000000
vn -0.000000 0.000000 -1.000000
vn -0.000000 0.000000 -1.000000
vn 1.000000 0.000000 0.000000
vn 1.000000 0.000000 0.000000
vn 1.000000 0.000000 0.000000
vn 1.000000 0.000000 0.000000
vn 1.000000 0.000000 0.000000
vn 1.000000 0.000000 0.000000
vn -1.000000 0.000000 0.000000
vn -1.000000 0.000000 0.000000
vn -1.000000 0.000000 0.000000
vn -1.000000 0.000000 0.000000
vn -1.000000 0.000000 0.000000
vn -1.000000 0.000000 0.000000
vn -0.000000 -1.000000 0.000000
vn -0.000000 -1.000000 0.000000
vn -0.000000 -1.000000 0.000000
vn -0.000000 -1.000000 0.000000
vn -0.000000 -1.000000 0.000000
vn -0.000000 -1.000000 0.000000
vn -0.000000 1.000000 0.000000
vn -0.000000 1.000000 0.000000
vn -0.000000 1.000000 0.000000
vn -0.000000 1.000000 0.000000
vn -0.000000 1.000000 0.000000
vn -0.000000 1.000000 0.000000
vn -1.000000 0.000000 0.000000
vn -1.000000 0.000000 0.000000
vn -1.000000 0.000000 0.000000
vn -1.000000 0.000000 0.000000
vn -1.000000 0.000000 0.000000
vn -1.000000 0.000000 0.000000
vn 1.000000 0.000000 -0.000001
vn 1.000000 0.000000 -0.000001
vn 1.000000 0.000000 -0.000001
vn 1.000000 0.000000 0.000000
vn 1.000000 0.000000 0.000000
vn 1.000000 0.000000 0.000000
vn -0.000000 -1.000000 0.000000
vn -0.000000 -1.000000 0.000000
vn -0.000000 -1.000000 0.000000
vn -0.000000 -1.000000 0.000000
vn -0.000000 -1.000000 0.000000
vn -0.000000 -1.000000 0.000000
vn -0.000000 1.000000 0.000000
vn -0.000000 1.000000 0.000000
vn -0.000000 1.000000 0.000000
vn -0.000000 1.000000 0.000000
vn -0.000000 1.000000 0.000000
vn -0.000000 1.000000 0.000000
vn -0.000000 0.000000 -1.000000
vn -0.000000 0.000000 -1.000000
vn -0.000000 0.000000 -1.000000
vn -0.000000 0.000000 -1.000000
vn -0.000000 0.000000 -1.000000
vn -0.000000 0.000000 -1.000000
vn -0.000000 0.000000 -1.000000
vn -0.000000 0.000000 -1.000000
vn -0.000000 0.000000 -1.000000
vn -0.000000 0.000000 -1.000000
vn -0.000000 0.000000 -1.000000
vn -0.000000 0.000000 -1.000000
vn -0.000000 0.000000 -1.000000
vn -0.000000 0.000000 -1.000000
vn -0.000000 0.000000 -1.000000
vn -0.000000 0.000000 -1.000000
vn -0.000000 0.000000 -1.000000
vn -0.000000 0.000000 -1.000000
vn -0.000000 0.000000 -1.000000
vn -0.000000 0.000000 -1.000000
vn -0.000000 0.000000 -1.000000
vn -0.000000 0.000000 -1.000000
vn -0.000000 0.000000 -1.000000
vn -0.000000 0.000000 -1.000000
vn -0.000000 0.000000 -1.000000
vn -0.000000 0.000000 -1.000000
vn -0.000000 0.000000 -1.000000
vn -0.000000 -0.000006 -1.000000
vn -0.000000 -0.000006 -1.000000
vn -0.000000 -0.000006 -1.000000
vn -0.000000 0.000000 -1.000000
vn -0.000000 0.000000 -1.000000
vn -0.000000 0.000000 -1.000000
vn -0.000000 0.000000 -1.000000
vn -0.000000 0.000000 -1.000000
vn -0.000000 0.000000 -1.000000
vn -0.000000 0.000000 -1.000000
vn -0.000000 0.000000 -1.000000
vn -0.000000 0.000000 -1.000000
vn -0.000000 0.000000 -1.000000
vn -0.000000 0.000000 -1.000000
vn -0.000000 0.000000 -1.000000
vn -0.000000 0.000011 -1.000000
vn -0.000000 0.000011 -1.000000
vn -0.000000 0.000011 -1.000000
vn -0.000000 0.000000 -1.000000
vn -0.000000 0.000000 -1.000000
vn -0.000000 0.000000 -1.000000
vn -0.000000 0.000000 -1.000000
vn -0.000000 0.000000 -1.000000
vn -0.000000 0.000000 -1.000000
vn -0.000000 0.000000 -1.000000
vn -0.000000 0.000000 -1.000000
vn -0.000000 0.000000 -1.000000
vn 1.000000 0.000000 0.000000
vn 1.000000 0.000000 0.000000
vn 1.000000 0.000000 0.000000
vn 1.000000 0.000000 0.000000
vn 1.000000 0.000000 0.000000
vn 1.000000 0.000000 0.000000
vn -0.000000 -1.000000 0.000000
vn -0.000000 -1.000000 0.000000
vn -0.000000 -1.000000 0.000000
vn -0.000000 -1.000000 0.000000
vn -0.000000 -1.000000 0.000000
vn -0.000000 -1.000000 0.000000
vn -0.000000 1.000000 0.000000
vn -0.000000 1.000000 0.000000
vn -0.000000 1.000000 0.000000
vn -0.000000 1.000000 0.000000
vn -0.000000 1.000000 0.000000
vn -0.000000 1.000000 0.000000
vn -0.000000 1.000000 0.000000
vn -0.000000 1.000000 0.000000
vn -0.000000 1.000000 0.000000
vn -0.000000 1.000000 0.000000
vn -0.000000 1.000000 0.000000
vn -0.000000 1.000000 0.000000
vn -0.000000 1.000000 0.000000
vn -0.000000 1.000000 0.000000
vn -0.000000 1.000000 0.000000
vn -0.000000 1.000000 0.000000
vn -0.000000 1.000000 0.000000
vn -0.000000 1.000000 0.000000
vn -1.000000 0.000000 0.000000
vn -1.000000 0.000000 0.000000
vn -1.000000 0.000000 0.000000
vn -1.000000 0.000000 0.000000
vn -1.000000 0.000000 0.000000
vn -1.000000 0.000000 0.000000
vn -0.000000 -1.000000 0.000000
vn -0.000000 -1.000000 0.000000
vn -0.000000 -1.000000 0.000000
vn -0.000000 -1.000000 0.000000
vn -0.000000 -1.000000 0.000000
vn -0.000000 -1.000000 0.000000
vn -0.000000 -1.000000 0.000000
vn -0.000000 -1.000000 0.000000
vn -0.000000 -1.000000 0.000000
vn 0.000000 -1.000000 0.000000
vn 0.000000 -1.000000 0.000000
vn 0.000000 -1.000000 0.000000
vn 0.000000 0.000000 1.000000
vn 0.000000 0.000000 1.000000
vn 0.000000 0.000000 1.000000
vn 0.000000 0.000000 1.000000
vn 0.000000 0.000000 1.000000
vn 0.000000 0.000000 1.000000
vn -0.000000 0.000000 1.000000
vn -0.000000 0.000000 1.000000
vn -0.000000 0.000000 1.000000
vn -0.000000 0.000000 1.000000
vn -0.000000 0.000000 1.000000
vn -0.000000 0.000000 1.000000
vn -0.000000 0.000000 1.000000
vn -0.000000 0.000000 1.000000
vn -0.000000 0.000000 1.000000
vn -0.000000 0.000000 1.000000
vn -0.000000 0.000000 1.000000
vn -0.000000 0.000000 1.000000

g Material.001
f 3/1/1 1/2/2 2/3/3
f 4/4/4 1/5/5 3/6/6
f 7/7/7 5/8/8 6/9/9
f 8/10/10 5/11/11 7/12/12
f 11/13/13 9/14/14 10/15/15
f 12/16/16 9/17/17 11/18/18
f 15/19/19 13/20/20 14/21/21
f 16/22/22 13/23/23 15/24/24
f 19/25/25 17/26/26 18/27/27
f 20/28/28 17/29/29 19/30/30
f 23/31/31 21/32/32 22/33/33
f 24/34/34 21/35/35 23/36/36
f 27/37/37 25/38/38 26/39/39
f 28/40/40 25/41/41 27/42/42
f 31/43/43 29/44/44 30/45/45
f 32/46/46 29/47/47 31/48/48
f 35/49/49 33/50/50 34/51/51
f 36/52/52 33/53/53 35/54/54
f 39/55/55 37/56/56 38/57/57
f 40/58/58 37/59/59 39/60/60
f 43/61/61 41/62/62 42/63/63
f 44/64/64 41/65/65 43/66/66
f 47/67/67 45/68/68 46/69/69
f 48/70/70 45/71/71 47/72/72
f 51/73/73 49/74/74 50/75/75
f 52/76/76 49/77/77 51/78/78
f 55/79/79 53/80/80 54/81/81
f 56/82/82 53/83/83 55/84/84
f 59/85/85 57/86/86 58/87/87
f 60/88/88 57/89/89 59/90/90
f 63/91/91 61/92/92 62/93/93
f 66/94/94 64/95/95 65/96/96
f 69/97/97 67/98/98 68/99/99
f 72/100/100 70/101/101 71/102/102
f 73/103/103 70/104/104 72/105/105
f 76/106/106 74/107/107 75/108/108
f 77/109/109 74/110/110 76/111/111
f 80/112/112 78/113/113 79/114/114
f 81/115/115 78/116/116 80/117/117
f 188/118/118 186/119/119 187/120/120
f 199/121/121 197/122/122 198/123/123
f 202/124/124 200/125/125 201/126/126
f 205/127/127 203/128/128 204/129/129
f 208/130/130 206/131/131 207/132/132
f 211/133/133 209/134/134 210/135/135
f 214/136/136 212/137/137 213/138/138
f 217/139/139 215/140/140 216/141/141
f 220/142/142 218/143/143 219/144/144

g Material
f 84/145/145 82/146/146 83/147/147
f 85/148/148 82/149/149 84/150/150
f 88/151/151 86/152/152 87/153/153
f 89/154/154 86/155/155 88/156/156
f 92/157/157 90/158/158 91/159/159
f 93/160/160 90/161/161 92/162/162
f 96/163/163 94/164/164 95/165/165
f 97/166/166 94/167/167 96/168/168
f 100/169/169 98/170/170 99/171/171
f 101/172/172 98/173/173 100/174/174
f 104/175/175 102/176/176 103/177/177
f 105/178/178 102/179/179 104/180/180
f 108/181/181 106/182/182 107/183/183
f 109/184/184 106/185/185 108/186/186
f 112/187/187 110/188/188 111/189/189
f 113/190/190 110/191/191 112/192/192
f 116/193/193 114/194/194 115/195/195
f 117/196/196 114/197/197 116/198/198
f 120/199/199 118/200/200 119/201/201
f 121/202/202 118/203/203 120/204/204
f 124/205/205 122/206/206 123/207/207
f 125/208/208 122/209/209 124/210/210
f 128/211/211 126/212/212 127/213/213
f 129/214/214 126/215/215 128/216/216
f 132/217/217 130/218/218 131/219/219
f 133/220/220 130/221/221 132/222/222
f 136/223/223 134/224/224 135/225/225
f 137/226/226 134/227/227 136/228/228
f 140/229/229 138/230/230 139/231/231
f 141/232/232 138/233/233 140/234/234
f 144/235/235 142/236/236 143/237/237
f 145/238/238 142/239/239 144/240/240
f 148/241/241 146/242/242 147/243/243
f 149/244/244 146/245/245 148/246/246
f 152/247/247 150/248/248 151/249/249
f 153/250/250 150/251/251 152/252/252
f 156/253/253 154/254/254 155/255/255
f 157/256/256 154/257/257 156/258/258
f 160/259/259 158/260/260 159/261/261
f 161/262/262 158/263/263 160/264/264
f 164/265/265 162/266/266 163/267/267
f 165/268/268 162/269/269 164/270/270
f 168/271/271 166/272/272 167/273/273
f 169/274/274 166/275/275 168/276/276
f 172/277/277 170/278/278 171/279/279
f 173/280/280 170/281/281 172/282/282
f 176/283/283 174/284/284 175/285/285
f 177/286/286 174/287/287 176/288/288
f 180/289/289 178/290/290 179/291/291
f 181/292/292 178/293/293 180/294/294
f 184/295/295 182/296/296 183/297/297
f 185/298/298 182/299/299 184/300/300
f 191/301/301 189/302/302 190/303/303
f 192/304/304 189/305/305 191/306/306
f 195/307/307 193/308/308 194/309/309
f 196/310/310 193/311/311 195/312/312

