# Converted from B3D for Luanti (With Correct Normals)
# Object Name: multidecor_dark_rusty_fence_4

v -1.900000 0.266667 1.700000
v -1.900000 1.000000 1.700000
v -1.829289 1.000000 1.729289
v -1.829289 0.266667 1.729289
v -1.800000 0.266667 1.800000
v -1.800000 1.000000 1.800000
v -1.829289 1.000000 1.870711
v -1.829289 0.266667 1.870711
v -1.829289 0.266667 1.870711
v -1.829289 1.000000 1.870711
v -1.900000 1.000000 1.900000
v -1.900000 0.266667 1.900000
v -1.800000 1.000000 1.800000
v -1.900000 1.000000 1.700000
v -1.900000 1.000000 1.800000
v -1.829289 -1.000000 1.870711
v -1.900000 -1.000000 1.870711
v -1.900000 -1.000000 1.800000
v -1.829289 0.900000 1.750000
v -0.070710 0.900000 1.750000
v -0.070710 0.864645 1.764645
v -1.829289 0.864645 1.764645
v -1.829289 0.864645 1.764645
v -0.070710 0.864645 1.764645
v -0.070710 0.850000 1.800000
v -1.829289 0.850000 1.800000
v -1.829289 0.850000 1.800000
v -0.070710 0.850000 1.800000
v -0.070710 0.864645 1.835355
v -1.829289 0.864645 1.835355
v -1.829289 0.864645 1.835355
v -0.070710 0.864645 1.835355
v -0.070710 0.900000 1.850000
v -1.829289 0.900000 1.850000
v -1.829289 0.900000 1.850000
v -0.070710 0.900000 1.850000
v -0.070710 0.935355 1.835355
v -1.829289 0.935355 1.835355
v -1.829289 0.935355 1.835355
v -0.070710 0.935355 1.835355
v -0.070710 0.950000 1.800000
v -1.829289 0.950000 1.800000
v -1.829289 0.950000 1.800000
v -0.070710 0.950000 1.800000
v -0.070710 0.935355 1.764645
v -1.829289 0.935355 1.764645
v -1.829289 0.935355 1.764645
v -0.070710 0.935355 1.764645
v -0.070710 0.900000 1.750000
v -1.829289 0.900000 1.750000
v 0.000000 0.266667 1.700000
v 0.000000 1.000000 1.700000
v 0.070711 1.000000 1.729289
v 0.070711 0.266667 1.729289
v 0.070711 0.266667 1.729289
v 0.070711 1.000000 1.729289
v 0.100000 1.000000 1.800000
v 0.100000 0.266667 1.800000
v 0.100000 0.266667 1.800000
v 0.100000 1.000000 1.800000
v 0.070711 1.000000 1.870711
v 0.070711 0.266667 1.870711
v 0.070711 0.266667 1.870711
v 0.070711 1.000000 1.870711
v 0.000000 1.000000 1.900000
v 0.000000 0.266667 1.900000
v 0.000000 0.266667 1.900000
v 0.000000 1.000000 1.900000
v -0.070711 1.000000 1.870711
v -0.070711 0.266667 1.870711
v -0.070711 0.266667 1.870711
v -0.070711 1.000000 1.870711
v -0.100000 1.000000 1.800000
v -0.100000 0.266667 1.800000
v -0.100000 1.000000 1.800000
v 0.000000 1.000000 1.900000
v 0.100000 1.000000 1.800000
v -0.070711 0.266667 1.729289
v -0.070711 1.000000 1.729289
v 0.000000 1.000000 1.700000
v 0.000000 0.266667 1.700000
v -0.070711 -1.000000 1.870711
v -0.100000 -1.000000 1.800000
v -0.070711 -1.000000 1.729289
v -1.800000 1.000000 1.800000
v -1.829289 1.000000 1.729289
v -1.900000 1.000000 1.700000
v -1.829289 1.000000 1.870711
v -1.800000 1.000000 1.800000
v -1.900000 1.000000 1.800000
v -1.900000 1.000000 1.841421
v -1.829289 -1.000000 1.729289
v -1.800000 -1.000000 1.800000
v -1.829289 -1.000000 1.870711
v -1.829289 -1.000000 1.870711
v -1.900000 -1.000000 1.900000
v -1.900000 -1.000000 1.870711
v 0.100000 1.000000 1.800000
v 0.070711 1.000000 1.729289
v 0.000000 1.000000 1.700000
v 0.000000 1.000000 1.700000
v -0.070711 1.000000 1.729289
v -0.100000 1.000000 1.800000
v -0.100000 1.000000 1.800000
v -0.070711 1.000000 1.870711
v 0.000000 1.000000 1.900000
v 0.000000 1.000000 1.900000
v 0.070711 1.000000 1.870711
v 0.100000 1.000000 1.800000
v 0.100000 1.000000 1.800000
v 0.000000 1.000000 1.700000
v -0.100000 1.000000 1.800000
v -0.070711 -1.000000 1.729289
v 0.000000 -1.000000 1.700000
v 0.070711 -1.000000 1.870711
v 0.000000 -1.000000 1.700000
v 0.070711 -1.000000 1.729289
v 0.070711 -1.000000 1.870711
v 0.070711 -1.000000 1.729289
v 0.100000 -1.000000 1.800000
v 0.070711 -1.000000 1.870711
v 0.070711 -1.000000 1.870711
v 0.000000 -1.000000 1.900000
v -0.070711 -1.000000 1.729289
v 0.000000 -1.000000 1.900000
v -0.070711 -1.000000 1.870711
v -0.070711 -1.000000 1.729289
v -1.829289 -0.700000 1.750000
v -0.070710 -0.700000 1.750000
v -0.070710 -0.735355 1.764645
v -1.829289 -0.735355 1.764645
v -1.829289 -0.735355 1.764645
v -0.070710 -0.735355 1.764645
v -0.070710 -0.750000 1.800000
v -1.829289 -0.750000 1.800000
v -1.829289 -0.750000 1.800000
v -0.070710 -0.750000 1.800000
v -0.070710 -0.735355 1.835355
v -1.829289 -0.735355 1.835355
v -1.829289 -0.735355 1.835355
v -0.070710 -0.735355 1.835355
v -0.070710 -0.700000 1.850000
v -1.829289 -0.700000 1.850000
v -1.829289 -0.700000 1.850000
v -0.070710 -0.700000 1.850000
v -0.070710 -0.664645 1.835355
v -1.829289 -0.664645 1.835355
v -1.829289 -0.664645 1.835355
v -0.070710 -0.664645 1.835355
v -0.070710 -0.650000 1.800000
v -1.829289 -0.650000 1.800000
v -1.829289 -0.650000 1.800000
v -0.070710 -0.650000 1.800000
v -0.070710 -0.664645 1.764645
v -1.829289 -0.664645 1.764645
v -1.829289 -0.664645 1.764645
v -0.070710 -0.664645 1.764645
v -0.070710 -0.700000 1.750000
v -1.829289 -0.700000 1.750000
v -1.829289 -0.650000 1.800000
v -1.829289 0.850000 1.800000
v -0.070710 0.850000 1.800000
v -0.070710 -0.650000 1.800000
v -0.070711 1.000000 1.729289
v -0.070711 0.266667 1.729289
v -0.085355 0.266667 1.764645
v -1.800000 1.000000 1.800000
v -1.800000 0.266667 1.800000
v -1.814645 0.266667 1.764645
v -0.085355 -0.066667 1.764645
v -0.070711 -0.066667 1.729289
v -0.070711 -1.000000 1.729289
v -0.070711 -1.000000 1.729289
v -0.070711 -0.066667 1.729289
v 0.000000 -0.066667 1.700000
v 0.000000 -1.000000 1.700000
v -0.070711 -0.066667 1.729289
v -0.070711 0.266667 1.729289
v 0.000000 0.266667 1.700000
v 0.000000 -0.066667 1.700000
v -0.070711 -1.000000 1.870711
v -0.070711 -0.066667 1.870711
v -0.100000 -0.066667 1.800000
v -0.100000 -1.000000 1.800000
v -0.070711 -0.066667 1.870711
v -0.070711 0.266667 1.870711
v -0.100000 0.266667 1.800000
v -0.100000 -0.066667 1.800000
v 0.000000 -1.000000 1.900000
v 0.000000 -0.066667 1.900000
v -0.070711 -0.066667 1.870711
v -0.070711 -1.000000 1.870711
v 0.000000 -0.066667 1.900000
v 0.000000 0.266667 1.900000
v -0.070711 0.266667 1.870711
v -0.070711 -0.066667 1.870711
v 0.070711 -1.000000 1.870711
v 0.070711 -0.066667 1.870711
v 0.000000 -0.066667 1.900000
v 0.000000 -1.000000 1.900000
v 0.070711 -0.066667 1.870711
v 0.070711 0.266667 1.870711
v 0.000000 0.266667 1.900000
v 0.000000 -0.066667 1.900000
v 0.100000 -1.000000 1.800000
v 0.100000 -0.066667 1.800000
v 0.070711 -0.066667 1.870711
v 0.070711 -1.000000 1.870711
v 0.100000 -0.066667 1.800000
v 0.100000 0.266667 1.800000
v 0.070711 0.266667 1.870711
v 0.070711 -0.066667 1.870711
v 0.070711 -1.000000 1.729289
v 0.070711 -0.066667 1.729289
v 0.100000 -0.066667 1.800000
v 0.100000 -1.000000 1.800000
v 0.070711 -0.066667 1.729289
v 0.070711 0.266667 1.729289
v 0.100000 0.266667 1.800000
v 0.100000 -0.066667 1.800000
v 0.000000 -1.000000 1.700000
v 0.000000 -0.066667 1.700000
v 0.070711 -0.066667 1.729289
v 0.070711 -1.000000 1.729289
v 0.000000 -0.066667 1.700000
v 0.000000 0.266667 1.700000
v 0.070711 0.266667 1.729289
v 0.070711 -0.066667 1.729289
v -1.814645 -0.066667 1.764645
v -1.800000 -0.066667 1.800000
v -1.800000 -1.000000 1.800000
v -1.829289 -1.000000 1.870711
v -1.829289 -0.066667 1.870711
v -1.900000 -0.066667 1.900000
v -1.900000 -1.000000 1.900000
v -1.829289 -0.066667 1.870711
v -1.829289 0.266667 1.870711
v -1.900000 0.266667 1.900000
v -1.900000 -0.066667 1.900000
v -1.800000 -1.000000 1.800000
v -1.800000 -0.066667 1.800000
v -1.829289 -0.066667 1.870711
v -1.829289 -1.000000 1.870711
v -1.800000 -0.066667 1.800000
v -1.800000 0.266667 1.800000
v -1.829289 0.266667 1.870711
v -1.829289 -0.066667 1.870711
v -1.900000 -1.000000 1.700000
v -1.900000 -0.066667 1.700000
v -1.829289 -0.066667 1.729289
v -1.829289 -1.000000 1.729289
v -1.900000 -0.066667 1.700000
v -1.900000 0.266667 1.700000
v -1.829289 0.266667 1.729289
v -1.829289 -0.066667 1.729289
v -0.070711 -0.066667 1.729289
v -1.829289 -0.066667 1.729289
v -1.829289 0.266667 1.729289
v -0.070711 0.266667 1.729289
v -1.814645 0.266667 1.764645
v -1.814645 -0.066667 1.764645
v -0.085355 -0.066667 1.764645
v -0.085355 0.266667 1.764645
v -0.085355 -0.066667 1.764645
v -1.814645 -0.066667 1.764645
v -1.829289 -0.066667 1.729289
v -0.070711 -0.066667 1.729289
v -0.085355 0.266667 1.764645
v -0.070711 0.266667 1.729289
v -1.829289 0.266667 1.729289
v -1.814645 0.266667 1.764645
v -0.100000 -0.066667 1.800000
v -0.100000 0.266667 1.800000
v -0.085355 0.266667 1.764645
v -0.085355 -0.066667 1.764645
v -1.800000 -0.066667 1.800000
v -1.814645 -0.066667 1.764645
v -1.814645 0.266667 1.764645
v -1.800000 0.266667 1.800000
v -0.085355 0.266667 1.764645
v -0.100000 0.266667 1.800000
v -0.100000 1.000000 1.800000
v -0.100000 1.000000 1.800000
v -0.070711 1.000000 1.729289
v -0.085355 0.266667 1.764645
v -1.814645 0.266667 1.764645
v -1.829289 0.266667 1.729289
v -1.829289 1.000000 1.729289
v -1.829289 1.000000 1.729289
v -1.800000 1.000000 1.800000
v -1.814645 0.266667 1.764645
v -0.070711 -1.000000 1.729289
v -0.100000 -1.000000 1.800000
v -0.085355 -0.066667 1.764645
v -0.100000 -1.000000 1.800000
v -0.100000 -0.066667 1.800000
v -0.085355 -0.066667 1.764645
v -1.800000 -1.000000 1.800000
v -1.829289 -1.000000 1.729289
v -1.814645 -0.066667 1.764645
v -1.829289 -1.000000 1.729289
v -1.829289 -0.066667 1.729289
v -1.814645 -0.066667 1.764645
v -1.900000 1.000000 1.841421
v -1.900000 1.000000 1.900000
v -1.829289 1.000000 1.870711
v -1.900000 -1.000000 1.729289
v -1.900000 -1.000000 1.700000
v -1.829289 -1.000000 1.729289
v -1.900000 -1.000000 1.800000
v -1.900000 -1.000000 1.729289
v -1.829289 -1.000000 1.729289
v -1.829289 -1.000000 1.870711
v -0.092335 0.266667 -0.100000
v -0.092335 1.000000 -0.100000
v -0.063046 1.000000 -0.029289
v -0.063046 0.266667 -0.029289
v 0.007665 0.266667 -0.000000
v 0.007665 1.000000 -0.000000
v 0.078375 1.000000 -0.029289
v 0.078375 0.266667 -0.029289
v 0.078375 0.266667 -0.029289
v 0.078375 1.000000 -0.029289
v 0.107664 1.000000 -0.100000
v 0.107664 0.266667 -0.100000
v 0.007665 1.000000 -0.000000
v -0.092335 1.000000 -0.100000
v 0.007665 1.000000 -0.100000
v 0.078375 -1.000000 -0.029289
v 0.078375 -1.000000 -0.100000
v 0.007665 -1.000000 -0.100000
v -0.042336 0.900000 -0.029289
v -0.042335 0.900000 1.729290
v -0.027691 0.864645 1.729290
v -0.027691 0.864645 -0.029289
v -0.027691 0.864645 -0.029289
v -0.027691 0.864645 1.729290
v 0.007665 0.850000 1.729290
v 0.007665 0.850000 -0.029289
v 0.007665 0.850000 -0.029289
v 0.007665 0.850000 1.729290
v 0.043020 0.864645 1.729290
v 0.043020 0.864645 -0.029289
v 0.043020 0.864645 -0.029289
v 0.043020 0.864645 1.729290
v 0.057665 0.900000 1.729290
v 0.057665 0.900000 -0.029289
v 0.057665 0.900000 -0.029289
v 0.057665 0.900000 1.729290
v 0.043020 0.935355 1.729290
v 0.043020 0.935355 -0.029289
v 0.043020 0.935355 -0.029289
v 0.043020 0.935355 1.729290
v 0.007665 0.950000 1.729290
v 0.007665 0.950000 -0.029289
v 0.007665 0.950000 -0.029289
v 0.007665 0.950000 1.729290
v -0.027691 0.935355 1.729290
v -0.027691 0.935355 -0.029289
v -0.027691 0.935355 -0.029289
v -0.027691 0.935355 1.729290
v -0.042335 0.900000 1.729290
v -0.042336 0.900000 -0.029289
v 0.007665 1.000000 -0.000000
v -0.063046 1.000000 -0.029289
v -0.092335 1.000000 -0.100000
v 0.078375 1.000000 -0.029289
v 0.007665 1.000000 -0.000000
v 0.007665 1.000000 -0.100000
v 0.049086 1.000000 -0.100000
v -0.063046 -1.000000 -0.029289
v 0.007665 -1.000000 -0.000000
v 0.078375 -1.000000 -0.029289
v 0.078375 -1.000000 -0.029289
v 0.107664 -1.000000 -0.100000
v 0.078375 -1.000000 -0.100000
v -0.042336 -0.700000 -0.029289
v -0.042335 -0.700000 1.729290
v -0.027691 -0.735355 1.729290
v -0.027691 -0.735355 -0.029289
v -0.027691 -0.735355 -0.029289
v -0.027691 -0.735355 1.729290
v 0.007665 -0.750000 1.729290
v 0.007665 -0.750000 -0.029289
v 0.007665 -0.750000 -0.029289
v 0.007665 -0.750000 1.729290
v 0.043020 -0.735355 1.729290
v 0.043020 -0.735355 -0.029289
v 0.043020 -0.735355 -0.029289
v 0.043020 -0.735355 1.729290
v 0.057665 -0.700000 1.729290
v 0.057665 -0.700000 -0.029289
v 0.057665 -0.700000 -0.029289
v 0.057665 -0.700000 1.729290
v 0.043020 -0.664645 1.729290
v 0.043020 -0.664645 -0.029289
v 0.043020 -0.664645 -0.029289
v 0.043020 -0.664645 1.729290
v 0.007665 -0.650000 1.729290
v 0.007665 -0.650000 -0.029289
v 0.007665 -0.650000 -0.029289
v 0.007665 -0.650000 1.729290
v -0.027691 -0.664645 1.729290
v -0.027691 -0.664645 -0.029289
v -0.027691 -0.664645 -0.029289
v -0.027691 -0.664645 1.729290
v -0.042335 -0.700000 1.729290
v -0.042336 -0.700000 -0.029289
v 0.007665 -0.650000 -0.029289
v 0.007665 0.850000 -0.029289
v 0.007665 0.850000 1.729290
v 0.007665 -0.650000 1.729290
v 0.007665 1.000000 -0.000000
v 0.007665 0.266667 -0.000000
v -0.027691 0.266667 -0.014645
v -0.027691 -0.066667 -0.014645
v 0.007665 -0.066667 -0.000000
v 0.007665 -1.000000 -0.000000
v 0.078375 -1.000000 -0.029289
v 0.078375 -0.066667 -0.029289
v 0.107664 -0.066667 -0.100000
v 0.107664 -1.000000 -0.100000
v 0.078375 -0.066667 -0.029289
v 0.078375 0.266667 -0.029289
v 0.107664 0.266667 -0.100000
v 0.107664 -0.066667 -0.100000
v 0.007665 -1.000000 -0.000000
v 0.007665 -0.066667 -0.000000
v 0.078375 -0.066667 -0.029289
v 0.078375 -1.000000 -0.029289
v 0.007665 -0.066667 -0.000000
v 0.007665 0.266667 -0.000000
v 0.078375 0.266667 -0.029289
v 0.078375 -0.066667 -0.029289
v -0.092335 -1.000000 -0.100000
v -0.092335 -0.066667 -0.100000
v -0.063046 -0.066667 -0.029289
v -0.063046 -1.000000 -0.029289
v -0.092335 -0.066667 -0.100000
v -0.092335 0.266667 -0.100000
v -0.063046 0.266667 -0.029289
v -0.063046 -0.066667 -0.029289
v -0.063046 -0.066667 1.729289
v -0.063046 -0.066667 -0.029289
v -0.063046 0.266667 -0.029289
v -0.063046 0.266667 1.729289
v -0.027691 0.266667 -0.014645
v -0.027691 -0.066667 -0.014645
v -0.027691 -0.066667 1.714644
v -0.027691 0.266667 1.714644
v -0.027691 -0.066667 1.714644
v -0.027691 -0.066667 -0.014645
v -0.063046 -0.066667 -0.029289
v -0.063046 -0.066667 1.729289
v -0.027691 0.266667 1.714644
v -0.063046 0.266667 1.729289
v -0.063046 0.266667 -0.029289
v -0.027691 0.266667 -0.014645
v 0.007665 -0.066667 -0.000000
v -0.027691 -0.066667 -0.014645
v -0.027691 0.266667 -0.014645
v 0.007665 0.266667 -0.000000
v -0.027691 0.266667 -0.014645
v -0.063046 0.266667 -0.029289
v -0.063046 1.000000 -0.029289
v -0.063046 1.000000 -0.029289
v 0.007665 1.000000 -0.000000
v -0.027691 0.266667 -0.014645
v 0.007665 -1.000000 -0.000000
v -0.063046 -1.000000 -0.029289
v -0.027691 -0.066667 -0.014645
v -0.063046 -1.000000 -0.029289
v -0.063046 -0.066667 -0.029289
v -0.027691 -0.066667 -0.014645
v 0.049086 1.000000 -0.100000
v 0.107664 1.000000 -0.100000
v 0.078375 1.000000 -0.029289
v -0.063046 -1.000000 -0.100000
v -0.092335 -1.000000 -0.100000
v -0.063046 -1.000000 -0.029289
v 0.007665 -1.000000 -0.100000
v -0.063046 -1.000000 -0.100000
v -0.063046 -1.000000 -0.029289
v 0.078375 -1.000000 -0.029289

vt 0.319703 0.437835
vt 0.261166 0.998708
vt 0.261165 0.437835
vt 0.319703 0.998708
vt 0.261166 0.998708
vt 0.319703 0.437835
vt 0.436778 0.437835
vt 0.378241 0.998708
vt 0.378240 0.437835
vt 0.436778 0.998708
vt 0.378241 0.998708
vt 0.436778 0.437835
vt 0.495315 0.437835
vt 0.436778 0.998708
vt 0.436778 0.437835
vt 0.495315 0.998708
vt 0.436778 0.998708
vt 0.495315 0.437835
vt 0.691646 0.354978
vt 0.762307 0.325710
vt 0.720915 0.425639
vt 0.691646 0.212987
vt 0.620985 0.242256
vt 0.641681 0.192291
vt 0.999387 0.970385
vt -0.000878 0.941123
vt 0.999387 0.941117
vt -0.000878 0.970394
vt -0.000878 0.941123
vt 0.999387 0.970385
vt 0.999387 0.999653
vt -0.000878 0.970394
vt 0.999387 0.970385
vt -0.000878 0.999665
vt -0.000878 0.970394
vt 0.999387 0.999653
vt 0.999387 0.794778
vt -0.000877 0.765496
vt 0.999387 0.765510
vt -0.000878 0.794767
vt -0.000877 0.765496
vt 0.999387 0.794778
vt 0.999387 0.824046
vt -0.000878 0.794767
vt 0.999387 0.794778
vt -0.000878 0.824038
vt -0.000878 0.794767
vt 0.999387 0.824046
vt 0.999387 0.853314
vt -0.000878 0.824039
vt 0.999387 0.824046
vt -0.000878 0.853309
vt -0.000878 0.824039
vt 0.999387 0.853314
vt 0.999387 0.882582
vt -0.000878 0.853310
vt 0.999387 0.853314
vt -0.000878 0.882580
vt -0.000878 0.853310
vt 0.999387 0.882582
vt 0.999387 0.911850
vt -0.000878 0.882581
vt 0.999387 0.882582
vt -0.000878 0.911852
vt -0.000878 0.882581
vt 0.999387 0.911850
vt 0.999387 0.941117
vt -0.000878 0.911852
vt 0.999387 0.911850
vt -0.000878 0.941123
vt -0.000878 0.911852
vt 0.999387 0.941117
vt 0.288233 0.437835
vt 0.229695 0.998709
vt 0.229695 0.437835
vt 0.288232 0.998709
vt 0.229695 0.998709
vt 0.288233 0.437835
vt 0.346770 0.437835
vt 0.288232 0.998709
vt 0.288233 0.437835
vt 0.346770 0.998709
vt 0.288232 0.998709
vt 0.346770 0.437835
vt 0.405308 0.437835
vt 0.346770 0.998709
vt 0.346770 0.437835
vt 0.405307 0.998709
vt 0.346770 0.998709
vt 0.405308 0.437835
vt 0.463845 0.437835
vt 0.405307 0.998709
vt 0.405308 0.437835
vt 0.463845 0.998709
vt 0.405307 0.998709
vt 0.463845 0.437835
vt 0.054083 0.437835
vt -0.004455 0.998708
vt -0.004454 0.437835
vt 0.054082 0.998708
vt -0.004455 0.998708
vt 0.054083 0.437835
vt 0.112620 0.437835
vt 0.054082 0.998708
vt 0.054083 0.437835
vt 0.112620 0.998708
vt 0.054082 0.998708
vt 0.112620 0.437835
vt 0.662377 0.426309
vt 0.720914 0.567630
vt 0.620985 0.526238
vt 0.229695 0.437835
vt 0.171158 0.998708
vt 0.171158 0.437835
vt 0.229695 0.998709
vt 0.171158 0.998708
vt 0.229695 0.437835
vt 0.762307 0.100264
vt 0.720915 0.000335
vt 0.762307 0.041727
vt 0.720915 0.425639
vt 0.762307 0.325709
vt 0.762307 0.384247
vt 0.691646 0.354978
vt 0.720915 0.284317
vt 0.762307 0.325710
vt 0.679522 0.325710
vt 0.720915 0.284317
vt 0.691646 0.354978
vt 0.620984 0.242256
vt 0.720914 0.283648
vt 0.662377 0.283648
vt 0.641681 0.192291
vt 0.620985 0.242256
vt 0.620985 0.183718
vt 0.762307 0.467701
vt 0.662377 0.426309
vt 0.720915 0.426309
vt 0.720914 0.567630
vt 0.762307 0.467701
vt 0.762307 0.526238
vt 0.620985 0.526238
vt 0.720914 0.567630
vt 0.662377 0.567630
vt 0.662377 0.426309
vt 0.620985 0.526238
vt 0.620985 0.467701
vt 0.720914 0.567630
vt 0.662377 0.426309
vt 0.762307 0.467701
vt 0.620985 0.041727
vt 0.762307 0.100264
vt 0.720915 0.141657
vt 0.620985 0.041727
vt 0.720915 0.141657
vt 0.662377 0.141657
vt 0.620985 0.041727
vt 0.662377 0.141657
vt 0.620985 0.100264
vt 0.762307 0.100264
vt 0.620985 0.041727
vt 0.662377 0.000335
vt 0.762307 0.100264
vt 0.662377 0.000335
vt 0.720915 0.000335
vt 0.996457 0.555975
vt -0.000549 0.526700
vt 0.996457 0.526707
vt -0.000549 0.555971
vt -0.000549 0.526700
vt 0.996457 0.555975
vt 0.996457 0.585243
vt -0.000549 0.555971
vt 0.996457 0.555975
vt -0.000549 0.585242
vt -0.000549 0.555971
vt 0.996457 0.585243
vt 0.996457 0.614511
vt -0.000549 0.585242
vt 0.996457 0.585243
vt -0.000549 0.614513
vt -0.000549 0.585242
vt 0.996457 0.614511
vt 0.996457 0.643779
vt -0.000549 0.614513
vt 0.996457 0.614511
vt -0.000549 0.643784
vt -0.000549 0.614513
vt 0.996457 0.643779
vt 0.996457 0.673047
vt -0.000549 0.643784
vt 0.996457 0.643779
vt -0.000549 0.673055
vt -0.000549 0.643784
vt 0.996457 0.673047
vt 0.996457 0.702315
vt -0.000549 0.673056
vt 0.996457 0.673047
vt -0.000549 0.702326
vt -0.000549 0.673056
vt 0.996457 0.702315
vt 0.996457 0.497439
vt -0.000548 0.468158
vt 0.996457 0.468172
vt -0.000548 0.497428
vt -0.000548 0.468158
vt 0.996457 0.497439
vt 0.996457 0.526707
vt -0.000548 0.497429
vt 0.996457 0.497439
vt -0.000549 0.526700
vt -0.000548 0.497429
vt 0.996457 0.526707
vt 0.141889 0.998708
vt 0.171158 0.437835
vt 0.171158 0.998708
vt 0.348972 0.998708
vt 0.378240 0.437835
vt 0.378241 0.998708
vt 0.671157 0.967487
vt 0.641889 0.253652
vt 0.671158 0.253652
vt 0.729695 0.253651
vt 0.671157 0.967487
vt 0.671158 0.253652
vt 0.729695 0.967488
vt 0.671157 0.967487
vt 0.729695 0.253651
vt 0.729695 -0.001291
vt 0.671158 0.253652
vt 0.671158 -0.001292
vt 0.729695 0.253651
vt 0.671158 0.253652
vt 0.729695 -0.001291
vt 0.612620 0.253652
vt 0.554082 0.967487
vt 0.554083 0.253652
vt 0.612620 0.967487
vt 0.554082 0.967487
vt 0.612620 0.253652
vt 0.612620 -0.001292
vt 0.554083 0.253652
vt 0.554082 -0.001292
vt 0.612620 0.253652
vt 0.554083 0.253652
vt 0.612620 -0.001292
vt 0.554083 0.253652
vt 0.495545 0.967487
vt 0.495545 0.253652
vt 0.554082 0.967487
vt 0.495545 0.967487
vt 0.554083 0.253652
vt 0.554082 -0.001292
vt 0.495545 0.253652
vt 0.495545 -0.001292
vt 0.554083 0.253652
vt 0.495545 0.253652
vt 0.554082 -0.001292
vt 0.963844 0.253651
vt 0.905308 0.967488
vt 0.905307 0.253651
vt 0.963845 0.967488
vt 0.905308 0.967488
vt 0.963844 0.253651
vt 0.963845 -0.001291
vt 0.905307 0.253651
vt 0.905307 -0.001291
vt 0.963844 0.253651
vt 0.905307 0.253651
vt 0.963845 -0.001291
vt 0.905307 0.253651
vt 0.846770 0.967488
vt 0.846770 0.253651
vt 0.905308 0.967488
vt 0.846770 0.967488
vt 0.905307 0.253651
vt 0.905307 -0.001291
vt 0.846770 0.253651
vt 0.846770 -0.001291
vt 0.905307 0.253651
vt 0.846770 0.253651
vt 0.905307 -0.001291
vt 0.846770 0.253651
vt 0.788232 0.967488
vt 0.788233 0.253651
vt 0.846770 0.967488
vt 0.788232 0.967488
vt 0.846770 0.253651
vt 0.846770 -0.001291
vt 0.788233 0.253651
vt 0.788232 -0.001291
vt 0.846770 0.253651
vt 0.788233 0.253651
vt 0.846770 -0.001291
vt 0.788233 0.253651
vt 0.729695 0.967488
vt 0.729695 0.253651
vt 0.788232 0.967488
vt 0.729695 0.967488
vt 0.788233 0.253651
vt 0.788232 -0.001291
vt 0.729695 0.253651
vt 0.729695 -0.001291
vt 0.788233 0.253651
vt 0.729695 0.253651
vt 0.788232 -0.001291
vt 0.878240 0.967487
vt 0.848972 0.253651
vt 0.878241 0.253651
vt 0.995316 0.253651
vt 0.936778 0.967487
vt 0.936778 0.253651
vt 0.995315 0.967487
vt 0.936778 0.967487
vt 0.995316 0.253651
vt 0.995316 -0.001292
vt 0.936778 0.253651
vt 0.936778 -0.001292
vt 0.995316 0.253651
vt 0.936778 0.253651
vt 0.995316 -0.001292
vt 0.936778 0.253651
vt 0.878240 0.967487
vt 0.878241 0.253651
vt 0.936778 0.967487
vt 0.878240 0.967487
vt 0.936778 0.253651
vt 0.936778 -0.001292
vt 0.878241 0.253651
vt 0.878241 -0.001292
vt 0.936778 0.253651
vt 0.878241 0.253651
vt 0.936778 -0.001292
vt 0.819703 0.253651
vt 0.761165 0.967487
vt 0.761166 0.253651
vt 0.819703 0.967487
vt 0.761165 0.967487
vt 0.819703 0.253651
vt 0.819703 -0.001292
vt 0.761165 0.253651
vt 0.761166 -0.001292
vt 0.819703 0.253651
vt 0.761165 0.253651
vt 0.819703 -0.001292
vt 0.641889 -0.001292
vt 0.612620 0.253652
vt 0.612620 -0.001292
vt 0.641889 0.253652
vt 0.612620 0.253652
vt 0.641889 -0.001292
vt 0.848972 -0.001292
vt 0.878241 0.253651
vt 0.848972 0.253651
vt 0.878241 -0.001292
vt 0.878241 0.253651
vt 0.848972 -0.001292
vt 0.112620 0.437835
vt 0.141889 0.998708
vt 0.112620 0.998708
vt 0.141889 0.998708
vt 0.112620 0.437835
vt 0.171158 0.437835
vt 0.319703 0.437835
vt 0.348972 0.998708
vt 0.319703 0.998708
vt 0.348972 0.998708
vt 0.319703 0.437835
vt 0.378240 0.437835
vt 0.641889 0.253652
vt 0.671157 0.967487
vt 0.612620 0.967487
vt 0.641889 0.253652
vt 0.612620 0.967487
vt 0.612620 0.253652
vt 0.848972 0.253651
vt 0.878240 0.967487
vt 0.819703 0.967487
vt 0.848972 0.253651
vt 0.819703 0.967487
vt 0.819703 0.253651
vt 0.720915 0.284317
vt 0.679523 0.325710
vt 0.662377 0.284317
vt 0.720915 0.283648
vt 0.741611 0.233683
vt 0.762307 0.242256
vt 0.720915 0.283648
vt 0.691646 0.212987
vt 0.741611 0.233683
vt 0.620985 0.242256
vt 0.691646 0.212987
vt 0.720915 0.283648
vt 0.319703 0.437835
vt 0.261166 0.998708
vt 0.261165 0.437835
vt 0.319703 0.998708
vt 0.261166 0.998708
vt 0.319703 0.437835
vt 0.436778 0.437835
vt 0.378241 0.998708
vt 0.378240 0.437835
vt 0.436778 0.998708
vt 0.378241 0.998708
vt 0.436778 0.437835
vt 0.495315 0.437835
vt 0.436778 0.998708
vt 0.436778 0.437835
vt 0.495315 0.998708
vt 0.436778 0.998708
vt 0.495315 0.437835
vt 0.691646 0.354978
vt 0.762307 0.325710
vt 0.720915 0.425639
vt 0.691646 0.212987
vt 0.620985 0.242256
vt 0.641681 0.192291
vt 0.999387 0.970385
vt -0.000878 0.941123
vt 0.999387 0.941117
vt -0.000878 0.970394
vt -0.000878 0.941123
vt 0.999387 0.970385
vt 0.999387 0.999653
vt -0.000878 0.970394
vt 0.999387 0.970385
vt -0.000878 0.999665
vt -0.000878 0.970394
vt 0.999387 0.999653
vt 0.999387 0.794778
vt -0.000877 0.765496
vt 0.999387 0.765510
vt -0.000878 0.794767
vt -0.000877 0.765496
vt 0.999387 0.794778
vt 0.999387 0.824046
vt -0.000878 0.794767
vt 0.999387 0.794778
vt -0.000878 0.824038
vt -0.000878 0.794767
vt 0.999387 0.824046
vt 0.999387 0.853314
vt -0.000878 0.824039
vt 0.999387 0.824046
vt -0.000878 0.853309
vt -0.000878 0.824039
vt 0.999387 0.853314
vt 0.999387 0.882582
vt -0.000878 0.853310
vt 0.999387 0.853314
vt -0.000878 0.882580
vt -0.000878 0.853310
vt 0.999387 0.882582
vt 0.999387 0.911850
vt -0.000878 0.882581
vt 0.999387 0.882582
vt -0.000878 0.911852
vt -0.000878 0.882581
vt 0.999387 0.911850
vt 0.999387 0.941117
vt -0.000878 0.911852
vt 0.999387 0.911850
vt -0.000878 0.941123
vt -0.000878 0.911852
vt 0.999387 0.941117
vt 0.720915 0.425639
vt 0.762307 0.325709
vt 0.762307 0.384247
vt 0.691646 0.354978
vt 0.720915 0.284317
vt 0.762307 0.325710
vt 0.679522 0.325710
vt 0.720915 0.284317
vt 0.691646 0.354978
vt 0.620984 0.242256
vt 0.720914 0.283648
vt 0.662377 0.283648
vt 0.641681 0.192291
vt 0.620985 0.242256
vt 0.620985 0.183718
vt 0.996457 0.555975
vt -0.000549 0.526700
vt 0.996457 0.526707
vt -0.000549 0.555971
vt -0.000549 0.526700
vt 0.996457 0.555975
vt 0.996457 0.585243
vt -0.000549 0.555971
vt 0.996457 0.555975
vt -0.000549 0.585242
vt -0.000549 0.555971
vt 0.996457 0.585243
vt 0.996457 0.614511
vt -0.000549 0.585242
vt 0.996457 0.585243
vt -0.000549 0.614513
vt -0.000549 0.585242
vt 0.996457 0.614511
vt 0.996457 0.643779
vt -0.000549 0.614513
vt 0.996457 0.614511
vt -0.000549 0.643784
vt -0.000549 0.614513
vt 0.996457 0.643779
vt 0.996457 0.673047
vt -0.000549 0.643784
vt 0.996457 0.643779
vt -0.000549 0.673055
vt -0.000549 0.643784
vt 0.996457 0.673047
vt 0.996457 0.702315
vt -0.000549 0.673056
vt 0.996457 0.673047
vt -0.000549 0.702326
vt -0.000549 0.673056
vt 0.996457 0.702315
vt 0.996457 0.497439
vt -0.000548 0.468158
vt 0.996457 0.468172
vt -0.000548 0.497428
vt -0.000548 0.468158
vt 0.996457 0.497439
vt 0.996457 0.526707
vt -0.000548 0.497429
vt 0.996457 0.497439
vt -0.000549 0.526700
vt -0.000548 0.497429
vt 0.996457 0.526707
vt 0.348972 0.998708
vt 0.378240 0.437835
vt 0.378241 0.998708
vt 0.878240 0.967487
vt 0.848972 0.253651
vt 0.878241 0.253651
vt 0.995316 0.253651
vt 0.936778 0.967487
vt 0.936778 0.253651
vt 0.995315 0.967487
vt 0.936778 0.967487
vt 0.995316 0.253651
vt 0.995316 -0.001292
vt 0.936778 0.253651
vt 0.936778 -0.001292
vt 0.995316 0.253651
vt 0.936778 0.253651
vt 0.995316 -0.001292
vt 0.936778 0.253651
vt 0.878240 0.967487
vt 0.878241 0.253651
vt 0.936778 0.967487
vt 0.878240 0.967487
vt 0.936778 0.253651
vt 0.936778 -0.001292
vt 0.878241 0.253651
vt 0.878241 -0.001292
vt 0.936778 0.253651
vt 0.878241 0.253651
vt 0.936778 -0.001292
vt 0.819703 0.253651
vt 0.761165 0.967487
vt 0.761166 0.253651
vt 0.819703 0.967487
vt 0.761165 0.967487
vt 0.819703 0.253651
vt 0.819703 -0.001292
vt 0.761165 0.253651
vt 0.761166 -0.001292
vt 0.819703 0.253651
vt 0.761165 0.253651
vt 0.819703 -0.001292
vt 0.848972 -0.001292
vt 0.878241 0.253651
vt 0.848972 0.253651
vt 0.878241 -0.001292
vt 0.878241 0.253651
vt 0.848972 -0.001292
vt 0.319703 0.437835
vt 0.348972 0.998708
vt 0.319703 0.998708
vt 0.348972 0.998708
vt 0.319703 0.437835
vt 0.378240 0.437835
vt 0.848972 0.253651
vt 0.878240 0.967487
vt 0.819703 0.967487
vt 0.848972 0.253651
vt 0.819703 0.967487
vt 0.819703 0.253651
vt 0.720915 0.284317
vt 0.679523 0.325710
vt 0.662377 0.284317
vt 0.720915 0.283648
vt 0.741611 0.233683
vt 0.762307 0.242256
vt 0.720915 0.283648
vt 0.691646 0.212987
vt 0.741611 0.233683
vt 0.620985 0.242256
vt 0.691646 0.212987
vt 0.720915 0.283648
vt 0.997963 0.525177
vt -0.004968 0.474824
vt 0.471321 -0.001466
vt 0.521674 1.001466
vt -0.004968 0.474824
vt 0.997963 0.525177
vt 0.997963 0.525177
vt -0.004968 0.474824
vt 0.471321 -0.001466
vt 0.521674 1.001466
vt -0.004968 0.474824
vt 0.997963 0.525177
vt 0.999933 0.444592
vt 0.000067 0.243646
vt 0.999933 0.243644
vt 0.000067 0.444595
vt 0.000067 0.243646
vt 0.999933 0.444592
vt 0.008897 0.222329
vt 0.991105 0.021382
vt 0.991104 0.222330
vt 0.008897 0.021381
vt 0.991105 0.021382
vt 0.008897 0.222329
vt 0.999878 0.243644
vt 0.008897 0.222329
vt 0.991160 0.222330
vt 0.000067 0.243646
vt 0.008897 0.222329
vt 0.999878 0.243644
vt 0.999879 0.000067
vt 0.008897 0.021381
vt 0.000069 0.000067
vt 0.991160 0.021382
vt 0.008897 0.021381
vt 0.999879 0.000067
vt 0.999933 0.444592
vt 0.000067 0.243646
vt 0.999933 0.243644
vt 0.000067 0.444595
vt 0.000067 0.243646
vt 0.999933 0.444592
vt 0.008897 0.222329
vt 0.991105 0.021382
vt 0.991104 0.222330
vt 0.008897 0.021381
vt 0.991105 0.021382
vt 0.008897 0.222329
vt 0.999878 0.243644
vt 0.008897 0.222329
vt 0.991160 0.222330
vt 0.000067 0.243646
vt 0.008897 0.222329
vt 0.999878 0.243644
vt 0.999879 0.000067
vt 0.008897 0.021381
vt 0.000069 0.000067
vt 0.991160 0.021382
vt 0.008897 0.021381
vt 0.999879 0.000067

vn 0.382683 0.000000 -0.923880
vn 0.382683 0.000000 -0.923880
vn 0.382683 0.000000 -0.923880
vn 0.382682 0.000000 -0.923880
vn 0.382682 0.000000 -0.923880
vn 0.382682 0.000000 -0.923880
vn 0.923879 0.000000 0.382684
vn 0.923879 0.000000 0.382684
vn 0.923879 0.000000 0.382684
vn 0.923881 0.000000 0.382680
vn 0.923881 0.000000 0.382680
vn 0.923881 0.000000 0.382680
vn 0.382682 0.000000 0.923880
vn 0.382682 0.000000 0.923880
vn 0.382682 0.000000 0.923880
vn 0.382683 0.000000 0.923880
vn 0.382683 0.000000 0.923880
vn 0.382683 0.000000 0.923880
vn -0.000000 1.000000 0.000000
vn -0.000000 1.000000 0.000000
vn -0.000000 1.000000 0.000000
vn -0.000000 -1.000000 0.000000
vn -0.000000 -1.000000 0.000000
vn -0.000000 -1.000000 0.000000
vn -0.000000 -0.382692 -0.923876
vn -0.000000 -0.382692 -0.923876
vn -0.000000 -0.382692 -0.923876
vn -0.000000 -0.382680 -0.923881
vn -0.000000 -0.382680 -0.923881
vn -0.000000 -0.382680 -0.923881
vn -0.000000 -0.923880 -0.382683
vn -0.000000 -0.923880 -0.382683
vn -0.000000 -0.923880 -0.382683
vn -0.000000 -0.923880 -0.382683
vn -0.000000 -0.923880 -0.382683
vn -0.000000 -0.923880 -0.382683
vn -0.000000 -0.923879 0.382686
vn -0.000000 -0.923879 0.382686
vn -0.000000 -0.923879 0.382686
vn -0.000000 -0.923880 0.382683
vn -0.000000 -0.923880 0.382683
vn -0.000000 -0.923880 0.382683
vn -0.000000 -0.382686 0.923879
vn -0.000000 -0.382686 0.923879
vn -0.000000 -0.382686 0.923879
vn 0.000000 -0.382686 0.923879
vn 0.000000 -0.382686 0.923879
vn 0.000000 -0.382686 0.923879
vn 0.000000 0.382679 0.923881
vn 0.000000 0.382679 0.923881
vn 0.000000 0.382679 0.923881
vn -0.000000 0.382691 0.923876
vn -0.000000 0.382691 0.923876
vn -0.000000 0.382691 0.923876
vn -0.000000 0.923880 0.382682
vn -0.000000 0.923880 0.382682
vn -0.000000 0.923880 0.382682
vn -0.000000 0.923879 0.382684
vn -0.000000 0.923879 0.382684
vn -0.000000 0.923879 0.382684
vn -0.000000 0.923880 -0.382682
vn -0.000000 0.923880 -0.382682
vn -0.000000 0.923880 -0.382682
vn -0.000000 0.923880 -0.382682
vn -0.000000 0.923880 -0.382682
vn -0.000000 0.923880 -0.382682
vn -0.000000 0.382685 -0.923879
vn -0.000000 0.382685 -0.923879
vn -0.000000 0.382685 -0.923879
vn -0.000000 0.382685 -0.923879
vn -0.000000 0.382685 -0.923879
vn -0.000000 0.382685 -0.923879
vn 0.382683 0.000000 -0.923880
vn 0.382683 0.000000 -0.923880
vn 0.382683 0.000000 -0.923880
vn 0.382683 0.000000 -0.923880
vn 0.382683 0.000000 -0.923880
vn 0.382683 0.000000 -0.923880
vn 0.923879 0.000000 -0.382685
vn 0.923879 0.000000 -0.382685
vn 0.923879 0.000000 -0.382685
vn 0.923879 0.000000 -0.382685
vn 0.923879 0.000000 -0.382685
vn 0.923879 0.000000 -0.382685
vn 0.923879 0.000000 0.382685
vn 0.923879 0.000000 0.382685
vn 0.923879 0.000000 0.382685
vn 0.923879 0.000000 0.382685
vn 0.923879 0.000000 0.382685
vn 0.923879 0.000000 0.382685
vn 0.382682 0.000000 0.923880
vn 0.382682 0.000000 0.923880
vn 0.382682 0.000000 0.923880
vn 0.382682 0.000000 0.923880
vn 0.382682 0.000000 0.923880
vn 0.382682 0.000000 0.923880
vn -0.382682 0.000000 0.923880
vn -0.382682 0.000000 0.923880
vn -0.382682 0.000000 0.923880
vn -0.382682 0.000000 0.923880
vn -0.382682 0.000000 0.923880
vn -0.382682 0.000000 0.923880
vn -0.923880 0.000000 0.382683
vn -0.923880 0.000000 0.382683
vn -0.923880 0.000000 0.382683
vn -0.923880 0.000000 0.382683
vn -0.923880 0.000000 0.382683
vn -0.923880 0.000000 0.382683
vn -0.000000 1.000000 0.000000
vn -0.000000 1.000000 0.000000
vn -0.000000 1.000000 0.000000
vn -0.382685 0.000000 -0.923879
vn -0.382685 0.000000 -0.923879
vn -0.382685 0.000000 -0.923879
vn -0.382685 0.000000 -0.923879
vn -0.382685 0.000000 -0.923879
vn -0.382685 0.000000 -0.923879
vn -0.000000 -1.000000 0.000000
vn -0.000000 -1.000000 0.000000
vn -0.000000 -1.000000 0.000000
vn -0.000000 1.000000 0.000000
vn -0.000000 1.000000 0.000000
vn -0.000000 1.000000 0.000000
vn -0.000000 1.000000 0.000000
vn -0.000000 1.000000 0.000000
vn -0.000000 1.000000 0.000000
vn -0.000000 1.000000 0.000000
vn -0.000000 1.000000 0.000000
vn -0.000000 1.000000 0.000000
vn -0.000000 -1.000000 0.000000
vn -0.000000 -1.000000 0.000000
vn -0.000000 -1.000000 0.000000
vn -0.000000 -1.000000 0.000000
vn -0.000000 -1.000000 0.000000
vn -0.000000 -1.000000 0.000000
vn -0.000000 1.000000 0.000000
vn -0.000000 1.000000 0.000000
vn -0.000000 1.000000 0.000000
vn -0.000000 1.000000 0.000000
vn -0.000000 1.000000 0.000000
vn -0.000000 1.000000 0.000000
vn -0.000000 1.000000 0.000000
vn -0.000000 1.000000 0.000000
vn -0.000000 1.000000 0.000000
vn -0.000000 1.000000 0.000000
vn -0.000000 1.000000 0.000000
vn -0.000000 1.000000 0.000000
vn -0.000000 1.000000 0.000000
vn -0.000000 1.000000 0.000000
vn -0.000000 1.000000 0.000000
vn -0.000000 -1.000000 0.000000
vn -0.000000 -1.000000 0.000000
vn -0.000000 -1.000000 0.000000
vn -0.000000 -1.000000 0.000000
vn -0.000000 -1.000000 0.000000
vn -0.000000 -1.000000 0.000000
vn -0.000000 -1.000000 0.000000
vn -0.000000 -1.000000 0.000000
vn -0.000000 -1.000000 0.000000
vn -0.000000 -1.000000 0.000000
vn -0.000000 -1.000000 0.000000
vn -0.000000 -1.000000 0.000000
vn -0.000000 -1.000000 0.000000
vn -0.000000 -1.000000 0.000000
vn -0.000000 -1.000000 0.000000
vn -0.000000 -0.382692 -0.923876
vn -0.000000 -0.382692 -0.923876
vn -0.000000 -0.382692 -0.923876
vn -0.000000 -0.382680 -0.923881
vn -0.000000 -0.382680 -0.923881
vn -0.000000 -0.382680 -0.923881
vn -0.000000 -0.923880 -0.382683
vn -0.000000 -0.923880 -0.382683
vn -0.000000 -0.923880 -0.382683
vn -0.000000 -0.923880 -0.382683
vn -0.000000 -0.923880 -0.382683
vn -0.000000 -0.923880 -0.382683
vn -0.000000 -0.923879 0.382686
vn -0.000000 -0.923879 0.382686
vn -0.000000 -0.923879 0.382686
vn -0.000000 -0.923880 0.382683
vn -0.000000 -0.923880 0.382683
vn -0.000000 -0.923880 0.382683
vn -0.000000 -0.382686 0.923879
vn -0.000000 -0.382686 0.923879
vn -0.000000 -0.382686 0.923879
vn 0.000000 -0.382686 0.923879
vn 0.000000 -0.382686 0.923879
vn 0.000000 -0.382686 0.923879
vn 0.000000 0.382679 0.923881
vn 0.000000 0.382679 0.923881
vn 0.000000 0.382679 0.923881
vn -0.000000 0.382691 0.923876
vn -0.000000 0.382691 0.923876
vn -0.000000 0.382691 0.923876
vn -0.000000 0.923880 0.382682
vn -0.000000 0.923880 0.382682
vn -0.000000 0.923880 0.382682
vn -0.000000 0.923879 0.382684
vn -0.000000 0.923879 0.382684
vn -0.000000 0.923879 0.382684
vn -0.000000 0.923880 -0.382682
vn -0.000000 0.923880 -0.382682
vn -0.000000 0.923880 -0.382682
vn -0.000000 0.923880 -0.382682
vn -0.000000 0.923880 -0.382682
vn -0.000000 0.923880 -0.382682
vn -0.000000 0.382685 -0.923879
vn -0.000000 0.382685 -0.923879
vn -0.000000 0.382685 -0.923879
vn -0.000000 0.382685 -0.923879
vn -0.000000 0.382685 -0.923879
vn -0.000000 0.382685 -0.923879
vn -0.923880 0.000000 -0.382683
vn -0.923880 0.000000 -0.382683
vn -0.923880 0.000000 -0.382683
vn 0.923878 0.000000 -0.382688
vn 0.923878 0.000000 -0.382688
vn 0.923878 0.000000 -0.382688
vn -0.923880 0.000000 -0.382683
vn -0.923880 0.000000 -0.382683
vn -0.923880 0.000000 -0.382683
vn -0.382685 0.000000 -0.923879
vn -0.382685 0.000000 -0.923879
vn -0.382685 0.000000 -0.923879
vn -0.382685 0.000000 -0.923879
vn -0.382685 0.000000 -0.923879
vn -0.382685 0.000000 -0.923879
vn -0.382685 0.000000 -0.923879
vn -0.382685 0.000000 -0.923879
vn -0.382685 0.000000 -0.923879
vn -0.382685 0.000000 -0.923879
vn -0.382685 0.000000 -0.923879
vn -0.382685 0.000000 -0.923879
vn -0.923880 0.000000 0.382683
vn -0.923880 0.000000 0.382683
vn -0.923880 0.000000 0.382683
vn -0.923880 0.000000 0.382683
vn -0.923880 0.000000 0.382683
vn -0.923880 0.000000 0.382683
vn -0.923880 0.000000 0.382683
vn -0.923880 0.000000 0.382683
vn -0.923880 0.000000 0.382683
vn -0.923880 0.000000 0.382683
vn -0.923880 0.000000 0.382683
vn -0.923880 0.000000 0.382683
vn -0.382682 0.000000 0.923880
vn -0.382682 0.000000 0.923880
vn -0.382682 0.000000 0.923880
vn -0.382682 0.000000 0.923880
vn -0.382682 0.000000 0.923880
vn -0.382682 0.000000 0.923880
vn -0.382682 0.000000 0.923880
vn -0.382682 0.000000 0.923880
vn -0.382682 0.000000 0.923880
vn -0.382682 0.000000 0.923880
vn -0.382682 0.000000 0.923880
vn -0.382682 0.000000 0.923880
vn 0.382682 0.000000 0.923880
vn 0.382682 0.000000 0.923880
vn 0.382682 0.000000 0.923880
vn 0.382682 0.000000 0.923880
vn 0.382682 0.000000 0.923880
vn 0.382682 0.000000 0.923880
vn 0.382682 0.000000 0.923880
vn 0.382682 0.000000 0.923880
vn 0.382682 0.000000 0.923880
vn 0.382682 0.000000 0.923880
vn 0.382682 0.000000 0.923880
vn 0.382682 0.000000 0.923880
vn 0.923879 0.000000 0.382685
vn 0.923879 0.000000 0.382685
vn 0.923879 0.000000 0.382685
vn 0.923879 0.000000 0.382685
vn 0.923879 0.000000 0.382685
vn 0.923879 0.000000 0.382685
vn 0.923879 0.000000 0.382685
vn 0.923879 0.000000 0.382685
vn 0.923879 0.000000 0.382685
vn 0.923879 0.000000 0.382685
vn 0.923879 0.000000 0.382685
vn 0.923879 0.000000 0.382685
vn 0.923879 0.000000 -0.382685
vn 0.923879 0.000000 -0.382685
vn 0.923879 0.000000 -0.382685
vn 0.923879 0.000000 -0.382685
vn 0.923879 0.000000 -0.382685
vn 0.923879 0.000000 -0.382685
vn 0.923879 0.000000 -0.382685
vn 0.923879 0.000000 -0.382685
vn 0.923879 0.000000 -0.382685
vn 0.923879 0.000000 -0.382685
vn 0.923879 0.000000 -0.382685
vn 0.923879 0.000000 -0.382685
vn 0.382683 0.000000 -0.923880
vn 0.382683 0.000000 -0.923880
vn 0.382683 0.000000 -0.923880
vn 0.382683 0.000000 -0.923880
vn 0.382683 0.000000 -0.923880
vn 0.382683 0.000000 -0.923880
vn 0.382683 0.000000 -0.923880
vn 0.382683 0.000000 -0.923880
vn 0.382683 0.000000 -0.923880
vn 0.382683 0.000000 -0.923880
vn 0.382683 0.000000 -0.923880
vn 0.382683 0.000000 -0.923880
vn 0.923880 0.000000 -0.382682
vn 0.923880 0.000000 -0.382682
vn 0.923880 0.000000 -0.382682
vn 0.382682 0.000000 0.923880
vn 0.382682 0.000000 0.923880
vn 0.382682 0.000000 0.923880
vn 0.382682 0.000000 0.923880
vn 0.382682 0.000000 0.923880
vn 0.382682 0.000000 0.923880
vn 0.382683 0.000000 0.923880
vn 0.382683 0.000000 0.923880
vn 0.382683 0.000000 0.923880
vn 0.382682 0.000000 0.923880
vn 0.382682 0.000000 0.923880
vn 0.382682 0.000000 0.923880
vn 0.923880 0.000000 0.382682
vn 0.923880 0.000000 0.382682
vn 0.923880 0.000000 0.382682
vn 0.923880 0.000000 0.382682
vn 0.923880 0.000000 0.382682
vn 0.923880 0.000000 0.382682
vn 0.923881 0.000000 0.382679
vn 0.923881 0.000000 0.382679
vn 0.923881 0.000000 0.382679
vn 0.923880 0.000000 0.382683
vn 0.923880 0.000000 0.382683
vn 0.923880 0.000000 0.382683
vn 0.382682 0.000000 -0.923880
vn 0.382682 0.000000 -0.923880
vn 0.382682 0.000000 -0.923880
vn 0.382682 0.000000 -0.923880
vn 0.382682 0.000000 -0.923880
vn 0.382682 0.000000 -0.923880
vn 0.382682 0.000000 -0.923880
vn 0.382682 0.000000 -0.923880
vn 0.382682 0.000000 -0.923880
vn 0.382683 0.000000 -0.923880
vn 0.382683 0.000000 -0.923880
vn 0.382683 0.000000 -0.923880
vn -0.923880 0.000000 -0.382683
vn -0.923880 0.000000 -0.382683
vn -0.923880 0.000000 -0.382683
vn -0.923880 0.000000 -0.382683
vn -0.923880 0.000000 -0.382683
vn -0.923880 0.000000 -0.382683
vn 0.923881 0.000000 -0.382680
vn 0.923881 0.000000 -0.382680
vn 0.923881 0.000000 -0.382680
vn 0.923881 0.000000 -0.382680
vn 0.923881 0.000000 -0.382680
vn 0.923881 0.000000 -0.382680
vn -0.923880 0.000000 -0.382683
vn -0.923880 0.000000 -0.382683
vn -0.923880 0.000000 -0.382683
vn -0.923880 0.000000 -0.382683
vn -0.923880 0.000000 -0.382683
vn -0.923880 0.000000 -0.382683
vn 0.923881 0.000000 -0.382681
vn 0.923881 0.000000 -0.382681
vn 0.923881 0.000000 -0.382681
vn 0.923881 0.000000 -0.382681
vn 0.923881 0.000000 -0.382681
vn 0.923881 0.000000 -0.382681
vn -0.923880 0.000000 -0.382683
vn -0.923880 0.000000 -0.382683
vn -0.923880 0.000000 -0.382683
vn -0.923880 0.000000 -0.382683
vn -0.923880 0.000000 -0.382683
vn -0.923880 0.000000 -0.382683
vn 0.923880 0.000000 -0.382682
vn 0.923880 0.000000 -0.382682
vn 0.923880 0.000000 -0.382682
vn 0.923880 0.000000 -0.382682
vn 0.923880 0.000000 -0.382682
vn 0.923880 0.000000 -0.382682
vn -0.000000 1.000000 0.000000
vn -0.000000 1.000000 0.000000
vn -0.000000 1.000000 0.000000
vn -0.000000 -1.000000 0.000000
vn -0.000000 -1.000000 0.000000
vn -0.000000 -1.000000 0.000000
vn -0.000000 -1.000000 0.000000
vn -0.000000 -1.000000 0.000000
vn -0.000000 -1.000000 0.000000
vn -0.000000 -1.000000 0.000000
vn -0.000000 -1.000000 0.000000
vn -0.000000 -1.000000 0.000000
vn 0.923881 0.000000 -0.382680
vn 0.923881 0.000000 -0.382680
vn 0.923881 0.000000 -0.382680
vn 0.923881 0.000000 -0.382680
vn 0.923881 0.000000 -0.382680
vn 0.923881 0.000000 -0.382680
vn -0.382683 0.000000 -0.923880
vn -0.382683 0.000000 -0.923880
vn -0.382683 0.000000 -0.923880
vn -0.382683 -0.000000 -0.923880
vn -0.382683 -0.000000 -0.923880
vn -0.382683 -0.000000 -0.923880
vn -0.923880 -0.000000 -0.382683
vn -0.923880 -0.000000 -0.382683
vn -0.923880 -0.000000 -0.382683
vn -0.923880 0.000000 -0.382682
vn -0.923880 0.000000 -0.382682
vn -0.923880 0.000000 -0.382682
vn -0.000000 -1.000000 0.000000
vn -0.000000 -1.000000 0.000000
vn -0.000000 -1.000000 0.000000
vn -0.000000 1.000000 0.000000
vn -0.000000 1.000000 0.000000
vn -0.000000 1.000000 0.000000
vn 0.923880 0.382682 -0.000000
vn 0.923880 0.382682 -0.000000
vn 0.923880 0.382682 -0.000000
vn 0.923879 0.382686 0.000000
vn 0.923879 0.382686 0.000000
vn 0.923879 0.382686 0.000000
vn 0.382686 0.923879 0.000000
vn 0.382686 0.923879 0.000000
vn 0.382686 0.923879 0.000000
vn 0.382683 0.923880 0.000000
vn 0.382683 0.923880 0.000000
vn 0.382683 0.923880 0.000000
vn -0.382682 0.923880 0.000000
vn -0.382682 0.923880 0.000000
vn -0.382682 0.923880 0.000000
vn -0.382686 0.923879 0.000000
vn -0.382686 0.923879 0.000000
vn -0.382686 0.923879 0.000000
vn -0.923880 0.382683 0.000000
vn -0.923880 0.382683 0.000000
vn -0.923880 0.382683 0.000000
vn -0.923880 0.382682 0.000000
vn -0.923880 0.382682 0.000000
vn -0.923880 0.382682 0.000000
vn -0.923880 -0.382682 0.000000
vn -0.923880 -0.382682 0.000000
vn -0.923880 -0.382682 0.000000
vn -0.923880 -0.382682 0.000000
vn -0.923880 -0.382682 0.000000
vn -0.923880 -0.382682 0.000000
vn -0.382679 -0.923881 0.000000
vn -0.382679 -0.923881 0.000000
vn -0.382679 -0.923881 0.000000
vn -0.382683 -0.923880 0.000000
vn -0.382683 -0.923880 0.000000
vn -0.382683 -0.923880 0.000000
vn 0.382683 -0.923880 0.000000
vn 0.382683 -0.923880 0.000000
vn 0.382683 -0.923880 0.000000
vn 0.382680 -0.923881 0.000000
vn 0.382680 -0.923881 0.000000
vn 0.382680 -0.923881 0.000000
vn 0.923880 -0.382682 0.000000
vn 0.923880 -0.382682 0.000000
vn 0.923880 -0.382682 0.000000
vn 0.923879 -0.382685 -0.000000
vn 0.923879 -0.382685 -0.000000
vn 0.923879 -0.382685 -0.000000
vn -0.000000 -1.000000 0.000000
vn -0.000000 -1.000000 0.000000
vn -0.000000 -1.000000 0.000000
vn -0.000000 -1.000000 0.000000
vn -0.000000 -1.000000 0.000000
vn -0.000000 -1.000000 0.000000
vn -0.000000 -1.000000 0.000000
vn -0.000000 -1.000000 0.000000
vn -0.000000 -1.000000 0.000000
vn -0.000000 1.000000 0.000000
vn -0.000000 1.000000 0.000000
vn -0.000000 1.000000 0.000000
vn -0.000000 1.000000 0.000000
vn -0.000000 1.000000 0.000000
vn -0.000000 1.000000 0.000000
vn 0.923880 0.382683 -0.000000
vn 0.923880 0.382683 -0.000000
vn 0.923880 0.382683 -0.000000
vn 0.923879 0.382685 0.000000
vn 0.923879 0.382685 0.000000
vn 0.923879 0.382685 0.000000
vn 0.382686 0.923879 0.000000
vn 0.382686 0.923879 0.000000
vn 0.382686 0.923879 0.000000
vn 0.382683 0.923880 0.000000
vn 0.382683 0.923880 0.000000
vn 0.382683 0.923880 0.000000
vn -0.382682 0.923880 0.000000
vn -0.382682 0.923880 0.000000
vn -0.382682 0.923880 0.000000
vn -0.382686 0.923879 0.000000
vn -0.382686 0.923879 0.000000
vn -0.382686 0.923879 0.000000
vn -0.923880 0.382682 0.000000
vn -0.923880 0.382682 0.000000
vn -0.923880 0.382682 0.000000
vn -0.923880 0.382683 0.000000
vn -0.923880 0.382683 0.000000
vn -0.923880 0.382683 0.000000
vn -0.923880 -0.382683 0.000000
vn -0.923880 -0.382683 0.000000
vn -0.923880 -0.382683 0.000000
vn -0.923880 -0.382682 0.000000
vn -0.923880 -0.382682 0.000000
vn -0.923880 -0.382682 0.000000
vn -0.382682 -0.923880 0.000000
vn -0.382682 -0.923880 0.000000
vn -0.382682 -0.923880 0.000000
vn -0.382683 -0.923880 0.000000
vn -0.382683 -0.923880 0.000000
vn -0.382683 -0.923880 0.000000
vn 0.382683 -0.923880 0.000000
vn 0.382683 -0.923880 0.000000
vn 0.382683 -0.923880 0.000000
vn 0.382683 -0.923880 0.000000
vn 0.382683 -0.923880 0.000000
vn 0.382683 -0.923880 0.000000
vn 0.923880 -0.382682 0.000000
vn 0.923880 -0.382682 0.000000
vn 0.923880 -0.382682 0.000000
vn 0.923879 -0.382686 -0.000000
vn 0.923879 -0.382686 -0.000000
vn 0.923879 -0.382686 -0.000000
vn 0.382683 0.000000 -0.923880
vn 0.382683 0.000000 -0.923880
vn 0.382683 0.000000 -0.923880
vn 0.382683 0.000000 -0.923880
vn 0.382683 0.000000 -0.923880
vn 0.382683 0.000000 -0.923880
vn -0.923880 0.000000 -0.382682
vn -0.923880 0.000000 -0.382682
vn -0.923880 0.000000 -0.382682
vn -0.923880 0.000000 -0.382683
vn -0.923880 0.000000 -0.382683
vn -0.923880 0.000000 -0.382683
vn -0.923880 0.000000 -0.382682
vn -0.923880 0.000000 -0.382682
vn -0.923880 0.000000 -0.382682
vn -0.923880 0.000000 -0.382682
vn -0.923880 0.000000 -0.382682
vn -0.923880 0.000000 -0.382682
vn -0.382683 0.000000 -0.923880
vn -0.382683 0.000000 -0.923880
vn -0.382683 0.000000 -0.923880
vn -0.382683 0.000000 -0.923880
vn -0.382683 0.000000 -0.923880
vn -0.382683 0.000000 -0.923880
vn -0.382683 0.000000 -0.923880
vn -0.382683 0.000000 -0.923880
vn -0.382683 0.000000 -0.923880
vn -0.382683 0.000000 -0.923880
vn -0.382683 0.000000 -0.923880
vn -0.382683 0.000000 -0.923880
vn 0.923881 0.000000 -0.382680
vn 0.923881 0.000000 -0.382680
vn 0.923881 0.000000 -0.382680
vn 0.923881 0.000000 -0.382680
vn 0.923881 0.000000 -0.382680
vn 0.923881 0.000000 -0.382680
vn 0.923881 0.000000 -0.382680
vn 0.923881 0.000000 -0.382680
vn 0.923881 0.000000 -0.382680
vn 0.923881 0.000000 -0.382680
vn 0.923881 0.000000 -0.382680
vn 0.923881 0.000000 -0.382680
vn 0.382683 0.000000 -0.923880
vn 0.382683 0.000000 -0.923880
vn 0.382683 0.000000 -0.923880
vn 0.382683 0.000000 -0.923880
vn 0.382683 0.000000 -0.923880
vn 0.382683 0.000000 -0.923880
vn 0.382682 0.000000 -0.923880
vn 0.382682 0.000000 -0.923880
vn 0.382682 0.000000 -0.923880
vn 0.382682 0.000000 -0.923880
vn 0.382682 0.000000 -0.923880
vn 0.382682 0.000000 -0.923880
vn 0.382682 -0.000000 -0.923880
vn 0.382682 -0.000000 -0.923880
vn 0.382682 -0.000000 -0.923880
vn 0.382682 0.000000 -0.923880
vn 0.382682 0.000000 -0.923880
vn 0.382682 0.000000 -0.923880
vn -0.000000 -1.000000 0.000000
vn -0.000000 -1.000000 0.000000
vn -0.000000 -1.000000 0.000000
vn -0.000000 1.000000 0.000000
vn -0.000000 1.000000 0.000000
vn -0.000000 1.000000 0.000000
vn -0.000000 1.000000 0.000000
vn -0.000000 1.000000 0.000000
vn -0.000000 1.000000 0.000000
vn -0.000000 1.000000 0.000000
vn -0.000000 1.000000 0.000000
vn -0.000000 1.000000 0.000000
vn -0.000000 0.000000 -1.000000
vn -0.000000 0.000000 -1.000000
vn -0.000000 0.000000 -1.000000
vn -0.000000 0.000000 -1.000000
vn -0.000000 0.000000 -1.000000
vn -0.000000 0.000000 -1.000000
vn 1.000000 0.000000 0.000000
vn 1.000000 0.000000 0.000000
vn 1.000000 0.000000 0.000000
vn 1.000000 0.000000 0.000000
vn 1.000000 0.000000 0.000000
vn 1.000000 0.000000 0.000000
vn -0.000000 0.000000 -1.000000
vn -0.000000 0.000000 -1.000000
vn -0.000000 0.000000 -1.000000
vn -0.000000 0.000000 -1.000000
vn -0.000000 0.000000 -1.000000
vn -0.000000 0.000000 -1.000000
vn -0.000000 0.000000 1.000000
vn -0.000000 0.000000 1.000000
vn -0.000000 0.000000 1.000000
vn -0.000000 0.000000 1.000000
vn -0.000000 0.000000 1.000000
vn -0.000000 0.000000 1.000000
vn -0.000000 -1.000000 0.000000
vn -0.000000 -1.000000 0.000000
vn -0.000000 -1.000000 0.000000
vn -0.000000 -1.000000 0.000000
vn -0.000000 -1.000000 0.000000
vn -0.000000 -1.000000 0.000000
vn -0.000000 1.000000 0.000000
vn -0.000000 1.000000 0.000000
vn -0.000000 1.000000 0.000000
vn -0.000000 1.000000 0.000000
vn -0.000000 1.000000 0.000000
vn -0.000000 1.000000 0.000000
vn 1.000000 0.000000 -0.000000
vn 1.000000 0.000000 -0.000000
vn 1.000000 0.000000 -0.000000
vn 1.000000 0.000000 -0.000000
vn 1.000000 0.000000 -0.000000
vn 1.000000 0.000000 -0.000000
vn -1.000000 0.000000 0.000000
vn -1.000000 0.000000 0.000000
vn -1.000000 0.000000 0.000000
vn -1.000000 0.000000 0.000000
vn -1.000000 0.000000 0.000000
vn -1.000000 0.000000 0.000000
vn -0.000000 1.000000 0.000000
vn -0.000000 1.000000 0.000000
vn -0.000000 1.000000 0.000000
vn 0.000000 1.000000 0.000000
vn 0.000000 1.000000 0.000000
vn 0.000000 1.000000 0.000000
vn -0.000000 -1.000000 0.000000
vn -0.000000 -1.000000 0.000000
vn -0.000000 -1.000000 0.000000
vn -0.000000 -1.000000 0.000000
vn -0.000000 -1.000000 0.000000
vn -0.000000 -1.000000 0.000000

g Material.001
f 3/1/1 1/2/2 2/3/3
f 4/4/4 1/5/5 3/6/6
f 7/7/7 5/8/8 6/9/9
f 8/10/10 5/11/11 7/12/12
f 11/13/13 9/14/14 10/15/15
f 12/16/16 9/17/17 11/18/18
f 15/19/19 13/20/20 14/21/21
f 18/22/22 16/23/23 17/24/24
f 21/25/25 19/26/26 20/27/27
f 22/28/28 19/29/29 21/30/30
f 25/31/31 23/32/32 24/33/33
f 26/34/34 23/35/35 25/36/36
f 29/37/37 27/38/38 28/39/39
f 30/40/40 27/41/41 29/42/42
f 33/43/43 31/44/44 32/45/45
f 34/46/46 31/47/47 33/48/48
f 37/49/49 35/50/50 36/51/51
f 38/52/52 35/53/53 37/54/54
f 41/55/55 39/56/56 40/57/57
f 42/58/58 39/59/59 41/60/60
f 45/61/61 43/62/62 44/63/63
f 46/64/64 43/65/65 45/66/66
f 49/67/67 47/68/68 48/69/69
f 50/70/70 47/71/71 49/72/72
f 53/73/73 51/74/74 52/75/75
f 54/76/76 51/77/77 53/78/78
f 57/79/79 55/80/80 56/81/81
f 58/82/82 55/83/83 57/84/84
f 61/85/85 59/86/86 60/87/87
f 62/88/88 59/89/89 61/90/90
f 65/91/91 63/92/92 64/93/93
f 66/94/94 63/95/95 65/96/96
f 69/97/97 67/98/98 68/99/99
f 70/100/100 67/101/101 69/102/102
f 73/103/103 71/104/104 72/105/105
f 74/106/106 71/107/107 73/108/108
f 77/109/109 75/110/110 76/111/111
f 80/112/112 78/113/113 79/114/114
f 81/115/115 78/116/116 80/117/117
f 84/118/118 82/119/119 83/120/120
f 87/121/121 85/122/122 86/123/123
f 90/124/124 88/125/125 89/126/126
f 91/127/127 88/128/128 90/129/129
f 94/130/130 92/131/131 93/132/132
f 97/133/133 95/134/134 96/135/135
f 100/136/136 98/137/137 99/138/138
f 103/139/139 101/140/140 102/141/141
f 106/142/142 104/143/143 105/144/144
f 109/145/145 107/146/146 108/147/147
f 112/148/148 110/149/149 111/150/150
f 115/151/151 113/152/152 114/153/153
f 118/154/154 116/155/155 117/156/156
f 121/157/157 119/158/158 120/159/159
f 124/160/160 122/161/161 123/162/162
f 127/163/163 125/164/164 126/165/165
f 130/166/166 128/167/167 129/168/168
f 131/169/169 128/170/170 130/171/171
f 134/172/172 132/173/173 133/174/174
f 135/175/175 132/176/176 134/177/177
f 138/178/178 136/179/179 137/180/180
f 139/181/181 136/182/182 138/183/183
f 142/184/184 140/185/185 141/186/186
f 143/187/187 140/188/188 142/189/189
f 146/190/190 144/191/191 145/192/192
f 147/193/193 144/194/194 146/195/195
f 150/196/196 148/197/197 149/198/198
f 151/199/199 148/200/200 150/201/201
f 154/202/202 152/203/203 153/204/204
f 155/205/205 152/206/206 154/207/207
f 158/208/208 156/209/209 157/210/210
f 159/211/211 156/212/212 158/213/213
f 166/214/214 164/215/215 165/216/216
f 169/217/217 167/218/218 168/219/219
f 172/220/220 170/221/221 171/222/222
f 175/223/223 173/224/224 174/225/225
f 176/226/226 173/227/227 175/228/228
f 179/229/229 177/230/230 178/231/231
f 180/232/232 177/233/233 179/234/234
f 183/235/235 181/236/236 182/237/237
f 184/238/238 181/239/239 183/240/240
f 187/241/241 185/242/242 186/243/243
f 188/244/244 185/245/245 187/246/246
f 191/247/247 189/248/248 190/249/249
f 192/250/250 189/251/251 191/252/252
f 195/253/253 193/254/254 194/255/255
f 196/256/256 193/257/257 195/258/258
f 199/259/259 197/260/260 198/261/261
f 200/262/262 197/263/263 199/264/264
f 203/265/265 201/266/266 202/267/267
f 204/268/268 201/269/269 203/270/270
f 207/271/271 205/272/272 206/273/273
f 208/274/274 205/275/275 207/276/276
f 211/277/277 209/278/278 210/279/279
f 212/280/280 209/281/281 211/282/282
f 215/283/283 213/284/284 214/285/285
f 216/286/286 213/287/287 215/288/288
f 219/289/289 217/290/290 218/291/291
f 220/292/292 217/293/293 219/294/294
f 223/295/295 221/296/296 222/297/297
f 224/298/298 221/299/299 223/300/300
f 227/301/301 225/302/302 226/303/303
f 228/304/304 225/305/305 227/306/306
f 231/307/307 229/308/308 230/309/309
f 234/310/310 232/311/311 233/312/312
f 235/313/313 232/314/314 234/315/315
f 238/316/316 236/317/317 237/318/318
f 239/319/319 236/320/320 238/321/321
f 242/322/322 240/323/323 241/324/324
f 243/325/325 240/326/326 242/327/327
f 246/328/328 244/329/329 245/330/330
f 247/331/331 244/332/332 246/333/333
f 250/334/334 248/335/335 249/336/336
f 251/337/337 248/338/338 250/339/339
f 254/340/340 252/341/341 253/342/342
f 255/343/343 252/344/344 254/345/345
f 274/346/346 272/347/347 273/348/348
f 275/349/349 272/350/350 274/351/351
f 278/352/352 276/353/353 277/354/354
f 279/355/355 276/356/356 278/357/357
f 282/358/358 280/359/359 281/360/360
f 285/361/361 283/362/362 284/363/363
f 288/364/364 286/365/365 287/366/366
f 291/367/367 289/368/368 290/369/369
f 294/370/370 292/371/371 293/372/372
f 297/373/373 295/374/374 296/375/375
f 300/376/376 298/377/377 299/378/378
f 303/379/379 301/380/380 302/381/381
f 306/382/382 304/383/383 305/384/384
f 309/385/385 307/386/386 308/387/387
f 312/388/388 310/389/389 311/390/390
f 313/391/391 310/392/392 312/393/393
f 316/394/394 314/395/395 315/396/396
f 317/397/397 314/398/398 316/399/399
f 320/400/400 318/401/401 319/402/402
f 321/403/403 318/404/404 320/405/405
f 324/406/406 322/407/407 323/408/408
f 325/409/409 322/410/410 324/411/411
f 328/412/412 326/413/413 327/414/414
f 331/415/415 329/416/416 330/417/417
f 334/418/418 332/419/419 333/420/420
f 335/421/421 332/422/422 334/423/423
f 338/424/424 336/425/425 337/426/426
f 339/427/427 336/428/428 338/429/429
f 342/430/430 340/431/431 341/432/432
f 343/433/433 340/434/434 342/435/435
f 346/436/436 344/437/437 345/438/438
f 347/439/439 344/440/440 346/441/441
f 350/442/442 348/443/443 349/444/444
f 351/445/445 348/446/446 350/447/447
f 354/448/448 352/449/449 353/450/450
f 355/451/451 352/452/452 354/453/453
f 358/454/454 356/455/455 357/456/456
f 359/457/457 356/458/458 358/459/459
f 362/460/460 360/461/461 361/462/462
f 363/463/463 360/464/464 362/465/465
f 366/466/466 364/467/467 365/468/468
f 369/469/469 367/470/470 368/471/471
f 370/472/472 367/473/473 369/474/474
f 373/475/475 371/476/476 372/477/477
f 376/478/478 374/479/479 375/480/480
f 379/481/481 377/482/482 378/483/483
f 380/484/484 377/485/485 379/486/486
f 383/487/487 381/488/488 382/489/489
f 384/490/490 381/491/491 383/492/492
f 387/493/493 385/494/494 386/495/495
f 388/496/496 385/497/497 387/498/498
f 391/499/499 389/500/500 390/501/501
f 392/502/502 389/503/503 391/504/504
f 395/505/505 393/506/506 394/507/507
f 396/508/508 393/509/509 395/510/510
f 399/511/511 397/512/512 398/513/513
f 400/514/514 397/515/515 399/516/516
f 403/517/517 401/518/518 402/519/519
f 404/520/520 401/521/521 403/522/522
f 407/523/523 405/524/524 406/525/525
f 408/526/526 405/527/527 407/528/528
f 415/529/529 413/530/530 414/531/531
f 418/532/532 416/533/533 417/534/534
f 421/535/535 419/536/536 420/537/537
f 422/538/538 419/539/539 421/540/540
f 425/541/541 423/542/542 424/543/543
f 426/544/544 423/545/545 425/546/546
f 429/547/547 427/548/548 428/549/549
f 430/550/550 427/551/551 429/552/552
f 433/553/553 431/554/554 432/555/555
f 434/556/556 431/557/557 433/558/558
f 437/559/559 435/560/560 436/561/561
f 438/562/562 435/563/563 437/564/564
f 441/565/565 439/566/566 440/567/567
f 442/568/568 439/569/569 441/570/570
f 461/571/571 459/572/572 460/573/573
f 462/574/574 459/575/575 461/576/576
f 465/577/577 463/578/578 464/579/579
f 468/580/580 466/581/581 467/582/582
f 471/583/583 469/584/584 470/585/585
f 474/586/586 472/587/587 473/588/588
f 477/589/589 475/590/590 476/591/591
f 480/592/592 478/593/593 479/594/594
f 483/595/595 481/596/596 482/597/597
f 484/598/598 481/599/599 483/600/600

g Material.002
f 162/601/601 160/602/602 161/603/603
f 163/604/604 160/605/605 162/606/606
f 411/607/607 409/608/608 410/609/609
f 412/610/610 409/611/611 411/612/612

g Material.003
f 258/613/613 256/614/614 257/615/615
f 259/616/616 256/617/617 258/618/618
f 262/619/619 260/620/620 261/621/621
f 263/622/622 260/623/623 262/624/624
f 266/625/625 264/626/626 265/627/627
f 267/628/628 264/629/629 266/630/630
f 270/631/631 268/632/632 269/633/633
f 271/634/634 268/635/635 270/636/636
f 445/637/637 443/638/638 444/639/639
f 446/640/640 443/641/641 445/642/642
f 449/643/643 447/644/644 448/645/645
f 450/646/646 447/647/647 449/648/648
f 453/649/649 451/650/650 452/651/651
f 454/652/652 451/653/653 453/654/654
f 457/655/655 455/656/656 456/657/657
f 458/658/658 455/659/659 457/660/660

