# Converted from B3D for Luanti (With Correct Normals)
# Object Name: multidecor_window_segment_with_thin_slats

v 0.040000 1.000000 -0.750000
v 1.000000 1.000000 -0.750000
v 1.000000 1.000000 -1.000000
v 0.040000 1.000000 -1.000000
v 1.000000 0.040000 -1.000000
v 1.000000 1.000000 -1.000000
v 1.000000 1.000000 -0.750000
v 1.000000 0.040000 -0.750000
v -0.040000 -1.000000 -0.750000
v -1.000000 -1.000000 -0.750000
v -1.000000 -1.000000 -1.000000
v -0.040000 -1.000000 -1.000000
v -1.000000 0.040000 -0.750000
v -1.000000 1.000000 -0.750000
v -1.000000 1.000000 -1.000000
v -1.000000 0.040000 -1.000000
v 0.040000 1.000000 -0.750000
v 0.040000 0.800000 -0.750000
v 0.800000 0.800000 -0.750000
v 1.000000 1.000000 -0.750000
v -1.000000 0.040000 -0.750000
v -0.800000 0.040000 -0.750000
v -0.800000 0.800000 -0.750000
v -1.000000 1.000000 -0.750000
v -0.040000 -1.000000 -0.750000
v -0.040000 -0.800000 -0.750000
v -0.800000 -0.800000 -0.750000
v -1.000000 -1.000000 -0.750000
v 1.000000 -0.040000 -0.750000
v 0.800000 -0.040000 -0.750000
v 0.800000 -0.800000 -0.750000
v 1.000000 -1.000000 -0.750000
v -1.000000 1.000000 -0.750000
v -0.800000 0.800000 -0.750000
v -0.040000 0.800000 -0.750000
v -0.040000 1.000000 -0.750000
v -0.040000 1.000000 -0.750000
v -0.040000 0.800000 -0.750000
v 0.040000 0.800000 -0.750000
v 0.040000 1.000000 -0.750000
v 0.040000 -0.800000 -1.000000
v 0.040000 -1.000000 -1.000000
v -0.040000 -1.000000 -1.000000
v -0.040000 -0.800000 -1.000000
v -1.000000 1.000000 -0.750000
v -0.040000 1.000000 -0.750000
v -0.040000 1.000000 -1.000000
v -1.000000 1.000000 -1.000000
v -0.040000 1.000000 -0.750000
v 0.040000 1.000000 -0.750000
v 0.040000 1.000000 -1.000000
v -0.040000 1.000000 -1.000000
v 1.000000 -1.000000 -0.750000
v 0.800000 -0.800000 -0.750000
v 0.040000 -0.800000 -0.750000
v 0.040000 -1.000000 -0.750000
v 0.040000 -1.000000 -0.750000
v 0.040000 -0.800000 -0.750000
v -0.040000 -0.800000 -0.750000
v -0.040000 -1.000000 -0.750000
v 1.000000 -0.040000 -1.000000
v 1.000000 -1.000000 -1.000000
v 0.800000 -0.800000 -1.000000
v 0.800000 -0.040000 -1.000000
v 1.000000 -1.000000 -0.750000
v 0.040000 -1.000000 -0.750000
v 0.040000 -1.000000 -1.000000
v 1.000000 -1.000000 -1.000000
v 0.040000 -1.000000 -0.750000
v -0.040000 -1.000000 -0.750000
v -0.040000 -1.000000 -1.000000
v 0.040000 -1.000000 -1.000000
v -0.040000 1.000000 -1.000000
v -0.040000 0.800000 -1.000000
v -0.800000 0.800000 -1.000000
v -1.000000 1.000000 -1.000000
v -0.040000 -0.800000 -1.000000
v -0.040000 -1.000000 -1.000000
v -1.000000 -1.000000 -1.000000
v -0.800000 -0.800000 -1.000000
v 0.800000 -0.040000 -1.000000
v 0.800000 0.040000 -1.000000
v 1.000000 0.040000 -1.000000
v 1.000000 -0.040000 -1.000000
v 1.000000 1.000000 -0.750000
v 0.800000 0.800000 -0.750000
v 0.800000 0.040000 -0.750000
v 1.000000 0.040000 -0.750000
v 1.000000 0.040000 -0.750000
v 0.800000 0.040000 -0.750000
v 0.800000 -0.040000 -0.750000
v 1.000000 -0.040000 -0.750000
v -1.000000 0.040000 -1.000000
v -0.800000 0.040000 -1.000000
v -0.800000 -0.040000 -1.000000
v -1.000000 -0.040000 -1.000000
v 1.000000 -1.000000 -1.000000
v 1.000000 -0.040000 -1.000000
v 1.000000 -0.040000 -0.750000
v 1.000000 -1.000000 -0.750000
v 1.000000 -0.040000 -1.000000
v 1.000000 0.040000 -1.000000
v 1.000000 0.040000 -0.750000
v 1.000000 -0.040000 -0.750000
v 0.040000 1.000000 -1.000000
v 0.040000 0.800000 -1.000000
v -0.040000 0.800000 -1.000000
v -0.040000 1.000000 -1.000000
v -1.000000 -1.000000 -0.750000
v -0.800000 -0.800000 -0.750000
v -0.800000 -0.040000 -0.750000
v -1.000000 -0.040000 -0.750000
v -1.000000 -0.040000 -0.750000
v -0.800000 -0.040000 -0.750000
v -0.800000 0.040000 -0.750000
v -1.000000 0.040000 -0.750000
v 1.000000 0.040000 -1.000000
v 0.800000 0.040000 -1.000000
v 0.800000 0.800000 -1.000000
v 1.000000 1.000000 -1.000000
v -1.000000 -1.000000 -0.750000
v -1.000000 -0.040000 -0.750000
v -1.000000 -0.040000 -1.000000
v -1.000000 -1.000000 -1.000000
v -1.000000 -0.040000 -0.750000
v -1.000000 0.040000 -0.750000
v -1.000000 0.040000 -1.000000
v -1.000000 -0.040000 -1.000000
v 1.000000 1.000000 -1.000000
v 0.800000 0.800000 -1.000000
v 0.040000 0.800000 -1.000000
v 0.040000 1.000000 -1.000000
v -1.000000 1.000000 -1.000000
v -0.800000 0.800000 -1.000000
v -0.800000 0.040000 -1.000000
v -1.000000 0.040000 -1.000000
v -0.800000 -0.800000 -1.000000
v -1.000000 -1.000000 -1.000000
v -1.000000 -0.040000 -1.000000
v -0.800000 -0.040000 -1.000000
v 0.800000 -0.800000 -1.000000
v 1.000000 -1.000000 -1.000000
v 0.040000 -1.000000 -1.000000
v 0.040000 -0.800000 -1.000000
v -0.800000 -0.040000 -0.750000
v -0.800000 -0.040000 -0.810000
v -0.800000 0.040000 -0.810000
v -0.800000 0.040000 -0.750000
v -0.800000 0.800000 -0.750000
v -0.800000 0.040000 -0.750000
v -0.800000 0.040000 -0.810000
v -0.800000 0.800000 -0.810000
v -0.800000 -0.040000 -0.810000
v -0.800000 -0.040000 -0.750000
v -0.800000 -0.800000 -0.750000
v -0.800000 -0.800000 -0.810000
v -0.800000 0.800000 -0.875000
v -0.800000 0.800000 -0.810000
v -0.800000 0.040000 -0.810000
v -0.800000 0.040000 -0.875000
v -0.800000 -0.800000 -0.810000
v -0.800000 -0.800000 -0.875000
v -0.800000 -0.040000 -0.875000
v -0.800000 -0.040000 -0.810000
v 0.800000 -0.800000 -0.750000
v 0.800000 -0.040000 -0.750000
v 0.800000 -0.040000 -0.810000
v 0.800000 -0.800000 -0.810000
v 0.800000 0.040000 -0.750000
v 0.800000 0.040000 -0.810000
v 0.800000 -0.040000 -0.810000
v 0.800000 -0.040000 -0.750000
v 0.800000 0.040000 -0.810000
v 0.800000 0.040000 -0.750000
v 0.800000 0.800000 -0.750000
v 0.800000 0.800000 -0.810000
v 0.800000 0.040000 -0.875000
v 0.800000 0.040000 -0.810000
v 0.800000 0.800000 -0.810000
v 0.800000 0.800000 -0.875000
v 0.800000 -0.800000 -0.875000
v 0.800000 -0.800000 -0.810000
v 0.800000 -0.040000 -0.810000
v 0.800000 -0.040000 -0.875000
v -0.040000 0.800000 -0.810000
v -0.040000 0.800000 -0.750000
v -0.800000 0.800000 -0.750000
v -0.800000 0.800000 -0.810000
v -0.040000 0.800000 -0.875000
v -0.040000 0.800000 -0.810000
v -0.800000 0.800000 -0.810000
v -0.800000 0.800000 -0.875000
v -0.040000 0.800000 -0.750000
v -0.040000 0.800000 -0.810000
v 0.040000 0.800000 -0.810000
v 0.040000 0.800000 -0.750000
v 0.800000 0.800000 -0.750000
v 0.040000 0.800000 -0.750000
v 0.040000 0.800000 -0.810000
v 0.800000 0.800000 -0.810000
v 0.800000 0.800000 -0.875000
v 0.800000 0.800000 -0.810000
v 0.040000 0.800000 -0.810000
v 0.040000 0.800000 -0.875000
v -0.800000 -0.800000 -0.875000
v -0.800000 -0.800000 -0.810000
v -0.040000 -0.800000 -0.810000
v -0.040000 -0.800000 -0.875000
v -0.800000 -0.800000 -0.750000
v -0.040000 -0.800000 -0.750000
v -0.040000 -0.800000 -0.810000
v -0.800000 -0.800000 -0.810000
v 0.040000 -0.800000 -0.750000
v 0.040000 -0.800000 -0.810000
v -0.040000 -0.800000 -0.810000
v -0.040000 -0.800000 -0.750000
v 0.040000 -0.800000 -0.810000
v 0.800000 -0.800000 -0.810000
v 0.800000 -0.800000 -0.875000
v 0.040000 -0.800000 -0.875000
v 0.040000 -0.800000 -0.750000
v 0.800000 -0.800000 -0.750000
v 0.800000 -0.800000 -0.810000
v 0.040000 -0.800000 -0.810000
v 0.040000 -0.800000 -0.875000
v 0.800000 -0.800000 -0.875000
v 0.800000 -0.800000 -0.940000
v 0.040000 -0.800000 -0.940000
v 0.800000 -0.800000 -1.000000
v 0.040000 -0.800000 -1.000000
v 0.040000 -0.800000 -0.940000
v 0.800000 -0.800000 -0.940000
v -0.040000 -0.800000 -1.000000
v -0.040000 -0.800000 -0.940000
v 0.040000 -0.800000 -0.940000
v 0.040000 -0.800000 -1.000000
v -0.800000 -0.800000 -0.875000
v -0.040000 -0.800000 -0.875000
v -0.040000 -0.800000 -0.940000
v -0.800000 -0.800000 -0.940000
v -0.040000 -0.800000 -1.000000
v -0.800000 -0.800000 -1.000000
v -0.800000 -0.800000 -0.940000
v -0.040000 -0.800000 -0.940000
v 0.800000 -0.040000 -0.940000
v 0.800000 -0.040000 -1.000000
v 0.800000 -0.800000 -1.000000
v 0.800000 -0.800000 -0.940000
v 0.800000 -0.040000 -0.875000
v 0.800000 -0.040000 -0.940000
v 0.800000 -0.800000 -0.940000
v 0.800000 -0.800000 -0.875000
v 0.800000 0.800000 -1.000000
v 0.800000 0.040000 -1.000000
v 0.800000 0.040000 -0.940000
v 0.800000 0.800000 -0.940000
v 0.800000 0.040000 -0.940000
v 0.800000 0.040000 -0.875000
v 0.800000 0.800000 -0.875000
v 0.800000 0.800000 -0.940000
v 0.800000 -0.040000 -1.000000
v 0.800000 -0.040000 -0.940000
v 0.800000 0.040000 -0.940000
v 0.800000 0.040000 -1.000000
v 0.040000 0.800000 -0.940000
v 0.040000 0.800000 -1.000000
v 0.800000 0.800000 -1.000000
v 0.800000 0.800000 -0.940000
v 0.800000 0.800000 -0.875000
v 0.040000 0.800000 -0.875000
v 0.040000 0.800000 -0.940000
v 0.800000 0.800000 -0.940000
v 0.040000 0.800000 -1.000000
v 0.040000 0.800000 -0.940000
v -0.040000 0.800000 -0.940000
v -0.040000 0.800000 -1.000000
v -0.800000 0.800000 -1.000000
v -0.040000 0.800000 -1.000000
v -0.040000 0.800000 -0.940000
v -0.800000 0.800000 -0.940000
v -0.040000 0.800000 -0.875000
v -0.800000 0.800000 -0.875000
v -0.800000 0.800000 -0.940000
v -0.040000 0.800000 -0.940000
v -0.800000 0.040000 -0.940000
v -0.800000 0.040000 -1.000000
v -0.800000 0.800000 -1.000000
v -0.800000 0.800000 -0.940000
v -0.800000 0.040000 -0.875000
v -0.800000 0.040000 -0.940000
v -0.800000 0.800000 -0.940000
v -0.800000 0.800000 -0.875000
v -0.800000 0.040000 -1.000000
v -0.800000 0.040000 -0.940000
v -0.800000 -0.040000 -0.940000
v -0.800000 -0.040000 -1.000000
v -0.800000 -0.040000 -0.940000
v -0.800000 -0.040000 -0.875000
v -0.800000 -0.800000 -0.875000
v -0.800000 -0.800000 -0.940000
v -0.800000 -0.800000 -1.000000
v -0.800000 -0.040000 -1.000000
v -0.800000 -0.040000 -0.940000
v -0.800000 -0.800000 -0.940000
v -0.800000 0.040000 -0.875000
v -0.040000 0.040000 -0.875000
v -0.040000 0.040000 -0.940000
v -0.800000 0.040000 -0.940000
v -0.800000 0.040000 -0.810000
v -0.040000 0.040000 -0.810000
v -0.040000 0.040000 -0.875000
v -0.800000 0.040000 -0.875000
v -0.040000 0.040000 -0.875000
v -0.040000 0.800000 -0.875000
v -0.040000 0.800000 -0.940000
v -0.040000 0.040000 -0.940000
v -0.040000 0.040000 -0.810000
v -0.040000 0.800000 -0.810000
v -0.040000 0.800000 -0.875000
v -0.040000 0.040000 -0.875000
v 0.800000 0.040000 -0.875000
v 0.040000 0.040000 -0.875000
v 0.040000 0.040000 -0.810000
v 0.800000 0.040000 -0.810000
v 0.800000 0.040000 -0.940000
v 0.040000 0.040000 -0.940000
v 0.040000 0.040000 -0.875000
v 0.800000 0.040000 -0.875000
v 0.040000 0.040000 -0.940000
v 0.040000 0.800000 -0.940000
v 0.040000 0.800000 -0.875000
v 0.040000 0.040000 -0.875000
v 0.040000 0.040000 -0.875000
v 0.040000 0.800000 -0.875000
v 0.040000 0.800000 -0.810000
v 0.040000 0.040000 -0.810000
v -0.800000 -0.040000 -0.940000
v -0.040000 -0.040000 -0.940000
v -0.040000 -0.040000 -0.875000
v -0.800000 -0.040000 -0.875000
v -0.800000 -0.040000 -0.875000
v -0.040000 -0.040000 -0.875000
v -0.040000 -0.040000 -0.810000
v -0.800000 -0.040000 -0.810000
v -0.040000 -0.040000 -0.875000
v -0.040000 -0.800000 -0.875000
v -0.040000 -0.800000 -0.810000
v -0.040000 -0.040000 -0.810000
v -0.040000 -0.040000 -0.940000
v -0.040000 -0.800000 -0.940000
v -0.040000 -0.800000 -0.875000
v -0.040000 -0.040000 -0.875000
v 0.800000 -0.040000 -0.810000
v 0.040000 -0.040000 -0.810000
v 0.040000 -0.040000 -0.875000
v 0.800000 -0.040000 -0.875000
v 0.800000 -0.040000 -0.875000
v 0.040000 -0.040000 -0.875000
v 0.040000 -0.040000 -0.940000
v 0.800000 -0.040000 -0.940000
v 0.040000 -0.040000 -0.875000
v 0.040000 -0.800000 -0.875000
v 0.040000 -0.800000 -0.940000
v 0.040000 -0.040000 -0.940000
v 0.040000 -0.040000 -0.810000
v 0.040000 -0.800000 -0.810000
v 0.040000 -0.800000 -0.875000
v 0.040000 -0.040000 -0.875000
v -0.800000 -0.040000 -0.810000
v -0.040000 -0.040000 -0.810000
v -0.040000 0.040000 -0.810000
v -0.800000 0.040000 -0.810000
v 0.040000 0.800000 -0.810000
v -0.040000 0.800000 -0.810000
v -0.040000 0.040000 -0.810000
v 0.040000 0.040000 -0.810000
v 0.800000 -0.040000 -0.810000
v 0.800000 0.040000 -0.810000
v 0.040000 0.040000 -0.810000
v 0.040000 -0.040000 -0.810000
v 0.040000 -0.800000 -0.810000
v 0.040000 -0.040000 -0.810000
v -0.040000 -0.040000 -0.810000
v -0.040000 -0.800000 -0.810000
v 0.040000 -0.040000 -0.810000
v 0.040000 0.040000 -0.810000
v -0.040000 0.040000 -0.810000
v -0.040000 -0.040000 -0.810000
v 0.040000 0.800000 -0.940000
v 0.040000 0.040000 -0.940000
v -0.040000 0.040000 -0.940000
v -0.040000 0.800000 -0.940000
v 0.800000 -0.040000 -0.940000
v 0.040000 -0.040000 -0.940000
v 0.040000 0.040000 -0.940000
v 0.800000 0.040000 -0.940000
v -0.800000 -0.040000 -0.940000
v -0.800000 0.040000 -0.940000
v -0.040000 0.040000 -0.940000
v -0.040000 -0.040000 -0.940000
v 0.040000 -0.800000 -0.940000
v -0.040000 -0.800000 -0.940000
v -0.040000 -0.040000 -0.940000
v 0.040000 -0.040000 -0.940000
v 0.040000 0.040000 -0.940000
v 0.040000 -0.040000 -0.940000
v -0.040000 -0.040000 -0.940000
v -0.040000 0.040000 -0.940000
v -0.040000 0.040000 -0.875000
v -0.800000 0.040000 -0.875000
v -0.800000 0.800000 -0.875000
v -0.040000 0.800000 -0.875000
v 0.040000 0.040000 -0.875000
v 0.800000 0.040000 -0.875000
v 0.800000 0.800000 -0.875000
v 0.040000 0.800000 -0.875000
v -0.040000 -0.040000 -0.875000
v -0.800000 -0.040000 -0.875000
v -0.800000 -0.800000 -0.875000
v -0.040000 -0.800000 -0.875000
v 0.040000 -0.040000 -0.875000
v 0.800000 -0.040000 -0.875000
v 0.800000 -0.800000 -0.875000
v 0.040000 -0.800000 -0.875000

vt 0.089484 0.000336
vt 0.152680 0.243010
vt 0.152680 0.000336
vt 0.089484 0.243010
vt 0.152680 0.243010
vt 0.089484 0.000336
vt 0.000336 0.809923
vt 0.243010 0.873119
vt 0.000336 0.873119
vt 0.243010 0.809923
vt 0.243010 0.873119
vt 0.000336 0.809923
vt -0.138696 0.505907
vt -0.075499 0.263233
vt -0.075499 0.505907
vt -0.138696 0.263233
vt -0.075499 0.263233
vt -0.138696 0.505907
vt 0.317663 0.505908
vt 0.380860 0.263233
vt 0.380860 0.505907
vt 0.317663 0.263233
vt 0.380860 0.263233
vt 0.317663 0.505908
vt 0.424425 0.050893
vt 0.373868 0.243010
vt 0.424425 0.243010
vt 0.373868 0.000336
vt 0.373868 0.243010
vt 0.424425 0.050893
vt 0.652605 0.455350
vt 0.602047 0.263233
vt 0.652605 0.263233
vt 0.602048 0.505907
vt 0.602047 0.263233
vt 0.652605 0.455350
vt 0.196245 0.455350
vt 0.145688 0.263233
vt 0.196245 0.263233
vt 0.145688 0.505908
vt 0.145688 0.263233
vt 0.196245 0.455350
vt 0.455350 0.538178
vt 0.263233 0.588735
vt 0.263233 0.538178
vt 0.505907 0.588735
vt 0.263233 0.588735
vt 0.455350 0.538178
vt 0.424425 0.263233
vt 0.373868 0.505907
vt 0.424425 0.455350
vt 0.373868 0.263233
vt 0.373868 0.505907
vt 0.424425 0.263233
vt 0.424425 0.243010
vt 0.373868 0.263233
vt 0.424425 0.263233
vt 0.373868 0.243010
vt 0.373868 0.263233
vt 0.424425 0.243010
vt 0.082492 0.263233
vt 0.031934 0.243010
vt 0.082492 0.243010
vt 0.031934 0.263233
vt 0.031934 0.243010
vt 0.082492 0.263233
vt 0.089484 0.263233
vt 0.152680 0.505908
vt 0.152680 0.263233
vt 0.089484 0.505908
vt 0.152680 0.505908
vt 0.089484 0.263233
vt 0.089484 0.243010
vt 0.152680 0.263233
vt 0.152680 0.243010
vt 0.089484 0.263233
vt 0.152680 0.263233
vt 0.089484 0.243010
vt 0.196245 0.243010
vt 0.145688 0.000336
vt 0.196245 0.050893
vt 0.145688 0.243010
vt 0.145688 0.000336
vt 0.196245 0.243010
vt 0.196245 0.263233
vt 0.145688 0.243010
vt 0.196245 0.243010
vt 0.145688 0.263233
vt 0.145688 0.243010
vt 0.196245 0.263233
vt 0.455350 0.702489
vt 0.263233 0.651932
vt 0.505907 0.651932
vt 0.263233 0.702489
vt 0.263233 0.651932
vt 0.455350 0.702489
vt -0.138696 0.243010
vt -0.075499 0.000336
vt -0.075500 0.243010
vt -0.138696 0.000336
vt -0.075499 0.000336
vt -0.138696 0.243010
vt -0.138696 0.263233
vt -0.075500 0.243010
vt -0.075500 0.263233
vt -0.138696 0.243010
vt -0.075500 0.243010
vt -0.138696 0.263233
vt 0.260114 0.455350
vt 0.310671 0.263233
vt 0.260114 0.263233
vt 0.310671 0.505908
vt 0.310671 0.263233
vt 0.260114 0.455350
vt 0.082492 0.505908
vt 0.031934 0.263233
vt 0.082492 0.263233
vt 0.031934 0.455350
vt 0.031934 0.263233
vt 0.082492 0.505908
vt 0.243010 0.651932
vt 0.263233 0.702489
vt 0.243010 0.702489
vt 0.263233 0.651932
vt 0.263233 0.702489
vt 0.243010 0.651932
vt 0.243010 0.538178
vt 0.000336 0.588735
vt 0.050893 0.538178
vt 0.243010 0.588735
vt 0.000336 0.588735
vt 0.243010 0.538178
vt 0.263233 0.538178
vt 0.243010 0.588735
vt 0.243010 0.538178
vt 0.263233 0.588735
vt 0.243010 0.588735
vt 0.263233 0.538178
vt 0.488294 0.243010
vt 0.538851 0.263233
vt 0.488294 0.263233
vt 0.538851 0.243010
vt 0.538851 0.263233
vt 0.488294 0.243010
vt 0.263233 0.809923
vt 0.505907 0.873119
vt 0.263233 0.873119
vt 0.505907 0.809923
vt 0.505907 0.873119
vt 0.263233 0.809923
vt 0.243010 0.809923
vt 0.263233 0.873119
vt 0.243010 0.873119
vt 0.263233 0.809923
vt 0.263233 0.873119
vt 0.243010 0.809923
vt 0.260114 0.263233
vt 0.310671 0.243010
vt 0.260114 0.243010
vt 0.310671 0.263233
vt 0.310671 0.243010
vt 0.260114 0.263233
vt 0.652605 0.243010
vt 0.602047 0.000336
vt 0.652605 0.050893
vt 0.602047 0.243010
vt 0.602047 0.000336
vt 0.652605 0.243010
vt 0.652605 0.263233
vt 0.602047 0.243010
vt 0.652605 0.243010
vt 0.602047 0.263233
vt 0.602047 0.243010
vt 0.652605 0.263233
vt 0.050893 0.702489
vt 0.243010 0.651932
vt 0.243010 0.702489
vt 0.000336 0.651932
vt 0.243010 0.651932
vt 0.050893 0.702489
vt 0.317663 0.243010
vt 0.380860 0.000336
vt 0.380860 0.243010
vt 0.317663 0.000336
vt 0.380860 0.000336
vt 0.317663 0.243010
vt 0.317663 0.263233
vt 0.380860 0.243010
vt 0.380860 0.263233
vt 0.317663 0.243010
vt 0.380860 0.243010
vt 0.317663 0.263233
vt 0.260114 0.243010
vt 0.310671 0.000336
vt 0.260114 0.050893
vt 0.310671 0.243010
vt 0.310671 0.000336
vt 0.260114 0.243010
vt 0.488294 0.263233
vt 0.538851 0.505907
vt 0.488294 0.455350
vt 0.538851 0.263233
vt 0.538851 0.505907
vt 0.488294 0.263233
vt 0.538851 0.243010
vt 0.488294 0.050893
vt 0.538851 0.000336
vt 0.488294 0.243010
vt 0.488294 0.050893
vt 0.538851 0.243010
vt 0.082492 0.243010
vt 0.031935 0.050893
vt 0.082492 0.000336
vt 0.031934 0.243010
vt 0.031935 0.050893
vt 0.082492 0.243010
vt 0.888956 0.263232
vt 0.873787 0.243009
vt 0.888956 0.243010
vt 0.873787 0.263232
vt 0.873787 0.243009
vt 0.888956 0.263232
vt 0.888960 0.263233
vt 0.873792 0.455350
vt 0.873793 0.263233
vt 0.888960 0.455350
vt 0.873792 0.455350
vt 0.888960 0.263233
vt 0.873794 0.050894
vt 0.888960 0.243011
vt 0.873793 0.243011
vt 0.888960 0.050894
vt 0.888960 0.243011
vt 0.873794 0.050894
vt 0.888958 0.263234
vt 0.905389 0.455351
vt 0.888958 0.455351
vt 0.905389 0.263234
vt 0.905389 0.455351
vt 0.888958 0.263234
vt 0.905389 0.243010
vt 0.888960 0.050894
vt 0.905390 0.050893
vt 0.888958 0.243010
vt 0.888960 0.050894
vt 0.905389 0.243010
vt 0.263233 0.301822
vt 0.455349 0.316989
vt 0.263233 0.316989
vt 0.455349 0.301822
vt 0.455349 0.316989
vt 0.263233 0.301822
vt 0.263232 0.301822
vt 0.243009 0.316989
vt 0.243009 0.301822
vt 0.263232 0.316989
vt 0.243009 0.316989
vt 0.263232 0.301822
vt 0.050894 0.316991
vt 0.243010 0.301822
vt 0.243010 0.316989
vt 0.050894 0.301823
vt 0.243010 0.301822
vt 0.050894 0.316991
vt 0.050893 0.301825
vt 0.243010 0.285393
vt 0.243011 0.301823
vt 0.050893 0.285394
vt 0.243010 0.285393
vt 0.050893 0.301825
vt 0.263233 0.301825
vt 0.455351 0.285393
vt 0.455351 0.301825
vt 0.263233 0.285393
vt 0.455351 0.285393
vt 0.263233 0.301825
vt 0.645615 0.455351
vt 0.660782 0.263233
vt 0.645615 0.263233
vt 0.660782 0.455351
vt 0.660782 0.263233
vt 0.645615 0.455351
vt 0.660779 0.455350
vt 0.677209 0.263233
vt 0.660778 0.263233
vt 0.677210 0.455350
vt 0.677209 0.263233
vt 0.660779 0.455350
vt 0.660778 0.243010
vt 0.645610 0.263233
vt 0.660778 0.263233
vt 0.645610 0.243010
vt 0.645610 0.263233
vt 0.660778 0.243010
vt 0.660781 0.243010
vt 0.645614 0.050893
vt 0.645614 0.243010
vt 0.660781 0.050893
vt 0.645614 0.050893
vt 0.660781 0.243010
vt 0.660779 0.243010
vt 0.677210 0.050893
vt 0.660779 0.050893
vt 0.677209 0.243011
vt 0.677210 0.050893
vt 0.660779 0.243010
vt 0.432599 0.263233
vt 0.449030 0.455350
vt 0.432599 0.455351
vt 0.449030 0.263233
vt 0.449030 0.455350
vt 0.432599 0.263233
vt 0.432601 0.263233
vt 0.417434 0.455350
vt 0.417434 0.263234
vt 0.432601 0.455350
vt 0.417434 0.455350
vt 0.432601 0.263233
vt 0.432599 0.263233
vt 0.417432 0.243010
vt 0.432599 0.243010
vt 0.417432 0.263233
vt 0.417432 0.243010
vt 0.432599 0.263233
vt 0.449030 0.050893
vt 0.432599 0.243010
vt 0.432599 0.050893
vt 0.449030 0.243010
vt 0.432599 0.243010
vt 0.449030 0.050893
vt 0.432600 0.050894
vt 0.417434 0.243011
vt 0.417433 0.050894
vt 0.432601 0.243011
vt 0.417434 0.243011
vt 0.432600 0.050894
vt 0.237954 0.050893
vt 0.221523 0.243010
vt 0.221523 0.050893
vt 0.237954 0.243010
vt 0.221523 0.243010
vt 0.237954 0.050893
vt 0.237955 0.243011
vt 0.253123 0.050894
vt 0.253122 0.243011
vt 0.237955 0.050894
vt 0.253123 0.050894
vt 0.237955 0.243011
vt 0.237956 0.243011
vt 0.253123 0.263233
vt 0.237956 0.263233
vt 0.253123 0.243011
vt 0.253123 0.263233
vt 0.237956 0.243011
vt 0.237954 0.263233
vt 0.221522 0.455350
vt 0.221523 0.263233
vt 0.237953 0.455350
vt 0.221522 0.455350
vt 0.237954 0.263233
vt 0.237956 0.455351
vt 0.253123 0.263233
vt 0.253123 0.455351
vt 0.237955 0.263232
vt 0.253123 0.263233
vt 0.237956 0.455351
vt 0.455350 0.481301
vt 0.263233 0.496468
vt 0.263233 0.481301
vt 0.455350 0.496468
vt 0.263233 0.496468
vt 0.455350 0.481301
vt 0.455351 0.496469
vt 0.263234 0.512901
vt 0.263234 0.496470
vt 0.455351 0.512900
vt 0.263234 0.512901
vt 0.455351 0.496469
vt 0.243011 0.496468
vt 0.050894 0.481301
vt 0.243011 0.481301
vt 0.050894 0.496468
vt 0.050894 0.481301
vt 0.243011 0.496468
vt 0.050893 0.512902
vt 0.243010 0.496470
vt 0.243010 0.512901
vt 0.050893 0.496471
vt 0.243010 0.496470
vt 0.050893 0.512902
vt 0.243010 0.496468
vt 0.263233 0.481301
vt 0.263233 0.496468
vt 0.243010 0.481301
vt 0.263233 0.481301
vt 0.243010 0.496468
vt 0.481303 0.050893
vt 0.466135 0.243010
vt 0.481302 0.243011
vt 0.466135 0.050893
vt 0.466135 0.243010
vt 0.481303 0.050893
vt 0.466133 0.243010
vt 0.449702 0.050893
vt 0.449702 0.243010
vt 0.466133 0.050893
vt 0.449702 0.050893
vt 0.466133 0.243010
vt 0.466135 0.263233
vt 0.481302 0.243010
vt 0.466135 0.243010
vt 0.481302 0.263233
vt 0.481302 0.243010
vt 0.466135 0.263233
vt 0.466135 0.263233
vt 0.481302 0.455351
vt 0.481302 0.263233
vt 0.466135 0.455351
vt 0.481302 0.455351
vt 0.466135 0.263233
vt 0.466133 0.455351
vt 0.449703 0.263233
vt 0.449702 0.455351
vt 0.466134 0.263233
vt 0.449703 0.263233
vt 0.466133 0.455351
vt 0.709481 0.455351
vt 0.694314 0.263233
vt 0.709482 0.263233
vt 0.694314 0.455351
vt 0.694314 0.263233
vt 0.709481 0.455351
vt 0.694314 0.455351
vt 0.677881 0.263233
vt 0.694313 0.263233
vt 0.677883 0.455351
vt 0.677881 0.263233
vt 0.694314 0.455351
vt 0.694316 0.243010
vt 0.709482 0.263233
vt 0.694316 0.263233
vt 0.709482 0.243010
vt 0.709482 0.263233
vt 0.694316 0.243010
vt 0.677881 0.050893
vt 0.694313 0.243010
vt 0.677882 0.243010
vt 0.694313 0.050893
vt 0.694313 0.243010
vt 0.677881 0.050893
vt 0.694314 0.243011
vt 0.709482 0.050893
vt 0.709482 0.243011
vt 0.694314 0.050894
vt 0.709482 0.050893
vt 0.694314 0.243011
vt 0.706084 0.698698
vt 0.722513 0.890812
vt 0.722515 0.698698
vt 0.706082 0.890812
vt 0.722513 0.890812
vt 0.706084 0.698698
vt 0.688980 0.698699
vt 0.705411 0.890814
vt 0.705411 0.698700
vt 0.688980 0.890814
vt 0.705411 0.890814
vt 0.688980 0.698699
vt 0.706084 0.506579
vt 0.722516 0.698698
vt 0.722515 0.506580
vt 0.706084 0.698698
vt 0.722516 0.698698
vt 0.706084 0.506579
vt 0.688983 0.506580
vt 0.705414 0.698698
vt 0.705415 0.506581
vt 0.688982 0.698698
vt 0.705414 0.698698
vt 0.688983 0.506580
vt 1.028738 0.698699
vt 1.045165 0.890815
vt 1.045168 0.698699
vt 1.028734 0.890816
vt 1.045165 0.890815
vt 1.028738 0.698699
vt 0.688308 0.698697
vt 0.671877 0.506580
vt 0.671877 0.698696
vt 0.688309 0.506580
vt 0.671877 0.506580
vt 0.688308 0.698697
vt 0.688309 0.890814
vt 0.671878 0.698695
vt 0.671878 0.890814
vt 0.688308 0.698694
vt 0.671878 0.698695
vt 0.688309 0.890814
vt 1.028735 0.506581
vt 1.045167 0.698699
vt 1.045166 0.506581
vt 1.028736 0.698700
vt 1.045167 0.698699
vt 1.028735 0.506581
vt 0.671208 0.698697
vt 0.654774 0.506580
vt 0.654776 0.698696
vt 0.671206 0.506580
vt 0.654774 0.506580
vt 0.671208 0.698697
vt 0.654104 0.698698
vt 0.637672 0.506580
vt 0.637672 0.698697
vt 0.654104 0.506580
vt 0.637672 0.506580
vt 0.654104 0.698698
vt 0.654104 0.890814
vt 0.637672 0.698697
vt 0.637672 0.890814
vt 0.654103 0.698698
vt 0.637672 0.698697
vt 0.654104 0.890814
vt 0.671204 0.890814
vt 0.654773 0.698695
vt 0.654773 0.890814
vt 0.671204 0.698694
vt 0.654773 0.698695
vt 0.671204 0.890814
vt 1.062270 0.698695
vt 1.045841 0.506581
vt 1.045840 0.698695
vt 1.062271 0.506581
vt 1.045841 0.506581
vt 1.062270 0.698695
vt 1.079373 0.698696
vt 1.062944 0.506580
vt 1.062942 0.698696
vt 1.079374 0.506580
vt 1.062944 0.506580
vt 1.079373 0.698696
vt 1.079372 0.890814
vt 1.062940 0.698695
vt 1.062940 0.890814
vt 1.079371 0.698695
vt 1.062940 0.698695
vt 1.079372 0.890814
vt 1.062269 0.890816
vt 1.045839 0.698699
vt 1.045838 0.890817
vt 1.062270 0.698698
vt 1.045839 0.698699
vt 1.062269 0.890816
vt 0.646616 0.646616
vt 0.666839 0.454499
vt 0.666839 0.646616
vt 0.646616 0.454499
vt 0.666839 0.454499
vt 0.646616 0.646616
vt 0.646616 0.646616
vt 0.454498 0.666839
vt 0.454498 0.646616
vt 0.646616 0.666839
vt 0.454498 0.666839
vt 0.646616 0.646616
vt 0.646616 0.666839
vt 0.666839 0.858955
vt 0.646616 0.858955
vt 0.666839 0.666839
vt 0.666839 0.858955
vt 0.646616 0.666839
vt 0.666839 0.646616
vt 0.858956 0.666839
vt 0.666839 0.666839
vt 0.858956 0.646616
vt 0.858956 0.666839
vt 0.666839 0.646616
vt 0.646616 0.646616
vt 0.666839 0.666839
vt 0.646616 0.666839
vt 0.666839 0.646616
vt 0.666839 0.666839
vt 0.646616 0.646616
vt 0.699911 0.265372
vt 0.720134 0.073255
vt 0.720134 0.265372
vt 0.699911 0.073255
vt 0.720134 0.073255
vt 0.699911 0.265372
vt 0.720134 0.265372
vt 0.912251 0.285595
vt 0.720134 0.285595
vt 0.912251 0.265372
vt 0.912251 0.285595
vt 0.720134 0.265372
vt 0.699911 0.265372
vt 0.507795 0.285595
vt 0.507795 0.265372
vt 0.699911 0.285595
vt 0.507795 0.285595
vt 0.699911 0.265372
vt 0.699911 0.285595
vt 0.720134 0.477713
vt 0.699911 0.477713
vt 0.720134 0.285595
vt 0.720134 0.477713
vt 0.699911 0.285595
vt 0.699911 0.285595
vt 0.720134 0.265372
vt 0.720134 0.285595
vt 0.699911 0.265372
vt 0.720134 0.265372
vt 0.699911 0.285595
vt 0.000200 0.999800
vt 0.499800 0.500200
vt 0.499800 0.999800
vt 0.000200 0.500200
vt 0.499800 0.500200
vt 0.000200 0.999800
vt 0.499800 0.499800
vt 0.000200 0.000200
vt 0.499800 0.000200
vt 0.000200 0.499800
vt 0.000200 0.000200
vt 0.499800 0.499800
vt 0.999800 0.499800
vt 0.500200 0.000200
vt 0.999800 0.000200
vt 0.500200 0.499800
vt 0.500200 0.000200
vt 0.999800 0.499800
vt 0.999800 0.999800
vt 0.500200 0.500200
vt 0.999800 0.500200
vt 0.500200 0.999800
vt 0.500200 0.500200
vt 0.999800 0.999800

vn -0.000000 1.000000 0.000000
vn -0.000000 1.000000 0.000000
vn -0.000000 1.000000 0.000000
vn -0.000000 1.000000 0.000000
vn -0.000000 1.000000 0.000000
vn -0.000000 1.000000 0.000000
vn 1.000000 0.000000 0.000000
vn 1.000000 0.000000 0.000000
vn 1.000000 0.000000 0.000000
vn 1.000000 0.000000 0.000000
vn 1.000000 0.000000 0.000000
vn 1.000000 0.000000 0.000000
vn -0.000000 -1.000000 0.000000
vn -0.000000 -1.000000 0.000000
vn -0.000000 -1.000000 0.000000
vn -0.000000 -1.000000 0.000000
vn -0.000000 -1.000000 0.000000
vn -0.000000 -1.000000 0.000000
vn -1.000000 0.000000 0.000000
vn -1.000000 0.000000 0.000000
vn -1.000000 0.000000 0.000000
vn -1.000000 0.000000 0.000000
vn -1.000000 0.000000 0.000000
vn -1.000000 0.000000 0.000000
vn -0.000000 0.000000 1.000000
vn -0.000000 0.000000 1.000000
vn -0.000000 0.000000 1.000000
vn -0.000000 0.000000 1.000000
vn -0.000000 0.000000 1.000000
vn -0.000000 0.000000 1.000000
vn -0.000000 0.000000 1.000000
vn -0.000000 0.000000 1.000000
vn -0.000000 0.000000 1.000000
vn -0.000000 0.000000 1.000000
vn -0.000000 0.000000 1.000000
vn -0.000000 0.000000 1.000000
vn -0.000000 0.000000 1.000000
vn -0.000000 0.000000 1.000000
vn -0.000000 0.000000 1.000000
vn -0.000000 0.000000 1.000000
vn -0.000000 0.000000 1.000000
vn -0.000000 0.000000 1.000000
vn -0.000000 0.000000 1.000000
vn -0.000000 0.000000 1.000000
vn -0.000000 0.000000 1.000000
vn -0.000000 0.000000 1.000000
vn -0.000000 0.000000 1.000000
vn -0.000000 0.000000 1.000000
vn -0.000000 -0.000000 1.000000
vn -0.000000 -0.000000 1.000000
vn -0.000000 -0.000000 1.000000
vn -0.000000 0.000000 1.000000
vn -0.000000 0.000000 1.000000
vn -0.000000 0.000000 1.000000
vn -0.000000 0.000000 1.000000
vn -0.000000 0.000000 1.000000
vn -0.000000 0.000000 1.000000
vn -0.000000 0.000000 1.000000
vn -0.000000 0.000000 1.000000
vn -0.000000 0.000000 1.000000
vn -0.000000 0.000000 -1.000000
vn -0.000000 0.000000 -1.000000
vn -0.000000 0.000000 -1.000000
vn -0.000000 0.000000 -1.000000
vn -0.000000 0.000000 -1.000000
vn -0.000000 0.000000 -1.000000
vn -0.000000 1.000000 0.000000
vn -0.000000 1.000000 0.000000
vn -0.000000 1.000000 0.000000
vn -0.000000 1.000000 0.000000
vn -0.000000 1.000000 0.000000
vn -0.000000 1.000000 0.000000
vn -0.000000 1.000000 0.000000
vn -0.000000 1.000000 0.000000
vn -0.000000 1.000000 0.000000
vn -0.000000 1.000000 0.000000
vn -0.000000 1.000000 0.000000
vn -0.000000 1.000000 0.000000
vn -0.000000 0.000000 1.000000
vn -0.000000 0.000000 1.000000
vn -0.000000 0.000000 1.000000
vn -0.000000 0.000000 1.000000
vn -0.000000 0.000000 1.000000
vn -0.000000 0.000000 1.000000
vn -0.000000 0.000000 1.000000
vn -0.000000 0.000000 1.000000
vn -0.000000 0.000000 1.000000
vn -0.000000 0.000000 1.000000
vn -0.000000 0.000000 1.000000
vn -0.000000 0.000000 1.000000
vn -0.000000 0.000000 -1.000000
vn -0.000000 0.000000 -1.000000
vn -0.000000 0.000000 -1.000000
vn -0.000000 0.000000 -1.000000
vn -0.000000 0.000000 -1.000000
vn -0.000000 0.000000 -1.000000
vn -0.000000 -1.000000 0.000000
vn -0.000000 -1.000000 0.000000
vn -0.000000 -1.000000 0.000000
vn -0.000000 -1.000000 0.000000
vn -0.000000 -1.000000 0.000000
vn -0.000000 -1.000000 0.000000
vn -0.000000 -1.000000 0.000000
vn -0.000000 -1.000000 0.000000
vn -0.000000 -1.000000 0.000000
vn -0.000000 -1.000000 0.000000
vn -0.000000 -1.000000 0.000000
vn -0.000000 -1.000000 0.000000
vn -0.000000 0.000000 -1.000000
vn -0.000000 0.000000 -1.000000
vn -0.000000 0.000000 -1.000000
vn -0.000000 0.000000 -1.000000
vn -0.000000 0.000000 -1.000000
vn -0.000000 0.000000 -1.000000
vn -0.000000 0.000000 -1.000000
vn -0.000000 0.000000 -1.000000
vn -0.000000 0.000000 -1.000000
vn -0.000000 0.000000 -1.000000
vn -0.000000 0.000000 -1.000000
vn -0.000000 0.000000 -1.000000
vn -0.000000 0.000000 -1.000000
vn -0.000000 0.000000 -1.000000
vn -0.000000 0.000000 -1.000000
vn -0.000000 0.000000 -1.000000
vn -0.000000 0.000000 -1.000000
vn -0.000000 0.000000 -1.000000
vn -0.000000 0.000000 1.000000
vn -0.000000 0.000000 1.000000
vn -0.000000 0.000000 1.000000
vn -0.000000 0.000000 1.000000
vn -0.000000 0.000000 1.000000
vn -0.000000 0.000000 1.000000
vn -0.000000 0.000000 1.000000
vn -0.000000 0.000000 1.000000
vn -0.000000 0.000000 1.000000
vn -0.000000 0.000000 1.000000
vn -0.000000 0.000000 1.000000
vn -0.000000 0.000000 1.000000
vn -0.000000 0.000000 -1.000000
vn -0.000000 0.000000 -1.000000
vn -0.000000 0.000000 -1.000000
vn -0.000000 0.000000 -1.000000
vn -0.000000 0.000000 -1.000000
vn -0.000000 0.000000 -1.000000
vn 1.000000 0.000000 0.000000
vn 1.000000 0.000000 0.000000
vn 1.000000 0.000000 0.000000
vn 1.000000 0.000000 0.000000
vn 1.000000 0.000000 0.000000
vn 1.000000 0.000000 0.000000
vn 1.000000 0.000000 0.000000
vn 1.000000 0.000000 0.000000
vn 1.000000 0.000000 0.000000
vn 1.000000 0.000000 0.000000
vn 1.000000 0.000000 0.000000
vn 1.000000 0.000000 0.000000
vn -0.000000 0.000000 -1.000000
vn -0.000000 0.000000 -1.000000
vn -0.000000 0.000000 -1.000000
vn -0.000000 0.000000 -1.000000
vn -0.000000 0.000000 -1.000000
vn -0.000000 0.000000 -1.000000
vn -0.000000 0.000000 1.000000
vn -0.000000 0.000000 1.000000
vn -0.000000 0.000000 1.000000
vn -0.000000 0.000000 1.000000
vn -0.000000 0.000000 1.000000
vn -0.000000 0.000000 1.000000
vn -0.000000 0.000000 1.000000
vn -0.000000 0.000000 1.000000
vn -0.000000 0.000000 1.000000
vn -0.000000 0.000000 1.000000
vn -0.000000 0.000000 1.000000
vn -0.000000 0.000000 1.000000
vn -0.000000 0.000000 -1.000000
vn -0.000000 0.000000 -1.000000
vn -0.000000 0.000000 -1.000000
vn -0.000000 0.000000 -1.000000
vn -0.000000 0.000000 -1.000000
vn -0.000000 0.000000 -1.000000
vn -1.000000 0.000000 0.000000
vn -1.000000 0.000000 0.000000
vn -1.000000 0.000000 0.000000
vn -1.000000 0.000000 0.000000
vn -1.000000 0.000000 0.000000
vn -1.000000 0.000000 0.000000
vn -1.000000 0.000000 0.000000
vn -1.000000 0.000000 0.000000
vn -1.000000 0.000000 0.000000
vn -1.000000 0.000000 0.000000
vn -1.000000 0.000000 0.000000
vn -1.000000 0.000000 0.000000
vn -0.000000 0.000000 -1.000000
vn -0.000000 0.000000 -1.000000
vn -0.000000 0.000000 -1.000000
vn -0.000000 0.000000 -1.000000
vn -0.000000 0.000000 -1.000000
vn -0.000000 0.000000 -1.000000
vn -0.000000 0.000000 -1.000000
vn -0.000000 0.000000 -1.000000
vn -0.000000 0.000000 -1.000000
vn -0.000000 0.000000 -1.000000
vn -0.000000 0.000000 -1.000000
vn -0.000000 0.000000 -1.000000
vn -0.000000 0.000000 -1.000000
vn -0.000000 0.000000 -1.000000
vn -0.000000 0.000000 -1.000000
vn -0.000000 0.000000 -1.000000
vn -0.000000 0.000000 -1.000000
vn -0.000000 0.000000 -1.000000
vn -0.000000 0.000000 -1.000000
vn -0.000000 0.000000 -1.000000
vn -0.000000 0.000000 -1.000000
vn -0.000000 0.000000 -1.000000
vn -0.000000 0.000000 -1.000000
vn -0.000000 0.000000 -1.000000
vn 1.000000 0.000000 0.000000
vn 1.000000 0.000000 0.000000
vn 1.000000 0.000000 0.000000
vn 1.000000 0.000000 0.000000
vn 1.000000 0.000000 0.000000
vn 1.000000 0.000000 0.000000
vn 1.000000 0.000000 0.000000
vn 1.000000 0.000000 0.000000
vn 1.000000 0.000000 0.000000
vn 1.000000 0.000000 0.000000
vn 1.000000 0.000000 0.000000
vn 1.000000 0.000000 0.000000
vn 1.000000 0.000000 -0.000001
vn 1.000000 0.000000 -0.000001
vn 1.000000 0.000000 -0.000001
vn 1.000000 0.000000 0.000000
vn 1.000000 0.000000 0.000000
vn 1.000000 0.000000 0.000000
vn 1.000000 0.000000 0.000000
vn 1.000000 0.000000 0.000000
vn 1.000000 0.000000 0.000000
vn 1.000000 0.000000 0.000000
vn 1.000000 0.000000 0.000000
vn 1.000000 0.000000 0.000000
vn 1.000000 0.000000 0.000000
vn 1.000000 0.000000 0.000000
vn 1.000000 0.000000 0.000000
vn 1.000000 0.000000 0.000000
vn 1.000000 0.000000 0.000000
vn 1.000000 0.000000 0.000000
vn -1.000000 0.000000 0.000000
vn -1.000000 0.000000 0.000000
vn -1.000000 0.000000 0.000000
vn -1.000000 0.000000 0.000000
vn -1.000000 0.000000 0.000000
vn -1.000000 0.000000 0.000000
vn -1.000000 0.000000 0.000000
vn -1.000000 0.000000 0.000000
vn -1.000000 0.000000 0.000000
vn -1.000000 0.000000 0.000000
vn -1.000000 0.000000 0.000000
vn -1.000000 0.000000 0.000000
vn -1.000000 0.000000 -0.000001
vn -1.000000 0.000000 -0.000001
vn -1.000000 0.000000 -0.000001
vn -1.000000 0.000000 0.000000
vn -1.000000 0.000000 0.000000
vn -1.000000 0.000000 0.000000
vn -1.000000 0.000000 0.000001
vn -1.000000 0.000000 0.000001
vn -1.000000 0.000000 0.000001
vn -1.000000 0.000000 0.000000
vn -1.000000 0.000000 0.000000
vn -1.000000 0.000000 0.000000
vn -1.000000 0.000000 0.000000
vn -1.000000 0.000000 0.000000
vn -1.000000 0.000000 0.000000
vn -1.000000 0.000000 0.000000
vn -1.000000 0.000000 0.000000
vn -1.000000 0.000000 0.000000
vn -0.000000 -1.000000 0.000000
vn -0.000000 -1.000000 0.000000
vn -0.000000 -1.000000 0.000000
vn -0.000000 -1.000000 0.000000
vn -0.000000 -1.000000 0.000000
vn -0.000000 -1.000000 0.000000
vn -0.000000 -1.000000 0.000000
vn -0.000000 -1.000000 0.000000
vn -0.000000 -1.000000 0.000000
vn -0.000000 -1.000000 0.000000
vn -0.000000 -1.000000 0.000000
vn -0.000000 -1.000000 0.000000
vn -0.000000 -1.000000 0.000000
vn -0.000000 -1.000000 0.000000
vn -0.000000 -1.000000 0.000000
vn -0.000000 -1.000000 0.000000
vn -0.000000 -1.000000 0.000000
vn -0.000000 -1.000000 0.000000
vn -0.000000 -1.000000 0.000000
vn -0.000000 -1.000000 0.000000
vn -0.000000 -1.000000 0.000000
vn -0.000000 -1.000000 0.000000
vn -0.000000 -1.000000 0.000000
vn -0.000000 -1.000000 0.000000
vn -0.000000 -1.000000 0.000000
vn -0.000000 -1.000000 0.000000
vn -0.000000 -1.000000 0.000000
vn -0.000000 -1.000000 0.000000
vn -0.000000 -1.000000 0.000000
vn -0.000000 -1.000000 0.000000
vn -0.000000 1.000000 0.000000
vn -0.000000 1.000000 0.000000
vn -0.000000 1.000000 0.000000
vn -0.000000 1.000000 0.000000
vn -0.000000 1.000000 0.000000
vn -0.000000 1.000000 0.000000
vn -0.000000 1.000000 0.000000
vn -0.000000 1.000000 0.000000
vn -0.000000 1.000000 0.000000
vn -0.000000 1.000000 0.000000
vn -0.000000 1.000000 0.000000
vn -0.000000 1.000000 0.000000
vn -0.000000 1.000000 0.000000
vn -0.000000 1.000000 0.000000
vn -0.000000 1.000000 0.000000
vn -0.000000 1.000000 0.000000
vn -0.000000 1.000000 0.000000
vn -0.000000 1.000000 0.000000
vn -0.000000 1.000000 0.000000
vn -0.000000 1.000000 0.000000
vn -0.000000 1.000000 0.000000
vn -0.000000 1.000000 0.000000
vn -0.000000 1.000000 0.000000
vn -0.000000 1.000000 0.000000
vn -0.000000 1.000000 0.000000
vn -0.000000 1.000000 0.000000
vn -0.000000 1.000000 0.000000
vn -0.000000 1.000000 0.000000
vn -0.000000 1.000000 0.000000
vn -0.000000 1.000000 0.000000
vn -0.000000 1.000000 0.000000
vn -0.000000 1.000000 0.000000
vn -0.000000 1.000000 0.000000
vn -0.000000 1.000000 0.000000
vn -0.000000 1.000000 0.000000
vn -0.000000 1.000000 0.000000
vn -0.000000 1.000000 0.000000
vn -0.000000 1.000000 0.000000
vn -0.000000 1.000000 0.000000
vn -0.000000 1.000000 0.000000
vn -0.000000 1.000000 0.000000
vn -0.000000 1.000000 0.000000
vn -0.000000 1.000000 0.000000
vn -0.000000 1.000000 0.000000
vn -0.000000 1.000000 0.000000
vn -0.000000 1.000000 0.000000
vn -0.000000 1.000000 0.000000
vn -0.000000 1.000000 0.000000
vn -0.000000 1.000000 0.000000
vn -0.000000 1.000000 0.000000
vn -0.000000 1.000000 0.000000
vn -0.000000 1.000000 0.000000
vn -0.000000 1.000000 0.000000
vn -0.000000 1.000000 0.000000
vn -0.000000 1.000000 0.000000
vn -0.000000 1.000000 0.000000
vn -0.000000 1.000000 0.000000
vn -0.000000 1.000000 0.000000
vn -0.000000 1.000000 0.000000
vn -0.000000 1.000000 0.000000
vn -1.000000 0.000000 0.000001
vn -1.000000 0.000000 0.000001
vn -1.000000 0.000000 0.000001
vn -1.000000 0.000000 0.000000
vn -1.000000 0.000000 0.000000
vn -1.000000 0.000000 0.000000
vn -1.000000 0.000000 -0.000001
vn -1.000000 0.000000 -0.000001
vn -1.000000 0.000000 -0.000001
vn -1.000000 0.000000 0.000000
vn -1.000000 0.000000 0.000000
vn -1.000000 0.000000 0.000000
vn -1.000000 0.000000 0.000000
vn -1.000000 0.000000 0.000000
vn -1.000000 0.000000 0.000000
vn -1.000000 0.000000 0.000000
vn -1.000000 0.000000 0.000000
vn -1.000000 0.000000 0.000000
vn -1.000000 0.000000 0.000000
vn -1.000000 0.000000 0.000000
vn -1.000000 0.000000 0.000000
vn -1.000000 0.000000 0.000000
vn -1.000000 0.000000 0.000000
vn -1.000000 0.000000 0.000000
vn -1.000000 0.000000 0.000000
vn -1.000000 0.000000 0.000000
vn -1.000000 0.000000 0.000000
vn -1.000000 0.000000 0.000000
vn -1.000000 0.000000 0.000000
vn -1.000000 0.000000 0.000000
vn -0.000000 -1.000000 0.000000
vn -0.000000 -1.000000 0.000000
vn -0.000000 -1.000000 0.000000
vn -0.000000 -1.000000 0.000000
vn -0.000000 -1.000000 0.000000
vn -0.000000 -1.000000 0.000000
vn -0.000000 -1.000000 0.000000
vn -0.000000 -1.000000 0.000000
vn -0.000000 -1.000000 0.000000
vn -0.000000 -1.000000 0.000000
vn -0.000000 -1.000000 0.000000
vn -0.000000 -1.000000 0.000000
vn -0.000000 -1.000000 0.000000
vn -0.000000 -1.000000 0.000000
vn -0.000000 -1.000000 0.000000
vn -0.000000 -1.000000 0.000000
vn -0.000000 -1.000000 0.000000
vn -0.000000 -1.000000 0.000000
vn -0.000000 -1.000000 0.000000
vn -0.000000 -1.000000 0.000000
vn -0.000000 -1.000000 0.000000
vn -0.000000 -1.000000 0.000000
vn -0.000000 -1.000000 0.000000
vn -0.000000 -1.000000 0.000000
vn -0.000000 -1.000000 0.000000
vn -0.000000 -1.000000 0.000000
vn -0.000000 -1.000000 0.000000
vn -0.000000 -1.000000 0.000000
vn -0.000000 -1.000000 0.000000
vn -0.000000 -1.000000 0.000000
vn 1.000000 0.000000 0.000001
vn 1.000000 0.000000 0.000001
vn 1.000000 0.000000 0.000001
vn 1.000000 0.000000 0.000000
vn 1.000000 0.000000 0.000000
vn 1.000000 0.000000 0.000000
vn 1.000000 0.000000 -0.000001
vn 1.000000 0.000000 -0.000001
vn 1.000000 0.000000 -0.000001
vn 1.000000 0.000000 0.000000
vn 1.000000 0.000000 0.000000
vn 1.000000 0.000000 0.000000
vn 1.000000 0.000000 0.000000
vn 1.000000 0.000000 0.000000
vn 1.000000 0.000000 0.000000
vn 1.000000 0.000000 0.000000
vn 1.000000 0.000000 0.000000
vn 1.000000 0.000000 0.000000
vn 1.000000 0.000000 0.000000
vn 1.000000 0.000000 0.000000
vn 1.000000 0.000000 0.000000
vn 1.000000 0.000000 0.000000
vn 1.000000 0.000000 0.000000
vn 1.000000 0.000000 0.000000
vn 1.000000 0.000000 0.000000
vn 1.000000 0.000000 0.000000
vn 1.000000 0.000000 0.000000
vn 1.000000 0.000000 0.000000
vn 1.000000 0.000000 0.000000
vn 1.000000 0.000000 0.000000
vn -0.000000 1.000000 0.000000
vn -0.000000 1.000000 0.000000
vn -0.000000 1.000000 0.000000
vn -0.000000 1.000000 0.000000
vn -0.000000 1.000000 0.000000
vn -0.000000 1.000000 0.000000
vn -0.000000 1.000000 0.000000
vn -0.000000 1.000000 0.000000
vn -0.000000 1.000000 0.000000
vn -0.000000 1.000000 0.000000
vn -0.000000 1.000000 0.000000
vn -0.000000 1.000000 0.000000
vn -1.000000 -0.000000 0.000000
vn -1.000000 -0.000000 0.000000
vn -1.000000 -0.000000 0.000000
vn -1.000000 -0.000000 0.000000
vn -1.000000 -0.000000 0.000000
vn -1.000000 -0.000000 0.000000
vn -1.000000 -0.000000 0.000000
vn -1.000000 -0.000000 0.000000
vn -1.000000 -0.000000 0.000000
vn -1.000000 -0.000000 0.000000
vn -1.000000 -0.000000 0.000000
vn -1.000000 -0.000000 0.000000
vn -0.000000 1.000000 0.000000
vn -0.000000 1.000000 0.000000
vn -0.000000 1.000000 0.000000
vn 0.000000 1.000000 0.000000
vn 0.000000 1.000000 0.000000
vn 0.000000 1.000000 0.000000
vn -0.000000 1.000000 0.000000
vn -0.000000 1.000000 0.000000
vn -0.000000 1.000000 0.000000
vn 0.000000 1.000000 0.000000
vn 0.000000 1.000000 0.000000
vn 0.000000 1.000000 0.000000
vn 1.000000 -0.000000 0.000000
vn 1.000000 -0.000000 0.000000
vn 1.000000 -0.000000 0.000000
vn 1.000000 -0.000000 0.000000
vn 1.000000 -0.000000 0.000000
vn 1.000000 -0.000000 0.000000
vn 1.000000 -0.000000 0.000000
vn 1.000000 -0.000000 0.000000
vn 1.000000 -0.000000 0.000000
vn 1.000000 -0.000000 0.000000
vn 1.000000 -0.000000 0.000000
vn 1.000000 -0.000000 0.000000
vn -0.000000 -1.000000 0.000000
vn -0.000000 -1.000000 0.000000
vn -0.000000 -1.000000 0.000000
vn -0.000000 -1.000000 0.000000
vn -0.000000 -1.000000 0.000000
vn -0.000000 -1.000000 0.000000
vn -0.000000 -1.000000 0.000000
vn -0.000000 -1.000000 0.000000
vn -0.000000 -1.000000 0.000000
vn -0.000000 -1.000000 0.000000
vn -0.000000 -1.000000 0.000000
vn -0.000000 -1.000000 0.000000
vn -1.000000 0.000000 0.000000
vn -1.000000 0.000000 0.000000
vn -1.000000 0.000000 0.000000
vn -1.000000 0.000000 0.000000
vn -1.000000 0.000000 0.000000
vn -1.000000 0.000000 0.000000
vn -1.000000 0.000000 0.000000
vn -1.000000 0.000000 0.000000
vn -1.000000 0.000000 0.000000
vn -1.000000 0.000000 0.000000
vn -1.000000 0.000000 0.000000
vn -1.000000 0.000000 0.000000
vn -0.000000 -1.000000 0.000000
vn -0.000000 -1.000000 0.000000
vn -0.000000 -1.000000 0.000000
vn 0.000000 -1.000000 0.000000
vn 0.000000 -1.000000 0.000000
vn 0.000000 -1.000000 0.000000
vn -0.000000 -1.000000 0.000000
vn -0.000000 -1.000000 0.000000
vn -0.000000 -1.000000 0.000000
vn 0.000000 -1.000000 0.000000
vn 0.000000 -1.000000 0.000000
vn 0.000000 -1.000000 0.000000
vn 1.000000 0.000000 0.000000
vn 1.000000 0.000000 0.000000
vn 1.000000 0.000000 0.000000
vn 1.000000 0.000000 0.000000
vn 1.000000 0.000000 0.000000
vn 1.000000 0.000000 0.000000
vn 1.000000 0.000000 0.000000
vn 1.000000 0.000000 0.000000
vn 1.000000 0.000000 0.000000
vn 1.000000 0.000000 0.000000
vn 1.000000 0.000000 0.000000
vn 1.000000 0.000000 0.000000
vn -0.000000 0.000000 1.000000
vn -0.000000 0.000000 1.000000
vn -0.000000 0.000000 1.000000
vn -0.000000 0.000000 1.000000
vn -0.000000 0.000000 1.000000
vn -0.000000 0.000000 1.000000
vn -0.000000 0.000000 1.000000
vn -0.000000 0.000000 1.000000
vn -0.000000 0.000000 1.000000
vn -0.000000 0.000000 1.000000
vn -0.000000 0.000000 1.000000
vn -0.000000 0.000000 1.000000
vn -0.000000 0.000000 1.000000
vn -0.000000 0.000000 1.000000
vn -0.000000 0.000000 1.000000
vn -0.000000 0.000000 1.000000
vn -0.000000 0.000000 1.000000
vn -0.000000 0.000000 1.000000
vn -0.000000 0.000000 1.000000
vn -0.000000 0.000000 1.000000
vn -0.000000 0.000000 1.000000
vn -0.000000 0.000000 1.000000
vn -0.000000 0.000000 1.000000
vn -0.000000 0.000000 1.000000
vn -0.000000 0.000000 1.000000
vn -0.000000 0.000000 1.000000
vn -0.000000 0.000000 1.000000
vn -0.000000 0.000000 1.000000
vn -0.000000 0.000000 1.000000
vn -0.000000 0.000000 1.000000
vn -0.000000 -0.000000 -1.000000
vn -0.000000 -0.000000 -1.000000
vn -0.000000 -0.000000 -1.000000
vn -0.000000 0.000000 -1.000000
vn -0.000000 0.000000 -1.000000
vn -0.000000 0.000000 -1.000000
vn -0.000000 0.000000 -1.000000
vn -0.000000 0.000000 -1.000000
vn -0.000000 0.000000 -1.000000
vn -0.000000 0.000000 -1.000000
vn -0.000000 0.000000 -1.000000
vn -0.000000 0.000000 -1.000000
vn -0.000000 0.000000 -1.000000
vn -0.000000 0.000000 -1.000000
vn -0.000000 0.000000 -1.000000
vn -0.000000 0.000000 -1.000000
vn -0.000000 0.000000 -1.000000
vn -0.000000 0.000000 -1.000000
vn -0.000000 0.000000 -1.000000
vn -0.000000 0.000000 -1.000000
vn -0.000000 0.000000 -1.000000
vn -0.000000 0.000000 -1.000000
vn -0.000000 0.000000 -1.000000
vn -0.000000 0.000000 -1.000000
vn -0.000000 0.000000 -1.000000
vn -0.000000 0.000000 -1.000000
vn -0.000000 0.000000 -1.000000
vn -0.000000 0.000000 -1.000000
vn -0.000000 0.000000 -1.000000
vn -0.000000 0.000000 -1.000000
vn -0.000000 0.000000 -1.000000
vn -0.000000 0.000000 -1.000000
vn -0.000000 0.000000 -1.000000
vn -0.000000 0.000000 -1.000000
vn -0.000000 0.000000 -1.000000
vn -0.000000 0.000000 -1.000000
vn -0.000000 0.000000 1.000000
vn -0.000000 0.000000 1.000000
vn -0.000000 0.000000 1.000000
vn -0.000000 -0.000000 1.000000
vn -0.000000 -0.000000 1.000000
vn -0.000000 -0.000000 1.000000
vn -0.000000 0.000000 1.000000
vn -0.000000 0.000000 1.000000
vn -0.000000 0.000000 1.000000
vn -0.000000 0.000000 1.000000
vn -0.000000 0.000000 1.000000
vn -0.000000 0.000000 1.000000
vn -0.000000 0.000000 -1.000000
vn -0.000000 0.000000 -1.000000
vn -0.000000 0.000000 -1.000000
vn -0.000000 -0.000000 -1.000000
vn -0.000000 -0.000000 -1.000000
vn -0.000000 -0.000000 -1.000000

g Material
f 3/1/1 1/2/2 2/3/3
f 4/4/4 1/5/5 3/6/6
f 7/7/7 5/8/8 6/9/9
f 8/10/10 5/11/11 7/12/12
f 11/13/13 9/14/14 10/15/15
f 12/16/16 9/17/17 11/18/18
f 15/19/19 13/20/20 14/21/21
f 16/22/22 13/23/23 15/24/24
f 19/25/25 17/26/26 18/27/27
f 20/28/28 17/29/29 19/30/30
f 23/31/31 21/32/32 22/33/33
f 24/34/34 21/35/35 23/36/36
f 27/37/37 25/38/38 26/39/39
f 28/40/40 25/41/41 27/42/42
f 31/43/43 29/44/44 30/45/45
f 32/46/46 29/47/47 31/48/48
f 35/49/49 33/50/50 34/51/51
f 36/52/52 33/53/53 35/54/54
f 39/55/55 37/56/56 38/57/57
f 40/58/58 37/59/59 39/60/60
f 43/61/61 41/62/62 42/63/63
f 44/64/64 41/65/65 43/66/66
f 47/67/67 45/68/68 46/69/69
f 48/70/70 45/71/71 47/72/72
f 51/73/73 49/74/74 50/75/75
f 52/76/76 49/77/77 51/78/78
f 55/79/79 53/80/80 54/81/81
f 56/82/82 53/83/83 55/84/84
f 59/85/85 57/86/86 58/87/87
f 60/88/88 57/89/89 59/90/90
f 63/91/91 61/92/92 62/93/93
f 64/94/94 61/95/95 63/96/96
f 67/97/97 65/98/98 66/99/99
f 68/100/100 65/101/101 67/102/102
f 71/103/103 69/104/104 70/105/105
f 72/106/106 69/107/107 71/108/108
f 75/109/109 73/110/110 74/111/111
f 76/112/112 73/113/113 75/114/114
f 79/115/115 77/116/116 78/117/117
f 80/118/118 77/119/119 79/120/120
f 83/121/121 81/122/122 82/123/123
f 84/124/124 81/125/125 83/126/126
f 87/127/127 85/128/128 86/129/129
f 88/130/130 85/131/131 87/132/132
f 91/133/133 89/134/134 90/135/135
f 92/136/136 89/137/137 91/138/138
f 95/139/139 93/140/140 94/141/141
f 96/142/142 93/143/143 95/144/144
f 99/145/145 97/146/146 98/147/147
f 100/148/148 97/149/149 99/150/150
f 103/151/151 101/152/152 102/153/153
f 104/154/154 101/155/155 103/156/156
f 107/157/157 105/158/158 106/159/159
f 108/160/160 105/161/161 107/162/162
f 111/163/163 109/164/164 110/165/165
f 112/166/166 109/167/167 111/168/168
f 115/169/169 113/170/170 114/171/171
f 116/172/172 113/173/173 115/174/174
f 119/175/175 117/176/176 118/177/177
f 120/178/178 117/179/179 119/180/180
f 123/181/181 121/182/182 122/183/183
f 124/184/184 121/185/185 123/186/186
f 127/187/187 125/188/188 126/189/189
f 128/190/190 125/191/191 127/192/192
f 131/193/193 129/194/194 130/195/195
f 132/196/196 129/197/197 131/198/198
f 135/199/199 133/200/200 134/201/201
f 136/202/202 133/203/203 135/204/204
f 139/205/205 137/206/206 138/207/207
f 140/208/208 137/209/209 139/210/210
f 143/211/211 141/212/212 142/213/213
f 144/214/214 141/215/215 143/216/216
f 147/217/217 145/218/218 146/219/219
f 148/220/220 145/221/221 147/222/222
f 151/223/223 149/224/224 150/225/225
f 152/226/226 149/227/227 151/228/228
f 155/229/229 153/230/230 154/231/231
f 156/232/232 153/233/233 155/234/234
f 159/235/235 157/236/236 158/237/237
f 160/238/238 157/239/239 159/240/240
f 163/241/241 161/242/242 162/243/243
f 164/244/244 161/245/245 163/246/246
f 167/247/247 165/248/248 166/249/249
f 168/250/250 165/251/251 167/252/252
f 171/253/253 169/254/254 170/255/255
f 172/256/256 169/257/257 171/258/258
f 175/259/259 173/260/260 174/261/261
f 176/262/262 173/263/263 175/264/264
f 179/265/265 177/266/266 178/267/267
f 180/268/268 177/269/269 179/270/270
f 183/271/271 181/272/272 182/273/273
f 184/274/274 181/275/275 183/276/276
f 187/277/277 185/278/278 186/279/279
f 188/280/280 185/281/281 187/282/282
f 191/283/283 189/284/284 190/285/285
f 192/286/286 189/287/287 191/288/288
f 195/289/289 193/290/290 194/291/291
f 196/292/292 193/293/293 195/294/294
f 199/295/295 197/296/296 198/297/297
f 200/298/298 197/299/299 199/300/300
f 203/301/301 201/302/302 202/303/303
f 204/304/304 201/305/305 203/306/306
f 207/307/307 205/308/308 206/309/309
f 208/310/310 205/311/311 207/312/312
f 211/313/313 209/314/314 210/315/315
f 212/316/316 209/317/317 211/318/318
f 215/319/319 213/320/320 214/321/321
f 216/322/322 213/323/323 215/324/324
f 219/325/325 217/326/326 218/327/327
f 220/328/328 217/329/329 219/330/330
f 223/331/331 221/332/332 222/333/333
f 224/334/334 221/335/335 223/336/336
f 227/337/337 225/338/338 226/339/339
f 228/340/340 225/341/341 227/342/342
f 231/343/343 229/344/344 230/345/345
f 232/346/346 229/347/347 231/348/348
f 235/349/349 233/350/350 234/351/351
f 236/352/352 233/353/353 235/354/354
f 239/355/355 237/356/356 238/357/357
f 240/358/358 237/359/359 239/360/360
f 243/361/361 241/362/362 242/363/363
f 244/364/364 241/365/365 243/366/366
f 247/367/367 245/368/368 246/369/369
f 248/370/370 245/371/371 247/372/372
f 251/373/373 249/374/374 250/375/375
f 252/376/376 249/377/377 251/378/378
f 255/379/379 253/380/380 254/381/381
f 256/382/382 253/383/383 255/384/384
f 259/385/385 257/386/386 258/387/387
f 260/388/388 257/389/389 259/390/390
f 263/391/391 261/392/392 262/393/393
f 264/394/394 261/395/395 263/396/396
f 267/397/397 265/398/398 266/399/399
f 268/400/400 265/401/401 267/402/402
f 271/403/403 269/404/404 270/405/405
f 272/406/406 269/407/407 271/408/408
f 275/409/409 273/410/410 274/411/411
f 276/412/412 273/413/413 275/414/414
f 279/415/415 277/416/416 278/417/417
f 280/418/418 277/419/419 279/420/420
f 283/421/421 281/422/422 282/423/423
f 284/424/424 281/425/425 283/426/426
f 287/427/427 285/428/428 286/429/429
f 288/430/430 285/431/431 287/432/432
f 291/433/433 289/434/434 290/435/435
f 292/436/436 289/437/437 291/438/438
f 295/439/439 293/440/440 294/441/441
f 296/442/442 293/443/443 295/444/444
f 299/445/445 297/446/446 298/447/447
f 300/448/448 297/449/449 299/450/450
f 303/451/451 301/452/452 302/453/453
f 304/454/454 301/455/455 303/456/456
f 307/457/457 305/458/458 306/459/459
f 308/460/460 305/461/461 307/462/462
f 311/463/463 309/464/464 310/465/465
f 312/466/466 309/467/467 311/468/468
f 315/469/469 313/470/470 314/471/471
f 316/472/472 313/473/473 315/474/474
f 319/475/475 317/476/476 318/477/477
f 320/478/478 317/479/479 319/480/480
f 323/481/481 321/482/482 322/483/483
f 324/484/484 321/485/485 323/486/486
f 327/487/487 325/488/488 326/489/489
f 328/490/490 325/491/491 327/492/492
f 331/493/493 329/494/494 330/495/495
f 332/496/496 329/497/497 331/498/498
f 335/499/499 333/500/500 334/501/501
f 336/502/502 333/503/503 335/504/504
f 339/505/505 337/506/506 338/507/507
f 340/508/508 337/509/509 339/510/510
f 343/511/511 341/512/512 342/513/513
f 344/514/514 341/515/515 343/516/516
f 347/517/517 345/518/518 346/519/519
f 348/520/520 345/521/521 347/522/522
f 351/523/523 349/524/524 350/525/525
f 352/526/526 349/527/527 351/528/528
f 355/529/529 353/530/530 354/531/531
f 356/532/532 353/533/533 355/534/534
f 359/535/535 357/536/536 358/537/537
f 360/538/538 357/539/539 359/540/540
f 363/541/541 361/542/542 362/543/543
f 364/544/544 361/545/545 363/546/546
f 367/547/547 365/548/548 366/549/549
f 368/550/550 365/551/551 367/552/552
f 371/553/553 369/554/554 370/555/555
f 372/556/556 369/557/557 371/558/558
f 375/559/559 373/560/560 374/561/561
f 376/562/562 373/563/563 375/564/564
f 379/565/565 377/566/566 378/567/567
f 380/568/568 377/569/569 379/570/570
f 383/571/571 381/572/572 382/573/573
f 384/574/574 381/575/575 383/576/576
f 387/577/577 385/578/578 386/579/579
f 388/580/580 385/581/581 387/582/582
f 391/583/583 389/584/584 390/585/585
f 392/586/586 389/587/587 391/588/588
f 395/589/589 393/590/590 394/591/591
f 396/592/592 393/593/593 395/594/594
f 399/595/595 397/596/596 398/597/597
f 400/598/598 397/599/599 399/600/600
f 403/601/601 401/602/602 402/603/603
f 404/604/604 401/605/605 403/606/606
f 407/607/607 405/608/608 406/609/609
f 408/610/610 405/611/611 407/612/612

g Material.001
f 411/613/613 409/614/614 410/615/615
f 412/616/616 409/617/617 411/618/618
f 415/619/619 413/620/620 414/621/621
f 416/622/622 413/623/623 415/624/624
f 419/625/625 417/626/626 418/627/627
f 420/628/628 417/629/629 419/630/630
f 423/631/631 421/632/632 422/633/633
f 424/634/634 421/635/635 423/636/636

