# Converted from B3D for Luanti (With Correct Normals)
# Object Name: multidecor_microwave

v -0.400000 0.000000 0.600000
v 0.850000 0.000000 0.600000
v 0.850000 0.000000 -0.450000
v -0.400000 0.000000 -0.450000
v -0.306250 -0.075000 0.472500
v 0.756250 -0.075000 0.472500
v 0.756250 -0.075000 -0.450000
v -0.306250 -0.075000 -0.450000
v 0.850000 -1.000000 -0.450000
v 0.850000 0.000000 -0.450000
v 0.850000 0.000000 0.600000
v 0.850000 -1.000000 0.600000
v -0.400000 -1.000000 0.600000
v -0.850000 -1.000000 0.600000
v -0.850000 -1.000000 -0.450000
v -0.400000 -1.000000 -0.450000
v -0.850000 -1.000000 0.600000
v -0.850000 0.000000 0.600000
v -0.850000 0.000000 -0.450000
v -0.850000 -1.000000 -0.450000
v -0.400000 -1.000000 0.600000
v -0.400000 0.000000 0.600000
v -0.850000 0.000000 0.600000
v -0.850000 -1.000000 0.600000
v 0.850000 -1.000000 0.600000
v 0.850000 0.000000 0.600000
v -0.400000 0.000000 0.600000
v -0.400000 -1.000000 0.600000
v 0.850000 -1.000000 0.600000
v -0.400000 -1.000000 0.600000
v -0.400000 -1.000000 -0.450000
v 0.850000 -1.000000 -0.450000
v -0.400000 0.000000 -0.450000
v -0.400000 -1.000000 -0.450000
v -0.400000 -1.000000 -0.600000
v -0.400000 0.000000 -0.600000
v -0.850000 0.000000 0.600000
v -0.400000 0.000000 0.600000
v -0.400000 0.000000 -0.450000
v -0.850000 0.000000 -0.450000
v -0.850000 -1.000000 -0.600000
v -0.850000 0.000000 -0.600000
v -0.400000 0.000000 -0.600000
v -0.400000 -1.000000 -0.600000
v -0.400000 -1.000000 -0.450000
v -0.850000 -1.000000 -0.450000
v -0.850000 -1.000000 -0.600000
v -0.400000 -1.000000 -0.600000
v -0.850000 -1.000000 -0.450000
v -0.850000 0.000000 -0.450000
v -0.850000 0.000000 -0.600000
v -0.850000 -1.000000 -0.600000
v -0.850000 0.000000 -0.450000
v -0.400000 0.000000 -0.450000
v -0.400000 0.000000 -0.600000
v -0.850000 0.000000 -0.600000
v 0.756250 -0.925000 -0.450000
v 0.756250 -0.075000 -0.450000
v 0.756250 -0.075000 0.472500
v 0.756250 -0.925000 0.472500
v 0.756250 -0.925000 0.472500
v 0.756250 -0.075000 0.472500
v -0.306250 -0.075000 0.472500
v -0.306250 -0.925000 0.472500
v 0.756250 -0.925000 0.472500
v -0.306250 -0.925000 0.472500
v -0.306250 -0.925000 -0.450000
v 0.756250 -0.925000 -0.450000
v -0.306250 -0.075000 0.472500
v -0.306250 -0.075000 -0.450000
v -0.306250 -0.925000 -0.450000
v -0.306250 -0.925000 0.472500
v 0.850000 0.000000 -0.450000
v 0.756250 -0.075000 -0.450000
v -0.306250 -0.075000 -0.450000
v -0.400000 0.000000 -0.450000
v -0.400000 0.000000 -0.450000
v -0.306250 -0.075000 -0.450000
v -0.306250 -0.925000 -0.450000
v -0.400000 -1.000000 -0.450000
v -0.400000 -1.000000 -0.450000
v -0.306250 -0.925000 -0.450000
v 0.756250 -0.925000 -0.450000
v 0.850000 -1.000000 -0.450000
v 0.850000 -1.000000 -0.450000
v 0.756250 -0.925000 -0.450000
v 0.756250 -0.075000 -0.450000
v 0.850000 0.000000 -0.450000
v 0.225000 -0.925000 0.411250
v 0.225000 -0.825000 0.411250
v -0.057843 -0.825000 0.294093
v -0.057843 -0.925000 0.294093
v -0.057843 -0.925000 0.294093
v -0.057843 -0.825000 0.294093
v -0.175000 -0.825000 0.011250
v -0.175000 -0.925000 0.011250
v -0.175000 -0.925000 0.011250
v -0.175000 -0.825000 0.011250
v -0.057843 -0.825000 -0.271593
v -0.057843 -0.925000 -0.271593
v -0.057843 -0.925000 -0.271593
v -0.057843 -0.825000 -0.271593
v 0.225000 -0.825000 -0.388750
v 0.225000 -0.925000 -0.388750
v 0.225000 -0.925000 -0.388750
v 0.225000 -0.825000 -0.388750
v 0.507843 -0.825000 -0.271593
v 0.507843 -0.925000 -0.271593
v 0.507843 -0.925000 -0.271593
v 0.507843 -0.825000 -0.271593
v 0.625000 -0.825000 0.011250
v 0.625000 -0.925000 0.011250
v 0.625000 -0.825000 0.011250
v 0.225000 -0.825000 -0.388750
v -0.175000 -0.825000 0.011250
v 0.625000 -0.925000 0.011250
v 0.625000 -0.825000 0.011250
v 0.507843 -0.825000 0.294093
v 0.507843 -0.925000 0.294093
v 0.507843 -0.925000 0.294093
v 0.507843 -0.825000 0.294093
v 0.225000 -0.825000 0.411250
v 0.225000 -0.925000 0.411250
v -0.625000 -0.162500 -0.600000
v -0.625000 -0.162500 -0.675000
v -0.695711 -0.191789 -0.675000
v -0.695711 -0.191789 -0.600000
v -0.695711 -0.191789 -0.600000
v -0.695711 -0.191789 -0.675000
v -0.725000 -0.262500 -0.675000
v -0.725000 -0.262500 -0.600000
v -0.725000 -0.262500 -0.600000
v -0.725000 -0.262500 -0.675000
v -0.695711 -0.333211 -0.675000
v -0.695711 -0.333211 -0.600000
v -0.695711 -0.333211 -0.600000
v -0.695711 -0.333211 -0.675000
v -0.625000 -0.362500 -0.675000
v -0.625000 -0.362500 -0.600000
v -0.625000 -0.362500 -0.600000
v -0.625000 -0.362500 -0.675000
v -0.554289 -0.333211 -0.675000
v -0.554289 -0.333211 -0.600000
v -0.554289 -0.333211 -0.600000
v -0.554289 -0.333211 -0.675000
v -0.525000 -0.262500 -0.675000
v -0.525000 -0.262500 -0.600000
v -0.695711 -0.333211 -0.675000
v -0.725000 -0.262500 -0.675000
v -0.525000 -0.262500 -0.675000
v -0.525000 -0.262500 -0.600000
v -0.525000 -0.262500 -0.675000
v -0.554289 -0.191789 -0.675000
v -0.554289 -0.191789 -0.600000
v -0.554289 -0.191789 -0.600000
v -0.554289 -0.191789 -0.675000
v -0.625000 -0.162500 -0.675000
v -0.625000 -0.162500 -0.600000
v -0.625000 -0.562500 -0.600000
v -0.625000 -0.562500 -0.675000
v -0.695711 -0.591789 -0.675000
v -0.695711 -0.591789 -0.600000
v -0.695711 -0.591789 -0.600000
v -0.695711 -0.591789 -0.675000
v -0.725000 -0.662500 -0.675000
v -0.725000 -0.662500 -0.600000
v -0.725000 -0.662500 -0.600000
v -0.725000 -0.662500 -0.675000
v -0.695711 -0.733211 -0.675000
v -0.695711 -0.733211 -0.600000
v -0.695711 -0.733211 -0.600000
v -0.695711 -0.733211 -0.675000
v -0.625000 -0.762500 -0.675000
v -0.625000 -0.762500 -0.600000
v -0.625000 -0.762500 -0.600000
v -0.625000 -0.762500 -0.675000
v -0.554289 -0.733211 -0.675000
v -0.554289 -0.733211 -0.600000
v -0.554289 -0.733211 -0.600000
v -0.554289 -0.733211 -0.675000
v -0.525000 -0.662500 -0.675000
v -0.525000 -0.662500 -0.600000
v -0.695711 -0.733211 -0.675000
v -0.725000 -0.662500 -0.675000
v -0.525000 -0.662500 -0.675000
v -0.525000 -0.662500 -0.600000
v -0.525000 -0.662500 -0.675000
v -0.554289 -0.591789 -0.675000
v -0.554289 -0.591789 -0.600000
v -0.554289 -0.591789 -0.600000
v -0.554289 -0.591789 -0.675000
v -0.625000 -0.562500 -0.675000
v -0.625000 -0.562500 -0.600000
v -0.175000 -0.825000 0.011250
v -0.057843 -0.825000 0.294093
v 0.225000 -0.825000 0.411250
v 0.225000 -0.825000 0.411250
v 0.507843 -0.825000 0.294093
v 0.625000 -0.825000 0.011250
v 0.625000 -0.825000 0.011250
v 0.507843 -0.825000 -0.271593
v 0.225000 -0.825000 -0.388750
v 0.225000 -0.825000 -0.388750
v -0.057843 -0.825000 -0.271593
v -0.175000 -0.825000 0.011250
v -0.175000 -0.825000 0.011250
v 0.225000 -0.825000 0.411250
v 0.625000 -0.825000 0.011250
v -0.725000 -0.262500 -0.675000
v -0.695711 -0.191789 -0.675000
v -0.525000 -0.262500 -0.675000
v -0.695711 -0.191789 -0.675000
v -0.625000 -0.162500 -0.675000
v -0.525000 -0.262500 -0.675000
v -0.625000 -0.162500 -0.675000
v -0.554289 -0.191789 -0.675000
v -0.525000 -0.262500 -0.675000
v -0.525000 -0.262500 -0.675000
v -0.554289 -0.333211 -0.675000
v -0.625000 -0.362500 -0.675000
v -0.625000 -0.362500 -0.675000
v -0.695711 -0.333211 -0.675000
v -0.525000 -0.262500 -0.675000
v -0.725000 -0.662500 -0.675000
v -0.695711 -0.591789 -0.675000
v -0.525000 -0.662500 -0.675000
v -0.695711 -0.591789 -0.675000
v -0.625000 -0.562500 -0.675000
v -0.525000 -0.662500 -0.675000
v -0.625000 -0.562500 -0.675000
v -0.554289 -0.591789 -0.675000
v -0.525000 -0.662500 -0.675000
v -0.525000 -0.662500 -0.675000
v -0.554289 -0.733211 -0.675000
v -0.625000 -0.762500 -0.675000
v -0.625000 -0.762500 -0.675000
v -0.695711 -0.733211 -0.675000
v -0.525000 -0.662500 -0.675000

vt 0.000207 0.021051
vt 0.347601 0.312861
vt 0.000207 0.312861
vt 0.347601 0.021051
vt 0.347601 0.312861
vt 0.000207 0.021051
vt 0.473077 0.473077
vt 0.750992 0.764888
vt 0.473077 0.764888
vt 0.750992 0.473077
vt 0.750992 0.764888
vt 0.473077 0.473077
vt 0.472663 0.605087
vt 0.347601 0.313276
vt 0.472662 0.313276
vt 0.347601 0.605087
vt 0.347601 0.313276
vt 0.472663 0.605087
vt 0.292018 0.626345
vt 0.000207 0.904260
vt 0.000207 0.626345
vt 0.292018 0.904260
vt 0.000207 0.904260
vt 0.292018 0.626345
vt 0.473077 0.000207
vt 0.750992 0.125269
vt 0.473077 0.125269
vt 0.750992 0.000207
vt 0.750992 0.125269
vt 0.473077 0.000207
vt 0.473077 0.125269
vt 0.750992 0.472663
vt 0.473077 0.472663
vt 0.750992 0.125269
vt 0.750992 0.472663
vt 0.473077 0.125269
vt 0.347601 0.605087
vt 0.000207 0.313276
vt 0.347601 0.313276
vt 0.000207 0.605087
vt 0.000207 0.313276
vt 0.347601 0.605087
vt 0.792679 0.833044
vt 0.514764 0.791357
vt 0.792679 0.791357
vt 0.514764 0.833044
vt 0.514764 0.791357
vt 0.792679 0.833044
vt 0.347601 0.021051
vt 0.472663 0.312861
vt 0.347601 0.312861
vt 0.472663 0.021051
vt 0.472663 0.312861
vt 0.347601 0.021051
vt 0.514764 0.833044
vt 0.792679 0.958106
vt 0.514764 0.958106
vt 0.792679 0.833044
vt 0.792679 0.958106
vt 0.514764 0.833044
vt 0.792679 0.958106
vt 0.834366 0.833044
vt 0.834366 0.958106
vt 0.792679 0.833044
vt 0.834366 0.833044
vt 0.792679 0.958106
vt 0.514764 0.958106
vt 0.792679 0.999793
vt 0.514764 0.999793
vt 0.792679 0.958106
vt 0.792679 0.999793
vt 0.514764 0.958106
vt 0.514764 0.833044
vt 0.473077 0.958106
vt 0.473077 0.833044
vt 0.514764 0.958106
vt 0.473077 0.958106
vt 0.514764 0.833044
vt 0.321547 0.000207
vt 0.000207 0.021051
vt 0.026262 0.000207
vt 0.347601 0.021051
vt 0.000207 0.021051
vt 0.321547 0.000207
vt 0.751407 0.021051
vt 0.777461 0.278122
vt 0.751406 0.257279
vt 0.777461 0.000207
vt 0.777461 0.278122
vt 0.751407 0.021051
vt 0.026262 0.625930
vt 0.347601 0.605087
vt 0.321546 0.625930
vt 0.000207 0.605087
vt 0.347601 0.605087
vt 0.026262 0.625930
vt 0.493921 0.790942
vt 0.750992 0.764888
vt 0.730148 0.790942
vt 0.473077 0.764888
vt 0.750992 0.764888
vt 0.493921 0.790942
vt 0.683453 0.965323
vt 0.316547 0.646762
vt 0.683453 0.646762
vt 0.316547 0.965322
vt 0.316547 0.646762
vt 0.683453 0.965323
vt 0.683453 0.646762
vt 1.002013 0.353238
vt 1.002013 0.646762
vt 0.683453 0.353238
vt 1.002013 0.353238
vt 0.683453 0.646762
vt 0.316547 0.646762
vt 0.683453 0.353238
vt 0.683453 0.646762
vt 0.316547 0.353238
vt 0.683453 0.353238
vt 0.316547 0.646762
vt 0.316547 0.034678
vt 0.683453 0.353238
vt 0.316547 0.353238
vt 0.683453 0.034678
vt 0.683453 0.353238
vt 0.316547 0.034678
vt -0.002013 0.353238
vt 0.316547 0.646762
vt -0.002013 0.646762
vt 0.316547 0.353238
vt 0.316547 0.646762
vt -0.002013 0.353238
vt 0.376164 0.540823
vt 0.501143 0.459177
vt 0.501143 0.540823
vt 0.376164 0.459177
vt 0.501143 0.459177
vt 0.376164 0.540823
vt 0.251185 0.540823
vt 0.376164 0.459177
vt 0.376164 0.540823
vt 0.251185 0.459177
vt 0.376164 0.459177
vt 0.251185 0.540823
vt 0.126206 0.540823
vt 0.251185 0.459177
vt 0.251185 0.540823
vt 0.126206 0.459177
vt 0.251185 0.459177
vt 0.126206 0.540823
vt 0.001227 0.540823
vt 0.126206 0.459177
vt 0.126206 0.540823
vt 0.001227 0.459177
vt 0.126206 0.459177
vt 0.001227 0.540823
vt 0.876081 0.540823
vt 1.001061 0.459176
vt 1.001061 0.540823
vt 0.876081 0.459176
vt 1.001061 0.459176
vt 0.876081 0.540823
vt 0.751102 0.540823
vt 0.876081 0.459176
vt 0.876081 0.540823
vt 0.751102 0.459176
vt 0.876081 0.459176
vt 0.751102 0.540823
vt 0.400439 0.300412
vt 0.275460 -0.001315
vt 0.488813 0.087059
vt 0.626122 0.540823
vt 0.751102 0.459176
vt 0.751102 0.540823
vt 0.626123 0.459177
vt 0.751102 0.459176
vt 0.626122 0.540823
vt 0.501143 0.540823
vt 0.626123 0.459177
vt 0.626122 0.540823
vt 0.501143 0.459177
vt 0.626123 0.459177
vt 0.501143 0.540823
vt 0.732575 0.249959
vt 0.795065 0.188724
vt 0.795065 0.249959
vt 0.732575 0.188724
vt 0.795065 0.188724
vt 0.732575 0.249959
vt 0.670086 0.249959
vt 0.732575 0.188724
vt 0.732575 0.249959
vt 0.670086 0.188724
vt 0.732575 0.188724
vt 0.670086 0.249959
vt 0.607596 0.249959
vt 0.670086 0.188724
vt 0.670086 0.249959
vt 0.607596 0.188724
vt 0.670086 0.188724
vt 0.607596 0.249959
vt 0.545107 0.249959
vt 0.607596 0.188724
vt 0.607596 0.249959
vt 0.545107 0.188724
vt 0.607596 0.188724
vt 0.545107 0.249959
vt 0.482617 0.249958
vt 0.545107 0.188724
vt 0.545107 0.249959
vt 0.482617 0.188723
vt 0.545107 0.188724
vt 0.482617 0.249958
vt 0.420127 0.249959
vt 0.482617 0.188723
vt 0.482617 0.249958
vt 0.420127 0.188723
vt 0.482617 0.188723
vt 0.420127 0.249959
vt 0.152734 0.148138
vt 0.046058 0.254814
vt 0.001871 0.210627
vt 0.357638 0.249959
vt 0.420127 0.188723
vt 0.420127 0.249959
vt 0.357638 0.188723
vt 0.420127 0.188723
vt 0.357638 0.249959
vt 0.295148 0.249959
vt 0.357638 0.188723
vt 0.357638 0.249959
vt 0.295148 0.188723
vt 0.357638 0.188723
vt 0.295148 0.249959
vt 0.357638 0.250291
vt 0.295148 0.311525
vt 0.295148 0.250291
vt 0.357638 0.311525
vt 0.295148 0.311525
vt 0.357638 0.250291
vt 0.420127 0.250290
vt 0.357638 0.311525
vt 0.357638 0.250291
vt 0.420127 0.311525
vt 0.357638 0.311525
vt 0.420127 0.250290
vt 0.482617 0.250290
vt 0.420127 0.311525
vt 0.420127 0.250290
vt 0.482617 0.311525
vt 0.420127 0.311525
vt 0.482617 0.250290
vt 0.545106 0.250290
vt 0.482617 0.311525
vt 0.482617 0.250290
vt 0.545106 0.311525
vt 0.482617 0.311525
vt 0.545106 0.250290
vt 0.607596 0.250291
vt 0.545106 0.311525
vt 0.545106 0.250290
vt 0.607596 0.311525
vt 0.545106 0.311525
vt 0.607596 0.250291
vt 0.670086 0.250290
vt 0.607596 0.311525
vt 0.607596 0.250291
vt 0.670086 0.311525
vt 0.607596 0.311525
vt 0.670086 0.250290
vt 0.107743 0.103951
vt 0.107743 0.254814
vt 0.045253 0.254814
vt 0.732575 0.250290
vt 0.670086 0.311525
vt 0.670086 0.250290
vt 0.732575 0.311525
vt 0.670086 0.311525
vt 0.732575 0.250290
vt 0.795065 0.250290
vt 0.732575 0.311525
vt 0.732575 0.250290
vt 0.795065 0.311525
vt 0.732575 0.311525
vt 0.795065 0.250290
vt 0.187086 0.212038
vt 0.400439 0.300412
vt 0.275460 0.300412
vt 0.275460 -0.001315
vt 0.187086 0.212038
vt 0.187086 0.087059
vt 0.488813 0.087059
vt 0.275460 -0.001315
vt 0.400439 -0.001315
vt 0.400439 0.300412
vt 0.488813 0.087059
vt 0.488813 0.212038
vt 0.275460 -0.001315
vt 0.400439 0.300412
vt 0.187086 0.212038
vt 0.152734 0.148138
vt 0.001871 0.210627
vt 0.001871 0.148138
vt 0.152734 0.148138
vt 0.001871 0.148138
vt 0.046058 0.103951
vt 0.152734 0.148138
vt 0.046058 0.103951
vt 0.108547 0.103951
vt 0.108547 0.254814
vt 0.152734 0.148138
vt 0.152734 0.210627
vt 0.152734 0.148138
vt 0.108547 0.254814
vt 0.046058 0.254814
vt 0.107743 0.103951
vt 0.045253 0.254814
vt 0.001067 0.210628
vt 0.107743 0.103951
vt 0.001067 0.210628
vt 0.001066 0.148138
vt 0.107743 0.103951
vt 0.001066 0.148138
vt 0.045253 0.103951
vt 0.151930 0.210627
vt 0.107743 0.103951
vt 0.151930 0.148138
vt 0.107743 0.103951
vt 0.151930 0.210627
vt 0.107743 0.254814

vn -0.000000 1.000000 0.000000
vn -0.000000 1.000000 0.000000
vn -0.000000 1.000000 0.000000
vn -0.000000 1.000000 0.000000
vn -0.000000 1.000000 0.000000
vn -0.000000 1.000000 0.000000
vn 1.000000 0.000000 0.000000
vn 1.000000 0.000000 0.000000
vn 1.000000 0.000000 0.000000
vn 1.000000 0.000000 0.000000
vn 1.000000 0.000000 0.000000
vn 1.000000 0.000000 0.000000
vn -0.000000 -1.000000 0.000000
vn -0.000000 -1.000000 0.000000
vn -0.000000 -1.000000 0.000000
vn -0.000000 -1.000000 0.000000
vn -0.000000 -1.000000 0.000000
vn -0.000000 -1.000000 0.000000
vn -1.000000 0.000000 0.000000
vn -1.000000 0.000000 0.000000
vn -1.000000 0.000000 0.000000
vn -1.000000 0.000000 0.000000
vn -1.000000 0.000000 0.000000
vn -1.000000 0.000000 0.000000
vn -0.000000 0.000000 1.000000
vn -0.000000 0.000000 1.000000
vn -0.000000 0.000000 1.000000
vn -0.000000 0.000000 1.000000
vn -0.000000 0.000000 1.000000
vn -0.000000 0.000000 1.000000
vn -0.000000 0.000000 1.000000
vn -0.000000 0.000000 1.000000
vn -0.000000 0.000000 1.000000
vn -0.000000 0.000000 1.000000
vn -0.000000 0.000000 1.000000
vn -0.000000 0.000000 1.000000
vn -0.000000 -1.000000 0.000000
vn -0.000000 -1.000000 0.000000
vn -0.000000 -1.000000 0.000000
vn -0.000000 -1.000000 0.000000
vn -0.000000 -1.000000 0.000000
vn -0.000000 -1.000000 0.000000
vn 1.000000 0.000000 0.000000
vn 1.000000 0.000000 0.000000
vn 1.000000 0.000000 0.000000
vn 1.000000 0.000000 0.000000
vn 1.000000 0.000000 0.000000
vn 1.000000 0.000000 0.000000
vn -0.000000 1.000000 0.000000
vn -0.000000 1.000000 0.000000
vn -0.000000 1.000000 0.000000
vn -0.000000 1.000000 0.000000
vn -0.000000 1.000000 0.000000
vn -0.000000 1.000000 0.000000
vn -0.000000 0.000000 -1.000000
vn -0.000000 0.000000 -1.000000
vn -0.000000 0.000000 -1.000000
vn -0.000000 0.000000 -1.000000
vn -0.000000 0.000000 -1.000000
vn -0.000000 0.000000 -1.000000
vn -0.000000 -1.000000 0.000000
vn -0.000000 -1.000000 0.000000
vn -0.000000 -1.000000 0.000000
vn -0.000000 -1.000000 0.000000
vn -0.000000 -1.000000 0.000000
vn -0.000000 -1.000000 0.000000
vn -1.000000 0.000000 0.000000
vn -1.000000 0.000000 0.000000
vn -1.000000 0.000000 0.000000
vn -1.000000 0.000000 0.000000
vn -1.000000 0.000000 0.000000
vn -1.000000 0.000000 0.000000
vn -0.000000 1.000000 0.000000
vn -0.000000 1.000000 0.000000
vn -0.000000 1.000000 0.000000
vn -0.000000 1.000000 0.000000
vn -0.000000 1.000000 0.000000
vn -0.000000 1.000000 0.000000
vn -0.000000 -0.000000 -1.000000
vn -0.000000 -0.000000 -1.000000
vn -0.000000 -0.000000 -1.000000
vn -0.000000 0.000000 -1.000000
vn -0.000000 0.000000 -1.000000
vn -0.000000 0.000000 -1.000000
vn -0.000000 0.000000 -1.000000
vn -0.000000 0.000000 -1.000000
vn -0.000000 0.000000 -1.000000
vn -0.000000 0.000000 -1.000000
vn -0.000000 0.000000 -1.000000
vn -0.000000 0.000000 -1.000000
vn -0.000000 0.000000 -1.000000
vn -0.000000 0.000000 -1.000000
vn -0.000000 0.000000 -1.000000
vn -0.000000 0.000000 -1.000000
vn -0.000000 0.000000 -1.000000
vn -0.000000 0.000000 -1.000000
vn -0.000000 0.000000 -1.000000
vn -0.000000 0.000000 -1.000000
vn -0.000000 0.000000 -1.000000
vn -0.000000 0.000000 -1.000000
vn -0.000000 0.000000 -1.000000
vn -0.000000 0.000000 -1.000000
vn -0.000000 1.000000 0.000000
vn -0.000000 1.000000 0.000000
vn -0.000000 1.000000 0.000000
vn -0.000000 1.000000 0.000000
vn -0.000000 1.000000 0.000000
vn -0.000000 1.000000 0.000000
vn 1.000000 0.000000 0.000000
vn 1.000000 0.000000 0.000000
vn 1.000000 0.000000 0.000000
vn 1.000000 0.000000 0.000000
vn 1.000000 0.000000 0.000000
vn 1.000000 0.000000 0.000000
vn -0.000000 0.000000 1.000000
vn -0.000000 0.000000 1.000000
vn -0.000000 0.000000 1.000000
vn -0.000000 0.000000 1.000000
vn -0.000000 0.000000 1.000000
vn -0.000000 0.000000 1.000000
vn -0.000000 -1.000000 0.000000
vn -0.000000 -1.000000 0.000000
vn -0.000000 -1.000000 0.000000
vn -0.000000 -1.000000 0.000000
vn -0.000000 -1.000000 0.000000
vn -0.000000 -1.000000 0.000000
vn -1.000000 0.000000 0.000000
vn -1.000000 0.000000 0.000000
vn -1.000000 0.000000 0.000000
vn -1.000000 0.000000 0.000000
vn -1.000000 0.000000 0.000000
vn -1.000000 0.000000 0.000000
vn -0.382683 0.000000 0.923880
vn -0.382683 0.000000 0.923880
vn -0.382683 0.000000 0.923880
vn -0.382684 0.000000 0.923879
vn -0.382684 0.000000 0.923879
vn -0.382684 0.000000 0.923879
vn -0.923879 0.000000 0.382684
vn -0.923879 0.000000 0.382684
vn -0.923879 0.000000 0.382684
vn -0.923880 0.000000 0.382683
vn -0.923880 0.000000 0.382683
vn -0.923880 0.000000 0.382683
vn -0.923879 0.000000 -0.382684
vn -0.923879 0.000000 -0.382684
vn -0.923879 0.000000 -0.382684
vn -0.923880 0.000000 -0.382683
vn -0.923880 0.000000 -0.382683
vn -0.923880 0.000000 -0.382683
vn -0.382683 0.000000 -0.923880
vn -0.382683 0.000000 -0.923880
vn -0.382683 0.000000 -0.923880
vn -0.382684 0.000000 -0.923879
vn -0.382684 0.000000 -0.923879
vn -0.382684 0.000000 -0.923879
vn 0.382683 0.000000 -0.923880
vn 0.382683 0.000000 -0.923880
vn 0.382683 0.000000 -0.923880
vn 0.382684 0.000000 -0.923879
vn 0.382684 0.000000 -0.923879
vn 0.382684 0.000000 -0.923879
vn 0.923879 0.000000 -0.382684
vn 0.923879 0.000000 -0.382684
vn 0.923879 0.000000 -0.382684
vn 0.923880 0.000000 -0.382683
vn 0.923880 0.000000 -0.382683
vn 0.923880 0.000000 -0.382683
vn -0.000000 1.000000 0.000000
vn -0.000000 1.000000 0.000000
vn -0.000000 1.000000 0.000000
vn 0.923879 0.000000 0.382684
vn 0.923879 0.000000 0.382684
vn 0.923879 0.000000 0.382684
vn 0.923880 0.000000 0.382683
vn 0.923880 0.000000 0.382683
vn 0.923880 0.000000 0.382683
vn 0.382683 0.000000 0.923880
vn 0.382683 0.000000 0.923880
vn 0.382683 0.000000 0.923880
vn 0.382684 0.000000 0.923879
vn 0.382684 0.000000 0.923879
vn 0.382684 0.000000 0.923879
vn -0.382684 0.923879 0.000000
vn -0.382684 0.923879 0.000000
vn -0.382684 0.923879 0.000000
vn -0.382684 0.923879 0.000000
vn -0.382684 0.923879 0.000000
vn -0.382684 0.923879 0.000000
vn -0.923879 0.382684 0.000000
vn -0.923879 0.382684 0.000000
vn -0.923879 0.382684 0.000000
vn -0.923879 0.382684 0.000000
vn -0.923879 0.382684 0.000000
vn -0.923879 0.382684 0.000000
vn -0.923879 -0.382685 0.000000
vn -0.923879 -0.382685 0.000000
vn -0.923879 -0.382685 0.000000
vn -0.923879 -0.382684 0.000000
vn -0.923879 -0.382684 0.000000
vn -0.923879 -0.382684 0.000000
vn -0.382684 -0.923879 0.000000
vn -0.382684 -0.923879 0.000000
vn -0.382684 -0.923879 0.000000
vn -0.382684 -0.923879 0.000000
vn -0.382684 -0.923879 0.000000
vn -0.382684 -0.923879 0.000000
vn 0.382684 -0.923879 0.000000
vn 0.382684 -0.923879 0.000000
vn 0.382684 -0.923879 0.000000
vn 0.382684 -0.923879 0.000000
vn 0.382684 -0.923879 0.000000
vn 0.382684 -0.923879 0.000000
vn 0.923880 -0.382683 0.000000
vn 0.923880 -0.382683 0.000000
vn 0.923880 -0.382683 0.000000
vn 0.923880 -0.382683 0.000000
vn 0.923880 -0.382683 0.000000
vn 0.923880 -0.382683 0.000000
vn -0.000000 0.000000 -1.000000
vn -0.000000 0.000000 -1.000000
vn -0.000000 0.000000 -1.000000
vn 0.923880 0.382683 0.000000
vn 0.923880 0.382683 0.000000
vn 0.923880 0.382683 0.000000
vn 0.923880 0.382683 0.000000
vn 0.923880 0.382683 0.000000
vn 0.923880 0.382683 0.000000
vn 0.382684 0.923879 0.000000
vn 0.382684 0.923879 0.000000
vn 0.382684 0.923879 0.000000
vn 0.382684 0.923879 0.000000
vn 0.382684 0.923879 0.000000
vn 0.382684 0.923879 0.000000
vn -0.382685 0.923879 0.000000
vn -0.382685 0.923879 0.000000
vn -0.382685 0.923879 0.000000
vn -0.382683 0.923880 0.000000
vn -0.382683 0.923880 0.000000
vn -0.382683 0.923880 0.000000
vn -0.923879 0.382684 0.000000
vn -0.923879 0.382684 0.000000
vn -0.923879 0.382684 0.000000
vn -0.923879 0.382684 0.000000
vn -0.923879 0.382684 0.000000
vn -0.923879 0.382684 0.000000
vn -0.923879 -0.382685 0.000000
vn -0.923879 -0.382685 0.000000
vn -0.923879 -0.382685 0.000000
vn -0.923879 -0.382684 0.000000
vn -0.923879 -0.382684 0.000000
vn -0.923879 -0.382684 0.000000
vn -0.382685 -0.923879 0.000000
vn -0.382685 -0.923879 0.000000
vn -0.382685 -0.923879 0.000000
vn -0.382684 -0.923879 0.000000
vn -0.382684 -0.923879 0.000000
vn -0.382684 -0.923879 0.000000
vn 0.382684 -0.923879 0.000000
vn 0.382684 -0.923879 0.000000
vn 0.382684 -0.923879 0.000000
vn 0.382684 -0.923879 0.000000
vn 0.382684 -0.923879 0.000000
vn 0.382684 -0.923879 0.000000
vn 0.923880 -0.382683 0.000000
vn 0.923880 -0.382683 0.000000
vn 0.923880 -0.382683 0.000000
vn 0.923880 -0.382683 0.000000
vn 0.923880 -0.382683 0.000000
vn 0.923880 -0.382683 0.000000
vn -0.000000 0.000000 -1.000000
vn -0.000000 0.000000 -1.000000
vn -0.000000 0.000000 -1.000000
vn 0.923880 0.382683 0.000000
vn 0.923880 0.382683 0.000000
vn 0.923880 0.382683 0.000000
vn 0.923880 0.382683 0.000000
vn 0.923880 0.382683 0.000000
vn 0.923880 0.382683 0.000000
vn 0.382683 0.923880 0.000000
vn 0.382683 0.923880 0.000000
vn 0.382683 0.923880 0.000000
vn 0.382684 0.923879 0.000000
vn 0.382684 0.923879 0.000000
vn 0.382684 0.923879 0.000000
vn -0.000000 1.000000 0.000000
vn -0.000000 1.000000 0.000000
vn -0.000000 1.000000 0.000000
vn 0.000000 1.000000 0.000000
vn 0.000000 1.000000 0.000000
vn 0.000000 1.000000 0.000000
vn -0.000000 1.000000 0.000000
vn -0.000000 1.000000 0.000000
vn -0.000000 1.000000 0.000000
vn -0.000000 1.000000 0.000000
vn -0.000000 1.000000 0.000000
vn -0.000000 1.000000 0.000000
vn -0.000000 1.000000 0.000000
vn -0.000000 1.000000 0.000000
vn -0.000000 1.000000 0.000000
vn -0.000000 0.000000 -1.000000
vn -0.000000 0.000000 -1.000000
vn -0.000000 0.000000 -1.000000
vn -0.000000 0.000000 -1.000000
vn -0.000000 0.000000 -1.000000
vn -0.000000 0.000000 -1.000000
vn -0.000000 0.000000 -1.000000
vn -0.000000 0.000000 -1.000000
vn -0.000000 0.000000 -1.000000
vn -0.000000 0.000000 -1.000000
vn -0.000000 0.000000 -1.000000
vn -0.000000 0.000000 -1.000000
vn -0.000000 0.000000 -1.000000
vn -0.000000 0.000000 -1.000000
vn -0.000000 0.000000 -1.000000
vn -0.000000 0.000000 -1.000000
vn -0.000000 0.000000 -1.000000
vn -0.000000 0.000000 -1.000000
vn -0.000000 0.000000 -1.000000
vn -0.000000 0.000000 -1.000000
vn -0.000000 0.000000 -1.000000
vn -0.000000 0.000000 -1.000000
vn -0.000000 0.000000 -1.000000
vn -0.000000 0.000000 -1.000000
vn -0.000000 0.000000 -1.000000
vn -0.000000 0.000000 -1.000000
vn -0.000000 0.000000 -1.000000
vn -0.000000 0.000000 -1.000000
vn -0.000000 0.000000 -1.000000
vn -0.000000 0.000000 -1.000000

g Material.001
f 3/1/1 1/2/2 2/3/3
f 4/4/4 1/5/5 3/6/6
f 11/7/7 9/8/8 10/9/9
f 12/10/10 9/11/11 11/12/12
f 15/13/13 13/14/14 14/15/15
f 16/16/16 13/17/17 15/18/18
f 19/19/19 17/20/20 18/21/21
f 20/22/22 17/23/23 19/24/24
f 23/25/25 21/26/26 22/27/27
f 24/28/28 21/29/29 23/30/30
f 27/31/31 25/32/32 26/33/33
f 28/34/34 25/35/35 27/36/36
f 31/37/37 29/38/38 30/39/39
f 32/40/40 29/41/41 31/42/42
f 35/43/43 33/44/44 34/45/45
f 36/46/46 33/47/47 35/48/48
f 39/49/49 37/50/50 38/51/51
f 40/52/52 37/53/53 39/54/54
f 43/55/55 41/56/56 42/57/57
f 44/58/58 41/59/59 43/60/60
f 47/61/61 45/62/62 46/63/63
f 48/64/64 45/65/65 47/66/66
f 51/67/67 49/68/68 50/69/69
f 52/70/70 49/71/71 51/72/72
f 55/73/73 53/74/74 54/75/75
f 56/76/76 53/77/77 55/78/78
f 75/79/79 73/80/80 74/81/81
f 76/82/82 73/83/83 75/84/84
f 79/85/85 77/86/86 78/87/87
f 80/88/88 77/89/89 79/90/90
f 83/91/91 81/92/92 82/93/93
f 84/94/94 81/95/95 83/96/96
f 87/97/97 85/98/98 86/99/99
f 88/100/100 85/101/101 87/102/102

g Material
f 7/103/103 5/104/104 6/105/105
f 8/106/106 5/107/107 7/108/108
f 59/109/109 57/110/110 58/111/111
f 60/112/112 57/113/113 59/114/114
f 63/115/115 61/116/116 62/117/117
f 64/118/118 61/119/119 63/120/120
f 67/121/121 65/122/122 66/123/123
f 68/124/124 65/125/125 67/126/126
f 71/127/127 69/128/128 70/129/129
f 72/130/130 69/131/131 71/132/132

g Material.002
f 91/133/133 89/134/134 90/135/135
f 92/136/136 89/137/137 91/138/138
f 95/139/139 93/140/140 94/141/141
f 96/142/142 93/143/143 95/144/144
f 99/145/145 97/146/146 98/147/147
f 100/148/148 97/149/149 99/150/150
f 103/151/151 101/152/152 102/153/153
f 104/154/154 101/155/155 103/156/156
f 107/157/157 105/158/158 106/159/159
f 108/160/160 105/161/161 107/162/162
f 111/163/163 109/164/164 110/165/165
f 112/166/166 109/167/167 111/168/168
f 115/169/169 113/170/170 114/171/171
f 118/172/172 116/173/173 117/174/174
f 119/175/175 116/176/176 118/177/177
f 122/178/178 120/179/179 121/180/180
f 123/181/181 120/182/182 122/183/183
f 126/184/184 124/185/185 125/186/186
f 127/187/187 124/188/188 126/189/189
f 130/190/190 128/191/191 129/192/192
f 131/193/193 128/194/194 130/195/195
f 134/196/196 132/197/197 133/198/198
f 135/199/199 132/200/200 134/201/201
f 138/202/202 136/203/203 137/204/204
f 139/205/205 136/206/206 138/207/207
f 142/208/208 140/209/209 141/210/210
f 143/211/211 140/212/212 142/213/213
f 146/214/214 144/215/215 145/216/216
f 147/217/217 144/218/218 146/219/219
f 150/220/220 148/221/221 149/222/222
f 153/223/223 151/224/224 152/225/225
f 154/226/226 151/227/227 153/228/228
f 157/229/229 155/230/230 156/231/231
f 158/232/232 155/233/233 157/234/234
f 161/235/235 159/236/236 160/237/237
f 162/238/238 159/239/239 161/240/240
f 165/241/241 163/242/242 164/243/243
f 166/244/244 163/245/245 165/246/246
f 169/247/247 167/248/248 168/249/249
f 170/250/250 167/251/251 169/252/252
f 173/253/253 171/254/254 172/255/255
f 174/256/256 171/257/257 173/258/258
f 177/259/259 175/260/260 176/261/261
f 178/262/262 175/263/263 177/264/264
f 181/265/265 179/266/266 180/267/267
f 182/268/268 179/269/269 181/270/270
f 185/271/271 183/272/272 184/273/273
f 188/274/274 186/275/275 187/276/276
f 189/277/277 186/278/278 188/279/279
f 192/280/280 190/281/281 191/282/282
f 193/283/283 190/284/284 192/285/285
f 196/286/286 194/287/287 195/288/288
f 199/289/289 197/290/290 198/291/291
f 202/292/292 200/293/293 201/294/294
f 205/295/295 203/296/296 204/297/297
f 208/298/298 206/299/299 207/300/300
f 211/301/301 209/302/302 210/303/303
f 214/304/304 212/305/305 213/306/306
f 217/307/307 215/308/308 216/309/309
f 220/310/310 218/311/311 219/312/312
f 223/313/313 221/314/314 222/315/315
f 226/316/316 224/317/317 225/318/318
f 229/319/319 227/320/320 228/321/321
f 232/322/322 230/323/323 231/324/324
f 235/325/325 233/326/326 234/327/327
f 238/328/328 236/329/329 237/330/330

