# Converted from B3D for Luanti (With Correct Normals)
# Object Name: multidecor_plank_stair_segment

v 1.000000 1.000000 1.000000
v 1.000000 0.800000 1.000000
v 1.000000 0.800000 -0.000000
v 1.000000 1.000000 -0.000000
v -1.000000 0.800000 1.000000
v -1.000000 1.000000 1.000000
v -1.000000 1.000000 -0.000000
v -1.000000 0.800000 -0.000000
v -1.000000 -0.200000 -1.000000
v -1.000000 -0.200000 0.000000
v -1.000000 0.000000 0.000000
v -1.000000 0.000000 -1.000000
v 1.000000 -0.200000 -1.000000
v 1.000000 -0.200000 0.000000
v -1.000000 -0.200000 0.000000
v -1.000000 -0.200000 -1.000000
v 1.000000 0.000000 -1.000000
v 1.000000 0.000000 0.000000
v 1.000000 -0.200000 0.000000
v 1.000000 -0.200000 -1.000000
v -1.000000 0.000000 0.000000
v -1.000000 -0.200000 0.000000
v 1.000000 -0.200000 0.000000
v 1.000000 0.000000 0.000000
v 1.000000 1.000000 -0.000000
v 1.000000 0.800000 -0.000000
v -1.000000 0.800000 -0.000000
v -1.000000 1.000000 -0.000000
v 1.000000 0.800000 1.000000
v -1.000000 0.800000 1.000000
v -1.000000 0.800000 -0.000000
v 1.000000 0.800000 -0.000000
v 1.000000 0.800000 1.000000
v 1.000000 1.000000 1.000000
v -1.000000 1.000000 1.000000
v -1.000000 0.800000 1.000000
v -1.000000 0.000000 -1.000000
v 1.000000 0.000000 -1.000000
v 1.000000 -0.200000 -1.000000
v -1.000000 -0.200000 -1.000000
v -1.000000 0.000000 0.000000
v 1.000000 0.000000 0.000000
v 1.000000 0.000000 -1.000000
v -1.000000 0.000000 -1.000000
v -1.000000 1.000000 1.000000
v 1.000000 1.000000 1.000000
v 1.000000 1.000000 -0.000000
v -1.000000 1.000000 -0.000000

vt 0.499872 0.000128
vt 0.272716 0.045559
vt 0.272716 0.000128
vt 0.499872 0.045560
vt 0.272716 0.045559
vt 0.499872 0.000128
vt 0.499872 0.499871
vt 0.272716 0.545303
vt 0.272716 0.499871
vt 0.499872 0.545303
vt 0.272716 0.545303
vt 0.499872 0.499871
vt 0.499871 0.545559
vt 0.545303 0.772715
vt 0.545303 0.545559
vt 0.499872 0.772715
vt 0.545303 0.772715
vt 0.499871 0.545559
vt 0.545560 0.045559
vt 0.999872 0.272716
vt 0.999872 0.045560
vt 0.545560 0.272716
vt 0.999872 0.272716
vt 0.545560 0.045559
vt 0.000128 0.545559
vt 0.045559 0.772715
vt 0.045559 0.545559
vt 0.000128 0.772715
vt 0.045559 0.772715
vt 0.000128 0.545559
vt 0.999872 0.045560
vt 0.545560 0.000128
vt 0.545560 0.045559
vt 0.999872 0.000128
vt 0.545560 0.000128
vt 0.999872 0.045560
vt 0.545303 0.499871
vt 0.499872 0.045560
vt 0.545303 0.045560
vt 0.499872 0.499871
vt 0.499872 0.045560
vt 0.545303 0.499871
vt 0.000128 0.499871
vt 0.227285 0.045559
vt 0.227284 0.499871
vt 0.000129 0.045559
vt 0.227285 0.045559
vt 0.000128 0.499871
vt 0.272716 0.499871
vt 0.227285 0.045559
vt 0.272716 0.045559
vt 0.227284 0.499871
vt 0.227285 0.045559
vt 0.272716 0.499871
vt 0.045559 0.818146
vt 0.499872 0.772715
vt 0.045559 0.772715
vt 0.499872 0.818146
vt 0.499872 0.772715
vt 0.045559 0.818146
vt 0.045559 0.772715
vt 0.499871 0.545559
vt 0.045559 0.545559
vt 0.499872 0.772715
vt 0.499871 0.545559
vt 0.045559 0.772715
vt 0.499872 0.045560
vt 0.272716 0.499871
vt 0.272716 0.045559
vt 0.499872 0.499871
vt 0.272716 0.499871
vt 0.499872 0.045560

vn 1.000000 0.000000 0.000000
vn 1.000000 0.000000 0.000000
vn 1.000000 0.000000 0.000000
vn 1.000000 0.000000 0.000000
vn 1.000000 0.000000 0.000000
vn 1.000000 0.000000 0.000000
vn -1.000000 0.000000 0.000000
vn -1.000000 0.000000 0.000000
vn -1.000000 0.000000 0.000000
vn -1.000000 0.000000 0.000000
vn -1.000000 0.000000 0.000000
vn -1.000000 0.000000 0.000000
vn -1.000000 0.000000 0.000000
vn -1.000000 0.000000 0.000000
vn -1.000000 0.000000 0.000000
vn -1.000000 0.000000 0.000000
vn -1.000000 0.000000 0.000000
vn -1.000000 0.000000 0.000000
vn -0.000000 -1.000000 0.000000
vn -0.000000 -1.000000 0.000000
vn -0.000000 -1.000000 0.000000
vn -0.000000 -1.000000 0.000000
vn -0.000000 -1.000000 0.000000
vn -0.000000 -1.000000 0.000000
vn 1.000000 0.000000 0.000000
vn 1.000000 0.000000 0.000000
vn 1.000000 0.000000 0.000000
vn 1.000000 0.000000 -0.000000
vn 1.000000 0.000000 -0.000000
vn 1.000000 0.000000 -0.000000
vn 0.000000 0.000000 1.000000
vn 0.000000 0.000000 1.000000
vn 0.000000 0.000000 1.000000
vn 0.000000 0.000000 1.000000
vn 0.000000 0.000000 1.000000
vn 0.000000 0.000000 1.000000
vn -0.000000 0.000000 -1.000000
vn -0.000000 0.000000 -1.000000
vn -0.000000 0.000000 -1.000000
vn -0.000000 0.000000 -1.000000
vn -0.000000 0.000000 -1.000000
vn -0.000000 0.000000 -1.000000
vn -0.000000 -1.000000 0.000000
vn -0.000000 -1.000000 0.000000
vn -0.000000 -1.000000 0.000000
vn -0.000000 -1.000000 0.000000
vn -0.000000 -1.000000 0.000000
vn -0.000000 -1.000000 0.000000
vn -0.000000 0.000000 1.000000
vn -0.000000 0.000000 1.000000
vn -0.000000 0.000000 1.000000
vn -0.000000 0.000000 1.000000
vn -0.000000 0.000000 1.000000
vn -0.000000 0.000000 1.000000
vn -0.000000 0.000000 -1.000000
vn -0.000000 0.000000 -1.000000
vn -0.000000 0.000000 -1.000000
vn -0.000000 0.000000 -1.000000
vn -0.000000 0.000000 -1.000000
vn -0.000000 0.000000 -1.000000
vn -0.000000 1.000000 0.000000
vn -0.000000 1.000000 0.000000
vn -0.000000 1.000000 0.000000
vn -0.000000 1.000000 0.000000
vn -0.000000 1.000000 0.000000
vn -0.000000 1.000000 0.000000
vn -0.000000 1.000000 0.000000
vn -0.000000 1.000000 0.000000
vn -0.000000 1.000000 0.000000
vn -0.000000 1.000000 0.000000
vn -0.000000 1.000000 0.000000
vn -0.000000 1.000000 0.000000

g Material
f 3/1/1 1/2/2 2/3/3
f 4/4/4 1/5/5 3/6/6
f 7/7/7 5/8/8 6/9/9
f 8/10/10 5/11/11 7/12/12
f 11/13/13 9/14/14 10/15/15
f 12/16/16 9/17/17 11/18/18
f 15/19/19 13/20/20 14/21/21
f 16/22/22 13/23/23 15/24/24
f 19/25/25 17/26/26 18/27/27
f 20/28/28 17/29/29 19/30/30
f 23/31/31 21/32/32 22/33/33
f 24/34/34 21/35/35 23/36/36
f 27/37/37 25/38/38 26/39/39
f 28/40/40 25/41/41 27/42/42
f 31/43/43 29/44/44 30/45/45
f 32/46/46 29/47/47 31/48/48
f 35/49/49 33/50/50 34/51/51
f 36/52/52 33/53/53 35/54/54
f 39/55/55 37/56/56 38/57/57
f 40/58/58 37/59/59 39/60/60
f 43/61/61 41/62/62 42/63/63
f 44/64/64 41/65/65 43/66/66
f 47/67/67 45/68/68 46/69/69
f 48/70/70 45/71/71 47/72/72

