# Converted from B3D for Luanti (With Correct Normals)
# Object Name: multidecor_wall_shelf_with_books

v 1.000000 0.000000 0.100000
v -1.000000 -0.000000 0.100000
v -1.000000 -1.000000 0.100000
v 1.000001 -1.000000 0.100000
v 1.000001 -1.000000 -0.100000
v 1.000001 -1.000000 0.100000
v -1.000000 -1.000000 0.100000
v -1.000000 -1.000000 -0.100000
v -1.000000 -1.000000 -0.100000
v -1.000000 -1.000000 0.100000
v -1.000000 -0.000000 0.100000
v -1.000000 -0.000000 -0.100000
v -1.000000 -0.000000 -0.100000
v 1.000000 0.000000 -0.100000
v 1.000001 -1.000000 -0.100000
v -1.000000 -1.000000 -0.100000
v 1.000000 0.000000 -0.100000
v 1.000000 0.000000 0.100000
v 1.000001 -1.000000 0.100000
v 1.000001 -1.000000 -0.100000
v -1.000000 -0.000000 -0.100000
v -1.000000 -0.000000 0.100000
v 1.000000 0.000000 0.100000
v 1.000000 0.000000 -0.100000
v 0.800000 0.000000 -0.100000
v 0.800000 0.000000 -0.400000
v 0.800000 -0.500000 -0.600000
v 0.800000 0.000000 -0.400000
v 0.800000 0.000000 -0.100000
v 1.000000 0.000000 -0.100000
v 1.000000 0.000000 -0.400000
v 1.000001 -1.000000 -0.100000
v 1.000001 -1.000000 -0.600000
v 1.000000 -0.500000 -0.600000
v 1.000001 -1.000000 -0.600000
v 1.000001 -1.000000 -0.100000
v 0.800000 -1.000000 -0.100000
v 0.800000 -1.000000 -0.600000
v -0.800000 -0.500000 -0.600000
v -0.800000 -0.000000 -0.100000
v -0.800000 -1.000000 -0.100000
v 0.800000 0.000000 -0.400000
v 1.000000 0.000000 -0.400000
v 1.000000 -0.500000 -0.600000
v 0.800000 -0.500000 -0.600000
v 0.800000 -0.500000 -0.600000
v 1.000000 -0.500000 -0.600000
v 1.000001 -1.000000 -0.600000
v 0.800000 -1.000000 -0.600000
v -0.800000 -0.000000 -0.400000
v -1.000000 -0.000000 -0.400000
v -1.000000 -0.000000 -0.100000
v -0.800000 -0.000000 -0.100000
v -1.000000 -0.500000 -0.600000
v -1.000000 -1.000000 -0.100000
v -1.000000 -0.000000 -0.100000
v -1.000000 -1.000000 -0.600000
v -0.800000 -1.000000 -0.600000
v -0.800000 -1.000000 -0.100000
v -1.000000 -1.000000 -0.100000
v -0.800000 -0.000000 -0.400000
v -0.800000 -0.500000 -0.600000
v -1.000000 -0.500000 -0.600000
v -1.000000 -0.000000 -0.400000
v -0.800000 -0.500000 -0.600000
v -0.800000 -1.000000 -0.600000
v -1.000000 -1.000000 -0.600000
v -1.000000 -0.500000 -0.600000
v 0.800000 0.000000 0.100000
v 0.800000 0.000000 0.600000
v 1.000000 0.000000 0.600000
v 1.000000 0.000000 0.100000
v 0.800000 -1.000000 0.100000
v 1.000001 -1.000000 0.100000
v 1.000001 -1.000000 0.600000
v 0.800000 -1.000000 0.600000
v -1.000000 -0.000000 0.100000
v -1.000000 -0.000000 0.600000
v -0.800000 -0.000000 0.600000
v -0.800000 -0.000000 0.100000
v 0.800000 0.000000 0.600000
v 0.800000 -1.000000 0.600000
v 1.000001 -1.000000 0.600000
v 1.000000 0.000000 0.600000
v 1.000000 0.000000 0.600000
v 1.000001 -1.000000 0.600000
v 1.000001 -1.000000 0.100000
v 1.000000 0.000000 0.100000
v 0.800000 0.000000 0.100000
v 0.800000 -1.000000 0.100000
v 0.800000 -1.000000 0.600000
v 0.800000 0.000000 0.600000
v -1.000000 -1.000000 0.100000
v -0.800000 -1.000000 0.100000
v -0.800000 -1.000000 0.600000
v -1.000000 -1.000000 0.600000
v -1.000000 -0.000000 0.600000
v -1.000000 -1.000000 0.600000
v -0.800000 -1.000000 0.600000
v -0.800000 -0.000000 0.600000
v -0.800000 -0.000000 0.600000
v -0.800000 -1.000000 0.600000
v -0.800000 -1.000000 0.100000
v -0.800000 -0.000000 0.100000
v -1.000000 -0.000000 0.100000
v -1.000000 -1.000000 0.100000
v -1.000000 -1.000000 0.600000
v -1.000000 -0.000000 0.600000
v 0.500000 -0.117520 0.100000
v 0.500000 -0.117520 1.300000
v 0.520000 -0.087520 1.300000
v 0.520000 -0.087520 0.100000
v 0.750000 -0.067520 0.100000
v 0.750000 -0.067520 1.300000
v 0.780000 -0.087520 1.300000
v 0.780000 -0.087520 0.100000
v 0.800000 -0.117520 0.100000
v 0.800000 -0.117520 1.300000
v 0.800000 -0.932481 1.300000
v 0.800000 -0.932480 0.100000
v 0.550000 -0.932480 0.100000
v 0.550000 -0.932481 1.300000
v 0.500000 -0.932481 1.300000
v 0.500000 -0.932480 0.100000
v 0.750000 -0.117520 0.100000
v 0.800000 -0.117520 0.100000
v 0.800000 -0.932480 0.100000
v 0.750000 -0.932480 0.100000
v 0.550000 -0.117520 1.300000
v 0.500000 -0.117520 1.300000
v 0.500000 -0.932481 1.300000
v 0.550000 -0.932481 1.300000
v 0.800000 -0.117520 1.300000
v 0.750000 -0.117520 1.300000
v 0.750000 -0.932481 1.300000
v 0.800000 -0.932481 1.300000
v 0.550000 -0.932481 1.300000
v 0.550000 -0.932480 0.100000
v 0.555000 -0.891732 0.130000
v 0.555000 -0.891733 1.270000
v 0.500000 -0.117520 0.100000
v 0.550000 -0.117520 0.100000
v 0.550000 -0.932480 0.100000
v 0.500000 -0.932480 0.100000
v 0.550000 -0.117520 0.100000
v 0.750000 -0.117520 0.100000
v 0.745000 -0.117520 0.130000
v 0.555000 -0.117520 0.130000
v 0.800000 -0.932480 0.100000
v 0.800000 -0.932481 1.300000
v 0.750000 -0.932481 1.300000
v 0.750000 -0.932480 0.100000
v 0.750000 -0.117520 1.300000
v 0.550000 -0.117520 1.300000
v 0.555000 -0.117520 1.270000
v 0.745000 -0.117520 1.270000
v 0.520000 -0.087520 0.100000
v 0.520000 -0.087520 1.300000
v 0.550000 -0.067520 1.300000
v 0.550000 -0.067520 0.100000
v 0.550000 -0.067520 0.100000
v 0.550000 -0.067520 1.300000
v 0.750000 -0.067520 1.300000
v 0.750000 -0.067520 0.100000
v 0.550000 -0.067520 0.100000
v 0.750000 -0.067520 0.100000
v 0.750000 -0.117520 0.100000
v 0.550000 -0.117520 0.100000
v 0.520000 -0.087520 0.100000
v 0.550000 -0.067520 0.100000
v 0.550000 -0.117520 0.100000
v 0.500000 -0.117520 0.100000
v 0.750000 -0.067520 1.300000
v 0.550000 -0.067520 1.300000
v 0.550000 -0.117520 1.300000
v 0.750000 -0.117520 1.300000
v 0.780000 -0.087520 1.300000
v 0.750000 -0.067520 1.300000
v 0.750000 -0.117520 1.300000
v 0.800000 -0.117520 1.300000
v 0.550000 -0.067520 1.300000
v 0.520000 -0.087520 1.300000
v 0.500000 -0.117520 1.300000
v 0.550000 -0.117520 1.300000
v 0.750000 -0.067520 0.100000
v 0.780000 -0.087520 0.100000
v 0.800000 -0.117520 0.100000
v 0.750000 -0.117520 0.100000
v 0.780000 -0.087520 0.100000
v 0.780000 -0.087520 1.300000
v 0.800000 -0.117520 1.300000
v 0.800000 -0.117520 0.100000
v 0.500000 -0.932480 0.100000
v 0.500000 -0.932481 1.300000
v 0.500000 -0.117520 1.300000
v 0.500000 -0.117520 0.100000
v 0.745000 -0.117520 1.270000
v 0.555000 -0.117520 1.270000
v 0.555000 -0.891733 1.270000
v 0.745000 -0.891732 1.270000
v 0.555000 -0.117520 0.130000
v 0.745000 -0.117520 0.130000
v 0.745000 -0.891732 0.130000
v 0.555000 -0.891732 0.130000
v 0.745000 -0.891732 0.130000
v 0.745000 -0.891732 1.270000
v 0.555000 -0.891733 1.270000
v 0.555000 -0.891732 0.130000
v 0.750000 -0.117520 0.100000
v 0.750000 -0.932480 0.100000
v 0.745000 -0.891732 0.130000
v 0.745000 -0.117520 0.130000
v 0.550000 -0.117520 1.300000
v 0.550000 -0.932481 1.300000
v 0.555000 -0.891733 1.270000
v 0.555000 -0.117520 1.270000
v 0.750000 -0.932480 0.100000
v 0.750000 -0.932481 1.300000
v 0.745000 -0.891732 1.270000
v 0.745000 -0.891732 0.130000
v 0.550000 -0.932480 0.100000
v 0.550000 -0.117520 0.100000
v 0.555000 -0.117520 0.130000
v 0.555000 -0.891732 0.130000
v 0.750000 -0.932481 1.300000
v 0.750000 -0.117520 1.300000
v 0.745000 -0.117520 1.270000
v 0.745000 -0.891732 1.270000
v -0.586849 -0.055553 1.457301
v -0.667080 -0.055553 1.457301
v -0.667080 -0.953701 1.457302
v -0.586849 -0.953701 1.457302
v -0.667080 -0.055552 0.100000
v -0.586849 -0.055552 0.100000
v -0.586849 -0.953700 0.100000
v -0.667080 -0.953700 0.100000
v -0.586849 -0.953700 0.100000
v -0.586849 -0.953701 1.457302
v -0.667080 -0.953701 1.457302
v -0.667080 -0.953700 0.100000
v -0.586849 -0.055552 0.100000
v -0.667080 -0.055552 0.100000
v -0.667080 -0.055553 1.457301
v -0.586849 -0.055553 1.457301
v -0.667080 -0.953701 1.457302
v -0.667080 -0.055553 1.457301
v -0.667080 -0.055552 0.100000
v -0.667080 -0.953700 0.100000
v -0.586849 -0.953701 1.457302
v -0.586849 -0.953700 0.100000
v -0.586849 -0.055552 0.100000
v -0.586849 -0.055553 1.457301
v -0.698967 -0.055553 1.344853
v -0.800000 -0.055553 1.344853
v -0.800000 -0.953701 1.344853
v -0.698966 -0.953701 1.344853
v -0.800000 -0.055552 0.100000
v -0.698967 -0.055552 0.100000
v -0.698966 -0.953700 0.100000
v -0.800000 -0.953700 0.100000
v -0.698966 -0.953700 0.100000
v -0.698966 -0.953701 1.344853
v -0.800000 -0.953701 1.344853
v -0.800000 -0.953700 0.100000
v -0.698967 -0.055552 0.100000
v -0.800000 -0.055552 0.100000
v -0.800000 -0.055553 1.344853
v -0.698967 -0.055553 1.344853
v -0.800000 -0.953701 1.344853
v -0.800000 -0.055553 1.344853
v -0.800000 -0.055552 0.100000
v -0.800000 -0.953700 0.100000
v -0.698966 -0.953701 1.344853
v -0.698966 -0.953700 0.100000
v -0.698967 -0.055552 0.100000
v -0.698967 -0.055553 1.344853
v 0.179280 -0.117520 0.100000
v 0.179280 -0.117520 1.300000
v 0.199280 -0.087520 1.300000
v 0.199280 -0.087520 0.100000
v 0.429280 -0.067520 0.100000
v 0.429280 -0.067520 1.300000
v 0.459280 -0.087520 1.300000
v 0.459280 -0.087520 0.100000
v 0.479280 -0.117520 0.100000
v 0.479280 -0.117520 1.300000
v 0.479280 -0.932481 1.300000
v 0.479280 -0.932480 0.100000
v 0.229280 -0.932481 0.100000
v 0.229280 -0.932481 1.300000
v 0.179280 -0.932481 1.300000
v 0.179280 -0.932481 0.100000
v 0.429280 -0.117520 0.100000
v 0.479280 -0.117520 0.100000
v 0.479280 -0.932480 0.100000
v 0.429280 -0.932480 0.100000
v 0.229280 -0.117520 1.300000
v 0.179280 -0.117520 1.300000
v 0.179280 -0.932481 1.300000
v 0.229280 -0.932481 1.300000
v 0.479280 -0.117520 1.300000
v 0.429280 -0.117520 1.300000
v 0.429280 -0.932481 1.300000
v 0.479280 -0.932481 1.300000
v 0.229280 -0.932481 1.300000
v 0.229280 -0.932481 0.100000
v 0.234280 -0.891732 0.130000
v 0.234280 -0.891733 1.270000
v 0.179280 -0.117520 0.100000
v 0.229280 -0.117520 0.100000
v 0.229280 -0.932481 0.100000
v 0.179280 -0.932481 0.100000
v 0.229280 -0.117520 0.100000
v 0.429280 -0.117520 0.100000
v 0.424280 -0.117520 0.130000
v 0.234280 -0.117520 0.130000
v 0.479280 -0.932480 0.100000
v 0.479280 -0.932481 1.300000
v 0.429280 -0.932481 1.300000
v 0.429280 -0.932480 0.100000
v 0.429280 -0.117520 1.300000
v 0.229280 -0.117520 1.300000
v 0.234280 -0.117520 1.270000
v 0.424280 -0.117520 1.270000
v 0.199280 -0.087520 0.100000
v 0.199280 -0.087520 1.300000
v 0.229280 -0.067520 1.300000
v 0.229280 -0.067520 0.100000
v 0.229280 -0.067520 0.100000
v 0.229280 -0.067520 1.300000
v 0.429280 -0.067520 1.300000
v 0.429280 -0.067520 0.100000
v 0.229280 -0.067520 0.100000
v 0.429280 -0.067520 0.100000
v 0.429280 -0.117520 0.100000
v 0.229280 -0.117520 0.100000
v 0.199280 -0.087520 0.100000
v 0.229280 -0.067520 0.100000
v 0.229280 -0.117520 0.100000
v 0.179280 -0.117520 0.100000
v 0.429280 -0.067520 1.300000
v 0.229280 -0.067520 1.300000
v 0.229280 -0.117520 1.300000
v 0.429280 -0.117520 1.300000
v 0.459280 -0.087520 1.300000
v 0.429280 -0.067520 1.300000
v 0.429280 -0.117520 1.300000
v 0.479280 -0.117520 1.300000
v 0.229280 -0.067520 1.300000
v 0.199280 -0.087520 1.300000
v 0.179280 -0.117520 1.300000
v 0.229280 -0.117520 1.300000
v 0.429280 -0.067520 0.100000
v 0.459280 -0.087520 0.100000
v 0.479280 -0.117520 0.100000
v 0.429280 -0.117520 0.100000
v 0.459280 -0.087520 0.100000
v 0.459280 -0.087520 1.300000
v 0.479280 -0.117520 1.300000
v 0.479280 -0.117520 0.100000
v 0.179280 -0.932481 0.100000
v 0.179280 -0.932481 1.300000
v 0.179280 -0.117520 1.300000
v 0.179280 -0.117520 0.100000
v 0.424280 -0.117520 1.270000
v 0.234280 -0.117520 1.270000
v 0.234280 -0.891733 1.270000
v 0.424280 -0.891733 1.270000
v 0.234280 -0.117520 0.130000
v 0.424280 -0.117520 0.130000
v 0.424280 -0.891732 0.130000
v 0.234280 -0.891732 0.130000
v 0.424280 -0.891732 0.130000
v 0.424280 -0.891733 1.270000
v 0.234280 -0.891733 1.270000
v 0.234280 -0.891732 0.130000
v 0.429280 -0.117520 0.100000
v 0.429280 -0.932480 0.100000
v 0.424280 -0.891732 0.130000
v 0.424280 -0.117520 0.130000
v 0.229280 -0.117520 1.300000
v 0.229280 -0.932481 1.300000
v 0.234280 -0.891733 1.270000
v 0.234280 -0.117520 1.270000
v 0.429280 -0.932480 0.100000
v 0.429280 -0.932481 1.300000
v 0.424280 -0.891733 1.270000
v 0.424280 -0.891732 0.130000
v 0.229280 -0.932481 0.100000
v 0.229280 -0.117520 0.100000
v 0.234280 -0.117520 0.130000
v 0.234280 -0.891732 0.130000
v 0.429280 -0.932481 1.300000
v 0.429280 -0.117520 1.300000
v 0.424280 -0.117520 1.270000
v 0.424280 -0.891733 1.270000
v -0.139782 -0.175167 0.115803
v -0.032249 -0.175167 1.131424
v -0.018153 -0.149635 1.129931
v -0.125686 -0.149635 0.114311
v 0.036420 -0.132613 0.097147
v 0.143953 -0.132613 1.112768
v 0.165097 -0.149635 1.110529
v 0.057564 -0.149635 0.094908
v 0.071660 -0.175167 0.093416
v 0.179193 -0.175167 1.109037
v 0.179193 -0.868765 1.109037
v 0.071660 -0.868765 0.093416
v -0.104542 -0.868765 0.112072
v 0.002991 -0.868765 1.127693
v -0.032249 -0.868765 1.131424
v -0.139782 -0.868765 0.115803
v 0.036420 -0.175167 0.097147
v 0.071660 -0.175167 0.093416
v 0.071660 -0.868765 0.093416
v 0.036420 -0.868765 0.097147
v 0.002991 -0.175167 1.127693
v -0.032249 -0.175167 1.131424
v -0.032249 -0.868765 1.131424
v 0.002991 -0.868765 1.127693
v 0.179193 -0.175167 1.109037
v 0.143953 -0.175167 1.112768
v 0.143953 -0.868765 1.112768
v 0.179193 -0.868765 1.109037
v 0.002991 -0.868765 1.127693
v -0.104542 -0.868765 0.112072
v -0.098329 -0.834085 0.137090
v 0.003827 -0.834085 1.101929
v -0.139782 -0.175167 0.115803
v -0.104542 -0.175167 0.112072
v -0.104542 -0.868765 0.112072
v -0.139782 -0.868765 0.115803
v -0.104542 -0.175167 0.112072
v 0.036420 -0.175167 0.097147
v 0.035584 -0.175167 0.122911
v -0.098330 -0.175167 0.137089
v 0.071660 -0.868765 0.093416
v 0.179193 -0.868765 1.109037
v 0.143953 -0.868765 1.112768
v 0.036420 -0.868765 0.097147
v 0.143953 -0.175167 1.112768
v 0.002991 -0.175167 1.127693
v 0.003827 -0.175167 1.101929
v 0.137740 -0.175167 1.087750
v -0.125686 -0.149635 0.114311
v -0.018153 -0.149635 1.129931
v 0.002991 -0.132613 1.127693
v -0.104542 -0.132613 0.112072
v -0.104542 -0.132613 0.112072
v 0.002991 -0.132613 1.127693
v 0.143953 -0.132613 1.112768
v 0.036420 -0.132613 0.097147
v -0.104542 -0.132613 0.112072
v 0.036420 -0.132613 0.097147
v 0.036420 -0.175167 0.097147
v -0.104542 -0.175167 0.112072
v -0.125686 -0.149635 0.114311
v -0.104542 -0.132613 0.112072
v -0.104542 -0.175167 0.112072
v -0.139782 -0.175167 0.115803
v 0.143953 -0.132613 1.112768
v 0.002991 -0.132613 1.127693
v 0.002991 -0.175167 1.127693
v 0.143953 -0.175167 1.112768
v 0.165097 -0.149635 1.110529
v 0.143953 -0.132613 1.112768
v 0.143953 -0.175167 1.112768
v 0.179193 -0.175167 1.109037
v 0.002991 -0.132613 1.127693
v -0.018153 -0.149635 1.129931
v -0.032249 -0.175167 1.131424
v 0.002991 -0.175167 1.127693
v 0.036420 -0.132613 0.097147
v 0.057564 -0.149635 0.094908
v 0.071660 -0.175167 0.093416
v 0.036420 -0.175167 0.097147
v 0.057564 -0.149635 0.094908
v 0.165097 -0.149635 1.110529
v 0.179193 -0.175167 1.109037
v 0.071660 -0.175167 0.093416
v -0.139782 -0.868765 0.115803
v -0.032249 -0.868765 1.131424
v -0.032249 -0.175167 1.131424
v -0.139782 -0.175167 0.115803
v 0.137740 -0.175167 1.087750
v 0.003827 -0.175167 1.101929
v 0.003827 -0.834085 1.101929
v 0.137740 -0.834085 1.087750
v -0.098330 -0.175167 0.137089
v 0.035584 -0.175167 0.122911
v 0.035584 -0.834085 0.122911
v -0.098329 -0.834085 0.137090
v 0.035584 -0.834085 0.122911
v 0.137740 -0.834085 1.087750
v 0.003827 -0.834085 1.101929
v -0.098329 -0.834085 0.137090
v 0.036420 -0.175167 0.097147
v 0.036420 -0.868765 0.097147
v 0.035584 -0.834085 0.122911
v 0.035584 -0.175167 0.122911
v 0.002991 -0.175167 1.127693
v 0.002991 -0.868765 1.127693
v 0.003827 -0.834085 1.101929
v 0.003827 -0.175167 1.101929
v 0.036420 -0.868765 0.097147
v 0.143953 -0.868765 1.112768
v 0.137740 -0.834085 1.087750
v 0.035584 -0.834085 0.122911
v -0.104542 -0.868765 0.112072
v -0.104542 -0.175167 0.112072
v -0.098330 -0.175167 0.137089
v -0.098329 -0.834085 0.137090
v 0.143953 -0.868765 1.112768
v 0.143953 -0.175167 1.112768
v 0.137740 -0.175167 1.087750
v 0.137740 -0.834085 1.087750
v -0.450539 -0.175167 0.092683
v -0.587083 -0.175168 1.245493
v -0.577518 -0.149635 1.246626
v -0.440975 -0.149635 0.093816
v -0.330981 -0.132613 0.106844
v -0.467525 -0.132614 1.259654
v -0.453178 -0.149635 1.261353
v -0.316634 -0.149635 0.108544
v -0.307070 -0.175167 0.109676
v -0.443613 -0.175168 1.262486
v -0.443613 -0.868765 1.262486
v -0.307070 -0.868765 0.109677
v -0.426628 -0.868765 0.095516
v -0.563171 -0.868765 1.248325
v -0.587083 -0.868765 1.245493
v -0.450539 -0.868765 0.092683
v -0.330981 -0.175167 0.106844
v -0.307070 -0.175167 0.109676
v -0.307070 -0.868765 0.109677
v -0.330981 -0.868765 0.106844
v -0.563172 -0.175168 1.248325
v -0.587083 -0.175168 1.245493
v -0.587083 -0.868765 1.245493
v -0.563171 -0.868765 1.248325
v -0.443613 -0.175168 1.262486
v -0.467525 -0.175168 1.259654
v -0.467525 -0.868765 1.259654
v -0.443613 -0.868765 1.262486
v -0.563171 -0.868765 1.248325
v -0.426628 -0.868765 0.095516
v -0.427650 -0.834085 0.124619
v -0.557366 -0.834085 1.219788
v -0.450539 -0.175167 0.092683
v -0.426628 -0.175167 0.095515
v -0.426628 -0.868765 0.095516
v -0.450539 -0.868765 0.092683
v -0.426628 -0.175167 0.095515
v -0.330981 -0.175167 0.106844
v -0.336786 -0.175167 0.135381
v -0.427650 -0.175167 0.124619
v -0.307070 -0.868765 0.109677
v -0.443613 -0.868765 1.262486
v -0.467525 -0.868765 1.259654
v -0.330981 -0.868765 0.106844
v -0.467525 -0.175168 1.259654
v -0.563172 -0.175168 1.248325
v -0.557367 -0.175168 1.219788
v -0.466503 -0.175168 1.230550
v -0.440975 -0.149635 0.093816
v -0.577518 -0.149635 1.246626
v -0.563172 -0.132614 1.248325
v -0.426628 -0.132613 0.095515
v -0.426628 -0.132613 0.095515
v -0.563172 -0.132614 1.248325
v -0.467525 -0.132614 1.259654
v -0.330981 -0.132613 0.106844
v -0.426628 -0.132613 0.095515
v -0.330981 -0.132613 0.106844
v -0.330981 -0.175167 0.106844
v -0.426628 -0.175167 0.095515
v -0.440975 -0.149635 0.093816
v -0.426628 -0.132613 0.095515
v -0.426628 -0.175167 0.095515
v -0.450539 -0.175167 0.092683
v -0.467525 -0.132614 1.259654
v -0.563172 -0.132614 1.248325
v -0.563172 -0.175168 1.248325
v -0.467525 -0.175168 1.259654
v -0.453178 -0.149635 1.261353
v -0.467525 -0.132614 1.259654
v -0.467525 -0.175168 1.259654
v -0.443613 -0.175168 1.262486
v -0.563172 -0.132614 1.248325
v -0.577518 -0.149635 1.246626
v -0.587083 -0.175168 1.245493
v -0.563172 -0.175168 1.248325
v -0.330981 -0.132613 0.106844
v -0.316634 -0.149635 0.108544
v -0.307070 -0.175167 0.109676
v -0.330981 -0.175167 0.106844
v -0.316634 -0.149635 0.108544
v -0.453178 -0.149635 1.261353
v -0.443613 -0.175168 1.262486
v -0.307070 -0.175167 0.109676
v -0.450539 -0.868765 0.092683
v -0.587083 -0.868765 1.245493
v -0.587083 -0.175168 1.245493
v -0.450539 -0.175167 0.092683
v -0.466503 -0.175168 1.230550
v -0.557367 -0.175168 1.219788
v -0.557366 -0.834085 1.219788
v -0.466502 -0.834085 1.230550
v -0.427650 -0.175167 0.124619
v -0.336786 -0.175167 0.135381
v -0.336786 -0.834085 0.135381
v -0.427650 -0.834085 0.124619
v -0.336786 -0.834085 0.135381
v -0.466502 -0.834085 1.230550
v -0.557366 -0.834085 1.219788
v -0.427650 -0.834085 0.124619
v -0.330981 -0.175167 0.106844
v -0.330981 -0.868765 0.106844
v -0.336786 -0.834085 0.135381
v -0.336786 -0.175167 0.135381
v -0.563172 -0.175168 1.248325
v -0.563171 -0.868765 1.248325
v -0.557366 -0.834085 1.219788
v -0.557367 -0.175168 1.219788
v -0.330981 -0.868765 0.106844
v -0.467525 -0.868765 1.259654
v -0.466502 -0.834085 1.230550
v -0.336786 -0.834085 0.135381
v -0.426628 -0.868765 0.095516
v -0.426628 -0.175167 0.095515
v -0.427650 -0.175167 0.124619
v -0.427650 -0.834085 0.124619
v -0.467525 -0.868765 1.259654
v -0.467525 -0.175168 1.259654
v -0.466503 -0.175168 1.230550
v -0.466502 -0.834085 1.230550
v 0.800000 -0.500000 -0.600000
v 0.800000 -1.000000 -0.600000
v 0.800000 -1.000000 -0.100000
v 0.800000 -1.000000 -0.100000
v 0.800000 0.000000 -0.100000
v 0.800000 -0.500000 -0.600000
v 1.000000 -0.500000 -0.600000
v 1.000000 0.000000 -0.400000
v 1.000000 0.000000 -0.100000
v 1.000000 0.000000 -0.100000
v 1.000001 -1.000000 -0.100000
v 1.000000 -0.500000 -0.600000
v -0.800000 -1.000000 -0.100000
v -0.800000 -1.000000 -0.600000
v -0.800000 -0.500000 -0.600000
v -0.800000 -0.500000 -0.600000
v -0.800000 -0.000000 -0.400000
v -0.800000 -0.000000 -0.100000
v -1.000000 -0.000000 -0.100000
v -1.000000 -0.000000 -0.400000
v -1.000000 -0.500000 -0.600000
v -1.000000 -0.500000 -0.600000
v -1.000000 -1.000000 -0.600000
v -1.000000 -1.000000 -0.100000

vt 0.597934 0.054602
vt 0.326268 0.597934
vt 0.326268 0.054602
vt 0.597934 0.597934
vt 0.326268 0.597934
vt 0.597934 0.054602
vt 0.597934 0.054602
vt 0.652267 0.597934
vt 0.597934 0.597934
vt 0.652267 0.054602
vt 0.652267 0.597934
vt 0.597934 0.054602
vt 0.326268 0.054602
vt 0.597934 0.000269
vt 0.597934 0.054602
vt 0.326268 0.000269
vt 0.597934 0.000269
vt 0.326268 0.054602
vt 0.000269 0.597934
vt 0.271935 0.054602
vt 0.271935 0.597934
vt 0.000269 0.054602
vt 0.271935 0.054602
vt 0.000269 0.597934
vt 0.597934 0.597934
vt 0.326268 0.652267
vt 0.326268 0.597934
vt 0.597934 0.652267
vt 0.326268 0.652267
vt 0.597934 0.597934
vt 0.326268 0.597934
vt 0.271935 0.054602
vt 0.326268 0.054602
vt 0.271935 0.597934
vt 0.271935 0.054602
vt 0.326268 0.597934
vt 0.136640 0.788638
vt 0.272473 0.924471
vt 0.190973 0.924471
vt 0.979342 0.000269
vt 0.925009 0.081769
vt 0.925009 0.000269
vt 0.979342 0.081769
vt 0.925009 0.081769
vt 0.979342 0.000269
vt 0.273010 0.788638
vt 0.408843 0.924471
vt 0.273010 0.924471
vt 0.925009 0.499731
vt 0.979342 0.363898
vt 0.979342 0.499731
vt 0.925009 0.363898
vt 0.979342 0.363898
vt 0.925009 0.499731
vt 0.136102 0.652805
vt 0.000269 0.788638
vt 0.136102 0.924471
vt 0.979342 0.228065
vt 0.925009 0.081769
vt 0.979342 0.081769
vt 0.925009 0.228065
vt 0.925009 0.081769
vt 0.979342 0.228065
vt 0.979342 0.363898
vt 0.925009 0.228065
vt 0.979342 0.228065
vt 0.925009 0.363898
vt 0.925009 0.228065
vt 0.979342 0.363898
vt 0.979342 0.500269
vt 0.925009 0.581769
vt 0.979342 0.581769
vt 0.925009 0.500269
vt 0.925009 0.581769
vt 0.979342 0.500269
vt 0.545214 0.652805
vt 0.409381 0.788638
vt 0.545214 0.924471
vt 0.925009 0.999731
vt 0.979342 0.863898
vt 0.925009 0.863898
vt 0.979342 0.999731
vt 0.979342 0.863898
vt 0.925009 0.999731
vt 0.979342 0.728065
vt 0.925009 0.581769
vt 0.925009 0.728065
vt 0.979342 0.581769
vt 0.925009 0.581769
vt 0.979342 0.728065
vt 0.979342 0.863898
vt 0.925009 0.728065
vt 0.925009 0.863898
vt 0.979342 0.728065
vt 0.925009 0.728065
vt 0.979342 0.863898
vt 0.652805 0.653343
vt 0.707138 0.789176
vt 0.707138 0.653343
vt 0.652805 0.789176
vt 0.707138 0.789176
vt 0.652805 0.653343
vt 0.652805 0.789713
vt 0.788638 0.844047
vt 0.788638 0.789713
vt 0.652805 0.844047
vt 0.788638 0.844047
vt 0.652805 0.789713
vt 0.707676 0.653343
vt 0.762009 0.789176
vt 0.762009 0.653343
vt 0.707676 0.789176
vt 0.762009 0.789176
vt 0.707676 0.653343
vt 0.924471 0.462639
vt 0.652805 0.516972
vt 0.924471 0.516972
vt 0.652805 0.462639
vt 0.652805 0.516972
vt 0.924471 0.462639
vt 0.924471 0.326806
vt 0.652805 0.462639
vt 0.924471 0.462639
vt 0.652805 0.326806
vt 0.652805 0.462639
vt 0.924471 0.326806
vt 0.924471 0.516972
vt 0.652805 0.652805
vt 0.924471 0.652805
vt 0.652805 0.516972
vt 0.652805 0.652805
vt 0.924471 0.516972
vt 0.600085 0.652805
vt 0.545752 0.788638
vt 0.600085 0.788638
vt 0.545752 0.652805
vt 0.545752 0.788638
vt 0.600085 0.652805
vt 0.652805 0.190435
vt 0.924471 0.136102
vt 0.652805 0.136102
vt 0.924471 0.190435
vt 0.924471 0.136102
vt 0.652805 0.190435
vt 0.652805 0.326268
vt 0.924471 0.190435
vt 0.652805 0.190435
vt 0.924471 0.326268
vt 0.924471 0.190435
vt 0.652805 0.326268
vt 0.652805 0.136102
vt 0.924471 0.000269
vt 0.652805 0.000269
vt 0.924471 0.136102
vt 0.924471 0.000269
vt 0.652805 0.136102
vt 0.272473 0.652805
vt 0.136640 0.788638
vt 0.136640 0.652805
vt 0.136640 0.788638
vt 0.272473 0.652805
vt 0.272473 0.924471
vt 0.408843 0.652805
vt 0.273010 0.788638
vt 0.327344 0.652805
vt 0.273010 0.788638
vt 0.408843 0.652805
vt 0.408843 0.924471
vt 0.000269 0.788638
vt 0.136102 0.652805
vt 0.000269 0.652805
vt 0.136102 0.924471
vt 0.000269 0.788638
vt 0.054602 0.924471
vt 0.409381 0.788638
vt 0.545214 0.652805
vt 0.463714 0.652805
vt 0.545214 0.924471
vt 0.409381 0.788638
vt 0.409381 0.924471
vt 0.316621 0.000198
vt 0.303215 0.446379
vt 0.303215 0.000198
vt 0.316621 0.446379
vt 0.303215 0.446379
vt 0.316621 0.000198
vt 0.417797 0.000198
vt 0.404390 0.446379
vt 0.404391 0.000198
vt 0.417797 0.446379
vt 0.404390 0.446379
vt 0.417797 0.000198
vt 0.000198 0.446379
vt 0.303215 0.000198
vt 0.303215 0.446379
vt 0.000198 0.000198
vt 0.303215 0.000198
vt 0.000198 0.446379
vt 0.000299 0.473250
vt 0.446480 0.491841
vt 0.000299 0.491841
vt 0.446480 0.473251
vt 0.446480 0.491841
vt 0.000299 0.473250
vt 0.303265 0.470461
vt 0.000247 0.489052
vt 0.000247 0.470461
vt 0.303265 0.489052
vt 0.000247 0.489052
vt 0.303265 0.470461
vt 0.303265 0.470461
vt 0.000248 0.489052
vt 0.000248 0.470461
vt 0.303265 0.489052
vt 0.000248 0.489052
vt 0.303265 0.470461
vt 0.303264 0.489052
vt 0.000247 0.470461
vt 0.000247 0.489052
vt 0.303264 0.470461
vt 0.000247 0.470461
vt 0.303264 0.489052
vt 0.435326 0.507106
vt 0.000299 0.491841
vt 0.446480 0.491841
vt 0.011453 0.507106
vt 0.000299 0.491841
vt 0.435326 0.507106
vt 0.303265 0.489052
vt 0.000248 0.470461
vt 0.000248 0.489052
vt 0.303265 0.470461
vt 0.000248 0.470461
vt 0.303265 0.489052
vt 0.020697 0.477898
vt 0.093202 0.489052
vt 0.018838 0.489052
vt 0.091343 0.477897
vt 0.093202 0.489052
vt 0.020697 0.477898
vt 0.446480 0.491842
vt 0.000297 0.473251
vt 0.446480 0.473251
vt 0.000297 0.491841
vt 0.000297 0.473251
vt 0.446480 0.491842
vt 0.020697 0.477898
vt 0.093202 0.489052
vt 0.018838 0.489052
vt 0.091343 0.477898
vt 0.093202 0.489052
vt 0.020697 0.477898
vt 0.330027 0.000198
vt 0.316621 0.446379
vt 0.316621 0.000198
vt 0.330027 0.446379
vt 0.316621 0.446379
vt 0.330027 0.000198
vt 0.404391 0.000198
vt 0.330027 0.446379
vt 0.330027 0.000198
vt 0.404390 0.446379
vt 0.330027 0.446379
vt 0.404391 0.000198
vt 0.018838 0.489052
vt 0.093202 0.507643
vt 0.018838 0.507643
vt 0.093202 0.489052
vt 0.093202 0.507643
vt 0.018838 0.489052
vt 0.093202 0.489052
vt 0.104356 0.500207
vt 0.093202 0.507643
vt 0.111793 0.489052
vt 0.104356 0.500207
vt 0.093202 0.489052
vt 0.018838 0.489052
vt 0.093202 0.507643
vt 0.018838 0.507643
vt 0.093202 0.489052
vt 0.093202 0.507643
vt 0.018838 0.489052
vt 0.093202 0.489052
vt 0.104356 0.500207
vt 0.093202 0.507643
vt 0.111793 0.489052
vt 0.104356 0.500207
vt 0.093202 0.489052
vt 0.000247 0.489052
vt 0.018838 0.507643
vt 0.007684 0.500207
vt 0.018838 0.489052
vt 0.018838 0.507643
vt 0.000247 0.489052
vt 0.000247 0.489052
vt 0.018838 0.507643
vt 0.007684 0.500207
vt 0.018838 0.489052
vt 0.018838 0.507643
vt 0.000247 0.489052
vt 0.431203 0.000198
vt 0.417797 0.446379
vt 0.417797 0.000198
vt 0.431203 0.446379
vt 0.417797 0.446379
vt 0.431203 0.000198
vt 0.000198 0.446379
vt 0.303215 0.000198
vt 0.303215 0.446379
vt 0.000198 0.000198
vt 0.303215 0.000198
vt 0.000198 0.446379
vt 0.607024 0.711936
vt 0.737670 0.999802
vt 0.607024 0.999802
vt 0.737670 0.711936
vt 0.737670 0.999802
vt 0.607024 0.711936
vt 0.737670 0.288064
vt 0.607024 0.000198
vt 0.737670 0.000198
vt 0.607024 0.288064
vt 0.607024 0.000198
vt 0.737670 0.288064
vt 0.607024 0.711936
vt 0.737670 0.288064
vt 0.737670 0.711936
vt 0.607024 0.288064
vt 0.737670 0.288064
vt 0.607024 0.711936
vt 0.288114 0.500360
vt 0.000247 0.489052
vt 0.303265 0.489052
vt 0.000247 0.500360
vt 0.000247 0.489052
vt 0.288114 0.500360
vt 0.288115 0.500360
vt 0.000248 0.489052
vt 0.303265 0.489052
vt 0.000248 0.500360
vt 0.000248 0.489052
vt 0.288115 0.500360
vt 0.435326 0.507106
vt 0.000297 0.491841
vt 0.446480 0.491842
vt 0.011451 0.507106
vt 0.000297 0.491841
vt 0.435326 0.507106
vt 0.000248 0.500360
vt 0.303265 0.489052
vt 0.000248 0.489052
vt 0.288114 0.500360
vt 0.303265 0.489052
vt 0.000248 0.500360
vt 0.000247 0.500360
vt 0.303264 0.489052
vt 0.000247 0.489052
vt 0.288114 0.500360
vt 0.303264 0.489052
vt 0.000247 0.500360
vt 0.623311 0.357995
vt 0.679714 0.989399
vt 0.623311 0.989399
vt 0.679715 0.357995
vt 0.679714 0.989399
vt 0.623311 0.357995
vt 0.623311 0.357995
vt 0.679715 0.989399
vt 0.623312 0.989399
vt 0.679715 0.357995
vt 0.679715 0.989399
vt 0.623311 0.357995
vt 0.679715 0.035207
vt 0.623312 0.989399
vt 0.623312 0.035207
vt 0.679714 0.989399
vt 0.623312 0.989399
vt 0.679715 0.035207
vt 0.499999 0.534480
vt 0.028019 0.562379
vt 0.028019 0.534480
vt 0.499999 0.562379
vt 0.028019 0.562379
vt 0.499999 0.534480
vt 0.028020 -0.000000
vt 0.340336 0.471980
vt 0.028019 0.471980
vt 0.340336 0.000000
vt 0.340336 0.471980
vt 0.028020 -0.000000
vt 0.028020 0.472101
vt 0.340336 0.000121
vt 0.340336 0.472101
vt 0.028019 0.000121
vt 0.340336 0.000121
vt 0.028020 0.472101
vt 0.679714 0.989399
vt 0.608686 0.357995
vt 0.679713 0.357995
vt 0.608687 0.989399
vt 0.608686 0.357995
vt 0.679714 0.989399
vt 0.679714 0.989399
vt 0.608686 0.357995
vt 0.679713 0.357995
vt 0.608687 0.989399
vt 0.608686 0.357995
vt 0.679714 0.989399
vt 0.608687 0.989399
vt 0.679714 0.114260
vt 0.679714 0.989399
vt 0.608686 0.114260
vt 0.679714 0.114260
vt 0.608687 0.989399
vt 0.028019 0.562379
vt 0.460897 0.527246
vt 0.460897 0.562379
vt 0.028019 0.527246
vt 0.460897 0.527246
vt 0.028019 0.562379
vt 0.527836 0.471980
vt 0.215519 0.039102
vt 0.527835 0.039102
vt 0.215519 0.471980
vt 0.215519 0.039102
vt 0.527836 0.471980
vt 0.340336 0.000120
vt 0.028020 0.432998
vt 0.028019 0.000121
vt 0.340337 0.432998
vt 0.028020 0.432998
vt 0.340336 0.000120
vt 0.316621 0.000198
vt 0.303215 0.446379
vt 0.303215 0.000198
vt 0.316621 0.446379
vt 0.303215 0.446379
vt 0.316621 0.000198
vt 0.417797 0.000198
vt 0.404390 0.446379
vt 0.404391 0.000198
vt 0.417797 0.446379
vt 0.404390 0.446379
vt 0.417797 0.000198
vt 0.000198 0.000198
vt 0.303215 0.446379
vt 0.303215 0.000198
vt 0.000198 0.446379
vt 0.303215 0.446379
vt 0.000198 0.000198
vt 0.084680 0.469232
vt 0.530862 0.487823
vt 0.084680 0.487822
vt 0.530862 0.469232
vt 0.530862 0.487823
vt 0.084680 0.469232
vt 0.387646 0.466443
vt 0.084629 0.485034
vt 0.084629 0.466443
vt 0.387646 0.485033
vt 0.084629 0.485034
vt 0.387646 0.466443
vt 0.387647 0.466442
vt 0.084629 0.485034
vt 0.084629 0.466443
vt 0.387647 0.485034
vt 0.084629 0.485034
vt 0.387647 0.466442
vt 0.387646 0.485033
vt 0.084629 0.466442
vt 0.084629 0.485033
vt 0.387646 0.466442
vt 0.084629 0.466442
vt 0.387646 0.485033
vt 0.519707 0.503087
vt 0.084680 0.487822
vt 0.530862 0.487823
vt 0.095835 0.503087
vt 0.084680 0.487822
vt 0.519707 0.503087
vt 0.387646 0.485034
vt 0.084629 0.466442
vt 0.084629 0.485033
vt 0.387646 0.466443
vt 0.084629 0.466442
vt 0.387646 0.485034
vt 0.105079 0.473879
vt 0.177583 0.485034
vt 0.103220 0.485034
vt 0.175724 0.473879
vt 0.177583 0.485034
vt 0.105079 0.473879
vt 0.530862 0.487823
vt 0.084678 0.469232
vt 0.530862 0.469232
vt 0.084678 0.487823
vt 0.084678 0.469232
vt 0.530862 0.487823
vt 0.105079 0.473879
vt 0.177583 0.485034
vt 0.103220 0.485034
vt 0.175724 0.473879
vt 0.177583 0.485034
vt 0.105079 0.473879
vt 0.330027 0.000198
vt 0.316621 0.446379
vt 0.316621 0.000198
vt 0.330027 0.446379
vt 0.316621 0.446379
vt 0.330027 0.000198
vt 0.404391 0.000198
vt 0.330027 0.446379
vt 0.330027 0.000198
vt 0.404390 0.446379
vt 0.330027 0.446379
vt 0.404391 0.000198
vt 0.103220 0.485034
vt 0.177583 0.503624
vt 0.103220 0.503624
vt 0.177583 0.485034
vt 0.177583 0.503624
vt 0.103220 0.485034
vt 0.177583 0.485034
vt 0.188738 0.496188
vt 0.177583 0.503624
vt 0.196174 0.485034
vt 0.188738 0.496188
vt 0.177583 0.485034
vt 0.103220 0.485034
vt 0.177583 0.503624
vt 0.103220 0.503624
vt 0.177583 0.485034
vt 0.177583 0.503624
vt 0.103220 0.485034
vt 0.177583 0.485034
vt 0.188738 0.496188
vt 0.177583 0.503624
vt 0.196174 0.485034
vt 0.188738 0.496188
vt 0.177583 0.485034
vt 0.084629 0.485034
vt 0.103220 0.503624
vt 0.092065 0.496188
vt 0.103220 0.485034
vt 0.103220 0.503624
vt 0.084629 0.485034
vt 0.084629 0.485034
vt 0.103220 0.503624
vt 0.092065 0.496188
vt 0.103220 0.485034
vt 0.103220 0.503624
vt 0.084629 0.485034
vt 0.431203 0.000198
vt 0.417797 0.446379
vt 0.417797 0.000198
vt 0.431203 0.446379
vt 0.417797 0.446379
vt 0.431203 0.000198
vt 0.000198 0.000198
vt 0.303215 0.446379
vt 0.303215 0.000198
vt 0.000198 0.446379
vt 0.303215 0.446379
vt 0.000198 0.000198
vt 0.607024 0.711936
vt 0.737670 0.999802
vt 0.607024 0.999802
vt 0.737670 0.711936
vt 0.737670 0.999802
vt 0.607024 0.711936
vt 0.737670 0.288064
vt 0.607024 0.000198
vt 0.737670 0.000198
vt 0.607024 0.288064
vt 0.607024 0.000198
vt 0.737670 0.288064
vt 0.607024 0.711936
vt 0.737670 0.288064
vt 0.737670 0.711936
vt 0.607024 0.288064
vt 0.737670 0.288064
vt 0.607024 0.711936
vt 0.372496 0.496342
vt 0.084629 0.485034
vt 0.387646 0.485033
vt 0.084629 0.496342
vt 0.084629 0.485034
vt 0.372496 0.496342
vt 0.372496 0.496342
vt 0.084629 0.485034
vt 0.387647 0.485034
vt 0.084629 0.496342
vt 0.084629 0.485034
vt 0.372496 0.496342
vt 0.519707 0.503088
vt 0.084678 0.487823
vt 0.530862 0.487823
vt 0.095832 0.503087
vt 0.084678 0.487823
vt 0.519707 0.503088
vt 0.084629 0.496342
vt 0.387646 0.485034
vt 0.084629 0.485033
vt 0.372496 0.496342
vt 0.387646 0.485034
vt 0.084629 0.496342
vt 0.084629 0.496342
vt 0.387646 0.485033
vt 0.084629 0.485033
vt 0.372495 0.496341
vt 0.387646 0.485033
vt 0.084629 0.496342
vt 0.316621 0.000198
vt 0.303215 0.446379
vt 0.303215 0.000198
vt 0.316621 0.446379
vt 0.303215 0.446379
vt 0.316621 0.000198
vt 0.417797 0.000198
vt 0.404390 0.446379
vt 0.404391 0.000198
vt 0.417797 0.446379
vt 0.404390 0.446379
vt 0.417797 0.000198
vt 0.000198 0.446379
vt 0.303215 0.000198
vt 0.303215 0.446379
vt 0.000198 0.000198
vt 0.303215 0.000198
vt 0.000198 0.446379
vt 0.458313 0.000250
vt 0.439722 0.446431
vt 0.439722 0.000250
vt 0.458312 0.446431
vt 0.439722 0.446431
vt 0.458313 0.000250
vt 0.461102 0.303216
vt 0.442511 0.000198
vt 0.461102 0.000198
vt 0.442511 0.303216
vt 0.442511 0.000198
vt 0.461102 0.303216
vt 0.461102 0.303216
vt 0.442511 0.000198
vt 0.461102 0.000198
vt 0.442511 0.303216
vt 0.442511 0.000198
vt 0.461102 0.303216
vt 0.442511 0.303215
vt 0.461102 0.000198
vt 0.442511 0.000198
vt 0.461102 0.303215
vt 0.461102 0.000198
vt 0.442511 0.303215
vt 0.424457 0.435277
vt 0.439722 0.000250
vt 0.439722 0.446431
vt 0.424457 0.011404
vt 0.439722 0.000250
vt 0.424457 0.435277
vt 0.442511 0.303215
vt 0.461102 0.000198
vt 0.442511 0.000198
vt 0.461102 0.303215
vt 0.461102 0.000198
vt 0.442511 0.303215
vt 0.453666 0.020648
vt 0.442511 0.093153
vt 0.442511 0.018789
vt 0.453666 0.091293
vt 0.442511 0.093153
vt 0.453666 0.020648
vt 0.439721 0.446431
vt 0.458312 0.000247
vt 0.458312 0.446431
vt 0.439722 0.000247
vt 0.458312 0.000247
vt 0.439721 0.446431
vt 0.453666 0.020648
vt 0.442511 0.093153
vt 0.442511 0.018789
vt 0.453666 0.091293
vt 0.442511 0.093153
vt 0.453666 0.020648
vt 0.330027 0.000198
vt 0.316621 0.446379
vt 0.316621 0.000198
vt 0.330027 0.446379
vt 0.316621 0.446379
vt 0.330027 0.000198
vt 0.404391 0.000198
vt 0.330027 0.446379
vt 0.330027 0.000198
vt 0.404390 0.446379
vt 0.330027 0.446379
vt 0.404391 0.000198
vt 0.442511 0.018789
vt 0.423920 0.093153
vt 0.423920 0.018789
vt 0.442511 0.093153
vt 0.423920 0.093153
vt 0.442511 0.018789
vt 0.442511 0.093153
vt 0.431357 0.104307
vt 0.423920 0.093153
vt 0.442511 0.111743
vt 0.431357 0.104307
vt 0.442511 0.093153
vt 0.442511 0.018789
vt 0.423920 0.093153
vt 0.423920 0.018789
vt 0.442511 0.093153
vt 0.423920 0.093153
vt 0.442511 0.018789
vt 0.442511 0.093153
vt 0.431357 0.104307
vt 0.423920 0.093153
vt 0.442511 0.111743
vt 0.431357 0.104307
vt 0.442511 0.093153
vt 0.442511 0.000198
vt 0.423920 0.018789
vt 0.431356 0.007635
vt 0.442511 0.018789
vt 0.423920 0.018789
vt 0.442511 0.000198
vt 0.442511 0.000198
vt 0.423920 0.018789
vt 0.431357 0.007635
vt 0.442511 0.018789
vt 0.423920 0.018789
vt 0.442511 0.000198
vt 0.431203 0.000198
vt 0.417797 0.446379
vt 0.417797 0.000198
vt 0.431203 0.446379
vt 0.417797 0.446379
vt 0.431203 0.000198
vt 0.000198 0.446379
vt 0.303215 0.000198
vt 0.303215 0.446379
vt 0.000198 0.000198
vt 0.303215 0.000198
vt 0.000198 0.446379
vt 0.607024 0.711936
vt 0.737670 0.999802
vt 0.607024 0.999802
vt 0.737670 0.711936
vt 0.737670 0.999802
vt 0.607024 0.711936
vt 0.737670 0.288064
vt 0.607024 0.000198
vt 0.737670 0.000198
vt 0.607024 0.288064
vt 0.607024 0.000198
vt 0.737670 0.288064
vt 0.607024 0.711936
vt 0.737670 0.288064
vt 0.737670 0.711936
vt 0.607024 0.288064
vt 0.737670 0.288064
vt 0.607024 0.711936
vt 0.431203 0.288065
vt 0.442511 0.000198
vt 0.442511 0.303216
vt 0.431203 0.000198
vt 0.442511 0.000198
vt 0.431203 0.288065
vt 0.431203 0.288065
vt 0.442511 0.000198
vt 0.442511 0.303216
vt 0.431203 0.000198
vt 0.442511 0.000198
vt 0.431203 0.288065
vt 0.424457 0.435276
vt 0.439722 0.000247
vt 0.439721 0.446431
vt 0.424458 0.011402
vt 0.439722 0.000247
vt 0.424457 0.435276
vt 0.431203 0.000198
vt 0.442511 0.303215
vt 0.442511 0.000198
vt 0.431203 0.288065
vt 0.442511 0.303215
vt 0.431203 0.000198
vt 0.431203 0.000198
vt 0.442511 0.303215
vt 0.442511 0.000198
vt 0.431203 0.288065
vt 0.442511 0.303215
vt 0.431203 0.000198
vt 0.316621 0.000198
vt 0.303215 0.446379
vt 0.303215 0.000198
vt 0.316621 0.446379
vt 0.303215 0.446379
vt 0.316621 0.000198
vt 0.417797 0.000198
vt 0.404390 0.446379
vt 0.404391 0.000198
vt 0.417797 0.446379
vt 0.404390 0.446379
vt 0.417797 0.000198
vt 0.000198 0.000198
vt 0.303215 0.446379
vt 0.303215 0.000198
vt 0.000198 0.446379
vt 0.303215 0.446379
vt 0.000198 0.000198
vt 0.079798 0.480950
vt 0.525979 0.499541
vt 0.079798 0.499541
vt 0.525979 0.480951
vt 0.525979 0.499541
vt 0.079798 0.480950
vt 0.382764 0.478161
vt 0.079746 0.496752
vt 0.079746 0.478161
vt 0.382764 0.496752
vt 0.079746 0.496752
vt 0.382764 0.478161
vt 0.382764 0.478161
vt 0.079747 0.496752
vt 0.079747 0.478161
vt 0.382764 0.496752
vt 0.079747 0.496752
vt 0.382764 0.478161
vt 0.382763 0.496752
vt 0.079746 0.478161
vt 0.079746 0.496752
vt 0.382763 0.478161
vt 0.079746 0.478161
vt 0.382763 0.496752
vt 0.514825 0.514806
vt 0.079798 0.499541
vt 0.525979 0.499541
vt 0.090952 0.514806
vt 0.079798 0.499541
vt 0.514825 0.514806
vt 0.382763 0.496752
vt 0.079746 0.478161
vt 0.079746 0.496752
vt 0.382763 0.478161
vt 0.079746 0.478161
vt 0.382763 0.496752
vt 0.100196 0.485598
vt 0.172701 0.496752
vt 0.098337 0.496752
vt 0.170842 0.485598
vt 0.172701 0.496752
vt 0.100196 0.485598
vt 0.525979 0.499542
vt 0.079795 0.480951
vt 0.525979 0.480951
vt 0.079795 0.499542
vt 0.079795 0.480951
vt 0.525979 0.499542
vt 0.100196 0.485598
vt 0.172701 0.496752
vt 0.098337 0.496752
vt 0.170841 0.485598
vt 0.172701 0.496752
vt 0.100196 0.485598
vt 0.330027 0.000198
vt 0.316621 0.446379
vt 0.316621 0.000198
vt 0.330027 0.446379
vt 0.316621 0.446379
vt 0.330027 0.000198
vt 0.404391 0.000198
vt 0.330027 0.446379
vt 0.330027 0.000198
vt 0.404390 0.446379
vt 0.330027 0.446379
vt 0.404391 0.000198
vt 0.098337 0.496752
vt 0.172701 0.515343
vt 0.098337 0.515343
vt 0.172701 0.496752
vt 0.172701 0.515343
vt 0.098337 0.496752
vt 0.172701 0.496752
vt 0.183855 0.507907
vt 0.172701 0.515343
vt 0.191291 0.496752
vt 0.183855 0.507907
vt 0.172701 0.496752
vt 0.098337 0.496752
vt 0.172701 0.515343
vt 0.098337 0.515343
vt 0.172701 0.496752
vt 0.172701 0.515343
vt 0.098337 0.496752
vt 0.172701 0.496752
vt 0.183855 0.507907
vt 0.172701 0.515343
vt 0.191291 0.496752
vt 0.183855 0.507907
vt 0.172701 0.496752
vt 0.079746 0.496752
vt 0.098337 0.515343
vt 0.087183 0.507907
vt 0.098337 0.496752
vt 0.098337 0.515343
vt 0.079746 0.496752
vt 0.079746 0.496752
vt 0.098337 0.515343
vt 0.087183 0.507907
vt 0.098337 0.496752
vt 0.098337 0.515343
vt 0.079746 0.496752
vt 0.431203 0.000198
vt 0.417797 0.446379
vt 0.417797 0.000198
vt 0.431203 0.446379
vt 0.417797 0.446379
vt 0.431203 0.000198
vt 0.000198 0.000198
vt 0.303215 0.446379
vt 0.303215 0.000198
vt 0.000198 0.446379
vt 0.303215 0.446379
vt 0.000198 0.000198
vt 0.607024 0.711936
vt 0.737670 0.999802
vt 0.607024 0.999802
vt 0.737670 0.711936
vt 0.737670 0.999802
vt 0.607024 0.711936
vt 0.737670 0.288064
vt 0.607024 0.000198
vt 0.737670 0.000198
vt 0.607024 0.288064
vt 0.607024 0.000198
vt 0.737670 0.288064
vt 0.607024 0.711936
vt 0.737670 0.288064
vt 0.737670 0.711936
vt 0.607024 0.288064
vt 0.737670 0.288064
vt 0.607024 0.711936
vt 0.367613 0.508060
vt 0.079746 0.496752
vt 0.382764 0.496752
vt 0.079746 0.508061
vt 0.079746 0.496752
vt 0.367613 0.508060
vt 0.367613 0.508060
vt 0.079747 0.496752
vt 0.382764 0.496752
vt 0.079747 0.508061
vt 0.079747 0.496752
vt 0.367613 0.508060
vt 0.514825 0.514807
vt 0.079795 0.499542
vt 0.525979 0.499542
vt 0.090950 0.514806
vt 0.079795 0.499542
vt 0.514825 0.514807
vt 0.079746 0.508061
vt 0.382763 0.496752
vt 0.079746 0.496752
vt 0.367613 0.508060
vt 0.382763 0.496752
vt 0.079746 0.508061
vt 0.079746 0.508061
vt 0.382763 0.496752
vt 0.079746 0.496752
vt 0.367613 0.508060
vt 0.382763 0.496752
vt 0.079746 0.508061

vn 0.000000 0.000000 1.000000
vn 0.000000 0.000000 1.000000
vn 0.000000 0.000000 1.000000
vn 0.000000 0.000000 1.000000
vn 0.000000 0.000000 1.000000
vn 0.000000 0.000000 1.000000
vn 0.000000 -1.000000 0.000000
vn 0.000000 -1.000000 0.000000
vn 0.000000 -1.000000 0.000000
vn 0.000000 -1.000000 0.000000
vn 0.000000 -1.000000 0.000000
vn 0.000000 -1.000000 0.000000
vn -1.000000 -0.000000 0.000000
vn -1.000000 -0.000000 0.000000
vn -1.000000 -0.000000 0.000000
vn -1.000000 -0.000000 0.000000
vn -1.000000 -0.000000 0.000000
vn -1.000000 -0.000000 0.000000
vn -0.000000 -0.000000 -1.000000
vn -0.000000 -0.000000 -1.000000
vn -0.000000 -0.000000 -1.000000
vn -0.000000 -0.000000 -1.000000
vn -0.000000 -0.000000 -1.000000
vn -0.000000 -0.000000 -1.000000
vn 1.000000 0.000000 -0.000000
vn 1.000000 0.000000 -0.000000
vn 1.000000 0.000000 -0.000000
vn 1.000000 0.000000 0.000000
vn 1.000000 0.000000 0.000000
vn 1.000000 0.000000 0.000000
vn -0.000000 1.000000 0.000000
vn -0.000000 1.000000 0.000000
vn -0.000000 1.000000 0.000000
vn -0.000000 1.000000 0.000000
vn -0.000000 1.000000 0.000000
vn -0.000000 1.000000 0.000000
vn -1.000000 -0.000000 -0.000000
vn -1.000000 -0.000000 -0.000000
vn -1.000000 -0.000000 -0.000000
vn -0.000000 1.000000 0.000000
vn -0.000000 1.000000 0.000000
vn -0.000000 1.000000 0.000000
vn -0.000000 1.000000 0.000000
vn -0.000000 1.000000 0.000000
vn -0.000000 1.000000 0.000000
vn 1.000000 0.000000 0.000000
vn 1.000000 0.000000 0.000000
vn 1.000000 0.000000 0.000000
vn 0.000001 -1.000000 -0.000000
vn 0.000001 -1.000000 -0.000000
vn 0.000001 -1.000000 -0.000000
vn 0.000001 -1.000000 -0.000000
vn 0.000001 -1.000000 -0.000000
vn 0.000001 -1.000000 -0.000000
vn 1.000000 0.000000 -0.000000
vn 1.000000 0.000000 -0.000000
vn 1.000000 0.000000 -0.000000
vn -0.000000 0.371391 -0.928477
vn -0.000000 0.371391 -0.928477
vn -0.000000 0.371391 -0.928477
vn -0.000000 0.371391 -0.928477
vn -0.000000 0.371391 -0.928477
vn -0.000000 0.371391 -0.928477
vn -0.000000 -0.000000 -1.000000
vn -0.000000 -0.000000 -1.000000
vn -0.000000 -0.000000 -1.000000
vn 0.000000 0.000000 -1.000000
vn 0.000000 0.000000 -1.000000
vn 0.000000 0.000000 -1.000000
vn -0.000000 1.000000 0.000000
vn -0.000000 1.000000 0.000000
vn -0.000000 1.000000 0.000000
vn -0.000000 1.000000 0.000000
vn -0.000000 1.000000 0.000000
vn -0.000000 1.000000 0.000000
vn -1.000000 -0.000000 0.000000
vn -1.000000 -0.000000 0.000000
vn -1.000000 -0.000000 0.000000
vn 0.000001 -1.000000 -0.000000
vn 0.000001 -1.000000 -0.000000
vn 0.000001 -1.000000 -0.000000
vn 0.000001 -1.000000 -0.000000
vn 0.000001 -1.000000 -0.000000
vn 0.000001 -1.000000 -0.000000
vn -0.000000 0.371391 -0.928477
vn -0.000000 0.371391 -0.928477
vn -0.000000 0.371391 -0.928477
vn -0.000000 0.371390 -0.928477
vn -0.000000 0.371390 -0.928477
vn -0.000000 0.371390 -0.928477
vn -0.000000 -0.000000 -1.000000
vn -0.000000 -0.000000 -1.000000
vn -0.000000 -0.000000 -1.000000
vn -0.000000 0.000000 -1.000000
vn -0.000000 0.000000 -1.000000
vn -0.000000 0.000000 -1.000000
vn -0.000000 1.000000 0.000000
vn -0.000000 1.000000 0.000000
vn -0.000000 1.000000 0.000000
vn -0.000000 1.000000 0.000000
vn -0.000000 1.000000 0.000000
vn -0.000000 1.000000 0.000000
vn 0.000000 -1.000000 -0.000000
vn 0.000000 -1.000000 -0.000000
vn 0.000000 -1.000000 -0.000000
vn -0.000000 -1.000000 -0.000000
vn -0.000000 -1.000000 -0.000000
vn -0.000000 -1.000000 -0.000000
vn -0.000000 1.000000 0.000000
vn -0.000000 1.000000 0.000000
vn -0.000000 1.000000 0.000000
vn -0.000000 1.000000 0.000000
vn -0.000000 1.000000 0.000000
vn -0.000000 1.000000 0.000000
vn -0.000000 0.000000 1.000000
vn -0.000000 0.000000 1.000000
vn -0.000000 0.000000 1.000000
vn -0.000000 0.000000 1.000000
vn -0.000000 0.000000 1.000000
vn -0.000000 0.000000 1.000000
vn 1.000000 0.000000 0.000000
vn 1.000000 0.000000 0.000000
vn 1.000000 0.000000 0.000000
vn 1.000000 0.000000 0.000000
vn 1.000000 0.000000 0.000000
vn 1.000000 0.000000 0.000000
vn -1.000000 -0.000000 0.000000
vn -1.000000 -0.000000 0.000000
vn -1.000000 -0.000000 0.000000
vn -1.000000 -0.000000 -0.000000
vn -1.000000 -0.000000 -0.000000
vn -1.000000 -0.000000 -0.000000
vn 0.000002 -1.000000 -0.000000
vn 0.000002 -1.000000 -0.000000
vn 0.000002 -1.000000 -0.000000
vn 0.000001 -1.000000 -0.000000
vn 0.000001 -1.000000 -0.000000
vn 0.000001 -1.000000 -0.000000
vn 0.000000 0.000000 1.000000
vn 0.000000 0.000000 1.000000
vn 0.000000 0.000000 1.000000
vn -0.000000 0.000000 1.000000
vn -0.000000 0.000000 1.000000
vn -0.000000 0.000000 1.000000
vn 1.000000 0.000000 0.000000
vn 1.000000 0.000000 0.000000
vn 1.000000 0.000000 0.000000
vn 1.000000 0.000000 0.000000
vn 1.000000 0.000000 0.000000
vn 1.000000 0.000000 0.000000
vn -1.000000 -0.000000 0.000000
vn -1.000000 -0.000000 0.000000
vn -1.000000 -0.000000 0.000000
vn -1.000000 -0.000000 -0.000000
vn -1.000000 -0.000000 -0.000000
vn -1.000000 -0.000000 -0.000000
vn -1.000000 -0.000000 0.000000
vn -1.000000 -0.000000 0.000000
vn -1.000000 -0.000000 0.000000
vn -1.000000 -0.000000 0.000000
vn -1.000000 -0.000000 0.000000
vn -1.000000 -0.000000 0.000000
vn 1.000000 0.000000 0.000000
vn 1.000000 0.000000 0.000000
vn 1.000000 0.000000 0.000000
vn 1.000000 0.000000 -0.000000
vn 1.000000 0.000000 -0.000000
vn 1.000000 0.000000 -0.000000
vn 1.000000 0.000000 -0.000000
vn 1.000000 0.000000 -0.000000
vn 1.000000 0.000000 -0.000000
vn 1.000000 0.000000 0.000000
vn 1.000000 0.000000 0.000000
vn 1.000000 0.000000 0.000000
vn -1.000000 -0.000000 -0.000001
vn -1.000000 -0.000000 -0.000001
vn -1.000000 -0.000000 -0.000001
vn -1.000000 -0.000000 0.000000
vn -1.000000 -0.000000 0.000000
vn -1.000000 -0.000000 0.000000
vn -0.832051 0.554699 0.000000
vn -0.832051 0.554699 0.000000
vn -0.832051 0.554699 0.000000
vn -0.832052 0.554698 0.000000
vn -0.832052 0.554698 0.000000
vn -0.832052 0.554698 0.000000
vn 0.554700 0.832051 -0.000000
vn 0.554700 0.832051 -0.000000
vn 0.554700 0.832051 -0.000000
vn 0.554700 0.832051 0.000000
vn 0.554700 0.832051 0.000000
vn 0.554700 0.832051 0.000000
vn 1.000000 0.000000 -0.000000
vn 1.000000 0.000000 -0.000000
vn 1.000000 0.000000 -0.000000
vn 1.000000 0.000000 -0.000000
vn 1.000000 0.000000 -0.000000
vn 1.000000 0.000000 -0.000000
vn -0.000000 -1.000000 -0.000000
vn -0.000000 -1.000000 -0.000000
vn -0.000000 -1.000000 -0.000000
vn -0.000000 -1.000000 -0.000000
vn -0.000000 -1.000000 -0.000000
vn -0.000000 -1.000000 -0.000000
vn -0.000000 -0.000000 -1.000000
vn -0.000000 -0.000000 -1.000000
vn -0.000000 -0.000000 -1.000000
vn -0.000000 -0.000000 -1.000000
vn -0.000000 -0.000000 -1.000000
vn -0.000000 -0.000000 -1.000000
vn -0.000000 0.000000 1.000000
vn -0.000000 0.000000 1.000000
vn -0.000000 0.000000 1.000000
vn -0.000000 0.000000 1.000000
vn -0.000000 0.000000 1.000000
vn -0.000000 0.000000 1.000000
vn -0.000000 0.000000 1.000000
vn -0.000000 0.000000 1.000000
vn -0.000000 0.000000 1.000000
vn 0.000002 0.000000 1.000000
vn 0.000002 0.000000 1.000000
vn 0.000002 0.000000 1.000000
vn 0.992556 -0.121792 -0.000000
vn 0.992556 -0.121792 -0.000000
vn 0.992556 -0.121792 -0.000000
vn 0.992556 -0.121792 -0.000000
vn 0.992556 -0.121792 -0.000000
vn 0.992556 -0.121792 -0.000000
vn -0.000000 -0.000000 -1.000000
vn -0.000000 -0.000000 -1.000000
vn -0.000000 -0.000000 -1.000000
vn -0.000000 -0.000000 -1.000000
vn -0.000000 -0.000000 -1.000000
vn -0.000000 -0.000000 -1.000000
vn 0.000000 -1.000000 0.000000
vn 0.000000 -1.000000 0.000000
vn 0.000000 -1.000000 0.000000
vn 0.000000 -1.000000 -0.000000
vn 0.000000 -1.000000 -0.000000
vn 0.000000 -1.000000 -0.000000
vn -0.000000 -1.000000 -0.000000
vn -0.000000 -1.000000 -0.000000
vn -0.000000 -1.000000 -0.000000
vn -0.000000 -1.000000 -0.000000
vn -0.000000 -1.000000 -0.000000
vn -0.000000 -1.000000 -0.000000
vn 0.000000 -1.000000 0.000000
vn 0.000000 -1.000000 0.000000
vn 0.000000 -1.000000 0.000000
vn 0.000000 -1.000000 -0.000000
vn 0.000000 -1.000000 -0.000000
vn 0.000000 -1.000000 -0.000000
vn -0.554701 0.832050 0.000000
vn -0.554701 0.832050 0.000000
vn -0.554701 0.832050 0.000000
vn -0.554700 0.832050 0.000000
vn -0.554700 0.832050 0.000000
vn -0.554700 0.832050 0.000000
vn -0.000000 1.000000 0.000000
vn -0.000000 1.000000 0.000000
vn -0.000000 1.000000 0.000000
vn -0.000000 1.000000 0.000000
vn -0.000000 1.000000 0.000000
vn -0.000000 1.000000 0.000000
vn -0.000000 0.000000 -1.000000
vn -0.000000 0.000000 -1.000000
vn -0.000000 0.000000 -1.000000
vn -0.000000 0.000000 -1.000000
vn -0.000000 0.000000 -1.000000
vn -0.000000 0.000000 -1.000000
vn 0.000000 0.000000 -1.000000
vn 0.000000 0.000000 -1.000000
vn 0.000000 0.000000 -1.000000
vn 0.000000 0.000000 -1.000000
vn 0.000000 0.000000 -1.000000
vn 0.000000 0.000000 -1.000000
vn -0.000000 0.000000 1.000000
vn -0.000000 0.000000 1.000000
vn -0.000000 0.000000 1.000000
vn -0.000000 0.000000 1.000000
vn -0.000000 0.000000 1.000000
vn -0.000000 0.000000 1.000000
vn -0.000000 0.000000 1.000000
vn -0.000000 0.000000 1.000000
vn -0.000000 0.000000 1.000000
vn -0.000000 0.000005 1.000000
vn -0.000000 0.000005 1.000000
vn -0.000000 0.000005 1.000000
vn -0.000000 0.000000 1.000000
vn -0.000000 0.000000 1.000000
vn -0.000000 0.000000 1.000000
vn -0.000000 0.000000 1.000000
vn -0.000000 0.000000 1.000000
vn -0.000000 0.000000 1.000000
vn -0.000000 0.000001 -1.000000
vn -0.000000 0.000001 -1.000000
vn -0.000000 0.000001 -1.000000
vn 0.000000 -0.000000 -1.000000
vn 0.000000 -0.000000 -1.000000
vn 0.000000 -0.000000 -1.000000
vn 0.832050 0.554701 0.000000
vn 0.832050 0.554701 0.000000
vn 0.832050 0.554701 0.000000
vn 0.832050 0.554701 -0.000000
vn 0.832050 0.554701 -0.000000
vn 0.832050 0.554701 -0.000000
vn -1.000000 -0.000000 0.000000
vn -1.000000 -0.000000 0.000000
vn -1.000000 -0.000000 0.000000
vn -1.000000 -0.000000 0.000000
vn -1.000000 -0.000000 0.000000
vn -1.000000 -0.000000 0.000000
vn -0.000000 0.000000 1.000000
vn -0.000000 0.000000 1.000000
vn -0.000000 0.000000 1.000000
vn 0.000001 0.000000 1.000000
vn 0.000001 0.000000 1.000000
vn 0.000001 0.000000 1.000000
vn -0.000000 -0.000000 -1.000000
vn -0.000000 -0.000000 -1.000000
vn -0.000000 -0.000000 -1.000000
vn -0.000000 -0.000000 -1.000000
vn -0.000000 -0.000000 -1.000000
vn -0.000000 -0.000000 -1.000000
vn -0.000000 -1.000000 -0.000000
vn -0.000000 -1.000000 -0.000000
vn -0.000000 -1.000000 -0.000000
vn 0.000001 -1.000000 -0.000000
vn 0.000001 -1.000000 -0.000000
vn 0.000001 -1.000000 -0.000000
vn -0.986394 -0.000000 -0.164399
vn -0.986394 -0.000000 -0.164399
vn -0.986394 -0.000000 -0.164399
vn -0.986394 -0.000000 -0.164400
vn -0.986394 -0.000000 -0.164400
vn -0.986394 -0.000000 -0.164400
vn 0.986394 0.000000 0.164399
vn 0.986394 0.000000 0.164399
vn 0.986394 0.000000 0.164399
vn 0.986394 0.000000 0.164399
vn 0.986394 0.000000 0.164399
vn 0.986394 0.000000 0.164399
vn -0.992556 -0.121791 0.000000
vn -0.992556 -0.121791 0.000000
vn -0.992556 -0.121791 0.000000
vn -0.992556 -0.121792 0.000000
vn -0.992556 -0.121792 0.000000
vn -0.992556 -0.121792 0.000000
vn 0.986394 0.000000 -0.164399
vn 0.986394 0.000000 -0.164399
vn 0.986394 0.000000 -0.164399
vn 0.986394 0.000000 -0.164400
vn 0.986394 0.000000 -0.164400
vn 0.986394 0.000000 -0.164400
vn -0.986394 -0.000000 0.164399
vn -0.986394 -0.000000 0.164399
vn -0.986394 -0.000000 0.164399
vn -0.986394 -0.000000 0.164399
vn -0.986394 -0.000000 0.164399
vn -0.986394 -0.000000 0.164399
vn 0.000001 0.000000 1.000000
vn 0.000001 0.000000 1.000000
vn 0.000001 0.000000 1.000000
vn -0.000000 0.000000 1.000000
vn -0.000000 0.000000 1.000000
vn -0.000000 0.000000 1.000000
vn -0.000000 -0.000000 -1.000000
vn -0.000000 -0.000000 -1.000000
vn -0.000000 -0.000000 -1.000000
vn -0.000000 -0.000000 -1.000000
vn -0.000000 -0.000000 -1.000000
vn -0.000000 -0.000000 -1.000000
vn 0.000002 -1.000000 -0.000000
vn 0.000002 -1.000000 -0.000000
vn 0.000002 -1.000000 -0.000000
vn -0.000000 -1.000000 -0.000000
vn -0.000000 -1.000000 -0.000000
vn -0.000000 -1.000000 -0.000000
vn -0.000000 1.000000 0.000000
vn -0.000000 1.000000 0.000000
vn -0.000000 1.000000 0.000000
vn -0.000000 1.000000 0.000000
vn -0.000000 1.000000 0.000000
vn -0.000000 1.000000 0.000000
vn -1.000000 -0.000000 0.000000
vn -1.000000 -0.000000 0.000000
vn -1.000000 -0.000000 0.000000
vn -1.000000 -0.000000 0.000000
vn -1.000000 -0.000000 0.000000
vn -1.000000 -0.000000 0.000000
vn 1.000000 0.000000 -0.000000
vn 1.000000 0.000000 -0.000000
vn 1.000000 0.000000 -0.000000
vn 1.000000 0.000000 0.000000
vn 1.000000 0.000000 0.000000
vn 1.000000 0.000000 0.000000
vn -0.000000 0.000000 1.000000
vn -0.000000 0.000000 1.000000
vn -0.000000 0.000000 1.000000
vn -0.000000 0.000000 1.000000
vn -0.000000 0.000000 1.000000
vn -0.000000 0.000000 1.000000
vn -0.000000 -0.000000 -1.000000
vn -0.000000 -0.000000 -1.000000
vn -0.000000 -0.000000 -1.000000
vn -0.000000 -0.000000 -1.000000
vn -0.000000 -0.000000 -1.000000
vn -0.000000 -0.000000 -1.000000
vn -0.000000 -1.000000 -0.000000
vn -0.000000 -1.000000 -0.000000
vn -0.000000 -1.000000 -0.000000
vn -0.000000 -1.000000 -0.000000
vn -0.000000 -1.000000 -0.000000
vn -0.000000 -1.000000 -0.000000
vn -0.000000 1.000000 0.000000
vn -0.000000 1.000000 0.000000
vn -0.000000 1.000000 0.000000
vn -0.000000 1.000000 0.000000
vn -0.000000 1.000000 0.000000
vn -0.000000 1.000000 0.000000
vn -1.000000 -0.000000 0.000000
vn -1.000000 -0.000000 0.000000
vn -1.000000 -0.000000 0.000000
vn -1.000000 -0.000000 0.000000
vn -1.000000 -0.000000 0.000000
vn -1.000000 -0.000000 0.000000
vn 1.000000 0.000000 -0.000000
vn 1.000000 0.000000 -0.000000
vn 1.000000 0.000000 -0.000000
vn 1.000000 0.000000 -0.000000
vn 1.000000 0.000000 -0.000000
vn 1.000000 0.000000 -0.000000
vn -0.832051 0.554699 0.000000
vn -0.832051 0.554699 0.000000
vn -0.832051 0.554699 0.000000
vn -0.832051 0.554699 0.000000
vn -0.832051 0.554699 0.000000
vn -0.832051 0.554699 0.000000
vn 0.554699 0.832051 0.000000
vn 0.554699 0.832051 0.000000
vn 0.554699 0.832051 0.000000
vn 0.554699 0.832051 0.000000
vn 0.554699 0.832051 0.000000
vn 0.554699 0.832051 0.000000
vn 1.000000 0.000000 -0.000000
vn 1.000000 0.000000 -0.000000
vn 1.000000 0.000000 -0.000000
vn 1.000000 0.000000 -0.000000
vn 1.000000 0.000000 -0.000000
vn 1.000000 0.000000 -0.000000
vn -0.000000 -1.000000 -0.000000
vn -0.000000 -1.000000 -0.000000
vn -0.000000 -1.000000 -0.000000
vn -0.000000 -1.000000 -0.000000
vn -0.000000 -1.000000 -0.000000
vn -0.000000 -1.000000 -0.000000
vn -0.000000 -0.000000 -1.000000
vn -0.000000 -0.000000 -1.000000
vn -0.000000 -0.000000 -1.000000
vn -0.000000 -0.000000 -1.000000
vn -0.000000 -0.000000 -1.000000
vn -0.000000 -0.000000 -1.000000
vn -0.000000 0.000000 1.000000
vn -0.000000 0.000000 1.000000
vn -0.000000 0.000000 1.000000
vn -0.000000 0.000000 1.000000
vn -0.000000 0.000000 1.000000
vn -0.000000 0.000000 1.000000
vn -0.000000 0.000000 1.000000
vn -0.000000 0.000000 1.000000
vn -0.000000 0.000000 1.000000
vn -0.000000 0.000000 1.000000
vn -0.000000 0.000000 1.000000
vn -0.000000 0.000000 1.000000
vn 0.992556 -0.121791 -0.000000
vn 0.992556 -0.121791 -0.000000
vn 0.992556 -0.121791 -0.000000
vn 0.992556 -0.121792 -0.000000
vn 0.992556 -0.121792 -0.000000
vn 0.992556 -0.121792 -0.000000
vn -0.000000 -0.000000 -1.000000
vn -0.000000 -0.000000 -1.000000
vn -0.000000 -0.000000 -1.000000
vn -0.000000 -0.000000 -1.000000
vn -0.000000 -0.000000 -1.000000
vn -0.000000 -0.000000 -1.000000
vn 0.000000 -1.000000 0.000000
vn 0.000000 -1.000000 0.000000
vn 0.000000 -1.000000 0.000000
vn 0.000000 -1.000000 -0.000000
vn 0.000000 -1.000000 -0.000000
vn 0.000000 -1.000000 -0.000000
vn 0.000004 -1.000000 -0.000000
vn 0.000004 -1.000000 -0.000000
vn 0.000004 -1.000000 -0.000000
vn -0.000000 -1.000000 -0.000000
vn -0.000000 -1.000000 -0.000000
vn -0.000000 -1.000000 -0.000000
vn 0.000000 -1.000000 0.000000
vn 0.000000 -1.000000 0.000000
vn 0.000000 -1.000000 0.000000
vn 0.000000 -1.000000 -0.000000
vn 0.000000 -1.000000 -0.000000
vn 0.000000 -1.000000 -0.000000
vn -0.554701 0.832050 0.000000
vn -0.554701 0.832050 0.000000
vn -0.554701 0.832050 0.000000
vn -0.554701 0.832050 0.000000
vn -0.554701 0.832050 0.000000
vn -0.554701 0.832050 0.000000
vn -0.000000 1.000000 0.000000
vn -0.000000 1.000000 0.000000
vn -0.000000 1.000000 0.000000
vn -0.000000 1.000000 0.000000
vn -0.000000 1.000000 0.000000
vn -0.000000 1.000000 0.000000
vn -0.000000 0.000000 -1.000000
vn -0.000000 0.000000 -1.000000
vn -0.000000 0.000000 -1.000000
vn -0.000000 0.000000 -1.000000
vn -0.000000 0.000000 -1.000000
vn -0.000000 0.000000 -1.000000
vn -0.000000 0.000000 -1.000000
vn -0.000000 0.000000 -1.000000
vn -0.000000 0.000000 -1.000000
vn -0.000000 -0.000000 -1.000000
vn -0.000000 -0.000000 -1.000000
vn -0.000000 -0.000000 -1.000000
vn -0.000000 0.000000 1.000000
vn -0.000000 0.000000 1.000000
vn -0.000000 0.000000 1.000000
vn -0.000000 0.000000 1.000000
vn -0.000000 0.000000 1.000000
vn -0.000000 0.000000 1.000000
vn -0.000000 0.000000 1.000000
vn -0.000000 0.000000 1.000000
vn -0.000000 0.000000 1.000000
vn -0.000000 0.000000 1.000000
vn -0.000000 0.000000 1.000000
vn -0.000000 0.000000 1.000000
vn -0.000000 0.000015 1.000000
vn -0.000000 0.000015 1.000000
vn -0.000000 0.000015 1.000000
vn -0.000000 0.000000 1.000000
vn -0.000000 0.000000 1.000000
vn -0.000000 0.000000 1.000000
vn -0.000000 0.000000 -1.000000
vn -0.000000 0.000000 -1.000000
vn -0.000000 0.000000 -1.000000
vn -0.000000 0.000000 -1.000000
vn -0.000000 0.000000 -1.000000
vn -0.000000 0.000000 -1.000000
vn 0.832051 0.554700 -0.000000
vn 0.832051 0.554700 -0.000000
vn 0.832051 0.554700 -0.000000
vn 0.832051 0.554700 0.000000
vn 0.832051 0.554700 0.000000
vn 0.832051 0.554700 0.000000
vn -1.000000 -0.000000 0.000000
vn -1.000000 -0.000000 0.000000
vn -1.000000 -0.000000 0.000000
vn -1.000000 -0.000000 0.000000
vn -1.000000 -0.000000 0.000000
vn -1.000000 -0.000000 0.000000
vn -0.000000 0.000000 1.000000
vn -0.000000 0.000000 1.000000
vn -0.000000 0.000000 1.000000
vn -0.000000 0.000000 1.000000
vn -0.000000 0.000000 1.000000
vn -0.000000 0.000000 1.000000
vn -0.000000 -0.000000 -1.000000
vn -0.000000 -0.000000 -1.000000
vn -0.000000 -0.000000 -1.000000
vn -0.000000 -0.000000 -1.000000
vn -0.000000 -0.000000 -1.000000
vn -0.000000 -0.000000 -1.000000
vn 0.000001 -1.000000 -0.000000
vn 0.000001 -1.000000 -0.000000
vn 0.000001 -1.000000 -0.000000
vn -0.000000 -1.000000 -0.000000
vn -0.000000 -1.000000 -0.000000
vn -0.000000 -1.000000 -0.000000
vn -0.986394 -0.000000 -0.164397
vn -0.986394 -0.000000 -0.164397
vn -0.986394 -0.000000 -0.164397
vn -0.986394 -0.000000 -0.164400
vn -0.986394 -0.000000 -0.164400
vn -0.986394 -0.000000 -0.164400
vn 0.986394 0.000000 0.164397
vn 0.986394 0.000000 0.164397
vn 0.986394 0.000000 0.164397
vn 0.986394 0.000000 0.164399
vn 0.986394 0.000000 0.164399
vn 0.986394 0.000000 0.164399
vn -0.992556 -0.121791 0.000000
vn -0.992556 -0.121791 0.000000
vn -0.992556 -0.121791 0.000000
vn -0.992556 -0.121792 0.000000
vn -0.992556 -0.121792 0.000000
vn -0.992556 -0.121792 0.000000
vn 0.986394 0.000000 -0.164398
vn 0.986394 0.000000 -0.164398
vn 0.986394 0.000000 -0.164398
vn 0.986394 0.000000 -0.164400
vn 0.986394 0.000000 -0.164400
vn 0.986394 0.000000 -0.164400
vn -0.986394 -0.000000 0.164396
vn -0.986394 -0.000000 0.164396
vn -0.986394 -0.000000 0.164396
vn -0.986394 -0.000000 0.164397
vn -0.986394 -0.000000 0.164397
vn -0.986394 -0.000000 0.164397
vn -0.869440 0.485387 0.092056
vn -0.869440 0.485387 0.092056
vn -0.869440 0.485387 0.092056
vn -0.869440 0.485387 0.092055
vn -0.869440 0.485387 0.092055
vn -0.869440 0.485387 0.092055
vn 0.621481 0.780661 -0.065802
vn 0.621481 0.780661 -0.065802
vn 0.621481 0.780661 -0.065802
vn 0.621482 0.780660 -0.065802
vn 0.621482 0.780660 -0.065802
vn 0.621482 0.780660 -0.065802
vn 0.994442 0.000000 -0.105291
vn 0.994442 0.000000 -0.105291
vn 0.994442 0.000000 -0.105291
vn 0.994441 0.000000 -0.105291
vn 0.994441 0.000000 -0.105291
vn 0.994441 0.000000 -0.105291
vn -0.000000 -1.000000 -0.000000
vn -0.000000 -1.000000 -0.000000
vn -0.000000 -1.000000 -0.000000
vn -0.000003 -1.000000 -0.000000
vn -0.000003 -1.000000 -0.000000
vn -0.000003 -1.000000 -0.000000
vn -0.105291 -0.000000 -0.994441
vn -0.105291 -0.000000 -0.994441
vn -0.105291 -0.000000 -0.994441
vn -0.105291 -0.000000 -0.994441
vn -0.105291 -0.000000 -0.994441
vn -0.105291 -0.000000 -0.994441
vn 0.105288 0.000000 0.994442
vn 0.105288 0.000000 0.994442
vn 0.105288 0.000000 0.994442
vn 0.105288 0.000000 0.994442
vn 0.105288 0.000000 0.994442
vn 0.105288 0.000000 0.994442
vn 0.105291 0.000000 0.994442
vn 0.105291 0.000000 0.994442
vn 0.105291 0.000000 0.994442
vn 0.105291 0.000000 0.994441
vn 0.105291 0.000000 0.994441
vn 0.105291 0.000000 0.994441
vn 0.989290 -0.101655 -0.104745
vn 0.989290 -0.101655 -0.104745
vn 0.989290 -0.101655 -0.104745
vn 0.989290 -0.101655 -0.104745
vn 0.989290 -0.101655 -0.104745
vn 0.989290 -0.101655 -0.104745
vn -0.105291 -0.000000 -0.994441
vn -0.105291 -0.000000 -0.994441
vn -0.105291 -0.000000 -0.994441
vn -0.105290 -0.000000 -0.994442
vn -0.105290 -0.000000 -0.994442
vn -0.105290 -0.000000 -0.994442
vn 0.000000 -1.000000 0.000000
vn 0.000000 -1.000000 0.000000
vn 0.000000 -1.000000 0.000000
vn 0.000000 -1.000000 -0.000000
vn 0.000000 -1.000000 -0.000000
vn 0.000000 -1.000000 -0.000000
vn 0.000003 -1.000000 -0.000000
vn 0.000003 -1.000000 -0.000000
vn 0.000003 -1.000000 -0.000000
vn -0.000003 -1.000000 -0.000000
vn -0.000003 -1.000000 -0.000000
vn -0.000003 -1.000000 -0.000000
vn 0.000000 -1.000000 0.000000
vn 0.000000 -1.000000 0.000000
vn 0.000000 -1.000000 0.000000
vn 0.000001 -1.000000 -0.000000
vn 0.000001 -1.000000 -0.000000
vn 0.000001 -1.000000 -0.000000
vn -0.621482 0.780660 0.065802
vn -0.621482 0.780660 0.065802
vn -0.621482 0.780660 0.065802
vn -0.621482 0.780660 0.065802
vn -0.621482 0.780660 0.065802
vn -0.621482 0.780660 0.065802
vn -0.000000 1.000000 0.000000
vn -0.000000 1.000000 0.000000
vn -0.000000 1.000000 0.000000
vn -0.000000 1.000000 0.000000
vn -0.000000 1.000000 0.000000
vn -0.000000 1.000000 0.000000
vn -0.105291 -0.000001 -0.994442
vn -0.105291 -0.000001 -0.994442
vn -0.105291 -0.000001 -0.994442
vn -0.105290 0.000000 -0.994442
vn -0.105290 0.000000 -0.994442
vn -0.105290 0.000000 -0.994442
vn -0.105290 0.000000 -0.994442
vn -0.105290 0.000000 -0.994442
vn -0.105290 0.000000 -0.994442
vn -0.105291 -0.000001 -0.994442
vn -0.105291 -0.000001 -0.994442
vn -0.105291 -0.000001 -0.994442
vn 0.105290 0.000000 0.994441
vn 0.105290 0.000000 0.994441
vn 0.105290 0.000000 0.994441
vn 0.105291 0.000000 0.994441
vn 0.105291 0.000000 0.994441
vn 0.105291 0.000000 0.994441
vn 0.105291 0.000004 0.994442
vn 0.105291 0.000004 0.994442
vn 0.105291 0.000004 0.994442
vn 0.105291 0.000000 0.994441
vn 0.105291 0.000000 0.994441
vn 0.105291 0.000000 0.994441
vn 0.105298 -0.000012 0.994441
vn 0.105298 -0.000012 0.994441
vn 0.105298 -0.000012 0.994441
vn 0.105288 0.000005 0.994442
vn 0.105288 0.000005 0.994442
vn 0.105288 0.000005 0.994442
vn -0.105290 0.000000 -0.994442
vn -0.105290 0.000000 -0.994442
vn -0.105290 0.000000 -0.994442
vn -0.105291 0.000000 -0.994441
vn -0.105291 0.000000 -0.994441
vn -0.105291 0.000000 -0.994441
vn 0.869439 0.485388 -0.092055
vn 0.869439 0.485388 -0.092055
vn 0.869439 0.485388 -0.092055
vn 0.869439 0.485388 -0.092055
vn 0.869439 0.485388 -0.092055
vn 0.869439 0.485388 -0.092055
vn -0.994441 -0.000000 0.105291
vn -0.994441 -0.000000 0.105291
vn -0.994441 -0.000000 0.105291
vn -0.994441 -0.000000 0.105291
vn -0.994441 -0.000000 0.105291
vn -0.994441 -0.000000 0.105291
vn 0.105290 0.000000 0.994442
vn 0.105290 0.000000 0.994442
vn 0.105290 0.000000 0.994442
vn 0.105290 0.000000 0.994442
vn 0.105290 0.000000 0.994442
vn 0.105290 0.000000 0.994442
vn -0.105290 -0.000000 -0.994441
vn -0.105290 -0.000000 -0.994441
vn -0.105290 -0.000000 -0.994441
vn -0.105290 -0.000000 -0.994442
vn -0.105290 -0.000000 -0.994442
vn -0.105290 -0.000000 -0.994442
vn 0.000001 -1.000000 -0.000000
vn 0.000001 -1.000000 -0.000000
vn 0.000001 -1.000000 -0.000000
vn 0.000001 -1.000000 -0.000000
vn 0.000001 -1.000000 -0.000000
vn 0.000001 -1.000000 -0.000000
vn -0.999474 -0.000000 -0.032421
vn -0.999474 -0.000000 -0.032421
vn -0.999474 -0.000000 -0.032421
vn -0.999474 -0.000000 -0.032421
vn -0.999474 -0.000000 -0.032421
vn -0.999474 -0.000000 -0.032421
vn 0.999474 0.000000 0.032420
vn 0.999474 0.000000 0.032420
vn 0.999474 0.000000 0.032420
vn 0.999474 0.000000 0.032420
vn 0.999474 0.000000 0.032420
vn 0.999474 0.000000 0.032420
vn -0.989290 -0.101655 0.104745
vn -0.989290 -0.101655 0.104745
vn -0.989290 -0.101655 0.104745
vn -0.989290 -0.101655 0.104745
vn -0.989290 -0.101655 0.104745
vn -0.989290 -0.101655 0.104745
vn 0.970524 0.000000 -0.241004
vn 0.970524 0.000000 -0.241004
vn 0.970524 0.000000 -0.241004
vn 0.970525 0.000000 -0.241002
vn 0.970525 0.000000 -0.241002
vn 0.970525 0.000000 -0.241002
vn -0.970525 -0.000000 0.241001
vn -0.970525 -0.000000 0.241001
vn -0.970525 -0.000000 0.241001
vn -0.970524 -0.000000 0.241003
vn -0.970524 -0.000000 0.241003
vn -0.970524 -0.000000 0.241003
vn -0.929148 0.352948 -0.110052
vn -0.929148 0.352948 -0.110052
vn -0.929148 0.352948 -0.110052
vn -0.929148 0.352949 -0.110052
vn -0.929148 0.352949 -0.110052
vn -0.929148 0.352949 -0.110052
vn 0.757111 0.647102 0.089676
vn 0.757111 0.647102 0.089676
vn 0.757111 0.647102 0.089676
vn 0.757113 0.647099 0.089676
vn 0.757113 0.647099 0.089676
vn 0.757113 0.647099 0.089676
vn 0.993058 0.000000 0.117622
vn 0.993058 0.000000 0.117622
vn 0.993058 0.000000 0.117622
vn 0.993058 0.000000 0.117622
vn 0.993058 0.000000 0.117622
vn 0.993058 0.000000 0.117622
vn -0.000000 -1.000000 -0.000000
vn -0.000000 -1.000000 -0.000000
vn -0.000000 -1.000000 -0.000000
vn -0.000000 -1.000000 -0.000000
vn -0.000000 -1.000000 -0.000000
vn -0.000000 -1.000000 -0.000000
vn 0.117622 -0.000000 -0.993058
vn 0.117622 -0.000000 -0.993058
vn 0.117622 -0.000000 -0.993058
vn 0.117622 -0.000000 -0.993058
vn 0.117622 -0.000000 -0.993058
vn 0.117622 -0.000000 -0.993058
vn -0.117631 0.000000 0.993057
vn -0.117631 0.000000 0.993057
vn -0.117631 0.000000 0.993057
vn -0.117632 -0.000000 0.993057
vn -0.117632 -0.000000 0.993057
vn -0.117632 -0.000000 0.993057
vn -0.117611 0.000000 0.993060
vn -0.117611 0.000000 0.993060
vn -0.117611 0.000000 0.993060
vn -0.117611 0.000000 0.993060
vn -0.117611 0.000000 0.993060
vn -0.117611 0.000000 0.993060
vn 0.990673 -0.069266 0.117340
vn 0.990673 -0.069266 0.117340
vn 0.990673 -0.069266 0.117340
vn 0.990673 -0.069265 0.117339
vn 0.990673 -0.069265 0.117339
vn 0.990673 -0.069265 0.117339
vn 0.117622 -0.000000 -0.993058
vn 0.117622 -0.000000 -0.993058
vn 0.117622 -0.000000 -0.993058
vn 0.117622 -0.000000 -0.993058
vn 0.117622 -0.000000 -0.993058
vn 0.117622 -0.000000 -0.993058
vn 0.000000 -1.000000 0.000000
vn 0.000000 -1.000000 0.000000
vn 0.000000 -1.000000 0.000000
vn -0.000000 -1.000000 0.000000
vn -0.000000 -1.000000 0.000000
vn -0.000000 -1.000000 0.000000
vn -0.000009 -1.000000 0.000000
vn -0.000009 -1.000000 0.000000
vn -0.000009 -1.000000 0.000000
vn -0.000000 -1.000000 -0.000000
vn -0.000000 -1.000000 -0.000000
vn -0.000000 -1.000000 -0.000000
vn -0.000000 -1.000000 0.000000
vn -0.000000 -1.000000 0.000000
vn -0.000000 -1.000000 0.000000
vn 0.000001 -1.000000 0.000000
vn 0.000001 -1.000000 0.000000
vn 0.000001 -1.000000 0.000000
vn -0.757115 0.647098 -0.089676
vn -0.757115 0.647098 -0.089676
vn -0.757115 0.647098 -0.089676
vn -0.757114 0.647099 -0.089676
vn -0.757114 0.647099 -0.089676
vn -0.757114 0.647099 -0.089676
vn -0.000001 1.000000 0.000000
vn -0.000001 1.000000 0.000000
vn -0.000001 1.000000 0.000000
vn 0.000000 1.000000 0.000000
vn 0.000000 1.000000 0.000000
vn 0.000000 1.000000 0.000000
vn 0.117622 0.000000 -0.993058
vn 0.117622 0.000000 -0.993058
vn 0.117622 0.000000 -0.993058
vn 0.117622 0.000000 -0.993058
vn 0.117622 0.000000 -0.993058
vn 0.117622 0.000000 -0.993058
vn 0.117623 0.000000 -0.993058
vn 0.117623 0.000000 -0.993058
vn 0.117623 0.000000 -0.993058
vn 0.117622 0.000000 -0.993058
vn 0.117622 0.000000 -0.993058
vn 0.117622 0.000000 -0.993058
vn -0.117620 0.000000 0.993059
vn -0.117620 0.000000 0.993059
vn -0.117620 0.000000 0.993059
vn -0.117621 0.000000 0.993059
vn -0.117621 0.000000 0.993059
vn -0.117621 0.000000 0.993059
vn -0.117619 0.000000 0.993059
vn -0.117619 0.000000 0.993059
vn -0.117619 0.000000 0.993059
vn -0.117611 0.000000 0.993060
vn -0.117611 0.000000 0.993060
vn -0.117611 0.000000 0.993060
vn -0.117630 0.000000 0.993057
vn -0.117630 0.000000 0.993057
vn -0.117630 0.000000 0.993057
vn -0.117632 0.000000 0.993057
vn -0.117632 0.000000 0.993057
vn -0.117632 0.000000 0.993057
vn 0.117623 0.000001 -0.993058
vn 0.117623 0.000001 -0.993058
vn 0.117623 0.000001 -0.993058
vn 0.117622 0.000000 -0.993058
vn 0.117622 0.000000 -0.993058
vn 0.117622 0.000000 -0.993058
vn 0.929148 0.352947 0.110052
vn 0.929148 0.352947 0.110052
vn 0.929148 0.352947 0.110052
vn 0.929147 0.352951 0.110052
vn 0.929147 0.352951 0.110052
vn 0.929147 0.352951 0.110052
vn -0.993058 -0.000000 -0.117622
vn -0.993058 -0.000000 -0.117622
vn -0.993058 -0.000000 -0.117622
vn -0.993058 -0.000000 -0.117622
vn -0.993058 -0.000000 -0.117622
vn -0.993058 -0.000000 -0.117622
vn -0.117624 -0.000000 0.993058
vn -0.117624 -0.000000 0.993058
vn -0.117624 -0.000000 0.993058
vn -0.117623 0.000000 0.993058
vn -0.117623 0.000000 0.993058
vn -0.117623 0.000000 0.993058
vn 0.117622 -0.000000 -0.993058
vn 0.117622 -0.000000 -0.993058
vn 0.117622 -0.000000 -0.993058
vn 0.117622 -0.000000 -0.993059
vn 0.117622 -0.000000 -0.993059
vn 0.117622 -0.000000 -0.993059
vn -0.000000 -1.000000 -0.000000
vn -0.000000 -1.000000 -0.000000
vn -0.000000 -1.000000 -0.000000
vn -0.000000 -1.000000 -0.000000
vn -0.000000 -1.000000 -0.000000
vn -0.000000 -1.000000 -0.000000
vn -0.979932 -0.000000 -0.199331
vn -0.979932 -0.000000 -0.199331
vn -0.979932 -0.000000 -0.199331
vn -0.979932 -0.000000 -0.199332
vn -0.979932 -0.000000 -0.199332
vn -0.979932 -0.000000 -0.199332
vn 0.979933 0.000000 0.199327
vn 0.979933 0.000000 0.199327
vn 0.979933 0.000000 0.199327
vn 0.979932 0.000000 0.199331
vn 0.979932 0.000000 0.199331
vn 0.979932 0.000000 0.199331
vn -0.990673 -0.069264 -0.117340
vn -0.990673 -0.069264 -0.117340
vn -0.990673 -0.069264 -0.117340
vn -0.990673 -0.069266 -0.117340
vn -0.990673 -0.069266 -0.117340
vn -0.990673 -0.069266 -0.117340
vn 0.999384 0.000000 0.035107
vn 0.999384 0.000000 0.035107
vn 0.999384 0.000000 0.035107
vn 0.999384 0.000000 0.035110
vn 0.999384 0.000000 0.035110
vn 0.999384 0.000000 0.035110
vn -0.999383 -0.000000 -0.035110
vn -0.999383 -0.000000 -0.035110
vn -0.999383 -0.000000 -0.035110
vn -0.999384 -0.000000 -0.035110
vn -0.999384 -0.000000 -0.035110
vn -0.999384 -0.000000 -0.035110

g Material
f 3/1/1 1/2/2 2/3/3
f 4/4/4 1/5/5 3/6/6
f 7/7/7 5/8/8 6/9/9
f 8/10/10 5/11/11 7/12/12
f 11/13/13 9/14/14 10/15/15
f 12/16/16 9/17/17 11/18/18
f 15/19/19 13/20/20 14/21/21
f 16/22/22 13/23/23 15/24/24
f 19/25/25 17/26/26 18/27/27
f 20/28/28 17/29/29 19/30/30
f 23/31/31 21/32/32 22/33/33
f 24/34/34 21/35/35 23/36/36
f 27/37/37 25/38/38 26/39/39
f 30/40/40 28/41/41 29/42/42
f 31/43/43 28/44/44 30/45/45
f 34/46/46 32/47/47 33/48/48
f 37/49/49 35/50/50 36/51/51
f 38/52/52 35/53/53 37/54/54
f 41/55/55 39/56/56 40/57/57
f 44/58/58 42/59/59 43/60/60
f 45/61/61 42/62/62 44/63/63
f 48/64/64 46/65/65 47/66/66
f 49/67/67 46/68/68 48/69/69
f 52/70/70 50/71/71 51/72/72
f 53/73/73 50/74/74 52/75/75
f 56/76/76 54/77/77 55/78/78
f 59/79/79 57/80/80 58/81/81
f 60/82/82 57/83/83 59/84/84
f 63/85/85 61/86/86 62/87/87
f 64/88/88 61/89/89 63/90/90
f 67/91/91 65/92/92 66/93/93
f 68/94/94 65/95/95 67/96/96
f 71/97/97 69/98/98 70/99/99
f 72/100/100 69/101/101 71/102/102
f 75/103/103 73/104/104 74/105/105
f 76/106/106 73/107/107 75/108/108
f 79/109/109 77/110/110 78/111/111
f 80/112/112 77/113/113 79/114/114
f 83/115/115 81/116/116 82/117/117
f 84/118/118 81/119/119 83/120/120
f 87/121/121 85/122/122 86/123/123
f 88/124/124 85/125/125 87/126/126
f 91/127/127 89/128/128 90/129/129
f 92/130/130 89/131/131 91/132/132
f 95/133/133 93/134/134 94/135/135
f 96/136/136 93/137/137 95/138/138
f 99/139/139 97/140/140 98/141/141
f 100/142/142 97/143/143 99/144/144
f 103/145/145 101/146/146 102/147/147
f 104/148/148 101/149/149 103/150/150
f 107/151/151 105/152/152 106/153/153
f 108/154/154 105/155/155 107/156/156
f 639/157/157 637/158/158 638/159/159
f 642/160/160 640/161/161 641/162/162
f 645/163/163 643/164/164 644/165/165
f 648/166/166 646/167/167 647/168/168
f 651/169/169 649/170/170 650/171/171
f 654/172/172 652/173/173 653/174/174
f 657/175/175 655/176/176 656/177/177
f 660/178/178 658/179/179 659/180/180

g Material.001
f 111/181/181 109/182/182 110/183/183
f 112/184/184 109/185/185 111/186/186
f 115/187/187 113/188/188 114/189/189
f 116/190/190 113/191/191 115/192/192
f 119/193/193 117/194/194 118/195/195
f 120/196/196 117/197/197 119/198/198
f 123/199/199 121/200/200 122/201/201
f 124/202/202 121/203/203 123/204/204
f 127/205/205 125/206/206 126/207/207
f 128/208/208 125/209/209 127/210/210
f 131/211/211 129/212/212 130/213/213
f 132/214/214 129/215/215 131/216/216
f 135/217/217 133/218/218 134/219/219
f 136/220/220 133/221/221 135/222/222
f 139/223/223 137/224/224 138/225/225
f 140/226/226 137/227/227 139/228/228
f 143/229/229 141/230/230 142/231/231
f 144/232/232 141/233/233 143/234/234
f 147/235/235 145/236/236 146/237/237
f 148/238/238 145/239/239 147/240/240
f 151/241/241 149/242/242 150/243/243
f 152/244/244 149/245/245 151/246/246
f 155/247/247 153/248/248 154/249/249
f 156/250/250 153/251/251 155/252/252
f 159/253/253 157/254/254 158/255/255
f 160/256/256 157/257/257 159/258/258
f 163/259/259 161/260/260 162/261/261
f 164/262/262 161/263/263 163/264/264
f 167/265/265 165/266/266 166/267/267
f 168/268/268 165/269/269 167/270/270
f 171/271/271 169/272/272 170/273/273
f 172/274/274 169/275/275 171/276/276
f 175/277/277 173/278/278 174/279/279
f 176/280/280 173/281/281 175/282/282
f 179/283/283 177/284/284 178/285/285
f 180/286/286 177/287/287 179/288/288
f 183/289/289 181/290/290 182/291/291
f 184/292/292 181/293/293 183/294/294
f 187/295/295 185/296/296 186/297/297
f 188/298/298 185/299/299 187/300/300
f 191/301/301 189/302/302 190/303/303
f 192/304/304 189/305/305 191/306/306
f 195/307/307 193/308/308 194/309/309
f 196/310/310 193/311/311 195/312/312
f 199/313/313 197/314/314 198/315/315
f 200/316/316 197/317/317 199/318/318
f 203/319/319 201/320/320 202/321/321
f 204/322/322 201/323/323 203/324/324
f 207/325/325 205/326/326 206/327/327
f 208/328/328 205/329/329 207/330/330
f 211/331/331 209/332/332 210/333/333
f 212/334/334 209/335/335 211/336/336
f 215/337/337 213/338/338 214/339/339
f 216/340/340 213/341/341 215/342/342
f 219/343/343 217/344/344 218/345/345
f 220/346/346 217/347/347 219/348/348
f 223/349/349 221/350/350 222/351/351
f 224/352/352 221/353/353 223/354/354
f 227/355/355 225/356/356 226/357/357
f 228/358/358 225/359/359 227/360/360

g Material.005
f 231/361/361 229/362/362 230/363/363
f 232/364/364 229/365/365 231/366/366
f 235/367/367 233/368/368 234/369/369
f 236/370/370 233/371/371 235/372/372
f 239/373/373 237/374/374 238/375/375
f 240/376/376 237/377/377 239/378/378
f 243/379/379 241/380/380 242/381/381
f 244/382/382 241/383/383 243/384/384
f 247/385/385 245/386/386 246/387/387
f 248/388/388 245/389/389 247/390/390
f 251/391/391 249/392/392 250/393/393
f 252/394/394 249/395/395 251/396/396
f 255/397/397 253/398/398 254/399/399
f 256/400/400 253/401/401 255/402/402
f 259/403/403 257/404/404 258/405/405
f 260/406/406 257/407/407 259/408/408
f 263/409/409 261/410/410 262/411/411
f 264/412/412 261/413/413 263/414/414
f 267/415/415 265/416/416 266/417/417
f 268/418/418 265/419/419 267/420/420
f 271/421/421 269/422/422 270/423/423
f 272/424/424 269/425/425 271/426/426
f 275/427/427 273/428/428 274/429/429
f 276/430/430 273/431/431 275/432/432

g Material.002
f 279/433/433 277/434/434 278/435/435
f 280/436/436 277/437/437 279/438/438
f 283/439/439 281/440/440 282/441/441
f 284/442/442 281/443/443 283/444/444
f 287/445/445 285/446/446 286/447/447
f 288/448/448 285/449/449 287/450/450
f 291/451/451 289/452/452 290/453/453
f 292/454/454 289/455/455 291/456/456
f 295/457/457 293/458/458 294/459/459
f 296/460/460 293/461/461 295/462/462
f 299/463/463 297/464/464 298/465/465
f 300/466/466 297/467/467 299/468/468
f 303/469/469 301/470/470 302/471/471
f 304/472/472 301/473/473 303/474/474
f 307/475/475 305/476/476 306/477/477
f 308/478/478 305/479/479 307/480/480
f 311/481/481 309/482/482 310/483/483
f 312/484/484 309/485/485 311/486/486
f 315/487/487 313/488/488 314/489/489
f 316/490/490 313/491/491 315/492/492
f 319/493/493 317/494/494 318/495/495
f 320/496/496 317/497/497 319/498/498
f 323/499/499 321/500/500 322/501/501
f 324/502/502 321/503/503 323/504/504
f 327/505/505 325/506/506 326/507/507
f 328/508/508 325/509/509 327/510/510
f 331/511/511 329/512/512 330/513/513
f 332/514/514 329/515/515 331/516/516
f 335/517/517 333/518/518 334/519/519
f 336/520/520 333/521/521 335/522/522
f 339/523/523 337/524/524 338/525/525
f 340/526/526 337/527/527 339/528/528
f 343/529/529 341/530/530 342/531/531
f 344/532/532 341/533/533 343/534/534
f 347/535/535 345/536/536 346/537/537
f 348/538/538 345/539/539 347/540/540
f 351/541/541 349/542/542 350/543/543
f 352/544/544 349/545/545 351/546/546
f 355/547/547 353/548/548 354/549/549
f 356/550/550 353/551/551 355/552/552
f 359/553/553 357/554/554 358/555/555
f 360/556/556 357/557/557 359/558/558
f 363/559/559 361/560/560 362/561/561
f 364/562/562 361/563/563 363/564/564
f 367/565/565 365/566/566 366/567/567
f 368/568/568 365/569/569 367/570/570
f 371/571/571 369/572/572 370/573/573
f 372/574/574 369/575/575 371/576/576
f 375/577/577 373/578/578 374/579/579
f 376/580/580 373/581/581 375/582/582
f 379/583/583 377/584/584 378/585/585
f 380/586/586 377/587/587 379/588/588
f 383/589/589 381/590/590 382/591/591
f 384/592/592 381/593/593 383/594/594
f 387/595/595 385/596/596 386/597/597
f 388/598/598 385/599/599 387/600/600
f 391/601/601 389/602/602 390/603/603
f 392/604/604 389/605/605 391/606/606
f 395/607/607 393/608/608 394/609/609
f 396/610/610 393/611/611 395/612/612

g Material.003
f 399/613/613 397/614/614 398/615/615
f 400/616/616 397/617/617 399/618/618
f 403/619/619 401/620/620 402/621/621
f 404/622/622 401/623/623 403/624/624
f 407/625/625 405/626/626 406/627/627
f 408/628/628 405/629/629 407/630/630
f 411/631/631 409/632/632 410/633/633
f 412/634/634 409/635/635 411/636/636
f 415/637/637 413/638/638 414/639/639
f 416/640/640 413/641/641 415/642/642
f 419/643/643 417/644/644 418/645/645
f 420/646/646 417/647/647 419/648/648
f 423/649/649 421/650/650 422/651/651
f 424/652/652 421/653/653 423/654/654
f 427/655/655 425/656/656 426/657/657
f 428/658/658 425/659/659 427/660/660
f 431/661/661 429/662/662 430/663/663
f 432/664/664 429/665/665 431/666/666
f 435/667/667 433/668/668 434/669/669
f 436/670/670 433/671/671 435/672/672
f 439/673/673 437/674/674 438/675/675
f 440/676/676 437/677/677 439/678/678
f 443/679/679 441/680/680 442/681/681
f 444/682/682 441/683/683 443/684/684
f 447/685/685 445/686/686 446/687/687
f 448/688/688 445/689/689 447/690/690
f 451/691/691 449/692/692 450/693/693
f 452/694/694 449/695/695 451/696/696
f 455/697/697 453/698/698 454/699/699
f 456/700/700 453/701/701 455/702/702
f 459/703/703 457/704/704 458/705/705
f 460/706/706 457/707/707 459/708/708
f 463/709/709 461/710/710 462/711/711
f 464/712/712 461/713/713 463/714/714
f 467/715/715 465/716/716 466/717/717
f 468/718/718 465/719/719 467/720/720
f 471/721/721 469/722/722 470/723/723
f 472/724/724 469/725/725 471/726/726
f 475/727/727 473/728/728 474/729/729
f 476/730/730 473/731/731 475/732/732
f 479/733/733 477/734/734 478/735/735
f 480/736/736 477/737/737 479/738/738
f 483/739/739 481/740/740 482/741/741
f 484/742/742 481/743/743 483/744/744
f 487/745/745 485/746/746 486/747/747
f 488/748/748 485/749/749 487/750/750
f 491/751/751 489/752/752 490/753/753
f 492/754/754 489/755/755 491/756/756
f 495/757/757 493/758/758 494/759/759
f 496/760/760 493/761/761 495/762/762
f 499/763/763 497/764/764 498/765/765
f 500/766/766 497/767/767 499/768/768
f 503/769/769 501/770/770 502/771/771
f 504/772/772 501/773/773 503/774/774
f 507/775/775 505/776/776 506/777/777
f 508/778/778 505/779/779 507/780/780
f 511/781/781 509/782/782 510/783/783
f 512/784/784 509/785/785 511/786/786
f 515/787/787 513/788/788 514/789/789
f 516/790/790 513/791/791 515/792/792

g Material.004
f 519/793/793 517/794/794 518/795/795
f 520/796/796 517/797/797 519/798/798
f 523/799/799 521/800/800 522/801/801
f 524/802/802 521/803/803 523/804/804
f 527/805/805 525/806/806 526/807/807
f 528/808/808 525/809/809 527/810/810
f 531/811/811 529/812/812 530/813/813
f 532/814/814 529/815/815 531/816/816
f 535/817/817 533/818/818 534/819/819
f 536/820/820 533/821/821 535/822/822
f 539/823/823 537/824/824 538/825/825
f 540/826/826 537/827/827 539/828/828
f 543/829/829 541/830/830 542/831/831
f 544/832/832 541/833/833 543/834/834
f 547/835/835 545/836/836 546/837/837
f 548/838/838 545/839/839 547/840/840
f 551/841/841 549/842/842 550/843/843
f 552/844/844 549/845/845 551/846/846
f 555/847/847 553/848/848 554/849/849
f 556/850/850 553/851/851 555/852/852
f 559/853/853 557/854/854 558/855/855
f 560/856/856 557/857/857 559/858/858
f 563/859/859 561/860/860 562/861/861
f 564/862/862 561/863/863 563/864/864
f 567/865/865 565/866/866 566/867/867
f 568/868/868 565/869/869 567/870/870
f 571/871/871 569/872/872 570/873/873
f 572/874/874 569/875/875 571/876/876
f 575/877/877 573/878/878 574/879/879
f 576/880/880 573/881/881 575/882/882
f 579/883/883 577/884/884 578/885/885
f 580/886/886 577/887/887 579/888/888
f 583/889/889 581/890/890 582/891/891
f 584/892/892 581/893/893 583/894/894
f 587/895/895 585/896/896 586/897/897
f 588/898/898 585/899/899 587/900/900
f 591/901/901 589/902/902 590/903/903
f 592/904/904 589/905/905 591/906/906
f 595/907/907 593/908/908 594/909/909
f 596/910/910 593/911/911 595/912/912
f 599/913/913 597/914/914 598/915/915
f 600/916/916 597/917/917 599/918/918
f 603/919/919 601/920/920 602/921/921
f 604/922/922 601/923/923 603/924/924
f 607/925/925 605/926/926 606/927/927
f 608/928/928 605/929/929 607/930/930
f 611/931/931 609/932/932 610/933/933
f 612/934/934 609/935/935 611/936/936
f 615/937/937 613/938/938 614/939/939
f 616/940/940 613/941/941 615/942/942
f 619/943/943 617/944/944 618/945/945
f 620/946/946 617/947/947 619/948/948
f 623/949/949 621/950/950 622/951/951
f 624/952/952 621/953/953 623/954/954
f 627/955/955 625/956/956 626/957/957
f 628/958/958 625/959/959 627/960/960
f 631/961/961 629/962/962 630/963/963
f 632/964/964 629/965/965 631/966/966
f 635/967/967 633/968/968 634/969/969
f 636/970/970 633/971/971 635/972/972

