# Converted from B3D for Luanti (With Correct Normals)
# Object Name: multidecor_dark_pine_glass_door_open

v 1.000000 -1.000000 1.650000
v 1.000000 -1.000000 1.850000
v -1.000000 -1.000000 1.850000
v -1.000000 -1.000000 1.650000
v -1.000000 -1.000000 1.650000
v -1.000000 -1.000000 1.850000
v -1.000000 3.000000 1.850000
v -1.000000 3.000000 1.650000
v 1.000000 3.000000 1.850000
v 1.000000 3.000000 1.650000
v -1.000000 3.000000 1.650000
v -1.000000 3.000000 1.850000
v 1.000000 3.000000 1.850000
v 1.000000 -1.000000 1.850000
v 1.000000 -1.000000 1.650000
v 1.000000 3.000000 1.650000
v -0.650000 0.500000 1.750000
v -0.650000 0.500000 1.650000
v 0.640000 0.500000 1.650000
v 0.640000 0.500000 1.750000
v -0.650000 2.650000 1.650000
v -0.650000 2.650000 1.750000
v 0.640000 2.650000 1.750000
v 0.640000 2.650000 1.650000
v -0.650000 0.500000 1.850000
v -0.650000 0.500000 1.750000
v -0.650000 2.650000 1.750000
v -0.650000 2.650000 1.850000
v 0.640000 2.650000 1.650000
v 0.640000 2.650000 1.750000
v 0.640000 0.500000 1.750000
v 0.640000 0.500000 1.650000
v -0.650000 2.650000 1.750000
v 0.640000 2.650000 1.750000
v 0.640000 2.650000 1.850000
v -0.650000 2.650000 1.850000
v 0.640000 2.650000 1.750000
v 0.640000 0.500000 1.750000
v 0.640000 0.500000 1.850000
v 0.640000 2.650000 1.850000
v 0.640000 0.500000 1.850000
v 0.640000 0.500000 1.750000
v -0.650000 0.500000 1.750000
v -0.650000 0.500000 1.850000
v -0.650000 2.650000 1.650000
v -0.650000 0.500000 1.650000
v -0.650000 0.500000 1.750000
v -0.650000 2.650000 1.750000
v -0.945000 0.745423 1.570000
v -0.705000 0.745423 1.570000
v -0.825000 0.625423 1.570000
v -0.825000 0.865424 1.570000
v -0.909853 0.830276 1.650000
v -0.825000 0.865424 1.650000
v -0.909853 0.830276 1.570000
v -0.909853 0.830276 1.650000
v -0.825000 0.865424 1.570000
v -0.945000 0.745423 1.570000
v -0.909853 0.660571 1.650000
v -0.945000 0.745423 1.650000
v -0.909853 0.660571 1.570000
v -0.909853 0.660571 1.650000
v -0.945000 0.745423 1.570000
v -0.825000 0.625423 1.570000
v -0.740147 0.660571 1.650000
v -0.825000 0.625423 1.650000
v -0.740147 0.660571 1.570000
v -0.740147 0.660571 1.650000
v -0.825000 0.625423 1.570000
v -0.705000 0.745423 1.570000
v -0.740147 0.830276 1.650000
v -0.705000 0.745423 1.650000
v -0.740147 0.830276 1.570000
v -0.740147 0.830276 1.650000
v -0.705000 0.745423 1.570000
v -0.909853 0.830276 1.570000
v -0.945000 0.745423 1.650000
v -0.909853 0.830276 1.650000
v -0.945000 0.745423 1.570000
v -0.945000 0.745423 1.650000
v -0.909853 0.830276 1.570000
v -0.909853 0.660571 1.570000
v -0.825000 0.625423 1.650000
v -0.909853 0.660571 1.650000
v -0.825000 0.625423 1.570000
v -0.825000 0.625423 1.650000
v -0.909853 0.660571 1.570000
v -0.740147 0.660571 1.570000
v -0.705000 0.745423 1.650000
v -0.740147 0.660571 1.650000
v -0.705000 0.745423 1.570000
v -0.705000 0.745423 1.650000
v -0.740147 0.660571 1.570000
v -0.740147 0.830276 1.570000
v -0.825000 0.865424 1.650000
v -0.740147 0.830276 1.650000
v -0.825000 0.865424 1.570000
v -0.825000 0.865424 1.650000
v -0.740147 0.830276 1.570000
v -0.485603 0.804820 1.570000
v -0.485603 0.686026 1.502908
v -0.485603 0.804820 1.502908
v -0.485603 0.686026 1.570000
v -0.485603 0.686026 1.502908
v -0.485603 0.804820 1.570000
v -0.485603 0.686026 1.570000
v -0.884397 0.804820 1.570000
v -0.884397 0.686027 1.570000
v -0.485603 0.804820 1.570000
v -0.884397 0.804820 1.570000
v -0.485603 0.686026 1.570000
v -0.485603 0.686026 1.502908
v -0.884397 0.686027 1.570000
v -0.884397 0.686027 1.502908
v -0.485603 0.686026 1.570000
v -0.884397 0.686027 1.570000
v -0.485603 0.686026 1.502908
v -0.884397 0.686027 1.502908
v -0.884397 0.804820 1.570000
v -0.884397 0.804820 1.502908
v -0.884397 0.686027 1.570000
v -0.884397 0.804820 1.570000
v -0.884397 0.686027 1.502908
v -0.884397 0.686027 1.502908
v -0.485603 0.804820 1.502908
v -0.485603 0.686026 1.502908
v -0.884397 0.804820 1.502908
v -0.485603 0.804820 1.502908
v -0.884397 0.686027 1.502908
v -0.884397 0.804820 1.570000
v -0.485603 0.804820 1.502908
v -0.884397 0.804820 1.502908
v -0.485603 0.804820 1.570000
v -0.485603 0.804820 1.502908
v -0.884397 0.804820 1.570000
v -0.825000 0.865424 1.570000
v -0.945000 0.745423 1.570000
v -0.909853 0.830276 1.570000
v -0.945000 0.745423 1.570000
v -0.825000 0.865424 1.570000
v -0.740147 0.830276 1.570000
v -0.945000 0.745423 1.570000
v -0.740147 0.830276 1.570000
v -0.705000 0.745423 1.570000
v -0.825000 0.625423 1.570000
v -0.705000 0.745423 1.570000
v -0.740147 0.660571 1.570000
v -0.945000 0.745423 1.570000
v -0.825000 0.625423 1.570000
v -0.909853 0.660571 1.570000
v -0.825000 0.625423 1.930000
v -0.705000 0.745423 1.930000
v -0.945000 0.745423 1.930000
v -0.825000 0.865424 1.930000
v -0.909853 0.830276 1.850000
v -0.909853 0.830276 1.930000
v -0.825000 0.865424 1.850000
v -0.909853 0.830276 1.850000
v -0.825000 0.865424 1.930000
v -0.945000 0.745423 1.930000
v -0.909853 0.660571 1.850000
v -0.909853 0.660571 1.930000
v -0.945000 0.745423 1.850000
v -0.909853 0.660571 1.850000
v -0.945000 0.745423 1.930000
v -0.825000 0.625423 1.930000
v -0.740147 0.660571 1.850000
v -0.740147 0.660571 1.930000
v -0.825000 0.625423 1.850000
v -0.740147 0.660571 1.850000
v -0.825000 0.625423 1.930000
v -0.705000 0.745423 1.930000
v -0.740147 0.830276 1.850000
v -0.740147 0.830276 1.930000
v -0.705000 0.745423 1.850000
v -0.740147 0.830276 1.850000
v -0.705000 0.745423 1.930000
v -0.909853 0.830276 1.930000
v -0.945000 0.745423 1.850000
v -0.945000 0.745423 1.930000
v -0.909853 0.830276 1.850000
v -0.945000 0.745423 1.850000
v -0.909853 0.830276 1.930000
v -0.909853 0.660571 1.930000
v -0.825000 0.625423 1.850000
v -0.825000 0.625423 1.930000
v -0.909853 0.660571 1.850000
v -0.825000 0.625423 1.850000
v -0.909853 0.660571 1.930000
v -0.740147 0.660571 1.930000
v -0.705000 0.745423 1.850000
v -0.705000 0.745423 1.930000
v -0.740147 0.660571 1.850000
v -0.705000 0.745423 1.850000
v -0.740147 0.660571 1.930000
v -0.740147 0.830276 1.930000
v -0.825000 0.865424 1.850000
v -0.825000 0.865424 1.930000
v -0.740147 0.830276 1.850000
v -0.825000 0.865424 1.850000
v -0.740147 0.830276 1.930000
v -0.485603 0.686026 1.997092
v -0.485603 0.804820 1.930000
v -0.485603 0.804820 1.997092
v -0.485603 0.686026 1.930000
v -0.485603 0.804820 1.930000
v -0.485603 0.686026 1.997092
v -0.884397 0.686027 1.997092
v -0.485603 0.686026 1.930000
v -0.485603 0.686026 1.997092
v -0.884397 0.686027 1.997092
v -0.884397 0.804820 1.930000
v -0.884397 0.686027 1.930000
v -0.884397 0.804820 1.997092
v -0.884397 0.804820 1.930000
v -0.884397 0.686027 1.997092
v -0.884397 0.686027 1.930000
v -0.600000 0.804820 1.930000
v -0.600000 0.686026 1.930000
v -0.884397 0.804820 1.930000
v -0.600000 0.804820 1.930000
v -0.884397 0.686027 1.930000
v -0.600000 0.804820 1.930000
v -0.485603 0.686026 1.930000
v -0.600000 0.686026 1.930000
v -0.485603 0.804820 1.930000
v -0.485603 0.686026 1.930000
v -0.600000 0.804820 1.930000
v -0.884397 0.686027 1.997092
v -0.485603 0.804820 1.997092
v -0.884397 0.804820 1.997092
v -0.485603 0.686026 1.997092
v -0.485603 0.804820 1.997092
v -0.884397 0.686027 1.997092
v -0.909853 0.830276 1.930000
v -0.945000 0.745423 1.930000
v -0.825000 0.865424 1.930000
v -0.740147 0.830276 1.930000
v -0.825000 0.865424 1.930000
v -0.945000 0.745423 1.930000
v -0.705000 0.745423 1.930000
v -0.740147 0.830276 1.930000
v -0.945000 0.745423 1.930000
v -0.740147 0.660571 1.930000
v -0.705000 0.745423 1.930000
v -0.825000 0.625423 1.930000
v -0.909853 0.660571 1.930000
v -0.825000 0.625423 1.930000
v -0.945000 0.745423 1.930000
v -0.884397 0.804820 1.930000
v -0.485603 0.804820 1.930000
v -0.600000 0.804820 1.930000
v 1.000000 3.000000 1.650000
v 1.000000 -1.000000 1.650000
v 0.640000 0.500000 1.650000
v 0.640000 0.500000 1.650000
v 1.000000 -1.000000 1.650000
v -1.000000 -1.000000 1.650000
v 0.640000 0.500000 1.650000
v -1.000000 -1.000000 1.650000
v -0.650000 0.500000 1.650000
v -0.650000 0.500000 1.650000
v -1.000000 -1.000000 1.650000
v -1.000000 3.000000 1.650000
v 1.000000 3.000000 1.650000
v 0.640000 0.500000 1.650000
v 0.640000 2.650000 1.650000
v -0.650000 2.650000 1.650000
v -0.650000 0.500000 1.650000
v -1.000000 3.000000 1.650000
v -0.650000 2.650000 1.650000
v -1.000000 3.000000 1.650000
v 0.640000 2.650000 1.650000
v 1.000000 3.000000 1.850000
v 0.640000 0.500000 1.850000
v 1.000000 -1.000000 1.850000
v -1.000000 3.000000 1.650000
v 1.000000 3.000000 1.650000
v 0.640000 2.650000 1.650000
v 0.640000 0.500000 1.850000
v -1.000000 -1.000000 1.850000
v 1.000000 -1.000000 1.850000
v 0.640000 0.500000 1.850000
v -0.650000 0.500000 1.850000
v -1.000000 -1.000000 1.850000
v -0.650000 0.500000 1.850000
v -1.000000 3.000000 1.850000
v -1.000000 -1.000000 1.850000
v 1.000000 3.000000 1.850000
v 0.640000 2.650000 1.850000
v 0.640000 0.500000 1.850000
v -0.650000 2.650000 1.850000
v -1.000000 3.000000 1.850000
v -0.650000 0.500000 1.850000
v -0.650000 2.650000 1.850000
v 0.640000 2.650000 1.850000
v -1.000000 3.000000 1.850000
v -0.650000 2.650000 1.750000
v 0.640000 2.650000 1.750000
v 0.640000 0.500000 1.750000
v -0.650000 0.500000 1.750000
v -1.000000 3.000000 1.850000
v 0.640000 2.650000 1.850000
v 1.000000 3.000000 1.850000

vt 0.250000 0.890625
vt 0.750000 0.843750
vt 0.750000 0.890625
vt 0.250000 0.843750
vt 0.750000 0.843750
vt 0.250000 0.890625
vt 0.687500 0.000000
vt 0.750000 1.031250
vt 0.687500 1.031250
vt 0.750000 0.000000
vt 0.750000 1.031250
vt 0.687500 0.000000
vt 0.250000 0.843750
vt 0.750000 0.781250
vt 0.750000 0.843750
vt 0.250000 0.781250
vt 0.750000 0.781250
vt 0.250000 0.843750
vt 0.750000 0.000000
vt 0.734375 1.015625
vt 0.718750 0.000000
vt 0.750000 1.015625
vt 0.734375 1.015625
vt 0.750000 0.000000
vt 0.250000 0.671875
vt 0.265625 1.000000
vt 0.250000 1.000000
vt 0.265625 0.671875
vt 0.265625 1.000000
vt 0.250000 0.671875
vt 0.312500 1.000000
vt 0.296875 0.671875
vt 0.312500 0.671875
vt 0.296875 1.000000
vt 0.296875 0.671875
vt 0.312500 1.000000
vt 0.781250 0.921875
vt 0.250000 0.890625
vt 0.250000 0.921875
vt 0.781250 0.890625
vt 0.250000 0.890625
vt 0.781250 0.921875
vt 0.781250 0.968750
vt 0.250000 1.000000
vt 0.250000 0.968750
vt 0.781250 1.000000
vt 0.250000 1.000000
vt 0.781250 0.968750
vt 0.359375 1.000000
vt 0.312500 0.671875
vt 0.312500 1.000000
vt 0.359375 0.671875
vt 0.312500 0.671875
vt 0.359375 1.000000
vt 0.781250 0.937500
vt 0.250000 0.968750
vt 0.781250 0.968750
vt 0.250000 0.937500
vt 0.250000 0.968750
vt 0.781250 0.937500
vt 0.265625 1.000000
vt 0.296875 0.671875
vt 0.265625 0.671875
vt 0.296875 1.000000
vt 0.296875 0.671875
vt 0.265625 1.000000
vt 0.250000 0.921875
vt 0.781250 0.937500
vt 0.250000 0.937500
vt 0.781250 0.921875
vt 0.781250 0.937500
vt 0.250000 0.921875
vt 0.343750 0.375000
vt 0.250000 1.000000
vt 0.250000 0.000000
vt 0.750000 0.000000
vt 0.343750 0.375000
vt 0.250000 0.000000
vt 0.656250 0.375000
vt 0.343750 0.375000
vt 0.750000 0.000000
vt 0.750000 1.000000
vt 0.656250 0.375000
vt 0.750000 0.000000
vt 0.343750 0.906250
vt 0.250000 1.000000
vt 0.343750 0.375000
vt 0.750000 1.000000
vt 0.656250 0.906250
vt 0.656250 0.375000
vt 0.343750 0.906250
vt 0.656250 0.906250
vt 0.750000 1.000000
vt 0.250000 0.000000
vt 0.250000 1.000000
vt 0.343750 0.375000
vt 0.343750 0.906250
vt 0.750000 1.000000
vt 0.250000 1.000000
vt 0.250000 0.000000
vt 0.343750 0.375000
vt 0.750000 0.000000
vt 0.750000 0.000000
vt 0.343750 0.375000
vt 0.656250 0.375000
vt 0.750000 0.000000
vt 0.656250 0.375000
vt 0.750000 1.000000
vt 0.343750 0.375000
vt 0.250000 1.000000
vt 0.343750 0.906250
vt 0.656250 0.375000
vt 0.656250 0.906250
vt 0.750000 1.000000
vt 0.750000 1.000000
vt 0.656250 0.906250
vt 0.343750 0.906250
vt 0.250000 1.000000
vt 0.750000 1.000000
vt 0.343750 0.906250
vt 0.666074 0.710884
vt 0.594008 0.536901
vt 0.840058 0.638818
vt 1.001677 0.286389
vt 1.001677 0.375163
vt 0.899760 0.286389
vt 1.001677 0.375163
vt 0.899760 0.375163
vt 0.899760 0.286389
vt 0.797842 0.286389
vt 0.797842 0.375163
vt 0.695925 0.286389
vt 0.797842 0.375163
vt 0.695925 0.375163
vt 0.695925 0.286389
vt 0.410243 0.131391
vt 0.410243 0.042617
vt 0.512160 0.131391
vt 0.410243 0.042617
vt 0.512160 0.042617
vt 0.512160 0.131391
vt 0.614078 0.131391
vt 0.614078 0.042617
vt 0.715995 0.131391
vt 0.614078 0.042617
vt 0.715995 0.042617
vt 0.715995 0.131391
vt 0.899760 0.286389
vt 0.899760 0.375163
vt 0.797842 0.286389
vt 0.899760 0.375163
vt 0.797842 0.375163
vt 0.797842 0.286389
vt 0.695925 0.286389
vt 0.695925 0.375163
vt 0.594008 0.286389
vt 0.695925 0.375163
vt 0.594008 0.375163
vt 0.594008 0.286389
vt 0.512160 0.131391
vt 0.512160 0.042617
vt 0.614078 0.131391
vt 0.512160 0.042617
vt 0.614078 0.042617
vt 0.614078 0.131391
vt 0.715995 0.131391
vt 0.715995 0.042617
vt 0.817912 0.131391
vt 0.715995 0.042617
vt 0.817912 0.042617
vt 0.817912 0.131391
vt 0.076576 0.469936
vt 0.002125 0.469936
vt 0.076576 0.338113
vt 0.002125 0.469936
vt 0.002125 0.338113
vt 0.076576 0.338113
vt 0.519109 0.263663
vt 0.076576 0.263663
vt 0.519109 0.131839
vt 0.076576 0.263663
vt 0.076576 0.131840
vt 0.519109 0.131839
vt 0.519109 0.338113
vt 0.076576 0.338113
vt 0.519109 0.263663
vt 0.076576 0.338113
vt 0.076576 0.263663
vt 0.519109 0.263663
vt 0.519109 0.469936
vt 0.519109 0.338113
vt 0.593559 0.469936
vt 0.519109 0.338113
vt 0.593560 0.338113
vt 0.593559 0.469936
vt 0.076576 0.338113
vt 0.519109 0.338113
vt 0.076576 0.469936
vt 0.519109 0.338113
vt 0.519109 0.469936
vt 0.076576 0.469936
vt 0.519109 0.469936
vt 0.519109 0.544387
vt 0.076576 0.469936
vt 0.519109 0.544387
vt 0.076576 0.544387
vt 0.076576 0.469936
vt 0.666074 0.464834
vt 0.767992 0.464834
vt 0.594008 0.536901
vt 0.840058 0.536901
vt 0.594008 0.536901
vt 0.767992 0.464834
vt 0.840058 0.638818
vt 0.594008 0.536901
vt 0.840058 0.536901
vt 0.767992 0.710884
vt 0.666074 0.710884
vt 0.840058 0.638818
vt 0.594008 0.638818
vt 0.594008 0.536901
vt 0.666074 0.710884
vt 0.594008 0.783399
vt 0.666074 0.957383
vt 0.840058 0.885317
vt 0.695925 0.375612
vt 0.594008 0.375612
vt 0.695925 0.464386
vt 0.594008 0.375612
vt 0.594008 0.464386
vt 0.695925 0.464386
vt 0.899760 0.375612
vt 0.797843 0.375612
vt 0.899760 0.464386
vt 0.797843 0.375612
vt 0.797843 0.464386
vt 0.899760 0.464386
vt 0.307877 0.131391
vt 0.409795 0.131391
vt 0.307877 0.042617
vt 0.409795 0.131391
vt 0.409795 0.042617
vt 0.307877 0.042617
vt 0.104043 0.131391
vt 0.205960 0.131391
vt 0.104042 0.042617
vt 0.205960 0.131391
vt 0.205960 0.042617
vt 0.104042 0.042617
vt 0.797843 0.375612
vt 0.695925 0.375612
vt 0.797843 0.464386
vt 0.695925 0.375612
vt 0.695925 0.464386
vt 0.797843 0.464386
vt 1.001677 0.375612
vt 0.899760 0.375612
vt 1.001677 0.464386
vt 0.899760 0.375612
vt 0.899760 0.464386
vt 1.001677 0.464386
vt 0.205960 0.131391
vt 0.307877 0.131391
vt 0.205960 0.042617
vt 0.307877 0.131391
vt 0.307877 0.042617
vt 0.205960 0.042617
vt 0.002125 0.131391
vt 0.104043 0.131391
vt 0.002125 0.042617
vt 0.104043 0.131391
vt 0.104042 0.042617
vt 0.002125 0.042617
vt 0.076576 0.882932
vt 0.076576 0.751109
vt 0.002125 0.882932
vt 0.076576 0.751109
vt 0.002125 0.751109
vt 0.002125 0.882932
vt 0.076576 0.751109
vt 0.519109 0.751109
vt 0.076576 0.676658
vt 0.593560 0.751109
vt 0.519109 0.751109
vt 0.593560 0.882932
vt 0.519109 0.751109
vt 0.519109 0.882932
vt 0.593560 0.882932
vt 0.203520 0.676659
vt 0.519109 0.676658
vt 0.203520 0.544835
vt 0.519109 0.676658
vt 0.519109 0.544835
vt 0.203520 0.544835
vt 0.203520 0.676659
vt 0.203520 0.544835
vt 0.076576 0.676658
vt 0.203520 0.544835
vt 0.076576 0.544835
vt 0.076576 0.676658
vt 0.519109 0.882932
vt 0.519109 0.751109
vt 0.076576 0.882932
vt 0.519109 0.751109
vt 0.076576 0.751109
vt 0.076576 0.882932
vt 0.767992 0.711333
vt 0.666074 0.711333
vt 0.594008 0.783399
vt 0.594008 0.783399
vt 0.840058 0.783399
vt 0.767992 0.711333
vt 0.594008 0.783399
vt 0.840058 0.885317
vt 0.840058 0.783399
vt 0.666074 0.957383
vt 0.767992 0.957383
vt 0.840058 0.885317
vt 0.594008 0.783399
vt 0.594008 0.885316
vt 0.666074 0.957383
vt 0.203520 0.957383
vt 0.519109 0.957383
vt 0.076576 0.957383
vt 0.796875 1.000000
vt 0.203125 0.000000
vt 0.796875 0.000000
vt 0.203125 1.000000
vt 0.203125 0.000000
vt 0.796875 1.000000

vn -0.000000 -1.000000 0.000000
vn -0.000000 -1.000000 0.000000
vn -0.000000 -1.000000 0.000000
vn -0.000000 -1.000000 0.000000
vn -0.000000 -1.000000 0.000000
vn -0.000000 -1.000000 0.000000
vn -1.000000 0.000000 0.000000
vn -1.000000 0.000000 0.000000
vn -1.000000 0.000000 0.000000
vn -1.000000 0.000000 0.000000
vn -1.000000 0.000000 0.000000
vn -1.000000 0.000000 0.000000
vn -0.000000 1.000000 0.000000
vn -0.000000 1.000000 0.000000
vn -0.000000 1.000000 0.000000
vn -0.000000 1.000000 0.000000
vn -0.000000 1.000000 0.000000
vn -0.000000 1.000000 0.000000
vn 1.000000 0.000000 0.000000
vn 1.000000 0.000000 0.000000
vn 1.000000 0.000000 0.000000
vn 1.000000 0.000000 0.000000
vn 1.000000 0.000000 0.000000
vn 1.000000 0.000000 0.000000
vn -0.000000 -1.000000 0.000000
vn -0.000000 -1.000000 0.000000
vn -0.000000 -1.000000 0.000000
vn -0.000000 -1.000000 0.000000
vn -0.000000 -1.000000 0.000000
vn -0.000000 -1.000000 0.000000
vn -0.000000 1.000000 0.000000
vn -0.000000 1.000000 0.000000
vn -0.000000 1.000000 0.000000
vn -0.000000 1.000000 0.000000
vn -0.000000 1.000000 0.000000
vn -0.000000 1.000000 0.000000
vn 1.000000 0.000000 0.000000
vn 1.000000 0.000000 0.000000
vn 1.000000 0.000000 0.000000
vn 1.000000 0.000000 0.000000
vn 1.000000 0.000000 0.000000
vn 1.000000 0.000000 0.000000
vn 1.000000 0.000000 0.000000
vn 1.000000 0.000000 0.000000
vn 1.000000 0.000000 0.000000
vn 1.000000 0.000000 0.000000
vn 1.000000 0.000000 0.000000
vn 1.000000 0.000000 0.000000
vn -0.000000 -1.000000 0.000000
vn -0.000000 -1.000000 0.000000
vn -0.000000 -1.000000 0.000000
vn -0.000000 -1.000000 0.000000
vn -0.000000 -1.000000 0.000000
vn -0.000000 -1.000000 0.000000
vn -1.000000 0.000000 0.000000
vn -1.000000 0.000000 0.000000
vn -1.000000 0.000000 0.000000
vn -1.000000 0.000000 0.000000
vn -1.000000 0.000000 0.000000
vn -1.000000 0.000000 0.000000
vn -0.000000 1.000000 0.000000
vn -0.000000 1.000000 0.000000
vn -0.000000 1.000000 0.000000
vn -0.000000 1.000000 0.000000
vn -0.000000 1.000000 0.000000
vn -0.000000 1.000000 0.000000
vn -1.000000 0.000000 0.000000
vn -1.000000 0.000000 0.000000
vn -1.000000 0.000000 0.000000
vn -1.000000 0.000000 0.000000
vn -1.000000 0.000000 0.000000
vn -1.000000 0.000000 0.000000
vn -0.000000 0.000000 -1.000000
vn -0.000000 0.000000 -1.000000
vn -0.000000 0.000000 -1.000000
vn -0.000000 0.000000 -1.000000
vn -0.000000 0.000000 -1.000000
vn -0.000000 0.000000 -1.000000
vn -0.000000 -0.000000 -1.000000
vn -0.000000 -0.000000 -1.000000
vn -0.000000 -0.000000 -1.000000
vn -0.000000 0.000000 -1.000000
vn -0.000000 0.000000 -1.000000
vn -0.000000 0.000000 -1.000000
vn -0.000000 0.000000 -1.000000
vn -0.000000 0.000000 -1.000000
vn -0.000000 0.000000 -1.000000
vn -0.000000 0.000000 -1.000000
vn -0.000000 0.000000 -1.000000
vn -0.000000 0.000000 -1.000000
vn -0.000000 0.000001 -1.000000
vn -0.000000 0.000001 -1.000000
vn -0.000000 0.000001 -1.000000
vn -0.000000 0.000000 1.000000
vn -0.000000 0.000000 1.000000
vn -0.000000 0.000000 1.000000
vn -0.000000 0.000000 -1.000000
vn -0.000000 0.000000 -1.000000
vn -0.000000 0.000000 -1.000000
vn -0.000000 0.000000 1.000000
vn -0.000000 0.000000 1.000000
vn -0.000000 0.000000 1.000000
vn -0.000000 -0.000000 1.000000
vn -0.000000 -0.000000 1.000000
vn -0.000000 -0.000000 1.000000
vn -0.000000 0.000000 1.000000
vn -0.000000 0.000000 1.000000
vn -0.000000 0.000000 1.000000
vn -0.000000 0.000000 1.000000
vn -0.000000 0.000000 1.000000
vn -0.000000 0.000000 1.000000
vn -0.000000 0.000000 1.000000
vn -0.000000 0.000000 1.000000
vn -0.000000 0.000000 1.000000
vn -0.000000 0.000001 1.000000
vn -0.000000 0.000001 1.000000
vn -0.000000 0.000001 1.000000
vn -0.000000 0.000000 1.000000
vn -0.000000 0.000000 1.000000
vn -0.000000 0.000000 1.000000
vn -0.000000 0.000000 -1.000000
vn -0.000000 0.000000 -1.000000
vn -0.000000 0.000000 -1.000000
vn -0.382683 0.923880 0.000000
vn -0.382683 0.923880 0.000000
vn -0.382683 0.923880 0.000000
vn -0.382685 0.923879 0.000000
vn -0.382685 0.923879 0.000000
vn -0.382685 0.923879 0.000000
vn -0.923880 -0.382683 0.000000
vn -0.923880 -0.382683 0.000000
vn -0.923880 -0.382683 0.000000
vn -0.923879 -0.382684 0.000000
vn -0.923879 -0.382684 0.000000
vn -0.923879 -0.382684 0.000000
vn 0.382683 -0.923880 0.000000
vn 0.382683 -0.923880 0.000000
vn 0.382683 -0.923880 0.000000
vn 0.382683 -0.923880 0.000000
vn 0.382683 -0.923880 0.000000
vn 0.382683 -0.923880 0.000000
vn 0.923879 0.382684 0.000000
vn 0.923879 0.382684 0.000000
vn 0.923879 0.382684 0.000000
vn 0.923879 0.382684 0.000000
vn 0.923879 0.382684 0.000000
vn 0.923879 0.382684 0.000000
vn -0.923880 0.382683 0.000000
vn -0.923880 0.382683 0.000000
vn -0.923880 0.382683 0.000000
vn -0.923880 0.382683 0.000000
vn -0.923880 0.382683 0.000000
vn -0.923880 0.382683 0.000000
vn -0.382683 -0.923880 0.000000
vn -0.382683 -0.923880 0.000000
vn -0.382683 -0.923880 0.000000
vn -0.382683 -0.923880 0.000000
vn -0.382683 -0.923880 0.000000
vn -0.382683 -0.923880 0.000000
vn 0.923879 -0.382684 0.000000
vn 0.923879 -0.382684 0.000000
vn 0.923879 -0.382684 0.000000
vn 0.923879 -0.382684 0.000000
vn 0.923879 -0.382684 0.000000
vn 0.923879 -0.382684 0.000000
vn 0.382685 0.923879 0.000000
vn 0.382685 0.923879 0.000000
vn 0.382685 0.923879 0.000000
vn 0.382683 0.923880 0.000000
vn 0.382683 0.923880 0.000000
vn 0.382683 0.923880 0.000000
vn 1.000000 0.000000 0.000000
vn 1.000000 0.000000 0.000000
vn 1.000000 0.000000 0.000000
vn 1.000000 0.000000 0.000000
vn 1.000000 0.000000 0.000000
vn 1.000000 0.000000 0.000000
vn -0.000000 0.000000 1.000000
vn -0.000000 0.000000 1.000000
vn -0.000000 0.000000 1.000000
vn -0.000000 0.000000 1.000000
vn -0.000000 0.000000 1.000000
vn -0.000000 0.000000 1.000000
vn -0.000000 -1.000000 0.000000
vn -0.000000 -1.000000 0.000000
vn -0.000000 -1.000000 0.000000
vn -0.000000 -1.000000 0.000000
vn -0.000000 -1.000000 0.000000
vn -0.000000 -1.000000 0.000000
vn -1.000000 0.000000 0.000000
vn -1.000000 0.000000 0.000000
vn -1.000000 0.000000 0.000000
vn -1.000000 0.000000 0.000000
vn -1.000000 0.000000 0.000000
vn -1.000000 0.000000 0.000000
vn -0.000000 0.000000 -1.000000
vn -0.000000 0.000000 -1.000000
vn -0.000000 0.000000 -1.000000
vn -0.000000 0.000000 -1.000000
vn -0.000000 0.000000 -1.000000
vn -0.000000 0.000000 -1.000000
vn -0.000000 1.000000 0.000000
vn -0.000000 1.000000 0.000000
vn -0.000000 1.000000 0.000000
vn -0.000000 1.000000 0.000000
vn -0.000000 1.000000 0.000000
vn -0.000000 1.000000 0.000000
vn -0.000000 0.000000 -1.000000
vn -0.000000 0.000000 -1.000000
vn -0.000000 0.000000 -1.000000
vn -0.000000 0.000000 -1.000000
vn -0.000000 0.000000 -1.000000
vn -0.000000 0.000000 -1.000000
vn -0.000000 0.000000 -1.000000
vn -0.000000 0.000000 -1.000000
vn -0.000000 0.000000 -1.000000
vn -0.000000 0.000000 -1.000000
vn -0.000000 0.000000 -1.000000
vn -0.000000 0.000000 -1.000000
vn -0.000000 0.000000 -1.000000
vn -0.000000 0.000000 -1.000000
vn -0.000000 0.000000 -1.000000
vn -0.000000 0.000000 1.000000
vn -0.000000 0.000000 1.000000
vn -0.000000 0.000000 1.000000
vn -0.382685 0.923879 0.000000
vn -0.382685 0.923879 0.000000
vn -0.382685 0.923879 0.000000
vn -0.382684 0.923879 0.000000
vn -0.382684 0.923879 0.000000
vn -0.382684 0.923879 0.000000
vn -0.923880 -0.382683 0.000000
vn -0.923880 -0.382683 0.000000
vn -0.923880 -0.382683 0.000000
vn -0.923879 -0.382684 0.000000
vn -0.923879 -0.382684 0.000000
vn -0.923879 -0.382684 0.000000
vn 0.382684 -0.923879 0.000000
vn 0.382684 -0.923879 0.000000
vn 0.382684 -0.923879 0.000000
vn 0.382682 -0.923880 0.000000
vn 0.382682 -0.923880 0.000000
vn 0.382682 -0.923880 0.000000
vn 0.923879 0.382684 0.000000
vn 0.923879 0.382684 0.000000
vn 0.923879 0.382684 0.000000
vn 0.923879 0.382684 0.000000
vn 0.923879 0.382684 0.000000
vn 0.923879 0.382684 0.000000
vn -0.923880 0.382683 0.000000
vn -0.923880 0.382683 0.000000
vn -0.923880 0.382683 0.000000
vn -0.923879 0.382684 0.000000
vn -0.923879 0.382684 0.000000
vn -0.923879 0.382684 0.000000
vn -0.382684 -0.923879 0.000000
vn -0.382684 -0.923879 0.000000
vn -0.382684 -0.923879 0.000000
vn -0.382683 -0.923880 0.000000
vn -0.382683 -0.923880 0.000000
vn -0.382683 -0.923880 0.000000
vn 0.923879 -0.382684 0.000000
vn 0.923879 -0.382684 0.000000
vn 0.923879 -0.382684 0.000000
vn 0.923879 -0.382684 0.000000
vn 0.923879 -0.382684 0.000000
vn 0.923879 -0.382684 0.000000
vn 0.382685 0.923879 0.000000
vn 0.382685 0.923879 0.000000
vn 0.382685 0.923879 0.000000
vn 0.382684 0.923879 0.000000
vn 0.382684 0.923879 0.000000
vn 0.382684 0.923879 0.000000
vn 1.000000 0.000000 0.000000
vn 1.000000 0.000000 0.000000
vn 1.000000 0.000000 0.000000
vn 1.000000 0.000000 0.000000
vn 1.000000 0.000000 0.000000
vn 1.000000 0.000000 0.000000
vn -0.000000 -1.000000 0.000000
vn -0.000000 -1.000000 0.000000
vn -0.000000 -1.000000 0.000000
vn -1.000000 0.000000 0.000000
vn -1.000000 0.000000 0.000000
vn -1.000000 0.000000 0.000000
vn -1.000000 0.000000 0.000000
vn -1.000000 0.000000 0.000000
vn -1.000000 0.000000 0.000000
vn -0.000000 0.000000 -1.000000
vn -0.000000 0.000000 -1.000000
vn -0.000000 0.000000 -1.000000
vn -0.000000 0.000000 -1.000000
vn -0.000000 0.000000 -1.000000
vn -0.000000 0.000000 -1.000000
vn -0.000000 0.000000 -1.000000
vn -0.000000 0.000000 -1.000000
vn -0.000000 0.000000 -1.000000
vn -0.000000 0.000000 -1.000000
vn -0.000000 0.000000 -1.000000
vn -0.000000 0.000000 -1.000000
vn -0.000000 0.000000 1.000000
vn -0.000000 0.000000 1.000000
vn -0.000000 0.000000 1.000000
vn -0.000000 0.000000 1.000000
vn -0.000000 0.000000 1.000000
vn -0.000000 0.000000 1.000000
vn -0.000000 0.000002 1.000000
vn -0.000000 0.000002 1.000000
vn -0.000000 0.000002 1.000000
vn -0.000000 0.000002 1.000000
vn -0.000000 0.000002 1.000000
vn -0.000000 0.000002 1.000000
vn -0.000000 -0.000001 1.000000
vn -0.000000 -0.000001 1.000000
vn -0.000000 -0.000001 1.000000
vn -0.000000 -0.000002 1.000000
vn -0.000000 -0.000002 1.000000
vn -0.000000 -0.000002 1.000000
vn -0.000000 -0.000005 1.000000
vn -0.000000 -0.000005 1.000000
vn -0.000000 -0.000005 1.000000
vn -0.000000 1.000000 0.000000
vn -0.000000 1.000000 0.000000
vn -0.000000 1.000000 0.000000
vn -0.000000 0.000000 -1.000000
vn -0.000000 0.000000 -1.000000
vn -0.000000 0.000000 -1.000000
vn -0.000000 0.000000 -1.000000
vn -0.000000 0.000000 -1.000000
vn -0.000000 0.000000 -1.000000

g Material.001
f 3/1/1 1/2/2 2/3/3
f 4/4/4 1/5/5 3/6/6
f 7/7/7 5/8/8 6/9/9
f 8/10/10 5/11/11 7/12/12
f 11/13/13 9/14/14 10/15/15
f 12/16/16 9/17/17 11/18/18
f 15/19/19 13/20/20 14/21/21
f 16/22/22 13/23/23 15/24/24
f 19/25/25 17/26/26 18/27/27
f 20/28/28 17/29/29 19/30/30
f 23/31/31 21/32/32 22/33/33
f 24/34/34 21/35/35 23/36/36
f 27/37/37 25/38/38 26/39/39
f 28/40/40 25/41/41 27/42/42
f 31/43/43 29/44/44 30/45/45
f 32/46/46 29/47/47 31/48/48
f 35/49/49 33/50/50 34/51/51
f 36/52/52 33/53/53 35/54/54
f 39/55/55 37/56/56 38/57/57
f 40/58/58 37/59/59 39/60/60
f 43/61/61 41/62/62 42/63/63
f 44/64/64 41/65/65 43/66/66
f 47/67/67 45/68/68 46/69/69
f 48/70/70 45/71/71 47/72/72
f 255/73/73 253/74/74 254/75/75
f 258/76/76 256/77/77 257/78/78
f 261/79/79 259/80/80 260/81/81
f 264/82/82 262/83/83 263/84/84
f 267/85/85 265/86/86 266/87/87
f 270/88/88 268/89/89 269/90/90
f 273/91/91 271/92/92 272/93/93
f 276/94/94 274/95/95 275/96/96
f 279/97/97 277/98/98 278/99/99
f 282/100/100 280/101/101 281/102/102
f 285/103/103 283/104/104 284/105/105
f 288/106/106 286/107/107 287/108/108
f 291/109/109 289/110/110 290/111/111
f 294/112/112 292/113/113 293/114/114
f 297/115/115 295/116/116 296/117/117
f 304/118/118 302/119/119 303/120/120

g Material.002
f 51/121/121 49/122/122 50/123/123
f 54/124/124 52/125/125 53/126/126
f 57/127/127 55/128/128 56/129/129
f 60/130/130 58/131/131 59/132/132
f 63/133/133 61/134/134 62/135/135
f 66/136/136 64/137/137 65/138/138
f 69/139/139 67/140/140 68/141/141
f 72/142/142 70/143/143 71/144/144
f 75/145/145 73/146/146 74/147/147
f 78/148/148 76/149/149 77/150/150
f 81/151/151 79/152/152 80/153/153
f 84/154/154 82/155/155 83/156/156
f 87/157/157 85/158/158 86/159/159
f 90/160/160 88/161/161 89/162/162
f 93/163/163 91/164/164 92/165/165
f 96/166/166 94/167/167 95/168/168
f 99/169/169 97/170/170 98/171/171
f 102/172/172 100/173/173 101/174/174
f 105/175/175 103/176/176 104/177/177
f 108/178/178 106/179/179 107/180/180
f 111/181/181 109/182/182 110/183/183
f 114/184/184 112/185/185 113/186/186
f 117/187/187 115/188/188 116/189/189
f 120/190/190 118/191/191 119/192/192
f 123/193/193 121/194/194 122/195/195
f 126/196/196 124/197/197 125/198/198
f 129/199/199 127/200/200 128/201/201
f 132/202/202 130/203/203 131/204/204
f 135/205/205 133/206/206 134/207/207
f 138/208/208 136/209/209 137/210/210
f 141/211/211 139/212/212 140/213/213
f 144/214/214 142/215/215 143/216/216
f 147/217/217 145/218/218 146/219/219
f 150/220/220 148/221/221 149/222/222
f 153/223/223 151/224/224 152/225/225
f 156/226/226 154/227/227 155/228/228
f 159/229/229 157/230/230 158/231/231
f 162/232/232 160/233/233 161/234/234
f 165/235/235 163/236/236 164/237/237
f 168/238/238 166/239/239 167/240/240
f 171/241/241 169/242/242 170/243/243
f 174/244/244 172/245/245 173/246/246
f 177/247/247 175/248/248 176/249/249
f 180/250/250 178/251/251 179/252/252
f 183/253/253 181/254/254 182/255/255
f 186/256/256 184/257/257 185/258/258
f 189/259/259 187/260/260 188/261/261
f 192/262/262 190/263/263 191/264/264
f 195/265/265 193/266/266 194/267/267
f 198/268/268 196/269/269 197/270/270
f 201/271/271 199/272/272 200/273/273
f 204/274/274 202/275/275 203/276/276
f 207/277/277 205/278/278 206/279/279
f 210/280/280 208/281/281 209/282/282
f 213/283/283 211/284/284 212/285/285
f 216/286/286 214/287/287 215/288/288
f 219/289/289 217/290/290 218/291/291
f 222/292/292 220/293/293 221/294/294
f 225/295/295 223/296/296 224/297/297
f 228/298/298 226/299/299 227/300/300
f 231/301/301 229/302/302 230/303/303
f 234/304/304 232/305/305 233/306/306
f 237/307/307 235/308/308 236/309/309
f 240/310/310 238/311/311 239/312/312
f 243/313/313 241/314/314 242/315/315
f 246/316/316 244/317/317 245/318/318
f 249/319/319 247/320/320 248/321/321
f 252/322/322 250/323/323 251/324/324

g Material.003
f 300/325/325 298/326/326 299/327/327
f 301/328/328 298/329/329 300/330/330

