# Converted from B3D for Luanti (With Correct Normals)
# Object Name: multidecor_napkins_rack

v 0.400000 -1.000000 0.150000
v -0.400000 -1.000000 0.150000
v -0.400000 -0.700000 0.150000
v 0.400000 -0.700000 0.150000
v -0.400000 -1.000000 0.150000
v -0.400000 -1.000000 -0.150000
v -0.400000 -0.700000 -0.150000
v -0.400000 -0.700000 0.150000
v 0.400000 -1.000000 -0.150000
v 0.400000 -1.000000 0.150000
v 0.400000 -0.700000 0.150000
v 0.400000 -0.700000 -0.150000
v 0.400000 -1.000000 0.150000
v 0.400000 -1.000000 -0.150000
v -0.400000 -1.000000 -0.150000
v -0.400000 -1.000000 0.150000
v -0.400000 -1.000000 -0.150000
v 0.400000 -1.000000 -0.150000
v 0.400000 -0.700000 -0.150000
v -0.400000 -0.700000 -0.150000
v 0.080000 -0.250000 0.150000
v 0.240000 -0.300000 0.150000
v 0.400000 -0.700000 0.150000
v -0.080000 -0.250000 -0.150000
v -0.240000 -0.300000 -0.150000
v -0.400000 -0.700000 -0.150000
v 0.370000 -0.950000 0.112500
v -0.370000 -0.950000 0.112500
v -0.370000 -0.950000 -0.112500
v 0.370000 -0.950000 -0.112500
v 0.370000 -0.100000 0.112500
v 0.370000 -0.100000 -0.112500
v -0.370000 -0.100000 -0.112500
v -0.370000 -0.100000 0.112500
v -0.370000 -0.950000 -0.112500
v -0.370000 -0.950000 0.112500
v -0.370000 -0.100000 0.112500
v -0.370000 -0.100000 -0.112500
v -0.370000 -0.950000 0.112500
v 0.370000 -0.950000 0.112500
v 0.370000 -0.100000 0.112500
v -0.370000 -0.100000 0.112500
v 0.370000 -0.950000 -0.112500
v -0.370000 -0.950000 -0.112500
v -0.370000 -0.100000 -0.112500
v 0.370000 -0.100000 -0.112500
v 0.370000 -0.950000 0.112500
v 0.370000 -0.950000 -0.112500
v 0.370000 -0.100000 -0.112500
v 0.370000 -0.100000 0.112500
v 0.400000 -0.450000 0.150000
v 0.400000 -0.700000 0.150000
v 0.240000 -0.300000 0.150000
v 0.400000 -0.700000 0.150000
v -0.400000 -0.700000 0.150000
v 0.080000 -0.250000 0.150000
v -0.400000 -0.700000 0.150000
v -0.400000 -0.450000 0.150000
v -0.240000 -0.300000 0.150000
v -0.240000 -0.300000 0.150000
v -0.080000 -0.250000 0.150000
v -0.400000 -0.700000 0.150000
v -0.080000 -0.250000 0.150000
v 0.080000 -0.250000 0.150000
v -0.400000 -0.700000 0.150000
v -0.400000 -0.450000 -0.150000
v -0.400000 -0.700000 -0.150000
v -0.240000 -0.300000 -0.150000
v -0.400000 -0.700000 -0.150000
v 0.400000 -0.700000 -0.150000
v -0.080000 -0.250000 -0.150000
v 0.400000 -0.700000 -0.150000
v 0.400000 -0.450000 -0.150000
v 0.240000 -0.300000 -0.150000
v 0.240000 -0.300000 -0.150000
v 0.080000 -0.250000 -0.150000
v 0.400000 -0.700000 -0.150000
v 0.080000 -0.250000 -0.150000
v -0.080000 -0.250000 -0.150000
v 0.400000 -0.700000 -0.150000

vt 0.477298 0.840532
vt 0.152981 0.465252
vt 0.560694 0.687640
vt 0.069586 0.618144
vt 0.152981 0.465252
vt 0.477298 0.840532
vt 0.796981 0.618144
vt 0.560694 0.687640
vt 0.644089 0.534748
vt 0.713586 0.771036
vt 0.560694 0.687640
vt 0.796981 0.618144
vt 0.000089 0.381856
vt 0.236377 0.312360
vt 0.152981 0.465252
vt 0.083485 0.228964
vt 0.236377 0.312360
vt 0.000089 0.381856
vt 0.644089 0.534748
vt 0.152981 0.465252
vt 0.236377 0.312360
vt 0.560694 0.687640
vt 0.152981 0.465252
vt 0.644089 0.534748
vt 0.319773 0.159468
vt 0.644089 0.534748
vt 0.236377 0.312360
vt 0.727485 0.381856
vt 0.644089 0.534748
vt 0.319773 0.159468
vt 0.069586 0.618144
vt 0.107577 0.936437
vt 0.039934 0.866478
vt 0.727485 0.381856
vt 0.689493 0.063563
vt 0.757137 0.133522
vt 0.039934 0.866478
vt 0.000089 0.745554
vt 0.069586 0.618144
vt 0.107577 0.936437
vt 0.069586 0.618144
vt 0.477298 0.840532
vt 0.284561 0.999911
vt 0.477298 0.840532
vt 0.407802 0.967942
vt 0.477298 0.840532
vt 0.284561 0.999911
vt 0.189120 0.980915
vt 0.477298 0.840532
vt 0.189120 0.980915
vt 0.107577 0.936437
vt 0.757137 0.133522
vt 0.796981 0.254446
vt 0.727485 0.381856
vt 0.689493 0.063563
vt 0.727485 0.381856
vt 0.319773 0.159468
vt 0.512509 0.000089
vt 0.319773 0.159468
vt 0.389269 0.032058
vt 0.319773 0.159468
vt 0.512509 0.000089
vt 0.607951 0.019085
vt 0.319773 0.159468
vt 0.607951 0.019085
vt 0.689493 0.063563
vt 0.556985 0.500000
vt 0.673546 0.116643
vt 0.673546 0.500000
vt 0.556985 0.116643
vt 0.673546 0.116643
vt 0.556985 0.500000
vt 0.116643 0.500000
vt 0.000082 0.116643
vt 0.116643 0.116643
vt 0.000082 0.500000
vt 0.000082 0.116643
vt 0.116643 0.500000
vt 0.116643 0.616561
vt 0.556985 0.500000
vt 0.556985 0.616561
vt 0.116643 0.500000
vt 0.556985 0.500000
vt 0.116643 0.616561
vt 0.116643 0.999918
vt 0.556985 0.616561
vt 0.556985 0.999918
vt 0.116643 0.616561
vt 0.556985 0.616561
vt 0.116643 0.999918
vt 0.116643 0.500000
vt 0.556985 0.116643
vt 0.556985 0.500000
vt 0.116643 0.116643
vt 0.556985 0.116643
vt 0.116643 0.500000
vt 0.116643 0.116643
vt 0.556985 0.000082
vt 0.556985 0.116643
vt 0.116643 0.000082
vt 0.556985 0.000082
vt 0.116643 0.116643

vn -0.000000 0.000000 -1.000000
vn -0.000000 0.000000 -1.000000
vn -0.000000 0.000000 -1.000000
vn -0.000000 0.000000 -1.000000
vn -0.000000 0.000000 -1.000000
vn -0.000000 0.000000 -1.000000
vn 1.000000 0.000000 0.000000
vn 1.000000 0.000000 0.000000
vn 1.000000 0.000000 0.000000
vn 1.000000 0.000000 0.000000
vn 1.000000 0.000000 0.000000
vn 1.000000 0.000000 0.000000
vn -1.000000 0.000000 0.000000
vn -1.000000 0.000000 0.000000
vn -1.000000 0.000000 0.000000
vn -1.000000 0.000000 0.000000
vn -1.000000 0.000000 0.000000
vn -1.000000 0.000000 0.000000
vn -0.000000 1.000000 0.000000
vn -0.000000 1.000000 0.000000
vn -0.000000 1.000000 0.000000
vn -0.000000 1.000000 0.000000
vn -0.000000 1.000000 0.000000
vn -0.000000 1.000000 0.000000
vn -0.000000 0.000000 1.000000
vn -0.000000 0.000000 1.000000
vn -0.000000 0.000000 1.000000
vn -0.000000 0.000000 1.000000
vn -0.000000 0.000000 1.000000
vn -0.000000 0.000000 1.000000
vn -0.000000 0.000000 -1.000000
vn -0.000000 0.000000 -1.000000
vn -0.000000 0.000000 -1.000000
vn -0.000000 0.000000 1.000000
vn -0.000000 0.000000 1.000000
vn -0.000000 0.000000 1.000000
vn -0.000000 0.000000 -1.000000
vn -0.000000 0.000000 -1.000000
vn -0.000000 0.000000 -1.000000
vn -0.000000 0.000000 -1.000000
vn -0.000000 0.000000 -1.000000
vn -0.000000 0.000000 -1.000000
vn -0.000000 0.000000 -1.000000
vn -0.000000 0.000000 -1.000000
vn -0.000000 0.000000 -1.000000
vn -0.000000 0.000000 -1.000000
vn -0.000000 0.000000 -1.000000
vn -0.000000 0.000000 -1.000000
vn -0.000000 -0.000000 -1.000000
vn -0.000000 -0.000000 -1.000000
vn -0.000000 -0.000000 -1.000000
vn -0.000000 0.000000 1.000000
vn -0.000000 0.000000 1.000000
vn -0.000000 0.000000 1.000000
vn -0.000000 0.000000 1.000000
vn -0.000000 0.000000 1.000000
vn -0.000000 0.000000 1.000000
vn -0.000000 0.000000 1.000000
vn -0.000000 0.000000 1.000000
vn -0.000000 0.000000 1.000000
vn -0.000000 0.000000 1.000000
vn -0.000000 0.000000 1.000000
vn -0.000000 0.000000 1.000000
vn -0.000000 -0.000000 1.000000
vn -0.000000 -0.000000 1.000000
vn -0.000000 -0.000000 1.000000
vn -0.000000 -1.000000 0.000000
vn -0.000000 -1.000000 0.000000
vn -0.000000 -1.000000 0.000000
vn -0.000000 -1.000000 0.000000
vn -0.000000 -1.000000 0.000000
vn -0.000000 -1.000000 0.000000
vn -0.000000 1.000000 0.000000
vn -0.000000 1.000000 0.000000
vn -0.000000 1.000000 0.000000
vn -0.000000 1.000000 0.000000
vn -0.000000 1.000000 0.000000
vn -0.000000 1.000000 0.000000
vn -1.000000 0.000000 0.000000
vn -1.000000 0.000000 0.000000
vn -1.000000 0.000000 0.000000
vn -1.000000 0.000000 0.000000
vn -1.000000 0.000000 0.000000
vn -1.000000 0.000000 0.000000
vn -0.000000 0.000000 1.000000
vn -0.000000 0.000000 1.000000
vn -0.000000 0.000000 1.000000
vn -0.000000 0.000000 1.000000
vn -0.000000 0.000000 1.000000
vn -0.000000 0.000000 1.000000
vn -0.000000 0.000000 -1.000000
vn -0.000000 0.000000 -1.000000
vn -0.000000 0.000000 -1.000000
vn -0.000000 0.000000 -1.000000
vn -0.000000 0.000000 -1.000000
vn -0.000000 0.000000 -1.000000
vn 1.000000 0.000000 0.000000
vn 1.000000 0.000000 0.000000
vn 1.000000 0.000000 0.000000
vn 1.000000 0.000000 0.000000
vn 1.000000 0.000000 0.000000
vn 1.000000 0.000000 0.000000

g Material
f 3/1/1 1/2/2 2/3/3
f 4/4/4 1/5/5 3/6/6
f 7/7/7 5/8/8 6/9/9
f 8/10/10 5/11/11 7/12/12
f 11/13/13 9/14/14 10/15/15
f 12/16/16 9/17/17 11/18/18
f 15/19/19 13/20/20 14/21/21
f 16/22/22 13/23/23 15/24/24
f 19/25/25 17/26/26 18/27/27
f 20/28/28 17/29/29 19/30/30
f 23/31/31 21/32/32 22/33/33
f 26/34/34 24/35/35 25/36/36
f 53/37/37 51/38/38 52/39/39
f 56/40/40 54/41/41 55/42/42
f 59/43/43 57/44/44 58/45/45
f 62/46/46 60/47/47 61/48/48
f 65/49/49 63/50/50 64/51/51
f 68/52/52 66/53/53 67/54/54
f 71/55/55 69/56/56 70/57/57
f 74/58/58 72/59/59 73/60/60
f 77/61/61 75/62/62 76/63/63
f 80/64/64 78/65/65 79/66/66

g Material.001
f 29/67/67 27/68/68 28/69/69
f 30/70/70 27/71/71 29/72/72
f 33/73/73 31/74/74 32/75/75
f 34/76/76 31/77/77 33/78/78
f 37/79/79 35/80/80 36/81/81
f 38/82/82 35/83/83 37/84/84
f 41/85/85 39/86/86 40/87/87
f 42/88/88 39/89/89 41/90/90
f 45/91/91 43/92/92 44/93/93
f 46/94/94 43/95/95 45/96/96
f 49/97/97 47/98/98 48/99/99
f 50/100/100 47/101/101 49/102/102

