# Converted from B3D for Luanti (With Correct Normals)
# Object Name: multidecor_glass_vase_with_flower

v 0.933287 1.960912 0.933287
v 0.791920 0.000000 -0.000000
v 1.319867 1.960912 -0.000000
v 0.559972 0.000000 0.559972
v 0.791920 0.000000 -0.000000
v 0.933287 1.960912 0.933287
v -1.319867 1.960912 0.000000
v -0.559972 0.000000 0.559972
v -0.933287 1.960912 0.933287
v -0.791920 0.000000 -0.000000
v -0.559972 0.000000 0.559972
v -1.319867 1.960912 0.000000
v -0.000000 1.960912 -1.319867
v -0.559972 0.000000 -0.559972
v -0.933287 1.960912 -0.933287
v -0.000000 0.000000 -0.791921
v -0.559972 0.000000 -0.559972
v -0.000000 1.960912 -1.319867
v 1.319867 1.960912 -0.000000
v 0.559972 0.000000 -0.559972
v 0.933287 1.960912 -0.933287
v 0.791920 0.000000 -0.000000
v 0.559972 0.000000 -0.559972
v 1.319867 1.960912 -0.000000
v 0.000000 1.960912 1.319867
v 0.559972 0.000000 0.559972
v 0.933287 1.960912 0.933287
v -0.000000 0.000000 0.791920
v 0.559972 0.000000 0.559972
v 0.000000 1.960912 1.319867
v -0.933287 1.960912 0.933287
v -0.000000 0.000000 0.791920
v 0.000000 1.960912 1.319867
v -0.559972 0.000000 0.559972
v -0.000000 0.000000 0.791920
v -0.933287 1.960912 0.933287
v -0.933287 1.960912 -0.933287
v -0.791920 0.000000 -0.000000
v -1.319867 1.960912 0.000000
v -0.559972 0.000000 -0.559972
v -0.791920 0.000000 -0.000000
v -0.933287 1.960912 -0.933287
v 0.933287 1.960912 -0.933287
v -0.000000 0.000000 -0.791921
v -0.000000 1.960912 -1.319867
v 0.559972 0.000000 -0.559972
v -0.000000 0.000000 -0.791921
v 0.933287 1.960912 -0.933287
v -0.000000 2.963704 -1.319867
v -0.933287 1.960912 -0.933287
v -0.933287 2.963704 -0.933287
v -0.000000 1.960912 -1.319867
v -0.933287 1.960912 -0.933287
v -0.000000 2.963704 -1.319867
v 1.319867 2.963704 -0.000000
v 0.933287 1.960912 -0.933287
v 0.933287 2.963704 -0.933287
v 1.319867 1.960912 -0.000000
v 0.933287 1.960912 -0.933287
v 1.319867 2.963704 -0.000000
v 0.000000 2.963704 1.319867
v 0.933287 1.960912 0.933287
v 0.933287 2.963704 0.933287
v 0.000000 1.960912 1.319867
v 0.933287 1.960912 0.933287
v 0.000000 2.963704 1.319867
v -0.933287 2.963704 0.933287
v 0.000000 1.960912 1.319867
v 0.000000 2.963704 1.319867
v -0.933287 1.960912 0.933287
v 0.000000 1.960912 1.319867
v -0.933287 2.963704 0.933287
v -0.933287 2.963704 -0.933287
v -1.319867 1.960912 0.000000
v -1.319867 2.963704 0.000000
v -0.933287 1.960912 -0.933287
v -1.319867 1.960912 0.000000
v -0.933287 2.963704 -0.933287
v 0.933287 2.963704 -0.933287
v -0.000000 1.960912 -1.319867
v -0.000000 2.963704 -1.319867
v 0.933287 1.960912 -0.933287
v -0.000000 1.960912 -1.319867
v 0.933287 2.963704 -0.933287
v 0.933287 2.963704 0.933287
v 1.319867 1.960912 -0.000000
v 1.319867 2.963704 -0.000000
v 0.933287 1.960912 0.933287
v 1.319867 1.960912 -0.000000
v 0.933287 2.963704 0.933287
v -1.319867 2.963704 0.000000
v -0.933287 1.960912 0.933287
v -0.933287 2.963704 0.933287
v -1.319867 1.960912 0.000000
v -0.933287 1.960912 0.933287
v -1.319867 2.963704 0.000000
v -0.923907 4.000000 0.000000
v -0.933287 2.963704 0.933287
v -0.653301 4.000000 0.653301
v -1.319867 2.963704 0.000000
v -0.933287 2.963704 0.933287
v -0.923907 4.000000 0.000000
v -0.000000 4.000000 -0.923907
v -0.933287 2.963704 -0.933287
v -0.653301 4.000000 -0.653301
v -0.000000 2.963704 -1.319867
v -0.933287 2.963704 -0.933287
v -0.000000 4.000000 -0.923907
v 0.923907 4.000000 -0.000000
v 0.933287 2.963704 -0.933287
v 0.653301 4.000000 -0.653301
v 1.319867 2.963704 -0.000000
v 0.933287 2.963704 -0.933287
v 0.923907 4.000000 -0.000000
v 0.000000 4.000000 0.923907
v 0.933287 2.963704 0.933287
v 0.653301 4.000000 0.653301
v 0.000000 2.963704 1.319867
v 0.933287 2.963704 0.933287
v 0.000000 4.000000 0.923907
v -0.653301 4.000000 0.653301
v 0.000000 2.963704 1.319867
v 0.000000 4.000000 0.923907
v -0.933287 2.963704 0.933287
v 0.000000 2.963704 1.319867
v -0.653301 4.000000 0.653301
v -0.653301 4.000000 -0.653301
v -1.319867 2.963704 0.000000
v -0.923907 4.000000 0.000000
v -0.933287 2.963704 -0.933287
v -1.319867 2.963704 0.000000
v -0.653301 4.000000 -0.653301
v 0.653301 4.000000 -0.653301
v -0.000000 2.963704 -1.319867
v -0.000000 4.000000 -0.923907
v 0.933287 2.963704 -0.933287
v -0.000000 2.963704 -1.319867
v 0.653301 4.000000 -0.653301
v 0.653301 4.000000 0.653301
v 1.319867 2.963704 -0.000000
v 0.923907 4.000000 -0.000000
v 0.933287 2.963704 0.933287
v 1.319867 2.963704 -0.000000
v 0.653301 4.000000 0.653301
v 0.791920 0.000000 -0.000000
v -0.000000 0.000000 0.791920
v -0.000000 0.000000 -0.791921
v 0.559972 0.000000 0.559972
v -0.000000 0.000000 0.791920
v 0.791920 0.000000 -0.000000
v 0.559972 0.000000 -0.559972
v 0.791920 0.000000 -0.000000
v -0.000000 0.000000 -0.791921
v -0.559972 0.000000 -0.559972
v -0.000000 0.000000 -0.791921
v -0.000000 0.000000 0.791920
v -0.791920 0.000000 -0.000000
v -0.559972 0.000000 -0.559972
v -0.000000 0.000000 0.791920
v -0.559972 0.000000 0.559972
v -0.791920 0.000000 -0.000000
v -0.000000 0.000000 0.791920
v 0.746630 2.368730 0.746630
v 0.633536 0.300000 -0.000000
v 0.447978 0.300000 0.447978
v 1.055894 2.368730 -0.000000
v 0.633536 0.300000 -0.000000
v 0.746630 2.368730 0.746630
v -1.055894 2.368730 0.000000
v -0.447978 0.300000 0.447978
v -0.633536 0.300000 -0.000000
v -0.746630 2.368730 0.746630
v -0.447978 0.300000 0.447978
v -1.055894 2.368730 0.000000
v -0.000000 2.368730 -1.055894
v -0.447978 0.300000 -0.447978
v -0.000000 0.300000 -0.633537
v -0.746630 2.368730 -0.746630
v -0.447978 0.300000 -0.447978
v -0.000000 2.368730 -1.055894
v 1.055894 2.368730 -0.000000
v 0.447978 0.300000 -0.447978
v 0.633536 0.300000 -0.000000
v 0.746630 2.368730 -0.746630
v 0.447978 0.300000 -0.447978
v 1.055894 2.368730 -0.000000
v -0.000000 2.368730 1.055894
v 0.447978 0.300000 0.447978
v -0.000000 0.300000 0.633536
v 0.746630 2.368730 0.746630
v 0.447978 0.300000 0.447978
v -0.000000 2.368730 1.055894
v -0.746630 2.368730 0.746630
v -0.000000 0.300000 0.633536
v -0.447978 0.300000 0.447978
v -0.000000 2.368730 1.055894
v -0.000000 0.300000 0.633536
v -0.746630 2.368730 0.746630
v -0.746630 2.368730 -0.746630
v -0.633536 0.300000 -0.000000
v -0.447978 0.300000 -0.447978
v -1.055894 2.368730 0.000000
v -0.633536 0.300000 -0.000000
v -0.746630 2.368730 -0.746630
v 0.746630 2.368730 -0.746630
v -0.000000 0.300000 -0.633537
v 0.447978 0.300000 -0.447978
v -0.000000 2.368730 -1.055894
v -0.000000 0.300000 -0.633537
v 0.746630 2.368730 -0.746630
v -0.000000 3.170963 -1.055894
v -0.746630 2.368730 -0.746630
v -0.000000 2.368730 -1.055894
v -0.746630 3.170963 -0.746630
v -0.746630 2.368730 -0.746630
v -0.000000 3.170963 -1.055894
v 1.055894 3.170963 -0.000000
v 0.746630 2.368730 -0.746630
v 1.055894 2.368730 -0.000000
v 0.746630 3.170963 -0.746630
v 0.746630 2.368730 -0.746630
v 1.055894 3.170963 -0.000000
v -0.000000 3.170963 1.055894
v 0.746630 2.368730 0.746630
v -0.000000 2.368730 1.055894
v 0.746630 3.170963 0.746630
v 0.746630 2.368730 0.746630
v -0.000000 3.170963 1.055894
v -0.746630 3.170963 0.746630
v -0.000000 2.368730 1.055894
v -0.746630 2.368730 0.746630
v -0.000000 3.170963 1.055894
v -0.000000 2.368730 1.055894
v -0.746630 3.170963 0.746630
v -0.746630 3.170963 -0.746630
v -1.055894 2.368730 0.000000
v -0.746630 2.368730 -0.746630
v -1.055894 3.170963 0.000000
v -1.055894 2.368730 0.000000
v -0.746630 3.170963 -0.746630
v 0.746630 3.170963 -0.746630
v -0.000000 2.368730 -1.055894
v 0.746630 2.368730 -0.746630
v -0.000000 3.170963 -1.055894
v -0.000000 2.368730 -1.055894
v 0.746630 3.170963 -0.746630
v 0.746630 3.170963 0.746630
v 1.055894 2.368730 -0.000000
v 0.746630 2.368730 0.746630
v 1.055894 3.170963 -0.000000
v 1.055894 2.368730 -0.000000
v 0.746630 3.170963 0.746630
v -1.055894 3.170963 0.000000
v -0.746630 2.368730 0.746630
v -1.055894 2.368730 0.000000
v -0.746630 3.170963 0.746630
v -0.746630 2.368730 0.746630
v -1.055894 3.170963 0.000000
v -0.739126 4.000000 -0.000000
v -0.746630 3.170963 0.746630
v -1.055894 3.170963 0.000000
v -0.522641 4.000000 0.522641
v -0.746630 3.170963 0.746630
v -0.739126 4.000000 -0.000000
v -0.000000 4.000000 -0.739126
v -0.746630 3.170963 -0.746630
v -0.000000 3.170963 -1.055894
v -0.522641 4.000000 -0.522641
v -0.746630 3.170963 -0.746630
v -0.000000 4.000000 -0.739126
v 0.739126 4.000000 -0.000000
v 0.746630 3.170963 -0.746630
v 1.055894 3.170963 -0.000000
v 0.522641 4.000000 -0.522641
v 0.746630 3.170963 -0.746630
v 0.739126 4.000000 -0.000000
v -0.000000 4.000000 0.739126
v 0.746630 3.170963 0.746630
v -0.000000 3.170963 1.055894
v 0.522641 4.000000 0.522641
v 0.746630 3.170963 0.746630
v -0.000000 4.000000 0.739126
v -0.522641 4.000000 0.522641
v -0.000000 3.170963 1.055894
v -0.746630 3.170963 0.746630
v -0.000000 4.000000 0.739126
v -0.000000 3.170963 1.055894
v -0.522641 4.000000 0.522641
v -0.522641 4.000000 -0.522641
v -1.055894 3.170963 0.000000
v -0.746630 3.170963 -0.746630
v -0.739126 4.000000 -0.000000
v -1.055894 3.170963 0.000000
v -0.522641 4.000000 -0.522641
v 0.522641 4.000000 -0.522641
v -0.000000 3.170963 -1.055894
v 0.746630 3.170963 -0.746630
v -0.000000 4.000000 -0.739126
v -0.000000 3.170963 -1.055894
v 0.522641 4.000000 -0.522641
v 0.522641 4.000000 0.522641
v 1.055894 3.170963 -0.000000
v 0.746630 3.170963 0.746630
v 0.739126 4.000000 -0.000000
v 1.055894 3.170963 -0.000000
v 0.522641 4.000000 0.522641
v -0.000000 0.300000 -0.633537
v -0.000000 0.300000 0.633536
v 0.633536 0.300000 -0.000000
v 0.633536 0.300000 -0.000000
v -0.000000 0.300000 0.633536
v 0.447978 0.300000 0.447978
v -0.000000 0.300000 -0.633537
v 0.633536 0.300000 -0.000000
v 0.447978 0.300000 -0.447978
v -0.000000 0.300000 0.633536
v -0.000000 0.300000 -0.633537
v -0.447978 0.300000 -0.447978
v -0.000000 0.300000 0.633536
v -0.447978 0.300000 -0.447978
v -0.633536 0.300000 -0.000000
v -0.000000 0.300000 0.633536
v -0.633536 0.300000 -0.000000
v -0.447978 0.300000 0.447978
v 0.522641 4.000000 0.522641
v -0.000000 4.000000 0.739126
v 0.000000 4.000000 0.923907
v 0.000000 4.000000 0.923907
v -0.000000 4.000000 0.739126
v -0.653301 4.000000 0.653301
v -0.000000 4.000000 0.739126
v -0.522641 4.000000 0.522641
v -0.653301 4.000000 0.653301
v 0.653301 4.000000 0.653301
v 0.923907 4.000000 -0.000000
v 0.522641 4.000000 0.522641
v -0.653301 4.000000 0.653301
v -0.522641 4.000000 0.522641
v -0.923907 4.000000 0.000000
v 0.522641 4.000000 0.522641
v 0.923907 4.000000 -0.000000
v 0.739126 4.000000 -0.000000
v -0.522641 4.000000 0.522641
v -0.739126 4.000000 -0.000000
v -0.923907 4.000000 0.000000
v -0.923907 4.000000 0.000000
v -0.739126 4.000000 -0.000000
v -0.653301 4.000000 -0.653301
v -0.739126 4.000000 -0.000000
v -0.522641 4.000000 -0.522641
v -0.653301 4.000000 -0.653301
v 0.739126 4.000000 -0.000000
v 0.923907 4.000000 -0.000000
v 0.522641 4.000000 -0.522641
v 0.923907 4.000000 -0.000000
v 0.653301 4.000000 -0.653301
v 0.522641 4.000000 -0.522641
v 0.522641 4.000000 -0.522641
v 0.653301 4.000000 -0.653301
v -0.000000 4.000000 -0.739126
v -0.522641 4.000000 -0.522641
v -0.000000 4.000000 -0.739126
v -0.653301 4.000000 -0.653301
v 0.653301 4.000000 -0.653301
v -0.000000 4.000000 -0.923907
v -0.000000 4.000000 -0.739126
v -0.653301 4.000000 -0.653301
v -0.000000 4.000000 -0.739126
v -0.000000 4.000000 -0.923907
v 0.653301 4.000000 0.653301
v 0.522641 4.000000 0.522641
v 0.000000 4.000000 0.923907
v -1.108689 6.823374 -0.000000
v 1.108689 3.323374 0.000000
v -1.108689 3.323374 0.000000
v 1.108689 6.823374 -0.000000
v 1.108689 3.323374 0.000000
v -1.108689 6.823374 -0.000000
v -0.000000 6.823374 1.108689
v -0.000000 3.323374 -1.108689
v -0.000000 3.323374 1.108689
v -0.000000 6.823374 -1.108689
v -0.000000 3.323374 -1.108689
v -0.000000 6.823374 1.108689

vt 0.405400 0.277996
vt 0.304100 0.277996
vt 0.385140 0.528615
vt 0.304100 0.277996
vt 0.324360 0.528615
vt 0.385140 0.528615
vt 0.101498 0.277996
vt 0.000197 0.277996
vt 0.081238 0.528615
vt 0.000197 0.277996
vt 0.020457 0.528615
vt 0.081238 0.528615
vt 0.250816 0.832912
vt 0.250816 0.731611
vt 0.000197 0.812652
vt 0.250816 0.731611
vt 0.000197 0.751871
vt 0.000197 0.812652
vt 0.250816 0.630310
vt 0.250816 0.529009
vt 0.000197 0.610050
vt 0.250816 0.529009
vt 0.000197 0.549269
vt 0.000197 0.610050
vt 0.304100 0.277996
vt 0.202799 0.277996
vt 0.283840 0.528615
vt 0.202799 0.277996
vt 0.223059 0.528615
vt 0.283840 0.528615
vt 0.202799 0.277996
vt 0.101498 0.277996
vt 0.182539 0.528615
vt 0.101498 0.277996
vt 0.121758 0.528615
vt 0.182539 0.528615
vt 0.250816 0.934213
vt 0.250816 0.832912
vt 0.000197 0.913953
vt 0.250816 0.832912
vt 0.000197 0.853172
vt 0.000197 0.913953
vt 0.250816 0.731611
vt 0.250816 0.630310
vt 0.000197 0.711351
vt 0.250816 0.630310
vt 0.000197 0.650570
vt 0.000197 0.711351
vt 0.376516 0.832912
vt 0.376516 0.731611
vt 0.250816 0.832912
vt 0.376516 0.731611
vt 0.250816 0.731611
vt 0.250816 0.832912
vt 0.376516 0.630310
vt 0.376516 0.529009
vt 0.250816 0.630310
vt 0.376516 0.529009
vt 0.250816 0.529009
vt 0.250816 0.630310
vt 0.304100 0.152296
vt 0.202799 0.152296
vt 0.304100 0.277996
vt 0.202799 0.152296
vt 0.202799 0.277996
vt 0.304100 0.277996
vt 0.202799 0.152296
vt 0.101498 0.152296
vt 0.202799 0.277996
vt 0.101498 0.152296
vt 0.101498 0.277996
vt 0.202799 0.277996
vt 0.376516 0.934212
vt 0.376516 0.832912
vt 0.250816 0.934213
vt 0.376516 0.832912
vt 0.250816 0.832912
vt 0.250816 0.934213
vt 0.376516 0.731611
vt 0.376516 0.630310
vt 0.250816 0.731611
vt 0.376516 0.630310
vt 0.250816 0.630310
vt 0.250816 0.731611
vt 0.405400 0.152296
vt 0.304100 0.152296
vt 0.405400 0.277996
vt 0.304100 0.152296
vt 0.304100 0.277996
vt 0.405400 0.277996
vt 0.101498 0.152296
vt 0.000197 0.152296
vt 0.101498 0.277996
vt 0.000197 0.152296
vt 0.000197 0.277996
vt 0.101498 0.277996
vt 0.086303 0.017316
vt 0.015392 0.017316
vt 0.101498 0.152296
vt 0.015392 0.017316
vt 0.000197 0.152296
vt 0.101498 0.152296
vt 0.511496 0.817717
vt 0.511496 0.746806
vt 0.376516 0.832912
vt 0.511496 0.746806
vt 0.376516 0.731611
vt 0.376516 0.832912
vt 0.511496 0.615115
vt 0.511496 0.544204
vt 0.376516 0.630310
vt 0.511496 0.544204
vt 0.376516 0.529009
vt 0.376516 0.630310
vt 0.288904 0.017316
vt 0.217994 0.017316
vt 0.304100 0.152296
vt 0.217994 0.017316
vt 0.202799 0.152296
vt 0.304100 0.152296
vt 0.187604 0.017317
vt 0.116693 0.017317
vt 0.202799 0.152296
vt 0.116693 0.017317
vt 0.101498 0.152296
vt 0.202799 0.152296
vt 0.511496 0.919017
vt 0.511496 0.848107
vt 0.376516 0.934212
vt 0.511496 0.848107
vt 0.376516 0.832912
vt 0.376516 0.934212
vt 0.511496 0.716416
vt 0.511496 0.645505
vt 0.376516 0.731611
vt 0.511496 0.645505
vt 0.376516 0.630310
vt 0.376516 0.731611
vt 0.390205 0.017316
vt 0.319295 0.017316
vt 0.405400 0.152296
vt 0.319295 0.017316
vt 0.304100 0.152296
vt 0.405400 0.152296
vt 0.834110 0.000197
vt 0.730352 0.043175
vt 0.773330 0.146934
vt 0.730352 0.043175
vt 0.730352 0.103956
vt 0.773330 0.146934
vt 0.834110 0.000197
vt 0.773330 0.000197
vt 0.730352 0.043175
vt 0.773330 0.146934
vt 0.877089 0.043175
vt 0.834110 0.000197
vt 0.773330 0.146934
vt 0.877089 0.103956
vt 0.877089 0.043175
vt 0.773330 0.146934
vt 0.834110 0.146934
vt 0.877089 0.103956
vt 0.999803 0.593842
vt 0.737553 0.610050
vt 0.999803 0.545218
vt 0.737553 0.610050
vt 0.737553 0.529009
vt 0.999803 0.545218
vt 0.999803 0.836964
vt 0.737553 0.853172
vt 0.999803 0.788340
vt 0.737553 0.853172
vt 0.737553 0.772131
vt 0.999803 0.788340
vt 0.551668 0.000197
vt 0.567876 0.262447
vt 0.503043 0.000197
vt 0.567876 0.262447
vt 0.486835 0.262447
vt 0.503043 0.000197
vt 0.713749 0.000197
vt 0.729957 0.262447
vt 0.665125 0.000197
vt 0.729957 0.262447
vt 0.648917 0.262447
vt 0.665125 0.000197
vt 0.999803 0.674883
vt 0.737553 0.691091
vt 0.999803 0.626258
vt 0.737553 0.691091
vt 0.737553 0.610050
vt 0.999803 0.626258
vt 0.999803 0.755923
vt 0.737553 0.772131
vt 0.999803 0.707299
vt 0.737553 0.772131
vt 0.737553 0.691091
vt 0.999803 0.707299
vt 0.470627 0.000197
vt 0.486835 0.262447
vt 0.422003 0.000197
vt 0.486835 0.262447
vt 0.405795 0.262447
vt 0.422003 0.000197
vt 0.632708 0.000197
vt 0.648917 0.262447
vt 0.584084 0.000197
vt 0.648917 0.262447
vt 0.567876 0.262447
vt 0.584084 0.000197
vt 0.567876 0.262447
vt 0.567876 0.363007
vt 0.486835 0.262447
vt 0.567876 0.363007
vt 0.486835 0.363007
vt 0.486835 0.262447
vt 0.729957 0.262447
vt 0.729957 0.363007
vt 0.648917 0.262447
vt 0.729957 0.363007
vt 0.648917 0.363007
vt 0.648917 0.262447
vt 0.737553 0.691091
vt 0.636993 0.691091
vt 0.737553 0.610050
vt 0.636993 0.691091
vt 0.636993 0.610050
vt 0.737553 0.610050
vt 0.737553 0.772131
vt 0.636993 0.772131
vt 0.737553 0.691091
vt 0.636993 0.772131
vt 0.636993 0.691091
vt 0.737553 0.691091
vt 0.486835 0.262447
vt 0.486835 0.363007
vt 0.405795 0.262447
vt 0.486835 0.363007
vt 0.405795 0.363007
vt 0.405795 0.262447
vt 0.648917 0.262447
vt 0.648917 0.363007
vt 0.567876 0.262447
vt 0.648917 0.363007
vt 0.567876 0.363007
vt 0.567876 0.262447
vt 0.737553 0.610050
vt 0.636993 0.610050
vt 0.737553 0.529009
vt 0.636993 0.610050
vt 0.636993 0.529009
vt 0.737553 0.529009
vt 0.737553 0.853172
vt 0.636993 0.853172
vt 0.737553 0.772131
vt 0.636993 0.853172
vt 0.636993 0.772131
vt 0.737553 0.772131
vt 0.636993 0.853172
vt 0.529009 0.841016
vt 0.636993 0.772131
vt 0.529009 0.841016
vt 0.529009 0.784287
vt 0.636993 0.772131
vt 0.567876 0.363007
vt 0.555720 0.470991
vt 0.486835 0.363007
vt 0.555720 0.470991
vt 0.498991 0.470991
vt 0.486835 0.363007
vt 0.729957 0.363007
vt 0.717801 0.470991
vt 0.648917 0.363007
vt 0.717801 0.470991
vt 0.661073 0.470991
vt 0.648917 0.363007
vt 0.636993 0.691091
vt 0.529009 0.678934
vt 0.636993 0.610050
vt 0.529009 0.678934
vt 0.529009 0.622206
vt 0.636993 0.610050
vt 0.636993 0.772131
vt 0.529009 0.759975
vt 0.636993 0.691091
vt 0.529009 0.759975
vt 0.529009 0.703247
vt 0.636993 0.691091
vt 0.486835 0.363007
vt 0.474679 0.470991
vt 0.405795 0.363007
vt 0.474679 0.470991
vt 0.417951 0.470991
vt 0.405795 0.363007
vt 0.648917 0.363007
vt 0.636761 0.470991
vt 0.567876 0.363007
vt 0.636761 0.470991
vt 0.580032 0.470991
vt 0.567876 0.363007
vt 0.636993 0.610050
vt 0.529009 0.597894
vt 0.636993 0.529009
vt 0.529009 0.597894
vt 0.529009 0.541165
vt 0.636993 0.529009
vt 0.730352 0.181711
vt 0.813359 0.147328
vt 0.764734 0.264718
vt 0.730352 0.230335
vt 0.730352 0.181711
vt 0.764734 0.264718
vt 0.764734 0.147328
vt 0.813359 0.147328
vt 0.730352 0.181711
vt 0.847741 0.181711
vt 0.764734 0.264718
vt 0.813359 0.147328
vt 0.847741 0.230335
vt 0.764734 0.264718
vt 0.847741 0.181711
vt 0.813359 0.264718
vt 0.764734 0.264718
vt 0.847741 0.230335
vt 0.217994 0.017316
vt 0.281813 0.000197
vt 0.225085 0.000197
vt 0.116693 0.017317
vt 0.187604 0.017317
vt 0.180513 0.000197
vt 0.116693 0.017317
vt 0.180513 0.000197
vt 0.123784 0.000197
vt 0.326386 0.000197
vt 0.319295 0.017316
vt 0.390205 0.017316
vt 0.015392 0.017316
vt 0.086303 0.017316
vt 0.079212 0.000197
vt 0.383114 0.000197
vt 0.326386 0.000197
vt 0.390205 0.017316
vt 0.015392 0.017316
vt 0.079212 0.000197
vt 0.022483 0.000197
vt 0.511496 0.848107
vt 0.511496 0.919017
vt 0.528615 0.911926
vt 0.511496 0.848107
vt 0.528615 0.911926
vt 0.528615 0.855198
vt 0.528615 0.608024
vt 0.528615 0.551296
vt 0.511496 0.544204
vt 0.528615 0.608024
vt 0.511496 0.544204
vt 0.511496 0.615115
vt 0.528615 0.709325
vt 0.528615 0.652596
vt 0.511496 0.645505
vt 0.511496 0.817717
vt 0.528615 0.810625
vt 0.528615 0.753897
vt 0.528615 0.709325
vt 0.511496 0.645505
vt 0.511496 0.716416
vt 0.511496 0.746806
vt 0.511496 0.817717
vt 0.528615 0.753897
vt 0.217994 0.017316
vt 0.288904 0.017316
vt 0.281813 0.000197
vt 1.000000 0.000000
vt 1.000000 1.000000
vt 0.000000 0.000000
vt 1.000000 1.000000
vt 0.000000 1.000000
vt 0.000000 0.000000
vt 1.000000 0.000000
vt 1.000000 1.000000
vt 0.000000 0.000000
vt 1.000000 1.000000
vt 0.000000 1.000000
vt 0.000000 0.000000

vn 0.896560 -0.241386 0.371367
vn 0.896560 -0.241386 0.371367
vn 0.896560 -0.241386 0.371367
vn 0.896560 -0.241386 0.371367
vn 0.896560 -0.241386 0.371367
vn 0.896560 -0.241386 0.371367
vn -0.896560 -0.241386 0.371367
vn -0.896560 -0.241386 0.371367
vn -0.896560 -0.241386 0.371367
vn -0.896560 -0.241386 0.371367
vn -0.896560 -0.241386 0.371367
vn -0.896560 -0.241386 0.371367
vn -0.371367 -0.241386 -0.896560
vn -0.371367 -0.241386 -0.896560
vn -0.371367 -0.241386 -0.896560
vn -0.371367 -0.241385 -0.896560
vn -0.371367 -0.241385 -0.896560
vn -0.371367 -0.241385 -0.896560
vn 0.896560 -0.241386 -0.371367
vn 0.896560 -0.241386 -0.371367
vn 0.896560 -0.241386 -0.371367
vn 0.896560 -0.241386 -0.371367
vn 0.896560 -0.241386 -0.371367
vn 0.896560 -0.241386 -0.371367
vn 0.371367 -0.241386 0.896560
vn 0.371367 -0.241386 0.896560
vn 0.371367 -0.241386 0.896560
vn 0.371367 -0.241386 0.896560
vn 0.371367 -0.241386 0.896560
vn 0.371367 -0.241386 0.896560
vn -0.371367 -0.241386 0.896560
vn -0.371367 -0.241386 0.896560
vn -0.371367 -0.241386 0.896560
vn -0.371367 -0.241386 0.896560
vn -0.371367 -0.241386 0.896560
vn -0.371367 -0.241386 0.896560
vn -0.896560 -0.241386 -0.371367
vn -0.896560 -0.241386 -0.371367
vn -0.896560 -0.241386 -0.371367
vn -0.896560 -0.241386 -0.371367
vn -0.896560 -0.241386 -0.371367
vn -0.896560 -0.241386 -0.371367
vn 0.371367 -0.241386 -0.896560
vn 0.371367 -0.241386 -0.896560
vn 0.371367 -0.241386 -0.896560
vn 0.371367 -0.241386 -0.896560
vn 0.371367 -0.241386 -0.896560
vn 0.371367 -0.241386 -0.896560
vn -0.382683 0.000000 -0.923880
vn -0.382683 0.000000 -0.923880
vn -0.382683 0.000000 -0.923880
vn -0.382683 0.000000 -0.923880
vn -0.382683 0.000000 -0.923880
vn -0.382683 0.000000 -0.923880
vn 0.923880 0.000000 -0.382684
vn 0.923880 0.000000 -0.382684
vn 0.923880 0.000000 -0.382684
vn 0.923880 0.000000 -0.382683
vn 0.923880 0.000000 -0.382683
vn 0.923880 0.000000 -0.382683
vn 0.382683 0.000000 0.923880
vn 0.382683 0.000000 0.923880
vn 0.382683 0.000000 0.923880
vn 0.382683 0.000000 0.923880
vn 0.382683 0.000000 0.923880
vn 0.382683 0.000000 0.923880
vn -0.382683 0.000000 0.923880
vn -0.382683 0.000000 0.923880
vn -0.382683 0.000000 0.923880
vn -0.382684 0.000000 0.923880
vn -0.382684 0.000000 0.923880
vn -0.382684 0.000000 0.923880
vn -0.923880 0.000000 -0.382683
vn -0.923880 0.000000 -0.382683
vn -0.923880 0.000000 -0.382683
vn -0.923879 0.000000 -0.382684
vn -0.923879 0.000000 -0.382684
vn -0.923879 0.000000 -0.382684
vn 0.382683 0.000000 -0.923880
vn 0.382683 0.000000 -0.923880
vn 0.382683 0.000000 -0.923880
vn 0.382683 0.000000 -0.923880
vn 0.382683 0.000000 -0.923880
vn 0.382683 0.000000 -0.923880
vn 0.923880 0.000000 0.382683
vn 0.923880 0.000000 0.382683
vn 0.923880 0.000000 0.382683
vn 0.923880 0.000000 0.382683
vn 0.923880 0.000000 0.382683
vn 0.923880 0.000000 0.382683
vn -0.923880 0.000000 0.382683
vn -0.923880 0.000000 0.382683
vn -0.923880 0.000000 0.382683
vn -0.923880 0.000000 0.382683
vn -0.923880 0.000000 0.382683
vn -0.923880 0.000000 0.382683
vn -0.871192 0.332875 0.360859
vn -0.871192 0.332875 0.360859
vn -0.871192 0.332875 0.360859
vn -0.871192 0.332875 0.360859
vn -0.871192 0.332875 0.360859
vn -0.871192 0.332875 0.360859
vn -0.360859 0.332875 -0.871192
vn -0.360859 0.332875 -0.871192
vn -0.360859 0.332875 -0.871192
vn -0.360859 0.332875 -0.871192
vn -0.360859 0.332875 -0.871192
vn -0.360859 0.332875 -0.871192
vn 0.871192 0.332875 -0.360859
vn 0.871192 0.332875 -0.360859
vn 0.871192 0.332875 -0.360859
vn 0.871192 0.332875 -0.360859
vn 0.871192 0.332875 -0.360859
vn 0.871192 0.332875 -0.360859
vn 0.360859 0.332875 0.871192
vn 0.360859 0.332875 0.871192
vn 0.360859 0.332875 0.871192
vn 0.360860 0.332875 0.871191
vn 0.360860 0.332875 0.871191
vn 0.360860 0.332875 0.871191
vn -0.360860 0.332875 0.871191
vn -0.360860 0.332875 0.871191
vn -0.360860 0.332875 0.871191
vn -0.360860 0.332875 0.871191
vn -0.360860 0.332875 0.871191
vn -0.360860 0.332875 0.871191
vn -0.871192 0.332875 -0.360859
vn -0.871192 0.332875 -0.360859
vn -0.871192 0.332875 -0.360859
vn -0.871192 0.332875 -0.360859
vn -0.871192 0.332875 -0.360859
vn -0.871192 0.332875 -0.360859
vn 0.360860 0.332875 -0.871191
vn 0.360860 0.332875 -0.871191
vn 0.360860 0.332875 -0.871191
vn 0.360859 0.332875 -0.871192
vn 0.360859 0.332875 -0.871192
vn 0.360859 0.332875 -0.871192
vn 0.871192 0.332875 0.360859
vn 0.871192 0.332875 0.360859
vn 0.871192 0.332875 0.360859
vn 0.871192 0.332875 0.360859
vn 0.871192 0.332875 0.360859
vn 0.871192 0.332875 0.360859
vn -0.000000 -1.000000 0.000000
vn -0.000000 -1.000000 0.000000
vn -0.000000 -1.000000 0.000000
vn -0.000000 -1.000000 0.000000
vn -0.000000 -1.000000 0.000000
vn -0.000000 -1.000000 0.000000
vn -0.000000 -1.000000 0.000000
vn -0.000000 -1.000000 0.000000
vn -0.000000 -1.000000 0.000000
vn -0.000000 -1.000000 0.000000
vn -0.000000 -1.000000 0.000000
vn -0.000000 -1.000000 0.000000
vn -0.000000 -1.000000 0.000000
vn -0.000000 -1.000000 0.000000
vn -0.000000 -1.000000 0.000000
vn -0.000000 -1.000000 0.000000
vn -0.000000 -1.000000 0.000000
vn -0.000000 -1.000000 0.000000
vn -0.907870 0.185353 -0.376052
vn -0.907870 0.185353 -0.376052
vn -0.907870 0.185353 -0.376052
vn -0.907870 0.185353 -0.376052
vn -0.907870 0.185353 -0.376052
vn -0.907870 0.185353 -0.376052
vn 0.907870 0.185353 -0.376052
vn 0.907870 0.185353 -0.376052
vn 0.907870 0.185353 -0.376052
vn 0.907871 0.185353 -0.376052
vn 0.907871 0.185353 -0.376052
vn 0.907871 0.185353 -0.376052
vn 0.376052 0.185353 0.907870
vn 0.376052 0.185353 0.907870
vn 0.376052 0.185353 0.907870
vn 0.376052 0.185353 0.907870
vn 0.376052 0.185353 0.907870
vn 0.376052 0.185353 0.907870
vn -0.907870 0.185353 0.376052
vn -0.907870 0.185353 0.376052
vn -0.907870 0.185353 0.376052
vn -0.907871 0.185353 0.376052
vn -0.907871 0.185353 0.376052
vn -0.907871 0.185353 0.376052
vn -0.376052 0.185353 -0.907871
vn -0.376052 0.185353 -0.907871
vn -0.376052 0.185353 -0.907871
vn -0.376052 0.185353 -0.907870
vn -0.376052 0.185353 -0.907870
vn -0.376052 0.185353 -0.907870
vn 0.376052 0.185353 -0.907870
vn 0.376052 0.185353 -0.907870
vn 0.376052 0.185353 -0.907870
vn 0.376052 0.185353 -0.907870
vn 0.376052 0.185353 -0.907870
vn 0.376052 0.185353 -0.907870
vn 0.907870 0.185353 0.376053
vn 0.907870 0.185353 0.376053
vn 0.907870 0.185353 0.376053
vn 0.907870 0.185353 0.376052
vn 0.907870 0.185353 0.376052
vn 0.907870 0.185353 0.376052
vn -0.376052 0.185353 0.907870
vn -0.376052 0.185353 0.907870
vn -0.376052 0.185353 0.907870
vn -0.376052 0.185353 0.907870
vn -0.376052 0.185353 0.907870
vn -0.376052 0.185353 0.907870
vn 0.382683 0.000000 0.923880
vn 0.382683 0.000000 0.923880
vn 0.382683 0.000000 0.923880
vn 0.382684 0.000000 0.923879
vn 0.382684 0.000000 0.923879
vn 0.382684 0.000000 0.923879
vn -0.923880 0.000000 0.382683
vn -0.923880 0.000000 0.382683
vn -0.923880 0.000000 0.382683
vn -0.923879 0.000000 0.382684
vn -0.923879 0.000000 0.382684
vn -0.923879 0.000000 0.382684
vn -0.382684 0.000000 -0.923879
vn -0.382684 0.000000 -0.923879
vn -0.382684 0.000000 -0.923879
vn -0.382684 0.000000 -0.923879
vn -0.382684 0.000000 -0.923879
vn -0.382684 0.000000 -0.923879
vn 0.382683 0.000000 -0.923880
vn 0.382683 0.000000 -0.923880
vn 0.382683 0.000000 -0.923880
vn 0.382684 0.000000 -0.923879
vn 0.382684 0.000000 -0.923879
vn 0.382684 0.000000 -0.923879
vn 0.923879 0.000000 0.382684
vn 0.923879 0.000000 0.382684
vn 0.923879 0.000000 0.382684
vn 0.923880 0.000000 0.382683
vn 0.923880 0.000000 0.382683
vn 0.923880 0.000000 0.382683
vn -0.382684 0.000000 0.923880
vn -0.382684 0.000000 0.923880
vn -0.382684 0.000000 0.923880
vn -0.382684 0.000000 0.923880
vn -0.382684 0.000000 0.923880
vn -0.382684 0.000000 0.923880
vn -0.923879 0.000000 -0.382684
vn -0.923879 0.000000 -0.382684
vn -0.923879 0.000000 -0.382684
vn -0.923880 0.000000 -0.382683
vn -0.923880 0.000000 -0.382683
vn -0.923880 0.000000 -0.382683
vn 0.923880 0.000000 -0.382684
vn 0.923880 0.000000 -0.382684
vn 0.923880 0.000000 -0.382684
vn 0.923880 0.000000 -0.382683
vn 0.923880 0.000000 -0.382683
vn 0.923880 0.000000 -0.382683
vn 0.871192 -0.332875 -0.360859
vn 0.871192 -0.332875 -0.360859
vn 0.871192 -0.332875 -0.360859
vn 0.871191 -0.332875 -0.360859
vn 0.871191 -0.332875 -0.360859
vn 0.871191 -0.332875 -0.360859
vn 0.360860 -0.332875 0.871192
vn 0.360860 -0.332875 0.871192
vn 0.360860 -0.332875 0.871192
vn 0.360859 -0.332875 0.871192
vn 0.360859 -0.332875 0.871192
vn 0.360859 -0.332875 0.871192
vn -0.871192 -0.332875 0.360859
vn -0.871192 -0.332875 0.360859
vn -0.871192 -0.332875 0.360859
vn -0.871191 -0.332875 0.360860
vn -0.871191 -0.332875 0.360860
vn -0.871191 -0.332875 0.360860
vn -0.360859 -0.332875 -0.871191
vn -0.360859 -0.332875 -0.871191
vn -0.360859 -0.332875 -0.871191
vn -0.360859 -0.332875 -0.871192
vn -0.360859 -0.332875 -0.871192
vn -0.360859 -0.332875 -0.871192
vn 0.360860 -0.332875 -0.871191
vn 0.360860 -0.332875 -0.871191
vn 0.360860 -0.332875 -0.871191
vn 0.360859 -0.332875 -0.871192
vn 0.360859 -0.332875 -0.871192
vn 0.360859 -0.332875 -0.871192
vn 0.871192 -0.332875 0.360859
vn 0.871192 -0.332875 0.360859
vn 0.871192 -0.332875 0.360859
vn 0.871191 -0.332875 0.360859
vn 0.871191 -0.332875 0.360859
vn 0.871191 -0.332875 0.360859
vn -0.360859 -0.332875 0.871192
vn -0.360859 -0.332875 0.871192
vn -0.360859 -0.332875 0.871192
vn -0.360859 -0.332875 0.871191
vn -0.360859 -0.332875 0.871191
vn -0.360859 -0.332875 0.871191
vn -0.871192 -0.332875 -0.360859
vn -0.871192 -0.332875 -0.360859
vn -0.871192 -0.332875 -0.360859
vn -0.871192 -0.332875 -0.360860
vn -0.871192 -0.332875 -0.360860
vn -0.871192 -0.332875 -0.360860
vn -0.000000 1.000000 0.000000
vn -0.000000 1.000000 0.000000
vn -0.000000 1.000000 0.000000
vn 0.000000 1.000000 0.000000
vn 0.000000 1.000000 0.000000
vn 0.000000 1.000000 0.000000
vn -0.000000 1.000000 0.000000
vn -0.000000 1.000000 0.000000
vn -0.000000 1.000000 0.000000
vn 0.000000 1.000000 0.000000
vn 0.000000 1.000000 0.000000
vn 0.000000 1.000000 0.000000
vn -0.000000 1.000000 0.000000
vn -0.000000 1.000000 0.000000
vn -0.000000 1.000000 0.000000
vn -0.000000 1.000000 0.000000
vn -0.000000 1.000000 0.000000
vn -0.000000 1.000000 0.000000
vn -0.000000 1.000000 0.000000
vn -0.000000 1.000000 0.000000
vn -0.000000 1.000000 0.000000
vn -0.000000 1.000000 0.000000
vn -0.000000 1.000000 0.000000
vn -0.000000 1.000000 0.000000
vn -0.000000 1.000000 0.000000
vn -0.000000 1.000000 0.000000
vn -0.000000 1.000000 0.000000
vn -0.000000 1.000000 0.000000
vn -0.000000 1.000000 0.000000
vn -0.000000 1.000000 0.000000
vn -0.000000 1.000000 0.000000
vn -0.000000 1.000000 0.000000
vn -0.000000 1.000000 0.000000
vn -0.000000 1.000000 0.000000
vn -0.000000 1.000000 0.000000
vn -0.000000 1.000000 0.000000
vn -0.000000 1.000000 0.000000
vn -0.000000 1.000000 0.000000
vn -0.000000 1.000000 0.000000
vn -0.000001 1.000000 0.000000
vn -0.000001 1.000000 0.000000
vn -0.000001 1.000000 0.000000
vn -0.000000 1.000000 0.000000
vn -0.000000 1.000000 0.000000
vn -0.000000 1.000000 0.000000
vn -0.000000 1.000000 0.000000
vn -0.000000 1.000000 0.000000
vn -0.000000 1.000000 0.000000
vn -0.000000 1.000000 0.000000
vn -0.000000 1.000000 0.000000
vn -0.000000 1.000000 0.000000
vn -0.000000 1.000000 0.000000
vn -0.000000 1.000000 0.000000
vn -0.000000 1.000000 0.000000
vn -0.000000 1.000000 0.000000
vn -0.000000 1.000000 0.000000
vn -0.000000 1.000000 0.000000
vn -0.000000 1.000000 0.000000
vn -0.000000 1.000000 0.000000
vn -0.000000 1.000000 0.000000
vn -0.000000 1.000000 0.000000
vn -0.000000 1.000000 0.000000
vn -0.000000 1.000000 0.000000
vn -0.000000 1.000000 0.000000
vn -0.000000 1.000000 0.000000
vn -0.000000 1.000000 0.000000
vn -0.000000 -0.000000 -1.000000
vn -0.000000 -0.000000 -1.000000
vn -0.000000 -0.000000 -1.000000
vn -0.000000 -0.000000 -1.000000
vn -0.000000 -0.000000 -1.000000
vn -0.000000 -0.000000 -1.000000
vn -1.000000 0.000000 0.000000
vn -1.000000 0.000000 0.000000
vn -1.000000 0.000000 0.000000
vn -1.000000 0.000000 0.000000
vn -1.000000 0.000000 0.000000
vn -1.000000 0.000000 0.000000

g Material.001
f 3/1/1 1/2/2 2/3/3
f 6/4/4 4/5/5 5/6/6
f 9/7/7 7/8/8 8/9/9
f 12/10/10 10/11/11 11/12/12
f 15/13/13 13/14/14 14/15/15
f 18/16/16 16/17/17 17/18/18
f 21/19/19 19/20/20 20/21/21
f 24/22/22 22/23/23 23/24/24
f 27/25/25 25/26/26 26/27/27
f 30/28/28 28/29/29 29/30/30
f 33/31/31 31/32/32 32/33/33
f 36/34/34 34/35/35 35/36/36
f 39/37/37 37/38/38 38/39/39
f 42/40/40 40/41/41 41/42/42
f 45/43/43 43/44/44 44/45/45
f 48/46/46 46/47/47 47/48/48
f 51/49/49 49/50/50 50/51/51
f 54/52/52 52/53/53 53/54/54
f 57/55/55 55/56/56 56/57/57
f 60/58/58 58/59/59 59/60/60
f 63/61/61 61/62/62 62/63/63
f 66/64/64 64/65/65 65/66/66
f 69/67/67 67/68/68 68/69/69
f 72/70/70 70/71/71 71/72/72
f 75/73/73 73/74/74 74/75/75
f 78/76/76 76/77/77 77/78/78
f 81/79/79 79/80/80 80/81/81
f 84/82/82 82/83/83 83/84/84
f 87/85/85 85/86/86 86/87/87
f 90/88/88 88/89/89 89/90/90
f 93/91/91 91/92/92 92/93/93
f 96/94/94 94/95/95 95/96/96
f 99/97/97 97/98/98 98/99/99
f 102/100/100 100/101/101 101/102/102
f 105/103/103 103/104/104 104/105/105
f 108/106/106 106/107/107 107/108/108
f 111/109/109 109/110/110 110/111/111
f 114/112/112 112/113/113 113/114/114
f 117/115/115 115/116/116 116/117/117
f 120/118/118 118/119/119 119/120/120
f 123/121/121 121/122/122 122/123/123
f 126/124/124 124/125/125 125/126/126
f 129/127/127 127/128/128 128/129/129
f 132/130/130 130/131/131 131/132/132
f 135/133/133 133/134/134 134/135/135
f 138/136/136 136/137/137 137/138/138
f 141/139/139 139/140/140 140/141/141
f 144/142/142 142/143/143 143/144/144
f 147/145/145 145/146/146 146/147/147
f 150/148/148 148/149/149 149/150/150
f 153/151/151 151/152/152 152/153/153
f 156/154/154 154/155/155 155/156/156
f 159/157/157 157/158/158 158/159/159
f 162/160/160 160/161/161 161/162/162
f 165/163/163 163/164/164 164/165/165
f 168/166/166 166/167/167 167/168/168
f 171/169/169 169/170/170 170/171/171
f 174/172/172 172/173/173 173/174/174
f 177/175/175 175/176/176 176/177/177
f 180/178/178 178/179/179 179/180/180
f 183/181/181 181/182/182 182/183/183
f 186/184/184 184/185/185 185/186/186
f 189/187/187 187/188/188 188/189/189
f 192/190/190 190/191/191 191/192/192
f 195/193/193 193/194/194 194/195/195
f 198/196/196 196/197/197 197/198/198
f 201/199/199 199/200/200 200/201/201
f 204/202/202 202/203/203 203/204/204
f 207/205/205 205/206/206 206/207/207
f 210/208/208 208/209/209 209/210/210
f 213/211/211 211/212/212 212/213/213
f 216/214/214 214/215/215 215/216/216
f 219/217/217 217/218/218 218/219/219
f 222/220/220 220/221/221 221/222/222
f 225/223/223 223/224/224 224/225/225
f 228/226/226 226/227/227 227/228/228
f 231/229/229 229/230/230 230/231/231
f 234/232/232 232/233/233 233/234/234
f 237/235/235 235/236/236 236/237/237
f 240/238/238 238/239/239 239/240/240
f 243/241/241 241/242/242 242/243/243
f 246/244/244 244/245/245 245/246/246
f 249/247/247 247/248/248 248/249/249
f 252/250/250 250/251/251 251/252/252
f 255/253/253 253/254/254 254/255/255
f 258/256/256 256/257/257 257/258/258
f 261/259/259 259/260/260 260/261/261
f 264/262/262 262/263/263 263/264/264
f 267/265/265 265/266/266 266/267/267
f 270/268/268 268/269/269 269/270/270
f 273/271/271 271/272/272 272/273/273
f 276/274/274 274/275/275 275/276/276
f 279/277/277 277/278/278 278/279/279
f 282/280/280 280/281/281 281/282/282
f 285/283/283 283/284/284 284/285/285
f 288/286/286 286/287/287 287/288/288
f 291/289/289 289/290/290 290/291/291
f 294/292/292 292/293/293 293/294/294
f 297/295/295 295/296/296 296/297/297
f 300/298/298 298/299/299 299/300/300
f 303/301/301 301/302/302 302/303/303
f 306/304/304 304/305/305 305/306/306
f 309/307/307 307/308/308 308/309/309
f 312/310/310 310/311/311 311/312/312
f 315/313/313 313/314/314 314/315/315
f 318/316/316 316/317/317 317/318/318
f 321/319/319 319/320/320 320/321/321
f 324/322/322 322/323/323 323/324/324
f 327/325/325 325/326/326 326/327/327
f 330/328/328 328/329/329 329/330/330
f 333/331/331 331/332/332 332/333/333
f 336/334/334 334/335/335 335/336/336
f 339/337/337 337/338/338 338/339/339
f 342/340/340 340/341/341 341/342/342
f 345/343/343 343/344/344 344/345/345
f 348/346/346 346/347/347 347/348/348
f 351/349/349 349/350/350 350/351/351
f 354/352/352 352/353/353 353/354/354
f 357/355/355 355/356/356 356/357/357
f 360/358/358 358/359/359 359/360/360
f 363/361/361 361/362/362 362/363/363
f 366/364/364 364/365/365 365/366/366
f 369/367/367 367/368/368 368/369/369
f 372/370/370 370/371/371 371/372/372

g Material.002
f 375/373/373 373/374/374 374/375/375
f 378/376/376 376/377/377 377/378/378
f 381/379/379 379/380/380 380/381/381
f 384/382/382 382/383/383 383/384/384

