# Converted from B3D for Luanti (With Correct Normals)
# Object Name: multidecor_dark_rusty_fence

v -1.800000 0.266667 1.700000
v -1.800000 1.000000 1.700000
v -1.729289 1.000000 1.729289
v -1.729289 0.266667 1.729289
v -1.700000 0.266667 1.800000
v -1.700000 1.000000 1.800000
v -1.729289 1.000000 1.870711
v -1.729289 0.266667 1.870711
v -1.729289 0.266667 1.870711
v -1.729289 1.000000 1.870711
v -1.800000 1.000000 1.900000
v -1.800000 0.266667 1.900000
v -1.800000 0.266667 1.900000
v -1.800000 1.000000 1.900000
v -1.870711 1.000000 1.870711
v -1.870711 0.266667 1.870711
v -1.870711 0.266667 1.870711
v -1.870711 1.000000 1.870711
v -1.900000 1.000000 1.800000
v -1.900000 0.266667 1.800000
v -1.700000 1.000000 1.800000
v -1.800000 1.000000 1.700000
v -1.900000 1.000000 1.800000
v -1.900000 0.266667 1.800000
v -1.900000 1.000000 1.800000
v -1.870711 1.000000 1.729289
v -1.870711 0.266667 1.729289
v -1.870711 0.266667 1.729289
v -1.870711 1.000000 1.729289
v -1.800000 1.000000 1.700000
v -1.800000 0.266667 1.700000
v -1.729289 -1.000000 1.870711
v -1.870711 -1.000000 1.870711
v -1.870711 -1.000000 1.729289
v -1.729289 0.900000 1.750000
v -0.070710 0.900000 1.750000
v -0.070710 0.864645 1.764645
v -1.729289 0.864645 1.764645
v -1.729289 0.864645 1.764645
v -0.070710 0.864645 1.764645
v -0.070710 0.850000 1.800000
v -1.729289 0.850000 1.800000
v -1.729289 0.850000 1.800000
v -0.070710 0.850000 1.800000
v -0.070710 0.864645 1.835355
v -1.729289 0.864645 1.835355
v -1.729289 0.864645 1.835355
v -0.070710 0.864645 1.835355
v -0.070710 0.900000 1.850000
v -1.729289 0.900000 1.850000
v -1.729289 0.900000 1.850000
v -0.070710 0.900000 1.850000
v -0.070710 0.935355 1.835355
v -1.729289 0.935355 1.835355
v -1.729289 0.935355 1.835355
v -0.070710 0.935355 1.835355
v -0.070710 0.950000 1.800000
v -1.729289 0.950000 1.800000
v -1.729289 0.950000 1.800000
v -0.070710 0.950000 1.800000
v -0.070710 0.935355 1.764645
v -1.729289 0.935355 1.764645
v -1.729289 0.935355 1.764645
v -0.070710 0.935355 1.764645
v -0.070710 0.900000 1.750000
v -1.729289 0.900000 1.750000
v 0.000000 0.266667 1.700000
v 0.000000 1.000000 1.700000
v 0.070711 1.000000 1.729289
v 0.070711 0.266667 1.729289
v 0.070711 0.266667 1.729289
v 0.070711 1.000000 1.729289
v 0.100000 1.000000 1.800000
v 0.100000 0.266667 1.800000
v 0.100000 0.266667 1.800000
v 0.100000 1.000000 1.800000
v 0.070711 1.000000 1.870711
v 0.070711 0.266667 1.870711
v 0.070711 0.266667 1.870711
v 0.070711 1.000000 1.870711
v 0.000000 1.000000 1.900000
v 0.000000 0.266667 1.900000
v 0.000000 0.266667 1.900000
v 0.000000 1.000000 1.900000
v -0.070711 1.000000 1.870711
v -0.070711 0.266667 1.870711
v -0.070711 0.266667 1.870711
v -0.070711 1.000000 1.870711
v -0.100000 1.000000 1.800000
v -0.100000 0.266667 1.800000
v -0.100000 1.000000 1.800000
v 0.000000 1.000000 1.900000
v 0.100000 1.000000 1.800000
v -0.070711 0.266667 1.729289
v -0.070711 1.000000 1.729289
v 0.000000 1.000000 1.700000
v 0.000000 0.266667 1.700000
v -0.070711 -1.000000 1.870711
v -0.100000 -1.000000 1.800000
v -0.070711 -1.000000 1.729289
v -1.700000 1.000000 1.800000
v -1.729289 1.000000 1.729289
v -1.800000 1.000000 1.700000
v -1.800000 1.000000 1.700000
v -1.870711 1.000000 1.729289
v -1.900000 1.000000 1.800000
v -1.900000 1.000000 1.800000
v -1.870711 1.000000 1.870711
v -1.800000 1.000000 1.900000
v -1.800000 1.000000 1.900000
v -1.729289 1.000000 1.870711
v -1.900000 1.000000 1.800000
v -1.729289 1.000000 1.870711
v -1.700000 1.000000 1.800000
v -1.900000 1.000000 1.800000
v -1.870711 -1.000000 1.729289
v -1.800000 -1.000000 1.700000
v -1.729289 -1.000000 1.729289
v -1.729289 -1.000000 1.729289
v -1.700000 -1.000000 1.800000
v -1.729289 -1.000000 1.870711
v -1.729289 -1.000000 1.870711
v -1.800000 -1.000000 1.900000
v -1.870711 -1.000000 1.870711
v -1.870711 -1.000000 1.870711
v -1.900000 -1.000000 1.800000
v -1.870711 -1.000000 1.729289
v -1.870711 -1.000000 1.729289
v -1.729289 -1.000000 1.729289
v -1.729289 -1.000000 1.870711
v 0.100000 1.000000 1.800000
v 0.070711 1.000000 1.729289
v 0.000000 1.000000 1.700000
v 0.000000 1.000000 1.700000
v -0.070711 1.000000 1.729289
v -0.100000 1.000000 1.800000
v -0.100000 1.000000 1.800000
v -0.070711 1.000000 1.870711
v 0.000000 1.000000 1.900000
v 0.000000 1.000000 1.900000
v 0.070711 1.000000 1.870711
v 0.100000 1.000000 1.800000
v 0.100000 1.000000 1.800000
v 0.000000 1.000000 1.700000
v -0.100000 1.000000 1.800000
v -0.070711 -1.000000 1.729289
v 0.000000 -1.000000 1.700000
v 0.070711 -1.000000 1.870711
v 0.000000 -1.000000 1.700000
v 0.070711 -1.000000 1.729289
v 0.070711 -1.000000 1.870711
v 0.070711 -1.000000 1.729289
v 0.100000 -1.000000 1.800000
v 0.070711 -1.000000 1.870711
v 0.070711 -1.000000 1.870711
v 0.000000 -1.000000 1.900000
v -0.070711 -1.000000 1.729289
v 0.000000 -1.000000 1.900000
v -0.070711 -1.000000 1.870711
v -0.070711 -1.000000 1.729289
v -1.729289 -0.700000 1.750000
v -0.070710 -0.700000 1.750000
v -0.070710 -0.735355 1.764645
v -1.729289 -0.735355 1.764645
v -1.729289 -0.735355 1.764645
v -0.070710 -0.735355 1.764645
v -0.070710 -0.750000 1.800000
v -1.729289 -0.750000 1.800000
v -1.729289 -0.750000 1.800000
v -0.070710 -0.750000 1.800000
v -0.070710 -0.735355 1.835355
v -1.729289 -0.735355 1.835355
v -1.729289 -0.735355 1.835355
v -0.070710 -0.735355 1.835355
v -0.070710 -0.700000 1.850000
v -1.729289 -0.700000 1.850000
v -1.729289 -0.700000 1.850000
v -0.070710 -0.700000 1.850000
v -0.070710 -0.664645 1.835355
v -1.729289 -0.664645 1.835355
v -1.729289 -0.664645 1.835355
v -0.070710 -0.664645 1.835355
v -0.070710 -0.650000 1.800000
v -1.729289 -0.650000 1.800000
v -1.729289 -0.650000 1.800000
v -0.070710 -0.650000 1.800000
v -0.070710 -0.664645 1.764645
v -1.729289 -0.664645 1.764645
v -1.729289 -0.664645 1.764645
v -0.070710 -0.664645 1.764645
v -0.070710 -0.700000 1.750000
v -1.729289 -0.700000 1.750000
v -1.729289 -0.650000 1.800000
v -1.729289 0.850000 1.800000
v -0.070710 0.850000 1.800000
v -0.070710 -0.650000 1.800000
v -0.070711 1.000000 1.729289
v -0.070711 0.266667 1.729289
v -0.085355 0.266667 1.764645
v -1.700000 1.000000 1.800000
v -1.700000 0.266667 1.800000
v -1.714645 0.266667 1.764645
v -0.085355 -0.066667 1.764645
v -0.070711 -0.066667 1.729289
v -0.070711 -1.000000 1.729289
v -0.070711 -1.000000 1.729289
v -0.070711 -0.066667 1.729289
v 0.000000 -0.066667 1.700000
v 0.000000 -1.000000 1.700000
v -0.070711 -0.066667 1.729289
v -0.070711 0.266667 1.729289
v 0.000000 0.266667 1.700000
v 0.000000 -0.066667 1.700000
v -0.070711 -1.000000 1.870711
v -0.070711 -0.066667 1.870711
v -0.100000 -0.066667 1.800000
v -0.100000 -1.000000 1.800000
v -0.070711 -0.066667 1.870711
v -0.070711 0.266667 1.870711
v -0.100000 0.266667 1.800000
v -0.100000 -0.066667 1.800000
v 0.000000 -1.000000 1.900000
v 0.000000 -0.066667 1.900000
v -0.070711 -0.066667 1.870711
v -0.070711 -1.000000 1.870711
v 0.000000 -0.066667 1.900000
v 0.000000 0.266667 1.900000
v -0.070711 0.266667 1.870711
v -0.070711 -0.066667 1.870711
v 0.070711 -1.000000 1.870711
v 0.070711 -0.066667 1.870711
v 0.000000 -0.066667 1.900000
v 0.000000 -1.000000 1.900000
v 0.070711 -0.066667 1.870711
v 0.070711 0.266667 1.870711
v 0.000000 0.266667 1.900000
v 0.000000 -0.066667 1.900000
v 0.100000 -1.000000 1.800000
v 0.100000 -0.066667 1.800000
v 0.070711 -0.066667 1.870711
v 0.070711 -1.000000 1.870711
v 0.100000 -0.066667 1.800000
v 0.100000 0.266667 1.800000
v 0.070711 0.266667 1.870711
v 0.070711 -0.066667 1.870711
v 0.070711 -1.000000 1.729289
v 0.070711 -0.066667 1.729289
v 0.100000 -0.066667 1.800000
v 0.100000 -1.000000 1.800000
v 0.070711 -0.066667 1.729289
v 0.070711 0.266667 1.729289
v 0.100000 0.266667 1.800000
v 0.100000 -0.066667 1.800000
v 0.000000 -1.000000 1.700000
v 0.000000 -0.066667 1.700000
v 0.070711 -0.066667 1.729289
v 0.070711 -1.000000 1.729289
v 0.000000 -0.066667 1.700000
v 0.000000 0.266667 1.700000
v 0.070711 0.266667 1.729289
v 0.070711 -0.066667 1.729289
v -1.714645 -0.066667 1.764645
v -1.700000 -0.066667 1.800000
v -1.700000 -1.000000 1.800000
v -1.870711 -1.000000 1.729289
v -1.870711 -0.066667 1.729289
v -1.800000 -0.066667 1.700000
v -1.800000 -1.000000 1.700000
v -1.870711 -0.066667 1.729289
v -1.870711 0.266667 1.729289
v -1.800000 0.266667 1.700000
v -1.800000 -0.066667 1.700000
v -1.900000 -1.000000 1.800000
v -1.900000 -0.066667 1.800000
v -1.870711 -0.066667 1.729289
v -1.870711 -1.000000 1.729289
v -1.900000 -0.066667 1.800000
v -1.900000 0.266667 1.800000
v -1.870711 0.266667 1.729289
v -1.870711 -0.066667 1.729289
v -1.870711 -1.000000 1.870711
v -1.870711 -0.066667 1.870711
v -1.900000 -0.066667 1.800000
v -1.900000 -1.000000 1.800000
v -1.870711 -0.066667 1.870711
v -1.870711 0.266667 1.870711
v -1.900000 0.266667 1.800000
v -1.900000 -0.066667 1.800000
v -1.800000 -1.000000 1.900000
v -1.800000 -0.066667 1.900000
v -1.870711 -0.066667 1.870711
v -1.870711 -1.000000 1.870711
v -1.800000 -0.066667 1.900000
v -1.800000 0.266667 1.900000
v -1.870711 0.266667 1.870711
v -1.870711 -0.066667 1.870711
v -1.729289 -1.000000 1.870711
v -1.729289 -0.066667 1.870711
v -1.800000 -0.066667 1.900000
v -1.800000 -1.000000 1.900000
v -1.729289 -0.066667 1.870711
v -1.729289 0.266667 1.870711
v -1.800000 0.266667 1.900000
v -1.800000 -0.066667 1.900000
v -1.700000 -1.000000 1.800000
v -1.700000 -0.066667 1.800000
v -1.729289 -0.066667 1.870711
v -1.729289 -1.000000 1.870711
v -1.700000 -0.066667 1.800000
v -1.700000 0.266667 1.800000
v -1.729289 0.266667 1.870711
v -1.729289 -0.066667 1.870711
v -1.800000 -1.000000 1.700000
v -1.800000 -0.066667 1.700000
v -1.729289 -0.066667 1.729289
v -1.729289 -1.000000 1.729289
v -1.800000 -0.066667 1.700000
v -1.800000 0.266667 1.700000
v -1.729289 0.266667 1.729289
v -1.729289 -0.066667 1.729289
v -0.070711 -0.066667 1.729289
v -1.729289 -0.066667 1.729289
v -1.729289 0.266667 1.729289
v -0.070711 0.266667 1.729289
v -1.714645 0.266667 1.764645
v -1.714645 -0.066667 1.764645
v -0.085355 -0.066667 1.764645
v -0.085355 0.266667 1.764645
v -0.085355 -0.066667 1.764645
v -1.714645 -0.066667 1.764645
v -1.729289 -0.066667 1.729289
v -0.070711 -0.066667 1.729289
v -0.085355 0.266667 1.764645
v -0.070711 0.266667 1.729289
v -1.729289 0.266667 1.729289
v -1.714645 0.266667 1.764645
v -0.100000 -0.066667 1.800000
v -0.100000 0.266667 1.800000
v -0.085355 0.266667 1.764645
v -0.085355 -0.066667 1.764645
v -1.700000 -0.066667 1.800000
v -1.714645 -0.066667 1.764645
v -1.714645 0.266667 1.764645
v -1.700000 0.266667 1.800000
v -0.085355 0.266667 1.764645
v -0.100000 0.266667 1.800000
v -0.100000 1.000000 1.800000
v -0.100000 1.000000 1.800000
v -0.070711 1.000000 1.729289
v -0.085355 0.266667 1.764645
v -1.714645 0.266667 1.764645
v -1.729289 0.266667 1.729289
v -1.729289 1.000000 1.729289
v -1.729289 1.000000 1.729289
v -1.700000 1.000000 1.800000
v -1.714645 0.266667 1.764645
v -0.070711 -1.000000 1.729289
v -0.100000 -1.000000 1.800000
v -0.085355 -0.066667 1.764645
v -0.100000 -1.000000 1.800000
v -0.100000 -0.066667 1.800000
v -0.085355 -0.066667 1.764645
v -1.700000 -1.000000 1.800000
v -1.729289 -1.000000 1.729289
v -1.714645 -0.066667 1.764645
v -1.729289 -1.000000 1.729289
v -1.729289 -0.066667 1.729289
v -1.714645 -0.066667 1.764645

vt 0.319703 0.437835
vt 0.261166 0.998708
vt 0.261165 0.437835
vt 0.319703 0.998708
vt 0.261166 0.998708
vt 0.319703 0.437835
vt 0.436778 0.437835
vt 0.378241 0.998708
vt 0.378240 0.437835
vt 0.436778 0.998708
vt 0.378241 0.998708
vt 0.436778 0.437835
vt 0.495315 0.437835
vt 0.436778 0.998708
vt 0.436778 0.437835
vt 0.495315 0.998708
vt 0.436778 0.998708
vt 0.495315 0.437835
vt 0.085553 0.437835
vt 0.027016 0.998708
vt 0.027016 0.437835
vt 0.085553 0.998708
vt 0.027016 0.998708
vt 0.085553 0.437835
vt 0.144091 0.437835
vt 0.085553 0.998708
vt 0.085553 0.437835
vt 0.144091 0.998708
vt 0.085553 0.998708
vt 0.144091 0.437835
vt 0.620985 0.384247
vt 0.762307 0.325710
vt 0.720915 0.425639
vt 0.202628 0.437835
vt 0.144091 0.998708
vt 0.144091 0.437835
vt 0.202628 0.998708
vt 0.144091 0.998708
vt 0.202628 0.437835
vt 0.261165 0.437835
vt 0.202628 0.998708
vt 0.202628 0.437835
vt 0.261166 0.998708
vt 0.202628 0.998708
vt 0.261165 0.437835
vt 0.762307 0.183718
vt 0.620985 0.242256
vt 0.662377 0.142326
vt 0.999387 0.970385
vt -0.000878 0.941123
vt 0.999387 0.941117
vt -0.000878 0.970394
vt -0.000878 0.941123
vt 0.999387 0.970385
vt 0.999387 0.999653
vt -0.000878 0.970394
vt 0.999387 0.970385
vt -0.000878 0.999665
vt -0.000878 0.970394
vt 0.999387 0.999653
vt 0.999387 0.794778
vt -0.000877 0.765496
vt 0.999387 0.765510
vt -0.000878 0.794767
vt -0.000877 0.765496
vt 0.999387 0.794778
vt 0.999387 0.824046
vt -0.000878 0.794767
vt 0.999387 0.794778
vt -0.000878 0.824038
vt -0.000878 0.794767
vt 0.999387 0.824046
vt 0.999387 0.853314
vt -0.000878 0.824038
vt 0.999387 0.824046
vt -0.000878 0.853310
vt -0.000878 0.824038
vt 0.999387 0.853314
vt 0.999387 0.882582
vt -0.000878 0.853310
vt 0.999387 0.853314
vt -0.000878 0.882581
vt -0.000878 0.853310
vt 0.999387 0.882582
vt 0.999387 0.911850
vt -0.000878 0.882581
vt 0.999387 0.882582
vt -0.000878 0.911852
vt -0.000878 0.882581
vt 0.999387 0.911850
vt 0.999387 0.941117
vt -0.000878 0.911852
vt 0.999387 0.911850
vt -0.000878 0.941123
vt -0.000878 0.911852
vt 0.999387 0.941117
vt 0.288233 0.437835
vt 0.229695 0.998709
vt 0.229695 0.437835
vt 0.288232 0.998709
vt 0.229695 0.998709
vt 0.288233 0.437835
vt 0.346770 0.437835
vt 0.288232 0.998709
vt 0.288233 0.437835
vt 0.346770 0.998709
vt 0.288232 0.998709
vt 0.346770 0.437835
vt 0.405308 0.437835
vt 0.346770 0.998709
vt 0.346770 0.437835
vt 0.405307 0.998709
vt 0.346770 0.998709
vt 0.405308 0.437835
vt 0.463845 0.437835
vt 0.405307 0.998709
vt 0.405308 0.437835
vt 0.463845 0.998709
vt 0.405307 0.998709
vt 0.463845 0.437835
vt 0.054083 0.437835
vt -0.004455 0.998708
vt -0.004454 0.437835
vt 0.054082 0.998708
vt -0.004455 0.998708
vt 0.054083 0.437835
vt 0.112620 0.437835
vt 0.054082 0.998708
vt 0.054083 0.437835
vt 0.112620 0.998708
vt 0.054082 0.998708
vt 0.112620 0.437835
vt 0.662377 0.426309
vt 0.720914 0.567630
vt 0.620985 0.526238
vt 0.229695 0.437835
vt 0.171158 0.998708
vt 0.171158 0.437835
vt 0.229695 0.998709
vt 0.171158 0.998708
vt 0.229695 0.437835
vt 0.762307 0.100264
vt 0.720915 0.000335
vt 0.762307 0.041727
vt 0.720915 0.425639
vt 0.762307 0.325710
vt 0.762307 0.384247
vt 0.620985 0.384247
vt 0.720915 0.425639
vt 0.662377 0.425639
vt 0.662377 0.284317
vt 0.620985 0.384247
vt 0.620985 0.325710
vt 0.620985 0.384247
vt 0.662377 0.284317
vt 0.720915 0.284317
vt 0.620985 0.384247
vt 0.720915 0.284317
vt 0.762307 0.325710
vt 0.720915 0.283648
vt 0.762307 0.183718
vt 0.762307 0.242256
vt 0.620985 0.242256
vt 0.720915 0.283648
vt 0.662377 0.283648
vt 0.662377 0.142326
vt 0.620985 0.242256
vt 0.620985 0.183718
vt 0.762307 0.183718
vt 0.662377 0.142326
vt 0.720915 0.142326
vt 0.620985 0.242256
vt 0.762307 0.183718
vt 0.720915 0.283648
vt 0.762307 0.467701
vt 0.662377 0.426309
vt 0.720915 0.426309
vt 0.720914 0.567630
vt 0.762307 0.467701
vt 0.762307 0.526238
vt 0.620985 0.526238
vt 0.720914 0.567630
vt 0.662377 0.567630
vt 0.662377 0.426309
vt 0.620985 0.526238
vt 0.620985 0.467701
vt 0.720914 0.567630
vt 0.662377 0.426309
vt 0.762307 0.467701
vt 0.620985 0.041727
vt 0.762307 0.100264
vt 0.720915 0.141657
vt 0.620985 0.041727
vt 0.720915 0.141657
vt 0.662377 0.141657
vt 0.620985 0.041727
vt 0.662377 0.141657
vt 0.620985 0.100264
vt 0.762307 0.100264
vt 0.620985 0.041727
vt 0.662377 0.000335
vt 0.762307 0.100264
vt 0.662377 0.000335
vt 0.720915 0.000335
vt 0.996457 0.555975
vt -0.000549 0.526700
vt 0.996457 0.526707
vt -0.000549 0.555971
vt -0.000549 0.526700
vt 0.996457 0.555975
vt 0.996457 0.585243
vt -0.000549 0.555971
vt 0.996457 0.555975
vt -0.000549 0.585242
vt -0.000549 0.555971
vt 0.996457 0.585243
vt 0.996457 0.614511
vt -0.000549 0.585242
vt 0.996457 0.585243
vt -0.000549 0.614513
vt -0.000549 0.585242
vt 0.996457 0.614511
vt 0.996457 0.643779
vt -0.000549 0.614513
vt 0.996457 0.614511
vt -0.000549 0.643784
vt -0.000549 0.614513
vt 0.996457 0.643779
vt 0.996457 0.673047
vt -0.000549 0.643784
vt 0.996457 0.643779
vt -0.000549 0.673055
vt -0.000549 0.643784
vt 0.996457 0.673047
vt 0.996457 0.702315
vt -0.000549 0.673055
vt 0.996457 0.673047
vt -0.000549 0.702327
vt -0.000549 0.673055
vt 0.996457 0.702315
vt 0.996457 0.497439
vt -0.000548 0.468157
vt 0.996457 0.468172
vt -0.000548 0.497428
vt -0.000548 0.468157
vt 0.996457 0.497439
vt 0.996457 0.526707
vt -0.000548 0.497428
vt 0.996457 0.497439
vt -0.000549 0.526700
vt -0.000548 0.497428
vt 0.996457 0.526707
vt 0.141889 0.998708
vt 0.171158 0.437835
vt 0.171158 0.998708
vt 0.348972 0.998708
vt 0.378240 0.437835
vt 0.378241 0.998708
vt 0.671157 0.967487
vt 0.641889 0.253652
vt 0.671158 0.253652
vt 0.729695 0.253651
vt 0.671157 0.967487
vt 0.671158 0.253652
vt 0.729695 0.967488
vt 0.671157 0.967487
vt 0.729695 0.253651
vt 0.729695 -0.001291
vt 0.671158 0.253652
vt 0.671158 -0.001292
vt 0.729695 0.253651
vt 0.671158 0.253652
vt 0.729695 -0.001291
vt 0.612620 0.253652
vt 0.554082 0.967487
vt 0.554083 0.253652
vt 0.612620 0.967487
vt 0.554082 0.967487
vt 0.612620 0.253652
vt 0.612620 -0.001292
vt 0.554083 0.253652
vt 0.554082 -0.001292
vt 0.612620 0.253652
vt 0.554083 0.253652
vt 0.612620 -0.001292
vt 0.554083 0.253652
vt 0.495545 0.967487
vt 0.495545 0.253652
vt 0.554082 0.967487
vt 0.495545 0.967487
vt 0.554083 0.253652
vt 0.554082 -0.001292
vt 0.495545 0.253652
vt 0.495545 -0.001292
vt 0.554083 0.253652
vt 0.495545 0.253652
vt 0.554082 -0.001292
vt 0.963844 0.253651
vt 0.905308 0.967488
vt 0.905307 0.253651
vt 0.963845 0.967488
vt 0.905308 0.967488
vt 0.963844 0.253651
vt 0.963845 -0.001291
vt 0.905307 0.253651
vt 0.905307 -0.001291
vt 0.963844 0.253651
vt 0.905307 0.253651
vt 0.963845 -0.001291
vt 0.905307 0.253651
vt 0.846770 0.967488
vt 0.846770 0.253651
vt 0.905308 0.967488
vt 0.846770 0.967488
vt 0.905307 0.253651
vt 0.905307 -0.001291
vt 0.846770 0.253651
vt 0.846770 -0.001291
vt 0.905307 0.253651
vt 0.846770 0.253651
vt 0.905307 -0.001291
vt 0.846770 0.253651
vt 0.788232 0.967488
vt 0.788233 0.253651
vt 0.846770 0.967488
vt 0.788232 0.967488
vt 0.846770 0.253651
vt 0.846770 -0.001291
vt 0.788233 0.253651
vt 0.788232 -0.001291
vt 0.846770 0.253651
vt 0.788233 0.253651
vt 0.846770 -0.001291
vt 0.788233 0.253651
vt 0.729695 0.967488
vt 0.729695 0.253651
vt 0.788232 0.967488
vt 0.729695 0.967488
vt 0.788233 0.253651
vt 0.788232 -0.001291
vt 0.729695 0.253651
vt 0.729695 -0.001291
vt 0.788233 0.253651
vt 0.729695 0.253651
vt 0.788232 -0.001291
vt 0.878240 0.967487
vt 0.848972 0.253651
vt 0.878241 0.253651
vt 0.761165 0.253651
vt 0.702628 0.967487
vt 0.702628 0.253651
vt 0.761165 0.967487
vt 0.702628 0.967487
vt 0.761165 0.253651
vt 0.761166 -0.001292
vt 0.702628 0.253651
vt 0.702628 -0.001292
vt 0.761165 0.253651
vt 0.702628 0.253651
vt 0.761166 -0.001292
vt 0.702628 0.253651
vt 0.644090 0.967487
vt 0.644091 0.253651
vt 0.702628 0.967487
vt 0.644090 0.967487
vt 0.702628 0.253651
vt 0.702628 -0.001292
vt 0.644091 0.253651
vt 0.644091 -0.001292
vt 0.702628 0.253651
vt 0.644091 0.253651
vt 0.702628 -0.001292
vt 0.644091 0.253651
vt 0.585552 0.967487
vt 0.585554 0.253651
vt 0.644090 0.967487
vt 0.585552 0.967487
vt 0.644091 0.253651
vt 0.644091 -0.001292
vt 0.585554 0.253651
vt 0.585553 -0.001292
vt 0.644091 0.253651
vt 0.585554 0.253651
vt 0.644091 -0.001292
vt 0.585554 0.253651
vt 0.527015 0.967487
vt 0.527016 0.253651
vt 0.585552 0.967487
vt 0.527015 0.967487
vt 0.585554 0.253651
vt 0.585553 -0.001292
vt 0.527016 0.253651
vt 0.527016 -0.001292
vt 0.585554 0.253651
vt 0.527016 0.253651
vt 0.585553 -0.001292
vt 0.995315 0.253651
vt 0.936778 0.967487
vt 0.936778 0.253651
vt 0.995315 0.967487
vt 0.936778 0.967487
vt 0.995315 0.253651
vt 0.995315 -0.001292
vt 0.936778 0.253651
vt 0.936778 -0.001292
vt 0.995315 0.253651
vt 0.936778 0.253651
vt 0.995315 -0.001292
vt 0.936778 0.253651
vt 0.878240 0.967487
vt 0.878241 0.253651
vt 0.936778 0.967487
vt 0.878240 0.967487
vt 0.936778 0.253651
vt 0.936778 -0.001292
vt 0.878241 0.253651
vt 0.878241 -0.001292
vt 0.936778 0.253651
vt 0.878241 0.253651
vt 0.936778 -0.001292
vt 0.819703 0.253651
vt 0.761165 0.967487
vt 0.761165 0.253651
vt 0.819703 0.967487
vt 0.761165 0.967487
vt 0.819703 0.253651
vt 0.819703 -0.001292
vt 0.761165 0.253651
vt 0.761166 -0.001292
vt 0.819703 0.253651
vt 0.761165 0.253651
vt 0.819703 -0.001292
vt 0.641889 -0.001292
vt 0.612620 0.253652
vt 0.612620 -0.001292
vt 0.641889 0.253652
vt 0.612620 0.253652
vt 0.641889 -0.001292
vt 0.848972 -0.001292
vt 0.878241 0.253651
vt 0.848972 0.253651
vt 0.878241 -0.001292
vt 0.878241 0.253651
vt 0.848972 -0.001292
vt 0.112620 0.437835
vt 0.141889 0.998708
vt 0.112620 0.998708
vt 0.141889 0.998708
vt 0.112620 0.437835
vt 0.171158 0.437835
vt 0.319703 0.437835
vt 0.348972 0.998708
vt 0.319703 0.998708
vt 0.348972 0.998708
vt 0.319703 0.437835
vt 0.378240 0.437835
vt 0.641889 0.253652
vt 0.671157 0.967487
vt 0.612620 0.967487
vt 0.641889 0.253652
vt 0.612620 0.967487
vt 0.612620 0.253652
vt 0.848972 0.253651
vt 0.878240 0.967487
vt 0.819703 0.967487
vt 0.848972 0.253651
vt 0.819703 0.967487
vt 0.819703 0.253651
vt 0.997963 0.525177
vt -0.004968 0.474824
vt 0.471321 -0.001466
vt 0.521674 1.001466
vt -0.004968 0.474824
vt 0.997963 0.525177
vt 0.999933 0.444592
vt 0.000067 0.243646
vt 0.999933 0.243644
vt 0.000067 0.444595
vt 0.000067 0.243646
vt 0.999933 0.444592
vt 0.008897 0.222329
vt 0.991105 0.021382
vt 0.991104 0.222330
vt 0.008897 0.021381
vt 0.991105 0.021382
vt 0.008897 0.222329
vt 0.999933 0.243644
vt 0.008897 0.222329
vt 0.991104 0.222330
vt 0.000067 0.243646
vt 0.008897 0.222329
vt 0.999933 0.243644
vt 0.999933 0.000067
vt 0.008897 0.021381
vt 0.000069 0.000067
vt 0.991105 0.021382
vt 0.008897 0.021381
vt 0.999933 0.000067

vn 0.382683 0.000000 -0.923880
vn 0.382683 0.000000 -0.923880
vn 0.382683 0.000000 -0.923880
vn 0.382682 -0.000000 -0.923880
vn 0.382682 -0.000000 -0.923880
vn 0.382682 -0.000000 -0.923880
vn 0.923881 0.000000 0.382680
vn 0.923881 0.000000 0.382680
vn 0.923881 0.000000 0.382680
vn 0.923878 -0.000000 0.382687
vn 0.923878 -0.000000 0.382687
vn 0.923878 -0.000000 0.382687
vn 0.382682 -0.000000 0.923880
vn 0.382682 -0.000000 0.923880
vn 0.382682 -0.000000 0.923880
vn 0.382683 0.000000 0.923880
vn 0.382683 0.000000 0.923880
vn 0.382683 0.000000 0.923880
vn -0.382683 0.000000 0.923880
vn -0.382683 0.000000 0.923880
vn -0.382683 0.000000 0.923880
vn -0.382685 0.000000 0.923879
vn -0.382685 0.000000 0.923879
vn -0.382685 0.000000 0.923879
vn -0.923879 0.000000 0.382684
vn -0.923879 0.000000 0.382684
vn -0.923879 0.000000 0.382684
vn -0.923881 0.000000 0.382681
vn -0.923881 0.000000 0.382681
vn -0.923881 0.000000 0.382681
vn -0.000000 1.000000 0.000000
vn -0.000000 1.000000 0.000000
vn -0.000000 1.000000 0.000000
vn -0.923881 0.000000 -0.382681
vn -0.923881 0.000000 -0.382681
vn -0.923881 0.000000 -0.382681
vn -0.923879 0.000000 -0.382684
vn -0.923879 0.000000 -0.382684
vn -0.923879 0.000000 -0.382684
vn -0.382683 0.000000 -0.923880
vn -0.382683 0.000000 -0.923880
vn -0.382683 0.000000 -0.923880
vn -0.382682 0.000000 -0.923880
vn -0.382682 0.000000 -0.923880
vn -0.382682 0.000000 -0.923880
vn -0.000000 -1.000000 0.000000
vn -0.000000 -1.000000 0.000000
vn -0.000000 -1.000000 0.000000
vn -0.000000 -0.382687 -0.923878
vn -0.000000 -0.382687 -0.923878
vn -0.000000 -0.382687 -0.923878
vn -0.000000 -0.382687 -0.923878
vn -0.000000 -0.382687 -0.923878
vn -0.000000 -0.382687 -0.923878
vn -0.000000 -0.923879 -0.382684
vn -0.000000 -0.923879 -0.382684
vn -0.000000 -0.923879 -0.382684
vn -0.000000 -0.923879 -0.382684
vn -0.000000 -0.923879 -0.382684
vn -0.000000 -0.923879 -0.382684
vn -0.000000 -0.923879 0.382684
vn -0.000000 -0.923879 0.382684
vn -0.000000 -0.923879 0.382684
vn -0.000000 -0.923879 0.382684
vn -0.000000 -0.923879 0.382684
vn -0.000000 -0.923879 0.382684
vn -0.000000 -0.382687 0.923878
vn -0.000000 -0.382687 0.923878
vn -0.000000 -0.382687 0.923878
vn 0.000000 -0.382687 0.923878
vn 0.000000 -0.382687 0.923878
vn 0.000000 -0.382687 0.923878
vn 0.000000 0.382687 0.923878
vn 0.000000 0.382687 0.923878
vn 0.000000 0.382687 0.923878
vn -0.000000 0.382687 0.923878
vn -0.000000 0.382687 0.923878
vn -0.000000 0.382687 0.923878
vn -0.000000 0.923880 0.382683
vn -0.000000 0.923880 0.382683
vn -0.000000 0.923880 0.382683
vn -0.000000 0.923880 0.382683
vn -0.000000 0.923880 0.382683
vn -0.000000 0.923880 0.382683
vn -0.000000 0.923880 -0.382683
vn -0.000000 0.923880 -0.382683
vn -0.000000 0.923880 -0.382683
vn -0.000000 0.923880 -0.382683
vn -0.000000 0.923880 -0.382683
vn -0.000000 0.923880 -0.382683
vn -0.000000 0.382687 -0.923878
vn -0.000000 0.382687 -0.923878
vn -0.000000 0.382687 -0.923878
vn -0.000000 0.382687 -0.923878
vn -0.000000 0.382687 -0.923878
vn -0.000000 0.382687 -0.923878
vn 0.382683 0.000000 -0.923880
vn 0.382683 0.000000 -0.923880
vn 0.382683 0.000000 -0.923880
vn 0.382683 0.000000 -0.923880
vn 0.382683 0.000000 -0.923880
vn 0.382683 0.000000 -0.923880
vn 0.923879 0.000000 -0.382685
vn 0.923879 0.000000 -0.382685
vn 0.923879 0.000000 -0.382685
vn 0.923879 0.000000 -0.382685
vn 0.923879 0.000000 -0.382685
vn 0.923879 0.000000 -0.382685
vn 0.923879 0.000000 0.382685
vn 0.923879 0.000000 0.382685
vn 0.923879 0.000000 0.382685
vn 0.923879 0.000000 0.382685
vn 0.923879 0.000000 0.382685
vn 0.923879 0.000000 0.382685
vn 0.382682 0.000000 0.923880
vn 0.382682 0.000000 0.923880
vn 0.382682 0.000000 0.923880
vn 0.382682 0.000000 0.923880
vn 0.382682 0.000000 0.923880
vn 0.382682 0.000000 0.923880
vn -0.382682 0.000000 0.923880
vn -0.382682 0.000000 0.923880
vn -0.382682 0.000000 0.923880
vn -0.382682 0.000000 0.923880
vn -0.382682 0.000000 0.923880
vn -0.382682 0.000000 0.923880
vn -0.923880 0.000000 0.382683
vn -0.923880 0.000000 0.382683
vn -0.923880 0.000000 0.382683
vn -0.923880 0.000000 0.382683
vn -0.923880 0.000000 0.382683
vn -0.923880 0.000000 0.382683
vn -0.000000 1.000000 0.000000
vn -0.000000 1.000000 0.000000
vn -0.000000 1.000000 0.000000
vn -0.382685 0.000000 -0.923879
vn -0.382685 0.000000 -0.923879
vn -0.382685 0.000000 -0.923879
vn -0.382685 0.000000 -0.923879
vn -0.382685 0.000000 -0.923879
vn -0.382685 0.000000 -0.923879
vn -0.000000 -1.000000 0.000000
vn -0.000000 -1.000000 0.000000
vn -0.000000 -1.000000 0.000000
vn -0.000000 1.000000 0.000000
vn -0.000000 1.000000 0.000000
vn -0.000000 1.000000 0.000000
vn -0.000000 1.000000 0.000000
vn -0.000000 1.000000 0.000000
vn -0.000000 1.000000 0.000000
vn -0.000000 1.000000 0.000000
vn -0.000000 1.000000 0.000000
vn -0.000000 1.000000 0.000000
vn -0.000000 1.000000 0.000000
vn -0.000000 1.000000 0.000000
vn -0.000000 1.000000 0.000000
vn -0.000000 1.000000 0.000000
vn -0.000000 1.000000 0.000000
vn -0.000000 1.000000 0.000000
vn -0.000000 -1.000000 0.000000
vn -0.000000 -1.000000 0.000000
vn -0.000000 -1.000000 0.000000
vn -0.000000 -1.000000 0.000000
vn -0.000000 -1.000000 0.000000
vn -0.000000 -1.000000 0.000000
vn -0.000000 -1.000000 0.000000
vn -0.000000 -1.000000 0.000000
vn -0.000000 -1.000000 0.000000
vn -0.000000 -1.000000 0.000000
vn -0.000000 -1.000000 0.000000
vn -0.000000 -1.000000 0.000000
vn -0.000000 -1.000000 0.000000
vn -0.000000 -1.000000 0.000000
vn -0.000000 -1.000000 0.000000
vn -0.000000 1.000000 0.000000
vn -0.000000 1.000000 0.000000
vn -0.000000 1.000000 0.000000
vn -0.000000 1.000000 0.000000
vn -0.000000 1.000000 0.000000
vn -0.000000 1.000000 0.000000
vn -0.000000 1.000000 0.000000
vn -0.000000 1.000000 0.000000
vn -0.000000 1.000000 0.000000
vn -0.000000 1.000000 0.000000
vn -0.000000 1.000000 0.000000
vn -0.000000 1.000000 0.000000
vn -0.000000 1.000000 0.000000
vn -0.000000 1.000000 0.000000
vn -0.000000 1.000000 0.000000
vn -0.000000 -1.000000 0.000000
vn -0.000000 -1.000000 0.000000
vn -0.000000 -1.000000 0.000000
vn -0.000000 -1.000000 0.000000
vn -0.000000 -1.000000 0.000000
vn -0.000000 -1.000000 0.000000
vn -0.000000 -1.000000 0.000000
vn -0.000000 -1.000000 0.000000
vn -0.000000 -1.000000 0.000000
vn -0.000000 -1.000000 0.000000
vn -0.000000 -1.000000 0.000000
vn -0.000000 -1.000000 0.000000
vn -0.000000 -1.000000 0.000000
vn -0.000000 -1.000000 0.000000
vn -0.000000 -1.000000 0.000000
vn -0.000000 -0.382687 -0.923878
vn -0.000000 -0.382687 -0.923878
vn -0.000000 -0.382687 -0.923878
vn -0.000000 -0.382687 -0.923878
vn -0.000000 -0.382687 -0.923878
vn -0.000000 -0.382687 -0.923878
vn -0.000000 -0.923879 -0.382684
vn -0.000000 -0.923879 -0.382684
vn -0.000000 -0.923879 -0.382684
vn -0.000000 -0.923879 -0.382684
vn -0.000000 -0.923879 -0.382684
vn -0.000000 -0.923879 -0.382684
vn -0.000000 -0.923879 0.382684
vn -0.000000 -0.923879 0.382684
vn -0.000000 -0.923879 0.382684
vn -0.000000 -0.923879 0.382684
vn -0.000000 -0.923879 0.382684
vn -0.000000 -0.923879 0.382684
vn -0.000000 -0.382687 0.923878
vn -0.000000 -0.382687 0.923878
vn -0.000000 -0.382687 0.923878
vn 0.000000 -0.382687 0.923878
vn 0.000000 -0.382687 0.923878
vn 0.000000 -0.382687 0.923878
vn 0.000000 0.382687 0.923878
vn 0.000000 0.382687 0.923878
vn 0.000000 0.382687 0.923878
vn -0.000000 0.382687 0.923878
vn -0.000000 0.382687 0.923878
vn -0.000000 0.382687 0.923878
vn -0.000000 0.923880 0.382683
vn -0.000000 0.923880 0.382683
vn -0.000000 0.923880 0.382683
vn -0.000000 0.923880 0.382683
vn -0.000000 0.923880 0.382683
vn -0.000000 0.923880 0.382683
vn -0.000000 0.923880 -0.382683
vn -0.000000 0.923880 -0.382683
vn -0.000000 0.923880 -0.382683
vn -0.000000 0.923880 -0.382683
vn -0.000000 0.923880 -0.382683
vn -0.000000 0.923880 -0.382683
vn -0.000000 0.382687 -0.923878
vn -0.000000 0.382687 -0.923878
vn -0.000000 0.382687 -0.923878
vn -0.000000 0.382687 -0.923878
vn -0.000000 0.382687 -0.923878
vn -0.000000 0.382687 -0.923878
vn -0.923880 0.000000 -0.382683
vn -0.923880 0.000000 -0.382683
vn -0.923880 0.000000 -0.382683
vn 0.923881 0.000000 -0.382681
vn 0.923881 0.000000 -0.382681
vn 0.923881 0.000000 -0.382681
vn -0.923880 0.000000 -0.382683
vn -0.923880 0.000000 -0.382683
vn -0.923880 0.000000 -0.382683
vn -0.382685 0.000000 -0.923879
vn -0.382685 0.000000 -0.923879
vn -0.382685 0.000000 -0.923879
vn -0.382685 0.000000 -0.923879
vn -0.382685 0.000000 -0.923879
vn -0.382685 0.000000 -0.923879
vn -0.382685 0.000000 -0.923879
vn -0.382685 0.000000 -0.923879
vn -0.382685 0.000000 -0.923879
vn -0.382685 0.000000 -0.923879
vn -0.382685 0.000000 -0.923879
vn -0.382685 0.000000 -0.923879
vn -0.923880 0.000000 0.382683
vn -0.923880 0.000000 0.382683
vn -0.923880 0.000000 0.382683
vn -0.923880 0.000000 0.382683
vn -0.923880 0.000000 0.382683
vn -0.923880 0.000000 0.382683
vn -0.923880 0.000000 0.382683
vn -0.923880 0.000000 0.382683
vn -0.923880 0.000000 0.382683
vn -0.923880 0.000000 0.382683
vn -0.923880 0.000000 0.382683
vn -0.923880 0.000000 0.382683
vn -0.382682 0.000000 0.923880
vn -0.382682 0.000000 0.923880
vn -0.382682 0.000000 0.923880
vn -0.382682 0.000000 0.923880
vn -0.382682 0.000000 0.923880
vn -0.382682 0.000000 0.923880
vn -0.382682 0.000000 0.923880
vn -0.382682 0.000000 0.923880
vn -0.382682 0.000000 0.923880
vn -0.382682 0.000000 0.923880
vn -0.382682 0.000000 0.923880
vn -0.382682 0.000000 0.923880
vn 0.382682 0.000000 0.923880
vn 0.382682 0.000000 0.923880
vn 0.382682 0.000000 0.923880
vn 0.382682 0.000000 0.923880
vn 0.382682 0.000000 0.923880
vn 0.382682 0.000000 0.923880
vn 0.382682 0.000000 0.923880
vn 0.382682 0.000000 0.923880
vn 0.382682 0.000000 0.923880
vn 0.382682 0.000000 0.923880
vn 0.382682 0.000000 0.923880
vn 0.382682 0.000000 0.923880
vn 0.923879 0.000000 0.382685
vn 0.923879 0.000000 0.382685
vn 0.923879 0.000000 0.382685
vn 0.923879 0.000000 0.382685
vn 0.923879 0.000000 0.382685
vn 0.923879 0.000000 0.382685
vn 0.923879 0.000000 0.382685
vn 0.923879 0.000000 0.382685
vn 0.923879 0.000000 0.382685
vn 0.923879 0.000000 0.382685
vn 0.923879 0.000000 0.382685
vn 0.923879 0.000000 0.382685
vn 0.923879 0.000000 -0.382685
vn 0.923879 0.000000 -0.382685
vn 0.923879 0.000000 -0.382685
vn 0.923879 0.000000 -0.382685
vn 0.923879 0.000000 -0.382685
vn 0.923879 0.000000 -0.382685
vn 0.923879 0.000000 -0.382685
vn 0.923879 0.000000 -0.382685
vn 0.923879 0.000000 -0.382685
vn 0.923879 0.000000 -0.382685
vn 0.923879 0.000000 -0.382685
vn 0.923879 0.000000 -0.382685
vn 0.382683 0.000000 -0.923880
vn 0.382683 0.000000 -0.923880
vn 0.382683 0.000000 -0.923880
vn 0.382683 0.000000 -0.923880
vn 0.382683 0.000000 -0.923880
vn 0.382683 0.000000 -0.923880
vn 0.382683 0.000000 -0.923880
vn 0.382683 0.000000 -0.923880
vn 0.382683 0.000000 -0.923880
vn 0.382683 0.000000 -0.923880
vn 0.382683 0.000000 -0.923880
vn 0.382683 0.000000 -0.923880
vn 0.923880 0.000000 -0.382682
vn 0.923880 0.000000 -0.382682
vn 0.923880 0.000000 -0.382682
vn -0.382682 0.000000 -0.923880
vn -0.382682 0.000000 -0.923880
vn -0.382682 0.000000 -0.923880
vn -0.382682 0.000000 -0.923880
vn -0.382682 0.000000 -0.923880
vn -0.382682 0.000000 -0.923880
vn -0.382683 0.000000 -0.923880
vn -0.382683 0.000000 -0.923880
vn -0.382683 0.000000 -0.923880
vn -0.382683 0.000000 -0.923880
vn -0.382683 0.000000 -0.923880
vn -0.382683 0.000000 -0.923880
vn -0.923880 0.000000 -0.382682
vn -0.923880 0.000000 -0.382682
vn -0.923880 0.000000 -0.382682
vn -0.923880 0.000000 -0.382682
vn -0.923880 0.000000 -0.382682
vn -0.923880 0.000000 -0.382682
vn -0.923879 0.000000 -0.382684
vn -0.923879 0.000000 -0.382684
vn -0.923879 0.000000 -0.382684
vn -0.923879 0.000000 -0.382684
vn -0.923879 0.000000 -0.382684
vn -0.923879 0.000000 -0.382684
vn -0.923880 0.000000 0.382682
vn -0.923880 0.000000 0.382682
vn -0.923880 0.000000 0.382682
vn -0.923880 0.000000 0.382682
vn -0.923880 0.000000 0.382682
vn -0.923880 0.000000 0.382682
vn -0.923879 0.000000 0.382684
vn -0.923879 0.000000 0.382684
vn -0.923879 0.000000 0.382684
vn -0.923879 0.000000 0.382684
vn -0.923879 0.000000 0.382684
vn -0.923879 0.000000 0.382684
vn -0.382684 0.000000 0.923879
vn -0.382684 0.000000 0.923879
vn -0.382684 0.000000 0.923879
vn -0.382684 0.000000 0.923879
vn -0.382684 0.000000 0.923879
vn -0.382684 0.000000 0.923879
vn -0.382685 0.000000 0.923879
vn -0.382685 0.000000 0.923879
vn -0.382685 0.000000 0.923879
vn -0.382685 0.000000 0.923879
vn -0.382685 0.000000 0.923879
vn -0.382685 0.000000 0.923879
vn 0.382684 0.000000 0.923879
vn 0.382684 0.000000 0.923879
vn 0.382684 0.000000 0.923879
vn 0.382682 0.000000 0.923880
vn 0.382682 0.000000 0.923880
vn 0.382682 0.000000 0.923880
vn 0.382683 0.000000 0.923880
vn 0.382683 0.000000 0.923880
vn 0.382683 0.000000 0.923880
vn 0.382682 0.000000 0.923880
vn 0.382682 0.000000 0.923880
vn 0.382682 0.000000 0.923880
vn 0.923879 0.000000 0.382685
vn 0.923879 0.000000 0.382685
vn 0.923879 0.000000 0.382685
vn 0.923878 0.000000 0.382688
vn 0.923878 0.000000 0.382688
vn 0.923878 0.000000 0.382688
vn 0.923878 0.000000 0.382687
vn 0.923878 0.000000 0.382687
vn 0.923878 0.000000 0.382687
vn 0.923880 0.000000 0.382683
vn 0.923880 0.000000 0.382683
vn 0.923880 0.000000 0.382683
vn 0.382682 0.000000 -0.923880
vn 0.382682 0.000000 -0.923880
vn 0.382682 0.000000 -0.923880
vn 0.382684 0.000000 -0.923879
vn 0.382684 0.000000 -0.923879
vn 0.382684 0.000000 -0.923879
vn 0.382682 0.000000 -0.923880
vn 0.382682 0.000000 -0.923880
vn 0.382682 0.000000 -0.923880
vn 0.382683 0.000000 -0.923880
vn 0.382683 0.000000 -0.923880
vn 0.382683 0.000000 -0.923880
vn -0.923880 0.000000 -0.382683
vn -0.923880 0.000000 -0.382683
vn -0.923880 0.000000 -0.382683
vn -0.923880 0.000000 -0.382683
vn -0.923880 0.000000 -0.382683
vn -0.923880 0.000000 -0.382683
vn 0.923878 0.000000 -0.382688
vn 0.923878 0.000000 -0.382688
vn 0.923878 0.000000 -0.382688
vn 0.923878 0.000000 -0.382688
vn 0.923878 0.000000 -0.382688
vn 0.923878 0.000000 -0.382688
vn -0.923880 0.000000 -0.382683
vn -0.923880 0.000000 -0.382683
vn -0.923880 0.000000 -0.382683
vn -0.923880 0.000000 -0.382683
vn -0.923880 0.000000 -0.382683
vn -0.923880 0.000000 -0.382683
vn 0.923878 -0.000000 -0.382688
vn 0.923878 -0.000000 -0.382688
vn 0.923878 -0.000000 -0.382688
vn 0.923879 -0.000000 -0.382684
vn 0.923879 -0.000000 -0.382684
vn 0.923879 -0.000000 -0.382684
vn -0.923880 0.000000 -0.382683
vn -0.923880 0.000000 -0.382683
vn -0.923880 0.000000 -0.382683
vn -0.923880 0.000000 -0.382683
vn -0.923880 0.000000 -0.382683
vn -0.923880 0.000000 -0.382683
vn 0.923878 0.000000 -0.382688
vn 0.923878 0.000000 -0.382688
vn 0.923878 0.000000 -0.382688
vn 0.923878 0.000000 -0.382688
vn 0.923878 0.000000 -0.382688
vn 0.923878 0.000000 -0.382688
vn -0.000000 0.000000 -1.000000
vn -0.000000 0.000000 -1.000000
vn -0.000000 0.000000 -1.000000
vn -0.000000 0.000000 -1.000000
vn -0.000000 0.000000 -1.000000
vn -0.000000 0.000000 -1.000000
vn -0.000000 0.000000 -1.000000
vn -0.000000 0.000000 -1.000000
vn -0.000000 0.000000 -1.000000
vn -0.000000 0.000000 -1.000000
vn -0.000000 0.000000 -1.000000
vn -0.000000 0.000000 -1.000000
vn -0.000000 0.000000 1.000000
vn -0.000000 0.000000 1.000000
vn -0.000000 0.000000 1.000000
vn -0.000000 0.000000 1.000000
vn -0.000000 0.000000 1.000000
vn -0.000000 0.000000 1.000000
vn -0.000000 -1.000000 0.000000
vn -0.000000 -1.000000 0.000000
vn -0.000000 -1.000000 0.000000
vn -0.000000 -1.000000 0.000000
vn -0.000000 -1.000000 0.000000
vn -0.000000 -1.000000 0.000000
vn -0.000000 1.000000 0.000000
vn -0.000000 1.000000 0.000000
vn -0.000000 1.000000 0.000000
vn -0.000000 1.000000 0.000000
vn -0.000000 1.000000 0.000000
vn -0.000000 1.000000 0.000000

g Material.001
f 3/1/1 1/2/2 2/3/3
f 4/4/4 1/5/5 3/6/6
f 7/7/7 5/8/8 6/9/9
f 8/10/10 5/11/11 7/12/12
f 11/13/13 9/14/14 10/15/15
f 12/16/16 9/17/17 11/18/18
f 15/19/19 13/20/20 14/21/21
f 16/22/22 13/23/23 15/24/24
f 19/25/25 17/26/26 18/27/27
f 20/28/28 17/29/29 19/30/30
f 23/31/31 21/32/32 22/33/33
f 26/34/34 24/35/35 25/36/36
f 27/37/37 24/38/38 26/39/39
f 30/40/40 28/41/41 29/42/42
f 31/43/43 28/44/44 30/45/45
f 34/46/46 32/47/47 33/48/48
f 37/49/49 35/50/50 36/51/51
f 38/52/52 35/53/53 37/54/54
f 41/55/55 39/56/56 40/57/57
f 42/58/58 39/59/59 41/60/60
f 45/61/61 43/62/62 44/63/63
f 46/64/64 43/65/65 45/66/66
f 49/67/67 47/68/68 48/69/69
f 50/70/70 47/71/71 49/72/72
f 53/73/73 51/74/74 52/75/75
f 54/76/76 51/77/77 53/78/78
f 57/79/79 55/80/80 56/81/81
f 58/82/82 55/83/83 57/84/84
f 61/85/85 59/86/86 60/87/87
f 62/88/88 59/89/89 61/90/90
f 65/91/91 63/92/92 64/93/93
f 66/94/94 63/95/95 65/96/96
f 69/97/97 67/98/98 68/99/99
f 70/100/100 67/101/101 69/102/102
f 73/103/103 71/104/104 72/105/105
f 74/106/106 71/107/107 73/108/108
f 77/109/109 75/110/110 76/111/111
f 78/112/112 75/113/113 77/114/114
f 81/115/115 79/116/116 80/117/117
f 82/118/118 79/119/119 81/120/120
f 85/121/121 83/122/122 84/123/123
f 86/124/124 83/125/125 85/126/126
f 89/127/127 87/128/128 88/129/129
f 90/130/130 87/131/131 89/132/132
f 93/133/133 91/134/134 92/135/135
f 96/136/136 94/137/137 95/138/138
f 97/139/139 94/140/140 96/141/141
f 100/142/142 98/143/143 99/144/144
f 103/145/145 101/146/146 102/147/147
f 106/148/148 104/149/149 105/150/150
f 109/151/151 107/152/152 108/153/153
f 112/154/154 110/155/155 111/156/156
f 115/157/157 113/158/158 114/159/159
f 118/160/160 116/161/161 117/162/162
f 121/163/163 119/164/164 120/165/165
f 124/166/166 122/167/167 123/168/168
f 127/169/169 125/170/170 126/171/171
f 130/172/172 128/173/173 129/174/174
f 133/175/175 131/176/176 132/177/177
f 136/178/178 134/179/179 135/180/180
f 139/181/181 137/182/182 138/183/183
f 142/184/184 140/185/185 141/186/186
f 145/187/187 143/188/188 144/189/189
f 148/190/190 146/191/191 147/192/192
f 151/193/193 149/194/194 150/195/195
f 154/196/196 152/197/197 153/198/198
f 157/199/199 155/200/200 156/201/201
f 160/202/202 158/203/203 159/204/204
f 163/205/205 161/206/206 162/207/207
f 164/208/208 161/209/209 163/210/210
f 167/211/211 165/212/212 166/213/213
f 168/214/214 165/215/215 167/216/216
f 171/217/217 169/218/218 170/219/219
f 172/220/220 169/221/221 171/222/222
f 175/223/223 173/224/224 174/225/225
f 176/226/226 173/227/227 175/228/228
f 179/229/229 177/230/230 178/231/231
f 180/232/232 177/233/233 179/234/234
f 183/235/235 181/236/236 182/237/237
f 184/238/238 181/239/239 183/240/240
f 187/241/241 185/242/242 186/243/243
f 188/244/244 185/245/245 187/246/246
f 191/247/247 189/248/248 190/249/249
f 192/250/250 189/251/251 191/252/252
f 199/253/253 197/254/254 198/255/255
f 202/256/256 200/257/257 201/258/258
f 205/259/259 203/260/260 204/261/261
f 208/262/262 206/263/263 207/264/264
f 209/265/265 206/266/266 208/267/267
f 212/268/268 210/269/269 211/270/270
f 213/271/271 210/272/272 212/273/273
f 216/274/274 214/275/275 215/276/276
f 217/277/277 214/278/278 216/279/279
f 220/280/280 218/281/281 219/282/282
f 221/283/283 218/284/284 220/285/285
f 224/286/286 222/287/287 223/288/288
f 225/289/289 222/290/290 224/291/291
f 228/292/292 226/293/293 227/294/294
f 229/295/295 226/296/296 228/297/297
f 232/298/298 230/299/299 231/300/300
f 233/301/301 230/302/302 232/303/303
f 236/304/304 234/305/305 235/306/306
f 237/307/307 234/308/308 236/309/309
f 240/310/310 238/311/311 239/312/312
f 241/313/313 238/314/314 240/315/315
f 244/316/316 242/317/317 243/318/318
f 245/319/319 242/320/320 244/321/321
f 248/322/322 246/323/323 247/324/324
f 249/325/325 246/326/326 248/327/327
f 252/328/328 250/329/329 251/330/330
f 253/331/331 250/332/332 252/333/333
f 256/334/334 254/335/335 255/336/336
f 257/337/337 254/338/338 256/339/339
f 260/340/340 258/341/341 259/342/342
f 261/343/343 258/344/344 260/345/345
f 264/346/346 262/347/347 263/348/348
f 267/349/349 265/350/350 266/351/351
f 268/352/352 265/353/353 267/354/354
f 271/355/355 269/356/356 270/357/357
f 272/358/358 269/359/359 271/360/360
f 275/361/361 273/362/362 274/363/363
f 276/364/364 273/365/365 275/366/366
f 279/367/367 277/368/368 278/369/369
f 280/370/370 277/371/371 279/372/372
f 283/373/373 281/374/374 282/375/375
f 284/376/376 281/377/377 283/378/378
f 287/379/379 285/380/380 286/381/381
f 288/382/382 285/383/383 287/384/384
f 291/385/385 289/386/386 290/387/387
f 292/388/388 289/389/389 291/390/390
f 295/391/391 293/392/392 294/393/393
f 296/394/394 293/395/395 295/396/396
f 299/397/397 297/398/398 298/399/399
f 300/400/400 297/401/401 299/402/402
f 303/403/403 301/404/404 302/405/405
f 304/406/406 301/407/407 303/408/408
f 307/409/409 305/410/410 306/411/411
f 308/412/412 305/413/413 307/414/414
f 311/415/415 309/416/416 310/417/417
f 312/418/418 309/419/419 311/420/420
f 315/421/421 313/422/422 314/423/423
f 316/424/424 313/425/425 315/426/426
f 319/427/427 317/428/428 318/429/429
f 320/430/430 317/431/431 319/432/432
f 339/433/433 337/434/434 338/435/435
f 340/436/436 337/437/437 339/438/438
f 343/439/439 341/440/440 342/441/441
f 344/442/442 341/443/443 343/444/444
f 347/445/445 345/446/446 346/447/447
f 350/448/448 348/449/449 349/450/450
f 353/451/451 351/452/452 352/453/453
f 356/454/454 354/455/455 355/456/456
f 359/457/457 357/458/458 358/459/459
f 362/460/460 360/461/461 361/462/462
f 365/463/463 363/464/464 364/465/465
f 368/466/466 366/467/467 367/468/468

g Material.002
f 195/469/469 193/470/470 194/471/471
f 196/472/472 193/473/473 195/474/474

g Material.003
f 323/475/475 321/476/476 322/477/477
f 324/478/478 321/479/479 323/480/480
f 327/481/481 325/482/482 326/483/483
f 328/484/484 325/485/485 327/486/486
f 331/487/487 329/488/488 330/489/489
f 332/490/490 329/491/491 331/492/492
f 335/493/493 333/494/494 334/495/495
f 336/496/496 333/497/497 335/498/498

