# Blender v3.0.0 OBJ File: 'multidecor_kitchen_modern_wooden_table_5.blend'
# www.blender.org
o Cube
v 1.100000 1.250000 -1.100000
v 1.100000 1.000000 -1.100000
v 1.100000 1.250000 1.100000
v 1.100000 1.000000 1.100000
v -1.100000 1.250000 -1.100000
v -1.100000 1.000000 -1.100000
v -1.100000 1.250000 1.100000
v -1.100000 1.000000 1.100000
vt 0.042908 0.418395
vt 0.042908 0.042908
vt 0.418395 0.042908
vt 0.418395 0.418395
vt 0.461064 0.418395
vt 0.461064 0.042908
vt 0.418395 0.000239
vt 0.042908 0.000239
vt 0.836551 0.042908
vt 0.836551 0.418395
vt 0.042908 0.461064
vt 0.418395 0.461064
vt 0.000239 0.042908
vt 0.000239 0.418395
vn 0.0000 1.0000 0.0000
vn 0.0000 0.0000 1.0000
vn -1.0000 0.0000 0.0000
vn 0.0000 -1.0000 0.0000
vn 1.0000 0.0000 0.0000
vn 0.0000 0.0000 -1.0000
s off
f 1/1/1 5/2/1 7/3/1 3/4/1
f 4/5/2 3/4/2 7/3/2 8/6/2
f 8/7/3 7/3/3 5/2/3 6/8/3
f 6/9/4 2/10/4 4/5/4 8/6/4
f 2/11/5 1/1/5 3/4/5 4/12/5
f 6/13/6 5/2/6 1/1/6 2/14/6
