# Converted from B3D for Luanti (With Correct Normals)
# Object Name: multidecor_quadratic_painting

v 1.000000 1.000000 0.800000
v -1.000000 1.000000 0.800000
v -1.000000 1.000000 1.000000
v 1.000000 1.000000 1.000000
v 1.000000 -1.000000 1.000000
v 1.000000 1.000000 1.000000
v -1.000000 1.000000 1.000000
v -1.000000 -1.000000 1.000000
v -1.000000 -1.000000 1.000000
v -1.000000 1.000000 1.000000
v -1.000000 1.000000 0.800000
v -1.000000 -1.000000 0.800000
v -1.000000 -1.000000 0.800000
v 1.000000 -1.000000 0.800000
v 1.000000 -1.000000 1.000000
v -1.000000 -1.000000 1.000000
v 1.000000 -1.000000 0.800000
v 1.000000 1.000000 0.800000
v 1.000000 1.000000 1.000000
v 1.000000 -1.000000 1.000000
v 1.000000 1.000000 0.800000
v 1.000000 -1.000000 0.800000
v 0.850000 -0.850000 0.800000
v 0.850000 0.850000 0.800000
v 0.850000 0.850000 0.800000
v 0.850000 -0.850000 0.800000
v 0.850000 -0.850000 0.900000
v 0.850000 0.850000 0.900000
v -1.000000 -1.000000 0.800000
v -1.000000 1.000000 0.800000
v -0.850000 0.850000 0.800000
v -0.850000 -0.850000 0.800000
v 1.000000 -1.000000 0.800000
v -1.000000 -1.000000 0.800000
v -0.850000 -0.850000 0.800000
v 0.850000 -0.850000 0.800000
v -1.000000 1.000000 0.800000
v 1.000000 1.000000 0.800000
v 0.850000 0.850000 0.800000
v -0.850000 0.850000 0.800000
v -0.850000 -0.850000 0.900000
v -0.850000 0.850000 0.900000
v 0.850000 0.850000 0.900000
v 0.850000 -0.850000 0.900000
v -0.850000 -0.850000 0.800000
v -0.850000 0.850000 0.800000
v -0.850000 0.850000 0.900000
v -0.850000 -0.850000 0.900000
v 0.850000 -0.850000 0.800000
v -0.850000 -0.850000 0.800000
v -0.850000 -0.850000 0.900000
v 0.850000 -0.850000 0.900000
v -0.850000 0.850000 0.800000
v 0.850000 0.850000 0.800000
v 0.850000 0.850000 0.900000
v -0.850000 0.850000 0.900000

vt 0.809393 0.809393
vt 0.878266 0.120661
vt 0.878266 0.809393
vt 0.809393 0.120661
vt 0.878266 0.120661
vt 0.809393 0.809393
vt 0.809393 0.809393
vt 0.120661 0.120662
vt 0.809393 0.120661
vt 0.120662 0.809393
vt 0.120661 0.120662
vt 0.809393 0.809393
vt 0.809393 0.878266
vt 0.120662 0.809393
vt 0.809393 0.809393
vt 0.120662 0.878267
vt 0.120662 0.809393
vt 0.809393 0.878266
vt 0.120661 0.120662
vt 0.051788 0.809393
vt 0.051788 0.120662
vt 0.120662 0.809393
vt 0.051788 0.809393
vt 0.120661 0.120662
vt 0.809393 0.120661
vt 0.120661 0.051788
vt 0.809393 0.051788
vt 0.120661 0.120662
vt 0.120661 0.051788
vt 0.809393 0.120661
vt 0.172316 0.000133
vt 0.809393 0.051788
vt 0.120661 0.051788
vt 0.757738 0.000133
vt 0.809393 0.051788
vt 0.172316 0.000133
vt 0.982649 0.585534
vt 0.999867 0.000133
vt 0.999867 0.585534
vt 0.982647 0.000133
vt 0.999867 0.000133
vt 0.982649 0.585534
vt 0.757738 0.929921
vt 0.120662 0.878267
vt 0.809393 0.878266
vt 0.172316 0.929921
vt 0.120662 0.878267
vt 0.757738 0.929921
vt 0.000133 0.757738
vt 0.051788 0.120662
vt 0.051788 0.809393
vt 0.000133 0.172316
vt 0.051788 0.120662
vt 0.000133 0.757738
vt 0.929921 0.172316
vt 0.878266 0.809393
vt 0.878266 0.120661
vt 0.929921 0.757738
vt 0.878266 0.809393
vt 0.929921 0.172316
vt 0.964894 0.000133
vt 0.947674 0.585533
vt 0.947676 0.000133
vt 0.964894 0.585533
vt 0.947674 0.585533
vt 0.964894 0.000133
vt 0.947407 0.000133
vt 0.930187 0.585533
vt 0.930190 0.000133
vt 0.947408 0.585533
vt 0.930187 0.585533
vt 0.947407 0.000133
vt 0.965163 0.585534
vt 0.982381 0.000133
vt 0.982381 0.585534
vt 0.965160 0.000133
vt 0.982381 0.000133
vt 0.965163 0.585534
vt 0.000100 0.999900
vt 0.999900 0.000100
vt 0.999900 0.999900
vt 0.000100 0.000100
vt 0.999900 0.000100
vt 0.000100 0.999900

vn -0.000000 1.000000 0.000000
vn -0.000000 1.000000 0.000000
vn -0.000000 1.000000 0.000000
vn -0.000000 1.000000 0.000000
vn -0.000000 1.000000 0.000000
vn -0.000000 1.000000 0.000000
vn 0.000000 0.000000 1.000000
vn 0.000000 0.000000 1.000000
vn 0.000000 0.000000 1.000000
vn 0.000000 0.000000 1.000000
vn 0.000000 0.000000 1.000000
vn 0.000000 0.000000 1.000000
vn -1.000000 0.000000 0.000001
vn -1.000000 0.000000 0.000001
vn -1.000000 0.000000 0.000001
vn -1.000000 0.000000 0.000000
vn -1.000000 0.000000 0.000000
vn -1.000000 0.000000 0.000000
vn -0.000000 -1.000000 0.000000
vn -0.000000 -1.000000 0.000000
vn -0.000000 -1.000000 0.000000
vn -0.000000 -1.000000 0.000000
vn -0.000000 -1.000000 0.000000
vn -0.000000 -1.000000 0.000000
vn 1.000000 0.000000 0.000000
vn 1.000000 0.000000 0.000000
vn 1.000000 0.000000 0.000000
vn 1.000000 0.000000 -0.000001
vn 1.000000 0.000000 -0.000001
vn 1.000000 0.000000 -0.000001
vn -0.000000 0.000000 -1.000000
vn -0.000000 0.000000 -1.000000
vn -0.000000 0.000000 -1.000000
vn -0.000000 0.000000 -1.000000
vn -0.000000 0.000000 -1.000000
vn -0.000000 0.000000 -1.000000
vn -1.000000 0.000000 0.000000
vn -1.000000 0.000000 0.000000
vn -1.000000 0.000000 0.000000
vn -1.000000 0.000000 0.000000
vn -1.000000 0.000000 0.000000
vn -1.000000 0.000000 0.000000
vn -0.000000 0.000000 -1.000000
vn -0.000000 0.000000 -1.000000
vn -0.000000 0.000000 -1.000000
vn -0.000000 0.000000 -1.000000
vn -0.000000 0.000000 -1.000000
vn -0.000000 0.000000 -1.000000
vn -0.000000 0.000000 -1.000000
vn -0.000000 0.000000 -1.000000
vn -0.000000 0.000000 -1.000000
vn -0.000000 0.000000 -1.000000
vn -0.000000 0.000000 -1.000000
vn -0.000000 0.000000 -1.000000
vn -0.000000 0.000001 -1.000000
vn -0.000000 0.000001 -1.000000
vn -0.000000 0.000001 -1.000000
vn -0.000000 -0.000001 -1.000000
vn -0.000000 -0.000001 -1.000000
vn -0.000000 -0.000001 -1.000000
vn 1.000000 0.000000 0.000000
vn 1.000000 0.000000 0.000000
vn 1.000000 0.000000 0.000000
vn 1.000000 0.000000 -0.000001
vn 1.000000 0.000000 -0.000001
vn 1.000000 0.000000 -0.000001
vn -0.000000 1.000000 0.000000
vn -0.000000 1.000000 0.000000
vn -0.000000 1.000000 0.000000
vn -0.000000 1.000000 0.000000
vn -0.000000 1.000000 0.000000
vn -0.000000 1.000000 0.000000
vn -0.000000 -1.000000 0.000000
vn -0.000000 -1.000000 0.000000
vn -0.000000 -1.000000 0.000000
vn -0.000000 -1.000000 0.000000
vn -0.000000 -1.000000 0.000000
vn -0.000000 -1.000000 0.000000
vn -0.000000 0.000000 -1.000000
vn -0.000000 0.000000 -1.000000
vn -0.000000 0.000000 -1.000000
vn -0.000000 0.000000 -1.000000
vn -0.000000 0.000000 -1.000000
vn -0.000000 0.000000 -1.000000

g Material
f 3/1/1 1/2/2 2/3/3
f 4/4/4 1/5/5 3/6/6
f 7/7/7 5/8/8 6/9/9
f 8/10/10 5/11/11 7/12/12
f 11/13/13 9/14/14 10/15/15
f 12/16/16 9/17/17 11/18/18
f 15/19/19 13/20/20 14/21/21
f 16/22/22 13/23/23 15/24/24
f 19/25/25 17/26/26 18/27/27
f 20/28/28 17/29/29 19/30/30
f 23/31/31 21/32/32 22/33/33
f 24/34/34 21/35/35 23/36/36
f 27/37/37 25/38/38 26/39/39
f 28/40/40 25/41/41 27/42/42
f 31/43/43 29/44/44 30/45/45
f 32/46/46 29/47/47 31/48/48
f 35/49/49 33/50/50 34/51/51
f 36/52/52 33/53/53 35/54/54
f 39/55/55 37/56/56 38/57/57
f 40/58/58 37/59/59 39/60/60
f 47/61/61 45/62/62 46/63/63
f 48/64/64 45/65/65 47/66/66
f 51/67/67 49/68/68 50/69/69
f 52/70/70 49/71/71 51/72/72
f 55/73/73 53/74/74 54/75/75
f 56/76/76 53/77/77 55/78/78

g Material.001
f 43/79/79 41/80/80 42/81/81
f 44/82/82 41/83/83 43/84/84

