# Converted from B3D for Luanti (With Correct Normals)
# Object Name: multidecor_kitchen_modern_wooden_table_3

v 1.257795 1.249375 1.257795
v 1.257795 1.249375 -1.257795
v -1.257795 1.249375 1.257795
v 1.257795 1.249375 -1.257795
v -1.257795 1.249375 -1.257795
v -1.257795 1.249375 1.257795
v -1.257795 1.249375 -1.257795
v 1.257795 1.249375 -1.257795
v -1.257795 0.960625 -1.257795
v 1.257795 1.249375 -1.257795
v 1.257795 0.960625 -1.257795
v -1.257795 0.960625 -1.257795
v 1.257795 1.249375 -1.257795
v 1.257795 1.249375 1.257795
v 1.257795 0.960625 -1.257795
v 1.257795 1.249375 1.257795
v 1.257795 0.960625 1.257795
v 1.257795 0.960625 -1.257795
v -1.257795 0.960625 1.257795
v -1.257795 0.960625 -1.257795
v 1.257795 0.960625 1.257795
v -1.257795 0.960625 -1.257795
v 1.257795 0.960625 -1.257795
v 1.257795 0.960625 1.257795
v -1.257795 1.249375 1.257795
v -1.257795 1.249375 -1.257795
v -1.257795 0.960625 1.257795
v -1.257795 1.249375 -1.257795
v -1.257795 0.960625 -1.257795
v -1.257795 0.960625 1.257795
v 1.257795 1.249375 1.257795
v -1.257795 1.249375 1.257795
v 1.257795 0.960625 1.257795
v -1.257795 1.249375 1.257795
v -1.257795 0.960625 1.257795
v 1.257795 0.960625 1.257795
v 1.557795 0.317207 1.082551
v -1.557795 0.317207 1.082551
v 1.557795 0.151486 1.082551
v -1.557795 0.317207 1.082551
v -1.557795 0.151486 1.082551
v 1.557795 0.151486 1.082551
v -1.557795 0.317207 0.918486
v 1.557795 0.317207 0.918486
v -1.557795 0.151486 0.918486
v 1.557795 0.317207 0.918486
v 1.557795 0.151486 0.918486
v -1.557795 0.151486 0.918486
v -1.557795 0.151486 1.082551
v -1.557795 0.151486 0.918486
v 1.557795 0.151486 1.082551
v -1.557795 0.151486 0.918486
v 1.557795 0.151486 0.918486
v 1.557795 0.151486 1.082551
v 1.557795 0.317207 1.082551
v 1.557795 0.317207 0.918486
v -1.557795 0.317207 1.082551
v 1.557795 0.317207 0.918486
v -1.557795 0.317207 0.918486
v -1.557795 0.317207 1.082551
v 1.557795 0.317207 -1.082551
v 1.557795 0.317207 -0.918487
v 1.557795 0.151486 -1.082551
v 1.557795 0.317207 -0.918487
v 1.557795 0.151486 -0.918487
v 1.557795 0.151486 -1.082551
v 1.557795 0.151486 0.918486
v 1.557795 0.317207 0.918486
v 1.557795 0.151486 1.082551
v 1.557795 0.317207 0.918486
v 1.557795 0.317207 1.082551
v 1.557795 0.151486 1.082551
v -1.557795 0.317207 -1.082551
v 1.557795 0.317207 -1.082551
v -1.557795 0.151486 -1.082551
v 1.557795 0.317207 -1.082551
v 1.557795 0.151486 -1.082551
v -1.557795 0.151486 -1.082551
v 1.557795 0.317207 -0.918487
v -1.557795 0.317207 -0.918486
v 1.557795 0.151486 -0.918487
v -1.557795 0.317207 -0.918486
v -1.557795 0.151486 -0.918486
v 1.557795 0.151486 -0.918487
v 1.557795 0.151486 -1.082551
v 1.557795 0.151486 -0.918487
v -1.557795 0.151486 -1.082551
v 1.557795 0.151486 -0.918487
v -1.557795 0.151486 -0.918486
v -1.557795 0.151486 -1.082551
v -1.557795 0.317207 -1.082551
v -1.557795 0.317207 -0.918486
v 1.557795 0.317207 -1.082551
v -1.557795 0.317207 -0.918486
v 1.557795 0.317207 -0.918487
v 1.557795 0.317207 -1.082551
v -1.557795 0.317207 1.082551
v -1.557795 0.317207 0.918486
v -1.557795 0.151486 1.082551
v -1.557795 0.317207 0.918486
v -1.557795 0.151486 0.918486
v -1.557795 0.151486 1.082551
v -1.557795 0.151486 -0.918486
v -1.557795 0.317207 -0.918486
v -1.557795 0.151486 -1.082551
v -1.557795 0.317207 -0.918486
v -1.557795 0.317207 -1.082551
v -1.557795 0.151486 -1.082551

vt 0.042908 0.418395
vt 0.042908 0.042908
vt 0.418395 0.042908
vt 0.042908 0.418395
vt 0.418395 0.042908
vt 0.418395 0.418395
vt 0.461064 0.418395
vt 0.418395 0.418395
vt 0.418395 0.042908
vt 0.461064 0.418395
vt 0.418395 0.042908
vt 0.461064 0.042908
vt 0.418395 0.000239
vt 0.418395 0.042908
vt 0.042908 0.042908
vt 0.418395 0.000239
vt 0.042908 0.042908
vt 0.042908 0.000239
vt 0.836551 0.042908
vt 0.836551 0.418395
vt 0.461064 0.418395
vt 0.836551 0.042908
vt 0.461064 0.418395
vt 0.461064 0.042908
vt 0.042908 0.461064
vt 0.042908 0.418395
vt 0.418395 0.418395
vt 0.042908 0.461064
vt 0.418395 0.418395
vt 0.418395 0.461064
vt 0.000239 0.042908
vt 0.042908 0.042908
vt 0.042908 0.418395
vt 0.000239 0.042908
vt 0.042908 0.418395
vt 0.000239 0.418395
vt 0.733355 0.822072
vt 0.708866 0.822072
vt 0.708866 0.357026
vt 0.733355 0.822072
vt 0.708866 0.357026
vt 0.733355 0.357026
vt 0.757844 0.357026
vt 0.782333 0.357026
vt 0.782333 0.822072
vt 0.757844 0.357026
vt 0.782333 0.822072
vt 0.757844 0.822072
vt 0.733355 0.822072
vt 0.733355 0.357026
vt 0.757844 0.357026
vt 0.733355 0.822072
vt 0.757844 0.357026
vt 0.757844 0.822072
vt 0.708866 0.357026
vt 0.708866 0.822072
vt 0.684377 0.822072
vt 0.708866 0.357026
vt 0.684377 0.822072
vt 0.684377 0.357026
vt 0.757844 0.777292
vt 0.684377 0.777292
vt 0.708866 0.777292
vt 0.757844 0.777292
vt 0.708866 0.777292
vt 0.733355 0.777292
vt 0.733355 0.777293
vt 0.757844 0.777293
vt 0.684377 0.777293
vt 0.733355 0.777293
vt 0.684377 0.777293
vt 0.708866 0.777293
vt 0.757844 0.357026
vt 0.782333 0.357026
vt 0.782333 0.822072
vt 0.757844 0.357026
vt 0.782333 0.822072
vt 0.757844 0.822072
vt 0.733355 0.822072
vt 0.708866 0.822072
vt 0.708866 0.357026
vt 0.733355 0.822072
vt 0.708866 0.357026
vt 0.733355 0.357026
vt 0.757844 0.357026
vt 0.757844 0.822072
vt 0.733355 0.822072
vt 0.757844 0.357026
vt 0.733355 0.822072
vt 0.733355 0.357026
vt 0.684377 0.822072
vt 0.684377 0.357026
vt 0.708866 0.357026
vt 0.684377 0.822072
vt 0.708866 0.357026
vt 0.708866 0.822072
vt 0.733355 0.401805
vt 0.708866 0.401805
vt 0.782333 0.401805
vt 0.733355 0.401805
vt 0.782333 0.401805
vt 0.757844 0.401805
vt 0.757844 0.401805
vt 0.733355 0.401805
vt 0.708866 0.401805
vt 0.757844 0.401805
vt 0.708866 0.401805
vt 0.782333 0.401805

vn -0.000000 1.000000 -0.000000
vn -0.000000 1.000000 -0.000000
vn -0.000000 1.000000 -0.000000
vn -0.000000 1.000000 -0.000000
vn -0.000000 1.000000 -0.000000
vn -0.000000 1.000000 -0.000000
vn -0.000000 0.000000 -1.000000
vn -0.000000 0.000000 -1.000000
vn -0.000000 0.000000 -1.000000
vn -0.000000 0.000000 -1.000000
vn -0.000000 0.000000 -1.000000
vn -0.000000 0.000000 -1.000000
vn 1.000000 0.000000 0.000000
vn 1.000000 0.000000 0.000000
vn 1.000000 0.000000 0.000000
vn 1.000000 0.000000 0.000000
vn 1.000000 0.000000 0.000000
vn 1.000000 0.000000 0.000000
vn -0.000000 -1.000000 0.000000
vn -0.000000 -1.000000 0.000000
vn -0.000000 -1.000000 0.000000
vn -0.000000 -1.000000 0.000000
vn -0.000000 -1.000000 0.000000
vn -0.000000 -1.000000 0.000000
vn -1.000000 0.000000 0.000000
vn -1.000000 0.000000 0.000000
vn -1.000000 0.000000 0.000000
vn -1.000000 0.000000 0.000000
vn -1.000000 0.000000 0.000000
vn -1.000000 0.000000 0.000000
vn -0.000000 0.000000 1.000000
vn -0.000000 0.000000 1.000000
vn -0.000000 0.000000 1.000000
vn -0.000000 0.000000 1.000000
vn -0.000000 0.000000 1.000000
vn -0.000000 0.000000 1.000000
vn -0.000000 0.000000 1.000000
vn -0.000000 0.000000 1.000000
vn -0.000000 0.000000 1.000000
vn -0.000000 0.000000 1.000000
vn -0.000000 0.000000 1.000000
vn -0.000000 0.000000 1.000000
vn -0.000000 0.000000 -1.000000
vn -0.000000 0.000000 -1.000000
vn -0.000000 0.000000 -1.000000
vn -0.000000 -0.000001 -1.000000
vn -0.000000 -0.000001 -1.000000
vn -0.000000 -0.000001 -1.000000
vn -0.000000 -1.000000 0.000000
vn -0.000000 -1.000000 0.000000
vn -0.000000 -1.000000 0.000000
vn -0.000000 -1.000000 0.000000
vn -0.000000 -1.000000 0.000000
vn -0.000000 -1.000000 0.000000
vn -0.000000 1.000000 -0.000000
vn -0.000000 1.000000 -0.000000
vn -0.000000 1.000000 -0.000000
vn -0.000000 1.000000 -0.000000
vn -0.000000 1.000000 -0.000000
vn -0.000000 1.000000 -0.000000
vn 1.000000 0.000000 -0.000001
vn 1.000000 0.000000 -0.000001
vn 1.000000 0.000000 -0.000001
vn 1.000000 0.000000 0.000000
vn 1.000000 0.000000 0.000000
vn 1.000000 0.000000 0.000000
vn 1.000000 0.000000 -0.000002
vn 1.000000 0.000000 -0.000002
vn 1.000000 0.000000 -0.000002
vn 1.000000 0.000000 0.000001
vn 1.000000 0.000000 0.000001
vn 1.000000 0.000000 0.000001
vn -0.000000 0.000000 -1.000000
vn -0.000000 0.000000 -1.000000
vn -0.000000 0.000000 -1.000000
vn -0.000000 0.000000 -1.000000
vn -0.000000 0.000000 -1.000000
vn -0.000000 0.000000 -1.000000
vn 0.000000 0.000000 1.000000
vn 0.000000 0.000000 1.000000
vn 0.000000 0.000000 1.000000
vn 0.000000 0.000000 1.000000
vn 0.000000 0.000000 1.000000
vn 0.000000 0.000000 1.000000
vn -0.000000 -1.000000 0.000000
vn -0.000000 -1.000000 0.000000
vn -0.000000 -1.000000 0.000000
vn 0.000000 -1.000000 0.000000
vn 0.000000 -1.000000 0.000000
vn 0.000000 -1.000000 0.000000
vn -0.000000 1.000000 -0.000000
vn -0.000000 1.000000 -0.000000
vn -0.000000 1.000000 -0.000000
vn -0.000000 1.000000 -0.000000
vn -0.000000 1.000000 -0.000000
vn -0.000000 1.000000 -0.000000
vn -1.000000 0.000000 0.000001
vn -1.000000 0.000000 0.000001
vn -1.000000 0.000000 0.000001
vn -1.000000 0.000000 -0.000002
vn -1.000000 0.000000 -0.000002
vn -1.000000 0.000000 -0.000002
vn -1.000000 0.000000 0.000000
vn -1.000000 0.000000 0.000000
vn -1.000000 0.000000 0.000000
vn -1.000000 0.000000 -0.000001
vn -1.000000 0.000000 -0.000001
vn -1.000000 0.000000 -0.000001

g Default OBJ.005
f 3/1/1 1/2/2 2/3/3
f 6/4/4 4/5/5 5/6/6
f 9/7/7 7/8/8 8/9/9
f 12/10/10 10/11/11 11/12/12
f 15/13/13 13/14/14 14/15/15
f 18/16/16 16/17/17 17/18/18
f 21/19/19 19/20/20 20/21/21
f 24/22/22 22/23/23 23/24/24
f 27/25/25 25/26/26 26/27/27
f 30/28/28 28/29/29 29/30/30
f 33/31/31 31/32/32 32/33/33
f 36/34/34 34/35/35 35/36/36
f 39/37/37 37/38/38 38/39/39
f 42/40/40 40/41/41 41/42/42
f 45/43/43 43/44/44 44/45/45
f 48/46/46 46/47/47 47/48/48
f 51/49/49 49/50/50 50/51/51
f 54/52/52 52/53/53 53/54/54
f 57/55/55 55/56/56 56/57/57
f 60/58/58 58/59/59 59/60/60
f 63/61/61 61/62/62 62/63/63
f 66/64/64 64/65/65 65/66/66
f 69/67/67 67/68/68 68/69/69
f 72/70/70 70/71/71 71/72/72
f 75/73/73 73/74/74 74/75/75
f 78/76/76 76/77/77 77/78/78
f 81/79/79 79/80/80 80/81/81
f 84/82/82 82/83/83 83/84/84
f 87/85/85 85/86/86 86/87/87
f 90/88/88 88/89/89 89/90/90
f 93/91/91 91/92/92 92/93/93
f 96/94/94 94/95/95 95/96/96
f 99/97/97 97/98/98 98/99/99
f 102/100/100 100/101/101 101/102/102
f 105/103/103 103/104/104 104/105/105
f 108/106/106 106/107/107 107/108/108

