# Converted from B3D for Luanti (With Correct Normals)
# Object Name: multidecor_jungle_bed

v 1.000000 -0.500000 1.750000
v -1.000000 -0.500000 1.750000
v -1.000000 -0.500000 -2.250000
v 1.000000 -0.500000 -2.250000
v 1.000000 0.500000 -2.250000
v 1.000000 -0.500000 -2.250000
v -1.000000 -0.500000 -2.250000
v -1.000000 0.500000 -2.250000
v -1.000000 0.500000 -2.250000
v -1.000000 -0.500000 -2.250000
v -1.000000 -0.500000 1.750000
v -1.000000 0.500000 1.750000
v -1.000000 0.500000 1.750000
v 1.000000 0.500000 1.750000
v 1.000000 0.500000 -2.250000
v -1.000000 0.500000 -2.250000
v 1.000000 0.500000 1.750000
v 1.000000 -0.500000 1.750000
v 1.000000 -0.500000 -2.250000
v 1.000000 0.500000 -2.250000
v -1.000000 0.500000 1.750000
v -1.000000 -0.500000 1.750000
v -1.000000 -0.500000 2.250000
v -1.000000 0.500000 2.250000
v -1.000000 0.500000 2.250000
v -1.000000 -0.500000 2.250000
v 1.000000 -0.500000 2.250000
v 1.000000 0.500000 2.250000
v 1.000000 0.500000 1.750000
v -1.000000 0.500000 1.750000
v -1.000000 0.500000 2.250000
v 1.000000 0.500000 2.250000
v -1.000000 -0.500000 2.250000
v -1.000000 -0.500000 1.750000
v -1.000001 -1.750000 1.750000
v -1.000001 -1.750000 2.250000
v 1.000000 -0.500000 1.750000
v 1.000000 0.500000 1.750000
v 1.000000 0.500000 2.250000
v 1.000000 -0.500000 2.250000
v -1.000001 -1.750000 1.750000
v 0.999999 -1.750000 1.750000
v 0.999999 -1.750000 2.250000
v -1.000001 -1.750000 2.250000
v -0.782597 -1.532597 1.750000
v -0.782597 -0.750000 1.750000
v -0.782597 -0.750000 1.806498
v -0.782597 -1.532597 1.806498
v 1.000000 -0.500000 1.750000
v 1.000000 -0.500000 2.250000
v 0.999999 -1.750000 2.250000
v 0.999999 -1.750000 1.750000
v 1.000000 -0.500000 2.250000
v -1.000000 -0.500000 2.250000
v -1.000001 -1.750000 2.250000
v 0.999999 -1.750000 2.250000
v 1.000000 -0.750000 1.750000
v -1.000000 -0.750000 1.750000
v -1.000000 -0.750000 -2.250000
v 1.000000 -0.750000 -2.250000
v 1.100000 -0.666667 -2.350000
v 1.100000 -0.666667 1.750000
v 1.000000 -0.750000 1.750000
v 1.000000 -0.750000 -2.250000
v -1.100000 -0.666666 1.750000
v -1.100000 -0.666666 -2.350000
v -1.000000 -0.750000 -2.250000
v -1.000000 -0.750000 1.750000
v -1.100000 -0.666666 -2.350000
v 1.100000 -0.666667 -2.350000
v 1.000000 -0.750000 -2.250000
v -1.000000 -0.750000 -2.250000
v 1.100000 -0.666667 1.750000
v -1.100000 -0.666666 1.750000
v -1.000000 -0.750000 1.750000
v 1.000000 -0.750000 1.750000
v 1.000000 -0.500000 1.750000
v -1.000000 -0.500000 1.750000
v -1.100000 -0.583333 1.750000
v 1.100000 -0.583334 1.750000
v 1.100000 -0.583334 1.750000
v -1.100000 -0.583333 1.750000
v -1.100000 -0.666666 1.750000
v 1.100000 -0.666667 1.750000
v -1.000000 -0.500000 -2.250000
v 1.000000 -0.500000 -2.250000
v 1.100000 -0.583334 -2.350000
v -1.100000 -0.583333 -2.350000
v -1.100000 -0.583333 -2.350000
v 1.100000 -0.583334 -2.350000
v 1.100000 -0.666667 -2.350000
v -1.100000 -0.666666 -2.350000
v -1.000000 -0.500000 1.750000
v -1.000000 -0.500000 -2.250000
v -1.100000 -0.583333 -2.350000
v -1.100000 -0.583333 1.750000
v -1.100000 -0.583333 1.750000
v -1.100000 -0.583333 -2.350000
v -1.100000 -0.666666 -2.350000
v -1.100000 -0.666666 1.750000
v 1.000000 -0.500000 -2.250000
v 1.000000 -0.500000 1.750000
v 1.100000 -0.583334 1.750000
v 1.100000 -0.583334 -2.350000
v 1.100000 -0.583334 -2.350000
v 1.100000 -0.583334 1.750000
v 1.100000 -0.666667 1.750000
v 1.100000 -0.666667 -2.350000
v 0.750049 -0.750000 1.688218
v 0.750049 -0.750000 0.625328
v -0.750049 -0.750000 0.625328
v -0.750049 -0.750000 1.688218
v 0.496755 -1.201996 1.458497
v -0.496755 -1.201996 1.458497
v -0.496755 -1.201996 0.855049
v 0.496755 -1.201996 0.855049
v 0.823128 -0.950000 0.573547
v 0.823128 -0.950000 1.739999
v 0.750049 -1.050000 1.688218
v 0.750049 -1.050000 0.625328
v -0.823128 -0.950000 1.739999
v -0.823128 -0.950000 0.573547
v -0.750049 -1.050000 0.625328
v -0.750049 -1.050000 1.688218
v -0.823128 -0.950000 0.573547
v 0.823128 -0.950000 0.573547
v 0.750049 -1.050000 0.625328
v -0.750049 -1.050000 0.625328
v 0.823128 -0.950000 1.739999
v -0.823128 -0.950000 1.739999
v -0.750049 -1.050000 1.688218
v 0.750049 -1.050000 1.688218
v 0.750049 -0.750000 1.688218
v -0.750049 -0.750000 1.688218
v -0.823128 -0.850000 1.739999
v 0.823128 -0.850000 1.739999
v 0.823128 -0.850000 1.739999
v -0.823128 -0.850000 1.739999
v -0.823128 -0.950000 1.739999
v 0.823128 -0.950000 1.739999
v -0.750049 -0.750000 0.625328
v 0.750049 -0.750000 0.625328
v 0.823128 -0.850000 0.573547
v -0.823128 -0.850000 0.573547
v -0.823128 -0.850000 0.573547
v 0.823128 -0.850000 0.573547
v 0.823128 -0.950000 0.573547
v -0.823128 -0.950000 0.573547
v -0.750049 -0.750000 1.688218
v -0.750049 -0.750000 0.625328
v -0.823128 -0.850000 0.573547
v -0.823128 -0.850000 1.739999
v -0.823128 -0.850000 1.739999
v -0.823128 -0.850000 0.573547
v -0.823128 -0.950000 0.573547
v -0.823128 -0.950000 1.739999
v 0.750049 -0.750000 0.625328
v 0.750049 -0.750000 1.688218
v 0.823128 -0.850000 1.739999
v 0.823128 -0.850000 0.573547
v 0.823128 -0.850000 0.573547
v 0.823128 -0.850000 1.739999
v 0.823128 -0.950000 1.739999
v 0.823128 -0.950000 0.573547
v 0.496755 -1.201996 0.855049
v -0.496755 -1.201996 0.855049
v -0.750049 -1.050000 0.625328
v 0.750049 -1.050000 0.625328
v 0.496755 -1.201996 1.458497
v 0.496755 -1.201996 0.855049
v 0.750049 -1.050000 0.625328
v 0.750049 -1.050000 1.688218
v -0.496755 -1.201996 0.855049
v -0.496755 -1.201996 1.458497
v -0.750049 -1.050000 1.688218
v -0.750049 -1.050000 0.625328
v -0.496755 -1.201996 1.458497
v 0.496755 -1.201996 1.458497
v 0.750049 -1.050000 1.688218
v -0.750049 -1.050000 1.688218
v 0.782597 -0.750000 1.750000
v -0.782597 -0.750000 1.750000
v -1.000000 -0.500000 1.750000
v 1.000000 -0.500000 1.750000
v -0.782597 -1.532597 1.750000
v 0.782597 -1.532597 1.750000
v 0.999999 -1.750000 1.750000
v -1.000001 -1.750000 1.750000
v -0.782597 -0.750000 1.750000
v -0.782597 -1.532597 1.750000
v -1.000001 -1.750000 1.750000
v -1.000000 -0.500000 1.750000
v 0.782597 -1.532597 1.750000
v 0.782597 -0.750000 1.750000
v 1.000000 -0.500000 1.750000
v 0.999999 -1.750000 1.750000
v -0.782597 -0.750000 1.806498
v 0.782597 -0.750000 1.806498
v 0.782597 -1.532597 1.806498
v -0.782597 -1.532597 1.806498
v -0.782597 -0.750000 1.750000
v 0.782597 -0.750000 1.750000
v 0.782597 -0.750000 1.806498
v -0.782597 -0.750000 1.806498
v 0.782597 -0.750000 1.750000
v 0.782597 -1.532597 1.750000
v 0.782597 -1.532597 1.806498
v 0.782597 -0.750000 1.806498
v 0.782597 -1.532597 1.750000
v -0.782597 -1.532597 1.750000
v -0.782597 -1.532597 1.806498
v 0.782597 -1.532597 1.806498

vt 0.472951 0.473556
vt 0.000302 0.709880
vt 0.000302 0.473556
vt 0.472951 0.709880
vt 0.000302 0.709880
vt 0.472951 0.473556
vt 0.000302 0.619080
vt 0.118465 0.855404
vt 0.000303 0.855404
vt 0.118465 0.619080
vt 0.118465 0.855404
vt 0.000302 0.619080
vt 0.591113 0.500918
vt 0.118465 0.619080
vt 0.118465 0.500918
vt 0.591113 0.619080
vt 0.118465 0.619080
vt 0.591113 0.500918
vt 0.118465 0.855404
vt 0.591113 0.619080
vt 0.591113 0.855404
vt 0.118465 0.619080
vt 0.591113 0.619080
vt 0.118465 0.855404
vt 0.118465 0.973566
vt 0.591113 0.855404
vt 0.591113 0.973566
vt 0.118465 0.855404
vt 0.591113 0.855404
vt 0.118465 0.973566
vt 0.650194 0.500918
vt 0.591113 0.619080
vt 0.591113 0.500918
vt 0.650194 0.619080
vt 0.591113 0.619080
vt 0.650194 0.500918
vt 0.768356 0.855404
vt 0.650194 0.619080
vt 0.768356 0.619080
vt 0.650194 0.855404
vt 0.650194 0.619080
vt 0.768356 0.855404
vt 0.650194 0.619080
vt 0.591113 0.855404
vt 0.591113 0.619080
vt 0.650194 0.855404
vt 0.591113 0.855404
vt 0.650194 0.619080
vt 0.769566 0.953042
vt 0.917268 0.893961
vt 0.917268 0.953042
vt 0.769566 0.893961
vt 0.917268 0.893961
vt 0.769566 0.953042
vt 0.650194 0.855404
vt 0.591113 0.973566
vt 0.591113 0.855404
vt 0.650194 0.973566
vt 0.591113 0.973566
vt 0.650194 0.855404
vt 0.769566 0.657637
vt 0.710485 0.893961
vt 0.710485 0.657637
vt 0.769566 0.893961
vt 0.710485 0.893961
vt 0.769566 0.657637
vt 0.775637 0.928854
vt 0.868110 0.935530
vt 0.775637 0.935530
vt 0.868110 0.928854
vt 0.868110 0.935530
vt 0.775637 0.928854
vt 0.769566 0.657637
vt 0.917268 0.598556
vt 0.917268 0.657637
vt 0.769566 0.598556
vt 0.917268 0.598556
vt 0.769566 0.657637
vt 0.769566 0.893961
vt 0.917268 0.657637
vt 0.917268 0.893961
vt 0.769566 0.657637
vt 0.917268 0.657637
vt 0.769566 0.893961
vt 0.737783 0.501298
vt 0.501459 0.028649
vt 0.737783 0.028649
vt 0.501459 0.501298
vt 0.501459 0.028649
vt 0.737783 0.501298
vt 0.874698 0.015411
vt 0.859316 0.499875
vt 0.859316 0.015411
vt 0.874697 0.488058
vt 0.859316 0.499875
vt 0.874698 0.015411
vt 0.833483 0.027227
vt 0.818102 0.499874
vt 0.818102 0.015411
vt 0.833483 0.499874
vt 0.818102 0.499874
vt 0.833483 0.027227
vt 0.957878 0.012119
vt 0.942497 0.260259
vt 0.942496 0.000302
vt 0.957878 0.248443
vt 0.942497 0.260259
vt 0.957878 0.012119
vt 0.988023 0.012119
vt 0.978177 0.260260
vt 0.978176 0.000302
vt 0.988023 0.248444
vt 0.978177 0.260260
vt 0.988023 0.012119
vt 0.968329 0.000302
vt 0.958483 0.248444
vt 0.958483 0.012119
vt 0.968330 0.260260
vt 0.958483 0.248444
vt 0.968329 0.000302
vt 0.978176 0.000302
vt 0.968330 0.260260
vt 0.968329 0.000302
vt 0.978177 0.260260
vt 0.968330 0.260260
vt 0.978176 0.000302
vt 0.932650 0.000302
vt 0.917268 0.248443
vt 0.917268 0.012119
vt 0.932649 0.260259
vt 0.917268 0.248443
vt 0.932650 0.000302
vt 0.942496 0.000302
vt 0.932649 0.260259
vt 0.932650 0.000302
vt 0.942497 0.260259
vt 0.932649 0.260259
vt 0.942496 0.000302
vt 0.808255 0.015411
vt 0.792874 0.499874
vt 0.792873 0.027227
vt 0.808255 0.499874
vt 0.792874 0.499874
vt 0.808255 0.015411
vt 0.818102 0.015411
vt 0.808255 0.499874
vt 0.808255 0.015411
vt 0.818102 0.499874
vt 0.808255 0.499874
vt 0.818102 0.015411
vt 0.849469 0.015411
vt 0.834088 0.488059
vt 0.834088 0.015411
vt 0.849470 0.499875
vt 0.834088 0.488059
vt 0.849469 0.015411
vt 0.859316 0.015411
vt 0.849470 0.499875
vt 0.849469 0.015411
vt 0.859316 0.499875
vt 0.849470 0.499875
vt 0.859316 0.015411
vt 0.508767 0.281080
vt 0.634360 0.458335
vt 0.508767 0.458335
vt 0.634360 0.281080
vt 0.634360 0.458335
vt 0.508767 0.281080
vt 0.828957 0.423967
vt 0.711562 0.352662
vt 0.828957 0.352662
vt 0.711562 0.423967
vt 0.711562 0.352662
vt 0.828957 0.423967
vt 0.669870 0.484374
vt 0.684505 0.352662
vt 0.684505 0.490492
vt 0.669870 0.358781
vt 0.684505 0.352662
vt 0.669870 0.484374
vt 0.936582 0.412792
vt 0.951217 0.281080
vt 0.951217 0.418910
vt 0.936582 0.287199
vt 0.951217 0.281080
vt 0.936582 0.412792
vt 0.862643 0.466970
vt 0.875950 0.281080
vt 0.875950 0.475605
vt 0.862643 0.289715
vt 0.875950 0.281080
vt 0.862643 0.466970
vt 0.643600 0.313628
vt 0.829490 0.326935
vt 0.634965 0.326935
vt 0.820855 0.313629
vt 0.829490 0.326935
vt 0.643600 0.313628
vt 0.634965 0.338751
vt 0.820855 0.352057
vt 0.643600 0.352057
vt 0.829490 0.338751
vt 0.820855 0.352057
vt 0.634965 0.338751
vt 0.634965 0.326935
vt 0.829490 0.338751
vt 0.634965 0.338751
vt 0.829490 0.326935
vt 0.829490 0.338751
vt 0.634965 0.326935
vt 0.887766 0.475605
vt 0.901072 0.289715
vt 0.901072 0.466970
vt 0.887766 0.281080
vt 0.901072 0.289715
vt 0.887766 0.475605
vt 0.875950 0.475605
vt 0.887766 0.281080
vt 0.887766 0.475605
vt 0.875950 0.281080
vt 0.887766 0.281080
vt 0.875950 0.475605
vt 0.963034 0.418910
vt 0.977669 0.287199
vt 0.977669 0.412792
vt 0.963033 0.281080
vt 0.977669 0.287199
vt 0.963034 0.418910
vt 0.951217 0.418910
vt 0.963033 0.281080
vt 0.963034 0.418910
vt 0.951217 0.281080
vt 0.963033 0.281080
vt 0.951217 0.418910
vt 0.696322 0.490492
vt 0.710957 0.358781
vt 0.710957 0.484374
vt 0.696321 0.352662
vt 0.710957 0.358781
vt 0.696322 0.490492
vt 0.684505 0.490492
vt 0.696321 0.352662
vt 0.696322 0.490492
vt 0.684505 0.352662
vt 0.696321 0.352662
vt 0.684505 0.490492
vt 0.862643 0.289715
vt 0.830095 0.437040
vt 0.830095 0.319645
vt 0.862643 0.466970
vt 0.830095 0.437040
vt 0.862643 0.289715
vt 0.669870 0.358781
vt 0.634965 0.457230
vt 0.634965 0.385925
vt 0.669870 0.484374
vt 0.634965 0.457230
vt 0.669870 0.358781
vt 0.936582 0.287199
vt 0.901677 0.385648
vt 0.901677 0.314343
vt 0.936582 0.412792
vt 0.901677 0.385648
vt 0.936582 0.287199
vt 0.820855 0.313629
vt 0.673530 0.281080
vt 0.790925 0.281080
vt 0.643600 0.313628
vt 0.673530 0.281080
vt 0.820855 0.313629
vt 0.933889 0.509685
vt 0.904348 0.720320
vt 0.904348 0.535373
vt 0.933889 0.746009
vt 0.904348 0.720320
vt 0.933889 0.509685
vt 0.768961 0.736627
vt 0.794650 0.525991
vt 0.794650 0.710938
vt 0.768961 0.500302
vt 0.794650 0.525991
vt 0.768961 0.736627
vt 0.768961 0.500302
vt 0.887123 0.525991
vt 0.794650 0.525991
vt 0.916663 0.500302
vt 0.887123 0.525991
vt 0.768961 0.500302
vt 0.916663 0.736627
vt 0.794650 0.710938
vt 0.887123 0.710938
vt 0.768961 0.736627
vt 0.794650 0.710938
vt 0.916663 0.736627
vt 0.434055 0.247008
vt 0.341582 0.431955
vt 0.341582 0.247008
vt 0.434055 0.431955
vt 0.341582 0.431955
vt 0.434055 0.247008
vt 0.775637 0.743907
vt 0.768961 0.928854
vt 0.768961 0.743907
vt 0.775637 0.928854
vt 0.768961 0.928854
vt 0.775637 0.743907
vt 0.868110 0.743908
vt 0.775637 0.737231
vt 0.868110 0.737232
vt 0.775637 0.743907
vt 0.775637 0.737231
vt 0.868110 0.743908
vt 0.868110 0.928854
vt 0.874786 0.743908
vt 0.874786 0.928854
vt 0.868110 0.743908
vt 0.874786 0.743908
vt 0.868110 0.928854

vn -0.000000 -1.000000 0.000000
vn -0.000000 -1.000000 0.000000
vn -0.000000 -1.000000 0.000000
vn -0.000000 -1.000000 0.000000
vn -0.000000 -1.000000 0.000000
vn -0.000000 -1.000000 0.000000
vn -0.000000 0.000000 -1.000000
vn -0.000000 0.000000 -1.000000
vn -0.000000 0.000000 -1.000000
vn -0.000000 0.000000 -1.000000
vn -0.000000 0.000000 -1.000000
vn -0.000000 0.000000 -1.000000
vn -1.000000 0.000000 0.000000
vn -1.000000 0.000000 0.000000
vn -1.000000 0.000000 0.000000
vn -1.000000 0.000000 0.000000
vn -1.000000 0.000000 0.000000
vn -1.000000 0.000000 0.000000
vn 0.000000 1.000000 0.000000
vn 0.000000 1.000000 0.000000
vn 0.000000 1.000000 0.000000
vn 0.000000 1.000000 0.000000
vn 0.000000 1.000000 0.000000
vn 0.000000 1.000000 0.000000
vn 1.000000 -0.000000 0.000000
vn 1.000000 -0.000000 0.000000
vn 1.000000 -0.000000 0.000000
vn 1.000000 -0.000000 0.000000
vn 1.000000 -0.000000 0.000000
vn 1.000000 -0.000000 0.000000
vn -1.000000 0.000000 0.000000
vn -1.000000 0.000000 0.000000
vn -1.000000 0.000000 0.000000
vn -1.000000 0.000000 0.000000
vn -1.000000 0.000000 0.000000
vn -1.000000 0.000000 0.000000
vn -0.000000 0.000000 1.000000
vn -0.000000 0.000000 1.000000
vn -0.000000 0.000000 1.000000
vn -0.000000 -0.000000 1.000000
vn -0.000000 -0.000000 1.000000
vn -0.000000 -0.000000 1.000000
vn 0.000000 1.000000 0.000000
vn 0.000000 1.000000 0.000000
vn 0.000000 1.000000 0.000000
vn 0.000000 1.000000 0.000000
vn 0.000000 1.000000 0.000000
vn 0.000000 1.000000 0.000000
vn -1.000000 0.000000 0.000000
vn -1.000000 0.000000 0.000000
vn -1.000000 0.000000 0.000000
vn -1.000000 0.000000 0.000000
vn -1.000000 0.000000 0.000000
vn -1.000000 0.000000 0.000000
vn 1.000000 -0.000000 0.000000
vn 1.000000 -0.000000 0.000000
vn 1.000000 -0.000000 0.000000
vn 1.000000 -0.000000 0.000000
vn 1.000000 -0.000000 0.000000
vn 1.000000 -0.000000 0.000000
vn -0.000000 -1.000000 0.000000
vn -0.000000 -1.000000 0.000000
vn -0.000000 -1.000000 0.000000
vn -0.000000 -1.000000 0.000000
vn -0.000000 -1.000000 0.000000
vn -0.000000 -1.000000 0.000000
vn 1.000000 -0.000000 0.000000
vn 1.000000 -0.000000 0.000000
vn 1.000000 -0.000000 0.000000
vn 1.000000 -0.000000 0.000000
vn 1.000000 -0.000000 0.000000
vn 1.000000 -0.000000 0.000000
vn 1.000000 -0.000000 0.000000
vn 1.000000 -0.000000 0.000000
vn 1.000000 -0.000000 0.000000
vn 1.000000 -0.000000 0.000000
vn 1.000000 -0.000000 0.000000
vn 1.000000 -0.000000 0.000000
vn -0.000000 0.000000 1.000000
vn -0.000000 0.000000 1.000000
vn -0.000000 0.000000 1.000000
vn -0.000000 0.000000 1.000000
vn -0.000000 0.000000 1.000000
vn -0.000000 0.000000 1.000000
vn -0.000000 -1.000000 0.000000
vn -0.000000 -1.000000 0.000000
vn -0.000000 -1.000000 0.000000
vn -0.000000 -1.000000 0.000000
vn -0.000000 -1.000000 0.000000
vn -0.000000 -1.000000 0.000000
vn 0.640184 -0.768222 0.000000
vn 0.640184 -0.768222 0.000000
vn 0.640184 -0.768222 0.000000
vn 0.640184 -0.768222 0.000000
vn 0.640184 -0.768222 0.000000
vn 0.640184 -0.768222 0.000000
vn -0.640184 -0.768221 0.000000
vn -0.640184 -0.768221 0.000000
vn -0.640184 -0.768221 0.000000
vn -0.640185 -0.768221 0.000000
vn -0.640185 -0.768221 0.000000
vn -0.640185 -0.768221 0.000000
vn -0.000000 -0.768223 -0.640182
vn -0.000000 -0.768223 -0.640182
vn -0.000000 -0.768223 -0.640182
vn -0.000000 -0.768219 -0.640187
vn -0.000000 -0.768219 -0.640187
vn -0.000000 -0.768219 -0.640187
vn -0.000000 -0.000005 1.000000
vn -0.000000 -0.000005 1.000000
vn -0.000000 -0.000005 1.000000
vn -0.000000 0.000003 1.000000
vn -0.000000 0.000003 1.000000
vn -0.000000 0.000003 1.000000
vn -0.000000 0.000000 1.000000
vn -0.000000 0.000000 1.000000
vn -0.000000 0.000000 1.000000
vn -0.000000 0.000000 1.000000
vn -0.000000 0.000000 1.000000
vn -0.000000 0.000000 1.000000
vn -0.000000 0.000000 1.000000
vn -0.000000 0.000000 1.000000
vn -0.000000 0.000000 1.000000
vn -0.000000 0.000000 1.000000
vn -0.000000 0.000000 1.000000
vn -0.000000 0.000000 1.000000
vn 0.000000 0.768219 -0.640187
vn 0.000000 0.768219 -0.640187
vn 0.000000 0.768219 -0.640187
vn 0.000000 0.768222 -0.640184
vn 0.000000 0.768222 -0.640184
vn 0.000000 0.768222 -0.640184
vn -0.000000 0.000000 -1.000000
vn -0.000000 0.000000 -1.000000
vn -0.000000 0.000000 -1.000000
vn -0.000000 0.000000 -1.000000
vn -0.000000 0.000000 -1.000000
vn -0.000000 0.000000 -1.000000
vn -0.640184 0.768222 0.000000
vn -0.640184 0.768222 0.000000
vn -0.640184 0.768222 0.000000
vn -0.640183 0.768222 0.000000
vn -0.640183 0.768222 0.000000
vn -0.640183 0.768222 0.000000
vn -1.000000 0.000000 0.000000
vn -1.000000 0.000000 0.000000
vn -1.000000 0.000000 0.000000
vn -1.000000 0.000000 0.000000
vn -1.000000 0.000000 0.000000
vn -1.000000 0.000000 0.000000
vn 0.640185 0.768221 0.000000
vn 0.640185 0.768221 0.000000
vn 0.640185 0.768221 0.000000
vn 0.640185 0.768221 0.000000
vn 0.640185 0.768221 0.000000
vn 0.640185 0.768221 0.000000
vn 1.000000 0.000000 0.000000
vn 1.000000 0.000000 0.000000
vn 1.000000 0.000000 0.000000
vn 1.000000 0.000000 0.000000
vn 1.000000 0.000000 0.000000
vn 1.000000 0.000000 0.000000
vn 0.000000 1.000000 0.000000
vn 0.000000 1.000000 0.000000
vn 0.000000 1.000000 0.000000
vn 0.000000 1.000000 0.000000
vn 0.000000 1.000000 0.000000
vn 0.000000 1.000000 0.000000
vn -0.000000 -1.000000 0.000000
vn -0.000000 -1.000000 0.000000
vn -0.000000 -1.000000 0.000000
vn -0.000000 -1.000000 0.000000
vn -0.000000 -1.000000 0.000000
vn -0.000000 -1.000000 0.000000
vn 0.807381 -0.590030 0.000000
vn 0.807381 -0.590030 0.000000
vn 0.807381 -0.590030 0.000000
vn 0.807382 -0.590029 0.000000
vn 0.807382 -0.590029 0.000000
vn 0.807382 -0.590029 0.000000
vn -0.807382 -0.590028 0.000000
vn -0.807382 -0.590028 0.000000
vn -0.807382 -0.590028 0.000000
vn -0.807383 -0.590028 0.000000
vn -0.807383 -0.590028 0.000000
vn -0.807383 -0.590028 0.000000
vn -0.000000 -0.459814 -0.888015
vn -0.000000 -0.459814 -0.888015
vn -0.000000 -0.459814 -0.888015
vn -0.000000 -0.459816 -0.888014
vn -0.000000 -0.459816 -0.888014
vn -0.000000 -0.459816 -0.888014
vn -0.000000 -0.459815 0.888015
vn -0.000000 -0.459815 0.888015
vn -0.000000 -0.459815 0.888015
vn -0.000000 -0.459815 0.888014
vn -0.000000 -0.459815 0.888014
vn -0.000000 -0.459815 0.888014
vn 0.000000 0.459816 0.888014
vn 0.000000 0.459816 0.888014
vn 0.000000 0.459816 0.888014
vn 0.000000 0.459815 0.888015
vn 0.000000 0.459815 0.888015
vn 0.000000 0.459815 0.888015
vn -0.000000 0.000000 1.000000
vn -0.000000 0.000000 1.000000
vn -0.000000 0.000000 1.000000
vn -0.000000 0.000000 1.000000
vn -0.000000 0.000000 1.000000
vn -0.000000 0.000000 1.000000
vn 0.000000 0.459816 -0.888014
vn 0.000000 0.459816 -0.888014
vn 0.000000 0.459816 -0.888014
vn 0.000000 0.459814 -0.888015
vn 0.000000 0.459814 -0.888015
vn 0.000000 0.459814 -0.888015
vn -0.000000 0.000000 -1.000000
vn -0.000000 0.000000 -1.000000
vn -0.000000 0.000000 -1.000000
vn -0.000000 0.000000 -1.000000
vn -0.000000 0.000000 -1.000000
vn -0.000000 0.000000 -1.000000
vn -0.807382 0.590029 0.000000
vn -0.807382 0.590029 0.000000
vn -0.807382 0.590029 0.000000
vn -0.807382 0.590029 0.000000
vn -0.807382 0.590029 0.000000
vn -0.807382 0.590029 0.000000
vn -1.000000 0.000000 -0.000000
vn -1.000000 0.000000 -0.000000
vn -1.000000 0.000000 -0.000000
vn -1.000000 0.000000 0.000000
vn -1.000000 0.000000 0.000000
vn -1.000000 0.000000 0.000000
vn 0.807383 0.590028 0.000000
vn 0.807383 0.590028 0.000000
vn 0.807383 0.590028 0.000000
vn 0.807382 0.590029 0.000000
vn 0.807382 0.590029 0.000000
vn 0.807382 0.590029 0.000000
vn 1.000000 0.000000 0.000000
vn 1.000000 0.000000 0.000000
vn 1.000000 0.000000 0.000000
vn 1.000000 0.000000 0.000000
vn 1.000000 0.000000 0.000000
vn 1.000000 0.000000 0.000000
vn -0.000000 -0.833974 -0.551803
vn -0.000000 -0.833974 -0.551803
vn -0.000000 -0.833974 -0.551803
vn -0.000000 -0.833974 -0.551803
vn -0.000000 -0.833974 -0.551803
vn -0.000000 -0.833974 -0.551803
vn 0.514545 -0.857463 0.000000
vn 0.514545 -0.857463 0.000000
vn 0.514545 -0.857463 0.000000
vn 0.514545 -0.857463 0.000000
vn 0.514545 -0.857463 0.000000
vn 0.514545 -0.857463 0.000000
vn -0.514545 -0.857463 0.000000
vn -0.514545 -0.857463 0.000000
vn -0.514545 -0.857463 0.000000
vn -0.514546 -0.857463 0.000000
vn -0.514546 -0.857463 0.000000
vn -0.514546 -0.857463 0.000000
vn -0.000000 -0.833975 0.551802
vn -0.000000 -0.833975 0.551802
vn -0.000000 -0.833975 0.551802
vn -0.000000 -0.833975 0.551803
vn -0.000000 -0.833975 0.551803
vn -0.000000 -0.833975 0.551803
vn -0.000000 0.000000 -1.000000
vn -0.000000 0.000000 -1.000000
vn -0.000000 0.000000 -1.000000
vn -0.000000 0.000001 -1.000000
vn -0.000000 0.000001 -1.000000
vn -0.000000 0.000001 -1.000000
vn -0.000000 0.000000 -1.000000
vn -0.000000 0.000000 -1.000000
vn -0.000000 0.000000 -1.000000
vn -0.000000 0.000000 -1.000000
vn -0.000000 0.000000 -1.000000
vn -0.000000 0.000000 -1.000000
vn -0.000000 0.000000 -1.000000
vn -0.000000 0.000000 -1.000000
vn -0.000000 0.000000 -1.000000
vn -0.000000 0.000000 -1.000000
vn -0.000000 0.000000 -1.000000
vn -0.000000 0.000000 -1.000000
vn -0.000000 0.000000 -1.000000
vn -0.000000 0.000000 -1.000000
vn -0.000000 0.000000 -1.000000
vn -0.000000 0.000000 -1.000000
vn -0.000000 0.000000 -1.000000
vn -0.000000 0.000000 -1.000000
vn -0.000000 0.000000 -1.000000
vn -0.000000 0.000000 -1.000000
vn -0.000000 0.000000 -1.000000
vn -0.000000 0.000000 -1.000000
vn -0.000000 0.000000 -1.000000
vn -0.000000 0.000000 -1.000000
vn -0.000000 -1.000000 0.000000
vn -0.000000 -1.000000 0.000000
vn -0.000000 -1.000000 0.000000
vn -0.000000 -1.000000 0.000000
vn -0.000000 -1.000000 0.000000
vn -0.000000 -1.000000 0.000000
vn -1.000000 0.000000 0.000000
vn -1.000000 0.000000 0.000000
vn -1.000000 0.000000 0.000000
vn -1.000000 0.000000 0.000000
vn -1.000000 0.000000 0.000000
vn -1.000000 0.000000 0.000000
vn 0.000000 1.000000 0.000000
vn 0.000000 1.000000 0.000000
vn 0.000000 1.000000 0.000000
vn 0.000000 1.000000 0.000000
vn 0.000000 1.000000 0.000000
vn 0.000000 1.000000 0.000000

g Material
f 3/1/1 1/2/2 2/3/3
f 4/4/4 1/5/5 3/6/6
f 7/7/7 5/8/8 6/9/9
f 8/10/10 5/11/11 7/12/12
f 11/13/13 9/14/14 10/15/15
f 12/16/16 9/17/17 11/18/18
f 15/19/19 13/20/20 14/21/21
f 16/22/22 13/23/23 15/24/24
f 19/25/25 17/26/26 18/27/27
f 20/28/28 17/29/29 19/30/30
f 23/31/31 21/32/32 22/33/33
f 24/34/34 21/35/35 23/36/36
f 27/37/37 25/38/38 26/39/39
f 28/40/40 25/41/41 27/42/42
f 31/43/43 29/44/44 30/45/45
f 32/46/46 29/47/47 31/48/48
f 35/49/49 33/50/50 34/51/51
f 36/52/52 33/53/53 35/54/54
f 39/55/55 37/56/56 38/57/57
f 40/58/58 37/59/59 39/60/60
f 43/61/61 41/62/62 42/63/63
f 44/64/64 41/65/65 43/66/66
f 47/67/67 45/68/68 46/69/69
f 48/70/70 45/71/71 47/72/72
f 51/73/73 49/74/74 50/75/75
f 52/76/76 49/77/77 51/78/78
f 55/79/79 53/80/80 54/81/81
f 56/82/82 53/83/83 55/84/84
f 59/85/85 57/86/86 58/87/87
f 60/88/88 57/89/89 59/90/90
f 63/91/91 61/92/92 62/93/93
f 64/94/94 61/95/95 63/96/96
f 67/97/97 65/98/98 66/99/99
f 68/100/100 65/101/101 67/102/102
f 71/103/103 69/104/104 70/105/105
f 72/106/106 69/107/107 71/108/108
f 75/109/109 73/110/110 74/111/111
f 76/112/112 73/113/113 75/114/114
f 79/115/115 77/116/116 78/117/117
f 80/118/118 77/119/119 79/120/120
f 83/121/121 81/122/122 82/123/123
f 84/124/124 81/125/125 83/126/126
f 87/127/127 85/128/128 86/129/129
f 88/130/130 85/131/131 87/132/132
f 91/133/133 89/134/134 90/135/135
f 92/136/136 89/137/137 91/138/138
f 95/139/139 93/140/140 94/141/141
f 96/142/142 93/143/143 95/144/144
f 99/145/145 97/146/146 98/147/147
f 100/148/148 97/149/149 99/150/150
f 103/151/151 101/152/152 102/153/153
f 104/154/154 101/155/155 103/156/156
f 107/157/157 105/158/158 106/159/159
f 108/160/160 105/161/161 107/162/162
f 111/163/163 109/164/164 110/165/165
f 112/166/166 109/167/167 111/168/168
f 115/169/169 113/170/170 114/171/171
f 116/172/172 113/173/173 115/174/174
f 119/175/175 117/176/176 118/177/177
f 120/178/178 117/179/179 119/180/180
f 123/181/181 121/182/182 122/183/183
f 124/184/184 121/185/185 123/186/186
f 127/187/187 125/188/188 126/189/189
f 128/190/190 125/191/191 127/192/192
f 131/193/193 129/194/194 130/195/195
f 132/196/196 129/197/197 131/198/198
f 135/199/199 133/200/200 134/201/201
f 136/202/202 133/203/203 135/204/204
f 139/205/205 137/206/206 138/207/207
f 140/208/208 137/209/209 139/210/210
f 143/211/211 141/212/212 142/213/213
f 144/214/214 141/215/215 143/216/216
f 147/217/217 145/218/218 146/219/219
f 148/220/220 145/221/221 147/222/222
f 151/223/223 149/224/224 150/225/225
f 152/226/226 149/227/227 151/228/228
f 155/229/229 153/230/230 154/231/231
f 156/232/232 153/233/233 155/234/234
f 159/235/235 157/236/236 158/237/237
f 160/238/238 157/239/239 159/240/240
f 163/241/241 161/242/242 162/243/243
f 164/244/244 161/245/245 163/246/246
f 167/247/247 165/248/248 166/249/249
f 168/250/250 165/251/251 167/252/252
f 171/253/253 169/254/254 170/255/255
f 172/256/256 169/257/257 171/258/258
f 175/259/259 173/260/260 174/261/261
f 176/262/262 173/263/263 175/264/264
f 179/265/265 177/266/266 178/267/267
f 180/268/268 177/269/269 179/270/270
f 183/271/271 181/272/272 182/273/273
f 184/274/274 181/275/275 183/276/276
f 187/277/277 185/278/278 186/279/279
f 188/280/280 185/281/281 187/282/282
f 191/283/283 189/284/284 190/285/285
f 192/286/286 189/287/287 191/288/288
f 195/289/289 193/290/290 194/291/291
f 196/292/292 193/293/293 195/294/294
f 199/295/295 197/296/296 198/297/297
f 200/298/298 197/299/299 199/300/300
f 203/301/301 201/302/302 202/303/303
f 204/304/304 201/305/305 203/306/306
f 207/307/307 205/308/308 206/309/309
f 208/310/310 205/311/311 207/312/312
f 211/313/313 209/314/314 210/315/315
f 212/316/316 209/317/317 211/318/318

