# Converted from B3D for Luanti (With Correct Normals)
# Object Name: multidecor_embossed_quadratic_painting

v 1.000000 1.000000 0.800000
v -1.000000 1.000000 0.800000
v -1.000000 1.000000 1.000000
v 1.000000 1.000000 1.000000
v 1.000000 -1.000000 1.000000
v 1.000000 1.000000 1.000000
v -1.000000 1.000000 1.000000
v -1.000000 -1.000000 1.000000
v -1.000000 -1.000000 1.000000
v -1.000000 1.000000 1.000000
v -1.000000 1.000000 0.800000
v -1.000000 -1.000000 0.800000
v -1.000000 -1.000000 0.800000
v 1.000000 -1.000000 0.800000
v 1.000000 -1.000000 1.000000
v -1.000000 -1.000000 1.000000
v 1.000000 -1.000000 0.800000
v 1.000000 1.000000 0.800000
v 1.000000 1.000000 1.000000
v 1.000000 -1.000000 1.000000
v 0.838375 0.838375 0.800000
v 0.838375 -0.838375 0.800000
v 0.765000 -0.765000 0.800000
v 0.765000 0.765000 0.800000
v 0.765000 0.765000 0.800000
v 0.765000 -0.765000 0.800000
v 0.765000 -0.765000 0.900000
v 0.765000 0.765000 0.900000
v -0.838375 -0.838375 0.800000
v -0.838375 0.838375 0.800000
v -0.765000 0.765000 0.800000
v -0.765000 -0.765000 0.800000
v 0.838375 -0.838375 0.800000
v -0.838375 -0.838375 0.800000
v -0.765000 -0.765000 0.800000
v 0.765000 -0.765000 0.800000
v -0.838375 0.838375 0.800000
v 0.838375 0.838375 0.800000
v 0.765000 0.765000 0.800000
v -0.765000 0.765000 0.800000
v -0.765000 -0.765000 0.900000
v -0.765000 0.765000 0.900000
v 0.765000 0.765000 0.900000
v 0.765000 -0.765000 0.900000
v -0.765000 -0.765000 0.800000
v -0.765000 0.765000 0.800000
v -0.765000 0.765000 0.900000
v -0.765000 -0.765000 0.900000
v 0.765000 -0.765000 0.800000
v -0.765000 -0.765000 0.800000
v -0.765000 -0.765000 0.900000
v 0.765000 -0.765000 0.900000
v -0.765000 0.765000 0.800000
v 0.765000 0.765000 0.800000
v 0.765000 0.765000 0.900000
v -0.765000 0.765000 0.900000
v 1.000000 1.000000 0.800000
v 1.000000 -1.000000 0.800000
v 1.000000 -1.000000 0.750000
v 1.000000 1.000000 0.750000
v 0.838375 -0.838375 0.800000
v 0.838375 0.838375 0.800000
v 0.838375 0.838375 0.750000
v 0.838375 -0.838375 0.750000
v -1.000000 1.000000 0.800000
v 1.000000 1.000000 0.800000
v 1.000000 1.000000 0.750000
v -1.000000 1.000000 0.750000
v 0.838375 0.838375 0.800000
v -0.838375 0.838375 0.800000
v -0.838375 0.838375 0.750000
v 0.838375 0.838375 0.750000
v -0.919187 0.919187 0.750000
v 0.919188 0.919187 0.750000
v 0.838375 0.838375 0.750000
v -0.838375 0.838375 0.750000
v 0.919188 -0.919187 0.750000
v -0.919187 -0.919187 0.750000
v -0.838375 -0.838375 0.750000
v 0.838375 -0.838375 0.750000
v -0.919187 -0.919187 0.750000
v -0.919187 0.919187 0.750000
v -0.838375 0.838375 0.750000
v -0.838375 -0.838375 0.750000
v 0.919188 0.919187 0.750000
v 0.919188 -0.919187 0.750000
v 0.838375 -0.838375 0.750000
v 0.838375 0.838375 0.750000
v -0.838375 -0.838375 0.800000
v 0.838375 -0.838375 0.800000
v 0.838375 -0.838375 0.750000
v -0.838375 -0.838375 0.750000
v -1.000000 -1.000000 0.800000
v -1.000000 1.000000 0.800000
v -1.000000 1.000000 0.750000
v -1.000000 -1.000000 0.750000
v -0.838375 0.838375 0.800000
v -0.838375 -0.838375 0.800000
v -0.838375 -0.838375 0.750000
v -0.838375 0.838375 0.750000
v 1.000000 -1.000000 0.800000
v -1.000000 -1.000000 0.800000
v -1.000000 -1.000000 0.750000
v 1.000000 -1.000000 0.750000
v 0.919188 -0.919187 0.750000
v 0.919188 0.919187 0.750000
v 0.919188 0.919187 0.695000
v 0.919188 -0.919187 0.695000
v 1.000000 -1.000000 0.750000
v -1.000000 -1.000000 0.750000
v -1.000000 -1.000000 0.695000
v 1.000000 -1.000000 0.695000
v -0.919187 -0.919187 0.750000
v 0.919188 -0.919187 0.750000
v 0.919188 -0.919187 0.695000
v -0.919187 -0.919187 0.695000
v -1.000000 -1.000000 0.750000
v -1.000000 1.000000 0.750000
v -1.000000 1.000000 0.695000
v -1.000000 -1.000000 0.695000
v 1.000000 1.000000 0.695000
v 1.000000 -1.000000 0.695000
v 0.919188 -0.919187 0.695000
v 0.919188 0.919187 0.695000
v -1.000000 -1.000000 0.695000
v -1.000000 1.000000 0.695000
v -0.919187 0.919187 0.695000
v -0.919187 -0.919187 0.695000
v 1.000000 -1.000000 0.695000
v -1.000000 -1.000000 0.695000
v -0.919187 -0.919187 0.695000
v 0.919188 -0.919187 0.695000
v -1.000000 1.000000 0.695000
v 1.000000 1.000000 0.695000
v 0.919188 0.919187 0.695000
v -0.919187 0.919187 0.695000
v -1.000000 1.000000 0.750000
v 1.000000 1.000000 0.750000
v 1.000000 1.000000 0.695000
v -1.000000 1.000000 0.695000
v 0.919188 0.919187 0.750000
v -0.919187 0.919187 0.750000
v -0.919187 0.919187 0.695000
v 0.919188 0.919187 0.695000
v 1.000000 1.000000 0.750000
v 1.000000 -1.000000 0.750000
v 1.000000 -1.000000 0.695000
v 1.000000 1.000000 0.695000
v -0.919187 0.919187 0.750000
v -0.919187 -0.919187 0.750000
v -0.919187 -0.919187 0.695000
v -0.919187 0.919187 0.695000

vt 0.133880 0.133879
vt 0.092407 0.548596
vt 0.092408 0.133879
vt 0.133879 0.548597
vt 0.092407 0.548596
vt 0.133880 0.133879
vt 0.133880 0.133879
vt 0.548596 0.548597
vt 0.133879 0.548597
vt 0.548597 0.133880
vt 0.548596 0.548597
vt 0.133880 0.133879
vt 0.133880 0.092407
vt 0.548597 0.133880
vt 0.133880 0.133879
vt 0.548597 0.092408
vt 0.548597 0.133880
vt 0.133880 0.092407
vt 0.548596 0.548597
vt 0.590069 0.133880
vt 0.590068 0.548597
vt 0.548597 0.133880
vt 0.590069 0.133880
vt 0.548596 0.548597
vt 0.133879 0.548597
vt 0.548596 0.590069
vt 0.133879 0.590068
vt 0.548596 0.548597
vt 0.548596 0.590069
vt 0.133879 0.548597
vt 0.499867 0.682344
vt 0.167394 0.667128
vt 0.515082 0.667129
vt 0.182610 0.682344
vt 0.167394 0.667128
vt 0.499867 0.682344
vt 0.682609 0.634915
vt 0.703344 0.317656
vt 0.703344 0.634915
vt 0.682608 0.317656
vt 0.703344 0.317656
vt 0.682609 0.634915
vt 0.182609 0.000133
vt 0.515082 0.015348
vt 0.167394 0.015348
vt 0.499866 0.000132
vt 0.515082 0.015348
vt 0.182609 0.000133
vt 0.682344 0.182609
vt 0.667128 0.515082
vt 0.667129 0.167394
vt 0.682344 0.499867
vt 0.667128 0.515082
vt 0.682344 0.182609
vt 0.000132 0.499867
vt 0.015348 0.167394
vt 0.015347 0.515082
vt 0.000132 0.182610
vt 0.015348 0.167394
vt 0.000132 0.499867
vt 0.745346 0.317656
vt 0.724610 0.634915
vt 0.724610 0.317656
vt 0.745346 0.634915
vt 0.724610 0.634915
vt 0.745346 0.317656
vt 0.724345 0.317656
vt 0.703609 0.634915
vt 0.703609 0.317656
vt 0.724345 0.634915
vt 0.703609 0.634915
vt 0.724345 0.317656
vt 0.000132 0.682609
vt 0.317391 0.703345
vt 0.000132 0.703344
vt 0.317391 0.682609
vt 0.317391 0.703345
vt 0.000132 0.682609
vt 0.548596 0.600437
vt 0.133879 0.590068
vt 0.548596 0.590069
vt 0.133879 0.600436
vt 0.133879 0.590068
vt 0.548596 0.600437
vt 0.167394 0.656760
vt 0.515082 0.667129
vt 0.167394 0.667128
vt 0.515082 0.656761
vt 0.515082 0.667129
vt 0.167394 0.656760
vt 0.082039 0.548596
vt 0.092408 0.133879
vt 0.092407 0.548596
vt 0.082040 0.133879
vt 0.092408 0.133879
vt 0.082039 0.548596
vt 0.025716 0.167394
vt 0.015347 0.515082
vt 0.015348 0.167394
vt 0.025716 0.515082
vt 0.015347 0.515082
vt 0.025716 0.167394
vt 0.025716 0.515082
vt 0.042473 0.150637
vt 0.042473 0.531839
vt 0.025716 0.167394
vt 0.042473 0.150637
vt 0.025716 0.515082
vt 0.656760 0.167394
vt 0.640003 0.531840
vt 0.640003 0.150637
vt 0.656760 0.515082
vt 0.640003 0.531840
vt 0.656760 0.167394
vt 0.167394 0.025716
vt 0.531839 0.042473
vt 0.150637 0.042473
vt 0.515082 0.025716
vt 0.531839 0.042473
vt 0.167394 0.025716
vt 0.515082 0.656761
vt 0.150637 0.640003
vt 0.531839 0.640003
vt 0.167394 0.656760
vt 0.150637 0.640003
vt 0.515082 0.656761
vt 0.656760 0.515082
vt 0.667129 0.167394
vt 0.667128 0.515082
vt 0.656760 0.167394
vt 0.667129 0.167394
vt 0.656760 0.515082
vt 0.133880 0.082039
vt 0.548597 0.092408
vt 0.133880 0.092407
vt 0.548597 0.082040
vt 0.548597 0.092408
vt 0.133880 0.082039
vt 0.515082 0.025716
vt 0.167394 0.015348
vt 0.515082 0.015348
vt 0.167394 0.025716
vt 0.167394 0.015348
vt 0.515082 0.025716
vt 0.600437 0.133880
vt 0.590068 0.548597
vt 0.590069 0.133880
vt 0.600436 0.548597
vt 0.590068 0.548597
vt 0.600437 0.133880
vt 0.150637 0.628598
vt 0.531839 0.640003
vt 0.150637 0.640003
vt 0.531839 0.628599
vt 0.531839 0.640003
vt 0.150637 0.628598
vt 0.611842 0.133880
vt 0.600436 0.548597
vt 0.600437 0.133880
vt 0.611840 0.548597
vt 0.600436 0.548597
vt 0.611842 0.133880
vt 0.628598 0.531840
vt 0.640003 0.150637
vt 0.640003 0.531840
vt 0.628599 0.150637
vt 0.640003 0.150637
vt 0.628598 0.531840
vt 0.133880 0.070635
vt 0.548597 0.082040
vt 0.133880 0.082039
vt 0.548597 0.070636
vt 0.548597 0.082040
vt 0.133880 0.070635
vt 0.531839 0.628599
vt 0.133879 0.611840
vt 0.548596 0.611842
vt 0.150637 0.628598
vt 0.133879 0.611840
vt 0.531839 0.628599
vt 0.150637 0.053878
vt 0.548597 0.070636
vt 0.133880 0.070635
vt 0.531839 0.053878
vt 0.548597 0.070636
vt 0.150637 0.053878
vt 0.628599 0.150637
vt 0.611840 0.548597
vt 0.611842 0.133880
vt 0.628598 0.531840
vt 0.611840 0.548597
vt 0.628599 0.150637
vt 0.053877 0.531839
vt 0.070636 0.133879
vt 0.070634 0.548596
vt 0.053878 0.150637
vt 0.070636 0.133879
vt 0.053877 0.531839
vt 0.070634 0.548596
vt 0.082040 0.133879
vt 0.082039 0.548596
vt 0.070636 0.133879
vt 0.082040 0.133879
vt 0.070634 0.548596
vt 0.053878 0.150637
vt 0.042473 0.531839
vt 0.042473 0.150637
vt 0.053877 0.531839
vt 0.042473 0.531839
vt 0.053878 0.150637
vt 0.548596 0.611842
vt 0.133879 0.600436
vt 0.548596 0.600437
vt 0.133879 0.611840
vt 0.133879 0.600436
vt 0.548596 0.611842
vt 0.531839 0.053878
vt 0.150637 0.042473
vt 0.531839 0.042473
vt 0.150637 0.053878
vt 0.150637 0.042473
vt 0.531839 0.053878
vt 0.000100 0.999900
vt 0.999900 0.000100
vt 0.999900 0.999900
vt 0.000100 0.000100
vt 0.999900 0.000100
vt 0.000100 0.999900

vn -0.000000 1.000000 0.000000
vn -0.000000 1.000000 0.000000
vn -0.000000 1.000000 0.000000
vn -0.000000 1.000000 0.000000
vn -0.000000 1.000000 0.000000
vn -0.000000 1.000000 0.000000
vn 0.000000 0.000000 1.000000
vn 0.000000 0.000000 1.000000
vn 0.000000 0.000000 1.000000
vn 0.000000 0.000000 1.000000
vn 0.000000 0.000000 1.000000
vn 0.000000 0.000000 1.000000
vn -1.000000 0.000000 0.000001
vn -1.000000 0.000000 0.000001
vn -1.000000 0.000000 0.000001
vn -1.000000 0.000000 0.000000
vn -1.000000 0.000000 0.000000
vn -1.000000 0.000000 0.000000
vn -0.000000 -1.000000 0.000000
vn -0.000000 -1.000000 0.000000
vn -0.000000 -1.000000 0.000000
vn -0.000000 -1.000000 0.000000
vn -0.000000 -1.000000 0.000000
vn -0.000000 -1.000000 0.000000
vn 1.000000 0.000000 0.000000
vn 1.000000 0.000000 0.000000
vn 1.000000 0.000000 0.000000
vn 1.000000 0.000000 -0.000001
vn 1.000000 0.000000 -0.000001
vn 1.000000 0.000000 -0.000001
vn -0.000001 0.000000 -1.000000
vn -0.000001 0.000000 -1.000000
vn -0.000001 0.000000 -1.000000
vn -0.000001 0.000000 -1.000000
vn -0.000001 0.000000 -1.000000
vn -0.000001 0.000000 -1.000000
vn -1.000000 0.000000 0.000000
vn -1.000000 0.000000 0.000000
vn -1.000000 0.000000 0.000000
vn -1.000000 0.000000 0.000002
vn -1.000000 0.000000 0.000002
vn -1.000000 0.000000 0.000002
vn -0.000001 0.000000 -1.000000
vn -0.000001 0.000000 -1.000000
vn -0.000001 0.000000 -1.000000
vn -0.000001 0.000000 -1.000000
vn -0.000001 0.000000 -1.000000
vn -0.000001 0.000000 -1.000000
vn -0.000000 0.000000 -1.000000
vn -0.000000 0.000000 -1.000000
vn -0.000000 0.000000 -1.000000
vn -0.000000 -0.000002 -1.000000
vn -0.000000 -0.000002 -1.000000
vn -0.000000 -0.000002 -1.000000
vn -0.000000 0.000000 -1.000000
vn -0.000000 0.000000 -1.000000
vn -0.000000 0.000000 -1.000000
vn -0.000000 0.000002 -1.000000
vn -0.000000 0.000002 -1.000000
vn -0.000000 0.000002 -1.000000
vn 1.000000 0.000000 0.000000
vn 1.000000 0.000000 0.000000
vn 1.000000 0.000000 0.000000
vn 1.000000 0.000000 -0.000002
vn 1.000000 0.000000 -0.000002
vn 1.000000 0.000000 -0.000002
vn 0.000000 1.000000 0.000000
vn 0.000000 1.000000 0.000000
vn 0.000000 1.000000 0.000000
vn -0.000000 1.000000 0.000000
vn -0.000000 1.000000 0.000000
vn -0.000000 1.000000 0.000000
vn 0.000000 -1.000000 0.000000
vn 0.000000 -1.000000 0.000000
vn 0.000000 -1.000000 0.000000
vn -0.000000 -1.000000 0.000000
vn -0.000000 -1.000000 0.000000
vn -0.000000 -1.000000 0.000000
vn 1.000000 0.000000 0.000000
vn 1.000000 0.000000 0.000000
vn 1.000000 0.000000 0.000000
vn 1.000000 0.000000 0.000000
vn 1.000000 0.000000 0.000000
vn 1.000000 0.000000 0.000000
vn -1.000000 0.000000 0.000000
vn -1.000000 0.000000 0.000000
vn -1.000000 0.000000 0.000000
vn -1.000000 0.000000 0.000000
vn -1.000000 0.000000 0.000000
vn -1.000000 0.000000 0.000000
vn -0.000000 1.000000 0.000000
vn -0.000000 1.000000 0.000000
vn -0.000000 1.000000 0.000000
vn -0.000000 1.000000 0.000000
vn -0.000000 1.000000 0.000000
vn -0.000000 1.000000 0.000000
vn 0.000000 -1.000000 0.000000
vn 0.000000 -1.000000 0.000000
vn 0.000000 -1.000000 0.000000
vn -0.000000 -1.000000 0.000000
vn -0.000000 -1.000000 0.000000
vn -0.000000 -1.000000 0.000000
vn -0.000000 0.000000 -1.000000
vn -0.000000 0.000000 -1.000000
vn -0.000000 0.000000 -1.000000
vn -0.000000 -0.000002 -1.000000
vn -0.000000 -0.000002 -1.000000
vn -0.000000 -0.000002 -1.000000
vn -0.000000 0.000002 -1.000000
vn -0.000000 0.000002 -1.000000
vn -0.000000 0.000002 -1.000000
vn -0.000000 0.000000 -1.000000
vn -0.000000 0.000000 -1.000000
vn -0.000000 0.000000 -1.000000
vn -0.000000 0.000000 -1.000000
vn -0.000000 0.000000 -1.000000
vn -0.000000 0.000000 -1.000000
vn -0.000000 0.000000 -1.000000
vn -0.000000 0.000000 -1.000000
vn -0.000000 0.000000 -1.000000
vn -0.000000 0.000000 -1.000000
vn -0.000000 0.000000 -1.000000
vn -0.000000 0.000000 -1.000000
vn -0.000000 0.000000 -1.000000
vn -0.000000 0.000000 -1.000000
vn -0.000000 0.000000 -1.000000
vn 0.000000 1.000000 0.000000
vn 0.000000 1.000000 0.000000
vn 0.000000 1.000000 0.000000
vn -0.000000 1.000000 0.000000
vn -0.000000 1.000000 0.000000
vn -0.000000 1.000000 0.000000
vn -1.000000 0.000000 0.000000
vn -1.000000 0.000000 0.000000
vn -1.000000 0.000000 0.000000
vn -1.000000 0.000000 0.000000
vn -1.000000 0.000000 0.000000
vn -1.000000 0.000000 0.000000
vn 1.000000 0.000000 0.000000
vn 1.000000 0.000000 0.000000
vn 1.000000 0.000000 0.000000
vn 1.000000 0.000000 0.000000
vn 1.000000 0.000000 0.000000
vn 1.000000 0.000000 0.000000
vn -0.000000 -1.000000 0.000000
vn -0.000000 -1.000000 0.000000
vn -0.000000 -1.000000 0.000000
vn -0.000000 -1.000000 0.000000
vn -0.000000 -1.000000 0.000000
vn -0.000000 -1.000000 0.000000
vn -1.000000 0.000000 0.000000
vn -1.000000 0.000000 0.000000
vn -1.000000 0.000000 0.000000
vn -1.000000 0.000000 0.000000
vn -1.000000 0.000000 0.000000
vn -1.000000 0.000000 0.000000
vn -0.000000 -1.000000 0.000000
vn -0.000000 -1.000000 0.000000
vn -0.000000 -1.000000 0.000000
vn -0.000000 -1.000000 0.000000
vn -0.000000 -1.000000 0.000000
vn -0.000000 -1.000000 0.000000
vn 0.000000 1.000000 0.000000
vn 0.000000 1.000000 0.000000
vn 0.000000 1.000000 0.000000
vn -0.000000 1.000000 0.000000
vn -0.000000 1.000000 0.000000
vn -0.000000 1.000000 0.000000
vn -1.000000 0.000000 0.000000
vn -1.000000 0.000000 0.000000
vn -1.000000 0.000000 0.000000
vn -1.000000 0.000000 0.000000
vn -1.000000 0.000000 0.000000
vn -1.000000 0.000000 0.000000
vn -0.000000 0.000000 -1.000000
vn -0.000000 0.000000 -1.000000
vn -0.000000 0.000000 -1.000000
vn -0.000000 0.000000 -1.000000
vn -0.000000 0.000000 -1.000000
vn -0.000000 0.000000 -1.000000
vn -0.000000 0.000000 -1.000000
vn -0.000000 0.000000 -1.000000
vn -0.000000 0.000000 -1.000000
vn -0.000000 0.000000 -1.000000
vn -0.000000 0.000000 -1.000000
vn -0.000000 0.000000 -1.000000
vn -0.000000 0.000001 -1.000000
vn -0.000000 0.000001 -1.000000
vn -0.000000 0.000001 -1.000000
vn -0.000000 -0.000002 -1.000000
vn -0.000000 -0.000002 -1.000000
vn -0.000000 -0.000002 -1.000000
vn -0.000000 0.000000 -1.000000
vn -0.000000 0.000000 -1.000000
vn -0.000000 0.000000 -1.000000
vn -0.000000 0.000000 -1.000000
vn -0.000000 0.000000 -1.000000
vn -0.000000 0.000000 -1.000000
vn -0.000000 1.000000 0.000000
vn -0.000000 1.000000 0.000000
vn -0.000000 1.000000 0.000000
vn -0.000000 1.000000 0.000000
vn -0.000000 1.000000 0.000000
vn -0.000000 1.000000 0.000000
vn 0.000000 -1.000000 0.000000
vn 0.000000 -1.000000 0.000000
vn 0.000000 -1.000000 0.000000
vn -0.000000 -1.000000 0.000000
vn -0.000000 -1.000000 0.000000
vn -0.000000 -1.000000 0.000000
vn 1.000000 0.000000 0.000000
vn 1.000000 0.000000 0.000000
vn 1.000000 0.000000 0.000000
vn 1.000000 0.000000 0.000000
vn 1.000000 0.000000 0.000000
vn 1.000000 0.000000 0.000000
vn 1.000000 0.000000 0.000000
vn 1.000000 0.000000 0.000000
vn 1.000000 0.000000 0.000000
vn 1.000000 0.000000 0.000000
vn 1.000000 0.000000 0.000000
vn 1.000000 0.000000 0.000000
vn -0.000000 0.000000 -1.000000
vn -0.000000 0.000000 -1.000000
vn -0.000000 0.000000 -1.000000
vn -0.000000 0.000000 -1.000000
vn -0.000000 0.000000 -1.000000
vn -0.000000 0.000000 -1.000000

g Material
f 3/1/1 1/2/2 2/3/3
f 4/4/4 1/5/5 3/6/6
f 7/7/7 5/8/8 6/9/9
f 8/10/10 5/11/11 7/12/12
f 11/13/13 9/14/14 10/15/15
f 12/16/16 9/17/17 11/18/18
f 15/19/19 13/20/20 14/21/21
f 16/22/22 13/23/23 15/24/24
f 19/25/25 17/26/26 18/27/27
f 20/28/28 17/29/29 19/30/30
f 23/31/31 21/32/32 22/33/33
f 24/34/34 21/35/35 23/36/36
f 27/37/37 25/38/38 26/39/39
f 28/40/40 25/41/41 27/42/42
f 31/43/43 29/44/44 30/45/45
f 32/46/46 29/47/47 31/48/48
f 35/49/49 33/50/50 34/51/51
f 36/52/52 33/53/53 35/54/54
f 39/55/55 37/56/56 38/57/57
f 40/58/58 37/59/59 39/60/60
f 47/61/61 45/62/62 46/63/63
f 48/64/64 45/65/65 47/66/66
f 51/67/67 49/68/68 50/69/69
f 52/70/70 49/71/71 51/72/72
f 55/73/73 53/74/74 54/75/75
f 56/76/76 53/77/77 55/78/78
f 59/79/79 57/80/80 58/81/81
f 60/82/82 57/83/83 59/84/84
f 63/85/85 61/86/86 62/87/87
f 64/88/88 61/89/89 63/90/90
f 67/91/91 65/92/92 66/93/93
f 68/94/94 65/95/95 67/96/96
f 71/97/97 69/98/98 70/99/99
f 72/100/100 69/101/101 71/102/102
f 75/103/103 73/104/104 74/105/105
f 76/106/106 73/107/107 75/108/108
f 79/109/109 77/110/110 78/111/111
f 80/112/112 77/113/113 79/114/114
f 83/115/115 81/116/116 82/117/117
f 84/118/118 81/119/119 83/120/120
f 87/121/121 85/122/122 86/123/123
f 88/124/124 85/125/125 87/126/126
f 91/127/127 89/128/128 90/129/129
f 92/130/130 89/131/131 91/132/132
f 95/133/133 93/134/134 94/135/135
f 96/136/136 93/137/137 95/138/138
f 99/139/139 97/140/140 98/141/141
f 100/142/142 97/143/143 99/144/144
f 103/145/145 101/146/146 102/147/147
f 104/148/148 101/149/149 103/150/150
f 107/151/151 105/152/152 106/153/153
f 108/154/154 105/155/155 107/156/156
f 111/157/157 109/158/158 110/159/159
f 112/160/160 109/161/161 111/162/162
f 115/163/163 113/164/164 114/165/165
f 116/166/166 113/167/167 115/168/168
f 119/169/169 117/170/170 118/171/171
f 120/172/172 117/173/173 119/174/174
f 123/175/175 121/176/176 122/177/177
f 124/178/178 121/179/179 123/180/180
f 127/181/181 125/182/182 126/183/183
f 128/184/184 125/185/185 127/186/186
f 131/187/187 129/188/188 130/189/189
f 132/190/190 129/191/191 131/192/192
f 135/193/193 133/194/194 134/195/195
f 136/196/196 133/197/197 135/198/198
f 139/199/199 137/200/200 138/201/201
f 140/202/202 137/203/203 139/204/204
f 143/205/205 141/206/206 142/207/207
f 144/208/208 141/209/209 143/210/210
f 147/211/211 145/212/212 146/213/213
f 148/214/214 145/215/215 147/216/216
f 151/217/217 149/218/218 150/219/219
f 152/220/220 149/221/221 151/222/222

g Material.001
f 43/223/223 41/224/224 42/225/225
f 44/226/226 41/227/227 43/228/228

