# Converted from B3D for Luanti (With Correct Normals)
# Object Name: multidecor_kitchen_wall_corner_cabinet_two_shelves

v -1.000000 -1.000000 -3.000000
v -1.000000 -1.000000 1.000000
v 1.323959 -1.000000 -2.526041
v -1.000000 1.000000 -3.000000
v -1.000000 1.000000 1.000000
v -1.000000 -1.000000 1.000000
v -1.000000 -1.000000 -3.000000
v 3.000000 1.000000 1.000000
v 3.000000 1.000000 -0.850000
v 3.000000 -1.000000 -0.850000
v 3.000000 -1.000000 1.000000
v -1.000000 1.000000 -3.000000
v -1.000000 1.000000 1.000000
v 1.323959 1.000000 -2.526041
v 0.850000 1.000000 -3.000000
v -1.000000 1.000000 -3.000000
v -1.000000 -1.000000 -3.000000
v 0.850000 -1.000000 -3.000000
v 3.000000 1.000000 1.000000
v 3.000000 -1.000000 1.000000
v -1.000000 -1.000000 1.000000
v -1.000000 1.000000 1.000000
v 2.526041 0.050000 -1.323959
v 2.526041 0.850000 -1.323959
v 3.000000 1.000000 -0.850000
v 0.850000 -1.000000 -3.000000
v 1.323959 -0.850000 -2.526041
v 1.323959 -0.050000 -2.526041
v -0.850000 -0.850000 -2.850000
v -0.850000 -0.850000 0.850000
v 1.213604 -0.850000 -2.415686
v 1.323959 -1.000000 -2.526041
v 2.526041 -1.000000 -1.323959
v 2.526041 -0.850000 -1.323959
v 1.323959 -0.850000 -2.526041
v 2.526041 1.000000 -1.323959
v 2.526041 0.850000 -1.323959
v 1.323959 0.850000 -2.526041
v 1.323959 1.000000 -2.526041
v 1.213604 -0.850000 -2.415686
v 2.433363 -0.850000 -1.231282
v 2.526041 -0.850000 -1.323959
v 1.323959 -0.850000 -2.526041
v -0.850000 0.850000 -2.850000
v -0.850000 0.850000 0.850000
v 1.213604 0.850000 -2.415686
v 2.526041 0.850000 -1.323959
v 2.433363 0.850000 -1.231282
v 1.213604 0.850000 -2.415686
v 1.323959 0.850000 -2.526041
v 2.526041 -0.050000 -1.323959
v 2.526041 -0.850000 -1.323959
v 2.433363 -0.850000 -1.231282
v 2.433363 -0.050000 -1.231282
v 1.323959 -0.050000 -2.526041
v 1.323959 -0.850000 -2.526041
v 1.213604 -0.850000 -2.415686
v 1.213604 -0.050000 -2.415686
v 1.213604 0.050000 -2.415686
v 1.213604 0.850000 -2.415686
v 0.814645 0.850000 -2.814645
v 0.814645 0.050000 -2.814645
v 0.814645 0.050000 -2.814645
v 0.814645 0.850000 -2.814645
v -0.850000 0.850000 -2.850000
v -0.850000 0.050000 -2.850000
v -0.850000 0.050000 -2.850000
v -0.850000 0.850000 -2.850000
v -0.850000 0.850000 0.850000
v -0.850000 0.050000 0.850000
v -0.850000 0.050000 0.850000
v -0.850000 0.850000 0.850000
v 2.850000 0.850000 0.850000
v 2.850000 0.050000 0.850000
v 2.850000 0.050000 0.850000
v 2.850000 0.850000 0.850000
v 2.850000 0.850000 -0.814645
v 2.850000 0.050000 -0.814645
v 2.850000 0.050000 -0.814645
v 2.850000 0.850000 -0.814645
v 2.433363 0.850000 -1.231282
v 2.433363 0.050000 -1.231282
v 2.850000 -0.850000 -0.814645
v 2.850000 -0.050000 -0.814645
v 2.433363 -0.050000 -1.231282
v 2.433363 -0.850000 -1.231282
v 2.850000 -0.050000 -0.814645
v 2.850000 0.050000 -0.814645
v 2.433363 0.050000 -1.231282
v 2.433363 -0.050000 -1.231282
v 2.850000 -0.850000 0.850000
v 2.850000 -0.050000 0.850000
v 2.850000 -0.050000 -0.814645
v 2.850000 -0.850000 -0.814645
v 2.850000 -0.050000 0.850000
v 2.850000 0.050000 0.850000
v 2.850000 0.050000 -0.814645
v 2.850000 -0.050000 -0.814645
v -0.850000 -0.850000 0.850000
v -0.850000 -0.050000 0.850000
v 2.850000 -0.050000 0.850000
v 2.850000 -0.850000 0.850000
v -0.850000 -0.050000 0.850000
v -0.850000 0.050000 0.850000
v 2.850000 0.050000 0.850000
v 2.850000 -0.050000 0.850000
v -0.850000 -0.850000 -2.850000
v -0.850000 -0.050000 -2.850000
v -0.850000 -0.050000 0.850000
v -0.850000 -0.850000 0.850000
v -0.850000 -0.050000 -2.850000
v -0.850000 0.050000 -2.850000
v -0.850000 0.050000 0.850000
v -0.850000 -0.050000 0.850000
v 0.814645 -0.850000 -2.814645
v 0.814645 -0.050000 -2.814645
v -0.850000 -0.050000 -2.850000
v -0.850000 -0.850000 -2.850000
v 0.814645 -0.050000 -2.814645
v 0.814645 0.050000 -2.814645
v -0.850000 0.050000 -2.850000
v -0.850000 -0.050000 -2.850000
v 1.213604 -0.850000 -2.415686
v 1.213604 -0.050000 -2.415686
v 0.814645 -0.050000 -2.814645
v 0.814645 -0.850000 -2.814645
v 1.213604 -0.050000 -2.415686
v 1.213604 0.050000 -2.415686
v 0.814645 0.050000 -2.814645
v 0.814645 -0.050000 -2.814645
v 1.323959 0.850000 -2.526041
v 1.323959 0.050000 -2.526041
v 1.213604 0.050000 -2.415686
v 1.213604 0.850000 -2.415686
v 1.323959 0.050000 -2.526041
v 1.323959 -0.050000 -2.526041
v 1.213604 -0.050000 -2.415686
v 1.213604 0.050000 -2.415686
v 2.526041 0.850000 -1.323959
v 2.526041 0.050000 -1.323959
v 2.433363 0.050000 -1.231282
v 2.433363 0.850000 -1.231282
v 2.526041 0.050000 -1.323959
v 2.526041 -0.050000 -1.323959
v 2.433363 -0.050000 -1.231282
v 2.433363 0.050000 -1.231282
v 2.433363 -0.050000 -1.231282
v 1.213604 -0.050000 -2.415686
v -0.850000 -0.050000 0.850000
v -0.850000 -0.050000 0.850000
v 2.850000 -0.050000 0.850000
v 2.433363 -0.050000 -1.231282
v 2.850000 -0.050000 0.850000
v 2.850000 -0.050000 -0.814645
v 2.433363 -0.050000 -1.231282
v 2.433363 -0.050000 -1.231282
v 2.526041 -0.050000 -1.323959
v 1.323959 -0.050000 -2.526041
v 0.814645 -0.050000 -2.814645
v -0.850000 -0.050000 -2.850000
v 1.213604 -0.050000 -2.415686
v -0.850000 -0.050000 -2.850000
v -0.850000 -0.050000 0.850000
v 1.213604 -0.050000 -2.415686
v 2.433363 -0.050000 -1.231282
v 1.323959 -0.050000 -2.526041
v 1.213604 -0.050000 -2.415686
v 1.323959 0.050000 -2.526041
v 2.526041 0.050000 -1.323959
v 2.433363 0.050000 -1.231282
v 2.433363 0.050000 -1.231282
v 2.850000 0.050000 -0.814645
v 2.850000 0.050000 0.850000
v 2.850000 0.050000 0.850000
v -0.850000 0.050000 0.850000
v 2.433363 0.050000 -1.231282
v -0.850000 0.050000 0.850000
v -0.850000 0.050000 -2.850000
v 1.213604 0.050000 -2.415686
v 2.433363 0.050000 -1.231282
v -0.850000 0.050000 0.850000
v 1.213604 0.050000 -2.415686
v -0.850000 0.050000 -2.850000
v 0.814645 0.050000 -2.814645
v 1.213604 0.050000 -2.415686
v 1.213604 0.050000 -2.415686
v 1.323959 0.050000 -2.526041
v 2.433363 0.050000 -1.231282
v 2.526041 -0.050000 -1.323959
v 2.526041 0.050000 -1.323959
v 1.323959 0.050000 -2.526041
v 1.323959 -0.050000 -2.526041
v 3.000000 -1.000000 1.000000
v 3.000000 -1.000000 -0.850000
v 2.526041 -1.000000 -1.323959
v 1.323959 -1.000000 -2.526041
v 0.850000 -1.000000 -3.000000
v -1.000000 -1.000000 -3.000000
v 3.000000 -1.000000 1.000000
v 2.526041 -1.000000 -1.323959
v -1.000000 -1.000000 1.000000
v 2.526041 -1.000000 -1.323959
v 1.323959 -1.000000 -2.526041
v -1.000000 -1.000000 1.000000
v 3.000000 1.000000 1.000000
v 3.000000 1.000000 -0.850000
v 2.526041 1.000000 -1.323959
v 1.323959 1.000000 -2.526041
v 0.850000 1.000000 -3.000000
v -1.000000 1.000000 -3.000000
v 3.000000 1.000000 1.000000
v 2.526041 1.000000 -1.323959
v -1.000000 1.000000 1.000000
v 2.526041 1.000000 -1.323959
v 1.323959 1.000000 -2.526041
v -1.000000 1.000000 1.000000
v 2.850000 -0.850000 0.850000
v 2.850000 -0.850000 -0.814645
v 2.433363 -0.850000 -1.231282
v 1.213604 -0.850000 -2.415686
v 0.814645 -0.850000 -2.814645
v -0.850000 -0.850000 -2.850000
v 2.850000 -0.850000 0.850000
v 2.433363 -0.850000 -1.231282
v -0.850000 -0.850000 0.850000
v 2.433363 -0.850000 -1.231282
v 1.213604 -0.850000 -2.415686
v -0.850000 -0.850000 0.850000
v 2.850000 0.850000 0.850000
v 2.850000 0.850000 -0.814645
v 2.433363 0.850000 -1.231282
v 1.213604 0.850000 -2.415686
v 0.814645 0.850000 -2.814645
v -0.850000 0.850000 -2.850000
v 2.850000 0.850000 0.850000
v 2.433363 0.850000 -1.231282
v -0.850000 0.850000 0.850000
v 2.433363 0.850000 -1.231282
v 1.213604 0.850000 -2.415686
v -0.850000 0.850000 0.850000
v 2.526041 0.850000 -1.323959
v 2.526041 1.000000 -1.323959
v 3.000000 1.000000 -0.850000
v 3.000000 1.000000 -0.850000
v 3.000000 -1.000000 -0.850000
v 2.526041 -0.050000 -1.323959
v 3.000000 -1.000000 -0.850000
v 2.526041 -1.000000 -1.323959
v 2.526041 -0.850000 -1.323959
v 2.526041 -0.850000 -1.323959
v 2.526041 -0.050000 -1.323959
v 3.000000 -1.000000 -0.850000
v 2.526041 -0.050000 -1.323959
v 2.526041 0.050000 -1.323959
v 3.000000 1.000000 -0.850000
v 1.323959 1.000000 -2.526041
v 0.850000 1.000000 -3.000000
v 1.323959 0.850000 -2.526041
v 0.850000 1.000000 -3.000000
v 0.850000 -1.000000 -3.000000
v 1.323959 0.050000 -2.526041
v 1.323959 0.850000 -2.526041
v 0.850000 1.000000 -3.000000
v 1.323959 0.050000 -2.526041
v 0.850000 -1.000000 -3.000000
v 1.323959 -1.000000 -2.526041
v 1.323959 -0.850000 -2.526041
v 1.323959 -0.050000 -2.526041
v 1.323959 0.050000 -2.526041
v 0.850000 -1.000000 -3.000000

vt 0.138853 0.039575
vt 0.330786 0.000431
vt 0.330786 0.330786
vt 0.330786 0.828042
vt 0.000431 0.662865
vt 0.330786 0.662865
vt 0.000431 0.828042
vt 0.000431 0.662865
vt 0.330786 0.828042
vt 0.472049 0.638089
vt 0.624838 0.803266
vt 0.472049 0.803266
vt 0.624838 0.638089
vt 0.624838 0.803266
vt 0.472049 0.638089
vt 0.039575 0.523581
vt 0.000431 0.331648
vt 0.330786 0.331648
vt 0.624838 0.969305
vt 0.472049 0.804128
vt 0.624838 0.804128
vt 0.472049 0.969305
vt 0.472049 0.804128
vt 0.624838 0.969305
vt 0.637226 0.637226
vt 0.472049 0.306872
vt 0.637226 0.306872
vt 0.472049 0.637226
vt 0.472049 0.306872
vt 0.637226 0.637226
vt 0.999569 0.000431
vt 0.944211 0.078890
vt 0.944211 0.012820
vt 0.944211 0.253189
vt 0.999569 0.331648
vt 0.944211 0.319260
vt 0.808519 0.883020
vt 0.638089 0.918890
vt 0.638089 0.613312
vt 0.966541 0.341951
vt 0.978929 0.482351
vt 0.978929 0.341951
vt 0.966540 0.482351
vt 0.978929 0.482351
vt 0.966541 0.341951
vt 0.966540 0.502093
vt 0.978929 0.642493
vt 0.966541 0.642493
vt 0.978929 0.502093
vt 0.978929 0.642493
vt 0.966540 0.502093
vt 0.966541 0.341951
vt 0.953651 0.482351
vt 0.955716 0.341951
vt 0.966540 0.482351
vt 0.953651 0.482351
vt 0.966541 0.341951
vt 0.808519 0.576580
vt 0.638089 0.612449
vt 0.638089 0.306872
vt 0.953651 0.502093
vt 0.966541 0.642493
vt 0.955716 0.642493
vt 0.966540 0.502093
vt 0.966541 0.642493
vt 0.953651 0.502093
vt 0.688998 0.958975
vt 0.755069 0.969799
vt 0.688998 0.969799
vt 0.755069 0.958975
vt 0.755069 0.969799
vt 0.688998 0.958975
vt 0.755931 0.956910
vt 0.822002 0.969799
vt 0.755931 0.969799
vt 0.822002 0.956910
vt 0.822002 0.969799
vt 0.755931 0.956910
vt 0.638089 0.985823
vt 0.684686 0.919752
vt 0.684686 0.985823
vt 0.638089 0.919752
vt 0.684686 0.919752
vt 0.638089 0.985823
vt 0.333675 0.679382
vt 0.471186 0.613312
vt 0.471186 0.679383
vt 0.333675 0.613312
vt 0.471186 0.613312
vt 0.333675 0.679382
vt 0.405115 0.306872
vt 0.471186 0.612449
vt 0.405115 0.612449
vt 0.471186 0.306872
vt 0.471186 0.612449
vt 0.405115 0.306872
vt 0.306009 0.895838
vt 0.000431 0.961909
vt 0.000431 0.895838
vt 0.306009 0.961909
vt 0.000431 0.961909
vt 0.306009 0.895838
vt 0.399745 0.884659
vt 0.333675 0.747178
vt 0.399745 0.747178
vt 0.333675 0.884659
vt 0.333675 0.747178
vt 0.399745 0.884659
vt 0.822865 0.921137
vt 0.888936 0.969799
vt 0.822865 0.969799
vt 0.888936 0.921137
vt 0.888936 0.969799
vt 0.822865 0.921137
vt 0.755069 0.968415
vt 0.688998 0.919752
vt 0.755069 0.919752
vt 0.688998 0.968415
vt 0.688998 0.919752
vt 0.755069 0.968415
vt 0.952789 0.985279
vt 0.944529 0.936613
vt 0.952789 0.936613
vt 0.944529 0.985279
vt 0.944529 0.936613
vt 0.952789 0.985279
vt 0.400608 0.747178
vt 0.466679 0.884659
vt 0.400608 0.884659
vt 0.466679 0.747178
vt 0.466679 0.884659
vt 0.400608 0.747178
vt 0.952789 0.936613
vt 0.944529 0.799123
vt 0.952788 0.799123
vt 0.944529 0.936613
vt 0.944529 0.799123
vt 0.952789 0.936613
vt 0.338182 0.306872
vt 0.404253 0.612449
vt 0.338182 0.612449
vt 0.404253 0.306872
vt 0.404253 0.612449
vt 0.338182 0.306872
vt 0.952788 0.799123
vt 0.944529 0.493544
vt 0.952788 0.493544
vt 0.944529 0.799123
vt 0.944529 0.493544
vt 0.952788 0.799123
vt 0.306009 0.828905
vt 0.000431 0.894976
vt 0.000431 0.828905
vt 0.306009 0.894976
vt 0.000431 0.894976
vt 0.306009 0.828905
vt 0.952788 0.493544
vt 0.944530 0.187985
vt 0.952788 0.187985
vt 0.944529 0.493544
vt 0.944530 0.187985
vt 0.952788 0.493544
vt 0.333675 0.746316
vt 0.471186 0.680245
vt 0.471186 0.746316
vt 0.333675 0.680245
vt 0.471186 0.680245
vt 0.333675 0.746316
vt 0.952788 0.187985
vt 0.944530 0.050477
vt 0.952789 0.050477
vt 0.944530 0.187985
vt 0.944530 0.050477
vt 0.952788 0.187985
vt 0.822002 0.919752
vt 0.755931 0.966350
vt 0.822002 0.966350
vt 0.755931 0.919752
vt 0.755931 0.966350
vt 0.822002 0.919752
vt 0.952789 0.050477
vt 0.944530 0.003881
vt 0.952789 0.003881
vt 0.944530 0.050477
vt 0.944530 0.003881
vt 0.952789 0.050477
vt 0.675246 0.919752
vt 0.688136 0.985823
vt 0.688136 0.919752
vt 0.675246 0.985823
vt 0.688136 0.985823
vt 0.675246 0.919752
vt 0.944530 0.013320
vt 0.952789 0.000431
vt 0.944530 0.000431
vt 0.952789 0.013320
vt 0.952789 0.000431
vt 0.944530 0.013320
vt 0.888936 0.930577
vt 0.822865 0.919752
vt 0.888936 0.919752
vt 0.822865 0.930577
vt 0.822865 0.919752
vt 0.888936 0.930577
vt 0.944529 0.975839
vt 0.952789 0.986664
vt 0.944529 0.986664
vt 0.952789 0.975839
vt 0.952789 0.986664
vt 0.944529 0.975839
vt 0.637226 0.306009
vt 0.366058 0.134119
vt 0.466796 0.036301
vt 0.366058 0.134119
vt 0.637226 0.306009
vt 0.331648 0.306009
vt 0.366058 0.134119
vt 0.331648 0.306009
vt 0.331648 0.168528
vt 0.457239 0.906670
vt 0.316839 0.917494
vt 0.316839 0.906670
vt 0.466796 0.036301
vt 0.499745 0.003351
vt 0.637226 0.000431
vt 0.466796 0.036301
vt 0.637226 0.000431
vt 0.637226 0.306009
vt 0.457239 0.919559
vt 0.316839 0.917494
vt 0.457239 0.906670
vt 0.316839 0.887586
vt 0.457239 0.898411
vt 0.316839 0.898411
vt 0.943666 0.306009
vt 0.909257 0.134119
vt 0.943666 0.168528
vt 0.909257 0.134119
vt 0.943666 0.306009
vt 0.638089 0.306009
vt 0.808519 0.036301
vt 0.638089 0.306009
vt 0.638089 0.000431
vt 0.808519 0.036301
vt 0.909257 0.134119
vt 0.638089 0.306009
vt 0.808519 0.036301
vt 0.638089 0.000431
vt 0.775569 0.003351
vt 0.316839 0.887586
vt 0.457239 0.885522
vt 0.457239 0.898411
vt 0.457239 0.898411
vt 0.316839 0.906670
vt 0.316839 0.898411
vt 0.457239 0.906670
vt 0.316839 0.906670
vt 0.457239 0.898411
vt 0.039575 0.138853
vt 0.000431 0.330786
vt 0.000431 0.177997
vt 0.330786 0.000431
vt 0.138853 0.039575
vt 0.177997 0.000431
vt 0.330786 0.330786
vt 0.000431 0.330786
vt 0.039575 0.138853
vt 0.330786 0.330786
vt 0.039575 0.138853
vt 0.138853 0.039575
vt 0.138853 0.622859
vt 0.330786 0.662002
vt 0.177997 0.662003
vt 0.000431 0.331648
vt 0.039575 0.523581
vt 0.000431 0.484437
vt 0.330786 0.331648
vt 0.330786 0.662002
vt 0.138853 0.622859
vt 0.330786 0.331648
vt 0.138853 0.622859
vt 0.039575 0.523581
vt 0.909257 0.785202
vt 0.943666 0.613312
vt 0.943666 0.750793
vt 0.638089 0.918890
vt 0.808519 0.883020
vt 0.775569 0.915970
vt 0.638089 0.613312
vt 0.943666 0.613312
vt 0.909257 0.785202
vt 0.638089 0.613312
vt 0.909257 0.785202
vt 0.808519 0.883020
vt 0.909257 0.478762
vt 0.943666 0.306872
vt 0.943666 0.444352
vt 0.638089 0.612449
vt 0.808519 0.576580
vt 0.775569 0.609529
vt 0.638089 0.306872
vt 0.943666 0.306872
vt 0.909257 0.478762
vt 0.638089 0.306872
vt 0.909257 0.478762
vt 0.808519 0.576580
vt 0.999569 0.000431
vt 0.944211 0.012820
vt 0.944211 0.000431
vt 0.944211 0.087149
vt 0.999569 0.000431
vt 0.999569 0.165608
vt 0.944211 0.153220
vt 0.999569 0.165608
vt 0.944211 0.165609
vt 0.999569 0.165608
vt 0.944211 0.153220
vt 0.944211 0.087149
vt 0.999569 0.000431
vt 0.944211 0.087149
vt 0.944211 0.078890
vt 0.944211 0.178859
vt 0.944211 0.166471
vt 0.999569 0.166471
vt 0.944211 0.244930
vt 0.999569 0.166471
vt 0.999569 0.331648
vt 0.944211 0.244930
vt 0.944211 0.178859
vt 0.999569 0.166471
vt 0.944211 0.319260
vt 0.999569 0.331648
vt 0.944211 0.331648
vt 0.999569 0.331648
vt 0.944211 0.253189
vt 0.944211 0.244930

vn -0.000000 1.000000 0.000000
vn -0.000000 1.000000 0.000000
vn -0.000000 1.000000 0.000000
vn 1.000000 0.000000 0.000000
vn 1.000000 0.000000 0.000000
vn 1.000000 0.000000 0.000000
vn 1.000000 0.000000 0.000000
vn 1.000000 0.000000 0.000000
vn 1.000000 0.000000 0.000000
vn -1.000000 0.000000 0.000000
vn -1.000000 0.000000 0.000000
vn -1.000000 0.000000 0.000000
vn -1.000000 0.000000 0.000000
vn -1.000000 0.000000 0.000000
vn -1.000000 0.000000 0.000000
vn -0.000000 1.000000 0.000000
vn -0.000000 1.000000 0.000000
vn -0.000000 1.000000 0.000000
vn -0.000000 0.000000 1.000000
vn -0.000000 0.000000 1.000000
vn -0.000000 0.000000 1.000000
vn -0.000000 0.000000 1.000000
vn -0.000000 0.000000 1.000000
vn -0.000000 0.000000 1.000000
vn 0.000000 0.000000 -1.000000
vn 0.000000 0.000000 -1.000000
vn 0.000000 0.000000 -1.000000
vn 0.000000 0.000000 -1.000000
vn 0.000000 0.000000 -1.000000
vn 0.000000 0.000000 -1.000000
vn 0.707107 0.000000 -0.707107
vn 0.707107 0.000000 -0.707107
vn 0.707107 0.000000 -0.707107
vn -0.707107 0.000000 0.707107
vn -0.707107 0.000000 0.707107
vn -0.707107 0.000000 0.707107
vn -0.000000 1.000000 0.000000
vn -0.000000 1.000000 0.000000
vn -0.000000 1.000000 0.000000
vn -0.707107 0.000000 0.707107
vn -0.707107 0.000000 0.707107
vn -0.707107 0.000000 0.707107
vn -0.707107 0.000000 0.707107
vn -0.707107 0.000000 0.707107
vn -0.707107 0.000000 0.707107
vn 0.707107 0.000000 -0.707106
vn 0.707107 0.000000 -0.707106
vn 0.707107 0.000000 -0.707106
vn 0.707107 0.000000 -0.707107
vn 0.707107 0.000000 -0.707107
vn 0.707107 0.000000 -0.707107
vn 0.000001 1.000000 0.000000
vn 0.000001 1.000000 0.000000
vn 0.000001 1.000000 0.000000
vn -0.000000 1.000000 0.000000
vn -0.000000 1.000000 0.000000
vn -0.000000 1.000000 0.000000
vn -0.000000 1.000000 0.000000
vn -0.000000 1.000000 0.000000
vn -0.000000 1.000000 0.000000
vn 0.000001 -1.000000 -0.000001
vn 0.000001 -1.000000 -0.000001
vn 0.000001 -1.000000 -0.000001
vn -0.000000 -1.000000 -0.000001
vn -0.000000 -1.000000 -0.000001
vn -0.000000 -1.000000 -0.000001
vn -0.707107 0.000000 -0.707106
vn -0.707107 0.000000 -0.707106
vn -0.707107 0.000000 -0.707106
vn -0.707106 0.000000 -0.707107
vn -0.707106 0.000000 -0.707107
vn -0.707106 0.000000 -0.707107
vn -0.707106 0.000000 -0.707108
vn -0.707106 0.000000 -0.707108
vn -0.707106 0.000000 -0.707108
vn -0.707107 0.000000 -0.707106
vn -0.707107 0.000000 -0.707106
vn -0.707107 0.000000 -0.707106
vn -0.707107 0.000000 0.707107
vn -0.707107 0.000000 0.707107
vn -0.707107 0.000000 0.707107
vn -0.707107 0.000000 0.707107
vn -0.707107 0.000000 0.707107
vn -0.707107 0.000000 0.707107
vn -0.021234 0.000000 0.999775
vn -0.021234 0.000000 0.999775
vn -0.021234 0.000000 0.999775
vn -0.021234 0.000000 0.999775
vn -0.021234 0.000000 0.999775
vn -0.021234 0.000000 0.999775
vn 1.000000 0.000000 0.000000
vn 1.000000 0.000000 0.000000
vn 1.000000 0.000000 0.000000
vn 1.000000 0.000000 0.000000
vn 1.000000 0.000000 0.000000
vn 1.000000 0.000000 0.000000
vn 0.000000 0.000000 -1.000000
vn 0.000000 0.000000 -1.000000
vn 0.000000 0.000000 -1.000000
vn 0.000000 0.000000 -1.000000
vn 0.000000 0.000000 -1.000000
vn 0.000000 0.000000 -1.000000
vn -1.000000 0.000000 0.000000
vn -1.000000 0.000000 0.000000
vn -1.000000 0.000000 0.000000
vn -1.000000 0.000000 0.000000
vn -1.000000 0.000000 0.000000
vn -1.000000 0.000000 0.000000
vn -0.707107 0.000000 0.707107
vn -0.707107 0.000000 0.707107
vn -0.707107 0.000000 0.707107
vn -0.707107 0.000000 0.707107
vn -0.707107 0.000000 0.707107
vn -0.707107 0.000000 0.707107
vn -0.707107 0.000000 0.707107
vn -0.707107 0.000000 0.707107
vn -0.707107 0.000000 0.707107
vn -0.707107 0.000000 0.707107
vn -0.707107 0.000000 0.707107
vn -0.707107 0.000000 0.707107
vn -0.707107 0.000000 0.707107
vn -0.707107 0.000000 0.707107
vn -0.707107 0.000000 0.707107
vn -0.707107 0.000000 0.707107
vn -0.707107 0.000000 0.707107
vn -0.707107 0.000000 0.707107
vn -1.000000 0.000000 0.000000
vn -1.000000 0.000000 0.000000
vn -1.000000 0.000000 0.000000
vn -1.000000 0.000000 0.000000
vn -1.000000 0.000000 0.000000
vn -1.000000 0.000000 0.000000
vn -1.000000 0.000000 0.000000
vn -1.000000 0.000000 0.000000
vn -1.000000 0.000000 0.000000
vn -1.000000 0.000000 0.000000
vn -1.000000 0.000000 0.000000
vn -1.000000 0.000000 0.000000
vn 0.000000 0.000000 -1.000000
vn 0.000000 0.000000 -1.000000
vn 0.000000 0.000000 -1.000000
vn 0.000000 0.000000 -1.000000
vn 0.000000 0.000000 -1.000000
vn 0.000000 0.000000 -1.000000
vn 0.000000 0.000000 -1.000000
vn 0.000000 0.000000 -1.000000
vn 0.000000 0.000000 -1.000000
vn 0.000000 0.000000 -1.000000
vn 0.000000 0.000000 -1.000000
vn 0.000000 0.000000 -1.000000
vn 1.000000 0.000000 0.000000
vn 1.000000 0.000000 0.000000
vn 1.000000 0.000000 0.000000
vn 1.000000 0.000000 0.000000
vn 1.000000 0.000000 0.000000
vn 1.000000 0.000000 0.000000
vn 1.000000 0.000000 0.000000
vn 1.000000 0.000000 0.000000
vn 1.000000 0.000000 0.000000
vn 1.000000 0.000000 0.000000
vn 1.000000 0.000000 0.000000
vn 1.000000 0.000000 0.000000
vn -0.021234 0.000000 0.999775
vn -0.021234 0.000000 0.999775
vn -0.021234 0.000000 0.999775
vn -0.021234 0.000000 0.999775
vn -0.021234 0.000000 0.999775
vn -0.021234 0.000000 0.999775
vn -0.021234 0.000000 0.999775
vn -0.021234 0.000000 0.999775
vn -0.021234 0.000000 0.999775
vn -0.021234 0.000000 0.999775
vn -0.021234 0.000000 0.999775
vn -0.021234 0.000000 0.999775
vn -0.707107 0.000000 0.707107
vn -0.707107 0.000000 0.707107
vn -0.707107 0.000000 0.707107
vn -0.707107 0.000000 0.707106
vn -0.707107 0.000000 0.707106
vn -0.707107 0.000000 0.707106
vn -0.707107 0.000000 0.707107
vn -0.707107 0.000000 0.707107
vn -0.707107 0.000000 0.707107
vn -0.707107 0.000000 0.707106
vn -0.707107 0.000000 0.707106
vn -0.707107 0.000000 0.707106
vn -0.707107 0.000000 -0.707107
vn -0.707107 0.000000 -0.707107
vn -0.707107 0.000000 -0.707107
vn -0.707107 0.000000 -0.707107
vn -0.707107 0.000000 -0.707107
vn -0.707107 0.000000 -0.707107
vn -0.707106 0.000000 -0.707107
vn -0.707106 0.000000 -0.707107
vn -0.707106 0.000000 -0.707107
vn -0.707107 0.000000 -0.707107
vn -0.707107 0.000000 -0.707107
vn -0.707107 0.000000 -0.707107
vn -0.707106 0.000000 -0.707107
vn -0.707106 0.000000 -0.707107
vn -0.707106 0.000000 -0.707107
vn -0.707106 0.000000 -0.707107
vn -0.707106 0.000000 -0.707107
vn -0.707106 0.000000 -0.707107
vn -0.707106 0.000000 -0.707107
vn -0.707106 0.000000 -0.707107
vn -0.707106 0.000000 -0.707107
vn -0.707106 0.000000 -0.707107
vn -0.707106 0.000000 -0.707107
vn -0.707106 0.000000 -0.707107
vn 0.000000 1.000000 0.000000
vn 0.000000 1.000000 0.000000
vn 0.000000 1.000000 0.000000
vn -0.000000 1.000000 0.000000
vn -0.000000 1.000000 0.000000
vn -0.000000 1.000000 0.000000
vn -0.000000 1.000000 0.000000
vn -0.000000 1.000000 0.000000
vn -0.000000 1.000000 0.000000
vn -0.000000 1.000000 0.000000
vn -0.000000 1.000000 0.000000
vn -0.000000 1.000000 0.000000
vn 0.000000 1.000000 0.000000
vn 0.000000 1.000000 0.000000
vn 0.000000 1.000000 0.000000
vn -0.000000 1.000000 0.000000
vn -0.000000 1.000000 0.000000
vn -0.000000 1.000000 0.000000
vn -0.000001 1.000000 0.000001
vn -0.000001 1.000000 0.000001
vn -0.000001 1.000000 0.000001
vn 0.000000 -1.000000 -0.000000
vn 0.000000 -1.000000 -0.000000
vn 0.000000 -1.000000 -0.000000
vn 0.000000 -1.000000 0.000000
vn 0.000000 -1.000000 0.000000
vn 0.000000 -1.000000 0.000000
vn -0.000000 -1.000000 0.000000
vn -0.000000 -1.000000 0.000000
vn -0.000000 -1.000000 0.000000
vn -0.000000 -1.000000 0.000000
vn -0.000000 -1.000000 0.000000
vn -0.000000 -1.000000 0.000000
vn 0.000000 -1.000000 0.000000
vn 0.000000 -1.000000 0.000000
vn 0.000000 -1.000000 0.000000
vn -0.000000 -1.000000 0.000000
vn -0.000000 -1.000000 0.000000
vn -0.000000 -1.000000 0.000000
vn 0.000001 -1.000000 -0.000001
vn 0.000001 -1.000000 -0.000001
vn 0.000001 -1.000000 -0.000001
vn -0.707107 0.000000 0.707107
vn -0.707107 0.000000 0.707107
vn -0.707107 0.000000 0.707107
vn -0.707107 0.000000 0.707107
vn -0.707107 0.000000 0.707107
vn -0.707107 0.000000 0.707107
vn 0.000000 1.000000 0.000000
vn 0.000000 1.000000 0.000000
vn 0.000000 1.000000 0.000000
vn -0.000000 1.000000 0.000000
vn -0.000000 1.000000 0.000000
vn -0.000000 1.000000 0.000000
vn -0.000000 1.000000 0.000000
vn -0.000000 1.000000 0.000000
vn -0.000000 1.000000 0.000000
vn -0.000000 1.000000 0.000000
vn -0.000000 1.000000 0.000000
vn -0.000000 1.000000 0.000000
vn -0.000000 1.000000 0.000000
vn -0.000000 1.000000 0.000000
vn -0.000000 1.000000 0.000000
vn -0.000000 1.000000 0.000000
vn -0.000000 1.000000 0.000000
vn -0.000000 1.000000 0.000000
vn -0.000000 1.000000 0.000000
vn -0.000000 1.000000 0.000000
vn -0.000000 1.000000 0.000000
vn 0.000000 1.000000 0.000000
vn 0.000000 1.000000 0.000000
vn 0.000000 1.000000 0.000000
vn 0.000000 1.000000 0.000000
vn 0.000000 1.000000 0.000000
vn 0.000000 1.000000 0.000000
vn -0.000000 1.000000 0.000000
vn -0.000000 1.000000 0.000000
vn -0.000000 1.000000 0.000000
vn -0.000000 1.000000 0.000000
vn -0.000000 1.000000 0.000000
vn -0.000000 1.000000 0.000000
vn -0.000000 1.000000 0.000000
vn -0.000000 1.000000 0.000000
vn -0.000000 1.000000 0.000000
vn -0.000000 1.000000 0.000000
vn -0.000000 1.000000 0.000000
vn -0.000000 1.000000 0.000000
vn -0.000000 1.000000 0.000000
vn -0.000000 1.000000 0.000000
vn -0.000000 1.000000 0.000000
vn 0.000000 1.000000 0.000000
vn 0.000000 1.000000 0.000000
vn 0.000000 1.000000 0.000000
vn -0.000000 1.000000 0.000000
vn -0.000000 1.000000 0.000000
vn -0.000000 1.000000 0.000000
vn 0.707107 0.000000 -0.707107
vn 0.707107 0.000000 -0.707107
vn 0.707107 0.000000 -0.707107
vn 0.707107 0.000000 -0.707107
vn 0.707107 0.000000 -0.707107
vn 0.707107 0.000000 -0.707107
vn 0.707106 0.000000 -0.707107
vn 0.707106 0.000000 -0.707107
vn 0.707106 0.000000 -0.707107
vn 0.707106 0.000000 -0.707107
vn 0.707106 0.000000 -0.707107
vn 0.707106 0.000000 -0.707107
vn 0.707111 0.000000 -0.707103
vn 0.707111 0.000000 -0.707103
vn 0.707111 0.000000 -0.707103
vn -0.707107 0.000000 0.707107
vn -0.707107 0.000000 0.707107
vn -0.707107 0.000000 0.707107
vn -0.707107 0.000000 0.707107
vn -0.707107 0.000000 0.707107
vn -0.707107 0.000000 0.707107
vn -0.707107 0.000000 0.707107
vn -0.707107 0.000000 0.707107
vn -0.707107 0.000000 0.707107
vn -0.707107 0.000000 0.707106
vn -0.707107 0.000000 0.707106
vn -0.707107 0.000000 0.707106
vn -0.707107 0.000000 0.707107
vn -0.707107 0.000000 0.707107
vn -0.707107 0.000000 0.707107

g Material.006
f 3/1/1 1/2/2 2/3/3
f 6/4/4 4/5/5 5/6/6
f 7/7/7 4/8/8 6/9/9
f 10/10/10 8/11/11 9/12/12
f 11/13/13 8/14/14 10/15/15
f 14/16/16 12/17/17 13/18/18
f 17/19/19 15/20/20 16/21/21
f 18/22/22 15/23/23 17/24/24
f 21/25/25 19/26/26 20/27/27
f 22/28/28 19/29/29 21/30/30
f 25/31/31 23/32/32 24/33/33
f 28/34/34 26/35/35 27/36/36
f 31/37/37 29/38/38 30/39/39
f 34/40/40 32/41/41 33/42/42
f 35/43/43 32/44/44 34/45/45
f 38/46/46 36/47/47 37/48/48
f 39/49/49 36/50/50 38/51/51
f 42/52/52 40/53/53 41/54/54
f 43/55/55 40/56/56 42/57/57
f 46/58/58 44/59/59 45/60/60
f 49/61/61 47/62/62 48/63/63
f 50/64/64 47/65/65 49/66/66
f 53/67/67 51/68/68 52/69/69
f 54/70/70 51/71/71 53/72/72
f 57/73/73 55/74/74 56/75/75
f 58/76/76 55/77/77 57/78/78
f 61/79/79 59/80/80 60/81/81
f 62/82/82 59/83/83 61/84/84
f 65/85/85 63/86/86 64/87/87
f 66/88/88 63/89/89 65/90/90
f 69/91/91 67/92/92 68/93/93
f 70/94/94 67/95/95 69/96/96
f 73/97/97 71/98/98 72/99/99
f 74/100/100 71/101/101 73/102/102
f 77/103/103 75/104/104 76/105/105
f 78/106/106 75/107/107 77/108/108
f 81/109/109 79/110/110 80/111/111
f 82/112/112 79/113/113 81/114/114
f 85/115/115 83/116/116 84/117/117
f 86/118/118 83/119/119 85/120/120
f 89/121/121 87/122/122 88/123/123
f 90/124/124 87/125/125 89/126/126
f 93/127/127 91/128/128 92/129/129
f 94/130/130 91/131/131 93/132/132
f 97/133/133 95/134/134 96/135/135
f 98/136/136 95/137/137 97/138/138
f 101/139/139 99/140/140 100/141/141
f 102/142/142 99/143/143 101/144/144
f 105/145/145 103/146/146 104/147/147
f 106/148/148 103/149/149 105/150/150
f 109/151/151 107/152/152 108/153/153
f 110/154/154 107/155/155 109/156/156
f 113/157/157 111/158/158 112/159/159
f 114/160/160 111/161/161 113/162/162
f 117/163/163 115/164/164 116/165/165
f 118/166/166 115/167/167 117/168/168
f 121/169/169 119/170/170 120/171/171
f 122/172/172 119/173/173 121/174/174
f 125/175/175 123/176/176 124/177/177
f 126/178/178 123/179/179 125/180/180
f 129/181/181 127/182/182 128/183/183
f 130/184/184 127/185/185 129/186/186
f 133/187/187 131/188/188 132/189/189
f 134/190/190 131/191/191 133/192/192
f 137/193/193 135/194/194 136/195/195
f 138/196/196 135/197/197 137/198/198
f 141/199/199 139/200/200 140/201/201
f 142/202/202 139/203/203 141/204/204
f 145/205/205 143/206/206 144/207/207
f 146/208/208 143/209/209 145/210/210
f 149/211/211 147/212/212 148/213/213
f 152/214/214 150/215/215 151/216/216
f 155/217/217 153/218/218 154/219/219
f 158/220/220 156/221/221 157/222/222
f 161/223/223 159/224/224 160/225/225
f 164/226/226 162/227/227 163/228/228
f 167/229/229 165/230/230 166/231/231
f 170/232/232 168/233/233 169/234/234
f 173/235/235 171/236/236 172/237/237
f 176/238/238 174/239/239 175/240/240
f 179/241/241 177/242/242 178/243/243
f 182/244/244 180/245/245 181/246/246
f 185/247/247 183/248/248 184/249/249
f 188/250/250 186/251/251 187/252/252
f 191/253/253 189/254/254 190/255/255
f 192/256/256 189/257/257 191/258/258
f 195/259/259 193/260/260 194/261/261
f 198/262/262 196/263/263 197/264/264
f 201/265/265 199/266/266 200/267/267
f 204/268/268 202/269/269 203/270/270
f 207/271/271 205/272/272 206/273/273
f 210/274/274 208/275/275 209/276/276
f 213/277/277 211/278/278 212/279/279
f 216/280/280 214/281/281 215/282/282
f 219/283/283 217/284/284 218/285/285
f 222/286/286 220/287/287 221/288/288
f 225/289/289 223/290/290 224/291/291
f 228/292/292 226/293/293 227/294/294
f 231/295/295 229/296/296 230/297/297
f 234/298/298 232/299/299 233/300/300
f 237/301/301 235/302/302 236/303/303
f 240/304/304 238/305/305 239/306/306
f 243/307/307 241/308/308 242/309/309
f 246/310/310 244/311/311 245/312/312
f 249/313/313 247/314/314 248/315/315
f 252/316/316 250/317/317 251/318/318
f 255/319/319 253/320/320 254/321/321
f 258/322/322 256/323/323 257/324/324
f 261/325/325 259/326/326 260/327/327
f 264/328/328 262/329/329 263/330/330
f 267/331/331 265/332/332 266/333/333
f 270/334/334 268/335/335 269/336/336

