# Converted from B3D for Luanti (With Correct Normals)
# Object Name: multidecor_green_small_flowerpot

v -0.000000 -1.000000 0.448000
v 0.000000 0.120000 0.640000
v -0.320000 0.120000 0.554256
v -0.224000 -1.000000 0.387979
v -0.224000 -1.000000 0.387979
v -0.320000 0.120000 0.554256
v -0.554256 0.120000 0.320000
v -0.387979 -1.000000 0.224000
v -0.387979 -1.000000 0.224000
v -0.554256 0.120000 0.320000
v -0.640000 0.120000 -0.000000
v -0.448000 -1.000000 -0.000000
v -0.448000 -1.000000 -0.000000
v -0.640000 0.120000 -0.000000
v -0.554256 0.120000 -0.320000
v -0.387979 -1.000000 -0.224000
v -0.387979 -1.000000 -0.224000
v -0.554256 0.120000 -0.320000
v -0.320000 0.120000 -0.554256
v -0.224000 -1.000000 -0.387979
v -0.224000 -1.000000 -0.387979
v -0.320000 0.120000 -0.554256
v 0.000000 0.120000 -0.640000
v 0.000000 -1.000000 -0.448000
v 0.000000 -1.000000 -0.448000
v 0.000000 0.120000 -0.640000
v 0.320000 0.120000 -0.554256
v 0.224000 -1.000000 -0.387979
v 0.224000 -1.000000 -0.387979
v 0.320000 0.120000 -0.554256
v 0.554256 0.120000 -0.320000
v 0.387979 -1.000000 -0.224000
v 0.387979 -1.000000 -0.224000
v 0.554256 0.120000 -0.320000
v 0.640000 0.120000 0.000000
v 0.448000 -1.000000 -0.000000
v 0.448000 -1.000000 -0.000000
v 0.640000 0.120000 0.000000
v 0.554256 0.120000 0.320000
v 0.387979 -1.000000 0.224000
v -0.554256 0.120000 -0.320000
v -0.640000 0.120000 -0.000000
v -0.544000 0.120000 -0.000000
v -0.471118 0.120000 -0.272000
v 0.387979 -1.000000 0.224000
v 0.554256 0.120000 0.320000
v 0.320000 0.120000 0.554256
v 0.224000 -1.000000 0.387979
v 0.224000 -1.000000 0.387979
v 0.320000 0.120000 0.554256
v 0.000000 0.120000 0.640000
v -0.000000 -1.000000 0.448000
v 0.224000 -1.000000 -0.387979
v 0.448000 -1.000000 -0.000000
v 0.224000 -1.000000 0.387979
v 0.000000 0.120000 0.640000
v 0.320000 0.120000 0.554256
v 0.272000 0.120000 0.471118
v 0.000000 0.120000 0.544000
v -0.320000 0.120000 0.554256
v 0.000000 0.120000 0.640000
v 0.000000 0.120000 0.544000
v -0.272000 0.120000 0.471118
v -0.640000 0.120000 -0.000000
v -0.554256 0.120000 0.320000
v -0.471118 0.120000 0.272000
v -0.544000 0.120000 -0.000000
v 0.320000 0.120000 0.554256
v 0.554256 0.120000 0.320000
v 0.471118 0.120000 0.272000
v 0.272000 0.120000 0.471118
v -0.554256 0.120000 0.320000
v -0.320000 0.120000 0.554256
v -0.272000 0.120000 0.471118
v -0.471118 0.120000 0.272000
v 0.554256 0.120000 0.320000
v 0.640000 0.120000 0.000000
v 0.544000 0.120000 0.000000
v 0.471118 0.120000 0.272000
v 0.640000 0.120000 0.000000
v 0.554256 0.120000 -0.320000
v 0.471118 0.120000 -0.272000
v 0.544000 0.120000 0.000000
v 0.554256 0.120000 -0.320000
v 0.320000 0.120000 -0.554256
v 0.272000 0.120000 -0.471118
v 0.471118 0.120000 -0.272000
v 0.320000 0.120000 -0.554256
v 0.000000 0.120000 -0.640000
v 0.000000 0.120000 -0.544000
v 0.272000 0.120000 -0.471118
v 0.000000 0.120000 -0.640000
v -0.320000 0.120000 -0.554256
v -0.272000 0.120000 -0.471118
v 0.000000 0.120000 -0.544000
v -0.320000 0.120000 -0.554256
v -0.554256 0.120000 -0.320000
v -0.471118 0.120000 -0.272000
v -0.272000 0.120000 -0.471118
v 0.000000 0.120000 0.544000
v 0.272000 0.120000 0.471118
v 0.272000 0.120000 0.471118
v 0.000000 0.120000 0.544000
v -0.471118 0.120000 0.272000
v -0.272000 0.120000 0.471118
v -0.272000 0.120000 0.471118
v -0.471118 0.120000 0.272000
v 0.544000 0.120000 0.000000
v 0.471118 0.120000 -0.272000
v 0.471118 0.120000 -0.272000
v 0.544000 0.120000 0.000000
v 0.000000 0.120000 -0.544000
v -0.272000 0.120000 -0.471118
v -0.272000 0.120000 -0.471118
v 0.000000 0.120000 -0.544000
v -0.544000 0.120000 -0.000000
v -0.471118 0.120000 0.272000
v -0.471118 0.120000 0.272000
v -0.544000 0.120000 -0.000000
v 0.471118 0.120000 0.272000
v 0.544000 0.120000 0.000000
v 0.544000 0.120000 0.000000
v 0.471118 0.120000 0.272000
v 0.272000 0.120000 -0.471118
v 0.000000 0.120000 -0.544000
v 0.000000 0.120000 -0.544000
v 0.272000 0.120000 -0.471118
v -0.471118 0.120000 -0.272000
v -0.544000 0.120000 -0.000000
v -0.544000 0.120000 -0.000000
v -0.471118 0.120000 -0.272000
v 0.272000 0.120000 0.471118
v 0.471118 0.120000 0.272000
v 0.471118 0.120000 0.272000
v 0.272000 0.120000 0.471118
v -0.272000 0.120000 0.471118
v 0.000000 0.120000 0.544000
v 0.000000 0.120000 0.544000
v -0.272000 0.120000 0.471118
v 0.471118 0.120000 -0.272000
v 0.272000 0.120000 -0.471118
v 0.272000 0.120000 -0.471118
v 0.471118 0.120000 -0.272000
v -0.272000 0.120000 -0.471118
v -0.471118 0.120000 -0.272000
v -0.471118 0.120000 -0.272000
v -0.272000 0.120000 -0.471118
v -0.272000 0.120000 -0.471118
v -0.471118 0.120000 -0.272000
v -0.471118 0.040000 -0.272000
v -0.272000 0.040000 -0.471118
v 0.000000 0.120000 0.544000
v 0.272000 0.120000 0.471118
v 0.272000 0.040000 0.471118
v 0.000000 0.040000 0.544000
v -0.471118 0.120000 0.272000
v -0.272000 0.120000 0.471118
v -0.272000 0.040000 0.471118
v -0.471118 0.040000 0.272000
v 0.544000 0.120000 0.000000
v 0.471118 0.120000 -0.272000
v 0.471118 0.040000 -0.272000
v 0.544000 0.040000 0.000000
v 0.000000 0.120000 -0.544000
v -0.272000 0.120000 -0.471118
v -0.272000 0.040000 -0.471118
v 0.000000 0.040000 -0.544000
v -0.544000 0.120000 -0.000000
v -0.471118 0.120000 0.272000
v -0.471118 0.040000 0.272000
v -0.544000 0.040000 -0.000000
v 0.471118 0.120000 0.272000
v 0.544000 0.120000 0.000000
v 0.544000 0.040000 0.000000
v 0.471118 0.040000 0.272000
v 0.272000 0.120000 -0.471118
v 0.000000 0.120000 -0.544000
v 0.000000 0.040000 -0.544000
v 0.272000 0.040000 -0.471118
v -0.471118 0.120000 -0.272000
v -0.544000 0.120000 -0.000000
v -0.544000 0.040000 -0.000000
v -0.471118 0.040000 -0.272000
v 0.272000 0.120000 0.471118
v 0.471118 0.120000 0.272000
v 0.471118 0.040000 0.272000
v 0.272000 0.040000 0.471118
v -0.272000 0.120000 0.471118
v 0.000000 0.120000 0.544000
v 0.000000 0.040000 0.544000
v -0.272000 0.040000 0.471118
v 0.471118 0.120000 -0.272000
v 0.272000 0.120000 -0.471118
v 0.272000 0.040000 -0.471118
v 0.471118 0.040000 -0.272000
v -0.471118 0.040000 -0.272000
v -0.471118 0.040000 0.272000
v 0.471118 0.040000 0.272000
v 0.224000 -1.000000 0.387979
v -0.000000 -1.000000 0.448000
v -0.224000 -1.000000 0.387979
v -0.224000 -1.000000 0.387979
v -0.387979 -1.000000 0.224000
v -0.448000 -1.000000 -0.000000
v -0.448000 -1.000000 -0.000000
v -0.387979 -1.000000 -0.224000
v -0.224000 -1.000000 -0.387979
v -0.224000 -1.000000 -0.387979
v 0.000000 -1.000000 -0.448000
v 0.224000 -1.000000 -0.387979
v 0.224000 -1.000000 -0.387979
v 0.387979 -1.000000 -0.224000
v 0.448000 -1.000000 -0.000000
v 0.448000 -1.000000 -0.000000
v 0.387979 -1.000000 0.224000
v 0.224000 -1.000000 0.387979
v 0.224000 -1.000000 0.387979
v -0.224000 -1.000000 0.387979
v 0.224000 -1.000000 -0.387979
v -0.224000 -1.000000 0.387979
v -0.448000 -1.000000 -0.000000
v 0.224000 -1.000000 -0.387979
v -0.448000 -1.000000 -0.000000
v -0.224000 -1.000000 -0.387979
v 0.224000 -1.000000 -0.387979
v -0.471118 0.040000 0.272000
v -0.272000 0.040000 0.471118
v 0.471118 0.040000 0.272000
v -0.272000 0.040000 0.471118
v 0.000000 0.040000 0.544000
v 0.471118 0.040000 0.272000
v 0.000000 0.040000 0.544000
v 0.272000 0.040000 0.471118
v 0.471118 0.040000 0.272000
v 0.471118 0.040000 0.272000
v 0.544000 0.040000 0.000000
v 0.471118 0.040000 -0.272000
v 0.471118 0.040000 -0.272000
v 0.272000 0.040000 -0.471118
v 0.471118 0.040000 0.272000
v 0.272000 0.040000 -0.471118
v 0.000000 0.040000 -0.544000
v 0.471118 0.040000 0.272000
v 0.000000 0.040000 -0.544000
v -0.272000 0.040000 -0.471118
v -0.471118 0.040000 -0.272000
v -0.471118 0.040000 -0.272000
v -0.544000 0.040000 -0.000000
v -0.471118 0.040000 0.272000
v 0.000000 0.040000 -0.544000
v -0.471118 0.040000 -0.272000
v 0.471118 0.040000 0.272000

vt 0.459844 0.451619
vt 0.348863 0.903658
vt 0.345242 0.451619
vt 0.429085 0.903658
vt 0.348863 0.903658
vt 0.459844 0.451619
vt 0.741702 0.452039
vt 0.825545 0.000000
vt 0.856304 0.452039
vt 0.745323 0.000000
vt 0.825545 0.000000
vt 0.741702 0.452039
vt 0.609549 0.451619
vt 0.721879 0.000000
vt 0.741702 0.451619
vt 0.629372 0.000000
vt 0.721879 0.000000
vt 0.609549 0.451619
vt 0.574446 0.451619
vt 0.463466 0.903658
vt 0.459844 0.451619
vt 0.543687 0.903658
vt 0.463466 0.903658
vt 0.574446 0.451619
vt 0.741702 0.904078
vt 0.825545 0.452039
vt 0.856304 0.904078
vt 0.745323 0.452039
vt 0.825545 0.452039
vt 0.741702 0.904078
vt 0.477395 0.451619
vt 0.589726 0.000000
vt 0.609549 0.451619
vt 0.497218 0.000000
vt 0.589726 0.000000
vt 0.477395 0.451619
vt 0.970906 0.000000
vt 0.859926 0.452039
vt 0.856304 0.000000
vt 0.940147 0.452039
vt 0.859926 0.452039
vt 0.970906 0.000000
vt 0.246756 0.345242
vt 0.162912 0.797281
vt 0.132153 0.345242
vt 0.243134 0.797281
vt 0.162912 0.797281
vt 0.246756 0.345242
vt 0.000000 0.796861
vt 0.112330 0.345242
vt 0.132153 0.796861
vt 0.019823 0.345242
vt 0.112330 0.345242
vt 0.000000 0.796861
vt 0.724151 0.451619
vt 0.613170 0.903658
vt 0.609549 0.451619
vt 0.693392 0.903658
vt 0.613170 0.903658
vt 0.724151 0.451619
vt 0.246756 0.863944
vt 0.283746 0.741702
vt 0.283746 0.873855
vt 0.246756 0.751613
vt 0.283746 0.741702
vt 0.246756 0.863944
vt 0.856304 0.904078
vt 0.940147 0.452039
vt 0.970906 0.904078
vt 0.859926 0.452039
vt 0.940147 0.452039
vt 0.856304 0.904078
vt 0.477395 0.000000
vt 0.365065 0.451619
vt 0.345242 0.000000
vt 0.457572 0.451619
vt 0.365065 0.451619
vt 0.477395 0.000000
vt 0.126367 0.345242
vt 0.345242 0.126367
vt 0.298988 0.298988
vt 0.246756 0.731790
vt 0.283746 0.609549
vt 0.283746 0.741702
vt 0.246756 0.619460
vt 0.283746 0.609549
vt 0.246756 0.731790
vt 0.283746 0.487307
vt 0.246756 0.609549
vt 0.246756 0.477395
vt 0.283746 0.599637
vt 0.246756 0.609549
vt 0.283746 0.487307
vt 0.283746 0.863944
vt 0.320736 0.741702
vt 0.320736 0.873855
vt 0.283746 0.751613
vt 0.320736 0.741702
vt 0.283746 0.863944
vt 0.132153 0.919523
vt 0.169143 0.797281
vt 0.169143 0.929434
vt 0.132153 0.807193
vt 0.169143 0.797281
vt 0.132153 0.919523
vt 0.283746 0.467484
vt 0.320736 0.345242
vt 0.320736 0.477395
vt 0.283746 0.355153
vt 0.320736 0.345242
vt 0.283746 0.467484
vt 0.283746 0.599637
vt 0.320736 0.477395
vt 0.320736 0.609549
vt 0.283746 0.487307
vt 0.320736 0.477395
vt 0.283746 0.599637
vt 0.036990 0.919103
vt 0.073980 0.796861
vt 0.073980 0.929014
vt 0.036990 0.806772
vt 0.073980 0.796861
vt 0.036990 0.919103
vt 0.320736 0.619460
vt 0.283746 0.741702
vt 0.283746 0.609549
vt 0.320736 0.731790
vt 0.283746 0.741702
vt 0.320736 0.619460
vt 0.110971 0.806772
vt 0.073980 0.929014
vt 0.073980 0.796861
vt 0.110971 0.919103
vt 0.073980 0.929014
vt 0.110971 0.806772
vt 0.283746 0.355153
vt 0.246756 0.477395
vt 0.246756 0.345242
vt 0.283746 0.467484
vt 0.246756 0.477395
vt 0.283746 0.355153
vt 0.000000 0.919102
vt 0.036990 0.796861
vt 0.036990 0.929014
vt 0.000000 0.806772
vt 0.036990 0.796861
vt 0.000000 0.919102
vt 0.246756 0.345242
vt 0.246756 0.345242
vt 0.246756 0.345242
vt 0.246756 0.345242
vt 0.246756 0.345242
vt 0.246756 0.345242
vt 0.246756 0.345242
vt 0.246756 0.345242
vt 0.246756 0.345242
vt 0.246756 0.345242
vt 0.246756 0.345242
vt 0.246756 0.345242
vt 0.246756 0.345242
vt 0.246756 0.345242
vt 0.246756 0.345242
vt 0.246756 0.345242
vt 0.246756 0.345242
vt 0.246756 0.345242
vt 0.246756 0.345242
vt 0.246756 0.345242
vt 0.246756 0.345242
vt 0.246756 0.345242
vt 0.246756 0.345242
vt 0.246756 0.345242
vt 0.246756 0.345242
vt 0.246756 0.345242
vt 0.246756 0.345242
vt 0.246756 0.345242
vt 0.246756 0.345242
vt 0.246756 0.345242
vt 0.246756 0.345242
vt 0.246756 0.345242
vt 0.246756 0.345242
vt 0.246756 0.345242
vt 0.246756 0.345242
vt 0.246756 0.345242
vt 0.246756 0.345242
vt 0.246756 0.345242
vt 0.246756 0.345242
vt 0.246756 0.345242
vt 0.246756 0.345242
vt 0.246756 0.345242
vt 0.246756 0.345242
vt 0.246756 0.345242
vt 0.246756 0.345242
vt 0.246756 0.345242
vt 0.246756 0.345242
vt 0.246756 0.345242
vt 0.246756 0.345242
vt 0.246756 0.345242
vt 0.246756 0.345242
vt 0.246756 0.345242
vt 0.246756 0.345242
vt 0.246756 0.345242
vt 0.246756 0.345242
vt 0.246756 0.345242
vt 0.246756 0.345242
vt 0.246756 0.345242
vt 0.246756 0.345242
vt 0.246756 0.345242
vt 0.246756 0.345242
vt 0.246756 0.345242
vt 0.246756 0.345242
vt 0.246756 0.345242
vt 0.246756 0.345242
vt 0.246756 0.345242
vt 0.246756 0.345242
vt 0.246756 0.345242
vt 0.246756 0.345242
vt 0.246756 0.345242
vt 0.246756 0.345242
vt 0.246756 0.345242
vt 0.310237 0.971267
vt 0.341977 0.875503
vt 0.341977 0.972915
vt 0.310237 0.873855
vt 0.341977 0.875503
vt 0.310237 0.971267
vt 0.606230 0.451619
vt 0.574446 0.563949
vt 0.574446 0.451619
vt 0.606230 0.563949
vt 0.574446 0.563949
vt 0.606230 0.451619
vt 0.232624 0.798929
vt 0.200884 0.894693
vt 0.200884 0.797281
vt 0.232624 0.896341
vt 0.200884 0.894693
vt 0.232624 0.798929
vt 0.574446 0.788610
vt 0.606230 0.676279
vt 0.606230 0.788610
vt 0.574446 0.676279
vt 0.606230 0.676279
vt 0.574446 0.788610
vt 0.606230 0.563949
vt 0.574446 0.676279
vt 0.574446 0.563949
vt 0.606230 0.676279
vt 0.574446 0.676279
vt 0.606230 0.563949
vt 0.606230 0.788610
vt 0.574446 0.900940
vt 0.574446 0.788610
vt 0.606230 0.900940
vt 0.574446 0.900940
vt 0.606230 0.788610
vt 0.169143 0.995401
vt 0.200884 0.896341
vt 0.200884 0.993753
vt 0.169143 0.897989
vt 0.200884 0.896341
vt 0.169143 0.995401
vt 0.574489 1.000000
vt 0.606230 0.900940
vt 0.606230 0.998352
vt 0.574489 0.902588
vt 0.606230 0.900940
vt 0.574489 1.000000
vt 0.246756 0.972915
vt 0.278496 0.873855
vt 0.278496 0.971267
vt 0.246756 0.875503
vt 0.278496 0.873855
vt 0.246756 0.972915
vt 0.200884 0.993753
vt 0.232624 0.897989
vt 0.232624 0.995401
vt 0.200884 0.896341
vt 0.232624 0.897989
vt 0.200884 0.993753
vt 0.200884 0.797281
vt 0.169143 0.896341
vt 0.169143 0.798929
vt 0.200884 0.894693
vt 0.169143 0.896341
vt 0.200884 0.797281
vt 0.278496 0.971267
vt 0.310237 0.875503
vt 0.310237 0.972915
vt 0.278496 0.873855
vt 0.310237 0.875503
vt 0.278496 0.971267
vt 0.000000 0.218875
vt 0.126367 0.345242
vt 0.046254 0.298988
vt 0.046254 0.046254
vt 0.000000 0.218875
vt 0.000000 0.126367
vt 0.218875 0.000000
vt 0.046254 0.046254
vt 0.126367 0.000000
vt 0.345242 0.126367
vt 0.218875 0.000000
vt 0.298988 0.046254
vt 0.298988 0.298988
vt 0.345242 0.126367
vt 0.345242 0.218875
vt 0.126367 0.345242
vt 0.298988 0.298988
vt 0.218875 0.345242
vt 0.345242 0.126367
vt 0.126367 0.345242
vt 0.000000 0.218875
vt 0.345242 0.126367
vt 0.000000 0.218875
vt 0.046254 0.046254
vt 0.345242 0.126367
vt 0.046254 0.046254
vt 0.218875 0.000000
vt 0.000100 0.366052
vt 0.999900 0.633948
vt 0.633948 0.999900
vt 0.000100 0.366052
vt 0.633948 0.999900
vt 0.366052 0.999900
vt 0.000100 0.366052
vt 0.366052 0.999900
vt 0.134048 0.865952
vt 0.000100 0.366052
vt 0.134048 0.865952
vt 0.000100 0.633948
vt 0.366052 0.000100
vt 0.000100 0.366052
vt 0.134048 0.134048
vt 0.000100 0.366052
vt 0.366052 0.000100
vt 0.633948 0.000100
vt 0.000100 0.366052
vt 0.633948 0.000100
vt 0.865952 0.134048
vt 0.999900 0.633948
vt 0.865952 0.134048
vt 0.999900 0.366052
vt 0.633948 0.999900
vt 0.999900 0.633948
vt 0.865952 0.865952
vt 0.000100 0.366052
vt 0.865952 0.134048
vt 0.999900 0.633948

vn -0.255342 -0.163363 0.952950
vn -0.255342 -0.163363 0.952950
vn -0.255342 -0.163363 0.952950
vn -0.255342 -0.163363 0.952950
vn -0.255342 -0.163363 0.952950
vn -0.255342 -0.163363 0.952950
vn -0.697607 -0.163363 0.697608
vn -0.697607 -0.163363 0.697608
vn -0.697607 -0.163363 0.697608
vn -0.697607 -0.163363 0.697608
vn -0.697607 -0.163363 0.697608
vn -0.697607 -0.163363 0.697608
vn -0.952950 -0.163363 0.255342
vn -0.952950 -0.163363 0.255342
vn -0.952950 -0.163363 0.255342
vn -0.952950 -0.163363 0.255342
vn -0.952950 -0.163363 0.255342
vn -0.952950 -0.163363 0.255342
vn -0.952950 -0.163363 -0.255342
vn -0.952950 -0.163363 -0.255342
vn -0.952950 -0.163363 -0.255342
vn -0.952950 -0.163363 -0.255342
vn -0.952950 -0.163363 -0.255342
vn -0.952950 -0.163363 -0.255342
vn -0.697608 -0.163363 -0.697607
vn -0.697608 -0.163363 -0.697607
vn -0.697608 -0.163363 -0.697607
vn -0.697608 -0.163363 -0.697608
vn -0.697608 -0.163363 -0.697608
vn -0.697608 -0.163363 -0.697608
vn -0.255342 -0.163363 -0.952950
vn -0.255342 -0.163363 -0.952950
vn -0.255342 -0.163363 -0.952950
vn -0.255342 -0.163363 -0.952950
vn -0.255342 -0.163363 -0.952950
vn -0.255342 -0.163363 -0.952950
vn 0.255342 -0.163363 -0.952950
vn 0.255342 -0.163363 -0.952950
vn 0.255342 -0.163363 -0.952950
vn 0.255342 -0.163363 -0.952950
vn 0.255342 -0.163363 -0.952950
vn 0.255342 -0.163363 -0.952950
vn 0.697608 -0.163363 -0.697608
vn 0.697608 -0.163363 -0.697608
vn 0.697608 -0.163363 -0.697608
vn 0.697607 -0.163363 -0.697608
vn 0.697607 -0.163363 -0.697608
vn 0.697607 -0.163363 -0.697608
vn 0.952950 -0.163363 -0.255342
vn 0.952950 -0.163363 -0.255342
vn 0.952950 -0.163363 -0.255342
vn 0.952950 -0.163363 -0.255342
vn 0.952950 -0.163363 -0.255342
vn 0.952950 -0.163363 -0.255342
vn 0.952950 -0.163363 0.255342
vn 0.952950 -0.163363 0.255342
vn 0.952950 -0.163363 0.255342
vn 0.952950 -0.163363 0.255342
vn 0.952950 -0.163363 0.255342
vn 0.952950 -0.163363 0.255342
vn -0.000000 1.000000 0.000000
vn -0.000000 1.000000 0.000000
vn -0.000000 1.000000 0.000000
vn -0.000000 1.000000 0.000000
vn -0.000000 1.000000 0.000000
vn -0.000000 1.000000 0.000000
vn 0.697608 -0.163363 0.697608
vn 0.697608 -0.163363 0.697608
vn 0.697608 -0.163363 0.697608
vn 0.697608 -0.163363 0.697608
vn 0.697608 -0.163363 0.697608
vn 0.697608 -0.163363 0.697608
vn 0.255342 -0.163363 0.952950
vn 0.255342 -0.163363 0.952950
vn 0.255342 -0.163363 0.952950
vn 0.255342 -0.163363 0.952950
vn 0.255342 -0.163363 0.952950
vn 0.255342 -0.163363 0.952950
vn -0.000000 -1.000000 0.000000
vn -0.000000 -1.000000 0.000000
vn -0.000000 -1.000000 0.000000
vn -0.000000 1.000000 0.000000
vn -0.000000 1.000000 0.000000
vn -0.000000 1.000000 0.000000
vn -0.000000 1.000000 0.000000
vn -0.000000 1.000000 0.000000
vn -0.000000 1.000000 0.000000
vn 0.000000 1.000000 0.000000
vn 0.000000 1.000000 0.000000
vn 0.000000 1.000000 0.000000
vn 0.000000 1.000000 0.000000
vn 0.000000 1.000000 0.000000
vn 0.000000 1.000000 0.000000
vn -0.000000 1.000000 0.000000
vn -0.000000 1.000000 0.000000
vn -0.000000 1.000000 0.000000
vn -0.000000 1.000000 0.000000
vn -0.000000 1.000000 0.000000
vn -0.000000 1.000000 0.000000
vn -0.000000 1.000000 0.000000
vn -0.000000 1.000000 0.000000
vn -0.000000 1.000000 0.000000
vn -0.000000 1.000000 0.000000
vn -0.000000 1.000000 0.000000
vn -0.000000 1.000000 0.000000
vn -0.000000 1.000000 0.000000
vn -0.000000 1.000000 0.000000
vn -0.000000 1.000000 0.000000
vn -0.000000 1.000000 0.000000
vn -0.000000 1.000000 0.000000
vn -0.000000 1.000000 0.000000
vn -0.000000 1.000000 0.000000
vn -0.000000 1.000000 0.000000
vn -0.000000 1.000000 0.000000
vn -0.000000 1.000000 0.000000
vn -0.000000 1.000000 0.000000
vn -0.000000 1.000000 0.000000
vn -0.000000 1.000000 0.000000
vn -0.000000 1.000000 0.000000
vn -0.000000 1.000000 0.000000
vn -0.000000 1.000000 0.000000
vn -0.000000 1.000000 0.000000
vn -0.000000 1.000000 0.000000
vn 0.000000 1.000000 0.000000
vn 0.000000 1.000000 0.000000
vn 0.000000 1.000000 0.000000
vn -0.000000 1.000000 0.000000
vn -0.000000 1.000000 0.000000
vn -0.000000 1.000000 0.000000
vn -0.000000 1.000000 0.000000
vn -0.000000 1.000000 0.000000
vn -0.000000 1.000000 0.000000
vn 0.000000 1.000000 0.000000
vn 0.000000 1.000000 0.000000
vn 0.000000 1.000000 0.000000
vn 0.000000 1.000000 0.000000
vn 0.000000 1.000000 0.000000
vn 0.000000 1.000000 0.000000
vn -0.000000 1.000000 0.000000
vn -0.000000 1.000000 0.000000
vn -0.000000 1.000000 0.000000
vn -0.000000 1.000000 0.000000
vn -0.000000 1.000000 0.000000
vn -0.000000 1.000000 0.000000
vn -0.000000 1.000000 0.000000
vn -0.000000 1.000000 0.000000
vn -0.000000 1.000000 0.000000
vn -0.000000 1.000000 0.000000
vn -0.000000 1.000000 0.000000
vn -0.000000 1.000000 0.000000
vn -0.000000 1.000000 0.000000
vn -0.000000 1.000000 0.000000
vn -0.000000 1.000000 0.000000
vn -0.000000 1.000000 0.000000
vn -0.000000 1.000000 0.000000
vn -0.000000 1.000000 0.000000
vn -0.000000 1.000000 0.000000
vn -0.000000 1.000000 0.000000
vn -0.000000 1.000000 0.000000
vn -0.000000 1.000000 0.000000
vn -0.000000 1.000000 0.000000
vn -0.000000 1.000000 0.000000
vn -0.000000 1.000000 0.000000
vn -0.000000 1.000000 0.000000
vn -0.000000 1.000000 0.000000
vn -0.000000 1.000000 0.000000
vn -0.000000 1.000000 0.000000
vn -0.000000 1.000000 0.000000
vn -0.000000 1.000000 0.000000
vn -0.000000 1.000000 0.000000
vn -0.000000 1.000000 0.000000
vn -0.000000 1.000000 0.000000
vn -0.000000 1.000000 0.000000
vn -0.000000 1.000000 0.000000
vn -0.000000 1.000000 0.000000
vn -0.000000 1.000000 0.000000
vn -0.000000 1.000000 0.000000
vn -0.000000 1.000000 0.000000
vn -0.000000 1.000000 0.000000
vn -0.000000 1.000000 0.000000
vn -0.000000 1.000000 0.000000
vn -0.000000 1.000000 0.000000
vn -0.000000 1.000000 0.000000
vn -0.000000 1.000000 0.000000
vn -0.000000 1.000000 0.000000
vn -0.000000 1.000000 0.000000
vn -0.000000 1.000000 0.000000
vn -0.000000 1.000000 0.000000
vn -0.000000 1.000000 0.000000
vn -0.000000 1.000000 0.000000
vn -0.000000 1.000000 0.000000
vn -0.000000 1.000000 0.000000
vn -0.000000 1.000000 0.000000
vn -0.000000 1.000000 0.000000
vn -0.000000 1.000000 0.000000
vn -0.000000 1.000000 0.000000
vn -0.000000 1.000000 0.000000
vn -0.000000 1.000000 0.000000
vn -0.000000 1.000000 0.000000
vn -0.000000 1.000000 0.000000
vn -0.000000 1.000000 0.000000
vn -0.000000 1.000000 0.000000
vn -0.000000 1.000000 0.000000
vn -0.000000 1.000000 0.000000
vn -0.000000 1.000000 0.000000
vn -0.000000 1.000000 0.000000
vn -0.000000 1.000000 0.000000
vn -0.000000 1.000000 0.000000
vn -0.000000 1.000000 0.000000
vn -0.000000 1.000000 0.000000
vn -0.000000 1.000000 0.000000
vn -0.000000 1.000000 0.000000
vn -0.000000 1.000000 0.000000
vn -0.000000 1.000000 0.000000
vn -0.000000 1.000000 0.000000
vn -0.000000 1.000000 0.000000
vn -0.000000 1.000000 0.000000
vn -0.000000 1.000000 0.000000
vn -0.000000 1.000000 0.000000
vn 0.707107 0.000000 0.707107
vn 0.707107 0.000000 0.707107
vn 0.707107 0.000000 0.707107
vn 0.707107 0.000000 0.707107
vn 0.707107 0.000000 0.707107
vn 0.707107 0.000000 0.707107
vn -0.258819 0.000000 -0.965926
vn -0.258819 0.000000 -0.965926
vn -0.258819 0.000000 -0.965926
vn -0.258819 0.000000 -0.965926
vn -0.258819 0.000000 -0.965926
vn -0.258819 0.000000 -0.965926
vn 0.707107 0.000000 -0.707107
vn 0.707107 0.000000 -0.707107
vn 0.707107 0.000000 -0.707107
vn 0.707107 0.000000 -0.707107
vn 0.707107 0.000000 -0.707107
vn 0.707107 0.000000 -0.707107
vn -0.965926 0.000000 0.258819
vn -0.965926 0.000000 0.258819
vn -0.965926 0.000000 0.258819
vn -0.965926 0.000000 0.258819
vn -0.965926 0.000000 0.258819
vn -0.965926 0.000000 0.258819
vn 0.258819 0.000000 0.965926
vn 0.258819 0.000000 0.965926
vn 0.258819 0.000000 0.965926
vn 0.258819 0.000000 0.965926
vn 0.258819 0.000000 0.965926
vn 0.258819 0.000000 0.965926
vn 0.965926 0.000000 -0.258819
vn 0.965926 0.000000 -0.258819
vn 0.965926 0.000000 -0.258819
vn 0.965926 0.000000 -0.258819
vn 0.965926 0.000000 -0.258819
vn 0.965926 0.000000 -0.258819
vn -0.965926 0.000000 -0.258819
vn -0.965926 0.000000 -0.258819
vn -0.965926 0.000000 -0.258819
vn -0.965926 0.000000 -0.258819
vn -0.965926 0.000000 -0.258819
vn -0.965926 0.000000 -0.258819
vn -0.258819 0.000000 0.965926
vn -0.258819 0.000000 0.965926
vn -0.258819 0.000000 0.965926
vn -0.258819 0.000000 0.965926
vn -0.258819 0.000000 0.965926
vn -0.258819 0.000000 0.965926
vn 0.965926 0.000000 0.258819
vn 0.965926 0.000000 0.258819
vn 0.965926 0.000000 0.258819
vn 0.965926 0.000000 0.258819
vn 0.965926 0.000000 0.258819
vn 0.965926 0.000000 0.258819
vn -0.707107 0.000000 -0.707107
vn -0.707107 0.000000 -0.707107
vn -0.707107 0.000000 -0.707107
vn -0.707107 0.000000 -0.707107
vn -0.707107 0.000000 -0.707107
vn -0.707107 0.000000 -0.707107
vn 0.258819 0.000000 -0.965926
vn 0.258819 0.000000 -0.965926
vn 0.258819 0.000000 -0.965926
vn 0.258819 0.000000 -0.965926
vn 0.258819 0.000000 -0.965926
vn 0.258819 0.000000 -0.965926
vn -0.707107 0.000000 0.707107
vn -0.707107 0.000000 0.707107
vn -0.707107 0.000000 0.707107
vn -0.707107 0.000000 0.707107
vn -0.707107 0.000000 0.707107
vn -0.707107 0.000000 0.707107
vn -0.000000 -1.000000 0.000000
vn -0.000000 -1.000000 0.000000
vn -0.000000 -1.000000 0.000000
vn -0.000000 -1.000000 0.000000
vn -0.000000 -1.000000 0.000000
vn -0.000000 -1.000000 0.000000
vn -0.000000 -1.000000 0.000000
vn -0.000000 -1.000000 0.000000
vn -0.000000 -1.000000 0.000000
vn -0.000000 -1.000000 0.000000
vn -0.000000 -1.000000 0.000000
vn -0.000000 -1.000000 0.000000
vn -0.000000 -1.000000 0.000000
vn -0.000000 -1.000000 0.000000
vn -0.000000 -1.000000 0.000000
vn -0.000000 -1.000000 0.000000
vn -0.000000 -1.000000 0.000000
vn -0.000000 -1.000000 0.000000
vn -0.000000 -1.000000 0.000000
vn -0.000000 -1.000000 0.000000
vn -0.000000 -1.000000 0.000000
vn -0.000000 -1.000000 0.000000
vn -0.000000 -1.000000 0.000000
vn -0.000000 -1.000000 0.000000
vn -0.000000 -1.000000 0.000000
vn -0.000000 -1.000000 0.000000
vn -0.000000 -1.000000 0.000000
vn -0.000000 1.000000 0.000000
vn -0.000000 1.000000 0.000000
vn -0.000000 1.000000 0.000000
vn -0.000000 1.000000 0.000000
vn -0.000000 1.000000 0.000000
vn -0.000000 1.000000 0.000000
vn -0.000000 1.000000 0.000000
vn -0.000000 1.000000 0.000000
vn -0.000000 1.000000 0.000000
vn 0.000000 1.000000 0.000000
vn 0.000000 1.000000 0.000000
vn 0.000000 1.000000 0.000000
vn 0.000000 1.000000 0.000000
vn 0.000000 1.000000 0.000000
vn 0.000000 1.000000 0.000000
vn -0.000000 1.000000 0.000000
vn -0.000000 1.000000 0.000000
vn -0.000000 1.000000 0.000000
vn 0.000000 1.000000 0.000000
vn 0.000000 1.000000 0.000000
vn 0.000000 1.000000 0.000000
vn 0.000000 1.000000 0.000000
vn 0.000000 1.000000 0.000000
vn 0.000000 1.000000 0.000000
vn -0.000000 1.000000 0.000000
vn -0.000000 1.000000 0.000000
vn -0.000000 1.000000 0.000000
vn -0.000000 1.000000 0.000000
vn -0.000000 1.000000 0.000000
vn -0.000000 1.000000 0.000000

g Material.001
f 3/1/1 1/2/2 2/3/3
f 4/4/4 1/5/5 3/6/6
f 7/7/7 5/8/8 6/9/9
f 8/10/10 5/11/11 7/12/12
f 11/13/13 9/14/14 10/15/15
f 12/16/16 9/17/17 11/18/18
f 15/19/19 13/20/20 14/21/21
f 16/22/22 13/23/23 15/24/24
f 19/25/25 17/26/26 18/27/27
f 20/28/28 17/29/29 19/30/30
f 23/31/31 21/32/32 22/33/33
f 24/34/34 21/35/35 23/36/36
f 27/37/37 25/38/38 26/39/39
f 28/40/40 25/41/41 27/42/42
f 31/43/43 29/44/44 30/45/45
f 32/46/46 29/47/47 31/48/48
f 35/49/49 33/50/50 34/51/51
f 36/52/52 33/53/53 35/54/54
f 39/55/55 37/56/56 38/57/57
f 40/58/58 37/59/59 39/60/60
f 43/61/61 41/62/62 42/63/63
f 44/64/64 41/65/65 43/66/66
f 47/67/67 45/68/68 46/69/69
f 48/70/70 45/71/71 47/72/72
f 51/73/73 49/74/74 50/75/75
f 52/76/76 49/77/77 51/78/78
f 55/79/79 53/80/80 54/81/81
f 58/82/82 56/83/83 57/84/84
f 59/85/85 56/86/86 58/87/87
f 62/88/88 60/89/89 61/90/90
f 63/91/91 60/92/92 62/93/93
f 66/94/94 64/95/95 65/96/96
f 67/97/97 64/98/98 66/99/99
f 70/100/100 68/101/101 69/102/102
f 71/103/103 68/104/104 70/105/105
f 74/106/106 72/107/107 73/108/108
f 75/109/109 72/110/110 74/111/111
f 78/112/112 76/113/113 77/114/114
f 79/115/115 76/116/116 78/117/117
f 82/118/118 80/119/119 81/120/120
f 83/121/121 80/122/122 82/123/123
f 86/124/124 84/125/125 85/126/126
f 87/127/127 84/128/128 86/129/129
f 90/130/130 88/131/131 89/132/132
f 91/133/133 88/134/134 90/135/135
f 94/136/136 92/137/137 93/138/138
f 95/139/139 92/140/140 94/141/141
f 98/142/142 96/143/143 97/144/144
f 99/145/145 96/146/146 98/147/147
f 102/148/148 100/149/149 101/150/150
f 103/151/151 100/152/152 102/153/153
f 106/154/154 104/155/155 105/156/156
f 107/157/157 104/158/158 106/159/159
f 110/160/160 108/161/161 109/162/162
f 111/163/163 108/164/164 110/165/165
f 114/166/166 112/167/167 113/168/168
f 115/169/169 112/170/170 114/171/171
f 118/172/172 116/173/173 117/174/174
f 119/175/175 116/176/176 118/177/177
f 122/178/178 120/179/179 121/180/180
f 123/181/181 120/182/182 122/183/183
f 126/184/184 124/185/185 125/186/186
f 127/187/187 124/188/188 126/189/189
f 130/190/190 128/191/191 129/192/192
f 131/193/193 128/194/194 130/195/195
f 134/196/196 132/197/197 133/198/198
f 135/199/199 132/200/200 134/201/201
f 138/202/202 136/203/203 137/204/204
f 139/205/205 136/206/206 138/207/207
f 142/208/208 140/209/209 141/210/210
f 143/211/211 140/212/212 142/213/213
f 146/214/214 144/215/215 145/216/216
f 147/217/217 144/218/218 146/219/219
f 150/220/220 148/221/221 149/222/222
f 151/223/223 148/224/224 150/225/225
f 154/226/226 152/227/227 153/228/228
f 155/229/229 152/230/230 154/231/231
f 158/232/232 156/233/233 157/234/234
f 159/235/235 156/236/236 158/237/237
f 162/238/238 160/239/239 161/240/240
f 163/241/241 160/242/242 162/243/243
f 166/244/244 164/245/245 165/246/246
f 167/247/247 164/248/248 166/249/249
f 170/250/250 168/251/251 169/252/252
f 171/253/253 168/254/254 170/255/255
f 174/256/256 172/257/257 173/258/258
f 175/259/259 172/260/260 174/261/261
f 178/262/262 176/263/263 177/264/264
f 179/265/265 176/266/266 178/267/267
f 182/268/268 180/269/269 181/270/270
f 183/271/271 180/272/272 182/273/273
f 186/274/274 184/275/275 185/276/276
f 187/277/277 184/278/278 186/279/279
f 190/280/280 188/281/281 189/282/282
f 191/283/283 188/284/284 190/285/285
f 194/286/286 192/287/287 193/288/288
f 195/289/289 192/290/290 194/291/291
f 201/292/292 199/293/293 200/294/294
f 204/295/295 202/296/296 203/297/297
f 207/298/298 205/299/299 206/300/300
f 210/301/301 208/302/302 209/303/303
f 213/304/304 211/305/305 212/306/306
f 216/307/307 214/308/308 215/309/309
f 219/310/310 217/311/311 218/312/312
f 222/313/313 220/314/314 221/315/315
f 225/316/316 223/317/317 224/318/318

g Material.002
f 198/319/319 196/320/320 197/321/321
f 228/322/322 226/323/323 227/324/324
f 231/325/325 229/326/326 230/327/327
f 234/328/328 232/329/329 233/330/330
f 237/331/331 235/332/332 236/333/333
f 240/334/334 238/335/335 239/336/336
f 243/337/337 241/338/338 242/339/339
f 246/340/340 244/341/341 245/342/342
f 249/343/343 247/344/344 248/345/345
f 252/346/346 250/347/347 251/348/348

