# Converted from B3D for Luanti (With Correct Normals)
# Object Name: multidecor_banister_corner

v -1.000000 -1.200000 0.460000
v -1.000000 0.800000 0.460000
v -0.920000 0.800000 0.460000
v -0.920000 -1.200000 0.460000
v -0.920000 -1.200000 0.460000
v -0.920000 0.800000 0.460000
v -0.920000 0.800000 0.540000
v -0.920000 -1.200000 0.540000
v -0.920000 -1.200000 0.540000
v -1.000000 -1.200000 0.540000
v -1.000000 -1.200000 0.460000
v -0.920000 -1.200000 0.460000
v -1.000000 -1.200000 0.540000
v -1.000000 0.800000 0.540000
v -1.000000 0.800000 0.460000
v -1.000000 -1.200000 0.460000
v -0.920000 -1.200000 0.540000
v -0.920000 0.800000 0.540000
v -1.000000 0.800000 0.540000
v -1.000000 -1.200000 0.540000
v -0.860000 0.800000 1.000000
v -0.860000 0.800000 -1.000000
v -0.860000 0.950000 -1.000000
v -0.860000 0.950000 1.000000
v -0.860000 0.800000 -1.000000
v -1.060000 0.800000 -1.000000
v -1.060000 0.950000 -1.000000
v -0.860000 0.950000 -1.000000
v -1.060000 0.800000 -1.000000
v -1.060000 0.800000 1.000000
v -1.060000 0.950000 1.000000
v -1.060000 0.950000 -1.000000
v -1.060000 0.800000 1.000000
v -0.860000 0.800000 1.000000
v -0.860000 0.950000 1.000000
v -1.060000 0.950000 1.000000
v -0.860000 0.800000 -1.000000
v -0.860000 0.800000 1.000000
v -1.060000 0.800000 1.000000
v -1.060000 0.800000 -1.000000
v -1.060000 0.950000 -1.000000
v -1.060000 0.950000 1.000000
v -0.860000 0.950000 1.000000
v -0.860000 0.950000 -1.000000
v -1.000000 -1.200000 -0.540000
v -1.000000 0.800000 -0.540000
v -0.920000 0.800000 -0.540000
v -0.920000 -1.200000 -0.540000
v -0.920000 -1.200000 -0.540000
v -0.920000 0.800000 -0.540000
v -0.920000 0.800000 -0.460000
v -0.920000 -1.200000 -0.460000
v -0.920000 -1.200000 -0.460000
v -1.000000 -1.200000 -0.460000
v -1.000000 -1.200000 -0.540000
v -0.920000 -1.200000 -0.540000
v -1.000000 -1.200000 -0.460000
v -1.000000 0.800000 -0.460000
v -1.000000 0.800000 -0.540000
v -1.000000 -1.200000 -0.540000
v -0.920000 -1.200000 -0.460000
v -0.920000 0.800000 -0.460000
v -1.000000 0.800000 -0.460000
v -1.000000 -1.200000 -0.460000
v 0.460000 -1.200000 -0.920000
v 0.460000 0.800000 -0.920000
v 0.460000 0.800000 -1.000000
v 0.460000 -1.200000 -1.000000
v 0.460000 -1.200000 -1.000000
v 0.460000 0.800000 -1.000000
v 0.540000 0.800000 -1.000000
v 0.540000 -1.200000 -1.000000
v 0.540000 -1.200000 -1.000000
v 0.540000 -1.200000 -0.920000
v 0.460000 -1.200000 -0.920000
v 0.460000 -1.200000 -1.000000
v 0.540000 -1.200000 -0.920000
v 0.540000 0.800000 -0.920000
v 0.460000 0.800000 -0.920000
v 0.460000 -1.200000 -0.920000
v 0.540000 -1.200000 -1.000000
v 0.540000 0.800000 -1.000000
v 0.540000 0.800000 -0.920000
v 0.540000 -1.200000 -0.920000
v 1.000000 0.800000 -1.060000
v -1.000000 0.800000 -1.060000
v -1.000000 0.950000 -1.060000
v 1.000000 0.950000 -1.060000
v -1.000000 0.800000 -1.060000
v -1.000000 0.800000 -0.860000
v -1.000000 0.950000 -0.860000
v -1.000000 0.950000 -1.060000
v -1.000000 0.800000 -0.860000
v 1.000000 0.800000 -0.860000
v 1.000000 0.950000 -0.860000
v -1.000000 0.950000 -0.860000
v 1.000000 0.800000 -0.860000
v 1.000000 0.800000 -1.060000
v 1.000000 0.950000 -1.060000
v 1.000000 0.950000 -0.860000
v -1.000000 0.800000 -1.060000
v 1.000000 0.800000 -1.060000
v 1.000000 0.800000 -0.860000
v -1.000000 0.800000 -0.860000
v -1.000000 0.950000 -0.860000
v 1.000000 0.950000 -0.860000
v 1.000000 0.950000 -1.060000
v -1.000000 0.950000 -1.060000
v -0.540000 -1.200000 -0.920000
v -0.540000 0.800000 -0.920000
v -0.540000 0.800000 -1.000000
v -0.540000 -1.200000 -1.000000
v -0.540000 -1.200000 -1.000000
v -0.540000 0.800000 -1.000000
v -0.460000 0.800000 -1.000000
v -0.460000 -1.200000 -1.000000
v -0.460000 -1.200000 -1.000000
v -0.460000 -1.200000 -0.920000
v -0.540000 -1.200000 -0.920000
v -0.540000 -1.200000 -1.000000
v -0.460000 -1.200000 -0.920000
v -0.460000 0.800000 -0.920000
v -0.540000 0.800000 -0.920000
v -0.540000 -1.200000 -0.920000
v -0.460000 -1.200000 -1.000000
v -0.460000 0.800000 -1.000000
v -0.460000 0.800000 -0.920000
v -0.460000 -1.200000 -0.920000

vt 0.724620 0.418441
vt -0.054413 0.382086
vt 0.724620 0.382086
vt -0.054413 0.418442
vt -0.054413 0.382086
vt 0.724620 0.418441
vt 0.724620 0.309376
vt -0.054413 0.273019
vt 0.724620 0.273021
vt -0.054413 0.309375
vt -0.054413 0.273019
vt 0.724620 0.309376
vt 0.000119 0.345730
vt 0.036474 0.309375
vt 0.036474 0.345731
vt 0.000119 0.309375
vt 0.036474 0.309375
vt 0.000119 0.345730
vt 0.724620 0.382086
vt -0.054413 0.345731
vt 0.724620 0.345731
vt -0.054413 0.382086
vt -0.054413 0.345731
vt 0.724620 0.382086
vt 0.724620 0.345731
vt -0.054413 0.309375
vt 0.724620 0.309376
vt -0.054413 0.345730
vt -0.054413 0.309375
vt 0.724620 0.345731
vt 0.039070 0.418680
vt 0.818103 0.455035
vt 0.039070 0.455035
vt 0.818103 0.418679
vt 0.818103 0.455035
vt 0.039070 0.418680
vt 0.039071 0.527744
vt 0.818102 0.564101
vt 0.039070 0.564099
vt 0.818103 0.527746
vt 0.818102 0.564101
vt 0.039071 0.527744
vt 0.763571 0.491390
vt 0.727216 0.527746
vt 0.727216 0.491390
vt 0.763571 0.527746
vt 0.727216 0.527746
vt 0.763571 0.491390
vt 0.039071 0.455035
vt 0.818103 0.491390
vt 0.039070 0.491390
vt 0.818103 0.455035
vt 0.818103 0.491390
vt 0.039071 0.455035
vt 0.039071 0.491390
vt 0.818103 0.527746
vt 0.039070 0.527744
vt 0.818103 0.491390
vt 0.818103 0.527746
vt 0.039071 0.491390
vt 0.724620 0.418441
vt -0.054413 0.382086
vt 0.724620 0.382086
vt -0.054413 0.418442
vt -0.054413 0.382086
vt 0.724620 0.418441
vt 0.724620 0.309376
vt -0.054413 0.273019
vt 0.724620 0.273021
vt -0.054413 0.309375
vt -0.054413 0.273019
vt 0.724620 0.309376
vt 0.000119 0.345730
vt 0.036474 0.309375
vt 0.036474 0.345731
vt 0.000119 0.309375
vt 0.036474 0.309375
vt 0.000119 0.345730
vt 0.724620 0.382086
vt -0.054413 0.345731
vt 0.724620 0.345731
vt -0.054413 0.382086
vt -0.054413 0.345731
vt 0.724620 0.382086
vt 0.724620 0.345731
vt -0.054413 0.309375
vt 0.724620 0.309376
vt -0.054413 0.345730
vt -0.054413 0.309375
vt 0.724620 0.345731
vt 0.039070 0.418680
vt 0.818103 0.455035
vt 0.039070 0.455035
vt 0.818103 0.418679
vt 0.818103 0.455035
vt 0.039070 0.418680
vt 0.039071 0.527744
vt 0.818102 0.564101
vt 0.039070 0.564099
vt 0.818103 0.527746
vt 0.818102 0.564101
vt 0.039071 0.527744
vt 0.763571 0.491390
vt 0.727216 0.527746
vt 0.727216 0.491390
vt 0.763571 0.527746
vt 0.727216 0.527746
vt 0.763571 0.491390
vt 0.039071 0.455035
vt 0.818103 0.491390
vt 0.039070 0.491390
vt 0.818103 0.455035
vt 0.818103 0.491390
vt 0.039071 0.455035
vt 0.039071 0.491390
vt 0.818103 0.527746
vt 0.039070 0.527744
vt 0.818103 0.491390
vt 0.818103 0.527746
vt 0.039071 0.491390
vt 0.045563 0.250060
vt 0.954437 0.318225
vt 0.045563 0.318226
vt 0.954437 0.250060
vt 0.954437 0.318225
vt 0.045563 0.250060
vt 0.022841 0.136450
vt -0.045325 0.227338
vt -0.045325 0.136450
vt 0.022841 0.227338
vt -0.045325 0.227338
vt 0.022841 0.136450
vt 0.954437 0.113729
vt 0.045563 0.045563
vt 0.954438 0.045563
vt 0.045563 0.113729
vt 0.045563 0.045563
vt 0.954437 0.113729
vt 0.977159 0.227338
vt 1.045325 0.136451
vt 1.045325 0.227338
vt 0.977159 0.136451
vt 1.045325 0.136451
vt 0.977159 0.227338
vt 0.954437 0.091007
vt 0.045563 0.000119
vt 0.954437 0.000119
vt 0.045563 0.091007
vt 0.045563 0.000119
vt 0.954437 0.091007
vt 0.954437 0.227338
vt 0.045563 0.136450
vt 0.954437 0.136451
vt 0.045563 0.227338
vt 0.045563 0.136450
vt 0.954437 0.227338
vt 0.045563 0.250060
vt 0.954437 0.318225
vt 0.045563 0.318226
vt 0.954437 0.250060
vt 0.954437 0.318225
vt 0.045563 0.250060
vt 0.022841 0.136450
vt -0.045325 0.227338
vt -0.045325 0.136450
vt 0.022841 0.227338
vt -0.045325 0.227338
vt 0.022841 0.136450
vt 0.954437 0.113729
vt 0.045563 0.045563
vt 0.954438 0.045563
vt 0.045563 0.113729
vt 0.045563 0.045563
vt 0.954437 0.113729
vt 0.977159 0.227338
vt 1.045325 0.136451
vt 1.045325 0.227338
vt 0.977159 0.136451
vt 1.045325 0.136451
vt 0.977159 0.227338
vt 0.954437 0.091007
vt 0.045563 0.000119
vt 0.954437 0.000119
vt 0.045563 0.091007
vt 0.045563 0.000119
vt 0.954437 0.091007
vt 0.954437 0.227338
vt 0.045563 0.136450
vt 0.954437 0.136451
vt 0.045563 0.227338
vt 0.045563 0.136450
vt 0.954437 0.227338

vn -0.000000 0.000000 -1.000000
vn -0.000000 0.000000 -1.000000
vn -0.000000 0.000000 -1.000000
vn -0.000000 0.000000 -1.000000
vn -0.000000 0.000000 -1.000000
vn -0.000000 0.000000 -1.000000
vn 1.000000 0.000000 0.000000
vn 1.000000 0.000000 0.000000
vn 1.000000 0.000000 0.000000
vn 1.000000 0.000000 0.000000
vn 1.000000 0.000000 0.000000
vn 1.000000 0.000000 0.000000
vn -0.000000 -1.000000 0.000000
vn -0.000000 -1.000000 0.000000
vn -0.000000 -1.000000 0.000000
vn -0.000000 -1.000000 0.000000
vn -0.000000 -1.000000 0.000000
vn -0.000000 -1.000000 0.000000
vn -1.000000 0.000000 0.000000
vn -1.000000 0.000000 0.000000
vn -1.000000 0.000000 0.000000
vn -1.000000 0.000000 0.000000
vn -1.000000 0.000000 0.000000
vn -1.000000 0.000000 0.000000
vn -0.000000 0.000000 1.000000
vn -0.000000 0.000000 1.000000
vn -0.000000 0.000000 1.000000
vn -0.000000 0.000000 1.000000
vn -0.000000 0.000000 1.000000
vn -0.000000 0.000000 1.000000
vn -0.000000 0.000000 -1.000000
vn -0.000000 0.000000 -1.000000
vn -0.000000 0.000000 -1.000000
vn -0.000000 0.000000 -1.000000
vn -0.000000 0.000000 -1.000000
vn -0.000000 0.000000 -1.000000
vn 1.000000 0.000000 0.000000
vn 1.000000 0.000000 0.000000
vn 1.000000 0.000000 0.000000
vn 1.000000 0.000000 0.000000
vn 1.000000 0.000000 0.000000
vn 1.000000 0.000000 0.000000
vn -0.000000 -1.000000 0.000000
vn -0.000000 -1.000000 0.000000
vn -0.000000 -1.000000 0.000000
vn -0.000000 -1.000000 0.000000
vn -0.000000 -1.000000 0.000000
vn -0.000000 -1.000000 0.000000
vn -1.000000 0.000000 0.000000
vn -1.000000 0.000000 0.000000
vn -1.000000 0.000000 0.000000
vn -1.000000 0.000000 0.000000
vn -1.000000 0.000000 0.000000
vn -1.000000 0.000000 0.000000
vn -0.000000 0.000000 1.000000
vn -0.000000 0.000000 1.000000
vn -0.000000 0.000000 1.000000
vn -0.000000 0.000000 1.000000
vn -0.000000 0.000000 1.000000
vn -0.000000 0.000000 1.000000
vn -1.000000 0.000000 0.000000
vn -1.000000 0.000000 0.000000
vn -1.000000 0.000000 0.000000
vn -1.000000 0.000000 0.000000
vn -1.000000 0.000000 0.000000
vn -1.000000 0.000000 0.000000
vn -0.000000 0.000000 -1.000000
vn -0.000000 0.000000 -1.000000
vn -0.000000 0.000000 -1.000000
vn -0.000000 0.000000 -1.000000
vn -0.000000 0.000000 -1.000000
vn -0.000000 0.000000 -1.000000
vn -0.000000 -1.000000 0.000000
vn -0.000000 -1.000000 0.000000
vn -0.000000 -1.000000 0.000000
vn -0.000000 -1.000000 0.000000
vn -0.000000 -1.000000 0.000000
vn -0.000000 -1.000000 0.000000
vn -0.000000 0.000000 1.000000
vn -0.000000 0.000000 1.000000
vn -0.000000 0.000000 1.000000
vn -0.000000 0.000000 1.000000
vn -0.000000 0.000000 1.000000
vn -0.000000 0.000000 1.000000
vn 1.000000 0.000000 0.000000
vn 1.000000 0.000000 0.000000
vn 1.000000 0.000000 0.000000
vn 1.000000 0.000000 0.000000
vn 1.000000 0.000000 0.000000
vn 1.000000 0.000000 0.000000
vn -1.000000 0.000000 0.000000
vn -1.000000 0.000000 0.000000
vn -1.000000 0.000000 0.000000
vn -1.000000 0.000000 0.000000
vn -1.000000 0.000000 0.000000
vn -1.000000 0.000000 0.000000
vn -0.000000 0.000000 -1.000000
vn -0.000000 0.000000 -1.000000
vn -0.000000 0.000000 -1.000000
vn -0.000000 0.000000 -1.000000
vn -0.000000 0.000000 -1.000000
vn -0.000000 0.000000 -1.000000
vn -0.000000 -1.000000 0.000000
vn -0.000000 -1.000000 0.000000
vn -0.000000 -1.000000 0.000000
vn -0.000000 -1.000000 0.000000
vn -0.000000 -1.000000 0.000000
vn -0.000000 -1.000000 0.000000
vn -0.000000 0.000000 1.000000
vn -0.000000 0.000000 1.000000
vn -0.000000 0.000000 1.000000
vn -0.000000 0.000000 1.000000
vn -0.000000 0.000000 1.000000
vn -0.000000 0.000000 1.000000
vn 1.000000 0.000000 0.000000
vn 1.000000 0.000000 0.000000
vn 1.000000 0.000000 0.000000
vn 1.000000 0.000000 0.000000
vn 1.000000 0.000000 0.000000
vn 1.000000 0.000000 0.000000
vn 1.000000 0.000000 0.000000
vn 1.000000 0.000000 0.000000
vn 1.000000 0.000000 0.000000
vn 1.000000 0.000000 0.000000
vn 1.000000 0.000000 0.000000
vn 1.000000 0.000000 0.000000
vn -0.000000 0.000000 -1.000000
vn -0.000000 0.000000 -1.000000
vn -0.000000 0.000000 -1.000000
vn -0.000000 0.000000 -1.000000
vn -0.000000 0.000000 -1.000000
vn -0.000000 0.000000 -1.000000
vn -1.000000 0.000000 0.000000
vn -1.000000 0.000000 0.000000
vn -1.000000 0.000000 0.000000
vn -1.000000 0.000000 0.000000
vn -1.000000 0.000000 0.000000
vn -1.000000 0.000000 0.000000
vn -0.000000 0.000000 1.000000
vn -0.000000 0.000000 1.000000
vn -0.000000 0.000000 1.000000
vn -0.000000 0.000000 1.000000
vn -0.000000 0.000000 1.000000
vn -0.000000 0.000000 1.000000
vn -0.000000 -1.000000 0.000000
vn -0.000000 -1.000000 0.000000
vn -0.000000 -1.000000 0.000000
vn -0.000000 -1.000000 0.000000
vn -0.000000 -1.000000 0.000000
vn -0.000000 -1.000000 0.000000
vn -0.000000 1.000000 0.000000
vn -0.000000 1.000000 0.000000
vn -0.000000 1.000000 0.000000
vn -0.000000 1.000000 0.000000
vn -0.000000 1.000000 0.000000
vn -0.000000 1.000000 0.000000
vn -0.000000 0.000000 -1.000000
vn -0.000000 0.000000 -1.000000
vn -0.000000 0.000000 -1.000000
vn -0.000000 0.000000 -1.000000
vn -0.000000 0.000000 -1.000000
vn -0.000000 0.000000 -1.000000
vn -1.000000 0.000000 0.000000
vn -1.000000 0.000000 0.000000
vn -1.000000 0.000000 0.000000
vn -1.000000 0.000000 0.000000
vn -1.000000 0.000000 0.000000
vn -1.000000 0.000000 0.000000
vn -0.000000 0.000000 1.000000
vn -0.000000 0.000000 1.000000
vn -0.000000 0.000000 1.000000
vn -0.000000 0.000000 1.000000
vn -0.000000 0.000000 1.000000
vn -0.000000 0.000000 1.000000
vn 1.000000 0.000000 0.000000
vn 1.000000 0.000000 0.000000
vn 1.000000 0.000000 0.000000
vn 1.000000 0.000000 0.000000
vn 1.000000 0.000000 0.000000
vn 1.000000 0.000000 0.000000
vn -0.000000 -1.000000 0.000000
vn -0.000000 -1.000000 0.000000
vn -0.000000 -1.000000 0.000000
vn -0.000000 -1.000000 0.000000
vn -0.000000 -1.000000 0.000000
vn -0.000000 -1.000000 0.000000
vn -0.000000 1.000000 0.000000
vn -0.000000 1.000000 0.000000
vn -0.000000 1.000000 0.000000
vn -0.000000 1.000000 0.000000
vn -0.000000 1.000000 0.000000
vn -0.000000 1.000000 0.000000

g Material
f 3/1/1 1/2/2 2/3/3
f 4/4/4 1/5/5 3/6/6
f 7/7/7 5/8/8 6/9/9
f 8/10/10 5/11/11 7/12/12
f 11/13/13 9/14/14 10/15/15
f 12/16/16 9/17/17 11/18/18
f 15/19/19 13/20/20 14/21/21
f 16/22/22 13/23/23 15/24/24
f 19/25/25 17/26/26 18/27/27
f 20/28/28 17/29/29 19/30/30
f 47/31/31 45/32/32 46/33/33
f 48/34/34 45/35/35 47/36/36
f 51/37/37 49/38/38 50/39/39
f 52/40/40 49/41/41 51/42/42
f 55/43/43 53/44/44 54/45/45
f 56/46/46 53/47/47 55/48/48
f 59/49/49 57/50/50 58/51/51
f 60/52/52 57/53/53 59/54/54
f 63/55/55 61/56/56 62/57/57
f 64/58/58 61/59/59 63/60/60
f 67/61/61 65/62/62 66/63/63
f 68/64/64 65/65/65 67/66/66
f 71/67/67 69/68/68 70/69/69
f 72/70/70 69/71/71 71/72/72
f 75/73/73 73/74/74 74/75/75
f 76/76/76 73/77/77 75/78/78
f 79/79/79 77/80/80 78/81/81
f 80/82/82 77/83/83 79/84/84
f 83/85/85 81/86/86 82/87/87
f 84/88/88 81/89/89 83/90/90
f 111/91/91 109/92/92 110/93/93
f 112/94/94 109/95/95 111/96/96
f 115/97/97 113/98/98 114/99/99
f 116/100/100 113/101/101 115/102/102
f 119/103/103 117/104/104 118/105/105
f 120/106/106 117/107/107 119/108/108
f 123/109/109 121/110/110 122/111/111
f 124/112/112 121/113/113 123/114/114
f 127/115/115 125/116/116 126/117/117
f 128/118/118 125/119/119 127/120/120

g Material.001
f 23/121/121 21/122/122 22/123/123
f 24/124/124 21/125/125 23/126/126
f 27/127/127 25/128/128 26/129/129
f 28/130/130 25/131/131 27/132/132
f 31/133/133 29/134/134 30/135/135
f 32/136/136 29/137/137 31/138/138
f 35/139/139 33/140/140 34/141/141
f 36/142/142 33/143/143 35/144/144
f 39/145/145 37/146/146 38/147/147
f 40/148/148 37/149/149 39/150/150
f 43/151/151 41/152/152 42/153/153
f 44/154/154 41/155/155 43/156/156
f 87/157/157 85/158/158 86/159/159
f 88/160/160 85/161/161 87/162/162
f 91/163/163 89/164/164 90/165/165
f 92/166/166 89/167/167 91/168/168
f 95/169/169 93/170/170 94/171/171
f 96/172/172 93/173/173 95/174/174
f 99/175/175 97/176/176 98/177/177
f 100/178/178 97/179/179 99/180/180
f 103/181/181 101/182/182 102/183/183
f 104/184/184 101/185/185 103/186/186
f 107/187/187 105/188/188 106/189/189
f 108/190/190 105/191/191 107/192/192

