# Made in Blockbench 4.12.4
o cube
v 0.5 1.75 -0.3125
v 0.5 1.75 -0.4375
v 0.5 1.375 -0.3125
v 0.5 1.375 -0.4375
v -0.5 1.75 -0.3125
v -0.5 1.75 -0.4375
v -0.5 1.375 -0.3125
v -0.5 1.375 -0.4375
v 0.5 -0.375 -0.3125
v 0.5 -0.375 -0.4375
v 0.5 -0.5 -0.3125
v 0.5 -0.5 -0.4375
v -0.5 -0.375 -0.3125
v -0.5 -0.375 -0.4375
v -0.5 -0.5 -0.3125
v -0.5 -0.5 -0.4375
v 0.375 1.375 -0.375
v 0.375 1.375 -0.375
v 0.375 -0.375 -0.375
v 0.375 -0.375 -0.375
v -0.375 1.375 -0.375
v -0.375 1.375 -0.375
v -0.375 -0.375 -0.375
v -0.375 -0.375 -0.375
v 0.375 1.375 -0.3125
v 0.375 1.375 -0.4375
v 0.5 1.375 -0.3125
v 0.5 1.375 -0.4375
v 0.375 -0.375 -0.3125
v 0.375 -0.375 -0.4375
v 0.5 -0.375 -0.3125
v 0.5 -0.375 -0.4375
v -0.5 1.375 -0.3125
v -0.5 1.375 -0.4375
v -0.375 1.375 -0.3125
v -0.375 1.375 -0.4375
v -0.5 -0.375 -0.3125
v -0.5 -0.375 -0.4375
v -0.375 -0.375 -0.3125
v -0.375 -0.375 -0.4375
vt 0.140625 0.703125
vt 0.140625 0.765625
vt 0.109375 0.765625
vt 0.109375 0.703125
vt 0.421875 0.703125
vt 0.421875 0.765625
vt 0.390625 0.765625
vt 0.390625 0.703125
vt 0.140625 0.796875
vt 0.140625 0.765625
vt 0.390625 0.765625
vt 0.390625 0.796875
vt 0.390625 0.765625
vt 0.390625 0.796875
vt 0.640625 0.796875
vt 0.640625 0.765625
vt 0.671875 0.703125
vt 0.671875 0.765625
vt 0.421875 0.765625
vt 0.421875 0.703125
vt 0.390625 0.703125
vt 0.390625 0.765625
vt 0.140625 0.765625
vt 0.140625 0.703125
vt -0.078125 0.9375
vt -0.078125 0.96875
vt -0.109375 0.96875
vt -0.109375 0.9375
vt 0.203125 0.9375
vt 0.203125 0.96875
vt 0.171875 0.96875
vt 0.171875 0.9375
vt -0.078125 1
vt -0.078125 0.96875
vt 0.171875 0.96875
vt 0.171875 1
vt 0.171875 0.96875
vt 0.171875 1
vt 0.421875 1
vt 0.421875 0.96875
vt 0.453125 0.9375
vt 0.453125 0.96875
vt 0.203125 0.96875
vt 0.203125 0.9375
vt 0.171875 0.9375
vt 0.171875 0.96875
vt -0.078125 0.96875
vt -0.078125 0.9375
vt 0 0.9375
vt 0 0.9375
vt 0 0
vt 0 0
vt 0.375 0.9375
vt 0.375 0.9375
vt 0.375 0
vt 0.375 0
vt 0 0.9375
vt 0.375 0.9375
vt 0 0.9375
vt 0.375 0.9375
vt 0.375 0.9375
vt 0.75 0.9375
vt 0.375 0
vt 0.375 0.9375
vt 0 0.9375
vt 0 0
vt -0.296875 0.9375
vt -0.296875 0.96875
vt -0.328125 0.96875
vt -0.328125 0.9375
vt 0.203125 0.9375
vt 0.203125 0.96875
vt 0.171875 0.96875
vt 0.171875 0.9375
vt -0.296875 1
vt -0.296875 0.96875
vt 0.171875 0.96875
vt 0.171875 1
vt 0.171875 0.96875
vt 0.171875 1
vt 0.640625 1
vt 0.640625 0.96875
vt 0.671875 0.9375
vt 0.671875 0.96875
vt 0.203125 0.96875
vt 0.203125 0.9375
vt 0.171875 0.9375
vt 0.171875 0.96875
vt -0.296875 0.96875
vt -0.296875 0.9375
vt -0.296875 0.9375
vt -0.296875 0.96875
vt -0.328125 0.96875
vt -0.328125 0.9375
vt 0.203125 0.9375
vt 0.203125 0.96875
vt 0.171875 0.96875
vt 0.171875 0.9375
vt -0.296875 1
vt -0.296875 0.96875
vt 0.171875 0.96875
vt 0.171875 1
vt 0.171875 0.96875
vt 0.171875 1
vt 0.640625 1
vt 0.640625 0.96875
vt 0.671875 0.9375
vt 0.671875 0.96875
vt 0.203125 0.96875
vt 0.203125 0.9375
vt 0.171875 0.9375
vt 0.171875 0.96875
vt -0.296875 0.96875
vt -0.296875 0.9375
vt 0.375 0.9375
vt 0 0.9375
vt 0.375 0.9375
vt 0.75 0.9375
vt 0.375 0.9375
vt 0.75 0.9375
vn 1 0 0
vn -1 0 0
vn 0 1 0
vn 0 -1 0
vn 0 0 1
vn 0 0 -1
vn 1 0 0
vn -1 0 0
vn 0 1 0
vn 0 -1 0
vn 0 0 1
vn 0 0 -1
vn 0 0 0
vn 0 0 0
vn 0 0 0
vn 0 0 0
vn 0 0 -1
vn 0 1 0
vn 0 -1 0
vn -1 0 0
vn 1 0 0
vn 0 0 1
vn 0 0 -1
vn 0 1 0
vn 0 -1 0
vn -1 0 0
vn 1 0 0
vn 0 0 1
vn 0 0 -1
vn 0 0 0
vn 0 0 0
g m_167ba3eb-d32d-8ab1-85b8-84b5607c6687
f 4/1/1 2/2/1 1/3/1 3/4/1
f 7/5/2 5/6/2 6/7/2 8/8/2
f 1/9/3 2/10/3 6/11/3 5/12/3
f 4/13/4 3/14/4 7/15/4 8/16/4
f 3/17/5 1/18/5 5/19/5 7/20/5
f 8/21/6 6/22/6 2/23/6 4/24/6
f 12/25/7 10/26/7 9/27/7 11/28/7
f 15/29/8 13/30/8 14/31/8 16/32/8
f 9/33/9 10/34/9 14/35/9 13/36/9
f 12/37/10 11/38/10 15/39/10 16/40/10
f 11/41/11 9/42/11 13/43/11 15/44/11
f 16/45/12 14/46/12 10/47/12 12/48/12
g m_eb71e3e7-bc77-e27e-40ff-e8e1ab5b8333
f 18/49/13 17/50/13 20/51/13 19/52/13
f 21/53/14 22/54/14 23/55/14 24/56/14
f 18/57/15 22/58/15 17/59/15
f 19/60/16 20/61/16 24/62/16
f 24/63/17 22/64/17 18/65/17 20/66/17
g m_167ba3eb-d32d-8ab1-85b8-84b5607c6687
f 28/67/18 26/68/18 25/69/18 27/70/18
f 31/71/19 29/72/19 30/73/19 32/74/19
f 25/75/20 26/76/20 30/77/20 29/78/20
f 28/79/21 27/80/21 31/81/21 32/82/21
f 27/83/22 25/84/22 29/85/22 31/86/22
f 32/87/23 30/88/23 26/89/23 28/90/23
f 36/91/24 34/92/24 33/93/24 35/94/24
f 39/95/25 37/96/25 38/97/25 40/98/25
f 33/99/26 34/100/26 38/101/26 37/102/26
f 36/103/27 35/104/27 39/105/27 40/106/27
f 35/107/28 33/108/28 37/109/28 39/110/28
f 40/111/29 38/112/29 34/113/29 36/114/29
g m_eb71e3e7-bc77-e27e-40ff-e8e1ab5b8333
f 22/115/30 17/116/30 21/117/30
f 23/118/31 20/119/31 24/120/31