# Converted from B3D for Luanti (With Correct Normals)
# Object Name: multidecor_wooden_bed_with_legs

v -0.999999 0.200000 1.800001
v 1.000001 0.200000 1.799999
v 0.999999 0.200000 -1.800001
v -1.000001 0.200000 -1.799999
v 0.999999 -0.200000 -1.800001
v 0.999999 0.200000 -1.800001
v 1.000001 0.200000 1.799999
v 1.000001 -0.200000 1.799999
v 1.000001 -0.200000 1.799999
v -0.999999 -0.200000 1.800001
v -1.000001 -0.200000 -1.799999
v 0.999999 -0.200000 -1.800001
v -0.999999 -0.200000 1.800001
v -0.999999 0.200000 1.800001
v -1.000001 0.200000 -1.799999
v -1.000001 -0.200000 -1.799999
v -0.799999 -0.800000 2.000000
v 0.800001 -0.800000 2.000000
v 0.800001 1.200000 2.000000
v -0.799999 1.200000 2.000000
v 0.800001 -0.800000 1.799999
v 0.800001 -0.800000 2.000000
v -0.799999 -0.800000 2.000000
v -0.799999 -0.800000 1.800000
v -0.799999 1.200000 1.800000
v -0.799999 1.200000 2.000000
v 0.800001 1.200000 2.000000
v 0.800001 1.200000 1.799999
v 1.100001 -0.800000 2.049999
v 1.100001 -0.800000 1.749999
v 1.100001 1.400000 1.749999
v 1.100001 1.400000 2.049999
v 1.100001 -0.800000 1.749999
v 0.800001 -0.800000 1.750000
v 0.800001 1.400000 1.750000
v 1.100001 1.400000 1.749999
v 0.799999 0.900000 -1.750002
v 1.099999 0.900000 -1.750002
v 1.099998 0.900000 -2.050002
v 0.799999 0.900000 -2.050002
v 1.099999 -0.800000 -1.750002
v 0.799999 -0.800000 -1.750002
v 0.799999 -0.800000 -2.050002
v 1.099998 -0.800000 -2.050002
v 0.799999 -0.800000 -2.050002
v 0.799999 0.900000 -2.050002
v 1.099998 0.900000 -2.050002
v 1.099998 -0.800000 -2.050002
v 0.799999 -0.800000 -1.750002
v 0.799999 0.900000 -1.750002
v 0.799999 0.900000 -2.050002
v 0.799999 -0.800000 -2.050002
v 0.800001 -0.800000 1.750000
v 0.800001 1.400000 1.750000
v 0.800001 1.400000 2.049999
v 0.800001 -0.800000 2.049999
v 1.099999 -0.800000 -1.750002
v 1.099999 0.900000 -1.750002
v 0.799999 0.900000 -1.750002
v 0.799999 -0.800000 -1.750002
v 0.800001 -0.800000 2.049999
v 1.100001 -0.800000 2.049999
v 1.100001 1.400000 2.049999
v 0.800001 1.400000 2.049999
v 1.099998 -0.800000 -2.050002
v 1.099998 0.900000 -2.050002
v 1.099999 0.900000 -1.750002
v 1.099999 -0.800000 -1.750002
v 1.100001 -0.800000 1.749999
v 1.100001 -0.800000 2.049999
v 0.800001 -0.800000 2.049999
v 0.800001 -0.800000 1.750000
v -0.800001 0.700000 -1.799999
v 0.799999 0.700000 -1.800000
v 0.799999 0.700000 -2.000000
v -0.800001 0.700000 -2.000000
v 0.799999 -0.800000 -1.800000
v -0.800001 -0.800000 -1.799999
v -0.800001 -0.800000 -2.000000
v 0.799999 -0.800000 -2.000000
v 0.800001 1.400000 1.750000
v 0.800001 1.400000 2.049999
v 1.100001 1.400000 2.049999
v 1.100001 1.400000 1.749999
v -0.800001 -0.800000 -2.000000
v -0.800001 0.700000 -2.000000
v 0.799999 0.700000 -2.000000
v 0.799999 -0.800000 -2.000000
v 0.799999 -0.800000 -1.800000
v 0.799999 0.700000 -1.800000
v -0.800001 0.700000 -1.799999
v -0.800001 -0.800000 -1.799999
v -0.899999 0.400000 1.800001
v 0.900001 0.400000 1.799999
v 0.899999 0.400000 -1.800001
v -0.900001 0.400000 -1.799999
v 0.950001 0.333333 1.799999
v 0.949999 0.333333 -1.800001
v 0.899999 0.400000 -1.800001
v 0.900001 0.400000 1.799999
v 0.900001 0.200000 1.799999
v 0.899999 0.200000 -1.800001
v 0.949999 0.266667 -1.800001
v 0.950001 0.266667 1.799999
v 0.950001 0.266667 1.799999
v 0.949999 0.266667 -1.800001
v 0.949999 0.333333 -1.800001
v 0.950001 0.333333 1.799999
v 0.800001 -0.800000 1.799999
v -0.799999 -0.800000 1.800000
v -0.799999 1.200000 1.800000
v 0.800001 1.200000 1.799999
v 1.043069 -0.900000 -1.993073
v 1.043069 -0.800000 -1.993073
v 1.043069 -0.800000 -1.806931
v 1.043069 -0.900000 -1.806931
v 1.043069 -0.900000 -1.806931
v 1.043069 -0.800000 -1.806931
v 0.856928 -0.800000 -1.806931
v 0.856928 -0.900000 -1.806931
v 0.856928 -0.900000 -1.806931
v 0.856928 -0.800000 -1.806931
v 0.856928 -0.800000 -1.993073
v 0.856928 -0.900000 -1.993073
v 0.856928 -0.900000 -1.993073
v 0.856928 -0.800000 -1.993073
v 1.043069 -0.800000 -1.993073
v 1.043069 -0.900000 -1.993073
v 1.006367 -1.000000 -1.843634
v 0.893631 -1.000000 -1.843634
v 0.893631 -1.000000 -1.956370
v 1.006367 -1.000000 -1.956370
v 0.893631 -1.000000 -1.956370
v 0.856928 -0.900000 -1.993073
v 1.043069 -0.900000 -1.993073
v 1.006367 -1.000000 -1.956370
v 0.893631 -1.000000 -1.843634
v 0.856928 -0.900000 -1.806931
v 0.856928 -0.900000 -1.993073
v 0.893631 -1.000000 -1.956370
v 1.006367 -1.000000 -1.843634
v 1.043069 -0.900000 -1.806931
v 0.856928 -0.900000 -1.806931
v 0.893631 -1.000000 -1.843634
v 1.006367 -1.000000 -1.956370
v 1.043069 -0.900000 -1.993073
v 1.043069 -0.900000 -1.806931
v 1.006367 -1.000000 -1.843634
v 1.043072 -0.900000 1.993070
v 1.043072 -0.900000 1.806929
v 1.043072 -0.800000 1.806929
v 1.043072 -0.800000 1.993070
v 1.043072 -0.900000 1.806929
v 0.856930 -0.900000 1.806929
v 0.856930 -0.800000 1.806929
v 1.043072 -0.800000 1.806929
v 0.856930 -0.900000 1.806929
v 0.856931 -0.900000 1.993070
v 0.856931 -0.800000 1.993070
v 0.856930 -0.800000 1.806929
v 0.856931 -0.900000 1.993070
v 1.043072 -0.900000 1.993070
v 1.043072 -0.800000 1.993070
v 0.856931 -0.800000 1.993070
v 1.006369 -1.000000 1.843631
v 1.006369 -1.000000 1.956367
v 0.893633 -1.000000 1.956367
v 0.893633 -1.000000 1.843631
v 0.893633 -1.000000 1.956367
v 1.006369 -1.000000 1.956367
v 1.043072 -0.900000 1.993070
v 0.856931 -0.900000 1.993070
v 0.893633 -1.000000 1.843631
v 0.893633 -1.000000 1.956367
v 0.856931 -0.900000 1.993070
v 0.856930 -0.900000 1.806929
v 1.006369 -1.000000 1.843631
v 0.893633 -1.000000 1.843631
v 0.856930 -0.900000 1.806929
v 1.043072 -0.900000 1.806929
v 1.006369 -1.000000 1.956367
v 1.006369 -1.000000 1.843631
v 1.043072 -0.900000 1.806929
v 1.043072 -0.900000 1.993070
v 0.384516 0.728943 0.970154
v 0.671230 0.600000 1.066655
v 0.671230 0.600000 0.767038
v 0.248297 0.536991 1.770251
v 0.744888 0.536991 1.770251
v 0.671231 0.600000 1.718070
v 0.248297 0.600000 1.718070
v -0.744886 0.536991 1.418454
v -0.744886 0.536991 1.770252
v -0.671228 0.600000 1.718071
v -0.671228 0.600000 1.418454
v 0.744888 0.536991 1.066655
v 0.744887 0.536991 0.714857
v 0.671230 0.600000 0.767038
v 0.671230 0.600000 1.066655
v -0.248295 0.536991 0.714858
v -0.744886 0.536991 0.714858
v -0.671229 0.600000 0.767039
v -0.248295 0.600000 0.767039
v 0.744887 0.536991 0.714857
v 0.248296 0.536991 0.714857
v 0.248296 0.600000 0.767038
v 0.671230 0.600000 0.767038
v 0.248296 0.536991 0.714857
v -0.248295 0.536991 0.714858
v -0.248295 0.600000 0.767039
v 0.248296 0.600000 0.767038
v 0.671230 0.400000 0.767038
v 0.248296 0.400000 0.767038
v 0.248296 0.463009 0.714857
v 0.744887 0.463009 0.714857
v 0.744887 0.463009 0.714857
v 0.248296 0.463009 0.714857
v 0.248296 0.536991 0.714857
v 0.744887 0.536991 0.714857
v 0.248296 0.400000 0.767038
v -0.248295 0.400000 0.767039
v -0.248295 0.463009 0.714858
v 0.248296 0.463009 0.714857
v 0.248296 0.463009 0.714857
v -0.248295 0.463009 0.714858
v -0.248295 0.536991 0.714858
v 0.248296 0.536991 0.714857
v -0.248295 0.400000 0.767039
v -0.671229 0.400000 0.767039
v -0.744886 0.463009 0.714858
v -0.248295 0.463009 0.714858
v -0.248295 0.463009 0.714858
v -0.744886 0.463009 0.714858
v -0.744886 0.536991 0.714858
v -0.248295 0.536991 0.714858
v 0.744888 0.536991 1.770251
v 0.744888 0.536991 1.418453
v 0.671230 0.600000 1.418453
v 0.671231 0.600000 1.718070
v 0.744888 0.536991 1.418453
v 0.744888 0.536991 1.066655
v 0.671230 0.600000 1.066655
v 0.671230 0.600000 1.418453
v 0.671231 0.400000 1.718070
v 0.671230 0.400000 1.418453
v 0.744888 0.463009 1.418453
v 0.744888 0.463009 1.770251
v 0.744888 0.463009 1.770251
v 0.744888 0.463009 1.418453
v 0.744888 0.536991 1.418453
v 0.744888 0.536991 1.770251
v 0.671230 0.400000 1.418453
v 0.671230 0.400000 1.066655
v 0.744888 0.463009 1.066655
v 0.744888 0.463009 1.418453
v 0.744888 0.463009 1.418453
v 0.744888 0.463009 1.066655
v 0.744888 0.536991 1.066655
v 0.744888 0.536991 1.418453
v 0.671230 0.400000 1.066655
v 0.671230 0.400000 0.767038
v 0.744887 0.463009 0.714857
v 0.744888 0.463009 1.066655
v 0.744888 0.463009 1.066655
v 0.744887 0.463009 0.714857
v 0.744887 0.536991 0.714857
v 0.744888 0.536991 1.066655
v -0.744886 0.536991 0.714858
v -0.744886 0.536991 1.066656
v -0.671229 0.600000 1.066656
v -0.671229 0.600000 0.767039
v -0.744886 0.536991 1.066656
v -0.744886 0.536991 1.418454
v -0.671228 0.600000 1.418454
v -0.671229 0.600000 1.066656
v -0.671229 0.400000 0.767039
v -0.671229 0.400000 1.066656
v -0.744886 0.463009 1.066656
v -0.744886 0.463009 0.714858
v -0.744886 0.463009 0.714858
v -0.744886 0.463009 1.066656
v -0.744886 0.536991 1.066656
v -0.744886 0.536991 0.714858
v -0.671229 0.400000 1.066656
v -0.671228 0.400000 1.418454
v -0.744886 0.463009 1.418454
v -0.744886 0.463009 1.066656
v -0.744886 0.463009 1.066656
v -0.744886 0.463009 1.418454
v -0.744886 0.536991 1.418454
v -0.744886 0.536991 1.066656
v -0.671228 0.400000 1.418454
v -0.671228 0.400000 1.718071
v -0.744886 0.463009 1.770252
v -0.744886 0.463009 1.418454
v -0.744886 0.463009 1.418454
v -0.744886 0.463009 1.770252
v -0.744886 0.536991 1.770252
v -0.744886 0.536991 1.418454
v -0.744886 0.536991 1.770252
v -0.248294 0.536991 1.770252
v -0.248294 0.600000 1.718071
v -0.671228 0.600000 1.718071
v -0.248294 0.536991 1.770252
v 0.248297 0.536991 1.770251
v 0.248297 0.600000 1.718070
v -0.248294 0.600000 1.718071
v -0.671228 0.400000 1.718071
v -0.223742 0.400000 1.718071
v -0.248294 0.463009 1.770252
v -0.744886 0.463009 1.770252
v -0.744886 0.463009 1.770252
v -0.248294 0.463009 1.770252
v -0.248294 0.536991 1.770252
v -0.744886 0.536991 1.770252
v -0.223742 0.400000 1.718071
v 0.223744 0.400000 1.718070
v 0.248297 0.463009 1.770251
v -0.248294 0.463009 1.770252
v -0.248294 0.463009 1.770252
v 0.248297 0.463009 1.770251
v 0.248297 0.536991 1.770251
v -0.248294 0.536991 1.770252
v 0.223744 0.400000 1.718070
v 0.671231 0.400000 1.718070
v 0.744888 0.463009 1.770251
v 0.248297 0.463009 1.770251
v 0.248297 0.463009 1.770251
v 0.744888 0.463009 1.770251
v 0.744888 0.536991 1.770251
v 0.248297 0.536991 1.770251
v -0.671229 0.600000 1.066656
v -0.384515 0.728943 0.970154
v -0.671229 0.600000 0.767039
v -0.384515 0.728943 0.970154
v 0.384516 0.728943 0.970154
v 0.248296 0.600000 0.767038
v -0.248295 0.600000 0.767039
v -0.671228 0.600000 1.718071
v -0.384514 0.728943 1.514955
v -0.671228 0.600000 1.418454
v -0.671228 0.600000 1.418454
v -0.384514 0.728943 1.514955
v -0.384515 0.728943 0.970154
v -0.671229 0.600000 1.066656
v -0.248294 0.600000 1.718071
v 0.248297 0.600000 1.718070
v 0.384516 0.728943 1.514955
v -0.384514 0.728943 1.514955
v -0.384514 0.728943 1.514955
v 0.384516 0.728943 1.514955
v 0.384516 0.728943 0.970154
v -0.384515 0.728943 0.970154
v 0.248297 0.600000 1.718070
v 0.671231 0.600000 1.718070
v 0.384516 0.728943 1.514955
v 0.384516 0.728943 1.514955
v 0.671230 0.600000 1.418453
v 0.671230 0.600000 1.066655
v 0.384516 0.728943 0.970154
v 0.671230 0.600000 0.767038
v 0.248296 0.600000 0.767038
v 0.384516 0.728943 0.970154
v 0.384516 0.728943 1.514955
v 0.671231 0.600000 1.718070
v 0.671230 0.600000 1.418453
v -0.671229 0.600000 0.767039
v -0.384515 0.728943 0.970154
v -0.248295 0.600000 0.767039
v -0.384514 0.728943 1.514955
v -0.671228 0.600000 1.718071
v -0.248294 0.600000 1.718071
v -0.800001 0.900000 -1.750001
v -0.800001 0.900000 -2.050001
v -1.100001 0.900000 -2.050000
v -1.100001 0.900000 -1.750001
v -1.100001 -0.800000 -1.750001
v -1.100001 -0.800000 -2.050000
v -0.800001 -0.800000 -2.050001
v -0.800001 -0.800000 -1.750001
v -0.800001 -0.800000 -2.050001
v -1.100001 -0.800000 -2.050000
v -1.100001 0.900000 -2.050000
v -0.800001 0.900000 -2.050001
v -0.800001 -0.800000 -1.750001
v -0.800001 -0.800000 -2.050001
v -0.800001 0.900000 -2.050001
v -0.800001 0.900000 -1.750001
v -1.100001 -0.800000 -1.750001
v -0.800001 -0.800000 -1.750001
v -0.800001 0.900000 -1.750001
v -1.100001 0.900000 -1.750001
v -1.100001 -0.800000 -2.050000
v -1.100001 -0.800000 -1.750001
v -1.100001 0.900000 -1.750001
v -1.100001 0.900000 -2.050000
v -1.043072 -0.900000 -1.993071
v -1.043072 -0.900000 -1.806930
v -1.043072 -0.800000 -1.806930
v -1.043072 -0.800000 -1.993071
v -1.043072 -0.900000 -1.806930
v -0.856930 -0.900000 -1.806930
v -0.856930 -0.800000 -1.806930
v -1.043072 -0.800000 -1.806930
v -0.856930 -0.900000 -1.806930
v -0.856931 -0.900000 -1.993072
v -0.856931 -0.800000 -1.993072
v -0.856930 -0.800000 -1.806930
v -0.856931 -0.900000 -1.993072
v -1.043072 -0.900000 -1.993071
v -1.043072 -0.800000 -1.993071
v -0.856931 -0.800000 -1.993072
v -1.006369 -1.000000 -1.843633
v -1.006369 -1.000000 -1.956369
v -0.893633 -1.000000 -1.956369
v -0.893633 -1.000000 -1.843633
v -0.893633 -1.000000 -1.956369
v -1.006369 -1.000000 -1.956369
v -1.043072 -0.900000 -1.993071
v -0.856931 -0.900000 -1.993072
v -0.893633 -1.000000 -1.843633
v -0.893633 -1.000000 -1.956369
v -0.856931 -0.900000 -1.993072
v -0.856930 -0.900000 -1.806930
v -1.006369 -1.000000 -1.843633
v -0.893633 -1.000000 -1.843633
v -0.856930 -0.900000 -1.806930
v -1.043072 -0.900000 -1.806930
v -1.006369 -1.000000 -1.956369
v -1.006369 -1.000000 -1.843633
v -1.043072 -0.900000 -1.806930
v -1.043072 -0.900000 -1.993071
v -1.099998 -0.800000 2.050000
v -1.099998 1.400000 2.050000
v -1.099999 1.400000 1.750001
v -1.099999 -0.800000 1.750001
v -1.099999 -0.800000 1.750001
v -1.099999 1.400000 1.750001
v -0.799999 1.400000 1.750000
v -0.799999 -0.800000 1.750000
v -0.799999 -0.800000 1.750000
v -0.799999 1.400000 1.750000
v -0.799999 1.400000 2.050000
v -0.799999 -0.800000 2.050000
v -0.799999 -0.800000 2.050000
v -0.799999 1.400000 2.050000
v -1.099998 1.400000 2.050000
v -1.099998 -0.800000 2.050000
v -1.099999 -0.800000 1.750001
v -0.799999 -0.800000 1.750000
v -0.799999 -0.800000 2.050000
v -1.099998 -0.800000 2.050000
v -0.799999 1.400000 1.750000
v -1.099999 1.400000 1.750001
v -1.099998 1.400000 2.050000
v -0.799999 1.400000 2.050000
v -1.043069 -0.900000 1.993071
v -1.043069 -0.800000 1.993071
v -1.043069 -0.800000 1.806930
v -1.043069 -0.900000 1.806930
v -1.043069 -0.900000 1.806930
v -1.043069 -0.800000 1.806930
v -0.856928 -0.800000 1.806930
v -0.856928 -0.900000 1.806930
v -0.856928 -0.900000 1.806930
v -0.856928 -0.800000 1.806930
v -0.856928 -0.800000 1.993071
v -0.856928 -0.900000 1.993071
v -0.856928 -0.900000 1.993071
v -0.856928 -0.800000 1.993071
v -1.043069 -0.800000 1.993071
v -1.043069 -0.900000 1.993071
v -1.006367 -1.000000 1.843632
v -0.893631 -1.000000 1.843632
v -0.893631 -1.000000 1.956369
v -1.006367 -1.000000 1.956369
v -0.893631 -1.000000 1.956369
v -0.856928 -0.900000 1.993071
v -1.043069 -0.900000 1.993071
v -1.006367 -1.000000 1.956369
v -0.893631 -1.000000 1.843632
v -0.856928 -0.900000 1.806930
v -0.856928 -0.900000 1.993071
v -0.893631 -1.000000 1.956369
v -1.006367 -1.000000 1.843632
v -1.043069 -0.900000 1.806930
v -0.856928 -0.900000 1.806930
v -0.893631 -1.000000 1.843632
v -1.006367 -1.000000 1.956369
v -1.043069 -0.900000 1.993071
v -1.043069 -0.900000 1.806930
v -1.006367 -1.000000 1.843632
v -0.949999 0.333333 1.800001
v -0.899999 0.400000 1.800001
v -0.900001 0.400000 -1.799999
v -0.950001 0.333333 -1.799999
v -0.899999 0.200000 1.800001
v -0.949999 0.266667 1.800001
v -0.950001 0.266667 -1.799999
v -0.900001 0.200000 -1.799999
v -0.949999 0.266667 1.800001
v -0.949999 0.333333 1.800001
v -0.950001 0.333333 -1.799999
v -0.950001 0.266667 -1.799999

vt 0.000238 0.263020
vt 0.473246 0.000238
vt 0.473246 0.263020
vt 0.000238 0.000238
vt 0.473246 0.000238
vt 0.000238 0.263020
vt 0.473246 0.263020
vt 0.000238 0.315577
vt 0.000238 0.263020
vt 0.473246 0.315577
vt 0.000238 0.315577
vt 0.473246 0.263020
vt 0.000238 0.578359
vt 0.473246 0.315577
vt 0.473246 0.578359
vt 0.000238 0.315577
vt 0.473246 0.315577
vt 0.000238 0.578359
vt 0.000238 0.630916
vt 0.473246 0.578359
vt 0.473246 0.630916
vt 0.000238 0.578359
vt 0.473246 0.578359
vt 0.000238 0.630916
vt 0.289774 0.184185
vt 0.552556 0.394412
vt 0.552556 0.184185
vt 0.289774 0.394412
vt 0.552556 0.394412
vt 0.289774 0.184185
vt 0.552556 0.394412
vt 0.578835 0.184185
vt 0.552556 0.184185
vt 0.578835 0.394412
vt 0.578835 0.184185
vt 0.552556 0.394412
vt 0.867896 0.184185
vt 0.841617 0.394412
vt 0.867896 0.394412
vt 0.841617 0.184185
vt 0.841617 0.394412
vt 0.867896 0.184185
vt 0.763258 0.697087
vt 0.802675 0.408026
vt 0.763258 0.408026
vt 0.802675 0.697087
vt 0.802675 0.408026
vt 0.763258 0.697087
vt 0.723840 0.697087
vt 0.763258 0.408026
vt 0.723840 0.408026
vt 0.763258 0.697087
vt 0.763258 0.408026
vt 0.723840 0.697087
vt 0.000238 0.920928
vt 0.039655 0.881510
vt 0.039655 0.920927
vt 0.000238 0.881510
vt 0.039655 0.881510
vt 0.000238 0.920928
vt 0.302437 0.881510
vt 0.263020 0.920927
vt 0.263020 0.881510
vt 0.302437 0.920928
vt 0.263020 0.920927
vt 0.302437 0.881510
vt 0.039655 0.960345
vt 0.263020 0.999762
vt 0.039655 0.999762
vt 0.263020 0.960345
vt 0.263020 0.999762
vt 0.039655 0.960345
vt 0.039655 0.842093
vt 0.263020 0.881510
vt 0.039655 0.881510
vt 0.263020 0.842093
vt 0.263020 0.881510
vt 0.039655 0.842093
vt 0.684423 0.697087
vt 0.723840 0.408026
vt 0.723840 0.697087
vt 0.684423 0.408026
vt 0.723840 0.408026
vt 0.684423 0.697087
vt 0.039655 0.881510
vt 0.263020 0.920927
vt 0.039655 0.920927
vt 0.263020 0.881510
vt 0.263020 0.920927
vt 0.039655 0.881510
vt 0.802675 0.697087
vt 0.842093 0.408026
vt 0.802675 0.408026
vt 0.842093 0.697087
vt 0.842093 0.408026
vt 0.802675 0.697087
vt 0.039655 0.920927
vt 0.263020 0.960345
vt 0.039655 0.960345
vt 0.263020 0.920927
vt 0.263020 0.960345
vt 0.039655 0.920927
vt 0.723840 0.368608
vt 0.763258 0.408026
vt 0.763258 0.368608
vt 0.723840 0.408026
vt 0.763258 0.408026
vt 0.723840 0.368608
vt 0.446968 0.631391
vt 0.420690 0.841617
vt 0.420690 0.631391
vt 0.446968 0.841617
vt 0.420690 0.841617
vt 0.446968 0.631391
vt 0.197325 0.841617
vt 0.223603 0.631391
vt 0.223603 0.841617
vt 0.197325 0.631391
vt 0.223603 0.631391
vt 0.197325 0.841617
vt 0.802675 0.697087
vt 0.842093 0.736504
vt 0.842093 0.697087
vt 0.802675 0.736504
vt 0.842093 0.736504
vt 0.802675 0.697087
vt 0.000238 0.631391
vt 0.197325 0.841617
vt 0.000238 0.841617
vt 0.197325 0.631391
vt 0.197325 0.841617
vt 0.000238 0.631391
vt 0.420690 0.841617
vt 0.223603 0.631391
vt 0.420690 0.631391
vt 0.223603 0.841617
vt 0.223603 0.631391
vt 0.420690 0.841617
vt 0.841617 0.394412
vt 0.578835 0.184185
vt 0.578835 0.394412
vt 0.841617 0.184185
vt 0.578835 0.184185
vt 0.841617 0.394412
vt 0.000238 0.920928
vt 0.039655 0.881510
vt 0.000238 0.881510
vt 0.039655 0.920927
vt 0.039655 0.881510
vt 0.000238 0.920928
vt 0.302437 0.881510
vt 0.263020 0.920927
vt 0.302437 0.920928
vt 0.263020 0.881510
vt 0.263020 0.920927
vt 0.302437 0.881510
vt 0.039655 0.960345
vt 0.263020 0.999762
vt 0.263020 0.960345
vt 0.039655 0.999762
vt 0.263020 0.999762
vt 0.039655 0.960345
vt 0.039655 0.842093
vt 0.263020 0.881510
vt 0.263020 0.842093
vt 0.039655 0.881510
vt 0.263020 0.881510
vt 0.039655 0.842093
vt 0.039655 0.881510
vt 0.263020 0.920927
vt 0.263020 0.881510
vt 0.039655 0.920927
vt 0.263020 0.920927
vt 0.039655 0.881510
vt 0.039655 0.920927
vt 0.263020 0.960345
vt 0.263020 0.920927
vt 0.039655 0.960345
vt 0.263020 0.960345
vt 0.039655 0.920927
vt 0.763258 0.697087
vt 0.802675 0.408026
vt 0.802675 0.697087
vt 0.763258 0.408026
vt 0.802675 0.408026
vt 0.763258 0.697087
vt 0.723840 0.697087
vt 0.763258 0.408026
vt 0.763258 0.697087
vt 0.723840 0.408026
vt 0.763258 0.408026
vt 0.723840 0.697087
vt 0.684423 0.697087
vt 0.723840 0.408026
vt 0.723840 0.697087
vt 0.684423 0.408026
vt 0.723840 0.408026
vt 0.684423 0.697087
vt 0.802675 0.697087
vt 0.842093 0.408026
vt 0.842093 0.697087
vt 0.802675 0.408026
vt 0.842093 0.408026
vt 0.802675 0.697087
vt 0.723840 0.368608
vt 0.763258 0.408026
vt 0.723840 0.408026
vt 0.763258 0.368608
vt 0.763258 0.408026
vt 0.723840 0.368608
vt 0.802675 0.697087
vt 0.842093 0.736504
vt 0.802675 0.736504
vt 0.842093 0.697087
vt 0.842093 0.736504
vt 0.802675 0.697087
vt 0.453412 0.000145
vt 0.813361 0.720045
vt 0.453412 0.720045
vt 0.813361 0.000146
vt 0.813361 0.720045
vt 0.453412 0.000145
vt 0.453412 0.000145
vt 0.436749 0.720045
vt 0.436747 0.000145
vt 0.453412 0.720045
vt 0.436749 0.720045
vt 0.453412 0.000145
vt 0.423416 0.000146
vt 0.406756 0.720045
vt 0.406751 0.000146
vt 0.423418 0.720045
vt 0.406756 0.720045
vt 0.423416 0.000146
vt 0.436747 0.000145
vt 0.423418 0.720045
vt 0.423416 0.000146
vt 0.436749 0.720045
vt 0.423418 0.720045
vt 0.436747 0.000145
vt 0.007639 0.999855
vt 0.048256 0.936989
vt 0.067554 0.999855
vt 0.861166 0.313078
vt 0.844807 0.397653
vt 0.844807 0.298349
vt 0.861166 0.397653
vt 0.844807 0.397653
vt 0.861166 0.313078
vt 0.861457 0.200760
vt 0.880841 0.140845
vt 0.880841 0.211194
vt 0.861457 0.140845
vt 0.880841 0.140845
vt 0.861457 0.200760
vt 0.867214 0.606987
vt 0.847830 0.666902
vt 0.847830 0.596552
vt 0.867214 0.666902
vt 0.847830 0.666902
vt 0.867214 0.606987
vt 0.813652 0.283329
vt 0.830012 0.198754
vt 0.830012 0.298058
vt 0.813652 0.198754
vt 0.830012 0.198754
vt 0.813652 0.283329
vt 0.813652 0.099450
vt 0.830012 0.000145
vt 0.830012 0.099450
vt 0.813652 0.014875
vt 0.830012 0.000145
vt 0.813652 0.099450
vt 0.813652 0.198754
vt 0.830012 0.099450
vt 0.830012 0.198754
vt 0.813652 0.099450
vt 0.830012 0.099450
vt 0.813652 0.198754
vt 0.844807 0.099450
vt 0.861166 0.014875
vt 0.861166 0.099450
vt 0.844806 0.000145
vt 0.861166 0.014875
vt 0.844807 0.099450
vt 0.830012 0.099450
vt 0.844806 0.000145
vt 0.844807 0.099450
vt 0.830012 0.000145
vt 0.844806 0.000145
vt 0.830012 0.099450
vt 0.844807 0.198754
vt 0.861166 0.099450
vt 0.861166 0.198754
vt 0.844807 0.099450
vt 0.861166 0.099450
vt 0.844807 0.198754
vt 0.830012 0.198754
vt 0.844807 0.099450
vt 0.844807 0.198754
vt 0.830012 0.099450
vt 0.844807 0.099450
vt 0.830012 0.198754
vt 0.844807 0.298058
vt 0.861166 0.198754
vt 0.861166 0.283329
vt 0.844807 0.198754
vt 0.861166 0.198754
vt 0.844807 0.298058
vt 0.830012 0.298058
vt 0.844807 0.198754
vt 0.844807 0.298058
vt 0.830012 0.198754
vt 0.844807 0.198754
vt 0.830012 0.298058
vt 0.867214 0.737252
vt 0.847830 0.807601
vt 0.847830 0.737252
vt 0.867214 0.797167
vt 0.847830 0.807601
vt 0.867214 0.737252
vt 0.867214 0.666902
vt 0.847830 0.737252
vt 0.847830 0.666902
vt 0.867214 0.737252
vt 0.847830 0.737252
vt 0.867214 0.666902
vt 0.833036 0.737252
vt 0.813652 0.797167
vt 0.813652 0.737252
vt 0.833036 0.807601
vt 0.813652 0.797167
vt 0.833036 0.737252
vt 0.847830 0.737252
vt 0.833036 0.807601
vt 0.833036 0.737252
vt 0.847830 0.807601
vt 0.833036 0.807601
vt 0.847830 0.737252
vt 0.833036 0.666902
vt 0.813652 0.737252
vt 0.813652 0.666902
vt 0.833036 0.737252
vt 0.813652 0.737252
vt 0.833036 0.666902
vt 0.847830 0.666902
vt 0.833036 0.737252
vt 0.833036 0.666902
vt 0.847830 0.737252
vt 0.833036 0.737252
vt 0.847830 0.666902
vt 0.833036 0.596552
vt 0.813652 0.666902
vt 0.813652 0.606987
vt 0.833036 0.666902
vt 0.813652 0.666902
vt 0.833036 0.596552
vt 0.847830 0.596552
vt 0.833036 0.666902
vt 0.833036 0.596552
vt 0.847830 0.666902
vt 0.833036 0.666902
vt 0.847830 0.596552
vt 0.861457 0.070495
vt 0.880841 0.000145
vt 0.880841 0.070495
vt 0.861457 0.010580
vt 0.880841 0.000145
vt 0.861457 0.070495
vt 0.861457 0.140845
vt 0.880841 0.070495
vt 0.880841 0.140845
vt 0.861457 0.070495
vt 0.880841 0.070495
vt 0.861457 0.140845
vt 0.895635 0.070495
vt 0.915019 0.010580
vt 0.915019 0.070495
vt 0.895635 0.000146
vt 0.915019 0.010580
vt 0.895635 0.070495
vt 0.880841 0.070495
vt 0.895635 0.000146
vt 0.895635 0.070495
vt 0.880841 0.000145
vt 0.895635 0.000146
vt 0.880841 0.070495
vt 0.895635 0.140845
vt 0.915019 0.070495
vt 0.915019 0.140845
vt 0.895635 0.070495
vt 0.915019 0.070495
vt 0.895635 0.140845
vt 0.880841 0.140845
vt 0.895635 0.070495
vt 0.895635 0.140845
vt 0.880841 0.070495
vt 0.895635 0.070495
vt 0.880841 0.140845
vt 0.895635 0.211194
vt 0.915019 0.140845
vt 0.915018 0.200760
vt 0.895635 0.140845
vt 0.915019 0.140845
vt 0.895635 0.211194
vt 0.880841 0.211194
vt 0.895635 0.140845
vt 0.895635 0.211194
vt 0.880841 0.140845
vt 0.895635 0.140845
vt 0.880841 0.211194
vt 0.861166 0.496957
vt 0.844807 0.596262
vt 0.844807 0.496957
vt 0.861166 0.581532
vt 0.844807 0.596262
vt 0.861166 0.496957
vt 0.861166 0.397653
vt 0.844807 0.496957
vt 0.844807 0.397653
vt 0.861166 0.496957
vt 0.844807 0.496957
vt 0.861166 0.397653
vt 0.830012 0.496957
vt 0.813653 0.581532
vt 0.813652 0.492048
vt 0.830012 0.596262
vt 0.813653 0.581532
vt 0.830012 0.496957
vt 0.844807 0.496957
vt 0.830012 0.596262
vt 0.830012 0.496957
vt 0.844807 0.596262
vt 0.830012 0.596262
vt 0.844807 0.496957
vt 0.830012 0.397653
vt 0.813652 0.492048
vt 0.813652 0.402563
vt 0.830012 0.496957
vt 0.813652 0.492048
vt 0.830012 0.397653
vt 0.844807 0.397653
vt 0.830012 0.496957
vt 0.830012 0.397653
vt 0.844807 0.496957
vt 0.830012 0.496957
vt 0.844807 0.397653
vt 0.830012 0.298349
vt 0.813652 0.402563
vt 0.813652 0.313078
vt 0.830012 0.397653
vt 0.813652 0.402563
vt 0.830012 0.298349
vt 0.844807 0.298349
vt 0.830012 0.397653
vt 0.830012 0.298349
vt 0.844807 0.397653
vt 0.830012 0.397653
vt 0.844807 0.298349
vt 0.007639 0.720338
vt 0.067554 0.720338
vt 0.048256 0.783204
vt 0.000146 0.909749
vt 0.048256 0.783204
vt 0.048256 0.936989
vt 0.000146 0.810444
vt 0.048256 0.783204
vt 0.000146 0.909749
vt 0.137903 0.720338
vt 0.197818 0.720338
vt 0.157201 0.783204
vt 0.048256 0.783204
vt 0.137903 0.720338
vt 0.157201 0.783204
vt 0.067554 0.720338
vt 0.137903 0.720338
vt 0.048256 0.783204
vt 0.157201 0.936989
vt 0.205311 0.810444
vt 0.205311 0.909748
vt 0.157201 0.783204
vt 0.205311 0.810444
vt 0.157201 0.936989
vt 0.048256 0.936989
vt 0.157201 0.783204
vt 0.157201 0.936989
vt 0.048256 0.783204
vt 0.157201 0.783204
vt 0.048256 0.936989
vt 0.157201 0.936989
vt 0.205311 0.909748
vt 0.205311 0.994323
vt 0.067554 0.999855
vt 0.157201 0.936989
vt 0.137903 0.999855
vt 0.048256 0.936989
vt 0.157201 0.936989
vt 0.067554 0.999855
vt 0.048256 0.936989
vt 0.000146 0.994323
vt 0.000146 0.909749
vt 0.137903 0.999855
vt 0.157201 0.936989
vt 0.197818 0.999855
vt 0.000146 0.810444
vt 0.000146 0.725870
vt 0.048256 0.783204
vt 0.205311 0.810444
vt 0.157201 0.783204
vt 0.205311 0.725870
vt 0.453412 0.000145
vt 0.436749 0.720045
vt 0.453412 0.720045
vt 0.436747 0.000145
vt 0.436749 0.720045
vt 0.453412 0.000145
vt 0.423416 0.000146
vt 0.406756 0.720045
vt 0.423418 0.720045
vt 0.406751 0.000146
vt 0.406756 0.720045
vt 0.423416 0.000146
vt 0.436747 0.000145
vt 0.423418 0.720045
vt 0.436749 0.720045
vt 0.423416 0.000146
vt 0.423418 0.720045
vt 0.436747 0.000145
vt 0.292421 0.344856
vt 0.438004 0.266645
vt 0.438004 0.344856
vt 0.292421 0.266645
vt 0.438004 0.266645
vt 0.292421 0.344856
vt 0.146839 0.344856
vt 0.292421 0.266645
vt 0.292421 0.344856
vt 0.146839 0.266645
vt 0.292421 0.266645
vt 0.146839 0.344856
vt 0.001256 0.344856
vt 0.146839 0.266645
vt 0.146839 0.344856
vt 0.001256 0.266645
vt 0.146839 0.266645
vt 0.001256 0.344856
vt 0.438004 0.344856
vt 0.583586 0.266645
vt 0.583586 0.344856
vt 0.438004 0.266645
vt 0.583586 0.266645
vt 0.438004 0.344856
vt 0.175544 0.095161
vt 0.263716 0.183333
vt 0.175544 0.183333
vt 0.263716 0.095161
vt 0.263716 0.183333
vt 0.175544 0.095161
vt 0.438004 0.266645
vt 0.554881 0.183333
vt 0.583586 0.266645
vt 0.466709 0.183333
vt 0.554881 0.183333
vt 0.438004 0.266645
vt 0.001256 0.266645
vt 0.118134 0.183333
vt 0.146839 0.266645
vt 0.029961 0.183333
vt 0.118134 0.183333
vt 0.001256 0.266645
vt 0.146839 0.266645
vt 0.263716 0.183333
vt 0.292421 0.266645
vt 0.175544 0.183333
vt 0.263716 0.183333
vt 0.146839 0.266645
vt 0.292421 0.266645
vt 0.409298 0.183333
vt 0.438004 0.266645
vt 0.321127 0.183333
vt 0.409298 0.183333
vt 0.292421 0.266645
vt 0.292421 0.344856
vt 0.438004 0.266646
vt 0.292421 0.266645
vt 0.438004 0.344856
vt 0.438004 0.266646
vt 0.292421 0.344856
vt 0.146839 0.344856
vt 0.292421 0.266645
vt 0.146839 0.266645
vt 0.292421 0.344856
vt 0.292421 0.266645
vt 0.146839 0.344856
vt 0.001256 0.344856
vt 0.146839 0.266645
vt 0.001256 0.266645
vt 0.146839 0.344856
vt 0.146839 0.266645
vt 0.001256 0.344856
vt 0.438004 0.344856
vt 0.583586 0.266646
vt 0.438004 0.266646
vt 0.583586 0.344856
vt 0.583586 0.266646
vt 0.438004 0.344856
vt 0.175544 0.095161
vt 0.263716 0.183333
vt 0.263716 0.095161
vt 0.175544 0.183333
vt 0.263716 0.183333
vt 0.175544 0.095161
vt 0.438004 0.266646
vt 0.554881 0.183333
vt 0.466709 0.183333
vt 0.583586 0.266646
vt 0.554881 0.183333
vt 0.438004 0.266646
vt 0.001256 0.266645
vt 0.118133 0.183333
vt 0.029961 0.183333
vt 0.146839 0.266645
vt 0.118133 0.183333
vt 0.001256 0.266645
vt 0.146839 0.266645
vt 0.263716 0.183333
vt 0.175544 0.183333
vt 0.292421 0.266645
vt 0.263716 0.183333
vt 0.146839 0.266645
vt 0.292421 0.266645
vt 0.409299 0.183333
vt 0.321127 0.183333
vt 0.438004 0.266646
vt 0.409299 0.183333
vt 0.292421 0.266645
vt 0.292421 0.344856
vt 0.438004 0.266645
vt 0.292421 0.266645
vt 0.438004 0.344856
vt 0.438004 0.266645
vt 0.292421 0.344856
vt 0.146839 0.344856
vt 0.292421 0.266645
vt 0.146839 0.266645
vt 0.292421 0.344856
vt 0.292421 0.266645
vt 0.146839 0.344856
vt 0.001256 0.344856
vt 0.146839 0.266645
vt 0.001256 0.266645
vt 0.146839 0.344856
vt 0.146839 0.266645
vt 0.001256 0.344856
vt 0.438004 0.344856
vt 0.583586 0.266645
vt 0.438004 0.266645
vt 0.583586 0.344856
vt 0.583586 0.266645
vt 0.438004 0.344856
vt 0.175544 0.095161
vt 0.263716 0.183333
vt 0.263716 0.095161
vt 0.175544 0.183333
vt 0.263716 0.183333
vt 0.175544 0.095161
vt 0.438004 0.266645
vt 0.554881 0.183333
vt 0.466709 0.183333
vt 0.583586 0.266645
vt 0.554881 0.183333
vt 0.438004 0.266645
vt 0.001256 0.266645
vt 0.118134 0.183333
vt 0.029961 0.183333
vt 0.146839 0.266645
vt 0.118134 0.183333
vt 0.001256 0.266645
vt 0.146839 0.266645
vt 0.263716 0.183333
vt 0.175544 0.183333
vt 0.292421 0.266645
vt 0.263716 0.183333
vt 0.146839 0.266645
vt 0.292421 0.266645
vt 0.409298 0.183333
vt 0.321127 0.183333
vt 0.438004 0.266645
vt 0.409298 0.183333
vt 0.292421 0.266645
vt 0.292421 0.344856
vt 0.438004 0.266646
vt 0.438004 0.344856
vt 0.292421 0.266645
vt 0.438004 0.266646
vt 0.292421 0.344856
vt 0.146839 0.344856
vt 0.292421 0.266645
vt 0.292421 0.344856
vt 0.146839 0.266645
vt 0.292421 0.266645
vt 0.146839 0.344856
vt 0.001256 0.344856
vt 0.146839 0.266645
vt 0.146839 0.344856
vt 0.001256 0.266645
vt 0.146839 0.266645
vt 0.001256 0.344856
vt 0.438004 0.344856
vt 0.583586 0.266646
vt 0.583586 0.344856
vt 0.438004 0.266646
vt 0.583586 0.266646
vt 0.438004 0.344856
vt 0.175544 0.095161
vt 0.263716 0.183333
vt 0.175544 0.183333
vt 0.263716 0.095161
vt 0.263716 0.183333
vt 0.175544 0.095161
vt 0.438004 0.266646
vt 0.554881 0.183333
vt 0.583586 0.266646
vt 0.466709 0.183333
vt 0.554881 0.183333
vt 0.438004 0.266646
vt 0.001256 0.266645
vt 0.118133 0.183333
vt 0.146839 0.266645
vt 0.029961 0.183333
vt 0.118133 0.183333
vt 0.001256 0.266645
vt 0.146839 0.266645
vt 0.263716 0.183333
vt 0.292421 0.266645
vt 0.175544 0.183333
vt 0.263716 0.183333
vt 0.146839 0.266645
vt 0.292421 0.266645
vt 0.409299 0.183333
vt 0.438004 0.266646
vt 0.321127 0.183333
vt 0.409299 0.183333
vt 0.292421 0.266645

vn -0.000000 1.000000 0.000000
vn -0.000000 1.000000 0.000000
vn -0.000000 1.000000 0.000000
vn -0.000000 1.000000 0.000000
vn -0.000000 1.000000 0.000000
vn -0.000000 1.000000 0.000000
vn 1.000000 0.000000 -0.000001
vn 1.000000 0.000000 -0.000001
vn 1.000000 0.000000 -0.000001
vn 1.000000 0.000000 -0.000001
vn 1.000000 0.000000 -0.000001
vn 1.000000 0.000000 -0.000001
vn -0.000000 -1.000000 0.000000
vn -0.000000 -1.000000 0.000000
vn -0.000000 -1.000000 0.000000
vn -0.000000 -1.000000 0.000000
vn -0.000000 -1.000000 0.000000
vn -0.000000 -1.000000 0.000000
vn -1.000000 0.000000 0.000001
vn -1.000000 0.000000 0.000001
vn -1.000000 0.000000 0.000001
vn -1.000000 0.000000 0.000001
vn -1.000000 0.000000 0.000001
vn -1.000000 0.000000 0.000001
vn 0.000001 0.000000 1.000000
vn 0.000001 0.000000 1.000000
vn 0.000001 0.000000 1.000000
vn 0.000001 0.000000 1.000000
vn 0.000001 0.000000 1.000000
vn 0.000001 0.000000 1.000000
vn -0.000000 -1.000000 0.000000
vn -0.000000 -1.000000 0.000000
vn -0.000000 -1.000000 0.000000
vn -0.000000 -1.000000 0.000000
vn -0.000000 -1.000000 0.000000
vn -0.000000 -1.000000 0.000000
vn -0.000000 1.000000 0.000000
vn -0.000000 1.000000 0.000000
vn -0.000000 1.000000 0.000000
vn -0.000000 1.000000 0.000000
vn -0.000000 1.000000 0.000000
vn -0.000000 1.000000 0.000000
vn 1.000000 0.000000 -0.000001
vn 1.000000 0.000000 -0.000001
vn 1.000000 0.000000 -0.000001
vn 1.000000 0.000000 -0.000001
vn 1.000000 0.000000 -0.000001
vn 1.000000 0.000000 -0.000001
vn -0.000001 0.000000 -1.000000
vn -0.000001 0.000000 -1.000000
vn -0.000001 0.000000 -1.000000
vn -0.000001 0.000000 -1.000000
vn -0.000001 0.000000 -1.000000
vn -0.000001 0.000000 -1.000000
vn 0.000001 1.000000 0.000000
vn 0.000001 1.000000 0.000000
vn 0.000001 1.000000 0.000000
vn -0.000001 1.000000 0.000000
vn -0.000001 1.000000 0.000000
vn -0.000001 1.000000 0.000000
vn 0.000000 -1.000000 0.000000
vn 0.000000 -1.000000 0.000000
vn 0.000000 -1.000000 0.000000
vn -0.000000 -1.000000 0.000000
vn -0.000000 -1.000000 0.000000
vn -0.000000 -1.000000 0.000000
vn -0.000001 0.000000 -1.000000
vn -0.000001 0.000000 -1.000000
vn -0.000001 0.000000 -1.000000
vn -0.000001 0.000000 -1.000000
vn -0.000001 0.000000 -1.000000
vn -0.000001 0.000000 -1.000000
vn -1.000000 0.000000 0.000000
vn -1.000000 0.000000 0.000000
vn -1.000000 0.000000 0.000000
vn -1.000000 0.000000 0.000001
vn -1.000000 0.000000 0.000001
vn -1.000000 0.000000 0.000001
vn 1.000000 0.000000 -0.000001
vn 1.000000 0.000000 -0.000001
vn 1.000000 0.000000 -0.000001
vn 1.000000 0.000000 -0.000001
vn 1.000000 0.000000 -0.000001
vn 1.000000 0.000000 -0.000001
vn 0.000001 0.000000 1.000000
vn 0.000001 0.000000 1.000000
vn 0.000001 0.000000 1.000000
vn 0.000001 0.000000 1.000000
vn 0.000001 0.000000 1.000000
vn 0.000001 0.000000 1.000000
vn 0.000001 0.000000 1.000000
vn 0.000001 0.000000 1.000000
vn 0.000001 0.000000 1.000000
vn 0.000001 0.000000 1.000000
vn 0.000001 0.000000 1.000000
vn 0.000001 0.000000 1.000000
vn 1.000000 0.000000 -0.000000
vn 1.000000 0.000000 -0.000000
vn 1.000000 0.000000 -0.000000
vn 1.000000 0.000000 -0.000001
vn 1.000000 0.000000 -0.000001
vn 1.000000 0.000000 -0.000001
vn -0.000000 -1.000000 0.000000
vn -0.000000 -1.000000 0.000000
vn -0.000000 -1.000000 0.000000
vn -0.000000 -1.000000 0.000000
vn -0.000000 -1.000000 0.000000
vn -0.000000 -1.000000 0.000000
vn 0.000000 1.000000 0.000000
vn 0.000000 1.000000 0.000000
vn 0.000000 1.000000 0.000000
vn -0.000000 1.000000 0.000000
vn -0.000000 1.000000 0.000000
vn -0.000000 1.000000 0.000000
vn -0.000000 -1.000000 0.000000
vn -0.000000 -1.000000 0.000000
vn -0.000000 -1.000000 0.000000
vn -0.000000 -1.000000 0.000000
vn -0.000000 -1.000000 0.000000
vn -0.000000 -1.000000 0.000000
vn -0.000000 1.000000 0.000000
vn -0.000000 1.000000 0.000000
vn -0.000000 1.000000 0.000000
vn -0.000000 1.000000 0.000000
vn -0.000000 1.000000 0.000000
vn -0.000000 1.000000 0.000000
vn -0.000001 0.000000 -1.000000
vn -0.000001 0.000000 -1.000000
vn -0.000001 0.000000 -1.000000
vn -0.000001 0.000000 -1.000000
vn -0.000001 0.000000 -1.000000
vn -0.000001 0.000000 -1.000000
vn 0.000001 0.000000 1.000000
vn 0.000001 0.000000 1.000000
vn 0.000001 0.000000 1.000000
vn 0.000001 0.000000 1.000000
vn 0.000001 0.000000 1.000000
vn 0.000001 0.000000 1.000000
vn -0.000001 0.000000 -1.000000
vn -0.000001 0.000000 -1.000000
vn -0.000001 0.000000 -1.000000
vn -0.000001 0.000000 -1.000000
vn -0.000001 0.000000 -1.000000
vn -0.000001 0.000000 -1.000000
vn -0.000000 1.000000 0.000000
vn -0.000000 1.000000 0.000000
vn -0.000000 1.000000 0.000000
vn -0.000000 1.000000 0.000000
vn -0.000000 1.000000 0.000000
vn -0.000000 1.000000 0.000000
vn -0.000000 -1.000000 0.000000
vn -0.000000 -1.000000 0.000000
vn -0.000000 -1.000000 0.000000
vn -0.000000 -1.000000 0.000000
vn -0.000000 -1.000000 0.000000
vn -0.000000 -1.000000 0.000000
vn -0.000001 0.000000 -1.000000
vn -0.000001 0.000000 -1.000000
vn -0.000001 0.000000 -1.000000
vn -0.000001 0.000000 -1.000000
vn -0.000001 0.000000 -1.000000
vn -0.000001 0.000000 -1.000000
vn 1.000000 0.000000 -0.000001
vn 1.000000 0.000000 -0.000001
vn 1.000000 0.000000 -0.000001
vn 1.000000 0.000000 -0.000001
vn 1.000000 0.000000 -0.000001
vn 1.000000 0.000000 -0.000001
vn 0.000001 0.000000 1.000000
vn 0.000001 0.000000 1.000000
vn 0.000001 0.000000 1.000000
vn 0.000001 0.000000 1.000000
vn 0.000001 0.000000 1.000000
vn 0.000001 0.000000 1.000000
vn -1.000000 0.000000 0.000001
vn -1.000000 0.000000 0.000001
vn -1.000000 0.000000 0.000001
vn -1.000000 0.000000 0.000000
vn -1.000000 0.000000 0.000000
vn -1.000000 0.000000 0.000000
vn -1.000000 0.000000 0.000001
vn -1.000000 0.000000 0.000001
vn -1.000000 0.000000 0.000001
vn -1.000000 0.000000 0.000001
vn -1.000000 0.000000 0.000001
vn -1.000000 0.000000 0.000001
vn -0.000001 0.000000 -1.000000
vn -0.000001 0.000000 -1.000000
vn -0.000001 0.000000 -1.000000
vn -0.000001 0.000000 -1.000000
vn -0.000001 0.000000 -1.000000
vn -0.000001 0.000000 -1.000000
vn 1.000000 0.000000 -0.000001
vn 1.000000 0.000000 -0.000001
vn 1.000000 0.000000 -0.000001
vn 1.000000 0.000000 -0.000001
vn 1.000000 0.000000 -0.000001
vn 1.000000 0.000000 -0.000001
vn 0.000001 0.000000 1.000000
vn 0.000001 0.000000 1.000000
vn 0.000001 0.000000 1.000000
vn 0.000001 0.000000 1.000000
vn 0.000001 0.000000 1.000000
vn 0.000001 0.000000 1.000000
vn 0.000000 -1.000000 0.000000
vn 0.000000 -1.000000 0.000000
vn 0.000000 -1.000000 0.000000
vn -0.000000 -1.000000 0.000000
vn -0.000000 -1.000000 0.000000
vn -0.000000 -1.000000 0.000000
vn 0.000000 1.000000 0.000000
vn 0.000000 1.000000 0.000000
vn 0.000000 1.000000 0.000000
vn -0.000000 1.000000 0.000000
vn -0.000000 1.000000 0.000000
vn -0.000000 1.000000 0.000000
vn -0.000000 1.000000 0.000000
vn -0.000000 1.000000 0.000000
vn -0.000000 1.000000 0.000000
vn -0.000000 1.000000 0.000000
vn -0.000000 1.000000 0.000000
vn -0.000000 1.000000 0.000000
vn 0.800000 0.600000 -0.000001
vn 0.800000 0.600000 -0.000001
vn 0.800000 0.600000 -0.000001
vn 0.800000 0.600000 -0.000001
vn 0.800000 0.600000 -0.000001
vn 0.800000 0.600000 -0.000001
vn 0.800000 -0.600000 -0.000001
vn 0.800000 -0.600000 -0.000001
vn 0.800000 -0.600000 -0.000001
vn 0.800000 -0.600000 -0.000001
vn 0.800000 -0.600000 -0.000001
vn 0.800000 -0.600000 -0.000001
vn 1.000000 0.000000 -0.000001
vn 1.000000 0.000000 -0.000001
vn 1.000000 0.000000 -0.000001
vn 1.000000 0.000000 -0.000001
vn 1.000000 0.000000 -0.000001
vn 1.000000 0.000000 -0.000001
vn 0.410156 0.912015 -0.000000
vn 0.410156 0.912015 -0.000000
vn 0.410156 0.912015 -0.000000
vn 0.000001 0.637825 0.770181
vn 0.000001 0.637825 0.770181
vn 0.000001 0.637825 0.770181
vn 0.000000 0.637824 0.770182
vn 0.000000 0.637824 0.770182
vn 0.000000 0.637824 0.770182
vn -0.650040 0.759900 0.000000
vn -0.650040 0.759900 0.000000
vn -0.650040 0.759900 0.000000
vn -0.650041 0.759899 0.000001
vn -0.650041 0.759899 0.000001
vn -0.650041 0.759899 0.000001
vn 0.650041 0.759899 -0.000000
vn 0.650041 0.759899 -0.000000
vn 0.650041 0.759899 -0.000000
vn 0.650040 0.759900 -0.000001
vn 0.650040 0.759900 -0.000001
vn 0.650040 0.759900 -0.000001
vn -0.000000 0.637826 -0.770181
vn -0.000000 0.637826 -0.770181
vn -0.000000 0.637826 -0.770181
vn -0.000001 0.637827 -0.770180
vn -0.000001 0.637827 -0.770180
vn -0.000001 0.637827 -0.770180
vn -0.000000 0.637827 -0.770180
vn -0.000000 0.637827 -0.770180
vn -0.000000 0.637827 -0.770180
vn -0.000001 0.637827 -0.770180
vn -0.000001 0.637827 -0.770180
vn -0.000001 0.637827 -0.770180
vn -0.000001 0.637827 -0.770180
vn -0.000001 0.637827 -0.770180
vn -0.000001 0.637827 -0.770180
vn -0.000001 0.637826 -0.770181
vn -0.000001 0.637826 -0.770181
vn -0.000001 0.637826 -0.770181
vn -0.000001 -0.637827 -0.770179
vn -0.000001 -0.637827 -0.770179
vn -0.000001 -0.637827 -0.770179
vn -0.000000 -0.637828 -0.770179
vn -0.000000 -0.637828 -0.770179
vn -0.000000 -0.637828 -0.770179
vn -0.000001 0.000000 -1.000000
vn -0.000001 0.000000 -1.000000
vn -0.000001 0.000000 -1.000000
vn -0.000001 0.000000 -1.000000
vn -0.000001 0.000000 -1.000000
vn -0.000001 0.000000 -1.000000
vn -0.000001 -0.637827 -0.770180
vn -0.000001 -0.637827 -0.770180
vn -0.000001 -0.637827 -0.770180
vn -0.000001 -0.637828 -0.770179
vn -0.000001 -0.637828 -0.770179
vn -0.000001 -0.637828 -0.770179
vn -0.000001 0.000000 -1.000000
vn -0.000001 0.000000 -1.000000
vn -0.000001 0.000000 -1.000000
vn -0.000001 0.000000 -1.000000
vn -0.000001 0.000000 -1.000000
vn -0.000001 0.000000 -1.000000
vn -0.000001 -0.637825 -0.770181
vn -0.000001 -0.637825 -0.770181
vn -0.000001 -0.637825 -0.770181
vn -0.000000 -0.637827 -0.770180
vn -0.000000 -0.637827 -0.770180
vn -0.000000 -0.637827 -0.770180
vn -0.000001 0.000000 -1.000000
vn -0.000001 0.000000 -1.000000
vn -0.000001 0.000000 -1.000000
vn -0.000001 0.000000 -1.000000
vn -0.000001 0.000000 -1.000000
vn -0.000001 0.000000 -1.000000
vn 0.650041 0.759899 -0.000000
vn 0.650041 0.759899 -0.000000
vn 0.650041 0.759899 -0.000000
vn 0.650041 0.759899 -0.000001
vn 0.650041 0.759899 -0.000001
vn 0.650041 0.759899 -0.000001
vn 0.650042 0.759898 -0.000000
vn 0.650042 0.759898 -0.000000
vn 0.650042 0.759898 -0.000000
vn 0.650041 0.759899 -0.000000
vn 0.650041 0.759899 -0.000000
vn 0.650041 0.759899 -0.000000
vn 0.650040 -0.759900 -0.000001
vn 0.650040 -0.759900 -0.000001
vn 0.650040 -0.759900 -0.000001
vn 0.650041 -0.759899 -0.000000
vn 0.650041 -0.759899 -0.000000
vn 0.650041 -0.759899 -0.000000
vn 1.000000 0.000000 -0.000001
vn 1.000000 0.000000 -0.000001
vn 1.000000 0.000000 -0.000001
vn 1.000000 0.000000 -0.000001
vn 1.000000 0.000000 -0.000001
vn 1.000000 0.000000 -0.000001
vn 0.650041 -0.759899 -0.000000
vn 0.650041 -0.759899 -0.000000
vn 0.650041 -0.759899 -0.000000
vn 0.650040 -0.759900 -0.000000
vn 0.650040 -0.759900 -0.000000
vn 0.650040 -0.759900 -0.000000
vn 1.000000 0.000000 -0.000001
vn 1.000000 0.000000 -0.000001
vn 1.000000 0.000000 -0.000001
vn 1.000000 0.000000 -0.000001
vn 1.000000 0.000000 -0.000001
vn 1.000000 0.000000 -0.000001
vn 0.650041 -0.759899 -0.000001
vn 0.650041 -0.759899 -0.000001
vn 0.650041 -0.759899 -0.000001
vn 0.650040 -0.759900 -0.000000
vn 0.650040 -0.759900 -0.000000
vn 0.650040 -0.759900 -0.000000
vn 1.000000 0.000000 -0.000001
vn 1.000000 0.000000 -0.000001
vn 1.000000 0.000000 -0.000001
vn 1.000000 0.000000 -0.000001
vn 1.000000 0.000000 -0.000001
vn 1.000000 0.000000 -0.000001
vn -0.650042 0.759899 0.000001
vn -0.650042 0.759899 0.000001
vn -0.650042 0.759899 0.000001
vn -0.650040 0.759900 0.000001
vn -0.650040 0.759900 0.000001
vn -0.650040 0.759900 0.000001
vn -0.650041 0.759899 0.000000
vn -0.650041 0.759899 0.000000
vn -0.650041 0.759899 0.000000
vn -0.650041 0.759899 0.000000
vn -0.650041 0.759899 0.000000
vn -0.650041 0.759899 0.000000
vn -0.650041 -0.759899 0.000001
vn -0.650041 -0.759899 0.000001
vn -0.650041 -0.759899 0.000001
vn -0.650041 -0.759899 0.000000
vn -0.650041 -0.759899 0.000000
vn -0.650041 -0.759899 0.000000
vn -1.000000 0.000000 0.000001
vn -1.000000 0.000000 0.000001
vn -1.000000 0.000000 0.000001
vn -1.000000 0.000000 0.000001
vn -1.000000 0.000000 0.000001
vn -1.000000 0.000000 0.000001
vn -0.650040 -0.759900 0.000000
vn -0.650040 -0.759900 0.000000
vn -0.650040 -0.759900 0.000000
vn -0.650040 -0.759900 0.000000
vn -0.650040 -0.759900 0.000000
vn -0.650040 -0.759900 0.000000
vn -1.000000 0.000000 0.000001
vn -1.000000 0.000000 0.000001
vn -1.000000 0.000000 0.000001
vn -1.000000 0.000000 0.000001
vn -1.000000 0.000000 0.000001
vn -1.000000 0.000000 0.000001
vn -0.650041 -0.759900 0.000001
vn -0.650041 -0.759900 0.000001
vn -0.650041 -0.759900 0.000001
vn -0.650040 -0.759900 0.000001
vn -0.650040 -0.759900 0.000001
vn -0.650040 -0.759900 0.000001
vn -1.000000 0.000000 0.000001
vn -1.000000 0.000000 0.000001
vn -1.000000 0.000000 0.000001
vn -1.000000 0.000000 0.000001
vn -1.000000 0.000000 0.000001
vn -1.000000 0.000000 0.000001
vn 0.000001 0.637827 0.770180
vn 0.000001 0.637827 0.770180
vn 0.000001 0.637827 0.770180
vn 0.000000 0.637825 0.770181
vn 0.000000 0.637825 0.770181
vn 0.000000 0.637825 0.770181
vn 0.000000 0.637827 0.770180
vn 0.000000 0.637827 0.770180
vn 0.000000 0.637827 0.770180
vn 0.000000 0.637825 0.770181
vn 0.000000 0.637825 0.770181
vn 0.000000 0.637825 0.770181
vn 0.000000 -0.637827 0.770180
vn 0.000000 -0.637827 0.770180
vn 0.000000 -0.637827 0.770180
vn 0.000001 -0.637827 0.770180
vn 0.000001 -0.637827 0.770180
vn 0.000001 -0.637827 0.770180
vn 0.000001 0.000000 1.000000
vn 0.000001 0.000000 1.000000
vn 0.000001 0.000000 1.000000
vn 0.000001 0.000000 1.000000
vn 0.000001 0.000000 1.000000
vn 0.000001 0.000000 1.000000
vn 0.000000 -0.637825 0.770181
vn 0.000000 -0.637825 0.770181
vn 0.000000 -0.637825 0.770181
vn 0.000000 -0.637828 0.770179
vn 0.000000 -0.637828 0.770179
vn 0.000000 -0.637828 0.770179
vn 0.000000 0.000000 1.000000
vn 0.000000 0.000000 1.000000
vn 0.000000 0.000000 1.000000
vn 0.000000 0.000000 1.000000
vn 0.000000 0.000000 1.000000
vn 0.000000 0.000000 1.000000
vn 0.000000 -0.637825 0.770182
vn 0.000000 -0.637825 0.770182
vn 0.000000 -0.637825 0.770182
vn 0.000001 -0.637824 0.770182
vn 0.000001 -0.637824 0.770182
vn 0.000001 -0.637824 0.770182
vn 0.000001 0.000000 1.000000
vn 0.000001 0.000000 1.000000
vn 0.000001 0.000000 1.000000
vn 0.000001 0.000000 1.000000
vn 0.000001 0.000000 1.000000
vn 0.000001 0.000000 1.000000
vn -0.410156 0.912015 0.000000
vn -0.410156 0.912015 0.000000
vn -0.410156 0.912015 0.000000
vn -0.000000 0.844250 -0.535949
vn -0.000000 0.844250 -0.535949
vn -0.000000 0.844250 -0.535949
vn -0.000000 0.844250 -0.535949
vn -0.000000 0.844250 -0.535949
vn -0.000000 0.844250 -0.535949
vn -0.410156 0.912015 0.000000
vn -0.410156 0.912015 0.000000
vn -0.410156 0.912015 0.000000
vn -0.410156 0.912015 0.000000
vn -0.410156 0.912015 0.000000
vn -0.410156 0.912015 0.000000
vn -0.410156 0.912015 0.000000
vn -0.410156 0.912015 0.000000
vn -0.410156 0.912015 0.000000
vn 0.000000 0.844250 0.535949
vn 0.000000 0.844250 0.535949
vn 0.000000 0.844250 0.535949
vn 0.000000 0.844250 0.535950
vn 0.000000 0.844250 0.535950
vn 0.000000 0.844250 0.535950
vn 0.000000 1.000000 0.000000
vn 0.000000 1.000000 0.000000
vn 0.000000 1.000000 0.000000
vn -0.000000 1.000000 0.000000
vn -0.000000 1.000000 0.000000
vn -0.000000 1.000000 0.000000
vn 0.000000 0.844250 0.535949
vn 0.000000 0.844250 0.535949
vn 0.000000 0.844250 0.535949
vn 0.410156 0.912015 -0.000000
vn 0.410156 0.912015 -0.000000
vn 0.410156 0.912015 -0.000000
vn 0.410156 0.912015 -0.000000
vn 0.410156 0.912015 -0.000000
vn 0.410156 0.912015 -0.000000
vn -0.000000 0.844250 -0.535949
vn -0.000000 0.844250 -0.535949
vn -0.000000 0.844250 -0.535949
vn 0.410156 0.912015 -0.000000
vn 0.410156 0.912015 -0.000000
vn 0.410156 0.912015 -0.000000
vn -0.000000 0.844250 -0.535949
vn -0.000000 0.844250 -0.535949
vn -0.000000 0.844250 -0.535949
vn 0.000000 0.844250 0.535949
vn 0.000000 0.844250 0.535949
vn 0.000000 0.844250 0.535949
vn -0.800000 0.600000 0.000001
vn -0.800000 0.600000 0.000001
vn -0.800000 0.600000 0.000001
vn -0.800000 0.600000 0.000001
vn -0.800000 0.600000 0.000001
vn -0.800000 0.600000 0.000001
vn -0.800000 -0.600000 0.000001
vn -0.800000 -0.600000 0.000001
vn -0.800000 -0.600000 0.000001
vn -0.800000 -0.600000 0.000001
vn -0.800000 -0.600000 0.000001
vn -0.800000 -0.600000 0.000001
vn -1.000000 0.000000 0.000001
vn -1.000000 0.000000 0.000001
vn -1.000000 0.000000 0.000001
vn -1.000000 0.000000 0.000001
vn -1.000000 0.000000 0.000001
vn -1.000000 0.000000 0.000001
vn 1.000000 0.000000 -0.000001
vn 1.000000 0.000000 -0.000001
vn 1.000000 0.000000 -0.000001
vn 1.000000 0.000000 0.000000
vn 1.000000 0.000000 0.000000
vn 1.000000 0.000000 0.000000
vn 0.000001 0.000000 1.000000
vn 0.000001 0.000000 1.000000
vn 0.000001 0.000000 1.000000
vn 0.000001 0.000000 1.000000
vn 0.000001 0.000000 1.000000
vn 0.000001 0.000000 1.000000
vn -1.000000 0.000000 0.000001
vn -1.000000 0.000000 0.000001
vn -1.000000 0.000000 0.000001
vn -1.000000 0.000000 0.000001
vn -1.000000 0.000000 0.000001
vn -1.000000 0.000000 0.000001
vn -0.000001 0.000000 -1.000000
vn -0.000001 0.000000 -1.000000
vn -0.000001 0.000000 -1.000000
vn -0.000001 0.000000 -1.000000
vn -0.000001 0.000000 -1.000000
vn -0.000001 0.000000 -1.000000
vn -0.000000 -1.000000 0.000000
vn -0.000000 -1.000000 0.000000
vn -0.000000 -1.000000 0.000000
vn -0.000000 -1.000000 0.000000
vn -0.000000 -1.000000 0.000000
vn -0.000000 -1.000000 0.000000
vn -0.000000 -0.344552 -0.938767
vn -0.000000 -0.344552 -0.938767
vn -0.000000 -0.344552 -0.938767
vn -0.000000 -0.344550 -0.938768
vn -0.000000 -0.344550 -0.938768
vn -0.000000 -0.344550 -0.938768
vn -0.938767 -0.344552 0.000002
vn -0.938767 -0.344552 0.000002
vn -0.938767 -0.344552 0.000002
vn -0.938767 -0.344552 0.000000
vn -0.938767 -0.344552 0.000000
vn -0.938767 -0.344552 0.000000
vn 0.000000 -0.344553 0.938767
vn 0.000000 -0.344553 0.938767
vn 0.000000 -0.344553 0.938767
vn -0.000000 -0.344551 0.938768
vn -0.000000 -0.344551 0.938768
vn -0.000000 -0.344551 0.938768
vn 0.938768 -0.344551 0.000000
vn 0.938768 -0.344551 0.000000
vn 0.938768 -0.344551 0.000000
vn 0.938767 -0.344554 0.000000
vn 0.938767 -0.344554 0.000000
vn 0.938767 -0.344554 0.000000
vn 1.000000 0.000000 0.000000
vn 1.000000 0.000000 0.000000
vn 1.000000 0.000000 0.000000
vn 1.000000 0.000000 -0.000001
vn 1.000000 0.000000 -0.000001
vn 1.000000 0.000000 -0.000001
vn -0.000001 0.000000 -1.000000
vn -0.000001 0.000000 -1.000000
vn -0.000001 0.000000 -1.000000
vn -0.000001 0.000000 -1.000000
vn -0.000001 0.000000 -1.000000
vn -0.000001 0.000000 -1.000000
vn -1.000000 0.000000 0.000001
vn -1.000000 0.000000 0.000001
vn -1.000000 0.000000 0.000001
vn -1.000000 0.000000 0.000001
vn -1.000000 0.000000 0.000001
vn -1.000000 0.000000 0.000001
vn 0.000001 0.000000 1.000000
vn 0.000001 0.000000 1.000000
vn 0.000001 0.000000 1.000000
vn 0.000001 0.000000 1.000000
vn 0.000001 0.000000 1.000000
vn 0.000001 0.000000 1.000000
vn -0.000000 -1.000000 0.000000
vn -0.000000 -1.000000 0.000000
vn -0.000000 -1.000000 0.000000
vn -0.000000 -1.000000 0.000000
vn -0.000000 -1.000000 0.000000
vn -0.000000 -1.000000 0.000000
vn -0.000000 -0.344553 0.938767
vn -0.000000 -0.344553 0.938767
vn -0.000000 -0.344553 0.938767
vn 0.000000 -0.344556 0.938766
vn 0.000000 -0.344556 0.938766
vn 0.000000 -0.344556 0.938766
vn -0.938767 -0.344552 0.000001
vn -0.938767 -0.344552 0.000001
vn -0.938767 -0.344552 0.000001
vn -0.938767 -0.344552 0.000000
vn -0.938767 -0.344552 0.000000
vn -0.938767 -0.344552 0.000000
vn -0.000000 -0.344548 -0.938769
vn -0.000000 -0.344548 -0.938769
vn -0.000000 -0.344548 -0.938769
vn -0.000000 -0.344550 -0.938768
vn -0.000000 -0.344550 -0.938768
vn -0.000000 -0.344550 -0.938768
vn 0.938768 -0.344551 0.000000
vn 0.938768 -0.344551 0.000000
vn 0.938768 -0.344551 0.000000
vn 0.938768 -0.344551 -0.000002
vn 0.938768 -0.344551 -0.000002
vn 0.938768 -0.344551 -0.000002
vn -1.000000 0.000000 0.000000
vn -1.000000 0.000000 0.000000
vn -1.000000 0.000000 0.000000
vn -1.000000 0.000000 0.000002
vn -1.000000 0.000000 0.000002
vn -1.000000 0.000000 0.000002
vn 0.000001 0.000000 1.000000
vn 0.000001 0.000000 1.000000
vn 0.000001 0.000000 1.000000
vn 0.000001 0.000000 1.000000
vn 0.000001 0.000000 1.000000
vn 0.000001 0.000000 1.000000
vn 1.000000 0.000000 -0.000001
vn 1.000000 0.000000 -0.000001
vn 1.000000 0.000000 -0.000001
vn 1.000000 0.000000 -0.000001
vn 1.000000 0.000000 -0.000001
vn 1.000000 0.000000 -0.000001
vn -0.000001 0.000000 -1.000000
vn -0.000001 0.000000 -1.000000
vn -0.000001 0.000000 -1.000000
vn -0.000001 0.000000 -1.000000
vn -0.000001 0.000000 -1.000000
vn -0.000001 0.000000 -1.000000
vn -0.000000 -1.000000 0.000000
vn -0.000000 -1.000000 0.000000
vn -0.000000 -1.000000 0.000000
vn -0.000000 -1.000000 0.000000
vn -0.000000 -1.000000 0.000000
vn -0.000000 -1.000000 0.000000
vn -0.000000 -0.344551 -0.938768
vn -0.000000 -0.344551 -0.938768
vn -0.000000 -0.344551 -0.938768
vn -0.000000 -0.344556 -0.938766
vn -0.000000 -0.344556 -0.938766
vn -0.000000 -0.344556 -0.938766
vn 0.938767 -0.344552 -0.000001
vn 0.938767 -0.344552 -0.000001
vn 0.938767 -0.344552 -0.000001
vn 0.938767 -0.344552 0.000000
vn 0.938767 -0.344552 0.000000
vn 0.938767 -0.344552 0.000000
vn -0.000000 -0.344551 0.938768
vn -0.000000 -0.344551 0.938768
vn -0.000000 -0.344551 0.938768
vn 0.000000 -0.344553 0.938767
vn 0.000000 -0.344553 0.938767
vn 0.000000 -0.344553 0.938767
vn -0.938768 -0.344551 0.000000
vn -0.938768 -0.344551 0.000000
vn -0.938768 -0.344551 0.000000
vn -0.938768 -0.344551 0.000002
vn -0.938768 -0.344551 0.000002
vn -0.938768 -0.344551 0.000002
vn -1.000000 0.000000 0.000001
vn -1.000000 0.000000 0.000001
vn -1.000000 0.000000 0.000001
vn -1.000000 0.000000 0.000000
vn -1.000000 0.000000 0.000000
vn -1.000000 0.000000 0.000000
vn -0.000001 0.000000 -1.000000
vn -0.000001 0.000000 -1.000000
vn -0.000001 0.000000 -1.000000
vn -0.000001 0.000000 -1.000000
vn -0.000001 0.000000 -1.000000
vn -0.000001 0.000000 -1.000000
vn 1.000000 0.000000 -0.000001
vn 1.000000 0.000000 -0.000001
vn 1.000000 0.000000 -0.000001
vn 1.000000 0.000000 -0.000001
vn 1.000000 0.000000 -0.000001
vn 1.000000 0.000000 -0.000001
vn 0.000001 0.000000 1.000000
vn 0.000001 0.000000 1.000000
vn 0.000001 0.000000 1.000000
vn 0.000001 0.000000 1.000000
vn 0.000001 0.000000 1.000000
vn 0.000001 0.000000 1.000000
vn -0.000000 -1.000000 0.000000
vn -0.000000 -1.000000 0.000000
vn -0.000000 -1.000000 0.000000
vn -0.000000 -1.000000 0.000000
vn -0.000000 -1.000000 0.000000
vn -0.000000 -1.000000 0.000000
vn 0.000000 -0.344551 0.938767
vn 0.000000 -0.344551 0.938767
vn 0.000000 -0.344551 0.938767
vn -0.000000 -0.344551 0.938768
vn -0.000000 -0.344551 0.938768
vn -0.000000 -0.344551 0.938768
vn 0.938767 -0.344553 -0.000002
vn 0.938767 -0.344553 -0.000002
vn 0.938767 -0.344553 -0.000002
vn 0.938767 -0.344552 0.000000
vn 0.938767 -0.344552 0.000000
vn 0.938767 -0.344552 0.000000
vn -0.000000 -0.344551 -0.938768
vn -0.000000 -0.344551 -0.938768
vn -0.000000 -0.344551 -0.938768
vn -0.000000 -0.344556 -0.938766
vn -0.000000 -0.344556 -0.938766
vn -0.000000 -0.344556 -0.938766
vn -0.938767 -0.344551 0.000000
vn -0.938767 -0.344551 0.000000
vn -0.938767 -0.344551 0.000000
vn -0.938767 -0.344554 0.000000
vn -0.938767 -0.344554 0.000000
vn -0.938767 -0.344554 0.000000

g wood
f 3/1/1 1/2/2 2/3/3
f 4/4/4 1/5/5 3/6/6
f 7/7/7 5/8/8 6/9/9
f 8/10/10 5/11/11 7/12/12
f 11/13/13 9/14/14 10/15/15
f 12/16/16 9/17/17 11/18/18
f 15/19/19 13/20/20 14/21/21
f 16/22/22 13/23/23 15/24/24
f 19/25/25 17/26/26 18/27/27
f 20/28/28 17/29/29 19/30/30
f 23/31/31 21/32/32 22/33/33
f 24/34/34 21/35/35 23/36/36
f 27/37/37 25/38/38 26/39/39
f 28/40/40 25/41/41 27/42/42
f 31/43/43 29/44/44 30/45/45
f 32/46/46 29/47/47 31/48/48
f 35/49/49 33/50/50 34/51/51
f 36/52/52 33/53/53 35/54/54
f 39/55/55 37/56/56 38/57/57
f 40/58/58 37/59/59 39/60/60
f 43/61/61 41/62/62 42/63/63
f 44/64/64 41/65/65 43/66/66
f 47/67/67 45/68/68 46/69/69
f 48/70/70 45/71/71 47/72/72
f 51/73/73 49/74/74 50/75/75
f 52/76/76 49/77/77 51/78/78
f 55/79/79 53/80/80 54/81/81
f 56/82/82 53/83/83 55/84/84
f 59/85/85 57/86/86 58/87/87
f 60/88/88 57/89/89 59/90/90
f 63/91/91 61/92/92 62/93/93
f 64/94/94 61/95/95 63/96/96
f 67/97/97 65/98/98 66/99/99
f 68/100/100 65/101/101 67/102/102
f 71/103/103 69/104/104 70/105/105
f 72/106/106 69/107/107 71/108/108
f 75/109/109 73/110/110 74/111/111
f 76/112/112 73/113/113 75/114/114
f 79/115/115 77/116/116 78/117/117
f 80/118/118 77/119/119 79/120/120
f 83/121/121 81/122/122 82/123/123
f 84/124/124 81/125/125 83/126/126
f 87/127/127 85/128/128 86/129/129
f 88/130/130 85/131/131 87/132/132
f 91/133/133 89/134/134 90/135/135
f 92/136/136 89/137/137 91/138/138
f 111/139/139 109/140/140 110/141/141
f 112/142/142 109/143/143 111/144/144
f 375/145/145 373/146/146 374/147/147
f 376/148/148 373/149/149 375/150/150
f 379/151/151 377/152/152 378/153/153
f 380/154/154 377/155/155 379/156/156
f 383/157/157 381/158/158 382/159/159
f 384/160/160 381/161/161 383/162/162
f 387/163/163 385/164/164 386/165/165
f 388/166/166 385/167/167 387/168/168
f 391/169/169 389/170/170 390/171/171
f 392/172/172 389/173/173 391/174/174
f 395/175/175 393/176/176 394/177/177
f 396/178/178 393/179/179 395/180/180
f 435/181/181 433/182/182 434/183/183
f 436/184/184 433/185/185 435/186/186
f 439/187/187 437/188/188 438/189/189
f 440/190/190 437/191/191 439/192/192
f 443/193/193 441/194/194 442/195/195
f 444/196/196 441/197/197 443/198/198
f 447/199/199 445/200/200 446/201/201
f 448/202/202 445/203/203 447/204/204
f 451/205/205 449/206/206 450/207/207
f 452/208/208 449/209/209 451/210/210
f 455/211/211 453/212/212 454/213/213
f 456/214/214 453/215/215 455/216/216

g wool
f 95/217/217 93/218/218 94/219/219
f 96/220/220 93/221/221 95/222/222
f 99/223/223 97/224/224 98/225/225
f 100/226/226 97/227/227 99/228/228
f 103/229/229 101/230/230 102/231/231
f 104/232/232 101/233/233 103/234/234
f 107/235/235 105/236/236 106/237/237
f 108/238/238 105/239/239 107/240/240
f 187/241/241 185/242/242 186/243/243
f 190/244/244 188/245/245 189/246/246
f 191/247/247 188/248/248 190/249/249
f 194/250/250 192/251/251 193/252/252
f 195/253/253 192/254/254 194/255/255
f 198/256/256 196/257/257 197/258/258
f 199/259/259 196/260/260 198/261/261
f 202/262/262 200/263/263 201/264/264
f 203/265/265 200/266/266 202/267/267
f 206/268/268 204/269/269 205/270/270
f 207/271/271 204/272/272 206/273/273
f 210/274/274 208/275/275 209/276/276
f 211/277/277 208/278/278 210/279/279
f 214/280/280 212/281/281 213/282/282
f 215/283/283 212/284/284 214/285/285
f 218/286/286 216/287/287 217/288/288
f 219/289/289 216/290/290 218/291/291
f 222/292/292 220/293/293 221/294/294
f 223/295/295 220/296/296 222/297/297
f 226/298/298 224/299/299 225/300/300
f 227/301/301 224/302/302 226/303/303
f 230/304/304 228/305/305 229/306/306
f 231/307/307 228/308/308 230/309/309
f 234/310/310 232/311/311 233/312/312
f 235/313/313 232/314/314 234/315/315
f 238/316/316 236/317/317 237/318/318
f 239/319/319 236/320/320 238/321/321
f 242/322/322 240/323/323 241/324/324
f 243/325/325 240/326/326 242/327/327
f 246/328/328 244/329/329 245/330/330
f 247/331/331 244/332/332 246/333/333
f 250/334/334 248/335/335 249/336/336
f 251/337/337 248/338/338 250/339/339
f 254/340/340 252/341/341 253/342/342
f 255/343/343 252/344/344 254/345/345
f 258/346/346 256/347/347 257/348/348
f 259/349/349 256/350/350 258/351/351
f 262/352/352 260/353/353 261/354/354
f 263/355/355 260/356/356 262/357/357
f 266/358/358 264/359/359 265/360/360
f 267/361/361 264/362/362 266/363/363
f 270/364/364 268/365/365 269/366/366
f 271/367/367 268/368/368 270/369/369
f 274/370/370 272/371/371 273/372/372
f 275/373/373 272/374/374 274/375/375
f 278/376/376 276/377/377 277/378/378
f 279/379/379 276/380/380 278/381/381
f 282/382/382 280/383/383 281/384/384
f 283/385/385 280/386/386 282/387/387
f 286/388/388 284/389/389 285/390/390
f 287/391/391 284/392/392 286/393/393
f 290/394/394 288/395/395 289/396/396
f 291/397/397 288/398/398 290/399/399
f 294/400/400 292/401/401 293/402/402
f 295/403/403 292/404/404 294/405/405
f 298/406/406 296/407/407 297/408/408
f 299/409/409 296/410/410 298/411/411
f 302/412/412 300/413/413 301/414/414
f 303/415/415 300/416/416 302/417/417
f 306/418/418 304/419/419 305/420/420
f 307/421/421 304/422/422 306/423/423
f 310/424/424 308/425/425 309/426/426
f 311/427/427 308/428/428 310/429/429
f 314/430/430 312/431/431 313/432/432
f 315/433/433 312/434/434 314/435/435
f 318/436/436 316/437/437 317/438/438
f 319/439/439 316/440/440 318/441/441
f 322/442/442 320/443/443 321/444/444
f 323/445/445 320/446/446 322/447/447
f 326/448/448 324/449/449 325/450/450
f 327/451/451 324/452/452 326/453/453
f 330/454/454 328/455/455 329/456/456
f 331/457/457 328/458/458 330/459/459
f 334/460/460 332/461/461 333/462/462
f 337/463/463 335/464/464 336/465/465
f 338/466/466 335/467/467 337/468/468
f 341/469/469 339/470/470 340/471/471
f 344/472/472 342/473/473 343/474/474
f 345/475/475 342/476/476 344/477/477
f 348/478/478 346/479/479 347/480/480
f 349/481/481 346/482/482 348/483/483
f 352/484/484 350/485/485 351/486/486
f 353/487/487 350/488/488 352/489/489
f 356/490/490 354/491/491 355/492/492
f 359/493/493 357/494/494 358/495/495
f 360/496/496 357/497/497 359/498/498
f 363/499/499 361/500/500 362/501/501
f 366/502/502 364/503/503 365/504/504
f 369/505/505 367/506/506 368/507/507
f 372/508/508 370/509/509 371/510/510
f 495/511/511 493/512/512 494/513/513
f 496/514/514 493/515/515 495/516/516
f 499/517/517 497/518/518 498/519/519
f 500/520/520 497/521/521 499/522/522
f 503/523/523 501/524/524 502/525/525
f 504/526/526 501/527/527 503/528/528

g legs
f 115/529/529 113/530/530 114/531/531
f 116/532/532 113/533/533 115/534/534
f 119/535/535 117/536/536 118/537/537
f 120/538/538 117/539/539 119/540/540
f 123/541/541 121/542/542 122/543/543
f 124/544/544 121/545/545 123/546/546
f 127/547/547 125/548/548 126/549/549
f 128/550/550 125/551/551 127/552/552
f 131/553/553 129/554/554 130/555/555
f 132/556/556 129/557/557 131/558/558
f 135/559/559 133/560/560 134/561/561
f 136/562/562 133/563/563 135/564/564
f 139/565/565 137/566/566 138/567/567
f 140/568/568 137/569/569 139/570/570
f 143/571/571 141/572/572 142/573/573
f 144/574/574 141/575/575 143/576/576
f 147/577/577 145/578/578 146/579/579
f 148/580/580 145/581/581 147/582/582
f 151/583/583 149/584/584 150/585/585
f 152/586/586 149/587/587 151/588/588
f 155/589/589 153/590/590 154/591/591
f 156/592/592 153/593/593 155/594/594
f 159/595/595 157/596/596 158/597/597
f 160/598/598 157/599/599 159/600/600
f 163/601/601 161/602/602 162/603/603
f 164/604/604 161/605/605 163/606/606
f 167/607/607 165/608/608 166/609/609
f 168/610/610 165/611/611 167/612/612
f 171/613/613 169/614/614 170/615/615
f 172/616/616 169/617/617 171/618/618
f 175/619/619 173/620/620 174/621/621
f 176/622/622 173/623/623 175/624/624
f 179/625/625 177/626/626 178/627/627
f 180/628/628 177/629/629 179/630/630
f 183/631/631 181/632/632 182/633/633
f 184/634/634 181/635/635 183/636/636
f 399/637/637 397/638/638 398/639/639
f 400/640/640 397/641/641 399/642/642
f 403/643/643 401/644/644 402/645/645
f 404/646/646 401/647/647 403/648/648
f 407/649/649 405/650/650 406/651/651
f 408/652/652 405/653/653 407/654/654
f 411/655/655 409/656/656 410/657/657
f 412/658/658 409/659/659 411/660/660
f 415/661/661 413/662/662 414/663/663
f 416/664/664 413/665/665 415/666/666
f 419/667/667 417/668/668 418/669/669
f 420/670/670 417/671/671 419/672/672
f 423/673/673 421/674/674 422/675/675
f 424/676/676 421/677/677 423/678/678
f 427/679/679 425/680/680 426/681/681
f 428/682/682 425/683/683 427/684/684
f 431/685/685 429/686/686 430/687/687
f 432/688/688 429/689/689 431/690/690
f 459/691/691 457/692/692 458/693/693
f 460/694/694 457/695/695 459/696/696
f 463/697/697 461/698/698 462/699/699
f 464/700/700 461/701/701 463/702/702
f 467/703/703 465/704/704 466/705/705
f 468/706/706 465/707/707 467/708/708
f 471/709/709 469/710/710 470/711/711
f 472/712/712 469/713/713 471/714/714
f 475/715/715 473/716/716 474/717/717
f 476/718/718 473/719/719 475/720/720
f 479/721/721 477/722/722 478/723/723
f 480/724/724 477/725/725 479/726/726
f 483/727/727 481/728/728 482/729/729
f 484/730/730 481/731/731 483/732/732
f 487/733/733 485/734/734 486/735/735
f 488/736/736 485/737/737 487/738/738
f 491/739/739 489/740/740 490/741/741
f 492/742/742 489/743/743 491/744/744

