# Converted from B3D for Luanti (With Correct Normals)
# Object Name: multidecor_quadratic_cornice

v 0.850000 -0.635355 0.064645
v 0.850000 -0.635355 -0.064645
v -0.850000 -0.635355 -0.064645
v -0.850000 -0.635355 0.064645
v -0.850000 -0.764645 -0.064645
v -0.850000 -0.764645 0.064645
v -0.850000 -0.635355 0.064645
v -0.850000 -0.635355 -0.064645
v -0.850000 -0.764645 -0.064645
v -0.850000 -0.635355 -0.064645
v 0.850000 -0.635355 -0.064645
v 0.850000 -0.764645 -0.064645
v 0.850000 -0.764645 -0.064645
v 0.850000 -0.764645 0.064645
v -0.850000 -0.764645 0.064645
v -0.850000 -0.764645 -0.064645
v 0.850000 -0.764645 0.064645
v 0.850000 -0.635355 0.064645
v -0.850000 -0.635355 0.064645
v -0.850000 -0.764645 0.064645
v 0.850000 -0.764645 0.064645
v 0.850000 -0.764645 -0.064645
v 0.850000 -0.635355 -0.064645
v 0.850000 -0.635355 0.064645
v -0.850000 -0.900000 0.200000
v -0.850000 -0.900000 -0.200000
v -0.850000 -0.500000 -0.200000
v -0.850000 -0.500000 0.200000
v -1.000000 -0.900000 0.200000
v -1.000000 -0.500000 0.200000
v -1.000000 -0.500000 -0.200000
v -1.000000 -0.900000 -0.200000
v -0.850000 -0.900000 -0.200000
v -0.850000 -0.900000 0.200000
v -1.000000 -0.900000 0.200000
v -1.000000 -0.900000 -0.200000
v -0.850000 -0.900000 0.200000
v -0.850000 -0.500000 0.200000
v -1.000000 -0.500000 0.200000
v -1.000000 -0.900000 0.200000
v -0.850000 -0.500000 0.200000
v -0.850000 -0.500000 -0.200000
v -1.000000 -0.500000 -0.200000
v -1.000000 -0.500000 0.200000
v -0.850000 -0.500000 -0.200000
v -0.850000 -0.900000 -0.200000
v -1.000000 -0.900000 -0.200000
v -1.000000 -0.500000 -0.200000
v 0.850000 -0.900000 -0.200000
v 0.850000 -0.900000 0.200000
v 0.850000 -0.500000 0.200000
v 0.850000 -0.500000 -0.200000
v 1.000000 -0.900000 -0.200000
v 1.000000 -0.500000 -0.200000
v 1.000000 -0.500000 0.200000
v 1.000000 -0.900000 0.200000
v 0.850000 -0.900000 -0.200000
v 0.850000 -0.500000 -0.200000
v 1.000000 -0.500000 -0.200000
v 1.000000 -0.900000 -0.200000
v 0.850000 -0.900000 0.200000
v 0.850000 -0.900000 -0.200000
v 1.000000 -0.900000 -0.200000
v 1.000000 -0.900000 0.200000
v 0.850000 -0.500000 -0.200000
v 0.850000 -0.500000 0.200000
v 1.000000 -0.500000 0.200000
v 1.000000 -0.500000 -0.200000
v 0.850000 -0.500000 0.200000
v 0.850000 -0.900000 0.200000
v 1.000000 -0.900000 0.200000
v 1.000000 -0.500000 0.200000

vt 0.364157 0.904644
vt 0.302609 0.095356
vt 0.364157 0.095356
vt 0.302608 0.904644
vt 0.302609 0.095356
vt 0.364157 0.904644
vt 0.268946 0.921475
vt 0.207398 0.983024
vt 0.207398 0.921475
vt 0.268946 0.983024
vt 0.207398 0.983024
vt 0.268946 0.921475
vt 0.016977 0.095355
vt 0.078525 0.904644
vt 0.016976 0.904644
vt 0.078526 0.095356
vt 0.078525 0.904644
vt 0.016977 0.095355
vt 0.173735 0.904644
vt 0.112188 0.095356
vt 0.173736 0.095356
vt 0.112187 0.904644
vt 0.112188 0.095356
vt 0.173735 0.904644
vt 0.268946 0.904644
vt 0.207398 0.095356
vt 0.268947 0.095356
vt 0.207398 0.904644
vt 0.207398 0.095356
vt 0.268946 0.904644
vt 0.268947 0.016976
vt 0.207398 0.078525
vt 0.207398 0.016976
vt 0.268947 0.078525
vt 0.207398 0.078525
vt 0.268947 0.016976
vt 0.452687 0.405081
vt 0.643108 0.595502
vt 0.452687 0.595502
vt 0.643108 0.405081
vt 0.643108 0.595502
vt 0.452687 0.405081
vt 0.452687 0.857331
vt 0.643108 0.666910
vt 0.643108 0.857331
vt 0.452687 0.666910
vt 0.643108 0.666910
vt 0.452687 0.857331
vt 0.643108 0.666910
vt 0.452687 0.595502
vt 0.643108 0.595502
vt 0.452687 0.666910
vt 0.452687 0.595502
vt 0.643108 0.666910
vt 0.714516 0.405081
vt 0.643108 0.595502
vt 0.643108 0.405081
vt 0.714516 0.595502
vt 0.643108 0.595502
vt 0.714516 0.405081
vt 0.452687 0.333673
vt 0.643108 0.405081
vt 0.452687 0.405081
vt 0.643108 0.333673
vt 0.643108 0.405081
vt 0.452687 0.333673
vt 0.381279 0.595502
vt 0.452687 0.405081
vt 0.452687 0.595502
vt 0.381279 0.405081
vt 0.452687 0.405081
vt 0.381279 0.595502
vt 0.833529 0.071553
vt 0.643108 0.261974
vt 0.643108 0.071553
vt 0.833529 0.261974
vt 0.643108 0.261974
vt 0.833529 0.071553
vt 0.381279 0.071553
vt 0.571700 0.261974
vt 0.381279 0.261974
vt 0.571700 0.071553
vt 0.571700 0.261974
vt 0.381279 0.071553
vt 0.833529 0.333382
vt 0.643108 0.261974
vt 0.833529 0.261974
vt 0.643108 0.333382
vt 0.643108 0.261974
vt 0.833529 0.333382
vt 0.571700 0.261974
vt 0.643108 0.071553
vt 0.643108 0.261974
vt 0.571700 0.071553
vt 0.643108 0.071553
vt 0.571700 0.261974
vt 0.904937 0.071553
vt 0.833529 0.261974
vt 0.833529 0.071553
vt 0.904937 0.261974
vt 0.833529 0.261974
vt 0.904937 0.071553
vt 0.643108 0.000145
vt 0.833529 0.071553
vt 0.643108 0.071553
vt 0.833529 0.000145
vt 0.833529 0.071553
vt 0.643108 0.000145

vn -0.000000 1.000000 0.000000
vn -0.000000 1.000000 0.000000
vn -0.000000 1.000000 0.000000
vn -0.000000 1.000000 0.000000
vn -0.000000 1.000000 0.000000
vn -0.000000 1.000000 0.000000
vn -1.000000 0.000000 0.000000
vn -1.000000 0.000000 0.000000
vn -1.000000 0.000000 0.000000
vn -1.000000 0.000000 0.000000
vn -1.000000 0.000000 0.000000
vn -1.000000 0.000000 0.000000
vn -0.000000 0.000000 -1.000000
vn -0.000000 0.000000 -1.000000
vn -0.000000 0.000000 -1.000000
vn -0.000000 0.000000 -1.000000
vn -0.000000 0.000000 -1.000000
vn -0.000000 0.000000 -1.000000
vn -0.000000 -1.000000 0.000000
vn -0.000000 -1.000000 0.000000
vn -0.000000 -1.000000 0.000000
vn -0.000000 -1.000000 0.000000
vn -0.000000 -1.000000 0.000000
vn -0.000000 -1.000000 0.000000
vn 0.000000 0.000000 1.000000
vn 0.000000 0.000000 1.000000
vn 0.000000 0.000000 1.000000
vn 0.000000 0.000000 1.000000
vn 0.000000 0.000000 1.000000
vn 0.000000 0.000000 1.000000
vn 1.000000 0.000000 0.000000
vn 1.000000 0.000000 0.000000
vn 1.000000 0.000000 0.000000
vn 1.000000 0.000000 0.000000
vn 1.000000 0.000000 0.000000
vn 1.000000 0.000000 0.000000
vn 1.000000 0.000000 0.000000
vn 1.000000 0.000000 0.000000
vn 1.000000 0.000000 0.000000
vn 1.000000 0.000000 0.000000
vn 1.000000 0.000000 0.000000
vn 1.000000 0.000000 0.000000
vn -1.000000 0.000000 0.000000
vn -1.000000 0.000000 0.000000
vn -1.000000 0.000000 0.000000
vn -1.000000 0.000000 -0.000000
vn -1.000000 0.000000 -0.000000
vn -1.000000 0.000000 -0.000000
vn -0.000000 -1.000000 0.000000
vn -0.000000 -1.000000 0.000000
vn -0.000000 -1.000000 0.000000
vn -0.000000 -1.000000 0.000000
vn -0.000000 -1.000000 0.000000
vn -0.000000 -1.000000 0.000000
vn 0.000000 0.000000 1.000000
vn 0.000000 0.000000 1.000000
vn 0.000000 0.000000 1.000000
vn 0.000000 0.000000 1.000000
vn 0.000000 0.000000 1.000000
vn 0.000000 0.000000 1.000000
vn -0.000000 1.000000 0.000000
vn -0.000000 1.000000 0.000000
vn -0.000000 1.000000 0.000000
vn -0.000000 1.000000 0.000000
vn -0.000000 1.000000 0.000000
vn -0.000000 1.000000 0.000000
vn -0.000000 0.000000 -1.000000
vn -0.000000 0.000000 -1.000000
vn -0.000000 0.000000 -1.000000
vn -0.000000 0.000000 -1.000000
vn -0.000000 0.000000 -1.000000
vn -0.000000 0.000000 -1.000000
vn -1.000000 0.000000 -0.000000
vn -1.000000 0.000000 -0.000000
vn -1.000000 0.000000 -0.000000
vn -1.000000 0.000000 0.000000
vn -1.000000 0.000000 0.000000
vn -1.000000 0.000000 0.000000
vn 1.000000 0.000000 0.000000
vn 1.000000 0.000000 0.000000
vn 1.000000 0.000000 0.000000
vn 1.000000 0.000000 0.000000
vn 1.000000 0.000000 0.000000
vn 1.000000 0.000000 0.000000
vn -0.000000 0.000000 -1.000000
vn -0.000000 0.000000 -1.000000
vn -0.000000 0.000000 -1.000000
vn -0.000000 0.000000 -1.000000
vn -0.000000 0.000000 -1.000000
vn -0.000000 0.000000 -1.000000
vn -0.000000 -1.000000 0.000000
vn -0.000000 -1.000000 0.000000
vn -0.000000 -1.000000 0.000000
vn -0.000000 -1.000000 0.000000
vn -0.000000 -1.000000 0.000000
vn -0.000000 -1.000000 0.000000
vn -0.000000 1.000000 0.000000
vn -0.000000 1.000000 0.000000
vn -0.000000 1.000000 0.000000
vn -0.000000 1.000000 0.000000
vn -0.000000 1.000000 0.000000
vn -0.000000 1.000000 0.000000
vn -0.000000 0.000000 1.000000
vn -0.000000 0.000000 1.000000
vn -0.000000 0.000000 1.000000
vn -0.000000 0.000000 1.000000
vn -0.000000 0.000000 1.000000
vn -0.000000 0.000000 1.000000

g Material
f 3/1/1 1/2/2 2/3/3
f 4/4/4 1/5/5 3/6/6
f 7/7/7 5/8/8 6/9/9
f 8/10/10 5/11/11 7/12/12
f 11/13/13 9/14/14 10/15/15
f 12/16/16 9/17/17 11/18/18
f 15/19/19 13/20/20 14/21/21
f 16/22/22 13/23/23 15/24/24
f 19/25/25 17/26/26 18/27/27
f 20/28/28 17/29/29 19/30/30
f 23/31/31 21/32/32 22/33/33
f 24/34/34 21/35/35 23/36/36
f 27/37/37 25/38/38 26/39/39
f 28/40/40 25/41/41 27/42/42
f 31/43/43 29/44/44 30/45/45
f 32/46/46 29/47/47 31/48/48
f 35/49/49 33/50/50 34/51/51
f 36/52/52 33/53/53 35/54/54
f 39/55/55 37/56/56 38/57/57
f 40/58/58 37/59/59 39/60/60
f 43/61/61 41/62/62 42/63/63
f 44/64/64 41/65/65 43/66/66
f 47/67/67 45/68/68 46/69/69
f 48/70/70 45/71/71 47/72/72
f 51/73/73 49/74/74 50/75/75
f 52/76/76 49/77/77 51/78/78
f 55/79/79 53/80/80 54/81/81
f 56/82/82 53/83/83 55/84/84
f 59/85/85 57/86/86 58/87/87
f 60/88/88 57/89/89 59/90/90
f 63/91/91 61/92/92 62/93/93
f 64/94/94 61/95/95 63/96/96
f 67/97/97 65/98/98 66/99/99
f 68/100/100 65/101/101 67/102/102
f 71/103/103 69/104/104 70/105/105
f 72/106/106 69/107/107 71/108/108

