# Converted from B3D for Luanti (With Correct Normals)
# Object Name: multidecor_ceiling_wooden_lamp

v -0.750000 1.000000 0.750000
v 0.750000 1.000000 0.750000
v 0.750000 1.000000 -0.750000
v -0.750000 1.000000 -0.750000
v -0.750000 0.700000 -0.750000
v -0.750000 1.000000 -0.750000
v 0.750000 1.000000 -0.750000
v 0.750000 0.700000 -0.750000
v 0.750000 0.700000 -0.750000
v 0.750000 1.000000 -0.750000
v 0.750000 1.000000 0.750000
v 0.750000 0.700000 0.750000
v 0.750000 0.700000 0.750000
v -0.750000 0.700000 0.750000
v -0.750000 0.700000 -0.750000
v 0.750000 0.700000 -0.750000
v -0.750000 0.700000 0.750000
v -0.750000 1.000000 0.750000
v -0.750000 1.000000 -0.750000
v -0.750000 0.700000 -0.750000
v 0.750000 0.700000 0.750000
v 0.750000 1.000000 0.750000
v -0.750000 1.000000 0.750000
v -0.750000 0.700000 0.750000

vt 0.500000 0.999924
vt 0.083397 0.583321
vt 0.500000 0.583321
vt 0.083397 0.999924
vt 0.083397 0.583321
vt 0.500000 0.999924
vt 0.500000 0.000076
vt 0.083397 0.083397
vt 0.083397 0.000076
vt 0.500000 0.083397
vt 0.083397 0.083397
vt 0.500000 0.000076
vt 0.583321 0.500000
vt 0.500000 0.083397
vt 0.583321 0.083397
vt 0.500000 0.500000
vt 0.500000 0.083397
vt 0.583321 0.500000
vt 0.083397 0.999924
vt 0.000076 0.583321
vt 0.083397 0.583321
vt 0.000076 0.999924
vt 0.000076 0.583321
vt 0.083397 0.999924
vt 0.083397 0.583321
vt 0.500000 0.500000
vt 0.500000 0.583321
vt 0.083397 0.500000
vt 0.500000 0.500000
vt 0.083397 0.583321
vt 0.062580 0.937420
vt 0.909121 0.092854
vt 0.909121 0.937420
vt 0.062580 0.092853
vt 0.909121 0.092854
vt 0.062580 0.937420

vn -0.000000 1.000000 0.000000
vn -0.000000 1.000000 0.000000
vn -0.000000 1.000000 0.000000
vn -0.000000 1.000000 0.000000
vn -0.000000 1.000000 0.000000
vn -0.000000 1.000000 0.000000
vn -0.000000 0.000000 -1.000000
vn -0.000000 0.000000 -1.000000
vn -0.000000 0.000000 -1.000000
vn -0.000000 0.000000 -1.000000
vn -0.000000 0.000000 -1.000000
vn -0.000000 0.000000 -1.000000
vn 1.000000 0.000000 0.000000
vn 1.000000 0.000000 0.000000
vn 1.000000 0.000000 0.000000
vn 1.000000 0.000000 0.000000
vn 1.000000 0.000000 0.000000
vn 1.000000 0.000000 0.000000
vn -1.000000 0.000000 0.000000
vn -1.000000 0.000000 0.000000
vn -1.000000 0.000000 0.000000
vn -1.000000 0.000000 0.000000
vn -1.000000 0.000000 0.000000
vn -1.000000 0.000000 0.000000
vn -0.000000 0.000000 1.000000
vn -0.000000 0.000000 1.000000
vn -0.000000 0.000000 1.000000
vn -0.000000 0.000000 1.000000
vn -0.000000 0.000000 1.000000
vn -0.000000 0.000000 1.000000
vn -0.000000 -1.000000 0.000000
vn -0.000000 -1.000000 0.000000
vn -0.000000 -1.000000 0.000000
vn -0.000000 -1.000000 0.000000
vn -0.000000 -1.000000 0.000000
vn -0.000000 -1.000000 0.000000

g Material
f 3/1/1 1/2/2 2/3/3
f 4/4/4 1/5/5 3/6/6
f 7/7/7 5/8/8 6/9/9
f 8/10/10 5/11/11 7/12/12
f 11/13/13 9/14/14 10/15/15
f 12/16/16 9/17/17 11/18/18
f 19/19/19 17/20/20 18/21/21
f 20/22/22 17/23/23 19/24/24
f 23/25/25 21/26/26 22/27/27
f 24/28/28 21/29/29 23/30/30

g Material.001
f 15/31/31 13/32/32 14/33/33
f 16/34/34 13/35/35 15/36/36

