# Converted from B3D for Luanti (With Correct Normals)
# Object Name: multidecor_spiral_stair_segment

v -1.000000 -1.000000 -1.000000
v -0.732051 -1.000000 0.000000
v -0.732051 0.000000 0.000000
v -1.000000 0.000000 -1.000000
v -0.732051 -1.000000 0.000000
v -0.366025 -1.000000 0.366025
v -0.366025 0.000000 0.366025
v -0.732051 0.000000 0.000000
v 0.000000 -1.000000 0.732051
v 1.000000 -1.000000 1.000000
v 1.000000 0.000000 1.000000
v 0.000000 0.000000 0.732051
v 1.000000 -1.000000 1.000000
v 1.000000 -1.000000 -1.000000
v 1.000000 0.000000 -1.000000
v 1.000000 0.000000 1.000000
v -0.366025 1.000000 0.366026
v 1.000000 1.000000 -1.000000
v 1.000000 0.000000 -1.000000
v -0.366025 0.000000 0.366025
v -1.000000 -1.000000 -1.000000
v 1.000000 -1.000000 -1.000000
v -0.732051 -1.000000 0.000000
v -1.000000 0.000000 -1.000000
v 1.000000 0.000000 -1.000000
v 1.000000 -1.000000 -1.000000
v -1.000000 -1.000000 -1.000000
v -1.000000 0.000000 -1.000000
v -0.732051 0.000000 0.000000
v 1.000000 0.000000 -1.000000
v -0.366025 -1.000000 0.366025
v 0.000000 -1.000000 0.732051
v 0.000000 0.000000 0.732051
v -0.366025 0.000000 0.366025
v 1.000000 -1.000000 -1.000000
v 0.000000 -1.000000 0.732051
v -0.366025 -1.000000 0.366025
v 1.000000 1.000000 1.000000
v 1.000000 0.000000 1.000000
v 1.000000 0.000000 -1.000000
v 1.000000 1.000000 -1.000000
v 0.000000 0.000000 0.732051
v 1.000000 0.000000 1.000000
v 1.000000 1.000000 1.000000
v 0.000000 1.000000 0.732051
v 0.000000 0.000000 0.732051
v 0.000000 1.000000 0.732051
v -0.366025 1.000000 0.366026
v -0.366025 0.000000 0.366025
v -0.366025 1.000000 0.366026
v 0.000000 1.000000 0.732051
v 1.000000 1.000000 -1.000000
v 0.000000 1.000000 0.732051
v 1.000000 1.000000 1.000000
v 1.000000 1.000000 -1.000000
v -0.732051 0.000000 0.000000
v -0.366025 0.000000 0.366025
v 1.000000 0.000000 -1.000000
v 1.000000 -1.000000 -1.000000
v -0.366025 -1.000000 0.366025
v -0.732051 -1.000000 0.000000
v 0.000000 -1.000000 0.732051
v 1.000000 -1.000000 -1.000000
v 1.000000 -1.000000 1.000000

vt 0.260767 0.246413
vt 0.001080 0.497252
vt 0.260767 0.497252
vt 0.001080 0.246413
vt 0.001080 0.497252
vt 0.260767 0.246413
vt 0.390611 0.246413
vt 0.260767 0.497252
vt 0.390611 0.497252
vt 0.260767 0.246413
vt 0.260767 0.497252
vt 0.390611 0.246413
vt 0.780142 0.246413
vt 0.520455 0.497252
vt 0.780142 0.497252
vt 0.520455 0.246413
vt 0.520455 0.497252
vt 0.780142 0.246413
vt 0.251919 0.497884
vt 0.502757 0.999562
vt 0.502757 0.497884
vt 0.251919 0.999562
vt 0.502757 0.999562
vt 0.251919 0.497884
vt 0.987973 1.000194
vt 0.503390 1.251033
vt 0.987973 1.251033
vt 0.503390 1.000194
vt 0.503390 1.251033
vt 0.987973 1.000194
vt 0.570602 0.748723
vt 0.503390 0.999561
vt 1.005067 0.999562
vt 0.001080 1.251033
vt 0.502757 1.000194
vt 0.001080 1.000194
vt 0.502757 1.251033
vt 0.502757 1.000194
vt 0.001080 1.251033
vt 1.348351 0.999562
vt 1.348351 0.497884
vt 1.097513 0.565096
vt 0.520455 0.246413
vt 0.390611 0.497252
vt 0.520455 0.497252
vt 0.390611 0.246413
vt 0.390611 0.497252
vt 0.520455 0.246413
vt 0.662415 0.656909
vt 1.005067 0.999562
vt 0.754229 0.565096
vt 0.251919 0.497884
vt 0.001080 0.999562
vt 0.251919 0.999562
vt 0.001080 0.497884
vt 0.001080 0.999562
vt 0.251919 0.497884
vt 0.780142 -0.004426
vt 0.520455 0.246413
vt 0.780142 0.246413
vt 0.520455 -0.004426
vt 0.520455 0.246413
vt 0.780142 -0.004426
vt 0.390611 -0.004426
vt 0.520455 0.246413
vt 0.520455 -0.004426
vt 0.390611 0.246413
vt 0.520455 0.246413
vt 0.390611 -0.004426
vt 1.135514 0.480157
vt 1.135514 -0.004426
vt 1.005670 -0.004426
vt 1.135514 0.480157
vt 1.005670 -0.004426
vt 0.780774 0.125418
vt 1.348351 0.999562
vt 1.097513 0.565096
vt 1.005699 0.656909
vt 0.570602 0.748723
vt 1.005067 0.999562
vt 0.662415 0.656909
vt 1.005067 0.497884
vt 0.754229 0.565096
vt 1.005067 0.999562

vn -0.965926 0.000000 0.258819
vn -0.965926 0.000000 0.258819
vn -0.965926 0.000000 0.258819
vn -0.965926 0.000000 0.258819
vn -0.965926 0.000000 0.258819
vn -0.965926 0.000000 0.258819
vn -0.707107 0.000000 0.707107
vn -0.707107 0.000000 0.707107
vn -0.707107 0.000000 0.707107
vn -0.707107 0.000000 0.707107
vn -0.707107 0.000000 0.707107
vn -0.707107 0.000000 0.707107
vn -0.258819 0.000000 0.965926
vn -0.258819 0.000000 0.965926
vn -0.258819 0.000000 0.965926
vn -0.258819 0.000000 0.965926
vn -0.258819 0.000000 0.965926
vn -0.258819 0.000000 0.965926
vn 1.000000 0.000000 -0.000000
vn 1.000000 0.000000 -0.000000
vn 1.000000 0.000000 -0.000000
vn 1.000000 0.000000 0.000000
vn 1.000000 0.000000 0.000000
vn 1.000000 0.000000 0.000000
vn -0.707107 0.000000 -0.707107
vn -0.707107 0.000000 -0.707107
vn -0.707107 0.000000 -0.707107
vn -0.707107 0.000000 -0.707107
vn -0.707107 0.000000 -0.707107
vn -0.707107 0.000000 -0.707107
vn -0.000000 -1.000000 0.000000
vn -0.000000 -1.000000 0.000000
vn -0.000000 -1.000000 0.000000
vn -0.000000 0.000000 -1.000000
vn -0.000000 0.000000 -1.000000
vn -0.000000 0.000000 -1.000000
vn -0.000000 0.000000 -1.000000
vn -0.000000 0.000000 -1.000000
vn -0.000000 0.000000 -1.000000
vn -0.000000 1.000000 0.000000
vn -0.000000 1.000000 0.000000
vn -0.000000 1.000000 0.000000
vn -0.707107 0.000000 0.707107
vn -0.707107 0.000000 0.707107
vn -0.707107 0.000000 0.707107
vn -0.707107 0.000000 0.707107
vn -0.707107 0.000000 0.707107
vn -0.707107 0.000000 0.707107
vn -0.000000 -1.000000 0.000000
vn -0.000000 -1.000000 0.000000
vn -0.000000 -1.000000 0.000000
vn 1.000000 0.000000 0.000000
vn 1.000000 0.000000 0.000000
vn 1.000000 0.000000 0.000000
vn 1.000000 0.000000 -0.000000
vn 1.000000 0.000000 -0.000000
vn 1.000000 0.000000 -0.000000
vn -0.258819 0.000000 0.965926
vn -0.258819 0.000000 0.965926
vn -0.258819 0.000000 0.965926
vn -0.258819 0.000000 0.965926
vn -0.258819 0.000000 0.965926
vn -0.258819 0.000000 0.965926
vn -0.707107 0.000000 0.707107
vn -0.707107 0.000000 0.707107
vn -0.707107 0.000000 0.707107
vn -0.707107 0.000000 0.707107
vn -0.707107 0.000000 0.707107
vn -0.707107 0.000000 0.707107
vn 0.000000 1.000000 0.000000
vn 0.000000 1.000000 0.000000
vn 0.000000 1.000000 0.000000
vn 0.000000 1.000000 0.000000
vn 0.000000 1.000000 0.000000
vn 0.000000 1.000000 0.000000
vn -0.000000 1.000000 0.000000
vn -0.000000 1.000000 0.000000
vn -0.000000 1.000000 0.000000
vn -0.000000 -1.000000 0.000000
vn -0.000000 -1.000000 0.000000
vn -0.000000 -1.000000 0.000000
vn -0.000000 -1.000000 0.000000
vn -0.000000 -1.000000 0.000000
vn -0.000000 -1.000000 0.000000

g Material_0
f 3/1/1 1/2/2 2/3/3
f 4/4/4 1/5/5 3/6/6
f 7/7/7 5/8/8 6/9/9
f 8/10/10 5/11/11 7/12/12
f 11/13/13 9/14/14 10/15/15
f 12/16/16 9/17/17 11/18/18
f 15/19/19 13/20/20 14/21/21
f 16/22/22 13/23/23 15/24/24
f 19/25/25 17/26/26 18/27/27
f 20/28/28 17/29/29 19/30/30
f 23/31/31 21/32/32 22/33/33
f 26/34/34 24/35/35 25/36/36
f 27/37/37 24/38/38 26/39/39
f 30/40/40 28/41/41 29/42/42
f 33/43/43 31/44/44 32/45/45
f 34/46/46 31/47/47 33/48/48
f 37/49/49 35/50/50 36/51/51
f 40/52/52 38/53/53 39/54/54
f 41/55/55 38/56/56 40/57/57
f 44/58/58 42/59/59 43/60/60
f 45/61/61 42/62/62 44/63/63
f 48/64/64 46/65/65 47/66/66
f 49/67/67 46/68/68 48/69/69
f 52/70/70 50/71/71 51/72/72
f 55/73/73 53/74/74 54/75/75
f 58/76/76 56/77/77 57/78/78
f 61/79/79 59/80/80 60/81/81
f 64/82/82 62/83/83 63/84/84

