# Converted from B3D for Luanti (With Correct Normals)
# Object Name: multidecor_upscaled_round_painting

v -2.000000 2.000000 -0.199999
v -2.000000 2.000000 0.000001
v 0.000000 1.732051 0.000000
v -0.000000 1.732051 -0.200000
v -0.000000 1.732051 -0.200000
v 0.000000 1.732051 0.000000
v 1.464102 1.000000 -0.000000
v 1.464102 1.000000 -0.200000
v 1.464102 1.000000 -0.200000
v 1.464102 1.000000 -0.000000
v 2.000000 -0.000000 -0.000001
v 2.000000 0.000000 -0.200001
v 2.000000 0.000000 -0.200001
v 2.000000 -0.000000 -0.000001
v 1.464101 -1.000000 -0.000000
v 1.464101 -1.000000 -0.200000
v 1.464101 -1.000000 -0.200000
v 1.464101 -1.000000 -0.000000
v -0.000000 -1.732051 -0.000000
v -0.000000 -1.732051 -0.200000
v -0.000000 -1.732051 -0.200000
v -0.000000 -1.732051 -0.000000
v -2.000000 -2.000000 0.000001
v -2.000000 -2.000000 -0.199999
v -2.000000 -2.000000 -0.199999
v -2.000000 -2.000000 0.000001
v -3.999999 -1.732051 0.000001
v -3.999999 -1.732051 -0.199999
v -3.999999 -1.732051 -0.199999
v -3.999999 -1.732051 0.000001
v -5.464101 -1.000001 0.000002
v -5.464101 -1.000000 -0.199998
v -5.464101 -1.000000 -0.199998
v -5.464101 -1.000001 0.000002
v -6.000000 -0.000001 0.000002
v -6.000000 -0.000001 -0.199998
v -6.000000 -0.000001 -0.199998
v -6.000000 -0.000001 0.000002
v -5.464103 0.999999 0.000002
v -5.464103 0.999999 -0.199998
v -5.464101 -1.000000 -0.199998
v -6.000000 -0.000001 -0.199998
v -5.554700 -0.000000 -0.199998
v -5.153714 -0.680701 -0.199998
v -5.464103 0.999999 -0.199998
v -5.464103 0.999999 0.000002
v -4.000002 1.732050 0.000001
v -4.000002 1.732051 -0.199999
v -4.000002 1.732051 -0.199999
v -4.000002 1.732050 0.000001
v -2.000000 2.000000 0.000001
v -2.000000 2.000000 -0.199999
v 2.000000 0.000000 -0.200001
v 1.464101 -1.000000 -0.200000
v 1.153714 -0.680700 -0.200000
v 1.554700 0.000000 -0.200000
v -5.464103 0.999999 -0.199998
v -4.000002 1.732051 -0.199999
v -3.869081 1.306431 -0.199999
v -5.153715 0.680700 -0.199998
v -0.000000 -1.732051 -0.200000
v -2.000000 -2.000000 -0.199999
v -2.000000 -1.554699 -0.199999
v -0.130921 -1.306431 -0.200000
v -2.000000 2.000000 -0.199999
v -0.000000 1.732051 -0.200000
v -0.130921 1.306431 -0.200000
v -2.000000 1.554700 -0.199999
v -3.999999 -1.732051 -0.199999
v -5.464101 -1.000000 -0.199998
v -5.153714 -0.680701 -0.199998
v -3.869079 -1.306431 -0.199999
v 1.464102 1.000000 -0.200000
v 2.000000 0.000000 -0.200001
v 1.554700 0.000000 -0.200000
v 1.153714 0.680701 -0.200000
v -6.000000 -0.000001 -0.199998
v -5.464103 0.999999 -0.199998
v -5.153715 0.680700 -0.199998
v -5.554700 -0.000000 -0.199998
v 1.464101 -1.000000 -0.200000
v -0.000000 -1.732051 -0.200000
v -0.130921 -1.306431 -0.200000
v 1.153714 -0.680700 -0.200000
v -4.000002 1.732051 -0.199999
v -2.000000 2.000000 -0.199999
v -2.000000 1.554700 -0.199999
v -3.869081 1.306431 -0.199999
v -2.000000 -2.000000 -0.199999
v -3.999999 -1.732051 -0.199999
v -3.869079 -1.306431 -0.199999
v -2.000000 -1.554699 -0.199999
v -0.000000 1.732051 -0.200000
v 1.464102 1.000000 -0.200000
v 1.153714 0.680701 -0.200000
v -0.130921 1.306431 -0.200000
v 1.464101 -1.000000 -0.000000
v 2.000000 -0.000000 -0.000001
v 1.464102 1.000000 -0.000000
v -2.000000 2.000000 0.000001
v -0.000000 -1.732051 -0.000000
v 0.000000 1.732051 0.000000
v -0.000000 -1.732051 -0.000000
v 1.464101 -1.000000 -0.000000
v 0.000000 1.732051 0.000000
v -2.000000 -2.000000 0.000001
v -0.000000 -1.732051 -0.000000
v -2.000000 2.000000 0.000001
v -3.999999 -1.732051 0.000001
v -2.000000 -2.000000 0.000001
v -2.000000 2.000000 0.000001
v -5.464101 -1.000001 0.000002
v -3.999999 -1.732051 0.000001
v -4.000002 1.732050 0.000001
v -5.464103 0.999999 0.000002
v -6.000000 -0.000001 0.000002
v -5.464101 -1.000001 0.000002
v -4.000002 1.732050 0.000001
v -5.464103 0.999999 0.000002
v -5.464101 -1.000001 0.000002
v -2.000000 2.000000 0.000001
v -4.000002 1.732050 0.000001
v -3.999999 -1.732051 0.000001
v -2.000000 1.554700 -0.199999
v -0.130921 1.306431 -0.200000
v -0.130921 1.306431 -0.100000
v -2.000000 1.554700 -0.099999
v -0.130921 1.306431 -0.200000
v 1.153714 0.680701 -0.200000
v 1.153714 0.680701 -0.100000
v -0.130921 1.306431 -0.100000
v 1.153714 0.680701 -0.200000
v 1.554700 0.000000 -0.200000
v 1.554700 0.000000 -0.100000
v 1.153714 0.680701 -0.100000
v 1.554700 0.000000 -0.200000
v 1.153714 -0.680700 -0.200000
v 1.153714 -0.680701 -0.100000
v 1.554700 0.000000 -0.100000
v 1.153714 -0.680700 -0.200000
v -0.130921 -1.306431 -0.200000
v -0.130921 -1.306431 -0.100000
v 1.153714 -0.680701 -0.100000
v -0.130921 -1.306431 -0.200000
v -2.000000 -1.554699 -0.199999
v -2.000000 -1.554700 -0.099999
v -0.130921 -1.306431 -0.100000
v -2.000000 -1.554699 -0.199999
v -3.869079 -1.306431 -0.199999
v -3.869079 -1.306431 -0.099999
v -2.000000 -1.554700 -0.099999
v -3.869079 -1.306431 -0.199999
v -5.153714 -0.680701 -0.199998
v -5.153714 -0.680701 -0.099998
v -3.869079 -1.306431 -0.099999
v -5.153714 -0.680701 -0.199998
v -5.554700 -0.000000 -0.199998
v -5.554700 -0.000000 -0.099998
v -5.153714 -0.680701 -0.099998
v -5.554700 -0.000000 -0.199998
v -5.153715 0.680700 -0.199998
v -5.153715 0.680700 -0.099998
v -5.554700 -0.000000 -0.099998
v -5.153715 0.680700 -0.199998
v -3.869081 1.306431 -0.199999
v -3.869081 1.306431 -0.099999
v -5.153715 0.680700 -0.099998
v -3.869081 1.306431 -0.199999
v -2.000000 1.554700 -0.199999
v -2.000000 1.554700 -0.099999
v -3.869081 1.306431 -0.099999
v -3.869081 1.306431 -0.099999
v -5.153714 -0.680701 -0.099998
v -5.153715 0.680700 -0.099998
v -3.869081 1.306431 -0.099999
v -2.000000 1.554700 -0.099999
v -3.869079 -1.306431 -0.099999
v -2.000000 1.554700 -0.099999
v -0.130921 1.306431 -0.100000
v -2.000000 -1.554700 -0.099999
v -3.869079 -1.306431 -0.099999
v -2.000000 1.554700 -0.099999
v -2.000000 -1.554700 -0.099999
v -0.130921 1.306431 -0.100000
v 1.153714 0.680701 -0.100000
v -0.130921 -1.306431 -0.100000
v 1.153714 0.680701 -0.100000
v 1.554700 0.000000 -0.100000
v 1.153714 -0.680701 -0.100000
v -0.130921 -1.306431 -0.100000
v 1.153714 0.680701 -0.100000
v 1.153714 -0.680701 -0.100000
v -0.130921 -1.306431 -0.100000
v -2.000000 -1.554700 -0.099999
v -0.130921 1.306431 -0.100000
v -3.869079 -1.306431 -0.099999
v -5.153714 -0.680701 -0.099998
v -3.869081 1.306431 -0.099999
v -5.153714 -0.680701 -0.099998
v -5.554700 -0.000000 -0.099998
v -5.153715 0.680700 -0.099998
v 1.464102 1.000000 -0.000000
v 0.000000 1.732051 0.000000
v 1.464101 -1.000000 -0.000000

vt 0.938272 0.218112
vt 0.895184 0.000745
vt 0.938272 0.000745
vt 0.895184 0.218112
vt 0.895184 0.000745
vt 0.938272 0.218112
vt 0.938272 0.394442
vt 0.895184 0.218112
vt 0.938272 0.218112
vt 0.895184 0.394442
vt 0.895184 0.218112
vt 0.938272 0.394442
vt 0.938272 0.516656
vt 0.895184 0.394442
vt 0.938272 0.394442
vt 0.895184 0.516656
vt 0.895184 0.394442
vt 0.938272 0.516656
vt 0.982852 0.122959
vt 0.939763 0.000745
vt 0.982852 0.000745
vt 0.939763 0.122959
vt 0.939763 0.000745
vt 0.982852 0.122959
vt 0.982852 0.299289
vt 0.939763 0.122959
vt 0.982852 0.122959
vt 0.939763 0.299289
vt 0.939763 0.122959
vt 0.982852 0.299289
vt 0.982852 0.516656
vt 0.939763 0.299289
vt 0.982852 0.299289
vt 0.939763 0.516656
vt 0.939763 0.299289
vt 0.982852 0.516656
vt 0.850604 0.299289
vt 0.893693 0.516656
vt 0.850605 0.516656
vt 0.893693 0.299289
vt 0.893693 0.516656
vt 0.850604 0.299289
vt 0.850605 0.122959
vt 0.893693 0.299289
vt 0.850604 0.299289
vt 0.893693 0.122959
vt 0.893693 0.299289
vt 0.850605 0.122959
vt 0.850605 0.000745
vt 0.893693 0.122959
vt 0.850605 0.122959
vt 0.893693 0.000745
vt 0.893693 0.122959
vt 0.850605 0.000745
vt 0.472393 0.605558
vt 0.429304 0.483344
vt 0.472393 0.483344
vt 0.429304 0.605558
vt 0.429304 0.483344
vt 0.472393 0.605558
vt 0.638464 0.044694
vt 0.543680 0.096801
vt 0.619242 0.000745
vt 0.588591 0.113652
vt 0.543680 0.096801
vt 0.638464 0.044694
vt 0.472393 0.781888
vt 0.429304 0.605558
vt 0.472393 0.605558
vt 0.429304 0.781888
vt 0.429304 0.605558
vt 0.472393 0.781888
vt 0.472393 0.999255
vt 0.429304 0.781888
vt 0.472393 0.781888
vt 0.429304 0.999255
vt 0.429304 0.781888
vt 0.472393 0.999255
vt 0.693916 0.368947
vt 0.724567 0.481853
vt 0.649005 0.385798
vt 0.743789 0.437904
vt 0.724567 0.481853
vt 0.693916 0.368947
vt 0.476962 0.215151
vt 0.438355 0.385798
vt 0.429304 0.209700
vt 0.483266 0.368947
vt 0.438355 0.385798
vt 0.476962 0.215151
vt 0.743789 0.019967
vt 0.639954 0.209700
vt 0.699840 0.000745
vt 0.687612 0.215151
vt 0.639954 0.209700
vt 0.743789 0.019967
vt 0.792937 0.267448
vt 0.805165 0.481853
vt 0.745279 0.272899
vt 0.849114 0.462631
vt 0.805165 0.481853
vt 0.792937 0.267448
vt 0.588591 0.113652
vt 0.534629 0.272898
vt 0.543680 0.096801
vt 0.582287 0.267447
vt 0.534629 0.272898
vt 0.588591 0.113652
vt 0.849114 0.044694
vt 0.754330 0.096801
vt 0.829892 0.000745
vt 0.799241 0.113652
vt 0.754330 0.096801
vt 0.849114 0.044694
vt 0.483266 0.368947
vt 0.513917 0.481853
vt 0.438355 0.385798
vt 0.533139 0.437904
vt 0.513917 0.481853
vt 0.483266 0.368947
vt 0.687612 0.215151
vt 0.649005 0.385798
vt 0.639954 0.209700
vt 0.693916 0.368947
vt 0.649005 0.385798
vt 0.687612 0.215151
vt 0.533139 0.019967
vt 0.429304 0.209700
vt 0.489190 0.000745
vt 0.476962 0.215151
vt 0.429304 0.209700
vt 0.533139 0.019967
vt 0.582287 0.267447
vt 0.594515 0.481853
vt 0.534629 0.272898
vt 0.638464 0.462632
vt 0.594515 0.481853
vt 0.582287 0.267447
vt 0.799241 0.113652
vt 0.745279 0.272899
vt 0.754330 0.096801
vt 0.792937 0.267448
vt 0.745279 0.272899
vt 0.799241 0.113652
vt 0.057962 0.783361
vt 0.271496 0.811969
vt 0.157063 0.854881
vt 0.000745 0.616572
vt 0.000745 0.399205
vt 0.370597 0.666123
vt 0.000745 0.616572
vt 0.370597 0.666123
vt 0.271496 0.811969
vt 0.000745 0.399205
vt 0.427813 0.456422
vt 0.370597 0.666123
vt 0.000745 0.399205
vt 0.427813 0.239055
vt 0.427813 0.456422
vt 0.057962 0.189504
vt 0.370597 0.072266
vt 0.427813 0.239055
vt 0.370597 0.072266
vt 0.157063 0.043657
vt 0.271496 0.000745
vt 0.370597 0.072266
vt 0.057962 0.189504
vt 0.157063 0.043657
vt 0.427813 0.239055
vt 0.000745 0.399205
vt 0.057962 0.189504
vt 0.766824 0.722371
vt 0.745280 0.925479
vt 0.745279 0.722371
vt 0.766824 0.925479
vt 0.745280 0.925479
vt 0.766824 0.722371
vt 0.766824 0.568446
vt 0.745279 0.722371
vt 0.745279 0.568446
vt 0.766824 0.722371
vt 0.745279 0.722371
vt 0.766824 0.568446
vt 0.766824 0.483344
vt 0.745279 0.568446
vt 0.745280 0.483344
vt 0.766824 0.568446
vt 0.745279 0.568446
vt 0.766824 0.483344
vt 0.722244 0.568446
vt 0.743789 0.483344
vt 0.743789 0.568446
vt 0.722244 0.483344
vt 0.743789 0.483344
vt 0.722244 0.568446
vt 0.722244 0.722372
vt 0.743789 0.568446
vt 0.743789 0.722372
vt 0.722244 0.568446
vt 0.743789 0.568446
vt 0.722244 0.722372
vt 0.722244 0.925478
vt 0.743789 0.722372
vt 0.743789 0.925478
vt 0.722244 0.722372
vt 0.743789 0.722372
vt 0.722244 0.925478
vt 0.533138 0.722372
vt 0.511594 0.925479
vt 0.511594 0.722372
vt 0.533139 0.925479
vt 0.511594 0.925479
vt 0.533138 0.722372
vt 0.533139 0.568447
vt 0.511594 0.722372
vt 0.511594 0.568447
vt 0.533138 0.722372
vt 0.511594 0.722372
vt 0.533139 0.568447
vt 0.533139 0.483344
vt 0.511594 0.568447
vt 0.511594 0.483344
vt 0.533139 0.568447
vt 0.511594 0.568447
vt 0.533139 0.483344
vt 0.495428 0.840378
vt 0.473884 0.925479
vt 0.473884 0.840378
vt 0.495428 0.925479
vt 0.473884 0.925479
vt 0.495428 0.840378
vt 0.495428 0.686453
vt 0.473884 0.840378
vt 0.473884 0.686453
vt 0.495428 0.840378
vt 0.473884 0.840378
vt 0.495428 0.686453
vt 0.495428 0.483344
vt 0.473884 0.686453
vt 0.473883 0.483344
vt 0.495428 0.686453
vt 0.473884 0.686453
vt 0.495428 0.483344
vt 0.271496 0.811969
vt 0.057962 0.783361
vt 0.000745 0.616572
vt 0.945380 0.719587
vt 0.764015 0.921459
vt 0.945380 0.280375
vt 0.764015 0.078504
vt 0.764015 0.921459
vt 0.500137 1.001556
vt 0.500137 -0.001592
vt 0.500137 1.001556
vt 0.236259 0.921459
vt 0.500137 -0.001592
vt 0.764015 0.078504
vt 0.500137 1.001556
vt 0.236259 0.078504
vt 0.236259 0.921459
vt 0.054894 0.719588
vt 0.054894 0.280375
vt 0.054894 0.719588
vt -0.001718 0.499982
vt 0.054894 0.280375
vt 0.236259 0.078504
vt 0.054894 0.719588
vt 0.236259 0.921459
vt 0.236259 0.078504
vt 0.500137 -0.001592
vt 0.764015 0.921459
vt 0.764015 0.078504
vt 0.945380 0.280375
vt 0.945380 0.719587
vt 0.945380 0.280375
vt 1.001992 0.499982

vn 0.132788 0.991144 0.000000
vn 0.132788 0.991144 0.000000
vn 0.132788 0.991144 0.000000
vn 0.132788 0.991144 0.000001
vn 0.132788 0.991144 0.000001
vn 0.132788 0.991144 0.000001
vn 0.447214 0.894427 0.000001
vn 0.447214 0.894427 0.000001
vn 0.447214 0.894427 0.000001
vn 0.447214 0.894427 0.000000
vn 0.447214 0.894427 0.000000
vn 0.447214 0.894427 0.000000
vn 0.881412 0.472347 0.000001
vn 0.881412 0.472347 0.000001
vn 0.881412 0.472347 0.000001
vn 0.881412 0.472347 -0.000001
vn 0.881412 0.472347 -0.000001
vn 0.881412 0.472347 -0.000001
vn 0.881412 -0.472348 -0.000001
vn 0.881412 -0.472348 -0.000001
vn 0.881412 -0.472348 -0.000001
vn 0.881412 -0.472348 -0.000001
vn 0.881412 -0.472348 -0.000001
vn 0.881412 -0.472348 -0.000001
vn 0.447214 -0.894427 -0.000001
vn 0.447214 -0.894427 -0.000001
vn 0.447214 -0.894427 -0.000001
vn 0.447214 -0.894427 -0.000001
vn 0.447214 -0.894427 -0.000001
vn 0.447214 -0.894427 -0.000001
vn 0.132788 -0.991144 -0.000001
vn 0.132788 -0.991144 -0.000001
vn 0.132788 -0.991144 -0.000001
vn 0.132788 -0.991144 -0.000001
vn 0.132788 -0.991144 -0.000001
vn 0.132788 -0.991144 -0.000001
vn -0.132788 -0.991144 -0.000001
vn -0.132788 -0.991144 -0.000001
vn -0.132788 -0.991144 -0.000001
vn -0.132788 -0.991144 -0.000001
vn -0.132788 -0.991144 -0.000001
vn -0.132788 -0.991144 -0.000001
vn -0.447213 -0.894427 -0.000001
vn -0.447213 -0.894427 -0.000001
vn -0.447213 -0.894427 -0.000001
vn -0.447213 -0.894427 0.000000
vn -0.447213 -0.894427 0.000000
vn -0.447213 -0.894427 0.000000
vn -0.881412 -0.472348 -0.000001
vn -0.881412 -0.472348 -0.000001
vn -0.881412 -0.472348 -0.000001
vn -0.881412 -0.472348 0.000004
vn -0.881412 -0.472348 0.000004
vn -0.881412 -0.472348 0.000004
vn -0.881413 0.472347 -0.000002
vn -0.881413 0.472347 -0.000002
vn -0.881413 0.472347 -0.000002
vn -0.881413 0.472347 0.000004
vn -0.881413 0.472347 0.000004
vn -0.881413 0.472347 0.000004
vn -0.000000 -0.000000 -1.000000
vn -0.000000 -0.000000 -1.000000
vn -0.000000 -0.000000 -1.000000
vn 0.000000 -0.000000 -1.000000
vn 0.000000 -0.000000 -1.000000
vn 0.000000 -0.000000 -1.000000
vn -0.447214 0.894427 0.000001
vn -0.447214 0.894427 0.000001
vn -0.447214 0.894427 0.000001
vn -0.447214 0.894427 0.000001
vn -0.447214 0.894427 0.000001
vn -0.447214 0.894427 0.000001
vn -0.132788 0.991144 0.000002
vn -0.132788 0.991144 0.000002
vn -0.132788 0.991144 0.000002
vn -0.132788 0.991144 0.000000
vn -0.132788 0.991144 0.000000
vn -0.132788 0.991144 0.000000
vn -0.000001 0.000000 -1.000000
vn -0.000001 0.000000 -1.000000
vn -0.000001 0.000000 -1.000000
vn -0.000000 0.000000 -1.000000
vn -0.000000 0.000000 -1.000000
vn -0.000000 0.000000 -1.000000
vn -0.000000 0.000000 -1.000000
vn -0.000000 0.000000 -1.000000
vn -0.000000 0.000000 -1.000000
vn -0.000000 0.000000 -1.000000
vn -0.000000 0.000000 -1.000000
vn -0.000000 0.000000 -1.000000
vn -0.000000 0.000000 -1.000000
vn -0.000000 0.000000 -1.000000
vn -0.000000 0.000000 -1.000000
vn -0.000000 0.000000 -1.000000
vn -0.000000 0.000000 -1.000000
vn -0.000000 0.000000 -1.000000
vn -0.000000 0.000000 -1.000000
vn -0.000000 0.000000 -1.000000
vn -0.000000 0.000000 -1.000000
vn -0.000000 0.000000 -1.000000
vn -0.000000 0.000000 -1.000000
vn -0.000000 0.000000 -1.000000
vn -0.000000 0.000000 -1.000000
vn -0.000000 0.000000 -1.000000
vn -0.000000 0.000000 -1.000000
vn -0.000000 0.000000 -1.000000
vn -0.000000 0.000000 -1.000000
vn -0.000000 0.000000 -1.000000
vn -0.000000 -0.000000 -1.000000
vn -0.000000 -0.000000 -1.000000
vn -0.000000 -0.000000 -1.000000
vn -0.000000 -0.000000 -1.000000
vn -0.000000 -0.000000 -1.000000
vn -0.000000 -0.000000 -1.000000
vn -0.000000 0.000000 -1.000000
vn -0.000000 0.000000 -1.000000
vn -0.000000 0.000000 -1.000000
vn -0.000000 -0.000000 -1.000000
vn -0.000000 -0.000000 -1.000000
vn -0.000000 -0.000000 -1.000000
vn -0.000000 0.000000 -1.000000
vn -0.000000 0.000000 -1.000000
vn -0.000000 0.000000 -1.000000
vn -0.000000 0.000000 -1.000000
vn -0.000000 0.000000 -1.000000
vn -0.000000 0.000000 -1.000000
vn -0.000000 0.000000 -1.000000
vn -0.000000 0.000000 -1.000000
vn -0.000000 0.000000 -1.000000
vn -0.000000 0.000000 -1.000000
vn -0.000000 0.000000 -1.000000
vn -0.000000 0.000000 -1.000000
vn -0.000000 0.000000 -1.000000
vn -0.000000 0.000000 -1.000000
vn -0.000000 0.000000 -1.000000
vn -0.000000 0.000000 -1.000000
vn -0.000000 0.000000 -1.000000
vn -0.000000 0.000000 -1.000000
vn -0.000000 0.000000 -1.000000
vn -0.000000 0.000000 -1.000000
vn -0.000000 0.000000 -1.000000
vn -0.000000 0.000000 -1.000000
vn -0.000000 0.000000 -1.000000
vn -0.000000 0.000000 -1.000000
vn 0.000000 0.000000 1.000000
vn 0.000000 0.000000 1.000000
vn 0.000000 0.000000 1.000000
vn 0.000000 -0.000000 1.000000
vn 0.000000 -0.000000 1.000000
vn 0.000000 -0.000000 1.000000
vn 0.000000 -0.000000 1.000000
vn 0.000000 -0.000000 1.000000
vn 0.000000 -0.000000 1.000000
vn 0.000000 -0.000000 1.000000
vn 0.000000 -0.000000 1.000000
vn 0.000000 -0.000000 1.000000
vn 0.000000 -0.000000 1.000000
vn 0.000000 -0.000000 1.000000
vn 0.000000 -0.000000 1.000000
vn 0.000000 -0.000000 1.000000
vn 0.000000 -0.000000 1.000000
vn 0.000000 -0.000000 1.000000
vn 0.000000 0.000000 1.000000
vn 0.000000 0.000000 1.000000
vn 0.000000 0.000000 1.000000
vn 0.000000 0.000000 1.000000
vn 0.000000 0.000000 1.000000
vn 0.000000 0.000000 1.000000
vn 0.000000 -0.000000 1.000000
vn 0.000000 -0.000000 1.000000
vn 0.000000 -0.000000 1.000000
vn -0.131673 -0.991293 -0.000001
vn -0.131673 -0.991293 -0.000001
vn -0.131673 -0.991293 -0.000001
vn -0.131673 -0.991293 0.000000
vn -0.131673 -0.991293 0.000000
vn -0.131673 -0.991293 0.000000
vn -0.437903 -0.899022 0.000000
vn -0.437903 -0.899022 0.000000
vn -0.437903 -0.899022 0.000000
vn -0.437903 -0.899022 -0.000001
vn -0.437903 -0.899022 -0.000001
vn -0.437903 -0.899022 -0.000001
vn -0.861617 -0.507559 0.000003
vn -0.861617 -0.507559 0.000003
vn -0.861617 -0.507559 0.000003
vn -0.861617 -0.507559 -0.000002
vn -0.861617 -0.507559 -0.000002
vn -0.861617 -0.507559 -0.000002
vn -0.861617 0.507559 0.000003
vn -0.861617 0.507559 0.000003
vn -0.861617 0.507559 0.000003
vn -0.861617 0.507559 0.000002
vn -0.861617 0.507559 0.000002
vn -0.861617 0.507559 0.000002
vn -0.437903 0.899022 0.000002
vn -0.437903 0.899022 0.000002
vn -0.437903 0.899022 0.000002
vn -0.437903 0.899022 0.000003
vn -0.437903 0.899022 0.000003
vn -0.437903 0.899022 0.000003
vn -0.131673 0.991293 0.000001
vn -0.131673 0.991293 0.000001
vn -0.131673 0.991293 0.000001
vn -0.131673 0.991293 0.000001
vn -0.131673 0.991293 0.000001
vn -0.131673 0.991293 0.000001
vn 0.131673 0.991293 0.000001
vn 0.131673 0.991293 0.000001
vn 0.131673 0.991293 0.000001
vn 0.131673 0.991293 0.000001
vn 0.131673 0.991293 0.000001
vn 0.131673 0.991293 0.000001
vn 0.437903 0.899022 0.000003
vn 0.437903 0.899022 0.000003
vn 0.437903 0.899022 0.000003
vn 0.437903 0.899022 0.000000
vn 0.437903 0.899022 0.000000
vn 0.437903 0.899022 0.000000
vn 0.861616 0.507560 0.000000
vn 0.861616 0.507560 0.000000
vn 0.861616 0.507560 0.000000
vn 0.861616 0.507560 0.000000
vn 0.861616 0.507560 0.000000
vn 0.861616 0.507560 0.000000
vn 0.861617 -0.507559 0.000000
vn 0.861617 -0.507559 0.000000
vn 0.861617 -0.507559 0.000000
vn 0.861617 -0.507559 0.000000
vn 0.861617 -0.507559 0.000000
vn 0.861617 -0.507559 0.000000
vn 0.437904 -0.899022 0.000000
vn 0.437904 -0.899022 0.000000
vn 0.437904 -0.899022 0.000000
vn 0.437904 -0.899022 0.000000
vn 0.437904 -0.899022 0.000000
vn 0.437904 -0.899022 0.000000
vn 0.131673 -0.991293 0.000000
vn 0.131673 -0.991293 0.000000
vn 0.131673 -0.991293 0.000000
vn 0.131673 -0.991293 -0.000001
vn 0.131673 -0.991293 -0.000001
vn 0.131673 -0.991293 -0.000001
vn 0.000000 0.000000 1.000000
vn 0.000000 0.000000 1.000000
vn 0.000000 0.000000 1.000000
vn -0.000000 -0.000000 -1.000000
vn -0.000000 -0.000000 -1.000000
vn -0.000000 -0.000000 -1.000000
vn -0.000000 -0.000000 -1.000000
vn -0.000000 -0.000000 -1.000000
vn -0.000000 -0.000000 -1.000000
vn -0.000000 -0.000000 -1.000000
vn -0.000000 -0.000000 -1.000000
vn -0.000000 -0.000000 -1.000000
vn -0.000000 -0.000000 -1.000000
vn -0.000000 -0.000000 -1.000000
vn -0.000000 -0.000000 -1.000000
vn -0.000000 -0.000000 -1.000000
vn -0.000000 -0.000000 -1.000000
vn -0.000000 -0.000000 -1.000000
vn -0.000000 -0.000000 -1.000000
vn -0.000000 -0.000000 -1.000000
vn -0.000000 -0.000000 -1.000000
vn -0.000000 -0.000000 -1.000000
vn -0.000000 -0.000000 -1.000000
vn -0.000000 -0.000000 -1.000000
vn -0.000000 -0.000000 -1.000000
vn -0.000000 -0.000000 -1.000000
vn -0.000000 -0.000000 -1.000000
vn -0.000000 -0.000000 -1.000000
vn -0.000000 -0.000000 -1.000000
vn -0.000000 -0.000000 -1.000000
vn -0.000000 -0.000000 -1.000000
vn -0.000000 -0.000000 -1.000000
vn -0.000000 -0.000000 -1.000000

g Material.002
f 3/1/1 1/2/2 2/3/3
f 4/4/4 1/5/5 3/6/6
f 7/7/7 5/8/8 6/9/9
f 8/10/10 5/11/11 7/12/12
f 11/13/13 9/14/14 10/15/15
f 12/16/16 9/17/17 11/18/18
f 15/19/19 13/20/20 14/21/21
f 16/22/22 13/23/23 15/24/24
f 19/25/25 17/26/26 18/27/27
f 20/28/28 17/29/29 19/30/30
f 23/31/31 21/32/32 22/33/33
f 24/34/34 21/35/35 23/36/36
f 27/37/37 25/38/38 26/39/39
f 28/40/40 25/41/41 27/42/42
f 31/43/43 29/44/44 30/45/45
f 32/46/46 29/47/47 31/48/48
f 35/49/49 33/50/50 34/51/51
f 36/52/52 33/53/53 35/54/54
f 39/55/55 37/56/56 38/57/57
f 40/58/58 37/59/59 39/60/60
f 43/61/61 41/62/62 42/63/63
f 44/64/64 41/65/65 43/66/66
f 47/67/67 45/68/68 46/69/69
f 48/70/70 45/71/71 47/72/72
f 51/73/73 49/74/74 50/75/75
f 52/76/76 49/77/77 51/78/78
f 55/79/79 53/80/80 54/81/81
f 56/82/82 53/83/83 55/84/84
f 59/85/85 57/86/86 58/87/87
f 60/88/88 57/89/89 59/90/90
f 63/91/91 61/92/92 62/93/93
f 64/94/94 61/95/95 63/96/96
f 67/97/97 65/98/98 66/99/99
f 68/100/100 65/101/101 67/102/102
f 71/103/103 69/104/104 70/105/105
f 72/106/106 69/107/107 71/108/108
f 75/109/109 73/110/110 74/111/111
f 76/112/112 73/113/113 75/114/114
f 79/115/115 77/116/116 78/117/117
f 80/118/118 77/119/119 79/120/120
f 83/121/121 81/122/122 82/123/123
f 84/124/124 81/125/125 83/126/126
f 87/127/127 85/128/128 86/129/129
f 88/130/130 85/131/131 87/132/132
f 91/133/133 89/134/134 90/135/135
f 92/136/136 89/137/137 91/138/138
f 95/139/139 93/140/140 94/141/141
f 96/142/142 93/143/143 95/144/144
f 99/145/145 97/146/146 98/147/147
f 102/148/148 100/149/149 101/150/150
f 105/151/151 103/152/152 104/153/153
f 108/154/154 106/155/155 107/156/156
f 111/157/157 109/158/158 110/159/159
f 114/160/160 112/161/161 113/162/162
f 117/163/163 115/164/164 116/165/165
f 120/166/166 118/167/167 119/168/168
f 123/169/169 121/170/170 122/171/171
f 126/172/172 124/173/173 125/174/174
f 127/175/175 124/176/176 126/177/177
f 130/178/178 128/179/179 129/180/180
f 131/181/181 128/182/182 130/183/183
f 134/184/184 132/185/185 133/186/186
f 135/187/187 132/188/188 134/189/189
f 138/190/190 136/191/191 137/192/192
f 139/193/193 136/194/194 138/195/195
f 142/196/196 140/197/197 141/198/198
f 143/199/199 140/200/200 142/201/201
f 146/202/202 144/203/203 145/204/204
f 147/205/205 144/206/206 146/207/207
f 150/208/208 148/209/209 149/210/210
f 151/211/211 148/212/212 150/213/213
f 154/214/214 152/215/215 153/216/216
f 155/217/217 152/218/218 154/219/219
f 158/220/220 156/221/221 157/222/222
f 159/223/223 156/224/224 158/225/225
f 162/226/226 160/227/227 161/228/228
f 163/229/229 160/230/230 162/231/231
f 166/232/232 164/233/233 165/234/234
f 167/235/235 164/236/236 166/237/237
f 170/238/238 168/239/239 169/240/240
f 171/241/241 168/242/242 170/243/243
f 204/244/244 202/245/245 203/246/246

g Material.003
f 174/247/247 172/248/248 173/249/249
f 177/250/250 175/251/251 176/252/252
f 180/253/253 178/254/254 179/255/255
f 183/256/256 181/257/257 182/258/258
f 186/259/259 184/260/260 185/261/261
f 189/262/262 187/263/263 188/264/264
f 192/265/265 190/266/266 191/267/267
f 195/268/268 193/269/269 194/270/270
f 198/271/271 196/272/272 197/273/273
f 201/274/274 199/275/275 200/276/276

