# Blender v3.0.0 OBJ File: 'multidecor_wooden_desk.blend'
# www.blender.org
o Cube
v -0.900000 0.700000 -1.800000
v -0.900000 0.200000 -1.800000
v -0.900000 0.700000 -2.900000
v 1.000000 0.800000 0.800000
v -0.900000 0.200000 -2.900000
v 0.800000 0.700000 -1.800000
v 0.800000 0.700000 -2.900000
v 1.000000 -1.000000 0.800000
v 1.000000 0.800000 1.000000
v -0.900000 0.300000 -1.800000
v -0.900000 0.300000 -2.900000
v 1.000000 -1.000000 1.000000
v 0.800000 0.300000 -1.800000
v -1.000000 0.800000 0.800000
v -0.900000 -0.800000 -1.800000
v 0.800000 0.300000 -2.900000
v -1.000000 -1.000000 0.800000
v -0.900000 -0.800000 -2.900000
v -1.000000 0.800000 1.000000
v -1.000000 -1.000000 1.000000
v 1.000000 1.000000 1.000000
v -1.000000 1.000000 1.000000
v 1.000000 1.000000 0.800000
v -1.000000 1.000000 0.800000
v -1.000000 0.800000 -3.000000
v 1.000000 0.800000 -3.000000
v -1.000000 1.000000 -3.000000
v 1.000000 1.000000 -3.000000
v -1.000000 0.800000 -1.700000
v 0.800000 0.800000 -3.000000
v 0.800000 0.800000 -1.700000
v -1.000000 0.700000 -3.000000
v -1.000000 0.700000 -1.700000
v 0.800000 0.700000 -3.000000
v 0.800000 0.700000 -1.700000
v -1.000000 0.300000 -3.000000
v -1.000000 0.300000 -1.700000
v 0.800000 0.300000 -3.000000
v 0.800000 0.300000 -1.700000
v -1.000000 -1.000000 -3.000000
v -1.000000 -1.000000 -1.700000
v 0.800000 -1.000000 -3.000000
v 0.800000 -1.000000 -1.700000
v 0.800000 -0.800000 -1.800000
v 0.800000 0.200000 -1.800000
v 0.800000 -0.800000 -2.900000
v 0.800000 0.200000 -2.900000
v -1.000000 0.300000 0.800000
v -0.850000 0.300000 -1.700000
v -0.850000 0.800000 0.800000
v -0.850000 0.300000 0.800000
v -0.850000 0.800000 -1.700000
v -0.850000 0.700000 -1.700000
vt 0.000276 0.654890
vt 0.000276 0.440059
vt 0.021759 0.440059
vt 0.021759 0.654890
vt 0.494939 0.654890
vt 0.688286 0.654890
vt 0.688286 0.869720
vt 0.494939 0.869720
vt 0.688286 0.891203
vt 0.634579 0.891203
vt 0.494939 0.891203
vt 0.473456 0.869720
vt 0.473456 0.654890
vt 0.494939 0.633407
vt 0.688286 0.633407
vt 0.043242 0.440059
vt 0.043242 0.654890
vt 0.043242 0.676373
vt 0.021759 0.676373
vt 0.021759 0.418576
vt 0.043242 0.418576
vt 0.451420 0.418576
vt 0.451420 0.440059
vt 0.472903 0.440059
vt 0.472903 0.461542
vt 0.451420 0.654890
vt 0.451420 0.676373
vt 0.311780 0.676373
vt 0.139915 0.698408
vt 0.000276 0.676925
vt 0.408453 0.676925
vt 0.688839 0.945463
vt 0.688839 0.768228
vt 0.699580 0.768228
vt 0.699580 0.945463
vt 0.742547 0.768228
vt 0.742547 0.945463
vt 0.882186 0.751563
vt 0.688839 0.751563
vt 0.688839 0.740822
vt 0.882186 0.740822
vt 0.451972 0.676925
vt 0.462713 0.676925
vt 0.462713 0.816564
vt 0.451972 0.816564
vt 0.451972 0.805823
vt 0.451972 0.687667
vt 0.957192 0.270728
vt 0.817552 0.270728
vt 0.817552 0.259987
vt 0.957192 0.259987
vt 0.688839 0.697856
vt 0.882186 0.697856
vt 0.409005 0.816564
vt 0.409005 0.805823
vt 0.409006 0.687667
vt 0.409006 0.676925
vt 0.817552 0.217021
vt 0.957192 0.217021
vt 0.817552 0.077381
vt 0.957192 0.077381
vt 0.930943 0.194177
vt 0.930943 0.333816
vt 0.909460 0.204918
vt 0.791304 0.204918
vt 0.791304 0.194176
vt 0.802045 0.204918
vt 0.802045 0.323075
vt 0.791304 0.333816
vt 0.791304 0.323075
vt 0.882186 0.945463
vt 0.882186 0.752116
vt 0.688839 0.558216
vt 0.882186 0.558216
vt 0.186612 0.485285
vt 0.186612 0.302679
vt 0.294027 0.302679
vt 0.294027 0.485285
vt 0.294027 0.001917
vt 0.294027 0.184522
vt 0.186612 0.184522
vt 0.186612 0.001917
vt 0.476633 0.184522
vt 0.476633 0.302679
vt 0.004006 0.302679
vt 0.004006 0.184522
vt 0.826662 0.227533
vt 0.644056 0.227533
vt 0.644056 0.184567
vt 0.826662 0.184567
vt 0.525899 0.227533
vt 0.343293 0.227533
vt 0.343293 0.184567
vt 0.525899 0.184567
vt 0.525899 0.001961
vt 0.644056 0.001961
vt 0.644056 0.410139
vt 0.525899 0.410139
vt 0.882186 0.418576
vt 0.688839 0.418576
vt 0.634579 0.434688
vt 0.000276 0.946016
vt 0.268815 0.946016
vt 0.268815 0.988982
vt 0.000276 0.929904
vt 0.268815 0.929904
vt 0.268815 0.886938
vt 0.000276 0.876196
vt 0.000276 0.698408
vt 0.408453 0.875644
vt 0.139915 0.875644
vt 0.494939 0.418576
vt 0.634579 0.418576
vt 0.688286 0.434688
vt 0.742547 0.752116
vt 0.268815 0.999723
vt 0.000276 0.999724
vt 0.268815 0.876196
vt 0.472903 0.654890
vt 0.909460 0.323075
vn 0.0000 0.0000 1.0000
vn -1.0000 0.0000 0.0000
vn 0.0000 -1.0000 0.0000
vn 1.0000 0.0000 0.0000
vn 0.0000 1.0000 0.0000
vn 0.0000 0.0000 -1.0000
s off
f 19/1/1 9/2/1 21/3/1 22/4/1
f 12/5/1 9/6/1 19/7/1 20/8/1
f 20/8/2 19/7/2 14/9/2 48/10/2 17/11/2
f 17/12/3 8/13/3 12/5/3 20/8/3
f 8/14/4 4/15/4 9/6/4 12/5/4
f 23/16/5 24/17/5 22/4/5 21/3/5
f 14/18/2 19/19/2 22/4/2 24/17/2
f 9/20/4 4/21/4 23/16/4 21/3/4
f 23/16/4 4/21/4 26/22/4 28/23/4
f 28/23/6 26/24/6 30/25/6
f 24/17/5 23/16/5 28/23/5 27/26/5
f 27/26/2 25/27/2 29/28/2
f 31/29/3 26/30/3 4/31/3
f 31/32/1 52/33/1 53/34/1 35/35/1
f 35/35/1 53/34/1 49/36/1 39/37/1
f 25/38/6 30/39/6 34/40/6 32/41/6
f 34/42/4 30/43/4 31/44/4 35/45/4 6/46/4 7/47/4
f 29/48/2 25/49/2 32/50/2 33/51/2
f 32/41/6 34/40/6 38/52/6 36/53/6
f 6/46/4 35/45/4 39/54/4 13/55/4
f 16/56/4 38/57/4 34/42/4 7/47/4
f 33/51/2 32/50/2 36/58/2 37/59/2
f 36/58/2 40/60/2 41/61/2 37/59/2
f 43/62/4 42/63/4 44/64/4
f 13/65/4 39/66/4 45/67/4 47/68/4 38/69/4 16/70/4
f 43/71/1 49/36/1 41/72/1
f 38/52/6 42/73/6 40/74/6 36/53/6
f 47/75/1 5/76/1 18/77/1 46/78/1
f 44/79/6 15/80/6 2/81/6 45/82/6
f 5/76/4 2/81/4 15/80/4 18/77/4
f 18/77/5 15/80/5 44/83/5 46/84/5
f 2/81/3 5/76/3 47/85/3 45/86/3
f 7/87/1 3/88/1 11/89/1 16/90/1
f 1/91/6 6/92/6 13/93/6 10/94/6
f 3/88/4 1/91/4 10/94/4 11/89/4
f 11/89/5 10/94/5 13/95/5 16/96/5
f 3/88/3 7/97/3 6/98/3 1/91/3
f 41/99/3 40/74/3 42/73/3 43/100/3
f 51/101/6 4/15/6 8/14/6
f 51/102/4 49/103/4 53/104/4
f 51/102/3 48/105/3 37/106/3 49/103/3
f 33/107/2 48/105/2 14/108/2
f 31/29/3 30/109/3 26/30/3
f 4/31/3 50/110/3 31/29/3
f 50/110/3 52/111/3 31/29/3
f 8/14/6 17/112/6 51/101/6
f 17/112/6 48/113/6 51/101/6
f 51/101/6 50/114/6 4/15/6
f 39/37/1 49/36/1 43/71/1
f 49/36/1 37/115/1 41/72/1
f 52/116/4 50/117/4 53/104/4
f 50/117/4 51/102/4 53/104/4
f 14/108/2 29/118/2 33/107/2
f 33/107/2 37/106/2 48/105/2
f 25/119/6 27/26/6 30/25/6
f 27/26/6 28/23/6 30/25/6
f 14/18/2 24/17/2 29/28/2
f 24/17/2 27/26/2 29/28/2
f 45/67/4 39/66/4 44/64/4
f 39/66/4 43/62/4 44/64/4
f 42/63/4 38/69/4 46/120/4
f 38/69/4 47/68/4 46/120/4
f 42/63/4 46/120/4 44/64/4
o Cube.001_Cube.005
v -0.900000 0.700000 -1.800000
v -0.900000 0.700000 -2.900000
v 0.800000 0.700000 -1.800000
v 0.800000 0.700000 -2.900000
v -0.900000 0.300000 -1.800000
v -0.900000 0.300000 -2.900000
v 0.800000 0.300000 -1.800000
v 0.800000 0.300000 -2.900000
v -0.850000 0.700000 -1.850000
v -0.850000 0.700000 -2.850000
v 0.800000 0.700000 -1.850000
v -0.850000 0.350000 -1.850000
v -0.850000 0.350000 -2.850000
v 0.800000 0.350000 -1.850000
v 0.800000 0.350000 -2.850000
v 0.800000 0.700000 -1.700000
v 0.800000 0.300000 -1.700000
v 0.800000 0.700000 -3.000000
v 0.800000 0.300000 -3.000000
v 0.900000 0.300000 -1.800000
v 0.900000 0.300000 -2.900000
v 0.900000 0.700000 -1.700000
v 0.900000 0.300000 -1.700000
v 0.900000 0.700000 -3.000000
v 0.900000 0.300000 -3.000000
v 0.800000 0.700000 -2.850000
v 0.900000 0.475278 -2.100000
v 0.900000 0.565278 -2.100000
v 0.900000 0.475278 -2.125000
v 0.900000 0.565278 -2.125000
v 0.975000 0.475278 -2.100000
v 0.975000 0.565278 -2.100000
v 0.975000 0.475278 -2.125000
v 0.975000 0.565278 -2.125000
v 0.900000 0.475278 -2.600000
v 0.900000 0.565278 -2.600000
v 0.900000 0.475278 -2.575000
v 0.900000 0.565278 -2.575000
v 0.975000 0.475278 -2.600000
v 0.975000 0.565278 -2.600000
v 0.975000 0.475278 -2.575000
v 0.975000 0.565278 -2.575000
v 0.975000 0.461778 -2.075000
v 0.975000 0.578778 -2.075000
v 0.975000 0.461778 -2.125000
v 0.975000 0.578778 -2.125000
v 0.975000 0.461778 -2.625000
v 0.975000 0.578778 -2.625000
v 0.975000 0.461778 -2.575000
v 0.975000 0.578778 -2.575000
v 1.025000 0.461778 -2.075000
v 1.025000 0.578778 -2.075000
v 1.025000 0.461778 -2.125000
v 1.025000 0.578778 -2.125000
v 1.025000 0.461778 -2.625000
v 1.025000 0.578778 -2.625000
v 1.025000 0.461778 -2.575000
v 1.025000 0.578778 -2.575000
vt 0.625000 0.250000
vt 0.625000 0.467926
vt 0.625000 0.467926
vt 0.625000 0.250000
vt 0.625000 0.250000
vt 0.625000 0.250000
vt 0.625000 0.467926
vt 0.625000 0.467926
vt 0.625000 0.250000
vt 0.625000 0.467926
vt 0.625000 0.467926
vt 0.625000 0.250000
vt 0.625000 0.250000
vt 0.625000 0.250000
vt 0.625000 0.467926
vt 0.625000 0.467926
vt 0.625000 0.467926
vt 0.625000 0.467926
vt 0.625000 0.467926
vt 0.625000 0.467926
vt 0.625000 0.467926
vt 0.625000 0.467926
vt 0.625000 0.467926
vt 0.625000 0.467926
vt 0.625000 0.467926
vt 0.625000 0.467926
vt 0.375000 0.250000
vt 0.625000 0.250000
vt 0.625000 0.500000
vt 0.375000 0.500000
vt 0.375000 0.750000
vt 0.625000 0.750000
vt 0.625000 1.000000
vt 0.375000 1.000000
vt 0.125000 0.500000
vt 0.125000 0.750000
vt 0.875000 0.500000
vt 0.875000 0.750000
vt 0.375000 0.250000
vt 0.625000 0.250000
vt 0.625000 0.500000
vt 0.375000 0.500000
vt 0.375000 0.750000
vt 0.625000 0.750000
vt 0.625000 1.000000
vt 0.375000 1.000000
vt 0.125000 0.500000
vt 0.125000 0.750000
vt 0.875000 0.500000
vt 0.875000 0.750000
vt 0.625000 0.500000
vt 0.625000 0.500000
vt 0.625000 0.750000
vt 0.375000 0.750000
vt 0.625000 0.750000
vt 0.375000 0.500000
vt 0.375000 0.500000
vt 0.375000 0.750000
vt 0.375000 0.750000
vt 0.625000 0.750000
vt 0.375000 0.500000
vt 0.625000 0.750000
vt 0.625000 0.500000
vt 0.625000 0.500000
vt 0.375000 0.750000
vt 0.375000 0.500000
vn 0.0000 0.0000 -1.0000
vn 1.0000 0.0000 0.0000
vn 0.0000 0.0000 1.0000
vn 0.0000 1.0000 0.0000
vn -1.0000 -0.0000 0.0000
vn 0.0000 -1.0000 0.0000
s off
f 54/121/7 56/122/7 60/123/7 58/124/7
f 55/125/8 54/121/8 58/124/8 59/126/8
f 57/127/9 55/125/9 59/126/9 61/128/9
f 59/126/10 58/124/10 60/123/10 61/128/10
f 62/129/7 64/130/7 67/131/7 65/132/7
f 63/133/8 62/129/8 65/132/8 66/134/8
f 79/135/9 63/133/9 66/134/9 68/136/9
f 66/134/10 65/132/10 67/131/10 68/136/10
f 60/123/8 56/122/8 69/137/8 70/138/8
f 57/127/8 61/128/8 72/139/8 71/140/8
f 71/140/9 72/139/9 78/141/9 77/142/9
f 60/123/10 70/138/10 76/143/10 73/144/10
f 61/128/10 60/123/10 73/144/10 74/145/10
f 70/138/7 69/137/7 75/146/7 76/143/7
f 72/139/10 61/128/10 74/145/10 78/141/10
f 77/142/11 74/145/11 73/144/11
f 56/122/12 64/130/12 75/146/12
f 67/131/11 79/135/11 68/136/11
f 56/122/12 54/121/12 62/129/12 64/130/12
f 55/125/12 63/133/12 62/129/12 54/121/12
f 79/135/12 63/133/12 55/125/12 57/127/12
f 82/147/7 83/148/7 87/149/7 86/150/7
f 84/151/9 85/152/9 81/153/9 80/154/9
f 82/155/12 86/150/12 84/151/12 80/156/12
f 87/149/10 83/157/10 81/158/10 85/152/10
f 90/159/7 91/160/7 95/161/7 94/162/7
f 92/163/9 93/164/9 89/165/9 88/166/9
f 90/167/10 94/162/10 92/163/10 88/168/10
f 95/161/12 91/169/12 89/170/12 93/164/12
f 87/149/11 95/161/11 94/162/11 86/150/11
f 95/161/11 87/149/11 99/171/11 103/172/11
f 95/161/8 93/164/8 101/173/8 103/172/8
f 85/152/11 84/151/11 96/174/11 97/175/11
f 84/151/11 86/150/11 98/176/11 96/174/11
f 86/150/11 94/162/11 102/177/11 98/176/11
f 93/164/8 92/163/8 100/178/8 101/173/8
f 87/149/11 85/152/11 97/175/11 99/171/11
f 92/163/8 94/162/8 102/177/8 100/178/8
f 101/173/9 100/178/9 108/179/9 109/180/9
f 100/178/10 102/177/10 110/181/10 108/179/10
f 99/171/10 97/175/10 105/182/10 107/183/10
f 103/172/10 99/171/10 107/183/10 111/184/10
f 103/172/12 101/173/12 109/180/12 111/184/12
f 97/175/9 96/174/9 104/185/9 105/182/9
f 96/174/12 98/176/12 106/186/12 104/185/12
f 98/176/12 102/177/12 110/181/12 106/186/12
f 106/186/8 110/181/8 111/184/8 107/183/8
f 64/130/12 79/135/12 77/142/12
f 107/183/8 105/182/8 104/185/8 106/186/8
f 111/184/8 110/181/8 108/179/8 109/180/8
f 79/135/12 57/127/12 77/142/12
f 57/127/12 71/140/12 77/142/12
f 77/142/12 75/146/12 64/130/12
f 75/146/12 69/137/12 56/122/12
f 76/143/11 75/146/11 73/144/11
f 75/146/11 77/142/11 73/144/11
f 77/142/11 78/141/11 74/145/11
f 67/131/11 64/130/11 79/135/11
o Cube.002_Cube.001
v 0.800000 0.200000 -3.000000
v 0.800000 0.200000 -1.700000
v 0.800000 -0.800000 -3.000000
v 0.800000 -0.800000 -1.700000
v 0.900000 0.200000 -3.000000
v 0.900000 -0.800000 -3.000000
v 0.900000 0.200000 -1.700000
v 0.900000 -0.800000 -1.700000
v 0.900000 -0.491500 -2.864098
v 0.900000 -0.491500 -2.774098
v 0.900000 -0.466500 -2.864098
v 0.900000 -0.466500 -2.774098
v 0.975000 -0.491500 -2.864098
v 0.975000 -0.491500 -2.774098
v 0.975000 -0.466500 -2.864098
v 0.975000 -0.466500 -2.774098
v 0.900000 0.008500 -2.864098
v 0.900000 0.008500 -2.774098
v 0.900000 -0.016500 -2.864098
v 0.900000 -0.016500 -2.774098
v 0.975000 0.008500 -2.864098
v 0.975000 0.008500 -2.774098
v 0.975000 -0.016500 -2.864098
v 0.975000 -0.016500 -2.774098
v 0.975000 -0.516500 -2.877598
v 0.975000 -0.516500 -2.760598
v 0.975000 -0.466500 -2.877598
v 0.975000 -0.466500 -2.760598
v 0.975000 0.033500 -2.877598
v 0.975000 0.033500 -2.760598
v 0.975000 -0.016500 -2.877598
v 0.975000 -0.016500 -2.760598
v 1.025000 -0.516500 -2.877598
v 1.025000 -0.516500 -2.760598
v 1.025000 -0.466500 -2.877598
v 1.025000 -0.466500 -2.760598
v 1.025000 0.033500 -2.877598
v 1.025000 0.033500 -2.760598
v 1.025000 -0.016500 -2.877598
v 1.025000 -0.016500 -2.760598
vt 0.000000 0.000000
vt 0.000000 0.000000
vt 0.000000 0.000000
vt 0.000000 0.000000
vt 0.000000 0.000000
vt 0.000000 0.000000
vt 0.000000 0.000000
vt 0.000000 0.000000
vt 0.375000 0.250000
vt 0.625000 0.250000
vt 0.625000 0.500000
vt 0.375000 0.500000
vt 0.375000 0.750000
vt 0.625000 0.750000
vt 0.625000 1.000000
vt 0.375000 1.000000
vt 0.125000 0.500000
vt 0.125000 0.750000
vt 0.875000 0.500000
vt 0.875000 0.750000
vt 0.375000 0.250000
vt 0.625000 0.250000
vt 0.625000 0.500000
vt 0.375000 0.500000
vt 0.375000 0.750000
vt 0.625000 0.750000
vt 0.625000 1.000000
vt 0.375000 1.000000
vt 0.125000 0.500000
vt 0.125000 0.750000
vt 0.875000 0.500000
vt 0.875000 0.750000
vt 0.625000 0.500000
vt 0.625000 0.500000
vt 0.625000 0.750000
vt 0.375000 0.750000
vt 0.625000 0.750000
vt 0.375000 0.500000
vt 0.375000 0.500000
vt 0.375000 0.750000
vt 0.375000 0.750000
vt 0.625000 0.750000
vt 0.375000 0.500000
vt 0.625000 0.750000
vt 0.625000 0.500000
vt 0.625000 0.500000
vt 0.375000 0.750000
vt 0.375000 0.500000
vn 0.0000 0.0000 -1.0000
vn 0.0000 -1.0000 0.0000
vn 0.0000 0.0000 1.0000
vn 0.0000 1.0000 0.0000
vn -1.0000 0.0000 0.0000
vn 1.0000 0.0000 0.0000
s off
f 114/187/13 112/188/13 116/189/13 117/190/13
f 115/191/14 114/187/14 117/190/14 119/192/14
f 113/193/15 115/191/15 119/192/15 118/194/15
f 122/195/16 123/196/16 127/197/16 126/198/16
f 124/199/14 125/200/14 121/201/14 120/202/14
f 122/203/13 126/198/13 124/199/13 120/204/13
f 127/197/15 123/205/15 121/206/15 125/200/15
f 130/207/16 131/208/16 135/209/16 134/210/16
f 132/211/14 133/212/14 129/213/14 128/214/14
f 130/215/15 134/210/15 132/211/15 128/216/15
f 135/209/13 131/217/13 129/218/13 133/212/13
f 127/197/17 135/209/17 134/210/17 126/198/17
f 135/209/17 127/197/17 139/219/17 143/220/17
f 135/209/18 133/212/18 141/221/18 143/220/18
f 125/200/17 124/199/17 136/222/17 137/223/17
f 124/199/17 126/198/17 138/224/17 136/222/17
f 126/198/17 134/210/17 142/225/17 138/224/17
f 133/212/18 132/211/18 140/226/18 141/221/18
f 127/197/17 125/200/17 137/223/17 139/219/17
f 132/211/18 134/210/18 142/225/18 140/226/18
f 141/221/14 140/226/14 148/227/14 149/228/14
f 140/226/15 142/225/15 150/229/15 148/227/15
f 139/219/15 137/223/15 145/230/15 147/231/15
f 143/220/15 139/219/15 147/231/15 151/232/15
f 143/220/13 141/221/13 149/228/13 151/232/13
f 137/223/14 136/222/14 144/233/14 145/230/14
f 136/222/13 138/224/13 146/234/13 144/233/13
f 138/224/13 142/225/13 150/229/13 146/234/13
f 146/234/18 150/229/18 151/232/18 147/231/18
f 147/231/18 145/230/18 144/233/18 146/234/18
f 151/232/18 150/229/18 148/227/18 149/228/18
f 116/189/16 112/188/16 113/193/16 118/194/16
f 114/187/17 115/191/17 113/193/17 112/188/17
f 117/190/18 116/189/18 118/194/18 119/192/18
