# Converted from B3D for Luanti (With Correct Normals)
# Object Name: multidecor_kitchen_chandelier

v -0.250000 1.000000 0.250000
v 0.250000 1.000000 0.250000
v 0.250000 1.000000 -0.250000
v -0.250000 1.000000 -0.250000
v -0.250000 0.900000 -0.250000
v -0.250000 1.000000 -0.250000
v 0.250000 1.000000 -0.250000
v 0.250000 0.900000 -0.250000
v 0.250000 0.900000 -0.250000
v 0.250000 1.000000 -0.250000
v 0.250000 1.000000 0.250000
v 0.250000 0.900000 0.250000
v 0.250000 0.900000 0.250000
v -0.250000 0.900000 0.250000
v -0.250000 0.900000 -0.250000
v 0.250000 0.900000 -0.250000
v -0.250000 0.900000 0.250000
v -0.250000 1.000000 0.250000
v -0.250000 1.000000 -0.250000
v -0.250000 0.900000 -0.250000
v 0.250000 0.900000 0.250000
v 0.250000 1.000000 0.250000
v -0.250000 1.000000 0.250000
v -0.250000 0.900000 0.250000
v -0.025000 0.900000 -0.025000
v 0.025000 0.900000 -0.025000
v 0.025000 -0.250000 -0.025000
v -0.025000 -0.250000 -0.025000
v 0.025000 0.900000 -0.025000
v 0.025000 0.900000 0.025000
v 0.025000 -0.250000 0.025000
v 0.025000 -0.250000 -0.025000
v -0.025000 0.900000 0.025000
v -0.025000 0.900000 -0.025000
v -0.025000 -0.250000 -0.025000
v -0.025000 -0.250000 0.025000
v 0.025000 0.900000 0.025000
v -0.025000 0.900000 0.025000
v -0.025000 -0.250000 0.025000
v 0.025000 -0.250000 0.025000
v -0.000000 -0.945778 0.750000
v -0.000000 -0.658765 0.692910
v -0.346455 -0.658765 0.600077
v -0.375000 -0.945778 0.649519
v 0.000000 -0.415448 0.530330
v -0.000000 -0.252868 0.287013
v -0.143506 -0.252868 0.248560
v -0.265165 -0.415448 0.459279
v -0.000000 -0.658765 0.692910
v 0.000000 -0.415448 0.530330
v -0.265165 -0.415448 0.459279
v -0.346455 -0.658765 0.600077
v -0.000000 -0.252868 0.287013
v 0.000000 -0.195778 0.000000
v -0.143506 -0.252868 0.248560
v -0.346455 -0.658765 0.600077
v -0.265165 -0.415448 0.459279
v -0.459279 -0.415448 0.265165
v -0.600077 -0.658765 0.346455
v -0.143506 -0.252868 0.248560
v 0.000000 -0.195778 0.000000
v -0.248560 -0.252868 0.143506
v -0.375000 -0.945778 0.649519
v -0.346455 -0.658765 0.600077
v -0.600077 -0.658765 0.346455
v -0.649519 -0.945778 0.375000
v -0.265165 -0.415448 0.459279
v -0.143506 -0.252868 0.248560
v -0.248560 -0.252868 0.143506
v -0.459279 -0.415448 0.265165
v -0.600077 -0.658765 0.346455
v -0.459279 -0.415448 0.265165
v -0.530330 -0.415448 0.000000
v -0.692910 -0.658765 0.000000
v -0.248560 -0.252868 0.143506
v 0.000000 -0.195778 0.000000
v -0.287012 -0.252868 0.000000
v -0.649519 -0.945778 0.375000
v -0.600077 -0.658765 0.346455
v -0.692910 -0.658765 0.000000
v -0.750000 -0.945778 0.000000
v -0.459279 -0.415448 0.265165
v -0.248560 -0.252868 0.143506
v -0.287012 -0.252868 0.000000
v -0.530330 -0.415448 0.000000
v -0.750000 -0.945778 0.000000
v -0.692910 -0.658765 0.000000
v -0.600077 -0.658765 -0.346455
v -0.649519 -0.945778 -0.375000
v -0.530330 -0.415448 0.000000
v -0.287012 -0.252868 0.000000
v -0.248560 -0.252868 -0.143506
v -0.459279 -0.415448 -0.265165
v -0.692910 -0.658765 0.000000
v -0.530330 -0.415448 0.000000
v -0.459279 -0.415448 -0.265165
v -0.600077 -0.658765 -0.346455
v -0.287012 -0.252868 0.000000
v 0.000000 -0.195778 0.000000
v -0.248560 -0.252868 -0.143506
v -0.649519 -0.945778 -0.375000
v -0.600077 -0.658765 -0.346455
v -0.346455 -0.658765 -0.600077
v -0.375000 -0.945778 -0.649519
v -0.459279 -0.415448 -0.265165
v -0.248560 -0.252868 -0.143506
v -0.143506 -0.252868 -0.248560
v -0.265165 -0.415448 -0.459279
v -0.600077 -0.658765 -0.346455
v -0.459279 -0.415448 -0.265165
v -0.265165 -0.415448 -0.459279
v -0.346455 -0.658765 -0.600077
v -0.248560 -0.252868 -0.143506
v 0.000000 -0.195778 0.000000
v -0.143506 -0.252868 -0.248560
v -0.346455 -0.658765 -0.600077
v -0.265165 -0.415448 -0.459279
v 0.000000 -0.415448 -0.530330
v 0.000000 -0.658765 -0.692909
v -0.143506 -0.252868 -0.248560
v 0.000000 -0.195778 0.000000
v 0.000000 -0.252868 -0.287012
v -0.375000 -0.945778 -0.649519
v -0.346455 -0.658765 -0.600077
v 0.000000 -0.658765 -0.692909
v 0.000000 -0.945778 -0.750000
v -0.265165 -0.415448 -0.459279
v -0.143506 -0.252868 -0.248560
v 0.000000 -0.252868 -0.287012
v 0.000000 -0.415448 -0.530330
v 0.000000 -0.658765 -0.692909
v 0.000000 -0.415448 -0.530330
v 0.265165 -0.415448 -0.459279
v 0.346455 -0.658765 -0.600077
v 0.000000 -0.252868 -0.287012
v 0.000000 -0.195778 0.000000
v 0.143506 -0.252868 -0.248560
v 0.000000 -0.945778 -0.750000
v 0.000000 -0.658765 -0.692909
v 0.346455 -0.658765 -0.600077
v 0.375000 -0.945778 -0.649519
v 0.000000 -0.415448 -0.530330
v 0.000000 -0.252868 -0.287012
v 0.143506 -0.252868 -0.248560
v 0.265165 -0.415448 -0.459279
v 0.375000 -0.945778 -0.649519
v 0.346455 -0.658765 -0.600077
v 0.600077 -0.658765 -0.346455
v 0.649519 -0.945778 -0.375000
v 0.265165 -0.415448 -0.459279
v 0.143506 -0.252868 -0.248560
v 0.248560 -0.252868 -0.143506
v 0.459279 -0.415448 -0.265165
v 0.346455 -0.658765 -0.600077
v 0.265165 -0.415448 -0.459279
v 0.459279 -0.415448 -0.265165
v 0.600077 -0.658765 -0.346455
v 0.143506 -0.252868 -0.248560
v 0.000000 -0.195778 0.000000
v 0.248560 -0.252868 -0.143506
v 0.459279 -0.415448 -0.265165
v 0.248560 -0.252868 -0.143506
v 0.287012 -0.252868 0.000000
v 0.530330 -0.415448 0.000000
v 0.600077 -0.658765 -0.346455
v 0.459279 -0.415448 -0.265165
v 0.530330 -0.415448 0.000000
v 0.692910 -0.658765 0.000000
v 0.248560 -0.252868 -0.143506
v 0.000000 -0.195778 0.000000
v 0.287012 -0.252868 0.000000
v 0.649519 -0.945778 -0.375000
v 0.600077 -0.658765 -0.346455
v 0.692910 -0.658765 0.000000
v 0.750000 -0.945778 0.000000
v 0.692910 -0.658765 0.000000
v 0.530330 -0.415448 0.000000
v 0.459279 -0.415448 0.265165
v 0.600077 -0.658765 0.346455
v 0.287012 -0.252868 0.000000
v 0.000000 -0.195778 0.000000
v 0.248560 -0.252868 0.143506
v 0.750000 -0.945778 0.000000
v 0.692910 -0.658765 0.000000
v 0.600077 -0.658765 0.346455
v 0.649519 -0.945778 0.375000
v 0.530330 -0.415448 0.000000
v 0.287012 -0.252868 0.000000
v 0.248560 -0.252868 0.143506
v 0.459279 -0.415448 0.265165
v 0.248560 -0.252868 0.143506
v 0.000000 -0.195778 0.000000
v 0.143506 -0.252868 0.248560
v 0.649519 -0.945778 0.375000
v 0.600077 -0.658765 0.346455
v 0.346455 -0.658765 0.600077
v 0.375000 -0.945778 0.649519
v 0.459279 -0.415448 0.265165
v 0.248560 -0.252868 0.143506
v 0.143506 -0.252868 0.248560
v 0.265165 -0.415448 0.459279
v 0.600077 -0.658765 0.346455
v 0.459279 -0.415448 0.265165
v 0.265165 -0.415448 0.459279
v 0.346455 -0.658765 0.600077
v 0.375000 -0.945778 0.649519
v 0.346455 -0.658765 0.600077
v -0.000000 -0.658765 0.692910
v -0.000000 -0.945778 0.750000
v 0.265165 -0.415448 0.459279
v 0.143506 -0.252868 0.248560
v -0.000000 -0.252868 0.287013
v 0.000000 -0.415448 0.530330
v 0.346455 -0.658765 0.600077
v 0.265165 -0.415448 0.459279
v 0.000000 -0.415448 0.530330
v -0.000000 -0.658765 0.692910
v 0.143506 -0.252868 0.248560
v 0.000000 -0.195778 0.000000
v -0.000000 -0.252868 0.287013
v -0.000000 -0.943570 0.680330
v -0.000000 -0.685258 0.628949
v -0.311809 -0.685258 0.545400
v -0.337500 -0.943570 0.589897
v 0.000000 -0.466273 0.482627
v -0.000000 -0.319951 0.263641
v -0.129156 -0.319951 0.229034
v -0.238648 -0.466273 0.418681
v -0.000000 -0.685258 0.628949
v 0.000000 -0.466273 0.482627
v -0.238648 -0.466273 0.418681
v -0.311809 -0.685258 0.545400
v -0.000000 -0.319951 0.263641
v 0.000000 -0.268570 0.005330
v -0.129156 -0.319951 0.229034
v -0.311809 -0.685258 0.545400
v -0.238648 -0.466273 0.418681
v -0.413351 -0.466273 0.243979
v -0.540070 -0.685258 0.317139
v -0.129156 -0.319951 0.229034
v 0.000000 -0.268570 0.005330
v -0.223704 -0.319951 0.134486
v -0.337500 -0.943570 0.589897
v -0.311809 -0.685258 0.545400
v -0.540070 -0.685258 0.317139
v -0.584567 -0.943570 0.342830
v -0.238648 -0.466273 0.418681
v -0.129156 -0.319951 0.229034
v -0.223704 -0.319951 0.134486
v -0.413351 -0.466273 0.243979
v -0.540070 -0.685258 0.317139
v -0.413351 -0.466273 0.243979
v -0.477297 -0.466273 0.005330
v -0.623619 -0.685258 0.005330
v -0.223704 -0.319951 0.134486
v 0.000000 -0.268570 0.005330
v -0.258311 -0.319951 0.005330
v -0.584567 -0.943570 0.342830
v -0.540070 -0.685258 0.317139
v -0.623619 -0.685258 0.005330
v -0.675000 -0.943570 0.005330
v -0.413351 -0.466273 0.243979
v -0.223704 -0.319951 0.134486
v -0.258311 -0.319951 0.005330
v -0.477297 -0.466273 0.005330
v -0.675000 -0.943570 0.005330
v -0.623619 -0.685258 0.005330
v -0.540070 -0.685258 -0.306479
v -0.584567 -0.943570 -0.332170
v -0.477297 -0.466273 0.005330
v -0.258311 -0.319951 0.005330
v -0.223704 -0.319951 -0.123825
v -0.413351 -0.466273 -0.233318
v -0.623619 -0.685258 0.005330
v -0.477297 -0.466273 0.005330
v -0.413351 -0.466273 -0.233318
v -0.540070 -0.685258 -0.306479
v -0.258311 -0.319951 0.005330
v 0.000000 -0.268570 0.005330
v -0.223704 -0.319951 -0.123825
v -0.584567 -0.943570 -0.332170
v -0.540070 -0.685258 -0.306479
v -0.311809 -0.685258 -0.534739
v -0.337500 -0.943570 -0.579237
v -0.413351 -0.466273 -0.233318
v -0.223704 -0.319951 -0.123825
v -0.129156 -0.319951 -0.218374
v -0.238648 -0.466273 -0.408021
v -0.540070 -0.685258 -0.306479
v -0.413351 -0.466273 -0.233318
v -0.238648 -0.466273 -0.408021
v -0.311809 -0.685258 -0.534739
v -0.223704 -0.319951 -0.123825
v 0.000000 -0.268570 0.005330
v -0.129156 -0.319951 -0.218374
v -0.311809 -0.685258 -0.534739
v -0.238648 -0.466273 -0.408021
v 0.000000 -0.466273 -0.471967
v 0.000000 -0.685258 -0.618288
v -0.129156 -0.319951 -0.218374
v 0.000000 -0.268570 0.005330
v 0.000000 -0.319951 -0.252981
v -0.337500 -0.943570 -0.579237
v -0.311809 -0.685258 -0.534739
v 0.000000 -0.685258 -0.618288
v 0.000000 -0.943570 -0.669670
v -0.238648 -0.466273 -0.408021
v -0.129156 -0.319951 -0.218374
v 0.000000 -0.319951 -0.252981
v 0.000000 -0.466273 -0.471967
v 0.000000 -0.685258 -0.618288
v 0.000000 -0.466273 -0.471967
v 0.238649 -0.466273 -0.408021
v 0.311809 -0.685258 -0.534739
v 0.000000 -0.319951 -0.252981
v 0.000000 -0.268570 0.005330
v 0.129156 -0.319951 -0.218374
v 0.000000 -0.943570 -0.669670
v 0.000000 -0.685258 -0.618288
v 0.311809 -0.685258 -0.534739
v 0.337500 -0.943570 -0.579237
v 0.000000 -0.466273 -0.471967
v 0.000000 -0.319951 -0.252981
v 0.129156 -0.319951 -0.218374
v 0.238649 -0.466273 -0.408021
v 0.337500 -0.943570 -0.579237
v 0.311809 -0.685258 -0.534739
v 0.540070 -0.685258 -0.306479
v 0.584567 -0.943570 -0.332170
v 0.238649 -0.466273 -0.408021
v 0.129156 -0.319951 -0.218374
v 0.223704 -0.319951 -0.123825
v 0.413351 -0.466273 -0.233318
v 0.311809 -0.685258 -0.534739
v 0.238649 -0.466273 -0.408021
v 0.413351 -0.466273 -0.233318
v 0.540070 -0.685258 -0.306479
v 0.129156 -0.319951 -0.218374
v 0.000000 -0.268570 0.005330
v 0.223704 -0.319951 -0.123825
v 0.413351 -0.466273 -0.233318
v 0.223704 -0.319951 -0.123825
v 0.258311 -0.319951 0.005330
v 0.477297 -0.466273 0.005330
v 0.540070 -0.685258 -0.306479
v 0.413351 -0.466273 -0.233318
v 0.477297 -0.466273 0.005330
v 0.623619 -0.685258 0.005330
v 0.223704 -0.319951 -0.123825
v 0.000000 -0.268570 0.005330
v 0.258311 -0.319951 0.005330
v 0.584567 -0.943570 -0.332170
v 0.540070 -0.685258 -0.306479
v 0.623619 -0.685258 0.005330
v 0.675000 -0.943570 0.005330
v 0.623619 -0.685258 0.005330
v 0.477297 -0.466273 0.005330
v 0.413351 -0.466273 0.243979
v 0.540070 -0.685258 0.317140
v 0.258311 -0.319951 0.005330
v 0.000000 -0.268570 0.005330
v 0.223704 -0.319951 0.134486
v 0.675000 -0.943570 0.005330
v 0.623619 -0.685258 0.005330
v 0.540070 -0.685258 0.317140
v 0.584567 -0.943570 0.342830
v 0.477297 -0.466273 0.005330
v 0.258311 -0.319951 0.005330
v 0.223704 -0.319951 0.134486
v 0.413351 -0.466273 0.243979
v 0.223704 -0.319951 0.134486
v 0.000000 -0.268570 0.005330
v 0.129156 -0.319951 0.229034
v 0.584567 -0.943570 0.342830
v 0.540070 -0.685258 0.317140
v 0.311809 -0.685258 0.545400
v 0.337500 -0.943570 0.589897
v 0.413351 -0.466273 0.243979
v 0.223704 -0.319951 0.134486
v 0.129156 -0.319951 0.229034
v 0.238648 -0.466273 0.418682
v 0.540070 -0.685258 0.317140
v 0.413351 -0.466273 0.243979
v 0.238648 -0.466273 0.418682
v 0.311809 -0.685258 0.545400
v 0.337500 -0.943570 0.589897
v 0.311809 -0.685258 0.545400
v -0.000000 -0.685258 0.628949
v -0.000000 -0.943570 0.680330
v 0.238648 -0.466273 0.418682
v 0.129156 -0.319951 0.229034
v -0.000000 -0.319951 0.263641
v 0.000000 -0.466273 0.482627
v 0.311809 -0.685258 0.545400
v 0.238648 -0.466273 0.418682
v 0.000000 -0.466273 0.482627
v -0.000000 -0.685258 0.628949
v 0.129156 -0.319951 0.229034
v 0.000000 -0.268570 0.005330
v -0.000000 -0.319951 0.263641
v 0.375000 -0.945778 -0.649519
v 0.337500 -0.943570 -0.579237
v 0.000000 -0.943570 -0.669670
v 0.000000 -0.945778 -0.750000
v 0.649519 -0.945778 -0.375000
v 0.584567 -0.943570 -0.332170
v 0.337500 -0.943570 -0.579237
v 0.375000 -0.945778 -0.649519
v 0.750000 -0.945778 0.000000
v 0.675000 -0.943570 0.005330
v 0.584567 -0.943570 -0.332170
v 0.649519 -0.945778 -0.375000
v 0.649519 -0.945778 0.375000
v 0.584567 -0.943570 0.342830
v 0.675000 -0.943570 0.005330
v 0.750000 -0.945778 0.000000
v 0.375000 -0.945778 0.649519
v 0.337500 -0.943570 0.589897
v 0.584567 -0.943570 0.342830
v 0.649519 -0.945778 0.375000
v -0.000000 -0.945778 0.750000
v -0.000000 -0.943570 0.680330
v 0.337500 -0.943570 0.589897
v 0.375000 -0.945778 0.649519
v -0.375000 -0.945778 0.649519
v -0.337500 -0.943570 0.589897
v -0.000000 -0.943570 0.680330
v -0.000000 -0.945778 0.750000
v -0.649519 -0.945778 0.375000
v -0.584567 -0.943570 0.342830
v -0.337500 -0.943570 0.589897
v -0.375000 -0.945778 0.649519
v -0.750000 -0.945778 0.000000
v -0.675000 -0.943570 0.005330
v -0.584567 -0.943570 0.342830
v -0.649519 -0.945778 0.375000
v -0.649519 -0.945778 -0.375000
v -0.584567 -0.943570 -0.332170
v -0.675000 -0.943570 0.005330
v -0.750000 -0.945778 0.000000
v -0.375000 -0.945778 -0.649519
v -0.337500 -0.943570 -0.579237
v -0.584567 -0.943570 -0.332170
v -0.649519 -0.945778 -0.375000
v 0.000000 -0.945778 -0.750000
v 0.000000 -0.943570 -0.669670
v -0.337500 -0.943570 -0.579237
v -0.375000 -0.945778 -0.649519
v 0.161818 -0.848552 -0.141415
v 0.080916 -0.646525 -0.066291
v 0.004561 -0.645995 -0.102038
v 0.009719 -0.847760 -0.212624
v 0.219015 -0.851030 0.016479
v 0.109629 -0.648184 0.012973
v 0.080916 -0.646525 -0.066291
v 0.161818 -0.848552 -0.141415
v 0.219015 -0.851030 0.016479
v 0.147803 -0.853743 0.168566
v 0.073880 -0.650000 0.089321
v 0.109629 -0.648184 0.012973
v -0.010102 -0.855102 0.225754
v -0.005388 -0.650910 0.118030
v 0.073880 -0.650000 0.089321
v 0.147803 -0.853743 0.168566
v -0.162201 -0.854310 0.154544
v -0.081743 -0.650379 0.082282
v -0.005388 -0.650910 0.118030
v -0.010102 -0.855102 0.225754
v -0.219397 -0.851832 -0.003350
v -0.110456 -0.648720 0.003019
v -0.081743 -0.650379 0.082282
v -0.162201 -0.854310 0.154544
v -0.219397 -0.851832 -0.003350
v -0.148186 -0.849118 -0.155436
v -0.074708 -0.646904 -0.073329
v -0.110456 -0.648720 0.003019
v 0.009719 -0.847760 -0.212624
v 0.004561 -0.645995 -0.102038
v -0.074708 -0.646904 -0.073329
v -0.148186 -0.849118 -0.155436
v 0.004561 -0.645995 -0.102038
v 0.080916 -0.646525 -0.066291
v 0.080916 -0.546525 -0.066291
v 0.004561 -0.545995 -0.102038
v 0.009719 -0.847760 -0.212624
v -0.148186 -0.849118 -0.155436
v -0.147964 -1.002097 -0.156867
v 0.009941 -1.000738 -0.214055
v -0.219175 -1.004810 -0.004781
v -0.147964 -1.002097 -0.156867
v -0.148186 -0.849118 -0.155436
v -0.219397 -0.851832 -0.003350
v -0.219175 -1.004810 -0.004781
v -0.219397 -0.851832 -0.003350
v -0.162201 -0.854310 0.154544
v -0.161979 -1.007289 0.153113
v -0.009880 -1.008080 0.224323
v -0.161979 -1.007289 0.153113
v -0.162201 -0.854310 0.154544
v -0.010102 -0.855102 0.225754
v -0.010102 -0.855102 0.225754
v 0.147803 -0.853743 0.168566
v 0.148025 -1.006722 0.167134
v -0.009880 -1.008080 0.224323
v 0.147803 -0.853743 0.168566
v 0.219015 -0.851030 0.016479
v 0.219236 -1.004008 0.015048
v 0.148025 -1.006722 0.167134
v 0.162040 -1.001530 -0.142846
v 0.219236 -1.004008 0.015048
v 0.219015 -0.851030 0.016479
v 0.161818 -0.848552 -0.141415
v 0.009941 -1.000738 -0.214055
v 0.162040 -1.001530 -0.142846
v 0.161818 -0.848552 -0.141415
v 0.009719 -0.847760 -0.212624
v 0.009941 -1.000738 -0.214055
v -0.147964 -1.002097 -0.156867
v -0.120400 -1.100779 -0.127770
v 0.008247 -1.099672 -0.174363
v 0.162040 -1.001530 -0.142846
v 0.009941 -1.000738 -0.214055
v 0.008247 -1.099672 -0.174363
v 0.132165 -1.100317 -0.116347
v 0.162040 -1.001530 -0.142846
v 0.132165 -1.100317 -0.116347
v 0.178764 -1.102337 0.012292
v 0.219236 -1.004008 0.015048
v 0.219236 -1.004008 0.015048
v 0.178764 -1.102337 0.012292
v 0.120747 -1.104547 0.136199
v 0.148025 -1.006722 0.167134
v -0.009880 -1.008080 0.224323
v 0.148025 -1.006722 0.167134
v 0.120747 -1.104547 0.136199
v -0.007901 -1.105654 0.182791
v -0.120400 -1.100779 -0.127770
v -0.147964 -1.002097 -0.156867
v -0.219175 -1.004810 -0.004781
v -0.178417 -1.102989 -0.003863
v -0.219175 -1.004810 -0.004781
v -0.161979 -1.007289 0.153113
v -0.131819 -1.105008 0.124775
v -0.178417 -1.102989 -0.003863
v -0.131819 -1.105008 0.124775
v -0.161979 -1.007289 0.153113
v -0.009880 -1.008080 0.224323
v -0.007901 -1.105654 0.182791
v -0.131819 -1.105008 0.124775
v -0.007901 -1.105654 0.182791
v -0.004427 -1.155689 0.107822
v -0.076856 -1.155312 0.073912
v -0.178417 -1.102989 -0.003863
v -0.131819 -1.105008 0.124775
v -0.076856 -1.155312 0.073912
v -0.104093 -1.154132 -0.001277
v -0.120400 -1.100779 -0.127770
v -0.178417 -1.102989 -0.003863
v -0.104093 -1.154132 -0.001277
v -0.070183 -1.152840 -0.073701
v 0.008247 -1.099672 -0.174363
v -0.120400 -1.100779 -0.127770
v -0.070183 -1.152840 -0.073701
v 0.005012 -1.152193 -0.100934
v 0.132165 -1.100317 -0.116347
v 0.008247 -1.099672 -0.174363
v 0.005012 -1.152193 -0.100934
v 0.077442 -1.152570 -0.067024
v 0.077442 -1.152570 -0.067024
v 0.104679 -1.153750 0.008165
v 0.178764 -1.102337 0.012292
v 0.132165 -1.100317 -0.116347
v 0.104679 -1.153750 0.008165
v 0.070768 -1.155043 0.080589
v 0.120747 -1.104547 0.136199
v 0.178764 -1.102337 0.012292
v 0.120747 -1.104547 0.136199
v 0.070768 -1.155043 0.080589
v -0.004427 -1.155689 0.107822
v -0.007901 -1.105654 0.182791
v 0.070768 -1.155043 0.080589
v 0.104679 -1.153750 0.008165
v -0.004427 -1.155689 0.107822
v -0.004427 -1.155689 0.107822
v 0.104679 -1.153750 0.008165
v 0.077442 -1.152570 -0.067024
v -0.076856 -1.155312 0.073912
v -0.076856 -1.155312 0.073912
v 0.077442 -1.152570 -0.067024
v -0.104093 -1.154132 -0.001277
v -0.104093 -1.154132 -0.001277
v 0.077442 -1.152570 -0.067024
v 0.005012 -1.152193 -0.100934
v -0.104093 -1.154132 -0.001277
v 0.005012 -1.152193 -0.100934
v -0.070183 -1.152840 -0.073701
v 0.080916 -0.646525 -0.066291
v 0.109629 -0.648184 0.012973
v 0.109629 -0.548184 0.012973
v 0.080916 -0.546525 -0.066291
v 0.073880 -0.650000 0.089321
v -0.005388 -0.650910 0.118030
v -0.005388 -0.550910 0.118030
v 0.073880 -0.550000 0.089321
v -0.081743 -0.650379 0.082282
v -0.110456 -0.648720 0.003019
v -0.110456 -0.548720 0.003019
v -0.081743 -0.550379 0.082282
v -0.074708 -0.646904 -0.073329
v 0.004561 -0.645995 -0.102038
v 0.004561 -0.545995 -0.102038
v -0.074708 -0.546904 -0.073329
v 0.109629 -0.648184 0.012973
v 0.073880 -0.650000 0.089321
v 0.073880 -0.550000 0.089321
v 0.109629 -0.548184 0.012973
v -0.110456 -0.648720 0.003019
v -0.074708 -0.646904 -0.073329
v -0.074708 -0.546904 -0.073329
v -0.110456 -0.548720 0.003019
v -0.005388 -0.650910 0.118030
v -0.081743 -0.650379 0.082282
v -0.081743 -0.550379 0.082282
v -0.005388 -0.550910 0.118030
v -0.005388 -0.550910 0.118030
v -0.081743 -0.550379 0.082282
v -0.098009 -0.550379 0.097140
v -0.006383 -0.550910 0.140037
v -0.081743 -0.550379 0.082282
v -0.110456 -0.548720 0.003019
v -0.132464 -0.548720 0.002023
v -0.098009 -0.550379 0.097140
v -0.074708 -0.546904 -0.073329
v 0.004561 -0.545995 -0.102038
v 0.005556 -0.545995 -0.124045
v -0.089566 -0.546904 -0.089594
v 0.080916 -0.546525 -0.066291
v 0.109629 -0.548184 0.012973
v 0.131637 -0.548184 0.013969
v 0.097182 -0.546525 -0.081148
v 0.073880 -0.550000 0.089321
v -0.005388 -0.550910 0.118030
v -0.006383 -0.550910 0.140037
v 0.088739 -0.550000 0.105586
v 0.004561 -0.545995 -0.102038
v 0.080916 -0.546525 -0.066291
v 0.097182 -0.546525 -0.081148
v 0.005556 -0.545995 -0.124045
v -0.110456 -0.548720 0.003019
v -0.074708 -0.546904 -0.073329
v -0.089566 -0.546904 -0.089594
v -0.132464 -0.548720 0.002023
v 0.109629 -0.548184 0.012973
v 0.073880 -0.550000 0.089321
v 0.088739 -0.550000 0.105586
v 0.131637 -0.548184 0.013969
v 0.005556 -0.545995 -0.124045
v 0.097182 -0.546525 -0.081148
v 0.097182 -0.246525 -0.081148
v 0.005556 -0.245995 -0.124045
v -0.132464 -0.548720 0.002023
v -0.089566 -0.546904 -0.089594
v -0.089566 -0.246904 -0.089594
v -0.132464 -0.248720 0.002023
v 0.131637 -0.548184 0.013969
v 0.088739 -0.550000 0.105586
v 0.088739 -0.250000 0.105586
v 0.131637 -0.248184 0.013969
v -0.006383 -0.550910 0.140037
v -0.098009 -0.550379 0.097140
v -0.098009 -0.250379 0.097140
v -0.006383 -0.250910 0.140037
v -0.089566 -0.546904 -0.089594
v 0.005556 -0.545995 -0.124045
v 0.005556 -0.245995 -0.124045
v -0.089566 -0.246904 -0.089594
v 0.097182 -0.546525 -0.081148
v 0.131637 -0.548184 0.013969
v 0.131637 -0.248184 0.013969
v 0.097182 -0.246525 -0.081148
v 0.088739 -0.550000 0.105586
v -0.006383 -0.550910 0.140037
v -0.006383 -0.250910 0.140037
v 0.088739 -0.250000 0.105586
v -0.098009 -0.550379 0.097140
v -0.132464 -0.548720 0.002023
v -0.132464 -0.248720 0.002023
v -0.098009 -0.250379 0.097140

vt 0.071526 0.000136
vt 0.428474 0.357084
vt 0.071526 0.357084
vt 0.428474 0.000136
vt 0.428474 0.357084
vt 0.071526 0.000136
vt 0.071526 0.856812
vt 0.428474 0.785422
vt 0.428474 0.856812
vt 0.071526 0.785422
vt 0.428474 0.785422
vt 0.071526 0.856812
vt 0.000136 0.428474
vt 0.071526 0.785422
vt 0.000136 0.785422
vt 0.071526 0.428474
vt 0.071526 0.785422
vt 0.000136 0.428474
vt 0.428474 0.785422
vt 0.071526 0.428474
vt 0.428474 0.428474
vt 0.071526 0.785422
vt 0.071526 0.428474
vt 0.428474 0.785422
vt 0.499864 0.785422
vt 0.428474 0.428474
vt 0.499864 0.428474
vt 0.428474 0.785422
vt 0.428474 0.428474
vt 0.499864 0.785422
vt 0.428474 0.357084
vt 0.071526 0.428474
vt 0.071526 0.357084
vt 0.428474 0.428474
vt 0.071526 0.428474
vt 0.428474 0.357084
vt 0.821117 0.857085
vt 0.000136 0.892779
vt 0.000136 0.857084
vt 0.821117 0.892779
vt 0.000136 0.892779
vt 0.821117 0.857085
vt 0.821117 0.964169
vt 0.000136 0.999864
vt 0.000136 0.964169
vt 0.821117 0.999864
vt 0.000136 0.999864
vt 0.821117 0.964169
vt 0.821117 0.892779
vt 0.000136 0.928474
vt 0.000136 0.892779
vt 0.821117 0.928474
vt 0.000136 0.928474
vt 0.821117 0.892779
vt 0.821117 0.928474
vt 0.000136 0.964169
vt 0.000136 0.928474
vt 0.821117 0.964169
vt 0.000136 0.964169
vt 0.821117 0.928474
vt 0.716046 0.506520
vt 0.731176 0.440447
vt 0.730630 0.500633
vt 0.716702 0.434297
vt 0.731176 0.440447
vt 0.716046 0.506520
vt 0.714584 0.578736
vt 0.730452 0.512829
vt 0.729233 0.573013
vt 0.716046 0.506520
vt 0.730452 0.512829
vt 0.714584 0.578736
vt 0.714303 0.145395
vt 0.729682 0.079379
vt 0.728909 0.139565
vt 0.715230 0.073174
vt 0.729682 0.079379
vt 0.714303 0.145395
vt 0.715311 0.289846
vt 0.729009 0.223454
vt 0.729765 0.283646
vt 0.714404 0.217621
vt 0.729009 0.223454
vt 0.715311 0.289846
vt 0.716702 0.434297
vt 0.730891 0.368015
vt 0.731201 0.428205
vt 0.716330 0.362071
vt 0.730891 0.368015
vt 0.716702 0.434297
vt 0.714404 0.217621
vt 0.728841 0.151393
vt 0.728925 0.211581
vt 0.714303 0.145395
vt 0.728841 0.151393
vt 0.714404 0.217621
vt 0.715230 0.073174
vt 0.731200 0.007292
vt 0.729889 0.067475
vt 0.716804 0.000959
vt 0.731200 0.007292
vt 0.715230 0.073174
vt 0.716330 0.362071
vt 0.729926 0.295659
vt 0.730775 0.355850
vt 0.715311 0.289846
vt 0.729926 0.295659
vt 0.716330 0.362071
vt 0.500237 0.216798
vt 0.714303 0.145395
vt 0.714404 0.217621
vt 0.500136 0.144572
vt 0.714303 0.145395
vt 0.500237 0.216798
vt 0.501063 0.072351
vt 0.716804 0.000959
vt 0.715230 0.073174
vt 0.502637 0.000136
vt 0.716804 0.000959
vt 0.501063 0.072351
vt 0.502163 0.361248
vt 0.715311 0.289846
vt 0.716330 0.362071
vt 0.501144 0.289023
vt 0.715311 0.289846
vt 0.502163 0.361248
vt 0.501878 0.505697
vt 0.716702 0.434297
vt 0.716046 0.506520
vt 0.502535 0.433474
vt 0.716702 0.434297
vt 0.501878 0.505697
vt 0.500136 0.144572
vt 0.715230 0.073174
vt 0.714303 0.145395
vt 0.501063 0.072351
vt 0.715230 0.073174
vt 0.500136 0.144572
vt 0.501144 0.289023
vt 0.714404 0.217621
vt 0.715311 0.289846
vt 0.500237 0.216798
vt 0.714404 0.217621
vt 0.501144 0.289023
vt 0.502535 0.433474
vt 0.716330 0.362071
vt 0.716702 0.434297
vt 0.502163 0.361248
vt 0.716330 0.362071
vt 0.502535 0.433474
vt 0.500417 0.577913
vt 0.716046 0.506520
vt 0.714584 0.578736
vt 0.501878 0.505697
vt 0.716046 0.506520
vt 0.500417 0.577913
vt 0.331907 0.650149
vt 0.484359 0.530840
vt 0.478327 0.650149
vt 0.325875 0.530840
vt 0.484359 0.530840
vt 0.331907 0.650149
vt 0.374793 0.885030
vt 0.461150 0.768368
vt 0.435442 0.885030
vt 0.349085 0.768368
vt 0.461150 0.768368
vt 0.374793 0.885030
vt 0.349085 0.768368
vt 0.478327 0.650149
vt 0.461150 0.768368
vt 0.331907 0.650149
vt 0.478327 0.650149
vt 0.349085 0.768368
vt 0.374793 0.885030
vt 0.435442 0.885030
vt 0.405117 1.000578
vt 0.187850 0.768368
vt 0.317092 0.650149
vt 0.299915 0.768368
vt 0.170672 0.650149
vt 0.317092 0.650149
vt 0.187850 0.768368
vt 0.213558 0.885030
vt 0.274207 0.885030
vt 0.243882 1.000578
vt 0.170672 0.650149
vt 0.323124 0.530840
vt 0.317092 0.650149
vt 0.164640 0.530840
vt 0.323124 0.530840
vt 0.170672 0.650149
vt 0.213558 0.885030
vt 0.299915 0.768368
vt 0.274207 0.885030
vt 0.187850 0.768368
vt 0.299915 0.768368
vt 0.213558 0.885030
vt 0.029365 0.768368
vt 0.158608 0.650149
vt 0.141431 0.768368
vt 0.012188 0.650149
vt 0.158608 0.650149
vt 0.029365 0.768368
vt 0.055073 0.885030
vt 0.115723 0.885030
vt 0.085398 1.000578
vt 0.012188 0.650149
vt 0.164640 0.530840
vt 0.158608 0.650149
vt 0.006156 0.530840
vt 0.164640 0.530840
vt 0.012188 0.650149
vt 0.055073 0.885030
vt 0.141431 0.768368
vt 0.115723 0.885030
vt 0.029365 0.768368
vt 0.141431 0.768368
vt 0.055073 0.885030
vt 0.804609 0.150149
vt 0.957061 0.030840
vt 0.951029 0.150149
vt 0.798577 0.030840
vt 0.957061 0.030840
vt 0.804609 0.150149
vt 0.847494 0.385030
vt 0.933851 0.268368
vt 0.908143 0.385030
vt 0.821786 0.268368
vt 0.933851 0.268368
vt 0.847494 0.385030
vt 0.821786 0.268368
vt 0.951029 0.150149
vt 0.933851 0.268368
vt 0.804609 0.150149
vt 0.951029 0.150149
vt 0.821786 0.268368
vt 0.847494 0.385030
vt 0.908143 0.385030
vt 0.877819 0.500578
vt 0.646125 0.150149
vt 0.798577 0.030840
vt 0.792545 0.150149
vt 0.640093 0.030840
vt 0.798577 0.030840
vt 0.646125 0.150149
vt 0.689010 0.385030
vt 0.775367 0.268368
vt 0.749659 0.385030
vt 0.663302 0.268368
vt 0.775367 0.268368
vt 0.689010 0.385030
vt 0.663302 0.268368
vt 0.792545 0.150149
vt 0.775367 0.268368
vt 0.646125 0.150149
vt 0.792545 0.150149
vt 0.663302 0.268368
vt 0.689010 0.385030
vt 0.749659 0.385030
vt 0.719335 0.500578
vt 0.504818 0.268368
vt 0.634061 0.150149
vt 0.616883 0.268368
vt 0.487640 0.150149
vt 0.634061 0.150149
vt 0.504818 0.268368
vt 0.530526 0.385030
vt 0.591175 0.385030
vt 0.560850 0.500578
vt 0.487640 0.150149
vt 0.640093 0.030840
vt 0.634061 0.150149
vt 0.481609 0.030840
vt 0.640093 0.030840
vt 0.487640 0.150149
vt 0.530526 0.385030
vt 0.616883 0.268368
vt 0.591175 0.385030
vt 0.504818 0.268368
vt 0.616883 0.268368
vt 0.530526 0.385030
vt 0.346334 0.268368
vt 0.475576 0.150149
vt 0.458399 0.268368
vt 0.329156 0.150149
vt 0.475576 0.150149
vt 0.346334 0.268368
vt 0.372042 0.385030
vt 0.432691 0.385030
vt 0.402366 0.500578
vt 0.329156 0.150149
vt 0.481609 0.030840
vt 0.475576 0.150149
vt 0.323124 0.030840
vt 0.481609 0.030840
vt 0.329156 0.150149
vt 0.372042 0.385030
vt 0.458399 0.268368
vt 0.432691 0.385030
vt 0.346334 0.268368
vt 0.458399 0.268368
vt 0.372042 0.385030
vt 0.170672 0.150149
vt 0.323124 0.030840
vt 0.317092 0.150149
vt 0.164640 0.030840
vt 0.323124 0.030840
vt 0.170672 0.150149
vt 0.213558 0.385030
vt 0.299915 0.268368
vt 0.274207 0.385030
vt 0.187850 0.268368
vt 0.299915 0.268368
vt 0.213558 0.385030
vt 0.187850 0.268368
vt 0.317092 0.150149
vt 0.299915 0.268368
vt 0.170672 0.150149
vt 0.317092 0.150149
vt 0.187850 0.268368
vt 0.213558 0.385030
vt 0.274207 0.385030
vt 0.243882 0.500578
vt 0.055073 0.385030
vt 0.141430 0.268368
vt 0.115723 0.385030
vt 0.029365 0.268368
vt 0.141430 0.268368
vt 0.055073 0.385030
vt 0.029365 0.268368
vt 0.158608 0.150149
vt 0.141430 0.268368
vt 0.012188 0.150149
vt 0.158608 0.150149
vt 0.029365 0.268368
vt 0.055073 0.385030
vt 0.115723 0.385030
vt 0.085398 0.500578
vt 0.012188 0.150149
vt 0.164640 0.030840
vt 0.158608 0.150149
vt 0.006156 0.030840
vt 0.164640 0.030840
vt 0.012188 0.150149
vt 0.824537 0.768368
vt 0.953780 0.650149
vt 0.936602 0.768368
vt 0.807359 0.650149
vt 0.953780 0.650149
vt 0.824537 0.768368
vt 0.850245 0.885030
vt 0.910894 0.885030
vt 0.880569 1.000578
vt 0.807359 0.650149
vt 0.959812 0.530840
vt 0.953780 0.650149
vt 0.801327 0.530840
vt 0.959812 0.530840
vt 0.807359 0.650149
vt 0.850245 0.885030
vt 0.936602 0.768368
vt 0.910894 0.885030
vt 0.824537 0.768368
vt 0.936602 0.768368
vt 0.850245 0.885030
vt 0.691761 0.885030
vt 0.752410 0.885030
vt 0.722086 1.000578
vt 0.648875 0.650149
vt 0.801327 0.530840
vt 0.795296 0.650149
vt 0.642843 0.530840
vt 0.801327 0.530840
vt 0.648875 0.650149
vt 0.691761 0.885030
vt 0.778118 0.768368
vt 0.752410 0.885030
vt 0.666053 0.768368
vt 0.778118 0.768368
vt 0.691761 0.885030
vt 0.666053 0.768368
vt 0.795296 0.650149
vt 0.778118 0.768368
vt 0.648875 0.650149
vt 0.795296 0.650149
vt 0.666053 0.768368
vt 0.490391 0.650149
vt 0.642843 0.530840
vt 0.636811 0.650149
vt 0.484359 0.530840
vt 0.642843 0.530840
vt 0.490391 0.650149
vt 0.533276 0.885030
vt 0.619634 0.768368
vt 0.593926 0.885030
vt 0.507568 0.768368
vt 0.619634 0.768368
vt 0.533276 0.885030
vt 0.507568 0.768368
vt 0.636811 0.650149
vt 0.619634 0.768368
vt 0.490391 0.650149
vt 0.636811 0.650149
vt 0.507568 0.768368
vt 0.533276 0.885030
vt 0.593926 0.885030
vt 0.563601 1.000578
vt 0.332016 0.499152
vt 0.182019 0.530840
vt 0.189380 0.499152
vt 0.340503 0.530840
vt 0.182019 0.530840
vt 0.332016 0.499152
vt 0.490200 0.499715
vt 0.341178 0.530840
vt 0.347564 0.499715
vt 0.499662 0.530840
vt 0.341178 0.530840
vt 0.490200 0.499715
vt 0.807955 0.500690
vt 0.659497 0.530840
vt 0.665319 0.500690
vt 0.817981 0.530840
vt 0.659497 0.530840
vt 0.807955 0.500690
vt 0.807955 0.001253
vt 0.659497 0.030277
vt 0.665319 0.001253
vt 0.817981 0.030277
vt 0.659497 0.030277
vt 0.807955 0.001253
vt 0.649359 0.001253
vt 0.500338 0.029303
vt 0.506723 0.001253
vt 0.658822 0.029302
vt 0.500338 0.029303
vt 0.649359 0.001253
vt 0.332016 0.001253
vt 0.182019 0.028740
vt 0.189380 0.001253
vt 0.340503 0.028740
vt 0.182019 0.028740
vt 0.332016 0.001253
vt 0.173983 0.001253
vt 0.022860 0.028740
vt 0.031347 0.001253
vt 0.181344 0.028739
vt 0.022860 0.028740
vt 0.173983 0.001253
vt 0.493277 0.001253
vt 0.341178 0.029302
vt 0.350641 0.001253
vt 0.499662 0.029302
vt 0.341178 0.029302
vt 0.493277 0.001253
vt 0.971318 0.001253
vt 0.818656 0.030277
vt 0.828682 0.001253
vt 0.977140 0.030277
vt 0.818656 0.030277
vt 0.971318 0.001253
vt 0.971318 0.500690
vt 0.818656 0.530840
vt 0.828682 0.500690
vt 0.977140 0.530840
vt 0.818656 0.530840
vt 0.971318 0.500690
vt 0.652436 0.499715
vt 0.500338 0.530840
vt 0.509800 0.499715
vt 0.658822 0.530840
vt 0.500338 0.530840
vt 0.652436 0.499715
vt 0.173983 0.499152
vt 0.022860 0.530840
vt 0.031347 0.499152
vt 0.181344 0.530840
vt 0.022860 0.530840
vt 0.173983 0.499152
vt 0.859991 0.673327
vt 0.984943 0.832990
vt 0.859991 0.826673
vt 0.984943 0.667010
vt 0.984943 0.832990
vt 0.859991 0.673327
vt 0.614000 0.718241
vt 0.736180 0.808683
vt 0.614000 0.781759
vt 0.736180 0.691317
vt 0.736180 0.808683
vt 0.614000 0.718241
vt 0.736180 0.691317
vt 0.859991 0.826673
vt 0.736180 0.808683
vt 0.859991 0.673327
vt 0.859991 0.826673
vt 0.736180 0.691317
vt 0.614000 0.718241
vt 0.614000 0.781759
vt 0.492986 0.750000
vt 0.243537 0.691317
vt 0.367348 0.826673
vt 0.243537 0.808683
vt 0.367348 0.673327
vt 0.367348 0.826673
vt 0.243537 0.691317
vt 0.121356 0.718241
vt 0.121356 0.781759
vt 0.000343 0.750000
vt 0.367348 0.673327
vt 0.492300 0.832990
vt 0.367348 0.826673
vt 0.492300 0.667010
vt 0.492300 0.832990
vt 0.367348 0.673327
vt 0.121356 0.718241
vt 0.243537 0.808683
vt 0.121356 0.781759
vt 0.243537 0.691317
vt 0.243537 0.808683
vt 0.121356 0.718241
vt 0.243537 0.357984
vt 0.367348 0.493340
vt 0.243537 0.475350
vt 0.367348 0.339994
vt 0.367348 0.493340
vt 0.243537 0.357984
vt 0.121356 0.384908
vt 0.121356 0.448426
vt 0.000343 0.416667
vt 0.367348 0.339994
vt 0.492300 0.499657
vt 0.367348 0.493340
vt 0.492300 0.333676
vt 0.492300 0.499657
vt 0.367348 0.339994
vt 0.121356 0.384908
vt 0.243537 0.475350
vt 0.121356 0.448426
vt 0.243537 0.357984
vt 0.243537 0.475350
vt 0.121356 0.384908
vt 0.367348 0.173327
vt 0.492300 0.332991
vt 0.367348 0.326673
vt 0.492300 0.167010
vt 0.492300 0.332991
vt 0.367348 0.173327
vt 0.121356 0.218241
vt 0.243537 0.308683
vt 0.121356 0.281759
vt 0.243537 0.191317
vt 0.243537 0.308683
vt 0.121356 0.218241
vt 0.243537 0.191317
vt 0.367348 0.326673
vt 0.243537 0.308683
vt 0.367348 0.173327
vt 0.367348 0.326673
vt 0.243537 0.191317
vt 0.121356 0.218241
vt 0.121356 0.281759
vt 0.000343 0.250000
vt 0.367348 0.006660
vt 0.492300 0.166324
vt 0.367348 0.160006
vt 0.492300 0.000343
vt 0.492300 0.166324
vt 0.367348 0.006660
vt 0.121356 0.051574
vt 0.243537 0.142016
vt 0.121356 0.115092
vt 0.243537 0.024650
vt 0.243537 0.142016
vt 0.121356 0.051574
vt 0.243537 0.024650
vt 0.367348 0.160006
vt 0.243537 0.142016
vt 0.367348 0.006660
vt 0.367348 0.160006
vt 0.243537 0.024650
vt 0.121356 0.051574
vt 0.121356 0.115092
vt 0.000343 0.083333
vt 0.736180 0.357984
vt 0.859991 0.493340
vt 0.736180 0.475350
vt 0.859991 0.339994
vt 0.859991 0.493340
vt 0.736180 0.357984
vt 0.613999 0.384908
vt 0.613999 0.448426
vt 0.492986 0.416667
vt 0.859991 0.339994
vt 0.984943 0.499657
vt 0.859991 0.493340
vt 0.984943 0.333676
vt 0.984943 0.499657
vt 0.859991 0.339994
vt 0.613999 0.384908
vt 0.736180 0.475350
vt 0.613999 0.448426
vt 0.736180 0.357984
vt 0.736180 0.475350
vt 0.613999 0.384908
vt 0.736180 0.524650
vt 0.859991 0.660007
vt 0.736180 0.642017
vt 0.859991 0.506660
vt 0.859991 0.660007
vt 0.736180 0.524650
vt 0.613999 0.551574
vt 0.613999 0.615093
vt 0.492986 0.583333
vt 0.859991 0.506660
vt 0.984943 0.666324
vt 0.859991 0.660007
vt 0.984943 0.500343
vt 0.984943 0.666324
vt 0.859991 0.506660
vt 0.613999 0.551574
vt 0.736180 0.642017
vt 0.613999 0.615093
vt 0.736180 0.524650
vt 0.736180 0.642017
vt 0.613999 0.551574
vt 0.859991 0.173327
vt 0.984943 0.332991
vt 0.859991 0.326673
vt 0.984943 0.167010
vt 0.984943 0.332991
vt 0.859991 0.173327
vt 0.613999 0.218241
vt 0.736180 0.308683
vt 0.613999 0.281759
vt 0.736180 0.191317
vt 0.736180 0.308683
vt 0.613999 0.218241
vt 0.736180 0.191317
vt 0.859991 0.326673
vt 0.736180 0.308683
vt 0.859991 0.173327
vt 0.859991 0.326673
vt 0.736180 0.191317
vt 0.613999 0.218241
vt 0.613999 0.281759
vt 0.492986 0.250000
vt 0.613999 0.884907
vt 0.736180 0.975350
vt 0.613999 0.948426
vt 0.736180 0.857983
vt 0.736180 0.975350
vt 0.613999 0.884907
vt 0.736180 0.857983
vt 0.859991 0.993340
vt 0.736180 0.975350
vt 0.859991 0.839993
vt 0.859991 0.993340
vt 0.736180 0.857983
vt 0.613999 0.884907
vt 0.613999 0.948426
vt 0.492986 0.916666
vt 0.859991 0.839993
vt 0.984943 0.999657
vt 0.859991 0.993340
vt 0.984943 0.833676
vt 0.984943 0.999657
vt 0.859991 0.839993
vt 0.736180 0.024650
vt 0.859991 0.160006
vt 0.736180 0.142016
vt 0.859991 0.006660
vt 0.859991 0.160006
vt 0.736180 0.024650
vt 0.613999 0.051574
vt 0.613999 0.115092
vt 0.492986 0.083333
vt 0.859991 0.006660
vt 0.984943 0.166324
vt 0.859991 0.160006
vt 0.984943 0.000343
vt 0.984943 0.166324
vt 0.859991 0.006660
vt 0.613999 0.051574
vt 0.736180 0.142016
vt 0.613999 0.115092
vt 0.736180 0.024650
vt 0.736180 0.142016
vt 0.613999 0.051574
vt 0.121356 0.884908
vt 0.121356 0.948426
vt 0.000343 0.916667
vt 0.367348 0.839994
vt 0.492300 0.999657
vt 0.367348 0.993340
vt 0.492300 0.833676
vt 0.492300 0.999657
vt 0.367348 0.839994
vt 0.121356 0.884908
vt 0.243537 0.975350
vt 0.121356 0.948426
vt 0.243537 0.857984
vt 0.243537 0.975350
vt 0.121356 0.884908
vt 0.243537 0.857984
vt 0.367348 0.993340
vt 0.243537 0.975350
vt 0.367348 0.839994
vt 0.367348 0.993340
vt 0.243537 0.857984
vt 0.367348 0.506660
vt 0.492300 0.666324
vt 0.367348 0.660007
vt 0.492300 0.500343
vt 0.492300 0.666324
vt 0.367348 0.506660
vt 0.121356 0.551574
vt 0.243537 0.642016
vt 0.121356 0.615092
vt 0.243537 0.524650
vt 0.243537 0.642016
vt 0.121356 0.551574
vt 0.243537 0.524650
vt 0.367348 0.660007
vt 0.243537 0.642016
vt 0.367348 0.506660
vt 0.367348 0.660007
vt 0.243537 0.524650
vt 0.121356 0.551574
vt 0.121356 0.615092
vt 0.000343 0.583333
vt 0.062768 0.330358
vt 0.260931 0.440580
vt 0.063056 0.404045
vt 0.260563 0.293794
vt 0.260931 0.440580
vt 0.062768 0.330358
vt 0.063032 0.476987
vt 0.261943 0.587369
vt 0.063865 0.550679
vt 0.260931 0.440580
vt 0.261943 0.587369
vt 0.063032 0.476987
vt 0.499068 0.477470
vt 0.301743 0.587371
vt 0.300773 0.440580
vt 0.499911 0.551164
vt 0.301743 0.587371
vt 0.499068 0.477470
vt 0.499171 0.404248
vt 0.300321 0.293794
vt 0.498765 0.330559
vt 0.300773 0.440580
vt 0.300321 0.293794
vt 0.499171 0.404248
vt 0.498808 0.257262
vt 0.300691 0.147008
vt 0.499098 0.183575
vt 0.300321 0.293794
vt 0.300691 0.147008
vt 0.498808 0.257262
vt 0.499076 0.110321
vt 0.301705 0.000219
vt 0.499911 0.036629
vt 0.300691 0.147008
vt 0.301705 0.000219
vt 0.499076 0.110321
vt 0.063030 0.110797
vt 0.261990 0.000217
vt 0.261017 0.147008
vt 0.063873 0.037103
vt 0.261990 0.000217
vt 0.063030 0.110797
vt 0.063132 0.183769
vt 0.260563 0.293794
vt 0.062726 0.257458
vt 0.261017 0.147008
vt 0.260563 0.293794
vt 0.063132 0.183769
vt 0.907243 0.499999
vt 0.813544 0.001623
vt 0.907067 0.001033
vt 0.813720 0.500589
vt 0.813544 0.001623
vt 0.907243 0.499999
vt 0.394728 0.146948
vt 0.260563 0.293794
vt 0.261017 0.147008
vt 0.394274 0.293735
vt 0.260563 0.293794
vt 0.394728 0.146948
vt 0.261017 0.147008
vt 0.395701 0.000158
vt 0.394728 0.146948
vt 0.261990 0.000217
vt 0.395701 0.000158
vt 0.261017 0.147008
vt 0.300691 0.147008
vt 0.167995 0.000158
vt 0.301705 0.000219
vt 0.166980 0.146947
vt 0.167995 0.000158
vt 0.300691 0.147008
vt 0.300691 0.147008
vt 0.166610 0.293732
vt 0.166980 0.146947
vt 0.300321 0.293794
vt 0.166610 0.293732
vt 0.300691 0.147008
vt 0.167062 0.440519
vt 0.300321 0.293794
vt 0.300773 0.440580
vt 0.166610 0.293732
vt 0.300321 0.293794
vt 0.167062 0.440519
vt 0.168033 0.587310
vt 0.300773 0.440580
vt 0.301743 0.587371
vt 0.167062 0.440519
vt 0.300773 0.440580
vt 0.168033 0.587310
vt 0.261943 0.587369
vt 0.394641 0.440521
vt 0.395654 0.587310
vt 0.260931 0.440580
vt 0.394641 0.440521
vt 0.261943 0.587369
vt 0.260931 0.440580
vt 0.394274 0.293735
vt 0.394641 0.440521
vt 0.260563 0.293794
vt 0.394274 0.293735
vt 0.260931 0.440580
vt 0.486824 0.160527
vt 0.394274 0.293735
vt 0.394728 0.146948
vt 0.486454 0.280116
vt 0.394274 0.293735
vt 0.486824 0.160527
vt 0.486465 0.307281
vt 0.394641 0.440521
vt 0.394274 0.293735
vt 0.486764 0.426870
vt 0.394641 0.440521
vt 0.486465 0.307281
vt 0.487608 0.573632
vt 0.394641 0.440521
vt 0.486784 0.454041
vt 0.395654 0.587310
vt 0.394641 0.440521
vt 0.487608 0.573632
vt 0.075275 0.454120
vt 0.168033 0.587310
vt 0.076066 0.573712
vt 0.167062 0.440519
vt 0.168033 0.587310
vt 0.075275 0.454120
vt 0.075278 0.426901
vt 0.166610 0.293732
vt 0.167062 0.440519
vt 0.074910 0.307312
vt 0.166610 0.293732
vt 0.075278 0.426901
vt 0.395701 0.000158
vt 0.486822 0.133351
vt 0.394728 0.146948
vt 0.487614 0.013758
vt 0.486822 0.133351
vt 0.395701 0.000158
vt 0.075243 0.133266
vt 0.167995 0.000158
vt 0.166980 0.146947
vt 0.076070 0.013674
vt 0.167995 0.000158
vt 0.075243 0.133266
vt 0.166610 0.293732
vt 0.075222 0.160490
vt 0.166980 0.146947
vt 0.074921 0.280079
vt 0.075222 0.160490
vt 0.166610 0.293732
vt 0.000159 0.255064
vt 0.075222 0.160490
vt 0.074921 0.280079
vt 0.000336 0.185164
vt 0.075222 0.160490
vt 0.000159 0.255064
vt 0.000565 0.107964
vt 0.076070 0.013674
vt 0.075243 0.133266
vt 0.001049 0.038063
vt 0.076070 0.013674
vt 0.000565 0.107964
vt 0.562342 0.039028
vt 0.486822 0.133351
vt 0.487614 0.013758
vt 0.561879 0.108930
vt 0.486822 0.133351
vt 0.562342 0.039028
vt 0.561678 0.185565
vt 0.486454 0.280116
vt 0.486824 0.160527
vt 0.561462 0.255466
vt 0.486454 0.280116
vt 0.561678 0.185565
vt 0.561463 0.331960
vt 0.486764 0.426870
vt 0.486465 0.307281
vt 0.561638 0.401860
vt 0.486764 0.426870
vt 0.561463 0.331960
vt 0.487608 0.573632
vt 0.561860 0.478437
vt 0.562342 0.548338
vt 0.486784 0.454041
vt 0.561860 0.478437
vt 0.487608 0.573632
vt 0.075275 0.454120
vt 0.001042 0.549294
vt 0.000579 0.479392
vt 0.076066 0.573712
vt 0.001042 0.549294
vt 0.075275 0.454120
vt 0.000158 0.332355
vt 0.075278 0.426901
vt 0.000373 0.402255
vt 0.074910 0.307312
vt 0.075278 0.426901
vt 0.000158 0.332355
vt 0.000158 0.503545
vt 0.049587 0.454120
vt 0.119490 0.454122
vt 0.168920 0.503550
vt 0.000158 0.503545
vt 0.119490 0.454122
vt 0.000158 0.573444
vt 0.000158 0.503545
vt 0.168920 0.503550
vt 0.049587 0.622873
vt 0.000158 0.573444
vt 0.168920 0.503550
vt 0.168920 0.573450
vt 0.049587 0.622873
vt 0.168920 0.503550
vt 0.119490 0.622875
vt 0.049587 0.622873
vt 0.168920 0.573450
vt 1.000760 0.498407
vt 0.907067 0.001033
vt 1.000583 -0.000559
vt 0.907243 0.499999
vt 0.907067 0.001033
vt 1.000760 0.498407
vt 0.813714 0.001722
vt 0.907062 0.499802
vt 0.813538 0.500490
vt 0.907239 0.001033
vt 0.907062 0.499802
vt 0.813714 0.001722
vt 0.626674 -0.000460
vt 0.720014 0.499900
vt 0.626498 0.498308
vt 0.720191 0.001132
vt 0.720014 0.499900
vt 0.626674 -0.000460
vt 0.813720 0.500589
vt 0.720019 0.000935
vt 0.813544 0.001623
vt 0.720195 0.499900
vt 0.720019 0.000935
vt 0.813720 0.500589
vt 0.907239 0.001033
vt 1.000583 0.498308
vt 0.907062 0.499802
vt 1.000760 -0.000460
vt 1.000583 0.498308
vt 0.907239 0.001033
vt 0.720195 0.499900
vt 0.626498 -0.000559
vt 0.720019 0.000935
vt 0.626674 0.498407
vt 0.626498 -0.000559
vt 0.720195 0.499900
vt 0.720191 0.001132
vt 0.813538 0.500490
vt 0.720014 0.499900
vt 0.813714 0.001722
vt 0.813538 0.500490
vt 0.720191 0.001132

vn -0.000000 1.000000 0.000000
vn -0.000000 1.000000 0.000000
vn -0.000000 1.000000 0.000000
vn -0.000000 1.000000 0.000000
vn -0.000000 1.000000 0.000000
vn -0.000000 1.000000 0.000000
vn -0.000000 0.000000 -1.000000
vn -0.000000 0.000000 -1.000000
vn -0.000000 0.000000 -1.000000
vn -0.000000 0.000000 -1.000000
vn -0.000000 0.000000 -1.000000
vn -0.000000 0.000000 -1.000000
vn 1.000000 0.000000 0.000000
vn 1.000000 0.000000 0.000000
vn 1.000000 0.000000 0.000000
vn 1.000000 0.000000 0.000000
vn 1.000000 0.000000 0.000000
vn 1.000000 0.000000 0.000000
vn -0.000000 -1.000000 0.000000
vn -0.000000 -1.000000 0.000000
vn -0.000000 -1.000000 0.000000
vn -0.000000 -1.000000 0.000000
vn -0.000000 -1.000000 0.000000
vn -0.000000 -1.000000 0.000000
vn -1.000000 0.000000 0.000000
vn -1.000000 0.000000 0.000000
vn -1.000000 0.000000 0.000000
vn -1.000000 0.000000 0.000000
vn -1.000000 0.000000 0.000000
vn -1.000000 0.000000 0.000000
vn -0.000000 0.000000 1.000000
vn -0.000000 0.000000 1.000000
vn -0.000000 0.000000 1.000000
vn -0.000000 0.000000 1.000000
vn -0.000000 0.000000 1.000000
vn -0.000000 0.000000 1.000000
vn -0.000000 0.000000 -1.000000
vn -0.000000 0.000000 -1.000000
vn -0.000000 0.000000 -1.000000
vn -0.000000 0.000000 -1.000000
vn -0.000000 0.000000 -1.000000
vn -0.000000 0.000000 -1.000000
vn 1.000000 0.000000 0.000000
vn 1.000000 0.000000 0.000000
vn 1.000000 0.000000 0.000000
vn 1.000000 0.000000 0.000000
vn 1.000000 0.000000 0.000000
vn 1.000000 0.000000 0.000000
vn -1.000000 0.000000 0.000000
vn -1.000000 0.000000 0.000000
vn -1.000000 0.000000 0.000000
vn -1.000000 0.000000 0.000000
vn -1.000000 0.000000 0.000000
vn -1.000000 0.000000 0.000000
vn -0.000000 0.000000 1.000000
vn -0.000000 0.000000 1.000000
vn -0.000000 0.000000 1.000000
vn -0.000000 0.000000 1.000000
vn -0.000000 0.000000 1.000000
vn -0.000000 0.000000 1.000000
vn 0.004589 0.999977 0.005026
vn 0.004589 0.999977 0.005026
vn 0.004589 0.999977 0.005026
vn 0.005666 0.999984 0.000256
vn 0.005666 0.999984 0.000256
vn 0.005666 0.999984 0.000256
vn -0.000968 0.999773 0.021273
vn -0.000968 0.999773 0.021273
vn -0.000968 0.999773 0.021273
vn 0.011971 0.999843 0.013103
vn 0.011971 0.999843 0.013103
vn 0.011971 0.999843 0.013103
vn -0.011664 0.999932 -0.000527
vn -0.011664 0.999932 -0.000527
vn -0.011664 0.999932 -0.000527
vn -0.007184 0.999953 0.006563
vn -0.007184 0.999953 0.006563
vn -0.007184 0.999953 0.006563
vn -0.000968 0.999773 0.021276
vn -0.000968 0.999773 0.021276
vn -0.000968 0.999773 0.021276
vn 0.011971 0.999843 0.013105
vn 0.011971 0.999843 0.013105
vn 0.011971 0.999843 0.013105
vn -0.011666 0.999932 -0.000527
vn -0.011666 0.999932 -0.000527
vn -0.011666 0.999932 -0.000527
vn -0.007184 0.999953 0.006563
vn -0.007184 0.999953 0.006563
vn -0.007184 0.999953 0.006563
vn 0.004587 0.999977 0.005024
vn 0.004587 0.999977 0.005024
vn 0.004587 0.999977 0.005024
vn 0.005665 0.999984 0.000256
vn 0.005665 0.999984 0.000256
vn 0.005665 0.999984 0.000256
vn -0.017207 0.999728 0.015722
vn -0.017207 0.999728 0.015722
vn -0.017207 0.999728 0.015722
vn -0.000879 0.999811 0.019407
vn -0.000879 0.999811 0.019407
vn -0.000879 0.999811 0.019407
vn -0.017207 0.999728 0.015722
vn -0.017207 0.999728 0.015722
vn -0.017207 0.999728 0.015722
vn -0.000875 0.999811 0.019407
vn -0.000875 0.999811 0.019407
vn -0.000875 0.999811 0.019407
vn -0.424009 0.000000 0.905658
vn -0.424009 0.000000 0.905658
vn -0.424009 0.000000 0.905658
vn -0.424009 0.000000 0.905658
vn -0.424009 0.000000 0.905658
vn -0.424009 0.000000 0.905658
vn 0.905640 0.000000 0.424047
vn 0.905640 0.000000 0.424047
vn 0.905640 0.000000 0.424047
vn 0.905640 0.000000 0.424047
vn 0.905640 0.000000 0.424047
vn 0.905640 0.000000 0.424047
vn -0.905639 0.000000 -0.424049
vn -0.905639 0.000000 -0.424049
vn -0.905639 0.000000 -0.424049
vn -0.905639 0.000000 -0.424049
vn -0.905639 0.000000 -0.424049
vn -0.905639 0.000000 -0.424049
vn 0.424010 0.000000 -0.905657
vn 0.424010 0.000000 -0.905657
vn 0.424010 0.000000 -0.905657
vn 0.424010 0.000000 -0.905657
vn 0.424010 0.000000 -0.905657
vn 0.424010 0.000000 -0.905657
vn 0.340523 0.000000 0.940236
vn 0.340523 0.000000 0.940236
vn 0.340523 0.000000 0.940236
vn 0.340523 0.000000 0.940236
vn 0.340523 0.000000 0.940236
vn 0.340523 0.000000 0.940236
vn -0.940213 0.000000 0.340588
vn -0.940213 0.000000 0.340588
vn -0.940213 0.000000 0.340588
vn -0.940213 0.000000 0.340588
vn -0.940213 0.000000 0.340588
vn -0.940213 0.000000 0.340588
vn -0.340525 0.000000 -0.940235
vn -0.340525 0.000000 -0.940235
vn -0.340525 0.000000 -0.940235
vn -0.340525 0.000000 -0.940235
vn -0.340525 0.000000 -0.940235
vn -0.340525 0.000000 -0.940235
vn 0.940213 0.000000 -0.340587
vn 0.940213 0.000000 -0.340587
vn 0.940213 0.000000 -0.340587
vn 0.940213 0.000000 -0.340586
vn 0.940213 0.000000 -0.340586
vn 0.940213 0.000000 -0.340586
vn -0.254170 0.188683 0.948576
vn -0.254170 0.188683 0.948576
vn -0.254170 0.188683 0.948576
vn -0.254170 0.188684 0.948576
vn -0.254170 0.188684 0.948576
vn -0.254170 0.188684 0.948576
vn -0.147242 0.822407 0.549515
vn -0.147242 0.822407 0.549515
vn -0.147242 0.822407 0.549515
vn -0.147242 0.822407 0.549515
vn -0.147242 0.822407 0.549515
vn -0.147242 0.822407 0.549515
vn -0.217460 0.542275 0.811572
vn -0.217460 0.542275 0.811572
vn -0.217460 0.542275 0.811572
vn -0.217460 0.542275 0.811572
vn -0.217460 0.542275 0.811572
vn -0.217460 0.542275 0.811572
vn -0.052203 0.979448 0.194824
vn -0.052203 0.979448 0.194824
vn -0.052203 0.979448 0.194824
vn -0.594112 0.542275 0.594112
vn -0.594112 0.542275 0.594112
vn -0.594112 0.542275 0.594112
vn -0.594112 0.542275 0.594112
vn -0.594112 0.542275 0.594112
vn -0.594112 0.542275 0.594112
vn -0.142621 0.979448 0.142621
vn -0.142621 0.979448 0.142621
vn -0.142621 0.979448 0.142621
vn -0.694406 0.188683 0.694406
vn -0.694406 0.188683 0.694406
vn -0.694406 0.188683 0.694406
vn -0.694405 0.188684 0.694406
vn -0.694405 0.188684 0.694406
vn -0.694405 0.188684 0.694406
vn -0.402273 0.822407 0.402273
vn -0.402273 0.822407 0.402273
vn -0.402273 0.822407 0.402273
vn -0.402273 0.822407 0.402273
vn -0.402273 0.822407 0.402273
vn -0.402273 0.822407 0.402273
vn -0.811572 0.542275 0.217460
vn -0.811572 0.542275 0.217460
vn -0.811572 0.542275 0.217460
vn -0.811572 0.542275 0.217460
vn -0.811572 0.542275 0.217460
vn -0.811572 0.542275 0.217460
vn -0.194824 0.979448 0.052203
vn -0.194824 0.979448 0.052203
vn -0.194824 0.979448 0.052203
vn -0.948576 0.188683 0.254170
vn -0.948576 0.188683 0.254170
vn -0.948576 0.188683 0.254170
vn -0.948576 0.188683 0.254170
vn -0.948576 0.188683 0.254170
vn -0.948576 0.188683 0.254170
vn -0.549515 0.822407 0.147242
vn -0.549515 0.822407 0.147242
vn -0.549515 0.822407 0.147242
vn -0.549515 0.822407 0.147242
vn -0.549515 0.822407 0.147242
vn -0.549515 0.822407 0.147242
vn -0.948576 0.188683 -0.254170
vn -0.948576 0.188683 -0.254170
vn -0.948576 0.188683 -0.254170
vn -0.948576 0.188683 -0.254170
vn -0.948576 0.188683 -0.254170
vn -0.948576 0.188683 -0.254170
vn -0.549515 0.822407 -0.147242
vn -0.549515 0.822407 -0.147242
vn -0.549515 0.822407 -0.147242
vn -0.549515 0.822407 -0.147242
vn -0.549515 0.822407 -0.147242
vn -0.549515 0.822407 -0.147242
vn -0.811572 0.542275 -0.217460
vn -0.811572 0.542275 -0.217460
vn -0.811572 0.542275 -0.217460
vn -0.811572 0.542275 -0.217460
vn -0.811572 0.542275 -0.217460
vn -0.811572 0.542275 -0.217460
vn -0.194824 0.979448 -0.052203
vn -0.194824 0.979448 -0.052203
vn -0.194824 0.979448 -0.052203
vn -0.694406 0.188683 -0.694406
vn -0.694406 0.188683 -0.694406
vn -0.694406 0.188683 -0.694406
vn -0.694406 0.188683 -0.694406
vn -0.694406 0.188683 -0.694406
vn -0.694406 0.188683 -0.694406
vn -0.402273 0.822407 -0.402273
vn -0.402273 0.822407 -0.402273
vn -0.402273 0.822407 -0.402273
vn -0.402273 0.822407 -0.402273
vn -0.402273 0.822407 -0.402273
vn -0.402273 0.822407 -0.402273
vn -0.594112 0.542275 -0.594112
vn -0.594112 0.542275 -0.594112
vn -0.594112 0.542275 -0.594112
vn -0.594112 0.542275 -0.594112
vn -0.594112 0.542275 -0.594112
vn -0.594112 0.542275 -0.594112
vn -0.142621 0.979448 -0.142621
vn -0.142621 0.979448 -0.142621
vn -0.142621 0.979448 -0.142621
vn -0.217460 0.542275 -0.811572
vn -0.217460 0.542275 -0.811572
vn -0.217460 0.542275 -0.811572
vn -0.217460 0.542275 -0.811572
vn -0.217460 0.542275 -0.811572
vn -0.217460 0.542275 -0.811572
vn -0.052203 0.979448 -0.194824
vn -0.052203 0.979448 -0.194824
vn -0.052203 0.979448 -0.194824
vn -0.254170 0.188683 -0.948576
vn -0.254170 0.188683 -0.948576
vn -0.254170 0.188683 -0.948576
vn -0.254170 0.188683 -0.948576
vn -0.254170 0.188683 -0.948576
vn -0.254170 0.188683 -0.948576
vn -0.147242 0.822407 -0.549515
vn -0.147242 0.822407 -0.549515
vn -0.147242 0.822407 -0.549515
vn -0.147242 0.822407 -0.549515
vn -0.147242 0.822407 -0.549515
vn -0.147242 0.822407 -0.549515
vn 0.217460 0.542276 -0.811572
vn 0.217460 0.542276 -0.811572
vn 0.217460 0.542276 -0.811572
vn 0.217460 0.542275 -0.811572
vn 0.217460 0.542275 -0.811572
vn 0.217460 0.542275 -0.811572
vn 0.052203 0.979448 -0.194824
vn 0.052203 0.979448 -0.194824
vn 0.052203 0.979448 -0.194824
vn 0.254170 0.188683 -0.948576
vn 0.254170 0.188683 -0.948576
vn 0.254170 0.188683 -0.948576
vn 0.254170 0.188683 -0.948576
vn 0.254170 0.188683 -0.948576
vn 0.254170 0.188683 -0.948576
vn 0.147243 0.822407 -0.549515
vn 0.147243 0.822407 -0.549515
vn 0.147243 0.822407 -0.549515
vn 0.147242 0.822407 -0.549515
vn 0.147242 0.822407 -0.549515
vn 0.147242 0.822407 -0.549515
vn 0.694406 0.188683 -0.694406
vn 0.694406 0.188683 -0.694406
vn 0.694406 0.188683 -0.694406
vn 0.694406 0.188683 -0.694406
vn 0.694406 0.188683 -0.694406
vn 0.694406 0.188683 -0.694406
vn 0.402272 0.822407 -0.402273
vn 0.402272 0.822407 -0.402273
vn 0.402272 0.822407 -0.402273
vn 0.402273 0.822407 -0.402272
vn 0.402273 0.822407 -0.402272
vn 0.402273 0.822407 -0.402272
vn 0.594112 0.542275 -0.594112
vn 0.594112 0.542275 -0.594112
vn 0.594112 0.542275 -0.594112
vn 0.594112 0.542275 -0.594112
vn 0.594112 0.542275 -0.594112
vn 0.594112 0.542275 -0.594112
vn 0.142621 0.979448 -0.142621
vn 0.142621 0.979448 -0.142621
vn 0.142621 0.979448 -0.142621
vn 0.549515 0.822407 -0.147242
vn 0.549515 0.822407 -0.147242
vn 0.549515 0.822407 -0.147242
vn 0.549515 0.822407 -0.147242
vn 0.549515 0.822407 -0.147242
vn 0.549515 0.822407 -0.147242
vn 0.811572 0.542275 -0.217460
vn 0.811572 0.542275 -0.217460
vn 0.811572 0.542275 -0.217460
vn 0.811572 0.542275 -0.217460
vn 0.811572 0.542275 -0.217460
vn 0.811572 0.542275 -0.217460
vn 0.194825 0.979448 -0.052203
vn 0.194825 0.979448 -0.052203
vn 0.194825 0.979448 -0.052203
vn 0.948576 0.188683 -0.254170
vn 0.948576 0.188683 -0.254170
vn 0.948576 0.188683 -0.254170
vn 0.948576 0.188683 -0.254170
vn 0.948576 0.188683 -0.254170
vn 0.948576 0.188683 -0.254170
vn 0.811572 0.542275 0.217460
vn 0.811572 0.542275 0.217460
vn 0.811572 0.542275 0.217460
vn 0.811572 0.542275 0.217460
vn 0.811572 0.542275 0.217460
vn 0.811572 0.542275 0.217460
vn 0.194825 0.979448 0.052203
vn 0.194825 0.979448 0.052203
vn 0.194825 0.979448 0.052203
vn 0.948576 0.188683 0.254170
vn 0.948576 0.188683 0.254170
vn 0.948576 0.188683 0.254170
vn 0.948576 0.188683 0.254171
vn 0.948576 0.188683 0.254171
vn 0.948576 0.188683 0.254171
vn 0.549515 0.822407 0.147242
vn 0.549515 0.822407 0.147242
vn 0.549515 0.822407 0.147242
vn 0.549515 0.822407 0.147242
vn 0.549515 0.822407 0.147242
vn 0.549515 0.822407 0.147242
vn 0.142621 0.979448 0.142621
vn 0.142621 0.979448 0.142621
vn 0.142621 0.979448 0.142621
vn 0.694406 0.188683 0.694406
vn 0.694406 0.188683 0.694406
vn 0.694406 0.188683 0.694406
vn 0.694406 0.188683 0.694406
vn 0.694406 0.188683 0.694406
vn 0.694406 0.188683 0.694406
vn 0.402273 0.822407 0.402273
vn 0.402273 0.822407 0.402273
vn 0.402273 0.822407 0.402273
vn 0.402273 0.822407 0.402273
vn 0.402273 0.822407 0.402273
vn 0.402273 0.822407 0.402273
vn 0.594112 0.542275 0.594112
vn 0.594112 0.542275 0.594112
vn 0.594112 0.542275 0.594112
vn 0.594112 0.542275 0.594112
vn 0.594112 0.542275 0.594112
vn 0.594112 0.542275 0.594112
vn 0.254170 0.188683 0.948576
vn 0.254170 0.188683 0.948576
vn 0.254170 0.188683 0.948576
vn 0.254170 0.188683 0.948576
vn 0.254170 0.188683 0.948576
vn 0.254170 0.188683 0.948576
vn 0.147242 0.822407 0.549515
vn 0.147242 0.822407 0.549515
vn 0.147242 0.822407 0.549515
vn 0.147242 0.822407 0.549515
vn 0.147242 0.822407 0.549515
vn 0.147242 0.822407 0.549515
vn 0.217460 0.542275 0.811572
vn 0.217460 0.542275 0.811572
vn 0.217460 0.542275 0.811572
vn 0.217460 0.542275 0.811572
vn 0.217460 0.542275 0.811572
vn 0.217460 0.542275 0.811572
vn 0.052203 0.979448 0.194824
vn 0.052203 0.979448 0.194824
vn 0.052203 0.979448 0.194824
vn -0.007361 -0.999596 0.027472
vn -0.007361 -0.999596 0.027472
vn -0.007361 -0.999596 0.027472
vn -0.007361 -0.999595 0.027472
vn -0.007361 -0.999595 0.027472
vn -0.007361 -0.999595 0.027472
vn -0.020474 -0.999581 0.020475
vn -0.020474 -0.999581 0.020475
vn -0.020474 -0.999581 0.020475
vn -0.020475 -0.999581 0.020475
vn -0.020475 -0.999581 0.020475
vn -0.020475 -0.999581 0.020475
vn -0.028875 -0.999553 0.007737
vn -0.028875 -0.999553 0.007737
vn -0.028875 -0.999553 0.007737
vn -0.028872 -0.999553 0.007737
vn -0.028872 -0.999553 0.007737
vn -0.028872 -0.999553 0.007737
vn -0.029993 -0.999518 -0.008037
vn -0.029993 -0.999518 -0.008037
vn -0.029993 -0.999518 -0.008037
vn -0.029994 -0.999518 -0.008037
vn -0.029994 -0.999518 -0.008037
vn -0.029994 -0.999518 -0.008037
vn -0.022721 -0.999484 -0.022720
vn -0.022721 -0.999484 -0.022720
vn -0.022721 -0.999484 -0.022720
vn -0.022717 -0.999484 -0.022720
vn -0.022717 -0.999484 -0.022720
vn -0.022717 -0.999484 -0.022720
vn -0.008487 -0.999462 -0.031672
vn -0.008487 -0.999462 -0.031672
vn -0.008487 -0.999462 -0.031672
vn -0.008487 -0.999462 -0.031672
vn -0.008487 -0.999462 -0.031672
vn -0.008487 -0.999462 -0.031672
vn 0.008486 -0.999462 -0.031672
vn 0.008486 -0.999462 -0.031672
vn 0.008486 -0.999462 -0.031672
vn 0.008486 -0.999462 -0.031672
vn 0.008486 -0.999462 -0.031672
vn 0.008486 -0.999462 -0.031672
vn 0.022719 -0.999484 -0.022720
vn 0.022719 -0.999484 -0.022720
vn 0.022719 -0.999484 -0.022720
vn 0.022721 -0.999484 -0.022720
vn 0.022721 -0.999484 -0.022720
vn 0.022721 -0.999484 -0.022720
vn 0.029992 -0.999518 -0.008037
vn 0.029992 -0.999518 -0.008037
vn 0.029992 -0.999518 -0.008037
vn 0.029994 -0.999518 -0.008037
vn 0.029994 -0.999518 -0.008037
vn 0.029994 -0.999518 -0.008037
vn 0.028873 -0.999553 0.007737
vn 0.028873 -0.999553 0.007737
vn 0.028873 -0.999553 0.007737
vn 0.028876 -0.999553 0.007737
vn 0.028876 -0.999553 0.007737
vn 0.028876 -0.999553 0.007737
vn 0.020474 -0.999581 0.020475
vn 0.020474 -0.999581 0.020475
vn 0.020474 -0.999581 0.020475
vn 0.020475 -0.999581 0.020475
vn 0.020475 -0.999581 0.020475
vn 0.020475 -0.999581 0.020475
vn 0.007361 -0.999596 0.027472
vn 0.007361 -0.999596 0.027472
vn 0.007361 -0.999596 0.027472
vn 0.007362 -0.999595 0.027472
vn 0.007362 -0.999595 0.027472
vn 0.007362 -0.999595 0.027472
vn -0.254170 0.188684 0.948576
vn -0.254170 0.188684 0.948576
vn -0.254170 0.188684 0.948576
vn -0.254170 0.188683 0.948576
vn -0.254170 0.188683 0.948576
vn -0.254170 0.188683 0.948576
vn -0.147242 0.822407 0.549515
vn -0.147242 0.822407 0.549515
vn -0.147242 0.822407 0.549515
vn -0.147242 0.822407 0.549515
vn -0.147242 0.822407 0.549515
vn -0.147242 0.822407 0.549515
vn -0.217460 0.542275 0.811572
vn -0.217460 0.542275 0.811572
vn -0.217460 0.542275 0.811572
vn -0.217460 0.542275 0.811572
vn -0.217460 0.542275 0.811572
vn -0.217460 0.542275 0.811572
vn -0.052203 0.979448 0.194824
vn -0.052203 0.979448 0.194824
vn -0.052203 0.979448 0.194824
vn -0.594112 0.542275 0.594112
vn -0.594112 0.542275 0.594112
vn -0.594112 0.542275 0.594112
vn -0.594111 0.542275 0.594112
vn -0.594111 0.542275 0.594112
vn -0.594111 0.542275 0.594112
vn -0.142622 0.979448 0.142621
vn -0.142622 0.979448 0.142621
vn -0.142622 0.979448 0.142621
vn -0.694406 0.188683 0.694406
vn -0.694406 0.188683 0.694406
vn -0.694406 0.188683 0.694406
vn -0.694406 0.188684 0.694406
vn -0.694406 0.188684 0.694406
vn -0.694406 0.188684 0.694406
vn -0.402273 0.822407 0.402273
vn -0.402273 0.822407 0.402273
vn -0.402273 0.822407 0.402273
vn -0.402273 0.822407 0.402273
vn -0.402273 0.822407 0.402273
vn -0.402273 0.822407 0.402273
vn -0.811572 0.542275 0.217460
vn -0.811572 0.542275 0.217460
vn -0.811572 0.542275 0.217460
vn -0.811572 0.542275 0.217460
vn -0.811572 0.542275 0.217460
vn -0.811572 0.542275 0.217460
vn -0.194825 0.979448 0.052203
vn -0.194825 0.979448 0.052203
vn -0.194825 0.979448 0.052203
vn -0.948576 0.188683 0.254170
vn -0.948576 0.188683 0.254170
vn -0.948576 0.188683 0.254170
vn -0.948576 0.188683 0.254170
vn -0.948576 0.188683 0.254170
vn -0.948576 0.188683 0.254170
vn -0.549515 0.822407 0.147242
vn -0.549515 0.822407 0.147242
vn -0.549515 0.822407 0.147242
vn -0.549515 0.822407 0.147242
vn -0.549515 0.822407 0.147242
vn -0.549515 0.822407 0.147242
vn -0.948576 0.188684 -0.254170
vn -0.948576 0.188684 -0.254170
vn -0.948576 0.188684 -0.254170
vn -0.948576 0.188683 -0.254170
vn -0.948576 0.188683 -0.254170
vn -0.948576 0.188683 -0.254170
vn -0.549515 0.822407 -0.147242
vn -0.549515 0.822407 -0.147242
vn -0.549515 0.822407 -0.147242
vn -0.549515 0.822407 -0.147242
vn -0.549515 0.822407 -0.147242
vn -0.549515 0.822407 -0.147242
vn -0.811572 0.542275 -0.217460
vn -0.811572 0.542275 -0.217460
vn -0.811572 0.542275 -0.217460
vn -0.811572 0.542275 -0.217460
vn -0.811572 0.542275 -0.217460
vn -0.811572 0.542275 -0.217460
vn -0.194825 0.979448 -0.052203
vn -0.194825 0.979448 -0.052203
vn -0.194825 0.979448 -0.052203
vn -0.694406 0.188683 -0.694406
vn -0.694406 0.188683 -0.694406
vn -0.694406 0.188683 -0.694406
vn -0.694406 0.188683 -0.694406
vn -0.694406 0.188683 -0.694406
vn -0.694406 0.188683 -0.694406
vn -0.402273 0.822407 -0.402273
vn -0.402273 0.822407 -0.402273
vn -0.402273 0.822407 -0.402273
vn -0.402273 0.822407 -0.402273
vn -0.402273 0.822407 -0.402273
vn -0.402273 0.822407 -0.402273
vn -0.594112 0.542275 -0.594112
vn -0.594112 0.542275 -0.594112
vn -0.594112 0.542275 -0.594112
vn -0.594112 0.542275 -0.594112
vn -0.594112 0.542275 -0.594112
vn -0.594112 0.542275 -0.594112
vn -0.142621 0.979448 -0.142621
vn -0.142621 0.979448 -0.142621
vn -0.142621 0.979448 -0.142621
vn -0.217460 0.542275 -0.811572
vn -0.217460 0.542275 -0.811572
vn -0.217460 0.542275 -0.811572
vn -0.217460 0.542276 -0.811571
vn -0.217460 0.542276 -0.811571
vn -0.217460 0.542276 -0.811571
vn -0.052203 0.979448 -0.194825
vn -0.052203 0.979448 -0.194825
vn -0.052203 0.979448 -0.194825
vn -0.254170 0.188683 -0.948576
vn -0.254170 0.188683 -0.948576
vn -0.254170 0.188683 -0.948576
vn -0.254170 0.188683 -0.948576
vn -0.254170 0.188683 -0.948576
vn -0.254170 0.188683 -0.948576
vn -0.147242 0.822407 -0.549515
vn -0.147242 0.822407 -0.549515
vn -0.147242 0.822407 -0.549515
vn -0.147242 0.822407 -0.549515
vn -0.147242 0.822407 -0.549515
vn -0.147242 0.822407 -0.549515
vn 0.217460 0.542275 -0.811572
vn 0.217460 0.542275 -0.811572
vn 0.217460 0.542275 -0.811572
vn 0.217460 0.542275 -0.811572
vn 0.217460 0.542275 -0.811572
vn 0.217460 0.542275 -0.811572
vn 0.052202 0.979448 -0.194825
vn 0.052202 0.979448 -0.194825
vn 0.052202 0.979448 -0.194825
vn 0.254170 0.188683 -0.948576
vn 0.254170 0.188683 -0.948576
vn 0.254170 0.188683 -0.948576
vn 0.254170 0.188683 -0.948576
vn 0.254170 0.188683 -0.948576
vn 0.254170 0.188683 -0.948576
vn 0.147242 0.822407 -0.549515
vn 0.147242 0.822407 -0.549515
vn 0.147242 0.822407 -0.549515
vn 0.147242 0.822407 -0.549515
vn 0.147242 0.822407 -0.549515
vn 0.147242 0.822407 -0.549515
vn 0.694406 0.188683 -0.694406
vn 0.694406 0.188683 -0.694406
vn 0.694406 0.188683 -0.694406
vn 0.694406 0.188683 -0.694406
vn 0.694406 0.188683 -0.694406
vn 0.694406 0.188683 -0.694406
vn 0.402272 0.822407 -0.402273
vn 0.402272 0.822407 -0.402273
vn 0.402272 0.822407 -0.402273
vn 0.402273 0.822407 -0.402273
vn 0.402273 0.822407 -0.402273
vn 0.402273 0.822407 -0.402273
vn 0.594112 0.542275 -0.594112
vn 0.594112 0.542275 -0.594112
vn 0.594112 0.542275 -0.594112
vn 0.594112 0.542275 -0.594112
vn 0.594112 0.542275 -0.594112
vn 0.594112 0.542275 -0.594112
vn 0.142622 0.979448 -0.142622
vn 0.142622 0.979448 -0.142622
vn 0.142622 0.979448 -0.142622
vn 0.549515 0.822407 -0.147242
vn 0.549515 0.822407 -0.147242
vn 0.549515 0.822407 -0.147242
vn 0.549515 0.822407 -0.147242
vn 0.549515 0.822407 -0.147242
vn 0.549515 0.822407 -0.147242
vn 0.811572 0.542275 -0.217460
vn 0.811572 0.542275 -0.217460
vn 0.811572 0.542275 -0.217460
vn 0.811572 0.542275 -0.217460
vn 0.811572 0.542275 -0.217460
vn 0.811572 0.542275 -0.217460
vn 0.194825 0.979448 -0.052203
vn 0.194825 0.979448 -0.052203
vn 0.194825 0.979448 -0.052203
vn 0.948576 0.188683 -0.254170
vn 0.948576 0.188683 -0.254170
vn 0.948576 0.188683 -0.254170
vn 0.948576 0.188683 -0.254170
vn 0.948576 0.188683 -0.254170
vn 0.948576 0.188683 -0.254170
vn 0.811572 0.542275 0.217460
vn 0.811572 0.542275 0.217460
vn 0.811572 0.542275 0.217460
vn 0.811572 0.542275 0.217460
vn 0.811572 0.542275 0.217460
vn 0.811572 0.542275 0.217460
vn 0.194825 0.979448 0.052203
vn 0.194825 0.979448 0.052203
vn 0.194825 0.979448 0.052203
vn 0.948576 0.188683 0.254171
vn 0.948576 0.188683 0.254171
vn 0.948576 0.188683 0.254171
vn 0.948576 0.188683 0.254171
vn 0.948576 0.188683 0.254171
vn 0.948576 0.188683 0.254171
vn 0.549515 0.822407 0.147242
vn 0.549515 0.822407 0.147242
vn 0.549515 0.822407 0.147242
vn 0.549515 0.822407 0.147242
vn 0.549515 0.822407 0.147242
vn 0.549515 0.822407 0.147242
vn 0.142621 0.979448 0.142621
vn 0.142621 0.979448 0.142621
vn 0.142621 0.979448 0.142621
vn 0.694406 0.188683 0.694406
vn 0.694406 0.188683 0.694406
vn 0.694406 0.188683 0.694406
vn 0.694406 0.188683 0.694406
vn 0.694406 0.188683 0.694406
vn 0.694406 0.188683 0.694406
vn 0.402273 0.822407 0.402273
vn 0.402273 0.822407 0.402273
vn 0.402273 0.822407 0.402273
vn 0.402273 0.822407 0.402273
vn 0.402273 0.822407 0.402273
vn 0.402273 0.822407 0.402273
vn 0.594112 0.542275 0.594112
vn 0.594112 0.542275 0.594112
vn 0.594112 0.542275 0.594112
vn 0.594112 0.542275 0.594112
vn 0.594112 0.542275 0.594112
vn 0.594112 0.542275 0.594112
vn 0.254170 0.188683 0.948576
vn 0.254170 0.188683 0.948576
vn 0.254170 0.188683 0.948576
vn 0.254170 0.188683 0.948576
vn 0.254170 0.188683 0.948576
vn 0.254170 0.188683 0.948576
vn 0.147242 0.822407 0.549515
vn 0.147242 0.822407 0.549515
vn 0.147242 0.822407 0.549515
vn 0.147242 0.822407 0.549515
vn 0.147242 0.822407 0.549515
vn 0.147242 0.822407 0.549515
vn 0.217460 0.542275 0.811572
vn 0.217460 0.542275 0.811572
vn 0.217460 0.542275 0.811572
vn 0.217460 0.542275 0.811572
vn 0.217460 0.542275 0.811572
vn 0.217460 0.542275 0.811572
vn 0.052203 0.979448 0.194825
vn 0.052203 0.979448 0.194825
vn 0.052203 0.979448 0.194825
vn -0.380721 -0.452355 0.806490
vn -0.380721 -0.452355 0.806490
vn -0.380721 -0.452355 0.806490
vn -0.380153 -0.452004 0.806954
vn -0.380153 -0.452004 0.806954
vn -0.380153 -0.452004 0.806954
vn -0.842886 -0.449414 0.295924
vn -0.842886 -0.449414 0.295924
vn -0.842886 -0.449414 0.295924
vn -0.842655 -0.448333 0.298211
vn -0.842655 -0.448333 0.298211
vn -0.842655 -0.448333 0.298211
vn -0.808551 -0.443688 -0.386505
vn -0.808551 -0.443688 -0.386505
vn -0.808551 -0.443688 -0.386505
vn -0.808071 -0.442477 -0.388890
vn -0.808071 -0.442477 -0.388890
vn -0.808071 -0.442477 -0.388890
vn -0.301420 -0.439455 -0.846183
vn -0.301420 -0.439455 -0.846183
vn -0.301420 -0.439455 -0.846183
vn -0.302638 -0.438869 -0.846052
vn -0.302638 -0.438869 -0.846052
vn -0.302638 -0.438869 -0.846052
vn 0.378625 -0.438249 -0.815218
vn 0.378625 -0.438249 -0.815218
vn 0.378625 -0.438249 -0.815218
vn 0.379177 -0.438595 -0.814776
vn 0.379177 -0.438595 -0.814776
vn 0.379177 -0.438595 -0.814776
vn 0.840792 -0.441130 -0.313804
vn 0.840792 -0.441130 -0.313804
vn 0.840792 -0.441130 -0.313804
vn 0.841033 -0.442231 -0.311601
vn 0.841033 -0.442231 -0.311601
vn 0.841033 -0.442231 -0.311601
vn 0.813219 -0.446871 0.372801
vn 0.813219 -0.446871 0.372801
vn 0.813219 -0.446871 0.372801
vn 0.813696 -0.448049 0.370338
vn 0.813696 -0.448049 0.370338
vn 0.813696 -0.448049 0.370338
vn 0.308476 -0.451120 0.837456
vn 0.308476 -0.451120 0.837456
vn 0.308476 -0.451120 0.837456
vn 0.307233 -0.451731 0.837584
vn 0.307233 -0.451731 0.837584
vn 0.307233 -0.451731 0.837584
vn -0.424009 0.000000 0.905658
vn -0.424009 0.000000 0.905658
vn -0.424009 0.000000 0.905658
vn -0.424009 0.000000 0.905658
vn -0.424009 0.000000 0.905658
vn -0.424009 0.000000 0.905658
vn 0.340575 -0.008302 0.940181
vn 0.340575 -0.008302 0.940181
vn 0.340575 -0.008302 0.940181
vn 0.340575 -0.008301 0.940181
vn 0.340575 -0.008301 0.940181
vn 0.340575 -0.008301 0.940181
vn 0.905655 -0.002653 0.424008
vn 0.905655 -0.002653 0.424008
vn 0.905655 -0.002653 0.424008
vn 0.905655 -0.002652 0.424008
vn 0.905655 -0.002652 0.424008
vn 0.905655 -0.002652 0.424008
vn 0.940226 0.004550 -0.340520
vn 0.940226 0.004550 -0.340520
vn 0.940226 0.004550 -0.340520
vn 0.940226 0.004551 -0.340521
vn 0.940226 0.004551 -0.340521
vn 0.940226 0.004551 -0.340521
vn 0.424031 0.009088 -0.905602
vn 0.424031 0.009088 -0.905602
vn 0.424031 0.009088 -0.905602
vn 0.424030 0.009087 -0.905603
vn 0.424030 0.009087 -0.905603
vn 0.424030 0.009087 -0.905603
vn -0.340575 0.008302 -0.940180
vn -0.340575 0.008302 -0.940180
vn -0.340575 0.008302 -0.940180
vn -0.340576 0.008301 -0.940180
vn -0.340576 0.008301 -0.940180
vn -0.340576 0.008301 -0.940180
vn -0.905654 0.002653 -0.424009
vn -0.905654 0.002653 -0.424009
vn -0.905654 0.002653 -0.424009
vn -0.905654 0.002652 -0.424008
vn -0.905654 0.002652 -0.424008
vn -0.905654 0.002652 -0.424008
vn -0.940226 -0.004549 0.340520
vn -0.940226 -0.004549 0.340520
vn -0.940226 -0.004549 0.340520
vn -0.940226 -0.004551 0.340522
vn -0.940226 -0.004551 0.340522
vn -0.940226 -0.004551 0.340522
vn -0.424031 -0.009088 0.905602
vn -0.424031 -0.009088 0.905602
vn -0.424031 -0.009088 0.905602
vn -0.424031 -0.009087 0.905602
vn -0.424031 -0.009087 0.905602
vn -0.424031 -0.009087 0.905602
vn 0.316518 0.348542 0.882233
vn 0.316518 0.348542 0.882233
vn 0.316518 0.348542 0.882233
vn 0.316519 0.348541 0.882233
vn 0.316519 0.348541 0.882233
vn 0.316519 0.348541 0.882233
vn -0.396062 0.347739 0.849831
vn -0.396062 0.347739 0.849831
vn -0.396062 0.347739 0.849831
vn -0.396062 0.347739 0.849831
vn -0.396062 0.347739 0.849831
vn -0.396062 0.347739 0.849831
vn -0.878121 0.352374 0.323629
vn -0.878121 0.352374 0.323629
vn -0.878121 0.352374 0.323629
vn -0.878123 0.352371 0.323627
vn -0.878123 0.352371 0.323627
vn -0.878123 0.352371 0.323627
vn -0.847450 0.359761 -0.390386
vn -0.847450 0.359761 -0.390386
vn -0.847450 0.359761 -0.390386
vn -0.847450 0.359762 -0.390383
vn -0.847450 0.359762 -0.390383
vn -0.847450 0.359762 -0.390383
vn -0.319732 0.365587 -0.874138
vn -0.319732 0.365587 -0.874138
vn -0.319732 0.365587 -0.874138
vn -0.319731 0.365587 -0.874138
vn -0.319731 0.365587 -0.874138
vn -0.319731 0.365587 -0.874138
vn 0.844443 0.354318 0.401714
vn 0.844443 0.354318 0.401714
vn 0.844443 0.354318 0.401714
vn 0.844442 0.354318 0.401716
vn 0.844442 0.354318 0.401716
vn 0.844442 0.354318 0.401716
vn 0.878353 0.361717 -0.312502
vn 0.878353 0.361717 -0.312502
vn 0.878353 0.361717 -0.312502
vn 0.878353 0.361718 -0.312500
vn 0.878353 0.361718 -0.312500
vn 0.878353 0.361718 -0.312500
vn 0.396087 0.366400 -0.841942
vn 0.396087 0.366400 -0.841942
vn 0.396087 0.366400 -0.841942
vn 0.396087 0.366401 -0.841942
vn 0.396087 0.366401 -0.841942
vn 0.396087 0.366401 -0.841942
vn 0.251942 0.810282 -0.529120
vn 0.251942 0.810282 -0.529120
vn 0.251942 0.810282 -0.529120
vn 0.251943 0.810281 -0.529122
vn 0.251943 0.810281 -0.529122
vn 0.251943 0.810281 -0.529122
vn 0.560971 0.805604 -0.190563
vn 0.560971 0.805604 -0.190563
vn 0.560971 0.805604 -0.190563
vn 0.560974 0.805601 -0.190563
vn 0.560974 0.805601 -0.190563
vn 0.560974 0.805601 -0.190563
vn 0.539955 0.798202 0.267064
vn 0.539955 0.798202 0.267064
vn 0.539955 0.798202 0.267064
vn 0.539961 0.798198 0.267062
vn 0.539961 0.798198 0.267062
vn 0.539961 0.798198 0.267062
vn 0.201673 0.792416 0.575678
vn 0.201673 0.792416 0.575678
vn 0.201673 0.792416 0.575678
vn 0.201673 0.792417 0.575676
vn 0.201673 0.792417 0.575676
vn 0.201673 0.792417 0.575676
vn -0.255694 0.791614 0.554949
vn -0.255694 0.791614 0.554949
vn -0.255694 0.791614 0.554949
vn -0.255691 0.791613 0.554951
vn -0.255691 0.791613 0.554951
vn -0.255691 0.791613 0.554951
vn -0.564679 0.796257 0.217054
vn -0.564679 0.796257 0.217054
vn -0.564679 0.796257 0.217054
vn -0.564682 0.796255 0.217053
vn -0.564682 0.796255 0.217053
vn -0.564682 0.796255 0.217053
vn -0.544332 0.803647 -0.240531
vn -0.544332 0.803647 -0.240531
vn -0.544332 0.803647 -0.240531
vn -0.544322 0.803653 -0.240533
vn -0.544322 0.803653 -0.240533
vn -0.544322 0.803653 -0.240533
vn -0.206085 0.809469 -0.549809
vn -0.206085 0.809469 -0.549809
vn -0.206085 0.809469 -0.549809
vn -0.206085 0.809471 -0.549805
vn -0.206085 0.809471 -0.549805
vn -0.206085 0.809471 -0.549805
vn -0.002573 0.999858 0.016635
vn -0.002573 0.999858 0.016635
vn -0.002573 0.999858 0.016635
vn -0.002578 0.999858 0.016631
vn -0.002578 0.999858 0.016631
vn -0.002578 0.999858 0.016631
vn -0.002582 0.999858 0.016629
vn -0.002582 0.999858 0.016629
vn -0.002582 0.999858 0.016629
vn -0.002578 0.999858 0.016631
vn -0.002578 0.999858 0.016631
vn -0.002578 0.999858 0.016631
vn -0.002579 0.999858 0.016635
vn -0.002579 0.999858 0.016635
vn -0.002579 0.999858 0.016635
vn -0.002586 0.999858 0.016626
vn -0.002586 0.999858 0.016626
vn -0.002586 0.999858 0.016626
vn -0.940212 0.000000 0.340589
vn -0.940212 0.000000 0.340589
vn -0.940212 0.000000 0.340589
vn -0.940213 0.000000 0.340588
vn -0.940213 0.000000 0.340588
vn -0.940213 0.000000 0.340588
vn -0.340525 0.000000 -0.940235
vn -0.340525 0.000000 -0.940235
vn -0.340525 0.000000 -0.940235
vn -0.340526 0.000000 -0.940235
vn -0.340526 0.000000 -0.940235
vn -0.340526 0.000000 -0.940235
vn 0.940213 0.000000 -0.340587
vn 0.940213 0.000000 -0.340587
vn 0.940213 0.000000 -0.340587
vn 0.940213 0.000000 -0.340586
vn 0.940213 0.000000 -0.340586
vn 0.940213 0.000000 -0.340586
vn 0.340523 0.000000 0.940236
vn 0.340523 0.000000 0.940236
vn 0.340523 0.000000 0.940236
vn 0.340523 0.000000 0.940236
vn 0.340523 0.000000 0.940236
vn 0.340523 0.000000 0.940236
vn -0.905639 0.000000 -0.424049
vn -0.905639 0.000000 -0.424049
vn -0.905639 0.000000 -0.424049
vn -0.905639 0.000000 -0.424049
vn -0.905639 0.000000 -0.424049
vn -0.905639 0.000000 -0.424049
vn 0.905640 0.000000 0.424047
vn 0.905640 0.000000 0.424047
vn 0.905640 0.000000 0.424047
vn 0.905640 0.000000 0.424047
vn 0.905640 0.000000 0.424047
vn 0.905640 0.000000 0.424047
vn 0.424010 0.000000 -0.905657
vn 0.424010 0.000000 -0.905657
vn 0.424010 0.000000 -0.905657
vn 0.424011 0.000000 -0.905657
vn 0.424011 0.000000 -0.905657
vn 0.424011 0.000000 -0.905657

g Material
f 3/1/1 1/2/2 2/3/3
f 4/4/4 1/5/5 3/6/6
f 7/7/7 5/8/8 6/9/9
f 8/10/10 5/11/11 7/12/12
f 11/13/13 9/14/14 10/15/15
f 12/16/16 9/17/17 11/18/18
f 15/19/19 13/20/20 14/21/21
f 16/22/22 13/23/23 15/24/24
f 19/25/25 17/26/26 18/27/27
f 20/28/28 17/29/29 19/30/30
f 23/31/31 21/32/32 22/33/33
f 24/34/34 21/35/35 23/36/36
f 27/37/37 25/38/38 26/39/39
f 28/40/40 25/41/41 27/42/42
f 31/43/43 29/44/44 30/45/45
f 32/46/46 29/47/47 31/48/48
f 35/49/49 33/50/50 34/51/51
f 36/52/52 33/53/53 35/54/54
f 39/55/55 37/56/56 38/57/57
f 40/58/58 37/59/59 39/60/60
f 627/61/61 625/62/62 626/63/63
f 628/64/64 625/65/65 627/66/66
f 631/67/67 629/68/68 630/69/69
f 632/70/70 629/71/71 631/72/72
f 635/73/73 633/74/74 634/75/75
f 636/76/76 633/77/77 635/78/78
f 639/79/79 637/80/80 638/81/81
f 640/82/82 637/83/83 639/84/84
f 643/85/85 641/86/86 642/87/87
f 644/88/88 641/89/89 643/90/90
f 647/91/91 645/92/92 646/93/93
f 648/94/94 645/95/95 647/96/96
f 651/97/97 649/98/98 650/99/99
f 652/100/100 649/101/101 651/102/102
f 655/103/103 653/104/104 654/105/105
f 656/106/106 653/107/107 655/108/108
f 659/109/109 657/110/110 658/111/111
f 660/112/112 657/113/113 659/114/114
f 663/115/115 661/116/116 662/117/117
f 664/118/118 661/119/119 663/120/120
f 667/121/121 665/122/122 666/123/123
f 668/124/124 665/125/125 667/126/126
f 671/127/127 669/128/128 670/129/129
f 672/130/130 669/131/131 671/132/132
f 675/133/133 673/134/134 674/135/135
f 676/136/136 673/137/137 675/138/138
f 679/139/139 677/140/140 678/141/141
f 680/142/142 677/143/143 679/144/144
f 683/145/145 681/146/146 682/147/147
f 684/148/148 681/149/149 683/150/150
f 687/151/151 685/152/152 686/153/153
f 688/154/154 685/155/155 687/156/156

g Material.004
f 43/157/157 41/158/158 42/159/159
f 44/160/160 41/161/161 43/162/162
f 47/163/163 45/164/164 46/165/165
f 48/166/166 45/167/167 47/168/168
f 51/169/169 49/170/170 50/171/171
f 52/172/172 49/173/173 51/174/174
f 55/175/175 53/176/176 54/177/177
f 58/178/178 56/179/179 57/180/180
f 59/181/181 56/182/182 58/183/183
f 62/184/184 60/185/185 61/186/186
f 65/187/187 63/188/188 64/189/189
f 66/190/190 63/191/191 65/192/192
f 69/193/193 67/194/194 68/195/195
f 70/196/196 67/197/197 69/198/198
f 73/199/199 71/200/200 72/201/201
f 74/202/202 71/203/203 73/204/204
f 77/205/205 75/206/206 76/207/207
f 80/208/208 78/209/209 79/210/210
f 81/211/211 78/212/212 80/213/213
f 84/214/214 82/215/215 83/216/216
f 85/217/217 82/218/218 84/219/219
f 88/220/220 86/221/221 87/222/222
f 89/223/223 86/224/224 88/225/225
f 92/226/226 90/227/227 91/228/228
f 93/229/229 90/230/230 92/231/231
f 96/232/232 94/233/233 95/234/234
f 97/235/235 94/236/236 96/237/237
f 100/238/238 98/239/239 99/240/240
f 103/241/241 101/242/242 102/243/243
f 104/244/244 101/245/245 103/246/246
f 107/247/247 105/248/248 106/249/249
f 108/250/250 105/251/251 107/252/252
f 111/253/253 109/254/254 110/255/255
f 112/256/256 109/257/257 111/258/258
f 115/259/259 113/260/260 114/261/261
f 118/262/262 116/263/263 117/264/264
f 119/265/265 116/266/266 118/267/267
f 122/268/268 120/269/269 121/270/270
f 125/271/271 123/272/272 124/273/273
f 126/274/274 123/275/275 125/276/276
f 129/277/277 127/278/278 128/279/279
f 130/280/280 127/281/281 129/282/282
f 133/283/283 131/284/284 132/285/285
f 134/286/286 131/287/287 133/288/288
f 137/289/289 135/290/290 136/291/291
f 140/292/292 138/293/293 139/294/294
f 141/295/295 138/296/296 140/297/297
f 144/298/298 142/299/299 143/300/300
f 145/301/301 142/302/302 144/303/303
f 148/304/304 146/305/305 147/306/306
f 149/307/307 146/308/308 148/309/309
f 152/310/310 150/311/311 151/312/312
f 153/313/313 150/314/314 152/315/315
f 156/316/316 154/317/317 155/318/318
f 157/319/319 154/320/320 156/321/321
f 160/322/322 158/323/323 159/324/324
f 163/325/325 161/326/326 162/327/327
f 164/328/328 161/329/329 163/330/330
f 167/331/331 165/332/332 166/333/333
f 168/334/334 165/335/335 167/336/336
f 171/337/337 169/338/338 170/339/339
f 174/340/340 172/341/341 173/342/342
f 175/343/343 172/344/344 174/345/345
f 178/346/346 176/347/347 177/348/348
f 179/349/349 176/350/350 178/351/351
f 182/352/352 180/353/353 181/354/354
f 185/355/355 183/356/356 184/357/357
f 186/358/358 183/359/359 185/360/360
f 189/361/361 187/362/362 188/363/363
f 190/364/364 187/365/365 189/366/366
f 193/367/367 191/368/368 192/369/369
f 196/370/370 194/371/371 195/372/372
f 197/373/373 194/374/374 196/375/375
f 200/376/376 198/377/377 199/378/378
f 201/379/379 198/380/380 200/381/381
f 204/382/382 202/383/383 203/384/384
f 205/385/385 202/386/386 204/387/387
f 208/388/388 206/389/389 207/390/390
f 209/391/391 206/392/392 208/393/393
f 212/394/394 210/395/395 211/396/396
f 213/397/397 210/398/398 212/399/399
f 216/400/400 214/401/401 215/402/402
f 217/403/403 214/404/404 216/405/405
f 220/406/406 218/407/407 219/408/408
f 403/409/409 401/410/410 402/411/411
f 404/412/412 401/413/413 403/414/414
f 407/415/415 405/416/416 406/417/417
f 408/418/418 405/419/419 407/420/420
f 411/421/421 409/422/422 410/423/423
f 412/424/424 409/425/425 411/426/426
f 415/427/427 413/428/428 414/429/429
f 416/430/430 413/431/431 415/432/432
f 419/433/433 417/434/434 418/435/435
f 420/436/436 417/437/437 419/438/438
f 423/439/439 421/440/440 422/441/441
f 424/442/442 421/443/443 423/444/444
f 427/445/445 425/446/446 426/447/447
f 428/448/448 425/449/449 427/450/450
f 431/451/451 429/452/452 430/453/453
f 432/454/454 429/455/455 431/456/456
f 435/457/457 433/458/458 434/459/459
f 436/460/460 433/461/461 435/462/462
f 439/463/463 437/464/464 438/465/465
f 440/466/466 437/467/467 439/468/468
f 443/469/469 441/470/470 442/471/471
f 444/472/472 441/473/473 443/474/474
f 447/475/475 445/476/476 446/477/477
f 448/478/478 445/479/479 447/480/480

g Material.005
f 223/481/481 221/482/482 222/483/483
f 224/484/484 221/485/485 223/486/486
f 227/487/487 225/488/488 226/489/489
f 228/490/490 225/491/491 227/492/492
f 231/493/493 229/494/494 230/495/495
f 232/496/496 229/497/497 231/498/498
f 235/499/499 233/500/500 234/501/501
f 238/502/502 236/503/503 237/504/504
f 239/505/505 236/506/506 238/507/507
f 242/508/508 240/509/509 241/510/510
f 245/511/511 243/512/512 244/513/513
f 246/514/514 243/515/515 245/516/516
f 249/517/517 247/518/518 248/519/519
f 250/520/520 247/521/521 249/522/522
f 253/523/523 251/524/524 252/525/525
f 254/526/526 251/527/527 253/528/528
f 257/529/529 255/530/530 256/531/531
f 260/532/532 258/533/533 259/534/534
f 261/535/535 258/536/536 260/537/537
f 264/538/538 262/539/539 263/540/540
f 265/541/541 262/542/542 264/543/543
f 268/544/544 266/545/545 267/546/546
f 269/547/547 266/548/548 268/549/549
f 272/550/550 270/551/551 271/552/552
f 273/553/553 270/554/554 272/555/555
f 276/556/556 274/557/557 275/558/558
f 277/559/559 274/560/560 276/561/561
f 280/562/562 278/563/563 279/564/564
f 283/565/565 281/566/566 282/567/567
f 284/568/568 281/569/569 283/570/570
f 287/571/571 285/572/572 286/573/573
f 288/574/574 285/575/575 287/576/576
f 291/577/577 289/578/578 290/579/579
f 292/580/580 289/581/581 291/582/582
f 295/583/583 293/584/584 294/585/585
f 298/586/586 296/587/587 297/588/588
f 299/589/589 296/590/590 298/591/591
f 302/592/592 300/593/593 301/594/594
f 305/595/595 303/596/596 304/597/597
f 306/598/598 303/599/599 305/600/600
f 309/601/601 307/602/602 308/603/603
f 310/604/604 307/605/605 309/606/606
f 313/607/607 311/608/608 312/609/609
f 314/610/610 311/611/611 313/612/612
f 317/613/613 315/614/614 316/615/615
f 320/616/616 318/617/617 319/618/618
f 321/619/619 318/620/620 320/621/621
f 324/622/622 322/623/623 323/624/624
f 325/625/625 322/626/626 324/627/627
f 328/628/628 326/629/629 327/630/630
f 329/631/631 326/632/632 328/633/633
f 332/634/634 330/635/635 331/636/636
f 333/637/637 330/638/638 332/639/639
f 336/640/640 334/641/641 335/642/642
f 337/643/643 334/644/644 336/645/645
f 340/646/646 338/647/647 339/648/648
f 343/649/649 341/650/650 342/651/651
f 344/652/652 341/653/653 343/654/654
f 347/655/655 345/656/656 346/657/657
f 348/658/658 345/659/659 347/660/660
f 351/661/661 349/662/662 350/663/663
f 354/664/664 352/665/665 353/666/666
f 355/667/667 352/668/668 354/669/669
f 358/670/670 356/671/671 357/672/672
f 359/673/673 356/674/674 358/675/675
f 362/676/676 360/677/677 361/678/678
f 365/679/679 363/680/680 364/681/681
f 366/682/682 363/683/683 365/684/684
f 369/685/685 367/686/686 368/687/687
f 370/688/688 367/689/689 369/690/690
f 373/691/691 371/692/692 372/693/693
f 376/694/694 374/695/695 375/696/696
f 377/697/697 374/698/698 376/699/699
f 380/700/700 378/701/701 379/702/702
f 381/703/703 378/704/704 380/705/705
f 384/706/706 382/707/707 383/708/708
f 385/709/709 382/710/710 384/711/711
f 388/712/712 386/713/713 387/714/714
f 389/715/715 386/716/716 388/717/717
f 392/718/718 390/719/719 391/720/720
f 393/721/721 390/722/722 392/723/723
f 396/724/724 394/725/725 395/726/726
f 397/727/727 394/728/728 396/729/729
f 400/730/730 398/731/731 399/732/732

g Material.006
f 451/733/733 449/734/734 450/735/735
f 452/736/736 449/737/737 451/738/738
f 455/739/739 453/740/740 454/741/741
f 456/742/742 453/743/743 455/744/744
f 459/745/745 457/746/746 458/747/747
f 460/748/748 457/749/749 459/750/750
f 463/751/751 461/752/752 462/753/753
f 464/754/754 461/755/755 463/756/756
f 467/757/757 465/758/758 466/759/759
f 468/760/760 465/761/761 467/762/762
f 471/763/763 469/764/764 470/765/765
f 472/766/766 469/767/767 471/768/768
f 475/769/769 473/770/770 474/771/771
f 476/772/772 473/773/773 475/774/774
f 479/775/775 477/776/776 478/777/777
f 480/778/778 477/779/779 479/780/780
f 483/781/781 481/782/782 482/783/783
f 484/784/784 481/785/785 483/786/786
f 487/787/787 485/788/788 486/789/789
f 488/790/790 485/791/791 487/792/792
f 491/793/793 489/794/794 490/795/795
f 492/796/796 489/797/797 491/798/798
f 495/799/799 493/800/800 494/801/801
f 496/802/802 493/803/803 495/804/804
f 499/805/805 497/806/806 498/807/807
f 500/808/808 497/809/809 499/810/810
f 503/811/811 501/812/812 502/813/813
f 504/814/814 501/815/815 503/816/816
f 507/817/817 505/818/818 506/819/819
f 508/820/820 505/821/821 507/822/822
f 511/823/823 509/824/824 510/825/825
f 512/826/826 509/827/827 511/828/828
f 515/829/829 513/830/830 514/831/831
f 516/832/832 513/833/833 515/834/834
f 519/835/835 517/836/836 518/837/837
f 520/838/838 517/839/839 519/840/840
f 523/841/841 521/842/842 522/843/843
f 524/844/844 521/845/845 523/846/846
f 527/847/847 525/848/848 526/849/849
f 528/850/850 525/851/851 527/852/852
f 531/853/853 529/854/854 530/855/855
f 532/856/856 529/857/857 531/858/858
f 535/859/859 533/860/860 534/861/861
f 536/862/862 533/863/863 535/864/864
f 539/865/865 537/866/866 538/867/867
f 540/868/868 537/869/869 539/870/870
f 543/871/871 541/872/872 542/873/873
f 544/874/874 541/875/875 543/876/876
f 547/877/877 545/878/878 546/879/879
f 548/880/880 545/881/881 547/882/882
f 551/883/883 549/884/884 550/885/885
f 552/886/886 549/887/887 551/888/888
f 555/889/889 553/890/890 554/891/891
f 556/892/892 553/893/893 555/894/894
f 559/895/895 557/896/896 558/897/897
f 560/898/898 557/899/899 559/900/900
f 563/901/901 561/902/902 562/903/903
f 564/904/904 561/905/905 563/906/906
f 567/907/907 565/908/908 566/909/909
f 568/910/910 565/911/911 567/912/912
f 571/913/913 569/914/914 570/915/915
f 572/916/916 569/917/917 571/918/918
f 575/919/919 573/920/920 574/921/921
f 576/922/922 573/923/923 575/924/924
f 579/925/925 577/926/926 578/927/927
f 580/928/928 577/929/929 579/930/930
f 583/931/931 581/932/932 582/933/933
f 586/934/934 584/935/935 585/936/936
f 587/937/937 584/938/938 586/939/939
f 590/940/940 588/941/941 589/942/942
f 593/943/943 591/944/944 592/945/945
f 596/946/946 594/947/947 595/948/948
f 599/949/949 597/950/950 598/951/951
f 600/952/952 597/953/953 599/954/954
f 603/955/955 601/956/956 602/957/957
f 604/958/958 601/959/959 603/960/960
f 607/961/961 605/962/962 606/963/963
f 608/964/964 605/965/965 607/966/966
f 611/967/967 609/968/968 610/969/969
f 612/970/970 609/971/971 611/972/972
f 615/973/973 613/974/974 614/975/975
f 616/976/976 613/977/977 615/978/978
f 619/979/979 617/980/980 618/981/981
f 620/982/982 617/983/983 619/984/984
f 623/985/985 621/986/986 622/987/987
f 624/988/988 621/989/989 623/990/990

