# Converted from B3D for Luanti (With Correct Normals)
# Object Name: multidecor_window_segment_1

v 0.800000 0.875000 -0.800000
v -1.000000 0.875000 -0.800000
v -1.000000 1.000000 -0.800000
v 0.800000 1.000000 -0.800000
v 1.000000 0.750000 -1.000000
v -1.000000 0.750000 -1.000000
v -1.000000 1.000000 -1.000000
v 1.000000 1.000000 -1.000000
v 1.000000 1.000000 -1.000000
v 1.000000 1.000000 1.000000
v 1.000000 0.750000 1.000000
v 1.000000 0.750000 -1.000000
v 1.000000 1.000000 1.000000
v -1.000000 1.000000 1.000000
v -1.000000 0.750000 1.000000
v 1.000000 0.750000 1.000000
v 0.800000 0.875000 -0.800000
v 0.800000 0.875000 0.800000
v 0.800000 0.750000 0.800000
v 0.800000 0.750000 -0.800000
v 0.800000 0.875000 0.800000
v -1.000000 0.875000 0.800000
v -1.000000 0.750000 0.800000
v 0.800000 0.750000 0.800000
v 1.000000 0.750000 -1.000000
v 0.800000 0.750000 -0.800000
v -1.000000 0.750000 -0.800000
v -1.000000 0.750000 -1.000000
v 1.000000 0.750000 1.000000
v 0.800000 0.750000 0.800000
v 0.800000 0.750000 -0.800000
v 1.000000 0.750000 -1.000000
v -1.000000 0.750000 1.000000
v -1.000000 0.750000 0.800000
v 0.800000 0.750000 0.800000
v 1.000000 0.750000 1.000000
v 1.000000 1.000000 1.000000
v 0.800000 1.000000 0.800000
v -1.000000 1.000000 0.800000
v -1.000000 1.000000 1.000000
v 1.000000 1.000000 -1.000000
v 0.800000 1.000000 -0.800000
v 0.800000 1.000000 0.800000
v 1.000000 1.000000 1.000000
v -1.000000 1.000000 -1.000000
v -1.000000 1.000000 -0.800000
v 0.800000 1.000000 -0.800000
v 1.000000 1.000000 -1.000000
v 0.800000 1.000000 0.800000
v -1.000000 1.000000 0.800000
v -1.000000 0.875000 0.800000
v 0.800000 0.875000 0.800000
v 0.800000 1.000000 -0.800000
v 0.800000 1.000000 0.800000
v 0.800000 0.875000 0.800000
v 0.800000 0.875000 -0.800000
v 0.800000 0.750000 -0.800000
v -1.000000 0.750000 -0.800000
v -1.000000 0.875000 -0.800000
v 0.800000 0.875000 -0.800000
v 0.800000 0.875000 0.800000
v -1.000000 0.875000 0.800000
v -1.000000 0.875000 -0.800000
v 0.800000 0.875000 -0.800000

vt 0.693773 0.500101
vt 0.725010 0.949920
vt 0.725010 0.500101
vt 0.693773 0.949920
vt 0.725010 0.949920
vt 0.693773 0.500101
vt 0.643793 0.500101
vt 0.581318 0.999899
vt 0.581318 0.500100
vt 0.643793 0.999899
vt 0.581318 0.999899
vt 0.643793 0.500101
vt 0.081318 0.499899
vt 0.143793 0.000101
vt 0.143793 0.499899
vt 0.081318 0.000101
vt 0.143793 0.000101
vt 0.081318 0.499899
vt 0.499899 0.643793
vt 0.000101 0.581318
vt 0.499899 0.581318
vt 0.000101 0.643793
vt 0.000101 0.581318
vt 0.499899 0.643793
vt 0.031339 0.449920
vt 0.000101 0.050081
vt 0.000101 0.449920
vt 0.031338 0.050081
vt 0.000101 0.050081
vt 0.031339 0.449920
vt 0.499899 0.693773
vt 0.050080 0.725010
vt 0.499899 0.725010
vt 0.050080 0.693773
vt 0.050080 0.725010
vt 0.499899 0.693773
vt 0.531338 0.500100
vt 0.581318 0.999899
vt 0.531338 0.949920
vt 0.581318 0.500100
vt 0.581318 0.999899
vt 0.531338 0.500100
vt 0.031338 0.050081
vt 0.081318 0.499899
vt 0.031339 0.449920
vt 0.081318 0.000101
vt 0.081318 0.499899
vt 0.031338 0.050081
vt 0.050080 0.693773
vt 0.499899 0.643793
vt 0.499899 0.693773
vt 0.000101 0.643793
vt 0.499899 0.643793
vt 0.050080 0.693773
vt 0.499899 0.531338
vt 0.000101 0.581318
vt 0.050080 0.531338
vt 0.499899 0.581318
vt 0.000101 0.581318
vt 0.499899 0.531338
vt 0.193773 0.449919
vt 0.143793 0.000101
vt 0.193773 0.050080
vt 0.143793 0.499899
vt 0.143793 0.000101
vt 0.193773 0.449919
vt 0.693773 0.949920
vt 0.643793 0.500101
vt 0.693773 0.500101
vt 0.643793 0.999899
vt 0.643793 0.500101
vt 0.693773 0.949920
vt 0.499899 0.500101
vt 0.050080 0.531338
vt 0.499899 0.531338
vt 0.050080 0.500100
vt 0.050080 0.531338
vt 0.499899 0.500101
vt 0.225011 0.449919
vt 0.193773 0.050080
vt 0.193773 0.449919
vt 0.225011 0.050080
vt 0.193773 0.050080
vt 0.225011 0.449919
vt 0.500101 0.500100
vt 0.531338 0.949920
vt 0.531338 0.500100
vt 0.500100 0.949919
vt 0.531338 0.949920
vt 0.500101 0.500100
vt 0.000094 0.999906
vt 0.888816 0.000094
vt 0.888816 0.999906
vt 0.000094 0.000094
vt 0.888816 0.000094
vt 0.000094 0.999906

vn -0.000000 0.000000 -1.000000
vn -0.000000 0.000000 -1.000000
vn -0.000000 0.000000 -1.000000
vn -0.000000 0.000000 -1.000000
vn -0.000000 0.000000 -1.000000
vn -0.000000 0.000000 -1.000000
vn -0.000000 -0.000000 -1.000000
vn -0.000000 -0.000000 -1.000000
vn -0.000000 -0.000000 -1.000000
vn -0.000000 0.000000 -1.000000
vn -0.000000 0.000000 -1.000000
vn -0.000000 0.000000 -1.000000
vn 1.000000 0.000000 0.000000
vn 1.000000 0.000000 0.000000
vn 1.000000 0.000000 0.000000
vn 1.000000 0.000000 -0.000000
vn 1.000000 0.000000 -0.000000
vn 1.000000 0.000000 -0.000000
vn 0.000000 0.000000 1.000000
vn 0.000000 0.000000 1.000000
vn 0.000000 0.000000 1.000000
vn 0.000000 -0.000000 1.000000
vn 0.000000 -0.000000 1.000000
vn 0.000000 -0.000000 1.000000
vn 1.000000 0.000000 -0.000000
vn 1.000000 0.000000 -0.000000
vn 1.000000 0.000000 -0.000000
vn 1.000000 0.000000 0.000000
vn 1.000000 0.000000 0.000000
vn 1.000000 0.000000 0.000000
vn 0.000000 0.000000 1.000000
vn 0.000000 0.000000 1.000000
vn 0.000000 0.000000 1.000000
vn 0.000000 0.000000 1.000000
vn 0.000000 0.000000 1.000000
vn 0.000000 0.000000 1.000000
vn -0.000000 -1.000000 0.000000
vn -0.000000 -1.000000 0.000000
vn -0.000000 -1.000000 0.000000
vn -0.000000 -1.000000 0.000000
vn -0.000000 -1.000000 0.000000
vn -0.000000 -1.000000 0.000000
vn -0.000001 -1.000000 0.000000
vn -0.000001 -1.000000 0.000000
vn -0.000001 -1.000000 0.000000
vn -0.000000 -1.000000 0.000000
vn -0.000000 -1.000000 0.000000
vn -0.000000 -1.000000 0.000000
vn -0.000000 -1.000000 0.000000
vn -0.000000 -1.000000 0.000000
vn -0.000000 -1.000000 0.000000
vn -0.000000 -1.000000 0.000000
vn -0.000000 -1.000000 0.000000
vn -0.000000 -1.000000 0.000000
vn -0.000000 1.000000 0.000000
vn -0.000000 1.000000 0.000000
vn -0.000000 1.000000 0.000000
vn -0.000000 1.000000 0.000000
vn -0.000000 1.000000 0.000000
vn -0.000000 1.000000 0.000000
vn -0.000000 1.000000 0.000000
vn -0.000000 1.000000 0.000000
vn -0.000000 1.000000 0.000000
vn -0.000000 1.000000 0.000000
vn -0.000000 1.000000 0.000000
vn -0.000000 1.000000 0.000000
vn -0.000000 1.000000 0.000000
vn -0.000000 1.000000 0.000000
vn -0.000000 1.000000 0.000000
vn -0.000000 1.000000 0.000000
vn -0.000000 1.000000 0.000000
vn -0.000000 1.000000 0.000000
vn 0.000000 0.000000 1.000000
vn 0.000000 0.000000 1.000000
vn 0.000000 0.000000 1.000000
vn 0.000000 0.000000 1.000000
vn 0.000000 0.000000 1.000000
vn 0.000000 0.000000 1.000000
vn 1.000000 0.000000 -0.000000
vn 1.000000 0.000000 -0.000000
vn 1.000000 0.000000 -0.000000
vn 1.000000 0.000000 -0.000000
vn 1.000000 0.000000 -0.000000
vn 1.000000 0.000000 -0.000000
vn -0.000000 0.000000 -1.000000
vn -0.000000 0.000000 -1.000000
vn -0.000000 0.000000 -1.000000
vn -0.000000 0.000000 -1.000000
vn -0.000000 0.000000 -1.000000
vn -0.000000 0.000000 -1.000000
vn 0.000000 -1.000000 0.000000
vn 0.000000 -1.000000 0.000000
vn 0.000000 -1.000000 0.000000
vn -0.000000 -1.000000 0.000000
vn -0.000000 -1.000000 0.000000
vn -0.000000 -1.000000 0.000000

g Material
f 3/1/1 1/2/2 2/3/3
f 4/4/4 1/5/5 3/6/6
f 7/7/7 5/8/8 6/9/9
f 8/10/10 5/11/11 7/12/12
f 11/13/13 9/14/14 10/15/15
f 12/16/16 9/17/17 11/18/18
f 15/19/19 13/20/20 14/21/21
f 16/22/22 13/23/23 15/24/24
f 19/25/25 17/26/26 18/27/27
f 20/28/28 17/29/29 19/30/30
f 23/31/31 21/32/32 22/33/33
f 24/34/34 21/35/35 23/36/36
f 27/37/37 25/38/38 26/39/39
f 28/40/40 25/41/41 27/42/42
f 31/43/43 29/44/44 30/45/45
f 32/46/46 29/47/47 31/48/48
f 35/49/49 33/50/50 34/51/51
f 36/52/52 33/53/53 35/54/54
f 39/55/55 37/56/56 38/57/57
f 40/58/58 37/59/59 39/60/60
f 43/61/61 41/62/62 42/63/63
f 44/64/64 41/65/65 43/66/66
f 47/67/67 45/68/68 46/69/69
f 48/70/70 45/71/71 47/72/72
f 51/73/73 49/74/74 50/75/75
f 52/76/76 49/77/77 51/78/78
f 55/79/79 53/80/80 54/81/81
f 56/82/82 53/83/83 55/84/84
f 59/85/85 57/86/86 58/87/87
f 60/88/88 57/89/89 59/90/90

g Material.001
f 63/91/91 61/92/92 62/93/93
f 64/94/94 61/95/95 63/96/96

