# Converted from B3D for Luanti (With Correct Normals)
# Object Name: multidecor_copper_wall_sconce

v 0.000000 -0.154253 1.425991
v 0.000001 -0.154253 1.961706
v 0.707108 -0.564304 1.961706
v 0.707107 -0.564304 1.425991
v 0.707107 -0.564304 1.425991
v 0.707108 -0.564304 1.961706
v 1.000001 -1.554253 1.961706
v 1.000001 -1.554253 1.425991
v 1.000001 -1.554253 1.425991
v 1.000001 -1.554253 1.961706
v 0.707108 -2.544203 1.961706
v 0.707107 -2.544203 1.425991
v 0.707107 -2.544203 1.425991
v 0.707108 -2.544203 1.961706
v 0.000001 -2.954254 1.961706
v 0.000000 -2.954254 1.425992
v 0.000000 -2.954254 1.425992
v 0.000001 -2.954254 1.961706
v -0.707106 -2.544203 1.961706
v -0.707107 -2.544203 1.425992
v -0.707107 -2.544203 1.425992
v -0.707106 -2.544203 1.961706
v -1.000000 -1.554253 1.961706
v -1.000000 -1.554253 1.425992
v 1.000001 -1.554253 1.961706
v 0.000001 -0.154253 1.961706
v -1.000000 -1.554253 1.961706
v -1.000000 -1.554253 1.425992
v -1.000000 -1.554253 1.961706
v -0.707106 -0.564304 1.961706
v -0.707107 -0.564304 1.425992
v -0.707107 -0.564304 1.425992
v -0.707106 -0.564304 1.961706
v 0.000001 -0.154253 1.961706
v 0.000000 -0.154253 1.425991
v 0.707107 -2.544203 1.425991
v -0.707107 -2.544203 1.425992
v -0.707107 -0.564304 1.425992
v -0.127166 -1.732287 1.425992
v -0.127166 -1.376220 1.425991
v -0.127167 -0.702673 -0.613061
v -0.127167 -1.058740 -0.613061
v 1.000001 -1.554253 1.961706
v 0.707108 -0.564304 1.961706
v 0.000001 -0.154253 1.961706
v 0.127167 -1.058740 -0.613061
v 0.127167 -0.702673 -0.613061
v 0.127167 -1.376220 1.425991
v 0.127167 -1.732287 1.425991
v -0.127167 -1.058740 -0.613061
v 0.127167 -1.058740 -0.613061
v 0.127167 -1.732287 1.425991
v -0.127166 -1.732287 1.425992
v 0.127167 -0.702673 -0.613061
v -0.127167 -0.702673 -0.613061
v -0.127166 -1.376220 1.425991
v 0.127167 -1.376220 1.425991
v -0.000000 -1.459823 -0.790781
v -0.000000 -0.018812 -0.790781
v 0.112020 -0.018812 -0.744381
v 0.112020 -1.459823 -0.744381
v 0.112020 -1.459823 -0.744381
v 0.112020 -0.018812 -0.744381
v 0.158420 -0.018812 -0.632361
v 0.158420 -1.459823 -0.632361
v 0.158420 -1.459823 -0.632361
v 0.158420 -0.018812 -0.632361
v 0.112020 -0.018812 -0.520341
v 0.112020 -1.459823 -0.520340
v 0.112020 -1.459823 -0.520340
v 0.112020 -0.018812 -0.520341
v -0.000000 -0.018812 -0.473940
v -0.000000 -1.459823 -0.473940
v -0.000000 -1.459823 -0.473940
v -0.000000 -0.018812 -0.473940
v -0.112020 -0.018812 -0.520341
v -0.112020 -1.459823 -0.520340
v -0.112020 -1.459823 -0.520340
v -0.112020 -0.018812 -0.520341
v -0.158421 -0.018812 -0.632361
v -0.158421 -1.459823 -0.632361
v -0.158421 -1.459823 -0.632361
v -0.158421 -0.018812 -0.632361
v -0.112020 -0.018812 -0.744381
v -0.112020 -1.459823 -0.744381
v -0.112020 -1.459823 -0.744381
v -0.112020 -0.018812 -0.744381
v -0.000000 -0.018812 -0.790781
v -0.000000 -1.459823 -0.790781
v -0.112020 -1.459823 -0.520340
v -0.158421 -1.459823 -0.632361
v 0.112020 -1.459823 -0.520340
v -0.000000 -0.018812 -0.473940
v 0.112020 -0.018812 -0.520341
v 0.647150 -0.018812 0.014791
v 0.000000 -0.018812 0.282849
v -0.112020 -0.018812 -0.744381
v -0.158421 -0.018812 -0.632361
v -0.915209 -0.018812 -0.632360
v -0.647151 -0.018812 -1.279510
v 0.158420 -0.018812 -0.632361
v 0.112020 -0.018812 -0.744381
v 0.647150 -0.018812 -1.279511
v 0.915210 -0.018812 -0.632360
v -0.112020 -0.018812 -0.520341
v -0.000000 -0.018812 -0.473940
v 0.000000 -0.018812 0.282849
v -0.647151 -0.018812 0.014791
v -0.000000 -0.018812 -0.790781
v -0.112020 -0.018812 -0.744381
v -0.647151 -0.018812 -1.279510
v -0.000000 -0.018812 -1.547569
v 0.112020 -0.018812 -0.744381
v -0.000000 -0.018812 -0.790781
v -0.000000 -0.018812 -1.547569
v 0.647150 -0.018812 -1.279511
v 0.112020 -0.018812 -0.520341
v 0.158420 -0.018812 -0.632361
v 0.915210 -0.018812 -0.632360
v 0.647150 -0.018812 0.014791
v -0.158421 -0.018812 -0.632361
v -0.112020 -0.018812 -0.520341
v -0.647151 -0.018812 0.014791
v -0.915209 -0.018812 -0.632360
v -0.000000 -0.018812 -1.547569
v -0.647151 -0.018812 -1.279510
v -0.647151 0.413314 -1.279510
v -0.000000 0.413314 -1.547569
v -0.915209 -0.018812 -0.632360
v -0.647151 -0.018812 0.014791
v -0.647151 0.413314 0.014791
v -0.915209 0.413314 -0.632360
v 0.000000 -0.018812 0.282849
v 0.647150 -0.018812 0.014791
v 0.647150 0.413314 0.014791
v 0.000000 0.413314 0.282849
v 0.915210 -0.018812 -0.632360
v 0.647150 -0.018812 -1.279511
v 0.647150 0.413314 -1.279511
v 0.915210 0.413314 -0.632360
v -0.647151 -0.018812 -1.279510
v -0.915209 -0.018812 -0.632360
v -0.915209 0.413314 -0.632360
v -0.647151 0.413314 -1.279510
v -0.647151 -0.018812 0.014791
v 0.000000 -0.018812 0.282849
v 0.000000 0.413314 0.282849
v -0.647151 0.413314 0.014791
v 0.647150 -0.018812 0.014791
v 0.915210 -0.018812 -0.632360
v 0.915210 0.413314 -0.632360
v 0.647150 0.413314 0.014791
v 0.647150 -0.018812 -1.279511
v -0.000000 -0.018812 -1.547569
v -0.000000 0.413314 -1.547569
v 0.647150 0.413314 -1.279511
v -0.647151 0.413314 0.014791
v 0.000000 0.413314 0.282849
v 0.000000 0.413314 0.027651
v -0.466699 0.413314 -0.165661
v 0.647150 0.413314 0.014791
v 0.915210 0.413314 -0.632360
v 0.660012 0.413314 -0.632360
v 0.466698 0.413314 -0.165661
v 0.647150 0.413314 -1.279511
v -0.000000 0.413314 -1.547569
v -0.000000 0.413314 -1.292371
v 0.466698 0.413314 -1.099059
v -0.000000 0.413314 -1.547569
v -0.647151 0.413314 -1.279510
v -0.466699 0.413314 -1.099058
v -0.000000 0.413314 -1.292371
v -0.915209 0.413314 -0.632360
v -0.647151 0.413314 0.014791
v -0.466699 0.413314 -0.165661
v -0.660011 0.413314 -0.632360
v 0.000000 0.413314 0.282849
v 0.647150 0.413314 0.014791
v 0.466698 0.413314 -0.165661
v 0.000000 0.413314 0.027651
v 0.915210 0.413314 -0.632360
v 0.647150 0.413314 -1.279511
v 0.466698 0.413314 -1.099059
v 0.660012 0.413314 -0.632360
v -0.647151 0.413314 -1.279510
v -0.915209 0.413314 -0.632360
v -0.660011 0.413314 -0.632360
v -0.466699 0.413314 -1.099058
v -0.466699 0.413314 -1.099058
v -0.660011 0.413314 -0.632360
v -0.660011 4.996806 -0.632360
v -0.466699 4.996806 -1.099059
v -0.466699 0.413314 -0.165661
v 0.000000 0.413314 0.027651
v 0.000000 4.996806 0.027651
v -0.466699 4.996806 -0.165662
v 0.466698 0.413314 -0.165661
v 0.660012 0.413314 -0.632360
v 0.660012 4.996806 -0.632361
v 0.466698 4.996806 -0.165662
v 0.466698 0.413314 -1.099059
v -0.000000 0.413314 -1.292371
v -0.000000 4.996807 -1.292372
v 0.466698 4.996806 -1.099059
v -0.000000 0.413314 -1.292371
v -0.466699 0.413314 -1.099058
v -0.466699 4.996806 -1.099059
v -0.000000 4.996807 -1.292372
v -0.660011 0.413314 -0.632360
v -0.466699 0.413314 -0.165661
v -0.466699 4.996806 -0.165662
v -0.660011 4.996806 -0.632360
v 0.000000 0.413314 0.027651
v 0.466698 0.413314 -0.165661
v 0.466698 4.996806 -0.165662
v 0.000000 4.996806 0.027651
v 0.660012 0.413314 -0.632360
v 0.466698 0.413314 -1.099059
v 0.466698 4.996806 -1.099059
v 0.660012 4.996806 -0.632361
v 0.466698 4.996806 -0.165662
v 0.660012 4.996806 -0.632361
v -0.660011 4.996806 -0.632360
v 0.000001 -0.154253 1.961706
v -0.707106 -0.564304 1.961706
v -1.000000 -1.554253 1.961706
v -1.000000 -1.554253 1.961706
v -0.707106 -2.544203 1.961706
v 0.000001 -2.954254 1.961706
v 0.000001 -2.954254 1.961706
v 0.707108 -2.544203 1.961706
v -1.000000 -1.554253 1.961706
v 0.707108 -2.544203 1.961706
v 1.000001 -1.554253 1.961706
v -1.000000 -1.554253 1.961706
v -0.707107 -0.564304 1.425992
v 0.000000 -0.154253 1.425991
v 0.707107 -0.564304 1.425991
v 0.707107 -0.564304 1.425991
v 1.000001 -1.554253 1.425991
v 0.707107 -2.544203 1.425991
v 0.707107 -2.544203 1.425991
v 0.000000 -2.954254 1.425992
v -0.707107 -2.544203 1.425992
v -0.707107 -2.544203 1.425992
v -1.000000 -1.554253 1.425992
v -0.707107 -0.564304 1.425992
v -0.707107 -0.564304 1.425992
v 0.707107 -0.564304 1.425991
v 0.707107 -2.544203 1.425991
v -0.112020 -1.459823 -0.744381
v -0.000000 -1.459823 -0.790781
v 0.112020 -1.459823 -0.744381
v 0.112020 -1.459823 -0.744381
v 0.158420 -1.459823 -0.632361
v -0.112020 -1.459823 -0.744381
v 0.158420 -1.459823 -0.632361
v 0.112020 -1.459823 -0.520340
v -0.158421 -1.459823 -0.632361
v -0.112020 -1.459823 -0.744381
v 0.158420 -1.459823 -0.632361
v -0.158421 -1.459823 -0.632361
v 0.112020 -1.459823 -0.520340
v -0.000000 -1.459823 -0.473940
v -0.112020 -1.459823 -0.520340
v 0.660012 4.996806 -0.632361
v 0.466698 4.996806 -1.099059
v -0.660011 4.996806 -0.632360
v 0.466698 4.996806 -1.099059
v -0.000000 4.996807 -1.292372
v -0.466699 4.996806 -1.099059
v -0.660011 4.996806 -0.632360
v 0.466698 4.996806 -1.099059
v -0.466699 4.996806 -1.099059
v -0.660011 4.996806 -0.632360
v -0.466699 4.996806 -0.165662
v 0.466698 4.996806 -0.165662
v -0.466699 4.996806 -0.165662
v 0.000000 4.996806 0.027651
v 0.466698 4.996806 -0.165662

vt 0.110958 0.113226
vt 0.000261 0.000261
vt 0.110958 0.000261
vt 0.000261 0.113226
vt 0.000261 0.000261
vt 0.110958 0.113226
vt 0.110958 0.226192
vt 0.000261 0.113226
vt 0.110958 0.113226
vt 0.000261 0.226192
vt 0.000261 0.113226
vt 0.110958 0.226192
vt 0.110958 0.339157
vt 0.000261 0.226192
vt 0.110958 0.226192
vt 0.000261 0.339157
vt 0.000261 0.226192
vt 0.110958 0.339157
vt 0.110958 0.452122
vt 0.000261 0.339157
vt 0.110958 0.339157
vt 0.000261 0.452122
vt 0.000261 0.339157
vt 0.110958 0.452122
vt 0.110958 0.565088
vt 0.000261 0.452122
vt 0.110958 0.452122
vt 0.000261 0.565088
vt 0.000261 0.452122
vt 0.110958 0.565088
vt 0.110958 0.678053
vt 0.000261 0.565088
vt 0.110958 0.565088
vt 0.000261 0.678053
vt 0.000261 0.565088
vt 0.110958 0.678053
vt 0.396021 0.272983
vt 0.283056 0.000261
vt 0.475900 0.080140
vt 0.110958 0.791018
vt 0.000261 0.678053
vt 0.110958 0.678053
vt 0.000261 0.791018
vt 0.000261 0.678053
vt 0.110958 0.791018
vt 0.110958 0.903983
vt 0.000261 0.791018
vt 0.110958 0.791018
vt 0.000261 0.903983
vt 0.000261 0.791018
vt 0.110958 0.903983
vt 0.396022 0.273506
vt 0.283056 0.546228
vt 0.203178 0.353384
vt 0.587994 0.433780
vt 0.550978 0.000261
vt 0.587994 0.006500
vt 0.550978 0.427541
vt 0.550978 0.000261
vt 0.587994 0.433780
vt 0.475900 0.080140
vt 0.283056 0.000261
vt 0.396022 0.000261
vt 0.476422 0.006500
vt 0.513439 0.427541
vt 0.476422 0.433780
vt 0.513439 0.000261
vt 0.513439 0.427541
vt 0.476422 0.006500
vt 0.513439 0.000261
vt 0.550978 0.427541
vt 0.513439 0.427541
vt 0.550978 0.000261
vt 0.550978 0.427541
vt 0.513439 0.000261
vt 0.587994 0.006500
vt 0.625533 0.433780
vt 0.587994 0.433780
vt 0.625533 0.006500
vt 0.625533 0.433780
vt 0.587994 0.006500
vt 0.476422 0.588197
vt 0.628342 0.607309
vt 0.476422 0.607309
vt 0.628342 0.588197
vt 0.628342 0.607309
vt 0.476422 0.588197
vt 0.476422 0.564058
vt 0.628342 0.588197
vt 0.476422 0.588197
vt 0.628342 0.564057
vt 0.628342 0.588197
vt 0.476422 0.564058
vt 0.476422 0.539918
vt 0.628342 0.564057
vt 0.476422 0.564058
vt 0.628342 0.539918
vt 0.628342 0.564057
vt 0.476422 0.539918
vt 0.476422 0.520806
vt 0.628342 0.539918
vt 0.476422 0.539918
vt 0.628342 0.520806
vt 0.628342 0.539918
vt 0.476422 0.520806
vt 0.476422 0.501693
vt 0.628342 0.520806
vt 0.476422 0.520806
vt 0.628342 0.501693
vt 0.628342 0.520806
vt 0.476422 0.501693
vt 0.476422 0.477554
vt 0.628342 0.501693
vt 0.476422 0.501693
vt 0.628342 0.477554
vt 0.628342 0.501693
vt 0.476422 0.477554
vt 0.476422 0.453415
vt 0.628342 0.477554
vt 0.476422 0.477554
vt 0.628342 0.453415
vt 0.628342 0.477554
vt 0.476422 0.453415
vt 0.476422 0.434302
vt 0.628342 0.453415
vt 0.476422 0.453415
vt 0.628342 0.434303
vt 0.628342 0.453415
vt 0.476422 0.434302
vt 0.450150 0.605027
vt 0.418441 0.595646
vt 0.418441 0.571507
vt 0.747502 0.607831
vt 0.612223 0.639799
vt 0.612223 0.620686
vt 0.747502 0.718247
vt 0.612223 0.639799
vt 0.747502 0.607831
vt 0.733165 0.140237
vt 0.626055 0.196067
vt 0.626055 0.171927
vt 0.733165 0.279691
vt 0.626055 0.196067
vt 0.733165 0.140237
vt 0.733165 0.000261
vt 0.626055 0.108025
vt 0.626055 0.083886
vt 0.733165 0.139715
vt 0.626055 0.108025
vt 0.733165 0.000261
vt 0.476422 0.718247
vt 0.611701 0.620686
vt 0.611701 0.639799
vt 0.476422 0.607831
vt 0.611701 0.620686
vt 0.476422 0.718247
vt 0.626055 0.390629
vt 0.761334 0.358661
vt 0.761334 0.377774
vt 0.626055 0.280213
vt 0.761334 0.358661
vt 0.626055 0.390629
vt 0.628864 0.544718
vt 0.764143 0.447157
vt 0.764143 0.466270
vt 0.628864 0.434302
vt 0.764143 0.447157
vt 0.628864 0.544718
vt 0.310287 0.546750
vt 0.203178 0.602579
vt 0.203178 0.578440
vt 0.310287 0.686204
vt 0.203178 0.602579
vt 0.310287 0.546750
vt 0.417919 0.546750
vt 0.310809 0.654514
vt 0.310809 0.630375
vt 0.417919 0.686204
vt 0.310809 0.654514
vt 0.417919 0.546750
vt 0.157038 0.889323
vt 0.111481 0.999739
vt 0.111481 0.889323
vt 0.157038 0.999739
vt 0.111481 0.999739
vt 0.157038 0.889323
vt 0.157038 0.610416
vt 0.111481 0.749870
vt 0.111481 0.610416
vt 0.157038 0.749870
vt 0.111481 0.749870
vt 0.157038 0.610416
vt 0.157038 0.389585
vt 0.111481 0.500000
vt 0.111481 0.389585
vt 0.157038 0.500000
vt 0.111481 0.500000
vt 0.157038 0.389585
vt 0.157038 0.110677
vt 0.111481 0.250131
vt 0.111481 0.110677
vt 0.157038 0.250131
vt 0.111481 0.250131
vt 0.157038 0.110677
vt 0.157038 0.749870
vt 0.111481 0.889323
vt 0.111481 0.749870
vt 0.157038 0.889323
vt 0.111481 0.889323
vt 0.157038 0.749870
vt 0.157038 0.500000
vt 0.111481 0.610416
vt 0.111481 0.500000
vt 0.157038 0.610416
vt 0.111481 0.610416
vt 0.157038 0.500000
vt 0.157038 0.250131
vt 0.111481 0.389585
vt 0.111481 0.250131
vt 0.157038 0.389585
vt 0.111481 0.389585
vt 0.157038 0.250131
vt 0.157038 0.000261
vt 0.111481 0.110677
vt 0.111481 0.000261
vt 0.157038 0.110677
vt 0.111481 0.110677
vt 0.157038 0.000261
vt 0.202655 0.526454
vt 0.157038 0.610416
vt 0.157038 0.500000
vt 0.202655 0.606081
vt 0.157038 0.610416
vt 0.202655 0.526454
vt 0.193156 0.260817
vt 0.157038 0.389585
vt 0.157038 0.250131
vt 0.193156 0.361386
vt 0.157038 0.389585
vt 0.193156 0.260817
vt 0.202656 0.026715
vt 0.157038 0.110677
vt 0.157038 0.000261
vt 0.202655 0.106342
vt 0.157038 0.110677
vt 0.202656 0.026715
vt 0.202655 0.893658
vt 0.157038 0.999739
vt 0.157038 0.889323
vt 0.202656 0.973285
vt 0.157038 0.999739
vt 0.202655 0.893658
vt 0.193156 0.638615
vt 0.157038 0.749870
vt 0.157038 0.610416
vt 0.193156 0.739183
vt 0.157038 0.749870
vt 0.193156 0.638615
vt 0.202655 0.393920
vt 0.157038 0.500000
vt 0.157038 0.389585
vt 0.202655 0.473547
vt 0.157038 0.500000
vt 0.202655 0.393920
vt 0.193157 0.138876
vt 0.157038 0.250131
vt 0.157038 0.110677
vt 0.193157 0.239444
vt 0.157038 0.250131
vt 0.193157 0.138876
vt 0.193156 0.760556
vt 0.157038 0.889323
vt 0.157038 0.749870
vt 0.193156 0.861124
vt 0.157038 0.889323
vt 0.193156 0.760556
vt 0.396021 0.272983
vt 0.475900 0.080140
vt 0.475900 0.193105
vt 0.203178 0.193105
vt 0.396021 0.272983
vt 0.283056 0.272983
vt 0.396021 0.272983
vt 0.203178 0.193105
vt 0.203178 0.080140
vt 0.396021 0.272983
vt 0.203178 0.080140
vt 0.283056 0.000261
vt 0.475900 0.466350
vt 0.396022 0.273506
vt 0.475900 0.353384
vt 0.283056 0.546228
vt 0.475900 0.466350
vt 0.396021 0.546228
vt 0.203178 0.353384
vt 0.283056 0.546228
vt 0.203178 0.466349
vt 0.396022 0.273506
vt 0.203178 0.353384
vt 0.283056 0.273506
vt 0.283056 0.546228
vt 0.396022 0.273506
vt 0.475900 0.466350
vt 0.463284 0.560635
vt 0.431575 0.551253
vt 0.450150 0.546750
vt 0.431575 0.551253
vt 0.463284 0.560635
vt 0.463284 0.584774
vt 0.418441 0.571507
vt 0.463284 0.584774
vt 0.450150 0.605027
vt 0.418441 0.571507
vt 0.431575 0.551253
vt 0.463284 0.584774
vt 0.418441 0.595646
vt 0.450150 0.605027
vt 0.431575 0.609530
vt 0.280874 0.314196
vt 0.000199 0.372611
vt 0.000199 0.314196
vt 0.280874 0.372611
vt 0.000199 0.372611
vt 0.280874 0.314196
vt 0.280874 0.209530
vt 0.000199 0.255781
vt 0.000199 0.209530
vt 0.280874 0.255781
vt 0.000199 0.255781
vt 0.280874 0.209530
vt 0.280874 0.104865
vt 0.000199 0.163279
vt 0.000199 0.104865
vt 0.280874 0.163279
vt 0.000199 0.163279
vt 0.280874 0.104865
vt 0.280874 0.000199
vt 0.000199 0.046450
vt 0.000199 0.000199
vt 0.280874 0.046450
vt 0.000199 0.046450
vt 0.280874 0.000199
vt 0.280874 0.372611
vt 0.000199 0.418862
vt 0.000199 0.372611
vt 0.280874 0.418862
vt 0.000199 0.418862
vt 0.280874 0.372611
vt 0.280874 0.255781
vt 0.000199 0.314196
vt 0.000199 0.255781
vt 0.280874 0.314196
vt 0.000199 0.314196
vt 0.280874 0.255781
vt 0.280874 0.163279
vt 0.000199 0.209530
vt 0.000199 0.163279
vt 0.280874 0.209530
vt 0.000199 0.209530
vt 0.280874 0.163279
vt 0.280874 0.046450
vt 0.000199 0.104865
vt 0.000199 0.046450
vt 0.280874 0.104865
vt 0.000199 0.104865
vt 0.280874 0.046450
vt 0.440079 0.312312
vt 0.548595 0.286004
vt 0.548595 0.344418
vt 0.440079 0.312312
vt 0.548595 0.344418
vt 0.516811 0.393429
vt 0.440079 0.370727
vt 0.516811 0.393429
vt 0.471862 0.404327
vt 0.440079 0.370727
vt 0.440079 0.312312
vt 0.516811 0.393429
vt 0.548595 0.286004
vt 0.440079 0.312312
vt 0.471862 0.263301
vt 0.548595 0.286004
vt 0.471862 0.263301
vt 0.516811 0.252404

vn 0.501652 0.865069 0.000000
vn 0.501652 0.865069 0.000000
vn 0.501652 0.865069 0.000000
vn 0.501653 0.865069 -0.000000
vn 0.501653 0.865069 -0.000000
vn 0.501653 0.865069 -0.000000
vn 0.958910 0.283710 -0.000001
vn 0.958910 0.283710 -0.000001
vn 0.958910 0.283710 -0.000001
vn 0.958910 0.283710 0.000000
vn 0.958910 0.283710 0.000000
vn 0.958910 0.283710 0.000000
vn 0.958910 -0.283710 -0.000000
vn 0.958910 -0.283710 -0.000000
vn 0.958910 -0.283710 -0.000000
vn 0.958910 -0.283710 -0.000000
vn 0.958910 -0.283710 -0.000000
vn 0.958910 -0.283710 -0.000000
vn 0.501654 -0.865068 -0.000001
vn 0.501654 -0.865068 -0.000001
vn 0.501654 -0.865068 -0.000001
vn 0.501652 -0.865069 -0.000001
vn 0.501652 -0.865069 -0.000001
vn 0.501652 -0.865069 -0.000001
vn -0.501652 -0.865069 -0.000000
vn -0.501652 -0.865069 -0.000000
vn -0.501652 -0.865069 -0.000000
vn -0.501654 -0.865068 -0.000000
vn -0.501654 -0.865068 -0.000000
vn -0.501654 -0.865068 -0.000000
vn -0.958910 -0.283710 -0.000000
vn -0.958910 -0.283710 -0.000000
vn -0.958910 -0.283710 -0.000000
vn -0.958910 -0.283710 0.000000
vn -0.958910 -0.283710 0.000000
vn -0.958910 -0.283710 0.000000
vn 0.000000 0.000000 1.000000
vn 0.000000 0.000000 1.000000
vn 0.000000 0.000000 1.000000
vn -0.958910 0.283710 0.000000
vn -0.958910 0.283710 0.000000
vn -0.958910 0.283710 0.000000
vn -0.958910 0.283710 0.000000
vn -0.958910 0.283710 0.000000
vn -0.958910 0.283710 0.000000
vn -0.501653 0.865069 0.000000
vn -0.501653 0.865069 0.000000
vn -0.501653 0.865069 0.000000
vn -0.501653 0.865069 0.000000
vn -0.501653 0.865069 0.000000
vn -0.501653 0.865069 0.000000
vn -0.000000 -0.000000 -1.000000
vn -0.000000 -0.000000 -1.000000
vn -0.000000 -0.000000 -1.000000
vn -1.000000 0.000000 0.000000
vn -1.000000 0.000000 0.000000
vn -1.000000 0.000000 0.000000
vn -1.000000 0.000000 0.000000
vn -1.000000 0.000000 0.000000
vn -1.000000 0.000000 0.000000
vn 0.000000 0.000000 1.000000
vn 0.000000 0.000000 1.000000
vn 0.000000 0.000000 1.000000
vn 1.000000 -0.000000 -0.000000
vn 1.000000 -0.000000 -0.000000
vn 1.000000 -0.000000 -0.000000
vn 1.000000 0.000000 -0.000000
vn 1.000000 0.000000 -0.000000
vn 1.000000 0.000000 -0.000000
vn -0.000001 -0.949537 -0.313655
vn -0.000001 -0.949537 -0.313655
vn -0.000001 -0.949537 -0.313655
vn -0.000000 -0.949537 -0.313655
vn -0.000000 -0.949537 -0.313655
vn -0.000000 -0.949537 -0.313655
vn 0.000001 0.949537 0.313655
vn 0.000001 0.949537 0.313655
vn 0.000001 0.949537 0.313655
vn -0.000000 0.949537 0.313654
vn -0.000000 0.949537 0.313654
vn -0.000000 0.949537 0.313654
vn 0.382684 0.000000 -0.923879
vn 0.382684 0.000000 -0.923879
vn 0.382684 0.000000 -0.923879
vn 0.382684 -0.000000 -0.923879
vn 0.382684 -0.000000 -0.923879
vn 0.382684 -0.000000 -0.923879
vn 0.923879 -0.000000 -0.382684
vn 0.923879 -0.000000 -0.382684
vn 0.923879 -0.000000 -0.382684
vn 0.923879 0.000000 -0.382685
vn 0.923879 0.000000 -0.382685
vn 0.923879 0.000000 -0.382685
vn 0.923879 0.000000 0.382684
vn 0.923879 0.000000 0.382684
vn 0.923879 0.000000 0.382684
vn 0.923879 0.000000 0.382684
vn 0.923879 0.000000 0.382684
vn 0.923879 0.000000 0.382684
vn 0.382684 0.000000 0.923879
vn 0.382684 0.000000 0.923879
vn 0.382684 0.000000 0.923879
vn 0.382683 0.000000 0.923880
vn 0.382683 0.000000 0.923880
vn 0.382683 0.000000 0.923880
vn -0.382683 0.000000 0.923880
vn -0.382683 0.000000 0.923880
vn -0.382683 0.000000 0.923880
vn -0.382683 0.000000 0.923880
vn -0.382683 0.000000 0.923880
vn -0.382683 0.000000 0.923880
vn -0.923880 0.000000 0.382683
vn -0.923880 0.000000 0.382683
vn -0.923880 0.000000 0.382683
vn -0.923880 0.000000 0.382683
vn -0.923880 0.000000 0.382683
vn -0.923880 0.000000 0.382683
vn -0.923880 -0.000000 -0.382683
vn -0.923880 -0.000000 -0.382683
vn -0.923880 -0.000000 -0.382683
vn -0.923880 0.000000 -0.382683
vn -0.923880 0.000000 -0.382683
vn -0.923880 0.000000 -0.382683
vn -0.382685 -0.000000 -0.923879
vn -0.382685 -0.000000 -0.923879
vn -0.382685 -0.000000 -0.923879
vn -0.382685 -0.000000 -0.923879
vn -0.382685 -0.000000 -0.923879
vn -0.382685 -0.000000 -0.923879
vn -0.000000 -1.000000 0.000000
vn -0.000000 -1.000000 0.000000
vn -0.000000 -1.000000 0.000000
vn 0.000000 -1.000000 -0.000000
vn 0.000000 -1.000000 -0.000000
vn 0.000000 -1.000000 -0.000000
vn 0.000000 -1.000000 -0.000000
vn 0.000000 -1.000000 -0.000000
vn 0.000000 -1.000000 -0.000000
vn -0.000000 -1.000000 -0.000000
vn -0.000000 -1.000000 -0.000000
vn -0.000000 -1.000000 -0.000000
vn -0.000000 -1.000000 -0.000000
vn -0.000000 -1.000000 -0.000000
vn -0.000000 -1.000000 -0.000000
vn 0.000000 -1.000000 -0.000000
vn 0.000000 -1.000000 -0.000000
vn 0.000000 -1.000000 -0.000000
vn -0.000000 -1.000000 -0.000000
vn -0.000000 -1.000000 -0.000000
vn -0.000000 -1.000000 -0.000000
vn -0.000000 -1.000000 -0.000000
vn -0.000000 -1.000000 -0.000000
vn -0.000000 -1.000000 -0.000000
vn -0.000000 -1.000000 -0.000000
vn -0.000000 -1.000000 -0.000000
vn -0.000000 -1.000000 -0.000000
vn 0.000000 -1.000000 -0.000000
vn 0.000000 -1.000000 -0.000000
vn 0.000000 -1.000000 -0.000000
vn -0.000000 -1.000000 -0.000000
vn -0.000000 -1.000000 -0.000000
vn -0.000000 -1.000000 -0.000000
vn -0.000000 -1.000000 -0.000000
vn -0.000000 -1.000000 -0.000000
vn -0.000000 -1.000000 -0.000000
vn 0.000000 -1.000000 -0.000000
vn 0.000000 -1.000000 -0.000000
vn 0.000000 -1.000000 -0.000000
vn -0.000000 -1.000000 -0.000000
vn -0.000000 -1.000000 -0.000000
vn -0.000000 -1.000000 -0.000000
vn -0.000000 -1.000000 -0.000000
vn -0.000000 -1.000000 -0.000000
vn -0.000000 -1.000000 -0.000000
vn 0.000000 -1.000000 -0.000000
vn 0.000000 -1.000000 -0.000000
vn 0.000000 -1.000000 -0.000000
vn -0.000000 -1.000000 -0.000000
vn -0.000000 -1.000000 -0.000000
vn -0.000000 -1.000000 -0.000000
vn -0.382684 -0.000000 -0.923879
vn -0.382684 -0.000000 -0.923879
vn -0.382684 -0.000000 -0.923879
vn -0.382684 0.000000 -0.923879
vn -0.382684 0.000000 -0.923879
vn -0.382684 0.000000 -0.923879
vn -0.923880 0.000000 0.382683
vn -0.923880 0.000000 0.382683
vn -0.923880 0.000000 0.382683
vn -0.923880 0.000000 0.382683
vn -0.923880 0.000000 0.382683
vn -0.923880 0.000000 0.382683
vn 0.382684 0.000000 0.923879
vn 0.382684 0.000000 0.923879
vn 0.382684 0.000000 0.923879
vn 0.382684 0.000000 0.923880
vn 0.382684 0.000000 0.923880
vn 0.382684 0.000000 0.923880
vn 0.923879 0.000000 -0.382685
vn 0.923879 0.000000 -0.382685
vn 0.923879 0.000000 -0.382685
vn 0.923879 -0.000000 -0.382685
vn 0.923879 -0.000000 -0.382685
vn 0.923879 -0.000000 -0.382685
vn -0.923880 0.000000 -0.382683
vn -0.923880 0.000000 -0.382683
vn -0.923880 0.000000 -0.382683
vn -0.923880 -0.000000 -0.382683
vn -0.923880 -0.000000 -0.382683
vn -0.923880 -0.000000 -0.382683
vn -0.382683 0.000000 0.923880
vn -0.382683 0.000000 0.923880
vn -0.382683 0.000000 0.923880
vn -0.382683 0.000000 0.923880
vn -0.382683 0.000000 0.923880
vn -0.382683 0.000000 0.923880
vn 0.923879 0.000000 0.382684
vn 0.923879 0.000000 0.382684
vn 0.923879 0.000000 0.382684
vn 0.923879 0.000000 0.382684
vn 0.923879 0.000000 0.382684
vn 0.923879 0.000000 0.382684
vn 0.382683 0.000000 -0.923880
vn 0.382683 0.000000 -0.923880
vn 0.382683 0.000000 -0.923880
vn 0.382683 0.000000 -0.923880
vn 0.382683 0.000000 -0.923880
vn 0.382683 0.000000 -0.923880
vn -0.000000 1.000000 0.000000
vn -0.000000 1.000000 0.000000
vn -0.000000 1.000000 0.000000
vn -0.000000 1.000000 0.000000
vn -0.000000 1.000000 0.000000
vn -0.000000 1.000000 0.000000
vn 0.000000 1.000000 0.000000
vn 0.000000 1.000000 0.000000
vn 0.000000 1.000000 0.000000
vn -0.000000 1.000000 0.000000
vn -0.000000 1.000000 0.000000
vn -0.000000 1.000000 0.000000
vn -0.000000 1.000000 0.000000
vn -0.000000 1.000000 0.000000
vn -0.000000 1.000000 0.000000
vn -0.000000 1.000000 0.000000
vn -0.000000 1.000000 0.000000
vn -0.000000 1.000000 0.000000
vn -0.000000 1.000000 0.000000
vn -0.000000 1.000000 0.000000
vn -0.000000 1.000000 0.000000
vn -0.000000 1.000000 0.000000
vn -0.000000 1.000000 0.000000
vn -0.000000 1.000000 0.000000
vn -0.000000 1.000000 0.000000
vn -0.000000 1.000000 0.000000
vn -0.000000 1.000000 0.000000
vn -0.000000 1.000000 0.000000
vn -0.000000 1.000000 0.000000
vn -0.000000 1.000000 0.000000
vn -0.000000 1.000000 0.000000
vn -0.000000 1.000000 0.000000
vn -0.000000 1.000000 0.000000
vn 0.000000 1.000000 0.000000
vn 0.000000 1.000000 0.000000
vn 0.000000 1.000000 0.000000
vn -0.000000 1.000000 0.000000
vn -0.000000 1.000000 0.000000
vn -0.000000 1.000000 0.000000
vn 0.000000 1.000000 0.000000
vn 0.000000 1.000000 0.000000
vn 0.000000 1.000000 0.000000
vn -0.000000 1.000000 0.000000
vn -0.000000 1.000000 0.000000
vn -0.000000 1.000000 0.000000
vn -0.000000 1.000000 0.000000
vn -0.000000 1.000000 0.000000
vn -0.000000 1.000000 0.000000
vn 0.000000 0.000001 1.000000
vn 0.000000 0.000001 1.000000
vn 0.000000 0.000001 1.000000
vn 0.000000 0.000000 1.000000
vn 0.000000 0.000000 1.000000
vn 0.000000 0.000000 1.000000
vn 0.000000 0.000000 1.000000
vn 0.000000 0.000000 1.000000
vn 0.000000 0.000000 1.000000
vn 0.000000 0.000000 1.000000
vn 0.000000 0.000000 1.000000
vn 0.000000 0.000000 1.000000
vn -0.000000 -0.000000 -1.000000
vn -0.000000 -0.000000 -1.000000
vn -0.000000 -0.000000 -1.000000
vn -0.000000 0.000000 -1.000000
vn -0.000000 0.000000 -1.000000
vn -0.000000 0.000000 -1.000000
vn -0.000000 0.000000 -1.000000
vn -0.000000 0.000000 -1.000000
vn -0.000000 0.000000 -1.000000
vn -0.000000 -0.000000 -1.000000
vn -0.000000 -0.000000 -1.000000
vn -0.000000 -0.000000 -1.000000
vn -0.000000 0.000000 -1.000000
vn -0.000000 0.000000 -1.000000
vn -0.000000 0.000000 -1.000000
vn -0.000000 -1.000000 0.000000
vn -0.000000 -1.000000 0.000000
vn -0.000000 -1.000000 0.000000
vn -0.000000 -1.000000 0.000000
vn -0.000000 -1.000000 0.000000
vn -0.000000 -1.000000 0.000000
vn 0.000001 -1.000000 0.000000
vn 0.000001 -1.000000 0.000000
vn 0.000001 -1.000000 0.000000
vn -0.000000 -1.000000 0.000000
vn -0.000000 -1.000000 0.000000
vn -0.000000 -1.000000 0.000000
vn -0.000000 -1.000000 0.000000
vn -0.000000 -1.000000 0.000000
vn -0.000000 -1.000000 0.000000
vn -0.923880 -0.000000 -0.382683
vn -0.923880 -0.000000 -0.382683
vn -0.923880 -0.000000 -0.382683
vn -0.923880 -0.000000 -0.382683
vn -0.923880 -0.000000 -0.382683
vn -0.923880 -0.000000 -0.382683
vn -0.382683 0.000000 0.923880
vn -0.382683 0.000000 0.923880
vn -0.382683 0.000000 0.923880
vn -0.382683 0.000000 0.923880
vn -0.382683 0.000000 0.923880
vn -0.382683 0.000000 0.923880
vn 0.923879 0.000000 0.382684
vn 0.923879 0.000000 0.382684
vn 0.923879 0.000000 0.382684
vn 0.923879 0.000000 0.382684
vn 0.923879 0.000000 0.382684
vn 0.923879 0.000000 0.382684
vn 0.382683 -0.000000 -0.923880
vn 0.382683 -0.000000 -0.923880
vn 0.382683 -0.000000 -0.923880
vn 0.382684 -0.000000 -0.923879
vn 0.382684 -0.000000 -0.923879
vn 0.382684 -0.000000 -0.923879
vn -0.382684 -0.000000 -0.923879
vn -0.382684 -0.000000 -0.923879
vn -0.382684 -0.000000 -0.923879
vn -0.382684 -0.000000 -0.923879
vn -0.382684 -0.000000 -0.923879
vn -0.382684 -0.000000 -0.923879
vn -0.923880 0.000000 0.382683
vn -0.923880 0.000000 0.382683
vn -0.923880 0.000000 0.382683
vn -0.923880 0.000000 0.382683
vn -0.923880 0.000000 0.382683
vn -0.923880 0.000000 0.382683
vn 0.382684 0.000000 0.923880
vn 0.382684 0.000000 0.923880
vn 0.382684 0.000000 0.923880
vn 0.382684 0.000000 0.923879
vn 0.382684 0.000000 0.923879
vn 0.382684 0.000000 0.923879
vn 0.923879 -0.000000 -0.382685
vn 0.923879 -0.000000 -0.382685
vn 0.923879 -0.000000 -0.382685
vn 0.923879 -0.000000 -0.382685
vn 0.923879 -0.000000 -0.382685
vn 0.923879 -0.000000 -0.382685
vn -0.000000 1.000000 0.000000
vn -0.000000 1.000000 0.000000
vn -0.000000 1.000000 0.000000
vn -0.000000 1.000000 0.000000
vn -0.000000 1.000000 0.000000
vn -0.000000 1.000000 0.000000
vn -0.000000 1.000000 0.000002
vn -0.000000 1.000000 0.000002
vn -0.000000 1.000000 0.000002
vn -0.000000 1.000000 0.000000
vn -0.000000 1.000000 0.000000
vn -0.000000 1.000000 0.000000
vn -0.000000 1.000000 0.000000
vn -0.000000 1.000000 0.000000
vn -0.000000 1.000000 0.000000
vn -0.000000 1.000000 0.000000
vn -0.000000 1.000000 0.000000
vn -0.000000 1.000000 0.000000

g Material.001
f 3/1/1 1/2/2 2/3/3
f 4/4/4 1/5/5 3/6/6
f 7/7/7 5/8/8 6/9/9
f 8/10/10 5/11/11 7/12/12
f 11/13/13 9/14/14 10/15/15
f 12/16/16 9/17/17 11/18/18
f 15/19/19 13/20/20 14/21/21
f 16/22/22 13/23/23 15/24/24
f 19/25/25 17/26/26 18/27/27
f 20/28/28 17/29/29 19/30/30
f 23/31/31 21/32/32 22/33/33
f 24/34/34 21/35/35 23/36/36
f 27/37/37 25/38/38 26/39/39
f 30/40/40 28/41/41 29/42/42
f 31/43/43 28/44/44 30/45/45
f 34/46/46 32/47/47 33/48/48
f 35/49/49 32/50/50 34/51/51
f 38/52/52 36/53/53 37/54/54
f 41/55/55 39/56/56 40/57/57
f 42/58/58 39/59/59 41/60/60
f 45/61/61 43/62/62 44/63/63
f 48/64/64 46/65/65 47/66/66
f 49/67/67 46/68/68 48/69/69
f 52/70/70 50/71/71 51/72/72
f 53/73/73 50/74/74 52/75/75
f 56/76/76 54/77/77 55/78/78
f 57/79/79 54/80/80 56/81/81
f 60/82/82 58/83/83 59/84/84
f 61/85/85 58/86/86 60/87/87
f 64/88/88 62/89/89 63/90/90
f 65/91/91 62/92/92 64/93/93
f 68/94/94 66/95/95 67/96/96
f 69/97/97 66/98/98 68/99/99
f 72/100/100 70/101/101 71/102/102
f 73/103/103 70/104/104 72/105/105
f 76/106/106 74/107/107 75/108/108
f 77/109/109 74/110/110 76/111/111
f 80/112/112 78/113/113 79/114/114
f 81/115/115 78/116/116 80/117/117
f 84/118/118 82/119/119 83/120/120
f 85/121/121 82/122/122 84/123/123
f 88/124/124 86/125/125 87/126/126
f 89/127/127 86/128/128 88/129/129
f 92/130/130 90/131/131 91/132/132
f 95/133/133 93/134/134 94/135/135
f 96/136/136 93/137/137 95/138/138
f 99/139/139 97/140/140 98/141/141
f 100/142/142 97/143/143 99/144/144
f 103/145/145 101/146/146 102/147/147
f 104/148/148 101/149/149 103/150/150
f 107/151/151 105/152/152 106/153/153
f 108/154/154 105/155/155 107/156/156
f 111/157/157 109/158/158 110/159/159
f 112/160/160 109/161/161 111/162/162
f 115/163/163 113/164/164 114/165/165
f 116/166/166 113/167/167 115/168/168
f 119/169/169 117/170/170 118/171/171
f 120/172/172 117/173/173 119/174/174
f 123/175/175 121/176/176 122/177/177
f 124/178/178 121/179/179 123/180/180
f 127/181/181 125/182/182 126/183/183
f 128/184/184 125/185/185 127/186/186
f 131/187/187 129/188/188 130/189/189
f 132/190/190 129/191/191 131/192/192
f 135/193/193 133/194/194 134/195/195
f 136/196/196 133/197/197 135/198/198
f 139/199/199 137/200/200 138/201/201
f 140/202/202 137/203/203 139/204/204
f 143/205/205 141/206/206 142/207/207
f 144/208/208 141/209/209 143/210/210
f 147/211/211 145/212/212 146/213/213
f 148/214/214 145/215/215 147/216/216
f 151/217/217 149/218/218 150/219/219
f 152/220/220 149/221/221 151/222/222
f 155/223/223 153/224/224 154/225/225
f 156/226/226 153/227/227 155/228/228
f 159/229/229 157/230/230 158/231/231
f 160/232/232 157/233/233 159/234/234
f 163/235/235 161/236/236 162/237/237
f 164/238/238 161/239/239 163/240/240
f 167/241/241 165/242/242 166/243/243
f 168/244/244 165/245/245 167/246/246
f 171/247/247 169/248/248 170/249/249
f 172/250/250 169/251/251 171/252/252
f 175/253/253 173/254/254 174/255/255
f 176/256/256 173/257/257 175/258/258
f 179/259/259 177/260/260 178/261/261
f 180/262/262 177/263/263 179/264/264
f 183/265/265 181/266/266 182/267/267
f 184/268/268 181/269/269 183/270/270
f 187/271/271 185/272/272 186/273/273
f 188/274/274 185/275/275 187/276/276
f 226/277/277 224/278/278 225/279/279
f 229/280/280 227/281/281 228/282/282
f 232/283/283 230/284/284 231/285/285
f 235/286/286 233/287/287 234/288/288
f 238/289/289 236/290/290 237/291/291
f 241/292/292 239/293/293 240/294/294
f 244/295/295 242/296/296 243/297/297
f 247/298/298 245/299/299 246/300/300
f 250/301/301 248/302/302 249/303/303
f 253/304/304 251/305/305 252/306/306
f 256/307/307 254/308/308 255/309/309
f 259/310/310 257/311/311 258/312/312
f 262/313/313 260/314/314 261/315/315
f 265/316/316 263/317/317 264/318/318

g Material.002
f 191/319/319 189/320/320 190/321/321
f 192/322/322 189/323/323 191/324/324
f 195/325/325 193/326/326 194/327/327
f 196/328/328 193/329/329 195/330/330
f 199/331/331 197/332/332 198/333/333
f 200/334/334 197/335/335 199/336/336
f 203/337/337 201/338/338 202/339/339
f 204/340/340 201/341/341 203/342/342
f 207/343/343 205/344/344 206/345/345
f 208/346/346 205/347/347 207/348/348
f 211/349/349 209/350/350 210/351/351
f 212/352/352 209/353/353 211/354/354
f 215/355/355 213/356/356 214/357/357
f 216/358/358 213/359/359 215/360/360
f 219/361/361 217/362/362 218/363/363
f 220/364/364 217/365/365 219/366/366
f 223/367/367 221/368/368 222/369/369
f 268/370/370 266/371/371 267/372/372
f 271/373/373 269/374/374 270/375/375
f 274/376/376 272/377/377 273/378/378
f 277/379/379 275/380/380 276/381/381
f 280/382/382 278/383/383 279/384/384

