# Converted from B3D for Luanti (With Correct Normals)
# Object Name: multidecor_white_plastic_flowerpot

v -0.760000 -0.900000 -0.760000
v -0.950000 0.900000 -0.950000
v 0.950000 0.900000 -0.950000
v 0.760000 -0.900000 -0.760000
v 0.760000 -0.900000 -0.760000
v 0.950000 0.900000 -0.950000
v 0.950000 0.900000 0.950000
v 0.760000 -0.900000 0.760000
v 0.919600 -1.000000 0.919600
v -0.919600 -1.000000 0.919600
v -0.919600 -1.000000 -0.919600
v 0.919600 -1.000000 -0.919600
v -0.760000 -0.900000 0.760000
v -0.950000 0.900000 0.950000
v -0.950000 0.900000 -0.950000
v -0.760000 -0.900000 -0.760000
v 0.760000 -0.900000 0.760000
v 0.950000 0.900000 0.950000
v -0.950000 0.900000 0.950000
v -0.760000 -0.900000 0.760000
v 0.836000 -0.900000 0.836000
v 0.836000 -0.900000 -0.836000
v -0.836000 -0.900000 -0.836000
v -0.836000 -0.900000 0.836000
v 0.836000 -0.900000 0.836000
v -0.836000 -0.900000 0.836000
v -0.951721 -0.750000 0.951721
v 0.951721 -0.750000 0.951721
v -0.836000 -0.900000 0.836000
v -0.836000 -0.900000 -0.836000
v -0.951721 -0.750000 -0.951721
v -0.951721 -0.750000 0.951721
v -0.836000 -0.900000 -0.836000
v 0.836000 -0.900000 -0.836000
v 0.951721 -0.750000 -0.951721
v -0.951721 -0.750000 -0.951721
v 0.836000 -0.900000 -0.836000
v 0.836000 -0.900000 0.836000
v 0.951721 -0.750000 0.951721
v 0.951721 -0.750000 -0.951721
v -0.951721 -0.750000 -0.951721
v 0.951721 -0.750000 -0.951721
v 0.951721 -0.650000 -0.951721
v -0.951721 -0.650000 -0.951721
v 0.951721 -0.750000 -0.951721
v 0.951721 -0.750000 0.951721
v 0.951721 -0.650000 0.951721
v 0.951721 -0.650000 -0.951721
v -0.951721 -0.750000 0.951721
v -0.951721 -0.750000 -0.951721
v -0.951721 -0.650000 -0.951721
v -0.951721 -0.650000 0.951721
v 0.951721 -0.750000 0.951721
v -0.951721 -0.750000 0.951721
v -0.951721 -0.650000 0.951721
v 0.951721 -0.650000 0.951721
v 0.919600 -1.000000 0.919600
v 1.048279 -0.760000 1.048279
v -1.048279 -0.760000 1.048279
v -0.919600 -1.000000 0.919600
v -0.919600 -1.000000 0.919600
v -1.048279 -0.760000 1.048279
v -1.048279 -0.760000 -1.048279
v -0.919600 -1.000000 -0.919600
v -0.919600 -1.000000 -0.919600
v -1.048279 -0.760000 -1.048279
v 1.048279 -0.760000 -1.048279
v 0.919600 -1.000000 -0.919600
v 0.919600 -1.000000 -0.919600
v 1.048279 -0.760000 -1.048279
v 1.048279 -0.760000 1.048279
v 0.919600 -1.000000 0.919600
v -1.048279 -0.760000 -1.048279
v -1.048279 -0.650000 -1.048279
v 1.048279 -0.650000 -1.048279
v 1.048279 -0.760000 -1.048279
v 1.048279 -0.760000 -1.048279
v 1.048279 -0.650000 -1.048279
v 1.048279 -0.650000 1.048279
v 1.048279 -0.760000 1.048279
v -1.048279 -0.760000 1.048279
v -1.048279 -0.650000 1.048279
v -1.048279 -0.650000 -1.048279
v -1.048279 -0.760000 -1.048279
v 1.048279 -0.760000 1.048279
v 1.048279 -0.650000 1.048279
v -1.048279 -0.650000 1.048279
v -1.048279 -0.760000 1.048279
v 1.048279 -0.650000 -1.048279
v 0.951721 -0.650000 0.951721
v 1.048279 -0.650000 1.048279
v 0.951721 -0.650000 0.951721
v -1.048279 -0.650000 1.048279
v 1.048279 -0.650000 1.048279
v 0.951721 -0.650000 0.951721
v -0.951721 -0.650000 0.951721
v -1.048279 -0.650000 1.048279
v -0.951721 -0.650000 0.951721
v -1.048279 -0.650000 -1.048279
v -1.048279 -0.650000 1.048279
v 1.048279 -0.650000 -1.048279
v 0.951721 -0.650000 -0.951721
v 0.951721 -0.650000 0.951721
v -0.951721 -0.650000 -0.951721
v -1.048279 -0.650000 -1.048279
v -0.951721 -0.650000 0.951721
v -0.951721 -0.650000 -0.951721
v 0.951721 -0.650000 -0.951721
v -1.048279 -0.650000 -1.048279
v -1.048279 -0.650000 -1.048279
v 0.951721 -0.650000 -0.951721
v 1.048279 -0.650000 -1.048279
v 0.850000 1.000000 -0.850000
v 1.050000 1.000000 -1.050000
v -1.050000 1.000000 -1.050000
v -0.850000 1.000000 -0.850000
v -0.850000 1.000000 0.850000
v -0.850000 1.000000 -0.850000
v -1.050000 1.000000 -1.050000
v -1.050000 1.000000 1.050000
v 0.850000 1.000000 0.850000
v -0.850000 1.000000 0.850000
v -1.050000 1.000000 1.050000
v 1.050000 1.000000 1.050000
v 1.050000 1.000000 1.050000
v 1.050000 0.850000 1.050000
v -1.050000 0.850000 1.050000
v -1.050000 1.000000 1.050000
v -1.050000 1.000000 1.050000
v -1.050000 0.850000 1.050000
v -1.050000 0.850000 -1.050000
v -1.050000 1.000000 -1.050000
v 1.050000 1.000000 -1.050000
v 1.050000 0.850000 -1.050000
v 1.050000 0.850000 1.050000
v 1.050000 1.000000 1.050000
v 0.850000 1.000000 -0.850000
v 0.850000 1.000000 0.850000
v 1.050000 1.000000 1.050000
v 1.050000 1.000000 -1.050000
v 1.050000 1.000000 -1.050000
v 1.050000 0.850000 -1.050000
v -1.050000 0.850000 -1.050000
v -1.050000 1.000000 -1.050000
v 0.850000 1.000000 0.850000
v 0.850000 1.000000 -0.850000
v 0.850000 0.900000 -0.850000
v 0.850000 0.900000 0.850000
v 0.850000 1.000000 -0.850000
v -0.850000 1.000000 -0.850000
v -0.850000 0.900000 -0.850000
v 0.850000 0.900000 -0.850000
v -0.850000 1.000000 0.850000
v 0.850000 1.000000 0.850000
v 0.850000 0.900000 0.850000
v -0.850000 0.900000 0.850000
v -0.850000 1.000000 -0.850000
v -0.850000 1.000000 0.850000
v -0.850000 0.900000 0.850000
v -0.850000 0.900000 -0.850000
v -0.850000 0.900000 -0.850000
v -0.850000 0.900000 0.850000
v 0.850000 0.900000 0.850000
v 0.850000 0.900000 -0.850000
v 0.950000 0.900000 0.950000
v 0.950000 0.900000 -0.950000
v 1.050000 0.900000 -1.050000
v 1.050000 0.900000 1.050000
v -0.950000 0.900000 -0.950000
v -0.950000 0.900000 0.950000
v -1.050000 0.900000 1.050000
v -1.050000 0.900000 -1.050000
v -0.950000 0.900000 0.950000
v 0.950000 0.900000 0.950000
v 1.050000 0.900000 1.050000
v -1.050000 0.900000 1.050000
v 0.950000 0.900000 -0.950000
v -0.950000 0.900000 -0.950000
v -1.050000 0.900000 -1.050000
v 1.050000 0.900000 -1.050000

vt 0.034724 0.970392
vt 0.427518 0.554628
vt 0.471161 0.970392
vt 0.078368 0.554628
vt 0.427518 0.554628
vt 0.034724 0.970392
vt 0.474487 0.970392
vt 0.867280 0.554628
vt 0.910924 0.970392
vt 0.518131 0.554629
vt 0.867280 0.554628
vt 0.474487 0.970392
vt 0.509564 0.422985
vt 0.932035 0.000514
vt 0.509564 0.000514
vt 0.932035 0.422985
vt 0.932035 0.000514
vt 0.509564 0.422985
vt 0.474487 0.970392
vt 0.867280 0.554628
vt 0.910924 0.970392
vt 0.518131 0.554628
vt 0.867280 0.554628
vt 0.474487 0.970392
vt 0.034724 0.970392
vt 0.427518 0.554628
vt 0.471161 0.970392
vt 0.078368 0.554629
vt 0.427518 0.554628
vt 0.034724 0.970392
vt 0.614411 0.558079
vt 0.998476 0.174014
vt 0.998476 0.558079
vt 0.614411 0.174014
vt 0.998476 0.174014
vt 0.614411 0.558079
vt 0.976581 0.000514
vt 0.933064 0.411160
vt 0.933064 0.027096
vt 0.976581 0.437742
vt 0.933064 0.411160
vt 0.976581 0.000514
vt 0.859708 0.000049
vt 0.816190 0.410694
vt 0.816191 0.026630
vt 0.859708 0.437276
vt 0.816190 0.410694
vt 0.859708 0.000049
vt 0.792192 0.000049
vt 0.748674 0.410694
vt 0.748674 0.026630
vt 0.792191 0.437276
vt 0.748674 0.410694
vt 0.792192 0.000049
vt 0.927224 0.000049
vt 0.883707 0.410694
vt 0.883707 0.026630
vt 0.927224 0.437276
vt 0.883707 0.410694
vt 0.927224 0.000049
vt 0.815162 0.000048
vt 0.792191 0.437276
vt 0.792192 0.000049
vt 0.815162 0.437276
vt 0.792191 0.437276
vt 0.815162 0.000048
vt 0.950195 0.000048
vt 0.927224 0.437276
vt 0.927224 0.000049
vt 0.950195 0.437276
vt 0.927224 0.437276
vt 0.950195 0.000048
vt 0.882678 0.000048
vt 0.859708 0.437276
vt 0.859708 0.000049
vt 0.882678 0.437276
vt 0.859708 0.437276
vt 0.882678 0.000048
vt 0.999551 0.000514
vt 0.976581 0.437742
vt 0.976581 0.000514
vt 0.999551 0.437742
vt 0.976581 0.437742
vt 0.999551 0.000514
vt 0.503678 0.104098
vt 0.051649 0.041545
vt 0.022091 0.104098
vt 0.474120 0.041545
vt 0.051649 0.041545
vt 0.503678 0.104098
vt 0.503678 0.215127
vt 0.051649 0.152574
vt 0.022091 0.215127
vt 0.474120 0.152574
vt 0.051649 0.152574
vt 0.503678 0.215127
vt 0.574063 0.481636
vt 0.636616 0.029606
vt 0.574063 0.000048
vt 0.636616 0.452078
vt 0.636616 0.029606
vt 0.574063 0.481636
vt 0.685092 0.481635
vt 0.747645 0.029606
vt 0.685092 0.000048
vt 0.747645 0.452077
vt 0.747645 0.029606
vt 0.685092 0.481635
vt 0.548796 0.481636
vt 0.574063 0.000048
vt 0.548796 0.000048
vt 0.574063 0.481636
vt 0.574063 0.000048
vt 0.548796 0.481636
vt 0.659825 0.481635
vt 0.685092 0.000048
vt 0.659825 0.000048
vt 0.685092 0.481635
vt 0.685092 0.000048
vt 0.659825 0.481635
vt 0.503678 0.240395
vt 0.022091 0.215127
vt 0.022091 0.240394
vt 0.503678 0.215127
vt 0.022091 0.215127
vt 0.503678 0.240395
vt 0.503678 0.129366
vt 0.022091 0.104098
vt 0.022091 0.129365
vt 0.503678 0.104098
vt 0.022091 0.104098
vt 0.503678 0.129366
vt 0.659825 0.481635
vt 0.659825 0.000048
vt 0.637645 0.459455
vt 0.022091 0.129365
vt 0.044270 0.151545
vt 0.503678 0.129366
vt 0.503678 0.129366
vt 0.044270 0.151545
vt 0.481498 0.151546
vt 0.022091 0.240394
vt 0.044270 0.262574
vt 0.503678 0.240395
vt 0.637645 0.459455
vt 0.659825 0.000048
vt 0.637645 0.022228
vt 0.044270 0.262574
vt 0.481498 0.262575
vt 0.503678 0.240395
vt 0.548796 0.000048
vt 0.526616 0.022228
vt 0.526616 0.459456
vt 0.548796 0.481636
vt 0.548796 0.000048
vt 0.526616 0.459456
vt 0.022091 0.332515
vt 0.458527 0.286574
vt 0.504467 0.332515
vt 0.068032 0.286574
vt 0.458527 0.286574
vt 0.022091 0.332515
vt 0.022091 0.436911
vt 0.458526 0.390969
vt 0.068031 0.390970
vt 0.504467 0.436911
vt 0.458526 0.390969
vt 0.022091 0.436911
vt 0.517827 0.360634
vt 0.954262 0.314693
vt 0.563768 0.314694
vt 1.000204 0.360635
vt 0.954262 0.314693
vt 0.517827 0.360634
vt 0.517827 0.395090
vt 1.000204 0.360635
vt 1.000204 0.395090
vt 0.517827 0.360634
vt 1.000204 0.360635
vt 0.517827 0.395090
vt 0.022091 0.471366
vt 0.504467 0.436911
vt 0.504467 0.471366
vt 0.022091 0.436911
vt 0.504467 0.436911
vt 0.022091 0.471366
vt 1.000204 0.499486
vt 0.517827 0.465030
vt 0.517827 0.499486
vt 1.000204 0.465030
vt 0.517827 0.465030
vt 1.000204 0.499486
vt 1.000204 0.465030
vt 0.563768 0.419089
vt 0.954263 0.419090
vt 0.517827 0.465030
vt 0.563768 0.419089
vt 1.000204 0.465030
vt 0.022091 0.366970
vt 0.504467 0.332515
vt 0.504467 0.366970
vt 0.022091 0.332515
vt 0.504467 0.332515
vt 0.022091 0.366970
vt 0.563768 0.396119
vt 0.954263 0.419090
vt 0.563768 0.419089
vt 0.954263 0.396119
vt 0.954263 0.419090
vt 0.563768 0.396119
vt 0.068031 0.263603
vt 0.458527 0.286574
vt 0.068032 0.286574
vt 0.458527 0.263603
vt 0.458527 0.286574
vt 0.068031 0.263603
vt 0.954262 0.291723
vt 0.563768 0.314694
vt 0.954262 0.314693
vt 0.563768 0.291723
vt 0.563768 0.314694
vt 0.954262 0.291723
vt 0.458526 0.367999
vt 0.068031 0.390970
vt 0.458526 0.390969
vt 0.068031 0.367999
vt 0.068031 0.390970
vt 0.458526 0.367999
vt 0.508535 0.000514
vt 0.485565 0.459922
vt 0.485565 0.023485
vt 0.508535 0.482892
vt 0.485565 0.459922
vt 0.508535 0.000514
vt 0.211853 0.481063
vt 0.234824 0.021655
vt 0.234824 0.458092
vt 0.211853 -0.001315
vt 0.234824 0.021655
vt 0.211853 0.481063
vt 0.210825 0.015279
vt 0.187855 0.474686
vt 0.187855 0.038249
vt 0.210825 0.497656
vt 0.187855 0.474686
vt 0.210825 0.015279
vt 0.147091 0.481063
vt 0.170061 0.021655
vt 0.170061 0.458092
vt 0.147091 -0.001315
vt 0.170061 0.021655
vt 0.147091 0.481063
vt 0.000100 0.999900
vt 0.999900 0.000100
vt 0.999900 0.999900
vt 0.000100 0.000100
vt 0.999900 0.000100
vt 0.000100 0.999900

vn -0.000000 -0.104972 -0.994475
vn -0.000000 -0.104972 -0.994475
vn -0.000000 -0.104972 -0.994475
vn -0.000000 -0.104972 -0.994475
vn -0.000000 -0.104972 -0.994475
vn -0.000000 -0.104972 -0.994475
vn 0.994475 -0.104972 0.000000
vn 0.994475 -0.104972 0.000000
vn 0.994475 -0.104972 0.000000
vn 0.994475 -0.104972 0.000000
vn 0.994475 -0.104972 0.000000
vn 0.994475 -0.104972 0.000000
vn -0.000000 -1.000000 0.000000
vn -0.000000 -1.000000 0.000000
vn -0.000000 -1.000000 0.000000
vn -0.000000 -1.000000 0.000000
vn -0.000000 -1.000000 0.000000
vn -0.000000 -1.000000 0.000000
vn -0.994475 -0.104972 0.000000
vn -0.994475 -0.104972 0.000000
vn -0.994475 -0.104972 0.000000
vn -0.994475 -0.104972 0.000000
vn -0.994475 -0.104972 0.000000
vn -0.994475 -0.104972 0.000000
vn -0.000000 -0.104972 0.994475
vn -0.000000 -0.104972 0.994475
vn -0.000000 -0.104972 0.994475
vn -0.000000 -0.104972 0.994475
vn -0.000000 -0.104972 0.994475
vn -0.000000 -0.104972 0.994475
vn -0.000000 1.000000 0.000000
vn -0.000000 1.000000 0.000000
vn -0.000000 1.000000 0.000000
vn -0.000000 1.000000 0.000000
vn -0.000000 1.000000 0.000000
vn -0.000000 1.000000 0.000000
vn -0.000000 0.610826 -0.791765
vn -0.000000 0.610826 -0.791765
vn -0.000000 0.610826 -0.791765
vn -0.000000 0.610826 -0.791765
vn -0.000000 0.610826 -0.791765
vn -0.000000 0.610826 -0.791765
vn 0.791765 0.610825 0.000000
vn 0.791765 0.610825 0.000000
vn 0.791765 0.610825 0.000000
vn 0.791765 0.610826 0.000000
vn 0.791765 0.610826 0.000000
vn 0.791765 0.610826 0.000000
vn -0.000000 0.610826 0.791765
vn -0.000000 0.610826 0.791765
vn -0.000000 0.610826 0.791765
vn -0.000000 0.610826 0.791765
vn -0.000000 0.610826 0.791765
vn -0.000000 0.610826 0.791765
vn -0.791765 0.610825 0.000000
vn -0.791765 0.610825 0.000000
vn -0.791765 0.610825 0.000000
vn -0.791765 0.610826 0.000000
vn -0.791765 0.610826 0.000000
vn -0.791765 0.610826 0.000000
vn -0.000000 0.000000 1.000000
vn -0.000000 0.000000 1.000000
vn -0.000000 0.000000 1.000000
vn -0.000000 0.000000 1.000000
vn -0.000000 0.000000 1.000000
vn -0.000000 0.000000 1.000000
vn -1.000000 0.000000 0.000000
vn -1.000000 0.000000 0.000000
vn -1.000000 0.000000 0.000000
vn -1.000000 0.000000 0.000000
vn -1.000000 0.000000 0.000000
vn -1.000000 0.000000 0.000000
vn 1.000000 0.000000 0.000000
vn 1.000000 0.000000 0.000000
vn 1.000000 0.000000 0.000000
vn 1.000000 0.000000 0.000000
vn 1.000000 0.000000 0.000000
vn 1.000000 0.000000 0.000000
vn -0.000000 0.000000 -1.000000
vn -0.000000 0.000000 -1.000000
vn -0.000000 0.000000 -1.000000
vn -0.000000 0.000000 -1.000000
vn -0.000000 0.000000 -1.000000
vn -0.000000 0.000000 -1.000000
vn -0.000000 -0.472529 0.881315
vn -0.000000 -0.472529 0.881315
vn -0.000000 -0.472529 0.881315
vn -0.000000 -0.472528 0.881316
vn -0.000000 -0.472528 0.881316
vn -0.000000 -0.472528 0.881316
vn -0.881316 -0.472528 0.000000
vn -0.881316 -0.472528 0.000000
vn -0.881316 -0.472528 0.000000
vn -0.881316 -0.472528 0.000000
vn -0.881316 -0.472528 0.000000
vn -0.881316 -0.472528 0.000000
vn -0.000000 -0.472529 -0.881315
vn -0.000000 -0.472529 -0.881315
vn -0.000000 -0.472529 -0.881315
vn -0.000000 -0.472528 -0.881316
vn -0.000000 -0.472528 -0.881316
vn -0.000000 -0.472528 -0.881316
vn 0.881316 -0.472528 0.000000
vn 0.881316 -0.472528 0.000000
vn 0.881316 -0.472528 0.000000
vn 0.881316 -0.472528 0.000000
vn 0.881316 -0.472528 0.000000
vn 0.881316 -0.472528 0.000000
vn -0.000000 0.000000 -1.000000
vn -0.000000 0.000000 -1.000000
vn -0.000000 0.000000 -1.000000
vn -0.000000 0.000000 -1.000000
vn -0.000000 0.000000 -1.000000
vn -0.000000 0.000000 -1.000000
vn 1.000000 0.000000 0.000000
vn 1.000000 0.000000 0.000000
vn 1.000000 0.000000 0.000000
vn 1.000000 0.000000 0.000000
vn 1.000000 0.000000 0.000000
vn 1.000000 0.000000 0.000000
vn -1.000000 0.000000 0.000000
vn -1.000000 0.000000 0.000000
vn -1.000000 0.000000 0.000000
vn -1.000000 0.000000 0.000000
vn -1.000000 0.000000 0.000000
vn -1.000000 0.000000 0.000000
vn -0.000000 0.000000 1.000000
vn -0.000000 0.000000 1.000000
vn -0.000000 0.000000 1.000000
vn -0.000000 0.000000 1.000000
vn -0.000000 0.000000 1.000000
vn -0.000000 0.000000 1.000000
vn -0.000000 1.000000 0.000000
vn -0.000000 1.000000 0.000000
vn -0.000000 1.000000 0.000000
vn -0.000000 1.000000 0.000000
vn -0.000000 1.000000 0.000000
vn -0.000000 1.000000 0.000000
vn -0.000000 1.000000 0.000000
vn -0.000000 1.000000 0.000000
vn -0.000000 1.000000 0.000000
vn -0.000000 1.000000 0.000000
vn -0.000000 1.000000 0.000000
vn -0.000000 1.000000 0.000000
vn -0.000001 1.000000 0.000000
vn -0.000001 1.000000 0.000000
vn -0.000001 1.000000 0.000000
vn 0.000001 1.000000 0.000000
vn 0.000001 1.000000 0.000000
vn 0.000001 1.000000 0.000000
vn -0.000000 1.000000 0.000000
vn -0.000000 1.000000 0.000000
vn -0.000000 1.000000 0.000000
vn -0.000000 1.000000 0.000000
vn -0.000000 1.000000 0.000000
vn -0.000000 1.000000 0.000000
vn -0.000000 1.000000 0.000000
vn -0.000000 1.000000 0.000000
vn -0.000000 1.000000 0.000000
vn -0.000000 1.000000 0.000000
vn -0.000000 1.000000 0.000000
vn -0.000000 1.000000 0.000000
vn -0.000000 1.000000 0.000000
vn -0.000000 1.000000 0.000000
vn -0.000000 1.000000 0.000000
vn -0.000000 1.000000 0.000000
vn -0.000000 1.000000 0.000000
vn -0.000000 1.000000 0.000000
vn -0.000000 1.000000 0.000000
vn -0.000000 1.000000 0.000000
vn -0.000000 1.000000 0.000000
vn -0.000000 1.000000 0.000000
vn -0.000000 1.000000 0.000000
vn -0.000000 1.000000 0.000000
vn -0.000000 0.000000 -1.000000
vn -0.000000 0.000000 -1.000000
vn -0.000000 0.000000 -1.000000
vn -0.000000 0.000000 -1.000000
vn -0.000000 0.000000 -1.000000
vn -0.000000 0.000000 -1.000000
vn 1.000000 0.000000 0.000000
vn 1.000000 0.000000 0.000000
vn 1.000000 0.000000 0.000000
vn 1.000000 0.000000 0.000000
vn 1.000000 0.000000 0.000000
vn 1.000000 0.000000 0.000000
vn -1.000000 0.000000 0.000000
vn -1.000000 0.000000 0.000000
vn -1.000000 0.000000 0.000000
vn -1.000000 0.000000 0.000000
vn -1.000000 0.000000 0.000000
vn -1.000000 0.000000 0.000000
vn -0.000000 1.000000 0.000000
vn -0.000000 1.000000 0.000000
vn -0.000000 1.000000 0.000000
vn -0.000000 1.000000 0.000000
vn -0.000000 1.000000 0.000000
vn -0.000000 1.000000 0.000000
vn -0.000000 0.000000 -1.000000
vn -0.000000 0.000000 -1.000000
vn -0.000000 0.000000 -1.000000
vn -0.000000 0.000000 -1.000000
vn -0.000000 0.000000 -1.000000
vn -0.000000 0.000000 -1.000000
vn -1.000000 0.000000 0.000000
vn -1.000000 0.000000 0.000000
vn -1.000000 0.000000 0.000000
vn -1.000000 0.000000 0.000000
vn -1.000000 0.000000 0.000000
vn -1.000000 0.000000 0.000000
vn -0.000000 0.000000 1.000000
vn -0.000000 0.000000 1.000000
vn -0.000000 0.000000 1.000000
vn -0.000000 0.000000 1.000000
vn -0.000000 0.000000 1.000000
vn -0.000000 0.000000 1.000000
vn -0.000000 0.000000 -1.000000
vn -0.000000 0.000000 -1.000000
vn -0.000000 0.000000 -1.000000
vn -0.000000 0.000000 -1.000000
vn -0.000000 0.000000 -1.000000
vn -0.000000 0.000000 -1.000000
vn 1.000000 0.000000 0.000000
vn 1.000000 0.000000 0.000000
vn 1.000000 0.000000 0.000000
vn 1.000000 0.000000 0.000000
vn 1.000000 0.000000 0.000000
vn 1.000000 0.000000 0.000000
vn -0.000001 -1.000000 0.000000
vn -0.000001 -1.000000 0.000000
vn -0.000001 -1.000000 0.000000
vn -0.000000 -1.000000 0.000000
vn -0.000000 -1.000000 0.000000
vn -0.000000 -1.000000 0.000000
vn 0.000001 -1.000000 0.000000
vn 0.000001 -1.000000 0.000000
vn 0.000001 -1.000000 0.000000
vn -0.000000 -1.000000 0.000000
vn -0.000000 -1.000000 0.000000
vn -0.000000 -1.000000 0.000000
vn -0.000000 -1.000000 0.000000
vn -0.000000 -1.000000 0.000000
vn -0.000000 -1.000000 0.000000
vn -0.000000 -1.000000 0.000000
vn -0.000000 -1.000000 0.000000
vn -0.000000 -1.000000 0.000000
vn -0.000000 -1.000000 0.000000
vn -0.000000 -1.000000 0.000000
vn -0.000000 -1.000000 0.000000
vn -0.000000 -1.000000 0.000000
vn -0.000000 -1.000000 0.000000
vn -0.000000 -1.000000 0.000000
vn -0.000000 1.000000 0.000000
vn -0.000000 1.000000 0.000000
vn -0.000000 1.000000 0.000000
vn -0.000000 1.000000 0.000000
vn -0.000000 1.000000 0.000000
vn -0.000000 1.000000 0.000000

g Material
f 3/1/1 1/2/2 2/3/3
f 4/4/4 1/5/5 3/6/6
f 7/7/7 5/8/8 6/9/9
f 8/10/10 5/11/11 7/12/12
f 11/13/13 9/14/14 10/15/15
f 12/16/16 9/17/17 11/18/18
f 15/19/19 13/20/20 14/21/21
f 16/22/22 13/23/23 15/24/24
f 19/25/25 17/26/26 18/27/27
f 20/28/28 17/29/29 19/30/30
f 23/31/31 21/32/32 22/33/33
f 24/34/34 21/35/35 23/36/36
f 27/37/37 25/38/38 26/39/39
f 28/40/40 25/41/41 27/42/42
f 31/43/43 29/44/44 30/45/45
f 32/46/46 29/47/47 31/48/48
f 35/49/49 33/50/50 34/51/51
f 36/52/52 33/53/53 35/54/54
f 39/55/55 37/56/56 38/57/57
f 40/58/58 37/59/59 39/60/60
f 43/61/61 41/62/62 42/63/63
f 44/64/64 41/65/65 43/66/66
f 47/67/67 45/68/68 46/69/69
f 48/70/70 45/71/71 47/72/72
f 51/73/73 49/74/74 50/75/75
f 52/76/76 49/77/77 51/78/78
f 55/79/79 53/80/80 54/81/81
f 56/82/82 53/83/83 55/84/84
f 59/85/85 57/86/86 58/87/87
f 60/88/88 57/89/89 59/90/90
f 63/91/91 61/92/92 62/93/93
f 64/94/94 61/95/95 63/96/96
f 67/97/97 65/98/98 66/99/99
f 68/100/100 65/101/101 67/102/102
f 71/103/103 69/104/104 70/105/105
f 72/106/106 69/107/107 71/108/108
f 75/109/109 73/110/110 74/111/111
f 76/112/112 73/113/113 75/114/114
f 79/115/115 77/116/116 78/117/117
f 80/118/118 77/119/119 79/120/120
f 83/121/121 81/122/122 82/123/123
f 84/124/124 81/125/125 83/126/126
f 87/127/127 85/128/128 86/129/129
f 88/130/130 85/131/131 87/132/132
f 91/133/133 89/134/134 90/135/135
f 94/136/136 92/137/137 93/138/138
f 97/139/139 95/140/140 96/141/141
f 100/142/142 98/143/143 99/144/144
f 103/145/145 101/146/146 102/147/147
f 106/148/148 104/149/149 105/150/150
f 109/151/151 107/152/152 108/153/153
f 112/154/154 110/155/155 111/156/156
f 115/157/157 113/158/158 114/159/159
f 116/160/160 113/161/161 115/162/162
f 119/163/163 117/164/164 118/165/165
f 120/166/166 117/167/167 119/168/168
f 123/169/169 121/170/170 122/171/171
f 124/172/172 121/173/173 123/174/174
f 127/175/175 125/176/176 126/177/177
f 128/178/178 125/179/179 127/180/180
f 131/181/181 129/182/182 130/183/183
f 132/184/184 129/185/185 131/186/186
f 135/187/187 133/188/188 134/189/189
f 136/190/190 133/191/191 135/192/192
f 139/193/193 137/194/194 138/195/195
f 140/196/196 137/197/197 139/198/198
f 143/199/199 141/200/200 142/201/201
f 144/202/202 141/203/203 143/204/204
f 147/205/205 145/206/206 146/207/207
f 148/208/208 145/209/209 147/210/210
f 151/211/211 149/212/212 150/213/213
f 152/214/214 149/215/215 151/216/216
f 155/217/217 153/218/218 154/219/219
f 156/220/220 153/221/221 155/222/222
f 159/223/223 157/224/224 158/225/225
f 160/226/226 157/227/227 159/228/228
f 167/229/229 165/230/230 166/231/231
f 168/232/232 165/233/233 167/234/234
f 171/235/235 169/236/236 170/237/237
f 172/238/238 169/239/239 171/240/240
f 175/241/241 173/242/242 174/243/243
f 176/244/244 173/245/245 175/246/246
f 179/247/247 177/248/248 178/249/249
f 180/250/250 177/251/251 179/252/252

g Material.001
f 163/253/253 161/254/254 162/255/255
f 164/256/256 161/257/257 163/258/258

