# Converted from B3D for Luanti (With Correct Normals)
# Object Name: multidecor_bathroom_door_activated

v 0.000000 3.000000 1.000000
v 2.000000 3.000000 0.700000
v -0.000000 3.000000 0.700000
v 2.000000 3.000000 1.000000
v 2.000000 3.000000 0.700000
v 0.000000 3.000000 1.000000
v -0.000000 3.000000 0.700000
v 0.000000 -1.000000 1.000000
v 0.000000 3.000000 1.000000
v -0.000000 -1.000000 0.700000
v 0.000000 -1.000000 1.000000
v -0.000000 3.000000 0.700000
v 2.000000 -1.000000 1.000000
v -0.000000 -1.000000 0.700000
v 2.000000 -1.000000 0.700000
v 0.000000 -1.000000 1.000000
v -0.000000 -1.000000 0.700000
v 2.000000 -1.000000 1.000000
v 2.000000 3.000000 1.000000
v 2.000000 -1.000000 0.700000
v 2.000000 3.000000 0.700000
v 2.000000 -1.000000 1.000000
v 2.000000 -1.000000 0.700000
v 2.000000 3.000000 1.000000
v 1.800000 1.200000 0.700000
v 1.100000 1.200000 0.700000
v 1.100000 1.200000 0.800000
v 1.800000 1.200000 0.800000
v 0.200000 -0.800000 0.700000
v 0.200000 0.800000 0.700000
v 0.200000 0.800000 0.800000
v 0.200000 -0.800000 0.800000
v 1.600000 0.895424 1.206698
v 1.900000 0.895424 1.099998
v 1.900000 0.895424 1.206698
v 1.600000 0.895424 1.099998
v 1.900000 0.895424 1.099998
v 1.600000 0.895424 1.206698
v 1.600000 1.195424 1.206698
v 1.600000 0.895424 1.099998
v 1.600000 0.895424 1.206698
v 1.600000 1.195424 1.099998
v 1.600000 0.895424 1.099998
v 1.600000 1.195424 1.206698
v 1.900000 1.195424 1.206698
v 1.600000 1.195424 1.099998
v 1.600000 1.195424 1.206698
v 1.900000 1.195424 1.099998
v 1.600000 1.195424 1.099998
v 1.900000 1.195424 1.206698
v 1.900000 0.895424 1.206698
v 1.900000 1.195424 1.099998
v 1.900000 1.195424 1.206698
v 1.900000 0.895424 1.099998
v 1.900000 1.195424 1.099998
v 1.900000 0.895424 1.206698
v 1.900000 1.195424 1.099998
v 1.600000 0.895424 1.099998
v 1.600000 1.195424 1.099998
v 1.900000 0.895424 1.099998
v 1.600000 0.895424 1.099998
v 1.900000 1.195424 1.099998
v 1.900000 0.895424 1.206698
v 1.600000 1.195424 1.206698
v 1.600000 0.895424 1.206698
v 1.900000 1.195424 1.206698
v 1.600000 1.195424 1.206698
v 1.900000 0.895424 1.206698
v 1.600000 1.195424 0.493302
v 1.600000 0.895424 0.493302
v 1.600000 0.895424 0.600001
v 1.600000 1.195424 0.600001
v 1.600000 1.195424 0.493302
v 1.600000 0.895424 0.600001
v 1.600000 0.895424 0.493302
v 1.900000 0.895424 0.493302
v 1.900000 0.895424 0.600001
v 1.600000 0.895424 0.600001
v 1.600000 0.895424 0.493302
v 1.900000 0.895424 0.600001
v 1.675000 0.970424 1.000000
v 1.825000 0.970424 1.099998
v 1.675000 0.970424 1.099998
v 1.825000 0.970424 1.000000
v 1.825000 0.970424 1.099998
v 1.675000 0.970424 1.000000
v 1.825000 0.970424 1.000000
v 1.825000 1.120424 1.099998
v 1.825000 0.970424 1.099998
v 1.825000 1.120424 1.000000
v 1.825000 1.120424 1.099998
v 1.825000 0.970424 1.000000
v 1.675000 1.120424 1.000000
v 1.675000 0.970424 1.099998
v 1.675000 1.120424 1.099998
v 1.675000 0.970424 1.000000
v 1.675000 0.970424 1.099998
v 1.675000 1.120424 1.000000
v 1.825000 1.120424 1.000000
v 1.675000 1.120424 1.099998
v 1.825000 1.120424 1.099998
v 1.675000 1.120424 1.000000
v 1.675000 1.120424 1.099998
v 1.825000 1.120424 1.000000
v 1.900000 1.195424 0.493302
v 1.600000 1.195424 0.493302
v 1.600000 1.195424 0.600001
v 1.900000 1.195424 0.600001
v 1.900000 1.195424 0.493302
v 1.600000 1.195424 0.600001
v 1.900000 0.895424 0.493302
v 1.900000 1.195424 0.493302
v 1.900000 1.195424 0.600001
v 1.900000 0.895424 0.600001
v 1.900000 0.895424 0.493302
v 1.900000 1.195424 0.600001
v 1.900000 1.195424 0.600001
v 1.600000 1.195424 0.600001
v 1.600000 0.895424 0.600001
v 1.900000 0.895424 0.600001
v 1.900000 1.195424 0.600001
v 1.600000 0.895424 0.600001
v 1.900000 0.895424 0.493302
v 1.600000 0.895424 0.493302
v 1.600000 1.195424 0.493302
v 1.900000 1.195424 0.493302
v 1.900000 0.895424 0.493302
v 1.600000 1.195424 0.493302
v 1.675000 0.970424 0.700000
v 1.675000 0.970424 0.600001
v 1.825000 0.970424 0.600001
v 1.825000 0.970424 0.700000
v 1.675000 0.970424 0.700000
v 1.825000 0.970424 0.600001
v 1.825000 0.970424 0.700000
v 1.825000 0.970424 0.600001
v 1.825000 1.120424 0.600001
v 1.825000 1.120424 0.700000
v 1.825000 0.970424 0.700000
v 1.825000 1.120424 0.600001
v 1.675000 1.120424 0.700000
v 1.675000 1.120424 0.600001
v 1.675000 0.970424 0.600001
v 1.675000 0.970424 0.700000
v 1.675000 1.120424 0.700000
v 1.675000 0.970424 0.600001
v 1.825000 1.120424 0.700000
v 1.825000 1.120424 0.600001
v 1.675000 1.120424 0.600001
v 1.675000 1.120424 0.700000
v 1.825000 1.120424 0.700000
v 1.675000 1.120424 0.600001
v 0.200000 -0.800000 1.000000
v 0.200000 -0.800000 0.900000
v 0.200000 0.800000 0.900000
v 0.200000 0.800000 1.000000
v 1.800000 1.200000 1.000000
v 1.800000 1.200000 0.900000
v 1.100000 1.200000 0.900000
v 1.100000 1.200000 1.000000
v 0.900000 -0.800000 1.000000
v 0.900000 -0.800000 0.900000
v 0.200000 -0.800000 0.900000
v 0.200000 -0.800000 1.000000
v 1.100000 2.800000 1.000000
v 1.100000 2.800000 0.900000
v 1.800000 2.800000 0.900000
v 1.800000 2.800000 1.000000
v 0.200000 0.800000 1.000000
v 0.200000 0.800000 0.900000
v 0.900000 0.800000 0.900000
v 0.900000 0.800000 1.000000
v 1.800000 2.800000 1.000000
v 1.800000 2.800000 0.900000
v 1.800000 1.200000 0.900000
v 1.800000 1.200000 1.000000
v 0.200000 1.200000 1.000000
v 0.200000 1.200000 0.900000
v 0.200000 2.800000 0.900000
v 0.200000 2.800000 1.000000
v 0.900000 0.800000 1.000000
v 0.900000 0.800000 0.900000
v 0.900000 -0.800000 0.900000
v 0.900000 -0.800000 1.000000
v 1.100000 -0.800000 1.000000
v 1.100000 -0.800000 0.900000
v 1.100000 0.800000 0.900000
v 1.100000 0.800000 1.000000
v 0.900000 1.200000 1.000000
v 0.900000 1.200000 0.900000
v 0.200000 1.200000 0.900000
v 0.200000 1.200000 1.000000
v 1.800000 -0.800000 1.000000
v 1.800000 -0.800000 0.900000
v 1.100000 -0.800000 0.900000
v 1.100000 -0.800000 1.000000
v 0.200000 2.800000 1.000000
v 0.200000 2.800000 0.900000
v 0.900000 2.800000 0.900000
v 0.900000 2.800000 1.000000
v 1.100000 0.800000 1.000000
v 1.100000 0.800000 0.900000
v 1.800000 0.800000 0.900000
v 1.800000 0.800000 1.000000
v 0.900000 2.800000 1.000000
v 0.900000 2.800000 0.900000
v 0.900000 1.200000 0.900000
v 0.900000 1.200000 1.000000
v 1.800000 0.800000 1.000000
v 1.800000 0.800000 0.900000
v 1.800000 -0.800000 0.900000
v 1.800000 -0.800000 1.000000
v 1.100000 1.200000 1.000000
v 1.100000 1.200000 0.900000
v 1.100000 2.800000 0.900000
v 1.100000 2.800000 1.000000
v 0.200000 2.800000 0.900000
v 0.200000 1.200000 0.900000
v 0.900000 1.200000 0.900000
v 0.900000 2.800000 0.900000
v 1.100000 2.800000 0.900000
v 1.100000 1.200000 0.900000
v 1.800000 1.200000 0.900000
v 1.800000 2.800000 0.900000
v 0.200000 0.800000 0.900000
v 0.200000 -0.800000 0.900000
v 0.900000 -0.800000 0.900000
v 0.900000 0.800000 0.900000
v 1.100000 0.800000 0.900000
v 1.100000 -0.800000 0.900000
v 1.800000 -0.800000 0.900000
v 1.800000 0.800000 0.900000
v 1.800000 -0.800000 1.000000
v 2.000000 -1.000000 1.000000
v 1.800000 0.800000 1.000000
v 0.000000 -1.000000 1.000000
v 2.000000 -1.000000 1.000000
v 1.100000 -0.800000 1.000000
v 0.000000 3.000000 1.000000
v 0.900000 2.800000 1.000000
v 2.000000 3.000000 1.000000
v 1.100000 -0.800000 1.000000
v 0.900000 -0.800000 1.000000
v 0.000000 -1.000000 1.000000
v 0.900000 -0.800000 1.000000
v 0.200000 -0.800000 1.000000
v 0.000000 -1.000000 1.000000
v 0.000000 3.000000 1.000000
v 0.000000 -1.000000 1.000000
v 0.200000 0.800000 1.000000
v 1.100000 -0.800000 1.000000
v 2.000000 -1.000000 1.000000
v 1.800000 -0.800000 1.000000
v 1.100000 0.800000 1.000000
v 0.900000 -0.800000 1.000000
v 1.100000 -0.800000 1.000000
v 1.100000 0.800000 1.000000
v 0.900000 0.800000 1.000000
v 0.900000 -0.800000 1.000000
v 1.800000 0.800000 1.000000
v 2.000000 -1.000000 1.000000
v 2.000000 3.000000 1.000000
v 2.000000 3.000000 1.000000
v 1.800000 1.200000 1.000000
v 1.800000 0.800000 1.000000
v 1.800000 1.200000 1.000000
v 1.100000 0.800000 1.000000
v 1.800000 0.800000 1.000000
v 0.900000 0.800000 1.000000
v 1.100000 0.800000 1.000000
v 1.100000 1.200000 1.000000
v 0.200000 0.800000 1.000000
v 0.000000 -1.000000 1.000000
v 0.200000 -0.800000 1.000000
v 1.100000 1.200000 1.000000
v 1.100000 0.800000 1.000000
v 1.800000 1.200000 1.000000
v 1.100000 1.200000 1.000000
v 0.900000 1.200000 1.000000
v 0.900000 0.800000 1.000000
v 0.900000 1.200000 1.000000
v 0.200000 1.200000 1.000000
v 0.200000 0.800000 1.000000
v 0.200000 1.200000 1.000000
v 0.000000 3.000000 1.000000
v 0.200000 0.800000 1.000000
v 2.000000 3.000000 1.000000
v 1.800000 2.800000 1.000000
v 1.800000 1.200000 1.000000
v 1.100000 2.800000 1.000000
v 0.900000 1.200000 1.000000
v 1.100000 1.200000 1.000000
v 1.100000 2.800000 1.000000
v 0.900000 2.800000 1.000000
v 0.900000 1.200000 1.000000
v 0.200000 2.800000 1.000000
v 0.000000 3.000000 1.000000
v 0.200000 1.200000 1.000000
v 2.000000 3.000000 1.000000
v 1.100000 2.800000 1.000000
v 1.800000 2.800000 1.000000
v 2.000000 3.000000 1.000000
v 0.900000 2.800000 1.000000
v 1.100000 2.800000 1.000000
v 0.200000 2.800000 1.000000
v 0.900000 2.800000 1.000000
v 0.000000 3.000000 1.000000
v 0.900000 0.800000 1.000000
v 0.900000 1.200000 1.000000
v 0.200000 0.800000 1.000000
v 0.900000 -0.800000 0.700000
v 0.200000 -0.800000 0.700000
v 0.200000 -0.800000 0.800000
v 0.900000 -0.800000 0.800000
v 1.100000 2.800000 0.700000
v 1.800000 2.800000 0.700000
v 1.800000 2.800000 0.800000
v 1.100000 2.800000 0.800000
v 0.200000 0.800000 0.700000
v 0.900000 0.800000 0.700000
v 0.900000 0.800000 0.800000
v 0.200000 0.800000 0.800000
v 1.800000 2.800000 0.700000
v 1.800000 1.200000 0.700000
v 1.800000 1.200000 0.800000
v 1.800000 2.800000 0.800000
v 0.200000 1.200000 0.700000
v 0.200000 2.800000 0.700000
v 0.200000 2.800000 0.800000
v 0.200000 1.200000 0.800000
v 0.900000 0.800000 0.700000
v 0.900000 -0.800000 0.700000
v 0.900000 -0.800000 0.800000
v 0.900000 0.800000 0.800000
v 1.100000 -0.800000 0.700000
v 1.100000 0.800000 0.700000
v 1.100000 0.800000 0.800000
v 1.100000 -0.800000 0.800000
v 0.900000 1.200000 0.700000
v 0.200000 1.200000 0.700000
v 0.200000 1.200000 0.800000
v 0.900000 1.200000 0.800000
v 1.800000 -0.800000 0.700000
v 1.100000 -0.800000 0.700000
v 1.100000 -0.800000 0.800000
v 1.800000 -0.800000 0.800000
v 0.200000 2.800000 0.700000
v 0.900000 2.800000 0.700000
v 0.900000 2.800000 0.800000
v 0.200000 2.800000 0.800000
v 1.100000 0.800000 0.700000
v 1.800000 0.800000 0.700000
v 1.800000 0.800000 0.800000
v 1.100000 0.800000 0.800000
v 0.900000 2.800000 0.700000
v 0.900000 1.200000 0.700000
v 0.900000 1.200000 0.800000
v 0.900000 2.800000 0.800000
v 1.800000 0.800000 0.700000
v 1.800000 -0.800000 0.700000
v 1.800000 -0.800000 0.800000
v 1.800000 0.800000 0.800000
v 1.100000 1.200000 0.700000
v 1.100000 2.800000 0.700000
v 1.100000 2.800000 0.800000
v 1.100000 1.200000 0.800000
v 0.200000 2.800000 0.800000
v 0.900000 2.800000 0.800000
v 0.900000 1.200000 0.800000
v 0.200000 1.200000 0.800000
v 1.100000 2.800000 0.800000
v 1.800000 2.800000 0.800000
v 1.800000 1.200000 0.800000
v 1.100000 1.200000 0.800000
v 0.200000 0.800000 0.800000
v 0.900000 0.800000 0.800000
v 0.900000 -0.800000 0.800000
v 0.200000 -0.800000 0.800000
v 1.100000 0.800000 0.800000
v 1.800000 0.800000 0.800000
v 1.800000 -0.800000 0.800000
v 1.100000 -0.800000 0.800000
v 1.800000 -0.800000 0.700000
v 1.800000 0.800000 0.700000
v 2.000000 -1.000000 0.700000
v -0.000000 -1.000000 0.700000
v 1.100000 -0.800000 0.700000
v 2.000000 -1.000000 0.700000
v -0.000000 3.000000 0.700000
v 2.000000 3.000000 0.700000
v 0.900000 2.800000 0.700000
v 1.100000 -0.800000 0.700000
v -0.000000 -1.000000 0.700000
v 0.900000 -0.800000 0.700000
v 0.900000 -0.800000 0.700000
v -0.000000 -1.000000 0.700000
v 0.200000 -0.800000 0.700000
v -0.000000 3.000000 0.700000
v 0.200000 0.800000 0.700000
v -0.000000 -1.000000 0.700000
v 1.100000 -0.800000 0.700000
v 1.800000 -0.800000 0.700000
v 2.000000 -1.000000 0.700000
v 1.100000 0.800000 0.700000
v 1.100000 -0.800000 0.700000
v 0.900000 -0.800000 0.700000
v 1.100000 0.800000 0.700000
v 0.900000 -0.800000 0.700000
v 0.900000 0.800000 0.700000
v 1.800000 0.800000 0.700000
v 2.000000 3.000000 0.700000
v 2.000000 -1.000000 0.700000
v 2.000000 3.000000 0.700000
v 1.800000 0.800000 0.700000
v 1.800000 1.200000 0.700000
v 1.800000 1.200000 0.700000
v 1.800000 0.800000 0.700000
v 1.100000 0.800000 0.700000
v 0.900000 0.800000 0.700000
v 1.100000 1.200000 0.700000
v 1.100000 0.800000 0.700000
v 0.200000 0.800000 0.700000
v 0.200000 -0.800000 0.700000
v -0.000000 -1.000000 0.700000
v 1.100000 1.200000 0.700000
v 1.800000 1.200000 0.700000
v 1.100000 0.800000 0.700000
v 1.100000 1.200000 0.700000
v 0.900000 0.800000 0.700000
v 0.900000 1.200000 0.700000
v 0.900000 1.200000 0.700000
v 0.200000 0.800000 0.700000
v 0.200000 1.200000 0.700000
v 0.200000 1.200000 0.700000
v 0.200000 0.800000 0.700000
v -0.000000 3.000000 0.700000
v 2.000000 3.000000 0.700000
v 1.800000 1.200000 0.700000
v 1.800000 2.800000 0.700000
v 1.100000 2.800000 0.700000
v 1.100000 1.200000 0.700000
v 0.900000 1.200000 0.700000
v 1.100000 2.800000 0.700000
v 0.900000 1.200000 0.700000
v 0.900000 2.800000 0.700000
v 0.200000 2.800000 0.700000
v 0.200000 1.200000 0.700000
v -0.000000 3.000000 0.700000
v 2.000000 3.000000 0.700000
v 1.800000 2.800000 0.700000
v 1.100000 2.800000 0.700000
v 2.000000 3.000000 0.700000
v 1.100000 2.800000 0.700000
v 0.900000 2.800000 0.700000
v 0.200000 2.800000 0.700000
v -0.000000 3.000000 0.700000
v 0.900000 2.800000 0.700000
v 0.900000 0.800000 0.700000
v 0.200000 0.800000 0.700000
v 0.900000 1.200000 0.700000

vt 0.667775 0.666825
vt 0.717680 0.666825
vt 0.667775 0.999527
vt 0.717680 0.666825
vt 0.717680 0.999527
vt 0.667775 0.999527
vt 0.000474 0.716731
vt 0.000474 0.666825
vt 0.665876 0.716731
vt 0.000474 0.666825
vt 0.665876 0.666826
vt 0.665876 0.716731
vt 0.235261 0.767584
vt 0.235261 0.717679
vt 0.567963 0.767584
vt 0.235261 0.717679
vt 0.567963 0.717679
vt 0.567963 0.767584
vt 0.667775 0.000474
vt 0.717680 0.000474
vt 0.667775 0.665876
vt 0.717680 0.000474
vt 0.717680 0.665876
vt 0.667775 0.665876
vt 0.940573 0.801802
vt 0.923938 0.918247
vt 0.923938 0.801802
vt 0.940573 0.918247
vt 0.923938 0.918247
vt 0.940573 0.801802
vt 0.970051 0.000474
vt 0.953416 0.266634
vt 0.953416 0.000474
vt 0.970051 0.266634
vt 0.953416 0.266634
vt 0.970051 0.000474
vt 0.603129 0.717679
vt 0.586494 0.983839
vt 0.603129 0.983839
vt 0.586494 0.717679
vt 0.586494 0.983839
vt 0.603129 0.717679
vt 0.536588 0.768532
vt 0.519953 0.884977
vt 0.536588 0.884977
vt 0.519953 0.768532
vt 0.519953 0.884977
vt 0.536588 0.768532
vt 0.835074 0.836020
vt 0.718628 0.819385
vt 0.718628 0.836020
vt 0.835074 0.819385
vt 0.718628 0.819385
vt 0.835074 0.836020
vt 0.718628 0.872134
vt 0.835074 0.888770
vt 0.835074 0.872134
vt 0.718628 0.888769
vt 0.835074 0.888770
vt 0.718628 0.872134
vt 0.718628 0.836968
vt 0.835074 0.853603
vt 0.835074 0.836968
vt 0.718628 0.853603
vt 0.835074 0.853603
vt 0.718628 0.836968
vt 0.621661 0.983839
vt 0.638296 0.717679
vt 0.621661 0.717679
vt 0.638296 0.983839
vt 0.638296 0.717679
vt 0.621661 0.983839
vt 0.970051 0.534692
vt 0.953416 0.800853
vt 0.970051 0.800853
vt 0.953416 0.534692
vt 0.953416 0.800853
vt 0.970051 0.534692
vt 0.235261 0.838865
vt 0.501422 0.855500
vt 0.501422 0.838865
vt 0.235261 0.855500
vt 0.501422 0.855500
vt 0.235261 0.838865
vt 0.235261 0.768532
vt 0.501422 0.785167
vt 0.501422 0.768532
vt 0.235261 0.785167
vt 0.501422 0.785167
vt 0.235261 0.768532
vt 0.958156 0.801802
vt 0.941521 0.918247
vt 0.958156 0.918247
vt 0.941521 0.801802
vt 0.941521 0.918247
vt 0.958156 0.801802
vt 0.519005 0.768532
vt 0.502370 0.884978
vt 0.519005 0.884978
vt 0.502370 0.768532
vt 0.502370 0.884978
vt 0.519005 0.768532
vt 0.718628 0.854551
vt 0.835074 0.871186
vt 0.835074 0.854551
vt 0.718628 0.871186
vt 0.835074 0.871186
vt 0.718628 0.854551
vt 0.718628 0.801802
vt 0.835074 0.818437
vt 0.835074 0.801802
vt 0.718628 0.818437
vt 0.835074 0.818437
vt 0.718628 0.801802
vt 0.604077 0.983839
vt 0.620712 0.717679
vt 0.604077 0.717679
vt 0.620712 0.983839
vt 0.620712 0.717679
vt 0.604077 0.983839
vt 0.585546 0.717679
vt 0.568911 0.983839
vt 0.585546 0.983839
vt 0.568911 0.717679
vt 0.568911 0.983839
vt 0.585546 0.717679
vt 0.970051 0.267583
vt 0.953416 0.533744
vt 0.970051 0.533744
vt 0.953416 0.267583
vt 0.953416 0.533744
vt 0.970051 0.267583
vt 0.835074 0.266635
vt 0.718628 0.000474
vt 0.718628 0.266635
vt 0.835074 0.000474
vt 0.718628 0.000474
vt 0.835074 0.266635
vt 0.952468 0.266635
vt 0.836022 0.000474
vt 0.836022 0.266635
vt 0.952468 0.000474
vt 0.836022 0.000474
vt 0.952468 0.266635
vt 0.952468 0.800854
vt 0.836022 0.534692
vt 0.836022 0.800854
vt 0.952468 0.534692
vt 0.836022 0.534692
vt 0.952468 0.800854
vt 0.116920 0.983840
vt 0.000474 0.717679
vt 0.000474 0.983840
vt 0.116920 0.717679
vt 0.000474 0.717679
vt 0.116920 0.983840
vt 0.367396 0.299904
vt 0.367396 0.033744
vt 0.334127 0.000474
vt 0.483841 0.033744
vt 0.666827 0.000474
vt 0.334127 0.000474
vt 0.334125 0.665877
vt 0.666827 0.665876
vt 0.517111 0.632606
vt 0.666827 0.000474
vt 0.483841 0.033744
vt 0.517111 0.033744
vt 0.666827 0.000474
vt 0.517111 0.033744
vt 0.633557 0.033744
vt 0.633557 0.299904
vt 0.666827 0.665876
vt 0.666827 0.000474
vt 0.367396 0.033744
vt 0.483841 0.033744
vt 0.334127 0.000474
vt 0.483841 0.033744
vt 0.483841 0.299904
vt 0.517111 0.033744
vt 0.517111 0.033744
vt 0.483841 0.299904
vt 0.517111 0.299904
vt 0.334125 0.665877
vt 0.367396 0.299904
vt 0.334127 0.000474
vt 0.367396 0.299904
vt 0.334125 0.665877
vt 0.367396 0.366444
vt 0.367396 0.299904
vt 0.367396 0.366444
vt 0.483841 0.299904
vt 0.483841 0.366445
vt 0.517111 0.299904
vt 0.483841 0.299904
vt 0.633557 0.033744
vt 0.633557 0.299904
vt 0.666827 0.000474
vt 0.367396 0.366444
vt 0.483841 0.366445
vt 0.483841 0.299904
vt 0.517111 0.299904
vt 0.483841 0.366445
vt 0.517111 0.366445
vt 0.633557 0.299904
vt 0.517111 0.366445
vt 0.633557 0.366445
vt 0.633557 0.299904
vt 0.633557 0.366445
vt 0.666827 0.665876
vt 0.367396 0.366444
vt 0.334125 0.665877
vt 0.367395 0.632607
vt 0.483841 0.366445
vt 0.483842 0.632606
vt 0.517111 0.366445
vt 0.517111 0.366445
vt 0.483842 0.632606
vt 0.517111 0.632606
vt 0.633557 0.366445
vt 0.633557 0.632606
vt 0.666827 0.665876
vt 0.367395 0.632607
vt 0.334125 0.665877
vt 0.483842 0.632606
vt 0.483842 0.632606
vt 0.334125 0.665877
vt 0.517111 0.632606
vt 0.666827 0.665876
vt 0.633557 0.632606
vt 0.517111 0.632606
vt 0.633557 0.299904
vt 0.517111 0.299904
vt 0.517111 0.366445
vt 0.905407 0.801802
vt 0.888772 0.918247
vt 0.888772 0.801802
vt 0.905407 0.918247
vt 0.888772 0.918247
vt 0.905407 0.801802
vt 0.537536 0.884978
vt 0.554171 0.768532
vt 0.554171 0.884978
vt 0.537536 0.768532
vt 0.554171 0.768532
vt 0.537536 0.884978
vt 0.718628 0.889718
vt 0.835074 0.906353
vt 0.718628 0.906353
vt 0.835074 0.889718
vt 0.835074 0.906353
vt 0.718628 0.889718
vt 0.639244 0.983839
vt 0.655879 0.717679
vt 0.655879 0.983839
vt 0.639244 0.717679
vt 0.655879 0.717679
vt 0.639244 0.983839
vt 0.235261 0.856449
vt 0.501422 0.873084
vt 0.235261 0.873084
vt 0.501422 0.856448
vt 0.501422 0.873084
vt 0.235261 0.856449
vt 0.235261 0.786115
vt 0.501422 0.802751
vt 0.235261 0.802750
vt 0.501422 0.786115
vt 0.501422 0.802751
vt 0.235261 0.786115
vt 0.235261 0.821282
vt 0.501422 0.837917
vt 0.235261 0.837917
vt 0.501422 0.821282
vt 0.501422 0.837917
vt 0.235261 0.821282
vt 0.870240 0.801802
vt 0.853605 0.918247
vt 0.853605 0.801802
vt 0.870240 0.918247
vt 0.853605 0.918247
vt 0.870240 0.801802
vt 0.887824 0.801802
vt 0.871188 0.918247
vt 0.871188 0.801802
vt 0.887824 0.918247
vt 0.871188 0.918247
vt 0.887824 0.801802
vt 0.922990 0.801802
vt 0.906355 0.918247
vt 0.906355 0.801802
vt 0.922990 0.918247
vt 0.906355 0.918247
vt 0.922990 0.801802
vt 0.836022 0.918247
vt 0.852657 0.801802
vt 0.852657 0.918247
vt 0.836022 0.801802
vt 0.852657 0.801802
vt 0.836022 0.918247
vt 0.970999 0.266634
vt 0.987634 0.000474
vt 0.987634 0.266634
vt 0.970999 0.000474
vt 0.987634 0.000474
vt 0.970999 0.266634
vt 0.235261 0.803699
vt 0.501422 0.820334
vt 0.235261 0.820334
vt 0.501422 0.803699
vt 0.501422 0.820334
vt 0.235261 0.803699
vt 0.235261 0.874032
vt 0.501422 0.890667
vt 0.235261 0.890667
vt 0.501422 0.874032
vt 0.501422 0.890667
vt 0.235261 0.874032
vt 0.234313 0.983840
vt 0.117868 0.717679
vt 0.234313 0.717679
vt 0.117868 0.983840
vt 0.117868 0.717679
vt 0.234313 0.983840
vt 0.835074 0.800854
vt 0.718628 0.534692
vt 0.835074 0.534692
vt 0.718628 0.800854
vt 0.718628 0.534692
vt 0.835074 0.800854
vt 0.952468 0.533744
vt 0.836022 0.267583
vt 0.952468 0.267583
vt 0.836022 0.533744
vt 0.836022 0.267583
vt 0.952468 0.533744
vt 0.835074 0.533744
vt 0.718628 0.267583
vt 0.835074 0.267583
vt 0.718628 0.533744
vt 0.718628 0.267583
vt 0.835074 0.533744
vt 0.000476 0.000474
vt 0.033746 0.033744
vt 0.033745 0.299905
vt 0.000476 0.000474
vt 0.333176 0.000474
vt 0.150191 0.033744
vt 0.183461 0.632606
vt 0.333176 0.665876
vt 0.000474 0.665877
vt 0.183461 0.033744
vt 0.150191 0.033744
vt 0.333176 0.000474
vt 0.299906 0.033744
vt 0.183461 0.033744
vt 0.333176 0.000474
vt 0.333176 0.000474
vt 0.333176 0.665876
vt 0.299906 0.299904
vt 0.000476 0.000474
vt 0.150191 0.033744
vt 0.033746 0.033744
vt 0.183461 0.033744
vt 0.150191 0.299904
vt 0.150191 0.033744
vt 0.183461 0.299904
vt 0.150191 0.299904
vt 0.183461 0.033744
vt 0.000476 0.000474
vt 0.033745 0.299905
vt 0.000474 0.665877
vt 0.033745 0.366444
vt 0.000474 0.665877
vt 0.033745 0.299905
vt 0.150191 0.299904
vt 0.033745 0.366444
vt 0.033745 0.299905
vt 0.150191 0.299904
vt 0.183461 0.299904
vt 0.150190 0.366445
vt 0.333176 0.000474
vt 0.299906 0.299904
vt 0.299906 0.033744
vt 0.150191 0.299904
vt 0.150190 0.366445
vt 0.033745 0.366444
vt 0.183461 0.366445
vt 0.150190 0.366445
vt 0.183461 0.299904
vt 0.299906 0.366445
vt 0.183461 0.366445
vt 0.299906 0.299904
vt 0.333176 0.665876
vt 0.299906 0.366445
vt 0.299906 0.299904
vt 0.033745 0.632607
vt 0.000474 0.665877
vt 0.033745 0.366444
vt 0.183461 0.366445
vt 0.150191 0.632606
vt 0.150190 0.366445
vt 0.183461 0.632606
vt 0.150191 0.632606
vt 0.183461 0.366445
vt 0.333176 0.665876
vt 0.299906 0.632606
vt 0.299906 0.366445
vt 0.150191 0.632606
vt 0.000474 0.665877
vt 0.033745 0.632607
vt 0.183461 0.632606
vt 0.000474 0.665877
vt 0.150191 0.632606
vt 0.183461 0.632606
vt 0.299906 0.632606
vt 0.333176 0.665876
vt 0.183461 0.366445
vt 0.183461 0.299904
vt 0.299906 0.299904
vt 0.532483 0.306497
vt 0.532484 0.080510
vt 0.612859 0.306497
vt 0.532484 0.080510
vt 0.612859 0.080510
vt 0.612859 0.306497
vt 0.532484 0.080510
vt 0.306497 0.080510
vt 0.532484 0.000134
vt 0.306497 0.080510
vt 0.306497 0.000134
vt 0.532484 0.000134
vt 0.306497 0.080510
vt 0.306497 0.306497
vt 0.226121 0.080510
vt 0.306497 0.306497
vt 0.226121 0.306497
vt 0.226121 0.080510
vt 0.306497 0.306497
vt 0.532483 0.306497
vt 0.306497 0.386872
vt 0.532483 0.306497
vt 0.532483 0.386872
vt 0.306497 0.386872
vt 0.226121 0.080510
vt 0.226121 0.306497
vt 0.000134 0.080510
vt 0.226121 0.306497
vt 0.000134 0.306497
vt 0.000134 0.080510
vt 0.532484 0.080510
vt 0.532483 0.306497
vt 0.306497 0.080510
vt 0.532483 0.306497
vt 0.306497 0.306497
vt 0.306497 0.080510
vt 0.000134 0.467517
vt 0.080510 0.693503
vt 0.080510 0.467517
vt 0.000134 0.467517
vt 0.000134 0.693503
vt 0.080510 0.693503
vt 0.306497 0.387141
vt 0.080510 0.467517
vt 0.306497 0.467517
vt 0.306497 0.387141
vt 0.080510 0.387141
vt 0.080510 0.467517
vt 0.613128 0.226121
vt 0.688456 0.226121
vt 0.613128 0.339115
vt 0.688456 0.226121
vt 0.688456 0.339115
vt 0.613128 0.339115
vt 0.613128 0.339115
vt 0.688456 0.339115
vt 0.613128 0.452108
vt 0.688456 0.339115
vt 0.688456 0.452108
vt 0.613128 0.452108
vt 0.613128 0.113128
vt 0.688455 0.113128
vt 0.613128 0.226121
vt 0.688455 0.113128
vt 0.688456 0.226121
vt 0.613128 0.226121
vt 0.613128 0.000134
vt 0.688456 0.000134
vt 0.613128 0.113128
vt 0.688456 0.000134
vt 0.688455 0.113128
vt 0.613128 0.113128
vt 0.080510 0.773879
vt 0.306497 0.693503
vt 0.080510 0.693503
vt 0.080510 0.773879
vt 0.306497 0.773879
vt 0.306497 0.693503
vt 0.386872 0.693503
vt 0.306497 0.467517
vt 0.306497 0.693503
vt 0.386872 0.693503
vt 0.386872 0.467517
vt 0.306497 0.467517
vt 0.080510 0.999866
vt 0.306497 0.773879
vt 0.080510 0.773879
vt 0.080510 0.999866
vt 0.306497 0.999866
vt 0.306497 0.773879
vt 0.080510 0.693503
vt 0.306497 0.467517
vt 0.080510 0.467517
vt 0.080510 0.693503
vt 0.306497 0.693503
vt 0.306497 0.467517
vt 0.688724 0.339115
vt 0.764052 0.226121
vt 0.688724 0.226121
vt 0.688724 0.339115
vt 0.764052 0.339115
vt 0.764052 0.226121
vt 0.688724 0.452108
vt 0.764052 0.339115
vt 0.688724 0.339115
vt 0.688724 0.452108
vt 0.764052 0.452108
vt 0.764052 0.339115
vt 0.688724 0.226121
vt 0.764052 0.113128
vt 0.688724 0.113128
vt 0.688724 0.226121
vt 0.764052 0.226121
vt 0.764052 0.113128
vt 0.688724 0.113128
vt 0.764052 0.000134
vt 0.688724 0.000134
vt 0.688724 0.113128
vt 0.764052 0.113128
vt 0.764052 0.000134

vn -0.000000 1.000000 0.000000
vn -0.000000 1.000000 0.000000
vn -0.000000 1.000000 0.000000
vn -0.000000 1.000000 0.000000
vn -0.000000 1.000000 0.000000
vn -0.000000 1.000000 0.000000
vn -1.000000 0.000000 0.000000
vn -1.000000 0.000000 0.000000
vn -1.000000 0.000000 0.000000
vn -1.000000 0.000000 0.000000
vn -1.000000 0.000000 0.000000
vn -1.000000 0.000000 0.000000
vn -0.000000 -1.000000 0.000000
vn -0.000000 -1.000000 0.000000
vn -0.000000 -1.000000 0.000000
vn -0.000000 -1.000000 0.000000
vn -0.000000 -1.000000 0.000000
vn -0.000000 -1.000000 0.000000
vn 1.000000 0.000000 0.000000
vn 1.000000 0.000000 0.000000
vn 1.000000 0.000000 0.000000
vn 1.000000 0.000000 0.000000
vn 1.000000 0.000000 0.000000
vn 1.000000 0.000000 0.000000
vn 0.000000 1.000000 0.000000
vn 0.000000 1.000000 0.000000
vn 0.000000 1.000000 0.000000
vn -0.000000 1.000000 0.000000
vn -0.000000 1.000000 0.000000
vn -0.000000 1.000000 0.000000
vn 1.000000 0.000000 0.000000
vn 1.000000 0.000000 0.000000
vn 1.000000 0.000000 0.000000
vn 1.000000 0.000000 0.000000
vn 1.000000 0.000000 0.000000
vn 1.000000 0.000000 0.000000
vn 1.000000 0.000000 0.000000
vn 1.000000 0.000000 0.000000
vn 1.000000 0.000000 0.000000
vn 1.000000 0.000000 0.000000
vn 1.000000 0.000000 0.000000
vn 1.000000 0.000000 0.000000
vn -0.000000 1.000000 0.000000
vn -0.000000 1.000000 0.000000
vn -0.000000 1.000000 0.000000
vn -0.000000 1.000000 0.000000
vn -0.000000 1.000000 0.000000
vn -0.000000 1.000000 0.000000
vn -0.000000 1.000000 0.000000
vn -0.000000 1.000000 0.000000
vn -0.000000 1.000000 0.000000
vn -0.000000 1.000000 0.000000
vn -0.000000 1.000000 0.000000
vn -0.000000 1.000000 0.000000
vn -0.000000 -1.000000 0.000000
vn -0.000000 -1.000000 0.000000
vn -0.000000 -1.000000 0.000000
vn -0.000000 -1.000000 0.000000
vn -0.000000 -1.000000 0.000000
vn -0.000000 -1.000000 0.000000
vn 0.000000 -1.000000 0.000000
vn 0.000000 -1.000000 0.000000
vn 0.000000 -1.000000 0.000000
vn -0.000000 -1.000000 0.000000
vn -0.000000 -1.000000 0.000000
vn -0.000000 -1.000000 0.000000
vn -1.000000 0.000000 0.000000
vn -1.000000 0.000000 0.000000
vn -1.000000 0.000000 0.000000
vn -1.000000 0.000000 0.000000
vn -1.000000 0.000000 0.000000
vn -1.000000 0.000000 0.000000
vn 1.000000 0.000000 0.000000
vn 1.000000 0.000000 0.000000
vn 1.000000 0.000000 0.000000
vn 1.000000 0.000000 0.000000
vn 1.000000 0.000000 0.000000
vn 1.000000 0.000000 0.000000
vn -1.000000 0.000000 0.000000
vn -1.000000 0.000000 0.000000
vn -1.000000 0.000000 0.000000
vn -1.000000 0.000000 0.000000
vn -1.000000 0.000000 0.000000
vn -1.000000 0.000000 0.000000
vn 1.000000 0.000000 0.000000
vn 1.000000 0.000000 0.000000
vn 1.000000 0.000000 0.000000
vn 1.000000 0.000000 0.000000
vn 1.000000 0.000000 0.000000
vn 1.000000 0.000000 0.000000
vn -0.000000 1.000000 0.000000
vn -0.000000 1.000000 0.000000
vn -0.000000 1.000000 0.000000
vn -0.000000 1.000000 0.000000
vn -0.000000 1.000000 0.000000
vn -0.000000 1.000000 0.000000
vn -0.000000 1.000000 0.000000
vn -0.000000 1.000000 0.000000
vn -0.000000 1.000000 0.000000
vn -0.000000 1.000000 0.000000
vn -0.000000 1.000000 0.000000
vn -0.000000 1.000000 0.000000
vn -0.000000 -1.000000 0.000000
vn -0.000000 -1.000000 0.000000
vn -0.000000 -1.000000 0.000000
vn -0.000000 -1.000000 0.000000
vn -0.000000 -1.000000 0.000000
vn -0.000000 -1.000000 0.000000
vn 0.000000 -1.000000 0.000000
vn 0.000000 -1.000000 0.000000
vn 0.000000 -1.000000 0.000000
vn -0.000000 -1.000000 0.000000
vn -0.000000 -1.000000 0.000000
vn -0.000000 -1.000000 0.000000
vn -1.000000 0.000000 0.000000
vn -1.000000 0.000000 0.000000
vn -1.000000 0.000000 0.000000
vn -1.000000 0.000000 0.000000
vn -1.000000 0.000000 0.000000
vn -1.000000 0.000000 0.000000
vn -1.000000 0.000000 0.000000
vn -1.000000 0.000000 0.000000
vn -1.000000 0.000000 0.000000
vn -1.000000 0.000000 0.000000
vn -1.000000 0.000000 0.000000
vn -1.000000 0.000000 0.000000
vn 1.000000 0.000000 0.000000
vn 1.000000 0.000000 0.000000
vn 1.000000 0.000000 0.000000
vn 1.000000 0.000000 0.000000
vn 1.000000 0.000000 0.000000
vn 1.000000 0.000000 0.000000
vn 0.000000 0.000000 1.000000
vn 0.000000 0.000000 1.000000
vn 0.000000 0.000000 1.000000
vn 0.000000 0.000000 1.000000
vn 0.000000 0.000000 1.000000
vn 0.000000 0.000000 1.000000
vn 0.000000 0.000000 1.000000
vn 0.000000 0.000000 1.000000
vn 0.000000 0.000000 1.000000
vn 0.000000 0.000000 1.000000
vn 0.000000 0.000000 1.000000
vn 0.000000 0.000000 1.000000
vn 0.000000 0.000000 1.000000
vn 0.000000 0.000000 1.000000
vn 0.000000 0.000000 1.000000
vn 0.000000 0.000000 1.000000
vn 0.000000 0.000000 1.000000
vn 0.000000 0.000000 1.000000
vn 0.000000 0.000000 1.000000
vn 0.000000 0.000000 1.000000
vn 0.000000 0.000000 1.000000
vn 0.000000 0.000000 1.000000
vn 0.000000 0.000000 1.000000
vn 0.000000 0.000000 1.000000
vn -0.000000 0.000000 1.000000
vn -0.000000 0.000000 1.000000
vn -0.000000 0.000000 1.000000
vn 0.000000 0.000000 1.000000
vn 0.000000 0.000000 1.000000
vn 0.000000 0.000000 1.000000
vn 0.000000 0.000001 1.000000
vn 0.000000 0.000001 1.000000
vn 0.000000 0.000001 1.000000
vn 0.000000 -0.000004 1.000000
vn 0.000000 -0.000004 1.000000
vn 0.000000 -0.000004 1.000000
vn 0.000000 0.000000 1.000000
vn 0.000000 0.000000 1.000000
vn 0.000000 0.000000 1.000000
vn -0.000000 0.000000 1.000000
vn -0.000000 0.000000 1.000000
vn -0.000000 0.000000 1.000000
vn 0.000000 0.000000 1.000000
vn 0.000000 0.000000 1.000000
vn 0.000000 0.000000 1.000000
vn 0.000000 0.000000 1.000000
vn 0.000000 0.000000 1.000000
vn 0.000000 0.000000 1.000000
vn 0.000000 0.000000 1.000000
vn 0.000000 0.000000 1.000000
vn 0.000000 0.000000 1.000000
vn -0.000000 0.000000 1.000000
vn -0.000000 0.000000 1.000000
vn -0.000000 0.000000 1.000000
vn -0.000000 0.000000 1.000000
vn -0.000000 0.000000 1.000000
vn -0.000000 0.000000 1.000000
vn 0.000000 0.000000 1.000000
vn 0.000000 0.000000 1.000000
vn 0.000000 0.000000 1.000000
vn 0.000000 0.000000 1.000000
vn 0.000000 0.000000 1.000000
vn 0.000000 0.000000 1.000000
vn -0.000000 0.000000 1.000000
vn -0.000000 0.000000 1.000000
vn -0.000000 0.000000 1.000000
vn 0.000000 0.000000 1.000000
vn 0.000000 0.000000 1.000000
vn 0.000000 0.000000 1.000000
vn 0.000000 0.000000 1.000000
vn 0.000000 0.000000 1.000000
vn 0.000000 0.000000 1.000000
vn 0.000000 0.000000 1.000000
vn 0.000000 0.000000 1.000000
vn 0.000000 0.000000 1.000000
vn -0.000000 0.000000 1.000000
vn -0.000000 0.000000 1.000000
vn -0.000000 0.000000 1.000000
vn -0.000000 0.000000 1.000000
vn -0.000000 0.000000 1.000000
vn -0.000000 0.000000 1.000000
vn 0.000000 0.000000 1.000000
vn 0.000000 0.000000 1.000000
vn 0.000000 0.000000 1.000000
vn 0.000000 0.000000 1.000000
vn 0.000000 0.000000 1.000000
vn 0.000000 0.000000 1.000000
vn -0.000000 0.000000 1.000000
vn -0.000000 0.000000 1.000000
vn -0.000000 0.000000 1.000000
vn 0.000000 0.000000 1.000000
vn 0.000000 0.000000 1.000000
vn 0.000000 0.000000 1.000000
vn 0.000000 0.000000 1.000000
vn 0.000000 0.000000 1.000000
vn 0.000000 0.000000 1.000000
vn 0.000000 0.000000 1.000000
vn 0.000000 0.000000 1.000000
vn 0.000000 0.000000 1.000000
vn 0.000000 -0.000000 1.000000
vn 0.000000 -0.000000 1.000000
vn 0.000000 -0.000000 1.000000
vn 0.000000 1.000000 0.000000
vn 0.000000 1.000000 0.000000
vn 0.000000 1.000000 0.000000
vn -0.000000 1.000000 0.000000
vn -0.000000 1.000000 0.000000
vn -0.000000 1.000000 0.000000
vn 0.000000 -1.000000 0.000000
vn 0.000000 -1.000000 0.000000
vn 0.000000 -1.000000 0.000000
vn -0.000000 -1.000000 0.000000
vn -0.000000 -1.000000 0.000000
vn -0.000000 -1.000000 0.000000
vn -0.000000 -1.000000 0.000000
vn -0.000000 -1.000000 0.000000
vn -0.000000 -1.000000 0.000000
vn -0.000000 -1.000000 0.000000
vn -0.000000 -1.000000 0.000000
vn -0.000000 -1.000000 0.000000
vn -1.000000 0.000000 0.000000
vn -1.000000 0.000000 0.000000
vn -1.000000 0.000000 0.000000
vn -1.000000 0.000000 0.000000
vn -1.000000 0.000000 0.000000
vn -1.000000 0.000000 0.000000
vn 1.000000 0.000000 0.000000
vn 1.000000 0.000000 0.000000
vn 1.000000 0.000000 0.000000
vn 1.000000 0.000000 0.000000
vn 1.000000 0.000000 0.000000
vn 1.000000 0.000000 0.000000
vn -1.000000 0.000000 0.000000
vn -1.000000 0.000000 0.000000
vn -1.000000 0.000000 0.000000
vn -1.000000 0.000000 0.000000
vn -1.000000 0.000000 0.000000
vn -1.000000 0.000000 0.000000
vn 1.000000 0.000000 0.000000
vn 1.000000 0.000000 0.000000
vn 1.000000 0.000000 0.000000
vn 1.000000 0.000000 0.000000
vn 1.000000 0.000000 0.000000
vn 1.000000 0.000000 0.000000
vn 0.000000 1.000000 0.000000
vn 0.000000 1.000000 0.000000
vn 0.000000 1.000000 0.000000
vn -0.000000 1.000000 0.000000
vn -0.000000 1.000000 0.000000
vn -0.000000 1.000000 0.000000
vn 0.000000 1.000000 0.000000
vn 0.000000 1.000000 0.000000
vn 0.000000 1.000000 0.000000
vn -0.000000 1.000000 0.000000
vn -0.000000 1.000000 0.000000
vn -0.000000 1.000000 0.000000
vn 0.000000 -1.000000 0.000000
vn 0.000000 -1.000000 0.000000
vn 0.000000 -1.000000 0.000000
vn -0.000000 -1.000000 0.000000
vn -0.000000 -1.000000 0.000000
vn -0.000000 -1.000000 0.000000
vn -0.000000 -1.000000 0.000000
vn -0.000000 -1.000000 0.000000
vn -0.000000 -1.000000 0.000000
vn -0.000000 -1.000000 0.000000
vn -0.000000 -1.000000 0.000000
vn -0.000000 -1.000000 0.000000
vn -1.000000 0.000000 0.000000
vn -1.000000 0.000000 0.000000
vn -1.000000 0.000000 0.000000
vn -1.000000 0.000000 0.000000
vn -1.000000 0.000000 0.000000
vn -1.000000 0.000000 0.000000
vn -1.000000 0.000000 0.000000
vn -1.000000 0.000000 0.000000
vn -1.000000 0.000000 0.000000
vn -1.000000 0.000000 0.000000
vn -1.000000 0.000000 0.000000
vn -1.000000 0.000000 0.000000
vn 1.000000 0.000000 0.000000
vn 1.000000 0.000000 0.000000
vn 1.000000 0.000000 0.000000
vn 1.000000 0.000000 0.000000
vn 1.000000 0.000000 0.000000
vn 1.000000 0.000000 0.000000
vn -0.000000 0.000000 -1.000000
vn -0.000000 0.000000 -1.000000
vn -0.000000 0.000000 -1.000000
vn -0.000000 0.000000 -1.000000
vn -0.000000 0.000000 -1.000000
vn -0.000000 0.000000 -1.000000
vn -0.000000 0.000000 -1.000000
vn -0.000000 0.000000 -1.000000
vn -0.000000 0.000000 -1.000000
vn -0.000000 0.000000 -1.000000
vn -0.000000 0.000000 -1.000000
vn -0.000000 0.000000 -1.000000
vn -0.000000 0.000000 -1.000000
vn -0.000000 0.000000 -1.000000
vn -0.000000 0.000000 -1.000000
vn -0.000000 0.000000 -1.000000
vn -0.000000 0.000000 -1.000000
vn -0.000000 0.000000 -1.000000
vn -0.000000 0.000000 -1.000000
vn -0.000000 0.000000 -1.000000
vn -0.000000 0.000000 -1.000000
vn -0.000000 0.000000 -1.000000
vn -0.000000 0.000000 -1.000000
vn -0.000000 0.000000 -1.000000
vn 0.000001 0.000000 -1.000000
vn 0.000001 0.000000 -1.000000
vn 0.000001 0.000000 -1.000000
vn -0.000000 -0.000001 -1.000000
vn -0.000000 -0.000001 -1.000000
vn -0.000000 -0.000001 -1.000000
vn -0.000000 0.000000 -1.000000
vn -0.000000 0.000000 -1.000000
vn -0.000000 0.000000 -1.000000
vn -0.000000 -0.000003 -1.000000
vn -0.000000 -0.000003 -1.000000
vn -0.000000 -0.000003 -1.000000
vn -0.000000 0.000001 -1.000000
vn -0.000000 0.000001 -1.000000
vn -0.000000 0.000001 -1.000000
vn -0.000001 0.000000 -1.000000
vn -0.000001 0.000000 -1.000000
vn -0.000001 0.000000 -1.000000
vn -0.000000 0.000000 -1.000000
vn -0.000000 0.000000 -1.000000
vn -0.000000 0.000000 -1.000000
vn -0.000000 0.000000 -1.000000
vn -0.000000 0.000000 -1.000000
vn -0.000000 0.000000 -1.000000
vn -0.000000 0.000000 -1.000000
vn -0.000000 0.000000 -1.000000
vn -0.000000 0.000000 -1.000000
vn 0.000001 0.000000 -1.000000
vn 0.000001 0.000000 -1.000000
vn 0.000001 0.000000 -1.000000
vn 0.000001 0.000000 -1.000000
vn 0.000001 0.000000 -1.000000
vn 0.000001 0.000000 -1.000000
vn -0.000000 0.000000 -1.000000
vn -0.000000 0.000000 -1.000000
vn -0.000000 0.000000 -1.000000
vn -0.000000 0.000000 -1.000000
vn -0.000000 0.000000 -1.000000
vn -0.000000 0.000000 -1.000000
vn -0.000001 0.000000 -1.000000
vn -0.000001 0.000000 -1.000000
vn -0.000001 0.000000 -1.000000
vn -0.000000 0.000000 -1.000000
vn -0.000000 0.000000 -1.000000
vn -0.000000 0.000000 -1.000000
vn -0.000000 0.000000 -1.000000
vn -0.000000 0.000000 -1.000000
vn -0.000000 0.000000 -1.000000
vn -0.000000 0.000000 -1.000000
vn -0.000000 0.000000 -1.000000
vn -0.000000 0.000000 -1.000000
vn -0.000001 0.000000 -1.000000
vn -0.000001 0.000000 -1.000000
vn -0.000001 0.000000 -1.000000
vn 0.000001 0.000000 -1.000000
vn 0.000001 0.000000 -1.000000
vn 0.000001 0.000000 -1.000000
vn -0.000000 0.000000 -1.000000
vn -0.000000 0.000000 -1.000000
vn -0.000000 0.000000 -1.000000
vn -0.000000 0.000000 -1.000000
vn -0.000000 0.000000 -1.000000
vn -0.000000 0.000000 -1.000000
vn -0.000001 0.000000 -1.000000
vn -0.000001 0.000000 -1.000000
vn -0.000001 0.000000 -1.000000
vn -0.000000 -0.000000 -1.000000
vn -0.000000 -0.000000 -1.000000
vn -0.000000 -0.000000 -1.000000
vn -0.000000 0.000006 -1.000000
vn -0.000000 0.000006 -1.000000
vn -0.000000 0.000006 -1.000000
vn -0.000000 -0.000001 -1.000000
vn -0.000000 -0.000001 -1.000000
vn -0.000000 -0.000001 -1.000000
vn -0.000000 0.000000 -1.000000
vn -0.000000 0.000000 -1.000000
vn -0.000000 0.000000 -1.000000
vn -0.000000 -1.000000 0.000000
vn -0.000000 -1.000000 0.000000
vn -0.000000 -1.000000 0.000000
vn -0.000000 -1.000000 0.000000
vn -0.000000 -1.000000 0.000000
vn -0.000000 -1.000000 0.000000
vn -1.000000 -0.000000 0.000000
vn -1.000000 -0.000000 0.000000
vn -1.000000 -0.000000 0.000000
vn -1.000000 -0.000000 0.000000
vn -1.000000 -0.000000 0.000000
vn -1.000000 -0.000000 0.000000
vn -0.000000 1.000000 0.000000
vn -0.000000 1.000000 0.000000
vn -0.000000 1.000000 0.000000
vn -0.000000 1.000000 0.000000
vn -0.000000 1.000000 0.000000
vn -0.000000 1.000000 0.000000
vn 1.000000 0.000000 0.000000
vn 1.000000 0.000000 0.000000
vn 1.000000 0.000000 0.000000
vn 1.000000 0.000000 0.000000
vn 1.000000 0.000000 0.000000
vn 1.000000 0.000000 0.000000
vn -0.000000 0.000000 -1.000000
vn -0.000000 0.000000 -1.000000
vn -0.000000 0.000000 -1.000000
vn -0.000000 0.000000 -1.000000
vn -0.000000 0.000000 -1.000000
vn -0.000000 0.000000 -1.000000
vn -0.000000 0.000000 1.000000
vn -0.000000 0.000000 1.000000
vn -0.000000 0.000000 1.000000
vn -0.000000 0.000000 1.000000
vn -0.000000 0.000000 1.000000
vn -0.000000 0.000000 1.000000
vn -1.000000 -0.000000 0.000000
vn -1.000000 -0.000000 0.000000
vn -1.000000 -0.000000 0.000000
vn -1.000000 -0.000000 0.000000
vn -1.000000 -0.000000 0.000000
vn -1.000000 -0.000000 0.000000
vn -0.000000 -1.000000 0.000000
vn -0.000000 -1.000000 0.000000
vn -0.000000 -1.000000 0.000000
vn -0.000000 -1.000000 0.000000
vn -0.000000 -1.000000 0.000000
vn -0.000000 -1.000000 0.000000
vn -0.000000 -1.000000 0.000000
vn -0.000000 -1.000000 0.000000
vn -0.000000 -1.000000 0.000000
vn -0.000001 -1.000000 0.000000
vn -0.000001 -1.000000 0.000000
vn -0.000001 -1.000000 0.000000
vn 1.000000 0.000000 0.000000
vn 1.000000 0.000000 0.000000
vn 1.000000 0.000000 0.000000
vn 1.000000 0.000000 0.000000
vn 1.000000 0.000000 0.000000
vn 1.000000 0.000000 0.000000
vn -1.000000 0.000000 0.000000
vn -1.000000 0.000000 0.000000
vn -1.000000 0.000000 0.000000
vn -1.000000 0.000000 0.000000
vn -1.000000 0.000000 0.000000
vn -1.000000 0.000000 0.000000
vn -0.000000 1.000000 0.000000
vn -0.000000 1.000000 0.000000
vn -0.000000 1.000000 0.000000
vn -0.000000 1.000000 0.000000
vn -0.000000 1.000000 0.000000
vn -0.000000 1.000000 0.000000
vn -0.000000 1.000000 0.000000
vn -0.000000 1.000000 0.000000
vn -0.000000 1.000000 0.000000
vn -0.000000 1.000000 0.000000
vn -0.000000 1.000000 0.000000
vn -0.000000 1.000000 0.000000
vn 1.000000 0.000000 0.000000
vn 1.000000 0.000000 0.000000
vn 1.000000 0.000000 0.000000
vn 1.000000 0.000000 0.000000
vn 1.000000 0.000000 0.000000
vn 1.000000 0.000000 0.000000
vn 0.000000 0.000000 1.000000
vn 0.000000 0.000000 1.000000
vn 0.000000 0.000000 1.000000
vn 0.000000 0.000000 1.000000
vn 0.000000 0.000000 1.000000
vn 0.000000 0.000000 1.000000
vn -0.000000 0.000000 -1.000000
vn -0.000000 0.000000 -1.000000
vn -0.000000 0.000000 -1.000000
vn -0.000000 0.000000 -1.000000
vn -0.000000 0.000000 -1.000000
vn -0.000000 0.000000 -1.000000
vn -0.000001 -1.000000 0.000000
vn -0.000001 -1.000000 0.000000
vn -0.000001 -1.000000 0.000000
vn 0.000001 -1.000000 0.000000
vn 0.000001 -1.000000 0.000000
vn 0.000001 -1.000000 0.000000
vn 1.000000 0.000000 0.000000
vn 1.000000 0.000000 0.000000
vn 1.000000 0.000000 0.000000
vn 1.000000 0.000000 0.000000
vn 1.000000 0.000000 0.000000
vn 1.000000 0.000000 0.000000
vn -1.000000 0.000000 0.000000
vn -1.000000 0.000000 0.000000
vn -1.000000 0.000000 0.000000
vn -1.000000 0.000000 0.000000
vn -1.000000 0.000000 0.000000
vn -1.000000 0.000000 0.000000
vn -0.000000 1.000000 0.000000
vn -0.000000 1.000000 0.000000
vn -0.000000 1.000000 0.000000
vn 0.000000 1.000000 0.000000
vn 0.000000 1.000000 0.000000
vn 0.000000 1.000000 0.000000

g Material.001
f 3/1/1 1/2/2 2/3/3
f 6/4/4 4/5/5 5/6/6
f 9/7/7 7/8/8 8/9/9
f 12/10/10 10/11/11 11/12/12
f 15/13/13 13/14/14 14/15/15
f 18/16/16 16/17/17 17/18/18
f 21/19/19 19/20/20 20/21/21
f 24/22/22 22/23/23 23/24/24
f 27/25/25 25/26/26 26/27/27
f 28/28/28 25/29/29 27/30/30
f 31/31/31 29/32/32 30/33/33
f 32/34/34 29/35/35 31/36/36
f 155/37/37 153/38/38 154/39/39
f 156/40/40 153/41/41 155/42/42
f 159/43/43 157/44/44 158/45/45
f 160/46/46 157/47/47 159/48/48
f 163/49/49 161/50/50 162/51/51
f 164/52/52 161/53/53 163/54/54
f 167/55/55 165/56/56 166/57/57
f 168/58/58 165/59/59 167/60/60
f 171/61/61 169/62/62 170/63/63
f 172/64/64 169/65/65 171/66/66
f 175/67/67 173/68/68 174/69/69
f 176/70/70 173/71/71 175/72/72
f 179/73/73 177/74/74 178/75/75
f 180/76/76 177/77/77 179/78/78
f 183/79/79 181/80/80 182/81/81
f 184/82/82 181/83/83 183/84/84
f 187/85/85 185/86/86 186/87/87
f 188/88/88 185/89/89 187/90/90
f 191/91/91 189/92/92 190/93/93
f 192/94/94 189/95/95 191/96/96
f 195/97/97 193/98/98 194/99/99
f 196/100/100 193/101/101 195/102/102
f 199/103/103 197/104/104 198/105/105
f 200/106/106 197/107/107 199/108/108
f 203/109/109 201/110/110 202/111/111
f 204/112/112 201/113/113 203/114/114
f 207/115/115 205/116/116 206/117/117
f 208/118/118 205/119/119 207/120/120
f 211/121/121 209/122/122 210/123/123
f 212/124/124 209/125/125 211/126/126
f 215/127/127 213/128/128 214/129/129
f 216/130/130 213/131/131 215/132/132
f 219/133/133 217/134/134 218/135/135
f 220/136/136 217/137/137 219/138/138
f 223/139/139 221/140/140 222/141/141
f 224/142/142 221/143/143 223/144/144
f 227/145/145 225/146/146 226/147/147
f 228/148/148 225/149/149 227/150/150
f 231/151/151 229/152/152 230/153/153
f 232/154/154 229/155/155 231/156/156
f 235/157/157 233/158/158 234/159/159
f 238/160/160 236/161/161 237/162/162
f 241/163/163 239/164/164 240/165/165
f 244/166/166 242/167/167 243/168/168
f 247/169/169 245/170/170 246/171/171
f 250/172/172 248/173/173 249/174/174
f 253/175/175 251/176/176 252/177/177
f 256/178/178 254/179/179 255/180/180
f 259/181/181 257/182/182 258/183/183
f 262/184/184 260/185/185 261/186/186
f 265/187/187 263/188/188 264/189/189
f 268/190/190 266/191/191 267/192/192
f 271/193/193 269/194/194 270/195/195
f 274/196/196 272/197/197 273/198/198
f 277/199/199 275/200/200 276/201/201
f 280/202/202 278/203/203 279/204/204
f 283/205/205 281/206/206 282/207/207
f 286/208/208 284/209/209 285/210/210
f 289/211/211 287/212/212 288/213/213
f 292/214/214 290/215/215 291/216/216
f 295/217/217 293/218/218 294/219/219
f 298/220/220 296/221/221 297/222/222
f 301/223/223 299/224/224 300/225/225
f 304/226/226 302/227/227 303/228/228
f 307/229/229 305/230/230 306/231/231
f 310/232/232 308/233/233 309/234/234
f 313/235/235 311/236/236 312/237/237
f 314/238/238 311/239/239 313/240/240
f 317/241/241 315/242/242 316/243/243
f 318/244/244 315/245/245 317/246/246
f 321/247/247 319/248/248 320/249/249
f 322/250/250 319/251/251 321/252/252
f 325/253/253 323/254/254 324/255/255
f 326/256/256 323/257/257 325/258/258
f 329/259/259 327/260/260 328/261/261
f 330/262/262 327/263/263 329/264/264
f 333/265/265 331/266/266 332/267/267
f 334/268/268 331/269/269 333/270/270
f 337/271/271 335/272/272 336/273/273
f 338/274/274 335/275/275 337/276/276
f 341/277/277 339/278/278 340/279/279
f 342/280/280 339/281/281 341/282/282
f 345/283/283 343/284/284 344/285/285
f 346/286/286 343/287/287 345/288/288
f 349/289/289 347/290/290 348/291/291
f 350/292/292 347/293/293 349/294/294
f 353/295/295 351/296/296 352/297/297
f 354/298/298 351/299/299 353/300/300
f 357/301/301 355/302/302 356/303/303
f 358/304/304 355/305/305 357/306/306
f 361/307/307 359/308/308 360/309/309
f 362/310/310 359/311/311 361/312/312
f 365/313/313 363/314/314 364/315/315
f 366/316/316 363/317/317 365/318/318
f 369/319/319 367/320/320 368/321/321
f 370/322/322 367/323/323 369/324/324
f 373/325/325 371/326/326 372/327/327
f 374/328/328 371/329/329 373/330/330
f 377/331/331 375/332/332 376/333/333
f 378/334/334 375/335/335 377/336/336
f 381/337/337 379/338/338 380/339/339
f 382/340/340 379/341/341 381/342/342
f 385/343/343 383/344/344 384/345/345
f 388/346/346 386/347/347 387/348/348
f 391/349/349 389/350/350 390/351/351
f 394/352/352 392/353/353 393/354/354
f 397/355/355 395/356/356 396/357/357
f 400/358/358 398/359/359 399/360/360
f 403/361/361 401/362/362 402/363/363
f 406/364/364 404/365/365 405/366/366
f 409/367/367 407/368/368 408/369/369
f 412/370/370 410/371/371 411/372/372
f 415/373/373 413/374/374 414/375/375
f 418/376/376 416/377/377 417/378/378
f 421/379/379 419/380/380 420/381/381
f 424/382/382 422/383/383 423/384/384
f 427/385/385 425/386/386 426/387/387
f 430/388/388 428/389/389 429/390/390
f 433/391/391 431/392/392 432/393/393
f 436/394/394 434/395/395 435/396/396
f 439/397/397 437/398/398 438/399/399
f 442/400/400 440/401/401 441/402/402
f 445/403/403 443/404/404 444/405/405
f 448/406/406 446/407/407 447/408/408
f 451/409/409 449/410/410 450/411/411
f 454/412/412 452/413/413 453/414/414
f 457/415/415 455/416/416 456/417/417
f 460/418/418 458/419/419 459/420/420

g Material.002
f 35/421/421 33/422/422 34/423/423
f 38/424/424 36/425/425 37/426/426
f 41/427/427 39/428/428 40/429/429
f 44/430/430 42/431/431 43/432/432
f 47/433/433 45/434/434 46/435/435
f 50/436/436 48/437/437 49/438/438
f 53/439/439 51/440/440 52/441/441
f 56/442/442 54/443/443 55/444/444
f 59/445/445 57/446/446 58/447/447
f 62/448/448 60/449/449 61/450/450
f 65/451/451 63/452/452 64/453/453
f 68/454/454 66/455/455 67/456/456
f 71/457/457 69/458/458 70/459/459
f 74/460/460 72/461/461 73/462/462
f 77/463/463 75/464/464 76/465/465
f 80/466/466 78/467/467 79/468/468
f 83/469/469 81/470/470 82/471/471
f 86/472/472 84/473/473 85/474/474
f 89/475/475 87/476/476 88/477/477
f 92/478/478 90/479/479 91/480/480
f 95/481/481 93/482/482 94/483/483
f 98/484/484 96/485/485 97/486/486
f 101/487/487 99/488/488 100/489/489
f 104/490/490 102/491/491 103/492/492
f 107/493/493 105/494/494 106/495/495
f 110/496/496 108/497/497 109/498/498
f 113/499/499 111/500/500 112/501/501
f 116/502/502 114/503/503 115/504/504
f 119/505/505 117/506/506 118/507/507
f 122/508/508 120/509/509 121/510/510
f 125/511/511 123/512/512 124/513/513
f 128/514/514 126/515/515 127/516/516
f 131/517/517 129/518/518 130/519/519
f 134/520/520 132/521/521 133/522/522
f 137/523/523 135/524/524 136/525/525
f 140/526/526 138/527/527 139/528/528
f 143/529/529 141/530/530 142/531/531
f 146/532/532 144/533/533 145/534/534
f 149/535/535 147/536/536 148/537/537
f 152/538/538 150/539/539 151/540/540

