# Converted from B3D for Luanti (With Correct Normals)
# Object Name: multidecor_kitchen_cabinet_half_door

v 0.850000 -0.850000 -0.000001
v -0.000000 -0.850000 0.000000
v -0.000000 0.850000 0.000000
v 0.850000 0.850000 -0.000001
v 0.850000 -0.850000 0.150000
v 0.850000 0.850000 0.150000
v 0.000000 0.850000 0.150000
v 0.000000 -0.850000 0.150000
v -0.000000 -0.850000 0.000000
v 0.850000 -0.850000 -0.000001
v 0.850000 -0.850000 0.150000
v 0.000000 -0.850000 0.150000
v 0.850000 -0.850000 -0.000001
v 0.850000 0.850000 -0.000001
v 0.850000 0.850000 0.150000
v 0.850000 -0.850000 0.150000
v 0.850000 0.850000 -0.000001
v -0.000000 0.850000 0.000000
v 0.000000 0.850000 0.150000
v 0.850000 0.850000 0.150000
v -0.000000 0.850000 0.000000
v -0.000000 -0.850000 0.000000
v 0.000000 -0.850000 0.150000
v 0.000000 0.850000 0.150000
v 0.764300 0.100000 0.250000
v 0.664300 0.100000 0.250000
v 0.664300 0.500000 0.250000
v 0.764300 0.500000 0.250000
v 0.664300 0.000000 0.150000
v 0.764300 0.000000 0.150000
v 0.764300 0.000000 0.250000
v 0.664300 0.000000 0.250000
v 0.764300 0.100000 0.150000
v 0.664300 0.100000 0.150000
v 0.664300 0.100000 0.250000
v 0.764300 0.100000 0.250000
v 0.764300 0.000000 0.150000
v 0.764300 0.100000 0.150000
v 0.764300 0.100000 0.250000
v 0.764300 0.000000 0.250000
v 0.664300 0.100000 0.150000
v 0.664300 0.000000 0.150000
v 0.664300 0.000000 0.250000
v 0.664300 0.100000 0.250000
v 0.664300 0.100000 0.300000
v 0.664300 0.000000 0.300000
v 0.764300 0.000000 0.299999
v 0.764300 0.100000 0.299999
v 0.764300 0.000000 0.250000
v 0.764300 0.100000 0.250000
v 0.764300 0.100000 0.299999
v 0.764300 0.000000 0.299999
v 0.664300 0.100000 0.250000
v 0.664300 0.000000 0.250000
v 0.664300 0.000000 0.300000
v 0.664300 0.100000 0.300000
v 0.664300 0.000000 0.250000
v 0.764300 0.000000 0.250000
v 0.764300 0.000000 0.299999
v 0.664300 0.000000 0.300000
v 0.764300 0.500000 0.299999
v 0.764300 0.500000 0.250000
v 0.764300 0.600000 0.250000
v 0.764300 0.600000 0.299999
v 0.664300 0.100000 0.250000
v 0.664300 0.100000 0.300000
v 0.664300 0.500000 0.300000
v 0.664300 0.500000 0.250000
v 0.664300 0.100000 0.300000
v 0.764300 0.100000 0.299999
v 0.764300 0.500000 0.299999
v 0.664300 0.500000 0.300000
v 0.764300 0.100000 0.299999
v 0.764300 0.100000 0.250000
v 0.764300 0.500000 0.250000
v 0.764300 0.500000 0.299999
v 0.764300 0.600000 0.250000
v 0.664300 0.600000 0.250000
v 0.664300 0.600000 0.300000
v 0.764300 0.600000 0.299999
v 0.664300 0.500000 0.300000
v 0.764300 0.500000 0.299999
v 0.764300 0.600000 0.299999
v 0.664300 0.600000 0.300000
v 0.664300 0.500000 0.250000
v 0.664300 0.500000 0.300000
v 0.664300 0.600000 0.300000
v 0.664300 0.600000 0.250000
v 0.764300 0.600000 0.250000
v 0.764300 0.500000 0.250000
v 0.764300 0.500000 0.150000
v 0.764300 0.600000 0.150000
v 0.664300 0.600000 0.250000
v 0.764300 0.600000 0.250000
v 0.764300 0.600000 0.150000
v 0.664300 0.600000 0.150000
v 0.664300 0.500000 0.250000
v 0.664300 0.600000 0.250000
v 0.664300 0.600000 0.150000
v 0.664300 0.500000 0.150000
v 0.764300 0.500000 0.250000
v 0.664300 0.500000 0.250000
v 0.664300 0.500000 0.150000
v 0.764300 0.500000 0.150000

vt 0.040609 0.540534
vt -0.219973 0.999924
vt 0.040609 0.999924
vt -0.219973 0.540534
vt -0.219973 0.999924
vt 0.040609 0.540534
vt 0.040609 0.500000
vt -0.219972 0.040610
vt -0.219973 0.500000
vt 0.040610 0.040610
vt -0.219972 0.040610
vt 0.040609 0.500000
vt -0.219972 -0.040459
vt 0.040610 0.000075
vt -0.219972 0.000075
vt 0.040610 -0.040459
vt 0.040610 0.000075
vt -0.219972 -0.040459
vt 0.608090 0.500000
vt 0.567556 0.040610
vt 0.567557 0.500000
vt 0.608090 0.040610
vt 0.567556 0.040610
vt 0.608090 0.500000
vt 0.040609 0.581069
vt -0.219973 0.540534
vt 0.040609 0.540534
vt -0.219973 0.581068
vt -0.219973 0.540534
vt 0.040609 0.581069
vt -0.040459 0.040610
vt 0.000075 0.500000
vt 0.000075 0.040610
vt -0.040459 0.500000
vt 0.000075 0.500000
vt -0.040459 0.040610
vt 0.111206 3.070025
vt 0.555536 3.181110
vt 0.555537 3.070026
vt 0.111205 3.181109
vt 0.555536 3.181110
vt 0.111206 3.070025
vt 1.444204 -1.737553
vt 1.333122 -1.626472
vt 1.333121 -1.737551
vt 1.444206 -1.626473
vt 1.333122 -1.626472
vt 1.444204 -1.737553
vt 1.110947 3.070020
vt 0.999864 3.181103
vt 0.999864 3.070021
vt 1.110946 3.181101
vt 0.999864 3.181103
vt 1.110947 3.070020
vt 0.555540 1.165984
vt 0.666623 1.054902
vt 0.555540 1.054902
vt 0.666623 1.165984
vt 0.666623 1.054902
vt 0.555540 1.165984
vt 0.666623 0.277581
vt 0.555541 0.388665
vt 0.666624 0.388665
vt 0.555541 0.277582
vt 0.555541 0.388665
vt 0.666623 0.277581
vt 0.833253 -1.737541
vt 0.722168 -1.626459
vt 0.833252 -1.626459
vt 0.722169 -1.737541
vt 0.722168 -1.626459
vt 0.833253 -1.737541
vt 0.555539 1.221530
vt 0.666622 1.165987
vt 0.555539 1.165988
vt 0.666622 1.221530
vt 0.666622 1.165987
vt 0.555539 1.221530
vt 0.666620 0.222044
vt 0.555539 0.277585
vt 0.666621 0.277585
vt 0.555539 0.222044
vt 0.555539 0.277585
vt 0.666620 0.222044
vt 1.499785 -1.737569
vt 1.444240 -1.626482
vt 1.444240 -1.737568
vt 1.499785 -1.626482
vt 1.444240 -1.626482
vt 1.499785 -1.737569
vt 0.000128 1.165991
vt 0.111211 1.221532
vt 0.111211 1.165990
vt 0.000128 1.221533
vt 0.111211 1.221532
vt 0.000128 1.165991
vt 0.111213 0.222046
vt 0.555545 0.277588
vt 0.555545 0.222047
vt 0.111213 0.277587
vt 0.555545 0.277588
vt 0.111213 0.222046
vt 0.277832 -1.737545
vt 0.722162 -1.626462
vt 0.722162 -1.737545
vt 0.277832 -1.626462
vt 0.722162 -1.626462
vt 0.277832 -1.737545
vt 0.111209 1.165979
vt 0.555538 1.221519
vt 0.555538 1.165979
vt 0.111209 1.221520
vt 0.555538 1.221519
vt 0.111209 1.165979
vt -0.499738 -1.626475
vt -0.444196 -1.737560
vt -0.444196 -1.626473
vt -0.499737 -1.737560
vt -0.444196 -1.737560
vt -0.499738 -1.626475
vt 0.166751 -1.737540
vt 0.277834 -1.626457
vt 0.277834 -1.737540
vt 0.166751 -1.626458
vt 0.277834 -1.626457
vt 0.166751 -1.737540
vt 0.000127 0.222043
vt 0.111210 0.277584
vt 0.111210 0.222043
vt 0.000127 0.277584
vt 0.111210 0.277584
vt 0.000127 0.222043
vt 0.111210 1.054905
vt 0.000128 1.165988
vt 0.111211 1.165988
vt 0.000127 1.054905
vt 0.000128 1.165988
vt 0.111210 1.054905
vt -0.333118 -1.737544
vt -0.444201 -1.626463
vt -0.444201 -1.737544
vt -0.333118 -1.626463
vt -0.444201 -1.626463
vt -0.333118 -1.737544
vt 0.000127 0.388665
vt 0.111210 0.277582
vt 0.000127 0.277582
vt 0.111210 0.388665
vt 0.111210 0.277582
vt 0.000127 0.388665
vt -0.333122 3.070022
vt -0.444205 3.181103
vt -0.444205 3.070022
vt -0.333122 3.181103
vt -0.444205 3.181103
vt -0.333122 3.070022

vn -0.000001 0.000000 -1.000000
vn -0.000001 0.000000 -1.000000
vn -0.000001 0.000000 -1.000000
vn -0.000001 0.000000 -1.000000
vn -0.000001 0.000000 -1.000000
vn -0.000001 0.000000 -1.000000
vn 0.000001 0.000000 1.000000
vn 0.000001 0.000000 1.000000
vn 0.000001 0.000000 1.000000
vn 0.000001 0.000000 1.000000
vn 0.000001 0.000000 1.000000
vn 0.000001 0.000000 1.000000
vn -0.000000 -1.000000 0.000000
vn -0.000000 -1.000000 0.000000
vn -0.000000 -1.000000 0.000000
vn 0.000000 -1.000000 0.000000
vn 0.000000 -1.000000 0.000000
vn 0.000000 -1.000000 0.000000
vn 1.000000 0.000000 0.000000
vn 1.000000 0.000000 0.000000
vn 1.000000 0.000000 0.000000
vn 1.000000 0.000000 -0.000001
vn 1.000000 0.000000 -0.000001
vn 1.000000 0.000000 -0.000001
vn 0.000000 1.000000 0.000000
vn 0.000000 1.000000 0.000000
vn 0.000000 1.000000 0.000000
vn -0.000000 1.000000 0.000000
vn -0.000000 1.000000 0.000000
vn -0.000000 1.000000 0.000000
vn -1.000000 0.000000 0.000001
vn -1.000000 0.000000 0.000001
vn -1.000000 0.000000 0.000001
vn -1.000000 0.000000 0.000001
vn -1.000000 0.000000 0.000001
vn -1.000000 0.000000 0.000001
vn -0.000001 0.000000 -1.000000
vn -0.000001 0.000000 -1.000000
vn -0.000001 0.000000 -1.000000
vn -0.000001 0.000000 -1.000000
vn -0.000001 0.000000 -1.000000
vn -0.000001 0.000000 -1.000000
vn -0.000000 -1.000000 0.000000
vn -0.000000 -1.000000 0.000000
vn -0.000000 -1.000000 0.000000
vn -0.000000 -1.000000 0.000000
vn -0.000000 -1.000000 0.000000
vn -0.000000 -1.000000 0.000000
vn 0.000000 1.000000 0.000000
vn 0.000000 1.000000 0.000000
vn 0.000000 1.000000 0.000000
vn -0.000000 1.000000 0.000000
vn -0.000000 1.000000 0.000000
vn -0.000000 1.000000 0.000000
vn 1.000000 0.000000 0.000000
vn 1.000000 0.000000 0.000000
vn 1.000000 0.000000 0.000000
vn 1.000000 0.000000 0.000000
vn 1.000000 0.000000 0.000000
vn 1.000000 0.000000 0.000000
vn -1.000000 0.000000 0.000000
vn -1.000000 0.000000 0.000000
vn -1.000000 0.000000 0.000000
vn -1.000000 0.000000 0.000001
vn -1.000000 0.000000 0.000001
vn -1.000000 0.000000 0.000001
vn 0.000001 0.000000 1.000000
vn 0.000001 0.000000 1.000000
vn 0.000001 0.000000 1.000000
vn 0.000001 0.000000 1.000000
vn 0.000001 0.000000 1.000000
vn 0.000001 0.000000 1.000000
vn 1.000000 0.000000 0.000000
vn 1.000000 0.000000 0.000000
vn 1.000000 0.000000 0.000000
vn 1.000000 0.000000 0.000000
vn 1.000000 0.000000 0.000000
vn 1.000000 0.000000 0.000000
vn -1.000000 0.000000 0.000000
vn -1.000000 0.000000 0.000000
vn -1.000000 0.000000 0.000000
vn -1.000000 0.000000 0.000000
vn -1.000000 0.000000 0.000000
vn -1.000000 0.000000 0.000000
vn -0.000000 -1.000000 0.000000
vn -0.000000 -1.000000 0.000000
vn -0.000000 -1.000000 0.000000
vn -0.000000 -1.000000 0.000000
vn -0.000000 -1.000000 0.000000
vn -0.000000 -1.000000 0.000000
vn 1.000000 0.000000 0.000000
vn 1.000000 0.000000 0.000000
vn 1.000000 0.000000 0.000000
vn 1.000000 0.000000 0.000000
vn 1.000000 0.000000 0.000000
vn 1.000000 0.000000 0.000000
vn -1.000000 0.000000 0.000000
vn -1.000000 0.000000 0.000000
vn -1.000000 0.000000 0.000000
vn -1.000000 0.000000 0.000000
vn -1.000000 0.000000 0.000000
vn -1.000000 0.000000 0.000000
vn 0.000001 0.000000 1.000000
vn 0.000001 0.000000 1.000000
vn 0.000001 0.000000 1.000000
vn 0.000001 0.000000 1.000000
vn 0.000001 0.000000 1.000000
vn 0.000001 0.000000 1.000000
vn 1.000000 0.000000 0.000000
vn 1.000000 0.000000 0.000000
vn 1.000000 0.000000 0.000000
vn 1.000000 0.000000 0.000000
vn 1.000000 0.000000 0.000000
vn 1.000000 0.000000 0.000000
vn -0.000000 1.000000 0.000000
vn -0.000000 1.000000 0.000000
vn -0.000000 1.000000 0.000000
vn -0.000000 1.000000 0.000000
vn -0.000000 1.000000 0.000000
vn -0.000000 1.000000 0.000000
vn 0.000001 0.000000 1.000000
vn 0.000001 0.000000 1.000000
vn 0.000001 0.000000 1.000000
vn 0.000001 0.000000 1.000000
vn 0.000001 0.000000 1.000000
vn 0.000001 0.000000 1.000000
vn -1.000000 0.000000 0.000000
vn -1.000000 0.000000 0.000000
vn -1.000000 0.000000 0.000000
vn -1.000000 0.000000 0.000000
vn -1.000000 0.000000 0.000000
vn -1.000000 0.000000 0.000000
vn 1.000000 0.000000 0.000000
vn 1.000000 0.000000 0.000000
vn 1.000000 0.000000 0.000000
vn 1.000000 0.000000 0.000000
vn 1.000000 0.000000 0.000000
vn 1.000000 0.000000 0.000000
vn -0.000000 1.000000 0.000000
vn -0.000000 1.000000 0.000000
vn -0.000000 1.000000 0.000000
vn 0.000001 1.000000 0.000000
vn 0.000001 1.000000 0.000000
vn 0.000001 1.000000 0.000000
vn -1.000000 0.000000 0.000001
vn -1.000000 0.000000 0.000001
vn -1.000000 0.000000 0.000001
vn -1.000000 0.000000 0.000000
vn -1.000000 0.000000 0.000000
vn -1.000000 0.000000 0.000000
vn -0.000000 -1.000000 0.000000
vn -0.000000 -1.000000 0.000000
vn -0.000000 -1.000000 0.000000
vn -0.000000 -1.000000 0.000000
vn -0.000000 -1.000000 0.000000
vn -0.000000 -1.000000 0.000000

g Material.008
f 3/1/1 1/2/2 2/3/3
f 4/4/4 1/5/5 3/6/6
f 7/7/7 5/8/8 6/9/9
f 8/10/10 5/11/11 7/12/12
f 11/13/13 9/14/14 10/15/15
f 12/16/16 9/17/17 11/18/18
f 15/19/19 13/20/20 14/21/21
f 16/22/22 13/23/23 15/24/24
f 19/25/25 17/26/26 18/27/27
f 20/28/28 17/29/29 19/30/30
f 23/31/31 21/32/32 22/33/33
f 24/34/34 21/35/35 23/36/36

g Material.007
f 27/37/37 25/38/38 26/39/39
f 28/40/40 25/41/41 27/42/42
f 31/43/43 29/44/44 30/45/45
f 32/46/46 29/47/47 31/48/48
f 35/49/49 33/50/50 34/51/51
f 36/52/52 33/53/53 35/54/54
f 39/55/55 37/56/56 38/57/57
f 40/58/58 37/59/59 39/60/60
f 43/61/61 41/62/62 42/63/63
f 44/64/64 41/65/65 43/66/66
f 47/67/67 45/68/68 46/69/69
f 48/70/70 45/71/71 47/72/72
f 51/73/73 49/74/74 50/75/75
f 52/76/76 49/77/77 51/78/78
f 55/79/79 53/80/80 54/81/81
f 56/82/82 53/83/83 55/84/84
f 59/85/85 57/86/86 58/87/87
f 60/88/88 57/89/89 59/90/90
f 63/91/91 61/92/92 62/93/93
f 64/94/94 61/95/95 63/96/96
f 67/97/97 65/98/98 66/99/99
f 68/100/100 65/101/101 67/102/102
f 71/103/103 69/104/104 70/105/105
f 72/106/106 69/107/107 71/108/108
f 75/109/109 73/110/110 74/111/111
f 76/112/112 73/113/113 75/114/114
f 79/115/115 77/116/116 78/117/117
f 80/118/118 77/119/119 79/120/120
f 83/121/121 81/122/122 82/123/123
f 84/124/124 81/125/125 83/126/126
f 87/127/127 85/128/128 86/129/129
f 88/130/130 85/131/131 87/132/132
f 91/133/133 89/134/134 90/135/135
f 92/136/136 89/137/137 91/138/138
f 95/139/139 93/140/140 94/141/141
f 96/142/142 93/143/143 95/144/144
f 99/145/145 97/146/146 98/147/147
f 100/148/148 97/149/149 99/150/150
f 103/151/151 101/152/152 102/153/153
f 104/154/154 101/155/155 103/156/156

