# Converted from B3D for Luanti (With Correct Normals)
# Object Name: multidecor_corner_wall_shelf

v 0.000000 -1.000000 0.800000
v 0.000000 -0.000000 0.800000
v 1.000000 0.000000 0.800000
v 1.000001 -1.000000 0.800000
v 0.000000 -1.000000 0.800000
v 1.000001 -1.000000 0.800000
v 1.000001 -1.000000 1.000000
v 0.000000 -1.000000 1.000000
v 1.000000 0.000000 0.800000
v 0.000000 -0.000000 0.800000
v -0.000000 0.400000 0.800000
v 1.000000 0.400000 0.800000
v -1.000000 -1.000001 0.800000
v -1.000000 -1.000001 1.000000
v -1.000000 -0.000001 1.000000
v -1.000000 -0.000000 0.800000
v 1.000000 1.000000 0.800000
v -0.000000 1.000000 0.800000
v -0.000000 1.000000 1.000000
v 1.000000 1.000000 1.000000
v -0.400000 -1.000000 0.800000
v -0.400000 -0.000000 0.800000
v 0.000000 -0.000000 0.800000
v 0.000000 -1.000000 0.800000
v 1.000001 -1.000000 1.000000
v 1.000001 -1.000000 0.800000
v 1.000000 0.000000 0.800000
v 1.000000 0.000000 1.000000
v -0.000000 0.400000 1.000000
v 1.000000 0.400000 1.000000
v 1.000000 1.000000 1.000000
v -0.000000 1.000000 1.000000
v 1.000000 0.400000 1.000000
v 1.000000 0.400000 0.800000
v 1.000000 1.000000 0.800000
v 1.000000 1.000000 1.000000
v -0.400000 -1.000000 0.800000
v 0.000000 -1.000000 0.800000
v 0.000000 -1.000000 1.000000
v -0.400000 -1.000000 1.000000
v 1.000000 0.000000 1.000000
v 1.000000 0.000000 0.800000
v 1.000000 0.400000 0.800000
v 1.000000 0.400000 1.000000
v -0.000000 0.800000 0.800000
v 1.000000 0.800001 0.300000
v 1.000000 0.800001 0.800000
v -0.000000 1.000000 0.800000
v -0.000000 0.800000 0.500000
v -0.000000 0.800000 0.800000
v -0.000000 1.000000 0.500000
v -0.000000 0.800000 0.500000
v -0.000000 1.000000 0.800000
v 1.000000 1.000001 0.800000
v -0.000000 1.000000 0.500000
v -0.000000 1.000000 0.800000
v 1.000000 0.800001 0.800000
v 1.000000 1.000001 0.300000
v 1.000000 1.000001 0.800000
v 1.000000 0.800001 0.300000
v 1.000000 1.000001 0.300000
v 1.000000 0.800001 0.800000
v -0.800000 -1.000000 0.300000
v -1.000000 -1.000000 0.300000
v -0.800000 -0.500000 0.300000
v 0.500000 1.000001 0.300000
v -0.000000 0.800000 0.500000
v -0.000000 1.000000 0.500000
v 0.500000 0.800000 0.300000
v -0.000000 0.800000 0.500000
v 0.500000 1.000001 0.300000
v 1.000000 1.000001 0.300000
v 0.500000 0.800000 0.300000
v 0.500000 1.000001 0.300000
v 1.000000 0.800001 0.300000
v 0.500000 0.800000 0.300000
v 1.000000 1.000001 0.300000
v -1.000000 -1.000000 0.300000
v -1.000000 -0.500000 0.300000
v -0.800000 -0.500000 0.300000
v -0.800000 -0.500000 0.300000
v -1.000000 -0.500000 0.300000
v -0.800000 0.000000 0.500000
v -1.000000 -0.500000 0.300000
v -1.000000 0.000000 0.500000
v -0.800000 0.000000 0.500000
v -0.800000 -1.000000 0.300000
v -0.800000 -1.000000 0.800000
v -1.000000 -1.000000 0.300000
v -0.800000 -1.000000 0.800000
v -1.000000 -1.000000 0.800000
v -1.000000 -1.000000 0.300000
v -1.000000 -1.000000 0.800000
v -1.000000 0.000000 0.800000
v -1.000000 0.000000 0.500000
v -1.000000 0.000000 0.500000
v -1.000000 0.000000 0.800000
v -0.800000 0.000000 0.500000
v -1.000000 0.000000 0.800000
v -0.800000 0.000000 0.800000
v -0.800000 0.000000 0.500000
v -0.800000 0.000000 0.800000
v -0.800000 -1.000000 0.800000
v -0.800000 -1.000000 0.300000
v 0.500000 0.800000 0.300000
v -0.000000 0.800000 0.800000
v -0.000000 0.800000 0.500000
v 1.000000 1.000001 0.800000
v 0.500000 1.000001 0.300000
v -0.000000 1.000000 0.500000
v 1.000000 1.000001 0.800000
v 1.000000 1.000001 0.300000
v 0.500000 1.000001 0.300000
v 0.500000 0.800000 0.300000
v 1.000000 0.800001 0.300000
v -0.000000 0.800000 0.800000
v -0.800000 -0.500000 0.300000
v -0.800000 0.000000 0.500000
v -0.800000 0.000000 0.800000
v -1.000000 -1.000000 0.800000
v -1.000000 0.000000 0.500000
v -1.000000 -0.500000 0.300000
v -1.000000 -1.000000 0.800000
v -1.000000 -0.500000 0.300000
v -1.000000 -1.000000 0.300000
v -0.800000 -0.500000 0.300000
v -0.800000 0.000000 0.800000
v -0.800000 -1.000000 0.300000
v -0.400000 -1.000000 1.000000
v -0.400000 -0.000000 1.000000
v -1.000000 -0.000001 1.000000
v -1.000000 -1.000001 1.000000
v 1.000000 0.400000 0.800000
v -0.000000 0.400000 0.800000
v -0.000000 1.000000 0.800000
v 1.000000 1.000000 0.800000
v -0.000000 0.400000 0.800000
v -0.000000 0.400000 1.000000
v -0.000000 1.000000 1.000000
v -0.000000 1.000000 0.800000
v 0.000000 -0.000000 1.000000
v 1.000000 0.000000 1.000000
v 1.000000 0.400000 1.000000
v -0.000000 0.400000 1.000000
v -0.400000 -0.000000 0.800000
v -1.000000 -0.000000 0.800000
v -1.000000 -0.000001 1.000000
v -0.400000 -0.000000 1.000000
v 1.000001 -1.000000 1.000000
v 1.000000 0.000000 1.000000
v 0.000000 -0.000000 1.000000
v 0.000000 -1.000000 1.000000
v 0.000000 -0.000000 1.000000
v -0.000000 0.400000 1.000000
v -0.400000 -0.000000 1.000000
v -0.400000 -0.000000 1.000000
v -0.000000 0.400000 1.000000
v -0.000000 0.400000 0.800000
v -0.400000 -0.000000 0.800000
v 0.000000 -1.000000 1.000000
v 0.000000 -0.000000 1.000000
v -0.400000 -0.000000 1.000000
v -0.400000 -1.000000 1.000000
v -1.000000 -1.000001 0.800000
v -0.400000 -1.000000 0.800000
v -0.400000 -1.000000 1.000000
v -1.000000 -1.000001 1.000000
v -1.000000 -1.000001 0.800000
v -1.000000 -0.000000 0.800000
v -0.400000 -0.000000 0.800000
v -0.400000 -1.000000 0.800000
v -0.400000 -0.000000 0.800000
v -0.000000 0.400000 0.800000
v 0.000000 -0.000000 0.800000

vt 0.250000 0.000263
vt 0.499737 0.250000
vt 0.250000 0.250000
vt 0.499737 0.000263
vt 0.499737 0.250000
vt 0.250000 0.000263
vt 0.801000 0.500263
vt 0.850947 0.250526
vt 0.850947 0.500263
vt 0.801000 0.250526
vt 0.850947 0.250526
vt 0.801000 0.500263
vt 0.150105 0.250000
vt 0.250000 0.000263
vt 0.250000 0.250000
vt 0.150105 0.000263
vt 0.250000 0.000263
vt 0.150105 0.250000
vt 0.800473 0.750000
vt 0.750526 0.500263
vt 0.800473 0.500263
vt 0.750526 0.750000
vt 0.750526 0.500263
vt 0.800473 0.750000
vt 0.675605 0.375921
vt 0.625658 0.625658
vt 0.625657 0.375921
vt 0.675605 0.625658
vt 0.625658 0.625658
vt 0.675605 0.375921
vt 0.250000 0.250000
vt 0.499737 0.349895
vt 0.250000 0.349895
vt 0.499737 0.250000
vt 0.499737 0.349895
vt 0.250000 0.250000
vt 0.850947 0.750000
vt 0.801000 0.500263
vt 0.850947 0.500263
vt 0.801000 0.750000
vt 0.801000 0.500263
vt 0.850947 0.750000
vt 0.000263 0.500263
vt 0.250000 0.650105
vt 0.000263 0.650105
vt 0.250000 0.500263
vt 0.250000 0.650105
vt 0.000263 0.500263
vt 0.625658 0.625658
vt 0.675605 0.775500
vt 0.625657 0.775500
vt 0.675605 0.625658
vt 0.675605 0.775500
vt 0.625658 0.625658
vt 0.800473 0.250526
vt 0.750526 0.350421
vt 0.750526 0.250526
vt 0.800473 0.350421
vt 0.750526 0.350421
vt 0.800473 0.250526
vt 0.625657 0.775500
vt 0.675605 0.875394
vt 0.625657 0.875394
vt 0.675605 0.775500
vt 0.675605 0.875394
vt 0.625657 0.775500
vt 0.625658 0.250000
vt 0.625658 0.000263
vt 0.750526 0.250000
vt 0.676131 0.375921
vt 0.726079 0.375921
vt 0.676131 0.450842
vt 0.726079 0.375921
vt 0.726079 0.450842
vt 0.676131 0.450842
vt 0.625131 0.375921
vt 0.625131 0.625657
vt 0.550210 0.375921
vt 0.726079 0.835066
vt 0.676131 0.835066
vt 0.726078 0.710198
vt 0.676131 0.835066
vt 0.676131 0.710198
vt 0.726078 0.710198
vt 0.901420 0.500263
vt 0.901420 0.375395
vt 0.851473 0.375395
vt 0.726079 0.450842
vt 0.726078 0.585329
vt 0.676131 0.450842
vt 0.726078 0.585329
vt 0.676131 0.585329
vt 0.676131 0.450842
vt 0.726078 0.585329
vt 0.726078 0.710198
vt 0.676131 0.585329
vt 0.726078 0.710198
vt 0.676131 0.710198
vt 0.676131 0.585329
vt 0.901420 0.500263
vt 0.851473 0.375395
vt 0.851473 0.500263
vt 0.901420 0.634751
vt 0.901420 0.500263
vt 0.851473 0.500263
vt 0.901420 0.634751
vt 0.851473 0.500263
vt 0.851473 0.634750
vt 0.851473 0.375395
vt 0.901420 0.375395
vt 0.901420 0.250526
vt 0.851473 0.375395
vt 0.901420 0.250526
vt 0.851473 0.250526
vt 0.550210 0.000263
vt 0.625131 0.250000
vt 0.625131 0.000263
vt 0.901420 0.634751
vt 0.851473 0.634750
vt 0.851473 0.709672
vt 0.901420 0.634751
vt 0.851473 0.709672
vt 0.901420 0.709672
vt 0.750000 0.250526
vt 0.500263 0.375395
vt 0.750000 0.375395
vt 0.700579 0.000263
vt 0.750526 0.125131
vt 0.625658 0.000263
vt 0.550210 0.375921
vt 0.625131 0.625657
vt 0.500263 0.500789
vt 0.500263 0.500789
vt 0.625131 0.625657
vt 0.500263 0.625658
vt 0.625658 0.000263
vt 0.750526 0.125131
vt 0.750526 0.250000
vt 0.500263 0.375395
vt 0.625131 0.250526
vt 0.500263 0.300473
vt 0.500263 0.125132
vt 0.625131 0.250000
vt 0.550210 0.000263
vt 0.500263 0.250000
vt 0.625131 0.250000
vt 0.500263 0.125132
vt 0.750000 0.250526
vt 0.625131 0.250526
vt 0.500263 0.375395
vt 0.499737 0.750000
vt 0.349895 0.999737
vt 0.349895 0.750000
vt 0.499737 0.999737
vt 0.349895 0.999737
vt 0.499737 0.750000
vt 0.000263 0.250000
vt 0.150105 0.000263
vt 0.150105 0.250000
vt 0.000263 0.000263
vt 0.150105 0.000263
vt 0.000263 0.250000
vt 0.951894 0.691483
vt 0.901947 0.541641
vt 0.951894 0.541641
vt 0.901947 0.691483
vt 0.901947 0.541641
vt 0.951894 0.691483
vt 0.000263 0.650105
vt 0.250000 0.750000
vt 0.000263 0.750000
vt 0.250000 0.650105
vt 0.250000 0.750000
vt 0.000263 0.650105
vt 0.951894 0.250526
vt 0.901947 0.400368
vt 0.901947 0.250526
vt 0.951894 0.400368
vt 0.901947 0.400368
vt 0.951894 0.250526
vt 0.250000 0.750000
vt 0.000263 0.999737
vt 0.000263 0.750000
vt 0.250000 0.999737
vt 0.000263 0.999737
vt 0.250000 0.750000
vt 0.349895 0.750000
vt 0.250000 0.750000
vt 0.250000 0.650105
vt 0.901947 0.541641
vt 0.951894 0.400368
vt 0.951894 0.541641
vt 0.901947 0.400368
vt 0.951894 0.400368
vt 0.901947 0.541641
vt 0.349895 0.750000
vt 0.250000 0.999737
vt 0.250000 0.750000
vt 0.349895 0.999737
vt 0.250000 0.999737
vt 0.349895 0.750000
vt 0.800473 0.350421
vt 0.750526 0.500263
vt 0.750526 0.350421
vt 0.800473 0.500263
vt 0.750526 0.500263
vt 0.800473 0.350421
vt 0.250000 0.349895
vt 0.499737 0.499737
vt 0.250000 0.499737
vt 0.499737 0.349895
vt 0.499737 0.499737
vt 0.250000 0.349895
vt 0.250000 0.250000
vt 0.250000 0.349895
vt 0.150105 0.250000

vn -0.000000 -0.000000 -1.000000
vn -0.000000 -0.000000 -1.000000
vn -0.000000 -0.000000 -1.000000
vn -0.000000 0.000000 -1.000000
vn -0.000000 0.000000 -1.000000
vn -0.000000 0.000000 -1.000000
vn 0.000000 -1.000000 0.000000
vn 0.000000 -1.000000 0.000000
vn 0.000000 -1.000000 0.000000
vn 0.000000 -1.000000 0.000000
vn 0.000000 -1.000000 0.000000
vn 0.000000 -1.000000 0.000000
vn -0.000000 0.000001 -1.000000
vn -0.000000 0.000001 -1.000000
vn -0.000000 0.000001 -1.000000
vn -0.000000 0.000000 -1.000000
vn -0.000000 0.000000 -1.000000
vn -0.000000 0.000000 -1.000000
vn -1.000000 -0.000000 0.000000
vn -1.000000 -0.000000 0.000000
vn -1.000000 -0.000000 0.000000
vn -1.000000 -0.000000 0.000000
vn -1.000000 -0.000000 0.000000
vn -1.000000 -0.000000 0.000000
vn -0.000000 1.000000 0.000000
vn -0.000000 1.000000 0.000000
vn -0.000000 1.000000 0.000000
vn -0.000000 1.000000 0.000000
vn -0.000000 1.000000 0.000000
vn -0.000000 1.000000 0.000000
vn -0.000000 -0.000000 -1.000000
vn -0.000000 -0.000000 -1.000000
vn -0.000000 -0.000000 -1.000000
vn -0.000000 -0.000000 -1.000000
vn -0.000000 -0.000000 -1.000000
vn -0.000000 -0.000000 -1.000000
vn 1.000000 0.000000 0.000000
vn 1.000000 0.000000 0.000000
vn 1.000000 0.000000 0.000000
vn 1.000000 0.000000 0.000000
vn 1.000000 0.000000 0.000000
vn 1.000000 0.000000 0.000000
vn 0.000000 0.000000 1.000000
vn 0.000000 0.000000 1.000000
vn 0.000000 0.000000 1.000000
vn 0.000000 0.000000 1.000000
vn 0.000000 0.000000 1.000000
vn 0.000000 0.000000 1.000000
vn 1.000000 0.000000 -0.000000
vn 1.000000 0.000000 -0.000000
vn 1.000000 0.000000 -0.000000
vn 1.000000 0.000000 0.000000
vn 1.000000 0.000000 0.000000
vn 1.000000 0.000000 0.000000
vn 0.000000 -1.000000 -0.000000
vn 0.000000 -1.000000 -0.000000
vn 0.000000 -1.000000 -0.000000
vn 0.000001 -1.000000 -0.000000
vn 0.000001 -1.000000 -0.000000
vn 0.000001 -1.000000 -0.000000
vn 1.000000 0.000001 0.000001
vn 1.000000 0.000001 0.000001
vn 1.000000 0.000001 0.000001
vn 1.000000 0.000001 0.000000
vn 1.000000 0.000001 0.000000
vn 1.000000 0.000001 0.000000
vn 0.000000 -1.000000 0.000000
vn 0.000000 -1.000000 0.000000
vn 0.000000 -1.000000 0.000000
vn -1.000000 -0.000001 0.000000
vn -1.000000 -0.000001 0.000000
vn -1.000000 -0.000001 0.000000
vn -1.000000 -0.000001 0.000000
vn -1.000000 -0.000001 0.000000
vn -1.000000 -0.000001 0.000000
vn -0.000001 1.000000 0.000000
vn -0.000001 1.000000 0.000000
vn -0.000001 1.000000 0.000000
vn 1.000000 0.000001 -0.000000
vn 1.000000 0.000001 -0.000000
vn 1.000000 0.000001 -0.000000
vn 1.000000 0.000001 0.000000
vn 1.000000 0.000001 0.000000
vn 1.000000 0.000001 0.000000
vn 0.000000 0.000000 -1.000000
vn 0.000000 0.000000 -1.000000
vn 0.000000 0.000000 -1.000000
vn -0.371391 -0.000001 -0.928477
vn -0.371391 -0.000001 -0.928477
vn -0.371391 -0.000001 -0.928477
vn -0.371390 -0.000000 -0.928477
vn -0.371390 -0.000000 -0.928477
vn -0.371390 -0.000000 -0.928477
vn 0.000000 0.000000 -1.000000
vn 0.000000 0.000000 -1.000000
vn 0.000000 0.000000 -1.000000
vn 0.000000 0.000000 -1.000000
vn 0.000000 0.000000 -1.000000
vn 0.000000 0.000000 -1.000000
vn 0.000000 -0.000000 -1.000000
vn 0.000000 -0.000000 -1.000000
vn 0.000000 -0.000000 -1.000000
vn 0.000000 0.371391 -0.928477
vn 0.000000 0.371391 -0.928477
vn 0.000000 0.371391 -0.928477
vn 0.000000 0.371391 -0.928477
vn 0.000000 0.371391 -0.928477
vn 0.000000 0.371391 -0.928477
vn -0.000001 -1.000000 -0.000000
vn -0.000001 -1.000000 -0.000000
vn -0.000001 -1.000000 -0.000000
vn -0.000000 -1.000000 -0.000000
vn -0.000000 -1.000000 -0.000000
vn -0.000000 -1.000000 -0.000000
vn -1.000000 0.000000 0.000001
vn -1.000000 0.000000 0.000001
vn -1.000000 0.000000 0.000001
vn 0.000000 1.000000 0.000000
vn 0.000000 1.000000 0.000000
vn 0.000000 1.000000 0.000000
vn 0.000000 1.000000 0.000000
vn 0.000000 1.000000 0.000000
vn 0.000000 1.000000 0.000000
vn 1.000000 -0.000000 -0.000000
vn 1.000000 -0.000000 -0.000000
vn 1.000000 -0.000000 -0.000000
vn 0.000000 -1.000000 -0.000000
vn 0.000000 -1.000000 -0.000000
vn 0.000000 -1.000000 -0.000000
vn -0.000000 1.000000 0.000001
vn -0.000000 1.000000 0.000001
vn -0.000000 1.000000 0.000001
vn -0.000000 1.000000 0.000000
vn -0.000000 1.000000 0.000000
vn -0.000000 1.000000 0.000000
vn 0.000000 -1.000000 0.000000
vn 0.000000 -1.000000 0.000000
vn 0.000000 -1.000000 0.000000
vn 1.000000 -0.000001 0.000000
vn 1.000000 -0.000001 0.000000
vn 1.000000 -0.000001 0.000000
vn -1.000000 0.000000 0.000001
vn -1.000000 0.000000 0.000001
vn -1.000000 0.000000 0.000001
vn -1.000000 -0.000000 0.000000
vn -1.000000 -0.000000 0.000000
vn -1.000000 -0.000000 0.000000
vn 1.000000 -0.000000 0.000000
vn 1.000000 -0.000000 0.000000
vn 1.000000 -0.000000 0.000000
vn 0.000000 0.000000 1.000000
vn 0.000000 0.000000 1.000000
vn 0.000000 0.000000 1.000000
vn 0.000000 0.000000 1.000000
vn 0.000000 0.000000 1.000000
vn 0.000000 0.000000 1.000000
vn -0.000000 0.000000 -1.000000
vn -0.000000 0.000000 -1.000000
vn -0.000000 0.000000 -1.000000
vn -0.000000 0.000000 -1.000000
vn -0.000000 0.000000 -1.000000
vn -0.000000 0.000000 -1.000000
vn -1.000000 -0.000000 0.000000
vn -1.000000 -0.000000 0.000000
vn -1.000000 -0.000000 0.000000
vn -1.000000 -0.000000 0.000000
vn -1.000000 -0.000000 0.000000
vn -1.000000 -0.000000 0.000000
vn 0.000000 -0.000001 1.000000
vn 0.000000 -0.000001 1.000000
vn 0.000000 -0.000001 1.000000
vn 0.000000 -0.000001 1.000000
vn 0.000000 -0.000001 1.000000
vn 0.000000 -0.000001 1.000000
vn -0.000000 1.000000 0.000000
vn -0.000000 1.000000 0.000000
vn -0.000000 1.000000 0.000000
vn -0.000000 1.000000 0.000000
vn -0.000000 1.000000 0.000000
vn -0.000000 1.000000 0.000000
vn 0.000000 0.000000 1.000000
vn 0.000000 0.000000 1.000000
vn 0.000000 0.000000 1.000000
vn 0.000000 0.000000 1.000000
vn 0.000000 0.000000 1.000000
vn 0.000000 0.000000 1.000000
vn 0.000000 -0.000000 1.000000
vn 0.000000 -0.000000 1.000000
vn 0.000000 -0.000000 1.000000
vn -0.707107 0.707106 0.000000
vn -0.707107 0.707106 0.000000
vn -0.707107 0.707106 0.000000
vn -0.707107 0.707107 0.000000
vn -0.707107 0.707107 0.000000
vn -0.707107 0.707107 0.000000
vn -0.000000 0.000000 1.000000
vn -0.000000 0.000000 1.000000
vn -0.000000 0.000000 1.000000
vn -0.000000 0.000000 1.000000
vn -0.000000 0.000000 1.000000
vn -0.000000 0.000000 1.000000
vn 0.000000 -1.000000 0.000000
vn 0.000000 -1.000000 0.000000
vn 0.000000 -1.000000 0.000000
vn 0.000000 -1.000000 0.000000
vn 0.000000 -1.000000 0.000000
vn 0.000000 -1.000000 0.000000
vn 0.000000 -0.000000 -1.000000
vn 0.000000 -0.000000 -1.000000
vn 0.000000 -0.000000 -1.000000
vn -0.000000 -0.000000 -1.000000
vn -0.000000 -0.000000 -1.000000
vn -0.000000 -0.000000 -1.000000
vn -0.000000 0.000000 -1.000000
vn -0.000000 0.000000 -1.000000
vn -0.000000 0.000000 -1.000000

g Material.003
f 3/1/1 1/2/2 2/3/3
f 4/4/4 1/5/5 3/6/6
f 7/7/7 5/8/8 6/9/9
f 8/10/10 5/11/11 7/12/12
f 11/13/13 9/14/14 10/15/15
f 12/16/16 9/17/17 11/18/18
f 15/19/19 13/20/20 14/21/21
f 16/22/22 13/23/23 15/24/24
f 19/25/25 17/26/26 18/27/27
f 20/28/28 17/29/29 19/30/30
f 23/31/31 21/32/32 22/33/33
f 24/34/34 21/35/35 23/36/36
f 27/37/37 25/38/38 26/39/39
f 28/40/40 25/41/41 27/42/42
f 31/43/43 29/44/44 30/45/45
f 32/46/46 29/47/47 31/48/48
f 35/49/49 33/50/50 34/51/51
f 36/52/52 33/53/53 35/54/54
f 39/55/55 37/56/56 38/57/57
f 40/58/58 37/59/59 39/60/60
f 43/61/61 41/62/62 42/63/63
f 44/64/64 41/65/65 43/66/66
f 47/67/67 45/68/68 46/69/69
f 50/70/70 48/71/71 49/72/72
f 53/73/73 51/74/74 52/75/75
f 56/76/76 54/77/77 55/78/78
f 59/79/79 57/80/80 58/81/81
f 62/82/82 60/83/83 61/84/84
f 65/85/85 63/86/86 64/87/87
f 68/88/88 66/89/89 67/90/90
f 71/91/91 69/92/92 70/93/93
f 74/94/94 72/95/95 73/96/96
f 77/97/97 75/98/98 76/99/99
f 80/100/100 78/101/101 79/102/102
f 83/103/103 81/104/104 82/105/105
f 86/106/106 84/107/107 85/108/108
f 89/109/109 87/110/110 88/111/111
f 92/112/112 90/113/113 91/114/114
f 95/115/115 93/116/116 94/117/117
f 98/118/118 96/119/119 97/120/120
f 101/121/121 99/122/122 100/123/123
f 104/124/124 102/125/125 103/126/126
f 107/127/127 105/128/128 106/129/129
f 110/130/130 108/131/131 109/132/132
f 113/133/133 111/134/134 112/135/135
f 116/136/136 114/137/137 115/138/138
f 119/139/139 117/140/140 118/141/141
f 122/142/142 120/143/143 121/144/144
f 125/145/145 123/146/146 124/147/147
f 128/148/148 126/149/149 127/150/150
f 131/151/151 129/152/152 130/153/153
f 132/154/154 129/155/155 131/156/156
f 135/157/157 133/158/158 134/159/159
f 136/160/160 133/161/161 135/162/162
f 139/163/163 137/164/164 138/165/165
f 140/166/166 137/167/167 139/168/168
f 143/169/169 141/170/170 142/171/171
f 144/172/172 141/173/173 143/174/174
f 147/175/175 145/176/176 146/177/177
f 148/178/178 145/179/179 147/180/180
f 151/181/181 149/182/182 150/183/183
f 152/184/184 149/185/185 151/186/186
f 155/187/187 153/188/188 154/189/189
f 158/190/190 156/191/191 157/192/192
f 159/193/193 156/194/194 158/195/195
f 162/196/196 160/197/197 161/198/198
f 163/199/199 160/200/200 162/201/201
f 166/202/202 164/203/203 165/204/204
f 167/205/205 164/206/206 166/207/207
f 170/208/208 168/209/209 169/210/210
f 171/211/211 168/212/212 170/213/213
f 174/214/214 172/215/215 173/216/216

