# Converted from B3D for Luanti (With Correct Normals)
# Object Name: multidecor_ext_quadratic_painting

v 1.000000 1.000000 0.800000
v -1.000000 1.000000 0.800000
v -1.000000 1.000000 1.000000
v 1.000000 1.000000 1.000000
v 1.000000 -1.000000 1.000000
v 1.000000 1.000000 1.000000
v -1.000000 1.000000 1.000000
v -1.000000 -1.000000 1.000000
v -1.000000 -1.000000 1.000000
v -3.000000 -1.000000 1.000000
v -3.000000 -1.000000 0.800000
v -1.000000 -1.000000 0.800000
v -1.000000 0.850000 0.800000
v -2.850000 0.850000 0.800000
v -3.000000 1.000000 0.800000
v -1.000000 1.000000 0.800000
v 1.000000 -1.000000 0.800000
v 1.000000 1.000000 0.800000
v 1.000000 1.000000 1.000000
v 1.000000 -1.000000 1.000000
v 1.000000 1.000000 0.800000
v 1.000000 -1.000000 0.800000
v 0.850000 -0.850000 0.800000
v 0.850000 0.850000 0.800000
v 0.850000 0.850000 0.800000
v 0.850000 -0.850000 0.800000
v 0.850000 -0.850000 0.900000
v 0.850000 0.850000 0.900000
v -1.000000 0.850000 0.800000
v -1.000000 0.850000 0.900000
v -2.850000 0.850000 0.900000
v -2.850000 0.850000 0.800000
v 1.000000 -1.000000 0.800000
v -1.000000 -1.000000 0.800000
v -1.000000 -0.850000 0.800000
v 0.850000 -0.850000 0.800000
v -2.850000 -0.850000 0.800000
v -2.850000 -0.850000 0.900000
v -1.000000 -0.850000 0.900000
v -1.000000 -0.850000 0.800000
v -1.000000 -0.850000 0.900000
v -1.000000 0.850000 0.900000
v 0.850000 0.850000 0.900000
v 0.850000 -0.850000 0.900000
v -1.000000 -0.850000 0.900000
v -2.850000 -0.850000 0.900000
v -2.850000 0.850000 0.900000
v -1.000000 0.850000 0.900000
v 0.850000 -0.850000 0.800000
v -1.000000 -0.850000 0.800000
v -1.000000 -0.850000 0.900000
v 0.850000 -0.850000 0.900000
v -1.000000 0.850000 0.800000
v 0.850000 0.850000 0.800000
v 0.850000 0.850000 0.900000
v -1.000000 0.850000 0.900000
v -3.000000 -1.000000 0.800000
v -2.850000 -0.850000 0.800000
v -1.000000 -0.850000 0.800000
v -1.000000 -1.000000 0.800000
v -1.000000 0.850000 0.800000
v -1.000000 1.000000 0.800000
v 1.000000 1.000000 0.800000
v 0.850000 0.850000 0.800000
v -2.850000 0.850000 0.800000
v -2.850000 0.850000 0.900000
v -2.850000 -0.850000 0.900000
v -2.850000 -0.850000 0.800000
v -3.000000 1.000000 0.800000
v -2.850000 0.850000 0.800000
v -2.850000 -0.850000 0.800000
v -3.000000 -1.000000 0.800000
v -3.000000 -1.000000 0.800000
v -3.000000 -1.000000 1.000000
v -3.000000 1.000000 1.000000
v -3.000000 1.000000 0.800000
v -1.000000 -1.000000 1.000000
v -1.000000 -1.000000 0.800000
v 1.000000 -1.000000 0.800000
v 1.000000 -1.000000 1.000000
v -3.000000 -1.000000 1.000000
v -1.000000 -1.000000 1.000000
v -1.000000 1.000000 1.000000
v -3.000000 1.000000 1.000000
v -3.000000 1.000000 0.800000
v -3.000000 1.000000 1.000000
v -1.000000 1.000000 1.000000
v -1.000000 1.000000 0.800000

vt 0.074579 0.500000
vt 0.032036 0.074579
vt 0.032037 0.500000
vt 0.074579 0.074579
vt 0.032036 0.074579
vt 0.074579 0.500000
vt 0.074579 0.500000
vt 0.500000 0.074579
vt 0.074579 0.074579
vt 0.500000 0.500000
vt 0.500000 0.074579
vt 0.074579 0.500000
vt 0.542542 0.925421
vt 0.500000 0.500000
vt 0.500000 0.925421
vt 0.542542 0.500000
vt 0.500000 0.500000
vt 0.542542 0.925421
vt 0.032037 0.925421
vt 0.000130 0.500000
vt 0.000131 0.893515
vt 0.032037 0.500000
vt 0.000130 0.500000
vt 0.032037 0.925421
vt 0.074579 0.074579
vt 0.500000 0.032036
vt 0.074579 0.032037
vt 0.500000 0.074579
vt 0.500000 0.032036
vt 0.074579 0.074579
vt 0.468093 0.000130
vt 0.074579 0.032037
vt 0.500000 0.032036
vt 0.106485 0.000130
vt 0.074579 0.032037
vt 0.468093 0.000130
vt 0.639043 0.043192
vt 0.617771 0.404797
vt 0.617772 0.043192
vt 0.639043 0.404797
vt 0.617771 0.404797
vt 0.639043 0.043192
vt 0.968224 0.042932
vt 0.574709 0.021661
vt 0.574709 0.042932
vt 0.968224 0.021661
vt 0.574709 0.021661
vt 0.968224 0.042932
vt 0.574449 0.500000
vt 0.542542 0.074579
vt 0.542542 0.500000
vt 0.574449 0.106485
vt 0.542542 0.074579
vt 0.574449 0.500000
vt 0.574709 0.000130
vt 0.968220 0.021401
vt 0.968220 0.000130
vt 0.574709 0.021401
vt 0.968220 0.021401
vt 0.574709 0.000130
vt 0.968222 0.458237
vt 0.574709 0.436966
vt 0.968222 0.436966
vt 0.574709 0.458237
vt 0.574709 0.436966
vt 0.968222 0.458237
vt 0.574709 0.436706
vt 0.595980 0.043192
vt 0.595980 0.436706
vt 0.574709 0.043192
vt 0.595980 0.043192
vt 0.574709 0.436706
vt 0.574449 0.500000
vt 0.542542 0.925421
vt 0.574449 0.893515
vt 0.542542 0.500000
vt 0.542542 0.925421
vt 0.574449 0.500000
vt 0.032036 0.074579
vt 0.000130 0.500000
vt 0.032037 0.500000
vt 0.000130 0.106485
vt 0.000130 0.500000
vt 0.032036 0.074579
vt 0.617511 0.043192
vt 0.596240 0.404797
vt 0.617511 0.404797
vt 0.596240 0.043192
vt 0.596240 0.404797
vt 0.617511 0.043192
vt 0.468094 0.999870
vt 0.074579 0.967963
vt 0.106486 0.999870
vt 0.500000 0.967963
vt 0.074579 0.967963
vt 0.468094 0.999870
vt 0.074579 0.925421
vt 0.500000 0.967963
vt 0.500000 0.925421
vt 0.074579 0.967963
vt 0.500000 0.967963
vt 0.074579 0.925421
vt 0.542542 0.074579
vt 0.500000 0.500000
vt 0.542542 0.500000
vt 0.500000 0.074579
vt 0.500000 0.500000
vt 0.542542 0.074579
vt 0.074579 0.500000
vt 0.500000 0.925421
vt 0.500000 0.500000
vt 0.074579 0.925421
vt 0.500000 0.925421
vt 0.074579 0.500000
vt 0.074579 0.500000
vt 0.032037 0.925421
vt 0.074579 0.925421
vt 0.032037 0.500000
vt 0.032037 0.925421
vt 0.074579 0.500000
vt -0.000132 1.000358
vt 0.499800 0.000600
vt 0.499800 1.000358
vt -0.000132 0.000600
vt 0.499800 0.000600
vt -0.000132 1.000358
vt 0.999732 1.000358
vt 0.499800 0.000600
vt 0.999732 0.000600
vt 0.499800 1.000358
vt 0.499800 0.000600
vt 0.999732 1.000358

vn -0.000000 1.000000 0.000000
vn -0.000000 1.000000 0.000000
vn -0.000000 1.000000 0.000000
vn -0.000000 1.000000 0.000000
vn -0.000000 1.000000 0.000000
vn -0.000000 1.000000 0.000000
vn 0.000000 0.000000 1.000000
vn 0.000000 0.000000 1.000000
vn 0.000000 0.000000 1.000000
vn 0.000000 0.000000 1.000000
vn 0.000000 0.000000 1.000000
vn 0.000000 0.000000 1.000000
vn -0.000000 -1.000000 0.000000
vn -0.000000 -1.000000 0.000000
vn -0.000000 -1.000000 0.000000
vn -0.000000 -1.000000 0.000000
vn -0.000000 -1.000000 0.000000
vn -0.000000 -1.000000 0.000000
vn 0.000000 0.000001 -1.000000
vn 0.000000 0.000001 -1.000000
vn 0.000000 0.000001 -1.000000
vn 0.000000 0.000000 -1.000000
vn 0.000000 0.000000 -1.000000
vn 0.000000 0.000000 -1.000000
vn 1.000000 0.000000 0.000000
vn 1.000000 0.000000 0.000000
vn 1.000000 0.000000 0.000000
vn 1.000000 0.000000 -0.000001
vn 1.000000 0.000000 -0.000001
vn 1.000000 0.000000 -0.000001
vn -0.000000 0.000000 -1.000000
vn -0.000000 0.000000 -1.000000
vn -0.000000 0.000000 -1.000000
vn -0.000000 0.000000 -1.000000
vn -0.000000 0.000000 -1.000000
vn -0.000000 0.000000 -1.000000
vn -1.000000 0.000000 0.000000
vn -1.000000 0.000000 0.000000
vn -1.000000 0.000000 0.000000
vn -1.000000 0.000000 0.000000
vn -1.000000 0.000000 0.000000
vn -1.000000 0.000000 0.000000
vn -0.000000 -1.000000 0.000000
vn -0.000000 -1.000000 0.000000
vn -0.000000 -1.000000 0.000000
vn -0.000000 -1.000000 0.000000
vn -0.000000 -1.000000 0.000000
vn -0.000000 -1.000000 0.000000
vn -0.000000 0.000000 -1.000000
vn -0.000000 0.000000 -1.000000
vn -0.000000 0.000000 -1.000000
vn -0.000000 -0.000001 -1.000000
vn -0.000000 -0.000001 -1.000000
vn -0.000000 -0.000001 -1.000000
vn -0.000000 1.000000 0.000000
vn -0.000000 1.000000 0.000000
vn -0.000000 1.000000 0.000000
vn -0.000000 1.000000 0.000000
vn -0.000000 1.000000 0.000000
vn -0.000000 1.000000 0.000000
vn -0.000000 1.000000 0.000000
vn -0.000000 1.000000 0.000000
vn -0.000000 1.000000 0.000000
vn -0.000000 1.000000 0.000000
vn -0.000000 1.000000 0.000000
vn -0.000000 1.000000 0.000000
vn -0.000000 -1.000000 0.000000
vn -0.000000 -1.000000 0.000000
vn -0.000000 -1.000000 0.000000
vn -0.000000 -1.000000 0.000000
vn -0.000000 -1.000000 0.000000
vn -0.000000 -1.000000 0.000000
vn 0.000000 -0.000001 -1.000000
vn 0.000000 -0.000001 -1.000000
vn 0.000000 -0.000001 -1.000000
vn 0.000000 0.000000 -1.000000
vn 0.000000 0.000000 -1.000000
vn 0.000000 0.000000 -1.000000
vn -0.000000 0.000000 -1.000000
vn -0.000000 0.000000 -1.000000
vn -0.000000 0.000000 -1.000000
vn -0.000000 0.000001 -1.000000
vn -0.000000 0.000001 -1.000000
vn -0.000000 0.000001 -1.000000
vn 1.000000 0.000000 0.000000
vn 1.000000 0.000000 0.000000
vn 1.000000 0.000000 0.000000
vn 1.000000 0.000000 0.000000
vn 1.000000 0.000000 0.000000
vn 1.000000 0.000000 0.000000
vn 0.000001 0.000000 -1.000000
vn 0.000001 0.000000 -1.000000
vn 0.000001 0.000000 -1.000000
vn 0.000001 0.000000 -1.000000
vn 0.000001 0.000000 -1.000000
vn 0.000001 0.000000 -1.000000
vn -1.000000 0.000000 0.000000
vn -1.000000 0.000000 0.000000
vn -1.000000 0.000000 0.000000
vn -1.000000 0.000000 0.000000
vn -1.000000 0.000000 0.000000
vn -1.000000 0.000000 0.000000
vn -0.000000 -1.000000 0.000000
vn -0.000000 -1.000000 0.000000
vn -0.000000 -1.000000 0.000000
vn -0.000000 -1.000000 0.000000
vn -0.000000 -1.000000 0.000000
vn -0.000000 -1.000000 0.000000
vn -0.000000 0.000000 1.000000
vn -0.000000 0.000000 1.000000
vn -0.000000 0.000000 1.000000
vn -0.000000 0.000000 1.000000
vn -0.000000 0.000000 1.000000
vn -0.000000 0.000000 1.000000
vn -0.000000 1.000000 0.000000
vn -0.000000 1.000000 0.000000
vn -0.000000 1.000000 0.000000
vn -0.000000 1.000000 0.000000
vn -0.000000 1.000000 0.000000
vn -0.000000 1.000000 0.000000
vn -0.000000 0.000000 -1.000000
vn -0.000000 0.000000 -1.000000
vn -0.000000 0.000000 -1.000000
vn -0.000000 0.000000 -1.000000
vn -0.000000 0.000000 -1.000000
vn -0.000000 0.000000 -1.000000
vn 0.000000 0.000000 -1.000000
vn 0.000000 0.000000 -1.000000
vn 0.000000 0.000000 -1.000000
vn 0.000000 0.000000 -1.000000
vn 0.000000 0.000000 -1.000000
vn 0.000000 0.000000 -1.000000

g Material
f 3/1/1 1/2/2 2/3/3
f 4/4/4 1/5/5 3/6/6
f 7/7/7 5/8/8 6/9/9
f 8/10/10 5/11/11 7/12/12
f 11/13/13 9/14/14 10/15/15
f 12/16/16 9/17/17 11/18/18
f 15/19/19 13/20/20 14/21/21
f 16/22/22 13/23/23 15/24/24
f 19/25/25 17/26/26 18/27/27
f 20/28/28 17/29/29 19/30/30
f 23/31/31 21/32/32 22/33/33
f 24/34/34 21/35/35 23/36/36
f 27/37/37 25/38/38 26/39/39
f 28/40/40 25/41/41 27/42/42
f 31/43/43 29/44/44 30/45/45
f 32/46/46 29/47/47 31/48/48
f 35/49/49 33/50/50 34/51/51
f 36/52/52 33/53/53 35/54/54
f 39/55/55 37/56/56 38/57/57
f 40/58/58 37/59/59 39/60/60
f 51/61/61 49/62/62 50/63/63
f 52/64/64 49/65/65 51/66/66
f 55/67/67 53/68/68 54/69/69
f 56/70/70 53/71/71 55/72/72
f 59/73/73 57/74/74 58/75/75
f 60/76/76 57/77/77 59/78/78
f 63/79/79 61/80/80 62/81/81
f 64/82/82 61/83/83 63/84/84
f 67/85/85 65/86/86 66/87/87
f 68/88/88 65/89/89 67/90/90
f 71/91/91 69/92/92 70/93/93
f 72/94/94 69/95/95 71/96/96
f 75/97/97 73/98/98 74/99/99
f 76/100/100 73/101/101 75/102/102
f 79/103/103 77/104/104 78/105/105
f 80/106/106 77/107/107 79/108/108
f 83/109/109 81/110/110 82/111/111
f 84/112/112 81/113/113 83/114/114
f 87/115/115 85/116/116 86/117/117
f 88/118/118 85/119/119 87/120/120

g Material.001
f 43/121/121 41/122/122 42/123/123
f 44/124/124 41/125/125 43/126/126
f 47/127/127 45/128/128 46/129/129
f 48/130/130 45/131/131 47/132/132

