# Converted from B3D for Luanti (With Correct Normals)
# Object Name: multidecor_round_soft_metallic_chair

v 0.630349 0.236569 -0.971652
v 0.739400 0.317291 -0.810553
v 0.803076 0.236569 -0.874230
v -0.630348 0.075011 -0.971652
v -0.803076 0.236569 -0.874230
v -0.630348 0.236569 -0.971652
v -0.803076 0.075011 -0.874230
v -0.803076 0.236569 -0.874230
v -0.630348 0.075011 -0.971652
v -0.900498 0.236569 -0.701502
v -0.899537 0.075011 0.073469
v -0.900017 0.236569 0.073469
v -0.900498 0.075011 -0.701502
v -0.899537 0.075011 0.073469
v -0.900498 0.236569 -0.701502
v 0.900498 0.236569 -0.701502
v 0.739499 0.317291 0.073469
v 0.900017 0.236569 0.073470
v 0.739400 0.317291 -0.810553
v 0.739499 0.317291 0.073469
v 0.900498 0.236569 -0.701502
v 0.900498 0.075011 -0.701502
v 0.630349 0.075011 -0.971652
v 0.803076 0.075011 -0.874230
v 0.739400 -0.005711 -0.810553
v 0.630349 0.075011 -0.971652
v 0.900498 0.075011 -0.701502
v 0.900498 0.075011 -0.701502
v 0.803076 0.236569 -0.874230
v 0.900498 0.236569 -0.701502
v 0.803076 0.075011 -0.874230
v 0.803076 0.236569 -0.874230
v 0.900498 0.075011 -0.701502
v -0.739400 -0.005711 -0.810553
v -0.803076 0.075011 -0.874230
v -0.630348 0.075011 -0.971652
v -0.900498 0.075011 -0.701502
v -0.803076 0.075011 -0.874230
v -0.739400 -0.005711 -0.810553
v 0.739400 -0.005711 -0.810553
v -0.630348 0.075011 -0.971652
v 0.630349 0.075011 -0.971652
v -0.739400 -0.005711 -0.810553
v -0.630348 0.075011 -0.971652
v 0.739400 -0.005711 -0.810553
v -0.739400 0.317291 -0.810553
v -0.900017 0.236569 0.073469
v -0.739499 0.317291 0.073469
v -0.900498 0.236569 -0.701502
v -0.900017 0.236569 0.073469
v -0.739400 0.317291 -0.810553
v 0.739400 0.317291 -0.810553
v -0.739499 0.317291 0.073469
v 0.739499 0.317291 0.073469
v -0.739400 0.317291 -0.810553
v -0.739499 0.317291 0.073469
v 0.739400 0.317291 -0.810553
v -0.630348 0.075011 -0.971652
v 0.630349 0.236569 -0.971652
v 0.630349 0.075011 -0.971652
v -0.630348 0.236569 -0.971652
v 0.630349 0.236569 -0.971652
v -0.630348 0.075011 -0.971652
v 0.803076 0.075011 -0.874230
v 0.630349 0.236569 -0.971652
v 0.803076 0.236569 -0.874230
v 0.630349 0.075011 -0.971652
v 0.630349 0.236569 -0.971652
v 0.803076 0.075011 -0.874230
v -0.803076 0.236569 -0.874230
v -0.900498 0.236569 -0.701502
v -0.739400 0.317291 -0.810553
v 0.630349 0.236569 -0.971652
v -0.739400 0.317291 -0.810553
v 0.739400 0.317291 -0.810553
v -0.630348 0.236569 -0.971652
v -0.739400 0.317291 -0.810553
v 0.630349 0.236569 -0.971652
v -0.900498 0.075011 -0.701502
v -0.803076 0.236569 -0.874230
v -0.803076 0.075011 -0.874230
v -0.900498 0.236569 -0.701502
v -0.803076 0.236569 -0.874230
v -0.900498 0.075011 -0.701502
v -0.803076 0.236569 -0.874230
v -0.739400 0.317291 -0.810553
v -0.630348 0.236569 -0.971652
v 0.900498 0.236569 -0.701502
v 0.803076 0.236569 -0.874230
v 0.739400 0.317291 -0.810553
v -1.135243 1.034802 -0.284450
v -1.048828 0.001666 0.149989
v -1.048828 1.034802 0.149989
v -1.135243 0.001666 -0.284450
v -1.048828 0.001666 0.149989
v -1.135243 1.034802 -0.284450
v -0.954930 1.034802 -0.284450
v -1.135243 0.001666 -0.284450
v -1.135243 1.034802 -0.284450
v -0.954930 0.001666 -0.284450
v -1.135243 0.001666 -0.284450
v -0.954930 1.034802 -0.284450
v 0.954930 1.034802 -0.284449
v 0.882240 0.001666 0.080986
v 0.882240 1.034802 0.080986
v 0.954930 0.001666 -0.284449
v 0.882240 0.001666 0.080986
v 0.954930 1.034802 -0.284449
v 1.135243 1.034802 -0.284450
v 0.954930 0.001666 -0.284449
v 0.954930 1.034802 -0.284449
v 1.135243 0.001666 -0.284450
v 0.954930 0.001666 -0.284449
v 1.135243 1.034802 -0.284450
v 0.954930 0.001666 -0.284449
v 1.048828 0.001666 0.149989
v 0.882240 0.001666 0.080986
v 1.135243 0.001666 -0.284450
v 1.048828 0.001666 0.149989
v 0.954930 0.001666 -0.284449
v 1.135243 1.034802 -0.284450
v 0.882240 1.034802 0.080986
v 1.048828 1.034802 0.149989
v 0.954930 1.034802 -0.284449
v 0.882240 1.034802 0.080986
v 1.135243 1.034802 -0.284450
v -0.000000 1.696523 0.850793
v -0.365436 1.640099 0.597790
v -0.434439 1.640099 0.764378
v -0.000000 1.696523 0.670480
v -0.365436 1.640099 0.597790
v -0.000000 1.696523 0.850793
v -0.000000 0.001666 0.670480
v -0.434439 0.001666 0.764378
v -0.365436 0.001666 0.597790
v -0.000000 0.001666 0.850793
v -0.434439 0.001666 0.764378
v -0.000000 0.001666 0.670480
v -0.000000 1.696523 0.670480
v -0.365436 0.001666 0.597790
v -0.365436 1.640099 0.597790
v -0.000000 0.001666 0.670480
v -0.365436 0.001666 0.597790
v -0.000000 1.696523 0.670480
v -0.000000 1.696523 0.850793
v 0.434439 0.001666 0.764378
v 0.434439 1.640099 0.764378
v -0.000000 0.001666 0.850793
v 0.434439 0.001666 0.764378
v -0.000000 1.696523 0.850793
v 0.802738 1.433732 0.518288
v 1.048828 0.001666 0.149989
v 1.048828 1.034802 0.149989
v 0.802738 0.001666 0.518288
v 1.048828 0.001666 0.149989
v 0.802738 1.433732 0.518288
v 0.802738 1.433732 0.518288
v 0.365436 1.640099 0.597790
v 0.434439 1.640099 0.764378
v 0.675237 1.433732 0.390787
v 0.365436 1.640099 0.597790
v 0.802738 1.433732 0.518288
v 0.675237 0.001666 0.390787
v 0.434439 0.001666 0.764378
v 0.365436 0.001666 0.597790
v 0.802738 0.001666 0.518288
v 0.434439 0.001666 0.764378
v 0.675237 0.001666 0.390787
v 0.675237 1.433732 0.390787
v 0.365436 0.001666 0.597790
v 0.365436 1.640099 0.597790
v 0.675237 0.001666 0.390787
v 0.365436 0.001666 0.597790
v 0.675237 1.433732 0.390787
v -0.675237 1.433732 0.390787
v -0.882240 0.001666 0.080986
v -0.882240 1.034802 0.080986
v -0.675237 0.001666 0.390787
v -0.882240 0.001666 0.080986
v -0.675237 1.433732 0.390787
v -0.675237 0.001666 0.390787
v -1.048828 0.001666 0.149989
v -0.882240 0.001666 0.080986
v -0.802738 0.001666 0.518288
v -1.048828 0.001666 0.149989
v -0.675237 0.001666 0.390787
v -0.802738 1.433732 0.518288
v -0.882240 1.034802 0.080986
v -1.048828 1.034802 0.149989
v -0.675237 1.433732 0.390787
v -0.882240 1.034802 0.080986
v -0.802738 1.433732 0.518288
v -0.802738 1.433732 0.518288
v -0.434439 0.001666 0.764378
v -0.434439 1.640099 0.764378
v -0.802738 0.001666 0.518288
v -0.434439 0.001666 0.764378
v -0.802738 1.433732 0.518288
v -0.434439 1.640099 0.764378
v -0.000000 0.001666 0.850793
v -0.000000 1.696523 0.850793
v -0.434439 0.001666 0.764378
v -0.000000 0.001666 0.850793
v -0.434439 1.640099 0.764378
v -0.365436 1.640099 0.597790
v -0.675237 0.001666 0.390787
v -0.675237 1.433732 0.390787
v -0.365436 0.001666 0.597790
v -0.675237 0.001666 0.390787
v -0.365436 1.640099 0.597790
v -0.365436 0.001666 0.597790
v -0.802738 0.001666 0.518288
v -0.675237 0.001666 0.390787
v -0.434439 0.001666 0.764378
v -0.802738 0.001666 0.518288
v -0.365436 0.001666 0.597790
v -0.434439 1.640099 0.764378
v -0.675237 1.433732 0.390787
v -0.802738 1.433732 0.518288
v -0.365436 1.640099 0.597790
v -0.675237 1.433732 0.390787
v -0.434439 1.640099 0.764378
v -1.048828 1.034802 0.149989
v -0.954930 1.034802 -0.284450
v -1.135243 1.034802 -0.284450
v -0.882240 1.034802 0.080986
v -0.954930 1.034802 -0.284450
v -1.048828 1.034802 0.149989
v -0.882240 0.001666 0.080986
v -1.135243 0.001666 -0.284450
v -0.954930 0.001666 -0.284450
v -1.048828 0.001666 0.149989
v -1.135243 0.001666 -0.284450
v -0.882240 0.001666 0.080986
v -0.882240 1.034802 0.080986
v -0.954930 0.001666 -0.284450
v -0.954930 1.034802 -0.284450
v -0.882240 0.001666 0.080986
v -0.954930 0.001666 -0.284450
v -0.882240 1.034802 0.080986
v -1.048828 1.034802 0.149989
v -0.802738 0.001666 0.518288
v -0.802738 1.433732 0.518288
v -1.048828 0.001666 0.149989
v -0.802738 0.001666 0.518288
v -1.048828 1.034802 0.149989
v 0.365436 1.640099 0.597790
v -0.000000 0.001666 0.670480
v -0.000000 1.696523 0.670480
v 0.365436 0.001666 0.597790
v -0.000000 0.001666 0.670480
v 0.365436 1.640099 0.597790
v 0.365436 0.001666 0.597790
v -0.000000 0.001666 0.850793
v -0.000000 0.001666 0.670480
v 0.434439 0.001666 0.764378
v -0.000000 0.001666 0.850793
v 0.365436 0.001666 0.597790
v 0.434439 1.640099 0.764378
v -0.000000 1.696523 0.670480
v -0.000000 1.696523 0.850793
v 0.365436 1.640099 0.597790
v -0.000000 1.696523 0.670480
v 0.434439 1.640099 0.764378
v 0.434439 1.640099 0.764378
v 0.802738 0.001666 0.518288
v 0.802738 1.433732 0.518288
v 0.434439 0.001666 0.764378
v 0.802738 0.001666 0.518288
v 0.434439 1.640099 0.764378
v 1.048828 1.034802 0.149989
v 1.135243 0.001666 -0.284450
v 1.135243 1.034802 -0.284450
v 1.048828 0.001666 0.149989
v 1.135243 0.001666 -0.284450
v 1.048828 1.034802 0.149989
v 1.048828 1.034802 0.149989
v 0.675237 1.433732 0.390787
v 0.802738 1.433732 0.518288
v 0.882240 1.034802 0.080986
v 0.675237 1.433732 0.390787
v 1.048828 1.034802 0.149989
v 0.882240 0.001666 0.080986
v 0.802738 0.001666 0.518288
v 0.675237 0.001666 0.390787
v 1.048828 0.001666 0.149989
v 0.802738 0.001666 0.518288
v 0.882240 0.001666 0.080986
v 0.882240 1.034802 0.080986
v 0.675237 0.001666 0.390787
v 0.675237 1.433732 0.390787
v 0.882240 0.001666 0.080986
v 0.675237 0.001666 0.390787
v 0.882240 1.034802 0.080986
v 0.900017 0.236569 0.073470
v 0.900498 0.075011 -0.701502
v 0.900498 0.236569 -0.701502
v 0.899537 0.075011 0.073470
v 0.900498 0.075011 -0.701502
v 0.900017 0.236569 0.073470
v 0.739598 -0.005711 0.073469
v -0.739400 -0.005711 -0.810553
v 0.739400 -0.005711 -0.810553
v -0.739598 -0.005711 0.073469
v -0.739400 -0.005711 -0.810553
v 0.739598 -0.005711 0.073469
v -0.739598 -0.005711 0.073469
v -0.900498 0.075011 -0.701502
v -0.739400 -0.005711 -0.810553
v -0.899537 0.075011 0.073469
v -0.900498 0.075011 -0.701502
v -0.739598 -0.005711 0.073469
v 0.899537 0.075011 0.073470
v 0.739400 -0.005711 -0.810553
v 0.900498 0.075011 -0.701502
v 0.739598 -0.005711 0.073469
v 0.739400 -0.005711 -0.810553
v 0.899537 0.075011 0.073470
v -0.739598 -0.005711 0.073469
v 0.739598 -0.005711 0.073469
v -0.000000 -0.005711 0.567786
v -0.566216 -0.005711 0.333251
v -0.739598 -0.005711 0.073469
v -0.306434 -0.005711 0.506832
v -0.000000 -0.005711 0.567786
v -0.306434 -0.005711 0.506832
v -0.739598 -0.005711 0.073469
v 0.306434 -0.005711 0.506832
v -0.000000 -0.005711 0.567786
v 0.739598 -0.005711 0.073469
v 0.566216 -0.005711 0.333252
v 0.306434 -0.005711 0.506832
v 0.739598 -0.005711 0.073469
v 0.899537 0.075011 0.073470
v 0.566216 -0.005711 0.333252
v 0.739598 -0.005711 0.073469
v 0.687925 0.075011 0.389092
v 0.566216 -0.005711 0.333252
v 0.899537 0.075011 0.073470
v 0.687925 0.075011 0.389092
v 0.306434 -0.005711 0.506832
v 0.566216 -0.005711 0.333252
v 0.372302 0.075011 0.599985
v 0.306434 -0.005711 0.506832
v 0.687925 0.075011 0.389092
v 0.372302 0.075011 0.599985
v -0.000000 -0.005711 0.567786
v 0.306434 -0.005711 0.506832
v -0.000000 0.075011 0.674040
v -0.000000 -0.005711 0.567786
v 0.372302 0.075011 0.599985
v -0.000000 0.075011 0.674040
v -0.306434 -0.005711 0.506832
v -0.000000 -0.005711 0.567786
v -0.372303 0.075011 0.599985
v -0.306434 -0.005711 0.506832
v -0.000000 0.075011 0.674040
v -0.372303 0.075011 0.599985
v -0.566216 -0.005711 0.333251
v -0.306434 -0.005711 0.506832
v -0.687926 0.075011 0.389092
v -0.566216 -0.005711 0.333251
v -0.372303 0.075011 0.599985
v -0.687926 0.075011 0.389092
v -0.739598 -0.005711 0.073469
v -0.566216 -0.005711 0.333251
v -0.899537 0.075011 0.073469
v -0.739598 -0.005711 0.073469
v -0.687926 0.075011 0.389092
v -0.372303 0.236569 0.599985
v -0.000000 0.075011 0.674040
v -0.000000 0.236569 0.674040
v -0.372303 0.075011 0.599985
v -0.000000 0.075011 0.674040
v -0.372303 0.236569 0.599985
v 0.372302 0.236569 0.599985
v 0.687925 0.075011 0.389092
v 0.687925 0.236569 0.389092
v 0.372302 0.075011 0.599985
v 0.687925 0.075011 0.389092
v 0.372302 0.236569 0.599985
v -0.687926 0.236569 0.389092
v -0.372303 0.075011 0.599985
v -0.372303 0.236569 0.599985
v -0.687926 0.075011 0.389092
v -0.372303 0.075011 0.599985
v -0.687926 0.236569 0.389092
v -0.000000 0.236569 0.674040
v 0.372302 0.075011 0.599985
v 0.372302 0.236569 0.599985
v -0.000000 0.075011 0.674040
v 0.372302 0.075011 0.599985
v -0.000000 0.236569 0.674040
v -0.687926 0.075011 0.389092
v -0.900017 0.236569 0.073469
v -0.899537 0.075011 0.073469
v -0.687926 0.236569 0.389092
v -0.900017 0.236569 0.073469
v -0.687926 0.075011 0.389092
v 0.687925 0.236569 0.389092
v 0.899537 0.075011 0.073470
v 0.900017 0.236569 0.073470
v 0.687925 0.075011 0.389092
v 0.899537 0.075011 0.073470
v 0.687925 0.236569 0.389092
v -0.000000 0.317291 0.567786
v 0.739499 0.317291 0.073469
v -0.739499 0.317291 0.073469
v -0.306434 0.317291 0.506832
v -0.739499 0.317291 0.073469
v -0.566216 0.317291 0.333251
v -0.739499 0.317291 0.073469
v -0.306434 0.317291 0.506832
v -0.000000 0.317291 0.567786
v 0.739499 0.317291 0.073469
v -0.000000 0.317291 0.567786
v 0.306434 0.317291 0.506832
v 0.739499 0.317291 0.073469
v 0.306434 0.317291 0.506832
v 0.566216 0.317291 0.333252
v 0.900017 0.236569 0.073470
v 0.566216 0.317291 0.333252
v 0.687925 0.236569 0.389092
v 0.739499 0.317291 0.073469
v 0.566216 0.317291 0.333252
v 0.900017 0.236569 0.073470
v 0.687925 0.236569 0.389092
v 0.306434 0.317291 0.506832
v 0.372302 0.236569 0.599985
v 0.566216 0.317291 0.333252
v 0.306434 0.317291 0.506832
v 0.687925 0.236569 0.389092
v 0.372302 0.236569 0.599985
v -0.000000 0.317291 0.567786
v -0.000000 0.236569 0.674040
v 0.306434 0.317291 0.506832
v -0.000000 0.317291 0.567786
v 0.372302 0.236569 0.599985
v -0.000000 0.236569 0.674040
v -0.306434 0.317291 0.506832
v -0.372303 0.236569 0.599985
v -0.000000 0.317291 0.567786
v -0.306434 0.317291 0.506832
v -0.000000 0.236569 0.674040
v -0.372303 0.236569 0.599985
v -0.566216 0.317291 0.333251
v -0.687926 0.236569 0.389092
v -0.306434 0.317291 0.506832
v -0.566216 0.317291 0.333251
v -0.372303 0.236569 0.599985
v -0.687926 0.236569 0.389092
v -0.739499 0.317291 0.073469
v -0.900017 0.236569 0.073469
v -0.566216 0.317291 0.333251
v -0.739499 0.317291 0.073469
v -0.687926 0.236569 0.389092
v 0.371442 0.001666 -0.590027
v 0.742885 -1.204210 -0.940563
v 0.342885 0.001666 -0.540563
v 0.771442 -1.204210 -0.990027
v 0.742885 -1.204210 -0.940563
v 0.371442 0.001666 -0.590027
v 0.428558 0.001666 -0.590027
v 0.771442 -1.204210 -0.990027
v 0.371442 0.001666 -0.590027
v 0.828558 -1.204210 -0.990027
v 0.771442 -1.204210 -0.990027
v 0.428558 0.001666 -0.590027
v 0.457115 0.001666 -0.540563
v 0.828558 -1.204210 -0.990027
v 0.428558 0.001666 -0.590027
v 0.857115 -1.204210 -0.940563
v 0.828558 -1.204210 -0.990027
v 0.457115 0.001666 -0.540563
v 0.428558 0.001666 -0.491100
v 0.857115 -1.204210 -0.940563
v 0.457115 0.001666 -0.540563
v 0.828558 -1.204210 -0.891100
v 0.857115 -1.204210 -0.940563
v 0.428558 0.001666 -0.491100
v 0.371442 0.001666 -0.491100
v 0.828558 -1.204210 -0.891100
v 0.428558 0.001666 -0.491100
v 0.771442 -1.204210 -0.891100
v 0.828558 -1.204210 -0.891100
v 0.371442 0.001666 -0.491100
v 0.342885 0.001666 -0.540563
v 0.771442 -1.204210 -0.891100
v 0.371442 0.001666 -0.491100
v 0.742885 -1.204210 -0.940563
v 0.771442 -1.204210 -0.891100
v 0.342885 0.001666 -0.540563
v 0.828558 -1.204210 -0.990027
v 0.742885 -1.204210 -0.940563
v 0.771442 -1.204210 -0.990027
v -0.449463 0.001666 -0.512006
v -0.800000 -1.204210 -0.883448
v -0.400000 0.001666 -0.483448
v -0.849463 -1.204210 -0.912006
v -0.800000 -1.204210 -0.883448
v -0.449463 0.001666 -0.512006
v -0.449463 0.001666 -0.569121
v -0.849463 -1.204210 -0.912006
v -0.449463 0.001666 -0.512006
v -0.849463 -1.204210 -0.969121
v -0.849463 -1.204210 -0.912006
v -0.449463 0.001666 -0.569121
v -0.400000 0.001666 -0.597679
v -0.849463 -1.204210 -0.969121
v -0.449463 0.001666 -0.569121
v -0.800000 -1.204210 -0.997679
v -0.849463 -1.204210 -0.969121
v -0.400000 0.001666 -0.597679
v -0.350537 0.001666 -0.569121
v -0.800000 -1.204210 -0.997679
v -0.400000 0.001666 -0.597679
v -0.750537 -1.204210 -0.969121
v -0.800000 -1.204210 -0.997679
v -0.350537 0.001666 -0.569121
v -0.350537 0.001666 -0.512006
v -0.750537 -1.204210 -0.969121
v -0.350537 0.001666 -0.569121
v -0.750537 -1.204210 -0.912006
v -0.750537 -1.204210 -0.969121
v -0.350537 0.001666 -0.512006
v -0.400000 0.001666 -0.483448
v -0.750537 -1.204210 -0.912006
v -0.350537 0.001666 -0.512006
v -0.800000 -1.204210 -0.883448
v -0.750537 -1.204210 -0.912006
v -0.400000 0.001666 -0.483448
v -0.849463 -1.204210 -0.969121
v -0.800000 -1.204210 -0.883448
v -0.849463 -1.204210 -0.912006
v -0.371442 0.001666 0.308900
v -0.742885 -1.204209 0.659436
v -0.342885 0.001666 0.259437
v -0.771442 -1.204209 0.708900
v -0.742885 -1.204209 0.659436
v -0.371442 0.001666 0.308900
v -0.428558 0.001666 0.308900
v -0.771442 -1.204209 0.708900
v -0.371442 0.001666 0.308900
v -0.828558 -1.204209 0.708900
v -0.771442 -1.204209 0.708900
v -0.428558 0.001666 0.308900
v -0.457115 0.001666 0.259437
v -0.828558 -1.204209 0.708900
v -0.428558 0.001666 0.308900
v -0.857115 -1.204209 0.659436
v -0.828558 -1.204209 0.708900
v -0.457115 0.001666 0.259437
v -0.428558 0.001666 0.209973
v -0.857115 -1.204209 0.659436
v -0.457115 0.001666 0.259437
v -0.828558 -1.204209 0.609973
v -0.857115 -1.204209 0.659436
v -0.428558 0.001666 0.209973
v -0.371442 0.001666 0.209973
v -0.828558 -1.204209 0.609973
v -0.428558 0.001666 0.209973
v -0.771442 -1.204209 0.609973
v -0.828558 -1.204209 0.609973
v -0.371442 0.001666 0.209973
v -0.342885 0.001666 0.259437
v -0.771442 -1.204209 0.609973
v -0.371442 0.001666 0.209973
v -0.742885 -1.204209 0.659436
v -0.771442 -1.204209 0.609973
v -0.342885 0.001666 0.259437
v -0.828558 -1.204209 0.708900
v -0.742885 -1.204209 0.659436
v -0.771442 -1.204209 0.708900
v 0.449463 0.001666 0.230879
v 0.800000 -1.204209 0.602321
v 0.400000 0.001666 0.202321
v 0.849463 -1.204209 0.630879
v 0.800000 -1.204209 0.602321
v 0.449463 0.001666 0.230879
v 0.449463 0.001666 0.287994
v 0.849463 -1.204209 0.630879
v 0.449463 0.001666 0.230879
v 0.849463 -1.204209 0.687994
v 0.849463 -1.204209 0.630879
v 0.449463 0.001666 0.287994
v 0.400000 0.001666 0.316552
v 0.849463 -1.204209 0.687994
v 0.449463 0.001666 0.287994
v 0.800000 -1.204209 0.716552
v 0.849463 -1.204209 0.687994
v 0.400000 0.001666 0.316552
v 0.350537 0.001666 0.287994
v 0.800000 -1.204209 0.716552
v 0.400000 0.001666 0.316552
v 0.750537 -1.204209 0.687994
v 0.800000 -1.204209 0.716552
v 0.350537 0.001666 0.287994
v 0.350537 0.001666 0.230879
v 0.750537 -1.204209 0.687994
v 0.350537 0.001666 0.287994
v 0.750537 -1.204209 0.630879
v 0.750537 -1.204209 0.687994
v 0.350537 0.001666 0.230879
v 0.400000 0.001666 0.202321
v 0.750537 -1.204209 0.630879
v 0.350537 0.001666 0.230879
v 0.800000 -1.204209 0.602321
v 0.750537 -1.204209 0.630879
v 0.400000 0.001666 0.202321
v 0.849463 -1.204209 0.687994
v 0.800000 -1.204209 0.602321
v 0.849463 -1.204209 0.630879

vt 0.927086 0.410817
vt 0.944642 0.443120
vt 0.911516 0.425856
vt 0.997878 0.323768
vt 0.965324 0.309703
vt 0.968818 0.362021
vt 0.965324 0.309703
vt 0.947259 0.338396
vt 0.968818 0.362021
vt 0.766653 0.388403
vt 0.928566 0.386326
vt 0.775575 0.355190
vt 0.928566 0.386326
vt 0.916512 0.354227
vt 0.775575 0.355190
vt 0.746211 0.389074
vt 0.894953 0.391339
vt 0.747115 0.423160
vt 0.894953 0.391339
vt 0.911516 0.425856
vt 0.747115 0.423160
vt 0.925918 0.410206
vt 0.893538 0.390864
vt 0.944641 0.443120
vt 0.893538 0.390864
vt 0.910099 0.425656
vt 0.944641 0.443120
vt 0.935230 0.014911
vt 0.920923 0.048786
vt 0.976140 0.042282
vt 0.920923 0.048786
vt 0.951627 0.064371
vt 0.976140 0.042282
vt 0.944641 0.674773
vt 0.911514 0.692038
vt 0.927085 0.707078
vt 0.911514 0.692038
vt 0.894949 0.726555
vt 0.927085 0.707078
vt 0.944641 0.443120
vt 0.910099 0.425656
vt 0.944641 0.674773
vt 0.910099 0.425656
vt 0.911514 0.692038
vt 0.944641 0.674773
vt 0.747628 0.697421
vt 0.910101 0.692226
vt 0.747067 0.731106
vt 0.910101 0.692226
vt 0.893543 0.727016
vt 0.747067 0.731106
vt 0.747115 0.423160
vt 0.911516 0.425856
vt 0.747628 0.697421
vt 0.911516 0.425856
vt 0.910101 0.692226
vt 0.747628 0.697421
vt 0.968436 0.092772
vt 0.965324 0.309703
vt 0.997878 0.082718
vt 0.965324 0.309703
vt 0.997878 0.323768
vt 0.997878 0.082718
vt 0.976140 0.042282
vt 0.951627 0.064371
vt 0.997878 0.082718
vt 0.951627 0.064371
vt 0.968436 0.092772
vt 0.997878 0.082718
vt 0.910101 0.692226
vt 0.925920 0.707674
vt 0.893543 0.727016
vt 0.911516 0.425856
vt 0.944642 0.443120
vt 0.910101 0.692226
vt 0.944642 0.443120
vt 0.944642 0.674762
vt 0.910101 0.692226
vt 0.947259 0.338396
vt 0.916512 0.354227
vt 0.968818 0.362021
vt 0.916512 0.354227
vt 0.928566 0.386326
vt 0.968818 0.362021
vt 0.944642 0.674762
vt 0.925920 0.707674
vt 0.910101 0.692226
vt 0.911516 0.425856
vt 0.894953 0.391339
vt 0.927086 0.410817
vt 0.122985 0.082436
vt 0.122985 0.000336
vt 0.314475 0.082436
vt 0.122985 0.000336
vt 0.314475 0.000336
vt 0.314475 0.082436
vt 0.437796 0.619656
vt 0.437796 0.586236
vt 0.629286 0.619656
vt 0.437796 0.586236
vt 0.629286 0.586236
vt 0.629286 0.619656
vt 0.437795 0.102816
vt 0.437795 0.033757
vt 0.629285 0.102816
vt 0.437795 0.033757
vt 0.629285 0.033757
vt 0.629285 0.102816
vt 0.437795 0.033757
vt 0.437796 0.000336
vt 0.629285 0.033757
vt 0.437796 0.000336
vt 0.629285 0.000336
vt 0.629285 0.033757
vt 0.797238 0.807357
vt 0.797238 0.738298
vt 0.830016 0.813877
vt 0.797238 0.738298
vt 0.830016 0.731778
vt 0.830016 0.813877
vt 0.729665 0.731778
vt 0.729665 0.813877
vt 0.696886 0.738298
vt 0.729665 0.813877
vt 0.696886 0.807357
vt 0.696886 0.738298
vt 0.662750 0.731778
vt 0.662750 0.814541
vt 0.629957 0.738226
vt 0.662750 0.814541
vt 0.629961 0.808073
vt 0.629957 0.738226
vt 0.763787 0.890129
vt 0.763787 0.821069
vt 0.796566 0.896649
vt 0.763787 0.821069
vt 0.796566 0.814549
vt 0.796566 0.896649
vt 0.325605 0.379056
vt 0.315147 0.309996
vt 0.629285 0.379056
vt 0.315147 0.309996
vt 0.629285 0.309996
vt 0.629285 0.379056
vt 0.010794 0.410836
vt 0.000336 0.328736
vt 0.314475 0.410836
vt 0.000336 0.328736
vt 0.314475 0.328736
vt 0.314475 0.410836
vt 0.122985 0.575036
vt 0.049044 0.492936
vt 0.314475 0.575036
vt 0.049044 0.492936
vt 0.314475 0.492936
vt 0.314475 0.575036
vt 0.494585 0.773344
vt 0.494585 0.863916
vt 0.461657 0.779061
vt 0.494585 0.863916
vt 0.461691 0.858006
vt 0.461657 0.779061
vt 0.797238 0.890129
vt 0.797238 0.821069
vt 0.830016 0.896649
vt 0.797238 0.821069
vt 0.830016 0.814549
vt 0.830016 0.896649
vt 0.325605 0.240936
vt 0.363854 0.171876
vt 0.629285 0.240936
vt 0.363854 0.171876
vt 0.629285 0.171876
vt 0.629285 0.240936
vt 0.437796 0.517176
vt 0.363854 0.448116
vt 0.629286 0.517175
vt 0.363854 0.448116
vt 0.629286 0.448116
vt 0.629286 0.517175
vt 0.830688 0.807357
vt 0.830688 0.738298
vt 0.863466 0.813877
vt 0.830688 0.738298
vt 0.863466 0.731778
vt 0.863466 0.813877
vt 0.494778 0.662183
vt 0.494778 0.772672
vt 0.461657 0.666651
vt 0.494778 0.772672
vt 0.461710 0.767827
vt 0.461657 0.666651
vt 0.010794 0.246636
vt 0.049044 0.164536
vt 0.314475 0.246636
vt 0.049044 0.164536
vt 0.314475 0.164536
vt 0.314475 0.246636
vt 0.000336 0.328736
vt 0.010794 0.246636
vt 0.314475 0.328736
vt 0.010794 0.246636
vt 0.314475 0.246636
vt 0.314475 0.328736
vt 0.363854 0.448116
vt 0.325605 0.379056
vt 0.629286 0.448116
vt 0.325605 0.379056
vt 0.629285 0.379056
vt 0.629286 0.448116
vt 0.730337 0.807357
vt 0.730337 0.738298
vt 0.763115 0.813878
vt 0.730337 0.738298
vt 0.763115 0.731778
vt 0.763115 0.813878
vt 0.528377 0.773344
vt 0.528377 0.863917
vt 0.495449 0.779061
vt 0.528377 0.863917
vt 0.495483 0.858006
vt 0.495449 0.779061
vt 0.730337 0.896649
vt 0.730337 0.814549
vt 0.763115 0.890129
vt 0.730337 0.814549
vt 0.763115 0.821069
vt 0.763115 0.890129
vt 0.830688 0.890129
vt 0.830688 0.821069
vt 0.863466 0.896649
vt 0.830688 0.821069
vt 0.863466 0.814549
vt 0.863466 0.896649
vt 0.437796 0.586236
vt 0.437796 0.517176
vt 0.629286 0.586236
vt 0.437796 0.517176
vt 0.629286 0.517175
vt 0.629286 0.586236
vt 0.049044 0.164536
vt 0.122985 0.082436
vt 0.314475 0.164536
vt 0.122985 0.082436
vt 0.314475 0.082436
vt 0.314475 0.164536
vt 0.315147 0.309996
vt 0.325605 0.240936
vt 0.629285 0.309996
vt 0.325605 0.240936
vt 0.629285 0.240936
vt 0.629285 0.309996
vt 0.696886 0.890129
vt 0.696886 0.821069
vt 0.729665 0.896649
vt 0.696886 0.821069
vt 0.729665 0.814549
vt 0.729665 0.896649
vt 0.696215 0.731778
vt 0.696215 0.814541
vt 0.663422 0.738226
vt 0.696215 0.814541
vt 0.663426 0.808073
vt 0.663422 0.738226
vt 0.049044 0.492936
vt 0.010794 0.410836
vt 0.314475 0.492936
vt 0.010794 0.410836
vt 0.314475 0.410836
vt 0.314475 0.492936
vt 0.122985 0.657136
vt 0.122985 0.575036
vt 0.314475 0.657136
vt 0.122985 0.575036
vt 0.314475 0.575036
vt 0.314475 0.657136
vt 0.528570 0.662183
vt 0.528570 0.772672
vt 0.495449 0.666651
vt 0.528570 0.772672
vt 0.495502 0.767827
vt 0.495449 0.666651
vt 0.796566 0.738298
vt 0.796566 0.807357
vt 0.763787 0.731778
vt 0.796566 0.807357
vt 0.763787 0.813878
vt 0.763787 0.731778
vt 0.363854 0.171876
vt 0.437795 0.102816
vt 0.629285 0.171876
vt 0.437795 0.102816
vt 0.629285 0.102816
vt 0.629285 0.171876
vt 0.935230 0.014911
vt 0.778579 0.000336
vt 0.920923 0.048786
vt 0.778579 0.000336
vt 0.784792 0.031537
vt 0.920923 0.048786
vt 0.910099 0.425656
vt 0.747624 0.420456
vt 0.911514 0.692038
vt 0.747624 0.420456
vt 0.747117 0.694740
vt 0.911514 0.692038
vt 0.911514 0.692038
vt 0.747117 0.694740
vt 0.894949 0.726555
vt 0.747117 0.694740
vt 0.746209 0.728725
vt 0.894949 0.726555
vt 0.893538 0.390864
vt 0.747056 0.386869
vt 0.910099 0.425656
vt 0.747056 0.386869
vt 0.747624 0.420456
vt 0.910099 0.425656
vt 0.655674 0.557040
vt 0.747117 0.694740
vt 0.747624 0.420456
vt 0.666591 0.614146
vt 0.698768 0.662594
vt 0.747117 0.694740
vt 0.747117 0.694740
vt 0.655674 0.557040
vt 0.666591 0.614146
vt 0.747624 0.420456
vt 0.666976 0.500102
vt 0.655674 0.557040
vt 0.747624 0.420456
vt 0.699377 0.452049
vt 0.666976 0.500102
vt 0.747624 0.420456
vt 0.747056 0.386869
vt 0.699377 0.452049
vt 0.747056 0.386869
vt 0.685872 0.425602
vt 0.699377 0.452049
vt 0.699377 0.452049
vt 0.685872 0.425602
vt 0.666976 0.500102
vt 0.685872 0.425602
vt 0.644706 0.485484
vt 0.666976 0.500102
vt 0.666976 0.500102
vt 0.644706 0.485484
vt 0.655674 0.557040
vt 0.644706 0.485484
vt 0.629952 0.556949
vt 0.655674 0.557040
vt 0.655674 0.557040
vt 0.629952 0.556949
vt 0.666591 0.614146
vt 0.629952 0.556949
vt 0.644161 0.628631
vt 0.666591 0.614146
vt 0.666591 0.614146
vt 0.644161 0.628631
vt 0.698768 0.662594
vt 0.644161 0.628631
vt 0.684982 0.689062
vt 0.698768 0.662594
vt 0.698768 0.662594
vt 0.684982 0.689062
vt 0.747117 0.694740
vt 0.684982 0.689062
vt 0.746209 0.728725
vt 0.747117 0.694740
vt 0.629957 0.188430
vt 0.644885 0.272280
vt 0.664570 0.188657
vt 0.644885 0.272280
vt 0.676828 0.258544
vt 0.664570 0.188657
vt 0.701925 0.035729
vt 0.649460 0.105535
vt 0.725454 0.064133
vt 0.649460 0.105535
vt 0.681411 0.119985
vt 0.725454 0.064133
vt 0.644885 0.272280
vt 0.692685 0.343944
vt 0.676828 0.258544
vt 0.692685 0.343944
vt 0.716355 0.317894
vt 0.676828 0.258544
vt 0.649460 0.105535
vt 0.629957 0.188430
vt 0.681411 0.119985
vt 0.629957 0.188430
vt 0.664570 0.188657
vt 0.681411 0.119985
vt 0.775575 0.355190
vt 0.716355 0.317894
vt 0.766653 0.388403
vt 0.716355 0.317894
vt 0.692685 0.343944
vt 0.766653 0.388403
vt 0.778579 0.000336
vt 0.701925 0.035729
vt 0.784792 0.031537
vt 0.701925 0.035729
vt 0.725454 0.064133
vt 0.784792 0.031537
vt 0.747628 0.697421
vt 0.655679 0.560850
vt 0.747115 0.423160
vt 0.699380 0.665841
vt 0.666980 0.617787
vt 0.747628 0.697421
vt 0.655679 0.560850
vt 0.747628 0.697421
vt 0.666980 0.617787
vt 0.666593 0.503745
vt 0.747115 0.423160
vt 0.655679 0.560850
vt 0.698765 0.455294
vt 0.747115 0.423160
vt 0.666593 0.503745
vt 0.684977 0.428828
vt 0.746211 0.389074
vt 0.698765 0.455294
vt 0.746211 0.389074
vt 0.747115 0.423160
vt 0.698765 0.455294
vt 0.644162 0.489262
vt 0.684977 0.428828
vt 0.666593 0.503745
vt 0.684977 0.428828
vt 0.698765 0.455294
vt 0.666593 0.503745
vt 0.629957 0.560942
vt 0.644162 0.489262
vt 0.655679 0.560850
vt 0.644162 0.489262
vt 0.666593 0.503745
vt 0.655679 0.560850
vt 0.644711 0.632405
vt 0.629957 0.560942
vt 0.666980 0.617787
vt 0.629957 0.560942
vt 0.655679 0.560850
vt 0.666980 0.617787
vt 0.685874 0.692287
vt 0.644711 0.632405
vt 0.699380 0.665841
vt 0.644711 0.632405
vt 0.666980 0.617787
vt 0.699380 0.665841
vt 0.747067 0.731106
vt 0.685874 0.692287
vt 0.747628 0.697421
vt 0.685874 0.692287
vt 0.699380 0.665841
vt 0.747628 0.697421
vt 0.540537 0.974518
vt 0.503562 0.957886
vt 0.540535 0.029029
vt 0.503562 0.957886
vt 0.503560 0.012397
vt 0.540535 0.029029
vt 0.503562 0.957886
vt 0.464887 0.945710
vt 0.503560 0.012397
vt 0.464887 0.945710
vt 0.464889 0.000221
vt 0.503560 0.012397
vt 0.696779 0.945710
vt 0.656481 0.950167
vt 0.696779 0.000221
vt 0.656481 0.950167
vt 0.656482 0.004677
vt 0.696779 0.000221
vt 0.656481 0.950167
vt 0.619507 0.966799
vt 0.656482 0.004677
vt 0.619507 0.966799
vt 0.619507 0.021309
vt 0.656482 0.004677
vt 0.619507 0.966799
vt 0.580835 0.978974
vt 0.619507 0.021309
vt 0.580835 0.978974
vt 0.580833 0.033485
vt 0.619507 0.021309
vt 0.580835 0.978974
vt 0.540537 0.974518
vt 0.580833 0.033485
vt 0.540537 0.974518
vt 0.540535 0.029029
vt 0.580833 0.033485
vt 0.999779 0.061036
vt 0.964668 0.081307
vt 0.999779 0.020492
vt 0.348501 0.004677
vt 0.385475 0.021309
vt 0.348502 0.950182
vt 0.385475 0.021309
vt 0.385476 0.966814
vt 0.348502 0.950182
vt 0.385475 0.021309
vt 0.424147 0.033485
vt 0.385476 0.966814
vt 0.424147 0.033485
vt 0.424147 0.978988
vt 0.385476 0.966814
vt 0.424147 0.033485
vt 0.464445 0.029028
vt 0.424147 0.978988
vt 0.464445 0.029028
vt 0.464445 0.974532
vt 0.424147 0.978988
vt 0.232556 0.029029
vt 0.269531 0.012396
vt 0.232560 0.974531
vt 0.269531 0.012396
vt 0.269533 0.957900
vt 0.232560 0.974531
vt 0.269531 0.012396
vt 0.308204 0.000221
vt 0.269533 0.957900
vt 0.308204 0.000221
vt 0.308203 0.945725
vt 0.269533 0.957900
vt 0.308204 0.000221
vt 0.348501 0.004677
vt 0.308203 0.945725
vt 0.348501 0.004677
vt 0.348502 0.950182
vt 0.308203 0.945725
vt 0.999779 0.305620
vt 0.964668 0.325891
vt 0.999779 0.265077
vt 0.191816 0.974513
vt 0.154839 0.957881
vt 0.191817 0.029030
vt 0.154839 0.957881
vt 0.154841 0.012397
vt 0.191817 0.029030
vt 0.154839 0.957881
vt 0.116167 0.945705
vt 0.154841 0.012397
vt 0.116167 0.945705
vt 0.116167 0.000221
vt 0.154841 0.012397
vt 0.116167 0.945705
vt 0.075870 0.950162
vt 0.116167 0.000221
vt 0.075870 0.950162
vt 0.075869 0.004677
vt 0.116167 0.000221
vt 0.075870 0.950162
vt 0.038896 0.966793
vt 0.075869 0.004677
vt 0.038896 0.966793
vt 0.038893 0.021310
vt 0.075869 0.004677
vt 0.038896 0.966793
vt 0.000224 0.978969
vt 0.038893 0.021310
vt 0.000224 0.978969
vt 0.000221 0.033486
vt 0.038893 0.021310
vt 0.232115 0.978970
vt 0.191816 0.974513
vt 0.232115 0.033486
vt 0.191816 0.974513
vt 0.191817 0.029030
vt 0.232115 0.033486
vt 0.964668 0.162835
vt 0.929556 0.142564
vt 0.999779 0.142564
vt 0.697222 0.004675
vt 0.734200 0.021308
vt 0.697220 0.950154
vt 0.734200 0.021308
vt 0.734198 0.966788
vt 0.697220 0.950154
vt 0.734200 0.021308
vt 0.772873 0.033484
vt 0.734198 0.966788
vt 0.772873 0.033484
vt 0.772871 0.978964
vt 0.734198 0.966788
vt 0.772873 0.033484
vt 0.813170 0.029028
vt 0.772871 0.978964
vt 0.813170 0.029028
vt 0.813169 0.974508
vt 0.772871 0.978964
vt 0.813170 0.029028
vt 0.850145 0.012396
vt 0.813169 0.974508
vt 0.850145 0.012396
vt 0.850145 0.957875
vt 0.813169 0.974508
vt 0.850145 0.012396
vt 0.888816 0.000221
vt 0.850145 0.957875
vt 0.888816 0.000221
vt 0.888816 0.945700
vt 0.850145 0.957875
vt 0.888816 0.000221
vt 0.929115 0.004677
vt 0.888816 0.945700
vt 0.929115 0.004677
vt 0.929115 0.950156
vt 0.888816 0.945700
vt 0.999779 0.224092
vt 0.964668 0.244364
vt 0.999779 0.183548

vn 0.334668 0.732065 -0.593361
vn 0.334668 0.732065 -0.593361
vn 0.334668 0.732065 -0.593361
vn -0.491267 0.000000 -0.871009
vn -0.491267 0.000000 -0.871009
vn -0.491267 0.000000 -0.871009
vn -0.491267 0.000000 -0.871009
vn -0.491267 0.000000 -0.871009
vn -0.491267 0.000000 -0.871009
vn -0.999995 -0.002973 0.000620
vn -0.999995 -0.002973 0.000620
vn -0.999995 -0.002973 0.000620
vn -0.999999 0.000000 0.001239
vn -0.999999 0.000000 0.001239
vn -0.999999 0.000000 0.001239
vn 0.449272 0.893395 0.000278
vn 0.449272 0.893395 0.000278
vn 0.449272 0.893395 0.000278
vn 0.448008 0.894030 -0.000050
vn 0.448008 0.894030 -0.000050
vn 0.448008 0.894030 -0.000050
vn -0.000000 -1.000000 0.000000
vn -0.000000 -1.000000 0.000000
vn -0.000000 -1.000000 0.000000
vn 0.643392 -0.414842 -0.643391
vn 0.643392 -0.414842 -0.643391
vn 0.643392 -0.414842 -0.643391
vn 0.871010 0.000000 -0.491266
vn 0.871010 0.000000 -0.491266
vn 0.871010 0.000000 -0.491266
vn 0.871010 0.000000 -0.491266
vn 0.871010 0.000000 -0.491266
vn 0.871010 0.000000 -0.491266
vn -0.334668 -0.732065 -0.593361
vn -0.334668 -0.732065 -0.593361
vn -0.334668 -0.732065 -0.593361
vn -0.593362 -0.732065 -0.334667
vn -0.593362 -0.732065 -0.334667
vn -0.593362 -0.732065 -0.334667
vn 0.000000 -0.894044 -0.447980
vn 0.000000 -0.894044 -0.447980
vn 0.000000 -0.894044 -0.447980
vn 0.000000 -0.894044 -0.447980
vn 0.000000 -0.894044 -0.447980
vn 0.000000 -0.894044 -0.447980
vn -0.449272 0.893395 -0.000051
vn -0.449272 0.893395 -0.000051
vn -0.449272 0.893395 -0.000051
vn -0.447830 0.894119 0.000277
vn -0.447830 0.894119 0.000277
vn -0.447830 0.894119 0.000277
vn -0.000000 1.000000 -0.000000
vn -0.000000 1.000000 -0.000000
vn -0.000000 1.000000 -0.000000
vn -0.000000 1.000000 -0.000000
vn -0.000000 1.000000 -0.000000
vn -0.000000 1.000000 -0.000000
vn 0.000000 0.000000 -1.000000
vn 0.000000 0.000000 -1.000000
vn 0.000000 0.000000 -1.000000
vn 0.000000 0.000000 -1.000000
vn 0.000000 0.000000 -1.000000
vn 0.000000 0.000000 -1.000000
vn 0.491267 0.000000 -0.871009
vn 0.491267 0.000000 -0.871009
vn 0.491267 0.000000 -0.871009
vn 0.491267 0.000000 -0.871009
vn 0.491267 0.000000 -0.871009
vn 0.491267 0.000000 -0.871009
vn -0.593362 0.732065 -0.334668
vn -0.593362 0.732065 -0.334668
vn -0.593362 0.732065 -0.334668
vn 0.000000 0.894044 -0.447980
vn 0.000000 0.894044 -0.447980
vn 0.000000 0.894044 -0.447980
vn 0.000000 0.894044 -0.447980
vn 0.000000 0.894044 -0.447980
vn 0.000000 0.894044 -0.447980
vn -0.871010 0.000000 -0.491266
vn -0.871010 0.000000 -0.491266
vn -0.871010 0.000000 -0.491266
vn -0.871010 0.000000 -0.491266
vn -0.871010 0.000000 -0.491266
vn -0.871010 0.000000 -0.491266
vn -0.334668 0.732066 -0.593361
vn -0.334668 0.732066 -0.593361
vn -0.334668 0.732066 -0.593361
vn 0.593362 0.732065 -0.334667
vn 0.593362 0.732065 -0.334667
vn 0.593362 0.732065 -0.334667
vn -0.980785 0.000000 0.195090
vn -0.980785 0.000000 0.195090
vn -0.980785 0.000000 0.195090
vn -0.980785 0.000000 0.195090
vn -0.980785 0.000000 0.195090
vn -0.980785 0.000000 0.195090
vn -0.000000 0.000000 -1.000000
vn -0.000000 0.000000 -1.000000
vn -0.000000 0.000000 -1.000000
vn -0.000000 0.000000 -1.000000
vn -0.000000 0.000000 -1.000000
vn -0.000000 0.000000 -1.000000
vn -0.980785 0.000000 -0.195091
vn -0.980785 0.000000 -0.195091
vn -0.980785 0.000000 -0.195091
vn -0.980785 0.000000 -0.195091
vn -0.980785 0.000000 -0.195091
vn -0.980785 0.000000 -0.195091
vn -0.000001 0.000000 -1.000000
vn -0.000001 0.000000 -1.000000
vn -0.000001 0.000000 -1.000000
vn -0.000001 0.000000 -1.000000
vn -0.000001 0.000000 -1.000000
vn -0.000001 0.000000 -1.000000
vn 0.000000 -1.000000 0.000000
vn 0.000000 -1.000000 0.000000
vn 0.000000 -1.000000 0.000000
vn -0.000000 -1.000000 0.000000
vn -0.000000 -1.000000 0.000000
vn -0.000000 -1.000000 0.000000
vn 0.000001 1.000000 0.000000
vn 0.000001 1.000000 0.000000
vn 0.000001 1.000000 0.000000
vn -0.000001 1.000000 0.000000
vn -0.000001 1.000000 0.000000
vn -0.000001 1.000000 0.000000
vn -0.118991 0.991671 -0.049288
vn -0.118991 0.991671 -0.049288
vn -0.118991 0.991671 -0.049288
vn -0.152594 0.988289 -0.000000
vn -0.152594 0.988289 -0.000000
vn -0.152594 0.988289 -0.000000
vn -0.000000 -1.000000 0.000000
vn -0.000000 -1.000000 0.000000
vn -0.000000 -1.000000 0.000000
vn -0.000000 -1.000000 0.000000
vn -0.000000 -1.000000 0.000000
vn -0.000000 -1.000000 0.000000
vn 0.195091 0.000000 -0.980785
vn 0.195091 0.000000 -0.980785
vn 0.195091 0.000000 -0.980785
vn 0.195091 0.000000 -0.980785
vn 0.195091 0.000000 -0.980785
vn 0.195091 0.000000 -0.980785
vn 0.195090 0.000000 0.980785
vn 0.195090 0.000000 0.980785
vn 0.195090 0.000000 0.980785
vn 0.195090 0.000000 0.980785
vn 0.195090 0.000000 0.980785
vn 0.195090 0.000000 0.980785
vn 0.831470 0.000000 0.555570
vn 0.831470 0.000000 0.555570
vn 0.831470 0.000000 0.555570
vn 0.831470 0.000000 0.555570
vn 0.831470 0.000000 0.555570
vn 0.831470 0.000000 0.555570
vn 0.396411 0.903270 -0.164199
vn 0.396411 0.903270 -0.164199
vn 0.396411 0.903270 -0.164199
vn 0.347703 0.870750 -0.347703
vn 0.347703 0.870750 -0.347703
vn 0.347703 0.870750 -0.347703
vn -0.000000 -1.000000 0.000000
vn -0.000000 -1.000000 0.000000
vn -0.000000 -1.000000 0.000000
vn 0.000000 -1.000000 0.000000
vn 0.000000 -1.000000 0.000000
vn 0.000000 -1.000000 0.000000
vn -0.555570 0.000000 -0.831470
vn -0.555570 0.000000 -0.831470
vn -0.555570 0.000000 -0.831470
vn -0.555570 0.000000 -0.831470
vn -0.555570 0.000000 -0.831470
vn -0.555570 0.000000 -0.831470
vn 0.831470 0.000000 -0.555570
vn 0.831470 0.000000 -0.555570
vn 0.831470 0.000000 -0.555570
vn 0.831470 0.000000 -0.555570
vn 0.831470 0.000000 -0.555570
vn 0.831470 0.000000 -0.555570
vn -0.000000 -1.000000 0.000000
vn -0.000000 -1.000000 0.000000
vn -0.000000 -1.000000 0.000000
vn -0.000000 -1.000000 0.000000
vn -0.000000 -1.000000 0.000000
vn -0.000000 -1.000000 0.000000
vn -0.258833 0.736568 -0.624879
vn -0.258833 0.736568 -0.624879
vn -0.258833 0.736568 -0.624879
vn -0.521409 0.675473 -0.521410
vn -0.521409 0.675473 -0.521410
vn -0.521409 0.675473 -0.521410
vn -0.555570 0.000000 0.831469
vn -0.555570 0.000000 0.831469
vn -0.555570 0.000000 0.831469
vn -0.555570 0.000000 0.831469
vn -0.555570 0.000000 0.831469
vn -0.555570 0.000000 0.831469
vn -0.195090 0.000000 0.980785
vn -0.195090 0.000000 0.980785
vn -0.195090 0.000000 0.980785
vn -0.195090 0.000000 0.980785
vn -0.195090 0.000000 0.980785
vn -0.195090 0.000000 0.980785
vn 0.555570 0.000000 -0.831470
vn 0.555570 0.000000 -0.831470
vn 0.555570 0.000000 -0.831470
vn 0.555570 0.000000 -0.831469
vn 0.555570 0.000000 -0.831469
vn 0.555570 0.000000 -0.831469
vn 0.000000 -1.000000 0.000000
vn 0.000000 -1.000000 0.000000
vn 0.000000 -1.000000 0.000000
vn -0.000000 -1.000000 0.000000
vn -0.000000 -1.000000 0.000000
vn -0.000000 -1.000000 0.000000
vn -0.303400 0.903270 -0.303400
vn -0.303400 0.903270 -0.303400
vn -0.303400 0.903270 -0.303400
vn -0.454296 0.870750 -0.188175
vn -0.454296 0.870750 -0.188175
vn -0.454296 0.870750 -0.188175
vn -0.000000 1.000000 0.000000
vn -0.000000 1.000000 0.000000
vn -0.000000 1.000000 0.000000
vn -0.000000 1.000000 0.000000
vn -0.000000 1.000000 0.000000
vn -0.000000 1.000000 0.000000
vn -0.000000 -1.000000 0.000000
vn -0.000000 -1.000000 0.000000
vn -0.000000 -1.000000 0.000000
vn -0.000000 -1.000000 0.000000
vn -0.000000 -1.000000 0.000000
vn -0.000000 -1.000000 0.000000
vn 0.980785 0.000000 -0.195090
vn 0.980785 0.000000 -0.195090
vn 0.980785 0.000000 -0.195090
vn 0.980785 0.000000 -0.195090
vn 0.980785 0.000000 -0.195090
vn 0.980785 0.000000 -0.195090
vn -0.831470 0.000000 0.555570
vn -0.831470 0.000000 0.555570
vn -0.831470 0.000000 0.555570
vn -0.831470 0.000000 0.555570
vn -0.831470 0.000000 0.555570
vn -0.831470 0.000000 0.555570
vn -0.195090 0.000000 -0.980785
vn -0.195090 0.000000 -0.980785
vn -0.195090 0.000000 -0.980785
vn -0.195090 0.000000 -0.980785
vn -0.195090 0.000000 -0.980785
vn -0.195090 0.000000 -0.980785
vn -0.000000 -1.000000 0.000000
vn -0.000000 -1.000000 0.000000
vn -0.000000 -1.000000 0.000000
vn -0.000000 -1.000000 0.000000
vn -0.000000 -1.000000 0.000000
vn -0.000000 -1.000000 0.000000
vn 0.128796 0.991671 0.000000
vn 0.128796 0.991671 0.000000
vn 0.128796 0.991671 0.000000
vn 0.140978 0.988289 -0.058395
vn 0.140978 0.988289 -0.058395
vn 0.140978 0.988289 -0.058395
vn 0.555570 0.000000 0.831470
vn 0.555570 0.000000 0.831470
vn 0.555570 0.000000 0.831470
vn 0.555570 0.000000 0.831469
vn 0.555570 0.000000 0.831469
vn 0.555570 0.000000 0.831469
vn 0.980785 0.000000 0.195090
vn 0.980785 0.000000 0.195090
vn 0.980785 0.000000 0.195090
vn 0.980785 0.000000 0.195089
vn 0.980785 0.000000 0.195089
vn 0.980785 0.000000 0.195089
vn 0.478263 0.736567 -0.478261
vn 0.478263 0.736567 -0.478261
vn 0.478263 0.736567 -0.478261
vn 0.282185 0.675473 -0.681255
vn 0.282185 0.675473 -0.681255
vn 0.282185 0.675473 -0.681255
vn -0.000000 -1.000000 0.000000
vn -0.000000 -1.000000 0.000000
vn -0.000000 -1.000000 0.000000
vn -0.000000 -1.000000 0.000000
vn -0.000000 -1.000000 0.000000
vn -0.000000 -1.000000 0.000000
vn -0.831470 0.000000 -0.555570
vn -0.831470 0.000000 -0.555570
vn -0.831470 0.000000 -0.555570
vn -0.831469 0.000000 -0.555570
vn -0.831469 0.000000 -0.555570
vn -0.831469 0.000000 -0.555570
vn 1.000000 0.000000 0.000620
vn 1.000000 0.000000 0.000620
vn 1.000000 0.000000 0.000620
vn 0.999995 -0.002973 0.001240
vn 0.999995 -0.002973 0.001240
vn 0.999995 -0.002973 0.001240
vn -0.000000 -1.000000 -0.000000
vn -0.000000 -1.000000 -0.000000
vn -0.000000 -1.000000 -0.000000
vn -0.000000 -1.000000 -0.000000
vn -0.000000 -1.000000 -0.000000
vn -0.000000 -1.000000 -0.000000
vn -0.448035 -0.894016 -0.000101
vn -0.448035 -0.894016 -0.000101
vn -0.448035 -0.894016 -0.000101
vn -0.450571 -0.892741 0.000558
vn -0.450571 -0.892741 0.000558
vn -0.450571 -0.892741 0.000558
vn 0.447680 -0.894194 0.000555
vn 0.447680 -0.894194 0.000555
vn 0.447680 -0.894194 0.000555
vn 0.450570 -0.892741 -0.000101
vn 0.450570 -0.892741 -0.000101
vn 0.450570 -0.892741 -0.000101
vn 0.000000 -1.000000 0.000000
vn 0.000000 -1.000000 0.000000
vn 0.000000 -1.000000 0.000000
vn -0.000000 -1.000000 0.000000
vn -0.000000 -1.000000 0.000000
vn -0.000000 -1.000000 0.000000
vn 0.000000 -1.000000 0.000000
vn 0.000000 -1.000000 0.000000
vn 0.000000 -1.000000 0.000000
vn 0.000000 -1.000000 0.000000
vn 0.000000 -1.000000 0.000000
vn 0.000000 -1.000000 0.000000
vn -0.000000 -1.000000 0.000000
vn -0.000000 -1.000000 0.000000
vn -0.000000 -1.000000 0.000000
vn 0.431483 -0.854922 0.287978
vn 0.431483 -0.854922 0.287978
vn 0.431483 -0.854922 0.287978
vn 0.432881 -0.853453 0.290229
vn 0.432881 -0.853453 0.290229
vn 0.432881 -0.853453 0.290229
vn 0.320965 -0.816234 0.480358
vn 0.320965 -0.816234 0.480358
vn 0.320965 -0.816234 0.480358
vn 0.320965 -0.816234 0.480358
vn 0.320965 -0.816234 0.480358
vn 0.320965 -0.816234 0.480358
vn 0.119467 -0.790573 0.600602
vn 0.119467 -0.790573 0.600602
vn 0.119467 -0.790573 0.600602
vn 0.119467 -0.790573 0.600602
vn 0.119467 -0.790573 0.600602
vn 0.119467 -0.790573 0.600602
vn -0.119467 -0.790572 0.600602
vn -0.119467 -0.790572 0.600602
vn -0.119467 -0.790572 0.600602
vn -0.119467 -0.790573 0.600601
vn -0.119467 -0.790573 0.600601
vn -0.119467 -0.790573 0.600601
vn -0.320965 -0.816234 0.480358
vn -0.320965 -0.816234 0.480358
vn -0.320965 -0.816234 0.480358
vn -0.320965 -0.816234 0.480358
vn -0.320965 -0.816234 0.480358
vn -0.320965 -0.816234 0.480358
vn -0.433384 -0.853531 0.289247
vn -0.433384 -0.853531 0.289247
vn -0.433384 -0.853531 0.289247
vn -0.431320 -0.854598 0.289181
vn -0.431320 -0.854598 0.289181
vn -0.431320 -0.854598 0.289181
vn -0.195091 0.000000 0.980785
vn -0.195091 0.000000 0.980785
vn -0.195091 0.000000 0.980785
vn -0.195091 0.000000 0.980785
vn -0.195091 0.000000 0.980785
vn -0.195091 0.000000 0.980785
vn 0.555570 0.000000 0.831470
vn 0.555570 0.000000 0.831470
vn 0.555570 0.000000 0.831470
vn 0.555570 0.000000 0.831470
vn 0.555570 0.000000 0.831470
vn 0.555570 0.000000 0.831470
vn -0.555570 0.000000 0.831470
vn -0.555570 0.000000 0.831470
vn -0.555570 0.000000 0.831470
vn -0.555570 0.000000 0.831470
vn -0.555570 0.000000 0.831470
vn -0.555570 0.000000 0.831470
vn 0.195090 0.000000 0.980785
vn 0.195090 0.000000 0.980785
vn 0.195090 0.000000 0.980785
vn 0.195090 0.000000 0.980785
vn 0.195090 0.000000 0.980785
vn 0.195090 0.000000 0.980785
vn -0.830592 -0.002469 0.556876
vn -0.830592 -0.002469 0.556876
vn -0.830592 -0.002469 0.556876
vn -0.830010 0.000000 0.557749
vn -0.830010 0.000000 0.557749
vn -0.830010 0.000000 0.557749
vn 0.830007 -0.002468 0.557748
vn 0.830007 -0.002468 0.557748
vn 0.830007 -0.002468 0.557748
vn 0.830594 0.000000 0.556878
vn 0.830594 0.000000 0.556878
vn 0.830594 0.000000 0.556878
vn -0.000000 1.000000 -0.000000
vn -0.000000 1.000000 -0.000000
vn -0.000000 1.000000 -0.000000
vn 0.000001 1.000000 -0.000001
vn 0.000001 1.000000 -0.000001
vn 0.000001 1.000000 -0.000001
vn -0.000000 1.000000 -0.000001
vn -0.000000 1.000000 -0.000001
vn -0.000000 1.000000 -0.000001
vn 0.000000 1.000000 -0.000001
vn 0.000000 1.000000 -0.000001
vn 0.000000 1.000000 -0.000001
vn -0.000001 1.000000 -0.000001
vn -0.000001 1.000000 -0.000001
vn -0.000001 1.000000 -0.000001
vn 0.432631 0.853413 0.290719
vn 0.432631 0.853413 0.290719
vn 0.432631 0.853413 0.290719
vn 0.430363 0.855793 0.287065
vn 0.430363 0.855793 0.287065
vn 0.430363 0.855793 0.287065
vn 0.320965 0.816234 0.480358
vn 0.320965 0.816234 0.480358
vn 0.320965 0.816234 0.480358
vn 0.320965 0.816234 0.480359
vn 0.320965 0.816234 0.480359
vn 0.320965 0.816234 0.480359
vn 0.119467 0.790573 0.600602
vn 0.119467 0.790573 0.600602
vn 0.119467 0.790573 0.600602
vn 0.119467 0.790573 0.600602
vn 0.119467 0.790573 0.600602
vn 0.119467 0.790573 0.600602
vn -0.119467 0.790573 0.600602
vn -0.119467 0.790573 0.600602
vn -0.119467 0.790573 0.600602
vn -0.119468 0.790572 0.600602
vn -0.119468 0.790572 0.600602
vn -0.119468 0.790572 0.600602
vn -0.320965 0.816234 0.480358
vn -0.320965 0.816234 0.480358
vn -0.320965 0.816234 0.480358
vn -0.320965 0.816234 0.480358
vn -0.320965 0.816234 0.480358
vn -0.320965 0.816234 0.480358
vn -0.430099 0.855268 0.289018
vn -0.430099 0.855268 0.289018
vn -0.430099 0.855268 0.289018
vn -0.433448 0.853540 0.289123
vn -0.433448 0.853540 0.289123
vn -0.433448 0.853540 0.289123
vn -0.859712 -0.120528 -0.496355
vn -0.859712 -0.120528 -0.496355
vn -0.859712 -0.120528 -0.496355
vn -0.859711 -0.120529 -0.496356
vn -0.859711 -0.120529 -0.496356
vn -0.859711 -0.120529 -0.496356
vn -0.000000 0.314840 -0.949145
vn -0.000000 0.314840 -0.949145
vn -0.000000 0.314840 -0.949145
vn -0.000000 0.314840 -0.949145
vn -0.000000 0.314840 -0.949145
vn -0.000000 0.314840 -0.949145
vn 0.788823 0.412729 -0.455427
vn 0.788823 0.412729 -0.455427
vn 0.788823 0.412729 -0.455427
vn 0.788822 0.412729 -0.455427
vn 0.788822 0.412729 -0.455427
vn 0.788822 0.412729 -0.455427
vn 0.859711 0.120528 0.496356
vn 0.859711 0.120528 0.496356
vn 0.859711 0.120528 0.496356
vn 0.859711 0.120528 0.496357
vn 0.859711 0.120528 0.496357
vn 0.859711 0.120528 0.496357
vn -0.000000 -0.314840 0.949145
vn -0.000000 -0.314840 0.949145
vn -0.000000 -0.314840 0.949145
vn -0.000000 -0.314840 0.949145
vn -0.000000 -0.314840 0.949145
vn -0.000000 -0.314840 0.949145
vn -0.788822 -0.412729 0.455428
vn -0.788822 -0.412729 0.455428
vn -0.788822 -0.412729 0.455428
vn -0.788822 -0.412729 0.455428
vn -0.788822 -0.412729 0.455428
vn -0.788822 -0.412729 0.455428
vn -0.000000 -1.000000 0.000000
vn -0.000000 -1.000000 0.000000
vn -0.000000 -1.000000 0.000000
vn -0.496357 -0.120528 0.859711
vn -0.496357 -0.120528 0.859711
vn -0.496357 -0.120528 0.859711
vn -0.496355 -0.120529 0.859712
vn -0.496355 -0.120529 0.859712
vn -0.496355 -0.120529 0.859712
vn -0.949145 0.314840 -0.000002
vn -0.949145 0.314840 -0.000002
vn -0.949145 0.314840 -0.000002
vn -0.949145 0.314841 -0.000003
vn -0.949145 0.314841 -0.000003
vn -0.949145 0.314841 -0.000003
vn -0.455428 0.412730 -0.788821
vn -0.455428 0.412730 -0.788821
vn -0.455428 0.412730 -0.788821
vn -0.455429 0.412729 -0.788822
vn -0.455429 0.412729 -0.788822
vn -0.455429 0.412729 -0.788822
vn 0.496357 0.120528 -0.859711
vn 0.496357 0.120528 -0.859711
vn 0.496357 0.120528 -0.859711
vn 0.496357 0.120528 -0.859711
vn 0.496357 0.120528 -0.859711
vn 0.496357 0.120528 -0.859711
vn 0.949145 -0.314840 0.000000
vn 0.949145 -0.314840 0.000000
vn 0.949145 -0.314840 0.000000
vn 0.949144 -0.314841 0.000000
vn 0.949144 -0.314841 0.000000
vn 0.949144 -0.314841 0.000000
vn 0.455427 -0.412729 0.788823
vn 0.455427 -0.412729 0.788823
vn 0.455427 -0.412729 0.788823
vn 0.455427 -0.412729 0.788823
vn 0.455427 -0.412729 0.788823
vn 0.455427 -0.412729 0.788823
vn 0.000005 -1.000000 0.000000
vn 0.000005 -1.000000 0.000000
vn 0.000005 -1.000000 0.000000
vn 0.859711 -0.120528 0.496357
vn 0.859711 -0.120528 0.496357
vn 0.859711 -0.120528 0.496357
vn 0.859711 -0.120528 0.496356
vn 0.859711 -0.120528 0.496356
vn 0.859711 -0.120528 0.496356
vn -0.000000 0.314840 0.949145
vn -0.000000 0.314840 0.949145
vn -0.000000 0.314840 0.949145
vn -0.000000 0.314840 0.949145
vn -0.000000 0.314840 0.949145
vn -0.000000 0.314840 0.949145
vn -0.788821 0.412729 0.455429
vn -0.788821 0.412729 0.455429
vn -0.788821 0.412729 0.455429
vn -0.788823 0.412729 0.455427
vn -0.788823 0.412729 0.455427
vn -0.788823 0.412729 0.455427
vn -0.859712 0.120529 -0.496356
vn -0.859712 0.120529 -0.496356
vn -0.859712 0.120529 -0.496356
vn -0.859711 0.120528 -0.496357
vn -0.859711 0.120528 -0.496357
vn -0.859711 0.120528 -0.496357
vn 0.000000 -0.314840 -0.949145
vn 0.000000 -0.314840 -0.949145
vn 0.000000 -0.314840 -0.949145
vn -0.000002 -0.314839 -0.949145
vn -0.000002 -0.314839 -0.949145
vn -0.000002 -0.314839 -0.949145
vn 0.788822 -0.412729 -0.455428
vn 0.788822 -0.412729 -0.455428
vn 0.788822 -0.412729 -0.455428
vn 0.788821 -0.412729 -0.455430
vn 0.788821 -0.412729 -0.455430
vn 0.788821 -0.412729 -0.455430
vn -0.000000 -1.000000 0.000000
vn -0.000000 -1.000000 0.000000
vn -0.000000 -1.000000 0.000000
vn 0.496356 -0.120528 -0.859712
vn 0.496356 -0.120528 -0.859712
vn 0.496356 -0.120528 -0.859712
vn 0.496354 -0.120529 -0.859712
vn 0.496354 -0.120529 -0.859712
vn 0.496354 -0.120529 -0.859712
vn 0.949145 0.314840 0.000003
vn 0.949145 0.314840 0.000003
vn 0.949145 0.314840 0.000003
vn 0.949144 0.314841 0.000003
vn 0.949144 0.314841 0.000003
vn 0.949144 0.314841 0.000003
vn 0.455428 0.412729 0.788822
vn 0.455428 0.412729 0.788822
vn 0.455428 0.412729 0.788822
vn 0.455426 0.412728 0.788823
vn 0.455426 0.412728 0.788823
vn 0.455426 0.412728 0.788823
vn -0.496356 0.120528 0.859711
vn -0.496356 0.120528 0.859711
vn -0.496356 0.120528 0.859711
vn -0.496354 0.120529 0.859712
vn -0.496354 0.120529 0.859712
vn -0.496354 0.120529 0.859712
vn -0.949145 -0.314840 0.000000
vn -0.949145 -0.314840 0.000000
vn -0.949145 -0.314840 0.000000
vn -0.949144 -0.314841 -0.000003
vn -0.949144 -0.314841 -0.000003
vn -0.949144 -0.314841 -0.000003
vn -0.455429 -0.412730 -0.788821
vn -0.455429 -0.412730 -0.788821
vn -0.455429 -0.412730 -0.788821
vn -0.455428 -0.412730 -0.788822
vn -0.455428 -0.412730 -0.788822
vn -0.455428 -0.412730 -0.788822
vn -0.000005 -1.000000 0.000000
vn -0.000005 -1.000000 0.000000
vn -0.000005 -1.000000 0.000000

g Material.001
f 3/1/1 1/2/2 2/3/3
f 6/4/4 4/5/5 5/6/6
f 9/7/7 7/8/8 8/9/9
f 12/10/10 10/11/11 11/12/12
f 15/13/13 13/14/14 14/15/15
f 18/16/16 16/17/17 17/18/18
f 21/19/19 19/20/20 20/21/21
f 24/22/22 22/23/23 23/24/24
f 27/25/25 25/26/26 26/27/27
f 30/28/28 28/29/29 29/30/30
f 33/31/31 31/32/32 32/33/33
f 36/34/34 34/35/35 35/36/36
f 39/37/37 37/38/38 38/39/39
f 42/40/40 40/41/41 41/42/42
f 45/43/43 43/44/44 44/45/45
f 48/46/46 46/47/47 47/48/48
f 51/49/49 49/50/50 50/51/51
f 54/52/52 52/53/53 53/54/54
f 57/55/55 55/56/56 56/57/57
f 60/58/58 58/59/59 59/60/60
f 63/61/61 61/62/62 62/63/63
f 66/64/64 64/65/65 65/66/66
f 69/67/67 67/68/68 68/69/69
f 72/70/70 70/71/71 71/72/72
f 75/73/73 73/74/74 74/75/75
f 78/76/76 76/77/77 77/78/78
f 81/79/79 79/80/80 80/81/81
f 84/82/82 82/83/83 83/84/84
f 87/85/85 85/86/86 86/87/87
f 90/88/88 88/89/89 89/90/90
f 93/91/91 91/92/92 92/93/93
f 96/94/94 94/95/95 95/96/96
f 99/97/97 97/98/98 98/99/99
f 102/100/100 100/101/101 101/102/102
f 105/103/103 103/104/104 104/105/105
f 108/106/106 106/107/107 107/108/108
f 111/109/109 109/110/110 110/111/111
f 114/112/112 112/113/113 113/114/114
f 117/115/115 115/116/116 116/117/117
f 120/118/118 118/119/119 119/120/120
f 123/121/121 121/122/122 122/123/123
f 126/124/124 124/125/125 125/126/126
f 129/127/127 127/128/128 128/129/129
f 132/130/130 130/131/131 131/132/132
f 135/133/133 133/134/134 134/135/135
f 138/136/136 136/137/137 137/138/138
f 141/139/139 139/140/140 140/141/141
f 144/142/142 142/143/143 143/144/144
f 147/145/145 145/146/146 146/147/147
f 150/148/148 148/149/149 149/150/150
f 153/151/151 151/152/152 152/153/153
f 156/154/154 154/155/155 155/156/156
f 159/157/157 157/158/158 158/159/159
f 162/160/160 160/161/161 161/162/162
f 165/163/163 163/164/164 164/165/165
f 168/166/166 166/167/167 167/168/168
f 171/169/169 169/170/170 170/171/171
f 174/172/172 172/173/173 173/174/174
f 177/175/175 175/176/176 176/177/177
f 180/178/178 178/179/179 179/180/180
f 183/181/181 181/182/182 182/183/183
f 186/184/184 184/185/185 185/186/186
f 189/187/187 187/188/188 188/189/189
f 192/190/190 190/191/191 191/192/192
f 195/193/193 193/194/194 194/195/195
f 198/196/196 196/197/197 197/198/198
f 201/199/199 199/200/200 200/201/201
f 204/202/202 202/203/203 203/204/204
f 207/205/205 205/206/206 206/207/207
f 210/208/208 208/209/209 209/210/210
f 213/211/211 211/212/212 212/213/213
f 216/214/214 214/215/215 215/216/216
f 219/217/217 217/218/218 218/219/219
f 222/220/220 220/221/221 221/222/222
f 225/223/223 223/224/224 224/225/225
f 228/226/226 226/227/227 227/228/228
f 231/229/229 229/230/230 230/231/231
f 234/232/232 232/233/233 233/234/234
f 237/235/235 235/236/236 236/237/237
f 240/238/238 238/239/239 239/240/240
f 243/241/241 241/242/242 242/243/243
f 246/244/244 244/245/245 245/246/246
f 249/247/247 247/248/248 248/249/249
f 252/250/250 250/251/251 251/252/252
f 255/253/253 253/254/254 254/255/255
f 258/256/256 256/257/257 257/258/258
f 261/259/259 259/260/260 260/261/261
f 264/262/262 262/263/263 263/264/264
f 267/265/265 265/266/266 266/267/267
f 270/268/268 268/269/269 269/270/270
f 273/271/271 271/272/272 272/273/273
f 276/274/274 274/275/275 275/276/276
f 279/277/277 277/278/278 278/279/279
f 282/280/280 280/281/281 281/282/282
f 285/283/283 283/284/284 284/285/285
f 288/286/286 286/287/287 287/288/288
f 291/289/289 289/290/290 290/291/291
f 294/292/292 292/293/293 293/294/294
f 297/295/295 295/296/296 296/297/297
f 300/298/298 298/299/299 299/300/300
f 303/301/301 301/302/302 302/303/303
f 306/304/304 304/305/305 305/306/306
f 309/307/307 307/308/308 308/309/309
f 312/310/310 310/311/311 311/312/312
f 315/313/313 313/314/314 314/315/315
f 318/316/316 316/317/317 317/318/318
f 321/319/319 319/320/320 320/321/321
f 324/322/322 322/323/323 323/324/324
f 327/325/325 325/326/326 326/327/327
f 330/328/328 328/329/329 329/330/330
f 333/331/331 331/332/332 332/333/333
f 336/334/334 334/335/335 335/336/336
f 339/337/337 337/338/338 338/339/339
f 342/340/340 340/341/341 341/342/342
f 345/343/343 343/344/344 344/345/345
f 348/346/346 346/347/347 347/348/348
f 351/349/349 349/350/350 350/351/351
f 354/352/352 352/353/353 353/354/354
f 357/355/355 355/356/356 356/357/357
f 360/358/358 358/359/359 359/360/360
f 363/361/361 361/362/362 362/363/363
f 366/364/364 364/365/365 365/366/366
f 369/367/367 367/368/368 368/369/369
f 372/370/370 370/371/371 371/372/372
f 375/373/373 373/374/374 374/375/375
f 378/376/376 376/377/377 377/378/378
f 381/379/379 379/380/380 380/381/381
f 384/382/382 382/383/383 383/384/384
f 387/385/385 385/386/386 386/387/387
f 390/388/388 388/389/389 389/390/390
f 393/391/391 391/392/392 392/393/393
f 396/394/394 394/395/395 395/396/396
f 399/397/397 397/398/398 398/399/399
f 402/400/400 400/401/401 401/402/402
f 405/403/403 403/404/404 404/405/405
f 408/406/406 406/407/407 407/408/408
f 411/409/409 409/410/410 410/411/411
f 414/412/412 412/413/413 413/414/414
f 417/415/415 415/416/416 416/417/417
f 420/418/418 418/419/419 419/420/420
f 423/421/421 421/422/422 422/423/423
f 426/424/424 424/425/425 425/426/426
f 429/427/427 427/428/428 428/429/429
f 432/430/430 430/431/431 431/432/432
f 435/433/433 433/434/434 434/435/435
f 438/436/436 436/437/437 437/438/438
f 441/439/439 439/440/440 440/441/441
f 444/442/442 442/443/443 443/444/444
f 447/445/445 445/446/446 446/447/447
f 450/448/448 448/449/449 449/450/450
f 453/451/451 451/452/452 452/453/453
f 456/454/454 454/455/455 455/456/456

g Material.002
f 459/457/457 457/458/458 458/459/459
f 462/460/460 460/461/461 461/462/462
f 465/463/463 463/464/464 464/465/465
f 468/466/466 466/467/467 467/468/468
f 471/469/469 469/470/470 470/471/471
f 474/472/472 472/473/473 473/474/474
f 477/475/475 475/476/476 476/477/477
f 480/478/478 478/479/479 479/480/480
f 483/481/481 481/482/482 482/483/483
f 486/484/484 484/485/485 485/486/486
f 489/487/487 487/488/488 488/489/489
f 492/490/490 490/491/491 491/492/492
f 495/493/493 493/494/494 494/495/495
f 498/496/496 496/497/497 497/498/498
f 501/499/499 499/500/500 500/501/501
f 504/502/502 502/503/503 503/504/504
f 507/505/505 505/506/506 506/507/507
f 510/508/508 508/509/509 509/510/510
f 513/511/511 511/512/512 512/513/513
f 516/514/514 514/515/515 515/516/516
f 519/517/517 517/518/518 518/519/519
f 522/520/520 520/521/521 521/522/522
f 525/523/523 523/524/524 524/525/525
f 528/526/526 526/527/527 527/528/528
f 531/529/529 529/530/530 530/531/531
f 534/532/532 532/533/533 533/534/534
f 537/535/535 535/536/536 536/537/537
f 540/538/538 538/539/539 539/540/540
f 543/541/541 541/542/542 542/543/543
f 546/544/544 544/545/545 545/546/546
f 549/547/547 547/548/548 548/549/549
f 552/550/550 550/551/551 551/552/552
f 555/553/553 553/554/554 554/555/555
f 558/556/556 556/557/557 557/558/558
f 561/559/559 559/560/560 560/561/561
f 564/562/562 562/563/563 563/564/564
f 567/565/565 565/566/566 566/567/567
f 570/568/568 568/569/569 569/570/570
f 573/571/571 571/572/572 572/573/573
f 576/574/574 574/575/575 575/576/576
f 579/577/577 577/578/578 578/579/579
f 582/580/580 580/581/581 581/582/582
f 585/583/583 583/584/584 584/585/585
f 588/586/586 586/587/587 587/588/588
f 591/589/589 589/590/590 590/591/591
f 594/592/592 592/593/593 593/594/594
f 597/595/595 595/596/596 596/597/597
f 600/598/598 598/599/599 599/600/600
f 603/601/601 601/602/602 602/603/603
f 606/604/604 604/605/605 605/606/606
f 609/607/607 607/608/608 608/609/609
f 612/610/610 610/611/611 611/612/612

