# Blender v3.0.0 OBJ File: 'multidecor_round_metallic_table.blend'
# www.blender.org
o Cylinder
v -1.014300 -1.267875 -1.105587
v -0.760725 1.014300 -0.852012
v -0.935243 -1.267875 -1.059943
v -0.681668 1.014300 -0.806368
v -0.935243 -1.267875 -0.968656
v -0.681668 1.014300 -0.715081
v -1.014300 -1.267875 -0.923013
v -0.760725 1.014300 -0.669438
v -1.093357 -1.267875 -0.968656
v -0.839782 1.014300 -0.715081
v -1.093357 -1.267875 -1.059943
v -0.839782 1.014300 -0.806368
v 0.000000 1.014300 -1.521450
v 0.000000 1.267875 -1.521450
v 0.760725 1.014300 -1.317614
v 0.760725 1.267875 -1.317614
v 1.317614 1.014300 -0.760725
v 1.317614 1.267875 -0.760725
v 1.521450 1.014300 0.000000
v 1.521450 1.267875 0.000000
v 1.317614 1.014300 0.760725
v 1.317614 1.267875 0.760725
v 0.760725 1.014300 1.317614
v 0.760725 1.267875 1.317614
v -0.000000 1.014300 1.521450
v -0.000000 1.267875 1.521450
v -0.760725 1.014300 1.317614
v -0.760725 1.267875 1.317614
v -1.317614 1.014300 0.760725
v -1.317614 1.267875 0.760725
v -1.521450 1.014300 -0.000000
v -1.521450 1.267875 -0.000000
v -1.317614 1.014300 -0.760725
v -1.317614 1.267875 -0.760725
v -0.760725 1.014300 -1.317614
v -0.760725 1.267875 -1.317614
v -1.105587 -1.267875 1.014300
v -0.852012 1.014300 0.760725
v -1.059943 -1.267875 0.935243
v -0.806368 1.014300 0.681668
v -0.968656 -1.267875 0.935243
v -0.715081 1.014300 0.681668
v -0.923013 -1.267875 1.014300
v -0.669438 1.014300 0.760725
v -0.968656 -1.267875 1.093357
v -0.715081 1.014300 0.839782
v -1.059943 -1.267875 1.093357
v -0.806368 1.014300 0.839782
v 1.014300 -1.267875 1.105587
v 0.760725 1.014300 0.852012
v 0.935243 -1.267875 1.059943
v 0.681668 1.014300 0.806368
v 0.935243 -1.267875 0.968656
v 0.681668 1.014300 0.715081
v 1.014300 -1.267875 0.923013
v 0.760725 1.014300 0.669438
v 1.093357 -1.267875 0.968656
v 0.839782 1.014300 0.715081
v 1.093357 -1.267875 1.059943
v 0.839782 1.014300 0.806368
v 1.105587 -1.267875 -1.014300
v 0.852012 1.014300 -0.760725
v 1.059943 -1.267875 -0.935243
v 0.806368 1.014300 -0.681668
v 0.968656 -1.267875 -0.935243
v 0.715081 1.014300 -0.681668
v 0.923013 -1.267875 -1.014300
v 0.669438 1.014300 -0.760725
v 0.968656 -1.267875 -1.093357
v 0.715081 1.014300 -0.839782
v 1.059943 -1.267875 -1.093357
v 0.806368 1.014300 -0.839782
vt 0.761566 0.027546
vt 0.761566 0.388679
vt 0.747457 0.390819
vt 0.747458 0.029686
vt 0.733273 0.392385
vt 0.733273 0.031252
vt 0.719014 0.391812
vt 0.719014 0.030679
vt 0.704905 0.389672
vt 0.704905 0.028539
vt 0.690720 0.388106
vt 0.690720 0.026973
vt 0.775826 0.026973
vt 0.775825 0.388106
vt 0.695209 0.477479
vt 0.707567 0.484615
vt 0.707567 0.498885
vt 0.447852 0.869128
vt 0.360761 0.869128
vt 0.360761 0.746013
vt 0.447852 0.746013
vt 0.360761 0.622898
vt 0.447852 0.622898
vt 0.360761 0.499783
vt 0.447852 0.499783
vt 0.447852 0.869128
vt 0.360761 0.869128
vt 0.360761 0.746013
vt 0.447852 0.746013
vt 0.360761 0.622898
vt 0.447852 0.622898
vt 0.360761 0.499784
vt 0.447852 0.499784
vt 0.447852 0.869128
vt 0.360761 0.869128
vt 0.360761 0.746013
vt 0.447852 0.746013
vt 0.360761 0.622898
vt 0.447852 0.622898
vt 0.360761 0.499783
vt 0.447852 0.499783
vt 0.447852 0.869128
vt 0.360761 0.869128
vt 0.360762 0.746013
vt 0.447852 0.746013
vt 0.459693 0.668400
vt 0.398136 0.898136
vt 0.000222 0.791515
vt 0.360762 0.622898
vt 0.447852 0.622898
vt 0.360762 0.499783
vt 0.447852 0.499783
vt 0.000222 0.668400
vt 0.168400 0.500222
vt 0.398136 0.561780
vt 0.761566 0.027546
vt 0.761566 0.388679
vt 0.747457 0.390819
vt 0.747458 0.029686
vt 0.733273 0.392385
vt 0.733273 0.031252
vt 0.719014 0.391812
vt 0.719014 0.030679
vt 0.704905 0.389672
vt 0.704905 0.028539
vt 0.690720 0.388106
vt 0.690720 0.026973
vt 0.775826 0.026973
vt 0.775825 0.388106
vt 0.695209 0.477479
vt 0.707567 0.484615
vt 0.707567 0.498885
vt 0.761566 0.027546
vt 0.761566 0.388679
vt 0.747457 0.390819
vt 0.747458 0.029686
vt 0.733273 0.392385
vt 0.733273 0.031252
vt 0.719014 0.391812
vt 0.719014 0.030679
vt 0.704905 0.389672
vt 0.704905 0.028539
vt 0.690720 0.388106
vt 0.690720 0.026973
vt 0.775826 0.026973
vt 0.775825 0.388106
vt 0.695209 0.477479
vt 0.707567 0.484615
vt 0.707567 0.498885
vt 0.761566 0.027546
vt 0.761566 0.388679
vt 0.747457 0.390819
vt 0.747458 0.029686
vt 0.733273 0.392385
vt 0.733273 0.031252
vt 0.719014 0.391812
vt 0.719014 0.030679
vt 0.704905 0.389672
vt 0.704905 0.028539
vt 0.690720 0.388106
vt 0.690720 0.026973
vt 0.775826 0.026973
vt 0.775825 0.388106
vt 0.695209 0.477479
vt 0.707567 0.484615
vt 0.707567 0.498885
vt 0.695209 0.506020
vt 0.682850 0.498885
vt 0.682850 0.484615
vt 0.291515 0.959693
vt 0.168400 0.959693
vt 0.061780 0.898136
vt 0.000222 0.668400
vt 0.061780 0.561780
vt 0.168400 0.500222
vt 0.291515 0.500222
vt 0.398136 0.561780
vt 0.459693 0.791515
vt 0.459693 0.668400
vt 0.459693 0.791515
vt 0.398136 0.898136
vt 0.291515 0.959693
vt 0.168400 0.959693
vt 0.061780 0.898136
vt 0.000222 0.791515
vt 0.061780 0.561780
vt 0.291515 0.500222
vt 0.695209 0.506020
vt 0.682850 0.498885
vt 0.682850 0.484615
vt 0.695209 0.506020
vt 0.682850 0.498885
vt 0.682850 0.484615
vt 0.695209 0.506020
vt 0.682850 0.498885
vt 0.682850 0.484615
vn 0.4996 0.0406 -0.8653
vn 0.9939 -0.1104 0.0000
vn 0.4943 -0.1501 0.8562
vn -0.4996 -0.0406 0.8653
vn -0.9939 0.1104 0.0000
vn -0.4943 0.1501 -0.8562
vn 0.0000 -1.0000 0.0000
vn 0.2588 0.0000 -0.9659
vn 0.7071 0.0000 -0.7071
vn 0.9659 0.0000 -0.2588
vn 0.9659 0.0000 0.2588
vn 0.7071 0.0000 0.7071
vn 0.2588 0.0000 0.9659
vn -0.2588 0.0000 0.9659
vn -0.7071 0.0000 0.7071
vn -0.9659 0.0000 0.2588
vn -0.9659 0.0000 -0.2588
vn 0.0000 1.0000 -0.0000
vn -0.7071 0.0000 -0.7071
vn -0.2588 0.0000 -0.9659
vn -0.8653 0.0406 -0.4996
vn 0.0000 -0.1104 -0.9939
vn 0.8562 -0.1501 -0.4943
vn 0.8653 -0.0406 0.4996
vn 0.0000 0.1104 0.9939
vn -0.8562 0.1501 0.4943
vn -0.4996 0.0406 0.8653
vn -0.9939 -0.1104 -0.0000
vn -0.4943 -0.1501 -0.8562
vn 0.4996 -0.0406 -0.8653
vn 0.9939 0.1104 0.0000
vn 0.4943 0.1501 0.8562
vn 0.8653 0.0406 0.4996
vn -0.0000 -0.1104 0.9939
vn -0.8562 -0.1501 0.4943
vn -0.8653 -0.0406 -0.4996
vn 0.0000 0.1104 -0.9939
vn 0.8562 0.1501 -0.4943
s off
f 1/1/1 2/2/1 4/3/1 3/4/1
f 3/4/2 4/3/2 6/5/2 5/6/2
f 5/6/3 6/5/3 8/7/3 7/8/3
f 7/8/4 8/7/4 10/9/4 9/10/4
f 9/10/5 10/9/5 12/11/5 11/12/5
f 11/13/6 12/14/6 2/2/6 1/1/6
f 7/15/7 9/16/7 11/17/7
f 13/18/8 14/19/8 16/20/8 15/21/8
f 15/21/9 16/20/9 18/22/9 17/23/9
f 17/23/10 18/22/10 20/24/10 19/25/10
f 19/26/11 20/27/11 22/28/11 21/29/11
f 21/29/12 22/28/12 24/30/12 23/31/12
f 23/31/13 24/30/13 26/32/13 25/33/13
f 25/34/14 26/35/14 28/36/14 27/37/14
f 27/37/15 28/36/15 30/38/15 29/39/15
f 29/39/16 30/38/16 32/40/16 31/41/16
f 31/42/17 32/43/17 34/44/17 33/45/17
f 22/46/18 18/47/18 34/48/18
f 33/45/19 34/44/19 36/49/19 35/50/19
f 35/50/20 36/49/20 14/51/20 13/52/20
f 27/53/7 31/54/7 35/55/7
f 37/56/21 38/57/21 40/58/21 39/59/21
f 39/59/22 40/58/22 42/60/22 41/61/22
f 41/61/23 42/60/23 44/62/23 43/63/23
f 43/63/24 44/62/24 46/64/24 45/65/24
f 45/65/25 46/64/25 48/66/25 47/67/25
f 47/68/26 48/69/26 38/57/26 37/56/26
f 43/70/7 45/71/7 47/72/7
f 49/73/27 50/74/27 52/75/27 51/76/27
f 51/76/28 52/75/28 54/77/28 53/78/28
f 53/78/29 54/77/29 56/79/29 55/80/29
f 55/80/30 56/79/30 58/81/30 57/82/30
f 57/82/31 58/81/31 60/83/31 59/84/31
f 59/85/32 60/86/32 50/74/32 49/73/32
f 55/87/7 57/88/7 59/89/7
f 61/90/33 62/91/33 64/92/33 63/93/33
f 63/93/34 64/92/34 66/94/34 65/95/34
f 65/95/35 66/94/35 68/96/35 67/97/35
f 67/97/36 68/96/36 70/98/36 69/99/36
f 69/99/37 70/98/37 72/100/37 71/101/37
f 71/102/38 72/103/38 62/91/38 61/90/38
f 67/104/7 69/105/7 71/106/7
f 11/17/7 1/107/7 7/15/7
f 1/107/7 3/108/7 7/15/7
f 3/108/7 5/109/7 7/15/7
f 18/47/18 16/110/18 34/48/18
f 16/110/18 14/111/18 34/48/18
f 14/111/18 36/112/18 34/48/18
f 34/48/18 32/113/18 30/114/18
f 30/114/18 28/115/18 34/48/18
f 28/115/18 26/116/18 34/48/18
f 26/116/18 24/117/18 22/46/18
f 22/46/18 20/118/18 18/47/18
f 26/116/18 22/46/18 34/48/18
f 35/55/7 13/119/7 15/120/7
f 15/120/7 17/121/7 19/122/7
f 19/122/7 21/123/7 23/124/7
f 23/124/7 25/125/7 19/122/7
f 25/125/7 27/53/7 19/122/7
f 27/53/7 29/126/7 31/54/7
f 31/54/7 33/127/7 35/55/7
f 35/55/7 15/120/7 27/53/7
f 15/120/7 19/122/7 27/53/7
f 47/72/7 37/128/7 39/129/7
f 39/129/7 41/130/7 47/72/7
f 41/130/7 43/70/7 47/72/7
f 59/89/7 49/131/7 51/132/7
f 51/132/7 53/133/7 59/89/7
f 53/133/7 55/87/7 59/89/7
f 71/106/7 61/134/7 63/135/7
f 63/135/7 65/136/7 71/106/7
f 65/136/7 67/104/7 71/106/7
