# Converted from B3D for Luanti (With Correct Normals)
# Object Name: multidecor_terracotta_flowerpot

v 0.000000 -0.066667 0.800000
v 0.000000 0.400000 0.800000
v -0.400000 0.400000 0.692820
v -0.400000 -0.066667 0.692820
v -0.400000 -0.066667 0.692820
v -0.400000 0.400000 0.692820
v -0.692820 0.400000 0.400000
v -0.692820 -0.066667 0.400000
v -0.692820 -0.066667 0.400000
v -0.692820 0.400000 0.400000
v -0.800000 0.400000 -0.000000
v -0.800000 -0.066667 -0.000000
v -0.800000 -0.066667 -0.000000
v -0.800000 0.400000 -0.000000
v -0.692820 0.400000 -0.400000
v -0.692820 -0.066667 -0.400000
v -0.692820 -0.066667 -0.400000
v -0.692820 0.400000 -0.400000
v -0.400000 0.400000 -0.692820
v -0.400000 -0.066667 -0.692820
v -0.400000 -0.066667 -0.692820
v -0.400000 0.400000 -0.692820
v 0.000000 0.400000 -0.800000
v 0.000000 -0.066667 -0.800000
v 0.000000 -0.066667 -0.800000
v 0.000000 0.400000 -0.800000
v 0.400000 0.400000 -0.692820
v 0.400000 -0.066667 -0.692820
v 0.400000 -0.066667 -0.692820
v 0.400000 0.400000 -0.692820
v 0.692820 0.400000 -0.400000
v 0.692820 -0.066667 -0.400000
v 0.692820 -0.066667 -0.400000
v 0.692820 0.400000 -0.400000
v 0.800000 0.400000 0.000000
v 0.800000 -0.066667 0.000000
v 0.800000 -0.066667 0.000000
v 0.800000 0.400000 0.000000
v 0.692820 0.400000 0.400000
v 0.692820 -0.066667 0.400000
v -0.692820 0.500000 0.400000
v -0.800000 0.500000 -0.000000
v -0.880000 0.500000 -0.000000
v -0.762102 0.500000 0.440000
v 0.692820 -0.066667 0.400000
v 0.692820 0.400000 0.400000
v 0.400000 0.400000 0.692820
v 0.400000 -0.066667 0.692820
v 0.400000 -0.066667 0.692820
v 0.400000 0.400000 0.692820
v 0.000000 0.400000 0.800000
v 0.000000 -0.066667 0.800000
v 0.760320 -0.850000 0.000000
v 0.658457 -0.850000 0.380160
v 0.703450 -0.750000 0.406137
v 0.812274 -0.750000 0.000000
v 0.288000 -0.900000 0.498831
v 0.360000 -0.583333 0.623538
v 0.000000 -0.583333 0.720000
v 0.000000 -0.900000 0.576000
v 0.360000 -0.583333 0.623538
v 0.400000 -0.066667 0.692820
v 0.000000 -0.066667 0.800000
v 0.000000 -0.583333 0.720000
v 0.498831 -0.900000 0.288000
v 0.623538 -0.583333 0.360000
v 0.360000 -0.583333 0.623538
v 0.288000 -0.900000 0.498831
v 0.623538 -0.583333 0.360000
v 0.692820 -0.066667 0.400000
v 0.400000 -0.066667 0.692820
v 0.360000 -0.583333 0.623538
v 0.576000 -0.900000 0.000000
v 0.720000 -0.583333 0.000000
v 0.623538 -0.583333 0.360000
v 0.498831 -0.900000 0.288000
v 0.720000 -0.583333 0.000000
v 0.800000 -0.066667 0.000000
v 0.692820 -0.066667 0.400000
v 0.623538 -0.583333 0.360000
v 0.498831 -0.900000 -0.288000
v 0.623538 -0.583333 -0.360000
v 0.720000 -0.583333 0.000000
v 0.576000 -0.900000 0.000000
v 0.623538 -0.583333 -0.360000
v 0.692820 -0.066667 -0.400000
v 0.800000 -0.066667 0.000000
v 0.720000 -0.583333 0.000000
v 0.288000 -0.900000 -0.498831
v 0.360000 -0.583333 -0.623538
v 0.623538 -0.583333 -0.360000
v 0.498831 -0.900000 -0.288000
v 0.360000 -0.583333 -0.623538
v 0.400000 -0.066667 -0.692820
v 0.692820 -0.066667 -0.400000
v 0.623538 -0.583333 -0.360000
v 0.000000 -0.900000 -0.576000
v 0.000000 -0.583333 -0.720000
v 0.360000 -0.583333 -0.623538
v 0.288000 -0.900000 -0.498831
v 0.000000 -0.583333 -0.720000
v 0.000000 -0.066667 -0.800000
v 0.400000 -0.066667 -0.692820
v 0.360000 -0.583333 -0.623538
v -0.288000 -0.900000 -0.498831
v -0.360000 -0.583333 -0.623538
v 0.000000 -0.583333 -0.720000
v 0.000000 -0.900000 -0.576000
v -0.360000 -0.583333 -0.623538
v -0.400000 -0.066667 -0.692820
v 0.000000 -0.066667 -0.800000
v 0.000000 -0.583333 -0.720000
v -0.498831 -0.900000 -0.288000
v -0.623538 -0.583333 -0.360000
v -0.360000 -0.583333 -0.623538
v -0.288000 -0.900000 -0.498831
v -0.623538 -0.583333 -0.360000
v -0.692820 -0.066667 -0.400000
v -0.400000 -0.066667 -0.692820
v -0.360000 -0.583333 -0.623538
v -0.576000 -0.900000 -0.000000
v -0.720000 -0.583333 -0.000000
v -0.623538 -0.583333 -0.360000
v -0.498831 -0.900000 -0.288000
v -0.720000 -0.583333 -0.000000
v -0.800000 -0.066667 -0.000000
v -0.692820 -0.066667 -0.400000
v -0.623538 -0.583333 -0.360000
v -0.498831 -0.900000 0.288000
v -0.623538 -0.583333 0.360000
v -0.720000 -0.583333 -0.000000
v -0.576000 -0.900000 -0.000000
v -0.623538 -0.583333 0.360000
v -0.692820 -0.066667 0.400000
v -0.800000 -0.066667 -0.000000
v -0.720000 -0.583333 -0.000000
v -0.288000 -0.900000 0.498831
v -0.360000 -0.583333 0.623538
v -0.623538 -0.583333 0.360000
v -0.498831 -0.900000 0.288000
v -0.360000 -0.583333 0.623538
v -0.400000 -0.066667 0.692820
v -0.692820 -0.066667 0.400000
v -0.623538 -0.583333 0.360000
v 0.000000 -0.900000 0.576000
v 0.000000 -0.583333 0.720000
v -0.360000 -0.583333 0.623538
v -0.288000 -0.900000 0.498831
v 0.000000 -0.583333 0.720000
v 0.000000 -0.066667 0.800000
v -0.400000 -0.066667 0.692820
v -0.360000 -0.583333 0.623538
v 0.691200 -0.900000 0.000000
v -0.345600 -0.900000 -0.598597
v -0.345600 -0.900000 0.598597
v -0.598597 -0.900000 -0.345600
v -0.345600 -0.900000 -0.598597
v -0.380160 -0.850000 -0.658456
v -0.658456 -0.850000 -0.380160
v 0.345600 -0.900000 0.598597
v 0.000000 -0.900000 0.691200
v 0.000000 -0.850000 0.760320
v 0.380160 -0.850000 0.658456
v -0.345600 -0.900000 0.598597
v -0.598597 -0.900000 0.345600
v -0.658457 -0.850000 0.380160
v -0.380160 -0.850000 0.658456
v 0.598597 -0.900000 -0.345600
v 0.691200 -0.900000 0.000000
v 0.760320 -0.850000 0.000000
v 0.658457 -0.850000 -0.380160
v -0.345600 -0.900000 -0.598597
v 0.000000 -0.900000 -0.691200
v 0.000000 -0.850000 -0.760320
v -0.380160 -0.850000 -0.658456
v -0.598597 -0.900000 0.345600
v -0.691200 -0.900000 -0.000000
v -0.760320 -0.850000 -0.000000
v -0.658457 -0.850000 0.380160
v 0.691200 -0.900000 0.000000
v 0.598597 -0.900000 0.345600
v 0.658457 -0.850000 0.380160
v 0.760320 -0.850000 0.000000
v 0.000000 -0.900000 -0.691200
v 0.345600 -0.900000 -0.598597
v 0.380160 -0.850000 -0.658456
v 0.000000 -0.850000 -0.760320
v -0.691200 -0.900000 -0.000000
v -0.598597 -0.900000 -0.345600
v -0.658456 -0.850000 -0.380160
v -0.760320 -0.850000 -0.000000
v 0.598597 -0.900000 0.345600
v 0.345600 -0.900000 0.598597
v 0.380160 -0.850000 0.658456
v 0.658457 -0.850000 0.380160
v 0.000000 -0.900000 0.691200
v -0.345600 -0.900000 0.598597
v -0.380160 -0.850000 0.658456
v 0.000000 -0.850000 0.760320
v 0.345600 -0.900000 -0.598597
v 0.598597 -0.900000 -0.345600
v 0.658457 -0.850000 -0.380160
v 0.380160 -0.850000 -0.658456
v 0.000000 -0.850000 -0.760320
v 0.380160 -0.850000 -0.658456
v 0.406137 -0.750000 -0.703450
v 0.000000 -0.750000 -0.812274
v -0.760320 -0.850000 -0.000000
v -0.658456 -0.850000 -0.380160
v -0.703450 -0.750000 -0.406137
v -0.812274 -0.750000 -0.000000
v 0.658457 -0.850000 0.380160
v 0.380160 -0.850000 0.658456
v 0.406137 -0.750000 0.703450
v 0.703450 -0.750000 0.406137
v 0.000000 -0.850000 0.760320
v -0.380160 -0.850000 0.658456
v -0.406137 -0.750000 0.703450
v -0.000000 -0.750000 0.812274
v 0.380160 -0.850000 -0.658456
v 0.658457 -0.850000 -0.380160
v 0.703450 -0.750000 -0.406137
v 0.406137 -0.750000 -0.703450
v -0.658456 -0.850000 -0.380160
v -0.380160 -0.850000 -0.658456
v -0.406137 -0.750000 -0.703450
v -0.703450 -0.750000 -0.406137
v 0.380160 -0.850000 0.658456
v 0.000000 -0.850000 0.760320
v -0.000000 -0.750000 0.812274
v 0.406137 -0.750000 0.703450
v -0.380160 -0.850000 0.658456
v -0.658457 -0.850000 0.380160
v -0.703450 -0.750000 0.406137
v -0.406137 -0.750000 0.703450
v 0.658457 -0.850000 -0.380160
v 0.760320 -0.850000 0.000000
v 0.812274 -0.750000 0.000000
v 0.703450 -0.750000 -0.406137
v -0.380160 -0.850000 -0.658456
v 0.000000 -0.850000 -0.760320
v 0.000000 -0.750000 -0.812274
v -0.406137 -0.750000 -0.703450
v -0.658457 -0.850000 0.380160
v -0.760320 -0.850000 -0.000000
v -0.812274 -0.750000 -0.000000
v -0.703450 -0.750000 0.406137
v 0.836352 -0.851667 -0.000000
v 0.893502 -0.741667 -0.000000
v 0.773795 -0.741667 0.446751
v 0.724302 -0.851667 0.418176
v 0.722304 -0.956667 0.000000
v -0.361152 -0.956667 0.625534
v -0.361152 -0.956667 -0.625534
v -0.625534 -0.956667 -0.361152
v -0.724302 -0.851667 -0.418176
v -0.418176 -0.851667 -0.724302
v -0.361152 -0.956667 -0.625534
v 0.361152 -0.956667 0.625534
v 0.418176 -0.851667 0.724302
v -0.000000 -0.851667 0.836352
v 0.000000 -0.956667 0.722304
v -0.361152 -0.956667 0.625534
v -0.418176 -0.851667 0.724302
v -0.724302 -0.851667 0.418176
v -0.625534 -0.956667 0.361152
v 0.625534 -0.956667 -0.361152
v 0.724302 -0.851667 -0.418176
v 0.836352 -0.851667 -0.000000
v 0.722304 -0.956667 0.000000
v -0.361152 -0.956667 -0.625534
v -0.418176 -0.851667 -0.724302
v 0.000000 -0.851667 -0.836352
v 0.000000 -0.956667 -0.722304
v -0.625534 -0.956667 0.361152
v -0.724302 -0.851667 0.418176
v -0.836352 -0.851667 -0.000000
v -0.722304 -0.956667 -0.000000
v 0.722304 -0.956667 0.000000
v 0.836352 -0.851667 -0.000000
v 0.724302 -0.851667 0.418176
v 0.625534 -0.956667 0.361152
v 0.000000 -0.956667 -0.722304
v 0.000000 -0.851667 -0.836352
v 0.418176 -0.851667 -0.724302
v 0.361152 -0.956667 -0.625534
v -0.722304 -0.956667 -0.000000
v -0.836352 -0.851667 -0.000000
v -0.724302 -0.851667 -0.418176
v -0.625534 -0.956667 -0.361152
v 0.625534 -0.956667 0.361152
v 0.724302 -0.851667 0.418176
v 0.418176 -0.851667 0.724302
v 0.361152 -0.956667 0.625534
v 0.000000 -0.956667 0.722304
v -0.000000 -0.851667 0.836352
v -0.418176 -0.851667 0.724302
v -0.361152 -0.956667 0.625534
v 0.361152 -0.956667 -0.625534
v 0.418176 -0.851667 -0.724302
v 0.724302 -0.851667 -0.418176
v 0.625534 -0.956667 -0.361152
v 0.000000 -0.851667 -0.836352
v 0.000000 -0.741667 -0.893502
v 0.446751 -0.741667 -0.773795
v 0.418176 -0.851667 -0.724302
v -0.836352 -0.851667 -0.000000
v -0.893502 -0.741667 -0.000000
v -0.773795 -0.741667 -0.446751
v -0.724302 -0.851667 -0.418176
v 0.724302 -0.851667 0.418176
v 0.773795 -0.741667 0.446751
v 0.446751 -0.741667 0.773795
v 0.418176 -0.851667 0.724302
v -0.000000 -0.851667 0.836352
v -0.000000 -0.741667 0.893502
v -0.446751 -0.741667 0.773795
v -0.418176 -0.851667 0.724302
v 0.418176 -0.851667 -0.724302
v 0.446751 -0.741667 -0.773795
v 0.773795 -0.741667 -0.446751
v 0.724302 -0.851667 -0.418176
v -0.724302 -0.851667 -0.418176
v -0.773795 -0.741667 -0.446751
v -0.446751 -0.741667 -0.773795
v -0.418176 -0.851667 -0.724302
v 0.418176 -0.851667 0.724302
v 0.446751 -0.741667 0.773795
v -0.000000 -0.741667 0.893502
v -0.000000 -0.851667 0.836352
v -0.418176 -0.851667 0.724302
v -0.446751 -0.741667 0.773795
v -0.773795 -0.741667 0.446751
v -0.724302 -0.851667 0.418176
v 0.724302 -0.851667 -0.418176
v 0.773795 -0.741667 -0.446751
v 0.893502 -0.741667 -0.000000
v 0.836352 -0.851667 -0.000000
v -0.418176 -0.851667 -0.724302
v -0.446751 -0.741667 -0.773795
v 0.000000 -0.741667 -0.893502
v 0.000000 -0.851667 -0.836352
v -0.724302 -0.851667 0.418176
v -0.773795 -0.741667 0.446751
v -0.893502 -0.741667 -0.000000
v -0.836352 -0.851667 -0.000000
v 0.446751 -0.741667 0.773795
v -0.000000 -0.750000 0.812274
v -0.000000 -0.741667 0.893502
v -0.000000 -0.750000 0.812274
v -0.446751 -0.741667 0.773795
v -0.000000 -0.741667 0.893502
v 0.446751 -0.741667 0.773795
v 0.406137 -0.750000 0.703450
v -0.000000 -0.750000 0.812274
v -0.406137 -0.750000 0.703450
v -0.446751 -0.741667 0.773795
v -0.000000 -0.750000 0.812274
v -0.406137 -0.750000 0.703450
v -0.773795 -0.741667 0.446751
v -0.446751 -0.741667 0.773795
v 0.406137 -0.750000 0.703450
v 0.446751 -0.741667 0.773795
v 0.703450 -0.750000 0.406137
v -0.703450 -0.750000 0.406137
v -0.773795 -0.741667 0.446751
v -0.406137 -0.750000 0.703450
v 0.893502 -0.741667 -0.000000
v 0.703450 -0.750000 0.406137
v 0.773795 -0.741667 0.446751
v -0.703450 -0.750000 0.406137
v -0.893502 -0.741667 -0.000000
v -0.773795 -0.741667 0.446751
v 0.893502 -0.741667 -0.000000
v 0.812274 -0.750000 0.000000
v 0.703450 -0.750000 0.406137
v -0.812274 -0.750000 -0.000000
v -0.893502 -0.741667 -0.000000
v -0.703450 -0.750000 0.406137
v 0.773795 -0.741667 -0.446751
v 0.812274 -0.750000 0.000000
v 0.893502 -0.741667 -0.000000
v 0.773795 -0.741667 -0.446751
v 0.703450 -0.750000 -0.406137
v 0.812274 -0.750000 0.000000
v -0.703450 -0.750000 -0.406137
v -0.893502 -0.741667 -0.000000
v -0.812274 -0.750000 -0.000000
v -0.703450 -0.750000 -0.406137
v -0.773795 -0.741667 -0.446751
v -0.893502 -0.741667 -0.000000
v 0.773795 -0.741667 -0.446751
v 0.406137 -0.750000 -0.703450
v 0.703450 -0.750000 -0.406137
v -0.406137 -0.750000 -0.703450
v -0.773795 -0.741667 -0.446751
v -0.703450 -0.750000 -0.406137
v 0.446751 -0.741667 -0.773795
v 0.406137 -0.750000 -0.703450
v 0.773795 -0.741667 -0.446751
v -0.406137 -0.750000 -0.703450
v -0.446751 -0.741667 -0.773795
v -0.773795 -0.741667 -0.446751
v 0.446751 -0.741667 -0.773795
v 0.000000 -0.750000 -0.812274
v 0.406137 -0.750000 -0.703450
v 0.000000 -0.750000 -0.812274
v -0.446751 -0.741667 -0.773795
v -0.406137 -0.750000 -0.703450
v 0.000000 -0.741667 -0.893502
v 0.000000 -0.750000 -0.812274
v 0.446751 -0.741667 -0.773795
v 0.000000 -0.750000 -0.812274
v 0.000000 -0.741667 -0.893502
v -0.446751 -0.741667 -0.773795
v 0.703450 -0.750000 0.406137
v 0.446751 -0.741667 0.773795
v 0.773795 -0.741667 0.446751
v 0.800000 0.500000 0.000000
v 0.692820 0.500000 0.400000
v 0.762102 0.500000 0.440000
v 0.880000 0.500000 0.000000
v -0.400000 0.500000 0.692820
v -0.692820 0.500000 0.400000
v -0.762102 0.500000 0.440000
v -0.440000 0.500000 0.762102
v 0.692820 0.500000 -0.400000
v 0.800000 0.500000 0.000000
v 0.880000 0.500000 0.000000
v 0.762102 0.500000 -0.440000
v 0.000000 0.500000 0.800000
v -0.400000 0.500000 0.692820
v -0.440000 0.500000 0.762102
v 0.000000 0.500000 0.880000
v 0.400000 0.500000 -0.692820
v 0.692820 0.500000 -0.400000
v 0.762102 0.500000 -0.440000
v 0.440000 0.500000 -0.762102
v 0.000000 0.500000 -0.800000
v 0.400000 0.500000 -0.692820
v 0.440000 0.500000 -0.762102
v 0.000000 0.500000 -0.880000
v 0.924000 0.400000 0.000000
v 0.800207 0.400000 -0.462000
v 0.762102 0.500000 -0.440000
v 0.880000 0.500000 0.000000
v 0.800207 0.400000 -0.462000
v 0.462000 0.400000 -0.800207
v 0.440000 0.500000 -0.762102
v 0.762102 0.500000 -0.440000
v 0.462000 0.400000 -0.800207
v 0.000000 0.400000 -0.924000
v 0.000000 0.500000 -0.880000
v 0.440000 0.500000 -0.762102
v 0.000000 0.400000 -0.924000
v -0.462000 0.400000 -0.800207
v -0.440000 0.500000 -0.762102
v 0.000000 0.500000 -0.880000
v -0.462000 0.400000 -0.800207
v -0.800207 0.400000 -0.462000
v -0.762102 0.500000 -0.440000
v -0.440000 0.500000 -0.762102
v -0.800207 0.400000 -0.462000
v -0.924000 0.400000 -0.000000
v -0.880000 0.500000 -0.000000
v -0.762102 0.500000 -0.440000
v 0.000000 0.400000 0.924000
v 0.462000 0.400000 0.800207
v 0.440000 0.500000 0.762102
v 0.000000 0.500000 0.880000
v -0.462000 0.400000 0.800207
v 0.000000 0.400000 0.924000
v 0.000000 0.500000 0.880000
v -0.440000 0.500000 0.762102
v -0.924000 0.400000 -0.000000
v -0.800207 0.400000 0.462000
v -0.762102 0.500000 0.440000
v -0.880000 0.500000 -0.000000
v 0.462000 0.400000 0.800207
v 0.800207 0.400000 0.462000
v 0.762102 0.500000 0.440000
v 0.440000 0.500000 0.762102
v -0.800207 0.400000 0.462000
v -0.462000 0.400000 0.800207
v -0.440000 0.500000 0.762102
v -0.762102 0.500000 0.440000
v 0.800207 0.400000 0.462000
v 0.924000 0.400000 0.000000
v 0.880000 0.500000 0.000000
v 0.762102 0.500000 0.440000
v 0.692820 0.500000 0.400000
v 0.400000 0.500000 0.692820
v 0.440000 0.500000 0.762102
v 0.762102 0.500000 0.440000
v -0.800000 0.500000 -0.000000
v -0.692820 0.500000 -0.400000
v -0.762102 0.500000 -0.440000
v -0.880000 0.500000 -0.000000
v 0.400000 0.500000 0.692820
v 0.000000 0.500000 0.800000
v 0.000000 0.500000 0.880000
v 0.440000 0.500000 0.762102
v -0.692820 0.500000 -0.400000
v -0.400000 0.500000 -0.692820
v -0.440000 0.500000 -0.762102
v -0.762102 0.500000 -0.440000
v -0.400000 0.500000 -0.692820
v 0.000000 0.500000 -0.800000
v 0.000000 0.500000 -0.880000
v -0.440000 0.500000 -0.762102
v -0.692820 0.400000 0.400000
v -0.692820 0.500000 0.400000
v -0.800000 0.500000 -0.000000
v -0.800000 0.400000 -0.000000
v -0.800000 0.400000 -0.000000
v -0.800000 0.500000 -0.000000
v -0.692820 0.500000 -0.400000
v -0.692820 0.400000 -0.400000
v -0.692820 0.400000 -0.400000
v -0.692820 0.500000 -0.400000
v -0.400000 0.500000 -0.692820
v -0.400000 0.400000 -0.692820
v -0.400000 0.400000 -0.692820
v -0.400000 0.500000 -0.692820
v 0.000000 0.500000 -0.800000
v 0.000000 0.400000 -0.800000
v 0.000000 0.400000 -0.800000
v 0.000000 0.500000 -0.800000
v 0.400000 0.500000 -0.692820
v 0.400000 0.400000 -0.692820
v 0.400000 0.400000 -0.692820
v 0.400000 0.500000 -0.692820
v 0.692820 0.500000 -0.400000
v 0.692820 0.400000 -0.400000
v 0.692820 0.400000 -0.400000
v 0.692820 0.500000 -0.400000
v 0.800000 0.500000 0.000000
v 0.800000 0.400000 0.000000
v 0.800000 0.400000 0.000000
v 0.800000 0.500000 0.000000
v 0.692820 0.500000 0.400000
v 0.692820 0.400000 0.400000
v 0.692820 0.400000 0.400000
v 0.692820 0.500000 0.400000
v 0.400000 0.500000 0.692820
v 0.400000 0.400000 0.692820
v 0.400000 0.400000 0.692820
v 0.400000 0.500000 0.692820
v 0.000000 0.500000 0.800000
v 0.000000 0.400000 0.800000
v 0.000000 0.400000 0.800000
v 0.000000 0.500000 0.800000
v -0.400000 0.500000 0.692820
v -0.400000 0.400000 0.692820
v -0.400000 0.400000 0.692820
v -0.400000 0.500000 0.692820
v -0.692820 0.500000 0.400000
v -0.692820 0.400000 0.400000
v -0.692820 0.400000 0.400000
v 0.692820 0.400000 -0.400000
v -0.692820 0.400000 -0.400000
v 0.000000 0.400000 0.800000
v -0.692820 0.400000 0.400000
v -0.400000 0.400000 0.692820
v -0.692820 0.400000 0.400000
v -0.692820 0.400000 -0.400000
v -0.800000 0.400000 -0.000000
v -0.692820 0.400000 -0.400000
v 0.000000 0.400000 -0.800000
v -0.400000 0.400000 -0.692820
v 0.000000 0.400000 -0.800000
v -0.692820 0.400000 -0.400000
v 0.400000 0.400000 -0.692820
v 0.400000 0.400000 -0.692820
v -0.692820 0.400000 -0.400000
v 0.692820 0.400000 -0.400000
v 0.692820 0.400000 -0.400000
v 0.692820 0.400000 0.400000
v 0.800000 0.400000 0.000000
v 0.692820 0.400000 0.400000
v 0.692820 0.400000 -0.400000
v 0.400000 0.400000 0.692820
v 0.400000 0.400000 0.692820
v 0.692820 0.400000 -0.400000
v 0.000000 0.400000 0.800000
v 0.000000 0.400000 0.800000
v 0.692820 0.400000 -0.400000
v -0.692820 0.400000 0.400000
v -0.361152 -0.956667 0.625534
v 0.361152 -0.956667 0.625534
v 0.000000 -0.956667 0.722304
v 0.361152 -0.956667 0.625534
v 0.722304 -0.956667 0.000000
v 0.625534 -0.956667 0.361152
v 0.722304 -0.956667 0.000000
v 0.361152 -0.956667 -0.625534
v 0.625534 -0.956667 -0.361152
v 0.361152 -0.956667 -0.625534
v -0.361152 -0.956667 -0.625534
v 0.000000 -0.956667 -0.722304
v -0.361152 -0.956667 -0.625534
v -0.722304 -0.956667 -0.000000
v -0.625534 -0.956667 -0.361152
v -0.722304 -0.956667 -0.000000
v -0.361152 -0.956667 0.625534
v -0.625534 -0.956667 0.361152
v -0.361152 -0.956667 0.625534
v 0.722304 -0.956667 0.000000
v 0.361152 -0.956667 0.625534
v 0.722304 -0.956667 0.000000
v -0.361152 -0.956667 -0.625534
v 0.361152 -0.956667 -0.625534
v -0.361152 -0.956667 -0.625534
v -0.361152 -0.956667 0.625534
v -0.722304 -0.956667 -0.000000
v -0.345600 -0.900000 0.598597
v 0.000000 -0.900000 0.691200
v 0.345600 -0.900000 0.598597
v 0.345600 -0.900000 0.598597
v 0.598597 -0.900000 0.345600
v 0.691200 -0.900000 0.000000
v 0.691200 -0.900000 0.000000
v 0.598597 -0.900000 -0.345600
v 0.345600 -0.900000 -0.598597
v 0.345600 -0.900000 -0.598597
v 0.000000 -0.900000 -0.691200
v -0.345600 -0.900000 -0.598597
v -0.345600 -0.900000 -0.598597
v -0.598597 -0.900000 -0.345600
v -0.691200 -0.900000 -0.000000
v -0.691200 -0.900000 -0.000000
v -0.598597 -0.900000 0.345600
v -0.345600 -0.900000 0.598597
v -0.345600 -0.900000 0.598597
v 0.345600 -0.900000 0.598597
v 0.691200 -0.900000 0.000000
v 0.691200 -0.900000 0.000000
v 0.345600 -0.900000 -0.598597
v -0.345600 -0.900000 -0.598597
v -0.345600 -0.900000 -0.598597
v -0.691200 -0.900000 -0.000000
v -0.345600 -0.900000 0.598597
v -0.800207 0.400000 -0.462000
v -0.462000 0.400000 -0.800207
v -0.462000 0.350000 -0.800207
v -0.800207 0.350000 -0.462000
v 0.462000 0.400000 0.800207
v 0.000000 0.400000 0.924000
v 0.000000 0.350000 0.924000
v 0.462000 0.350000 0.800207
v -0.462000 0.400000 0.800207
v -0.800207 0.400000 0.462000
v -0.800207 0.350000 0.462000
v -0.462000 0.350000 0.800207
v 0.800207 0.400000 -0.462000
v 0.924000 0.400000 0.000000
v 0.924000 0.350000 0.000000
v 0.800207 0.350000 -0.462000
v -0.462000 0.400000 -0.800207
v 0.000000 0.400000 -0.924000
v 0.000000 0.350000 -0.924000
v -0.462000 0.350000 -0.800207
v -0.800207 0.400000 0.462000
v -0.924000 0.400000 -0.000000
v -0.924000 0.350000 -0.000000
v -0.800207 0.350000 0.462000
v 0.924000 0.400000 0.000000
v 0.800207 0.400000 0.462000
v 0.800207 0.350000 0.462000
v 0.924000 0.350000 0.000000
v 0.000000 0.400000 -0.924000
v 0.462000 0.400000 -0.800207
v 0.462000 0.350000 -0.800207
v 0.000000 0.350000 -0.924000
v -0.924000 0.400000 -0.000000
v -0.800207 0.400000 -0.462000
v -0.800207 0.350000 -0.462000
v -0.924000 0.350000 -0.000000
v 0.800207 0.400000 0.462000
v 0.462000 0.400000 0.800207
v 0.462000 0.350000 0.800207
v 0.800207 0.350000 0.462000
v 0.000000 0.400000 0.924000
v -0.462000 0.400000 0.800207
v -0.462000 0.350000 0.800207
v 0.000000 0.350000 0.924000
v 0.462000 0.400000 -0.800207
v 0.800207 0.400000 -0.462000
v 0.800207 0.350000 -0.462000
v 0.462000 0.350000 -0.800207

vt 0.843821 1.006090
vt 1.013821 0.814515
vt 1.013821 1.006090
vt 0.843821 0.814515
vt 1.013821 0.814515
vt 0.843821 1.006090
vt 0.673821 1.006090
vt 0.843821 0.814515
vt 0.843821 1.006090
vt 0.673821 0.814515
vt 0.843821 0.814515
vt 0.673821 1.006090
vt 0.503821 1.006090
vt 0.673821 0.814515
vt 0.673821 1.006090
vt 0.503821 0.814515
vt 0.673821 0.814515
vt 0.503821 1.006090
vt 0.333821 1.006090
vt 0.503821 0.814515
vt 0.503821 1.006090
vt 0.333821 0.814515
vt 0.503821 0.814515
vt 0.333821 1.006090
vt 0.163821 1.006090
vt 0.333821 0.814515
vt 0.333821 1.006090
vt 0.163822 0.814515
vt 0.333821 0.814515
vt 0.163821 1.006090
vt -0.006178 1.006090
vt 0.163822 0.814515
vt 0.163821 1.006090
vt -0.006178 0.814515
vt 0.163822 0.814515
vt -0.006178 1.006090
vt 0.843821 1.006090
vt 1.013821 0.814515
vt 1.013821 1.006090
vt 0.843821 0.814515
vt 1.013821 0.814515
vt 0.843821 1.006090
vt 0.673821 1.006090
vt 0.843821 0.814515
vt 0.843821 1.006090
vt 0.673821 0.814515
vt 0.843821 0.814515
vt 0.673821 1.006090
vt 0.503821 1.006090
vt 0.673821 0.814515
vt 0.673821 1.006090
vt 0.503821 0.814515
vt 0.673821 0.814515
vt 0.503821 1.006090
vt 0.333821 1.006090
vt 0.503821 0.814515
vt 0.503821 1.006090
vt 0.333821 0.814515
vt 0.503821 0.814515
vt 0.333821 1.006090
vt 0.163822 1.006090
vt 0.333821 0.814515
vt 0.333821 1.006090
vt 0.163822 0.814515
vt 0.333821 0.814515
vt 0.163822 1.006090
vt -0.006178 1.006090
vt 0.163822 0.814515
vt 0.163822 1.006090
vt -0.006178 0.814515
vt 0.163822 0.814515
vt -0.006178 1.006090
vt 0.002322 0.600055
vt 0.140022 0.458070
vt 0.155322 0.600055
vt 0.017622 0.458070
vt 0.140022 0.458070
vt 0.002322 0.600055
vt -0.006178 0.814515
vt 0.155322 0.600055
vt 0.163822 0.814515
vt 0.002322 0.600055
vt 0.155322 0.600055
vt -0.006178 0.814515
vt 0.172322 0.600055
vt 0.310021 0.458070
vt 0.325322 0.600055
vt 0.187622 0.458070
vt 0.310021 0.458070
vt 0.172322 0.600055
vt 0.163822 0.814515
vt 0.325322 0.600055
vt 0.333821 0.814515
vt 0.172322 0.600055
vt 0.325322 0.600055
vt 0.163822 0.814515
vt 0.342321 0.600055
vt 0.480021 0.458070
vt 0.495321 0.600055
vt 0.357622 0.458070
vt 0.480021 0.458070
vt 0.342321 0.600055
vt 0.333821 0.814515
vt 0.495321 0.600055
vt 0.503821 0.814515
vt 0.342321 0.600055
vt 0.495321 0.600055
vt 0.333821 0.814515
vt 0.512321 0.600055
vt 0.650021 0.458070
vt 0.665321 0.600055
vt 0.527621 0.458070
vt 0.650021 0.458070
vt 0.512321 0.600055
vt 0.503821 0.814515
vt 0.665321 0.600055
vt 0.673821 0.814515
vt 0.512321 0.600055
vt 0.665321 0.600055
vt 0.503821 0.814515
vt 0.682321 0.600055
vt 0.820021 0.458070
vt 0.835321 0.600055
vt 0.697621 0.458069
vt 0.820021 0.458070
vt 0.682321 0.600055
vt 0.673821 0.814515
vt 0.835321 0.600055
vt 0.843821 0.814515
vt 0.682321 0.600055
vt 0.835321 0.600055
vt 0.673821 0.814515
vt 0.852321 0.600055
vt 0.990021 0.458069
vt 1.005321 0.600055
vt 0.867621 0.458069
vt 0.990021 0.458069
vt 0.852321 0.600055
vt 0.843821 0.814515
vt 1.005321 0.600055
vt 1.013821 0.814515
vt 0.852321 0.600055
vt 1.005321 0.600055
vt 0.843821 0.814515
vt 0.002322 0.600055
vt 0.140022 0.458070
vt 0.155322 0.600055
vt 0.017622 0.458070
vt 0.140022 0.458070
vt 0.002322 0.600055
vt -0.006178 0.814515
vt 0.155322 0.600055
vt 0.163822 0.814515
vt 0.002322 0.600055
vt 0.155322 0.600055
vt -0.006178 0.814515
vt 0.172322 0.600055
vt 0.310021 0.458070
vt 0.325321 0.600055
vt 0.187622 0.458070
vt 0.310021 0.458070
vt 0.172322 0.600055
vt 0.163822 0.814515
vt 0.325321 0.600055
vt 0.333821 0.814515
vt 0.172322 0.600055
vt 0.325321 0.600055
vt 0.163822 0.814515
vt 0.342321 0.600055
vt 0.480021 0.458070
vt 0.495321 0.600055
vt 0.357622 0.458070
vt 0.480021 0.458070
vt 0.342321 0.600055
vt 0.333821 0.814515
vt 0.495321 0.600055
vt 0.503821 0.814515
vt 0.342321 0.600055
vt 0.495321 0.600055
vt 0.333821 0.814515
vt 0.512321 0.600055
vt 0.650021 0.458070
vt 0.665321 0.600055
vt 0.527621 0.458070
vt 0.650021 0.458070
vt 0.512321 0.600055
vt 0.503821 0.814515
vt 0.665321 0.600055
vt 0.673821 0.814515
vt 0.512321 0.600055
vt 0.665321 0.600055
vt 0.503821 0.814515
vt 0.682321 0.600055
vt 0.820021 0.458070
vt 0.835321 0.600055
vt 0.697621 0.458070
vt 0.820021 0.458070
vt 0.682321 0.600055
vt 0.673821 0.814515
vt 0.835321 0.600055
vt 0.843821 0.814515
vt 0.682321 0.600055
vt 0.835321 0.600055
vt 0.673821 0.814515
vt 0.852321 0.600055
vt 0.990021 0.458069
vt 1.005321 0.600055
vt 0.867621 0.458069
vt 0.990021 0.458069
vt 0.852321 0.600055
vt 0.843821 0.814515
vt 1.005321 0.600055
vt 1.013821 0.814515
vt 0.852321 0.600055
vt 1.005321 0.600055
vt 0.843821 0.814515
vt 1.315462 0.159559
vt 1.283739 0.338058
vt 1.283739 0.168059
vt 1.315462 0.346558
vt 1.283739 0.338058
vt 1.315462 0.159559
vt 0.884626 1.150730
vt 0.838694 0.983642
vt 0.838694 1.145210
vt 0.884626 0.978122
vt 0.838694 0.983642
vt 0.884626 1.150730
vt 0.893856 0.113993
vt 0.766655 -0.360730
vt 1.241378 -0.233528
vt 0.012749 1.237044
vt 0.046991 1.391268
vt 0.046991 1.244388
vt 0.012749 1.398612
vt 0.046991 1.391268
vt 0.012749 1.237044
vt 0.727457 0.291020
vt 0.693215 0.136796
vt 0.693215 0.283676
vt 0.727457 0.129452
vt 0.693215 0.136796
vt 0.727457 0.291020
vt 0.727457 0.482197
vt 0.693215 0.327973
vt 0.693215 0.474853
vt 0.727457 0.320629
vt 0.693215 0.327973
vt 0.727457 0.482197
vt 1.276928 0.920956
vt 1.242686 0.766732
vt 1.242686 0.913612
vt 1.276928 0.759388
vt 1.242686 0.766732
vt 1.276928 0.920956
vt 0.838694 0.792465
vt 0.804452 0.946689
vt 0.804452 0.799809
vt 0.838695 0.954033
vt 0.804452 0.946689
vt 0.838694 0.792465
vt 0.491427 1.336995
vt 0.457185 1.182771
vt 0.457185 1.329651
vt 0.491427 1.175427
vt 0.457185 1.182771
vt 0.491427 1.336995
vt 0.838694 1.145210
vt 0.804452 0.990986
vt 0.804452 1.137866
vt 0.838694 0.983642
vt 0.804452 0.990986
vt 0.838694 1.145210
vt 1.434007 0.950565
vt 1.468249 1.104789
vt 1.468249 0.957909
vt 1.434007 1.112133
vt 1.468249 1.104789
vt 1.434007 0.950565
vt 0.264556 1.336995
vt 0.230314 1.182771
vt 0.230313 1.329651
vt 0.264556 1.175427
vt 0.230314 1.182771
vt 0.264556 1.336995
vt 0.995773 1.174819
vt 1.030015 1.329043
vt 1.030015 1.182163
vt 0.995773 1.336387
vt 1.030015 1.329043
vt 0.995773 1.174819
vt -0.214122 1.237044
vt -0.179880 1.391268
vt -0.179880 1.244388
vt -0.214122 1.398612
vt -0.179880 1.391268
vt -0.214122 1.237044
vt 0.995773 0.601288
vt 1.030015 0.755512
vt 1.030015 0.608632
vt 0.995773 0.762856
vt 1.030015 0.755512
vt 0.995773 0.601288
vt 1.388076 0.945045
vt 1.434007 1.112133
vt 1.434007 0.950565
vt 1.388076 1.117653
vt 1.434007 1.112133
vt 1.388076 0.945045
vt 0.310487 1.342515
vt 0.264556 1.175427
vt 0.264556 1.336995
vt 0.310487 1.169907
vt 0.264556 1.175427
vt 0.310487 1.342515
vt 0.949842 1.169299
vt 0.995773 1.336387
vt 0.995773 1.174819
vt 0.949842 1.341907
vt 0.995773 1.336387
vt 0.949842 1.169299
vt -0.260053 1.231524
vt -0.214122 1.398612
vt -0.214122 1.237044
vt -0.260053 1.404132
vt -0.214122 1.398612
vt -0.260053 1.231524
vt 0.949842 0.595768
vt 0.995773 0.762856
vt 0.995773 0.601288
vt 0.949842 0.768376
vt 0.995773 0.762856
vt 0.949842 0.595768
vt -0.033182 1.231524
vt 0.012749 1.398612
vt 0.012749 1.237044
vt -0.033182 1.404132
vt 0.012749 1.398612
vt -0.033182 1.231524
vt 0.773388 0.296540
vt 0.727457 0.129452
vt 0.727457 0.291020
vt 0.773388 0.123932
vt 0.727457 0.129452
vt 0.773388 0.296540
vt 0.773388 0.487717
vt 0.727457 0.320629
vt 0.727457 0.482197
vt 0.773388 0.315109
vt 0.727457 0.320629
vt 0.773388 0.487717
vt 1.322859 0.926476
vt 1.276928 0.759388
vt 1.276928 0.920956
vt 1.322859 0.753868
vt 1.276928 0.759388
vt 1.322859 0.926476
vt 0.884625 0.786945
vt 0.838695 0.954033
vt 0.838694 0.792465
vt 0.884626 0.959553
vt 0.838695 0.954033
vt 0.884625 0.786945
vt 0.537358 1.342515
vt 0.491427 1.175427
vt 0.491427 1.336995
vt 0.537358 1.169907
vt 0.491427 1.175427
vt 0.537358 1.342515
vt 0.917016 1.159361
vt 0.967540 0.975564
vt 0.917016 0.969492
vt 0.967540 1.153288
vt 0.967540 0.975564
vt 0.917016 1.159361
vt 0.439984 1.159968
vt 0.803144 0.796808
vt 0.307058 0.663882
vt -0.116096 1.228966
vt -0.178572 1.394573
vt -0.116096 1.406691
vt -0.178572 1.241084
vt -0.178572 1.394573
vt -0.116096 1.228966
vt 0.856302 0.299098
vt 0.918778 0.133491
vt 0.856302 0.121373
vt 0.918778 0.286981
vt 0.918778 0.133491
vt 0.856302 0.299098
vt 0.856302 0.490275
vt 0.918778 0.324668
vt 0.856303 0.312551
vt 0.918778 0.478158
vt 0.918778 0.324668
vt 0.856302 0.490275
vt 1.405774 0.929035
vt 1.468249 0.763427
vt 1.405774 0.751310
vt 1.468249 0.916917
vt 1.468249 0.763427
vt 1.405774 0.929035
vt 0.967540 0.784387
vt 1.030015 0.949994
vt 0.967540 0.962112
vt 1.030015 0.796504
vt 1.030015 0.949994
vt 0.967540 0.784387
vt 0.620272 1.345073
vt 0.682748 1.179466
vt 0.620272 1.167348
vt 0.682748 1.332955
vt 0.682748 1.179466
vt 0.620272 1.345073
vt 0.967540 1.153288
vt 1.030015 0.987681
vt 0.967540 0.975564
vt 1.030015 1.141171
vt 1.030015 0.987681
vt 0.967540 1.153288
vt 1.305161 0.942487
vt 1.242686 1.108094
vt 1.305161 1.120212
vt 1.242686 0.954605
vt 1.242686 1.108094
vt 1.305161 0.942487
vt 0.393401 1.345073
vt 0.455877 1.179466
vt 0.393401 1.167348
vt 0.455877 1.332955
vt 0.455877 1.179466
vt 0.393401 1.345073
vt 0.866928 1.166741
vt 0.804452 1.332348
vt 0.866928 1.344466
vt 0.804452 1.178859
vt 0.804452 1.332348
vt 0.866928 1.166741
vt -0.342968 1.228966
vt -0.405443 1.394573
vt -0.342968 1.406691
vt -0.405443 1.241084
vt -0.405443 1.394573
vt -0.342968 1.228966
vt 0.866927 0.593210
vt 0.804452 0.758817
vt 0.866928 0.770934
vt 0.804452 0.605327
vt 0.804452 0.758817
vt 0.866927 0.593210
vt 1.355685 0.936415
vt 1.305161 1.120212
vt 1.355685 1.126284
vt 1.305161 0.942487
vt 1.305161 1.120212
vt 1.355685 0.936415
vt 0.342877 1.351145
vt 0.393401 1.167348
vt 0.342877 1.161276
vt 0.393401 1.345073
vt 0.393401 1.167348
vt 0.342877 1.351145
vt 0.917452 1.160669
vt 0.866928 1.344466
vt 0.917452 1.350538
vt 0.866928 1.166741
vt 0.866928 1.344466
vt 0.917452 1.160669
vt -0.292443 1.222894
vt -0.342968 1.406691
vt -0.292443 1.412763
vt -0.342968 1.228966
vt -0.342968 1.406691
vt -0.292443 1.222894
vt 0.917452 0.587138
vt 0.866928 0.770934
vt 0.917452 0.777007
vt 0.866927 0.593210
vt 0.866928 0.770934
vt 0.917452 0.587138
vt -0.065572 1.222894
vt -0.116096 1.406691
vt -0.065572 1.412763
vt -0.116096 1.228966
vt -0.116096 1.406691
vt -0.065572 1.222894
vt 0.805778 0.305170
vt 0.856302 0.121373
vt 0.805778 0.115301
vt 0.856302 0.299098
vt 0.856302 0.121373
vt 0.805778 0.305170
vt 0.805778 0.496347
vt 0.856303 0.312551
vt 0.805778 0.306478
vt 0.856302 0.490275
vt 0.856303 0.312551
vt 0.805778 0.496347
vt 1.355250 0.935107
vt 1.405774 0.751310
vt 1.355250 0.745238
vt 1.405774 0.929035
vt 1.405774 0.751310
vt 1.355250 0.935107
vt 0.917016 0.778315
vt 0.967540 0.962112
vt 0.917016 0.968184
vt 0.967540 0.784387
vt 0.967540 0.962112
vt 0.917016 0.778315
vt 0.569748 1.351145
vt 0.620272 1.167348
vt 0.569748 1.161276
vt 0.620272 1.345073
vt 0.620272 1.167348
vt 0.569748 1.351145
vt 0.805778 0.305170
vt 0.805778 0.115301
vt 0.773388 0.296540
vt -0.292443 1.412763
vt -0.260053 1.404132
vt -0.292443 1.222894
vt 0.773388 0.296540
vt 0.805778 0.115301
vt 0.773388 0.123932
vt -0.260053 1.404132
vt -0.260053 1.231524
vt -0.292443 1.222894
vt 0.805778 0.306478
vt 0.773388 0.315109
vt 0.805778 0.496347
vt 0.949842 1.341907
vt 0.949842 1.169299
vt 0.917452 1.160669
vt 0.773388 0.315109
vt 0.773388 0.487717
vt 0.805778 0.496347
vt 0.917016 1.159361
vt 0.917016 0.969492
vt 0.884626 1.150730
vt 0.569748 1.161276
vt 0.537358 1.169907
vt 0.569748 1.351145
vt 0.884626 1.150730
vt 0.917016 0.969492
vt 0.884626 0.978122
vt 0.537358 1.169907
vt 0.537358 1.342515
vt 0.569748 1.351145
vt 1.355250 0.935107
vt 1.355250 0.745238
vt 1.322859 0.926476
vt 1.322859 0.926476
vt 1.355250 0.745238
vt 1.322859 0.753868
vt 0.310487 1.169907
vt 0.310487 1.342515
vt 0.342877 1.161276
vt 0.342877 1.161276
vt 0.310487 1.342515
vt 0.342877 1.351145
vt 0.949842 0.595768
vt 0.917452 0.587138
vt 0.949842 0.768376
vt -0.033182 1.404132
vt -0.033182 1.231524
vt -0.065572 1.412763
vt 0.917452 0.587138
vt 0.917452 0.777007
vt 0.949842 0.768376
vt -0.065572 1.412763
vt -0.033182 1.231524
vt -0.065572 1.222894
vt 1.388076 0.945045
vt 1.355685 0.936415
vt 1.388076 1.117653
vt 0.884626 0.959553
vt 0.884625 0.786945
vt 0.917016 0.968184
vt 1.355685 0.936415
vt 1.355685 1.126284
vt 1.388076 1.117653
vt 0.917016 0.968184
vt 0.884625 0.786945
vt 0.917016 0.778315
vt 0.917452 1.350538
vt 0.949842 1.341907
vt 0.917452 1.160669
vt 1.176246 0.512675
vt 1.144524 0.691175
vt 1.144524 0.521175
vt 1.176246 0.699675
vt 1.144524 0.691175
vt 1.176246 0.512675
vt 1.315462 0.355908
vt 1.283739 0.534408
vt 1.283739 0.364408
vt 1.315462 0.542908
vt 1.283739 0.534408
vt 1.315462 0.355908
vt 1.176246 0.709025
vt 1.144523 0.887525
vt 1.144523 0.717525
vt 1.176246 0.896025
vt 1.144523 0.887525
vt 1.176246 0.709025
vt 1.315463 0.552258
vt 1.283741 0.730755
vt 1.283741 0.560758
vt 1.315463 0.739255
vt 1.283741 0.730755
vt 1.315463 0.552258
vt 1.176246 0.905375
vt 1.144523 1.083877
vt 1.144523 0.913875
vt 1.176246 1.092377
vt 1.144523 1.083877
vt 1.176246 0.905375
vt 1.176247 1.101727
vt 1.144524 1.280226
vt 1.144524 1.110227
vt 1.176247 1.288726
vt 1.144524 1.280226
vt 1.176247 1.101727
vt 1.176246 0.896025
vt 1.220852 0.704350
vt 1.220852 0.900700
vt 1.176246 0.709025
vt 1.220852 0.704350
vt 1.176246 0.896025
vt 1.176246 1.092377
vt 1.220852 0.900700
vt 1.220852 1.097052
vt 1.176246 0.905375
vt 1.220852 0.900700
vt 1.176246 1.092377
vt 1.176247 1.288726
vt 1.220852 1.097052
vt 1.220852 1.293401
vt 1.176247 1.101727
vt 1.220852 1.097052
vt 1.176247 1.288726
vt 1.315461 -0.242493
vt 1.360067 -0.434170
vt 1.360067 -0.237818
vt 1.315461 -0.429495
vt 1.360067 -0.434170
vt 1.315461 -0.242493
vt 1.315461 -0.046142
vt 1.360067 -0.237818
vt 1.360067 -0.041467
vt 1.315461 -0.233143
vt 1.360067 -0.237818
vt 1.315461 -0.046142
vt 1.315461 0.150209
vt 1.360067 -0.041467
vt 1.360067 0.154884
vt 1.315461 -0.036792
vt 1.360067 -0.041467
vt 1.315461 0.150209
vt 1.176246 0.306977
vt 1.220852 0.115301
vt 1.220852 0.311652
vt 1.176246 0.119976
vt 1.220852 0.115301
vt 1.176246 0.306977
vt 1.315463 0.739255
vt 1.360067 0.547583
vt 1.360068 0.743930
vt 1.315463 0.552258
vt 1.360067 0.547583
vt 1.315463 0.739255
vt 1.315462 0.346558
vt 1.360067 0.154884
vt 1.360067 0.351233
vt 1.315462 0.159559
vt 1.360067 0.154884
vt 1.315462 0.346558
vt 1.176247 0.503325
vt 1.220852 0.311652
vt 1.220852 0.508000
vt 1.176247 0.316327
vt 1.220852 0.311652
vt 1.176247 0.503325
vt 1.315462 0.542908
vt 1.360067 0.351233
vt 1.360067 0.547583
vt 1.315462 0.355908
vt 1.360067 0.351233
vt 1.315462 0.542908
vt 1.176246 0.699675
vt 1.220852 0.508000
vt 1.220852 0.704350
vt 1.176246 0.512675
vt 1.220852 0.508000
vt 1.176246 0.699675
vt 1.176247 0.316327
vt 1.144524 0.494825
vt 1.144524 0.324827
vt 1.176247 0.503325
vt 1.144524 0.494825
vt 1.176247 0.316327
vt 1.315461 -0.036792
vt 1.283739 0.141709
vt 1.283739 -0.028292
vt 1.315461 0.150209
vt 1.283739 0.141709
vt 1.315461 -0.036792
vt 1.176246 0.119976
vt 1.144524 0.298477
vt 1.144523 0.128477
vt 1.176246 0.306977
vt 1.144524 0.298477
vt 1.176246 0.119976
vt 1.315461 -0.233143
vt 1.283738 -0.054642
vt 1.283738 -0.224643
vt 1.315461 -0.046142
vt 1.283738 -0.054642
vt 1.315461 -0.233143
vt 1.315461 -0.429495
vt 1.283738 -0.250993
vt 1.283738 -0.420995
vt 1.315461 -0.242493
vt 1.283738 -0.250993
vt 1.315461 -0.429495
vt 1.283739 0.168059
vt 1.242687 0.338058
vt 1.283739 0.338058
vt 1.242688 0.168059
vt 1.242687 0.338058
vt 1.283739 0.168059
vt 1.283739 -0.028292
vt 1.242687 0.141709
vt 1.283739 0.141709
vt 1.242687 -0.028292
vt 1.242687 0.141709
vt 1.283739 -0.028292
vt 1.283738 -0.224643
vt 1.242686 -0.054642
vt 1.283738 -0.054642
vt 1.242687 -0.224643
vt 1.242686 -0.054642
vt 1.283738 -0.224643
vt 1.283738 -0.420995
vt 1.242686 -0.250993
vt 1.283738 -0.250993
vt 1.242686 -0.420995
vt 1.242686 -0.250993
vt 1.283738 -0.420995
vt 1.144524 1.110227
vt 1.103473 1.280226
vt 1.144524 1.280226
vt 1.103473 1.110227
vt 1.103473 1.280226
vt 1.144524 1.110227
vt 1.144523 0.913875
vt 1.103471 1.083877
vt 1.144523 1.083877
vt 1.103471 0.913875
vt 1.103471 1.083877
vt 1.144523 0.913875
vt 1.144523 0.717525
vt 1.103471 0.887525
vt 1.144523 0.887525
vt 1.103472 0.717525
vt 1.103471 0.887525
vt 1.144523 0.717525
vt 1.144524 0.521175
vt 1.103472 0.691175
vt 1.144524 0.691175
vt 1.103472 0.521175
vt 1.103472 0.691175
vt 1.144524 0.521175
vt 1.144524 0.324827
vt 1.103473 0.494825
vt 1.144524 0.494825
vt 1.103473 0.324827
vt 1.103473 0.494825
vt 1.144524 0.324827
vt 1.144523 0.128477
vt 1.103472 0.298477
vt 1.144524 0.298477
vt 1.103472 0.128477
vt 1.103472 0.298477
vt 1.144523 0.128477
vt 1.283741 0.560758
vt 1.242690 0.730755
vt 1.283741 0.730755
vt 1.242690 0.560758
vt 1.242690 0.730755
vt 1.283741 0.560758
vt 1.283739 0.364408
vt 1.242688 0.534408
vt 1.283739 0.534408
vt 1.242687 0.364409
vt 1.242688 0.534408
vt 1.283739 0.364408
vt 0.439984 0.587138
vt 0.307058 0.663882
vt 0.593474 0.587138
vt 0.726400 0.663883
vt 0.593474 0.587138
vt 0.803144 0.796808
vt 0.803144 0.950298
vt 0.803144 0.796808
vt 0.726399 1.083224
vt 0.593474 1.159968
vt 0.726399 1.083224
vt 0.439984 1.159968
vt 0.307058 1.083223
vt 0.439984 1.159968
vt 0.230313 0.950298
vt 0.230313 0.796808
vt 0.230313 0.950298
vt 0.307058 0.663882
vt 0.593474 0.587138
vt 0.307058 0.663882
vt 0.803144 0.796808
vt 0.726399 1.083224
vt 0.803144 0.796808
vt 0.439984 1.159968
vt 0.230313 0.950298
vt 0.439984 1.159968
vt 0.307058 0.663882
vt 0.693215 -0.086648
vt 0.893856 0.113993
vt 0.766655 0.040553
vt 0.766655 -0.360730
vt 0.693215 -0.086648
vt 0.693215 -0.233528
vt 1.040736 -0.434170
vt 0.766655 -0.360730
vt 0.893856 -0.434170
vt 1.241378 -0.233528
vt 1.040736 -0.434170
vt 1.167938 -0.360730
vt 1.167938 0.040553
vt 1.241378 -0.233528
vt 1.241378 -0.086648
vt 0.893856 0.113993
vt 1.167938 0.040553
vt 1.040736 0.113993
vt 0.766655 -0.360730
vt 0.893856 0.113993
vt 0.693215 -0.086648
vt 1.241378 -0.233528
vt 0.766655 -0.360730
vt 1.040736 -0.434170
vt 0.893856 0.113993
vt 1.241378 -0.233528
vt 1.167938 0.040553
vt 1.380593 -0.237818
vt 1.360067 -0.041467
vt 1.360067 -0.237818
vt 1.380593 -0.041467
vt 1.360067 -0.041467
vt 1.380593 -0.237818
vt 1.241378 0.115301
vt 1.220852 0.311652
vt 1.220852 0.115301
vt 1.241378 0.311652
vt 1.220852 0.311652
vt 1.241378 0.115301
vt 1.380593 0.351233
vt 1.360067 0.547583
vt 1.360067 0.351233
vt 1.380593 0.547583
vt 1.360067 0.547583
vt 1.380593 0.351233
vt 1.241378 0.704350
vt 1.220852 0.900700
vt 1.220852 0.704350
vt 1.241378 0.900700
vt 1.220852 0.900700
vt 1.241378 0.704350
vt 1.380594 -0.434170
vt 1.360067 -0.237818
vt 1.360067 -0.434170
vt 1.380593 -0.237818
vt 1.360067 -0.237818
vt 1.380594 -0.434170
vt 1.380593 0.154884
vt 1.360067 0.351233
vt 1.360067 0.154884
vt 1.380593 0.351233
vt 1.360067 0.351233
vt 1.380593 0.154884
vt 1.241378 0.508000
vt 1.220852 0.704350
vt 1.220852 0.508000
vt 1.241378 0.704350
vt 1.220852 0.704350
vt 1.241378 0.508000
vt 1.241378 1.097052
vt 1.220852 1.293401
vt 1.220852 1.097052
vt 1.241378 1.293401
vt 1.220852 1.293401
vt 1.241378 1.097052
vt 1.380593 -0.041467
vt 1.360067 0.154884
vt 1.360067 -0.041467
vt 1.380593 0.154884
vt 1.360067 0.154884
vt 1.380593 -0.041467
vt 1.241378 0.311652
vt 1.220852 0.508000
vt 1.220852 0.311652
vt 1.241378 0.508000
vt 1.220852 0.508000
vt 1.241378 0.311652
vt 1.380593 0.547583
vt 1.360068 0.743930
vt 1.360067 0.547583
vt 1.380593 0.743930
vt 1.360068 0.743930
vt 1.380593 0.547583
vt 1.241378 0.900700
vt 1.220852 1.097052
vt 1.220852 0.900700
vt 1.241378 1.097052
vt 1.220852 1.097052
vt 1.241378 0.900700
vt -0.017525 1.048928
vt 0.732324 1.249850
vt 0.330482 -0.249850
vt 1.080331 1.048928
vt 1.281253 0.700922
vt 0.732324 1.249850
vt 0.330481 1.249850
vt 0.732324 1.249850
vt -0.017525 1.048928
vt -0.218447 0.700921
vt -0.017525 1.048928
vt -0.218447 0.299078
vt -0.017525 -0.048928
vt -0.218447 0.299078
vt -0.017525 1.048928
vt 0.330482 -0.249850
vt -0.017525 -0.048928
vt -0.017525 1.048928
vt 0.732325 -0.249850
vt 0.330482 -0.249850
vt 1.080332 -0.048928
vt 1.281253 0.299078
vt 1.080332 -0.048928
vt 0.330482 -0.249850
vt 1.281253 0.700922
vt 1.281253 0.299078
vt 0.330482 -0.249850
vt 0.732324 1.249850
vt 1.281253 0.700922
vt 0.330482 -0.249850

vn -0.258819 0.000000 0.965926
vn -0.258819 0.000000 0.965926
vn -0.258819 0.000000 0.965926
vn -0.258819 0.000000 0.965926
vn -0.258819 0.000000 0.965926
vn -0.258819 0.000000 0.965926
vn -0.707107 0.000000 0.707107
vn -0.707107 0.000000 0.707107
vn -0.707107 0.000000 0.707107
vn -0.707107 0.000000 0.707107
vn -0.707107 0.000000 0.707107
vn -0.707107 0.000000 0.707107
vn -0.965926 0.000000 0.258819
vn -0.965926 0.000000 0.258819
vn -0.965926 0.000000 0.258819
vn -0.965926 0.000000 0.258819
vn -0.965926 0.000000 0.258819
vn -0.965926 0.000000 0.258819
vn -0.965926 0.000000 -0.258819
vn -0.965926 0.000000 -0.258819
vn -0.965926 0.000000 -0.258819
vn -0.965926 0.000000 -0.258819
vn -0.965926 0.000000 -0.258819
vn -0.965926 0.000000 -0.258819
vn -0.707107 0.000000 -0.707107
vn -0.707107 0.000000 -0.707107
vn -0.707107 0.000000 -0.707107
vn -0.707107 0.000000 -0.707107
vn -0.707107 0.000000 -0.707107
vn -0.707107 0.000000 -0.707107
vn -0.258819 0.000000 -0.965926
vn -0.258819 0.000000 -0.965926
vn -0.258819 0.000000 -0.965926
vn -0.258819 0.000000 -0.965926
vn -0.258819 0.000000 -0.965926
vn -0.258819 0.000000 -0.965926
vn 0.258819 0.000000 -0.965926
vn 0.258819 0.000000 -0.965926
vn 0.258819 0.000000 -0.965926
vn 0.258819 0.000000 -0.965926
vn 0.258819 0.000000 -0.965926
vn 0.258819 0.000000 -0.965926
vn 0.707107 0.000000 -0.707107
vn 0.707107 0.000000 -0.707107
vn 0.707107 0.000000 -0.707107
vn 0.707107 0.000000 -0.707107
vn 0.707107 0.000000 -0.707107
vn 0.707107 0.000000 -0.707107
vn 0.965926 0.000000 -0.258819
vn 0.965926 0.000000 -0.258819
vn 0.965926 0.000000 -0.258819
vn 0.965926 0.000000 -0.258819
vn 0.965926 0.000000 -0.258819
vn 0.965926 0.000000 -0.258819
vn 0.965926 0.000000 0.258819
vn 0.965926 0.000000 0.258819
vn 0.965926 0.000000 0.258819
vn 0.965926 0.000000 0.258819
vn 0.965926 0.000000 0.258819
vn 0.965926 0.000000 0.258819
vn 0.707107 0.000000 0.707107
vn 0.707107 0.000000 0.707107
vn 0.707107 0.000000 0.707107
vn 0.707107 0.000000 0.707107
vn 0.707107 0.000000 0.707107
vn 0.707107 0.000000 0.707107
vn 0.258819 0.000000 0.965926
vn 0.258819 0.000000 0.965926
vn 0.258819 0.000000 0.965926
vn 0.258819 0.000000 0.965926
vn 0.258819 0.000000 0.965926
vn 0.258819 0.000000 0.965926
vn 0.236967 -0.402157 0.884373
vn 0.236967 -0.402157 0.884373
vn 0.236967 -0.402157 0.884373
vn 0.236967 -0.402157 0.884373
vn 0.236967 -0.402157 0.884373
vn 0.236967 -0.402157 0.884373
vn 0.255972 -0.147918 0.955300
vn 0.255972 -0.147918 0.955300
vn 0.255972 -0.147918 0.955300
vn 0.255972 -0.147917 0.955300
vn 0.255972 -0.147917 0.955300
vn 0.255972 -0.147917 0.955300
vn 0.647406 -0.402157 0.647406
vn 0.647406 -0.402157 0.647406
vn 0.647406 -0.402157 0.647406
vn 0.647406 -0.402157 0.647406
vn 0.647406 -0.402157 0.647406
vn 0.647406 -0.402157 0.647406
vn 0.699329 -0.147917 0.699328
vn 0.699329 -0.147917 0.699328
vn 0.699329 -0.147917 0.699328
vn 0.699328 -0.147918 0.699328
vn 0.699328 -0.147918 0.699328
vn 0.699328 -0.147918 0.699328
vn 0.884373 -0.402157 0.236967
vn 0.884373 -0.402157 0.236967
vn 0.884373 -0.402157 0.236967
vn 0.884373 -0.402157 0.236967
vn 0.884373 -0.402157 0.236967
vn 0.884373 -0.402157 0.236967
vn 0.955300 -0.147918 0.255972
vn 0.955300 -0.147918 0.255972
vn 0.955300 -0.147918 0.255972
vn 0.955300 -0.147917 0.255972
vn 0.955300 -0.147917 0.255972
vn 0.955300 -0.147917 0.255972
vn 0.884373 -0.402157 -0.236967
vn 0.884373 -0.402157 -0.236967
vn 0.884373 -0.402157 -0.236967
vn 0.884373 -0.402157 -0.236967
vn 0.884373 -0.402157 -0.236967
vn 0.884373 -0.402157 -0.236967
vn 0.955300 -0.147917 -0.255972
vn 0.955300 -0.147917 -0.255972
vn 0.955300 -0.147917 -0.255972
vn 0.955300 -0.147918 -0.255972
vn 0.955300 -0.147918 -0.255972
vn 0.955300 -0.147918 -0.255972
vn 0.647406 -0.402157 -0.647406
vn 0.647406 -0.402157 -0.647406
vn 0.647406 -0.402157 -0.647406
vn 0.647406 -0.402157 -0.647406
vn 0.647406 -0.402157 -0.647406
vn 0.647406 -0.402157 -0.647406
vn 0.699328 -0.147917 -0.699328
vn 0.699328 -0.147917 -0.699328
vn 0.699328 -0.147917 -0.699328
vn 0.699328 -0.147918 -0.699328
vn 0.699328 -0.147918 -0.699328
vn 0.699328 -0.147918 -0.699328
vn 0.236967 -0.402157 -0.884373
vn 0.236967 -0.402157 -0.884373
vn 0.236967 -0.402157 -0.884373
vn 0.236967 -0.402157 -0.884373
vn 0.236967 -0.402157 -0.884373
vn 0.236967 -0.402157 -0.884373
vn 0.255972 -0.147917 -0.955300
vn 0.255972 -0.147917 -0.955300
vn 0.255972 -0.147917 -0.955300
vn 0.255972 -0.147918 -0.955300
vn 0.255972 -0.147918 -0.955300
vn 0.255972 -0.147918 -0.955300
vn -0.236967 -0.402157 -0.884373
vn -0.236967 -0.402157 -0.884373
vn -0.236967 -0.402157 -0.884373
vn -0.236967 -0.402157 -0.884373
vn -0.236967 -0.402157 -0.884373
vn -0.236967 -0.402157 -0.884373
vn -0.255972 -0.147918 -0.955300
vn -0.255972 -0.147918 -0.955300
vn -0.255972 -0.147918 -0.955300
vn -0.255972 -0.147917 -0.955300
vn -0.255972 -0.147917 -0.955300
vn -0.255972 -0.147917 -0.955300
vn -0.647406 -0.402157 -0.647406
vn -0.647406 -0.402157 -0.647406
vn -0.647406 -0.402157 -0.647406
vn -0.647406 -0.402157 -0.647406
vn -0.647406 -0.402157 -0.647406
vn -0.647406 -0.402157 -0.647406
vn -0.699329 -0.147918 -0.699328
vn -0.699329 -0.147918 -0.699328
vn -0.699329 -0.147918 -0.699328
vn -0.699328 -0.147918 -0.699329
vn -0.699328 -0.147918 -0.699329
vn -0.699328 -0.147918 -0.699329
vn -0.884373 -0.402157 -0.236967
vn -0.884373 -0.402157 -0.236967
vn -0.884373 -0.402157 -0.236967
vn -0.884373 -0.402157 -0.236967
vn -0.884373 -0.402157 -0.236967
vn -0.884373 -0.402157 -0.236967
vn -0.955300 -0.147918 -0.255972
vn -0.955300 -0.147918 -0.255972
vn -0.955300 -0.147918 -0.255972
vn -0.955300 -0.147918 -0.255972
vn -0.955300 -0.147918 -0.255972
vn -0.955300 -0.147918 -0.255972
vn -0.884373 -0.402157 0.236967
vn -0.884373 -0.402157 0.236967
vn -0.884373 -0.402157 0.236967
vn -0.884373 -0.402157 0.236967
vn -0.884373 -0.402157 0.236967
vn -0.884373 -0.402157 0.236967
vn -0.955300 -0.147917 0.255972
vn -0.955300 -0.147917 0.255972
vn -0.955300 -0.147917 0.255972
vn -0.955300 -0.147918 0.255972
vn -0.955300 -0.147918 0.255972
vn -0.955300 -0.147918 0.255972
vn -0.647406 -0.402157 0.647406
vn -0.647406 -0.402157 0.647406
vn -0.647406 -0.402157 0.647406
vn -0.647406 -0.402157 0.647406
vn -0.647406 -0.402157 0.647406
vn -0.647406 -0.402157 0.647406
vn -0.699328 -0.147917 0.699329
vn -0.699328 -0.147917 0.699329
vn -0.699328 -0.147917 0.699329
vn -0.699328 -0.147918 0.699328
vn -0.699328 -0.147918 0.699328
vn -0.699328 -0.147918 0.699328
vn -0.236967 -0.402157 0.884373
vn -0.236967 -0.402157 0.884373
vn -0.236967 -0.402157 0.884373
vn -0.236967 -0.402157 0.884373
vn -0.236967 -0.402157 0.884373
vn -0.236967 -0.402157 0.884373
vn -0.255972 -0.147918 0.955300
vn -0.255972 -0.147918 0.955300
vn -0.255972 -0.147918 0.955300
vn -0.255972 -0.147918 0.955300
vn -0.255972 -0.147918 0.955300
vn -0.255972 -0.147918 0.955300
vn -0.000000 1.000000 0.000000
vn -0.000000 1.000000 0.000000
vn -0.000000 1.000000 0.000000
vn -0.000000 1.000000 0.000000
vn -0.000000 1.000000 0.000000
vn -0.000000 1.000000 0.000000
vn -0.863315 0.448527 -0.231325
vn -0.863315 0.448527 -0.231325
vn -0.863315 0.448527 -0.231325
vn -0.863315 0.448527 -0.231324
vn -0.863315 0.448527 -0.231324
vn -0.863315 0.448527 -0.231324
vn -0.000000 1.000000 0.000000
vn -0.000000 1.000000 0.000000
vn -0.000000 1.000000 0.000000
vn 0.423865 0.800423 0.423865
vn 0.423865 0.800423 0.423865
vn 0.423865 0.800423 0.423865
vn 0.423865 0.800423 0.423865
vn 0.423865 0.800423 0.423865
vn 0.423865 0.800423 0.423865
vn -0.155146 0.800423 -0.579010
vn -0.155146 0.800423 -0.579010
vn -0.155146 0.800423 -0.579010
vn -0.155145 0.800423 -0.579010
vn -0.155145 0.800423 -0.579010
vn -0.155145 0.800423 -0.579010
vn 0.423865 0.800423 -0.423865
vn 0.423865 0.800423 -0.423865
vn 0.423865 0.800423 -0.423865
vn 0.423865 0.800423 -0.423865
vn 0.423865 0.800423 -0.423865
vn 0.423865 0.800423 -0.423865
vn -0.579010 0.800424 0.155145
vn -0.579010 0.800424 0.155145
vn -0.579010 0.800424 0.155145
vn -0.579011 0.800423 0.155145
vn -0.579011 0.800423 0.155145
vn -0.579011 0.800423 0.155145
vn 0.155145 0.800423 0.579010
vn 0.155145 0.800423 0.579010
vn 0.155145 0.800423 0.579010
vn 0.155145 0.800423 0.579010
vn 0.155145 0.800423 0.579010
vn 0.155145 0.800423 0.579010
vn 0.579010 0.800424 -0.155145
vn 0.579010 0.800424 -0.155145
vn 0.579010 0.800424 -0.155145
vn 0.579011 0.800423 -0.155145
vn 0.579011 0.800423 -0.155145
vn 0.579011 0.800423 -0.155145
vn -0.579009 0.800424 -0.155145
vn -0.579009 0.800424 -0.155145
vn -0.579009 0.800424 -0.155145
vn -0.579011 0.800423 -0.155145
vn -0.579011 0.800423 -0.155145
vn -0.579011 0.800423 -0.155145
vn -0.155145 0.800423 0.579010
vn -0.155145 0.800423 0.579010
vn -0.155145 0.800423 0.579010
vn -0.155146 0.800423 0.579010
vn -0.155146 0.800423 0.579010
vn -0.155146 0.800423 0.579010
vn 0.579009 0.800424 0.155145
vn 0.579009 0.800424 0.155145
vn 0.579009 0.800424 0.155145
vn 0.579011 0.800423 0.155145
vn 0.579011 0.800423 0.155145
vn 0.579011 0.800423 0.155145
vn -0.423864 0.800424 -0.423865
vn -0.423864 0.800424 -0.423865
vn -0.423864 0.800424 -0.423865
vn -0.423865 0.800423 -0.423865
vn -0.423865 0.800423 -0.423865
vn -0.423865 0.800423 -0.423865
vn 0.155145 0.800423 -0.579010
vn 0.155145 0.800423 -0.579010
vn 0.155145 0.800423 -0.579010
vn 0.155145 0.800424 -0.579009
vn 0.155145 0.800424 -0.579009
vn 0.155145 0.800424 -0.579009
vn -0.423865 0.800423 0.423865
vn -0.423865 0.800423 0.423865
vn -0.423865 0.800423 0.423865
vn -0.423865 0.800423 0.423865
vn -0.423865 0.800423 0.423865
vn -0.423865 0.800423 0.423865
vn -0.231324 0.448528 0.863314
vn -0.231324 0.448528 0.863314
vn -0.231324 0.448528 0.863314
vn -0.231324 0.448528 0.863314
vn -0.231324 0.448528 0.863314
vn -0.231324 0.448528 0.863314
vn 0.863315 0.448527 0.231324
vn 0.863315 0.448527 0.231324
vn 0.863315 0.448527 0.231324
vn 0.863315 0.448527 0.231324
vn 0.863315 0.448527 0.231324
vn 0.863315 0.448527 0.231324
vn -0.631990 0.448528 -0.631990
vn -0.631990 0.448528 -0.631990
vn -0.631990 0.448528 -0.631990
vn -0.631990 0.448528 -0.631990
vn -0.631990 0.448528 -0.631990
vn -0.631990 0.448528 -0.631990
vn 0.231325 0.448527 -0.863315
vn 0.231325 0.448527 -0.863315
vn 0.231325 0.448527 -0.863315
vn 0.231324 0.448528 -0.863314
vn 0.231324 0.448528 -0.863314
vn 0.231324 0.448528 -0.863314
vn -0.631990 0.448528 0.631990
vn -0.631990 0.448528 0.631990
vn -0.631990 0.448528 0.631990
vn -0.631990 0.448527 0.631990
vn -0.631990 0.448527 0.631990
vn -0.631990 0.448527 0.631990
vn 0.631991 0.448527 0.631990
vn 0.631991 0.448527 0.631990
vn 0.631991 0.448527 0.631990
vn 0.631990 0.448528 0.631990
vn 0.631990 0.448528 0.631990
vn 0.631990 0.448528 0.631990
vn -0.231325 0.448528 -0.863315
vn -0.231325 0.448528 -0.863315
vn -0.231325 0.448528 -0.863315
vn -0.231324 0.448528 -0.863315
vn -0.231324 0.448528 -0.863315
vn -0.231324 0.448528 -0.863315
vn 0.631990 0.448528 -0.631990
vn 0.631990 0.448528 -0.631990
vn 0.631990 0.448528 -0.631990
vn 0.631990 0.448527 -0.631990
vn 0.631990 0.448527 -0.631990
vn 0.631990 0.448527 -0.631990
vn -0.863315 0.448527 0.231324
vn -0.863315 0.448527 0.231324
vn -0.863315 0.448527 0.231324
vn -0.863315 0.448527 0.231324
vn -0.863315 0.448527 0.231324
vn -0.863315 0.448527 0.231324
vn 0.231324 0.448526 0.863315
vn 0.231324 0.448526 0.863315
vn 0.231324 0.448526 0.863315
vn 0.231324 0.448529 0.863314
vn 0.231324 0.448529 0.863314
vn 0.231324 0.448529 0.863314
vn 0.863315 0.448527 -0.231324
vn 0.863315 0.448527 -0.231324
vn 0.863315 0.448527 -0.231324
vn 0.863315 0.448527 -0.231324
vn 0.863315 0.448527 -0.231324
vn 0.863315 0.448527 -0.231324
vn 0.863315 -0.448527 0.231324
vn 0.863315 -0.448527 0.231324
vn 0.863315 -0.448527 0.231324
vn 0.863315 -0.448528 0.231325
vn 0.863315 -0.448528 0.231325
vn 0.863315 -0.448528 0.231325
vn -0.000000 -1.000000 0.000000
vn -0.000000 -1.000000 0.000000
vn -0.000000 -1.000000 0.000000
vn -0.487864 -0.723863 -0.487864
vn -0.487864 -0.723863 -0.487864
vn -0.487864 -0.723863 -0.487864
vn -0.487864 -0.723862 -0.487864
vn -0.487864 -0.723862 -0.487864
vn -0.487864 -0.723862 -0.487864
vn 0.178571 -0.723862 0.666435
vn 0.178571 -0.723862 0.666435
vn 0.178571 -0.723862 0.666435
vn 0.178571 -0.723863 0.666434
vn 0.178571 -0.723863 0.666434
vn 0.178571 -0.723863 0.666434
vn -0.487864 -0.723863 0.487864
vn -0.487864 -0.723863 0.487864
vn -0.487864 -0.723863 0.487864
vn -0.487864 -0.723862 0.487864
vn -0.487864 -0.723862 0.487864
vn -0.487864 -0.723862 0.487864
vn 0.666435 -0.723862 -0.178570
vn 0.666435 -0.723862 -0.178570
vn 0.666435 -0.723862 -0.178570
vn 0.666435 -0.723863 -0.178570
vn 0.666435 -0.723863 -0.178570
vn 0.666435 -0.723863 -0.178570
vn -0.178571 -0.723863 -0.666435
vn -0.178571 -0.723863 -0.666435
vn -0.178571 -0.723863 -0.666435
vn -0.178571 -0.723863 -0.666435
vn -0.178571 -0.723863 -0.666435
vn -0.178571 -0.723863 -0.666435
vn -0.666435 -0.723863 0.178571
vn -0.666435 -0.723863 0.178571
vn -0.666435 -0.723863 0.178571
vn -0.666435 -0.723862 0.178570
vn -0.666435 -0.723862 0.178570
vn -0.666435 -0.723862 0.178570
vn 0.666435 -0.723863 0.178570
vn 0.666435 -0.723863 0.178570
vn 0.666435 -0.723863 0.178570
vn 0.666436 -0.723862 0.178570
vn 0.666436 -0.723862 0.178570
vn 0.666436 -0.723862 0.178570
vn 0.178571 -0.723863 -0.666435
vn 0.178571 -0.723863 -0.666435
vn 0.178571 -0.723863 -0.666435
vn 0.178571 -0.723863 -0.666435
vn 0.178571 -0.723863 -0.666435
vn 0.178571 -0.723863 -0.666435
vn -0.666435 -0.723862 -0.178570
vn -0.666435 -0.723862 -0.178570
vn -0.666435 -0.723862 -0.178570
vn -0.666435 -0.723862 -0.178571
vn -0.666435 -0.723862 -0.178571
vn -0.666435 -0.723862 -0.178571
vn 0.487864 -0.723862 0.487864
vn 0.487864 -0.723862 0.487864
vn 0.487864 -0.723862 0.487864
vn 0.487864 -0.723863 0.487864
vn 0.487864 -0.723863 0.487864
vn 0.487864 -0.723863 0.487864
vn -0.178571 -0.723862 0.666435
vn -0.178571 -0.723862 0.666435
vn -0.178571 -0.723862 0.666435
vn -0.178571 -0.723862 0.666435
vn -0.178571 -0.723862 0.666435
vn -0.178571 -0.723862 0.666435
vn 0.487864 -0.723863 -0.487864
vn 0.487864 -0.723863 -0.487864
vn 0.487864 -0.723863 -0.487864
vn 0.487864 -0.723863 -0.487864
vn 0.487864 -0.723863 -0.487864
vn 0.487864 -0.723863 -0.487864
vn 0.231324 -0.448527 -0.863315
vn 0.231324 -0.448527 -0.863315
vn 0.231324 -0.448527 -0.863315
vn 0.231324 -0.448527 -0.863315
vn 0.231324 -0.448527 -0.863315
vn 0.231324 -0.448527 -0.863315
vn -0.863315 -0.448527 -0.231325
vn -0.863315 -0.448527 -0.231325
vn -0.863315 -0.448527 -0.231325
vn -0.863315 -0.448528 -0.231325
vn -0.863315 -0.448528 -0.231325
vn -0.863315 -0.448528 -0.231325
vn 0.631990 -0.448528 0.631990
vn 0.631990 -0.448528 0.631990
vn 0.631990 -0.448528 0.631990
vn 0.631990 -0.448527 0.631990
vn 0.631990 -0.448527 0.631990
vn 0.631990 -0.448527 0.631990
vn -0.231324 -0.448527 0.863315
vn -0.231324 -0.448527 0.863315
vn -0.231324 -0.448527 0.863315
vn -0.231324 -0.448528 0.863314
vn -0.231324 -0.448528 0.863314
vn -0.231324 -0.448528 0.863314
vn 0.631990 -0.448527 -0.631990
vn 0.631990 -0.448527 -0.631990
vn 0.631990 -0.448527 -0.631990
vn 0.631990 -0.448527 -0.631990
vn 0.631990 -0.448527 -0.631990
vn 0.631990 -0.448527 -0.631990
vn -0.631990 -0.448527 -0.631990
vn -0.631990 -0.448527 -0.631990
vn -0.631990 -0.448527 -0.631990
vn -0.631990 -0.448527 -0.631990
vn -0.631990 -0.448527 -0.631990
vn -0.631990 -0.448527 -0.631990
vn 0.231324 -0.448527 0.863315
vn 0.231324 -0.448527 0.863315
vn 0.231324 -0.448527 0.863315
vn 0.231324 -0.448527 0.863315
vn 0.231324 -0.448527 0.863315
vn 0.231324 -0.448527 0.863315
vn -0.631990 -0.448527 0.631990
vn -0.631990 -0.448527 0.631990
vn -0.631990 -0.448527 0.631990
vn -0.631990 -0.448528 0.631990
vn -0.631990 -0.448528 0.631990
vn -0.631990 -0.448528 0.631990
vn 0.863315 -0.448527 -0.231324
vn 0.863315 -0.448527 -0.231324
vn 0.863315 -0.448527 -0.231324
vn 0.863315 -0.448527 -0.231325
vn 0.863315 -0.448527 -0.231325
vn 0.863315 -0.448527 -0.231325
vn -0.231324 -0.448528 -0.863314
vn -0.231324 -0.448528 -0.863314
vn -0.231324 -0.448528 -0.863314
vn -0.231324 -0.448527 -0.863315
vn -0.231324 -0.448527 -0.863315
vn -0.231324 -0.448527 -0.863315
vn -0.863315 -0.448528 0.231324
vn -0.863315 -0.448528 0.231324
vn -0.863315 -0.448528 0.231324
vn -0.863315 -0.448527 0.231325
vn -0.863315 -0.448527 0.231325
vn -0.863315 -0.448527 0.231325
vn -0.027336 0.994407 -0.102019
vn -0.027336 0.994407 -0.102019
vn -0.027336 0.994407 -0.102019
vn 0.027336 0.994407 -0.102018
vn 0.027336 0.994407 -0.102018
vn 0.027336 0.994407 -0.102018
vn -0.027336 0.994407 -0.102019
vn -0.027336 0.994407 -0.102019
vn -0.027336 0.994407 -0.102019
vn 0.027336 0.994407 -0.102019
vn 0.027336 0.994407 -0.102019
vn 0.027336 0.994407 -0.102019
vn 0.074684 0.994407 -0.074683
vn 0.074684 0.994407 -0.074683
vn 0.074684 0.994407 -0.074683
vn -0.074682 0.994407 -0.074683
vn -0.074682 0.994407 -0.074683
vn -0.074682 0.994407 -0.074683
vn 0.074683 0.994407 -0.074683
vn 0.074683 0.994407 -0.074683
vn 0.074683 0.994407 -0.074683
vn -0.102018 0.994407 -0.027336
vn -0.102018 0.994407 -0.027336
vn -0.102018 0.994407 -0.027336
vn 0.102018 0.994407 -0.027336
vn 0.102018 0.994407 -0.027336
vn 0.102018 0.994407 -0.027336
vn -0.102019 0.994407 -0.027336
vn -0.102019 0.994407 -0.027336
vn -0.102019 0.994407 -0.027336
vn 0.102019 0.994407 -0.027336
vn 0.102019 0.994407 -0.027336
vn 0.102019 0.994407 -0.027336
vn -0.102018 0.994407 0.027336
vn -0.102018 0.994407 0.027336
vn -0.102018 0.994407 0.027336
vn -0.102019 0.994407 0.027336
vn -0.102019 0.994407 0.027336
vn -0.102019 0.994407 0.027336
vn 0.102019 0.994407 0.027336
vn 0.102019 0.994407 0.027336
vn 0.102019 0.994407 0.027336
vn 0.102019 0.994407 0.027336
vn 0.102019 0.994407 0.027336
vn 0.102019 0.994407 0.027336
vn -0.074683 0.994407 0.074683
vn -0.074683 0.994407 0.074683
vn -0.074683 0.994407 0.074683
vn 0.074683 0.994407 0.074683
vn 0.074683 0.994407 0.074683
vn 0.074683 0.994407 0.074683
vn -0.074683 0.994407 0.074683
vn -0.074683 0.994407 0.074683
vn -0.074683 0.994407 0.074683
vn 0.074683 0.994407 0.074683
vn 0.074683 0.994407 0.074683
vn 0.074683 0.994407 0.074683
vn -0.027336 0.994407 0.102019
vn -0.027336 0.994407 0.102019
vn -0.027336 0.994407 0.102019
vn 0.027336 0.994407 0.102019
vn 0.027336 0.994407 0.102019
vn 0.027336 0.994407 0.102019
vn -0.027336 0.994407 0.102019
vn -0.027336 0.994407 0.102019
vn -0.027336 0.994407 0.102019
vn 0.027336 0.994407 0.102018
vn 0.027336 0.994407 0.102018
vn 0.027336 0.994407 0.102018
vn -0.074684 0.994407 -0.074683
vn -0.074684 0.994407 -0.074683
vn -0.074684 0.994407 -0.074683
vn -0.000000 1.000000 0.000000
vn -0.000000 1.000000 0.000000
vn -0.000000 1.000000 0.000000
vn -0.000000 1.000000 0.000000
vn -0.000000 1.000000 0.000000
vn -0.000000 1.000000 0.000000
vn -0.000000 1.000000 0.000000
vn -0.000000 1.000000 0.000000
vn -0.000000 1.000000 0.000000
vn -0.000000 1.000000 0.000000
vn -0.000000 1.000000 0.000000
vn -0.000000 1.000000 0.000000
vn -0.000000 1.000000 0.000000
vn -0.000000 1.000000 0.000000
vn -0.000000 1.000000 0.000000
vn -0.000000 1.000000 0.000000
vn -0.000000 1.000000 0.000000
vn -0.000000 1.000000 0.000000
vn -0.000000 1.000000 0.000000
vn -0.000000 1.000000 0.000000
vn -0.000000 1.000000 0.000000
vn 0.000000 1.000000 0.000000
vn 0.000000 1.000000 0.000000
vn 0.000000 1.000000 0.000000
vn -0.000000 1.000000 0.000000
vn -0.000000 1.000000 0.000000
vn -0.000000 1.000000 0.000000
vn -0.000000 1.000000 0.000000
vn -0.000000 1.000000 0.000000
vn -0.000000 1.000000 0.000000
vn 0.000000 1.000000 0.000000
vn 0.000000 1.000000 0.000000
vn 0.000000 1.000000 0.000000
vn -0.000000 1.000000 0.000000
vn -0.000000 1.000000 0.000000
vn -0.000000 1.000000 0.000000
vn 0.888969 0.391146 -0.238198
vn 0.888969 0.391146 -0.238198
vn 0.888969 0.391146 -0.238198
vn 0.888969 0.391146 -0.238199
vn 0.888969 0.391146 -0.238199
vn 0.888969 0.391146 -0.238199
vn 0.650771 0.391146 -0.650770
vn 0.650771 0.391146 -0.650770
vn 0.650771 0.391146 -0.650770
vn 0.650770 0.391146 -0.650771
vn 0.650770 0.391146 -0.650771
vn 0.650770 0.391146 -0.650771
vn 0.238199 0.391146 -0.888969
vn 0.238199 0.391146 -0.888969
vn 0.238199 0.391146 -0.888969
vn 0.238199 0.391146 -0.888969
vn 0.238199 0.391146 -0.888969
vn 0.238199 0.391146 -0.888969
vn -0.238199 0.391146 -0.888969
vn -0.238199 0.391146 -0.888969
vn -0.238199 0.391146 -0.888969
vn -0.238199 0.391145 -0.888969
vn -0.238199 0.391145 -0.888969
vn -0.238199 0.391145 -0.888969
vn -0.650771 0.391146 -0.650771
vn -0.650771 0.391146 -0.650771
vn -0.650771 0.391146 -0.650771
vn -0.650771 0.391146 -0.650771
vn -0.650771 0.391146 -0.650771
vn -0.650771 0.391146 -0.650771
vn -0.888969 0.391146 -0.238199
vn -0.888969 0.391146 -0.238199
vn -0.888969 0.391146 -0.238199
vn -0.888969 0.391146 -0.238199
vn -0.888969 0.391146 -0.238199
vn -0.888969 0.391146 -0.238199
vn 0.238199 0.391145 0.888970
vn 0.238199 0.391145 0.888970
vn 0.238199 0.391145 0.888970
vn 0.238199 0.391146 0.888969
vn 0.238199 0.391146 0.888969
vn 0.238199 0.391146 0.888969
vn -0.238199 0.391145 0.888969
vn -0.238199 0.391145 0.888969
vn -0.238199 0.391145 0.888969
vn -0.238198 0.391147 0.888969
vn -0.238198 0.391147 0.888969
vn -0.238198 0.391147 0.888969
vn -0.888969 0.391146 0.238198
vn -0.888969 0.391146 0.238198
vn -0.888969 0.391146 0.238198
vn -0.888969 0.391146 0.238199
vn -0.888969 0.391146 0.238199
vn -0.888969 0.391146 0.238199
vn 0.650771 0.391146 0.650771
vn 0.650771 0.391146 0.650771
vn 0.650771 0.391146 0.650771
vn 0.650770 0.391147 0.650770
vn 0.650770 0.391147 0.650770
vn 0.650770 0.391147 0.650770
vn -0.650771 0.391146 0.650771
vn -0.650771 0.391146 0.650771
vn -0.650771 0.391146 0.650771
vn -0.650771 0.391145 0.650771
vn -0.650771 0.391145 0.650771
vn -0.650771 0.391145 0.650771
vn 0.888969 0.391146 0.238199
vn 0.888969 0.391146 0.238199
vn 0.888969 0.391146 0.238199
vn 0.888969 0.391146 0.238199
vn 0.888969 0.391146 0.238199
vn 0.888969 0.391146 0.238199
vn -0.000000 1.000000 0.000000
vn -0.000000 1.000000 0.000000
vn -0.000000 1.000000 0.000000
vn -0.000000 1.000000 0.000000
vn -0.000000 1.000000 0.000000
vn -0.000000 1.000000 0.000000
vn -0.000000 1.000000 0.000000
vn -0.000000 1.000000 0.000000
vn -0.000000 1.000000 0.000000
vn -0.000000 1.000000 0.000000
vn -0.000000 1.000000 0.000000
vn -0.000000 1.000000 0.000000
vn -0.000000 1.000000 0.000000
vn -0.000000 1.000000 0.000000
vn -0.000000 1.000000 0.000000
vn -0.000000 1.000000 0.000000
vn -0.000000 1.000000 0.000000
vn -0.000000 1.000000 0.000000
vn -0.000000 1.000000 0.000000
vn -0.000000 1.000000 0.000000
vn -0.000000 1.000000 0.000000
vn -0.000000 1.000000 0.000000
vn -0.000000 1.000000 0.000000
vn -0.000000 1.000000 0.000000
vn -0.000000 1.000000 0.000000
vn -0.000000 1.000000 0.000000
vn -0.000000 1.000000 0.000000
vn -0.000000 1.000000 0.000000
vn -0.000000 1.000000 0.000000
vn -0.000000 1.000000 0.000000
vn -0.965926 0.000000 0.258819
vn -0.965926 0.000000 0.258819
vn -0.965926 0.000000 0.258819
vn -0.965926 0.000000 0.258819
vn -0.965926 0.000000 0.258819
vn -0.965926 0.000000 0.258819
vn -0.965926 0.000000 -0.258819
vn -0.965926 0.000000 -0.258819
vn -0.965926 0.000000 -0.258819
vn -0.965926 0.000000 -0.258819
vn -0.965926 0.000000 -0.258819
vn -0.965926 0.000000 -0.258819
vn -0.707107 0.000000 -0.707107
vn -0.707107 0.000000 -0.707107
vn -0.707107 0.000000 -0.707107
vn -0.707107 0.000000 -0.707107
vn -0.707107 0.000000 -0.707107
vn -0.707107 0.000000 -0.707107
vn -0.258819 0.000000 -0.965926
vn -0.258819 0.000000 -0.965926
vn -0.258819 0.000000 -0.965926
vn -0.258819 0.000000 -0.965926
vn -0.258819 0.000000 -0.965926
vn -0.258819 0.000000 -0.965926
vn 0.258819 0.000000 -0.965926
vn 0.258819 0.000000 -0.965926
vn 0.258819 0.000000 -0.965926
vn 0.258819 0.000000 -0.965926
vn 0.258819 0.000000 -0.965926
vn 0.258819 0.000000 -0.965926
vn 0.707106 0.000000 -0.707107
vn 0.707106 0.000000 -0.707107
vn 0.707106 0.000000 -0.707107
vn 0.707107 0.000000 -0.707107
vn 0.707107 0.000000 -0.707107
vn 0.707107 0.000000 -0.707107
vn 0.965926 0.000000 -0.258819
vn 0.965926 0.000000 -0.258819
vn 0.965926 0.000000 -0.258819
vn 0.965926 0.000000 -0.258819
vn 0.965926 0.000000 -0.258819
vn 0.965926 0.000000 -0.258819
vn 0.965926 0.000000 0.258819
vn 0.965926 0.000000 0.258819
vn 0.965926 0.000000 0.258819
vn 0.965926 0.000000 0.258819
vn 0.965926 0.000000 0.258819
vn 0.965926 0.000000 0.258819
vn 0.707107 0.000000 0.707107
vn 0.707107 0.000000 0.707107
vn 0.707107 0.000000 0.707107
vn 0.707107 0.000000 0.707106
vn 0.707107 0.000000 0.707106
vn 0.707107 0.000000 0.707106
vn 0.258819 0.000000 0.965926
vn 0.258819 0.000000 0.965926
vn 0.258819 0.000000 0.965926
vn 0.258819 0.000000 0.965926
vn 0.258819 0.000000 0.965926
vn 0.258819 0.000000 0.965926
vn -0.258819 0.000000 0.965926
vn -0.258819 0.000000 0.965926
vn -0.258819 0.000000 0.965926
vn -0.258819 0.000000 0.965926
vn -0.258819 0.000000 0.965926
vn -0.258819 0.000000 0.965926
vn -0.707106 0.000000 0.707107
vn -0.707106 0.000000 0.707107
vn -0.707106 0.000000 0.707107
vn -0.707107 0.000000 0.707107
vn -0.707107 0.000000 0.707107
vn -0.707107 0.000000 0.707107
vn 0.000000 -1.000000 0.000000
vn 0.000000 -1.000000 0.000000
vn 0.000000 -1.000000 0.000000
vn -0.000000 -1.000000 0.000000
vn -0.000000 -1.000000 0.000000
vn -0.000000 -1.000000 0.000000
vn -0.000000 -1.000000 0.000000
vn -0.000000 -1.000000 0.000000
vn -0.000000 -1.000000 0.000000
vn -0.000000 -1.000000 0.000000
vn -0.000000 -1.000000 0.000000
vn -0.000000 -1.000000 0.000000
vn 0.000002 -1.000000 0.000000
vn 0.000002 -1.000000 0.000000
vn 0.000002 -1.000000 0.000000
vn -0.000002 -1.000000 0.000000
vn -0.000002 -1.000000 0.000000
vn -0.000002 -1.000000 0.000000
vn -0.000000 -1.000000 0.000000
vn -0.000000 -1.000000 0.000000
vn -0.000000 -1.000000 0.000000
vn -0.000000 -1.000000 0.000000
vn -0.000000 -1.000000 0.000000
vn -0.000000 -1.000000 0.000000
vn -0.000000 -1.000000 0.000000
vn -0.000000 -1.000000 0.000000
vn -0.000000 -1.000000 0.000000
vn -0.000000 1.000000 0.000000
vn -0.000000 1.000000 0.000000
vn -0.000000 1.000000 0.000000
vn 0.000000 1.000000 0.000000
vn 0.000000 1.000000 0.000000
vn 0.000000 1.000000 0.000000
vn 0.000001 1.000000 0.000000
vn 0.000001 1.000000 0.000000
vn 0.000001 1.000000 0.000000
vn -0.000000 1.000000 0.000000
vn -0.000000 1.000000 0.000000
vn -0.000000 1.000000 0.000000
vn -0.000001 1.000000 0.000000
vn -0.000001 1.000000 0.000000
vn -0.000001 1.000000 0.000000
vn -0.000000 1.000000 0.000000
vn -0.000000 1.000000 0.000000
vn -0.000000 1.000000 0.000000
vn -0.000000 1.000000 0.000000
vn -0.000000 1.000000 0.000000
vn -0.000000 1.000000 0.000000
vn -0.000000 1.000000 0.000000
vn -0.000000 1.000000 0.000000
vn -0.000000 1.000000 0.000000
vn -0.000000 1.000000 0.000000
vn -0.000000 1.000000 0.000000
vn -0.000000 1.000000 0.000000
vn -0.707107 0.000000 -0.707107
vn -0.707107 0.000000 -0.707107
vn -0.707107 0.000000 -0.707107
vn -0.707106 0.000000 -0.707107
vn -0.707106 0.000000 -0.707107
vn -0.707106 0.000000 -0.707107
vn 0.258819 0.000000 0.965926
vn 0.258819 0.000000 0.965926
vn 0.258819 0.000000 0.965926
vn 0.258819 0.000000 0.965926
vn 0.258819 0.000000 0.965926
vn 0.258819 0.000000 0.965926
vn -0.707107 0.000000 0.707107
vn -0.707107 0.000000 0.707107
vn -0.707107 0.000000 0.707107
vn -0.707107 0.000000 0.707107
vn -0.707107 0.000000 0.707107
vn -0.707107 0.000000 0.707107
vn 0.965926 0.000000 -0.258819
vn 0.965926 0.000000 -0.258819
vn 0.965926 0.000000 -0.258819
vn 0.965926 0.000000 -0.258819
vn 0.965926 0.000000 -0.258819
vn 0.965926 0.000000 -0.258819
vn -0.258819 0.000000 -0.965926
vn -0.258819 0.000000 -0.965926
vn -0.258819 0.000000 -0.965926
vn -0.258819 0.000000 -0.965926
vn -0.258819 0.000000 -0.965926
vn -0.258819 0.000000 -0.965926
vn -0.965926 0.000000 0.258819
vn -0.965926 0.000000 0.258819
vn -0.965926 0.000000 0.258819
vn -0.965926 0.000000 0.258819
vn -0.965926 0.000000 0.258819
vn -0.965926 0.000000 0.258819
vn 0.965926 0.000000 0.258819
vn 0.965926 0.000000 0.258819
vn 0.965926 0.000000 0.258819
vn 0.965926 0.000000 0.258819
vn 0.965926 0.000000 0.258819
vn 0.965926 0.000000 0.258819
vn 0.258819 0.000000 -0.965926
vn 0.258819 0.000000 -0.965926
vn 0.258819 0.000000 -0.965926
vn 0.258819 0.000000 -0.965926
vn 0.258819 0.000000 -0.965926
vn 0.258819 0.000000 -0.965926
vn -0.965926 0.000000 -0.258819
vn -0.965926 0.000000 -0.258819
vn -0.965926 0.000000 -0.258819
vn -0.965926 0.000000 -0.258819
vn -0.965926 0.000000 -0.258819
vn -0.965926 0.000000 -0.258819
vn 0.707107 0.000000 0.707107
vn 0.707107 0.000000 0.707107
vn 0.707107 0.000000 0.707107
vn 0.707107 0.000000 0.707106
vn 0.707107 0.000000 0.707106
vn 0.707107 0.000000 0.707106
vn -0.258819 0.000000 0.965926
vn -0.258819 0.000000 0.965926
vn -0.258819 0.000000 0.965926
vn -0.258819 0.000000 0.965926
vn -0.258819 0.000000 0.965926
vn -0.258819 0.000000 0.965926
vn 0.707107 0.000000 -0.707107
vn 0.707107 0.000000 -0.707107
vn 0.707107 0.000000 -0.707107
vn 0.707107 0.000000 -0.707107
vn 0.707107 0.000000 -0.707107
vn 0.707107 0.000000 -0.707107
vn -0.000000 1.000000 0.000000
vn -0.000000 1.000000 0.000000
vn -0.000000 1.000000 0.000000
vn -0.000000 1.000000 0.000000
vn -0.000000 1.000000 0.000000
vn -0.000000 1.000000 0.000000
vn -0.000001 1.000000 0.000000
vn -0.000001 1.000000 0.000000
vn -0.000001 1.000000 0.000000
vn -0.000000 1.000000 0.000000
vn -0.000000 1.000000 0.000000
vn -0.000000 1.000000 0.000000
vn -0.000000 1.000000 0.000000
vn -0.000000 1.000000 0.000000
vn -0.000000 1.000000 0.000000
vn -0.000000 1.000000 0.000000
vn -0.000000 1.000000 0.000000
vn -0.000000 1.000000 0.000000
vn -0.000000 1.000000 0.000000
vn -0.000000 1.000000 0.000000
vn -0.000000 1.000000 0.000000
vn -0.000000 1.000000 0.000000
vn -0.000000 1.000000 0.000000
vn -0.000000 1.000000 0.000000
vn -0.000000 1.000000 0.000000
vn -0.000000 1.000000 0.000000
vn -0.000000 1.000000 0.000000
vn 0.000000 1.000000 0.000000
vn 0.000000 1.000000 0.000000
vn 0.000000 1.000000 0.000000

g Material.003
f 3/1/1 1/2/2 2/3/3
f 4/4/4 1/5/5 3/6/6
f 7/7/7 5/8/8 6/9/9
f 8/10/10 5/11/11 7/12/12
f 11/13/13 9/14/14 10/15/15
f 12/16/16 9/17/17 11/18/18
f 15/19/19 13/20/20 14/21/21
f 16/22/22 13/23/23 15/24/24
f 19/25/25 17/26/26 18/27/27
f 20/28/28 17/29/29 19/30/30
f 23/31/31 21/32/32 22/33/33
f 24/34/34 21/35/35 23/36/36
f 27/37/37 25/38/38 26/39/39
f 28/40/40 25/41/41 27/42/42
f 31/43/43 29/44/44 30/45/45
f 32/46/46 29/47/47 31/48/48
f 35/49/49 33/50/50 34/51/51
f 36/52/52 33/53/53 35/54/54
f 39/55/55 37/56/56 38/57/57
f 40/58/58 37/59/59 39/60/60
f 47/61/61 45/62/62 46/63/63
f 48/64/64 45/65/65 47/66/66
f 51/67/67 49/68/68 50/69/69
f 52/70/70 49/71/71 51/72/72
f 59/73/73 57/74/74 58/75/75
f 60/76/76 57/77/77 59/78/78
f 63/79/79 61/80/80 62/81/81
f 64/82/82 61/83/83 63/84/84
f 67/85/85 65/86/86 66/87/87
f 68/88/88 65/89/89 67/90/90
f 71/91/91 69/92/92 70/93/93
f 72/94/94 69/95/95 71/96/96
f 75/97/97 73/98/98 74/99/99
f 76/100/100 73/101/101 75/102/102
f 79/103/103 77/104/104 78/105/105
f 80/106/106 77/107/107 79/108/108
f 83/109/109 81/110/110 82/111/111
f 84/112/112 81/113/113 83/114/114
f 87/115/115 85/116/116 86/117/117
f 88/118/118 85/119/119 87/120/120
f 91/121/121 89/122/122 90/123/123
f 92/124/124 89/125/125 91/126/126
f 95/127/127 93/128/128 94/129/129
f 96/130/130 93/131/131 95/132/132
f 99/133/133 97/134/134 98/135/135
f 100/136/136 97/137/137 99/138/138
f 103/139/139 101/140/140 102/141/141
f 104/142/142 101/143/143 103/144/144
f 107/145/145 105/146/146 106/147/147
f 108/148/148 105/149/149 107/150/150
f 111/151/151 109/152/152 110/153/153
f 112/154/154 109/155/155 111/156/156
f 115/157/157 113/158/158 114/159/159
f 116/160/160 113/161/161 115/162/162
f 119/163/163 117/164/164 118/165/165
f 120/166/166 117/167/167 119/168/168
f 123/169/169 121/170/170 122/171/171
f 124/172/172 121/173/173 123/174/174
f 127/175/175 125/176/176 126/177/177
f 128/178/178 125/179/179 127/180/180
f 131/181/181 129/182/182 130/183/183
f 132/184/184 129/185/185 131/186/186
f 135/187/187 133/188/188 134/189/189
f 136/190/190 133/191/191 135/192/192
f 139/193/193 137/194/194 138/195/195
f 140/196/196 137/197/197 139/198/198
f 143/199/199 141/200/200 142/201/201
f 144/202/202 141/203/203 143/204/204
f 147/205/205 145/206/206 146/207/207
f 148/208/208 145/209/209 147/210/210
f 151/211/211 149/212/212 150/213/213
f 152/214/214 149/215/215 151/216/216

g Material.001
f 43/217/217 41/218/218 42/219/219
f 44/220/220 41/221/221 43/222/222
f 55/223/223 53/224/224 54/225/225
f 56/226/226 53/227/227 55/228/228
f 155/229/229 153/230/230 154/231/231
f 158/232/232 156/233/233 157/234/234
f 159/235/235 156/236/236 158/237/237
f 162/238/238 160/239/239 161/240/240
f 163/241/241 160/242/242 162/243/243
f 166/244/244 164/245/245 165/246/246
f 167/247/247 164/248/248 166/249/249
f 170/250/250 168/251/251 169/252/252
f 171/253/253 168/254/254 170/255/255
f 174/256/256 172/257/257 173/258/258
f 175/259/259 172/260/260 174/261/261
f 178/262/262 176/263/263 177/264/264
f 179/265/265 176/266/266 178/267/267
f 182/268/268 180/269/269 181/270/270
f 183/271/271 180/272/272 182/273/273
f 186/274/274 184/275/275 185/276/276
f 187/277/277 184/278/278 186/279/279
f 190/280/280 188/281/281 189/282/282
f 191/283/283 188/284/284 190/285/285
f 194/286/286 192/287/287 193/288/288
f 195/289/289 192/290/290 194/291/291
f 198/292/292 196/293/293 197/294/294
f 199/295/295 196/296/296 198/297/297
f 202/298/298 200/299/299 201/300/300
f 203/301/301 200/302/302 202/303/303
f 206/304/304 204/305/305 205/306/306
f 207/307/307 204/308/308 206/309/309
f 210/310/310 208/311/311 209/312/312
f 211/313/313 208/314/314 210/315/315
f 214/316/316 212/317/317 213/318/318
f 215/319/319 212/320/320 214/321/321
f 218/322/322 216/323/323 217/324/324
f 219/325/325 216/326/326 218/327/327
f 222/328/328 220/329/329 221/330/330
f 223/331/331 220/332/332 222/333/333
f 226/334/334 224/335/335 225/336/336
f 227/337/337 224/338/338 226/339/339
f 230/340/340 228/341/341 229/342/342
f 231/343/343 228/344/344 230/345/345
f 234/346/346 232/347/347 233/348/348
f 235/349/349 232/350/350 234/351/351
f 238/352/352 236/353/353 237/354/354
f 239/355/355 236/356/356 238/357/357
f 242/358/358 240/359/359 241/360/360
f 243/361/361 240/362/362 242/363/363
f 246/364/364 244/365/365 245/366/366
f 247/367/367 244/368/368 246/369/369
f 250/370/370 248/371/371 249/372/372
f 251/373/373 248/374/374 250/375/375
f 254/376/376 252/377/377 253/378/378
f 257/379/379 255/380/380 256/381/381
f 258/382/382 255/383/383 257/384/384
f 261/385/385 259/386/386 260/387/387
f 262/388/388 259/389/389 261/390/390
f 265/391/391 263/392/392 264/393/393
f 266/394/394 263/395/395 265/396/396
f 269/397/397 267/398/398 268/399/399
f 270/400/400 267/401/401 269/402/402
f 273/403/403 271/404/404 272/405/405
f 274/406/406 271/407/407 273/408/408
f 277/409/409 275/410/410 276/411/411
f 278/412/412 275/413/413 277/414/414
f 281/415/415 279/416/416 280/417/417
f 282/418/418 279/419/419 281/420/420
f 285/421/421 283/422/422 284/423/423
f 286/424/424 283/425/425 285/426/426
f 289/427/427 287/428/428 288/429/429
f 290/430/430 287/431/431 289/432/432
f 293/433/433 291/434/434 292/435/435
f 294/436/436 291/437/437 293/438/438
f 297/439/439 295/440/440 296/441/441
f 298/442/442 295/443/443 297/444/444
f 301/445/445 299/446/446 300/447/447
f 302/448/448 299/449/449 301/450/450
f 305/451/451 303/452/452 304/453/453
f 306/454/454 303/455/455 305/456/456
f 309/457/457 307/458/458 308/459/459
f 310/460/460 307/461/461 309/462/462
f 313/463/463 311/464/464 312/465/465
f 314/466/466 311/467/467 313/468/468
f 317/469/469 315/470/470 316/471/471
f 318/472/472 315/473/473 317/474/474
f 321/475/475 319/476/476 320/477/477
f 322/478/478 319/479/479 321/480/480
f 325/481/481 323/482/482 324/483/483
f 326/484/484 323/485/485 325/486/486
f 329/487/487 327/488/488 328/489/489
f 330/490/490 327/491/491 329/492/492
f 333/493/493 331/494/494 332/495/495
f 334/496/496 331/497/497 333/498/498
f 337/499/499 335/500/500 336/501/501
f 338/502/502 335/503/503 337/504/504
f 341/505/505 339/506/506 340/507/507
f 342/508/508 339/509/509 341/510/510
f 345/511/511 343/512/512 344/513/513
f 346/514/514 343/515/515 345/516/516
f 349/517/517 347/518/518 348/519/519
f 352/520/520 350/521/521 351/522/522
f 355/523/523 353/524/524 354/525/525
f 358/526/526 356/527/527 357/528/528
f 361/529/529 359/530/530 360/531/531
f 364/532/532 362/533/533 363/534/534
f 367/535/535 365/536/536 366/537/537
f 370/538/538 368/539/539 369/540/540
f 373/541/541 371/542/542 372/543/543
f 376/544/544 374/545/545 375/546/546
f 379/547/547 377/548/548 378/549/549
f 382/550/550 380/551/551 381/552/552
f 385/553/553 383/554/554 384/555/555
f 388/556/556 386/557/557 387/558/558
f 391/559/559 389/560/560 390/561/561
f 394/562/562 392/563/563 393/564/564
f 397/565/565 395/566/566 396/567/567
f 400/568/568 398/569/569 399/570/570
f 403/571/571 401/572/572 402/573/573
f 406/574/574 404/575/575 405/576/576
f 409/577/577 407/578/578 408/579/579
f 412/580/580 410/581/581 411/582/582
f 415/583/583 413/584/584 414/585/585
f 418/586/586 416/587/587 417/588/588
f 421/589/589 419/590/590 420/591/591
f 422/592/592 419/593/593 421/594/594
f 425/595/595 423/596/596 424/597/597
f 426/598/598 423/599/599 425/600/600
f 429/601/601 427/602/602 428/603/603
f 430/604/604 427/605/605 429/606/606
f 433/607/607 431/608/608 432/609/609
f 434/610/610 431/611/611 433/612/612
f 437/613/613 435/614/614 436/615/615
f 438/616/616 435/617/617 437/618/618
f 441/619/619 439/620/620 440/621/621
f 442/622/622 439/623/623 441/624/624
f 445/625/625 443/626/626 444/627/627
f 446/628/628 443/629/629 445/630/630
f 449/631/631 447/632/632 448/633/633
f 450/634/634 447/635/635 449/636/636
f 453/637/637 451/638/638 452/639/639
f 454/640/640 451/641/641 453/642/642
f 457/643/643 455/644/644 456/645/645
f 458/646/646 455/647/647 457/648/648
f 461/649/649 459/650/650 460/651/651
f 462/652/652 459/653/653 461/654/654
f 465/655/655 463/656/656 464/657/657
f 466/658/658 463/659/659 465/660/660
f 469/661/661 467/662/662 468/663/663
f 470/664/664 467/665/665 469/666/666
f 473/667/667 471/668/668 472/669/669
f 474/670/670 471/671/671 473/672/672
f 477/673/673 475/674/674 476/675/675
f 478/676/676 475/677/677 477/678/678
f 481/679/679 479/680/680 480/681/681
f 482/682/682 479/683/683 481/684/684
f 485/685/685 483/686/686 484/687/687
f 486/688/688 483/689/689 485/690/690
f 489/691/691 487/692/692 488/693/693
f 490/694/694 487/695/695 489/696/696
f 493/697/697 491/698/698 492/699/699
f 494/700/700 491/701/701 493/702/702
f 497/703/703 495/704/704 496/705/705
f 498/706/706 495/707/707 497/708/708
f 501/709/709 499/710/710 500/711/711
f 502/712/712 499/713/713 501/714/714
f 505/715/715 503/716/716 504/717/717
f 506/718/718 503/719/719 505/720/720
f 509/721/721 507/722/722 508/723/723
f 510/724/724 507/725/725 509/726/726
f 513/727/727 511/728/728 512/729/729
f 514/730/730 511/731/731 513/732/732
f 517/733/733 515/734/734 516/735/735
f 518/736/736 515/737/737 517/738/738
f 521/739/739 519/740/740 520/741/741
f 522/742/742 519/743/743 521/744/744
f 525/745/745 523/746/746 524/747/747
f 526/748/748 523/749/749 525/750/750
f 529/751/751 527/752/752 528/753/753
f 530/754/754 527/755/755 529/756/756
f 533/757/757 531/758/758 532/759/759
f 534/760/760 531/761/761 533/762/762
f 537/763/763 535/764/764 536/765/765
f 538/766/766 535/767/767 537/768/768
f 541/769/769 539/770/770 540/771/771
f 542/772/772 539/773/773 541/774/774
f 545/775/775 543/776/776 544/777/777
f 546/778/778 543/779/779 545/780/780
f 549/781/781 547/782/782 548/783/783
f 550/784/784 547/785/785 549/786/786
f 553/787/787 551/788/788 552/789/789
f 554/790/790 551/791/791 553/792/792
f 557/793/793 555/794/794 556/795/795
f 558/796/796 555/797/797 557/798/798
f 591/799/799 589/800/800 590/801/801
f 594/802/802 592/803/803 593/804/804
f 597/805/805 595/806/806 596/807/807
f 600/808/808 598/809/809 599/810/810
f 603/811/811 601/812/812 602/813/813
f 606/814/814 604/815/815 605/816/816
f 609/817/817 607/818/818 608/819/819
f 612/820/820 610/821/821 611/822/822
f 615/823/823 613/824/824 614/825/825
f 618/826/826 616/827/827 617/828/828
f 621/829/829 619/830/830 620/831/831
f 624/832/832 622/833/833 623/834/834
f 627/835/835 625/836/836 626/837/837
f 630/838/838 628/839/839 629/840/840
f 633/841/841 631/842/842 632/843/843
f 636/844/844 634/845/845 635/846/846
f 639/847/847 637/848/848 638/849/849
f 642/850/850 640/851/851 641/852/852
f 645/853/853 643/854/854 644/855/855
f 646/856/856 643/857/857 645/858/858
f 649/859/859 647/860/860 648/861/861
f 650/862/862 647/863/863 649/864/864
f 653/865/865 651/866/866 652/867/867
f 654/868/868 651/869/869 653/870/870
f 657/871/871 655/872/872 656/873/873
f 658/874/874 655/875/875 657/876/876
f 661/877/877 659/878/878 660/879/879
f 662/880/880 659/881/881 661/882/882
f 665/883/883 663/884/884 664/885/885
f 666/886/886 663/887/887 665/888/888
f 669/889/889 667/890/890 668/891/891
f 670/892/892 667/893/893 669/894/894
f 673/895/895 671/896/896 672/897/897
f 674/898/898 671/899/899 673/900/900
f 677/901/901 675/902/902 676/903/903
f 678/904/904 675/905/905 677/906/906
f 681/907/907 679/908/908 680/909/909
f 682/910/910 679/911/911 681/912/912
f 685/913/913 683/914/914 684/915/915
f 686/916/916 683/917/917 685/918/918
f 689/919/919 687/920/920 688/921/921
f 690/922/922 687/923/923 689/924/924

g Material.002
f 561/925/925 559/926/926 560/927/927
f 564/928/928 562/929/929 563/930/930
f 567/931/931 565/932/932 566/933/933
f 570/934/934 568/935/935 569/936/936
f 573/937/937 571/938/938 572/939/939
f 576/940/940 574/941/941 575/942/942
f 579/943/943 577/944/944 578/945/945
f 582/946/946 580/947/947 581/948/948
f 585/949/949 583/950/950 584/951/951
f 588/952/952 586/953/953 587/954/954

