# Converted from B3D for Luanti (With Correct Normals)
# Object Name: multidecor_banister

v -1.000000 -1.200000 0.460000
v -1.000000 0.800000 0.460000
v -0.920000 0.800000 0.460000
v -0.920000 -1.200000 0.460000
v -0.920000 -1.200000 0.460000
v -0.920000 0.800000 0.460000
v -0.920000 0.800000 0.540000
v -0.920000 -1.200000 0.540000
v -0.920000 -1.200000 0.540000
v -1.000000 -1.200000 0.540000
v -1.000000 -1.200000 0.460000
v -0.920000 -1.200000 0.460000
v -1.000000 -1.200000 0.540000
v -1.000000 0.800000 0.540000
v -1.000000 0.800000 0.460000
v -1.000000 -1.200000 0.460000
v -0.920000 -1.200000 0.540000
v -0.920000 0.800000 0.540000
v -1.000000 0.800000 0.540000
v -1.000000 -1.200000 0.540000
v -0.860000 0.800000 1.000000
v -0.860000 0.800000 -1.000000
v -0.860000 0.950000 -1.000000
v -0.860000 0.950000 1.000000
v -0.860000 0.800000 -1.000000
v -1.060000 0.800000 -1.000000
v -1.060000 0.950000 -1.000000
v -0.860000 0.950000 -1.000000
v -1.060000 0.800000 -1.000000
v -1.060000 0.800000 1.000000
v -1.060000 0.950000 1.000000
v -1.060000 0.950000 -1.000000
v -1.060000 0.800000 1.000000
v -0.860000 0.800000 1.000000
v -0.860000 0.950000 1.000000
v -1.060000 0.950000 1.000000
v -0.860000 0.800000 -1.000000
v -0.860000 0.800000 1.000000
v -1.060000 0.800000 1.000000
v -1.060000 0.800000 -1.000000
v -1.060000 0.950000 -1.000000
v -1.060000 0.950000 1.000000
v -0.860000 0.950000 1.000000
v -0.860000 0.950000 -1.000000
v -1.000000 -1.200000 -0.540000
v -1.000000 0.800000 -0.540000
v -0.920000 0.800000 -0.540000
v -0.920000 -1.200000 -0.540000
v -0.920000 -1.200000 -0.540000
v -0.920000 0.800000 -0.540000
v -0.920000 0.800000 -0.460000
v -0.920000 -1.200000 -0.460000
v -0.920000 -1.200000 -0.460000
v -1.000000 -1.200000 -0.460000
v -1.000000 -1.200000 -0.540000
v -0.920000 -1.200000 -0.540000
v -1.000000 -1.200000 -0.460000
v -1.000000 0.800000 -0.460000
v -1.000000 0.800000 -0.540000
v -1.000000 -1.200000 -0.540000
v -0.920000 -1.200000 -0.460000
v -0.920000 0.800000 -0.460000
v -1.000000 0.800000 -0.460000
v -1.000000 -1.200000 -0.460000

vt 0.724620 0.418441
vt -0.054413 0.382086
vt 0.724620 0.382086
vt -0.054413 0.418442
vt -0.054413 0.382086
vt 0.724620 0.418441
vt 0.724620 0.309376
vt -0.054413 0.273019
vt 0.724620 0.273021
vt -0.054413 0.309375
vt -0.054413 0.273019
vt 0.724620 0.309376
vt 0.000119 0.345730
vt 0.036474 0.309375
vt 0.036474 0.345731
vt 0.000119 0.309375
vt 0.036474 0.309375
vt 0.000119 0.345730
vt 0.724620 0.382086
vt -0.054413 0.345731
vt 0.724620 0.345731
vt -0.054413 0.382086
vt -0.054413 0.345731
vt 0.724620 0.382086
vt 0.724620 0.345731
vt -0.054413 0.309375
vt 0.724620 0.309376
vt -0.054413 0.345730
vt -0.054413 0.309375
vt 0.724620 0.345731
vt 0.039070 0.418680
vt 0.818103 0.455035
vt 0.039070 0.455035
vt 0.818103 0.418679
vt 0.818103 0.455035
vt 0.039070 0.418680
vt 0.039071 0.527744
vt 0.818102 0.564101
vt 0.039070 0.564099
vt 0.818103 0.527746
vt 0.818102 0.564101
vt 0.039071 0.527744
vt 0.763571 0.491390
vt 0.727216 0.527746
vt 0.727216 0.491390
vt 0.763571 0.527746
vt 0.727216 0.527746
vt 0.763571 0.491390
vt 0.039071 0.455035
vt 0.818103 0.491390
vt 0.039070 0.491390
vt 0.818103 0.455035
vt 0.818103 0.491390
vt 0.039071 0.455035
vt 0.039071 0.491390
vt 0.818103 0.527746
vt 0.039070 0.527744
vt 0.818103 0.491390
vt 0.818103 0.527746
vt 0.039071 0.491390
vt 0.045563 0.250060
vt 0.954437 0.318225
vt 0.045563 0.318226
vt 0.954437 0.250060
vt 0.954437 0.318225
vt 0.045563 0.250060
vt 0.022841 0.136450
vt -0.045325 0.227338
vt -0.045325 0.136450
vt 0.022841 0.227338
vt -0.045325 0.227338
vt 0.022841 0.136450
vt 0.954437 0.113729
vt 0.045563 0.045563
vt 0.954438 0.045563
vt 0.045563 0.113729
vt 0.045563 0.045563
vt 0.954437 0.113729
vt 0.977159 0.227338
vt 1.045325 0.136451
vt 1.045325 0.227338
vt 0.977159 0.136451
vt 1.045325 0.136451
vt 0.977159 0.227338
vt 0.954437 0.091007
vt 0.045563 0.000119
vt 0.954437 0.000119
vt 0.045563 0.091007
vt 0.045563 0.000119
vt 0.954437 0.091007
vt 0.954437 0.227338
vt 0.045563 0.136450
vt 0.954437 0.136451
vt 0.045563 0.227338
vt 0.045563 0.136450
vt 0.954437 0.227338

vn -0.000000 0.000000 -1.000000
vn -0.000000 0.000000 -1.000000
vn -0.000000 0.000000 -1.000000
vn -0.000000 0.000000 -1.000000
vn -0.000000 0.000000 -1.000000
vn -0.000000 0.000000 -1.000000
vn 1.000000 0.000000 0.000000
vn 1.000000 0.000000 0.000000
vn 1.000000 0.000000 0.000000
vn 1.000000 0.000000 0.000000
vn 1.000000 0.000000 0.000000
vn 1.000000 0.000000 0.000000
vn -0.000000 -1.000000 0.000000
vn -0.000000 -1.000000 0.000000
vn -0.000000 -1.000000 0.000000
vn -0.000000 -1.000000 0.000000
vn -0.000000 -1.000000 0.000000
vn -0.000000 -1.000000 0.000000
vn -1.000000 0.000000 0.000000
vn -1.000000 0.000000 0.000000
vn -1.000000 0.000000 0.000000
vn -1.000000 0.000000 0.000000
vn -1.000000 0.000000 0.000000
vn -1.000000 0.000000 0.000000
vn -0.000000 0.000000 1.000000
vn -0.000000 0.000000 1.000000
vn -0.000000 0.000000 1.000000
vn -0.000000 0.000000 1.000000
vn -0.000000 0.000000 1.000000
vn -0.000000 0.000000 1.000000
vn -0.000000 0.000000 -1.000000
vn -0.000000 0.000000 -1.000000
vn -0.000000 0.000000 -1.000000
vn -0.000000 0.000000 -1.000000
vn -0.000000 0.000000 -1.000000
vn -0.000000 0.000000 -1.000000
vn 1.000000 0.000000 0.000000
vn 1.000000 0.000000 0.000000
vn 1.000000 0.000000 0.000000
vn 1.000000 0.000000 0.000000
vn 1.000000 0.000000 0.000000
vn 1.000000 0.000000 0.000000
vn -0.000000 -1.000000 0.000000
vn -0.000000 -1.000000 0.000000
vn -0.000000 -1.000000 0.000000
vn -0.000000 -1.000000 0.000000
vn -0.000000 -1.000000 0.000000
vn -0.000000 -1.000000 0.000000
vn -1.000000 0.000000 0.000000
vn -1.000000 0.000000 0.000000
vn -1.000000 0.000000 0.000000
vn -1.000000 0.000000 0.000000
vn -1.000000 0.000000 0.000000
vn -1.000000 0.000000 0.000000
vn -0.000000 0.000000 1.000000
vn -0.000000 0.000000 1.000000
vn -0.000000 0.000000 1.000000
vn -0.000000 0.000000 1.000000
vn -0.000000 0.000000 1.000000
vn -0.000000 0.000000 1.000000
vn 1.000000 0.000000 0.000000
vn 1.000000 0.000000 0.000000
vn 1.000000 0.000000 0.000000
vn 1.000000 0.000000 0.000000
vn 1.000000 0.000000 0.000000
vn 1.000000 0.000000 0.000000
vn -0.000000 0.000000 -1.000000
vn -0.000000 0.000000 -1.000000
vn -0.000000 0.000000 -1.000000
vn -0.000000 0.000000 -1.000000
vn -0.000000 0.000000 -1.000000
vn -0.000000 0.000000 -1.000000
vn -1.000000 0.000000 0.000000
vn -1.000000 0.000000 0.000000
vn -1.000000 0.000000 0.000000
vn -1.000000 0.000000 0.000000
vn -1.000000 0.000000 0.000000
vn -1.000000 0.000000 0.000000
vn -0.000000 0.000000 1.000000
vn -0.000000 0.000000 1.000000
vn -0.000000 0.000000 1.000000
vn -0.000000 0.000000 1.000000
vn -0.000000 0.000000 1.000000
vn -0.000000 0.000000 1.000000
vn -0.000000 -1.000000 0.000000
vn -0.000000 -1.000000 0.000000
vn -0.000000 -1.000000 0.000000
vn -0.000000 -1.000000 0.000000
vn -0.000000 -1.000000 0.000000
vn -0.000000 -1.000000 0.000000
vn -0.000000 1.000000 0.000000
vn -0.000000 1.000000 0.000000
vn -0.000000 1.000000 0.000000
vn -0.000000 1.000000 0.000000
vn -0.000000 1.000000 0.000000
vn -0.000000 1.000000 0.000000

g Material
f 3/1/1 1/2/2 2/3/3
f 4/4/4 1/5/5 3/6/6
f 7/7/7 5/8/8 6/9/9
f 8/10/10 5/11/11 7/12/12
f 11/13/13 9/14/14 10/15/15
f 12/16/16 9/17/17 11/18/18
f 15/19/19 13/20/20 14/21/21
f 16/22/22 13/23/23 15/24/24
f 19/25/25 17/26/26 18/27/27
f 20/28/28 17/29/29 19/30/30
f 47/31/31 45/32/32 46/33/33
f 48/34/34 45/35/35 47/36/36
f 51/37/37 49/38/38 50/39/39
f 52/40/40 49/41/41 51/42/42
f 55/43/43 53/44/44 54/45/45
f 56/46/46 53/47/47 55/48/48
f 59/49/49 57/50/50 58/51/51
f 60/52/52 57/53/53 59/54/54
f 63/55/55 61/56/56 62/57/57
f 64/58/58 61/59/59 63/60/60

g Material.001
f 23/61/61 21/62/62 22/63/63
f 24/64/64 21/65/65 23/66/66
f 27/67/67 25/68/68 26/69/69
f 28/70/70 25/71/71 27/72/72
f 31/73/73 29/74/74 30/75/75
f 32/76/76 29/77/77 31/78/78
f 35/79/79 33/80/80 34/81/81
f 36/82/82 33/83/83 35/84/84
f 39/85/85 37/86/86 38/87/87
f 40/88/88 37/89/89 39/90/90
f 43/91/91 41/92/92 42/93/93
f 44/94/94 41/95/95 43/96/96

