# Converted from B3D for Luanti (With Correct Normals)
# Object Name: multidecor_bathroom_tap_with_cap_flap

v -0.000000 0.277063 0.526187
v 0.082339 0.277063 0.578342
v -0.000000 0.277063 0.544236
v 0.095101 0.277063 0.565579
v 0.082339 0.277063 0.578342
v -0.000000 0.277063 0.526187
v -0.082339 0.277063 0.578342
v -0.116445 -0.072937 0.660681
v -0.116445 0.277063 0.660681
v -0.082339 -0.072937 0.578342
v -0.116445 -0.072937 0.660681
v -0.082339 0.277063 0.578342
v -0.134494 0.277063 0.660681
v -0.082339 0.277063 0.578342
v -0.116445 0.277063 0.660681
v -0.095101 0.277063 0.565579
v -0.082339 0.277063 0.578342
v -0.134494 0.277063 0.660681
v -0.000000 0.277063 0.544236
v -0.082339 -0.072937 0.578342
v -0.082339 0.277063 0.578342
v -0.000000 -0.072937 0.544236
v -0.082339 -0.072937 0.578342
v -0.000000 0.277063 0.544236
v 0.095101 0.277063 0.755782
v -0.000000 0.277063 0.777125
v 0.082339 0.277063 0.743020
v -0.000000 0.277063 0.795174
v -0.000000 0.277063 0.777125
v 0.095101 0.277063 0.755782
v 0.082339 0.277063 0.578342
v -0.000000 -0.072937 0.544236
v -0.000000 0.277063 0.544236
v 0.082339 -0.072937 0.578342
v -0.000000 -0.072937 0.544236
v 0.082339 0.277063 0.578342
v -0.095101 0.277063 0.565579
v -0.000000 0.277063 0.544236
v -0.082339 0.277063 0.578342
v -0.000000 0.277063 0.526187
v -0.000000 0.277063 0.544236
v -0.095101 0.277063 0.565579
v 0.116445 0.277063 0.660681
v 0.082339 -0.072937 0.578342
v 0.082339 0.277063 0.578342
v 0.116445 -0.072937 0.660681
v 0.082339 -0.072937 0.578342
v 0.116445 0.277063 0.660681
v 0.134494 0.277063 0.660681
v 0.082339 0.277063 0.743020
v 0.116445 0.277063 0.660681
v 0.095101 0.277063 0.755782
v 0.082339 0.277063 0.743020
v 0.134494 0.277063 0.660681
v 0.082339 0.277063 0.743020
v 0.116445 -0.072937 0.660681
v 0.116445 0.277063 0.660681
v 0.082339 -0.072937 0.743020
v 0.116445 -0.072937 0.660681
v 0.082339 0.277063 0.743020
v -0.095101 0.277063 0.755782
v -0.116445 0.277063 0.660681
v -0.082339 0.277063 0.743020
v -0.134494 0.277063 0.660681
v -0.116445 0.277063 0.660681
v -0.095101 0.277063 0.755782
v -0.000000 0.277063 0.777125
v 0.082339 -0.072937 0.743020
v 0.082339 0.277063 0.743020
v -0.000000 -0.072937 0.777125
v 0.082339 -0.072937 0.743020
v -0.000000 0.277063 0.777125
v 0.095101 0.277063 0.565579
v 0.116445 0.277063 0.660681
v 0.082339 0.277063 0.578342
v 0.134494 0.277063 0.660681
v 0.116445 0.277063 0.660681
v 0.095101 0.277063 0.565579
v 0.095101 0.383661 0.755782
v -0.000000 0.277063 0.795174
v 0.095101 0.277063 0.755782
v -0.000000 0.383661 0.795174
v -0.000000 0.277063 0.795174
v 0.095101 0.383661 0.755782
v -0.082339 0.277063 0.743020
v -0.000000 -0.072937 0.777125
v -0.000000 0.277063 0.777125
v -0.082339 -0.072937 0.743020
v -0.000000 -0.072937 0.777125
v -0.082339 0.277063 0.743020
v -0.000000 0.277063 0.795174
v -0.082339 0.277063 0.743020
v -0.000000 0.277063 0.777125
v -0.095101 0.277063 0.755782
v -0.082339 0.277063 0.743020
v -0.000000 0.277063 0.795174
v -0.116445 0.277063 0.660681
v -0.082339 -0.072937 0.743020
v -0.082339 0.277063 0.743020
v -0.116445 -0.072937 0.660681
v -0.082339 -0.072937 0.743020
v -0.116445 0.277063 0.660681
v -0.095101 0.433661 0.565579
v -0.000000 0.433661 0.526187
v -0.000000 0.433661 0.126187
v -0.066571 0.433661 0.165579
v -0.095101 0.383661 0.565579
v -0.000000 0.277063 0.526187
v -0.095101 0.277063 0.565579
v -0.000000 0.383661 0.526187
v -0.000000 0.277063 0.526187
v -0.095101 0.383661 0.565579
v -0.000000 0.383661 0.795174
v -0.095101 0.277063 0.755782
v -0.000000 0.277063 0.795174
v -0.095101 0.383661 0.755782
v -0.095101 0.277063 0.755782
v -0.000000 0.383661 0.795174
v 0.134494 0.383661 0.660681
v 0.095101 0.277063 0.755782
v 0.134494 0.277063 0.660681
v 0.095101 0.383661 0.755782
v 0.095101 0.277063 0.755782
v 0.134494 0.383661 0.660681
v -0.134494 0.383661 0.660681
v -0.095101 0.277063 0.565579
v -0.134494 0.277063 0.660681
v -0.095101 0.383661 0.565579
v -0.095101 0.277063 0.565579
v -0.134494 0.383661 0.660681
v 0.095101 0.383661 0.565579
v 0.134494 0.277063 0.660681
v 0.095101 0.277063 0.565579
v 0.134494 0.383661 0.660681
v 0.134494 0.277063 0.660681
v 0.095101 0.383661 0.565579
v -0.000000 0.383661 0.526187
v 0.095101 0.277063 0.565579
v -0.000000 0.277063 0.526187
v 0.095101 0.383661 0.565579
v 0.095101 0.277063 0.565579
v -0.000000 0.383661 0.526187
v -0.095101 0.383661 0.755782
v -0.134494 0.277063 0.660681
v -0.095101 0.277063 0.755782
v -0.134494 0.383661 0.660681
v -0.134494 0.277063 0.660681
v -0.095101 0.383661 0.755782
v -0.000000 0.383661 0.126187
v -0.066571 0.383661 0.165579
v -0.066571 0.433661 0.165579
v -0.000000 0.433661 0.126187
v -0.134494 0.383661 0.660681
v -0.134494 0.433661 0.660681
v -0.094146 0.433661 0.260681
v -0.094146 0.383661 0.260681
v -0.000000 0.433661 0.795174
v -0.134494 0.433661 0.660681
v -0.095101 0.433661 0.755782
v -0.000000 0.433661 0.795174
v -0.000000 0.433661 0.526187
v -0.134494 0.433661 0.660681
v -0.000000 0.433661 0.795174
v 0.134494 0.433661 0.660681
v 0.095101 0.433661 0.565579
v 0.066571 0.383661 0.165579
v -0.000000 0.383661 0.126187
v -0.000000 0.433661 0.126187
v 0.066571 0.433661 0.165579
v -0.134494 0.433661 0.660681
v -0.000000 0.433661 0.526187
v -0.095101 0.433661 0.565579
v -0.095101 0.383661 0.755782
v -0.000000 0.383661 0.795174
v -0.000000 0.433661 0.795174
v -0.095101 0.433661 0.755782
v -0.000000 0.433661 0.795174
v 0.095101 0.433661 0.565579
v -0.000000 0.433661 0.526187
v 0.134494 0.433661 0.660681
v -0.000000 0.433661 0.795174
v 0.095101 0.433661 0.755782
v -0.049497 -0.189313 -0.006638
v -0.070000 -0.189313 0.042859
v -0.070000 -0.074313 0.042859
v -0.049497 -0.074313 -0.006638
v -0.049497 -0.189313 -0.006638
v -0.070000 -0.074313 0.042859
v -0.050471 -0.123407 -0.077141
v -0.071376 -0.072937 0.615612
v -0.071376 -0.072937 -0.077141
v -0.050471 -0.123407 0.615612
v -0.071376 -0.072937 0.615612
v -0.050471 -0.123407 -0.077141
v 0.000000 -0.144313 -0.077141
v -0.050471 -0.123407 0.615612
v -0.050471 -0.123407 -0.077141
v -0.000000 -0.144313 0.615612
v -0.050471 -0.123407 0.615612
v 0.000000 -0.144313 -0.077141
v -0.000000 -0.189313 0.112859
v 0.049497 -0.189313 0.092357
v 0.049497 -0.074313 0.092357
v -0.000000 -0.074313 0.112859
v -0.000000 -0.189313 0.112859
v 0.049497 -0.074313 0.092357
v 0.050471 -0.123407 -0.077141
v -0.000000 -0.144313 0.615612
v 0.000000 -0.144313 -0.077141
v 0.050471 -0.123407 0.615612
v -0.000000 -0.144313 0.615612
v 0.050471 -0.123407 -0.077141
v -0.070000 -0.189313 0.042859
v -0.049497 -0.189313 0.092357
v -0.049497 -0.074313 0.092357
v -0.070000 -0.074313 0.042859
v -0.070000 -0.189313 0.042859
v -0.049497 -0.074313 0.092357
v 0.071377 -0.072937 -0.077141
v 0.050471 -0.123407 0.615612
v 0.050471 -0.123407 -0.077141
v 0.071376 -0.072937 0.615612
v 0.050471 -0.123407 0.615612
v 0.071377 -0.072937 -0.077141
v -0.049497 -0.189313 0.092357
v 0.070000 -0.189313 0.042859
v -0.000000 -0.189313 0.112859
v -0.070000 -0.189313 0.042859
v 0.070000 -0.189313 0.042859
v -0.049497 -0.189313 0.092357
v 0.049497 -0.189313 0.092357
v 0.070000 -0.189313 0.042859
v 0.070000 -0.074313 0.042859
v 0.049497 -0.074313 0.092357
v 0.049497 -0.189313 0.092357
v 0.070000 -0.074313 0.042859
v -0.095101 0.383661 0.565579
v -0.134494 0.383661 0.660681
v -0.094146 0.383661 0.260681
v -0.066571 0.383661 0.165579
v 0.095101 0.433661 0.565579
v 0.134494 0.433661 0.660681
v 0.094146 0.433661 0.260681
v 0.066571 0.433661 0.165579
v 0.134494 0.433661 0.660681
v 0.134494 0.383661 0.660681
v 0.094146 0.383661 0.260681
v 0.094146 0.433661 0.260681
v 0.095101 0.383661 0.565579
v -0.000000 0.383661 0.526187
v -0.000000 0.383661 0.126187
v 0.066571 0.383661 0.165579
v -0.134494 0.433661 0.660681
v -0.095101 0.433661 0.565579
v -0.066571 0.433661 0.165579
v -0.094146 0.433661 0.260681
v -0.049497 -0.189313 0.092357
v -0.000000 -0.189313 0.112859
v -0.000000 -0.074313 0.112859
v -0.049497 -0.074313 0.092357
v -0.049497 -0.189313 0.092357
v -0.000000 -0.074313 0.112859
v -0.000000 0.433661 0.526187
v 0.095101 0.433661 0.565579
v 0.066571 0.433661 0.165579
v -0.000000 0.433661 0.126187
v -0.066571 0.383661 0.165579
v -0.094146 0.383661 0.260681
v -0.094146 0.433661 0.260681
v -0.066571 0.433661 0.165579
v 0.000000 -0.189313 -0.027141
v -0.049497 -0.189313 -0.006638
v -0.049497 -0.074313 -0.006638
v 0.000000 -0.074313 -0.027141
v 0.000000 -0.189313 -0.027141
v -0.049497 -0.074313 -0.006638
v 0.049497 -0.189313 -0.006638
v 0.000000 -0.189313 -0.027141
v 0.000000 -0.074313 -0.027141
v 0.049497 -0.074313 -0.006638
v 0.049497 -0.189313 -0.006638
v 0.000000 -0.074313 -0.027141
v 0.070000 -0.189313 0.042859
v 0.049497 -0.189313 -0.006638
v 0.049497 -0.074313 -0.006638
v 0.070000 -0.074313 0.042859
v 0.070000 -0.189313 0.042859
v 0.049497 -0.074313 -0.006638
v -0.049497 -0.189313 -0.006638
v 0.070000 -0.189313 0.042859
v -0.070000 -0.189313 0.042859
v 0.094146 0.383661 0.260681
v 0.066571 0.383661 0.165579
v 0.066571 0.433661 0.165579
v 0.094146 0.433661 0.260681
v 0.071377 -0.072937 -0.077141
v 0.000000 -0.144313 -0.077141
v -0.071376 -0.072937 -0.077141
v 0.071376 -0.022937 0.615612
v 0.071377 -0.022937 -0.077141
v -0.071376 -0.022937 -0.077141
v -0.071376 -0.022937 0.615612
v 0.071376 -0.072937 0.615612
v 0.071377 -0.072937 -0.077141
v 0.071377 -0.022937 -0.077141
v 0.071376 -0.022937 0.615612
v -0.071376 -0.072937 -0.077141
v -0.071376 -0.072937 0.615612
v -0.071376 -0.022937 0.615612
v -0.071376 -0.022937 -0.077141
v -0.000000 0.383661 0.526187
v -0.095101 0.383661 0.565579
v -0.066571 0.383661 0.165579
v -0.000000 0.383661 0.126187
v -0.000000 0.383661 0.795174
v 0.095101 0.383661 0.755782
v 0.095101 0.433661 0.755782
v -0.000000 0.433661 0.795174
v 0.095101 0.383661 0.755782
v 0.134494 0.383661 0.660681
v 0.134494 0.433661 0.660681
v 0.095101 0.433661 0.755782
v -0.134494 0.383661 0.660681
v -0.095101 0.383661 0.755782
v -0.095101 0.433661 0.755782
v -0.134494 0.433661 0.660681
v 0.134494 0.383661 0.660681
v 0.095101 0.383661 0.565579
v 0.066571 0.383661 0.165579
v 0.094146 0.383661 0.260681
v -0.000000 -0.189313 0.112859
v 0.070000 -0.189313 0.042859
v 0.049497 -0.189313 0.092357
v 0.070000 -0.189313 0.042859
v 0.000000 -0.189313 -0.027141
v 0.049497 -0.189313 -0.006638
v 0.000000 -0.189313 -0.027141
v 0.070000 -0.189313 0.042859
v -0.049497 -0.189313 -0.006638
v 0.071377 -0.072937 -0.077141
v 0.050471 -0.123407 -0.077141
v 0.000000 -0.144313 -0.077141
v 0.000000 -0.144313 -0.077141
v -0.050471 -0.123407 -0.077141
v -0.071376 -0.072937 -0.077141
v -0.071376 -0.072937 -0.077141
v -0.071376 -0.022937 -0.077141
v 0.071377 -0.022937 -0.077141
v 0.071377 -0.022937 -0.077141
v 0.071377 -0.072937 -0.077141
v -0.071376 -0.072937 -0.077141
v -0.550000 -0.112671 0.520947
v -0.550000 -0.252404 0.660681
v -0.550000 -0.112671 0.800414
v 0.550000 -0.252404 0.660681
v 0.550000 -0.211477 0.561874
v 0.550000 -0.112671 0.520947
v -0.550000 -0.112671 0.800414
v -0.550000 -0.211477 0.759487
v 0.550000 -0.211477 0.759487
v 0.550000 -0.112671 0.800414
v -0.550000 -0.211477 0.561874
v -0.550000 -0.112671 0.520947
v 0.550000 -0.112671 0.520947
v 0.550000 -0.211477 0.561874
v -0.550000 -0.013864 0.759487
v -0.550000 -0.112671 0.800414
v 0.550000 -0.112671 0.800414
v 0.550000 -0.013864 0.759487
v -0.550000 -0.211477 0.759487
v -0.550000 -0.252404 0.660681
v 0.550000 -0.252404 0.660681
v 0.550000 -0.211477 0.759487
v -0.550000 -0.252404 0.660681
v -0.550000 -0.211477 0.561874
v 0.550000 -0.211477 0.561874
v 0.550000 -0.252404 0.660681
v -0.550000 0.027063 0.660681
v -0.550000 -0.013864 0.759487
v 0.550000 -0.013864 0.759487
v 0.550000 0.027063 0.660681
v -0.550000 -0.112671 0.520947
v -0.550000 -0.013864 0.561874
v 0.550000 -0.013864 0.561874
v 0.550000 -0.112671 0.520947
v -0.550000 -0.013864 0.561874
v -0.550000 0.027063 0.660681
v 0.550000 0.027063 0.660681
v 0.550000 -0.013864 0.561874
v -0.316160 -0.112671 0.750000
v -0.316160 -0.112671 0.950000
v -0.340716 -0.171955 0.950000
v -0.340716 -0.171955 0.750000
v -0.459284 -0.053386 0.750000
v -0.459284 -0.053386 0.950000
v -0.400000 -0.028830 0.950000
v -0.400000 -0.028830 0.750000
v 0.483840 -0.112671 0.750000
v 0.483840 -0.112671 0.950000
v 0.459284 -0.171955 0.950000
v 0.459284 -0.171955 0.750000
v 0.340716 -0.053386 0.750000
v 0.340716 -0.053386 0.950000
v 0.400000 -0.028830 0.950000
v 0.400000 -0.028830 0.750000
v -0.340716 -0.171955 0.750000
v -0.340716 -0.171955 0.950000
v -0.400000 -0.196511 0.950000
v -0.400000 -0.196511 0.750000
v 0.459284 -0.171955 0.750000
v 0.459284 -0.171955 0.950000
v 0.400000 -0.196511 0.950000
v 0.400000 -0.196511 0.750000
v -0.483840 -0.112671 0.750000
v -0.483840 -0.112671 0.950000
v -0.459284 -0.053386 0.950000
v -0.459284 -0.053386 0.750000
v 0.316160 -0.112671 0.750000
v 0.316160 -0.112671 0.950000
v 0.340716 -0.053386 0.950000
v 0.340716 -0.053386 0.750000
v -0.340716 -0.053387 0.750000
v -0.340716 -0.053387 0.950000
v -0.316160 -0.112671 0.950000
v -0.316160 -0.112671 0.750000
v 0.459284 -0.053387 0.750000
v 0.459284 -0.053387 0.950000
v 0.483840 -0.112671 0.950000
v 0.483840 -0.112671 0.750000
v -0.400000 -0.028830 0.750000
v -0.400000 -0.028830 0.950000
v -0.340716 -0.053387 0.950000
v -0.340716 -0.053387 0.750000
v 0.400000 -0.028830 0.750000
v 0.400000 -0.028830 0.950000
v 0.459284 -0.053387 0.950000
v 0.459284 -0.053387 0.750000
v -0.459284 -0.171955 0.750000
v -0.459284 -0.171955 0.950000
v -0.483840 -0.112671 0.950000
v -0.483840 -0.112671 0.750000
v 0.340716 -0.171955 0.750000
v 0.340716 -0.171955 0.950000
v 0.316160 -0.112671 0.950000
v 0.316160 -0.112671 0.750000
v -0.400000 -0.196511 0.750000
v -0.400000 -0.196511 0.950000
v -0.459284 -0.171955 0.950000
v -0.459284 -0.171955 0.750000
v 0.400000 -0.196511 0.750000
v 0.400000 -0.196511 0.950000
v 0.340716 -0.171955 0.950000
v 0.340716 -0.171955 0.750000
v 0.400000 0.071778 0.950000
v 0.400000 -0.297119 0.950000
v 0.215551 -0.112671 0.950000
v -0.269575 0.017754 0.950000
v -0.400000 -0.297119 0.950000
v -0.400000 0.071778 0.950000
v 0.400000 -0.297119 1.000000
v 0.215551 -0.112671 1.000000
v 0.269575 -0.243095 1.000000
v -0.400000 -0.297119 1.000000
v -0.584449 -0.112671 1.000000
v -0.530425 -0.243095 1.000000
v -0.530425 0.017754 0.950000
v -0.530425 0.017754 1.000000
v -0.400000 0.071778 1.000000
v -0.400000 0.071778 0.950000
v 0.530425 -0.243095 0.950000
v 0.530425 -0.243095 1.000000
v 0.400000 -0.297119 1.000000
v 0.400000 -0.297119 0.950000
v -0.269575 -0.243095 0.950000
v -0.269575 -0.243095 1.000000
v -0.400000 -0.297119 1.000000
v -0.400000 -0.297119 0.950000
v 0.215551 -0.112671 0.950000
v 0.215551 -0.112671 1.000000
v 0.269575 0.017754 1.000000
v 0.269575 0.017754 0.950000
v -0.584449 -0.112671 0.950000
v -0.584449 -0.112671 1.000000
v -0.530425 0.017754 1.000000
v -0.530425 0.017754 0.950000
v 0.530425 0.017754 0.950000
v 0.530425 0.017754 1.000000
v 0.584449 -0.112671 1.000000
v 0.584449 -0.112671 0.950000
v -0.269575 0.017754 0.950000
v -0.269575 0.017754 1.000000
v -0.215551 -0.112671 1.000000
v -0.215551 -0.112671 0.950000
v 0.400000 0.071778 0.950000
v 0.400000 0.071778 1.000000
v 0.530425 0.017754 1.000000
v 0.530425 0.017754 0.950000
v -0.400000 0.071778 0.950000
v -0.400000 0.071778 1.000000
v -0.269575 0.017754 1.000000
v -0.269575 0.017754 0.950000
v 0.269575 -0.243095 0.950000
v 0.269575 -0.243095 1.000000
v 0.215551 -0.112671 1.000000
v 0.215551 -0.112671 0.950000
v -0.530425 -0.243095 0.950000
v -0.530425 -0.243095 1.000000
v -0.584449 -0.112671 1.000000
v -0.584449 -0.112671 0.950000
v 0.400000 -0.297119 0.950000
v 0.400000 -0.297119 1.000000
v 0.269575 -0.243095 1.000000
v 0.269575 -0.243095 0.950000
v -0.400000 -0.297119 0.950000
v -0.400000 -0.297119 1.000000
v -0.530425 -0.243095 1.000000
v -0.530425 -0.243095 0.950000
v 0.584449 -0.112671 0.950000
v 0.584449 -0.112671 1.000000
v 0.530425 -0.243095 1.000000
v 0.530425 -0.243095 0.950000
v 0.269575 0.017754 0.950000
v 0.269575 0.017754 1.000000
v 0.400000 0.071778 1.000000
v 0.400000 0.071778 0.950000
v -0.215551 -0.112671 0.950000
v -0.215551 -0.112671 1.000000
v -0.269575 -0.243095 1.000000
v -0.269575 -0.243095 0.950000
v -0.550000 0.027063 0.660681
v -0.550000 -0.013864 0.561874
v -0.550000 -0.112671 0.520947
v -0.550000 -0.112671 0.520947
v -0.550000 -0.211477 0.561874
v -0.550000 -0.252404 0.660681
v -0.550000 -0.252404 0.660681
v -0.550000 -0.211477 0.759487
v -0.550000 -0.112671 0.800414
v -0.550000 -0.112671 0.800414
v -0.550000 -0.013864 0.759487
v -0.550000 0.027063 0.660681
v -0.550000 0.027063 0.660681
v -0.550000 -0.112671 0.520947
v -0.550000 -0.112671 0.800414
v 0.550000 -0.112671 0.520947
v 0.550000 -0.013864 0.561874
v 0.550000 0.027063 0.660681
v 0.550000 0.027063 0.660681
v 0.550000 -0.013864 0.759487
v 0.550000 -0.112671 0.520947
v 0.550000 -0.013864 0.759487
v 0.550000 -0.112671 0.800414
v 0.550000 -0.112671 0.520947
v 0.550000 -0.112671 0.800414
v 0.550000 -0.211477 0.759487
v 0.550000 -0.112671 0.520947
v 0.550000 -0.211477 0.759487
v 0.550000 -0.252404 0.660681
v 0.550000 -0.112671 0.520947
v 0.400000 0.071778 0.950000
v 0.215551 -0.112671 0.950000
v 0.269575 0.017754 0.950000
v 0.215551 -0.112671 0.950000
v 0.400000 -0.297119 0.950000
v 0.269575 -0.243095 0.950000
v 0.400000 -0.297119 0.950000
v 0.584449 -0.112671 0.950000
v 0.530425 -0.243095 0.950000
v 0.584449 -0.112671 0.950000
v 0.400000 -0.297119 0.950000
v 0.530425 0.017754 0.950000
v 0.530425 0.017754 0.950000
v 0.400000 -0.297119 0.950000
v 0.400000 0.071778 0.950000
v -0.400000 0.071778 0.950000
v -0.584449 -0.112671 0.950000
v -0.530425 0.017754 0.950000
v -0.584449 -0.112671 0.950000
v -0.400000 0.071778 0.950000
v -0.530425 -0.243095 0.950000
v -0.530425 -0.243095 0.950000
v -0.400000 0.071778 0.950000
v -0.400000 -0.297119 0.950000
v -0.400000 -0.297119 0.950000
v -0.215551 -0.112671 0.950000
v -0.269575 -0.243095 0.950000
v -0.215551 -0.112671 0.950000
v -0.400000 -0.297119 0.950000
v -0.269575 0.017754 0.950000
v 0.215551 -0.112671 1.000000
v 0.400000 0.071778 1.000000
v 0.269575 0.017754 1.000000
v 0.400000 0.071778 1.000000
v 0.215551 -0.112671 1.000000
v 0.530425 0.017754 1.000000
v 0.530425 0.017754 1.000000
v 0.215551 -0.112671 1.000000
v 0.584449 -0.112671 1.000000
v 0.584449 -0.112671 1.000000
v 0.215551 -0.112671 1.000000
v 0.530425 -0.243095 1.000000
v 0.530425 -0.243095 1.000000
v 0.215551 -0.112671 1.000000
v 0.400000 -0.297119 1.000000
v -0.584449 -0.112671 1.000000
v -0.400000 0.071778 1.000000
v -0.530425 0.017754 1.000000
v -0.400000 0.071778 1.000000
v -0.584449 -0.112671 1.000000
v -0.269575 0.017754 1.000000
v -0.269575 0.017754 1.000000
v -0.584449 -0.112671 1.000000
v -0.215551 -0.112671 1.000000
v -0.215551 -0.112671 1.000000
v -0.584449 -0.112671 1.000000
v -0.269575 -0.243095 1.000000
v -0.269575 -0.243095 1.000000
v -0.584449 -0.112671 1.000000
v -0.400000 -0.297119 1.000000

vt 0.727082 0.912727
vt 0.718500 0.909172
vt 0.759515 0.880295
vt 0.718500 0.909172
vt 0.755960 0.871713
vt 0.759515 0.880295
vt 0.180517 0.716696
vt 0.180517 0.762562
vt 0.000392 0.716696
vt 0.180517 0.762562
vt 0.000392 0.762562
vt 0.000392 0.716696
vt 0.759515 0.991026
vt 0.755960 0.999608
vt 0.727082 0.958594
vt 0.755960 0.999608
vt 0.718500 0.962148
vt 0.727082 0.958594
vt 0.180517 0.762562
vt 0.180517 0.808429
vt 0.000392 0.762562
vt 0.180517 0.808429
vt 0.000392 0.808429
vt 0.000392 0.762562
vt 0.837814 0.912727
vt 0.846395 0.909172
vt 0.837814 0.958594
vt 0.846395 0.909172
vt 0.846395 0.962148
vt 0.837814 0.958594
vt 0.180517 0.441496
vt 0.180517 0.487363
vt 0.000392 0.441496
vt 0.180517 0.487363
vt 0.000392 0.487363
vt 0.000392 0.441496
vt 0.727082 0.958594
vt 0.718500 0.962148
vt 0.727082 0.912727
vt 0.718500 0.962148
vt 0.718500 0.909172
vt 0.727082 0.912727
vt 0.180517 0.487363
vt 0.180517 0.533230
vt 0.000392 0.487363
vt 0.180517 0.533230
vt 0.000392 0.533230
vt 0.000392 0.487363
vt 0.805381 0.880295
vt 0.808936 0.871713
vt 0.837814 0.912727
vt 0.808936 0.871713
vt 0.846395 0.909172
vt 0.837814 0.912727
vt 0.180517 0.533230
vt 0.180517 0.579096
vt 0.000392 0.533230
vt 0.180517 0.579096
vt 0.000392 0.579096
vt 0.000392 0.533230
vt 0.805381 0.991026
vt 0.808936 0.999608
vt 0.759515 0.991026
vt 0.808936 0.999608
vt 0.755960 0.999608
vt 0.759515 0.991026
vt 0.180517 0.579096
vt 0.180517 0.624963
vt 0.000392 0.579096
vt 0.180517 0.624963
vt 0.000392 0.624963
vt 0.000392 0.579096
vt 0.759515 0.880295
vt 0.755960 0.871713
vt 0.805381 0.880295
vt 0.755960 0.871713
vt 0.808936 0.871713
vt 0.805381 0.880295
vt 0.664148 0.158271
vt 0.718646 0.164565
vt 0.658070 0.210897
vt 0.718646 0.164565
vt 0.712568 0.217191
vt 0.658070 0.210897
vt 0.180517 0.624963
vt 0.180517 0.670829
vt 0.000392 0.624963
vt 0.180517 0.670829
vt 0.000392 0.670829
vt 0.000392 0.624963
vt 0.837814 0.958594
vt 0.846395 0.962148
vt 0.805381 0.991026
vt 0.846395 0.962148
vt 0.808936 0.999608
vt 0.805381 0.991026
vt 0.180517 0.670829
vt 0.180517 0.716696
vt 0.000392 0.670829
vt 0.180517 0.716696
vt 0.000392 0.716696
vt 0.000392 0.670829
vt 0.834138 0.342944
vt 0.762747 0.122867
vt 0.813478 0.138126
vt 0.798016 0.326212
vt 0.762747 0.122867
vt 0.834138 0.342944
vt 0.639836 0.368775
vt 0.694334 0.375070
vt 0.633758 0.421402
vt 0.694334 0.375070
vt 0.688256 0.427696
vt 0.633758 0.421402
vt 0.658070 0.210897
vt 0.712568 0.217191
vt 0.651992 0.263523
vt 0.712568 0.217191
vt 0.706490 0.269817
vt 0.651992 0.263523
vt 0.670226 0.105645
vt 0.724724 0.111939
vt 0.664148 0.158271
vt 0.724724 0.111939
vt 0.718646 0.164565
vt 0.664148 0.158271
vt 0.645914 0.316149
vt 0.700412 0.322443
vt 0.639836 0.368775
vt 0.700412 0.322443
vt 0.694334 0.375070
vt 0.639836 0.368775
vt 0.676304 0.053018
vt 0.730802 0.059312
vt 0.670226 0.105645
vt 0.730802 0.059312
vt 0.724724 0.111939
vt 0.670226 0.105645
vt 0.682382 0.000392
vt 0.736880 0.006686
vt 0.676304 0.053018
vt 0.736880 0.006686
vt 0.730802 0.059312
vt 0.676304 0.053018
vt 0.651992 0.263523
vt 0.706490 0.269817
vt 0.645914 0.316149
vt 0.706490 0.269817
vt 0.700412 0.322443
vt 0.645914 0.316149
vt 0.936150 0.040201
vt 0.961882 0.000392
vt 0.961882 0.040201
vt 0.936150 0.000392
vt 0.961882 0.000392
vt 0.936150 0.040201
vt 0.936150 0.091160
vt 0.961882 0.298062
vt 0.936150 0.298062
vt 0.961882 0.091160
vt 0.961882 0.298062
vt 0.936150 0.091160
vt 0.752923 0.025475
vt 0.799584 0.000392
vt 0.737664 0.076206
vt 0.737664 0.076206
vt 0.799584 0.000392
vt 0.813478 0.138126
vt 0.860139 0.113043
vt 0.799584 0.000392
vt 0.875398 0.062312
vt 0.564339 0.441496
vt 0.538607 0.481305
vt 0.538607 0.441496
vt 0.564339 0.481305
vt 0.538607 0.481305
vt 0.564339 0.441496
vt 0.762747 0.122867
vt 0.737664 0.076206
vt 0.813478 0.138126
vt 0.936150 0.404014
vt 0.961882 0.351038
vt 0.961882 0.404014
vt 0.936150 0.351038
vt 0.961882 0.351038
vt 0.936150 0.404014
vt 0.813478 0.138126
vt 0.799584 0.000392
vt 0.860139 0.113043
vt 0.850315 0.015651
vt 0.875398 0.062312
vt 0.799584 0.000392
vt 0.935366 0.165826
vt 0.876182 0.193399
vt 0.876182 0.165826
vt 0.935366 0.165826
vt 0.935366 0.193399
vt 0.876182 0.193399
vt 0.181301 0.579687
vt 0.181301 0.551572
vt 0.537822 0.579687
vt 0.181301 0.551572
vt 0.537822 0.551572
vt 0.537822 0.579687
vt 0.181301 0.551572
vt 0.181301 0.523458
vt 0.537822 0.551572
vt 0.181301 0.523458
vt 0.537822 0.523458
vt 0.537822 0.551572
vt 0.935366 0.083109
vt 0.876182 0.110682
vt 0.876182 0.083109
vt 0.935366 0.083109
vt 0.935366 0.110681
vt 0.876182 0.110682
vt 0.181301 0.523458
vt 0.181301 0.495343
vt 0.537822 0.523458
vt 0.181301 0.495343
vt 0.537822 0.495343
vt 0.537822 0.523458
vt 0.935366 0.138254
vt 0.876182 0.165826
vt 0.876182 0.138254
vt 0.935366 0.138254
vt 0.935366 0.165826
vt 0.876182 0.165826
vt 0.181301 0.495343
vt 0.181301 0.467229
vt 0.537822 0.495343
vt 0.181301 0.467229
vt 0.537822 0.467229
vt 0.537822 0.495343
vt 0.512843 0.829455
vt 0.493346 0.848952
vt 0.493346 0.782386
vt 0.493346 0.848952
vt 0.465774 0.848952
vt 0.493346 0.782386
vt 0.935366 0.055537
vt 0.876182 0.083109
vt 0.876182 0.055537
vt 0.935366 0.055537
vt 0.935366 0.083109
vt 0.876182 0.083109
vt 0.736880 0.526106
vt 0.694334 0.375070
vt 0.700412 0.322443
vt 0.736651 0.577064
vt 0.694334 0.375070
vt 0.736880 0.526106
vt 0.875398 0.269215
vt 0.860139 0.113043
vt 0.875398 0.062312
vt 0.866190 0.319335
vt 0.860139 0.113043
vt 0.875398 0.269215
vt 0.538607 0.532264
vt 0.564339 0.739167
vt 0.538607 0.739167
vt 0.564339 0.532264
vt 0.564339 0.739167
vt 0.538607 0.532264
vt 0.709261 0.605953
vt 0.600198 0.401906
vt 0.652824 0.407984
vt 0.670756 0.595850
vt 0.600198 0.401906
vt 0.709261 0.605953
vt 0.798016 0.326212
vt 0.737664 0.076206
vt 0.762747 0.122867
vt 0.778984 0.278940
vt 0.737664 0.076206
vt 0.798016 0.326212
vt 0.935366 0.110681
vt 0.876182 0.138254
vt 0.876182 0.110682
vt 0.935366 0.110681
vt 0.935366 0.138254
vt 0.876182 0.138254
vt 0.866190 0.319335
vt 0.813478 0.138126
vt 0.860139 0.113043
vt 0.834138 0.342944
vt 0.813478 0.138126
vt 0.866190 0.319335
vt 0.936150 0.091160
vt 0.961882 0.040201
vt 0.961882 0.091160
vt 0.936150 0.040201
vt 0.961882 0.040201
vt 0.936150 0.091160
vt 0.935366 0.193399
vt 0.876182 0.220971
vt 0.876182 0.193399
vt 0.935366 0.193399
vt 0.935366 0.220971
vt 0.876182 0.220971
vt 0.935366 0.000392
vt 0.876182 0.027964
vt 0.876182 0.000392
vt 0.935366 0.000392
vt 0.935366 0.027964
vt 0.876182 0.027964
vt 0.935366 0.027964
vt 0.876182 0.055537
vt 0.876182 0.027964
vt 0.935366 0.027964
vt 0.935366 0.055537
vt 0.876182 0.055537
vt 0.465774 0.848952
vt 0.446277 0.829455
vt 0.493346 0.782386
vt 0.564339 0.481305
vt 0.538607 0.532264
vt 0.538607 0.481305
vt 0.564339 0.532264
vt 0.538607 0.532264
vt 0.564339 0.481305
vt 0.811131 0.556644
vt 0.737664 0.556644
vt 0.774397 0.519911
vt 0.920646 0.606737
vt 0.847180 0.963258
vt 0.847180 0.606737
vt 0.920646 0.963258
vt 0.847180 0.963258
vt 0.920646 0.606737
vt 0.181301 0.441497
vt 0.537822 0.467229
vt 0.181301 0.467229
vt 0.537822 0.441496
vt 0.537822 0.467229
vt 0.181301 0.441497
vt 0.537822 0.605419
vt 0.181301 0.579687
vt 0.537822 0.579687
vt 0.181301 0.605419
vt 0.181301 0.579687
vt 0.537822 0.605419
vt 0.736651 0.577064
vt 0.652824 0.407984
vt 0.694334 0.375070
vt 0.709261 0.605953
vt 0.652824 0.407984
vt 0.736651 0.577064
vt 0.564339 0.792142
vt 0.538607 0.845118
vt 0.538607 0.792143
vt 0.564339 0.845118
vt 0.538607 0.845118
vt 0.564339 0.792142
vt 0.564339 0.739167
vt 0.538607 0.792143
vt 0.538607 0.739167
vt 0.564339 0.792142
vt 0.538607 0.792143
vt 0.564339 0.739167
vt 0.936150 0.351038
vt 0.961882 0.298062
vt 0.961882 0.351038
vt 0.936150 0.298062
vt 0.961882 0.298062
vt 0.936150 0.351038
vt 0.670756 0.595850
vt 0.567283 0.360396
vt 0.600198 0.401906
vt 0.643690 0.552673
vt 0.567283 0.360396
vt 0.670756 0.595850
vt 0.512843 0.801883
vt 0.512843 0.829455
vt 0.493346 0.782386
vt 0.465774 0.782386
vt 0.493346 0.782386
vt 0.446277 0.801883
vt 0.446277 0.829455
vt 0.446277 0.801883
vt 0.493346 0.782386
vt 0.774397 0.519911
vt 0.737664 0.556644
vt 0.748423 0.530670
vt 0.811131 0.556644
vt 0.774397 0.519911
vt 0.800372 0.530670
vt 0.737664 0.582377
vt 0.811131 0.556644
vt 0.811131 0.582377
vt 0.811131 0.556644
vt 0.737664 0.582377
vt 0.737664 0.556644
vt 0.700161 0.821840
vt 0.567283 0.876879
vt 0.606203 0.782920
vt 0.094351 0.942091
vt 0.133270 0.848132
vt 0.133270 0.903172
vt 0.000392 0.275592
vt 0.566499 0.220552
vt 0.566499 0.275592
vt 0.000392 0.220552
vt 0.566499 0.220552
vt 0.000392 0.275592
vt 0.000392 0.440712
vt 0.566499 0.385671
vt 0.566499 0.440711
vt 0.000392 0.385672
vt 0.566499 0.385671
vt 0.000392 0.440712
vt 0.000392 0.220552
vt 0.566499 0.165512
vt 0.566499 0.220552
vt 0.000392 0.165512
vt 0.566499 0.165512
vt 0.000392 0.220552
vt 0.000392 0.330632
vt 0.566499 0.275592
vt 0.566499 0.330632
vt 0.000392 0.275592
vt 0.566499 0.275592
vt 0.000392 0.330632
vt 0.000392 0.385672
vt 0.566499 0.330632
vt 0.566499 0.385671
vt 0.000392 0.330632
vt 0.566499 0.330632
vt 0.000392 0.385672
vt 0.000392 0.165512
vt 0.566499 0.110472
vt 0.566499 0.165512
vt 0.000392 0.110472
vt 0.566499 0.110472
vt 0.000392 0.165512
vt 0.000392 0.055432
vt 0.566499 0.000393
vt 0.566499 0.055432
vt 0.000392 0.000392
vt 0.566499 0.000393
vt 0.000392 0.055432
vt 0.000392 0.110472
vt 0.566499 0.055432
vt 0.566499 0.110472
vt 0.000392 0.055432
vt 0.566499 0.055432
vt 0.000392 0.110472
vt 0.846395 0.837905
vt 0.743467 0.870929
vt 0.846395 0.870929
vt 0.743467 0.837905
vt 0.743467 0.870929
vt 0.846395 0.837905
vt 0.846395 0.672785
vt 0.743467 0.705809
vt 0.846395 0.705809
vt 0.743467 0.672785
vt 0.743467 0.705809
vt 0.846395 0.672785
vt 0.412469 0.782386
vt 0.445493 0.885315
vt 0.445493 0.782386
vt 0.412469 0.885315
vt 0.445493 0.885315
vt 0.412469 0.782386
vt 0.247349 0.782386
vt 0.280373 0.885315
vt 0.280373 0.782386
vt 0.247349 0.885315
vt 0.280373 0.885315
vt 0.247349 0.782386
vt 0.846395 0.804881
vt 0.743467 0.837905
vt 0.846395 0.837905
vt 0.743467 0.804881
vt 0.743467 0.837905
vt 0.846395 0.804881
vt 0.379445 0.782386
vt 0.412469 0.885315
vt 0.412469 0.782386
vt 0.379445 0.885315
vt 0.412469 0.885315
vt 0.379445 0.782386
vt 0.846395 0.705809
vt 0.743467 0.738833
vt 0.846395 0.738833
vt 0.743467 0.705809
vt 0.743467 0.738833
vt 0.846395 0.705809
vt 0.280373 0.782386
vt 0.313397 0.885315
vt 0.313397 0.782386
vt 0.280373 0.885315
vt 0.313397 0.885315
vt 0.280373 0.782386
vt 0.846395 0.606737
vt 0.743467 0.639761
vt 0.846395 0.639761
vt 0.743467 0.606737
vt 0.743467 0.639761
vt 0.846395 0.606737
vt 0.181301 0.782386
vt 0.214325 0.885315
vt 0.214325 0.782386
vt 0.181302 0.885315
vt 0.214325 0.885315
vt 0.181301 0.782386
vt 0.846395 0.639761
vt 0.743467 0.672785
vt 0.846395 0.672785
vt 0.743467 0.639761
vt 0.743467 0.672785
vt 0.846395 0.639761
vt 0.214325 0.782386
vt 0.247349 0.885315
vt 0.247349 0.782386
vt 0.214325 0.885315
vt 0.247349 0.885315
vt 0.214325 0.782386
vt 0.846395 0.738833
vt 0.743467 0.771857
vt 0.846395 0.771857
vt 0.743467 0.738833
vt 0.743467 0.771857
vt 0.846395 0.738833
vt 0.313397 0.782386
vt 0.346421 0.885315
vt 0.346421 0.782386
vt 0.313397 0.885315
vt 0.346421 0.885315
vt 0.313397 0.782386
vt 0.846395 0.771857
vt 0.743467 0.804881
vt 0.846395 0.804881
vt 0.743467 0.771857
vt 0.743467 0.804881
vt 0.846395 0.771857
vt 0.346421 0.782386
vt 0.379445 0.885315
vt 0.379445 0.782386
vt 0.346421 0.885315
vt 0.379445 0.885315
vt 0.346421 0.782386
vt 0.567283 0.730763
vt 0.691309 0.782136
vt 0.618657 0.606737
vt 0.861690 0.519127
vt 0.913063 0.467754
vt 0.789037 0.343728
vt 0.532884 0.657576
vt 0.481510 0.606203
vt 0.532884 0.730229
vt 0.356700 0.730229
vt 0.356700 0.657576
vt 0.305327 0.781602
vt 0.921431 0.897348
vt 0.947163 0.824695
vt 0.921431 0.824695
vt 0.947163 0.897348
vt 0.947163 0.824695
vt 0.921431 0.897348
vt 0.962667 0.291003
vt 0.988399 0.218350
vt 0.962667 0.218350
vt 0.988399 0.291003
vt 0.988399 0.218350
vt 0.962667 0.291003
vt 0.947947 0.897348
vt 0.973679 0.824695
vt 0.947947 0.824695
vt 0.973679 0.897348
vt 0.973679 0.824695
vt 0.947947 0.897348
vt 0.253954 0.886099
vt 0.326607 0.911831
vt 0.326607 0.886099
vt 0.253954 0.911831
vt 0.326607 0.911831
vt 0.253954 0.886099
vt 0.921431 0.824695
vt 0.947163 0.752043
vt 0.921431 0.752043
vt 0.947163 0.824695
vt 0.947163 0.752043
vt 0.921431 0.824695
vt 0.962667 0.145697
vt 0.988399 0.073045
vt 0.962667 0.073045
vt 0.988399 0.145697
vt 0.988399 0.073045
vt 0.962667 0.145697
vt 0.947947 0.752042
vt 0.973679 0.679390
vt 0.947947 0.679390
vt 0.973679 0.752042
vt 0.973679 0.679390
vt 0.947947 0.752042
vt 0.962667 0.073045
vt 0.988399 0.000392
vt 0.962667 0.000392
vt 0.988399 0.073045
vt 0.988399 0.000392
vt 0.962667 0.073045
vt 0.947947 0.679390
vt 0.973679 0.606737
vt 0.947947 0.606737
vt 0.973679 0.679390
vt 0.973679 0.606737
vt 0.947947 0.679390
vt 0.326607 0.886099
vt 0.399260 0.911831
vt 0.399260 0.886099
vt 0.326607 0.911831
vt 0.399260 0.911831
vt 0.326607 0.886099
vt 0.921431 0.752043
vt 0.947163 0.679390
vt 0.921431 0.679390
vt 0.947163 0.752043
vt 0.947163 0.679390
vt 0.921431 0.752043
vt 0.399260 0.886099
vt 0.471912 0.911831
vt 0.471912 0.886099
vt 0.399260 0.911831
vt 0.471912 0.911831
vt 0.399260 0.886099
vt 0.921431 0.679390
vt 0.947163 0.606737
vt 0.921431 0.606737
vt 0.947163 0.679390
vt 0.947163 0.606737
vt 0.921431 0.679390
vt 0.962667 0.218350
vt 0.988399 0.145697
vt 0.962667 0.145697
vt 0.988399 0.218350
vt 0.988399 0.145697
vt 0.962667 0.218350
vt 0.181301 0.886099
vt 0.253954 0.911831
vt 0.253954 0.886099
vt 0.181301 0.911831
vt 0.253954 0.911831
vt 0.181301 0.886099
vt 0.947947 0.824695
vt 0.973679 0.752042
vt 0.947947 0.752042
vt 0.973679 0.824695
vt 0.973679 0.752042
vt 0.947947 0.824695
vt 0.567283 0.876879
vt 0.661242 0.915798
vt 0.606202 0.915798
vt 0.606203 0.782920
vt 0.567283 0.876879
vt 0.567283 0.821839
vt 0.700161 0.821840
vt 0.606203 0.782920
vt 0.661242 0.782920
vt 0.661242 0.915798
vt 0.700161 0.821840
vt 0.700161 0.876879
vt 0.700161 0.821840
vt 0.661242 0.915798
vt 0.567283 0.876879
vt 0.000392 0.903172
vt 0.094351 0.942091
vt 0.039311 0.942091
vt 0.094351 0.942091
vt 0.000392 0.903172
vt 0.000392 0.848132
vt 0.094351 0.942091
vt 0.000392 0.848132
vt 0.039311 0.809213
vt 0.094351 0.942091
vt 0.039311 0.809213
vt 0.094351 0.809213
vt 0.094351 0.942091
vt 0.094351 0.809213
vt 0.133270 0.848132
vt 0.618657 0.782136
vt 0.691309 0.782136
vt 0.567283 0.730763
vt 0.567283 0.658110
vt 0.567283 0.730763
vt 0.618657 0.606737
vt 0.691309 0.606737
vt 0.618657 0.606737
vt 0.742682 0.658110
vt 0.742682 0.730763
vt 0.742682 0.658110
vt 0.618657 0.606737
vt 0.691309 0.782136
vt 0.742682 0.730763
vt 0.618657 0.606737
vt 0.789037 0.519127
vt 0.861690 0.519127
vt 0.737664 0.467754
vt 0.737664 0.395101
vt 0.737664 0.467754
vt 0.861690 0.519127
vt 0.789037 0.343728
vt 0.737664 0.395101
vt 0.861690 0.519127
vt 0.861690 0.343728
vt 0.789037 0.343728
vt 0.913063 0.395101
vt 0.913063 0.467754
vt 0.913063 0.395101
vt 0.789037 0.343728
vt 0.481510 0.781602
vt 0.532884 0.730229
vt 0.408858 0.781602
vt 0.357485 0.730229
vt 0.408858 0.781602
vt 0.532884 0.730229
vt 0.357485 0.657576
vt 0.357485 0.730229
vt 0.532884 0.730229
vt 0.408858 0.606203
vt 0.357485 0.657576
vt 0.532884 0.730229
vt 0.481510 0.606203
vt 0.408858 0.606203
vt 0.532884 0.730229
vt 0.232675 0.781602
vt 0.305327 0.781602
vt 0.181301 0.730229
vt 0.181301 0.657576
vt 0.181301 0.730229
vt 0.305327 0.781602
vt 0.232675 0.606203
vt 0.181301 0.657576
vt 0.305327 0.781602
vt 0.305327 0.606203
vt 0.232675 0.606203
vt 0.305327 0.781602
vt 0.356700 0.657576
vt 0.305327 0.606203
vt 0.305327 0.781602

vn -0.000000 -1.000000 0.000000
vn -0.000000 -1.000000 0.000000
vn -0.000000 -1.000000 0.000000
vn -0.000000 -1.000000 0.000000
vn -0.000000 -1.000000 0.000000
vn -0.000000 -1.000000 0.000000
vn -0.923879 0.000000 -0.382683
vn -0.923879 0.000000 -0.382683
vn -0.923879 0.000000 -0.382683
vn -0.923879 0.000000 -0.382683
vn -0.923879 0.000000 -0.382683
vn -0.923879 0.000000 -0.382683
vn -0.000000 -1.000000 0.000000
vn -0.000000 -1.000000 0.000000
vn -0.000000 -1.000000 0.000000
vn 0.000001 -1.000000 0.000000
vn 0.000001 -1.000000 0.000000
vn 0.000001 -1.000000 0.000000
vn -0.382683 0.000000 -0.923880
vn -0.382683 0.000000 -0.923880
vn -0.382683 0.000000 -0.923880
vn -0.382683 0.000000 -0.923880
vn -0.382683 0.000000 -0.923880
vn -0.382683 0.000000 -0.923880
vn -0.000001 -1.000000 0.000000
vn -0.000001 -1.000000 0.000000
vn -0.000001 -1.000000 0.000000
vn -0.000000 -1.000000 0.000000
vn -0.000000 -1.000000 0.000000
vn -0.000000 -1.000000 0.000000
vn 0.382683 0.000000 -0.923880
vn 0.382683 0.000000 -0.923880
vn 0.382683 0.000000 -0.923880
vn 0.382683 0.000000 -0.923880
vn 0.382683 0.000000 -0.923880
vn 0.382683 0.000000 -0.923880
vn 0.000001 -1.000000 0.000000
vn 0.000001 -1.000000 0.000000
vn 0.000001 -1.000000 0.000000
vn -0.000000 -1.000000 0.000000
vn -0.000000 -1.000000 0.000000
vn -0.000000 -1.000000 0.000000
vn 0.923879 0.000000 -0.382683
vn 0.923879 0.000000 -0.382683
vn 0.923879 0.000000 -0.382683
vn 0.923880 0.000000 -0.382683
vn 0.923880 0.000000 -0.382683
vn 0.923880 0.000000 -0.382683
vn -0.000000 -1.000000 0.000000
vn -0.000000 -1.000000 0.000000
vn -0.000000 -1.000000 0.000000
vn -0.000001 -1.000000 0.000000
vn -0.000001 -1.000000 0.000000
vn -0.000001 -1.000000 0.000000
vn 0.923879 0.000000 0.382684
vn 0.923879 0.000000 0.382684
vn 0.923879 0.000000 0.382684
vn 0.923879 0.000000 0.382684
vn 0.923879 0.000000 0.382684
vn 0.923879 0.000000 0.382684
vn 0.000003 -1.000000 0.000000
vn 0.000003 -1.000000 0.000000
vn 0.000003 -1.000000 0.000000
vn -0.000000 -1.000000 0.000000
vn -0.000000 -1.000000 0.000000
vn -0.000000 -1.000000 0.000000
vn 0.382683 0.000000 0.923880
vn 0.382683 0.000000 0.923880
vn 0.382683 0.000000 0.923880
vn 0.382683 0.000000 0.923880
vn 0.382683 0.000000 0.923880
vn 0.382683 0.000000 0.923880
vn -0.000003 -1.000000 0.000000
vn -0.000003 -1.000000 0.000000
vn -0.000003 -1.000000 0.000000
vn -0.000000 -1.000000 0.000000
vn -0.000000 -1.000000 0.000000
vn -0.000000 -1.000000 0.000000
vn 0.382683 0.000000 0.923880
vn 0.382683 0.000000 0.923880
vn 0.382683 0.000000 0.923880
vn 0.382684 -0.000001 0.923879
vn 0.382684 -0.000001 0.923879
vn 0.382684 -0.000001 0.923879
vn -0.382684 0.000000 0.923880
vn -0.382684 0.000000 0.923880
vn -0.382684 0.000000 0.923880
vn -0.382683 0.000000 0.923880
vn -0.382683 0.000000 0.923880
vn -0.382683 0.000000 0.923880
vn -0.000000 -1.000000 0.000000
vn -0.000000 -1.000000 0.000000
vn -0.000000 -1.000000 0.000000
vn -0.000000 -1.000000 0.000000
vn -0.000000 -1.000000 0.000000
vn -0.000000 -1.000000 0.000000
vn -0.923879 0.000000 0.382684
vn -0.923879 0.000000 0.382684
vn -0.923879 0.000000 0.382684
vn -0.923879 0.000000 0.382684
vn -0.923879 0.000000 0.382684
vn -0.923879 0.000000 0.382684
vn -0.000000 1.000000 0.000000
vn -0.000000 1.000000 0.000000
vn -0.000000 1.000000 0.000000
vn 0.000001 1.000000 0.000000
vn 0.000001 1.000000 0.000000
vn 0.000001 1.000000 0.000000
vn -0.382683 0.000000 -0.923880
vn -0.382683 0.000000 -0.923880
vn -0.382683 0.000000 -0.923880
vn -0.382683 0.000000 -0.923880
vn -0.382683 0.000000 -0.923880
vn -0.382683 0.000000 -0.923880
vn -0.382683 -0.000001 0.923880
vn -0.382683 -0.000001 0.923880
vn -0.382683 -0.000001 0.923880
vn -0.382684 0.000000 0.923879
vn -0.382684 0.000000 0.923879
vn -0.382684 0.000000 0.923879
vn 0.923879 -0.000000 0.382684
vn 0.923879 -0.000000 0.382684
vn 0.923879 -0.000000 0.382684
vn 0.923879 0.000000 0.382684
vn 0.923879 0.000000 0.382684
vn 0.923879 0.000000 0.382684
vn -0.923880 0.000000 -0.382683
vn -0.923880 0.000000 -0.382683
vn -0.923880 0.000000 -0.382683
vn -0.923880 0.000000 -0.382683
vn -0.923880 0.000000 -0.382683
vn -0.923880 0.000000 -0.382683
vn 0.923880 0.000000 -0.382683
vn 0.923880 0.000000 -0.382683
vn 0.923880 0.000000 -0.382683
vn 0.923880 0.000000 -0.382683
vn 0.923880 0.000000 -0.382683
vn 0.923880 0.000000 -0.382683
vn 0.382683 0.000000 -0.923880
vn 0.382683 0.000000 -0.923880
vn 0.382683 0.000000 -0.923880
vn 0.382683 0.000000 -0.923880
vn 0.382683 0.000000 -0.923880
vn 0.382683 0.000000 -0.923880
vn -0.923880 0.000000 0.382683
vn -0.923880 0.000000 0.382683
vn -0.923880 0.000000 0.382683
vn -0.923879 -0.000000 0.382684
vn -0.923879 -0.000000 0.382684
vn -0.923879 -0.000000 0.382684
vn -0.509254 0.000000 -0.860616
vn -0.509254 0.000000 -0.860616
vn -0.509254 0.000000 -0.860616
vn -0.509254 0.000000 -0.860616
vn -0.509254 0.000000 -0.860616
vn -0.509254 0.000000 -0.860616
vn -0.994951 0.000000 -0.100361
vn -0.994951 0.000000 -0.100361
vn -0.994951 0.000000 -0.100361
vn -0.994951 0.000000 -0.100361
vn -0.994951 0.000000 -0.100361
vn -0.994951 0.000000 -0.100361
vn -0.000000 1.000000 0.000000
vn -0.000000 1.000000 0.000000
vn -0.000000 1.000000 0.000000
vn -0.000000 1.000000 0.000000
vn -0.000000 1.000000 0.000000
vn -0.000000 1.000000 0.000000
vn -0.000000 1.000000 0.000000
vn -0.000000 1.000000 0.000000
vn -0.000000 1.000000 0.000000
vn 0.509254 0.000000 -0.860616
vn 0.509254 0.000000 -0.860616
vn 0.509254 0.000000 -0.860616
vn 0.509254 0.000000 -0.860616
vn 0.509254 0.000000 -0.860616
vn 0.509254 0.000000 -0.860616
vn -0.000000 1.000000 0.000000
vn -0.000000 1.000000 0.000000
vn -0.000000 1.000000 0.000000
vn -0.382684 0.000000 0.923879
vn -0.382684 0.000000 0.923879
vn -0.382684 0.000000 0.923879
vn -0.382684 0.000000 0.923880
vn -0.382684 0.000000 0.923880
vn -0.382684 0.000000 0.923880
vn -0.000000 1.000000 0.000000
vn -0.000000 1.000000 0.000000
vn -0.000000 1.000000 0.000000
vn -0.000000 1.000000 0.000000
vn -0.000000 1.000000 0.000000
vn -0.000000 1.000000 0.000000
vn -0.923879 0.000000 -0.382684
vn -0.923879 0.000000 -0.382684
vn -0.923879 0.000000 -0.382684
vn -0.923879 0.000000 -0.382684
vn -0.923879 0.000000 -0.382684
vn -0.923879 0.000000 -0.382684
vn -0.923880 -0.382683 -0.000000
vn -0.923880 -0.382683 -0.000000
vn -0.923880 -0.382683 -0.000000
vn -0.923880 -0.382683 -0.000000
vn -0.923880 -0.382683 -0.000000
vn -0.923880 -0.382683 -0.000000
vn -0.382682 -0.923880 -0.000000
vn -0.382682 -0.923880 -0.000000
vn -0.382682 -0.923880 -0.000000
vn -0.382682 -0.923880 -0.000000
vn -0.382682 -0.923880 -0.000000
vn -0.382682 -0.923880 -0.000000
vn 0.382684 0.000000 0.923879
vn 0.382684 0.000000 0.923879
vn 0.382684 0.000000 0.923879
vn 0.382684 0.000000 0.923879
vn 0.382684 0.000000 0.923879
vn 0.382684 0.000000 0.923879
vn 0.382682 -0.923880 0.000000
vn 0.382682 -0.923880 0.000000
vn 0.382682 -0.923880 0.000000
vn 0.382682 -0.923880 0.000000
vn 0.382682 -0.923880 0.000000
vn 0.382682 -0.923880 0.000000
vn -0.923879 0.000000 0.382684
vn -0.923879 0.000000 0.382684
vn -0.923879 0.000000 0.382684
vn -0.923879 0.000000 0.382684
vn -0.923879 0.000000 0.382684
vn -0.923879 0.000000 0.382684
vn 0.923880 -0.382683 0.000000
vn 0.923880 -0.382683 0.000000
vn 0.923880 -0.382683 0.000000
vn 0.923880 -0.382683 0.000000
vn 0.923880 -0.382683 0.000000
vn 0.923880 -0.382683 0.000000
vn -0.000000 -1.000000 0.000000
vn -0.000000 -1.000000 0.000000
vn -0.000000 -1.000000 0.000000
vn -0.000000 -1.000000 0.000000
vn -0.000000 -1.000000 0.000000
vn -0.000000 -1.000000 0.000000
vn 0.923880 0.000000 0.382682
vn 0.923880 0.000000 0.382682
vn 0.923880 0.000000 0.382682
vn 0.923880 0.000000 0.382683
vn 0.923880 0.000000 0.382683
vn 0.923880 0.000000 0.382683
vn 0.000001 -1.000000 0.000000
vn 0.000001 -1.000000 0.000000
vn 0.000001 -1.000000 0.000000
vn -0.000000 -1.000000 0.000000
vn -0.000000 -1.000000 0.000000
vn -0.000000 -1.000000 0.000000
vn -0.000000 1.000000 0.000000
vn -0.000000 1.000000 0.000000
vn -0.000000 1.000000 0.000000
vn 0.000004 1.000000 0.000000
vn 0.000004 1.000000 0.000000
vn 0.000004 1.000000 0.000000
vn 0.994951 0.000000 -0.100361
vn 0.994951 0.000000 -0.100361
vn 0.994951 0.000000 -0.100361
vn 0.994951 0.000000 -0.100361
vn 0.994951 0.000000 -0.100361
vn 0.994951 0.000000 -0.100361
vn 0.000000 -1.000000 0.000000
vn 0.000000 -1.000000 0.000000
vn 0.000000 -1.000000 0.000000
vn -0.000000 -1.000000 0.000000
vn -0.000000 -1.000000 0.000000
vn -0.000000 -1.000000 0.000000
vn -0.000000 1.000000 0.000000
vn -0.000000 1.000000 0.000000
vn -0.000000 1.000000 0.000000
vn -0.000004 1.000000 0.000000
vn -0.000004 1.000000 0.000000
vn -0.000004 1.000000 0.000000
vn -0.382684 0.000000 0.923879
vn -0.382684 0.000000 0.923879
vn -0.382684 0.000000 0.923879
vn -0.382684 0.000000 0.923879
vn -0.382684 0.000000 0.923879
vn -0.382684 0.000000 0.923879
vn -0.000000 1.000000 0.000000
vn -0.000000 1.000000 0.000000
vn -0.000000 1.000000 0.000000
vn -0.000000 1.000000 0.000000
vn -0.000000 1.000000 0.000000
vn -0.000000 1.000000 0.000000
vn -0.960442 0.000000 -0.278479
vn -0.960442 0.000000 -0.278479
vn -0.960442 0.000000 -0.278479
vn -0.960442 0.000000 -0.278480
vn -0.960442 0.000000 -0.278480
vn -0.960442 0.000000 -0.278480
vn -0.382683 0.000000 -0.923880
vn -0.382683 0.000000 -0.923880
vn -0.382683 0.000000 -0.923880
vn -0.382683 0.000000 -0.923880
vn -0.382683 0.000000 -0.923880
vn -0.382683 0.000000 -0.923880
vn 0.382683 0.000000 -0.923880
vn 0.382683 0.000000 -0.923880
vn 0.382683 0.000000 -0.923880
vn 0.382683 0.000000 -0.923880
vn 0.382683 0.000000 -0.923880
vn 0.382683 0.000000 -0.923880
vn 0.923880 0.000000 -0.382683
vn 0.923880 0.000000 -0.382683
vn 0.923880 0.000000 -0.382683
vn 0.923880 0.000000 -0.382683
vn 0.923880 0.000000 -0.382683
vn 0.923880 0.000000 -0.382683
vn -0.000000 -1.000000 0.000000
vn -0.000000 -1.000000 0.000000
vn -0.000000 -1.000000 0.000000
vn 0.960442 0.000000 -0.278480
vn 0.960442 0.000000 -0.278480
vn 0.960442 0.000000 -0.278480
vn 0.960442 0.000000 -0.278479
vn 0.960442 0.000000 -0.278479
vn 0.960442 0.000000 -0.278479
vn -0.000000 -0.000000 -1.000000
vn -0.000000 -0.000000 -1.000000
vn -0.000000 -0.000000 -1.000000
vn -0.000000 1.000000 0.000000
vn -0.000000 1.000000 0.000000
vn -0.000000 1.000000 0.000000
vn -0.000000 1.000000 0.000000
vn -0.000000 1.000000 0.000000
vn -0.000000 1.000000 0.000000
vn 1.000000 0.000000 0.000000
vn 1.000000 0.000000 0.000000
vn 1.000000 0.000000 0.000000
vn 1.000000 0.000000 0.000000
vn 1.000000 0.000000 0.000000
vn 1.000000 0.000000 0.000000
vn -1.000000 0.000000 -0.000000
vn -1.000000 0.000000 -0.000000
vn -1.000000 0.000000 -0.000000
vn -1.000000 0.000000 -0.000000
vn -1.000000 0.000000 -0.000000
vn -1.000000 0.000000 -0.000000
vn -0.000001 -1.000000 0.000000
vn -0.000001 -1.000000 0.000000
vn -0.000001 -1.000000 0.000000
vn -0.000000 -1.000000 0.000000
vn -0.000000 -1.000000 0.000000
vn -0.000000 -1.000000 0.000000
vn 0.382684 0.000000 0.923879
vn 0.382684 0.000000 0.923879
vn 0.382684 0.000000 0.923879
vn 0.382683 0.000000 0.923880
vn 0.382683 0.000000 0.923880
vn 0.382683 0.000000 0.923880
vn 0.923880 0.000000 0.382684
vn 0.923880 0.000000 0.382684
vn 0.923880 0.000000 0.382684
vn 0.923879 0.000000 0.382684
vn 0.923879 0.000000 0.382684
vn 0.923879 0.000000 0.382684
vn -0.923880 0.000000 0.382684
vn -0.923880 0.000000 0.382684
vn -0.923880 0.000000 0.382684
vn -0.923879 0.000000 0.382684
vn -0.923879 0.000000 0.382684
vn -0.923879 0.000000 0.382684
vn -0.000001 -1.000000 0.000000
vn -0.000001 -1.000000 0.000000
vn -0.000001 -1.000000 0.000000
vn -0.000000 -1.000000 0.000000
vn -0.000000 -1.000000 0.000000
vn -0.000000 -1.000000 0.000000
vn -0.000000 -1.000000 0.000000
vn -0.000000 -1.000000 0.000000
vn -0.000000 -1.000000 0.000000
vn -0.000000 -1.000000 0.000000
vn -0.000000 -1.000000 0.000000
vn -0.000000 -1.000000 0.000000
vn -0.000000 -1.000000 0.000000
vn -0.000000 -1.000000 0.000000
vn -0.000000 -1.000000 0.000000
vn -0.000000 -0.000000 -1.000000
vn -0.000000 -0.000000 -1.000000
vn -0.000000 -0.000000 -1.000000
vn -0.000000 0.000000 -1.000000
vn -0.000000 0.000000 -1.000000
vn -0.000000 0.000000 -1.000000
vn -0.000000 0.000000 -1.000000
vn -0.000000 0.000000 -1.000000
vn -0.000000 0.000000 -1.000000
vn -0.000000 0.000000 -1.000000
vn -0.000000 0.000000 -1.000000
vn -0.000000 0.000000 -1.000000
vn -1.000000 0.000000 0.000000
vn -1.000000 0.000000 0.000000
vn -1.000000 0.000000 0.000000
vn 1.000000 0.000001 -0.000001
vn 1.000000 0.000001 -0.000001
vn 1.000000 0.000001 -0.000001
vn -0.000000 -0.382683 0.923880
vn -0.000000 -0.382683 0.923880
vn -0.000000 -0.382683 0.923880
vn 0.000000 -0.382683 0.923880
vn 0.000000 -0.382683 0.923880
vn 0.000000 -0.382683 0.923880
vn -0.000000 -0.382683 -0.923880
vn -0.000000 -0.382683 -0.923880
vn -0.000000 -0.382683 -0.923880
vn 0.000000 -0.382683 -0.923880
vn 0.000000 -0.382683 -0.923880
vn 0.000000 -0.382683 -0.923880
vn -0.000000 0.382683 0.923880
vn -0.000000 0.382683 0.923880
vn -0.000000 0.382683 0.923880
vn -0.000000 0.382683 0.923880
vn -0.000000 0.382683 0.923880
vn -0.000000 0.382683 0.923880
vn -0.000000 -0.923879 0.382684
vn -0.000000 -0.923879 0.382684
vn -0.000000 -0.923879 0.382684
vn -0.000000 -0.923879 0.382684
vn -0.000000 -0.923879 0.382684
vn -0.000000 -0.923879 0.382684
vn 0.000000 -0.923880 -0.382683
vn 0.000000 -0.923880 -0.382683
vn 0.000000 -0.923880 -0.382683
vn -0.000000 -0.923880 -0.382684
vn -0.000000 -0.923880 -0.382684
vn -0.000000 -0.923880 -0.382684
vn -0.000000 0.923879 0.382684
vn -0.000000 0.923879 0.382684
vn -0.000000 0.923879 0.382684
vn -0.000000 0.923879 0.382684
vn -0.000000 0.923879 0.382684
vn -0.000000 0.923879 0.382684
vn -0.000000 0.382683 -0.923880
vn -0.000000 0.382683 -0.923880
vn -0.000000 0.382683 -0.923880
vn -0.000000 0.382683 -0.923880
vn -0.000000 0.382683 -0.923880
vn -0.000000 0.382683 -0.923880
vn -0.000000 0.923880 -0.382683
vn -0.000000 0.923880 -0.382683
vn -0.000000 0.923880 -0.382683
vn -0.000000 0.923880 -0.382683
vn -0.000000 0.923880 -0.382683
vn -0.000000 0.923880 -0.382683
vn 0.923879 -0.382684 0.000000
vn 0.923879 -0.382684 0.000000
vn 0.923879 -0.382684 0.000000
vn 0.923879 -0.382684 0.000000
vn 0.923879 -0.382684 0.000000
vn 0.923879 -0.382684 0.000000
vn -0.382683 0.923880 0.000000
vn -0.382683 0.923880 0.000000
vn -0.382683 0.923880 0.000000
vn -0.382683 0.923880 0.000000
vn -0.382683 0.923880 0.000000
vn -0.382683 0.923880 0.000000
vn 0.923879 -0.382684 0.000000
vn 0.923879 -0.382684 0.000000
vn 0.923879 -0.382684 0.000000
vn 0.923879 -0.382684 0.000000
vn 0.923879 -0.382684 0.000000
vn 0.923879 -0.382684 0.000000
vn -0.382683 0.923880 0.000000
vn -0.382683 0.923880 0.000000
vn -0.382683 0.923880 0.000000
vn -0.382683 0.923880 0.000000
vn -0.382683 0.923880 0.000000
vn -0.382683 0.923880 0.000000
vn 0.382684 -0.923879 0.000000
vn 0.382684 -0.923879 0.000000
vn 0.382684 -0.923879 0.000000
vn 0.382684 -0.923879 0.000000
vn 0.382684 -0.923879 0.000000
vn 0.382684 -0.923879 0.000000
vn 0.382684 -0.923879 0.000000
vn 0.382684 -0.923879 0.000000
vn 0.382684 -0.923879 0.000000
vn 0.382684 -0.923879 0.000000
vn 0.382684 -0.923879 0.000000
vn 0.382684 -0.923879 0.000000
vn -0.923880 0.382683 0.000000
vn -0.923880 0.382683 0.000000
vn -0.923880 0.382683 0.000000
vn -0.923880 0.382683 0.000000
vn -0.923880 0.382683 0.000000
vn -0.923880 0.382683 0.000000
vn -0.923880 0.382683 0.000000
vn -0.923880 0.382683 0.000000
vn -0.923880 0.382683 0.000000
vn -0.923880 0.382683 0.000000
vn -0.923880 0.382683 0.000000
vn -0.923880 0.382683 0.000000
vn 0.923879 0.382684 0.000000
vn 0.923879 0.382684 0.000000
vn 0.923879 0.382684 0.000000
vn 0.923879 0.382684 0.000000
vn 0.923879 0.382684 0.000000
vn 0.923879 0.382684 0.000000
vn 0.923879 0.382684 0.000000
vn 0.923879 0.382684 0.000000
vn 0.923879 0.382684 0.000000
vn 0.923879 0.382684 0.000000
vn 0.923879 0.382684 0.000000
vn 0.923879 0.382684 0.000000
vn 0.382684 0.923879 0.000000
vn 0.382684 0.923879 0.000000
vn 0.382684 0.923879 0.000000
vn 0.382684 0.923879 0.000000
vn 0.382684 0.923879 0.000000
vn 0.382684 0.923879 0.000000
vn 0.382684 0.923879 0.000000
vn 0.382684 0.923879 0.000000
vn 0.382684 0.923879 0.000000
vn 0.382684 0.923879 0.000000
vn 0.382684 0.923879 0.000000
vn 0.382684 0.923879 0.000000
vn -0.923880 -0.382683 0.000000
vn -0.923880 -0.382683 0.000000
vn -0.923880 -0.382683 0.000000
vn -0.923880 -0.382683 0.000000
vn -0.923880 -0.382683 0.000000
vn -0.923880 -0.382683 0.000000
vn -0.923880 -0.382683 0.000000
vn -0.923880 -0.382683 0.000000
vn -0.923880 -0.382683 0.000000
vn -0.923880 -0.382683 0.000000
vn -0.923880 -0.382683 0.000000
vn -0.923880 -0.382683 0.000000
vn -0.382683 -0.923880 0.000000
vn -0.382683 -0.923880 0.000000
vn -0.382683 -0.923880 0.000000
vn -0.382684 -0.923879 0.000000
vn -0.382684 -0.923879 0.000000
vn -0.382684 -0.923879 0.000000
vn -0.382683 -0.923880 0.000000
vn -0.382683 -0.923880 0.000000
vn -0.382683 -0.923880 0.000000
vn -0.382684 -0.923879 0.000000
vn -0.382684 -0.923879 0.000000
vn -0.382684 -0.923879 0.000000
vn -0.000001 0.000001 -1.000000
vn -0.000001 0.000001 -1.000000
vn -0.000001 0.000001 -1.000000
vn 0.000000 0.000001 -1.000000
vn 0.000000 0.000001 -1.000000
vn 0.000000 0.000001 -1.000000
vn -0.000001 -0.000002 1.000000
vn -0.000001 -0.000002 1.000000
vn -0.000001 -0.000002 1.000000
vn -0.000001 -0.000002 1.000000
vn -0.000001 -0.000002 1.000000
vn -0.000001 -0.000002 1.000000
vn -0.382684 0.923879 0.000000
vn -0.382684 0.923879 0.000000
vn -0.382684 0.923879 0.000000
vn -0.382683 0.923880 0.000000
vn -0.382683 0.923880 0.000000
vn -0.382683 0.923880 0.000000
vn 0.382684 -0.923879 0.000000
vn 0.382684 -0.923879 0.000000
vn 0.382684 -0.923879 0.000000
vn 0.382684 -0.923879 0.000000
vn 0.382684 -0.923879 0.000000
vn 0.382684 -0.923879 0.000000
vn 0.382684 -0.923879 0.000000
vn 0.382684 -0.923879 0.000000
vn 0.382684 -0.923879 0.000000
vn 0.382683 -0.923880 0.000000
vn 0.382683 -0.923880 0.000000
vn 0.382683 -0.923880 0.000000
vn -0.923880 0.382684 0.000000
vn -0.923880 0.382684 0.000000
vn -0.923880 0.382684 0.000000
vn -0.923880 0.382683 0.000000
vn -0.923880 0.382683 0.000000
vn -0.923880 0.382683 0.000000
vn -0.923880 0.382684 0.000000
vn -0.923880 0.382684 0.000000
vn -0.923880 0.382684 0.000000
vn -0.923880 0.382683 0.000000
vn -0.923880 0.382683 0.000000
vn -0.923880 0.382683 0.000000
vn 0.923879 0.382684 0.000000
vn 0.923879 0.382684 0.000000
vn 0.923879 0.382684 0.000000
vn 0.923879 0.382684 0.000000
vn 0.923879 0.382684 0.000000
vn 0.923879 0.382684 0.000000
vn 0.923879 0.382684 0.000000
vn 0.923879 0.382684 0.000000
vn 0.923879 0.382684 0.000000
vn 0.923879 0.382684 0.000000
vn 0.923879 0.382684 0.000000
vn 0.923879 0.382684 0.000000
vn 0.382685 0.923879 0.000000
vn 0.382685 0.923879 0.000000
vn 0.382685 0.923879 0.000000
vn 0.382684 0.923879 0.000000
vn 0.382684 0.923879 0.000000
vn 0.382684 0.923879 0.000000
vn 0.382685 0.923879 0.000000
vn 0.382685 0.923879 0.000000
vn 0.382685 0.923879 0.000000
vn 0.382684 0.923879 0.000000
vn 0.382684 0.923879 0.000000
vn 0.382684 0.923879 0.000000
vn -0.923880 -0.382683 0.000000
vn -0.923880 -0.382683 0.000000
vn -0.923880 -0.382683 0.000000
vn -0.923880 -0.382683 0.000000
vn -0.923880 -0.382683 0.000000
vn -0.923880 -0.382683 0.000000
vn -0.923880 -0.382683 0.000000
vn -0.923880 -0.382683 0.000000
vn -0.923880 -0.382683 0.000000
vn -0.923880 -0.382682 0.000000
vn -0.923880 -0.382682 0.000000
vn -0.923880 -0.382682 0.000000
vn -0.382684 -0.923879 0.000000
vn -0.382684 -0.923879 0.000000
vn -0.382684 -0.923879 0.000000
vn -0.382682 -0.923880 0.000000
vn -0.382682 -0.923880 0.000000
vn -0.382682 -0.923880 0.000000
vn -0.382682 -0.923880 0.000000
vn -0.382682 -0.923880 0.000000
vn -0.382682 -0.923880 0.000000
vn -0.382684 -0.923879 0.000000
vn -0.382684 -0.923879 0.000000
vn -0.382684 -0.923879 0.000000
vn 0.923880 -0.382684 0.000000
vn 0.923880 -0.382684 0.000000
vn 0.923880 -0.382684 0.000000
vn 0.923879 -0.382684 0.000000
vn 0.923879 -0.382684 0.000000
vn 0.923879 -0.382684 0.000000
vn -0.382684 0.923879 0.000000
vn -0.382684 0.923879 0.000000
vn -0.382684 0.923879 0.000000
vn -0.382683 0.923880 0.000000
vn -0.382683 0.923880 0.000000
vn -0.382683 0.923880 0.000000
vn 0.923880 -0.382684 0.000000
vn 0.923880 -0.382684 0.000000
vn 0.923880 -0.382684 0.000000
vn 0.923879 -0.382684 0.000000
vn 0.923879 -0.382684 0.000000
vn 0.923879 -0.382684 0.000000
vn -1.000000 0.000000 0.000000
vn -1.000000 0.000000 0.000000
vn -1.000000 0.000000 0.000000
vn -1.000000 0.000000 0.000001
vn -1.000000 0.000000 0.000001
vn -1.000000 0.000000 0.000001
vn -1.000000 0.000000 0.000000
vn -1.000000 0.000000 0.000000
vn -1.000000 0.000000 0.000000
vn -1.000000 0.000000 0.000000
vn -1.000000 0.000000 0.000000
vn -1.000000 0.000000 0.000000
vn -1.000000 0.000000 0.000000
vn -1.000000 0.000000 0.000000
vn -1.000000 0.000000 0.000000
vn 1.000000 0.000000 0.000000
vn 1.000000 0.000000 0.000000
vn 1.000000 0.000000 0.000000
vn 1.000000 0.000000 0.000000
vn 1.000000 0.000000 0.000000
vn 1.000000 0.000000 0.000000
vn 1.000000 0.000000 0.000000
vn 1.000000 0.000000 0.000000
vn 1.000000 0.000000 0.000000
vn 1.000000 0.000001 0.000000
vn 1.000000 0.000001 0.000000
vn 1.000000 0.000001 0.000000
vn 1.000000 0.000000 0.000000
vn 1.000000 0.000000 0.000000
vn 1.000000 0.000000 0.000000
vn -0.000000 0.000000 -1.000000
vn -0.000000 0.000000 -1.000000
vn -0.000000 0.000000 -1.000000
vn 0.000001 0.000002 -1.000000
vn 0.000001 0.000002 -1.000000
vn 0.000001 0.000002 -1.000000
vn -0.000001 0.000000 -1.000000
vn -0.000001 0.000000 -1.000000
vn -0.000001 0.000000 -1.000000
vn 0.000001 0.000001 -1.000000
vn 0.000001 0.000001 -1.000000
vn 0.000001 0.000001 -1.000000
vn 0.000000 0.000001 -1.000000
vn 0.000000 0.000001 -1.000000
vn 0.000000 0.000001 -1.000000
vn -0.000000 0.000000 -1.000000
vn -0.000000 0.000000 -1.000000
vn -0.000000 0.000000 -1.000000
vn -0.000001 0.000002 -1.000000
vn -0.000001 0.000002 -1.000000
vn -0.000001 0.000002 -1.000000
vn 0.000000 0.000001 -1.000000
vn 0.000000 0.000001 -1.000000
vn 0.000000 0.000001 -1.000000
vn -0.000001 0.000002 -1.000000
vn -0.000001 0.000002 -1.000000
vn -0.000001 0.000002 -1.000000
vn 0.000001 0.000001 -1.000000
vn 0.000001 0.000001 -1.000000
vn 0.000001 0.000001 -1.000000
vn -0.000000 0.000000 1.000000
vn -0.000000 0.000000 1.000000
vn -0.000000 0.000000 1.000000
vn -0.000000 0.000000 1.000000
vn -0.000000 0.000000 1.000000
vn -0.000000 0.000000 1.000000
vn -0.000000 0.000000 1.000000
vn -0.000000 0.000000 1.000000
vn -0.000000 0.000000 1.000000
vn -0.000000 -0.000001 1.000000
vn -0.000000 -0.000001 1.000000
vn -0.000000 -0.000001 1.000000
vn 0.000000 0.000000 1.000000
vn 0.000000 0.000000 1.000000
vn 0.000000 0.000000 1.000000
vn -0.000000 0.000000 1.000000
vn -0.000000 0.000000 1.000000
vn -0.000000 0.000000 1.000000
vn -0.000000 0.000000 1.000000
vn -0.000000 0.000000 1.000000
vn -0.000000 0.000000 1.000000
vn -0.000000 0.000000 1.000000
vn -0.000000 0.000000 1.000000
vn -0.000000 0.000000 1.000000
vn -0.000000 -0.000002 1.000000
vn -0.000000 -0.000002 1.000000
vn -0.000000 -0.000002 1.000000
vn 0.000000 -0.000002 1.000000
vn 0.000000 -0.000002 1.000000
vn 0.000000 -0.000002 1.000000

g Material.011
f 3/1/1 1/2/2 2/3/3
f 6/4/4 4/5/5 5/6/6
f 9/7/7 7/8/8 8/9/9
f 12/10/10 10/11/11 11/12/12
f 15/13/13 13/14/14 14/15/15
f 18/16/16 16/17/17 17/18/18
f 21/19/19 19/20/20 20/21/21
f 24/22/22 22/23/23 23/24/24
f 27/25/25 25/26/26 26/27/27
f 30/28/28 28/29/29 29/30/30
f 33/31/31 31/32/32 32/33/33
f 36/34/34 34/35/35 35/36/36
f 39/37/37 37/38/38 38/39/39
f 42/40/40 40/41/41 41/42/42
f 45/43/43 43/44/44 44/45/45
f 48/46/46 46/47/47 47/48/48
f 51/49/49 49/50/50 50/51/51
f 54/52/52 52/53/53 53/54/54
f 57/55/55 55/56/56 56/57/57
f 60/58/58 58/59/59 59/60/60
f 63/61/61 61/62/62 62/63/63
f 66/64/64 64/65/65 65/66/66
f 69/67/67 67/68/68 68/69/69
f 72/70/70 70/71/71 71/72/72
f 75/73/73 73/74/74 74/75/75
f 78/76/76 76/77/77 77/78/78
f 81/79/79 79/80/80 80/81/81
f 84/82/82 82/83/83 83/84/84
f 87/85/85 85/86/86 86/87/87
f 90/88/88 88/89/89 89/90/90
f 93/91/91 91/92/92 92/93/93
f 96/94/94 94/95/95 95/96/96
f 99/97/97 97/98/98 98/99/99
f 102/100/100 100/101/101 101/102/102
f 105/103/103 103/104/104 104/105/105
f 106/106/106 103/107/107 105/108/108
f 109/109/109 107/110/110 108/111/111
f 112/112/112 110/113/113 111/114/114
f 115/115/115 113/116/116 114/117/117
f 118/118/118 116/119/119 117/120/120
f 121/121/121 119/122/122 120/123/123
f 124/124/124 122/125/125 123/126/126
f 127/127/127 125/128/128 126/129/129
f 130/130/130 128/131/131 129/132/132
f 133/133/133 131/134/134 132/135/135
f 136/136/136 134/137/137 135/138/138
f 139/139/139 137/140/140 138/141/141
f 142/142/142 140/143/143 141/144/144
f 145/145/145 143/146/146 144/147/147
f 148/148/148 146/149/149 147/150/150
f 151/151/151 149/152/152 150/153/153
f 152/154/154 149/155/155 151/156/156
f 155/157/157 153/158/158 154/159/159
f 156/160/160 153/161/161 155/162/162
f 159/163/163 157/164/164 158/165/165
f 162/166/166 160/167/167 161/168/168
f 165/169/169 163/170/170 164/171/171
f 168/172/172 166/173/173 167/174/174
f 169/175/175 166/176/176 168/177/177
f 172/178/178 170/179/179 171/180/180
f 175/181/181 173/182/182 174/183/183
f 176/184/184 173/185/185 175/186/186
f 179/187/187 177/188/188 178/189/189
f 182/190/190 180/191/191 181/192/192
f 185/193/193 183/194/194 184/195/195
f 188/196/196 186/197/197 187/198/198
f 191/199/199 189/200/200 190/201/201
f 194/202/202 192/203/203 193/204/204
f 197/205/205 195/206/206 196/207/207
f 200/208/208 198/209/209 199/210/210
f 203/211/211 201/212/212 202/213/213
f 206/214/214 204/215/215 205/216/216
f 209/217/217 207/218/218 208/219/219
f 212/220/220 210/221/221 211/222/222
f 215/223/223 213/224/224 214/225/225
f 218/226/226 216/227/227 217/228/228
f 221/229/229 219/230/230 220/231/231
f 224/232/232 222/233/233 223/234/234
f 227/235/235 225/236/236 226/237/237
f 230/238/238 228/239/239 229/240/240
f 233/241/241 231/242/242 232/243/243
f 236/244/244 234/245/245 235/246/246
f 239/247/247 237/248/248 238/249/249
f 240/250/250 237/251/251 239/252/252
f 243/253/253 241/254/254 242/255/255
f 244/256/256 241/257/257 243/258/258
f 247/259/259 245/260/260 246/261/261
f 248/262/262 245/263/263 247/264/264
f 251/265/265 249/266/266 250/267/267
f 252/268/268 249/269/269 251/270/270
f 255/271/271 253/272/272 254/273/273
f 256/274/274 253/275/275 255/276/276
f 259/277/277 257/278/278 258/279/279
f 262/280/280 260/281/281 261/282/282
f 265/283/283 263/284/284 264/285/285
f 266/286/286 263/287/287 265/288/288
f 269/289/289 267/290/290 268/291/291
f 270/292/292 267/293/293 269/294/294
f 273/295/295 271/296/296 272/297/297
f 276/298/298 274/299/299 275/300/300
f 279/301/301 277/302/302 278/303/303
f 282/304/304 280/305/305 281/306/306
f 285/307/307 283/308/308 284/309/309
f 288/310/310 286/311/311 287/312/312
f 291/313/313 289/314/314 290/315/315
f 294/316/316 292/317/317 293/318/318
f 295/319/319 292/320/320 294/321/321
f 298/322/322 296/323/323 297/324/324
f 301/325/325 299/326/326 300/327/327
f 302/328/328 299/329/329 301/330/330
f 305/331/331 303/332/332 304/333/333
f 306/334/334 303/335/335 305/336/336
f 309/337/337 307/338/338 308/339/339
f 310/340/340 307/341/341 309/342/342
f 313/343/343 311/344/344 312/345/345
f 314/346/346 311/347/347 313/348/348
f 317/349/349 315/350/350 316/351/351
f 318/352/352 315/353/353 317/354/354
f 321/355/355 319/356/356 320/357/357
f 322/358/358 319/359/359 321/360/360
f 325/361/361 323/362/362 324/363/363
f 326/364/364 323/365/365 325/366/366
f 329/367/367 327/368/368 328/369/369
f 330/370/370 327/371/371 329/372/372
f 333/373/373 331/374/374 332/375/375
f 336/376/376 334/377/377 335/378/378
f 339/379/379 337/380/380 338/381/381
f 342/382/382 340/383/383 341/384/384
f 345/385/385 343/386/386 344/387/387
f 348/388/388 346/389/389 347/390/390
f 351/391/391 349/392/392 350/393/393
f 354/394/394 352/395/395 353/396/396
f 357/397/397 355/398/398 356/399/399
f 360/400/400 358/401/401 359/402/402
f 361/403/403 358/404/404 360/405/405
f 364/406/406 362/407/407 363/408/408
f 365/409/409 362/410/410 364/411/411
f 368/412/412 366/413/413 367/414/414
f 369/415/415 366/416/416 368/417/417
f 372/418/418 370/419/419 371/420/420
f 373/421/421 370/422/422 372/423/423
f 376/424/424 374/425/425 375/426/426
f 377/427/427 374/428/428 376/429/429
f 380/430/430 378/431/431 379/432/432
f 381/433/433 378/434/434 380/435/435
f 384/436/436 382/437/437 383/438/438
f 385/439/439 382/440/440 384/441/441
f 388/442/442 386/443/443 387/444/444
f 389/445/445 386/446/446 388/447/447
f 392/448/448 390/449/449 391/450/450
f 393/451/451 390/452/452 392/453/453
f 396/454/454 394/455/455 395/456/456
f 397/457/457 394/458/458 396/459/459
f 400/460/460 398/461/461 399/462/462
f 401/463/463 398/464/464 400/465/465
f 404/466/466 402/467/467 403/468/468
f 405/469/469 402/470/470 404/471/471
f 408/472/472 406/473/473 407/474/474
f 409/475/475 406/476/476 408/477/477
f 412/478/478 410/479/479 411/480/480
f 413/481/481 410/482/482 412/483/483
f 416/484/484 414/485/485 415/486/486
f 417/487/487 414/488/488 416/489/489
f 420/490/490 418/491/491 419/492/492
f 421/493/493 418/494/494 420/495/495
f 424/496/496 422/497/497 423/498/498
f 425/499/499 422/500/500 424/501/501
f 428/502/502 426/503/503 427/504/504
f 429/505/505 426/506/506 428/507/507
f 432/508/508 430/509/509 431/510/510
f 433/511/511 430/512/512 432/513/513
f 436/514/514 434/515/515 435/516/516
f 437/517/517 434/518/518 436/519/519
f 440/520/520 438/521/521 439/522/522
f 441/523/523 438/524/524 440/525/525
f 444/526/526 442/527/527 443/528/528
f 445/529/529 442/530/530 444/531/531
f 448/532/532 446/533/533 447/534/534
f 449/535/535 446/536/536 448/537/537
f 452/538/538 450/539/539 451/540/540
f 453/541/541 450/542/542 452/543/543
f 456/544/544 454/545/545 455/546/546
f 459/547/547 457/548/548 458/549/549
f 462/550/550 460/551/551 461/552/552
f 465/553/553 463/554/554 464/555/555
f 468/556/556 466/557/557 467/558/558
f 469/559/559 466/560/560 468/561/561
f 472/562/562 470/563/563 471/564/564
f 473/565/565 470/566/566 472/567/567
f 476/568/568 474/569/569 475/570/570
f 477/571/571 474/572/572 476/573/573
f 480/574/574 478/575/575 479/576/576
f 481/577/577 478/578/578 480/579/579
f 484/580/580 482/581/581 483/582/582
f 485/583/583 482/584/584 484/585/585
f 488/586/586 486/587/587 487/588/588
f 489/589/589 486/590/590 488/591/591
f 492/592/592 490/593/593 491/594/594
f 493/595/595 490/596/596 492/597/597
f 496/598/598 494/599/599 495/600/600
f 497/601/601 494/602/602 496/603/603
f 500/604/604 498/605/605 499/606/606
f 501/607/607 498/608/608 500/609/609
f 504/610/610 502/611/611 503/612/612
f 505/613/613 502/614/614 504/615/615
f 508/616/616 506/617/617 507/618/618
f 509/619/619 506/620/620 508/621/621
f 512/622/622 510/623/623 511/624/624
f 513/625/625 510/626/626 512/627/627
f 516/628/628 514/629/629 515/630/630
f 517/631/631 514/632/632 516/633/633
f 520/634/634 518/635/635 519/636/636
f 521/637/637 518/638/638 520/639/639
f 524/640/640 522/641/641 523/642/642
f 525/643/643 522/644/644 524/645/645
f 528/646/646 526/647/647 527/648/648
f 529/649/649 526/650/650 528/651/651
f 532/652/652 530/653/653 531/654/654
f 535/655/655 533/656/656 534/657/657
f 538/658/658 536/659/659 537/660/660
f 541/661/661 539/662/662 540/663/663
f 544/664/664 542/665/665 543/666/666
f 547/667/667 545/668/668 546/669/669
f 550/670/670 548/671/671 549/672/672
f 553/673/673 551/674/674 552/675/675
f 556/676/676 554/677/677 555/678/678
f 559/679/679 557/680/680 558/681/681
f 562/682/682 560/683/683 561/684/684
f 565/685/685 563/686/686 564/687/687
f 568/688/688 566/689/689 567/690/690
f 571/691/691 569/692/692 570/693/693
f 574/694/694 572/695/695 573/696/696
f 577/697/697 575/698/698 576/699/699
f 580/700/700 578/701/701 579/702/702
f 583/703/703 581/704/704 582/705/705
f 586/706/706 584/707/707 585/708/708
f 589/709/709 587/710/710 588/711/711
f 592/712/712 590/713/713 591/714/714
f 595/715/715 593/716/716 594/717/717
f 598/718/718 596/719/719 597/720/720
f 601/721/721 599/722/722 600/723/723
f 604/724/724 602/725/725 603/726/726
f 607/727/727 605/728/728 606/729/729
f 610/730/730 608/731/731 609/732/732
f 613/733/733 611/734/734 612/735/735
f 616/736/736 614/737/737 615/738/738
f 619/739/739 617/740/740 618/741/741

