# Converted from B3D for Luanti (With Correct Normals)
# Object Name: multidecor_kitchen_wall_cabinet_three_shelves

v 1.000000 -1.000000 -0.850000
v 1.000000 1.000000 -0.850000
v 1.000000 1.000000 1.000000
v 1.000000 -1.000000 1.000000
v 1.000000 -1.000000 1.000000
v 1.000000 1.000000 1.000000
v -1.000000 1.000000 1.000000
v -1.000000 -1.000000 1.000000
v -1.000000 -1.000000 1.000000
v -1.000000 -1.000000 -0.850000
v 1.000000 -1.000000 -0.850000
v 1.000000 -1.000000 1.000000
v 0.850000 0.370000 -0.850000
v 0.850000 0.850000 -0.850000
v 0.850000 0.850000 0.900000
v 0.850000 0.370000 0.900000
v -1.000000 -1.000000 1.000000
v -1.000000 1.000000 1.000000
v -1.000000 1.000000 -0.850000
v -1.000000 -1.000000 -0.850000
v 1.000000 1.000000 -0.850000
v -1.000000 1.000000 -0.850000
v -1.000000 1.000000 1.000000
v 1.000000 1.000000 1.000000
v -0.850000 0.370000 0.900000
v -0.850000 0.850000 0.900000
v -0.850000 0.850000 -0.850000
v -0.850000 0.370000 -0.850000
v 0.850000 -0.850000 0.900000
v -0.850000 -0.850000 0.900000
v -0.850000 -0.850000 -0.850000
v 0.850000 -0.850000 -0.850000
v 0.850000 0.370000 0.900000
v 0.850000 0.850000 0.900000
v -0.850000 0.850000 0.900000
v -0.850000 0.370000 0.900000
v -1.000000 -1.000000 -0.850000
v -0.850000 -0.850000 -0.850000
v 0.850000 -0.850000 -0.850000
v 1.000000 -1.000000 -0.850000
v 0.850000 -0.850000 0.900000
v 0.850000 -0.340000 0.900000
v -0.850000 -0.340000 0.900000
v -0.850000 -0.850000 0.900000
v 0.850000 -0.340000 0.900000
v 0.850000 -0.240000 0.900000
v -0.850000 -0.240000 0.900000
v -0.850000 -0.340000 0.900000
v -0.850000 -0.850000 0.900000
v -0.850000 -0.340000 0.900000
v -0.850000 -0.340000 -0.850000
v -0.850000 -0.850000 -0.850000
v -0.850000 -0.340000 0.900000
v -0.850000 -0.240000 0.900000
v -0.850000 -0.240000 -0.850000
v -0.850000 -0.340000 -0.850000
v 0.850000 -0.850000 -0.850000
v 0.850000 -0.340000 -0.850000
v 0.850000 -0.340000 0.900000
v 0.850000 -0.850000 0.900000
v 0.850000 -0.340000 -0.850000
v 0.850000 -0.240000 -0.850000
v 0.850000 -0.240000 0.900000
v 0.850000 -0.340000 0.900000
v 0.850000 -0.240000 0.900000
v 0.850000 -0.240000 -0.850000
v -0.850000 -0.240000 -0.850000
v -0.850000 -0.240000 0.900000
v 0.850000 -0.340000 -0.850000
v 0.850000 -0.340000 0.900000
v -0.850000 -0.340000 0.900000
v -0.850000 -0.340000 -0.850000
v 0.850000 -0.240000 -0.850000
v 0.850000 -0.340000 -0.850000
v -0.850000 -0.340000 -0.850000
v -0.850000 -0.240000 -0.850000
v 1.000000 -1.000000 -0.850000
v 0.850000 -0.340000 -0.850000
v 0.850000 -0.240000 -0.850000
v -0.850000 0.370000 -0.850000
v -0.850000 0.270000 -0.850000
v -1.000000 1.000000 -0.850000
v 0.850000 0.850000 0.900000
v 0.850000 0.850000 -0.850000
v -0.850000 0.850000 -0.850000
v -0.850000 0.850000 0.900000
v 0.850000 0.850000 -0.850000
v -0.850000 0.850000 -0.850000
v -1.000000 1.000000 -0.850000
v 1.000000 1.000000 -0.850000
v 0.850000 -0.240000 0.900000
v 0.850000 0.270000 0.900000
v -0.850000 0.270000 0.900000
v -0.850000 -0.240000 0.900000
v -0.850000 -0.240000 0.900000
v -0.850000 0.270000 0.900000
v -0.850000 0.270000 -0.850000
v -0.850000 -0.240000 -0.850000
v 0.850000 -0.240000 -0.850000
v 0.850000 0.270000 -0.850000
v 0.850000 0.270000 0.900000
v 0.850000 -0.240000 0.900000
v 0.850000 0.850000 -0.850000
v 1.000000 1.000000 -0.850000
v 0.850000 0.370000 -0.850000
v 1.000000 1.000000 -0.850000
v 1.000000 -1.000000 -0.850000
v 0.850000 0.270000 -0.850000
v 0.850000 0.370000 -0.850000
v 1.000000 1.000000 -0.850000
v 0.850000 0.270000 -0.850000
v 1.000000 -1.000000 -0.850000
v 0.850000 -0.850000 -0.850000
v 0.850000 -0.340000 -0.850000
v 0.850000 -0.240000 -0.850000
v 0.850000 0.270000 -0.850000
v 1.000000 -1.000000 -0.850000
v -0.850000 0.270000 -0.850000
v -0.850000 -0.240000 -0.850000
v -1.000000 -1.000000 -0.850000
v -0.850000 -0.240000 -0.850000
v -0.850000 -0.340000 -0.850000
v -1.000000 -1.000000 -0.850000
v -0.850000 -0.340000 -0.850000
v -0.850000 -0.850000 -0.850000
v -1.000000 -1.000000 -0.850000
v -1.000000 -1.000000 -0.850000
v -1.000000 1.000000 -0.850000
v -0.850000 0.270000 -0.850000
v -1.000000 1.000000 -0.850000
v -0.850000 0.850000 -0.850000
v -0.850000 0.370000 -0.850000
v 0.850000 0.370000 0.900000
v 0.850000 0.370000 -0.850000
v -0.850000 0.370000 -0.850000
v -0.850000 0.370000 0.900000
v 0.850000 0.270000 0.900000
v -0.850000 0.270000 0.900000
v -0.850000 0.270000 -0.850000
v 0.850000 0.270000 -0.850000
v -0.850000 0.270000 -0.850000
v -0.850000 0.370000 -0.850000
v 0.850000 0.370000 -0.850000
v 0.850000 0.270000 -0.850000

vt 0.324814 0.747107
vt 0.583838 0.986705
vt 0.324814 0.986704
vt 0.583838 0.747107
vt 0.583838 0.986705
vt 0.324814 0.747107
vt 1.012606 0.259369
vt 0.753582 0.000345
vt 1.012606 0.000345
vt 0.753582 0.259369
vt 0.753582 0.000345
vt 1.012606 0.259369
vt 0.596789 0.285960
vt 0.337765 0.525558
vt 0.337765 0.285960
vt 0.596789 0.525558
vt 0.337765 0.525558
vt 0.596789 0.285960
vt 0.343552 0.285271
vt 0.270676 0.511917
vt 0.343552 0.511917
vt 0.275475 0.288260
vt 0.270676 0.511917
vt 0.343552 0.285271
vt 0.837076 0.273009
vt 0.597479 0.532033
vt 0.597479 0.273009
vt 0.837076 0.532033
vt 0.597479 0.532033
vt 0.837076 0.273009
vt 0.239942 0.512607
vt 0.000345 0.771631
vt 0.000345 0.512607
vt 0.239942 0.771631
vt 0.000345 0.771631
vt 0.239942 0.512607
vt -0.006131 0.511917
vt 0.061946 0.288260
vt -0.006131 0.285271
vt 0.066745 0.511917
vt 0.061946 0.288260
vt -0.006131 0.511917
vt 0.337765 0.000345
vt 0.557936 0.226991
vt 0.337765 0.226991
vt 0.557936 0.000345
vt 0.557936 0.226991
vt 0.337765 0.000345
vt 0.058625 0.226991
vt 0.275475 0.288260
vt 0.278796 0.226991
vt 0.061946 0.288260
vt 0.275475 0.288260
vt 0.058625 0.226991
vt 0.577363 0.733466
vt 0.337766 0.772320
vt 0.357192 0.733467
vt 0.596790 0.772320
vt 0.337766 0.772320
vt 0.577363 0.733466
vt 0.337766 0.276529
vt 0.557936 0.226991
vt 0.557937 0.276529
vt 0.337765 0.226991
vt 0.557936 0.226991
vt 0.337766 0.276529
vt 0.901917 0.512606
vt 0.914865 0.732774
vt 0.901914 0.732774
vt 0.914869 0.512606
vt 0.914865 0.732774
vt 0.901917 0.512606
vt 0.000345 0.821858
vt 0.226991 0.772320
vt 0.226991 0.821859
vt 0.000345 0.772320
vt 0.226991 0.772320
vt 0.000345 0.821858
vt 0.901917 0.285961
vt 0.914869 0.512606
vt 0.901917 0.512606
vt 0.914868 0.285961
vt 0.914869 0.512606
vt 0.901917 0.285961
vt 0.249373 0.512607
vt 0.298912 0.739253
vt 0.249374 0.739253
vt 0.298912 0.512607
vt 0.298912 0.739253
vt 0.249373 0.512607
vt 0.901914 0.732774
vt 0.914869 0.959425
vt 0.901917 0.959425
vt 0.914865 0.732774
vt 0.914869 0.959425
vt 0.901914 0.732774
vt 0.558625 0.747107
vt 0.785271 0.967278
vt 0.558625 0.967278
vt 0.785271 0.747107
vt 0.785271 0.967278
vt 0.558625 0.747107
vt 0.597479 0.526247
vt 0.824125 0.746417
vt 0.597479 0.746417
vt 0.824125 0.526247
vt 0.824125 0.746417
vt 0.597479 0.526247
vt 0.301585 0.512606
vt 0.314536 0.732776
vt 0.301585 0.732776
vt 0.314536 0.512606
vt 0.314536 0.732776
vt 0.301585 0.512606
vt 0.577363 0.673891
vt 0.596790 0.772320
vt 0.577362 0.733791
vt 0.337765 0.513296
vt 0.357192 0.594889
vt 0.357192 0.607840
vt 0.058625 0.000345
vt 0.278796 0.226991
vt 0.278796 0.000345
vt 0.058625 0.226991
vt 0.278796 0.226991
vt 0.058625 0.000345
vt 0.325503 0.512607
vt 0.306077 0.752203
vt 0.306077 0.532033
vt 0.325503 0.771630
vt 0.306077 0.752203
vt 0.325503 0.512607
vt 0.558625 0.054740
vt 0.778795 -0.011311
vt 0.778796 0.054740
vt 0.558625 -0.011311
vt 0.778795 -0.011311
vt 0.558625 0.054740
vt 0.879209 0.752893
vt 0.813158 0.526248
vt 0.879209 0.526247
vt 0.813158 0.752894
vt 0.813158 0.526248
vt 0.879209 0.752893
vt 0.892160 0.512606
vt 0.826109 0.285960
vt 0.892160 0.285960
vt 0.826109 0.512606
vt 0.826109 0.285960
vt 0.892160 0.512606
vt 0.577363 0.594889
vt 0.577363 0.532724
vt 0.596790 0.513297
vt 0.577364 0.607840
vt 0.596790 0.513297
vt 0.596790 0.772320
vt 0.577364 0.607840
vt 0.577363 0.594889
vt 0.596790 0.513297
vt 0.577362 0.733791
vt 0.596790 0.772320
vt 0.577363 0.733466
vt 0.596790 0.772320
vt 0.577363 0.673891
vt 0.577364 0.607840
vt 0.337766 0.772320
vt 0.357192 0.607840
vt 0.357192 0.673891
vt 0.337766 0.772320
vt 0.357192 0.673891
vt 0.357193 0.733789
vt 0.337766 0.772320
vt 0.357193 0.733789
vt 0.357192 0.733467
vt 0.357192 0.607840
vt 0.337766 0.772320
vt 0.337765 0.513296
vt 0.357192 0.594889
vt 0.337765 0.513296
vt 0.357192 0.532723
vt 0.066745 0.511917
vt 0.275475 0.288260
vt 0.270676 0.511917
vt 0.061946 0.288260
vt 0.275475 0.288260
vt 0.066745 0.511917
vt 0.558625 0.278796
vt 0.778796 0.054740
vt 0.558625 0.054740
vt 0.778795 0.278796
vt 0.778796 0.054740
vt 0.558625 0.278796
vt 0.577363 0.594889
vt 0.357192 0.607840
vt 0.357192 0.594889
vt 0.577364 0.607840
vt 0.357192 0.607840
vt 0.577363 0.594889

vn 1.000000 0.000000 0.000000
vn 1.000000 0.000000 0.000000
vn 1.000000 0.000000 0.000000
vn 1.000000 0.000000 0.000000
vn 1.000000 0.000000 0.000000
vn 1.000000 0.000000 0.000000
vn -0.000000 0.000000 1.000000
vn -0.000000 0.000000 1.000000
vn -0.000000 0.000000 1.000000
vn -0.000000 0.000000 1.000000
vn -0.000000 0.000000 1.000000
vn -0.000000 0.000000 1.000000
vn -0.000000 -1.000000 0.000000
vn -0.000000 -1.000000 0.000000
vn -0.000000 -1.000000 0.000000
vn -0.000000 -1.000000 0.000000
vn -0.000000 -1.000000 0.000000
vn -0.000000 -1.000000 0.000000
vn 1.000000 0.000000 0.000000
vn 1.000000 0.000000 0.000000
vn 1.000000 0.000000 0.000000
vn 1.000000 0.000000 0.000000
vn 1.000000 0.000000 0.000000
vn 1.000000 0.000000 0.000000
vn -1.000000 0.000000 0.000000
vn -1.000000 0.000000 0.000000
vn -1.000000 0.000000 0.000000
vn -1.000000 0.000000 -0.000000
vn -1.000000 0.000000 -0.000000
vn -1.000000 0.000000 -0.000000
vn -0.000000 1.000000 0.000000
vn -0.000000 1.000000 0.000000
vn -0.000000 1.000000 0.000000
vn -0.000000 1.000000 0.000000
vn -0.000000 1.000000 0.000000
vn -0.000000 1.000000 0.000000
vn -1.000000 0.000000 -0.000000
vn -1.000000 0.000000 -0.000000
vn -1.000000 0.000000 -0.000000
vn -1.000000 0.000000 -0.000000
vn -1.000000 0.000000 -0.000000
vn -1.000000 0.000000 -0.000000
vn -0.000000 -1.000000 0.000000
vn -0.000000 -1.000000 0.000000
vn -0.000000 -1.000000 0.000000
vn -0.000000 -1.000000 0.000000
vn -0.000000 -1.000000 0.000000
vn -0.000000 -1.000000 0.000000
vn -0.000000 0.000000 1.000000
vn -0.000000 0.000000 1.000000
vn -0.000000 0.000000 1.000000
vn -0.000000 0.000000 1.000000
vn -0.000000 0.000000 1.000000
vn -0.000000 0.000000 1.000000
vn 0.000000 0.000000 -1.000000
vn 0.000000 0.000000 -1.000000
vn 0.000000 0.000000 -1.000000
vn 0.000000 0.000001 -1.000000
vn 0.000000 0.000001 -1.000000
vn 0.000000 0.000001 -1.000000
vn -0.000000 0.000000 1.000000
vn -0.000000 0.000000 1.000000
vn -0.000000 0.000000 1.000000
vn -0.000000 0.000000 1.000000
vn -0.000000 0.000000 1.000000
vn -0.000000 0.000000 1.000000
vn -0.000000 0.000000 1.000000
vn -0.000000 0.000000 1.000000
vn -0.000000 0.000000 1.000000
vn -0.000000 0.000000 1.000000
vn -0.000000 0.000000 1.000000
vn -0.000000 0.000000 1.000000
vn -1.000000 0.000000 -0.000000
vn -1.000000 0.000000 -0.000000
vn -1.000000 0.000000 -0.000000
vn -1.000000 0.000000 -0.000000
vn -1.000000 0.000000 -0.000000
vn -1.000000 0.000000 -0.000000
vn -1.000000 0.000000 0.000000
vn -1.000000 0.000000 0.000000
vn -1.000000 0.000000 0.000000
vn -1.000000 0.000000 -0.000000
vn -1.000000 0.000000 -0.000000
vn -1.000000 0.000000 -0.000000
vn 1.000000 0.000000 0.000000
vn 1.000000 0.000000 0.000000
vn 1.000000 0.000000 0.000000
vn 1.000000 0.000000 0.000000
vn 1.000000 0.000000 0.000000
vn 1.000000 0.000000 0.000000
vn 1.000000 0.000000 0.000000
vn 1.000000 0.000000 0.000000
vn 1.000000 0.000000 0.000000
vn 1.000000 0.000000 0.000000
vn 1.000000 0.000000 0.000000
vn 1.000000 0.000000 0.000000
vn -0.000000 1.000000 0.000000
vn -0.000000 1.000000 0.000000
vn -0.000000 1.000000 0.000000
vn 0.000000 1.000000 -0.000000
vn 0.000000 1.000000 -0.000000
vn 0.000000 1.000000 -0.000000
vn -0.000000 -1.000000 -0.000000
vn -0.000000 -1.000000 -0.000000
vn -0.000000 -1.000000 -0.000000
vn 0.000000 -1.000000 0.000000
vn 0.000000 -1.000000 0.000000
vn 0.000000 -1.000000 0.000000
vn 0.000000 0.000000 -1.000000
vn 0.000000 0.000000 -1.000000
vn 0.000000 0.000000 -1.000000
vn 0.000000 0.000000 -1.000000
vn 0.000000 0.000000 -1.000000
vn 0.000000 0.000000 -1.000000
vn -0.000000 0.000000 -1.000000
vn -0.000000 0.000000 -1.000000
vn -0.000000 0.000000 -1.000000
vn -0.000000 0.000000 -1.000000
vn -0.000000 0.000000 -1.000000
vn -0.000000 0.000000 -1.000000
vn -0.000000 1.000000 0.000000
vn -0.000000 1.000000 0.000000
vn -0.000000 1.000000 0.000000
vn -0.000000 1.000000 0.000000
vn -0.000000 1.000000 0.000000
vn -0.000000 1.000000 0.000000
vn 0.000000 0.000000 -1.000000
vn 0.000000 0.000000 -1.000000
vn 0.000000 0.000000 -1.000000
vn 0.000000 -0.000001 -1.000000
vn 0.000000 -0.000001 -1.000000
vn 0.000000 -0.000001 -1.000000
vn -0.000000 0.000000 1.000000
vn -0.000000 0.000000 1.000000
vn -0.000000 0.000000 1.000000
vn -0.000000 0.000000 1.000000
vn -0.000000 0.000000 1.000000
vn -0.000000 0.000000 1.000000
vn -1.000000 0.000000 -0.000000
vn -1.000000 0.000000 -0.000000
vn -1.000000 0.000000 -0.000000
vn -1.000000 0.000000 -0.000000
vn -1.000000 0.000000 -0.000000
vn -1.000000 0.000000 -0.000000
vn 1.000000 0.000000 0.000000
vn 1.000000 0.000000 0.000000
vn 1.000000 0.000000 0.000000
vn 1.000000 0.000000 0.000000
vn 1.000000 0.000000 0.000000
vn 1.000000 0.000000 0.000000
vn -0.000000 0.000000 -1.000000
vn -0.000000 0.000000 -1.000000
vn -0.000000 0.000000 -1.000000
vn -0.000000 0.000000 -1.000000
vn -0.000000 0.000000 -1.000000
vn -0.000000 0.000000 -1.000000
vn -0.000000 0.000000 -1.000000
vn -0.000000 0.000000 -1.000000
vn -0.000000 0.000000 -1.000000
vn -0.000000 0.000000 -1.000000
vn -0.000000 0.000000 -1.000000
vn -0.000000 0.000000 -1.000000
vn -0.000000 0.000000 -1.000000
vn -0.000000 0.000000 -1.000000
vn -0.000000 0.000000 -1.000000
vn -0.000000 0.000000 -1.000000
vn -0.000000 0.000000 -1.000000
vn -0.000000 0.000000 -1.000000
vn -0.000000 0.000000 -1.000000
vn -0.000000 0.000000 -1.000000
vn -0.000000 0.000000 -1.000000
vn -0.000000 0.000000 -1.000000
vn -0.000000 0.000000 -1.000000
vn -0.000000 0.000000 -1.000000
vn -0.000000 0.000000 -1.000000
vn -0.000000 0.000000 -1.000000
vn -0.000000 0.000000 -1.000000
vn -0.000000 0.000000 -1.000000
vn -0.000000 0.000000 -1.000000
vn -0.000000 0.000000 -1.000000
vn -0.000000 1.000000 0.000000
vn -0.000000 1.000000 0.000000
vn -0.000000 1.000000 0.000000
vn 0.000000 1.000000 0.000000
vn 0.000000 1.000000 0.000000
vn 0.000000 1.000000 0.000000
vn 0.000000 -1.000000 0.000000
vn 0.000000 -1.000000 0.000000
vn 0.000000 -1.000000 0.000000
vn -0.000000 -1.000000 -0.000000
vn -0.000000 -1.000000 -0.000000
vn -0.000000 -1.000000 -0.000000
vn 0.000000 0.000000 -1.000000
vn 0.000000 0.000000 -1.000000
vn 0.000000 0.000000 -1.000000
vn 0.000000 0.000000 -1.000000
vn 0.000000 0.000000 -1.000000
vn 0.000000 0.000000 -1.000000

g Material.003
f 3/1/1 1/2/2 2/3/3
f 4/4/4 1/5/5 3/6/6
f 7/7/7 5/8/8 6/9/9
f 8/10/10 5/11/11 7/12/12
f 11/13/13 9/14/14 10/15/15
f 12/16/16 9/17/17 11/18/18
f 15/19/19 13/20/20 14/21/21
f 16/22/22 13/23/23 15/24/24
f 19/25/25 17/26/26 18/27/27
f 20/28/28 17/29/29 19/30/30
f 23/31/31 21/32/32 22/33/33
f 24/34/34 21/35/35 23/36/36
f 27/37/37 25/38/38 26/39/39
f 28/40/40 25/41/41 27/42/42
f 31/43/43 29/44/44 30/45/45
f 32/46/46 29/47/47 31/48/48
f 35/49/49 33/50/50 34/51/51
f 36/52/52 33/53/53 35/54/54
f 39/55/55 37/56/56 38/57/57
f 40/58/58 37/59/59 39/60/60
f 43/61/61 41/62/62 42/63/63
f 44/64/64 41/65/65 43/66/66
f 47/67/67 45/68/68 46/69/69
f 48/70/70 45/71/71 47/72/72
f 51/73/73 49/74/74 50/75/75
f 52/76/76 49/77/77 51/78/78
f 55/79/79 53/80/80 54/81/81
f 56/82/82 53/83/83 55/84/84
f 59/85/85 57/86/86 58/87/87
f 60/88/88 57/89/89 59/90/90
f 63/91/91 61/92/92 62/93/93
f 64/94/94 61/95/95 63/96/96
f 67/97/97 65/98/98 66/99/99
f 68/100/100 65/101/101 67/102/102
f 71/103/103 69/104/104 70/105/105
f 72/106/106 69/107/107 71/108/108
f 75/109/109 73/110/110 74/111/111
f 76/112/112 73/113/113 75/114/114
f 79/115/115 77/116/116 78/117/117
f 82/118/118 80/119/119 81/120/120
f 85/121/121 83/122/122 84/123/123
f 86/124/124 83/125/125 85/126/126
f 89/127/127 87/128/128 88/129/129
f 90/130/130 87/131/131 89/132/132
f 93/133/133 91/134/134 92/135/135
f 94/136/136 91/137/137 93/138/138
f 97/139/139 95/140/140 96/141/141
f 98/142/142 95/143/143 97/144/144
f 101/145/145 99/146/146 100/147/147
f 102/148/148 99/149/149 101/150/150
f 105/151/151 103/152/152 104/153/153
f 108/154/154 106/155/155 107/156/156
f 111/157/157 109/158/158 110/159/159
f 114/160/160 112/161/161 113/162/162
f 117/163/163 115/164/164 116/165/165
f 120/166/166 118/167/167 119/168/168
f 123/169/169 121/170/170 122/171/171
f 126/172/172 124/173/173 125/174/174
f 129/175/175 127/176/176 128/177/177
f 132/178/178 130/179/179 131/180/180
f 135/181/181 133/182/182 134/183/183
f 136/184/184 133/185/185 135/186/186
f 139/187/187 137/188/188 138/189/189
f 140/190/190 137/191/191 139/192/192
f 143/193/193 141/194/194 142/195/195
f 144/196/196 141/197/197 143/198/198

