# Converted from B3D for Luanti (With Correct Normals)
# Object Name: multidecor_underwear_tank_cover

v -0.680000 0.150000 1.110000
v -0.516667 0.150000 1.200000
v -0.516667 0.150000 0.925000
v -0.800000 0.150000 0.925000
v -0.680000 0.150000 1.110000
v -0.516667 0.150000 0.925000
v 0.516667 0.150000 1.200000
v 0.680000 0.150000 1.110000
v 0.800000 0.150000 0.925000
v 0.516667 0.150000 0.925000
v 0.516667 0.150000 1.200000
v 0.800000 0.150000 0.925000
v -0.516667 0.150000 1.200000
v 0.516667 0.150000 1.200000
v 0.516667 0.150000 0.925000
v -0.516667 0.150000 0.925000
v -0.516667 0.150000 1.200000
v 0.516667 0.150000 0.925000
v -0.516667 0.150000 0.275000
v 0.516667 0.150000 0.275000
v 0.516667 0.150000 -0.000000
v -0.516667 0.150000 0.000000
v -0.516667 0.150000 0.275000
v 0.516667 0.150000 -0.000000
v -0.516667 0.150000 0.925000
v 0.516667 0.150000 0.925000
v 0.516667 0.150000 0.275000
v -0.516667 0.150000 0.275000
v -0.516667 0.150000 0.925000
v 0.516667 0.150000 0.275000
v 0.516667 0.150000 0.275000
v 0.800000 0.150000 0.275000
v 0.680000 0.150000 0.090000
v 0.516667 0.150000 -0.000000
v 0.516667 0.150000 0.275000
v 0.680000 0.150000 0.090000
v 0.516667 0.150000 0.925000
v 0.800000 0.150000 0.925000
v 0.800000 0.150000 0.275000
v 0.516667 0.150000 0.275000
v 0.516667 0.150000 0.925000
v 0.800000 0.150000 0.275000
v -0.800000 0.150000 0.275000
v -0.516667 0.150000 0.275000
v -0.516667 0.150000 0.000000
v -0.680000 0.150000 0.090000
v -0.800000 0.150000 0.275000
v -0.516667 0.150000 0.000000
v -0.800000 0.150000 0.925000
v -0.516667 0.150000 0.925000
v -0.516667 0.150000 0.275000
v -0.800000 0.150000 0.275000
v -0.800000 0.150000 0.925000
v -0.516667 0.150000 0.275000
v 0.800000 0.000000 0.925000
v 0.516667 0.000000 1.200000
v 0.516667 0.000000 -0.000000
v -0.800000 0.000000 0.925000
v -0.516667 0.000000 1.200000
v -0.680000 0.000000 1.110000
v -0.800000 0.000000 0.275000
v -0.516667 0.000000 1.200000
v -0.800000 0.000000 0.925000
v -0.680000 0.000000 0.090000
v -0.516667 0.000000 0.000000
v -0.800000 0.000000 0.275000
v 0.516667 0.000000 -0.000000
v 0.516667 0.000000 1.200000
v -0.516667 0.000000 0.000000
v 0.680000 0.000000 0.090000
v 0.800000 0.000000 0.275000
v 0.516667 0.000000 -0.000000
v 0.516667 0.000000 -0.000000
v 0.800000 0.000000 0.275000
v 0.800000 0.000000 0.925000
v 0.680000 0.000000 1.110000
v 0.516667 0.000000 1.200000
v 0.800000 0.000000 0.925000
v -0.516667 0.000000 1.200000
v -0.516667 0.000000 0.000000
v 0.516667 0.000000 1.200000
v -0.516667 0.000000 1.200000
v -0.800000 0.000000 0.275000
v -0.516667 0.000000 0.000000
v -0.680000 0.150000 1.110000
v -0.680000 0.000000 1.110000
v -0.516667 0.000000 1.200000
v -0.516667 0.150000 1.200000
v -0.680000 0.150000 1.110000
v -0.516667 0.000000 1.200000
v -0.680000 0.150000 0.090000
v -0.680000 0.000000 0.090000
v -0.800000 0.000000 0.275000
v -0.800000 0.150000 0.275000
v -0.680000 0.150000 0.090000
v -0.800000 0.000000 0.275000
v 0.680000 0.150000 1.110000
v 0.680000 0.000000 1.110000
v 0.800000 0.000000 0.925000
v 0.800000 0.150000 0.925000
v 0.680000 0.150000 1.110000
v 0.800000 0.000000 0.925000
v 0.680000 0.150000 0.090000
v 0.680000 0.000000 0.090000
v 0.516667 0.000000 -0.000000
v 0.516667 0.150000 -0.000000
v 0.680000 0.150000 0.090000
v 0.516667 0.000000 -0.000000
v -0.516667 0.150000 0.000000
v -0.516667 0.000000 0.000000
v -0.680000 0.000000 0.090000
v -0.680000 0.150000 0.090000
v -0.516667 0.150000 0.000000
v -0.680000 0.000000 0.090000
v 0.516667 0.150000 -0.000000
v 0.516667 0.000000 -0.000000
v -0.516667 0.000000 0.000000
v -0.516667 0.150000 0.000000
v 0.516667 0.150000 -0.000000
v -0.516667 0.000000 0.000000
v 0.516667 0.150000 1.200000
v 0.516667 0.000000 1.200000
v 0.680000 0.000000 1.110000
v 0.680000 0.150000 1.110000
v 0.516667 0.150000 1.200000
v 0.680000 0.000000 1.110000
v -0.516667 0.150000 1.200000
v -0.516667 0.000000 1.200000
v 0.516667 0.000000 1.200000
v 0.516667 0.150000 1.200000
v -0.516667 0.150000 1.200000
v 0.516667 0.000000 1.200000
v 0.800000 0.150000 0.275000
v 0.800000 0.000000 0.275000
v 0.680000 0.000000 0.090000
v 0.680000 0.150000 0.090000
v 0.800000 0.150000 0.275000
v 0.680000 0.000000 0.090000
v 0.800000 0.150000 0.925000
v 0.800000 0.000000 0.925000
v 0.800000 0.000000 0.275000
v 0.800000 0.150000 0.275000
v 0.800000 0.150000 0.925000
v 0.800000 0.000000 0.275000
v -0.800000 0.150000 0.925000
v -0.800000 0.000000 0.925000
v -0.680000 0.000000 1.110000
v -0.680000 0.150000 1.110000
v -0.800000 0.150000 0.925000
v -0.680000 0.000000 1.110000
v -0.800000 0.150000 0.275000
v -0.800000 0.000000 0.275000
v -0.800000 0.000000 0.925000
v -0.800000 0.150000 0.925000
v -0.800000 0.150000 0.275000
v -0.800000 0.000000 0.925000
v -0.400000 0.300000 0.550000
v -0.400000 0.150000 0.550000
v -0.400000 0.150000 0.650000
v -0.400000 0.300000 0.650000
v -0.400000 0.300000 0.550000
v -0.400000 0.150000 0.650000
v -0.300000 0.300000 0.550000
v -0.300000 0.150000 0.550000
v -0.400000 0.150000 0.550000
v -0.400000 0.300000 0.550000
v -0.300000 0.300000 0.550000
v -0.400000 0.150000 0.550000
v -0.300000 0.300000 0.650000
v -0.300000 0.150000 0.650000
v -0.300000 0.150000 0.550000
v -0.300000 0.300000 0.550000
v -0.300000 0.300000 0.650000
v -0.300000 0.150000 0.550000
v -0.400000 0.300000 0.650000
v -0.400000 0.150000 0.650000
v -0.300000 0.150000 0.650000
v -0.300000 0.300000 0.650000
v -0.400000 0.300000 0.650000
v -0.300000 0.150000 0.650000
v 0.300000 0.300000 0.550000
v 0.300000 0.150000 0.550000
v 0.300000 0.150000 0.650000
v 0.300000 0.300000 0.650000
v 0.300000 0.300000 0.550000
v 0.300000 0.150000 0.650000
v 0.400000 0.300000 0.550000
v 0.400000 0.150000 0.550000
v 0.300000 0.150000 0.550000
v 0.300000 0.300000 0.550000
v 0.400000 0.300000 0.550000
v 0.300000 0.150000 0.550000
v 0.400000 0.300000 0.650000
v 0.400000 0.150000 0.650000
v 0.400000 0.150000 0.550000
v 0.400000 0.300000 0.550000
v 0.400000 0.300000 0.650000
v 0.400000 0.150000 0.550000
v 0.300000 0.300000 0.650000
v 0.300000 0.150000 0.650000
v 0.400000 0.150000 0.650000
v 0.400000 0.300000 0.650000
v 0.300000 0.300000 0.650000
v 0.400000 0.150000 0.650000
v -0.200000 0.500000 0.650000
v -0.400000 0.300000 0.650000
v -0.300000 0.300000 0.650000
v -0.200000 0.400000 0.650000
v -0.200000 0.500000 0.650000
v -0.300000 0.300000 0.650000
v 0.200000 0.500000 0.650000
v 0.200000 0.400000 0.650000
v 0.300000 0.300000 0.650000
v 0.400000 0.300000 0.650000
v 0.200000 0.500000 0.650000
v 0.300000 0.300000 0.650000
v 0.200000 0.500000 0.550000
v 0.200000 0.500000 0.650000
v 0.400000 0.300000 0.650000
v 0.400000 0.300000 0.550000
v 0.200000 0.500000 0.550000
v 0.400000 0.300000 0.650000
v -0.200000 0.500000 0.550000
v -0.400000 0.300000 0.550000
v -0.400000 0.300000 0.650000
v -0.200000 0.500000 0.650000
v -0.200000 0.500000 0.550000
v -0.400000 0.300000 0.650000
v -0.200000 0.400000 0.550000
v -0.300000 0.300000 0.550000
v -0.400000 0.300000 0.550000
v -0.200000 0.500000 0.550000
v -0.200000 0.400000 0.550000
v -0.400000 0.300000 0.550000
v 0.200000 0.400000 0.550000
v 0.200000 0.500000 0.550000
v 0.400000 0.300000 0.550000
v 0.300000 0.300000 0.550000
v 0.200000 0.400000 0.550000
v 0.400000 0.300000 0.550000
v 0.200000 0.400000 0.650000
v 0.200000 0.400000 0.550000
v 0.300000 0.300000 0.550000
v 0.300000 0.300000 0.650000
v 0.200000 0.400000 0.650000
v 0.300000 0.300000 0.550000
v -0.200000 0.400000 0.650000
v -0.300000 0.300000 0.650000
v -0.300000 0.300000 0.550000
v -0.200000 0.400000 0.550000
v -0.200000 0.400000 0.650000
v -0.300000 0.300000 0.550000
v 0.200000 0.400000 0.550000
v -0.200000 0.400000 0.550000
v -0.200000 0.500000 0.550000
v 0.200000 0.500000 0.550000
v 0.200000 0.400000 0.550000
v -0.200000 0.500000 0.550000
v 0.200000 0.500000 0.550000
v -0.200000 0.500000 0.550000
v -0.200000 0.500000 0.650000
v 0.200000 0.500000 0.650000
v 0.200000 0.500000 0.550000
v -0.200000 0.500000 0.650000
v 0.200000 0.500000 0.650000
v -0.200000 0.500000 0.650000
v -0.200000 0.400000 0.650000
v 0.200000 0.400000 0.650000
v 0.200000 0.500000 0.650000
v -0.200000 0.400000 0.650000
v 0.200000 0.400000 0.650000
v -0.200000 0.400000 0.650000
v -0.200000 0.400000 0.550000
v 0.200000 0.400000 0.550000
v 0.200000 0.400000 0.650000
v -0.200000 0.400000 0.550000

vt 0.101249 0.098275
vt 0.042939 0.032229
vt 0.101249 0.000099
vt 0.101249 0.098275
vt 0.000099 0.098275
vt 0.042939 0.032229
vt 0.571301 0.098274
vt 0.470151 0.000099
vt 0.528461 0.032229
vt 0.571301 0.098274
vt 0.470151 0.098274
vt 0.470151 0.000099
vt 0.470151 0.098274
vt 0.101249 0.000099
vt 0.470151 0.000099
vt 0.470151 0.098274
vt 0.101249 0.098275
vt 0.101249 0.000099
vt 0.470151 0.428501
vt 0.101249 0.330325
vt 0.470151 0.330325
vt 0.470151 0.428501
vt 0.101250 0.428501
vt 0.101249 0.330325
vt 0.470151 0.330325
vt 0.101249 0.098275
vt 0.470151 0.098274
vt 0.470151 0.330325
vt 0.101249 0.330325
vt 0.101249 0.098275
vt 0.528461 0.396371
vt 0.470151 0.330325
vt 0.571301 0.330325
vt 0.528461 0.396371
vt 0.470151 0.428501
vt 0.470151 0.330325
vt 0.571301 0.330325
vt 0.470151 0.098274
vt 0.571301 0.098274
vt 0.571301 0.330325
vt 0.470151 0.330325
vt 0.470151 0.098274
vt 0.101250 0.428501
vt 0.000099 0.330325
vt 0.101249 0.330325
vt 0.101250 0.428501
vt 0.042939 0.396371
vt 0.000099 0.330325
vt 0.101249 0.330325
vt 0.000099 0.098275
vt 0.101249 0.098275
vt 0.101249 0.330325
vt 0.000099 0.330325
vt 0.000099 0.098275
vt 0.999901 0.470151
vt 0.669675 0.571301
vt 0.571499 0.470151
vt 0.603629 0.042939
vt 0.669675 0.000099
vt 0.571499 0.101249
vt 0.669675 0.000099
vt 0.901726 0.000099
vt 0.571499 0.101249
vt 0.901726 0.000099
vt 0.967771 0.042939
vt 0.999901 0.101249
vt 0.999901 0.101249
vt 0.999901 0.470151
vt 0.571499 0.470151
vt 0.999901 0.470151
vt 0.967771 0.528461
vt 0.901726 0.571301
vt 0.669675 0.571301
vt 0.999901 0.470151
vt 0.901726 0.571301
vt 0.669675 0.571301
vt 0.603629 0.528461
vt 0.571499 0.470151
vt 0.571499 0.470151
vt 0.571499 0.101249
vt 0.999901 0.101249
vt 0.999901 0.101249
vt 0.571499 0.101249
vt 0.901726 0.000099
vt 0.200558 0.074788
vt 0.140510 0.000132
vt 0.200558 0.000133
vt 0.200558 0.074788
vt 0.140510 0.074787
vt 0.140510 0.000132
vt 0.000132 0.348617
vt 0.060181 0.436892
vt 0.000132 0.436892
vt 0.000132 0.348617
vt 0.060181 0.348617
vt 0.060181 0.436892
vt 0.200558 0.651383
vt 0.140510 0.563108
vt 0.200558 0.563108
vt 0.200558 0.651383
vt 0.140510 0.651383
vt 0.140510 0.563108
vt 0.000132 0.925212
vt 0.060181 0.999868
vt 0.000132 0.999868
vt 0.000132 0.925212
vt 0.060181 0.925213
vt 0.060181 0.999868
vt 0.000132 0.436892
vt 0.060181 0.511547
vt 0.000132 0.511547
vt 0.000132 0.436892
vt 0.060181 0.436892
vt 0.060181 0.511547
vt 0.000132 0.511547
vt 0.060181 0.925213
vt 0.000132 0.925212
vt 0.000132 0.511547
vt 0.060181 0.511547
vt 0.060181 0.925213
vt 0.200558 0.563108
vt 0.140510 0.488453
vt 0.200558 0.488453
vt 0.200558 0.563108
vt 0.140510 0.563108
vt 0.140510 0.488453
vt 0.200558 0.488453
vt 0.140510 0.074787
vt 0.200558 0.074788
vt 0.200558 0.488453
vt 0.140510 0.488453
vt 0.140510 0.074787
vt 0.200558 0.999867
vt 0.140510 0.911592
vt 0.200558 0.911592
vt 0.200558 0.999867
vt 0.140510 0.999868
vt 0.140510 0.911592
vt 0.200558 0.911592
vt 0.140510 0.651383
vt 0.200558 0.651383
vt 0.200558 0.911592
vt 0.140510 0.911592
vt 0.140510 0.651383
vt 0.000132 0.000133
vt 0.060181 0.088408
vt 0.000132 0.088408
vt 0.000132 0.000133
vt 0.060181 0.000132
vt 0.060181 0.088408
vt 0.000132 0.088408
vt 0.060181 0.348617
vt 0.000132 0.348617
vt 0.000132 0.088408
vt 0.060181 0.088408
vt 0.060181 0.348617
vt 0.521345 0.546845
vt 0.561377 0.486797
vt 0.561377 0.546845
vt 0.521345 0.546845
vt 0.521345 0.486797
vt 0.561377 0.486797
vt 0.160791 0.140510
vt 0.220839 0.180542
vt 0.160791 0.180542
vt 0.160791 0.140510
vt 0.220839 0.140510
vt 0.220839 0.180542
vt 0.381232 0.100478
vt 0.341200 0.160526
vt 0.341200 0.100478
vt 0.381232 0.100478
vt 0.381232 0.160526
vt 0.341200 0.160526
vt 0.481048 0.180277
vt 0.521080 0.120229
vt 0.521080 0.180277
vt 0.481048 0.180277
vt 0.481048 0.120229
vt 0.521080 0.120229
vt 0.341200 0.573995
vt 0.381232 0.513947
vt 0.381232 0.573995
vt 0.341200 0.573995
vt 0.341200 0.513947
vt 0.381232 0.513947
vt 0.160791 0.420735
vt 0.220839 0.460767
vt 0.160791 0.460767
vt 0.160791 0.420735
vt 0.220839 0.420735
vt 0.220839 0.460767
vt 0.561377 -0.039900
vt 0.521345 0.020149
vt 0.521345 -0.039900
vt 0.561377 -0.039900
vt 0.561377 0.020149
vt 0.521345 0.020149
vt 0.200823 0.180277
vt 0.240855 0.120229
vt 0.240855 0.180277
vt 0.200823 0.180277
vt 0.200823 0.120229
vt 0.240855 0.120229
vt 0.481048 0.120229
vt 0.441016 0.040165
vt 0.521080 0.120229
vt 0.481048 0.120229
vt 0.441016 0.080197
vt 0.441016 0.040165
vt 0.240855 0.120229
vt 0.280887 0.040165
vt 0.280887 0.080197
vt 0.240855 0.120229
vt 0.200823 0.120229
vt 0.280887 0.040165
vt 0.521345 0.031874
vt 0.561377 0.145102
vt 0.521345 0.145102
vt 0.521345 0.031874
vt 0.561377 0.031874
vt 0.561377 0.145102
vt 0.521345 0.475072
vt 0.561377 0.361844
vt 0.561377 0.475072
vt 0.521345 0.475072
vt 0.521345 0.361844
vt 0.561377 0.361844
vt 0.220839 0.140510
vt 0.260871 0.220574
vt 0.220839 0.180542
vt 0.220839 0.140510
vt 0.300903 0.220574
vt 0.260871 0.220574
vt 0.220839 0.460767
vt 0.260871 0.380703
vt 0.300903 0.380703
vt 0.220839 0.460767
vt 0.220839 0.420735
vt 0.260871 0.380703
vt 0.381232 0.502221
vt 0.341200 0.445607
vt 0.381232 0.445608
vt 0.381232 0.502221
vt 0.341200 0.502222
vt 0.341200 0.445608
vt 0.381232 0.172251
vt 0.341200 0.228865
vt 0.341200 0.172251
vt 0.381232 0.172251
vt 0.381232 0.228865
vt 0.341200 0.228865
vt 0.300903 0.220574
vt 0.260871 0.380702
vt 0.260871 0.220574
vt 0.300903 0.220574
vt 0.300903 0.380703
vt 0.260871 0.380703
vt 0.521345 0.333537
vt 0.561377 0.173409
vt 0.561377 0.333537
vt 0.521345 0.333537
vt 0.521345 0.173409
vt 0.561377 0.173409
vt 0.441016 0.080197
vt 0.280887 0.040165
vt 0.441016 0.040165
vt 0.441016 0.080197
vt 0.280887 0.080197
vt 0.280887 0.040165
vt 0.381232 0.257172
vt 0.341200 0.417301
vt 0.341200 0.257172
vt 0.381232 0.257172
vt 0.381232 0.417301
vt 0.341200 0.417301

vn -0.000000 1.000000 0.000000
vn -0.000000 1.000000 0.000000
vn -0.000000 1.000000 0.000000
vn 0.000000 1.000000 0.000000
vn 0.000000 1.000000 0.000000
vn 0.000000 1.000000 0.000000
vn 0.000000 1.000000 0.000000
vn 0.000000 1.000000 0.000000
vn 0.000000 1.000000 0.000000
vn -0.000000 1.000000 0.000000
vn -0.000000 1.000000 0.000000
vn -0.000000 1.000000 0.000000
vn -0.000000 1.000000 0.000000
vn -0.000000 1.000000 0.000000
vn -0.000000 1.000000 0.000000
vn -0.000000 1.000000 0.000000
vn -0.000000 1.000000 0.000000
vn -0.000000 1.000000 0.000000
vn 0.000000 1.000000 0.000000
vn 0.000000 1.000000 0.000000
vn 0.000000 1.000000 0.000000
vn -0.000000 1.000000 0.000000
vn -0.000000 1.000000 0.000000
vn -0.000000 1.000000 0.000000
vn -0.000000 1.000000 0.000000
vn -0.000000 1.000000 0.000000
vn -0.000000 1.000000 0.000000
vn -0.000000 1.000000 0.000000
vn -0.000000 1.000000 0.000000
vn -0.000000 1.000000 0.000000
vn -0.000000 1.000000 0.000000
vn -0.000000 1.000000 0.000000
vn -0.000000 1.000000 0.000000
vn -0.000000 1.000000 0.000000
vn -0.000000 1.000000 0.000000
vn -0.000000 1.000000 0.000000
vn -0.000000 1.000000 0.000000
vn -0.000000 1.000000 0.000000
vn -0.000000 1.000000 0.000000
vn -0.000000 1.000000 0.000000
vn -0.000000 1.000000 0.000000
vn -0.000000 1.000000 0.000000
vn 0.000000 1.000000 0.000000
vn 0.000000 1.000000 0.000000
vn 0.000000 1.000000 0.000000
vn 0.000000 1.000000 0.000000
vn 0.000000 1.000000 0.000000
vn 0.000000 1.000000 0.000000
vn -0.000000 1.000000 0.000000
vn -0.000000 1.000000 0.000000
vn -0.000000 1.000000 0.000000
vn -0.000000 1.000000 0.000000
vn -0.000000 1.000000 0.000000
vn -0.000000 1.000000 0.000000
vn -0.000000 -1.000000 0.000000
vn -0.000000 -1.000000 0.000000
vn -0.000000 -1.000000 0.000000
vn -0.000000 -1.000000 0.000000
vn -0.000000 -1.000000 0.000000
vn -0.000000 -1.000000 0.000000
vn -0.000000 -1.000000 0.000000
vn -0.000000 -1.000000 0.000000
vn -0.000000 -1.000000 0.000000
vn -0.000000 -1.000000 0.000000
vn -0.000000 -1.000000 0.000000
vn -0.000000 -1.000000 0.000000
vn -0.000000 -1.000000 0.000000
vn -0.000000 -1.000000 0.000000
vn -0.000000 -1.000000 0.000000
vn -0.000000 -1.000000 0.000000
vn -0.000000 -1.000000 0.000000
vn -0.000000 -1.000000 0.000000
vn -0.000000 -1.000000 0.000000
vn -0.000000 -1.000000 0.000000
vn -0.000000 -1.000000 0.000000
vn -0.000000 -1.000000 0.000000
vn -0.000000 -1.000000 0.000000
vn -0.000000 -1.000000 0.000000
vn -0.000000 -1.000000 0.000000
vn -0.000000 -1.000000 0.000000
vn -0.000000 -1.000000 0.000000
vn -0.000000 -1.000000 0.000000
vn -0.000000 -1.000000 0.000000
vn -0.000000 -1.000000 0.000000
vn -0.482604 0.000000 0.875838
vn -0.482604 0.000000 0.875838
vn -0.482604 0.000000 0.875838
vn -0.482604 0.000000 0.875839
vn -0.482604 0.000000 0.875839
vn -0.482604 0.000000 0.875839
vn -0.838961 0.000000 -0.544191
vn -0.838961 0.000000 -0.544191
vn -0.838961 0.000000 -0.544191
vn -0.838961 -0.000000 -0.544191
vn -0.838961 -0.000000 -0.544191
vn -0.838961 -0.000000 -0.544191
vn 0.838962 0.000000 0.544191
vn 0.838962 0.000000 0.544191
vn 0.838962 0.000000 0.544191
vn 0.838961 -0.000001 0.544191
vn 0.838961 -0.000001 0.544191
vn 0.838961 -0.000001 0.544191
vn 0.482605 0.000000 -0.875838
vn 0.482605 0.000000 -0.875838
vn 0.482605 0.000000 -0.875838
vn 0.482604 0.000000 -0.875838
vn 0.482604 0.000000 -0.875838
vn 0.482604 0.000000 -0.875838
vn -0.482605 0.000000 -0.875838
vn -0.482605 0.000000 -0.875838
vn -0.482605 0.000000 -0.875838
vn -0.482605 0.000000 -0.875838
vn -0.482605 0.000000 -0.875838
vn -0.482605 0.000000 -0.875838
vn -0.000000 0.000000 -1.000000
vn -0.000000 0.000000 -1.000000
vn -0.000000 0.000000 -1.000000
vn -0.000000 0.000000 -1.000000
vn -0.000000 0.000000 -1.000000
vn -0.000000 0.000000 -1.000000
vn 0.482604 0.000000 0.875839
vn 0.482604 0.000000 0.875839
vn 0.482604 0.000000 0.875839
vn 0.482604 0.000000 0.875838
vn 0.482604 0.000000 0.875838
vn 0.482604 0.000000 0.875838
vn -0.000000 0.000000 1.000000
vn -0.000000 0.000000 1.000000
vn -0.000000 0.000000 1.000000
vn -0.000000 0.000000 1.000000
vn -0.000000 0.000000 1.000000
vn -0.000000 0.000000 1.000000
vn 0.838962 0.000000 -0.544191
vn 0.838962 0.000000 -0.544191
vn 0.838962 0.000000 -0.544191
vn 0.838961 0.000000 -0.544191
vn 0.838961 0.000000 -0.544191
vn 0.838961 0.000000 -0.544191
vn 1.000000 0.000000 -0.000000
vn 1.000000 0.000000 -0.000000
vn 1.000000 0.000000 -0.000000
vn 1.000000 0.000000 -0.000000
vn 1.000000 0.000000 -0.000000
vn 1.000000 0.000000 -0.000000
vn -0.838961 0.000000 0.544191
vn -0.838961 0.000000 0.544191
vn -0.838961 0.000000 0.544191
vn -0.838961 0.000000 0.544191
vn -0.838961 0.000000 0.544191
vn -0.838961 0.000000 0.544191
vn -1.000000 0.000000 0.000000
vn -1.000000 0.000000 0.000000
vn -1.000000 0.000000 0.000000
vn -1.000000 0.000000 0.000000
vn -1.000000 0.000000 0.000000
vn -1.000000 0.000000 0.000000
vn -1.000000 0.000000 0.000000
vn -1.000000 0.000000 0.000000
vn -1.000000 0.000000 0.000000
vn -1.000000 0.000000 0.000000
vn -1.000000 0.000000 0.000000
vn -1.000000 0.000000 0.000000
vn -0.000001 0.000000 -1.000000
vn -0.000001 0.000000 -1.000000
vn -0.000001 0.000000 -1.000000
vn -0.000001 0.000000 -1.000000
vn -0.000001 0.000000 -1.000000
vn -0.000001 0.000000 -1.000000
vn 1.000000 0.000000 0.000000
vn 1.000000 0.000000 0.000000
vn 1.000000 0.000000 0.000000
vn 1.000000 0.000000 0.000000
vn 1.000000 0.000000 0.000000
vn 1.000000 0.000000 0.000000
vn 0.000001 0.000000 1.000000
vn 0.000001 0.000000 1.000000
vn 0.000001 0.000000 1.000000
vn 0.000001 0.000000 1.000000
vn 0.000001 0.000000 1.000000
vn 0.000001 0.000000 1.000000
vn -1.000000 0.000000 0.000000
vn -1.000000 0.000000 0.000000
vn -1.000000 0.000000 0.000000
vn -1.000000 0.000000 0.000000
vn -1.000000 0.000000 0.000000
vn -1.000000 0.000000 0.000000
vn -0.000001 0.000000 -1.000000
vn -0.000001 0.000000 -1.000000
vn -0.000001 0.000000 -1.000000
vn -0.000001 0.000000 -1.000000
vn -0.000001 0.000000 -1.000000
vn -0.000001 0.000000 -1.000000
vn 1.000000 0.000000 0.000000
vn 1.000000 0.000000 0.000000
vn 1.000000 0.000000 0.000000
vn 1.000000 0.000000 0.000000
vn 1.000000 0.000000 0.000000
vn 1.000000 0.000000 0.000000
vn 0.000001 0.000000 1.000000
vn 0.000001 0.000000 1.000000
vn 0.000001 0.000000 1.000000
vn 0.000001 0.000000 1.000000
vn 0.000001 0.000000 1.000000
vn 0.000001 0.000000 1.000000
vn 0.000001 0.000000 1.000000
vn 0.000001 0.000000 1.000000
vn 0.000001 0.000000 1.000000
vn -0.000000 0.000000 1.000000
vn -0.000000 0.000000 1.000000
vn -0.000000 0.000000 1.000000
vn -0.000000 0.000000 1.000000
vn -0.000000 0.000000 1.000000
vn -0.000000 0.000000 1.000000
vn 0.000001 0.000001 1.000000
vn 0.000001 0.000001 1.000000
vn 0.000001 0.000001 1.000000
vn 0.707107 0.707107 0.000000
vn 0.707107 0.707107 0.000000
vn 0.707107 0.707107 0.000000
vn 0.707106 0.707107 0.000000
vn 0.707106 0.707107 0.000000
vn 0.707106 0.707107 0.000000
vn -0.707106 0.707108 0.000000
vn -0.707106 0.707108 0.000000
vn -0.707106 0.707108 0.000000
vn -0.707107 0.707107 0.000000
vn -0.707107 0.707107 0.000000
vn -0.707107 0.707107 0.000000
vn -0.000001 -0.000001 -1.000000
vn -0.000001 -0.000001 -1.000000
vn -0.000001 -0.000001 -1.000000
vn -0.000000 0.000000 -1.000000
vn -0.000000 0.000000 -1.000000
vn -0.000000 0.000000 -1.000000
vn -0.000001 0.000000 -1.000000
vn -0.000001 0.000000 -1.000000
vn -0.000001 0.000000 -1.000000
vn -0.000001 -0.000002 -1.000000
vn -0.000001 -0.000002 -1.000000
vn -0.000001 -0.000002 -1.000000
vn -0.707107 -0.707107 0.000000
vn -0.707107 -0.707107 0.000000
vn -0.707107 -0.707107 0.000000
vn -0.707106 -0.707107 0.000000
vn -0.707106 -0.707107 0.000000
vn -0.707106 -0.707107 0.000000
vn 0.707107 -0.707107 0.000000
vn 0.707107 -0.707107 0.000000
vn 0.707107 -0.707107 0.000000
vn 0.707107 -0.707107 0.000000
vn 0.707107 -0.707107 0.000000
vn 0.707107 -0.707107 0.000000
vn -0.000000 0.000000 -1.000000
vn -0.000000 0.000000 -1.000000
vn -0.000000 0.000000 -1.000000
vn -0.000000 0.000000 -1.000000
vn -0.000000 0.000000 -1.000000
vn -0.000000 0.000000 -1.000000
vn -0.000000 1.000000 0.000000
vn -0.000000 1.000000 0.000000
vn -0.000000 1.000000 0.000000
vn -0.000000 1.000000 0.000000
vn -0.000000 1.000000 0.000000
vn -0.000000 1.000000 0.000000
vn -0.000000 0.000000 1.000000
vn -0.000000 0.000000 1.000000
vn -0.000000 0.000000 1.000000
vn -0.000000 0.000000 1.000000
vn -0.000000 0.000000 1.000000
vn -0.000000 0.000000 1.000000
vn -0.000000 -1.000000 0.000000
vn -0.000000 -1.000000 0.000000
vn -0.000000 -1.000000 0.000000
vn -0.000000 -1.000000 0.000000
vn -0.000000 -1.000000 0.000000
vn -0.000000 -1.000000 0.000000

g Material.001
f 3/1/1 1/2/2 2/3/3
f 6/4/4 4/5/5 5/6/6
f 9/7/7 7/8/8 8/9/9
f 12/10/10 10/11/11 11/12/12
f 15/13/13 13/14/14 14/15/15
f 18/16/16 16/17/17 17/18/18
f 21/19/19 19/20/20 20/21/21
f 24/22/22 22/23/23 23/24/24
f 27/25/25 25/26/26 26/27/27
f 30/28/28 28/29/29 29/30/30
f 33/31/31 31/32/32 32/33/33
f 36/34/34 34/35/35 35/36/36
f 39/37/37 37/38/38 38/39/39
f 42/40/40 40/41/41 41/42/42
f 45/43/43 43/44/44 44/45/45
f 48/46/46 46/47/47 47/48/48
f 51/49/49 49/50/50 50/51/51
f 54/52/52 52/53/53 53/54/54
f 57/55/55 55/56/56 56/57/57
f 60/58/58 58/59/59 59/60/60
f 63/61/61 61/62/62 62/63/63
f 66/64/64 64/65/65 65/66/66
f 69/67/67 67/68/68 68/69/69
f 72/70/70 70/71/71 71/72/72
f 75/73/73 73/74/74 74/75/75
f 78/76/76 76/77/77 77/78/78
f 81/79/79 79/80/80 80/81/81
f 84/82/82 82/83/83 83/84/84

g Material.002
f 87/85/85 85/86/86 86/87/87
f 90/88/88 88/89/89 89/90/90
f 93/91/91 91/92/92 92/93/93
f 96/94/94 94/95/95 95/96/96
f 99/97/97 97/98/98 98/99/99
f 102/100/100 100/101/101 101/102/102
f 105/103/103 103/104/104 104/105/105
f 108/106/106 106/107/107 107/108/108
f 111/109/109 109/110/110 110/111/111
f 114/112/112 112/113/113 113/114/114
f 117/115/115 115/116/116 116/117/117
f 120/118/118 118/119/119 119/120/120
f 123/121/121 121/122/122 122/123/123
f 126/124/124 124/125/125 125/126/126
f 129/127/127 127/128/128 128/129/129
f 132/130/130 130/131/131 131/132/132
f 135/133/133 133/134/134 134/135/135
f 138/136/136 136/137/137 137/138/138
f 141/139/139 139/140/140 140/141/141
f 144/142/142 142/143/143 143/144/144
f 147/145/145 145/146/146 146/147/147
f 150/148/148 148/149/149 149/150/150
f 153/151/151 151/152/152 152/153/153
f 156/154/154 154/155/155 155/156/156
f 159/157/157 157/158/158 158/159/159
f 162/160/160 160/161/161 161/162/162
f 165/163/163 163/164/164 164/165/165
f 168/166/166 166/167/167 167/168/168
f 171/169/169 169/170/170 170/171/171
f 174/172/172 172/173/173 173/174/174
f 177/175/175 175/176/176 176/177/177
f 180/178/178 178/179/179 179/180/180
f 183/181/181 181/182/182 182/183/183
f 186/184/184 184/185/185 185/186/186
f 189/187/187 187/188/188 188/189/189
f 192/190/190 190/191/191 191/192/192
f 195/193/193 193/194/194 194/195/195
f 198/196/196 196/197/197 197/198/198
f 201/199/199 199/200/200 200/201/201
f 204/202/202 202/203/203 203/204/204
f 207/205/205 205/206/206 206/207/207
f 210/208/208 208/209/209 209/210/210
f 213/211/211 211/212/212 212/213/213
f 216/214/214 214/215/215 215/216/216
f 219/217/217 217/218/218 218/219/219
f 222/220/220 220/221/221 221/222/222
f 225/223/223 223/224/224 224/225/225
f 228/226/226 226/227/227 227/228/228
f 231/229/229 229/230/230 230/231/231
f 234/232/232 232/233/233 233/234/234
f 237/235/235 235/236/236 236/237/237
f 240/238/238 238/239/239 239/240/240
f 243/241/241 241/242/242 242/243/243
f 246/244/244 244/245/245 245/246/246
f 249/247/247 247/248/248 248/249/249
f 252/250/250 250/251/251 251/252/252
f 255/253/253 253/254/254 254/255/255
f 258/256/256 256/257/257 257/258/258
f 261/259/259 259/260/260 260/261/261
f 264/262/262 262/263/263 263/264/264
f 267/265/265 265/266/266 266/267/267
f 270/268/268 268/269/269 269/270/270
f 273/271/271 271/272/272 272/273/273
f 276/274/274 274/275/275 275/276/276

