# Blender v3.0.0 OBJ File: 'multidecor_wooden_table_with_metallic_legs.blend'
# www.blender.org
o Cube
v 1.150000 1.038933 -1.150000
v 1.150000 0.923933 -1.150000
v 1.150000 1.038933 1.150000
v 1.150000 0.923933 1.150000
v -1.150000 1.038933 -1.150000
v -1.150000 0.923933 -1.150000
v -1.150000 1.038933 1.150000
v -1.150000 0.923933 1.150000
v 1.035000 0.855445 -1.150000
v 1.035000 0.740445 -1.150000
v 1.035000 0.855445 1.150000
v 1.035000 0.740445 1.150000
v -1.035000 0.855445 -1.150000
v -1.035000 0.740445 -1.150000
v -1.035000 0.855445 1.150000
v -1.035000 0.740445 1.150000
v 1.035000 0.855445 0.920000
v 1.035000 0.740445 0.920000
v 1.035000 0.855445 1.150000
v 1.035000 0.740445 1.150000
v 1.265000 0.855445 0.920000
v 1.265000 0.740445 0.920000
v 1.265000 0.855445 1.150000
v 1.265000 0.740445 1.150000
v 0.920007 -1.029568 1.150000
v 0.920007 -1.029568 0.920000
v 1.150000 0.740445 0.920000
v 1.150000 0.740445 1.150000
v 0.805007 -1.029568 0.920000
v 0.805007 -1.029568 1.150000
v 0.896858 -1.142218 1.150000
v 0.725125 -1.142218 1.093268
v 0.896858 -1.142218 0.920000
v 0.725125 -1.142218 0.976732
v -1.035000 0.855445 0.920000
v -1.035000 0.740445 0.920000
v -1.035000 0.855445 1.150000
v -1.035000 0.740445 1.150000
v -1.265000 0.855445 0.920000
v -1.265000 0.740445 0.920000
v -1.265000 0.855445 1.150000
v -1.265000 0.740445 1.150000
v -0.920007 -1.029568 1.150000
v -0.920007 -1.029568 0.920000
v -1.150000 0.740445 0.920000
v -1.150000 0.740445 1.150000
v -0.805007 -1.029568 0.920000
v -0.805007 -1.029568 1.150000
v -0.896858 -1.142218 1.150000
v -0.725125 -1.142218 1.093268
v -0.896858 -1.142218 0.920000
v -0.725125 -1.142218 0.976732
v 0.781858 -1.142218 0.920000
v 0.781858 -1.142218 1.150000
v -0.781858 -1.142218 0.920000
v -0.781858 -1.142218 1.150000
v 0.725125 -1.142218 0.976732
v 0.725125 -1.142218 1.093268
v -0.725125 -1.142218 0.976732
v -0.725125 -1.142218 1.093268
v 0.725125 -1.261067 0.976732
v 0.725125 -1.261067 1.093268
v -0.725125 -1.261067 0.976732
v -0.725125 -1.261067 1.093268
v 1.035000 0.855445 -0.920000
v 1.035000 0.740445 -0.920000
v 1.035000 0.855445 -1.150000
v 1.035000 0.740445 -1.150000
v 1.265000 0.855445 -0.920000
v 1.265000 0.740445 -0.920000
v 1.265000 0.855445 -1.150000
v 1.265000 0.740445 -1.150000
v 0.920007 -1.029568 -1.150000
v 0.920007 -1.029568 -0.920000
v 1.150000 0.740445 -0.920000
v 1.150000 0.740445 -1.150000
v 0.805007 -1.029568 -0.920000
v 0.805007 -1.029568 -1.150000
v 0.896858 -1.142218 -1.150000
v 0.725125 -1.142218 -1.093268
v 0.896858 -1.142218 -0.920000
v 0.725125 -1.142218 -0.976732
v -1.035000 0.855445 -0.920000
v -1.035000 0.740445 -0.920000
v -1.035000 0.855445 -1.150000
v -1.035000 0.740445 -1.150000
v -1.265000 0.855445 -0.920000
v -1.265000 0.740445 -0.920000
v -1.265000 0.855445 -1.150000
v -1.265000 0.740445 -1.150000
v -0.920007 -1.029568 -1.150000
v -0.920007 -1.029568 -0.920000
v -1.150000 0.740445 -0.920000
v -1.150000 0.740445 -1.150000
v -0.805007 -1.029568 -0.920000
v -0.805007 -1.029568 -1.150000
v -0.896858 -1.142218 -1.150000
v -0.725125 -1.142218 -1.093268
v -0.896858 -1.142218 -0.920000
v -0.725125 -1.142218 -0.976732
v 0.781858 -1.142218 -0.920000
v 0.781858 -1.142218 -1.150000
v -0.781858 -1.142218 -0.920000
v -0.781858 -1.142218 -1.150000
v 0.725125 -1.142218 -0.976732
v 0.725125 -1.142218 -1.093268
v -0.725125 -1.142218 -0.976732
v -0.725125 -1.142218 -1.093268
v 0.725125 -1.261067 -0.976732
v 0.725125 -1.261067 -1.093268
v -0.725125 -1.261067 -0.976732
v -0.725125 -1.261067 -1.093268
vt 0.350205 0.017872
vt 0.350205 0.350756
vt 0.017320 0.350756
vt 0.017320 0.017872
vt 0.000676 0.017872
vt 0.000676 0.350756
vt 0.017320 0.367401
vt 0.350205 0.367401
vt 0.350205 0.700285
vt 0.017320 0.700285
vt 0.350205 0.001228
vt 0.017320 0.001228
vt 0.366849 0.350756
vt 0.366849 0.017872
vt 0.641981 0.983019
vt 0.641981 0.683423
vt 0.974865 0.683423
vt 0.974865 0.983019
vt 0.991510 0.983019
vt 0.991510 0.683423
vt 0.974865 0.666779
vt 0.641981 0.666779
vt 0.641981 0.367183
vt 0.974865 0.367183
vt 0.641981 0.999663
vt 0.974865 0.999663
vt 0.625337 0.683423
vt 0.625337 0.983019
vt 0.638672 0.655351
vt 0.666370 0.673816
vt 0.657137 0.687665
vt 0.629439 0.669200
vt 0.680218 0.743061
vt 0.666370 0.733828
vt 0.684835 0.706130
vt 0.698684 0.715363
vt 0.782228 0.728720
vt 0.765891 0.731905
vt 0.765891 0.470906
vt 0.782228 0.467722
vt 0.680218 0.683049
vt 0.694067 0.692282
vt 0.638672 0.715363
vt 0.629439 0.729212
vt 0.657137 0.747677
vt 0.643288 0.738444
vt 0.684835 0.646119
vt 0.698684 0.655351
vt 0.629439 0.645445
vt 0.629439 0.612157
vt 0.646084 0.612157
vt 0.646084 0.645445
vt 0.502068 0.679407
vt 0.502068 0.646119
vt 0.763067 0.646119
vt 0.763067 0.679407
vt 0.785002 0.000337
vt 0.801338 0.003521
vt 0.801338 0.264519
vt 0.785001 0.261335
vt 0.502068 0.747331
vt 0.502068 0.714043
vt 0.763067 0.714043
vt 0.763067 0.747331
vt 0.783963 0.312282
vt 0.783963 0.345570
vt 0.767318 0.345570
vt 0.767318 0.312282
vt 0.750674 0.345570
vt 0.750674 0.312282
vt 0.780612 0.361874
vt 0.763968 0.361874
vt 0.763968 0.295978
vt 0.780612 0.295978
vt 0.700067 0.278653
vt 0.716712 0.278653
vt 0.716712 0.311942
vt 0.700067 0.311942
vt 0.816249 0.628182
vt 0.799912 0.631366
vt 0.799912 0.370367
vt 0.816249 0.367183
vt 0.750000 0.311942
vt 0.750000 0.328586
vt 0.733356 0.328586
vt 0.716712 0.328586
vt 0.750000 0.278653
vt 0.750000 0.262009
vt 0.716712 0.262009
vt 0.733356 0.262009
vt 0.750000 0.361874
vt 0.733356 0.361874
vt 0.602696 0.610890
vt 0.569408 0.610890
vt 0.569408 0.594245
vt 0.602696 0.594245
vt 0.748632 0.628182
vt 0.715344 0.628182
vt 0.715344 0.367183
vt 0.748632 0.367183
vt 0.767991 0.000337
vt 0.784328 0.003521
vt 0.784328 0.264519
vt 0.767991 0.261335
vt 0.733356 0.261335
vt 0.700067 0.261335
vt 0.700067 0.000337
vt 0.733356 0.000337
vt 0.551661 0.781294
vt 0.518373 0.781293
vt 0.518373 0.764649
vt 0.551661 0.764649
vt 0.518373 0.748004
vt 0.551661 0.748004
vt 0.502068 0.777943
vt 0.502068 0.761299
vt 0.567965 0.761299
vt 0.567965 0.777943
vt 0.533130 0.588703
vt 0.501484 0.588703
vt 0.501484 0.367183
vt 0.533130 0.367183
vt 0.605968 0.372052
vt 0.605968 0.593571
vt 0.590468 0.590386
vt 0.590468 0.375237
vt 0.557230 0.578082
vt 0.555997 0.380259
vt 0.560224 0.380994
vt 0.557902 0.577613
vt 0.548629 0.370368
vt 0.548629 0.585518
vt 0.583101 0.580496
vt 0.581867 0.382673
vt 0.711798 0.594282
vt 0.711798 0.384384
vt 0.728999 0.384384
vt 0.728999 0.594282
vt 0.581195 0.383142
vt 0.578874 0.579760
vt 0.745866 0.384384
vt 0.745866 0.594282
vt 0.728999 0.367183
vt 0.745866 0.367183
vt 0.763067 0.384384
vt 0.763067 0.594282
vt 0.745866 0.611484
vt 0.728999 0.611483
vt 0.699357 0.662763
vt 0.716001 0.662763
vt 0.716001 0.696051
vt 0.699357 0.696051
vt 0.818349 0.261335
vt 0.802012 0.264520
vt 0.802012 0.003521
vt 0.818349 0.000337
vt 0.749290 0.696051
vt 0.749290 0.712696
vt 0.732645 0.712696
vt 0.716001 0.712696
vt 0.749290 0.662763
vt 0.749290 0.646119
vt 0.716001 0.646119
vt 0.732645 0.646119
vt 0.749290 0.745984
vt 0.732645 0.745984
vt 0.501484 0.594245
vt 0.534773 0.594245
vt 0.534773 0.610890
vt 0.501484 0.610890
vt 0.767318 0.261335
vt 0.734029 0.261335
vt 0.734029 0.000337
vt 0.767318 0.000337
vt 0.816922 0.367183
vt 0.833259 0.370367
vt 0.833259 0.631366
vt 0.816922 0.628182
vt 0.681382 0.367183
vt 0.714670 0.367183
vt 0.714670 0.628182
vt 0.681382 0.628182
vt 0.799216 0.762962
vt 0.799216 0.796250
vt 0.782572 0.796250
vt 0.782572 0.762962
vt 0.765927 0.796250
vt 0.765927 0.762962
vt 0.795866 0.812554
vt 0.779221 0.812554
vt 0.779221 0.746658
vt 0.795866 0.746658
vt 0.749306 0.383827
vt 0.765950 0.383827
vt 0.765950 0.417116
vt 0.749306 0.417116
vt 0.799238 0.728720
vt 0.782901 0.731905
vt 0.782901 0.470906
vt 0.799238 0.467722
vt 0.799238 0.417116
vt 0.799238 0.433760
vt 0.782594 0.433760
vt 0.765950 0.433760
vt 0.799238 0.383827
vt 0.799238 0.367183
vt 0.765950 0.367183
vt 0.782594 0.367183
vt 0.799238 0.467048
vt 0.782594 0.467048
vt 0.535446 0.594245
vt 0.568735 0.594245
vt 0.568735 0.610890
vt 0.535446 0.610890
vt 0.763067 0.612157
vt 0.763067 0.645445
vt 0.502068 0.645445
vt 0.502068 0.612157
vt 0.835359 0.264519
vt 0.819022 0.261335
vt 0.819022 0.000337
vt 0.835359 0.003521
vt 0.502068 0.713369
vt 0.502068 0.680081
vt 0.763067 0.680081
vt 0.763067 0.713369
vt 0.748949 0.779947
vt 0.715661 0.779947
vt 0.715661 0.763302
vt 0.748949 0.763302
vt 0.715661 0.746658
vt 0.748949 0.746658
vt 0.699357 0.776596
vt 0.699357 0.759952
vt 0.765254 0.759952
vt 0.765254 0.776596
vt 0.638287 0.588703
vt 0.606641 0.588703
vt 0.606641 0.367183
vt 0.638287 0.367183
vt 0.711125 0.372052
vt 0.711125 0.593571
vt 0.695625 0.590386
vt 0.695625 0.375237
vt 0.662387 0.578082
vt 0.661154 0.380259
vt 0.665381 0.380994
vt 0.663059 0.577613
vt 0.653786 0.370368
vt 0.653786 0.585518
vt 0.688258 0.580496
vt 0.687024 0.382673
vt 0.815009 0.384384
vt 0.815010 0.594282
vt 0.797808 0.594282
vt 0.797808 0.384384
vt 0.686352 0.383142
vt 0.684031 0.579760
vt 0.780942 0.594282
vt 0.780942 0.384384
vt 0.797808 0.611483
vt 0.780942 0.611484
vt 0.763741 0.594282
vt 0.763740 0.384384
vt 0.780942 0.367183
vt 0.797808 0.367183
vn 0.0000 1.0000 0.0000
vn 0.0000 0.0000 1.0000
vn -1.0000 0.0000 0.0000
vn 0.0000 -1.0000 0.0000
vn 1.0000 0.0000 0.0000
vn 0.0000 0.0000 -1.0000
vn -0.9795 0.2013 0.0000
vn 0.9815 -0.1913 0.0000
vn -0.9815 0.1913 0.0000
vn 0.9795 -0.2013 0.0000
vn -0.9795 -0.2013 0.0000
vn 0.9815 0.1913 0.0000
vn -0.9815 -0.1913 0.0000
vn 0.9795 0.2013 0.0000
s off
f 1/1/1 5/2/1 7/3/1 3/4/1
f 4/5/2 3/4/2 7/3/2 8/6/2
f 8/7/3 7/3/3 5/2/3 6/8/3
f 6/8/4 2/9/4 4/10/4 8/7/4
f 2/11/5 1/1/5 3/4/5 4/12/5
f 6/13/6 5/2/6 1/1/6 2/14/6
f 9/15/1 13/16/1 15/17/1 11/18/1
f 12/19/2 11/18/2 15/17/2 16/20/2
f 16/21/3 15/17/3 13/16/3 14/22/3
f 14/22/4 10/23/4 12/24/4 16/21/4
f 10/25/5 9/15/5 11/18/5 12/26/5
f 14/27/6 13/16/6 9/15/6 10/28/6
f 18/29/3 20/30/3 19/31/3 17/32/3
f 22/33/5 21/34/5 23/35/5 24/36/5
f 27/37/6 22/38/6 26/39/6 29/40/6
f 19/31/2 20/30/2 28/41/2 24/42/2 23/35/2
f 17/43/1 19/31/1 23/35/1 21/34/1
f 18/44/6 17/43/6 21/34/6 22/45/6 27/46/6
f 18/47/4 27/48/4 28/41/4 20/30/4
f 30/49/7 29/50/7 53/51/7 54/52/7
f 22/53/8 24/54/8 25/55/8 26/56/8
f 24/57/2 28/58/2 30/59/2 25/60/2
f 28/61/9 27/62/9 29/63/9 30/64/9
f 54/65/4 53/66/4 33/67/4 31/68/4
f 26/69/10 25/70/10 31/68/10 33/67/10
f 29/71/6 26/72/6 33/67/6 53/66/6
f 25/73/2 30/74/2 54/65/2 31/68/2
f 40/75/5 39/76/5 41/77/5 42/78/5
f 45/79/2 40/80/2 44/81/2 47/82/2
f 37/83/6 38/84/6 46/85/6 42/86/6 41/77/6
f 35/87/4 37/83/4 41/77/4 39/76/4
f 36/88/2 35/87/2 39/76/2 40/89/2 45/90/2
f 36/91/1 45/92/1 46/85/1 38/84/1
f 48/93/11 47/94/11 55/95/11 56/96/11
f 40/97/12 42/98/12 43/99/12 44/100/12
f 42/101/6 46/102/6 48/103/6 43/104/6
f 46/105/13 45/106/13 47/107/13 48/108/13
f 56/109/1 55/110/1 51/111/1 49/112/1
f 44/113/14 43/114/14 49/112/14 51/111/14
f 47/115/2 44/116/2 51/111/2 55/110/2
f 43/117/6 48/118/6 56/109/6 49/112/6
f 30/119/1 29/120/1 47/121/1 48/122/1
f 47/123/6 29/124/6 53/125/6 55/126/6
f 32/127/2 50/128/2 60/129/2 58/130/2
f 56/131/2 54/132/2 30/119/2 48/122/2
f 32/127/4 34/133/4 53/125/4 54/132/4
f 52/134/4 50/128/4 56/131/4 55/126/4
f 34/133/4 52/134/4 55/126/4 53/125/4
f 50/128/4 32/127/4 54/132/4 56/131/4
f 59/135/6 57/136/6 61/137/6 63/138/6
f 50/128/2 52/134/2 59/139/2 60/129/2
f 52/134/2 34/133/2 57/140/2 59/139/2
f 34/133/2 32/127/2 58/130/2 57/140/2
f 63/138/4 61/137/4 62/141/4 64/142/4
f 57/143/5 58/144/5 62/141/5 61/137/5
f 58/145/2 60/146/2 64/142/2 62/141/2
f 60/147/3 59/148/3 63/138/3 64/142/3
f 70/149/3 69/150/3 71/151/3 72/152/3
f 75/153/6 70/154/6 74/155/6 77/156/6
f 67/157/2 68/158/2 76/159/2 72/160/2 71/151/2
f 65/161/4 67/157/4 71/151/4 69/150/4
f 66/162/6 65/161/6 69/150/6 70/163/6 75/164/6
f 66/165/1 75/166/1 76/159/1 68/158/1
f 78/167/10 77/168/10 101/169/10 102/170/10
f 70/171/9 72/172/9 73/173/9 74/174/9
f 72/175/2 76/176/2 78/177/2 73/178/2
f 76/179/8 75/180/8 77/181/8 78/182/8
f 102/183/1 101/184/1 81/185/1 79/186/1
f 74/187/7 73/188/7 79/186/7 81/185/7
f 77/189/6 74/190/6 81/185/6 101/184/6
f 73/191/2 78/192/2 102/183/2 79/186/2
f 88/193/3 87/194/3 89/195/3 90/196/3
f 93/197/2 88/198/2 92/199/2 95/200/2
f 85/201/6 86/202/6 94/203/6 90/204/6 89/195/6
f 83/205/1 85/201/1 89/195/1 87/194/1
f 84/206/2 83/205/2 87/194/2 88/207/2 93/208/2
f 84/209/4 93/210/4 94/203/4 86/202/4
f 96/211/14 95/212/14 103/213/14 104/214/14
f 88/215/13 90/216/13 91/217/13 92/218/13
f 90/219/6 94/220/6 96/221/6 91/222/6
f 94/223/12 93/224/12 95/225/12 96/226/12
f 104/227/4 103/228/4 99/229/4 97/230/4
f 92/231/11 91/232/11 97/230/11 99/229/11
f 95/233/2 92/234/2 99/229/2 103/228/2
f 91/235/6 96/236/6 104/227/6 97/230/6
f 78/237/4 77/238/4 95/239/4 96/240/4
f 95/241/6 77/242/6 101/243/6 103/244/6
f 80/245/2 98/246/2 108/247/2 106/248/2
f 104/249/2 102/250/2 78/237/2 96/240/2
f 80/245/1 82/251/1 101/243/1 102/250/1
f 100/252/1 98/246/1 104/249/1 103/244/1
f 82/251/1 100/252/1 103/244/1 101/243/1
f 98/246/1 80/245/1 102/250/1 104/249/1
f 107/253/6 105/254/6 109/255/6 111/256/6
f 98/246/2 100/252/2 107/257/2 108/247/2
f 100/252/2 82/251/2 105/258/2 107/257/2
f 82/251/2 80/245/2 106/248/2 105/258/2
f 111/256/1 109/255/1 110/259/1 112/260/1
f 105/261/3 106/262/3 110/259/3 109/255/3
f 106/263/2 108/264/2 112/260/2 110/259/2
f 108/265/5 107/266/5 111/256/5 112/260/5
