# Made in Blockbench 4.12.4
o cube
v -0.5 0 0.4375
v 0.5 0.375 0.3125
v 0.5 0.375 0.25
v 0.5 0 0.3125
v 0.5 0 0.25
v -0.5 0.375 0.3125
v -0.5 0.375 0.25
v -0.5 0 0.3125
v -0.5 0 0.25
v 0.5 0.375 0.4375
v 0.5 0.375 0.3125
v 0.5 0.125 0.4375
v 0.5 0.125 0.3125
v -0.5 0.375 0.4375
v -0.5 0.375 0.3125
v -0.5 0.125 0.4375
v -0.5 0.125 0.3125
v 0.5 0.375 0.5
v 0.5 0.375 0.4375
v 0.5 0 0.5
v 0.5 0 0.4375
v -0.5 0.375 0.5
v -0.5 0.375 0.4375
v -0.5 0 0.5
vt 0.0625 0.78125
vt 0.0625 0.875
vt 0.046875 0.875
vt 0.046875 0.78125
vt 0.328125 0.78125
vt 0.328125 0.875
vt 0.3125 0.875
vt 0.3125 0.78125
vt 0.0625 0.890625
vt 0.0625 0.875
vt 0.3125 0.875
vt 0.3125 0.890625
vt 0.3125 0.875
vt 0.3125 0.890625
vt 0.5625 0.890625
vt 0.5625 0.875
vt 0.625 0.78125
vt 0.625 0.875
vt 0.375 0.875
vt 0.375 0.78125
vt 0.3125 0.78125
vt 0.3125 0.875
vt 0.0625 0.875
vt 0.0625 0.78125
vt 0.046875 0.8125
vt 0.046875 0.875
vt 0.015625 0.875
vt 0.015625 0.8125
vt 0.359375 0.8125
vt 0.359375 0.875
vt 0.328125 0.875
vt 0.328125 0.8125
vt 0.5 0.859375
vt 0.5 0.890625
vt 0.25 0.890625
vt 0.25 0.859375
vt 0.5 0.890625
vt 0.5 0.921875
vt 0.25 0.921875
vt 0.25 0.890625
vt 0.5 0.8125
vt 0.5 0.875
vt 0.25 0.875
vt 0.25 0.8125
vt 0.3125 0.8125
vt 0.3125 0.875
vt 0.0625 0.875
vt 0.0625 0.8125
vt 0.015625 0.78125
vt 0.015625 0.875
vt 0 0.875
vt 0 0.78125
vt 0.375 0.78125
vt 0.375 0.875
vt 0.359375 0.875
vt 0.359375 0.78125
vt 0.0625 0.9375
vt 0.0625 0.921875
vt 0.3125 0.921875
vt 0.3125 0.9375
vt 0.3125 0.921875
vt 0.3125 0.9375
vt 0.5625 0.9375
vt 0.5625 0.921875
vt 0.625 0.78125
vt 0.625 0.875
vt 0.375 0.875
vt 0.375 0.78125
vt 0.3125 0.78125
vt 0.3125 0.875
vt 0.0625 0.875
vt 0.0625 0.78125
vn 1 0 0
vn -1 0 0
vn 0 1 0
vn 0 -1 0
vn 0 0 1
vn 0 0 -1
vn 1 0 0
vn -1 0 0
vn 0 1 0
vn 0 -1 0
vn 0 0 1
vn 0 0 -1
vn 1 0 0
vn -1 0 0
vn 0 1 0
vn 0 -1 0
vn 0 0 1
vn 0 0 -1
g m_d3f712e8-dd0d-ecf0-3f8e-9d2a5fbdeda2
f 5/1/1 3/2/1 2/3/1 4/4/1
f 8/5/2 6/6/2 7/7/2 9/8/2
f 2/9/3 3/10/3 7/11/3 6/12/3
f 5/13/4 4/14/4 8/15/4 9/16/4
f 4/17/5 2/18/5 6/19/5 8/20/5
f 9/21/6 7/22/6 3/23/6 5/24/6
f 13/25/7 11/26/7 10/27/7 12/28/7
f 16/29/8 14/30/8 15/31/8 17/32/8
f 10/33/9 11/34/9 15/35/9 14/36/9
f 13/37/10 12/38/10 16/39/10 17/40/10
f 12/41/11 10/42/11 14/43/11 16/44/11
f 17/45/12 15/46/12 11/47/12 13/48/12
f 21/49/13 19/50/13 18/51/13 20/52/13
f 24/53/14 22/54/14 23/55/14 1/56/14
f 18/57/15 19/58/15 23/59/15 22/60/15
f 21/61/16 20/62/16 24/63/16 1/64/16
f 20/65/17 18/66/17 22/67/17 24/68/17
f 1/69/18 23/70/18 19/71/18 21/72/18