# Converted from B3D for Luanti (With Correct Normals)
# Object Name: multidecor_bathroom_mirror

v 0.750000 0.000000 0.800000
v 0.750000 -0.000000 1.000000
v 0.530330 -0.707107 1.000000
v 0.530330 -0.707107 0.800000
v 0.530330 -0.707107 0.800000
v 0.530330 -0.707107 1.000000
v -0.000000 -1.000000 1.000000
v -0.000000 -1.000000 0.800000
v -0.000000 -1.000000 0.800000
v -0.000000 -1.000000 1.000000
v -0.530330 -0.707107 1.000000
v -0.530330 -0.707107 0.800000
v -0.530330 -0.707107 0.800000
v -0.530330 -0.707107 1.000000
v -0.750000 0.000000 1.000000
v -0.750000 0.000000 0.800000
v -0.750000 0.000000 0.800000
v -0.750000 0.000000 1.000000
v -0.530330 0.707107 1.000000
v -0.530330 0.707107 0.800000
v -0.530330 0.707107 0.800000
v -0.530330 0.707107 1.000000
v 0.000000 1.000000 1.000000
v 0.000000 1.000000 0.800000
v -0.750000 0.000000 1.000000
v -0.530330 -0.707107 1.000000
v 0.750000 -0.000000 1.000000
v 0.000000 1.000000 0.800000
v 0.000000 1.000000 1.000000
v 0.530330 0.707107 1.000000
v 0.530330 0.707107 0.800000
v 0.530330 0.707107 0.800000
v 0.530330 0.707107 1.000000
v 0.750000 -0.000000 1.000000
v 0.750000 0.000000 0.800000
v -0.530330 0.707107 0.800000
v 0.000000 1.000000 0.800000
v 0.530330 0.707107 0.800000
v -0.000000 -1.000000 1.000000
v 0.530330 -0.707107 1.000000
v -0.530330 -0.707107 1.000000
v 0.530330 -0.707107 1.000000
v 0.750000 -0.000000 1.000000
v -0.530330 -0.707107 1.000000
v 0.750000 -0.000000 1.000000
v 0.530330 0.707107 1.000000
v -0.750000 0.000000 1.000000
v 0.530330 0.707107 1.000000
v 0.000000 1.000000 1.000000
v -0.530330 0.707107 1.000000
v -0.750000 0.000000 1.000000
v 0.530330 0.707107 1.000000
v -0.530330 0.707107 1.000000
v 0.530330 0.707107 0.800000
v 0.750000 0.000000 0.800000
v -0.750000 0.000000 0.800000
v 0.750000 0.000000 0.800000
v 0.530330 -0.707107 0.800000
v -0.530330 -0.707107 0.800000
v 0.530330 -0.707107 0.800000
v -0.000000 -1.000000 0.800000
v -0.530330 -0.707107 0.800000
v -0.530330 -0.707107 0.800000
v -0.750000 0.000000 0.800000
v 0.750000 0.000000 0.800000
v -0.750000 0.000000 0.800000
v -0.530330 0.707107 0.800000
v 0.530330 0.707107 0.800000

vt 0.938669 0.185487
vt 0.999854 0.412008
vt 0.938668 0.412008
vt 0.999854 0.185487
vt 0.999854 0.412008
vt 0.938669 0.185487
vt 0.938669 0.000146
vt 0.999854 0.185487
vt 0.938669 0.185487
vt 0.999854 0.000146
vt 0.999854 0.185487
vt 0.938669 0.000146
vt 0.877191 0.638529
vt 0.938376 0.823870
vt 0.877191 0.823870
vt 0.938376 0.638529
vt 0.938376 0.823870
vt 0.877191 0.638529
vt 0.877191 0.412008
vt 0.938376 0.638529
vt 0.877191 0.638529
vt 0.938376 0.412008
vt 0.938376 0.638529
vt 0.877191 0.412008
vt 0.877191 0.185487
vt 0.938376 0.412008
vt 0.877191 0.412008
vt 0.938376 0.185487
vt 0.938376 0.412008
vt 0.877191 0.185487
vt 0.877191 0.000146
vt 0.938376 0.185487
vt 0.877191 0.185487
vt 0.938376 0.000146
vt 0.938376 0.185487
vt 0.877191 0.000146
vt 0.749957 0.616477
vt 0.000087 0.383523
vt 0.219719 0.064146
vt 0.938668 0.638529
vt 0.999854 0.823870
vt 0.938668 0.823870
vt 0.999854 0.638529
vt 0.999854 0.823870
vt 0.938668 0.638529
vt 0.938668 0.412008
vt 0.999854 0.638529
vt 0.938668 0.638529
vt 0.999854 0.412008
vt 0.999854 0.638529
vt 0.938668 0.412008
vt 0.219718 0.935854
vt 0.749957 0.771130
vt 0.530325 0.999913
vt 0.219719 0.064146
vt 0.530325 0.000087
vt 0.749957 0.228870
vt 0.219719 0.064146
vt 0.749957 0.228870
vt 0.749957 0.616477
vt 0.000087 0.383523
vt 0.749957 0.616477
vt 0.530325 0.935854
vt 0.000087 0.771130
vt 0.530325 0.935854
vt 0.219718 0.999913
vt 0.000087 0.771130
vt 0.000087 0.383523
vt 0.530325 0.935854
vt 0.749957 0.383523
vt 0.219718 0.935854
vt 0.000087 0.616477
vt 0.530325 0.064146
vt 0.000087 0.616477
vt 0.000087 0.228870
vt 0.530325 0.064146
vt 0.000087 0.228870
vt 0.219718 0.000087
vt 0.000087 0.616477
vt 0.530325 0.064146
vt 0.749957 0.383523
vt 0.219718 0.935854
vt 0.749957 0.383523
vt 0.749957 0.771130

vn 0.954979 -0.296674 -0.000000
vn 0.954979 -0.296674 -0.000000
vn 0.954979 -0.296674 -0.000000
vn 0.954979 -0.296674 0.000000
vn 0.954979 -0.296674 0.000000
vn 0.954979 -0.296674 0.000000
vn 0.483453 -0.875370 0.000000
vn 0.483453 -0.875370 0.000000
vn 0.483453 -0.875370 0.000000
vn 0.483454 -0.875370 0.000000
vn 0.483454 -0.875370 0.000000
vn 0.483454 -0.875370 0.000000
vn -0.483454 -0.875370 0.000000
vn -0.483454 -0.875370 0.000000
vn -0.483454 -0.875370 0.000000
vn -0.483453 -0.875370 0.000000
vn -0.483453 -0.875370 0.000000
vn -0.483453 -0.875370 0.000000
vn -0.954979 -0.296674 0.000000
vn -0.954979 -0.296674 0.000000
vn -0.954979 -0.296674 0.000000
vn -0.954979 -0.296674 0.000000
vn -0.954979 -0.296674 0.000000
vn -0.954979 -0.296674 0.000000
vn -0.954979 0.296674 0.000000
vn -0.954979 0.296674 0.000000
vn -0.954979 0.296674 0.000000
vn -0.954979 0.296674 0.000000
vn -0.954979 0.296674 0.000000
vn -0.954979 0.296674 0.000000
vn -0.483454 0.875370 0.000000
vn -0.483454 0.875370 0.000000
vn -0.483454 0.875370 0.000000
vn -0.483453 0.875370 0.000000
vn -0.483453 0.875370 0.000000
vn -0.483453 0.875370 0.000000
vn -0.000000 -0.000000 1.000000
vn -0.000000 -0.000000 1.000000
vn -0.000000 -0.000000 1.000000
vn 0.483454 0.875370 -0.000000
vn 0.483454 0.875370 -0.000000
vn 0.483454 0.875370 -0.000000
vn 0.483453 0.875370 0.000000
vn 0.483453 0.875370 0.000000
vn 0.483453 0.875370 0.000000
vn 0.954979 0.296674 0.000000
vn 0.954979 0.296674 0.000000
vn 0.954979 0.296674 0.000000
vn 0.954979 0.296674 0.000000
vn 0.954979 0.296674 0.000000
vn 0.954979 0.296674 0.000000
vn -0.000000 -0.000000 -1.000000
vn -0.000000 -0.000000 -1.000000
vn -0.000000 -0.000000 -1.000000
vn -0.000000 0.000000 1.000000
vn -0.000000 0.000000 1.000000
vn -0.000000 0.000000 1.000000
vn -0.000000 -0.000000 1.000000
vn -0.000000 -0.000000 1.000000
vn -0.000000 -0.000000 1.000000
vn -0.000000 0.000000 1.000000
vn -0.000000 0.000000 1.000000
vn -0.000000 0.000000 1.000000
vn 0.000000 -0.000000 1.000000
vn 0.000000 -0.000000 1.000000
vn 0.000000 -0.000000 1.000000
vn 0.000000 0.000000 1.000000
vn 0.000000 0.000000 1.000000
vn 0.000000 0.000000 1.000000
vn -0.000000 -0.000000 -1.000000
vn -0.000000 -0.000000 -1.000000
vn -0.000000 -0.000000 -1.000000
vn -0.000000 0.000000 -1.000000
vn -0.000000 0.000000 -1.000000
vn -0.000000 0.000000 -1.000000
vn -0.000000 0.000000 -1.000000
vn -0.000000 0.000000 -1.000000
vn -0.000000 0.000000 -1.000000
vn -0.000000 -0.000000 -1.000000
vn -0.000000 -0.000000 -1.000000
vn -0.000000 -0.000000 -1.000000
vn -0.000000 0.000000 -1.000000
vn -0.000000 0.000000 -1.000000
vn -0.000000 0.000000 -1.000000

g Material_0
f 3/1/1 1/2/2 2/3/3
f 4/4/4 1/5/5 3/6/6
f 7/7/7 5/8/8 6/9/9
f 8/10/10 5/11/11 7/12/12
f 11/13/13 9/14/14 10/15/15
f 12/16/16 9/17/17 11/18/18
f 15/19/19 13/20/20 14/21/21
f 16/22/22 13/23/23 15/24/24
f 19/25/25 17/26/26 18/27/27
f 20/28/28 17/29/29 19/30/30
f 23/31/31 21/32/32 22/33/33
f 24/34/34 21/35/35 23/36/36
f 27/37/37 25/38/38 26/39/39
f 30/40/40 28/41/41 29/42/42
f 31/43/43 28/44/44 30/45/45
f 34/46/46 32/47/47 33/48/48
f 35/49/49 32/50/50 34/51/51
f 38/52/52 36/53/53 37/54/54
f 41/55/55 39/56/56 40/57/57
f 44/58/58 42/59/59 43/60/60
f 47/61/61 45/62/62 46/63/63
f 50/64/64 48/65/65 49/66/66
f 53/67/67 51/68/68 52/69/69
f 56/70/70 54/71/71 55/72/72
f 59/73/73 57/74/74 58/75/75
f 62/76/76 60/77/77 61/78/78
f 65/79/79 63/80/80 64/81/81
f 68/82/82 66/83/83 67/84/84

