# Converted from B3D for Luanti (With Correct Normals)
# Object Name: multidecor_modern_sofa_2

v 1.000000 -0.800000 1.000000
v 1.000000 -0.700000 1.000000
v -1.000000 -0.700000 1.000000
v -1.000000 -0.800000 1.000000
v -1.000000 -0.800000 1.000000
v -1.000000 -0.700000 1.000000
v -1.000000 -0.700000 -0.599999
v -1.000000 -0.800000 -0.599999
v -1.000000 -0.800000 -0.599999
v 1.000000 -0.800000 -0.600000
v 1.000000 -0.800000 1.000000
v -1.000000 -0.800000 1.000000
v -1.000000 -0.800000 -0.599999
v -1.000000 -0.700000 -0.599999
v 1.000000 -0.700000 -0.600000
v 1.000000 -0.800000 -0.600000
v 1.000000 -0.400000 -0.600000
v -0.800000 -0.400000 -0.599999
v -0.800000 -0.400000 0.900000
v 1.000000 -0.400000 0.900000
v 1.000000 -0.700000 -0.600000
v -0.800000 -0.700000 -0.599999
v -0.800000 -0.400000 -0.599999
v 1.000000 -0.400000 -0.600000
v -0.800000 -0.700000 0.900000
v 1.000000 -0.700000 0.900000
v 1.000000 -0.400000 0.900000
v -0.800000 -0.400000 0.900000
v -0.800000 0.800000 1.000000
v -1.000000 0.800000 1.000000
v -1.000000 -0.700000 1.000000
v -0.800000 -0.700000 1.000000
v -0.800000 0.800000 0.726829
v -1.000000 0.800000 0.726829
v -1.000000 0.800000 1.000000
v -0.800000 0.800000 1.000000
v -1.000000 -0.700000 -0.600000
v -1.000000 0.300000 -0.600000
v -0.800000 0.300000 -0.600000
v -0.800000 -0.700000 -0.600000
v -0.800000 0.300000 -0.600000
v -1.000000 0.300000 -0.600000
v -1.000000 0.302551 0.238416
v -0.800000 0.302551 0.238416
v -0.800000 0.302551 0.238416
v -1.000000 0.302551 0.238416
v -1.000000 0.453335 0.474199
v -0.800000 0.453335 0.474199
v -0.800000 0.453335 0.474199
v -1.000000 0.453335 0.474199
v -1.000000 0.710306 0.600000
v -0.800000 0.710306 0.600000
v -1.000000 -0.700000 0.726829
v -1.000000 0.800000 0.726829
v -1.000000 0.710306 0.600000
v -1.000000 -0.700000 0.600000
v -1.000000 -0.700000 0.600000
v -1.000000 0.710306 0.600000
v -1.000000 0.453335 0.474199
v -1.000000 -0.700000 0.474199
v -1.000000 -0.700000 0.474199
v -1.000000 0.453335 0.474199
v -1.000000 0.302551 0.238416
v -1.000000 -0.700000 0.238416
v -1.000000 -0.700000 0.238416
v -1.000000 0.302551 0.238416
v -1.000000 0.300000 -0.600000
v -1.000000 -0.700000 -0.600000
v -0.800000 -0.700000 0.726829
v -0.800000 -0.700000 0.600000
v -0.800000 0.710306 0.600000
v -0.800000 0.800000 0.726829
v -0.800000 -0.700000 0.600000
v -0.800000 -0.700000 0.474199
v -0.800000 0.453335 0.474199
v -0.800000 0.710306 0.600000
v -0.800000 -0.700000 0.474199
v -0.800000 -0.700000 0.238416
v -0.800000 0.302551 0.238416
v -0.800000 0.453335 0.474199
v -0.800000 -0.700000 0.238416
v -0.800000 -0.700000 -0.600000
v -0.800000 0.300000 -0.600000
v -0.800000 0.302551 0.238416
v -0.800000 -0.700000 1.000000
v -0.800000 -0.700000 0.726829
v -0.800000 0.800000 0.726829
v -0.800000 0.800000 1.000000
v -1.000000 -0.700000 1.000000
v -1.000000 0.800000 1.000000
v -1.000000 0.800000 0.726829
v -1.000000 -0.700000 0.726829
v -0.800000 0.710306 0.600000
v -1.000000 0.710306 0.600000
v -1.000000 0.800000 0.726829
v -0.800000 0.800000 0.726829
v -0.800000 -0.700000 0.900000
v -0.800000 0.800000 0.900000
v 1.000000 0.800000 0.900000
v 1.000000 -0.700000 0.900000
v 1.000000 -0.700000 1.000000
v 1.000000 0.800000 1.000000
v -0.800000 0.800000 1.000000
v -0.800000 -0.700000 1.000000
v 1.000000 0.800000 0.900000
v -0.800000 0.800000 0.900000
v -0.800000 0.800000 1.000000
v 1.000000 0.800000 1.000000
v -0.885435 -1.000000 -0.485435
v -0.835435 -0.800000 -0.435435
v -1.000000 -0.800000 -0.435434
v -1.000000 -1.000000 -0.485435
v -1.000000 -1.000000 -0.485435
v -1.000000 -0.800000 -0.435434
v -1.000000 -0.800000 -0.599999
v -1.000000 -1.000000 -0.599999
v -1.000000 -1.000000 -0.599999
v -1.000000 -0.800000 -0.599999
v -0.835435 -0.800000 -0.599999
v -0.885435 -1.000000 -0.599999
v -0.885435 -1.000000 -0.599999
v -0.835435 -0.800000 -0.599999
v -0.835435 -0.800000 -0.435435
v -0.885435 -1.000000 -0.485435
v -1.000000 -1.000000 -0.485435
v -1.000000 -1.000000 -0.599999
v -0.885435 -1.000000 -0.599999
v -0.885435 -1.000000 -0.485435
v -0.885435 -1.000000 0.885435
v -0.835435 -0.800000 0.835435
v -0.835435 -0.800000 1.000000
v -0.885435 -1.000000 1.000000
v -0.885435 -1.000000 1.000000
v -0.835435 -0.800000 1.000000
v -1.000000 -0.800000 1.000000
v -1.000000 -1.000000 1.000000
v -1.000000 -1.000000 1.000000
v -1.000000 -0.800000 1.000000
v -1.000000 -0.800000 0.835435
v -1.000000 -1.000000 0.885435
v -1.000000 -1.000000 0.885435
v -1.000000 -0.800000 0.835435
v -0.835435 -0.800000 0.835435
v -0.885435 -1.000000 0.885435
v -0.885435 -1.000000 1.000000
v -1.000000 -1.000000 1.000000
v -1.000000 -1.000000 0.885435
v -0.885435 -1.000000 0.885435
v -0.266667 -0.400000 0.400000
v -0.266666 -0.383333 0.837500
v -0.711111 -0.377778 0.816667
v -0.733333 -0.383333 0.400000
v -0.556423 0.080170 0.671647
v -0.711111 -0.022222 0.816667
v -0.266666 -0.016667 0.837500
v -0.800000 -0.133333 0.400000
v -0.733333 -0.133333 0.837500
v -0.711111 -0.022222 0.816667
v -0.733333 -0.016667 0.400000
v 0.466667 -0.133333 0.900000
v 0.933334 -0.133333 0.837500
v 0.911111 -0.022222 0.816667
v 0.466667 -0.016667 0.837500
v -0.266667 -0.133333 -0.600000
v -0.733334 -0.133333 -0.537499
v -0.711111 -0.022222 -0.516666
v -0.266667 -0.016667 -0.537500
v 1.000000 -0.133333 -0.100000
v 0.933333 -0.133333 -0.537500
v 0.911111 -0.022222 -0.516667
v 0.933333 -0.016667 -0.100000
v 0.933334 -0.133333 0.837500
v 1.000000 -0.133333 0.400000
v 0.933334 -0.016667 0.400000
v 0.911111 -0.022222 0.816667
v 1.000000 -0.133333 0.400000
v 1.000000 -0.133333 -0.100000
v 0.933333 -0.016667 -0.100000
v 0.933334 -0.016667 0.400000
v 0.911111 -0.377778 0.816667
v 0.933334 -0.383333 0.400000
v 1.000000 -0.266667 0.400000
v 0.933334 -0.266667 0.837500
v 0.933334 -0.266667 0.837500
v 1.000000 -0.266667 0.400000
v 1.000000 -0.133333 0.400000
v 0.933334 -0.133333 0.837500
v 0.933334 -0.383333 0.400000
v 0.933333 -0.383333 -0.100000
v 1.000000 -0.266667 -0.100000
v 1.000000 -0.266667 0.400000
v 1.000000 -0.266667 0.400000
v 1.000000 -0.266667 -0.100000
v 1.000000 -0.133333 -0.100000
v 1.000000 -0.133333 0.400000
v 0.933333 -0.383333 -0.100000
v 0.911111 -0.377778 -0.516667
v 0.933333 -0.266667 -0.537500
v 1.000000 -0.266667 -0.100000
v 1.000000 -0.266667 -0.100000
v 0.933333 -0.266667 -0.537500
v 0.933333 -0.133333 -0.537500
v 1.000000 -0.133333 -0.100000
v 0.933333 -0.133333 -0.537500
v 0.466666 -0.133333 -0.600000
v 0.466666 -0.016667 -0.537500
v 0.911111 -0.022222 -0.516667
v 0.466666 -0.133333 -0.600000
v -0.266667 -0.133333 -0.600000
v -0.266667 -0.016667 -0.537500
v 0.466666 -0.016667 -0.537500
v 0.911111 -0.377778 -0.516667
v 0.466666 -0.383333 -0.537500
v 0.466666 -0.266667 -0.600000
v 0.933333 -0.266667 -0.537500
v 0.933333 -0.266667 -0.537500
v 0.466666 -0.266667 -0.600000
v 0.466666 -0.133333 -0.600000
v 0.933333 -0.133333 -0.537500
v 0.466666 -0.383333 -0.537500
v -0.266667 -0.383333 -0.537500
v -0.266667 -0.266667 -0.600000
v 0.466666 -0.266667 -0.600000
v 0.466666 -0.266667 -0.600000
v -0.266667 -0.266667 -0.600000
v -0.266667 -0.133333 -0.600000
v 0.466666 -0.133333 -0.600000
v -0.266667 -0.383333 -0.537500
v -0.711111 -0.377778 -0.516666
v -0.733334 -0.266667 -0.537499
v -0.266667 -0.266667 -0.600000
v -0.266667 -0.266667 -0.600000
v -0.733334 -0.266667 -0.537499
v -0.733334 -0.133333 -0.537499
v -0.266667 -0.133333 -0.600000
v -0.733333 -0.133333 0.837500
v -0.266666 -0.133333 0.900000
v -0.266666 -0.016667 0.837500
v -0.711111 -0.022222 0.816667
v -0.266666 -0.133333 0.900000
v 0.466667 -0.133333 0.900000
v 0.466667 -0.016667 0.837500
v -0.266666 -0.016667 0.837500
v -0.711111 -0.377778 0.816667
v -0.266666 -0.383333 0.837500
v -0.266666 -0.266667 0.900000
v -0.733333 -0.266667 0.837500
v -0.733333 -0.266667 0.837500
v -0.266666 -0.266667 0.900000
v -0.266666 -0.133333 0.900000
v -0.733333 -0.133333 0.837500
v -0.266666 -0.383333 0.837500
v 0.466667 -0.383333 0.837500
v 0.466667 -0.266667 0.900000
v -0.266666 -0.266667 0.900000
v -0.266666 -0.266667 0.900000
v 0.466667 -0.266667 0.900000
v 0.466667 -0.133333 0.900000
v -0.266666 -0.133333 0.900000
v 0.466667 -0.383333 0.837500
v 0.911111 -0.377778 0.816667
v 0.933334 -0.266667 0.837500
v 0.466667 -0.266667 0.900000
v 0.466667 -0.266667 0.900000
v 0.933334 -0.266667 0.837500
v 0.933334 -0.133333 0.837500
v 0.466667 -0.133333 0.900000
v -0.733334 -0.133333 -0.537499
v -0.800000 -0.133333 -0.099999
v -0.733333 -0.016667 -0.100000
v -0.711111 -0.022222 -0.516666
v -0.800000 -0.133333 -0.099999
v -0.800000 -0.133333 0.400000
v -0.733333 -0.016667 0.400000
v -0.733333 -0.016667 -0.100000
v -0.711111 -0.377778 -0.516666
v -0.733333 -0.383333 -0.100000
v -0.800000 -0.266667 -0.099999
v -0.733334 -0.266667 -0.537499
v -0.733334 -0.266667 -0.537499
v -0.800000 -0.266667 -0.099999
v -0.800000 -0.133333 -0.099999
v -0.733334 -0.133333 -0.537499
v -0.733333 -0.383333 -0.100000
v -0.733333 -0.383333 0.400000
v -0.800000 -0.266667 0.400000
v -0.800000 -0.266667 -0.099999
v -0.800000 -0.266667 -0.099999
v -0.800000 -0.266667 0.400000
v -0.800000 -0.133333 0.400000
v -0.800000 -0.133333 -0.099999
v -0.733333 -0.383333 0.400000
v -0.711111 -0.377778 0.816667
v -0.733333 -0.266667 0.837500
v -0.800000 -0.266667 0.400000
v -0.800000 -0.266667 0.400000
v -0.733333 -0.266667 0.837500
v -0.733333 -0.133333 0.837500
v -0.800000 -0.133333 0.400000
v 0.756424 0.080170 0.671647
v 0.911111 -0.022222 0.816667
v 0.933334 -0.016667 0.400000
v 0.756424 0.080170 0.671647
v -0.556423 0.080170 0.671647
v -0.266666 -0.016667 0.837500
v 0.466667 -0.016667 0.837500
v 0.911111 -0.022222 -0.516667
v 0.756423 0.080170 -0.371647
v 0.933333 -0.016667 -0.100000
v 0.933333 -0.016667 -0.100000
v 0.756423 0.080170 -0.371647
v 0.756424 0.080170 0.671647
v 0.933334 -0.016667 0.400000
v 0.466666 -0.016667 -0.537500
v -0.266667 -0.016667 -0.537500
v -0.556424 0.080170 -0.371647
v 0.756423 0.080170 -0.371647
v 0.756423 0.080170 -0.371647
v -0.556424 0.080170 -0.371647
v -0.556423 0.080170 0.671647
v 0.756424 0.080170 0.671647
v -0.711111 -0.022222 -0.516666
v -0.556424 0.080170 -0.371647
v -0.266667 -0.016667 -0.537500
v -0.556424 0.080170 -0.371647
v -0.733333 -0.016667 -0.100000
v -0.733333 -0.016667 0.400000
v -0.556423 0.080170 0.671647
v -0.266667 -0.383333 -0.537500
v -0.266667 -0.400000 -0.100000
v -0.733333 -0.383333 -0.100000
v -0.711111 -0.377778 -0.516666
v -0.266667 -0.400000 -0.100000
v -0.266667 -0.400000 0.400000
v -0.733333 -0.383333 0.400000
v -0.733333 -0.383333 -0.100000
v 0.911111 -0.377778 -0.516667
v 0.933333 -0.383333 -0.100000
v 0.466667 -0.400000 -0.100000
v 0.466666 -0.383333 -0.537500
v 0.466666 -0.383333 -0.537500
v 0.466667 -0.400000 -0.100000
v -0.266667 -0.400000 -0.100000
v -0.266667 -0.383333 -0.537500
v 0.933333 -0.383333 -0.100000
v 0.933334 -0.383333 0.400000
v 0.466667 -0.400000 0.400000
v 0.466667 -0.400000 -0.100000
v 0.466667 -0.400000 -0.100000
v 0.466667 -0.400000 0.400000
v -0.266667 -0.400000 0.400000
v -0.266667 -0.400000 -0.100000
v 0.933334 -0.383333 0.400000
v 0.911111 -0.377778 0.816667
v 0.466667 -0.383333 0.837500
v 0.466667 -0.400000 0.400000
v 0.466667 -0.400000 0.400000
v 0.466667 -0.383333 0.837500
v -0.266666 -0.383333 0.837500
v -0.266667 -0.400000 0.400000
v -0.556423 0.080170 0.671647
v -0.733333 -0.016667 0.400000
v -0.711111 -0.022222 0.816667
v 0.756424 0.080170 0.671647
v 0.466667 -0.016667 0.837500
v 0.911111 -0.022222 0.816667
v 0.911111 -0.022222 -0.516667
v 0.466666 -0.016667 -0.537500
v 0.756423 0.080170 -0.371647
v -0.711111 -0.022222 -0.516666
v -0.733333 -0.016667 -0.100000
v -0.556424 0.080170 -0.371647
v -0.266666 0.801817 0.916667
v -0.266666 1.151817 0.900000
v -0.711111 1.135150 0.894445
v -0.733333 0.801817 0.900000
v -0.556423 1.019134 0.436497
v -0.711111 1.135150 0.538889
v -0.266666 1.151817 0.533333
v -0.800000 0.801817 0.650000
v -0.733333 1.151817 0.650000
v -0.711111 1.135150 0.538889
v -0.733333 0.801817 0.533334
v 0.466667 1.201817 0.650000
v 0.933334 1.151817 0.650000
v 0.911111 1.135150 0.538889
v 0.466667 1.151817 0.533333
v -0.266666 0.001817 0.650000
v -0.733333 0.051817 0.650000
v -0.711111 0.068484 0.538889
v -0.266666 0.051817 0.533333
v 1.000000 0.401817 0.650000
v 0.933334 0.051817 0.650000
v 0.911111 0.068484 0.538889
v 0.933334 0.401817 0.533333
v 0.933334 1.151817 0.650000
v 1.000000 0.801817 0.650000
v 0.933334 0.801817 0.533333
v 0.911111 1.135150 0.538889
v 1.000000 0.801817 0.650000
v 1.000000 0.401817 0.650000
v 0.933334 0.401817 0.533333
v 0.933334 0.801817 0.533333
v 0.911111 1.135150 0.894444
v 0.933334 0.801817 0.900000
v 1.000000 0.801817 0.783333
v 0.933334 1.151817 0.783333
v 0.933334 1.151817 0.783333
v 1.000000 0.801817 0.783333
v 1.000000 0.801817 0.650000
v 0.933334 1.151817 0.650000
v 0.933334 0.801817 0.900000
v 0.933334 0.401817 0.900000
v 1.000000 0.401817 0.783333
v 1.000000 0.801817 0.783333
v 1.000000 0.801817 0.783333
v 1.000000 0.401817 0.783333
v 1.000000 0.401817 0.650000
v 1.000000 0.801817 0.650000
v 0.933334 0.401817 0.900000
v 0.911111 0.068484 0.894444
v 0.933334 0.051817 0.783333
v 1.000000 0.401817 0.783333
v 1.000000 0.401817 0.783333
v 0.933334 0.051817 0.783333
v 0.933334 0.051817 0.650000
v 1.000000 0.401817 0.650000
v 0.933334 0.051817 0.650000
v 0.466667 0.001817 0.650000
v 0.466667 0.051817 0.533333
v 0.911111 0.068484 0.538889
v 0.466667 0.001817 0.650000
v -0.266666 0.001817 0.650000
v -0.266666 0.051817 0.533333
v 0.466667 0.051817 0.533333
v 0.911111 0.068484 0.894444
v 0.466667 0.051817 0.900000
v 0.466667 0.001817 0.783333
v 0.933334 0.051817 0.783333
v 0.933334 0.051817 0.783333
v 0.466667 0.001817 0.783333
v 0.466667 0.001817 0.650000
v 0.933334 0.051817 0.650000
v 0.466667 0.051817 0.900000
v -0.266666 0.051817 0.900000
v -0.266666 0.001817 0.783333
v 0.466667 0.001817 0.783333
v 0.466667 0.001817 0.783333
v -0.266666 0.001817 0.783333
v -0.266666 0.001817 0.650000
v 0.466667 0.001817 0.650000
v -0.266666 0.051817 0.900000
v -0.711111 0.068484 0.894445
v -0.733333 0.051817 0.783334
v -0.266666 0.001817 0.783333
v -0.266666 0.001817 0.783333
v -0.733333 0.051817 0.783334
v -0.733333 0.051817 0.650000
v -0.266666 0.001817 0.650000
v -0.733333 1.151817 0.650000
v -0.266666 1.201817 0.650000
v -0.266666 1.151817 0.533333
v -0.711111 1.135150 0.538889
v -0.266666 1.201817 0.650000
v 0.466667 1.201817 0.650000
v 0.466667 1.151817 0.533333
v -0.266666 1.151817 0.533333
v -0.711111 1.135150 0.894445
v -0.266666 1.151817 0.900000
v -0.266666 1.201817 0.783333
v -0.733333 1.151817 0.783334
v -0.733333 1.151817 0.783334
v -0.266666 1.201817 0.783333
v -0.266666 1.201817 0.650000
v -0.733333 1.151817 0.650000
v -0.266666 1.151817 0.900000
v 0.466667 1.151817 0.900000
v 0.466667 1.201817 0.783333
v -0.266666 1.201817 0.783333
v -0.266666 1.201817 0.783333
v 0.466667 1.201817 0.783333
v 0.466667 1.201817 0.650000
v -0.266666 1.201817 0.650000
v 0.466667 1.151817 0.900000
v 0.911111 1.135150 0.894444
v 0.933334 1.151817 0.783333
v 0.466667 1.201817 0.783333
v 0.466667 1.201817 0.783333
v 0.933334 1.151817 0.783333
v 0.933334 1.151817 0.650000
v 0.466667 1.201817 0.650000
v -0.733333 0.051817 0.650000
v -0.800000 0.401817 0.650000
v -0.733333 0.401817 0.533334
v -0.711111 0.068484 0.538889
v -0.800000 0.401817 0.650000
v -0.800000 0.801817 0.650000
v -0.733333 0.801817 0.533334
v -0.733333 0.401817 0.533334
v -0.711111 0.068484 0.894445
v -0.733333 0.401817 0.900000
v -0.800000 0.401817 0.783334
v -0.733333 0.051817 0.783334
v -0.733333 0.051817 0.783334
v -0.800000 0.401817 0.783334
v -0.800000 0.401817 0.650000
v -0.733333 0.051817 0.650000
v -0.733333 0.401817 0.900000
v -0.733333 0.801817 0.900000
v -0.800000 0.801817 0.783334
v -0.800000 0.401817 0.783334
v -0.800000 0.401817 0.783334
v -0.800000 0.801817 0.783334
v -0.800000 0.801817 0.650000
v -0.800000 0.401817 0.650000
v -0.733333 0.801817 0.900000
v -0.711111 1.135150 0.894445
v -0.733333 1.151817 0.783334
v -0.800000 0.801817 0.783334
v -0.800000 0.801817 0.783334
v -0.733333 1.151817 0.783334
v -0.733333 1.151817 0.650000
v -0.800000 0.801817 0.650000
v 0.756424 1.019134 0.436497
v 0.911111 1.135150 0.538889
v 0.933334 0.801817 0.533333
v 0.756424 1.019134 0.436497
v -0.556423 1.019134 0.436497
v -0.266666 1.151817 0.533333
v 0.466667 1.151817 0.533333
v 0.911111 0.068484 0.538889
v 0.756424 0.184499 0.436497
v 0.933334 0.401817 0.533333
v 0.933334 0.401817 0.533333
v 0.756424 0.184499 0.436497
v 0.756424 1.019134 0.436497
v 0.933334 0.801817 0.533333
v 0.466667 0.051817 0.533333
v -0.266666 0.051817 0.533333
v -0.556423 0.184499 0.436497
v 0.756424 0.184499 0.436497
v 0.756424 0.184499 0.436497
v -0.556423 0.184499 0.436497
v -0.556423 1.019134 0.436497
v 0.756424 1.019134 0.436497
v -0.711111 0.068484 0.538889
v -0.556423 0.184499 0.436497
v -0.266666 0.051817 0.533333
v -0.556423 0.184499 0.436497
v -0.733333 0.401817 0.533334
v -0.733333 0.801817 0.533334
v -0.556423 1.019134 0.436497
v -0.266666 0.051817 0.900000
v -0.266666 0.401817 0.916667
v -0.733333 0.401817 0.900000
v -0.711111 0.068484 0.894445
v -0.266666 0.401817 0.916667
v -0.266666 0.801817 0.916667
v -0.733333 0.801817 0.900000
v -0.733333 0.401817 0.900000
v 0.911111 0.068484 0.894444
v 0.933334 0.401817 0.900000
v 0.466667 0.401817 0.916667
v 0.466667 0.051817 0.900000
v 0.466667 0.051817 0.900000
v 0.466667 0.401817 0.916667
v -0.266666 0.401817 0.916667
v -0.266666 0.051817 0.900000
v 0.933334 0.401817 0.900000
v 0.933334 0.801817 0.900000
v 0.466667 0.801817 0.916667
v 0.466667 0.401817 0.916667
v 0.466667 0.401817 0.916667
v 0.466667 0.801817 0.916667
v -0.266666 0.801817 0.916667
v -0.266666 0.401817 0.916667
v 0.933334 0.801817 0.900000
v 0.911111 1.135150 0.894444
v 0.466667 1.151817 0.900000
v 0.466667 0.801817 0.916667
v 0.466667 0.801817 0.916667
v 0.466667 1.151817 0.900000
v -0.266666 1.151817 0.900000
v -0.266666 0.801817 0.916667
v -0.556423 1.019134 0.436497
v -0.733333 0.801817 0.533334
v -0.711111 1.135150 0.538889
v 0.756424 1.019134 0.436497
v 0.466667 1.151817 0.533333
v 0.911111 1.135150 0.538889
v 0.911111 0.068484 0.538889
v 0.466667 0.051817 0.533333
v 0.756424 0.184499 0.436497
v -0.711111 0.068484 0.538889
v -0.733333 0.401817 0.533334
v -0.556423 0.184499 0.436497

vt 0.036945 0.667371
vt 0.757990 0.631319
vt 0.757990 0.667371
vt 0.036945 0.631319
vt 0.757990 0.631319
vt 0.036945 0.667371
vt 0.000893 0.054484
vt 0.036945 0.631319
vt 0.000893 0.631319
vt 0.036945 0.054484
vt 0.036945 0.631319
vt 0.000893 0.054484
vt 0.757990 0.631319
vt 0.036945 0.054484
vt 0.757989 0.054483
vt 0.036945 0.631319
vt 0.036945 0.054484
vt 0.757990 0.631319
vt 0.757989 0.018431
vt 0.036945 0.054484
vt 0.036945 0.018431
vt 0.757989 0.054483
vt 0.036945 0.054484
vt 0.757989 0.018431
vt 0.386274 0.559680
vt 0.479250 0.584637
vt 0.402565 0.624845
vt 0.467908 0.539271
vt 0.479250 0.584637
vt 0.386274 0.559680
vt 0.386274 0.492509
vt 0.467908 0.539271
vt 0.386274 0.559680
vt 0.467908 0.492509
vt 0.467908 0.539271
vt 0.386274 0.492509
vt 0.386274 0.425338
vt 0.467908 0.492509
vt 0.386274 0.492509
vt 0.467908 0.445747
vt 0.467908 0.492509
vt 0.386274 0.425338
vt 0.402565 0.360173
vt 0.467908 0.445747
vt 0.386274 0.425338
vt 0.479250 0.400381
vt 0.467908 0.445747
vt 0.402565 0.360173
vt 0.514670 0.492509
vt 0.467908 0.539271
vt 0.467908 0.492509
vt 0.514670 0.539271
vt 0.467908 0.539271
vt 0.514670 0.492509
vt 0.257568 0.559680
vt 0.350543 0.584637
vt 0.273859 0.624845
vt 0.339202 0.539271
vt 0.350543 0.584637
vt 0.257568 0.559680
vt 0.257568 0.492509
vt 0.339202 0.539271
vt 0.257568 0.559680
vt 0.339202 0.492509
vt 0.339202 0.539271
vt 0.257568 0.492509
vt 0.257568 0.425338
vt 0.339202 0.492509
vt 0.257568 0.492509
vt 0.339202 0.445747
vt 0.339202 0.492509
vt 0.257568 0.425338
vt 0.273859 0.360173
vt 0.339202 0.445747
vt 0.257568 0.425338
vt 0.350543 0.400381
vt 0.339202 0.445747
vt 0.273859 0.360173
vt 0.339202 0.445747
vt 0.385964 0.492509
vt 0.339202 0.492509
vt 0.385964 0.445747
vt 0.385964 0.492509
vt 0.339202 0.445747
vt 0.257835 0.241747
vt -0.031765 0.000413
vt 0.257836 0.000413
vt -0.031765 0.241747
vt -0.031765 0.000413
vt 0.257835 0.241747
vt 0.999587 0.000413
vt 0.951320 0.290013
vt 0.951320 0.000413
vt 0.999587 0.290013
vt 0.951320 0.290013
vt 0.999587 0.000413
vt -0.031765 0.241747
vt 0.257835 0.290013
vt -0.031765 0.290013
vt 0.257835 0.241747
vt 0.257835 0.290013
vt -0.031765 0.241747
vt 0.940809 0.995112
vt 0.972986 0.753778
vt 0.940809 0.753778
vt 0.972986 0.995112
vt 0.972986 0.753778
vt 0.940809 0.995112
vt 0.996129 0.258662
vt 0.963951 0.302612
vt 0.996129 0.302612
vt 0.963951 0.258662
vt 0.963951 0.302612
vt 0.996129 0.258662
vt 0.963951 0.553558
vt 0.996129 0.714447
vt 0.996129 0.553558
vt 0.963951 0.714447
vt 0.996129 0.714447
vt 0.963951 0.553558
vt 0.996129 0.418666
vt 0.963951 0.553558
vt 0.996129 0.553558
vt 0.963951 0.418666
vt 0.963951 0.553558
vt 0.996129 0.418666
vt 0.996129 0.373637
vt 0.963951 0.418666
vt 0.996129 0.418666
vt 0.963951 0.373637
vt 0.963951 0.418666
vt 0.996129 0.373637
vt 0.996129 0.327605
vt 0.963951 0.373637
vt 0.996129 0.373637
vt 0.963951 0.327605
vt 0.963951 0.373637
vt 0.996129 0.327605
vt 0.273093 0.323018
vt 0.499995 0.302612
vt 0.258662 0.302612
vt 0.499995 0.323018
vt 0.499995 0.302612
vt 0.273093 0.323018
vt 0.314436 0.343258
vt 0.499995 0.323018
vt 0.273093 0.323018
vt 0.499995 0.343258
vt 0.499995 0.323018
vt 0.314436 0.343258
vt 0.338696 0.381193
vt 0.499995 0.343258
vt 0.314436 0.343258
vt 0.499995 0.381193
vt 0.499995 0.343258
vt 0.338696 0.381193
vt 0.339106 0.516084
vt 0.499995 0.381193
vt 0.338696 0.381193
vt 0.499995 0.516085
vt 0.499995 0.381193
vt 0.339106 0.516084
vt 0.014844 0.483906
vt 0.241747 0.504312
vt 0.241747 0.483906
vt 0.000413 0.504312
vt 0.241747 0.504312
vt 0.014844 0.483906
vt 0.056188 0.463666
vt 0.241747 0.483906
vt 0.241747 0.463666
vt 0.014844 0.483906
vt 0.241747 0.483906
vt 0.056188 0.463666
vt 0.080447 0.425731
vt 0.241747 0.463666
vt 0.241747 0.425731
vt 0.056188 0.463666
vt 0.241747 0.463666
vt 0.080447 0.425731
vt 0.080858 0.290839
vt 0.241747 0.425731
vt 0.241747 0.290840
vt 0.080447 0.425731
vt 0.241747 0.425731
vt 0.080858 0.290839
vt 0.000413 0.504312
vt 0.241747 0.548262
vt 0.241747 0.504312
vt 0.000413 0.548262
vt 0.241747 0.548262
vt 0.000413 0.504312
vt 0.258662 0.302612
vt 0.499995 0.258662
vt 0.258662 0.258662
vt 0.499995 0.302612
vt 0.499995 0.258662
vt 0.258662 0.302612
vt 0.996129 0.302612
vt 0.963951 0.327605
vt 0.996129 0.327605
vt 0.963951 0.302612
vt 0.963951 0.327605
vt 0.996129 0.302612
vt 0.226484 0.241747
vt 0.516084 0.000413
vt 0.516084 0.241747
vt 0.226484 0.000413
vt 0.516084 0.000413
vt 0.226484 0.241747
vt 0.258662 0.758244
vt 0.548262 0.516911
vt 0.548262 0.758244
vt 0.258662 0.516911
vt 0.548262 0.516911
vt 0.258662 0.758244
vt 0.516084 0.257836
vt 0.226484 0.241747
vt 0.516084 0.241747
vt 0.226484 0.257836
vt 0.226484 0.241747
vt 0.516084 0.257836
vt 0.218362 0.781549
vt 0.151278 0.710004
vt 0.221711 0.710022
vt 0.151304 0.785126
vt 0.151278 0.710004
vt 0.218362 0.781549
vt 0.746563 0.595977
vt 0.715664 0.549359
vt 0.744187 0.524427
vt 0.872173 0.756778
vt 0.853293 0.825015
vt 0.853598 0.753832
vt 0.874762 0.824422
vt 0.853293 0.825015
vt 0.872173 0.756778
vt 0.827538 0.265629
vt 0.846290 0.193089
vt 0.845933 0.268964
vt 0.824958 0.193773
vt 0.846290 0.193089
vt 0.827538 0.265629
vt 0.820430 0.003689
vt 0.801707 0.076196
vt 0.801952 0.000454
vt 0.822880 0.075701
vt 0.801707 0.076196
vt 0.820430 0.003689
vt 0.890285 0.969114
vt 0.908980 0.901095
vt 0.908763 0.972176
vt 0.887433 0.901782
vt 0.908980 0.901095
vt 0.890285 0.969114
vt 0.887515 0.827584
vt 0.909081 0.757134
vt 0.909204 0.828303
vt 0.890535 0.760150
vt 0.909081 0.757134
vt 0.887515 0.827584
vt 0.891441 0.904469
vt 0.913149 0.825216
vt 0.912949 0.904175
vt 0.891560 0.824898
vt 0.913149 0.825216
vt 0.891441 0.904469
vt 0.906590 0.828233
vt 0.925285 0.760215
vt 0.928137 0.827546
vt 0.906808 0.757153
vt 0.925285 0.760215
vt 0.906590 0.828233
vt 0.897201 0.829906
vt 0.918799 0.758678
vt 0.918522 0.829867
vt 0.897041 0.758631
vt 0.918799 0.758678
vt 0.897201 0.829906
vt 0.902421 0.904113
vt 0.924129 0.824860
vt 0.924010 0.904431
vt 0.902621 0.825154
vt 0.924129 0.824860
vt 0.902421 0.904113
vt 0.897056 0.904314
vt 0.918514 0.825015
vt 0.918353 0.904269
vt 0.897217 0.825059
vt 0.918514 0.825015
vt 0.897056 0.904314
vt 0.906489 0.972194
vt 0.928055 0.901745
vt 0.925035 0.969178
vt 0.906366 0.901025
vt 0.928055 0.901745
vt 0.906489 0.972194
vt 0.896772 0.970651
vt 0.918369 0.899422
vt 0.918529 0.970698
vt 0.897049 0.899462
vt 0.918369 0.899422
vt 0.896772 0.970651
vt 0.821543 0.193801
vt 0.800357 0.269046
vt 0.800122 0.193084
vt 0.818807 0.265746
vt 0.800357 0.269046
vt 0.821543 0.193801
vt 0.822880 0.075701
vt 0.801565 0.193059
vt 0.801707 0.076196
vt 0.822843 0.193372
vt 0.801565 0.193059
vt 0.822880 0.075701
vt 0.781653 0.193089
vt 0.762902 0.265629
vt 0.760322 0.193773
vt 0.781297 0.268964
vt 0.762902 0.265629
vt 0.781653 0.193089
vt 0.801641 0.192898
vt 0.780021 0.268667
vt 0.780140 0.192901
vt 0.801668 0.268692
vt 0.780021 0.268667
vt 0.801641 0.192898
vt 0.780374 0.076232
vt 0.759033 0.193390
vt 0.759070 0.075719
vt 0.780232 0.193095
vt 0.759033 0.193390
vt 0.780374 0.076232
vt 0.801707 0.076196
vt 0.780195 0.192806
vt 0.780374 0.076232
vt 0.801528 0.192770
vt 0.780195 0.192806
vt 0.801707 0.076196
vt 0.780221 0.000413
vt 0.759070 0.075719
vt 0.761710 0.003605
vt 0.780374 0.076232
vt 0.759070 0.075719
vt 0.780221 0.000413
vt 0.801952 0.000454
vt 0.780374 0.076232
vt 0.780221 0.000413
vt 0.801707 0.076196
vt 0.780374 0.076232
vt 0.801952 0.000454
vt 0.823707 0.075719
vt 0.844858 0.000413
vt 0.845010 0.076232
vt 0.826346 0.003605
vt 0.844858 0.000413
vt 0.823707 0.075719
vt 0.823669 0.193390
vt 0.845010 0.076232
vt 0.844869 0.193095
vt 0.823707 0.075719
vt 0.845010 0.076232
vt 0.823669 0.193390
vt 0.866343 0.076196
vt 0.885067 0.003689
vt 0.887517 0.075701
vt 0.866588 0.000454
vt 0.885067 0.003689
vt 0.866343 0.076196
vt 0.845010 0.076232
vt 0.866588 0.000454
vt 0.866343 0.076196
vt 0.844858 0.000413
vt 0.866588 0.000454
vt 0.845010 0.076232
vt 0.866202 0.193059
vt 0.887517 0.075701
vt 0.887480 0.193372
vt 0.866343 0.076196
vt 0.887517 0.075701
vt 0.866202 0.193059
vt 0.844832 0.192806
vt 0.866343 0.076196
vt 0.866164 0.192770
vt 0.845010 0.076232
vt 0.866343 0.076196
vt 0.844832 0.192806
vt 0.864994 0.269046
vt 0.886179 0.193801
vt 0.883443 0.265746
vt 0.864758 0.193084
vt 0.886179 0.193801
vt 0.864994 0.269046
vt 0.844657 0.268667
vt 0.866277 0.192898
vt 0.866305 0.268692
vt 0.844777 0.192901
vt 0.866277 0.192898
vt 0.844657 0.268667
vt 0.874762 0.904887
vt 0.853321 0.975551
vt 0.853132 0.904269
vt 0.871941 0.972660
vt 0.853321 0.975551
vt 0.874762 0.904887
vt 0.874762 0.824422
vt 0.853132 0.904269
vt 0.853293 0.825015
vt 0.874762 0.904887
vt 0.853132 0.904269
vt 0.874762 0.824422
vt 0.831835 0.904314
vt 0.812956 0.972550
vt 0.810367 0.904907
vt 0.831530 0.975497
vt 0.812956 0.972550
vt 0.831835 0.904314
vt 0.853132 0.904269
vt 0.831530 0.975497
vt 0.831835 0.904314
vt 0.853321 0.975551
vt 0.831530 0.975497
vt 0.853132 0.904269
vt 0.831996 0.825059
vt 0.810367 0.904907
vt 0.810367 0.824441
vt 0.831835 0.904314
vt 0.810367 0.904907
vt 0.831996 0.825059
vt 0.853293 0.825015
vt 0.831835 0.904314
vt 0.831996 0.825059
vt 0.853132 0.904269
vt 0.831835 0.904314
vt 0.853293 0.825015
vt 0.831807 0.753778
vt 0.810367 0.824441
vt 0.813188 0.756669
vt 0.831996 0.825059
vt 0.810367 0.824441
vt 0.831807 0.753778
vt 0.853598 0.753832
vt 0.831996 0.825059
vt 0.831807 0.753778
vt 0.853293 0.825015
vt 0.831996 0.825059
vt 0.853598 0.753832
vt 0.671322 0.788218
vt 0.715026 0.755771
vt 0.738408 0.785578
vt 0.746563 0.595977
vt 0.715664 0.760581
vt 0.715664 0.549359
vt 0.746563 0.713963
vt 0.715664 0.760581
vt 0.746563 0.595977
vt 0.592152 0.788219
vt 0.525066 0.785578
vt 0.548447 0.755771
vt 0.715664 0.756629
vt 0.591515 0.789077
vt 0.547810 0.756629
vt 0.671959 0.789077
vt 0.591515 0.789077
vt 0.715664 0.756629
vt 0.547810 0.549359
vt 0.516910 0.713963
vt 0.516910 0.595977
vt 0.547810 0.760581
vt 0.516910 0.713963
vt 0.547810 0.549359
vt 0.715664 0.549359
vt 0.547810 0.760581
vt 0.547810 0.549359
vt 0.715664 0.760581
vt 0.547810 0.760581
vt 0.715664 0.549359
vt 0.516910 0.595977
vt 0.519287 0.524427
vt 0.547810 0.549359
vt 0.671959 0.516911
vt 0.547810 0.549359
vt 0.591515 0.516911
vt 0.715664 0.549359
vt 0.547810 0.549359
vt 0.671959 0.516911
vt 0.070842 0.785136
vt 0.000413 0.710026
vt 0.070856 0.710003
vt 0.003771 0.781566
vt 0.000413 0.710026
vt 0.070842 0.785136
vt 0.151304 0.785126
vt 0.070856 0.710003
vt 0.151278 0.710004
vt 0.070842 0.785136
vt 0.070856 0.710003
vt 0.151304 0.785126
vt 0.070865 0.592053
vt 0.003779 0.520505
vt 0.070834 0.516925
vt 0.000423 0.592026
vt 0.003779 0.520505
vt 0.070865 0.592053
vt 0.070856 0.710003
vt 0.000411 0.592028
vt 0.070844 0.592041
vt 0.000413 0.710026
vt 0.000411 0.592028
vt 0.070856 0.710003
vt 0.151274 0.592062
vt 0.070820 0.516941
vt 0.151279 0.516932
vt 0.070835 0.592066
vt 0.070820 0.516941
vt 0.151274 0.592062
vt 0.151278 0.710004
vt 0.070842 0.592051
vt 0.151264 0.592053
vt 0.070856 0.710003
vt 0.070842 0.592051
vt 0.151278 0.710004
vt 0.221697 0.592015
vt 0.151265 0.516910
vt 0.218333 0.520483
vt 0.151243 0.592050
vt 0.151265 0.516910
vt 0.221697 0.592015
vt 0.221711 0.710022
vt 0.151266 0.592043
vt 0.221708 0.592023
vt 0.151278 0.710004
vt 0.151266 0.592043
vt 0.221711 0.710022
vt 0.739046 0.519551
vt 0.715664 0.549359
vt 0.671959 0.516911
vt 0.744155 0.785492
vt 0.715632 0.760560
vt 0.746531 0.713942
vt 0.547841 0.760560
vt 0.519319 0.785492
vt 0.516942 0.713942
vt 0.547810 0.549359
vt 0.524428 0.519551
vt 0.591515 0.516911
vt 0.750076 0.520491
vt 0.803756 0.592042
vt 0.747390 0.592020
vt 0.803730 0.516920
vt 0.803756 0.592042
vt 0.750076 0.520491
vt 0.930121 0.337729
vt 0.903693 0.291110
vt 0.928550 0.266184
vt 0.385655 0.761387
vt 0.366589 0.816430
vt 0.367017 0.759160
vt 0.388009 0.815732
vt 0.366589 0.816430
vt 0.385655 0.761387
vt 0.947672 -0.028333
vt 0.929225 0.043835
vt 0.929458 -0.031756
vt 0.949672 0.043396
vt 0.929225 0.043835
vt 0.947672 -0.028333
vt 0.807622 0.757165
vt 0.789194 0.829308
vt 0.789355 0.753805
vt 0.809541 0.828992
vt 0.789194 0.829308
vt 0.807622 0.757165
vt 0.308489 0.765641
vt 0.289636 0.820438
vt 0.289994 0.763250
vt 0.311168 0.819611
vt 0.289636 0.820438
vt 0.308489 0.765641
vt 0.311066 0.876327
vt 0.289546 0.932771
vt 0.289347 0.875441
vt 0.308156 0.930452
vt 0.289546 0.932771
vt 0.311066 0.876327
vt 0.307105 0.816247
vt 0.285378 0.879362
vt 0.285625 0.816534
vt 0.306949 0.879693
vt 0.285378 0.879362
vt 0.307105 0.816247
vt 0.291947 0.875551
vt 0.273095 0.930348
vt 0.270416 0.876378
vt 0.291590 0.932740
vt 0.273095 0.930348
vt 0.291947 0.875551
vt 0.301322 0.873480
vt 0.279698 0.930814
vt 0.280069 0.873532
vt 0.301519 0.930888
vt 0.279698 0.930814
vt 0.301322 0.873480
vt 0.296206 0.816628
vt 0.274479 0.879742
vt 0.274635 0.816297
vt 0.295959 0.879455
vt 0.274479 0.879742
vt 0.296206 0.816628
vt 0.301503 0.816430
vt 0.280081 0.879559
vt 0.280293 0.816491
vt 0.301291 0.879499
vt 0.280081 0.879559
vt 0.301503 0.816430
vt 0.292038 0.763218
vt 0.270518 0.819663
vt 0.273428 0.765537
vt 0.292237 0.820548
vt 0.270518 0.819663
vt 0.292038 0.763218
vt 0.301886 0.765175
vt 0.280262 0.822509
vt 0.280065 0.765101
vt 0.301515 0.822458
vt 0.280262 0.822509
vt 0.301886 0.765175
vt 0.808663 0.947038
vt 0.788312 1.022229
vt 0.788160 0.946579
vt 0.806562 1.018828
vt 0.788312 1.022229
vt 0.808663 0.947038
vt 0.809541 0.828992
vt 0.789104 0.946562
vt 0.789194 0.829308
vt 0.809517 0.946760
vt 0.789104 0.946562
vt 0.809541 0.828992
vt 0.768659 0.946582
vt 0.750211 1.018750
vt 0.748212 0.947021
vt 0.768426 1.022174
vt 0.750211 1.018750
vt 0.768659 0.946582
vt 0.789154 0.946463
vt 0.767589 1.021985
vt 0.767668 0.946465
vt 0.789170 1.022001
vt 0.767589 1.021985
vt 0.789154 0.946463
vt 0.767819 0.829332
vt 0.747366 0.946774
vt 0.747390 0.829006
vt 0.767729 0.946586
vt 0.747366 0.946774
vt 0.767819 0.829332
vt 0.789194 0.829308
vt 0.767706 0.946402
vt 0.767819 0.829332
vt 0.789080 0.946378
vt 0.767706 0.946402
vt 0.789194 0.829308
vt 0.767719 0.753778
vt 0.747390 0.829006
vt 0.749431 0.757109
vt 0.767819 0.829332
vt 0.747390 0.829006
vt 0.767719 0.753778
vt 0.789355 0.753805
vt 0.767819 0.829332
vt 0.767719 0.753778
vt 0.789194 0.829308
vt 0.767819 0.829332
vt 0.789355 0.753805
vt 0.950494 0.161411
vt 0.930164 0.236639
vt 0.930065 0.161085
vt 0.948452 0.233308
vt 0.930164 0.236639
vt 0.950494 0.161411
vt 0.950518 0.043643
vt 0.930065 0.161085
vt 0.930155 0.043831
vt 0.950494 0.161411
vt 0.930065 0.161085
vt 0.950518 0.043643
vt 0.908690 0.161109
vt 0.890262 0.233253
vt 0.888343 0.161425
vt 0.908529 0.236612
vt 0.890262 0.233253
vt 0.908690 0.161109
vt 0.930065 0.161085
vt 0.908529 0.236612
vt 0.908690 0.161109
vt 0.930164 0.236639
vt 0.908529 0.236612
vt 0.930065 0.161085
vt 0.908780 0.043855
vt 0.888343 0.161425
vt 0.888367 0.043657
vt 0.908690 0.161109
vt 0.888343 0.161425
vt 0.908780 0.043855
vt 0.930178 0.044015
vt 0.908690 0.161109
vt 0.908803 0.044040
vt 0.930065 0.161085
vt 0.908690 0.161109
vt 0.930178 0.044015
vt 0.909571 -0.031812
vt 0.889220 0.043379
vt 0.891322 -0.028411
vt 0.909724 0.043838
vt 0.889220 0.043379
vt 0.909571 -0.031812
vt 0.930294 -0.031567
vt 0.908730 0.043955
vt 0.908713 -0.031584
vt 0.930216 0.043952
vt 0.908730 0.043955
vt 0.930294 -0.031567
vt 0.388009 0.880241
vt 0.366633 0.936919
vt 0.366378 0.879499
vt 0.385356 0.934783
vt 0.366633 0.936919
vt 0.388009 0.880241
vt 0.388009 0.815732
vt 0.366378 0.879499
vt 0.366589 0.816430
vt 0.388009 0.880241
vt 0.366378 0.879499
vt 0.388009 0.815732
vt 0.345168 0.879559
vt 0.326103 0.934603
vt 0.323748 0.880258
vt 0.344740 0.936829
vt 0.326103 0.934603
vt 0.345168 0.879559
vt 0.366378 0.879499
vt 0.344740 0.936829
vt 0.345168 0.879559
vt 0.366633 0.936919
vt 0.344740 0.936829
vt 0.366378 0.879499
vt 0.345380 0.816491
vt 0.323748 0.880258
vt 0.323748 0.815749
vt 0.345168 0.879559
vt 0.323748 0.880258
vt 0.345380 0.816491
vt 0.366589 0.816430
vt 0.345168 0.879559
vt 0.345380 0.816491
vt 0.366378 0.879499
vt 0.345168 0.879559
vt 0.366589 0.816430
vt 0.345125 0.759070
vt 0.323748 0.815749
vt 0.326402 0.761206
vt 0.345380 0.816491
vt 0.323748 0.815749
vt 0.345125 0.759070
vt 0.367017 0.759160
vt 0.345380 0.816491
vt 0.345125 0.759070
vt 0.366589 0.816430
vt 0.345380 0.816491
vt 0.367017 0.759160
vt 0.867932 0.529970
vt 0.902896 0.497522
vt 0.921623 0.527330
vt 0.930121 0.337729
vt 0.903693 0.502333
vt 0.903693 0.291110
vt 0.930121 0.455714
vt 0.903693 0.502333
vt 0.930121 0.337729
vt 0.805170 0.529970
vt 0.751479 0.527329
vt 0.770206 0.497522
vt 0.903693 0.498381
vt 0.804373 0.530829
vt 0.769409 0.498381
vt 0.868729 0.530829
vt 0.804373 0.530829
vt 0.903693 0.498381
vt 0.769409 0.291110
vt 0.742981 0.455714
vt 0.742981 0.337729
vt 0.769409 0.502333
vt 0.742981 0.455714
vt 0.769409 0.291110
vt 0.903693 0.291110
vt 0.769409 0.502333
vt 0.769409 0.291110
vt 0.903693 0.502333
vt 0.769409 0.502333
vt 0.903693 0.291110
vt 0.742981 0.337729
vt 0.744552 0.266184
vt 0.769409 0.291110
vt 0.868729 0.258662
vt 0.769409 0.291110
vt 0.804373 0.258662
vt 0.903693 0.291110
vt 0.769409 0.291110
vt 0.868729 0.258662
vt 0.868106 0.516911
vt 0.924469 0.592018
vt 0.868091 0.592045
vt 0.921771 0.520474
vt 0.924469 0.592018
vt 0.868106 0.516911
vt 0.803730 0.516920
vt 0.868091 0.592045
vt 0.803756 0.592042
vt 0.868106 0.516911
vt 0.868091 0.592045
vt 0.803730 0.516920
vt 0.868075 0.709987
vt 0.921759 0.781541
vt 0.868109 0.785116
vt 0.924453 0.710019
vt 0.921759 0.781541
vt 0.868075 0.709987
vt 0.868091 0.592045
vt 0.924472 0.710014
vt 0.868104 0.709999
vt 0.924469 0.592018
vt 0.924472 0.710014
vt 0.868091 0.592045
vt 0.803761 0.709977
vt 0.868129 0.785100
vt 0.803757 0.785108
vt 0.868114 0.709975
vt 0.868129 0.785100
vt 0.803761 0.709977
vt 0.803756 0.592042
vt 0.868106 0.709986
vt 0.803771 0.709984
vt 0.868091 0.592045
vt 0.868106 0.709986
vt 0.803756 0.592042
vt 0.747411 0.710028
vt 0.803777 0.785131
vt 0.750116 0.781564
vt 0.803799 0.709989
vt 0.803777 0.785131
vt 0.747411 0.710028
vt 0.747390 0.592020
vt 0.803769 0.709996
vt 0.747392 0.710016
vt 0.803756 0.592042
vt 0.803769 0.709996
vt 0.747390 0.592020
vt 0.922420 0.261303
vt 0.903693 0.291110
vt 0.868729 0.258662
vt 0.928518 0.527241
vt 0.903661 0.502315
vt 0.930089 0.455696
vt 0.769441 0.502315
vt 0.744584 0.527241
vt 0.743013 0.455696
vt 0.769409 0.291110
vt 0.750682 0.261303
vt 0.804373 0.258662

vn 0.000000 0.000000 1.000000
vn 0.000000 0.000000 1.000000
vn 0.000000 0.000000 1.000000
vn 0.000000 0.000000 1.000000
vn 0.000000 0.000000 1.000000
vn 0.000000 0.000000 1.000000
vn -1.000000 0.000000 0.000000
vn -1.000000 0.000000 0.000000
vn -1.000000 0.000000 0.000000
vn -1.000000 0.000000 0.000000
vn -1.000000 0.000000 0.000000
vn -1.000000 0.000000 0.000000
vn -0.000000 -1.000000 0.000000
vn -0.000000 -1.000000 0.000000
vn -0.000000 -1.000000 0.000000
vn -0.000000 -1.000000 0.000000
vn -0.000000 -1.000000 0.000000
vn -0.000000 -1.000000 0.000000
vn -0.000000 0.000000 -1.000000
vn -0.000000 0.000000 -1.000000
vn -0.000000 0.000000 -1.000000
vn -0.000000 0.000000 -1.000000
vn -0.000000 0.000000 -1.000000
vn -0.000000 0.000000 -1.000000
vn 0.000000 -0.242536 0.970142
vn 0.000000 -0.242536 0.970142
vn 0.000000 -0.242536 0.970142
vn 0.000000 -0.242536 0.970143
vn 0.000000 -0.242536 0.970143
vn 0.000000 -0.242536 0.970143
vn -1.000000 -0.000000 0.000001
vn -1.000000 -0.000000 0.000001
vn -1.000000 -0.000000 0.000001
vn -1.000000 0.000000 0.000000
vn -1.000000 0.000000 0.000000
vn -1.000000 0.000000 0.000000
vn -0.000000 0.000000 -1.000000
vn -0.000000 0.000000 -1.000000
vn -0.000000 0.000000 -1.000000
vn -0.000000 0.000000 -1.000000
vn -0.000000 0.000000 -1.000000
vn -0.000000 0.000000 -1.000000
vn 0.970142 -0.242536 0.000000
vn 0.970142 -0.242536 0.000000
vn 0.970142 -0.242536 0.000000
vn 0.970143 -0.242536 0.000000
vn 0.970143 -0.242536 0.000000
vn 0.970143 -0.242536 0.000000
vn -0.000000 -1.000000 0.000000
vn -0.000000 -1.000000 0.000000
vn -0.000000 -1.000000 0.000000
vn -0.000000 -1.000000 0.000000
vn -0.000000 -1.000000 0.000000
vn -0.000000 -1.000000 0.000000
vn 0.970142 -0.242536 0.000000
vn 0.970142 -0.242536 0.000000
vn 0.970142 -0.242536 0.000000
vn 0.970143 -0.242536 0.000000
vn 0.970143 -0.242536 0.000000
vn 0.970143 -0.242536 0.000000
vn 0.000001 -0.000000 1.000000
vn 0.000001 -0.000000 1.000000
vn 0.000001 -0.000000 1.000000
vn 0.000001 0.000000 1.000000
vn 0.000001 0.000000 1.000000
vn 0.000001 0.000000 1.000000
vn -1.000000 0.000000 0.000000
vn -1.000000 0.000000 0.000000
vn -1.000000 0.000000 0.000000
vn -1.000000 0.000000 0.000000
vn -1.000000 0.000000 0.000000
vn -1.000000 0.000000 0.000000
vn -0.000000 -0.242536 -0.970142
vn -0.000000 -0.242536 -0.970142
vn -0.000000 -0.242536 -0.970142
vn -0.000000 -0.242536 -0.970142
vn -0.000000 -0.242536 -0.970142
vn -0.000000 -0.242536 -0.970142
vn -0.000000 -1.000000 0.000000
vn -0.000000 -1.000000 0.000000
vn -0.000000 -1.000000 0.000000
vn -0.000000 -1.000000 0.000000
vn -0.000000 -1.000000 0.000000
vn -0.000000 -1.000000 0.000000
vn 0.000000 1.000000 0.000000
vn 0.000000 1.000000 0.000000
vn 0.000000 1.000000 0.000000
vn -0.000000 1.000000 0.000000
vn -0.000000 1.000000 0.000000
vn -0.000000 1.000000 0.000000
vn -0.000000 0.000000 -1.000000
vn -0.000000 0.000000 -1.000000
vn -0.000000 0.000000 -1.000000
vn -0.000000 0.000000 -1.000000
vn -0.000000 0.000000 -1.000000
vn -0.000000 0.000000 -1.000000
vn 0.000000 0.000000 1.000000
vn 0.000000 0.000000 1.000000
vn 0.000000 0.000000 1.000000
vn 0.000000 0.000000 1.000000
vn 0.000000 0.000000 1.000000
vn 0.000000 0.000000 1.000000
vn 0.000001 0.000000 1.000000
vn 0.000001 0.000000 1.000000
vn 0.000001 0.000000 1.000000
vn 0.000001 0.000000 1.000000
vn 0.000001 0.000000 1.000000
vn 0.000001 0.000000 1.000000
vn 0.000000 1.000000 0.000000
vn 0.000000 1.000000 0.000000
vn 0.000000 1.000000 0.000000
vn -0.000000 1.000000 0.000000
vn -0.000000 1.000000 0.000000
vn -0.000000 1.000000 0.000000
vn -0.000000 0.000000 -1.000000
vn -0.000000 0.000000 -1.000000
vn -0.000000 0.000000 -1.000000
vn -0.000000 0.000000 -1.000000
vn -0.000000 0.000000 -1.000000
vn -0.000000 0.000000 -1.000000
vn 0.000000 0.999995 -0.003043
vn 0.000000 0.999995 -0.003043
vn 0.000000 0.999995 -0.003043
vn -0.000000 0.999995 -0.003043
vn -0.000000 0.999995 -0.003043
vn -0.000000 0.999995 -0.003043
vn 0.000000 0.842461 -0.538757
vn 0.000000 0.842461 -0.538757
vn 0.000000 0.842461 -0.538757
vn -0.000000 0.842461 -0.538757
vn -0.000000 0.842461 -0.538757
vn -0.000000 0.842461 -0.538757
vn -0.000000 0.439695 -0.898147
vn -0.000000 0.439695 -0.898147
vn -0.000000 0.439695 -0.898147
vn -0.000001 0.439695 -0.898147
vn -0.000001 0.439695 -0.898147
vn -0.000001 0.439695 -0.898147
vn -1.000000 0.000000 0.000001
vn -1.000000 0.000000 0.000001
vn -1.000000 0.000000 0.000001
vn -1.000000 0.000000 0.000000
vn -1.000000 0.000000 0.000000
vn -1.000000 0.000000 0.000000
vn -1.000000 0.000000 0.000000
vn -1.000000 0.000000 0.000000
vn -1.000000 0.000000 0.000000
vn -1.000000 0.000000 0.000000
vn -1.000000 0.000000 0.000000
vn -1.000000 0.000000 0.000000
vn -1.000000 0.000000 0.000001
vn -1.000000 0.000000 0.000001
vn -1.000000 0.000000 0.000001
vn -1.000000 0.000000 0.000000
vn -1.000000 0.000000 0.000000
vn -1.000000 0.000000 0.000000
vn -1.000000 0.000000 0.000001
vn -1.000000 0.000000 0.000001
vn -1.000000 0.000000 0.000001
vn -1.000000 0.000000 0.000000
vn -1.000000 0.000000 0.000000
vn -1.000000 0.000000 0.000000
vn 1.000000 0.000000 0.000000
vn 1.000000 0.000000 0.000000
vn 1.000000 0.000000 0.000000
vn 1.000000 0.000000 -0.000003
vn 1.000000 0.000000 -0.000003
vn 1.000000 0.000000 -0.000003
vn 1.000000 0.000000 0.000000
vn 1.000000 0.000000 0.000000
vn 1.000000 0.000000 0.000000
vn 1.000000 0.000000 0.000001
vn 1.000000 0.000000 0.000001
vn 1.000000 0.000000 0.000001
vn 1.000000 0.000000 -0.000001
vn 1.000000 0.000000 -0.000001
vn 1.000000 0.000000 -0.000001
vn 1.000000 0.000000 -0.000001
vn 1.000000 0.000000 -0.000001
vn 1.000000 0.000000 -0.000001
vn 1.000000 0.000000 -0.000000
vn 1.000000 0.000000 -0.000000
vn 1.000000 0.000000 -0.000000
vn 1.000000 0.000000 -0.000000
vn 1.000000 0.000000 -0.000000
vn 1.000000 0.000000 -0.000000
vn 1.000000 0.000000 -0.000001
vn 1.000000 0.000000 -0.000001
vn 1.000000 0.000000 -0.000001
vn 1.000000 0.000000 0.000000
vn 1.000000 0.000000 0.000000
vn 1.000000 0.000000 0.000000
vn -1.000000 0.000000 0.000001
vn -1.000000 0.000000 0.000001
vn -1.000000 0.000000 0.000001
vn -1.000000 0.000000 0.000000
vn -1.000000 0.000000 0.000000
vn -1.000000 0.000000 0.000000
vn -0.000000 0.816458 -0.577404
vn -0.000000 0.816458 -0.577404
vn -0.000000 0.816458 -0.577404
vn -0.000000 0.816458 -0.577405
vn -0.000000 0.816458 -0.577405
vn -0.000000 0.816458 -0.577405
vn -0.000000 0.000000 -1.000000
vn -0.000000 0.000000 -1.000000
vn -0.000000 0.000000 -1.000000
vn -0.000000 0.000000 -1.000000
vn -0.000000 0.000000 -1.000000
vn -0.000000 0.000000 -1.000000
vn 0.000000 0.000000 1.000000
vn 0.000000 0.000000 1.000000
vn 0.000000 0.000000 1.000000
vn 0.000000 0.000000 1.000000
vn 0.000000 0.000000 1.000000
vn 0.000000 0.000000 1.000000
vn 0.000000 1.000000 0.000000
vn 0.000000 1.000000 0.000000
vn 0.000000 1.000000 0.000000
vn -0.000000 1.000000 0.000000
vn -0.000000 1.000000 0.000000
vn -0.000000 1.000000 0.000000
vn -0.014274 -0.999173 0.038064
vn -0.014274 -0.999173 0.038064
vn -0.014274 -0.999173 0.038064
vn -0.035687 -0.999247 0.015227
vn -0.035687 -0.999247 0.015227
vn -0.035687 -0.999247 0.015227
vn -0.036223 0.834163 0.550328
vn -0.036223 0.834163 0.550328
vn -0.036223 0.834163 0.550328
vn -0.964277 0.220406 0.146938
vn -0.964277 0.220406 0.146938
vn -0.964277 0.220406 0.146938
vn -0.867030 0.495446 0.052848
vn -0.867030 0.495446 0.052848
vn -0.867030 0.495446 0.052848
vn 0.129847 0.207756 0.969524
vn 0.129847 0.207756 0.969524
vn 0.129847 0.207756 0.969524
vn 0.047170 0.471696 0.880499
vn 0.047170 0.471696 0.880499
vn 0.047170 0.471696 0.880499
vn -0.129847 0.207756 -0.969524
vn -0.129847 0.207756 -0.969524
vn -0.129847 0.207756 -0.969524
vn -0.047170 0.471696 -0.880499
vn -0.047170 0.471696 -0.880499
vn -0.047170 0.471696 -0.880499
vn 0.964277 0.220407 -0.146938
vn 0.964277 0.220407 -0.146938
vn 0.964277 0.220407 -0.146938
vn 0.867030 0.495445 -0.052848
vn 0.867030 0.495445 -0.052848
vn 0.867030 0.495445 -0.052848
vn 0.860743 0.491853 0.131160
vn 0.860743 0.491853 0.131160
vn 0.860743 0.491853 0.131160
vn 0.977076 0.205701 0.054853
vn 0.977076 0.205701 0.054853
vn 0.977076 0.205701 0.054853
vn 0.868243 0.496138 -0.000000
vn 0.868243 0.496138 -0.000000
vn 0.868243 0.496138 -0.000000
vn 0.868243 0.496139 -0.000000
vn 0.868243 0.496139 -0.000000
vn 0.868243 0.496139 -0.000000
vn 0.867030 -0.495445 0.052847
vn 0.867030 -0.495445 0.052847
vn 0.867030 -0.495445 0.052847
vn 0.964277 -0.220407 0.146937
vn 0.964277 -0.220407 0.146937
vn 0.964277 -0.220407 0.146937
vn 0.988588 0.000000 0.150641
vn 0.988588 0.000000 0.150641
vn 0.988588 0.000000 0.150641
vn 0.988588 0.000000 0.150642
vn 0.988588 0.000000 0.150642
vn 0.988588 0.000000 0.150642
vn 0.868243 -0.496139 -0.000000
vn 0.868243 -0.496139 -0.000000
vn 0.868243 -0.496139 -0.000000
vn 0.868243 -0.496139 -0.000000
vn 0.868243 -0.496139 -0.000000
vn 0.868243 -0.496139 -0.000000
vn 1.000000 0.000000 -0.000000
vn 1.000000 0.000000 -0.000000
vn 1.000000 0.000000 -0.000000
vn 1.000000 0.000000 -0.000000
vn 1.000000 0.000000 -0.000000
vn 1.000000 0.000000 -0.000000
vn 0.977076 -0.205701 -0.054854
vn 0.977076 -0.205701 -0.054854
vn 0.977076 -0.205701 -0.054854
vn 0.860743 -0.491852 -0.131161
vn 0.860743 -0.491852 -0.131161
vn 0.860743 -0.491852 -0.131161
vn 0.988588 0.000000 -0.150642
vn 0.988588 0.000000 -0.150642
vn 0.988588 0.000000 -0.150642
vn 0.988588 0.000000 -0.150642
vn 0.988588 0.000000 -0.150642
vn 0.988588 0.000000 -0.150642
vn 0.117241 0.468964 -0.875401
vn 0.117241 0.468964 -0.875401
vn 0.117241 0.468964 -0.875401
vn 0.048351 0.193407 -0.979926
vn 0.048351 0.193407 -0.979926
vn 0.048351 0.193407 -0.979926
vn -0.000000 0.472222 -0.881480
vn -0.000000 0.472222 -0.881480
vn -0.000000 0.472222 -0.881480
vn -0.000000 0.472221 -0.881480
vn -0.000000 0.472221 -0.881480
vn -0.000000 0.472221 -0.881480
vn 0.047169 -0.471696 -0.880499
vn 0.047169 -0.471696 -0.880499
vn 0.047169 -0.471696 -0.880499
vn 0.129847 -0.207756 -0.969524
vn 0.129847 -0.207756 -0.969524
vn 0.129847 -0.207756 -0.969524
vn 0.132743 0.000000 -0.991150
vn 0.132743 0.000000 -0.991150
vn 0.132743 0.000000 -0.991150
vn 0.132743 0.000000 -0.991150
vn 0.132743 0.000000 -0.991150
vn 0.132743 0.000000 -0.991150
vn -0.000000 -0.472221 -0.881480
vn -0.000000 -0.472221 -0.881480
vn -0.000000 -0.472221 -0.881480
vn -0.000000 -0.472222 -0.881480
vn -0.000000 -0.472222 -0.881480
vn -0.000000 -0.472222 -0.881480
vn -0.000000 0.000000 -1.000000
vn -0.000000 0.000000 -1.000000
vn -0.000000 0.000000 -1.000000
vn -0.000000 0.000000 -1.000000
vn -0.000000 0.000000 -1.000000
vn -0.000000 0.000000 -1.000000
vn -0.048352 -0.193407 -0.979926
vn -0.048352 -0.193407 -0.979926
vn -0.048352 -0.193407 -0.979926
vn -0.117242 -0.468964 -0.875401
vn -0.117242 -0.468964 -0.875401
vn -0.117242 -0.468964 -0.875401
vn -0.132744 0.000000 -0.991150
vn -0.132744 0.000000 -0.991150
vn -0.132744 0.000000 -0.991150
vn -0.132744 0.000000 -0.991150
vn -0.132744 0.000000 -0.991150
vn -0.132744 0.000000 -0.991150
vn -0.117241 0.468964 0.875401
vn -0.117241 0.468964 0.875401
vn -0.117241 0.468964 0.875401
vn -0.048351 0.193406 0.979927
vn -0.048351 0.193406 0.979927
vn -0.048351 0.193406 0.979927
vn 0.000000 0.472222 0.881479
vn 0.000000 0.472222 0.881479
vn 0.000000 0.472222 0.881479
vn 0.000000 0.472221 0.881480
vn 0.000000 0.472221 0.881480
vn 0.000000 0.472221 0.881480
vn -0.047169 -0.471695 0.880499
vn -0.047169 -0.471695 0.880499
vn -0.047169 -0.471695 0.880499
vn -0.129847 -0.207755 0.969525
vn -0.129847 -0.207755 0.969525
vn -0.129847 -0.207755 0.969525
vn -0.132743 0.000000 0.991150
vn -0.132743 0.000000 0.991150
vn -0.132743 0.000000 0.991150
vn -0.132743 0.000000 0.991150
vn -0.132743 0.000000 0.991150
vn -0.132743 0.000000 0.991150
vn 0.000000 -0.472221 0.881480
vn 0.000000 -0.472221 0.881480
vn 0.000000 -0.472221 0.881480
vn 0.000000 -0.472222 0.881480
vn 0.000000 -0.472222 0.881480
vn 0.000000 -0.472222 0.881480
vn 0.000000 0.000000 1.000000
vn 0.000000 0.000000 1.000000
vn 0.000000 0.000000 1.000000
vn 0.000000 0.000000 1.000000
vn 0.000000 0.000000 1.000000
vn 0.000000 0.000000 1.000000
vn 0.048352 -0.193408 0.979926
vn 0.048352 -0.193408 0.979926
vn 0.048352 -0.193408 0.979926
vn 0.117241 -0.468964 0.875401
vn 0.117241 -0.468964 0.875401
vn 0.117241 -0.468964 0.875401
vn 0.132744 0.000000 0.991150
vn 0.132744 0.000000 0.991150
vn 0.132744 0.000000 0.991150
vn 0.132744 0.000000 0.991150
vn 0.132744 0.000000 0.991150
vn 0.132744 0.000000 0.991150
vn -0.860743 0.491853 -0.131161
vn -0.860743 0.491853 -0.131161
vn -0.860743 0.491853 -0.131161
vn -0.977076 0.205701 -0.054853
vn -0.977076 0.205701 -0.054853
vn -0.977076 0.205701 -0.054853
vn -0.868243 0.496139 0.000000
vn -0.868243 0.496139 0.000000
vn -0.868243 0.496139 0.000000
vn -0.868243 0.496139 0.000000
vn -0.868243 0.496139 0.000000
vn -0.868243 0.496139 0.000000
vn -0.867030 -0.495446 -0.052848
vn -0.867030 -0.495446 -0.052848
vn -0.867030 -0.495446 -0.052848
vn -0.964277 -0.220406 -0.146937
vn -0.964277 -0.220406 -0.146937
vn -0.964277 -0.220406 -0.146937
vn -0.988588 0.000000 -0.150642
vn -0.988588 0.000000 -0.150642
vn -0.988588 0.000000 -0.150642
vn -0.988588 0.000000 -0.150642
vn -0.988588 0.000000 -0.150642
vn -0.988588 0.000000 -0.150642
vn -0.868243 -0.496139 0.000000
vn -0.868243 -0.496139 0.000000
vn -0.868243 -0.496139 0.000000
vn -0.868243 -0.496139 0.000000
vn -0.868243 -0.496139 0.000000
vn -0.868243 -0.496139 0.000000
vn -1.000000 0.000000 0.000000
vn -1.000000 0.000000 0.000000
vn -1.000000 0.000000 0.000000
vn -1.000000 0.000000 0.000000
vn -1.000000 0.000000 0.000000
vn -1.000000 0.000000 0.000000
vn -0.977077 -0.205700 0.054854
vn -0.977077 -0.205700 0.054854
vn -0.977077 -0.205700 0.054854
vn -0.860742 -0.491853 0.131161
vn -0.860742 -0.491853 0.131161
vn -0.860742 -0.491853 0.131161
vn -0.988588 0.000000 0.150642
vn -0.988588 0.000000 0.150642
vn -0.988588 0.000000 0.150642
vn -0.988588 0.000000 0.150642
vn -0.988588 0.000000 0.150642
vn -0.988588 0.000000 0.150642
vn 0.525612 0.849813 0.039364
vn 0.525612 0.849813 0.039364
vn 0.525612 0.849813 0.039364
vn 0.000000 0.863577 0.504217
vn 0.000000 0.863577 0.504217
vn 0.000000 0.863577 0.504217
vn 0.000000 0.863577 0.504217
vn 0.000000 0.863577 0.504217
vn 0.000000 0.863577 0.504217
vn 0.525612 0.849813 -0.039363
vn 0.525612 0.849813 -0.039363
vn 0.525612 0.849813 -0.039363
vn 0.480152 0.877185 -0.000000
vn 0.480152 0.877185 -0.000000
vn 0.480152 0.877185 -0.000000
vn 0.480152 0.877185 -0.000000
vn 0.480152 0.877185 -0.000000
vn 0.480152 0.877185 -0.000000
vn -0.000000 0.863577 -0.504217
vn -0.000000 0.863577 -0.504217
vn -0.000000 0.863577 -0.504217
vn -0.000000 0.863577 -0.504217
vn -0.000000 0.863577 -0.504217
vn -0.000000 0.863577 -0.504217
vn 0.000000 1.000000 0.000000
vn 0.000000 1.000000 0.000000
vn 0.000000 1.000000 0.000000
vn -0.000000 1.000000 0.000000
vn -0.000000 1.000000 0.000000
vn -0.000000 1.000000 0.000000
vn -0.036224 0.834162 -0.550328
vn -0.036224 0.834162 -0.550328
vn -0.036224 0.834162 -0.550328
vn -0.480152 0.877185 0.000000
vn -0.480152 0.877185 0.000000
vn -0.480152 0.877185 0.000000
vn -0.480152 0.877185 0.000000
vn -0.480152 0.877185 0.000000
vn -0.480152 0.877185 0.000000
vn -0.035666 -0.998639 -0.038043
vn -0.035666 -0.998639 -0.038043
vn -0.035666 -0.998639 -0.038043
vn -0.013156 -0.999815 -0.014033
vn -0.013156 -0.999815 -0.014033
vn -0.013156 -0.999815 -0.014033
vn -0.035691 -0.999363 0.000000
vn -0.035691 -0.999363 0.000000
vn -0.035691 -0.999363 0.000000
vn -0.035691 -0.999363 0.000000
vn -0.035691 -0.999363 0.000000
vn -0.035691 -0.999363 0.000000
vn 0.035687 -0.999247 -0.015227
vn 0.035687 -0.999247 -0.015227
vn 0.035687 -0.999247 -0.015227
vn 0.014274 -0.999173 -0.038064
vn 0.014274 -0.999173 -0.038064
vn 0.014274 -0.999173 -0.038064
vn -0.000000 -0.999275 -0.038068
vn -0.000000 -0.999275 -0.038068
vn -0.000000 -0.999275 -0.038068
vn -0.000000 -0.999275 -0.038068
vn -0.000000 -0.999275 -0.038068
vn -0.000000 -0.999275 -0.038068
vn 0.035691 -0.999363 -0.000000
vn 0.035691 -0.999363 -0.000000
vn 0.035691 -0.999363 -0.000000
vn 0.035692 -0.999363 -0.000000
vn 0.035692 -0.999363 -0.000000
vn 0.035692 -0.999363 -0.000000
vn -0.000000 -1.000000 0.000000
vn -0.000000 -1.000000 0.000000
vn -0.000000 -1.000000 0.000000
vn -0.000000 -1.000000 0.000000
vn -0.000000 -1.000000 0.000000
vn -0.000000 -1.000000 0.000000
vn 0.013155 -0.999815 0.014033
vn 0.013155 -0.999815 0.014033
vn 0.013155 -0.999815 0.014033
vn 0.035666 -0.998639 0.038043
vn 0.035666 -0.998639 0.038043
vn 0.035666 -0.998639 0.038043
vn -0.000000 -0.999275 0.038068
vn -0.000000 -0.999275 0.038068
vn -0.000000 -0.999275 0.038068
vn 0.000000 -0.999275 0.038068
vn 0.000000 -0.999275 0.038068
vn 0.000000 -0.999275 0.038068
vn -0.525612 0.849813 0.039364
vn -0.525612 0.849813 0.039364
vn -0.525612 0.849813 0.039364
vn 0.036224 0.834162 0.550328
vn 0.036224 0.834162 0.550328
vn 0.036224 0.834162 0.550328
vn 0.036223 0.834162 -0.550328
vn 0.036223 0.834162 -0.550328
vn 0.036223 0.834162 -0.550328
vn -0.525612 0.849813 -0.039364
vn -0.525612 0.849813 -0.039364
vn -0.525612 0.849813 -0.039364
vn -0.014268 0.047560 0.998766
vn -0.014268 0.047560 0.998766
vn -0.014268 0.047560 0.998766
vn -0.035685 0.019032 0.999182
vn -0.035685 0.019032 0.999182
vn -0.035685 0.019032 0.999182
vn -0.033484 0.635875 -0.771066
vn -0.033484 0.635875 -0.771066
vn -0.033484 0.635875 -0.771066
vn -0.958474 0.182567 -0.219080
vn -0.958474 0.182567 -0.219080
vn -0.958474 0.182567 -0.219080
vn -0.866350 0.066008 -0.495056
vn -0.866350 0.066008 -0.495056
vn -0.866350 0.066008 -0.495056
vn 0.105018 0.980172 -0.168028
vn 0.105018 0.980172 -0.168028
vn 0.105018 0.980172 -0.168028
vn 0.039361 0.918432 -0.393615
vn 0.039361 0.918432 -0.393615
vn 0.039361 0.918432 -0.393615
vn -0.105018 -0.980172 -0.168030
vn -0.105018 -0.980172 -0.168030
vn -0.105018 -0.980172 -0.168030
vn -0.039362 -0.918433 -0.393614
vn -0.039362 -0.918433 -0.393614
vn -0.039362 -0.918433 -0.393614
vn 0.958474 -0.182566 -0.219083
vn 0.958474 -0.182566 -0.219083
vn 0.958474 -0.182566 -0.219083
vn 0.866350 -0.066008 -0.495057
vn 0.866350 -0.066008 -0.495057
vn 0.866350 -0.066008 -0.495057
vn 0.856608 0.163163 -0.489491
vn 0.856608 0.163163 -0.489491
vn 0.856608 0.163163 -0.489491
vn 0.976251 0.068509 -0.205527
vn 0.976251 0.068509 -0.205527
vn 0.976251 0.068509 -0.205527
vn 0.868243 0.000000 -0.496139
vn 0.868243 0.000000 -0.496139
vn 0.868243 0.000000 -0.496139
vn 0.868243 0.000000 -0.496138
vn 0.868243 0.000000 -0.496138
vn 0.868243 0.000000 -0.496138
vn 0.866350 0.066008 0.495056
vn 0.866350 0.066008 0.495056
vn 0.866350 0.066008 0.495056
vn 0.958474 0.182567 0.219080
vn 0.958474 0.182567 0.219080
vn 0.958474 0.182567 0.219080
vn 0.982339 0.187112 0.000000
vn 0.982339 0.187112 0.000000
vn 0.982339 0.187112 0.000000
vn 0.982339 0.187112 0.000000
vn 0.982339 0.187112 0.000000
vn 0.982339 0.187112 0.000000
vn 0.868243 0.000000 0.496139
vn 0.868243 0.000000 0.496139
vn 0.868243 0.000000 0.496139
vn 0.868243 0.000000 0.496139
vn 0.868243 0.000000 0.496139
vn 0.868243 0.000000 0.496139
vn 1.000000 0.000000 0.000000
vn 1.000000 0.000000 0.000000
vn 1.000000 0.000000 0.000000
vn 1.000000 0.000000 0.000000
vn 1.000000 0.000000 0.000000
vn 1.000000 0.000000 0.000000
vn 0.976251 -0.068509 0.205527
vn 0.976251 -0.068509 0.205527
vn 0.976251 -0.068509 0.205527
vn 0.856608 -0.163164 0.489490
vn 0.856608 -0.163164 0.489490
vn 0.856608 -0.163164 0.489490
vn 0.982339 -0.187112 0.000000
vn 0.982339 -0.187112 0.000000
vn 0.982339 -0.187112 0.000000
vn 0.982339 -0.187112 0.000000
vn 0.982339 -0.187112 0.000000
vn 0.982339 -0.187112 0.000000
vn 0.098006 -0.914720 -0.392023
vn 0.098006 -0.914720 -0.392023
vn 0.098006 -0.914720 -0.392023
vn 0.038961 -0.987013 -0.155845
vn 0.038961 -0.987013 -0.155845
vn 0.038961 -0.987013 -0.155845
vn -0.000000 -0.919145 -0.393920
vn -0.000000 -0.919145 -0.393920
vn -0.000000 -0.919145 -0.393920
vn -0.000000 -0.919145 -0.393919
vn -0.000000 -0.919145 -0.393919
vn -0.000000 -0.919145 -0.393919
vn 0.039362 -0.918433 0.393614
vn 0.039362 -0.918433 0.393614
vn 0.039362 -0.918433 0.393614
vn 0.105019 -0.980172 0.168030
vn 0.105019 -0.980172 0.168030
vn 0.105019 -0.980172 0.168030
vn 0.106533 -0.994309 -0.000000
vn 0.106533 -0.994309 -0.000000
vn 0.106533 -0.994309 -0.000000
vn 0.106533 -0.994309 0.000000
vn 0.106533 -0.994309 0.000000
vn 0.106533 -0.994309 0.000000
vn 0.000000 -0.919145 0.393919
vn 0.000000 -0.919145 0.393919
vn 0.000000 -0.919145 0.393919
vn 0.000000 -0.919145 0.393919
vn 0.000000 -0.919145 0.393919
vn 0.000000 -0.919145 0.393919
vn -0.000000 -1.000000 0.000000
vn -0.000000 -1.000000 0.000000
vn -0.000000 -1.000000 0.000000
vn 0.000000 -1.000000 0.000000
vn 0.000000 -1.000000 0.000000
vn 0.000000 -1.000000 0.000000
vn -0.038961 -0.987013 0.155845
vn -0.038961 -0.987013 0.155845
vn -0.038961 -0.987013 0.155845
vn -0.098006 -0.914720 0.392023
vn -0.098006 -0.914720 0.392023
vn -0.098006 -0.914720 0.392023
vn -0.106533 -0.994309 0.000000
vn -0.106533 -0.994309 0.000000
vn -0.106533 -0.994309 0.000000
vn -0.106533 -0.994309 0.000000
vn -0.106533 -0.994309 0.000000
vn -0.106533 -0.994309 0.000000
vn -0.098006 0.914720 -0.392023
vn -0.098006 0.914720 -0.392023
vn -0.098006 0.914720 -0.392023
vn -0.038961 0.987013 -0.155843
vn -0.038961 0.987013 -0.155843
vn -0.038961 0.987013 -0.155843
vn -0.000000 0.919145 -0.393920
vn -0.000000 0.919145 -0.393920
vn -0.000000 0.919145 -0.393920
vn -0.000000 0.919145 -0.393919
vn -0.000000 0.919145 -0.393919
vn -0.000000 0.919145 -0.393919
vn -0.039362 0.918433 0.393614
vn -0.039362 0.918433 0.393614
vn -0.039362 0.918433 0.393614
vn -0.105018 0.980172 0.168030
vn -0.105018 0.980172 0.168030
vn -0.105018 0.980172 0.168030
vn -0.106533 0.994309 0.000000
vn -0.106533 0.994309 0.000000
vn -0.106533 0.994309 0.000000
vn -0.106534 0.994309 0.000000
vn -0.106534 0.994309 0.000000
vn -0.106534 0.994309 0.000000
vn 0.000000 0.919145 0.393919
vn 0.000000 0.919145 0.393919
vn 0.000000 0.919145 0.393919
vn -0.000000 0.919145 0.393920
vn -0.000000 0.919145 0.393920
vn -0.000000 0.919145 0.393920
vn -0.000000 1.000000 0.000000
vn -0.000000 1.000000 0.000000
vn -0.000000 1.000000 0.000000
vn -0.000000 1.000000 0.000000
vn -0.000000 1.000000 0.000000
vn -0.000000 1.000000 0.000000
vn 0.038961 0.987013 0.155844
vn 0.038961 0.987013 0.155844
vn 0.038961 0.987013 0.155844
vn 0.098006 0.914720 0.392023
vn 0.098006 0.914720 0.392023
vn 0.098006 0.914720 0.392023
vn 0.106533 0.994309 0.000000
vn 0.106533 0.994309 0.000000
vn 0.106533 0.994309 0.000000
vn 0.106533 0.994309 -0.000000
vn 0.106533 0.994309 -0.000000
vn 0.106533 0.994309 -0.000000
vn -0.856608 -0.163163 -0.489490
vn -0.856608 -0.163163 -0.489490
vn -0.856608 -0.163163 -0.489490
vn -0.976251 -0.068509 -0.205527
vn -0.976251 -0.068509 -0.205527
vn -0.976251 -0.068509 -0.205527
vn -0.868243 0.000000 -0.496139
vn -0.868243 0.000000 -0.496139
vn -0.868243 0.000000 -0.496139
vn -0.868243 0.000000 -0.496139
vn -0.868243 0.000000 -0.496139
vn -0.868243 0.000000 -0.496139
vn -0.866349 -0.066007 0.495058
vn -0.866349 -0.066007 0.495058
vn -0.866349 -0.066007 0.495058
vn -0.958474 -0.182567 0.219080
vn -0.958474 -0.182567 0.219080
vn -0.958474 -0.182567 0.219080
vn -0.982338 -0.187112 0.000000
vn -0.982338 -0.187112 0.000000
vn -0.982338 -0.187112 0.000000
vn -0.982339 -0.187112 0.000000
vn -0.982339 -0.187112 0.000000
vn -0.982339 -0.187112 0.000000
vn -0.868243 0.000000 0.496139
vn -0.868243 0.000000 0.496139
vn -0.868243 0.000000 0.496139
vn -0.868243 0.000000 0.496139
vn -0.868243 0.000000 0.496139
vn -0.868243 0.000000 0.496139
vn -1.000000 0.000000 0.000000
vn -1.000000 0.000000 0.000000
vn -1.000000 0.000000 0.000000
vn -1.000000 0.000000 0.000000
vn -1.000000 0.000000 0.000000
vn -1.000000 0.000000 0.000000
vn -0.976251 0.068509 0.205526
vn -0.976251 0.068509 0.205526
vn -0.976251 0.068509 0.205526
vn -0.856607 0.163163 0.489492
vn -0.856607 0.163163 0.489492
vn -0.856607 0.163163 0.489492
vn -0.982339 0.187112 0.000000
vn -0.982339 0.187112 0.000000
vn -0.982339 0.187112 0.000000
vn -0.982338 0.187112 0.000000
vn -0.982338 0.187112 0.000000
vn -0.982338 0.187112 0.000000
vn 0.525383 0.049183 -0.849443
vn 0.525383 0.049183 -0.849443
vn 0.525383 0.049183 -0.849443
vn -0.000000 0.589526 -0.807749
vn -0.000000 0.589526 -0.807749
vn -0.000000 0.589526 -0.807749
vn -0.000000 0.589526 -0.807750
vn -0.000000 0.589526 -0.807750
vn -0.000000 0.589526 -0.807750
vn 0.525383 -0.049183 -0.849443
vn 0.525383 -0.049183 -0.849443
vn 0.525383 -0.049183 -0.849443
vn 0.480151 -0.000000 -0.877186
vn 0.480151 -0.000000 -0.877186
vn 0.480151 -0.000000 -0.877186
vn 0.480151 -0.000000 -0.877186
vn 0.480151 -0.000000 -0.877186
vn 0.480151 -0.000000 -0.877186
vn -0.000000 -0.589525 -0.807750
vn -0.000000 -0.589525 -0.807750
vn -0.000000 -0.589525 -0.807750
vn -0.000000 -0.589526 -0.807749
vn -0.000000 -0.589526 -0.807749
vn -0.000000 -0.589526 -0.807749
vn -0.000000 -0.000000 -1.000000
vn -0.000000 -0.000000 -1.000000
vn -0.000000 -0.000000 -1.000000
vn -0.000000 0.000000 -1.000000
vn -0.000000 0.000000 -1.000000
vn -0.000000 0.000000 -1.000000
vn -0.033484 -0.635875 -0.771065
vn -0.033484 -0.635875 -0.771065
vn -0.033484 -0.635875 -0.771065
vn -0.480152 0.000000 -0.877185
vn -0.480152 0.000000 -0.877185
vn -0.480152 0.000000 -0.877185
vn -0.480152 -0.000000 -0.877185
vn -0.480152 -0.000000 -0.877185
vn -0.480152 -0.000000 -0.877185
vn -0.035651 -0.047535 0.998233
vn -0.035651 -0.047535 0.998233
vn -0.035651 -0.047535 0.998233
vn -0.013154 -0.017539 0.999760
vn -0.013154 -0.017539 0.999760
vn -0.013154 -0.017539 0.999760
vn -0.035691 0.000000 0.999363
vn -0.035691 0.000000 0.999363
vn -0.035691 0.000000 0.999363
vn -0.035691 0.000000 0.999363
vn -0.035691 0.000000 0.999363
vn -0.035691 0.000000 0.999363
vn 0.035685 -0.019032 0.999182
vn 0.035685 -0.019032 0.999182
vn 0.035685 -0.019032 0.999182
vn 0.014268 -0.047560 0.998766
vn 0.014268 -0.047560 0.998766
vn 0.014268 -0.047560 0.998766
vn 0.000000 -0.047565 0.998868
vn 0.000000 -0.047565 0.998868
vn 0.000000 -0.047565 0.998868
vn 0.000000 -0.047565 0.998868
vn 0.000000 -0.047565 0.998868
vn 0.000000 -0.047565 0.998868
vn 0.035692 0.000000 0.999363
vn 0.035692 0.000000 0.999363
vn 0.035692 0.000000 0.999363
vn 0.035692 0.000000 0.999363
vn 0.035692 0.000000 0.999363
vn 0.035692 0.000000 0.999363
vn 0.000000 0.000000 1.000000
vn 0.000000 0.000000 1.000000
vn 0.000000 0.000000 1.000000
vn 0.000000 0.000000 1.000000
vn 0.000000 0.000000 1.000000
vn 0.000000 0.000000 1.000000
vn 0.013155 0.017540 0.999760
vn 0.013155 0.017540 0.999760
vn 0.013155 0.017540 0.999760
vn 0.035651 0.047535 0.998233
vn 0.035651 0.047535 0.998233
vn 0.035651 0.047535 0.998233
vn 0.000000 0.047565 0.998868
vn 0.000000 0.047565 0.998868
vn 0.000000 0.047565 0.998868
vn 0.000000 0.047565 0.998868
vn 0.000000 0.047565 0.998868
vn 0.000000 0.047565 0.998868
vn -0.525384 0.049183 -0.849443
vn -0.525384 0.049183 -0.849443
vn -0.525384 0.049183 -0.849443
vn 0.033483 0.635875 -0.771065
vn 0.033483 0.635875 -0.771065
vn 0.033483 0.635875 -0.771065
vn 0.033484 -0.635876 -0.771065
vn 0.033484 -0.635876 -0.771065
vn 0.033484 -0.635876 -0.771065
vn -0.525383 -0.049183 -0.849443
vn -0.525383 -0.049183 -0.849443
vn -0.525383 -0.049183 -0.849443

g Material.001
f 3/1/1 1/2/2 2/3/3
f 4/4/4 1/5/5 3/6/6
f 7/7/7 5/8/8 6/9/9
f 8/10/10 5/11/11 7/12/12
f 11/13/13 9/14/14 10/15/15
f 12/16/16 9/17/17 11/18/18
f 15/19/19 13/20/20 14/21/21
f 16/22/22 13/23/23 15/24/24
f 111/25/25 109/26/26 110/27/27
f 112/28/28 109/29/29 111/30/30
f 115/31/31 113/32/32 114/33/33
f 116/34/34 113/35/35 115/36/36
f 119/37/37 117/38/38 118/39/39
f 120/40/40 117/41/41 119/42/42
f 123/43/43 121/44/44 122/45/45
f 124/46/46 121/47/47 123/48/48
f 127/49/49 125/50/50 126/51/51
f 128/52/52 125/53/53 127/54/54
f 131/55/55 129/56/56 130/57/57
f 132/58/58 129/59/59 131/60/60
f 135/61/61 133/62/62 134/63/63
f 136/64/64 133/65/65 135/66/66
f 139/67/67 137/68/68 138/69/69
f 140/70/70 137/71/71 139/72/72
f 143/73/73 141/74/74 142/75/75
f 144/76/76 141/77/77 143/78/78
f 147/79/79 145/80/80 146/81/81
f 148/82/82 145/83/83 147/84/84

g Material
f 19/85/85 17/86/86 18/87/87
f 20/88/88 17/89/89 19/90/90
f 23/91/91 21/92/92 22/93/93
f 24/94/94 21/95/95 23/96/96
f 27/97/97 25/98/98 26/99/99
f 28/100/100 25/101/101 27/102/102
f 31/103/103 29/104/104 30/105/105
f 32/106/106 29/107/107 31/108/108
f 35/109/109 33/110/110 34/111/111
f 36/112/112 33/113/113 35/114/114
f 39/115/115 37/116/116 38/117/117
f 40/118/118 37/119/119 39/120/120
f 43/121/121 41/122/122 42/123/123
f 44/124/124 41/125/125 43/126/126
f 47/127/127 45/128/128 46/129/129
f 48/130/130 45/131/131 47/132/132
f 51/133/133 49/134/134 50/135/135
f 52/136/136 49/137/137 51/138/138
f 55/139/139 53/140/140 54/141/141
f 56/142/142 53/143/143 55/144/144
f 59/145/145 57/146/146 58/147/147
f 60/148/148 57/149/149 59/150/150
f 63/151/151 61/152/152 62/153/153
f 64/154/154 61/155/155 63/156/156
f 67/157/157 65/158/158 66/159/159
f 68/160/160 65/161/161 67/162/162
f 71/163/163 69/164/164 70/165/165
f 72/166/166 69/167/167 71/168/168
f 75/169/169 73/170/170 74/171/171
f 76/172/172 73/173/173 75/174/174
f 79/175/175 77/176/176 78/177/177
f 80/178/178 77/179/179 79/180/180
f 83/181/181 81/182/182 82/183/183
f 84/184/184 81/185/185 83/186/186
f 87/187/187 85/188/188 86/189/189
f 88/190/190 85/191/191 87/192/192
f 91/193/193 89/194/194 90/195/195
f 92/196/196 89/197/197 91/198/198
f 95/199/199 93/200/200 94/201/201
f 96/202/202 93/203/203 95/204/204
f 99/205/205 97/206/206 98/207/207
f 100/208/208 97/209/209 99/210/210
f 103/211/211 101/212/212 102/213/213
f 104/214/214 101/215/215 103/216/216
f 107/217/217 105/218/218 106/219/219
f 108/220/220 105/221/221 107/222/222
f 151/223/223 149/224/224 150/225/225
f 152/226/226 149/227/227 151/228/228
f 155/229/229 153/230/230 154/231/231
f 158/232/232 156/233/233 157/234/234
f 159/235/235 156/236/236 158/237/237
f 162/238/238 160/239/239 161/240/240
f 163/241/241 160/242/242 162/243/243
f 166/244/244 164/245/245 165/246/246
f 167/247/247 164/248/248 166/249/249
f 170/250/250 168/251/251 169/252/252
f 171/253/253 168/254/254 170/255/255
f 174/256/256 172/257/257 173/258/258
f 175/259/259 172/260/260 174/261/261
f 178/262/262 176/263/263 177/264/264
f 179/265/265 176/266/266 178/267/267
f 182/268/268 180/269/269 181/270/270
f 183/271/271 180/272/272 182/273/273
f 186/274/274 184/275/275 185/276/276
f 187/277/277 184/278/278 186/279/279
f 190/280/280 188/281/281 189/282/282
f 191/283/283 188/284/284 190/285/285
f 194/286/286 192/287/287 193/288/288
f 195/289/289 192/290/290 194/291/291
f 198/292/292 196/293/293 197/294/294
f 199/295/295 196/296/296 198/297/297
f 202/298/298 200/299/299 201/300/300
f 203/301/301 200/302/302 202/303/303
f 206/304/304 204/305/305 205/306/306
f 207/307/307 204/308/308 206/309/309
f 210/310/310 208/311/311 209/312/312
f 211/313/313 208/314/314 210/315/315
f 214/316/316 212/317/317 213/318/318
f 215/319/319 212/320/320 214/321/321
f 218/322/322 216/323/323 217/324/324
f 219/325/325 216/326/326 218/327/327
f 222/328/328 220/329/329 221/330/330
f 223/331/331 220/332/332 222/333/333
f 226/334/334 224/335/335 225/336/336
f 227/337/337 224/338/338 226/339/339
f 230/340/340 228/341/341 229/342/342
f 231/343/343 228/344/344 230/345/345
f 234/346/346 232/347/347 233/348/348
f 235/349/349 232/350/350 234/351/351
f 238/352/352 236/353/353 237/354/354
f 239/355/355 236/356/356 238/357/357
f 242/358/358 240/359/359 241/360/360
f 243/361/361 240/362/362 242/363/363
f 246/364/364 244/365/365 245/366/366
f 247/367/367 244/368/368 246/369/369
f 250/370/370 248/371/371 249/372/372
f 251/373/373 248/374/374 250/375/375
f 254/376/376 252/377/377 253/378/378
f 255/379/379 252/380/380 254/381/381
f 258/382/382 256/383/383 257/384/384
f 259/385/385 256/386/386 258/387/387
f 262/388/388 260/389/389 261/390/390
f 263/391/391 260/392/392 262/393/393
f 266/394/394 264/395/395 265/396/396
f 267/397/397 264/398/398 266/399/399
f 270/400/400 268/401/401 269/402/402
f 271/403/403 268/404/404 270/405/405
f 274/406/406 272/407/407 273/408/408
f 275/409/409 272/410/410 274/411/411
f 278/412/412 276/413/413 277/414/414
f 279/415/415 276/416/416 278/417/417
f 282/418/418 280/419/419 281/420/420
f 283/421/421 280/422/422 282/423/423
f 286/424/424 284/425/425 285/426/426
f 287/427/427 284/428/428 286/429/429
f 290/430/430 288/431/431 289/432/432
f 291/433/433 288/434/434 290/435/435
f 294/436/436 292/437/437 293/438/438
f 295/439/439 292/440/440 294/441/441
f 298/442/442 296/443/443 297/444/444
f 299/445/445 296/446/446 298/447/447
f 302/448/448 300/449/449 301/450/450
f 305/451/451 303/452/452 304/453/453
f 306/454/454 303/455/455 305/456/456
f 309/457/457 307/458/458 308/459/459
f 312/460/460 310/461/461 311/462/462
f 313/463/463 310/464/464 312/465/465
f 316/466/466 314/467/467 315/468/468
f 317/469/469 314/470/470 316/471/471
f 320/472/472 318/473/473 319/474/474
f 321/475/475 318/476/476 320/477/477
f 324/478/478 322/479/479 323/480/480
f 327/481/481 325/482/482 326/483/483
f 328/484/484 325/485/485 327/486/486
f 331/487/487 329/488/488 330/489/489
f 332/490/490 329/491/491 331/492/492
f 335/493/493 333/494/494 334/495/495
f 336/496/496 333/497/497 335/498/498
f 339/499/499 337/500/500 338/501/501
f 340/502/502 337/503/503 339/504/504
f 343/505/505 341/506/506 342/507/507
f 344/508/508 341/509/509 343/510/510
f 347/511/511 345/512/512 346/513/513
f 348/514/514 345/515/515 347/516/516
f 351/517/517 349/518/518 350/519/519
f 352/520/520 349/521/521 351/522/522
f 355/523/523 353/524/524 354/525/525
f 356/526/526 353/527/527 355/528/528
f 359/529/529 357/530/530 358/531/531
f 360/532/532 357/533/533 359/534/534
f 363/535/535 361/536/536 362/537/537
f 366/538/538 364/539/539 365/540/540
f 369/541/541 367/542/542 368/543/543
f 372/544/544 370/545/545 371/546/546
f 375/547/547 373/548/548 374/549/549
f 376/550/550 373/551/551 375/552/552
f 379/553/553 377/554/554 378/555/555
f 382/556/556 380/557/557 381/558/558
f 383/559/559 380/560/560 382/561/561
f 386/562/562 384/563/563 385/564/564
f 387/565/565 384/566/566 386/567/567
f 390/568/568 388/569/569 389/570/570
f 391/571/571 388/572/572 390/573/573
f 394/574/574 392/575/575 393/576/576
f 395/577/577 392/578/578 394/579/579
f 398/580/580 396/581/581 397/582/582
f 399/583/583 396/584/584 398/585/585
f 402/586/586 400/587/587 401/588/588
f 403/589/589 400/590/590 402/591/591
f 406/592/592 404/593/593 405/594/594
f 407/595/595 404/596/596 406/597/597
f 410/598/598 408/599/599 409/600/600
f 411/601/601 408/602/602 410/603/603
f 414/604/604 412/605/605 413/606/606
f 415/607/607 412/608/608 414/609/609
f 418/610/610 416/611/611 417/612/612
f 419/613/613 416/614/614 418/615/615
f 422/616/616 420/617/617 421/618/618
f 423/619/619 420/620/620 422/621/621
f 426/622/622 424/623/623 425/624/624
f 427/625/625 424/626/626 426/627/627
f 430/628/628 428/629/629 429/630/630
f 431/631/631 428/632/632 430/633/633
f 434/634/634 432/635/635 433/636/636
f 435/637/637 432/638/638 434/639/639
f 438/640/640 436/641/641 437/642/642
f 439/643/643 436/644/644 438/645/645
f 442/646/646 440/647/647 441/648/648
f 443/649/649 440/650/650 442/651/651
f 446/652/652 444/653/653 445/654/654
f 447/655/655 444/656/656 446/657/657
f 450/658/658 448/659/659 449/660/660
f 451/661/661 448/662/662 450/663/663
f 454/664/664 452/665/665 453/666/666
f 455/667/667 452/668/668 454/669/669
f 458/670/670 456/671/671 457/672/672
f 459/673/673 456/674/674 458/675/675
f 462/676/676 460/677/677 461/678/678
f 463/679/679 460/680/680 462/681/681
f 466/682/682 464/683/683 465/684/684
f 467/685/685 464/686/686 466/687/687
f 470/688/688 468/689/689 469/690/690
f 471/691/691 468/692/692 470/693/693
f 474/694/694 472/695/695 473/696/696
f 475/697/697 472/698/698 474/699/699
f 478/700/700 476/701/701 477/702/702
f 479/703/703 476/704/704 478/705/705
f 482/706/706 480/707/707 481/708/708
f 483/709/709 480/710/710 482/711/711
f 486/712/712 484/713/713 485/714/714
f 487/715/715 484/716/716 486/717/717
f 490/718/718 488/719/719 489/720/720
f 491/721/721 488/722/722 490/723/723
f 494/724/724 492/725/725 493/726/726
f 495/727/727 492/728/728 494/729/729
f 498/730/730 496/731/731 497/732/732
f 499/733/733 496/734/734 498/735/735
f 502/736/736 500/737/737 501/738/738
f 503/739/739 500/740/740 502/741/741
f 506/742/742 504/743/743 505/744/744
f 507/745/745 504/746/746 506/747/747
f 510/748/748 508/749/749 509/750/750
f 511/751/751 508/752/752 510/753/753
f 514/754/754 512/755/755 513/756/756
f 515/757/757 512/758/758 514/759/759
f 518/760/760 516/761/761 517/762/762
f 519/763/763 516/764/764 518/765/765
f 522/766/766 520/767/767 521/768/768
f 523/769/769 520/770/770 522/771/771
f 526/772/772 524/773/773 525/774/774
f 529/775/775 527/776/776 528/777/777
f 530/778/778 527/779/779 529/780/780
f 533/781/781 531/782/782 532/783/783
f 536/784/784 534/785/785 535/786/786
f 537/787/787 534/788/788 536/789/789
f 540/790/790 538/791/791 539/792/792
f 541/793/793 538/794/794 540/795/795
f 544/796/796 542/797/797 543/798/798
f 545/799/799 542/800/800 544/801/801
f 548/802/802 546/803/803 547/804/804
f 551/805/805 549/806/806 550/807/807
f 552/808/808 549/809/809 551/810/810
f 555/811/811 553/812/812 554/813/813
f 556/814/814 553/815/815 555/816/816
f 559/817/817 557/818/818 558/819/819
f 560/820/820 557/821/821 559/822/822
f 563/823/823 561/824/824 562/825/825
f 564/826/826 561/827/827 563/828/828
f 567/829/829 565/830/830 566/831/831
f 568/832/832 565/833/833 567/834/834
f 571/835/835 569/836/836 570/837/837
f 572/838/838 569/839/839 571/840/840
f 575/841/841 573/842/842 574/843/843
f 576/844/844 573/845/845 575/846/846
f 579/847/847 577/848/848 578/849/849
f 580/850/850 577/851/851 579/852/852
f 583/853/853 581/854/854 582/855/855
f 584/856/856 581/857/857 583/858/858
f 587/859/859 585/860/860 586/861/861
f 590/862/862 588/863/863 589/864/864
f 593/865/865 591/866/866 592/867/867
f 596/868/868 594/869/869 595/870/870

