# Converted from B3D for Luanti (With Correct Normals)
# Object Name: multidecor_kitchen_cooker_oven_door

v 1.000000 0.000000 -0.000000
v 1.000000 0.000000 0.200000
v -1.000000 -0.000001 0.200000
v -1.000000 -0.000000 0.000000
v -1.000000 -0.000001 0.200000
v -1.000000 1.199999 0.200000
v -1.000000 1.199999 0.000000
v -1.000000 -0.000000 0.000000
v 1.000000 0.000000 -0.000000
v 1.000000 1.199999 -0.000000
v 1.000000 1.199999 0.200000
v 1.000000 0.000000 0.200000
v 1.000000 0.000000 0.200000
v 1.000000 1.199999 0.200000
v -1.000000 1.199999 0.200000
v -1.000000 -0.000001 0.200000
v -1.000000 1.199999 0.000000
v -1.000000 1.199999 0.200000
v 1.000000 1.199999 0.200000
v 1.000000 1.199999 -0.000000
v 0.900000 1.000452 0.200000
v 0.900000 1.149999 0.200000
v 0.900000 1.149999 0.374773
v 0.900000 1.000452 0.374773
v -0.750452 1.000452 0.200000
v -0.750452 1.149999 0.200000
v -0.750452 1.149999 0.374774
v -0.750452 1.000452 0.374774
v -0.750452 1.000452 0.374774
v -0.750452 1.149999 0.374774
v -0.900000 1.149999 0.374774
v -0.900000 1.000452 0.374774
v -0.900000 1.000452 0.374774
v -0.900000 1.149999 0.374774
v -0.900000 1.149999 0.200000
v -0.900000 1.000452 0.200000
v -0.750452 1.000452 0.200000
v -0.750452 1.000452 0.374774
v -0.900000 1.000452 0.374774
v -0.900000 1.000452 0.200000
v -0.750452 1.149999 0.374774
v -0.750452 1.149999 0.200000
v -0.900000 1.149999 0.200000
v -0.900000 1.149999 0.374774
v 0.900000 1.000452 0.374773
v 0.900000 1.149999 0.374773
v 0.750452 1.149999 0.374774
v 0.750452 1.000452 0.374773
v 0.750452 1.000452 0.374773
v 0.750452 1.149999 0.374774
v 0.750452 1.149999 0.200000
v 0.750452 1.000452 0.200000
v 0.900000 1.000452 0.200000
v 0.900000 1.000452 0.374773
v 0.750452 1.000452 0.374773
v 0.750452 1.000452 0.200000
v 0.900000 1.149999 0.374773
v 0.900000 1.149999 0.200000
v 0.750452 1.149999 0.200000
v 0.750452 1.149999 0.374774
v 0.750452 1.037839 0.356080
v 0.750452 1.112612 0.356080
v -0.750452 1.112612 0.356081
v -0.750452 1.037839 0.356081
v 0.750452 1.037839 0.268693
v -0.750452 1.037839 0.268694
v -0.750452 1.112612 0.268694
v 0.750452 1.112612 0.268693
v 0.750452 1.037839 0.268693
v 0.750452 1.037839 0.356080
v -0.750452 1.037839 0.356081
v -0.750452 1.037839 0.268694
v 0.750452 1.112612 0.356080
v 0.750452 1.112612 0.268693
v -0.750452 1.112612 0.268694
v -0.750452 1.112612 0.356081
v 1.000000 0.000000 -0.000000
v -1.000000 -0.000000 0.000000
v -1.000000 1.199999 0.000000
v 1.000000 1.199999 -0.000000

vt 0.466828 0.733507
vt 0.400158 0.066809
vt 0.466828 0.066809
vt 0.400158 0.733507
vt 0.400158 0.066809
vt 0.466828 0.733507
vt 0.866847 0.800177
vt 0.466828 0.733507
vt 0.866847 0.733507
vt 0.466828 0.800177
vt 0.466828 0.733507
vt 0.866847 0.800177
vt 0.866846 0.066809
vt 0.466828 0.000139
vt 0.866846 0.000139
vt 0.466828 0.066809
vt 0.466828 0.000139
vt 0.866846 0.066809
vt 0.400158 0.733507
vt 0.000139 0.066809
vt 0.400157 0.066809
vt 0.000139 0.733507
vt 0.000139 0.066809
vt 0.400158 0.733507
vt 0.866846 0.066809
vt 0.933517 0.733507
vt 0.866847 0.733507
vt 0.933517 0.066809
vt 0.933517 0.733507
vt 0.866846 0.066809
vt 0.000139 0.733507
vt 0.400158 0.066809
vt 0.400158 0.733507
vt 0.000139 0.066809
vt 0.400158 0.066809
vt 0.000139 0.733507
vt 0.658985 0.999861
vt 0.717246 0.950009
vt 0.717246 0.999861
vt 0.658985 0.950009
vt 0.717246 0.950009
vt 0.658985 0.999861
vt 0.550595 0.950009
vt 0.608856 0.900158
vt 0.608856 0.950009
vt 0.550595 0.900158
vt 0.608856 0.900158
vt 0.550595 0.950009
vt 0.500743 0.950009
vt 0.550595 0.900158
vt 0.550595 0.950009
vt 0.500743 0.900158
vt 0.550595 0.900158
vt 0.500743 0.950009
vt 0.608856 0.800455
vt 0.550595 0.850306
vt 0.550595 0.800455
vt 0.608856 0.850306
vt 0.550595 0.850306
vt 0.608856 0.800455
vt 0.550595 0.850306
vt 0.608856 0.900158
vt 0.550595 0.900158
vt 0.608856 0.850306
vt 0.608856 0.900158
vt 0.550595 0.850306
vt 0.608856 0.999861
vt 0.550595 0.950009
vt 0.608856 0.950009
vt 0.550595 0.999861
vt 0.550595 0.950009
vt 0.608856 0.999861
vt 0.658985 0.850307
vt 0.609134 0.900158
vt 0.609134 0.850307
vt 0.658985 0.900158
vt 0.609134 0.900158
vt 0.658985 0.850307
vt 0.717246 0.850307
vt 0.658985 0.900158
vt 0.658985 0.850307
vt 0.717246 0.900158
vt 0.658985 0.900158
vt 0.717246 0.850307
vt 0.658985 0.900158
vt 0.717246 0.950009
vt 0.658985 0.950009
vt 0.717246 0.900158
vt 0.717246 0.950009
vt 0.658985 0.900158
vt 0.717246 0.850307
vt 0.658985 0.800455
vt 0.717246 0.800455
vt 0.658985 0.850307
vt 0.658985 0.800455
vt 0.717246 0.850307
vt 0.500465 0.800455
vt 0.000139 0.825381
vt 0.000139 0.800455
vt 0.500465 0.825381
vt 0.000139 0.825381
vt 0.500465 0.800455
vt 0.500465 0.879437
vt 0.000139 0.854511
vt 0.500465 0.854511
vt 0.000139 0.879437
vt 0.000139 0.854511
vt 0.500465 0.879437
vt 0.500465 0.825381
vt 0.000139 0.854511
vt 0.000139 0.825381
vt 0.500465 0.854511
vt 0.000139 0.854511
vt 0.500465 0.825381
vt 0.500465 0.879437
vt 0.000139 0.908567
vt 0.000139 0.879437
vt 0.500465 0.908567
vt 0.000139 0.908567
vt 0.500465 0.879437

vn 0.000000 -1.000000 0.000000
vn 0.000000 -1.000000 0.000000
vn 0.000000 -1.000000 0.000000
vn 0.000000 -1.000000 -0.000002
vn 0.000000 -1.000000 -0.000002
vn 0.000000 -1.000000 -0.000002
vn -1.000000 0.000000 0.000001
vn -1.000000 0.000000 0.000001
vn -1.000000 0.000000 0.000001
vn -1.000000 0.000000 0.000000
vn -1.000000 0.000000 0.000000
vn -1.000000 0.000000 0.000000
vn 1.000000 0.000000 0.000000
vn 1.000000 0.000000 0.000000
vn 1.000000 0.000000 0.000000
vn 1.000000 0.000000 0.000000
vn 1.000000 0.000000 0.000000
vn 1.000000 0.000000 0.000000
vn 0.000000 0.000000 1.000000
vn 0.000000 0.000000 1.000000
vn 0.000000 0.000000 1.000000
vn 0.000000 0.000000 1.000000
vn 0.000000 0.000000 1.000000
vn 0.000000 0.000000 1.000000
vn -0.000000 1.000000 0.000000
vn -0.000000 1.000000 0.000000
vn -0.000000 1.000000 0.000000
vn -0.000000 1.000000 0.000000
vn -0.000000 1.000000 0.000000
vn -0.000000 1.000000 0.000000
vn -0.000000 0.000000 -1.000000
vn -0.000000 0.000000 -1.000000
vn -0.000000 0.000000 -1.000000
vn -0.000000 -0.000000 -1.000000
vn -0.000000 -0.000000 -1.000000
vn -0.000000 -0.000000 -1.000000
vn 1.000000 -0.000000 0.000000
vn 1.000000 -0.000000 0.000000
vn 1.000000 -0.000000 0.000000
vn 1.000000 0.000000 0.000000
vn 1.000000 0.000000 0.000000
vn 1.000000 0.000000 0.000000
vn 1.000000 -0.000000 -0.000001
vn 1.000000 -0.000000 -0.000001
vn 1.000000 -0.000000 -0.000001
vn 1.000000 0.000000 0.000000
vn 1.000000 0.000000 0.000000
vn 1.000000 0.000000 0.000000
vn 0.000000 -0.000001 1.000000
vn 0.000000 -0.000001 1.000000
vn 0.000000 -0.000001 1.000000
vn 0.000000 -0.000001 1.000000
vn 0.000000 -0.000001 1.000000
vn 0.000000 -0.000001 1.000000
vn -1.000000 -0.000000 0.000000
vn -1.000000 -0.000000 0.000000
vn -1.000000 -0.000000 0.000000
vn -1.000000 0.000000 0.000001
vn -1.000000 0.000000 0.000001
vn -1.000000 0.000000 0.000001
vn -0.000000 -1.000000 0.000000
vn -0.000000 -1.000000 0.000000
vn -0.000000 -1.000000 0.000000
vn -0.000000 -1.000000 0.000000
vn -0.000000 -1.000000 0.000000
vn -0.000000 -1.000000 0.000000
vn -0.000001 1.000000 0.000000
vn -0.000001 1.000000 0.000000
vn -0.000001 1.000000 0.000000
vn -0.000000 1.000000 0.000000
vn -0.000000 1.000000 0.000000
vn -0.000000 1.000000 0.000000
vn 0.000000 -0.000001 1.000000
vn 0.000000 -0.000001 1.000000
vn 0.000000 -0.000001 1.000000
vn 0.000000 -0.000001 1.000000
vn 0.000000 -0.000001 1.000000
vn 0.000000 -0.000001 1.000000
vn -1.000000 -0.000000 0.000000
vn -1.000000 -0.000000 0.000000
vn -1.000000 -0.000000 0.000000
vn -1.000000 0.000000 0.000001
vn -1.000000 0.000000 0.000001
vn -1.000000 0.000000 0.000001
vn -0.000000 -1.000000 0.000000
vn -0.000000 -1.000000 0.000000
vn -0.000000 -1.000000 0.000000
vn -0.000000 -1.000000 0.000000
vn -0.000000 -1.000000 0.000000
vn -0.000000 -1.000000 0.000000
vn -0.000001 1.000000 0.000000
vn -0.000001 1.000000 0.000000
vn -0.000001 1.000000 0.000000
vn -0.000000 1.000000 0.000000
vn -0.000000 1.000000 0.000000
vn -0.000000 1.000000 0.000000
vn 0.000000 0.000000 1.000000
vn 0.000000 0.000000 1.000000
vn 0.000000 0.000000 1.000000
vn 0.000000 0.000000 1.000000
vn 0.000000 0.000000 1.000000
vn 0.000000 0.000000 1.000000
vn -0.000000 0.000002 -1.000000
vn -0.000000 0.000002 -1.000000
vn -0.000000 0.000002 -1.000000
vn -0.000000 0.000002 -1.000000
vn -0.000000 0.000002 -1.000000
vn -0.000000 0.000002 -1.000000
vn -0.000000 -1.000000 0.000000
vn -0.000000 -1.000000 0.000000
vn -0.000000 -1.000000 0.000000
vn -0.000000 -1.000000 0.000000
vn -0.000000 -1.000000 0.000000
vn -0.000000 -1.000000 0.000000
vn -0.000000 1.000000 0.000000
vn -0.000000 1.000000 0.000000
vn -0.000000 1.000000 0.000000
vn 0.000000 1.000000 0.000000
vn 0.000000 1.000000 0.000000
vn 0.000000 1.000000 0.000000

g Material.001
f 3/1/1 1/2/2 2/3/3
f 4/4/4 1/5/5 3/6/6
f 7/7/7 5/8/8 6/9/9
f 8/10/10 5/11/11 7/12/12
f 11/13/13 9/14/14 10/15/15
f 12/16/16 9/17/17 11/18/18
f 15/19/19 13/20/20 14/21/21
f 16/22/22 13/23/23 15/24/24
f 19/25/25 17/26/26 18/27/27
f 20/28/28 17/29/29 19/30/30
f 79/31/31 77/32/32 78/33/33
f 80/34/34 77/35/35 79/36/36

g Material.002
f 23/37/37 21/38/38 22/39/39
f 24/40/40 21/41/41 23/42/42
f 27/43/43 25/44/44 26/45/45
f 28/46/46 25/47/47 27/48/48
f 31/49/49 29/50/50 30/51/51
f 32/52/52 29/53/53 31/54/54
f 35/55/55 33/56/56 34/57/57
f 36/58/58 33/59/59 35/60/60
f 39/61/61 37/62/62 38/63/63
f 40/64/64 37/65/65 39/66/66
f 43/67/67 41/68/68 42/69/69
f 44/70/70 41/71/71 43/72/72
f 47/73/73 45/74/74 46/75/75
f 48/76/76 45/77/77 47/78/78
f 51/79/79 49/80/80 50/81/81
f 52/82/82 49/83/83 51/84/84
f 55/85/85 53/86/86 54/87/87
f 56/88/88 53/89/89 55/90/90
f 59/91/91 57/92/92 58/93/93
f 60/94/94 57/95/95 59/96/96
f 63/97/97 61/98/98 62/99/99
f 64/100/100 61/101/101 63/102/102
f 67/103/103 65/104/104 66/105/105
f 68/106/106 65/107/107 67/108/108
f 71/109/109 69/110/110 70/111/111
f 72/112/112 69/113/113 71/114/114
f 75/115/115 73/116/116 74/117/117
f 76/118/118 73/119/119 75/120/120

