# Converted from B3D for Luanti (With Correct Normals)
# Object Name: multidecor_spiral_plank_stair_segment_with_banister

v -0.366025 1.000000 0.366026
v 1.000000 1.000000 -1.000000
v 1.000000 0.800000 -1.000000
v -0.366025 0.800000 0.366026
v 1.000000 1.000000 -1.000000
v 1.000000 1.000000 1.000000
v 1.000000 0.800000 1.000000
v 1.000000 0.800000 -1.000000
v 0.000000 0.800000 0.732051
v 1.000000 0.800000 -1.000000
v 1.000000 0.800000 1.000000
v -1.000000 0.000000 -1.000000
v -0.732051 0.000000 0.000000
v 1.000000 0.000000 -1.000000
v -0.366025 0.800000 0.366026
v 1.000000 0.800000 -1.000000
v 0.000000 0.800000 0.732051
v -1.000000 0.000000 -1.000000
v 1.000000 0.000000 -1.000000
v 1.000000 -0.200000 -1.000000
v -1.000000 -0.200000 -1.000000
v 1.000000 0.000000 -1.000000
v -0.366025 0.000000 0.366025
v -0.366025 -0.200000 0.366025
v 1.000000 -0.200000 -1.000000
v -0.366025 1.000000 0.366026
v 0.000000 1.000000 0.732051
v 1.000000 1.000000 -1.000000
v 0.000000 1.000000 0.732051
v 1.000000 1.000000 1.000000
v 1.000000 1.000000 -1.000000
v -0.732051 0.000000 0.000000
v -0.366025 0.000000 0.366025
v 1.000000 0.000000 -1.000000
v -0.732051 -0.200000 0.000000
v 1.000000 -0.200000 -1.000000
v -0.366025 -0.200000 0.366025
v -1.000000 -0.200000 -1.000000
v 1.000000 -0.200000 -1.000000
v -0.732051 -0.200000 0.000000
v -1.000000 0.000000 -1.000000
v -1.000000 -1.000000 -1.000000
v -1.103703 -1.000000 -1.000000
v -1.103703 0.000000 -1.000000
v -0.815702 -0.333333 0.048296
v -0.048296 0.333333 0.815703
v -0.048296 1.333333 0.815703
v -0.815702 0.666667 0.048296
v -0.732051 -0.333333 0.000000
v 0.000000 0.333333 0.732051
v -0.048296 0.333333 0.815703
v -0.815702 -0.333333 0.048296
v -0.732051 0.666667 0.000000
v 0.000000 1.333333 0.732051
v 0.000000 0.333333 0.732051
v -0.732051 -0.333333 0.000000
v -0.815702 0.666667 0.048296
v -1.103703 0.000000 -1.000000
v -1.103703 -1.000000 -1.000000
v -0.815702 -0.333333 0.048296
v -0.732051 0.666667 0.000000
v -1.000000 0.000000 -1.000000
v -1.103703 0.000000 -1.000000
v -0.815702 0.666667 0.048296
v -1.000000 -1.000000 -1.000000
v -0.732051 -0.333333 0.000000
v -0.815702 -0.333333 0.048296
v -1.103703 -1.000000 -1.000000
v 1.000000 2.000000 1.103703
v -0.048296 1.333333 0.815703
v -0.048296 0.333333 0.815703
v 1.000000 1.000000 1.103703
v 1.000000 1.000000 1.000000
v 1.000000 2.000000 1.000000
v 1.000000 2.000000 1.103703
v 1.000000 1.000000 1.103703
v 1.000000 2.000000 1.000000
v 0.000000 1.333333 0.732051
v -0.048296 1.333333 0.815703
v 1.000000 2.000000 1.103703
v 0.000000 0.333333 0.732051
v 1.000000 1.000000 1.000000
v 1.000000 1.000000 1.103703
v -0.048296 0.333333 0.815703
v -1.052313 0.061962 -0.907057
v -1.052313 1.059107 -0.907057
v -1.007593 1.043244 -0.932000
v -1.007593 0.045333 -0.932000
v 1.000000 -1.000000 -0.850000
v 1.106066 -1.000000 -0.893934
v 1.106066 1.000000 -0.893934
v 1.000000 1.000000 -0.850000
v 1.106066 -1.000000 -0.893934
v 1.150000 -1.000000 -1.000000
v 1.150000 1.000000 -1.000000
v 1.106066 1.000000 -0.893934
v 1.150000 -1.000000 -1.000000
v 1.106066 -1.000000 -1.106066
v 1.106066 1.000000 -1.106066
v 1.150000 1.000000 -1.000000
v 1.000000 1.000000 1.000000
v 0.000000 0.333333 0.732051
v 0.000000 1.333333 0.732051
v 1.000000 2.000000 1.000000
v 1.106066 -1.000000 -1.106066
v 1.000000 -1.000000 -1.150000
v 1.000000 1.000000 -1.150000
v 1.106066 1.000000 -1.106066
v -1.007593 0.045333 -0.932000
v -1.007593 1.043244 -0.932000
v -1.018626 1.017059 -0.973176
v -1.018626 0.017882 -0.973176
v -0.048296 2.533333 0.815703
v 0.000000 2.533333 0.732051
v -0.732051 1.866667 0.000000
v -0.815702 1.866667 0.048296
v 1.000000 -1.000000 -1.150000
v 0.893934 -1.000000 -1.106066
v 0.893934 1.000000 -1.106066
v 1.000000 1.000000 -1.150000
v -1.070478 0.017883 -0.973176
v -1.070478 1.017059 -0.973176
v -1.052313 1.059107 -0.907057
v -1.052313 0.061962 -0.907057
v 0.893934 -1.000000 -1.106066
v 0.850000 -1.000000 -1.000000
v 0.850000 1.000000 -1.000000
v 0.893934 1.000000 -1.106066
v 1.000000 1.000000 -0.850000
v 1.000000 1.000000 -1.150000
v 0.850000 1.000000 -1.000000
v -1.000000 -1.000000 -1.000000
v -1.000000 0.000000 -1.000000
v -0.732051 0.666667 0.000000
v -0.732051 -0.333333 0.000000
v 0.850000 -1.000000 -1.000000
v 0.893934 -1.000000 -0.893934
v 0.893934 1.000000 -0.893934
v 0.850000 1.000000 -1.000000
v -1.018626 0.017882 -0.973176
v -1.018626 1.017059 -0.973176
v -1.070478 1.017059 -0.973176
v -1.070478 0.017883 -0.973176
v 0.893934 -1.000000 -0.893934
v 1.000000 -1.000000 -0.850000
v 1.000000 1.000000 -0.850000
v 0.893934 1.000000 -0.893934
v 1.106066 -1.000000 -0.893934
v 0.893934 -1.000000 -1.106066
v 1.106066 -1.000000 -1.106066
v -0.733469 0.683602 0.031568
v -0.733469 1.684420 0.031568
v -0.775295 1.684420 0.055717
v -0.775295 0.683602 0.055717
v -0.775295 0.683602 0.055717
v -0.775295 1.684420 0.055717
v -0.727468 1.725151 0.103544
v -0.727468 0.725151 0.103544
v -0.703320 0.709794 0.061718
v -0.703320 1.709794 0.061718
v -0.733469 1.684420 0.031568
v -0.733469 0.683602 0.031568
v -0.727468 0.725151 0.103544
v -0.727468 1.725151 0.103544
v -0.703320 1.709794 0.061718
v -0.703320 0.709794 0.061718
v 0.056721 1.395482 0.820254
v 0.056721 2.392418 0.820254
v 0.055926 2.376467 0.771296
v 0.055926 1.378704 0.771296
v 0.055926 1.378704 0.771296
v 0.055926 2.376467 0.771296
v 0.014750 2.350369 0.760263
v 0.014750 1.351253 0.760263
v -0.009398 1.351253 0.802089
v -0.009398 2.350369 0.802089
v 0.056721 2.392418 0.820254
v 0.056721 1.395482 0.820254
v 0.014750 1.351253 0.760263
v 0.014750 2.350369 0.760263
v -0.009398 2.350369 0.802089
v -0.009398 1.351253 0.802089
v -1.000000 1.200000 -1.000000
v -1.000000 1.000000 -1.000000
v -1.103703 1.000000 -1.000000
v -1.103703 1.200000 -1.000000
v -0.815702 1.666667 0.048296
v -0.048296 2.333333 0.815703
v -0.048296 2.533333 0.815703
v -0.815702 1.866667 0.048296
v -0.732051 1.666667 0.000000
v 0.000000 2.333333 0.732051
v -0.048296 2.333333 0.815703
v -0.815702 1.666667 0.048296
v -0.732051 1.866667 0.000000
v 0.000000 2.533333 0.732051
v 0.000000 2.333333 0.732051
v -0.732051 1.666667 0.000000
v -0.815702 1.866667 0.048296
v -1.103703 1.200000 -1.000000
v -1.103703 1.000000 -1.000000
v -0.815702 1.666667 0.048296
v -0.732051 1.866667 0.000000
v -1.000000 1.200000 -1.000000
v -1.103703 1.200000 -1.000000
v -0.815702 1.866667 0.048296
v -1.000000 1.000000 -1.000000
v -0.732051 1.666667 0.000000
v -0.815702 1.666667 0.048296
v -1.103703 1.000000 -1.000000
v 1.000000 3.200000 1.103703
v -0.048296 2.533333 0.815703
v -0.048296 2.333333 0.815703
v 1.000000 3.000000 1.103703
v 1.000000 3.000000 1.000000
v 1.000000 3.200000 1.000000
v 1.000000 3.200000 1.103703
v 1.000000 3.000000 1.103703
v 1.000000 3.200000 1.000000
v 0.000000 2.533333 0.732051
v -0.048296 2.533333 0.815703
v 1.000000 3.200000 1.103703
v 0.000000 2.333333 0.732051
v 1.000000 3.000000 1.000000
v 1.000000 3.000000 1.103703
v -0.048296 2.333333 0.815703
v 1.000000 3.000000 1.000000
v 0.000000 2.333333 0.732051
v 0.000000 2.533333 0.732051
v 1.000000 3.200000 1.000000
v -1.000000 1.000000 -1.000000
v -1.000000 1.200000 -1.000000
v -0.732051 1.866667 0.000000
v -0.732051 1.666667 0.000000
v 1.000000 1.000000 1.000000
v 0.000000 1.000000 0.732051
v 0.000000 0.800000 0.732051
v 1.000000 0.800000 1.000000
v -0.732051 0.000000 0.000000
v -0.732051 -0.200000 0.000000
v -0.366025 -0.200000 0.366025
v -0.366025 0.000000 0.366025
v -0.048296 1.333333 0.815703
v 0.000000 1.333333 0.732051
v -0.732051 0.666667 0.000000
v -0.815702 0.666667 0.048296
v 1.150000 1.000000 -1.000000
v 1.000000 1.000000 -0.850000
v 1.106066 1.000000 -0.893934
v 1.000000 1.000000 -0.850000
v 0.850000 1.000000 -1.000000
v 0.893934 1.000000 -0.893934
v 0.850000 1.000000 -1.000000
v 1.000000 1.000000 -1.150000
v 0.893934 1.000000 -1.106066
v 1.000000 1.000000 -1.150000
v 1.150000 1.000000 -1.000000
v 1.106066 1.000000 -1.106066
v 1.150000 1.000000 -1.000000
v 1.000000 1.000000 -1.150000
v 1.000000 1.000000 -0.850000
v 0.893934 -1.000000 -0.893934
v 1.106066 -1.000000 -0.893934
v 1.000000 -1.000000 -0.850000
v 1.106066 -1.000000 -0.893934
v 1.106066 -1.000000 -1.106066
v 1.150000 -1.000000 -1.000000
v 1.106066 -1.000000 -1.106066
v 0.893934 -1.000000 -1.106066
v 1.000000 -1.000000 -1.150000
v 0.893934 -1.000000 -1.106066
v 0.893934 -1.000000 -0.893934
v 0.850000 -1.000000 -1.000000
v 0.893934 -1.000000 -0.893934
v 0.893934 -1.000000 -1.106066
v 1.106066 -1.000000 -0.893934

vt 2.340464 1.642158
vt 2.257107 0.836988
vt 2.257106 1.642158
vt 2.340464 0.836987
vt 2.257107 0.836988
vt 2.340464 1.642158
vt 2.340464 2.475728
vt 2.257106 1.642158
vt 2.257106 2.475728
vt 2.340464 1.642158
vt 2.257106 1.642158
vt 2.340464 2.475728
vt 0.592840 1.426412
vt 0.966520 1.642157
vt 1.182265 0.836987
vt 1.142096 0.834711
vt 1.142096 0.001138
vt 0.725310 0.112816
vt 0.966520 1.642157
vt 1.182265 1.642157
vt 1.182265 0.836987
vt 2.165286 0.469567
vt 2.998862 0.386209
vt 2.165286 0.386209
vt 2.998862 0.469567
vt 2.998862 0.386209
vt 2.165286 0.469567
vt 1.360114 0.469566
vt 2.165286 0.386209
vt 1.360114 0.386209
vt 2.165286 0.469567
vt 2.165286 0.386209
vt 1.360114 0.469566
vt 0.570479 0.001138
vt 0.001138 0.570480
vt 0.153693 0.723034
vt 0.570479 0.001138
vt 0.153693 0.723034
vt 0.570479 0.834711
vt 1.142096 0.834711
vt 0.725310 0.112816
vt 0.572755 0.265370
vt 0.590563 0.836987
vt 0.374819 0.836988
vt 0.590563 1.642157
vt 0.374819 0.836988
vt 0.001138 1.052732
vt 0.590563 1.642157
vt 1.561159 0.561002
vt 1.144372 0.604224
vt 1.561159 0.604224
vt 1.144372 0.561002
vt 1.144372 0.604224
vt 1.561159 0.561002
vt 1.899695 0.836987
vt 2.254830 1.585994
vt 2.254830 1.055140
vt 1.899695 1.367841
vt 2.254830 1.585994
vt 1.899695 0.836987
vt 1.012616 2.175286
vt 0.973322 1.653196
vt 0.973348 2.166408
vt 1.012616 1.644433
vt 0.973322 1.653196
vt 1.012616 2.175286
vt 2.250113 2.101484
vt 1.899695 1.813922
vt 1.899695 2.327136
vt 2.250113 1.588271
vt 1.899695 1.813922
vt 2.250113 2.101484
vt 1.184541 0.836987
vt 1.539842 1.586384
vt 1.539842 1.054869
vt 1.184541 1.368503
vt 1.539842 1.586384
vt 1.184541 0.836987
vt 0.882282 2.175947
vt 0.842942 1.652982
vt 0.840176 2.166186
vt 0.882282 1.644433
vt 0.842942 1.652982
vt 0.882282 2.175947
vt 0.837900 2.175950
vt 0.795794 1.654194
vt 0.798560 2.167401
vt 0.837900 1.644433
vt 0.795794 1.654194
vt 0.837900 2.175950
vt 1.542118 0.836987
vt 1.897419 1.586384
vt 1.897419 1.054869
vt 1.542118 1.368503
vt 1.897419 1.586384
vt 1.542118 0.836987
vt 2.342740 0.836987
vt 2.385962 1.253775
vt 2.385962 0.836987
vt 2.342740 1.253775
vt 2.385962 1.253775
vt 2.342740 0.836987
vt 0.749136 2.175950
vt 0.707030 1.654194
vt 0.709796 2.167401
vt 0.749136 1.644433
vt 0.707030 1.654194
vt 0.749136 2.175950
vt 0.926664 2.175947
vt 0.887324 1.652982
vt 0.884558 2.166186
vt 0.926664 1.644433
vt 0.887324 1.652982
vt 0.926664 2.175947
vt 0.438194 1.651045
vt 0.459536 2.060029
vt 0.459536 1.644433
vt 0.438195 2.066960
vt 0.459536 2.060029
vt 0.438194 1.651045
vt 1.184541 1.814312
vt 1.534958 2.101874
vt 1.534958 1.588661
vt 1.184541 2.327525
vt 1.534958 2.101874
vt 1.184541 1.814312
vt 0.509725 1.661958
vt 0.527493 2.066960
vt 0.527493 1.651044
vt 0.509726 2.078401
vt 0.527493 2.066960
vt 0.509725 1.661958
vt 0.459536 1.644433
vt 0.488115 2.078401
vt 0.488114 1.661958
vt 0.459536 2.060029
vt 0.488115 2.078401
vt 0.459536 1.644433
vt 1.892536 1.588661
vt 1.542118 2.327526
vt 1.892536 2.101874
vt 1.542118 1.814312
vt 1.542118 2.327526
vt 1.892536 1.588661
vt 0.488114 1.661958
vt 0.509726 2.078401
vt 0.509725 1.661958
vt 0.488115 2.078401
vt 0.509726 2.078401
vt 0.488114 1.661958
vt 0.567670 2.061560
vt 0.547541 1.644433
vt 0.547540 2.061560
vt 0.567670 1.644433
vt 0.547541 1.644433
vt 0.567670 2.061560
vt 0.595860 2.078537
vt 0.567670 1.644433
vt 0.567670 2.061560
vt 0.595860 1.661750
vt 0.567670 1.644433
vt 0.595860 2.078537
vt 0.547540 2.061560
vt 0.529769 1.655350
vt 0.529769 2.072136
vt 0.547541 1.644433
vt 0.529769 1.655350
vt 0.547540 2.061560
vt 0.615990 2.072135
vt 0.595860 1.661750
vt 0.595860 2.078537
vt 0.615990 1.655350
vt 0.595860 1.661750
vt 0.615990 2.072135
vt 1.151021 0.558726
vt 1.559882 0.538318
vt 1.144372 0.538318
vt 1.566875 0.558726
vt 1.559882 0.538318
vt 1.151021 0.558726
vt 1.161898 0.489610
vt 1.566875 0.471843
vt 1.151021 0.471843
vt 1.578315 0.489610
vt 1.566875 0.471843
vt 1.161898 0.489610
vt 1.144372 0.538318
vt 1.578315 0.509740
vt 1.161898 0.509739
vt 1.559882 0.538318
vt 1.578315 0.509740
vt 1.144372 0.538318
vt 1.161898 0.509739
vt 1.578315 0.489610
vt 1.161898 0.489610
vt 1.578315 0.509740
vt 1.578315 0.489610
vt 1.161898 0.509739
vt 2.340464 2.907218
vt 2.257106 2.475728
vt 2.257106 2.907218
vt 2.340464 2.475728
vt 2.257106 2.475728
vt 2.340464 2.907218
vt 1.360114 0.469566
vt 1.144372 0.386209
vt 1.144372 0.469566
vt 1.360114 0.386209
vt 1.144372 0.386209
vt 1.360114 0.469566
vt 1.056461 2.166524
vt 1.095755 1.644433
vt 1.056487 1.653312
vt 1.095755 2.175286
vt 1.095755 1.644433
vt 1.056461 2.166524
vt 0.085779 0.644687
vt 0.919350 0.692536
vt 0.919350 0.644686
vt 0.085779 0.692536
vt 0.919350 0.692536
vt 0.085779 0.644687
vt 0.085779 0.596838
vt 0.919350 0.644686
vt 0.919350 0.596837
vt 0.085779 0.644687
vt 0.919350 0.644686
vt 0.085779 0.596838
vt 0.085779 0.548988
vt 0.919350 0.596837
vt 0.919350 0.548988
vt 0.085779 0.596838
vt 0.919350 0.596837
vt 0.085779 0.548988
vt 0.085779 0.501139
vt 0.919350 0.548988
vt 0.919350 0.501138
vt 0.085779 0.548988
vt 0.919350 0.548988
vt 0.085779 0.501139
vt 0.790614 -0.022837
vt 0.268524 -0.062130
vt 0.277403 -0.022863
vt 0.799377 -0.062130
vt 0.268524 -0.062130
vt 0.790614 -0.022837
vt 0.085779 0.836083
vt 0.919350 0.883933
vt 0.919350 0.836084
vt 0.085778 0.883933
vt 0.919350 0.883933
vt 0.085779 0.836083
vt 0.085779 0.788234
vt 0.919350 0.836084
vt 0.919350 0.788234
vt 0.085779 0.836083
vt 0.919350 0.836084
vt 0.085779 0.788234
vt 0.644025 0.304050
vt 0.677859 0.222367
vt 0.562341 0.270216
vt 0.085779 0.740385
vt 0.919350 0.788234
vt 0.919350 0.740385
vt 0.085779 0.788234
vt 0.919350 0.788234
vt 0.085779 0.740385
vt 0.085779 0.692536
vt 0.919350 0.740385
vt 0.919350 0.692536
vt 0.085779 0.740385
vt 0.919350 0.740385
vt 0.085779 0.692536
vt 0.680136 0.222367
vt 0.713970 0.304050
vt 0.761819 0.188532
vt 0.645698 0.306327
vt 0.562341 0.349549
vt 0.645698 0.349549
vt 0.562341 0.306327
vt 0.562341 0.349549
vt 0.645698 0.306327
vt 0.268524 0.927383
vt 0.843008 0.856355
vt 0.312155 0.856355
vt 0.799378 0.927382
vt 0.843008 0.856355
vt 0.268524 0.927383
vt 0.799377 0.021009
vt 0.277287 0.060302
vt 0.790498 0.060277
vt 0.268524 0.021009
vt 0.277287 0.060302
vt 0.799377 0.021009
vt 0.313654 0.854079
vt 0.781738 0.783996
vt 0.268524 0.783996
vt 0.826868 0.854079
vt 0.781738 0.783996
vt 0.313654 0.854079
vt 0.268524 1.074056
vt 0.843616 1.002996
vt 0.312100 1.002996
vt 0.800040 1.074056
vt 0.843616 1.002996
vt 0.268524 1.074056
vt 0.800037 0.370440
vt 0.277073 0.409780
vt 0.790276 0.412546
vt 0.268524 0.370440
vt 0.277073 0.409780
vt 0.800037 0.370440
vt 0.800041 0.281676
vt 0.278285 0.323782
vt 0.791492 0.321016
vt 0.268524 0.281676
vt 0.278285 0.323782
vt 0.800041 0.281676
vt 0.268524 1.000719
vt 0.843616 0.929659
vt 0.312100 0.929659
vt 0.800039 1.000719
vt 0.843616 0.929659
vt 0.268524 1.000719
vt 0.647975 0.306327
vt 0.691197 0.389684
vt 0.691197 0.306327
vt 0.647975 0.389684
vt 0.691197 0.389684
vt 0.647975 0.306327
vt 0.800041 0.414822
vt 0.278285 0.456928
vt 0.791492 0.454162
vt 0.268524 0.414822
vt 0.278285 0.456928
vt 0.800041 0.414822
vt 0.800038 0.104148
vt 0.277073 0.143488
vt 0.790276 0.146254
vt 0.268524 0.104148
vt 0.277073 0.143488
vt 0.800038 0.104148
vt 0.313655 0.781719
vt 0.781737 0.711636
vt 0.268524 0.711636
vt 0.826868 0.781719
vt 0.781737 0.711636
vt 0.313655 0.781719
vt 0.826867 0.709359
vt 0.268524 0.639276
vt 0.313655 0.709359
vt 0.781737 0.639276
vt 0.268524 0.639276
vt 0.826867 0.709359
vt 0.644025 0.188532
vt 0.596175 0.188532
vt 0.677859 0.222367
vt 0.677859 0.270216
vt 0.677859 0.222367
vt 0.644025 0.304050
vt 0.596176 0.304050
vt 0.644025 0.304050
vt 0.562341 0.270216
vt 0.562341 0.222367
vt 0.562341 0.270216
vt 0.596175 0.188532
vt 0.677859 0.222367
vt 0.596175 0.188532
vt 0.562341 0.270216
vt 0.761819 0.304050
vt 0.795654 0.270216
vt 0.713970 0.304050
vt 0.680136 0.270216
vt 0.713970 0.304050
vt 0.680136 0.222367
vt 0.713970 0.188532
vt 0.680136 0.222367
vt 0.761819 0.188532
vt 0.795654 0.222367
vt 0.761819 0.188532
vt 0.795654 0.270216
vt 0.713970 0.304050
vt 0.795654 0.270216
vt 0.761819 0.188532

vn -0.707106 0.000000 -0.707107
vn -0.707106 0.000000 -0.707107
vn -0.707106 0.000000 -0.707107
vn -0.707107 0.000000 -0.707106
vn -0.707107 0.000000 -0.707106
vn -0.707107 0.000000 -0.707106
vn 1.000000 0.000000 0.000000
vn 1.000000 0.000000 0.000000
vn 1.000000 0.000000 0.000000
vn 1.000000 0.000000 -0.000000
vn 1.000000 0.000000 -0.000000
vn 1.000000 0.000000 -0.000000
vn -0.000000 -1.000000 0.000000
vn -0.000000 -1.000000 0.000000
vn -0.000000 -1.000000 0.000000
vn -0.000000 1.000000 0.000000
vn -0.000000 1.000000 0.000000
vn -0.000000 1.000000 0.000000
vn -0.000000 -1.000000 0.000000
vn -0.000000 -1.000000 0.000000
vn -0.000000 -1.000000 0.000000
vn -0.000000 0.000000 -1.000000
vn -0.000000 0.000000 -1.000000
vn -0.000000 0.000000 -1.000000
vn -0.000000 0.000000 -1.000000
vn -0.000000 0.000000 -1.000000
vn -0.000000 0.000000 -1.000000
vn 0.707107 0.000000 0.707107
vn 0.707107 0.000000 0.707107
vn 0.707107 0.000000 0.707107
vn 0.707107 0.000000 0.707107
vn 0.707107 0.000000 0.707107
vn 0.707107 0.000000 0.707107
vn 0.000000 1.000000 0.000000
vn 0.000000 1.000000 0.000000
vn 0.000000 1.000000 0.000000
vn 0.000000 1.000000 0.000000
vn 0.000000 1.000000 0.000000
vn 0.000000 1.000000 0.000000
vn -0.000000 1.000000 0.000000
vn -0.000000 1.000000 0.000000
vn -0.000000 1.000000 0.000000
vn -0.000000 -1.000000 0.000000
vn -0.000000 -1.000000 0.000000
vn -0.000000 -1.000000 0.000000
vn 0.000000 -1.000000 0.000000
vn 0.000000 -1.000000 0.000000
vn 0.000000 -1.000000 0.000000
vn -0.000000 0.000000 -1.000000
vn -0.000000 0.000000 -1.000000
vn -0.000000 0.000000 -1.000000
vn -0.000000 0.000000 -1.000000
vn -0.000000 0.000000 -1.000000
vn -0.000000 0.000000 -1.000000
vn -0.707107 0.000000 0.707107
vn -0.707107 0.000000 0.707107
vn -0.707107 0.000000 0.707107
vn -0.707107 0.000000 0.707107
vn -0.707107 0.000000 0.707107
vn -0.707107 0.000000 0.707107
vn 0.480385 -0.832050 0.277350
vn 0.480385 -0.832050 0.277350
vn 0.480385 -0.832050 0.277350
vn 0.268314 -0.843819 0.464734
vn 0.268314 -0.843819 0.464734
vn 0.268314 -0.843819 0.464734
vn 0.707107 0.000000 -0.707107
vn 0.707107 0.000000 -0.707107
vn 0.707107 0.000000 -0.707107
vn 0.707107 0.000000 -0.707107
vn 0.707107 0.000000 -0.707107
vn 0.707107 0.000000 -0.707107
vn -0.964271 0.000000 0.264916
vn -0.964271 0.000000 0.264916
vn -0.964271 0.000000 0.264916
vn -0.964271 0.000000 0.264917
vn -0.964271 0.000000 0.264917
vn -0.964271 0.000000 0.264917
vn -0.000000 0.832050 -0.554700
vn -0.000000 0.832050 -0.554700
vn -0.000000 0.832050 -0.554700
vn -0.267667 0.844640 -0.463614
vn -0.267667 0.844640 -0.463614
vn -0.267667 0.844640 -0.463614
vn 0.277352 -0.832050 0.480384
vn 0.277352 -0.832050 0.480384
vn 0.277352 -0.832050 0.480384
vn -0.000000 -0.843819 0.536628
vn -0.000000 -0.843819 0.536628
vn -0.000000 -0.843819 0.536628
vn -0.264916 0.000000 0.964271
vn -0.264916 0.000000 0.964271
vn -0.264916 0.000000 0.964271
vn -0.264916 0.000000 0.964271
vn -0.264916 0.000000 0.964271
vn -0.264916 0.000000 0.964271
vn 1.000000 0.000000 0.000000
vn 1.000000 0.000000 0.000000
vn 1.000000 0.000000 0.000000
vn 1.000000 0.000000 0.000000
vn 1.000000 0.000000 0.000000
vn 1.000000 0.000000 0.000000
vn -0.480385 0.832050 -0.277350
vn -0.480385 0.832050 -0.277350
vn -0.480385 0.832050 -0.277350
vn -0.536628 0.843819 0.000000
vn -0.536628 0.843819 0.000000
vn -0.536628 0.843819 0.000000
vn 0.554701 -0.832050 0.000000
vn 0.554701 -0.832050 0.000000
vn 0.554701 -0.832050 0.000000
vn 0.463614 -0.844640 0.267668
vn 0.463614 -0.844640 0.267668
vn 0.463614 -0.844640 0.267668
vn -0.487121 0.000000 -0.873334
vn -0.487121 0.000000 -0.873334
vn -0.487121 0.000000 -0.873334
vn -0.487119 0.000000 -0.873336
vn -0.487119 0.000000 -0.873336
vn -0.487119 0.000000 -0.873336
vn 0.258819 0.000000 -0.965926
vn 0.258819 0.000000 -0.965926
vn 0.258819 0.000000 -0.965926
vn 0.258819 0.000000 -0.965926
vn 0.258819 0.000000 -0.965926
vn 0.258819 0.000000 -0.965926
vn -0.965927 0.000000 0.258817
vn -0.965927 0.000000 0.258817
vn -0.965927 0.000000 0.258817
vn -0.965926 0.000000 0.258819
vn -0.965926 0.000000 0.258819
vn -0.965926 0.000000 0.258819
vn 0.964271 0.000000 -0.264916
vn 0.964271 0.000000 -0.264916
vn 0.964271 0.000000 -0.264916
vn 0.964272 0.000000 -0.264915
vn 0.964272 0.000000 -0.264915
vn 0.964272 0.000000 -0.264915
vn 0.965926 0.000000 -0.258819
vn 0.965926 0.000000 -0.258819
vn 0.965926 0.000000 -0.258819
vn 0.965926 0.000000 -0.258819
vn 0.965926 0.000000 -0.258819
vn 0.965926 0.000000 -0.258819
vn -0.000000 0.000000 1.000000
vn -0.000000 0.000000 1.000000
vn -0.000000 0.000000 1.000000
vn -0.000000 0.000000 1.000000
vn -0.000000 0.000000 1.000000
vn -0.000000 0.000000 1.000000
vn 0.499999 0.000000 0.866026
vn 0.499999 0.000000 0.866026
vn 0.499999 0.000000 0.866026
vn 0.499999 0.000000 0.866026
vn 0.499999 0.000000 0.866026
vn 0.499999 0.000000 0.866026
vn 0.707106 0.000000 -0.707107
vn 0.707106 0.000000 -0.707107
vn 0.707106 0.000000 -0.707107
vn 0.707107 0.000000 -0.707106
vn 0.707107 0.000000 -0.707106
vn 0.707107 0.000000 -0.707106
vn -0.707107 0.000000 0.707106
vn -0.707107 0.000000 0.707106
vn -0.707107 0.000000 0.707106
vn -0.707108 0.000000 0.707105
vn -0.707108 0.000000 0.707105
vn -0.707108 0.000000 0.707105
vn -0.866026 0.000000 -0.499999
vn -0.866026 0.000000 -0.499999
vn -0.866026 0.000000 -0.499999
vn -0.866026 0.000000 -0.499999
vn -0.866026 0.000000 -0.499999
vn -0.866026 0.000000 -0.499999
vn -0.999868 0.000000 0.016237
vn -0.999868 0.000000 0.016237
vn -0.999868 0.000000 0.016237
vn -0.999868 0.000000 0.016237
vn -0.999868 0.000000 0.016237
vn -0.999868 0.000000 0.016237
vn -0.258819 0.000000 0.965926
vn -0.258819 0.000000 0.965926
vn -0.258819 0.000000 0.965926
vn -0.258819 0.000000 0.965926
vn -0.258819 0.000000 0.965926
vn -0.258819 0.000000 0.965926
vn 0.264916 0.000000 -0.964271
vn 0.264916 0.000000 -0.964271
vn 0.264916 0.000000 -0.964271
vn 0.264916 0.000000 -0.964271
vn 0.264916 0.000000 -0.964271
vn 0.264916 0.000000 -0.964271
vn 0.866026 0.000000 0.500000
vn 0.866026 0.000000 0.500000
vn 0.866026 0.000000 0.500000
vn 0.866025 0.000000 0.500000
vn 0.866025 0.000000 0.500000
vn 0.866025 0.000000 0.500000
vn -0.258819 0.000000 0.965926
vn -0.258819 0.000000 0.965926
vn -0.258819 0.000000 0.965926
vn -0.258819 0.000000 0.965926
vn -0.258819 0.000000 0.965926
vn -0.258819 0.000000 0.965926
vn -0.707107 0.000000 0.707107
vn -0.707107 0.000000 0.707107
vn -0.707107 0.000000 0.707107
vn -0.707107 0.000000 0.707107
vn -0.707107 0.000000 0.707107
vn -0.707107 0.000000 0.707107
vn -0.480384 0.832050 -0.277350
vn -0.480384 0.832050 -0.277350
vn -0.480384 0.832050 -0.277350
vn -0.268314 0.843819 -0.464734
vn -0.268314 0.843819 -0.464734
vn -0.268314 0.843819 -0.464734
vn 0.382684 0.000000 0.923879
vn 0.382684 0.000000 0.923879
vn 0.382684 0.000000 0.923879
vn 0.382683 0.000000 0.923880
vn 0.382683 0.000000 0.923880
vn 0.382683 0.000000 0.923880
vn 0.923879 0.000000 0.382684
vn 0.923879 0.000000 0.382684
vn 0.923879 0.000000 0.382684
vn 0.923880 0.000000 0.382683
vn 0.923880 0.000000 0.382683
vn 0.923880 0.000000 0.382683
vn 0.923880 0.000000 -0.382683
vn 0.923880 0.000000 -0.382683
vn 0.923880 0.000000 -0.382683
vn 0.923879 0.000000 -0.382684
vn 0.923879 0.000000 -0.382684
vn 0.923879 0.000000 -0.382684
vn 0.382683 0.000000 -0.923880
vn 0.382683 0.000000 -0.923880
vn 0.382683 0.000000 -0.923880
vn 0.382684 0.000000 -0.923879
vn 0.382684 0.000000 -0.923879
vn 0.382684 0.000000 -0.923879
vn -0.480385 0.832050 -0.277350
vn -0.480385 0.832050 -0.277350
vn -0.480385 0.832050 -0.277350
vn -0.268314 0.843819 -0.464734
vn -0.268314 0.843819 -0.464734
vn -0.268314 0.843819 -0.464734
vn -0.382684 0.000000 -0.923879
vn -0.382684 0.000000 -0.923879
vn -0.382684 0.000000 -0.923879
vn -0.382684 0.000000 -0.923879
vn -0.382684 0.000000 -0.923879
vn -0.382684 0.000000 -0.923879
vn -0.923879 0.000000 -0.382684
vn -0.923879 0.000000 -0.382684
vn -0.923879 0.000000 -0.382684
vn -0.923879 0.000000 -0.382684
vn -0.923879 0.000000 -0.382684
vn -0.923879 0.000000 -0.382684
vn -0.000000 1.000000 0.000000
vn -0.000000 1.000000 0.000000
vn -0.000000 1.000000 0.000000
vn -0.923879 0.000000 0.382684
vn -0.923879 0.000000 0.382684
vn -0.923879 0.000000 0.382684
vn -0.923879 0.000000 0.382684
vn -0.923879 0.000000 0.382684
vn -0.923879 0.000000 0.382684
vn -0.382683 0.000000 0.923880
vn -0.382683 0.000000 0.923880
vn -0.382683 0.000000 0.923880
vn -0.382684 0.000000 0.923879
vn -0.382684 0.000000 0.923879
vn -0.382684 0.000000 0.923879
vn -0.000000 -1.000000 0.000000
vn -0.000000 -1.000000 0.000000
vn -0.000000 -1.000000 0.000000
vn -0.000000 0.000000 -1.000000
vn -0.000000 0.000000 -1.000000
vn -0.000000 0.000000 -1.000000
vn -0.000000 0.000000 -1.000000
vn -0.000000 0.000000 -1.000000
vn -0.000000 0.000000 -1.000000
vn -0.707106 0.000000 0.707107
vn -0.707106 0.000000 0.707107
vn -0.707106 0.000000 0.707107
vn -0.707107 0.000000 0.707106
vn -0.707107 0.000000 0.707106
vn -0.707107 0.000000 0.707106
vn 0.480385 -0.832050 0.277350
vn 0.480385 -0.832050 0.277350
vn 0.480385 -0.832050 0.277350
vn 0.268314 -0.843819 0.464734
vn 0.268314 -0.843819 0.464734
vn 0.268314 -0.843819 0.464734
vn 0.707107 0.000000 -0.707106
vn 0.707107 0.000000 -0.707106
vn 0.707107 0.000000 -0.707106
vn 0.707106 0.000000 -0.707107
vn 0.707106 0.000000 -0.707107
vn 0.707106 0.000000 -0.707107
vn -0.964271 0.000000 0.264917
vn -0.964271 0.000000 0.264917
vn -0.964271 0.000000 0.264917
vn -0.964271 0.000000 0.264916
vn -0.964271 0.000000 0.264916
vn -0.964271 0.000000 0.264916
vn -0.000000 0.832050 -0.554700
vn -0.000000 0.832050 -0.554700
vn -0.000000 0.832050 -0.554700
vn -0.267667 0.844640 -0.463614
vn -0.267667 0.844640 -0.463614
vn -0.267667 0.844640 -0.463614
vn 0.277348 -0.832051 0.480385
vn 0.277348 -0.832051 0.480385
vn 0.277348 -0.832051 0.480385
vn -0.000000 -0.843819 0.536628
vn -0.000000 -0.843819 0.536628
vn -0.000000 -0.843819 0.536628
vn -0.264916 0.000000 0.964271
vn -0.264916 0.000000 0.964271
vn -0.264916 0.000000 0.964271
vn -0.264917 0.000000 0.964271
vn -0.264917 0.000000 0.964271
vn -0.264917 0.000000 0.964271
vn 1.000000 0.000000 0.000000
vn 1.000000 0.000000 0.000000
vn 1.000000 0.000000 0.000000
vn 1.000000 0.000000 0.000000
vn 1.000000 0.000000 0.000000
vn 1.000000 0.000000 0.000000
vn -0.480386 0.832049 -0.277350
vn -0.480386 0.832049 -0.277350
vn -0.480386 0.832049 -0.277350
vn -0.536629 0.843819 0.000000
vn -0.536629 0.843819 0.000000
vn -0.536629 0.843819 0.000000
vn 0.554701 -0.832049 0.000000
vn 0.554701 -0.832049 0.000000
vn 0.554701 -0.832049 0.000000
vn 0.463614 -0.844640 0.267668
vn 0.463614 -0.844640 0.267668
vn 0.463614 -0.844640 0.267668
vn 0.258819 0.000000 -0.965926
vn 0.258819 0.000000 -0.965926
vn 0.258819 0.000000 -0.965926
vn 0.258819 0.000000 -0.965926
vn 0.258819 0.000000 -0.965926
vn 0.258819 0.000000 -0.965926
vn 0.965926 0.000000 -0.258820
vn 0.965926 0.000000 -0.258820
vn 0.965926 0.000000 -0.258820
vn 0.965926 0.000000 -0.258819
vn 0.965926 0.000000 -0.258819
vn 0.965926 0.000000 -0.258819
vn -0.000000 1.000000 0.000000
vn -0.000000 1.000000 0.000000
vn -0.000000 1.000000 0.000000
vn -0.000000 1.000000 0.000000
vn -0.000000 1.000000 0.000000
vn -0.000000 1.000000 0.000000
vn -0.000000 1.000000 0.000000
vn -0.000000 1.000000 0.000000
vn -0.000000 1.000000 0.000000
vn -0.000000 1.000000 0.000000
vn -0.000000 1.000000 0.000000
vn -0.000000 1.000000 0.000000
vn -0.000000 1.000000 0.000000
vn -0.000000 1.000000 0.000000
vn -0.000000 1.000000 0.000000
vn -0.000000 -1.000000 0.000000
vn -0.000000 -1.000000 0.000000
vn -0.000000 -1.000000 0.000000
vn -0.000000 -1.000000 0.000000
vn -0.000000 -1.000000 0.000000
vn -0.000000 -1.000000 0.000000
vn -0.000000 -1.000000 0.000000
vn -0.000000 -1.000000 0.000000
vn -0.000000 -1.000000 0.000000
vn -0.000000 -1.000000 0.000000
vn -0.000000 -1.000000 0.000000
vn -0.000000 -1.000000 0.000000
vn -0.000000 -1.000000 0.000000
vn -0.000000 -1.000000 0.000000
vn -0.000000 -1.000000 0.000000

g Material
f 3/1/1 1/2/2 2/3/3
f 4/4/4 1/5/5 3/6/6
f 7/7/7 5/8/8 6/9/9
f 8/10/10 5/11/11 7/12/12
f 11/13/13 9/14/14 10/15/15
f 14/16/16 12/17/17 13/18/18
f 17/19/19 15/20/20 16/21/21
f 20/22/22 18/23/23 19/24/24
f 21/25/25 18/26/26 20/27/27
f 24/28/28 22/29/29 23/30/30
f 25/31/31 22/32/32 24/33/33
f 28/34/34 26/35/35 27/36/36
f 31/37/37 29/38/38 30/39/39
f 34/40/40 32/41/41 33/42/42
f 37/43/43 35/44/44 36/45/45
f 40/46/46 38/47/47 39/48/48
f 43/49/49 41/50/50 42/51/51
f 44/52/52 41/53/53 43/54/54
f 47/55/55 45/56/56 46/57/57
f 48/58/58 45/59/59 47/60/60
f 51/61/61 49/62/62 50/63/63
f 52/64/64 49/65/65 51/66/66
f 55/67/67 53/68/68 54/69/69
f 56/70/70 53/71/71 55/72/72
f 59/73/73 57/74/74 58/75/75
f 60/76/76 57/77/77 59/78/78
f 63/79/79 61/80/80 62/81/81
f 64/82/82 61/83/83 63/84/84
f 67/85/85 65/86/86 66/87/87
f 68/88/88 65/89/89 67/90/90
f 71/91/91 69/92/92 70/93/93
f 72/94/94 69/95/95 71/96/96
f 75/97/97 73/98/98 74/99/99
f 76/100/100 73/101/101 75/102/102
f 79/103/103 77/104/104 78/105/105
f 80/106/106 77/107/107 79/108/108
f 83/109/109 81/110/110 82/111/111
f 84/112/112 81/113/113 83/114/114
f 87/115/115 85/116/116 86/117/117
f 88/118/118 85/119/119 87/120/120
f 103/121/121 101/122/122 102/123/123
f 104/124/124 101/125/125 103/126/126
f 111/127/127 109/128/128 110/129/129
f 112/130/130 109/131/131 111/132/132
f 123/133/133 121/134/134 122/135/135
f 124/136/136 121/137/137 123/138/138
f 134/139/139 132/140/140 133/141/141
f 135/142/142 132/143/143 134/144/144
f 142/145/145 140/146/146 141/147/147
f 143/148/148 140/149/149 142/150/150
f 153/151/151 151/152/152 152/153/153
f 154/154/154 151/155/155 153/156/156
f 157/157/157 155/158/158 156/159/159
f 158/160/160 155/161/161 157/162/162
f 161/163/163 159/164/164 160/165/165
f 162/166/166 159/167/167 161/168/168
f 165/169/169 163/170/170 164/171/171
f 166/172/172 163/173/173 165/174/174
f 169/175/175 167/176/176 168/177/177
f 170/178/178 167/179/179 169/180/180
f 173/181/181 171/182/182 172/183/183
f 174/184/184 171/185/185 173/186/186
f 177/187/187 175/188/188 176/189/189
f 178/190/190 175/191/191 177/192/192
f 181/193/193 179/194/194 180/195/195
f 182/196/196 179/197/197 181/198/198
f 237/199/199 235/200/200 236/201/201
f 238/202/202 235/203/203 237/204/204
f 241/205/205 239/206/206 240/207/207
f 242/208/208 239/209/209 241/210/210
f 245/211/211 243/212/212 244/213/213
f 246/214/214 243/215/215 245/216/216

g Material.001
f 91/217/217 89/218/218 90/219/219
f 92/220/220 89/221/221 91/222/222
f 95/223/223 93/224/224 94/225/225
f 96/226/226 93/227/227 95/228/228
f 99/229/229 97/230/230 98/231/231
f 100/232/232 97/233/233 99/234/234
f 107/235/235 105/236/236 106/237/237
f 108/238/238 105/239/239 107/240/240
f 115/241/241 113/242/242 114/243/243
f 116/244/244 113/245/245 115/246/246
f 119/247/247 117/248/248 118/249/249
f 120/250/250 117/251/251 119/252/252
f 127/253/253 125/254/254 126/255/255
f 128/256/256 125/257/257 127/258/258
f 131/259/259 129/260/260 130/261/261
f 138/262/262 136/263/263 137/264/264
f 139/265/265 136/266/266 138/267/267
f 146/268/268 144/269/269 145/270/270
f 147/271/271 144/272/272 146/273/273
f 150/274/274 148/275/275 149/276/276
f 185/277/277 183/278/278 184/279/279
f 186/280/280 183/281/281 185/282/282
f 189/283/283 187/284/284 188/285/285
f 190/286/286 187/287/287 189/288/288
f 193/289/289 191/290/290 192/291/291
f 194/292/292 191/293/293 193/294/294
f 197/295/295 195/296/296 196/297/297
f 198/298/298 195/299/299 197/300/300
f 201/301/301 199/302/302 200/303/303
f 202/304/304 199/305/305 201/306/306
f 205/307/307 203/308/308 204/309/309
f 206/310/310 203/311/311 205/312/312
f 209/313/313 207/314/314 208/315/315
f 210/316/316 207/317/317 209/318/318
f 213/319/319 211/320/320 212/321/321
f 214/322/322 211/323/323 213/324/324
f 217/325/325 215/326/326 216/327/327
f 218/328/328 215/329/329 217/330/330
f 221/331/331 219/332/332 220/333/333
f 222/334/334 219/335/335 221/336/336
f 225/337/337 223/338/338 224/339/339
f 226/340/340 223/341/341 225/342/342
f 229/343/343 227/344/344 228/345/345
f 230/346/346 227/347/347 229/348/348
f 233/349/349 231/350/350 232/351/351
f 234/352/352 231/353/353 233/354/354
f 249/355/355 247/356/356 248/357/357
f 252/358/358 250/359/359 251/360/360
f 255/361/361 253/362/362 254/363/363
f 258/364/364 256/365/365 257/366/366
f 261/367/367 259/368/368 260/369/369
f 264/370/370 262/371/371 263/372/372
f 267/373/373 265/374/374 266/375/375
f 270/376/376 268/377/377 269/378/378
f 273/379/379 271/380/380 272/381/381
f 276/382/382 274/383/383 275/384/384

