# Converted from B3D for Luanti (With Correct Normals)
# Object Name: multidecor_spiral_banister

v -0.907278 -2.200000 -0.313672
v -0.833752 -2.200000 -0.352403
v -0.837142 -0.773003 -0.344660
v -0.903193 -0.757140 -0.312095
v -0.833752 -2.200000 -0.352403
v -0.855058 -2.200000 -0.415238
v -0.850486 -0.799189 -0.411927
v -0.837142 -0.773003 -0.344660
v -0.069334 0.283333 0.861061
v 0.020676 0.283333 0.686526
v -0.691383 -0.383333 -0.029088
v -0.856420 -0.383333 0.077315
v -0.928114 -2.200000 -0.413640
v -0.907278 -2.200000 -0.313672
v -0.903193 -0.757140 -0.312095
v -0.934175 -0.799189 -0.406396
v -0.855058 -2.200000 -0.415238
v -0.928114 -2.200000 -0.413640
v -0.934175 -0.799189 -0.406396
v -0.850486 -0.799189 -0.411927
v 0.201229 -1.200000 0.872774
v 0.202512 -1.200000 0.791910
v 0.207559 0.265503 0.798528
v 0.204573 0.281455 0.870026
v 0.202512 -1.200000 0.791910
v 0.137649 -1.200000 0.779124
v 0.142797 0.239406 0.776823
v 0.207559 0.265503 0.798528
v 0.104274 -1.200000 0.840040
v 0.201229 -1.200000 0.872774
v 0.204573 0.281455 0.870026
v 0.107429 0.239406 0.848838
v 0.137649 -1.200000 0.779124
v 0.104274 -1.200000 0.840040
v 0.107429 0.239406 0.848838
v 0.142797 0.239406 0.776823
v -0.948222 -1.041166 -0.999847
v -0.948222 -1.191166 -0.999847
v -1.155399 -1.208834 -0.999847
v -1.155399 -1.058835 -0.999847
v -0.861061 -0.533333 0.069334
v -0.077315 0.133333 0.856420
v -0.069334 0.283333 0.861061
v -0.856420 -0.383333 0.077315
v -0.686526 -0.533333 -0.020676
v 0.029088 0.133333 0.691383
v -0.077315 0.133333 0.856420
v -0.861061 -0.533333 0.069334
v -0.691383 -0.383333 -0.029088
v 0.020676 0.283333 0.686526
v 0.029088 0.133333 0.691383
v -0.686526 -0.533333 -0.020676
v -0.856420 -0.383333 0.077315
v -1.155399 -1.058835 -0.999847
v -1.155399 -1.208834 -0.999847
v -0.861061 -0.533333 0.069334
v -0.691383 -0.383333 -0.029088
v -0.948222 -1.041166 -0.999847
v -1.155399 -1.058835 -0.999847
v -0.856420 -0.383333 0.077315
v -0.948222 -1.191166 -0.999847
v -0.686526 -0.533333 -0.020676
v -0.861061 -0.533333 0.069334
v -1.155399 -1.208834 -0.999847
v 0.999848 0.958835 1.155399
v -0.069334 0.283333 0.861061
v -0.077315 0.133333 0.856420
v 0.999848 0.808835 1.155399
v 0.999848 0.791166 0.948222
v 0.999848 0.941166 0.948222
v 0.999848 0.958835 1.155399
v 0.999848 0.808835 1.155399
v 0.999848 0.941166 0.948222
v 0.020676 0.283333 0.686526
v -0.069334 0.283333 0.861061
v 0.999848 0.958835 1.155399
v 0.029088 0.133333 0.691383
v 0.999848 0.791166 0.948222
v 0.999848 0.808835 1.155399
v -0.077315 0.133333 0.856420
v 0.999848 0.791166 0.948222
v 0.029088 0.133333 0.691383
v 0.020676 0.283333 0.686526
v 0.999848 0.941166 0.948222
v -0.948222 -1.191166 -0.999847
v -0.948222 -1.041166 -0.999847
v -0.691383 -0.383333 -0.029088
v -0.686526 -0.533333 -0.020676
v -0.855058 -2.200000 -0.415238
v -0.833752 -2.200000 -0.352403
v -0.907278 -2.200000 -0.313672
v -0.928114 -2.200000 -0.413640
v 0.137649 -1.200000 0.779124
v 0.202512 -1.200000 0.791910
v 0.201229 -1.200000 0.872774
v 0.104274 -1.200000 0.840040

vt 0.251776 0.555496
vt 0.219444 0.000439
vt 0.251776 0.000290
vt 0.223152 0.561798
vt 0.219444 0.000439
vt 0.251776 0.555496
vt 0.151827 0.545752
vt 0.125470 0.000849
vt 0.151284 0.000739
vt 0.125189 0.556056
vt 0.125470 0.000849
vt 0.151827 0.545752
vt 0.223152 0.561798
vt 0.179714 0.000619
vt 0.219444 0.000439
vt 0.184457 0.545620
vt 0.179714 0.000619
vt 0.223152 0.561798
vt 0.184457 0.545620
vt 0.151284 0.000739
vt 0.179714 0.000619
vt 0.151827 0.545752
vt 0.151284 0.000739
vt 0.184457 0.545620
vt 0.124610 0.570476
vt 0.093145 0.000430
vt 0.124610 0.000290
vt 0.096794 0.576804
vt 0.093145 0.000430
vt 0.124610 0.570476
vt 0.026821 0.560740
vt 0.000586 0.000819
vt 0.026308 0.000713
vt 0.000290 0.571005
vt 0.000586 0.000819
vt 0.026821 0.560740
vt 0.096794 0.576804
vt 0.053331 0.000604
vt 0.093145 0.000430
vt 0.058036 0.560619
vt 0.053331 0.000604
vt 0.096794 0.576804
vt 0.058036 0.560619
vt 0.026308 0.000713
vt 0.053331 0.000604
vt 0.026821 0.560740
vt 0.026308 0.000713
vt 0.058036 0.560619
vt 0.283435 0.509041
vt 0.255483 0.543580
vt 0.252356 0.517955
vt 0.283435 0.548771
vt 0.255483 0.543580
vt 0.283435 0.509041
vt 0.313982 0.509041
vt 0.287374 0.544133
vt 0.284014 0.518632
vt 0.313982 0.548854
vt 0.287374 0.544133
vt 0.313982 0.509041
vt 0.222428 0.539240
vt 0.712918 0.464049
vt 0.693113 0.537841
vt 0.208898 0.464049
vt 0.712918 0.464049
vt 0.222428 0.539240
vt 0.803507 0.696762
vt 0.717649 0.754911
vt 0.722608 0.696762
vt 0.798547 0.754911
vt 0.717649 0.754911
vt 0.803507 0.696762
vt 0.745929 0.286858
vt 0.208898 0.238598
vt 0.712917 0.238598
vt 0.241911 0.286858
vt 0.208898 0.238598
vt 0.745929 0.286858
vt 0.208898 0.388278
vt 0.693112 0.462071
vt 0.222428 0.463470
vt 0.712918 0.388278
vt 0.693112 0.462071
vt 0.208898 0.388278
vt 1.179203 0.238019
vt 0.737632 0.187300
vt 1.208319 0.187300
vt 0.708516 0.238019
vt 0.737632 0.187300
vt 1.179203 0.238019
vt 0.208898 0.337858
vt 0.747428 0.385900
vt 0.239259 0.387699
vt 0.714101 0.337858
vt 0.747428 0.385900
vt 0.208898 0.337858
vt 0.208898 0.775189
vt 0.697945 0.849156
vt 0.230905 0.853037
vt 0.717070 0.775189
vt 0.697945 0.849156
vt 0.208898 0.775189
vt 0.208898 0.618291
vt 0.692252 0.696183
vt 0.222147 0.693537
vt 0.714099 0.618291
vt 0.692252 0.696183
vt 0.208898 0.618291
vt 0.747428 0.335481
vt 0.208898 0.287438
vt 0.714101 0.287437
vt 0.239258 0.337279
vt 0.208898 0.287438
vt 0.747428 0.335481
vt 0.800536 0.638034
vt 0.714679 0.696183
vt 0.719638 0.638034
vt 0.795577 0.696183
vt 0.714679 0.696183
vt 0.800536 0.638034
vt 0.208898 0.539819
vt 0.692253 0.617712
vt 0.222147 0.615066
vt 0.714100 0.539819
vt 0.692253 0.617712
vt 0.208898 0.539819
vt 0.208898 0.696762
vt 0.697945 0.770729
vt 0.230905 0.774610
vt 0.717070 0.696762
vt 0.697945 0.770729
vt 0.208898 0.696762
vt 0.679007 0.238019
vt 0.240880 0.187194
vt 0.707937 0.187194
vt 0.208898 0.236011
vt 0.240880 0.187194
vt 0.679007 0.238019
vt 0.707937 0.135789
vt 0.208898 0.184606
vt 0.240880 0.135789
vt 0.679008 0.186614
vt 0.208898 0.184606
vt 0.707937 0.135789

vn 0.466052 -0.003694 0.884750
vn 0.466052 -0.003694 0.884750
vn 0.466052 -0.003694 0.884750
vn 0.441768 -0.002231 0.897127
vn 0.441768 -0.002231 0.897127
vn 0.441768 -0.002231 0.897127
vn 0.947035 -0.002332 -0.321121
vn 0.947035 -0.002332 -0.321121
vn 0.947035 -0.002332 -0.321121
vn 0.980627 0.003393 -0.195853
vn 0.980627 0.003393 -0.195853
vn 0.980627 0.003393 -0.195853
vn -0.978959 0.002548 0.204040
vn -0.978959 0.002548 0.204040
vn -0.978959 0.002548 0.204040
vn -0.949266 -0.005733 0.314423
vn -0.949266 -0.005733 0.314423
vn -0.949266 -0.005733 0.314423
vn -0.021870 0.005075 -0.999748
vn -0.021870 0.005075 -0.999748
vn -0.021870 0.005075 -0.999748
vn -0.065944 0.002574 -0.997820
vn -0.065944 0.002574 -0.997820
vn -0.065944 0.002574 -0.997820
vn 0.999868 -0.003515 0.015865
vn 0.999868 -0.003515 0.015865
vn 0.999868 -0.003515 0.015865
vn 0.999106 -0.002177 0.042217
vn 0.999106 -0.002177 0.042217
vn 0.999106 -0.002177 0.042217
vn 0.193398 -0.002261 -0.981118
vn 0.193398 -0.002261 -0.981118
vn 0.193398 -0.002261 -0.981118
vn 0.316626 0.003193 -0.948545
vn 0.316626 0.003193 -0.948545
vn 0.316626 0.003193 -0.948545
vn -0.319886 0.002480 0.947453
vn -0.319886 0.002480 0.947453
vn -0.319886 0.002480 0.947453
vn -0.210819 -0.005513 0.977510
vn -0.210819 -0.005513 0.977510
vn -0.210819 -0.005513 0.977510
vn -0.876987 0.004859 -0.480489
vn -0.876987 0.004859 -0.480489
vn -0.876987 0.004859 -0.480489
vn -0.897588 0.002506 -0.440827
vn -0.897588 0.002506 -0.440827
vn -0.897588 0.002506 -0.440827
vn -0.000000 -1.000000 0.000000
vn -0.000000 -1.000000 0.000000
vn -0.000000 -1.000000 0.000000
vn 0.000004 -1.000000 0.000000
vn 0.000004 -1.000000 0.000000
vn 0.000004 -1.000000 0.000000
vn -0.000002 -1.000000 0.000000
vn -0.000002 -1.000000 0.000000
vn -0.000002 -1.000000 0.000000
vn -0.000000 -1.000000 0.000000
vn -0.000000 -1.000000 0.000000
vn -0.000000 -1.000000 0.000000
vn -0.506645 0.821609 -0.261284
vn -0.506645 0.821609 -0.261284
vn -0.506645 0.821609 -0.261284
vn -0.283634 0.852062 -0.439935
vn -0.283634 0.852062 -0.439935
vn -0.283634 0.852062 -0.439935
vn 0.000000 0.000000 -1.000000
vn 0.000000 0.000000 -1.000000
vn 0.000000 0.000000 -1.000000
vn 0.000000 0.000000 -1.000000
vn 0.000000 0.000000 -1.000000
vn 0.000000 0.000000 -1.000000
vn -0.715446 0.016453 0.698474
vn -0.715446 0.016453 0.698474
vn -0.715446 0.016453 0.698474
vn -0.698474 -0.016453 0.715446
vn -0.698474 -0.016453 0.715446
vn -0.698474 -0.016453 0.715446
vn 0.470338 -0.828752 0.303235
vn 0.470338 -0.828752 0.303235
vn 0.470338 -0.828752 0.303235
vn 0.244225 -0.846221 0.473565
vn 0.244225 -0.846221 0.473565
vn 0.244225 -0.846221 0.473565
vn 0.701166 0.016241 -0.712813
vn 0.701166 0.016241 -0.712813
vn 0.701166 0.016241 -0.712813
vn 0.712813 -0.016241 -0.701166
vn 0.712813 -0.016241 -0.701166
vn 0.712813 -0.016241 -0.701166
vn -0.963572 0.000000 0.267450
vn -0.963572 0.000000 0.267450
vn -0.963572 0.000000 0.267450
vn -0.966592 0.016297 0.255800
vn -0.966592 0.016297 0.255800
vn -0.966592 0.016297 0.255800
vn -0.071159 0.834375 -0.546585
vn -0.071159 0.834375 -0.546585
vn -0.071159 0.834375 -0.546585
vn -0.289782 0.844987 -0.449470
vn -0.289782 0.844987 -0.449470
vn -0.289782 0.844987 -0.449470
vn 0.253632 -0.832945 0.491807
vn 0.253632 -0.832945 0.491807
vn 0.253632 -0.832945 0.491807
vn 0.072670 -0.852084 0.518335
vn 0.072670 -0.852084 0.518335
vn 0.072670 -0.852084 0.518335
vn -0.255799 -0.016297 0.966593
vn -0.255799 -0.016297 0.966593
vn -0.255799 -0.016297 0.966593
vn -0.267450 0.000000 0.963572
vn -0.267450 0.000000 0.963572
vn -0.267450 0.000000 0.963572
vn 1.000000 0.000000 0.000000
vn 1.000000 0.000000 0.000000
vn 1.000000 0.000000 0.000000
vn 1.000000 0.000000 0.000000
vn 1.000000 0.000000 0.000000
vn 1.000000 0.000000 0.000000
vn -0.491807 0.832944 -0.253632
vn -0.491807 0.832944 -0.253632
vn -0.491807 0.832944 -0.253632
vn -0.518335 0.852084 -0.072670
vn -0.518335 0.852084 -0.072670
vn -0.518335 0.852084 -0.072670
vn 0.546585 -0.834375 0.071159
vn 0.546585 -0.834375 0.071159
vn 0.546585 -0.834375 0.071159
vn 0.449470 -0.844987 0.289781
vn 0.449470 -0.844987 0.289781
vn 0.449470 -0.844987 0.289781
vn 0.266041 -0.016286 -0.963824
vn 0.266041 -0.016286 -0.963824
vn 0.266041 -0.016286 -0.963824
vn 0.258200 0.000000 -0.966092
vn 0.258200 0.000000 -0.966092
vn 0.258200 0.000000 -0.966092
vn 0.966736 0.000000 -0.255775
vn 0.966736 0.000000 -0.255775
vn 0.966736 0.000000 -0.255775
vn 0.963207 0.016142 -0.268274
vn 0.963207 0.016142 -0.268274
vn 0.963207 0.016142 -0.268274

g Material
f 3/1/1 1/2/2 2/3/3
f 4/4/4 1/5/5 3/6/6
f 7/7/7 5/8/8 6/9/9
f 8/10/10 5/11/11 7/12/12
f 15/13/13 13/14/14 14/15/15
f 16/16/16 13/17/17 15/18/18
f 19/19/19 17/20/20 18/21/21
f 20/22/22 17/23/23 19/24/24
f 23/25/25 21/26/26 22/27/27
f 24/28/28 21/29/29 23/30/30
f 27/31/31 25/32/32 26/33/33
f 28/34/34 25/35/35 27/36/36
f 31/37/37 29/38/38 30/39/39
f 32/40/40 29/41/41 31/42/42
f 35/43/43 33/44/44 34/45/45
f 36/46/46 33/47/47 35/48/48
f 91/49/49 89/50/50 90/51/51
f 92/52/52 89/53/53 91/54/54
f 95/55/55 93/56/56 94/57/57
f 96/58/58 93/59/59 95/60/60

g Material.001
f 11/61/61 9/62/62 10/63/63
f 12/64/64 9/65/65 11/66/66
f 39/67/67 37/68/68 38/69/69
f 40/70/70 37/71/71 39/72/72
f 43/73/73 41/74/74 42/75/75
f 44/76/76 41/77/77 43/78/78
f 47/79/79 45/80/80 46/81/81
f 48/82/82 45/83/83 47/84/84
f 51/85/85 49/86/86 50/87/87
f 52/88/88 49/89/89 51/90/90
f 55/91/91 53/92/92 54/93/93
f 56/94/94 53/95/95 55/96/96
f 59/97/97 57/98/98 58/99/99
f 60/100/100 57/101/101 59/102/102
f 63/103/103 61/104/104 62/105/105
f 64/106/106 61/107/107 63/108/108
f 67/109/109 65/110/110 66/111/111
f 68/112/112 65/113/113 67/114/114
f 71/115/115 69/116/116 70/117/117
f 72/118/118 69/119/119 71/120/120
f 75/121/121 73/122/122 74/123/123
f 76/124/124 73/125/125 75/126/126
f 79/127/127 77/128/128 78/129/129
f 80/130/130 77/131/131 79/132/132
f 83/133/133 81/134/134 82/135/135
f 84/136/136 81/137/137 83/138/138
f 87/139/139 85/140/140 86/141/141
f 88/142/142 85/143/143 87/144/144

