# Converted from B3D for Luanti (With Correct Normals)
# Object Name: multidecor_window_door_with_thin_slats_activated

v 2.000000 3.000000 -0.125000
v -0.000000 3.000000 -0.125000
v 0.000000 3.000000 0.125000
v 2.000000 3.000000 0.125000
v 0.200000 -0.800000 -0.000000
v 0.200000 -0.800000 -0.125000
v 0.200000 2.800000 -0.125000
v 0.200000 2.800000 -0.000000
v 0.000000 -1.000000 0.125000
v 0.000000 3.000000 0.125000
v -0.000000 3.000000 -0.125000
v -0.000000 -1.000000 -0.125000
v -0.000000 -1.000000 -0.125000
v 2.000000 -1.000000 -0.125000
v 2.000000 -1.000000 0.125000
v 0.000000 -1.000000 0.125000
v 2.000000 -1.000000 -0.125000
v 2.000000 3.000000 -0.125000
v 2.000000 3.000000 0.125000
v 2.000000 -1.000000 0.125000
v 1.800000 2.800000 -0.000000
v 1.800000 2.800000 0.125000
v 0.200000 2.800000 0.125000
v 0.200000 2.800000 -0.000000
v 0.200000 -0.800000 -0.000000
v 0.200000 -0.800000 0.125000
v 1.800000 -0.800000 0.125000
v 1.800000 -0.800000 -0.000000
v 1.800000 -0.800000 -0.000000
v 1.800000 -0.800000 0.125000
v 1.800000 2.800000 0.125000
v 1.800000 2.800000 -0.000000
v 0.000000 3.000000 0.125000
v 0.200000 2.800000 0.125000
v 1.800000 2.800000 0.125000
v 2.000000 3.000000 0.125000
v 0.000000 -1.000000 0.125000
v 0.200000 -0.800000 0.125000
v 0.200000 2.800000 0.125000
v 0.000000 3.000000 0.125000
v 2.000000 -1.000000 0.125000
v 1.800000 -0.800000 0.125000
v 0.200000 -0.800000 0.125000
v 0.000000 -1.000000 0.125000
v 2.000000 3.000000 0.125000
v 1.800000 2.800000 0.125000
v 1.800000 -0.800000 0.125000
v 2.000000 -1.000000 0.125000
v 2.000000 3.000000 -0.125000
v 1.800000 2.800000 -0.125000
v 0.200000 2.800000 -0.125000
v -0.000000 3.000000 -0.125000
v 2.000000 -1.000000 -0.125000
v 1.800000 -0.800000 -0.125000
v 1.800000 2.800000 -0.125000
v 2.000000 3.000000 -0.125000
v -0.000000 -1.000000 -0.125000
v 0.200000 -0.800000 -0.125000
v 1.800000 -0.800000 -0.125000
v 2.000000 -1.000000 -0.125000
v -0.000000 3.000000 -0.125000
v 0.200000 2.800000 -0.125000
v 0.200000 -0.800000 -0.125000
v -0.000000 -1.000000 -0.125000
v 1.800000 -0.800000 -0.125000
v 1.800000 -0.800000 -0.000000
v 1.800000 2.800000 -0.000000
v 1.800000 2.800000 -0.125000
v 0.200000 -0.800000 -0.125000
v 0.200000 -0.800000 -0.000000
v 1.800000 -0.800000 -0.000000
v 1.800000 -0.800000 -0.125000
v 1.800000 2.800000 -0.125000
v 1.800000 2.800000 -0.000000
v 0.200000 2.800000 -0.000000
v 0.200000 2.800000 -0.125000
v 0.200000 -0.800000 0.125000
v 0.200000 -0.800000 -0.000000
v 0.200000 2.800000 -0.000000
v 0.200000 2.800000 0.125000
v 1.964645 0.906659 0.125000
v 1.964645 0.906659 0.175000
v 1.835355 0.906659 0.175000
v 1.835355 0.906659 0.125000
v 1.835355 0.906659 0.125000
v 1.835355 0.906659 0.175000
v 1.835355 1.235949 0.175000
v 1.835355 1.235949 0.125000
v 1.835355 1.235949 0.125000
v 1.835355 1.235949 0.175000
v 1.964645 1.235949 0.175000
v 1.964645 1.235949 0.125000
v 1.964645 1.235949 0.125000
v 1.964645 1.235949 0.175000
v 1.964645 0.906659 0.175000
v 1.964645 0.906659 0.125000
v 1.835355 1.235949 0.175000
v 1.835355 0.906659 0.175000
v 1.964645 0.906659 0.175000
v 1.964645 1.235949 0.175000
v 1.862500 1.033804 0.262500
v 1.862500 1.108804 0.262500
v 1.862500 1.108804 0.175000
v 1.862500 1.033804 0.175000
v 1.937500 1.033804 0.175000
v 1.937500 1.108804 0.175000
v 1.937500 1.108804 0.262500
v 1.937500 1.033804 0.262500
v 1.862500 1.033804 0.175000
v 1.937500 1.033804 0.175000
v 1.937500 1.033804 0.262500
v 1.862500 1.033804 0.262500
v 1.937500 1.108804 0.175000
v 1.862500 1.108804 0.175000
v 1.862500 1.108804 0.262500
v 1.937500 1.108804 0.262500
v 1.950625 1.136929 0.262500
v 1.950625 0.655679 0.262500
v 1.849375 0.655679 0.262500
v 1.849375 1.136929 0.262500
v 1.950625 1.136929 0.312500
v 1.849375 1.136929 0.312500
v 1.849375 0.655679 0.312500
v 1.950625 0.655679 0.312500
v 1.849375 1.136929 0.262500
v 1.849375 0.655679 0.262500
v 1.849375 0.655679 0.312500
v 1.849375 1.136929 0.312500
v 1.950625 1.136929 0.262500
v 1.849375 1.136929 0.262500
v 1.849375 1.136929 0.312500
v 1.950625 1.136929 0.312500
v 1.950625 0.655679 0.262500
v 1.950625 1.136929 0.262500
v 1.950625 1.136929 0.312500
v 1.950625 0.655679 0.312500
v 1.849375 0.655679 0.262500
v 1.950625 0.655679 0.262500
v 1.950625 0.655679 0.312500
v 1.849375 0.655679 0.312500
v 1.800000 0.440000 -0.000000
v 1.040000 0.440000 -0.000000
v 1.040000 0.440000 0.065000
v 1.800000 0.440000 0.065000
v 1.800000 0.440000 -0.065000
v 1.040000 0.440000 -0.065000
v 1.040000 0.440000 -0.000000
v 1.800000 0.440000 -0.000000
v 1.040000 0.440000 -0.000000
v 1.040000 1.000000 -0.000000
v 1.040000 1.000000 0.065000
v 1.040000 0.440000 0.065000
v 1.040000 0.440000 -0.065000
v 1.040000 1.000000 -0.065000
v 1.040000 1.000000 -0.000000
v 1.040000 0.440000 -0.000000
v 0.200000 0.440000 -0.000000
v 0.960000 0.440000 -0.000000
v 0.960000 0.440000 -0.065000
v 0.200000 0.440000 -0.065000
v 0.200000 0.440000 0.065000
v 0.960000 0.440000 0.065000
v 0.960000 0.440000 -0.000000
v 0.200000 0.440000 -0.000000
v 0.960000 0.440000 0.065000
v 0.960000 1.000000 0.065000
v 0.960000 1.000000 -0.000000
v 0.960000 0.440000 -0.000000
v 0.960000 0.440000 -0.000000
v 0.960000 1.000000 -0.000000
v 0.960000 1.000000 -0.065000
v 0.960000 0.440000 -0.065000
v 1.800000 0.360000 0.065000
v 1.040000 0.360000 0.065000
v 1.040000 0.360000 -0.000000
v 1.800000 0.360000 -0.000000
v 1.800000 0.360000 -0.000000
v 1.040000 0.360000 -0.000000
v 1.040000 0.360000 -0.065000
v 1.800000 0.360000 -0.065000
v 1.040000 0.360000 -0.000000
v 1.040000 -0.800000 -0.000000
v 1.040000 -0.800000 -0.065000
v 1.040000 0.360000 -0.065000
v 1.040000 0.360000 0.065000
v 1.040000 -0.800000 0.065000
v 1.040000 -0.800000 -0.000000
v 1.040000 0.360000 -0.000000
v 0.200000 0.360000 -0.065000
v 0.960000 0.360000 -0.065000
v 0.960000 0.360000 -0.000000
v 0.200000 0.360000 -0.000000
v 0.200000 0.360000 -0.000000
v 0.960000 0.360000 -0.000000
v 0.960000 0.360000 0.065000
v 0.200000 0.360000 0.065000
v 0.960000 0.360000 -0.000000
v 0.960000 -0.800000 -0.000000
v 0.960000 -0.800000 0.065000
v 0.960000 0.360000 0.065000
v 0.960000 0.360000 -0.065000
v 0.960000 -0.800000 -0.065000
v 0.960000 -0.800000 -0.000000
v 0.960000 0.360000 -0.000000
v 1.800000 0.360000 -0.065000
v 1.040000 0.360000 -0.065000
v 1.040000 0.440000 -0.065000
v 1.800000 0.440000 -0.065000
v 0.960000 1.000000 -0.065000
v 1.040000 1.000000 -0.065000
v 1.040000 0.440000 -0.065000
v 0.960000 0.440000 -0.065000
v 0.200000 0.360000 -0.065000
v 0.200000 0.440000 -0.065000
v 0.960000 0.440000 -0.065000
v 0.960000 0.360000 -0.065000
v 0.960000 -0.800000 -0.065000
v 0.960000 0.360000 -0.065000
v 1.040000 0.360000 -0.065000
v 1.040000 -0.800000 -0.065000
v 0.960000 0.360000 -0.065000
v 0.960000 0.440000 -0.065000
v 1.040000 0.440000 -0.065000
v 1.040000 0.360000 -0.065000
v 0.960000 1.000000 0.065000
v 0.960000 0.440000 0.065000
v 1.040000 0.440000 0.065000
v 1.040000 1.000000 0.065000
v 0.200000 0.360000 0.065000
v 0.960000 0.360000 0.065000
v 0.960000 0.440000 0.065000
v 0.200000 0.440000 0.065000
v 1.800000 0.360000 0.065000
v 1.800000 0.440000 0.065000
v 1.040000 0.440000 0.065000
v 1.040000 0.360000 0.065000
v 0.960000 -0.800000 0.065000
v 1.040000 -0.800000 0.065000
v 1.040000 0.360000 0.065000
v 0.960000 0.360000 0.065000
v 0.960000 0.440000 0.065000
v 0.960000 0.360000 0.065000
v 1.040000 0.360000 0.065000
v 1.040000 0.440000 0.065000
v 1.040000 0.440000 -0.000000
v 1.800000 0.440000 -0.000000
v 1.800000 1.000000 -0.000000
v 1.040000 1.000000 -0.000000
v 0.960000 0.440000 -0.000000
v 0.960000 1.000000 -0.000000
v 0.200000 1.000000 -0.000000
v 0.200000 0.440000 -0.000000
v 1.040000 0.360000 -0.000000
v 1.040000 -0.800000 -0.000000
v 1.800000 -0.800000 -0.000000
v 1.800000 0.360000 -0.000000
v 0.960000 0.360000 -0.000000
v 0.200000 0.360000 -0.000000
v 0.200000 -0.800000 -0.000000
v 0.960000 -0.800000 -0.000000
v 1.800000 1.640000 -0.000000
v 1.040000 1.640000 -0.000000
v 1.040000 1.640000 0.065000
v 1.800000 1.640000 0.065000
v 1.800000 1.640000 -0.065000
v 1.040000 1.640000 -0.065000
v 1.040000 1.640000 -0.000000
v 1.800000 1.640000 -0.000000
v 1.040000 1.640000 -0.000000
v 1.040000 2.800000 -0.000000
v 1.040000 2.800000 0.065000
v 1.040000 1.640000 0.065000
v 1.040000 1.640000 -0.065000
v 1.040000 2.800000 -0.065000
v 1.040000 2.800000 -0.000000
v 1.040000 1.640000 -0.000000
v 0.200000 1.640000 -0.000000
v 0.960000 1.640000 -0.000000
v 0.960000 1.640000 -0.065000
v 0.200000 1.640000 -0.065000
v 0.200000 1.640000 0.065000
v 0.960000 1.640000 0.065000
v 0.960000 1.640000 -0.000000
v 0.200000 1.640000 -0.000000
v 0.960000 1.640000 0.065000
v 0.960000 2.800000 0.065000
v 0.960000 2.800000 -0.000000
v 0.960000 1.640000 -0.000000
v 0.960000 1.640000 -0.000000
v 0.960000 2.800000 -0.000000
v 0.960000 2.800000 -0.065000
v 0.960000 1.640000 -0.065000
v 1.800000 1.560000 0.065000
v 1.040000 1.560000 0.065000
v 1.040000 1.560000 -0.000000
v 1.800000 1.560000 -0.000000
v 1.800000 1.560000 -0.000000
v 1.040000 1.560000 -0.000000
v 1.040000 1.560000 -0.065000
v 1.800000 1.560000 -0.065000
v 1.040000 1.560000 -0.000000
v 1.040000 1.000000 -0.000000
v 1.040000 1.000000 -0.065000
v 1.040000 1.560000 -0.065000
v 1.040000 1.560000 0.065000
v 1.040000 1.000000 0.065000
v 1.040000 1.000000 -0.000000
v 1.040000 1.560000 -0.000000
v 0.200000 1.560000 -0.065000
v 0.960000 1.560000 -0.065000
v 0.960000 1.560000 -0.000000
v 0.200000 1.560000 -0.000000
v 0.200000 1.560000 -0.000000
v 0.960000 1.560000 -0.000000
v 0.960000 1.560000 0.065000
v 0.200000 1.560000 0.065000
v 0.960000 1.560000 -0.000000
v 0.960000 1.000000 -0.000000
v 0.960000 1.000000 0.065000
v 0.960000 1.560000 0.065000
v 0.960000 1.560000 -0.065000
v 0.960000 1.000000 -0.065000
v 0.960000 1.000000 -0.000000
v 0.960000 1.560000 -0.000000
v 1.800000 1.560000 -0.065000
v 1.040000 1.560000 -0.065000
v 1.040000 1.640000 -0.065000
v 1.800000 1.640000 -0.065000
v 0.960000 2.800000 -0.065000
v 1.040000 2.800000 -0.065000
v 1.040000 1.640000 -0.065000
v 0.960000 1.640000 -0.065000
v 0.200000 1.560000 -0.065000
v 0.200000 1.640000 -0.065000
v 0.960000 1.640000 -0.065000
v 0.960000 1.560000 -0.065000
v 0.960000 1.000000 -0.065000
v 0.960000 1.560000 -0.065000
v 1.040000 1.560000 -0.065000
v 1.040000 1.000000 -0.065000
v 0.960000 1.560000 -0.065000
v 0.960000 1.640000 -0.065000
v 1.040000 1.640000 -0.065000
v 1.040000 1.560000 -0.065000
v 0.960000 2.800000 0.065000
v 0.960000 1.640000 0.065000
v 1.040000 1.640000 0.065000
v 1.040000 2.800000 0.065000
v 0.200000 1.560000 0.065000
v 0.960000 1.560000 0.065000
v 0.960000 1.640000 0.065000
v 0.200000 1.640000 0.065000
v 1.800000 1.560000 0.065000
v 1.800000 1.640000 0.065000
v 1.040000 1.640000 0.065000
v 1.040000 1.560000 0.065000
v 0.960000 1.000000 0.065000
v 1.040000 1.000000 0.065000
v 1.040000 1.560000 0.065000
v 0.960000 1.560000 0.065000
v 0.960000 1.640000 0.065000
v 0.960000 1.560000 0.065000
v 1.040000 1.560000 0.065000
v 1.040000 1.640000 0.065000
v 1.040000 1.640000 -0.000000
v 1.800000 1.640000 -0.000000
v 1.800000 2.800000 -0.000000
v 1.040000 2.800000 -0.000000
v 0.960000 1.640000 -0.000000
v 0.960000 2.800000 -0.000000
v 0.200000 2.800000 -0.000000
v 0.200000 1.640000 -0.000000
v 1.040000 1.560000 -0.000000
v 1.040000 1.000000 -0.000000
v 1.800000 1.000000 -0.000000
v 1.800000 1.560000 -0.000000
v 0.960000 1.560000 -0.000000
v 0.200000 1.560000 -0.000000
v 0.200000 1.000000 -0.000000
v 0.960000 1.000000 -0.000000

vt 0.356637 0.185165
vt 0.402884 -0.184802
vt 0.402883 0.185165
vt 0.356638 -0.184801
vt 0.402884 -0.184802
vt 0.356637 0.185165
vt 0.037179 0.810206
vt 0.703122 0.833342
vt 0.703122 0.810219
vt 0.037179 0.833328
vt 0.703122 0.833342
vt 0.037179 0.810206
vt 0.000182 0.939698
vt 0.740118 0.893453
vt 0.000182 0.893452
vt 0.740118 0.939699
vt 0.740118 0.893453
vt 0.000182 0.939698
vt 0.569731 -0.184802
vt 0.523486 0.185164
vt 0.523486 -0.184802
vt 0.569732 0.185164
vt 0.523486 0.185164
vt 0.569731 -0.184802
vt 0.000181 0.726604
vt 0.740117 0.772850
vt 0.000181 0.772850
vt 0.740117 0.726604
vt 0.740117 0.772850
vt 0.000181 0.726604
vt 0.486124 0.148168
vt 0.463002 -0.147805
vt 0.486125 -0.147805
vt 0.463001 0.148168
vt 0.463002 -0.147805
vt 0.486124 0.148168
vt 0.440243 -0.147804
vt 0.463366 0.148168
vt 0.440243 0.148169
vt 0.463367 -0.147804
vt 0.463366 0.148168
vt 0.440243 -0.147804
vt 0.037179 0.856086
vt 0.703120 0.832970
vt 0.703120 0.856092
vt 0.037179 0.832964
vt 0.703120 0.832970
vt 0.037179 0.856086
vt 0.439880 -0.147805
vt 0.402883 0.185165
vt 0.439880 0.148168
vt 0.402884 -0.184801
vt 0.402883 0.185165
vt 0.439880 -0.147805
vt 0.037178 1.087686
vt 0.740118 1.124683
vt 0.703121 1.087687
vt 0.000181 1.124682
vt 0.740118 1.124683
vt 0.037178 1.087686
vt 0.486489 0.148168
vt 0.523486 -0.184801
vt 0.486489 -0.147805
vt 0.523486 0.185165
vt 0.523486 -0.184801
vt 0.486489 0.148168
vt 0.703120 1.290803
vt 0.000188 1.327807
vt 0.037184 1.290810
vt 0.740126 1.327808
vt 0.000188 1.327807
vt 0.703120 1.290803
vt 0.319641 0.148168
vt 0.356638 -0.184801
vt 0.319641 -0.147805
vt 0.356638 0.185164
vt 0.356638 -0.184801
vt 0.319641 0.148168
vt 0.037181 0.208659
vt 0.740120 0.171665
vt 0.703116 0.208667
vt 0.000185 0.171665
vt 0.740120 0.171665
vt 0.037181 0.208659
vt 0.606728 -0.147805
vt 0.569732 0.185164
vt 0.606728 0.148168
vt 0.569731 -0.184801
vt 0.569732 0.185164
vt 0.606728 -0.147805
vt 0.703121 0.745466
vt 0.000182 0.708468
vt 0.037179 0.745465
vt 0.740118 0.708469
vt 0.000182 0.708468
vt 0.703121 0.745466
vt 0.037179 0.666481
vt 0.703120 0.643364
vt 0.703120 0.666486
vt 0.037179 0.643359
vt 0.703120 0.643364
vt 0.037179 0.666481
vt 0.629850 -0.147805
vt 0.652973 0.148168
vt 0.629850 0.148168
vt 0.652974 -0.147805
vt 0.652973 0.148168
vt 0.629850 -0.147805
vt 0.296518 0.148168
vt 0.273396 -0.147805
vt 0.296520 -0.147805
vt 0.273395 0.148168
vt 0.273396 -0.147805
vt 0.296518 0.148168
vt 0.037178 0.999813
vt 0.703120 1.022938
vt 0.703120 0.999816
vt 0.037178 1.022935
vt 0.703120 1.022938
vt 0.037178 0.999813
vt 0.498859 -0.114272
vt 0.489611 -0.138191
vt 0.498860 -0.138189
vt 0.489610 -0.114271
vt 0.489611 -0.138191
vt 0.498859 -0.114272
vt 0.373196 0.315025
vt 0.434108 0.324274
vt 0.434109 0.315025
vt 0.373196 0.324274
vt 0.434108 0.324274
vt 0.373196 0.315025
vt 0.308461 -0.138179
vt 0.317709 -0.114262
vt 0.308460 -0.114261
vt 0.317709 -0.138180
vt 0.317709 -0.114262
vt 0.308461 -0.138179
vt 0.434093 0.468427
vt 0.373182 0.459179
vt 0.373181 0.468427
vt 0.434093 0.459177
vt 0.373182 0.459179
vt 0.434093 0.468427
vt 0.434103 -0.138195
vt 0.373189 -0.114278
vt 0.434103 -0.114278
vt 0.373190 -0.138195
vt 0.373189 -0.114278
vt 0.434103 -0.138195
vt 0.524645 0.384378
vt 0.540831 0.398251
vt 0.540831 0.384377
vt 0.524644 0.398252
vt 0.540831 0.398251
vt 0.524645 0.384378
vt 0.540826 0.426007
vt 0.524641 0.412133
vt 0.524641 0.426007
vt 0.540826 0.412133
vt 0.524641 0.412133
vt 0.540826 0.426007
vt 0.540819 -0.119717
vt 0.524636 -0.105842
vt 0.524636 -0.119718
vt 0.540819 -0.105843
vt 0.524636 -0.105842
vt 0.540819 -0.119717
vt 0.540838 0.888470
vt 0.524653 0.902345
vt 0.524653 0.888469
vt 0.540838 0.902343
vt 0.524653 0.902345
vt 0.540838 0.888470
vt 0.231770 -0.051952
vt 0.320792 -0.070681
vt 0.231770 -0.070681
vt 0.320793 -0.051951
vt 0.320792 -0.070681
vt 0.231770 -0.051952
vt 0.419063 -0.051954
vt 0.330040 -0.070686
vt 0.330040 -0.051954
vt 0.419063 -0.070685
vt 0.330040 -0.070686
vt 0.419063 -0.051954
vt 0.214448 0.444504
vt 0.223697 0.444504
vt 0.223697 0.444504
vt 0.214449 0.444504
vt 0.223697 0.444504
vt 0.214448 0.444504
vt 0.330031 0.584384
vt 0.330029 0.575134
vt 0.330031 0.575133
vt 0.330031 0.584385
vt 0.330029 0.575134
vt 0.330031 0.584384
vt 0.469937 0.468773
vt 0.460689 0.468774
vt 0.460689 0.468773
vt 0.469937 0.468774
vt 0.460689 0.468774
vt 0.469937 0.468773
vt 0.419066 0.264139
vt 0.419067 0.273389
vt 0.419068 0.273390
vt 0.419067 0.264140
vt 0.419067 0.273389
vt 0.419066 0.264139
vt 0.960144 0.425696
vt 0.943712 0.233577
vt 0.943712 0.425694
vt 0.960144 0.233580
vt 0.943712 0.233577
vt 0.960144 0.425696
vt 0.910156 0.425684
vt 0.893724 0.233568
vt 0.893725 0.425684
vt 0.910154 0.233570
vt 0.893724 0.233568
vt 0.910156 0.425684
vt 0.960139 0.456020
vt 0.943705 0.648139
vt 0.943707 0.456020
vt 0.960136 0.648139
vt 0.943705 0.648139
vt 0.960139 0.456020
vt 0.910152 0.456024
vt 0.893722 0.648144
vt 0.893722 0.456024
vt 0.910151 0.648144
vt 0.893722 0.648144
vt 0.910152 0.456024
vt 0.840411 0.931257
vt 0.823976 0.739137
vt 0.823978 0.931256
vt 0.840409 0.739138
vt 0.823976 0.739137
vt 0.840411 0.931257
vt 0.909500 0.466140
vt 0.925929 0.658256
vt 0.925932 0.466140
vt 0.909498 0.658255
vt 0.925929 0.658256
vt 0.909500 0.466140
vt 0.909472 0.941366
vt 0.925901 0.749247
vt 0.925901 0.941366
vt 0.909472 0.749248
vt 0.925901 0.749247
vt 0.909472 0.941366
vt 0.840400 0.456016
vt 0.823967 0.648132
vt 0.823968 0.456016
vt 0.840399 0.648133
vt 0.823967 0.648132
vt 0.840400 0.456016
vt 0.892397 0.971707
vt 0.908829 1.163822
vt 0.908829 0.971706
vt 0.892397 1.163825
vt 0.908829 1.163822
vt 0.892397 0.971707
vt 0.842407 0.971704
vt 0.858836 1.163818
vt 0.858836 0.971702
vt 0.842407 1.163822
vt 0.858836 1.163818
vt 0.842407 0.971704
vt 0.842431 0.890808
vt 0.858859 0.648130
vt 0.858863 0.890808
vt 0.842427 0.648130
vt 0.858859 0.648130
vt 0.842431 0.890808
vt 0.892395 0.890820
vt 0.908820 0.648143
vt 0.908826 0.890818
vt 0.892389 0.648143
vt 0.908820 0.648143
vt 0.892395 0.890820
vt 0.841074 0.466132
vt 0.857506 0.658248
vt 0.857506 0.466132
vt 0.841074 0.658247
vt 0.857506 0.658248
vt 0.841074 0.466132
vt 0.825316 0.466132
vt 0.841751 0.658248
vt 0.841748 0.466132
vt 0.825319 0.658248
vt 0.841751 0.658248
vt 0.825316 0.466132
vt 0.825341 0.890819
vt 0.841769 0.648144
vt 0.841772 0.890819
vt 0.825338 0.648144
vt 0.841769 0.648144
vt 0.825341 0.890819
vt 0.841086 0.890802
vt 0.857518 0.648134
vt 0.857517 0.890803
vt 0.841087 0.648134
vt 0.857518 0.648134
vt 0.841086 0.890802
vt 0.596059 0.919624
vt 0.616282 1.111740
vt 0.616282 0.919624
vt 0.596059 1.111740
vt 0.616282 1.111740
vt 0.596059 0.919624
vt 0.596071 0.919631
vt 0.403951 0.899407
vt 0.403952 0.919631
vt 0.596070 0.899407
vt 0.403951 0.899407
vt 0.596071 0.919631
vt 0.596059 0.899401
vt 0.616282 0.707284
vt 0.596059 0.707285
vt 0.616282 0.899401
vt 0.616282 0.707284
vt 0.596059 0.899401
vt 0.616279 0.919622
vt 0.858951 0.899398
vt 0.616277 0.899398
vt 0.858949 0.919620
vt 0.858951 0.899398
vt 0.616279 0.919622
vt 0.596055 0.919621
vt 0.616277 0.899398
vt 0.596054 0.899398
vt 0.616278 0.919621
vt 0.616277 0.899398
vt 0.596055 0.919621
vt 0.972916 0.214813
vt 0.952693 0.022696
vt 0.952693 0.214813
vt 0.972916 0.022696
vt 0.952693 0.022696
vt 0.972916 0.214813
vt 0.952697 0.214814
vt 0.760580 0.235037
vt 0.952697 0.235037
vt 0.760580 0.214814
vt 0.760580 0.235037
vt 0.952697 0.214814
vt 0.972918 0.214815
vt 1.165034 0.235037
vt 1.165034 0.214815
vt 0.972918 0.235037
vt 1.165034 0.235037
vt 0.972918 0.214815
vt 0.972939 0.235046
vt 0.952713 0.477722
vt 0.972938 0.477722
vt 0.952715 0.235046
vt 0.952713 0.477722
vt 0.972939 0.235046
vt 0.972933 0.235042
vt 0.952709 0.214819
vt 0.952709 0.235042
vt 0.972933 0.214819
vt 0.952709 0.214819
vt 0.972933 0.235042
vt 0.960144 0.425696
vt 0.943712 0.233577
vt 0.943712 0.425694
vt 0.960144 0.233580
vt 0.943712 0.233577
vt 0.960144 0.425696
vt 0.910156 0.425684
vt 0.893724 0.233568
vt 0.893725 0.425684
vt 0.910154 0.233570
vt 0.893724 0.233568
vt 0.910156 0.425684
vt 0.960144 0.001007
vt 0.943713 0.243683
vt 0.943711 0.001007
vt 0.960145 0.243683
vt 0.943713 0.243683
vt 0.960144 0.001007
vt 0.910179 0.001006
vt 0.893743 0.243681
vt 0.893748 0.001006
vt 0.910173 0.243681
vt 0.893743 0.243681
vt 0.910179 0.001006
vt 0.840411 0.931257
vt 0.823976 0.739137
vt 0.823978 0.931256
vt 0.840409 0.739138
vt 0.823976 0.739137
vt 0.840411 0.931257
vt 0.909500 0.466140
vt 0.925929 0.658256
vt 0.925932 0.466140
vt 0.909498 0.658255
vt 0.925929 0.658256
vt 0.909500 0.466140
vt 0.909513 1.396377
vt 0.925946 1.153701
vt 0.925945 1.396375
vt 0.909514 1.153702
vt 0.925946 1.153701
vt 0.909513 1.396377
vt 0.840407 0.001008
vt 0.823976 0.243682
vt 0.823974 0.001008
vt 0.840408 0.243682
vt 0.823976 0.243682
vt 0.840407 0.001008
vt 0.892397 0.971707
vt 0.908829 1.163822
vt 0.908829 0.971706
vt 0.892397 1.163825
vt 0.908829 1.163822
vt 0.892397 0.971707
vt 0.842407 0.971704
vt 0.858836 1.163818
vt 0.858836 0.971702
vt 0.842407 1.163822
vt 0.858836 1.163818
vt 0.842407 0.971704
vt 0.842412 0.435793
vt 0.858841 0.243676
vt 0.858841 0.435793
vt 0.842412 0.243677
vt 0.858841 0.243676
vt 0.842412 0.435793
vt 0.892387 0.435798
vt 0.908818 0.243681
vt 0.908818 0.435798
vt 0.892387 0.243681
vt 0.908818 0.243681
vt 0.892387 0.435798
vt 0.841074 0.466132
vt 0.857506 0.658248
vt 0.857506 0.466132
vt 0.841074 0.658247
vt 0.857506 0.658248
vt 0.841074 0.466132
vt 0.825316 0.466132
vt 0.841751 0.658248
vt 0.841748 0.466132
vt 0.825319 0.658248
vt 0.841751 0.658248
vt 0.825316 0.466132
vt 0.825322 0.435797
vt 0.841752 0.243680
vt 0.841752 0.435797
vt 0.825321 0.243680
vt 0.841752 0.243680
vt 0.825322 0.435797
vt 0.841069 0.435798
vt 0.857501 0.243681
vt 0.857501 0.435798
vt 0.841069 0.243681
vt 0.857501 0.243681
vt 0.841069 0.435798
vt 0.191598 0.919622
vt 0.211819 1.111738
vt 0.211819 0.919622
vt 0.191598 1.111738
vt 0.211819 1.111738
vt 0.191598 0.919622
vt 0.191599 0.919617
vt -0.051078 0.899394
vt -0.051078 0.919615
vt 0.191599 0.899393
vt -0.051078 0.899394
vt 0.191599 0.919617
vt 0.191603 0.899400
vt 0.211826 0.707281
vt 0.191603 0.707282
vt 0.211826 0.899399
vt 0.211826 0.707281
vt 0.191603 0.899400
vt 0.211818 0.919643
vt 0.403936 0.899419
vt 0.211819 0.899420
vt 0.403935 0.919642
vt 0.403936 0.899419
vt 0.211818 0.919643
vt 0.191601 0.919627
vt 0.211824 0.899404
vt 0.191602 0.899404
vt 0.211824 0.919627
vt 0.211824 0.899404
vt 0.191601 0.919627
vt 0.972905 -0.189632
vt 0.952683 -0.432307
vt 0.952681 -0.189632
vt 0.972906 -0.432307
vt 0.952683 -0.432307
vt 0.972905 -0.189632
vt 0.952696 -0.189645
vt 0.760578 -0.169421
vt 0.952696 -0.169422
vt 0.760579 -0.189644
vt 0.760578 -0.169421
vt 0.952696 -0.189645
vt 0.972913 -0.189640
vt 1.165026 -0.169417
vt 1.165027 -0.189640
vt 0.972912 -0.169417
vt 1.165026 -0.169417
vt 0.972913 -0.189640
vt 0.972908 -0.169422
vt 0.952684 0.022697
vt 0.972908 0.022697
vt 0.952684 -0.169422
vt 0.952684 0.022697
vt 0.972908 -0.169422
vt 0.972906 -0.169419
vt 0.952681 -0.189641
vt 0.952682 -0.169419
vt 0.972903 -0.189641
vt 0.952681 -0.189641
vt 0.972906 -0.169419
vt -0.131274 -0.709358
vt 0.368326 -0.209759
vt 0.368326 -0.709358
vt -0.131274 -0.209758
vt 0.368326 -0.209759
vt -0.131274 -0.709358
vt 0.105379 0.631274
vt 0.604979 0.131674
vt 0.604979 0.631274
vt 0.105379 0.131674
vt 0.604979 0.131674
vt 0.105379 0.631274
vt -0.709359 0.499800
vt -0.209758 -0.131274
vt -0.209758 0.499800
vt -0.709359 -0.131274
vt -0.209758 -0.131274
vt -0.709359 0.499800
vt 0.605379 0.999800
vt 1.104979 0.368726
vt 0.605379 0.368726
vt 1.104979 0.999800
vt 1.104979 0.368726
vt 0.605379 0.999800
vt -1.314538 -0.709359
vt -0.683463 -0.209759
vt -0.683464 -0.709359
vt -1.314538 -0.209759
vt -0.683463 -0.209759
vt -1.314538 -0.709359
vt 0.105379 1.814538
vt 0.604979 1.183464
vt 0.604979 1.814538
vt 0.105379 1.183464
vt 0.604979 1.183464
vt 0.105379 1.814538
vt -0.709358 -0.683464
vt -0.209758 -1.183064
vt -0.209758 -0.683463
vt -0.709358 -1.183064
vt -0.209758 -1.183064
vt -0.709358 -0.683464
vt 0.605379 -0.183464
vt 1.104980 -0.683064
vt 0.605379 -0.683064
vt 1.104979 -0.183464
vt 1.104980 -0.683064
vt 0.605379 -0.183464

vn -0.000000 1.000000 0.000000
vn -0.000000 1.000000 0.000000
vn -0.000000 1.000000 0.000000
vn -0.000000 1.000000 0.000000
vn -0.000000 1.000000 0.000000
vn -0.000000 1.000000 0.000000
vn 1.000000 0.000000 0.000000
vn 1.000000 0.000000 0.000000
vn 1.000000 0.000000 0.000000
vn 1.000000 0.000000 0.000000
vn 1.000000 0.000000 0.000000
vn 1.000000 0.000000 0.000000
vn -1.000000 0.000000 0.000000
vn -1.000000 0.000000 0.000000
vn -1.000000 0.000000 0.000000
vn -1.000000 0.000000 0.000000
vn -1.000000 0.000000 0.000000
vn -1.000000 0.000000 0.000000
vn -0.000000 -1.000000 0.000000
vn -0.000000 -1.000000 0.000000
vn -0.000000 -1.000000 0.000000
vn -0.000000 -1.000000 0.000000
vn -0.000000 -1.000000 0.000000
vn -0.000000 -1.000000 0.000000
vn 1.000000 0.000000 0.000000
vn 1.000000 0.000000 0.000000
vn 1.000000 0.000000 0.000000
vn 1.000000 0.000000 0.000000
vn 1.000000 0.000000 0.000000
vn 1.000000 0.000000 0.000000
vn -0.000000 -1.000000 0.000000
vn -0.000000 -1.000000 0.000000
vn -0.000000 -1.000000 0.000000
vn 0.000000 -1.000000 0.000000
vn 0.000000 -1.000000 0.000000
vn 0.000000 -1.000000 0.000000
vn -0.000000 1.000000 0.000000
vn -0.000000 1.000000 0.000000
vn -0.000000 1.000000 0.000000
vn 0.000000 1.000000 0.000000
vn 0.000000 1.000000 0.000000
vn 0.000000 1.000000 0.000000
vn -1.000000 0.000000 0.000000
vn -1.000000 0.000000 0.000000
vn -1.000000 0.000000 0.000000
vn -1.000000 0.000000 0.000000
vn -1.000000 0.000000 0.000000
vn -1.000000 0.000000 0.000000
vn 0.000000 -0.000000 1.000000
vn 0.000000 -0.000000 1.000000
vn 0.000000 -0.000000 1.000000
vn 0.000000 0.000000 1.000000
vn 0.000000 0.000000 1.000000
vn 0.000000 0.000000 1.000000
vn 0.000000 0.000000 1.000000
vn 0.000000 0.000000 1.000000
vn 0.000000 0.000000 1.000000
vn 0.000000 0.000000 1.000000
vn 0.000000 0.000000 1.000000
vn 0.000000 0.000000 1.000000
vn 0.000000 -0.000000 1.000000
vn 0.000000 -0.000000 1.000000
vn 0.000000 -0.000000 1.000000
vn 0.000000 0.000000 1.000000
vn 0.000000 0.000000 1.000000
vn 0.000000 0.000000 1.000000
vn 0.000000 0.000000 1.000000
vn 0.000000 0.000000 1.000000
vn 0.000000 0.000000 1.000000
vn 0.000000 0.000000 1.000000
vn 0.000000 0.000000 1.000000
vn 0.000000 0.000000 1.000000
vn -0.000000 0.000000 -1.000000
vn -0.000000 0.000000 -1.000000
vn -0.000000 0.000000 -1.000000
vn -0.000000 -0.000000 -1.000000
vn -0.000000 -0.000000 -1.000000
vn -0.000000 -0.000000 -1.000000
vn -0.000000 0.000000 -1.000000
vn -0.000000 0.000000 -1.000000
vn -0.000000 0.000000 -1.000000
vn -0.000000 0.000000 -1.000000
vn -0.000000 0.000000 -1.000000
vn -0.000000 0.000000 -1.000000
vn -0.000000 0.000000 -1.000000
vn -0.000000 0.000000 -1.000000
vn -0.000000 0.000000 -1.000000
vn -0.000000 -0.000000 -1.000000
vn -0.000000 -0.000000 -1.000000
vn -0.000000 -0.000000 -1.000000
vn -0.000000 0.000000 -1.000000
vn -0.000000 0.000000 -1.000000
vn -0.000000 0.000000 -1.000000
vn -0.000000 0.000000 -1.000000
vn -0.000000 0.000000 -1.000000
vn -0.000000 0.000000 -1.000000
vn -1.000000 0.000000 0.000000
vn -1.000000 0.000000 0.000000
vn -1.000000 0.000000 0.000000
vn -1.000000 0.000000 0.000000
vn -1.000000 0.000000 0.000000
vn -1.000000 0.000000 0.000000
vn -0.000000 1.000000 0.000000
vn -0.000000 1.000000 0.000000
vn -0.000000 1.000000 0.000000
vn -0.000000 1.000000 0.000000
vn -0.000000 1.000000 0.000000
vn -0.000000 1.000000 0.000000
vn -0.000000 -1.000000 0.000000
vn -0.000000 -1.000000 0.000000
vn -0.000000 -1.000000 0.000000
vn -0.000000 -1.000000 0.000000
vn -0.000000 -1.000000 0.000000
vn -0.000000 -1.000000 0.000000
vn 1.000000 0.000000 0.000000
vn 1.000000 0.000000 0.000000
vn 1.000000 0.000000 0.000000
vn 1.000000 0.000000 0.000000
vn 1.000000 0.000000 0.000000
vn 1.000000 0.000000 0.000000
vn -0.000000 -1.000000 -0.000002
vn -0.000000 -1.000000 -0.000002
vn -0.000000 -1.000000 -0.000002
vn -0.000000 -1.000000 0.000000
vn -0.000000 -1.000000 0.000000
vn -0.000000 -1.000000 0.000000
vn -1.000000 0.000000 0.000000
vn -1.000000 0.000000 0.000000
vn -1.000000 0.000000 0.000000
vn -1.000000 0.000000 0.000000
vn -1.000000 0.000000 0.000000
vn -1.000000 0.000000 0.000000
vn -0.000000 1.000000 0.000000
vn -0.000000 1.000000 0.000000
vn -0.000000 1.000000 0.000000
vn -0.000000 1.000000 0.000000
vn -0.000000 1.000000 0.000000
vn -0.000000 1.000000 0.000000
vn 1.000000 0.000000 0.000000
vn 1.000000 0.000000 0.000000
vn 1.000000 0.000000 0.000000
vn 1.000000 0.000000 0.000007
vn 1.000000 0.000000 0.000007
vn 1.000000 0.000000 0.000007
vn -0.000000 0.000000 1.000000
vn -0.000000 0.000000 1.000000
vn -0.000000 0.000000 1.000000
vn -0.000000 0.000000 1.000000
vn -0.000000 0.000000 1.000000
vn -0.000000 0.000000 1.000000
vn -1.000000 0.000000 0.000000
vn -1.000000 0.000000 0.000000
vn -1.000000 0.000000 0.000000
vn -1.000000 0.000000 0.000000
vn -1.000000 0.000000 0.000000
vn -1.000000 0.000000 0.000000
vn 1.000000 0.000000 0.000000
vn 1.000000 0.000000 0.000000
vn 1.000000 0.000000 0.000000
vn 1.000000 0.000000 0.000000
vn 1.000000 0.000000 0.000000
vn 1.000000 0.000000 0.000000
vn -0.000000 -1.000000 0.000000
vn -0.000000 -1.000000 0.000000
vn -0.000000 -1.000000 0.000000
vn -0.000000 -1.000000 0.000000
vn -0.000000 -1.000000 0.000000
vn -0.000000 -1.000000 0.000000
vn -0.000000 1.000000 0.000000
vn -0.000000 1.000000 0.000000
vn -0.000000 1.000000 0.000000
vn -0.000000 1.000000 0.000000
vn -0.000000 1.000000 0.000000
vn -0.000000 1.000000 0.000000
vn -0.000001 0.000000 -1.000000
vn -0.000001 0.000000 -1.000000
vn -0.000001 0.000000 -1.000000
vn -0.000001 0.000000 -1.000000
vn -0.000001 0.000000 -1.000000
vn -0.000001 0.000000 -1.000000
vn 0.000001 0.000000 1.000000
vn 0.000001 0.000000 1.000000
vn 0.000001 0.000000 1.000000
vn 0.000001 0.000000 1.000000
vn 0.000001 0.000000 1.000000
vn 0.000001 0.000000 1.000000
vn -1.000000 0.000000 0.000000
vn -1.000000 0.000000 0.000000
vn -1.000000 0.000000 0.000000
vn -1.000000 0.000000 0.000000
vn -1.000000 0.000000 0.000000
vn -1.000000 0.000000 0.000000
vn 0.000000 1.000000 0.000000
vn 0.000000 1.000000 0.000000
vn 0.000000 1.000000 0.000000
vn -0.000000 1.000000 0.000000
vn -0.000000 1.000000 0.000000
vn -0.000000 1.000000 0.000000
vn 1.000000 0.000000 0.000000
vn 1.000000 0.000000 0.000000
vn 1.000000 0.000000 0.000000
vn 1.000000 0.000000 0.000000
vn 1.000000 0.000000 0.000000
vn 1.000000 0.000000 0.000000
vn -0.000001 -1.000000 0.000000
vn -0.000001 -1.000000 0.000000
vn -0.000001 -1.000000 0.000000
vn -0.000000 -1.000000 0.000000
vn -0.000000 -1.000000 0.000000
vn -0.000000 -1.000000 0.000000
vn 0.000000 1.000000 0.000000
vn 0.000000 1.000000 0.000000
vn 0.000000 1.000000 0.000000
vn 0.000000 1.000000 0.000000
vn 0.000000 1.000000 0.000000
vn 0.000000 1.000000 0.000000
vn 0.000000 1.000000 0.000000
vn 0.000000 1.000000 0.000000
vn 0.000000 1.000000 0.000000
vn 0.000000 1.000000 0.000000
vn 0.000000 1.000000 0.000000
vn 0.000000 1.000000 0.000000
vn 1.000000 0.000000 0.000000
vn 1.000000 0.000000 0.000000
vn 1.000000 0.000000 0.000000
vn 1.000000 0.000000 0.000000
vn 1.000000 0.000000 0.000000
vn 1.000000 0.000000 0.000000
vn 1.000000 0.000000 0.000000
vn 1.000000 0.000000 0.000000
vn 1.000000 0.000000 0.000000
vn 1.000000 0.000000 0.000000
vn 1.000000 0.000000 0.000000
vn 1.000000 0.000000 0.000000
vn 0.000000 1.000000 0.000000
vn 0.000000 1.000000 0.000000
vn 0.000000 1.000000 0.000000
vn -0.000000 1.000000 0.000000
vn -0.000000 1.000000 0.000000
vn -0.000000 1.000000 0.000000
vn -0.000000 1.000000 0.000000
vn -0.000000 1.000000 0.000000
vn -0.000000 1.000000 0.000000
vn -0.000000 1.000000 0.000000
vn -0.000000 1.000000 0.000000
vn -0.000000 1.000000 0.000000
vn -1.000000 -0.000000 0.000000
vn -1.000000 -0.000000 0.000000
vn -1.000000 -0.000000 0.000000
vn -1.000000 -0.000000 0.000000
vn -1.000000 -0.000000 0.000000
vn -1.000000 -0.000000 0.000000
vn -1.000000 -0.000000 0.000000
vn -1.000000 -0.000000 0.000000
vn -1.000000 -0.000000 0.000000
vn -1.000000 -0.000000 0.000000
vn -1.000000 -0.000000 0.000000
vn -1.000000 -0.000000 0.000000
vn 0.000000 -1.000000 0.000000
vn 0.000000 -1.000000 0.000000
vn 0.000000 -1.000000 0.000000
vn 0.000000 -1.000000 0.000000
vn 0.000000 -1.000000 0.000000
vn 0.000000 -1.000000 0.000000
vn -0.000000 -1.000000 0.000000
vn -0.000000 -1.000000 0.000000
vn -0.000000 -1.000000 0.000000
vn -0.000000 -1.000000 0.000000
vn -0.000000 -1.000000 0.000000
vn -0.000000 -1.000000 0.000000
vn 1.000000 0.000000 0.000000
vn 1.000000 0.000000 0.000000
vn 1.000000 0.000000 0.000000
vn 1.000000 0.000000 0.000000
vn 1.000000 0.000000 0.000000
vn 1.000000 0.000000 0.000000
vn 1.000000 0.000000 0.000000
vn 1.000000 0.000000 0.000000
vn 1.000000 0.000000 0.000000
vn 1.000000 0.000000 0.000000
vn 1.000000 0.000000 0.000000
vn 1.000000 0.000000 0.000000
vn -0.000000 -1.000000 0.000000
vn -0.000000 -1.000000 0.000000
vn -0.000000 -1.000000 0.000000
vn -0.000000 -1.000000 0.000000
vn -0.000000 -1.000000 0.000000
vn -0.000000 -1.000000 0.000000
vn 0.000000 -1.000000 0.000000
vn 0.000000 -1.000000 0.000000
vn 0.000000 -1.000000 0.000000
vn -0.000000 -1.000000 0.000000
vn -0.000000 -1.000000 0.000000
vn -0.000000 -1.000000 0.000000
vn -1.000000 0.000000 0.000000
vn -1.000000 0.000000 0.000000
vn -1.000000 0.000000 0.000000
vn -1.000000 0.000000 0.000000
vn -1.000000 0.000000 0.000000
vn -1.000000 0.000000 0.000000
vn -1.000000 0.000000 0.000000
vn -1.000000 0.000000 0.000000
vn -1.000000 0.000000 0.000000
vn -1.000000 0.000000 0.000000
vn -1.000000 0.000000 0.000000
vn -1.000000 0.000000 0.000000
vn -0.000000 0.000000 -1.000000
vn -0.000000 0.000000 -1.000000
vn -0.000000 0.000000 -1.000000
vn -0.000000 0.000000 -1.000000
vn -0.000000 0.000000 -1.000000
vn -0.000000 0.000000 -1.000000
vn -0.000000 0.000000 -1.000000
vn -0.000000 0.000000 -1.000000
vn -0.000000 0.000000 -1.000000
vn -0.000000 0.000000 -1.000000
vn -0.000000 0.000000 -1.000000
vn -0.000000 0.000000 -1.000000
vn -0.000000 0.000000 -1.000000
vn -0.000000 0.000000 -1.000000
vn -0.000000 0.000000 -1.000000
vn -0.000000 0.000000 -1.000000
vn -0.000000 0.000000 -1.000000
vn -0.000000 0.000000 -1.000000
vn -0.000000 -0.000000 -1.000000
vn -0.000000 -0.000000 -1.000000
vn -0.000000 -0.000000 -1.000000
vn -0.000000 0.000000 -1.000000
vn -0.000000 0.000000 -1.000000
vn -0.000000 0.000000 -1.000000
vn -0.000000 0.000000 -1.000000
vn -0.000000 0.000000 -1.000000
vn -0.000000 0.000000 -1.000000
vn -0.000000 0.000000 -1.000000
vn -0.000000 0.000000 -1.000000
vn -0.000000 0.000000 -1.000000
vn -0.000000 0.000000 1.000000
vn -0.000000 0.000000 1.000000
vn -0.000000 0.000000 1.000000
vn -0.000000 0.000000 1.000000
vn -0.000000 0.000000 1.000000
vn -0.000000 0.000000 1.000000
vn 0.000000 0.000000 1.000000
vn 0.000000 0.000000 1.000000
vn 0.000000 0.000000 1.000000
vn 0.000000 0.000000 1.000000
vn 0.000000 0.000000 1.000000
vn 0.000000 0.000000 1.000000
vn 0.000000 0.000000 1.000000
vn 0.000000 0.000000 1.000000
vn 0.000000 0.000000 1.000000
vn 0.000000 0.000000 1.000000
vn 0.000000 0.000000 1.000000
vn 0.000000 0.000000 1.000000
vn -0.000000 0.000000 1.000000
vn -0.000000 0.000000 1.000000
vn -0.000000 0.000000 1.000000
vn -0.000000 0.000000 1.000000
vn -0.000000 0.000000 1.000000
vn -0.000000 0.000000 1.000000
vn -0.000000 0.000000 1.000000
vn -0.000000 0.000000 1.000000
vn -0.000000 0.000000 1.000000
vn -0.000000 0.000000 1.000000
vn -0.000000 0.000000 1.000000
vn -0.000000 0.000000 1.000000
vn -0.000000 1.000000 0.000000
vn -0.000000 1.000000 0.000000
vn -0.000000 1.000000 0.000000
vn -0.000000 1.000000 0.000000
vn -0.000000 1.000000 0.000000
vn -0.000000 1.000000 0.000000
vn 0.000000 1.000000 0.000000
vn 0.000000 1.000000 0.000000
vn 0.000000 1.000000 0.000000
vn -0.000000 1.000000 0.000000
vn -0.000000 1.000000 0.000000
vn -0.000000 1.000000 0.000000
vn 1.000000 0.000000 0.000000
vn 1.000000 0.000000 0.000000
vn 1.000000 0.000000 0.000000
vn 1.000000 0.000000 0.000000
vn 1.000000 0.000000 0.000000
vn 1.000000 0.000000 0.000000
vn 1.000000 0.000000 0.000000
vn 1.000000 0.000000 0.000000
vn 1.000000 0.000000 0.000000
vn 1.000000 0.000000 0.000000
vn 1.000000 0.000000 0.000000
vn 1.000000 0.000000 0.000000
vn 0.000000 1.000000 0.000000
vn 0.000000 1.000000 0.000000
vn 0.000000 1.000000 0.000000
vn -0.000000 1.000000 0.000000
vn -0.000000 1.000000 0.000000
vn -0.000000 1.000000 0.000000
vn 0.000000 1.000000 0.000000
vn 0.000000 1.000000 0.000000
vn 0.000000 1.000000 0.000000
vn -0.000000 1.000000 0.000000
vn -0.000000 1.000000 0.000000
vn -0.000000 1.000000 0.000000
vn -1.000000 -0.000000 0.000000
vn -1.000000 -0.000000 0.000000
vn -1.000000 -0.000000 0.000000
vn -1.000000 -0.000000 0.000000
vn -1.000000 -0.000000 0.000000
vn -1.000000 -0.000000 0.000000
vn -1.000000 -0.000000 0.000000
vn -1.000000 -0.000000 0.000000
vn -1.000000 -0.000000 0.000000
vn -1.000000 -0.000000 0.000000
vn -1.000000 -0.000000 0.000000
vn -1.000000 -0.000000 0.000000
vn -0.000000 -1.000000 0.000000
vn -0.000000 -1.000000 0.000000
vn -0.000000 -1.000000 0.000000
vn -0.000000 -1.000000 0.000000
vn -0.000000 -1.000000 0.000000
vn -0.000000 -1.000000 0.000000
vn -0.000000 -1.000000 0.000000
vn -0.000000 -1.000000 0.000000
vn -0.000000 -1.000000 0.000000
vn 0.000000 -1.000000 0.000000
vn 0.000000 -1.000000 0.000000
vn 0.000000 -1.000000 0.000000
vn 1.000000 0.000000 0.000000
vn 1.000000 0.000000 0.000000
vn 1.000000 0.000000 0.000000
vn 1.000000 0.000000 0.000000
vn 1.000000 0.000000 0.000000
vn 1.000000 0.000000 0.000000
vn 1.000000 0.000000 0.000000
vn 1.000000 0.000000 0.000000
vn 1.000000 0.000000 0.000000
vn 1.000000 0.000000 0.000000
vn 1.000000 0.000000 0.000000
vn 1.000000 0.000000 0.000000
vn 0.000000 -1.000000 0.000000
vn 0.000000 -1.000000 0.000000
vn 0.000000 -1.000000 0.000000
vn -0.000000 -1.000000 0.000000
vn -0.000000 -1.000000 0.000000
vn -0.000000 -1.000000 0.000000
vn 0.000000 -1.000000 0.000000
vn 0.000000 -1.000000 0.000000
vn 0.000000 -1.000000 0.000000
vn -0.000000 -1.000000 0.000000
vn -0.000000 -1.000000 0.000000
vn -0.000000 -1.000000 0.000000
vn -1.000000 0.000000 0.000000
vn -1.000000 0.000000 0.000000
vn -1.000000 0.000000 0.000000
vn -1.000000 0.000000 0.000000
vn -1.000000 0.000000 0.000000
vn -1.000000 0.000000 0.000000
vn -1.000000 0.000000 0.000000
vn -1.000000 0.000000 0.000000
vn -1.000000 0.000000 0.000000
vn -1.000000 0.000000 0.000000
vn -1.000000 0.000000 0.000000
vn -1.000000 0.000000 0.000000
vn -0.000000 0.000000 -1.000000
vn -0.000000 0.000000 -1.000000
vn -0.000000 0.000000 -1.000000
vn -0.000000 0.000000 -1.000000
vn -0.000000 0.000000 -1.000000
vn -0.000000 0.000000 -1.000000
vn -0.000000 0.000000 -1.000000
vn -0.000000 0.000000 -1.000000
vn -0.000000 0.000000 -1.000000
vn -0.000000 0.000000 -1.000000
vn -0.000000 0.000000 -1.000000
vn -0.000000 0.000000 -1.000000
vn -0.000000 0.000000 -1.000000
vn -0.000000 0.000000 -1.000000
vn -0.000000 0.000000 -1.000000
vn -0.000000 0.000000 -1.000000
vn -0.000000 0.000000 -1.000000
vn -0.000000 0.000000 -1.000000
vn -0.000000 -0.000000 -1.000000
vn -0.000000 -0.000000 -1.000000
vn -0.000000 -0.000000 -1.000000
vn -0.000000 0.000000 -1.000000
vn -0.000000 0.000000 -1.000000
vn -0.000000 0.000000 -1.000000
vn -0.000000 0.000000 -1.000000
vn -0.000000 0.000000 -1.000000
vn -0.000000 0.000000 -1.000000
vn -0.000000 0.000000 -1.000000
vn -0.000000 0.000000 -1.000000
vn -0.000000 0.000000 -1.000000
vn -0.000000 0.000000 1.000000
vn -0.000000 0.000000 1.000000
vn -0.000000 0.000000 1.000000
vn -0.000000 0.000000 1.000000
vn -0.000000 0.000000 1.000000
vn -0.000000 0.000000 1.000000
vn 0.000000 0.000000 1.000000
vn 0.000000 0.000000 1.000000
vn 0.000000 0.000000 1.000000
vn 0.000000 0.000000 1.000000
vn 0.000000 0.000000 1.000000
vn 0.000000 0.000000 1.000000
vn 0.000000 0.000000 1.000000
vn 0.000000 0.000000 1.000000
vn 0.000000 0.000000 1.000000
vn 0.000000 0.000000 1.000000
vn 0.000000 0.000000 1.000000
vn 0.000000 0.000000 1.000000
vn -0.000000 0.000000 1.000000
vn -0.000000 0.000000 1.000000
vn -0.000000 0.000000 1.000000
vn -0.000000 0.000000 1.000000
vn -0.000000 0.000000 1.000000
vn -0.000000 0.000000 1.000000
vn -0.000000 0.000000 1.000000
vn -0.000000 0.000000 1.000000
vn -0.000000 0.000000 1.000000
vn -0.000000 0.000000 1.000000
vn -0.000000 0.000000 1.000000
vn -0.000000 0.000000 1.000000
vn 0.000000 0.000000 1.000000
vn 0.000000 0.000000 1.000000
vn 0.000000 0.000000 1.000000
vn 0.000000 0.000000 1.000000
vn 0.000000 0.000000 1.000000
vn 0.000000 0.000000 1.000000
vn 0.000000 0.000000 1.000000
vn 0.000000 0.000000 1.000000
vn 0.000000 0.000000 1.000000
vn 0.000000 0.000000 1.000000
vn 0.000000 0.000000 1.000000
vn 0.000000 0.000000 1.000000
vn 0.000000 0.000000 1.000000
vn 0.000000 0.000000 1.000000
vn 0.000000 0.000000 1.000000
vn 0.000000 0.000000 1.000000
vn 0.000000 0.000000 1.000000
vn 0.000000 0.000000 1.000000
vn 0.000000 0.000000 1.000000
vn 0.000000 0.000000 1.000000
vn 0.000000 0.000000 1.000000
vn 0.000000 0.000000 1.000000
vn 0.000000 0.000000 1.000000
vn 0.000000 0.000000 1.000000
vn 0.000000 0.000000 1.000000
vn 0.000000 0.000000 1.000000
vn 0.000000 0.000000 1.000000
vn 0.000000 0.000000 1.000000
vn 0.000000 0.000000 1.000000
vn 0.000000 0.000000 1.000000
vn 0.000000 0.000000 1.000000
vn 0.000000 0.000000 1.000000
vn 0.000000 0.000000 1.000000
vn 0.000000 0.000000 1.000000
vn 0.000000 0.000000 1.000000
vn 0.000000 0.000000 1.000000
vn 0.000000 0.000000 1.000000
vn 0.000000 0.000000 1.000000
vn 0.000000 0.000000 1.000000
vn 0.000000 0.000000 1.000000
vn 0.000000 0.000000 1.000000
vn 0.000000 0.000000 1.000000
vn 0.000000 0.000000 1.000000
vn 0.000000 0.000000 1.000000
vn 0.000000 0.000000 1.000000
vn 0.000000 0.000000 1.000000
vn 0.000000 0.000000 1.000000
vn 0.000000 0.000000 1.000000

g Material
f 3/1/1 1/2/2 2/3/3
f 4/4/4 1/5/5 3/6/6
f 7/7/7 5/8/8 6/9/9
f 8/10/10 5/11/11 7/12/12
f 11/13/13 9/14/14 10/15/15
f 12/16/16 9/17/17 11/18/18
f 15/19/19 13/20/20 14/21/21
f 16/22/22 13/23/23 15/24/24
f 19/25/25 17/26/26 18/27/27
f 20/28/28 17/29/29 19/30/30
f 23/31/31 21/32/32 22/33/33
f 24/34/34 21/35/35 23/36/36
f 27/37/37 25/38/38 26/39/39
f 28/40/40 25/41/41 27/42/42
f 31/43/43 29/44/44 30/45/45
f 32/46/46 29/47/47 31/48/48
f 35/49/49 33/50/50 34/51/51
f 36/52/52 33/53/53 35/54/54
f 39/55/55 37/56/56 38/57/57
f 40/58/58 37/59/59 39/60/60
f 43/61/61 41/62/62 42/63/63
f 44/64/64 41/65/65 43/66/66
f 47/67/67 45/68/68 46/69/69
f 48/70/70 45/71/71 47/72/72
f 51/73/73 49/74/74 50/75/75
f 52/76/76 49/77/77 51/78/78
f 55/79/79 53/80/80 54/81/81
f 56/82/82 53/83/83 55/84/84
f 59/85/85 57/86/86 58/87/87
f 60/88/88 57/89/89 59/90/90
f 63/91/91 61/92/92 62/93/93
f 64/94/94 61/95/95 63/96/96
f 67/97/97 65/98/98 66/99/99
f 68/100/100 65/101/101 67/102/102
f 71/103/103 69/104/104 70/105/105
f 72/106/106 69/107/107 71/108/108
f 75/109/109 73/110/110 74/111/111
f 76/112/112 73/113/113 75/114/114
f 79/115/115 77/116/116 78/117/117
f 80/118/118 77/119/119 79/120/120
f 83/121/121 81/122/122 82/123/123
f 84/124/124 81/125/125 83/126/126
f 87/127/127 85/128/128 86/129/129
f 88/130/130 85/131/131 87/132/132
f 91/133/133 89/134/134 90/135/135
f 92/136/136 89/137/137 91/138/138
f 95/139/139 93/140/140 94/141/141
f 96/142/142 93/143/143 95/144/144
f 99/145/145 97/146/146 98/147/147
f 100/148/148 97/149/149 99/150/150
f 103/151/151 101/152/152 102/153/153
f 104/154/154 101/155/155 103/156/156
f 107/157/157 105/158/158 106/159/159
f 108/160/160 105/161/161 107/162/162
f 111/163/163 109/164/164 110/165/165
f 112/166/166 109/167/167 111/168/168
f 115/169/169 113/170/170 114/171/171
f 116/172/172 113/173/173 115/174/174
f 119/175/175 117/176/176 118/177/177
f 120/178/178 117/179/179 119/180/180
f 123/181/181 121/182/182 122/183/183
f 124/184/184 121/185/185 123/186/186
f 127/187/187 125/188/188 126/189/189
f 128/190/190 125/191/191 127/192/192
f 131/193/193 129/194/194 130/195/195
f 132/196/196 129/197/197 131/198/198
f 135/199/199 133/200/200 134/201/201
f 136/202/202 133/203/203 135/204/204
f 139/205/205 137/206/206 138/207/207
f 140/208/208 137/209/209 139/210/210
f 143/211/211 141/212/212 142/213/213
f 144/214/214 141/215/215 143/216/216
f 147/217/217 145/218/218 146/219/219
f 148/220/220 145/221/221 147/222/222
f 151/223/223 149/224/224 150/225/225
f 152/226/226 149/227/227 151/228/228
f 155/229/229 153/230/230 154/231/231
f 156/232/232 153/233/233 155/234/234
f 159/235/235 157/236/236 158/237/237
f 160/238/238 157/239/239 159/240/240
f 163/241/241 161/242/242 162/243/243
f 164/244/244 161/245/245 163/246/246
f 167/247/247 165/248/248 166/249/249
f 168/250/250 165/251/251 167/252/252
f 171/253/253 169/254/254 170/255/255
f 172/256/256 169/257/257 171/258/258
f 175/259/259 173/260/260 174/261/261
f 176/262/262 173/263/263 175/264/264
f 179/265/265 177/266/266 178/267/267
f 180/268/268 177/269/269 179/270/270
f 183/271/271 181/272/272 182/273/273
f 184/274/274 181/275/275 183/276/276
f 187/277/277 185/278/278 186/279/279
f 188/280/280 185/281/281 187/282/282
f 191/283/283 189/284/284 190/285/285
f 192/286/286 189/287/287 191/288/288
f 195/289/289 193/290/290 194/291/291
f 196/292/292 193/293/293 195/294/294
f 199/295/295 197/296/296 198/297/297
f 200/298/298 197/299/299 199/300/300
f 203/301/301 201/302/302 202/303/303
f 204/304/304 201/305/305 203/306/306
f 207/307/307 205/308/308 206/309/309
f 208/310/310 205/311/311 207/312/312
f 211/313/313 209/314/314 210/315/315
f 212/316/316 209/317/317 211/318/318
f 215/319/319 213/320/320 214/321/321
f 216/322/322 213/323/323 215/324/324
f 219/325/325 217/326/326 218/327/327
f 220/328/328 217/329/329 219/330/330
f 223/331/331 221/332/332 222/333/333
f 224/334/334 221/335/335 223/336/336
f 227/337/337 225/338/338 226/339/339
f 228/340/340 225/341/341 227/342/342
f 231/343/343 229/344/344 230/345/345
f 232/346/346 229/347/347 231/348/348
f 235/349/349 233/350/350 234/351/351
f 236/352/352 233/353/353 235/354/354
f 239/355/355 237/356/356 238/357/357
f 240/358/358 237/359/359 239/360/360
f 243/361/361 241/362/362 242/363/363
f 244/364/364 241/365/365 243/366/366
f 263/367/367 261/368/368 262/369/369
f 264/370/370 261/371/371 263/372/372
f 267/373/373 265/374/374 266/375/375
f 268/376/376 265/377/377 267/378/378
f 271/379/379 269/380/380 270/381/381
f 272/382/382 269/383/383 271/384/384
f 275/385/385 273/386/386 274/387/387
f 276/388/388 273/389/389 275/390/390
f 279/391/391 277/392/392 278/393/393
f 280/394/394 277/395/395 279/396/396
f 283/397/397 281/398/398 282/399/399
f 284/400/400 281/401/401 283/402/402
f 287/403/403 285/404/404 286/405/405
f 288/406/406 285/407/407 287/408/408
f 291/409/409 289/410/410 290/411/411
f 292/412/412 289/413/413 291/414/414
f 295/415/415 293/416/416 294/417/417
f 296/418/418 293/419/419 295/420/420
f 299/421/421 297/422/422 298/423/423
f 300/424/424 297/425/425 299/426/426
f 303/427/427 301/428/428 302/429/429
f 304/430/430 301/431/431 303/432/432
f 307/433/433 305/434/434 306/435/435
f 308/436/436 305/437/437 307/438/438
f 311/439/439 309/440/440 310/441/441
f 312/442/442 309/443/443 311/444/444
f 315/445/445 313/446/446 314/447/447
f 316/448/448 313/449/449 315/450/450
f 319/451/451 317/452/452 318/453/453
f 320/454/454 317/455/455 319/456/456
f 323/457/457 321/458/458 322/459/459
f 324/460/460 321/461/461 323/462/462
f 327/463/463 325/464/464 326/465/465
f 328/466/466 325/467/467 327/468/468
f 331/469/469 329/470/470 330/471/471
f 332/472/472 329/473/473 331/474/474
f 335/475/475 333/476/476 334/477/477
f 336/478/478 333/479/479 335/480/480
f 339/481/481 337/482/482 338/483/483
f 340/484/484 337/485/485 339/486/486
f 343/487/487 341/488/488 342/489/489
f 344/490/490 341/491/491 343/492/492
f 347/493/493 345/494/494 346/495/495
f 348/496/496 345/497/497 347/498/498
f 351/499/499 349/500/500 350/501/501
f 352/502/502 349/503/503 351/504/504
f 355/505/505 353/506/506 354/507/507
f 356/508/508 353/509/509 355/510/510
f 359/511/511 357/512/512 358/513/513
f 360/514/514 357/515/515 359/516/516
f 363/517/517 361/518/518 362/519/519
f 364/520/520 361/521/521 363/522/522

g Material.004
f 247/523/523 245/524/524 246/525/525
f 248/526/526 245/527/527 247/528/528
f 251/529/529 249/530/530 250/531/531
f 252/532/532 249/533/533 251/534/534
f 255/535/535 253/536/536 254/537/537
f 256/538/538 253/539/539 255/540/540
f 259/541/541 257/542/542 258/543/543
f 260/544/544 257/545/545 259/546/546
f 367/547/547 365/548/548 366/549/549
f 368/550/550 365/551/551 367/552/552
f 371/553/553 369/554/554 370/555/555
f 372/556/556 369/557/557 371/558/558
f 375/559/559 373/560/560 374/561/561
f 376/562/562 373/563/563 375/564/564
f 379/565/565 377/566/566 378/567/567
f 380/568/568 377/569/569 379/570/570

