# Converted from B3D for Luanti (With Correct Normals)
# Object Name: multidecor_shower_head

v -0.050491 -0.898528 0.860523
v -0.151472 -0.924019 0.816372
v -0.050491 -0.924019 0.816372
v 0.151472 -0.974509 0.728920
v 0.050491 -0.974509 0.728920
v 0.050491 -1.000000 0.684769
v -0.050491 -1.000000 0.684769
v -0.151472 -0.974509 0.728920
v -0.151472 0.151323 0.078920
v -0.050491 0.125833 0.034769
v 0.050491 -0.924019 0.816372
v 0.151472 -0.924019 0.816372
v 0.050491 -0.898528 0.860523
v -0.151472 -0.924019 0.816372
v -0.151472 0.201814 0.166373
v -0.151472 0.151323 0.078920
v -0.151472 -0.974509 0.728920
v -0.151472 -0.924019 0.816372
v -0.050491 -0.898528 0.860523
v -0.050491 0.227305 0.210524
v -0.151472 0.201814 0.166373
v -0.050491 -0.924019 0.816372
v -0.151472 -0.924019 0.816372
v -0.151472 -0.974509 0.728920
v -0.050491 -0.974509 0.728920
v 0.151472 -0.974509 0.728920
v 0.151472 0.151323 0.078920
v 0.151472 0.201814 0.166373
v 0.151472 -0.924019 0.816372
v 0.050491 -1.000000 0.684769
v 0.050491 0.125833 0.034769
v 0.151472 0.151323 0.078920
v 0.151472 -0.974509 0.728920
v 0.151472 -0.924019 0.816372
v 0.151472 0.201814 0.166373
v 0.050491 0.227305 0.210524
v 0.050491 -0.898528 0.860523
v 0.151472 -0.924019 0.816372
v 0.050491 -0.924019 0.816372
v 0.050491 -0.974509 0.728920
v 0.151472 -0.974509 0.728920
v 0.050491 -0.924019 0.816372
v -0.050491 -0.924019 0.816372
v -0.050491 -0.974509 0.728920
v 0.050491 -0.974509 0.728920
v 0.050491 -0.898528 0.860523
v -0.050491 -0.898528 0.860523
v -0.050491 -0.924019 0.816372
v 0.050491 -0.924019 0.816372
v 0.050491 -0.898528 0.860523
v 0.050491 0.227305 0.210524
v -0.050491 0.227305 0.210524
v -0.050491 -0.898528 0.860523
v 0.050491 -0.974509 0.728920
v -0.050491 -0.974509 0.728920
v -0.050491 -1.000000 0.684769
v 0.050491 -1.000000 0.684769
v -0.050491 -1.000000 0.684769
v -0.050491 0.125833 0.034769
v 0.050491 0.125833 0.034769
v 0.050491 -1.000000 0.684769
v -0.050491 -1.000000 0.684769
v -0.050491 -0.974509 0.728920
v -0.151472 -0.974509 0.728920
v 0.050491 -0.652672 0.700000
v -0.050491 -0.652672 0.700000
v -0.050491 -0.652672 0.900000
v 0.050491 -0.652672 0.900000
v -0.050491 -0.652672 0.700000
v -0.050491 -0.752672 0.700000
v -0.050491 -0.752672 0.900000
v -0.050491 -0.652672 0.900000
v -0.050491 -0.752672 0.700000
v 0.050491 -0.752672 0.700000
v 0.050491 -0.752672 0.900000
v -0.050491 -0.752672 0.900000
v 0.050491 -0.752672 0.700000
v 0.050491 -0.652672 0.700000
v 0.050491 -0.652672 0.900000
v 0.050491 -0.752672 0.900000
v -0.000000 -0.802672 0.900000
v 0.070711 -0.773382 0.900000
v 0.106066 -0.808738 1.000000
v -0.000000 -0.852672 1.000000
v -0.100000 -0.702672 0.900000
v -0.070711 -0.773382 0.900000
v -0.106066 -0.808738 1.000000
v -0.150000 -0.702672 1.000000
v -0.000000 -0.602672 0.900000
v -0.070711 -0.631961 0.900000
v -0.106066 -0.596606 1.000000
v 0.000000 -0.552672 1.000000
v 0.070711 -0.631961 0.900000
v -0.000000 -0.602672 0.900000
v 0.000000 -0.552672 1.000000
v 0.106066 -0.596606 1.000000
v 0.070711 -0.773382 0.900000
v 0.100000 -0.702672 0.900000
v 0.150000 -0.702672 1.000000
v 0.106066 -0.808738 1.000000
v -0.070711 -0.773382 0.900000
v -0.000000 -0.802672 0.900000
v -0.000000 -0.852672 1.000000
v -0.106066 -0.808738 1.000000
v -0.070711 -0.631961 0.900000
v -0.100000 -0.702672 0.900000
v -0.150000 -0.702672 1.000000
v -0.106066 -0.596606 1.000000
v 0.100000 -0.702672 0.900000
v 0.070711 -0.631961 0.900000
v 0.106066 -0.596606 1.000000
v 0.150000 -0.702672 1.000000
v 0.000000 -0.552672 1.000000
v -0.150000 -0.702672 1.000000
v -0.000000 -0.852672 1.000000
v 0.100000 -0.702672 0.900000
v -0.000000 -0.802672 0.900000
v -0.100000 -0.702672 0.900000
v 0.000000 0.112054 0.215929
v 0.247487 0.200833 0.164673
v 0.173241 0.327632 0.235803
v 0.000000 0.265487 0.271682
v -0.000000 0.718272 -0.134071
v -0.000000 0.630772 -0.285625
v -0.247487 0.541994 -0.234369
v -0.247487 0.629494 -0.082815
v -0.247487 0.200833 0.164673
v 0.000000 0.112054 0.215929
v 0.000000 0.265487 0.271682
v -0.173241 0.327632 0.235803
v -0.247487 0.629494 -0.082815
v -0.247487 0.541994 -0.234369
v -0.350000 0.327663 -0.110625
v -0.350000 0.415163 0.040929
v 0.350000 0.415163 0.040929
v 0.247487 0.629494 -0.082814
v 0.173241 0.627694 0.062562
v 0.245000 0.477663 0.149182
v -0.350000 0.415163 0.040929
v -0.350000 0.327663 -0.110625
v -0.247487 0.113333 0.013119
v -0.247487 0.200833 0.164673
v -0.350000 0.415163 0.040929
v -0.247487 0.200833 0.164673
v -0.173241 0.327632 0.235803
v -0.245000 0.477663 0.149182
v -0.247487 0.200833 0.164673
v -0.247487 0.113333 0.013119
v 0.000000 0.024554 0.064375
v 0.000000 0.112054 0.215929
v 0.247487 0.629494 -0.082814
v -0.000000 0.718272 -0.134071
v 0.000000 0.689840 0.026682
v 0.173241 0.627694 0.062562
v 0.000000 0.112054 0.215929
v 0.000000 0.024554 0.064375
v 0.247487 0.113333 0.013119
v 0.247487 0.200833 0.164673
v 0.247487 0.200833 0.164673
v 0.350000 0.415163 0.040929
v 0.245000 0.477663 0.149182
v 0.173241 0.327632 0.235803
v 0.247487 0.200833 0.164673
v 0.247487 0.113333 0.013119
v 0.350000 0.327663 -0.110625
v 0.350000 0.415163 0.040929
v 0.350000 0.327663 -0.110625
v 0.000000 0.024554 0.064375
v -0.350000 0.327663 -0.110625
v 0.173241 0.627694 0.062562
v -0.173241 0.627694 0.062562
v -0.173241 0.327632 0.235803
v 0.350000 0.415163 0.040929
v 0.350000 0.327663 -0.110625
v 0.247487 0.541993 -0.234369
v 0.247487 0.629494 -0.082814
v -0.000000 0.718272 -0.134071
v -0.247487 0.629494 -0.082815
v -0.173241 0.627694 0.062562
v 0.000000 0.689840 0.026682
v 0.247487 0.629494 -0.082814
v 0.247487 0.541993 -0.234369
v -0.000000 0.630772 -0.285625
v -0.000000 0.718272 -0.134071
v -0.247487 0.629494 -0.082815
v -0.350000 0.415163 0.040929
v -0.245000 0.477663 0.149182
v -0.173241 0.627694 0.062562
v 0.150000 -0.702672 1.000000
v 0.106066 -0.596606 1.000000
v 0.000000 -0.552672 1.000000
v 0.000000 -0.552672 1.000000
v -0.106066 -0.596606 1.000000
v -0.150000 -0.702672 1.000000
v -0.150000 -0.702672 1.000000
v -0.106066 -0.808738 1.000000
v -0.000000 -0.852672 1.000000
v -0.000000 -0.852672 1.000000
v 0.106066 -0.808738 1.000000
v 0.150000 -0.702672 1.000000
v 0.150000 -0.702672 1.000000
v 0.000000 -0.552672 1.000000
v -0.000000 -0.852672 1.000000
v -0.000000 -0.602672 0.900000
v 0.070711 -0.631961 0.900000
v 0.100000 -0.702672 0.900000
v 0.100000 -0.702672 0.900000
v 0.070711 -0.773382 0.900000
v -0.000000 -0.802672 0.900000
v -0.000000 -0.802672 0.900000
v -0.070711 -0.773382 0.900000
v -0.100000 -0.702672 0.900000
v -0.100000 -0.702672 0.900000
v -0.070711 -0.631961 0.900000
v -0.000000 -0.602672 0.900000
v -0.000000 -0.602672 0.900000
v 0.100000 -0.702672 0.900000
v -0.100000 -0.702672 0.900000
v -0.350000 0.327663 -0.110625
v -0.247487 0.541994 -0.234369
v -0.000000 0.630772 -0.285625
v -0.000000 0.630772 -0.285625
v 0.247487 0.541993 -0.234369
v 0.350000 0.327663 -0.110625
v 0.350000 0.327663 -0.110625
v 0.247487 0.113333 0.013119
v 0.000000 0.024554 0.064375
v 0.000000 0.024554 0.064375
v -0.247487 0.113333 0.013119
v -0.350000 0.327663 -0.110625
v -0.350000 0.327663 -0.110625
v -0.000000 0.630772 -0.285625
v 0.350000 0.327663 -0.110625
v 0.173241 0.627694 0.062562
v 0.000000 0.689840 0.026682
v -0.173241 0.627694 0.062562
v -0.173241 0.627694 0.062562
v -0.245000 0.477663 0.149182
v -0.173241 0.327632 0.235803
v -0.173241 0.327632 0.235803
v 0.000000 0.265487 0.271682
v 0.173241 0.627694 0.062562
v 0.000000 0.265487 0.271682
v 0.173241 0.327632 0.235803
v 0.173241 0.627694 0.062562
v 0.173241 0.327632 0.235803
v 0.245000 0.477663 0.149182
v 0.173241 0.627694 0.062562

vt 0.966178 0.873200
vt 0.998068 0.873200
vt 0.966178 0.936365
vt 0.871122 0.810034
vt 0.903012 0.746868
vt 0.903012 0.810034
vt 0.813568 0.000390
vt 0.000390 0.071149
vt 0.000390 0.000390
vt 0.813568 0.071148
vt 0.000390 0.071149
vt 0.813568 0.000390
vt 0.998068 0.810034
vt 0.966178 0.810034
vt 0.966178 0.746868
vt 0.000390 0.269019
vt 0.813565 0.332186
vt 0.000390 0.332185
vt 0.813565 0.269019
vt 0.813565 0.332186
vt 0.000390 0.269019
vt 0.000390 0.402945
vt 0.813565 0.332186
vt 0.813565 0.402945
vt 0.000390 0.332185
vt 0.813565 0.332186
vt 0.000390 0.402945
vt 0.903012 0.936365
vt 0.966178 0.873200
vt 0.966178 0.936365
vt 0.903012 0.873200
vt 0.966178 0.873200
vt 0.903012 0.936365
vt 0.813567 0.268240
vt 0.000390 0.205073
vt 0.813568 0.205074
vt 0.000390 0.268238
vt 0.000390 0.205073
vt 0.813567 0.268240
vt 0.813568 0.205074
vt 0.000390 0.134314
vt 0.813567 0.134314
vt 0.000390 0.205073
vt 0.000390 0.134314
vt 0.813568 0.205074
vt 0.000390 0.466111
vt 0.813565 0.536869
vt 0.000390 0.536870
vt 0.813565 0.466110
vt 0.813565 0.536869
vt 0.000390 0.466111
vt 0.903012 0.810034
vt 0.966178 0.746868
vt 0.966178 0.810034
vt 0.903012 0.746868
vt 0.966178 0.746868
vt 0.903012 0.810034
vt 0.903012 0.873200
vt 0.966178 0.810034
vt 0.966178 0.873200
vt 0.903012 0.810034
vt 0.966178 0.810034
vt 0.903012 0.873200
vt 0.966178 0.873200
vt 0.998068 0.810034
vt 0.998068 0.873200
vt 0.966178 0.810034
vt 0.998068 0.810034
vt 0.966178 0.873200
vt 0.000390 0.402945
vt 0.813565 0.466110
vt 0.000390 0.466111
vt 0.813565 0.402945
vt 0.813565 0.466110
vt 0.000390 0.402945
vt 0.871122 0.873200
vt 0.903012 0.810034
vt 0.903012 0.873200
vt 0.871122 0.810034
vt 0.903012 0.810034
vt 0.871122 0.873200
vt 0.813567 0.134314
vt 0.000390 0.071149
vt 0.813568 0.071148
vt 0.000390 0.134314
vt 0.000390 0.071149
vt 0.813567 0.134314
vt 0.903012 0.936365
vt 0.871122 0.873200
vt 0.903012 0.873200
vt 0.251825 0.946706
vt 0.188659 0.821602
vt 0.251825 0.821602
vt 0.188659 0.946706
vt 0.188659 0.821602
vt 0.251825 0.946706
vt 0.062942 0.946706
vt 0.000390 0.821602
vt 0.062942 0.821602
vt 0.000390 0.946706
vt 0.000390 0.821602
vt 0.062942 0.946706
vt 0.126107 0.946706
vt 0.062942 0.821602
vt 0.126107 0.821602
vt 0.062942 0.946706
vt 0.062942 0.821602
vt 0.126107 0.946706
vt 0.188659 0.946706
vt 0.126107 0.821602
vt 0.188659 0.821602
vt 0.126107 0.946706
vt 0.126107 0.821602
vt 0.188659 0.946706
vt 0.632147 0.915211
vt 0.563244 0.975055
vt 0.563244 0.927179
vt 0.632147 0.987023
vt 0.563244 0.975055
vt 0.632147 0.915211
vt 0.492611 0.915211
vt 0.423708 0.975055
vt 0.423708 0.927179
vt 0.492611 0.987023
vt 0.423708 0.975055
vt 0.492611 0.915211
vt 0.999610 0.247132
vt 0.930707 0.306976
vt 0.930707 0.259101
vt 0.999610 0.318945
vt 0.930707 0.306976
vt 0.999610 0.247132
vt 0.422928 0.915211
vt 0.354025 0.975055
vt 0.354025 0.927179
vt 0.422928 0.987023
vt 0.354025 0.975055
vt 0.422928 0.915211
vt 0.702001 0.915210
vt 0.633097 0.975055
vt 0.633097 0.927179
vt 0.702001 0.987023
vt 0.633097 0.975055
vt 0.702001 0.915210
vt 0.562464 0.915211
vt 0.493561 0.975055
vt 0.493561 0.927179
vt 0.562464 0.987023
vt 0.493561 0.975055
vt 0.562464 0.915211
vt 0.999610 0.174540
vt 0.930707 0.234384
vt 0.930707 0.186509
vt 0.999610 0.246353
vt 0.930707 0.234384
vt 0.999610 0.174540
vt 0.353246 0.915211
vt 0.284342 0.975055
vt 0.284342 0.927179
vt 0.353246 0.987023
vt 0.284342 0.975055
vt 0.353246 0.915211
vt 0.865126 0.173761
vt 0.936939 0.000390
vt 0.987718 0.122982
vt 0.896075 0.290121
vt 0.848200 0.174540
vt 0.929928 0.208393
vt 0.839479 0.328430
vt 0.981908 0.427404
vt 0.814344 0.427404
vt 0.956773 0.328430
vt 0.981908 0.427404
vt 0.839479 0.328430
vt 0.870343 0.746868
vt 0.702780 0.856334
vt 0.702780 0.746868
vt 0.870343 0.856334
vt 0.702780 0.856334
vt 0.870343 0.746868
vt 0.814505 0.537649
vt 0.956933 0.636623
vt 0.789370 0.636623
vt 0.931799 0.537649
vt 0.956933 0.636623
vt 0.814505 0.537649
vt 0.451906 0.537649
vt 0.284342 0.647115
vt 0.284342 0.537649
vt 0.451906 0.647115
vt 0.284342 0.647115
vt 0.451906 0.537649
vt 0.493561 0.889297
vt 0.592534 0.746868
vt 0.592534 0.914431
vt 0.493561 0.772002
vt 0.592534 0.746868
vt 0.493561 0.889297
vt 0.492782 0.914431
vt 0.383316 0.746868
vt 0.492782 0.746868
vt 0.383316 0.914431
vt 0.383316 0.746868
vt 0.492782 0.914431
vt 0.284342 0.889297
vt 0.383316 0.746868
vt 0.383316 0.914431
vt 0.284342 0.772003
vt 0.383316 0.746868
vt 0.284342 0.889297
vt 0.789370 0.746089
vt 0.956933 0.636623
vt 0.956933 0.746089
vt 0.789370 0.636623
vt 0.956933 0.636623
vt 0.789370 0.746089
vt 0.477819 0.537649
vt 0.620248 0.636623
vt 0.452685 0.636623
vt 0.595114 0.537649
vt 0.620248 0.636623
vt 0.477819 0.537649
vt 0.814344 0.536870
vt 0.981908 0.427404
vt 0.981908 0.536870
vt 0.814344 0.427404
vt 0.981908 0.427404
vt 0.814344 0.536870
vt 0.646162 0.537649
vt 0.788591 0.636623
vt 0.621027 0.636623
vt 0.763456 0.537649
vt 0.788591 0.636623
vt 0.646162 0.537649
vt 0.621028 0.746089
vt 0.788591 0.636623
vt 0.788591 0.746089
vt 0.621027 0.636623
vt 0.788591 0.636623
vt 0.621028 0.746089
vt 0.200624 0.820823
vt 0.083329 0.537649
vt 0.283563 0.620589
vt 0.702001 0.914431
vt 0.592534 0.746868
vt 0.702001 0.746868
vt 0.592534 0.914431
vt 0.592534 0.746868
vt 0.702001 0.914431
vt 0.845209 0.955308
vt 0.702780 0.856334
vt 0.870343 0.856334
vt 0.727914 0.955308
vt 0.702780 0.856334
vt 0.845209 0.955308
vt 0.452685 0.746089
vt 0.620248 0.636623
vt 0.620248 0.746089
vt 0.452685 0.636623
vt 0.620248 0.636623
vt 0.452685 0.746089
vt 0.426771 0.746089
vt 0.284342 0.647115
vt 0.451906 0.647115
vt 0.309477 0.746089
vt 0.284342 0.647115
vt 0.426771 0.746089
vt 0.936939 0.000390
vt 0.814347 0.051169
vt 0.865126 0.000390
vt 0.987718 0.122982
vt 0.936939 0.000390
vt 0.987718 0.051169
vt 0.865126 0.173761
vt 0.987718 0.122982
vt 0.936939 0.173761
vt 0.814347 0.051169
vt 0.865126 0.173761
vt 0.814347 0.122982
vt 0.865126 0.173761
vt 0.814347 0.051169
vt 0.936939 0.000390
vt 0.848200 0.174540
vt 0.814347 0.256269
vt 0.814347 0.208393
vt 0.929928 0.208393
vt 0.848200 0.174540
vt 0.896075 0.174540
vt 0.896075 0.290121
vt 0.929928 0.208393
vt 0.929928 0.256269
vt 0.814347 0.256269
vt 0.896075 0.290121
vt 0.848200 0.290121
vt 0.896075 0.290121
vt 0.814347 0.256269
vt 0.848200 0.174540
vt 0.283563 0.620589
vt 0.083329 0.537649
vt 0.200624 0.537649
vt 0.200624 0.820823
vt 0.283563 0.620589
vt 0.283563 0.737883
vt 0.083329 0.537649
vt 0.200624 0.820823
vt 0.083329 0.820823
vt 0.083329 0.537649
vt 0.083329 0.820823
vt 0.000390 0.737883
vt 0.083329 0.537649
vt 0.000390 0.737883
vt 0.000390 0.620589
vt 0.707065 0.999900
vt 0.292935 0.000100
vt 0.999900 0.292935
vt 0.000100 0.707065
vt 0.707065 0.999900
vt 0.292934 0.999900
vt 0.292935 0.000100
vt 0.000100 0.707065
vt 0.000100 0.292934
vt 0.999900 0.292935
vt 0.292935 0.000100
vt 0.707066 0.000100
vt 0.707065 0.999900
vt 0.999900 0.292935
vt 0.999900 0.707065
vt 0.292935 0.000100
vt 0.707065 0.999900
vt 0.000100 0.707065

vn -0.000000 -0.866026 0.499999
vn -0.000000 -0.866026 0.499999
vn -0.000000 -0.866026 0.499999
vn -0.000000 -0.866025 0.500000
vn -0.000000 -0.866025 0.500000
vn -0.000000 -0.866025 0.500000
vn -0.450680 -0.446343 -0.773088
vn -0.450680 -0.446343 -0.773088
vn -0.450680 -0.446343 -0.773088
vn -0.450680 -0.446343 -0.773088
vn -0.450680 -0.446343 -0.773088
vn -0.450680 -0.446343 -0.773088
vn -0.000000 -0.866026 0.499999
vn -0.000000 -0.866026 0.499999
vn -0.000000 -0.866026 0.499999
vn -1.000000 0.000000 0.000000
vn -1.000000 0.000000 0.000000
vn -1.000000 0.000000 0.000000
vn -1.000000 0.000000 0.000000
vn -1.000000 0.000000 0.000000
vn -1.000000 0.000000 0.000000
vn -0.450680 0.446343 0.773088
vn -0.450680 0.446343 0.773088
vn -0.450680 0.446343 0.773088
vn -0.450679 0.446343 0.773089
vn -0.450679 0.446343 0.773089
vn -0.450679 0.446343 0.773089
vn -0.000000 -0.866025 0.500000
vn -0.000000 -0.866025 0.500000
vn -0.000000 -0.866025 0.500000
vn -0.000000 -0.866025 0.500000
vn -0.000000 -0.866025 0.500000
vn -0.000000 -0.866025 0.500000
vn 1.000000 0.000000 -0.000000
vn 1.000000 0.000000 -0.000000
vn 1.000000 0.000000 -0.000000
vn 1.000000 0.000000 0.000000
vn 1.000000 0.000000 0.000000
vn 1.000000 0.000000 0.000000
vn 0.450680 -0.446343 -0.773088
vn 0.450680 -0.446343 -0.773088
vn 0.450680 -0.446343 -0.773088
vn 0.450680 -0.446343 -0.773088
vn 0.450680 -0.446343 -0.773088
vn 0.450680 -0.446343 -0.773088
vn 0.450679 0.446343 0.773089
vn 0.450679 0.446343 0.773089
vn 0.450679 0.446343 0.773089
vn 0.450680 0.446343 0.773088
vn 0.450680 0.446343 0.773088
vn 0.450680 0.446343 0.773088
vn -0.000000 -0.866025 0.500000
vn -0.000000 -0.866025 0.500000
vn -0.000000 -0.866025 0.500000
vn -0.000000 -0.866025 0.500000
vn -0.000000 -0.866025 0.500000
vn -0.000000 -0.866025 0.500000
vn -0.000000 -0.866025 0.500000
vn -0.000000 -0.866025 0.500000
vn -0.000000 -0.866025 0.500000
vn -0.000000 -0.866025 0.500000
vn -0.000000 -0.866025 0.500000
vn -0.000000 -0.866025 0.500000
vn -0.000000 -0.866025 0.500000
vn -0.000000 -0.866025 0.500000
vn -0.000000 -0.866025 0.500000
vn -0.000000 -0.866026 0.499999
vn -0.000000 -0.866026 0.499999
vn -0.000000 -0.866026 0.499999
vn -0.000000 0.500000 0.866025
vn -0.000000 0.500000 0.866025
vn -0.000000 0.500000 0.866025
vn -0.000000 0.500000 0.866025
vn -0.000000 0.500000 0.866025
vn -0.000000 0.500000 0.866025
vn -0.000000 -0.866025 0.500000
vn -0.000000 -0.866025 0.500000
vn -0.000000 -0.866025 0.500000
vn -0.000000 -0.866025 0.500000
vn -0.000000 -0.866025 0.500000
vn -0.000000 -0.866025 0.500000
vn -0.000000 -0.500000 -0.866025
vn -0.000000 -0.500000 -0.866025
vn -0.000000 -0.500000 -0.866025
vn -0.000000 -0.500000 -0.866025
vn -0.000000 -0.500000 -0.866025
vn -0.000000 -0.500000 -0.866025
vn -0.000000 -0.866025 0.500000
vn -0.000000 -0.866025 0.500000
vn -0.000000 -0.866025 0.500000
vn -0.000000 1.000000 0.000000
vn -0.000000 1.000000 0.000000
vn -0.000000 1.000000 0.000000
vn -0.000000 1.000000 0.000000
vn -0.000000 1.000000 0.000000
vn -0.000000 1.000000 0.000000
vn -1.000000 0.000000 0.000000
vn -1.000000 0.000000 0.000000
vn -1.000000 0.000000 0.000000
vn -1.000000 0.000000 0.000000
vn -1.000000 0.000000 0.000000
vn -1.000000 0.000000 0.000000
vn -0.000000 -1.000000 0.000000
vn -0.000000 -1.000000 0.000000
vn -0.000000 -1.000000 0.000000
vn -0.000000 -1.000000 0.000000
vn -0.000000 -1.000000 0.000000
vn -0.000000 -1.000000 0.000000
vn 1.000000 0.000000 0.000000
vn 1.000000 0.000000 0.000000
vn 1.000000 0.000000 0.000000
vn 1.000000 0.000000 0.000000
vn 1.000000 0.000000 0.000000
vn 1.000000 0.000000 0.000000
vn 0.347409 -0.838717 -0.419358
vn 0.347409 -0.838717 -0.419358
vn 0.347409 -0.838717 -0.419358
vn 0.347408 -0.838717 -0.419358
vn 0.347408 -0.838717 -0.419358
vn 0.347408 -0.838717 -0.419358
vn -0.838717 -0.347408 -0.419358
vn -0.838717 -0.347408 -0.419358
vn -0.838717 -0.347408 -0.419358
vn -0.838717 -0.347408 -0.419358
vn -0.838717 -0.347408 -0.419358
vn -0.838717 -0.347408 -0.419358
vn -0.347408 0.838717 -0.419358
vn -0.347408 0.838717 -0.419358
vn -0.347408 0.838717 -0.419358
vn -0.347408 0.838717 -0.419358
vn -0.347408 0.838717 -0.419358
vn -0.347408 0.838717 -0.419358
vn 0.347408 0.838717 -0.419358
vn 0.347408 0.838717 -0.419358
vn 0.347408 0.838717 -0.419358
vn 0.347408 0.838717 -0.419358
vn 0.347408 0.838717 -0.419358
vn 0.347408 0.838717 -0.419358
vn 0.838717 -0.347409 -0.419358
vn 0.838717 -0.347409 -0.419358
vn 0.838717 -0.347409 -0.419358
vn 0.838717 -0.347408 -0.419358
vn 0.838717 -0.347408 -0.419358
vn 0.838717 -0.347408 -0.419358
vn -0.347410 -0.838716 -0.419359
vn -0.347410 -0.838716 -0.419359
vn -0.347410 -0.838716 -0.419359
vn -0.347408 -0.838717 -0.419358
vn -0.347408 -0.838717 -0.419358
vn -0.347408 -0.838717 -0.419358
vn -0.838717 0.347409 -0.419358
vn -0.838717 0.347409 -0.419358
vn -0.838717 0.347409 -0.419358
vn -0.838717 0.347407 -0.419358
vn -0.838717 0.347407 -0.419358
vn -0.838717 0.347407 -0.419358
vn 0.838717 0.347408 -0.419358
vn 0.838717 0.347408 -0.419358
vn 0.838717 0.347408 -0.419358
vn 0.838717 0.347408 -0.419358
vn 0.838717 0.347408 -0.419358
vn 0.838717 0.347408 -0.419358
vn -0.000000 0.000000 1.000000
vn -0.000000 0.000000 1.000000
vn -0.000000 0.000000 1.000000
vn -0.000000 0.000000 -1.000000
vn -0.000000 0.000000 -1.000000
vn -0.000000 0.000000 -1.000000
vn 0.302323 -0.325542 0.895892
vn 0.302323 -0.325542 0.895892
vn 0.302323 -0.325542 0.895892
vn 0.302323 -0.325542 0.895892
vn 0.302323 -0.325542 0.895892
vn 0.302323 -0.325542 0.895892
vn -0.382683 0.800103 -0.461940
vn -0.382683 0.800103 -0.461940
vn -0.382683 0.800103 -0.461940
vn -0.382683 0.800103 -0.461940
vn -0.382683 0.800103 -0.461940
vn -0.382683 0.800103 -0.461940
vn -0.302323 -0.325542 0.895892
vn -0.302323 -0.325542 0.895892
vn -0.302323 -0.325542 0.895892
vn -0.302323 -0.325542 0.895892
vn -0.302323 -0.325542 0.895892
vn -0.302323 -0.325542 0.895892
vn -0.923880 0.331413 -0.191342
vn -0.923880 0.331413 -0.191342
vn -0.923880 0.331413 -0.191342
vn -0.923880 0.331413 -0.191342
vn -0.923880 0.331413 -0.191342
vn -0.923880 0.331413 -0.191342
vn 0.729874 0.568367 0.379793
vn 0.729874 0.568367 0.379793
vn 0.729874 0.568367 0.379793
vn 0.729874 0.568367 0.379794
vn 0.729874 0.568367 0.379794
vn 0.729874 0.568367 0.379794
vn -0.923880 -0.331413 0.191342
vn -0.923880 -0.331413 0.191342
vn -0.923880 -0.331413 0.191342
vn -0.923880 -0.331413 0.191341
vn -0.923880 -0.331413 0.191341
vn -0.923880 -0.331413 0.191341
vn -0.729874 0.044727 0.682117
vn -0.729874 0.044727 0.682117
vn -0.729874 0.044727 0.682117
vn -0.729873 0.044728 0.682118
vn -0.729873 0.044728 0.682118
vn -0.729873 0.044728 0.682118
vn -0.382683 -0.800103 0.461940
vn -0.382683 -0.800103 0.461940
vn -0.382683 -0.800103 0.461940
vn -0.382683 -0.800103 0.461940
vn -0.382683 -0.800103 0.461940
vn -0.382683 -0.800103 0.461940
vn 0.302324 0.938637 0.166018
vn 0.302324 0.938637 0.166018
vn 0.302324 0.938637 0.166018
vn 0.302324 0.938636 0.166018
vn 0.302324 0.938636 0.166018
vn 0.302324 0.938636 0.166018
vn 0.382683 -0.800103 0.461940
vn 0.382683 -0.800103 0.461940
vn 0.382683 -0.800103 0.461940
vn 0.382683 -0.800103 0.461940
vn 0.382683 -0.800103 0.461940
vn 0.382683 -0.800103 0.461940
vn 0.729873 0.044727 0.682117
vn 0.729873 0.044727 0.682117
vn 0.729873 0.044727 0.682117
vn 0.729874 0.044727 0.682116
vn 0.729874 0.044727 0.682116
vn 0.729874 0.044727 0.682116
vn 0.923880 -0.331414 0.191342
vn 0.923880 -0.331414 0.191342
vn 0.923880 -0.331414 0.191342
vn 0.923880 -0.331413 0.191342
vn 0.923880 -0.331413 0.191342
vn 0.923880 -0.331413 0.191342
vn -0.000000 0.500000 0.866025
vn -0.000000 0.500000 0.866025
vn -0.000000 0.500000 0.866025
vn 0.923880 0.331413 -0.191342
vn 0.923880 0.331413 -0.191342
vn 0.923880 0.331413 -0.191342
vn 0.923880 0.331413 -0.191342
vn 0.923880 0.331413 -0.191342
vn 0.923880 0.331413 -0.191342
vn -0.302324 0.938636 0.166018
vn -0.302324 0.938636 0.166018
vn -0.302324 0.938636 0.166018
vn -0.302324 0.938636 0.166018
vn -0.302324 0.938636 0.166018
vn -0.302324 0.938636 0.166018
vn 0.382683 0.800103 -0.461940
vn 0.382683 0.800103 -0.461940
vn 0.382683 0.800103 -0.461940
vn 0.382684 0.800102 -0.461940
vn 0.382684 0.800102 -0.461940
vn 0.382684 0.800102 -0.461940
vn -0.729873 0.568368 0.379793
vn -0.729873 0.568368 0.379793
vn -0.729873 0.568368 0.379793
vn -0.729875 0.568366 0.379793
vn -0.729875 0.568366 0.379793
vn -0.729875 0.568366 0.379793
vn -0.000000 -0.000001 1.000000
vn -0.000000 -0.000001 1.000000
vn -0.000000 -0.000001 1.000000
vn -0.000000 0.000000 1.000000
vn -0.000000 0.000000 1.000000
vn -0.000000 0.000000 1.000000
vn -0.000000 0.000001 1.000000
vn -0.000000 0.000001 1.000000
vn -0.000000 0.000001 1.000000
vn -0.000000 0.000002 1.000000
vn -0.000000 0.000002 1.000000
vn -0.000000 0.000002 1.000000
vn -0.000000 0.000000 1.000000
vn -0.000000 0.000000 1.000000
vn -0.000000 0.000000 1.000000
vn -0.000000 0.000000 -1.000000
vn -0.000000 0.000000 -1.000000
vn -0.000000 0.000000 -1.000000
vn -0.000000 0.000001 -1.000000
vn -0.000000 0.000001 -1.000000
vn -0.000000 0.000001 -1.000000
vn -0.000000 -0.000004 -1.000000
vn -0.000000 -0.000004 -1.000000
vn -0.000000 -0.000004 -1.000000
vn -0.000000 -0.000001 -1.000000
vn -0.000000 -0.000001 -1.000000
vn -0.000000 -0.000001 -1.000000
vn -0.000000 0.000000 -1.000000
vn -0.000000 0.000000 -1.000000
vn -0.000000 0.000000 -1.000000
vn -0.000000 0.500000 0.866025
vn -0.000000 0.500000 0.866025
vn -0.000000 0.500000 0.866025
vn -0.000002 0.500000 0.866025
vn -0.000002 0.500000 0.866025
vn -0.000002 0.500000 0.866025
vn -0.000000 0.500000 0.866025
vn -0.000000 0.500000 0.866025
vn -0.000000 0.500000 0.866025
vn 0.000000 0.500000 0.866026
vn 0.000000 0.500000 0.866026
vn 0.000000 0.500000 0.866026
vn 0.000002 0.500000 0.866026
vn 0.000002 0.500000 0.866026
vn 0.000002 0.500000 0.866026
vn -0.000000 -0.500000 -0.866025
vn -0.000000 -0.500000 -0.866025
vn -0.000000 -0.500000 -0.866025
vn -0.000000 -0.500000 -0.866026
vn -0.000000 -0.500000 -0.866026
vn -0.000000 -0.500000 -0.866026
vn -0.000000 -0.500000 -0.866026
vn -0.000000 -0.500000 -0.866026
vn -0.000000 -0.500000 -0.866026
vn -0.000000 -0.500000 -0.866025
vn -0.000000 -0.500000 -0.866025
vn -0.000000 -0.500000 -0.866025
vn 0.000000 -0.500000 -0.866025
vn 0.000000 -0.500000 -0.866025
vn 0.000000 -0.500000 -0.866025
vn -0.000000 -0.500000 -0.866025
vn -0.000000 -0.500000 -0.866025
vn -0.000000 -0.500000 -0.866025

g Material
f 3/1/1 1/2/2 2/3/3
f 6/4/4 4/5/5 5/6/6
f 9/7/7 7/8/8 8/9/9
f 10/10/10 7/11/11 9/12/12
f 13/13/13 11/14/14 12/15/15
f 16/16/16 14/17/17 15/18/18
f 17/19/19 14/20/20 16/21/21
f 20/22/22 18/23/23 19/24/24
f 21/25/25 18/26/26 20/27/27
f 24/28/28 22/29/29 23/30/30
f 25/31/31 22/32/32 24/33/33
f 28/34/34 26/35/35 27/36/36
f 29/37/37 26/38/38 28/39/39
f 32/40/40 30/41/41 31/42/42
f 33/43/43 30/44/44 32/45/45
f 36/46/46 34/47/47 35/48/48
f 37/49/49 34/50/50 36/51/51
f 40/52/52 38/53/53 39/54/54
f 41/55/55 38/56/56 40/57/57
f 44/58/58 42/59/59 43/60/60
f 45/61/61 42/62/62 44/63/63
f 48/64/64 46/65/65 47/66/66
f 49/67/67 46/68/68 48/69/69
f 52/70/70 50/71/71 51/72/72
f 53/73/73 50/74/74 52/75/75
f 56/76/76 54/77/77 55/78/78
f 57/79/79 54/80/80 56/81/81
f 60/82/82 58/83/83 59/84/84
f 61/85/85 58/86/86 60/87/87
f 64/88/88 62/89/89 63/90/90
f 67/91/91 65/92/92 66/93/93
f 68/94/94 65/95/95 67/96/96
f 71/97/97 69/98/98 70/99/99
f 72/100/100 69/101/101 71/102/102
f 75/103/103 73/104/104 74/105/105
f 76/106/106 73/107/107 75/108/108
f 79/109/109 77/110/110 78/111/111
f 80/112/112 77/113/113 79/114/114
f 83/115/115 81/116/116 82/117/117
f 84/118/118 81/119/119 83/120/120
f 87/121/121 85/122/122 86/123/123
f 88/124/124 85/125/125 87/126/126
f 91/127/127 89/128/128 90/129/129
f 92/130/130 89/131/131 91/132/132
f 95/133/133 93/134/134 94/135/135
f 96/136/136 93/137/137 95/138/138
f 99/139/139 97/140/140 98/141/141
f 100/142/142 97/143/143 99/144/144
f 103/145/145 101/146/146 102/147/147
f 104/148/148 101/149/149 103/150/150
f 107/151/151 105/152/152 106/153/153
f 108/154/154 105/155/155 107/156/156
f 111/157/157 109/158/158 110/159/159
f 112/160/160 109/161/161 111/162/162
f 115/163/163 113/164/164 114/165/165
f 118/166/166 116/167/167 117/168/168
f 121/169/169 119/170/170 120/171/171
f 122/172/172 119/173/173 121/174/174
f 125/175/175 123/176/176 124/177/177
f 126/178/178 123/179/179 125/180/180
f 129/181/181 127/182/182 128/183/183
f 130/184/184 127/185/185 129/186/186
f 133/187/187 131/188/188 132/189/189
f 134/190/190 131/191/191 133/192/192
f 137/193/193 135/194/194 136/195/195
f 138/196/196 135/197/197 137/198/198
f 141/199/199 139/200/200 140/201/201
f 142/202/202 139/203/203 141/204/204
f 145/205/205 143/206/206 144/207/207
f 146/208/208 143/209/209 145/210/210
f 149/211/211 147/212/212 148/213/213
f 150/214/214 147/215/215 149/216/216
f 153/217/217 151/218/218 152/219/219
f 154/220/220 151/221/221 153/222/222
f 157/223/223 155/224/224 156/225/225
f 158/226/226 155/227/227 157/228/228
f 161/229/229 159/230/230 160/231/231
f 162/232/232 159/233/233 161/234/234
f 165/235/235 163/236/236 164/237/237
f 166/238/238 163/239/239 165/240/240
f 172/241/241 170/242/242 171/243/243
f 175/244/244 173/245/245 174/246/246
f 176/247/247 173/248/248 175/249/249
f 179/250/250 177/251/251 178/252/252
f 180/253/253 177/254/254 179/255/255
f 183/256/256 181/257/257 182/258/258
f 184/259/259 181/260/260 183/261/261
f 187/262/262 185/263/263 186/264/264
f 188/265/265 185/266/266 187/267/267
f 191/268/268 189/269/269 190/270/270
f 194/271/271 192/272/272 193/273/273
f 197/274/274 195/275/275 196/276/276
f 200/277/277 198/278/278 199/279/279
f 203/280/280 201/281/281 202/282/282
f 206/283/283 204/284/284 205/285/285
f 209/286/286 207/287/287 208/288/288
f 212/289/289 210/290/290 211/291/291
f 215/292/292 213/293/293 214/294/294
f 218/295/295 216/296/296 217/297/297
f 236/298/298 234/299/299 235/300/300
f 239/301/301 237/302/302 238/303/303
f 242/304/304 240/305/305 241/306/306
f 245/307/307 243/308/308 244/309/309
f 248/310/310 246/311/311 247/312/312

g Material.001
f 169/313/313 167/314/314 168/315/315
f 221/316/316 219/317/317 220/318/318
f 224/319/319 222/320/320 223/321/321
f 227/322/322 225/323/323 226/324/324
f 230/325/325 228/326/326 229/327/327
f 233/328/328 231/329/329 232/330/330

