# Converted from B3D for Luanti (With Correct Normals)
# Object Name: multidecor_microwave_door

v -0.000000 -0.500000 0.000000
v 1.250000 -0.500000 -0.000000
v 1.250000 -0.500000 0.150000
v 0.000000 -0.500000 0.150000
v -0.000000 0.500000 0.000000
v -0.000000 -0.500000 0.000000
v 0.000000 -0.500000 0.150000
v 0.000000 0.500000 0.150000
v 1.250000 -0.500000 -0.000000
v 1.250000 0.500000 -0.000000
v 1.250000 0.500000 0.150000
v 1.250000 -0.500000 0.150000
v 1.250000 0.500000 -0.000000
v -0.000000 0.500000 0.000000
v 0.000000 0.500000 0.150000
v 1.250000 0.500000 0.150000
v 1.250000 -0.500000 0.150000
v 1.250000 0.500000 0.150000
v 1.093750 0.375000 0.150000
v 1.093750 -0.375000 0.150000
v 1.250000 0.500000 0.150000
v 0.000000 0.500000 0.150000
v 0.156250 0.375000 0.150000
v 1.093750 0.375000 0.150000
v 1.250000 0.500000 -0.000000
v 1.250000 -0.500000 -0.000000
v 1.093750 -0.375000 -0.000000
v 1.093750 0.375000 -0.000000
v -0.000000 0.500000 0.000000
v 1.250000 0.500000 -0.000000
v 1.093750 0.375000 -0.000000
v 0.156250 0.375000 -0.000000
v 0.000000 -0.500000 0.150000
v 1.250000 -0.500000 0.150000
v 1.093750 -0.375000 0.150000
v 0.156250 -0.375000 0.150000
v 0.000000 0.500000 0.150000
v 0.000000 -0.500000 0.150000
v 0.156250 -0.375000 0.150000
v 0.156250 0.375000 0.150000
v 1.250000 -0.500000 -0.000000
v -0.000000 -0.500000 0.000000
v 0.156250 -0.375000 -0.000000
v 1.093750 -0.375000 -0.000000
v -0.000000 -0.500000 0.000000
v -0.000000 0.500000 0.000000
v 0.156250 0.375000 -0.000000
v 0.156250 -0.375000 -0.000000
v 0.156250 0.375000 0.075000
v 0.156250 0.375000 0.150000
v 0.156250 -0.375000 0.150000
v 0.156250 -0.375000 0.075000
v 0.156250 0.375000 0.075000
v 1.093750 0.375000 0.075000
v 1.093750 0.375000 0.150000
v 0.156250 0.375000 0.150000
v 1.093750 -0.375000 0.075000
v 1.093750 -0.375000 0.150000
v 1.093750 0.375000 0.150000
v 1.093750 0.375000 0.075000
v 1.093750 -0.375000 0.075000
v 0.156250 -0.375000 0.075000
v 0.156250 -0.375000 0.150000
v 1.093750 -0.375000 0.150000
v 1.093750 -0.375000 -0.000000
v 0.156250 -0.375000 -0.000000
v 0.156250 -0.375000 0.075000
v 1.093750 -0.375000 0.075000
v 1.093750 -0.375000 -0.000000
v 1.093750 -0.375000 0.075000
v 1.093750 0.375000 0.075000
v 1.093750 0.375000 -0.000000
v 0.156250 0.375000 -0.000000
v 1.093750 0.375000 -0.000000
v 1.093750 0.375000 0.075000
v 0.156250 0.375000 0.075000
v 0.156250 0.375000 -0.000000
v 0.156250 0.375000 0.075000
v 0.156250 -0.375000 0.075000
v 0.156250 -0.375000 -0.000000
v 1.093750 -0.375000 0.075000
v 0.156250 -0.375000 0.075000
v 0.156250 0.375000 0.075000
v 1.093750 0.375000 0.075000

vt 0.095321 0.951856
vt 0.166667 0.357308
vt 0.166667 0.951856
vt 0.095321 0.357308
vt 0.166667 0.357308
vt 0.095321 0.951856
vt 0.194592 0.094770
vt 0.123246 0.570408
vt 0.123246 0.094770
vt 0.194592 0.570408
vt 0.123246 0.570408
vt 0.194592 0.094770
vt 0.231612 0.000193
vt 0.160267 0.475832
vt 0.160267 0.000193
vt 0.231612 0.475832
vt 0.160267 0.475832
vt 0.231612 0.000193
vt 0.267261 0.340037
vt 0.195915 0.934585
vt 0.195915 0.340037
vt 0.267261 0.934585
vt 0.195915 0.934585
vt 0.267261 0.340037
vt 0.305931 0.059648
vt 0.231612 0.475832
vt 0.231612 0.000193
vt 0.305931 0.416377
vt 0.231612 0.475832
vt 0.305931 0.059648
vt 0.326716 0.414356
vt 0.267261 0.934585
vt 0.267261 0.340037
vt 0.326716 0.860267
vt 0.267261 0.934585
vt 0.326716 0.414356
vt 0.085948 0.416377
vt 0.160267 0.000193
vt 0.160267 0.475832
vt 0.085948 0.059648
vt 0.160267 0.000193
vt 0.085948 0.416377
vt 0.136460 0.860266
vt 0.195915 0.340037
vt 0.195915 0.934585
vt 0.136460 0.414355
vt 0.195915 0.340037
vt 0.136460 0.860266
vt 0.035866 0.877538
vt 0.095321 0.357308
vt 0.095321 0.951856
vt 0.035866 0.431627
vt 0.095321 0.357308
vt 0.035866 0.877538
vt 0.268911 0.154224
vt 0.194592 0.570408
vt 0.194592 0.094770
vt 0.268910 0.510953
vt 0.194592 0.570408
vt 0.268911 0.154224
vt 0.226121 0.431627
vt 0.166667 0.951856
vt 0.166667 0.357308
vt 0.226122 0.877538
vt 0.166667 0.951856
vt 0.226121 0.431627
vt 0.048928 0.510953
vt 0.123246 0.094770
vt 0.123246 0.570408
vt 0.048928 0.154224
vt 0.123246 0.094770
vt 0.048928 0.510953
vt 0.268911 0.154224
vt 0.304583 0.510953
vt 0.268910 0.510953
vt 0.304583 0.154224
vt 0.304583 0.510953
vt 0.268911 0.154224
vt 0.326716 0.860267
vt 0.362389 0.414356
vt 0.362389 0.860267
vt 0.326716 0.414356
vt 0.362389 0.414356
vt 0.326716 0.860267
vt 0.305931 0.059648
vt 0.341604 0.416377
vt 0.305931 0.416377
vt 0.341604 0.059648
vt 0.341604 0.416377
vt 0.305931 0.059648
vt 0.035866 0.431627
vt 0.000193 0.877538
vt 0.000193 0.431627
vt 0.035866 0.877538
vt 0.000193 0.877538
vt 0.035866 0.431627
vt 0.261794 0.431627
vt 0.226122 0.877538
vt 0.226121 0.431627
vt 0.261794 0.877538
vt 0.226122 0.877538
vt 0.261794 0.431627
vt 0.050275 0.059648
vt 0.085948 0.416377
vt 0.050275 0.416377
vt 0.085948 0.059648
vt 0.085948 0.416377
vt 0.050275 0.059648
vt 0.100787 0.860266
vt 0.136460 0.414355
vt 0.136460 0.860266
vt 0.100787 0.414355
vt 0.136460 0.414355
vt 0.100787 0.860266
vt 0.013255 0.154224
vt 0.048928 0.510953
vt 0.013255 0.510953
vt 0.048928 0.154224
vt 0.048928 0.510953
vt 0.013255 0.154224
vt 0.999910 0.799946
vt 0.000090 0.000089
vt 0.999911 0.000090
vt 0.000089 0.799946
vt 0.000090 0.000089
vt 0.999910 0.799946

vn 0.000000 -1.000000 0.000000
vn 0.000000 -1.000000 0.000000
vn 0.000000 -1.000000 0.000000
vn -0.000000 -1.000000 0.000000
vn -0.000000 -1.000000 0.000000
vn -0.000000 -1.000000 0.000000
vn -1.000000 0.000000 0.000000
vn -1.000000 0.000000 0.000000
vn -1.000000 0.000000 0.000000
vn -1.000000 0.000000 0.000000
vn -1.000000 0.000000 0.000000
vn -1.000000 0.000000 0.000000
vn 1.000000 0.000000 0.000000
vn 1.000000 0.000000 0.000000
vn 1.000000 0.000000 0.000000
vn 1.000000 0.000000 0.000000
vn 1.000000 0.000000 0.000000
vn 1.000000 0.000000 0.000000
vn 0.000000 1.000000 0.000000
vn 0.000000 1.000000 0.000000
vn 0.000000 1.000000 0.000000
vn -0.000000 1.000000 0.000000
vn -0.000000 1.000000 0.000000
vn -0.000000 1.000000 0.000000
vn 0.000000 0.000000 1.000000
vn 0.000000 0.000000 1.000000
vn 0.000000 0.000000 1.000000
vn 0.000000 0.000000 1.000000
vn 0.000000 0.000000 1.000000
vn 0.000000 0.000000 1.000000
vn 0.000000 0.000000 1.000000
vn 0.000000 0.000000 1.000000
vn 0.000000 0.000000 1.000000
vn 0.000000 -0.000000 1.000000
vn 0.000000 -0.000000 1.000000
vn 0.000000 -0.000000 1.000000
vn -0.000000 0.000000 -1.000000
vn -0.000000 0.000000 -1.000000
vn -0.000000 0.000000 -1.000000
vn -0.000000 0.000000 -1.000000
vn -0.000000 0.000000 -1.000000
vn -0.000000 0.000000 -1.000000
vn -0.000000 0.000000 -1.000000
vn -0.000000 0.000000 -1.000000
vn -0.000000 0.000000 -1.000000
vn -0.000000 0.000000 -1.000000
vn -0.000000 0.000000 -1.000000
vn -0.000000 0.000000 -1.000000
vn 0.000000 0.000000 1.000000
vn 0.000000 0.000000 1.000000
vn 0.000000 0.000000 1.000000
vn 0.000000 0.000000 1.000000
vn 0.000000 0.000000 1.000000
vn 0.000000 0.000000 1.000000
vn 0.000000 0.000000 1.000000
vn 0.000000 0.000000 1.000000
vn 0.000000 0.000000 1.000000
vn 0.000000 0.000000 1.000000
vn 0.000000 0.000000 1.000000
vn 0.000000 0.000000 1.000000
vn -0.000000 -0.000000 -1.000000
vn -0.000000 -0.000000 -1.000000
vn -0.000000 -0.000000 -1.000000
vn -0.000000 0.000000 -1.000000
vn -0.000000 0.000000 -1.000000
vn -0.000000 0.000000 -1.000000
vn -0.000000 0.000000 -1.000000
vn -0.000000 0.000000 -1.000000
vn -0.000000 0.000000 -1.000000
vn -0.000000 0.000000 -1.000000
vn -0.000000 0.000000 -1.000000
vn -0.000000 0.000000 -1.000000
vn 1.000000 0.000000 -0.000000
vn 1.000000 0.000000 -0.000000
vn 1.000000 0.000000 -0.000000
vn 1.000000 0.000000 0.000000
vn 1.000000 0.000000 0.000000
vn 1.000000 0.000000 0.000000
vn 0.000000 -1.000000 0.000000
vn 0.000000 -1.000000 0.000000
vn 0.000000 -1.000000 0.000000
vn -0.000000 -1.000000 0.000000
vn -0.000000 -1.000000 0.000000
vn -0.000000 -1.000000 0.000000
vn -1.000000 0.000000 0.000000
vn -1.000000 0.000000 0.000000
vn -1.000000 0.000000 0.000000
vn -1.000000 0.000000 0.000000
vn -1.000000 0.000000 0.000000
vn -1.000000 0.000000 0.000000
vn -0.000000 1.000000 0.000000
vn -0.000000 1.000000 0.000000
vn -0.000000 1.000000 0.000000
vn -0.000000 1.000000 0.000000
vn -0.000000 1.000000 0.000000
vn -0.000000 1.000000 0.000000
vn 0.000000 1.000000 0.000000
vn 0.000000 1.000000 0.000000
vn 0.000000 1.000000 0.000000
vn -0.000000 1.000000 0.000000
vn -0.000000 1.000000 0.000000
vn -0.000000 1.000000 0.000000
vn -1.000000 0.000000 0.000000
vn -1.000000 0.000000 0.000000
vn -1.000000 0.000000 0.000000
vn -1.000000 0.000000 0.000000
vn -1.000000 0.000000 0.000000
vn -1.000000 0.000000 0.000000
vn 0.000000 -1.000000 0.000000
vn 0.000000 -1.000000 0.000000
vn 0.000000 -1.000000 0.000000
vn -0.000000 -1.000000 0.000000
vn -0.000000 -1.000000 0.000000
vn -0.000000 -1.000000 0.000000
vn 1.000000 0.000000 -0.000000
vn 1.000000 0.000000 -0.000000
vn 1.000000 0.000000 -0.000000
vn 1.000000 0.000000 -0.000001
vn 1.000000 0.000000 -0.000001
vn 1.000000 0.000000 -0.000001
vn -0.000000 0.000000 -1.000000
vn -0.000000 0.000000 -1.000000
vn -0.000000 0.000000 -1.000000
vn -0.000000 0.000000 -1.000000
vn -0.000000 0.000000 -1.000000
vn -0.000000 0.000000 -1.000000

g Material.002
f 3/1/1 1/2/2 2/3/3
f 4/4/4 1/5/5 3/6/6
f 7/7/7 5/8/8 6/9/9
f 8/10/10 5/11/11 7/12/12
f 11/13/13 9/14/14 10/15/15
f 12/16/16 9/17/17 11/18/18
f 15/19/19 13/20/20 14/21/21
f 16/22/22 13/23/23 15/24/24
f 19/25/25 17/26/26 18/27/27
f 20/28/28 17/29/29 19/30/30
f 23/31/31 21/32/32 22/33/33
f 24/34/34 21/35/35 23/36/36
f 27/37/37 25/38/38 26/39/39
f 28/40/40 25/41/41 27/42/42
f 31/43/43 29/44/44 30/45/45
f 32/46/46 29/47/47 31/48/48
f 35/49/49 33/50/50 34/51/51
f 36/52/52 33/53/53 35/54/54
f 39/55/55 37/56/56 38/57/57
f 40/58/58 37/59/59 39/60/60
f 43/61/61 41/62/62 42/63/63
f 44/64/64 41/65/65 43/66/66
f 47/67/67 45/68/68 46/69/69
f 48/70/70 45/71/71 47/72/72
f 51/73/73 49/74/74 50/75/75
f 52/76/76 49/77/77 51/78/78
f 55/79/79 53/80/80 54/81/81
f 56/82/82 53/83/83 55/84/84
f 59/85/85 57/86/86 58/87/87
f 60/88/88 57/89/89 59/90/90
f 63/91/91 61/92/92 62/93/93
f 64/94/94 61/95/95 63/96/96
f 67/97/97 65/98/98 66/99/99
f 68/100/100 65/101/101 67/102/102
f 71/103/103 69/104/104 70/105/105
f 72/106/106 69/107/107 71/108/108
f 75/109/109 73/110/110 74/111/111
f 76/112/112 73/113/113 75/114/114
f 79/115/115 77/116/116 78/117/117
f 80/118/118 77/119/119 79/120/120

g Material.001
f 83/121/121 81/122/122 82/123/123
f 84/124/124 81/125/125 83/126/126

