# Converted from B3D for Luanti (With Correct Normals)
# Object Name: multidecor_porcelain_cup

v -0.327241 -0.560408 0.000000
v -0.320376 -0.576389 0.009222
v -0.320376 -0.576389 0.056250
v -0.320376 -0.576389 0.056250
v -0.320376 -0.576389 0.009222
v -0.309528 -0.578033 0.056250
v -0.345918 -0.516933 0.056250
v -0.320376 -0.576389 0.056250
v -0.309528 -0.578033 0.056250
v -0.321244 -0.507736 0.056250
v -0.320376 -0.576389 -0.056250
v -0.345918 -0.516933 -0.056250
v -0.321244 -0.507736 -0.056250
v -0.309528 -0.578033 -0.056250
v -0.391599 -0.461407 -0.056250
v -0.391599 -0.461407 0.056250
v -0.447300 -0.419469 0.056250
v -0.447300 -0.419469 -0.056250
v -0.334051 -0.430894 0.056250
v -0.341092 -0.422291 0.056250
v -0.391599 -0.461407 0.056250
v -0.345918 -0.516933 -0.056250
v -0.345918 -0.516933 0.056250
v -0.391599 -0.461407 0.056250
v -0.391599 -0.461407 -0.056250
v -0.409649 -0.371298 -0.056250
v -0.447300 -0.419469 -0.056250
v -0.501239 -0.403943 -0.056250
v -0.501536 -0.349364 -0.056250
v -0.409649 -0.371298 -0.056250
v -0.409649 -0.371298 0.056250
v -0.361289 -0.407269 0.000000
v -0.341093 -0.422291 -0.056250
v -0.391599 -0.461407 -0.056250
v -0.447300 -0.419469 -0.056250
v -0.409649 -0.371298 -0.056250
v -0.391599 -0.461407 0.056250
v -0.341092 -0.422291 0.056250
v -0.409649 -0.371298 0.056250
v -0.447300 -0.419469 0.056250
v -0.501536 -0.349364 -0.056250
v -0.501239 -0.403943 -0.056250
v -0.536912 -0.429371 -0.056250
v -0.587531 -0.404949 -0.056250
v -0.447300 -0.419469 0.056250
v -0.409649 -0.371298 0.056250
v -0.501536 -0.349364 0.056250
v -0.501239 -0.403943 0.056250
v -0.447300 -0.419469 -0.056250
v -0.447300 -0.419469 0.056250
v -0.501239 -0.403943 0.056250
v -0.501239 -0.403943 -0.056250
v -0.409649 -0.371298 0.056250
v -0.409649 -0.371298 -0.056250
v -0.501536 -0.349364 -0.056250
v -0.501536 -0.349364 0.056250
v -0.536912 -0.429371 -0.056250
v -0.536912 -0.429371 0.056250
v -0.556409 -0.489850 0.056250
v -0.556409 -0.489850 -0.056250
v -0.501239 -0.403943 0.056250
v -0.501536 -0.349364 0.056250
v -0.587531 -0.404949 0.056250
v -0.536912 -0.429371 0.056250
v -0.501239 -0.403943 -0.056250
v -0.501239 -0.403943 0.056250
v -0.536912 -0.429371 0.056250
v -0.536912 -0.429371 -0.056250
v -0.501536 -0.349364 0.056250
v -0.501536 -0.349364 -0.056250
v -0.587531 -0.404949 -0.056250
v -0.587531 -0.404949 0.056250
v -0.617103 -0.489496 -0.056250
v -0.556409 -0.489850 -0.056250
v -0.558038 -0.558927 -0.056250
v -0.618898 -0.575215 -0.056250
v -0.587531 -0.404949 0.056250
v -0.587531 -0.404949 -0.056250
v -0.617103 -0.489496 -0.056250
v -0.617103 -0.489496 0.056250
v -0.587531 -0.404949 -0.056250
v -0.536912 -0.429371 -0.056250
v -0.556409 -0.489850 -0.056250
v -0.617103 -0.489496 -0.056250
v -0.536912 -0.429371 0.056250
v -0.587531 -0.404949 0.056250
v -0.617103 -0.489496 0.056250
v -0.556409 -0.489850 0.056250
v -0.558038 -0.558927 0.056250
v -0.618898 -0.575215 0.056250
v -0.594643 -0.657134 0.056250
v -0.538138 -0.625974 0.056250
v -0.556409 -0.489850 0.056250
v -0.617103 -0.489496 0.056250
v -0.618898 -0.575215 0.056250
v -0.558038 -0.558927 0.056250
v -0.556409 -0.489850 -0.056250
v -0.556409 -0.489850 0.056250
v -0.558038 -0.558927 0.056250
v -0.558038 -0.558927 -0.056250
v -0.617103 -0.489496 0.056250
v -0.617103 -0.489496 -0.056250
v -0.618898 -0.575215 -0.056250
v -0.618898 -0.575215 0.056250
v -0.538138 -0.625974 -0.056250
v -0.538138 -0.625974 0.056250
v -0.499048 -0.687443 0.056250
v -0.499048 -0.687443 -0.056250
v -0.558038 -0.558927 -0.056250
v -0.558038 -0.558927 0.056250
v -0.538138 -0.625974 0.056250
v -0.538138 -0.625974 -0.056250
v -0.618898 -0.575215 0.056250
v -0.618898 -0.575215 -0.056250
v -0.594643 -0.657134 -0.056250
v -0.594643 -0.657134 0.056250
v -0.618898 -0.575215 -0.056250
v -0.558038 -0.558927 -0.056250
v -0.538138 -0.625974 -0.056250
v -0.594643 -0.657134 -0.056250
v -0.550320 -0.727498 -0.056250
v -0.499048 -0.687443 -0.056250
v -0.447432 -0.742812 -0.056250
v -0.495345 -0.786681 -0.056250
v -0.594643 -0.657134 0.056250
v -0.594643 -0.657134 -0.056250
v -0.550320 -0.727498 -0.056250
v -0.550320 -0.727498 0.056250
v -0.594643 -0.657134 -0.056250
v -0.538138 -0.625974 -0.056250
v -0.499048 -0.687443 -0.056250
v -0.550320 -0.727498 -0.056250
v -0.538138 -0.625974 0.056250
v -0.594643 -0.657134 0.056250
v -0.550320 -0.727498 0.056250
v -0.499048 -0.687443 0.056250
v -0.447432 -0.742812 -0.056250
v -0.447432 -0.742812 0.056250
v -0.387548 -0.792645 0.056250
v -0.387548 -0.792645 -0.056250
v -0.499048 -0.687443 0.056250
v -0.550320 -0.727498 0.056250
v -0.495345 -0.786681 0.056250
v -0.447432 -0.742812 0.056250
v -0.499048 -0.687443 -0.056250
v -0.499048 -0.687443 0.056250
v -0.447432 -0.742812 0.056250
v -0.447432 -0.742812 -0.056250
v -0.550320 -0.727498 0.056250
v -0.550320 -0.727498 -0.056250
v -0.495345 -0.786681 -0.056250
v -0.495345 -0.786681 0.056250
v -0.434635 -0.837245 0.056250
v -0.434635 -0.837245 -0.056250
v -0.370816 -0.881217 -0.056250
v -0.370816 -0.881217 0.056250
v -0.495345 -0.786681 0.056250
v -0.495345 -0.786681 -0.056250
v -0.434635 -0.837245 -0.056250
v -0.434635 -0.837245 0.056250
v -0.495345 -0.786681 -0.056250
v -0.447432 -0.742812 -0.056250
v -0.387548 -0.792645 -0.056250
v -0.434635 -0.837245 -0.056250
v -0.447432 -0.742812 0.056250
v -0.495345 -0.786681 0.056250
v -0.434635 -0.837245 0.056250
v -0.387548 -0.792645 0.056250
v -0.370816 -0.881217 -0.056250
v -0.321899 -0.837835 -0.056250
v -0.252571 -0.880954 -0.056250
v -0.306484 -0.921245 -0.056250
v -0.434635 -0.837245 -0.056250
v -0.387548 -0.792645 -0.056250
v -0.321899 -0.837835 -0.056250
v -0.370816 -0.881217 -0.056250
v -0.387548 -0.792645 0.056250
v -0.434635 -0.837245 0.056250
v -0.370816 -0.881217 0.056250
v -0.321899 -0.837835 0.056250
v -0.387548 -0.792645 -0.056250
v -0.387548 -0.792645 0.056250
v -0.321899 -0.837835 0.056250
v -0.321899 -0.837835 -0.056250
v -0.252571 -0.880954 -0.056250
v -0.252571 -0.880954 -0.046631
v -0.262481 -0.860319 -0.056250
v -0.321899 -0.837835 0.056250
v -0.370816 -0.881217 0.056250
v -0.306484 -0.921245 0.056250
v -0.252570 -0.880954 0.056250
v -0.321899 -0.837835 0.056250
v -0.252570 -0.880954 0.046631
v -0.276274 -0.866211 0.000000
v -0.370816 -0.881217 0.056250
v -0.370816 -0.881217 -0.056250
v -0.306484 -0.921245 -0.056250
v -0.306484 -0.921245 0.056250
v -0.306484 -0.921245 -0.056250
v -0.245997 -0.959219 -0.056250
v -0.272020 -0.942882 0.000000
v -0.306484 -0.921245 -0.056250
v -0.252571 -0.880954 -0.056250
v -0.262481 -0.860319 -0.056250
v -0.245997 -0.959219 -0.056250
v -0.252570 -0.880954 0.056250
v -0.306484 -0.921245 0.056250
v -0.245997 -0.959219 0.056250
v -0.262481 -0.860319 0.056250
v -0.000000 -1.000000 -0.262500
v -0.000000 -0.325000 -0.375000
v 0.265165 -0.325000 -0.265165
v 0.185615 -1.000000 -0.185616
v 0.185615 -1.000000 -0.185616
v 0.265165 -0.325000 -0.265165
v 0.375000 -0.325000 -0.000000
v 0.262500 -1.000000 -0.000000
v 0.262500 -1.000000 -0.000000
v 0.375000 -0.325000 -0.000000
v 0.265165 -0.325000 0.265165
v 0.185616 -1.000000 0.185615
v 0.185616 -1.000000 0.185615
v 0.265165 -0.325000 0.265165
v 0.000000 -0.325000 0.375000
v 0.000000 -1.000000 0.262500
v 0.000000 -1.000000 0.262500
v 0.000000 -0.325000 0.375000
v -0.265165 -0.325000 0.265165
v -0.185616 -1.000000 0.185616
v -0.185616 -1.000000 0.185616
v -0.309528 -0.578033 0.056250
v -0.262481 -0.860319 0.056250
v -0.309528 -0.578033 -0.056250
v -0.321244 -0.507736 -0.056250
v -0.265165 -0.325000 -0.265165
v -0.185616 -1.000000 -0.185615
v -0.265165 -0.325000 -0.265165
v -0.000000 -0.325000 -0.375000
v -0.000000 -1.000000 -0.262500
v -0.185616 -1.000000 0.185616
v -0.262500 -1.000000 0.000000
v -0.185616 -1.000000 -0.185615
v -0.000000 -0.865000 -0.210000
v 0.148492 -0.865000 -0.148492
v 0.212132 -0.325000 -0.212132
v -0.000000 -0.325000 -0.300000
v 0.148492 -0.865000 -0.148492
v 0.210000 -0.865000 -0.000000
v 0.300000 -0.325000 -0.000000
v 0.212132 -0.325000 -0.212132
v 0.210000 -0.865000 -0.000000
v 0.148492 -0.865000 0.148492
v 0.212132 -0.325000 0.212132
v 0.300000 -0.325000 -0.000000
v 0.148492 -0.865000 0.148492
v 0.000000 -0.865000 0.210000
v 0.000000 -0.325000 0.300000
v 0.212132 -0.325000 0.212132
v 0.000000 -0.865000 0.210000
v -0.148492 -0.865000 0.148492
v -0.212132 -0.325000 0.212132
v 0.000000 -0.325000 0.300000
v -0.148493 -0.865000 -0.148492
v -0.000000 -0.865000 -0.210000
v -0.000000 -0.325000 -0.300000
v -0.212132 -0.325000 -0.212132
v 0.148492 -0.865000 0.148492
v -0.148493 -0.865000 -0.148492
v -0.148492 -0.865000 0.148492
v -0.375000 -0.325000 0.000000
v -0.300000 -0.325000 0.000000
v -0.212132 -0.325000 -0.212132
v -0.265165 -0.325000 -0.265165
v -0.265165 -0.325000 -0.265165
v -0.212132 -0.325000 -0.212132
v -0.000000 -0.325000 -0.300000
v -0.000000 -0.325000 -0.375000
v -0.000000 -0.325000 -0.375000
v -0.000000 -0.325000 -0.300000
v 0.212132 -0.325000 -0.212132
v 0.265165 -0.325000 -0.265165
v 0.265165 -0.325000 -0.265165
v 0.212132 -0.325000 -0.212132
v 0.300000 -0.325000 -0.000000
v 0.375000 -0.325000 -0.000000
v 0.375000 -0.325000 -0.000000
v 0.300000 -0.325000 -0.000000
v 0.212132 -0.325000 0.212132
v 0.265165 -0.325000 0.265165
v 0.265165 -0.325000 0.265165
v 0.212132 -0.325000 0.212132
v 0.000000 -0.325000 0.300000
v 0.000000 -0.325000 0.375000
v 0.000000 -0.325000 0.375000
v 0.000000 -0.325000 0.300000
v -0.212132 -0.325000 0.212132
v -0.265165 -0.325000 0.265165
v -0.265165 -0.325000 0.265165
v -0.212132 -0.325000 0.212132
v -0.300000 -0.325000 0.000000
v -0.375000 -0.325000 0.000000
v -0.309528 -0.578033 -0.056250
v -0.320376 -0.576389 -0.009222
v -0.320376 -0.576389 -0.056250
v -0.262481 -0.860319 0.056250
v -0.252570 -0.880954 0.046631
v -0.252570 -0.880954 0.056250
v -0.334051 -0.430894 0.056250
v -0.341092 -0.422291 0.042713
v -0.341092 -0.422291 0.056250
v -0.341093 -0.422291 -0.042713
v -0.334052 -0.430894 -0.056250
v -0.341093 -0.422291 -0.056250
v -0.391599 -0.461407 -0.056250
v -0.334052 -0.430894 -0.056250
v -0.345918 -0.516933 -0.056250
v -0.212132 -0.325000 0.212132
v -0.148492 -0.865000 0.148492
v -0.210000 -0.865000 0.000000
v -0.300000 -0.325000 0.000000
v -0.210000 -0.865000 0.000000
v -0.148493 -0.865000 -0.148492
v -0.212132 -0.325000 -0.212132
v -0.300000 -0.325000 0.000000
v -0.265165 -0.325000 0.265165
v -0.375000 -0.325000 0.000000
v -0.334051 -0.430894 0.056250
v -0.375000 -0.325000 0.000000
v -0.361289 -0.407269 0.000000
v -0.341092 -0.422291 0.042713
v -0.375000 -0.325000 0.000000
v -0.341092 -0.422291 0.042713
v -0.334051 -0.430894 0.056250
v -0.272020 -0.942882 0.000000
v -0.262500 -1.000000 0.000000
v -0.245997 -0.959219 0.056250
v -0.262500 -1.000000 0.000000
v -0.185616 -1.000000 0.185616
v -0.245997 -0.959219 0.056250
v -0.334051 -0.430894 0.056250
v -0.321244 -0.507736 0.056250
v -0.265165 -0.325000 0.265165
v -0.321244 -0.507736 0.056250
v -0.309528 -0.578033 0.056250
v -0.265165 -0.325000 0.265165
v -0.320376 -0.576389 0.009222
v -0.327241 -0.560408 0.000000
v -0.276274 -0.866211 0.000000
v -0.309528 -0.578033 0.056250
v -0.320376 -0.576389 0.009222
v -0.276274 -0.866211 0.000000
v -0.309528 -0.578033 0.056250
v -0.276274 -0.866211 0.000000
v -0.252570 -0.880954 0.046631
v -0.185616 -1.000000 0.185616
v -0.265165 -0.325000 0.265165
v -0.309528 -0.578033 0.056250
v -0.262481 -0.860319 0.056250
v -0.245997 -0.959219 0.056250
v -0.185616 -1.000000 0.185616
v -0.309528 -0.578033 0.056250
v -0.252570 -0.880954 0.046631
v -0.262481 -0.860319 0.056250
v -0.185616 -1.000000 -0.185615
v -0.262500 -1.000000 0.000000
v -0.245997 -0.959219 -0.056250
v -0.262500 -1.000000 0.000000
v -0.272020 -0.942882 0.000000
v -0.245997 -0.959219 -0.056250
v -0.361289 -0.407269 0.000000
v -0.375000 -0.325000 0.000000
v -0.341093 -0.422291 -0.042713
v -0.375000 -0.325000 0.000000
v -0.265165 -0.325000 -0.265165
v -0.334052 -0.430894 -0.056250
v -0.341093 -0.422291 -0.042713
v -0.375000 -0.325000 0.000000
v -0.334052 -0.430894 -0.056250
v -0.265165 -0.325000 -0.265165
v -0.185616 -1.000000 -0.185615
v -0.309528 -0.578033 -0.056250
v -0.185616 -1.000000 -0.185615
v -0.245997 -0.959219 -0.056250
v -0.262481 -0.860319 -0.056250
v -0.185616 -1.000000 -0.185615
v -0.262481 -0.860319 -0.056250
v -0.309528 -0.578033 -0.056250
v -0.321244 -0.507736 -0.056250
v -0.334052 -0.430894 -0.056250
v -0.265165 -0.325000 -0.265165
v -0.262481 -0.860319 -0.056250
v -0.252571 -0.880954 -0.046631
v -0.309528 -0.578033 -0.056250
v -0.252571 -0.880954 -0.046631
v -0.276274 -0.866211 0.000000
v -0.309528 -0.578033 -0.056250
v -0.276274 -0.866211 0.000000
v -0.327241 -0.560408 0.000000
v -0.320376 -0.576389 -0.009222
v -0.276274 -0.866211 0.000000
v -0.320376 -0.576389 -0.009222
v -0.309528 -0.578033 -0.056250
v -0.185616 -1.000000 -0.185615
v -0.000000 -1.000000 -0.262500
v 0.185615 -1.000000 -0.185616
v 0.185615 -1.000000 -0.185616
v 0.262500 -1.000000 -0.000000
v -0.185616 -1.000000 -0.185615
v 0.262500 -1.000000 -0.000000
v 0.185616 -1.000000 0.185615
v -0.185616 -1.000000 -0.185615
v 0.185616 -1.000000 0.185615
v 0.000000 -1.000000 0.262500
v -0.185616 -1.000000 -0.185615
v 0.000000 -1.000000 0.262500
v -0.185616 -1.000000 0.185616
v -0.185616 -1.000000 -0.185615
v -0.148493 -0.865000 -0.148492
v 0.148492 -0.865000 -0.148492
v -0.000000 -0.865000 -0.210000
v 0.148492 -0.865000 -0.148492
v 0.148492 -0.865000 0.148492
v 0.210000 -0.865000 -0.000000
v 0.148492 -0.865000 0.148492
v -0.148492 -0.865000 0.148492
v 0.000000 -0.865000 0.210000
v -0.148492 -0.865000 0.148492
v -0.148493 -0.865000 -0.148492
v -0.210000 -0.865000 0.000000
v -0.148493 -0.865000 -0.148492
v 0.148492 -0.865000 0.148492
v 0.148492 -0.865000 -0.148492
v -0.409649 -0.371298 0.056250
v -0.341092 -0.422291 0.056250
v -0.341092 -0.422291 0.042713
v -0.361289 -0.407269 0.000000
v -0.341093 -0.422291 -0.042713
v -0.409649 -0.371298 -0.056250
v -0.341093 -0.422291 -0.042713
v -0.341093 -0.422291 -0.056250
v -0.409649 -0.371298 -0.056250
v -0.409649 -0.371298 0.056250
v -0.341092 -0.422291 0.042713
v -0.361289 -0.407269 0.000000
v -0.391599 -0.461407 0.056250
v -0.345918 -0.516933 0.056250
v -0.334051 -0.430894 0.056250
v -0.345918 -0.516933 0.056250
v -0.321244 -0.507736 0.056250
v -0.334051 -0.430894 0.056250
v -0.341093 -0.422291 -0.056250
v -0.334052 -0.430894 -0.056250
v -0.391599 -0.461407 -0.056250
v -0.334052 -0.430894 -0.056250
v -0.321244 -0.507736 -0.056250
v -0.345918 -0.516933 -0.056250
v -0.252571 -0.880954 -0.056250
v -0.321899 -0.837835 -0.056250
v -0.252571 -0.880954 -0.046631
v -0.321899 -0.837835 -0.056250
v -0.321899 -0.837835 0.056250
v -0.276274 -0.866211 0.000000
v -0.321899 -0.837835 0.056250
v -0.252570 -0.880954 0.056250
v -0.252570 -0.880954 0.046631
v -0.276274 -0.866211 0.000000
v -0.252571 -0.880954 -0.046631
v -0.321899 -0.837835 -0.056250
v -0.245997 -0.959219 0.056250
v -0.306484 -0.921245 0.056250
v -0.272020 -0.942882 0.000000
v -0.306484 -0.921245 0.056250
v -0.306484 -0.921245 -0.056250
v -0.272020 -0.942882 0.000000
v -0.320376 -0.576389 0.056250
v -0.345918 -0.516933 0.056250
v -0.327241 -0.560408 0.000000
v -0.345918 -0.516933 0.056250
v -0.345918 -0.516933 -0.056250
v -0.327241 -0.560408 0.000000
v -0.345918 -0.516933 -0.056250
v -0.320376 -0.576389 -0.056250
v -0.327241 -0.560408 0.000000
v -0.320376 -0.576389 -0.056250
v -0.320376 -0.576389 -0.009222
v -0.327241 -0.560408 0.000000

vt 0.575849 0.859731
vt 0.583320 0.886308
vt 0.575849 0.881951
vt 0.566766 0.859731
vt 0.575849 0.859731
vt 0.575849 0.881951
vt 0.476527 0.488036
vt 0.460825 0.515292
vt 0.467449 0.488298
vt 0.476527 0.521709
vt 0.460825 0.515292
vt 0.476527 0.488036
vt 0.476527 0.088271
vt 0.467449 0.121682
vt 0.460825 0.094688
vt 0.476527 0.121944
vt 0.467449 0.121682
vt 0.476527 0.088271
vt 0.664477 0.859731
vt 0.634528 0.912886
vt 0.634528 0.859731
vt 0.664477 0.912886
vt 0.634528 0.912886
vt 0.664477 0.859731
vt 0.445392 0.542044
vt 0.476527 0.558516
vt 0.473914 0.563073
vt 0.634528 0.859731
vt 0.603644 0.912886
vt 0.603644 0.859731
vt 0.634528 0.912886
vt 0.603644 0.912886
vt 0.634528 0.859731
vt 0.402996 0.035847
vt 0.445924 0.017816
vt 0.424753 0.046234
vt 0.404803 0.000457
vt 0.445924 0.017816
vt 0.402996 0.035847
vt 0.947333 0.875666
vt 0.920756 0.847188
vt 0.973910 0.847188
vt 0.424753 0.046234
vt 0.473914 0.046907
vt 0.445392 0.067936
vt 0.445924 0.017816
vt 0.473914 0.046907
vt 0.424753 0.046234
vt 0.445924 0.592164
vt 0.445392 0.542044
vt 0.473914 0.563073
vt 0.424753 0.563746
vt 0.445392 0.542044
vt 0.445924 0.592164
vt 0.386086 0.044102
vt 0.404803 0.000457
vt 0.402996 0.035847
vt 0.360406 0.019683
vt 0.404803 0.000457
vt 0.386086 0.044102
vt 0.404803 0.609523
vt 0.424753 0.563746
vt 0.445924 0.592164
vt 0.402996 0.574133
vt 0.424753 0.563746
vt 0.404803 0.609523
vt 0.688586 0.859731
vt 0.664477 0.912886
vt 0.664477 0.859731
vt 0.688586 0.912886
vt 0.664477 0.912886
vt 0.688586 0.859731
vt 0.920755 0.802553
vt 0.973910 0.847188
vt 0.920756 0.847188
vt 0.973910 0.802553
vt 0.973910 0.847188
vt 0.920755 0.802553
vt 0.734698 0.859731
vt 0.707404 0.912886
vt 0.707404 0.859731
vt 0.734698 0.912886
vt 0.707404 0.912886
vt 0.734698 0.859731
vt 0.360406 0.590297
vt 0.402996 0.574133
vt 0.404803 0.609523
vt 0.386086 0.565878
vt 0.402996 0.574133
vt 0.360406 0.590297
vt 0.707404 0.859731
vt 0.688586 0.912886
vt 0.688586 0.859731
vt 0.707404 0.912886
vt 0.688586 0.912886
vt 0.707404 0.859731
vt 0.920755 0.754173
vt 0.973910 0.802553
vt 0.920755 0.802553
vt 0.973910 0.754173
vt 0.973910 0.802553
vt 0.920755 0.754173
vt 0.367987 0.097502
vt 0.340057 0.056789
vt 0.373555 0.068349
vt 0.332562 0.096600
vt 0.340057 0.056789
vt 0.367987 0.097502
vt 0.920756 0.711853
vt 0.973910 0.754173
vt 0.920755 0.754173
vt 0.973910 0.711853
vt 0.973910 0.754173
vt 0.920756 0.711853
vt 0.373555 0.068349
vt 0.360406 0.019683
vt 0.386086 0.044102
vt 0.340057 0.056789
vt 0.360406 0.019683
vt 0.373555 0.068349
vt 0.340057 0.553191
vt 0.386086 0.565878
vt 0.360406 0.590297
vt 0.373555 0.541631
vt 0.386086 0.565878
vt 0.340057 0.553191
vt 0.337503 0.473317
vt 0.367987 0.512479
vt 0.332562 0.513380
vt 0.371684 0.482667
vt 0.367987 0.512479
vt 0.337503 0.473317
vt 0.332562 0.513380
vt 0.373555 0.541631
vt 0.340057 0.553191
vt 0.367987 0.512479
vt 0.373555 0.541631
vt 0.332562 0.513380
vt 0.764377 0.859731
vt 0.734698 0.912886
vt 0.734698 0.859731
vt 0.764377 0.912886
vt 0.734698 0.912886
vt 0.764377 0.859731
vt 0.920756 0.671343
vt 0.973910 0.711853
vt 0.920756 0.711853
vt 0.973910 0.671343
vt 0.973910 0.711853
vt 0.920756 0.671343
vt 0.825707 0.859731
vt 0.794418 0.912886
vt 0.794417 0.859731
vt 0.825707 0.912886
vt 0.794418 0.912886
vt 0.825707 0.859731
vt 0.794417 0.859731
vt 0.764377 0.912886
vt 0.764377 0.859731
vt 0.794418 0.912886
vt 0.764377 0.912886
vt 0.794417 0.859731
vt 0.920755 0.630976
vt 0.973910 0.671343
vt 0.920756 0.671343
vt 0.973910 0.630976
vt 0.973910 0.671343
vt 0.920755 0.630976
vt 0.371684 0.127313
vt 0.332562 0.096600
vt 0.367987 0.097502
vt 0.337503 0.136663
vt 0.332562 0.096600
vt 0.371684 0.127313
vt 0.401865 0.183222
vt 0.352695 0.172899
vt 0.383905 0.156118
vt 0.373719 0.204753
vt 0.352695 0.172899
vt 0.401865 0.183222
vt 0.920755 0.591684
vt 0.973910 0.630976
vt 0.920755 0.630976
vt 0.973910 0.591684
vt 0.973910 0.630976
vt 0.920755 0.591684
vt 0.383905 0.156118
vt 0.337503 0.136663
vt 0.371684 0.127313
vt 0.352695 0.172899
vt 0.337503 0.136663
vt 0.383905 0.156118
vt 0.352695 0.437081
vt 0.371684 0.482667
vt 0.337503 0.473317
vt 0.383905 0.453863
vt 0.371684 0.482667
vt 0.352695 0.437081
vt 0.891685 0.859731
vt 0.858221 0.912886
vt 0.858221 0.859731
vt 0.891685 0.912886
vt 0.858221 0.912886
vt 0.891685 0.859731
vt 0.373719 0.405227
vt 0.383905 0.453863
vt 0.352695 0.437081
vt 0.401865 0.426758
vt 0.383905 0.453863
vt 0.373719 0.405227
vt 0.858221 0.859731
vt 0.825707 0.912886
vt 0.825707 0.859731
vt 0.858221 0.912886
vt 0.825707 0.912886
vt 0.858221 0.859731
vt 0.920755 0.553518
vt 0.973910 0.591684
vt 0.920755 0.591684
vt 0.973910 0.553518
vt 0.973910 0.591684
vt 0.920755 0.553518
vt 0.920755 0.479569
vt 0.973910 0.516187
vt 0.920756 0.516187
vt 0.973910 0.479569
vt 0.973910 0.516187
vt 0.920755 0.479569
vt 0.920756 0.516187
vt 0.973910 0.553518
vt 0.920755 0.553518
vt 0.973910 0.516187
vt 0.973910 0.553518
vt 0.920756 0.516187
vt 0.423718 0.208564
vt 0.373719 0.204753
vt 0.401865 0.183222
vt 0.398086 0.233034
vt 0.373719 0.204753
vt 0.423718 0.208564
vt 0.398086 0.376946
vt 0.401865 0.426758
vt 0.373719 0.405227
vt 0.423718 0.401416
vt 0.401865 0.426758
vt 0.398086 0.376946
vt 0.474670 0.255511
vt 0.424413 0.258485
vt 0.448341 0.232346
vt 0.451287 0.282137
vt 0.424413 0.258485
vt 0.474670 0.255511
vt 0.448341 0.232346
vt 0.398086 0.233034
vt 0.423718 0.208564
vt 0.424413 0.258485
vt 0.398086 0.233034
vt 0.448341 0.232346
vt 0.424413 0.351496
vt 0.423718 0.401416
vt 0.398086 0.376946
vt 0.448341 0.377634
vt 0.423718 0.401416
vt 0.424413 0.351496
vt 0.925918 0.859731
vt 0.891685 0.912886
vt 0.891685 0.859731
vt 0.925918 0.912886
vt 0.891685 0.912886
vt 0.925918 0.859731
vt 0.963470 0.912886
vt 0.960986 0.912886
vt 0.960986 0.908341
vt 0.451287 0.327843
vt 0.448341 0.377634
vt 0.424413 0.351496
vt 0.474670 0.354469
vt 0.448341 0.377634
vt 0.451287 0.327843
vt 0.948996 0.886308
vt 0.925918 0.859731
vt 0.960986 0.864276
vt 0.920756 0.443770
vt 0.973910 0.479569
vt 0.920755 0.479569
vt 0.973910 0.443770
vt 0.973910 0.479569
vt 0.920756 0.443770
vt 0.947333 0.424543
vt 0.920756 0.443770
vt 0.920756 0.410025
vt 0.476527 0.257160
vt 0.451287 0.282137
vt 0.474670 0.255511
vt 0.476527 0.304533
vt 0.451287 0.282137
vt 0.476527 0.257160
vt 0.476527 0.305447
vt 0.474670 0.354469
vt 0.451287 0.327843
vt 0.476527 0.352820
vt 0.474670 0.354469
vt 0.476527 0.305447
vt 0.008479 0.917105
vt 0.123747 0.594418
vt 0.144089 0.917105
vt 0.028821 0.594418
vt 0.123747 0.594418
vt 0.008479 0.917105
vt 0.962046 0.917105
vt 1.077314 0.594418
vt 1.097656 0.917105
vt 0.982387 0.594418
vt 1.077314 0.594418
vt 0.962046 0.917105
vt 0.826436 0.917105
vt 0.941704 0.594418
vt 0.962046 0.917105
vt 0.846778 0.594418
vt 0.941704 0.594418
vt 0.826436 0.917105
vt 0.690827 0.917105
vt 0.806095 0.594418
vt 0.826436 0.917105
vt 0.711168 0.594418
vt 0.806095 0.594418
vt 0.690827 0.917105
vt 0.555217 0.917105
vt 0.670485 0.594418
vt 0.690827 0.917105
vt 0.575559 0.594418
vt 0.670485 0.594418
vt 0.555217 0.917105
vt 0.464162 0.663309
vt 0.535065 0.597123
vt 0.456244 0.798429
vt 0.283913 0.916366
vt 0.384086 0.795677
vt 0.386013 0.829380
vt 0.146380 0.917105
vt 0.261649 0.594418
vt 0.281990 0.917105
vt 0.166722 0.594418
vt 0.261649 0.594418
vt 0.146380 0.917105
vt 0.000457 0.440573
vt 0.162507 0.507696
vt 0.067580 0.507696
vt 0.608155 0.617778
vt 0.700370 0.359629
vt 0.624428 0.359629
vt 0.716643 0.617778
vt 0.700370 0.359629
vt 0.608155 0.617778
vt 0.732918 0.617779
vt 0.825132 0.359629
vt 0.749191 0.359629
vt 0.841405 0.617779
vt 0.825132 0.359629
vt 0.732918 0.617779
vt 0.857679 0.617779
vt 0.949893 0.359629
vt 0.873952 0.359629
vt 0.966166 0.617779
vt 0.949893 0.359629
vt 0.857679 0.617779
vt 0.032393 0.617778
vt 0.124608 0.359629
vt 0.048666 0.359629
vt 0.140881 0.617778
vt 0.124608 0.359629
vt 0.032393 0.617778
vt 0.135457 0.617778
vt 0.227671 0.359629
vt 0.151730 0.359629
vt 0.243944 0.617778
vt 0.227671 0.359629
vt 0.135457 0.617778
vt 0.499667 0.617778
vt 0.591882 0.359629
vt 0.515941 0.359629
vt 0.608155 0.617778
vt 0.591882 0.359629
vt 0.499667 0.617778
vt 0.607081 0.410025
vt 0.477441 0.463724
vt 0.660779 0.539665
vt 0.855109 0.014018
vt 0.887848 0.136066
vt 0.855109 0.122505
vt 0.887848 0.000457
vt 0.887848 0.136066
vt 0.855109 0.014018
vt 0.230543 0.292083
vt 0.263282 0.414132
vt 0.230543 0.400571
vt 0.263282 0.278522
vt 0.263282 0.414132
vt 0.230543 0.292083
vt 0.883427 0.869008
vt 0.850688 0.746960
vt 0.883427 0.760521
vt 0.850688 0.882569
vt 0.850688 0.746960
vt 0.883427 0.869008
vt 0.884340 0.760521
vt 0.917079 0.882569
vt 0.884340 0.869008
vt 0.917079 0.746960
vt 0.917079 0.882569
vt 0.884340 0.760521
vt 0.855109 0.287063
vt 0.887848 0.409112
vt 0.855109 0.395551
vt 0.887848 0.273502
vt 0.887848 0.409112
vt 0.855109 0.287063
vt 0.297848 0.292083
vt 0.330587 0.414132
vt 0.297848 0.400571
vt 0.330587 0.278522
vt 0.330587 0.414132
vt 0.297848 0.292083
vt 0.855109 0.150540
vt 0.887848 0.272589
vt 0.855109 0.259028
vt 0.887848 0.136979
vt 0.887848 0.272589
vt 0.855109 0.150540
vt 0.296935 0.400571
vt 0.264196 0.278522
vt 0.296935 0.292084
vt 0.264196 0.414132
vt 0.264196 0.278522
vt 0.296935 0.400571
vt 0.575849 0.912886
vt 0.566766 0.912886
vt 0.575849 0.890666
vt 0.960986 0.859731
vt 0.963470 0.859731
vt 0.960986 0.864276
vt 0.973910 0.887558
vt 0.973910 0.892811
vt 0.967514 0.887558
vt 0.920756 0.887558
vt 0.927151 0.887558
vt 0.920756 0.892811
vt 0.460825 0.094688
vt 0.445392 0.067936
vt 0.476527 0.051464
vt 0.271842 0.359629
vt 0.364057 0.617778
vt 0.347783 0.359629
vt 0.255569 0.617778
vt 0.364057 0.617778
vt 0.271842 0.359629
vt 0.369481 0.617778
vt 0.461695 0.359628
vt 0.385754 0.359628
vt 0.477969 0.617778
vt 0.461695 0.359628
vt 0.369481 0.617778
vt 0.451785 0.868635
vt 0.555217 0.919211
vt 0.419863 0.919148
vt 0.444614 0.872737
vt 0.419863 0.919148
vt 0.422356 0.879895
vt 0.451785 0.868635
vt 0.419863 0.919148
vt 0.444614 0.872737
vt 0.468875 0.615310
vt 0.440116 0.622132
vt 0.442332 0.595671
vt 0.468875 0.615310
vt 0.442332 0.595671
vt 0.535065 0.597123
vt 0.555217 0.919211
vt 0.451785 0.868635
vt 0.454113 0.831971
vt 0.555217 0.919211
vt 0.454113 0.831971
vt 0.456244 0.798429
vt 0.435770 0.673855
vt 0.431070 0.796986
vt 0.425608 0.804122
vt 0.435770 0.673855
vt 0.456244 0.798429
vt 0.431070 0.796986
vt 0.459125 0.665165
vt 0.456244 0.798429
vt 0.435770 0.673855
vt 0.456244 0.798429
vt 0.535065 0.597123
vt 0.555217 0.919211
vt 0.535065 0.597123
vt 0.464162 0.663309
vt 0.468875 0.615310
vt 0.464162 0.663309
vt 0.456244 0.798429
vt 0.459125 0.665165
vt 0.372661 0.612109
vt 0.306189 0.592986
vt 0.399546 0.592934
vt 0.372661 0.612109
vt 0.399546 0.592934
vt 0.401377 0.619425
vt 0.395296 0.870386
vt 0.417607 0.877715
vt 0.419863 0.917157
vt 0.388120 0.866220
vt 0.419863 0.917157
vt 0.283913 0.916366
vt 0.388120 0.866220
vt 0.395296 0.870386
vt 0.419863 0.917157
vt 0.384086 0.795677
vt 0.283913 0.916366
vt 0.306189 0.592986
vt 0.376169 0.659156
vt 0.306189 0.592986
vt 0.372661 0.612109
vt 0.384086 0.795677
vt 0.306189 0.592986
vt 0.376169 0.659156
vt 0.283913 0.916366
vt 0.386013 0.829380
vt 0.388120 0.866220
vt 0.384086 0.795677
vt 0.376169 0.659156
vt 0.381222 0.660458
vt 0.384086 0.795677
vt 0.381222 0.660458
vt 0.404943 0.671207
vt 0.409254 0.794346
vt 0.404943 0.671207
vt 0.414695 0.801505
vt 0.384086 0.795677
vt 0.404943 0.671207
vt 0.409254 0.794346
vt 0.067580 0.278522
vt 0.000457 0.440573
vt 0.000457 0.345646
vt 0.000457 0.440573
vt 0.067580 0.278522
vt 0.162507 0.278522
vt 0.000457 0.440573
vt 0.162507 0.278522
vt 0.229630 0.345646
vt 0.000457 0.440573
vt 0.229630 0.345646
vt 0.229630 0.440573
vt 0.000457 0.440573
vt 0.229630 0.440573
vt 0.162507 0.507696
vt 0.607081 0.593364
vt 0.660779 0.539665
vt 0.531139 0.593364
vt 0.477441 0.539665
vt 0.531139 0.593364
vt 0.477441 0.463724
vt 0.531139 0.410025
vt 0.477441 0.463724
vt 0.607081 0.410025
vt 0.660779 0.463724
vt 0.607081 0.410025
vt 0.660779 0.539665
vt 0.531139 0.593364
vt 0.660779 0.539665
vt 0.477441 0.463724
vt 0.967514 0.887558
vt 0.973910 0.847188
vt 0.973910 0.887558
vt 0.920756 0.847188
vt 0.947333 0.875666
vt 0.927151 0.887558
vt 0.920756 0.847188
vt 0.927151 0.887558
vt 0.920756 0.887558
vt 0.947333 0.875666
vt 0.973910 0.847188
vt 0.967514 0.887558
vt 0.476527 0.558516
vt 0.445392 0.542044
vt 0.460825 0.515292
vt 0.476527 0.558516
vt 0.460825 0.515292
vt 0.476527 0.521709
vt 0.445392 0.067936
vt 0.473914 0.046907
vt 0.476527 0.051464
vt 0.460825 0.094688
vt 0.476527 0.051464
vt 0.476527 0.088271
vt 0.960986 0.908341
vt 0.960986 0.912886
vt 0.925918 0.912886
vt 0.948996 0.886308
vt 0.925918 0.912886
vt 0.925918 0.859731
vt 0.960986 0.864276
vt 0.925918 0.859731
vt 0.960986 0.859731
vt 0.925918 0.912886
vt 0.948996 0.886308
vt 0.960986 0.908341
vt 0.947333 0.424543
vt 0.973910 0.410025
vt 0.973910 0.443770
vt 0.947333 0.424543
vt 0.973910 0.443770
vt 0.920756 0.443770
vt 0.583320 0.886308
vt 0.575849 0.859731
vt 0.603644 0.859731
vt 0.583320 0.886308
vt 0.603644 0.859731
vt 0.603644 0.912886
vt 0.583320 0.886308
vt 0.603644 0.912886
vt 0.575849 0.912886
vt 0.583320 0.886308
vt 0.575849 0.912886
vt 0.575849 0.890666

vn -0.918806 -0.394710 0.000000
vn -0.918806 -0.394710 0.000000
vn -0.918806 -0.394710 0.000000
vn -0.149861 -0.988707 0.000000
vn -0.149861 -0.988707 0.000000
vn -0.149861 -0.988707 0.000000
vn 0.000000 0.000001 1.000000
vn 0.000000 0.000001 1.000000
vn 0.000000 0.000001 1.000000
vn -0.000000 0.000001 1.000000
vn -0.000000 0.000001 1.000000
vn -0.000000 0.000001 1.000000
vn -0.000000 0.000000 -1.000000
vn -0.000000 0.000000 -1.000000
vn -0.000000 0.000000 -1.000000
vn -0.000000 0.000000 -1.000000
vn -0.000000 0.000000 -1.000000
vn -0.000000 0.000000 -1.000000
vn -0.601494 -0.798877 0.000000
vn -0.601494 -0.798877 0.000000
vn -0.601494 -0.798877 0.000000
vn -0.601494 -0.798877 0.000000
vn -0.601494 -0.798877 0.000000
vn -0.601494 -0.798877 0.000000
vn 0.000001 -0.000001 1.000000
vn 0.000001 -0.000001 1.000000
vn 0.000001 -0.000001 1.000000
vn -0.772247 -0.635323 0.000000
vn -0.772247 -0.635323 0.000000
vn -0.772247 -0.635323 0.000000
vn -0.772247 -0.635323 0.000000
vn -0.772247 -0.635323 0.000000
vn -0.772247 -0.635323 0.000000
vn 0.000003 -0.000003 -1.000000
vn 0.000003 -0.000003 -1.000000
vn 0.000003 -0.000003 -1.000000
vn 0.000002 0.000000 -1.000000
vn 0.000002 0.000000 -1.000000
vn 0.000002 0.000000 -1.000000
vn 0.596812 0.802381 0.000000
vn 0.596812 0.802381 0.000000
vn 0.596812 0.802381 0.000000
vn -0.000000 0.000000 -1.000000
vn -0.000000 0.000000 -1.000000
vn -0.000000 0.000000 -1.000000
vn -0.000000 0.000000 -1.000000
vn -0.000000 0.000000 -1.000000
vn -0.000000 0.000000 -1.000000
vn 0.000000 0.000000 1.000000
vn 0.000000 0.000000 1.000000
vn 0.000000 0.000000 1.000000
vn 0.000000 0.000000 1.000000
vn 0.000000 0.000000 1.000000
vn 0.000000 0.000000 1.000000
vn -0.000004 0.000000 -1.000000
vn -0.000004 0.000000 -1.000000
vn -0.000004 0.000000 -1.000000
vn -0.000001 -0.000001 -1.000000
vn -0.000001 -0.000001 -1.000000
vn -0.000001 -0.000001 -1.000000
vn -0.000001 0.000001 1.000000
vn -0.000001 0.000001 1.000000
vn -0.000001 0.000001 1.000000
vn -0.000002 -0.000000 1.000000
vn -0.000002 -0.000000 1.000000
vn -0.000002 -0.000000 1.000000
vn -0.276614 -0.960981 0.000000
vn -0.276614 -0.960981 0.000000
vn -0.276614 -0.960981 0.000000
vn -0.276614 -0.960981 0.000000
vn -0.276614 -0.960981 0.000000
vn -0.276614 -0.960981 0.000000
vn 0.232181 0.972673 0.000000
vn 0.232181 0.972673 0.000000
vn 0.232181 0.972673 0.000000
vn 0.232181 0.972673 0.000000
vn 0.232181 0.972673 0.000000
vn 0.232181 0.972673 0.000000
vn 0.951764 -0.306831 0.000000
vn 0.951764 -0.306831 0.000000
vn 0.951764 -0.306831 0.000000
vn 0.951764 -0.306831 0.000000
vn 0.951764 -0.306831 0.000000
vn 0.951764 -0.306831 0.000000
vn 0.000001 0.000000 1.000000
vn 0.000001 0.000000 1.000000
vn 0.000001 0.000000 1.000000
vn 0.000001 0.000001 1.000000
vn 0.000001 0.000001 1.000000
vn 0.000001 0.000001 1.000000
vn 0.580442 -0.814302 0.000000
vn 0.580442 -0.814302 0.000000
vn 0.580442 -0.814302 0.000000
vn 0.580441 -0.814302 0.000000
vn 0.580441 -0.814302 0.000000
vn 0.580441 -0.814302 0.000000
vn -0.542847 0.839832 0.000001
vn -0.542847 0.839832 0.000001
vn -0.542847 0.839832 0.000001
vn -0.542846 0.839832 0.000000
vn -0.542846 0.839832 0.000000
vn -0.542846 0.839832 0.000000
vn -0.000000 0.000000 -1.000000
vn -0.000000 0.000000 -1.000000
vn -0.000000 0.000000 -1.000000
vn -0.000000 0.000000 -1.000000
vn -0.000000 0.000000 -1.000000
vn -0.000000 0.000000 -1.000000
vn -0.943925 0.330159 0.000000
vn -0.943925 0.330159 0.000000
vn -0.943925 0.330159 0.000000
vn -0.943925 0.330159 0.000000
vn -0.943925 0.330159 0.000000
vn -0.943925 0.330159 0.000000
vn -0.000001 -0.000001 -1.000000
vn -0.000001 -0.000001 -1.000000
vn -0.000001 -0.000001 -1.000000
vn -0.000000 -0.000001 -1.000000
vn -0.000000 -0.000001 -1.000000
vn -0.000000 -0.000001 -1.000000
vn 0.000000 -0.000000 1.000000
vn 0.000000 -0.000000 1.000000
vn 0.000000 -0.000000 1.000000
vn 0.000000 0.000000 1.000000
vn 0.000000 0.000000 1.000000
vn 0.000000 0.000000 1.000000
vn 0.000000 -0.000001 1.000000
vn 0.000000 -0.000001 1.000000
vn 0.000000 -0.000001 1.000000
vn 0.000001 -0.000001 1.000000
vn 0.000001 -0.000001 1.000000
vn 0.000001 -0.000001 1.000000
vn 0.000000 0.000001 1.000000
vn 0.000000 0.000001 1.000000
vn 0.000000 0.000001 1.000000
vn -0.000000 0.000001 1.000000
vn -0.000000 0.000001 1.000000
vn -0.000000 0.000001 1.000000
vn 0.999722 -0.023568 0.000000
vn 0.999722 -0.023568 0.000000
vn 0.999722 -0.023568 0.000000
vn 0.999722 -0.023568 0.000000
vn 0.999722 -0.023568 0.000000
vn 0.999722 -0.023568 0.000000
vn -0.999781 0.020936 0.000000
vn -0.999781 0.020936 0.000000
vn -0.999781 0.020936 0.000000
vn -0.999781 0.020936 0.000000
vn -0.999781 0.020936 0.000000
vn -0.999781 0.020936 0.000000
vn 0.843826 0.536617 0.000001
vn 0.843826 0.536617 0.000001
vn 0.843826 0.536617 0.000001
vn 0.843826 0.536618 0.000000
vn 0.843826 0.536618 0.000000
vn 0.843826 0.536618 0.000000
vn 0.958666 0.284534 0.000000
vn 0.958666 0.284534 0.000000
vn 0.958666 0.284534 0.000000
vn 0.958666 0.284535 0.000001
vn 0.958666 0.284535 0.000001
vn 0.958666 0.284535 0.000001
vn -0.958855 -0.283897 0.000000
vn -0.958855 -0.283897 0.000000
vn -0.958855 -0.283897 0.000000
vn -0.958855 -0.283896 -0.000001
vn -0.958855 -0.283896 -0.000001
vn -0.958855 -0.283896 -0.000001
vn -0.000001 0.000002 -1.000000
vn -0.000001 0.000002 -1.000000
vn -0.000001 0.000002 -1.000000
vn -0.000001 0.000001 -1.000000
vn -0.000001 0.000001 -1.000000
vn -0.000001 0.000001 -1.000000
vn -0.000000 -0.000000 -1.000000
vn -0.000000 -0.000000 -1.000000
vn -0.000000 -0.000000 -1.000000
vn -0.000000 0.000000 -1.000000
vn -0.000000 0.000000 -1.000000
vn -0.000000 0.000000 -1.000000
vn -0.846125 -0.532984 -0.000001
vn -0.846125 -0.532984 -0.000001
vn -0.846125 -0.532984 -0.000001
vn -0.846124 -0.532985 0.000000
vn -0.846124 -0.532985 0.000000
vn -0.846124 -0.532985 0.000000
vn -0.000000 0.000000 -1.000000
vn -0.000000 0.000000 -1.000000
vn -0.000000 0.000000 -1.000000
vn -0.000000 0.000000 -1.000000
vn -0.000000 0.000000 -1.000000
vn -0.000000 0.000000 -1.000000
vn 0.000001 -0.000001 1.000000
vn 0.000001 -0.000001 1.000000
vn 0.000001 -0.000001 1.000000
vn 0.000001 -0.000001 1.000000
vn 0.000001 -0.000001 1.000000
vn 0.000001 -0.000001 1.000000
vn 0.639652 0.768664 0.000000
vn 0.639652 0.768664 0.000000
vn 0.639652 0.768664 0.000000
vn 0.639652 0.768665 0.000001
vn 0.639652 0.768665 0.000001
vn 0.639652 0.768665 0.000001
vn -0.000000 0.000001 1.000000
vn -0.000000 0.000001 1.000000
vn -0.000000 0.000001 1.000000
vn -0.000000 0.000001 1.000000
vn -0.000000 0.000001 1.000000
vn -0.000000 0.000001 1.000000
vn 0.731464 0.681880 0.000000
vn 0.731464 0.681880 0.000000
vn 0.731464 0.681880 0.000000
vn 0.731464 0.681880 0.000000
vn 0.731464 0.681880 0.000000
vn 0.731464 0.681880 0.000000
vn -0.732673 -0.680581 0.000000
vn -0.732673 -0.680581 0.000000
vn -0.732673 -0.680581 0.000000
vn -0.732675 -0.680579 0.000000
vn -0.732675 -0.680579 0.000000
vn -0.732675 -0.680579 0.000000
vn -0.567383 -0.823454 0.000000
vn -0.567383 -0.823454 0.000000
vn -0.567383 -0.823454 0.000000
vn -0.567379 -0.823457 0.000000
vn -0.567379 -0.823457 0.000000
vn -0.567379 -0.823457 0.000000
vn -0.639970 -0.768400 0.000000
vn -0.639970 -0.768400 0.000000
vn -0.639970 -0.768400 0.000000
vn -0.639970 -0.768400 0.000000
vn -0.639970 -0.768400 0.000000
vn -0.639970 -0.768400 0.000000
vn 0.000001 -0.000001 -1.000000
vn 0.000001 -0.000001 -1.000000
vn 0.000001 -0.000001 -1.000000
vn 0.000001 -0.000001 -1.000000
vn 0.000001 -0.000001 -1.000000
vn 0.000001 -0.000001 -1.000000
vn 0.000000 0.000000 1.000000
vn 0.000000 0.000000 1.000000
vn 0.000000 0.000000 1.000000
vn 0.000000 0.000000 1.000000
vn 0.000000 0.000000 1.000000
vn 0.000000 0.000000 1.000000
vn 0.000001 -0.000001 -1.000000
vn 0.000001 -0.000001 -1.000000
vn 0.000001 -0.000001 -1.000000
vn 0.000001 -0.000002 -1.000000
vn 0.000001 -0.000002 -1.000000
vn 0.000001 -0.000002 -1.000000
vn -0.000002 0.000001 -1.000000
vn -0.000002 0.000001 -1.000000
vn -0.000002 0.000001 -1.000000
vn -0.000002 0.000001 -1.000000
vn -0.000002 0.000001 -1.000000
vn -0.000002 0.000001 -1.000000
vn 0.000001 -0.000001 1.000000
vn 0.000001 -0.000001 1.000000
vn 0.000001 -0.000001 1.000000
vn 0.000001 -0.000001 1.000000
vn 0.000001 -0.000001 1.000000
vn 0.000001 -0.000001 1.000000
vn 0.567010 0.823711 0.000001
vn 0.567010 0.823711 0.000001
vn 0.567010 0.823711 0.000001
vn 0.567010 0.823711 0.000001
vn 0.567010 0.823711 0.000001
vn 0.567010 0.823711 0.000001
vn -0.901426 -0.432932 0.000000
vn -0.901426 -0.432932 0.000000
vn -0.901426 -0.432932 0.000000
vn -0.000001 0.000002 1.000000
vn -0.000001 0.000002 1.000000
vn -0.000001 0.000002 1.000000
vn -0.000001 0.000001 1.000000
vn -0.000001 0.000001 1.000000
vn -0.000001 0.000001 1.000000
vn 0.528132 0.849162 0.000000
vn 0.528132 0.849162 0.000000
vn 0.528132 0.849162 0.000000
vn -0.528296 -0.849060 0.000001
vn -0.528296 -0.849060 0.000001
vn -0.528296 -0.849060 0.000001
vn -0.528295 -0.849061 0.000000
vn -0.528295 -0.849061 0.000000
vn -0.528295 -0.849061 0.000000
vn -0.531706 -0.846929 -0.000000
vn -0.531706 -0.846929 -0.000000
vn -0.531706 -0.846929 -0.000000
vn 0.000000 0.000000 1.000000
vn 0.000000 0.000000 1.000000
vn 0.000000 0.000000 1.000000
vn -0.000002 0.000001 -1.000000
vn -0.000002 0.000001 -1.000000
vn -0.000002 0.000001 -1.000000
vn 0.000002 -0.000002 1.000000
vn 0.000002 -0.000002 1.000000
vn 0.000002 -0.000002 1.000000
vn 0.000005 0.000002 -1.000000
vn 0.000005 0.000002 -1.000000
vn 0.000005 0.000002 -1.000000
vn 0.378226 -0.152186 -0.913118
vn 0.378226 -0.152186 -0.913118
vn 0.378226 -0.152186 -0.913118
vn 0.378226 -0.152186 -0.913118
vn 0.378226 -0.152186 -0.913118
vn 0.378226 -0.152186 -0.913118
vn 0.913118 -0.152186 -0.378226
vn 0.913118 -0.152186 -0.378226
vn 0.913118 -0.152186 -0.378226
vn 0.913118 -0.152186 -0.378226
vn 0.913118 -0.152186 -0.378226
vn 0.913118 -0.152186 -0.378226
vn 0.913118 -0.152186 0.378225
vn 0.913118 -0.152186 0.378225
vn 0.913118 -0.152186 0.378225
vn 0.913118 -0.152186 0.378226
vn 0.913118 -0.152186 0.378226
vn 0.913118 -0.152186 0.378226
vn 0.378226 -0.152186 0.913118
vn 0.378226 -0.152186 0.913118
vn 0.378226 -0.152186 0.913118
vn 0.378226 -0.152186 0.913118
vn 0.378226 -0.152186 0.913118
vn 0.378226 -0.152186 0.913118
vn -0.378226 -0.152186 0.913118
vn -0.378226 -0.152186 0.913118
vn -0.378226 -0.152186 0.913118
vn -0.378226 -0.152186 0.913118
vn -0.378226 -0.152186 0.913118
vn -0.378226 -0.152186 0.913118
vn -0.913118 -0.152186 0.378226
vn -0.913118 -0.152186 0.378226
vn -0.913118 -0.152186 0.378226
vn -0.913118 -0.152186 -0.378226
vn -0.913118 -0.152186 -0.378226
vn -0.913118 -0.152186 -0.378226
vn -0.378226 -0.152186 -0.913118
vn -0.378226 -0.152186 -0.913118
vn -0.378226 -0.152186 -0.913118
vn -0.378226 -0.152186 -0.913118
vn -0.378226 -0.152186 -0.913118
vn -0.378226 -0.152186 -0.913118
vn 0.000001 -1.000000 0.000000
vn 0.000001 -1.000000 0.000000
vn 0.000001 -1.000000 0.000000
vn -0.378226 0.152186 0.913118
vn -0.378226 0.152186 0.913118
vn -0.378226 0.152186 0.913118
vn -0.378226 0.152186 0.913118
vn -0.378226 0.152186 0.913118
vn -0.378226 0.152186 0.913118
vn -0.913118 0.152186 0.378226
vn -0.913118 0.152186 0.378226
vn -0.913118 0.152186 0.378226
vn -0.913118 0.152186 0.378226
vn -0.913118 0.152186 0.378226
vn -0.913118 0.152186 0.378226
vn -0.913118 0.152186 -0.378226
vn -0.913118 0.152186 -0.378226
vn -0.913118 0.152186 -0.378226
vn -0.913118 0.152186 -0.378226
vn -0.913118 0.152186 -0.378226
vn -0.913118 0.152186 -0.378226
vn -0.378226 0.152187 -0.913118
vn -0.378226 0.152187 -0.913118
vn -0.378226 0.152187 -0.913118
vn -0.378226 0.152186 -0.913118
vn -0.378226 0.152186 -0.913118
vn -0.378226 0.152186 -0.913118
vn 0.378226 0.152186 -0.913118
vn 0.378226 0.152186 -0.913118
vn 0.378226 0.152186 -0.913118
vn 0.378226 0.152186 -0.913118
vn 0.378226 0.152186 -0.913118
vn 0.378226 0.152186 -0.913118
vn 0.378226 0.152186 0.913118
vn 0.378226 0.152186 0.913118
vn 0.378226 0.152186 0.913118
vn 0.378226 0.152186 0.913118
vn 0.378226 0.152186 0.913118
vn 0.378226 0.152186 0.913118
vn -0.000000 1.000000 0.000000
vn -0.000000 1.000000 0.000000
vn -0.000000 1.000000 0.000000
vn 0.000000 1.000000 0.000000
vn 0.000000 1.000000 0.000000
vn 0.000000 1.000000 0.000000
vn -0.000000 1.000000 0.000000
vn -0.000000 1.000000 0.000000
vn -0.000000 1.000000 0.000000
vn -0.000000 1.000000 0.000000
vn -0.000000 1.000000 0.000000
vn -0.000000 1.000000 0.000000
vn -0.000000 1.000000 0.000000
vn -0.000000 1.000000 0.000000
vn -0.000000 1.000000 0.000000
vn 0.000000 1.000000 0.000000
vn 0.000000 1.000000 0.000000
vn 0.000000 1.000000 0.000000
vn -0.000000 1.000000 0.000000
vn -0.000000 1.000000 0.000000
vn -0.000000 1.000000 0.000000
vn -0.000000 1.000000 0.000000
vn -0.000000 1.000000 0.000000
vn -0.000000 1.000000 0.000000
vn -0.000000 1.000000 0.000000
vn -0.000000 1.000000 0.000000
vn -0.000000 1.000000 0.000000
vn -0.000001 1.000000 0.000000
vn -0.000001 1.000000 0.000000
vn -0.000001 1.000000 0.000000
vn 0.000001 1.000000 0.000000
vn 0.000001 1.000000 0.000000
vn 0.000001 1.000000 0.000000
vn -0.000000 1.000000 0.000000
vn -0.000000 1.000000 0.000000
vn -0.000000 1.000000 0.000000
vn -0.000000 1.000000 0.000000
vn -0.000000 1.000000 0.000000
vn -0.000000 1.000000 0.000000
vn -0.000000 1.000000 0.000000
vn -0.000000 1.000000 0.000000
vn -0.000000 1.000000 0.000000
vn 0.000000 1.000000 0.000000
vn 0.000000 1.000000 0.000000
vn 0.000000 1.000000 0.000000
vn 0.000000 1.000000 0.000000
vn 0.000000 1.000000 0.000000
vn 0.000000 1.000000 0.000000
vn -0.000000 1.000000 0.000000
vn -0.000000 1.000000 0.000000
vn -0.000000 1.000000 0.000000
vn -0.149862 -0.988707 -0.000001
vn -0.149862 -0.988707 -0.000001
vn -0.149862 -0.988707 -0.000001
vn -0.901428 -0.432928 0.000000
vn -0.901428 -0.432928 0.000000
vn -0.901428 -0.432928 0.000000
vn 0.773880 0.633332 0.000000
vn 0.773880 0.633332 0.000000
vn 0.773880 0.633332 0.000000
vn 0.773878 0.633335 0.000000
vn 0.773878 0.633335 0.000000
vn 0.773878 0.633335 0.000000
vn -0.000001 0.000001 -1.000000
vn -0.000001 0.000001 -1.000000
vn -0.000001 0.000001 -1.000000
vn 0.913118 0.152186 -0.378226
vn 0.913118 0.152186 -0.378226
vn 0.913118 0.152186 -0.378226
vn 0.913118 0.152186 -0.378226
vn 0.913118 0.152186 -0.378226
vn 0.913118 0.152186 -0.378226
vn 0.913118 0.152186 0.378226
vn 0.913118 0.152186 0.378226
vn 0.913118 0.152186 0.378226
vn 0.913118 0.152186 0.378226
vn 0.913118 0.152186 0.378226
vn 0.913118 0.152186 0.378226
vn -0.913118 -0.152186 0.378226
vn -0.913118 -0.152186 0.378226
vn -0.913118 -0.152186 0.378226
vn -0.913118 -0.152186 0.378226
vn -0.913118 -0.152186 0.378226
vn -0.913118 -0.152186 0.378226
vn -0.913119 -0.152186 0.378224
vn -0.913119 -0.152186 0.378224
vn -0.913119 -0.152186 0.378224
vn -0.913118 -0.152186 0.378225
vn -0.913118 -0.152186 0.378225
vn -0.913118 -0.152186 0.378225
vn -0.913118 -0.152186 0.378225
vn -0.913118 -0.152186 0.378225
vn -0.913118 -0.152186 0.378225
vn -0.913118 -0.152187 0.378226
vn -0.913118 -0.152187 0.378226
vn -0.913118 -0.152187 0.378226
vn -0.913118 -0.152186 0.378226
vn -0.913118 -0.152186 0.378226
vn -0.913118 -0.152186 0.378226
vn -0.899703 -0.149950 0.409939
vn -0.899703 -0.149950 0.409939
vn -0.899703 -0.149950 0.409939
vn -0.964013 -0.153597 0.216997
vn -0.964013 -0.153597 0.216997
vn -0.964013 -0.153597 0.216997
vn -0.898618 -0.181648 0.399363
vn -0.898618 -0.181648 0.399363
vn -0.898618 -0.181648 0.399363
vn -0.913118 -0.152186 0.378226
vn -0.913118 -0.152186 0.378226
vn -0.913118 -0.152186 0.378226
vn -0.913118 -0.152186 0.378226
vn -0.913118 -0.152186 0.378226
vn -0.913118 -0.152186 0.378226
vn -0.821902 -0.136984 -0.552912
vn -0.821902 -0.136984 -0.552912
vn -0.821902 -0.136984 -0.552912
vn -0.913118 -0.152186 -0.378226
vn -0.913118 -0.152186 -0.378226
vn -0.913118 -0.152186 -0.378226
vn -0.913118 -0.152186 -0.378225
vn -0.913118 -0.152186 -0.378225
vn -0.913118 -0.152186 -0.378225
vn -0.913118 -0.152186 -0.378226
vn -0.913118 -0.152186 -0.378226
vn -0.913118 -0.152186 -0.378226
vn -0.913118 -0.152186 -0.378226
vn -0.913118 -0.152186 -0.378226
vn -0.913118 -0.152186 -0.378226
vn -0.913120 -0.152187 -0.378221
vn -0.913120 -0.152187 -0.378221
vn -0.913120 -0.152187 -0.378221
vn -0.913118 -0.152186 -0.378225
vn -0.913118 -0.152186 -0.378225
vn -0.913118 -0.152186 -0.378225
vn -0.913118 -0.152187 -0.378226
vn -0.913118 -0.152187 -0.378226
vn -0.913118 -0.152187 -0.378226
vn -0.913118 -0.152186 -0.378226
vn -0.913118 -0.152186 -0.378226
vn -0.913118 -0.152186 -0.378226
vn -0.913118 -0.152187 -0.378225
vn -0.913118 -0.152187 -0.378225
vn -0.913118 -0.152187 -0.378225
vn -0.821895 -0.136982 0.552923
vn -0.821895 -0.136982 0.552923
vn -0.821895 -0.136982 0.552923
vn -0.898618 -0.181648 -0.399363
vn -0.898618 -0.181648 -0.399363
vn -0.898618 -0.181648 -0.399363
vn -0.899702 -0.149950 -0.409940
vn -0.899702 -0.149950 -0.409940
vn -0.899702 -0.149950 -0.409940
vn -0.964013 -0.153597 -0.216995
vn -0.964013 -0.153597 -0.216995
vn -0.964013 -0.153597 -0.216995
vn -0.000000 -1.000000 0.000000
vn -0.000000 -1.000000 0.000000
vn -0.000000 -1.000000 0.000000
vn -0.000000 -1.000000 0.000000
vn -0.000000 -1.000000 0.000000
vn -0.000000 -1.000000 0.000000
vn -0.000000 -1.000000 0.000000
vn -0.000000 -1.000000 0.000000
vn -0.000000 -1.000000 0.000000
vn -0.000000 -1.000000 0.000000
vn -0.000000 -1.000000 0.000000
vn -0.000000 -1.000000 0.000000
vn -0.000000 -1.000000 0.000000
vn -0.000000 -1.000000 0.000000
vn -0.000000 -1.000000 0.000000
vn 0.000000 1.000000 0.000000
vn 0.000000 1.000000 0.000000
vn 0.000000 1.000000 0.000000
vn -0.000000 1.000000 0.000000
vn -0.000000 1.000000 0.000000
vn -0.000000 1.000000 0.000000
vn -0.000000 1.000000 0.000000
vn -0.000000 1.000000 0.000000
vn -0.000000 1.000000 0.000000
vn -0.000000 1.000000 0.000000
vn -0.000000 1.000000 0.000000
vn -0.000000 1.000000 0.000000
vn 0.000001 1.000000 0.000000
vn 0.000001 1.000000 0.000000
vn 0.000001 1.000000 0.000000
vn 0.596813 0.802380 0.000000
vn 0.596813 0.802380 0.000000
vn 0.596813 0.802380 0.000000
vn 0.596814 0.802380 -0.000000
vn 0.596814 0.802380 -0.000000
vn 0.596814 0.802380 -0.000000
vn 0.596813 0.802381 0.000000
vn 0.596813 0.802381 0.000000
vn 0.596813 0.802381 0.000000
vn 0.596812 0.802381 0.000001
vn 0.596812 0.802381 0.000001
vn 0.596812 0.802381 0.000001
vn 0.000001 -0.000001 1.000000
vn 0.000001 -0.000001 1.000000
vn 0.000001 -0.000001 1.000000
vn 0.000001 -0.000001 1.000000
vn 0.000001 -0.000001 1.000000
vn 0.000001 -0.000001 1.000000
vn -0.000001 0.000001 -1.000000
vn -0.000001 0.000001 -1.000000
vn -0.000001 0.000001 -1.000000
vn -0.000001 0.000001 -1.000000
vn -0.000001 0.000001 -1.000000
vn -0.000001 0.000001 -1.000000
vn 0.528134 0.849161 0.000000
vn 0.528134 0.849161 0.000000
vn 0.528134 0.849161 0.000000
vn 0.528132 0.849162 0.000001
vn 0.528132 0.849162 0.000001
vn 0.528132 0.849162 0.000001
vn 0.528131 0.849163 0.000000
vn 0.528131 0.849163 0.000000
vn 0.528131 0.849163 0.000000
vn 0.528133 0.849162 -0.000000
vn 0.528133 0.849162 -0.000000
vn 0.528133 0.849162 -0.000000
vn -0.531705 -0.846929 0.000001
vn -0.531705 -0.846929 0.000001
vn -0.531705 -0.846929 0.000001
vn -0.531708 -0.846928 0.000001
vn -0.531708 -0.846928 0.000001
vn -0.531708 -0.846928 0.000001
vn -0.918806 -0.394710 0.000000
vn -0.918806 -0.394710 0.000000
vn -0.918806 -0.394710 0.000000
vn -0.918806 -0.394710 0.000001
vn -0.918806 -0.394710 0.000001
vn -0.918806 -0.394710 0.000001
vn -0.918806 -0.394710 0.000000
vn -0.918806 -0.394710 0.000000
vn -0.918806 -0.394710 0.000000
vn -0.918806 -0.394709 0.000000
vn -0.918806 -0.394709 0.000000
vn -0.918806 -0.394709 0.000000

g Material.001
f 3/1/1 1/2/2 2/3/3
f 6/4/4 4/5/5 5/6/6
f 9/7/7 7/8/8 8/9/9
f 10/10/10 7/11/11 9/12/12
f 13/13/13 11/14/14 12/15/15
f 14/16/16 11/17/17 13/18/18
f 17/19/19 15/20/20 16/21/21
f 18/22/22 15/23/23 17/24/24
f 21/25/25 19/26/26 20/27/27
f 24/28/28 22/29/29 23/30/30
f 25/31/31 22/32/32 24/33/33
f 28/34/34 26/35/35 27/36/36
f 29/37/37 26/38/38 28/39/39
f 32/40/40 30/41/41 31/42/42
f 35/43/43 33/44/44 34/45/45
f 36/46/46 33/47/47 35/48/48
f 39/49/49 37/50/50 38/51/51
f 40/52/52 37/53/53 39/54/54
f 43/55/55 41/56/56 42/57/57
f 44/58/58 41/59/59 43/60/60
f 47/61/61 45/62/62 46/63/63
f 48/64/64 45/65/65 47/66/66
f 51/67/67 49/68/68 50/69/69
f 52/70/70 49/71/71 51/72/72
f 55/73/73 53/74/74 54/75/75
f 56/76/76 53/77/77 55/78/78
f 59/79/79 57/80/80 58/81/81
f 60/82/82 57/83/83 59/84/84
f 63/85/85 61/86/86 62/87/87
f 64/88/88 61/89/89 63/90/90
f 67/91/91 65/92/92 66/93/93
f 68/94/94 65/95/95 67/96/96
f 71/97/97 69/98/98 70/99/99
f 72/100/100 69/101/101 71/102/102
f 75/103/103 73/104/104 74/105/105
f 76/106/106 73/107/107 75/108/108
f 79/109/109 77/110/110 78/111/111
f 80/112/112 77/113/113 79/114/114
f 83/115/115 81/116/116 82/117/117
f 84/118/118 81/119/119 83/120/120
f 87/121/121 85/122/122 86/123/123
f 88/124/124 85/125/125 87/126/126
f 91/127/127 89/128/128 90/129/129
f 92/130/130 89/131/131 91/132/132
f 95/133/133 93/134/134 94/135/135
f 96/136/136 93/137/137 95/138/138
f 99/139/139 97/140/140 98/141/141
f 100/142/142 97/143/143 99/144/144
f 103/145/145 101/146/146 102/147/147
f 104/148/148 101/149/149 103/150/150
f 107/151/151 105/152/152 106/153/153
f 108/154/154 105/155/155 107/156/156
f 111/157/157 109/158/158 110/159/159
f 112/160/160 109/161/161 111/162/162
f 115/163/163 113/164/164 114/165/165
f 116/166/166 113/167/167 115/168/168
f 119/169/169 117/170/170 118/171/171
f 120/172/172 117/173/173 119/174/174
f 123/175/175 121/176/176 122/177/177
f 124/178/178 121/179/179 123/180/180
f 127/181/181 125/182/182 126/183/183
f 128/184/184 125/185/185 127/186/186
f 131/187/187 129/188/188 130/189/189
f 132/190/190 129/191/191 131/192/192
f 135/193/193 133/194/194 134/195/195
f 136/196/196 133/197/197 135/198/198
f 139/199/199 137/200/200 138/201/201
f 140/202/202 137/203/203 139/204/204
f 143/205/205 141/206/206 142/207/207
f 144/208/208 141/209/209 143/210/210
f 147/211/211 145/212/212 146/213/213
f 148/214/214 145/215/215 147/216/216
f 151/217/217 149/218/218 150/219/219
f 152/220/220 149/221/221 151/222/222
f 155/223/223 153/224/224 154/225/225
f 156/226/226 153/227/227 155/228/228
f 159/229/229 157/230/230 158/231/231
f 160/232/232 157/233/233 159/234/234
f 163/235/235 161/236/236 162/237/237
f 164/238/238 161/239/239 163/240/240
f 167/241/241 165/242/242 166/243/243
f 168/244/244 165/245/245 167/246/246
f 171/247/247 169/248/248 170/249/249
f 172/250/250 169/251/251 171/252/252
f 175/253/253 173/254/254 174/255/255
f 176/256/256 173/257/257 175/258/258
f 179/259/259 177/260/260 178/261/261
f 180/262/262 177/263/263 179/264/264
f 183/265/265 181/266/266 182/267/267
f 184/268/268 181/269/269 183/270/270
f 187/271/271 185/272/272 186/273/273
f 190/274/274 188/275/275 189/276/276
f 191/277/277 188/278/278 190/279/279
f 194/280/280 192/281/281 193/282/282
f 197/283/283 195/284/284 196/285/285
f 198/286/286 195/287/287 197/288/288
f 201/289/289 199/290/290 200/291/291
f 204/292/292 202/293/293 203/294/294
f 205/295/295 202/296/296 204/297/297
f 208/298/298 206/299/299 207/300/300
f 209/301/301 206/302/302 208/303/303
f 212/304/304 210/305/305 211/306/306
f 213/307/307 210/308/308 212/309/309
f 216/310/310 214/311/311 215/312/312
f 217/313/313 214/314/314 216/315/315
f 220/316/316 218/317/317 219/318/318
f 221/319/319 218/320/320 220/321/321
f 224/322/322 222/323/323 223/324/324
f 225/325/325 222/326/326 224/327/327
f 228/328/328 226/329/329 227/330/330
f 229/331/331 226/332/332 228/333/333
f 232/334/334 230/335/335 231/336/336
f 235/337/337 233/338/338 234/339/339
f 238/340/340 236/341/341 237/342/342
f 239/343/343 236/344/344 238/345/345
f 242/346/346 240/347/347 241/348/348
f 245/349/349 243/350/350 244/351/351
f 246/352/352 243/353/353 245/354/354
f 249/355/355 247/356/356 248/357/357
f 250/358/358 247/359/359 249/360/360
f 253/361/361 251/362/362 252/363/363
f 254/364/364 251/365/365 253/366/366
f 257/367/367 255/368/368 256/369/369
f 258/370/370 255/371/371 257/372/372
f 261/373/373 259/374/374 260/375/375
f 262/376/376 259/377/377 261/378/378
f 265/379/379 263/380/380 264/381/381
f 266/382/382 263/383/383 265/384/384
f 269/385/385 267/386/386 268/387/387
f 272/388/388 270/389/389 271/390/390
f 273/391/391 270/392/392 272/393/393
f 276/394/394 274/395/395 275/396/396
f 277/397/397 274/398/398 276/399/399
f 280/400/400 278/401/401 279/402/402
f 281/403/403 278/404/404 280/405/405
f 284/406/406 282/407/407 283/408/408
f 285/409/409 282/410/410 284/411/411
f 288/412/412 286/413/413 287/414/414
f 289/415/415 286/416/416 288/417/417
f 292/418/418 290/419/419 291/420/420
f 293/421/421 290/422/422 292/423/423
f 296/424/424 294/425/425 295/426/426
f 297/427/427 294/428/428 296/429/429
f 300/430/430 298/431/431 299/432/432
f 301/433/433 298/434/434 300/435/435
f 304/436/436 302/437/437 303/438/438
f 307/439/439 305/440/440 306/441/441
f 310/442/442 308/443/443 309/444/444
f 313/445/445 311/446/446 312/447/447
f 316/448/448 314/449/449 315/450/450
f 319/451/451 317/452/452 318/453/453
f 320/454/454 317/455/455 319/456/456
f 323/457/457 321/458/458 322/459/459
f 324/460/460 321/461/461 323/462/462
f 327/463/463 325/464/464 326/465/465
f 330/466/466 328/467/467 329/468/468
f 333/469/469 331/470/470 332/471/471
f 336/472/472 334/473/473 335/474/474
f 339/475/475 337/476/476 338/477/477
f 342/478/478 340/479/479 341/480/480
f 345/481/481 343/482/482 344/483/483
f 348/484/484 346/485/485 347/486/486
f 351/487/487 349/488/488 350/489/489
f 354/490/490 352/491/491 353/492/492
f 357/493/493 355/494/494 356/495/495
f 360/496/496 358/497/497 359/498/498
f 363/499/499 361/500/500 362/501/501
f 366/502/502 364/503/503 365/504/504
f 369/505/505 367/506/506 368/507/507
f 372/508/508 370/509/509 371/510/510
f 375/511/511 373/512/512 374/513/513
f 378/514/514 376/515/515 377/516/516
f 381/517/517 379/518/518 380/519/519
f 384/520/520 382/521/521 383/522/522
f 387/523/523 385/524/524 386/525/525
f 390/526/526 388/527/527 389/528/528
f 393/529/529 391/530/530 392/531/531
f 396/532/532 394/533/533 395/534/534
f 399/535/535 397/536/536 398/537/537
f 402/538/538 400/539/539 401/540/540
f 405/541/541 403/542/542 404/543/543
f 408/544/544 406/545/545 407/546/546
f 411/547/547 409/548/548 410/549/549
f 414/550/550 412/551/551 413/552/552
f 417/553/553 415/554/554 416/555/555
f 420/556/556 418/557/557 419/558/558
f 423/559/559 421/560/560 422/561/561
f 426/562/562 424/563/563 425/564/564
f 429/565/565 427/566/566 428/567/567
f 432/568/568 430/569/569 431/570/570
f 435/571/571 433/572/572 434/573/573
f 438/574/574 436/575/575 437/576/576
f 441/577/577 439/578/578 440/579/579
f 444/580/580 442/581/581 443/582/582
f 447/583/583 445/584/584 446/585/585
f 450/586/586 448/587/587 449/588/588
f 453/589/589 451/590/590 452/591/591
f 456/592/592 454/593/593 455/594/594
f 459/595/595 457/596/596 458/597/597
f 462/598/598 460/599/599 461/600/600
f 465/601/601 463/602/602 464/603/603
f 468/604/604 466/605/605 467/606/606
f 471/607/607 469/608/608 470/609/609
f 474/610/610 472/611/611 473/612/612
f 477/613/613 475/614/614 476/615/615
f 480/616/616 478/617/617 479/618/618
f 483/619/619 481/620/620 482/621/621
f 486/622/622 484/623/623 485/624/624

