# Converted from B3D for Luanti (With Correct Normals)
# Object Name: multidecor_fridge_upper_door

v 0.000000 1.600000 0.100000
v -0.000000 1.600000 0.000000
v -2.000000 1.600000 0.000000
v -2.000000 1.600000 0.100000
v -2.000000 -1.000000 0.100000
v -2.000000 1.600000 0.100000
v -2.000000 1.600000 0.000000
v -2.000000 -1.000000 0.000000
v -2.000000 -1.000000 0.000000
v -2.000000 1.600000 0.000000
v -0.000000 1.600000 0.000000
v -0.000000 -1.000000 0.000000
v 0.000000 -1.000000 0.100000
v 0.000000 -1.000000 0.200000
v -2.000000 -1.000000 0.200000
v -2.000000 -1.000000 0.100000
v 0.000000 -1.000000 0.200000
v 0.000000 1.600000 0.200000
v -2.000000 1.600000 0.200000
v -2.000000 -1.000000 0.200000
v 0.000000 -1.000000 0.100000
v 0.000000 1.600000 0.100000
v 0.000000 1.600000 0.200000
v 0.000000 -1.000000 0.200000
v -1.700000 -0.700000 0.350000
v -1.700000 0.300000 0.350000
v -1.729289 0.300000 0.420711
v -1.729289 -0.700000 0.420711
v -1.729289 -0.700000 0.420711
v -1.729289 0.300000 0.420711
v -1.800000 0.300000 0.450000
v -1.800000 -0.700000 0.450000
v -1.800000 -0.700000 0.450000
v -1.800000 0.300000 0.450000
v -1.870711 0.300000 0.420711
v -1.870711 -0.700000 0.420711
v -1.870711 -0.700000 0.420711
v -1.870711 0.300000 0.420711
v -1.900000 0.300000 0.350000
v -1.900000 -0.700000 0.350000
v -1.900000 -0.700000 0.350000
v -1.900000 0.300000 0.350000
v -1.870711 0.300000 0.279289
v -1.870711 -0.700000 0.279289
v -1.870711 -0.700000 0.279289
v -1.870711 0.300000 0.279289
v -1.800000 0.300000 0.250000
v -1.800000 -0.700000 0.250000
v -1.700000 0.300000 0.350000
v -1.800000 0.300000 0.250000
v -1.900000 0.300000 0.350000
v -1.800000 -0.700000 0.250000
v -1.800000 0.300000 0.250000
v -1.729289 0.300000 0.279289
v -1.729289 -0.700000 0.279289
v -1.729289 -0.700000 0.279289
v -1.729289 0.300000 0.279289
v -1.700000 0.300000 0.350000
v -1.700000 -0.700000 0.350000
v -1.729289 -0.700000 0.279289
v -1.729289 -0.700000 0.420711
v -1.870711 -0.700000 0.420711
v -1.900000 0.200000 0.200000
v -1.900000 0.300000 0.200000
v -1.750000 0.300000 0.279289
v -1.750000 0.200000 0.279289
v -1.800000 0.300000 0.450000
v -1.729289 0.300000 0.420711
v -1.700000 0.300000 0.350000
v -1.850000 0.200000 0.279289
v -1.850000 0.300000 0.279289
v -2.000000 0.300000 0.200000
v -2.000000 0.200000 0.200000
v -1.900000 0.200000 0.200000
v -1.750000 0.200000 0.279289
v -1.850000 0.200000 0.279289
v -2.000000 0.200000 0.200000
v -1.750000 0.300000 0.279289
v -1.900000 0.300000 0.200000
v -2.000000 0.300000 0.200000
v -1.850000 0.300000 0.279289
v -1.900000 -0.700000 0.200000
v -1.900000 -0.600000 0.200000
v -1.750000 -0.600000 0.279289
v -1.750000 -0.700000 0.279289
v -1.850000 -0.700000 0.279289
v -1.850000 -0.600000 0.279289
v -2.000000 -0.600000 0.200000
v -2.000000 -0.700000 0.200000
v -1.900000 -0.700000 0.200000
v -1.750000 -0.700000 0.279289
v -1.850000 -0.700000 0.279289
v -2.000000 -0.700000 0.200000
v -1.750000 -0.600000 0.279289
v -1.900000 -0.600000 0.200000
v -2.000000 -0.600000 0.200000
v -1.850000 -0.600000 0.279289
v -1.700000 0.300000 0.350000
v -1.729289 0.300000 0.279289
v -1.800000 0.300000 0.250000
v -1.800000 0.300000 0.250000
v -1.870711 0.300000 0.279289
v -1.900000 0.300000 0.350000
v -1.900000 0.300000 0.350000
v -1.870711 0.300000 0.420711
v -1.800000 0.300000 0.450000
v -1.800000 0.300000 0.450000
v -1.700000 0.300000 0.350000
v -1.900000 0.300000 0.350000
v -1.729289 -0.700000 0.279289
v -1.700000 -0.700000 0.350000
v -1.729289 -0.700000 0.420711
v -1.729289 -0.700000 0.420711
v -1.800000 -0.700000 0.450000
v -1.870711 -0.700000 0.420711
v -1.870711 -0.700000 0.420711
v -1.900000 -0.700000 0.350000
v -1.729289 -0.700000 0.279289
v -1.900000 -0.700000 0.350000
v -1.870711 -0.700000 0.279289
v -1.729289 -0.700000 0.279289
v -1.870711 -0.700000 0.279289
v -1.800000 -0.700000 0.250000
v -1.729289 -0.700000 0.279289
v -0.000000 -1.000000 0.000000
v -0.000000 1.600000 0.000000
v 0.000000 1.600000 0.100000
v 0.000000 -1.000000 0.100000
v -0.000000 -1.000000 0.000000
v 0.000000 -1.000000 0.100000
v -2.000000 -1.000000 0.100000
v -2.000000 -1.000000 0.000000
v -2.000000 -1.000000 0.200000
v -2.000000 1.600000 0.200000
v -2.000000 1.600000 0.100000
v -2.000000 -1.000000 0.100000
v 0.000000 1.600000 0.200000
v 0.000000 1.600000 0.100000
v -2.000000 1.600000 0.100000
v -2.000000 1.600000 0.200000

vt 0.749939 0.895733
vt 0.731430 0.525542
vt 0.749939 0.525542
vt 0.731430 0.895733
vt 0.731430 0.525542
vt 0.749939 0.895733
vt 0.731308 0.544052
vt 0.250061 0.525542
vt 0.731308 0.525543
vt 0.250061 0.544052
vt 0.250061 0.525542
vt 0.731308 0.544052
vt 0.731308 0.914242
vt 0.250061 0.544052
vt 0.731308 0.544052
vt 0.250061 0.914242
vt 0.250061 0.544052
vt 0.731308 0.914242
vt 0.731308 0.932752
vt 0.250061 0.914242
vt 0.731308 0.914242
vt 0.250061 0.932752
vt 0.250061 0.914242
vt 0.731308 0.932752
vt 0.620252 0.932874
vt 0.250061 0.951383
vt 0.250061 0.932874
vt 0.620252 0.951383
vt 0.250061 0.951383
vt 0.620252 0.932874
vt 0.142827 0.032149
vt 0.856963 -0.003557
vt 0.856963 0.032150
vt 0.142827 -0.003557
vt 0.856963 -0.003557
vt 0.142827 0.032149
vt 0.142827 0.960526
vt 0.856963 0.032150
vt 0.856963 0.960526
vt 0.142827 0.032149
vt 0.856963 0.032150
vt 0.142827 0.960526
vt 0.892880 0.067862
vt 0.857173 0.996233
vt 0.857174 0.067862
vt 0.892880 0.996233
vt 0.857173 0.996233
vt 0.892880 0.067862
vt 0.107120 0.960526
vt 0.142827 0.032149
vt 0.142827 0.960526
vt 0.107120 0.032149
vt 0.142827 0.032149
vt 0.107120 0.960526
vt 0.142827 0.996233
vt 0.856963 0.960526
vt 0.856963 0.996233
vt 0.142827 0.960526
vt 0.856963 0.960526
vt 0.142827 0.996233
vt 0.000211 0.076716
vt 0.999789 0.153221
vt 0.000211 0.153220
vt 0.999789 0.076716
vt 0.999789 0.153221
vt 0.000211 0.076716
vt 0.000211 0.000212
vt 0.999789 0.076716
vt 0.000211 0.076716
vt 0.999789 0.000211
vt 0.999789 0.076716
vt 0.000211 0.000212
vt 0.000211 0.535742
vt 0.999788 0.612249
vt 0.000211 0.612247
vt 0.999788 0.535744
vt 0.999788 0.612249
vt 0.000211 0.535742
vt 0.000211 0.459238
vt 0.999788 0.535744
vt 0.000211 0.535742
vt 0.999789 0.459240
vt 0.999788 0.535744
vt 0.000211 0.459238
vt 0.000211 0.382734
vt 0.999789 0.459240
vt 0.000211 0.459238
vt 0.999789 0.382735
vt 0.999789 0.459240
vt 0.000211 0.382734
vt 0.000211 0.306229
vt 0.999789 0.382735
vt 0.000211 0.382734
vt 0.999789 0.306230
vt 0.999789 0.382735
vt 0.000211 0.306229
vt 0.370030 0.666768
vt 0.185332 0.743273
vt 0.239428 0.612671
vt 0.000211 0.229725
vt 0.999789 0.306230
vt 0.000211 0.306229
vt 0.999789 0.229725
vt 0.999789 0.306230
vt 0.000211 0.229725
vt 0.000211 0.153220
vt 0.999789 0.229725
vt 0.000211 0.229725
vt 0.999789 0.153221
vt 0.999789 0.229725
vt 0.000211 0.153220
vt 0.054308 0.612671
vt 0.130812 0.797370
vt 0.000211 0.743273
vt 0.470410 0.882647
vt 0.370452 0.713052
vt 0.470410 0.713052
vt 0.370452 0.882647
vt 0.370452 0.713052
vt 0.470410 0.882647
vt 0.185332 0.743273
vt 0.315933 0.797370
vt 0.239428 0.797370
vt 0.710065 0.612671
vt 0.540470 0.712629
vt 0.540470 0.612671
vt 0.710065 0.712629
vt 0.540470 0.712629
vt 0.710065 0.612671
vt 0.540470 0.882647
vt 0.587182 0.801423
vt 0.587182 0.971018
vt 0.540470 0.713052
vt 0.587182 0.801423
vt 0.540470 0.882647
vt 0.857580 0.612671
vt 0.810867 0.870638
vt 0.810867 0.701043
vt 0.857580 0.782267
vt 0.810867 0.870638
vt 0.857580 0.612671
vt 0.710487 0.612671
vt 0.810445 0.782267
vt 0.710487 0.782267
vt 0.810445 0.612671
vt 0.810445 0.782267
vt 0.710487 0.612671
vt 0.540047 0.612671
vt 0.370452 0.712629
vt 0.370452 0.612671
vt 0.540047 0.712629
vt 0.370452 0.712629
vt 0.540047 0.612671
vt 0.905137 0.782266
vt 0.951850 0.701043
vt 0.951850 0.870638
vt 0.905137 0.612671
vt 0.951850 0.701043
vt 0.905137 0.782266
vt 0.904715 0.612671
vt 0.858003 0.870638
vt 0.858002 0.701043
vt 0.904715 0.782267
vt 0.858003 0.870638
vt 0.904715 0.612671
vt 0.239428 0.612671
vt 0.185332 0.743273
vt 0.185332 0.666768
vt 0.370030 0.666768
vt 0.239428 0.612671
vt 0.315933 0.612671
vt 0.315933 0.797370
vt 0.370030 0.666768
vt 0.370030 0.743273
vt 0.370030 0.666768
vt 0.315933 0.797370
vt 0.185332 0.743273
vt 0.000211 0.743273
vt 0.130812 0.797370
vt 0.054308 0.797370
vt 0.054308 0.612671
vt 0.000211 0.743273
vt 0.000211 0.666768
vt 0.130812 0.797370
vt 0.054308 0.612671
vt 0.130812 0.612671
vt 0.130812 0.797370
vt 0.130812 0.612671
vt 0.184909 0.666768
vt 0.130812 0.797370
vt 0.184909 0.666768
vt 0.184909 0.743273

vn -0.000000 1.000000 0.000000
vn -0.000000 1.000000 0.000000
vn -0.000000 1.000000 0.000000
vn -0.000000 1.000000 0.000000
vn -0.000000 1.000000 0.000000
vn -0.000000 1.000000 0.000000
vn -1.000000 0.000000 0.000000
vn -1.000000 0.000000 0.000000
vn -1.000000 0.000000 0.000000
vn -1.000000 0.000000 0.000000
vn -1.000000 0.000000 0.000000
vn -1.000000 0.000000 0.000000
vn -0.000000 0.000000 -1.000000
vn -0.000000 0.000000 -1.000000
vn -0.000000 0.000000 -1.000000
vn -0.000000 0.000000 -1.000000
vn -0.000000 0.000000 -1.000000
vn -0.000000 0.000000 -1.000000
vn 1.000000 0.000000 -0.000000
vn 1.000000 0.000000 -0.000000
vn 1.000000 0.000000 -0.000000
vn 1.000000 0.000000 -0.000000
vn 1.000000 0.000000 -0.000000
vn 1.000000 0.000000 -0.000000
vn -0.000000 -1.000000 0.000000
vn -0.000000 -1.000000 0.000000
vn -0.000000 -1.000000 0.000000
vn -0.000000 -1.000000 0.000000
vn -0.000000 -1.000000 0.000000
vn -0.000000 -1.000000 0.000000
vn -0.000000 -1.000000 0.000000
vn -0.000000 -1.000000 0.000000
vn -0.000000 -1.000000 0.000000
vn -0.000000 -1.000000 0.000000
vn -0.000000 -1.000000 0.000000
vn -0.000000 -1.000000 0.000000
vn 0.000000 0.000000 1.000000
vn 0.000000 0.000000 1.000000
vn 0.000000 0.000000 1.000000
vn 0.000000 0.000000 1.000000
vn 0.000000 0.000000 1.000000
vn 0.000000 0.000000 1.000000
vn 1.000000 0.000000 -0.000000
vn 1.000000 0.000000 -0.000000
vn 1.000000 0.000000 -0.000000
vn 1.000000 0.000000 -0.000000
vn 1.000000 0.000000 -0.000000
vn 1.000000 0.000000 -0.000000
vn -1.000000 0.000000 0.000000
vn -1.000000 0.000000 0.000000
vn -1.000000 0.000000 0.000000
vn -1.000000 0.000000 0.000000
vn -1.000000 0.000000 0.000000
vn -1.000000 0.000000 0.000000
vn -0.000000 1.000000 0.000000
vn -0.000000 1.000000 0.000000
vn -0.000000 1.000000 0.000000
vn -0.000000 1.000000 0.000000
vn -0.000000 1.000000 0.000000
vn -0.000000 1.000000 0.000000
vn 0.923880 0.000000 0.382682
vn 0.923880 0.000000 0.382682
vn 0.923880 0.000000 0.382682
vn 0.923879 0.000000 0.382685
vn 0.923879 0.000000 0.382685
vn 0.923879 0.000000 0.382685
vn 0.382683 0.000000 0.923880
vn 0.382683 0.000000 0.923880
vn 0.382683 0.000000 0.923880
vn 0.382683 0.000000 0.923880
vn 0.382683 0.000000 0.923880
vn 0.382683 0.000000 0.923880
vn -0.382683 0.000000 0.923880
vn -0.382683 0.000000 0.923880
vn -0.382683 0.000000 0.923880
vn -0.382683 0.000000 0.923880
vn -0.382683 0.000000 0.923880
vn -0.382683 0.000000 0.923880
vn -0.923880 0.000000 0.382682
vn -0.923880 0.000000 0.382682
vn -0.923880 0.000000 0.382682
vn -0.923880 0.000000 0.382682
vn -0.923880 0.000000 0.382682
vn -0.923880 0.000000 0.382682
vn -0.923880 0.000000 -0.382683
vn -0.923880 0.000000 -0.382683
vn -0.923880 0.000000 -0.382683
vn -0.923880 0.000000 -0.382683
vn -0.923880 0.000000 -0.382683
vn -0.923880 0.000000 -0.382683
vn -0.382684 0.000000 -0.923879
vn -0.382684 0.000000 -0.923879
vn -0.382684 0.000000 -0.923879
vn -0.382684 0.000000 -0.923879
vn -0.382684 0.000000 -0.923879
vn -0.382684 0.000000 -0.923879
vn -0.000000 1.000000 0.000000
vn -0.000000 1.000000 0.000000
vn -0.000000 1.000000 0.000000
vn 0.382684 0.000000 -0.923879
vn 0.382684 0.000000 -0.923879
vn 0.382684 0.000000 -0.923879
vn 0.382684 0.000000 -0.923879
vn 0.382684 0.000000 -0.923879
vn 0.382684 0.000000 -0.923879
vn 0.923879 0.000000 -0.382685
vn 0.923879 0.000000 -0.382685
vn 0.923879 0.000000 -0.382685
vn 0.923880 0.000000 -0.382683
vn 0.923880 0.000000 -0.382683
vn 0.923880 0.000000 -0.382683
vn -0.000000 -1.000000 0.000000
vn -0.000000 -1.000000 0.000000
vn -0.000000 -1.000000 0.000000
vn 0.467324 0.000000 -0.884086
vn 0.467324 0.000000 -0.884086
vn 0.467324 0.000000 -0.884086
vn 0.467325 0.000000 -0.884086
vn 0.467325 0.000000 -0.884086
vn 0.467325 0.000000 -0.884086
vn -0.000000 1.000000 0.000000
vn -0.000000 1.000000 0.000000
vn -0.000000 1.000000 0.000000
vn -0.467325 0.000000 0.884086
vn -0.467325 0.000000 0.884086
vn -0.467325 0.000000 0.884086
vn -0.467324 0.000000 0.884086
vn -0.467324 0.000000 0.884086
vn -0.467324 0.000000 0.884086
vn -0.000000 -1.000000 0.000000
vn -0.000000 -1.000000 0.000000
vn -0.000000 -1.000000 0.000000
vn -0.000000 -1.000000 0.000000
vn -0.000000 -1.000000 0.000000
vn -0.000000 -1.000000 0.000000
vn -0.000000 1.000000 0.000000
vn -0.000000 1.000000 0.000000
vn -0.000000 1.000000 0.000000
vn -0.000000 1.000000 0.000000
vn -0.000000 1.000000 0.000000
vn -0.000000 1.000000 0.000000
vn 0.467324 0.000000 -0.884086
vn 0.467324 0.000000 -0.884086
vn 0.467324 0.000000 -0.884086
vn 0.467325 0.000000 -0.884086
vn 0.467325 0.000000 -0.884086
vn 0.467325 0.000000 -0.884086
vn -0.467325 0.000000 0.884086
vn -0.467325 0.000000 0.884086
vn -0.467325 0.000000 0.884086
vn -0.467324 0.000000 0.884086
vn -0.467324 0.000000 0.884086
vn -0.467324 0.000000 0.884086
vn -0.000000 -1.000000 0.000000
vn -0.000000 -1.000000 0.000000
vn -0.000000 -1.000000 0.000000
vn -0.000000 -1.000000 0.000000
vn -0.000000 -1.000000 0.000000
vn -0.000000 -1.000000 0.000000
vn -0.000000 1.000000 0.000000
vn -0.000000 1.000000 0.000000
vn -0.000000 1.000000 0.000000
vn -0.000000 1.000000 0.000000
vn -0.000000 1.000000 0.000000
vn -0.000000 1.000000 0.000000
vn -0.000000 1.000000 0.000000
vn -0.000000 1.000000 0.000000
vn -0.000000 1.000000 0.000000
vn -0.000000 1.000000 0.000000
vn -0.000000 1.000000 0.000000
vn -0.000000 1.000000 0.000000
vn -0.000000 1.000000 0.000000
vn -0.000000 1.000000 0.000000
vn -0.000000 1.000000 0.000000
vn -0.000000 1.000000 0.000000
vn -0.000000 1.000000 0.000000
vn -0.000000 1.000000 0.000000
vn -0.000000 -1.000000 0.000000
vn -0.000000 -1.000000 0.000000
vn -0.000000 -1.000000 0.000000
vn -0.000000 -1.000000 0.000000
vn -0.000000 -1.000000 0.000000
vn -0.000000 -1.000000 0.000000
vn -0.000000 -1.000000 0.000000
vn -0.000000 -1.000000 0.000000
vn -0.000000 -1.000000 0.000000
vn -0.000000 -1.000000 0.000000
vn -0.000000 -1.000000 0.000000
vn -0.000000 -1.000000 0.000000
vn -0.000000 -1.000000 0.000000
vn -0.000000 -1.000000 0.000000
vn -0.000000 -1.000000 0.000000

g Material.002
f 3/1/1 1/2/2 2/3/3
f 4/4/4 1/5/5 3/6/6
f 7/7/7 5/8/8 6/9/9
f 8/10/10 5/11/11 7/12/12
f 11/13/13 9/14/14 10/15/15
f 12/16/16 9/17/17 11/18/18
f 127/19/19 125/20/20 126/21/21
f 128/22/22 125/23/23 127/24/24
f 131/25/25 129/26/26 130/27/27
f 132/28/28 129/29/29 131/30/30

g Material
f 15/31/31 13/32/32 14/33/33
f 16/34/34 13/35/35 15/36/36
f 19/37/37 17/38/38 18/39/39
f 20/40/40 17/41/41 19/42/42
f 23/43/43 21/44/44 22/45/45
f 24/46/46 21/47/47 23/48/48
f 135/49/49 133/50/50 134/51/51
f 136/52/52 133/53/53 135/54/54
f 139/55/55 137/56/56 138/57/57
f 140/58/58 137/59/59 139/60/60

g Material.001
f 27/61/61 25/62/62 26/63/63
f 28/64/64 25/65/65 27/66/66
f 31/67/67 29/68/68 30/69/69
f 32/70/70 29/71/71 31/72/72
f 35/73/73 33/74/74 34/75/75
f 36/76/76 33/77/77 35/78/78
f 39/79/79 37/80/80 38/81/81
f 40/82/82 37/83/83 39/84/84
f 43/85/85 41/86/86 42/87/87
f 44/88/88 41/89/89 43/90/90
f 47/91/91 45/92/92 46/93/93
f 48/94/94 45/95/95 47/96/96
f 51/97/97 49/98/98 50/99/99
f 54/100/100 52/101/101 53/102/102
f 55/103/103 52/104/104 54/105/105
f 58/106/106 56/107/107 57/108/108
f 59/109/109 56/110/110 58/111/111
f 62/112/112 60/113/113 61/114/114
f 65/115/115 63/116/116 64/117/117
f 66/118/118 63/119/119 65/120/120
f 69/121/121 67/122/122 68/123/123
f 72/124/124 70/125/125 71/126/126
f 73/127/127 70/128/128 72/129/129
f 76/130/130 74/131/131 75/132/132
f 77/133/133 74/134/134 76/135/135
f 80/136/136 78/137/137 79/138/138
f 81/139/139 78/140/140 80/141/141
f 84/142/142 82/143/143 83/144/144
f 85/145/145 82/146/146 84/147/147
f 88/148/148 86/149/149 87/150/150
f 89/151/151 86/152/152 88/153/153
f 92/154/154 90/155/155 91/156/156
f 93/157/157 90/158/158 92/159/159
f 96/160/160 94/161/161 95/162/162
f 97/163/163 94/164/164 96/165/165
f 100/166/166 98/167/167 99/168/168
f 103/169/169 101/170/170 102/171/171
f 106/172/172 104/173/173 105/174/174
f 109/175/175 107/176/176 108/177/177
f 112/178/178 110/179/179 111/180/180
f 115/181/181 113/182/182 114/183/183
f 118/184/184 116/185/185 117/186/186
f 121/187/187 119/188/188 120/189/189
f 124/190/190 122/191/191 123/192/192

