# Converted from B3D for Luanti (With Correct Normals)
# Object Name: multidecor_round_metallic_table

v 0.800000 -1.000000 0.872000
v 0.600000 0.800000 0.672000
v 0.537646 0.800000 0.636000
v 0.737646 -1.000000 0.836000
v 0.737646 -1.000000 0.836000
v 0.537646 0.800000 0.636000
v 0.537646 0.800000 0.564000
v 0.737646 -1.000000 0.764000
v 0.737646 -1.000000 0.764000
v 0.537646 0.800000 0.564000
v 0.600000 0.800000 0.528000
v 0.800000 -1.000000 0.728000
v 0.800000 -1.000000 0.728000
v 0.600000 0.800000 0.528000
v 0.662354 0.800000 0.564000
v 0.862354 -1.000000 0.764000
v 0.862354 -1.000000 0.764000
v 0.662354 0.800000 0.564000
v 0.662354 0.800000 0.636000
v 0.862354 -1.000000 0.836000
v 0.862354 -1.000000 0.836000
v 0.662354 0.800000 0.636000
v 0.600000 0.800000 0.672000
v 0.800000 -1.000000 0.872000
v 0.800000 -1.000000 0.728000
v 0.862354 -1.000000 0.764000
v 0.862354 -1.000000 0.836000
v -0.000000 0.800000 1.200000
v -0.000000 1.000000 1.200000
v -0.600000 1.000000 1.039230
v -0.600000 0.800000 1.039230
v -0.600000 0.800000 1.039230
v -0.600000 1.000000 1.039230
v -1.039231 1.000000 0.600000
v -1.039231 0.800000 0.600000
v -1.039231 0.800000 0.600000
v -1.039231 1.000000 0.600000
v -1.200000 1.000000 -0.000000
v -1.200000 0.800000 -0.000000
v -1.200000 0.800000 -0.000000
v -1.200000 1.000000 -0.000000
v -1.039230 1.000000 -0.600000
v -1.039230 0.800000 -0.600000
v -1.039230 0.800000 -0.600000
v -1.039230 1.000000 -0.600000
v -0.600000 1.000000 -1.039230
v -0.600000 0.800000 -1.039230
v -0.600000 0.800000 -1.039230
v -0.600000 1.000000 -1.039230
v 0.000000 1.000000 -1.200000
v 0.000000 0.800000 -1.200000
v 0.000000 0.800000 -1.200000
v 0.000000 1.000000 -1.200000
v 0.600000 1.000000 -1.039230
v 0.600000 0.800000 -1.039230
v 0.600000 0.800000 -1.039230
v 0.600000 1.000000 -1.039230
v 1.039231 1.000000 -0.600000
v 1.039231 0.800000 -0.600000
v 1.039231 0.800000 -0.600000
v 1.039231 1.000000 -0.600000
v 1.200000 1.000000 0.000000
v 1.200000 0.800000 0.000000
v 1.200000 0.800000 0.000000
v 1.200000 1.000000 0.000000
v 1.039231 1.000000 0.600000
v 1.039231 0.800000 0.600000
v -1.039230 1.000000 -0.600000
v -1.039231 1.000000 0.600000
v 1.039231 1.000000 0.600000
v 1.039231 0.800000 0.600000
v 1.039231 1.000000 0.600000
v 0.600000 1.000000 1.039230
v 0.600000 0.800000 1.039230
v 0.600000 0.800000 1.039230
v 0.600000 1.000000 1.039230
v -0.000000 1.000000 1.200000
v -0.000000 0.800000 1.200000
v 0.600000 0.800000 -1.039230
v 1.200000 0.800000 0.000000
v 0.600000 0.800000 1.039230
v 0.872000 -1.000000 -0.800000
v 0.672000 0.800000 -0.600000
v 0.636000 0.800000 -0.537646
v 0.836000 -1.000000 -0.737646
v 0.836000 -1.000000 -0.737646
v 0.636000 0.800000 -0.537646
v 0.564000 0.800000 -0.537646
v 0.764000 -1.000000 -0.737646
v 0.764000 -1.000000 -0.737646
v 0.564000 0.800000 -0.537646
v 0.528000 0.800000 -0.600000
v 0.728000 -1.000000 -0.800000
v 0.728000 -1.000000 -0.800000
v 0.528000 0.800000 -0.600000
v 0.564000 0.800000 -0.662354
v 0.764000 -1.000000 -0.862354
v 0.764000 -1.000000 -0.862354
v 0.564000 0.800000 -0.662354
v 0.636000 0.800000 -0.662354
v 0.836000 -1.000000 -0.862354
v 0.836000 -1.000000 -0.862354
v 0.636000 0.800000 -0.662354
v 0.672000 0.800000 -0.600000
v 0.872000 -1.000000 -0.800000
v 0.728000 -1.000000 -0.800000
v 0.764000 -1.000000 -0.862354
v 0.836000 -1.000000 -0.862354
v -0.800000 -1.000000 -0.872000
v -0.600000 0.800000 -0.672000
v -0.537646 0.800000 -0.636000
v -0.737646 -1.000000 -0.836000
v -0.737646 -1.000000 -0.836000
v -0.537646 0.800000 -0.636000
v -0.537646 0.800000 -0.564000
v -0.737646 -1.000000 -0.764000
v -0.737646 -1.000000 -0.764000
v -0.537646 0.800000 -0.564000
v -0.600000 0.800000 -0.528000
v -0.800000 -1.000000 -0.728000
v -0.800000 -1.000000 -0.728000
v -0.600000 0.800000 -0.528000
v -0.662354 0.800000 -0.564000
v -0.862354 -1.000000 -0.764000
v -0.862354 -1.000000 -0.764000
v -0.662354 0.800000 -0.564000
v -0.662354 0.800000 -0.636000
v -0.862354 -1.000000 -0.836000
v -0.862354 -1.000000 -0.836000
v -0.662354 0.800000 -0.636000
v -0.600000 0.800000 -0.672000
v -0.800000 -1.000000 -0.872000
v -0.800000 -1.000000 -0.728000
v -0.862354 -1.000000 -0.764000
v -0.862354 -1.000000 -0.836000
v -0.872000 -1.000000 0.800000
v -0.672000 0.800000 0.600000
v -0.636000 0.800000 0.537646
v -0.836000 -1.000000 0.737646
v -0.836000 -1.000000 0.737646
v -0.636000 0.800000 0.537646
v -0.564000 0.800000 0.537646
v -0.764000 -1.000000 0.737646
v -0.764000 -1.000000 0.737646
v -0.564000 0.800000 0.537646
v -0.528000 0.800000 0.600000
v -0.728000 -1.000000 0.800000
v -0.728000 -1.000000 0.800000
v -0.528000 0.800000 0.600000
v -0.564000 0.800000 0.662354
v -0.764000 -1.000000 0.862354
v -0.764000 -1.000000 0.862354
v -0.564000 0.800000 0.662354
v -0.636000 0.800000 0.662354
v -0.836000 -1.000000 0.862354
v -0.836000 -1.000000 0.862354
v -0.636000 0.800000 0.662354
v -0.672000 0.800000 0.600000
v -0.872000 -1.000000 0.800000
v -0.728000 -1.000000 0.800000
v -0.764000 -1.000000 0.862354
v -0.836000 -1.000000 0.862354
v 0.862354 -1.000000 0.836000
v 0.800000 -1.000000 0.872000
v 0.800000 -1.000000 0.728000
v 0.800000 -1.000000 0.872000
v 0.737646 -1.000000 0.836000
v 0.800000 -1.000000 0.728000
v 0.737646 -1.000000 0.836000
v 0.737646 -1.000000 0.764000
v 0.800000 -1.000000 0.728000
v -1.039231 1.000000 0.600000
v -0.600000 1.000000 1.039230
v 1.039231 1.000000 0.600000
v -0.600000 1.000000 1.039230
v -0.000000 1.000000 1.200000
v 1.039231 1.000000 0.600000
v -0.000000 1.000000 1.200000
v 0.600000 1.000000 1.039230
v 1.039231 1.000000 0.600000
v 1.039231 1.000000 0.600000
v 1.200000 1.000000 0.000000
v 1.039231 1.000000 -0.600000
v 1.039231 1.000000 -0.600000
v 0.600000 1.000000 -1.039230
v 1.039231 1.000000 0.600000
v 0.600000 1.000000 -1.039230
v 0.000000 1.000000 -1.200000
v 1.039231 1.000000 0.600000
v 0.000000 1.000000 -1.200000
v -0.600000 1.000000 -1.039230
v -1.039230 1.000000 -0.600000
v -1.039230 1.000000 -0.600000
v -1.200000 1.000000 -0.000000
v -1.039231 1.000000 0.600000
v 0.000000 1.000000 -1.200000
v -1.039230 1.000000 -0.600000
v 1.039231 1.000000 0.600000
v 0.600000 0.800000 1.039230
v -0.000000 0.800000 1.200000
v -0.600000 0.800000 1.039230
v -0.600000 0.800000 1.039230
v -1.039231 0.800000 0.600000
v -1.200000 0.800000 -0.000000
v -1.200000 0.800000 -0.000000
v -1.039230 0.800000 -0.600000
v -0.600000 0.800000 -1.039230
v -0.600000 0.800000 -1.039230
v 0.000000 0.800000 -1.200000
v -1.200000 0.800000 -0.000000
v 0.000000 0.800000 -1.200000
v 0.600000 0.800000 -1.039230
v -1.200000 0.800000 -0.000000
v 0.600000 0.800000 -1.039230
v 1.039231 0.800000 -0.600000
v 1.200000 0.800000 0.000000
v 1.200000 0.800000 0.000000
v 1.039231 0.800000 0.600000
v 0.600000 0.800000 1.039230
v 0.600000 0.800000 1.039230
v -0.600000 0.800000 1.039230
v 0.600000 0.800000 -1.039230
v -0.600000 0.800000 1.039230
v -1.200000 0.800000 -0.000000
v 0.600000 0.800000 -1.039230
v 0.836000 -1.000000 -0.862354
v 0.872000 -1.000000 -0.800000
v 0.836000 -1.000000 -0.737646
v 0.836000 -1.000000 -0.737646
v 0.764000 -1.000000 -0.737646
v 0.836000 -1.000000 -0.862354
v 0.764000 -1.000000 -0.737646
v 0.728000 -1.000000 -0.800000
v 0.836000 -1.000000 -0.862354
v -0.862354 -1.000000 -0.836000
v -0.800000 -1.000000 -0.872000
v -0.737646 -1.000000 -0.836000
v -0.737646 -1.000000 -0.836000
v -0.737646 -1.000000 -0.764000
v -0.862354 -1.000000 -0.836000
v -0.737646 -1.000000 -0.764000
v -0.800000 -1.000000 -0.728000
v -0.862354 -1.000000 -0.836000
v -0.836000 -1.000000 0.862354
v -0.872000 -1.000000 0.800000
v -0.836000 -1.000000 0.737646
v -0.836000 -1.000000 0.737646
v -0.764000 -1.000000 0.737646
v -0.836000 -1.000000 0.862354
v -0.764000 -1.000000 0.737646
v -0.728000 -1.000000 0.800000
v -0.836000 -1.000000 0.862354

vt 0.004456 0.614844
vt 0.986885 0.653001
vt 0.010242 0.653000
vt 0.981099 0.614845
vt 0.986885 0.653001
vt 0.004456 0.614844
vt 0.000219 0.576485
vt 0.981099 0.614845
vt 0.004456 0.614844
vt 0.976863 0.576483
vt 0.981099 0.614845
vt 0.000219 0.576485
vt 0.001770 0.537923
vt 0.976863 0.576483
vt 0.000219 0.576485
vt 0.978413 0.537921
vt 0.976863 0.576483
vt 0.001770 0.537923
vt 0.007556 0.499767
vt 0.978413 0.537921
vt 0.001770 0.537923
vt 0.984200 0.499766
vt 0.978413 0.537921
vt 0.007556 0.499767
vt 0.011793 0.461406
vt 0.984200 0.499766
vt 0.007556 0.499767
vt 0.988436 0.461404
vt 0.984200 0.499766
vt 0.011793 0.461406
vt 0.010242 0.653000
vt 0.988436 0.691562
vt 0.011793 0.691561
vt 0.986885 0.653001
vt 0.988436 0.691562
vt 0.010242 0.653000
vt 0.067503 0.980484
vt 0.134347 0.980484
vt 0.100925 0.999780
vt 0.004456 0.384246
vt 0.986913 0.422401
vt 0.010242 0.422403
vt 0.981127 0.384247
vt 0.986913 0.422401
vt 0.004456 0.384246
vt 0.000219 0.345886
vt 0.981127 0.384247
vt 0.004456 0.384246
vt 0.976891 0.345889
vt 0.981127 0.384247
vt 0.000219 0.345886
vt 0.001770 0.307324
vt 0.976891 0.345889
vt 0.000219 0.345886
vt 0.978441 0.307327
vt 0.976891 0.345889
vt 0.001770 0.307324
vt 0.007557 0.269170
vt 0.978441 0.307327
vt 0.001770 0.307324
vt 0.984228 0.269173
vt 0.978441 0.307327
vt 0.007557 0.269170
vt 0.011793 0.230812
vt 0.984228 0.269173
vt 0.007557 0.269170
vt 0.988464 0.230815
vt 0.984228 0.269173
vt 0.011793 0.230812
vt 0.010242 0.422403
vt 0.988464 0.460962
vt 0.011793 0.460965
vt 0.986913 0.422401
vt 0.988464 0.460962
vt 0.010242 0.422403
vt 0.134786 0.941892
vt 0.168209 0.999780
vt 0.134786 0.980484
vt 0.004456 0.153653
vt 0.986913 0.191809
vt 0.010242 0.191810
vt 0.981127 0.153654
vt 0.986913 0.191809
vt 0.004456 0.153653
vt 0.000219 0.115293
vt 0.981127 0.153654
vt 0.004456 0.153653
vt 0.976891 0.115296
vt 0.981127 0.153654
vt 0.000219 0.115293
vt 0.001770 0.076732
vt 0.976891 0.115296
vt 0.000219 0.115293
vt 0.978441 0.076735
vt 0.976891 0.115296
vt 0.001770 0.076732
vt 0.007557 0.038578
vt 0.978441 0.076735
vt 0.001770 0.076732
vt 0.984228 0.038581
vt 0.978441 0.076735
vt 0.007557 0.038578
vt 0.011793 0.000220
vt 0.984228 0.038581
vt 0.007557 0.038578
vt 0.988464 0.000223
vt 0.984228 0.038581
vt 0.011793 0.000220
vt 0.010242 0.191810
vt 0.988464 0.230370
vt 0.011793 0.230373
vt 0.986913 0.191809
vt 0.988464 0.230370
vt 0.010242 0.191810
vt 0.202070 0.941892
vt 0.235492 0.999780
vt 0.202070 0.980484
vt 0.004456 0.845438
vt 0.986895 0.883594
vt 0.010242 0.883595
vt 0.981108 0.845438
vt 0.986895 0.883594
vt 0.004456 0.845438
vt 0.000219 0.807079
vt 0.981108 0.845438
vt 0.004456 0.845438
vt 0.976872 0.807079
vt 0.981108 0.845438
vt 0.000219 0.807079
vt 0.001770 0.768517
vt 0.976872 0.807079
vt 0.000219 0.807079
vt 0.978422 0.768517
vt 0.976872 0.807079
vt 0.001770 0.768517
vt 0.007557 0.730360
vt 0.978422 0.768517
vt 0.001770 0.768517
vt 0.984209 0.730360
vt 0.978422 0.768517
vt 0.007557 0.730360
vt 0.011793 0.692002
vt 0.984209 0.730360
vt 0.007557 0.730360
vt 0.988445 0.692002
vt 0.984209 0.730360
vt 0.011793 0.692002
vt 0.010242 0.883595
vt 0.988445 0.922156
vt 0.011793 0.922156
vt 0.986895 0.883594
vt 0.988445 0.922156
vt 0.010242 0.883595
vt 0.033642 0.922595
vt 0.000219 0.980484
vt 0.000220 0.941891
vt 0.134347 0.980484
vt 0.067503 0.980484
vt 0.067503 0.941892
vt 0.134347 0.980484
vt 0.067503 0.941892
vt 0.100925 0.922595
vt 0.134347 0.980484
vt 0.100925 0.922595
vt 0.134347 0.941892
vt 0.201631 0.941891
vt 0.134786 0.941892
vt 0.168208 0.922595
vt 0.134786 0.941892
vt 0.201631 0.941891
vt 0.201631 0.980484
vt 0.134786 0.941892
vt 0.201631 0.980484
vt 0.168209 0.999780
vt 0.268914 0.941891
vt 0.202070 0.941892
vt 0.235492 0.922595
vt 0.202070 0.941892
vt 0.268914 0.941891
vt 0.268914 0.980484
vt 0.202070 0.941892
vt 0.268914 0.980484
vt 0.235492 0.999780
vt 0.067064 0.980484
vt 0.033642 0.922595
vt 0.067064 0.941892
vt 0.033642 0.922595
vt 0.067064 0.980484
vt 0.033642 0.999780
vt 0.033642 0.922595
vt 0.033642 0.999780
vt 0.000219 0.980484
vt 0.360761 0.746013
vt 0.447852 0.869128
vt 0.360761 0.869128
vt 0.447852 0.746013
vt 0.447852 0.869128
vt 0.360761 0.746013
vt 0.360761 0.622898
vt 0.447852 0.746013
vt 0.360761 0.746013
vt 0.447852 0.622898
vt 0.447852 0.746013
vt 0.360761 0.622898
vt 0.360761 0.499783
vt 0.447852 0.622898
vt 0.360761 0.622898
vt 0.447852 0.499783
vt 0.447852 0.622898
vt 0.360761 0.499783
vt 0.360761 0.746013
vt 0.447852 0.869128
vt 0.360761 0.869128
vt 0.447852 0.746013
vt 0.447852 0.869128
vt 0.360761 0.746013
vt 0.360761 0.622898
vt 0.447852 0.746013
vt 0.360761 0.746013
vt 0.447852 0.622898
vt 0.447852 0.746013
vt 0.360761 0.622898
vt 0.360761 0.499784
vt 0.447852 0.622898
vt 0.360761 0.622898
vt 0.447852 0.499784
vt 0.447852 0.622898
vt 0.360761 0.499784
vt 0.360761 0.746013
vt 0.447852 0.869128
vt 0.360761 0.869128
vt 0.447852 0.746013
vt 0.447852 0.869128
vt 0.360761 0.746013
vt 0.360761 0.622898
vt 0.447852 0.746013
vt 0.360761 0.746013
vt 0.447852 0.622898
vt 0.447852 0.746013
vt 0.360761 0.622898
vt 0.360761 0.499783
vt 0.447852 0.622898
vt 0.360761 0.622898
vt 0.447852 0.499783
vt 0.447852 0.622898
vt 0.360761 0.499783
vt 0.360762 0.746013
vt 0.447852 0.869128
vt 0.360761 0.869128
vt 0.447852 0.746013
vt 0.447852 0.869128
vt 0.360762 0.746013
vt 0.000222 0.791515
vt 0.459693 0.668400
vt 0.398136 0.898136
vt 0.360762 0.622898
vt 0.447852 0.746013
vt 0.360762 0.746013
vt 0.447852 0.622898
vt 0.447852 0.746013
vt 0.360762 0.622898
vt 0.360762 0.499783
vt 0.447852 0.622898
vt 0.360762 0.622898
vt 0.447852 0.499783
vt 0.447852 0.622898
vt 0.360762 0.499783
vt 0.398136 0.561780
vt 0.000222 0.668400
vt 0.168400 0.500222
vt 0.000222 0.791515
vt 0.398136 0.898136
vt 0.291515 0.959693
vt 0.000222 0.791515
vt 0.291515 0.959693
vt 0.168400 0.959693
vt 0.000222 0.791515
vt 0.168400 0.959693
vt 0.061780 0.898136
vt 0.061780 0.561780
vt 0.000222 0.791515
vt 0.000222 0.668400
vt 0.000222 0.791515
vt 0.061780 0.561780
vt 0.168400 0.500222
vt 0.000222 0.791515
vt 0.168400 0.500222
vt 0.291515 0.500222
vt 0.459693 0.668400
vt 0.291515 0.500222
vt 0.398136 0.561780
vt 0.398136 0.898136
vt 0.459693 0.668400
vt 0.459693 0.791515
vt 0.000222 0.791515
vt 0.291515 0.500222
vt 0.459693 0.668400
vt 0.459693 0.791515
vt 0.398136 0.561780
vt 0.459693 0.668400
vt 0.291515 0.959693
vt 0.459693 0.791515
vt 0.398136 0.898136
vt 0.061780 0.898136
vt 0.291515 0.959693
vt 0.168400 0.959693
vt 0.291515 0.959693
vt 0.061780 0.898136
vt 0.000222 0.791515
vt 0.291515 0.959693
vt 0.000222 0.791515
vt 0.000222 0.668400
vt 0.168400 0.500222
vt 0.000222 0.668400
vt 0.061780 0.561780
vt 0.398136 0.561780
vt 0.168400 0.500222
vt 0.291515 0.500222
vt 0.000222 0.668400
vt 0.398136 0.561780
vt 0.459693 0.791515
vt 0.000222 0.668400
vt 0.459693 0.791515
vt 0.291515 0.959693

vn -0.499587 0.040636 0.865310
vn -0.499587 0.040636 0.865310
vn -0.499587 0.040636 0.865310
vn -0.499587 0.040636 0.865310
vn -0.499587 0.040636 0.865310
vn -0.499587 0.040636 0.865310
vn -0.993884 -0.110432 -0.000002
vn -0.993884 -0.110432 -0.000002
vn -0.993884 -0.110432 -0.000002
vn -0.993884 -0.110432 -0.000002
vn -0.993884 -0.110432 -0.000002
vn -0.993884 -0.110432 -0.000002
vn -0.494338 -0.150062 -0.856219
vn -0.494338 -0.150062 -0.856219
vn -0.494338 -0.150062 -0.856219
vn -0.494338 -0.150062 -0.856219
vn -0.494338 -0.150062 -0.856219
vn -0.494338 -0.150062 -0.856219
vn 0.499586 -0.040636 -0.865310
vn 0.499586 -0.040636 -0.865310
vn 0.499586 -0.040636 -0.865310
vn 0.499586 -0.040636 -0.865310
vn 0.499586 -0.040636 -0.865310
vn 0.499586 -0.040636 -0.865310
vn 0.993884 0.110432 0.000000
vn 0.993884 0.110432 0.000000
vn 0.993884 0.110432 0.000000
vn 0.993884 0.110432 0.000000
vn 0.993884 0.110432 0.000000
vn 0.993884 0.110432 0.000000
vn 0.494338 0.150062 0.856219
vn 0.494338 0.150062 0.856219
vn 0.494338 0.150062 0.856219
vn 0.494338 0.150062 0.856219
vn 0.494338 0.150062 0.856219
vn 0.494338 0.150062 0.856219
vn -0.000000 -1.000000 0.000000
vn -0.000000 -1.000000 0.000000
vn -0.000000 -1.000000 0.000000
vn 0.865310 0.040636 0.499587
vn 0.865310 0.040636 0.499587
vn 0.865310 0.040636 0.499587
vn 0.865310 0.040636 0.499587
vn 0.865310 0.040636 0.499587
vn 0.865310 0.040636 0.499587
vn -0.000002 -0.110432 0.993884
vn -0.000002 -0.110432 0.993884
vn -0.000002 -0.110432 0.993884
vn -0.000002 -0.110431 0.993884
vn -0.000002 -0.110431 0.993884
vn -0.000002 -0.110431 0.993884
vn -0.856219 -0.150062 0.494339
vn -0.856219 -0.150062 0.494339
vn -0.856219 -0.150062 0.494339
vn -0.856220 -0.150062 0.494337
vn -0.856220 -0.150062 0.494337
vn -0.856220 -0.150062 0.494337
vn -0.865311 -0.040636 -0.499586
vn -0.865311 -0.040636 -0.499586
vn -0.865311 -0.040636 -0.499586
vn -0.865310 -0.040636 -0.499587
vn -0.865310 -0.040636 -0.499587
vn -0.865310 -0.040636 -0.499587
vn -0.000000 0.110432 -0.993884
vn -0.000000 0.110432 -0.993884
vn -0.000000 0.110432 -0.993884
vn -0.000000 0.110431 -0.993884
vn -0.000000 0.110431 -0.993884
vn -0.000000 0.110431 -0.993884
vn 0.856219 0.150062 -0.494338
vn 0.856219 0.150062 -0.494338
vn 0.856219 0.150062 -0.494338
vn 0.856219 0.150062 -0.494338
vn 0.856219 0.150062 -0.494338
vn 0.856219 0.150062 -0.494338
vn -0.000000 -1.000000 0.000000
vn -0.000000 -1.000000 0.000000
vn -0.000000 -1.000000 0.000000
vn 0.499587 0.040636 -0.865310
vn 0.499587 0.040636 -0.865310
vn 0.499587 0.040636 -0.865310
vn 0.499587 0.040636 -0.865310
vn 0.499587 0.040636 -0.865310
vn 0.499587 0.040636 -0.865310
vn 0.993884 -0.110432 0.000002
vn 0.993884 -0.110432 0.000002
vn 0.993884 -0.110432 0.000002
vn 0.993884 -0.110432 0.000002
vn 0.993884 -0.110432 0.000002
vn 0.993884 -0.110432 0.000002
vn 0.494338 -0.150062 0.856219
vn 0.494338 -0.150062 0.856219
vn 0.494338 -0.150062 0.856219
vn 0.494337 -0.150062 0.856219
vn 0.494337 -0.150062 0.856219
vn 0.494337 -0.150062 0.856219
vn -0.499587 -0.040636 0.865310
vn -0.499587 -0.040636 0.865310
vn -0.499587 -0.040636 0.865310
vn -0.499587 -0.040636 0.865310
vn -0.499587 -0.040636 0.865310
vn -0.499587 -0.040636 0.865310
vn -0.993884 0.110432 0.000000
vn -0.993884 0.110432 0.000000
vn -0.993884 0.110432 0.000000
vn -0.993884 0.110432 0.000000
vn -0.993884 0.110432 0.000000
vn -0.993884 0.110432 0.000000
vn -0.494338 0.150062 -0.856219
vn -0.494338 0.150062 -0.856219
vn -0.494338 0.150062 -0.856219
vn -0.494339 0.150062 -0.856219
vn -0.494339 0.150062 -0.856219
vn -0.494339 0.150062 -0.856219
vn 0.000002 -1.000000 0.000000
vn 0.000002 -1.000000 0.000000
vn 0.000002 -1.000000 0.000000
vn -0.865310 0.040636 -0.499587
vn -0.865310 0.040636 -0.499587
vn -0.865310 0.040636 -0.499587
vn -0.865310 0.040636 -0.499587
vn -0.865310 0.040636 -0.499587
vn -0.865310 0.040636 -0.499587
vn 0.000002 -0.110432 -0.993884
vn 0.000002 -0.110432 -0.993884
vn 0.000002 -0.110432 -0.993884
vn 0.000002 -0.110432 -0.993884
vn 0.000002 -0.110432 -0.993884
vn 0.000002 -0.110432 -0.993884
vn 0.856219 -0.150062 -0.494339
vn 0.856219 -0.150062 -0.494339
vn 0.856219 -0.150062 -0.494339
vn 0.856219 -0.150062 -0.494339
vn 0.856219 -0.150062 -0.494339
vn 0.856219 -0.150062 -0.494339
vn 0.865310 -0.040636 0.499587
vn 0.865310 -0.040636 0.499587
vn 0.865310 -0.040636 0.499587
vn 0.865310 -0.040636 0.499587
vn 0.865310 -0.040636 0.499587
vn 0.865310 -0.040636 0.499587
vn -0.000000 0.110432 0.993884
vn -0.000000 0.110432 0.993884
vn -0.000000 0.110432 0.993884
vn -0.000000 0.110432 0.993884
vn -0.000000 0.110432 0.993884
vn -0.000000 0.110432 0.993884
vn -0.856219 0.150062 0.494338
vn -0.856219 0.150062 0.494338
vn -0.856219 0.150062 0.494338
vn -0.856219 0.150062 0.494338
vn -0.856219 0.150062 0.494338
vn -0.856219 0.150062 0.494338
vn -0.000000 -1.000000 0.000000
vn -0.000000 -1.000000 0.000000
vn -0.000000 -1.000000 0.000000
vn -0.000000 -1.000000 0.000000
vn -0.000000 -1.000000 0.000000
vn -0.000000 -1.000000 0.000000
vn -0.000000 -1.000000 0.000000
vn -0.000000 -1.000000 0.000000
vn -0.000000 -1.000000 0.000000
vn -0.000000 -1.000000 0.000000
vn -0.000000 -1.000000 0.000000
vn -0.000000 -1.000000 0.000000
vn -0.000000 -1.000000 0.000000
vn -0.000000 -1.000000 0.000000
vn -0.000000 -1.000000 0.000000
vn -0.000000 -1.000000 0.000000
vn -0.000000 -1.000000 0.000000
vn -0.000000 -1.000000 0.000000
vn -0.000000 -1.000000 0.000000
vn -0.000000 -1.000000 0.000000
vn -0.000000 -1.000000 0.000000
vn -0.000000 -1.000000 0.000000
vn -0.000000 -1.000000 0.000000
vn -0.000000 -1.000000 0.000000
vn -0.000000 -1.000000 0.000000
vn -0.000000 -1.000000 0.000000
vn -0.000000 -1.000000 0.000000
vn -0.000001 -1.000000 0.000000
vn -0.000001 -1.000000 0.000000
vn -0.000001 -1.000000 0.000000
vn -0.000000 -1.000000 0.000000
vn -0.000000 -1.000000 0.000000
vn -0.000000 -1.000000 0.000000
vn 0.000000 -1.000000 0.000000
vn 0.000000 -1.000000 0.000000
vn 0.000000 -1.000000 0.000000
vn -0.000000 -1.000000 0.000000
vn -0.000000 -1.000000 0.000000
vn -0.000000 -1.000000 0.000000
vn -0.258819 0.000000 0.965926
vn -0.258819 0.000000 0.965926
vn -0.258819 0.000000 0.965926
vn -0.258819 0.000000 0.965926
vn -0.258819 0.000000 0.965926
vn -0.258819 0.000000 0.965926
vn -0.707107 0.000000 0.707107
vn -0.707107 0.000000 0.707107
vn -0.707107 0.000000 0.707107
vn -0.707107 0.000000 0.707107
vn -0.707107 0.000000 0.707107
vn -0.707107 0.000000 0.707107
vn -0.965926 0.000000 0.258819
vn -0.965926 0.000000 0.258819
vn -0.965926 0.000000 0.258819
vn -0.965926 0.000000 0.258819
vn -0.965926 0.000000 0.258819
vn -0.965926 0.000000 0.258819
vn -0.965926 0.000000 -0.258819
vn -0.965926 0.000000 -0.258819
vn -0.965926 0.000000 -0.258819
vn -0.965926 0.000000 -0.258819
vn -0.965926 0.000000 -0.258819
vn -0.965926 0.000000 -0.258819
vn -0.707107 0.000000 -0.707107
vn -0.707107 0.000000 -0.707107
vn -0.707107 0.000000 -0.707107
vn -0.707107 0.000000 -0.707107
vn -0.707107 0.000000 -0.707107
vn -0.707107 0.000000 -0.707107
vn -0.258819 0.000000 -0.965926
vn -0.258819 0.000000 -0.965926
vn -0.258819 0.000000 -0.965926
vn -0.258819 0.000000 -0.965926
vn -0.258819 0.000000 -0.965926
vn -0.258819 0.000000 -0.965926
vn 0.258819 0.000000 -0.965926
vn 0.258819 0.000000 -0.965926
vn 0.258819 0.000000 -0.965926
vn 0.258819 0.000000 -0.965926
vn 0.258819 0.000000 -0.965926
vn 0.258819 0.000000 -0.965926
vn 0.707107 0.000000 -0.707107
vn 0.707107 0.000000 -0.707107
vn 0.707107 0.000000 -0.707107
vn 0.707107 0.000000 -0.707107
vn 0.707107 0.000000 -0.707107
vn 0.707107 0.000000 -0.707107
vn 0.965926 0.000000 -0.258819
vn 0.965926 0.000000 -0.258819
vn 0.965926 0.000000 -0.258819
vn 0.965926 0.000000 -0.258819
vn 0.965926 0.000000 -0.258819
vn 0.965926 0.000000 -0.258819
vn 0.965926 0.000000 0.258819
vn 0.965926 0.000000 0.258819
vn 0.965926 0.000000 0.258819
vn 0.965926 0.000000 0.258819
vn 0.965926 0.000000 0.258819
vn 0.965926 0.000000 0.258819
vn -0.000000 1.000000 0.000000
vn -0.000000 1.000000 0.000000
vn -0.000000 1.000000 0.000000
vn 0.707107 0.000000 0.707107
vn 0.707107 0.000000 0.707107
vn 0.707107 0.000000 0.707107
vn 0.707107 0.000000 0.707107
vn 0.707107 0.000000 0.707107
vn 0.707107 0.000000 0.707107
vn 0.258819 0.000000 0.965926
vn 0.258819 0.000000 0.965926
vn 0.258819 0.000000 0.965926
vn 0.258819 0.000000 0.965926
vn 0.258819 0.000000 0.965926
vn 0.258819 0.000000 0.965926
vn -0.000000 -1.000000 0.000000
vn -0.000000 -1.000000 0.000000
vn -0.000000 -1.000000 0.000000
vn -0.000000 1.000000 0.000000
vn -0.000000 1.000000 0.000000
vn -0.000000 1.000000 0.000000
vn -0.000000 1.000000 0.000000
vn -0.000000 1.000000 0.000000
vn -0.000000 1.000000 0.000000
vn -0.000000 1.000000 0.000000
vn -0.000000 1.000000 0.000000
vn -0.000000 1.000000 0.000000
vn -0.000000 1.000000 0.000000
vn -0.000000 1.000000 0.000000
vn -0.000000 1.000000 0.000000
vn -0.000000 1.000000 0.000000
vn -0.000000 1.000000 0.000000
vn -0.000000 1.000000 0.000000
vn -0.000000 1.000000 0.000000
vn -0.000000 1.000000 0.000000
vn -0.000000 1.000000 0.000000
vn -0.000000 1.000000 0.000000
vn -0.000000 1.000000 0.000000
vn -0.000000 1.000000 0.000000
vn -0.000000 1.000000 0.000000
vn -0.000000 1.000000 0.000000
vn -0.000000 1.000000 0.000000
vn 0.000000 1.000000 0.000000
vn 0.000000 1.000000 0.000000
vn 0.000000 1.000000 0.000000
vn -0.000000 -1.000000 0.000000
vn -0.000000 -1.000000 0.000000
vn -0.000000 -1.000000 0.000000
vn -0.000001 -1.000000 0.000000
vn -0.000001 -1.000000 0.000000
vn -0.000001 -1.000000 0.000000
vn -0.000000 -1.000000 0.000000
vn -0.000000 -1.000000 0.000000
vn -0.000000 -1.000000 0.000000
vn 0.000000 -1.000000 0.000000
vn 0.000000 -1.000000 0.000000
vn 0.000000 -1.000000 0.000000
vn -0.000000 -1.000000 0.000000
vn -0.000000 -1.000000 0.000000
vn -0.000000 -1.000000 0.000000
vn 0.000000 -1.000000 0.000000
vn 0.000000 -1.000000 0.000000
vn 0.000000 -1.000000 0.000000
vn 0.000000 -1.000000 0.000000
vn 0.000000 -1.000000 0.000000
vn 0.000000 -1.000000 0.000000
vn -0.000000 -1.000000 0.000000
vn -0.000000 -1.000000 0.000000
vn -0.000000 -1.000000 0.000000
vn -0.000000 -1.000000 0.000000
vn -0.000000 -1.000000 0.000000
vn -0.000000 -1.000000 0.000000

g Material
f 3/1/1 1/2/2 2/3/3
f 4/4/4 1/5/5 3/6/6
f 7/7/7 5/8/8 6/9/9
f 8/10/10 5/11/11 7/12/12
f 11/13/13 9/14/14 10/15/15
f 12/16/16 9/17/17 11/18/18
f 15/19/19 13/20/20 14/21/21
f 16/22/22 13/23/23 15/24/24
f 19/25/25 17/26/26 18/27/27
f 20/28/28 17/29/29 19/30/30
f 23/31/31 21/32/32 22/33/33
f 24/34/34 21/35/35 23/36/36
f 27/37/37 25/38/38 26/39/39
f 84/40/40 82/41/41 83/42/42
f 85/43/43 82/44/44 84/45/45
f 88/46/46 86/47/47 87/48/48
f 89/49/49 86/50/50 88/51/51
f 92/52/52 90/53/53 91/54/54
f 93/55/55 90/56/56 92/57/57
f 96/58/58 94/59/59 95/60/60
f 97/61/61 94/62/62 96/63/63
f 100/64/64 98/65/65 99/66/66
f 101/67/67 98/68/68 100/69/69
f 104/70/70 102/71/71 103/72/72
f 105/73/73 102/74/74 104/75/75
f 108/76/76 106/77/77 107/78/78
f 111/79/79 109/80/80 110/81/81
f 112/82/82 109/83/83 111/84/84
f 115/85/85 113/86/86 114/87/87
f 116/88/88 113/89/89 115/90/90
f 119/91/91 117/92/92 118/93/93
f 120/94/94 117/95/95 119/96/96
f 123/97/97 121/98/98 122/99/99
f 124/100/100 121/101/101 123/102/102
f 127/103/103 125/104/104 126/105/105
f 128/106/106 125/107/107 127/108/108
f 131/109/109 129/110/110 130/111/111
f 132/112/112 129/113/113 131/114/114
f 135/115/115 133/116/116 134/117/117
f 138/118/118 136/119/119 137/120/120
f 139/121/121 136/122/122 138/123/123
f 142/124/124 140/125/125 141/126/126
f 143/127/127 140/128/128 142/129/129
f 146/130/130 144/131/131 145/132/132
f 147/133/133 144/134/134 146/135/135
f 150/136/136 148/137/137 149/138/138
f 151/139/139 148/140/140 150/141/141
f 154/142/142 152/143/143 153/144/144
f 155/145/145 152/146/146 154/147/147
f 158/148/148 156/149/149 157/150/150
f 159/151/151 156/152/152 158/153/153
f 162/154/154 160/155/155 161/156/156
f 165/157/157 163/158/158 164/159/159
f 168/160/160 166/161/161 167/162/162
f 171/163/163 169/164/164 170/165/165
f 228/166/166 226/167/167 227/168/168
f 231/169/169 229/170/170 230/171/171
f 234/172/172 232/173/173 233/174/174
f 237/175/175 235/176/176 236/177/177
f 240/178/178 238/179/179 239/180/180
f 243/181/181 241/182/182 242/183/183
f 246/184/184 244/185/185 245/186/186
f 249/187/187 247/188/188 248/189/189
f 252/190/190 250/191/191 251/192/192

g Material.001
f 30/193/193 28/194/194 29/195/195
f 31/196/196 28/197/197 30/198/198
f 34/199/199 32/200/200 33/201/201
f 35/202/202 32/203/203 34/204/204
f 38/205/205 36/206/206 37/207/207
f 39/208/208 36/209/209 38/210/210
f 42/211/211 40/212/212 41/213/213
f 43/214/214 40/215/215 42/216/216
f 46/217/217 44/218/218 45/219/219
f 47/220/220 44/221/221 46/222/222
f 50/223/223 48/224/224 49/225/225
f 51/226/226 48/227/227 50/228/228
f 54/229/229 52/230/230 53/231/231
f 55/232/232 52/233/233 54/234/234
f 58/235/235 56/236/236 57/237/237
f 59/238/238 56/239/239 58/240/240
f 62/241/241 60/242/242 61/243/243
f 63/244/244 60/245/245 62/246/246
f 66/247/247 64/248/248 65/249/249
f 67/250/250 64/251/251 66/252/252
f 70/253/253 68/254/254 69/255/255
f 73/256/256 71/257/257 72/258/258
f 74/259/259 71/260/260 73/261/261
f 77/262/262 75/263/263 76/264/264
f 78/265/265 75/266/266 77/267/267
f 81/268/268 79/269/269 80/270/270
f 174/271/271 172/272/272 173/273/273
f 177/274/274 175/275/275 176/276/276
f 180/277/277 178/278/278 179/279/279
f 183/280/280 181/281/281 182/282/282
f 186/283/283 184/284/284 185/285/285
f 189/286/286 187/287/287 188/288/288
f 192/289/289 190/290/290 191/291/291
f 195/292/292 193/293/293 194/294/294
f 198/295/295 196/296/296 197/297/297
f 201/298/298 199/299/299 200/300/300
f 204/301/301 202/302/302 203/303/303
f 207/304/304 205/305/305 206/306/306
f 210/307/307 208/308/308 209/309/309
f 213/310/310 211/311/311 212/312/312
f 216/313/313 214/314/314 215/315/315
f 219/316/316 217/317/317 218/318/318
f 222/319/319 220/320/320 221/321/321
f 225/322/322 223/323/323 224/324/324

