# Converted from B3D for Luanti (With Correct Normals)
# Object Name: multidecor_kitchen_wall_cabinet_half_glass_door

v 0.100000 0.750000 0.075000
v 0.100000 0.750000 0.150000
v 0.700000 0.750000 0.150000
v 0.700000 0.750000 0.075000
v 0.100000 0.750000 0.075000
v 0.100000 -0.750000 0.075000
v 0.100000 -0.750000 0.150000
v 0.100000 0.750000 0.150000
v -0.000000 -0.850000 0.000000
v 0.850000 -0.850000 -0.000000
v 0.850000 -0.850000 0.150000
v 0.000000 -0.850000 0.150000
v 0.850000 -0.850000 -0.000000
v 0.850000 0.850000 -0.000000
v 0.850000 0.850000 0.150000
v 0.850000 -0.850000 0.150000
v 0.850000 0.850000 -0.000000
v -0.000000 0.850000 0.000000
v 0.000000 0.850000 0.150000
v 0.850000 0.850000 0.150000
v -0.000000 0.850000 0.000000
v -0.000000 -0.850000 0.000000
v 0.000000 -0.850000 0.150000
v 0.000000 0.850000 0.150000
v 0.800000 -0.600000 0.250000
v 0.750000 -0.600000 0.250000
v 0.750000 -0.200000 0.250000
v 0.800000 -0.200000 0.250000
v 0.750000 -0.700000 0.150000
v 0.800000 -0.700000 0.150000
v 0.800000 -0.700000 0.250000
v 0.750000 -0.700000 0.250000
v 0.800000 -0.600000 0.150000
v 0.750000 -0.600000 0.150000
v 0.750000 -0.600000 0.250000
v 0.800000 -0.600000 0.250000
v 0.800000 -0.700000 0.150000
v 0.800000 -0.600000 0.150000
v 0.800000 -0.600000 0.250000
v 0.800000 -0.700000 0.250000
v 0.750000 -0.600000 0.150000
v 0.750000 -0.700000 0.150000
v 0.750000 -0.700000 0.250000
v 0.750000 -0.600000 0.250000
v 0.750000 -0.600000 0.300000
v 0.750000 -0.700000 0.300000
v 0.800000 -0.700000 0.300000
v 0.800000 -0.600000 0.300000
v 0.800000 -0.700000 0.250000
v 0.800000 -0.600000 0.250000
v 0.800000 -0.600000 0.300000
v 0.800000 -0.700000 0.300000
v 0.750000 -0.600000 0.250000
v 0.750000 -0.700000 0.250000
v 0.750000 -0.700000 0.300000
v 0.750000 -0.600000 0.300000
v 0.750000 -0.700000 0.250000
v 0.800000 -0.700000 0.250000
v 0.800000 -0.700000 0.300000
v 0.750000 -0.700000 0.300000
v 0.800000 -0.200000 0.300000
v 0.800000 -0.200000 0.250000
v 0.800000 -0.100000 0.250000
v 0.800000 -0.100000 0.300000
v 0.750000 -0.600000 0.250000
v 0.750000 -0.600000 0.300000
v 0.750000 -0.200000 0.300000
v 0.750000 -0.200000 0.250000
v 0.750000 -0.600000 0.300000
v 0.800000 -0.600000 0.300000
v 0.800000 -0.200000 0.300000
v 0.750000 -0.200000 0.300000
v 0.800000 -0.600000 0.300000
v 0.800000 -0.600000 0.250000
v 0.800000 -0.200000 0.250000
v 0.800000 -0.200000 0.300000
v 0.800000 -0.100000 0.250000
v 0.750000 -0.100000 0.250000
v 0.750000 -0.100000 0.300000
v 0.800000 -0.100000 0.300000
v 0.750000 -0.200000 0.300000
v 0.800000 -0.200000 0.300000
v 0.800000 -0.100000 0.300000
v 0.750000 -0.100000 0.300000
v 0.750000 -0.200000 0.250000
v 0.750000 -0.200000 0.300000
v 0.750000 -0.100000 0.300000
v 0.750000 -0.100000 0.250000
v 0.800000 -0.100000 0.250000
v 0.800000 -0.200000 0.250000
v 0.800000 -0.200000 0.150000
v 0.800000 -0.100000 0.150000
v 0.750000 -0.100000 0.250000
v 0.800000 -0.100000 0.250000
v 0.800000 -0.100000 0.150000
v 0.750000 -0.100000 0.150000
v 0.750000 -0.200000 0.250000
v 0.750000 -0.100000 0.250000
v 0.750000 -0.100000 0.150000
v 0.750000 -0.200000 0.150000
v 0.800000 -0.200000 0.250000
v 0.750000 -0.200000 0.250000
v 0.750000 -0.200000 0.150000
v 0.800000 -0.200000 0.150000
v 0.700000 0.750000 0.075000
v 0.700000 0.750000 0.150000
v 0.700000 -0.750000 0.150000
v 0.700000 -0.750000 0.075000
v 0.100000 -0.750000 0.075000
v 0.100000 -0.750000 -0.000000
v 0.700000 -0.750000 -0.000000
v 0.700000 -0.750000 0.075000
v 0.850000 -0.850000 0.150000
v 0.850000 0.850000 0.150000
v 0.700000 0.750000 0.150000
v 0.700000 -0.750000 0.150000
v 0.850000 0.850000 0.150000
v 0.000000 0.850000 0.150000
v 0.100000 0.750000 0.150000
v 0.700000 0.750000 0.150000
v 0.000000 -0.850000 0.150000
v 0.100000 -0.750000 0.150000
v 0.100000 0.750000 0.150000
v 0.000000 0.850000 0.150000
v 0.850000 -0.850000 0.150000
v 0.700000 -0.750000 0.150000
v 0.100000 -0.750000 0.150000
v 0.000000 -0.850000 0.150000
v 0.850000 -0.850000 -0.000000
v -0.000000 -0.850000 0.000000
v 0.100000 -0.750000 -0.000000
v 0.700000 -0.750000 -0.000000
v 0.850000 0.850000 -0.000000
v 0.850000 -0.850000 -0.000000
v 0.700000 -0.750000 -0.000000
v 0.700000 0.750000 -0.000000
v -0.000000 0.850000 0.000000
v 0.100000 0.750000 -0.000000
v 0.100000 -0.750000 -0.000000
v -0.000000 -0.850000 0.000000
v -0.000000 0.850000 0.000000
v 0.850000 0.850000 -0.000000
v 0.700000 0.750000 -0.000000
v 0.100000 0.750000 -0.000000
v 0.100000 -0.750000 0.150000
v 0.100000 -0.750000 0.075000
v 0.700000 -0.750000 0.075000
v 0.700000 -0.750000 0.150000
v 0.700000 0.750000 -0.000000
v 0.700000 0.750000 0.075000
v 0.700000 -0.750000 0.075000
v 0.700000 -0.750000 -0.000000
v 0.100000 0.750000 -0.000000
v 0.100000 -0.750000 -0.000000
v 0.100000 -0.750000 0.075000
v 0.100000 0.750000 0.075000
v 0.100000 0.750000 -0.000000
v 0.100000 0.750000 0.075000
v 0.700000 0.750000 0.075000
v 0.700000 0.750000 -0.000000
v 0.100000 -0.750000 0.075000
v 0.700000 -0.750000 0.075000
v 0.700000 0.750000 0.075000
v 0.100000 0.750000 0.075000

vt 0.922988 0.474383
vt 0.615603 0.512806
vt 0.615603 0.474383
vt 0.922988 0.512806
vt 0.615603 0.512806
vt 0.922988 0.474383
vt 0.346310 0.819855
vt 0.307884 0.051398
vt 0.307887 0.819856
vt 0.346309 0.051398
vt 0.307884 0.051398
vt 0.346310 0.819855
vt 0.999834 0.089820
vt 0.564372 0.166666
vt 0.999834 0.166666
vt 0.564372 0.089820
vt 0.564372 0.166666
vt 0.999834 0.089820
vt 0.192283 0.000166
vt 0.115437 0.871088
vt 0.115437 0.000166
vt 0.192282 0.871088
vt 0.115437 0.871088
vt 0.192283 0.000166
vt 0.564372 0.423152
vt 0.999834 0.346306
vt 0.564372 0.346306
vt 0.999834 0.423152
vt 0.999834 0.346306
vt 0.564372 0.423152
vt 0.397540 0.871086
vt 0.474386 0.000166
vt 0.474386 0.871086
vt 0.397541 0.000166
vt 0.474386 0.000166
vt 0.397540 0.871086
vt 0.269128 0.819858
vt 0.307553 0.051397
vt 0.269130 0.051397
vt 0.307553 0.819858
vt 0.307553 0.051397
vt 0.269128 0.819858
vt 0.922988 0.217897
vt 0.615603 0.256320
vt 0.615603 0.217897
vt 0.922988 0.256320
vt 0.615603 0.256320
vt 0.922988 0.217897
vt 0.269130 0.051397
vt 0.192282 0.871088
vt 0.192283 0.000166
vt 0.269128 0.819858
vt 0.192282 0.871088
vt 0.269130 0.051397
vt 0.615603 0.474383
vt 0.999834 0.423152
vt 0.564372 0.423152
vt 0.922988 0.474383
vt 0.999834 0.423152
vt 0.615603 0.474383
vt 0.346309 0.051398
vt 0.397540 0.871086
vt 0.346310 0.819855
vt 0.397541 0.000166
vt 0.397540 0.871086
vt 0.346309 0.051398
vt 0.615603 0.038589
vt 0.999834 0.089820
vt 0.922988 0.038589
vt 0.564372 0.089820
vt 0.999834 0.089820
vt 0.615603 0.038589
vt 0.615603 0.217897
vt 0.999834 0.166666
vt 0.564372 0.166666
vt 0.922988 0.217897
vt 0.999834 0.166666
vt 0.615603 0.217897
vt 0.038590 0.819857
vt 0.115437 0.000166
vt 0.115437 0.871088
vt 0.038591 0.051396
vt 0.115437 0.000166
vt 0.038590 0.819857
vt 0.525618 0.819854
vt 0.474386 0.000166
vt 0.525616 0.051396
vt 0.474386 0.871086
vt 0.474386 0.000166
vt 0.525618 0.819854
vt 0.922988 0.295075
vt 0.564372 0.346306
vt 0.999834 0.346306
vt 0.615603 0.295075
vt 0.564372 0.346306
vt 0.922988 0.295075
vt 0.922988 0.000166
vt 0.615603 0.038589
vt 0.615603 0.000166
vt 0.922988 0.038589
vt 0.615603 0.038589
vt 0.922988 0.000166
vt 0.000166 0.819857
vt 0.038591 0.051396
vt 0.000168 0.051396
vt 0.038590 0.819857
vt 0.038591 0.051396
vt 0.000166 0.819857
vt 0.564041 0.819854
vt 0.525616 0.051396
vt 0.525618 0.819854
vt 0.564041 0.051396
vt 0.525616 0.051396
vt 0.564041 0.819854
vt 0.922988 0.256652
vt 0.615603 0.295075
vt 0.615603 0.256652
vt 0.922988 0.295075
vt 0.615603 0.295075
vt 0.922988 0.256652
vt 0.888789 1.498980
vt 1.333120 1.443439
vt 1.333120 1.498980
vt 0.888789 1.443439
vt 1.333120 1.443439
vt 0.888789 1.498980
vt 0.888791 0.000126
vt 0.999873 -0.055416
vt 0.999873 0.000126
vt 0.888791 -0.055416
vt 0.999873 -0.055416
vt 0.888791 0.000126
vt 0.555540 1.498981
vt 0.666623 1.443439
vt 0.666623 1.498981
vt 0.555540 1.443439
vt 0.666623 1.443439
vt 0.555540 1.498981
vt 1.333121 0.610574
vt 1.444205 0.721657
vt 1.333121 0.721657
vt 1.444205 0.610574
vt 1.444205 0.721657
vt 1.333121 0.610574
vt 1.444204 0.832994
vt 1.333121 0.721911
vt 1.444204 0.721911
vt 1.333121 0.832994
vt 1.333121 0.721911
vt 1.444204 0.832994
vt 1.610832 0.000126
vt 1.499749 -0.055415
vt 1.610833 -0.055415
vt 1.499749 0.000127
vt 1.499749 -0.055415
vt 1.610832 0.000126
vt 1.333122 0.555033
vt 1.444205 0.610575
vt 1.333122 0.610574
vt 1.444205 0.555033
vt 1.444205 0.610575
vt 1.333122 0.555033
vt 1.444205 0.888536
vt 1.333122 0.832994
vt 1.444205 0.832995
vt 1.333122 0.888536
vt 1.333122 0.832994
vt 1.444205 0.888536
vt 0.833249 0.000126
vt 0.888791 -0.055416
vt 0.888791 0.000126
vt 0.833249 -0.055416
vt 0.888791 -0.055416
vt 0.833249 0.000126
vt 0.777708 0.610574
vt 0.888791 0.555032
vt 0.888791 0.610574
vt 0.777708 0.555032
vt 0.888791 0.555032
vt 0.777708 0.610574
vt 0.888789 0.888535
vt 1.333120 0.832994
vt 1.333120 0.888535
vt 0.888789 0.832994
vt 1.333120 0.832994
vt 0.888789 0.888535
vt 1.055414 0.000127
vt 1.499746 -0.055415
vt 1.499746 0.000127
vt 1.055414 -0.055414
vt 1.499746 -0.055415
vt 1.055414 0.000127
vt 0.888789 0.610574
vt 1.333120 0.555032
vt 1.333120 0.610574
vt 0.888789 0.555032
vt 1.333120 0.555032
vt 0.888789 0.610574
vt 0.166753 -0.055414
vt 0.111211 0.000127
vt 0.111211 -0.055414
vt 0.166753 0.000127
vt 0.111211 0.000127
vt 0.166753 -0.055414
vt 0.944330 0.000129
vt 1.055413 -0.055412
vt 1.055413 0.000129
vt 0.944330 -0.055412
vt 1.055413 -0.055412
vt 0.944330 0.000129
vt 0.777708 0.888535
vt 0.888791 0.832993
vt 0.888791 0.888535
vt 0.777708 0.832994
vt 0.888791 0.832993
vt 0.777708 0.888535
vt 0.888791 0.721656
vt 0.777708 0.610574
vt 0.888791 0.610574
vt 0.777708 0.721656
vt 0.777708 0.610574
vt 0.888791 0.721656
vt 0.000128 0.000128
vt 0.111211 -0.055414
vt 0.111211 0.000128
vt 0.000128 -0.055414
vt 0.111211 -0.055414
vt 0.000128 0.000128
vt 0.777708 0.721911
vt 0.888791 0.832994
vt 0.777708 0.832994
vt 0.888791 0.721911
vt 0.888791 0.832994
vt 0.777708 0.721911
vt 0.000127 1.498981
vt 0.111209 1.443440
vt 0.111209 1.498981
vt 0.000127 1.443440
vt 0.111209 1.443440
vt 0.000127 1.498981
vt 0.160075 0.000069
vt 1.000000 0.999931
vt 0.160075 0.999931
vt 1.000000 0.000069
vt 1.000000 0.999931
vt 0.160075 0.000069

vn -0.000000 1.000000 0.000000
vn -0.000000 1.000000 0.000000
vn -0.000000 1.000000 0.000000
vn -0.000000 1.000000 0.000000
vn -0.000000 1.000000 0.000000
vn -0.000000 1.000000 0.000000
vn -1.000000 0.000000 0.000001
vn -1.000000 0.000000 0.000001
vn -1.000000 0.000000 0.000001
vn -1.000000 0.000000 0.000000
vn -1.000000 0.000000 0.000000
vn -1.000000 0.000000 0.000000
vn -0.000000 -1.000000 0.000000
vn -0.000000 -1.000000 0.000000
vn -0.000000 -1.000000 0.000000
vn 0.000000 -1.000000 0.000000
vn 0.000000 -1.000000 0.000000
vn 0.000000 -1.000000 0.000000
vn 1.000000 0.000000 0.000000
vn 1.000000 0.000000 0.000000
vn 1.000000 0.000000 0.000000
vn 1.000000 0.000000 0.000000
vn 1.000000 0.000000 0.000000
vn 1.000000 0.000000 0.000000
vn 0.000000 1.000000 0.000000
vn 0.000000 1.000000 0.000000
vn 0.000000 1.000000 0.000000
vn -0.000000 1.000000 0.000000
vn -0.000000 1.000000 0.000000
vn -0.000000 1.000000 0.000000
vn -1.000000 0.000000 0.000000
vn -1.000000 0.000000 0.000000
vn -1.000000 0.000000 0.000000
vn -1.000000 0.000000 0.000000
vn -1.000000 0.000000 0.000000
vn -1.000000 0.000000 0.000000
vn 1.000000 0.000000 0.000000
vn 1.000000 0.000000 0.000000
vn 1.000000 0.000000 0.000000
vn 1.000000 0.000000 -0.000002
vn 1.000000 0.000000 -0.000002
vn 1.000000 0.000000 -0.000002
vn -0.000000 -1.000000 0.000000
vn -0.000000 -1.000000 0.000000
vn -0.000000 -1.000000 0.000000
vn -0.000000 -1.000000 0.000000
vn -0.000000 -1.000000 0.000000
vn -0.000000 -1.000000 0.000000
vn 0.000000 0.000000 1.000000
vn 0.000000 0.000000 1.000000
vn 0.000000 0.000000 1.000000
vn 0.000000 0.000000 1.000000
vn 0.000000 0.000000 1.000000
vn 0.000000 0.000000 1.000000
vn 0.000000 0.000000 1.000000
vn 0.000000 0.000000 1.000000
vn 0.000000 0.000000 1.000000
vn 0.000000 0.000000 1.000000
vn 0.000000 0.000000 1.000000
vn 0.000000 0.000000 1.000000
vn 0.000000 0.000000 1.000000
vn 0.000000 0.000000 1.000000
vn 0.000000 0.000000 1.000000
vn 0.000000 0.000000 1.000000
vn 0.000000 0.000000 1.000000
vn 0.000000 0.000000 1.000000
vn 0.000000 -0.000000 1.000000
vn 0.000000 -0.000000 1.000000
vn 0.000000 -0.000000 1.000000
vn 0.000000 0.000000 1.000000
vn 0.000000 0.000000 1.000000
vn 0.000000 0.000000 1.000000
vn -0.000000 0.000000 -1.000000
vn -0.000000 0.000000 -1.000000
vn -0.000000 0.000000 -1.000000
vn -0.000000 0.000001 -1.000000
vn -0.000000 0.000001 -1.000000
vn -0.000000 0.000001 -1.000000
vn -0.000001 0.000000 -1.000000
vn -0.000001 0.000000 -1.000000
vn -0.000001 0.000000 -1.000000
vn -0.000001 0.000000 -1.000000
vn -0.000001 0.000000 -1.000000
vn -0.000001 0.000000 -1.000000
vn -0.000000 0.000000 -1.000000
vn -0.000000 0.000000 -1.000000
vn -0.000000 0.000000 -1.000000
vn -0.000000 0.000000 -1.000000
vn -0.000000 0.000000 -1.000000
vn -0.000000 0.000000 -1.000000
vn -0.000000 -0.000001 -1.000000
vn -0.000000 -0.000001 -1.000000
vn -0.000000 -0.000001 -1.000000
vn -0.000000 -0.000000 -1.000000
vn -0.000000 -0.000000 -1.000000
vn -0.000000 -0.000000 -1.000000
vn -0.000000 -1.000000 0.000000
vn -0.000000 -1.000000 0.000000
vn -0.000000 -1.000000 0.000000
vn -0.000000 -1.000000 0.000000
vn -0.000000 -1.000000 0.000000
vn -0.000000 -1.000000 0.000000
vn 1.000000 0.000000 0.000000
vn 1.000000 0.000000 0.000000
vn 1.000000 0.000000 0.000000
vn 1.000000 0.000000 0.000000
vn 1.000000 0.000000 0.000000
vn 1.000000 0.000000 0.000000
vn -1.000000 0.000000 0.000000
vn -1.000000 0.000000 0.000000
vn -1.000000 0.000000 0.000000
vn -1.000000 0.000000 0.000000
vn -1.000000 0.000000 0.000000
vn -1.000000 0.000000 0.000000
vn -0.000000 1.000000 0.000000
vn -0.000000 1.000000 0.000000
vn -0.000000 1.000000 0.000000
vn -0.000000 1.000000 0.000000
vn -0.000000 1.000000 0.000000
vn -0.000000 1.000000 0.000000
vn -0.000000 0.000000 -1.000000
vn -0.000000 0.000000 -1.000000
vn -0.000000 0.000000 -1.000000
vn -0.000000 0.000000 -1.000000
vn -0.000000 0.000000 -1.000000
vn -0.000000 0.000000 -1.000000
vn 0.000001 -1.000000 0.000000
vn 0.000001 -1.000000 0.000000
vn 0.000001 -1.000000 0.000000
vn -0.000000 -1.000000 0.000000
vn -0.000000 -1.000000 0.000000
vn -0.000000 -1.000000 0.000000
vn -0.000001 1.000000 0.000000
vn -0.000001 1.000000 0.000000
vn -0.000001 1.000000 0.000000
vn -0.000000 1.000000 0.000000
vn -0.000000 1.000000 0.000000
vn -0.000000 1.000000 0.000000
vn 1.000000 0.000000 0.000000
vn 1.000000 0.000000 0.000000
vn 1.000000 0.000000 0.000000
vn 1.000000 0.000000 0.000000
vn 1.000000 0.000000 0.000000
vn 1.000000 0.000000 0.000000
vn -1.000000 0.000000 0.000000
vn -1.000000 0.000000 0.000000
vn -1.000000 0.000000 0.000000
vn -1.000000 0.000000 0.000000
vn -1.000000 0.000000 0.000000
vn -1.000000 0.000000 0.000000
vn 0.000001 0.000000 1.000000
vn 0.000001 0.000000 1.000000
vn 0.000001 0.000000 1.000000
vn 0.000001 0.000000 1.000000
vn 0.000001 0.000000 1.000000
vn 0.000001 0.000000 1.000000
vn 1.000000 0.000000 0.000000
vn 1.000000 0.000000 0.000000
vn 1.000000 0.000000 0.000000
vn 1.000000 0.000000 -0.000003
vn 1.000000 0.000000 -0.000003
vn 1.000000 0.000000 -0.000003
vn -1.000000 0.000000 0.000000
vn -1.000000 0.000000 0.000000
vn -1.000000 0.000000 0.000000
vn -1.000000 0.000000 0.000000
vn -1.000000 0.000000 0.000000
vn -1.000000 0.000000 0.000000
vn -0.000001 -1.000000 0.000000
vn -0.000001 -1.000000 0.000000
vn -0.000001 -1.000000 0.000000
vn -0.000000 -1.000000 0.000000
vn -0.000000 -1.000000 0.000000
vn -0.000000 -1.000000 0.000000
vn 1.000000 0.000000 0.000000
vn 1.000000 0.000000 0.000000
vn 1.000000 0.000000 0.000000
vn 1.000000 0.000000 -0.000003
vn 1.000000 0.000000 -0.000003
vn 1.000000 0.000000 -0.000003
vn -1.000000 0.000000 0.000000
vn -1.000000 0.000000 0.000000
vn -1.000000 0.000000 0.000000
vn -1.000000 0.000000 0.000000
vn -1.000000 0.000000 0.000000
vn -1.000000 0.000000 0.000000
vn 0.000001 0.000000 1.000000
vn 0.000001 0.000000 1.000000
vn 0.000001 0.000000 1.000000
vn 0.000001 0.000000 1.000000
vn 0.000001 0.000000 1.000000
vn 0.000001 0.000000 1.000000
vn 1.000000 0.000000 0.000000
vn 1.000000 0.000000 0.000000
vn 1.000000 0.000000 0.000000
vn 1.000000 0.000000 0.000000
vn 1.000000 0.000000 0.000000
vn 1.000000 0.000000 0.000000
vn -0.000000 1.000000 0.000000
vn -0.000000 1.000000 0.000000
vn -0.000000 1.000000 0.000000
vn -0.000000 1.000000 0.000000
vn -0.000000 1.000000 0.000000
vn -0.000000 1.000000 0.000000
vn 0.000001 0.000000 1.000000
vn 0.000001 0.000000 1.000000
vn 0.000001 0.000000 1.000000
vn 0.000001 0.000000 1.000000
vn 0.000001 0.000000 1.000000
vn 0.000001 0.000000 1.000000
vn -1.000000 0.000000 0.000003
vn -1.000000 0.000000 0.000003
vn -1.000000 0.000000 0.000003
vn -1.000000 0.000000 0.000000
vn -1.000000 0.000000 0.000000
vn -1.000000 0.000000 0.000000
vn 1.000000 0.000000 0.000000
vn 1.000000 0.000000 0.000000
vn 1.000000 0.000000 0.000000
vn 1.000000 0.000000 0.000000
vn 1.000000 0.000000 0.000000
vn 1.000000 0.000000 0.000000
vn -0.000000 1.000000 0.000000
vn -0.000000 1.000000 0.000000
vn -0.000000 1.000000 0.000000
vn -0.000000 1.000000 0.000000
vn -0.000000 1.000000 0.000000
vn -0.000000 1.000000 0.000000
vn -1.000000 0.000000 0.000000
vn -1.000000 0.000000 0.000000
vn -1.000000 0.000000 0.000000
vn -1.000000 0.000000 0.000000
vn -1.000000 0.000000 0.000000
vn -1.000000 0.000000 0.000000
vn -0.000000 -1.000000 0.000000
vn -0.000000 -1.000000 0.000000
vn -0.000000 -1.000000 0.000000
vn 0.000001 -1.000000 0.000000
vn 0.000001 -1.000000 0.000000
vn 0.000001 -1.000000 0.000000
vn 0.000000 0.000000 1.000000
vn 0.000000 0.000000 1.000000
vn 0.000000 0.000000 1.000000
vn 0.000000 0.000000 1.000000
vn 0.000000 0.000000 1.000000
vn 0.000000 0.000000 1.000000

g Material.001
f 3/1/1 1/2/2 2/3/3
f 4/4/4 1/5/5 3/6/6
f 7/7/7 5/8/8 6/9/9
f 8/10/10 5/11/11 7/12/12
f 11/13/13 9/14/14 10/15/15
f 12/16/16 9/17/17 11/18/18
f 15/19/19 13/20/20 14/21/21
f 16/22/22 13/23/23 15/24/24
f 19/25/25 17/26/26 18/27/27
f 20/28/28 17/29/29 19/30/30
f 23/31/31 21/32/32 22/33/33
f 24/34/34 21/35/35 23/36/36
f 107/37/37 105/38/38 106/39/39
f 108/40/40 105/41/41 107/42/42
f 111/43/43 109/44/44 110/45/45
f 112/46/46 109/47/47 111/48/48
f 115/49/49 113/50/50 114/51/51
f 116/52/52 113/53/53 115/54/54
f 119/55/55 117/56/56 118/57/57
f 120/58/58 117/59/59 119/60/60
f 123/61/61 121/62/62 122/63/63
f 124/64/64 121/65/65 123/66/66
f 127/67/67 125/68/68 126/69/69
f 128/70/70 125/71/71 127/72/72
f 131/73/73 129/74/74 130/75/75
f 132/76/76 129/77/77 131/78/78
f 135/79/79 133/80/80 134/81/81
f 136/82/82 133/83/83 135/84/84
f 139/85/85 137/86/86 138/87/87
f 140/88/88 137/89/89 139/90/90
f 143/91/91 141/92/92 142/93/93
f 144/94/94 141/95/95 143/96/96
f 147/97/97 145/98/98 146/99/99
f 148/100/100 145/101/101 147/102/102
f 151/103/103 149/104/104 150/105/105
f 152/106/106 149/107/107 151/108/108
f 155/109/109 153/110/110 154/111/111
f 156/112/112 153/113/113 155/114/114
f 159/115/115 157/116/116 158/117/117
f 160/118/118 157/119/119 159/120/120

g Material.002
f 27/121/121 25/122/122 26/123/123
f 28/124/124 25/125/125 27/126/126
f 31/127/127 29/128/128 30/129/129
f 32/130/130 29/131/131 31/132/132
f 35/133/133 33/134/134 34/135/135
f 36/136/136 33/137/137 35/138/138
f 39/139/139 37/140/140 38/141/141
f 40/142/142 37/143/143 39/144/144
f 43/145/145 41/146/146 42/147/147
f 44/148/148 41/149/149 43/150/150
f 47/151/151 45/152/152 46/153/153
f 48/154/154 45/155/155 47/156/156
f 51/157/157 49/158/158 50/159/159
f 52/160/160 49/161/161 51/162/162
f 55/163/163 53/164/164 54/165/165
f 56/166/166 53/167/167 55/168/168
f 59/169/169 57/170/170 58/171/171
f 60/172/172 57/173/173 59/174/174
f 63/175/175 61/176/176 62/177/177
f 64/178/178 61/179/179 63/180/180
f 67/181/181 65/182/182 66/183/183
f 68/184/184 65/185/185 67/186/186
f 71/187/187 69/188/188 70/189/189
f 72/190/190 69/191/191 71/192/192
f 75/193/193 73/194/194 74/195/195
f 76/196/196 73/197/197 75/198/198
f 79/199/199 77/200/200 78/201/201
f 80/202/202 77/203/203 79/204/204
f 83/205/205 81/206/206 82/207/207
f 84/208/208 81/209/209 83/210/210
f 87/211/211 85/212/212 86/213/213
f 88/214/214 85/215/215 87/216/216
f 91/217/217 89/218/218 90/219/219
f 92/220/220 89/221/221 91/222/222
f 95/223/223 93/224/224 94/225/225
f 96/226/226 93/227/227 95/228/228
f 99/229/229 97/230/230 98/231/231
f 100/232/232 97/233/233 99/234/234
f 103/235/235 101/236/236 102/237/237
f 104/238/238 101/239/239 103/240/240

g Material
f 163/241/241 161/242/242 162/243/243
f 164/244/244 161/245/245 163/246/246

