# Converted from B3D for Luanti (With Correct Normals)
# Object Name: multidecor_window_door_open

v -1.000000 3.000000 1.000000
v 1.000000 3.000000 1.000000
v 1.000000 3.000000 0.750000
v -1.000000 3.000000 0.750000
v 0.800000 -0.800000 0.875000
v 0.800000 -0.800000 1.000000
v 0.800000 2.800000 1.000000
v 0.800000 2.800000 0.875000
v 1.000000 -1.000000 0.750000
v 1.000000 3.000000 0.750000
v 1.000000 3.000000 1.000000
v 1.000000 -1.000000 1.000000
v 1.000000 -1.000000 1.000000
v -1.000000 -1.000000 1.000000
v -1.000000 -1.000000 0.750000
v 1.000000 -1.000000 0.750000
v -1.000000 -1.000000 1.000000
v -1.000000 3.000000 1.000000
v -1.000000 3.000000 0.750000
v -1.000000 -1.000000 0.750000
v -0.800000 2.800000 0.875000
v -0.800000 2.800000 0.750000
v 0.800000 2.800000 0.750000
v 0.800000 2.800000 0.875000
v 0.800000 -0.800000 0.875000
v 0.800000 -0.800000 0.750000
v -0.800000 -0.800000 0.750000
v -0.800000 -0.800000 0.875000
v -0.800000 -0.800000 0.875000
v -0.800000 -0.800000 0.750000
v -0.800000 2.800000 0.750000
v -0.800000 2.800000 0.875000
v 1.000000 3.000000 0.750000
v 0.800000 2.800000 0.750000
v -0.800000 2.800000 0.750000
v -1.000000 3.000000 0.750000
v 1.000000 -1.000000 0.750000
v 0.800000 -0.800000 0.750000
v 0.800000 2.800000 0.750000
v 1.000000 3.000000 0.750000
v -1.000000 -1.000000 0.750000
v -0.800000 -0.800000 0.750000
v 0.800000 -0.800000 0.750000
v 1.000000 -1.000000 0.750000
v -1.000000 3.000000 0.750000
v -0.800000 2.800000 0.750000
v -0.800000 -0.800000 0.750000
v -1.000000 -1.000000 0.750000
v -1.000000 3.000000 1.000000
v -0.800000 2.800000 1.000000
v 0.800000 2.800000 1.000000
v 1.000000 3.000000 1.000000
v -1.000000 -1.000000 1.000000
v -0.800000 -0.800000 1.000000
v -0.800000 2.800000 1.000000
v -1.000000 3.000000 1.000000
v 1.000000 -1.000000 1.000000
v 0.800000 -0.800000 1.000000
v -0.800000 -0.800000 1.000000
v -1.000000 -1.000000 1.000000
v 1.000000 3.000000 1.000000
v 0.800000 2.800000 1.000000
v 0.800000 -0.800000 1.000000
v 1.000000 -1.000000 1.000000
v -0.800000 -0.800000 1.000000
v -0.800000 -0.800000 0.875000
v -0.800000 2.800000 0.875000
v -0.800000 2.800000 1.000000
v 0.800000 -0.800000 1.000000
v 0.800000 -0.800000 0.875000
v -0.800000 -0.800000 0.875000
v -0.800000 -0.800000 1.000000
v -0.800000 2.800000 1.000000
v -0.800000 2.800000 0.875000
v 0.800000 2.800000 0.875000
v 0.800000 2.800000 1.000000
v 0.800000 -0.800000 0.750000
v 0.800000 -0.800000 0.875000
v 0.800000 2.800000 0.875000
v 0.800000 2.800000 0.750000
v -0.800000 -0.800000 0.875000
v -0.800000 2.800000 0.875000
v 0.800000 2.800000 0.875000
v 0.800000 -0.800000 0.875000
v -0.964645 0.906659 0.750000
v -0.964645 0.906659 0.700000
v -0.835355 0.906659 0.700000
v -0.835355 0.906659 0.750000
v -0.835355 0.906659 0.750000
v -0.835355 0.906659 0.700000
v -0.835355 1.235949 0.700000
v -0.835355 1.235949 0.750000
v -0.835355 1.235949 0.750000
v -0.835355 1.235949 0.700000
v -0.964645 1.235949 0.700000
v -0.964645 1.235949 0.750000
v -0.964645 1.235949 0.750000
v -0.964645 1.235949 0.700000
v -0.964645 0.906659 0.700000
v -0.964645 0.906659 0.750000
v -0.835355 1.235949 0.700000
v -0.835355 0.906659 0.700000
v -0.964645 0.906659 0.700000
v -0.964645 1.235949 0.700000
v -0.862500 1.033804 0.612500
v -0.862500 1.108804 0.612500
v -0.862500 1.108804 0.700000
v -0.862500 1.033804 0.700000
v -0.937500 1.033804 0.700000
v -0.937500 1.108804 0.700000
v -0.937500 1.108804 0.612500
v -0.937500 1.033804 0.612500
v -0.862500 1.033804 0.700000
v -0.937500 1.033804 0.700000
v -0.937500 1.033804 0.612500
v -0.862500 1.033804 0.612500
v -0.937500 1.108804 0.700000
v -0.862500 1.108804 0.700000
v -0.862500 1.108804 0.612500
v -0.937500 1.108804 0.612500
v -0.965625 1.020679 0.612500
v -0.484375 1.020679 0.612500
v -0.484375 1.121929 0.612500
v -0.965625 1.121929 0.612500
v -0.965625 1.020679 0.562500
v -0.965625 1.121929 0.562500
v -0.484375 1.121929 0.562500
v -0.484375 1.020679 0.562500
v -0.965625 1.121929 0.612500
v -0.484375 1.121929 0.612500
v -0.484375 1.121929 0.562500
v -0.965625 1.121929 0.562500
v -0.965625 1.020679 0.612500
v -0.965625 1.121929 0.612500
v -0.965625 1.121929 0.562500
v -0.965625 1.020679 0.562500
v -0.484375 1.020679 0.612500
v -0.965625 1.020679 0.612500
v -0.965625 1.020679 0.562500
v -0.484375 1.020679 0.562500
v -0.484375 1.121929 0.612500
v -0.484375 1.020679 0.612500
v -0.484375 1.020679 0.562500
v -0.484375 1.121929 0.562500

vt 0.350216 0.000181
vt 0.303970 0.370147
vt 0.303970 0.000181
vt 0.350216 0.370147
vt 0.303970 0.370147
vt 0.350216 0.000181
vt 0.037178 0.909123
vt 0.703121 0.885999
vt 0.703120 0.909121
vt 0.037178 0.886000
vt 0.703121 0.885999
vt 0.037178 0.909123
vt 0.000181 0.840785
vt 0.740117 0.887032
vt 0.000182 0.887031
vt 0.740117 0.840786
vt 0.740117 0.887032
vt 0.000181 0.840785
vt 0.576153 0.370147
vt 0.622399 0.000181
vt 0.622399 0.370147
vt 0.576153 0.000181
vt 0.622399 0.000181
vt 0.576153 0.370147
vt 0.000182 0.720182
vt 0.740117 0.673936
vt 0.000182 0.673936
vt 0.740117 0.720182
vt 0.740117 0.673936
vt 0.000182 0.720182
vt 0.492547 0.037178
vt 0.515671 0.333151
vt 0.492548 0.333151
vt 0.515670 0.037178
vt 0.515671 0.333151
vt 0.492547 0.037178
vt 0.433822 0.333151
vt 0.410698 0.037178
vt 0.433821 0.037178
vt 0.410699 0.333151
vt 0.410698 0.037178
vt 0.433822 0.333151
vt 0.037179 0.862514
vt 0.703121 0.885632
vt 0.703121 0.862510
vt 0.037179 0.885637
vt 0.703121 0.885632
vt 0.037179 0.862514
vt 0.439880 0.333151
vt 0.402884 0.000182
vt 0.439880 0.037178
vt 0.402883 0.370147
vt 0.402884 0.000182
vt 0.439880 0.333151
vt 0.037178 0.976695
vt 0.740117 0.939699
vt 0.703121 0.976696
vt 0.000182 0.939699
vt 0.740117 0.939699
vt 0.037178 0.976695
vt 0.486489 0.037178
vt 0.523486 0.370147
vt 0.486489 0.333151
vt 0.523486 0.000182
vt 0.523486 0.370147
vt 0.486489 0.037178
vt 0.703121 0.809846
vt 0.000182 0.772850
vt 0.037178 0.809847
vt 0.740117 0.772850
vt 0.000182 0.772850
vt 0.703121 0.809846
vt 0.319641 0.037178
vt 0.356637 0.370147
vt 0.319641 0.333151
vt 0.356638 0.000181
vt 0.356637 0.370147
vt 0.319641 0.037178
vt 0.037178 0.689607
vt 0.740117 0.726604
vt 0.703121 0.689607
vt 0.000182 0.726604
vt 0.740117 0.726604
vt 0.037178 0.689607
vt 0.606728 0.333151
vt 0.569732 0.000181
vt 0.606728 0.037178
vt 0.569732 0.370147
vt 0.569732 0.000181
vt 0.606728 0.333151
vt 0.703121 0.856457
vt 0.000182 0.893452
vt 0.037178 0.856456
vt 0.740117 0.893454
vt 0.000182 0.893452
vt 0.703121 0.856457
vt 0.037178 0.719151
vt 0.703121 0.742272
vt 0.703121 0.719150
vt 0.037178 0.742274
vt 0.703121 0.742272
vt 0.037178 0.719151
vt 0.577184 0.333151
vt 0.554060 0.037178
vt 0.577183 0.037178
vt 0.554061 0.333151
vt 0.554060 0.037178
vt 0.577184 0.333151
vt 0.349186 0.037178
vt 0.372309 0.333151
vt 0.349186 0.333151
vt 0.372309 0.037178
vt 0.372309 0.333151
vt 0.349186 0.037178
vt 0.037179 1.052486
vt 0.703121 1.029360
vt 0.703121 1.052482
vt 0.037179 1.029363
vt 0.703121 1.029360
vt 0.037179 1.052486
vt 0.486767 0.379760
vt 0.496016 0.403676
vt 0.486766 0.403676
vt 0.496016 0.379759
vt 0.496016 0.403676
vt 0.486767 0.379760
vt 0.373186 0.327092
vt 0.434099 0.317843
vt 0.434099 0.327092
vt 0.373186 0.317843
vt 0.434099 0.317843
vt 0.373186 0.327092
vt 0.320519 0.403676
vt 0.311270 0.379760
vt 0.320519 0.379760
vt 0.311270 0.403676
vt 0.311270 0.379760
vt 0.320519 0.403676
vt 0.434099 0.456343
vt 0.373186 0.465593
vt 0.373186 0.456343
vt 0.434099 0.465593
vt 0.373186 0.465593
vt 0.434099 0.456343
vt 0.434099 0.403676
vt 0.373186 0.379760
vt 0.434099 0.379760
vt 0.373186 0.403676
vt 0.373186 0.379760
vt 0.434099 0.403676
vt 0.512565 0.384384
vt 0.496379 0.398258
vt 0.496379 0.384384
vt 0.512565 0.398258
vt 0.496379 0.398258
vt 0.512565 0.384384
vt 0.496379 0.426005
vt 0.512565 0.412132
vt 0.512565 0.426005
vt 0.496379 0.412132
vt 0.512565 0.412132
vt 0.496379 0.426005
vt 0.496379 0.412132
vt 0.512565 0.398258
vt 0.512565 0.412132
vt 0.496379 0.398258
vt 0.512565 0.398258
vt 0.496379 0.412132
vt 0.496379 0.384384
vt 0.512565 0.370511
vt 0.512565 0.384384
vt 0.496379 0.370511
vt 0.512565 0.370511
vt 0.496379 0.384384
vt 0.385541 0.466008
vt 0.296518 0.447278
vt 0.385541 0.447279
vt 0.296518 0.466008
vt 0.296518 0.447278
vt 0.385541 0.466008
vt 0.265302 0.466008
vt 0.354325 0.447278
vt 0.354325 0.466008
vt 0.265302 0.447279
vt 0.354325 0.447278
vt 0.265302 0.466008
vt 0.277379 0.466008
vt 0.268129 0.466008
vt 0.268129 0.466008
vt 0.277379 0.466008
vt 0.268129 0.466008
vt 0.277379 0.466008
vt 0.354325 0.521450
vt 0.354325 0.530699
vt 0.354325 0.530699
vt 0.354325 0.521450
vt 0.354325 0.530699
vt 0.354325 0.521450
vt 0.406992 0.447279
vt 0.416241 0.447278
vt 0.416241 0.447278
vt 0.406992 0.447279
vt 0.416241 0.447278
vt 0.406992 0.447279
vt 0.265301 0.327092
vt 0.265301 0.317843
vt 0.265301 0.317843
vt 0.265301 0.327092
vt 0.265301 0.317843
vt 0.265301 0.327092
vt 0.000067 0.999933
vt 0.444452 0.000067
vt 0.444452 0.999933
vt 0.000067 0.000067
vt 0.444452 0.000067
vt 0.000067 0.999933

vn -0.000000 1.000000 0.000000
vn -0.000000 1.000000 0.000000
vn -0.000000 1.000000 0.000000
vn -0.000000 1.000000 0.000000
vn -0.000000 1.000000 0.000000
vn -0.000000 1.000000 0.000000
vn -1.000000 0.000000 0.000000
vn -1.000000 0.000000 0.000000
vn -1.000000 0.000000 0.000000
vn -1.000000 0.000000 0.000000
vn -1.000000 0.000000 0.000000
vn -1.000000 0.000000 0.000000
vn 1.000000 0.000000 0.000000
vn 1.000000 0.000000 0.000000
vn 1.000000 0.000000 0.000000
vn 1.000000 0.000000 0.000000
vn 1.000000 0.000000 0.000000
vn 1.000000 0.000000 0.000000
vn -0.000000 -1.000000 0.000000
vn -0.000000 -1.000000 0.000000
vn -0.000000 -1.000000 0.000000
vn -0.000000 -1.000000 0.000000
vn -0.000000 -1.000000 0.000000
vn -0.000000 -1.000000 0.000000
vn -1.000000 0.000000 0.000000
vn -1.000000 0.000000 0.000000
vn -1.000000 0.000000 0.000000
vn -1.000000 0.000000 0.000000
vn -1.000000 0.000000 0.000000
vn -1.000000 0.000000 0.000000
vn -0.000000 -1.000000 0.000000
vn -0.000000 -1.000000 0.000000
vn -0.000000 -1.000000 0.000000
vn -0.000000 -1.000000 0.000000
vn -0.000000 -1.000000 0.000000
vn -0.000000 -1.000000 0.000000
vn -0.000000 1.000000 0.000000
vn -0.000000 1.000000 0.000000
vn -0.000000 1.000000 0.000000
vn -0.000000 1.000000 0.000000
vn -0.000000 1.000000 0.000000
vn -0.000000 1.000000 0.000000
vn 1.000000 0.000000 0.000000
vn 1.000000 0.000000 0.000000
vn 1.000000 0.000000 0.000000
vn 1.000000 0.000000 0.000000
vn 1.000000 0.000000 0.000000
vn 1.000000 0.000000 0.000000
vn -0.000000 -0.000001 -1.000000
vn -0.000000 -0.000001 -1.000000
vn -0.000000 -0.000001 -1.000000
vn -0.000000 0.000001 -1.000000
vn -0.000000 0.000001 -1.000000
vn -0.000000 0.000001 -1.000000
vn -0.000000 0.000000 -1.000000
vn -0.000000 0.000000 -1.000000
vn -0.000000 0.000000 -1.000000
vn -0.000000 0.000000 -1.000000
vn -0.000000 0.000000 -1.000000
vn -0.000000 0.000000 -1.000000
vn -0.000000 0.000001 -1.000000
vn -0.000000 0.000001 -1.000000
vn -0.000000 0.000001 -1.000000
vn -0.000000 -0.000001 -1.000000
vn -0.000000 -0.000001 -1.000000
vn -0.000000 -0.000001 -1.000000
vn -0.000000 0.000000 -1.000000
vn -0.000000 0.000000 -1.000000
vn -0.000000 0.000000 -1.000000
vn -0.000000 0.000000 -1.000000
vn -0.000000 0.000000 -1.000000
vn -0.000000 0.000000 -1.000000
vn -0.000000 0.000000 1.000000
vn -0.000000 0.000000 1.000000
vn -0.000000 0.000000 1.000000
vn -0.000000 0.000000 1.000000
vn -0.000000 0.000000 1.000000
vn -0.000000 0.000000 1.000000
vn -0.000000 0.000000 1.000000
vn -0.000000 0.000000 1.000000
vn -0.000000 0.000000 1.000000
vn -0.000000 0.000000 1.000000
vn -0.000000 0.000000 1.000000
vn -0.000000 0.000000 1.000000
vn -0.000000 -0.000000 1.000000
vn -0.000000 -0.000000 1.000000
vn -0.000000 -0.000000 1.000000
vn -0.000000 0.000000 1.000000
vn -0.000000 0.000000 1.000000
vn -0.000000 0.000000 1.000000
vn -0.000000 0.000000 1.000000
vn -0.000000 0.000000 1.000000
vn -0.000000 0.000000 1.000000
vn -0.000000 0.000000 1.000000
vn -0.000000 0.000000 1.000000
vn -0.000000 0.000000 1.000000
vn 1.000000 0.000000 0.000000
vn 1.000000 0.000000 0.000000
vn 1.000000 0.000000 0.000000
vn 1.000000 0.000000 0.000000
vn 1.000000 0.000000 0.000000
vn 1.000000 0.000000 0.000000
vn -0.000000 1.000000 0.000000
vn -0.000000 1.000000 0.000000
vn -0.000000 1.000000 0.000000
vn -0.000000 1.000000 0.000000
vn -0.000000 1.000000 0.000000
vn -0.000000 1.000000 0.000000
vn -0.000000 -1.000000 0.000000
vn -0.000000 -1.000000 0.000000
vn -0.000000 -1.000000 0.000000
vn -0.000000 -1.000000 0.000000
vn -0.000000 -1.000000 0.000000
vn -0.000000 -1.000000 0.000000
vn -1.000000 0.000000 0.000000
vn -1.000000 0.000000 0.000000
vn -1.000000 0.000000 0.000000
vn -1.000000 0.000000 0.000000
vn -1.000000 0.000000 0.000000
vn -1.000000 0.000000 0.000000
vn -0.000000 -1.000000 0.000002
vn -0.000000 -1.000000 0.000002
vn -0.000000 -1.000000 0.000002
vn -0.000001 -1.000000 0.000000
vn -0.000001 -1.000000 0.000000
vn -0.000001 -1.000000 0.000000
vn 1.000000 -0.000000 0.000000
vn 1.000000 -0.000000 0.000000
vn 1.000000 -0.000000 0.000000
vn 1.000000 0.000000 0.000000
vn 1.000000 0.000000 0.000000
vn 1.000000 0.000000 0.000000
vn -0.000000 1.000000 0.000000
vn -0.000000 1.000000 0.000000
vn -0.000000 1.000000 0.000000
vn -0.000000 1.000000 0.000000
vn -0.000000 1.000000 0.000000
vn -0.000000 1.000000 0.000000
vn -1.000000 0.000000 0.000000
vn -1.000000 0.000000 0.000000
vn -1.000000 0.000000 0.000000
vn -1.000000 0.000000 0.000000
vn -1.000000 0.000000 0.000000
vn -1.000000 0.000000 0.000000
vn -0.000000 -0.000000 -1.000000
vn -0.000000 -0.000000 -1.000000
vn -0.000000 -0.000000 -1.000000
vn -0.000000 0.000000 -1.000000
vn -0.000000 0.000000 -1.000000
vn -0.000000 0.000000 -1.000000
vn 1.000000 0.000000 0.000000
vn 1.000000 0.000000 0.000000
vn 1.000000 0.000000 0.000000
vn 1.000000 0.000000 0.000000
vn 1.000000 0.000000 0.000000
vn 1.000000 0.000000 0.000000
vn -1.000000 0.000000 0.000000
vn -1.000000 0.000000 0.000000
vn -1.000000 0.000000 0.000000
vn -1.000000 0.000000 0.000000
vn -1.000000 0.000000 0.000000
vn -1.000000 0.000000 0.000000
vn -0.000000 -1.000000 0.000000
vn -0.000000 -1.000000 0.000000
vn -0.000000 -1.000000 0.000000
vn -0.000000 -1.000000 0.000000
vn -0.000000 -1.000000 0.000000
vn -0.000000 -1.000000 0.000000
vn -0.000000 1.000000 0.000000
vn -0.000000 1.000000 0.000000
vn -0.000000 1.000000 0.000000
vn -0.000000 1.000000 0.000000
vn -0.000000 1.000000 0.000000
vn -0.000000 1.000000 0.000000
vn -0.000000 0.000000 1.000000
vn -0.000000 0.000000 1.000000
vn -0.000000 0.000000 1.000000
vn -0.000000 0.000000 1.000000
vn -0.000000 0.000000 1.000000
vn -0.000000 0.000000 1.000000
vn -0.000000 0.000000 -1.000000
vn -0.000000 0.000000 -1.000000
vn -0.000000 0.000000 -1.000000
vn -0.000000 0.000000 -1.000000
vn -0.000000 0.000000 -1.000000
vn -0.000000 0.000000 -1.000000
vn -0.000000 1.000000 0.000000
vn -0.000000 1.000000 0.000000
vn -0.000000 1.000000 0.000000
vn -0.000000 1.000000 0.000000
vn -0.000000 1.000000 0.000000
vn -0.000000 1.000000 0.000000
vn -1.000000 0.000000 0.000000
vn -1.000000 0.000000 0.000000
vn -1.000000 0.000000 0.000000
vn -1.000000 0.000000 0.000000
vn -1.000000 0.000000 0.000000
vn -1.000000 0.000000 0.000000
vn -0.000000 -1.000000 0.000000
vn -0.000000 -1.000000 0.000000
vn -0.000000 -1.000000 0.000000
vn -0.000000 -1.000000 0.000000
vn -0.000000 -1.000000 0.000000
vn -0.000000 -1.000000 0.000000
vn 1.000000 0.000000 0.000000
vn 1.000000 0.000000 0.000000
vn 1.000000 0.000000 0.000000
vn 1.000000 0.000000 0.000000
vn 1.000000 0.000000 0.000000
vn 1.000000 0.000000 0.000000
vn -0.000000 0.000000 -1.000000
vn -0.000000 0.000000 -1.000000
vn -0.000000 0.000000 -1.000000
vn -0.000000 0.000000 -1.000000
vn -0.000000 0.000000 -1.000000
vn -0.000000 0.000000 -1.000000

g Material
f 3/1/1 1/2/2 2/3/3
f 4/4/4 1/5/5 3/6/6
f 7/7/7 5/8/8 6/9/9
f 8/10/10 5/11/11 7/12/12
f 11/13/13 9/14/14 10/15/15
f 12/16/16 9/17/17 11/18/18
f 15/19/19 13/20/20 14/21/21
f 16/22/22 13/23/23 15/24/24
f 19/25/25 17/26/26 18/27/27
f 20/28/28 17/29/29 19/30/30
f 23/31/31 21/32/32 22/33/33
f 24/34/34 21/35/35 23/36/36
f 27/37/37 25/38/38 26/39/39
f 28/40/40 25/41/41 27/42/42
f 31/43/43 29/44/44 30/45/45
f 32/46/46 29/47/47 31/48/48
f 35/49/49 33/50/50 34/51/51
f 36/52/52 33/53/53 35/54/54
f 39/55/55 37/56/56 38/57/57
f 40/58/58 37/59/59 39/60/60
f 43/61/61 41/62/62 42/63/63
f 44/64/64 41/65/65 43/66/66
f 47/67/67 45/68/68 46/69/69
f 48/70/70 45/71/71 47/72/72
f 51/73/73 49/74/74 50/75/75
f 52/76/76 49/77/77 51/78/78
f 55/79/79 53/80/80 54/81/81
f 56/82/82 53/83/83 55/84/84
f 59/85/85 57/86/86 58/87/87
f 60/88/88 57/89/89 59/90/90
f 63/91/91 61/92/92 62/93/93
f 64/94/94 61/95/95 63/96/96
f 67/97/97 65/98/98 66/99/99
f 68/100/100 65/101/101 67/102/102
f 71/103/103 69/104/104 70/105/105
f 72/106/106 69/107/107 71/108/108
f 75/109/109 73/110/110 74/111/111
f 76/112/112 73/113/113 75/114/114
f 79/115/115 77/116/116 78/117/117
f 80/118/118 77/119/119 79/120/120
f 87/121/121 85/122/122 86/123/123
f 88/124/124 85/125/125 87/126/126
f 91/127/127 89/128/128 90/129/129
f 92/130/130 89/131/131 91/132/132
f 95/133/133 93/134/134 94/135/135
f 96/136/136 93/137/137 95/138/138
f 99/139/139 97/140/140 98/141/141
f 100/142/142 97/143/143 99/144/144
f 103/145/145 101/146/146 102/147/147
f 104/148/148 101/149/149 103/150/150
f 107/151/151 105/152/152 106/153/153
f 108/154/154 105/155/155 107/156/156
f 111/157/157 109/158/158 110/159/159
f 112/160/160 109/161/161 111/162/162
f 115/163/163 113/164/164 114/165/165
f 116/166/166 113/167/167 115/168/168
f 119/169/169 117/170/170 118/171/171
f 120/172/172 117/173/173 119/174/174
f 123/175/175 121/176/176 122/177/177
f 124/178/178 121/179/179 123/180/180
f 127/181/181 125/182/182 126/183/183
f 128/184/184 125/185/185 127/186/186
f 131/187/187 129/188/188 130/189/189
f 132/190/190 129/191/191 131/192/192
f 135/193/193 133/194/194 134/195/195
f 136/196/196 133/197/197 135/198/198
f 139/199/199 137/200/200 138/201/201
f 140/202/202 137/203/203 139/204/204
f 143/205/205 141/206/206 142/207/207
f 144/208/208 141/209/209 143/210/210

g Material.001
f 83/211/211 81/212/212 82/213/213
f 84/214/214 81/215/215 83/216/216

