# Converted from B3D for Luanti (With Correct Normals)
# Object Name: multidecor_high_dark_rusty_fence

v -0.000000 0.266667 0.100000
v -0.000000 1.000000 0.100000
v -0.070711 1.000000 0.070711
v -0.070711 0.266667 0.070711
v -0.100000 0.266667 -0.000000
v -0.100000 1.000000 -0.000000
v -0.070711 1.000000 -0.070711
v -0.070711 0.266667 -0.070711
v -0.070711 0.266667 -0.070711
v -0.070711 1.000000 -0.070711
v 0.000000 1.000000 -0.100000
v -0.000000 0.266667 -0.100000
v -0.000000 0.266667 -0.100000
v 0.000000 1.000000 -0.100000
v 0.070711 1.000000 -0.070711
v 0.070711 0.266667 -0.070711
v 0.070711 0.266667 -0.070711
v 0.070711 1.000000 -0.070711
v 0.100000 1.000000 0.000000
v 0.100000 0.266667 0.000000
v -0.070711 1.000000 -0.070711
v -0.100000 1.000000 -0.000000
v -0.100000 3.000000 -0.000000
v -0.070711 3.000000 -0.070711
v 0.100000 0.266667 0.000000
v 0.100000 1.000000 0.000000
v 0.070711 1.000000 0.070711
v 0.070711 0.266667 0.070711
v 0.070711 0.266667 0.070711
v 0.070711 1.000000 0.070711
v -0.000000 1.000000 0.100000
v -0.000000 0.266667 0.100000
v -0.070711 -1.000000 -0.070711
v 0.070711 -1.000000 -0.070711
v 0.070711 -1.000000 0.070711
v -0.070711 2.900000 0.050000
v -1.729290 2.900000 0.050000
v -1.729290 2.864645 0.035355
v -0.070711 2.864645 0.035355
v -0.070711 2.864645 0.035355
v -1.729290 2.864645 0.035355
v -1.729290 2.850000 -0.000000
v -0.070711 2.850000 -0.000000
v -0.070711 2.850000 -0.000000
v -1.729290 2.850000 -0.000000
v -1.729290 2.864645 -0.035355
v -0.070711 2.864645 -0.035355
v -0.070711 2.864645 -0.035355
v -1.729290 2.864645 -0.035355
v -1.729290 2.900000 -0.050000
v -0.070711 2.900000 -0.050000
v -0.070711 2.900000 -0.050000
v -1.729290 2.900000 -0.050000
v -1.729290 2.935355 -0.035355
v -0.070711 2.935355 -0.035355
v -0.070711 2.935355 -0.035355
v -1.729290 2.935355 -0.035355
v -1.729290 2.950000 0.000000
v -0.070711 2.950000 0.000000
v -0.070711 2.950000 0.000000
v -1.729290 2.950000 0.000000
v -1.729290 2.935355 0.035355
v -0.070711 2.935355 0.035355
v -0.070711 2.935355 0.035355
v -1.729290 2.935355 0.035355
v -1.729290 2.900000 0.050000
v -0.070711 2.900000 0.050000
v -1.800000 0.266667 0.100000
v -1.800000 1.000000 0.100000
v -1.870711 1.000000 0.070711
v -1.870711 0.266667 0.070711
v -1.870711 0.266667 0.070711
v -1.870711 1.000000 0.070711
v -1.900000 1.000000 -0.000000
v -1.900000 0.266667 -0.000000
v -1.900000 0.266667 -0.000000
v -1.900000 1.000000 -0.000000
v -1.870711 1.000000 -0.070711
v -1.870711 0.266667 -0.070711
v -1.870711 0.266667 -0.070711
v -1.870711 1.000000 -0.070711
v -1.800000 1.000000 -0.100000
v -1.800000 0.266667 -0.100000
v -1.800000 0.266667 -0.100000
v -1.800000 1.000000 -0.100000
v -1.729289 1.000000 -0.070711
v -1.729289 0.266667 -0.070711
v -1.729289 0.266667 -0.070711
v -1.729289 1.000000 -0.070711
v -1.700000 1.000000 0.000000
v -1.700000 0.266667 0.000000
v -1.729289 1.000000 0.070711
v -1.700000 1.000000 0.000000
v -1.700000 3.000000 0.000000
v -1.729289 3.000000 0.070711
v -1.729289 0.266667 0.070711
v -1.729289 1.000000 0.070711
v -1.800000 1.000000 0.100000
v -1.800000 0.266667 0.100000
v -1.729289 -1.000000 -0.070711
v -1.700000 -1.000000 0.000000
v -1.729289 -1.000000 0.070711
v -1.800000 1.000000 -0.100000
v -1.870711 1.000000 -0.070711
v -1.870711 3.000000 -0.070711
v -1.800000 3.000000 -0.100000
v 0.070711 1.000000 -0.070711
v 0.000000 1.000000 -0.100000
v 0.000000 3.000000 -0.100000
v 0.070711 3.000000 -0.070711
v -0.100000 1.000000 -0.000000
v -0.070711 1.000000 0.070711
v -0.070711 3.000000 0.070711
v -0.100000 3.000000 -0.000000
v -1.700000 1.000000 0.000000
v -1.729289 1.000000 -0.070711
v -1.729289 3.000000 -0.070711
v -1.700000 3.000000 0.000000
v 0.070711 1.000000 0.070711
v 0.100000 1.000000 0.000000
v 0.100000 3.000000 0.000000
v 0.070711 3.000000 0.070711
v 0.070711 -1.000000 0.070711
v -0.000000 -1.000000 0.100000
v -0.070711 -1.000000 0.070711
v -0.070711 -1.000000 0.070711
v -0.100000 -1.000000 -0.000000
v -0.070711 -1.000000 -0.070711
v -0.070711 -1.000000 -0.070711
v 0.000000 -1.000000 -0.100000
v 0.070711 -1.000000 -0.070711
v 0.070711 -1.000000 -0.070711
v 0.100000 -1.000000 0.000000
v 0.070711 -1.000000 0.070711
v 0.070711 -1.000000 0.070711
v -0.070711 -1.000000 0.070711
v -0.070711 -1.000000 -0.070711
v -1.870711 1.000000 0.070711
v -1.800000 1.000000 0.100000
v -1.800000 3.000000 0.100000
v -1.870711 3.000000 0.070711
v -1.870711 1.000000 -0.070711
v -1.900000 1.000000 -0.000000
v -1.900000 3.000000 -0.000000
v -1.870711 3.000000 -0.070711
v 0.000000 1.000000 -0.100000
v -0.070711 1.000000 -0.070711
v -0.070711 3.000000 -0.070711
v 0.000000 3.000000 -0.100000
v -0.070711 1.000000 0.070711
v -0.000000 1.000000 0.100000
v -0.000000 3.000000 0.100000
v -0.070711 3.000000 0.070711
v -1.729289 1.000000 -0.070711
v -1.800000 1.000000 -0.100000
v -1.800000 3.000000 -0.100000
v -1.729289 3.000000 -0.070711
v -1.729289 -1.000000 0.070711
v -1.800000 -1.000000 0.100000
v -1.870711 -1.000000 -0.070711
v -1.800000 -1.000000 0.100000
v -1.870711 -1.000000 0.070711
v -1.870711 -1.000000 -0.070711
v -1.870711 -1.000000 0.070711
v -1.900000 -1.000000 -0.000000
v -1.870711 -1.000000 -0.070711
v -1.870711 -1.000000 -0.070711
v -1.800000 -1.000000 -0.100000
v -1.729289 -1.000000 0.070711
v -1.800000 -1.000000 -0.100000
v -1.729289 -1.000000 -0.070711
v -1.729289 -1.000000 0.070711
v -0.070711 -0.700000 0.050000
v -1.729290 -0.700000 0.050000
v -1.729290 -0.735355 0.035355
v -0.070711 -0.735355 0.035355
v -0.070711 -0.735355 0.035355
v -1.729290 -0.735355 0.035355
v -1.729290 -0.750000 -0.000000
v -0.070711 -0.750000 -0.000000
v -0.070711 -0.750000 -0.000000
v -1.729290 -0.750000 -0.000000
v -1.729290 -0.735355 -0.035355
v -0.070711 -0.735355 -0.035355
v -0.070711 -0.735355 -0.035355
v -1.729290 -0.735355 -0.035355
v -1.729290 -0.700000 -0.050000
v -0.070711 -0.700000 -0.050000
v -0.070711 -0.700000 -0.050000
v -1.729290 -0.700000 -0.050000
v -1.729290 -0.664645 -0.035355
v -0.070711 -0.664645 -0.035355
v -0.070711 -0.664645 -0.035355
v -1.729290 -0.664645 -0.035355
v -1.729290 -0.650000 0.000000
v -0.070711 -0.650000 0.000000
v -0.070711 -0.650000 0.000000
v -1.729290 -0.650000 0.000000
v -1.729290 -0.664645 0.035355
v -0.070711 -0.664645 0.035355
v -0.070711 -0.664645 0.035355
v -1.729290 -0.664645 0.035355
v -1.729290 -0.700000 0.050000
v -0.070711 -0.700000 0.050000
v -0.070711 -0.650000 0.000000
v -0.070711 0.850000 -0.000000
v -1.729290 0.850000 -0.000000
v -1.729290 -0.650000 0.000000
v -1.729289 1.000000 0.070711
v -1.729289 0.266667 0.070711
v -1.714645 0.266667 0.035355
v -0.100000 1.000000 -0.000000
v -0.100000 0.266667 -0.000000
v -0.085355 0.266667 0.035355
v -1.714645 -0.066667 0.035355
v -1.729289 -0.066667 0.070711
v -1.729289 -1.000000 0.070711
v -1.729289 -1.000000 0.070711
v -1.729289 -0.066667 0.070711
v -1.800000 -0.066667 0.100000
v -1.800000 -1.000000 0.100000
v -1.729289 -0.066667 0.070711
v -1.729289 0.266667 0.070711
v -1.800000 0.266667 0.100000
v -1.800000 -0.066667 0.100000
v -1.729289 -1.000000 -0.070711
v -1.729289 -0.066667 -0.070711
v -1.700000 -0.066667 0.000000
v -1.700000 -1.000000 0.000000
v -1.729289 -0.066667 -0.070711
v -1.729289 0.266667 -0.070711
v -1.700000 0.266667 0.000000
v -1.700000 -0.066667 0.000000
v -1.800000 -1.000000 -0.100000
v -1.800000 -0.066667 -0.100000
v -1.729289 -0.066667 -0.070711
v -1.729289 -1.000000 -0.070711
v -1.800000 -0.066667 -0.100000
v -1.800000 0.266667 -0.100000
v -1.729289 0.266667 -0.070711
v -1.729289 -0.066667 -0.070711
v -1.870711 -1.000000 -0.070711
v -1.870711 -0.066667 -0.070711
v -1.800000 -0.066667 -0.100000
v -1.800000 -1.000000 -0.100000
v -1.870711 -0.066667 -0.070711
v -1.870711 0.266667 -0.070711
v -1.800000 0.266667 -0.100000
v -1.800000 -0.066667 -0.100000
v -1.900000 -1.000000 -0.000000
v -1.900000 -0.066667 -0.000000
v -1.870711 -0.066667 -0.070711
v -1.870711 -1.000000 -0.070711
v -1.900000 -0.066667 -0.000000
v -1.900000 0.266667 -0.000000
v -1.870711 0.266667 -0.070711
v -1.870711 -0.066667 -0.070711
v -1.870711 -1.000000 0.070711
v -1.870711 -0.066667 0.070711
v -1.900000 -0.066667 -0.000000
v -1.900000 -1.000000 -0.000000
v -1.870711 -0.066667 0.070711
v -1.870711 0.266667 0.070711
v -1.900000 0.266667 -0.000000
v -1.900000 -0.066667 -0.000000
v -1.800000 -1.000000 0.100000
v -1.800000 -0.066667 0.100000
v -1.870711 -0.066667 0.070711
v -1.870711 -1.000000 0.070711
v -1.800000 -0.066667 0.100000
v -1.800000 0.266667 0.100000
v -1.870711 0.266667 0.070711
v -1.870711 -0.066667 0.070711
v -0.085355 -0.066667 0.035355
v -0.100000 -0.066667 -0.000000
v -0.100000 -1.000000 -0.000000
v 0.070711 -1.000000 0.070711
v 0.070711 -0.066667 0.070711
v -0.000000 -0.066667 0.100000
v -0.000000 -1.000000 0.100000
v 0.070711 -0.066667 0.070711
v 0.070711 0.266667 0.070711
v -0.000000 0.266667 0.100000
v -0.000000 -0.066667 0.100000
v 0.100000 -1.000000 0.000000
v 0.100000 -0.066667 0.000000
v 0.070711 -0.066667 0.070711
v 0.070711 -1.000000 0.070711
v 0.100000 -0.066667 0.000000
v 0.100000 0.266667 0.000000
v 0.070711 0.266667 0.070711
v 0.070711 -0.066667 0.070711
v 0.070711 -1.000000 -0.070711
v 0.070711 -0.066667 -0.070711
v 0.100000 -0.066667 0.000000
v 0.100000 -1.000000 0.000000
v 0.070711 -0.066667 -0.070711
v 0.070711 0.266667 -0.070711
v 0.100000 0.266667 0.000000
v 0.100000 -0.066667 0.000000
v 0.000000 -1.000000 -0.100000
v -0.000000 -0.066667 -0.100000
v 0.070711 -0.066667 -0.070711
v 0.070711 -1.000000 -0.070711
v -0.000000 -0.066667 -0.100000
v -0.000000 0.266667 -0.100000
v 0.070711 0.266667 -0.070711
v 0.070711 -0.066667 -0.070711
v -0.070711 -1.000000 -0.070711
v -0.070711 -0.066667 -0.070711
v -0.000000 -0.066667 -0.100000
v 0.000000 -1.000000 -0.100000
v -0.070711 -0.066667 -0.070711
v -0.070711 0.266667 -0.070711
v -0.000000 0.266667 -0.100000
v -0.000000 -0.066667 -0.100000
v -0.100000 -1.000000 -0.000000
v -0.100000 -0.066667 -0.000000
v -0.070711 -0.066667 -0.070711
v -0.070711 -1.000000 -0.070711
v -0.100000 -0.066667 -0.000000
v -0.100000 0.266667 -0.000000
v -0.070711 0.266667 -0.070711
v -0.070711 -0.066667 -0.070711
v -0.000000 -1.000000 0.100000
v -0.000000 -0.066667 0.100000
v -0.070711 -0.066667 0.070711
v -0.070711 -1.000000 0.070711
v -0.000000 -0.066667 0.100000
v -0.000000 0.266667 0.100000
v -0.070711 0.266667 0.070711
v -0.070711 -0.066667 0.070711
v -1.729289 0.833333 0.070711
v -0.070711 0.833333 0.070711
v -0.070711 1.166667 0.070711
v -1.729289 1.166667 0.070711
v -0.085355 1.166667 0.035355
v -0.085355 0.833333 0.035355
v -1.714645 0.833333 0.035355
v -1.714645 1.166667 0.035355
v -1.714645 0.833333 0.035355
v -0.085355 0.833333 0.035355
v -0.070711 0.833333 0.070711
v -1.729289 0.833333 0.070711
v -1.714645 1.166667 0.035355
v -1.729289 1.166667 0.070711
v -0.070711 1.166667 0.070711
v -0.085355 1.166667 0.035355
v -1.700000 -0.066667 0.000000
v -1.700000 0.266667 0.000000
v -1.714645 0.266667 0.035355
v -1.714645 -0.066667 0.035355
v -0.100000 -0.066667 -0.000000
v -0.085355 -0.066667 0.035355
v -0.085355 0.266667 0.035355
v -0.100000 0.266667 -0.000000
v -1.714645 0.266667 0.035355
v -1.700000 0.266667 0.000000
v -1.700000 1.000000 0.000000
v -1.700000 1.000000 0.000000
v -1.729289 1.000000 0.070711
v -1.714645 0.266667 0.035355
v -0.085355 0.266667 0.035355
v -0.070711 0.266667 0.070711
v -0.070711 1.000000 0.070711
v -0.070711 1.000000 0.070711
v -0.100000 1.000000 -0.000000
v -0.085355 0.266667 0.035355
v -1.729289 -1.000000 0.070711
v -1.700000 -1.000000 0.000000
v -1.714645 -0.066667 0.035355
v -1.700000 -1.000000 0.000000
v -1.700000 -0.066667 0.000000
v -1.714645 -0.066667 0.035355
v -0.100000 -1.000000 -0.000000
v -0.070711 -1.000000 0.070711
v -0.085355 -0.066667 0.035355
v -0.070711 -1.000000 0.070711
v -0.070711 -0.066667 0.070711
v -0.085355 -0.066667 0.035355
v -0.100000 3.000000 -0.000000
v -0.000000 3.000000 0.100000
v 0.100000 3.000000 0.000000
v -1.700000 3.000000 0.000000
v -1.800000 3.000000 -0.100000
v -1.900000 3.000000 -0.000000
v -0.100000 3.000000 -0.000000
v -0.070711 3.000000 0.070711
v -0.000000 3.000000 0.100000
v -0.000000 3.000000 0.100000
v 0.070711 3.000000 0.070711
v 0.100000 3.000000 0.000000
v 0.100000 3.000000 0.000000
v 0.070711 3.000000 -0.070711
v 0.000000 3.000000 -0.100000
v 0.000000 3.000000 -0.100000
v -0.070711 3.000000 -0.070711
v 0.100000 3.000000 0.000000
v -0.070711 3.000000 -0.070711
v -0.100000 3.000000 -0.000000
v 0.100000 3.000000 0.000000
v -1.900000 3.000000 -0.000000
v -1.870711 3.000000 0.070711
v -1.800000 3.000000 0.100000
v -1.800000 3.000000 0.100000
v -1.729289 3.000000 0.070711
v -1.700000 3.000000 0.000000
v -1.700000 3.000000 0.000000
v -1.729289 3.000000 -0.070711
v -1.800000 3.000000 -0.100000
v -1.800000 3.000000 -0.100000
v -1.870711 3.000000 -0.070711
v -1.900000 3.000000 -0.000000
v -1.900000 3.000000 -0.000000
v -1.800000 3.000000 0.100000
v -1.700000 3.000000 0.000000
v -0.000000 1.000000 0.100000
v 0.070711 1.000000 0.070711
v 0.070711 3.000000 0.070711
v -0.000000 3.000000 0.100000
v -1.900000 1.000000 -0.000000
v -1.870711 1.000000 0.070711
v -1.870711 3.000000 0.070711
v -1.900000 3.000000 -0.000000
v 0.100000 1.000000 0.000000
v 0.070711 1.000000 -0.070711
v 0.070711 3.000000 -0.070711
v 0.100000 3.000000 0.000000
v -1.800000 1.000000 0.100000
v -1.729289 1.000000 0.070711
v -1.729289 3.000000 0.070711
v -1.800000 3.000000 0.100000
v -1.729290 0.850000 -0.000000
v -0.070711 0.850000 -0.000000
v -0.070711 2.850000 -0.000000
v -1.729290 2.850000 -0.000000
v -0.070711 -0.066667 0.070711
v -0.070711 0.266667 0.070711
v -0.085355 0.266667 0.035355
v -0.085355 -0.066667 0.035355
v -1.714645 0.833333 0.035355
v -1.729289 0.833333 0.070711
v -1.729289 1.166667 0.070711
v -1.714645 1.166667 0.035355
v -1.729289 -0.066667 0.070711
v -1.714645 -0.066667 0.035355
v -1.714645 0.266667 0.035355
v -1.729289 0.266667 0.070711

vt 0.000235 0.439159
vt 0.221103 0.462210
vt 0.000235 0.462211
vt 0.221103 0.439159
vt 0.221103 0.462210
vt 0.000235 0.439159
vt 0.000235 0.393056
vt 0.221103 0.416107
vt 0.000235 0.416107
vt 0.221103 0.393056
vt 0.221103 0.416107
vt 0.000235 0.393056
vt 0.000235 0.370004
vt 0.221103 0.393056
vt 0.000235 0.393056
vt 0.221103 0.370004
vt 0.221103 0.393056
vt 0.000235 0.370004
vt 0.000235 0.531365
vt 0.221103 0.554417
vt 0.000235 0.554417
vt 0.221103 0.531365
vt 0.221103 0.554417
vt 0.000235 0.531365
vt 0.000235 0.508314
vt 0.221103 0.531365
vt 0.000235 0.531365
vt 0.221103 0.508314
vt 0.221103 0.531365
vt 0.000235 0.508314
vt 0.000235 0.231224
vt 0.602605 0.208171
vt 0.602605 0.231223
vt 0.000235 0.208173
vt 0.602605 0.208171
vt 0.000235 0.231224
vt 0.000235 0.485262
vt 0.221103 0.508314
vt 0.000235 0.508314
vt 0.221103 0.485262
vt 0.221103 0.508314
vt 0.000235 0.485262
vt 0.000235 0.462211
vt 0.221103 0.485262
vt 0.000235 0.485262
vt 0.221103 0.462210
vt 0.221103 0.485262
vt 0.000235 0.462211
vt 0.658724 0.402822
vt 0.603072 0.425873
vt 0.619372 0.386522
vt 0.999765 0.913140
vt 0.500242 0.901617
vt 0.999765 0.901615
vt 0.500242 0.913144
vt 0.500242 0.901617
vt 0.999765 0.913140
vt 0.999765 0.924666
vt 0.500242 0.913144
vt 0.999765 0.913140
vt 0.500242 0.924670
vt 0.500242 0.913144
vt 0.999765 0.924666
vt 0.999765 0.843987
vt 0.500242 0.832456
vt 0.999765 0.832462
vt 0.500242 0.843983
vt 0.500242 0.832456
vt 0.999765 0.843987
vt 0.999765 0.855513
vt 0.500242 0.843983
vt 0.999765 0.843987
vt 0.500242 0.855510
vt 0.500242 0.843983
vt 0.999765 0.855513
vt 0.999765 0.867038
vt 0.500242 0.855510
vt 0.999765 0.855513
vt 0.500242 0.867037
vt 0.500242 0.855510
vt 0.999765 0.867038
vt 0.999765 0.878564
vt 0.500242 0.867037
vt 0.999765 0.867038
vt 0.500242 0.878563
vt 0.500242 0.867037
vt 0.999765 0.878564
vt 0.999765 0.890089
vt 0.500242 0.878563
vt 0.999765 0.878564
vt 0.500242 0.890090
vt 0.500242 0.878563
vt 0.999765 0.890089
vt 0.999765 0.901615
vt 0.500242 0.890090
vt 0.999765 0.890089
vt 0.500242 0.901617
vt 0.500242 0.890090
vt 0.999765 0.901615
vt 0.000235 0.624043
vt 0.221103 0.647094
vt 0.000235 0.647094
vt 0.221103 0.624043
vt 0.221103 0.647094
vt 0.000235 0.624043
vt 0.000235 0.600991
vt 0.221103 0.624043
vt 0.000235 0.624043
vt 0.221103 0.600991
vt 0.221103 0.624043
vt 0.000235 0.600991
vt 0.000235 0.577940
vt 0.221103 0.600991
vt 0.000235 0.600991
vt 0.221103 0.577940
vt 0.221103 0.600991
vt 0.000235 0.577940
vt 0.000235 0.554888
vt 0.221103 0.577940
vt 0.000235 0.577940
vt 0.221103 0.554888
vt 0.221103 0.577940
vt 0.000235 0.554888
vt 0.000235 0.716249
vt 0.221103 0.739301
vt 0.000235 0.739301
vt 0.221103 0.716249
vt 0.221103 0.739301
vt 0.000235 0.716249
vt 0.000235 0.693198
vt 0.221103 0.716249
vt 0.000235 0.716249
vt 0.221103 0.693198
vt 0.221103 0.716249
vt 0.000235 0.693198
vt 0.000236 0.138545
vt 0.602605 0.115494
vt 0.602605 0.138546
vt 0.000235 0.115494
vt 0.602605 0.115494
vt 0.000236 0.138545
vt 0.000235 0.647094
vt 0.221103 0.670146
vt 0.000235 0.670146
vt 0.221103 0.647094
vt 0.221103 0.670146
vt 0.000235 0.647094
vt 0.619372 0.610539
vt 0.658724 0.594239
vt 0.642424 0.610539
vt 0.000235 0.023288
vt 0.602605 0.000235
vt 0.602605 0.023287
vt 0.000235 0.000237
vt 0.602605 0.000235
vt 0.000235 0.023288
vt 0.000235 0.369532
vt 0.602605 0.346481
vt 0.602605 0.369533
vt 0.000235 0.346481
vt 0.602605 0.346481
vt 0.000235 0.369532
vt 0.000235 0.254275
vt 0.602605 0.231223
vt 0.602605 0.254274
vt 0.000235 0.231224
vt 0.602605 0.231223
vt 0.000235 0.254275
vt 0.000235 0.161597
vt 0.602605 0.138546
vt 0.602605 0.161597
vt 0.000236 0.138545
vt 0.602605 0.138546
vt 0.000235 0.161597
vt 0.000235 0.323430
vt 0.602605 0.300378
vt 0.602605 0.323430
vt 0.000235 0.300378
vt 0.602605 0.300378
vt 0.000235 0.323430
vt 0.642424 0.442173
vt 0.658724 0.402822
vt 0.658724 0.425873
vt 0.603072 0.425873
vt 0.642424 0.442173
vt 0.619372 0.442173
vt 0.619372 0.386522
vt 0.603072 0.425873
vt 0.603072 0.402822
vt 0.658724 0.402822
vt 0.619372 0.386522
vt 0.642424 0.386522
vt 0.603072 0.425873
vt 0.658724 0.402822
vt 0.642424 0.442173
vt 0.000235 0.092443
vt 0.602605 0.069390
vt 0.602605 0.092442
vt 0.000235 0.069391
vt 0.602605 0.069390
vt 0.000235 0.092443
vt 0.000235 0.046340
vt 0.602605 0.023287
vt 0.602605 0.046339
vt 0.000235 0.023288
vt 0.602605 0.023287
vt 0.000235 0.046340
vt 0.000235 0.208173
vt 0.602605 0.185119
vt 0.602605 0.208171
vt 0.000235 0.185121
vt 0.602605 0.185119
vt 0.000235 0.208173
vt 0.000235 0.277327
vt 0.602605 0.254274
vt 0.602605 0.277326
vt 0.000235 0.254275
vt 0.602605 0.254274
vt 0.000235 0.277327
vt 0.000235 0.184648
vt 0.602605 0.161597
vt 0.602605 0.184649
vt 0.000235 0.161597
vt 0.602605 0.161597
vt 0.000235 0.184648
vt 0.642424 0.554888
vt 0.619372 0.610539
vt 0.603072 0.594239
vt 0.642424 0.554888
vt 0.603072 0.594239
vt 0.603072 0.571188
vt 0.642424 0.554888
vt 0.603072 0.571188
vt 0.619372 0.554888
vt 0.619372 0.610539
vt 0.642424 0.554888
vt 0.658724 0.571188
vt 0.619372 0.610539
vt 0.658724 0.571188
vt 0.658724 0.594239
vt 0.999765 0.774354
vt 0.500242 0.762825
vt 0.999765 0.762828
vt 0.500242 0.774352
vt 0.500242 0.762825
vt 0.999765 0.774354
vt 0.999765 0.785879
vt 0.500242 0.774352
vt 0.999765 0.774354
vt 0.500242 0.785879
vt 0.500242 0.774352
vt 0.999765 0.785879
vt 0.999765 0.797405
vt 0.500242 0.785879
vt 0.999765 0.785879
vt 0.500242 0.797405
vt 0.500242 0.785879
vt 0.999765 0.797405
vt 0.999765 0.808930
vt 0.500242 0.797405
vt 0.999765 0.797405
vt 0.500242 0.808932
vt 0.500242 0.797405
vt 0.999765 0.808930
vt 0.999765 0.820456
vt 0.500242 0.808932
vt 0.999765 0.808930
vt 0.500242 0.820459
vt 0.500242 0.808932
vt 0.999765 0.820456
vt 0.999765 0.831981
vt 0.500242 0.820459
vt 0.999765 0.820456
vt 0.500242 0.831986
vt 0.500242 0.820459
vt 0.999765 0.831981
vt 0.999765 0.751303
vt 0.500242 0.739772
vt 0.999765 0.739777
vt 0.500242 0.751298
vt 0.500242 0.739772
vt 0.999765 0.751303
vt 0.999765 0.762828
vt 0.500242 0.751298
vt 0.999765 0.751303
vt 0.500242 0.762825
vt 0.500242 0.751298
vt 0.999765 0.762828
vt 0.221103 0.681672
vt 0.000235 0.670146
vt 0.221103 0.670146
vt 0.221103 0.427633
vt 0.000235 0.416107
vt 0.221103 0.416107
vt 0.602602 0.670146
vt 0.321498 0.681672
vt 0.321498 0.670146
vt 0.321498 0.647094
vt 0.602602 0.670146
vt 0.321498 0.670146
vt 0.602602 0.647094
vt 0.602602 0.670146
vt 0.321498 0.647094
vt 0.221103 0.647094
vt 0.321498 0.670146
vt 0.221103 0.670146
vt 0.321498 0.647094
vt 0.321498 0.670146
vt 0.221103 0.647094
vt 0.321498 0.693198
vt 0.602602 0.716249
vt 0.321498 0.716249
vt 0.602602 0.693198
vt 0.602602 0.716249
vt 0.321498 0.693198
vt 0.221103 0.693198
vt 0.321498 0.716249
vt 0.221103 0.716249
vt 0.321498 0.693198
vt 0.321498 0.716249
vt 0.221103 0.693198
vt 0.321498 0.716249
vt 0.602602 0.739301
vt 0.321498 0.739301
vt 0.602602 0.716249
vt 0.602602 0.739301
vt 0.321498 0.716249
vt 0.221103 0.716249
vt 0.321498 0.739301
vt 0.221103 0.739301
vt 0.321498 0.716249
vt 0.321498 0.739301
vt 0.221103 0.716249
vt 0.321498 0.554888
vt 0.602602 0.577939
vt 0.321498 0.577940
vt 0.602602 0.554888
vt 0.602602 0.577939
vt 0.321498 0.554888
vt 0.221103 0.554888
vt 0.321498 0.577940
vt 0.221103 0.577940
vt 0.321498 0.554888
vt 0.321498 0.577940
vt 0.221103 0.554888
vt 0.321498 0.577940
vt 0.602602 0.600991
vt 0.321498 0.600991
vt 0.602602 0.577939
vt 0.602602 0.600991
vt 0.321498 0.577940
vt 0.221103 0.577940
vt 0.321498 0.600991
vt 0.221103 0.600991
vt 0.321498 0.577940
vt 0.321498 0.600991
vt 0.221103 0.577940
vt 0.321498 0.600991
vt 0.602602 0.624043
vt 0.321498 0.624043
vt 0.602602 0.600991
vt 0.602602 0.624043
vt 0.321498 0.600991
vt 0.221103 0.600991
vt 0.321498 0.624043
vt 0.221103 0.624043
vt 0.321498 0.600991
vt 0.321498 0.624043
vt 0.221103 0.600991
vt 0.321498 0.624043
vt 0.602602 0.647094
vt 0.321498 0.647094
vt 0.602602 0.624043
vt 0.602602 0.647094
vt 0.321498 0.624043
vt 0.221103 0.624043
vt 0.321498 0.647094
vt 0.221103 0.647094
vt 0.321498 0.624043
vt 0.321498 0.647094
vt 0.221103 0.624043
vt 0.602602 0.416107
vt 0.321497 0.427633
vt 0.321497 0.416107
vt 0.321497 0.462210
vt 0.602602 0.485262
vt 0.321497 0.485262
vt 0.602602 0.462210
vt 0.602602 0.485262
vt 0.321497 0.462210
vt 0.221103 0.462210
vt 0.321497 0.485262
vt 0.221103 0.485262
vt 0.321497 0.462210
vt 0.321497 0.485262
vt 0.221103 0.462210
vt 0.321497 0.485262
vt 0.602602 0.508314
vt 0.321497 0.508313
vt 0.602602 0.485262
vt 0.602602 0.508314
vt 0.321497 0.485262
vt 0.221103 0.485262
vt 0.321497 0.508313
vt 0.221103 0.508314
vt 0.321497 0.485262
vt 0.321497 0.508313
vt 0.221103 0.485262
vt 0.321497 0.508313
vt 0.602602 0.531365
vt 0.321497 0.531365
vt 0.602602 0.508314
vt 0.602602 0.531365
vt 0.321497 0.508313
vt 0.221103 0.508314
vt 0.321497 0.531365
vt 0.221103 0.531365
vt 0.321497 0.508313
vt 0.321497 0.531365
vt 0.221103 0.508314
vt 0.321497 0.531365
vt 0.602602 0.554417
vt 0.321497 0.554417
vt 0.602602 0.531365
vt 0.602602 0.554417
vt 0.321497 0.531365
vt 0.221103 0.531365
vt 0.321497 0.554417
vt 0.221103 0.554417
vt 0.321497 0.531365
vt 0.321497 0.554417
vt 0.221103 0.531365
vt 0.321497 0.370004
vt 0.602602 0.393055
vt 0.321497 0.393055
vt 0.602602 0.370004
vt 0.602602 0.393055
vt 0.321497 0.370004
vt 0.221103 0.370004
vt 0.321497 0.393055
vt 0.221103 0.393056
vt 0.321497 0.370004
vt 0.321497 0.393055
vt 0.221103 0.370004
vt 0.321497 0.393055
vt 0.602602 0.416107
vt 0.321497 0.416107
vt 0.602602 0.393055
vt 0.602602 0.416107
vt 0.321497 0.393055
vt 0.221103 0.393056
vt 0.321497 0.416107
vt 0.221103 0.416107
vt 0.321497 0.393055
vt 0.321497 0.416107
vt 0.221103 0.393056
vt 0.321497 0.439159
vt 0.602602 0.462210
vt 0.321497 0.462210
vt 0.602602 0.439158
vt 0.602602 0.462210
vt 0.321497 0.439159
vt 0.221103 0.439159
vt 0.321497 0.462210
vt 0.221103 0.462210
vt 0.321497 0.439159
vt 0.321497 0.462210
vt 0.221103 0.439159
vt 0.221103 0.681672
vt 0.321498 0.693198
vt 0.221103 0.693198
vt 0.321498 0.681672
vt 0.321498 0.693198
vt 0.221103 0.681672
vt 0.221103 0.427633
vt 0.321497 0.416107
vt 0.321497 0.427633
vt 0.221103 0.416107
vt 0.321497 0.416107
vt 0.221103 0.427633
vt 0.000235 0.693198
vt 0.221103 0.681672
vt 0.221103 0.693198
vt 0.221103 0.681672
vt 0.000235 0.693198
vt 0.000235 0.670146
vt 0.000235 0.439159
vt 0.221103 0.427633
vt 0.221103 0.439159
vt 0.221103 0.427633
vt 0.000235 0.439159
vt 0.000235 0.416107
vt 0.321498 0.681672
vt 0.602602 0.670146
vt 0.602602 0.693198
vt 0.321498 0.681672
vt 0.602602 0.693198
vt 0.321498 0.693198
vt 0.321497 0.427633
vt 0.602602 0.416107
vt 0.602602 0.439159
vt 0.321497 0.427632
vt 0.602602 0.439158
vt 0.321497 0.439159
vt 0.603072 0.481995
vt 0.658724 0.458944
vt 0.642424 0.498295
vt 0.619372 0.554417
vt 0.642424 0.498766
vt 0.658724 0.538117
vt 0.642424 0.498295
vt 0.658724 0.458944
vt 0.658724 0.481995
vt 0.603072 0.481995
vt 0.642424 0.498295
vt 0.619372 0.498295
vt 0.619372 0.442644
vt 0.603072 0.481995
vt 0.603072 0.458944
vt 0.603072 0.481995
vt 0.619372 0.442644
vt 0.642424 0.442644
vt 0.603072 0.481995
vt 0.642424 0.442644
vt 0.658724 0.458944
vt 0.603072 0.515066
vt 0.619372 0.554417
vt 0.603072 0.538117
vt 0.642424 0.498766
vt 0.603072 0.515066
vt 0.619372 0.498766
vt 0.658724 0.538117
vt 0.642424 0.498766
vt 0.658724 0.515066
vt 0.619372 0.554417
vt 0.658724 0.538117
vt 0.642424 0.554417
vt 0.642424 0.498766
vt 0.619372 0.554417
vt 0.603072 0.515066
vt 0.000235 0.300378
vt 0.602605 0.277326
vt 0.602605 0.300378
vt 0.000235 0.277327
vt 0.602605 0.277326
vt 0.000235 0.300378
vt 0.000235 0.069391
vt 0.602605 0.046339
vt 0.602605 0.069390
vt 0.000235 0.046340
vt 0.602605 0.046339
vt 0.000235 0.069391
vt 0.000235 0.346481
vt 0.602605 0.323430
vt 0.602605 0.346481
vt 0.000235 0.323430
vt 0.602605 0.323430
vt 0.000235 0.346481
vt 0.000235 0.115494
vt 0.602605 0.092442
vt 0.602605 0.115494
vt 0.000235 0.092443
vt 0.602605 0.092442
vt 0.000235 0.115494
vt 0.221103 0.427633
vt 0.321497 0.439159
vt 0.221103 0.439159
vt 0.321497 0.427633
vt 0.321497 0.439159
vt 0.221103 0.427633
vt 0.221103 0.681672
vt 0.321498 0.670146
vt 0.321498 0.681672
vt 0.221103 0.670146
vt 0.321498 0.670146
vt 0.221103 0.681672
vt 0.997963 0.525177
vt -0.004968 0.474824
vt 0.471321 -0.001466
vt 0.521674 1.001466
vt -0.004968 0.474824
vt 0.997963 0.525177
vt 1.106374 -0.636518
vt 0.997963 0.525177
vt 0.471321 -0.001466
vt 1.633016 -0.109876
vt 0.997963 0.525177
vt 1.106374 -0.636518
vt 0.499771 0.961858
vt 0.000235 0.861465
vt 0.499771 0.861463
vt 0.000235 0.961859
vt 0.000235 0.861465
vt 0.499771 0.961858
vt 0.004647 0.850814
vt 0.495360 0.750421
vt 0.495360 0.850815
vt 0.004647 0.750420
vt 0.495360 0.750421
vt 0.004647 0.850814
vt 0.499771 0.861463
vt 0.004647 0.850814
vt 0.495360 0.850815
vt 0.000235 0.861465
vt 0.004647 0.850814
vt 0.499771 0.861463
vt 0.499771 0.739772
vt 0.004647 0.750420
vt 0.000236 0.739772
vt 0.495360 0.750421
vt 0.004647 0.750420
vt 0.499771 0.739772
vt 0.603075 0.000235
vt 0.614601 0.100630
vt 0.603075 0.100630
vt 0.614601 0.000235
vt 0.614601 0.100630
vt 0.603075 0.000235

vn -0.382683 0.000000 0.923880
vn -0.382683 0.000000 0.923880
vn -0.382683 0.000000 0.923880
vn -0.382683 -0.000000 0.923880
vn -0.382683 -0.000000 0.923880
vn -0.382683 -0.000000 0.923880
vn -0.923879 0.000000 -0.382684
vn -0.923879 0.000000 -0.382684
vn -0.923879 0.000000 -0.382684
vn -0.923880 -0.000000 -0.382684
vn -0.923880 -0.000000 -0.382684
vn -0.923880 -0.000000 -0.382684
vn -0.382683 -0.000000 -0.923880
vn -0.382683 -0.000000 -0.923880
vn -0.382683 -0.000000 -0.923880
vn -0.382683 0.000000 -0.923880
vn -0.382683 0.000000 -0.923880
vn -0.382683 0.000000 -0.923880
vn 0.382684 0.000000 -0.923879
vn 0.382684 0.000000 -0.923879
vn 0.382684 0.000000 -0.923879
vn 0.382684 -0.000000 -0.923880
vn 0.382684 -0.000000 -0.923880
vn 0.382684 -0.000000 -0.923880
vn 0.923880 -0.000000 -0.382684
vn 0.923880 -0.000000 -0.382684
vn 0.923880 -0.000000 -0.382684
vn 0.923879 0.000000 -0.382684
vn 0.923879 0.000000 -0.382684
vn 0.923879 0.000000 -0.382684
vn -0.923880 0.000000 -0.382684
vn -0.923880 0.000000 -0.382684
vn -0.923880 0.000000 -0.382684
vn -0.923880 0.000000 -0.382683
vn -0.923880 0.000000 -0.382683
vn -0.923880 0.000000 -0.382683
vn 0.923880 0.000000 0.382684
vn 0.923880 0.000000 0.382684
vn 0.923880 0.000000 0.382684
vn 0.923879 -0.000000 0.382684
vn 0.923879 -0.000000 0.382684
vn 0.923879 -0.000000 0.382684
vn 0.382684 -0.000000 0.923880
vn 0.382684 -0.000000 0.923880
vn 0.382684 -0.000000 0.923880
vn 0.382684 0.000000 0.923880
vn 0.382684 0.000000 0.923880
vn 0.382684 0.000000 0.923880
vn -0.000000 -1.000000 0.000000
vn -0.000000 -1.000000 0.000000
vn -0.000000 -1.000000 0.000000
vn -0.000000 -0.382684 0.923879
vn -0.000000 -0.382684 0.923879
vn -0.000000 -0.382684 0.923879
vn -0.000000 -0.382684 0.923879
vn -0.000000 -0.382684 0.923879
vn -0.000000 -0.382684 0.923879
vn -0.000000 -0.923880 0.382683
vn -0.000000 -0.923880 0.382683
vn -0.000000 -0.923880 0.382683
vn -0.000000 -0.923880 0.382683
vn -0.000000 -0.923880 0.382683
vn -0.000000 -0.923880 0.382683
vn -0.000000 -0.923880 -0.382683
vn -0.000000 -0.923880 -0.382683
vn -0.000000 -0.923880 -0.382683
vn -0.000000 -0.923880 -0.382683
vn -0.000000 -0.923880 -0.382683
vn -0.000000 -0.923880 -0.382683
vn -0.000000 -0.382684 -0.923879
vn -0.000000 -0.382684 -0.923879
vn -0.000000 -0.382684 -0.923879
vn -0.000000 -0.382684 -0.923879
vn -0.000000 -0.382684 -0.923879
vn -0.000000 -0.382684 -0.923879
vn -0.000000 0.382684 -0.923879
vn -0.000000 0.382684 -0.923879
vn -0.000000 0.382684 -0.923879
vn -0.000000 0.382684 -0.923879
vn -0.000000 0.382684 -0.923879
vn -0.000000 0.382684 -0.923879
vn -0.000000 0.923880 -0.382683
vn -0.000000 0.923880 -0.382683
vn -0.000000 0.923880 -0.382683
vn -0.000000 0.923880 -0.382683
vn -0.000000 0.923880 -0.382683
vn -0.000000 0.923880 -0.382683
vn -0.000000 0.923880 0.382683
vn -0.000000 0.923880 0.382683
vn -0.000000 0.923880 0.382683
vn -0.000000 0.923880 0.382683
vn -0.000000 0.923880 0.382683
vn -0.000000 0.923880 0.382683
vn -0.000000 0.382684 0.923879
vn -0.000000 0.382684 0.923879
vn -0.000000 0.382684 0.923879
vn -0.000000 0.382684 0.923879
vn -0.000000 0.382684 0.923879
vn -0.000000 0.382684 0.923879
vn -0.382683 0.000000 0.923880
vn -0.382683 0.000000 0.923880
vn -0.382683 0.000000 0.923880
vn -0.382683 0.000000 0.923880
vn -0.382683 0.000000 0.923880
vn -0.382683 0.000000 0.923880
vn -0.923881 0.000000 0.382680
vn -0.923881 0.000000 0.382680
vn -0.923881 0.000000 0.382680
vn -0.923879 0.000000 0.382684
vn -0.923879 0.000000 0.382684
vn -0.923879 0.000000 0.382684
vn -0.923879 0.000000 -0.382684
vn -0.923879 0.000000 -0.382684
vn -0.923879 0.000000 -0.382684
vn -0.923881 0.000000 -0.382681
vn -0.923881 0.000000 -0.382681
vn -0.923881 0.000000 -0.382681
vn -0.382683 0.000000 -0.923880
vn -0.382683 0.000000 -0.923880
vn -0.382683 0.000000 -0.923880
vn -0.382683 0.000000 -0.923880
vn -0.382683 0.000000 -0.923880
vn -0.382683 0.000000 -0.923880
vn 0.382683 0.000000 -0.923880
vn 0.382683 0.000000 -0.923880
vn 0.382683 0.000000 -0.923880
vn 0.382683 0.000000 -0.923880
vn 0.382683 0.000000 -0.923880
vn 0.382683 0.000000 -0.923880
vn 0.923881 0.000000 -0.382681
vn 0.923881 0.000000 -0.382681
vn 0.923881 0.000000 -0.382681
vn 0.923879 0.000000 -0.382684
vn 0.923879 0.000000 -0.382684
vn 0.923879 0.000000 -0.382684
vn 0.923880 0.000000 0.382683
vn 0.923880 0.000000 0.382683
vn 0.923880 0.000000 0.382683
vn 0.923880 0.000000 0.382683
vn 0.923880 0.000000 0.382683
vn 0.923880 0.000000 0.382683
vn 0.382683 0.000000 0.923880
vn 0.382683 0.000000 0.923880
vn 0.382683 0.000000 0.923880
vn 0.382683 0.000000 0.923880
vn 0.382683 0.000000 0.923880
vn 0.382683 0.000000 0.923880
vn -0.000000 -1.000000 0.000000
vn -0.000000 -1.000000 0.000000
vn -0.000000 -1.000000 0.000000
vn -0.382684 0.000000 -0.923880
vn -0.382684 0.000000 -0.923880
vn -0.382684 0.000000 -0.923880
vn -0.382682 0.000000 -0.923880
vn -0.382682 0.000000 -0.923880
vn -0.382682 0.000000 -0.923880
vn 0.382684 0.000000 -0.923880
vn 0.382684 0.000000 -0.923880
vn 0.382684 0.000000 -0.923880
vn 0.382684 0.000000 -0.923880
vn 0.382684 0.000000 -0.923880
vn 0.382684 0.000000 -0.923880
vn -0.923880 0.000000 0.382683
vn -0.923880 0.000000 0.382683
vn -0.923880 0.000000 0.382683
vn -0.923880 0.000000 0.382683
vn -0.923880 0.000000 0.382683
vn -0.923880 0.000000 0.382683
vn 0.923880 0.000000 -0.382683
vn 0.923880 0.000000 -0.382683
vn 0.923880 0.000000 -0.382683
vn 0.923880 0.000000 -0.382683
vn 0.923880 0.000000 -0.382683
vn 0.923880 0.000000 -0.382683
vn 0.923880 0.000000 0.382683
vn 0.923880 0.000000 0.382683
vn 0.923880 0.000000 0.382683
vn 0.923880 0.000000 0.382683
vn 0.923880 0.000000 0.382683
vn 0.923880 0.000000 0.382683
vn -0.000000 -1.000000 0.000000
vn -0.000000 -1.000000 0.000000
vn -0.000000 -1.000000 0.000000
vn -0.000000 -1.000000 0.000000
vn -0.000000 -1.000000 0.000000
vn -0.000000 -1.000000 0.000000
vn -0.000000 -1.000000 0.000000
vn -0.000000 -1.000000 0.000000
vn -0.000000 -1.000000 0.000000
vn -0.000000 -1.000000 0.000000
vn -0.000000 -1.000000 0.000000
vn -0.000000 -1.000000 0.000000
vn -0.000000 -1.000000 0.000000
vn -0.000000 -1.000000 0.000000
vn -0.000000 -1.000000 0.000000
vn -0.382682 0.000000 0.923880
vn -0.382682 0.000000 0.923880
vn -0.382682 0.000000 0.923880
vn -0.382684 0.000000 0.923880
vn -0.382684 0.000000 0.923880
vn -0.382684 0.000000 0.923880
vn -0.923880 0.000000 -0.382683
vn -0.923880 0.000000 -0.382683
vn -0.923880 0.000000 -0.382683
vn -0.923880 0.000000 -0.382683
vn -0.923880 0.000000 -0.382683
vn -0.923880 0.000000 -0.382683
vn -0.382683 0.000000 -0.923880
vn -0.382683 0.000000 -0.923880
vn -0.382683 0.000000 -0.923880
vn -0.382683 0.000000 -0.923880
vn -0.382683 0.000000 -0.923880
vn -0.382683 0.000000 -0.923880
vn -0.382683 0.000000 0.923880
vn -0.382683 0.000000 0.923880
vn -0.382683 0.000000 0.923880
vn -0.382683 0.000000 0.923880
vn -0.382683 0.000000 0.923880
vn -0.382683 0.000000 0.923880
vn 0.382683 0.000000 -0.923880
vn 0.382683 0.000000 -0.923880
vn 0.382683 0.000000 -0.923880
vn 0.382684 0.000000 -0.923879
vn 0.382684 0.000000 -0.923879
vn 0.382684 0.000000 -0.923879
vn -0.000001 -1.000000 0.000000
vn -0.000001 -1.000000 0.000000
vn -0.000001 -1.000000 0.000000
vn 0.000001 -1.000000 0.000000
vn 0.000001 -1.000000 0.000000
vn 0.000001 -1.000000 0.000000
vn -0.000000 -1.000000 0.000000
vn -0.000000 -1.000000 0.000000
vn -0.000000 -1.000000 0.000000
vn -0.000001 -1.000000 0.000000
vn -0.000001 -1.000000 0.000000
vn -0.000001 -1.000000 0.000000
vn 0.000001 -1.000000 0.000000
vn 0.000001 -1.000000 0.000000
vn 0.000001 -1.000000 0.000000
vn -0.000000 -0.382684 0.923879
vn -0.000000 -0.382684 0.923879
vn -0.000000 -0.382684 0.923879
vn -0.000000 -0.382684 0.923879
vn -0.000000 -0.382684 0.923879
vn -0.000000 -0.382684 0.923879
vn -0.000000 -0.923879 0.382684
vn -0.000000 -0.923879 0.382684
vn -0.000000 -0.923879 0.382684
vn -0.000000 -0.923879 0.382684
vn -0.000000 -0.923879 0.382684
vn -0.000000 -0.923879 0.382684
vn -0.000000 -0.923879 -0.382684
vn -0.000000 -0.923879 -0.382684
vn -0.000000 -0.923879 -0.382684
vn -0.000000 -0.923879 -0.382684
vn -0.000000 -0.923879 -0.382684
vn -0.000000 -0.923879 -0.382684
vn -0.000000 -0.382684 -0.923879
vn -0.000000 -0.382684 -0.923879
vn -0.000000 -0.382684 -0.923879
vn -0.000000 -0.382684 -0.923879
vn -0.000000 -0.382684 -0.923879
vn -0.000000 -0.382684 -0.923879
vn -0.000000 0.382683 -0.923880
vn -0.000000 0.382683 -0.923880
vn -0.000000 0.382683 -0.923880
vn -0.000000 0.382683 -0.923880
vn -0.000000 0.382683 -0.923880
vn -0.000000 0.382683 -0.923880
vn -0.000000 0.923880 -0.382683
vn -0.000000 0.923880 -0.382683
vn -0.000000 0.923880 -0.382683
vn -0.000000 0.923880 -0.382683
vn -0.000000 0.923880 -0.382683
vn -0.000000 0.923880 -0.382683
vn -0.000000 0.923880 0.382683
vn -0.000000 0.923880 0.382683
vn -0.000000 0.923880 0.382683
vn -0.000000 0.923880 0.382683
vn -0.000000 0.923880 0.382683
vn -0.000000 0.923880 0.382683
vn -0.000000 0.382683 0.923880
vn -0.000000 0.382683 0.923880
vn -0.000000 0.382683 0.923880
vn -0.000000 0.382683 0.923880
vn -0.000000 0.382683 0.923880
vn -0.000000 0.382683 0.923880
vn 0.923881 0.000000 0.382681
vn 0.923881 0.000000 0.382681
vn 0.923881 0.000000 0.382681
vn -0.923879 0.000000 0.382684
vn -0.923879 0.000000 0.382684
vn -0.923879 0.000000 0.382684
vn 0.923878 0.000000 0.382688
vn 0.923878 0.000000 0.382688
vn 0.923878 0.000000 0.382688
vn 0.382685 0.000000 0.923879
vn 0.382685 0.000000 0.923879
vn 0.382685 0.000000 0.923879
vn 0.382682 0.000000 0.923880
vn 0.382682 0.000000 0.923880
vn 0.382682 0.000000 0.923880
vn 0.382684 0.000000 0.923879
vn 0.382684 0.000000 0.923879
vn 0.382684 0.000000 0.923879
vn 0.382683 0.000000 0.923880
vn 0.382683 0.000000 0.923880
vn 0.382683 0.000000 0.923880
vn 0.923879 0.000000 -0.382685
vn 0.923879 0.000000 -0.382685
vn 0.923879 0.000000 -0.382685
vn 0.923880 0.000000 -0.382682
vn 0.923880 0.000000 -0.382682
vn 0.923880 0.000000 -0.382682
vn 0.923879 0.000000 -0.382684
vn 0.923879 0.000000 -0.382684
vn 0.923879 0.000000 -0.382684
vn 0.923881 0.000000 -0.382680
vn 0.923881 0.000000 -0.382680
vn 0.923881 0.000000 -0.382680
vn 0.382682 0.000000 -0.923880
vn 0.382682 0.000000 -0.923880
vn 0.382682 0.000000 -0.923880
vn 0.382685 0.000000 -0.923879
vn 0.382685 0.000000 -0.923879
vn 0.382685 0.000000 -0.923879
vn 0.382683 0.000000 -0.923880
vn 0.382683 0.000000 -0.923880
vn 0.382683 0.000000 -0.923880
vn 0.382684 0.000000 -0.923879
vn 0.382684 0.000000 -0.923879
vn 0.382684 0.000000 -0.923879
vn -0.382683 0.000000 -0.923880
vn -0.382683 0.000000 -0.923880
vn -0.382683 0.000000 -0.923880
vn -0.382682 0.000000 -0.923880
vn -0.382682 0.000000 -0.923880
vn -0.382682 0.000000 -0.923880
vn -0.382682 0.000000 -0.923880
vn -0.382682 0.000000 -0.923880
vn -0.382682 0.000000 -0.923880
vn -0.382682 0.000000 -0.923880
vn -0.382682 0.000000 -0.923880
vn -0.382682 0.000000 -0.923880
vn -0.923880 0.000000 -0.382682
vn -0.923880 0.000000 -0.382682
vn -0.923880 0.000000 -0.382682
vn -0.923880 0.000000 -0.382682
vn -0.923880 0.000000 -0.382682
vn -0.923880 0.000000 -0.382682
vn -0.923879 0.000000 -0.382684
vn -0.923879 0.000000 -0.382684
vn -0.923879 0.000000 -0.382684
vn -0.923881 0.000000 -0.382680
vn -0.923881 0.000000 -0.382680
vn -0.923881 0.000000 -0.382680
vn -0.923880 0.000000 0.382682
vn -0.923880 0.000000 0.382682
vn -0.923880 0.000000 0.382682
vn -0.923880 0.000000 0.382682
vn -0.923880 0.000000 0.382682
vn -0.923880 0.000000 0.382682
vn -0.923881 0.000000 0.382680
vn -0.923881 0.000000 0.382680
vn -0.923881 0.000000 0.382680
vn -0.923879 0.000000 0.382684
vn -0.923879 0.000000 0.382684
vn -0.923879 0.000000 0.382684
vn -0.382682 0.000000 0.923880
vn -0.382682 0.000000 0.923880
vn -0.382682 0.000000 0.923880
vn -0.382683 0.000000 0.923880
vn -0.382683 0.000000 0.923880
vn -0.382683 0.000000 0.923880
vn -0.382682 0.000000 0.923880
vn -0.382682 0.000000 0.923880
vn -0.382682 0.000000 0.923880
vn -0.382682 0.000000 0.923880
vn -0.382682 0.000000 0.923880
vn -0.382682 0.000000 0.923880
vn -0.923879 0.000000 0.382684
vn -0.923879 0.000000 0.382684
vn -0.923879 0.000000 0.382684
vn 0.382684 0.000000 0.923880
vn 0.382684 0.000000 0.923880
vn 0.382684 0.000000 0.923880
vn 0.382684 0.000000 0.923880
vn 0.382684 0.000000 0.923880
vn 0.382684 0.000000 0.923880
vn 0.382684 0.000000 0.923879
vn 0.382684 0.000000 0.923879
vn 0.382684 0.000000 0.923879
vn 0.382684 0.000000 0.923879
vn 0.382684 0.000000 0.923879
vn 0.382684 0.000000 0.923879
vn 0.923879 0.000000 0.382684
vn 0.923879 0.000000 0.382684
vn 0.923879 0.000000 0.382684
vn 0.923880 0.000000 0.382683
vn 0.923880 0.000000 0.382683
vn 0.923880 0.000000 0.382683
vn 0.923879 0.000000 0.382684
vn 0.923879 0.000000 0.382684
vn 0.923879 0.000000 0.382684
vn 0.923879 0.000000 0.382684
vn 0.923879 0.000000 0.382684
vn 0.923879 0.000000 0.382684
vn 0.923879 0.000000 -0.382684
vn 0.923879 0.000000 -0.382684
vn 0.923879 0.000000 -0.382684
vn 0.923880 0.000000 -0.382683
vn 0.923880 0.000000 -0.382683
vn 0.923880 0.000000 -0.382683
vn 0.923879 0.000000 -0.382684
vn 0.923879 0.000000 -0.382684
vn 0.923879 0.000000 -0.382684
vn 0.923879 0.000000 -0.382684
vn 0.923879 0.000000 -0.382684
vn 0.923879 0.000000 -0.382684
vn 0.382684 0.000000 -0.923880
vn 0.382684 0.000000 -0.923880
vn 0.382684 0.000000 -0.923880
vn 0.382684 0.000000 -0.923880
vn 0.382684 0.000000 -0.923880
vn 0.382684 0.000000 -0.923880
vn 0.382684 0.000000 -0.923879
vn 0.382684 0.000000 -0.923879
vn 0.382684 0.000000 -0.923879
vn 0.382684 0.000000 -0.923879
vn 0.382684 0.000000 -0.923879
vn 0.382684 0.000000 -0.923879
vn -0.382683 0.000000 -0.923879
vn -0.382683 0.000000 -0.923879
vn -0.382683 0.000000 -0.923879
vn -0.382683 0.000000 -0.923880
vn -0.382683 0.000000 -0.923880
vn -0.382683 0.000000 -0.923880
vn -0.382684 0.000000 -0.923879
vn -0.382684 0.000000 -0.923879
vn -0.382684 0.000000 -0.923879
vn -0.382684 0.000000 -0.923879
vn -0.382684 0.000000 -0.923879
vn -0.382684 0.000000 -0.923879
vn -0.923879 0.000000 -0.382684
vn -0.923879 0.000000 -0.382684
vn -0.923879 0.000000 -0.382684
vn -0.923880 0.000000 -0.382683
vn -0.923880 0.000000 -0.382683
vn -0.923880 0.000000 -0.382683
vn -0.923880 0.000000 -0.382684
vn -0.923880 0.000000 -0.382684
vn -0.923880 0.000000 -0.382684
vn -0.923879 0.000000 -0.382684
vn -0.923879 0.000000 -0.382684
vn -0.923879 0.000000 -0.382684
vn -0.382684 0.000000 0.923880
vn -0.382684 0.000000 0.923880
vn -0.382684 0.000000 0.923880
vn -0.382683 0.000000 0.923880
vn -0.382683 0.000000 0.923880
vn -0.382683 0.000000 0.923880
vn -0.382684 0.000000 0.923879
vn -0.382684 0.000000 0.923879
vn -0.382684 0.000000 0.923879
vn -0.382684 0.000000 0.923879
vn -0.382684 0.000000 0.923879
vn -0.382684 0.000000 0.923879
vn 0.923881 0.000000 0.382680
vn 0.923881 0.000000 0.382680
vn 0.923881 0.000000 0.382680
vn 0.923881 0.000000 0.382680
vn 0.923881 0.000000 0.382680
vn 0.923881 0.000000 0.382680
vn -0.923880 0.000000 0.382683
vn -0.923880 0.000000 0.382683
vn -0.923880 0.000000 0.382683
vn -0.923879 0.000000 0.382684
vn -0.923879 0.000000 0.382684
vn -0.923879 0.000000 0.382684
vn 0.923881 0.000000 0.382681
vn 0.923881 0.000000 0.382681
vn 0.923881 0.000000 0.382681
vn 0.923879 0.000000 0.382684
vn 0.923879 0.000000 0.382684
vn 0.923879 0.000000 0.382684
vn -0.923880 -0.000000 0.382683
vn -0.923880 -0.000000 0.382683
vn -0.923880 -0.000000 0.382683
vn -0.923880 -0.000000 0.382683
vn -0.923880 -0.000000 0.382683
vn -0.923880 -0.000000 0.382683
vn 0.923880 0.000000 0.382682
vn 0.923880 0.000000 0.382682
vn 0.923880 0.000000 0.382682
vn 0.923880 0.000000 0.382682
vn 0.923880 0.000000 0.382682
vn 0.923880 0.000000 0.382682
vn -0.923880 0.000000 0.382683
vn -0.923880 0.000000 0.382683
vn -0.923880 0.000000 0.382683
vn -0.923880 0.000000 0.382684
vn -0.923880 0.000000 0.382684
vn -0.923880 0.000000 0.382684
vn -0.000000 1.000000 0.000000
vn -0.000000 1.000000 0.000000
vn -0.000000 1.000000 0.000000
vn -0.000000 1.000000 0.000000
vn -0.000000 1.000000 0.000000
vn -0.000000 1.000000 0.000000
vn -0.000007 1.000000 0.000000
vn -0.000007 1.000000 0.000000
vn -0.000007 1.000000 0.000000
vn 0.000004 1.000000 0.000000
vn 0.000004 1.000000 0.000000
vn 0.000004 1.000000 0.000000
vn -0.000000 1.000000 0.000000
vn -0.000000 1.000000 0.000000
vn -0.000000 1.000000 0.000000
vn 0.000001 1.000000 0.000000
vn 0.000001 1.000000 0.000000
vn 0.000001 1.000000 0.000000
vn -0.000002 1.000000 0.000000
vn -0.000002 1.000000 0.000000
vn -0.000002 1.000000 0.000000
vn -0.000007 1.000000 0.000000
vn -0.000007 1.000000 0.000000
vn -0.000007 1.000000 0.000000
vn 0.000004 1.000000 0.000000
vn 0.000004 1.000000 0.000000
vn 0.000004 1.000000 0.000000
vn -0.000000 1.000000 0.000000
vn -0.000000 1.000000 0.000000
vn -0.000000 1.000000 0.000000
vn 0.000004 1.000000 0.000000
vn 0.000004 1.000000 0.000000
vn 0.000004 1.000000 0.000000
vn -0.000000 1.000000 0.000000
vn -0.000000 1.000000 0.000000
vn -0.000000 1.000000 0.000000
vn 0.382684 0.000000 0.923880
vn 0.382684 0.000000 0.923880
vn 0.382684 0.000000 0.923880
vn 0.382684 0.000000 0.923880
vn 0.382684 0.000000 0.923880
vn 0.382684 0.000000 0.923880
vn -0.923880 0.000000 0.382682
vn -0.923880 0.000000 0.382682
vn -0.923880 0.000000 0.382682
vn -0.923880 0.000000 0.382682
vn -0.923880 0.000000 0.382682
vn -0.923880 0.000000 0.382682
vn 0.923880 0.000000 -0.382683
vn 0.923880 0.000000 -0.382683
vn 0.923880 0.000000 -0.382683
vn 0.923880 0.000000 -0.382683
vn 0.923880 0.000000 -0.382683
vn 0.923880 0.000000 -0.382683
vn 0.382684 0.000000 0.923879
vn 0.382684 0.000000 0.923879
vn 0.382684 0.000000 0.923879
vn 0.382683 0.000000 0.923880
vn 0.382683 0.000000 0.923880
vn 0.382683 0.000000 0.923880
vn -0.923879 0.000000 0.382684
vn -0.923879 0.000000 0.382684
vn -0.923879 0.000000 0.382684
vn -0.923879 0.000000 0.382684
vn -0.923879 0.000000 0.382684
vn -0.923879 0.000000 0.382684
vn 0.923878 0.000000 0.382688
vn 0.923878 0.000000 0.382688
vn 0.923878 0.000000 0.382688
vn 0.923881 0.000000 0.382680
vn 0.923881 0.000000 0.382680
vn 0.923881 0.000000 0.382680
vn -0.000000 0.000000 1.000000
vn -0.000000 0.000000 1.000000
vn -0.000000 0.000000 1.000000
vn -0.000000 0.000000 1.000000
vn -0.000000 0.000000 1.000000
vn -0.000000 0.000000 1.000000
vn -0.000000 0.000000 1.000000
vn -0.000000 0.000000 1.000000
vn -0.000000 0.000000 1.000000
vn -0.000000 0.000000 1.000000
vn -0.000000 0.000000 1.000000
vn -0.000000 0.000000 1.000000
vn -0.000000 0.000000 1.000000
vn -0.000000 0.000000 1.000000
vn -0.000000 0.000000 1.000000
vn -0.000000 0.000000 1.000000
vn -0.000000 0.000000 1.000000
vn -0.000000 0.000000 1.000000
vn 0.000000 0.000000 -1.000000
vn 0.000000 0.000000 -1.000000
vn 0.000000 0.000000 -1.000000
vn 0.000000 0.000000 -1.000000
vn 0.000000 0.000000 -1.000000
vn 0.000000 0.000000 -1.000000
vn -0.000000 -1.000000 0.000000
vn -0.000000 -1.000000 0.000000
vn -0.000000 -1.000000 0.000000
vn -0.000000 -1.000000 0.000000
vn -0.000000 -1.000000 0.000000
vn -0.000000 -1.000000 0.000000
vn 0.000000 1.000000 0.000000
vn 0.000000 1.000000 0.000000
vn 0.000000 1.000000 0.000000
vn -0.000000 1.000000 0.000000
vn -0.000000 1.000000 0.000000
vn -0.000000 1.000000 0.000000
vn -0.923881 0.000000 -0.382680
vn -0.923881 0.000000 -0.382680
vn -0.923881 0.000000 -0.382680
vn -0.923881 0.000000 -0.382680
vn -0.923881 0.000000 -0.382680
vn -0.923881 0.000000 -0.382680

g Material.001
f 3/1/1 1/2/2 2/3/3
f 4/4/4 1/5/5 3/6/6
f 7/7/7 5/8/8 6/9/9
f 8/10/10 5/11/11 7/12/12
f 11/13/13 9/14/14 10/15/15
f 12/16/16 9/17/17 11/18/18
f 15/19/19 13/20/20 14/21/21
f 16/22/22 13/23/23 15/24/24
f 19/25/25 17/26/26 18/27/27
f 20/28/28 17/29/29 19/30/30
f 23/31/31 21/32/32 22/33/33
f 24/34/34 21/35/35 23/36/36
f 27/37/37 25/38/38 26/39/39
f 28/40/40 25/41/41 27/42/42
f 31/43/43 29/44/44 30/45/45
f 32/46/46 29/47/47 31/48/48
f 35/49/49 33/50/50 34/51/51
f 38/52/52 36/53/53 37/54/54
f 39/55/55 36/56/56 38/57/57
f 42/58/58 40/59/59 41/60/60
f 43/61/61 40/62/62 42/63/63
f 46/64/64 44/65/65 45/66/66
f 47/67/67 44/68/68 46/69/69
f 50/70/70 48/71/71 49/72/72
f 51/73/73 48/74/74 50/75/75
f 54/76/76 52/77/77 53/78/78
f 55/79/79 52/80/80 54/81/81
f 58/82/82 56/83/83 57/84/84
f 59/85/85 56/86/86 58/87/87
f 62/88/88 60/89/89 61/90/90
f 63/91/91 60/92/92 62/93/93
f 66/94/94 64/95/95 65/96/96
f 67/97/97 64/98/98 66/99/99
f 70/100/100 68/101/101 69/102/102
f 71/103/103 68/104/104 70/105/105
f 74/106/106 72/107/107 73/108/108
f 75/109/109 72/110/110 74/111/111
f 78/112/112 76/113/113 77/114/114
f 79/115/115 76/116/116 78/117/117
f 82/118/118 80/119/119 81/120/120
f 83/121/121 80/122/122 82/123/123
f 86/124/124 84/125/125 85/126/126
f 87/127/127 84/128/128 86/129/129
f 90/130/130 88/131/131 89/132/132
f 91/133/133 88/134/134 90/135/135
f 94/136/136 92/137/137 93/138/138
f 95/139/139 92/140/140 94/141/141
f 98/142/142 96/143/143 97/144/144
f 99/145/145 96/146/146 98/147/147
f 102/148/148 100/149/149 101/150/150
f 105/151/151 103/152/152 104/153/153
f 106/154/154 103/155/155 105/156/156
f 109/157/157 107/158/158 108/159/159
f 110/160/160 107/161/161 109/162/162
f 113/163/163 111/164/164 112/165/165
f 114/166/166 111/167/167 113/168/168
f 117/169/169 115/170/170 116/171/171
f 118/172/172 115/173/173 117/174/174
f 121/175/175 119/176/176 120/177/177
f 122/178/178 119/179/179 121/180/180
f 125/181/181 123/182/182 124/183/183
f 128/184/184 126/185/185 127/186/186
f 131/187/187 129/188/188 130/189/189
f 134/190/190 132/191/191 133/192/192
f 137/193/193 135/194/194 136/195/195
f 140/196/196 138/197/197 139/198/198
f 141/199/199 138/200/200 140/201/201
f 144/202/202 142/203/203 143/204/204
f 145/205/205 142/206/206 144/207/207
f 148/208/208 146/209/209 147/210/210
f 149/211/211 146/212/212 148/213/213
f 152/214/214 150/215/215 151/216/216
f 153/217/217 150/218/218 152/219/219
f 156/220/220 154/221/221 155/222/222
f 157/223/223 154/224/224 156/225/225
f 160/226/226 158/227/227 159/228/228
f 163/229/229 161/230/230 162/231/231
f 166/232/232 164/233/233 165/234/234
f 169/235/235 167/236/236 168/237/237
f 172/238/238 170/239/239 171/240/240
f 175/241/241 173/242/242 174/243/243
f 176/244/244 173/245/245 175/246/246
f 179/247/247 177/248/248 178/249/249
f 180/250/250 177/251/251 179/252/252
f 183/253/253 181/254/254 182/255/255
f 184/256/256 181/257/257 183/258/258
f 187/259/259 185/260/260 186/261/261
f 188/262/262 185/263/263 187/264/264
f 191/265/265 189/266/266 190/267/267
f 192/268/268 189/269/269 191/270/270
f 195/271/271 193/272/272 194/273/273
f 196/274/274 193/275/275 195/276/276
f 199/277/277 197/278/278 198/279/279
f 200/280/280 197/281/281 199/282/282
f 203/283/283 201/284/284 202/285/285
f 204/286/286 201/287/287 203/288/288
f 211/289/289 209/290/290 210/291/291
f 214/292/292 212/293/293 213/294/294
f 217/295/295 215/296/296 216/297/297
f 220/298/298 218/299/299 219/300/300
f 221/301/301 218/302/302 220/303/303
f 224/304/304 222/305/305 223/306/306
f 225/307/307 222/308/308 224/309/309
f 228/310/310 226/311/311 227/312/312
f 229/313/313 226/314/314 228/315/315
f 232/316/316 230/317/317 231/318/318
f 233/319/319 230/320/320 232/321/321
f 236/322/322 234/323/323 235/324/324
f 237/325/325 234/326/326 236/327/327
f 240/328/328 238/329/329 239/330/330
f 241/331/331 238/332/332 240/333/333
f 244/334/334 242/335/335 243/336/336
f 245/337/337 242/338/338 244/339/339
f 248/340/340 246/341/341 247/342/342
f 249/343/343 246/344/344 248/345/345
f 252/346/346 250/347/347 251/348/348
f 253/349/349 250/350/350 252/351/351
f 256/352/352 254/353/353 255/354/354
f 257/355/355 254/356/356 256/357/357
f 260/358/358 258/359/359 259/360/360
f 261/361/361 258/362/362 260/363/363
f 264/364/364 262/365/365 263/366/366
f 265/367/367 262/368/368 264/369/369
f 268/370/370 266/371/371 267/372/372
f 269/373/373 266/374/374 268/375/375
f 272/376/376 270/377/377 271/378/378
f 273/379/379 270/380/380 272/381/381
f 276/382/382 274/383/383 275/384/384
f 279/385/385 277/386/386 278/387/387
f 280/388/388 277/389/389 279/390/390
f 283/391/391 281/392/392 282/393/393
f 284/394/394 281/395/395 283/396/396
f 287/397/397 285/398/398 286/399/399
f 288/400/400 285/401/401 287/402/402
f 291/403/403 289/404/404 290/405/405
f 292/406/406 289/407/407 291/408/408
f 295/409/409 293/410/410 294/411/411
f 296/412/412 293/413/413 295/414/414
f 299/415/415 297/416/416 298/417/417
f 300/418/418 297/419/419 299/420/420
f 303/421/421 301/422/422 302/423/423
f 304/424/424 301/425/425 303/426/426
f 307/427/427 305/428/428 306/429/429
f 308/430/430 305/431/431 307/432/432
f 311/433/433 309/434/434 310/435/435
f 312/436/436 309/437/437 311/438/438
f 315/439/439 313/440/440 314/441/441
f 316/442/442 313/443/443 315/444/444
f 319/445/445 317/446/446 318/447/447
f 320/448/448 317/449/449 319/450/450
f 323/451/451 321/452/452 322/453/453
f 324/454/454 321/455/455 323/456/456
f 327/457/457 325/458/458 326/459/459
f 328/460/460 325/461/461 327/462/462
f 331/463/463 329/464/464 330/465/465
f 332/466/466 329/467/467 331/468/468
f 351/469/469 349/470/470 350/471/471
f 352/472/472 349/473/473 351/474/474
f 355/475/475 353/476/476 354/477/477
f 356/478/478 353/479/479 355/480/480
f 359/481/481 357/482/482 358/483/483
f 362/484/484 360/485/485 361/486/486
f 365/487/487 363/488/488 364/489/489
f 368/490/490 366/491/491 367/492/492
f 371/493/493 369/494/494 370/495/495
f 374/496/496 372/497/497 373/498/498
f 377/499/499 375/500/500 376/501/501
f 380/502/502 378/503/503 379/504/504
f 383/505/505 381/506/506 382/507/507
f 386/508/508 384/509/509 385/510/510
f 389/511/511 387/512/512 388/513/513
f 392/514/514 390/515/515 391/516/516
f 395/517/517 393/518/518 394/519/519
f 398/520/520 396/521/521 397/522/522
f 401/523/523 399/524/524 400/525/525
f 404/526/526 402/527/527 403/528/528
f 407/529/529 405/530/530 406/531/531
f 410/532/532 408/533/533 409/534/534
f 413/535/535 411/536/536 412/537/537
f 416/538/538 414/539/539 415/540/540
f 419/541/541 417/542/542 418/543/543
f 420/544/544 417/545/545 419/546/546
f 423/547/547 421/548/548 422/549/549
f 424/550/550 421/551/551 423/552/552
f 427/553/553 425/554/554 426/555/555
f 428/556/556 425/557/557 427/558/558
f 431/559/559 429/560/560 430/561/561
f 432/562/562 429/563/563 431/564/564
f 439/565/565 437/566/566 438/567/567
f 440/568/568 437/569/569 439/570/570
f 447/571/571 445/572/572 446/573/573
f 448/574/574 445/575/575 447/576/576

g Material.002
f 207/577/577 205/578/578 206/579/579
f 208/580/580 205/581/581 207/582/582
f 435/583/583 433/584/584 434/585/585
f 436/586/586 433/587/587 435/588/588

g Material.003
f 335/589/589 333/590/590 334/591/591
f 336/592/592 333/593/593 335/594/594
f 339/595/595 337/596/596 338/597/597
f 340/598/598 337/599/599 339/600/600
f 343/601/601 341/602/602 342/603/603
f 344/604/604 341/605/605 343/606/606
f 347/607/607 345/608/608 346/609/609
f 348/610/610 345/611/611 347/612/612
f 443/613/613 441/614/614 442/615/615
f 444/616/616 441/617/617 443/618/618

