# Converted from B3D for Luanti (With Correct Normals)
# Object Name: multidecor_kitchen_modern_wooden_table_with_cloth_2

v -1.257795 1.199375 1.257795
v 1.257795 1.199375 -1.257795
v -1.257795 1.199375 -1.257794
v 1.257795 1.199375 1.257795
v 1.257795 1.199375 -1.257795
v -1.257795 1.199375 1.257795
v -1.257795 1.199375 1.257795
v 1.257795 0.960625 1.257795
v 1.257795 1.199375 1.257795
v -1.257795 0.960625 1.257795
v 1.257795 0.960625 1.257795
v -1.257795 1.199375 1.257795
v -1.257795 1.199375 -1.257794
v -1.257795 0.960625 1.257795
v -1.257795 1.199375 1.257795
v -1.257795 0.960625 -1.257794
v -1.257795 0.960625 1.257795
v -1.257795 1.199375 -1.257794
v 1.257795 0.960625 1.257795
v -1.257795 0.960625 -1.257794
v 1.257795 0.960625 -1.257795
v -1.257795 0.960625 1.257795
v -1.257795 0.960625 -1.257794
v 1.257795 0.960625 1.257795
v 1.257795 1.199375 1.257795
v 1.257795 0.960625 -1.257795
v 1.257795 1.199375 -1.257795
v 1.257795 0.960625 1.257795
v 1.257795 0.960625 -1.257795
v 1.257795 1.199375 1.257795
v 1.257795 1.199375 -1.257795
v -1.257795 0.960625 -1.257794
v -1.257795 1.199375 -1.257794
v 1.257795 0.960625 -1.257795
v -1.257795 0.960625 -1.257794
v 1.257795 1.199375 -1.257795
v -0.857587 0.960625 1.143450
v -0.857587 -1.249375 0.857588
v -0.857587 0.960625 0.857588
v -0.857587 -1.249375 1.143450
v -0.857587 -1.249375 0.857588
v -0.857587 0.960625 1.143450
v -1.143450 0.960625 1.143450
v -0.857587 -1.249375 1.143450
v -0.857587 0.960625 1.143450
v -1.143450 -1.249375 1.143450
v -0.857587 -1.249375 1.143450
v -1.143450 0.960625 1.143450
v -1.143450 0.960625 0.857588
v -1.143450 -1.249375 1.143450
v -1.143450 0.960625 1.143450
v -1.143450 -1.249375 0.857588
v -1.143450 -1.249375 1.143450
v -1.143450 0.960625 0.857588
v -0.857587 0.960625 0.857588
v -1.143450 -1.249375 0.857588
v -1.143450 0.960625 0.857588
v -0.857587 -1.249375 0.857588
v -1.143450 -1.249375 0.857588
v -0.857587 0.960625 0.857588
v -1.143450 -1.249375 0.857588
v -0.857587 -1.249375 1.143450
v -1.143450 -1.249375 1.143450
v -0.857587 -1.249375 0.857588
v -0.857587 -1.249375 1.143450
v -1.143450 -1.249375 0.857588
v -1.082551 0.317207 -1.557795
v -1.082551 0.151486 0.857588
v -1.082551 0.317207 0.857588
v -1.082551 0.151486 -1.557795
v -1.082551 0.151486 0.857588
v -1.082551 0.317207 -1.557795
v -0.918486 0.317207 0.857588
v -0.918488 0.151486 -1.557795
v -0.918488 0.317207 -1.557795
v -0.918486 0.151486 0.857588
v -0.918488 0.151486 -1.557795
v -0.918486 0.317207 0.857588
v -0.918488 0.151486 -1.557795
v -1.082551 0.151486 0.857588
v -1.082551 0.151486 -1.557795
v -0.918486 0.151486 0.857588
v -1.082551 0.151486 0.857588
v -0.918488 0.151486 -1.557795
v -0.918486 0.317207 0.857588
v -1.082551 0.317207 -1.557795
v -1.082551 0.317207 0.857588
v -0.918488 0.317207 -1.557795
v -1.082551 0.317207 -1.557795
v -0.918486 0.317207 0.857588
v -0.857587 0.317207 1.082551
v 1.557795 0.151486 1.082551
v 1.557795 0.317207 1.082551
v -0.857587 0.151486 1.082551
v 1.557795 0.151486 1.082551
v -0.857587 0.317207 1.082551
v 1.557795 0.317207 0.918486
v -0.857587 0.151486 0.918487
v -0.857587 0.317207 0.918487
v 1.557795 0.151486 0.918486
v -0.857587 0.151486 0.918487
v 1.557795 0.317207 0.918486
v -0.857587 0.151486 0.918487
v 1.557795 0.151486 1.082551
v -0.857587 0.151486 1.082551
v 1.557795 0.151486 0.918486
v 1.557795 0.151486 1.082551
v -0.857587 0.151486 0.918487
v 1.557795 0.317207 0.918486
v -0.857587 0.317207 1.082551
v 1.557795 0.317207 1.082551
v -0.857587 0.317207 0.918487
v -0.857587 0.317207 1.082551
v 1.557795 0.317207 0.918486
v 1.557795 0.317207 0.918486
v 1.557795 0.151486 1.082551
v 1.557795 0.151486 0.918486
v 1.557795 0.317207 1.082551
v 1.557795 0.151486 1.082551
v 1.557795 0.317207 0.918486
v -0.918488 0.317207 -1.557795
v -1.082551 0.151486 -1.557795
v -1.082551 0.317207 -1.557795
v -0.918488 0.151486 -1.557795
v -1.082551 0.151486 -1.557795
v -0.918488 0.317207 -1.557795
v 1.307795 1.249375 1.307795
v -1.307795 1.249375 -1.307794
v -1.307794 1.249375 1.307795
v 1.307794 1.249375 -1.307795
v -1.307795 1.249375 -1.307794
v 1.307795 1.249375 1.307795
v 0.118891 0.349375 1.307795
v -0.594452 0.549375 1.307795
v -0.118890 0.349375 1.307795
v -1.307795 0.349375 0.118891
v -1.307795 0.549375 -0.594452
v -1.307795 0.349375 -0.118890
v 1.307795 0.349375 1.307795
v 0.832234 0.549375 1.307795
v 1.070014 0.349375 1.307795
v -0.832233 0.549375 1.307795
v -1.307794 1.249375 1.307795
v -1.307794 0.349375 1.307795
v -0.832233 0.549375 1.307795
v -1.307794 0.349375 1.307795
v -1.070014 0.349375 1.307795
v 1.307795 1.249375 1.307795
v 0.832234 0.549375 1.307795
v 1.307795 0.349375 1.307795
v 0.594453 0.549375 1.307795
v 0.118891 0.349375 1.307795
v 0.356672 0.349375 1.307795
v 1.307795 1.249375 1.307795
v 0.594453 0.549375 1.307795
v 0.832234 0.549375 1.307795
v -0.594452 0.549375 1.307795
v 1.307795 1.249375 1.307795
v -1.307794 1.249375 1.307795
v -0.594452 0.549375 1.307795
v -1.307794 1.249375 1.307795
v -0.832233 0.549375 1.307795
v -0.118890 0.349375 1.307795
v -0.594452 0.549375 1.307795
v -0.356671 0.349375 1.307795
v -0.594452 0.549375 1.307795
v 0.118891 0.349375 1.307795
v 0.594453 0.549375 1.307795
v -0.594452 0.549375 1.307795
v 0.594453 0.549375 1.307795
v 1.307795 1.249375 1.307795
v -1.307794 0.349375 1.307795
v -1.307795 0.549375 0.832234
v -1.307794 0.349375 1.070015
v -1.307795 0.549375 -0.832232
v -1.307795 1.249375 -1.307794
v -1.307795 0.349375 -1.307794
v -1.307795 0.549375 -0.832232
v -1.307795 0.349375 -1.307794
v -1.307795 0.349375 -1.070014
v -1.307794 1.249375 1.307795
v -1.307795 0.549375 0.832234
v -1.307794 0.349375 1.307795
v -1.307795 0.549375 0.594453
v -1.307795 0.349375 0.118891
v -1.307795 0.349375 0.356672
v -1.307794 1.249375 1.307795
v -1.307795 0.549375 0.594453
v -1.307795 0.549375 0.832234
v -1.307795 0.549375 -0.594452
v -1.307794 1.249375 1.307795
v -1.307795 1.249375 -1.307794
v -1.307795 0.549375 -0.594452
v -1.307795 1.249375 -1.307794
v -1.307795 0.549375 -0.832232
v -1.307795 0.349375 -0.118890
v -1.307795 0.549375 -0.594452
v -1.307795 0.349375 -0.356671
v -1.307795 0.549375 -0.594452
v -1.307795 0.349375 0.118891
v -1.307795 0.549375 0.594453
v -1.307795 0.549375 -0.594452
v -1.307795 0.549375 0.594453
v -1.307794 1.249375 1.307795

vt 0.042908 0.042908
vt 0.418395 0.042908
vt 0.042908 0.418395
vt 0.418395 0.042908
vt 0.418395 0.418395
vt 0.042908 0.418395
vt 0.425784 0.418395
vt 0.425784 0.042908
vt 0.461064 0.418395
vt 0.425784 0.042908
vt 0.461064 0.042908
vt 0.461064 0.418395
vt 0.418395 0.035519
vt 0.042908 0.035519
vt 0.418395 0.000239
vt 0.042908 0.035519
vt 0.042908 0.000239
vt 0.418395 0.000239
vt 0.836551 0.418395
vt 0.461064 0.418395
vt 0.836551 0.042908
vt 0.461064 0.418395
vt 0.461064 0.042908
vt 0.836551 0.042908
vt 0.042908 0.425784
vt 0.418395 0.425784
vt 0.042908 0.461064
vt 0.418395 0.425784
vt 0.418395 0.461064
vt 0.042908 0.461064
vt 0.035519 0.042908
vt 0.035519 0.418395
vt 0.000239 0.042908
vt 0.035519 0.418395
vt 0.000239 0.418395
vt 0.000239 0.042908
vt 0.085577 0.802894
vt 0.042908 0.802894
vt 0.085577 0.461542
vt 0.042908 0.802894
vt 0.042908 0.461542
vt 0.085577 0.461542
vt 0.042908 0.802894
vt 0.000239 0.802894
vt 0.042908 0.461542
vt 0.000239 0.802894
vt 0.000239 0.461542
vt 0.042908 0.461542
vt 0.170915 0.802894
vt 0.128246 0.802894
vt 0.170915 0.461542
vt 0.128246 0.802894
vt 0.128246 0.461542
vt 0.170915 0.461542
vt 0.128246 0.802894
vt 0.085577 0.802894
vt 0.128246 0.461542
vt 0.085577 0.802894
vt 0.085577 0.461542
vt 0.128246 0.461542
vt 0.727524 0.718034
vt 0.770193 0.718034
vt 0.727524 0.760703
vt 0.770193 0.718034
vt 0.770193 0.760703
vt 0.727524 0.760703
vt 0.757844 0.461542
vt 0.757844 0.822072
vt 0.733355 0.461542
vt 0.757844 0.822072
vt 0.733355 0.822072
vt 0.733355 0.461542
vt 0.684377 0.822072
vt 0.684377 0.461542
vt 0.708866 0.822072
vt 0.684377 0.461542
vt 0.708866 0.461542
vt 0.708866 0.822072
vt 0.733355 0.822072
vt 0.708866 0.822072
vt 0.733355 0.461542
vt 0.708866 0.822072
vt 0.708866 0.461542
vt 0.733355 0.461542
vt 0.757844 0.461542
vt 0.782333 0.461542
vt 0.757844 0.822072
vt 0.782333 0.461542
vt 0.782333 0.822072
vt 0.757844 0.822072
vt 0.782333 0.357026
vt 0.782333 0.717556
vt 0.757844 0.357026
vt 0.782333 0.717556
vt 0.757844 0.717556
vt 0.757844 0.357026
vt 0.708866 0.717556
vt 0.708866 0.357026
vt 0.733355 0.717556
vt 0.708866 0.357026
vt 0.733355 0.357026
vt 0.733355 0.717556
vt 0.757844 0.717556
vt 0.733355 0.717556
vt 0.757844 0.357026
vt 0.733355 0.717556
vt 0.733355 0.357026
vt 0.757844 0.357026
vt 0.684377 0.357026
vt 0.708866 0.357026
vt 0.684377 0.717556
vt 0.708866 0.357026
vt 0.708866 0.717556
vt 0.684377 0.717556
vt 0.733355 0.401805
vt 0.708866 0.401805
vt 0.757844 0.401805
vt 0.708866 0.401805
vt 0.782333 0.401805
vt 0.757844 0.401805
vt 0.757844 0.777292
vt 0.684377 0.777292
vt 0.733355 0.777292
vt 0.684377 0.777292
vt 0.708866 0.777292
vt 0.733355 0.777292
vt 0.000171 0.000171
vt 0.000170 0.499829
vt 0.499829 0.000170
vt 0.000170 0.499829
vt 0.499829 0.499830
vt 0.499829 0.000170
vt 0.000170 0.727288
vt 0.000170 0.772712
vt 0.038377 0.636441
vt 0.863469 0.272711
vt 0.863469 0.227288
vt 0.825263 0.363558
vt 0.000170 0.954406
vt 0.000170 0.999830
vt 0.038377 0.908983
vt 0.000170 0.500171
vt 0.038377 0.591018
vt 0.172098 0.500171
vt 0.000170 0.545594
vt 0.038377 0.591018
vt 0.000170 0.500171
vt 0.000170 0.999830
vt 0.172098 0.999830
vt 0.038377 0.908983
vt 0.000170 0.818135
vt 0.038377 0.863559
vt 0.000170 0.772712
vt 0.038377 0.908983
vt 0.172098 0.999830
vt 0.038377 0.863559
vt 0.172098 0.500171
vt 0.038377 0.636441
vt 0.172098 0.999830
vt 0.038377 0.591018
vt 0.038377 0.636441
vt 0.172098 0.500171
vt 0.000170 0.681865
vt 0.000170 0.727288
vt 0.038377 0.636441
vt 0.038377 0.863559
vt 0.038377 0.636441
vt 0.000170 0.772712
vt 0.172098 0.999830
vt 0.038377 0.636441
vt 0.038377 0.863559
vt 0.863469 0.045594
vt 0.863469 0.000170
vt 0.825263 0.091017
vt 0.863469 0.499829
vt 0.825263 0.408982
vt 0.691541 0.499829
vt 0.863469 0.454405
vt 0.825263 0.408982
vt 0.863469 0.499829
vt 0.863469 0.000170
vt 0.691542 0.000170
vt 0.825263 0.091017
vt 0.863469 0.181865
vt 0.825263 0.136441
vt 0.863469 0.227288
vt 0.825263 0.091017
vt 0.691542 0.000170
vt 0.825263 0.136441
vt 0.691541 0.499829
vt 0.825263 0.363558
vt 0.691542 0.000170
vt 0.825263 0.408982
vt 0.825263 0.363558
vt 0.691541 0.499829
vt 0.863469 0.318135
vt 0.863469 0.272711
vt 0.825263 0.363558
vt 0.825263 0.136441
vt 0.825263 0.363558
vt 0.863469 0.227288
vt 0.691542 0.000170
vt 0.825263 0.363558
vt 0.825263 0.136441

vn 0.000000 1.000000 0.000000
vn 0.000000 1.000000 0.000000
vn 0.000000 1.000000 0.000000
vn -0.000000 1.000000 0.000000
vn -0.000000 1.000000 0.000000
vn -0.000000 1.000000 0.000000
vn 0.000000 0.000000 1.000000
vn 0.000000 0.000000 1.000000
vn 0.000000 0.000000 1.000000
vn 0.000000 0.000000 1.000000
vn 0.000000 0.000000 1.000000
vn 0.000000 0.000000 1.000000
vn -1.000000 0.000000 0.000000
vn -1.000000 0.000000 0.000000
vn -1.000000 0.000000 0.000000
vn -1.000000 0.000000 0.000000
vn -1.000000 0.000000 0.000000
vn -1.000000 0.000000 0.000000
vn -0.000000 -1.000000 -0.000000
vn -0.000000 -1.000000 -0.000000
vn -0.000000 -1.000000 -0.000000
vn 0.000000 -1.000000 -0.000000
vn 0.000000 -1.000000 -0.000000
vn 0.000000 -1.000000 -0.000000
vn 1.000000 0.000000 -0.000000
vn 1.000000 0.000000 -0.000000
vn 1.000000 0.000000 -0.000000
vn 1.000000 0.000000 -0.000000
vn 1.000000 0.000000 -0.000000
vn 1.000000 0.000000 -0.000000
vn -0.000000 0.000000 -1.000000
vn -0.000000 0.000000 -1.000000
vn -0.000000 0.000000 -1.000000
vn -0.000000 0.000000 -1.000000
vn -0.000000 0.000000 -1.000000
vn -0.000000 0.000000 -1.000000
vn 1.000000 0.000000 -0.000001
vn 1.000000 0.000000 -0.000001
vn 1.000000 0.000000 -0.000001
vn 1.000000 0.000000 0.000000
vn 1.000000 0.000000 0.000000
vn 1.000000 0.000000 0.000000
vn -0.000000 -0.000000 1.000000
vn -0.000000 -0.000000 1.000000
vn -0.000000 -0.000000 1.000000
vn 0.000000 0.000000 1.000000
vn 0.000000 0.000000 1.000000
vn 0.000000 0.000000 1.000000
vn -1.000000 0.000000 0.000001
vn -1.000000 0.000000 0.000001
vn -1.000000 0.000000 0.000001
vn -1.000000 -0.000000 0.000000
vn -1.000000 -0.000000 0.000000
vn -1.000000 -0.000000 0.000000
vn -0.000000 0.000000 -1.000000
vn -0.000000 0.000000 -1.000000
vn -0.000000 0.000000 -1.000000
vn -0.000000 0.000000 -1.000000
vn -0.000000 0.000000 -1.000000
vn -0.000000 0.000000 -1.000000
vn -0.000000 -1.000000 0.000000
vn -0.000000 -1.000000 0.000000
vn -0.000000 -1.000000 0.000000
vn -0.000000 -1.000000 0.000000
vn -0.000000 -1.000000 0.000000
vn -0.000000 -1.000000 0.000000
vn -1.000000 0.000000 0.000000
vn -1.000000 0.000000 0.000000
vn -1.000000 0.000000 0.000000
vn -1.000000 0.000000 0.000000
vn -1.000000 0.000000 0.000000
vn -1.000000 0.000000 0.000000
vn 1.000000 0.000000 -0.000001
vn 1.000000 0.000000 -0.000001
vn 1.000000 0.000000 -0.000001
vn 1.000000 0.000000 -0.000001
vn 1.000000 0.000000 -0.000001
vn 1.000000 0.000000 -0.000001
vn -0.000000 -1.000000 -0.000000
vn -0.000000 -1.000000 -0.000000
vn -0.000000 -1.000000 -0.000000
vn -0.000000 -1.000000 -0.000000
vn -0.000000 -1.000000 -0.000000
vn -0.000000 -1.000000 -0.000000
vn 0.000000 1.000000 0.000000
vn 0.000000 1.000000 0.000000
vn 0.000000 1.000000 0.000000
vn -0.000000 1.000000 0.000000
vn -0.000000 1.000000 0.000000
vn -0.000000 1.000000 0.000000
vn 0.000000 0.000000 1.000000
vn 0.000000 0.000000 1.000000
vn 0.000000 0.000000 1.000000
vn 0.000000 0.000000 1.000000
vn 0.000000 0.000000 1.000000
vn 0.000000 0.000000 1.000000
vn -0.000001 0.000000 -1.000000
vn -0.000001 0.000000 -1.000000
vn -0.000001 0.000000 -1.000000
vn -0.000001 0.000000 -1.000000
vn -0.000001 0.000000 -1.000000
vn -0.000001 0.000000 -1.000000
vn -0.000000 -1.000000 0.000000
vn -0.000000 -1.000000 0.000000
vn -0.000000 -1.000000 0.000000
vn -0.000000 -1.000000 0.000000
vn -0.000000 -1.000000 0.000000
vn -0.000000 -1.000000 0.000000
vn -0.000000 1.000000 0.000000
vn -0.000000 1.000000 0.000000
vn -0.000000 1.000000 0.000000
vn -0.000000 1.000000 0.000000
vn -0.000000 1.000000 0.000000
vn -0.000000 1.000000 0.000000
vn 1.000000 0.000000 0.000000
vn 1.000000 0.000000 0.000000
vn 1.000000 0.000000 0.000000
vn 1.000000 0.000000 0.000000
vn 1.000000 0.000000 0.000000
vn 1.000000 0.000000 0.000000
vn -0.000000 0.000000 -1.000000
vn -0.000000 0.000000 -1.000000
vn -0.000000 0.000000 -1.000000
vn -0.000000 0.000000 -1.000000
vn -0.000000 0.000000 -1.000000
vn -0.000000 0.000000 -1.000000
vn -0.000000 1.000000 0.000000
vn -0.000000 1.000000 0.000000
vn -0.000000 1.000000 0.000000
vn 0.000000 1.000000 0.000000
vn 0.000000 1.000000 0.000000
vn 0.000000 1.000000 0.000000
vn -0.000000 -0.000003 1.000000
vn -0.000000 -0.000003 1.000000
vn -0.000000 -0.000003 1.000000
vn -1.000000 -0.000002 0.000000
vn -1.000000 -0.000002 0.000000
vn -1.000000 -0.000002 0.000000
vn -0.000000 0.000000 1.000000
vn -0.000000 0.000000 1.000000
vn -0.000000 0.000000 1.000000
vn 0.000001 0.000000 1.000000
vn 0.000001 0.000000 1.000000
vn 0.000001 0.000000 1.000000
vn 0.000001 0.000003 1.000000
vn 0.000001 0.000003 1.000000
vn 0.000001 0.000003 1.000000
vn 0.000000 0.000000 1.000000
vn 0.000000 0.000000 1.000000
vn 0.000000 0.000000 1.000000
vn 0.000001 0.000000 1.000000
vn 0.000001 0.000000 1.000000
vn 0.000001 0.000000 1.000000
vn 0.000001 -0.000001 1.000000
vn 0.000001 -0.000001 1.000000
vn 0.000001 -0.000001 1.000000
vn 0.000000 -0.000000 1.000000
vn 0.000000 -0.000000 1.000000
vn 0.000000 -0.000000 1.000000
vn -0.000000 0.000000 1.000000
vn -0.000000 0.000000 1.000000
vn -0.000000 0.000000 1.000000
vn 0.000001 0.000000 1.000000
vn 0.000001 0.000000 1.000000
vn 0.000001 0.000000 1.000000
vn 0.000000 -0.000001 1.000000
vn 0.000000 -0.000001 1.000000
vn 0.000000 -0.000001 1.000000
vn 0.000000 0.000001 1.000000
vn 0.000000 0.000001 1.000000
vn 0.000000 0.000001 1.000000
vn -1.000000 -0.000001 0.000000
vn -1.000000 -0.000001 0.000000
vn -1.000000 -0.000001 0.000000
vn -1.000000 0.000000 0.000001
vn -1.000000 0.000000 0.000001
vn -1.000000 0.000000 0.000001
vn -1.000000 0.000001 0.000000
vn -1.000000 0.000001 0.000000
vn -1.000000 0.000001 0.000000
vn -1.000000 0.000000 0.000001
vn -1.000000 0.000000 0.000001
vn -1.000000 0.000000 0.000001
vn -1.000000 0.000000 0.000000
vn -1.000000 0.000000 0.000000
vn -1.000000 0.000000 0.000000
vn -1.000000 -0.000000 0.000000
vn -1.000000 -0.000000 0.000000
vn -1.000000 -0.000000 0.000000
vn -1.000000 0.000000 0.000000
vn -1.000000 0.000000 0.000000
vn -1.000000 0.000000 0.000000
vn -1.000000 -0.000000 0.000000
vn -1.000000 -0.000000 0.000000
vn -1.000000 -0.000000 0.000000
vn -1.000000 -0.000001 0.000000
vn -1.000000 -0.000001 0.000000
vn -1.000000 -0.000001 0.000000
vn -1.000000 -0.000000 0.000001
vn -1.000000 -0.000000 0.000001
vn -1.000000 -0.000000 0.000001
vn -1.000000 -0.000000 0.000000
vn -1.000000 -0.000000 0.000000
vn -1.000000 -0.000000 0.000000

g Default OBJ
f 3/1/1 1/2/2 2/3/3
f 6/4/4 4/5/5 5/6/6
f 9/7/7 7/8/8 8/9/9
f 12/10/10 10/11/11 11/12/12
f 15/13/13 13/14/14 14/15/15
f 18/16/16 16/17/17 17/18/18
f 21/19/19 19/20/20 20/21/21
f 24/22/22 22/23/23 23/24/24
f 27/25/25 25/26/26 26/27/27
f 30/28/28 28/29/29 29/30/30
f 33/31/31 31/32/32 32/33/33
f 36/34/34 34/35/35 35/36/36
f 39/37/37 37/38/38 38/39/39
f 42/40/40 40/41/41 41/42/42
f 45/43/43 43/44/44 44/45/45
f 48/46/46 46/47/47 47/48/48
f 51/49/49 49/50/50 50/51/51
f 54/52/52 52/53/53 53/54/54
f 57/55/55 55/56/56 56/57/57
f 60/58/58 58/59/59 59/60/60
f 63/61/61 61/62/62 62/63/63
f 66/64/64 64/65/65 65/66/66
f 69/67/67 67/68/68 68/69/69
f 72/70/70 70/71/71 71/72/72
f 75/73/73 73/74/74 74/75/75
f 78/76/76 76/77/77 77/78/78
f 81/79/79 79/80/80 80/81/81
f 84/82/82 82/83/83 83/84/84
f 87/85/85 85/86/86 86/87/87
f 90/88/88 88/89/89 89/90/90
f 93/91/91 91/92/92 92/93/93
f 96/94/94 94/95/95 95/96/96
f 99/97/97 97/98/98 98/99/99
f 102/100/100 100/101/101 101/102/102
f 105/103/103 103/104/104 104/105/105
f 108/106/106 106/107/107 107/108/108
f 111/109/109 109/110/110 110/111/111
f 114/112/112 112/113/113 113/114/114
f 117/115/115 115/116/116 116/117/117
f 120/118/118 118/119/119 119/120/120
f 123/121/121 121/122/122 122/123/123
f 126/124/124 124/125/125 125/126/126

g Material.002
f 129/127/127 127/128/128 128/129/129
f 132/130/130 130/131/131 131/132/132
f 135/133/133 133/134/134 134/135/135
f 138/136/136 136/137/137 137/138/138
f 141/139/139 139/140/140 140/141/141
f 144/142/142 142/143/143 143/144/144
f 147/145/145 145/146/146 146/147/147
f 150/148/148 148/149/149 149/150/150
f 153/151/151 151/152/152 152/153/153
f 156/154/154 154/155/155 155/156/156
f 159/157/157 157/158/158 158/159/159
f 162/160/160 160/161/161 161/162/162
f 165/163/163 163/164/164 164/165/165
f 168/166/166 166/167/167 167/168/168
f 171/169/169 169/170/170 170/171/171
f 174/172/172 172/173/173 173/174/174
f 177/175/175 175/176/176 176/177/177
f 180/178/178 178/179/179 179/180/180
f 183/181/181 181/182/182 182/183/183
f 186/184/184 184/185/185 185/186/186
f 189/187/187 187/188/188 188/189/189
f 192/190/190 190/191/191 191/192/192
f 195/193/193 193/194/194 194/195/195
f 198/196/196 196/197/197 197/198/198
f 201/199/199 199/200/200 200/201/201
f 204/202/202 202/203/203 203/204/204

