# Converted from B3D for Luanti (With Correct Normals)
# Object Name: multidecor_louvers_top

v -1.000000 1.000000 0.100000
v 1.000000 1.000000 0.100000
v 1.000000 1.000000 -0.100000
v -1.000000 1.000000 -0.100000
v -1.000000 0.600000 -0.100000
v -1.000000 1.000000 -0.100000
v 1.000000 1.000000 -0.100000
v 1.000000 0.600000 -0.100000
v 1.000000 0.600000 -0.100000
v 1.000000 1.000000 -0.100000
v 1.000000 1.000000 0.100000
v 1.000000 0.600000 0.100000
v 1.000000 0.600000 0.100000
v -1.000000 0.600000 0.100000
v -1.000000 0.600000 -0.100000
v 1.000000 0.600000 -0.100000
v -1.000000 0.600000 0.100000
v -1.000000 1.000000 0.100000
v -1.000000 1.000000 -0.100000
v -1.000000 0.600000 -0.100000
v 1.000000 0.600000 0.100000
v 1.000000 1.000000 0.100000
v -1.000000 1.000000 0.100000
v -1.000000 0.600000 0.100000
v 0.900000 -1.000000 0.100000
v 0.900000 -1.000000 -0.100000
v -0.900000 -1.000000 -0.100000
v -0.900000 -1.000000 0.100000
v 0.900000 -0.886603 0.050000
v 0.900000 -0.713397 -0.050000
v -0.900000 -0.713397 -0.050000
v -0.900000 -0.886603 0.050000
v 0.900000 -0.686603 0.050000
v 0.900000 -0.513397 -0.050000
v -0.900000 -0.513397 -0.050000
v -0.900000 -0.686603 0.050000
v 0.900000 -0.486603 0.050000
v 0.900000 -0.313397 -0.050000
v -0.900000 -0.313397 -0.050000
v -0.900000 -0.486603 0.050000
v 0.900000 -0.286603 0.050000
v 0.900000 -0.113397 -0.050000
v -0.900000 -0.113397 -0.050000
v -0.900000 -0.286603 0.050000
v 0.900000 -0.086603 0.050000
v 0.900000 0.086603 -0.050000
v -0.900000 0.086603 -0.050000
v -0.900000 -0.086603 0.050000
v 0.900000 0.113397 0.050000
v 0.900000 0.286603 -0.050000
v -0.900000 0.286603 -0.050000
v -0.900000 0.113397 0.050000
v 0.900000 0.313397 0.050000
v 0.900000 0.486603 -0.050000
v -0.900000 0.486603 -0.050000
v -0.900000 0.313397 0.050000
v 0.932071 0.600000 -0.067929
v 0.932071 -0.500000 -0.067929
v 0.932071 -0.500000 -0.032071
v 0.932071 0.600000 -0.032071
v 0.932071 0.600000 -0.032071
v 0.932071 -0.500000 -0.032071
v 0.967929 -0.500000 -0.032071
v 0.967929 0.600000 -0.032071
v 0.967929 0.600000 -0.032071
v 0.967929 -0.500000 -0.032071
v 0.967929 -0.500000 -0.067929
v 0.967929 0.600000 -0.067929
v 0.967929 0.600000 -0.067929
v 0.967929 -0.500000 -0.067929
v 0.932071 -0.500000 -0.067929
v 0.932071 0.600000 -0.067929
v 0.932071 0.600000 -0.032071
v 0.967929 0.600000 -0.032071
v 0.967929 0.600000 -0.067929
v 0.932071 0.600000 -0.067929
v 0.967929 -0.500000 -0.032071
v 0.932071 -0.500000 -0.032071
v 0.932071 -0.500000 -0.067929
v 0.967929 -0.500000 -0.067929
v 0.490000 -1.000000 -0.100000
v 0.490000 0.600000 -0.100000
v 0.510000 0.600000 -0.100000
v 0.510000 -1.000000 -0.100000
v 0.900000 -0.950000 0.100000
v -0.900000 -0.950000 0.100000
v -0.900000 -0.950000 -0.100000
v 0.900000 -0.950000 -0.100000
v -0.900000 -1.000000 -0.100000
v -0.900000 -0.950000 -0.100000
v 0.900000 -0.950000 -0.100000
v 0.900000 -1.000000 -0.100000
v 0.900000 -1.000000 -0.100000
v 0.900000 -0.950000 -0.100000
v 0.900000 -0.950000 0.100000
v 0.900000 -1.000000 0.100000
v -0.900000 -1.000000 0.100000
v -0.900000 -0.950000 0.100000
v -0.900000 -0.950000 -0.100000
v -0.900000 -1.000000 -0.100000
v 0.900000 -1.000000 0.100000
v 0.900000 -0.950000 0.100000
v -0.900000 -0.950000 0.100000
v -0.900000 -1.000000 0.100000
v 0.490000 -1.000000 -0.100000
v 0.510000 -1.000000 -0.100000
v 0.510000 -1.000000 0.100000
v 0.490000 -1.000000 0.100000
v 0.490000 -1.000000 0.100000
v 0.510000 -1.000000 0.100000
v 0.510000 -1.000000 0.100000
v 0.490000 -1.000000 0.100000
v 0.490000 -1.000000 0.100000
v 0.510000 -1.000000 0.100000
v 0.510000 0.600000 0.100000
v 0.490000 0.600000 0.100000
v -0.510000 -1.000000 -0.100000
v -0.510000 0.600000 -0.100000
v -0.490000 0.600000 -0.100000
v -0.490000 -1.000000 -0.100000
v -0.510000 -1.000000 -0.100000
v -0.490000 -1.000000 -0.100000
v -0.490000 -1.000000 0.100000
v -0.510000 -1.000000 0.100000
v -0.510000 -1.000000 0.100000
v -0.490000 -1.000000 0.100000
v -0.490000 0.600000 0.100000
v -0.510000 0.600000 0.100000

vt 0.266649 0.066864
vt 0.200054 0.732814
vt 0.200054 0.066864
vt 0.266649 0.732814
vt 0.200054 0.732814
vt 0.266649 0.066864
vt 0.266649 0.066864
vt 0.399839 0.732814
vt 0.266649 0.732814
vt 0.399839 0.066864
vt 0.399839 0.732814
vt 0.266649 0.066864
vt 0.200054 0.066864
vt 0.066864 0.000269
vt 0.200054 0.000269
vt 0.066864 0.066864
vt 0.066864 0.000269
vt 0.200054 0.066864
vt 0.000269 0.732814
vt 0.066864 0.066864
vt 0.066864 0.732814
vt 0.000269 0.066864
vt 0.066864 0.066864
vt 0.000269 0.732814
vt 0.200054 0.799409
vt 0.066864 0.732814
vt 0.200054 0.732814
vt 0.066864 0.799408
vt 0.066864 0.732814
vt 0.200054 0.799409
vt 0.200054 0.732814
vt 0.066864 0.066864
vt 0.200054 0.066864
vt 0.066864 0.732814
vt 0.066864 0.066864
vt 0.200054 0.732814
vt 0.566864 0.616274
vt 0.500269 0.016918
vt 0.566864 0.016918
vt 0.500269 0.616274
vt 0.500269 0.016918
vt 0.566864 0.616274
vt 0.792681 0.012209
vt 0.780743 0.378485
vt 0.780741 0.012209
vt 0.792682 0.378485
vt 0.780743 0.378485
vt 0.792681 0.012209
vt 0.804621 0.012209
vt 0.792682 0.378485
vt 0.792681 0.012209
vt 0.804621 0.378485
vt 0.792682 0.378485
vt 0.804621 0.012209
vt 0.816560 0.012209
vt 0.804621 0.378485
vt 0.804621 0.012209
vt 0.816560 0.378485
vt 0.804621 0.378485
vt 0.816560 0.012209
vt 0.780741 0.012209
vt 0.768803 0.378485
vt 0.768801 0.012209
vt 0.780743 0.378485
vt 0.768803 0.378485
vt 0.780741 0.012209
vt 0.804621 0.390424
vt 0.792682 0.378485
vt 0.804621 0.378485
vt 0.792682 0.390424
vt 0.792682 0.378485
vt 0.804621 0.390424
vt 0.792681 0.000269
vt 0.804621 0.012209
vt 0.792681 0.012209
vt 0.804621 0.000269
vt 0.804621 0.012209
vt 0.792681 0.000269
vt 0.834069 0.451162
vt 0.841938 0.000269
vt 0.841938 0.451129
vt 0.834069 0.000302
vt 0.841938 0.000269
vt 0.834069 0.451162
vt 0.417025 0.616274
vt 0.483621 0.016918
vt 0.483620 0.616274
vt 0.417026 0.016918
vt 0.483621 0.016918
vt 0.417025 0.616274
vt 0.417026 0.016918
vt 0.400377 0.616274
vt 0.417025 0.616274
vt 0.400377 0.016918
vt 0.400377 0.616274
vt 0.417026 0.016918
vt 0.483621 0.016918
vt 0.417026 0.000269
vt 0.417026 0.016918
vt 0.483621 0.000269
vt 0.417026 0.000269
vt 0.483621 0.016918
vt 0.417025 0.616274
vt 0.483620 0.632923
vt 0.483620 0.616274
vt 0.417025 0.632923
vt 0.483620 0.632923
vt 0.417025 0.616274
vt 0.483620 0.616274
vt 0.500269 0.016918
vt 0.483621 0.016918
vt 0.500269 0.616274
vt 0.500269 0.016918
vt 0.483620 0.616274
vt 0.824799 0.077305
vt 0.817423 0.000269
vt 0.825124 0.000301
vt 0.817099 0.077273
vt 0.817423 0.000269
vt 0.824799 0.077305
vt 0.824799 0.077440
vt 0.817099 0.077273
vt 0.824799 0.077305
vt 0.817098 0.077407
vt 0.817099 0.077273
vt 0.824799 0.077440
vt 0.825124 0.518638
vt 0.817098 0.077407
vt 0.824799 0.077440
vt 0.817423 0.518605
vt 0.817098 0.077407
vt 0.825124 0.518638
vt 0.842476 0.451162
vt 0.850345 0.000269
vt 0.850345 0.451129
vt 0.842476 0.000302
vt 0.850345 0.000269
vt 0.842476 0.451162
vt 0.567402 0.606820
vt 0.633997 0.600161
vt 0.633997 0.606820
vt 0.567402 0.600161
vt 0.633997 0.600161
vt 0.567402 0.606820
vt 0.825662 0.000269
vt 0.833531 0.451173
vt 0.825662 0.451134
vt 0.833531 0.000308
vt 0.833531 0.451173
vt 0.825662 0.000269
vt 0.000269 0.799946
vt 0.599623 0.866542
vt 0.599623 0.799946
vt 0.000269 0.866541
vt 0.599623 0.866542
vt 0.000269 0.799946
vt 0.567402 0.599623
vt 0.633997 0.000269
vt 0.567402 0.000269
vt 0.633997 0.599623
vt 0.633997 0.000269
vt 0.567402 0.599623
vt 0.701668 0.599623
vt 0.768263 0.000269
vt 0.701668 0.000269
vt 0.768263 0.599623
vt 0.768263 0.000269
vt 0.701668 0.599623
vt 0.634535 0.599623
vt 0.701130 0.000269
vt 0.634535 0.000269
vt 0.701130 0.599623
vt 0.701130 0.000269
vt 0.634535 0.599623
vt 0.400377 0.700594
vt 0.999731 0.767189
vt 0.999731 0.700594
vt 0.400377 0.767189
vt 0.999731 0.767189
vt 0.400377 0.700594
vt 0.400377 0.633461
vt 0.999731 0.700056
vt 0.999731 0.633461
vt 0.400377 0.700056
vt 0.999731 0.700056
vt 0.400377 0.633461
vt 0.000269 0.867079
vt 0.599623 0.933675
vt 0.599623 0.867079
vt 0.000269 0.933674
vt 0.599623 0.933675
vt 0.000269 0.867079

vn -0.000000 1.000000 0.000000
vn -0.000000 1.000000 0.000000
vn -0.000000 1.000000 0.000000
vn -0.000000 1.000000 0.000000
vn -0.000000 1.000000 0.000000
vn -0.000000 1.000000 0.000000
vn -0.000000 0.000000 -1.000000
vn -0.000000 0.000000 -1.000000
vn -0.000000 0.000000 -1.000000
vn -0.000000 0.000000 -1.000000
vn -0.000000 0.000000 -1.000000
vn -0.000000 0.000000 -1.000000
vn 1.000000 0.000000 0.000000
vn 1.000000 0.000000 0.000000
vn 1.000000 0.000000 0.000000
vn 1.000000 0.000000 0.000000
vn 1.000000 0.000000 0.000000
vn 1.000000 0.000000 0.000000
vn -0.000000 -1.000000 0.000000
vn -0.000000 -1.000000 0.000000
vn -0.000000 -1.000000 0.000000
vn -0.000000 -1.000000 0.000000
vn -0.000000 -1.000000 0.000000
vn -0.000000 -1.000000 0.000000
vn -1.000000 0.000000 0.000000
vn -1.000000 0.000000 0.000000
vn -1.000000 0.000000 0.000000
vn -1.000000 0.000000 0.000000
vn -1.000000 0.000000 0.000000
vn -1.000000 0.000000 0.000000
vn -0.000000 0.000000 1.000000
vn -0.000000 0.000000 1.000000
vn -0.000000 0.000000 1.000000
vn -0.000000 0.000000 1.000000
vn -0.000000 0.000000 1.000000
vn -0.000000 0.000000 1.000000
vn -0.000000 1.000000 0.000000
vn -0.000000 1.000000 0.000000
vn -0.000000 1.000000 0.000000
vn -0.000000 1.000000 0.000000
vn -0.000000 1.000000 0.000000
vn -0.000000 1.000000 0.000000
vn -1.000000 0.000000 0.000000
vn -1.000000 0.000000 0.000000
vn -1.000000 0.000000 0.000000
vn -1.000000 0.000000 0.000000
vn -1.000000 0.000000 0.000000
vn -1.000000 0.000000 0.000000
vn 0.000000 0.000000 1.000000
vn 0.000000 0.000000 1.000000
vn 0.000000 0.000000 1.000000
vn -0.000000 -0.000000 1.000000
vn -0.000000 -0.000000 1.000000
vn -0.000000 -0.000000 1.000000
vn 1.000000 0.000000 0.000000
vn 1.000000 0.000000 0.000000
vn 1.000000 0.000000 0.000000
vn 1.000000 0.000000 0.000000
vn 1.000000 0.000000 0.000000
vn 1.000000 0.000000 0.000000
vn 0.000000 -0.000000 -1.000000
vn 0.000000 -0.000000 -1.000000
vn 0.000000 -0.000000 -1.000000
vn -0.000000 0.000000 -1.000000
vn -0.000000 0.000000 -1.000000
vn -0.000000 0.000000 -1.000000
vn -0.000002 1.000000 0.000000
vn -0.000002 1.000000 0.000000
vn -0.000002 1.000000 0.000000
vn -0.000003 1.000000 0.000000
vn -0.000003 1.000000 0.000000
vn -0.000003 1.000000 0.000000
vn 0.000003 -1.000000 0.000000
vn 0.000003 -1.000000 0.000000
vn 0.000003 -1.000000 0.000000
vn 0.000003 -1.000000 0.000000
vn 0.000003 -1.000000 0.000000
vn 0.000003 -1.000000 0.000000
vn -0.000000 0.000000 -1.000000
vn -0.000000 0.000000 -1.000000
vn -0.000000 0.000000 -1.000000
vn -0.000000 0.000000 -1.000000
vn -0.000000 0.000000 -1.000000
vn -0.000000 0.000000 -1.000000
vn -0.000000 -1.000000 0.000000
vn -0.000000 -1.000000 0.000000
vn -0.000000 -1.000000 0.000000
vn -0.000000 -1.000000 0.000000
vn -0.000000 -1.000000 0.000000
vn -0.000000 -1.000000 0.000000
vn -0.000000 0.000000 -1.000000
vn -0.000000 0.000000 -1.000000
vn -0.000000 0.000000 -1.000000
vn -0.000000 0.000000 -1.000000
vn -0.000000 0.000000 -1.000000
vn -0.000000 0.000000 -1.000000
vn 1.000000 0.000000 0.000000
vn 1.000000 0.000000 0.000000
vn 1.000000 0.000000 0.000000
vn 1.000000 0.000000 0.000000
vn 1.000000 0.000000 0.000000
vn 1.000000 0.000000 0.000000
vn -1.000000 0.000000 0.000000
vn -1.000000 0.000000 0.000000
vn -1.000000 0.000000 0.000000
vn -1.000000 0.000000 0.000000
vn -1.000000 0.000000 0.000000
vn -1.000000 0.000000 0.000000
vn -0.000000 0.000000 1.000000
vn -0.000000 0.000000 1.000000
vn -0.000000 0.000000 1.000000
vn -0.000000 0.000000 1.000000
vn -0.000000 0.000000 1.000000
vn -0.000000 0.000000 1.000000
vn -0.000000 -1.000000 0.000000
vn -0.000000 -1.000000 0.000000
vn -0.000000 -1.000000 0.000000
vn -0.000000 -1.000000 0.000000
vn -0.000000 -1.000000 0.000000
vn -0.000000 -1.000000 0.000000
vn -0.000000 1.000000 0.000000
vn -0.000000 1.000000 0.000000
vn -0.000000 1.000000 0.000000
vn -0.000000 1.000000 0.000000
vn -0.000000 1.000000 0.000000
vn -0.000000 1.000000 0.000000
vn -0.000000 0.000000 1.000000
vn -0.000000 0.000000 1.000000
vn -0.000000 0.000000 1.000000
vn -0.000000 0.000000 1.000000
vn -0.000000 0.000000 1.000000
vn -0.000000 0.000000 1.000000
vn -0.000000 0.000000 -1.000000
vn -0.000000 0.000000 -1.000000
vn -0.000000 0.000000 -1.000000
vn -0.000000 0.000000 -1.000000
vn -0.000000 0.000000 -1.000000
vn -0.000000 0.000000 -1.000000
vn -0.000000 -1.000000 0.000000
vn -0.000000 -1.000000 0.000000
vn -0.000000 -1.000000 0.000000
vn -0.000000 -1.000000 0.000000
vn -0.000000 -1.000000 0.000000
vn -0.000000 -1.000000 0.000000
vn -0.000000 0.000000 1.000000
vn -0.000000 0.000000 1.000000
vn -0.000000 0.000000 1.000000
vn -0.000000 0.000000 1.000000
vn -0.000000 0.000000 1.000000
vn -0.000000 0.000000 1.000000
vn -0.000000 0.500000 0.866025
vn -0.000000 0.500000 0.866025
vn -0.000000 0.500000 0.866025
vn -0.000000 0.500000 0.866025
vn -0.000000 0.500000 0.866025
vn -0.000000 0.500000 0.866025
vn -0.000000 0.500000 0.866025
vn -0.000000 0.500000 0.866025
vn -0.000000 0.500000 0.866025
vn -0.000000 0.500000 0.866025
vn -0.000000 0.500000 0.866025
vn -0.000000 0.500000 0.866025
vn -0.000000 0.500000 0.866025
vn -0.000000 0.500000 0.866025
vn -0.000000 0.500000 0.866025
vn -0.000000 0.500000 0.866025
vn -0.000000 0.500000 0.866025
vn -0.000000 0.500000 0.866025
vn -0.000000 0.500000 0.866025
vn -0.000000 0.500000 0.866025
vn -0.000000 0.500000 0.866025
vn -0.000000 0.500000 0.866025
vn -0.000000 0.500000 0.866025
vn -0.000000 0.500000 0.866025
vn -0.000000 0.500000 0.866025
vn -0.000000 0.500000 0.866025
vn -0.000000 0.500000 0.866025
vn -0.000000 0.500000 0.866025
vn -0.000000 0.500000 0.866025
vn -0.000000 0.500000 0.866025
vn -0.000000 0.500000 0.866025
vn -0.000000 0.500000 0.866025
vn -0.000000 0.500000 0.866025
vn -0.000000 0.500000 0.866025
vn -0.000000 0.500000 0.866025
vn -0.000000 0.500000 0.866025
vn -0.000000 0.500000 0.866025
vn -0.000000 0.500000 0.866025
vn -0.000000 0.500000 0.866025
vn -0.000000 0.500000 0.866025
vn -0.000000 0.500000 0.866025
vn -0.000000 0.500000 0.866025

g Material
f 3/1/1 1/2/2 2/3/3
f 4/4/4 1/5/5 3/6/6
f 7/7/7 5/8/8 6/9/9
f 8/10/10 5/11/11 7/12/12
f 11/13/13 9/14/14 10/15/15
f 12/16/16 9/17/17 11/18/18
f 15/19/19 13/20/20 14/21/21
f 16/22/22 13/23/23 15/24/24
f 19/25/25 17/26/26 18/27/27
f 20/28/28 17/29/29 19/30/30
f 23/31/31 21/32/32 22/33/33
f 24/34/34 21/35/35 23/36/36
f 27/37/37 25/38/38 26/39/39
f 28/40/40 25/41/41 27/42/42
f 59/43/43 57/44/44 58/45/45
f 60/46/46 57/47/47 59/48/48
f 63/49/49 61/50/50 62/51/51
f 64/52/52 61/53/53 63/54/54
f 67/55/55 65/56/56 66/57/57
f 68/58/58 65/59/59 67/60/60
f 71/61/61 69/62/62 70/63/63
f 72/64/64 69/65/65 71/66/66
f 75/67/67 73/68/68 74/69/69
f 76/70/70 73/71/71 75/72/72
f 79/73/73 77/74/74 78/75/75
f 80/76/76 77/77/77 79/78/78
f 83/79/79 81/80/80 82/81/81
f 84/82/82 81/83/83 83/84/84
f 87/85/85 85/86/86 86/87/87
f 88/88/88 85/89/89 87/90/90
f 91/91/91 89/92/92 90/93/93
f 92/94/94 89/95/95 91/96/96
f 95/97/97 93/98/98 94/99/99
f 96/100/100 93/101/101 95/102/102
f 99/103/103 97/104/104 98/105/105
f 100/106/106 97/107/107 99/108/108
f 103/109/109 101/110/110 102/111/111
f 104/112/112 101/113/113 103/114/114
f 107/115/115 105/116/116 106/117/117
f 108/118/118 105/119/119 107/120/120
f 111/121/121 109/122/122 110/123/123
f 112/124/124 109/125/125 111/126/126
f 115/127/127 113/128/128 114/129/129
f 116/130/130 113/131/131 115/132/132
f 119/133/133 117/134/134 118/135/135
f 120/136/136 117/137/137 119/138/138
f 123/139/139 121/140/140 122/141/141
f 124/142/142 121/143/143 123/144/144
f 127/145/145 125/146/146 126/147/147
f 128/148/148 125/149/149 127/150/150

g Material.001
f 31/151/151 29/152/152 30/153/153
f 32/154/154 29/155/155 31/156/156
f 35/157/157 33/158/158 34/159/159
f 36/160/160 33/161/161 35/162/162
f 39/163/163 37/164/164 38/165/165
f 40/166/166 37/167/167 39/168/168
f 43/169/169 41/170/170 42/171/171
f 44/172/172 41/173/173 43/174/174
f 47/175/175 45/176/176 46/177/177
f 48/178/178 45/179/179 47/180/180
f 51/181/181 49/182/182 50/183/183
f 52/184/184 49/185/185 51/186/186
f 55/187/187 53/188/188 54/189/189
f 56/190/190 53/191/191 55/192/192

