# Converted from B3D for Luanti (With Correct Normals)
# Object Name: multidecor_spiral_plank_stair_segment

v -0.366025 1.000000 0.366026
v 1.000000 1.000000 -1.000000
v 1.000000 0.800000 -1.000000
v -0.366025 0.800000 0.366026
v 1.000000 1.000000 -1.000000
v 1.000000 1.000000 1.000000
v 1.000000 0.800000 1.000000
v 1.000000 0.800000 -1.000000
v 0.000000 0.800000 0.732051
v 1.000000 0.800000 -1.000000
v 1.000000 0.800000 1.000000
v -1.000000 0.000000 -1.000000
v -0.732051 0.000000 0.000000
v 1.000000 0.000000 -1.000000
v -0.366025 0.800000 0.366026
v 1.000000 0.800000 -1.000000
v 0.000000 0.800000 0.732051
v -1.000000 0.000000 -1.000000
v 1.000000 0.000000 -1.000000
v 1.000000 -0.200000 -1.000000
v -1.000000 -0.200000 -1.000000
v 1.000000 0.000000 -1.000000
v -0.366025 0.000000 0.366025
v -0.366025 -0.200000 0.366025
v 1.000000 -0.200000 -1.000000
v -0.366025 1.000000 0.366026
v 0.000000 1.000000 0.732051
v 1.000000 1.000000 -1.000000
v 0.000000 1.000000 0.732051
v 1.000000 1.000000 1.000000
v 1.000000 1.000000 -1.000000
v -0.732051 0.000000 0.000000
v -0.366025 0.000000 0.366025
v 1.000000 0.000000 -1.000000
v -0.732051 -0.200000 0.000000
v 1.000000 -0.200000 -1.000000
v -0.366025 -0.200000 0.366025
v -1.000000 -0.200000 -1.000000
v 1.000000 -0.200000 -1.000000
v -0.732051 -0.200000 0.000000
v 1.000000 -1.000000 -0.850000
v 1.106066 -1.000000 -0.893934
v 1.106066 1.000000 -0.893934
v 1.000000 1.000000 -0.850000
v 1.106066 -1.000000 -0.893934
v 1.150000 -1.000000 -1.000000
v 1.150000 1.000000 -1.000000
v 1.106066 1.000000 -0.893934
v 1.150000 -1.000000 -1.000000
v 1.106066 -1.000000 -1.106066
v 1.106066 1.000000 -1.106066
v 1.150000 1.000000 -1.000000
v 1.106066 -1.000000 -1.106066
v 1.000000 -1.000000 -1.150000
v 1.000000 1.000000 -1.150000
v 1.106066 1.000000 -1.106066
v 1.000000 -1.000000 -1.150000
v 0.893934 -1.000000 -1.106066
v 0.893934 1.000000 -1.106066
v 1.000000 1.000000 -1.150000
v 0.893934 -1.000000 -1.106066
v 0.850000 -1.000000 -1.000000
v 0.850000 1.000000 -1.000000
v 0.893934 1.000000 -1.106066
v 1.000000 1.000000 -0.850000
v 1.000000 1.000000 -1.150000
v 0.850000 1.000000 -1.000000
v 0.850000 -1.000000 -1.000000
v 0.893934 -1.000000 -0.893934
v 0.893934 1.000000 -0.893934
v 0.850000 1.000000 -1.000000
v 0.893934 -1.000000 -0.893934
v 1.000000 -1.000000 -0.850000
v 1.000000 1.000000 -0.850000
v 0.893934 1.000000 -0.893934
v 1.106066 -1.000000 -0.893934
v 0.893934 -1.000000 -1.106066
v 1.106066 -1.000000 -1.106066
v -1.000000 0.000000 -1.000000
v -1.000000 -0.200000 -1.000000
v -0.732051 -0.200000 0.000000
v -0.732051 0.000000 0.000000
v 1.000000 1.000000 1.000000
v 0.000000 1.000000 0.732051
v 0.000000 0.800000 0.732051
v 1.000000 0.800000 1.000000
v -0.732051 0.000000 0.000000
v -0.732051 -0.200000 0.000000
v -0.366025 -0.200000 0.366025
v -0.366025 0.000000 0.366025
v -0.366025 1.000000 0.366026
v -0.366025 0.800000 0.366026
v 0.000000 0.800000 0.732051
v 0.000000 1.000000 0.732051
v 1.150000 1.000000 -1.000000
v 1.000000 1.000000 -0.850000
v 1.106066 1.000000 -0.893934
v 1.000000 1.000000 -0.850000
v 0.850000 1.000000 -1.000000
v 0.893934 1.000000 -0.893934
v 0.850000 1.000000 -1.000000
v 1.000000 1.000000 -1.150000
v 0.893934 1.000000 -1.106066
v 1.000000 1.000000 -1.150000
v 1.150000 1.000000 -1.000000
v 1.106066 1.000000 -1.106066
v 1.150000 1.000000 -1.000000
v 1.000000 1.000000 -1.150000
v 1.000000 1.000000 -0.850000
v 0.893934 -1.000000 -0.893934
v 1.106066 -1.000000 -0.893934
v 1.000000 -1.000000 -0.850000
v 1.106066 -1.000000 -0.893934
v 1.106066 -1.000000 -1.106066
v 1.150000 -1.000000 -1.000000
v 1.106066 -1.000000 -1.106066
v 0.893934 -1.000000 -1.106066
v 1.000000 -1.000000 -1.150000
v 0.893934 -1.000000 -1.106066
v 0.893934 -1.000000 -0.893934
v 0.850000 -1.000000 -1.000000
v 0.893934 -1.000000 -0.893934
v 0.893934 -1.000000 -1.106066
v 1.106066 -1.000000 -0.893934

vt 0.657515 0.329398
vt 0.623434 0.000194
vt 0.623434 0.329398
vt 0.657515 0.000194
vt 0.623434 0.000194
vt 0.657515 0.329398
vt 0.657515 0.670212
vt 0.623434 0.329398
vt 0.623434 0.670212
vt 0.657515 0.329398
vt 0.623434 0.329398
vt 0.657515 0.670212
vt 0.466146 0.000194
vt 0.295738 0.045855
vt 0.466146 0.341010
vt 0.232976 0.341010
vt 0.232976 0.000194
vt 0.062568 0.045855
vt 0.295738 0.045855
vt 0.233365 0.108229
vt 0.466146 0.341010
vt 0.658989 0.705072
vt 0.999806 0.670991
vt 0.658989 0.670991
vt 0.999806 0.705073
vt 0.999806 0.670991
vt 0.658989 0.705072
vt 0.329786 0.705072
vt 0.658989 0.670991
vt 0.329786 0.670991
vt 0.658989 0.705072
vt 0.658989 0.670991
vt 0.329786 0.705072
vt 0.570779 0.670602
vt 0.570779 0.341399
vt 0.482569 0.341399
vt 0.570779 0.670602
vt 0.482569 0.341399
vt 0.329786 0.429609
vt 0.232976 0.341010
vt 0.062568 0.045855
vt 0.000194 0.108229
vt 0.329397 0.582392
vt 0.329397 0.494183
vt 0.000194 0.582392
vt 0.329397 0.494183
vt 0.241188 0.341399
vt 0.000194 0.582392
vt 0.571168 0.517818
vt 0.605249 0.341399
vt 0.571168 0.341399
vt 0.605249 0.517818
vt 0.605249 0.341399
vt 0.571168 0.517818
vt 0.088404 0.616863
vt 0.264823 0.582781
vt 0.088404 0.582781
vt 0.264823 0.616863
vt 0.264823 0.582781
vt 0.088404 0.616863
vt 0.571168 0.606028
vt 0.605249 0.517818
vt 0.571168 0.517818
vt 0.605249 0.606028
vt 0.605249 0.517818
vt 0.571168 0.606028
vt 0.088404 0.616863
vt 0.000194 0.582781
vt 0.000194 0.616863
vt 0.088404 0.582781
vt 0.000194 0.582781
vt 0.088404 0.616863
vt 0.715198 0.690166
vt 0.374382 0.670602
vt 0.374382 0.690166
vt 0.715198 0.670602
vt 0.374382 0.670602
vt 0.715198 0.690166
vt 0.715198 0.709729
vt 0.374382 0.690166
vt 0.374382 0.709730
vt 0.715198 0.690166
vt 0.374382 0.690166
vt 0.715198 0.709729
vt 0.715198 0.729293
vt 0.374382 0.709730
vt 0.374382 0.729293
vt 0.715198 0.709729
vt 0.374382 0.709730
vt 0.715198 0.729293
vt 0.715198 0.748857
vt 0.374382 0.729293
vt 0.374383 0.748857
vt 0.715198 0.729293
vt 0.374382 0.729293
vt 0.715198 0.748857
vt 0.715198 0.611911
vt 0.374382 0.592347
vt 0.374382 0.611911
vt 0.715198 0.592347
vt 0.374382 0.592347
vt 0.715198 0.611911
vt 0.715198 0.631475
vt 0.374382 0.611911
vt 0.374382 0.631475
vt 0.715198 0.611911
vt 0.374382 0.611911
vt 0.715198 0.631475
vt 0.312443 0.616178
vt 0.298609 0.582781
vt 0.279046 0.630012
vt 0.715198 0.651038
vt 0.374382 0.631475
vt 0.374382 0.651039
vt 0.715198 0.631475
vt 0.374382 0.631475
vt 0.715198 0.651038
vt 0.715198 0.670602
vt 0.374382 0.651039
vt 0.374382 0.670602
vt 0.715198 0.651038
vt 0.374382 0.651039
vt 0.715198 0.670602
vt 0.618399 0.639814
vt 0.604565 0.606417
vt 0.585001 0.653648
vt 0.279046 0.582781
vt 0.265212 0.596615
vt 0.298609 0.582781
vt 0.312443 0.596615
vt 0.298609 0.582781
vt 0.312443 0.616178
vt 0.298609 0.630012
vt 0.312443 0.616178
vt 0.279046 0.630012
vt 0.265212 0.616178
vt 0.279046 0.630012
vt 0.265212 0.596615
vt 0.298609 0.582781
vt 0.265212 0.596615
vt 0.279046 0.630012
vt 0.585001 0.606417
vt 0.571168 0.620250
vt 0.604565 0.606417
vt 0.618399 0.620250
vt 0.604565 0.606417
vt 0.618399 0.639814
vt 0.604565 0.653648
vt 0.618399 0.639814
vt 0.585001 0.653648
vt 0.571168 0.639814
vt 0.585001 0.653648
vt 0.571168 0.620250
vt 0.604565 0.606417
vt 0.571168 0.620250
vt 0.585001 0.653648

vn -0.707106 0.000000 -0.707107
vn -0.707106 0.000000 -0.707107
vn -0.707106 0.000000 -0.707107
vn -0.707107 0.000000 -0.707106
vn -0.707107 0.000000 -0.707106
vn -0.707107 0.000000 -0.707106
vn 1.000000 0.000000 0.000000
vn 1.000000 0.000000 0.000000
vn 1.000000 0.000000 0.000000
vn 1.000000 0.000000 -0.000000
vn 1.000000 0.000000 -0.000000
vn 1.000000 0.000000 -0.000000
vn -0.000000 -1.000000 0.000000
vn -0.000000 -1.000000 0.000000
vn -0.000000 -1.000000 0.000000
vn -0.000000 1.000000 0.000000
vn -0.000000 1.000000 0.000000
vn -0.000000 1.000000 0.000000
vn -0.000000 -1.000000 0.000000
vn -0.000000 -1.000000 0.000000
vn -0.000000 -1.000000 0.000000
vn -0.000000 0.000000 -1.000000
vn -0.000000 0.000000 -1.000000
vn -0.000000 0.000000 -1.000000
vn -0.000000 0.000000 -1.000000
vn -0.000000 0.000000 -1.000000
vn -0.000000 0.000000 -1.000000
vn 0.707107 0.000000 0.707107
vn 0.707107 0.000000 0.707107
vn 0.707107 0.000000 0.707107
vn 0.707107 0.000000 0.707107
vn 0.707107 0.000000 0.707107
vn 0.707107 0.000000 0.707107
vn 0.000000 1.000000 0.000000
vn 0.000000 1.000000 0.000000
vn 0.000000 1.000000 0.000000
vn 0.000000 1.000000 0.000000
vn 0.000000 1.000000 0.000000
vn 0.000000 1.000000 0.000000
vn -0.000000 1.000000 0.000000
vn -0.000000 1.000000 0.000000
vn -0.000000 1.000000 0.000000
vn -0.000000 -1.000000 0.000000
vn -0.000000 -1.000000 0.000000
vn -0.000000 -1.000000 0.000000
vn 0.000000 -1.000000 0.000000
vn 0.000000 -1.000000 0.000000
vn 0.000000 -1.000000 0.000000
vn -0.965926 0.000000 0.258819
vn -0.965926 0.000000 0.258819
vn -0.965926 0.000000 0.258819
vn -0.965926 0.000000 0.258819
vn -0.965926 0.000000 0.258819
vn -0.965926 0.000000 0.258819
vn -0.258819 0.000000 0.965926
vn -0.258819 0.000000 0.965926
vn -0.258819 0.000000 0.965926
vn -0.258819 0.000000 0.965926
vn -0.258819 0.000000 0.965926
vn -0.258819 0.000000 0.965926
vn -0.707107 0.000000 0.707107
vn -0.707107 0.000000 0.707107
vn -0.707107 0.000000 0.707107
vn -0.707107 0.000000 0.707107
vn -0.707107 0.000000 0.707107
vn -0.707107 0.000000 0.707107
vn -0.707107 0.000000 0.707107
vn -0.707107 0.000000 0.707107
vn -0.707107 0.000000 0.707107
vn -0.707107 0.000000 0.707107
vn -0.707107 0.000000 0.707107
vn -0.707107 0.000000 0.707107
vn 0.382684 0.000000 0.923879
vn 0.382684 0.000000 0.923879
vn 0.382684 0.000000 0.923879
vn 0.382683 0.000000 0.923880
vn 0.382683 0.000000 0.923880
vn 0.382683 0.000000 0.923880
vn 0.923879 0.000000 0.382684
vn 0.923879 0.000000 0.382684
vn 0.923879 0.000000 0.382684
vn 0.923880 0.000000 0.382683
vn 0.923880 0.000000 0.382683
vn 0.923880 0.000000 0.382683
vn 0.923880 0.000000 -0.382683
vn 0.923880 0.000000 -0.382683
vn 0.923880 0.000000 -0.382683
vn 0.923879 0.000000 -0.382684
vn 0.923879 0.000000 -0.382684
vn 0.923879 0.000000 -0.382684
vn 0.382683 0.000000 -0.923880
vn 0.382683 0.000000 -0.923880
vn 0.382683 0.000000 -0.923880
vn 0.382684 0.000000 -0.923879
vn 0.382684 0.000000 -0.923879
vn 0.382684 0.000000 -0.923879
vn -0.382684 0.000000 -0.923879
vn -0.382684 0.000000 -0.923879
vn -0.382684 0.000000 -0.923879
vn -0.382684 0.000000 -0.923879
vn -0.382684 0.000000 -0.923879
vn -0.382684 0.000000 -0.923879
vn -0.923879 0.000000 -0.382684
vn -0.923879 0.000000 -0.382684
vn -0.923879 0.000000 -0.382684
vn -0.923879 0.000000 -0.382684
vn -0.923879 0.000000 -0.382684
vn -0.923879 0.000000 -0.382684
vn -0.000000 1.000000 0.000000
vn -0.000000 1.000000 0.000000
vn -0.000000 1.000000 0.000000
vn -0.923879 0.000000 0.382684
vn -0.923879 0.000000 0.382684
vn -0.923879 0.000000 0.382684
vn -0.923879 0.000000 0.382684
vn -0.923879 0.000000 0.382684
vn -0.923879 0.000000 0.382684
vn -0.382683 0.000000 0.923880
vn -0.382683 0.000000 0.923880
vn -0.382683 0.000000 0.923880
vn -0.382684 0.000000 0.923879
vn -0.382684 0.000000 0.923879
vn -0.382684 0.000000 0.923879
vn -0.000000 -1.000000 0.000000
vn -0.000000 -1.000000 0.000000
vn -0.000000 -1.000000 0.000000
vn -0.000000 1.000000 0.000000
vn -0.000000 1.000000 0.000000
vn -0.000000 1.000000 0.000000
vn -0.000000 1.000000 0.000000
vn -0.000000 1.000000 0.000000
vn -0.000000 1.000000 0.000000
vn -0.000000 1.000000 0.000000
vn -0.000000 1.000000 0.000000
vn -0.000000 1.000000 0.000000
vn -0.000000 1.000000 0.000000
vn -0.000000 1.000000 0.000000
vn -0.000000 1.000000 0.000000
vn -0.000000 1.000000 0.000000
vn -0.000000 1.000000 0.000000
vn -0.000000 1.000000 0.000000
vn -0.000000 -1.000000 0.000000
vn -0.000000 -1.000000 0.000000
vn -0.000000 -1.000000 0.000000
vn -0.000000 -1.000000 0.000000
vn -0.000000 -1.000000 0.000000
vn -0.000000 -1.000000 0.000000
vn -0.000000 -1.000000 0.000000
vn -0.000000 -1.000000 0.000000
vn -0.000000 -1.000000 0.000000
vn -0.000000 -1.000000 0.000000
vn -0.000000 -1.000000 0.000000
vn -0.000000 -1.000000 0.000000
vn -0.000000 -1.000000 0.000000
vn -0.000000 -1.000000 0.000000
vn -0.000000 -1.000000 0.000000

g Material.001
f 3/1/1 1/2/2 2/3/3
f 4/4/4 1/5/5 3/6/6
f 7/7/7 5/8/8 6/9/9
f 8/10/10 5/11/11 7/12/12
f 11/13/13 9/14/14 10/15/15
f 14/16/16 12/17/17 13/18/18
f 17/19/19 15/20/20 16/21/21
f 20/22/22 18/23/23 19/24/24
f 21/25/25 18/26/26 20/27/27
f 24/28/28 22/29/29 23/30/30
f 25/31/31 22/32/32 24/33/33
f 28/34/34 26/35/35 27/36/36
f 31/37/37 29/38/38 30/39/39
f 34/40/40 32/41/41 33/42/42
f 37/43/43 35/44/44 36/45/45
f 40/46/46 38/47/47 39/48/48
f 81/49/49 79/50/50 80/51/51
f 82/52/52 79/53/53 81/54/54
f 85/55/55 83/56/56 84/57/57
f 86/58/58 83/59/59 85/60/60
f 89/61/61 87/62/62 88/63/63
f 90/64/64 87/65/65 89/66/66
f 93/67/67 91/68/68 92/69/69
f 94/70/70 91/71/71 93/72/72

g Material
f 43/73/73 41/74/74 42/75/75
f 44/76/76 41/77/77 43/78/78
f 47/79/79 45/80/80 46/81/81
f 48/82/82 45/83/83 47/84/84
f 51/85/85 49/86/86 50/87/87
f 52/88/88 49/89/89 51/90/90
f 55/91/91 53/92/92 54/93/93
f 56/94/94 53/95/95 55/96/96
f 59/97/97 57/98/98 58/99/99
f 60/100/100 57/101/101 59/102/102
f 63/103/103 61/104/104 62/105/105
f 64/106/106 61/107/107 63/108/108
f 67/109/109 65/110/110 66/111/111
f 70/112/112 68/113/113 69/114/114
f 71/115/115 68/116/116 70/117/117
f 74/118/118 72/119/119 73/120/120
f 75/121/121 72/122/122 74/123/123
f 78/124/124 76/125/125 77/126/126
f 97/127/127 95/128/128 96/129/129
f 100/130/130 98/131/131 99/132/132
f 103/133/133 101/134/134 102/135/135
f 106/136/136 104/137/137 105/138/138
f 109/139/139 107/140/140 108/141/141
f 112/142/142 110/143/143 111/144/144
f 115/145/145 113/146/146 114/147/147
f 118/148/148 116/149/149 117/150/150
f 121/151/151 119/152/152 120/153/153
f 124/154/154 122/155/155 123/156/156

