# Made in Blockbench 4.12.4
o cube
v 0.5 -0.375 -0.3125
v 0.5 -0.375 -0.4375
v 0.5 -0.5 -0.3125
v 0.5 -0.5 -0.4375
v -0.5 -0.375 -0.3125
v -0.5 -0.375 -0.4375
v -0.5 -0.5 -0.3125
v -0.5 -0.5 -0.4375
v -0.5 -0.0625 -0.3125
v -0.5 -0.0625 -0.4375
v -0.375 -0.0625 -0.3125
v -0.375 -0.0625 -0.4375
v -0.5 -0.4375 -0.3125
v -0.5 -0.4375 -0.4375
v -0.375 -0.4375 -0.3125
v -0.375 -0.4375 -0.4375
v 0.375 -0.0625 -0.3125
v 0.375 -0.0625 -0.4375
v 0.5 -0.0625 -0.3125
v 0.5 -0.0625 -0.4375
v 0.375 -0.4375 -0.3125
v 0.375 -0.4375 -0.4375
v 0.5 -0.4375 -0.3125
v 0.5 -0.4375 -0.4375
v 0.5 0.0625 -0.3125
v 0.5 0.0625 -0.4375
v 0.5 -0.0625 -0.3125
v 0.5 -0.0625 -0.4375
v -0.5 0.0625 -0.3125
v -0.5 0.0625 -0.4375
v -0.5 -0.0625 -0.3125
v -0.5 -0.0625 -0.4375
v 0.375 -0.0625 -0.34375
v 0.375 -0.0625 -0.390625
v 0.375 -0.4375 -0.34375
v 0.375 -0.4375 -0.390625
v -0.375 -0.0625 -0.34375
v -0.375 -0.0625 -0.390625
v -0.375 -0.4375 -0.34375
v -0.375 -0.4375 -0.390625
v -0.5 0.5 -0.3125
v -0.5 0.5 -0.4375
v -0.4375 0.5 -0.3125
v -0.4375 0.5 -0.4375
v -0.5 0.0625 -0.3125
v -0.5 0.0625 -0.4375
v -0.4375 0.0625 -0.3125
v -0.4375 0.0625 -0.4375
v 0.4375 0.5 -0.3125
v 0.4375 0.5 -0.4375
v 0.5 0.5 -0.3125
v 0.5 0.5 -0.4375
v 0.4375 0.0625 -0.3125
v 0.4375 0.0625 -0.4375
v 0.5 0.0625 -0.3125
v 0.5 0.0625 -0.4375
v -0.015625 0.453125 -0.34375
v -0.015625 0.453125 -0.40625
v 0.015625 0.453125 -0.34375
v 0.015625 0.453125 -0.40625
v -0.015625 0.0625 -0.34375
v -0.015625 0.0625 -0.40625
v 0.015625 0.0625 -0.34375
v 0.015625 0.0625 -0.40625
v 0.4375 0.484375 -0.34375
v 0.4375 0.484375 -0.40625
v 0.4375 0.453125 -0.34375
v 0.4375 0.453125 -0.40625
v -0.4375 0.484375 -0.34375
v -0.4375 0.484375 -0.40625
v -0.4375 0.453125 -0.34375
v -0.4375 0.453125 -0.40625
v 0.4375 0.9375 -0.3125
v 0.4375 0.9375 -0.4375
v 0.5 0.9375 -0.3125
v 0.5 0.9375 -0.4375
v 0.4375 0.5 -0.3125
v 0.4375 0.5 -0.4375
v 0.5 0.5 -0.3125
v 0.5 0.5 -0.4375
v -0.015625 0.890625 -0.34375
v -0.015625 0.890625 -0.40625
v 0.015625 0.890625 -0.34375
v 0.015625 0.890625 -0.40625
v -0.015625 0.484375 -0.34375
v -0.015625 0.484375 -0.40625
v 0.015625 0.484375 -0.34375
v 0.015625 0.484375 -0.40625
v 0.4375 0.921875 -0.34375
v 0.4375 0.921875 -0.40625
v 0.4375 0.890625 -0.34375
v 0.4375 0.890625 -0.40625
v -0.4375 0.921875 -0.34375
v -0.4375 0.921875 -0.40625
v -0.4375 0.890625 -0.34375
v -0.4375 0.890625 -0.40625
v -0.5 0.9375 -0.3125
v -0.5 0.9375 -0.4375
v -0.4375 0.9375 -0.3125
v -0.4375 0.9375 -0.4375
v -0.5 0.5 -0.3125
v -0.5 0.5 -0.4375
v -0.4375 0.5 -0.3125
v -0.4375 0.5 -0.4375
v 0.4375 1.3125 -0.3125
v 0.4375 1.3125 -0.4375
v 0.5 1.3125 -0.3125
v 0.5 1.3125 -0.4375
v 0.4375 0.9375 -0.3125
v 0.4375 0.9375 -0.4375
v 0.5 0.9375 -0.3125
v 0.5 0.9375 -0.4375
v -0.015625 1.3125 -0.34375
v -0.015625 1.3125 -0.40625
v 0.015625 1.3125 -0.34375
v 0.015625 1.3125 -0.40625
v -0.015625 0.921875 -0.34375
v -0.015625 0.921875 -0.40625
v 0.015625 0.921875 -0.34375
v 0.015625 0.921875 -0.40625
v 0.5 1.75 -0.3125
v 0.5 1.75 -0.4375
v 0.5 1.3125 -0.3125
v 0.5 1.3125 -0.4375
v -0.5 1.75 -0.3125
v -0.5 1.75 -0.4375
v -0.5 1.3125 -0.3125
v -0.5 1.3125 -0.4375
v -0.5 1.3125 -0.3125
v -0.5 1.3125 -0.4375
v -0.4375 1.3125 -0.3125
v -0.4375 1.3125 -0.4375
v -0.5 0.9375 -0.3125
v -0.5 0.9375 -0.4375
v -0.4375 0.9375 -0.3125
v -0.4375 0.9375 -0.4375
v -0.453125 0.890625 -0.375
v -0.453125 0.890625 -0.375
v 0.015625 0.890625 -0.375
v 0.015625 0.890625 -0.375
v -0.453125 0.484375 -0.375
v -0.453125 0.484375 -0.375
v 0.015625 0.484375 -0.375
v 0.015625 0.484375 -0.375
v -0.015625 0.890625 -0.375
v -0.015625 0.890625 -0.375
v 0.453125 0.890625 -0.375
v 0.453125 0.890625 -0.375
v -0.015625 0.484375 -0.375
v -0.015625 0.484375 -0.375
v 0.453125 0.484375 -0.375
v 0.453125 0.484375 -0.375
v -0.015625 0.453125 -0.375
v -0.015625 0.453125 -0.375
v 0.453125 0.453125 -0.375
v 0.453125 0.453125 -0.375
v -0.015625 0.046875 -0.375
v -0.015625 0.046875 -0.375
v 0.453125 0.046875 -0.375
v 0.453125 0.046875 -0.375
v -0.453125 0.453125 -0.375
v -0.453125 0.453125 -0.375
v 0.015625 0.453125 -0.375
v 0.015625 0.453125 -0.375
v -0.453125 0.046875 -0.375
v -0.453125 0.046875 -0.375
v 0.015625 0.046875 -0.375
v 0.015625 0.046875 -0.375
v -0.453125 1.328125 -0.375
v -0.453125 1.328125 -0.375
v 0.015625 1.328125 -0.375
v 0.015625 1.328125 -0.375
v -0.453125 0.921875 -0.375
v -0.453125 0.921875 -0.375
v 0.015625 0.921875 -0.375
v 0.015625 0.921875 -0.375
v -0.015625 1.328125 -0.375
v -0.015625 1.328125 -0.375
v 0.453125 1.328125 -0.375
v 0.453125 1.328125 -0.375
v -0.015625 0.921875 -0.375
v -0.015625 0.921875 -0.375
v 0.453125 0.921875 -0.375
v 0.453125 0.921875 -0.375
vt -0.078125 0.90625
vt -0.078125 0.9375
vt -0.109375 0.9375
vt -0.109375 0.90625
vt 0.203125 0.90625
vt 0.203125 0.9375
vt 0.171875 0.9375
vt 0.171875 0.90625
vt -0.078125 0.96875
vt -0.078125 0.9375
vt 0.171875 0.9375
vt 0.171875 0.96875
vt 0.171875 0.9375
vt 0.171875 0.96875
vt 0.421875 0.96875
vt 0.421875 0.9375
vt 0.453125 0.90625
vt 0.453125 0.9375
vt 0.203125 0.9375
vt 0.203125 0.90625
vt 0.171875 0.90625
vt 0.171875 0.9375
vt -0.078125 0.9375
vt -0.078125 0.90625
vt 0.078125 0.90625
vt 0.078125 0.9375
vt 0.046875 0.9375
vt 0.046875 0.90625
vt 0.203125 0.90625
vt 0.203125 0.9375
vt 0.171875 0.9375
vt 0.171875 0.90625
vt 0.078125 0.96875
vt 0.078125 0.9375
vt 0.171875 0.9375
vt 0.171875 0.96875
vt 0.171875 0.9375
vt 0.171875 0.96875
vt 0.265625 0.96875
vt 0.265625 0.9375
vt 0.296875 0.90625
vt 0.296875 0.9375
vt 0.203125 0.9375
vt 0.203125 0.90625
vt 0.171875 0.90625
vt 0.171875 0.9375
vt 0.078125 0.9375
vt 0.078125 0.90625
vt 0.078125 0.90625
vt 0.078125 0.9375
vt 0.046875 0.9375
vt 0.046875 0.90625
vt 0.203125 0.90625
vt 0.203125 0.9375
vt 0.171875 0.9375
vt 0.171875 0.90625
vt 0.078125 0.96875
vt 0.078125 0.9375
vt 0.171875 0.9375
vt 0.171875 0.96875
vt 0.171875 0.9375
vt 0.171875 0.96875
vt 0.265625 0.96875
vt 0.265625 0.9375
vt 0.296875 0.90625
vt 0.296875 0.9375
vt 0.203125 0.9375
vt 0.203125 0.90625
vt 0.171875 0.90625
vt 0.171875 0.9375
vt 0.078125 0.9375
vt 0.078125 0.90625
vt -0.078125 0.90625
vt -0.078125 0.9375
vt -0.109375 0.9375
vt -0.109375 0.90625
vt 0.203125 0.90625
vt 0.203125 0.9375
vt 0.171875 0.9375
vt 0.171875 0.90625
vt -0.078125 0.96875
vt -0.078125 0.9375
vt 0.171875 0.9375
vt 0.171875 0.96875
vt 0.171875 0.9375
vt 0.171875 0.96875
vt 0.421875 0.96875
vt 0.421875 0.9375
vt 0.453125 0.90625
vt 0.453125 0.9375
vt 0.203125 0.9375
vt 0.203125 0.90625
vt 0.171875 0.90625
vt 0.171875 0.9375
vt -0.078125 0.9375
vt -0.078125 0.90625
vt -0.046875 0.84375
vt -0.046875 0.9375
vt -0.046875 0.9375
vt -0.046875 0.84375
vt 0.140625 0.84375
vt 0.140625 0.9375
vt 0.140625 0.9375
vt 0.140625 0.84375
vt -0.046875 0.9375
vt -0.046875 0.9375
vt 0.140625 0.9375
vt 0.140625 0.9375
vt 0.140625 0.9375
vt 0.140625 0.9375
vt 0.328125 0.9375
vt 0.328125 0.9375
vt 0.328125 0.84375
vt 0.328125 0.9375
vt 0.140625 0.9375
vt 0.140625 0.84375
vt 0.140625 0.84375
vt 0.140625 0.9375
vt -0.046875 0.9375
vt -0.046875 0.84375
vt 0.0625 0.921875
vt 0.0625 0.9375
vt 0.03125 0.9375
vt 0.03125 0.921875
vt 0.203125 0.921875
vt 0.203125 0.9375
vt 0.171875 0.9375
vt 0.171875 0.921875
vt 0.0625 0.96875
vt 0.0625 0.9375
vt 0.171875 0.9375
vt 0.171875 0.96875
vt 0.171875 0.9375
vt 0.171875 0.96875
vt 0.28125 0.96875
vt 0.28125 0.9375
vt 0.3125 0.921875
vt 0.3125 0.9375
vt 0.203125 0.9375
vt 0.203125 0.921875
vt 0.171875 0.921875
vt 0.171875 0.9375
vt 0.0625 0.9375
vt 0.0625 0.921875
vt 0.0625 0.921875
vt 0.0625 0.9375
vt 0.03125 0.9375
vt 0.03125 0.921875
vt 0.203125 0.921875
vt 0.203125 0.9375
vt 0.171875 0.9375
vt 0.171875 0.921875
vt 0.0625 0.96875
vt 0.0625 0.9375
vt 0.171875 0.9375
vt 0.171875 0.96875
vt 0.171875 0.9375
vt 0.171875 0.96875
vt 0.28125 0.96875
vt 0.28125 0.9375
vt 0.3125 0.921875
vt 0.3125 0.9375
vt 0.203125 0.9375
vt 0.203125 0.921875
vt 0.171875 0.921875
vt 0.171875 0.9375
vt 0.0625 0.9375
vt 0.0625 0.921875
vt 0.09375 0.921875
vt 0.09375 0.921875
vt 0.078125 0.921875
vt 0.078125 0.921875
vt 0.203125 0.921875
vt 0.203125 0.921875
vt 0.1875 0.921875
vt 0.1875 0.921875
vt 0.09375 0.9375
vt 0.09375 0.921875
vt 0.1875 0.921875
vt 0.1875 0.9375
vt 0.1875 0.921875
vt 0.1875 0.9375
vt 0.28125 0.9375
vt 0.28125 0.921875
vt 0.296875 0.921875
vt 0.296875 0.921875
vt 0.203125 0.921875
vt 0.203125 0.921875
vt 0.1875 0.921875
vt 0.1875 0.921875
vt 0.09375 0.921875
vt 0.09375 0.921875
vt -0.03125 0.921875
vt -0.03125 0.921875
vt -0.046875 0.921875
vt -0.046875 0.921875
vt 0.203125 0.921875
vt 0.203125 0.921875
vt 0.1875 0.921875
vt 0.1875 0.921875
vt -0.03125 0.9375
vt -0.03125 0.921875
vt 0.1875 0.921875
vt 0.1875 0.9375
vt 0.1875 0.921875
vt 0.1875 0.9375
vt 0.40625 0.9375
vt 0.40625 0.921875
vt 0.421875 0.921875
vt 0.421875 0.921875
vt 0.203125 0.921875
vt 0.203125 0.921875
vt 0.1875 0.921875
vt 0.1875 0.921875
vt -0.03125 0.921875
vt -0.03125 0.921875
vt 0.0625 0.921875
vt 0.0625 0.9375
vt 0.03125 0.9375
vt 0.03125 0.921875
vt 0.203125 0.921875
vt 0.203125 0.9375
vt 0.171875 0.9375
vt 0.171875 0.921875
vt 0.0625 0.96875
vt 0.0625 0.9375
vt 0.171875 0.9375
vt 0.171875 0.96875
vt 0.171875 0.9375
vt 0.171875 0.96875
vt 0.28125 0.96875
vt 0.28125 0.9375
vt 0.3125 0.921875
vt 0.3125 0.9375
vt 0.203125 0.9375
vt 0.203125 0.921875
vt 0.171875 0.921875
vt 0.171875 0.9375
vt 0.0625 0.9375
vt 0.0625 0.921875
vt 0.09375 0.921875
vt 0.09375 0.921875
vt 0.078125 0.921875
vt 0.078125 0.921875
vt 0.203125 0.921875
vt 0.203125 0.921875
vt 0.1875 0.921875
vt 0.1875 0.921875
vt 0.09375 0.9375
vt 0.09375 0.921875
vt 0.1875 0.921875
vt 0.1875 0.9375
vt 0.1875 0.921875
vt 0.1875 0.9375
vt 0.28125 0.9375
vt 0.28125 0.921875
vt 0.296875 0.921875
vt 0.296875 0.921875
vt 0.203125 0.921875
vt 0.203125 0.921875
vt 0.1875 0.921875
vt 0.1875 0.921875
vt 0.09375 0.921875
vt 0.09375 0.921875
vt -0.03125 0.921875
vt -0.03125 0.921875
vt -0.046875 0.921875
vt -0.046875 0.921875
vt 0.203125 0.921875
vt 0.203125 0.921875
vt 0.1875 0.921875
vt 0.1875 0.921875
vt -0.03125 0.9375
vt -0.03125 0.921875
vt 0.1875 0.921875
vt 0.1875 0.9375
vt 0.1875 0.921875
vt 0.1875 0.9375
vt 0.40625 0.9375
vt 0.40625 0.921875
vt 0.421875 0.921875
vt 0.421875 0.921875
vt 0.203125 0.921875
vt 0.203125 0.921875
vt 0.1875 0.921875
vt 0.1875 0.921875
vt -0.03125 0.921875
vt -0.03125 0.921875
vt 0.0625 0.921875
vt 0.0625 0.9375
vt 0.03125 0.9375
vt 0.03125 0.921875
vt 0.203125 0.921875
vt 0.203125 0.9375
vt 0.171875 0.9375
vt 0.171875 0.921875
vt 0.0625 0.96875
vt 0.0625 0.9375
vt 0.171875 0.9375
vt 0.171875 0.96875
vt 0.171875 0.9375
vt 0.171875 0.96875
vt 0.28125 0.96875
vt 0.28125 0.9375
vt 0.3125 0.921875
vt 0.3125 0.9375
vt 0.203125 0.9375
vt 0.203125 0.921875
vt 0.171875 0.921875
vt 0.171875 0.9375
vt 0.0625 0.9375
vt 0.0625 0.921875
vt 0.078125 0.921875
vt 0.078125 0.9375
vt 0.046875 0.9375
vt 0.046875 0.921875
vt 0.203125 0.921875
vt 0.203125 0.9375
vt 0.171875 0.9375
vt 0.171875 0.921875
vt 0.078125 0.96875
vt 0.078125 0.9375
vt 0.171875 0.9375
vt 0.171875 0.96875
vt 0.171875 0.9375
vt 0.171875 0.96875
vt 0.265625 0.96875
vt 0.265625 0.9375
vt 0.296875 0.921875
vt 0.296875 0.9375
vt 0.203125 0.9375
vt 0.203125 0.921875
vt 0.171875 0.921875
vt 0.171875 0.9375
vt 0.078125 0.9375
vt 0.078125 0.921875
vt 0.09375 0.921875
vt 0.09375 0.921875
vt 0.078125 0.921875
vt 0.078125 0.921875
vt 0.203125 0.921875
vt 0.203125 0.921875
vt 0.1875 0.921875
vt 0.1875 0.921875
vt 0.09375 0.9375
vt 0.09375 0.921875
vt 0.1875 0.921875
vt 0.1875 0.9375
vt 0.1875 0.921875
vt 0.1875 0.9375
vt 0.28125 0.9375
vt 0.28125 0.921875
vt 0.296875 0.921875
vt 0.296875 0.921875
vt 0.203125 0.921875
vt 0.203125 0.921875
vt 0.1875 0.921875
vt 0.1875 0.921875
vt 0.09375 0.921875
vt 0.09375 0.921875
vt -0.0625 0.828125
vt -0.0625 0.9375
vt -0.09375 0.9375
vt -0.09375 0.828125
vt 0.21875 0.828125
vt 0.21875 0.9375
vt 0.1875 0.9375
vt 0.1875 0.828125
vt -0.0625 0.96875
vt -0.0625 0.9375
vt 0.1875 0.9375
vt 0.1875 0.96875
vt 0.1875 0.9375
vt 0.1875 0.96875
vt 0.4375 0.96875
vt 0.4375 0.9375
vt 0.46875 0.828125
vt 0.46875 0.9375
vt 0.21875 0.9375
vt 0.21875 0.828125
vt 0.1875 0.828125
vt 0.1875 0.9375
vt -0.0625 0.9375
vt -0.0625 0.828125
vt 0.078125 0.921875
vt 0.078125 0.9375
vt 0.046875 0.9375
vt 0.046875 0.921875
vt 0.203125 0.921875
vt 0.203125 0.9375
vt 0.171875 0.9375
vt 0.171875 0.921875
vt 0.078125 0.96875
vt 0.078125 0.9375
vt 0.171875 0.9375
vt 0.171875 0.96875
vt 0.171875 0.9375
vt 0.171875 0.96875
vt 0.265625 0.96875
vt 0.265625 0.9375
vt 0.296875 0.921875
vt 0.296875 0.9375
vt 0.203125 0.9375
vt 0.203125 0.921875
vt 0.171875 0.921875
vt 0.171875 0.9375
vt 0.078125 0.9375
vt 0.078125 0.921875
vt 0.140625 0.875
vt 0.140625 0.875
vt 0.140625 0.765625
vt 0.140625 0.765625
vt 0.234375 0.875
vt 0.234375 0.875
vt 0.234375 0.765625
vt 0.234375 0.765625
vt 0.140625 0.875
vt 0.234375 0.875
vt 0.140625 0.875
vt 0.234375 0.875
vt 0.234375 0.875
vt 0.328125 0.875
vt 0.234375 0.875
vt 0.328125 0.875
vt 0.234375 0.765625
vt 0.234375 0.875
vt 0.140625 0.875
vt 0.140625 0.765625
vt 0.140625 0.875
vt 0.140625 0.875
vt 0.140625 0.765625
vt 0.140625 0.765625
vt 0.234375 0.875
vt 0.234375 0.875
vt 0.234375 0.765625
vt 0.234375 0.765625
vt 0.140625 0.875
vt 0.234375 0.875
vt 0.140625 0.875
vt 0.234375 0.875
vt 0.234375 0.875
vt 0.328125 0.875
vt 0.234375 0.875
vt 0.328125 0.875
vt 0.234375 0.765625
vt 0.234375 0.875
vt 0.140625 0.875
vt 0.140625 0.765625
vt 0.140625 0.875
vt 0.140625 0.875
vt 0.140625 0.765625
vt 0.140625 0.765625
vt 0.234375 0.875
vt 0.234375 0.875
vt 0.234375 0.765625
vt 0.234375 0.765625
vt 0.140625 0.875
vt 0.234375 0.875
vt 0.140625 0.875
vt 0.234375 0.875
vt 0.234375 0.875
vt 0.328125 0.875
vt 0.234375 0.875
vt 0.328125 0.875
vt 0.234375 0.765625
vt 0.234375 0.875
vt 0.140625 0.875
vt 0.140625 0.765625
vt 0.140625 0.875
vt 0.140625 0.875
vt 0.140625 0.765625
vt 0.140625 0.765625
vt 0.234375 0.875
vt 0.234375 0.875
vt 0.234375 0.765625
vt 0.234375 0.765625
vt 0.140625 0.875
vt 0.234375 0.875
vt 0.140625 0.875
vt 0.234375 0.875
vt 0.234375 0.875
vt 0.328125 0.875
vt 0.234375 0.875
vt 0.328125 0.875
vt 0.234375 0.765625
vt 0.234375 0.875
vt 0.140625 0.875
vt 0.140625 0.765625
vt 0.140625 0.875
vt 0.140625 0.875
vt 0.140625 0.765625
vt 0.140625 0.765625
vt 0.234375 0.875
vt 0.234375 0.875
vt 0.234375 0.765625
vt 0.234375 0.765625
vt 0.140625 0.875
vt 0.234375 0.875
vt 0.140625 0.875
vt 0.234375 0.875
vt 0.234375 0.875
vt 0.328125 0.875
vt 0.234375 0.875
vt 0.328125 0.875
vt 0.234375 0.765625
vt 0.234375 0.875
vt 0.140625 0.875
vt 0.140625 0.765625
vt 0.140625 0.875
vt 0.140625 0.875
vt 0.140625 0.765625
vt 0.140625 0.765625
vt 0.234375 0.875
vt 0.234375 0.875
vt 0.234375 0.765625
vt 0.234375 0.765625
vt 0.140625 0.875
vt 0.234375 0.875
vt 0.140625 0.875
vt 0.234375 0.875
vt 0.234375 0.875
vt 0.328125 0.875
vt 0.234375 0.875
vt 0.328125 0.875
vt 0.234375 0.765625
vt 0.234375 0.875
vt 0.140625 0.875
vt 0.140625 0.765625
vn 1 0 0
vn -1 0 0
vn 0 1 0
vn 0 -1 0
vn 0 0 1
vn 0 0 -1
vn 0 1 0
vn 0 -1 0
vn -1 0 0
vn 1 0 0
vn 0 0 1
vn 0 0 -1
vn 0 1 0
vn 0 -1 0
vn -1 0 0
vn 1 0 0
vn 0 0 1
vn 0 0 -1
vn 1 0 0
vn -1 0 0
vn 0 1 0
vn 0 -1 0
vn 0 0 1
vn 0 0 -1
vn 1 0 0
vn -1 0 0
vn 0 1 0
vn 0 -1 0
vn 0 0 1
vn 0 0 -1
vn 0 1 0
vn 0 -1 0
vn -1 0 0
vn 1 0 0
vn 0 0 1
vn 0 0 -1
vn 0 1 0
vn 0 -1 0
vn -1 0 0
vn 1 0 0
vn 0 0 1
vn 0 0 -1
vn 0 1 0
vn 0 -1 0
vn -1 0 0
vn 1 0 0
vn 0 0 1
vn 0 0 -1
vn 1 0 0
vn -1 0 0
vn 0 1 0
vn 0 -1 0
vn 0 0 1
vn 0 0 -1
vn 0 1 0
vn 0 -1 0
vn -1 0 0
vn 1 0 0
vn 0 0 1
vn 0 0 -1
vn 0 1 0
vn 0 -1 0
vn -1 0 0
vn 1 0 0
vn 0 0 1
vn 0 0 -1
vn 1 0 0
vn -1 0 0
vn 0 1 0
vn 0 -1 0
vn 0 0 1
vn 0 0 -1
vn 0 1 0
vn 0 -1 0
vn -1 0 0
vn 1 0 0
vn 0 0 1
vn 0 0 -1
vn 0 1 0
vn 0 -1 0
vn -1 0 0
vn 1 0 0
vn 0 0 1
vn 0 0 -1
vn 0 1 0
vn 0 -1 0
vn -1 0 0
vn 1 0 0
vn 0 0 1
vn 0 0 -1
vn 1 0 0
vn -1 0 0
vn 0 1 0
vn 0 -1 0
vn 0 0 1
vn 0 0 -1
vn 0 1 0
vn 0 -1 0
vn -1 0 0
vn 1 0 0
vn 0 0 1
vn 0 0 -1
vn 0 0 0
vn 0 0 0
vn 0 0 0
vn 0 0 0
vn 0 0 -1
vn 0 0 0
vn 0 0 0
vn 0 0 0
vn 0 0 0
vn 0 0 -1
vn 0 0 0
vn 0 0 0
vn 0 0 0
vn 0 0 0
vn 0 0 -1
vn 0 0 0
vn 0 0 0
vn 0 0 0
vn 0 0 0
vn 0 0 -1
vn 0 0 0
vn 0 0 0
vn 0 0 0
vn 0 0 0
vn 0 0 -1
vn 0 0 0
vn 0 0 0
vn 0 0 0
vn 0 0 0
vn 0 0 -1
g m_e77415d3-8d77-378c-fcfa-d528dd8494e4
f 4/1/1 2/2/1 1/3/1 3/4/1
f 7/5/2 5/6/2 6/7/2 8/8/2
f 1/9/3 2/10/3 6/11/3 5/12/3
f 4/13/4 3/14/4 7/15/4 8/16/4
f 3/17/5 1/18/5 5/19/5 7/20/5
f 8/21/6 6/22/6 2/23/6 4/24/6
f 12/25/7 10/26/7 9/27/7 11/28/7
f 15/29/8 13/30/8 14/31/8 16/32/8
f 9/33/9 10/34/9 14/35/9 13/36/9
f 12/37/10 11/38/10 15/39/10 16/40/10
f 11/41/11 9/42/11 13/43/11 15/44/11
f 16/45/12 14/46/12 10/47/12 12/48/12
f 20/49/13 18/50/13 17/51/13 19/52/13
f 23/53/14 21/54/14 22/55/14 24/56/14
f 17/57/15 18/58/15 22/59/15 21/60/15
f 20/61/16 19/62/16 23/63/16 24/64/16
f 19/65/17 17/66/17 21/67/17 23/68/17
f 24/69/18 22/70/18 18/71/18 20/72/18
f 28/73/19 26/74/19 25/75/19 27/76/19
f 31/77/20 29/78/20 30/79/20 32/80/20
f 25/81/21 26/82/21 30/83/21 29/84/21
f 28/85/22 27/86/22 31/87/22 32/88/22
f 27/89/23 25/90/23 29/91/23 31/92/23
f 32/93/24 30/94/24 26/95/24 28/96/24
f 36/97/25 34/98/25 33/99/25 35/100/25
f 39/101/26 37/102/26 38/103/26 40/104/26
f 33/105/27 34/106/27 38/107/27 37/108/27
f 36/109/28 35/110/28 39/111/28 40/112/28
f 35/113/29 33/114/29 37/115/29 39/116/29
f 40/117/30 38/118/30 34/119/30 36/120/30
f 44/121/31 42/122/31 41/123/31 43/124/31
f 47/125/32 45/126/32 46/127/32 48/128/32
f 41/129/33 42/130/33 46/131/33 45/132/33
f 44/133/34 43/134/34 47/135/34 48/136/34
f 43/137/35 41/138/35 45/139/35 47/140/35
f 48/141/36 46/142/36 42/143/36 44/144/36
f 52/145/37 50/146/37 49/147/37 51/148/37
f 55/149/38 53/150/38 54/151/38 56/152/38
f 49/153/39 50/154/39 54/155/39 53/156/39
f 52/157/40 51/158/40 55/159/40 56/160/40
f 51/161/41 49/162/41 53/163/41 55/164/41
f 56/165/42 54/166/42 50/167/42 52/168/42
f 60/169/43 58/170/43 57/171/43 59/172/43
f 63/173/44 61/174/44 62/175/44 64/176/44
f 57/177/45 58/178/45 62/179/45 61/180/45
f 60/181/46 59/182/46 63/183/46 64/184/46
f 59/185/47 57/186/47 61/187/47 63/188/47
f 64/189/48 62/190/48 58/191/48 60/192/48
f 68/193/49 66/194/49 65/195/49 67/196/49
f 71/197/50 69/198/50 70/199/50 72/200/50
f 65/201/51 66/202/51 70/203/51 69/204/51
f 68/205/52 67/206/52 71/207/52 72/208/52
f 67/209/53 65/210/53 69/211/53 71/212/53
f 72/213/54 70/214/54 66/215/54 68/216/54
f 76/217/55 74/218/55 73/219/55 75/220/55
f 79/221/56 77/222/56 78/223/56 80/224/56
f 73/225/57 74/226/57 78/227/57 77/228/57
f 76/229/58 75/230/58 79/231/58 80/232/58
f 75/233/59 73/234/59 77/235/59 79/236/59
f 80/237/60 78/238/60 74/239/60 76/240/60
f 84/241/61 82/242/61 81/243/61 83/244/61
f 87/245/62 85/246/62 86/247/62 88/248/62
f 81/249/63 82/250/63 86/251/63 85/252/63
f 84/253/64 83/254/64 87/255/64 88/256/64
f 83/257/65 81/258/65 85/259/65 87/260/65
f 88/261/66 86/262/66 82/263/66 84/264/66
f 92/265/67 90/266/67 89/267/67 91/268/67
f 95/269/68 93/270/68 94/271/68 96/272/68
f 89/273/69 90/274/69 94/275/69 93/276/69
f 92/277/70 91/278/70 95/279/70 96/280/70
f 91/281/71 89/282/71 93/283/71 95/284/71
f 96/285/72 94/286/72 90/287/72 92/288/72
f 100/289/73 98/290/73 97/291/73 99/292/73
f 103/293/74 101/294/74 102/295/74 104/296/74
f 97/297/75 98/298/75 102/299/75 101/300/75
f 100/301/76 99/302/76 103/303/76 104/304/76
f 99/305/77 97/306/77 101/307/77 103/308/77
f 104/309/78 102/310/78 98/311/78 100/312/78
f 108/313/79 106/314/79 105/315/79 107/316/79
f 111/317/80 109/318/80 110/319/80 112/320/80
f 105/321/81 106/322/81 110/323/81 109/324/81
f 108/325/82 107/326/82 111/327/82 112/328/82
f 107/329/83 105/330/83 109/331/83 111/332/83
f 112/333/84 110/334/84 106/335/84 108/336/84
f 116/337/85 114/338/85 113/339/85 115/340/85
f 119/341/86 117/342/86 118/343/86 120/344/86
f 113/345/87 114/346/87 118/347/87 117/348/87
f 116/349/88 115/350/88 119/351/88 120/352/88
f 115/353/89 113/354/89 117/355/89 119/356/89
f 120/357/90 118/358/90 114/359/90 116/360/90
f 124/361/91 122/362/91 121/363/91 123/364/91
f 127/365/92 125/366/92 126/367/92 128/368/92
f 121/369/93 122/370/93 126/371/93 125/372/93
f 124/373/94 123/374/94 127/375/94 128/376/94
f 123/377/95 121/378/95 125/379/95 127/380/95
f 128/381/96 126/382/96 122/383/96 124/384/96
f 132/385/97 130/386/97 129/387/97 131/388/97
f 135/389/98 133/390/98 134/391/98 136/392/98
f 129/393/99 130/394/99 134/395/99 133/396/99
f 132/397/100 131/398/100 135/399/100 136/400/100
f 131/401/101 129/402/101 133/403/101 135/404/101
f 136/405/102 134/406/102 130/407/102 132/408/102
g m_b216b534-3786-b022-012f-d30d35d754cb
f 138/409/103 137/410/103 140/411/103 139/412/103
f 141/413/104 142/414/104 143/415/104 144/416/104
f 138/417/105 142/418/105 137/419/105 141/420/105
f 139/421/106 143/422/106 140/423/106 144/424/106
f 144/425/107 142/426/107 138/427/107 140/428/107
f 146/429/108 145/430/108 148/431/108 147/432/108
f 149/433/109 150/434/109 151/435/109 152/436/109
f 146/437/110 150/438/110 145/439/110 149/440/110
f 147/441/111 151/442/111 148/443/111 152/444/111
f 152/445/112 150/446/112 146/447/112 148/448/112
f 154/449/113 153/450/113 156/451/113 155/452/113
f 157/453/114 158/454/114 159/455/114 160/456/114
f 154/457/115 158/458/115 153/459/115 157/460/115
f 155/461/116 159/462/116 156/463/116 160/464/116
f 160/465/117 158/466/117 154/467/117 156/468/117
f 162/469/118 161/470/118 164/471/118 163/472/118
f 165/473/119 166/474/119 167/475/119 168/476/119
f 162/477/120 166/478/120 161/479/120 165/480/120
f 163/481/121 167/482/121 164/483/121 168/484/121
f 168/485/122 166/486/122 162/487/122 164/488/122
f 170/489/123 169/490/123 172/491/123 171/492/123
f 173/493/124 174/494/124 175/495/124 176/496/124
f 170/497/125 174/498/125 169/499/125 173/500/125
f 171/501/126 175/502/126 172/503/126 176/504/126
f 176/505/127 174/506/127 170/507/127 172/508/127
f 178/509/128 177/510/128 180/511/128 179/512/128
f 181/513/129 182/514/129 183/515/129 184/516/129
f 178/517/130 182/518/130 177/519/130 181/520/130
f 179/521/131 183/522/131 180/523/131 184/524/131
f 184/525/132 182/526/132 178/527/132 180/528/132