# Blender v3.0.0 OBJ File: 'multidecor_kitchen_modern_wooden_table_1.blend'
# www.blender.org
o Cube
v 1.100000 1.250000 -1.100000
v 1.100000 1.000000 -1.100000
v 1.100000 1.250000 1.100000
v 1.100000 1.000000 1.100000
v -1.100000 1.250000 -1.100000
v -1.100000 1.000000 -1.100000
v -1.100000 1.250000 1.100000
v -1.100000 1.000000 1.100000
v -0.750000 -1.000000 0.750000
v -0.750000 1.000000 0.750000
v -0.750000 -1.000000 1.000000
v -0.750000 1.000000 1.000000
v -1.000000 -1.000000 0.750000
v -1.000000 1.000000 0.750000
v -1.000000 -1.000000 1.000000
v -1.000000 1.000000 1.000000
v 0.750000 -1.000000 0.750000
v 0.750000 1.000000 0.750000
v 1.000000 -1.000000 0.750000
v 1.000000 1.000000 0.750000
v 0.750000 -1.000000 1.000000
v 0.750000 1.000000 1.000000
v 1.000000 -1.000000 1.000000
v 1.000000 1.000000 1.000000
v -0.803259 0.212866 0.750000
v -0.803259 0.356348 0.750000
v -0.946741 0.212866 0.750000
v -0.946741 0.356348 0.750000
v -0.803259 0.212866 -1.100000
v -0.803259 0.356348 -1.100000
v -0.946741 0.212866 -1.100000
v -0.946741 0.356348 -1.100000
v 0.750000 0.212866 0.803259
v 0.750000 0.356348 0.803259
v 0.750000 0.212866 0.946741
v 0.750000 0.356348 0.946741
v -0.750000 0.212866 0.803259
v -0.750000 0.356348 0.803259
v -0.750000 0.212866 0.946741
v -0.750000 0.356348 0.946741
v 0.803259 0.212866 -1.100000
v 0.803259 0.356348 -1.100000
v 0.946741 0.212866 -1.100000
v 0.946741 0.356348 -1.100000
v 0.803259 0.212866 0.750000
v 0.803259 0.356348 0.750000
v 0.946741 0.212866 0.750000
v 0.946741 0.356348 0.750000
vt 0.042908 0.418395
vt 0.042908 0.042908
vt 0.418395 0.042908
vt 0.418395 0.418395
vt 0.461064 0.418395
vt 0.461064 0.042908
vt 0.418395 0.000239
vt 0.042908 0.000239
vt 0.836551 0.042908
vt 0.836551 0.418395
vt 0.042908 0.461064
vt 0.418395 0.461064
vt 0.000239 0.042908
vt 0.000239 0.418395
vt 0.732061 0.494045
vt 0.733355 0.717556
vt 0.708866 0.717556
vt 0.708776 0.494045
vt 0.684377 0.717556
vt 0.685490 0.494045
vt 0.778633 0.494045
vt 0.782333 0.717556
vt 0.757843 0.717556
vt 0.755347 0.494045
vt 0.727524 0.760703
vt 0.727524 0.718034
vt 0.770193 0.718034
vt 0.770193 0.760703
vt 0.732061 0.494045
vt 0.733355 0.717556
vt 0.708866 0.717556
vt 0.708776 0.494045
vt 0.684377 0.717556
vt 0.685490 0.494045
vt 0.778633 0.494045
vt 0.782333 0.717556
vt 0.757843 0.717556
vt 0.755347 0.494045
vt 0.813340 0.803850
vt 0.770671 0.803850
vt 0.770671 0.761181
vt 0.813340 0.761181
vt 0.732062 0.743503
vt 0.708177 0.743503
vt 0.708177 0.435539
vt 0.732061 0.435539
vt 0.755946 0.435539
vt 0.779831 0.435539
vt 0.779831 0.743503
vt 0.755947 0.743503
vt 0.684292 0.743503
vt 0.684292 0.435539
vt 0.755347 0.494045
vt 0.778633 0.494045
vt 0.782333 0.717556
vt 0.757844 0.717556
vt 0.733355 0.717556
vt 0.708866 0.717556
vt 0.708776 0.494045
vt 0.732061 0.494045
vt 0.684377 0.717556
vt 0.685490 0.494045
vt 0.732062 0.743503
vt 0.708177 0.743503
vt 0.708177 0.435539
vt 0.732061 0.435539
vt 0.755946 0.435539
vt 0.779831 0.435539
vt 0.779831 0.743503
vt 0.755947 0.743503
vt 0.684292 0.743503
vt 0.684292 0.435539
vn 0.0000 1.0000 0.0000
vn 0.0000 0.0000 1.0000
vn -1.0000 0.0000 0.0000
vn 0.0000 -1.0000 0.0000
vn 1.0000 0.0000 0.0000
vn 0.0000 0.0000 -1.0000
s off
f 1/1/1 5/2/1 7/3/1 3/4/1
f 4/5/2 3/4/2 7/3/2 8/6/2
f 8/7/3 7/3/3 5/2/3 6/8/3
f 6/9/4 2/10/4 4/5/4 8/6/4
f 2/11/5 1/1/5 3/4/5 4/12/5
f 6/13/6 5/2/6 1/1/6 2/14/6
f 9/15/5 10/16/5 12/17/5 11/18/5
f 11/18/2 12/17/2 16/19/2 15/20/2
f 15/21/3 16/22/3 14/23/3 13/24/3
f 13/24/6 14/23/6 10/16/6 9/15/6
f 11/25/4 15/26/4 13/27/4 9/28/4
f 17/29/6 18/30/6 20/31/6 19/32/6
f 19/32/5 20/31/5 24/33/5 23/34/5
f 23/35/2 24/36/2 22/37/2 21/38/2
f 21/38/3 22/37/3 18/30/3 17/29/3
f 19/39/4 23/40/4 21/41/4 17/42/4
f 27/43/3 28/44/3 32/45/3 31/46/3
f 29/47/5 30/48/5 26/49/5 25/50/5
f 27/43/4 31/46/4 29/47/4 25/50/4
f 32/45/1 28/44/1 26/51/1 30/52/1
f 35/53/2 36/54/2 40/55/2 39/56/2
f 37/57/6 38/58/6 34/59/6 33/60/6
f 35/53/4 39/56/4 37/57/4 33/60/4
f 40/61/1 36/62/1 34/59/1 38/58/1
f 43/63/5 44/64/5 48/65/5 47/66/5
f 45/67/3 46/68/3 42/69/3 41/70/3
f 43/63/4 47/66/4 45/67/4 41/70/4
f 48/65/1 44/64/1 42/71/1 46/72/1
f 43/63/6 41/70/6 42/71/6 44/64/6
f 31/46/6 32/45/6 30/48/6 29/47/6
