# Converted from B3D for Luanti (With Correct Normals)
# Object Name: multidecor_bathroom_tap_with_side_flaps

v -0.049497 -0.489313 0.043961
v -0.070000 -0.489313 0.093459
v -0.070000 -0.374313 0.093459
v -0.049497 -0.374313 0.043961
v -0.049497 -0.489313 0.043961
v -0.070000 -0.374313 0.093459
v -0.050471 -0.423407 -0.026541
v -0.071376 -0.372937 0.666212
v -0.071376 -0.372937 -0.026541
v -0.050471 -0.423407 0.666212
v -0.071376 -0.372937 0.666212
v -0.050471 -0.423407 -0.026541
v 0.000000 -0.444313 -0.026541
v -0.050471 -0.423407 0.666212
v -0.050471 -0.423407 -0.026541
v -0.000000 -0.444313 0.666212
v -0.050471 -0.423407 0.666212
v 0.000000 -0.444313 -0.026541
v -0.000000 -0.489313 0.163459
v 0.049497 -0.489313 0.142956
v 0.049497 -0.374313 0.142956
v -0.000000 -0.374313 0.163459
v -0.000000 -0.489313 0.163459
v 0.049497 -0.374313 0.142956
v 0.050471 -0.423407 -0.026541
v -0.000000 -0.444313 0.666212
v 0.000000 -0.444313 -0.026541
v 0.050471 -0.423407 0.666212
v -0.000000 -0.444313 0.666212
v 0.050471 -0.423407 -0.026541
v -0.070000 -0.489313 0.093459
v -0.049497 -0.489313 0.142956
v -0.049497 -0.374313 0.142956
v -0.070000 -0.374313 0.093459
v -0.070000 -0.489313 0.093459
v -0.049497 -0.374313 0.142956
v 0.071377 -0.372937 -0.026541
v 0.050471 -0.423407 0.666212
v 0.050471 -0.423407 -0.026541
v 0.071376 -0.372937 0.666212
v 0.050471 -0.423407 0.666212
v 0.071377 -0.372937 -0.026541
v -0.049497 -0.489313 0.142956
v 0.070000 -0.489313 0.093459
v -0.000000 -0.489313 0.163459
v -0.070000 -0.489313 0.093459
v 0.070000 -0.489313 0.093459
v -0.049497 -0.489313 0.142956
v 0.049497 -0.489313 0.142956
v 0.070000 -0.489313 0.093459
v 0.070000 -0.374313 0.093459
v 0.049497 -0.374313 0.142956
v 0.049497 -0.489313 0.142956
v 0.070000 -0.374313 0.093459
v -0.049497 -0.489313 0.142956
v -0.000000 -0.489313 0.163459
v -0.000000 -0.374313 0.163459
v -0.049497 -0.374313 0.142956
v -0.049497 -0.489313 0.142956
v -0.000000 -0.374313 0.163459
v 0.000000 -0.489313 0.023459
v -0.049497 -0.489313 0.043961
v -0.049497 -0.374313 0.043961
v 0.000000 -0.374313 0.023459
v 0.000000 -0.489313 0.023459
v -0.049497 -0.374313 0.043961
v 0.049497 -0.489313 0.043961
v 0.000000 -0.489313 0.023459
v 0.000000 -0.374313 0.023459
v 0.049497 -0.374313 0.043961
v 0.049497 -0.489313 0.043961
v 0.000000 -0.374313 0.023459
v 0.070000 -0.489313 0.093459
v 0.049497 -0.489313 0.043961
v 0.049497 -0.374313 0.043961
v 0.070000 -0.374313 0.093459
v 0.070000 -0.489313 0.093459
v 0.049497 -0.374313 0.043961
v -0.049497 -0.489313 0.043961
v 0.070000 -0.489313 0.093459
v -0.070000 -0.489313 0.093459
v 0.071377 -0.372937 -0.026541
v 0.000000 -0.444313 -0.026541
v -0.071376 -0.372937 -0.026541
v 0.071376 -0.322937 0.666212
v 0.071377 -0.322937 -0.026541
v -0.071376 -0.322937 -0.026541
v -0.071376 -0.322937 0.666212
v 0.071376 -0.372937 0.666212
v 0.071377 -0.372937 -0.026541
v 0.071377 -0.322937 -0.026541
v 0.071376 -0.322937 0.666212
v -0.071376 -0.372937 -0.026541
v -0.071376 -0.372937 0.666212
v -0.071376 -0.322937 0.666212
v -0.071376 -0.322937 -0.026541
v -0.000000 -0.489313 0.163459
v 0.070000 -0.489313 0.093459
v 0.049497 -0.489313 0.142956
v 0.070000 -0.489313 0.093459
v 0.000000 -0.489313 0.023459
v 0.049497 -0.489313 0.043961
v 0.000000 -0.489313 0.023459
v 0.070000 -0.489313 0.093459
v -0.049497 -0.489313 0.043961
v 0.071377 -0.372937 -0.026541
v 0.050471 -0.423407 -0.026541
v 0.000000 -0.444313 -0.026541
v 0.000000 -0.444313 -0.026541
v -0.050471 -0.423407 -0.026541
v -0.071376 -0.372937 -0.026541
v -0.071376 -0.372937 -0.026541
v -0.071376 -0.322937 -0.026541
v 0.071377 -0.322937 -0.026541
v 0.071377 -0.322937 -0.026541
v 0.071377 -0.372937 -0.026541
v -0.071376 -0.372937 -0.026541
v 0.215551 -0.112671 0.900599
v 0.270886 -0.112671 0.900599
v 0.308703 -0.203968 0.900599
v 0.269575 -0.243095 0.900599
v 0.400000 -0.297119 1.050599
v 0.215551 -0.112671 1.050599
v 0.269575 -0.243095 1.050599
v 0.530425 -0.243095 0.900599
v 0.530425 -0.243095 1.050599
v 0.400000 -0.297119 1.050599
v 0.400000 -0.297119 0.900599
v 0.215551 -0.112671 0.900599
v 0.215551 -0.112671 1.050599
v 0.269575 0.017754 1.050599
v 0.269575 0.017754 0.900599
v 0.530425 0.017754 0.900599
v 0.530425 0.017754 1.050599
v 0.584449 -0.112671 1.050599
v 0.584449 -0.112671 0.900599
v 0.400000 0.071778 0.900599
v 0.400000 0.071778 1.050599
v 0.530425 0.017754 1.050599
v 0.530425 0.017754 0.900599
v 0.269575 -0.243095 0.900599
v 0.269575 -0.243095 1.050599
v 0.215551 -0.112671 1.050599
v 0.215551 -0.112671 0.900599
v 0.400000 -0.297119 0.900599
v 0.400000 -0.297119 1.050599
v 0.269575 -0.243095 1.050599
v 0.269575 -0.243095 0.900599
v 0.584449 -0.112671 0.900599
v 0.584449 -0.112671 1.050599
v 0.530425 -0.243095 1.050599
v 0.530425 -0.243095 0.900599
v 0.269575 0.017754 0.900599
v 0.269575 0.017754 1.050599
v 0.400000 0.071778 1.050599
v 0.400000 0.071778 0.900599
v 0.530425 -0.243095 0.900599
v 0.491297 -0.203968 0.900599
v 0.529114 -0.112671 0.900599
v 0.584449 -0.112671 0.900599
v 0.400000 0.071778 0.900599
v 0.400000 0.016444 0.900599
v 0.308703 -0.021373 0.900599
v 0.269575 0.017754 0.900599
v 0.269575 0.017754 0.900599
v 0.308703 -0.021373 0.900599
v 0.270886 -0.112671 0.900599
v 0.215551 -0.112671 0.900599
v 0.530425 0.017754 0.900599
v 0.491297 -0.021373 0.900599
v 0.400000 0.016444 0.900599
v 0.400000 0.071778 0.900599
v 0.269575 -0.243095 0.900599
v 0.308703 -0.203968 0.900599
v 0.400000 -0.241785 0.900599
v 0.400000 -0.297119 0.900599
v 0.215551 -0.112671 1.050599
v 0.400000 0.071778 1.050599
v 0.269575 0.017754 1.050599
v 0.400000 0.071778 1.050599
v 0.215551 -0.112671 1.050599
v 0.530425 0.017754 1.050599
v 0.530425 0.017754 1.050599
v 0.215551 -0.112671 1.050599
v 0.584449 -0.112671 1.050599
v 0.584449 -0.112671 1.050599
v 0.215551 -0.112671 1.050599
v 0.530425 -0.243095 1.050599
v 0.530425 -0.243095 1.050599
v 0.215551 -0.112671 1.050599
v 0.400000 -0.297119 1.050599
v 0.451646 -0.112671 0.511280
v 0.436519 -0.076152 0.511280
v 0.436519 -0.076152 0.411280
v 0.451646 -0.112671 0.411280
v 0.436519 -0.149189 0.511280
v 0.451646 -0.112671 0.511280
v 0.451646 -0.112671 0.411280
v 0.436519 -0.149189 0.411280
v 0.400000 -0.164316 0.511280
v 0.436519 -0.149189 0.511280
v 0.436519 -0.149189 0.411280
v 0.400000 -0.164316 0.411280
v 0.348354 -0.112671 0.511280
v 0.363481 -0.149190 0.511280
v 0.363481 -0.149190 0.411280
v 0.348354 -0.112671 0.411280
v 0.436519 -0.076152 0.511280
v 0.400000 -0.061025 0.511280
v 0.400000 -0.061025 0.411280
v 0.436519 -0.076152 0.411280
v 0.308703 -0.071249 0.640569
v 0.000000 -0.071249 0.640569
v 0.000000 -0.041960 0.711280
v 0.308703 -0.041960 0.711280
v 0.308703 -0.141960 0.611280
v 0.000000 -0.141960 0.611280
v 0.000000 -0.071249 0.640569
v 0.308703 -0.071249 0.640569
v 0.308703 -0.212670 0.640569
v 0.000000 -0.212670 0.640569
v 0.000000 -0.141960 0.611280
v 0.308703 -0.141960 0.611280
v 0.308703 -0.241960 0.711280
v 0.000000 -0.241960 0.711280
v 0.000000 -0.212670 0.640569
v 0.308703 -0.212670 0.640569
v 0.308703 -0.212670 0.781991
v 0.000000 -0.212670 0.781991
v 0.000000 -0.241960 0.711280
v 0.308703 -0.241960 0.711280
v 0.308703 -0.141960 0.811280
v 0.000000 -0.141960 0.811280
v 0.000000 -0.212670 0.781991
v 0.308703 -0.212670 0.781991
v 0.000000 -0.444313 0.811280
v 0.000000 -0.141960 0.811280
v -0.070711 -0.141960 0.781991
v -0.070711 -0.444313 0.781991
v -0.070711 -0.444313 0.781991
v -0.070711 -0.141960 0.781991
v -0.100000 -0.141960 0.711280
v -0.100000 -0.444313 0.711280
v -0.100000 -0.444313 0.711280
v -0.100000 -0.141960 0.711280
v -0.070711 -0.141960 0.640569
v -0.070711 -0.444313 0.640569
v -0.070711 -0.444313 0.640569
v -0.070711 -0.141960 0.640569
v 0.000000 -0.141960 0.611280
v 0.000000 -0.444313 0.611280
v 0.000000 -0.444313 0.611280
v 0.000000 -0.141960 0.611280
v 0.070711 -0.141960 0.640569
v 0.070711 -0.444313 0.640569
v 0.070711 -0.444313 0.640569
v 0.070711 -0.141960 0.640569
v 0.100000 -0.141960 0.711280
v 0.100000 -0.444313 0.711280
v 0.100000 -0.444313 0.711280
v 0.100000 -0.141960 0.711280
v 0.070711 -0.141960 0.781991
v 0.070711 -0.444313 0.781991
v 0.070711 -0.444313 0.781991
v 0.070711 -0.141960 0.781991
v 0.000000 -0.141960 0.811280
v 0.000000 -0.444313 0.811280
v -0.070711 -0.444313 0.640569
v 0.070711 -0.444313 0.640569
v 0.070711 -0.444313 0.781991
v 0.491297 -0.203968 0.900599
v 0.491297 -0.203968 0.511280
v 0.529114 -0.112671 0.511280
v 0.529114 -0.112671 0.900599
v 0.400000 0.016444 0.900599
v 0.400000 0.016444 0.511280
v 0.308703 -0.021373 0.511280
v 0.308703 -0.021373 0.900599
v 0.308703 -0.021373 0.900599
v 0.308703 -0.021373 0.511280
v 0.270886 -0.112671 0.511280
v 0.270886 -0.112671 0.900599
v 0.491297 -0.021373 0.900599
v 0.491297 -0.021373 0.511280
v 0.400000 0.016444 0.511280
v 0.400000 0.016444 0.900599
v 0.308703 -0.203968 0.900599
v 0.308703 -0.203968 0.511280
v 0.400000 -0.241785 0.511280
v 0.400000 -0.241785 0.900599
v 0.400000 -0.241785 0.900599
v 0.400000 -0.241785 0.511280
v 0.491297 -0.203968 0.511280
v 0.491297 -0.203968 0.900599
v 0.584449 -0.112671 0.900599
v 0.529114 -0.112671 0.900599
v 0.491297 -0.021373 0.900599
v 0.530425 0.017754 0.900599
v 0.400000 -0.297119 0.900599
v 0.400000 -0.241785 0.900599
v 0.491297 -0.203968 0.900599
v 0.530425 -0.243095 0.900599
v 0.363481 -0.076152 0.511280
v 0.348354 -0.112671 0.511280
v 0.348354 -0.112671 0.411280
v 0.363481 -0.076152 0.411280
v 0.363481 -0.149190 0.511280
v 0.400000 -0.164316 0.511280
v 0.400000 -0.164316 0.411280
v 0.363481 -0.149190 0.411280
v 0.400000 -0.061025 0.511280
v 0.363481 -0.076152 0.511280
v 0.363481 -0.076152 0.411280
v 0.400000 -0.061025 0.411280
v 0.070711 -0.444313 0.781991
v 0.000000 -0.444313 0.811280
v -0.070711 -0.444313 0.781991
v -0.070711 -0.444313 0.781991
v -0.100000 -0.444313 0.711280
v -0.070711 -0.444313 0.640569
v 0.308703 -0.203968 0.511280
v 0.491297 -0.021373 0.511280
v 0.491297 -0.203968 0.511280
v 0.270886 -0.112671 0.900599
v 0.270886 -0.112671 0.511280
v 0.308703 -0.203968 0.511280
v 0.308703 -0.203968 0.900599
v 0.529114 -0.112671 0.900599
v 0.529114 -0.112671 0.511280
v 0.491297 -0.021373 0.511280
v 0.491297 -0.021373 0.900599
v 0.308703 -0.041960 0.711280
v 0.000000 -0.041960 0.711280
v 0.000000 -0.071249 0.781991
v 0.308703 -0.071249 0.781991
v 0.308703 -0.071249 0.781991
v 0.000000 -0.071249 0.781991
v 0.000000 -0.141960 0.811280
v 0.308703 -0.141960 0.811280
v 0.354745 -0.016504 0.339280
v 0.290398 0.060571 0.330280
v 0.290398 0.060571 0.420280
v 0.354745 -0.016504 0.411280
v 0.354745 -0.016504 0.411280
v 0.290398 0.060571 0.420280
v 0.226759 -0.003069 0.420280
v 0.303833 -0.067416 0.411280
v 0.303833 -0.067416 0.411280
v 0.226759 -0.003069 0.420280
v 0.226759 -0.003069 0.330280
v 0.303833 -0.067416 0.339280
v 0.303833 -0.067416 0.339280
v 0.226759 -0.003069 0.330280
v 0.290398 0.060571 0.330280
v 0.354745 -0.016504 0.339280
v 0.573241 -0.222272 0.420280
v 0.509602 -0.285912 0.420280
v 0.509602 -0.285912 0.330280
v 0.573241 -0.222272 0.330280
v 0.226759 -0.003069 0.420280
v 0.290398 0.060571 0.420280
v 0.290398 0.060571 0.330280
v 0.226759 -0.003069 0.330280
v 0.509602 -0.285912 0.330280
v 0.445255 -0.208837 0.339280
v 0.496166 -0.157925 0.339280
v 0.573241 -0.222272 0.330280
v 0.445255 -0.208837 0.339280
v 0.303833 -0.067416 0.339280
v 0.354745 -0.016504 0.339280
v 0.496166 -0.157925 0.339280
v 0.509602 -0.285912 0.420280
v 0.445255 -0.208837 0.411280
v 0.445255 -0.208837 0.339280
v 0.509602 -0.285912 0.330280
v 0.445255 -0.208837 0.411280
v 0.303833 -0.067416 0.411280
v 0.303833 -0.067416 0.339280
v 0.445255 -0.208837 0.339280
v 0.573241 -0.222272 0.420280
v 0.496166 -0.157925 0.411280
v 0.445255 -0.208837 0.411280
v 0.509602 -0.285912 0.420280
v 0.496166 -0.157925 0.411280
v 0.354745 -0.016504 0.411280
v 0.303833 -0.067416 0.411280
v 0.445255 -0.208837 0.411280
v 0.573241 -0.222272 0.330280
v 0.496166 -0.157925 0.339280
v 0.496166 -0.157925 0.411280
v 0.573241 -0.222272 0.420280
v 0.496166 -0.157925 0.339280
v 0.354745 -0.016504 0.339280
v 0.354745 -0.016504 0.411280
v 0.496166 -0.157925 0.411280
v 0.303833 -0.157925 0.339280
v 0.226759 -0.222272 0.330280
v 0.226759 -0.222272 0.420280
v 0.303833 -0.157925 0.411280
v 0.303833 -0.157925 0.411280
v 0.226759 -0.222272 0.420280
v 0.290398 -0.285912 0.420280
v 0.354745 -0.208837 0.411280
v 0.354745 -0.208837 0.411280
v 0.290398 -0.285912 0.420280
v 0.290398 -0.285912 0.330280
v 0.354745 -0.208837 0.339280
v 0.354745 -0.208837 0.339280
v 0.290398 -0.285912 0.330280
v 0.226759 -0.222272 0.330280
v 0.303833 -0.157925 0.339280
v 0.509602 0.060571 0.420280
v 0.573241 -0.003069 0.420280
v 0.573241 -0.003069 0.330280
v 0.509602 0.060571 0.330280
v 0.290398 -0.285912 0.420280
v 0.226759 -0.222272 0.420280
v 0.226759 -0.222272 0.330280
v 0.290398 -0.285912 0.330280
v 0.573241 -0.003069 0.330280
v 0.496166 -0.067416 0.339280
v 0.445255 -0.016504 0.339280
v 0.509602 0.060571 0.330280
v 0.496166 -0.067416 0.339280
v 0.354745 -0.208837 0.339280
v 0.303833 -0.157925 0.339280
v 0.445255 -0.016504 0.339280
v 0.573241 -0.003069 0.420280
v 0.496166 -0.067416 0.411280
v 0.496166 -0.067416 0.339280
v 0.573241 -0.003069 0.330280
v 0.496166 -0.067416 0.411280
v 0.354745 -0.208837 0.411280
v 0.354745 -0.208837 0.339280
v 0.496166 -0.067416 0.339280
v 0.509602 0.060571 0.420280
v 0.445255 -0.016504 0.411280
v 0.496166 -0.067416 0.411280
v 0.573241 -0.003069 0.420280
v 0.445255 -0.016504 0.411280
v 0.303833 -0.157925 0.411280
v 0.354745 -0.208837 0.411280
v 0.496166 -0.067416 0.411280
v 0.509602 0.060571 0.330280
v 0.445255 -0.016504 0.339280
v 0.445255 -0.016504 0.411280
v 0.509602 0.060571 0.420280
v 0.445255 -0.016504 0.339280
v 0.303833 -0.157925 0.339280
v 0.303833 -0.157925 0.411280
v 0.445255 -0.016504 0.411280
v -0.070711 -0.444313 0.640569
v 0.000000 -0.444313 0.611280
v 0.070711 -0.444313 0.640569
v 0.070711 -0.444313 0.640569
v 0.100000 -0.444313 0.711280
v 0.070711 -0.444313 0.781991
v 0.070711 -0.444313 0.781991
v -0.070711 -0.444313 0.781991
v -0.070711 -0.444313 0.640569
v 0.491297 -0.021373 0.511280
v 0.308703 -0.021373 0.511280
v 0.400000 0.016444 0.511280
v 0.308703 -0.021373 0.511280
v 0.491297 -0.021373 0.511280
v 0.270886 -0.112671 0.511280
v 0.270886 -0.112671 0.511280
v 0.491297 -0.021373 0.511280
v 0.308703 -0.203968 0.511280
v 0.308703 -0.203968 0.511280
v 0.491297 -0.203968 0.511280
v 0.400000 -0.241785 0.511280
v 0.491297 -0.203968 0.511280
v 0.491297 -0.021373 0.511280
v 0.529114 -0.112671 0.511280
v -0.215551 -0.112671 0.900599
v -0.269575 -0.243095 0.900599
v -0.308703 -0.203968 0.900599
v -0.270886 -0.112671 0.900599
v -0.400000 -0.297119 1.050599
v -0.269575 -0.243095 1.050599
v -0.215551 -0.112671 1.050599
v -0.530425 -0.243095 0.900599
v -0.400000 -0.297119 0.900599
v -0.400000 -0.297119 1.050599
v -0.530425 -0.243095 1.050599
v -0.215551 -0.112671 0.900599
v -0.269575 0.017754 0.900599
v -0.269575 0.017754 1.050599
v -0.215551 -0.112671 1.050599
v -0.530425 0.017754 0.900599
v -0.584449 -0.112671 0.900599
v -0.584449 -0.112671 1.050599
v -0.530425 0.017754 1.050599
v -0.400000 0.071778 0.900599
v -0.530425 0.017754 0.900599
v -0.530425 0.017754 1.050599
v -0.400000 0.071778 1.050599
v -0.269575 -0.243095 0.900599
v -0.215551 -0.112671 0.900599
v -0.215551 -0.112671 1.050599
v -0.269575 -0.243095 1.050599
v -0.400000 -0.297119 0.900599
v -0.269575 -0.243095 0.900599
v -0.269575 -0.243095 1.050599
v -0.400000 -0.297119 1.050599
v -0.584449 -0.112671 0.900599
v -0.530425 -0.243095 0.900599
v -0.530425 -0.243095 1.050599
v -0.584449 -0.112671 1.050599
v -0.269575 0.017754 0.900599
v -0.400000 0.071778 0.900599
v -0.400000 0.071778 1.050599
v -0.269575 0.017754 1.050599
v -0.530425 -0.243095 0.900599
v -0.584449 -0.112671 0.900599
v -0.529114 -0.112671 0.900599
v -0.491297 -0.203968 0.900599
v -0.400000 0.071778 0.900599
v -0.269575 0.017754 0.900599
v -0.308703 -0.021373 0.900599
v -0.400000 0.016444 0.900599
v -0.269575 0.017754 0.900599
v -0.215551 -0.112671 0.900599
v -0.270886 -0.112671 0.900599
v -0.308703 -0.021373 0.900599
v -0.530425 0.017754 0.900599
v -0.400000 0.071778 0.900599
v -0.400000 0.016444 0.900599
v -0.491297 -0.021373 0.900599
v -0.269575 -0.243095 0.900599
v -0.400000 -0.297119 0.900599
v -0.400000 -0.241785 0.900599
v -0.308703 -0.203968 0.900599
v -0.215551 -0.112671 1.050599
v -0.269575 0.017754 1.050599
v -0.400000 0.071778 1.050599
v -0.400000 0.071778 1.050599
v -0.530425 0.017754 1.050599
v -0.215551 -0.112671 1.050599
v -0.530425 0.017754 1.050599
v -0.584449 -0.112671 1.050599
v -0.215551 -0.112671 1.050599
v -0.584449 -0.112671 1.050599
v -0.530425 -0.243095 1.050599
v -0.215551 -0.112671 1.050599
v -0.530425 -0.243095 1.050599
v -0.400000 -0.297119 1.050599
v -0.215551 -0.112671 1.050599
v -0.451646 -0.112671 0.511280
v -0.451646 -0.112671 0.411280
v -0.436519 -0.076152 0.411280
v -0.436519 -0.076152 0.511280
v -0.436519 -0.149189 0.511280
v -0.436519 -0.149189 0.411280
v -0.451646 -0.112671 0.411280
v -0.451646 -0.112671 0.511280
v -0.400000 -0.164316 0.511280
v -0.400000 -0.164316 0.411280
v -0.436519 -0.149189 0.411280
v -0.436519 -0.149189 0.511280
v -0.348354 -0.112671 0.511280
v -0.348354 -0.112671 0.411280
v -0.363481 -0.149190 0.411280
v -0.363481 -0.149190 0.511280
v -0.436519 -0.076152 0.511280
v -0.436519 -0.076152 0.411280
v -0.400000 -0.061025 0.411280
v -0.400000 -0.061025 0.511280
v -0.308703 -0.071249 0.640569
v -0.308703 -0.041960 0.711280
v 0.000000 -0.041960 0.711280
v 0.000000 -0.071249 0.640569
v -0.308703 -0.141960 0.611280
v -0.308703 -0.071249 0.640569
v 0.000000 -0.071249 0.640569
v 0.000000 -0.141960 0.611280
v -0.308703 -0.212670 0.640569
v -0.308703 -0.141960 0.611280
v 0.000000 -0.141960 0.611280
v 0.000000 -0.212670 0.640569
v -0.308703 -0.241960 0.711280
v -0.308703 -0.212670 0.640569
v 0.000000 -0.212670 0.640569
v 0.000000 -0.241960 0.711280
v -0.308703 -0.212670 0.781991
v -0.308703 -0.241960 0.711280
v 0.000000 -0.241960 0.711280
v 0.000000 -0.212670 0.781991
v -0.308703 -0.141960 0.811280
v -0.308703 -0.212670 0.781991
v 0.000000 -0.212670 0.781991
v 0.000000 -0.141960 0.811280
v -0.491297 -0.203968 0.900599
v -0.529114 -0.112671 0.900599
v -0.529114 -0.112671 0.511280
v -0.491297 -0.203968 0.511280
v -0.400000 0.016444 0.900599
v -0.308703 -0.021373 0.900599
v -0.308703 -0.021373 0.511280
v -0.400000 0.016444 0.511280
v -0.308703 -0.021373 0.900599
v -0.270886 -0.112671 0.900599
v -0.270886 -0.112671 0.511280
v -0.308703 -0.021373 0.511280
v -0.491297 -0.021373 0.900599
v -0.400000 0.016444 0.900599
v -0.400000 0.016444 0.511280
v -0.491297 -0.021373 0.511280
v -0.308703 -0.203968 0.900599
v -0.400000 -0.241785 0.900599
v -0.400000 -0.241785 0.511280
v -0.308703 -0.203968 0.511280
v -0.400000 -0.241785 0.900599
v -0.491297 -0.203968 0.900599
v -0.491297 -0.203968 0.511280
v -0.400000 -0.241785 0.511280
v -0.584449 -0.112671 0.900599
v -0.530425 0.017754 0.900599
v -0.491297 -0.021373 0.900599
v -0.529114 -0.112671 0.900599
v -0.400000 -0.297119 0.900599
v -0.530425 -0.243095 0.900599
v -0.491297 -0.203968 0.900599
v -0.400000 -0.241785 0.900599
v -0.363481 -0.076152 0.511280
v -0.363481 -0.076152 0.411280
v -0.348354 -0.112671 0.411280
v -0.348354 -0.112671 0.511280
v -0.363481 -0.149190 0.511280
v -0.363481 -0.149190 0.411280
v -0.400000 -0.164316 0.411280
v -0.400000 -0.164316 0.511280
v -0.400000 -0.061025 0.511280
v -0.400000 -0.061025 0.411280
v -0.363481 -0.076152 0.411280
v -0.363481 -0.076152 0.511280
v -0.308703 -0.203968 0.511280
v -0.491297 -0.203968 0.511280
v -0.491297 -0.021373 0.511280
v -0.270886 -0.112671 0.900599
v -0.308703 -0.203968 0.900599
v -0.308703 -0.203968 0.511280
v -0.270886 -0.112671 0.511280
v -0.529114 -0.112671 0.900599
v -0.491297 -0.021373 0.900599
v -0.491297 -0.021373 0.511280
v -0.529114 -0.112671 0.511280
v -0.308703 -0.041960 0.711280
v -0.308703 -0.071249 0.781991
v 0.000000 -0.071249 0.781991
v 0.000000 -0.041960 0.711280
v -0.308703 -0.071249 0.781991
v -0.308703 -0.141960 0.811280
v 0.000000 -0.141960 0.811280
v 0.000000 -0.071249 0.781991
v -0.354745 -0.016504 0.339280
v -0.354745 -0.016504 0.411280
v -0.290398 0.060571 0.420280
v -0.290398 0.060571 0.330280
v -0.354745 -0.016504 0.411280
v -0.303833 -0.067416 0.411280
v -0.226759 -0.003069 0.420280
v -0.290398 0.060571 0.420280
v -0.303833 -0.067416 0.411280
v -0.303833 -0.067416 0.339280
v -0.226759 -0.003069 0.330280
v -0.226759 -0.003069 0.420280
v -0.303833 -0.067416 0.339280
v -0.354745 -0.016504 0.339280
v -0.290398 0.060571 0.330280
v -0.226759 -0.003069 0.330280
v -0.573241 -0.222272 0.420280
v -0.573241 -0.222272 0.330280
v -0.509602 -0.285912 0.330280
v -0.509602 -0.285912 0.420280
v -0.226759 -0.003069 0.420280
v -0.226759 -0.003069 0.330280
v -0.290398 0.060571 0.330280
v -0.290398 0.060571 0.420280
v -0.509602 -0.285912 0.330280
v -0.573241 -0.222272 0.330280
v -0.496166 -0.157925 0.339280
v -0.445255 -0.208837 0.339280
v -0.445255 -0.208837 0.339280
v -0.496166 -0.157925 0.339280
v -0.354745 -0.016504 0.339280
v -0.303833 -0.067416 0.339280
v -0.509602 -0.285912 0.420280
v -0.509602 -0.285912 0.330280
v -0.445255 -0.208837 0.339280
v -0.445255 -0.208837 0.411280
v -0.445255 -0.208837 0.411280
v -0.445255 -0.208837 0.339280
v -0.303833 -0.067416 0.339280
v -0.303833 -0.067416 0.411280
v -0.573241 -0.222272 0.420280
v -0.509602 -0.285912 0.420280
v -0.445255 -0.208837 0.411280
v -0.496166 -0.157925 0.411280
v -0.496166 -0.157925 0.411280
v -0.445255 -0.208837 0.411280
v -0.303833 -0.067416 0.411280
v -0.354745 -0.016504 0.411280
v -0.573241 -0.222272 0.330280
v -0.573241 -0.222272 0.420280
v -0.496166 -0.157925 0.411280
v -0.496166 -0.157925 0.339280
v -0.496166 -0.157925 0.339280
v -0.496166 -0.157925 0.411280
v -0.354745 -0.016504 0.411280
v -0.354745 -0.016504 0.339280
v -0.303833 -0.157925 0.339280
v -0.303833 -0.157925 0.411280
v -0.226759 -0.222272 0.420280
v -0.226759 -0.222272 0.330280
v -0.303833 -0.157925 0.411280
v -0.354745 -0.208837 0.411280
v -0.290398 -0.285912 0.420280
v -0.226759 -0.222272 0.420280
v -0.354745 -0.208837 0.411280
v -0.354745 -0.208837 0.339280
v -0.290398 -0.285912 0.330280
v -0.290398 -0.285912 0.420280
v -0.354745 -0.208837 0.339280
v -0.303833 -0.157925 0.339280
v -0.226759 -0.222272 0.330280
v -0.290398 -0.285912 0.330280
v -0.509602 0.060571 0.420280
v -0.509602 0.060571 0.330280
v -0.573241 -0.003069 0.330280
v -0.573241 -0.003069 0.420280
v -0.290398 -0.285912 0.420280
v -0.290398 -0.285912 0.330280
v -0.226759 -0.222272 0.330280
v -0.226759 -0.222272 0.420280
v -0.573241 -0.003069 0.330280
v -0.509602 0.060571 0.330280
v -0.445255 -0.016504 0.339280
v -0.496166 -0.067416 0.339280
v -0.496166 -0.067416 0.339280
v -0.445255 -0.016504 0.339280
v -0.303833 -0.157925 0.339280
v -0.354745 -0.208837 0.339280
v -0.573241 -0.003069 0.420280
v -0.573241 -0.003069 0.330280
v -0.496166 -0.067416 0.339280
v -0.496166 -0.067416 0.411280
v -0.496166 -0.067416 0.411280
v -0.496166 -0.067416 0.339280
v -0.354745 -0.208837 0.339280
v -0.354745 -0.208837 0.411280
v -0.509602 0.060571 0.420280
v -0.573241 -0.003069 0.420280
v -0.496166 -0.067416 0.411280
v -0.445255 -0.016504 0.411280
v -0.445255 -0.016504 0.411280
v -0.496166 -0.067416 0.411280
v -0.354745 -0.208837 0.411280
v -0.303833 -0.157925 0.411280
v -0.509602 0.060571 0.330280
v -0.509602 0.060571 0.420280
v -0.445255 -0.016504 0.411280
v -0.445255 -0.016504 0.339280
v -0.445255 -0.016504 0.339280
v -0.445255 -0.016504 0.411280
v -0.303833 -0.157925 0.411280
v -0.303833 -0.157925 0.339280
v -0.491297 -0.021373 0.511280
v -0.400000 0.016444 0.511280
v -0.308703 -0.021373 0.511280
v -0.308703 -0.021373 0.511280
v -0.270886 -0.112671 0.511280
v -0.491297 -0.021373 0.511280
v -0.270886 -0.112671 0.511280
v -0.308703 -0.203968 0.511280
v -0.491297 -0.021373 0.511280
v -0.308703 -0.203968 0.511280
v -0.400000 -0.241785 0.511280
v -0.491297 -0.203968 0.511280
v -0.491297 -0.203968 0.511280
v -0.529114 -0.112671 0.511280
v -0.491297 -0.021373 0.511280

vt 0.849838 0.170427
vt 0.906012 0.144257
vt 0.906012 0.170427
vt 0.849838 0.170427
vt 0.849838 0.144258
vt 0.906012 0.144257
vt 0.000518 0.518874
vt 0.000518 0.492190
vt 0.338904 0.518874
vt 0.000518 0.492190
vt 0.338903 0.492190
vt 0.338904 0.518874
vt 0.000518 0.492190
vt 0.000518 0.465505
vt 0.338903 0.492190
vt 0.000518 0.465505
vt 0.338903 0.465505
vt 0.338903 0.492190
vt 0.849838 0.248937
vt 0.906012 0.222767
vt 0.906012 0.248937
vt 0.849838 0.248937
vt 0.849838 0.222767
vt 0.906012 0.222767
vt 0.000518 0.465505
vt 0.000518 0.438821
vt 0.338903 0.465505
vt 0.000518 0.438821
vt 0.338903 0.438821
vt 0.338903 0.465505
vt 0.849838 0.196597
vt 0.906012 0.170427
vt 0.906012 0.196597
vt 0.849838 0.196597
vt 0.849838 0.170427
vt 0.906012 0.170427
vt 0.000518 0.438821
vt 0.000518 0.412136
vt 0.338903 0.438821
vt 0.000518 0.412136
vt 0.338904 0.412136
vt 0.338903 0.438821
vt 0.514785 0.901175
vt 0.496280 0.919680
vt 0.496280 0.856501
vt 0.496280 0.919680
vt 0.470110 0.919680
vt 0.496280 0.856501
vt 0.849838 0.275107
vt 0.906012 0.248937
vt 0.906012 0.275107
vt 0.849838 0.275107
vt 0.849838 0.248937
vt 0.906012 0.248937
vt 0.849838 0.222767
vt 0.906012 0.196597
vt 0.906012 0.222767
vt 0.849838 0.222767
vt 0.849838 0.196597
vt 0.906012 0.196597
vt 0.849838 0.144258
vt 0.906012 0.118088
vt 0.906012 0.144257
vt 0.849838 0.144258
vt 0.849838 0.118088
vt 0.906012 0.118088
vt 0.849838 0.327446
vt 0.906012 0.301277
vt 0.906012 0.327446
vt 0.849838 0.327446
vt 0.849838 0.301276
vt 0.906012 0.301277
vt 0.849838 0.301276
vt 0.906012 0.275107
vt 0.906012 0.301277
vt 0.849838 0.301276
vt 0.849838 0.275107
vt 0.906012 0.275107
vt 0.470110 0.919680
vt 0.451605 0.901175
vt 0.496280 0.856501
vt 0.282758 0.746711
vt 0.213028 0.746711
vt 0.247893 0.711846
vt 0.601383 0.482075
vt 0.531653 0.820460
vt 0.531653 0.482075
vt 0.601383 0.820460
vt 0.531653 0.820460
vt 0.601383 0.482075
vt 0.000518 0.387713
vt 0.338904 0.412136
vt 0.000518 0.412136
vt 0.338903 0.387713
vt 0.338904 0.412136
vt 0.000518 0.387713
vt 0.338903 0.543297
vt 0.000518 0.518874
vt 0.338904 0.518874
vt 0.000518 0.543297
vt 0.000518 0.518874
vt 0.338903 0.543297
vt 0.514785 0.875005
vt 0.514785 0.901175
vt 0.496280 0.856501
vt 0.470110 0.856501
vt 0.496280 0.856501
vt 0.451605 0.875005
vt 0.451605 0.901175
vt 0.451605 0.875005
vt 0.496280 0.856501
vt 0.247893 0.711846
vt 0.213028 0.746711
vt 0.223240 0.722058
vt 0.282758 0.746711
vt 0.247893 0.711846
vt 0.272547 0.722058
vt 0.213028 0.771134
vt 0.282758 0.746711
vt 0.282758 0.771134
vt 0.282758 0.746711
vt 0.213028 0.771134
vt 0.213028 0.746711
vt 0.275404 0.685839
vt 0.334508 0.662050
vt 0.309536 0.651707
vt 0.285748 0.710810
vt 0.334508 0.662050
vt 0.275404 0.685839
vt 0.166995 0.829563
vt 0.166995 0.760606
vt 0.118235 0.878323
vt 0.775533 0.276346
vt 0.848802 0.207389
vt 0.775533 0.207389
vt 0.848802 0.276346
vt 0.848802 0.207389
vt 0.775533 0.276346
vt 0.775533 0.507509
vt 0.848802 0.438552
vt 0.775533 0.438552
vt 0.848802 0.507509
vt 0.848802 0.438552
vt 0.775533 0.507509
vt 0.775533 0.138432
vt 0.848802 0.069475
vt 0.775533 0.069475
vt 0.848802 0.138432
vt 0.848802 0.069475
vt 0.775533 0.138432
vt 0.775533 0.069475
vt 0.848802 0.000518
vt 0.775533 0.000518
vt 0.848802 0.069475
vt 0.848802 0.000518
vt 0.775533 0.069475
vt 0.775533 0.438552
vt 0.848802 0.369595
vt 0.775533 0.369595
vt 0.848802 0.438552
vt 0.848802 0.369595
vt 0.775533 0.438552
vt 0.775533 0.369595
vt 0.848802 0.300638
vt 0.775533 0.300638
vt 0.848802 0.369595
vt 0.848802 0.300638
vt 0.775533 0.369595
vt 0.775533 0.207389
vt 0.848802 0.138432
vt 0.775533 0.138432
vt 0.848802 0.207389
vt 0.848802 0.138432
vt 0.775533 0.207389
vt 0.775533 0.576466
vt 0.848802 0.507509
vt 0.775533 0.507509
vt 0.848802 0.576466
vt 0.848802 0.507509
vt 0.775533 0.576466
vt 0.193002 0.603437
vt 0.168031 0.662050
vt 0.193002 0.651707
vt 0.168031 0.593093
vt 0.168031 0.662050
vt 0.193002 0.603437
vt 0.309536 0.603437
vt 0.285748 0.544333
vt 0.275404 0.569305
vt 0.334508 0.593093
vt 0.285748 0.544333
vt 0.309536 0.603437
vt 0.309536 0.651707
vt 0.334508 0.593093
vt 0.309536 0.603437
vt 0.334508 0.662050
vt 0.334508 0.593093
vt 0.309536 0.651707
vt 0.275404 0.569305
vt 0.216791 0.544333
vt 0.227134 0.569305
vt 0.285748 0.544333
vt 0.216791 0.544333
vt 0.275404 0.569305
vt 0.227134 0.685839
vt 0.285748 0.710810
vt 0.275404 0.685839
vt 0.216791 0.710810
vt 0.285748 0.710810
vt 0.227134 0.685839
vt 0.049278 0.878323
vt 0.118235 0.878323
vt 0.000518 0.829563
vt 0.000518 0.760606
vt 0.000518 0.829563
vt 0.118235 0.878323
vt 0.049278 0.711846
vt 0.000518 0.760606
vt 0.118235 0.878323
vt 0.118235 0.711846
vt 0.049278 0.711846
vt 0.118235 0.878323
vt 0.166995 0.760606
vt 0.118235 0.711846
vt 0.118235 0.878323
vt 0.914371 0.976692
vt 0.865525 0.996000
vt 0.865525 0.976692
vt 0.914371 0.996000
vt 0.865525 0.996000
vt 0.914371 0.976692
vt 0.914371 0.841536
vt 0.865525 0.860844
vt 0.865525 0.841536
vt 0.914371 0.860844
vt 0.865525 0.860844
vt 0.914371 0.841536
vt 0.914371 0.860844
vt 0.865525 0.880152
vt 0.865525 0.860844
vt 0.914371 0.880152
vt 0.865525 0.880152
vt 0.914371 0.860844
vt 0.914371 0.899460
vt 0.865525 0.918768
vt 0.865525 0.899460
vt 0.914371 0.918768
vt 0.865525 0.918768
vt 0.914371 0.899460
vt 0.914371 0.957384
vt 0.865525 0.976692
vt 0.865525 0.957384
vt 0.914371 0.976692
vt 0.865525 0.976692
vt 0.914371 0.957384
vt 0.191723 0.386677
vt 0.381892 0.338407
vt 0.191723 0.338407
vt 0.381892 0.386677
vt 0.381892 0.338407
vt 0.191723 0.386677
vt 0.191723 0.145328
vt 0.381892 0.097058
vt 0.191723 0.097058
vt 0.381892 0.145328
vt 0.381892 0.097058
vt 0.191723 0.145328
vt 0.191723 0.193597
vt 0.381892 0.145328
vt 0.191723 0.145328
vt 0.381892 0.193597
vt 0.381892 0.145328
vt 0.191723 0.193597
vt 0.191723 0.097058
vt 0.381892 0.048788
vt 0.191723 0.048788
vt 0.381892 0.097058
vt 0.381892 0.048788
vt 0.191723 0.097058
vt 0.191723 0.290137
vt 0.381892 0.241867
vt 0.191723 0.241867
vt 0.381892 0.290137
vt 0.381892 0.241867
vt 0.191723 0.290137
vt 0.191723 0.338407
vt 0.381892 0.290137
vt 0.191723 0.290137
vt 0.381892 0.338407
vt 0.381892 0.290137
vt 0.191723 0.338407
vt 0.227134 0.569305
vt 0.168031 0.593093
vt 0.193002 0.603437
vt 0.216791 0.544333
vt 0.168031 0.593093
vt 0.227134 0.569305
vt 0.193002 0.651707
vt 0.216791 0.710810
vt 0.227134 0.685839
vt 0.168031 0.662050
vt 0.216791 0.710810
vt 0.193002 0.651707
vt 0.914371 0.918768
vt 0.865525 0.938076
vt 0.865525 0.918768
vt 0.914371 0.938076
vt 0.865525 0.938076
vt 0.914371 0.918768
vt 0.914371 0.880152
vt 0.865525 0.899460
vt 0.865525 0.880152
vt 0.914371 0.899460
vt 0.865525 0.899460
vt 0.914371 0.880152
vt 0.914371 0.938076
vt 0.865525 0.957384
vt 0.865525 0.938076
vt 0.914371 0.957384
vt 0.865525 0.957384
vt 0.914371 0.938076
vt 0.740240 0.850672
vt 0.706108 0.768270
vt 0.657838 0.884804
vt 0.191723 0.241867
vt 0.381892 0.193597
vt 0.191723 0.193597
vt 0.381892 0.241867
vt 0.381892 0.193597
vt 0.191723 0.241867
vt 0.191723 0.048788
vt 0.381892 0.000518
vt 0.191723 0.000518
vt 0.381892 0.048788
vt 0.381892 0.000518
vt 0.191723 0.048788
vt 0.623706 0.850672
vt 0.657838 0.884804
vt 0.623706 0.802402
vt 0.657838 0.768270
vt 0.623706 0.802402
vt 0.657838 0.884804
vt 0.706108 0.768270
vt 0.657838 0.768270
vt 0.657838 0.884804
vt 0.740240 0.802402
vt 0.706108 0.768270
vt 0.740240 0.850672
vt 0.706108 0.884804
vt 0.740240 0.850672
vt 0.657838 0.884804
vt 0.142023 0.603437
vt 0.166995 0.662050
vt 0.166995 0.593093
vt 0.142023 0.651707
vt 0.166995 0.662050
vt 0.142023 0.603437
vt 0.741423 0.600757
vt 0.790183 0.718474
vt 0.790183 0.649517
vt 0.791219 0.600757
vt 0.864489 0.669714
vt 0.864489 0.600757
vt 0.791219 0.669714
vt 0.864489 0.669714
vt 0.791219 0.600757
vt 0.323746 0.855465
vt 0.392703 0.782195
vt 0.323746 0.782195
vt 0.392703 0.855465
vt 0.392703 0.782195
vt 0.323746 0.855465
vt 0.791219 0.738671
vt 0.864489 0.807628
vt 0.864489 0.738671
vt 0.791219 0.807628
vt 0.864489 0.807628
vt 0.791219 0.738671
vt 0.791219 0.807628
vt 0.864489 0.876585
vt 0.864489 0.807628
vt 0.791219 0.876585
vt 0.864489 0.876585
vt 0.791219 0.807628
vt 0.392703 0.855465
vt 0.461660 0.782195
vt 0.392703 0.782195
vt 0.461660 0.855465
vt 0.461660 0.782195
vt 0.392703 0.855465
vt 0.461660 0.855465
vt 0.530617 0.782195
vt 0.461660 0.782195
vt 0.530617 0.855465
vt 0.530617 0.782195
vt 0.461660 0.855465
vt 0.791219 0.669714
vt 0.864489 0.738671
vt 0.864489 0.669714
vt 0.791219 0.738671
vt 0.864489 0.738671
vt 0.791219 0.669714
vt 0.254789 0.855465
vt 0.323746 0.782195
vt 0.254789 0.782195
vt 0.323746 0.855465
vt 0.323746 0.782195
vt 0.254789 0.855465
vt 0.025490 0.603437
vt 0.049278 0.544333
vt 0.000518 0.593093
vt 0.059621 0.569305
vt 0.049278 0.544333
vt 0.025490 0.603437
vt 0.107891 0.685839
vt 0.049278 0.710810
vt 0.118235 0.710810
vt 0.059621 0.685839
vt 0.049278 0.710810
vt 0.107891 0.685839
vt 0.142023 0.651707
vt 0.118235 0.710810
vt 0.166995 0.662050
vt 0.107891 0.685839
vt 0.118235 0.710810
vt 0.142023 0.651707
vt 0.059621 0.685839
vt 0.000518 0.662050
vt 0.049278 0.710810
vt 0.025490 0.651707
vt 0.000518 0.662050
vt 0.059621 0.685839
vt 0.107891 0.569305
vt 0.166995 0.593093
vt 0.118235 0.544333
vt 0.142023 0.603437
vt 0.166995 0.593093
vt 0.107891 0.569305
vt 0.623706 0.649517
vt 0.741423 0.600757
vt 0.672466 0.600757
vt 0.741423 0.600757
vt 0.623706 0.649517
vt 0.623706 0.718474
vt 0.741423 0.600757
vt 0.623706 0.718474
vt 0.672466 0.767234
vt 0.741423 0.600757
vt 0.672466 0.767234
vt 0.741423 0.767234
vt 0.741423 0.600757
vt 0.741423 0.767234
vt 0.790183 0.718474
vt 0.019826 0.879359
vt 0.000518 0.928205
vt 0.000518 0.879359
vt 0.019826 0.928205
vt 0.000518 0.928205
vt 0.019826 0.879359
vt 0.154982 0.879359
vt 0.135674 0.928205
vt 0.135674 0.879359
vt 0.154982 0.928205
vt 0.135674 0.928205
vt 0.154982 0.879359
vt 0.135674 0.879359
vt 0.116366 0.928205
vt 0.116366 0.879359
vt 0.135674 0.928205
vt 0.116366 0.928205
vt 0.135674 0.879359
vt 0.097058 0.879359
vt 0.077750 0.928205
vt 0.077750 0.879359
vt 0.097058 0.928205
vt 0.077750 0.928205
vt 0.097058 0.879359
vt 0.039134 0.879359
vt 0.019826 0.928205
vt 0.019826 0.879359
vt 0.039134 0.928205
vt 0.019826 0.928205
vt 0.039134 0.879359
vt 0.000518 0.000518
vt 0.190687 0.048788
vt 0.190687 0.000518
vt 0.000518 0.048788
vt 0.190687 0.048788
vt 0.000518 0.000518
vt 0.000518 0.241867
vt 0.190687 0.290137
vt 0.190687 0.241867
vt 0.000518 0.290137
vt 0.190687 0.290137
vt 0.000518 0.241867
vt 0.000518 0.193598
vt 0.190687 0.241867
vt 0.190687 0.193598
vt 0.000518 0.241867
vt 0.190687 0.241867
vt 0.000518 0.193598
vt 0.000518 0.290137
vt 0.190687 0.338407
vt 0.190687 0.290137
vt 0.000518 0.338407
vt 0.190687 0.338407
vt 0.000518 0.290137
vt 0.000518 0.097058
vt 0.190687 0.145328
vt 0.190687 0.097058
vt 0.000518 0.145328
vt 0.190687 0.145328
vt 0.000518 0.097058
vt 0.000518 0.048788
vt 0.190687 0.097058
vt 0.190687 0.048788
vt 0.000518 0.097058
vt 0.190687 0.097058
vt 0.000518 0.048788
vt 0.025490 0.651707
vt 0.000518 0.593093
vt 0.000518 0.662050
vt 0.025490 0.603437
vt 0.000518 0.593093
vt 0.025490 0.651707
vt 0.059621 0.569305
vt 0.118235 0.544333
vt 0.049278 0.544333
vt 0.107891 0.569305
vt 0.118235 0.544333
vt 0.059621 0.569305
vt 0.077750 0.879359
vt 0.058442 0.928205
vt 0.058442 0.879359
vt 0.077750 0.928205
vt 0.058442 0.928205
vt 0.077750 0.879359
vt 0.116366 0.879359
vt 0.097058 0.928205
vt 0.097058 0.879359
vt 0.116366 0.928205
vt 0.097058 0.928205
vt 0.116366 0.879359
vt 0.058442 0.879359
vt 0.039134 0.928205
vt 0.039134 0.879359
vt 0.058442 0.928205
vt 0.039134 0.928205
vt 0.058442 0.879359
vt 0.966372 0.082920
vt 0.849838 0.034650
vt 0.883970 0.117052
vt 0.000518 0.145328
vt 0.190687 0.193598
vt 0.190687 0.145328
vt 0.000518 0.193598
vt 0.190687 0.193598
vt 0.000518 0.145328
vt 0.000518 0.338407
vt 0.190687 0.386677
vt 0.190687 0.338407
vt 0.000518 0.386677
vt 0.190687 0.386677
vt 0.000518 0.338407
vt 0.932240 0.000518
vt 0.966372 0.082920
vt 0.966372 0.034650
vt 0.966372 0.082920
vt 0.932240 0.000518
vt 0.883970 0.000518
vt 0.966372 0.082920
vt 0.883970 0.000518
vt 0.849838 0.034650
vt 0.883970 0.117052
vt 0.849838 0.034650
vt 0.849838 0.082920
vt 0.966372 0.082920
vt 0.883970 0.117052
vt 0.932240 0.117052
vt 0.774497 0.375409
vt 0.623706 0.338023
vt 0.774497 0.338023
vt 0.623706 0.375409
vt 0.623706 0.338023
vt 0.774497 0.375409
vt 0.774497 0.338023
vt 0.623706 0.300638
vt 0.774496 0.300638
vt 0.623706 0.338023
vt 0.623706 0.300638
vt 0.774497 0.338023
vt 0.774496 0.599722
vt 0.623706 0.562336
vt 0.774497 0.562336
vt 0.623706 0.599721
vt 0.623706 0.562336
vt 0.774496 0.599722
vt 0.774497 0.562336
vt 0.623706 0.524951
vt 0.774497 0.524951
vt 0.623706 0.562336
vt 0.623706 0.524951
vt 0.774497 0.562336
vt 0.774497 0.524951
vt 0.623706 0.487565
vt 0.774497 0.487565
vt 0.623706 0.524951
vt 0.623706 0.487565
vt 0.774497 0.524951
vt 0.774497 0.487565
vt 0.623706 0.450180
vt 0.774497 0.450180
vt 0.623706 0.487565
vt 0.623706 0.450180
vt 0.774497 0.487565
vt 0.530617 0.669003
vt 0.382928 0.631617
vt 0.530617 0.631617
vt 0.382928 0.669002
vt 0.382928 0.631617
vt 0.530617 0.669003
vt 0.530617 0.706388
vt 0.382928 0.669002
vt 0.530617 0.669003
vt 0.382928 0.706388
vt 0.382928 0.669002
vt 0.530617 0.706388
vt 0.530617 0.743773
vt 0.382928 0.706388
vt 0.530617 0.706388
vt 0.382928 0.743773
vt 0.382928 0.706388
vt 0.530617 0.743773
vt 0.530617 0.781159
vt 0.382928 0.743773
vt 0.530617 0.743773
vt 0.382928 0.781159
vt 0.382928 0.743773
vt 0.530617 0.781159
vt 0.530617 0.519461
vt 0.382928 0.482075
vt 0.530617 0.482075
vt 0.382928 0.519461
vt 0.382928 0.482075
vt 0.530617 0.519461
vt 0.530617 0.556846
vt 0.382928 0.519461
vt 0.530617 0.519461
vt 0.382928 0.556846
vt 0.382928 0.519461
vt 0.530617 0.556846
vt 0.530617 0.594232
vt 0.382928 0.556846
vt 0.530617 0.556846
vt 0.382928 0.594232
vt 0.382928 0.556846
vt 0.530617 0.594232
vt 0.530617 0.631617
vt 0.382928 0.594232
vt 0.530617 0.594232
vt 0.382928 0.631617
vt 0.382928 0.594232
vt 0.530617 0.631617
vt 0.531653 0.847932
vt 0.621909 0.885317
vt 0.558088 0.911753
vt 0.595474 0.821496
vt 0.531653 0.847932
vt 0.558088 0.821496
vt 0.621909 0.885317
vt 0.595474 0.821496
vt 0.621909 0.847932
vt 0.774497 0.412794
vt 0.623706 0.375409
vt 0.774497 0.375409
vt 0.623706 0.412794
vt 0.623706 0.375409
vt 0.774497 0.412794
vt 0.774497 0.450180
vt 0.623706 0.412794
vt 0.774497 0.412794
vt 0.623706 0.450180
vt 0.623706 0.412794
vt 0.774497 0.450180
vt 0.910522 0.796538
vt 0.950088 0.747494
vt 0.954484 0.796538
vt 0.914919 0.747494
vt 0.950088 0.747494
vt 0.910522 0.796538
vt 0.382928 0.196299
vt 0.431972 0.235865
vt 0.382928 0.240261
vt 0.431972 0.200695
vt 0.431972 0.235865
vt 0.382928 0.196299
vt 0.622670 0.000518
vt 0.583105 0.049562
vt 0.578708 0.000518
vt 0.618274 0.049562
vt 0.583105 0.049562
vt 0.622670 0.000518
vt 0.785238 0.768270
vt 0.745672 0.817314
vt 0.741276 0.768270
vt 0.780842 0.817314
vt 0.745672 0.817314
vt 0.785238 0.768270
vt 0.622670 0.196299
vt 0.578708 0.240261
vt 0.578708 0.196299
vt 0.622670 0.240261
vt 0.578708 0.240261
vt 0.622670 0.196299
vt 0.954484 0.796538
vt 0.910522 0.840500
vt 0.910522 0.796538
vt 0.954484 0.840500
vt 0.910522 0.840500
vt 0.954484 0.796538
vt 0.780842 0.915007
vt 0.741276 0.964051
vt 0.745672 0.915007
vt 0.785238 0.964051
vt 0.741276 0.964051
vt 0.780842 0.915007
vt 0.780842 0.817314
vt 0.745672 0.915007
vt 0.745672 0.817314
vt 0.780842 0.915007
vt 0.745672 0.915007
vt 0.780842 0.817314
vt 0.618274 0.147255
vt 0.578708 0.196299
vt 0.583105 0.147255
vt 0.622670 0.196299
vt 0.578708 0.196299
vt 0.618274 0.147255
vt 0.618274 0.049562
vt 0.583105 0.147255
vt 0.583105 0.049562
vt 0.618274 0.147255
vt 0.583105 0.147255
vt 0.618274 0.049562
vt 0.529664 0.200695
vt 0.578708 0.240261
vt 0.529665 0.235864
vt 0.578708 0.196299
vt 0.578708 0.240261
vt 0.529664 0.200695
vt 0.431972 0.200695
vt 0.529665 0.235864
vt 0.431972 0.235865
vt 0.529664 0.200695
vt 0.529665 0.235864
vt 0.431972 0.200695
vt 0.914919 0.649801
vt 0.954484 0.600757
vt 0.950088 0.649801
vt 0.910522 0.600757
vt 0.954484 0.600757
vt 0.914919 0.649801
vt 0.914919 0.747494
vt 0.950088 0.649801
vt 0.950088 0.747494
vt 0.914919 0.649801
vt 0.950088 0.649801
vt 0.914919 0.747494
vt 0.865525 0.840500
vt 0.905090 0.791456
vt 0.909486 0.840500
vt 0.869921 0.791456
vt 0.905090 0.791456
vt 0.865525 0.840500
vt 0.254789 0.856501
vt 0.303833 0.896066
vt 0.254789 0.900462
vt 0.303833 0.860897
vt 0.303833 0.896066
vt 0.254789 0.856501
vt 0.983796 0.372444
vt 0.944230 0.421488
vt 0.939834 0.372444
vt 0.979400 0.421488
vt 0.944230 0.421488
vt 0.983796 0.372444
vt 0.335543 0.740114
vt 0.375109 0.691070
vt 0.379505 0.740114
vt 0.339940 0.691070
vt 0.375109 0.691070
vt 0.335543 0.740114
vt 0.909486 0.600757
vt 0.865525 0.644719
vt 0.865525 0.600757
vt 0.909486 0.644719
vt 0.865525 0.644719
vt 0.909486 0.600757
vt 0.983796 0.328482
vt 0.939834 0.372444
vt 0.939834 0.328482
vt 0.983796 0.372444
vt 0.939834 0.372444
vt 0.983796 0.328482
vt 0.339940 0.593377
vt 0.379505 0.544333
vt 0.375109 0.593377
vt 0.335543 0.544333
vt 0.379505 0.544333
vt 0.339940 0.593377
vt 0.339940 0.691070
vt 0.375109 0.593377
vt 0.375109 0.691070
vt 0.339940 0.593377
vt 0.375109 0.593377
vt 0.339940 0.691070
vt 0.979400 0.519181
vt 0.939834 0.568225
vt 0.944230 0.519181
vt 0.983796 0.568225
vt 0.939834 0.568225
vt 0.979400 0.519181
vt 0.979400 0.421488
vt 0.944230 0.519181
vt 0.944230 0.421488
vt 0.979400 0.519181
vt 0.944230 0.519181
vt 0.979400 0.421488
vt 0.401526 0.860897
vt 0.450570 0.900463
vt 0.401526 0.896066
vt 0.450570 0.856501
vt 0.450570 0.900463
vt 0.401526 0.860897
vt 0.303833 0.860897
vt 0.401526 0.896066
vt 0.303833 0.896066
vt 0.401526 0.860897
vt 0.401526 0.896066
vt 0.303833 0.860897
vt 0.869921 0.693763
vt 0.909486 0.644719
vt 0.905090 0.693763
vt 0.865525 0.644719
vt 0.909486 0.644719
vt 0.869921 0.693763
vt 0.869921 0.791456
vt 0.905090 0.693763
vt 0.905090 0.791456
vt 0.869921 0.693763
vt 0.905090 0.693763
vt 0.869921 0.791456
vt 0.558088 0.911753
vt 0.621909 0.885317
vt 0.595474 0.911753
vt 0.531653 0.847932
vt 0.558088 0.911753
vt 0.531653 0.885317
vt 0.621909 0.885317
vt 0.531653 0.847932
vt 0.595474 0.821496
vt 0.774497 0.224831
vt 0.623706 0.262216
vt 0.623706 0.224831
vt 0.774497 0.262216
vt 0.623706 0.262216
vt 0.774497 0.224831
vt 0.774497 0.262216
vt 0.623706 0.299602
vt 0.623706 0.262216
vt 0.774497 0.299602
vt 0.623706 0.299602
vt 0.774497 0.262216
vt 0.774497 0.000518
vt 0.623706 0.037903
vt 0.623706 0.000518
vt 0.774497 0.037904
vt 0.623706 0.037903
vt 0.774497 0.000518
vt 0.774497 0.037904
vt 0.623706 0.075289
vt 0.623706 0.037903
vt 0.774497 0.075289
vt 0.623706 0.075289
vt 0.774497 0.037904
vt 0.774497 0.075289
vt 0.623706 0.112674
vt 0.623706 0.075289
vt 0.774497 0.112674
vt 0.623706 0.112674
vt 0.774497 0.075289
vt 0.774497 0.112674
vt 0.623706 0.150060
vt 0.623706 0.112674
vt 0.774497 0.150060
vt 0.623706 0.150060
vt 0.774497 0.112674
vt 0.774497 0.187445
vt 0.623706 0.224831
vt 0.623706 0.187445
vt 0.774497 0.224831
vt 0.623706 0.224831
vt 0.774497 0.187445
vt 0.774497 0.150060
vt 0.623706 0.187445
vt 0.623706 0.150060
vt 0.774497 0.187445
vt 0.623706 0.187445
vt 0.774497 0.150060
vt 0.894836 0.372444
vt 0.934402 0.421488
vt 0.899232 0.421488
vt 0.938798 0.372444
vt 0.934402 0.421488
vt 0.894836 0.372444
vt 0.578708 0.241297
vt 0.618274 0.290341
vt 0.583105 0.290341
vt 0.622670 0.241297
vt 0.618274 0.290341
vt 0.578708 0.241297
vt 0.382928 0.481039
vt 0.431972 0.441474
vt 0.431972 0.476643
vt 0.382928 0.437077
vt 0.431972 0.441474
vt 0.382928 0.481039
vt 0.951010 0.313868
vt 0.911444 0.264825
vt 0.946613 0.264825
vt 0.907048 0.313868
vt 0.911444 0.264825
vt 0.951010 0.313868
vt 0.578709 0.481039
vt 0.622670 0.437077
vt 0.622670 0.481039
vt 0.578708 0.437077
vt 0.622670 0.437077
vt 0.578709 0.481039
vt 0.938798 0.372444
vt 0.894836 0.328482
vt 0.938798 0.328482
vt 0.894836 0.372444
vt 0.894836 0.328482
vt 0.938798 0.372444
vt 0.946613 0.167132
vt 0.907048 0.118088
vt 0.951010 0.118088
vt 0.911444 0.167132
vt 0.907048 0.118088
vt 0.946613 0.167132
vt 0.946613 0.264825
vt 0.911444 0.167132
vt 0.946613 0.167132
vt 0.911444 0.264825
vt 0.911444 0.167132
vt 0.946613 0.264825
vt 0.529665 0.476643
vt 0.578708 0.437077
vt 0.578709 0.481039
vt 0.529664 0.441473
vt 0.578708 0.437077
vt 0.529665 0.476643
vt 0.431972 0.476643
vt 0.529664 0.441473
vt 0.529665 0.476643
vt 0.431972 0.441474
vt 0.529664 0.441473
vt 0.431972 0.476643
vt 0.583105 0.388033
vt 0.622670 0.437077
vt 0.578708 0.437077
vt 0.618274 0.388033
vt 0.622670 0.437077
vt 0.583105 0.388033
vt 0.583105 0.290341
vt 0.618274 0.388033
vt 0.583105 0.388033
vt 0.618274 0.290341
vt 0.618274 0.388033
vt 0.583105 0.290341
vt 0.899232 0.519181
vt 0.938798 0.568225
vt 0.894836 0.568225
vt 0.934402 0.519181
vt 0.938798 0.568225
vt 0.899232 0.519181
vt 0.899232 0.421488
vt 0.934402 0.519181
vt 0.899232 0.519181
vt 0.934402 0.421488
vt 0.934402 0.519181
vt 0.899232 0.421488
vt 0.849838 0.328482
vt 0.889404 0.377526
vt 0.854235 0.377526
vt 0.893800 0.328482
vt 0.889404 0.377526
vt 0.849838 0.328482
vt 0.955520 0.600757
vt 0.995086 0.649801
vt 0.959916 0.649801
vt 0.999482 0.600757
vt 0.995086 0.649801
vt 0.955520 0.600757
vt 0.211993 0.907627
vt 0.172427 0.858583
vt 0.207596 0.858583
vt 0.168031 0.907627
vt 0.172427 0.858583
vt 0.211993 0.907627
vt 0.952046 0.118088
vt 0.991611 0.167132
vt 0.956442 0.167132
vt 0.996007 0.118088
vt 0.991611 0.167132
vt 0.952046 0.118088
vt 0.893800 0.568225
vt 0.849838 0.524263
vt 0.893800 0.524263
vt 0.849838 0.568225
vt 0.849838 0.524263
vt 0.893800 0.568225
vt 0.211993 0.951589
vt 0.168031 0.907627
vt 0.211993 0.907627
vt 0.168031 0.951589
vt 0.168031 0.907627
vt 0.211993 0.951589
vt 0.956442 0.264824
vt 0.996007 0.313868
vt 0.952046 0.313868
vt 0.991611 0.264824
vt 0.996007 0.313868
vt 0.956442 0.264824
vt 0.956442 0.167132
vt 0.991611 0.264824
vt 0.956442 0.264824
vt 0.991611 0.167132
vt 0.991611 0.264824
vt 0.956442 0.167132
vt 0.207596 0.760890
vt 0.168031 0.711846
vt 0.211993 0.711846
vt 0.172427 0.760890
vt 0.168031 0.711846
vt 0.207596 0.760890
vt 0.207596 0.858583
vt 0.172427 0.760890
vt 0.207596 0.760890
vt 0.172427 0.858583
vt 0.172427 0.760890
vt 0.207596 0.858583
vt 0.959916 0.747494
vt 0.999482 0.796538
vt 0.955520 0.796538
vt 0.995086 0.747494
vt 0.999482 0.796538
vt 0.959916 0.747494
vt 0.959916 0.649801
vt 0.995086 0.747494
vt 0.959916 0.747494
vt 0.995086 0.649801
vt 0.995086 0.747494
vt 0.959916 0.649801
vt 0.854235 0.475219
vt 0.893800 0.524263
vt 0.849838 0.524263
vt 0.889404 0.475219
vt 0.893800 0.524263
vt 0.854235 0.475219
vt 0.854235 0.377526
vt 0.889404 0.475219
vt 0.854235 0.475219
vt 0.889404 0.377526
vt 0.889404 0.475219
vt 0.854235 0.377526

vn -0.923879 0.000000 -0.382684
vn -0.923879 0.000000 -0.382684
vn -0.923879 0.000000 -0.382684
vn -0.923879 0.000000 -0.382684
vn -0.923879 0.000000 -0.382684
vn -0.923879 0.000000 -0.382684
vn -0.923880 -0.382682 -0.000000
vn -0.923880 -0.382682 -0.000000
vn -0.923880 -0.382682 -0.000000
vn -0.923880 -0.382682 -0.000000
vn -0.923880 -0.382682 -0.000000
vn -0.923880 -0.382682 -0.000000
vn -0.382681 -0.923881 -0.000000
vn -0.382681 -0.923881 -0.000000
vn -0.382681 -0.923881 -0.000000
vn -0.382682 -0.923880 -0.000000
vn -0.382682 -0.923880 -0.000000
vn -0.382682 -0.923880 -0.000000
vn 0.382684 0.000000 0.923879
vn 0.382684 0.000000 0.923879
vn 0.382684 0.000000 0.923879
vn 0.382684 0.000000 0.923879
vn 0.382684 0.000000 0.923879
vn 0.382684 0.000000 0.923879
vn 0.382682 -0.923880 0.000000
vn 0.382682 -0.923880 0.000000
vn 0.382682 -0.923880 0.000000
vn 0.382681 -0.923881 0.000000
vn 0.382681 -0.923881 0.000000
vn 0.382681 -0.923881 0.000000
vn -0.923879 0.000000 0.382684
vn -0.923879 0.000000 0.382684
vn -0.923879 0.000000 0.382684
vn -0.923879 0.000000 0.382684
vn -0.923879 0.000000 0.382684
vn -0.923879 0.000000 0.382684
vn 0.923880 -0.382683 0.000000
vn 0.923880 -0.382683 0.000000
vn 0.923880 -0.382683 0.000000
vn 0.923880 -0.382683 0.000000
vn 0.923880 -0.382683 0.000000
vn 0.923880 -0.382683 0.000000
vn 0.000001 -1.000000 0.000000
vn 0.000001 -1.000000 0.000000
vn 0.000001 -1.000000 0.000000
vn -0.000000 -1.000000 0.000000
vn -0.000000 -1.000000 0.000000
vn -0.000000 -1.000000 0.000000
vn 0.923880 0.000000 0.382682
vn 0.923880 0.000000 0.382682
vn 0.923880 0.000000 0.382682
vn 0.923880 0.000000 0.382682
vn 0.923880 0.000000 0.382682
vn 0.923880 0.000000 0.382682
vn -0.382684 0.000000 0.923879
vn -0.382684 0.000000 0.923879
vn -0.382684 0.000000 0.923879
vn -0.382684 0.000000 0.923879
vn -0.382684 0.000000 0.923879
vn -0.382684 0.000000 0.923879
vn -0.382683 0.000000 -0.923880
vn -0.382683 0.000000 -0.923880
vn -0.382683 0.000000 -0.923880
vn -0.382683 0.000000 -0.923880
vn -0.382683 0.000000 -0.923880
vn -0.382683 0.000000 -0.923880
vn 0.382683 0.000000 -0.923880
vn 0.382683 0.000000 -0.923880
vn 0.382683 0.000000 -0.923880
vn 0.382683 0.000000 -0.923880
vn 0.382683 0.000000 -0.923880
vn 0.382683 0.000000 -0.923880
vn 0.923880 0.000000 -0.382683
vn 0.923880 0.000000 -0.382683
vn 0.923880 0.000000 -0.382683
vn 0.923880 0.000000 -0.382683
vn 0.923880 0.000000 -0.382683
vn 0.923880 0.000000 -0.382683
vn -0.000000 -1.000000 0.000000
vn -0.000000 -1.000000 0.000000
vn -0.000000 -1.000000 0.000000
vn -0.000000 0.000000 -1.000000
vn -0.000000 0.000000 -1.000000
vn -0.000000 0.000000 -1.000000
vn -0.000000 1.000000 0.000000
vn -0.000000 1.000000 0.000000
vn -0.000000 1.000000 0.000000
vn -0.000000 1.000000 0.000000
vn -0.000000 1.000000 0.000000
vn -0.000000 1.000000 0.000000
vn 1.000000 0.000000 0.000000
vn 1.000000 0.000000 0.000000
vn 1.000000 0.000000 0.000000
vn 1.000000 0.000000 0.000000
vn 1.000000 0.000000 0.000000
vn 1.000000 0.000000 0.000000
vn -1.000000 0.000000 -0.000000
vn -1.000000 0.000000 -0.000000
vn -1.000000 0.000000 -0.000000
vn -1.000000 0.000000 -0.000000
vn -1.000000 0.000000 -0.000000
vn -1.000000 0.000000 -0.000000
vn -0.000000 -1.000000 0.000000
vn -0.000000 -1.000000 0.000000
vn -0.000000 -1.000000 0.000000
vn 0.000004 -1.000000 0.000000
vn 0.000004 -1.000000 0.000000
vn 0.000004 -1.000000 0.000000
vn -0.000002 -1.000000 0.000000
vn -0.000002 -1.000000 0.000000
vn -0.000002 -1.000000 0.000000
vn -0.000000 -0.000000 -1.000000
vn -0.000000 -0.000000 -1.000000
vn -0.000000 -0.000000 -1.000000
vn -0.000000 0.000000 -1.000000
vn -0.000000 0.000000 -1.000000
vn -0.000000 0.000000 -1.000000
vn -0.000000 0.000000 -1.000000
vn -0.000000 0.000000 -1.000000
vn -0.000000 0.000000 -1.000000
vn -0.000000 0.000000 -1.000000
vn -0.000000 0.000000 -1.000000
vn -0.000000 0.000000 -1.000000
vn 0.000000 0.000001 -1.000000
vn 0.000000 0.000001 -1.000000
vn 0.000000 0.000001 -1.000000
vn -0.000001 0.000002 -1.000000
vn -0.000001 0.000002 -1.000000
vn -0.000001 0.000002 -1.000000
vn -0.000001 -0.000002 1.000000
vn -0.000001 -0.000002 1.000000
vn -0.000001 -0.000002 1.000000
vn 0.382683 -0.923880 0.000000
vn 0.382683 -0.923880 0.000000
vn 0.382683 -0.923880 0.000000
vn 0.382685 -0.923879 0.000000
vn 0.382685 -0.923879 0.000000
vn 0.382685 -0.923879 0.000000
vn -0.923879 0.382683 0.000000
vn -0.923879 0.382683 0.000000
vn -0.923879 0.382683 0.000000
vn -0.923879 0.382684 0.000000
vn -0.923879 0.382684 0.000000
vn -0.923879 0.382684 0.000000
vn 0.923879 0.382684 0.000000
vn 0.923879 0.382684 0.000000
vn 0.923879 0.382684 0.000000
vn 0.923879 0.382684 0.000000
vn 0.923879 0.382684 0.000000
vn 0.923879 0.382684 0.000000
vn 0.382684 0.923879 0.000000
vn 0.382684 0.923879 0.000000
vn 0.382684 0.923879 0.000000
vn 0.382684 0.923879 0.000000
vn 0.382684 0.923879 0.000000
vn 0.382684 0.923879 0.000000
vn -0.923880 -0.382683 0.000000
vn -0.923880 -0.382683 0.000000
vn -0.923880 -0.382683 0.000000
vn -0.923880 -0.382683 0.000000
vn -0.923880 -0.382683 0.000000
vn -0.923880 -0.382683 0.000000
vn -0.382683 -0.923880 0.000000
vn -0.382683 -0.923880 0.000000
vn -0.382683 -0.923880 0.000000
vn -0.382684 -0.923879 0.000000
vn -0.382684 -0.923879 0.000000
vn -0.382684 -0.923879 0.000000
vn 0.923879 -0.382684 0.000000
vn 0.923879 -0.382684 0.000000
vn 0.923879 -0.382684 0.000000
vn 0.923879 -0.382684 0.000000
vn 0.923879 -0.382684 0.000000
vn 0.923879 -0.382684 0.000000
vn -0.382683 0.923880 0.000000
vn -0.382683 0.923880 0.000000
vn -0.382683 0.923880 0.000000
vn -0.382684 0.923880 0.000000
vn -0.382684 0.923880 0.000000
vn -0.382684 0.923880 0.000000
vn 0.000002 0.000003 -1.000000
vn 0.000002 0.000003 -1.000000
vn 0.000002 0.000003 -1.000000
vn 0.000000 0.000001 -1.000000
vn 0.000000 0.000001 -1.000000
vn 0.000000 0.000001 -1.000000
vn -0.000000 0.000000 -1.000000
vn -0.000000 0.000000 -1.000000
vn -0.000000 0.000000 -1.000000
vn -0.000000 0.000000 -1.000000
vn -0.000000 0.000000 -1.000000
vn -0.000000 0.000000 -1.000000
vn -0.000000 0.000000 -1.000000
vn -0.000000 0.000000 -1.000000
vn -0.000000 0.000000 -1.000000
vn -0.000000 -0.000000 -1.000000
vn -0.000000 -0.000000 -1.000000
vn -0.000000 -0.000000 -1.000000
vn -0.000000 0.000000 -1.000000
vn -0.000000 0.000000 -1.000000
vn -0.000000 0.000000 -1.000000
vn -0.000000 0.000000 -1.000000
vn -0.000000 0.000000 -1.000000
vn -0.000000 0.000000 -1.000000
vn -0.000000 -0.000001 -1.000000
vn -0.000000 -0.000001 -1.000000
vn -0.000000 -0.000001 -1.000000
vn -0.000000 0.000000 -1.000000
vn -0.000000 0.000000 -1.000000
vn -0.000000 0.000000 -1.000000
vn -0.000000 0.000000 1.000000
vn -0.000000 0.000000 1.000000
vn -0.000000 0.000000 1.000000
vn -0.000000 -0.000001 1.000000
vn -0.000000 -0.000001 1.000000
vn -0.000000 -0.000001 1.000000
vn -0.000000 0.000001 1.000000
vn -0.000000 0.000001 1.000000
vn -0.000000 0.000001 1.000000
vn -0.000000 -0.000002 1.000000
vn -0.000000 -0.000002 1.000000
vn -0.000000 -0.000002 1.000000
vn 0.000000 0.000000 1.000000
vn 0.000000 0.000000 1.000000
vn 0.000000 0.000000 1.000000
vn -0.923880 -0.382683 0.000000
vn -0.923880 -0.382683 0.000000
vn -0.923880 -0.382683 0.000000
vn -0.923879 -0.382684 0.000000
vn -0.923879 -0.382684 0.000000
vn -0.923879 -0.382684 0.000000
vn -0.923880 0.382683 0.000000
vn -0.923880 0.382683 0.000000
vn -0.923880 0.382683 0.000000
vn -0.923879 0.382684 0.000000
vn -0.923879 0.382684 0.000000
vn -0.923879 0.382684 0.000000
vn -0.382684 0.923879 0.000000
vn -0.382684 0.923879 0.000000
vn -0.382684 0.923879 0.000000
vn -0.382685 0.923879 0.000000
vn -0.382685 0.923879 0.000000
vn -0.382685 0.923879 0.000000
vn 0.923880 0.382683 0.000000
vn 0.923880 0.382683 0.000000
vn 0.923880 0.382683 0.000000
vn 0.923880 0.382683 0.000000
vn 0.923880 0.382683 0.000000
vn 0.923880 0.382683 0.000000
vn -0.382685 -0.923879 0.000000
vn -0.382685 -0.923879 0.000000
vn -0.382685 -0.923879 0.000000
vn -0.382684 -0.923879 0.000000
vn -0.382684 -0.923879 0.000000
vn -0.382684 -0.923879 0.000000
vn 0.923880 -0.382684 0.000000
vn 0.923880 -0.382684 0.000000
vn 0.923880 -0.382684 0.000000
vn 0.923880 -0.382683 0.000000
vn 0.923880 -0.382683 0.000000
vn 0.923880 -0.382683 0.000000
vn -0.382683 0.923880 0.000000
vn -0.382683 0.923880 0.000000
vn -0.382683 0.923880 0.000000
vn -0.382683 0.923880 0.000000
vn -0.382683 0.923880 0.000000
vn -0.382683 0.923880 0.000000
vn -0.923880 0.382683 0.000000
vn -0.923880 0.382683 0.000000
vn -0.923880 0.382683 0.000000
vn -0.923880 0.382683 0.000000
vn -0.923880 0.382683 0.000000
vn -0.923880 0.382683 0.000000
vn 0.382684 0.923879 0.000000
vn 0.382684 0.923879 0.000000
vn 0.382684 0.923879 0.000000
vn 0.382684 0.923879 0.000000
vn 0.382684 0.923879 0.000000
vn 0.382684 0.923879 0.000000
vn -0.382684 -0.923880 0.000000
vn -0.382684 -0.923880 0.000000
vn -0.382684 -0.923880 0.000000
vn -0.382683 -0.923879 0.000000
vn -0.382683 -0.923879 0.000000
vn -0.382683 -0.923879 0.000000
vn 0.382684 -0.923879 0.000000
vn 0.382684 -0.923879 0.000000
vn 0.382684 -0.923879 0.000000
vn 0.382684 -0.923879 0.000000
vn 0.382684 -0.923879 0.000000
vn 0.382684 -0.923879 0.000000
vn -0.000000 0.000001 -1.000000
vn -0.000000 0.000001 -1.000000
vn -0.000000 0.000001 -1.000000
vn -0.000000 -0.000002 -1.000000
vn -0.000000 -0.000002 -1.000000
vn -0.000000 -0.000002 -1.000000
vn -0.000000 0.000000 -1.000000
vn -0.000000 0.000000 -1.000000
vn -0.000000 0.000000 -1.000000
vn -0.000000 -0.000002 -1.000000
vn -0.000000 -0.000002 -1.000000
vn -0.000000 -0.000002 -1.000000
vn 0.923880 -0.382683 0.000000
vn 0.923880 -0.382683 0.000000
vn 0.923880 -0.382683 0.000000
vn 0.923880 -0.382683 0.000000
vn 0.923880 -0.382683 0.000000
vn 0.923880 -0.382683 0.000000
vn 0.382684 0.923879 0.000000
vn 0.382684 0.923879 0.000000
vn 0.382684 0.923879 0.000000
vn 0.382683 0.923880 0.000000
vn 0.382683 0.923880 0.000000
vn 0.382683 0.923880 0.000000
vn 0.382683 -0.923880 0.000000
vn 0.382683 -0.923880 0.000000
vn 0.382683 -0.923880 0.000000
vn 0.382684 -0.923879 0.000000
vn 0.382684 -0.923879 0.000000
vn 0.382684 -0.923879 0.000000
vn -0.000000 0.000001 -1.000000
vn -0.000000 0.000001 -1.000000
vn -0.000000 0.000001 -1.000000
vn -0.923880 -0.382683 0.000000
vn -0.923880 -0.382683 0.000000
vn -0.923880 -0.382683 0.000000
vn -0.923880 -0.382683 0.000000
vn -0.923880 -0.382683 0.000000
vn -0.923880 -0.382683 0.000000
vn 0.923880 0.382683 0.000000
vn 0.923880 0.382683 0.000000
vn 0.923880 0.382683 0.000000
vn 0.923880 0.382683 0.000000
vn 0.923880 0.382683 0.000000
vn 0.923880 0.382683 0.000000
vn -0.000000 0.000000 -1.000000
vn -0.000000 0.000000 -1.000000
vn -0.000000 0.000000 -1.000000
vn -0.000000 0.000000 -1.000000
vn -0.000000 0.000000 -1.000000
vn -0.000000 0.000000 -1.000000
vn -0.000001 0.000003 -1.000000
vn -0.000001 0.000003 -1.000000
vn -0.000001 0.000003 -1.000000
vn -0.000000 0.000000 -1.000000
vn -0.000000 0.000000 -1.000000
vn -0.000000 0.000000 -1.000000
vn 0.000003 0.000002 -1.000000
vn 0.000003 0.000002 -1.000000
vn 0.000003 0.000002 -1.000000
vn 0.000001 0.000002 -1.000000
vn 0.000001 0.000002 -1.000000
vn 0.000001 0.000002 -1.000000
vn -0.000000 0.000003 -1.000000
vn -0.000000 0.000003 -1.000000
vn -0.000000 0.000003 -1.000000
vn 0.000001 -0.000002 1.000000
vn 0.000001 -0.000002 1.000000
vn 0.000001 -0.000002 1.000000
vn -0.382684 -0.923879 0.000000
vn -0.382684 -0.923879 0.000000
vn -0.382684 -0.923879 0.000000
vn -0.382683 -0.923880 0.000000
vn -0.382683 -0.923880 0.000000
vn -0.382683 -0.923880 0.000000
vn 0.923880 0.382683 0.000000
vn 0.923880 0.382683 0.000000
vn 0.923880 0.382683 0.000000
vn 0.923879 0.382683 0.000000
vn 0.923879 0.382683 0.000000
vn 0.923879 0.382683 0.000000
vn -0.923879 0.382684 0.000000
vn -0.923879 0.382684 0.000000
vn -0.923879 0.382684 0.000000
vn -0.923879 0.382684 0.000000
vn -0.923879 0.382684 0.000000
vn -0.923879 0.382684 0.000000
vn -0.382684 0.923879 0.000000
vn -0.382684 0.923879 0.000000
vn -0.382684 0.923879 0.000000
vn -0.382684 0.923879 0.000000
vn -0.382684 0.923879 0.000000
vn -0.382684 0.923879 0.000000
vn 0.923880 -0.382683 0.000000
vn 0.923880 -0.382683 0.000000
vn 0.923880 -0.382683 0.000000
vn 0.923880 -0.382683 0.000000
vn 0.923880 -0.382683 0.000000
vn 0.923880 -0.382683 0.000000
vn 0.382684 -0.923879 0.000000
vn 0.382684 -0.923879 0.000000
vn 0.382684 -0.923879 0.000000
vn 0.382683 -0.923880 0.000000
vn 0.382683 -0.923880 0.000000
vn 0.382683 -0.923880 0.000000
vn -0.923879 -0.382684 0.000000
vn -0.923879 -0.382684 0.000000
vn -0.923879 -0.382684 0.000000
vn -0.923879 -0.382684 0.000000
vn -0.923879 -0.382684 0.000000
vn -0.923879 -0.382684 0.000000
vn 0.382684 0.923880 0.000000
vn 0.382684 0.923880 0.000000
vn 0.382684 0.923880 0.000000
vn 0.382683 0.923880 0.000000
vn 0.382683 0.923880 0.000000
vn 0.382683 0.923880 0.000000
vn -0.000000 0.000001 -1.000000
vn -0.000000 0.000001 -1.000000
vn -0.000000 0.000001 -1.000000
vn -0.000002 0.000001 -1.000000
vn -0.000002 0.000001 -1.000000
vn -0.000002 0.000001 -1.000000
vn -0.000000 0.000000 -1.000000
vn -0.000000 0.000000 -1.000000
vn -0.000000 0.000000 -1.000000
vn -0.000000 0.000000 -1.000000
vn -0.000000 0.000000 -1.000000
vn -0.000000 0.000000 -1.000000
vn -0.000000 0.000000 -1.000000
vn -0.000000 0.000000 -1.000000
vn -0.000000 0.000000 -1.000000
vn -0.000000 0.000000 -1.000000
vn -0.000000 0.000000 -1.000000
vn -0.000000 0.000000 -1.000000
vn -0.000000 0.000000 -1.000000
vn -0.000000 0.000000 -1.000000
vn -0.000000 0.000000 -1.000000
vn -0.000000 0.000000 -1.000000
vn -0.000000 0.000000 -1.000000
vn -0.000000 0.000000 -1.000000
vn -0.000000 0.000000 -1.000000
vn -0.000000 0.000000 -1.000000
vn -0.000000 0.000000 -1.000000
vn -0.000000 -0.000003 -1.000000
vn -0.000000 -0.000003 -1.000000
vn -0.000000 -0.000003 -1.000000
vn -0.000000 -0.000001 1.000000
vn -0.000000 -0.000001 1.000000
vn -0.000000 -0.000001 1.000000
vn -0.000000 0.000000 1.000000
vn -0.000000 0.000000 1.000000
vn -0.000000 0.000000 1.000000
vn -0.000000 0.000001 1.000000
vn -0.000000 0.000001 1.000000
vn -0.000000 0.000001 1.000000
vn 0.000000 -0.000002 1.000000
vn 0.000000 -0.000002 1.000000
vn 0.000000 -0.000002 1.000000
vn -0.000000 -0.000001 1.000000
vn -0.000000 -0.000001 1.000000
vn -0.000000 -0.000001 1.000000
vn 0.923879 -0.382684 0.000000
vn 0.923879 -0.382684 0.000000
vn 0.923879 -0.382684 0.000000
vn 0.923880 -0.382683 0.000000
vn 0.923880 -0.382683 0.000000
vn 0.923880 -0.382683 0.000000
vn 0.923879 0.382684 0.000000
vn 0.923879 0.382684 0.000000
vn 0.923879 0.382684 0.000000
vn 0.923880 0.382683 0.000000
vn 0.923880 0.382683 0.000000
vn 0.923880 0.382683 0.000000
vn 0.382685 0.923879 0.000000
vn 0.382685 0.923879 0.000000
vn 0.382685 0.923879 0.000000
vn 0.382684 0.923879 0.000000
vn 0.382684 0.923879 0.000000
vn 0.382684 0.923879 0.000000
vn -0.923880 0.382683 0.000000
vn -0.923880 0.382683 0.000000
vn -0.923880 0.382683 0.000000
vn -0.923880 0.382683 0.000000
vn -0.923880 0.382683 0.000000
vn -0.923880 0.382683 0.000000
vn 0.382684 -0.923879 0.000000
vn 0.382684 -0.923879 0.000000
vn 0.382684 -0.923879 0.000000
vn 0.382685 -0.923879 0.000000
vn 0.382685 -0.923879 0.000000
vn 0.382685 -0.923879 0.000000
vn -0.923879 -0.382684 0.000000
vn -0.923879 -0.382684 0.000000
vn -0.923879 -0.382684 0.000000
vn -0.923879 -0.382684 0.000000
vn -0.923879 -0.382684 0.000000
vn -0.923879 -0.382684 0.000000
vn 0.382683 0.923880 0.000000
vn 0.382683 0.923880 0.000000
vn 0.382683 0.923880 0.000000
vn 0.382683 0.923880 0.000000
vn 0.382683 0.923880 0.000000
vn 0.382683 0.923880 0.000000
vn 0.923880 0.382683 0.000000
vn 0.923880 0.382683 0.000000
vn 0.923880 0.382683 0.000000
vn 0.923880 0.382683 0.000000
vn 0.923880 0.382683 0.000000
vn 0.923880 0.382683 0.000000
vn -0.382684 0.923879 0.000000
vn -0.382684 0.923879 0.000000
vn -0.382684 0.923879 0.000000
vn -0.382684 0.923879 0.000000
vn -0.382684 0.923879 0.000000
vn -0.382684 0.923879 0.000000
vn 0.382683 -0.923879 0.000000
vn 0.382683 -0.923879 0.000000
vn 0.382683 -0.923879 0.000000
vn 0.382684 -0.923880 0.000000
vn 0.382684 -0.923880 0.000000
vn 0.382684 -0.923880 0.000000
vn -0.382684 -0.923879 0.000000
vn -0.382684 -0.923879 0.000000
vn -0.382684 -0.923879 0.000000
vn -0.382684 -0.923879 0.000000
vn -0.382684 -0.923879 0.000000
vn -0.382684 -0.923879 0.000000
vn -0.000000 -0.000001 -1.000000
vn -0.000000 -0.000001 -1.000000
vn -0.000000 -0.000001 -1.000000
vn -0.000000 0.000000 -1.000000
vn -0.000000 0.000000 -1.000000
vn -0.000000 0.000000 -1.000000
vn -0.000000 0.000000 -1.000000
vn -0.000000 0.000000 -1.000000
vn -0.000000 0.000000 -1.000000
vn -0.000000 0.000000 -1.000000
vn -0.000000 0.000000 -1.000000
vn -0.000000 0.000000 -1.000000
vn -0.923880 -0.382683 0.000000
vn -0.923880 -0.382683 0.000000
vn -0.923880 -0.382683 0.000000
vn -0.923880 -0.382683 0.000000
vn -0.923880 -0.382683 0.000000
vn -0.923880 -0.382683 0.000000
vn -0.382683 0.923880 0.000000
vn -0.382683 0.923880 0.000000
vn -0.382683 0.923880 0.000000
vn -0.382684 0.923879 0.000000
vn -0.382684 0.923879 0.000000
vn -0.382684 0.923879 0.000000
vn -0.382684 -0.923879 0.000000
vn -0.382684 -0.923879 0.000000
vn -0.382684 -0.923879 0.000000
vn -0.382683 -0.923880 0.000000
vn -0.382683 -0.923880 0.000000
vn -0.382683 -0.923880 0.000000
vn 0.000000 0.000001 -1.000000
vn 0.000000 0.000001 -1.000000
vn 0.000000 0.000001 -1.000000
vn 0.923880 -0.382683 0.000000
vn 0.923880 -0.382683 0.000000
vn 0.923880 -0.382683 0.000000
vn 0.923880 -0.382683 0.000000
vn 0.923880 -0.382683 0.000000
vn 0.923880 -0.382683 0.000000
vn -0.923879 0.382684 0.000000
vn -0.923879 0.382684 0.000000
vn -0.923879 0.382684 0.000000
vn -0.923879 0.382684 0.000000
vn -0.923879 0.382684 0.000000
vn -0.923879 0.382684 0.000000
vn -0.000000 0.000000 -1.000000
vn -0.000000 0.000000 -1.000000
vn -0.000000 0.000000 -1.000000
vn -0.000000 0.000000 -1.000000
vn -0.000000 0.000000 -1.000000
vn -0.000000 0.000000 -1.000000
vn 0.000001 0.000002 -1.000000
vn 0.000001 0.000002 -1.000000
vn 0.000001 0.000002 -1.000000
vn -0.000000 0.000000 -1.000000
vn -0.000000 0.000000 -1.000000
vn -0.000000 0.000000 -1.000000
vn -0.000003 0.000001 -1.000000
vn -0.000003 0.000001 -1.000000
vn -0.000003 0.000001 -1.000000
vn -0.000000 0.923880 -0.382683
vn -0.000000 0.923880 -0.382683
vn -0.000000 0.923880 -0.382683
vn -0.000000 0.923879 -0.382684
vn -0.000000 0.923879 -0.382684
vn -0.000000 0.923879 -0.382684
vn -0.000000 0.382684 -0.923879
vn -0.000000 0.382684 -0.923879
vn -0.000000 0.382684 -0.923879
vn -0.000000 0.382684 -0.923879
vn -0.000000 0.382684 -0.923879
vn -0.000000 0.382684 -0.923879
vn -0.000000 -0.382684 -0.923879
vn -0.000000 -0.382684 -0.923879
vn -0.000000 -0.382684 -0.923879
vn -0.000000 -0.382684 -0.923879
vn -0.000000 -0.382684 -0.923879
vn -0.000000 -0.382684 -0.923879
vn -0.000000 -0.923879 -0.382684
vn -0.000000 -0.923879 -0.382684
vn -0.000000 -0.923879 -0.382684
vn -0.000000 -0.923880 -0.382683
vn -0.000000 -0.923880 -0.382683
vn -0.000000 -0.923880 -0.382683
vn -0.000000 -0.923880 0.382683
vn -0.000000 -0.923880 0.382683
vn -0.000000 -0.923880 0.382683
vn -0.000000 -0.923880 0.382683
vn -0.000000 -0.923880 0.382683
vn -0.000000 -0.923880 0.382683
vn -0.000000 -0.382684 0.923879
vn -0.000000 -0.382684 0.923879
vn -0.000000 -0.382684 0.923879
vn -0.000000 -0.382684 0.923879
vn -0.000000 -0.382684 0.923879
vn -0.000000 -0.382684 0.923879
vn -0.382684 0.000000 0.923879
vn -0.382684 0.000000 0.923879
vn -0.382684 0.000000 0.923879
vn -0.382684 0.000000 0.923879
vn -0.382684 0.000000 0.923879
vn -0.382684 0.000000 0.923879
vn -0.923880 0.000000 0.382683
vn -0.923880 0.000000 0.382683
vn -0.923880 0.000000 0.382683
vn -0.923879 0.000000 0.382684
vn -0.923879 0.000000 0.382684
vn -0.923879 0.000000 0.382684
vn -0.923880 0.000000 -0.382684
vn -0.923880 0.000000 -0.382684
vn -0.923880 0.000000 -0.382684
vn -0.923880 0.000000 -0.382683
vn -0.923880 0.000000 -0.382683
vn -0.923880 0.000000 -0.382683
vn -0.382684 0.000000 -0.923879
vn -0.382684 0.000000 -0.923879
vn -0.382684 0.000000 -0.923879
vn -0.382684 0.000000 -0.923879
vn -0.382684 0.000000 -0.923879
vn -0.382684 0.000000 -0.923879
vn 0.382684 0.000000 -0.923879
vn 0.382684 0.000000 -0.923879
vn 0.382684 0.000000 -0.923879
vn 0.382684 0.000000 -0.923879
vn 0.382684 0.000000 -0.923879
vn 0.382684 0.000000 -0.923879
vn 0.923880 0.000000 -0.382684
vn 0.923880 0.000000 -0.382684
vn 0.923880 0.000000 -0.382684
vn 0.923879 0.000000 -0.382684
vn 0.923879 0.000000 -0.382684
vn 0.923879 0.000000 -0.382684
vn 0.923880 0.000000 0.382683
vn 0.923880 0.000000 0.382683
vn 0.923880 0.000000 0.382683
vn 0.923880 0.000000 0.382683
vn 0.923880 0.000000 0.382683
vn 0.923880 0.000000 0.382683
vn 0.382684 0.000000 0.923879
vn 0.382684 0.000000 0.923879
vn 0.382684 0.000000 0.923879
vn 0.382684 0.000000 0.923879
vn 0.382684 0.000000 0.923879
vn 0.382684 0.000000 0.923879
vn -0.000000 -1.000000 0.000000
vn -0.000000 -1.000000 0.000000
vn -0.000000 -1.000000 0.000000
vn -0.000000 -1.000000 0.000000
vn -0.000000 -1.000000 0.000000
vn -0.000000 -1.000000 0.000000
vn -0.000000 -1.000000 0.000000
vn -0.000000 -1.000000 0.000000
vn -0.000000 -1.000000 0.000000
vn -0.000000 0.923880 0.382683
vn -0.000000 0.923880 0.382683
vn -0.000000 0.923880 0.382683
vn -0.000000 0.923880 0.382683
vn -0.000000 0.923880 0.382683
vn -0.000000 0.923880 0.382683
vn -0.000000 0.382684 0.923879
vn -0.000000 0.382684 0.923879
vn -0.000000 0.382684 0.923879
vn -0.000000 0.382684 0.923879
vn -0.000000 0.382684 0.923879
vn -0.000000 0.382684 0.923879
vn 0.767644 0.640877 0.000000
vn 0.767644 0.640877 0.000000
vn 0.767644 0.640877 0.000000
vn 0.767644 0.640877 0.000000
vn 0.767644 0.640877 0.000000
vn 0.767644 0.640877 0.000000
vn 0.063383 -0.063383 0.995974
vn 0.063383 -0.063383 0.995974
vn 0.063383 -0.063383 0.995974
vn 0.063383 -0.063383 0.995974
vn 0.063383 -0.063383 0.995974
vn 0.063383 -0.063383 0.995974
vn -0.640877 -0.767644 0.000000
vn -0.640877 -0.767644 0.000000
vn -0.640877 -0.767644 0.000000
vn -0.640877 -0.767644 0.000000
vn -0.640877 -0.767644 0.000000
vn -0.640877 -0.767644 0.000000
vn 0.063383 -0.063383 -0.995974
vn 0.063383 -0.063383 -0.995974
vn 0.063383 -0.063383 -0.995974
vn 0.063383 -0.063384 -0.995975
vn 0.063383 -0.063384 -0.995975
vn 0.063383 -0.063384 -0.995975
vn 0.707107 -0.707107 0.000000
vn 0.707107 -0.707107 0.000000
vn 0.707107 -0.707107 0.000000
vn 0.707107 -0.707107 0.000000
vn 0.707107 -0.707107 0.000000
vn 0.707107 -0.707107 0.000000
vn -0.707107 0.707107 0.000000
vn -0.707107 0.707107 0.000000
vn -0.707107 0.707107 0.000000
vn -0.707107 0.707107 0.000000
vn -0.707107 0.707107 0.000000
vn -0.707107 0.707107 0.000000
vn -0.063383 0.063383 -0.995974
vn -0.063383 0.063383 -0.995974
vn -0.063383 0.063383 -0.995974
vn -0.063383 0.063384 -0.995974
vn -0.063383 0.063384 -0.995974
vn -0.063383 0.063384 -0.995974
vn -0.000000 0.000000 -1.000000
vn -0.000000 0.000000 -1.000000
vn -0.000000 0.000000 -1.000000
vn -0.000000 0.000000 -1.000000
vn -0.000000 0.000000 -1.000000
vn -0.000000 0.000000 -1.000000
vn -0.767644 -0.640877 0.000000
vn -0.767644 -0.640877 0.000000
vn -0.767644 -0.640877 0.000000
vn -0.767644 -0.640877 0.000000
vn -0.767644 -0.640877 0.000000
vn -0.767644 -0.640877 0.000000
vn -0.707107 -0.707107 0.000000
vn -0.707107 -0.707107 0.000000
vn -0.707107 -0.707107 0.000000
vn -0.707107 -0.707107 0.000000
vn -0.707107 -0.707107 0.000000
vn -0.707107 -0.707107 0.000000
vn -0.063383 0.063383 0.995974
vn -0.063383 0.063383 0.995974
vn -0.063383 0.063383 0.995974
vn -0.063383 0.063383 0.995974
vn -0.063383 0.063383 0.995974
vn -0.063383 0.063383 0.995974
vn -0.000000 0.000001 1.000000
vn -0.000000 0.000001 1.000000
vn -0.000000 0.000001 1.000000
vn -0.000000 0.000000 1.000000
vn -0.000000 0.000000 1.000000
vn -0.000000 0.000000 1.000000
vn 0.640877 0.767644 0.000000
vn 0.640877 0.767644 0.000000
vn 0.640877 0.767644 0.000000
vn 0.640877 0.767644 0.000000
vn 0.640877 0.767644 0.000000
vn 0.640877 0.767644 0.000000
vn 0.707107 0.707107 0.000000
vn 0.707107 0.707107 0.000000
vn 0.707107 0.707107 0.000000
vn 0.707107 0.707107 0.000000
vn 0.707107 0.707107 0.000000
vn 0.707107 0.707107 0.000000
vn -0.640877 0.767644 0.000000
vn -0.640877 0.767644 0.000000
vn -0.640877 0.767644 0.000000
vn -0.640877 0.767644 0.000000
vn -0.640877 0.767644 0.000000
vn -0.640877 0.767644 0.000000
vn 0.063383 0.063383 0.995974
vn 0.063383 0.063383 0.995974
vn 0.063383 0.063383 0.995974
vn 0.063383 0.063383 0.995974
vn 0.063383 0.063383 0.995974
vn 0.063383 0.063383 0.995974
vn 0.767644 -0.640877 0.000000
vn 0.767644 -0.640877 0.000000
vn 0.767644 -0.640877 0.000000
vn 0.767644 -0.640877 0.000000
vn 0.767644 -0.640877 0.000000
vn 0.767644 -0.640877 0.000000
vn 0.063383 0.063383 -0.995974
vn 0.063383 0.063383 -0.995974
vn 0.063383 0.063383 -0.995974
vn 0.063383 0.063384 -0.995974
vn 0.063383 0.063384 -0.995974
vn 0.063383 0.063384 -0.995974
vn 0.707107 0.707107 0.000000
vn 0.707107 0.707107 0.000000
vn 0.707107 0.707107 0.000000
vn 0.707107 0.707107 0.000000
vn 0.707107 0.707107 0.000000
vn 0.707107 0.707107 0.000000
vn -0.707107 -0.707107 0.000000
vn -0.707107 -0.707107 0.000000
vn -0.707107 -0.707107 0.000000
vn -0.707107 -0.707107 0.000000
vn -0.707107 -0.707107 0.000000
vn -0.707107 -0.707107 0.000000
vn -0.063383 -0.063384 -0.995974
vn -0.063383 -0.063384 -0.995974
vn -0.063383 -0.063384 -0.995974
vn -0.063383 -0.063383 -0.995974
vn -0.063383 -0.063383 -0.995974
vn -0.063383 -0.063383 -0.995974
vn -0.000000 0.000000 -1.000000
vn -0.000000 0.000000 -1.000000
vn -0.000000 0.000000 -1.000000
vn -0.000000 0.000000 -1.000000
vn -0.000000 0.000000 -1.000000
vn -0.000000 0.000000 -1.000000
vn 0.640877 -0.767644 0.000000
vn 0.640877 -0.767644 0.000000
vn 0.640877 -0.767644 0.000000
vn 0.640877 -0.767644 0.000000
vn 0.640877 -0.767644 0.000000
vn 0.640877 -0.767644 0.000000
vn 0.707107 -0.707107 0.000000
vn 0.707107 -0.707107 0.000000
vn 0.707107 -0.707107 0.000000
vn 0.707107 -0.707107 0.000000
vn 0.707107 -0.707107 0.000000
vn 0.707107 -0.707107 0.000000
vn -0.063383 -0.063384 0.995974
vn -0.063383 -0.063384 0.995974
vn -0.063383 -0.063384 0.995974
vn -0.063383 -0.063384 0.995974
vn -0.063383 -0.063384 0.995974
vn -0.063383 -0.063384 0.995974
vn -0.000000 -0.000001 1.000000
vn -0.000000 -0.000001 1.000000
vn -0.000000 -0.000001 1.000000
vn -0.000000 0.000000 1.000000
vn -0.000000 0.000000 1.000000
vn -0.000000 0.000000 1.000000
vn -0.767644 0.640877 0.000000
vn -0.767644 0.640877 0.000000
vn -0.767644 0.640877 0.000000
vn -0.767644 0.640877 0.000000
vn -0.767644 0.640877 0.000000
vn -0.767644 0.640877 0.000000
vn -0.707107 0.707107 0.000000
vn -0.707107 0.707107 0.000000
vn -0.707107 0.707107 0.000000
vn -0.707107 0.707107 0.000000
vn -0.707107 0.707107 0.000000
vn -0.707107 0.707107 0.000000
vn -0.000000 -1.000000 0.000000
vn -0.000000 -1.000000 0.000000
vn -0.000000 -1.000000 0.000000
vn -0.000000 -1.000000 0.000000
vn -0.000000 -1.000000 0.000000
vn -0.000000 -1.000000 0.000000
vn -0.000000 -1.000000 0.000000
vn -0.000000 -1.000000 0.000000
vn -0.000000 -1.000000 0.000000
vn -0.000000 0.923880 -0.382683
vn -0.000000 0.923880 -0.382683
vn -0.000000 0.923880 -0.382683
vn 0.000000 0.923879 -0.382684
vn 0.000000 0.923879 -0.382684
vn 0.000000 0.923879 -0.382684
vn 0.000000 0.382684 -0.923879
vn 0.000000 0.382684 -0.923879
vn 0.000000 0.382684 -0.923879
vn -0.000000 0.382684 -0.923879
vn -0.000000 0.382684 -0.923879
vn -0.000000 0.382684 -0.923879
vn -0.000000 -0.382684 -0.923879
vn -0.000000 -0.382684 -0.923879
vn -0.000000 -0.382684 -0.923879
vn -0.000000 -0.382684 -0.923879
vn -0.000000 -0.382684 -0.923879
vn -0.000000 -0.382684 -0.923879
vn -0.000000 -0.923880 -0.382683
vn -0.000000 -0.923880 -0.382683
vn -0.000000 -0.923880 -0.382683
vn -0.000000 -0.923879 -0.382684
vn -0.000000 -0.923879 -0.382684
vn -0.000000 -0.923879 -0.382684
vn -0.000000 -0.923880 0.382683
vn -0.000000 -0.923880 0.382683
vn -0.000000 -0.923880 0.382683
vn -0.000000 -0.923880 0.382683
vn -0.000000 -0.923880 0.382683
vn -0.000000 -0.923880 0.382683
vn -0.000000 -0.382684 0.923879
vn -0.000000 -0.382684 0.923879
vn -0.000000 -0.382684 0.923879
vn -0.000000 -0.382684 0.923879
vn -0.000000 -0.382684 0.923879
vn -0.000000 -0.382684 0.923879
vn -0.000000 0.923880 0.382683
vn -0.000000 0.923880 0.382683
vn -0.000000 0.923880 0.382683
vn -0.000000 0.923880 0.382683
vn -0.000000 0.923880 0.382683
vn -0.000000 0.923880 0.382683
vn -0.000000 0.382684 0.923879
vn -0.000000 0.382684 0.923879
vn -0.000000 0.382684 0.923879
vn -0.000000 0.382684 0.923879
vn -0.000000 0.382684 0.923879
vn -0.000000 0.382684 0.923879
vn -0.767644 0.640877 0.000000
vn -0.767644 0.640877 0.000000
vn -0.767644 0.640877 0.000000
vn -0.767644 0.640877 0.000000
vn -0.767644 0.640877 0.000000
vn -0.767644 0.640877 0.000000
vn -0.063383 -0.063384 0.995974
vn -0.063383 -0.063384 0.995974
vn -0.063383 -0.063384 0.995974
vn -0.063383 -0.063384 0.995974
vn -0.063383 -0.063384 0.995974
vn -0.063383 -0.063384 0.995974
vn 0.640877 -0.767644 0.000000
vn 0.640877 -0.767644 0.000000
vn 0.640877 -0.767644 0.000000
vn 0.640877 -0.767643 0.000000
vn 0.640877 -0.767643 0.000000
vn 0.640877 -0.767643 0.000000
vn -0.063383 -0.063384 -0.995974
vn -0.063383 -0.063384 -0.995974
vn -0.063383 -0.063384 -0.995974
vn -0.063384 -0.063383 -0.995974
vn -0.063384 -0.063383 -0.995974
vn -0.063384 -0.063383 -0.995974
vn -0.707107 -0.707107 0.000000
vn -0.707107 -0.707107 0.000000
vn -0.707107 -0.707107 0.000000
vn -0.707107 -0.707107 0.000000
vn -0.707107 -0.707107 0.000000
vn -0.707107 -0.707107 0.000000
vn 0.707107 0.707107 0.000000
vn 0.707107 0.707107 0.000000
vn 0.707107 0.707107 0.000000
vn 0.707107 0.707107 0.000000
vn 0.707107 0.707107 0.000000
vn 0.707107 0.707107 0.000000
vn 0.063383 0.063384 -0.995974
vn 0.063383 0.063384 -0.995974
vn 0.063383 0.063384 -0.995974
vn 0.063383 0.063383 -0.995975
vn 0.063383 0.063383 -0.995975
vn 0.063383 0.063383 -0.995975
vn -0.000000 0.000000 -1.000000
vn -0.000000 0.000000 -1.000000
vn -0.000000 0.000000 -1.000000
vn -0.000000 0.000000 -1.000000
vn -0.000000 0.000000 -1.000000
vn -0.000000 0.000000 -1.000000
vn 0.767644 -0.640877 0.000000
vn 0.767644 -0.640877 0.000000
vn 0.767644 -0.640877 0.000000
vn 0.767643 -0.640877 0.000000
vn 0.767643 -0.640877 0.000000
vn 0.767643 -0.640877 0.000000
vn 0.707107 -0.707107 0.000000
vn 0.707107 -0.707107 0.000000
vn 0.707107 -0.707107 0.000000
vn 0.707107 -0.707107 0.000000
vn 0.707107 -0.707107 0.000000
vn 0.707107 -0.707107 0.000000
vn 0.063383 0.063383 0.995974
vn 0.063383 0.063383 0.995974
vn 0.063383 0.063383 0.995974
vn 0.063383 0.063383 0.995975
vn 0.063383 0.063383 0.995975
vn 0.063383 0.063383 0.995975
vn -0.000000 -0.000000 1.000000
vn -0.000000 -0.000000 1.000000
vn -0.000000 -0.000000 1.000000
vn -0.000000 0.000000 1.000000
vn -0.000000 0.000000 1.000000
vn -0.000000 0.000000 1.000000
vn -0.640876 0.767644 0.000000
vn -0.640876 0.767644 0.000000
vn -0.640876 0.767644 0.000000
vn -0.640877 0.767644 0.000000
vn -0.640877 0.767644 0.000000
vn -0.640877 0.767644 0.000000
vn -0.707107 0.707107 0.000000
vn -0.707107 0.707107 0.000000
vn -0.707107 0.707107 0.000000
vn -0.707107 0.707107 0.000000
vn -0.707107 0.707107 0.000000
vn -0.707107 0.707107 0.000000
vn 0.640877 0.767644 0.000000
vn 0.640877 0.767644 0.000000
vn 0.640877 0.767644 0.000000
vn 0.640877 0.767644 0.000000
vn 0.640877 0.767644 0.000000
vn 0.640877 0.767644 0.000000
vn -0.063383 0.063384 0.995974
vn -0.063383 0.063384 0.995974
vn -0.063383 0.063384 0.995974
vn -0.063383 0.063383 0.995974
vn -0.063383 0.063383 0.995974
vn -0.063383 0.063383 0.995974
vn -0.767644 -0.640877 0.000000
vn -0.767644 -0.640877 0.000000
vn -0.767644 -0.640877 0.000000
vn -0.767644 -0.640877 0.000000
vn -0.767644 -0.640877 0.000000
vn -0.767644 -0.640877 0.000000
vn -0.063383 0.063383 -0.995974
vn -0.063383 0.063383 -0.995974
vn -0.063383 0.063383 -0.995974
vn -0.063383 0.063383 -0.995974
vn -0.063383 0.063383 -0.995974
vn -0.063383 0.063383 -0.995974
vn -0.707107 0.707107 0.000000
vn -0.707107 0.707107 0.000000
vn -0.707107 0.707107 0.000000
vn -0.707107 0.707107 0.000000
vn -0.707107 0.707107 0.000000
vn -0.707107 0.707107 0.000000
vn 0.707107 -0.707107 0.000000
vn 0.707107 -0.707107 0.000000
vn 0.707107 -0.707107 0.000000
vn 0.707107 -0.707107 0.000000
vn 0.707107 -0.707107 0.000000
vn 0.707107 -0.707107 0.000000
vn 0.063383 -0.063383 -0.995974
vn 0.063383 -0.063383 -0.995974
vn 0.063383 -0.063383 -0.995974
vn 0.063383 -0.063384 -0.995974
vn 0.063383 -0.063384 -0.995974
vn 0.063383 -0.063384 -0.995974
vn -0.000000 0.000000 -1.000000
vn -0.000000 0.000000 -1.000000
vn -0.000000 0.000000 -1.000000
vn -0.000000 0.000000 -1.000000
vn -0.000000 0.000000 -1.000000
vn -0.000000 0.000000 -1.000000
vn -0.640877 -0.767644 0.000000
vn -0.640877 -0.767644 0.000000
vn -0.640877 -0.767644 0.000000
vn -0.640876 -0.767644 0.000000
vn -0.640876 -0.767644 0.000000
vn -0.640876 -0.767644 0.000000
vn -0.707107 -0.707107 0.000000
vn -0.707107 -0.707107 0.000000
vn -0.707107 -0.707107 0.000000
vn -0.707107 -0.707107 0.000000
vn -0.707107 -0.707107 0.000000
vn -0.707107 -0.707107 0.000000
vn 0.063383 -0.063383 0.995974
vn 0.063383 -0.063383 0.995974
vn 0.063383 -0.063383 0.995974
vn 0.063383 -0.063383 0.995974
vn 0.063383 -0.063383 0.995974
vn 0.063383 -0.063383 0.995974
vn -0.000000 0.000000 1.000000
vn -0.000000 0.000000 1.000000
vn -0.000000 0.000000 1.000000
vn -0.000000 0.000000 1.000000
vn -0.000000 0.000000 1.000000
vn -0.000000 0.000000 1.000000
vn 0.767644 0.640877 0.000000
vn 0.767644 0.640877 0.000000
vn 0.767644 0.640877 0.000000
vn 0.767644 0.640877 0.000000
vn 0.767644 0.640877 0.000000
vn 0.767644 0.640877 0.000000
vn 0.707107 0.707107 0.000000
vn 0.707107 0.707107 0.000000
vn 0.707107 0.707107 0.000000
vn 0.707107 0.707107 0.000000
vn 0.707107 0.707107 0.000000
vn 0.707107 0.707107 0.000000

g Material.011
f 3/1/1 1/2/2 2/3/3
f 6/4/4 4/5/5 5/6/6
f 9/7/7 7/8/8 8/9/9
f 12/10/10 10/11/11 11/12/12
f 15/13/13 13/14/14 14/15/15
f 18/16/16 16/17/17 17/18/18
f 21/19/19 19/20/20 20/21/21
f 24/22/22 22/23/23 23/24/24
f 27/25/25 25/26/26 26/27/27
f 30/28/28 28/29/29 29/30/30
f 33/31/31 31/32/32 32/33/33
f 36/34/34 34/35/35 35/36/36
f 39/37/37 37/38/38 38/39/39
f 42/40/40 40/41/41 41/42/42
f 45/43/43 43/44/44 44/45/45
f 48/46/46 46/47/47 47/48/48
f 51/49/49 49/50/50 50/51/51
f 54/52/52 52/53/53 53/54/54
f 57/55/55 55/56/56 56/57/57
f 60/58/58 58/59/59 59/60/60
f 63/61/61 61/62/62 62/63/63
f 66/64/64 64/65/65 65/66/66
f 69/67/67 67/68/68 68/69/69
f 72/70/70 70/71/71 71/72/72
f 75/73/73 73/74/74 74/75/75
f 78/76/76 76/77/77 77/78/78
f 81/79/79 79/80/80 80/81/81
f 84/82/82 82/83/83 83/84/84
f 87/85/85 85/86/86 86/87/87
f 88/88/88 85/89/89 87/90/90
f 91/91/91 89/92/92 90/93/93
f 92/94/94 89/95/95 91/96/96
f 95/97/97 93/98/98 94/99/99
f 96/100/100 93/101/101 95/102/102
f 99/103/103 97/104/104 98/105/105
f 102/106/106 100/107/107 101/108/108
f 105/109/109 103/110/110 104/111/111
f 108/112/112 106/113/113 107/114/114
f 111/115/115 109/116/116 110/117/117
f 114/118/118 112/119/119 113/120/120
f 117/121/121 115/122/122 116/123/123
f 120/124/124 118/125/125 119/126/126
f 121/127/127 118/128/128 120/129/129
f 124/130/130 122/131/131 123/132/132
f 127/133/133 125/134/134 126/135/135
f 128/136/136 125/137/137 127/138/138
f 131/139/139 129/140/140 130/141/141
f 132/142/142 129/143/143 131/144/144
f 135/145/145 133/146/146 134/147/147
f 136/148/148 133/149/149 135/150/150
f 139/151/151 137/152/152 138/153/153
f 140/154/154 137/155/155 139/156/156
f 143/157/157 141/158/158 142/159/159
f 144/160/160 141/161/161 143/162/162
f 147/163/163 145/164/164 146/165/165
f 148/166/166 145/167/167 147/168/168
f 151/169/169 149/170/170 150/171/171
f 152/172/172 149/173/173 151/174/174
f 155/175/175 153/176/176 154/177/177
f 156/178/178 153/179/179 155/180/180
f 159/181/181 157/182/182 158/183/183
f 160/184/184 157/185/185 159/186/186
f 163/187/187 161/188/188 162/189/189
f 164/190/190 161/191/191 163/192/192
f 167/193/193 165/194/194 166/195/195
f 168/196/196 165/197/197 167/198/198
f 171/199/199 169/200/200 170/201/201
f 172/202/202 169/203/203 171/204/204
f 175/205/205 173/206/206 174/207/207
f 176/208/208 173/209/209 175/210/210
f 179/211/211 177/212/212 178/213/213
f 182/214/214 180/215/215 181/216/216
f 185/217/217 183/218/218 184/219/219
f 188/220/220 186/221/221 187/222/222
f 191/223/223 189/224/224 190/225/225
f 194/226/226 192/227/227 193/228/228
f 195/229/229 192/230/230 194/231/231
f 198/232/232 196/233/233 197/234/234
f 199/235/235 196/236/236 198/237/237
f 202/238/238 200/239/239 201/240/240
f 203/241/241 200/242/242 202/243/243
f 206/244/244 204/245/245 205/246/246
f 207/247/247 204/248/248 206/249/249
f 210/250/250 208/251/251 209/252/252
f 211/253/253 208/254/254 210/255/255
f 273/256/256 271/257/257 272/258/258
f 274/259/259 271/260/260 273/261/261
f 277/262/262 275/263/263 276/264/264
f 278/265/265 275/266/266 277/267/267
f 281/268/268 279/269/269 280/270/270
f 282/271/271 279/272/272 281/273/273
f 285/274/274 283/275/275 284/276/276
f 286/277/277 283/278/278 285/279/279
f 289/280/280 287/281/281 288/282/282
f 290/283/283 287/284/284 289/285/285
f 293/286/286 291/287/287 292/288/288
f 294/289/289 291/290/290 293/291/291
f 297/292/292 295/293/293 296/294/294
f 298/295/295 295/296/296 297/297/297
f 301/298/298 299/299/299 300/300/300
f 302/301/301 299/302/302 301/303/303
f 305/304/304 303/305/305 304/306/306
f 306/307/307 303/308/308 305/309/309
f 309/310/310 307/311/311 308/312/312
f 310/313/313 307/314/314 309/315/315
f 313/316/316 311/317/317 312/318/318
f 314/319/319 311/320/320 313/321/321
f 323/322/322 321/323/323 322/324/324
f 326/325/325 324/326/326 325/327/327
f 327/328/328 324/329/329 326/330/330
f 330/331/331 328/332/332 329/333/333
f 331/334/334 328/335/335 330/336/336
f 463/337/337 461/338/338 462/339/339
f 466/340/340 464/341/341 465/342/342
f 469/343/343 467/344/344 468/345/345
f 472/346/346 470/347/347 471/348/348
f 475/349/349 473/350/350 474/351/351
f 478/352/352 476/353/353 477/354/354
f 479/355/355 476/356/356 478/357/357
f 482/358/358 480/359/359 481/360/360
f 485/361/361 483/362/362 484/363/363
f 486/364/364 483/365/365 485/366/366
f 489/367/367 487/368/368 488/369/369
f 490/370/370 487/371/371 489/372/372
f 493/373/373 491/374/374 492/375/375
f 494/376/376 491/377/377 493/378/378
f 497/379/379 495/380/380 496/381/381
f 498/382/382 495/383/383 497/384/384
f 501/385/385 499/386/386 500/387/387
f 502/388/388 499/389/389 501/390/390
f 505/391/391 503/392/392 504/393/393
f 506/394/394 503/395/395 505/396/396
f 509/397/397 507/398/398 508/399/399
f 510/400/400 507/401/401 509/402/402
f 513/403/403 511/404/404 512/405/405
f 514/406/406 511/407/407 513/408/408
f 517/409/409 515/410/410 516/411/411
f 518/412/412 515/413/413 517/414/414
f 521/415/415 519/416/416 520/417/417
f 522/418/418 519/419/419 521/420/420
f 525/421/421 523/422/422 524/423/423
f 526/424/424 523/425/425 525/426/426
f 529/427/427 527/428/428 528/429/429
f 530/430/430 527/431/431 529/432/432
f 533/433/433 531/434/434 532/435/435
f 534/436/436 531/437/437 533/438/438
f 537/439/439 535/440/440 536/441/441
f 540/442/442 538/443/443 539/444/444
f 543/445/445 541/446/446 542/447/447
f 546/448/448 544/449/449 545/450/450
f 549/451/451 547/452/452 548/453/453
f 552/454/454 550/455/455 551/456/456
f 553/457/457 550/458/458 552/459/459
f 556/460/460 554/461/461 555/462/462
f 557/463/463 554/464/464 556/465/465
f 560/466/466 558/467/467 559/468/468
f 561/469/469 558/470/470 560/471/471
f 564/472/472 562/473/473 563/474/474
f 565/475/475 562/476/476 564/477/477
f 568/478/478 566/479/479 567/480/480
f 569/481/481 566/482/482 568/483/483
f 596/484/484 594/485/485 595/486/486
f 597/487/487 594/488/488 596/489/489
f 600/490/490 598/491/491 599/492/492
f 601/493/493 598/494/494 600/495/495
f 604/496/496 602/497/497 603/498/498
f 605/499/499 602/500/500 604/501/501
f 608/502/502 606/503/503 607/504/504
f 609/505/505 606/506/506 608/507/507
f 612/508/508 610/509/509 611/510/510
f 613/511/511 610/512/512 612/513/513
f 616/514/514 614/515/515 615/516/516
f 617/517/517 614/518/518 616/519/519
f 620/520/520 618/521/521 619/522/522
f 621/523/523 618/524/524 620/525/525
f 624/526/526 622/527/527 623/528/528
f 625/529/529 622/530/530 624/531/531
f 628/532/532 626/533/533 627/534/534
f 629/535/535 626/536/536 628/537/537
f 632/538/538 630/539/539 631/540/540
f 633/541/541 630/542/542 632/543/543
f 636/544/544 634/545/545 635/546/546
f 637/547/547 634/548/548 636/549/549
f 640/550/550 638/551/551 639/552/552
f 643/553/553 641/554/554 642/555/555
f 644/556/556 641/557/557 643/558/558
f 647/559/559 645/560/560 646/561/561
f 648/562/562 645/563/563 647/564/564
f 771/565/565 769/566/566 770/567/567
f 774/568/568 772/569/569 773/570/570
f 777/571/571 775/572/572 776/573/573
f 780/574/574 778/575/575 779/576/576
f 783/577/577 781/578/578 782/579/579

g Material.001
f 214/580/580 212/581/581 213/582/582
f 215/583/583 212/584/584 214/585/585
f 218/586/586 216/587/587 217/588/588
f 219/589/589 216/590/590 218/591/591
f 222/592/592 220/593/593 221/594/594
f 223/595/595 220/596/596 222/597/597
f 226/598/598 224/599/599 225/600/600
f 227/601/601 224/602/602 226/603/603
f 230/604/604 228/605/605 229/606/606
f 231/607/607 228/608/608 230/609/609
f 234/610/610 232/611/611 233/612/612
f 235/613/613 232/614/614 234/615/615
f 238/616/616 236/617/617 237/618/618
f 239/619/619 236/620/620 238/621/621
f 242/622/622 240/623/623 241/624/624
f 243/625/625 240/626/626 242/627/627
f 246/628/628 244/629/629 245/630/630
f 247/631/631 244/632/632 246/633/633
f 250/634/634 248/635/635 249/636/636
f 251/637/637 248/638/638 250/639/639
f 254/640/640 252/641/641 253/642/642
f 255/643/643 252/644/644 254/645/645
f 258/646/646 256/647/647 257/648/648
f 259/649/649 256/650/650 258/651/651
f 262/652/652 260/653/653 261/654/654
f 263/655/655 260/656/656 262/657/657
f 266/658/658 264/659/659 265/660/660
f 267/661/661 264/662/662 266/663/663
f 270/664/664 268/665/665 269/666/666
f 317/667/667 315/668/668 316/669/669
f 320/670/670 318/671/671 319/672/672
f 334/673/673 332/674/674 333/675/675
f 335/676/676 332/677/677 334/678/678
f 338/679/679 336/680/680 337/681/681
f 339/682/682 336/683/683 338/684/684
f 342/685/685 340/686/686 341/687/687
f 343/688/688 340/689/689 342/690/690
f 346/691/691 344/692/692 345/693/693
f 347/694/694 344/695/695 346/696/696
f 350/697/697 348/698/698 349/699/699
f 351/700/700 348/701/701 350/702/702
f 354/703/703 352/704/704 353/705/705
f 355/706/706 352/707/707 354/708/708
f 358/709/709 356/710/710 357/711/711
f 359/712/712 356/713/713 358/714/714
f 362/715/715 360/716/716 361/717/717
f 363/718/718 360/719/719 362/720/720
f 366/721/721 364/722/722 365/723/723
f 367/724/724 364/725/725 366/726/726
f 370/727/727 368/728/728 369/729/729
f 371/730/730 368/731/731 370/732/732
f 374/733/733 372/734/734 373/735/735
f 375/736/736 372/737/737 374/738/738
f 378/739/739 376/740/740 377/741/741
f 379/742/742 376/743/743 378/744/744
f 382/745/745 380/746/746 381/747/747
f 383/748/748 380/749/749 382/750/750
f 386/751/751 384/752/752 385/753/753
f 387/754/754 384/755/755 386/756/756
f 390/757/757 388/758/758 389/759/759
f 391/760/760 388/761/761 390/762/762
f 394/763/763 392/764/764 393/765/765
f 395/766/766 392/767/767 394/768/768
f 398/769/769 396/770/770 397/771/771
f 399/772/772 396/773/773 398/774/774
f 402/775/775 400/776/776 401/777/777
f 403/778/778 400/779/779 402/780/780
f 406/781/781 404/782/782 405/783/783
f 407/784/784 404/785/785 406/786/786
f 410/787/787 408/788/788 409/789/789
f 411/790/790 408/791/791 410/792/792
f 414/793/793 412/794/794 413/795/795
f 415/796/796 412/797/797 414/798/798
f 418/799/799 416/800/800 417/801/801
f 419/802/802 416/803/803 418/804/804
f 422/805/805 420/806/806 421/807/807
f 423/808/808 420/809/809 422/810/810
f 426/811/811 424/812/812 425/813/813
f 427/814/814 424/815/815 426/816/816
f 430/817/817 428/818/818 429/819/819
f 431/820/820 428/821/821 430/822/822
f 434/823/823 432/824/824 433/825/825
f 435/826/826 432/827/827 434/828/828
f 438/829/829 436/830/830 437/831/831
f 439/832/832 436/833/833 438/834/834
f 442/835/835 440/836/836 441/837/837
f 443/838/838 440/839/839 442/840/840
f 446/841/841 444/842/842 445/843/843
f 447/844/844 444/845/845 446/846/846
f 450/847/847 448/848/848 449/849/849
f 451/850/850 448/851/851 450/852/852
f 454/853/853 452/854/854 453/855/855
f 457/856/856 455/857/857 456/858/858
f 460/859/859 458/860/860 459/861/861
f 572/862/862 570/863/863 571/864/864
f 573/865/865 570/866/866 572/867/867
f 576/868/868 574/869/869 575/870/870
f 577/871/871 574/872/872 576/873/873
f 580/874/874 578/875/875 579/876/876
f 581/877/877 578/878/878 580/879/879
f 584/880/880 582/881/881 583/882/882
f 585/883/883 582/884/884 584/885/885
f 588/886/886 586/887/887 587/888/888
f 589/889/889 586/890/890 588/891/891
f 592/892/892 590/893/893 591/894/894
f 593/895/895 590/896/896 592/897/897
f 651/898/898 649/899/899 650/900/900
f 652/901/901 649/902/902 651/903/903
f 655/904/904 653/905/905 654/906/906
f 656/907/907 653/908/908 655/909/909
f 659/910/910 657/911/911 658/912/912
f 660/913/913 657/914/914 659/915/915
f 663/916/916 661/917/917 662/918/918
f 664/919/919 661/920/920 663/921/921
f 667/922/922 665/923/923 666/924/924
f 668/925/925 665/926/926 667/927/927
f 671/928/928 669/929/929 670/930/930
f 672/931/931 669/932/932 671/933/933
f 675/934/934 673/935/935 674/936/936
f 676/937/937 673/938/938 675/939/939
f 679/940/940 677/941/941 678/942/942
f 680/943/943 677/944/944 679/945/945
f 683/946/946 681/947/947 682/948/948
f 684/949/949 681/950/950 683/951/951
f 687/952/952 685/953/953 686/954/954
f 688/955/955 685/956/956 687/957/957
f 691/958/958 689/959/959 690/960/960
f 692/961/961 689/962/962 691/963/963
f 695/964/964 693/965/965 694/966/966
f 696/967/967 693/968/968 695/969/969
f 699/970/970 697/971/971 698/972/972
f 700/973/973 697/974/974 699/975/975
f 703/976/976 701/977/977 702/978/978
f 704/979/979 701/980/980 703/981/981
f 707/982/982 705/983/983 706/984/984
f 708/985/985 705/986/986 707/987/987
f 711/988/988 709/989/989 710/990/990
f 712/991/991 709/992/992 711/993/993
f 715/994/994 713/995/995 714/996/996
f 716/997/997 713/998/998 715/999/999
f 719/1000/1000 717/1001/1001 718/1002/1002
f 720/1003/1003 717/1004/1004 719/1005/1005
f 723/1006/1006 721/1007/1007 722/1008/1008
f 724/1009/1009 721/1010/1010 723/1011/1011
f 727/1012/1012 725/1013/1013 726/1014/1014
f 728/1015/1015 725/1016/1016 727/1017/1017
f 731/1018/1018 729/1019/1019 730/1020/1020
f 732/1021/1021 729/1022/1022 731/1023/1023
f 735/1024/1024 733/1025/1025 734/1026/1026
f 736/1027/1027 733/1028/1028 735/1029/1029
f 739/1030/1030 737/1031/1031 738/1032/1032
f 740/1033/1033 737/1034/1034 739/1035/1035
f 743/1036/1036 741/1037/1037 742/1038/1038
f 744/1039/1039 741/1040/1040 743/1041/1041
f 747/1042/1042 745/1043/1043 746/1044/1044
f 748/1045/1045 745/1046/1046 747/1047/1047
f 751/1048/1048 749/1049/1049 750/1050/1050
f 752/1051/1051 749/1052/1052 751/1053/1053
f 755/1054/1054 753/1055/1055 754/1056/1056
f 756/1057/1057 753/1058/1058 755/1059/1059
f 759/1060/1060 757/1061/1061 758/1062/1062
f 760/1063/1063 757/1064/1064 759/1065/1065
f 763/1066/1066 761/1067/1067 762/1068/1068
f 764/1069/1069 761/1070/1070 763/1071/1071
f 767/1072/1072 765/1073/1073 766/1074/1074
f 768/1075/1075 765/1076/1076 767/1077/1077

