# Converted from B3D for Luanti (With Correct Normals)
# Object Name: multidecor_banister_raised_right

v 1.000000 -2.200000 -0.460000
v 1.000000 -0.660000 -0.460000
v 0.920000 -0.660000 -0.460000
v 0.920000 -2.200000 -0.460000
v 0.920000 -2.200000 -0.460000
v 0.920000 -0.660000 -0.460000
v 0.920000 -0.740000 -0.540000
v 0.920000 -2.200000 -0.540000
v 0.920000 -2.200000 -0.540000
v 1.000000 -2.200000 -0.540000
v 1.000000 -2.200000 -0.460000
v 0.920000 -2.200000 -0.460000
v 1.000000 -2.200000 -0.540000
v 1.000000 -0.740000 -0.540000
v 1.000000 -0.660000 -0.460000
v 1.000000 -2.200000 -0.460000
v 0.920000 -2.200000 -0.540000
v 0.920000 -0.740000 -0.540000
v 1.000000 -0.740000 -0.540000
v 1.000000 -2.200000 -0.540000
v 0.860000 -1.200000 -1.000000
v 0.860000 0.800000 1.000000
v 0.860000 0.950000 1.000000
v 0.860000 -1.050000 -1.000000
v 0.860000 0.800000 1.000000
v 1.060000 0.800000 1.000000
v 1.060000 0.950000 1.000000
v 0.860000 0.950000 1.000000
v 1.060000 0.800000 1.000000
v 1.060000 -1.200000 -1.000000
v 1.060000 -1.050000 -1.000000
v 1.060000 0.950000 1.000000
v 1.060000 -1.200000 -1.000000
v 0.860000 -1.200000 -1.000000
v 0.860000 -1.050000 -1.000000
v 1.060000 -1.050000 -1.000000
v 0.860000 0.800000 1.000000
v 0.860000 -1.200000 -1.000000
v 1.060000 -1.200000 -1.000000
v 1.060000 0.800000 1.000000
v 1.060000 0.950000 1.000000
v 1.060000 -1.050000 -1.000000
v 0.860000 -1.050000 -1.000000
v 0.860000 0.950000 1.000000
v 1.000000 -1.200000 0.540000
v 1.000000 0.340000 0.540000
v 0.920000 0.340000 0.540000
v 0.920000 -1.200000 0.540000
v 0.920000 -1.200000 0.540000
v 0.920000 0.340000 0.540000
v 0.920000 0.260000 0.460000
v 0.920000 -1.200000 0.460000
v 0.920000 -1.200000 0.460000
v 1.000000 -1.200000 0.460000
v 1.000000 -1.200000 0.540000
v 0.920000 -1.200000 0.540000
v 1.000000 -1.200000 0.460000
v 1.000000 0.260000 0.460000
v 1.000000 0.340000 0.540000
v 1.000000 -1.200000 0.540000
v 0.920000 -1.200000 0.460000
v 0.920000 0.260000 0.460000
v 1.000000 0.260000 0.460000
v 1.000000 -1.200000 0.460000
v 0.920000 0.340000 0.540000
v 1.000000 0.340000 0.540000
v 1.000000 0.260000 0.460000
v 0.920000 0.260000 0.460000

vt 0.155926 0.418441
vt -0.443929 0.382086
vt 0.155926 0.382086
vt -0.443929 0.418441
vt -0.443929 0.382086
vt 0.155926 0.418441
vt 0.124765 0.309375
vt -0.443929 0.273019
vt 0.155926 0.273020
vt -0.443929 0.309374
vt -0.443929 0.273019
vt 0.124765 0.309375
vt 0.000119 0.345730
vt 0.036474 0.309375
vt 0.036474 0.345731
vt 0.000119 0.309375
vt 0.036474 0.309375
vt 0.000119 0.345730
vt 0.155926 0.382086
vt -0.443929 0.345731
vt 0.124765 0.345731
vt -0.443929 0.382086
vt -0.443929 0.345731
vt 0.155926 0.382086
vt 0.124765 0.345730
vt -0.443929 0.309375
vt 0.124765 0.309375
vt -0.443929 0.345730
vt -0.443929 0.309375
vt 0.124765 0.345730
vt 0.218248 0.418680
vt 0.818103 0.455034
vt 0.218248 0.455035
vt 0.818103 0.418679
vt 0.818103 0.455034
vt 0.218248 0.418680
vt 0.249409 0.527745
vt 0.818103 0.564101
vt 0.218248 0.564100
vt 0.818103 0.527746
vt 0.818103 0.564101
vt 0.249409 0.527745
vt 0.763571 0.491390
vt 0.727216 0.527746
vt 0.727216 0.491390
vt 0.763571 0.527746
vt 0.727216 0.527746
vt 0.763571 0.491390
vt 0.218248 0.455035
vt 0.818103 0.491390
vt 0.249409 0.491390
vt 0.818103 0.455035
vt 0.818103 0.491390
vt 0.218248 0.455035
vt 0.249409 0.491390
vt 0.818103 0.527745
vt 0.249409 0.527745
vt 0.818103 0.491391
vt 0.818103 0.527745
vt 0.249409 0.491390
vt 0.039071 0.474871
vt 0.039071 0.544256
vt 0.039071 0.474876
vt 0.039071 0.544261
vt 0.039071 0.544256
vt 0.039071 0.474871
vt 0.045559 0.250062
vt 0.954437 1.227095
vt 0.045560 0.318226
vt 0.954437 1.158930
vt 0.954437 1.227095
vt 0.045559 0.250062
vt 0.022844 0.136449
vt -0.045323 0.227337
vt -0.045323 0.136449
vt 0.022844 0.227337
vt -0.045323 0.227337
vt 0.022844 0.136449
vt 0.954439 -0.795145
vt 0.045566 0.045560
vt 0.954439 -0.863310
vt 0.045567 0.113725
vt 0.045566 0.045560
vt 0.954439 -0.795145
vt 1.886038 0.227338
vt 1.954205 0.136451
vt 1.954204 0.227338
vt 1.886038 0.136451
vt 1.954205 0.136451
vt 1.886038 0.227338
vt 1.317987 0.091007
vt 0.227338 0.000119
vt 1.317987 0.000119
vt 0.227338 0.091007
vt 0.227338 0.000119
vt 1.317987 0.091007
vt 1.317987 0.227338
vt 0.227338 0.136450
vt 1.317987 0.136451
vt 0.227338 0.227338
vt 0.227338 0.136450
vt 1.317987 0.227338

vn -0.000000 0.000000 1.000000
vn -0.000000 0.000000 1.000000
vn -0.000000 0.000000 1.000000
vn -0.000000 0.000000 1.000000
vn -0.000000 0.000000 1.000000
vn -0.000000 0.000000 1.000000
vn -1.000000 0.000000 0.000000
vn -1.000000 0.000000 0.000000
vn -1.000000 0.000000 0.000000
vn -1.000000 0.000000 0.000000
vn -1.000000 0.000000 0.000000
vn -1.000000 0.000000 0.000000
vn -0.000000 -1.000000 0.000000
vn -0.000000 -1.000000 0.000000
vn -0.000000 -1.000000 0.000000
vn -0.000000 -1.000000 0.000000
vn -0.000000 -1.000000 0.000000
vn -0.000000 -1.000000 0.000000
vn 1.000000 0.000000 -0.000002
vn 1.000000 0.000000 -0.000002
vn 1.000000 0.000000 -0.000002
vn 1.000000 0.000000 0.000000
vn 1.000000 0.000000 0.000000
vn 1.000000 0.000000 0.000000
vn -0.000000 0.000000 -1.000000
vn -0.000000 0.000000 -1.000000
vn -0.000000 0.000000 -1.000000
vn -0.000000 0.000000 -1.000000
vn -0.000000 0.000000 -1.000000
vn -0.000000 0.000000 -1.000000
vn -0.000000 0.000000 1.000000
vn -0.000000 0.000000 1.000000
vn -0.000000 0.000000 1.000000
vn -0.000000 0.000000 1.000000
vn -0.000000 0.000000 1.000000
vn -0.000000 0.000000 1.000000
vn -1.000000 0.000000 0.000000
vn -1.000000 0.000000 0.000000
vn -1.000000 0.000000 0.000000
vn -1.000000 0.000000 0.000000
vn -1.000000 0.000000 0.000000
vn -1.000000 0.000000 0.000000
vn -0.000000 -1.000000 0.000000
vn -0.000000 -1.000000 0.000000
vn -0.000000 -1.000000 0.000000
vn -0.000000 -1.000000 0.000000
vn -0.000000 -1.000000 0.000000
vn -0.000000 -1.000000 0.000000
vn 1.000000 0.000000 -0.000002
vn 1.000000 0.000000 -0.000002
vn 1.000000 0.000000 -0.000002
vn 1.000000 0.000000 0.000000
vn 1.000000 0.000000 0.000000
vn 1.000000 0.000000 0.000000
vn -0.000000 0.000000 -1.000000
vn -0.000000 0.000000 -1.000000
vn -0.000000 0.000000 -1.000000
vn -0.000000 0.000000 -1.000000
vn -0.000000 0.000000 -1.000000
vn -0.000000 0.000000 -1.000000
vn -0.000000 0.707107 -0.707107
vn -0.000000 0.707107 -0.707107
vn -0.000000 0.707107 -0.707107
vn -0.000000 0.707107 -0.707107
vn -0.000000 0.707107 -0.707107
vn -0.000000 0.707107 -0.707107
vn -1.000000 0.000000 0.000000
vn -1.000000 0.000000 0.000000
vn -1.000000 0.000000 0.000000
vn -1.000000 0.000000 0.000000
vn -1.000000 0.000000 0.000000
vn -1.000000 0.000000 0.000000
vn -0.000000 0.000000 1.000000
vn -0.000000 0.000000 1.000000
vn -0.000000 0.000000 1.000000
vn -0.000000 0.000000 1.000000
vn -0.000000 0.000000 1.000000
vn -0.000000 0.000000 1.000000
vn 1.000000 0.000000 0.000000
vn 1.000000 0.000000 0.000000
vn 1.000000 0.000000 0.000000
vn 1.000000 0.000000 0.000000
vn 1.000000 0.000000 0.000000
vn 1.000000 0.000000 0.000000
vn -0.000000 0.000000 -1.000000
vn -0.000000 0.000000 -1.000000
vn -0.000000 0.000000 -1.000000
vn -0.000000 0.000000 -1.000000
vn -0.000000 0.000000 -1.000000
vn -0.000000 0.000000 -1.000000
vn -0.000000 -0.707107 0.707107
vn -0.000000 -0.707107 0.707107
vn -0.000000 -0.707107 0.707107
vn -0.000000 -0.707107 0.707107
vn -0.000000 -0.707107 0.707107
vn -0.000000 -0.707107 0.707107
vn -0.000000 0.707107 -0.707107
vn -0.000000 0.707107 -0.707107
vn -0.000000 0.707107 -0.707107
vn -0.000000 0.707107 -0.707107
vn -0.000000 0.707107 -0.707107
vn -0.000000 0.707107 -0.707107

g Material
f 3/1/1 1/2/2 2/3/3
f 4/4/4 1/5/5 3/6/6
f 7/7/7 5/8/8 6/9/9
f 8/10/10 5/11/11 7/12/12
f 11/13/13 9/14/14 10/15/15
f 12/16/16 9/17/17 11/18/18
f 15/19/19 13/20/20 14/21/21
f 16/22/22 13/23/23 15/24/24
f 19/25/25 17/26/26 18/27/27
f 20/28/28 17/29/29 19/30/30
f 47/31/31 45/32/32 46/33/33
f 48/34/34 45/35/35 47/36/36
f 51/37/37 49/38/38 50/39/39
f 52/40/40 49/41/41 51/42/42
f 55/43/43 53/44/44 54/45/45
f 56/46/46 53/47/47 55/48/48
f 59/49/49 57/50/50 58/51/51
f 60/52/52 57/53/53 59/54/54
f 63/55/55 61/56/56 62/57/57
f 64/58/58 61/59/59 63/60/60
f 67/61/61 65/62/62 66/63/63
f 68/64/64 65/65/65 67/66/66

g Material.001
f 23/67/67 21/68/68 22/69/69
f 24/70/70 21/71/71 23/72/72
f 27/73/73 25/74/74 26/75/75
f 28/76/76 25/77/77 27/78/78
f 31/79/79 29/80/80 30/81/81
f 32/82/82 29/83/83 31/84/84
f 35/85/85 33/86/86 34/87/87
f 36/88/88 33/89/89 35/90/90
f 39/91/91 37/92/92 38/93/93
f 40/94/94 37/95/95 39/96/96
f 43/97/97 41/98/98 42/99/99
f 44/100/100 41/101/101 43/102/102

