# Converted from B3D for Luanti (With Correct Normals)
# Object Name: multidecor_shower_base

v 0.850000 -0.700000 0.850000
v 0.850000 -0.700000 -0.850000
v 0.850000 -0.850000 -0.850000
v 0.850000 -0.850000 0.850000
v -1.000000 -1.000000 -1.000000
v -1.000000 -0.700000 -1.000000
v 1.000000 -0.700000 -1.000000
v 1.000000 -1.000000 -1.000000
v 1.000000 -1.000000 -1.000000
v 1.000000 -0.700000 -1.000000
v 1.000000 -0.700000 1.000000
v 1.000000 -1.000000 1.000000
v 1.000000 -1.000000 1.000000
v -1.000000 -1.000000 1.000000
v -1.000000 -1.000000 -1.000000
v 1.000000 -1.000000 -1.000000
v -1.000000 -1.000000 1.000000
v -1.000000 -0.700000 1.000000
v -1.000000 -0.700000 -1.000000
v -1.000000 -1.000000 -1.000000
v 1.000000 -1.000000 1.000000
v 1.000000 -0.700000 1.000000
v -1.000000 -0.700000 1.000000
v -1.000000 -1.000000 1.000000
v -0.850000 -0.700000 -0.850000
v 0.850000 -0.700000 -0.850000
v 1.000000 -0.700000 -1.000000
v -1.000000 -0.700000 -1.000000
v -0.850000 -0.700000 0.850000
v -0.850000 -0.700000 -0.850000
v -1.000000 -0.700000 -1.000000
v -1.000000 -0.700000 1.000000
v 0.850000 -0.700000 -0.850000
v 0.850000 -0.700000 0.850000
v 1.000000 -0.700000 1.000000
v 1.000000 -0.700000 -1.000000
v 0.850000 -0.700000 0.850000
v -0.850000 -0.700000 0.850000
v -1.000000 -0.700000 1.000000
v 1.000000 -0.700000 1.000000
v 0.850000 -0.700000 -0.850000
v -0.850000 -0.700000 -0.850000
v -0.850000 -0.850000 -0.850000
v 0.850000 -0.850000 -0.850000
v -0.850000 -0.700000 0.850000
v 0.850000 -0.700000 0.850000
v 0.850000 -0.850000 0.850000
v -0.850000 -0.850000 0.850000
v -0.850000 -0.700000 -0.850000
v -0.850000 -0.700000 0.850000
v -0.850000 -0.850000 0.850000
v -0.850000 -0.850000 -0.850000
v -0.212132 -0.850000 -0.212132
v -0.300000 -0.850000 -0.000000
v -0.210000 -0.850000 -0.000000
v -0.148492 -0.850000 -0.148492
v -0.212132 -0.850000 0.212132
v -0.000000 -0.850000 0.300000
v 0.000000 -0.850000 0.210000
v -0.148492 -0.850000 0.148492
v -0.000000 -0.850000 0.300000
v 0.212132 -0.850000 0.212132
v 0.148492 -0.850000 0.148492
v 0.000000 -0.850000 0.210000
v 0.300000 -0.850000 0.000000
v 0.212132 -0.850000 -0.212132
v 0.148492 -0.850000 -0.148492
v 0.210000 -0.850000 0.000000
v 0.000000 -0.850000 -0.300000
v -0.212132 -0.850000 -0.212132
v -0.148492 -0.850000 -0.148492
v 0.000000 -0.850000 -0.210000
v -0.300000 -0.850000 -0.000000
v -0.212132 -0.850000 0.212132
v -0.148492 -0.850000 0.148492
v -0.210000 -0.850000 -0.000000
v 0.212132 -0.850000 0.212132
v 0.300000 -0.850000 0.000000
v 0.210000 -0.850000 0.000000
v 0.148492 -0.850000 0.148492
v 0.212132 -0.850000 -0.212132
v 0.000000 -0.850000 -0.300000
v 0.000000 -0.850000 -0.210000
v 0.148492 -0.850000 -0.148492
v -0.148492 -0.850000 0.148492
v 0.000000 -0.850000 0.210000
v 0.000000 -0.950000 0.210000
v -0.148492 -0.950000 0.148492
v 0.000000 -0.850000 0.210000
v 0.148492 -0.850000 0.148492
v 0.148492 -0.950000 0.148492
v 0.000000 -0.950000 0.210000
v 0.210000 -0.850000 0.000000
v 0.148492 -0.850000 -0.148492
v 0.148492 -0.950000 -0.148492
v 0.210000 -0.950000 0.000000
v 0.000000 -0.850000 -0.210000
v -0.148492 -0.850000 -0.148492
v -0.148492 -0.950000 -0.148492
v 0.000000 -0.950000 -0.210000
v -0.210000 -0.850000 -0.000000
v -0.148492 -0.850000 0.148492
v -0.148492 -0.950000 0.148492
v -0.210000 -0.950000 -0.000000
v 0.148492 -0.850000 0.148492
v 0.210000 -0.850000 0.000000
v 0.210000 -0.950000 0.000000
v 0.148492 -0.950000 0.148492
v 0.148492 -0.850000 -0.148492
v 0.000000 -0.850000 -0.210000
v 0.000000 -0.950000 -0.210000
v 0.148492 -0.950000 -0.148492
v -0.148492 -0.850000 -0.148492
v -0.210000 -0.850000 -0.000000
v -0.210000 -0.950000 -0.000000
v -0.148492 -0.950000 -0.148492
v 0.850000 -0.850000 -0.850000
v 0.300000 -0.850000 0.000000
v 0.850000 -0.850000 0.850000
v 0.212132 -0.850000 0.212132
v -0.000000 -0.850000 0.300000
v 0.850000 -0.850000 0.850000
v 0.300000 -0.850000 0.000000
v 0.212132 -0.850000 0.212132
v 0.850000 -0.850000 0.850000
v -0.000000 -0.850000 0.300000
v -0.212132 -0.850000 0.212132
v -0.850000 -0.850000 0.850000
v -0.212132 -0.850000 0.212132
v -0.300000 -0.850000 -0.000000
v -0.850000 -0.850000 0.850000
v -0.000000 -0.850000 0.300000
v -0.850000 -0.850000 0.850000
v 0.850000 -0.850000 0.850000
v -0.210000 -0.950000 -0.000000
v 0.000000 -0.950000 0.210000
v 0.210000 -0.950000 0.000000
v 0.850000 -0.850000 -0.850000
v 0.212132 -0.850000 -0.212132
v 0.300000 -0.850000 0.000000
v -0.212132 -0.850000 -0.212132
v -0.850000 -0.850000 -0.850000
v -0.300000 -0.850000 -0.000000
v 0.000000 -0.850000 -0.300000
v -0.850000 -0.850000 -0.850000
v -0.212132 -0.850000 -0.212132
v 0.850000 -0.850000 -0.850000
v 0.000000 -0.850000 -0.300000
v 0.212132 -0.850000 -0.212132
v 0.850000 -0.850000 -0.850000
v -0.850000 -0.850000 -0.850000
v 0.000000 -0.850000 -0.300000
v -0.300000 -0.850000 -0.000000
v -0.850000 -0.850000 -0.850000
v -0.850000 -0.850000 0.850000
v -0.210000 -0.950000 -0.000000
v -0.148492 -0.950000 0.148492
v 0.000000 -0.950000 0.210000
v 0.000000 -0.950000 0.210000
v 0.148492 -0.950000 0.148492
v 0.210000 -0.950000 0.000000
v 0.210000 -0.950000 0.000000
v 0.148492 -0.950000 -0.148492
v -0.210000 -0.950000 -0.000000
v 0.148492 -0.950000 -0.148492
v 0.000000 -0.950000 -0.210000
v -0.210000 -0.950000 -0.000000
v 0.000000 -0.950000 -0.210000
v -0.148492 -0.950000 -0.148492
v -0.210000 -0.950000 -0.000000

vt 1.352433 1.088358
vt 1.440546 0.089756
vt 1.440546 1.088358
vt 1.352434 0.089756
vt 1.440546 0.089756
vt 1.352433 1.088358
vt 1.528657 1.000246
vt 1.704881 2.175066
vt 1.528657 2.175066
vt 1.704880 1.000246
vt 1.704881 2.175066
vt 1.528657 1.000246
vt 1.528658 0.001645
vt 1.704882 1.176470
vt 1.528657 1.176470
vt 1.704882 0.001645
vt 1.704882 1.176470
vt 1.528658 0.001645
vt 0.815250 1.631849
vt 0.271757 1.088356
vt 0.815250 1.088356
vt 0.271757 1.631849
vt 0.271757 1.088356
vt 0.815250 1.631849
vt 1.175660 2.175066
vt 0.999435 1.000241
vt 1.175659 1.000241
vt 0.999436 2.175066
vt 0.999435 1.000241
vt 1.175660 2.175066
vt 1.175660 1.176465
vt 0.999436 0.001645
vt 1.175659 0.001645
vt 0.999437 1.176465
vt 0.999436 0.001645
vt 1.175660 1.176465
vt 1.528657 1.000246
vt 1.440546 2.086955
vt 1.440546 1.088358
vt 1.528657 2.175066
vt 1.440546 2.086955
vt 1.528657 1.000246
vt 1.175660 2.175066
vt 1.263771 1.088353
vt 1.263771 2.086955
vt 1.175659 1.000241
vt 1.263771 1.088353
vt 1.175660 2.175066
vt 1.528658 0.001645
vt 1.440546 1.088358
vt 1.440546 0.089756
vt 1.528657 1.176470
vt 1.440546 1.088358
vt 1.528658 0.001645
vt 1.175660 1.176465
vt 1.263771 0.089756
vt 1.263771 1.088353
vt 1.175659 0.001645
vt 1.263771 0.089756
vt 1.175660 1.176465
vt 1.352434 2.086955
vt 1.440546 1.088358
vt 1.440546 2.086955
vt 1.352433 1.088358
vt 1.440546 1.088358
vt 1.352434 2.086955
vt 1.351882 0.089756
vt 1.263771 1.088353
vt 1.263771 0.089756
vt 1.351884 1.088353
vt 1.263771 1.088353
vt 1.351882 0.089756
vt 1.351884 1.088353
vt 1.263771 2.086955
vt 1.263771 1.088353
vt 1.351884 2.086955
vt 1.263771 2.086955
vt 1.351884 1.088353
vt -1.212702 0.921415
vt -1.008905 1.427758
vt -1.426635 1.010029
vt -0.920291 1.213826
vt -1.008905 1.427758
vt -1.212702 0.921415
vt -0.920291 0.215472
vt -1.426635 0.419269
vt -1.008905 0.001539
vt -1.212702 0.507883
vt -1.426635 0.419269
vt -0.920291 0.215472
vt -0.506760 0.215472
vt -1.008905 0.001539
vt -0.418146 0.001539
vt -0.920291 0.215472
vt -1.008905 0.001539
vt -0.506760 0.215472
vt -0.214348 0.921414
vt -0.000416 0.419268
vt -0.000416 1.010028
vt -0.214349 0.507883
vt -0.000416 0.419268
vt -0.214348 0.921414
vt -0.920291 1.213826
vt -0.418145 1.427758
vt -1.008905 1.427758
vt -0.506759 1.213825
vt -0.418145 1.427758
vt -0.920291 1.213826
vt -1.212702 0.507883
vt -1.426635 1.010029
vt -1.426635 0.419269
vt -1.212702 0.921415
vt -1.426635 1.010029
vt -1.212702 0.507883
vt -0.214349 0.507883
vt -0.418146 0.001539
vt -0.000416 0.419268
vt -0.506760 0.215472
vt -0.418146 0.001539
vt -0.214349 0.507883
vt -0.506759 1.213825
vt -0.000416 1.010028
vt -0.418145 1.427758
vt -0.214348 0.921414
vt -0.000416 1.010028
vt -0.506759 1.213825
vt 0.999277 3.309793
vt 1.256566 2.896260
vt 1.256566 3.309793
vt 0.999277 2.896260
vt 1.256566 2.896260
vt 0.999277 3.309793
vt 0.999277 0.415070
vt 1.256566 0.001539
vt 1.256566 0.415070
vt 0.999277 0.001539
vt 1.256566 0.001539
vt 0.999277 0.415070
vt 0.999277 1.242133
vt 1.256566 0.828602
vt 1.256566 1.242133
vt 0.999277 0.828602
vt 1.256566 0.828602
vt 0.999277 1.242133
vt 0.999277 2.069197
vt 1.256566 1.655665
vt 1.256566 2.069197
vt 0.999277 1.655665
vt 1.256566 1.655665
vt 0.999277 2.069197
vt 0.999277 2.896260
vt 1.256566 2.482729
vt 1.256566 2.896260
vt 0.999277 2.482729
vt 1.256566 2.482729
vt 0.999277 2.896260
vt 0.999277 0.828602
vt 1.256566 0.415070
vt 1.256566 0.828602
vt 0.999277 0.415070
vt 1.256566 0.415070
vt 0.999277 0.828602
vt 0.999277 1.655665
vt 1.256566 1.242133
vt 1.256566 1.655665
vt 0.999277 1.242133
vt 1.256566 1.242133
vt 0.999277 1.655665
vt 0.999277 2.482729
vt 1.256566 2.069197
vt 1.256566 2.482729
vt 0.999277 2.069197
vt 1.256566 2.069197
vt 0.999277 2.482729
vt 0.998886 1.000245
vt 0.000285 1.000244
vt 0.499585 0.677168
vt 0.998886 1.000245
vt 0.624194 0.625553
vt 0.675809 0.500945
vt 0.998886 1.000245
vt 0.499585 0.677168
vt 0.624194 0.625553
vt 0.998886 0.001645
vt 0.675809 0.500945
vt 0.624194 0.376336
vt 0.998886 0.001645
vt 0.624194 0.376336
vt 0.499586 0.324721
vt 0.998886 1.000245
vt 0.675809 0.500945
vt 0.998886 0.001645
vt 0.499585 0.677168
vt 0.000285 1.000244
vt 0.374977 0.625553
vt 0.499586 0.324721
vt 0.374977 0.376336
vt 0.000286 0.001645
vt 0.374977 0.376336
vt 0.323362 0.500945
vt 0.000286 0.001645
vt 0.374977 0.625553
vt 0.000285 1.000244
vt 0.323362 0.500945
vt 0.323362 0.500945
vt 0.000285 1.000244
vt 0.000286 0.001645
vt 0.998886 0.001645
vt 0.499586 0.324721
vt 0.000286 0.001645
vt 0.292665 0.001539
vt 0.706197 0.999892
vt 0.000254 0.707481
vt 0.000254 0.707481
vt 0.706197 0.999892
vt 0.292665 0.999892
vt 0.292665 0.001539
vt 0.000254 0.707481
vt 0.000254 0.293949
vt 0.706197 0.999892
vt 0.292665 0.001539
vt 0.706197 0.001539
vt 0.706197 0.999892
vt 0.706197 0.001539
vt 0.998608 0.293950
vt 0.706197 0.999892
vt 0.998608 0.293950
vt 0.998608 0.707482

vn -1.000000 0.000000 0.000000
vn -1.000000 0.000000 0.000000
vn -1.000000 0.000000 0.000000
vn -1.000000 0.000000 0.000000
vn -1.000000 0.000000 0.000000
vn -1.000000 0.000000 0.000000
vn -0.000000 0.000000 -1.000000
vn -0.000000 0.000000 -1.000000
vn -0.000000 0.000000 -1.000000
vn -0.000000 0.000000 -1.000000
vn -0.000000 0.000000 -1.000000
vn -0.000000 0.000000 -1.000000
vn 1.000000 0.000000 0.000000
vn 1.000000 0.000000 0.000000
vn 1.000000 0.000000 0.000000
vn 1.000000 0.000000 0.000000
vn 1.000000 0.000000 0.000000
vn 1.000000 0.000000 0.000000
vn -0.000000 -1.000000 0.000000
vn -0.000000 -1.000000 0.000000
vn -0.000000 -1.000000 0.000000
vn -0.000000 -1.000000 0.000000
vn -0.000000 -1.000000 0.000000
vn -0.000000 -1.000000 0.000000
vn -1.000000 0.000000 0.000000
vn -1.000000 0.000000 0.000000
vn -1.000000 0.000000 0.000000
vn -1.000000 0.000000 0.000000
vn -1.000000 0.000000 0.000000
vn -1.000000 0.000000 0.000000
vn -0.000000 0.000000 1.000000
vn -0.000000 0.000000 1.000000
vn -0.000000 0.000000 1.000000
vn -0.000000 0.000000 1.000000
vn -0.000000 0.000000 1.000000
vn -0.000000 0.000000 1.000000
vn -0.000000 1.000000 0.000000
vn -0.000000 1.000000 0.000000
vn -0.000000 1.000000 0.000000
vn -0.000000 1.000000 0.000000
vn -0.000000 1.000000 0.000000
vn -0.000000 1.000000 0.000000
vn 0.000001 1.000000 0.000000
vn 0.000001 1.000000 0.000000
vn 0.000001 1.000000 0.000000
vn -0.000000 1.000000 0.000000
vn -0.000000 1.000000 0.000000
vn -0.000000 1.000000 0.000000
vn -0.000001 1.000000 0.000000
vn -0.000001 1.000000 0.000000
vn -0.000001 1.000000 0.000000
vn -0.000000 1.000000 0.000000
vn -0.000000 1.000000 0.000000
vn -0.000000 1.000000 0.000000
vn -0.000000 1.000000 0.000000
vn -0.000000 1.000000 0.000000
vn -0.000000 1.000000 0.000000
vn -0.000000 1.000000 0.000000
vn -0.000000 1.000000 0.000000
vn -0.000000 1.000000 0.000000
vn -0.000000 0.000000 1.000000
vn -0.000000 0.000000 1.000000
vn -0.000000 0.000000 1.000000
vn -0.000000 0.000000 1.000000
vn -0.000000 0.000000 1.000000
vn -0.000000 0.000000 1.000000
vn -0.000000 0.000000 -1.000000
vn -0.000000 0.000000 -1.000000
vn -0.000000 0.000000 -1.000000
vn -0.000000 0.000000 -1.000000
vn -0.000000 0.000000 -1.000000
vn -0.000000 0.000000 -1.000000
vn 1.000000 0.000000 0.000000
vn 1.000000 0.000000 0.000000
vn 1.000000 0.000000 0.000000
vn 1.000000 0.000000 0.000000
vn 1.000000 0.000000 0.000000
vn 1.000000 0.000000 0.000000
vn -0.000000 1.000000 0.000000
vn -0.000000 1.000000 0.000000
vn -0.000000 1.000000 0.000000
vn -0.000002 1.000000 0.000000
vn -0.000002 1.000000 0.000000
vn -0.000002 1.000000 0.000000
vn -0.000001 1.000000 0.000000
vn -0.000001 1.000000 0.000000
vn -0.000001 1.000000 0.000000
vn 0.000000 1.000000 0.000000
vn 0.000000 1.000000 0.000000
vn 0.000000 1.000000 0.000000
vn -0.000000 1.000000 0.000000
vn -0.000000 1.000000 0.000000
vn -0.000000 1.000000 0.000000
vn -0.000000 1.000000 0.000000
vn -0.000000 1.000000 0.000000
vn -0.000000 1.000000 0.000000
vn -0.000000 1.000000 0.000000
vn -0.000000 1.000000 0.000000
vn -0.000000 1.000000 0.000000
vn -0.000000 1.000000 0.000000
vn -0.000000 1.000000 0.000000
vn -0.000000 1.000000 0.000000
vn 0.000001 1.000000 0.000000
vn 0.000001 1.000000 0.000000
vn 0.000001 1.000000 0.000000
vn -0.000000 1.000000 0.000000
vn -0.000000 1.000000 0.000000
vn -0.000000 1.000000 0.000000
vn -0.000000 1.000000 0.000000
vn -0.000000 1.000000 0.000000
vn -0.000000 1.000000 0.000000
vn -0.000000 1.000000 0.000000
vn -0.000000 1.000000 0.000000
vn -0.000000 1.000000 0.000000
vn -0.000000 1.000000 0.000000
vn -0.000000 1.000000 0.000000
vn -0.000000 1.000000 0.000000
vn -0.000000 1.000000 0.000000
vn -0.000000 1.000000 0.000000
vn -0.000000 1.000000 0.000000
vn -0.000000 1.000000 0.000000
vn -0.000000 1.000000 0.000000
vn -0.000000 1.000000 0.000000
vn -0.000000 1.000000 0.000000
vn -0.000000 1.000000 0.000000
vn -0.000000 1.000000 0.000000
vn 0.382684 0.000000 -0.923879
vn 0.382684 0.000000 -0.923879
vn 0.382684 0.000000 -0.923879
vn 0.382683 0.000000 -0.923880
vn 0.382683 0.000000 -0.923880
vn 0.382683 0.000000 -0.923880
vn -0.382684 0.000000 -0.923879
vn -0.382684 0.000000 -0.923879
vn -0.382684 0.000000 -0.923879
vn -0.382684 0.000000 -0.923879
vn -0.382684 0.000000 -0.923879
vn -0.382684 0.000000 -0.923879
vn -0.923880 0.000000 0.382683
vn -0.923880 0.000000 0.382683
vn -0.923880 0.000000 0.382683
vn -0.923879 0.000000 0.382684
vn -0.923879 0.000000 0.382684
vn -0.923879 0.000000 0.382684
vn 0.382684 0.000000 0.923879
vn 0.382684 0.000000 0.923879
vn 0.382684 0.000000 0.923879
vn 0.382683 0.000000 0.923880
vn 0.382683 0.000000 0.923880
vn 0.382683 0.000000 0.923880
vn 0.923880 0.000000 -0.382683
vn 0.923880 0.000000 -0.382683
vn 0.923880 0.000000 -0.382683
vn 0.923879 0.000000 -0.382684
vn 0.923879 0.000000 -0.382684
vn 0.923879 0.000000 -0.382684
vn -0.923880 0.000000 -0.382684
vn -0.923880 0.000000 -0.382684
vn -0.923880 0.000000 -0.382684
vn -0.923879 0.000000 -0.382684
vn -0.923879 0.000000 -0.382684
vn -0.923879 0.000000 -0.382684
vn -0.382683 0.000000 0.923880
vn -0.382683 0.000000 0.923880
vn -0.382683 0.000000 0.923880
vn -0.382683 0.000000 0.923880
vn -0.382683 0.000000 0.923880
vn -0.382683 0.000000 0.923880
vn 0.923880 0.000000 0.382683
vn 0.923880 0.000000 0.382683
vn 0.923880 0.000000 0.382683
vn 0.923879 0.000000 0.382684
vn 0.923879 0.000000 0.382684
vn 0.923879 0.000000 0.382684
vn -0.000000 1.000000 0.000000
vn -0.000000 1.000000 0.000000
vn -0.000000 1.000000 0.000000
vn -0.000000 1.000000 0.000000
vn -0.000000 1.000000 0.000000
vn -0.000000 1.000000 0.000000
vn 0.000000 1.000000 0.000000
vn 0.000000 1.000000 0.000000
vn 0.000000 1.000000 0.000000
vn -0.000000 1.000000 0.000000
vn -0.000000 1.000000 0.000000
vn -0.000000 1.000000 0.000000
vn -0.000000 1.000000 0.000000
vn -0.000000 1.000000 0.000000
vn -0.000000 1.000000 0.000000
vn -0.000000 1.000000 0.000000
vn -0.000000 1.000000 0.000000
vn -0.000000 1.000000 0.000000
vn -0.000000 1.000000 0.000000
vn -0.000000 1.000000 0.000000
vn -0.000000 1.000000 0.000000
vn -0.000000 1.000000 0.000000
vn -0.000000 1.000000 0.000000
vn -0.000000 1.000000 0.000000
vn -0.000000 1.000000 0.000000
vn -0.000000 1.000000 0.000000
vn -0.000000 1.000000 0.000000
vn 0.000000 1.000000 0.000000
vn 0.000000 1.000000 0.000000
vn 0.000000 1.000000 0.000000
vn -0.000000 1.000000 0.000000
vn -0.000000 1.000000 0.000000
vn -0.000000 1.000000 0.000000
vn -0.000000 1.000000 0.000000
vn -0.000000 1.000000 0.000000
vn -0.000000 1.000000 0.000000
vn -0.000000 1.000000 0.000000
vn -0.000000 1.000000 0.000000
vn -0.000000 1.000000 0.000000
vn -0.000000 1.000000 0.000000
vn -0.000000 1.000000 0.000000
vn -0.000000 1.000000 0.000000
vn -0.000000 1.000000 0.000000
vn -0.000000 1.000000 0.000000
vn -0.000000 1.000000 0.000000
vn -0.000000 1.000000 0.000000
vn -0.000000 1.000000 0.000000
vn -0.000000 1.000000 0.000000
vn -0.000000 1.000000 0.000000
vn -0.000000 1.000000 0.000000
vn -0.000000 1.000000 0.000000
vn 0.000000 1.000000 0.000000
vn 0.000000 1.000000 0.000000
vn 0.000000 1.000000 0.000000

g Material
f 3/1/1 1/2/2 2/3/3
f 4/4/4 1/5/5 3/6/6
f 7/7/7 5/8/8 6/9/9
f 8/10/10 5/11/11 7/12/12
f 11/13/13 9/14/14 10/15/15
f 12/16/16 9/17/17 11/18/18
f 15/19/19 13/20/20 14/21/21
f 16/22/22 13/23/23 15/24/24
f 19/25/25 17/26/26 18/27/27
f 20/28/28 17/29/29 19/30/30
f 23/31/31 21/32/32 22/33/33
f 24/34/34 21/35/35 23/36/36
f 27/37/37 25/38/38 26/39/39
f 28/40/40 25/41/41 27/42/42
f 31/43/43 29/44/44 30/45/45
f 32/46/46 29/47/47 31/48/48
f 35/49/49 33/50/50 34/51/51
f 36/52/52 33/53/53 35/54/54
f 39/55/55 37/56/56 38/57/57
f 40/58/58 37/59/59 39/60/60
f 43/61/61 41/62/62 42/63/63
f 44/64/64 41/65/65 43/66/66
f 47/67/67 45/68/68 46/69/69
f 48/70/70 45/71/71 47/72/72
f 51/73/73 49/74/74 50/75/75
f 52/76/76 49/77/77 51/78/78

g Material.001
f 55/79/79 53/80/80 54/81/81
f 56/82/82 53/83/83 55/84/84
f 59/85/85 57/86/86 58/87/87
f 60/88/88 57/89/89 59/90/90
f 63/91/91 61/92/92 62/93/93
f 64/94/94 61/95/95 63/96/96
f 67/97/97 65/98/98 66/99/99
f 68/100/100 65/101/101 67/102/102
f 71/103/103 69/104/104 70/105/105
f 72/106/106 69/107/107 71/108/108
f 75/109/109 73/110/110 74/111/111
f 76/112/112 73/113/113 75/114/114
f 79/115/115 77/116/116 78/117/117
f 80/118/118 77/119/119 79/120/120
f 83/121/121 81/122/122 82/123/123
f 84/124/124 81/125/125 83/126/126
f 87/127/127 85/128/128 86/129/129
f 88/130/130 85/131/131 87/132/132
f 91/133/133 89/134/134 90/135/135
f 92/136/136 89/137/137 91/138/138
f 95/139/139 93/140/140 94/141/141
f 96/142/142 93/143/143 95/144/144
f 99/145/145 97/146/146 98/147/147
f 100/148/148 97/149/149 99/150/150
f 103/151/151 101/152/152 102/153/153
f 104/154/154 101/155/155 103/156/156
f 107/157/157 105/158/158 106/159/159
f 108/160/160 105/161/161 107/162/162
f 111/163/163 109/164/164 110/165/165
f 112/166/166 109/167/167 111/168/168
f 115/169/169 113/170/170 114/171/171
f 116/172/172 113/173/173 115/174/174

g Material.002
f 119/175/175 117/176/176 118/177/177
f 122/178/178 120/179/179 121/180/180
f 125/181/181 123/182/182 124/183/183
f 128/184/184 126/185/185 127/186/186
f 131/187/187 129/188/188 130/189/189
f 134/190/190 132/191/191 133/192/192
f 140/193/193 138/194/194 139/195/195
f 143/196/196 141/197/197 142/198/198
f 146/199/199 144/200/200 145/201/201
f 149/202/202 147/203/203 148/204/204
f 152/205/205 150/206/206 151/207/207
f 155/208/208 153/209/209 154/210/210

g Material.003
f 137/211/211 135/212/212 136/213/213
f 158/214/214 156/215/215 157/216/216
f 161/217/217 159/218/218 160/219/219
f 164/220/220 162/221/221 163/222/222
f 167/223/223 165/224/224 166/225/225
f 170/226/226 168/227/227 169/228/228

