# Converted from B3D for Luanti (With Correct Normals)
# Object Name: multidecor_kitchen_wall_cabinet_two_shelves

v 1.000000 -1.000000 -0.850000
v 1.000000 1.000000 -0.850000
v 1.000000 1.000000 1.000000
v 1.000000 -1.000000 1.000000
v 1.000000 -1.000000 1.000000
v 1.000000 1.000000 1.000000
v -1.000000 1.000000 1.000000
v -1.000000 -1.000000 1.000000
v -1.000000 -1.000000 1.000000
v -1.000000 -1.000000 -0.850000
v 1.000000 -1.000000 -0.850000
v 1.000000 -1.000000 1.000000
v 0.850000 0.050000 -0.850000
v 0.850000 0.850000 -0.850000
v 0.850000 0.850000 0.900000
v 0.850000 0.050000 0.900000
v -1.000000 -1.000000 1.000000
v -1.000000 1.000000 1.000000
v -1.000000 1.000000 -0.850000
v -1.000000 -1.000000 -0.850000
v -0.850000 0.050000 0.900000
v -0.850000 0.850000 0.900000
v -0.850000 0.850000 -0.850000
v -0.850000 0.050000 -0.850000
v 0.850000 -0.850000 0.900000
v -0.850000 -0.850000 0.900000
v -0.850000 -0.850000 -0.850000
v 0.850000 -0.850000 -0.850000
v 0.850000 0.050000 0.900000
v 0.850000 0.850000 0.900000
v -0.850000 0.850000 0.900000
v -0.850000 0.050000 0.900000
v 0.850000 0.050000 -0.850000
v 0.850000 0.850000 -0.850000
v 1.000000 1.000000 -0.850000
v -1.000000 -1.000000 -0.850000
v -0.850000 -0.850000 -0.850000
v 0.850000 -0.850000 -0.850000
v 1.000000 -1.000000 -0.850000
v -0.850000 -0.050000 -0.850000
v -0.850000 -0.850000 -0.850000
v -1.000000 -1.000000 -0.850000
v 0.850000 -0.850000 0.900000
v 0.850000 -0.050000 0.900000
v -0.850000 -0.050000 0.900000
v -0.850000 -0.850000 0.900000
v 0.850000 -0.050000 0.900000
v 0.850000 0.050000 0.900000
v -0.850000 0.050000 0.900000
v -0.850000 -0.050000 0.900000
v -0.850000 -0.850000 0.900000
v -0.850000 -0.050000 0.900000
v -0.850000 -0.050000 -0.850000
v -0.850000 -0.850000 -0.850000
v -0.850000 -0.050000 0.900000
v -0.850000 0.050000 0.900000
v -0.850000 0.050000 -0.850000
v -0.850000 -0.050000 -0.850000
v 0.850000 -0.850000 -0.850000
v 0.850000 -0.050000 -0.850000
v 0.850000 -0.050000 0.900000
v 0.850000 -0.850000 0.900000
v 0.850000 -0.050000 -0.850000
v 0.850000 0.050000 -0.850000
v 0.850000 0.050000 0.900000
v 0.850000 -0.050000 0.900000
v 0.850000 0.050000 0.900000
v 0.850000 0.050000 -0.850000
v -0.850000 0.050000 -0.850000
v -0.850000 0.050000 0.900000
v 0.850000 -0.050000 -0.850000
v 0.850000 -0.050000 0.900000
v -0.850000 -0.050000 0.900000
v -0.850000 -0.050000 -0.850000
v 0.850000 0.050000 -0.850000
v 0.850000 -0.050000 -0.850000
v -0.850000 -0.050000 -0.850000
v -0.850000 0.050000 -0.850000
v 1.000000 1.000000 -0.850000
v 1.000000 -1.000000 -0.850000
v 0.850000 0.050000 -0.850000
v 1.000000 -1.000000 -0.850000
v 0.850000 -0.850000 -0.850000
v 0.850000 -0.050000 -0.850000
v 0.850000 -0.050000 -0.850000
v 0.850000 0.050000 -0.850000
v 1.000000 -1.000000 -0.850000
v -1.000000 -1.000000 -0.850000
v -1.000000 1.000000 -0.850000
v -0.850000 0.050000 -0.850000
v -1.000000 1.000000 -0.850000
v -0.850000 0.850000 -0.850000
v -0.850000 0.050000 -0.850000
v -0.850000 0.050000 -0.850000
v -0.850000 -0.050000 -0.850000
v -1.000000 -1.000000 -0.850000
v 0.850000 0.850000 0.900000
v 0.850000 0.850000 -0.850000
v -0.850000 0.850000 -0.850000
v -0.850000 0.850000 0.900000
v 0.850000 0.850000 -0.850000
v -0.850000 0.850000 -0.850000
v -1.000000 1.000000 -0.850000
v 1.000000 1.000000 -0.850000
v 1.000000 1.000000 -0.850000
v -1.000000 1.000000 -0.850000
v -1.000000 1.000000 1.000000
v 1.000000 1.000000 1.000000

vt 0.646040 0.617516
vt 0.417864 0.406454
vt 0.646040 0.406454
vt 0.417864 0.617516
vt 0.417864 0.406454
vt 0.646040 0.617516
vt 0.646038 0.405877
vt 0.417863 0.177701
vt 0.646038 0.177701
vt 0.417863 0.405877
vt 0.417863 0.177701
vt 0.646038 0.405877
vt 0.440103 0.194815
vt 0.211928 0.405877
vt 0.211928 0.194815
vt 0.440103 0.405877
vt 0.211928 0.405877
vt 0.440103 0.194815
vt 0.474330 -0.011120
vt 0.274676 0.097263
vt 0.274676 -0.011120
vt 0.474330 0.097263
vt 0.274676 0.097263
vt 0.474330 -0.011120
vt 0.205647 0.634630
vt -0.022529 0.423567
vt 0.205647 0.423567
vt -0.022529 0.634630
vt -0.022529 0.423567
vt 0.205647 0.634630
vt 0.474330 0.063613
vt 0.274676 0.171997
vt 0.274676 0.063613
vt 0.474330 0.171997
vt 0.274676 0.171997
vt 0.474330 0.063613
vt 0.274099 0.000288
vt 0.074446 0.194238
vt 0.074446 0.000288
vt 0.274099 0.194238
vt 0.074446 0.194238
vt 0.274099 0.000288
vt 0.720774 0.600403
vt 0.612391 0.406454
vt 0.720774 0.406454
vt 0.612391 0.600403
vt 0.612391 0.406454
vt 0.720774 0.600403
vt 0.440105 0.395047
vt 0.422992 0.520543
vt 0.422992 0.412160
vt 0.422992 0.606108
vt 0.211928 0.623222
vt 0.229042 0.606108
vt 0.440105 0.623221
vt 0.211928 0.623222
vt 0.422992 0.606108
vt 0.211928 0.623221
vt 0.229041 0.531951
vt 0.229042 0.606108
vt 0.023106 0.000288
vt 0.097263 0.194238
vt 0.023106 0.194238
vt 0.097263 0.000288
vt 0.097263 0.194238
vt 0.023106 0.000288
vt 0.698534 0.800059
vt 0.687125 0.606110
vt 0.698533 0.606110
vt 0.687125 0.800060
vt 0.687125 0.606110
vt 0.698534 0.800059
vt 0.658024 0.177701
vt 0.732181 0.377355
vt 0.658024 0.377355
vt 0.732181 0.177701
vt 0.732181 0.377355
vt 0.658024 0.177701
vt 0.698534 0.999711
vt 0.687125 0.800059
vt 0.698534 0.800059
vt 0.687125 0.999712
vt 0.687125 0.800059
vt 0.698534 0.999711
vt 0.674560 0.023106
vt 0.474907 0.097263
vt 0.474907 0.023106
vt 0.674560 0.097263
vt 0.474907 0.097263
vt 0.674560 0.023106
vt 0.698533 0.606110
vt 0.687124 0.406454
vt 0.698533 0.406454
vt 0.687124 0.606110
vt 0.687124 0.406454
vt 0.698533 0.606110
vt 0.211928 0.600981
vt 0.411581 0.794930
vt 0.211928 0.794930
vt 0.411581 0.600981
vt 0.411581 0.794930
vt 0.211928 0.600981
vt 0.000288 0.635206
vt 0.199942 0.829156
vt 0.000288 0.829156
vt 0.199942 0.635206
vt 0.199942 0.829156
vt 0.000288 0.635206
vt 0.229041 0.617516
vt 0.217632 0.423567
vt 0.229041 0.423567
vt 0.217632 0.617517
vt 0.217632 0.423567
vt 0.229041 0.617516
vt 0.422992 0.520543
vt 0.440105 0.395047
vt 0.440105 0.623221
vt 0.422992 0.531951
vt 0.440105 0.623221
vt 0.422992 0.606108
vt 0.440105 0.623221
vt 0.422992 0.531951
vt 0.422992 0.520542
vt 0.229041 0.520542
vt 0.211928 0.623221
vt 0.211928 0.395045
vt 0.229041 0.520542
vt 0.211928 0.395045
vt 0.229041 0.412158
vt 0.211928 0.623222
vt 0.229041 0.520542
vt 0.229041 0.531951
vt 0.440682 0.618093
vt 0.640336 0.812043
vt 0.440682 0.812043
vt 0.640336 0.618093
vt 0.640336 0.812043
vt 0.440682 0.618093
vt 0.738462 0.149179
vt 0.721349 0.360242
vt 0.721349 0.166292
vt 0.738462 0.377355
vt 0.721349 0.360242
vt 0.738462 0.149179
vt 0.211351 0.194815
vt 0.000288 0.422990
vt 0.000288 0.194815
vt 0.211351 0.422990
vt 0.000288 0.422990
vt 0.211351 0.194815

vn 1.000000 0.000000 0.000000
vn 1.000000 0.000000 0.000000
vn 1.000000 0.000000 0.000000
vn 1.000000 0.000000 0.000000
vn 1.000000 0.000000 0.000000
vn 1.000000 0.000000 0.000000
vn -0.000000 0.000000 1.000000
vn -0.000000 0.000000 1.000000
vn -0.000000 0.000000 1.000000
vn -0.000000 0.000000 1.000000
vn -0.000000 0.000000 1.000000
vn -0.000000 0.000000 1.000000
vn -0.000000 -1.000000 0.000000
vn -0.000000 -1.000000 0.000000
vn -0.000000 -1.000000 0.000000
vn -0.000000 -1.000000 0.000000
vn -0.000000 -1.000000 0.000000
vn -0.000000 -1.000000 0.000000
vn 1.000000 0.000000 0.000000
vn 1.000000 0.000000 0.000000
vn 1.000000 0.000000 0.000000
vn 1.000000 0.000000 0.000000
vn 1.000000 0.000000 0.000000
vn 1.000000 0.000000 0.000000
vn -1.000000 0.000000 0.000000
vn -1.000000 0.000000 0.000000
vn -1.000000 0.000000 0.000000
vn -1.000000 0.000000 -0.000000
vn -1.000000 0.000000 -0.000000
vn -1.000000 0.000000 -0.000000
vn -1.000000 0.000000 0.000000
vn -1.000000 0.000000 0.000000
vn -1.000000 0.000000 0.000000
vn -1.000000 0.000000 -0.000000
vn -1.000000 0.000000 -0.000000
vn -1.000000 0.000000 -0.000000
vn -0.000000 -1.000000 0.000000
vn -0.000000 -1.000000 0.000000
vn -0.000000 -1.000000 0.000000
vn -0.000000 -1.000000 0.000000
vn -0.000000 -1.000000 0.000000
vn -0.000000 -1.000000 0.000000
vn -0.000000 0.000000 1.000000
vn -0.000000 0.000000 1.000000
vn -0.000000 0.000000 1.000000
vn -0.000000 0.000000 1.000000
vn -0.000000 0.000000 1.000000
vn -0.000000 0.000000 1.000000
vn -0.000000 0.000000 -1.000000
vn -0.000000 0.000000 -1.000000
vn -0.000000 0.000000 -1.000000
vn 0.000000 0.000000 -1.000000
vn 0.000000 0.000000 -1.000000
vn 0.000000 0.000000 -1.000000
vn 0.000000 0.000001 -1.000000
vn 0.000000 0.000001 -1.000000
vn 0.000000 0.000001 -1.000000
vn -0.000000 0.000000 -1.000000
vn -0.000000 0.000000 -1.000000
vn -0.000000 0.000000 -1.000000
vn -0.000000 0.000000 1.000000
vn -0.000000 0.000000 1.000000
vn -0.000000 0.000000 1.000000
vn -0.000000 0.000000 1.000000
vn -0.000000 0.000000 1.000000
vn -0.000000 0.000000 1.000000
vn -0.000000 0.000000 1.000000
vn -0.000000 0.000000 1.000000
vn -0.000000 0.000000 1.000000
vn -0.000000 0.000000 1.000000
vn -0.000000 0.000000 1.000000
vn -0.000000 0.000000 1.000000
vn -1.000000 0.000000 0.000000
vn -1.000000 0.000000 0.000000
vn -1.000000 0.000000 0.000000
vn -1.000000 0.000000 -0.000000
vn -1.000000 0.000000 -0.000000
vn -1.000000 0.000000 -0.000000
vn -1.000000 0.000000 -0.000000
vn -1.000000 0.000000 -0.000000
vn -1.000000 0.000000 -0.000000
vn -1.000000 0.000000 -0.000000
vn -1.000000 0.000000 -0.000000
vn -1.000000 0.000000 -0.000000
vn 1.000000 0.000000 0.000000
vn 1.000000 0.000000 0.000000
vn 1.000000 0.000000 0.000000
vn 1.000000 0.000000 0.000000
vn 1.000000 0.000000 0.000000
vn 1.000000 0.000000 0.000000
vn 1.000000 0.000000 0.000000
vn 1.000000 0.000000 0.000000
vn 1.000000 0.000000 0.000000
vn 1.000000 0.000000 0.000000
vn 1.000000 0.000000 0.000000
vn 1.000000 0.000000 0.000000
vn -0.000000 1.000000 0.000000
vn -0.000000 1.000000 0.000000
vn -0.000000 1.000000 0.000000
vn 0.000000 1.000000 -0.000000
vn 0.000000 1.000000 -0.000000
vn 0.000000 1.000000 -0.000000
vn -0.000000 -1.000000 -0.000000
vn -0.000000 -1.000000 -0.000000
vn -0.000000 -1.000000 -0.000000
vn 0.000000 -1.000000 0.000000
vn 0.000000 -1.000000 0.000000
vn 0.000000 -1.000000 0.000000
vn 0.000000 0.000000 -1.000000
vn 0.000000 0.000000 -1.000000
vn 0.000000 0.000000 -1.000000
vn 0.000000 0.000000 -1.000000
vn 0.000000 0.000000 -1.000000
vn 0.000000 0.000000 -1.000000
vn -0.000000 0.000000 -1.000000
vn -0.000000 0.000000 -1.000000
vn -0.000000 0.000000 -1.000000
vn -0.000000 0.000000 -1.000000
vn -0.000000 0.000000 -1.000000
vn -0.000000 0.000000 -1.000000
vn -0.000000 0.000000 -1.000000
vn -0.000000 0.000000 -1.000000
vn -0.000000 0.000000 -1.000000
vn -0.000000 0.000000 -1.000000
vn -0.000000 0.000000 -1.000000
vn -0.000000 0.000000 -1.000000
vn -0.000000 0.000000 -1.000000
vn -0.000000 0.000000 -1.000000
vn -0.000000 0.000000 -1.000000
vn -0.000000 0.000000 -1.000000
vn -0.000000 0.000000 -1.000000
vn -0.000000 0.000000 -1.000000
vn -0.000000 1.000000 0.000000
vn -0.000000 1.000000 0.000000
vn -0.000000 1.000000 0.000000
vn -0.000000 1.000000 0.000000
vn -0.000000 1.000000 0.000000
vn -0.000000 1.000000 0.000000
vn 0.000000 0.000000 -1.000000
vn 0.000000 0.000000 -1.000000
vn 0.000000 0.000000 -1.000000
vn 0.000000 -0.000001 -1.000000
vn 0.000000 -0.000001 -1.000000
vn 0.000000 -0.000001 -1.000000
vn -0.000000 1.000000 0.000000
vn -0.000000 1.000000 0.000000
vn -0.000000 1.000000 0.000000
vn -0.000000 1.000000 0.000000
vn -0.000000 1.000000 0.000000
vn -0.000000 1.000000 0.000000

g Material.003
f 3/1/1 1/2/2 2/3/3
f 4/4/4 1/5/5 3/6/6
f 7/7/7 5/8/8 6/9/9
f 8/10/10 5/11/11 7/12/12
f 11/13/13 9/14/14 10/15/15
f 12/16/16 9/17/17 11/18/18
f 15/19/19 13/20/20 14/21/21
f 16/22/22 13/23/23 15/24/24
f 19/25/25 17/26/26 18/27/27
f 20/28/28 17/29/29 19/30/30
f 23/31/31 21/32/32 22/33/33
f 24/34/34 21/35/35 23/36/36
f 27/37/37 25/38/38 26/39/39
f 28/40/40 25/41/41 27/42/42
f 31/43/43 29/44/44 30/45/45
f 32/46/46 29/47/47 31/48/48
f 35/49/49 33/50/50 34/51/51
f 38/52/52 36/53/53 37/54/54
f 39/55/55 36/56/56 38/57/57
f 42/58/58 40/59/59 41/60/60
f 45/61/61 43/62/62 44/63/63
f 46/64/64 43/65/65 45/66/66
f 49/67/67 47/68/68 48/69/69
f 50/70/70 47/71/71 49/72/72
f 53/73/73 51/74/74 52/75/75
f 54/76/76 51/77/77 53/78/78
f 57/79/79 55/80/80 56/81/81
f 58/82/82 55/83/83 57/84/84
f 61/85/85 59/86/86 60/87/87
f 62/88/88 59/89/89 61/90/90
f 65/91/91 63/92/92 64/93/93
f 66/94/94 63/95/95 65/96/96
f 69/97/97 67/98/98 68/99/99
f 70/100/100 67/101/101 69/102/102
f 73/103/103 71/104/104 72/105/105
f 74/106/106 71/107/107 73/108/108
f 77/109/109 75/110/110 76/111/111
f 78/112/112 75/113/113 77/114/114
f 81/115/115 79/116/116 80/117/117
f 84/118/118 82/119/119 83/120/120
f 87/121/121 85/122/122 86/123/123
f 90/124/124 88/125/125 89/126/126
f 93/127/127 91/128/128 92/129/129
f 96/130/130 94/131/131 95/132/132
f 99/133/133 97/134/134 98/135/135
f 100/136/136 97/137/137 99/138/138
f 103/139/139 101/140/140 102/141/141
f 104/142/142 101/143/143 103/144/144
f 107/145/145 105/146/146 106/147/147
f 108/148/148 105/149/149 107/150/150

