# Converted from B3D for Luanti (With Correct Normals)
# Object Name: multidecor_dark_rusty_fence_1

v -1.800000 0.266667 1.700000
v -1.800000 1.000000 1.700000
v -1.729289 1.000000 1.729289
v -1.729289 0.266667 1.729289
v -1.700000 0.266667 1.800000
v -1.700000 1.000000 1.800000
v -1.729289 1.000000 1.870711
v -1.729289 0.266667 1.870711
v -1.729289 0.266667 1.870711
v -1.729289 1.000000 1.870711
v -1.800000 1.000000 1.900000
v -1.800000 0.266667 1.900000
v -1.800000 0.266667 1.900000
v -1.800000 1.000000 1.900000
v -1.870711 1.000000 1.870711
v -1.870711 0.266667 1.870711
v -1.870711 0.266667 1.870711
v -1.870711 1.000000 1.870711
v -1.900000 1.000000 1.800000
v -1.900000 0.266667 1.800000
v -1.700000 1.000000 1.800000
v -1.800000 1.000000 1.700000
v -1.900000 1.000000 1.800000
v -1.900000 0.266667 1.800000
v -1.900000 1.000000 1.800000
v -1.870711 1.000000 1.729289
v -1.870711 0.266667 1.729289
v -1.870711 0.266667 1.729289
v -1.870711 1.000000 1.729289
v -1.800000 1.000000 1.700000
v -1.800000 0.266667 1.700000
v -1.729289 -1.000000 1.870711
v -1.870711 -1.000000 1.870711
v -1.870711 -1.000000 1.729289
v -1.729289 0.900000 1.750000
v 0.029290 0.900000 1.750000
v 0.029290 0.864645 1.764645
v -1.729289 0.864645 1.764645
v -1.729289 0.864645 1.764645
v 0.029290 0.864645 1.764645
v 0.029290 0.850000 1.800000
v -1.729289 0.850000 1.800000
v -1.729289 0.850000 1.800000
v 0.029290 0.850000 1.800000
v 0.029290 0.864645 1.835355
v -1.729289 0.864645 1.835355
v -1.729289 0.864645 1.835355
v 0.029290 0.864645 1.835355
v 0.029290 0.900000 1.850000
v -1.729289 0.900000 1.850000
v -1.729289 0.900000 1.850000
v 0.029290 0.900000 1.850000
v 0.029290 0.935355 1.835355
v -1.729289 0.935355 1.835355
v -1.729289 0.935355 1.835355
v 0.029290 0.935355 1.835355
v 0.029290 0.950000 1.800000
v -1.729289 0.950000 1.800000
v -1.729289 0.950000 1.800000
v 0.029290 0.950000 1.800000
v 0.029290 0.935355 1.764645
v -1.729289 0.935355 1.764645
v -1.729289 0.935355 1.764645
v 0.029290 0.935355 1.764645
v 0.029290 0.900000 1.750000
v -1.729289 0.900000 1.750000
v 0.100000 0.266667 1.900000
v 0.100000 1.000000 1.900000
v 0.029289 1.000000 1.870711
v 0.029289 0.266667 1.870711
v 0.029289 0.266667 1.870711
v 0.029289 1.000000 1.870711
v 0.000000 1.000000 1.800000
v 0.000000 0.266667 1.800000
v 0.000000 1.000000 1.800000
v 0.100000 1.000000 1.900000
v 0.100000 1.000000 1.800000
v 0.029289 0.266667 1.729289
v 0.029289 1.000000 1.729289
v 0.100000 1.000000 1.700000
v 0.100000 0.266667 1.700000
v 0.029289 -1.000000 1.870711
v 0.000000 -1.000000 1.800000
v 0.029289 -1.000000 1.729289
v -1.700000 1.000000 1.800000
v -1.729289 1.000000 1.729289
v -1.800000 1.000000 1.700000
v -1.800000 1.000000 1.700000
v -1.870711 1.000000 1.729289
v -1.900000 1.000000 1.800000
v -1.900000 1.000000 1.800000
v -1.870711 1.000000 1.870711
v -1.800000 1.000000 1.900000
v -1.800000 1.000000 1.900000
v -1.729289 1.000000 1.870711
v -1.900000 1.000000 1.800000
v -1.729289 1.000000 1.870711
v -1.700000 1.000000 1.800000
v -1.900000 1.000000 1.800000
v -1.870711 -1.000000 1.729289
v -1.800000 -1.000000 1.700000
v -1.729289 -1.000000 1.729289
v -1.729289 -1.000000 1.729289
v -1.700000 -1.000000 1.800000
v -1.729289 -1.000000 1.870711
v -1.729289 -1.000000 1.870711
v -1.800000 -1.000000 1.900000
v -1.870711 -1.000000 1.870711
v -1.870711 -1.000000 1.870711
v -1.900000 -1.000000 1.800000
v -1.870711 -1.000000 1.729289
v -1.870711 -1.000000 1.729289
v -1.729289 -1.000000 1.729289
v -1.729289 -1.000000 1.870711
v 0.100000 1.000000 1.700000
v 0.029289 1.000000 1.729289
v 0.000000 1.000000 1.800000
v 0.000000 1.000000 1.800000
v 0.029289 1.000000 1.870711
v 0.100000 1.000000 1.900000
v 0.029289 -1.000000 1.729289
v 0.100000 -1.000000 1.700000
v 0.100000 -1.000000 1.800000
v 0.100000 -1.000000 1.900000
v 0.029289 -1.000000 1.870711
v 0.029289 -1.000000 1.729289
v -1.729289 -0.700000 1.750000
v 0.029290 -0.700000 1.750000
v 0.029290 -0.735355 1.764645
v -1.729289 -0.735355 1.764645
v -1.729289 -0.735355 1.764645
v 0.029290 -0.735355 1.764645
v 0.029290 -0.750000 1.800000
v -1.729289 -0.750000 1.800000
v -1.729289 -0.750000 1.800000
v 0.029290 -0.750000 1.800000
v 0.029290 -0.735355 1.835355
v -1.729289 -0.735355 1.835355
v -1.729289 -0.735355 1.835355
v 0.029290 -0.735355 1.835355
v 0.029290 -0.700000 1.850000
v -1.729289 -0.700000 1.850000
v -1.729289 -0.700000 1.850000
v 0.029290 -0.700000 1.850000
v 0.029290 -0.664645 1.835355
v -1.729289 -0.664645 1.835355
v -1.729289 -0.664645 1.835355
v 0.029290 -0.664645 1.835355
v 0.029290 -0.650000 1.800000
v -1.729289 -0.650000 1.800000
v -1.729289 -0.650000 1.800000
v 0.029290 -0.650000 1.800000
v 0.029290 -0.664645 1.764645
v -1.729289 -0.664645 1.764645
v -1.729289 -0.664645 1.764645
v 0.029290 -0.664645 1.764645
v 0.029290 -0.700000 1.750000
v -1.729289 -0.700000 1.750000
v -1.729289 -0.650000 1.800000
v -1.729289 0.850000 1.800000
v 0.029290 0.850000 1.800000
v 0.029290 -0.650000 1.800000
v 0.029289 1.000000 1.729289
v 0.029289 0.266667 1.729289
v 0.014645 0.266667 1.764645
v -1.700000 1.000000 1.800000
v -1.700000 0.266667 1.800000
v -1.714645 0.266667 1.764645
v 0.014645 -0.066667 1.764645
v 0.029289 -0.066667 1.729289
v 0.029289 -1.000000 1.729289
v 0.029289 -1.000000 1.729289
v 0.029289 -0.066667 1.729289
v 0.100000 -0.066667 1.700000
v 0.100000 -1.000000 1.700000
v 0.029289 -0.066667 1.729289
v 0.029289 0.266667 1.729289
v 0.100000 0.266667 1.700000
v 0.100000 -0.066667 1.700000
v 0.029289 -1.000000 1.870711
v 0.029289 -0.066667 1.870711
v 0.000000 -0.066667 1.800000
v 0.000000 -1.000000 1.800000
v 0.029289 -0.066667 1.870711
v 0.029289 0.266667 1.870711
v 0.000000 0.266667 1.800000
v 0.000000 -0.066667 1.800000
v 0.100000 -1.000000 1.900000
v 0.100000 -0.066667 1.900000
v 0.029289 -0.066667 1.870711
v 0.029289 -1.000000 1.870711
v 0.100000 -0.066667 1.900000
v 0.100000 0.266667 1.900000
v 0.029289 0.266667 1.870711
v 0.029289 -0.066667 1.870711
v -1.714645 -0.066667 1.764645
v -1.700000 -0.066667 1.800000
v -1.700000 -1.000000 1.800000
v -1.870711 -1.000000 1.729289
v -1.870711 -0.066667 1.729289
v -1.800000 -0.066667 1.700000
v -1.800000 -1.000000 1.700000
v -1.870711 -0.066667 1.729289
v -1.870711 0.266667 1.729289
v -1.800000 0.266667 1.700000
v -1.800000 -0.066667 1.700000
v -1.900000 -1.000000 1.800000
v -1.900000 -0.066667 1.800000
v -1.870711 -0.066667 1.729289
v -1.870711 -1.000000 1.729289
v -1.900000 -0.066667 1.800000
v -1.900000 0.266667 1.800000
v -1.870711 0.266667 1.729289
v -1.870711 -0.066667 1.729289
v -1.870711 -1.000000 1.870711
v -1.870711 -0.066667 1.870711
v -1.900000 -0.066667 1.800000
v -1.900000 -1.000000 1.800000
v -1.870711 -0.066667 1.870711
v -1.870711 0.266667 1.870711
v -1.900000 0.266667 1.800000
v -1.900000 -0.066667 1.800000
v -1.800000 -1.000000 1.900000
v -1.800000 -0.066667 1.900000
v -1.870711 -0.066667 1.870711
v -1.870711 -1.000000 1.870711
v -1.800000 -0.066667 1.900000
v -1.800000 0.266667 1.900000
v -1.870711 0.266667 1.870711
v -1.870711 -0.066667 1.870711
v -1.729289 -1.000000 1.870711
v -1.729289 -0.066667 1.870711
v -1.800000 -0.066667 1.900000
v -1.800000 -1.000000 1.900000
v -1.729289 -0.066667 1.870711
v -1.729289 0.266667 1.870711
v -1.800000 0.266667 1.900000
v -1.800000 -0.066667 1.900000
v -1.700000 -1.000000 1.800000
v -1.700000 -0.066667 1.800000
v -1.729289 -0.066667 1.870711
v -1.729289 -1.000000 1.870711
v -1.700000 -0.066667 1.800000
v -1.700000 0.266667 1.800000
v -1.729289 0.266667 1.870711
v -1.729289 -0.066667 1.870711
v -1.800000 -1.000000 1.700000
v -1.800000 -0.066667 1.700000
v -1.729289 -0.066667 1.729289
v -1.729289 -1.000000 1.729289
v -1.800000 -0.066667 1.700000
v -1.800000 0.266667 1.700000
v -1.729289 0.266667 1.729289
v -1.729289 -0.066667 1.729289
v 0.029289 -0.066667 1.729289
v -1.729289 -0.066667 1.729289
v -1.729289 0.266667 1.729289
v 0.029289 0.266667 1.729289
v -1.714645 0.266667 1.764645
v -1.714645 -0.066667 1.764645
v 0.014645 -0.066667 1.764645
v 0.014645 0.266667 1.764645
v 0.014645 -0.066667 1.764645
v -1.714645 -0.066667 1.764645
v -1.729289 -0.066667 1.729289
v 0.029289 -0.066667 1.729289
v 0.014645 0.266667 1.764645
v 0.029289 0.266667 1.729289
v -1.729289 0.266667 1.729289
v -1.714645 0.266667 1.764645
v 0.000000 -0.066667 1.800000
v 0.000000 0.266667 1.800000
v 0.014645 0.266667 1.764645
v 0.014645 -0.066667 1.764645
v -1.700000 -0.066667 1.800000
v -1.714645 -0.066667 1.764645
v -1.714645 0.266667 1.764645
v -1.700000 0.266667 1.800000
v 0.014645 0.266667 1.764645
v 0.000000 0.266667 1.800000
v 0.000000 1.000000 1.800000
v 0.000000 1.000000 1.800000
v 0.029289 1.000000 1.729289
v 0.014645 0.266667 1.764645
v -1.714645 0.266667 1.764645
v -1.729289 0.266667 1.729289
v -1.729289 1.000000 1.729289
v -1.729289 1.000000 1.729289
v -1.700000 1.000000 1.800000
v -1.714645 0.266667 1.764645
v 0.029289 -1.000000 1.729289
v 0.000000 -1.000000 1.800000
v 0.014645 -0.066667 1.764645
v 0.000000 -1.000000 1.800000
v 0.000000 -0.066667 1.800000
v 0.014645 -0.066667 1.764645
v -1.700000 -1.000000 1.800000
v -1.729289 -1.000000 1.729289
v -1.714645 -0.066667 1.764645
v -1.729289 -1.000000 1.729289
v -1.729289 -0.066667 1.729289
v -1.714645 -0.066667 1.764645
v 0.100000 -1.000000 1.800000
v 0.100000 -1.000000 1.900000
v 0.029289 -1.000000 1.729289
v 0.100000 1.000000 1.800000
v 0.100000 1.000000 1.700000
v 0.000000 1.000000 1.800000

vt 0.319703 0.437835
vt 0.261166 0.998708
vt 0.261165 0.437835
vt 0.319703 0.998708
vt 0.261166 0.998708
vt 0.319703 0.437835
vt 0.436778 0.437835
vt 0.378241 0.998708
vt 0.378240 0.437835
vt 0.436778 0.998708
vt 0.378241 0.998708
vt 0.436778 0.437835
vt 0.495315 0.437835
vt 0.436778 0.998708
vt 0.436778 0.437835
vt 0.495315 0.998708
vt 0.436778 0.998708
vt 0.495315 0.437835
vt 0.085553 0.437835
vt 0.027016 0.998708
vt 0.027016 0.437835
vt 0.085553 0.998708
vt 0.027016 0.998708
vt 0.085553 0.437835
vt 0.144091 0.437835
vt 0.085553 0.998708
vt 0.085553 0.437835
vt 0.144091 0.998708
vt 0.085553 0.998708
vt 0.144091 0.437835
vt 0.620985 0.384247
vt 0.762307 0.325710
vt 0.720915 0.425639
vt 0.202628 0.437835
vt 0.144091 0.998708
vt 0.144091 0.437835
vt 0.202628 0.998708
vt 0.144091 0.998708
vt 0.202628 0.437835
vt 0.261165 0.437835
vt 0.202628 0.998708
vt 0.202628 0.437835
vt 0.261166 0.998708
vt 0.202628 0.998708
vt 0.261165 0.437835
vt 0.762307 0.183718
vt 0.620985 0.242256
vt 0.662377 0.142326
vt 1.059695 0.970385
vt -0.000878 0.941123
vt 1.059695 0.941117
vt -0.000878 0.970394
vt -0.000878 0.941123
vt 1.059695 0.970385
vt 1.059696 0.999653
vt -0.000878 0.970394
vt 1.059695 0.970385
vt -0.000878 0.999665
vt -0.000878 0.970394
vt 1.059696 0.999653
vt 1.059695 0.794779
vt -0.000877 0.765496
vt 1.059696 0.765511
vt -0.000878 0.794767
vt -0.000877 0.765496
vt 1.059695 0.794779
vt 1.059695 0.824047
vt -0.000878 0.794767
vt 1.059695 0.794779
vt -0.000878 0.824038
vt -0.000878 0.794767
vt 1.059695 0.824047
vt 1.059695 0.853314
vt -0.000878 0.824038
vt 1.059695 0.824046
vt -0.000878 0.853310
vt -0.000878 0.824038
vt 1.059695 0.853314
vt 1.059695 0.882582
vt -0.000878 0.853310
vt 1.059695 0.853314
vt -0.000878 0.882581
vt -0.000878 0.853310
vt 1.059695 0.882582
vt 1.059695 0.911850
vt -0.000878 0.882581
vt 1.059695 0.882582
vt -0.000878 0.911852
vt -0.000878 0.882581
vt 1.059695 0.911850
vt 1.059695 0.941117
vt -0.000878 0.911852
vt 1.059695 0.911849
vt -0.000878 0.941123
vt -0.000878 0.911852
vt 1.059695 0.941117
vt -0.016578 0.437835
vt -0.075116 0.998708
vt -0.075115 0.437835
vt -0.016579 0.998708
vt -0.075116 0.998708
vt -0.016578 0.437835
vt 0.083352 0.437835
vt 0.024814 0.998708
vt 0.024814 0.437835
vt 0.083351 0.998708
vt 0.024814 0.998708
vt 0.083352 0.437835
vt 0.662377 0.426309
vt 0.691646 0.496970
vt 0.591717 0.455577
vt 0.300356 0.437835
vt 0.241819 0.998709
vt 0.241819 0.437835
vt 0.300356 0.998709
vt 0.241819 0.998709
vt 0.300356 0.437835
vt 0.691646 0.129533
vt 0.650254 0.029604
vt 0.691646 0.070996
vt 0.720915 0.425639
vt 0.762307 0.325710
vt 0.762307 0.384247
vt 0.620985 0.384247
vt 0.720915 0.425639
vt 0.662377 0.425639
vt 0.662377 0.284317
vt 0.620985 0.384247
vt 0.620985 0.325710
vt 0.620985 0.384247
vt 0.662377 0.284317
vt 0.720915 0.284317
vt 0.620985 0.384247
vt 0.720915 0.284317
vt 0.762307 0.325710
vt 0.720915 0.283648
vt 0.762307 0.183718
vt 0.762307 0.242256
vt 0.620985 0.242256
vt 0.720915 0.283648
vt 0.662377 0.283648
vt 0.662377 0.142326
vt 0.620985 0.242256
vt 0.620985 0.183718
vt 0.762307 0.183718
vt 0.662377 0.142326
vt 0.720915 0.142326
vt 0.620985 0.242256
vt 0.762307 0.183718
vt 0.720915 0.283648
vt 0.691646 0.496969
vt 0.733038 0.397040
vt 0.733038 0.455577
vt 0.591717 0.455577
vt 0.691646 0.496969
vt 0.633109 0.496969
vt 0.620985 0.100264
vt 0.691646 0.129533
vt 0.650254 0.170925
vt 0.691646 0.129533
vt 0.591716 0.029603
vt 0.650254 0.029603
vt 1.056569 0.555976
vt -0.000549 0.526700
vt 1.056569 0.526708
vt -0.000549 0.555971
vt -0.000549 0.526700
vt 1.056569 0.555976
vt 1.056569 0.585243
vt -0.000549 0.555971
vt 1.056569 0.555975
vt -0.000549 0.585242
vt -0.000549 0.555971
vt 1.056569 0.585243
vt 1.056569 0.614511
vt -0.000549 0.585242
vt 1.056569 0.585243
vt -0.000549 0.614513
vt -0.000549 0.585242
vt 1.056569 0.614511
vt 1.056569 0.643779
vt -0.000549 0.614513
vt 1.056569 0.614511
vt -0.000549 0.643784
vt -0.000549 0.614513
vt 1.056569 0.643779
vt 1.056569 0.673046
vt -0.000549 0.643784
vt 1.056569 0.643778
vt -0.000549 0.673055
vt -0.000549 0.643784
vt 1.056569 0.673046
vt 1.056569 0.702314
vt -0.000549 0.673055
vt 1.056569 0.673046
vt -0.000549 0.702327
vt -0.000549 0.673055
vt 1.056569 0.702314
vt 1.056569 0.497440
vt -0.000548 0.468157
vt 1.056569 0.468172
vt -0.000548 0.497428
vt -0.000548 0.468157
vt 1.056569 0.497440
vt 1.056569 0.526708
vt -0.000548 0.497428
vt 1.056569 0.497440
vt -0.000549 0.526700
vt -0.000548 0.497428
vt 1.056569 0.526708
vt 0.171158 0.998708
vt 0.200427 0.437835
vt 0.200427 0.998708
vt 0.348972 0.998708
vt 0.378240 0.437835
vt 0.378241 0.998708
vt 0.700426 0.967487
vt 0.671158 0.253652
vt 0.700426 0.253651
vt 0.800356 0.253651
vt 0.741818 0.967488
vt 0.741818 0.253651
vt 0.800355 0.967488
vt 0.741818 0.967488
vt 0.800356 0.253651
vt 0.800356 -0.001291
vt 0.741819 0.253651
vt 0.741819 -0.001291
vt 0.800356 0.253651
vt 0.741819 0.253651
vt 0.800356 -0.001291
vt 0.583351 0.253652
vt 0.524814 0.967488
vt 0.524814 0.253652
vt 0.583351 0.967487
vt 0.524814 0.967488
vt 0.583351 0.253652
vt 0.583351 -0.001292
vt 0.524814 0.253652
vt 0.524814 -0.001292
vt 0.583351 0.253652
vt 0.524814 0.253652
vt 0.583351 -0.001292
vt 0.483422 0.253652
vt 0.424884 0.967487
vt 0.424884 0.253652
vt 0.483421 0.967487
vt 0.424884 0.967487
vt 0.483422 0.253652
vt 0.483422 -0.001292
vt 0.424885 0.253652
vt 0.424884 -0.001292
vt 0.483422 0.253652
vt 0.424885 0.253652
vt 0.483422 -0.001292
vt 0.878240 0.967487
vt 0.848972 0.253651
vt 0.878241 0.253651
vt 0.761165 0.253651
vt 0.702628 0.967487
vt 0.702628 0.253651
vt 0.761165 0.967487
vt 0.702628 0.967487
vt 0.761165 0.253651
vt 0.761166 -0.001292
vt 0.702628 0.253651
vt 0.702628 -0.001292
vt 0.761165 0.253651
vt 0.702628 0.253651
vt 0.761166 -0.001292
vt 0.702628 0.253651
vt 0.644090 0.967487
vt 0.644091 0.253651
vt 0.702628 0.967487
vt 0.644090 0.967487
vt 0.702628 0.253651
vt 0.702628 -0.001292
vt 0.644091 0.253651
vt 0.644091 -0.001292
vt 0.702628 0.253651
vt 0.644091 0.253651
vt 0.702628 -0.001292
vt 0.644091 0.253651
vt 0.585552 0.967487
vt 0.585554 0.253651
vt 0.644090 0.967487
vt 0.585552 0.967487
vt 0.644091 0.253651
vt 0.644091 -0.001292
vt 0.585554 0.253651
vt 0.585553 -0.001292
vt 0.644091 0.253651
vt 0.585554 0.253651
vt 0.644091 -0.001292
vt 0.585554 0.253651
vt 0.527015 0.967487
vt 0.527016 0.253651
vt 0.585552 0.967487
vt 0.527015 0.967487
vt 0.585554 0.253651
vt 0.585553 -0.001292
vt 0.527016 0.253651
vt 0.527016 -0.001292
vt 0.585554 0.253651
vt 0.527016 0.253651
vt 0.585553 -0.001292
vt 0.995315 0.253651
vt 0.936778 0.967487
vt 0.936778 0.253651
vt 0.995315 0.967487
vt 0.936778 0.967487
vt 0.995315 0.253651
vt 0.995315 -0.001292
vt 0.936778 0.253651
vt 0.936778 -0.001292
vt 0.995315 0.253651
vt 0.936778 0.253651
vt 0.995315 -0.001292
vt 0.936778 0.253651
vt 0.878240 0.967487
vt 0.878241 0.253651
vt 0.936778 0.967487
vt 0.878240 0.967487
vt 0.936778 0.253651
vt 0.936778 -0.001292
vt 0.878241 0.253651
vt 0.878241 -0.001292
vt 0.936778 0.253651
vt 0.878241 0.253651
vt 0.936778 -0.001292
vt 0.819703 0.253651
vt 0.761165 0.967487
vt 0.761165 0.253651
vt 0.819703 0.967487
vt 0.761165 0.967487
vt 0.819703 0.253651
vt 0.819703 -0.001292
vt 0.761165 0.253651
vt 0.761166 -0.001292
vt 0.819703 0.253651
vt 0.761165 0.253651
vt 0.819703 -0.001292
vt 0.671157 -0.001292
vt 0.641889 0.253652
vt 0.641889 -0.001292
vt 0.671158 0.253652
vt 0.641889 0.253652
vt 0.671157 -0.001292
vt 0.848972 -0.001292
vt 0.878241 0.253651
vt 0.848972 0.253651
vt 0.878241 -0.001292
vt 0.878241 0.253651
vt 0.848972 -0.001292
vt 0.141889 0.437835
vt 0.171157 0.998708
vt 0.141889 0.998708
vt 0.171157 0.998708
vt 0.141889 0.437835
vt 0.200427 0.437835
vt 0.319703 0.437835
vt 0.348972 0.998708
vt 0.319703 0.998708
vt 0.348972 0.998708
vt 0.319703 0.437835
vt 0.378240 0.437835
vt 0.671158 0.253652
vt 0.700426 0.967487
vt 0.641889 0.967487
vt 0.671159 0.253652
vt 0.641889 0.967487
vt 0.641889 0.253652
vt 0.848972 0.253651
vt 0.878240 0.967487
vt 0.819703 0.967487
vt 0.848972 0.253651
vt 0.819703 0.967487
vt 0.819703 0.253651
vt 0.691646 0.129533
vt 0.620985 0.100264
vt 0.591716 0.029603
vt 0.691646 0.496970
vt 0.662377 0.426309
vt 0.733038 0.397040
vt 1.029716 0.556929
vt -0.004968 0.474824
vt 0.471321 -0.001466
vt 0.553427 1.033219
vt -0.004968 0.474824
vt 1.029716 0.556929
vt 0.999933 0.444592
vt -0.060218 0.243647
vt 0.999933 0.243644
vt -0.060217 0.444595
vt -0.060218 0.243647
vt 0.999933 0.444592
vt -0.051388 0.222329
vt 0.991105 0.021382
vt 0.991104 0.222330
vt -0.051388 0.021380
vt 0.991105 0.021382
vt -0.051388 0.222329
vt 0.999933 0.243644
vt -0.051388 0.222329
vt 0.991104 0.222330
vt -0.060218 0.243646
vt -0.051388 0.222329
vt 0.999933 0.243644
vt 0.999933 0.000067
vt -0.051388 0.021381
vt -0.060216 0.000067
vt 0.991105 0.021382
vt -0.051388 0.021381
vt 0.999933 0.000067

vn 0.382683 0.000000 -0.923880
vn 0.382683 0.000000 -0.923880
vn 0.382683 0.000000 -0.923880
vn 0.382682 -0.000000 -0.923880
vn 0.382682 -0.000000 -0.923880
vn 0.382682 -0.000000 -0.923880
vn 0.923881 0.000000 0.382680
vn 0.923881 0.000000 0.382680
vn 0.923881 0.000000 0.382680
vn 0.923878 -0.000000 0.382687
vn 0.923878 -0.000000 0.382687
vn 0.923878 -0.000000 0.382687
vn 0.382682 -0.000000 0.923880
vn 0.382682 -0.000000 0.923880
vn 0.382682 -0.000000 0.923880
vn 0.382683 0.000000 0.923880
vn 0.382683 0.000000 0.923880
vn 0.382683 0.000000 0.923880
vn -0.382683 0.000000 0.923880
vn -0.382683 0.000000 0.923880
vn -0.382683 0.000000 0.923880
vn -0.382685 0.000000 0.923879
vn -0.382685 0.000000 0.923879
vn -0.382685 0.000000 0.923879
vn -0.923879 0.000000 0.382684
vn -0.923879 0.000000 0.382684
vn -0.923879 0.000000 0.382684
vn -0.923881 0.000000 0.382681
vn -0.923881 0.000000 0.382681
vn -0.923881 0.000000 0.382681
vn -0.000000 1.000000 0.000000
vn -0.000000 1.000000 0.000000
vn -0.000000 1.000000 0.000000
vn -0.923881 0.000000 -0.382681
vn -0.923881 0.000000 -0.382681
vn -0.923881 0.000000 -0.382681
vn -0.923879 0.000000 -0.382684
vn -0.923879 0.000000 -0.382684
vn -0.923879 0.000000 -0.382684
vn -0.382683 0.000000 -0.923880
vn -0.382683 0.000000 -0.923880
vn -0.382683 0.000000 -0.923880
vn -0.382682 0.000000 -0.923880
vn -0.382682 0.000000 -0.923880
vn -0.382682 0.000000 -0.923880
vn -0.000000 -1.000000 0.000000
vn -0.000000 -1.000000 0.000000
vn -0.000000 -1.000000 0.000000
vn -0.000000 -0.382686 -0.923879
vn -0.000000 -0.382686 -0.923879
vn -0.000000 -0.382686 -0.923879
vn -0.000000 -0.382680 -0.923881
vn -0.000000 -0.382680 -0.923881
vn -0.000000 -0.382680 -0.923881
vn -0.000000 -0.923880 -0.382683
vn -0.000000 -0.923880 -0.382683
vn -0.000000 -0.923880 -0.382683
vn -0.000000 -0.923880 -0.382683
vn -0.000000 -0.923880 -0.382683
vn -0.000000 -0.923880 -0.382683
vn -0.000000 -0.923880 0.382683
vn -0.000000 -0.923880 0.382683
vn -0.000000 -0.923880 0.382683
vn -0.000000 -0.923879 0.382686
vn -0.000000 -0.923879 0.382686
vn -0.000000 -0.923879 0.382686
vn -0.000000 -0.382686 0.923879
vn -0.000000 -0.382686 0.923879
vn -0.000000 -0.382686 0.923879
vn 0.000000 -0.382686 0.923879
vn 0.000000 -0.382686 0.923879
vn 0.000000 -0.382686 0.923879
vn 0.000000 0.382679 0.923881
vn 0.000000 0.382679 0.923881
vn 0.000000 0.382679 0.923881
vn -0.000000 0.382691 0.923876
vn -0.000000 0.382691 0.923876
vn -0.000000 0.382691 0.923876
vn -0.000000 0.923879 0.382684
vn -0.000000 0.923879 0.382684
vn -0.000000 0.923879 0.382684
vn -0.000000 0.923880 0.382682
vn -0.000000 0.923880 0.382682
vn -0.000000 0.923880 0.382682
vn -0.000000 0.923880 -0.382682
vn -0.000000 0.923880 -0.382682
vn -0.000000 0.923880 -0.382682
vn -0.000000 0.923880 -0.382682
vn -0.000000 0.923880 -0.382682
vn -0.000000 0.923880 -0.382682
vn -0.000000 0.382685 -0.923879
vn -0.000000 0.382685 -0.923879
vn -0.000000 0.382685 -0.923879
vn -0.000000 0.382679 -0.923881
vn -0.000000 0.382679 -0.923881
vn -0.000000 0.382679 -0.923881
vn -0.382681 0.000000 0.923881
vn -0.382681 0.000000 0.923881
vn -0.382681 0.000000 0.923881
vn -0.382681 0.000000 0.923881
vn -0.382681 0.000000 0.923881
vn -0.382681 0.000000 0.923881
vn -0.923880 0.000000 0.382683
vn -0.923880 0.000000 0.382683
vn -0.923880 0.000000 0.382683
vn -0.923880 0.000000 0.382683
vn -0.923880 0.000000 0.382683
vn -0.923880 0.000000 0.382683
vn -0.000000 1.000000 0.000000
vn -0.000000 1.000000 0.000000
vn -0.000000 1.000000 0.000000
vn -0.382684 0.000000 -0.923879
vn -0.382684 0.000000 -0.923879
vn -0.382684 0.000000 -0.923879
vn -0.382684 0.000000 -0.923879
vn -0.382684 0.000000 -0.923879
vn -0.382684 0.000000 -0.923879
vn -0.000000 -1.000000 0.000000
vn -0.000000 -1.000000 0.000000
vn -0.000000 -1.000000 0.000000
vn -0.000000 1.000000 0.000000
vn -0.000000 1.000000 0.000000
vn -0.000000 1.000000 0.000000
vn -0.000000 1.000000 0.000000
vn -0.000000 1.000000 0.000000
vn -0.000000 1.000000 0.000000
vn -0.000000 1.000000 0.000000
vn -0.000000 1.000000 0.000000
vn -0.000000 1.000000 0.000000
vn -0.000000 1.000000 0.000000
vn -0.000000 1.000000 0.000000
vn -0.000000 1.000000 0.000000
vn -0.000000 1.000000 0.000000
vn -0.000000 1.000000 0.000000
vn -0.000000 1.000000 0.000000
vn -0.000000 -1.000000 0.000000
vn -0.000000 -1.000000 0.000000
vn -0.000000 -1.000000 0.000000
vn -0.000000 -1.000000 0.000000
vn -0.000000 -1.000000 0.000000
vn -0.000000 -1.000000 0.000000
vn -0.000000 -1.000000 0.000000
vn -0.000000 -1.000000 0.000000
vn -0.000000 -1.000000 0.000000
vn -0.000000 -1.000000 0.000000
vn -0.000000 -1.000000 0.000000
vn -0.000000 -1.000000 0.000000
vn -0.000000 -1.000000 0.000000
vn -0.000000 -1.000000 0.000000
vn -0.000000 -1.000000 0.000000
vn -0.000000 1.000000 0.000000
vn -0.000000 1.000000 0.000000
vn -0.000000 1.000000 0.000000
vn -0.000000 1.000000 0.000000
vn -0.000000 1.000000 0.000000
vn -0.000000 1.000000 0.000000
vn -0.000000 -1.000000 0.000000
vn -0.000000 -1.000000 0.000000
vn -0.000000 -1.000000 0.000000
vn -0.000000 -1.000000 0.000000
vn -0.000000 -1.000000 0.000000
vn -0.000000 -1.000000 0.000000
vn -0.000000 -0.382686 -0.923879
vn -0.000000 -0.382686 -0.923879
vn -0.000000 -0.382686 -0.923879
vn -0.000000 -0.382680 -0.923881
vn -0.000000 -0.382680 -0.923881
vn -0.000000 -0.382680 -0.923881
vn -0.000000 -0.923880 -0.382683
vn -0.000000 -0.923880 -0.382683
vn -0.000000 -0.923880 -0.382683
vn -0.000000 -0.923880 -0.382683
vn -0.000000 -0.923880 -0.382683
vn -0.000000 -0.923880 -0.382683
vn -0.000000 -0.923880 0.382683
vn -0.000000 -0.923880 0.382683
vn -0.000000 -0.923880 0.382683
vn -0.000000 -0.923879 0.382686
vn -0.000000 -0.923879 0.382686
vn -0.000000 -0.923879 0.382686
vn -0.000000 -0.382686 0.923879
vn -0.000000 -0.382686 0.923879
vn -0.000000 -0.382686 0.923879
vn 0.000000 -0.382686 0.923879
vn 0.000000 -0.382686 0.923879
vn 0.000000 -0.382686 0.923879
vn 0.000000 0.382679 0.923881
vn 0.000000 0.382679 0.923881
vn 0.000000 0.382679 0.923881
vn -0.000000 0.382691 0.923876
vn -0.000000 0.382691 0.923876
vn -0.000000 0.382691 0.923876
vn -0.000000 0.923879 0.382684
vn -0.000000 0.923879 0.382684
vn -0.000000 0.923879 0.382684
vn -0.000000 0.923880 0.382682
vn -0.000000 0.923880 0.382682
vn -0.000000 0.923880 0.382682
vn -0.000000 0.923880 -0.382682
vn -0.000000 0.923880 -0.382682
vn -0.000000 0.923880 -0.382682
vn -0.000000 0.923880 -0.382682
vn -0.000000 0.923880 -0.382682
vn -0.000000 0.923880 -0.382682
vn -0.000000 0.382685 -0.923879
vn -0.000000 0.382685 -0.923879
vn -0.000000 0.382685 -0.923879
vn -0.000000 0.382679 -0.923881
vn -0.000000 0.382679 -0.923881
vn -0.000000 0.382679 -0.923881
vn -0.923880 0.000000 -0.382683
vn -0.923880 0.000000 -0.382683
vn -0.923880 0.000000 -0.382683
vn 0.923881 0.000000 -0.382681
vn 0.923881 0.000000 -0.382681
vn 0.923881 0.000000 -0.382681
vn -0.923880 0.000000 -0.382683
vn -0.923880 0.000000 -0.382683
vn -0.923880 0.000000 -0.382683
vn -0.382684 0.000000 -0.923879
vn -0.382684 0.000000 -0.923879
vn -0.382684 0.000000 -0.923879
vn -0.382684 0.000000 -0.923879
vn -0.382684 0.000000 -0.923879
vn -0.382684 0.000000 -0.923879
vn -0.382684 0.000000 -0.923879
vn -0.382684 0.000000 -0.923879
vn -0.382684 0.000000 -0.923879
vn -0.382684 0.000000 -0.923879
vn -0.382684 0.000000 -0.923879
vn -0.382684 0.000000 -0.923879
vn -0.923880 0.000000 0.382683
vn -0.923880 0.000000 0.382683
vn -0.923880 0.000000 0.382683
vn -0.923880 0.000000 0.382683
vn -0.923880 0.000000 0.382683
vn -0.923880 0.000000 0.382683
vn -0.923880 0.000000 0.382683
vn -0.923880 0.000000 0.382683
vn -0.923880 0.000000 0.382683
vn -0.923880 0.000000 0.382683
vn -0.923880 0.000000 0.382683
vn -0.923880 0.000000 0.382683
vn -0.382681 0.000000 0.923881
vn -0.382681 0.000000 0.923881
vn -0.382681 0.000000 0.923881
vn -0.382681 0.000000 0.923881
vn -0.382681 0.000000 0.923881
vn -0.382681 0.000000 0.923881
vn -0.382681 0.000000 0.923881
vn -0.382681 0.000000 0.923881
vn -0.382681 0.000000 0.923881
vn -0.382681 0.000000 0.923881
vn -0.382681 0.000000 0.923881
vn -0.382681 0.000000 0.923881
vn 0.923880 0.000000 -0.382682
vn 0.923880 0.000000 -0.382682
vn 0.923880 0.000000 -0.382682
vn -0.382682 0.000000 -0.923880
vn -0.382682 0.000000 -0.923880
vn -0.382682 0.000000 -0.923880
vn -0.382682 0.000000 -0.923880
vn -0.382682 0.000000 -0.923880
vn -0.382682 0.000000 -0.923880
vn -0.382683 0.000000 -0.923880
vn -0.382683 0.000000 -0.923880
vn -0.382683 0.000000 -0.923880
vn -0.382683 0.000000 -0.923880
vn -0.382683 0.000000 -0.923880
vn -0.382683 0.000000 -0.923880
vn -0.923880 0.000000 -0.382682
vn -0.923880 0.000000 -0.382682
vn -0.923880 0.000000 -0.382682
vn -0.923880 0.000000 -0.382682
vn -0.923880 0.000000 -0.382682
vn -0.923880 0.000000 -0.382682
vn -0.923879 0.000000 -0.382684
vn -0.923879 0.000000 -0.382684
vn -0.923879 0.000000 -0.382684
vn -0.923879 0.000000 -0.382684
vn -0.923879 0.000000 -0.382684
vn -0.923879 0.000000 -0.382684
vn -0.923880 0.000000 0.382682
vn -0.923880 0.000000 0.382682
vn -0.923880 0.000000 0.382682
vn -0.923880 0.000000 0.382682
vn -0.923880 0.000000 0.382682
vn -0.923880 0.000000 0.382682
vn -0.923879 0.000000 0.382684
vn -0.923879 0.000000 0.382684
vn -0.923879 0.000000 0.382684
vn -0.923879 0.000000 0.382684
vn -0.923879 0.000000 0.382684
vn -0.923879 0.000000 0.382684
vn -0.382684 0.000000 0.923879
vn -0.382684 0.000000 0.923879
vn -0.382684 0.000000 0.923879
vn -0.382684 0.000000 0.923879
vn -0.382684 0.000000 0.923879
vn -0.382684 0.000000 0.923879
vn -0.382685 0.000000 0.923879
vn -0.382685 0.000000 0.923879
vn -0.382685 0.000000 0.923879
vn -0.382685 0.000000 0.923879
vn -0.382685 0.000000 0.923879
vn -0.382685 0.000000 0.923879
vn 0.382684 0.000000 0.923879
vn 0.382684 0.000000 0.923879
vn 0.382684 0.000000 0.923879
vn 0.382682 0.000000 0.923880
vn 0.382682 0.000000 0.923880
vn 0.382682 0.000000 0.923880
vn 0.382683 0.000000 0.923880
vn 0.382683 0.000000 0.923880
vn 0.382683 0.000000 0.923880
vn 0.382682 0.000000 0.923880
vn 0.382682 0.000000 0.923880
vn 0.382682 0.000000 0.923880
vn 0.923879 0.000000 0.382685
vn 0.923879 0.000000 0.382685
vn 0.923879 0.000000 0.382685
vn 0.923878 0.000000 0.382688
vn 0.923878 0.000000 0.382688
vn 0.923878 0.000000 0.382688
vn 0.923878 0.000000 0.382687
vn 0.923878 0.000000 0.382687
vn 0.923878 0.000000 0.382687
vn 0.923880 0.000000 0.382683
vn 0.923880 0.000000 0.382683
vn 0.923880 0.000000 0.382683
vn 0.382682 0.000000 -0.923880
vn 0.382682 0.000000 -0.923880
vn 0.382682 0.000000 -0.923880
vn 0.382684 0.000000 -0.923879
vn 0.382684 0.000000 -0.923879
vn 0.382684 0.000000 -0.923879
vn 0.382682 0.000000 -0.923880
vn 0.382682 0.000000 -0.923880
vn 0.382682 0.000000 -0.923880
vn 0.382683 0.000000 -0.923880
vn 0.382683 0.000000 -0.923880
vn 0.382683 0.000000 -0.923880
vn -0.923880 0.000000 -0.382683
vn -0.923880 0.000000 -0.382683
vn -0.923880 0.000000 -0.382683
vn -0.923880 0.000000 -0.382683
vn -0.923880 0.000000 -0.382683
vn -0.923880 0.000000 -0.382683
vn 0.923878 0.000000 -0.382688
vn 0.923878 0.000000 -0.382688
vn 0.923878 0.000000 -0.382688
vn 0.923878 0.000000 -0.382688
vn 0.923878 0.000000 -0.382688
vn 0.923878 0.000000 -0.382688
vn -0.923880 0.000000 -0.382683
vn -0.923880 0.000000 -0.382683
vn -0.923880 0.000000 -0.382683
vn -0.923880 0.000000 -0.382683
vn -0.923880 0.000000 -0.382683
vn -0.923880 0.000000 -0.382683
vn 0.923878 -0.000000 -0.382688
vn 0.923878 -0.000000 -0.382688
vn 0.923878 -0.000000 -0.382688
vn 0.923879 -0.000000 -0.382684
vn 0.923879 -0.000000 -0.382684
vn 0.923879 -0.000000 -0.382684
vn -0.923880 0.000000 -0.382683
vn -0.923880 0.000000 -0.382683
vn -0.923880 0.000000 -0.382683
vn -0.923880 0.000000 -0.382683
vn -0.923880 0.000000 -0.382683
vn -0.923880 0.000000 -0.382683
vn 0.923878 0.000000 -0.382688
vn 0.923878 0.000000 -0.382688
vn 0.923878 0.000000 -0.382688
vn 0.923878 0.000000 -0.382688
vn 0.923878 0.000000 -0.382688
vn 0.923878 0.000000 -0.382688
vn -0.000000 -1.000000 0.000000
vn -0.000000 -1.000000 0.000000
vn -0.000000 -1.000000 0.000000
vn -0.000000 1.000000 0.000000
vn -0.000000 1.000000 0.000000
vn -0.000000 1.000000 0.000000
vn -0.000000 0.000000 -1.000000
vn -0.000000 0.000000 -1.000000
vn -0.000000 0.000000 -1.000000
vn -0.000000 0.000000 -1.000000
vn -0.000000 0.000000 -1.000000
vn -0.000000 0.000000 -1.000000
vn -0.000000 0.000000 -1.000000
vn -0.000000 0.000000 -1.000000
vn -0.000000 0.000000 -1.000000
vn -0.000000 0.000000 -1.000000
vn -0.000000 0.000000 -1.000000
vn -0.000000 0.000000 -1.000000
vn -0.000000 0.000000 1.000000
vn -0.000000 0.000000 1.000000
vn -0.000000 0.000000 1.000000
vn -0.000000 0.000000 1.000000
vn -0.000000 0.000000 1.000000
vn -0.000000 0.000000 1.000000
vn -0.000000 -1.000000 0.000000
vn -0.000000 -1.000000 0.000000
vn -0.000000 -1.000000 0.000000
vn -0.000000 -1.000000 0.000000
vn -0.000000 -1.000000 0.000000
vn -0.000000 -1.000000 0.000000
vn -0.000000 1.000000 0.000000
vn -0.000000 1.000000 0.000000
vn -0.000000 1.000000 0.000000
vn -0.000000 1.000000 0.000000
vn -0.000000 1.000000 0.000000
vn -0.000000 1.000000 0.000000

g Material.001
f 3/1/1 1/2/2 2/3/3
f 4/4/4 1/5/5 3/6/6
f 7/7/7 5/8/8 6/9/9
f 8/10/10 5/11/11 7/12/12
f 11/13/13 9/14/14 10/15/15
f 12/16/16 9/17/17 11/18/18
f 15/19/19 13/20/20 14/21/21
f 16/22/22 13/23/23 15/24/24
f 19/25/25 17/26/26 18/27/27
f 20/28/28 17/29/29 19/30/30
f 23/31/31 21/32/32 22/33/33
f 26/34/34 24/35/35 25/36/36
f 27/37/37 24/38/38 26/39/39
f 30/40/40 28/41/41 29/42/42
f 31/43/43 28/44/44 30/45/45
f 34/46/46 32/47/47 33/48/48
f 37/49/49 35/50/50 36/51/51
f 38/52/52 35/53/53 37/54/54
f 41/55/55 39/56/56 40/57/57
f 42/58/58 39/59/59 41/60/60
f 45/61/61 43/62/62 44/63/63
f 46/64/64 43/65/65 45/66/66
f 49/67/67 47/68/68 48/69/69
f 50/70/70 47/71/71 49/72/72
f 53/73/73 51/74/74 52/75/75
f 54/76/76 51/77/77 53/78/78
f 57/79/79 55/80/80 56/81/81
f 58/82/82 55/83/83 57/84/84
f 61/85/85 59/86/86 60/87/87
f 62/88/88 59/89/89 61/90/90
f 65/91/91 63/92/92 64/93/93
f 66/94/94 63/95/95 65/96/96
f 69/97/97 67/98/98 68/99/99
f 70/100/100 67/101/101 69/102/102
f 73/103/103 71/104/104 72/105/105
f 74/106/106 71/107/107 73/108/108
f 77/109/109 75/110/110 76/111/111
f 80/112/112 78/113/113 79/114/114
f 81/115/115 78/116/116 80/117/117
f 84/118/118 82/119/119 83/120/120
f 87/121/121 85/122/122 86/123/123
f 90/124/124 88/125/125 89/126/126
f 93/127/127 91/128/128 92/129/129
f 96/130/130 94/131/131 95/132/132
f 99/133/133 97/134/134 98/135/135
f 102/136/136 100/137/137 101/138/138
f 105/139/139 103/140/140 104/141/141
f 108/142/142 106/143/143 107/144/144
f 111/145/145 109/146/146 110/147/147
f 114/148/148 112/149/149 113/150/150
f 117/151/151 115/152/152 116/153/153
f 120/154/154 118/155/155 119/156/156
f 123/157/157 121/158/158 122/159/159
f 126/160/160 124/161/161 125/162/162
f 129/163/163 127/164/164 128/165/165
f 130/166/166 127/167/167 129/168/168
f 133/169/169 131/170/170 132/171/171
f 134/172/172 131/173/173 133/174/174
f 137/175/175 135/176/176 136/177/177
f 138/178/178 135/179/179 137/180/180
f 141/181/181 139/182/182 140/183/183
f 142/184/184 139/185/185 141/186/186
f 145/187/187 143/188/188 144/189/189
f 146/190/190 143/191/191 145/192/192
f 149/193/193 147/194/194 148/195/195
f 150/196/196 147/197/197 149/198/198
f 153/199/199 151/200/200 152/201/201
f 154/202/202 151/203/203 153/204/204
f 157/205/205 155/206/206 156/207/207
f 158/208/208 155/209/209 157/210/210
f 165/211/211 163/212/212 164/213/213
f 168/214/214 166/215/215 167/216/216
f 171/217/217 169/218/218 170/219/219
f 174/220/220 172/221/221 173/222/222
f 175/223/223 172/224/224 174/225/225
f 178/226/226 176/227/227 177/228/228
f 179/229/229 176/230/230 178/231/231
f 182/232/232 180/233/233 181/234/234
f 183/235/235 180/236/236 182/237/237
f 186/238/238 184/239/239 185/240/240
f 187/241/241 184/242/242 186/243/243
f 190/244/244 188/245/245 189/246/246
f 191/247/247 188/248/248 190/249/249
f 194/250/250 192/251/251 193/252/252
f 195/253/253 192/254/254 194/255/255
f 198/256/256 196/257/257 197/258/258
f 201/259/259 199/260/260 200/261/261
f 202/262/262 199/263/263 201/264/264
f 205/265/265 203/266/266 204/267/267
f 206/268/268 203/269/269 205/270/270
f 209/271/271 207/272/272 208/273/273
f 210/274/274 207/275/275 209/276/276
f 213/277/277 211/278/278 212/279/279
f 214/280/280 211/281/281 213/282/282
f 217/283/283 215/284/284 216/285/285
f 218/286/286 215/287/287 217/288/288
f 221/289/289 219/290/290 220/291/291
f 222/292/292 219/293/293 221/294/294
f 225/295/295 223/296/296 224/297/297
f 226/298/298 223/299/299 225/300/300
f 229/301/301 227/302/302 228/303/303
f 230/304/304 227/305/305 229/306/306
f 233/307/307 231/308/308 232/309/309
f 234/310/310 231/311/311 233/312/312
f 237/313/313 235/314/314 236/315/315
f 238/316/316 235/317/317 237/318/318
f 241/319/319 239/320/320 240/321/321
f 242/322/322 239/323/323 241/324/324
f 245/325/325 243/326/326 244/327/327
f 246/328/328 243/329/329 245/330/330
f 249/331/331 247/332/332 248/333/333
f 250/334/334 247/335/335 249/336/336
f 253/337/337 251/338/338 252/339/339
f 254/340/340 251/341/341 253/342/342
f 273/343/343 271/344/344 272/345/345
f 274/346/346 271/347/347 273/348/348
f 277/349/349 275/350/350 276/351/351
f 278/352/352 275/353/353 277/354/354
f 281/355/355 279/356/356 280/357/357
f 284/358/358 282/359/359 283/360/360
f 287/361/361 285/362/362 286/363/363
f 290/364/364 288/365/365 289/366/366
f 293/367/367 291/368/368 292/369/369
f 296/370/370 294/371/371 295/372/372
f 299/373/373 297/374/374 298/375/375
f 302/376/376 300/377/377 301/378/378
f 305/379/379 303/380/380 304/381/381
f 308/382/382 306/383/383 307/384/384

g Material.002
f 161/385/385 159/386/386 160/387/387
f 162/388/388 159/389/389 161/390/390

g Material.003
f 257/391/391 255/392/392 256/393/393
f 258/394/394 255/395/395 257/396/396
f 261/397/397 259/398/398 260/399/399
f 262/400/400 259/401/401 261/402/402
f 265/403/403 263/404/404 264/405/405
f 266/406/406 263/407/407 265/408/408
f 269/409/409 267/410/410 268/411/411
f 270/412/412 267/413/413 269/414/414

