# Blender v3.0.0 OBJ File: 'multidecor_round_wooden_table.blend'
# www.blender.org
o Cylinder
v 0.000000 1.069276 -2.002889
v 0.000000 1.251357 -2.002889
v 1.001444 1.069276 -1.734553
v 1.001444 1.251357 -1.734553
v 1.734553 1.069276 -1.001444
v 1.734553 1.251357 -1.001444
v 2.002889 1.069276 0.000000
v 2.002889 1.251357 0.000000
v 1.734553 1.069276 1.001445
v 1.734553 1.251357 1.001445
v 1.001445 1.069276 1.734553
v 1.001445 1.251357 1.734553
v -0.000000 1.069276 2.002889
v -0.000000 1.251357 2.002889
v -1.001444 1.069276 1.734553
v -1.001444 1.251357 1.734553
v -1.734553 1.069276 1.001444
v -1.734553 1.251357 1.001444
v -2.002889 1.069276 0.000000
v -2.002889 1.251357 0.000000
v -1.734553 1.069276 -1.001444
v -1.734553 1.251357 -1.001444
v -1.001445 1.069276 -1.734552
v -1.001445 1.251357 -1.734552
v 0.000000 1.069276 -1.402022
v 0.701011 1.069276 -1.214187
v 1.214187 1.069276 -0.701011
v 1.402022 1.069276 0.000000
v 1.214187 1.069276 0.701011
v 0.701011 1.069276 1.214187
v -0.000000 1.069276 1.402022
v -0.701011 1.069276 1.214187
v -1.214187 1.069276 0.701011
v -1.402022 1.069276 0.000000
v -1.214187 1.069276 -0.701011
v -0.701011 1.069276 -1.214187
v 0.000000 0.705114 -1.121618
v 0.560809 0.705114 -0.971349
v 0.971349 0.705114 -0.560809
v 1.121618 0.705114 0.000000
v 0.971349 0.705114 0.560809
v 0.560809 0.705114 0.971349
v -0.000000 0.705114 1.121618
v -0.560809 0.705114 0.971349
v -0.971350 0.705114 0.560809
v -1.121618 0.705114 0.000000
v -0.971350 0.705114 -0.560809
v -0.560809 0.705114 -0.971349
v -0.060087 0.067007 -0.232516
v 0.060087 0.067007 -0.232517
v 0.060087 0.705114 -0.232517
v -0.060087 0.705114 -0.232516
v 0.227665 0.067007 -0.060087
v 0.227665 0.067007 0.060087
v 0.227665 0.705114 0.060087
v 0.227665 0.705114 -0.060087
v 0.060087 0.067007 0.225032
v -0.227665 0.067007 -0.060087
v -0.227665 0.067007 0.060087
v 0.060087 0.705114 0.225032
v -0.227665 0.705114 0.060087
v -0.227665 0.705114 -0.060087
v -0.060087 0.067007 0.225032
v -0.060087 0.705114 0.225032
v 1.502231 -1.251360 0.060087
v 1.502231 -1.251360 -0.060087
v 0.227665 0.067007 0.060087
v 0.227665 0.067007 0.060087
v 0.227665 0.067007 -0.060087
v 0.227665 0.067007 -0.060087
v 0.045584 0.067007 0.060087
v 0.045584 0.067007 -0.060087
v 1.099082 -1.251360 0.060087
v 1.099082 -1.251360 -0.060087
v 0.061958 -1.251359 -1.504102
v -0.058216 -1.251359 -1.504102
v 0.061958 0.067007 -0.229536
v -0.058216 0.067007 -0.229536
v 0.061958 0.067007 -0.047456
v -0.058216 0.067007 -0.047456
v 0.061958 -1.251359 -1.100953
v -0.058216 -1.251359 -1.100953
v -1.502231 -1.251359 -0.063829
v -1.502231 -1.251359 0.056345
v -0.227665 0.067007 -0.063829
v -0.227665 0.067007 0.056344
v -0.045584 0.067007 -0.063829
v -0.045584 0.067007 0.056344
v -1.099082 -1.251359 -0.063829
v -1.099082 -1.251359 0.056345
v -0.061958 -1.251359 1.500360
v 0.058216 -1.251359 1.500360
v -0.061958 0.067007 0.225794
v 0.058216 0.067007 0.225794
v -0.061958 0.067007 0.043713
v 0.058216 0.067007 0.043713
v -0.061958 -1.251359 1.097211
v 0.058216 -1.251359 1.097211
vt 0.974221 0.762148
vt 0.949695 0.762148
vt 0.949695 0.635193
vt 0.974221 0.635193
vt 0.949695 0.508238
vt 0.974221 0.508238
vt 0.949695 0.381283
vt 0.974221 0.381283
vt 0.949695 0.254328
vt 0.974221 0.254328
vt 0.949695 0.127373
vt 0.974221 0.127373
vt 0.949695 0.000418
vt 0.974221 0.000418
vt 0.975056 0.000418
vt 0.999582 0.000418
vt 0.999582 0.127373
vt 0.975056 0.127373
vt 0.999582 0.254328
vt 0.975056 0.254328
vt 0.999582 0.381283
vt 0.975056 0.381283
vt 0.999582 0.508239
vt 0.975056 0.508239
vt 0.775436 0.000418
vt 0.885382 0.063895
vt 0.948859 0.173842
vt 0.948859 0.300797
vt 0.885382 0.410743
vt 0.775435 0.474221
vt 0.648480 0.474221
vt 0.538534 0.410743
vt 0.475056 0.300797
vt 0.475056 0.173842
vt 0.538534 0.063895
vt 0.648480 0.000418
vt 0.999582 0.635194
vt 0.975056 0.635194
vt 0.999582 0.762148
vt 0.975056 0.762148
vt 0.063895 0.063896
vt 0.173842 0.000418
vt 0.300796 0.000418
vt 0.410743 0.063895
vt 0.474221 0.173842
vt 0.474221 0.300797
vt 0.410743 0.410743
vt 0.300797 0.474221
vt 0.173842 0.474221
vt 0.063895 0.410743
vt 0.000418 0.300797
vt 0.000418 0.173842
vt 0.044852 0.519491
vt 0.121814 0.475057
vt 0.210683 0.475057
vt 0.287646 0.519491
vt 0.332080 0.596453
vt 0.332080 0.685322
vt 0.287646 0.762284
vt 0.210683 0.806719
vt 0.121814 0.806719
vt 0.044852 0.762284
vt 0.000418 0.685322
vt 0.000418 0.596453
vt 0.332915 0.572174
vt 0.368463 0.510604
vt 0.430033 0.475057
vt 0.501128 0.475057
vt 0.562698 0.510604
vt 0.598245 0.572174
vt 0.598245 0.643269
vt 0.562698 0.704839
vt 0.501128 0.740386
vt 0.430033 0.740386
vt 0.368463 0.704839
vt 0.332915 0.643269
vt 0.059630 0.807554
vt 0.059630 0.896423
vt 0.000418 0.887536
vt 0.000418 0.816441
vt 0.180561 0.896423
vt 0.180561 0.807554
vt 0.239773 0.816441
vt 0.239773 0.887536
vt 0.240608 0.896423
vt 0.240608 0.807554
vt 0.299820 0.816441
vt 0.299820 0.887536
vt 0.119677 0.807554
vt 0.119677 0.896423
vt 0.060465 0.887536
vt 0.060465 0.816441
vt 0.179725 0.807554
vt 0.179725 0.896423
vt 0.120513 0.887536
vt 0.120513 0.816441
vt 0.392127 0.741222
vt 0.392127 0.830090
vt 0.332915 0.821203
vt 0.332915 0.750109
vt 0.332915 0.919795
vt 0.332915 0.830926
vt 0.392127 0.839813
vt 0.392127 0.910908
vt 0.572270 0.741222
vt 0.572270 0.830090
vt 0.513058 0.821203
vt 0.513058 0.750109
vt 0.512223 0.741222
vt 0.512223 0.830090
vt 0.453011 0.821203
vt 0.453011 0.750109
vt 0.877383 0.827788
vt 0.877383 0.916656
vt 0.818171 0.907769
vt 0.818171 0.836674
vt 0.392963 0.830090
vt 0.392963 0.741222
vt 0.452175 0.750109
vt 0.452175 0.821204
vt 0.877383 0.738083
vt 0.877383 0.826952
vt 0.818171 0.818065
vt 0.818171 0.746970
vt 0.722074 0.518565
vt 0.599081 0.518565
vt 0.599081 0.489772
vt 0.722074 0.489772
vt 0.599081 0.577440
vt 0.599081 0.562724
vt 0.722074 0.562724
vt 0.722074 0.577440
vt 0.722074 0.621598
vt 0.722074 0.650392
vt 0.599081 0.650392
vt 0.599081 0.621598
vt 0.599081 0.533281
vt 0.722074 0.533281
vt 0.599081 0.606883
vt 0.722074 0.606883
vt 0.913432 0.712310
vt 0.928148 0.712310
vt 0.928148 0.948730
vt 0.913433 0.948730
vt 0.722074 0.475057
vt 0.599081 0.475057
vt 0.443216 0.870229
vt 0.432893 0.880716
vt 0.404104 0.881172
vt 0.393616 0.870850
vt 0.392963 0.841413
vt 0.403286 0.830926
vt 0.432728 0.831113
vt 0.443216 0.841436
vt 0.219910 0.897258
vt 0.219910 0.911974
vt 0.000418 0.911974
vt 0.000418 0.897258
vt 0.864966 0.486110
vt 0.827886 0.518699
vt 0.818171 0.507646
vt 0.855252 0.475057
vt 0.864966 0.722529
vt 0.848219 0.737248
vt 0.759990 0.989221
vt 0.722910 0.956631
vt 0.743243 0.738083
vt 0.759990 0.752802
vt 0.913433 0.475057
vt 0.928148 0.475057
vt 0.928148 0.711475
vt 0.913432 0.711475
vt 0.771518 0.738083
vt 0.786233 0.738083
vt 0.786233 0.957575
vt 0.771517 0.957575
vt 0.817335 0.486110
vt 0.780255 0.518699
vt 0.770540 0.507646
vt 0.807621 0.475057
vt 0.817335 0.722529
vt 0.800588 0.737248
vt 0.711994 0.902365
vt 0.674913 0.869775
vt 0.695247 0.651227
vt 0.711994 0.665946
vt 0.928984 0.475057
vt 0.943699 0.475057
vt 0.943699 0.711475
vt 0.928984 0.711475
vt 0.801784 0.957576
vt 0.787069 0.957576
vt 0.787069 0.738083
vt 0.801784 0.738083
vt 0.912597 0.486110
vt 0.875516 0.518699
vt 0.865802 0.507646
vt 0.902882 0.475057
vt 0.912597 0.722529
vt 0.895850 0.737248
vt 0.674078 0.902365
vt 0.636997 0.869776
vt 0.657330 0.651227
vt 0.674078 0.665946
vt 0.943699 0.948730
vt 0.928984 0.948730
vt 0.928984 0.712310
vt 0.943699 0.712310
vt 0.802620 0.738083
vt 0.817335 0.738083
vt 0.817335 0.957574
vt 0.802620 0.957574
vt 0.769705 0.486110
vt 0.732624 0.518699
vt 0.722910 0.507646
vt 0.759990 0.475057
vt 0.769705 0.722529
vt 0.752957 0.737248
vt 0.636161 0.902365
vt 0.599081 0.869776
vt 0.619414 0.651227
vt 0.636161 0.665946
vn 0.2588 0.0000 -0.9659
vn 0.7071 0.0000 -0.7071
vn 0.9659 0.0000 -0.2588
vn 0.9659 0.0000 0.2588
vn 0.7071 0.0000 0.7071
vn 0.2588 0.0000 0.9659
vn -0.2588 0.0000 0.9659
vn -0.7071 0.0000 0.7071
vn -0.9659 0.0000 0.2588
vn -0.9659 0.0000 -0.2588
vn 0.0000 1.0000 0.0000
vn -0.7071 0.0000 -0.7071
vn -0.2588 0.0000 -0.9659
vn 0.0000 -1.0000 -0.0000
vn -0.7751 -0.5968 -0.2077
vn -0.2077 -0.5968 0.7751
vn 0.7751 -0.5968 0.2077
vn -0.5674 -0.5968 -0.5674
vn 0.2077 -0.5968 -0.7751
vn -0.5674 -0.5968 0.5674
vn 0.5674 -0.5968 0.5674
vn -0.2077 -0.5968 -0.7751
vn 0.5674 -0.5968 -0.5674
vn -0.7751 -0.5968 0.2077
vn 0.2077 -0.5968 0.7751
vn 0.7751 -0.5968 -0.2077
vn 0.7015 -0.0000 0.7127
vn -0.0000 0.0000 -1.0000
vn -0.7015 0.0000 0.7127
vn 0.7171 0.0000 -0.6969
vn 1.0000 -0.0000 0.0000
vn -1.0000 -0.0000 0.0000
vn -0.7189 -0.6951 0.0000
vn -0.7171 0.0000 -0.6969
vn 0.0000 0.0000 1.0000
vn 0.7812 0.6243 0.0000
vn 0.0000 -0.6951 0.7189
vn 0.0000 0.6243 -0.7812
vn 0.7189 -0.6951 0.0000
vn -0.7812 0.6243 0.0000
vn 0.0000 -0.6951 -0.7189
vn 0.0000 0.6243 0.7812
s off
f 1/1/1 2/2/1 4/3/1 3/4/1
f 3/4/2 4/3/2 6/5/2 5/6/2
f 5/6/3 6/5/3 8/7/3 7/8/3
f 7/8/4 8/7/4 10/9/4 9/10/4
f 9/10/5 10/9/5 12/11/5 11/12/5
f 11/12/6 12/11/6 14/13/6 13/14/6
f 13/15/7 14/16/7 16/17/7 15/18/7
f 15/18/8 16/17/8 18/19/8 17/20/8
f 17/20/9 18/19/9 20/21/9 19/22/9
f 19/22/10 20/21/10 22/23/10 21/24/10
f 4/25/11 2/26/11 24/27/11 22/28/11 20/29/11 18/30/11 16/31/11 14/32/11 12/33/11 10/34/11 8/35/11 6/36/11
f 21/24/12 22/23/12 24/37/12 23/38/12
f 23/38/13 24/37/13 2/39/13 1/40/13
f 1/41/14 3/42/14 5/43/14 7/44/14 9/45/14 11/46/14 13/47/14 15/48/14 17/49/14 19/50/14 21/51/14 23/52/14
f 25/53/11 36/54/11 35/55/11 34/56/11 33/57/11 32/58/11 31/59/11 30/60/11 29/61/11 28/62/11 27/63/11 26/64/11
f 37/65/14 38/66/14 39/67/14 40/68/14 41/69/14 42/70/14 43/71/14 44/72/14 45/73/14 46/74/14 47/75/14 48/76/14
f 34/77/15 35/78/15 47/79/15 46/80/15
f 31/81/16 32/82/16 44/83/16 43/84/16
f 28/85/17 29/86/17 41/87/17 40/88/17
f 35/89/18 36/90/18 48/91/18 47/92/18
f 25/93/19 26/94/19 38/95/19 37/96/19
f 32/97/20 33/98/20 45/99/20 44/100/20
f 29/101/21 30/102/21 42/103/21 41/104/21
f 36/105/22 25/106/22 37/107/22 48/108/22
f 26/109/23 27/110/23 39/111/23 38/112/23
f 33/113/24 34/114/24 46/115/24 45/116/24
f 30/117/25 31/118/25 43/119/25 42/120/25
f 27/121/26 28/122/26 40/123/26 39/124/26
f 67/125/27 55/126/27 60/127/27 57/128/27
f 52/129/28 51/130/28 50/131/28 49/132/28
f 59/133/29 63/134/29 64/135/29 61/136/29
f 50/131/30 51/130/30 56/137/30 70/138/30
f 55/126/31 67/125/31 70/138/31 56/137/31
f 61/136/32 62/139/32 58/140/32 59/133/32
f 68/141/33 69/142/33 66/143/33 65/144/33
f 49/132/34 58/140/34 62/139/34 52/129/34
f 63/145/35 57/128/35 60/127/35 64/146/35
f 57/147/14 63/148/14 59/149/14 58/150/14 49/151/14 50/152/14 53/153/14 54/154/14
f 72/155/36 71/156/36 73/157/36 74/158/36
f 66/159/11 74/160/11 73/161/11 65/162/11
f 69/163/35 72/164/35 74/160/35 66/159/35
f 65/165/28 73/166/28 71/167/28 68/168/28
f 77/169/37 78/170/37 76/171/37 75/172/37
f 80/173/38 79/174/38 81/175/38 82/176/38
f 76/177/11 82/178/11 81/179/11 75/180/11
f 78/181/31 80/182/31 82/178/31 76/177/31
f 75/183/32 81/184/32 79/185/32 77/186/32
f 85/187/39 86/188/39 84/189/39 83/190/39
f 88/191/40 87/192/40 89/193/40 90/194/40
f 84/195/11 90/196/11 89/197/11 83/198/11
f 86/199/28 88/200/28 90/196/28 84/195/28
f 83/201/35 89/202/35 87/203/35 85/204/35
f 93/205/41 94/206/41 92/207/41 91/208/41
f 96/209/42 95/210/42 97/211/42 98/212/42
f 92/213/11 98/214/11 97/215/11 91/216/11
f 94/217/32 96/218/32 98/214/32 92/213/32
f 91/219/31 97/220/31 95/221/31 93/222/31
