# Converted from B3D for Luanti (With Correct Normals)
# Object Name: multidecor_books_stack

v 0.407480 0.150000 -0.600000
v 0.407480 0.150000 0.600000
v 0.437480 0.130000 0.600000
v 0.437480 0.130000 -0.600000
v 0.457480 -0.100000 -0.600000
v 0.457480 -0.100000 0.600000
v 0.437480 -0.130000 0.600000
v 0.437480 -0.130000 -0.600000
v 0.407480 -0.150000 -0.600000
v 0.407480 -0.150000 0.600000
v -0.407480 -0.150000 0.600000
v -0.407480 -0.150000 -0.600000
v -0.407480 0.100000 -0.600000
v -0.407480 0.100000 0.600000
v -0.407480 0.150000 0.600000
v -0.407480 0.150000 -0.600000
v 0.407480 -0.100000 -0.600000
v 0.407480 -0.150000 -0.600000
v -0.407480 -0.150000 -0.600000
v -0.407480 -0.100000 -0.600000
v 0.407480 0.100000 0.600000
v 0.407480 0.150000 0.600000
v -0.407480 0.150000 0.600000
v -0.407480 0.100000 0.600000
v 0.407480 -0.150000 0.600000
v 0.407480 -0.100000 0.600000
v -0.407480 -0.100000 0.600000
v -0.407480 -0.150000 0.600000
v -0.407480 0.100000 0.600000
v -0.407480 0.100000 -0.600000
v -0.366732 0.095000 -0.570000
v -0.366732 0.095000 0.570000
v 0.407480 0.150000 -0.600000
v 0.407480 0.100000 -0.600000
v -0.407480 0.100000 -0.600000
v -0.407480 0.150000 -0.600000
v 0.407480 0.100000 -0.600000
v 0.407480 -0.100000 -0.600000
v 0.407480 -0.095000 -0.570000
v 0.407480 0.095000 -0.570000
v -0.407480 -0.150000 -0.600000
v -0.407480 -0.150000 0.600000
v -0.407480 -0.100000 0.600000
v -0.407480 -0.100000 -0.600000
v 0.407480 -0.100000 0.600000
v 0.407480 0.100000 0.600000
v 0.407480 0.095000 0.570000
v 0.407480 -0.095000 0.570000
v 0.437480 0.130000 -0.600000
v 0.437480 0.130000 0.600000
v 0.457480 0.100000 0.600000
v 0.457480 0.100000 -0.600000
v 0.457480 0.100000 -0.600000
v 0.457480 0.100000 0.600000
v 0.457480 -0.100000 0.600000
v 0.457480 -0.100000 -0.600000
v 0.457480 0.100000 -0.600000
v 0.457480 -0.100000 -0.600000
v 0.407480 -0.100000 -0.600000
v 0.407480 0.100000 -0.600000
v 0.437480 0.130000 -0.600000
v 0.457480 0.100000 -0.600000
v 0.407480 0.100000 -0.600000
v 0.407480 0.150000 -0.600000
v 0.457480 -0.100000 0.600000
v 0.457480 0.100000 0.600000
v 0.407480 0.100000 0.600000
v 0.407480 -0.100000 0.600000
v 0.437480 -0.130000 0.600000
v 0.457480 -0.100000 0.600000
v 0.407480 -0.100000 0.600000
v 0.407480 -0.150000 0.600000
v 0.457480 0.100000 0.600000
v 0.437480 0.130000 0.600000
v 0.407480 0.150000 0.600000
v 0.407480 0.100000 0.600000
v 0.457480 -0.100000 -0.600000
v 0.437480 -0.130000 -0.600000
v 0.407480 -0.150000 -0.600000
v 0.407480 -0.100000 -0.600000
v 0.437480 -0.130000 -0.600000
v 0.437480 -0.130000 0.600000
v 0.407480 -0.150000 0.600000
v 0.407480 -0.150000 -0.600000
v -0.407480 0.150000 -0.600000
v -0.407480 0.150000 0.600000
v 0.407480 0.150000 0.600000
v 0.407480 0.150000 -0.600000
v 0.407480 -0.095000 0.570000
v 0.407480 0.095000 0.570000
v -0.366732 0.095000 0.570000
v -0.366732 -0.095000 0.570000
v 0.407480 0.095000 -0.570000
v 0.407480 -0.095000 -0.570000
v -0.366732 -0.095000 -0.570000
v -0.366732 0.095000 -0.570000
v -0.366732 -0.095000 -0.570000
v -0.366732 -0.095000 0.570000
v -0.366732 0.095000 0.570000
v -0.366732 0.095000 -0.570000
v 0.407480 -0.100000 -0.600000
v -0.407480 -0.100000 -0.600000
v -0.366732 -0.095000 -0.570000
v 0.407480 -0.095000 -0.570000
v 0.407480 0.100000 0.600000
v -0.407480 0.100000 0.600000
v -0.366732 0.095000 0.570000
v 0.407480 0.095000 0.570000
v -0.407480 -0.100000 -0.600000
v -0.407480 -0.100000 0.600000
v -0.366732 -0.095000 0.570000
v -0.366732 -0.095000 -0.570000
v -0.407480 0.100000 -0.600000
v 0.407480 0.100000 -0.600000
v 0.407480 0.095000 -0.570000
v -0.366732 0.095000 -0.570000
v -0.407480 -0.100000 0.600000
v 0.407480 -0.100000 0.600000
v 0.407480 -0.095000 0.570000
v -0.366732 -0.095000 0.570000
v 0.410193 0.360000 -0.608349
v 0.410193 0.360000 0.591651
v 0.440193 0.346000 0.591651
v 0.440193 0.346000 -0.608349
v 0.460193 0.185000 -0.608349
v 0.460193 0.185000 0.591651
v 0.440193 0.164000 0.591651
v 0.440193 0.164000 -0.608349
v 0.410193 0.150000 -0.608349
v 0.410193 0.150000 0.591651
v -0.404768 0.150000 0.591651
v -0.404767 0.150000 -0.608349
v -0.404767 0.325000 -0.608349
v -0.404768 0.325000 0.591651
v -0.404768 0.360000 0.591651
v -0.404767 0.360000 -0.608349
v 0.410193 0.185000 -0.608349
v 0.410193 0.150000 -0.608349
v -0.404767 0.150000 -0.608349
v -0.404767 0.185000 -0.608349
v 0.410193 0.325000 0.591651
v 0.410193 0.360000 0.591651
v -0.404768 0.360000 0.591651
v -0.404768 0.325000 0.591651
v 0.410193 0.150000 0.591651
v 0.410193 0.185000 0.591651
v -0.404768 0.185000 0.591651
v -0.404768 0.150000 0.591651
v -0.404768 0.325000 0.591651
v -0.404767 0.325000 -0.608349
v -0.364019 0.321500 -0.578349
v -0.364019 0.321500 0.561651
v 0.410193 0.360000 -0.608349
v 0.410193 0.325000 -0.608349
v -0.404767 0.325000 -0.608349
v -0.404767 0.360000 -0.608349
v 0.410193 0.325000 -0.608349
v 0.410193 0.185000 -0.608349
v 0.410193 0.188500 -0.578349
v 0.410193 0.321500 -0.578349
v -0.404767 0.150000 -0.608349
v -0.404768 0.150000 0.591651
v -0.404768 0.185000 0.591651
v -0.404767 0.185000 -0.608349
v 0.410193 0.185000 0.591651
v 0.410193 0.325000 0.591651
v 0.410193 0.321500 0.561651
v 0.410193 0.188500 0.561651
v 0.440193 0.346000 -0.608349
v 0.440193 0.346000 0.591651
v 0.460193 0.325000 0.591651
v 0.460193 0.325000 -0.608349
v 0.460193 0.325000 -0.608349
v 0.460193 0.325000 0.591651
v 0.460193 0.185000 0.591651
v 0.460193 0.185000 -0.608349
v 0.460193 0.325000 -0.608349
v 0.460193 0.185000 -0.608349
v 0.410193 0.185000 -0.608349
v 0.410193 0.325000 -0.608349
v 0.440193 0.346000 -0.608349
v 0.460193 0.325000 -0.608349
v 0.410193 0.325000 -0.608349
v 0.410193 0.360000 -0.608349
v 0.460193 0.185000 0.591651
v 0.460193 0.325000 0.591651
v 0.410193 0.325000 0.591651
v 0.410193 0.185000 0.591651
v 0.440193 0.164000 0.591651
v 0.460193 0.185000 0.591651
v 0.410193 0.185000 0.591651
v 0.410193 0.150000 0.591651
v 0.460193 0.325000 0.591651
v 0.440193 0.346000 0.591651
v 0.410193 0.360000 0.591651
v 0.410193 0.325000 0.591651
v 0.460193 0.185000 -0.608349
v 0.440193 0.164000 -0.608349
v 0.410193 0.150000 -0.608349
v 0.410193 0.185000 -0.608349
v 0.440193 0.164000 -0.608349
v 0.440193 0.164000 0.591651
v 0.410193 0.150000 0.591651
v 0.410193 0.150000 -0.608349
v -0.404767 0.360000 -0.608349
v -0.404768 0.360000 0.591651
v 0.410193 0.360000 0.591651
v 0.410193 0.360000 -0.608349
v 0.410193 0.188500 0.561651
v 0.410193 0.321500 0.561651
v -0.364019 0.321500 0.561651
v -0.364020 0.188500 0.561651
v 0.410193 0.321500 -0.578349
v 0.410193 0.188500 -0.578349
v -0.364019 0.188500 -0.578349
v -0.364019 0.321500 -0.578349
v -0.364019 0.188500 -0.578349
v -0.364020 0.188500 0.561651
v -0.364019 0.321500 0.561651
v -0.364019 0.321500 -0.578349
v 0.410193 0.185000 -0.608349
v -0.404767 0.185000 -0.608349
v -0.364019 0.188500 -0.578349
v 0.410193 0.188500 -0.578349
v 0.410193 0.325000 0.591651
v -0.404768 0.325000 0.591651
v -0.364019 0.321500 0.561651
v 0.410193 0.321500 0.561651
v -0.404767 0.185000 -0.608349
v -0.404768 0.185000 0.591651
v -0.364020 0.188500 0.561651
v -0.364019 0.188500 -0.578349
v -0.404767 0.325000 -0.608349
v 0.410193 0.325000 -0.608349
v 0.410193 0.321500 -0.578349
v -0.364019 0.321500 -0.578349
v -0.404768 0.185000 0.591651
v 0.410193 0.185000 0.591651
v 0.410193 0.188500 0.561651
v -0.364020 0.188500 0.561651
v 0.320890 0.570000 -0.505624
v 0.491850 0.570000 0.537717
v 0.521455 0.556000 0.532866
v 0.350495 0.556000 -0.510475
v 0.370232 0.395000 -0.513709
v 0.541192 0.395000 0.529632
v 0.521455 0.374000 0.532866
v 0.350495 0.374000 -0.510475
v 0.320890 0.360000 -0.505624
v 0.491850 0.360000 0.537717
v -0.312386 0.360000 0.669497
v -0.483346 0.360000 -0.373843
v -0.483346 0.535000 -0.373843
v -0.312386 0.535000 0.669497
v -0.312386 0.570000 0.669497
v -0.483346 0.570000 -0.373843
v 0.320890 0.395000 -0.505624
v 0.320890 0.360000 -0.505624
v -0.483346 0.360000 -0.373843
v -0.483346 0.395000 -0.373843
v 0.491850 0.535000 0.537717
v 0.491850 0.570000 0.537717
v -0.312386 0.570000 0.669497
v -0.312386 0.535000 0.669497
v 0.491850 0.360000 0.537717
v 0.491850 0.395000 0.537717
v -0.312386 0.395000 0.669497
v -0.312386 0.360000 0.669497
v -0.312386 0.535000 0.669497
v -0.483346 0.535000 -0.373843
v -0.438860 0.531500 -0.354349
v -0.276448 0.531500 0.636825
v 0.320890 0.570000 -0.505624
v 0.320890 0.535000 -0.505624
v -0.483346 0.535000 -0.373843
v -0.483346 0.570000 -0.373843
v 0.320890 0.535000 -0.505624
v 0.320890 0.395000 -0.505624
v 0.325164 0.398500 -0.479540
v 0.325164 0.531500 -0.479540
v -0.483346 0.360000 -0.373843
v -0.312386 0.360000 0.669497
v -0.312386 0.395000 0.669497
v -0.483346 0.395000 -0.373843
v 0.491850 0.395000 0.537717
v 0.491850 0.535000 0.537717
v 0.487576 0.531500 0.511633
v 0.487576 0.398500 0.511633
v 0.350495 0.556000 -0.510475
v 0.521455 0.556000 0.532866
v 0.541192 0.535000 0.529632
v 0.370232 0.535000 -0.513709
v 0.370232 0.535000 -0.513709
v 0.541192 0.535000 0.529632
v 0.541192 0.395000 0.529632
v 0.370232 0.395000 -0.513709
v 0.370232 0.535000 -0.513709
v 0.370232 0.395000 -0.513709
v 0.320890 0.395000 -0.505624
v 0.320890 0.535000 -0.505624
v 0.350495 0.556000 -0.510475
v 0.370232 0.535000 -0.513709
v 0.320890 0.535000 -0.505624
v 0.320890 0.570000 -0.505624
v 0.541192 0.395000 0.529632
v 0.541192 0.535000 0.529632
v 0.491850 0.535000 0.537717
v 0.491850 0.395000 0.537717
v 0.521455 0.374000 0.532866
v 0.541192 0.395000 0.529632
v 0.491850 0.395000 0.537717
v 0.491850 0.360000 0.537717
v 0.541192 0.535000 0.529632
v 0.521455 0.556000 0.532866
v 0.491850 0.570000 0.537717
v 0.491850 0.535000 0.537717
v 0.370232 0.395000 -0.513709
v 0.350495 0.374000 -0.510475
v 0.320890 0.360000 -0.505624
v 0.320890 0.395000 -0.505624
v 0.350495 0.374000 -0.510475
v 0.521455 0.374000 0.532866
v 0.491850 0.360000 0.537717
v 0.320890 0.360000 -0.505624
v -0.483346 0.570000 -0.373843
v -0.312386 0.570000 0.669497
v 0.491850 0.570000 0.537717
v 0.320890 0.570000 -0.505624
v 0.487576 0.398500 0.511633
v 0.487576 0.531500 0.511633
v -0.276448 0.531500 0.636825
v -0.276448 0.398500 0.636825
v 0.325164 0.531500 -0.479540
v 0.325164 0.398500 -0.479540
v -0.438860 0.398500 -0.354349
v -0.438860 0.531500 -0.354349
v -0.438860 0.398500 -0.354349
v -0.276448 0.398500 0.636825
v -0.276448 0.531500 0.636825
v -0.438860 0.531500 -0.354349
v 0.320890 0.395000 -0.505624
v -0.483346 0.395000 -0.373843
v -0.438860 0.398500 -0.354349
v 0.325164 0.398500 -0.479540
v 0.491850 0.535000 0.537717
v -0.312386 0.535000 0.669497
v -0.276448 0.531500 0.636825
v 0.487576 0.531500 0.511633
v -0.483346 0.395000 -0.373843
v -0.312386 0.395000 0.669497
v -0.276448 0.398500 0.636825
v -0.438860 0.398500 -0.354349
v -0.483346 0.535000 -0.373843
v 0.320890 0.535000 -0.505624
v 0.325164 0.531500 -0.479540
v -0.438860 0.531500 -0.354349
v -0.312386 0.395000 0.669497
v 0.491850 0.395000 0.537717
v 0.487576 0.398500 0.511633
v -0.276448 0.398500 0.636825
v 0.381142 0.661151 -0.548349
v 0.381141 0.661151 0.531651
v 0.408141 0.655075 0.531651
v 0.408142 0.655075 -0.548349
v 0.426141 0.585192 -0.548349
v 0.426141 0.585192 0.531651
v 0.408141 0.576077 0.531651
v 0.408141 0.576077 -0.548349
v 0.381141 0.570000 -0.548349
v 0.381141 0.570000 0.531651
v -0.352323 0.570000 0.531651
v -0.352323 0.570000 -0.548349
v -0.352323 0.645960 -0.548349
v -0.352323 0.645960 0.531651
v -0.352323 0.661152 0.531651
v -0.352323 0.661152 -0.548349
v 0.381141 0.585192 -0.548349
v 0.381141 0.570000 -0.548349
v -0.352323 0.570000 -0.548349
v -0.352323 0.585192 -0.548349
v 0.381141 0.645959 0.531651
v 0.381141 0.661151 0.531651
v -0.352323 0.661152 0.531651
v -0.352323 0.645960 0.531651
v 0.381141 0.570000 0.531651
v 0.381141 0.585192 0.531651
v -0.352323 0.585192 0.531651
v -0.352323 0.570000 0.531651
v -0.352323 0.645960 0.531651
v -0.352323 0.645960 -0.548349
v -0.315650 0.644440 -0.521349
v -0.315650 0.644440 0.504651
v 0.381142 0.661151 -0.548349
v 0.381141 0.645959 -0.548349
v -0.352323 0.645960 -0.548349
v -0.352323 0.661152 -0.548349
v 0.381141 0.645959 -0.548349
v 0.381141 0.585192 -0.548349
v 0.381141 0.586711 -0.521349
v 0.381141 0.644440 -0.521349
v -0.352323 0.570000 -0.548349
v -0.352323 0.570000 0.531651
v -0.352323 0.585192 0.531651
v -0.352323 0.585192 -0.548349
v 0.381141 0.585192 0.531651
v 0.381141 0.645959 0.531651
v 0.381141 0.644440 0.504651
v 0.381141 0.586711 0.504651
v 0.408142 0.655075 -0.548349
v 0.408141 0.655075 0.531651
v 0.426141 0.645959 0.531651
v 0.426142 0.645959 -0.548349
v 0.426142 0.645959 -0.548349
v 0.426141 0.645959 0.531651
v 0.426141 0.585192 0.531651
v 0.426141 0.585192 -0.548349
v 0.426142 0.645959 -0.548349
v 0.426141 0.585192 -0.548349
v 0.381141 0.585192 -0.548349
v 0.381141 0.645959 -0.548349
v 0.408142 0.655075 -0.548349
v 0.426142 0.645959 -0.548349
v 0.381141 0.645959 -0.548349
v 0.381142 0.661151 -0.548349
v 0.426141 0.585192 0.531651
v 0.426141 0.645959 0.531651
v 0.381141 0.645959 0.531651
v 0.381141 0.585192 0.531651
v 0.408141 0.576077 0.531651
v 0.426141 0.585192 0.531651
v 0.381141 0.585192 0.531651
v 0.381141 0.570000 0.531651
v 0.426141 0.645959 0.531651
v 0.408141 0.655075 0.531651
v 0.381141 0.661151 0.531651
v 0.381141 0.645959 0.531651
v 0.426141 0.585192 -0.548349
v 0.408141 0.576077 -0.548349
v 0.381141 0.570000 -0.548349
v 0.381141 0.585192 -0.548349
v 0.408141 0.576077 -0.548349
v 0.408141 0.576077 0.531651
v 0.381141 0.570000 0.531651
v 0.381141 0.570000 -0.548349
v -0.352323 0.661152 -0.548349
v -0.352323 0.661152 0.531651
v 0.381141 0.661151 0.531651
v 0.381142 0.661151 -0.548349
v 0.381141 0.586711 0.504651
v 0.381141 0.644440 0.504651
v -0.315650 0.644440 0.504651
v -0.315650 0.586711 0.504651
v 0.381141 0.644440 -0.521349
v 0.381141 0.586711 -0.521349
v -0.315650 0.586711 -0.521349
v -0.315650 0.644440 -0.521349
v -0.315650 0.586711 -0.521349
v -0.315650 0.586711 0.504651
v -0.315650 0.644440 0.504651
v -0.315650 0.644440 -0.521349
v 0.381141 0.585192 -0.548349
v -0.352323 0.585192 -0.548349
v -0.315650 0.586711 -0.521349
v 0.381141 0.586711 -0.521349
v 0.381141 0.645959 0.531651
v -0.352323 0.645960 0.531651
v -0.315650 0.644440 0.504651
v 0.381141 0.644440 0.504651
v -0.352323 0.585192 -0.548349
v -0.352323 0.585192 0.531651
v -0.315650 0.586711 0.504651
v -0.315650 0.586711 -0.521349
v -0.352323 0.645960 -0.548349
v 0.381141 0.645959 -0.548349
v 0.381141 0.644440 -0.521349
v -0.315650 0.644440 -0.521349
v -0.352323 0.585192 0.531651
v 0.381141 0.585192 0.531651
v 0.381141 0.586711 0.504651
v -0.315650 0.586711 0.504651
v 0.303993 0.234910 -0.661239
v 0.195413 0.234910 -0.661239
v 0.195413 0.255000 -0.578349
v 0.303993 0.255000 -0.578349
v 0.195413 0.234910 -0.661239
v 0.303993 0.234910 -0.661239
v 0.303993 0.182711 -0.741421
v 0.195413 0.182711 -0.741421

vt 0.316621 0.000198
vt 0.303215 0.446379
vt 0.303215 0.000198
vt 0.316621 0.446379
vt 0.303215 0.446379
vt 0.316621 0.000198
vt 0.417797 0.000198
vt 0.404390 0.446379
vt 0.404391 0.000198
vt 0.417797 0.446379
vt 0.404390 0.446379
vt 0.417797 0.000198
vt 0.000198 0.000198
vt 0.303215 0.446379
vt 0.303215 0.000198
vt 0.000198 0.446379
vt 0.303215 0.446379
vt 0.000198 0.000198
vt 0.015710 0.396076
vt 0.431860 0.413416
vt 0.015710 0.413416
vt 0.431860 0.396077
vt 0.431860 0.413416
vt 0.015710 0.396076
vt 0.298284 0.393475
vt 0.015662 0.410815
vt 0.015662 0.393475
vt 0.298284 0.410815
vt 0.015662 0.410815
vt 0.298284 0.393475
vt 0.298284 0.393475
vt 0.015663 0.410815
vt 0.015663 0.393475
vt 0.298284 0.410815
vt 0.015663 0.410815
vt 0.298284 0.393475
vt 0.298284 0.410814
vt 0.015662 0.393475
vt 0.015662 0.410815
vt 0.298284 0.393475
vt 0.015662 0.393475
vt 0.298284 0.410814
vt 0.421456 0.427653
vt 0.015710 0.413416
vt 0.431860 0.413416
vt 0.026114 0.427653
vt 0.015710 0.413416
vt 0.421456 0.427653
vt 0.298284 0.410815
vt 0.015663 0.393475
vt 0.015663 0.410815
vt 0.298284 0.393475
vt 0.015663 0.393475
vt 0.298284 0.410815
vt 0.034736 0.400411
vt 0.102360 0.410815
vt 0.033002 0.410815
vt 0.100626 0.400411
vt 0.102360 0.410815
vt 0.034736 0.400411
vt 0.431860 0.413417
vt 0.015708 0.396077
vt 0.431860 0.396077
vt 0.015708 0.413416
vt 0.015708 0.396077
vt 0.431860 0.413417
vt 0.034736 0.400411
vt 0.102360 0.410815
vt 0.033002 0.410815
vt 0.100626 0.400411
vt 0.102360 0.410815
vt 0.034736 0.400411
vt 0.330027 0.000198
vt 0.316621 0.446379
vt 0.316621 0.000198
vt 0.330027 0.446379
vt 0.316621 0.446379
vt 0.330027 0.000198
vt 0.404391 0.000198
vt 0.330027 0.446379
vt 0.330027 0.000198
vt 0.404390 0.446379
vt 0.330027 0.446379
vt 0.404391 0.000198
vt 0.033002 0.410815
vt 0.102360 0.428154
vt 0.033002 0.428154
vt 0.102360 0.410815
vt 0.102360 0.428154
vt 0.033002 0.410815
vt 0.102360 0.410815
vt 0.112764 0.421218
vt 0.102360 0.428154
vt 0.119700 0.410815
vt 0.112764 0.421218
vt 0.102360 0.410815
vt 0.033002 0.410815
vt 0.102360 0.428154
vt 0.033002 0.428154
vt 0.102360 0.410815
vt 0.102360 0.428154
vt 0.033002 0.410815
vt 0.102360 0.410815
vt 0.112764 0.421218
vt 0.102360 0.428154
vt 0.119700 0.410815
vt 0.112764 0.421218
vt 0.102360 0.410815
vt 0.015662 0.410815
vt 0.033002 0.428154
vt 0.022598 0.421219
vt 0.033002 0.410815
vt 0.033002 0.428154
vt 0.015662 0.410815
vt 0.015662 0.410815
vt 0.033002 0.428154
vt 0.022598 0.421219
vt 0.033002 0.410815
vt 0.033002 0.428154
vt 0.015662 0.410815
vt 0.431203 0.000198
vt 0.417797 0.446379
vt 0.417797 0.000198
vt 0.431203 0.446379
vt 0.417797 0.446379
vt 0.431203 0.000198
vt 0.000198 0.000198
vt 0.303215 0.446379
vt 0.303215 0.000198
vt 0.000198 0.446379
vt 0.303215 0.446379
vt 0.000198 0.000198
vt 0.284153 0.421362
vt 0.015662 0.410815
vt 0.298284 0.410815
vt 0.015662 0.421362
vt 0.015662 0.410815
vt 0.284153 0.421362
vt 0.284154 0.421362
vt 0.015663 0.410815
vt 0.298284 0.410815
vt 0.015663 0.421362
vt 0.015663 0.410815
vt 0.284154 0.421362
vt 0.421456 0.427654
vt 0.015708 0.413416
vt 0.431860 0.413417
vt 0.026112 0.427653
vt 0.015708 0.413416
vt 0.421456 0.427654
vt 0.015663 0.421362
vt 0.298284 0.410815
vt 0.015663 0.410815
vt 0.284153 0.421362
vt 0.298284 0.410815
vt 0.015663 0.421362
vt 0.015662 0.421362
vt 0.298284 0.410814
vt 0.015662 0.410815
vt 0.284153 0.421362
vt 0.298284 0.410814
vt 0.015662 0.421362
vt 0.607024 0.711936
vt 0.737670 0.999802
vt 0.607024 0.999802
vt 0.737670 0.711936
vt 0.737670 0.999802
vt 0.607024 0.711936
vt 0.737670 0.288064
vt 0.607024 0.000198
vt 0.737670 0.000198
vt 0.607024 0.288064
vt 0.607024 0.000198
vt 0.737670 0.288064
vt 0.607024 0.711936
vt 0.737670 0.288064
vt 0.737670 0.711936
vt 0.607024 0.288064
vt 0.737670 0.288064
vt 0.607024 0.711936
vt 0.607024 0.711936
vt 0.737670 0.999802
vt 0.607024 0.999802
vt 0.737670 0.711936
vt 0.737670 0.999802
vt 0.607024 0.711936
vt 0.737670 0.288064
vt 0.607024 0.000198
vt 0.737670 0.000198
vt 0.607024 0.288064
vt 0.607024 0.000198
vt 0.737670 0.288064
vt 0.607024 0.711936
vt 0.737670 0.288064
vt 0.737670 0.711936
vt 0.607024 0.288064
vt 0.737670 0.288064
vt 0.607024 0.711936
vt 0.607024 0.711936
vt 0.737670 0.999802
vt 0.607024 0.999802
vt 0.737670 0.711936
vt 0.737670 0.999802
vt 0.607024 0.711936
vt 0.737670 0.288064
vt 0.607024 0.000198
vt 0.737670 0.000198
vt 0.607024 0.288064
vt 0.607024 0.000198
vt 0.737670 0.288064
vt 0.607024 0.711936
vt 0.737670 0.288064
vt 0.737670 0.711936
vt 0.607024 0.288064
vt 0.737670 0.288064
vt 0.607024 0.711936
vt 0.607024 0.711936
vt 0.737670 0.999802
vt 0.607024 0.999802
vt 0.737670 0.711936
vt 0.737670 0.999802
vt 0.607024 0.711936
vt 0.737670 0.288064
vt 0.607024 0.000198
vt 0.737670 0.000198
vt 0.607024 0.288064
vt 0.607024 0.000198
vt 0.737670 0.288064
vt 0.607024 0.711936
vt 0.737670 0.288064
vt 0.737670 0.711936
vt 0.607024 0.288064
vt 0.737670 0.288064
vt 0.607024 0.711936
vt 0.316621 0.000198
vt 0.303215 0.446379
vt 0.303215 0.000198
vt 0.316621 0.446379
vt 0.303215 0.446379
vt 0.316621 0.000198
vt 0.417797 0.000198
vt 0.404390 0.446379
vt 0.404391 0.000198
vt 0.417797 0.446379
vt 0.404390 0.446379
vt 0.417797 0.000198
vt 0.000198 0.000198
vt 0.303215 0.446379
vt 0.303215 0.000198
vt 0.000198 0.446379
vt 0.303215 0.446379
vt 0.000198 0.000198
vt 0.015811 0.393074
vt 0.433701 0.410486
vt 0.015811 0.410486
vt 0.433701 0.393074
vt 0.433701 0.410486
vt 0.015811 0.393074
vt 0.299566 0.390461
vt 0.015763 0.407874
vt 0.015763 0.390461
vt 0.299566 0.407873
vt 0.015763 0.407874
vt 0.299566 0.390461
vt 0.299567 0.390461
vt 0.015763 0.407874
vt 0.015763 0.390461
vt 0.299567 0.407874
vt 0.015763 0.407874
vt 0.299567 0.390461
vt 0.299566 0.407873
vt 0.015763 0.390461
vt 0.015763 0.407873
vt 0.299566 0.390461
vt 0.015763 0.390461
vt 0.299566 0.407873
vt 0.423253 0.424782
vt 0.015811 0.410486
vt 0.433701 0.410486
vt 0.026259 0.424782
vt 0.015811 0.410486
vt 0.423253 0.424782
vt 0.299566 0.407874
vt 0.015763 0.390461
vt 0.015763 0.407873
vt 0.299566 0.390461
vt 0.015763 0.390461
vt 0.299566 0.407874
vt 0.034916 0.397426
vt 0.102823 0.407874
vt 0.033175 0.407874
vt 0.101082 0.397426
vt 0.102823 0.407874
vt 0.034916 0.397426
vt 0.433701 0.410486
vt 0.015809 0.393074
vt 0.433701 0.393074
vt 0.015809 0.410486
vt 0.015809 0.393074
vt 0.433701 0.410486
vt 0.034916 0.397426
vt 0.102823 0.407874
vt 0.033175 0.407874
vt 0.101082 0.397426
vt 0.102823 0.407874
vt 0.034916 0.397426
vt 0.330027 0.000198
vt 0.316621 0.446379
vt 0.316621 0.000198
vt 0.330027 0.446379
vt 0.316621 0.446379
vt 0.330027 0.000198
vt 0.404391 0.000198
vt 0.330027 0.446379
vt 0.330027 0.000198
vt 0.404390 0.446379
vt 0.330027 0.446379
vt 0.404391 0.000198
vt 0.033175 0.407874
vt 0.102823 0.425285
vt 0.033175 0.425286
vt 0.102823 0.407874
vt 0.102823 0.425285
vt 0.033175 0.407874
vt 0.102823 0.407874
vt 0.113270 0.418321
vt 0.102823 0.425285
vt 0.120235 0.407874
vt 0.113270 0.418321
vt 0.102823 0.407874
vt 0.033175 0.407874
vt 0.102823 0.425285
vt 0.033175 0.425286
vt 0.102823 0.407874
vt 0.102823 0.425285
vt 0.033175 0.407874
vt 0.102823 0.407874
vt 0.113271 0.418321
vt 0.102823 0.425285
vt 0.120235 0.407874
vt 0.113271 0.418321
vt 0.102823 0.407874
vt 0.015763 0.407874
vt 0.033175 0.425286
vt 0.022728 0.418321
vt 0.033175 0.407874
vt 0.033175 0.425286
vt 0.015763 0.407874
vt 0.015763 0.407874
vt 0.033175 0.425286
vt 0.022728 0.418321
vt 0.033175 0.407874
vt 0.033175 0.425286
vt 0.015763 0.407874
vt 0.431203 0.000198
vt 0.417797 0.446379
vt 0.417797 0.000198
vt 0.431203 0.446379
vt 0.417797 0.446379
vt 0.431203 0.000198
vt 0.000198 0.000198
vt 0.303215 0.446379
vt 0.303215 0.000198
vt 0.000198 0.446379
vt 0.303215 0.446379
vt 0.000198 0.000198
vt 0.285376 0.418465
vt 0.015763 0.407874
vt 0.299566 0.407873
vt 0.015763 0.418465
vt 0.015763 0.407874
vt 0.285376 0.418465
vt 0.285377 0.418465
vt 0.015763 0.407874
vt 0.299567 0.407874
vt 0.015763 0.418465
vt 0.015763 0.407874
vt 0.285377 0.418465
vt 0.423253 0.424783
vt 0.015809 0.410486
vt 0.433701 0.410486
vt 0.026256 0.424782
vt 0.015809 0.410486
vt 0.423253 0.424783
vt 0.015763 0.418465
vt 0.299566 0.407874
vt 0.015763 0.407873
vt 0.285376 0.418465
vt 0.299566 0.407874
vt 0.015763 0.418465
vt 0.015763 0.418465
vt 0.299566 0.407873
vt 0.015763 0.407873
vt 0.285376 0.418464
vt 0.299566 0.407873
vt 0.015763 0.418465
vt 0.316621 0.000198
vt 0.303215 0.446379
vt 0.303215 0.000198
vt 0.316621 0.446379
vt 0.303215 0.446379
vt 0.316621 0.000198
vt 0.417797 0.000198
vt 0.404390 0.446379
vt 0.404391 0.000198
vt 0.417797 0.446379
vt 0.404390 0.446379
vt 0.417797 0.000198
vt 0.000198 0.000198
vt 0.303215 0.446379
vt 0.303215 0.000198
vt 0.000198 0.446379
vt 0.303215 0.446379
vt 0.000198 0.000198
vt 0.014343 0.394287
vt 0.432708 0.411719
vt 0.014343 0.411719
vt 0.432708 0.394288
vt 0.432708 0.411719
vt 0.014343 0.394287
vt 0.298421 0.391672
vt 0.014295 0.409104
vt 0.014295 0.391672
vt 0.298421 0.409104
vt 0.014295 0.409104
vt 0.298421 0.391672
vt 0.298421 0.391672
vt 0.014295 0.409104
vt 0.014295 0.391672
vt 0.298421 0.409104
vt 0.014295 0.409104
vt 0.298421 0.391672
vt 0.298421 0.409104
vt 0.014295 0.391672
vt 0.014295 0.409104
vt 0.298421 0.391672
vt 0.014295 0.391672
vt 0.298421 0.409104
vt 0.422249 0.426032
vt 0.014343 0.411719
vt 0.432708 0.411719
vt 0.024802 0.426032
vt 0.014343 0.411719
vt 0.422249 0.426032
vt 0.298421 0.409104
vt 0.014295 0.391672
vt 0.014295 0.409104
vt 0.298421 0.391672
vt 0.014295 0.391672
vt 0.298421 0.409104
vt 0.033470 0.398645
vt 0.101454 0.409104
vt 0.031726 0.409104
vt 0.099711 0.398645
vt 0.101454 0.409104
vt 0.033470 0.398645
vt 0.432708 0.411720
vt 0.014341 0.394288
vt 0.432708 0.394288
vt 0.014341 0.411719
vt 0.014341 0.394288
vt 0.432708 0.411720
vt 0.033470 0.398645
vt 0.101454 0.409104
vt 0.031726 0.409104
vt 0.099711 0.398645
vt 0.101454 0.409104
vt 0.033470 0.398645
vt 0.330027 0.000198
vt 0.316621 0.446379
vt 0.316621 0.000198
vt 0.330027 0.446379
vt 0.316621 0.446379
vt 0.330027 0.000198
vt 0.404391 0.000198
vt 0.330027 0.446379
vt 0.330027 0.000198
vt 0.404390 0.446379
vt 0.330027 0.446379
vt 0.404391 0.000198
vt 0.031726 0.409104
vt 0.101454 0.426536
vt 0.031726 0.426536
vt 0.101454 0.409104
vt 0.101454 0.426536
vt 0.031726 0.409104
vt 0.101454 0.409104
vt 0.111913 0.419563
vt 0.101454 0.426536
vt 0.118886 0.409104
vt 0.111913 0.419563
vt 0.101454 0.409104
vt 0.031726 0.409104
vt 0.101454 0.426536
vt 0.031726 0.426536
vt 0.101454 0.409104
vt 0.101454 0.426536
vt 0.031726 0.409104
vt 0.101454 0.409104
vt 0.111913 0.419563
vt 0.101454 0.426536
vt 0.118886 0.409104
vt 0.111913 0.419563
vt 0.101454 0.409104
vt 0.014295 0.409104
vt 0.031726 0.426536
vt 0.021267 0.419563
vt 0.031726 0.409104
vt 0.031726 0.426536
vt 0.014295 0.409104
vt 0.014295 0.409104
vt 0.031726 0.426536
vt 0.021267 0.419563
vt 0.031726 0.409104
vt 0.031726 0.426536
vt 0.014295 0.409104
vt 0.431203 0.000198
vt 0.417797 0.446379
vt 0.417797 0.000198
vt 0.431203 0.446379
vt 0.417797 0.446379
vt 0.431203 0.000198
vt 0.000198 0.000198
vt 0.303215 0.446379
vt 0.303215 0.000198
vt 0.000198 0.446379
vt 0.303215 0.446379
vt 0.000198 0.000198
vt 0.284215 0.419707
vt 0.014295 0.409104
vt 0.298421 0.409104
vt 0.014295 0.419707
vt 0.014295 0.409104
vt 0.284215 0.419707
vt 0.284215 0.419707
vt 0.014295 0.409104
vt 0.298421 0.409104
vt 0.014295 0.419707
vt 0.014295 0.409104
vt 0.284215 0.419707
vt 0.422249 0.426033
vt 0.014341 0.411719
vt 0.432708 0.411720
vt 0.024800 0.426032
vt 0.014341 0.411719
vt 0.422249 0.426033
vt 0.014295 0.419707
vt 0.298421 0.409104
vt 0.014295 0.409104
vt 0.284215 0.419707
vt 0.298421 0.409104
vt 0.014295 0.419707
vt 0.014295 0.419707
vt 0.298421 0.409104
vt 0.014295 0.409104
vt 0.284215 0.419707
vt 0.298421 0.409104
vt 0.014295 0.419707
vt 0.316621 0.000198
vt 0.303215 0.446379
vt 0.303215 0.000198
vt 0.316621 0.446379
vt 0.303215 0.446379
vt 0.316621 0.000198
vt 0.417797 0.000198
vt 0.404390 0.446379
vt 0.404391 0.000198
vt 0.417797 0.446379
vt 0.404390 0.446379
vt 0.417797 0.000198
vt 0.000198 0.000198
vt 0.303215 0.446379
vt 0.303215 0.000198
vt 0.000198 0.446379
vt 0.303215 0.446379
vt 0.000198 0.000198
vt 0.428368 -0.020619
vt 0.411294 0.389144
vt 0.411294 -0.020619
vt 0.428367 0.389144
vt 0.411294 0.389144
vt 0.428368 -0.020619
vt 0.430929 0.257618
vt 0.413856 -0.020667
vt 0.430929 -0.020667
vt 0.413856 0.257618
vt 0.413856 -0.020667
vt 0.430929 0.257618
vt 0.430929 0.257618
vt 0.413856 -0.020666
vt 0.430929 -0.020666
vt 0.413856 0.257618
vt 0.413856 -0.020666
vt 0.430929 0.257618
vt 0.413856 0.257618
vt 0.430929 -0.020667
vt 0.413856 -0.020667
vt 0.430929 0.257618
vt 0.430929 -0.020667
vt 0.413856 0.257618
vt 0.397276 0.378900
vt 0.411294 -0.020619
vt 0.411294 0.389144
vt 0.397276 -0.010375
vt 0.411294 -0.020619
vt 0.397276 0.378900
vt 0.413856 0.257618
vt 0.430929 -0.020666
vt 0.413856 -0.020666
vt 0.430929 0.257618
vt 0.430929 -0.020666
vt 0.413856 0.257618
vt 0.424100 -0.001886
vt 0.413856 0.064701
vt 0.413856 -0.003593
vt 0.424100 0.062993
vt 0.413856 0.064701
vt 0.424100 -0.001886
vt 0.411294 0.389144
vt 0.428367 -0.020621
vt 0.428367 0.389144
vt 0.411294 -0.020621
vt 0.428367 -0.020621
vt 0.411294 0.389144
vt 0.424100 -0.001886
vt 0.413856 0.064701
vt 0.413856 -0.003593
vt 0.424100 0.062993
vt 0.413856 0.064701
vt 0.424100 -0.001886
vt 0.330027 0.000198
vt 0.316621 0.446379
vt 0.316621 0.000198
vt 0.330027 0.446379
vt 0.316621 0.446379
vt 0.330027 0.000198
vt 0.404391 0.000198
vt 0.330027 0.446379
vt 0.330027 0.000198
vt 0.404390 0.446379
vt 0.330027 0.446379
vt 0.404391 0.000198
vt 0.413856 -0.003593
vt 0.396782 0.064701
vt 0.396782 -0.003593
vt 0.413856 0.064701
vt 0.396782 0.064701
vt 0.413856 -0.003593
vt 0.413856 0.064701
vt 0.403612 0.074945
vt 0.396782 0.064701
vt 0.413856 0.081774
vt 0.403612 0.074945
vt 0.413856 0.064701
vt 0.413856 -0.003593
vt 0.396782 0.064701
vt 0.396782 -0.003593
vt 0.413856 0.064701
vt 0.396782 0.064701
vt 0.413856 -0.003593
vt 0.413856 0.064701
vt 0.403612 0.074945
vt 0.396782 0.064701
vt 0.413856 0.081774
vt 0.403612 0.074945
vt 0.413856 0.064701
vt 0.413856 -0.020667
vt 0.396782 -0.003593
vt 0.403612 -0.013837
vt 0.413856 -0.003593
vt 0.396782 -0.003593
vt 0.413856 -0.020667
vt 0.413856 -0.020667
vt 0.396782 -0.003593
vt 0.403612 -0.013837
vt 0.413856 -0.003593
vt 0.396782 -0.003593
vt 0.413856 -0.020667
vt 0.431203 0.000198
vt 0.417797 0.446379
vt 0.417797 0.000198
vt 0.431203 0.446379
vt 0.417797 0.446379
vt 0.431203 0.000198
vt 0.000198 0.000198
vt 0.303215 0.446379
vt 0.303215 0.000198
vt 0.000198 0.446379
vt 0.303215 0.446379
vt 0.000198 0.000198
vt 0.403470 0.243704
vt 0.413856 -0.020667
vt 0.413856 0.257618
vt 0.403470 -0.020667
vt 0.413856 -0.020667
vt 0.403470 0.243704
vt 0.403470 0.243704
vt 0.413856 -0.020666
vt 0.413856 0.257618
vt 0.403470 -0.020666
vt 0.413856 -0.020666
vt 0.403470 0.243704
vt 0.397275 0.378900
vt 0.411294 -0.020621
vt 0.411294 0.389144
vt 0.397276 -0.010378
vt 0.411294 -0.020621
vt 0.397275 0.378900
vt 0.403470 -0.020666
vt 0.413856 0.257618
vt 0.413856 -0.020666
vt 0.403470 0.243704
vt 0.413856 0.257618
vt 0.403470 -0.020666
vt 0.403470 -0.020667
vt 0.413856 0.257618
vt 0.413856 -0.020667
vt 0.403471 0.243704
vt 0.413856 0.257618
vt 0.403470 -0.020667
vt 0.162154 0.171626
vt 0.215144 0.213251
vt 0.162154 0.213251
vt 0.215144 0.171626
vt 0.215144 0.213251
vt 0.162154 0.171626
vt 0.215144 0.259944
vt 0.162154 0.213251
vt 0.215144 0.213251
vt 0.162154 0.259944
vt 0.162154 0.213251
vt 0.215144 0.259944

vn 0.554700 0.832051 0.000000
vn 0.554700 0.832051 0.000000
vn 0.554700 0.832051 0.000000
vn 0.554699 0.832051 0.000000
vn 0.554699 0.832051 0.000000
vn 0.554699 0.832051 0.000000
vn 0.832050 -0.554700 0.000000
vn 0.832050 -0.554700 0.000000
vn 0.832050 -0.554700 0.000000
vn 0.832050 -0.554700 0.000000
vn 0.832050 -0.554700 0.000000
vn 0.832050 -0.554700 0.000000
vn -0.000000 -1.000000 -0.000000
vn -0.000000 -1.000000 -0.000000
vn -0.000000 -1.000000 -0.000000
vn -0.000000 -1.000000 -0.000000
vn -0.000000 -1.000000 -0.000000
vn -0.000000 -1.000000 -0.000000
vn -1.000000 0.000001 -0.000000
vn -1.000000 0.000001 -0.000000
vn -1.000000 0.000001 -0.000000
vn -1.000000 0.000001 -0.000000
vn -1.000000 0.000001 -0.000000
vn -1.000000 0.000001 -0.000000
vn 0.000000 0.000001 -1.000000
vn 0.000000 0.000001 -1.000000
vn 0.000000 0.000001 -1.000000
vn 0.000000 -0.000001 -1.000000
vn 0.000000 -0.000001 -1.000000
vn 0.000000 -0.000001 -1.000000
vn -0.000000 0.000001 1.000000
vn -0.000000 0.000001 1.000000
vn -0.000000 0.000001 1.000000
vn -0.000000 -0.000001 1.000000
vn -0.000000 -0.000001 1.000000
vn -0.000000 -0.000001 1.000000
vn -0.000000 0.000001 1.000000
vn -0.000000 0.000001 1.000000
vn -0.000000 0.000001 1.000000
vn -0.000000 -0.000001 1.000000
vn -0.000000 -0.000001 1.000000
vn -0.000000 -0.000001 1.000000
vn -0.121792 -0.992556 -0.000000
vn -0.121792 -0.992556 -0.000000
vn -0.121792 -0.992556 -0.000000
vn -0.121793 -0.992556 -0.000000
vn -0.121793 -0.992556 -0.000000
vn -0.121793 -0.992556 -0.000000
vn 0.000000 0.000001 -1.000000
vn 0.000000 0.000001 -1.000000
vn 0.000000 0.000001 -1.000000
vn 0.000000 -0.000001 -1.000000
vn 0.000000 -0.000001 -1.000000
vn 0.000000 -0.000001 -1.000000
vn -1.000000 0.000000 0.000000
vn -1.000000 0.000000 0.000000
vn -1.000000 0.000000 0.000000
vn -1.000000 0.000000 0.000000
vn -1.000000 0.000000 0.000000
vn -1.000000 0.000000 0.000000
vn -1.000000 0.000001 -0.000000
vn -1.000000 0.000001 -0.000000
vn -1.000000 0.000001 -0.000000
vn -1.000000 0.000001 -0.000000
vn -1.000000 0.000001 -0.000000
vn -1.000000 0.000001 -0.000000
vn -1.000000 0.000000 0.000000
vn -1.000000 0.000000 0.000000
vn -1.000000 0.000000 0.000000
vn -1.000000 0.000000 0.000000
vn -1.000000 0.000000 0.000000
vn -1.000000 0.000000 0.000000
vn 0.832051 0.554699 0.000000
vn 0.832051 0.554699 0.000000
vn 0.832051 0.554699 0.000000
vn 0.832051 0.554699 0.000000
vn 0.832051 0.554699 0.000000
vn 0.832051 0.554699 0.000000
vn 1.000000 -0.000000 0.000000
vn 1.000000 -0.000000 0.000000
vn 1.000000 -0.000000 0.000000
vn 1.000000 -0.000000 0.000000
vn 1.000000 -0.000000 0.000000
vn 1.000000 -0.000000 0.000000
vn -0.000000 0.000000 -1.000000
vn -0.000000 0.000000 -1.000000
vn -0.000000 0.000000 -1.000000
vn -0.000000 0.000000 -1.000000
vn -0.000000 0.000000 -1.000000
vn -0.000000 0.000000 -1.000000
vn -0.000000 0.000000 -1.000000
vn -0.000000 0.000000 -1.000000
vn -0.000000 0.000000 -1.000000
vn -0.000000 -0.000002 -1.000000
vn -0.000000 -0.000002 -1.000000
vn -0.000000 -0.000002 -1.000000
vn -0.000000 0.000000 1.000000
vn -0.000000 0.000000 1.000000
vn -0.000000 0.000000 1.000000
vn -0.000000 0.000000 1.000000
vn -0.000000 0.000000 1.000000
vn -0.000000 0.000000 1.000000
vn -0.000000 0.000001 1.000000
vn -0.000000 0.000001 1.000000
vn -0.000000 0.000001 1.000000
vn -0.000000 0.000000 1.000000
vn -0.000000 0.000000 1.000000
vn -0.000000 0.000000 1.000000
vn -0.000000 0.000000 1.000000
vn -0.000000 0.000000 1.000000
vn -0.000000 0.000000 1.000000
vn -0.000000 -0.000001 1.000000
vn -0.000000 -0.000001 1.000000
vn -0.000000 -0.000001 1.000000
vn -0.000000 0.000000 -1.000000
vn -0.000000 0.000000 -1.000000
vn -0.000000 0.000000 -1.000000
vn -0.000000 0.000000 -1.000000
vn -0.000000 0.000000 -1.000000
vn -0.000000 0.000000 -1.000000
vn 0.554699 -0.832051 0.000000
vn 0.554699 -0.832051 0.000000
vn 0.554699 -0.832051 0.000000
vn 0.554700 -0.832051 0.000000
vn 0.554700 -0.832051 0.000000
vn 0.554700 -0.832051 0.000000
vn 0.000000 1.000000 0.000000
vn 0.000000 1.000000 0.000000
vn 0.000000 1.000000 0.000000
vn 0.000000 1.000000 0.000000
vn 0.000000 1.000000 0.000000
vn 0.000000 1.000000 0.000000
vn 0.000000 0.986394 -0.164399
vn 0.000000 0.986394 -0.164399
vn 0.000000 0.986394 -0.164399
vn 0.000000 0.986394 -0.164398
vn 0.000000 0.986394 -0.164398
vn 0.000000 0.986394 -0.164398
vn -0.000000 -0.986394 0.164398
vn -0.000000 -0.986394 0.164398
vn -0.000000 -0.986394 0.164398
vn -0.000000 -0.986394 0.164398
vn -0.000000 -0.986394 0.164398
vn -0.000000 -0.986394 0.164398
vn -0.121791 0.992556 -0.000000
vn -0.121791 0.992556 -0.000000
vn -0.121791 0.992556 -0.000000
vn -0.121791 0.992556 -0.000000
vn -0.121791 0.992556 -0.000000
vn -0.121791 0.992556 -0.000000
vn -0.000000 -0.986394 -0.164399
vn -0.000000 -0.986394 -0.164399
vn -0.000000 -0.986394 -0.164399
vn -0.000000 -0.986394 -0.164398
vn -0.000000 -0.986394 -0.164398
vn -0.000000 -0.986394 -0.164398
vn 0.000000 0.986394 0.164398
vn 0.000000 0.986394 0.164398
vn 0.000000 0.986394 0.164398
vn 0.000000 0.986394 0.164399
vn 0.000000 0.986394 0.164399
vn 0.000000 0.986394 0.164399
vn -0.000000 -0.000000 1.000000
vn -0.000000 -0.000000 1.000000
vn -0.000000 -0.000000 1.000000
vn -0.000000 0.000000 1.000000
vn -0.000000 0.000000 1.000000
vn -0.000000 0.000000 1.000000
vn 0.000000 0.000000 -1.000000
vn 0.000000 0.000000 -1.000000
vn 0.000000 0.000000 -1.000000
vn 0.000000 0.000000 -1.000000
vn 0.000000 0.000000 -1.000000
vn 0.000000 0.000000 -1.000000
vn -1.000000 0.000000 -0.000000
vn -1.000000 0.000000 -0.000000
vn -1.000000 0.000000 -0.000000
vn -1.000000 0.000000 -0.000000
vn -1.000000 0.000000 -0.000000
vn -1.000000 0.000000 -0.000000
vn -0.000000 0.000000 1.000000
vn -0.000000 0.000000 1.000000
vn -0.000000 0.000000 1.000000
vn -0.000000 0.000000 1.000000
vn -0.000000 0.000000 1.000000
vn -0.000000 0.000000 1.000000
vn 0.000000 -0.000000 -1.000000
vn 0.000000 -0.000000 -1.000000
vn 0.000000 -0.000000 -1.000000
vn 0.000000 0.000001 -1.000000
vn 0.000000 0.000001 -1.000000
vn 0.000000 0.000001 -1.000000
vn -1.000000 0.000000 -0.000000
vn -1.000000 0.000000 -0.000000
vn -1.000000 0.000000 -0.000000
vn -1.000000 0.000000 -0.000000
vn -1.000000 0.000000 -0.000000
vn -1.000000 0.000000 -0.000000
vn 0.161702 0.000000 0.986840
vn 0.161702 0.000000 0.986840
vn 0.161702 0.000000 0.986840
vn 0.161702 -0.000001 0.986840
vn 0.161702 -0.000001 0.986840
vn 0.161702 -0.000001 0.986840
vn -0.161702 0.000000 -0.986840
vn -0.161702 0.000000 -0.986840
vn -0.161702 0.000000 -0.986840
vn -0.161702 0.000000 -0.986840
vn -0.161702 0.000000 -0.986840
vn -0.161702 0.000000 -0.986840
vn -0.986840 0.000000 0.161702
vn -0.986840 0.000000 0.161702
vn -0.986840 0.000000 0.161702
vn -0.986840 0.000000 0.161702
vn -0.986840 0.000000 0.161702
vn -0.986840 0.000000 0.161702
vn -0.000000 -0.000001 1.000000
vn -0.000000 -0.000001 1.000000
vn -0.000000 -0.000001 1.000000
vn -0.000000 0.000000 1.000000
vn -0.000000 0.000000 1.000000
vn -0.000000 0.000000 1.000000
vn 0.000000 0.000001 -1.000000
vn 0.000000 0.000001 -1.000000
vn 0.000000 0.000001 -1.000000
vn 0.000000 -0.000001 -1.000000
vn 0.000000 -0.000001 -1.000000
vn 0.000000 -0.000001 -1.000000
vn -1.000000 0.000001 -0.000000
vn -1.000000 0.000001 -0.000000
vn -1.000000 0.000001 -0.000000
vn -1.000000 0.000001 -0.000000
vn -1.000000 0.000001 -0.000000
vn -1.000000 0.000001 -0.000000
vn 0.422884 0.906184 0.000000
vn 0.422884 0.906184 0.000000
vn 0.422884 0.906184 0.000000
vn 0.422884 0.906184 0.000000
vn 0.422884 0.906184 0.000000
vn 0.422884 0.906184 0.000000
vn 0.724139 -0.689654 0.000000
vn 0.724139 -0.689654 0.000000
vn 0.724139 -0.689654 0.000000
vn 0.724138 -0.689655 0.000000
vn 0.724138 -0.689655 0.000000
vn 0.724138 -0.689655 0.000000
vn -0.000000 -1.000000 -0.000000
vn -0.000000 -1.000000 -0.000000
vn -0.000000 -1.000000 -0.000000
vn -0.000000 -1.000000 -0.000000
vn -0.000000 -1.000000 -0.000000
vn -0.000000 -1.000000 -0.000000
vn -1.000000 0.000000 -0.000000
vn -1.000000 0.000000 -0.000000
vn -1.000000 0.000000 -0.000000
vn -1.000000 0.000000 -0.000000
vn -1.000000 0.000000 -0.000000
vn -1.000000 0.000000 -0.000000
vn 0.000000 0.000000 -1.000000
vn 0.000000 0.000000 -1.000000
vn 0.000000 0.000000 -1.000000
vn 0.000000 0.000000 -1.000000
vn 0.000000 0.000000 -1.000000
vn 0.000000 0.000000 -1.000000
vn -0.000000 0.000000 1.000000
vn -0.000000 0.000000 1.000000
vn -0.000000 0.000000 1.000000
vn -0.000000 0.000000 1.000000
vn -0.000000 0.000000 1.000000
vn -0.000000 0.000000 1.000000
vn -0.000000 0.000000 1.000000
vn -0.000000 0.000000 1.000000
vn -0.000000 0.000000 1.000000
vn -0.000000 0.000000 1.000000
vn -0.000000 0.000000 1.000000
vn -0.000000 0.000000 1.000000
vn -0.085579 -0.996331 -0.000000
vn -0.085579 -0.996331 -0.000000
vn -0.085579 -0.996331 -0.000000
vn -0.085580 -0.996331 -0.000000
vn -0.085580 -0.996331 -0.000000
vn -0.085580 -0.996331 -0.000000
vn 0.000000 0.000000 -1.000000
vn 0.000000 0.000000 -1.000000
vn 0.000000 0.000000 -1.000000
vn 0.000000 0.000000 -1.000000
vn 0.000000 0.000000 -1.000000
vn 0.000000 0.000000 -1.000000
vn -1.000000 0.000000 0.000000
vn -1.000000 0.000000 0.000000
vn -1.000000 0.000000 0.000000
vn -1.000000 0.000000 0.000000
vn -1.000000 0.000000 0.000000
vn -1.000000 0.000000 0.000000
vn -1.000000 0.000000 -0.000000
vn -1.000000 0.000000 -0.000000
vn -1.000000 0.000000 -0.000000
vn -1.000000 0.000000 -0.000000
vn -1.000000 0.000000 -0.000000
vn -1.000000 0.000000 -0.000000
vn -1.000000 0.000000 -0.000002
vn -1.000000 0.000000 -0.000002
vn -1.000000 0.000000 -0.000002
vn -1.000000 0.000000 0.000000
vn -1.000000 0.000000 0.000000
vn -1.000000 0.000000 0.000000
vn 0.724140 0.689653 0.000000
vn 0.724140 0.689653 0.000000
vn 0.724140 0.689653 0.000000
vn 0.724138 0.689655 0.000000
vn 0.724138 0.689655 0.000000
vn 0.724138 0.689655 0.000000
vn 1.000000 -0.000000 0.000000
vn 1.000000 -0.000000 0.000000
vn 1.000000 -0.000000 0.000000
vn 1.000000 -0.000000 0.000000
vn 1.000000 -0.000000 0.000000
vn 1.000000 -0.000000 0.000000
vn -0.000000 0.000000 -1.000000
vn -0.000000 0.000000 -1.000000
vn -0.000000 0.000000 -1.000000
vn -0.000000 0.000000 -1.000000
vn -0.000000 0.000000 -1.000000
vn -0.000000 0.000000 -1.000000
vn -0.000000 0.000000 -1.000000
vn -0.000000 0.000000 -1.000000
vn -0.000000 0.000000 -1.000000
vn -0.000000 0.000000 -1.000000
vn -0.000000 0.000000 -1.000000
vn -0.000000 0.000000 -1.000000
vn -0.000000 -0.000000 1.000000
vn -0.000000 -0.000000 1.000000
vn -0.000000 -0.000000 1.000000
vn -0.000000 0.000000 1.000000
vn -0.000000 0.000000 1.000000
vn -0.000000 0.000000 1.000000
vn -0.000000 0.000000 1.000000
vn -0.000000 0.000000 1.000000
vn -0.000000 0.000000 1.000000
vn -0.000000 0.000000 1.000000
vn -0.000000 0.000000 1.000000
vn -0.000000 0.000000 1.000000
vn -0.000000 0.000000 1.000000
vn -0.000000 0.000000 1.000000
vn -0.000000 0.000000 1.000000
vn -0.000000 0.000000 1.000000
vn -0.000000 0.000000 1.000000
vn -0.000000 0.000000 1.000000
vn -0.000000 0.000000 -1.000000
vn -0.000000 0.000000 -1.000000
vn -0.000000 0.000000 -1.000000
vn -0.000000 0.000000 -1.000000
vn -0.000000 0.000000 -1.000000
vn -0.000000 0.000000 -1.000000
vn 0.422883 -0.906184 0.000000
vn 0.422883 -0.906184 0.000000
vn 0.422883 -0.906184 0.000000
vn 0.422884 -0.906184 0.000000
vn 0.422884 -0.906184 0.000000
vn 0.422884 -0.906184 0.000000
vn 0.000000 1.000000 0.000000
vn 0.000000 1.000000 0.000000
vn 0.000000 1.000000 0.000000
vn 0.000000 1.000000 0.000000
vn 0.000000 1.000000 0.000000
vn 0.000000 1.000000 0.000000
vn 0.000000 0.993263 -0.115880
vn 0.000000 0.993263 -0.115880
vn 0.000000 0.993263 -0.115880
vn 0.000000 0.993263 -0.115882
vn 0.000000 0.993263 -0.115882
vn 0.000000 0.993263 -0.115882
vn -0.000000 -0.993263 0.115880
vn -0.000000 -0.993263 0.115880
vn -0.000000 -0.993263 0.115880
vn -0.000000 -0.993263 0.115880
vn -0.000000 -0.993263 0.115880
vn -0.000000 -0.993263 0.115880
vn -0.085578 0.996332 -0.000000
vn -0.085578 0.996332 -0.000000
vn -0.085578 0.996332 -0.000000
vn -0.085577 0.996332 -0.000000
vn -0.085577 0.996332 -0.000000
vn -0.085577 0.996332 -0.000000
vn -0.000000 -0.993263 -0.115880
vn -0.000000 -0.993263 -0.115880
vn -0.000000 -0.993263 -0.115880
vn -0.000000 -0.993263 -0.115880
vn -0.000000 -0.993263 -0.115880
vn -0.000000 -0.993263 -0.115880
vn 0.000000 0.993263 0.115882
vn 0.000000 0.993263 0.115882
vn 0.000000 0.993263 0.115882
vn 0.000000 0.993263 0.115880
vn 0.000000 0.993263 0.115880
vn 0.000000 0.993263 0.115880
vn 0.417319 0.906184 -0.068381
vn 0.417319 0.906184 -0.068381
vn 0.417319 0.906184 -0.068381
vn 0.417318 0.906184 -0.068381
vn 0.417318 0.906184 -0.068381
vn 0.417318 0.906184 -0.068381
vn 0.714609 -0.689654 -0.117094
vn 0.714609 -0.689654 -0.117094
vn 0.714609 -0.689654 -0.117094
vn 0.714609 -0.689655 -0.117094
vn 0.714609 -0.689655 -0.117094
vn 0.714609 -0.689655 -0.117094
vn -0.000000 -1.000000 0.000000
vn -0.000000 -1.000000 0.000000
vn -0.000000 -1.000000 0.000000
vn -0.000000 -1.000000 0.000000
vn -0.000000 -1.000000 0.000000
vn -0.000000 -1.000000 0.000000
vn -0.986840 0.000001 0.161702
vn -0.986840 0.000001 0.161702
vn -0.986840 0.000001 0.161702
vn -0.986840 0.000001 0.161702
vn -0.986840 0.000001 0.161702
vn -0.986840 0.000001 0.161702
vn -0.161702 0.000001 -0.986840
vn -0.161702 0.000001 -0.986840
vn -0.161702 0.000001 -0.986840
vn -0.161702 0.000000 -0.986840
vn -0.161702 0.000000 -0.986840
vn -0.161702 0.000000 -0.986840
vn 0.161702 -0.000001 0.986840
vn 0.161702 -0.000001 0.986840
vn 0.161702 -0.000001 0.986840
vn 0.161701 0.000000 0.986840
vn 0.161701 0.000000 0.986840
vn 0.161701 0.000000 0.986840
vn 0.161702 -0.000001 0.986840
vn 0.161702 -0.000001 0.986840
vn 0.161702 -0.000001 0.986840
vn 0.161702 0.000002 0.986840
vn 0.161702 0.000002 0.986840
vn 0.161702 0.000002 0.986840
vn -0.084453 -0.996331 0.013838
vn -0.084453 -0.996331 0.013838
vn -0.084453 -0.996331 0.013838
vn -0.084450 -0.996332 0.013838
vn -0.084450 -0.996332 0.013838
vn -0.084450 -0.996332 0.013838
vn -0.161702 0.000001 -0.986840
vn -0.161702 0.000001 -0.986840
vn -0.161702 0.000001 -0.986840
vn -0.161701 0.000000 -0.986840
vn -0.161701 0.000000 -0.986840
vn -0.161701 0.000000 -0.986840
vn -0.986839 0.000000 0.161703
vn -0.986839 0.000000 0.161703
vn -0.986839 0.000000 0.161703
vn -0.986840 0.000000 0.161702
vn -0.986840 0.000000 0.161702
vn -0.986840 0.000000 0.161702
vn -0.986840 0.000001 0.161702
vn -0.986840 0.000001 0.161702
vn -0.986840 0.000001 0.161702
vn -0.986840 0.000001 0.161702
vn -0.986840 0.000001 0.161702
vn -0.986840 0.000001 0.161702
vn -0.986840 0.000000 0.161700
vn -0.986840 0.000000 0.161700
vn -0.986840 0.000000 0.161700
vn -0.986839 0.000000 0.161704
vn -0.986839 0.000000 0.161704
vn -0.986839 0.000000 0.161704
vn 0.714605 0.689658 -0.117095
vn 0.714605 0.689658 -0.117095
vn 0.714605 0.689658 -0.117095
vn 0.714613 0.689650 -0.117094
vn 0.714613 0.689650 -0.117094
vn 0.714613 0.689650 -0.117094
vn 0.986840 -0.000000 -0.161702
vn 0.986840 -0.000000 -0.161702
vn 0.986840 -0.000000 -0.161702
vn 0.986840 -0.000000 -0.161702
vn 0.986840 -0.000000 -0.161702
vn 0.986840 -0.000000 -0.161702
vn -0.161701 0.000000 -0.986840
vn -0.161701 0.000000 -0.986840
vn -0.161701 0.000000 -0.986840
vn -0.161701 0.000000 -0.986840
vn -0.161701 0.000000 -0.986840
vn -0.161701 0.000000 -0.986840
vn -0.161701 -0.000004 -0.986840
vn -0.161701 -0.000004 -0.986840
vn -0.161701 -0.000004 -0.986840
vn -0.161701 0.000002 -0.986840
vn -0.161701 0.000002 -0.986840
vn -0.161701 0.000002 -0.986840
vn 0.161701 -0.000000 0.986840
vn 0.161701 -0.000000 0.986840
vn 0.161701 -0.000000 0.986840
vn 0.161701 -0.000001 0.986840
vn 0.161701 -0.000001 0.986840
vn 0.161701 -0.000001 0.986840
vn 0.161702 -0.000002 0.986840
vn 0.161702 -0.000002 0.986840
vn 0.161702 -0.000002 0.986840
vn 0.161701 -0.000004 0.986840
vn 0.161701 -0.000004 0.986840
vn 0.161701 -0.000004 0.986840
vn 0.161703 0.000005 0.986839
vn 0.161703 0.000005 0.986839
vn 0.161703 0.000005 0.986839
vn 0.161701 0.000000 0.986840
vn 0.161701 0.000000 0.986840
vn 0.161701 0.000000 0.986840
vn -0.161700 0.000011 -0.986840
vn -0.161700 0.000011 -0.986840
vn -0.161700 0.000011 -0.986840
vn -0.161701 0.000000 -0.986840
vn -0.161701 0.000000 -0.986840
vn -0.161701 0.000000 -0.986840
vn 0.417317 -0.906184 -0.068381
vn 0.417317 -0.906184 -0.068381
vn 0.417317 -0.906184 -0.068381
vn 0.417320 -0.906183 -0.068381
vn 0.417320 -0.906183 -0.068381
vn 0.417320 -0.906183 -0.068381
vn 0.000000 1.000000 -0.000000
vn 0.000000 1.000000 -0.000000
vn 0.000000 1.000000 -0.000000
vn 0.000000 1.000000 -0.000000
vn 0.000000 1.000000 -0.000000
vn 0.000000 1.000000 -0.000000
vn -0.021227 0.991346 -0.129544
vn -0.021227 0.991346 -0.129544
vn -0.021227 0.991346 -0.129544
vn -0.021227 0.991346 -0.129549
vn -0.021227 0.991346 -0.129549
vn -0.021227 0.991346 -0.129549
vn 0.021227 -0.991346 0.129546
vn 0.021227 -0.991346 0.129546
vn 0.021227 -0.991346 0.129546
vn 0.021227 -0.991346 0.129546
vn 0.021227 -0.991346 0.129546
vn 0.021227 -0.991346 0.129546
vn -0.084451 0.996332 0.013838
vn -0.084451 0.996332 0.013838
vn -0.084451 0.996332 0.013838
vn -0.084452 0.996331 0.013838
vn -0.084452 0.996331 0.013838
vn -0.084452 0.996331 0.013838
vn -0.021226 -0.991347 -0.129542
vn -0.021226 -0.991347 -0.129542
vn -0.021226 -0.991347 -0.129542
vn -0.021227 -0.991347 -0.129542
vn -0.021227 -0.991347 -0.129542
vn -0.021227 -0.991347 -0.129542
vn 0.021228 0.991346 0.129548
vn 0.021228 0.991346 0.129548
vn 0.021228 0.991346 0.129548
vn 0.021228 0.991347 0.129543
vn 0.021228 0.991347 0.129543
vn 0.021228 0.991347 0.129543
vn 0.219574 0.975596 0.000000
vn 0.219574 0.975596 0.000000
vn 0.219574 0.975596 0.000000
vn 0.219570 0.975597 0.000000
vn 0.219570 0.975597 0.000000
vn 0.219570 0.975597 0.000000
vn 0.451772 -0.892134 0.000000
vn 0.451772 -0.892134 0.000000
vn 0.451772 -0.892134 0.000000
vn 0.451776 -0.892131 0.000000
vn 0.451776 -0.892131 0.000000
vn 0.451776 -0.892131 0.000000
vn -0.000000 -1.000000 -0.000000
vn -0.000000 -1.000000 -0.000000
vn -0.000000 -1.000000 -0.000000
vn -0.000000 -1.000000 -0.000000
vn -0.000000 -1.000000 -0.000000
vn -0.000000 -1.000000 -0.000000
vn -1.000000 0.000000 -0.000000
vn -1.000000 0.000000 -0.000000
vn -1.000000 0.000000 -0.000000
vn -1.000000 0.000000 -0.000000
vn -1.000000 0.000000 -0.000000
vn -1.000000 0.000000 -0.000000
vn 0.000000 0.000000 -1.000000
vn 0.000000 0.000000 -1.000000
vn 0.000000 0.000000 -1.000000
vn 0.000000 0.000000 -1.000000
vn 0.000000 0.000000 -1.000000
vn 0.000000 0.000000 -1.000000
vn -0.000000 0.000003 1.000000
vn -0.000000 0.000003 1.000000
vn -0.000000 0.000003 1.000000
vn -0.000000 0.000000 1.000000
vn -0.000000 0.000000 1.000000
vn -0.000000 0.000000 1.000000
vn -0.000000 0.000000 1.000000
vn -0.000000 0.000000 1.000000
vn -0.000000 0.000000 1.000000
vn -0.000000 0.000000 1.000000
vn -0.000000 0.000000 1.000000
vn -0.000000 0.000000 1.000000
vn -0.041388 -0.999143 -0.000000
vn -0.041388 -0.999143 -0.000000
vn -0.041388 -0.999143 -0.000000
vn -0.041389 -0.999143 -0.000000
vn -0.041389 -0.999143 -0.000000
vn -0.041389 -0.999143 -0.000000
vn 0.000000 0.000003 -1.000000
vn 0.000000 0.000003 -1.000000
vn 0.000000 0.000003 -1.000000
vn 0.000000 0.000000 -1.000000
vn 0.000000 0.000000 -1.000000
vn 0.000000 0.000000 -1.000000
vn -1.000000 0.000000 -0.000002
vn -1.000000 0.000000 -0.000002
vn -1.000000 0.000000 -0.000002
vn -1.000000 0.000001 0.000000
vn -1.000000 0.000001 0.000000
vn -1.000000 0.000001 0.000000
vn -1.000000 0.000000 -0.000000
vn -1.000000 0.000000 -0.000000
vn -1.000000 0.000000 -0.000000
vn -1.000000 0.000000 -0.000000
vn -1.000000 0.000000 -0.000000
vn -1.000000 0.000000 -0.000000
vn -1.000000 0.000000 0.000000
vn -1.000000 0.000000 0.000000
vn -1.000000 0.000000 0.000000
vn -1.000000 0.000001 0.000000
vn -1.000000 0.000001 0.000000
vn -1.000000 0.000001 0.000000
vn 0.451776 0.892131 0.000000
vn 0.451776 0.892131 0.000000
vn 0.451776 0.892131 0.000000
vn 0.451776 0.892131 0.000000
vn 0.451776 0.892131 0.000000
vn 0.451776 0.892131 0.000000
vn 1.000000 -0.000000 0.000000
vn 1.000000 -0.000000 0.000000
vn 1.000000 -0.000000 0.000000
vn 1.000000 -0.000000 0.000000
vn 1.000000 -0.000000 0.000000
vn 1.000000 -0.000000 0.000000
vn -0.000000 0.000001 -1.000000
vn -0.000000 0.000001 -1.000000
vn -0.000000 0.000001 -1.000000
vn -0.000000 -0.000001 -1.000000
vn -0.000000 -0.000001 -1.000000
vn -0.000000 -0.000001 -1.000000
vn -0.000000 0.000005 -1.000000
vn -0.000000 0.000005 -1.000000
vn -0.000000 0.000005 -1.000000
vn -0.000000 -0.000005 -1.000000
vn -0.000000 -0.000005 -1.000000
vn -0.000000 -0.000005 -1.000000
vn -0.000000 0.000001 1.000000
vn -0.000000 0.000001 1.000000
vn -0.000000 0.000001 1.000000
vn -0.000000 -0.000001 1.000000
vn -0.000000 -0.000001 1.000000
vn -0.000000 -0.000001 1.000000
vn -0.000000 0.000005 1.000000
vn -0.000000 0.000005 1.000000
vn -0.000000 0.000005 1.000000
vn -0.000000 0.000000 1.000000
vn -0.000000 0.000000 1.000000
vn -0.000000 0.000000 1.000000
vn -0.000000 0.000000 1.000000
vn -0.000000 0.000000 1.000000
vn -0.000000 0.000000 1.000000
vn -0.000000 -0.000005 1.000000
vn -0.000000 -0.000005 1.000000
vn -0.000000 -0.000005 1.000000
vn -0.000000 -0.000014 -1.000000
vn -0.000000 -0.000014 -1.000000
vn -0.000000 -0.000014 -1.000000
vn -0.000000 0.000000 -1.000000
vn -0.000000 0.000000 -1.000000
vn -0.000000 0.000000 -1.000000
vn 0.219574 -0.975596 0.000000
vn 0.219574 -0.975596 0.000000
vn 0.219574 -0.975596 0.000000
vn 0.219570 -0.975597 0.000000
vn 0.219570 -0.975597 0.000000
vn 0.219570 -0.975597 0.000000
vn 0.000000 1.000000 0.000000
vn 0.000000 1.000000 0.000000
vn 0.000000 1.000000 0.000000
vn 0.000000 1.000000 0.000000
vn 0.000000 1.000000 0.000000
vn 0.000000 1.000000 0.000000
vn 0.000000 0.998421 -0.056176
vn 0.000000 0.998421 -0.056176
vn 0.000000 0.998421 -0.056176
vn -0.000000 0.998421 -0.056178
vn -0.000000 0.998421 -0.056178
vn -0.000000 0.998421 -0.056178
vn -0.000000 -0.998421 0.056178
vn -0.000000 -0.998421 0.056178
vn -0.000000 -0.998421 0.056178
vn -0.000000 -0.998421 0.056178
vn -0.000000 -0.998421 0.056178
vn -0.000000 -0.998421 0.056178
vn -0.041388 0.999143 -0.000000
vn -0.041388 0.999143 -0.000000
vn -0.041388 0.999143 -0.000000
vn -0.041389 0.999143 -0.000000
vn -0.041389 0.999143 -0.000000
vn -0.041389 0.999143 -0.000000
vn -0.000000 -0.998421 -0.056178
vn -0.000000 -0.998421 -0.056178
vn -0.000000 -0.998421 -0.056178
vn -0.000000 -0.998421 -0.056178
vn -0.000000 -0.998421 -0.056178
vn -0.000000 -0.998421 -0.056178
vn 0.000000 0.998421 0.056178
vn 0.000000 0.998421 0.056178
vn 0.000000 0.998421 0.056178
vn 0.000000 0.998421 0.056176
vn 0.000000 0.998421 0.056176
vn 0.000000 0.998421 0.056176
vn -0.000000 0.971863 -0.235547
vn -0.000000 0.971863 -0.235547
vn -0.000000 0.971863 -0.235547
vn -0.000000 0.971863 -0.235547
vn -0.000000 0.971863 -0.235547
vn -0.000000 0.971863 -0.235547
vn -0.000000 0.838058 -0.545580
vn -0.000000 0.838058 -0.545580
vn -0.000000 0.838058 -0.545580
vn -0.000000 0.838058 -0.545581
vn -0.000000 0.838058 -0.545581
vn -0.000000 0.838058 -0.545581

g Material.011
f 3/1/1 1/2/2 2/3/3
f 4/4/4 1/5/5 3/6/6
f 7/7/7 5/8/8 6/9/9
f 8/10/10 5/11/11 7/12/12
f 11/13/13 9/14/14 10/15/15
f 12/16/16 9/17/17 11/18/18
f 15/19/19 13/20/20 14/21/21
f 16/22/22 13/23/23 15/24/24
f 19/25/25 17/26/26 18/27/27
f 20/28/28 17/29/29 19/30/30
f 23/31/31 21/32/32 22/33/33
f 24/34/34 21/35/35 23/36/36
f 27/37/37 25/38/38 26/39/39
f 28/40/40 25/41/41 27/42/42
f 31/43/43 29/44/44 30/45/45
f 32/46/46 29/47/47 31/48/48
f 35/49/49 33/50/50 34/51/51
f 36/52/52 33/53/53 35/54/54
f 39/55/55 37/56/56 38/57/57
f 40/58/58 37/59/59 39/60/60
f 43/61/61 41/62/62 42/63/63
f 44/64/64 41/65/65 43/66/66
f 47/67/67 45/68/68 46/69/69
f 48/70/70 45/71/71 47/72/72
f 51/73/73 49/74/74 50/75/75
f 52/76/76 49/77/77 51/78/78
f 55/79/79 53/80/80 54/81/81
f 56/82/82 53/83/83 55/84/84
f 59/85/85 57/86/86 58/87/87
f 60/88/88 57/89/89 59/90/90
f 63/91/91 61/92/92 62/93/93
f 64/94/94 61/95/95 63/96/96
f 67/97/97 65/98/98 66/99/99
f 68/100/100 65/101/101 67/102/102
f 71/103/103 69/104/104 70/105/105
f 72/106/106 69/107/107 71/108/108
f 75/109/109 73/110/110 74/111/111
f 76/112/112 73/113/113 75/114/114
f 79/115/115 77/116/116 78/117/117
f 80/118/118 77/119/119 79/120/120
f 83/121/121 81/122/122 82/123/123
f 84/124/124 81/125/125 83/126/126
f 87/127/127 85/128/128 86/129/129
f 88/130/130 85/131/131 87/132/132
f 103/133/133 101/134/134 102/135/135
f 104/136/136 101/137/137 103/138/138
f 107/139/139 105/140/140 106/141/141
f 108/142/142 105/143/143 107/144/144
f 111/145/145 109/146/146 110/147/147
f 112/148/148 109/149/149 111/150/150
f 115/151/151 113/152/152 114/153/153
f 116/154/154 113/155/155 115/156/156
f 119/157/157 117/158/158 118/159/159
f 120/160/160 117/161/161 119/162/162

g Material.013
f 91/163/163 89/164/164 90/165/165
f 92/166/166 89/167/167 91/168/168
f 95/169/169 93/170/170 94/171/171
f 96/172/172 93/173/173 95/174/174
f 99/175/175 97/176/176 98/177/177
f 100/178/178 97/179/179 99/180/180
f 211/181/181 209/182/182 210/183/183
f 212/184/184 209/185/185 211/186/186
f 215/187/187 213/188/188 214/189/189
f 216/190/190 213/191/191 215/192/192
f 219/193/193 217/194/194 218/195/195
f 220/196/196 217/197/197 219/198/198
f 331/199/199 329/200/200 330/201/201
f 332/202/202 329/203/203 331/204/204
f 335/205/205 333/206/206 334/207/207
f 336/208/208 333/209/209 335/210/210
f 339/211/211 337/212/212 338/213/213
f 340/214/214 337/215/215 339/216/216
f 451/217/217 449/218/218 450/219/219
f 452/220/220 449/221/221 451/222/222
f 455/223/223 453/224/224 454/225/225
f 456/226/226 453/227/227 455/228/228
f 459/229/229 457/230/230 458/231/231
f 460/232/232 457/233/233 459/234/234

g Material.007
f 123/235/235 121/236/236 122/237/237
f 124/238/238 121/239/239 123/240/240
f 127/241/241 125/242/242 126/243/243
f 128/244/244 125/245/245 127/246/246
f 131/247/247 129/248/248 130/249/249
f 132/250/250 129/251/251 131/252/252
f 135/253/253 133/254/254 134/255/255
f 136/256/256 133/257/257 135/258/258
f 139/259/259 137/260/260 138/261/261
f 140/262/262 137/263/263 139/264/264
f 143/265/265 141/266/266 142/267/267
f 144/268/268 141/269/269 143/270/270
f 147/271/271 145/272/272 146/273/273
f 148/274/274 145/275/275 147/276/276
f 151/277/277 149/278/278 150/279/279
f 152/280/280 149/281/281 151/282/282
f 155/283/283 153/284/284 154/285/285
f 156/286/286 153/287/287 155/288/288
f 159/289/289 157/290/290 158/291/291
f 160/292/292 157/293/293 159/294/294
f 163/295/295 161/296/296 162/297/297
f 164/298/298 161/299/299 163/300/300
f 167/301/301 165/302/302 166/303/303
f 168/304/304 165/305/305 167/306/306
f 171/307/307 169/308/308 170/309/309
f 172/310/310 169/311/311 171/312/312
f 175/313/313 173/314/314 174/315/315
f 176/316/316 173/317/317 175/318/318
f 179/319/319 177/320/320 178/321/321
f 180/322/322 177/323/323 179/324/324
f 183/325/325 181/326/326 182/327/327
f 184/328/328 181/329/329 183/330/330
f 187/331/331 185/332/332 186/333/333
f 188/334/334 185/335/335 187/336/336
f 191/337/337 189/338/338 190/339/339
f 192/340/340 189/341/341 191/342/342
f 195/343/343 193/344/344 194/345/345
f 196/346/346 193/347/347 195/348/348
f 199/349/349 197/350/350 198/351/351
f 200/352/352 197/353/353 199/354/354
f 203/355/355 201/356/356 202/357/357
f 204/358/358 201/359/359 203/360/360
f 207/361/361 205/362/362 206/363/363
f 208/364/364 205/365/365 207/366/366
f 223/367/367 221/368/368 222/369/369
f 224/370/370 221/371/371 223/372/372
f 227/373/373 225/374/374 226/375/375
f 228/376/376 225/377/377 227/378/378
f 231/379/379 229/380/380 230/381/381
f 232/382/382 229/383/383 231/384/384
f 235/385/385 233/386/386 234/387/387
f 236/388/388 233/389/389 235/390/390
f 239/391/391 237/392/392 238/393/393
f 240/394/394 237/395/395 239/396/396

g Material.008
f 243/397/397 241/398/398 242/399/399
f 244/400/400 241/401/401 243/402/402
f 247/403/403 245/404/404 246/405/405
f 248/406/406 245/407/407 247/408/408
f 251/409/409 249/410/410 250/411/411
f 252/412/412 249/413/413 251/414/414
f 255/415/415 253/416/416 254/417/417
f 256/418/418 253/419/419 255/420/420
f 259/421/421 257/422/422 258/423/423
f 260/424/424 257/425/425 259/426/426
f 263/427/427 261/428/428 262/429/429
f 264/430/430 261/431/431 263/432/432
f 267/433/433 265/434/434 266/435/435
f 268/436/436 265/437/437 267/438/438
f 271/439/439 269/440/440 270/441/441
f 272/442/442 269/443/443 271/444/444
f 275/445/445 273/446/446 274/447/447
f 276/448/448 273/449/449 275/450/450
f 279/451/451 277/452/452 278/453/453
f 280/454/454 277/455/455 279/456/456
f 283/457/457 281/458/458 282/459/459
f 284/460/460 281/461/461 283/462/462
f 287/463/463 285/464/464 286/465/465
f 288/466/466 285/467/467 287/468/468
f 291/469/469 289/470/470 290/471/471
f 292/472/472 289/473/473 291/474/474
f 295/475/475 293/476/476 294/477/477
f 296/478/478 293/479/479 295/480/480
f 299/481/481 297/482/482 298/483/483
f 300/484/484 297/485/485 299/486/486
f 303/487/487 301/488/488 302/489/489
f 304/490/490 301/491/491 303/492/492
f 307/493/493 305/494/494 306/495/495
f 308/496/496 305/497/497 307/498/498
f 311/499/499 309/500/500 310/501/501
f 312/502/502 309/503/503 311/504/504
f 315/505/505 313/506/506 314/507/507
f 316/508/508 313/509/509 315/510/510
f 319/511/511 317/512/512 318/513/513
f 320/514/514 317/515/515 319/516/516
f 323/517/517 321/518/518 322/519/519
f 324/520/520 321/521/521 323/522/522
f 327/523/523 325/524/524 326/525/525
f 328/526/526 325/527/527 327/528/528
f 343/529/529 341/530/530 342/531/531
f 344/532/532 341/533/533 343/534/534
f 347/535/535 345/536/536 346/537/537
f 348/538/538 345/539/539 347/540/540
f 351/541/541 349/542/542 350/543/543
f 352/544/544 349/545/545 351/546/546
f 355/547/547 353/548/548 354/549/549
f 356/550/550 353/551/551 355/552/552
f 359/553/553 357/554/554 358/555/555
f 360/556/556 357/557/557 359/558/558

g Material.009
f 363/559/559 361/560/560 362/561/561
f 364/562/562 361/563/563 363/564/564
f 367/565/565 365/566/566 366/567/567
f 368/568/568 365/569/569 367/570/570
f 371/571/571 369/572/572 370/573/573
f 372/574/574 369/575/575 371/576/576
f 375/577/577 373/578/578 374/579/579
f 376/580/580 373/581/581 375/582/582
f 379/583/583 377/584/584 378/585/585
f 380/586/586 377/587/587 379/588/588
f 383/589/589 381/590/590 382/591/591
f 384/592/592 381/593/593 383/594/594
f 387/595/595 385/596/596 386/597/597
f 388/598/598 385/599/599 387/600/600
f 391/601/601 389/602/602 390/603/603
f 392/604/604 389/605/605 391/606/606
f 395/607/607 393/608/608 394/609/609
f 396/610/610 393/611/611 395/612/612
f 399/613/613 397/614/614 398/615/615
f 400/616/616 397/617/617 399/618/618
f 403/619/619 401/620/620 402/621/621
f 404/622/622 401/623/623 403/624/624
f 407/625/625 405/626/626 406/627/627
f 408/628/628 405/629/629 407/630/630
f 411/631/631 409/632/632 410/633/633
f 412/634/634 409/635/635 411/636/636
f 415/637/637 413/638/638 414/639/639
f 416/640/640 413/641/641 415/642/642
f 419/643/643 417/644/644 418/645/645
f 420/646/646 417/647/647 419/648/648
f 423/649/649 421/650/650 422/651/651
f 424/652/652 421/653/653 423/654/654
f 427/655/655 425/656/656 426/657/657
f 428/658/658 425/659/659 427/660/660
f 431/661/661 429/662/662 430/663/663
f 432/664/664 429/665/665 431/666/666
f 435/667/667 433/668/668 434/669/669
f 436/670/670 433/671/671 435/672/672
f 439/673/673 437/674/674 438/675/675
f 440/676/676 437/677/677 439/678/678
f 443/679/679 441/680/680 442/681/681
f 444/682/682 441/683/683 443/684/684
f 447/685/685 445/686/686 446/687/687
f 448/688/688 445/689/689 447/690/690
f 463/691/691 461/692/692 462/693/693
f 464/694/694 461/695/695 463/696/696
f 467/697/697 465/698/698 466/699/699
f 468/700/700 465/701/701 467/702/702
f 471/703/703 469/704/704 470/705/705
f 472/706/706 469/707/707 471/708/708
f 475/709/709 473/710/710 474/711/711
f 476/712/712 473/713/713 475/714/714
f 479/715/715 477/716/716 478/717/717
f 480/718/718 477/719/719 479/720/720
f 483/721/721 481/722/722 482/723/723
f 484/724/724 481/725/725 483/726/726
f 487/727/727 485/728/728 486/729/729
f 488/730/730 485/731/731 487/732/732

