# Converted from B3D for Luanti (With Correct Normals)
# Object Name: multidecor_curtain

v -0.750000 1.000000 -0.088889
v -0.750000 -1.000000 -0.088889
v -1.000000 -1.000000 -0.088889
v -1.000000 1.000000 -0.088889
v 1.000000 1.000000 -0.088889
v 1.000000 -1.000000 -0.088889
v 0.750000 -1.000000 0.111111
v 0.750000 1.000000 0.111111
v 0.750000 1.000000 0.111111
v 0.750000 -1.000000 0.111111
v 0.500000 -1.000000 0.111111
v 0.500000 1.000000 0.111111
v 0.500000 1.000000 0.111111
v 0.500000 -1.000000 0.111111
v 0.250000 -1.000000 -0.088889
v 0.250000 1.000000 -0.088889
v 0.250000 1.000000 -0.088889
v 0.250000 -1.000000 -0.088889
v -0.000000 -1.000000 -0.088889
v 0.000000 1.000000 -0.088889
v 0.000000 1.000000 -0.088889
v -0.000000 -1.000000 -0.088889
v -0.250000 -1.000000 0.111111
v -0.250000 1.000000 0.111111
v -0.250000 1.000000 0.111111
v -0.250000 -1.000000 0.111111
v -0.500000 -1.000000 0.111111
v -0.500000 1.000000 0.111111
v -0.500000 1.000000 0.111111
v -0.500000 -1.000000 0.111111
v -0.750000 -1.000000 -0.088889
v -0.750000 1.000000 -0.088889

vt 1.000000 1.000000
vt 0.000000 0.875000
vt 1.000000 0.875000
vt 0.000000 1.000000
vt 0.000000 0.875000
vt 1.000000 1.000000
vt 1.000000 0.125000
vt 0.000000 0.000000
vt 1.000000 0.000000
vt 0.000000 0.125000
vt 0.000000 0.000000
vt 1.000000 0.125000
vt 1.000000 0.250000
vt 0.000000 0.125000
vt 1.000000 0.125000
vt 0.000000 0.250000
vt 0.000000 0.125000
vt 1.000000 0.250000
vt 1.000000 0.375000
vt 0.000000 0.250000
vt 1.000000 0.250000
vt 0.000000 0.375000
vt 0.000000 0.250000
vt 1.000000 0.375000
vt 1.000000 0.500000
vt 0.000000 0.375000
vt 1.000000 0.375000
vt 0.000000 0.500000
vt 0.000000 0.375000
vt 1.000000 0.500000
vt 1.000000 0.625000
vt 0.000000 0.500000
vt 1.000000 0.500000
vt 0.000000 0.625000
vt 0.000000 0.500000
vt 1.000000 0.625000
vt 1.000000 0.750000
vt 0.000000 0.625000
vt 1.000000 0.625000
vt 0.000000 0.750000
vt 0.000000 0.625000
vt 1.000000 0.750000
vt 1.000000 0.875000
vt 0.000000 0.750000
vt 1.000000 0.750000
vt 0.000000 0.875000
vt 0.000000 0.750000
vt 1.000000 0.875000

vn -0.000000 -0.000000 -1.000000
vn -0.000000 -0.000000 -1.000000
vn -0.000000 -0.000000 -1.000000
vn -0.000000 0.000000 -1.000000
vn -0.000000 0.000000 -1.000000
vn -0.000000 0.000000 -1.000000
vn -0.624695 0.000000 -0.780869
vn -0.624695 0.000000 -0.780869
vn -0.624695 0.000000 -0.780869
vn -0.624695 0.000000 -0.780869
vn -0.624695 0.000000 -0.780869
vn -0.624695 0.000000 -0.780869
vn 0.000000 0.000000 -1.000000
vn 0.000000 0.000000 -1.000000
vn 0.000000 0.000000 -1.000000
vn -0.000000 0.000000 -1.000000
vn -0.000000 0.000000 -1.000000
vn -0.000000 0.000000 -1.000000
vn 0.624695 0.000000 -0.780869
vn 0.624695 0.000000 -0.780869
vn 0.624695 0.000000 -0.780869
vn 0.624695 -0.000000 -0.780869
vn 0.624695 -0.000000 -0.780869
vn 0.624695 -0.000000 -0.780869
vn 0.000000 0.000000 -1.000000
vn 0.000000 0.000000 -1.000000
vn 0.000000 0.000000 -1.000000
vn 0.000000 -0.000000 -1.000000
vn 0.000000 -0.000000 -1.000000
vn 0.000000 -0.000000 -1.000000
vn -0.624695 0.000000 -0.780869
vn -0.624695 0.000000 -0.780869
vn -0.624695 0.000000 -0.780869
vn -0.624695 0.000000 -0.780869
vn -0.624695 0.000000 -0.780869
vn -0.624695 0.000000 -0.780869
vn -0.000000 0.000000 -1.000000
vn -0.000000 0.000000 -1.000000
vn -0.000000 0.000000 -1.000000
vn -0.000000 0.000000 -1.000000
vn -0.000000 0.000000 -1.000000
vn -0.000000 0.000000 -1.000000
vn 0.624695 -0.000000 -0.780869
vn 0.624695 -0.000000 -0.780869
vn 0.624695 -0.000000 -0.780869
vn 0.624695 -0.000000 -0.780869
vn 0.624695 -0.000000 -0.780869
vn 0.624695 -0.000000 -0.780869

g Material_0
f 3/1/1 1/2/2 2/3/3
f 4/4/4 1/5/5 3/6/6
f 7/7/7 5/8/8 6/9/9
f 8/10/10 5/11/11 7/12/12
f 11/13/13 9/14/14 10/15/15
f 12/16/16 9/17/17 11/18/18
f 15/19/19 13/20/20 14/21/21
f 16/22/22 13/23/23 15/24/24
f 19/25/25 17/26/26 18/27/27
f 20/28/28 17/29/29 19/30/30
f 23/31/31 21/32/32 22/33/33
f 24/34/34 21/35/35 23/36/36
f 27/37/37 25/38/38 26/39/39
f 28/40/40 25/41/41 27/42/42
f 31/43/43 29/44/44 30/45/45
f 32/46/46 29/47/47 31/48/48

