# Converted from B3D for Luanti (With Correct Normals)
# Object Name: multidecor_double_wooden_bed_with_legs

v -1.000000 0.200000 0.800000
v 1.000000 0.200000 0.800000
v 1.000000 0.200000 -2.800000
v -1.000000 0.200000 -2.800000
v 1.000000 -0.200000 -2.800000
v 1.000000 0.200000 -2.800000
v 1.000000 0.200000 0.800000
v 1.000000 -0.200000 0.800000
v 1.000000 -0.200000 0.800000
v -1.000000 -0.200000 0.800000
v -1.000000 -0.200000 -2.800000
v 1.000000 -0.200000 -2.800000
v -1.000000 -0.800000 1.000000
v 0.800000 -0.800000 1.000000
v 0.800000 1.200000 1.000000
v -1.000000 1.200000 1.000000
v 0.800000 -0.800000 0.800000
v 0.800000 -0.800000 1.000000
v -1.000000 -0.800000 1.000000
v -1.000000 -0.800000 0.800000
v -1.000000 1.200000 0.800000
v -1.000000 1.200000 1.000000
v 0.800000 1.200000 1.000000
v 0.800000 1.200000 0.800000
v 1.100000 -0.800000 1.050000
v 1.100000 -0.800000 0.750000
v 1.100000 1.400000 0.750000
v 1.100000 1.400000 1.050000
v 1.100000 -0.800000 0.750000
v 0.800000 -0.800000 0.750000
v 0.800000 1.400000 0.750000
v 1.100000 1.400000 0.750000
v 0.800000 0.900000 -2.750001
v 1.100000 0.900000 -2.750001
v 1.100000 0.900000 -3.050001
v 0.800000 0.900000 -3.050001
v 1.100000 -0.800000 -2.750001
v 0.800000 -0.800000 -2.750001
v 0.800000 -0.800000 -3.050001
v 1.100000 -0.800000 -3.050001
v 0.800000 -0.800000 -3.050001
v 0.800000 0.900000 -3.050001
v 1.100000 0.900000 -3.050001
v 1.100000 -0.800000 -3.050001
v 0.800000 -0.800000 -2.750001
v 0.800000 0.900000 -2.750001
v 0.800000 0.900000 -3.050001
v 0.800000 -0.800000 -3.050001
v 0.800000 -0.800000 0.750000
v 0.800000 -0.800000 1.050000
v 0.800000 1.400000 1.050000
v 0.800000 1.400000 0.750000
v 1.100000 -0.800000 -2.750001
v 1.100000 0.900000 -2.750001
v 0.800000 0.900000 -2.750001
v 0.800000 -0.800000 -2.750001
v 0.800000 -0.800000 1.050000
v 1.100000 -0.800000 1.050000
v 1.100000 1.400000 1.050000
v 0.800000 1.400000 1.050000
v 1.100000 -0.800000 -3.050001
v 1.100000 0.900000 -3.050001
v 1.100000 0.900000 -2.750001
v 1.100000 -0.800000 -2.750001
v 1.100000 -0.800000 0.750000
v 1.100000 -0.800000 1.050000
v 0.800000 -0.800000 1.050000
v 0.800000 -0.800000 0.750000
v -1.000000 0.700000 -2.800000
v 0.800000 0.700000 -2.800000
v 0.800000 0.700000 -3.000000
v -1.000000 0.700000 -3.000000
v 0.800000 -0.800000 -2.800000
v -1.000000 -0.800000 -2.800000
v -1.000000 -0.800000 -3.000000
v 0.800000 -0.800000 -3.000000
v 0.800000 1.400000 0.750000
v 0.800000 1.400000 1.050000
v 1.100000 1.400000 1.050000
v 1.100000 1.400000 0.750000
v -1.000000 -0.800000 -3.000000
v -1.000000 0.700000 -3.000000
v 0.800000 0.700000 -3.000000
v 0.800000 -0.800000 -3.000000
v 0.800000 -0.800000 -2.800000
v 0.800000 0.700000 -2.800000
v -1.000000 0.700000 -2.800000
v -1.000000 -0.800000 -2.800000
v -1.000000 0.400000 0.800000
v 0.900000 0.400000 0.800000
v 0.900000 0.400000 -2.800000
v -1.000000 0.400000 -2.800000
v 0.950000 0.333333 0.800000
v 0.950000 0.333333 -2.800000
v 0.900000 0.400000 -2.800000
v 0.900000 0.400000 0.800000
v 0.900000 0.200000 0.800000
v 0.900000 0.200000 -2.800000
v 0.950000 0.266667 -2.800000
v 0.950000 0.266667 0.800000
v 0.950000 0.266667 0.800000
v 0.950000 0.266667 -2.800000
v 0.950000 0.333333 -2.800000
v 0.950000 0.333333 0.800000
v 0.800000 -0.800000 0.800000
v -1.000000 -0.800000 0.800000
v -1.000000 1.200000 0.800000
v 0.800000 1.200000 0.800000
v 1.043071 -0.900000 -2.993072
v 1.043071 -0.800000 -2.993072
v 1.043071 -0.800000 -2.806931
v 1.043071 -0.900000 -2.806931
v 1.043071 -0.900000 -2.806931
v 1.043071 -0.800000 -2.806931
v 0.856929 -0.800000 -2.806931
v 0.856929 -0.900000 -2.806931
v 0.856929 -0.900000 -2.806931
v 0.856929 -0.800000 -2.806931
v 0.856929 -0.800000 -2.993072
v 0.856929 -0.900000 -2.993072
v 0.856929 -0.900000 -2.993072
v 0.856929 -0.800000 -2.993072
v 1.043071 -0.800000 -2.993072
v 1.043071 -0.900000 -2.993072
v 1.006368 -1.000000 -2.843633
v 0.893632 -1.000000 -2.843633
v 0.893632 -1.000000 -2.956369
v 1.006368 -1.000000 -2.956369
v 0.893632 -1.000000 -2.956369
v 0.856929 -0.900000 -2.993072
v 1.043071 -0.900000 -2.993072
v 1.006368 -1.000000 -2.956369
v 0.893632 -1.000000 -2.843633
v 0.856929 -0.900000 -2.806931
v 0.856929 -0.900000 -2.993072
v 0.893632 -1.000000 -2.956369
v 1.006368 -1.000000 -2.843633
v 1.043071 -0.900000 -2.806931
v 0.856929 -0.900000 -2.806931
v 0.893632 -1.000000 -2.843633
v 1.006368 -1.000000 -2.956369
v 1.043071 -0.900000 -2.993072
v 1.043071 -0.900000 -2.806931
v 1.006368 -1.000000 -2.843633
v 1.043071 -0.900000 0.993071
v 1.043071 -0.900000 0.806929
v 1.043071 -0.800000 0.806929
v 1.043071 -0.800000 0.993071
v 1.043071 -0.900000 0.806929
v 0.856929 -0.900000 0.806929
v 0.856929 -0.800000 0.806929
v 1.043071 -0.800000 0.806929
v 0.856929 -0.900000 0.806929
v 0.856929 -0.900000 0.993071
v 0.856929 -0.800000 0.993071
v 0.856929 -0.800000 0.806929
v 0.856929 -0.900000 0.993071
v 1.043071 -0.900000 0.993071
v 1.043071 -0.800000 0.993071
v 0.856929 -0.800000 0.993071
v 1.006368 -1.000000 0.843632
v 1.006368 -1.000000 0.956368
v 0.893632 -1.000000 0.956368
v 0.893632 -1.000000 0.843632
v 0.893632 -1.000000 0.956368
v 1.006368 -1.000000 0.956368
v 1.043071 -0.900000 0.993071
v 0.856929 -0.900000 0.993071
v 0.893632 -1.000000 0.843632
v 0.893632 -1.000000 0.956368
v 0.856929 -0.900000 0.993071
v 0.856929 -0.900000 0.806929
v 1.006368 -1.000000 0.843632
v 0.893632 -1.000000 0.843632
v 0.856929 -0.900000 0.806929
v 1.043071 -0.900000 0.806929
v 1.006368 -1.000000 0.956368
v 1.006368 -1.000000 0.843632
v 1.043071 -0.900000 0.806929
v 1.043071 -0.900000 0.993071
v 0.384515 0.728943 -0.029846
v 0.671229 0.600000 0.066655
v 0.671229 0.600000 -0.232962
v 0.248296 0.536991 0.770251
v 0.744887 0.536991 0.770251
v 0.671229 0.600000 0.718071
v 0.248296 0.600000 0.718071
v -0.744887 0.536991 0.418453
v -0.744887 0.536991 0.770251
v -0.671229 0.600000 0.718071
v -0.671229 0.600000 0.418453
v 0.744887 0.536991 0.066655
v 0.744887 0.536991 -0.285143
v 0.671229 0.600000 -0.232962
v 0.671229 0.600000 0.066655
v -0.248296 0.536991 -0.285143
v -0.744887 0.536991 -0.285143
v -0.671229 0.600000 -0.232962
v -0.248296 0.600000 -0.232962
v 0.744887 0.536991 -0.285143
v 0.248296 0.536991 -0.285143
v 0.248296 0.600000 -0.232962
v 0.671229 0.600000 -0.232962
v 0.248296 0.536991 -0.285143
v -0.248296 0.536991 -0.285143
v -0.248296 0.600000 -0.232962
v 0.248296 0.600000 -0.232962
v 0.671229 0.400000 -0.232962
v 0.248296 0.400000 -0.232962
v 0.248296 0.463009 -0.285143
v 0.744887 0.463009 -0.285143
v 0.744887 0.463009 -0.285143
v 0.248296 0.463009 -0.285143
v 0.248296 0.536991 -0.285143
v 0.744887 0.536991 -0.285143
v 0.248296 0.400000 -0.232962
v -0.248296 0.400000 -0.232962
v -0.248296 0.463009 -0.285143
v 0.248296 0.463009 -0.285143
v 0.248296 0.463009 -0.285143
v -0.248296 0.463009 -0.285143
v -0.248296 0.536991 -0.285143
v 0.248296 0.536991 -0.285143
v -0.248296 0.400000 -0.232962
v -0.671229 0.400000 -0.232962
v -0.744887 0.463009 -0.285143
v -0.248296 0.463009 -0.285143
v -0.248296 0.463009 -0.285143
v -0.744887 0.463009 -0.285143
v -0.744887 0.536991 -0.285143
v -0.248296 0.536991 -0.285143
v 0.744887 0.536991 0.770251
v 0.744887 0.536991 0.418453
v 0.671229 0.600000 0.418453
v 0.671229 0.600000 0.718071
v 0.744887 0.536991 0.418453
v 0.744887 0.536991 0.066655
v 0.671229 0.600000 0.066655
v 0.671229 0.600000 0.418453
v 0.671229 0.400000 0.718071
v 0.671229 0.400000 0.418453
v 0.744887 0.463009 0.418453
v 0.744887 0.463009 0.770251
v 0.744887 0.463009 0.770251
v 0.744887 0.463009 0.418453
v 0.744887 0.536991 0.418453
v 0.744887 0.536991 0.770251
v 0.671229 0.400000 0.418453
v 0.671229 0.400000 0.066655
v 0.744887 0.463009 0.066655
v 0.744887 0.463009 0.418453
v 0.744887 0.463009 0.418453
v 0.744887 0.463009 0.066655
v 0.744887 0.536991 0.066655
v 0.744887 0.536991 0.418453
v 0.671229 0.400000 0.066655
v 0.671229 0.400000 -0.232962
v 0.744887 0.463009 -0.285143
v 0.744887 0.463009 0.066655
v 0.744887 0.463009 0.066655
v 0.744887 0.463009 -0.285143
v 0.744887 0.536991 -0.285143
v 0.744887 0.536991 0.066655
v -0.744887 0.536991 -0.285143
v -0.744887 0.536991 0.066655
v -0.671229 0.600000 0.066655
v -0.671229 0.600000 -0.232962
v -0.744887 0.536991 0.066655
v -0.744887 0.536991 0.418453
v -0.671229 0.600000 0.418453
v -0.671229 0.600000 0.066655
v -0.671229 0.400000 -0.232962
v -0.671229 0.400000 0.066655
v -0.744887 0.463009 0.066655
v -0.744887 0.463009 -0.285143
v -0.744887 0.463009 -0.285143
v -0.744887 0.463009 0.066655
v -0.744887 0.536991 0.066655
v -0.744887 0.536991 -0.285143
v -0.671229 0.400000 0.066655
v -0.671229 0.400000 0.418453
v -0.744887 0.463009 0.418453
v -0.744887 0.463009 0.066655
v -0.744887 0.463009 0.066655
v -0.744887 0.463009 0.418453
v -0.744887 0.536991 0.418453
v -0.744887 0.536991 0.066655
v -0.671229 0.400000 0.418453
v -0.671229 0.400000 0.718071
v -0.744887 0.463009 0.770251
v -0.744887 0.463009 0.418453
v -0.744887 0.463009 0.418453
v -0.744887 0.463009 0.770251
v -0.744887 0.536991 0.770251
v -0.744887 0.536991 0.418453
v -0.744887 0.536991 0.770251
v -0.248296 0.536991 0.770251
v -0.248296 0.600000 0.718071
v -0.671229 0.600000 0.718071
v -0.248296 0.536991 0.770251
v 0.248296 0.536991 0.770251
v 0.248296 0.600000 0.718071
v -0.248296 0.600000 0.718071
v -0.671229 0.400000 0.718071
v -0.223743 0.400000 0.718071
v -0.248296 0.463009 0.770251
v -0.744887 0.463009 0.770251
v -0.744887 0.463009 0.770251
v -0.248296 0.463009 0.770251
v -0.248296 0.536991 0.770251
v -0.744887 0.536991 0.770251
v -0.223743 0.400000 0.718071
v 0.223743 0.400000 0.718071
v 0.248296 0.463009 0.770251
v -0.248296 0.463009 0.770251
v -0.248296 0.463009 0.770251
v 0.248296 0.463009 0.770251
v 0.248296 0.536991 0.770251
v -0.248296 0.536991 0.770251
v 0.223743 0.400000 0.718071
v 0.671229 0.400000 0.718071
v 0.744887 0.463009 0.770251
v 0.248296 0.463009 0.770251
v 0.248296 0.463009 0.770251
v 0.744887 0.463009 0.770251
v 0.744887 0.536991 0.770251
v 0.248296 0.536991 0.770251
v -0.671229 0.600000 0.066655
v -0.384515 0.728943 -0.029846
v -0.671229 0.600000 -0.232962
v -0.384515 0.728943 -0.029846
v 0.384515 0.728943 -0.029846
v 0.248296 0.600000 -0.232962
v -0.248296 0.600000 -0.232962
v -0.671229 0.600000 0.718071
v -0.384515 0.728943 0.514955
v -0.671229 0.600000 0.418453
v -0.671229 0.600000 0.418453
v -0.384515 0.728943 0.514955
v -0.384515 0.728943 -0.029846
v -0.671229 0.600000 0.066655
v -0.248296 0.600000 0.718071
v 0.248296 0.600000 0.718071
v 0.384515 0.728943 0.514955
v -0.384515 0.728943 0.514955
v -0.384515 0.728943 0.514955
v 0.384515 0.728943 0.514955
v 0.384515 0.728943 -0.029846
v -0.384515 0.728943 -0.029846
v 0.248296 0.600000 0.718071
v 0.671229 0.600000 0.718071
v 0.384515 0.728943 0.514955
v 0.384515 0.728943 0.514955
v 0.671229 0.600000 0.418453
v 0.671229 0.600000 0.066655
v 0.384515 0.728943 -0.029846
v 0.671229 0.600000 -0.232962
v 0.248296 0.600000 -0.232962
v 0.384515 0.728943 -0.029846
v 0.384515 0.728943 0.514955
v 0.671229 0.600000 0.718071
v 0.671229 0.600000 0.418453
v -0.671229 0.600000 -0.232962
v -0.384515 0.728943 -0.029846
v -0.248296 0.600000 -0.232962
v -0.384515 0.728943 0.514955
v -0.671229 0.600000 0.718071
v -0.248296 0.600000 0.718071
v -1.000000 0.200000 0.800000
v -1.000000 0.200000 -2.800000
v -3.000000 0.200000 -2.800000
v -3.000000 0.200000 0.800000
v -3.000000 -0.200000 -2.800000
v -3.000000 -0.200000 0.800000
v -3.000000 0.200000 0.800000
v -3.000000 0.200000 -2.800000
v -3.000000 -0.200000 0.800000
v -3.000000 -0.200000 -2.800000
v -1.000000 -0.200000 -2.800000
v -1.000000 -0.200000 0.800000
v -1.000000 -0.800000 1.000000
v -1.000000 1.200000 1.000000
v -2.800000 1.200000 1.000000
v -2.800000 -0.800000 1.000000
v -2.800000 -0.800000 0.800000
v -1.000000 -0.800000 0.800000
v -1.000000 -0.800000 1.000000
v -2.800000 -0.800000 1.000000
v -1.000000 1.200000 0.800000
v -2.800000 1.200000 0.800000
v -2.800000 1.200000 1.000000
v -1.000000 1.200000 1.000000
v -3.100000 -0.800000 1.050000
v -3.100000 1.400000 1.050000
v -3.100000 1.400000 0.750000
v -3.100000 -0.800000 0.750000
v -3.100000 -0.800000 0.750000
v -3.100000 1.400000 0.750000
v -2.800000 1.400000 0.750000
v -2.800000 -0.800000 0.750000
v -2.800000 0.900000 -2.750001
v -2.800000 0.900000 -3.050001
v -3.100000 0.900000 -3.050001
v -3.100000 0.900000 -2.750001
v -3.100000 -0.800000 -2.750001
v -3.100000 -0.800000 -3.050001
v -2.800000 -0.800000 -3.050001
v -2.800000 -0.800000 -2.750001
v -2.800000 -0.800000 -3.050001
v -3.100000 -0.800000 -3.050001
v -3.100000 0.900000 -3.050001
v -2.800000 0.900000 -3.050001
v -2.800000 -0.800000 -2.750001
v -2.800000 -0.800000 -3.050001
v -2.800000 0.900000 -3.050001
v -2.800000 0.900000 -2.750001
v -2.800000 -0.800000 0.750000
v -2.800000 1.400000 0.750000
v -2.800000 1.400000 1.050000
v -2.800000 -0.800000 1.050000
v -3.100000 -0.800000 -2.750001
v -2.800000 -0.800000 -2.750001
v -2.800000 0.900000 -2.750001
v -3.100000 0.900000 -2.750001
v -2.800000 -0.800000 1.050000
v -2.800000 1.400000 1.050000
v -3.100000 1.400000 1.050000
v -3.100000 -0.800000 1.050000
v -3.100000 -0.800000 -3.050001
v -3.100000 -0.800000 -2.750001
v -3.100000 0.900000 -2.750001
v -3.100000 0.900000 -3.050001
v -3.100000 -0.800000 0.750000
v -2.800000 -0.800000 0.750000
v -2.800000 -0.800000 1.050000
v -3.100000 -0.800000 1.050000
v -1.000000 0.700000 -2.800000
v -1.000000 0.700000 -3.000000
v -2.800000 0.700000 -3.000000
v -2.800000 0.700000 -2.800000
v -2.800000 -0.800000 -2.800000
v -2.800000 -0.800000 -3.000000
v -1.000000 -0.800000 -3.000000
v -1.000000 -0.800000 -2.800000
v -2.800000 1.400000 0.750000
v -3.100000 1.400000 0.750000
v -3.100000 1.400000 1.050000
v -2.800000 1.400000 1.050000
v -1.000000 -0.800000 -3.000000
v -2.800000 -0.800000 -3.000000
v -2.800000 0.700000 -3.000000
v -1.000000 0.700000 -3.000000
v -2.800000 -0.800000 -2.800000
v -1.000000 -0.800000 -2.800000
v -1.000000 0.700000 -2.800000
v -2.800000 0.700000 -2.800000
v -1.000000 0.400000 0.800000
v -1.000000 0.400000 -2.800000
v -2.900000 0.400000 -2.800000
v -2.900000 0.400000 0.800000
v -2.950000 0.333333 0.800000
v -2.900000 0.400000 0.800000
v -2.900000 0.400000 -2.800000
v -2.950000 0.333333 -2.800000
v -2.900000 0.200000 0.800000
v -2.950000 0.266667 0.800000
v -2.950000 0.266667 -2.800000
v -2.900000 0.200000 -2.800000
v -2.950000 0.266667 0.800000
v -2.950000 0.333333 0.800000
v -2.950000 0.333333 -2.800000
v -2.950000 0.266667 -2.800000
v -2.800000 -0.800000 0.800000
v -2.800000 1.200000 0.800000
v -1.000000 1.200000 0.800000
v -1.000000 -0.800000 0.800000
v -3.043071 -0.900000 -2.993072
v -3.043071 -0.900000 -2.806931
v -3.043071 -0.800000 -2.806931
v -3.043071 -0.800000 -2.993072
v -3.043071 -0.900000 -2.806931
v -2.856929 -0.900000 -2.806931
v -2.856929 -0.800000 -2.806931
v -3.043071 -0.800000 -2.806931
v -2.856929 -0.900000 -2.806931
v -2.856929 -0.900000 -2.993072
v -2.856929 -0.800000 -2.993072
v -2.856929 -0.800000 -2.806931
v -2.856929 -0.900000 -2.993072
v -3.043071 -0.900000 -2.993072
v -3.043071 -0.800000 -2.993072
v -2.856929 -0.800000 -2.993072
v -3.006368 -1.000000 -2.843633
v -3.006368 -1.000000 -2.956369
v -2.893632 -1.000000 -2.956369
v -2.893632 -1.000000 -2.843633
v -2.893632 -1.000000 -2.956369
v -3.006368 -1.000000 -2.956369
v -3.043071 -0.900000 -2.993072
v -2.856929 -0.900000 -2.993072
v -2.893632 -1.000000 -2.843633
v -2.893632 -1.000000 -2.956369
v -2.856929 -0.900000 -2.993072
v -2.856929 -0.900000 -2.806931
v -3.006368 -1.000000 -2.843633
v -2.893632 -1.000000 -2.843633
v -2.856929 -0.900000 -2.806931
v -3.043071 -0.900000 -2.806931
v -3.006368 -1.000000 -2.956369
v -3.006368 -1.000000 -2.843633
v -3.043071 -0.900000 -2.806931
v -3.043071 -0.900000 -2.993072
v -3.043071 -0.900000 0.993071
v -3.043071 -0.800000 0.993071
v -3.043071 -0.800000 0.806929
v -3.043071 -0.900000 0.806929
v -3.043071 -0.900000 0.806929
v -3.043071 -0.800000 0.806929
v -2.856929 -0.800000 0.806929
v -2.856929 -0.900000 0.806929
v -2.856929 -0.900000 0.806929
v -2.856929 -0.800000 0.806929
v -2.856929 -0.800000 0.993071
v -2.856929 -0.900000 0.993071
v -2.856929 -0.900000 0.993071
v -2.856929 -0.800000 0.993071
v -3.043071 -0.800000 0.993071
v -3.043071 -0.900000 0.993071
v -3.006368 -1.000000 0.843632
v -2.893632 -1.000000 0.843632
v -2.893632 -1.000000 0.956368
v -3.006368 -1.000000 0.956368
v -2.893632 -1.000000 0.956368
v -2.856929 -0.900000 0.993071
v -3.043071 -0.900000 0.993071
v -3.006368 -1.000000 0.956368
v -2.893632 -1.000000 0.843632
v -2.856929 -0.900000 0.806929
v -2.856929 -0.900000 0.993071
v -2.893632 -1.000000 0.956368
v -3.006368 -1.000000 0.843632
v -3.043071 -0.900000 0.806929
v -2.856929 -0.900000 0.806929
v -2.893632 -1.000000 0.843632
v -3.006368 -1.000000 0.956368
v -3.043071 -0.900000 0.993071
v -3.043071 -0.900000 0.806929
v -3.006368 -1.000000 0.843632
v -2.384515 0.728943 -0.029846
v -2.671229 0.600000 -0.232962
v -2.671229 0.600000 0.066656
v -2.248296 0.536991 0.770251
v -2.248296 0.600000 0.718071
v -2.671229 0.600000 0.718071
v -2.744887 0.536991 0.770251
v -1.255113 0.536991 0.418453
v -1.328771 0.600000 0.418453
v -1.328771 0.600000 0.718071
v -1.255113 0.536991 0.770251
v -2.744887 0.536991 0.066656
v -2.671229 0.600000 0.066656
v -2.671229 0.600000 -0.232962
v -2.744887 0.536991 -0.285143
v -1.751704 0.536991 -0.285143
v -1.751704 0.600000 -0.232962
v -1.328771 0.600000 -0.232962
v -1.255113 0.536991 -0.285143
v -2.744887 0.536991 -0.285143
v -2.671229 0.600000 -0.232962
v -2.248296 0.600000 -0.232962
v -2.248296 0.536991 -0.285143
v -2.248296 0.536991 -0.285143
v -2.248296 0.600000 -0.232962
v -1.751704 0.600000 -0.232962
v -1.751704 0.536991 -0.285143
v -2.671229 0.400000 -0.232962
v -2.744887 0.463009 -0.285143
v -2.248296 0.463009 -0.285143
v -2.248296 0.400000 -0.232962
v -2.744887 0.463009 -0.285143
v -2.744887 0.536991 -0.285143
v -2.248296 0.536991 -0.285143
v -2.248296 0.463009 -0.285143
v -2.248296 0.400000 -0.232962
v -2.248296 0.463009 -0.285143
v -1.751704 0.463009 -0.285143
v -1.751704 0.400000 -0.232962
v -2.248296 0.463009 -0.285143
v -2.248296 0.536991 -0.285143
v -1.751704 0.536991 -0.285143
v -1.751704 0.463009 -0.285143
v -1.751704 0.400000 -0.232962
v -1.751704 0.463009 -0.285143
v -1.255113 0.463009 -0.285143
v -1.328771 0.400000 -0.232962
v -1.751704 0.463009 -0.285143
v -1.751704 0.536991 -0.285143
v -1.255113 0.536991 -0.285143
v -1.255113 0.463009 -0.285143
v -2.744887 0.536991 0.770251
v -2.671229 0.600000 0.718071
v -2.671229 0.600000 0.418453
v -2.744887 0.536991 0.418453
v -2.744887 0.536991 0.418453
v -2.671229 0.600000 0.418453
v -2.671229 0.600000 0.066656
v -2.744887 0.536991 0.066656
v -2.671229 0.400000 0.718071
v -2.744887 0.463009 0.770251
v -2.744887 0.463009 0.418453
v -2.671229 0.400000 0.418453
v -2.744887 0.463009 0.770251
v -2.744887 0.536991 0.770251
v -2.744887 0.536991 0.418453
v -2.744887 0.463009 0.418453
v -2.671229 0.400000 0.418453
v -2.744887 0.463009 0.418453
v -2.744887 0.463009 0.066656
v -2.671229 0.400000 0.066656
v -2.744887 0.463009 0.418453
v -2.744887 0.536991 0.418453
v -2.744887 0.536991 0.066656
v -2.744887 0.463009 0.066656
v -2.671229 0.400000 0.066656
v -2.744887 0.463009 0.066656
v -2.744887 0.463009 -0.285143
v -2.671229 0.400000 -0.232962
v -2.744887 0.463009 0.066656
v -2.744887 0.536991 0.066656
v -2.744887 0.536991 -0.285143
v -2.744887 0.463009 -0.285143
v -1.255113 0.536991 -0.285143
v -1.328771 0.600000 -0.232962
v -1.328771 0.600000 0.066656
v -1.255113 0.536991 0.066656
v -1.255113 0.536991 0.066656
v -1.328771 0.600000 0.066656
v -1.328771 0.600000 0.418453
v -1.255113 0.536991 0.418453
v -1.328771 0.400000 -0.232962
v -1.255113 0.463009 -0.285143
v -1.255113 0.463009 0.066656
v -1.328771 0.400000 0.066656
v -1.255113 0.463009 -0.285143
v -1.255113 0.536991 -0.285143
v -1.255113 0.536991 0.066656
v -1.255113 0.463009 0.066656
v -1.328771 0.400000 0.066656
v -1.255113 0.463009 0.066656
v -1.255113 0.463009 0.418453
v -1.328771 0.400000 0.418453
v -1.255113 0.463009 0.066656
v -1.255113 0.536991 0.066656
v -1.255113 0.536991 0.418453
v -1.255113 0.463009 0.418453
v -1.328771 0.400000 0.418453
v -1.255113 0.463009 0.418453
v -1.255113 0.463009 0.770251
v -1.328771 0.400000 0.718071
v -1.255113 0.463009 0.418453
v -1.255113 0.536991 0.418453
v -1.255113 0.536991 0.770251
v -1.255113 0.463009 0.770251
v -1.255113 0.536991 0.770251
v -1.328771 0.600000 0.718071
v -1.751704 0.600000 0.718071
v -1.751704 0.536991 0.770251
v -1.751704 0.536991 0.770251
v -1.751704 0.600000 0.718071
v -2.248296 0.600000 0.718071
v -2.248296 0.536991 0.770251
v -1.328771 0.400000 0.718071
v -1.255113 0.463009 0.770251
v -1.751704 0.463009 0.770251
v -1.776257 0.400000 0.718071
v -1.255113 0.463009 0.770251
v -1.255113 0.536991 0.770251
v -1.751704 0.536991 0.770251
v -1.751704 0.463009 0.770251
v -1.776257 0.400000 0.718071
v -1.751704 0.463009 0.770251
v -2.248296 0.463009 0.770251
v -2.223743 0.400000 0.718071
v -1.751704 0.463009 0.770251
v -1.751704 0.536991 0.770251
v -2.248296 0.536991 0.770251
v -2.248296 0.463009 0.770251
v -2.223743 0.400000 0.718071
v -2.248296 0.463009 0.770251
v -2.744887 0.463009 0.770251
v -2.671229 0.400000 0.718071
v -2.248296 0.463009 0.770251
v -2.248296 0.536991 0.770251
v -2.744887 0.536991 0.770251
v -2.744887 0.463009 0.770251
v -1.328771 0.600000 0.066656
v -1.328771 0.600000 -0.232962
v -1.615485 0.728943 -0.029846
v -1.615485 0.728943 -0.029846
v -1.751704 0.600000 -0.232962
v -2.248296 0.600000 -0.232962
v -2.384515 0.728943 -0.029846
v -1.328771 0.600000 0.718071
v -1.328771 0.600000 0.418453
v -1.615485 0.728943 0.514955
v -1.328771 0.600000 0.418453
v -1.328771 0.600000 0.066656
v -1.615485 0.728943 -0.029846
v -1.615485 0.728943 0.514955
v -1.751704 0.600000 0.718071
v -1.615485 0.728943 0.514955
v -2.384515 0.728943 0.514955
v -2.248296 0.600000 0.718071
v -1.615485 0.728943 0.514955
v -1.615485 0.728943 -0.029846
v -2.384515 0.728943 -0.029846
v -2.384515 0.728943 0.514955
v -2.248296 0.600000 0.718071
v -2.384515 0.728943 0.514955
v -2.671229 0.600000 0.718071
v -2.384515 0.728943 0.514955
v -2.384515 0.728943 -0.029846
v -2.671229 0.600000 0.066656
v -2.671229 0.600000 0.418453
v -2.671229 0.600000 -0.232962
v -2.384515 0.728943 -0.029846
v -2.248296 0.600000 -0.232962
v -2.384515 0.728943 0.514955
v -2.671229 0.600000 0.418453
v -2.671229 0.600000 0.718071
v -1.328771 0.600000 -0.232962
v -1.751704 0.600000 -0.232962
v -1.615485 0.728943 -0.029846
v -1.615485 0.728943 0.514955
v -1.751704 0.600000 0.718071
v -1.328771 0.600000 0.718071

vt 0.000238 0.263020
vt 0.473246 0.000238
vt 0.473246 0.263020
vt 0.000238 0.000238
vt 0.473246 0.000238
vt 0.000238 0.263020
vt 0.473246 0.263020
vt 0.000238 0.315577
vt 0.000238 0.263020
vt 0.473246 0.315577
vt 0.000238 0.315577
vt 0.473246 0.263020
vt 0.000238 0.578359
vt 0.473246 0.315577
vt 0.473246 0.578359
vt 0.000238 0.315577
vt 0.473246 0.315577
vt 0.000238 0.578359
vt 0.289774 0.184185
vt 0.552556 0.420690
vt 0.552556 0.184185
vt 0.289774 0.420690
vt 0.552556 0.420690
vt 0.289774 0.184185
vt 0.552556 0.420690
vt 0.578835 0.184185
vt 0.552556 0.184185
vt 0.578835 0.420690
vt 0.578835 0.184185
vt 0.552556 0.420690
vt 0.867896 0.184185
vt 0.841617 0.420690
vt 0.867896 0.420690
vt 0.841617 0.184185
vt 0.841617 0.420690
vt 0.867896 0.184185
vt 0.763258 0.697087
vt 0.802675 0.408026
vt 0.763258 0.408026
vt 0.802675 0.697087
vt 0.802675 0.408026
vt 0.763258 0.697087
vt 0.723840 0.697087
vt 0.763258 0.408026
vt 0.723840 0.408026
vt 0.763258 0.697087
vt 0.763258 0.408026
vt 0.723840 0.697087
vt 0.000238 0.920928
vt 0.039655 0.881510
vt 0.039655 0.920927
vt 0.000238 0.881510
vt 0.039655 0.881510
vt 0.000238 0.920928
vt 0.302437 0.881510
vt 0.263020 0.920927
vt 0.263020 0.881510
vt 0.302437 0.920928
vt 0.263020 0.920927
vt 0.302437 0.881510
vt 0.039655 0.960345
vt 0.263020 0.999762
vt 0.039655 0.999762
vt 0.263020 0.960345
vt 0.263020 0.999762
vt 0.039655 0.960345
vt 0.039655 0.842093
vt 0.263020 0.881510
vt 0.039655 0.881510
vt 0.263020 0.842093
vt 0.263020 0.881510
vt 0.039655 0.842093
vt 0.684423 0.697087
vt 0.723840 0.408026
vt 0.684423 0.408026
vt 0.723840 0.697087
vt 0.723840 0.408026
vt 0.684423 0.697087
vt 0.039655 0.881510
vt 0.263020 0.920927
vt 0.039655 0.920927
vt 0.263020 0.881510
vt 0.263020 0.920927
vt 0.039655 0.881510
vt 0.802675 0.697087
vt 0.842093 0.408026
vt 0.802675 0.408026
vt 0.842093 0.697087
vt 0.842093 0.408026
vt 0.802675 0.697087
vt 0.039655 0.920927
vt 0.263020 0.960345
vt 0.039655 0.960345
vt 0.263020 0.920927
vt 0.263020 0.960345
vt 0.039655 0.920927
vt 0.723840 0.368608
vt 0.763258 0.408026
vt 0.763258 0.368608
vt 0.723840 0.408026
vt 0.763258 0.408026
vt 0.723840 0.368608
vt 0.446968 0.631391
vt 0.420690 0.867896
vt 0.420690 0.631391
vt 0.446968 0.867896
vt 0.420690 0.867896
vt 0.446968 0.631391
vt 0.197325 0.867896
vt 0.223603 0.631391
vt 0.223603 0.867896
vt 0.197325 0.631391
vt 0.223603 0.631391
vt 0.197325 0.867896
vt 0.802675 0.697087
vt 0.842093 0.736504
vt 0.842093 0.697087
vt 0.802675 0.736504
vt 0.842093 0.736504
vt 0.802675 0.697087
vt 0.000238 0.631391
vt 0.197325 0.867896
vt 0.000238 0.867896
vt 0.197325 0.631391
vt 0.197325 0.867896
vt 0.000238 0.631391
vt 0.420690 0.867896
vt 0.223603 0.631391
vt 0.420690 0.631391
vt 0.223603 0.867896
vt 0.223603 0.631391
vt 0.420690 0.867896
vt 0.841617 0.420690
vt 0.578835 0.184185
vt 0.578835 0.420690
vt 0.841617 0.184185
vt 0.578835 0.184185
vt 0.841617 0.420690
vt 0.000238 0.263020
vt 0.473246 0.000238
vt 0.000238 0.000238
vt 0.473246 0.263020
vt 0.473246 0.000238
vt 0.000238 0.263020
vt 0.473246 0.263020
vt 0.000238 0.315577
vt 0.473246 0.315577
vt 0.000238 0.263020
vt 0.000238 0.315577
vt 0.473246 0.263020
vt 0.000238 0.578359
vt 0.473246 0.315577
vt 0.000238 0.315577
vt 0.473246 0.578359
vt 0.473246 0.315577
vt 0.000238 0.578359
vt 0.289774 0.184185
vt 0.552556 0.420690
vt 0.289774 0.420690
vt 0.552556 0.184185
vt 0.552556 0.420690
vt 0.289774 0.184185
vt 0.552556 0.420690
vt 0.578835 0.184185
vt 0.578835 0.420690
vt 0.552556 0.184185
vt 0.578835 0.184185
vt 0.552556 0.420690
vt 0.867896 0.184185
vt 0.841617 0.420690
vt 0.841617 0.184185
vt 0.867896 0.420690
vt 0.841617 0.420690
vt 0.867896 0.184185
vt 0.763258 0.697087
vt 0.802675 0.408026
vt 0.802675 0.697087
vt 0.763258 0.408026
vt 0.802675 0.408026
vt 0.763258 0.697087
vt 0.723840 0.697087
vt 0.763258 0.408026
vt 0.763258 0.697087
vt 0.723840 0.408026
vt 0.763258 0.408026
vt 0.723840 0.697087
vt 0.000238 0.920928
vt 0.039655 0.881510
vt 0.000238 0.881510
vt 0.039655 0.920927
vt 0.039655 0.881510
vt 0.000238 0.920928
vt 0.302437 0.881510
vt 0.263020 0.920927
vt 0.302437 0.920928
vt 0.263020 0.881510
vt 0.263020 0.920927
vt 0.302437 0.881510
vt 0.039655 0.960345
vt 0.263020 0.999762
vt 0.263020 0.960345
vt 0.039655 0.999762
vt 0.263020 0.999762
vt 0.039655 0.960345
vt 0.039655 0.842093
vt 0.263020 0.881510
vt 0.263020 0.842093
vt 0.039655 0.881510
vt 0.263020 0.881510
vt 0.039655 0.842093
vt 0.684423 0.697087
vt 0.723840 0.408026
vt 0.723840 0.697087
vt 0.684423 0.408026
vt 0.723840 0.408026
vt 0.684423 0.697087
vt 0.039655 0.881510
vt 0.263020 0.920927
vt 0.263020 0.881510
vt 0.039655 0.920927
vt 0.263020 0.920927
vt 0.039655 0.881510
vt 0.802675 0.697087
vt 0.842093 0.408026
vt 0.842093 0.697087
vt 0.802675 0.408026
vt 0.842093 0.408026
vt 0.802675 0.697087
vt 0.039655 0.920927
vt 0.263020 0.960345
vt 0.263020 0.920927
vt 0.039655 0.960345
vt 0.263020 0.960345
vt 0.039655 0.920927
vt 0.723840 0.368608
vt 0.763258 0.408026
vt 0.723840 0.408026
vt 0.763258 0.368608
vt 0.763258 0.408026
vt 0.723840 0.368608
vt 0.446968 0.631391
vt 0.420690 0.867896
vt 0.446968 0.867896
vt 0.420690 0.631391
vt 0.420690 0.867896
vt 0.446968 0.631391
vt 0.197325 0.867896
vt 0.223603 0.631391
vt 0.197325 0.631391
vt 0.223603 0.867896
vt 0.223603 0.631391
vt 0.197325 0.867896
vt 0.802675 0.697087
vt 0.842093 0.736504
vt 0.802675 0.736504
vt 0.842093 0.697087
vt 0.842093 0.736504
vt 0.802675 0.697087
vt 0.000238 0.631391
vt 0.197325 0.867896
vt 0.197325 0.631391
vt 0.000238 0.867896
vt 0.197325 0.867896
vt 0.000238 0.631391
vt 0.420690 0.867896
vt 0.223603 0.631391
vt 0.223603 0.867896
vt 0.420690 0.631391
vt 0.223603 0.631391
vt 0.420690 0.867896
vt 0.841617 0.420690
vt 0.578835 0.184185
vt 0.841617 0.184185
vt 0.578835 0.420690
vt 0.578835 0.184185
vt 0.841617 0.420690
vt 0.453412 0.000145
vt 0.833358 0.720045
vt 0.453412 0.720045
vt 0.833359 0.000146
vt 0.833358 0.720045
vt 0.453412 0.000145
vt 0.453412 0.000145
vt 0.436749 0.720045
vt 0.436747 0.000145
vt 0.453412 0.720045
vt 0.436749 0.720045
vt 0.453412 0.000145
vt 0.423416 0.000146
vt 0.406756 0.720045
vt 0.406751 0.000146
vt 0.423418 0.720045
vt 0.406756 0.720045
vt 0.423416 0.000146
vt 0.436747 0.000145
vt 0.423418 0.720045
vt 0.423416 0.000146
vt 0.436749 0.720045
vt 0.423418 0.720045
vt 0.436747 0.000145
vt 0.007639 0.999855
vt 0.048256 0.936989
vt 0.067554 0.999855
vt 0.861166 0.313078
vt 0.844807 0.397653
vt 0.844807 0.298349
vt 0.861166 0.397653
vt 0.844807 0.397653
vt 0.861166 0.313078
vt 0.861457 0.200760
vt 0.880841 0.140845
vt 0.880841 0.211194
vt 0.861457 0.140845
vt 0.880841 0.140845
vt 0.861457 0.200760
vt 0.867214 0.606987
vt 0.847830 0.666902
vt 0.847830 0.596552
vt 0.867214 0.666902
vt 0.847830 0.666902
vt 0.867214 0.606987
vt 0.813652 0.283329
vt 0.830012 0.198754
vt 0.830012 0.298058
vt 0.813652 0.198754
vt 0.830012 0.198754
vt 0.813652 0.283329
vt 0.813652 0.099450
vt 0.830012 0.000145
vt 0.830012 0.099450
vt 0.813652 0.014875
vt 0.830012 0.000145
vt 0.813652 0.099450
vt 0.813652 0.198754
vt 0.830012 0.099450
vt 0.830012 0.198754
vt 0.813652 0.099450
vt 0.830012 0.099450
vt 0.813652 0.198754
vt 0.844807 0.099450
vt 0.861166 0.014875
vt 0.861166 0.099450
vt 0.844806 0.000145
vt 0.861166 0.014875
vt 0.844807 0.099450
vt 0.830012 0.099450
vt 0.844806 0.000145
vt 0.844807 0.099450
vt 0.830012 0.000145
vt 0.844806 0.000145
vt 0.830012 0.099450
vt 0.844807 0.198754
vt 0.861166 0.099450
vt 0.861166 0.198754
vt 0.844807 0.099450
vt 0.861166 0.099450
vt 0.844807 0.198754
vt 0.830012 0.198754
vt 0.844807 0.099450
vt 0.844807 0.198754
vt 0.830012 0.099450
vt 0.844807 0.099450
vt 0.830012 0.198754
vt 0.844807 0.298058
vt 0.861166 0.198754
vt 0.861166 0.283329
vt 0.844807 0.198754
vt 0.861166 0.198754
vt 0.844807 0.298058
vt 0.830012 0.298058
vt 0.844807 0.198754
vt 0.844807 0.298058
vt 0.830012 0.198754
vt 0.844807 0.198754
vt 0.830012 0.298058
vt 0.867214 0.737252
vt 0.847830 0.807601
vt 0.847830 0.737252
vt 0.867214 0.797167
vt 0.847830 0.807601
vt 0.867214 0.737252
vt 0.867214 0.666902
vt 0.847830 0.737252
vt 0.847830 0.666902
vt 0.867214 0.737252
vt 0.847830 0.737252
vt 0.867214 0.666902
vt 0.833036 0.737252
vt 0.813652 0.797167
vt 0.813652 0.737252
vt 0.833036 0.807601
vt 0.813652 0.797167
vt 0.833036 0.737252
vt 0.847830 0.737252
vt 0.833036 0.807601
vt 0.833036 0.737252
vt 0.847830 0.807601
vt 0.833036 0.807601
vt 0.847830 0.737252
vt 0.833036 0.666902
vt 0.813652 0.737252
vt 0.813652 0.666902
vt 0.833036 0.737252
vt 0.813652 0.737252
vt 0.833036 0.666902
vt 0.847830 0.666902
vt 0.833036 0.737252
vt 0.833036 0.666902
vt 0.847830 0.737252
vt 0.833036 0.737252
vt 0.847830 0.666902
vt 0.833036 0.596552
vt 0.813652 0.666902
vt 0.813652 0.606987
vt 0.833036 0.666902
vt 0.813652 0.666902
vt 0.833036 0.596552
vt 0.847830 0.596552
vt 0.833036 0.666902
vt 0.833036 0.596552
vt 0.847830 0.666902
vt 0.833036 0.666902
vt 0.847830 0.596552
vt 0.861457 0.070495
vt 0.880841 0.000145
vt 0.880841 0.070495
vt 0.861457 0.010580
vt 0.880841 0.000145
vt 0.861457 0.070495
vt 0.861457 0.140845
vt 0.880841 0.070495
vt 0.880841 0.140845
vt 0.861457 0.070495
vt 0.880841 0.070495
vt 0.861457 0.140845
vt 0.895635 0.070495
vt 0.915019 0.010580
vt 0.915019 0.070495
vt 0.895635 0.000146
vt 0.915019 0.010580
vt 0.895635 0.070495
vt 0.880841 0.070495
vt 0.895635 0.000146
vt 0.895635 0.070495
vt 0.880841 0.000145
vt 0.895635 0.000146
vt 0.880841 0.070495
vt 0.895635 0.140845
vt 0.915019 0.070495
vt 0.915019 0.140845
vt 0.895635 0.070495
vt 0.915019 0.070495
vt 0.895635 0.140845
vt 0.880841 0.140845
vt 0.895635 0.070495
vt 0.895635 0.140845
vt 0.880841 0.070495
vt 0.895635 0.070495
vt 0.880841 0.140845
vt 0.895635 0.211194
vt 0.915019 0.140845
vt 0.915018 0.200760
vt 0.895635 0.140845
vt 0.915019 0.140845
vt 0.895635 0.211194
vt 0.880841 0.211194
vt 0.895635 0.140845
vt 0.895635 0.211194
vt 0.880841 0.140845
vt 0.895635 0.140845
vt 0.880841 0.211194
vt 0.861166 0.496957
vt 0.844807 0.596262
vt 0.844807 0.496957
vt 0.861166 0.581532
vt 0.844807 0.596262
vt 0.861166 0.496957
vt 0.861166 0.397653
vt 0.844807 0.496957
vt 0.844807 0.397653
vt 0.861166 0.496957
vt 0.844807 0.496957
vt 0.861166 0.397653
vt 0.830012 0.496957
vt 0.813653 0.581532
vt 0.813652 0.492048
vt 0.830012 0.596262
vt 0.813653 0.581532
vt 0.830012 0.496957
vt 0.844807 0.496957
vt 0.830012 0.596262
vt 0.830012 0.496957
vt 0.844807 0.596262
vt 0.830012 0.596262
vt 0.844807 0.496957
vt 0.830012 0.397653
vt 0.813652 0.492048
vt 0.813652 0.402563
vt 0.830012 0.496957
vt 0.813652 0.492048
vt 0.830012 0.397653
vt 0.844807 0.397653
vt 0.830012 0.496957
vt 0.830012 0.397653
vt 0.844807 0.496957
vt 0.830012 0.496957
vt 0.844807 0.397653
vt 0.830012 0.298349
vt 0.813652 0.402563
vt 0.813652 0.313078
vt 0.830012 0.397653
vt 0.813652 0.402563
vt 0.830012 0.298349
vt 0.844807 0.298349
vt 0.830012 0.397653
vt 0.830012 0.298349
vt 0.844807 0.397653
vt 0.830012 0.397653
vt 0.844807 0.298349
vt 0.007639 0.720338
vt 0.067554 0.720338
vt 0.048256 0.783204
vt 0.000146 0.909749
vt 0.048256 0.783204
vt 0.048256 0.936989
vt 0.000146 0.810444
vt 0.048256 0.783204
vt 0.000146 0.909749
vt 0.137903 0.720338
vt 0.197818 0.720338
vt 0.157201 0.783204
vt 0.048256 0.783204
vt 0.137903 0.720338
vt 0.157201 0.783204
vt 0.067554 0.720338
vt 0.137903 0.720338
vt 0.048256 0.783204
vt 0.157201 0.936989
vt 0.205311 0.810444
vt 0.205311 0.909748
vt 0.157201 0.783204
vt 0.205311 0.810444
vt 0.157201 0.936989
vt 0.048256 0.936989
vt 0.157201 0.783204
vt 0.157201 0.936989
vt 0.048256 0.783204
vt 0.157201 0.783204
vt 0.048256 0.936989
vt 0.157201 0.936989
vt 0.205311 0.909748
vt 0.205311 0.994323
vt 0.067554 0.999855
vt 0.157201 0.936989
vt 0.137903 0.999855
vt 0.048256 0.936989
vt 0.157201 0.936989
vt 0.067554 0.999855
vt 0.048256 0.936989
vt 0.000146 0.994323
vt 0.000146 0.909749
vt 0.137903 0.999855
vt 0.157201 0.936989
vt 0.197818 0.999855
vt 0.000146 0.810444
vt 0.000146 0.725870
vt 0.048256 0.783204
vt 0.205311 0.810444
vt 0.157201 0.783204
vt 0.205311 0.725870
vt 0.453412 0.000145
vt 0.833358 0.720045
vt 0.833359 0.000146
vt 0.453412 0.720045
vt 0.833358 0.720045
vt 0.453412 0.000145
vt 0.453412 0.000145
vt 0.436749 0.720045
vt 0.453412 0.720045
vt 0.436747 0.000145
vt 0.436749 0.720045
vt 0.453412 0.000145
vt 0.423416 0.000146
vt 0.406756 0.720045
vt 0.423418 0.720045
vt 0.406751 0.000146
vt 0.406756 0.720045
vt 0.423416 0.000146
vt 0.436747 0.000145
vt 0.423418 0.720045
vt 0.436749 0.720045
vt 0.423416 0.000146
vt 0.423418 0.720045
vt 0.436747 0.000145
vt 0.067554 0.999855
vt 0.048256 0.936989
vt 0.007639 0.999855
vt 0.861166 0.313078
vt 0.844807 0.397653
vt 0.861166 0.397653
vt 0.844807 0.298349
vt 0.844807 0.397653
vt 0.861166 0.313078
vt 0.861457 0.200760
vt 0.880841 0.140845
vt 0.861457 0.140845
vt 0.880841 0.211194
vt 0.880841 0.140845
vt 0.861457 0.200760
vt 0.867214 0.606987
vt 0.847830 0.666902
vt 0.867214 0.666902
vt 0.847830 0.596552
vt 0.847830 0.666902
vt 0.867214 0.606987
vt 0.813652 0.283329
vt 0.830012 0.198754
vt 0.813652 0.198754
vt 0.830012 0.298058
vt 0.830012 0.198754
vt 0.813652 0.283329
vt 0.813652 0.099450
vt 0.830012 0.000145
vt 0.813652 0.014875
vt 0.830012 0.099450
vt 0.830012 0.000145
vt 0.813652 0.099450
vt 0.813652 0.198754
vt 0.830012 0.099450
vt 0.813652 0.099450
vt 0.830012 0.198754
vt 0.830012 0.099450
vt 0.813652 0.198754
vt 0.844807 0.099450
vt 0.861166 0.014875
vt 0.844806 0.000145
vt 0.861166 0.099450
vt 0.861166 0.014875
vt 0.844807 0.099450
vt 0.830012 0.099450
vt 0.844806 0.000145
vt 0.830012 0.000145
vt 0.844807 0.099450
vt 0.844806 0.000145
vt 0.830012 0.099450
vt 0.844807 0.198754
vt 0.861166 0.099450
vt 0.844807 0.099450
vt 0.861166 0.198754
vt 0.861166 0.099450
vt 0.844807 0.198754
vt 0.830012 0.198754
vt 0.844807 0.099450
vt 0.830012 0.099450
vt 0.844807 0.198754
vt 0.844807 0.099450
vt 0.830012 0.198754
vt 0.844807 0.298058
vt 0.861166 0.198754
vt 0.844807 0.198754
vt 0.861166 0.283329
vt 0.861166 0.198754
vt 0.844807 0.298058
vt 0.830012 0.298058
vt 0.844807 0.198754
vt 0.830012 0.198754
vt 0.844807 0.298058
vt 0.844807 0.198754
vt 0.830012 0.298058
vt 0.867214 0.737252
vt 0.847830 0.807601
vt 0.867214 0.797167
vt 0.847830 0.737252
vt 0.847830 0.807601
vt 0.867214 0.737252
vt 0.867214 0.666902
vt 0.847830 0.737252
vt 0.867214 0.737252
vt 0.847830 0.666902
vt 0.847830 0.737252
vt 0.867214 0.666902
vt 0.833036 0.737252
vt 0.813652 0.797167
vt 0.833036 0.807601
vt 0.813652 0.737252
vt 0.813652 0.797167
vt 0.833036 0.737252
vt 0.847830 0.737252
vt 0.833036 0.807601
vt 0.847830 0.807601
vt 0.833036 0.737252
vt 0.833036 0.807601
vt 0.847830 0.737252
vt 0.833036 0.666902
vt 0.813652 0.737252
vt 0.833036 0.737252
vt 0.813652 0.666902
vt 0.813652 0.737252
vt 0.833036 0.666902
vt 0.847830 0.666902
vt 0.833036 0.737252
vt 0.847830 0.737252
vt 0.833036 0.666902
vt 0.833036 0.737252
vt 0.847830 0.666902
vt 0.833036 0.596552
vt 0.813652 0.666902
vt 0.833036 0.666902
vt 0.813652 0.606987
vt 0.813652 0.666902
vt 0.833036 0.596552
vt 0.847830 0.596552
vt 0.833036 0.666902
vt 0.847830 0.666902
vt 0.833036 0.596552
vt 0.833036 0.666902
vt 0.847830 0.596552
vt 0.861457 0.070495
vt 0.880841 0.000145
vt 0.861457 0.010580
vt 0.880841 0.070495
vt 0.880841 0.000145
vt 0.861457 0.070495
vt 0.861457 0.140845
vt 0.880841 0.070495
vt 0.861457 0.070495
vt 0.880841 0.140845
vt 0.880841 0.070495
vt 0.861457 0.140845
vt 0.895635 0.070495
vt 0.915019 0.010580
vt 0.895635 0.000146
vt 0.915019 0.070495
vt 0.915019 0.010580
vt 0.895635 0.070495
vt 0.880841 0.070495
vt 0.895635 0.000146
vt 0.880841 0.000145
vt 0.895635 0.070495
vt 0.895635 0.000146
vt 0.880841 0.070495
vt 0.895635 0.140845
vt 0.915019 0.070495
vt 0.895635 0.070495
vt 0.915019 0.140845
vt 0.915019 0.070495
vt 0.895635 0.140845
vt 0.880841 0.140845
vt 0.895635 0.070495
vt 0.880841 0.070495
vt 0.895635 0.140845
vt 0.895635 0.070495
vt 0.880841 0.140845
vt 0.895635 0.211194
vt 0.915019 0.140845
vt 0.895635 0.140845
vt 0.915018 0.200760
vt 0.915019 0.140845
vt 0.895635 0.211194
vt 0.880841 0.211194
vt 0.895635 0.140845
vt 0.880841 0.140845
vt 0.895635 0.211194
vt 0.895635 0.140845
vt 0.880841 0.211194
vt 0.861166 0.496957
vt 0.844807 0.596262
vt 0.861166 0.581532
vt 0.844807 0.496957
vt 0.844807 0.596262
vt 0.861166 0.496957
vt 0.861166 0.397653
vt 0.844807 0.496957
vt 0.861166 0.496957
vt 0.844807 0.397653
vt 0.844807 0.496957
vt 0.861166 0.397653
vt 0.830012 0.496957
vt 0.813653 0.581532
vt 0.830012 0.596262
vt 0.813652 0.492048
vt 0.813653 0.581532
vt 0.830012 0.496957
vt 0.844807 0.496957
vt 0.830012 0.596262
vt 0.844807 0.596262
vt 0.830012 0.496957
vt 0.830012 0.596262
vt 0.844807 0.496957
vt 0.830012 0.397653
vt 0.813652 0.492048
vt 0.830012 0.496957
vt 0.813652 0.402563
vt 0.813652 0.492048
vt 0.830012 0.397653
vt 0.844807 0.397653
vt 0.830012 0.496957
vt 0.844807 0.496957
vt 0.830012 0.397653
vt 0.830012 0.496957
vt 0.844807 0.397653
vt 0.830012 0.298349
vt 0.813652 0.402563
vt 0.830012 0.397653
vt 0.813652 0.313078
vt 0.813652 0.402563
vt 0.830012 0.298349
vt 0.844807 0.298349
vt 0.830012 0.397653
vt 0.844807 0.397653
vt 0.830012 0.298349
vt 0.830012 0.397653
vt 0.844807 0.298349
vt 0.048256 0.783204
vt 0.067554 0.720338
vt 0.007639 0.720338
vt 0.000146 0.909749
vt 0.048256 0.783204
vt 0.000146 0.810444
vt 0.048256 0.936989
vt 0.048256 0.783204
vt 0.000146 0.909749
vt 0.157201 0.783204
vt 0.197818 0.720338
vt 0.137903 0.720338
vt 0.048256 0.783204
vt 0.137903 0.720338
vt 0.067554 0.720338
vt 0.157201 0.783204
vt 0.137903 0.720338
vt 0.048256 0.783204
vt 0.157201 0.936989
vt 0.205311 0.810444
vt 0.157201 0.783204
vt 0.205311 0.909748
vt 0.205311 0.810444
vt 0.157201 0.936989
vt 0.048256 0.936989
vt 0.157201 0.783204
vt 0.048256 0.783204
vt 0.157201 0.936989
vt 0.157201 0.783204
vt 0.048256 0.936989
vt 0.205311 0.994323
vt 0.205311 0.909748
vt 0.157201 0.936989
vt 0.067554 0.999855
vt 0.157201 0.936989
vt 0.048256 0.936989
vt 0.137903 0.999855
vt 0.157201 0.936989
vt 0.067554 0.999855
vt 0.000146 0.909749
vt 0.000146 0.994323
vt 0.048256 0.936989
vt 0.197818 0.999855
vt 0.157201 0.936989
vt 0.137903 0.999855
vt 0.048256 0.783204
vt 0.000146 0.725870
vt 0.000146 0.810444
vt 0.205311 0.725870
vt 0.157201 0.783204
vt 0.205311 0.810444
vt 0.292421 0.344856
vt 0.438004 0.266645
vt 0.438004 0.344856
vt 0.292421 0.266645
vt 0.438004 0.266645
vt 0.292421 0.344856
vt 0.146839 0.344856
vt 0.292421 0.266645
vt 0.292421 0.344856
vt 0.146839 0.266645
vt 0.292421 0.266645
vt 0.146839 0.344856
vt 0.001256 0.344856
vt 0.146839 0.266645
vt 0.146839 0.344856
vt 0.001256 0.266645
vt 0.146839 0.266645
vt 0.001256 0.344856
vt 0.438004 0.344856
vt 0.583586 0.266645
vt 0.583586 0.344856
vt 0.438004 0.266645
vt 0.583586 0.266645
vt 0.438004 0.344856
vt 0.175544 0.095161
vt 0.263716 0.183333
vt 0.175544 0.183333
vt 0.263716 0.095161
vt 0.263716 0.183333
vt 0.175544 0.095161
vt 0.438004 0.266645
vt 0.554881 0.183333
vt 0.583586 0.266645
vt 0.466709 0.183333
vt 0.554881 0.183333
vt 0.438004 0.266645
vt 0.001256 0.266645
vt 0.118134 0.183333
vt 0.146839 0.266645
vt 0.029961 0.183333
vt 0.118134 0.183333
vt 0.001256 0.266645
vt 0.146839 0.266645
vt 0.263716 0.183333
vt 0.292421 0.266645
vt 0.175544 0.183333
vt 0.263716 0.183333
vt 0.146839 0.266645
vt 0.292421 0.266645
vt 0.409298 0.183333
vt 0.438004 0.266645
vt 0.321127 0.183333
vt 0.409298 0.183333
vt 0.292421 0.266645
vt 0.292421 0.344856
vt 0.438004 0.266646
vt 0.292421 0.266645
vt 0.438004 0.344856
vt 0.438004 0.266646
vt 0.292421 0.344856
vt 0.146839 0.344856
vt 0.292421 0.266645
vt 0.146839 0.266645
vt 0.292421 0.344856
vt 0.292421 0.266645
vt 0.146839 0.344856
vt 0.001256 0.344856
vt 0.146839 0.266645
vt 0.001256 0.266645
vt 0.146839 0.344856
vt 0.146839 0.266645
vt 0.001256 0.344856
vt 0.438004 0.344856
vt 0.583586 0.266646
vt 0.438004 0.266646
vt 0.583586 0.344856
vt 0.583586 0.266646
vt 0.438004 0.344856
vt 0.175544 0.095161
vt 0.263716 0.183333
vt 0.263716 0.095161
vt 0.175544 0.183333
vt 0.263716 0.183333
vt 0.175544 0.095161
vt 0.438004 0.266646
vt 0.554881 0.183333
vt 0.466709 0.183333
vt 0.583586 0.266646
vt 0.554881 0.183333
vt 0.438004 0.266646
vt 0.001256 0.266645
vt 0.118133 0.183333
vt 0.029961 0.183333
vt 0.146839 0.266645
vt 0.118133 0.183333
vt 0.001256 0.266645
vt 0.146839 0.266645
vt 0.263716 0.183333
vt 0.175544 0.183333
vt 0.292421 0.266645
vt 0.263716 0.183333
vt 0.146839 0.266645
vt 0.292421 0.266645
vt 0.409299 0.183333
vt 0.321127 0.183333
vt 0.438004 0.266646
vt 0.409299 0.183333
vt 0.292421 0.266645
vt 0.292421 0.344856
vt 0.438004 0.266645
vt 0.292421 0.266645
vt 0.438004 0.344856
vt 0.438004 0.266645
vt 0.292421 0.344856
vt 0.146839 0.344856
vt 0.292421 0.266645
vt 0.146839 0.266645
vt 0.292421 0.344856
vt 0.292421 0.266645
vt 0.146839 0.344856
vt 0.001256 0.344856
vt 0.146839 0.266645
vt 0.001256 0.266645
vt 0.146839 0.344856
vt 0.146839 0.266645
vt 0.001256 0.344856
vt 0.438004 0.344856
vt 0.583586 0.266645
vt 0.438004 0.266645
vt 0.583586 0.344856
vt 0.583586 0.266645
vt 0.438004 0.344856
vt 0.175544 0.095161
vt 0.263716 0.183333
vt 0.263716 0.095161
vt 0.175544 0.183333
vt 0.263716 0.183333
vt 0.175544 0.095161
vt 0.438004 0.266645
vt 0.554881 0.183333
vt 0.466709 0.183333
vt 0.583586 0.266645
vt 0.554881 0.183333
vt 0.438004 0.266645
vt 0.001256 0.266645
vt 0.118134 0.183333
vt 0.029961 0.183333
vt 0.146839 0.266645
vt 0.118134 0.183333
vt 0.001256 0.266645
vt 0.146839 0.266645
vt 0.263716 0.183333
vt 0.175544 0.183333
vt 0.292421 0.266645
vt 0.263716 0.183333
vt 0.146839 0.266645
vt 0.292421 0.266645
vt 0.409298 0.183333
vt 0.321127 0.183333
vt 0.438004 0.266645
vt 0.409298 0.183333
vt 0.292421 0.266645
vt 0.292421 0.344856
vt 0.438004 0.266646
vt 0.438004 0.344856
vt 0.292421 0.266645
vt 0.438004 0.266646
vt 0.292421 0.344856
vt 0.146839 0.344856
vt 0.292421 0.266645
vt 0.292421 0.344856
vt 0.146839 0.266645
vt 0.292421 0.266645
vt 0.146839 0.344856
vt 0.001256 0.344856
vt 0.146839 0.266645
vt 0.146839 0.344856
vt 0.001256 0.266645
vt 0.146839 0.266645
vt 0.001256 0.344856
vt 0.438004 0.344856
vt 0.583586 0.266646
vt 0.583586 0.344856
vt 0.438004 0.266646
vt 0.583586 0.266646
vt 0.438004 0.344856
vt 0.175544 0.095161
vt 0.263716 0.183333
vt 0.175544 0.183333
vt 0.263716 0.095161
vt 0.263716 0.183333
vt 0.175544 0.095161
vt 0.438004 0.266646
vt 0.554881 0.183333
vt 0.583586 0.266646
vt 0.466709 0.183333
vt 0.554881 0.183333
vt 0.438004 0.266646
vt 0.001256 0.266645
vt 0.118133 0.183333
vt 0.146839 0.266645
vt 0.029961 0.183333
vt 0.118133 0.183333
vt 0.001256 0.266645
vt 0.146839 0.266645
vt 0.263716 0.183333
vt 0.292421 0.266645
vt 0.175544 0.183333
vt 0.263716 0.183333
vt 0.146839 0.266645
vt 0.292421 0.266645
vt 0.409299 0.183333
vt 0.438004 0.266646
vt 0.321127 0.183333
vt 0.409299 0.183333
vt 0.292421 0.266645

vn -0.000000 1.000000 0.000000
vn -0.000000 1.000000 0.000000
vn -0.000000 1.000000 0.000000
vn -0.000000 1.000000 0.000000
vn -0.000000 1.000000 0.000000
vn -0.000000 1.000000 0.000000
vn 1.000000 0.000000 0.000000
vn 1.000000 0.000000 0.000000
vn 1.000000 0.000000 0.000000
vn 1.000000 0.000000 0.000000
vn 1.000000 0.000000 0.000000
vn 1.000000 0.000000 0.000000
vn -0.000000 -1.000000 0.000000
vn -0.000000 -1.000000 0.000000
vn -0.000000 -1.000000 0.000000
vn -0.000000 -1.000000 0.000000
vn -0.000000 -1.000000 0.000000
vn -0.000000 -1.000000 0.000000
vn -0.000000 0.000000 1.000000
vn -0.000000 0.000000 1.000000
vn -0.000000 0.000000 1.000000
vn -0.000000 0.000000 1.000000
vn -0.000000 0.000000 1.000000
vn -0.000000 0.000000 1.000000
vn -0.000000 -1.000000 0.000000
vn -0.000000 -1.000000 0.000000
vn -0.000000 -1.000000 0.000000
vn -0.000000 -1.000000 0.000000
vn -0.000000 -1.000000 0.000000
vn -0.000000 -1.000000 0.000000
vn -0.000000 1.000000 0.000000
vn -0.000000 1.000000 0.000000
vn -0.000000 1.000000 0.000000
vn -0.000000 1.000000 0.000000
vn -0.000000 1.000000 0.000000
vn -0.000000 1.000000 0.000000
vn 1.000000 0.000000 0.000000
vn 1.000000 0.000000 0.000000
vn 1.000000 0.000000 0.000000
vn 1.000000 0.000000 0.000000
vn 1.000000 0.000000 0.000000
vn 1.000000 0.000000 0.000000
vn -0.000000 0.000000 -1.000000
vn -0.000000 0.000000 -1.000000
vn -0.000000 0.000000 -1.000000
vn -0.000000 0.000000 -1.000000
vn -0.000000 0.000000 -1.000000
vn -0.000000 0.000000 -1.000000
vn -0.000000 1.000000 0.000000
vn -0.000000 1.000000 0.000000
vn -0.000000 1.000000 0.000000
vn -0.000000 1.000000 0.000000
vn -0.000000 1.000000 0.000000
vn -0.000000 1.000000 0.000000
vn -0.000000 -1.000000 0.000000
vn -0.000000 -1.000000 0.000000
vn -0.000000 -1.000000 0.000000
vn -0.000000 -1.000000 0.000000
vn -0.000000 -1.000000 0.000000
vn -0.000000 -1.000000 0.000000
vn -0.000000 0.000000 -1.000000
vn -0.000000 0.000000 -1.000000
vn -0.000000 0.000000 -1.000000
vn -0.000000 0.000000 -1.000000
vn -0.000000 0.000000 -1.000000
vn -0.000000 0.000000 -1.000000
vn -1.000000 0.000000 0.000000
vn -1.000000 0.000000 0.000000
vn -1.000000 0.000000 0.000000
vn -1.000000 0.000000 0.000000
vn -1.000000 0.000000 0.000000
vn -1.000000 0.000000 0.000000
vn -1.000000 0.000000 0.000000
vn -1.000000 0.000000 0.000000
vn -1.000000 0.000000 0.000000
vn -1.000000 0.000000 0.000000
vn -1.000000 0.000000 0.000000
vn -1.000000 0.000000 0.000000
vn -0.000000 0.000000 1.000000
vn -0.000000 0.000000 1.000000
vn -0.000000 0.000000 1.000000
vn -0.000000 0.000000 1.000000
vn -0.000000 0.000000 1.000000
vn -0.000000 0.000000 1.000000
vn -0.000000 0.000000 1.000000
vn -0.000000 0.000000 1.000000
vn -0.000000 0.000000 1.000000
vn -0.000000 0.000000 1.000000
vn -0.000000 0.000000 1.000000
vn -0.000000 0.000000 1.000000
vn 1.000000 0.000000 0.000000
vn 1.000000 0.000000 0.000000
vn 1.000000 0.000000 0.000000
vn 1.000000 0.000000 0.000000
vn 1.000000 0.000000 0.000000
vn 1.000000 0.000000 0.000000
vn -0.000000 -1.000000 0.000000
vn -0.000000 -1.000000 0.000000
vn -0.000000 -1.000000 0.000000
vn -0.000000 -1.000000 0.000000
vn -0.000000 -1.000000 0.000000
vn -0.000000 -1.000000 0.000000
vn -0.000000 1.000000 0.000000
vn -0.000000 1.000000 0.000000
vn -0.000000 1.000000 0.000000
vn -0.000000 1.000000 0.000000
vn -0.000000 1.000000 0.000000
vn -0.000000 1.000000 0.000000
vn -0.000000 -1.000000 0.000000
vn -0.000000 -1.000000 0.000000
vn -0.000000 -1.000000 0.000000
vn -0.000000 -1.000000 0.000000
vn -0.000000 -1.000000 0.000000
vn -0.000000 -1.000000 0.000000
vn -0.000000 1.000000 0.000000
vn -0.000000 1.000000 0.000000
vn -0.000000 1.000000 0.000000
vn -0.000000 1.000000 0.000000
vn -0.000000 1.000000 0.000000
vn -0.000000 1.000000 0.000000
vn -0.000000 0.000000 -1.000000
vn -0.000000 0.000000 -1.000000
vn -0.000000 0.000000 -1.000000
vn -0.000000 0.000000 -1.000000
vn -0.000000 0.000000 -1.000000
vn -0.000000 0.000000 -1.000000
vn -0.000000 0.000000 1.000000
vn -0.000000 0.000000 1.000000
vn -0.000000 0.000000 1.000000
vn -0.000000 0.000000 1.000000
vn -0.000000 0.000000 1.000000
vn -0.000000 0.000000 1.000000
vn -0.000000 0.000000 -1.000000
vn -0.000000 0.000000 -1.000000
vn -0.000000 0.000000 -1.000000
vn -0.000000 0.000000 -1.000000
vn -0.000000 0.000000 -1.000000
vn -0.000000 0.000000 -1.000000
vn -0.000000 1.000000 0.000000
vn -0.000000 1.000000 0.000000
vn -0.000000 1.000000 0.000000
vn -0.000000 1.000000 0.000000
vn -0.000000 1.000000 0.000000
vn -0.000000 1.000000 0.000000
vn -1.000000 0.000000 0.000000
vn -1.000000 0.000000 0.000000
vn -1.000000 0.000000 0.000000
vn -1.000000 0.000000 0.000000
vn -1.000000 0.000000 0.000000
vn -1.000000 0.000000 0.000000
vn -0.000000 -1.000000 0.000000
vn -0.000000 -1.000000 0.000000
vn -0.000000 -1.000000 0.000000
vn 0.000000 -1.000000 0.000000
vn 0.000000 -1.000000 0.000000
vn 0.000000 -1.000000 0.000000
vn -0.000000 0.000000 1.000000
vn -0.000000 0.000000 1.000000
vn -0.000000 0.000000 1.000000
vn -0.000000 0.000000 1.000000
vn -0.000000 0.000000 1.000000
vn -0.000000 0.000000 1.000000
vn 0.000000 -1.000000 0.000000
vn 0.000000 -1.000000 0.000000
vn 0.000000 -1.000000 0.000000
vn -0.000000 -1.000000 0.000000
vn -0.000000 -1.000000 0.000000
vn -0.000000 -1.000000 0.000000
vn -0.000000 1.000000 0.000000
vn -0.000000 1.000000 0.000000
vn -0.000000 1.000000 0.000000
vn -0.000000 1.000000 0.000000
vn -0.000000 1.000000 0.000000
vn -0.000000 1.000000 0.000000
vn -1.000000 0.000000 0.000000
vn -1.000000 0.000000 0.000000
vn -1.000000 0.000000 0.000000
vn -1.000000 0.000000 0.000000
vn -1.000000 0.000000 0.000000
vn -1.000000 0.000000 0.000000
vn -0.000000 0.000000 -1.000000
vn -0.000000 0.000000 -1.000000
vn -0.000000 0.000000 -1.000000
vn -0.000000 0.000000 -1.000000
vn -0.000000 0.000000 -1.000000
vn -0.000000 0.000000 -1.000000
vn -0.000000 1.000000 0.000000
vn -0.000000 1.000000 0.000000
vn -0.000000 1.000000 0.000000
vn -0.000000 1.000000 0.000000
vn -0.000000 1.000000 0.000000
vn -0.000000 1.000000 0.000000
vn -0.000000 -1.000000 0.000000
vn -0.000000 -1.000000 0.000000
vn -0.000000 -1.000000 0.000000
vn -0.000000 -1.000000 0.000000
vn -0.000000 -1.000000 0.000000
vn -0.000000 -1.000000 0.000000
vn -0.000000 0.000000 -1.000000
vn -0.000000 0.000000 -1.000000
vn -0.000000 0.000000 -1.000000
vn -0.000000 0.000000 -1.000000
vn -0.000000 0.000000 -1.000000
vn -0.000000 0.000000 -1.000000
vn 1.000000 0.000000 0.000000
vn 1.000000 0.000000 0.000000
vn 1.000000 0.000000 0.000000
vn 1.000000 0.000000 0.000000
vn 1.000000 0.000000 0.000000
vn 1.000000 0.000000 0.000000
vn 1.000000 0.000000 0.000000
vn 1.000000 0.000000 0.000000
vn 1.000000 0.000000 0.000000
vn 1.000000 0.000000 0.000000
vn 1.000000 0.000000 0.000000
vn 1.000000 0.000000 0.000000
vn -0.000000 0.000000 1.000000
vn -0.000000 0.000000 1.000000
vn -0.000000 0.000000 1.000000
vn -0.000000 0.000000 1.000000
vn -0.000000 0.000000 1.000000
vn -0.000000 0.000000 1.000000
vn -0.000000 0.000000 1.000000
vn -0.000000 0.000000 1.000000
vn -0.000000 0.000000 1.000000
vn -0.000000 0.000000 1.000000
vn -0.000000 0.000000 1.000000
vn -0.000000 0.000000 1.000000
vn -1.000000 0.000000 0.000000
vn -1.000000 0.000000 0.000000
vn -1.000000 0.000000 0.000000
vn -1.000000 0.000000 0.000000
vn -1.000000 0.000000 0.000000
vn -1.000000 0.000000 0.000000
vn -0.000000 -1.000000 0.000000
vn -0.000000 -1.000000 0.000000
vn -0.000000 -1.000000 0.000000
vn -0.000000 -1.000000 0.000000
vn -0.000000 -1.000000 0.000000
vn -0.000000 -1.000000 0.000000
vn -0.000000 1.000000 0.000000
vn -0.000000 1.000000 0.000000
vn -0.000000 1.000000 0.000000
vn -0.000000 1.000000 0.000000
vn -0.000000 1.000000 0.000000
vn -0.000000 1.000000 0.000000
vn -0.000000 -1.000000 0.000000
vn -0.000000 -1.000000 0.000000
vn -0.000000 -1.000000 0.000000
vn 0.000000 -1.000000 0.000000
vn 0.000000 -1.000000 0.000000
vn 0.000000 -1.000000 0.000000
vn -0.000000 1.000000 0.000000
vn -0.000000 1.000000 0.000000
vn -0.000000 1.000000 0.000000
vn -0.000000 1.000000 0.000000
vn -0.000000 1.000000 0.000000
vn -0.000000 1.000000 0.000000
vn -0.000000 0.000000 -1.000000
vn -0.000000 0.000000 -1.000000
vn -0.000000 0.000000 -1.000000
vn -0.000000 0.000000 -1.000000
vn -0.000000 0.000000 -1.000000
vn -0.000000 0.000000 -1.000000
vn -0.000000 0.000000 1.000000
vn -0.000000 0.000000 1.000000
vn -0.000000 0.000000 1.000000
vn -0.000000 0.000000 1.000000
vn -0.000000 0.000000 1.000000
vn -0.000000 0.000000 1.000000
vn -0.000000 0.000000 -1.000000
vn -0.000000 0.000000 -1.000000
vn -0.000000 0.000000 -1.000000
vn -0.000000 0.000000 -1.000000
vn -0.000000 0.000000 -1.000000
vn -0.000000 0.000000 -1.000000
vn -0.000000 1.000000 0.000000
vn -0.000000 1.000000 0.000000
vn -0.000000 1.000000 0.000000
vn -0.000000 1.000000 0.000000
vn -0.000000 1.000000 0.000000
vn -0.000000 1.000000 0.000000
vn 0.800000 0.600000 0.000000
vn 0.800000 0.600000 0.000000
vn 0.800000 0.600000 0.000000
vn 0.800000 0.600000 0.000000
vn 0.800000 0.600000 0.000000
vn 0.800000 0.600000 0.000000
vn 0.800000 -0.600000 0.000000
vn 0.800000 -0.600000 0.000000
vn 0.800000 -0.600000 0.000000
vn 0.800000 -0.600000 0.000000
vn 0.800000 -0.600000 0.000000
vn 0.800000 -0.600000 0.000000
vn 1.000000 0.000000 -0.000000
vn 1.000000 0.000000 -0.000000
vn 1.000000 0.000000 -0.000000
vn 1.000000 0.000000 0.000000
vn 1.000000 0.000000 0.000000
vn 1.000000 0.000000 0.000000
vn 0.410156 0.912015 0.000000
vn 0.410156 0.912015 0.000000
vn 0.410156 0.912015 0.000000
vn -0.000000 0.637825 0.770181
vn -0.000000 0.637825 0.770181
vn -0.000000 0.637825 0.770181
vn -0.000000 0.637827 0.770180
vn -0.000000 0.637827 0.770180
vn -0.000000 0.637827 0.770180
vn -0.650041 0.759899 -0.000000
vn -0.650041 0.759899 -0.000000
vn -0.650041 0.759899 -0.000000
vn -0.650041 0.759899 0.000000
vn -0.650041 0.759899 0.000000
vn -0.650041 0.759899 0.000000
vn 0.650041 0.759900 0.000000
vn 0.650041 0.759900 0.000000
vn 0.650041 0.759900 0.000000
vn 0.650041 0.759899 0.000000
vn 0.650041 0.759899 0.000000
vn 0.650041 0.759899 0.000000
vn 0.000000 0.637826 -0.770180
vn 0.000000 0.637826 -0.770180
vn 0.000000 0.637826 -0.770180
vn -0.000000 0.637826 -0.770180
vn -0.000000 0.637826 -0.770180
vn -0.000000 0.637826 -0.770180
vn -0.000000 0.637826 -0.770181
vn -0.000000 0.637826 -0.770181
vn -0.000000 0.637826 -0.770181
vn -0.000000 0.637826 -0.770180
vn -0.000000 0.637826 -0.770180
vn -0.000000 0.637826 -0.770180
vn -0.000000 0.637826 -0.770181
vn -0.000000 0.637826 -0.770181
vn -0.000000 0.637826 -0.770181
vn -0.000000 0.637826 -0.770180
vn -0.000000 0.637826 -0.770180
vn -0.000000 0.637826 -0.770180
vn -0.000000 -0.637827 -0.770180
vn -0.000000 -0.637827 -0.770180
vn -0.000000 -0.637827 -0.770180
vn -0.000000 -0.637827 -0.770180
vn -0.000000 -0.637827 -0.770180
vn -0.000000 -0.637827 -0.770180
vn -0.000000 0.000000 -1.000000
vn -0.000000 0.000000 -1.000000
vn -0.000000 0.000000 -1.000000
vn -0.000000 0.000000 -1.000000
vn -0.000000 0.000000 -1.000000
vn -0.000000 0.000000 -1.000000
vn -0.000000 -0.637827 -0.770180
vn -0.000000 -0.637827 -0.770180
vn -0.000000 -0.637827 -0.770180
vn -0.000000 -0.637826 -0.770180
vn -0.000000 -0.637826 -0.770180
vn -0.000000 -0.637826 -0.770180
vn -0.000000 0.000000 -1.000000
vn -0.000000 0.000000 -1.000000
vn -0.000000 0.000000 -1.000000
vn -0.000000 0.000000 -1.000000
vn -0.000000 0.000000 -1.000000
vn -0.000000 0.000000 -1.000000
vn -0.000000 -0.637826 -0.770180
vn -0.000000 -0.637826 -0.770180
vn -0.000000 -0.637826 -0.770180
vn -0.000000 -0.637827 -0.770180
vn -0.000000 -0.637827 -0.770180
vn -0.000000 -0.637827 -0.770180
vn -0.000000 0.000000 -1.000000
vn -0.000000 0.000000 -1.000000
vn -0.000000 0.000000 -1.000000
vn -0.000000 0.000000 -1.000000
vn -0.000000 0.000000 -1.000000
vn -0.000000 0.000000 -1.000000
vn 0.650041 0.759899 0.000000
vn 0.650041 0.759899 0.000000
vn 0.650041 0.759899 0.000000
vn 0.650041 0.759899 0.000000
vn 0.650041 0.759899 0.000000
vn 0.650041 0.759899 0.000000
vn 0.650042 0.759899 0.000000
vn 0.650042 0.759899 0.000000
vn 0.650042 0.759899 0.000000
vn 0.650041 0.759899 0.000000
vn 0.650041 0.759899 0.000000
vn 0.650041 0.759899 0.000000
vn 0.650041 -0.759900 0.000000
vn 0.650041 -0.759900 0.000000
vn 0.650041 -0.759900 0.000000
vn 0.650040 -0.759900 0.000000
vn 0.650040 -0.759900 0.000000
vn 0.650040 -0.759900 0.000000
vn 1.000000 0.000000 0.000000
vn 1.000000 0.000000 0.000000
vn 1.000000 0.000000 0.000000
vn 1.000000 0.000000 0.000000
vn 1.000000 0.000000 0.000000
vn 1.000000 0.000000 0.000000
vn 0.650041 -0.759899 0.000000
vn 0.650041 -0.759899 0.000000
vn 0.650041 -0.759899 0.000000
vn 0.650040 -0.759900 0.000000
vn 0.650040 -0.759900 0.000000
vn 0.650040 -0.759900 0.000000
vn 1.000000 0.000000 0.000000
vn 1.000000 0.000000 0.000000
vn 1.000000 0.000000 0.000000
vn 1.000000 0.000000 0.000000
vn 1.000000 0.000000 0.000000
vn 1.000000 0.000000 0.000000
vn 0.650041 -0.759899 0.000000
vn 0.650041 -0.759899 0.000000
vn 0.650041 -0.759899 0.000000
vn 0.650040 -0.759900 0.000000
vn 0.650040 -0.759900 0.000000
vn 0.650040 -0.759900 0.000000
vn 1.000000 0.000000 0.000000
vn 1.000000 0.000000 0.000000
vn 1.000000 0.000000 0.000000
vn 1.000000 0.000000 0.000000
vn 1.000000 0.000000 0.000000
vn 1.000000 0.000000 0.000000
vn -0.650041 0.759899 0.000000
vn -0.650041 0.759899 0.000000
vn -0.650041 0.759899 0.000000
vn -0.650041 0.759899 0.000000
vn -0.650041 0.759899 0.000000
vn -0.650041 0.759899 0.000000
vn -0.650042 0.759899 0.000000
vn -0.650042 0.759899 0.000000
vn -0.650042 0.759899 0.000000
vn -0.650041 0.759899 0.000000
vn -0.650041 0.759899 0.000000
vn -0.650041 0.759899 0.000000
vn -0.650040 -0.759900 0.000000
vn -0.650040 -0.759900 0.000000
vn -0.650040 -0.759900 0.000000
vn -0.650041 -0.759900 -0.000000
vn -0.650041 -0.759900 -0.000000
vn -0.650041 -0.759900 -0.000000
vn -1.000000 0.000000 -0.000000
vn -1.000000 0.000000 -0.000000
vn -1.000000 0.000000 -0.000000
vn -1.000000 0.000000 0.000000
vn -1.000000 0.000000 0.000000
vn -1.000000 0.000000 0.000000
vn -0.650041 -0.759899 0.000000
vn -0.650041 -0.759899 0.000000
vn -0.650041 -0.759899 0.000000
vn -0.650040 -0.759900 0.000000
vn -0.650040 -0.759900 0.000000
vn -0.650040 -0.759900 0.000000
vn -1.000000 0.000000 0.000000
vn -1.000000 0.000000 0.000000
vn -1.000000 0.000000 0.000000
vn -1.000000 0.000000 0.000000
vn -1.000000 0.000000 0.000000
vn -1.000000 0.000000 0.000000
vn -0.650041 -0.759899 0.000000
vn -0.650041 -0.759899 0.000000
vn -0.650041 -0.759899 0.000000
vn -0.650041 -0.759900 0.000000
vn -0.650041 -0.759900 0.000000
vn -0.650041 -0.759900 0.000000
vn -1.000000 0.000000 0.000000
vn -1.000000 0.000000 0.000000
vn -1.000000 0.000000 0.000000
vn -1.000000 0.000000 0.000000
vn -1.000000 0.000000 0.000000
vn -1.000000 0.000000 0.000000
vn 0.000000 0.637826 0.770181
vn 0.000000 0.637826 0.770181
vn 0.000000 0.637826 0.770181
vn -0.000000 0.637826 0.770180
vn -0.000000 0.637826 0.770180
vn -0.000000 0.637826 0.770180
vn -0.000000 0.637825 0.770181
vn -0.000000 0.637825 0.770181
vn -0.000000 0.637825 0.770181
vn -0.000000 0.637826 0.770181
vn -0.000000 0.637826 0.770181
vn -0.000000 0.637826 0.770181
vn -0.000000 -0.637828 0.770179
vn -0.000000 -0.637828 0.770179
vn -0.000000 -0.637828 0.770179
vn -0.000000 -0.637825 0.770181
vn -0.000000 -0.637825 0.770181
vn -0.000000 -0.637825 0.770181
vn -0.000000 0.000000 1.000000
vn -0.000000 0.000000 1.000000
vn -0.000000 0.000000 1.000000
vn -0.000000 0.000000 1.000000
vn -0.000000 0.000000 1.000000
vn -0.000000 0.000000 1.000000
vn -0.000000 -0.637826 0.770181
vn -0.000000 -0.637826 0.770181
vn -0.000000 -0.637826 0.770181
vn -0.000000 -0.637826 0.770181
vn -0.000000 -0.637826 0.770181
vn -0.000000 -0.637826 0.770181
vn -0.000000 0.000000 1.000000
vn -0.000000 0.000000 1.000000
vn -0.000000 0.000000 1.000000
vn -0.000000 0.000000 1.000000
vn -0.000000 0.000000 1.000000
vn -0.000000 0.000000 1.000000
vn -0.000000 -0.637827 0.770180
vn -0.000000 -0.637827 0.770180
vn -0.000000 -0.637827 0.770180
vn -0.000000 -0.637827 0.770180
vn -0.000000 -0.637827 0.770180
vn -0.000000 -0.637827 0.770180
vn -0.000000 0.000000 1.000000
vn -0.000000 0.000000 1.000000
vn -0.000000 0.000000 1.000000
vn -0.000000 0.000000 1.000000
vn -0.000000 0.000000 1.000000
vn -0.000000 0.000000 1.000000
vn -0.410156 0.912016 0.000000
vn -0.410156 0.912016 0.000000
vn -0.410156 0.912016 0.000000
vn -0.000000 0.844250 -0.535949
vn -0.000000 0.844250 -0.535949
vn -0.000000 0.844250 -0.535949
vn -0.000000 0.844250 -0.535949
vn -0.000000 0.844250 -0.535949
vn -0.000000 0.844250 -0.535949
vn -0.410156 0.912015 0.000000
vn -0.410156 0.912015 0.000000
vn -0.410156 0.912015 0.000000
vn -0.410156 0.912015 0.000000
vn -0.410156 0.912015 0.000000
vn -0.410156 0.912015 0.000000
vn -0.410156 0.912015 0.000000
vn -0.410156 0.912015 0.000000
vn -0.410156 0.912015 0.000000
vn -0.000000 0.844250 0.535949
vn -0.000000 0.844250 0.535949
vn -0.000000 0.844250 0.535949
vn -0.000000 0.844250 0.535950
vn -0.000000 0.844250 0.535950
vn -0.000000 0.844250 0.535950
vn -0.000000 1.000000 0.000000
vn -0.000000 1.000000 0.000000
vn -0.000000 1.000000 0.000000
vn -0.000000 1.000000 0.000000
vn -0.000000 1.000000 0.000000
vn -0.000000 1.000000 0.000000
vn -0.000000 0.844250 0.535949
vn -0.000000 0.844250 0.535949
vn -0.000000 0.844250 0.535949
vn 0.410156 0.912015 0.000000
vn 0.410156 0.912015 0.000000
vn 0.410156 0.912015 0.000000
vn 0.410156 0.912015 0.000000
vn 0.410156 0.912015 0.000000
vn 0.410156 0.912015 0.000000
vn -0.000000 0.844250 -0.535949
vn -0.000000 0.844250 -0.535949
vn -0.000000 0.844250 -0.535949
vn 0.410156 0.912015 0.000000
vn 0.410156 0.912015 0.000000
vn 0.410156 0.912015 0.000000
vn -0.000000 0.844250 -0.535949
vn -0.000000 0.844250 -0.535949
vn -0.000000 0.844250 -0.535949
vn -0.000000 0.844250 0.535949
vn -0.000000 0.844250 0.535949
vn -0.000000 0.844250 0.535949
vn -0.000000 1.000000 0.000000
vn -0.000000 1.000000 0.000000
vn -0.000000 1.000000 0.000000
vn -0.000000 1.000000 0.000000
vn -0.000000 1.000000 0.000000
vn -0.000000 1.000000 0.000000
vn -0.800000 0.600000 0.000000
vn -0.800000 0.600000 0.000000
vn -0.800000 0.600000 0.000000
vn -0.800000 0.600000 0.000000
vn -0.800000 0.600000 0.000000
vn -0.800000 0.600000 0.000000
vn -0.800000 -0.600000 -0.000000
vn -0.800000 -0.600000 -0.000000
vn -0.800000 -0.600000 -0.000000
vn -0.800000 -0.599999 0.000000
vn -0.800000 -0.599999 0.000000
vn -0.800000 -0.599999 0.000000
vn -1.000000 0.000000 0.000000
vn -1.000000 0.000000 0.000000
vn -1.000000 0.000000 0.000000
vn -1.000000 0.000000 0.000000
vn -1.000000 0.000000 0.000000
vn -1.000000 0.000000 0.000000
vn -0.410156 0.912015 0.000000
vn -0.410156 0.912015 0.000000
vn -0.410156 0.912015 0.000000
vn -0.000000 0.637826 0.770181
vn -0.000000 0.637826 0.770181
vn -0.000000 0.637826 0.770181
vn -0.000000 0.637826 0.770180
vn -0.000000 0.637826 0.770180
vn -0.000000 0.637826 0.770180
vn 0.650041 0.759899 0.000000
vn 0.650041 0.759899 0.000000
vn 0.650041 0.759899 0.000000
vn 0.650041 0.759899 -0.000000
vn 0.650041 0.759899 -0.000000
vn 0.650041 0.759899 -0.000000
vn -0.650041 0.759899 0.000000
vn -0.650041 0.759899 0.000000
vn -0.650041 0.759899 0.000000
vn -0.650041 0.759899 0.000000
vn -0.650041 0.759899 0.000000
vn -0.650041 0.759899 0.000000
vn -0.000000 0.637826 -0.770180
vn -0.000000 0.637826 -0.770180
vn -0.000000 0.637826 -0.770180
vn -0.000000 0.637827 -0.770180
vn -0.000000 0.637827 -0.770180
vn -0.000000 0.637827 -0.770180
vn -0.000000 0.637826 -0.770180
vn -0.000000 0.637826 -0.770180
vn -0.000000 0.637826 -0.770180
vn -0.000000 0.637827 -0.770180
vn -0.000000 0.637827 -0.770180
vn -0.000000 0.637827 -0.770180
vn -0.000000 0.637826 -0.770181
vn -0.000000 0.637826 -0.770181
vn -0.000000 0.637826 -0.770181
vn -0.000000 0.637827 -0.770180
vn -0.000000 0.637827 -0.770180
vn -0.000000 0.637827 -0.770180
vn -0.000000 -0.637827 -0.770180
vn -0.000000 -0.637827 -0.770180
vn -0.000000 -0.637827 -0.770180
vn -0.000000 -0.637827 -0.770180
vn -0.000000 -0.637827 -0.770180
vn -0.000000 -0.637827 -0.770180
vn -0.000000 0.000000 -1.000000
vn -0.000000 0.000000 -1.000000
vn -0.000000 0.000000 -1.000000
vn -0.000000 0.000000 -1.000000
vn -0.000000 0.000000 -1.000000
vn -0.000000 0.000000 -1.000000
vn -0.000000 -0.637827 -0.770180
vn -0.000000 -0.637827 -0.770180
vn -0.000000 -0.637827 -0.770180
vn -0.000000 -0.637827 -0.770180
vn -0.000000 -0.637827 -0.770180
vn -0.000000 -0.637827 -0.770180
vn -0.000000 0.000000 -1.000000
vn -0.000000 0.000000 -1.000000
vn -0.000000 0.000000 -1.000000
vn -0.000000 0.000000 -1.000000
vn -0.000000 0.000000 -1.000000
vn -0.000000 0.000000 -1.000000
vn -0.000000 -0.637827 -0.770180
vn -0.000000 -0.637827 -0.770180
vn -0.000000 -0.637827 -0.770180
vn -0.000000 -0.637826 -0.770180
vn -0.000000 -0.637826 -0.770180
vn -0.000000 -0.637826 -0.770180
vn -0.000000 0.000000 -1.000000
vn -0.000000 0.000000 -1.000000
vn -0.000000 0.000000 -1.000000
vn -0.000000 0.000000 -1.000000
vn -0.000000 0.000000 -1.000000
vn -0.000000 0.000000 -1.000000
vn -0.650040 0.759900 0.000000
vn -0.650040 0.759900 0.000000
vn -0.650040 0.759900 0.000000
vn -0.650042 0.759899 0.000000
vn -0.650042 0.759899 0.000000
vn -0.650042 0.759899 0.000000
vn -0.650041 0.759899 0.000000
vn -0.650041 0.759899 0.000000
vn -0.650041 0.759899 0.000000
vn -0.650042 0.759899 0.000000
vn -0.650042 0.759899 0.000000
vn -0.650042 0.759899 0.000000
vn -0.650040 -0.759900 0.000000
vn -0.650040 -0.759900 0.000000
vn -0.650040 -0.759900 0.000000
vn -0.650041 -0.759899 0.000000
vn -0.650041 -0.759899 0.000000
vn -0.650041 -0.759899 0.000000
vn -1.000000 0.000000 0.000000
vn -1.000000 0.000000 0.000000
vn -1.000000 0.000000 0.000000
vn -1.000000 0.000000 0.000000
vn -1.000000 0.000000 0.000000
vn -1.000000 0.000000 0.000000
vn -0.650040 -0.759900 0.000000
vn -0.650040 -0.759900 0.000000
vn -0.650040 -0.759900 0.000000
vn -0.650041 -0.759899 0.000000
vn -0.650041 -0.759899 0.000000
vn -0.650041 -0.759899 0.000000
vn -1.000000 0.000000 0.000000
vn -1.000000 0.000000 0.000000
vn -1.000000 0.000000 0.000000
vn -1.000000 0.000000 0.000000
vn -1.000000 0.000000 0.000000
vn -1.000000 0.000000 0.000000
vn -0.650040 -0.759900 0.000000
vn -0.650040 -0.759900 0.000000
vn -0.650040 -0.759900 0.000000
vn -0.650041 -0.759900 0.000000
vn -0.650041 -0.759900 0.000000
vn -0.650041 -0.759900 0.000000
vn -1.000000 0.000000 0.000000
vn -1.000000 0.000000 0.000000
vn -1.000000 0.000000 0.000000
vn -1.000000 0.000000 0.000000
vn -1.000000 0.000000 0.000000
vn -1.000000 0.000000 0.000000
vn 0.650041 0.759899 0.000000
vn 0.650041 0.759899 0.000000
vn 0.650041 0.759899 0.000000
vn 0.650041 0.759899 0.000000
vn 0.650041 0.759899 0.000000
vn 0.650041 0.759899 0.000000
vn 0.650041 0.759899 0.000000
vn 0.650041 0.759899 0.000000
vn 0.650041 0.759899 0.000000
vn 0.650042 0.759899 0.000000
vn 0.650042 0.759899 0.000000
vn 0.650042 0.759899 0.000000
vn 0.650041 -0.759899 -0.000000
vn 0.650041 -0.759899 -0.000000
vn 0.650041 -0.759899 -0.000000
vn 0.650040 -0.759900 0.000000
vn 0.650040 -0.759900 0.000000
vn 0.650040 -0.759900 0.000000
vn 1.000000 0.000000 0.000000
vn 1.000000 0.000000 0.000000
vn 1.000000 0.000000 0.000000
vn 1.000000 0.000000 0.000000
vn 1.000000 0.000000 0.000000
vn 1.000000 0.000000 0.000000
vn 0.650040 -0.759900 0.000000
vn 0.650040 -0.759900 0.000000
vn 0.650040 -0.759900 0.000000
vn 0.650041 -0.759899 0.000000
vn 0.650041 -0.759899 0.000000
vn 0.650041 -0.759899 0.000000
vn 1.000000 0.000000 0.000000
vn 1.000000 0.000000 0.000000
vn 1.000000 0.000000 0.000000
vn 1.000000 0.000000 0.000000
vn 1.000000 0.000000 0.000000
vn 1.000000 0.000000 0.000000
vn 0.650041 -0.759899 0.000000
vn 0.650041 -0.759899 0.000000
vn 0.650041 -0.759899 0.000000
vn 0.650041 -0.759899 0.000000
vn 0.650041 -0.759899 0.000000
vn 0.650041 -0.759899 0.000000
vn 1.000000 0.000000 0.000000
vn 1.000000 0.000000 0.000000
vn 1.000000 0.000000 0.000000
vn 1.000000 0.000000 0.000000
vn 1.000000 0.000000 0.000000
vn 1.000000 0.000000 0.000000
vn -0.000000 0.637826 0.770180
vn -0.000000 0.637826 0.770180
vn -0.000000 0.637826 0.770180
vn -0.000000 0.637826 0.770180
vn -0.000000 0.637826 0.770180
vn -0.000000 0.637826 0.770180
vn -0.000000 0.637826 0.770180
vn -0.000000 0.637826 0.770180
vn -0.000000 0.637826 0.770180
vn -0.000000 0.637826 0.770181
vn -0.000000 0.637826 0.770181
vn -0.000000 0.637826 0.770181
vn 0.000000 -0.637827 0.770180
vn 0.000000 -0.637827 0.770180
vn 0.000000 -0.637827 0.770180
vn -0.000000 -0.637827 0.770180
vn -0.000000 -0.637827 0.770180
vn -0.000000 -0.637827 0.770180
vn -0.000000 0.000000 1.000000
vn -0.000000 0.000000 1.000000
vn -0.000000 0.000000 1.000000
vn -0.000000 0.000000 1.000000
vn -0.000000 0.000000 1.000000
vn -0.000000 0.000000 1.000000
vn -0.000000 -0.637827 0.770180
vn -0.000000 -0.637827 0.770180
vn -0.000000 -0.637827 0.770180
vn -0.000000 -0.637827 0.770180
vn -0.000000 -0.637827 0.770180
vn -0.000000 -0.637827 0.770180
vn -0.000000 0.000000 1.000000
vn -0.000000 0.000000 1.000000
vn -0.000000 0.000000 1.000000
vn -0.000000 0.000000 1.000000
vn -0.000000 0.000000 1.000000
vn -0.000000 0.000000 1.000000
vn -0.000000 -0.637828 0.770179
vn -0.000000 -0.637828 0.770179
vn -0.000000 -0.637828 0.770179
vn -0.000000 -0.637825 0.770181
vn -0.000000 -0.637825 0.770181
vn -0.000000 -0.637825 0.770181
vn -0.000000 0.000000 1.000000
vn -0.000000 0.000000 1.000000
vn -0.000000 0.000000 1.000000
vn -0.000000 0.000000 1.000000
vn -0.000000 0.000000 1.000000
vn -0.000000 0.000000 1.000000
vn 0.410156 0.912015 0.000000
vn 0.410156 0.912015 0.000000
vn 0.410156 0.912015 0.000000
vn -0.000000 0.844250 -0.535949
vn -0.000000 0.844250 -0.535949
vn -0.000000 0.844250 -0.535949
vn 0.000000 0.844250 -0.535950
vn 0.000000 0.844250 -0.535950
vn 0.000000 0.844250 -0.535950
vn 0.410156 0.912015 0.000000
vn 0.410156 0.912015 0.000000
vn 0.410156 0.912015 0.000000
vn 0.410156 0.912015 0.000000
vn 0.410156 0.912015 0.000000
vn 0.410156 0.912015 0.000000
vn 0.410156 0.912015 0.000000
vn 0.410156 0.912015 0.000000
vn 0.410156 0.912015 0.000000
vn -0.000000 0.844250 0.535949
vn -0.000000 0.844250 0.535949
vn -0.000000 0.844250 0.535949
vn -0.000000 0.844250 0.535949
vn -0.000000 0.844250 0.535949
vn -0.000000 0.844250 0.535949
vn -0.000000 1.000000 0.000000
vn -0.000000 1.000000 0.000000
vn -0.000000 1.000000 0.000000
vn -0.000000 1.000000 0.000000
vn -0.000000 1.000000 0.000000
vn -0.000000 1.000000 0.000000
vn -0.000000 0.844250 0.535949
vn -0.000000 0.844250 0.535949
vn -0.000000 0.844250 0.535949
vn -0.410156 0.912015 0.000000
vn -0.410156 0.912015 0.000000
vn -0.410156 0.912015 0.000000
vn -0.410156 0.912015 0.000000
vn -0.410156 0.912015 0.000000
vn -0.410156 0.912015 0.000000
vn -0.000000 0.844250 -0.535949
vn -0.000000 0.844250 -0.535949
vn -0.000000 0.844250 -0.535949
vn -0.410156 0.912015 0.000000
vn -0.410156 0.912015 0.000000
vn -0.410156 0.912015 0.000000
vn -0.000000 0.844250 -0.535950
vn -0.000000 0.844250 -0.535950
vn -0.000000 0.844250 -0.535950
vn -0.000000 0.844250 0.535949
vn -0.000000 0.844250 0.535949
vn -0.000000 0.844250 0.535949
vn 1.000000 0.000000 0.000000
vn 1.000000 0.000000 0.000000
vn 1.000000 0.000000 0.000000
vn 1.000000 0.000000 0.000000
vn 1.000000 0.000000 0.000000
vn 1.000000 0.000000 0.000000
vn -0.000000 0.000000 1.000000
vn -0.000000 0.000000 1.000000
vn -0.000000 0.000000 1.000000
vn -0.000000 0.000000 1.000000
vn -0.000000 0.000000 1.000000
vn -0.000000 0.000000 1.000000
vn -1.000000 0.000000 0.000000
vn -1.000000 0.000000 0.000000
vn -1.000000 0.000000 0.000000
vn -1.000000 0.000000 0.000000
vn -1.000000 0.000000 0.000000
vn -1.000000 0.000000 0.000000
vn -0.000000 0.000000 -1.000000
vn -0.000000 0.000000 -1.000000
vn -0.000000 0.000000 -1.000000
vn -0.000000 0.000000 -1.000000
vn -0.000000 0.000000 -1.000000
vn -0.000000 0.000000 -1.000000
vn -0.000000 -1.000000 0.000000
vn -0.000000 -1.000000 0.000000
vn -0.000000 -1.000000 0.000000
vn -0.000000 -1.000000 0.000000
vn -0.000000 -1.000000 0.000000
vn -0.000000 -1.000000 0.000000
vn -0.000000 -0.344551 -0.938768
vn -0.000000 -0.344551 -0.938768
vn -0.000000 -0.344551 -0.938768
vn -0.000000 -0.344551 -0.938768
vn -0.000000 -0.344551 -0.938768
vn -0.000000 -0.344551 -0.938768
vn -0.938767 -0.344552 0.000000
vn -0.938767 -0.344552 0.000000
vn -0.938767 -0.344552 0.000000
vn -0.938767 -0.344553 0.000000
vn -0.938767 -0.344553 0.000000
vn -0.938767 -0.344553 0.000000
vn -0.000000 -0.344553 0.938767
vn -0.000000 -0.344553 0.938767
vn -0.000000 -0.344553 0.938767
vn -0.000000 -0.344555 0.938766
vn -0.000000 -0.344555 0.938766
vn -0.000000 -0.344555 0.938766
vn 0.938768 -0.344551 0.000000
vn 0.938768 -0.344551 0.000000
vn 0.938768 -0.344551 0.000000
vn 0.938767 -0.344553 0.000000
vn 0.938767 -0.344553 0.000000
vn 0.938767 -0.344553 0.000000
vn 1.000000 0.000000 0.000000
vn 1.000000 0.000000 0.000000
vn 1.000000 0.000000 0.000000
vn 1.000000 0.000000 0.000000
vn 1.000000 0.000000 0.000000
vn 1.000000 0.000000 0.000000
vn -0.000000 0.000000 -1.000000
vn -0.000000 0.000000 -1.000000
vn -0.000000 0.000000 -1.000000
vn -0.000000 0.000000 -1.000000
vn -0.000000 0.000000 -1.000000
vn -0.000000 0.000000 -1.000000
vn -1.000000 0.000000 0.000000
vn -1.000000 0.000000 0.000000
vn -1.000000 0.000000 0.000000
vn -1.000000 0.000000 0.000000
vn -1.000000 0.000000 0.000000
vn -1.000000 0.000000 0.000000
vn -0.000000 0.000000 1.000000
vn -0.000000 0.000000 1.000000
vn -0.000000 0.000000 1.000000
vn -0.000000 0.000000 1.000000
vn -0.000000 0.000000 1.000000
vn -0.000000 0.000000 1.000000
vn -0.000000 -1.000000 0.000000
vn -0.000000 -1.000000 0.000000
vn -0.000000 -1.000000 0.000000
vn -0.000000 -1.000000 0.000000
vn -0.000000 -1.000000 0.000000
vn -0.000000 -1.000000 0.000000
vn -0.000000 -0.344552 0.938767
vn -0.000000 -0.344552 0.938767
vn -0.000000 -0.344552 0.938767
vn -0.000000 -0.344553 0.938767
vn -0.000000 -0.344553 0.938767
vn -0.000000 -0.344553 0.938767
vn -0.938767 -0.344552 0.000000
vn -0.938767 -0.344552 0.000000
vn -0.938767 -0.344552 0.000000
vn -0.938767 -0.344552 0.000000
vn -0.938767 -0.344552 0.000000
vn -0.938767 -0.344552 0.000000
vn -0.000000 -0.344553 -0.938767
vn -0.000000 -0.344553 -0.938767
vn -0.000000 -0.344553 -0.938767
vn -0.000000 -0.344553 -0.938767
vn -0.000000 -0.344553 -0.938767
vn -0.000000 -0.344553 -0.938767
vn 0.938767 -0.344552 0.000000
vn 0.938767 -0.344552 0.000000
vn 0.938767 -0.344552 0.000000
vn 0.938767 -0.344551 0.000000
vn 0.938767 -0.344551 0.000000
vn 0.938767 -0.344551 0.000000
vn -1.000000 0.000000 0.000000
vn -1.000000 0.000000 0.000000
vn -1.000000 0.000000 0.000000
vn -1.000000 0.000000 0.000000
vn -1.000000 0.000000 0.000000
vn -1.000000 0.000000 0.000000
vn -0.000000 0.000000 1.000000
vn -0.000000 0.000000 1.000000
vn -0.000000 0.000000 1.000000
vn -0.000000 0.000000 1.000000
vn -0.000000 0.000000 1.000000
vn -0.000000 0.000000 1.000000
vn 1.000000 0.000000 0.000000
vn 1.000000 0.000000 0.000000
vn 1.000000 0.000000 0.000000
vn 1.000000 0.000000 0.000000
vn 1.000000 0.000000 0.000000
vn 1.000000 0.000000 0.000000
vn -0.000000 0.000000 -1.000000
vn -0.000000 0.000000 -1.000000
vn -0.000000 0.000000 -1.000000
vn -0.000000 0.000000 -1.000000
vn -0.000000 0.000000 -1.000000
vn -0.000000 0.000000 -1.000000
vn -0.000000 -1.000000 0.000000
vn -0.000000 -1.000000 0.000000
vn -0.000000 -1.000000 0.000000
vn -0.000000 -1.000000 0.000000
vn -0.000000 -1.000000 0.000000
vn -0.000000 -1.000000 0.000000
vn -0.000000 -0.344552 -0.938767
vn -0.000000 -0.344552 -0.938767
vn -0.000000 -0.344552 -0.938767
vn -0.000000 -0.344550 -0.938768
vn -0.000000 -0.344550 -0.938768
vn -0.000000 -0.344550 -0.938768
vn 0.938767 -0.344553 0.000000
vn 0.938767 -0.344553 0.000000
vn 0.938767 -0.344553 0.000000
vn 0.938767 -0.344552 0.000000
vn 0.938767 -0.344552 0.000000
vn 0.938767 -0.344552 0.000000
vn -0.000000 -0.344552 0.938767
vn -0.000000 -0.344552 0.938767
vn -0.000000 -0.344552 0.938767
vn -0.000000 -0.344556 0.938766
vn -0.000000 -0.344556 0.938766
vn -0.000000 -0.344556 0.938766
vn -0.938768 -0.344551 0.000000
vn -0.938768 -0.344551 0.000000
vn -0.938768 -0.344551 0.000000
vn -0.938768 -0.344550 0.000000
vn -0.938768 -0.344550 0.000000
vn -0.938768 -0.344550 0.000000
vn -1.000000 0.000000 0.000000
vn -1.000000 0.000000 0.000000
vn -1.000000 0.000000 0.000000
vn -1.000000 0.000000 0.000000
vn -1.000000 0.000000 0.000000
vn -1.000000 0.000000 0.000000
vn -0.000000 0.000000 -1.000000
vn -0.000000 0.000000 -1.000000
vn -0.000000 0.000000 -1.000000
vn -0.000000 0.000000 -1.000000
vn -0.000000 0.000000 -1.000000
vn -0.000000 0.000000 -1.000000
vn 1.000000 0.000000 0.000000
vn 1.000000 0.000000 0.000000
vn 1.000000 0.000000 0.000000
vn 1.000000 0.000000 0.000000
vn 1.000000 0.000000 0.000000
vn 1.000000 0.000000 0.000000
vn -0.000000 0.000000 1.000000
vn -0.000000 0.000000 1.000000
vn -0.000000 0.000000 1.000000
vn -0.000000 0.000000 1.000000
vn -0.000000 0.000000 1.000000
vn -0.000000 0.000000 1.000000
vn -0.000000 -1.000000 0.000000
vn -0.000000 -1.000000 0.000000
vn -0.000000 -1.000000 0.000000
vn -0.000000 -1.000000 0.000000
vn -0.000000 -1.000000 0.000000
vn -0.000000 -1.000000 0.000000
vn -0.000000 -0.344553 0.938767
vn -0.000000 -0.344553 0.938767
vn -0.000000 -0.344553 0.938767
vn -0.000000 -0.344552 0.938767
vn -0.000000 -0.344552 0.938767
vn -0.000000 -0.344552 0.938767
vn 0.938767 -0.344553 0.000000
vn 0.938767 -0.344553 0.000000
vn 0.938767 -0.344553 0.000000
vn 0.938767 -0.344553 0.000000
vn 0.938767 -0.344553 0.000000
vn 0.938767 -0.344553 0.000000
vn -0.000000 -0.344552 -0.938767
vn -0.000000 -0.344552 -0.938767
vn -0.000000 -0.344552 -0.938767
vn -0.000000 -0.344556 -0.938766
vn -0.000000 -0.344556 -0.938766
vn -0.000000 -0.344556 -0.938766
vn -0.938768 -0.344551 0.000000
vn -0.938768 -0.344551 0.000000
vn -0.938768 -0.344551 0.000000
vn -0.938767 -0.344551 0.000000
vn -0.938767 -0.344551 0.000000
vn -0.938767 -0.344551 0.000000

g wood
f 3/1/1 1/2/2 2/3/3
f 4/4/4 1/5/5 3/6/6
f 7/7/7 5/8/8 6/9/9
f 8/10/10 5/11/11 7/12/12
f 11/13/13 9/14/14 10/15/15
f 12/16/16 9/17/17 11/18/18
f 15/19/19 13/20/20 14/21/21
f 16/22/22 13/23/23 15/24/24
f 19/25/25 17/26/26 18/27/27
f 20/28/28 17/29/29 19/30/30
f 23/31/31 21/32/32 22/33/33
f 24/34/34 21/35/35 23/36/36
f 27/37/37 25/38/38 26/39/39
f 28/40/40 25/41/41 27/42/42
f 31/43/43 29/44/44 30/45/45
f 32/46/46 29/47/47 31/48/48
f 35/49/49 33/50/50 34/51/51
f 36/52/52 33/53/53 35/54/54
f 39/55/55 37/56/56 38/57/57
f 40/58/58 37/59/59 39/60/60
f 43/61/61 41/62/62 42/63/63
f 44/64/64 41/65/65 43/66/66
f 47/67/67 45/68/68 46/69/69
f 48/70/70 45/71/71 47/72/72
f 51/73/73 49/74/74 50/75/75
f 52/76/76 49/77/77 51/78/78
f 55/79/79 53/80/80 54/81/81
f 56/82/82 53/83/83 55/84/84
f 59/85/85 57/86/86 58/87/87
f 60/88/88 57/89/89 59/90/90
f 63/91/91 61/92/92 62/93/93
f 64/94/94 61/95/95 63/96/96
f 67/97/97 65/98/98 66/99/99
f 68/100/100 65/101/101 67/102/102
f 71/103/103 69/104/104 70/105/105
f 72/106/106 69/107/107 71/108/108
f 75/109/109 73/110/110 74/111/111
f 76/112/112 73/113/113 75/114/114
f 79/115/115 77/116/116 78/117/117
f 80/118/118 77/119/119 79/120/120
f 83/121/121 81/122/122 82/123/123
f 84/124/124 81/125/125 83/126/126
f 87/127/127 85/128/128 86/129/129
f 88/130/130 85/131/131 87/132/132
f 107/133/133 105/134/134 106/135/135
f 108/136/136 105/137/137 107/138/138
f 371/139/139 369/140/140 370/141/141
f 372/142/142 369/143/143 371/144/144
f 375/145/145 373/146/146 374/147/147
f 376/148/148 373/149/149 375/150/150
f 379/151/151 377/152/152 378/153/153
f 380/154/154 377/155/155 379/156/156
f 383/157/157 381/158/158 382/159/159
f 384/160/160 381/161/161 383/162/162
f 387/163/163 385/164/164 386/165/165
f 388/166/166 385/167/167 387/168/168
f 391/169/169 389/170/170 390/171/171
f 392/172/172 389/173/173 391/174/174
f 395/175/175 393/176/176 394/177/177
f 396/178/178 393/179/179 395/180/180
f 399/181/181 397/182/182 398/183/183
f 400/184/184 397/185/185 399/186/186
f 403/187/187 401/188/188 402/189/189
f 404/190/190 401/191/191 403/192/192
f 407/193/193 405/194/194 406/195/195
f 408/196/196 405/197/197 407/198/198
f 411/199/199 409/200/200 410/201/201
f 412/202/202 409/203/203 411/204/204
f 415/205/205 413/206/206 414/207/207
f 416/208/208 413/209/209 415/210/210
f 419/211/211 417/212/212 418/213/213
f 420/214/214 417/215/215 419/216/216
f 423/217/217 421/218/218 422/219/219
f 424/220/220 421/221/221 423/222/222
f 427/223/223 425/224/224 426/225/225
f 428/226/226 425/227/227 427/228/228
f 431/229/229 429/230/230 430/231/231
f 432/232/232 429/233/233 431/234/234
f 435/235/235 433/236/236 434/237/237
f 436/238/238 433/239/239 435/240/240
f 439/241/241 437/242/242 438/243/243
f 440/244/244 437/245/245 439/246/246
f 443/247/247 441/248/248 442/249/249
f 444/250/250 441/251/251 443/252/252
f 447/253/253 445/254/254 446/255/255
f 448/256/256 445/257/257 447/258/258
f 451/259/259 449/260/260 450/261/261
f 452/262/262 449/263/263 451/264/264
f 455/265/265 453/266/266 454/267/267
f 456/268/268 453/269/269 455/270/270
f 475/271/271 473/272/272 474/273/273
f 476/274/274 473/275/275 475/276/276

g wool
f 91/277/277 89/278/278 90/279/279
f 92/280/280 89/281/281 91/282/282
f 95/283/283 93/284/284 94/285/285
f 96/286/286 93/287/287 95/288/288
f 99/289/289 97/290/290 98/291/291
f 100/292/292 97/293/293 99/294/294
f 103/295/295 101/296/296 102/297/297
f 104/298/298 101/299/299 103/300/300
f 183/301/301 181/302/302 182/303/303
f 186/304/304 184/305/305 185/306/306
f 187/307/307 184/308/308 186/309/309
f 190/310/310 188/311/311 189/312/312
f 191/313/313 188/314/314 190/315/315
f 194/316/316 192/317/317 193/318/318
f 195/319/319 192/320/320 194/321/321
f 198/322/322 196/323/323 197/324/324
f 199/325/325 196/326/326 198/327/327
f 202/328/328 200/329/329 201/330/330
f 203/331/331 200/332/332 202/333/333
f 206/334/334 204/335/335 205/336/336
f 207/337/337 204/338/338 206/339/339
f 210/340/340 208/341/341 209/342/342
f 211/343/343 208/344/344 210/345/345
f 214/346/346 212/347/347 213/348/348
f 215/349/349 212/350/350 214/351/351
f 218/352/352 216/353/353 217/354/354
f 219/355/355 216/356/356 218/357/357
f 222/358/358 220/359/359 221/360/360
f 223/361/361 220/362/362 222/363/363
f 226/364/364 224/365/365 225/366/366
f 227/367/367 224/368/368 226/369/369
f 230/370/370 228/371/371 229/372/372
f 231/373/373 228/374/374 230/375/375
f 234/376/376 232/377/377 233/378/378
f 235/379/379 232/380/380 234/381/381
f 238/382/382 236/383/383 237/384/384
f 239/385/385 236/386/386 238/387/387
f 242/388/388 240/389/389 241/390/390
f 243/391/391 240/392/392 242/393/393
f 246/394/394 244/395/395 245/396/396
f 247/397/397 244/398/398 246/399/399
f 250/400/400 248/401/401 249/402/402
f 251/403/403 248/404/404 250/405/405
f 254/406/406 252/407/407 253/408/408
f 255/409/409 252/410/410 254/411/411
f 258/412/412 256/413/413 257/414/414
f 259/415/415 256/416/416 258/417/417
f 262/418/418 260/419/419 261/420/420
f 263/421/421 260/422/422 262/423/423
f 266/424/424 264/425/425 265/426/426
f 267/427/427 264/428/428 266/429/429
f 270/430/430 268/431/431 269/432/432
f 271/433/433 268/434/434 270/435/435
f 274/436/436 272/437/437 273/438/438
f 275/439/439 272/440/440 274/441/441
f 278/442/442 276/443/443 277/444/444
f 279/445/445 276/446/446 278/447/447
f 282/448/448 280/449/449 281/450/450
f 283/451/451 280/452/452 282/453/453
f 286/454/454 284/455/455 285/456/456
f 287/457/457 284/458/458 286/459/459
f 290/460/460 288/461/461 289/462/462
f 291/463/463 288/464/464 290/465/465
f 294/466/466 292/467/467 293/468/468
f 295/469/469 292/470/470 294/471/471
f 298/472/472 296/473/473 297/474/474
f 299/475/475 296/476/476 298/477/477
f 302/478/478 300/479/479 301/480/480
f 303/481/481 300/482/482 302/483/483
f 306/484/484 304/485/485 305/486/486
f 307/487/487 304/488/488 306/489/489
f 310/490/490 308/491/491 309/492/492
f 311/493/493 308/494/494 310/495/495
f 314/496/496 312/497/497 313/498/498
f 315/499/499 312/500/500 314/501/501
f 318/502/502 316/503/503 317/504/504
f 319/505/505 316/506/506 318/507/507
f 322/508/508 320/509/509 321/510/510
f 323/511/511 320/512/512 322/513/513
f 326/514/514 324/515/515 325/516/516
f 327/517/517 324/518/518 326/519/519
f 330/520/520 328/521/521 329/522/522
f 333/523/523 331/524/524 332/525/525
f 334/526/526 331/527/527 333/528/528
f 337/529/529 335/530/530 336/531/531
f 340/532/532 338/533/533 339/534/534
f 341/535/535 338/536/536 340/537/537
f 344/538/538 342/539/539 343/540/540
f 345/541/541 342/542/542 344/543/543
f 348/544/544 346/545/545 347/546/546
f 349/547/547 346/548/548 348/549/549
f 352/550/550 350/551/551 351/552/552
f 355/553/553 353/554/554 354/555/555
f 356/556/556 353/557/557 355/558/558
f 359/559/559 357/560/560 358/561/561
f 362/562/562 360/563/563 361/564/564
f 365/565/565 363/566/566 364/567/567
f 368/568/568 366/569/569 367/570/570
f 459/571/571 457/572/572 458/573/573
f 460/574/574 457/575/575 459/576/576
f 463/577/577 461/578/578 462/579/579
f 464/580/580 461/581/581 463/582/582
f 467/583/583 465/584/584 466/585/585
f 468/586/586 465/587/587 467/588/588
f 471/589/589 469/590/590 470/591/591
f 472/592/592 469/593/593 471/594/594
f 551/595/595 549/596/596 550/597/597
f 554/598/598 552/599/599 553/600/600
f 555/601/601 552/602/602 554/603/603
f 558/604/604 556/605/605 557/606/606
f 559/607/607 556/608/608 558/609/609
f 562/610/610 560/611/611 561/612/612
f 563/613/613 560/614/614 562/615/615
f 566/616/616 564/617/617 565/618/618
f 567/619/619 564/620/620 566/621/621
f 570/622/622 568/623/623 569/624/624
f 571/625/625 568/626/626 570/627/627
f 574/628/628 572/629/629 573/630/630
f 575/631/631 572/632/632 574/633/633
f 578/634/634 576/635/635 577/636/636
f 579/637/637 576/638/638 578/639/639
f 582/640/640 580/641/641 581/642/642
f 583/643/643 580/644/644 582/645/645
f 586/646/646 584/647/647 585/648/648
f 587/649/649 584/650/650 586/651/651
f 590/652/652 588/653/653 589/654/654
f 591/655/655 588/656/656 590/657/657
f 594/658/658 592/659/659 593/660/660
f 595/661/661 592/662/662 594/663/663
f 598/664/664 596/665/665 597/666/666
f 599/667/667 596/668/668 598/669/669
f 602/670/670 600/671/671 601/672/672
f 603/673/673 600/674/674 602/675/675
f 606/676/676 604/677/677 605/678/678
f 607/679/679 604/680/680 606/681/681
f 610/682/682 608/683/683 609/684/684
f 611/685/685 608/686/686 610/687/687
f 614/688/688 612/689/689 613/690/690
f 615/691/691 612/692/692 614/693/693
f 618/694/694 616/695/695 617/696/696
f 619/697/697 616/698/698 618/699/699
f 622/700/700 620/701/701 621/702/702
f 623/703/703 620/704/704 622/705/705
f 626/706/706 624/707/707 625/708/708
f 627/709/709 624/710/710 626/711/711
f 630/712/712 628/713/713 629/714/714
f 631/715/715 628/716/716 630/717/717
f 634/718/718 632/719/719 633/720/720
f 635/721/721 632/722/722 634/723/723
f 638/724/724 636/725/725 637/726/726
f 639/727/727 636/728/728 638/729/729
f 642/730/730 640/731/731 641/732/732
f 643/733/733 640/734/734 642/735/735
f 646/736/736 644/737/737 645/738/738
f 647/739/739 644/740/740 646/741/741
f 650/742/742 648/743/743 649/744/744
f 651/745/745 648/746/746 650/747/747
f 654/748/748 652/749/749 653/750/750
f 655/751/751 652/752/752 654/753/753
f 658/754/754 656/755/755 657/756/756
f 659/757/757 656/758/758 658/759/759
f 662/760/760 660/761/761 661/762/762
f 663/763/763 660/764/764 662/765/765
f 666/766/766 664/767/767 665/768/768
f 667/769/769 664/770/770 666/771/771
f 670/772/772 668/773/773 669/774/774
f 671/775/775 668/776/776 670/777/777
f 674/778/778 672/779/779 673/780/780
f 675/781/781 672/782/782 674/783/783
f 678/784/784 676/785/785 677/786/786
f 679/787/787 676/788/788 678/789/789
f 682/790/790 680/791/791 681/792/792
f 683/793/793 680/794/794 682/795/795
f 686/796/796 684/797/797 685/798/798
f 687/799/799 684/800/800 686/801/801
f 690/802/802 688/803/803 689/804/804
f 691/805/805 688/806/806 690/807/807
f 694/808/808 692/809/809 693/810/810
f 695/811/811 692/812/812 694/813/813
f 698/814/814 696/815/815 697/816/816
f 701/817/817 699/818/818 700/819/819
f 702/820/820 699/821/821 701/822/822
f 705/823/823 703/824/824 704/825/825
f 708/826/826 706/827/827 707/828/828
f 709/829/829 706/830/830 708/831/831
f 712/832/832 710/833/833 711/834/834
f 713/835/835 710/836/836 712/837/837
f 716/838/838 714/839/839 715/840/840
f 717/841/841 714/842/842 716/843/843
f 720/844/844 718/845/845 719/846/846
f 723/847/847 721/848/848 722/849/849
f 724/850/850 721/851/851 723/852/852
f 727/853/853 725/854/854 726/855/855
f 730/856/856 728/857/857 729/858/858
f 733/859/859 731/860/860 732/861/861
f 736/862/862 734/863/863 735/864/864

g legs
f 111/865/865 109/866/866 110/867/867
f 112/868/868 109/869/869 111/870/870
f 115/871/871 113/872/872 114/873/873
f 116/874/874 113/875/875 115/876/876
f 119/877/877 117/878/878 118/879/879
f 120/880/880 117/881/881 119/882/882
f 123/883/883 121/884/884 122/885/885
f 124/886/886 121/887/887 123/888/888
f 127/889/889 125/890/890 126/891/891
f 128/892/892 125/893/893 127/894/894
f 131/895/895 129/896/896 130/897/897
f 132/898/898 129/899/899 131/900/900
f 135/901/901 133/902/902 134/903/903
f 136/904/904 133/905/905 135/906/906
f 139/907/907 137/908/908 138/909/909
f 140/910/910 137/911/911 139/912/912
f 143/913/913 141/914/914 142/915/915
f 144/916/916 141/917/917 143/918/918
f 147/919/919 145/920/920 146/921/921
f 148/922/922 145/923/923 147/924/924
f 151/925/925 149/926/926 150/927/927
f 152/928/928 149/929/929 151/930/930
f 155/931/931 153/932/932 154/933/933
f 156/934/934 153/935/935 155/936/936
f 159/937/937 157/938/938 158/939/939
f 160/940/940 157/941/941 159/942/942
f 163/943/943 161/944/944 162/945/945
f 164/946/946 161/947/947 163/948/948
f 167/949/949 165/950/950 166/951/951
f 168/952/952 165/953/953 167/954/954
f 171/955/955 169/956/956 170/957/957
f 172/958/958 169/959/959 171/960/960
f 175/961/961 173/962/962 174/963/963
f 176/964/964 173/965/965 175/966/966
f 179/967/967 177/968/968 178/969/969
f 180/970/970 177/971/971 179/972/972
f 479/973/973 477/974/974 478/975/975
f 480/976/976 477/977/977 479/978/978
f 483/979/979 481/980/980 482/981/981
f 484/982/982 481/983/983 483/984/984
f 487/985/985 485/986/986 486/987/987
f 488/988/988 485/989/989 487/990/990
f 491/991/991 489/992/992 490/993/993
f 492/994/994 489/995/995 491/996/996
f 495/997/997 493/998/998 494/999/999
f 496/1000/1000 493/1001/1001 495/1002/1002
f 499/1003/1003 497/1004/1004 498/1005/1005
f 500/1006/1006 497/1007/1007 499/1008/1008
f 503/1009/1009 501/1010/1010 502/1011/1011
f 504/1012/1012 501/1013/1013 503/1014/1014
f 507/1015/1015 505/1016/1016 506/1017/1017
f 508/1018/1018 505/1019/1019 507/1020/1020
f 511/1021/1021 509/1022/1022 510/1023/1023
f 512/1024/1024 509/1025/1025 511/1026/1026
f 515/1027/1027 513/1028/1028 514/1029/1029
f 516/1030/1030 513/1031/1031 515/1032/1032
f 519/1033/1033 517/1034/1034 518/1035/1035
f 520/1036/1036 517/1037/1037 519/1038/1038
f 523/1039/1039 521/1040/1040 522/1041/1041
f 524/1042/1042 521/1043/1043 523/1044/1044
f 527/1045/1045 525/1046/1046 526/1047/1047
f 528/1048/1048 525/1049/1049 527/1050/1050
f 531/1051/1051 529/1052/1052 530/1053/1053
f 532/1054/1054 529/1055/1055 531/1056/1056
f 535/1057/1057 533/1058/1058 534/1059/1059
f 536/1060/1060 533/1061/1061 535/1062/1062
f 539/1063/1063 537/1064/1064 538/1065/1065
f 540/1066/1066 537/1067/1067 539/1068/1068
f 543/1069/1069 541/1070/1070 542/1071/1071
f 544/1072/1072 541/1073/1073 543/1074/1074
f 547/1075/1075 545/1076/1076 546/1077/1077
f 548/1078/1078 545/1079/1079 547/1080/1080

