# Converted from B3D for Luanti (With Correct Normals)
# Object Name: multidecor_book

v 0.407480 0.150000 -0.600000
v 0.407480 0.150000 0.600000
v 0.437480 0.130000 0.600000
v 0.437480 0.130000 -0.600000
v 0.457480 -0.100000 -0.600000
v 0.457480 -0.100000 0.600000
v 0.437480 -0.130000 0.600000
v 0.437480 -0.130000 -0.600000
v 0.407480 -0.150000 -0.600000
v 0.407480 -0.150000 0.600000
v -0.407480 -0.150000 0.600000
v -0.407480 -0.150000 -0.600000
v -0.407480 0.100000 -0.600000
v -0.407480 0.100000 0.600000
v -0.407480 0.150000 0.600000
v -0.407480 0.150000 -0.600000
v 0.407480 -0.100000 -0.600000
v 0.407480 -0.150000 -0.600000
v -0.407480 -0.150000 -0.600000
v -0.407480 -0.100000 -0.600000
v 0.407480 0.100000 0.600000
v 0.407480 0.150000 0.600000
v -0.407480 0.150000 0.600000
v -0.407480 0.100000 0.600000
v 0.407480 -0.150000 0.600000
v 0.407480 -0.100000 0.600000
v -0.407480 -0.100000 0.600000
v -0.407480 -0.150000 0.600000
v -0.407480 0.100000 0.600000
v -0.407480 0.100000 -0.600000
v -0.366732 0.095000 -0.570000
v -0.366732 0.095000 0.570000
v 0.407480 0.150000 -0.600000
v 0.407480 0.100000 -0.600000
v -0.407480 0.100000 -0.600000
v -0.407480 0.150000 -0.600000
v 0.407480 0.100000 -0.600000
v 0.407480 -0.100000 -0.600000
v 0.407480 -0.095000 -0.570000
v 0.407480 0.095000 -0.570000
v -0.407480 -0.150000 -0.600000
v -0.407480 -0.150000 0.600000
v -0.407480 -0.100000 0.600000
v -0.407480 -0.100000 -0.600000
v 0.407480 -0.100000 0.600000
v 0.407480 0.100000 0.600000
v 0.407480 0.095000 0.570000
v 0.407480 -0.095000 0.570000
v 0.437480 0.130000 -0.600000
v 0.437480 0.130000 0.600000
v 0.457480 0.100000 0.600000
v 0.457480 0.100000 -0.600000
v 0.457480 0.100000 -0.600000
v 0.457480 0.100000 0.600000
v 0.457480 -0.100000 0.600000
v 0.457480 -0.100000 -0.600000
v 0.457480 0.100000 -0.600000
v 0.457480 -0.100000 -0.600000
v 0.407480 -0.100000 -0.600000
v 0.407480 0.100000 -0.600000
v 0.437480 0.130000 -0.600000
v 0.457480 0.100000 -0.600000
v 0.407480 0.100000 -0.600000
v 0.407480 0.150000 -0.600000
v 0.457480 -0.100000 0.600000
v 0.457480 0.100000 0.600000
v 0.407480 0.100000 0.600000
v 0.407480 -0.100000 0.600000
v 0.437480 -0.130000 0.600000
v 0.457480 -0.100000 0.600000
v 0.407480 -0.100000 0.600000
v 0.407480 -0.150000 0.600000
v 0.457480 0.100000 0.600000
v 0.437480 0.130000 0.600000
v 0.407480 0.150000 0.600000
v 0.407480 0.100000 0.600000
v 0.457480 -0.100000 -0.600000
v 0.437480 -0.130000 -0.600000
v 0.407480 -0.150000 -0.600000
v 0.407480 -0.100000 -0.600000
v 0.437480 -0.130000 -0.600000
v 0.437480 -0.130000 0.600000
v 0.407480 -0.150000 0.600000
v 0.407480 -0.150000 -0.600000
v -0.407480 0.150000 -0.600000
v -0.407480 0.150000 0.600000
v 0.407480 0.150000 0.600000
v 0.407480 0.150000 -0.600000
v 0.407480 -0.095000 0.570000
v 0.407480 0.095000 0.570000
v -0.366732 0.095000 0.570000
v -0.366732 -0.095000 0.570000
v 0.407480 0.095000 -0.570000
v 0.407480 -0.095000 -0.570000
v -0.366732 -0.095000 -0.570000
v -0.366732 0.095000 -0.570000
v -0.366732 -0.095000 -0.570000
v -0.366732 -0.095000 0.570000
v -0.366732 0.095000 0.570000
v -0.366732 0.095000 -0.570000
v 0.407480 -0.100000 -0.600000
v -0.407480 -0.100000 -0.600000
v -0.366732 -0.095000 -0.570000
v 0.407480 -0.095000 -0.570000
v 0.407480 0.100000 0.600000
v -0.407480 0.100000 0.600000
v -0.366732 0.095000 0.570000
v 0.407480 0.095000 0.570000
v -0.407480 -0.100000 -0.600000
v -0.407480 -0.100000 0.600000
v -0.366732 -0.095000 0.570000
v -0.366732 -0.095000 -0.570000
v -0.407480 0.100000 -0.600000
v 0.407480 0.100000 -0.600000
v 0.407480 0.095000 -0.570000
v -0.366732 0.095000 -0.570000
v -0.407480 -0.100000 0.600000
v 0.407480 -0.100000 0.600000
v 0.407480 -0.095000 0.570000
v -0.366732 -0.095000 0.570000

vt 0.316621 0.000198
vt 0.303215 0.446379
vt 0.303215 0.000198
vt 0.316621 0.446379
vt 0.303215 0.446379
vt 0.316621 0.000198
vt 0.417797 0.000198
vt 0.404390 0.446379
vt 0.404391 0.000198
vt 0.417797 0.446379
vt 0.404390 0.446379
vt 0.417797 0.000198
vt 0.000198 0.000198
vt 0.303215 0.446379
vt 0.303215 0.000198
vt 0.000198 0.446379
vt 0.303215 0.446379
vt 0.000198 0.000198
vt 0.011995 0.381817
vt 0.435057 0.399445
vt 0.011995 0.399444
vt 0.435057 0.381817
vt 0.435057 0.399445
vt 0.011995 0.381817
vt 0.299262 0.379172
vt 0.011946 0.396800
vt 0.011946 0.379172
vt 0.299262 0.396800
vt 0.011946 0.396800
vt 0.299262 0.379172
vt 0.299263 0.379172
vt 0.011946 0.396800
vt 0.011946 0.379172
vt 0.299263 0.396800
vt 0.011946 0.396800
vt 0.299263 0.379172
vt 0.299262 0.396800
vt 0.011946 0.379172
vt 0.011946 0.396800
vt 0.299262 0.379172
vt 0.011946 0.379172
vt 0.299262 0.396800
vt 0.424480 0.413918
vt 0.011995 0.399444
vt 0.435057 0.399445
vt 0.022571 0.413918
vt 0.011995 0.399444
vt 0.424480 0.413918
vt 0.299262 0.396800
vt 0.011946 0.379172
vt 0.011946 0.396800
vt 0.299262 0.379172
vt 0.011946 0.379172
vt 0.299262 0.396800
vt 0.031336 0.386223
vt 0.100084 0.396800
vt 0.029573 0.396800
vt 0.098321 0.386223
vt 0.100084 0.396800
vt 0.031336 0.386223
vt 0.435057 0.399445
vt 0.011992 0.381817
vt 0.435057 0.381817
vt 0.011992 0.399445
vt 0.011992 0.381817
vt 0.435057 0.399445
vt 0.031336 0.386223
vt 0.100084 0.396800
vt 0.029573 0.396800
vt 0.098321 0.386223
vt 0.100084 0.396800
vt 0.031336 0.386223
vt 0.330027 0.000198
vt 0.316621 0.446379
vt 0.316621 0.000198
vt 0.330027 0.446379
vt 0.316621 0.446379
vt 0.330027 0.000198
vt 0.404391 0.000198
vt 0.330027 0.446379
vt 0.330027 0.000198
vt 0.404390 0.446379
vt 0.330027 0.446379
vt 0.404391 0.000198
vt 0.029573 0.396800
vt 0.100084 0.414428
vt 0.029573 0.414428
vt 0.100084 0.396800
vt 0.100084 0.414428
vt 0.029573 0.396800
vt 0.100084 0.396800
vt 0.110660 0.407377
vt 0.100084 0.414428
vt 0.117711 0.396800
vt 0.110660 0.407377
vt 0.100084 0.396800
vt 0.029573 0.396800
vt 0.100084 0.414428
vt 0.029573 0.414428
vt 0.100084 0.396800
vt 0.100084 0.414428
vt 0.029573 0.396800
vt 0.100084 0.396800
vt 0.110660 0.407377
vt 0.100084 0.414428
vt 0.117711 0.396800
vt 0.110660 0.407377
vt 0.100084 0.396800
vt 0.011946 0.396800
vt 0.029573 0.414428
vt 0.018997 0.407377
vt 0.029573 0.396800
vt 0.029573 0.414428
vt 0.011946 0.396800
vt 0.011946 0.396800
vt 0.029573 0.414428
vt 0.018997 0.407377
vt 0.029573 0.396800
vt 0.029573 0.414428
vt 0.011946 0.396800
vt 0.431203 0.000198
vt 0.417797 0.446379
vt 0.417797 0.000198
vt 0.431203 0.446379
vt 0.417797 0.446379
vt 0.431203 0.000198
vt 0.000198 0.000198
vt 0.303215 0.446379
vt 0.303215 0.000198
vt 0.000198 0.446379
vt 0.303215 0.446379
vt 0.000198 0.000198
vt 0.284897 0.407522
vt 0.011946 0.396800
vt 0.299262 0.396800
vt 0.011946 0.407522
vt 0.011946 0.396800
vt 0.284897 0.407522
vt 0.284897 0.407522
vt 0.011946 0.396800
vt 0.299263 0.396800
vt 0.011946 0.407522
vt 0.011946 0.396800
vt 0.284897 0.407522
vt 0.424480 0.413919
vt 0.011992 0.399445
vt 0.435057 0.399445
vt 0.022569 0.413918
vt 0.011992 0.399445
vt 0.424480 0.413919
vt 0.011946 0.407522
vt 0.299262 0.396800
vt 0.011946 0.396800
vt 0.284896 0.407522
vt 0.299262 0.396800
vt 0.011946 0.407522
vt 0.011946 0.407522
vt 0.299262 0.396800
vt 0.011946 0.396800
vt 0.284896 0.407522
vt 0.299262 0.396800
vt 0.011946 0.407522
vt 0.607024 0.711936
vt 0.737670 0.999802
vt 0.607024 0.999802
vt 0.737670 0.711936
vt 0.737670 0.999802
vt 0.607024 0.711936
vt 0.737670 0.288064
vt 0.607024 0.000198
vt 0.737670 0.000198
vt 0.607024 0.288064
vt 0.607024 0.000198
vt 0.737670 0.288064
vt 0.607024 0.711936
vt 0.737670 0.288064
vt 0.737670 0.711936
vt 0.607024 0.288064
vt 0.737670 0.288064
vt 0.607024 0.711936

vn 0.554700 0.832051 0.000000
vn 0.554700 0.832051 0.000000
vn 0.554700 0.832051 0.000000
vn 0.554699 0.832051 0.000000
vn 0.554699 0.832051 0.000000
vn 0.554699 0.832051 0.000000
vn 0.832050 -0.554700 0.000000
vn 0.832050 -0.554700 0.000000
vn 0.832050 -0.554700 0.000000
vn 0.832050 -0.554700 0.000000
vn 0.832050 -0.554700 0.000000
vn 0.832050 -0.554700 0.000000
vn -0.000000 -1.000000 -0.000000
vn -0.000000 -1.000000 -0.000000
vn -0.000000 -1.000000 -0.000000
vn -0.000000 -1.000000 -0.000000
vn -0.000000 -1.000000 -0.000000
vn -0.000000 -1.000000 -0.000000
vn -1.000000 0.000001 -0.000000
vn -1.000000 0.000001 -0.000000
vn -1.000000 0.000001 -0.000000
vn -1.000000 0.000001 -0.000000
vn -1.000000 0.000001 -0.000000
vn -1.000000 0.000001 -0.000000
vn 0.000000 0.000001 -1.000000
vn 0.000000 0.000001 -1.000000
vn 0.000000 0.000001 -1.000000
vn 0.000000 -0.000001 -1.000000
vn 0.000000 -0.000001 -1.000000
vn 0.000000 -0.000001 -1.000000
vn -0.000000 0.000001 1.000000
vn -0.000000 0.000001 1.000000
vn -0.000000 0.000001 1.000000
vn -0.000000 -0.000001 1.000000
vn -0.000000 -0.000001 1.000000
vn -0.000000 -0.000001 1.000000
vn -0.000000 0.000001 1.000000
vn -0.000000 0.000001 1.000000
vn -0.000000 0.000001 1.000000
vn -0.000000 -0.000001 1.000000
vn -0.000000 -0.000001 1.000000
vn -0.000000 -0.000001 1.000000
vn -0.121792 -0.992556 -0.000000
vn -0.121792 -0.992556 -0.000000
vn -0.121792 -0.992556 -0.000000
vn -0.121793 -0.992556 -0.000000
vn -0.121793 -0.992556 -0.000000
vn -0.121793 -0.992556 -0.000000
vn 0.000000 0.000001 -1.000000
vn 0.000000 0.000001 -1.000000
vn 0.000000 0.000001 -1.000000
vn 0.000000 -0.000001 -1.000000
vn 0.000000 -0.000001 -1.000000
vn 0.000000 -0.000001 -1.000000
vn -1.000000 0.000000 0.000000
vn -1.000000 0.000000 0.000000
vn -1.000000 0.000000 0.000000
vn -1.000000 0.000000 0.000000
vn -1.000000 0.000000 0.000000
vn -1.000000 0.000000 0.000000
vn -1.000000 0.000001 -0.000000
vn -1.000000 0.000001 -0.000000
vn -1.000000 0.000001 -0.000000
vn -1.000000 0.000001 -0.000000
vn -1.000000 0.000001 -0.000000
vn -1.000000 0.000001 -0.000000
vn -1.000000 0.000000 0.000000
vn -1.000000 0.000000 0.000000
vn -1.000000 0.000000 0.000000
vn -1.000000 0.000000 0.000000
vn -1.000000 0.000000 0.000000
vn -1.000000 0.000000 0.000000
vn 0.832051 0.554699 0.000000
vn 0.832051 0.554699 0.000000
vn 0.832051 0.554699 0.000000
vn 0.832051 0.554699 0.000000
vn 0.832051 0.554699 0.000000
vn 0.832051 0.554699 0.000000
vn 1.000000 -0.000000 0.000000
vn 1.000000 -0.000000 0.000000
vn 1.000000 -0.000000 0.000000
vn 1.000000 -0.000000 0.000000
vn 1.000000 -0.000000 0.000000
vn 1.000000 -0.000000 0.000000
vn -0.000000 0.000000 -1.000000
vn -0.000000 0.000000 -1.000000
vn -0.000000 0.000000 -1.000000
vn -0.000000 0.000000 -1.000000
vn -0.000000 0.000000 -1.000000
vn -0.000000 0.000000 -1.000000
vn -0.000000 0.000000 -1.000000
vn -0.000000 0.000000 -1.000000
vn -0.000000 0.000000 -1.000000
vn -0.000000 -0.000002 -1.000000
vn -0.000000 -0.000002 -1.000000
vn -0.000000 -0.000002 -1.000000
vn -0.000000 0.000000 1.000000
vn -0.000000 0.000000 1.000000
vn -0.000000 0.000000 1.000000
vn -0.000000 0.000000 1.000000
vn -0.000000 0.000000 1.000000
vn -0.000000 0.000000 1.000000
vn -0.000000 0.000001 1.000000
vn -0.000000 0.000001 1.000000
vn -0.000000 0.000001 1.000000
vn -0.000000 0.000000 1.000000
vn -0.000000 0.000000 1.000000
vn -0.000000 0.000000 1.000000
vn -0.000000 0.000000 1.000000
vn -0.000000 0.000000 1.000000
vn -0.000000 0.000000 1.000000
vn -0.000000 -0.000001 1.000000
vn -0.000000 -0.000001 1.000000
vn -0.000000 -0.000001 1.000000
vn -0.000000 0.000000 -1.000000
vn -0.000000 0.000000 -1.000000
vn -0.000000 0.000000 -1.000000
vn -0.000000 0.000000 -1.000000
vn -0.000000 0.000000 -1.000000
vn -0.000000 0.000000 -1.000000
vn 0.554699 -0.832051 0.000000
vn 0.554699 -0.832051 0.000000
vn 0.554699 -0.832051 0.000000
vn 0.554700 -0.832051 0.000000
vn 0.554700 -0.832051 0.000000
vn 0.554700 -0.832051 0.000000
vn 0.000000 1.000000 0.000000
vn 0.000000 1.000000 0.000000
vn 0.000000 1.000000 0.000000
vn 0.000000 1.000000 0.000000
vn 0.000000 1.000000 0.000000
vn 0.000000 1.000000 0.000000
vn 0.000000 0.986394 -0.164399
vn 0.000000 0.986394 -0.164399
vn 0.000000 0.986394 -0.164399
vn 0.000000 0.986394 -0.164398
vn 0.000000 0.986394 -0.164398
vn 0.000000 0.986394 -0.164398
vn -0.000000 -0.986394 0.164398
vn -0.000000 -0.986394 0.164398
vn -0.000000 -0.986394 0.164398
vn -0.000000 -0.986394 0.164398
vn -0.000000 -0.986394 0.164398
vn -0.000000 -0.986394 0.164398
vn -0.121791 0.992556 -0.000000
vn -0.121791 0.992556 -0.000000
vn -0.121791 0.992556 -0.000000
vn -0.121791 0.992556 -0.000000
vn -0.121791 0.992556 -0.000000
vn -0.121791 0.992556 -0.000000
vn -0.000000 -0.986394 -0.164399
vn -0.000000 -0.986394 -0.164399
vn -0.000000 -0.986394 -0.164399
vn -0.000000 -0.986394 -0.164398
vn -0.000000 -0.986394 -0.164398
vn -0.000000 -0.986394 -0.164398
vn 0.000000 0.986394 0.164398
vn 0.000000 0.986394 0.164398
vn 0.000000 0.986394 0.164398
vn 0.000000 0.986394 0.164399
vn 0.000000 0.986394 0.164399
vn 0.000000 0.986394 0.164399
vn -0.000000 -0.000000 1.000000
vn -0.000000 -0.000000 1.000000
vn -0.000000 -0.000000 1.000000
vn -0.000000 0.000000 1.000000
vn -0.000000 0.000000 1.000000
vn -0.000000 0.000000 1.000000
vn 0.000000 0.000000 -1.000000
vn 0.000000 0.000000 -1.000000
vn 0.000000 0.000000 -1.000000
vn 0.000000 0.000000 -1.000000
vn 0.000000 0.000000 -1.000000
vn 0.000000 0.000000 -1.000000
vn -1.000000 0.000000 -0.000000
vn -1.000000 0.000000 -0.000000
vn -1.000000 0.000000 -0.000000
vn -1.000000 0.000000 -0.000000
vn -1.000000 0.000000 -0.000000
vn -1.000000 0.000000 -0.000000

g Material.011
f 3/1/1 1/2/2 2/3/3
f 4/4/4 1/5/5 3/6/6
f 7/7/7 5/8/8 6/9/9
f 8/10/10 5/11/11 7/12/12
f 11/13/13 9/14/14 10/15/15
f 12/16/16 9/17/17 11/18/18
f 15/19/19 13/20/20 14/21/21
f 16/22/22 13/23/23 15/24/24
f 19/25/25 17/26/26 18/27/27
f 20/28/28 17/29/29 19/30/30
f 23/31/31 21/32/32 22/33/33
f 24/34/34 21/35/35 23/36/36
f 27/37/37 25/38/38 26/39/39
f 28/40/40 25/41/41 27/42/42
f 31/43/43 29/44/44 30/45/45
f 32/46/46 29/47/47 31/48/48
f 35/49/49 33/50/50 34/51/51
f 36/52/52 33/53/53 35/54/54
f 39/55/55 37/56/56 38/57/57
f 40/58/58 37/59/59 39/60/60
f 43/61/61 41/62/62 42/63/63
f 44/64/64 41/65/65 43/66/66
f 47/67/67 45/68/68 46/69/69
f 48/70/70 45/71/71 47/72/72
f 51/73/73 49/74/74 50/75/75
f 52/76/76 49/77/77 51/78/78
f 55/79/79 53/80/80 54/81/81
f 56/82/82 53/83/83 55/84/84
f 59/85/85 57/86/86 58/87/87
f 60/88/88 57/89/89 59/90/90
f 63/91/91 61/92/92 62/93/93
f 64/94/94 61/95/95 63/96/96
f 67/97/97 65/98/98 66/99/99
f 68/100/100 65/101/101 67/102/102
f 71/103/103 69/104/104 70/105/105
f 72/106/106 69/107/107 71/108/108
f 75/109/109 73/110/110 74/111/111
f 76/112/112 73/113/113 75/114/114
f 79/115/115 77/116/116 78/117/117
f 80/118/118 77/119/119 79/120/120
f 83/121/121 81/122/122 82/123/123
f 84/124/124 81/125/125 83/126/126
f 87/127/127 85/128/128 86/129/129
f 88/130/130 85/131/131 87/132/132
f 103/133/133 101/134/134 102/135/135
f 104/136/136 101/137/137 103/138/138
f 107/139/139 105/140/140 106/141/141
f 108/142/142 105/143/143 107/144/144
f 111/145/145 109/146/146 110/147/147
f 112/148/148 109/149/149 111/150/150
f 115/151/151 113/152/152 114/153/153
f 116/154/154 113/155/155 115/156/156
f 119/157/157 117/158/158 118/159/159
f 120/160/160 117/161/161 119/162/162

g Material.013
f 91/163/163 89/164/164 90/165/165
f 92/166/166 89/167/167 91/168/168
f 95/169/169 93/170/170 94/171/171
f 96/172/172 93/173/173 95/174/174
f 99/175/175 97/176/176 98/177/177
f 100/178/178 97/179/179 99/180/180

