# Converted from B3D for Luanti (With Correct Normals)
# Object Name: multidecor_floor_clock

v -0.244378 1.893821 0.127197
v -0.172802 1.893821 -0.045604
v -0.039766 1.893821 0.087431
v -0.056237 1.893821 0.127197
v -0.000000 1.893821 -0.117181
v -0.000000 2.138199 -0.117181
v 0.172801 2.138199 -0.045604
v 0.172801 1.893821 -0.045604
v 0.244378 1.893821 0.127197
v 0.172802 1.893821 0.299999
v 0.039766 1.893821 0.166963
v 0.056237 1.893821 0.127197
v 0.172801 1.893821 -0.045604
v 0.172801 2.138199 -0.045604
v 0.244378 2.138199 0.127197
v 0.244378 1.893821 0.127197
v -0.172802 1.893821 -0.045604
v -0.000000 1.893821 -0.117181
v -0.000000 1.893821 0.070960
v -0.039766 1.893821 0.087431
v 0.244378 1.893821 0.127197
v 0.244378 2.138199 0.127197
v 0.172802 2.138199 0.299999
v 0.172802 1.893821 0.299999
v -0.172802 1.893821 0.299999
v -0.244378 1.893821 0.127197
v -0.056237 1.893821 0.127197
v -0.039766 1.893821 0.166963
v 0.172802 1.893821 0.299999
v 0.172802 2.138199 0.299999
v 0.000000 2.138199 0.371575
v 0.000000 1.893821 0.371575
v 0.172801 1.893821 -0.045604
v 0.244378 1.893821 0.127197
v 0.056237 1.893821 0.127197
v 0.039766 1.893821 0.087431
v 0.000000 1.893821 0.371575
v 0.000000 2.138199 0.371575
v -0.172802 2.138199 0.299999
v -0.172802 1.893821 0.299999
v -0.000000 1.893821 -0.117181
v 0.172801 1.893821 -0.045604
v 0.039766 1.893821 0.087431
v -0.000000 1.893821 0.070960
v -0.172802 1.893821 0.299999
v -0.172802 2.138199 0.299999
v -0.244378 2.138199 0.127197
v -0.244378 1.893821 0.127197
v -0.244378 1.893821 0.127197
v -0.244378 2.138199 0.127197
v -0.172802 2.138199 -0.045604
v -0.172802 1.893821 -0.045604
v 0.172802 1.893821 0.299999
v 0.000000 1.893821 0.371575
v 0.000000 1.893821 0.183435
v 0.039766 1.893821 0.166963
v -0.172802 1.893821 -0.045604
v -0.172802 2.138199 -0.045604
v -0.000000 2.138199 -0.117181
v -0.000000 1.893821 -0.117181
v 0.000000 1.893821 0.371575
v -0.172802 1.893821 0.299999
v -0.039766 1.893821 0.166963
v 0.000000 1.893821 0.183435
v -0.684048 -0.378199 -0.450000
v -0.684048 2.138199 -0.450000
v -0.684048 2.138199 0.704395
v -0.684048 -0.378199 0.704395
v -0.684048 -0.378199 0.704395
v -0.684048 2.138199 0.704395
v 0.684048 2.138199 0.704394
v 0.684048 -0.378199 0.704394
v 0.684048 2.138199 -0.450000
v 0.599936 2.027764 -0.450000
v 0.599936 -0.267764 -0.450000
v 0.684048 -0.378199 -0.450000
v 0.684048 -0.378199 0.704394
v 0.684048 2.138199 0.704394
v 0.684048 2.138199 -0.450000
v 0.684048 -0.378199 -0.450000
v 0.684048 2.138199 0.704394
v -0.684048 2.138199 0.704395
v -0.684048 2.138199 -0.450000
v 0.684048 2.138199 -0.450000
v 0.684048 -0.378199 0.704394
v 0.684048 -0.378199 -0.450000
v -0.684048 -0.378199 -0.450000
v -0.684048 -0.378199 0.704395
v -0.599937 -0.267764 -0.525000
v -0.599937 -0.267764 -0.600000
v -0.599937 2.027764 -0.600000
v -0.599937 2.027764 -0.525000
v -0.684048 -0.378199 -0.450000
v -0.599936 -0.267764 -0.450000
v -0.599936 2.027764 -0.450000
v -0.684048 2.138199 -0.450000
v -0.684048 2.138199 -0.450000
v -0.599936 2.027764 -0.450000
v 0.599936 2.027764 -0.450000
v 0.684048 2.138199 -0.450000
v 0.684048 -0.378199 -0.450000
v 0.599936 -0.267764 -0.450000
v -0.599936 -0.267764 -0.450000
v -0.684048 -0.378199 -0.450000
v 0.599936 -0.267764 -0.525000
v 0.599936 -0.267764 -0.600000
v -0.599937 -0.267764 -0.600000
v -0.599937 -0.267764 -0.525000
v 0.599936 2.027764 -0.525000
v 0.599936 2.027764 -0.600000
v 0.599936 -0.267764 -0.600000
v 0.599936 -0.267764 -0.525000
v -0.599937 2.027764 -0.525000
v -0.599937 2.027764 -0.600000
v 0.599936 2.027764 -0.600000
v 0.599936 2.027764 -0.525000
v -0.000000 2.371315 -0.496964
v -0.483835 2.650657 -0.496963
v -0.000000 3.488683 -0.496963
v 0.770000 -0.400000 -0.758500
v -0.770000 -0.400000 -0.758500
v -0.770000 -0.400000 0.781500
v 0.770000 -0.400000 0.781500
v 0.770000 -1.000000 0.781500
v 0.770000 -0.400000 0.781500
v -0.770000 -0.400000 0.781500
v -0.770000 -1.000000 0.781500
v -0.770000 -1.000000 0.781500
v -0.770000 -0.400000 0.781500
v -0.770000 -0.400000 -0.758500
v -0.770000 -1.000000 -0.758500
v -0.770000 -1.000000 -0.758500
v 0.770000 -1.000000 -0.758500
v 0.770000 -1.000000 0.781500
v -0.770000 -1.000000 0.781500
v 0.770000 -1.000000 -0.758500
v 0.770000 -0.400000 -0.758500
v 0.770000 -0.400000 0.781500
v 0.770000 -1.000000 0.781500
v -0.770000 -1.000000 -0.758500
v -0.770000 -0.400000 -0.758500
v 0.770000 -0.400000 -0.758500
v 0.770000 -1.000000 -0.758500
v 0.770000 -0.400000 -0.600000
v 0.770000 -0.400000 0.781500
v -0.770000 -0.400000 0.781500
v -0.770000 -0.400000 -0.600000
v 0.770000 2.160000 0.781500
v 0.770000 2.160000 -0.600000
v 0.770000 3.700000 -0.604500
v 0.770000 3.700000 0.781500
v -0.770000 -0.400000 -0.600000
v -0.770000 -0.400000 0.781500
v -0.770000 2.160000 0.781500
v -0.770000 2.160000 -0.600000
v -0.770000 -0.400000 0.781500
v 0.770000 -0.400000 0.781500
v 0.770000 2.160000 0.781500
v -0.770000 2.160000 0.781500
v 0.770000 -0.400000 -0.600000
v 0.599936 -0.267764 -0.600000
v 0.599936 2.027764 -0.600000
v 0.770000 2.160000 -0.600000
v 0.770000 -0.400000 0.781500
v 0.770000 -0.400000 -0.600000
v 0.770000 2.160000 -0.600000
v 0.770000 2.160000 0.781500
v 0.770000 3.700000 -0.604500
v -0.770000 3.700000 -0.604500
v -0.858009 3.900000 -0.683707
v 0.858008 3.900000 -0.683708
v -0.770000 2.160000 -0.600000
v -0.770000 2.160000 0.781500
v -0.770000 3.700000 0.781500
v -0.770000 3.700000 -0.604500
v -0.770000 2.160000 0.781500
v 0.770000 2.160000 0.781500
v 0.770000 3.700000 0.781500
v -0.770000 3.700000 0.781500
v -0.770000 2.160000 -0.600000
v -0.770000 3.700000 -0.604500
v -0.643889 3.573889 -0.604500
v -0.643889 2.286111 -0.600000
v 0.770000 2.160000 -0.600000
v -0.770000 2.160000 -0.600000
v -0.643889 2.286111 -0.600000
v 0.643889 2.286111 -0.600000
v 0.770000 3.700000 0.781500
v 0.770000 3.700000 -0.604500
v 0.858008 3.900000 -0.683708
v 0.858009 3.900000 0.860707
v -0.770000 3.700000 -0.604500
v -0.770000 3.700000 0.781500
v -0.858008 3.900000 0.860708
v -0.858009 3.900000 -0.683707
v -0.770000 3.700000 0.781500
v 0.770000 3.700000 0.781500
v 0.858009 3.900000 0.860707
v -0.858008 3.900000 0.860708
v 0.770000 3.700000 -0.604500
v 0.770000 2.160000 -0.600000
v 0.643889 2.286111 -0.600000
v 0.643889 3.573889 -0.604500
v -0.858009 3.900000 -0.683707
v -0.858008 3.900000 0.860708
v -0.980609 3.900000 0.971049
v -0.980610 3.900000 -0.794048
v -0.643889 3.573889 -0.604500
v 0.643889 3.573889 -0.604500
v 0.643889 3.573889 -0.554500
v -0.643889 3.573889 -0.554500
v 0.643889 2.286111 -0.550000
v -0.643889 2.286111 -0.550000
v -0.000000 2.371315 -0.550298
v -0.980610 3.900000 -0.794048
v -0.980609 3.900000 0.971049
v -0.980609 4.000000 0.971049
v -0.980610 4.000000 -0.794048
v -0.980609 3.900000 0.971049
v 0.980610 3.900000 0.971048
v 0.980610 4.000000 0.971048
v -0.980609 4.000000 0.971049
v 0.980609 3.900000 -0.794049
v -0.980610 3.900000 -0.794048
v -0.980610 4.000000 -0.794048
v 0.980609 4.000000 -0.794049
v 0.980610 3.900000 0.971048
v 0.980609 3.900000 -0.794049
v 0.980609 4.000000 -0.794049
v 0.980610 4.000000 0.971048
v -0.858008 3.900000 0.860708
v 0.858009 3.900000 0.860707
v 0.980610 3.900000 0.971048
v -0.980609 3.900000 0.971049
v -0.770000 3.700000 -0.604500
v 0.770000 3.700000 -0.604500
v 0.643889 3.573889 -0.604500
v -0.643889 3.573889 -0.604500
v 0.858008 3.900000 -0.683708
v -0.858009 3.900000 -0.683707
v -0.980610 3.900000 -0.794048
v 0.980609 3.900000 -0.794049
v 0.858009 3.900000 0.860707
v 0.858008 3.900000 -0.683708
v 0.980609 3.900000 -0.794049
v 0.980610 3.900000 0.971048
v 0.980609 4.000000 -0.794049
v -0.980610 4.000000 -0.794048
v -0.980609 4.000000 0.971049
v 0.980610 4.000000 0.971048
v 0.643889 3.573889 -0.604500
v 0.643889 2.286111 -0.600000
v 0.643889 2.286111 -0.550000
v 0.643889 3.573889 -0.554500
v 0.643889 2.286111 -0.600000
v -0.643889 2.286111 -0.600000
v -0.643889 2.286111 -0.550000
v 0.643889 2.286111 -0.550000
v -0.643889 2.286111 -0.600000
v -0.643889 3.573889 -0.604500
v -0.643889 3.573889 -0.554500
v -0.643889 2.286111 -0.550000
v -0.279342 2.446165 -0.550559
v -0.279342 2.446165 -0.496963
v -0.000000 2.371315 -0.496964
v -0.000000 2.371315 -0.550298
v 0.558684 2.929999 -0.552250
v 0.558684 2.929999 -0.496964
v 0.483834 3.209341 -0.496964
v 0.483834 3.209341 -0.553226
v -0.000000 2.371315 -0.550298
v -0.000000 2.371315 -0.496964
v 0.279342 2.446165 -0.496964
v 0.279342 2.446165 -0.550559
v -0.483835 2.650657 -0.551274
v -0.483835 2.650657 -0.496963
v -0.279342 2.446165 -0.496963
v -0.279342 2.446165 -0.550559
v 0.483834 2.650657 -0.551274
v 0.483834 2.650657 -0.496964
v 0.558684 2.929999 -0.496964
v 0.558684 2.929999 -0.552250
v -0.558684 2.929999 -0.552250
v -0.558684 2.929999 -0.496963
v -0.483835 2.650657 -0.496963
v -0.483835 2.650657 -0.551274
v -0.483835 3.209341 -0.553226
v -0.483835 3.209341 -0.496963
v -0.558684 2.929999 -0.496963
v -0.558684 2.929999 -0.552250
v -0.279342 3.413833 -0.553941
v -0.279342 3.413833 -0.496963
v -0.483835 3.209341 -0.496963
v -0.483835 3.209341 -0.553226
v -0.000000 3.488683 -0.554202
v -0.643889 3.573889 -0.554500
v 0.643889 3.573889 -0.554500
v 0.279342 3.413833 -0.553941
v 0.279342 3.413833 -0.496964
v -0.000000 3.488683 -0.496963
v -0.000000 3.488683 -0.554202
v 0.483834 3.209341 -0.553226
v 0.483834 3.209341 -0.496964
v 0.279342 3.413833 -0.496964
v 0.279342 3.413833 -0.553941
v -0.000000 3.488683 -0.554202
v -0.000000 3.488683 -0.496963
v -0.279342 3.413833 -0.496963
v -0.279342 3.413833 -0.553941
v 0.279342 2.446165 -0.550559
v 0.279342 2.446165 -0.496964
v 0.483834 2.650657 -0.496964
v 0.483834 2.650657 -0.551274
v -0.643889 2.286111 -0.550000
v -0.558684 2.929999 -0.552250
v -0.483835 2.650657 -0.551274
v -0.643889 2.286111 -0.550000
v -0.483835 2.650657 -0.551274
v -0.279342 2.446165 -0.550559
v 0.483834 2.650657 -0.551274
v 0.558684 2.929999 -0.552250
v 0.643889 2.286111 -0.550000
v 0.279342 2.446165 -0.550559
v 0.483834 2.650657 -0.551274
v 0.643889 2.286111 -0.550000
v -0.643889 2.286111 -0.550000
v -0.279342 2.446165 -0.550559
v -0.000000 2.371315 -0.550298
v -0.000000 2.371315 -0.550298
v 0.279342 2.446165 -0.550559
v 0.643889 2.286111 -0.550000
v -0.558684 2.929999 -0.552250
v -0.643889 2.286111 -0.550000
v -0.643889 3.573889 -0.554500
v 0.643889 3.573889 -0.554500
v 0.643889 2.286111 -0.550000
v 0.558684 2.929999 -0.552250
v 0.643889 3.573889 -0.554500
v 0.558684 2.929999 -0.552250
v 0.483834 3.209341 -0.553226
v -0.483835 3.209341 -0.553226
v -0.558684 2.929999 -0.552250
v -0.643889 3.573889 -0.554500
v -0.279342 3.413833 -0.553941
v -0.483835 3.209341 -0.553226
v -0.643889 3.573889 -0.554500
v 0.643889 3.573889 -0.554500
v 0.483834 3.209341 -0.553226
v 0.279342 3.413833 -0.553941
v -0.000000 3.488683 -0.554202
v -0.279342 3.413833 -0.553941
v -0.643889 3.573889 -0.554500
v 0.643889 3.573889 -0.554500
v 0.279342 3.413833 -0.553941
v -0.000000 3.488683 -0.554202
v -0.000000 3.488683 -0.496963
v 0.279342 3.413833 -0.496964
v 0.483834 2.650657 -0.496964
v 0.279342 3.413833 -0.496964
v 0.483834 3.209341 -0.496964
v 0.483834 2.650657 -0.496964
v 0.483834 3.209341 -0.496964
v 0.558684 2.929999 -0.496964
v 0.483834 2.650657 -0.496964
v 0.483834 2.650657 -0.496964
v 0.279342 2.446165 -0.496964
v -0.000000 2.371315 -0.496964
v -0.000000 2.371315 -0.496964
v -0.279342 2.446165 -0.496963
v -0.483835 2.650657 -0.496963
v -0.483835 2.650657 -0.496963
v -0.558684 2.929999 -0.496963
v -0.483835 3.209341 -0.496963
v -0.483835 3.209341 -0.496963
v -0.279342 3.413833 -0.496963
v -0.483835 2.650657 -0.496963
v -0.279342 3.413833 -0.496963
v -0.000000 3.488683 -0.496963
v -0.483835 2.650657 -0.496963
v 0.483834 2.650657 -0.496964
v -0.000000 2.371315 -0.496964
v -0.000000 3.488683 -0.496963
v -0.770000 2.160000 -0.600000
v -0.599937 2.027764 -0.600000
v -0.599937 -0.267764 -0.600000
v -0.770000 -0.400000 -0.600000
v -0.599936 2.027764 -0.450000
v -0.599937 2.027764 -0.525000
v 0.599936 2.027764 -0.525000
v 0.599936 2.027764 -0.450000
v 0.770000 2.160000 -0.600000
v 0.599936 2.027764 -0.600000
v -0.599937 2.027764 -0.600000
v -0.770000 2.160000 -0.600000
v -0.770000 -0.400000 -0.600000
v -0.599937 -0.267764 -0.600000
v 0.599936 -0.267764 -0.600000
v 0.770000 -0.400000 -0.600000
v 0.599936 2.027764 -0.450000
v 0.599936 2.027764 -0.525000
v 0.599936 -0.267764 -0.525000
v 0.599936 -0.267764 -0.450000
v 0.599936 -0.267764 -0.450000
v 0.599936 -0.267764 -0.525000
v -0.599937 -0.267764 -0.525000
v -0.599936 -0.267764 -0.450000
v -0.599936 -0.267764 -0.450000
v -0.599937 -0.267764 -0.525000
v -0.599937 2.027764 -0.525000
v -0.599936 2.027764 -0.450000
v -0.599937 2.027764 -0.525000
v 0.599936 2.027764 -0.525000
v 0.599936 -0.267764 -0.525000
v -0.599937 -0.267764 -0.525000

vt 0.110062 0.554759
vt 0.000177 0.532399
vt 0.071328 0.461248
vt 0.093688 0.571133
vt 0.000177 0.532399
vt 0.110062 0.554759
vt 0.922115 0.100800
vt 0.790645 0.000177
vt 0.922116 0.000177
vt 0.790645 0.100800
vt 0.790645 0.000177
vt 0.922115 0.100800
vt 0.133218 0.610662
vt 0.243103 0.633022
vt 0.171951 0.704174
vt 0.149591 0.594289
vt 0.243103 0.633022
vt 0.133218 0.610662
vt 0.922116 0.201423
vt 0.790645 0.100800
vt 0.922115 0.100800
vt 0.790645 0.201423
vt 0.790645 0.100800
vt 0.922116 0.201423
vt 0.133218 0.554759
vt 0.071328 0.461248
vt 0.171951 0.461247
vt 0.110062 0.554759
vt 0.071328 0.461248
vt 0.133218 0.554759
vt 0.922116 0.302047
vt 0.790645 0.201423
vt 0.922116 0.201423
vt 0.790645 0.302047
vt 0.790645 0.201423
vt 0.922116 0.302047
vt 0.093688 0.571133
vt 0.000177 0.633022
vt 0.000177 0.532399
vt 0.093688 0.594288
vt 0.000177 0.633022
vt 0.093688 0.571133
vt 0.922116 0.402670
vt 0.790645 0.302047
vt 0.922116 0.302047
vt 0.790645 0.402670
vt 0.790645 0.302047
vt 0.922116 0.402670
vt 0.149591 0.594289
vt 0.243103 0.532399
vt 0.243103 0.633022
vt 0.149591 0.571133
vt 0.243103 0.532399
vt 0.149591 0.594289
vt 0.922116 0.503293
vt 0.790645 0.402670
vt 0.922116 0.402670
vt 0.790645 0.503293
vt 0.790645 0.402670
vt 0.922116 0.503293
vt 0.149591 0.571133
vt 0.171951 0.461247
vt 0.243103 0.532399
vt 0.133218 0.554759
vt 0.171951 0.461247
vt 0.149591 0.571133
vt 0.922116 0.603916
vt 0.790645 0.503293
vt 0.922116 0.503293
vt 0.790645 0.603916
vt 0.790645 0.503293
vt 0.922116 0.603916
vt 0.922116 0.704540
vt 0.790645 0.603916
vt 0.922116 0.603916
vt 0.790645 0.704540
vt 0.790645 0.603916
vt 0.922116 0.704540
vt 0.110062 0.610662
vt 0.171951 0.704174
vt 0.071328 0.704174
vt 0.133218 0.610662
vt 0.171951 0.704174
vt 0.110062 0.610662
vt 0.922116 0.805163
vt 0.790645 0.704540
vt 0.922116 0.704540
vt 0.790645 0.805163
vt 0.790645 0.704540
vt 0.922116 0.805163
vt 0.093688 0.594288
vt 0.071328 0.704174
vt 0.000177 0.633022
vt 0.110062 0.610662
vt 0.071328 0.704174
vt 0.093688 0.594288
vt 0.127232 0.277633
vt 0.403872 0.404542
vt 0.127232 0.404542
vt 0.403872 0.277633
vt 0.403872 0.404542
vt 0.127232 0.277633
vt 0.127232 0.127232
vt 0.403872 0.277633
vt 0.127232 0.277633
vt 0.403872 0.127232
vt 0.403872 0.277633
vt 0.127232 0.127232
vt 0.680097 0.716303
vt 0.944597 0.707057
vt 0.932456 0.716303
vt 0.667957 0.707057
vt 0.944597 0.707057
vt 0.680097 0.716303
vt 0.127232 0.000323
vt 0.403872 0.127232
vt 0.127232 0.127232
vt 0.403872 0.000323
vt 0.403872 0.127232
vt 0.127232 0.000323
vt 0.000323 0.277633
vt 0.127232 0.127232
vt 0.127232 0.277633
vt 0.000323 0.127232
vt 0.127232 0.127232
vt 0.000323 0.277633
vt 0.530780 0.277633
vt 0.403872 0.127232
vt 0.530780 0.127232
vt 0.403872 0.277633
vt 0.403872 0.127232
vt 0.530780 0.277633
vt 0.983253 0.252685
vt 0.975008 0.000323
vt 0.983253 0.000323
vt 0.975008 0.252685
vt 0.975008 0.000323
vt 0.983253 0.252685
vt 0.932456 0.848212
vt 0.667956 0.857458
vt 0.680097 0.848212
vt 0.944597 0.857458
vt 0.667956 0.857458
vt 0.932456 0.848212
vt 0.932456 0.716303
vt 0.944597 0.857458
vt 0.932456 0.848212
vt 0.944597 0.707057
vt 0.944597 0.857458
vt 0.932456 0.716303
vt 0.680097 0.848212
vt 0.667957 0.707057
vt 0.680097 0.716303
vt 0.667956 0.857458
vt 0.667957 0.707057
vt 0.680097 0.848212
vt 0.963120 0.599881
vt 0.971365 0.731787
vt 0.963120 0.731787
vt 0.971365 0.599881
vt 0.971365 0.731787
vt 0.963120 0.599881
vt 0.963120 0.731787
vt 0.971365 0.984149
vt 0.963120 0.984149
vt 0.971365 0.731787
vt 0.971365 0.984149
vt 0.963120 0.731787
vt 0.983253 0.384591
vt 0.975008 0.252685
vt 0.983253 0.252685
vt 0.975008 0.384591
vt 0.975008 0.252685
vt 0.983253 0.384591
vt 0.621003 0.471149
vt 0.451703 0.640449
vt 0.451703 0.471149
vt 0.621003 0.640449
vt 0.451703 0.640449
vt 0.621003 0.471149
vt 0.621003 0.471149
vt 0.686964 0.640449
vt 0.621003 0.640449
vt 0.686964 0.471149
vt 0.686964 0.640449
vt 0.621003 0.471149
vt 0.856264 0.405188
vt 0.686964 0.471149
vt 0.686964 0.405188
vt 0.856264 0.471149
vt 0.686964 0.471149
vt 0.856264 0.405188
vt 0.686964 0.640449
vt 0.856264 0.471149
vt 0.856264 0.640449
vt 0.686964 0.471149
vt 0.856264 0.471149
vt 0.686964 0.640449
vt 0.686964 0.706410
vt 0.856264 0.640449
vt 0.856264 0.706410
vt 0.686964 0.640449
vt 0.856264 0.640449
vt 0.686964 0.706410
vt 0.922225 0.640449
vt 0.856264 0.471149
vt 0.922225 0.471149
vt 0.856264 0.640449
vt 0.856264 0.471149
vt 0.922225 0.640449
vt 0.870631 0.170270
vt 0.701331 0.322145
vt 0.701331 0.170270
vt 0.870631 0.322145
vt 0.701331 0.322145
vt 0.870631 0.170270
vt 0.000323 0.879228
vt 0.169623 0.726858
vt 0.169623 0.878733
vt 0.000323 0.726858
vt 0.169623 0.726858
vt 0.000323 0.879228
vt 0.169623 0.557558
vt 0.451057 0.405683
vt 0.451057 0.557558
vt 0.169623 0.405683
vt 0.451057 0.405683
vt 0.169623 0.557558
vt 0.169623 0.726858
vt 0.451057 0.557558
vt 0.451057 0.726858
vt 0.169623 0.557558
vt 0.451057 0.557558
vt 0.169623 0.726858
vt 0.550313 0.273874
vt 0.536004 0.007670
vt 0.554065 0.021273
vt 0.531427 0.288108
vt 0.536004 0.007670
vt 0.550313 0.273874
vt 0.169623 0.878733
vt 0.451057 0.726858
vt 0.451057 0.878733
vt 0.169623 0.726858
vt 0.451057 0.726858
vt 0.169623 0.878733
vt 0.894927 0.013801
vt 0.871278 0.192776
vt 0.871278 0.023477
vt 0.894927 0.202451
vt 0.871278 0.192776
vt 0.894927 0.013801
vt 0.000323 0.557558
vt 0.169623 0.405683
vt 0.169623 0.557558
vt 0.000323 0.405188
vt 0.169623 0.405683
vt 0.000323 0.557558
vt 0.000323 0.726858
vt 0.169623 0.557558
vt 0.169623 0.726858
vt 0.000323 0.557558
vt 0.169623 0.557558
vt 0.000323 0.726858
vt 0.856768 0.014187
vt 0.701331 0.000323
vt 0.870632 0.000323
vt 0.715195 0.014187
vt 0.701331 0.000323
vt 0.856768 0.014187
vt 0.715195 0.014187
vt 0.701331 0.169623
vt 0.701331 0.000323
vt 0.715195 0.155759
vt 0.701331 0.169623
vt 0.715195 0.014187
vt 0.947343 0.587104
vt 0.971365 0.426026
vt 0.971365 0.578396
vt 0.947343 0.417319
vt 0.971365 0.426026
vt 0.947343 0.587104
vt 0.713343 0.380070
vt 0.552265 0.356048
vt 0.704635 0.356048
vt 0.543557 0.380070
vt 0.552265 0.356048
vt 0.713343 0.380070
vt 0.942346 0.013801
vt 0.918697 0.192776
vt 0.918697 0.023477
vt 0.942346 0.202451
vt 0.918697 0.192776
vt 0.942346 0.013801
vt 0.715195 0.155759
vt 0.870632 0.169623
vt 0.701331 0.169623
vt 0.856768 0.155759
vt 0.870632 0.169623
vt 0.715195 0.155759
vt 0.725473 0.393548
vt 0.543557 0.380070
vt 0.713343 0.380070
vt 0.531427 0.393548
vt 0.543557 0.380070
vt 0.725473 0.393548
vt 0.531427 0.291322
vt 0.672997 0.296819
vt 0.531427 0.296818
vt 0.672997 0.291322
vt 0.672997 0.296819
vt 0.531427 0.291322
vt 0.800162 0.928891
vt 0.809529 0.858105
vt 0.809529 0.999677
vt 0.725473 0.404542
vt 0.531427 0.393548
vt 0.725473 0.393548
vt 0.531427 0.404542
vt 0.531427 0.393548
vt 0.725473 0.404542
vt 0.965470 0.000323
vt 0.954476 0.215930
vt 0.954476 0.000323
vt 0.965470 0.215930
vt 0.954476 0.215930
vt 0.965470 0.000323
vt 0.918051 0.000323
vt 0.907057 0.215930
vt 0.907057 0.000323
vt 0.918051 0.215930
vt 0.907057 0.215930
vt 0.918051 0.000323
vt 0.922872 0.599234
vt 0.933865 0.405188
vt 0.933865 0.599234
vt 0.922872 0.405188
vt 0.933865 0.405188
vt 0.922872 0.599234
vt 0.954476 0.000323
vt 0.942346 0.202451
vt 0.942346 0.013801
vt 0.954476 0.215930
vt 0.942346 0.202451
vt 0.954476 0.000323
vt 0.856768 0.155759
vt 0.870632 0.000323
vt 0.870632 0.169623
vt 0.856768 0.014187
vt 0.870632 0.000323
vt 0.856768 0.155759
vt 0.907057 0.000323
vt 0.894927 0.202451
vt 0.894927 0.013801
vt 0.907057 0.215930
vt 0.894927 0.202451
vt 0.907057 0.000323
vt 0.933865 0.599234
vt 0.947343 0.417319
vt 0.947343 0.587104
vt 0.933865 0.405188
vt 0.947343 0.417319
vt 0.933865 0.599234
vt 0.667310 0.901103
vt 0.451703 0.707057
vt 0.667310 0.707057
vt 0.451703 0.901103
vt 0.451703 0.707057
vt 0.667310 0.901103
vt 0.876775 0.216576
vt 0.871278 0.358166
vt 0.871278 0.216595
vt 0.876775 0.358147
vt 0.871278 0.358166
vt 0.876775 0.216576
vt 0.883565 0.358146
vt 0.889062 0.216576
vt 0.889062 0.358146
vt 0.883565 0.216576
vt 0.889062 0.216576
vt 0.883565 0.358146
vt 0.882918 0.216595
vt 0.877421 0.358145
vt 0.877421 0.216576
vt 0.882918 0.358164
vt 0.877421 0.358145
vt 0.882918 0.216595
vt 0.626805 0.304404
vt 0.595012 0.310296
vt 0.595012 0.304404
vt 0.626805 0.310267
vt 0.595012 0.310296
vt 0.626805 0.304404
vt 0.595012 0.303758
vt 0.626805 0.297680
vt 0.626805 0.303758
vt 0.595012 0.297572
vt 0.626805 0.297680
vt 0.595012 0.303758
vt 0.563220 0.311128
vt 0.531427 0.316992
vt 0.531427 0.311128
vt 0.563220 0.317020
vt 0.531427 0.316992
vt 0.563220 0.311128
vt 0.595012 0.304404
vt 0.563220 0.310375
vt 0.563220 0.304404
vt 0.595012 0.310296
vt 0.563220 0.310375
vt 0.595012 0.304404
vt 0.626805 0.311128
vt 0.595012 0.317099
vt 0.595012 0.311128
vt 0.626805 0.317206
vt 0.595012 0.317099
vt 0.626805 0.311128
vt 0.563220 0.304404
vt 0.531427 0.310482
vt 0.531427 0.304404
vt 0.563220 0.310375
vt 0.531427 0.310482
vt 0.563220 0.304404
vt 0.896001 0.311954
vt 0.889815 0.280162
vt 0.896001 0.280162
vt 0.889923 0.311954
vt 0.889815 0.280162
vt 0.896001 0.311954
vt 0.896001 0.280162
vt 0.889737 0.248369
vt 0.896001 0.248369
vt 0.889815 0.280162
vt 0.889737 0.248369
vt 0.896001 0.280162
vt 0.667956 0.858105
vt 0.677324 0.928891
vt 0.667956 0.999677
vt 0.531427 0.303758
vt 0.563220 0.297494
vt 0.563220 0.303758
vt 0.531427 0.297465
vt 0.563220 0.297494
vt 0.531427 0.303758
vt 0.563220 0.303758
vt 0.595012 0.297572
vt 0.595012 0.303758
vt 0.563220 0.297494
vt 0.595012 0.297572
vt 0.563220 0.303758
vt 0.896001 0.248369
vt 0.889708 0.216576
vt 0.896001 0.216576
vt 0.889737 0.248369
vt 0.889708 0.216576
vt 0.896001 0.248369
vt 0.595012 0.311128
vt 0.563220 0.317020
vt 0.563220 0.311128
vt 0.595012 0.317099
vt 0.563220 0.317020
vt 0.595012 0.311128
vt 0.769453 0.982081
vt 0.809529 0.999677
vt 0.738743 0.990310
vt 0.791934 0.959600
vt 0.809529 0.999677
vt 0.769453 0.982081
vt 0.809529 0.858105
vt 0.769453 0.875700
vt 0.738743 0.867472
vt 0.809529 0.858105
vt 0.791934 0.898181
vt 0.769453 0.875700
vt 0.800162 0.928891
vt 0.809529 0.999677
vt 0.791934 0.959600
vt 0.809529 0.858105
vt 0.800162 0.928891
vt 0.791934 0.898181
vt 0.667956 0.999677
vt 0.738743 0.990310
vt 0.809529 0.999677
vt 0.738743 0.867472
vt 0.667956 0.858105
vt 0.809529 0.858105
vt 0.708033 0.875700
vt 0.667956 0.858105
vt 0.738743 0.867472
vt 0.667956 0.999677
vt 0.708033 0.982081
vt 0.738743 0.990310
vt 0.667956 0.999677
vt 0.685552 0.959600
vt 0.708033 0.982081
vt 0.685552 0.898181
vt 0.667956 0.858105
vt 0.708033 0.875700
vt 0.667956 0.999677
vt 0.677324 0.928891
vt 0.685552 0.959600
vt 0.677324 0.928891
vt 0.667956 0.858105
vt 0.685552 0.898181
vt 0.679779 0.017878
vt 0.700684 0.290675
vt 0.681638 0.275723
vt 0.700684 0.000323
vt 0.700684 0.290675
vt 0.679779 0.017878
vt 0.974361 0.384591
vt 0.966116 0.252685
vt 0.974361 0.252685
vt 0.966116 0.384591
vt 0.966116 0.252685
vt 0.974361 0.384591
vt 0.681638 0.275723
vt 0.531427 0.288108
vt 0.550313 0.273874
vt 0.700684 0.290675
vt 0.531427 0.288108
vt 0.681638 0.275723
vt 0.554065 0.021273
vt 0.697404 0.002459
vt 0.679779 0.017878
vt 0.536004 0.007670
vt 0.697404 0.002459
vt 0.554065 0.021273
vt 0.980257 0.657550
vt 0.972011 0.405188
vt 0.980257 0.405188
vt 0.972011 0.657550
vt 0.972011 0.405188
vt 0.980257 0.657550
vt 0.980257 0.789456
vt 0.972011 0.657550
vt 0.980257 0.657550
vt 0.972011 0.789456
vt 0.972011 0.657550
vt 0.980257 0.789456
vt 0.974361 0.252685
vt 0.966116 0.000323
vt 0.974361 0.000323
vt 0.966116 0.252685
vt 0.966116 0.000323
vt 0.974361 0.252685
vt 0.497261 0.951249
vt 0.502739 0.048751
vt 0.892163 0.276747
vt 0.110576 0.272003
vt 0.497261 0.951249
vt 0.272003 0.889423
vt 0.110576 0.272003
vt 0.272003 0.889423
vt 0.107837 0.723252
vt 0.110576 0.272003
vt 0.107837 0.723252
vt 0.048751 0.497260
vt 0.502739 0.048751
vt 0.110576 0.272003
vt 0.276748 0.107836
vt 0.892163 0.276747
vt 0.502739 0.048751
vt 0.727997 0.110576
vt 0.889424 0.727997
vt 0.892163 0.276747
vt 0.951249 0.502738
vt 0.892163 0.276747
vt 0.889424 0.727997
vt 0.723253 0.892162
vt 0.892163 0.276747
vt 0.723253 0.892162
vt 0.497261 0.951249
vt 0.497261 0.951249
vt 0.110576 0.272003
vt 0.502739 0.048751
vt 0.250072 0.999928
vt 0.772697 0.000072
vt 0.250072 0.000072
vt 0.772697 0.999928
vt 0.772697 0.000072
vt 0.250072 0.999928

vn -0.000000 -1.000000 0.000000
vn -0.000000 -1.000000 0.000000
vn -0.000000 -1.000000 0.000000
vn -0.000000 -1.000000 0.000000
vn -0.000000 -1.000000 0.000000
vn -0.000000 -1.000000 0.000000
vn 0.382683 0.000000 -0.923880
vn 0.382683 0.000000 -0.923880
vn 0.382683 0.000000 -0.923880
vn 0.382683 0.000000 -0.923880
vn 0.382683 0.000000 -0.923880
vn 0.382683 0.000000 -0.923880
vn -0.000000 -1.000000 0.000000
vn -0.000000 -1.000000 0.000000
vn -0.000000 -1.000000 0.000000
vn -0.000000 -1.000000 0.000000
vn -0.000000 -1.000000 0.000000
vn -0.000000 -1.000000 0.000000
vn 0.923879 0.000000 -0.382684
vn 0.923879 0.000000 -0.382684
vn 0.923879 0.000000 -0.382684
vn 0.923880 0.000000 -0.382683
vn 0.923880 0.000000 -0.382683
vn 0.923880 0.000000 -0.382683
vn -0.000001 -1.000000 0.000000
vn -0.000001 -1.000000 0.000000
vn -0.000001 -1.000000 0.000000
vn -0.000000 -1.000000 0.000000
vn -0.000000 -1.000000 0.000000
vn -0.000000 -1.000000 0.000000
vn 0.923880 0.000000 0.382683
vn 0.923880 0.000000 0.382683
vn 0.923880 0.000000 0.382683
vn 0.923880 0.000000 0.382683
vn 0.923880 0.000000 0.382683
vn 0.923880 0.000000 0.382683
vn -0.000000 -1.000000 0.000000
vn -0.000000 -1.000000 0.000000
vn -0.000000 -1.000000 0.000000
vn 0.000008 -1.000000 0.000000
vn 0.000008 -1.000000 0.000000
vn 0.000008 -1.000000 0.000000
vn 0.382683 0.000000 0.923880
vn 0.382683 0.000000 0.923880
vn 0.382683 0.000000 0.923880
vn 0.382684 0.000000 0.923879
vn 0.382684 0.000000 0.923879
vn 0.382684 0.000000 0.923879
vn -0.000000 -1.000000 0.000000
vn -0.000000 -1.000000 0.000000
vn -0.000000 -1.000000 0.000000
vn 0.000008 -1.000000 0.000000
vn 0.000008 -1.000000 0.000000
vn 0.000008 -1.000000 0.000000
vn -0.382683 0.000000 0.923880
vn -0.382683 0.000000 0.923880
vn -0.382683 0.000000 0.923880
vn -0.382684 0.000000 0.923879
vn -0.382684 0.000000 0.923879
vn -0.382684 0.000000 0.923879
vn -0.000001 -1.000000 0.000000
vn -0.000001 -1.000000 0.000000
vn -0.000001 -1.000000 0.000000
vn 0.000008 -1.000000 0.000000
vn 0.000008 -1.000000 0.000000
vn 0.000008 -1.000000 0.000000
vn -0.923879 0.000000 0.382684
vn -0.923879 0.000000 0.382684
vn -0.923879 0.000000 0.382684
vn -0.923880 0.000000 0.382683
vn -0.923880 0.000000 0.382683
vn -0.923880 0.000000 0.382683
vn -0.923880 0.000000 -0.382684
vn -0.923880 0.000000 -0.382684
vn -0.923880 0.000000 -0.382684
vn -0.923880 0.000000 -0.382683
vn -0.923880 0.000000 -0.382683
vn -0.923880 0.000000 -0.382683
vn 0.000001 -1.000000 0.000000
vn 0.000001 -1.000000 0.000000
vn 0.000001 -1.000000 0.000000
vn 0.000004 -1.000000 0.000000
vn 0.000004 -1.000000 0.000000
vn 0.000004 -1.000000 0.000000
vn -0.382684 0.000000 -0.923879
vn -0.382684 0.000000 -0.923879
vn -0.382684 0.000000 -0.923879
vn -0.382684 0.000000 -0.923879
vn -0.382684 0.000000 -0.923879
vn -0.382684 0.000000 -0.923879
vn -0.000000 -1.000000 0.000000
vn -0.000000 -1.000000 0.000000
vn -0.000000 -1.000000 0.000000
vn -0.000008 -1.000000 0.000000
vn -0.000008 -1.000000 0.000000
vn -0.000008 -1.000000 0.000000
vn 1.000000 0.000000 -0.000000
vn 1.000000 0.000000 -0.000000
vn 1.000000 0.000000 -0.000000
vn 1.000000 0.000000 -0.000000
vn 1.000000 0.000000 -0.000000
vn 1.000000 0.000000 -0.000000
vn -0.000000 0.000000 -1.000000
vn -0.000000 0.000000 -1.000000
vn -0.000000 0.000000 -1.000000
vn -0.000000 0.000000 -1.000000
vn -0.000000 0.000000 -1.000000
vn -0.000000 0.000000 -1.000000
vn -0.000000 0.000000 1.000000
vn -0.000000 0.000000 1.000000
vn -0.000000 0.000000 1.000000
vn -0.000000 0.000000 1.000000
vn -0.000000 0.000000 1.000000
vn -0.000000 0.000000 1.000000
vn -1.000000 0.000000 0.000000
vn -1.000000 0.000000 0.000000
vn -1.000000 0.000000 0.000000
vn -1.000000 0.000000 0.000000
vn -1.000000 0.000000 0.000000
vn -1.000000 0.000000 0.000000
vn 0.000000 -1.000000 0.000000
vn 0.000000 -1.000000 0.000000
vn 0.000000 -1.000000 0.000000
vn -0.000000 -1.000000 0.000000
vn -0.000000 -1.000000 0.000000
vn -0.000000 -1.000000 0.000000
vn 0.000000 1.000000 0.000000
vn 0.000000 1.000000 0.000000
vn 0.000000 1.000000 0.000000
vn -0.000000 1.000000 0.000000
vn -0.000000 1.000000 0.000000
vn -0.000000 1.000000 0.000000
vn 1.000000 0.000000 0.000000
vn 1.000000 0.000000 0.000000
vn 1.000000 0.000000 0.000000
vn 1.000000 0.000000 0.000000
vn 1.000000 0.000000 0.000000
vn 1.000000 0.000000 0.000000
vn -0.000000 0.000000 1.000000
vn -0.000000 0.000000 1.000000
vn -0.000000 0.000000 1.000000
vn -0.000000 0.000000 1.000000
vn -0.000000 0.000000 1.000000
vn -0.000000 0.000000 1.000000
vn 0.000000 0.000000 1.000000
vn 0.000000 0.000000 1.000000
vn 0.000000 0.000000 1.000000
vn 0.000000 0.000000 1.000000
vn 0.000000 0.000000 1.000000
vn 0.000000 0.000000 1.000000
vn 0.000000 0.000000 1.000000
vn 0.000000 0.000000 1.000000
vn 0.000000 0.000000 1.000000
vn 0.000000 0.000000 1.000000
vn 0.000000 0.000000 1.000000
vn 0.000000 0.000000 1.000000
vn -0.000000 1.000000 0.000000
vn -0.000000 1.000000 0.000000
vn -0.000000 1.000000 0.000000
vn -0.000000 1.000000 0.000000
vn -0.000000 1.000000 0.000000
vn -0.000000 1.000000 0.000000
vn -1.000000 0.000000 0.000000
vn -1.000000 0.000000 0.000000
vn -1.000000 0.000000 0.000000
vn -1.000000 0.000000 0.000000
vn -1.000000 0.000000 0.000000
vn -1.000000 0.000000 0.000000
vn -0.000000 -1.000000 0.000000
vn -0.000000 -1.000000 0.000000
vn -0.000000 -1.000000 0.000000
vn -0.000000 -1.000000 0.000000
vn -0.000000 -1.000000 0.000000
vn -0.000000 -1.000000 0.000000
vn 0.000000 1.000000 0.000000
vn 0.000000 1.000000 0.000000
vn 0.000000 1.000000 0.000000
vn -0.000000 1.000000 0.000000
vn -0.000000 1.000000 0.000000
vn -0.000000 1.000000 0.000000
vn 0.000000 0.000000 1.000000
vn 0.000000 0.000000 1.000000
vn 0.000000 0.000000 1.000000
vn 0.000000 0.000000 1.000000
vn 0.000000 0.000000 1.000000
vn 0.000000 0.000000 1.000000
vn -1.000000 0.000000 0.000000
vn -1.000000 0.000000 0.000000
vn -1.000000 0.000000 0.000000
vn -1.000000 0.000000 0.000000
vn -1.000000 0.000000 0.000000
vn -1.000000 0.000000 0.000000
vn -0.000000 -1.000000 0.000000
vn -0.000000 -1.000000 0.000000
vn -0.000000 -1.000000 0.000000
vn -0.000000 -1.000000 0.000000
vn -0.000000 -1.000000 0.000000
vn -0.000000 -1.000000 0.000000
vn 1.000000 0.000000 -0.000000
vn 1.000000 0.000000 -0.000000
vn 1.000000 0.000000 -0.000000
vn 1.000000 0.000000 -0.000000
vn 1.000000 0.000000 -0.000000
vn 1.000000 0.000000 -0.000000
vn -0.000000 0.000000 -1.000000
vn -0.000000 0.000000 -1.000000
vn -0.000000 0.000000 -1.000000
vn -0.000000 0.000000 -1.000000
vn -0.000000 0.000000 -1.000000
vn -0.000000 0.000000 -1.000000
vn 0.000000 -1.000000 0.000000
vn 0.000000 -1.000000 0.000000
vn 0.000000 -1.000000 0.000000
vn -0.000000 -1.000000 0.000000
vn -0.000000 -1.000000 0.000000
vn -0.000000 -1.000000 0.000000
vn 1.000000 -0.000000 -0.000000
vn 1.000000 -0.000000 -0.000000
vn 1.000000 -0.000000 -0.000000
vn 1.000000 0.000000 -0.000000
vn 1.000000 0.000000 -0.000000
vn 1.000000 0.000000 -0.000000
vn -1.000000 0.000000 0.000000
vn -1.000000 0.000000 0.000000
vn -1.000000 0.000000 0.000000
vn -1.000000 0.000000 0.000000
vn -1.000000 0.000000 0.000000
vn -1.000000 0.000000 0.000000
vn 0.000000 0.000000 1.000000
vn 0.000000 0.000000 1.000000
vn 0.000000 0.000000 1.000000
vn 0.000000 0.000000 1.000000
vn 0.000000 0.000000 1.000000
vn 0.000000 0.000000 1.000000
vn -0.000000 0.000000 -1.000000
vn -0.000000 0.000000 -1.000000
vn -0.000000 0.000000 -1.000000
vn -0.000000 0.000000 -1.000000
vn -0.000000 0.000000 -1.000000
vn -0.000000 0.000000 -1.000000
vn 1.000000 0.000000 -0.000000
vn 1.000000 0.000000 -0.000000
vn 1.000000 0.000000 -0.000000
vn 1.000000 0.000000 -0.000000
vn 1.000000 0.000000 -0.000000
vn 1.000000 0.000000 -0.000000
vn -0.000000 -0.368213 -0.929741
vn -0.000000 -0.368213 -0.929741
vn -0.000000 -0.368213 -0.929741
vn -0.000000 -0.368214 -0.929741
vn -0.000000 -0.368214 -0.929741
vn -0.000000 -0.368214 -0.929741
vn -1.000000 0.000000 0.000000
vn -1.000000 0.000000 0.000000
vn -1.000000 0.000000 0.000000
vn -1.000000 0.000000 0.000000
vn -1.000000 0.000000 0.000000
vn -1.000000 0.000000 0.000000
vn 0.000000 0.000000 1.000000
vn 0.000000 0.000000 1.000000
vn 0.000000 0.000000 1.000000
vn 0.000000 0.000000 1.000000
vn 0.000000 0.000000 1.000000
vn 0.000000 0.000000 1.000000
vn -0.002922 -0.002922 -0.999991
vn -0.002922 -0.002922 -0.999991
vn -0.002922 -0.002922 -0.999991
vn 0.003494 -0.003494 -0.999988
vn 0.003494 -0.003494 -0.999988
vn 0.003494 -0.003494 -0.999988
vn -0.000000 0.000000 -1.000000
vn -0.000000 0.000000 -1.000000
vn -0.000000 0.000000 -1.000000
vn -0.000000 0.000000 -1.000000
vn -0.000000 0.000000 -1.000000
vn -0.000000 0.000000 -1.000000
vn 0.915301 -0.402771 -0.000000
vn 0.915301 -0.402771 -0.000000
vn 0.915301 -0.402771 -0.000000
vn 0.915301 -0.402772 -0.000000
vn 0.915301 -0.402772 -0.000000
vn 0.915301 -0.402772 -0.000000
vn -0.915301 -0.402771 0.000000
vn -0.915301 -0.402771 0.000000
vn -0.915301 -0.402771 0.000000
vn -0.915301 -0.402772 0.000000
vn -0.915301 -0.402772 0.000000
vn -0.915301 -0.402772 0.000000
vn 0.000000 -0.368213 0.929741
vn 0.000000 -0.368213 0.929741
vn 0.000000 -0.368213 0.929741
vn 0.000000 -0.368214 0.929741
vn 0.000000 -0.368214 0.929741
vn 0.000000 -0.368214 0.929741
vn -0.002922 -0.002922 -0.999991
vn -0.002922 -0.002922 -0.999991
vn -0.002922 -0.002922 -0.999991
vn 0.003494 -0.003494 -0.999988
vn 0.003494 -0.003494 -0.999988
vn 0.003494 -0.003494 -0.999988
vn -0.000000 -1.000000 0.000000
vn -0.000000 -1.000000 0.000000
vn -0.000000 -1.000000 0.000000
vn -0.000004 -1.000000 0.000000
vn -0.000004 -1.000000 0.000000
vn -0.000004 -1.000000 0.000000
vn -0.000000 -1.000000 0.000000
vn -0.000000 -1.000000 0.000000
vn -0.000000 -1.000000 0.000000
vn -0.000000 -1.000000 0.000000
vn -0.000000 -1.000000 0.000000
vn -0.000000 -1.000000 0.000000
vn -0.000000 -0.003495 -0.999994
vn -0.000000 -0.003495 -0.999994
vn -0.000000 -0.003495 -0.999994
vn -1.000000 0.000000 0.000000
vn -1.000000 0.000000 0.000000
vn -1.000000 0.000000 0.000000
vn -1.000000 0.000000 0.000000
vn -1.000000 0.000000 0.000000
vn -1.000000 0.000000 0.000000
vn 0.000000 0.000000 1.000000
vn 0.000000 0.000000 1.000000
vn 0.000000 0.000000 1.000000
vn 0.000000 0.000000 1.000000
vn 0.000000 0.000000 1.000000
vn 0.000000 0.000000 1.000000
vn -0.000000 0.000000 -1.000000
vn -0.000000 0.000000 -1.000000
vn -0.000000 0.000000 -1.000000
vn -0.000000 0.000000 -1.000000
vn -0.000000 0.000000 -1.000000
vn -0.000000 0.000000 -1.000000
vn 1.000000 0.000000 -0.000000
vn 1.000000 0.000000 -0.000000
vn 1.000000 0.000000 -0.000000
vn 1.000000 0.000000 -0.000000
vn 1.000000 0.000000 -0.000000
vn 1.000000 0.000000 -0.000000
vn -0.000000 -1.000000 0.000000
vn -0.000000 -1.000000 0.000000
vn -0.000000 -1.000000 0.000000
vn -0.000000 -1.000000 0.000000
vn -0.000000 -1.000000 0.000000
vn -0.000000 -1.000000 0.000000
vn -0.000000 0.000001 -1.000000
vn -0.000000 0.000001 -1.000000
vn -0.000000 0.000001 -1.000000
vn -0.000000 -0.000001 -1.000000
vn -0.000000 -0.000001 -1.000000
vn -0.000000 -0.000001 -1.000000
vn -0.000000 -1.000000 0.000000
vn -0.000000 -1.000000 0.000000
vn -0.000000 -1.000000 0.000000
vn -0.000000 -1.000000 0.000000
vn -0.000000 -1.000000 0.000000
vn -0.000000 -1.000000 0.000000
vn -0.000000 -1.000000 0.000000
vn -0.000000 -1.000000 0.000000
vn -0.000000 -1.000000 0.000000
vn 0.000004 -1.000000 0.000000
vn 0.000004 -1.000000 0.000000
vn 0.000004 -1.000000 0.000000
vn 0.000000 1.000000 0.000000
vn 0.000000 1.000000 0.000000
vn 0.000000 1.000000 0.000000
vn -0.000000 1.000000 0.000000
vn -0.000000 1.000000 0.000000
vn -0.000000 1.000000 0.000000
vn -1.000000 0.000000 0.000000
vn -1.000000 0.000000 0.000000
vn -1.000000 0.000000 0.000000
vn -1.000000 0.000000 0.000000
vn -1.000000 0.000000 0.000000
vn -1.000000 0.000000 0.000000
vn 0.000000 1.000000 0.000000
vn 0.000000 1.000000 0.000000
vn 0.000000 1.000000 0.000000
vn -0.000000 1.000000 0.000000
vn -0.000000 1.000000 0.000000
vn -0.000000 1.000000 0.000000
vn 1.000000 0.000000 0.000000
vn 1.000000 0.000000 0.000000
vn 1.000000 0.000000 0.000000
vn 1.000000 0.000000 0.000000
vn 1.000000 0.000000 0.000000
vn 1.000000 0.000000 0.000000
vn 0.258820 0.965926 -0.000000
vn 0.258820 0.965926 -0.000000
vn 0.258820 0.965926 -0.000000
vn 0.258818 0.965926 -0.000000
vn 0.258818 0.965926 -0.000000
vn 0.258818 0.965926 -0.000000
vn -0.965926 -0.258819 0.000000
vn -0.965926 -0.258819 0.000000
vn -0.965926 -0.258819 0.000000
vn -0.965926 -0.258818 0.000000
vn -0.965926 -0.258818 0.000000
vn -0.965926 -0.258818 0.000000
vn -0.258817 0.965926 0.000000
vn -0.258817 0.965926 0.000000
vn -0.258817 0.965926 0.000000
vn -0.258820 0.965926 0.000000
vn -0.258820 0.965926 0.000000
vn -0.258820 0.965926 0.000000
vn 0.707107 0.707107 -0.000001
vn 0.707107 0.707107 -0.000001
vn 0.707107 0.707107 -0.000001
vn 0.707106 0.707107 0.000000
vn 0.707106 0.707107 0.000000
vn 0.707106 0.707107 0.000000
vn -0.965926 0.258818 0.000000
vn -0.965926 0.258818 0.000000
vn -0.965926 0.258818 0.000000
vn -0.965926 0.258819 0.000000
vn -0.965926 0.258819 0.000000
vn -0.965926 0.258819 0.000000
vn 0.965926 0.258820 0.000000
vn 0.965926 0.258820 0.000000
vn 0.965926 0.258820 0.000000
vn 0.965926 0.258819 0.000000
vn 0.965926 0.258819 0.000000
vn 0.965926 0.258819 0.000000
vn 0.965926 -0.258818 0.000000
vn 0.965926 -0.258818 0.000000
vn 0.965926 -0.258818 0.000000
vn 0.965926 -0.258818 0.000000
vn 0.965926 -0.258818 0.000000
vn 0.965926 -0.258818 0.000000
vn 0.707106 -0.707107 0.000000
vn 0.707106 -0.707107 0.000000
vn 0.707106 -0.707107 0.000000
vn 0.707106 -0.707107 0.000000
vn 0.707106 -0.707107 0.000000
vn 0.707106 -0.707107 0.000000
vn -0.000000 -0.003494 -0.999994
vn -0.000000 -0.003494 -0.999994
vn -0.000000 -0.003494 -0.999994
vn -0.258820 -0.965925 0.000000
vn -0.258820 -0.965925 0.000000
vn -0.258820 -0.965925 0.000000
vn -0.258822 -0.965925 0.000000
vn -0.258822 -0.965925 0.000000
vn -0.258822 -0.965925 0.000000
vn -0.707106 -0.707107 0.000000
vn -0.707106 -0.707107 0.000000
vn -0.707106 -0.707107 0.000000
vn -0.707106 -0.707108 0.000001
vn -0.707106 -0.707108 0.000001
vn -0.707106 -0.707108 0.000001
vn 0.258822 -0.965925 -0.000000
vn 0.258822 -0.965925 -0.000000
vn 0.258822 -0.965925 -0.000000
vn 0.258821 -0.965926 -0.000000
vn 0.258821 -0.965926 -0.000000
vn 0.258821 -0.965926 -0.000000
vn -0.707107 0.707106 0.000000
vn -0.707107 0.707106 0.000000
vn -0.707107 0.707106 0.000000
vn -0.707106 0.707107 0.000000
vn -0.707106 0.707107 0.000000
vn -0.707106 0.707107 0.000000
vn -0.000000 -0.003494 -0.999994
vn -0.000000 -0.003494 -0.999994
vn -0.000000 -0.003494 -0.999994
vn -0.000000 -0.003494 -0.999994
vn -0.000000 -0.003494 -0.999994
vn -0.000000 -0.003494 -0.999994
vn 0.000000 -0.003494 -0.999994
vn 0.000000 -0.003494 -0.999994
vn 0.000000 -0.003494 -0.999994
vn -0.000000 -0.003495 -0.999994
vn -0.000000 -0.003495 -0.999994
vn -0.000000 -0.003495 -0.999994
vn -0.000000 -0.003494 -0.999994
vn -0.000000 -0.003494 -0.999994
vn -0.000000 -0.003494 -0.999994
vn -0.000000 -0.003495 -0.999994
vn -0.000000 -0.003495 -0.999994
vn -0.000000 -0.003495 -0.999994
vn -0.000001 -0.003494 -0.999994
vn -0.000001 -0.003494 -0.999994
vn -0.000001 -0.003494 -0.999994
vn -0.000001 -0.003494 -0.999994
vn -0.000001 -0.003494 -0.999994
vn -0.000001 -0.003494 -0.999994
vn 0.000000 -0.003495 -0.999994
vn 0.000000 -0.003495 -0.999994
vn 0.000000 -0.003495 -0.999994
vn -0.000001 -0.003494 -0.999994
vn -0.000001 -0.003494 -0.999994
vn -0.000001 -0.003494 -0.999994
vn -0.000000 -0.003494 -0.999994
vn -0.000000 -0.003494 -0.999994
vn -0.000000 -0.003494 -0.999994
vn -0.000000 -0.003494 -0.999994
vn -0.000000 -0.003494 -0.999994
vn -0.000000 -0.003494 -0.999994
vn -0.000000 -0.003495 -0.999994
vn -0.000000 -0.003495 -0.999994
vn -0.000000 -0.003495 -0.999994
vn -0.000000 -0.003494 -0.999994
vn -0.000000 -0.003494 -0.999994
vn -0.000000 -0.003494 -0.999994
vn -0.000000 0.000000 -1.000000
vn -0.000000 0.000000 -1.000000
vn -0.000000 0.000000 -1.000000
vn -0.000000 0.000000 -1.000000
vn -0.000000 0.000000 -1.000000
vn -0.000000 0.000000 -1.000000
vn -0.000000 -1.000000 0.000000
vn -0.000000 -1.000000 0.000000
vn -0.000000 -1.000000 0.000000
vn -0.000000 -1.000000 0.000000
vn -0.000000 -1.000000 0.000000
vn -0.000000 -1.000000 0.000000
vn -0.000000 0.000001 -1.000000
vn -0.000000 0.000001 -1.000000
vn -0.000000 0.000001 -1.000000
vn -0.000000 -0.000001 -1.000000
vn -0.000000 -0.000001 -1.000000
vn -0.000000 -0.000001 -1.000000
vn -0.000000 0.000000 -1.000000
vn -0.000000 0.000000 -1.000000
vn -0.000000 0.000000 -1.000000
vn -0.000000 0.000000 -1.000000
vn -0.000000 0.000000 -1.000000
vn -0.000000 0.000000 -1.000000
vn -1.000000 0.000000 0.000001
vn -1.000000 0.000000 0.000001
vn -1.000000 0.000000 0.000001
vn -1.000000 0.000000 0.000000
vn -1.000000 0.000000 0.000000
vn -1.000000 0.000000 0.000000
vn -0.000000 1.000000 0.000000
vn -0.000000 1.000000 0.000000
vn -0.000000 1.000000 0.000000
vn -0.000000 1.000000 0.000000
vn -0.000000 1.000000 0.000000
vn -0.000000 1.000000 0.000000
vn 1.000000 0.000000 -0.000001
vn 1.000000 0.000000 -0.000001
vn 1.000000 0.000000 -0.000001
vn 1.000000 0.000000 0.000000
vn 1.000000 0.000000 0.000000
vn 1.000000 0.000000 0.000000
vn -0.000000 0.000000 -1.000000
vn -0.000000 0.000000 -1.000000
vn -0.000000 0.000000 -1.000000
vn -0.000001 -0.000000 -1.000000
vn -0.000001 -0.000000 -1.000000
vn -0.000001 -0.000000 -1.000000
vn -0.000000 0.000000 -1.000000
vn -0.000000 0.000000 -1.000000
vn -0.000000 0.000000 -1.000000
vn -0.000000 0.000000 -1.000000
vn -0.000000 0.000000 -1.000000
vn -0.000000 0.000000 -1.000000
vn -0.000000 -0.000000 -1.000000
vn -0.000000 -0.000000 -1.000000
vn -0.000000 -0.000000 -1.000000
vn -0.000000 0.000001 -1.000000
vn -0.000000 0.000001 -1.000000
vn -0.000000 0.000001 -1.000000
vn -0.000000 -0.000000 -1.000000
vn -0.000000 -0.000000 -1.000000
vn -0.000000 -0.000000 -1.000000
vn -0.000000 0.000000 -1.000000
vn -0.000000 0.000000 -1.000000
vn -0.000000 0.000000 -1.000000
vn -0.000000 0.000000 -1.000000
vn -0.000000 0.000000 -1.000000
vn -0.000000 0.000000 -1.000000
vn -0.000000 0.000000 -1.000000
vn -0.000000 0.000000 -1.000000
vn -0.000000 0.000000 -1.000000
vn -0.000000 0.000000 -1.000000
vn -0.000000 0.000000 -1.000000
vn -0.000000 0.000000 -1.000000
vn -0.000000 0.000000 -1.000000
vn -0.000000 0.000000 -1.000000
vn -0.000000 0.000000 -1.000000

g Material.002
f 3/1/1 1/2/2 2/3/3
f 4/4/4 1/5/5 3/6/6
f 7/7/7 5/8/8 6/9/9
f 8/10/10 5/11/11 7/12/12
f 11/13/13 9/14/14 10/15/15
f 12/16/16 9/17/17 11/18/18
f 15/19/19 13/20/20 14/21/21
f 16/22/22 13/23/23 15/24/24
f 19/25/25 17/26/26 18/27/27
f 20/28/28 17/29/29 19/30/30
f 23/31/31 21/32/32 22/33/33
f 24/34/34 21/35/35 23/36/36
f 27/37/37 25/38/38 26/39/39
f 28/40/40 25/41/41 27/42/42
f 31/43/43 29/44/44 30/45/45
f 32/46/46 29/47/47 31/48/48
f 35/49/49 33/50/50 34/51/51
f 36/52/52 33/53/53 35/54/54
f 39/55/55 37/56/56 38/57/57
f 40/58/58 37/59/59 39/60/60
f 43/61/61 41/62/62 42/63/63
f 44/64/64 41/65/65 43/66/66
f 47/67/67 45/68/68 46/69/69
f 48/70/70 45/71/71 47/72/72
f 51/73/73 49/74/74 50/75/75
f 52/76/76 49/77/77 51/78/78
f 55/79/79 53/80/80 54/81/81
f 56/82/82 53/83/83 55/84/84
f 59/85/85 57/86/86 58/87/87
f 60/88/88 57/89/89 59/90/90
f 63/91/91 61/92/92 62/93/93
f 64/94/94 61/95/95 63/96/96

g Material
f 67/97/97 65/98/98 66/99/99
f 68/100/100 65/101/101 67/102/102
f 71/103/103 69/104/104 70/105/105
f 72/106/106 69/107/107 71/108/108
f 75/109/109 73/110/110 74/111/111
f 76/112/112 73/113/113 75/114/114
f 79/115/115 77/116/116 78/117/117
f 80/118/118 77/119/119 79/120/120
f 83/121/121 81/122/122 82/123/123
f 84/124/124 81/125/125 83/126/126
f 87/127/127 85/128/128 86/129/129
f 88/130/130 85/131/131 87/132/132
f 91/133/133 89/134/134 90/135/135
f 92/136/136 89/137/137 91/138/138
f 95/139/139 93/140/140 94/141/141
f 96/142/142 93/143/143 95/144/144
f 99/145/145 97/146/146 98/147/147
f 100/148/148 97/149/149 99/150/150
f 103/151/151 101/152/152 102/153/153
f 104/154/154 101/155/155 103/156/156
f 107/157/157 105/158/158 106/159/159
f 108/160/160 105/161/161 107/162/162
f 111/163/163 109/164/164 110/165/165
f 112/166/166 109/167/167 111/168/168
f 115/169/169 113/170/170 114/171/171
f 116/172/172 113/173/173 115/174/174
f 122/175/175 120/176/176 121/177/177
f 123/178/178 120/179/179 122/180/180
f 126/181/181 124/182/182 125/183/183
f 127/184/184 124/185/185 126/186/186
f 130/187/187 128/188/188 129/189/189
f 131/190/190 128/191/191 130/192/192
f 134/193/193 132/194/194 133/195/195
f 135/196/196 132/197/197 134/198/198
f 138/199/199 136/200/200 137/201/201
f 139/202/202 136/203/203 138/204/204
f 142/205/205 140/206/206 141/207/207
f 143/208/208 140/209/209 142/210/210
f 146/211/211 144/212/212 145/213/213
f 147/214/214 144/215/215 146/216/216
f 150/217/217 148/218/218 149/219/219
f 151/220/220 148/221/221 150/222/222
f 154/223/223 152/224/224 153/225/225
f 155/226/226 152/227/227 154/228/228
f 158/229/229 156/230/230 157/231/231
f 159/232/232 156/233/233 158/234/234
f 162/235/235 160/236/236 161/237/237
f 163/238/238 160/239/239 162/240/240
f 166/241/241 164/242/242 165/243/243
f 167/244/244 164/245/245 166/246/246
f 170/247/247 168/248/248 169/249/249
f 171/250/250 168/251/251 170/252/252
f 174/253/253 172/254/254 173/255/255
f 175/256/256 172/257/257 174/258/258
f 178/259/259 176/260/260 177/261/261
f 179/262/262 176/263/263 178/264/264
f 182/265/265 180/266/266 181/267/267
f 183/268/268 180/269/269 182/270/270
f 186/271/271 184/272/272 185/273/273
f 187/274/274 184/275/275 186/276/276
f 190/277/277 188/278/278 189/279/279
f 191/280/280 188/281/281 190/282/282
f 194/283/283 192/284/284 193/285/285
f 195/286/286 192/287/287 194/288/288
f 198/289/289 196/290/290 197/291/291
f 199/292/292 196/293/293 198/294/294
f 202/295/295 200/296/296 201/297/297
f 203/298/298 200/299/299 202/300/300
f 206/301/301 204/302/302 205/303/303
f 207/304/304 204/305/305 206/306/306
f 210/307/307 208/308/308 209/309/309
f 211/310/310 208/311/311 210/312/312
f 214/313/313 212/314/314 213/315/315
f 217/316/316 215/317/317 216/318/318
f 218/319/319 215/320/320 217/321/321
f 221/322/322 219/323/323 220/324/324
f 222/325/325 219/326/326 221/327/327
f 225/328/328 223/329/329 224/330/330
f 226/331/331 223/332/332 225/333/333
f 229/334/334 227/335/335 228/336/336
f 230/337/337 227/338/338 229/339/339
f 233/340/340 231/341/341 232/342/342
f 234/343/343 231/344/344 233/345/345
f 237/346/346 235/347/347 236/348/348
f 238/349/349 235/350/350 237/351/351
f 241/352/352 239/353/353 240/354/354
f 242/355/355 239/356/356 241/357/357
f 245/358/358 243/359/359 244/360/360
f 246/361/361 243/362/362 245/363/363
f 249/364/364 247/365/365 248/366/366
f 250/367/367 247/368/368 249/369/369
f 253/370/370 251/371/371 252/372/372
f 254/373/373 251/374/374 253/375/375
f 257/376/376 255/377/377 256/378/378
f 258/379/379 255/380/380 257/381/381
f 261/382/382 259/383/383 260/384/384
f 262/385/385 259/386/386 261/387/387
f 265/388/388 263/389/389 264/390/390
f 266/391/391 263/392/392 265/393/393
f 269/394/394 267/395/395 268/396/396
f 270/397/397 267/398/398 269/399/399
f 273/400/400 271/401/401 272/402/402
f 274/403/403 271/404/404 273/405/405
f 277/406/406 275/407/407 276/408/408
f 278/409/409 275/410/410 277/411/411
f 281/412/412 279/413/413 280/414/414
f 282/415/415 279/416/416 281/417/417
f 285/418/418 283/419/419 284/420/420
f 286/421/421 283/422/422 285/423/423
f 289/424/424 287/425/425 288/426/426
f 290/427/427 287/428/428 289/429/429
f 293/430/430 291/431/431 292/432/432
f 294/433/433 291/434/434 293/435/435
f 297/436/436 295/437/437 296/438/438
f 300/439/439 298/440/440 299/441/441
f 301/442/442 298/443/443 300/444/444
f 304/445/445 302/446/446 303/447/447
f 305/448/448 302/449/449 304/450/450
f 308/451/451 306/452/452 307/453/453
f 309/454/454 306/455/455 308/456/456
f 312/457/457 310/458/458 311/459/459
f 313/460/460 310/461/461 312/462/462
f 316/463/463 314/464/464 315/465/465
f 319/466/466 317/467/467 318/468/468
f 322/469/469 320/470/470 321/471/471
f 325/472/472 323/473/473 324/474/474
f 328/475/475 326/476/476 327/477/477
f 331/478/478 329/479/479 330/480/480
f 334/481/481 332/482/482 333/483/483
f 337/484/484 335/485/485 336/486/486
f 340/487/487 338/488/488 339/489/489
f 343/490/490 341/491/491 342/492/492
f 346/493/493 344/494/494 345/495/495
f 349/496/496 347/497/497 348/498/498
f 352/499/499 350/500/500 351/501/501
f 355/502/502 353/503/503 354/504/504
f 385/505/505 383/506/506 384/507/507
f 386/508/508 383/509/509 385/510/510
f 389/511/511 387/512/512 388/513/513
f 390/514/514 387/515/515 389/516/516
f 393/517/517 391/518/518 392/519/519
f 394/520/520 391/521/521 393/522/522
f 397/523/523 395/524/524 396/525/525
f 398/526/526 395/527/527 397/528/528
f 401/529/529 399/530/530 400/531/531
f 402/532/532 399/533/533 401/534/534
f 405/535/535 403/536/536 404/537/537
f 406/538/538 403/539/539 405/540/540
f 409/541/541 407/542/542 408/543/543
f 410/544/544 407/545/545 409/546/546

g Material.001
f 119/547/547 117/548/548 118/549/549
f 358/550/550 356/551/551 357/552/552
f 361/553/553 359/554/554 360/555/555
f 364/556/556 362/557/557 363/558/558
f 367/559/559 365/560/560 366/561/561
f 370/562/562 368/563/563 369/564/564
f 373/565/565 371/566/566 372/567/567
f 376/568/568 374/569/569 375/570/570
f 379/571/571 377/572/572 378/573/573
f 382/574/574 380/575/575 381/576/576

g Material.003
f 413/577/577 411/578/578 412/579/579
f 414/580/580 411/581/581 413/582/582

