# Converted from B3D for Luanti (With Correct Normals)
# Object Name: multidecor_window_segment_with_thick_slats

v 0.100000 1.000000 -0.750000
v 1.000000 1.000000 -0.750000
v 1.000000 1.000000 -1.000000
v 0.100000 1.000000 -1.000000
v 0.800000 0.100000 -0.875000
v 0.800000 0.100000 -0.750000
v 0.800000 0.800000 -0.750000
v 0.800000 0.800000 -0.875000
v 1.000000 0.100000 -1.000000
v 1.000000 1.000000 -1.000000
v 1.000000 1.000000 -0.750000
v 1.000000 0.100000 -0.750000
v -0.100000 -1.000000 -0.750000
v -1.000000 -1.000000 -0.750000
v -1.000000 -1.000000 -1.000000
v -0.100000 -1.000000 -1.000000
v -1.000000 0.100000 -0.750000
v -1.000000 1.000000 -0.750000
v -1.000000 1.000000 -1.000000
v -1.000000 0.100000 -1.000000
v 0.100000 0.800000 -0.875000
v 0.100000 0.800000 -1.000000
v 0.800000 0.800000 -1.000000
v 0.800000 0.800000 -0.875000
v -0.100000 -0.800000 -0.875000
v -0.100000 -0.800000 -1.000000
v -0.800000 -0.800000 -1.000000
v -0.800000 -0.800000 -0.875000
v -0.800000 0.100000 -0.875000
v -0.800000 0.100000 -1.000000
v -0.800000 0.800000 -1.000000
v -0.800000 0.800000 -0.875000
v 0.100000 1.000000 -0.750000
v 0.100000 0.800000 -0.750000
v 0.800000 0.800000 -0.750000
v 1.000000 1.000000 -0.750000
v -1.000000 0.100000 -0.750000
v -0.800000 0.100000 -0.750000
v -0.800000 0.800000 -0.750000
v -1.000000 1.000000 -0.750000
v -0.100000 -1.000000 -0.750000
v -0.100000 -0.800000 -0.750000
v -0.800000 -0.800000 -0.750000
v -1.000000 -1.000000 -0.750000
v 1.000000 -0.100000 -0.750000
v 0.800000 -0.100000 -0.750000
v 0.800000 -0.800000 -0.750000
v 1.000000 -1.000000 -0.750000
v -0.800000 0.100000 -0.750000
v -0.800000 0.100000 -0.875000
v -0.800000 0.800000 -0.875000
v -0.800000 0.800000 -0.750000
v -0.100000 -0.800000 -0.750000
v -0.100000 -0.800000 -0.875000
v -0.800000 -0.800000 -0.875000
v -0.800000 -0.800000 -0.750000
v 0.100000 0.800000 -0.750000
v 0.100000 0.800000 -0.875000
v 0.800000 0.800000 -0.875000
v 0.800000 0.800000 -0.750000
v 0.800000 0.100000 -1.000000
v 0.800000 0.100000 -0.875000
v 0.800000 0.800000 -0.875000
v 0.800000 0.800000 -1.000000
v -0.800000 0.800000 -0.750000
v -0.800000 0.800000 -0.875000
v -0.100000 0.800000 -0.875000
v -0.100000 0.800000 -0.750000
v -1.000000 1.000000 -0.750000
v -0.800000 0.800000 -0.750000
v -0.100000 0.800000 -0.750000
v -0.100000 1.000000 -0.750000
v -0.100000 1.000000 -0.750000
v -0.100000 0.800000 -0.750000
v 0.100000 0.800000 -0.750000
v 0.100000 1.000000 -0.750000
v 0.100000 -0.800000 -1.000000
v 0.100000 -1.000000 -1.000000
v -0.100000 -1.000000 -1.000000
v -0.100000 -0.800000 -1.000000
v -0.800000 0.800000 -0.875000
v -0.800000 0.800000 -1.000000
v -0.100000 0.800000 -1.000000
v -0.100000 0.800000 -0.875000
v -1.000000 1.000000 -0.750000
v -0.100000 1.000000 -0.750000
v -0.100000 1.000000 -1.000000
v -1.000000 1.000000 -1.000000
v -0.100000 1.000000 -0.750000
v 0.100000 1.000000 -0.750000
v 0.100000 1.000000 -1.000000
v -0.100000 1.000000 -1.000000
v 0.800000 -0.800000 -0.750000
v 0.800000 -0.800000 -0.875000
v 0.100000 -0.800000 -0.875000
v 0.100000 -0.800000 -0.750000
v 1.000000 -1.000000 -0.750000
v 0.800000 -0.800000 -0.750000
v 0.100000 -0.800000 -0.750000
v 0.100000 -1.000000 -0.750000
v 0.100000 -1.000000 -0.750000
v 0.100000 -0.800000 -0.750000
v -0.100000 -0.800000 -0.750000
v -0.100000 -1.000000 -0.750000
v 1.000000 -0.100000 -1.000000
v 1.000000 -1.000000 -1.000000
v 0.800000 -0.800000 -1.000000
v 0.800000 -0.100000 -1.000000
v 0.800000 -0.800000 -0.875000
v 0.800000 -0.800000 -1.000000
v 0.100000 -0.800000 -1.000000
v 0.100000 -0.800000 -0.875000
v 1.000000 -1.000000 -0.750000
v 0.100000 -1.000000 -0.750000
v 0.100000 -1.000000 -1.000000
v 1.000000 -1.000000 -1.000000
v 0.100000 -1.000000 -0.750000
v -0.100000 -1.000000 -0.750000
v -0.100000 -1.000000 -1.000000
v 0.100000 -1.000000 -1.000000
v -0.100000 1.000000 -1.000000
v -0.100000 0.800000 -1.000000
v -0.800000 0.800000 -1.000000
v -1.000000 1.000000 -1.000000
v -0.100000 -0.800000 -1.000000
v -0.100000 -1.000000 -1.000000
v -1.000000 -1.000000 -1.000000
v -0.800000 -0.800000 -1.000000
v 0.800000 -0.100000 -1.000000
v 0.800000 0.100000 -1.000000
v 1.000000 0.100000 -1.000000
v 1.000000 -0.100000 -1.000000
v 0.800000 -0.800000 -1.000000
v 0.800000 -0.800000 -0.875000
v 0.800000 -0.100000 -0.875000
v 0.800000 -0.100000 -1.000000
v 1.000000 1.000000 -0.750000
v 0.800000 0.800000 -0.750000
v 0.800000 0.100000 -0.750000
v 1.000000 0.100000 -0.750000
v 1.000000 0.100000 -0.750000
v 0.800000 0.100000 -0.750000
v 0.800000 -0.100000 -0.750000
v 1.000000 -0.100000 -0.750000
v -1.000000 0.100000 -1.000000
v -0.800000 0.100000 -1.000000
v -0.800000 -0.100000 -1.000000
v -1.000000 -0.100000 -1.000000
v 1.000000 -1.000000 -1.000000
v 1.000000 -0.100000 -1.000000
v 1.000000 -0.100000 -0.750000
v 1.000000 -1.000000 -0.750000
v 1.000000 -0.100000 -1.000000
v 1.000000 0.100000 -1.000000
v 1.000000 0.100000 -0.750000
v 1.000000 -0.100000 -0.750000
v 0.800000 -0.800000 -0.875000
v 0.800000 -0.800000 -0.750000
v 0.800000 -0.100000 -0.750000
v 0.800000 -0.100000 -0.875000
v 0.100000 1.000000 -1.000000
v 0.100000 0.800000 -1.000000
v -0.100000 0.800000 -1.000000
v -0.100000 1.000000 -1.000000
v -0.800000 -0.800000 -0.750000
v -0.800000 -0.800000 -0.875000
v -0.800000 -0.100000 -0.875000
v -0.800000 -0.100000 -0.750000
v -1.000000 -1.000000 -0.750000
v -0.800000 -0.800000 -0.750000
v -0.800000 -0.100000 -0.750000
v -1.000000 -0.100000 -0.750000
v -1.000000 -0.100000 -0.750000
v -0.800000 -0.100000 -0.750000
v -0.800000 0.100000 -0.750000
v -1.000000 0.100000 -0.750000
v 1.000000 0.100000 -1.000000
v 0.800000 0.100000 -1.000000
v 0.800000 0.800000 -1.000000
v 1.000000 1.000000 -1.000000
v -0.800000 -0.800000 -0.875000
v -0.800000 -0.800000 -1.000000
v -0.800000 -0.100000 -1.000000
v -0.800000 -0.100000 -0.875000
v -1.000000 -1.000000 -0.750000
v -1.000000 -0.100000 -0.750000
v -1.000000 -0.100000 -1.000000
v -1.000000 -1.000000 -1.000000
v -1.000000 -0.100000 -0.750000
v -1.000000 0.100000 -0.750000
v -1.000000 0.100000 -1.000000
v -1.000000 -0.100000 -1.000000
v -0.800000 0.100000 -0.875000
v -0.100000 0.100000 -0.875000
v -0.100000 0.100000 -1.000000
v -0.800000 0.100000 -1.000000
v -0.800000 0.100000 -0.750000
v -0.100000 0.100000 -0.750000
v -0.100000 0.100000 -0.875000
v -0.800000 0.100000 -0.875000
v -0.100000 0.100000 -0.875000
v -0.100000 0.800000 -0.875000
v -0.100000 0.800000 -1.000000
v -0.100000 0.100000 -1.000000
v -0.100000 0.100000 -0.750000
v -0.100000 0.800000 -0.750000
v -0.100000 0.800000 -0.875000
v -0.100000 0.100000 -0.875000
v 0.800000 0.100000 -0.875000
v 0.100000 0.100000 -0.875000
v 0.100000 0.100000 -0.750000
v 0.800000 0.100000 -0.750000
v 0.800000 0.100000 -1.000000
v 0.100000 0.100000 -1.000000
v 0.100000 0.100000 -0.875000
v 0.800000 0.100000 -0.875000
v 0.100000 0.100000 -1.000000
v 0.100000 0.800000 -1.000000
v 0.100000 0.800000 -0.875000
v 0.100000 0.100000 -0.875000
v 0.100000 0.100000 -0.875000
v 0.100000 0.800000 -0.875000
v 0.100000 0.800000 -0.750000
v 0.100000 0.100000 -0.750000
v -0.800000 -0.100000 -1.000000
v -0.100000 -0.100000 -1.000000
v -0.100000 -0.100000 -0.875000
v -0.800000 -0.100000 -0.875000
v -0.800000 -0.100000 -0.875000
v -0.100000 -0.100000 -0.875000
v -0.100000 -0.100000 -0.750000
v -0.800000 -0.100000 -0.750000
v -0.100000 -0.100000 -0.875000
v -0.100000 -0.800000 -0.875000
v -0.100000 -0.800000 -0.750000
v -0.100000 -0.100000 -0.750000
v -0.100000 -0.100000 -1.000000
v -0.100000 -0.800000 -1.000000
v -0.100000 -0.800000 -0.875000
v -0.100000 -0.100000 -0.875000
v 0.800000 -0.100000 -0.750000
v 0.100000 -0.100000 -0.750000
v 0.100000 -0.100000 -0.875000
v 0.800000 -0.100000 -0.875000
v 0.800000 -0.100000 -0.875000
v 0.100000 -0.100000 -0.875000
v 0.100000 -0.100000 -1.000000
v 0.800000 -0.100000 -1.000000
v 0.100000 -0.100000 -0.875000
v 0.100000 -0.800000 -0.875000
v 0.100000 -0.800000 -1.000000
v 0.100000 -0.100000 -1.000000
v 0.100000 -0.100000 -0.750000
v 0.100000 -0.800000 -0.750000
v 0.100000 -0.800000 -0.875000
v 0.100000 -0.100000 -0.875000
v -0.800000 -0.100000 -0.750000
v -0.100000 -0.100000 -0.750000
v -0.100000 0.100000 -0.750000
v -0.800000 0.100000 -0.750000
v 0.100000 0.800000 -0.750000
v -0.100000 0.800000 -0.750000
v -0.100000 0.100000 -0.750000
v 0.100000 0.100000 -0.750000
v 0.800000 -0.100000 -0.750000
v 0.800000 0.100000 -0.750000
v 0.100000 0.100000 -0.750000
v 0.100000 -0.100000 -0.750000
v 0.100000 -0.800000 -0.750000
v 0.100000 -0.100000 -0.750000
v -0.100000 -0.100000 -0.750000
v -0.100000 -0.800000 -0.750000
v 0.100000 -0.100000 -0.750000
v 0.100000 0.100000 -0.750000
v -0.100000 0.100000 -0.750000
v -0.100000 -0.100000 -0.750000
v 0.100000 0.800000 -1.000000
v 0.100000 0.100000 -1.000000
v -0.100000 0.100000 -1.000000
v -0.100000 0.800000 -1.000000
v 0.800000 -0.100000 -1.000000
v 0.100000 -0.100000 -1.000000
v 0.100000 0.100000 -1.000000
v 0.800000 0.100000 -1.000000
v -0.800000 -0.100000 -1.000000
v -0.800000 0.100000 -1.000000
v -0.100000 0.100000 -1.000000
v -0.100000 -0.100000 -1.000000
v 0.100000 -0.800000 -1.000000
v -0.100000 -0.800000 -1.000000
v -0.100000 -0.100000 -1.000000
v 0.100000 -0.100000 -1.000000
v 0.100000 0.100000 -1.000000
v 0.100000 -0.100000 -1.000000
v -0.100000 -0.100000 -1.000000
v -0.100000 0.100000 -1.000000
v -0.100000 0.100000 -0.875000
v -0.800000 0.100000 -0.875000
v -0.800000 0.800000 -0.875000
v -0.100000 0.800000 -0.875000
v 0.100000 0.100000 -0.875000
v 0.100000 0.800000 -0.875000
v 0.800000 0.800000 -0.875000
v 0.800000 0.100000 -0.875000
v -0.100000 -0.100000 -0.875000
v -0.100000 -0.800000 -0.875000
v -0.800000 -0.800000 -0.875000
v -0.800000 -0.100000 -0.875000
v 0.100000 -0.100000 -0.875000
v 0.800000 -0.100000 -0.875000
v 0.800000 -0.800000 -0.875000
v 0.100000 -0.800000 -0.875000
v 1.000000 1.000000 -1.000000
v 0.800000 0.800000 -1.000000
v 0.100000 0.800000 -1.000000
v 0.100000 1.000000 -1.000000
v -1.000000 1.000000 -1.000000
v -0.800000 0.800000 -1.000000
v -0.800000 0.100000 -1.000000
v -1.000000 0.100000 -1.000000
v -0.800000 -0.800000 -1.000000
v -1.000000 -1.000000 -1.000000
v -1.000000 -0.100000 -1.000000
v -0.800000 -0.100000 -1.000000
v 0.800000 -0.800000 -1.000000
v 1.000000 -1.000000 -1.000000
v 0.100000 -1.000000 -1.000000
v 0.100000 -0.800000 -1.000000

vt 0.293985 0.000336
vt 0.353776 0.215584
vt 0.353776 0.000336
vt 0.293985 0.215584
vt 0.353776 0.215584
vt 0.293985 0.000336
vt 0.048169 0.509233
vt 0.215584 0.479337
vt 0.215584 0.509233
vt 0.048169 0.479337
vt 0.215584 0.479337
vt 0.048169 0.509233
vt 0.000336 0.557065
vt 0.215584 0.616857
vt 0.000336 0.616857
vt 0.215584 0.557065
vt 0.215584 0.616857
vt 0.000336 0.557065
vt 0.078065 0.478665
vt 0.137856 0.263417
vt 0.137856 0.478665
vt 0.078065 0.263417
vt 0.137856 0.263417
vt 0.078065 0.478665
vt 0.432177 0.078065
vt 0.647425 0.137856
vt 0.432177 0.137856
vt 0.647425 0.078065
vt 0.647425 0.137856
vt 0.432177 0.078065
vt 0.246152 0.048169
vt 0.216257 0.215584
vt 0.246152 0.215584
vt 0.216257 0.048169
vt 0.216257 0.215584
vt 0.246152 0.048169
vt 0.030232 0.430832
vt 0.000336 0.263417
vt 0.030232 0.263417
vt 0.000336 0.430832
vt 0.000336 0.263417
vt 0.030232 0.430832
vt 0.480010 0.030232
vt 0.647425 0.000336
vt 0.647425 0.030232
vt 0.480010 0.000336
vt 0.647425 0.000336
vt 0.480010 0.030232
vt 0.401609 0.048169
vt 0.353776 0.215584
vt 0.401609 0.215584
vt 0.353776 0.000336
vt 0.353776 0.215584
vt 0.401609 0.048169
vt 0.480010 0.185689
vt 0.647425 0.137856
vt 0.647425 0.185689
vt 0.432177 0.137856
vt 0.647425 0.137856
vt 0.480010 0.185689
vt 0.185689 0.430832
vt 0.137856 0.263417
vt 0.185689 0.263417
vt 0.137856 0.478665
vt 0.137856 0.263417
vt 0.185689 0.430832
vt 0.430832 0.509233
vt 0.263417 0.557065
vt 0.263417 0.509233
vt 0.478665 0.557065
vt 0.263417 0.557065
vt 0.430832 0.509233
vt 0.480010 0.215584
vt 0.647425 0.185689
vt 0.647425 0.215584
vt 0.480010 0.185689
vt 0.647425 0.185689
vt 0.480010 0.215584
vt 0.215584 0.430832
vt 0.185689 0.263417
vt 0.215584 0.263417
vt 0.185689 0.430832
vt 0.185689 0.263417
vt 0.215584 0.430832
vt 0.431504 0.048169
vt 0.401609 0.215584
vt 0.431504 0.215584
vt 0.401609 0.048169
vt 0.401609 0.215584
vt 0.431504 0.048169
vt 0.048169 0.694585
vt 0.215584 0.664689
vt 0.215584 0.694585
vt 0.048169 0.664689
vt 0.215584 0.664689
vt 0.048169 0.694585
vt 0.431504 0.263417
vt 0.401609 0.430832
vt 0.431504 0.430832
vt 0.401609 0.263417
vt 0.401609 0.430832
vt 0.431504 0.263417
vt 0.401609 0.263417
vt 0.353776 0.478665
vt 0.401609 0.430832
vt 0.353776 0.263417
vt 0.353776 0.478665
vt 0.401609 0.263417
vt 0.401609 0.215584
vt 0.353776 0.263417
vt 0.401609 0.263417
vt 0.353776 0.215584
vt 0.353776 0.263417
vt 0.401609 0.215584
vt 0.078065 0.263417
vt 0.030232 0.215584
vt 0.078065 0.215584
vt 0.030232 0.263417
vt 0.030232 0.215584
vt 0.078065 0.263417
vt 0.246152 0.263417
vt 0.216257 0.430832
vt 0.246152 0.430832
vt 0.216257 0.263417
vt 0.216257 0.430832
vt 0.246152 0.263417
vt 0.293985 0.263417
vt 0.353776 0.478665
vt 0.353776 0.263417
vt 0.293985 0.478665
vt 0.353776 0.478665
vt 0.293985 0.263417
vt 0.293985 0.215584
vt 0.353776 0.263417
vt 0.353776 0.215584
vt 0.293985 0.263417
vt 0.353776 0.263417
vt 0.293985 0.215584
vt 0.215584 0.215584
vt 0.185689 0.048169
vt 0.215584 0.048169
vt 0.185689 0.215584
vt 0.185689 0.048169
vt 0.215584 0.215584
vt 0.185689 0.215584
vt 0.137856 0.000336
vt 0.185689 0.048169
vt 0.137856 0.215584
vt 0.137856 0.000336
vt 0.185689 0.215584
vt 0.185689 0.263417
vt 0.137856 0.215584
vt 0.185689 0.215584
vt 0.137856 0.263417
vt 0.137856 0.215584
vt 0.185689 0.263417
vt 0.430832 0.664689
vt 0.263417 0.616857
vt 0.478665 0.616857
vt 0.263417 0.664689
vt 0.263417 0.616857
vt 0.430832 0.664689
vt 0.030232 0.215584
vt 0.000336 0.048169
vt 0.030232 0.048169
vt 0.000336 0.215584
vt 0.000336 0.048169
vt 0.030232 0.215584
vt 0.078065 0.215584
vt 0.137856 0.000336
vt 0.137856 0.215584
vt 0.078065 0.000336
vt 0.137856 0.000336
vt 0.078065 0.215584
vt 0.078065 0.263417
vt 0.137856 0.215584
vt 0.137856 0.263417
vt 0.078065 0.215584
vt 0.137856 0.215584
vt 0.078065 0.263417
vt 0.246152 0.430832
vt 0.293985 0.263417
vt 0.246152 0.263417
vt 0.293985 0.478665
vt 0.293985 0.263417
vt 0.246152 0.430832
vt 0.078065 0.478665
vt 0.030232 0.263417
vt 0.078065 0.263417
vt 0.030232 0.430832
vt 0.030232 0.263417
vt 0.078065 0.478665
vt 0.215584 0.616857
vt 0.263417 0.664689
vt 0.215584 0.664689
vt 0.263417 0.616857
vt 0.263417 0.664689
vt 0.215584 0.616857
vt 0.263417 0.694585
vt 0.430832 0.664689
vt 0.430832 0.694585
vt 0.263417 0.664689
vt 0.430832 0.664689
vt 0.263417 0.694585
vt 0.215584 0.509233
vt 0.000336 0.557065
vt 0.048169 0.509233
vt 0.215584 0.557065
vt 0.000336 0.557065
vt 0.215584 0.509233
vt 0.263417 0.509233
vt 0.215584 0.557065
vt 0.215584 0.509233
vt 0.263417 0.557065
vt 0.215584 0.557065
vt 0.263417 0.509233
vt 0.695257 0.030232
vt 0.647425 0.078065
vt 0.647425 0.030232
vt 0.695257 0.078065
vt 0.647425 0.078065
vt 0.695257 0.030232
vt 0.263417 0.557065
vt 0.478665 0.616857
vt 0.263417 0.616857
vt 0.478665 0.557065
vt 0.478665 0.616857
vt 0.263417 0.557065
vt 0.215584 0.557065
vt 0.263417 0.616857
vt 0.215584 0.616857
vt 0.263417 0.557065
vt 0.263417 0.616857
vt 0.215584 0.557065
vt 0.263417 0.509233
vt 0.430832 0.479337
vt 0.430832 0.509233
vt 0.263417 0.479337
vt 0.430832 0.479337
vt 0.263417 0.509233
vt 0.246152 0.263417
vt 0.293985 0.215584
vt 0.246152 0.215584
vt 0.293985 0.263417
vt 0.293985 0.215584
vt 0.246152 0.263417
vt 0.695257 0.215584
vt 0.862672 0.185689
vt 0.862672 0.215584
vt 0.695257 0.185689
vt 0.862672 0.185689
vt 0.695257 0.215584
vt 0.695257 0.185689
vt 0.910505 0.137856
vt 0.862672 0.185689
vt 0.695257 0.137856
vt 0.910505 0.137856
vt 0.695257 0.185689
vt 0.647425 0.185689
vt 0.695257 0.137856
vt 0.695257 0.185689
vt 0.647425 0.137856
vt 0.695257 0.137856
vt 0.647425 0.185689
vt 0.048169 0.664689
vt 0.215584 0.616857
vt 0.215584 0.664689
vt 0.000336 0.616857
vt 0.215584 0.616857
vt 0.048169 0.664689
vt 0.695257 0.030232
vt 0.862672 0.000336
vt 0.862672 0.030232
vt 0.695257 0.000336
vt 0.862672 0.000336
vt 0.695257 0.030232
vt 0.695257 0.078065
vt 0.910505 0.137856
vt 0.695257 0.137856
vt 0.910505 0.078065
vt 0.910505 0.137856
vt 0.695257 0.078065
vt 0.647425 0.078065
vt 0.695257 0.137856
vt 0.647425 0.137856
vt 0.695257 0.078065
vt 0.695257 0.137856
vt 0.647425 0.078065
vt 0.876120 0.646752
vt 0.906016 0.814167
vt 0.906016 0.646752
vt 0.876120 0.814167
vt 0.906016 0.814167
vt 0.876120 0.646752
vt 0.845552 0.646752
vt 0.875448 0.814167
vt 0.875448 0.646752
vt 0.845552 0.814167
vt 0.875448 0.814167
vt 0.845552 0.646752
vt 0.876120 0.479337
vt 0.906016 0.646752
vt 0.906016 0.479337
vt 0.876120 0.646752
vt 0.906016 0.646752
vt 0.876120 0.479337
vt 0.845552 0.479337
vt 0.875448 0.646752
vt 0.875448 0.479337
vt 0.845552 0.646752
vt 0.875448 0.646752
vt 0.845552 0.479337
vt 0.844880 0.646752
vt 0.814984 0.479337
vt 0.814984 0.646752
vt 0.844880 0.479337
vt 0.814984 0.479337
vt 0.844880 0.646752
vt 0.814312 0.646752
vt 0.784416 0.479337
vt 0.784416 0.646752
vt 0.814312 0.479337
vt 0.784416 0.479337
vt 0.814312 0.646752
vt 0.814311 0.814167
vt 0.784416 0.646752
vt 0.784416 0.814167
vt 0.814312 0.646752
vt 0.784416 0.646752
vt 0.814311 0.814167
vt 0.844880 0.814167
vt 0.814984 0.646752
vt 0.814984 0.814167
vt 0.844880 0.646752
vt 0.814984 0.646752
vt 0.844880 0.814167
vt 0.937256 0.646752
vt 0.967152 0.814167
vt 0.967152 0.646752
vt 0.937256 0.814167
vt 0.967152 0.814167
vt 0.937256 0.646752
vt 0.967007 0.216256
vt 0.996903 0.383672
vt 0.996903 0.216256
vt 0.967007 0.383672
vt 0.996903 0.383672
vt 0.967007 0.216256
vt 0.967007 0.048841
vt 0.996903 0.216256
vt 0.996903 0.048841
vt 0.967007 0.216256
vt 0.996903 0.216256
vt 0.967007 0.048841
vt 0.937256 0.479337
vt 0.967152 0.646752
vt 0.967152 0.479337
vt 0.937256 0.646752
vt 0.967152 0.646752
vt 0.937256 0.479337
vt 0.936584 0.646752
vt 0.906688 0.479337
vt 0.906688 0.646752
vt 0.936584 0.479337
vt 0.906688 0.479337
vt 0.936584 0.646752
vt 0.966335 0.216257
vt 0.936439 0.048841
vt 0.936439 0.216257
vt 0.966335 0.048841
vt 0.936439 0.048841
vt 0.966335 0.216257
vt 0.966335 0.383671
vt 0.936439 0.216257
vt 0.936439 0.383671
vt 0.966335 0.216257
vt 0.936439 0.216257
vt 0.966335 0.383671
vt 0.936584 0.814167
vt 0.906688 0.646752
vt 0.906688 0.814167
vt 0.936584 0.646752
vt 0.906688 0.646752
vt 0.936584 0.814167
vt 0.780457 0.482624
vt 0.947872 0.530457
vt 0.780457 0.530457
vt 0.947872 0.482624
vt 0.947872 0.530457
vt 0.780457 0.482624
vt 0.780457 0.482624
vt 0.732624 0.315209
vt 0.780457 0.315209
vt 0.732624 0.482624
vt 0.732624 0.315209
vt 0.780457 0.482624
vt 0.732624 0.482624
vt 0.565209 0.530457
vt 0.565209 0.482624
vt 0.732624 0.530457
vt 0.565209 0.530457
vt 0.732624 0.482624
vt 0.780457 0.530457
vt 0.732624 0.697872
vt 0.732624 0.530457
vt 0.780457 0.697872
vt 0.732624 0.697872
vt 0.780457 0.530457
vt 0.780457 0.482624
vt 0.732624 0.530457
vt 0.732624 0.482624
vt 0.780457 0.530457
vt 0.732624 0.530457
vt 0.780457 0.482624
vt 0.301456 0.698544
vt 0.468871 0.746377
vt 0.301456 0.746377
vt 0.468871 0.698544
vt 0.468871 0.746377
vt 0.301456 0.698544
vt 0.301456 0.746377
vt 0.253623 0.913792
vt 0.253623 0.746377
vt 0.301456 0.913792
vt 0.253623 0.913792
vt 0.301456 0.746377
vt 0.301456 0.698544
vt 0.253623 0.531129
vt 0.301456 0.531129
vt 0.253623 0.698544
vt 0.253623 0.531129
vt 0.301456 0.698544
vt 0.253623 0.698544
vt 0.086208 0.746377
vt 0.086208 0.698544
vt 0.253623 0.746377
vt 0.086208 0.746377
vt 0.253623 0.698544
vt 0.253623 0.698544
vt 0.301456 0.746377
vt 0.253623 0.746377
vt 0.301456 0.698544
vt 0.301456 0.746377
vt 0.253623 0.698544
vt 0.246152 0.215584
vt 0.293985 0.000336
vt 0.246152 0.048169
vt 0.293985 0.215584
vt 0.293985 0.000336
vt 0.246152 0.215584
vt 0.647425 0.030232
vt 0.432177 0.078065
vt 0.480010 0.030232
vt 0.647425 0.078065
vt 0.432177 0.078065
vt 0.647425 0.030232
vt 0.695257 0.078065
vt 0.862672 0.030232
vt 0.910505 0.078065
vt 0.695257 0.030232
vt 0.862672 0.030232
vt 0.695257 0.078065
vt 0.078065 0.215584
vt 0.030232 0.048169
vt 0.078065 0.000336
vt 0.030232 0.215584
vt 0.030232 0.048169
vt 0.078065 0.215584
vt 0.500200 0.499800
vt 0.999800 0.000200
vt 0.999800 0.499800
vt 0.500200 0.000200
vt 0.999800 0.000200
vt 0.500200 0.499800
vt 0.000200 0.500200
vt 0.499800 0.999800
vt 0.499800 0.500200
vt 0.000200 0.999800
vt 0.499800 0.999800
vt 0.000200 0.500200
vt 0.000200 0.499800
vt 0.499800 0.000200
vt 0.000200 0.000200
vt 0.499800 0.499800
vt 0.499800 0.000200
vt 0.000200 0.499800
vt 0.500200 0.500200
vt 0.999800 0.999800
vt 0.500200 0.999800
vt 0.999800 0.500200
vt 0.999800 0.999800
vt 0.500200 0.500200

vn -0.000000 1.000000 0.000000
vn -0.000000 1.000000 0.000000
vn -0.000000 1.000000 0.000000
vn -0.000000 1.000000 0.000000
vn -0.000000 1.000000 0.000000
vn -0.000000 1.000000 0.000000
vn -1.000000 0.000000 0.000000
vn -1.000000 0.000000 0.000000
vn -1.000000 0.000000 0.000000
vn -1.000000 0.000000 0.000000
vn -1.000000 0.000000 0.000000
vn -1.000000 0.000000 0.000000
vn 1.000000 0.000000 0.000000
vn 1.000000 0.000000 0.000000
vn 1.000000 0.000000 0.000000
vn 1.000000 0.000000 0.000000
vn 1.000000 0.000000 0.000000
vn 1.000000 0.000000 0.000000
vn -0.000000 -1.000000 0.000000
vn -0.000000 -1.000000 0.000000
vn -0.000000 -1.000000 0.000000
vn -0.000000 -1.000000 0.000000
vn -0.000000 -1.000000 0.000000
vn -0.000000 -1.000000 0.000000
vn -1.000000 0.000000 0.000000
vn -1.000000 0.000000 0.000000
vn -1.000000 0.000000 0.000000
vn -1.000000 0.000000 0.000000
vn -1.000000 0.000000 0.000000
vn -1.000000 0.000000 0.000000
vn -0.000000 -1.000000 0.000000
vn -0.000000 -1.000000 0.000000
vn -0.000000 -1.000000 0.000000
vn -0.000000 -1.000000 0.000000
vn -0.000000 -1.000000 0.000000
vn -0.000000 -1.000000 0.000000
vn -0.000000 1.000000 0.000000
vn -0.000000 1.000000 0.000000
vn -0.000000 1.000000 0.000000
vn -0.000000 1.000000 0.000000
vn -0.000000 1.000000 0.000000
vn -0.000000 1.000000 0.000000
vn 1.000000 0.000000 0.000000
vn 1.000000 0.000000 0.000000
vn 1.000000 0.000000 0.000000
vn 1.000000 0.000000 0.000000
vn 1.000000 0.000000 0.000000
vn 1.000000 0.000000 0.000000
vn -0.000000 0.000000 1.000000
vn -0.000000 0.000000 1.000000
vn -0.000000 0.000000 1.000000
vn -0.000000 -0.000001 1.000000
vn -0.000000 -0.000001 1.000000
vn -0.000000 -0.000001 1.000000
vn -0.000000 0.000000 1.000000
vn -0.000000 0.000000 1.000000
vn -0.000000 0.000000 1.000000
vn -0.000000 0.000000 1.000000
vn -0.000000 0.000000 1.000000
vn -0.000000 0.000000 1.000000
vn -0.000000 0.000000 1.000000
vn -0.000000 0.000000 1.000000
vn -0.000000 0.000000 1.000000
vn -0.000000 0.000001 1.000000
vn -0.000000 0.000001 1.000000
vn -0.000000 0.000001 1.000000
vn -0.000000 0.000000 1.000000
vn -0.000000 0.000000 1.000000
vn -0.000000 0.000000 1.000000
vn -0.000000 0.000000 1.000000
vn -0.000000 0.000000 1.000000
vn -0.000000 0.000000 1.000000
vn 1.000000 0.000000 0.000000
vn 1.000000 0.000000 0.000000
vn 1.000000 0.000000 0.000000
vn 1.000000 0.000000 0.000000
vn 1.000000 0.000000 0.000000
vn 1.000000 0.000000 0.000000
vn -0.000000 1.000000 0.000000
vn -0.000000 1.000000 0.000000
vn -0.000000 1.000000 0.000000
vn -0.000000 1.000000 0.000000
vn -0.000000 1.000000 0.000000
vn -0.000000 1.000000 0.000000
vn -0.000000 -1.000000 0.000000
vn -0.000000 -1.000000 0.000000
vn -0.000000 -1.000000 0.000000
vn -0.000000 -1.000000 0.000000
vn -0.000000 -1.000000 0.000000
vn -0.000000 -1.000000 0.000000
vn -1.000000 0.000000 0.000000
vn -1.000000 0.000000 0.000000
vn -1.000000 0.000000 0.000000
vn -1.000000 0.000000 0.000000
vn -1.000000 0.000000 0.000000
vn -1.000000 0.000000 0.000000
vn -0.000000 -1.000000 0.000000
vn -0.000000 -1.000000 0.000000
vn -0.000000 -1.000000 0.000000
vn -0.000000 -1.000000 0.000000
vn -0.000000 -1.000000 0.000000
vn -0.000000 -1.000000 0.000000
vn -0.000000 -0.000001 1.000000
vn -0.000000 -0.000001 1.000000
vn -0.000000 -0.000001 1.000000
vn -0.000000 0.000000 1.000000
vn -0.000000 0.000000 1.000000
vn -0.000000 0.000000 1.000000
vn -0.000000 0.000000 1.000000
vn -0.000000 0.000000 1.000000
vn -0.000000 0.000000 1.000000
vn -0.000000 0.000000 1.000000
vn -0.000000 0.000000 1.000000
vn -0.000000 0.000000 1.000000
vn -0.000000 0.000000 -1.000000
vn -0.000000 0.000000 -1.000000
vn -0.000000 0.000000 -1.000000
vn -0.000000 0.000000 -1.000000
vn -0.000000 0.000000 -1.000000
vn -0.000000 0.000000 -1.000000
vn -0.000000 -1.000000 0.000000
vn -0.000000 -1.000000 0.000000
vn -0.000000 -1.000000 0.000000
vn -0.000000 -1.000000 0.000000
vn -0.000000 -1.000000 0.000000
vn -0.000000 -1.000000 0.000000
vn -0.000000 1.000000 0.000000
vn -0.000000 1.000000 0.000000
vn -0.000000 1.000000 0.000000
vn -0.000000 1.000000 0.000000
vn -0.000000 1.000000 0.000000
vn -0.000000 1.000000 0.000000
vn -0.000000 1.000000 0.000000
vn -0.000000 1.000000 0.000000
vn -0.000000 1.000000 0.000000
vn -0.000000 1.000000 0.000000
vn -0.000000 1.000000 0.000000
vn -0.000000 1.000000 0.000000
vn -0.000000 1.000000 0.000000
vn -0.000000 1.000000 0.000000
vn -0.000000 1.000000 0.000000
vn -0.000000 1.000000 0.000000
vn -0.000000 1.000000 0.000000
vn -0.000000 1.000000 0.000000
vn -0.000000 0.000001 1.000000
vn -0.000000 0.000001 1.000000
vn -0.000000 0.000001 1.000000
vn -0.000000 0.000000 1.000000
vn -0.000000 0.000000 1.000000
vn -0.000000 0.000000 1.000000
vn -0.000000 0.000000 1.000000
vn -0.000000 0.000000 1.000000
vn -0.000000 0.000000 1.000000
vn -0.000000 0.000000 1.000000
vn -0.000000 0.000000 1.000000
vn -0.000000 0.000000 1.000000
vn -0.000000 0.000000 -1.000000
vn -0.000000 0.000000 -1.000000
vn -0.000000 0.000000 -1.000000
vn -0.000000 0.000000 -1.000000
vn -0.000000 0.000000 -1.000000
vn -0.000000 0.000000 -1.000000
vn -0.000000 1.000000 0.000000
vn -0.000000 1.000000 0.000000
vn -0.000000 1.000000 0.000000
vn -0.000000 1.000000 0.000000
vn -0.000000 1.000000 0.000000
vn -0.000000 1.000000 0.000000
vn -0.000000 -1.000000 0.000000
vn -0.000000 -1.000000 0.000000
vn -0.000000 -1.000000 0.000000
vn -0.000000 -1.000000 0.000000
vn -0.000000 -1.000000 0.000000
vn -0.000000 -1.000000 0.000000
vn -0.000000 -1.000000 0.000000
vn -0.000000 -1.000000 0.000000
vn -0.000000 -1.000000 0.000000
vn -0.000000 -1.000000 0.000000
vn -0.000000 -1.000000 0.000000
vn -0.000000 -1.000000 0.000000
vn -0.000000 0.000000 -1.000000
vn -0.000000 0.000000 -1.000000
vn -0.000000 0.000000 -1.000000
vn -0.000000 0.000001 -1.000000
vn -0.000000 0.000001 -1.000000
vn -0.000000 0.000001 -1.000000
vn -0.000000 0.000000 -1.000000
vn -0.000000 0.000000 -1.000000
vn -0.000000 0.000000 -1.000000
vn -0.000000 -0.000001 -1.000000
vn -0.000000 -0.000001 -1.000000
vn -0.000000 -0.000001 -1.000000
vn -0.000000 0.000000 -1.000000
vn -0.000000 0.000000 -1.000000
vn -0.000000 0.000000 -1.000000
vn -0.000000 0.000000 -1.000000
vn -0.000000 0.000000 -1.000000
vn -0.000000 0.000000 -1.000000
vn -1.000000 0.000000 0.000000
vn -1.000000 0.000000 0.000000
vn -1.000000 0.000000 0.000000
vn -1.000000 0.000000 0.000000
vn -1.000000 0.000000 0.000000
vn -1.000000 0.000000 0.000000
vn -0.000000 0.000000 1.000000
vn -0.000000 0.000000 1.000000
vn -0.000000 0.000000 1.000000
vn -0.000000 0.000000 1.000000
vn -0.000000 0.000000 1.000000
vn -0.000000 0.000000 1.000000
vn -0.000000 0.000000 1.000000
vn -0.000000 0.000000 1.000000
vn -0.000000 0.000000 1.000000
vn -0.000000 0.000000 1.000000
vn -0.000000 0.000000 1.000000
vn -0.000000 0.000000 1.000000
vn -0.000000 0.000000 -1.000000
vn -0.000000 0.000000 -1.000000
vn -0.000000 0.000000 -1.000000
vn -0.000000 0.000000 -1.000000
vn -0.000000 0.000000 -1.000000
vn -0.000000 0.000000 -1.000000
vn 1.000000 0.000000 0.000000
vn 1.000000 0.000000 0.000000
vn 1.000000 0.000000 0.000000
vn 1.000000 0.000000 0.000000
vn 1.000000 0.000000 0.000000
vn 1.000000 0.000000 0.000000
vn 1.000000 0.000000 0.000000
vn 1.000000 0.000000 0.000000
vn 1.000000 0.000000 0.000000
vn 1.000000 0.000000 0.000000
vn 1.000000 0.000000 0.000000
vn 1.000000 0.000000 0.000000
vn -1.000000 0.000000 0.000000
vn -1.000000 0.000000 0.000000
vn -1.000000 0.000000 0.000000
vn -1.000000 0.000000 0.000000
vn -1.000000 0.000000 0.000000
vn -1.000000 0.000000 0.000000
vn -0.000000 0.000000 -1.000000
vn -0.000000 0.000000 -1.000000
vn -0.000000 0.000000 -1.000000
vn -0.000000 0.000000 -1.000000
vn -0.000000 0.000000 -1.000000
vn -0.000000 0.000000 -1.000000
vn 1.000000 0.000000 0.000000
vn 1.000000 0.000000 0.000000
vn 1.000000 0.000000 0.000000
vn 1.000000 0.000000 0.000000
vn 1.000000 0.000000 0.000000
vn 1.000000 0.000000 0.000000
vn -0.000000 0.000000 1.000000
vn -0.000000 0.000000 1.000000
vn -0.000000 0.000000 1.000000
vn -0.000000 0.000000 1.000000
vn -0.000000 0.000000 1.000000
vn -0.000000 0.000000 1.000000
vn -0.000000 0.000000 1.000000
vn -0.000000 0.000000 1.000000
vn -0.000000 0.000000 1.000000
vn -0.000000 0.000000 1.000000
vn -0.000000 0.000000 1.000000
vn -0.000000 0.000000 1.000000
vn -0.000000 0.000000 -1.000000
vn -0.000000 0.000000 -1.000000
vn -0.000000 0.000000 -1.000000
vn -0.000000 0.000000 -1.000000
vn -0.000000 0.000000 -1.000000
vn -0.000000 0.000000 -1.000000
vn 1.000000 0.000000 0.000000
vn 1.000000 0.000000 0.000000
vn 1.000000 0.000000 0.000000
vn 1.000000 0.000000 0.000000
vn 1.000000 0.000000 0.000000
vn 1.000000 0.000000 0.000000
vn -1.000000 0.000000 0.000000
vn -1.000000 0.000000 0.000000
vn -1.000000 0.000000 0.000000
vn -1.000000 0.000000 0.000000
vn -1.000000 0.000000 0.000000
vn -1.000000 0.000000 0.000000
vn -1.000000 0.000000 0.000000
vn -1.000000 0.000000 0.000000
vn -1.000000 0.000000 0.000000
vn -1.000000 0.000000 0.000000
vn -1.000000 0.000000 0.000000
vn -1.000000 0.000000 0.000000
vn -0.000000 1.000000 0.000000
vn -0.000000 1.000000 0.000000
vn -0.000000 1.000000 0.000000
vn -0.000000 1.000000 0.000000
vn -0.000000 1.000000 0.000000
vn -0.000000 1.000000 0.000000
vn -0.000000 1.000000 0.000000
vn -0.000000 1.000000 0.000000
vn -0.000000 1.000000 0.000000
vn -0.000000 1.000000 0.000000
vn -0.000000 1.000000 0.000000
vn -0.000000 1.000000 0.000000
vn -1.000000 -0.000000 0.000000
vn -1.000000 -0.000000 0.000000
vn -1.000000 -0.000000 0.000000
vn -1.000000 -0.000000 0.000000
vn -1.000000 -0.000000 0.000000
vn -1.000000 -0.000000 0.000000
vn -1.000000 -0.000000 0.000000
vn -1.000000 -0.000000 0.000000
vn -1.000000 -0.000000 0.000000
vn -1.000000 -0.000000 0.000000
vn -1.000000 -0.000000 0.000000
vn -1.000000 -0.000000 0.000000
vn -0.000000 1.000000 0.000000
vn -0.000000 1.000000 0.000000
vn -0.000000 1.000000 0.000000
vn -0.000000 1.000000 0.000000
vn -0.000000 1.000000 0.000000
vn -0.000000 1.000000 0.000000
vn -0.000000 1.000000 0.000000
vn -0.000000 1.000000 0.000000
vn -0.000000 1.000000 0.000000
vn -0.000000 1.000000 0.000000
vn -0.000000 1.000000 0.000000
vn -0.000000 1.000000 0.000000
vn 1.000000 -0.000000 0.000000
vn 1.000000 -0.000000 0.000000
vn 1.000000 -0.000000 0.000000
vn 1.000000 -0.000000 0.000000
vn 1.000000 -0.000000 0.000000
vn 1.000000 -0.000000 0.000000
vn 1.000000 -0.000000 0.000000
vn 1.000000 -0.000000 0.000000
vn 1.000000 -0.000000 0.000000
vn 1.000000 -0.000000 0.000000
vn 1.000000 -0.000000 0.000000
vn 1.000000 -0.000000 0.000000
vn -0.000000 -1.000000 0.000000
vn -0.000000 -1.000000 0.000000
vn -0.000000 -1.000000 0.000000
vn -0.000000 -1.000000 0.000000
vn -0.000000 -1.000000 0.000000
vn -0.000000 -1.000000 0.000000
vn -0.000000 -1.000000 0.000000
vn -0.000000 -1.000000 0.000000
vn -0.000000 -1.000000 0.000000
vn -0.000000 -1.000000 0.000000
vn -0.000000 -1.000000 0.000000
vn -0.000000 -1.000000 0.000000
vn -1.000000 0.000000 0.000000
vn -1.000000 0.000000 0.000000
vn -1.000000 0.000000 0.000000
vn -1.000000 0.000000 0.000000
vn -1.000000 0.000000 0.000000
vn -1.000000 0.000000 0.000000
vn -1.000000 0.000000 0.000000
vn -1.000000 0.000000 0.000000
vn -1.000000 0.000000 0.000000
vn -1.000000 0.000000 0.000000
vn -1.000000 0.000000 0.000000
vn -1.000000 0.000000 0.000000
vn -0.000000 -1.000000 0.000000
vn -0.000000 -1.000000 0.000000
vn -0.000000 -1.000000 0.000000
vn -0.000000 -1.000000 0.000000
vn -0.000000 -1.000000 0.000000
vn -0.000000 -1.000000 0.000000
vn -0.000000 -1.000000 0.000000
vn -0.000000 -1.000000 0.000000
vn -0.000000 -1.000000 0.000000
vn -0.000000 -1.000000 0.000000
vn -0.000000 -1.000000 0.000000
vn -0.000000 -1.000000 0.000000
vn 1.000000 0.000000 0.000000
vn 1.000000 0.000000 0.000000
vn 1.000000 0.000000 0.000000
vn 1.000000 0.000000 0.000000
vn 1.000000 0.000000 0.000000
vn 1.000000 0.000000 0.000000
vn 1.000000 0.000000 0.000000
vn 1.000000 0.000000 0.000000
vn 1.000000 0.000000 0.000000
vn 1.000000 0.000000 0.000000
vn 1.000000 0.000000 0.000000
vn 1.000000 0.000000 0.000000
vn -0.000000 0.000000 1.000000
vn -0.000000 0.000000 1.000000
vn -0.000000 0.000000 1.000000
vn -0.000000 0.000000 1.000000
vn -0.000000 0.000000 1.000000
vn -0.000000 0.000000 1.000000
vn -0.000000 -0.000000 1.000000
vn -0.000000 -0.000000 1.000000
vn -0.000000 -0.000000 1.000000
vn -0.000000 0.000000 1.000000
vn -0.000000 0.000000 1.000000
vn -0.000000 0.000000 1.000000
vn -0.000000 0.000000 1.000000
vn -0.000000 0.000000 1.000000
vn -0.000000 0.000000 1.000000
vn -0.000000 0.000000 1.000000
vn -0.000000 0.000000 1.000000
vn -0.000000 0.000000 1.000000
vn -0.000000 -0.000000 1.000000
vn -0.000000 -0.000000 1.000000
vn -0.000000 -0.000000 1.000000
vn -0.000000 0.000000 1.000000
vn -0.000000 0.000000 1.000000
vn -0.000000 0.000000 1.000000
vn -0.000000 0.000000 1.000000
vn -0.000000 0.000000 1.000000
vn -0.000000 0.000000 1.000000
vn -0.000000 0.000000 1.000000
vn -0.000000 0.000000 1.000000
vn -0.000000 0.000000 1.000000
vn -0.000000 0.000000 -1.000000
vn -0.000000 0.000000 -1.000000
vn -0.000000 0.000000 -1.000000
vn -0.000000 0.000000 -1.000000
vn -0.000000 0.000000 -1.000000
vn -0.000000 0.000000 -1.000000
vn -0.000000 0.000000 -1.000000
vn -0.000000 0.000000 -1.000000
vn -0.000000 0.000000 -1.000000
vn -0.000000 0.000000 -1.000000
vn -0.000000 0.000000 -1.000000
vn -0.000000 0.000000 -1.000000
vn -0.000000 0.000000 -1.000000
vn -0.000000 0.000000 -1.000000
vn -0.000000 0.000000 -1.000000
vn -0.000000 0.000000 -1.000000
vn -0.000000 0.000000 -1.000000
vn -0.000000 0.000000 -1.000000
vn -0.000000 0.000000 -1.000000
vn -0.000000 0.000000 -1.000000
vn -0.000000 0.000000 -1.000000
vn -0.000000 0.000000 -1.000000
vn -0.000000 0.000000 -1.000000
vn -0.000000 0.000000 -1.000000
vn -0.000000 0.000000 -1.000000
vn -0.000000 0.000000 -1.000000
vn -0.000000 0.000000 -1.000000
vn -0.000000 0.000000 -1.000000
vn -0.000000 0.000000 -1.000000
vn -0.000000 0.000000 -1.000000
vn -0.000000 0.000001 -1.000000
vn -0.000000 0.000001 -1.000000
vn -0.000000 0.000001 -1.000000
vn -0.000000 0.000000 -1.000000
vn -0.000000 0.000000 -1.000000
vn -0.000000 0.000000 -1.000000
vn -0.000000 0.000000 -1.000000
vn -0.000000 0.000000 -1.000000
vn -0.000000 0.000000 -1.000000
vn -0.000000 0.000000 -1.000000
vn -0.000000 0.000000 -1.000000
vn -0.000000 0.000000 -1.000000
vn -0.000000 0.000000 -1.000000
vn -0.000000 0.000000 -1.000000
vn -0.000000 0.000000 -1.000000
vn -0.000000 0.000000 -1.000000
vn -0.000000 0.000000 -1.000000
vn -0.000000 0.000000 -1.000000
vn -0.000000 -0.000001 -1.000000
vn -0.000000 -0.000001 -1.000000
vn -0.000000 -0.000001 -1.000000
vn -0.000000 0.000000 -1.000000
vn -0.000000 0.000000 -1.000000
vn -0.000000 0.000000 -1.000000
vn -0.000000 0.000000 -1.000000
vn -0.000000 0.000000 -1.000000
vn -0.000000 0.000000 -1.000000
vn -0.000000 0.000000 -1.000000
vn -0.000000 0.000000 -1.000000
vn -0.000000 0.000000 -1.000000
vn -0.000000 -0.000000 -1.000000
vn -0.000000 -0.000000 -1.000000
vn -0.000000 -0.000000 -1.000000
vn -0.000000 0.000000 -1.000000
vn -0.000000 0.000000 -1.000000
vn -0.000000 0.000000 -1.000000
vn -0.000000 0.000000 -1.000000
vn -0.000000 0.000000 -1.000000
vn -0.000000 0.000000 -1.000000
vn -0.000000 0.000000 -1.000000
vn -0.000000 0.000000 -1.000000
vn -0.000000 0.000000 -1.000000
vn -0.000000 0.000000 -1.000000
vn -0.000000 0.000000 -1.000000
vn -0.000000 0.000000 -1.000000
vn -0.000000 0.000000 -1.000000
vn -0.000000 0.000000 -1.000000
vn -0.000000 0.000000 -1.000000

g Material
f 3/1/1 1/2/2 2/3/3
f 4/4/4 1/5/5 3/6/6
f 7/7/7 5/8/8 6/9/9
f 8/10/10 5/11/11 7/12/12
f 11/13/13 9/14/14 10/15/15
f 12/16/16 9/17/17 11/18/18
f 15/19/19 13/20/20 14/21/21
f 16/22/22 13/23/23 15/24/24
f 19/25/25 17/26/26 18/27/27
f 20/28/28 17/29/29 19/30/30
f 23/31/31 21/32/32 22/33/33
f 24/34/34 21/35/35 23/36/36
f 27/37/37 25/38/38 26/39/39
f 28/40/40 25/41/41 27/42/42
f 31/43/43 29/44/44 30/45/45
f 32/46/46 29/47/47 31/48/48
f 35/49/49 33/50/50 34/51/51
f 36/52/52 33/53/53 35/54/54
f 39/55/55 37/56/56 38/57/57
f 40/58/58 37/59/59 39/60/60
f 43/61/61 41/62/62 42/63/63
f 44/64/64 41/65/65 43/66/66
f 47/67/67 45/68/68 46/69/69
f 48/70/70 45/71/71 47/72/72
f 51/73/73 49/74/74 50/75/75
f 52/76/76 49/77/77 51/78/78
f 55/79/79 53/80/80 54/81/81
f 56/82/82 53/83/83 55/84/84
f 59/85/85 57/86/86 58/87/87
f 60/88/88 57/89/89 59/90/90
f 63/91/91 61/92/92 62/93/93
f 64/94/94 61/95/95 63/96/96
f 67/97/97 65/98/98 66/99/99
f 68/100/100 65/101/101 67/102/102
f 71/103/103 69/104/104 70/105/105
f 72/106/106 69/107/107 71/108/108
f 75/109/109 73/110/110 74/111/111
f 76/112/112 73/113/113 75/114/114
f 79/115/115 77/116/116 78/117/117
f 80/118/118 77/119/119 79/120/120
f 83/121/121 81/122/122 82/123/123
f 84/124/124 81/125/125 83/126/126
f 87/127/127 85/128/128 86/129/129
f 88/130/130 85/131/131 87/132/132
f 91/133/133 89/134/134 90/135/135
f 92/136/136 89/137/137 91/138/138
f 95/139/139 93/140/140 94/141/141
f 96/142/142 93/143/143 95/144/144
f 99/145/145 97/146/146 98/147/147
f 100/148/148 97/149/149 99/150/150
f 103/151/151 101/152/152 102/153/153
f 104/154/154 101/155/155 103/156/156
f 107/157/157 105/158/158 106/159/159
f 108/160/160 105/161/161 107/162/162
f 111/163/163 109/164/164 110/165/165
f 112/166/166 109/167/167 111/168/168
f 115/169/169 113/170/170 114/171/171
f 116/172/172 113/173/173 115/174/174
f 119/175/175 117/176/176 118/177/177
f 120/178/178 117/179/179 119/180/180
f 123/181/181 121/182/182 122/183/183
f 124/184/184 121/185/185 123/186/186
f 127/187/187 125/188/188 126/189/189
f 128/190/190 125/191/191 127/192/192
f 131/193/193 129/194/194 130/195/195
f 132/196/196 129/197/197 131/198/198
f 135/199/199 133/200/200 134/201/201
f 136/202/202 133/203/203 135/204/204
f 139/205/205 137/206/206 138/207/207
f 140/208/208 137/209/209 139/210/210
f 143/211/211 141/212/212 142/213/213
f 144/214/214 141/215/215 143/216/216
f 147/217/217 145/218/218 146/219/219
f 148/220/220 145/221/221 147/222/222
f 151/223/223 149/224/224 150/225/225
f 152/226/226 149/227/227 151/228/228
f 155/229/229 153/230/230 154/231/231
f 156/232/232 153/233/233 155/234/234
f 159/235/235 157/236/236 158/237/237
f 160/238/238 157/239/239 159/240/240
f 163/241/241 161/242/242 162/243/243
f 164/244/244 161/245/245 163/246/246
f 167/247/247 165/248/248 166/249/249
f 168/250/250 165/251/251 167/252/252
f 171/253/253 169/254/254 170/255/255
f 172/256/256 169/257/257 171/258/258
f 175/259/259 173/260/260 174/261/261
f 176/262/262 173/263/263 175/264/264
f 179/265/265 177/266/266 178/267/267
f 180/268/268 177/269/269 179/270/270
f 183/271/271 181/272/272 182/273/273
f 184/274/274 181/275/275 183/276/276
f 187/277/277 185/278/278 186/279/279
f 188/280/280 185/281/281 187/282/282
f 191/283/283 189/284/284 190/285/285
f 192/286/286 189/287/287 191/288/288
f 195/289/289 193/290/290 194/291/291
f 196/292/292 193/293/293 195/294/294
f 199/295/295 197/296/296 198/297/297
f 200/298/298 197/299/299 199/300/300
f 203/301/301 201/302/302 202/303/303
f 204/304/304 201/305/305 203/306/306
f 207/307/307 205/308/308 206/309/309
f 208/310/310 205/311/311 207/312/312
f 211/313/313 209/314/314 210/315/315
f 212/316/316 209/317/317 211/318/318
f 215/319/319 213/320/320 214/321/321
f 216/322/322 213/323/323 215/324/324
f 219/325/325 217/326/326 218/327/327
f 220/328/328 217/329/329 219/330/330
f 223/331/331 221/332/332 222/333/333
f 224/334/334 221/335/335 223/336/336
f 227/337/337 225/338/338 226/339/339
f 228/340/340 225/341/341 227/342/342
f 231/343/343 229/344/344 230/345/345
f 232/346/346 229/347/347 231/348/348
f 235/349/349 233/350/350 234/351/351
f 236/352/352 233/353/353 235/354/354
f 239/355/355 237/356/356 238/357/357
f 240/358/358 237/359/359 239/360/360
f 243/361/361 241/362/362 242/363/363
f 244/364/364 241/365/365 243/366/366
f 247/367/367 245/368/368 246/369/369
f 248/370/370 245/371/371 247/372/372
f 251/373/373 249/374/374 250/375/375
f 252/376/376 249/377/377 251/378/378
f 255/379/379 253/380/380 254/381/381
f 256/382/382 253/383/383 255/384/384
f 259/385/385 257/386/386 258/387/387
f 260/388/388 257/389/389 259/390/390
f 263/391/391 261/392/392 262/393/393
f 264/394/394 261/395/395 263/396/396
f 267/397/397 265/398/398 266/399/399
f 268/400/400 265/401/401 267/402/402
f 271/403/403 269/404/404 270/405/405
f 272/406/406 269/407/407 271/408/408
f 275/409/409 273/410/410 274/411/411
f 276/412/412 273/413/413 275/414/414
f 279/415/415 277/416/416 278/417/417
f 280/418/418 277/419/419 279/420/420
f 283/421/421 281/422/422 282/423/423
f 284/424/424 281/425/425 283/426/426
f 287/427/427 285/428/428 286/429/429
f 288/430/430 285/431/431 287/432/432
f 291/433/433 289/434/434 290/435/435
f 292/436/436 289/437/437 291/438/438
f 295/439/439 293/440/440 294/441/441
f 296/442/442 293/443/443 295/444/444
f 315/445/445 313/446/446 314/447/447
f 316/448/448 313/449/449 315/450/450
f 319/451/451 317/452/452 318/453/453
f 320/454/454 317/455/455 319/456/456
f 323/457/457 321/458/458 322/459/459
f 324/460/460 321/461/461 323/462/462
f 327/463/463 325/464/464 326/465/465
f 328/466/466 325/467/467 327/468/468

g Material.001
f 299/469/469 297/470/470 298/471/471
f 300/472/472 297/473/473 299/474/474
f 303/475/475 301/476/476 302/477/477
f 304/478/478 301/479/479 303/480/480
f 307/481/481 305/482/482 306/483/483
f 308/484/484 305/485/485 307/486/486
f 311/487/487 309/488/488 310/489/489
f 312/490/490 309/491/491 311/492/492

