# Converted from B3D for Luanti (With Correct Normals)
# Object Name: multidecor_wooden_drawer_with_round_handle

v -0.850000 0.299975 -0.947818
v -0.850000 -0.300025 -0.947818
v -0.850000 -0.300025 0.997722
v -0.850000 0.299975 0.997722
v 0.800000 0.299975 -0.947818
v 0.800000 -0.300025 -0.947818
v -0.850000 -0.300025 -0.947818
v -0.850000 0.299975 -0.947818
v 0.800000 0.299975 0.997722
v 0.800000 -0.300025 0.997722
v 0.800000 -0.300025 -0.947818
v 0.800000 0.299975 -0.947818
v 0.800000 -0.300025 -0.947818
v 0.800000 -0.300025 0.997722
v -0.850000 -0.300025 0.997722
v -0.850000 -0.300025 -0.947818
v -0.775000 0.299975 -0.872818
v -0.774999 0.299975 0.997722
v -0.774999 -0.225025 0.997722
v -0.775000 -0.225025 -0.872818
v 0.725000 0.299975 -0.872818
v -0.775000 0.299975 -0.872818
v -0.775000 -0.225025 -0.872818
v 0.725000 -0.225025 -0.872818
v 0.725000 0.299975 0.997722
v 0.725000 0.299975 -0.872818
v 0.725000 -0.225025 -0.872818
v 0.725000 -0.225025 0.997722
v 0.725000 -0.225025 -0.872818
v -0.775000 -0.225025 -0.872818
v -0.774999 -0.225025 0.997722
v 0.725000 -0.225025 0.997722
v -0.850000 -0.300025 0.997722
v -1.000000 -0.300025 0.997722
v -1.000000 0.299975 0.997722
v -0.850000 0.299975 0.997722
v 0.800000 0.299975 0.997722
v 0.950000 0.299975 0.997722
v 0.950000 -0.300025 0.997722
v 0.800000 -0.300025 0.997722
v 0.950000 0.299975 0.997722
v 0.950000 0.299975 1.147722
v 0.950000 -0.300025 1.147722
v 0.950000 -0.300025 0.997722
v -0.850000 -0.300025 0.997722
v -0.850000 -0.300025 1.147722
v -1.000000 -0.300025 1.147722
v -1.000000 -0.300025 0.997722
v 0.800000 -0.300025 0.997722
v 0.800001 -0.300025 1.147722
v -0.850000 -0.300025 1.147722
v -0.850000 -0.300025 0.997722
v -1.000000 -0.300025 0.997722
v -1.000000 -0.300025 1.147722
v -1.000000 0.299975 1.147722
v -1.000000 0.299975 0.997722
v 0.950000 -0.300025 0.997722
v 0.950000 -0.300025 1.147722
v 0.800001 -0.300025 1.147722
v 0.800000 -0.300025 0.997722
v 0.950000 0.299975 1.147722
v -0.850000 -0.300025 1.147722
v 0.800001 -0.300025 1.147722
v -0.850000 0.299975 0.997722
v -1.000000 0.299975 1.147722
v -0.774999 0.299975 0.997722
v -0.774999 -0.225025 0.997722
v 0.725000 0.299975 0.997722
v 0.725000 -0.225025 0.997722
v -0.850000 0.299975 0.997722
v -0.774999 0.299975 0.997722
v -0.775000 0.299975 -0.872818
v -0.850000 0.299975 -0.947818
v 0.800000 0.299975 -0.947818
v -0.850000 0.299975 -0.947818
v -0.775000 0.299975 -0.872818
v 0.725000 0.299975 -0.872818
v 0.725000 0.299975 0.997722
v 0.800000 0.299975 0.997722
v 0.800000 0.299975 -0.947818
v 0.725000 0.299975 -0.872818
v -0.774999 0.299975 0.997722
v 0.950000 0.299975 1.147722
v 0.725000 0.299975 0.997722
v 0.725000 0.299975 0.997722
v 0.950000 0.299975 1.147722
v 0.800000 0.299975 0.997722
v 0.800000 0.299975 0.997722
v 0.950000 0.299975 1.147722
v 0.950000 0.299975 0.997722
v 0.950000 0.299975 1.147722
v -0.774999 0.299975 0.997722
v -1.000000 0.299975 1.147722
v -1.000000 0.299975 1.147722
v -0.850000 0.299975 0.997722
v -1.000000 0.299975 0.997722
v -1.000000 -0.300025 1.147722
v -0.850000 -0.300025 1.147722
v -1.000000 0.299975 1.147722
v -1.000000 0.299975 1.147722
v -0.850000 -0.300025 1.147722
v 0.950000 0.299975 1.147722
v 0.950000 0.299975 1.147722
v 0.800001 -0.300025 1.147722
v 0.950000 -0.300025 1.147722
v -0.774999 -0.225025 0.997722
v -0.774999 0.299975 0.997722
v 0.725000 0.299975 0.997722
v 0.242752 0.056143 1.246109
v 0.242752 -0.056193 1.246109
v 0.325308 -0.056193 1.147722
v 0.325308 0.056143 1.147722
v 0.203023 -0.056193 1.198762
v 0.203023 0.056143 1.198762
v 0.245851 0.056143 1.147722
v 0.245851 -0.056193 1.147722
v 0.203023 0.056143 1.198762
v 0.242752 0.056143 1.246109
v 0.325308 0.056143 1.147722
v 0.245851 0.056143 1.147722
v 0.096329 -0.056193 1.260363
v 0.096329 0.056143 1.260363
v 0.203023 0.056143 1.198762
v 0.203023 -0.056193 1.198762
v 0.117468 0.056143 1.318442
v 0.117468 -0.056193 1.318442
v 0.242752 -0.056193 1.246109
v 0.242752 0.056143 1.246109
v 0.117468 -0.056193 1.318442
v 0.096329 -0.056193 1.260363
v 0.203023 -0.056193 1.198762
v 0.242752 -0.056193 1.246109
v 0.242752 -0.056193 1.246109
v 0.203023 -0.056193 1.198762
v 0.245851 -0.056193 1.147722
v 0.325308 -0.056193 1.147722
v -0.024999 -0.056193 1.343563
v -0.024999 -0.056193 1.281756
v 0.096329 -0.056193 1.260363
v 0.117468 -0.056193 1.318442
v -0.025000 0.056143 1.343563
v -0.024999 -0.056193 1.343563
v 0.117468 -0.056193 1.318442
v 0.117468 0.056143 1.318442
v -0.024999 -0.056193 1.281756
v -0.024999 0.056143 1.281756
v 0.096329 0.056143 1.260363
v 0.096329 -0.056193 1.260363
v -0.024999 0.056143 1.281756
v -0.025000 0.056143 1.343563
v 0.117468 0.056143 1.318442
v 0.096329 0.056143 1.260363
v 0.096329 0.056143 1.260363
v 0.117468 0.056143 1.318442
v 0.242752 0.056143 1.246109
v 0.203023 0.056143 1.198762
v -0.292751 0.056143 1.246109
v -0.375308 0.056143 1.147722
v -0.375308 -0.056194 1.147722
v -0.292751 -0.056194 1.246109
v -0.253022 -0.056194 1.198763
v -0.295850 -0.056194 1.147722
v -0.295850 0.056143 1.147722
v -0.253022 0.056143 1.198763
v -0.253022 0.056143 1.198763
v -0.295850 0.056143 1.147722
v -0.375308 0.056143 1.147722
v -0.292751 0.056143 1.246109
v -0.146328 -0.056194 1.260363
v -0.253022 -0.056194 1.198763
v -0.253022 0.056143 1.198763
v -0.146328 0.056143 1.260363
v -0.167467 0.056143 1.318442
v -0.292751 0.056143 1.246109
v -0.292751 -0.056194 1.246109
v -0.167467 -0.056194 1.318442
v -0.167467 -0.056194 1.318442
v -0.292751 -0.056194 1.246109
v -0.253022 -0.056194 1.198763
v -0.146328 -0.056194 1.260363
v -0.292751 -0.056194 1.246109
v -0.375308 -0.056194 1.147722
v -0.295850 -0.056194 1.147722
v -0.253022 -0.056194 1.198763
v -0.024999 -0.056193 1.343563
v -0.167467 -0.056194 1.318442
v -0.146328 -0.056194 1.260363
v -0.024999 -0.056193 1.281756
v -0.025000 0.056143 1.343563
v -0.167467 0.056143 1.318442
v -0.167467 -0.056194 1.318442
v -0.024999 -0.056193 1.343563
v -0.024999 -0.056193 1.281756
v -0.146328 -0.056194 1.260363
v -0.146328 0.056143 1.260363
v -0.024999 0.056143 1.281756
v -0.024999 0.056143 1.281756
v -0.146328 0.056143 1.260363
v -0.167467 0.056143 1.318442
v -0.025000 0.056143 1.343563
v -0.146328 0.056143 1.260363
v -0.253022 0.056143 1.198763
v -0.292751 0.056143 1.246109
v -0.167467 0.056143 1.318442

vt 0.472816 0.419507
vt 0.121883 0.527734
vt 0.121883 0.419507
vt 0.472816 0.527734
vt 0.121883 0.527734
vt 0.472816 0.419507
vt 0.121883 0.419507
vt 0.013656 0.121883
vt 0.121883 0.121883
vt 0.013656 0.419507
vt 0.013656 0.121883
vt 0.121883 0.419507
vt 0.121883 0.121883
vt 0.472816 0.013656
vt 0.472816 0.121883
vt 0.121883 0.013656
vt 0.472816 0.013656
vt 0.121883 0.121883
vt 0.472816 0.419507
vt 0.121883 0.121883
vt 0.472816 0.121883
vt 0.121883 0.419507
vt 0.121883 0.121883
vt 0.472816 0.419507
vt 0.905174 0.094826
vt 0.567769 0.000127
vt 0.905174 0.000127
vt 0.567769 0.094826
vt 0.567769 0.000127
vt 0.905174 0.094826
vt 0.567769 0.094826
vt 0.473070 0.365393
vt 0.473070 0.094826
vt 0.567769 0.365393
vt 0.473070 0.365393
vt 0.567769 0.094826
vt 0.567769 0.365393
vt 0.905174 0.460092
vt 0.567769 0.460092
vt 0.905174 0.365393
vt 0.905174 0.460092
vt 0.567769 0.365393
vt 0.905174 0.094826
vt 0.567769 0.365393
vt 0.567769 0.094826
vt 0.905174 0.365393
vt 0.567769 0.365393
vt 0.905174 0.094826
vt 0.608354 0.893254
vt 0.500127 0.920311
vt 0.500127 0.893254
vt 0.608354 0.920311
vt 0.500127 0.920311
vt 0.608354 0.893254
vt 0.500128 0.487403
vt 0.608355 0.460347
vt 0.608355 0.487403
vt 0.500128 0.460346
vt 0.608355 0.460347
vt 0.500128 0.487403
vt 0.500128 0.514460
vt 0.608355 0.487403
vt 0.608354 0.514460
vt 0.500128 0.487403
vt 0.608355 0.487403
vt 0.500128 0.514460
vt 0.500127 0.866197
vt 0.473070 0.839140
vt 0.500127 0.839140
vt 0.473070 0.866197
vt 0.473070 0.839140
vt 0.500127 0.866197
vt 0.500127 0.839140
vt 0.473071 0.541517
vt 0.500128 0.541517
vt 0.473070 0.839140
vt 0.473071 0.541517
vt 0.500127 0.839140
vt 0.608354 0.866197
vt 0.500127 0.893254
vt 0.500127 0.866197
vt 0.608354 0.893254
vt 0.500127 0.893254
vt 0.608354 0.866197
vt 0.500128 0.541517
vt 0.473071 0.514460
vt 0.500128 0.514460
vt 0.473071 0.541517
vt 0.473071 0.514460
vt 0.500128 0.541517
vt 0.500128 0.541517
vt 0.608354 0.514460
vt 0.500127 0.839140
vt 0.635412 0.825611
vt 0.635412 0.839140
vt 0.608354 0.866197
vt 0.905174 0.365393
vt 0.905174 0.094826
vt 0.999873 0.365393
vt 0.135411 0.541263
vt 0.472816 0.527734
vt 0.472816 0.541263
vt 0.121883 0.527734
vt 0.472816 0.527734
vt 0.135411 0.541263
vt 0.000127 0.405979
vt 0.013656 0.121883
vt 0.013656 0.419507
vt 0.000127 0.135411
vt 0.013656 0.121883
vt 0.000127 0.405979
vt 0.121883 0.013656
vt 0.472816 0.000127
vt 0.472816 0.013656
vt 0.135411 0.000127
vt 0.472816 0.000127
vt 0.121883 0.013656
vt 0.635412 0.555045
vt 0.635412 0.825611
vt 0.608354 0.514460
vt 0.635412 0.541517
vt 0.635412 0.555045
vt 0.608354 0.514460
vt 0.635412 0.514460
vt 0.635412 0.541517
vt 0.608354 0.514460
vt 0.608354 0.866197
vt 0.608354 0.514460
vt 0.635412 0.825611
vt 0.635412 0.866197
vt 0.608354 0.866197
vt 0.635412 0.839140
vt 0.608354 0.866197
vt 0.500127 0.866197
vt 0.500127 0.839140
vt 0.608354 0.514460
vt 0.608354 0.866197
vt 0.500127 0.839140
vt 0.500128 0.514460
vt 0.608354 0.514460
vt 0.500128 0.541517
vt 0.999873 0.365393
vt 0.905174 0.094826
vt 0.999873 0.094826
vt 0.469419 0.999843
vt 0.603826 0.846174
vt 0.469419 0.846174
vt 0.603826 0.999843
vt 0.603826 0.846174
vt 0.469419 0.999843
vt 0.604140 0.000157
vt 0.738547 0.079876
vt 0.604140 0.079876
vt 0.738547 0.000157
vt 0.738547 0.079876
vt 0.604140 0.000157
vt 0.469105 0.838421
vt 0.408036 0.692110
vt 0.351388 0.739644
vt 0.469105 0.743353
vt 0.408036 0.692110
vt 0.469105 0.838421
vt 0.604140 0.079876
vt 0.738547 0.227281
vt 0.604140 0.227281
vt 0.738547 0.079876
vt 0.738547 0.227281
vt 0.604140 0.079876
vt 0.469419 0.846174
vt 0.603826 0.673087
vt 0.469419 0.673087
vt 0.603826 0.846174
vt 0.603826 0.673087
vt 0.469419 0.846174
vt 0.173406 0.146467
vt 0.030213 0.248831
vt 0.099703 0.274123
vt 0.116757 0.098933
vt 0.030213 0.248831
vt 0.173406 0.146467
vt 0.234474 0.095225
vt 0.116757 0.098933
vt 0.173406 0.146467
vt 0.234474 0.000157
vt 0.116757 0.098933
vt 0.234474 0.095225
vt 0.099703 0.274123
vt 0.000157 0.419289
vt 0.074107 0.419289
vt 0.030213 0.248831
vt 0.000157 0.419289
vt 0.099703 0.274123
vt 0.469419 0.673087
vt 0.603826 0.500000
vt 0.469419 0.500000
vt 0.603826 0.673087
vt 0.603826 0.500000
vt 0.469419 0.673087
vt 0.604140 0.227281
vt 0.738547 0.374685
vt 0.604140 0.374685
vt 0.738547 0.227281
vt 0.738547 0.374685
vt 0.604140 0.227281
vt 0.264844 0.589747
vt 0.308737 0.419289
vt 0.234788 0.419289
vt 0.334334 0.564454
vt 0.308737 0.419289
vt 0.264844 0.589747
vt 0.351388 0.739644
vt 0.334334 0.564454
vt 0.264844 0.589747
vt 0.408036 0.692110
vt 0.334334 0.564454
vt 0.351388 0.739644
vt 0.469419 0.000157
vt 0.603825 0.153826
vt 0.603826 0.000157
vt 0.469419 0.153826
vt 0.603825 0.153826
vt 0.469419 0.000157
vt 0.604140 0.749214
vt 0.738547 0.669495
vt 0.738547 0.749214
vt 0.604140 0.669495
vt 0.738547 0.669495
vt 0.604140 0.749214
vt 0.469105 0.000157
vt 0.408036 0.146467
vt 0.469105 0.095225
vt 0.351388 0.098933
vt 0.408036 0.146467
vt 0.469105 0.000157
vt 0.604140 0.669495
vt 0.738547 0.522090
vt 0.738547 0.669495
vt 0.604140 0.522090
vt 0.738547 0.522090
vt 0.604140 0.669495
vt 0.469419 0.153826
vt 0.603826 0.326913
vt 0.603825 0.153826
vt 0.469419 0.326913
vt 0.603826 0.326913
vt 0.469419 0.153826
vt 0.173406 0.692110
vt 0.030214 0.589746
vt 0.116757 0.739644
vt 0.099703 0.564454
vt 0.030214 0.589746
vt 0.173406 0.692110
vt 0.234474 0.743353
vt 0.116757 0.739644
vt 0.234474 0.838421
vt 0.173406 0.692110
vt 0.116757 0.739644
vt 0.234474 0.743353
vt 0.099703 0.564454
vt 0.000157 0.419289
vt 0.030214 0.589746
vt 0.074107 0.419289
vt 0.000157 0.419289
vt 0.099703 0.564454
vt 0.469419 0.326913
vt 0.603826 0.500000
vt 0.603826 0.326913
vt 0.469419 0.500000
vt 0.603826 0.500000
vt 0.469419 0.326913
vt 0.604140 0.522090
vt 0.738547 0.374685
vt 0.738547 0.522090
vt 0.604140 0.374685
vt 0.738547 0.374685
vt 0.604140 0.522090
vt 0.264844 0.248831
vt 0.308737 0.419289
vt 0.334334 0.274123
vt 0.234788 0.419289
vt 0.308737 0.419289
vt 0.264844 0.248831
vt 0.351388 0.098933
vt 0.334334 0.274123
vt 0.408036 0.146467
vt 0.264844 0.248831
vt 0.334334 0.274123
vt 0.351388 0.098933

vn -1.000000 0.000000 0.000000
vn -1.000000 0.000000 0.000000
vn -1.000000 0.000000 0.000000
vn -1.000000 0.000000 0.000000
vn -1.000000 0.000000 0.000000
vn -1.000000 0.000000 0.000000
vn -0.000000 0.000000 -1.000000
vn -0.000000 0.000000 -1.000000
vn -0.000000 0.000000 -1.000000
vn -0.000000 0.000000 -1.000000
vn -0.000000 0.000000 -1.000000
vn -0.000000 0.000000 -1.000000
vn 1.000000 0.000000 -0.000000
vn 1.000000 0.000000 -0.000000
vn 1.000000 0.000000 -0.000000
vn 1.000000 0.000000 -0.000000
vn 1.000000 0.000000 -0.000000
vn 1.000000 0.000000 -0.000000
vn 0.000000 -1.000000 0.000000
vn 0.000000 -1.000000 0.000000
vn 0.000000 -1.000000 0.000000
vn -0.000000 -1.000000 0.000000
vn -0.000000 -1.000000 0.000000
vn -0.000000 -1.000000 0.000000
vn 1.000000 0.000000 -0.000000
vn 1.000000 0.000000 -0.000000
vn 1.000000 0.000000 -0.000000
vn 1.000000 0.000000 -0.000000
vn 1.000000 0.000000 -0.000000
vn 1.000000 0.000000 -0.000000
vn 0.000000 0.000000 1.000000
vn 0.000000 0.000000 1.000000
vn 0.000000 0.000000 1.000000
vn 0.000000 0.000000 1.000000
vn 0.000000 0.000000 1.000000
vn 0.000000 0.000000 1.000000
vn -1.000000 0.000000 0.000000
vn -1.000000 0.000000 0.000000
vn -1.000000 0.000000 0.000000
vn -1.000000 0.000000 0.000000
vn -1.000000 0.000000 0.000000
vn -1.000000 0.000000 0.000000
vn -0.000000 1.000000 0.000000
vn -0.000000 1.000000 0.000000
vn -0.000000 1.000000 0.000000
vn 0.000000 1.000000 0.000000
vn 0.000000 1.000000 0.000000
vn 0.000000 1.000000 0.000000
vn -0.000000 0.000000 -1.000000
vn -0.000000 0.000000 -1.000000
vn -0.000000 0.000000 -1.000000
vn -0.000000 0.000000 -1.000000
vn -0.000000 0.000000 -1.000000
vn -0.000000 0.000000 -1.000000
vn -0.000000 0.000000 -1.000000
vn -0.000000 0.000000 -1.000000
vn -0.000000 0.000000 -1.000000
vn -0.000000 0.000000 -1.000000
vn -0.000000 0.000000 -1.000000
vn -0.000000 0.000000 -1.000000
vn 1.000000 0.000000 0.000000
vn 1.000000 0.000000 0.000000
vn 1.000000 0.000000 0.000000
vn 1.000000 0.000000 -0.000001
vn 1.000000 0.000000 -0.000001
vn 1.000000 0.000000 -0.000001
vn -0.000000 -1.000000 0.000000
vn -0.000000 -1.000000 0.000000
vn -0.000000 -1.000000 0.000000
vn 0.000000 -1.000000 0.000000
vn 0.000000 -1.000000 0.000000
vn 0.000000 -1.000000 0.000000
vn -0.000000 -1.000000 0.000000
vn -0.000000 -1.000000 0.000000
vn -0.000000 -1.000000 0.000000
vn -0.000000 -1.000000 0.000000
vn -0.000000 -1.000000 0.000000
vn -0.000000 -1.000000 0.000000
vn -1.000000 0.000000 0.000000
vn -1.000000 0.000000 0.000000
vn -1.000000 0.000000 0.000000
vn -1.000000 0.000000 0.000000
vn -1.000000 0.000000 0.000000
vn -1.000000 0.000000 0.000000
vn -0.000000 -1.000000 0.000000
vn -0.000000 -1.000000 0.000000
vn -0.000000 -1.000000 0.000000
vn -0.000000 -1.000000 0.000000
vn -0.000000 -1.000000 0.000000
vn -0.000000 -1.000000 0.000000
vn 0.000000 0.000000 1.000000
vn 0.000000 0.000000 1.000000
vn 0.000000 0.000000 1.000000
vn -0.000000 1.000000 0.000000
vn -0.000000 1.000000 0.000000
vn -0.000000 1.000000 0.000000
vn -0.000000 0.000000 -1.000000
vn -0.000000 0.000000 -1.000000
vn -0.000000 0.000000 -1.000000
vn -0.000000 1.000000 0.000000
vn -0.000000 1.000000 0.000000
vn -0.000000 1.000000 0.000000
vn -0.000001 1.000000 0.000000
vn -0.000001 1.000000 0.000000
vn -0.000001 1.000000 0.000000
vn -0.000000 1.000000 0.000000
vn -0.000000 1.000000 0.000000
vn -0.000000 1.000000 0.000000
vn -0.000000 1.000000 0.000000
vn -0.000000 1.000000 0.000000
vn -0.000000 1.000000 0.000000
vn -0.000000 1.000000 0.000000
vn -0.000000 1.000000 0.000000
vn -0.000000 1.000000 0.000000
vn 0.000001 1.000000 0.000000
vn 0.000001 1.000000 0.000000
vn 0.000001 1.000000 0.000000
vn -0.000000 1.000000 0.000000
vn -0.000000 1.000000 0.000000
vn -0.000000 1.000000 0.000000
vn -0.000000 1.000000 0.000000
vn -0.000000 1.000000 0.000000
vn -0.000000 1.000000 0.000000
vn -0.000000 1.000000 0.000000
vn -0.000000 1.000000 0.000000
vn -0.000000 1.000000 0.000000
vn -0.000000 1.000000 0.000000
vn -0.000000 1.000000 0.000000
vn -0.000000 1.000000 0.000000
vn 0.000000 1.000000 0.000000
vn 0.000000 1.000000 0.000000
vn 0.000000 1.000000 0.000000
vn 0.000001 0.000000 1.000000
vn 0.000001 0.000000 1.000000
vn 0.000001 0.000000 1.000000
vn 0.000000 -0.000000 1.000000
vn 0.000000 -0.000000 1.000000
vn 0.000000 -0.000000 1.000000
vn -0.000000 0.000000 1.000000
vn -0.000000 0.000000 1.000000
vn -0.000000 0.000000 1.000000
vn -0.000000 0.000000 -1.000000
vn -0.000000 0.000000 -1.000000
vn -0.000000 0.000000 -1.000000
vn 0.766044 -0.000000 0.642788
vn 0.766044 -0.000000 0.642788
vn 0.766044 -0.000000 0.642788
vn 0.766044 0.000000 0.642788
vn 0.766044 0.000000 0.642788
vn 0.766044 0.000000 0.642788
vn -0.766045 -0.000001 -0.642787
vn -0.766045 -0.000001 -0.642787
vn -0.766045 -0.000001 -0.642787
vn -0.766045 0.000000 -0.642787
vn -0.766045 0.000000 -0.642787
vn -0.766045 0.000000 -0.642787
vn -0.000000 1.000000 -0.000000
vn -0.000000 1.000000 -0.000000
vn -0.000000 1.000000 -0.000000
vn -0.000000 1.000000 -0.000000
vn -0.000000 1.000000 -0.000000
vn -0.000000 1.000000 -0.000000
vn -0.500001 0.000001 -0.866025
vn -0.500001 0.000001 -0.866025
vn -0.500001 0.000001 -0.866025
vn -0.500001 -0.000002 -0.866025
vn -0.500001 -0.000002 -0.866025
vn -0.500001 -0.000002 -0.866025
vn 0.500001 -0.000000 0.866025
vn 0.500001 -0.000000 0.866025
vn 0.500001 -0.000000 0.866025
vn 0.500001 0.000002 0.866025
vn 0.500001 0.000002 0.866025
vn 0.500001 0.000002 0.866025
vn 0.000000 -1.000000 -0.000000
vn 0.000000 -1.000000 -0.000000
vn 0.000000 -1.000000 -0.000000
vn 0.000000 -1.000000 -0.000000
vn 0.000000 -1.000000 -0.000000
vn 0.000000 -1.000000 -0.000000
vn 0.000000 -1.000000 0.000000
vn 0.000000 -1.000000 0.000000
vn 0.000000 -1.000000 0.000000
vn 0.000000 -1.000000 0.000000
vn 0.000000 -1.000000 0.000000
vn 0.000000 -1.000000 0.000000
vn 0.000000 -1.000000 -0.000000
vn 0.000000 -1.000000 -0.000000
vn 0.000000 -1.000000 -0.000000
vn 0.000000 -1.000000 -0.000000
vn 0.000000 -1.000000 -0.000000
vn 0.000000 -1.000000 -0.000000
vn 0.173649 -0.000001 0.984808
vn 0.173649 -0.000001 0.984808
vn 0.173649 -0.000001 0.984808
vn 0.173649 0.000000 0.984808
vn 0.173649 0.000000 0.984808
vn 0.173649 0.000000 0.984808
vn -0.173649 0.000002 -0.984808
vn -0.173649 0.000002 -0.984808
vn -0.173649 0.000002 -0.984808
vn -0.173649 0.000000 -0.984808
vn -0.173649 0.000000 -0.984808
vn -0.173649 0.000000 -0.984808
vn -0.000000 1.000000 -0.000000
vn -0.000000 1.000000 -0.000000
vn -0.000000 1.000000 -0.000000
vn -0.000000 1.000000 0.000000
vn -0.000000 1.000000 0.000000
vn -0.000000 1.000000 0.000000
vn -0.000000 1.000000 0.000000
vn -0.000000 1.000000 0.000000
vn -0.000000 1.000000 0.000000
vn -0.000000 1.000000 -0.000000
vn -0.000000 1.000000 -0.000000
vn -0.000000 1.000000 -0.000000
vn -0.766044 0.000000 0.642788
vn -0.766044 0.000000 0.642788
vn -0.766044 0.000000 0.642788
vn -0.766044 -0.000001 0.642788
vn -0.766044 -0.000001 0.642788
vn -0.766044 -0.000001 0.642788
vn 0.766045 0.000000 -0.642787
vn 0.766045 0.000000 -0.642787
vn 0.766045 0.000000 -0.642787
vn 0.766045 0.000001 -0.642787
vn 0.766045 0.000001 -0.642787
vn 0.766045 0.000001 -0.642787
vn -0.000000 1.000000 -0.000000
vn -0.000000 1.000000 -0.000000
vn -0.000000 1.000000 -0.000000
vn -0.000001 1.000000 0.000000
vn -0.000001 1.000000 0.000000
vn -0.000001 1.000000 0.000000
vn 0.499999 0.000002 -0.866026
vn 0.499999 0.000002 -0.866026
vn 0.499999 0.000002 -0.866026
vn 0.499999 0.000000 -0.866026
vn 0.499999 0.000000 -0.866026
vn 0.499999 0.000000 -0.866026
vn -0.500000 0.000000 0.866026
vn -0.500000 0.000000 0.866026
vn -0.500000 0.000000 0.866026
vn -0.500000 0.000000 0.866026
vn -0.500000 0.000000 0.866026
vn -0.500000 0.000000 0.866026
vn 0.000000 -1.000000 0.000000
vn 0.000000 -1.000000 0.000000
vn 0.000000 -1.000000 0.000000
vn 0.000000 -1.000000 -0.000000
vn 0.000000 -1.000000 -0.000000
vn 0.000000 -1.000000 -0.000000
vn 0.000000 -1.000000 -0.000000
vn 0.000000 -1.000000 -0.000000
vn 0.000000 -1.000000 -0.000000
vn -0.000000 -1.000000 -0.000000
vn -0.000000 -1.000000 -0.000000
vn -0.000000 -1.000000 -0.000000
vn 0.000000 -1.000000 -0.000000
vn 0.000000 -1.000000 -0.000000
vn 0.000000 -1.000000 -0.000000
vn 0.000000 -1.000000 -0.000000
vn 0.000000 -1.000000 -0.000000
vn 0.000000 -1.000000 -0.000000
vn -0.173649 -0.000002 0.984808
vn -0.173649 -0.000002 0.984808
vn -0.173649 -0.000002 0.984808
vn -0.173649 0.000002 0.984808
vn -0.173649 0.000002 0.984808
vn -0.173649 0.000002 0.984808
vn 0.173649 -0.000002 -0.984808
vn 0.173649 -0.000002 -0.984808
vn 0.173649 -0.000002 -0.984808
vn 0.173649 0.000000 -0.984808
vn 0.173649 0.000000 -0.984808
vn 0.173649 0.000000 -0.984808
vn -0.000000 1.000000 -0.000000
vn -0.000000 1.000000 -0.000000
vn -0.000000 1.000000 -0.000000
vn -0.000000 1.000000 -0.000000
vn -0.000000 1.000000 -0.000000
vn -0.000000 1.000000 -0.000000
vn -0.000000 1.000000 0.000000
vn -0.000000 1.000000 0.000000
vn -0.000000 1.000000 0.000000
vn -0.000000 1.000000 -0.000000
vn -0.000000 1.000000 -0.000000
vn -0.000000 1.000000 -0.000000

g Material.014
f 3/1/1 1/2/2 2/3/3
f 4/4/4 1/5/5 3/6/6
f 7/7/7 5/8/8 6/9/9
f 8/10/10 5/11/11 7/12/12
f 11/13/13 9/14/14 10/15/15
f 12/16/16 9/17/17 11/18/18
f 15/19/19 13/20/20 14/21/21
f 16/22/22 13/23/23 15/24/24
f 19/25/25 17/26/26 18/27/27
f 20/28/28 17/29/29 19/30/30
f 23/31/31 21/32/32 22/33/33
f 24/34/34 21/35/35 23/36/36
f 27/37/37 25/38/38 26/39/39
f 28/40/40 25/41/41 27/42/42
f 31/43/43 29/44/44 30/45/45
f 32/46/46 29/47/47 31/48/48
f 35/49/49 33/50/50 34/51/51
f 36/52/52 33/53/53 35/54/54
f 39/55/55 37/56/56 38/57/57
f 40/58/58 37/59/59 39/60/60
f 43/61/61 41/62/62 42/63/63
f 44/64/64 41/65/65 43/66/66
f 47/67/67 45/68/68 46/69/69
f 48/70/70 45/71/71 47/72/72
f 51/73/73 49/74/74 50/75/75
f 52/76/76 49/77/77 51/78/78
f 55/79/79 53/80/80 54/81/81
f 56/82/82 53/83/83 55/84/84
f 59/85/85 57/86/86 58/87/87
f 60/88/88 57/89/89 59/90/90
f 63/91/91 61/92/92 62/93/93
f 66/94/94 64/95/95 65/96/96
f 69/97/97 67/98/98 68/99/99
f 72/100/100 70/101/101 71/102/102
f 73/103/103 70/104/104 72/105/105
f 76/106/106 74/107/107 75/108/108
f 77/109/109 74/110/110 76/111/111
f 80/112/112 78/113/113 79/114/114
f 81/115/115 78/116/116 80/117/117
f 84/118/118 82/119/119 83/120/120
f 87/121/121 85/122/122 86/123/123
f 90/124/124 88/125/125 89/126/126
f 93/127/127 91/128/128 92/129/129
f 96/130/130 94/131/131 95/132/132
f 99/133/133 97/134/134 98/135/135
f 102/136/136 100/137/137 101/138/138
f 105/139/139 103/140/140 104/141/141
f 108/142/142 106/143/143 107/144/144

g Material.004
f 111/145/145 109/146/146 110/147/147
f 112/148/148 109/149/149 111/150/150
f 115/151/151 113/152/152 114/153/153
f 116/154/154 113/155/155 115/156/156
f 119/157/157 117/158/158 118/159/159
f 120/160/160 117/161/161 119/162/162
f 123/163/163 121/164/164 122/165/165
f 124/166/166 121/167/167 123/168/168
f 127/169/169 125/170/170 126/171/171
f 128/172/172 125/173/173 127/174/174
f 131/175/175 129/176/176 130/177/177
f 132/178/178 129/179/179 131/180/180
f 135/181/181 133/182/182 134/183/183
f 136/184/184 133/185/185 135/186/186
f 139/187/187 137/188/188 138/189/189
f 140/190/190 137/191/191 139/192/192
f 143/193/193 141/194/194 142/195/195
f 144/196/196 141/197/197 143/198/198
f 147/199/199 145/200/200 146/201/201
f 148/202/202 145/203/203 147/204/204
f 151/205/205 149/206/206 150/207/207
f 152/208/208 149/209/209 151/210/210
f 155/211/211 153/212/212 154/213/213
f 156/214/214 153/215/215 155/216/216
f 159/217/217 157/218/218 158/219/219
f 160/220/220 157/221/221 159/222/222
f 163/223/223 161/224/224 162/225/225
f 164/226/226 161/227/227 163/228/228
f 167/229/229 165/230/230 166/231/231
f 168/232/232 165/233/233 167/234/234
f 171/235/235 169/236/236 170/237/237
f 172/238/238 169/239/239 171/240/240
f 175/241/241 173/242/242 174/243/243
f 176/244/244 173/245/245 175/246/246
f 179/247/247 177/248/248 178/249/249
f 180/250/250 177/251/251 179/252/252
f 183/253/253 181/254/254 182/255/255
f 184/256/256 181/257/257 183/258/258
f 187/259/259 185/260/260 186/261/261
f 188/262/262 185/263/263 187/264/264
f 191/265/265 189/266/266 190/267/267
f 192/268/268 189/269/269 191/270/270
f 195/271/271 193/272/272 194/273/273
f 196/274/274 193/275/275 195/276/276
f 199/277/277 197/278/278 198/279/279
f 200/280/280 197/281/281 199/282/282
f 203/283/283 201/284/284 202/285/285
f 204/286/286 201/287/287 203/288/288

