# Converted from B3D for Luanti (With Correct Normals)
# Object Name: multidecor_modern_round_metallic_stool

v -0.400000 0.600000 0.692820
v -0.000000 0.520000 0.800000
v -0.000000 0.600000 0.800000
v -0.400000 0.520000 0.692820
v -0.000000 0.520000 0.800000
v -0.400000 0.600000 0.692820
v -0.692820 0.600000 0.400000
v -0.400000 0.520000 0.692820
v -0.400000 0.600000 0.692820
v -0.692820 0.520000 0.400000
v -0.400000 0.520000 0.692820
v -0.692820 0.600000 0.400000
v -0.800000 0.600000 -0.000000
v -0.692820 0.520000 0.400000
v -0.692820 0.600000 0.400000
v -0.800000 0.520000 -0.000000
v -0.692820 0.520000 0.400000
v -0.800000 0.600000 -0.000000
v -0.692820 0.600000 -0.400000
v -0.800000 0.520000 -0.000000
v -0.800000 0.600000 -0.000000
v -0.692820 0.520000 -0.400000
v -0.800000 0.520000 -0.000000
v -0.692820 0.600000 -0.400000
v -0.400000 0.600000 -0.692820
v -0.692820 0.520000 -0.400000
v -0.692820 0.600000 -0.400000
v -0.400000 0.520000 -0.692820
v -0.692820 0.520000 -0.400000
v -0.400000 0.600000 -0.692820
v 0.000000 0.600000 -0.800000
v -0.400000 0.520000 -0.692820
v -0.400000 0.600000 -0.692820
v 0.000000 0.520000 -0.800000
v -0.400000 0.520000 -0.692820
v 0.000000 0.600000 -0.800000
v 0.400000 0.600000 -0.692820
v 0.000000 0.520000 -0.800000
v 0.000000 0.600000 -0.800000
v 0.400000 0.520000 -0.692820
v 0.000000 0.520000 -0.800000
v 0.400000 0.600000 -0.692820
v 0.692820 0.600000 -0.400000
v 0.400000 0.520000 -0.692820
v 0.400000 0.600000 -0.692820
v 0.692820 0.520000 -0.400000
v 0.400000 0.520000 -0.692820
v 0.692820 0.600000 -0.400000
v 0.800000 0.600000 0.000000
v 0.692820 0.520000 -0.400000
v 0.692820 0.600000 -0.400000
v 0.800000 0.520000 0.000000
v 0.692820 0.520000 -0.400000
v 0.800000 0.600000 0.000000
v 0.692820 0.600000 0.400000
v 0.800000 0.520000 0.000000
v 0.800000 0.600000 0.000000
v 0.692820 0.520000 0.400000
v 0.800000 0.520000 0.000000
v 0.692820 0.600000 0.400000
v -0.610576 0.661555 0.352516
v 0.610576 0.661555 0.352516
v 0.000000 0.661555 -0.705032
v 0.400000 0.600000 0.692820
v 0.692820 0.520000 0.400000
v 0.692820 0.600000 0.400000
v 0.400000 0.520000 0.692820
v 0.692820 0.520000 0.400000
v 0.400000 0.600000 0.692820
v -0.000000 0.600000 0.800000
v 0.400000 0.520000 0.692820
v 0.400000 0.600000 0.692820
v -0.000000 0.520000 0.800000
v 0.400000 0.520000 0.692820
v -0.000000 0.600000 0.800000
v 0.400000 0.520000 0.692820
v 0.400000 0.520000 -0.692820
v 0.800000 0.520000 0.000000
v -0.400000 0.600000 0.692820
v 0.000000 0.661555 0.705032
v -0.352516 0.661555 0.610576
v -0.000000 0.600000 0.800000
v 0.000000 0.661555 0.705032
v -0.400000 0.600000 0.692820
v -0.692820 0.600000 0.400000
v -0.352516 0.661555 0.610576
v -0.610576 0.661555 0.352516
v -0.400000 0.600000 0.692820
v -0.352516 0.661555 0.610576
v -0.692820 0.600000 0.400000
v -0.800000 0.600000 -0.000000
v -0.610576 0.661555 0.352516
v -0.705032 0.661555 -0.000000
v -0.692820 0.600000 0.400000
v -0.610576 0.661555 0.352516
v -0.800000 0.600000 -0.000000
v -0.692820 0.600000 -0.400000
v -0.705032 0.661555 -0.000000
v -0.610576 0.661555 -0.352516
v -0.800000 0.600000 -0.000000
v -0.705032 0.661555 -0.000000
v -0.692820 0.600000 -0.400000
v -0.400000 0.600000 -0.692820
v -0.610576 0.661555 -0.352516
v -0.352516 0.661555 -0.610576
v -0.692820 0.600000 -0.400000
v -0.610576 0.661555 -0.352516
v -0.400000 0.600000 -0.692820
v 0.000000 0.600000 -0.800000
v -0.352516 0.661555 -0.610576
v 0.000000 0.661555 -0.705032
v -0.400000 0.600000 -0.692820
v -0.352516 0.661555 -0.610576
v 0.000000 0.600000 -0.800000
v 0.400000 0.600000 -0.692820
v 0.000000 0.661555 -0.705032
v 0.352516 0.661555 -0.610576
v 0.000000 0.600000 -0.800000
v 0.000000 0.661555 -0.705032
v 0.400000 0.600000 -0.692820
v 0.692820 0.600000 -0.400000
v 0.352516 0.661555 -0.610576
v 0.610576 0.661555 -0.352516
v 0.400000 0.600000 -0.692820
v 0.352516 0.661555 -0.610576
v 0.692820 0.600000 -0.400000
v 0.800000 0.600000 0.000000
v 0.610576 0.661555 -0.352516
v 0.705032 0.661555 0.000000
v 0.692820 0.600000 -0.400000
v 0.610576 0.661555 -0.352516
v 0.800000 0.600000 0.000000
v 0.692820 0.600000 0.400000
v 0.705032 0.661555 0.000000
v 0.610576 0.661555 0.352516
v 0.800000 0.600000 0.000000
v 0.705032 0.661555 0.000000
v 0.692820 0.600000 0.400000
v 0.400000 0.600000 0.692820
v 0.610576 0.661555 0.352516
v 0.352516 0.661555 0.610576
v 0.692820 0.600000 0.400000
v 0.610576 0.661555 0.352516
v 0.400000 0.600000 0.692820
v -0.000000 0.600000 0.800000
v 0.352516 0.661555 0.610576
v 0.000000 0.661555 0.705032
v 0.400000 0.600000 0.692820
v 0.352516 0.661555 0.610576
v -0.000000 0.600000 0.800000
v 0.000000 0.661555 0.705032
v -0.610576 0.661555 0.352516
v -0.352516 0.661555 0.610576
v 0.610576 0.661555 0.352516
v 0.000000 0.661555 0.705032
v 0.352516 0.661555 0.610576
v 0.610576 0.661555 -0.352516
v 0.610576 0.661555 0.352516
v 0.705032 0.661555 0.000000
v 0.000000 0.661555 -0.705032
v 0.610576 0.661555 -0.352516
v 0.352516 0.661555 -0.610576
v -0.610576 0.661555 -0.352516
v 0.000000 0.661555 -0.705032
v -0.352516 0.661555 -0.610576
v -0.610576 0.661555 0.352516
v -0.610576 0.661555 -0.352516
v -0.705032 0.661555 -0.000000
v 0.610576 0.661555 0.352516
v -0.610576 0.661555 0.352516
v 0.000000 0.661555 0.705032
v 0.000000 0.661555 -0.705032
v 0.610576 0.661555 0.352516
v 0.610576 0.661555 -0.352516
v -0.610576 0.661555 0.352516
v 0.000000 0.661555 -0.705032
v -0.610576 0.661555 -0.352516
v -0.400000 0.520000 0.692820
v 0.400000 0.520000 0.692820
v -0.000000 0.520000 0.800000
v -0.800000 0.520000 -0.000000
v -0.400000 0.520000 0.692820
v -0.692820 0.520000 0.400000
v -0.400000 0.520000 -0.692820
v -0.800000 0.520000 -0.000000
v -0.692820 0.520000 -0.400000
v 0.400000 0.520000 -0.692820
v -0.400000 0.520000 -0.692820
v 0.000000 0.520000 -0.800000
v 0.800000 0.520000 0.000000
v 0.400000 0.520000 -0.692820
v 0.692820 0.520000 -0.400000
v 0.400000 0.520000 0.692820
v 0.800000 0.520000 0.000000
v 0.692820 0.520000 0.400000
v -0.800000 0.520000 -0.000000
v 0.400000 0.520000 0.692820
v -0.400000 0.520000 0.692820
v 0.400000 0.520000 0.692820
v -0.800000 0.520000 -0.000000
v -0.400000 0.520000 -0.692820
v 0.400000 0.520000 0.692820
v -0.400000 0.520000 -0.692820
v 0.400000 0.520000 -0.692820
v -0.531962 0.520000 -0.450000
v -0.560000 -1.000000 -0.500000
v -0.480000 0.520000 -0.420000
v -0.611962 -1.000000 -0.530000
v -0.560000 -1.000000 -0.500000
v -0.531962 0.520000 -0.450000
v -0.531962 0.520000 -0.510000
v -0.611962 -1.000000 -0.530000
v -0.531962 0.520000 -0.450000
v -0.611962 -1.000000 -0.590000
v -0.611962 -1.000000 -0.530000
v -0.531962 0.520000 -0.510000
v -0.480000 0.520000 -0.540000
v -0.611962 -1.000000 -0.590000
v -0.531962 0.520000 -0.510000
v -0.560000 -1.000000 -0.620000
v -0.611962 -1.000000 -0.590000
v -0.480000 0.520000 -0.540000
v -0.428039 0.520000 -0.510000
v -0.560000 -1.000000 -0.620000
v -0.480000 0.520000 -0.540000
v -0.508039 -1.000000 -0.590000
v -0.560000 -1.000000 -0.620000
v -0.428039 0.520000 -0.510000
v -0.428039 0.520000 -0.450000
v -0.508039 -1.000000 -0.590000
v -0.428039 0.520000 -0.510000
v -0.508039 -1.000000 -0.530000
v -0.508039 -1.000000 -0.590000
v -0.428039 0.520000 -0.450000
v -0.480000 0.520000 -0.420000
v -0.508039 -1.000000 -0.530000
v -0.428039 0.520000 -0.450000
v -0.560000 -1.000000 -0.500000
v -0.508039 -1.000000 -0.530000
v -0.480000 0.520000 -0.420000
v -0.508039 -1.000000 -0.530000
v -0.560000 -1.000000 -0.620000
v -0.508039 -1.000000 -0.590000
v -0.450000 0.520000 0.531962
v -0.500000 -1.000000 0.560000
v -0.420000 0.520000 0.480000
v -0.530000 -1.000000 0.611962
v -0.500000 -1.000000 0.560000
v -0.450000 0.520000 0.531962
v -0.510000 0.520000 0.531962
v -0.530000 -1.000000 0.611962
v -0.450000 0.520000 0.531962
v -0.590000 -1.000000 0.611962
v -0.530000 -1.000000 0.611962
v -0.510000 0.520000 0.531962
v -0.540000 0.520000 0.480000
v -0.590000 -1.000000 0.611962
v -0.510000 0.520000 0.531962
v -0.620000 -1.000000 0.560000
v -0.590000 -1.000000 0.611962
v -0.540000 0.520000 0.480000
v -0.510000 0.520000 0.428039
v -0.620000 -1.000000 0.560000
v -0.540000 0.520000 0.480000
v -0.590000 -1.000000 0.508039
v -0.620000 -1.000000 0.560000
v -0.510000 0.520000 0.428039
v -0.450000 0.520000 0.428039
v -0.590000 -1.000000 0.508039
v -0.510000 0.520000 0.428039
v -0.530000 -1.000000 0.508039
v -0.590000 -1.000000 0.508039
v -0.450000 0.520000 0.428039
v -0.420000 0.520000 0.480000
v -0.530000 -1.000000 0.508039
v -0.450000 0.520000 0.428039
v -0.500000 -1.000000 0.560000
v -0.530000 -1.000000 0.508039
v -0.420000 0.520000 0.480000
v -0.530000 -1.000000 0.611962
v -0.590000 -1.000000 0.508039
v -0.530000 -1.000000 0.508039
v 0.531962 0.520000 0.450000
v 0.560000 -1.000000 0.500000
v 0.480000 0.520000 0.420000
v 0.611962 -1.000000 0.530000
v 0.560000 -1.000000 0.500000
v 0.531962 0.520000 0.450000
v 0.531962 0.520000 0.510000
v 0.611962 -1.000000 0.530000
v 0.531962 0.520000 0.450000
v 0.611962 -1.000000 0.590000
v 0.611962 -1.000000 0.530000
v 0.531962 0.520000 0.510000
v 0.480000 0.520000 0.540000
v 0.611962 -1.000000 0.590000
v 0.531962 0.520000 0.510000
v 0.560000 -1.000000 0.620000
v 0.611962 -1.000000 0.590000
v 0.480000 0.520000 0.540000
v 0.428039 0.520000 0.510000
v 0.560000 -1.000000 0.620000
v 0.480000 0.520000 0.540000
v 0.508039 -1.000000 0.590000
v 0.560000 -1.000000 0.620000
v 0.428039 0.520000 0.510000
v 0.428039 0.520000 0.450000
v 0.508039 -1.000000 0.590000
v 0.428039 0.520000 0.510000
v 0.508039 -1.000000 0.530000
v 0.508039 -1.000000 0.590000
v 0.428039 0.520000 0.450000
v 0.480000 0.520000 0.420000
v 0.508039 -1.000000 0.530000
v 0.428039 0.520000 0.450000
v 0.560000 -1.000000 0.500000
v 0.508039 -1.000000 0.530000
v 0.480000 0.520000 0.420000
v 0.508039 -1.000000 0.530000
v 0.611962 -1.000000 0.530000
v 0.560000 -1.000000 0.620000
v 0.450000 0.520000 -0.531962
v 0.500000 -1.000000 -0.560000
v 0.420000 0.520000 -0.480000
v 0.530000 -1.000000 -0.611962
v 0.500000 -1.000000 -0.560000
v 0.450000 0.520000 -0.531962
v 0.510000 0.520000 -0.531962
v 0.530000 -1.000000 -0.611962
v 0.450000 0.520000 -0.531962
v 0.590000 -1.000000 -0.611962
v 0.530000 -1.000000 -0.611962
v 0.510000 0.520000 -0.531962
v 0.540000 0.520000 -0.480000
v 0.590000 -1.000000 -0.611962
v 0.510000 0.520000 -0.531962
v 0.620000 -1.000000 -0.560000
v 0.590000 -1.000000 -0.611962
v 0.540000 0.520000 -0.480000
v 0.510000 0.520000 -0.428039
v 0.620000 -1.000000 -0.560000
v 0.540000 0.520000 -0.480000
v 0.590000 -1.000000 -0.508039
v 0.620000 -1.000000 -0.560000
v 0.510000 0.520000 -0.428039
v 0.450000 0.520000 -0.428039
v 0.590000 -1.000000 -0.508039
v 0.510000 0.520000 -0.428039
v 0.530000 -1.000000 -0.508039
v 0.590000 -1.000000 -0.508039
v 0.450000 0.520000 -0.428039
v 0.420000 0.520000 -0.480000
v 0.530000 -1.000000 -0.508039
v 0.450000 0.520000 -0.428039
v 0.500000 -1.000000 -0.560000
v 0.530000 -1.000000 -0.508039
v 0.420000 0.520000 -0.480000
v 0.530000 -1.000000 -0.508039
v 0.530000 -1.000000 -0.611962
v 0.620000 -1.000000 -0.560000
v -0.581969 0.174231 0.336000
v -0.704000 0.118805 0.000000
v -0.609682 0.118805 0.352000
v -0.672000 0.174231 0.000000
v -0.704000 0.118805 0.000000
v -0.581969 0.174231 0.336000
v -0.526544 0.174231 0.304000
v -0.672000 0.174231 0.000000
v -0.581969 0.174231 0.336000
v -0.608000 0.174231 0.000000
v -0.672000 0.174231 0.000000
v -0.526544 0.174231 0.304000
v -0.498831 0.118805 0.288000
v -0.608000 0.174231 0.000000
v -0.526544 0.174231 0.304000
v -0.576000 0.118805 0.000000
v -0.608000 0.174231 0.000000
v -0.498831 0.118805 0.288000
v -0.526544 0.063380 0.304000
v -0.576000 0.118805 0.000000
v -0.498831 0.118805 0.288000
v -0.608000 0.063380 0.000000
v -0.576000 0.118805 0.000000
v -0.526544 0.063380 0.304000
v -0.581969 0.063380 0.336000
v -0.608000 0.063380 0.000000
v -0.526544 0.063380 0.304000
v -0.672000 0.063380 0.000000
v -0.608000 0.063380 0.000000
v -0.581969 0.063380 0.336000
v -0.609682 0.118805 0.352000
v -0.672000 0.063380 0.000000
v -0.581969 0.063380 0.336000
v -0.704000 0.118805 0.000000
v -0.672000 0.063380 0.000000
v -0.609682 0.118805 0.352000
v -0.336000 0.174231 0.581969
v -0.609682 0.118805 0.352000
v -0.352000 0.118805 0.609682
v -0.581969 0.174231 0.336000
v -0.609682 0.118805 0.352000
v -0.336000 0.174231 0.581969
v -0.304000 0.174231 0.526544
v -0.581969 0.174231 0.336000
v -0.336000 0.174231 0.581969
v -0.526544 0.174231 0.304000
v -0.581969 0.174231 0.336000
v -0.304000 0.174231 0.526544
v -0.288000 0.118805 0.498831
v -0.526544 0.174231 0.304000
v -0.304000 0.174231 0.526544
v -0.498831 0.118805 0.288000
v -0.526544 0.174231 0.304000
v -0.288000 0.118805 0.498831
v -0.304000 0.063380 0.526544
v -0.498831 0.118805 0.288000
v -0.288000 0.118805 0.498831
v -0.526544 0.063380 0.304000
v -0.498831 0.118805 0.288000
v -0.304000 0.063380 0.526544
v -0.336000 0.063380 0.581969
v -0.526544 0.063380 0.304000
v -0.304000 0.063380 0.526544
v -0.581969 0.063380 0.336000
v -0.526544 0.063380 0.304000
v -0.336000 0.063380 0.581969
v -0.352000 0.118805 0.609682
v -0.581969 0.063380 0.336000
v -0.336000 0.063380 0.581969
v -0.609682 0.118805 0.352000
v -0.581969 0.063380 0.336000
v -0.352000 0.118805 0.609682
v -0.000000 0.174231 0.672000
v -0.352000 0.118805 0.609682
v -0.000000 0.118805 0.704000
v -0.336000 0.174231 0.581969
v -0.352000 0.118805 0.609682
v -0.000000 0.174231 0.672000
v -0.000000 0.174231 0.608000
v -0.336000 0.174231 0.581969
v -0.000000 0.174231 0.672000
v -0.304000 0.174231 0.526544
v -0.336000 0.174231 0.581969
v -0.000000 0.174231 0.608000
v -0.000000 0.118805 0.576000
v -0.304000 0.174231 0.526544
v -0.000000 0.174231 0.608000
v -0.288000 0.118805 0.498831
v -0.304000 0.174231 0.526544
v -0.000000 0.118805 0.576000
v -0.000000 0.063380 0.608000
v -0.288000 0.118805 0.498831
v -0.000000 0.118805 0.576000
v -0.304000 0.063380 0.526544
v -0.288000 0.118805 0.498831
v -0.000000 0.063380 0.608000
v -0.000000 0.063380 0.672000
v -0.304000 0.063380 0.526544
v -0.000000 0.063380 0.608000
v -0.336000 0.063380 0.581969
v -0.304000 0.063380 0.526544
v -0.000000 0.063380 0.672000
v -0.000000 0.118805 0.704000
v -0.336000 0.063380 0.581969
v -0.000000 0.063380 0.672000
v -0.352000 0.118805 0.609682
v -0.336000 0.063380 0.581969
v -0.000000 0.118805 0.704000
v 0.336000 0.174231 0.581969
v -0.000000 0.118805 0.704000
v 0.352000 0.118805 0.609682
v -0.000000 0.174231 0.672000
v -0.000000 0.118805 0.704000
v 0.336000 0.174231 0.581969
v 0.304000 0.174231 0.526544
v -0.000000 0.174231 0.672000
v 0.336000 0.174231 0.581969
v -0.000000 0.174231 0.608000
v -0.000000 0.174231 0.672000
v 0.304000 0.174231 0.526544
v 0.288000 0.118805 0.498831
v -0.000000 0.174231 0.608000
v 0.304000 0.174231 0.526544
v -0.000000 0.118805 0.576000
v -0.000000 0.174231 0.608000
v 0.288000 0.118805 0.498831
v 0.304000 0.063380 0.526544
v -0.000000 0.118805 0.576000
v 0.288000 0.118805 0.498831
v -0.000000 0.063380 0.608000
v -0.000000 0.118805 0.576000
v 0.304000 0.063380 0.526544
v 0.336000 0.063380 0.581969
v -0.000000 0.063380 0.608000
v 0.304000 0.063380 0.526544
v -0.000000 0.063380 0.672000
v -0.000000 0.063380 0.608000
v 0.336000 0.063380 0.581969
v 0.352000 0.118805 0.609682
v -0.000000 0.063380 0.672000
v 0.336000 0.063380 0.581969
v -0.000000 0.118805 0.704000
v -0.000000 0.063380 0.672000
v 0.352000 0.118805 0.609682
v 0.581969 0.174231 0.336000
v 0.352000 0.118805 0.609682
v 0.609682 0.118805 0.352000
v 0.336000 0.174231 0.581969
v 0.352000 0.118805 0.609682
v 0.581969 0.174231 0.336000
v 0.526544 0.174231 0.304000
v 0.336000 0.174231 0.581969
v 0.581969 0.174231 0.336000
v 0.304000 0.174231 0.526544
v 0.336000 0.174231 0.581969
v 0.526544 0.174231 0.304000
v 0.498831 0.118805 0.288000
v 0.304000 0.174231 0.526544
v 0.526544 0.174231 0.304000
v 0.288000 0.118805 0.498831
v 0.304000 0.174231 0.526544
v 0.498831 0.118805 0.288000
v 0.526544 0.063380 0.304000
v 0.288000 0.118805 0.498831
v 0.498831 0.118805 0.288000
v 0.304000 0.063380 0.526544
v 0.288000 0.118805 0.498831
v 0.526544 0.063380 0.304000
v 0.581969 0.063380 0.336000
v 0.304000 0.063380 0.526544
v 0.526544 0.063380 0.304000
v 0.336000 0.063380 0.581969
v 0.304000 0.063380 0.526544
v 0.581969 0.063380 0.336000
v 0.609682 0.118805 0.352000
v 0.336000 0.063380 0.581969
v 0.581969 0.063380 0.336000
v 0.352000 0.118805 0.609682
v 0.336000 0.063380 0.581969
v 0.609682 0.118805 0.352000
v 0.672000 0.174231 0.000000
v 0.609682 0.118805 0.352000
v 0.704000 0.118805 0.000000
v 0.581969 0.174231 0.336000
v 0.609682 0.118805 0.352000
v 0.672000 0.174231 0.000000
v 0.608000 0.174231 0.000000
v 0.581969 0.174231 0.336000
v 0.672000 0.174231 0.000000
v 0.526544 0.174231 0.304000
v 0.581969 0.174231 0.336000
v 0.608000 0.174231 0.000000
v 0.576000 0.118805 0.000000
v 0.526544 0.174231 0.304000
v 0.608000 0.174231 0.000000
v 0.498831 0.118805 0.288000
v 0.526544 0.174231 0.304000
v 0.576000 0.118805 0.000000
v 0.608000 0.063380 0.000000
v 0.498831 0.118805 0.288000
v 0.576000 0.118805 0.000000
v 0.526544 0.063380 0.304000
v 0.498831 0.118805 0.288000
v 0.608000 0.063380 0.000000
v 0.672000 0.063380 0.000000
v 0.526544 0.063380 0.304000
v 0.608000 0.063380 0.000000
v 0.581969 0.063380 0.336000
v 0.526544 0.063380 0.304000
v 0.672000 0.063380 0.000000
v 0.704000 0.118805 0.000000
v 0.581969 0.063380 0.336000
v 0.672000 0.063380 0.000000
v 0.609682 0.118805 0.352000
v 0.581969 0.063380 0.336000
v 0.704000 0.118805 0.000000
v 0.581969 0.174231 -0.336000
v 0.704000 0.118805 0.000000
v 0.609682 0.118805 -0.352000
v 0.672000 0.174231 0.000000
v 0.704000 0.118805 0.000000
v 0.581969 0.174231 -0.336000
v 0.526544 0.174231 -0.304000
v 0.672000 0.174231 0.000000
v 0.581969 0.174231 -0.336000
v 0.608000 0.174231 0.000000
v 0.672000 0.174231 0.000000
v 0.526544 0.174231 -0.304000
v 0.498831 0.118805 -0.288000
v 0.608000 0.174231 0.000000
v 0.526544 0.174231 -0.304000
v 0.576000 0.118805 0.000000
v 0.608000 0.174231 0.000000
v 0.498831 0.118805 -0.288000
v 0.526544 0.063380 -0.304000
v 0.576000 0.118805 0.000000
v 0.498831 0.118805 -0.288000
v 0.608000 0.063380 0.000000
v 0.576000 0.118805 0.000000
v 0.526544 0.063380 -0.304000
v 0.581969 0.063380 -0.336000
v 0.608000 0.063380 0.000000
v 0.526544 0.063380 -0.304000
v 0.672000 0.063380 0.000000
v 0.608000 0.063380 0.000000
v 0.581969 0.063380 -0.336000
v 0.609682 0.118805 -0.352000
v 0.672000 0.063380 0.000000
v 0.581969 0.063380 -0.336000
v 0.704000 0.118805 0.000000
v 0.672000 0.063380 0.000000
v 0.609682 0.118805 -0.352000
v 0.336000 0.174231 -0.581969
v 0.609682 0.118805 -0.352000
v 0.352000 0.118805 -0.609682
v 0.581969 0.174231 -0.336000
v 0.609682 0.118805 -0.352000
v 0.336000 0.174231 -0.581969
v 0.304000 0.174231 -0.526544
v 0.581969 0.174231 -0.336000
v 0.336000 0.174231 -0.581969
v 0.526544 0.174231 -0.304000
v 0.581969 0.174231 -0.336000
v 0.304000 0.174231 -0.526544
v 0.288000 0.118805 -0.498831
v 0.526544 0.174231 -0.304000
v 0.304000 0.174231 -0.526544
v 0.498831 0.118805 -0.288000
v 0.526544 0.174231 -0.304000
v 0.288000 0.118805 -0.498831
v 0.304000 0.063380 -0.526544
v 0.498831 0.118805 -0.288000
v 0.288000 0.118805 -0.498831
v 0.526544 0.063380 -0.304000
v 0.498831 0.118805 -0.288000
v 0.304000 0.063380 -0.526544
v 0.336000 0.063380 -0.581969
v 0.526544 0.063380 -0.304000
v 0.304000 0.063380 -0.526544
v 0.581969 0.063380 -0.336000
v 0.526544 0.063380 -0.304000
v 0.336000 0.063380 -0.581969
v 0.352000 0.118805 -0.609682
v 0.581969 0.063380 -0.336000
v 0.336000 0.063380 -0.581969
v 0.609682 0.118805 -0.352000
v 0.581969 0.063380 -0.336000
v 0.352000 0.118805 -0.609682
v -0.000000 0.174231 -0.672000
v 0.352000 0.118805 -0.609682
v -0.000000 0.118805 -0.704000
v 0.336000 0.174231 -0.581969
v 0.352000 0.118805 -0.609682
v -0.000000 0.174231 -0.672000
v -0.000000 0.174231 -0.608000
v 0.336000 0.174231 -0.581969
v -0.000000 0.174231 -0.672000
v 0.304000 0.174231 -0.526544
v 0.336000 0.174231 -0.581969
v -0.000000 0.174231 -0.608000
v -0.000000 0.118805 -0.576000
v 0.304000 0.174231 -0.526544
v -0.000000 0.174231 -0.608000
v 0.288000 0.118805 -0.498831
v 0.304000 0.174231 -0.526544
v -0.000000 0.118805 -0.576000
v -0.000000 0.063380 -0.608000
v 0.288000 0.118805 -0.498831
v -0.000000 0.118805 -0.576000
v 0.304000 0.063380 -0.526544
v 0.288000 0.118805 -0.498831
v -0.000000 0.063380 -0.608000
v -0.000000 0.063380 -0.672000
v 0.304000 0.063380 -0.526544
v -0.000000 0.063380 -0.608000
v 0.336000 0.063380 -0.581969
v 0.304000 0.063380 -0.526544
v -0.000000 0.063380 -0.672000
v -0.000000 0.118805 -0.704000
v 0.336000 0.063380 -0.581969
v -0.000000 0.063380 -0.672000
v 0.352000 0.118805 -0.609682
v 0.336000 0.063380 -0.581969
v -0.000000 0.118805 -0.704000
v -0.336000 0.174231 -0.581969
v -0.000000 0.118805 -0.704000
v -0.352000 0.118805 -0.609682
v -0.000000 0.174231 -0.672000
v -0.000000 0.118805 -0.704000
v -0.336000 0.174231 -0.581969
v -0.304000 0.174231 -0.526544
v -0.000000 0.174231 -0.672000
v -0.336000 0.174231 -0.581969
v -0.000000 0.174231 -0.608000
v -0.000000 0.174231 -0.672000
v -0.304000 0.174231 -0.526544
v -0.288000 0.118805 -0.498831
v -0.000000 0.174231 -0.608000
v -0.304000 0.174231 -0.526544
v -0.000000 0.118805 -0.576000
v -0.000000 0.174231 -0.608000
v -0.288000 0.118805 -0.498831
v -0.304000 0.063380 -0.526544
v -0.000000 0.118805 -0.576000
v -0.288000 0.118805 -0.498831
v -0.000000 0.063380 -0.608000
v -0.000000 0.118805 -0.576000
v -0.304000 0.063380 -0.526544
v -0.336000 0.063380 -0.581969
v -0.000000 0.063380 -0.608000
v -0.304000 0.063380 -0.526544
v -0.000000 0.063380 -0.672000
v -0.000000 0.063380 -0.608000
v -0.336000 0.063380 -0.581969
v -0.352000 0.118805 -0.609682
v -0.000000 0.063380 -0.672000
v -0.336000 0.063380 -0.581969
v -0.000000 0.118805 -0.704000
v -0.000000 0.063380 -0.672000
v -0.352000 0.118805 -0.609682
v -0.581969 0.174231 -0.336000
v -0.352000 0.118805 -0.609682
v -0.609682 0.118805 -0.352000
v -0.336000 0.174231 -0.581969
v -0.352000 0.118805 -0.609682
v -0.581969 0.174231 -0.336000
v -0.526544 0.174231 -0.304000
v -0.336000 0.174231 -0.581969
v -0.581969 0.174231 -0.336000
v -0.304000 0.174231 -0.526544
v -0.336000 0.174231 -0.581969
v -0.526544 0.174231 -0.304000
v -0.498831 0.118805 -0.288000
v -0.304000 0.174231 -0.526544
v -0.526544 0.174231 -0.304000
v -0.288000 0.118805 -0.498831
v -0.304000 0.174231 -0.526544
v -0.498831 0.118805 -0.288000
v -0.526544 0.063380 -0.304000
v -0.288000 0.118805 -0.498831
v -0.498831 0.118805 -0.288000
v -0.304000 0.063380 -0.526544
v -0.288000 0.118805 -0.498831
v -0.526544 0.063380 -0.304000
v -0.581969 0.063380 -0.336000
v -0.304000 0.063380 -0.526544
v -0.526544 0.063380 -0.304000
v -0.336000 0.063380 -0.581969
v -0.304000 0.063380 -0.526544
v -0.581969 0.063380 -0.336000
v -0.609682 0.118805 -0.352000
v -0.336000 0.063380 -0.581969
v -0.581969 0.063380 -0.336000
v -0.352000 0.118805 -0.609682
v -0.336000 0.063380 -0.581969
v -0.609682 0.118805 -0.352000
v -0.672000 0.174231 0.000000
v -0.609682 0.118805 -0.352000
v -0.704000 0.118805 0.000000
v -0.581969 0.174231 -0.336000
v -0.609682 0.118805 -0.352000
v -0.672000 0.174231 0.000000
v -0.608000 0.174231 0.000000
v -0.581969 0.174231 -0.336000
v -0.672000 0.174231 0.000000
v -0.526544 0.174231 -0.304000
v -0.581969 0.174231 -0.336000
v -0.608000 0.174231 0.000000
v -0.576000 0.118805 0.000000
v -0.526544 0.174231 -0.304000
v -0.608000 0.174231 0.000000
v -0.498831 0.118805 -0.288000
v -0.526544 0.174231 -0.304000
v -0.576000 0.118805 0.000000
v -0.608000 0.063380 0.000000
v -0.498831 0.118805 -0.288000
v -0.576000 0.118805 0.000000
v -0.526544 0.063380 -0.304000
v -0.498831 0.118805 -0.288000
v -0.608000 0.063380 0.000000
v -0.672000 0.063380 0.000000
v -0.526544 0.063380 -0.304000
v -0.608000 0.063380 0.000000
v -0.581969 0.063380 -0.336000
v -0.526544 0.063380 -0.304000
v -0.672000 0.063380 0.000000
v -0.704000 0.118805 0.000000
v -0.581969 0.063380 -0.336000
v -0.672000 0.063380 0.000000
v -0.609682 0.118805 -0.352000
v -0.581969 0.063380 -0.336000
v -0.704000 0.118805 0.000000
v -0.560000 -1.000000 -0.620000
v -0.508039 -1.000000 -0.530000
v -0.560000 -1.000000 -0.500000
v -0.560000 -1.000000 -0.620000
v -0.560000 -1.000000 -0.500000
v -0.611962 -1.000000 -0.530000
v -0.560000 -1.000000 -0.620000
v -0.611962 -1.000000 -0.530000
v -0.611962 -1.000000 -0.590000
v -0.530000 -1.000000 0.611962
v -0.530000 -1.000000 0.508039
v -0.500000 -1.000000 0.560000
v -0.620000 -1.000000 0.560000
v -0.530000 -1.000000 0.611962
v -0.590000 -1.000000 0.611962
v -0.530000 -1.000000 0.611962
v -0.620000 -1.000000 0.560000
v -0.590000 -1.000000 0.508039
v 0.611962 -1.000000 0.530000
v 0.508039 -1.000000 0.530000
v 0.560000 -1.000000 0.500000
v 0.560000 -1.000000 0.620000
v 0.611962 -1.000000 0.530000
v 0.611962 -1.000000 0.590000
v 0.508039 -1.000000 0.530000
v 0.560000 -1.000000 0.620000
v 0.508039 -1.000000 0.590000
v 0.530000 -1.000000 -0.611962
v 0.530000 -1.000000 -0.508039
v 0.500000 -1.000000 -0.560000
v 0.620000 -1.000000 -0.560000
v 0.530000 -1.000000 -0.611962
v 0.590000 -1.000000 -0.611962
v 0.530000 -1.000000 -0.508039
v 0.620000 -1.000000 -0.560000
v 0.590000 -1.000000 -0.508039

vt 0.500000 0.942466
vt 0.374098 0.942466
vt 0.500000 0.918144
vt 0.374098 0.942466
vt 0.374098 0.918144
vt 0.500000 0.918144
vt 0.374098 0.942466
vt 0.248197 0.942466
vt 0.374098 0.918144
vt 0.248197 0.942466
vt 0.248197 0.918144
vt 0.374098 0.918144
vt 0.248197 0.942466
vt 0.122295 0.942466
vt 0.248197 0.918144
vt 0.122295 0.942466
vt 0.122295 0.918144
vt 0.248197 0.918144
vt 0.877705 0.798270
vt 0.751803 0.798270
vt 0.877705 0.773948
vt 0.751803 0.798270
vt 0.751803 0.773948
vt 0.877705 0.773948
vt 0.751803 0.798270
vt 0.625900 0.798270
vt 0.751803 0.773948
vt 0.625900 0.798270
vt 0.625900 0.773948
vt 0.751803 0.773948
vt 0.625900 0.798270
vt 0.499999 0.798270
vt 0.625900 0.773948
vt 0.499999 0.798270
vt 0.499999 0.773948
vt 0.625900 0.773948
vt 0.499999 0.798270
vt 0.374097 0.798270
vt 0.499999 0.773948
vt 0.374097 0.798270
vt 0.374097 0.773948
vt 0.499999 0.773948
vt 0.374097 0.798270
vt 0.248196 0.798270
vt 0.374097 0.773948
vt 0.248196 0.798270
vt 0.248196 0.773948
vt 0.374097 0.773948
vt 0.248196 0.798270
vt 0.122295 0.798270
vt 0.248196 0.773948
vt 0.122295 0.798270
vt 0.122295 0.773947
vt 0.248196 0.773948
vt 0.877704 0.942466
vt 0.751803 0.942466
vt 0.877704 0.918144
vt 0.751803 0.942466
vt 0.751803 0.918144
vt 0.877704 0.918144
vt 0.194522 0.542954
vt 0.457046 0.805478
vt 0.098432 0.901568
vt 0.751803 0.942466
vt 0.625902 0.942466
vt 0.751803 0.918144
vt 0.625902 0.942466
vt 0.625902 0.918144
vt 0.751803 0.918144
vt 0.625902 0.942466
vt 0.500000 0.942466
vt 0.625902 0.918144
vt 0.500000 0.942466
vt 0.500000 0.918144
vt 0.625902 0.918144
vt 0.312951 0.484935
vt 0.078015 0.421985
vt 0.484935 0.312951
vt 0.381571 0.976052
vt 0.374098 0.942466
vt 0.492527 0.976052
vt 0.374098 0.942466
vt 0.500000 0.942466
vt 0.492527 0.976052
vt 0.255670 0.976052
vt 0.248197 0.942466
vt 0.366625 0.976052
vt 0.248197 0.942466
vt 0.374098 0.942466
vt 0.366625 0.976052
vt 0.129768 0.976052
vt 0.122295 0.942466
vt 0.240724 0.976052
vt 0.122295 0.942466
vt 0.248197 0.942466
vt 0.240724 0.976052
vt 0.759275 0.831856
vt 0.751803 0.798270
vt 0.870232 0.831856
vt 0.751803 0.798270
vt 0.877705 0.798270
vt 0.870232 0.831856
vt 0.633373 0.831856
vt 0.625900 0.798270
vt 0.744330 0.831856
vt 0.625900 0.798270
vt 0.751803 0.798270
vt 0.744330 0.831856
vt 0.507472 0.831856
vt 0.499999 0.798270
vt 0.618427 0.831856
vt 0.499999 0.798270
vt 0.625900 0.798270
vt 0.618427 0.831856
vt 0.381570 0.831856
vt 0.374097 0.798270
vt 0.492526 0.831856
vt 0.374097 0.798270
vt 0.499999 0.798270
vt 0.492526 0.831856
vt 0.255669 0.831856
vt 0.248196 0.798270
vt 0.366625 0.831856
vt 0.248196 0.798270
vt 0.374097 0.798270
vt 0.366625 0.831856
vt 0.129768 0.831856
vt 0.122295 0.798270
vt 0.240724 0.831856
vt 0.122295 0.798270
vt 0.248196 0.798270
vt 0.240724 0.831856
vt 0.759276 0.976052
vt 0.751803 0.942466
vt 0.870232 0.976052
vt 0.751803 0.942466
vt 0.877704 0.942466
vt 0.870232 0.976052
vt 0.633375 0.976053
vt 0.625902 0.942466
vt 0.744330 0.976052
vt 0.625902 0.942466
vt 0.751803 0.942466
vt 0.744330 0.976052
vt 0.507473 0.976053
vt 0.500000 0.942466
vt 0.618429 0.976053
vt 0.500000 0.942466
vt 0.625902 0.942466
vt 0.618429 0.976053
vt 0.401568 0.901568
vt 0.305478 0.957046
vt 0.457046 0.805478
vt 0.194522 0.957046
vt 0.098432 0.901568
vt 0.305478 0.957046
vt 0.042954 0.805478
vt 0.042954 0.694522
vt 0.098432 0.901568
vt 0.098432 0.598432
vt 0.194522 0.542954
vt 0.042954 0.694522
vt 0.305478 0.542954
vt 0.401568 0.598432
vt 0.194522 0.542954
vt 0.457046 0.694522
vt 0.457046 0.805478
vt 0.401568 0.598432
vt 0.305478 0.957046
vt 0.098432 0.901568
vt 0.457046 0.805478
vt 0.042954 0.694522
vt 0.194522 0.542954
vt 0.098432 0.901568
vt 0.401568 0.598432
vt 0.457046 0.805478
vt 0.194522 0.542954
vt 0.015065 0.312951
vt 0.015065 0.187049
vt 0.078015 0.421985
vt 0.078015 0.078015
vt 0.187049 0.015065
vt 0.015065 0.187049
vt 0.312951 0.015065
vt 0.421985 0.078015
vt 0.187049 0.015065
vt 0.484935 0.187049
vt 0.484935 0.312951
vt 0.421985 0.078015
vt 0.421985 0.421985
vt 0.312951 0.484935
vt 0.484935 0.312951
vt 0.187049 0.484935
vt 0.078015 0.421985
vt 0.312951 0.484935
vt 0.015065 0.187049
vt 0.187049 0.015065
vt 0.078015 0.421985
vt 0.421985 0.078015
vt 0.078015 0.421985
vt 0.187049 0.015065
vt 0.484935 0.312951
vt 0.078015 0.421985
vt 0.421985 0.078015
vt 0.160872 0.733401
vt 0.162778 0.706881
vt 0.836343 0.733403
vt 0.162778 0.706881
vt 0.838250 0.706883
vt 0.836343 0.733403
vt 0.162778 0.706881
vt 0.164174 0.680329
vt 0.838250 0.706883
vt 0.164174 0.680329
vt 0.839645 0.680331
vt 0.838250 0.706883
vt 0.164174 0.839644
vt 0.163663 0.813059
vt 0.839645 0.839642
vt 0.163663 0.813059
vt 0.839135 0.813059
vt 0.839645 0.839642
vt 0.163663 0.813059
vt 0.161756 0.786538
vt 0.839135 0.813059
vt 0.161756 0.786538
vt 0.837228 0.786539
vt 0.839135 0.813059
vt 0.161756 0.786538
vt 0.160361 0.759984
vt 0.837228 0.786539
vt 0.160361 0.759984
vt 0.835833 0.759986
vt 0.837228 0.786539
vt 0.160361 0.759984
vt 0.160872 0.733401
vt 0.835833 0.759986
vt 0.160872 0.733401
vt 0.836343 0.733403
vt 0.835833 0.759986
vt 0.046403 0.747507
vt 0.046403 0.774096
vt 0.023376 0.734212
vt 0.080007 0.000859
vt 0.106528 0.002766
vt 0.080009 0.676338
vt 0.106528 0.002766
vt 0.106529 0.678244
vt 0.080009 0.676338
vt 0.106528 0.002766
vt 0.133078 0.004161
vt 0.106529 0.678244
vt 0.133078 0.004161
vt 0.133080 0.679639
vt 0.106529 0.678244
vt 0.133078 0.004161
vt 0.159664 0.003650
vt 0.133080 0.679639
vt 0.159664 0.003650
vt 0.159664 0.679128
vt 0.133080 0.679639
vt 0.000349 0.003651
vt 0.026870 0.001744
vt 0.000355 0.679129
vt 0.026870 0.001744
vt 0.026875 0.677223
vt 0.000355 0.679129
vt 0.026870 0.001744
vt 0.053424 0.000349
vt 0.026875 0.677223
vt 0.053424 0.000349
vt 0.053426 0.675827
vt 0.026875 0.677223
vt 0.053424 0.000349
vt 0.080007 0.000859
vt 0.053426 0.675827
vt 0.080007 0.000859
vt 0.080009 0.676338
vt 0.053426 0.675827
vt 0.139906 0.720220
vt 0.093851 0.720220
vt 0.139906 0.693631
vt 0.320885 0.053423
vt 0.322792 0.026902
vt 0.996349 0.053423
vt 0.322792 0.026902
vt 0.998256 0.026903
vt 0.996349 0.053423
vt 0.322792 0.026902
vt 0.324187 0.000349
vt 0.998256 0.026903
vt 0.324187 0.000349
vt 0.999651 0.000350
vt 0.998256 0.026903
vt 0.324187 0.159665
vt 0.323676 0.133081
vt 0.999651 0.159664
vt 0.323676 0.133081
vt 0.999140 0.133080
vt 0.999651 0.159664
vt 0.323676 0.133081
vt 0.321770 0.106560
vt 0.999140 0.133080
vt 0.321770 0.106560
vt 0.997234 0.106559
vt 0.999140 0.133080
vt 0.321770 0.106560
vt 0.320374 0.080007
vt 0.997234 0.106559
vt 0.320374 0.080007
vt 0.995838 0.080007
vt 0.997234 0.106559
vt 0.320374 0.080007
vt 0.320885 0.053423
vt 0.995838 0.080007
vt 0.320885 0.053423
vt 0.996349 0.053423
vt 0.995838 0.080007
vt 0.093154 0.720220
vt 0.047100 0.720220
vt 0.070127 0.680336
vt 0.240020 0.000859
vt 0.266541 0.002766
vt 0.240021 0.676330
vt 0.266541 0.002766
vt 0.266542 0.678236
vt 0.240021 0.676330
vt 0.266541 0.002766
vt 0.293092 0.004161
vt 0.266542 0.678236
vt 0.293092 0.004161
vt 0.293093 0.679632
vt 0.266542 0.678236
vt 0.293092 0.004161
vt 0.319677 0.003650
vt 0.293093 0.679632
vt 0.319677 0.003650
vt 0.319677 0.679121
vt 0.293093 0.679632
vt 0.160361 0.003651
vt 0.186882 0.001744
vt 0.160366 0.679121
vt 0.186882 0.001744
vt 0.186887 0.677215
vt 0.160366 0.679121
vt 0.186882 0.001744
vt 0.213435 0.000349
vt 0.186887 0.677215
vt 0.213435 0.000349
vt 0.213437 0.675819
vt 0.186887 0.677215
vt 0.213435 0.000349
vt 0.240020 0.000859
vt 0.213437 0.675819
vt 0.240020 0.000859
vt 0.240021 0.676330
vt 0.213437 0.675819
vt 0.046403 0.720220
vt 0.000349 0.720220
vt 0.023376 0.680336
vt 0.487659 0.484047
vt 0.459536 0.480377
vt 0.487659 0.322554
vt 0.459536 0.480377
vt 0.459536 0.326224
vt 0.487659 0.322554
vt 0.459536 0.480377
vt 0.432140 0.473036
vt 0.459536 0.326224
vt 0.432140 0.473036
vt 0.432140 0.333565
vt 0.459536 0.326224
vt 0.432140 0.473036
vt 0.404017 0.469366
vt 0.432140 0.333565
vt 0.404017 0.469366
vt 0.404017 0.337235
vt 0.432140 0.333565
vt 0.404017 0.469366
vt 0.375893 0.473036
vt 0.404017 0.337235
vt 0.375893 0.473036
vt 0.375893 0.333565
vt 0.404017 0.337235
vt 0.375893 0.473036
vt 0.348498 0.480377
vt 0.375893 0.333565
vt 0.348498 0.480377
vt 0.348498 0.326224
vt 0.375893 0.333565
vt 0.348498 0.480377
vt 0.320374 0.484047
vt 0.348498 0.326224
vt 0.320374 0.484047
vt 0.320374 0.322554
vt 0.348498 0.326224
vt 0.812739 0.496327
vt 0.840862 0.499997
vt 0.812739 0.657821
vt 0.840862 0.499997
vt 0.840862 0.654150
vt 0.812739 0.657821
vt 0.840862 0.499997
vt 0.868258 0.507338
vt 0.840862 0.654150
vt 0.868258 0.507338
vt 0.868257 0.646810
vt 0.840862 0.654150
vt 0.868258 0.507338
vt 0.896381 0.511008
vt 0.868257 0.646810
vt 0.896381 0.511008
vt 0.896381 0.643140
vt 0.868257 0.646810
vt 0.896381 0.511008
vt 0.924504 0.507338
vt 0.896381 0.643140
vt 0.924504 0.507338
vt 0.924504 0.646810
vt 0.896381 0.643140
vt 0.924504 0.507338
vt 0.951900 0.499997
vt 0.924504 0.646810
vt 0.951900 0.499997
vt 0.951900 0.654151
vt 0.924504 0.646810
vt 0.951900 0.499997
vt 0.980024 0.496327
vt 0.951900 0.654151
vt 0.980024 0.496327
vt 0.980024 0.657821
vt 0.951900 0.654151
vt 0.812041 0.496327
vt 0.808371 0.524451
vt 0.650548 0.496327
vt 0.808371 0.524451
vt 0.654218 0.524451
vt 0.650548 0.496327
vt 0.808371 0.524451
vt 0.801030 0.551846
vt 0.654218 0.524451
vt 0.801030 0.551846
vt 0.661559 0.551846
vt 0.654218 0.524451
vt 0.801030 0.551846
vt 0.797360 0.579970
vt 0.661559 0.551846
vt 0.797360 0.579970
vt 0.665229 0.579970
vt 0.661559 0.551846
vt 0.797360 0.579970
vt 0.801030 0.608093
vt 0.665229 0.579970
vt 0.801030 0.608093
vt 0.661559 0.608093
vt 0.665229 0.579970
vt 0.801030 0.608093
vt 0.808371 0.635489
vt 0.661559 0.608093
vt 0.808371 0.635489
vt 0.654218 0.635489
vt 0.661559 0.608093
vt 0.808371 0.635489
vt 0.812041 0.663612
vt 0.654218 0.635489
vt 0.812041 0.663612
vt 0.650548 0.663612
vt 0.654218 0.635489
vt 0.488357 0.663612
vt 0.492027 0.635489
vt 0.649850 0.663612
vt 0.492027 0.635489
vt 0.646180 0.635489
vt 0.649850 0.663612
vt 0.492027 0.635489
vt 0.499368 0.608093
vt 0.646180 0.635489
vt 0.499368 0.608093
vt 0.638839 0.608093
vt 0.646180 0.635489
vt 0.499368 0.608093
vt 0.503038 0.579970
vt 0.638839 0.608093
vt 0.503038 0.579970
vt 0.635169 0.579970
vt 0.638839 0.608093
vt 0.503038 0.579970
vt 0.499368 0.551846
vt 0.635169 0.579970
vt 0.499368 0.551846
vt 0.638839 0.551846
vt 0.635169 0.579970
vt 0.499368 0.551846
vt 0.492027 0.524451
vt 0.638839 0.551846
vt 0.492027 0.524451
vt 0.646180 0.524451
vt 0.638839 0.551846
vt 0.492027 0.524451
vt 0.488357 0.496327
vt 0.646180 0.524451
vt 0.488357 0.496327
vt 0.649850 0.496327
vt 0.646180 0.524451
vt 0.812041 0.160363
vt 0.808371 0.188486
vt 0.650548 0.160363
vt 0.808371 0.188486
vt 0.654218 0.188486
vt 0.650548 0.160363
vt 0.808371 0.188486
vt 0.801030 0.215882
vt 0.654218 0.188486
vt 0.801030 0.215882
vt 0.661558 0.215882
vt 0.654218 0.188486
vt 0.801030 0.215882
vt 0.797360 0.244005
vt 0.661558 0.215882
vt 0.797360 0.244005
vt 0.665229 0.244005
vt 0.661558 0.215882
vt 0.797360 0.244005
vt 0.801030 0.272129
vt 0.665229 0.244005
vt 0.801030 0.272129
vt 0.661558 0.272129
vt 0.665229 0.244005
vt 0.801030 0.272129
vt 0.808371 0.299524
vt 0.661558 0.272129
vt 0.808371 0.299524
vt 0.654218 0.299524
vt 0.661558 0.272129
vt 0.808371 0.299524
vt 0.812041 0.327648
vt 0.654218 0.299524
vt 0.812041 0.327648
vt 0.650547 0.327648
vt 0.654218 0.299524
vt 0.487659 0.646238
vt 0.459536 0.642568
vt 0.487659 0.484745
vt 0.459536 0.642568
vt 0.459536 0.488415
vt 0.487659 0.484745
vt 0.459536 0.642568
vt 0.432140 0.635227
vt 0.459536 0.488415
vt 0.432140 0.635227
vt 0.432140 0.495756
vt 0.459536 0.488415
vt 0.432140 0.635227
vt 0.404017 0.631557
vt 0.432140 0.495756
vt 0.404017 0.631557
vt 0.404017 0.499426
vt 0.432140 0.495756
vt 0.404017 0.631557
vt 0.375893 0.635227
vt 0.404017 0.499426
vt 0.375893 0.635227
vt 0.375893 0.495756
vt 0.404017 0.499426
vt 0.375893 0.635227
vt 0.348498 0.642568
vt 0.375893 0.495756
vt 0.348498 0.642568
vt 0.348498 0.488415
vt 0.375893 0.495756
vt 0.348498 0.642568
vt 0.320374 0.646238
vt 0.348498 0.488415
vt 0.320374 0.646238
vt 0.320374 0.484745
vt 0.348498 0.488415
vt 0.812738 0.160363
vt 0.840862 0.164033
vt 0.812738 0.321856
vt 0.840862 0.164033
vt 0.840862 0.318186
vt 0.812738 0.321856
vt 0.840862 0.164033
vt 0.868257 0.171373
vt 0.840862 0.318186
vt 0.868257 0.171373
vt 0.868257 0.310845
vt 0.840862 0.318186
vt 0.868257 0.171373
vt 0.896381 0.175044
vt 0.868257 0.310845
vt 0.896381 0.175044
vt 0.896381 0.307175
vt 0.868257 0.310845
vt 0.896381 0.175044
vt 0.924504 0.171374
vt 0.896381 0.307175
vt 0.924504 0.171374
vt 0.924504 0.310845
vt 0.896381 0.307175
vt 0.924504 0.171374
vt 0.951900 0.164033
vt 0.924504 0.310845
vt 0.951900 0.164033
vt 0.951900 0.318186
vt 0.924504 0.310845
vt 0.951900 0.164033
vt 0.980023 0.160363
vt 0.951900 0.318186
vt 0.980023 0.160363
vt 0.980023 0.321856
vt 0.951900 0.318186
vt 0.320374 0.160363
vt 0.348498 0.164033
vt 0.320374 0.321856
vt 0.348498 0.164033
vt 0.348498 0.318186
vt 0.320374 0.321856
vt 0.348498 0.164033
vt 0.375893 0.171373
vt 0.348498 0.318186
vt 0.375893 0.171373
vt 0.375893 0.310845
vt 0.348498 0.318186
vt 0.375893 0.171373
vt 0.404017 0.175044
vt 0.375893 0.310845
vt 0.404017 0.175044
vt 0.404017 0.307175
vt 0.375893 0.310845
vt 0.404017 0.175044
vt 0.432140 0.171373
vt 0.404017 0.307175
vt 0.432140 0.171373
vt 0.432140 0.310845
vt 0.404017 0.307175
vt 0.432140 0.171373
vt 0.459536 0.164033
vt 0.432140 0.310845
vt 0.459536 0.164033
vt 0.459536 0.318186
vt 0.432140 0.310845
vt 0.459536 0.164033
vt 0.487659 0.160363
vt 0.459536 0.318186
vt 0.487659 0.160363
vt 0.487659 0.321856
vt 0.459536 0.318186
vt 0.488357 0.327648
vt 0.492027 0.299524
vt 0.649850 0.327648
vt 0.492027 0.299524
vt 0.646180 0.299524
vt 0.649850 0.327648
vt 0.492027 0.299524
vt 0.499368 0.272129
vt 0.646180 0.299524
vt 0.499368 0.272129
vt 0.638839 0.272129
vt 0.646180 0.299524
vt 0.499368 0.272129
vt 0.503038 0.244005
vt 0.638839 0.272129
vt 0.503038 0.244005
vt 0.635169 0.244005
vt 0.638839 0.272129
vt 0.503038 0.244005
vt 0.499368 0.215882
vt 0.635169 0.244005
vt 0.499368 0.215882
vt 0.638839 0.215882
vt 0.635169 0.244005
vt 0.499368 0.215882
vt 0.492027 0.188486
vt 0.638839 0.215882
vt 0.492027 0.188486
vt 0.646180 0.188486
vt 0.638839 0.215882
vt 0.492027 0.188486
vt 0.488357 0.160363
vt 0.646180 0.188486
vt 0.488357 0.160363
vt 0.649850 0.160363
vt 0.646180 0.188486
vt 0.650548 0.334136
vt 0.678671 0.337807
vt 0.650548 0.495630
vt 0.678671 0.337807
vt 0.678671 0.491960
vt 0.650548 0.495630
vt 0.678671 0.337807
vt 0.706067 0.345147
vt 0.678671 0.491960
vt 0.706067 0.345147
vt 0.706067 0.484619
vt 0.678671 0.491960
vt 0.706067 0.345147
vt 0.734190 0.348818
vt 0.706067 0.484619
vt 0.734190 0.348818
vt 0.734190 0.480949
vt 0.706067 0.484619
vt 0.734190 0.348818
vt 0.762314 0.345147
vt 0.734190 0.480949
vt 0.762314 0.345147
vt 0.762314 0.484619
vt 0.734190 0.480949
vt 0.762314 0.345147
vt 0.789709 0.337807
vt 0.762314 0.484619
vt 0.789709 0.337807
vt 0.789709 0.491960
vt 0.762314 0.484619
vt 0.789709 0.337807
vt 0.817833 0.334136
vt 0.789709 0.491960
vt 0.817833 0.334136
vt 0.817833 0.495630
vt 0.789709 0.491960
vt 0.980024 0.328345
vt 0.976353 0.356468
vt 0.818530 0.328345
vt 0.976353 0.356468
vt 0.822200 0.356468
vt 0.818530 0.328345
vt 0.976353 0.356468
vt 0.969013 0.383864
vt 0.822200 0.356468
vt 0.969013 0.383864
vt 0.829541 0.383864
vt 0.822200 0.356468
vt 0.969013 0.383864
vt 0.965342 0.411987
vt 0.829541 0.383864
vt 0.965342 0.411987
vt 0.833211 0.411987
vt 0.829541 0.383864
vt 0.965342 0.411987
vt 0.969013 0.440111
vt 0.833211 0.411987
vt 0.969013 0.440111
vt 0.829541 0.440111
vt 0.833211 0.411987
vt 0.969013 0.440111
vt 0.976353 0.467506
vt 0.829541 0.440111
vt 0.976353 0.467506
vt 0.822200 0.467506
vt 0.829541 0.440111
vt 0.976353 0.467506
vt 0.980024 0.495630
vt 0.822200 0.467506
vt 0.980024 0.495630
vt 0.818530 0.495630
vt 0.822200 0.467506
vt 0.649850 0.328345
vt 0.646180 0.356468
vt 0.488357 0.328345
vt 0.646180 0.356468
vt 0.492027 0.356468
vt 0.488357 0.328345
vt 0.646180 0.356468
vt 0.638839 0.383864
vt 0.492027 0.356468
vt 0.638839 0.383864
vt 0.499368 0.383864
vt 0.492027 0.356468
vt 0.638839 0.383864
vt 0.635169 0.411987
vt 0.499368 0.383864
vt 0.635169 0.411987
vt 0.503038 0.411987
vt 0.499368 0.383864
vt 0.635169 0.411987
vt 0.638839 0.440111
vt 0.503038 0.411987
vt 0.638839 0.440111
vt 0.499368 0.440111
vt 0.503038 0.411987
vt 0.638839 0.440111
vt 0.646180 0.467506
vt 0.499368 0.440111
vt 0.646180 0.467506
vt 0.492027 0.467506
vt 0.499368 0.440111
vt 0.646180 0.467506
vt 0.649850 0.495630
vt 0.492027 0.467506
vt 0.649850 0.495630
vt 0.488357 0.495630
vt 0.492027 0.467506
vt 0.023376 0.787391
vt 0.023376 0.734212
vt 0.046403 0.774096
vt 0.000349 0.774096
vt 0.023376 0.734212
vt 0.023376 0.787391
vt 0.000349 0.747507
vt 0.023376 0.734212
vt 0.000349 0.774096
vt 0.116878 0.733515
vt 0.093851 0.720220
vt 0.139906 0.720220
vt 0.093851 0.693631
vt 0.116879 0.680336
vt 0.093851 0.720220
vt 0.139906 0.693631
vt 0.093851 0.720220
vt 0.116879 0.680336
vt 0.047100 0.693631
vt 0.070127 0.680336
vt 0.047100 0.720220
vt 0.093154 0.693631
vt 0.093154 0.720220
vt 0.070127 0.680336
vt 0.070127 0.733515
vt 0.047100 0.720220
vt 0.093154 0.720220
vt 0.000349 0.693631
vt 0.023376 0.680336
vt 0.000349 0.720220
vt 0.046403 0.693631
vt 0.046403 0.720220
vt 0.023376 0.680336
vt 0.023376 0.733515
vt 0.000349 0.720220
vt 0.046403 0.720220

vn -0.258819 0.000000 0.965926
vn -0.258819 0.000000 0.965926
vn -0.258819 0.000000 0.965926
vn -0.258819 0.000000 0.965926
vn -0.258819 0.000000 0.965926
vn -0.258819 0.000000 0.965926
vn -0.707107 0.000000 0.707107
vn -0.707107 0.000000 0.707107
vn -0.707107 0.000000 0.707107
vn -0.707107 0.000000 0.707107
vn -0.707107 0.000000 0.707107
vn -0.707107 0.000000 0.707107
vn -0.965926 0.000000 0.258819
vn -0.965926 0.000000 0.258819
vn -0.965926 0.000000 0.258819
vn -0.965926 0.000000 0.258819
vn -0.965926 0.000000 0.258819
vn -0.965926 0.000000 0.258819
vn -0.965926 0.000000 -0.258819
vn -0.965926 0.000000 -0.258819
vn -0.965926 0.000000 -0.258819
vn -0.965926 0.000000 -0.258819
vn -0.965926 0.000000 -0.258819
vn -0.965926 0.000000 -0.258819
vn -0.707107 0.000000 -0.707107
vn -0.707107 0.000000 -0.707107
vn -0.707107 0.000000 -0.707107
vn -0.707107 0.000000 -0.707107
vn -0.707107 0.000000 -0.707107
vn -0.707107 0.000000 -0.707107
vn -0.258819 0.000000 -0.965926
vn -0.258819 0.000000 -0.965926
vn -0.258819 0.000000 -0.965926
vn -0.258819 0.000000 -0.965926
vn -0.258819 0.000000 -0.965926
vn -0.258819 0.000000 -0.965926
vn 0.258819 0.000000 -0.965926
vn 0.258819 0.000000 -0.965926
vn 0.258819 0.000000 -0.965926
vn 0.258819 0.000000 -0.965926
vn 0.258819 0.000000 -0.965926
vn 0.258819 0.000000 -0.965926
vn 0.707107 0.000000 -0.707107
vn 0.707107 0.000000 -0.707107
vn 0.707107 0.000000 -0.707107
vn 0.707107 0.000000 -0.707106
vn 0.707107 0.000000 -0.707106
vn 0.707107 0.000000 -0.707106
vn 0.965926 0.000000 -0.258819
vn 0.965926 0.000000 -0.258819
vn 0.965926 0.000000 -0.258819
vn 0.965926 0.000000 -0.258819
vn 0.965926 0.000000 -0.258819
vn 0.965926 0.000000 -0.258819
vn 0.965926 0.000000 0.258819
vn 0.965926 0.000000 0.258819
vn 0.965926 0.000000 0.258819
vn 0.965926 0.000000 0.258819
vn 0.965926 0.000000 0.258819
vn 0.965926 0.000000 0.258819
vn -0.000000 1.000000 0.000000
vn -0.000000 1.000000 0.000000
vn -0.000000 1.000000 0.000000
vn 0.707107 0.000000 0.707107
vn 0.707107 0.000000 0.707107
vn 0.707107 0.000000 0.707107
vn 0.707107 0.000000 0.707107
vn 0.707107 0.000000 0.707107
vn 0.707107 0.000000 0.707107
vn 0.258819 0.000000 0.965926
vn 0.258819 0.000000 0.965926
vn 0.258819 0.000000 0.965926
vn 0.258819 0.000000 0.965926
vn 0.258819 0.000000 0.965926
vn 0.258819 0.000000 0.965926
vn -0.000000 -1.000000 0.000000
vn -0.000000 -1.000000 0.000000
vn -0.000000 -1.000000 0.000000
vn -0.144215 0.830376 0.538218
vn -0.144215 0.830376 0.538218
vn -0.144215 0.830376 0.538218
vn -0.144215 0.830375 0.538219
vn -0.144215 0.830375 0.538219
vn -0.144215 0.830375 0.538219
vn -0.394003 0.830376 0.394003
vn -0.394003 0.830376 0.394003
vn -0.394003 0.830376 0.394003
vn -0.394003 0.830375 0.394003
vn -0.394003 0.830375 0.394003
vn -0.394003 0.830375 0.394003
vn -0.538218 0.830375 0.144215
vn -0.538218 0.830375 0.144215
vn -0.538218 0.830375 0.144215
vn -0.538218 0.830376 0.144215
vn -0.538218 0.830376 0.144215
vn -0.538218 0.830376 0.144215
vn -0.538218 0.830375 -0.144215
vn -0.538218 0.830375 -0.144215
vn -0.538218 0.830375 -0.144215
vn -0.538218 0.830375 -0.144215
vn -0.538218 0.830375 -0.144215
vn -0.538218 0.830375 -0.144215
vn -0.394003 0.830376 -0.394002
vn -0.394003 0.830376 -0.394002
vn -0.394003 0.830376 -0.394002
vn -0.394003 0.830376 -0.394003
vn -0.394003 0.830376 -0.394003
vn -0.394003 0.830376 -0.394003
vn -0.144215 0.830375 -0.538218
vn -0.144215 0.830375 -0.538218
vn -0.144215 0.830375 -0.538218
vn -0.144215 0.830375 -0.538218
vn -0.144215 0.830375 -0.538218
vn -0.144215 0.830375 -0.538218
vn 0.144215 0.830376 -0.538217
vn 0.144215 0.830376 -0.538217
vn 0.144215 0.830376 -0.538217
vn 0.144215 0.830375 -0.538219
vn 0.144215 0.830375 -0.538219
vn 0.144215 0.830375 -0.538219
vn 0.394003 0.830375 -0.394003
vn 0.394003 0.830375 -0.394003
vn 0.394003 0.830375 -0.394003
vn 0.394002 0.830376 -0.394003
vn 0.394002 0.830376 -0.394003
vn 0.394002 0.830376 -0.394003
vn 0.538218 0.830376 -0.144215
vn 0.538218 0.830376 -0.144215
vn 0.538218 0.830376 -0.144215
vn 0.538218 0.830376 -0.144215
vn 0.538218 0.830376 -0.144215
vn 0.538218 0.830376 -0.144215
vn 0.538218 0.830375 0.144215
vn 0.538218 0.830375 0.144215
vn 0.538218 0.830375 0.144215
vn 0.538218 0.830376 0.144215
vn 0.538218 0.830376 0.144215
vn 0.538218 0.830376 0.144215
vn 0.394003 0.830376 0.394003
vn 0.394003 0.830376 0.394003
vn 0.394003 0.830376 0.394003
vn 0.394003 0.830375 0.394003
vn 0.394003 0.830375 0.394003
vn 0.394003 0.830375 0.394003
vn 0.144215 0.830376 0.538218
vn 0.144215 0.830376 0.538218
vn 0.144215 0.830376 0.538218
vn 0.144215 0.830375 0.538218
vn 0.144215 0.830375 0.538218
vn 0.144215 0.830375 0.538218
vn -0.000000 1.000000 0.000000
vn -0.000000 1.000000 0.000000
vn -0.000000 1.000000 0.000000
vn -0.000000 1.000000 0.000000
vn -0.000000 1.000000 0.000000
vn -0.000000 1.000000 0.000000
vn -0.000000 1.000000 0.000000
vn -0.000000 1.000000 0.000000
vn -0.000000 1.000000 0.000000
vn -0.000000 1.000000 0.000000
vn -0.000000 1.000000 0.000000
vn -0.000000 1.000000 0.000000
vn -0.000000 1.000000 0.000000
vn -0.000000 1.000000 0.000000
vn -0.000000 1.000000 0.000000
vn 0.000001 1.000000 0.000000
vn 0.000001 1.000000 0.000000
vn 0.000001 1.000000 0.000000
vn 0.000000 1.000000 0.000000
vn 0.000000 1.000000 0.000000
vn 0.000000 1.000000 0.000000
vn -0.000000 1.000000 0.000000
vn -0.000000 1.000000 0.000000
vn -0.000000 1.000000 0.000000
vn -0.000000 1.000000 0.000000
vn -0.000000 1.000000 0.000000
vn -0.000000 1.000000 0.000000
vn -0.000000 -1.000000 0.000000
vn -0.000000 -1.000000 0.000000
vn -0.000000 -1.000000 0.000000
vn -0.000000 -1.000000 0.000000
vn -0.000000 -1.000000 0.000000
vn -0.000000 -1.000000 0.000000
vn -0.000000 -1.000000 0.000000
vn -0.000000 -1.000000 0.000000
vn -0.000000 -1.000000 0.000000
vn -0.000000 -1.000000 0.000000
vn -0.000000 -1.000000 0.000000
vn -0.000000 -1.000000 0.000000
vn -0.000000 -1.000000 0.000000
vn -0.000000 -1.000000 0.000000
vn -0.000000 -1.000000 0.000000
vn -0.000000 -1.000000 0.000000
vn -0.000000 -1.000000 0.000000
vn -0.000000 -1.000000 0.000000
vn -0.000000 -1.000000 0.000000
vn -0.000000 -1.000000 0.000000
vn -0.000000 -1.000000 0.000000
vn 0.000000 -1.000000 0.000000
vn 0.000000 -1.000000 0.000000
vn 0.000000 -1.000000 0.000000
vn -0.000000 -1.000000 0.000000
vn -0.000000 -1.000000 0.000000
vn -0.000000 -1.000000 0.000000
vn -0.499906 -0.019261 0.865865
vn -0.499906 -0.019261 0.865865
vn -0.499906 -0.019261 0.865865
vn -0.499908 -0.019261 0.865864
vn -0.499908 -0.019261 0.865864
vn -0.499908 -0.019261 0.865864
vn -0.998618 0.052559 0.000000
vn -0.998618 0.052559 0.000000
vn -0.998618 0.052559 0.000000
vn -0.998618 0.052559 0.000000
vn -0.998618 0.052559 0.000000
vn -0.998618 0.052559 0.000000
vn -0.498713 0.071711 -0.863795
vn -0.498713 0.071711 -0.863795
vn -0.498713 0.071711 -0.863795
vn -0.498712 0.071711 -0.863796
vn -0.498712 0.071711 -0.863796
vn -0.498712 0.071711 -0.863796
vn 0.499907 0.019261 -0.865865
vn 0.499907 0.019261 -0.865865
vn 0.499907 0.019261 -0.865865
vn 0.499907 0.019261 -0.865865
vn 0.499907 0.019261 -0.865865
vn 0.499907 0.019261 -0.865865
vn 0.998618 -0.052559 0.000000
vn 0.998618 -0.052559 0.000000
vn 0.998618 -0.052559 0.000000
vn 0.998618 -0.052559 0.000000
vn 0.998618 -0.052559 0.000000
vn 0.998618 -0.052559 0.000000
vn 0.498712 -0.071711 0.863796
vn 0.498712 -0.071711 0.863796
vn 0.498712 -0.071711 0.863796
vn 0.498712 -0.071711 0.863796
vn 0.498712 -0.071711 0.863796
vn 0.498712 -0.071711 0.863796
vn -0.000000 -1.000000 0.000000
vn -0.000000 -1.000000 0.000000
vn -0.000000 -1.000000 0.000000
vn 0.865865 -0.019261 0.499907
vn 0.865865 -0.019261 0.499907
vn 0.865865 -0.019261 0.499907
vn 0.865865 -0.019261 0.499907
vn 0.865865 -0.019261 0.499907
vn 0.865865 -0.019261 0.499907
vn -0.000000 0.052559 0.998618
vn -0.000000 0.052559 0.998618
vn -0.000000 0.052559 0.998618
vn 0.000002 0.052559 0.998618
vn 0.000002 0.052559 0.998618
vn 0.000002 0.052559 0.998618
vn -0.863796 0.071711 0.498713
vn -0.863796 0.071711 0.498713
vn -0.863796 0.071711 0.498713
vn -0.863796 0.071711 0.498712
vn -0.863796 0.071711 0.498712
vn -0.863796 0.071711 0.498712
vn -0.865865 0.019261 -0.499906
vn -0.865865 0.019261 -0.499906
vn -0.865865 0.019261 -0.499906
vn -0.865865 0.019261 -0.499907
vn -0.865865 0.019261 -0.499907
vn -0.865865 0.019261 -0.499907
vn -0.000000 -0.052559 -0.998618
vn -0.000000 -0.052559 -0.998618
vn -0.000000 -0.052559 -0.998618
vn -0.000002 -0.052559 -0.998618
vn -0.000002 -0.052559 -0.998618
vn -0.000002 -0.052559 -0.998618
vn 0.863796 -0.071711 -0.498713
vn 0.863796 -0.071711 -0.498713
vn 0.863796 -0.071711 -0.498713
vn 0.863795 -0.071711 -0.498714
vn 0.863795 -0.071711 -0.498714
vn 0.863795 -0.071711 -0.498714
vn -0.000000 -1.000000 0.000000
vn -0.000000 -1.000000 0.000000
vn -0.000000 -1.000000 0.000000
vn 0.499907 -0.019261 -0.865865
vn 0.499907 -0.019261 -0.865865
vn 0.499907 -0.019261 -0.865865
vn 0.499907 -0.019261 -0.865865
vn 0.499907 -0.019261 -0.865865
vn 0.499907 -0.019261 -0.865865
vn 0.998618 0.052559 0.000000
vn 0.998618 0.052559 0.000000
vn 0.998618 0.052559 0.000000
vn 0.998618 0.052559 -0.000004
vn 0.998618 0.052559 -0.000004
vn 0.998618 0.052559 -0.000004
vn 0.498713 0.071711 0.863796
vn 0.498713 0.071711 0.863796
vn 0.498713 0.071711 0.863796
vn 0.498712 0.071711 0.863796
vn 0.498712 0.071711 0.863796
vn 0.498712 0.071711 0.863796
vn -0.499907 0.019261 0.865865
vn -0.499907 0.019261 0.865865
vn -0.499907 0.019261 0.865865
vn -0.499905 0.019261 0.865866
vn -0.499905 0.019261 0.865866
vn -0.499905 0.019261 0.865866
vn -0.998618 -0.052559 0.000000
vn -0.998618 -0.052559 0.000000
vn -0.998618 -0.052559 0.000000
vn -0.998618 -0.052559 0.000003
vn -0.998618 -0.052559 0.000003
vn -0.998618 -0.052559 0.000003
vn -0.498712 -0.071711 -0.863796
vn -0.498712 -0.071711 -0.863796
vn -0.498712 -0.071711 -0.863796
vn -0.498713 -0.071711 -0.863795
vn -0.498713 -0.071711 -0.863795
vn -0.498713 -0.071711 -0.863795
vn -0.000000 -1.000000 0.000000
vn -0.000000 -1.000000 0.000000
vn -0.000000 -1.000000 0.000000
vn -0.865865 -0.019261 -0.499906
vn -0.865865 -0.019261 -0.499906
vn -0.865865 -0.019261 -0.499906
vn -0.865865 -0.019261 -0.499908
vn -0.865865 -0.019261 -0.499908
vn -0.865865 -0.019261 -0.499908
vn -0.000000 0.052559 -0.998618
vn -0.000000 0.052559 -0.998618
vn -0.000000 0.052559 -0.998618
vn -0.000004 0.052559 -0.998618
vn -0.000004 0.052559 -0.998618
vn -0.000004 0.052559 -0.998618
vn 0.863796 0.071711 -0.498713
vn 0.863796 0.071711 -0.498713
vn 0.863796 0.071711 -0.498713
vn 0.863796 0.071711 -0.498712
vn 0.863796 0.071711 -0.498712
vn 0.863796 0.071711 -0.498712
vn 0.865865 0.019261 0.499906
vn 0.865865 0.019261 0.499906
vn 0.865865 0.019261 0.499906
vn 0.865867 0.019261 0.499904
vn 0.865867 0.019261 0.499904
vn 0.865867 0.019261 0.499904
vn -0.000000 -0.052559 0.998618
vn -0.000000 -0.052559 0.998618
vn -0.000000 -0.052559 0.998618
vn 0.000002 -0.052559 0.998618
vn 0.000002 -0.052559 0.998618
vn 0.000002 -0.052559 0.998618
vn -0.863796 -0.071711 0.498713
vn -0.863796 -0.071711 0.498713
vn -0.863796 -0.071711 0.498713
vn -0.863795 -0.071711 0.498714
vn -0.863795 -0.071711 0.498714
vn -0.863795 -0.071711 0.498714
vn -0.000000 -1.000000 0.000000
vn -0.000000 -1.000000 0.000000
vn -0.000000 -1.000000 0.000000
vn -0.843610 0.487059 0.226045
vn -0.843610 0.487059 0.226045
vn -0.843610 0.487059 0.226045
vn -0.843610 0.487059 0.226044
vn -0.843610 0.487059 0.226044
vn -0.843610 0.487059 0.226044
vn 0.000000 1.000000 0.000000
vn 0.000000 1.000000 0.000000
vn 0.000000 1.000000 0.000000
vn -0.000000 1.000000 0.000000
vn -0.000000 1.000000 0.000000
vn -0.000000 1.000000 0.000000
vn 0.843610 0.487059 -0.226045
vn 0.843610 0.487059 -0.226045
vn 0.843610 0.487059 -0.226045
vn 0.843610 0.487059 -0.226044
vn 0.843610 0.487059 -0.226044
vn 0.843610 0.487059 -0.226044
vn 0.843610 -0.487058 -0.226045
vn 0.843610 -0.487058 -0.226045
vn 0.843610 -0.487058 -0.226045
vn 0.843610 -0.487058 -0.226045
vn 0.843610 -0.487058 -0.226045
vn 0.843610 -0.487058 -0.226045
vn -0.000000 -1.000000 0.000000
vn -0.000000 -1.000000 0.000000
vn -0.000000 -1.000000 0.000000
vn -0.000000 -1.000000 0.000000
vn -0.000000 -1.000000 0.000000
vn -0.000000 -1.000000 0.000000
vn -0.843610 -0.487058 0.226045
vn -0.843610 -0.487058 0.226045
vn -0.843610 -0.487058 0.226045
vn -0.843610 -0.487058 0.226044
vn -0.843610 -0.487058 0.226044
vn -0.843610 -0.487058 0.226044
vn -0.617565 0.487059 0.617565
vn -0.617565 0.487059 0.617565
vn -0.617565 0.487059 0.617565
vn -0.617565 0.487059 0.617565
vn -0.617565 0.487059 0.617565
vn -0.617565 0.487059 0.617565
vn -0.000000 1.000000 0.000000
vn -0.000000 1.000000 0.000000
vn -0.000000 1.000000 0.000000
vn 0.000000 1.000000 0.000000
vn 0.000000 1.000000 0.000000
vn 0.000000 1.000000 0.000000
vn 0.617565 0.487059 -0.617565
vn 0.617565 0.487059 -0.617565
vn 0.617565 0.487059 -0.617565
vn 0.617565 0.487059 -0.617565
vn 0.617565 0.487059 -0.617565
vn 0.617565 0.487059 -0.617565
vn 0.617565 -0.487059 -0.617566
vn 0.617565 -0.487059 -0.617566
vn 0.617565 -0.487059 -0.617566
vn 0.617566 -0.487057 -0.617566
vn 0.617566 -0.487057 -0.617566
vn 0.617566 -0.487057 -0.617566
vn -0.000000 -1.000000 0.000000
vn -0.000000 -1.000000 0.000000
vn -0.000000 -1.000000 0.000000
vn 0.000000 -1.000000 0.000000
vn 0.000000 -1.000000 0.000000
vn 0.000000 -1.000000 0.000000
vn -0.617565 -0.487059 0.617565
vn -0.617565 -0.487059 0.617565
vn -0.617565 -0.487059 0.617565
vn -0.617565 -0.487058 0.617566
vn -0.617565 -0.487058 0.617566
vn -0.617565 -0.487058 0.617566
vn -0.226045 0.487059 0.843610
vn -0.226045 0.487059 0.843610
vn -0.226045 0.487059 0.843610
vn -0.226044 0.487059 0.843610
vn -0.226044 0.487059 0.843610
vn -0.226044 0.487059 0.843610
vn -0.000000 1.000000 0.000000
vn -0.000000 1.000000 0.000000
vn -0.000000 1.000000 0.000000
vn -0.000000 1.000000 0.000000
vn -0.000000 1.000000 0.000000
vn -0.000000 1.000000 0.000000
vn 0.226045 0.487059 -0.843610
vn 0.226045 0.487059 -0.843610
vn 0.226045 0.487059 -0.843610
vn 0.226045 0.487059 -0.843610
vn 0.226045 0.487059 -0.843610
vn 0.226045 0.487059 -0.843610
vn 0.226045 -0.487058 -0.843611
vn 0.226045 -0.487058 -0.843611
vn 0.226045 -0.487058 -0.843611
vn 0.226045 -0.487058 -0.843610
vn 0.226045 -0.487058 -0.843610
vn 0.226045 -0.487058 -0.843610
vn -0.000000 -1.000000 0.000000
vn -0.000000 -1.000000 0.000000
vn -0.000000 -1.000000 0.000000
vn 0.000000 -1.000000 0.000000
vn 0.000000 -1.000000 0.000000
vn 0.000000 -1.000000 0.000000
vn -0.226045 -0.487058 0.843610
vn -0.226045 -0.487058 0.843610
vn -0.226045 -0.487058 0.843610
vn -0.226045 -0.487058 0.843610
vn -0.226045 -0.487058 0.843610
vn -0.226045 -0.487058 0.843610
vn 0.226045 0.487058 0.843610
vn 0.226045 0.487058 0.843610
vn 0.226045 0.487058 0.843610
vn 0.226044 0.487059 0.843610
vn 0.226044 0.487059 0.843610
vn 0.226044 0.487059 0.843610
vn -0.000000 1.000000 0.000000
vn -0.000000 1.000000 0.000000
vn -0.000000 1.000000 0.000000
vn 0.000000 1.000000 0.000000
vn 0.000000 1.000000 0.000000
vn 0.000000 1.000000 0.000000
vn -0.226044 0.487060 -0.843609
vn -0.226044 0.487060 -0.843609
vn -0.226044 0.487060 -0.843609
vn -0.226044 0.487059 -0.843610
vn -0.226044 0.487059 -0.843610
vn -0.226044 0.487059 -0.843610
vn -0.226045 -0.487056 -0.843611
vn -0.226045 -0.487056 -0.843611
vn -0.226045 -0.487056 -0.843611
vn -0.226044 -0.487061 -0.843609
vn -0.226044 -0.487061 -0.843609
vn -0.226044 -0.487061 -0.843609
vn -0.000000 -1.000000 0.000000
vn -0.000000 -1.000000 0.000000
vn -0.000000 -1.000000 0.000000
vn -0.000000 -1.000000 0.000000
vn -0.000000 -1.000000 0.000000
vn -0.000000 -1.000000 0.000000
vn 0.226045 -0.487057 0.843611
vn 0.226045 -0.487057 0.843611
vn 0.226045 -0.487057 0.843611
vn 0.226045 -0.487058 0.843610
vn 0.226045 -0.487058 0.843610
vn 0.226045 -0.487058 0.843610
vn 0.617565 0.487058 0.617566
vn 0.617565 0.487058 0.617566
vn 0.617565 0.487058 0.617566
vn 0.617565 0.487059 0.617565
vn 0.617565 0.487059 0.617565
vn 0.617565 0.487059 0.617565
vn -0.000000 1.000000 0.000000
vn -0.000000 1.000000 0.000000
vn -0.000000 1.000000 0.000000
vn -0.000000 1.000000 0.000000
vn -0.000000 1.000000 0.000000
vn -0.000000 1.000000 0.000000
vn -0.617565 0.487059 -0.617566
vn -0.617565 0.487059 -0.617566
vn -0.617565 0.487059 -0.617566
vn -0.617565 0.487059 -0.617565
vn -0.617565 0.487059 -0.617565
vn -0.617565 0.487059 -0.617565
vn -0.617566 -0.487058 -0.617566
vn -0.617566 -0.487058 -0.617566
vn -0.617566 -0.487058 -0.617566
vn -0.617565 -0.487058 -0.617566
vn -0.617565 -0.487058 -0.617566
vn -0.617565 -0.487058 -0.617566
vn -0.000000 -1.000000 0.000000
vn -0.000000 -1.000000 0.000000
vn -0.000000 -1.000000 0.000000
vn -0.000000 -1.000000 0.000000
vn -0.000000 -1.000000 0.000000
vn -0.000000 -1.000000 0.000000
vn 0.617565 -0.487059 0.617566
vn 0.617565 -0.487059 0.617566
vn 0.617565 -0.487059 0.617566
vn 0.617566 -0.487057 0.617566
vn 0.617566 -0.487057 0.617566
vn 0.617566 -0.487057 0.617566
vn 0.843610 0.487059 0.226045
vn 0.843610 0.487059 0.226045
vn 0.843610 0.487059 0.226045
vn 0.843610 0.487059 0.226044
vn 0.843610 0.487059 0.226044
vn 0.843610 0.487059 0.226044
vn -0.000000 1.000000 0.000000
vn -0.000000 1.000000 0.000000
vn -0.000000 1.000000 0.000000
vn -0.000000 1.000000 0.000000
vn -0.000000 1.000000 0.000000
vn -0.000000 1.000000 0.000000
vn -0.843610 0.487059 -0.226045
vn -0.843610 0.487059 -0.226045
vn -0.843610 0.487059 -0.226045
vn -0.843610 0.487059 -0.226045
vn -0.843610 0.487059 -0.226045
vn -0.843610 0.487059 -0.226045
vn -0.843610 -0.487058 -0.226045
vn -0.843610 -0.487058 -0.226045
vn -0.843610 -0.487058 -0.226045
vn -0.843610 -0.487058 -0.226045
vn -0.843610 -0.487058 -0.226045
vn -0.843610 -0.487058 -0.226045
vn -0.000000 -1.000000 0.000000
vn -0.000000 -1.000000 0.000000
vn -0.000000 -1.000000 0.000000
vn 0.000000 -1.000000 0.000000
vn 0.000000 -1.000000 0.000000
vn 0.000000 -1.000000 0.000000
vn 0.843610 -0.487058 0.226044
vn 0.843610 -0.487058 0.226044
vn 0.843610 -0.487058 0.226044
vn 0.843610 -0.487058 0.226045
vn 0.843610 -0.487058 0.226045
vn 0.843610 -0.487058 0.226045
vn 0.843610 0.487059 -0.226044
vn 0.843610 0.487059 -0.226044
vn 0.843610 0.487059 -0.226044
vn 0.843610 0.487059 -0.226044
vn 0.843610 0.487059 -0.226044
vn 0.843610 0.487059 -0.226044
vn -0.000000 1.000000 0.000000
vn -0.000000 1.000000 0.000000
vn -0.000000 1.000000 0.000000
vn 0.000000 1.000000 0.000000
vn 0.000000 1.000000 0.000000
vn 0.000000 1.000000 0.000000
vn -0.843610 0.487059 0.226045
vn -0.843610 0.487059 0.226045
vn -0.843610 0.487059 0.226045
vn -0.843610 0.487059 0.226045
vn -0.843610 0.487059 0.226045
vn -0.843610 0.487059 0.226045
vn -0.843610 -0.487058 0.226044
vn -0.843610 -0.487058 0.226044
vn -0.843610 -0.487058 0.226044
vn -0.843610 -0.487058 0.226045
vn -0.843610 -0.487058 0.226045
vn -0.843610 -0.487058 0.226045
vn 0.000000 -1.000000 0.000000
vn 0.000000 -1.000000 0.000000
vn 0.000000 -1.000000 0.000000
vn -0.000000 -1.000000 0.000000
vn -0.000000 -1.000000 0.000000
vn -0.000000 -1.000000 0.000000
vn 0.843610 -0.487058 -0.226045
vn 0.843610 -0.487058 -0.226045
vn 0.843610 -0.487058 -0.226045
vn 0.843610 -0.487058 -0.226044
vn 0.843610 -0.487058 -0.226044
vn 0.843610 -0.487058 -0.226044
vn 0.617565 0.487059 -0.617565
vn 0.617565 0.487059 -0.617565
vn 0.617565 0.487059 -0.617565
vn 0.617566 0.487058 -0.617565
vn 0.617566 0.487058 -0.617565
vn 0.617566 0.487058 -0.617565
vn -0.000000 1.000000 0.000000
vn -0.000000 1.000000 0.000000
vn -0.000000 1.000000 0.000000
vn 0.000000 1.000000 0.000000
vn 0.000000 1.000000 0.000000
vn 0.000000 1.000000 0.000000
vn -0.617565 0.487059 0.617565
vn -0.617565 0.487059 0.617565
vn -0.617565 0.487059 0.617565
vn -0.617565 0.487059 0.617565
vn -0.617565 0.487059 0.617565
vn -0.617565 0.487059 0.617565
vn -0.617565 -0.487058 0.617565
vn -0.617565 -0.487058 0.617565
vn -0.617565 -0.487058 0.617565
vn -0.617566 -0.487058 0.617566
vn -0.617566 -0.487058 0.617566
vn -0.617566 -0.487058 0.617566
vn -0.000000 -1.000000 0.000000
vn -0.000000 -1.000000 0.000000
vn -0.000000 -1.000000 0.000000
vn -0.000000 -1.000000 0.000000
vn -0.000000 -1.000000 0.000000
vn -0.000000 -1.000000 0.000000
vn 0.617566 -0.487057 -0.617566
vn 0.617566 -0.487057 -0.617566
vn 0.617566 -0.487057 -0.617566
vn 0.617565 -0.487059 -0.617565
vn 0.617565 -0.487059 -0.617565
vn 0.617565 -0.487059 -0.617565
vn 0.226045 0.487059 -0.843610
vn 0.226045 0.487059 -0.843610
vn 0.226045 0.487059 -0.843610
vn 0.226045 0.487058 -0.843610
vn 0.226045 0.487058 -0.843610
vn 0.226045 0.487058 -0.843610
vn -0.000000 1.000000 0.000000
vn -0.000000 1.000000 0.000000
vn -0.000000 1.000000 0.000000
vn -0.000000 1.000000 0.000000
vn -0.000000 1.000000 0.000000
vn -0.000000 1.000000 0.000000
vn -0.226044 0.487062 0.843608
vn -0.226044 0.487062 0.843608
vn -0.226044 0.487062 0.843608
vn -0.226045 0.487057 0.843611
vn -0.226045 0.487057 0.843611
vn -0.226045 0.487057 0.843611
vn -0.226044 -0.487059 0.843610
vn -0.226044 -0.487059 0.843610
vn -0.226044 -0.487059 0.843610
vn -0.226044 -0.487059 0.843610
vn -0.226044 -0.487059 0.843610
vn -0.226044 -0.487059 0.843610
vn -0.000000 -1.000000 0.000000
vn -0.000000 -1.000000 0.000000
vn -0.000000 -1.000000 0.000000
vn -0.000000 -1.000000 0.000000
vn -0.000000 -1.000000 0.000000
vn -0.000000 -1.000000 0.000000
vn 0.226045 -0.487058 -0.843610
vn 0.226045 -0.487058 -0.843610
vn 0.226045 -0.487058 -0.843610
vn 0.226045 -0.487057 -0.843611
vn 0.226045 -0.487057 -0.843611
vn 0.226045 -0.487057 -0.843611
vn -0.226044 0.487059 -0.843610
vn -0.226044 0.487059 -0.843610
vn -0.226044 0.487059 -0.843610
vn -0.226044 0.487059 -0.843610
vn -0.226044 0.487059 -0.843610
vn -0.226044 0.487059 -0.843610
vn -0.000000 1.000000 0.000000
vn -0.000000 1.000000 0.000000
vn -0.000000 1.000000 0.000000
vn -0.000000 1.000000 0.000000
vn -0.000000 1.000000 0.000000
vn -0.000000 1.000000 0.000000
vn 0.226045 0.487059 0.843610
vn 0.226045 0.487059 0.843610
vn 0.226045 0.487059 0.843610
vn 0.226045 0.487058 0.843610
vn 0.226045 0.487058 0.843610
vn 0.226045 0.487058 0.843610
vn 0.226045 -0.487058 0.843610
vn 0.226045 -0.487058 0.843610
vn 0.226045 -0.487058 0.843610
vn 0.226045 -0.487058 0.843610
vn 0.226045 -0.487058 0.843610
vn 0.226045 -0.487058 0.843610
vn 0.000000 -1.000000 0.000000
vn 0.000000 -1.000000 0.000000
vn 0.000000 -1.000000 0.000000
vn 0.000000 -1.000000 0.000000
vn 0.000000 -1.000000 0.000000
vn 0.000000 -1.000000 0.000000
vn -0.226045 -0.487058 -0.843610
vn -0.226045 -0.487058 -0.843610
vn -0.226045 -0.487058 -0.843610
vn -0.226045 -0.487058 -0.843610
vn -0.226045 -0.487058 -0.843610
vn -0.226045 -0.487058 -0.843610
vn -0.617566 0.487058 -0.617565
vn -0.617566 0.487058 -0.617565
vn -0.617566 0.487058 -0.617565
vn -0.617565 0.487059 -0.617565
vn -0.617565 0.487059 -0.617565
vn -0.617565 0.487059 -0.617565
vn -0.000000 1.000000 0.000000
vn -0.000000 1.000000 0.000000
vn -0.000000 1.000000 0.000000
vn 0.000000 1.000000 0.000000
vn 0.000000 1.000000 0.000000
vn 0.000000 1.000000 0.000000
vn 0.617565 0.487058 0.617566
vn 0.617565 0.487058 0.617566
vn 0.617565 0.487058 0.617566
vn 0.617565 0.487059 0.617565
vn 0.617565 0.487059 0.617565
vn 0.617565 0.487059 0.617565
vn 0.617565 -0.487058 0.617566
vn 0.617565 -0.487058 0.617566
vn 0.617565 -0.487058 0.617566
vn 0.617566 -0.487058 0.617566
vn 0.617566 -0.487058 0.617566
vn 0.617566 -0.487058 0.617566
vn -0.000000 -1.000000 0.000000
vn -0.000000 -1.000000 0.000000
vn -0.000000 -1.000000 0.000000
vn -0.000000 -1.000000 0.000000
vn -0.000000 -1.000000 0.000000
vn -0.000000 -1.000000 0.000000
vn -0.617565 -0.487058 -0.617566
vn -0.617565 -0.487058 -0.617566
vn -0.617565 -0.487058 -0.617566
vn -0.617566 -0.487058 -0.617566
vn -0.617566 -0.487058 -0.617566
vn -0.617566 -0.487058 -0.617566
vn -0.843610 0.487059 -0.226045
vn -0.843610 0.487059 -0.226045
vn -0.843610 0.487059 -0.226045
vn -0.843610 0.487059 -0.226045
vn -0.843610 0.487059 -0.226045
vn -0.843610 0.487059 -0.226045
vn -0.000000 1.000000 0.000000
vn -0.000000 1.000000 0.000000
vn -0.000000 1.000000 0.000000
vn 0.000000 1.000000 0.000000
vn 0.000000 1.000000 0.000000
vn 0.000000 1.000000 0.000000
vn 0.843610 0.487059 0.226045
vn 0.843610 0.487059 0.226045
vn 0.843610 0.487059 0.226045
vn 0.843610 0.487059 0.226045
vn 0.843610 0.487059 0.226045
vn 0.843610 0.487059 0.226045
vn 0.843610 -0.487058 0.226045
vn 0.843610 -0.487058 0.226045
vn 0.843610 -0.487058 0.226045
vn 0.843610 -0.487058 0.226045
vn 0.843610 -0.487058 0.226045
vn 0.843610 -0.487058 0.226045
vn -0.000000 -1.000000 0.000000
vn -0.000000 -1.000000 0.000000
vn -0.000000 -1.000000 0.000000
vn -0.000000 -1.000000 0.000000
vn -0.000000 -1.000000 0.000000
vn -0.000000 -1.000000 0.000000
vn -0.843610 -0.487058 -0.226044
vn -0.843610 -0.487058 -0.226044
vn -0.843610 -0.487058 -0.226044
vn -0.843610 -0.487058 -0.226045
vn -0.843610 -0.487058 -0.226045
vn -0.843610 -0.487058 -0.226045
vn -0.000000 -1.000000 0.000000
vn -0.000000 -1.000000 0.000000
vn -0.000000 -1.000000 0.000000
vn -0.000000 -1.000000 0.000000
vn -0.000000 -1.000000 0.000000
vn -0.000000 -1.000000 0.000000
vn -0.000000 -1.000000 0.000000
vn -0.000000 -1.000000 0.000000
vn -0.000000 -1.000000 0.000000
vn -0.000000 -1.000000 0.000000
vn -0.000000 -1.000000 0.000000
vn -0.000000 -1.000000 0.000000
vn -0.000000 -1.000000 0.000000
vn -0.000000 -1.000000 0.000000
vn -0.000000 -1.000000 0.000000
vn -0.000000 -1.000000 0.000000
vn -0.000000 -1.000000 0.000000
vn -0.000000 -1.000000 0.000000
vn 0.000000 -1.000000 0.000000
vn 0.000000 -1.000000 0.000000
vn 0.000000 -1.000000 0.000000
vn 0.000005 -1.000000 0.000000
vn 0.000005 -1.000000 0.000000
vn 0.000005 -1.000000 0.000000
vn -0.000005 -1.000000 0.000000
vn -0.000005 -1.000000 0.000000
vn -0.000005 -1.000000 0.000000
vn -0.000000 -1.000000 0.000000
vn -0.000000 -1.000000 0.000000
vn -0.000000 -1.000000 0.000000
vn -0.000000 -1.000000 0.000000
vn -0.000000 -1.000000 0.000000
vn -0.000000 -1.000000 0.000000
vn -0.000000 -1.000000 0.000000
vn -0.000000 -1.000000 0.000000
vn -0.000000 -1.000000 0.000000

g Material.001
f 3/1/1 1/2/2 2/3/3
f 6/4/4 4/5/5 5/6/6
f 9/7/7 7/8/8 8/9/9
f 12/10/10 10/11/11 11/12/12
f 15/13/13 13/14/14 14/15/15
f 18/16/16 16/17/17 17/18/18
f 21/19/19 19/20/20 20/21/21
f 24/22/22 22/23/23 23/24/24
f 27/25/25 25/26/26 26/27/27
f 30/28/28 28/29/29 29/30/30
f 33/31/31 31/32/32 32/33/33
f 36/34/34 34/35/35 35/36/36
f 39/37/37 37/38/38 38/39/39
f 42/40/40 40/41/41 41/42/42
f 45/43/43 43/44/44 44/45/45
f 48/46/46 46/47/47 47/48/48
f 51/49/49 49/50/50 50/51/51
f 54/52/52 52/53/53 53/54/54
f 57/55/55 55/56/56 56/57/57
f 60/58/58 58/59/59 59/60/60
f 63/61/61 61/62/62 62/63/63
f 66/64/64 64/65/65 65/66/66
f 69/67/67 67/68/68 68/69/69
f 72/70/70 70/71/71 71/72/72
f 75/73/73 73/74/74 74/75/75
f 78/76/76 76/77/77 77/78/78
f 81/79/79 79/80/80 80/81/81
f 84/82/82 82/83/83 83/84/84
f 87/85/85 85/86/86 86/87/87
f 90/88/88 88/89/89 89/90/90
f 93/91/91 91/92/92 92/93/93
f 96/94/94 94/95/95 95/96/96
f 99/97/97 97/98/98 98/99/99
f 102/100/100 100/101/101 101/102/102
f 105/103/103 103/104/104 104/105/105
f 108/106/106 106/107/107 107/108/108
f 111/109/109 109/110/110 110/111/111
f 114/112/112 112/113/113 113/114/114
f 117/115/115 115/116/116 116/117/117
f 120/118/118 118/119/119 119/120/120
f 123/121/121 121/122/122 122/123/123
f 126/124/124 124/125/125 125/126/126
f 129/127/127 127/128/128 128/129/129
f 132/130/130 130/131/131 131/132/132
f 135/133/133 133/134/134 134/135/135
f 138/136/136 136/137/137 137/138/138
f 141/139/139 139/140/140 140/141/141
f 144/142/142 142/143/143 143/144/144
f 147/145/145 145/146/146 146/147/147
f 150/148/148 148/149/149 149/150/150
f 153/151/151 151/152/152 152/153/153
f 156/154/154 154/155/155 155/156/156
f 159/157/157 157/158/158 158/159/159
f 162/160/160 160/161/161 161/162/162
f 165/163/163 163/164/164 164/165/165
f 168/166/166 166/167/167 167/168/168
f 171/169/169 169/170/170 170/171/171
f 174/172/172 172/173/173 173/174/174
f 177/175/175 175/176/176 176/177/177
f 180/178/178 178/179/179 179/180/180
f 183/181/181 181/182/182 182/183/183
f 186/184/184 184/185/185 185/186/186
f 189/187/187 187/188/188 188/189/189
f 192/190/190 190/191/191 191/192/192
f 195/193/193 193/194/194 194/195/195
f 198/196/196 196/197/197 197/198/198
f 201/199/199 199/200/200 200/201/201
f 204/202/202 202/203/203 203/204/204

g Material.002
f 207/205/205 205/206/206 206/207/207
f 210/208/208 208/209/209 209/210/210
f 213/211/211 211/212/212 212/213/213
f 216/214/214 214/215/215 215/216/216
f 219/217/217 217/218/218 218/219/219
f 222/220/220 220/221/221 221/222/222
f 225/223/223 223/224/224 224/225/225
f 228/226/226 226/227/227 227/228/228
f 231/229/229 229/230/230 230/231/231
f 234/232/232 232/233/233 233/234/234
f 237/235/235 235/236/236 236/237/237
f 240/238/238 238/239/239 239/240/240
f 243/241/241 241/242/242 242/243/243
f 246/244/244 244/245/245 245/246/246
f 249/247/247 247/248/248 248/249/249
f 252/250/250 250/251/251 251/252/252
f 255/253/253 253/254/254 254/255/255
f 258/256/256 256/257/257 257/258/258
f 261/259/259 259/260/260 260/261/261
f 264/262/262 262/263/263 263/264/264
f 267/265/265 265/266/266 266/267/267
f 270/268/268 268/269/269 269/270/270
f 273/271/271 271/272/272 272/273/273
f 276/274/274 274/275/275 275/276/276
f 279/277/277 277/278/278 278/279/279
f 282/280/280 280/281/281 281/282/282
f 285/283/283 283/284/284 284/285/285
f 288/286/286 286/287/287 287/288/288
f 291/289/289 289/290/290 290/291/291
f 294/292/292 292/293/293 293/294/294
f 297/295/295 295/296/296 296/297/297
f 300/298/298 298/299/299 299/300/300
f 303/301/301 301/302/302 302/303/303
f 306/304/304 304/305/305 305/306/306
f 309/307/307 307/308/308 308/309/309
f 312/310/310 310/311/311 311/312/312
f 315/313/313 313/314/314 314/315/315
f 318/316/316 316/317/317 317/318/318
f 321/319/319 319/320/320 320/321/321
f 324/322/322 322/323/323 323/324/324
f 327/325/325 325/326/326 326/327/327
f 330/328/328 328/329/329 329/330/330
f 333/331/331 331/332/332 332/333/333
f 336/334/334 334/335/335 335/336/336
f 339/337/337 337/338/338 338/339/339
f 342/340/340 340/341/341 341/342/342
f 345/343/343 343/344/344 344/345/345
f 348/346/346 346/347/347 347/348/348
f 351/349/349 349/350/350 350/351/351
f 354/352/352 352/353/353 353/354/354
f 357/355/355 355/356/356 356/357/357
f 360/358/358 358/359/359 359/360/360
f 363/361/361 361/362/362 362/363/363
f 366/364/364 364/365/365 365/366/366
f 369/367/367 367/368/368 368/369/369
f 372/370/370 370/371/371 371/372/372
f 375/373/373 373/374/374 374/375/375
f 378/376/376 376/377/377 377/378/378
f 381/379/379 379/380/380 380/381/381
f 384/382/382 382/383/383 383/384/384
f 387/385/385 385/386/386 386/387/387
f 390/388/388 388/389/389 389/390/390
f 393/391/391 391/392/392 392/393/393
f 396/394/394 394/395/395 395/396/396
f 399/397/397 397/398/398 398/399/399
f 402/400/400 400/401/401 401/402/402
f 405/403/403 403/404/404 404/405/405
f 408/406/406 406/407/407 407/408/408
f 411/409/409 409/410/410 410/411/411
f 414/412/412 412/413/413 413/414/414
f 417/415/415 415/416/416 416/417/417
f 420/418/418 418/419/419 419/420/420
f 423/421/421 421/422/422 422/423/423
f 426/424/424 424/425/425 425/426/426
f 429/427/427 427/428/428 428/429/429
f 432/430/430 430/431/431 431/432/432
f 435/433/433 433/434/434 434/435/435
f 438/436/436 436/437/437 437/438/438
f 441/439/439 439/440/440 440/441/441
f 444/442/442 442/443/443 443/444/444
f 447/445/445 445/446/446 446/447/447
f 450/448/448 448/449/449 449/450/450
f 453/451/451 451/452/452 452/453/453
f 456/454/454 454/455/455 455/456/456
f 459/457/457 457/458/458 458/459/459
f 462/460/460 460/461/461 461/462/462
f 465/463/463 463/464/464 464/465/465
f 468/466/466 466/467/467 467/468/468
f 471/469/469 469/470/470 470/471/471
f 474/472/472 472/473/473 473/474/474
f 477/475/475 475/476/476 476/477/477
f 480/478/478 478/479/479 479/480/480
f 483/481/481 481/482/482 482/483/483
f 486/484/484 484/485/485 485/486/486
f 489/487/487 487/488/488 488/489/489
f 492/490/490 490/491/491 491/492/492
f 495/493/493 493/494/494 494/495/495
f 498/496/496 496/497/497 497/498/498
f 501/499/499 499/500/500 500/501/501
f 504/502/502 502/503/503 503/504/504
f 507/505/505 505/506/506 506/507/507
f 510/508/508 508/509/509 509/510/510
f 513/511/511 511/512/512 512/513/513
f 516/514/514 514/515/515 515/516/516
f 519/517/517 517/518/518 518/519/519
f 522/520/520 520/521/521 521/522/522
f 525/523/523 523/524/524 524/525/525
f 528/526/526 526/527/527 527/528/528
f 531/529/529 529/530/530 530/531/531
f 534/532/532 532/533/533 533/534/534
f 537/535/535 535/536/536 536/537/537
f 540/538/538 538/539/539 539/540/540
f 543/541/541 541/542/542 542/543/543
f 546/544/544 544/545/545 545/546/546
f 549/547/547 547/548/548 548/549/549
f 552/550/550 550/551/551 551/552/552
f 555/553/553 553/554/554 554/555/555
f 558/556/556 556/557/557 557/558/558
f 561/559/559 559/560/560 560/561/561
f 564/562/562 562/563/563 563/564/564
f 567/565/565 565/566/566 566/567/567
f 570/568/568 568/569/569 569/570/570
f 573/571/571 571/572/572 572/573/573
f 576/574/574 574/575/575 575/576/576
f 579/577/577 577/578/578 578/579/579
f 582/580/580 580/581/581 581/582/582
f 585/583/583 583/584/584 584/585/585
f 588/586/586 586/587/587 587/588/588
f 591/589/589 589/590/590 590/591/591
f 594/592/592 592/593/593 593/594/594
f 597/595/595 595/596/596 596/597/597
f 600/598/598 598/599/599 599/600/600
f 603/601/601 601/602/602 602/603/603
f 606/604/604 604/605/605 605/606/606
f 609/607/607 607/608/608 608/609/609
f 612/610/610 610/611/611 611/612/612
f 615/613/613 613/614/614 614/615/615
f 618/616/616 616/617/617 617/618/618
f 621/619/619 619/620/620 620/621/621
f 624/622/622 622/623/623 623/624/624
f 627/625/625 625/626/626 626/627/627
f 630/628/628 628/629/629 629/630/630
f 633/631/631 631/632/632 632/633/633
f 636/634/634 634/635/635 635/636/636
f 639/637/637 637/638/638 638/639/639
f 642/640/640 640/641/641 641/642/642
f 645/643/643 643/644/644 644/645/645
f 648/646/646 646/647/647 647/648/648
f 651/649/649 649/650/650 650/651/651
f 654/652/652 652/653/653 653/654/654
f 657/655/655 655/656/656 656/657/657
f 660/658/658 658/659/659 659/660/660
f 663/661/661 661/662/662 662/663/663
f 666/664/664 664/665/665 665/666/666
f 669/667/667 667/668/668 668/669/669
f 672/670/670 670/671/671 671/672/672
f 675/673/673 673/674/674 674/675/675
f 678/676/676 676/677/677 677/678/678
f 681/679/679 679/680/680 680/681/681
f 684/682/682 682/683/683 683/684/684
f 687/685/685 685/686/686 686/687/687
f 690/688/688 688/689/689 689/690/690
f 693/691/691 691/692/692 692/693/693
f 696/694/694 694/695/695 695/696/696
f 699/697/697 697/698/698 698/699/699
f 702/700/700 700/701/701 701/702/702
f 705/703/703 703/704/704 704/705/705
f 708/706/706 706/707/707 707/708/708
f 711/709/709 709/710/710 710/711/711
f 714/712/712 712/713/713 713/714/714
f 717/715/715 715/716/716 716/717/717
f 720/718/718 718/719/719 719/720/720
f 723/721/721 721/722/722 722/723/723
f 726/724/724 724/725/725 725/726/726
f 729/727/727 727/728/728 728/729/729
f 732/730/730 730/731/731 731/732/732
f 735/733/733 733/734/734 734/735/735
f 738/736/736 736/737/737 737/738/738
f 741/739/739 739/740/740 740/741/741
f 744/742/742 742/743/743 743/744/744
f 747/745/745 745/746/746 746/747/747
f 750/748/748 748/749/749 749/750/750
f 753/751/751 751/752/752 752/753/753
f 756/754/754 754/755/755 755/756/756
f 759/757/757 757/758/758 758/759/759
f 762/760/760 760/761/761 761/762/762
f 765/763/763 763/764/764 764/765/765
f 768/766/766 766/767/767 767/768/768
f 771/769/769 769/770/770 770/771/771
f 774/772/772 772/773/773 773/774/774
f 777/775/775 775/776/776 776/777/777
f 780/778/778 778/779/779 779/780/780
f 783/781/781 781/782/782 782/783/783
f 786/784/784 784/785/785 785/786/786
f 789/787/787 787/788/788 788/789/789
f 792/790/790 790/791/791 791/792/792
f 795/793/793 793/794/794 794/795/795
f 798/796/796 796/797/797 797/798/798
f 801/799/799 799/800/800 800/801/801
f 804/802/802 802/803/803 803/804/804
f 807/805/805 805/806/806 806/807/807
f 810/808/808 808/809/809 809/810/810
f 813/811/811 811/812/812 812/813/813
f 816/814/814 814/815/815 815/816/816
f 819/817/817 817/818/818 818/819/819
f 822/820/820 820/821/821 821/822/822
f 825/823/823 823/824/824 824/825/825
f 828/826/826 826/827/827 827/828/828

