# Converted from B3D for Luanti (With Correct Normals)
# Object Name: multidecor_wooden_door

v 1.300000 -0.500000 -0.050000
v 1.300000 0.500000 -0.050000
v 1.300000 0.500000 0.050000
v 1.300000 -0.500000 0.050000
v -0.000000 -0.500000 -0.050000
v 1.300000 -0.500000 -0.050000
v 1.300000 -0.500000 0.050000
v 0.000000 -0.500000 0.050000
v -0.000000 0.500000 -0.050000
v -0.000000 -0.500000 -0.050000
v 0.000000 -0.500000 0.050000
v 0.000000 0.500000 0.050000
v 1.164098 -0.166500 0.050000
v 1.074098 -0.166500 0.050000
v 1.074098 -0.166500 0.125000
v 1.164098 -0.166500 0.125000
v 1.164098 -0.191500 0.125000
v 1.074098 -0.191500 0.125000
v 1.074098 -0.191500 0.050000
v 1.164098 -0.191500 0.050000
v 1.164098 -0.166500 0.050000
v 1.164098 -0.166500 0.125000
v 1.164098 -0.191500 0.125000
v 1.164098 -0.191500 0.050000
v 1.074098 -0.166500 0.125000
v 1.074098 -0.166500 0.050000
v 1.074098 -0.191500 0.050000
v 1.074098 -0.191500 0.125000
v 1.164098 0.283500 0.050000
v 1.074098 0.283500 0.050000
v 1.074098 0.283500 0.125000
v 1.164098 0.283500 0.125000
v 1.164098 0.308500 0.125000
v 1.074098 0.308500 0.125000
v 1.074098 0.308500 0.050000
v 1.164098 0.308500 0.050000
v 1.164098 0.283500 0.050000
v 1.164098 0.283500 0.125000
v 1.164098 0.308500 0.125000
v 1.164098 0.308500 0.050000
v 1.074098 0.283500 0.125000
v 1.074098 0.283500 0.050000
v 1.074098 0.308500 0.050000
v 1.074098 0.308500 0.125000
v 1.074098 -0.166500 0.125000
v 1.074098 0.283500 0.125000
v 1.164098 0.283500 0.125000
v 1.164098 -0.166500 0.125000
v 1.074098 0.283500 0.125000
v 1.074098 -0.166500 0.125000
v 1.060598 -0.166500 0.125000
v 1.060598 0.283500 0.125000
v 1.074098 0.283500 0.125000
v 1.060598 0.283500 0.125000
v 1.060598 0.333500 0.125000
v 1.074098 0.308500 0.125000
v 1.074098 -0.191500 0.125000
v 1.164098 -0.191500 0.125000
v 1.177598 -0.216500 0.125000
v 1.060598 -0.216500 0.125000
v 1.164098 -0.191500 0.125000
v 1.164098 -0.166500 0.125000
v 1.177598 -0.166500 0.125000
v 1.177598 -0.216500 0.125000
v 1.164098 -0.166500 0.125000
v 1.164098 0.283500 0.125000
v 1.177598 0.283500 0.125000
v 1.177598 -0.166500 0.125000
v 1.074098 0.308500 0.125000
v 1.060598 0.333500 0.125000
v 1.177598 0.333500 0.125000
v 1.164098 0.308500 0.125000
v 1.074098 -0.166500 0.125000
v 1.074098 -0.191500 0.125000
v 1.060598 -0.216500 0.125000
v 1.060598 -0.166500 0.125000
v 1.164098 0.308500 0.125000
v 1.177598 0.333500 0.125000
v 1.177598 0.283500 0.125000
v 1.164098 0.283500 0.125000
v 1.060598 0.333500 0.125000
v 1.060598 0.333500 0.175000
v 1.177598 0.333500 0.175000
v 1.177598 0.333500 0.125000
v 1.177598 0.333500 0.125000
v 1.177598 0.333500 0.175000
v 1.177598 0.283500 0.175000
v 1.177598 0.283500 0.125000
v 1.060598 -0.166500 0.125000
v 1.060598 -0.216500 0.125000
v 1.060598 -0.216500 0.175000
v 1.060598 -0.166500 0.175000
v 1.060598 0.283500 0.125000
v 1.060598 -0.166500 0.125000
v 1.060598 -0.166500 0.175000
v 1.060598 0.283500 0.175000
v 1.060598 0.283500 0.125000
v 1.060598 0.283500 0.175000
v 1.060598 0.333500 0.175000
v 1.060598 0.333500 0.125000
v 1.060598 -0.216500 0.125000
v 1.177598 -0.216500 0.125000
v 1.177598 -0.216500 0.175000
v 1.060598 -0.216500 0.175000
v 1.177598 -0.216500 0.125000
v 1.177598 -0.166500 0.125000
v 1.177598 -0.166500 0.175000
v 1.177598 -0.216500 0.175000
v 1.177598 -0.166500 0.125000
v 1.177598 0.283500 0.125000
v 1.177598 0.283500 0.175000
v 1.177598 -0.166500 0.175000
v 1.177598 -0.166500 0.175000
v 1.177598 0.283500 0.175000
v 1.060598 0.283500 0.175000
v 1.060598 -0.166500 0.175000
v 1.060598 -0.166500 0.175000
v 1.060598 -0.216500 0.175000
v 1.177598 -0.216500 0.175000
v 1.177598 -0.166500 0.175000
v 1.060598 0.283500 0.175000
v 1.177598 0.283500 0.175000
v 1.177598 0.333500 0.175000
v 1.060598 0.333500 0.175000
v 1.300000 0.500000 0.050000
v 1.300000 0.500000 -0.050000
v -0.000000 0.500000 -0.050000
v 0.000000 0.500000 0.050000
v 1.300000 -0.500000 -0.050000
v -0.000000 -0.500000 -0.050000
v -0.000000 0.500000 -0.050000
v 1.300000 0.500000 -0.050000
v 1.300000 -0.500000 0.050000
v 1.300000 0.500000 0.050000
v 0.000000 0.500000 0.050000
v 0.000000 -0.500000 0.050000

vt 0.967879 0.599610
vt 1.004234 0.963160
vt 1.004234 0.599610
vt 0.967879 0.963160
vt 1.004234 0.963160
vt 0.967879 0.599610
vt 0.967879 0.963160
vt 0.495263 0.999516
vt 0.967879 0.999516
vt 0.495263 0.963160
vt 0.495263 0.999516
vt 0.967879 0.963160
vt 0.495263 0.963160
vt 0.458908 0.599609
vt 0.458908 0.963160
vt 0.495263 0.599609
vt 0.458908 0.599609
vt 0.495263 0.963160
vt 0.495263 0.563254
vt 0.967879 0.599610
vt 0.967879 0.563254
vt 0.495263 0.599609
vt 0.967879 0.599610
vt 0.495263 0.563254
vt 0.495263 0.563254
vt 0.967880 0.199703
vt 0.495264 0.199703
vt 0.967879 0.563254
vt 0.967880 0.199703
vt 0.495263 0.563254
vt 0.495263 0.599609
vt 0.967879 0.963160
vt 0.967879 0.599610
vt 0.495263 0.963160
vt 0.967879 0.963160
vt 0.495263 0.599609
vt 0.231068 0.690962
vt 0.115710 0.829392
vt 0.115710 0.690962
vt 0.231068 0.829392
vt 0.115710 0.829392
vt 0.231068 0.690962
vt 0.115710 0.652510
vt 0.231068 0.514081
vt 0.231068 0.652510
vt 0.115710 0.514081
vt 0.231068 0.514081
vt 0.115710 0.652510
vt 0.231303 0.514081
vt 0.346660 0.552533
vt 0.231303 0.552533
vt 0.346660 0.514081
vt 0.346660 0.552533
vt 0.231303 0.514081
vt 0.115710 0.652510
vt 0.231068 0.690962
vt 0.115710 0.690962
vt 0.231068 0.652510
vt 0.231068 0.690962
vt 0.115710 0.652510
vt 0.000118 0.690962
vt 0.115475 0.552533
vt 0.115475 0.690962
vt 0.000118 0.552533
vt 0.115475 0.552533
vt 0.000118 0.690962
vt 0.115475 0.729414
vt 0.000118 0.867844
vt 0.000118 0.729415
vt 0.115475 0.867844
vt 0.000118 0.867844
vt 0.115475 0.729414
vt 0.000118 0.514081
vt 0.115475 0.552533
vt 0.000118 0.552533
vt 0.115475 0.514081
vt 0.115475 0.552533
vt 0.000118 0.514081
vt 0.115475 0.729414
vt 0.000118 0.690962
vt 0.115475 0.690962
vt 0.000118 0.729415
vt 0.000118 0.690962
vt 0.115475 0.729414
vt 0.153928 0.020883
vt 0.846073 0.159313
vt 0.153928 0.159312
vt 0.846073 0.020884
vt 0.846073 0.159313
vt 0.153928 0.020883
vt 0.846073 0.180077
vt 0.153928 0.159312
vt 0.846073 0.159313
vt 0.153929 0.180077
vt 0.153928 0.159312
vt 0.846073 0.180077
vt 0.077023 0.180076
vt 0.153928 0.159312
vt 0.153929 0.180077
vt 0.115476 0.159312
vt 0.153928 0.159312
vt 0.077023 0.180076
vt 0.922978 0.000120
vt 0.884525 0.159313
vt 0.884525 0.020884
vt 0.922978 0.180077
vt 0.884525 0.159313
vt 0.922978 0.000120
vt 0.846073 0.000119
vt 0.884525 0.020884
vt 0.846073 0.020884
vt 0.922978 0.000120
vt 0.884525 0.020884
vt 0.846073 0.000119
vt 0.153929 0.000118
vt 0.846073 0.020884
vt 0.153928 0.020883
vt 0.846073 0.000119
vt 0.846073 0.020884
vt 0.153929 0.000118
vt 0.077023 0.000118
vt 0.115476 0.159312
vt 0.077023 0.180076
vt 0.115476 0.020882
vt 0.115476 0.159312
vt 0.077023 0.000118
vt 0.922978 0.180077
vt 0.846073 0.159313
vt 0.884525 0.159313
vt 0.846073 0.180077
vt 0.846073 0.159313
vt 0.922978 0.180077
vt 0.153929 0.000118
vt 0.115476 0.020882
vt 0.077023 0.000118
vt 0.153928 0.020883
vt 0.115476 0.020882
vt 0.153929 0.000118
vt 0.077023 0.436940
vt 0.000118 0.256982
vt 0.077023 0.256982
vt 0.000118 0.436940
vt 0.000118 0.256982
vt 0.077023 0.436940
vt 0.153928 0.436940
vt 0.077023 0.513845
vt 0.077023 0.436940
vt 0.153928 0.513845
vt 0.077023 0.513845
vt 0.153928 0.436940
vt 0.922978 0.256982
vt 0.846073 0.180077
vt 0.922978 0.180077
vt 0.846073 0.256982
vt 0.846073 0.180077
vt 0.922978 0.256982
vt 0.846073 0.256982
vt 0.153929 0.180077
vt 0.846073 0.180077
vt 0.153928 0.256982
vt 0.153929 0.180077
vt 0.846073 0.256982
vt 0.077023 0.256982
vt 0.153929 0.180077
vt 0.153928 0.256982
vt 0.077023 0.180076
vt 0.153929 0.180077
vt 0.077023 0.256982
vt 0.922978 0.436940
vt 0.999882 0.256982
vt 0.999882 0.436940
vt 0.922978 0.256982
vt 0.999882 0.256982
vt 0.922978 0.436940
vt 0.846073 0.436940
vt 0.922978 0.513845
vt 0.846073 0.513845
vt 0.922978 0.436940
vt 0.922978 0.513845
vt 0.846073 0.436940
vt 0.153928 0.436940
vt 0.846073 0.513845
vt 0.153928 0.513845
vt 0.846073 0.436940
vt 0.846073 0.513845
vt 0.153928 0.436940
vt 0.153928 0.256982
vt 0.846073 0.436940
vt 0.153928 0.436940
vt 0.846073 0.256982
vt 0.846073 0.436940
vt 0.153928 0.256982
vt 0.922978 0.436940
vt 0.846073 0.256982
vt 0.922978 0.256982
vt 0.846073 0.436940
vt 0.846073 0.256982
vt 0.922978 0.436940
vt 0.077023 0.436940
vt 0.153928 0.256982
vt 0.153928 0.436940
vt 0.077023 0.256982
vt 0.153928 0.256982
vt 0.077023 0.436940

vn 1.000000 0.000000 0.000000
vn 1.000000 0.000000 0.000000
vn 1.000000 0.000000 0.000000
vn 1.000000 0.000000 0.000000
vn 1.000000 0.000000 0.000000
vn 1.000000 0.000000 0.000000
vn -0.000000 -1.000000 0.000000
vn -0.000000 -1.000000 0.000000
vn -0.000000 -1.000000 0.000000
vn -0.000000 -1.000000 0.000000
vn -0.000000 -1.000000 0.000000
vn -0.000000 -1.000000 0.000000
vn -1.000000 0.000000 0.000000
vn -1.000000 0.000000 0.000000
vn -1.000000 0.000000 0.000000
vn -1.000000 0.000000 0.000000
vn -1.000000 0.000000 0.000000
vn -1.000000 0.000000 0.000000
vn -0.000000 1.000000 0.000000
vn -0.000000 1.000000 0.000000
vn -0.000000 1.000000 0.000000
vn -0.000000 1.000000 0.000000
vn -0.000000 1.000000 0.000000
vn -0.000000 1.000000 0.000000
vn -0.000000 0.000000 -1.000000
vn -0.000000 0.000000 -1.000000
vn -0.000000 0.000000 -1.000000
vn -0.000000 0.000000 -1.000000
vn -0.000000 0.000000 -1.000000
vn -0.000000 0.000000 -1.000000
vn 0.000000 0.000000 1.000000
vn 0.000000 0.000000 1.000000
vn 0.000000 0.000000 1.000000
vn 0.000000 0.000000 1.000000
vn 0.000000 0.000000 1.000000
vn 0.000000 0.000000 1.000000
vn 0.000000 1.000000 0.000000
vn 0.000000 1.000000 0.000000
vn 0.000000 1.000000 0.000000
vn 0.000000 1.000000 0.000000
vn 0.000000 1.000000 0.000000
vn 0.000000 1.000000 0.000000
vn -0.000000 -1.000000 0.000000
vn -0.000000 -1.000000 0.000000
vn -0.000000 -1.000000 0.000000
vn -0.000000 -1.000000 0.000000
vn -0.000000 -1.000000 0.000000
vn -0.000000 -1.000000 0.000000
vn 1.000000 0.000000 0.000000
vn 1.000000 0.000000 0.000000
vn 1.000000 0.000000 0.000000
vn 1.000000 0.000000 0.000000
vn 1.000000 0.000000 0.000000
vn 1.000000 0.000000 0.000000
vn -1.000000 0.000000 0.000000
vn -1.000000 0.000000 0.000000
vn -1.000000 0.000000 0.000000
vn -1.000000 0.000000 0.000000
vn -1.000000 0.000000 0.000000
vn -1.000000 0.000000 0.000000
vn 0.000000 1.000000 0.000000
vn 0.000000 1.000000 0.000000
vn 0.000000 1.000000 0.000000
vn -0.000000 1.000000 0.000000
vn -0.000000 1.000000 0.000000
vn -0.000000 1.000000 0.000000
vn -0.000000 -1.000000 0.000000
vn -0.000000 -1.000000 0.000000
vn -0.000000 -1.000000 0.000000
vn -0.000000 -1.000000 0.000000
vn -0.000000 -1.000000 0.000000
vn -0.000000 -1.000000 0.000000
vn -1.000000 0.000000 0.000000
vn -1.000000 0.000000 0.000000
vn -1.000000 0.000000 0.000000
vn -1.000000 0.000000 0.000000
vn -1.000000 0.000000 0.000000
vn -1.000000 0.000000 0.000000
vn 1.000000 0.000000 0.000000
vn 1.000000 0.000000 0.000000
vn 1.000000 0.000000 0.000000
vn 1.000000 0.000000 0.000000
vn 1.000000 0.000000 0.000000
vn 1.000000 0.000000 0.000000
vn -0.000000 0.000000 -1.000000
vn -0.000000 0.000000 -1.000000
vn -0.000000 0.000000 -1.000000
vn -0.000000 0.000000 -1.000000
vn -0.000000 0.000000 -1.000000
vn -0.000000 0.000000 -1.000000
vn -0.000000 0.000000 -1.000000
vn -0.000000 0.000000 -1.000000
vn -0.000000 0.000000 -1.000000
vn -0.000000 0.000000 -1.000000
vn -0.000000 0.000000 -1.000000
vn -0.000000 0.000000 -1.000000
vn -0.000000 0.000000 -1.000000
vn -0.000000 0.000000 -1.000000
vn -0.000000 0.000000 -1.000000
vn -0.000000 0.000000 -1.000000
vn -0.000000 0.000000 -1.000000
vn -0.000000 0.000000 -1.000000
vn -0.000000 -0.000001 -1.000000
vn -0.000000 -0.000001 -1.000000
vn -0.000000 -0.000001 -1.000000
vn -0.000000 0.000001 -1.000000
vn -0.000000 0.000001 -1.000000
vn -0.000000 0.000001 -1.000000
vn -0.000000 0.000000 -1.000000
vn -0.000000 0.000000 -1.000000
vn -0.000000 0.000000 -1.000000
vn -0.000000 0.000000 -1.000000
vn -0.000000 0.000000 -1.000000
vn -0.000000 0.000000 -1.000000
vn -0.000000 0.000000 -1.000000
vn -0.000000 0.000000 -1.000000
vn -0.000000 0.000000 -1.000000
vn -0.000000 0.000000 -1.000000
vn -0.000000 0.000000 -1.000000
vn -0.000000 0.000000 -1.000000
vn -0.000000 -0.000000 -1.000000
vn -0.000000 -0.000000 -1.000000
vn -0.000000 -0.000000 -1.000000
vn -0.000000 0.000001 -1.000000
vn -0.000000 0.000001 -1.000000
vn -0.000000 0.000001 -1.000000
vn -0.000000 0.000000 -1.000000
vn -0.000000 0.000000 -1.000000
vn -0.000000 0.000000 -1.000000
vn -0.000000 0.000000 -1.000000
vn -0.000000 0.000000 -1.000000
vn -0.000000 0.000000 -1.000000
vn -0.000000 0.000000 -1.000000
vn -0.000000 0.000000 -1.000000
vn -0.000000 0.000000 -1.000000
vn -0.000000 0.000000 -1.000000
vn -0.000000 0.000000 -1.000000
vn -0.000000 0.000000 -1.000000
vn -0.000000 1.000000 0.000000
vn -0.000000 1.000000 0.000000
vn -0.000000 1.000000 0.000000
vn -0.000000 1.000000 0.000000
vn -0.000000 1.000000 0.000000
vn -0.000000 1.000000 0.000000
vn 1.000000 0.000000 0.000000
vn 1.000000 0.000000 0.000000
vn 1.000000 0.000000 0.000000
vn 1.000000 0.000000 0.000000
vn 1.000000 0.000000 0.000000
vn 1.000000 0.000000 0.000000
vn -1.000000 0.000000 0.000000
vn -1.000000 0.000000 0.000000
vn -1.000000 0.000000 0.000000
vn -1.000000 0.000000 0.000000
vn -1.000000 0.000000 0.000000
vn -1.000000 0.000000 0.000000
vn -1.000000 0.000000 0.000000
vn -1.000000 0.000000 0.000000
vn -1.000000 0.000000 0.000000
vn -1.000000 0.000000 0.000000
vn -1.000000 0.000000 0.000000
vn -1.000000 0.000000 0.000000
vn -1.000000 0.000000 0.000000
vn -1.000000 0.000000 0.000000
vn -1.000000 0.000000 0.000000
vn -1.000000 0.000000 0.000000
vn -1.000000 0.000000 0.000000
vn -1.000000 0.000000 0.000000
vn -0.000000 -1.000000 0.000000
vn -0.000000 -1.000000 0.000000
vn -0.000000 -1.000000 0.000000
vn 0.000000 -1.000000 0.000000
vn 0.000000 -1.000000 0.000000
vn 0.000000 -1.000000 0.000000
vn 1.000000 0.000000 0.000000
vn 1.000000 0.000000 0.000000
vn 1.000000 0.000000 0.000000
vn 1.000000 0.000000 0.000000
vn 1.000000 0.000000 0.000000
vn 1.000000 0.000000 0.000000
vn 1.000000 0.000000 0.000000
vn 1.000000 0.000000 0.000000
vn 1.000000 0.000000 0.000000
vn 1.000000 0.000000 0.000000
vn 1.000000 0.000000 0.000000
vn 1.000000 0.000000 0.000000
vn 0.000000 0.000000 1.000000
vn 0.000000 0.000000 1.000000
vn 0.000000 0.000000 1.000000
vn 0.000000 0.000000 1.000000
vn 0.000000 0.000000 1.000000
vn 0.000000 0.000000 1.000000
vn 0.000000 0.000000 1.000000
vn 0.000000 0.000000 1.000000
vn 0.000000 0.000000 1.000000
vn 0.000000 0.000000 1.000000
vn 0.000000 0.000000 1.000000
vn 0.000000 0.000000 1.000000
vn 0.000000 0.000000 1.000000
vn 0.000000 0.000000 1.000000
vn 0.000000 0.000000 1.000000
vn 0.000000 0.000000 1.000000
vn 0.000000 0.000000 1.000000
vn 0.000000 0.000000 1.000000

g Material.001
f 3/1/1 1/2/2 2/3/3
f 4/4/4 1/5/5 3/6/6
f 7/7/7 5/8/8 6/9/9
f 8/10/10 5/11/11 7/12/12
f 11/13/13 9/14/14 10/15/15
f 12/16/16 9/17/17 11/18/18
f 127/19/19 125/20/20 126/21/21
f 128/22/22 125/23/23 127/24/24
f 131/25/25 129/26/26 130/27/27
f 132/28/28 129/29/29 131/30/30
f 135/31/31 133/32/32 134/33/33
f 136/34/34 133/35/35 135/36/36

g Material.002
f 15/37/37 13/38/38 14/39/39
f 16/40/40 13/41/41 15/42/42
f 19/43/43 17/44/44 18/45/45
f 20/46/46 17/47/47 19/48/48
f 23/49/49 21/50/50 22/51/51
f 24/52/52 21/53/53 23/54/54
f 27/55/55 25/56/56 26/57/57
f 28/58/58 25/59/59 27/60/60
f 31/61/61 29/62/62 30/63/63
f 32/64/64 29/65/65 31/66/66
f 35/67/67 33/68/68 34/69/69
f 36/70/70 33/71/71 35/72/72
f 39/73/73 37/74/74 38/75/75
f 40/76/76 37/77/77 39/78/78
f 43/79/79 41/80/80 42/81/81
f 44/82/82 41/83/83 43/84/84
f 47/85/85 45/86/86 46/87/87
f 48/88/88 45/89/89 47/90/90
f 51/91/91 49/92/92 50/93/93
f 52/94/94 49/95/95 51/96/96
f 55/97/97 53/98/98 54/99/99
f 56/100/100 53/101/101 55/102/102
f 59/103/103 57/104/104 58/105/105
f 60/106/106 57/107/107 59/108/108
f 63/109/109 61/110/110 62/111/111
f 64/112/112 61/113/113 63/114/114
f 67/115/115 65/116/116 66/117/117
f 68/118/118 65/119/119 67/120/120
f 71/121/121 69/122/122 70/123/123
f 72/124/124 69/125/125 71/126/126
f 75/127/127 73/128/128 74/129/129
f 76/130/130 73/131/131 75/132/132
f 79/133/133 77/134/134 78/135/135
f 80/136/136 77/137/137 79/138/138
f 83/139/139 81/140/140 82/141/141
f 84/142/142 81/143/143 83/144/144
f 87/145/145 85/146/146 86/147/147
f 88/148/148 85/149/149 87/150/150
f 91/151/151 89/152/152 90/153/153
f 92/154/154 89/155/155 91/156/156
f 95/157/157 93/158/158 94/159/159
f 96/160/160 93/161/161 95/162/162
f 99/163/163 97/164/164 98/165/165
f 100/166/166 97/167/167 99/168/168
f 103/169/169 101/170/170 102/171/171
f 104/172/172 101/173/173 103/174/174
f 107/175/175 105/176/176 106/177/177
f 108/178/178 105/179/179 107/180/180
f 111/181/181 109/182/182 110/183/183
f 112/184/184 109/185/185 111/186/186
f 115/187/187 113/188/188 114/189/189
f 116/190/190 113/191/191 115/192/192
f 119/193/193 117/194/194 118/195/195
f 120/196/196 117/197/197 119/198/198
f 123/199/199 121/200/200 122/201/201
f 124/202/202 121/203/203 123/204/204

