# Converted from B3D for Luanti (With Correct Normals)
# Object Name: multidecor_window_door

v -1.000000 3.000000 -0.750000
v 1.000000 3.000000 -0.750000
v 1.000000 3.000000 -1.000000
v -1.000000 3.000000 -1.000000
v 0.800000 -0.800000 -0.875000
v 0.800000 -0.800000 -0.750000
v 0.800000 2.800000 -0.750000
v 0.800000 2.800000 -0.875000
v 1.000000 -1.000000 -1.000000
v 1.000000 3.000000 -1.000000
v 1.000000 3.000000 -0.750000
v 1.000000 -1.000000 -0.750000
v 1.000000 -1.000000 -0.750000
v -1.000000 -1.000000 -0.750000
v -1.000000 -1.000000 -1.000000
v 1.000000 -1.000000 -1.000000
v -1.000000 -1.000000 -0.750000
v -1.000000 3.000000 -0.750000
v -1.000000 3.000000 -1.000000
v -1.000000 -1.000000 -1.000000
v -0.800000 2.800000 -0.875000
v -0.800000 2.800000 -1.000000
v 0.800000 2.800000 -1.000000
v 0.800000 2.800000 -0.875000
v 0.800000 -0.800000 -0.875000
v 0.800000 -0.800000 -1.000000
v -0.800000 -0.800000 -1.000000
v -0.800000 -0.800000 -0.875000
v -0.800000 -0.800000 -0.875000
v -0.800000 -0.800000 -1.000000
v -0.800000 2.800000 -1.000000
v -0.800000 2.800000 -0.875000
v 1.000000 3.000000 -1.000000
v 0.800000 2.800000 -1.000000
v -0.800000 2.800000 -1.000000
v -1.000000 3.000000 -1.000000
v 1.000000 -1.000000 -1.000000
v 0.800000 -0.800000 -1.000000
v 0.800000 2.800000 -1.000000
v 1.000000 3.000000 -1.000000
v -1.000000 -1.000000 -1.000000
v -0.800000 -0.800000 -1.000000
v 0.800000 -0.800000 -1.000000
v 1.000000 -1.000000 -1.000000
v -1.000000 3.000000 -1.000000
v -0.800000 2.800000 -1.000000
v -0.800000 -0.800000 -1.000000
v -1.000000 -1.000000 -1.000000
v -1.000000 3.000000 -0.750000
v -0.800000 2.800000 -0.750000
v 0.800000 2.800000 -0.750000
v 1.000000 3.000000 -0.750000
v -1.000000 -1.000000 -0.750000
v -0.800000 -0.800000 -0.750000
v -0.800000 2.800000 -0.750000
v -1.000000 3.000000 -0.750000
v 1.000000 -1.000000 -0.750000
v 0.800000 -0.800000 -0.750000
v -0.800000 -0.800000 -0.750000
v -1.000000 -1.000000 -0.750000
v 1.000000 3.000000 -0.750000
v 0.800000 2.800000 -0.750000
v 0.800000 -0.800000 -0.750000
v 1.000000 -1.000000 -0.750000
v -0.800000 -0.800000 -0.750000
v -0.800000 -0.800000 -0.875000
v -0.800000 2.800000 -0.875000
v -0.800000 2.800000 -0.750000
v 0.800000 -0.800000 -0.750000
v 0.800000 -0.800000 -0.875000
v -0.800000 -0.800000 -0.875000
v -0.800000 -0.800000 -0.750000
v -0.800000 2.800000 -0.750000
v -0.800000 2.800000 -0.875000
v 0.800000 2.800000 -0.875000
v 0.800000 2.800000 -0.750000
v 0.800000 -0.800000 -1.000000
v 0.800000 -0.800000 -0.875000
v 0.800000 2.800000 -0.875000
v 0.800000 2.800000 -1.000000
v -0.800000 -0.800000 -0.875000
v -0.800000 2.800000 -0.875000
v 0.800000 2.800000 -0.875000
v 0.800000 -0.800000 -0.875000
v -0.964645 0.906659 -1.000000
v -0.964645 0.906659 -1.050000
v -0.835355 0.906659 -1.050000
v -0.835355 0.906659 -1.000000
v -0.835355 0.906659 -1.000000
v -0.835355 0.906659 -1.050000
v -0.835355 1.235949 -1.050000
v -0.835355 1.235949 -1.000000
v -0.835355 1.235949 -1.000000
v -0.835355 1.235949 -1.050000
v -0.964645 1.235949 -1.050000
v -0.964645 1.235949 -1.000000
v -0.964645 1.235949 -1.000000
v -0.964645 1.235949 -1.050000
v -0.964645 0.906659 -1.050000
v -0.964645 0.906659 -1.000000
v -0.835355 1.235949 -1.050000
v -0.835355 0.906659 -1.050000
v -0.964645 0.906659 -1.050000
v -0.964645 1.235949 -1.050000
v -0.862500 1.033804 -1.137500
v -0.862500 1.108804 -1.137500
v -0.862500 1.108804 -1.050000
v -0.862500 1.033804 -1.050000
v -0.937500 1.033804 -1.050000
v -0.937500 1.108804 -1.050000
v -0.937500 1.108804 -1.137500
v -0.937500 1.033804 -1.137500
v -0.862500 1.033804 -1.050000
v -0.937500 1.033804 -1.050000
v -0.937500 1.033804 -1.137500
v -0.862500 1.033804 -1.137500
v -0.937500 1.108804 -1.050000
v -0.862500 1.108804 -1.050000
v -0.862500 1.108804 -1.137500
v -0.937500 1.108804 -1.137500
v -0.950625 1.136929 -1.137500
v -0.950625 0.655679 -1.137500
v -0.849375 0.655679 -1.137500
v -0.849375 1.136929 -1.137500
v -0.950625 1.136929 -1.187500
v -0.849375 1.136929 -1.187500
v -0.849375 0.655679 -1.187500
v -0.950625 0.655679 -1.187500
v -0.849375 1.136929 -1.137500
v -0.849375 0.655679 -1.137500
v -0.849375 0.655679 -1.187500
v -0.849375 1.136929 -1.187500
v -0.950625 1.136929 -1.137500
v -0.849375 1.136929 -1.137500
v -0.849375 1.136929 -1.187500
v -0.950625 1.136929 -1.187500
v -0.950625 0.655679 -1.137500
v -0.950625 1.136929 -1.137500
v -0.950625 1.136929 -1.187500
v -0.950625 0.655679 -1.187500
v -0.849375 0.655679 -1.137500
v -0.950625 0.655679 -1.137500
v -0.950625 0.655679 -1.187500
v -0.849375 0.655679 -1.187500

vt 0.564744 0.000182
vt 0.518498 0.370148
vt 0.518498 0.000182
vt 0.564744 0.370148
vt 0.518498 0.370148
vt 0.564744 0.000182
vt 0.037179 0.694597
vt 0.703122 0.671483
vt 0.703122 0.694604
vt 0.037179 0.671474
vt 0.703122 0.671483
vt 0.037179 0.694597
vt 0.000182 1.055313
vt 0.740117 1.101560
vt 0.000182 1.101559
vt 0.740118 1.055314
vt 0.740117 1.101560
vt 0.000182 1.055313
vt 0.361626 0.370148
vt 0.407872 0.000182
vt 0.407872 0.370147
vt 0.361626 0.000182
vt 0.407872 0.000182
vt 0.361626 0.370148
vt 0.000182 0.934710
vt 0.740117 0.888464
vt 0.000182 0.888465
vt 0.740117 0.934710
vt 0.740117 0.888464
vt 0.000182 0.934710
vt 0.278019 0.037178
vt 0.301142 0.333151
vt 0.278019 0.333151
vt 0.301143 0.037178
vt 0.301142 0.333151
vt 0.278019 0.037178
vt 0.648350 0.333150
vt 0.625227 0.037178
vt 0.648350 0.037178
vt 0.625227 0.333150
vt 0.625227 0.037178
vt 0.648350 0.333150
vt 0.037178 0.647988
vt 0.703120 0.671117
vt 0.703120 0.647995
vt 0.037178 0.671110
vt 0.703120 0.671117
vt 0.037178 0.647988
vt 0.439880 0.333151
vt 0.402884 0.000182
vt 0.439880 0.037178
vt 0.402883 0.370147
vt 0.402884 0.000182
vt 0.439880 0.333151
vt 0.037178 0.976695
vt 0.740117 0.939699
vt 0.703121 0.976696
vt 0.000182 0.939699
vt 0.740117 0.939699
vt 0.037178 0.976695
vt 0.486489 0.037178
vt 0.523486 0.370147
vt 0.486489 0.333151
vt 0.523486 0.000182
vt 0.523486 0.370147
vt 0.486489 0.037178
vt 0.703121 0.809846
vt 0.000182 0.772850
vt 0.037178 0.809847
vt 0.740117 0.772850
vt 0.000182 0.772850
vt 0.703121 0.809846
vt 0.319641 0.037178
vt 0.356637 0.370147
vt 0.319641 0.333151
vt 0.356638 0.000181
vt 0.356637 0.370147
vt 0.319641 0.037178
vt 0.037178 0.689607
vt 0.740117 0.726604
vt 0.703121 0.689607
vt 0.000182 0.726604
vt 0.740117 0.726604
vt 0.037178 0.689607
vt 0.606728 0.333151
vt 0.569732 0.000181
vt 0.606728 0.037178
vt 0.569732 0.370147
vt 0.569732 0.000181
vt 0.606728 0.333151
vt 0.703121 0.856457
vt 0.000182 0.893452
vt 0.037178 0.856456
vt 0.740117 0.893454
vt 0.000182 0.893452
vt 0.703121 0.856457
vt 0.037179 0.504625
vt 0.703121 0.527756
vt 0.703121 0.504634
vt 0.037179 0.527747
vt 0.703121 0.527756
vt 0.037179 0.504625
vt 0.791712 0.333151
vt 0.768589 0.037178
vt 0.791713 0.037178
vt 0.768589 0.333151
vt 0.768589 0.037178
vt 0.791712 0.333151
vt 0.134657 0.037178
vt 0.157779 0.333151
vt 0.134656 0.333151
vt 0.157780 0.037178
vt 0.157779 0.333151
vt 0.134657 0.037178
vt 0.037178 0.837959
vt 0.703121 0.814844
vt 0.703121 0.837966
vt 0.037178 0.814837
vt 0.703121 0.814844
vt 0.037178 0.837959
vt 0.272238 0.379759
vt 0.281487 0.403674
vt 0.272238 0.403675
vt 0.281487 0.379758
vt 0.281487 0.403674
vt 0.272238 0.379759
vt 0.373185 0.541618
vt 0.434098 0.532369
vt 0.434098 0.541619
vt 0.373185 0.532369
vt 0.434098 0.532369
vt 0.373185 0.541618
vt 0.535046 0.403675
vt 0.525798 0.379759
vt 0.535047 0.379759
vt 0.525797 0.403675
vt 0.525798 0.379759
vt 0.535046 0.403675
vt 0.434099 0.241816
vt 0.373186 0.251063
vt 0.373186 0.241815
vt 0.434099 0.251064
vt 0.373186 0.251063
vt 0.434099 0.241816
vt 0.434099 0.403676
vt 0.373186 0.379760
vt 0.434099 0.379760
vt 0.373186 0.403676
vt 0.373186 0.379760
vt 0.434099 0.403676
vt 0.298038 0.384384
vt 0.281851 0.398258
vt 0.281851 0.384384
vt 0.298038 0.398258
vt 0.281851 0.398258
vt 0.298038 0.384384
vt 0.281851 0.426006
vt 0.298037 0.412132
vt 0.298037 0.426006
vt 0.281851 0.412132
vt 0.298037 0.412132
vt 0.281851 0.426006
vt 0.281851 0.412132
vt 0.298037 0.398258
vt 0.298037 0.412132
vt 0.281851 0.398258
vt 0.298037 0.398258
vt 0.281851 0.412132
vt 0.281851 0.384384
vt 0.298037 0.370510
vt 0.298037 0.384384
vt 0.281851 0.370510
vt 0.298037 0.370510
vt 0.281851 0.384384
vt 0.231774 0.447278
vt 0.320797 0.466008
vt 0.231774 0.466008
vt 0.320797 0.447278
vt 0.320797 0.466008
vt 0.231774 0.447278
vt 0.419069 0.447278
vt 0.330046 0.466008
vt 0.330046 0.447278
vt 0.419069 0.466008
vt 0.330046 0.466008
vt 0.419069 0.447278
vt 0.491907 0.444505
vt 0.482659 0.444505
vt 0.482659 0.444505
vt 0.491907 0.444505
vt 0.482659 0.444505
vt 0.491907 0.444505
vt 0.330046 0.306922
vt 0.330046 0.316171
vt 0.330046 0.316171
vt 0.330046 0.306922
vt 0.330046 0.316171
vt 0.330046 0.306922
vt 0.192466 0.468783
vt 0.201715 0.468783
vt 0.201715 0.468783
vt 0.192466 0.468783
vt 0.201715 0.468783
vt 0.192466 0.468783
vt 0.419068 0.541620
vt 0.419068 0.532371
vt 0.419068 0.532371
vt 0.419068 0.541620
vt 0.419068 0.532371
vt 0.419068 0.541620
vt 0.000067 0.999933
vt 0.444452 0.000067
vt 0.444452 0.999933
vt 0.000067 0.000067
vt 0.444452 0.000067
vt 0.000067 0.999933

vn -0.000000 1.000000 0.000000
vn -0.000000 1.000000 0.000000
vn -0.000000 1.000000 0.000000
vn -0.000000 1.000000 0.000000
vn -0.000000 1.000000 0.000000
vn -0.000000 1.000000 0.000000
vn -1.000000 0.000000 0.000000
vn -1.000000 0.000000 0.000000
vn -1.000000 0.000000 0.000000
vn -1.000000 0.000000 0.000000
vn -1.000000 0.000000 0.000000
vn -1.000000 0.000000 0.000000
vn 1.000000 0.000000 0.000000
vn 1.000000 0.000000 0.000000
vn 1.000000 0.000000 0.000000
vn 1.000000 0.000000 0.000000
vn 1.000000 0.000000 0.000000
vn 1.000000 0.000000 0.000000
vn -0.000000 -1.000000 0.000000
vn -0.000000 -1.000000 0.000000
vn -0.000000 -1.000000 0.000000
vn -0.000000 -1.000000 0.000000
vn -0.000000 -1.000000 0.000000
vn -0.000000 -1.000000 0.000000
vn -1.000000 0.000000 0.000000
vn -1.000000 0.000000 0.000000
vn -1.000000 0.000000 0.000000
vn -1.000000 0.000000 0.000000
vn -1.000000 0.000000 0.000000
vn -1.000000 0.000000 0.000000
vn -0.000000 -1.000000 0.000000
vn -0.000000 -1.000000 0.000000
vn -0.000000 -1.000000 0.000000
vn -0.000000 -1.000000 0.000000
vn -0.000000 -1.000000 0.000000
vn -0.000000 -1.000000 0.000000
vn -0.000000 1.000000 0.000000
vn -0.000000 1.000000 0.000000
vn -0.000000 1.000000 0.000000
vn -0.000000 1.000000 0.000000
vn -0.000000 1.000000 0.000000
vn -0.000000 1.000000 0.000000
vn 1.000000 0.000000 0.000000
vn 1.000000 0.000000 0.000000
vn 1.000000 0.000000 0.000000
vn 1.000000 0.000000 0.000000
vn 1.000000 0.000000 0.000000
vn 1.000000 0.000000 0.000000
vn -0.000000 0.000000 -1.000000
vn -0.000000 0.000000 -1.000000
vn -0.000000 0.000000 -1.000000
vn -0.000000 0.000000 -1.000000
vn -0.000000 0.000000 -1.000000
vn -0.000000 0.000000 -1.000000
vn -0.000000 0.000000 -1.000000
vn -0.000000 0.000000 -1.000000
vn -0.000000 0.000000 -1.000000
vn -0.000000 0.000000 -1.000000
vn -0.000000 0.000000 -1.000000
vn -0.000000 0.000000 -1.000000
vn -0.000000 -0.000000 -1.000000
vn -0.000000 -0.000000 -1.000000
vn -0.000000 -0.000000 -1.000000
vn -0.000000 0.000000 -1.000000
vn -0.000000 0.000000 -1.000000
vn -0.000000 0.000000 -1.000000
vn -0.000000 0.000000 -1.000000
vn -0.000000 0.000000 -1.000000
vn -0.000000 0.000000 -1.000000
vn -0.000000 0.000000 -1.000000
vn -0.000000 0.000000 -1.000000
vn -0.000000 0.000000 -1.000000
vn -0.000000 -0.000001 1.000000
vn -0.000000 -0.000001 1.000000
vn -0.000000 -0.000001 1.000000
vn -0.000000 0.000001 1.000000
vn -0.000000 0.000001 1.000000
vn -0.000000 0.000001 1.000000
vn -0.000000 0.000000 1.000000
vn -0.000000 0.000000 1.000000
vn -0.000000 0.000000 1.000000
vn -0.000000 0.000000 1.000000
vn -0.000000 0.000000 1.000000
vn -0.000000 0.000000 1.000000
vn -0.000000 0.000001 1.000000
vn -0.000000 0.000001 1.000000
vn -0.000000 0.000001 1.000000
vn -0.000000 -0.000001 1.000000
vn -0.000000 -0.000001 1.000000
vn -0.000000 -0.000001 1.000000
vn -0.000000 0.000000 1.000000
vn -0.000000 0.000000 1.000000
vn -0.000000 0.000000 1.000000
vn -0.000000 0.000000 1.000000
vn -0.000000 0.000000 1.000000
vn -0.000000 0.000000 1.000000
vn 1.000000 0.000000 0.000000
vn 1.000000 0.000000 0.000000
vn 1.000000 0.000000 0.000000
vn 1.000000 0.000000 0.000000
vn 1.000000 0.000000 0.000000
vn 1.000000 0.000000 0.000000
vn -0.000000 1.000000 0.000000
vn -0.000000 1.000000 0.000000
vn -0.000000 1.000000 0.000000
vn -0.000000 1.000000 0.000000
vn -0.000000 1.000000 0.000000
vn -0.000000 1.000000 0.000000
vn -0.000000 -1.000000 0.000000
vn -0.000000 -1.000000 0.000000
vn -0.000000 -1.000000 0.000000
vn -0.000000 -1.000000 0.000000
vn -0.000000 -1.000000 0.000000
vn -0.000000 -1.000000 0.000000
vn -1.000000 0.000000 0.000000
vn -1.000000 0.000000 0.000000
vn -1.000000 0.000000 0.000000
vn -1.000000 0.000000 0.000000
vn -1.000000 0.000000 0.000000
vn -1.000000 0.000000 0.000000
vn -0.000000 -1.000000 0.000002
vn -0.000000 -1.000000 0.000002
vn -0.000000 -1.000000 0.000002
vn -0.000001 -1.000000 0.000000
vn -0.000001 -1.000000 0.000000
vn -0.000001 -1.000000 0.000000
vn 1.000000 -0.000000 0.000000
vn 1.000000 -0.000000 0.000000
vn 1.000000 -0.000000 0.000000
vn 1.000000 0.000000 0.000000
vn 1.000000 0.000000 0.000000
vn 1.000000 0.000000 0.000000
vn -0.000000 1.000000 0.000000
vn -0.000000 1.000000 0.000000
vn -0.000000 1.000000 0.000000
vn -0.000000 1.000000 0.000000
vn -0.000000 1.000000 0.000000
vn -0.000000 1.000000 0.000000
vn -1.000000 0.000000 0.000000
vn -1.000000 0.000000 0.000000
vn -1.000000 0.000000 0.000000
vn -1.000000 0.000000 0.000000
vn -1.000000 0.000000 0.000000
vn -1.000000 0.000000 0.000000
vn -0.000000 0.000000 -1.000000
vn -0.000000 0.000000 -1.000000
vn -0.000000 0.000000 -1.000000
vn -0.000000 0.000000 -1.000000
vn -0.000000 0.000000 -1.000000
vn -0.000000 0.000000 -1.000000
vn 1.000000 0.000000 0.000000
vn 1.000000 0.000000 0.000000
vn 1.000000 0.000000 0.000000
vn 1.000000 0.000000 0.000000
vn 1.000000 0.000000 0.000000
vn 1.000000 0.000000 0.000000
vn -1.000000 0.000000 0.000000
vn -1.000000 0.000000 0.000000
vn -1.000000 0.000000 0.000000
vn -1.000000 0.000000 0.000000
vn -1.000000 0.000000 0.000000
vn -1.000000 0.000000 0.000000
vn -0.000000 -1.000000 0.000000
vn -0.000000 -1.000000 0.000000
vn -0.000000 -1.000000 0.000000
vn -0.000000 -1.000000 0.000000
vn -0.000000 -1.000000 0.000000
vn -0.000000 -1.000000 0.000000
vn -0.000000 1.000000 0.000000
vn -0.000000 1.000000 0.000000
vn -0.000000 1.000000 0.000000
vn -0.000000 1.000000 0.000000
vn -0.000000 1.000000 0.000000
vn -0.000000 1.000000 0.000000
vn -0.000000 0.000000 1.000000
vn -0.000000 0.000000 1.000000
vn -0.000000 0.000000 1.000000
vn -0.000000 0.000000 1.000000
vn -0.000000 0.000000 1.000000
vn -0.000000 0.000000 1.000000
vn -0.000000 0.000000 -1.000000
vn -0.000000 0.000000 -1.000000
vn -0.000000 0.000000 -1.000000
vn -0.000000 0.000000 -1.000000
vn -0.000000 0.000000 -1.000000
vn -0.000000 0.000000 -1.000000
vn 1.000000 0.000000 0.000000
vn 1.000000 0.000000 0.000000
vn 1.000000 0.000000 0.000000
vn 1.000000 0.000000 0.000000
vn 1.000000 0.000000 0.000000
vn 1.000000 0.000000 0.000000
vn -0.000000 1.000000 0.000000
vn -0.000000 1.000000 0.000000
vn -0.000000 1.000000 0.000000
vn -0.000000 1.000000 0.000000
vn -0.000000 1.000000 0.000000
vn -0.000000 1.000000 0.000000
vn -1.000000 0.000000 0.000000
vn -1.000000 0.000000 0.000000
vn -1.000000 0.000000 0.000000
vn -1.000000 0.000000 0.000000
vn -1.000000 0.000000 0.000000
vn -1.000000 0.000000 0.000000
vn -0.000000 -1.000000 0.000000
vn -0.000000 -1.000000 0.000000
vn -0.000000 -1.000000 0.000000
vn -0.000000 -1.000000 0.000000
vn -0.000000 -1.000000 0.000000
vn -0.000000 -1.000000 0.000000
vn -0.000000 0.000000 -1.000000
vn -0.000000 0.000000 -1.000000
vn -0.000000 0.000000 -1.000000
vn -0.000000 0.000000 -1.000000
vn -0.000000 0.000000 -1.000000
vn -0.000000 0.000000 -1.000000

g Material
f 3/1/1 1/2/2 2/3/3
f 4/4/4 1/5/5 3/6/6
f 7/7/7 5/8/8 6/9/9
f 8/10/10 5/11/11 7/12/12
f 11/13/13 9/14/14 10/15/15
f 12/16/16 9/17/17 11/18/18
f 15/19/19 13/20/20 14/21/21
f 16/22/22 13/23/23 15/24/24
f 19/25/25 17/26/26 18/27/27
f 20/28/28 17/29/29 19/30/30
f 23/31/31 21/32/32 22/33/33
f 24/34/34 21/35/35 23/36/36
f 27/37/37 25/38/38 26/39/39
f 28/40/40 25/41/41 27/42/42
f 31/43/43 29/44/44 30/45/45
f 32/46/46 29/47/47 31/48/48
f 35/49/49 33/50/50 34/51/51
f 36/52/52 33/53/53 35/54/54
f 39/55/55 37/56/56 38/57/57
f 40/58/58 37/59/59 39/60/60
f 43/61/61 41/62/62 42/63/63
f 44/64/64 41/65/65 43/66/66
f 47/67/67 45/68/68 46/69/69
f 48/70/70 45/71/71 47/72/72
f 51/73/73 49/74/74 50/75/75
f 52/76/76 49/77/77 51/78/78
f 55/79/79 53/80/80 54/81/81
f 56/82/82 53/83/83 55/84/84
f 59/85/85 57/86/86 58/87/87
f 60/88/88 57/89/89 59/90/90
f 63/91/91 61/92/92 62/93/93
f 64/94/94 61/95/95 63/96/96
f 67/97/97 65/98/98 66/99/99
f 68/100/100 65/101/101 67/102/102
f 71/103/103 69/104/104 70/105/105
f 72/106/106 69/107/107 71/108/108
f 75/109/109 73/110/110 74/111/111
f 76/112/112 73/113/113 75/114/114
f 79/115/115 77/116/116 78/117/117
f 80/118/118 77/119/119 79/120/120
f 87/121/121 85/122/122 86/123/123
f 88/124/124 85/125/125 87/126/126
f 91/127/127 89/128/128 90/129/129
f 92/130/130 89/131/131 91/132/132
f 95/133/133 93/134/134 94/135/135
f 96/136/136 93/137/137 95/138/138
f 99/139/139 97/140/140 98/141/141
f 100/142/142 97/143/143 99/144/144
f 103/145/145 101/146/146 102/147/147
f 104/148/148 101/149/149 103/150/150
f 107/151/151 105/152/152 106/153/153
f 108/154/154 105/155/155 107/156/156
f 111/157/157 109/158/158 110/159/159
f 112/160/160 109/161/161 111/162/162
f 115/163/163 113/164/164 114/165/165
f 116/166/166 113/167/167 115/168/168
f 119/169/169 117/170/170 118/171/171
f 120/172/172 117/173/173 119/174/174
f 123/175/175 121/176/176 122/177/177
f 124/178/178 121/179/179 123/180/180
f 127/181/181 125/182/182 126/183/183
f 128/184/184 125/185/185 127/186/186
f 131/187/187 129/188/188 130/189/189
f 132/190/190 129/191/191 131/192/192
f 135/193/193 133/194/194 134/195/195
f 136/196/196 133/197/197 135/198/198
f 139/199/199 137/200/200 138/201/201
f 140/202/202 137/203/203 139/204/204
f 143/205/205 141/206/206 142/207/207
f 144/208/208 141/209/209 143/210/210

g Material.001
f 83/211/211 81/212/212 82/213/213
f 84/214/214 81/215/215 83/216/216

