# Converted from B3D for Luanti (With Correct Normals)
# Object Name: multidecor_ceiling_fan

v -0.133273 0.993848 0.133273
v 0.000000 0.956152 0.188477
v 0.000000 0.993848 0.188477
v -0.133273 0.956152 0.133273
v 0.000000 0.956152 0.188477
v -0.133273 0.993848 0.133273
v -0.188477 0.993848 -0.000000
v -0.133273 0.956152 0.133273
v -0.133273 0.993848 0.133273
v -0.188477 0.956152 -0.000000
v -0.133273 0.956152 0.133273
v -0.188477 0.993848 -0.000000
v -0.133273 0.993848 -0.133273
v -0.188477 0.956152 -0.000000
v -0.188477 0.993848 -0.000000
v -0.133273 0.956152 -0.133273
v -0.188477 0.956152 -0.000000
v -0.133273 0.993848 -0.133273
v 0.000000 0.993848 -0.188477
v -0.133273 0.956152 -0.133273
v -0.133273 0.993848 -0.133273
v 0.000000 0.956152 -0.188477
v -0.133273 0.956152 -0.133273
v 0.000000 0.993848 -0.188477
v 0.133273 0.993848 -0.133273
v 0.000000 0.956152 -0.188477
v 0.000000 0.993848 -0.188477
v 0.133273 0.956152 -0.133273
v 0.000000 0.956152 -0.188477
v 0.133273 0.993848 -0.133273
v 0.188477 0.993848 0.000000
v 0.133273 0.956152 -0.133273
v 0.133273 0.993848 -0.133273
v 0.188477 0.956152 0.000000
v 0.133273 0.956152 -0.133273
v 0.188477 0.993848 0.000000
v 0.188477 0.993848 0.000000
v -0.188477 0.993848 -0.000000
v 0.000000 0.993848 0.188477
v 0.133273 0.993848 0.133273
v 0.188477 0.956152 0.000000
v 0.188477 0.993848 0.000000
v 0.133273 0.956152 0.133273
v 0.188477 0.956152 0.000000
v 0.133273 0.993848 0.133273
v 0.000000 0.993848 0.188477
v 0.133273 0.956152 0.133273
v 0.133273 0.993848 0.133273
v 0.000000 0.956152 0.188477
v 0.133273 0.956152 0.133273
v 0.000000 0.993848 0.188477
v 0.000000 0.650000 -0.123121
v -0.133273 0.956152 -0.133273
v 0.000000 0.956152 -0.188477
v -0.087060 0.650000 -0.087060
v -0.133273 0.956152 -0.133273
v 0.000000 0.650000 -0.123121
v 0.087060 0.650000 0.087060
v 0.087060 0.650000 -0.087060
v 0.123121 0.650000 0.000000
v 0.087060 0.650000 0.087060
v 0.188477 0.956152 0.000000
v 0.133273 0.956152 0.133273
v 0.123121 0.650000 0.000000
v 0.188477 0.956152 0.000000
v 0.087060 0.650000 0.087060
v -0.123121 0.650000 -0.000000
v -0.133273 0.956152 0.133273
v -0.188477 0.956152 -0.000000
v -0.087060 0.650000 0.087060
v -0.133273 0.956152 0.133273
v -0.123121 0.650000 -0.000000
v 0.087060 0.650000 -0.087060
v 0.000000 0.956152 -0.188477
v 0.133273 0.956152 -0.133273
v 0.000000 0.650000 -0.123121
v 0.000000 0.956152 -0.188477
v 0.087060 0.650000 -0.087060
v 0.000000 0.650000 0.123121
v 0.133273 0.956152 0.133273
v 0.000000 0.956152 0.188477
v 0.087060 0.650000 0.087060
v 0.133273 0.956152 0.133273
v 0.000000 0.650000 0.123121
v -0.087060 0.650000 0.087060
v 0.000000 0.956152 0.188477
v -0.133273 0.956152 0.133273
v 0.000000 0.650000 0.123121
v 0.000000 0.956152 0.188477
v -0.087060 0.650000 0.087060
v -0.087060 0.650000 -0.087060
v -0.188477 0.956152 -0.000000
v -0.133273 0.956152 -0.133273
v -0.123121 0.650000 -0.000000
v -0.188477 0.956152 -0.000000
v -0.087060 0.650000 -0.087060
v 0.123121 0.650000 0.000000
v 0.133273 0.956152 -0.133273
v 0.188477 0.956152 0.000000
v 0.087060 0.650000 -0.087060
v 0.133273 0.956152 -0.133273
v 0.123121 0.650000 0.000000
v -0.087060 0.650000 0.087060
v 0.087060 0.650000 0.087060
v 0.000000 0.650000 0.123121
v 0.087060 0.650000 0.087060
v -0.087060 0.650000 0.087060
v -0.123121 0.650000 -0.000000
v 0.087060 0.650000 0.087060
v -0.123121 0.650000 -0.000000
v -0.087060 0.650000 -0.087060
v 0.087060 0.650000 0.087060
v -0.087060 0.650000 -0.087060
v 0.000000 0.650000 -0.123121
v 0.087060 0.650000 0.087060
v 0.000000 0.650000 -0.123121
v 0.087060 0.650000 -0.087060
v 0.000000 0.993848 0.188477
v -0.188477 0.993848 -0.000000
v -0.133273 0.993848 0.133273
v 0.188477 0.993848 0.000000
v 0.000000 0.993848 0.188477
v 0.133273 0.993848 0.133273
v 0.000000 0.993848 -0.188477
v 0.188477 0.993848 0.000000
v 0.133273 0.993848 -0.133273
v 0.188477 0.993848 0.000000
v 0.000000 0.993848 -0.188477
v -0.133273 0.993848 -0.133273
v 0.188477 0.993848 0.000000
v -0.133273 0.993848 -0.133273
v -0.188477 0.993848 -0.000000
v 0.022500 0.650000 0.022500
v 0.022500 0.200000 -0.022500
v 0.022500 0.650000 -0.022500
v 0.022500 0.200000 0.022500
v 0.022500 0.200000 -0.022500
v 0.022500 0.650000 0.022500
v -0.022500 0.650000 0.022500
v 0.022500 0.200000 0.022500
v 0.022500 0.650000 0.022500
v -0.022500 0.200000 0.022500
v 0.022500 0.200000 0.022500
v -0.022500 0.650000 0.022500
v -0.022500 0.650000 -0.022500
v -0.022500 0.200000 0.022500
v -0.022500 0.650000 0.022500
v -0.022500 0.200000 -0.022500
v -0.022500 0.200000 0.022500
v -0.022500 0.650000 -0.022500
v 0.022500 0.650000 -0.022500
v -0.022500 0.200000 -0.022500
v -0.022500 0.650000 -0.022500
v 0.022500 0.200000 -0.022500
v -0.022500 0.200000 -0.022500
v 0.022500 0.650000 -0.022500
v -0.070711 0.200000 0.070711
v 0.000000 0.050000 0.142073
v 0.000000 0.200000 0.100000
v -0.100460 0.050000 0.100460
v 0.000000 0.050000 0.142073
v -0.070711 0.200000 0.070711
v -0.100000 0.200000 -0.000000
v -0.100460 0.050000 0.100460
v -0.070711 0.200000 0.070711
v -0.142073 0.050000 -0.000000
v -0.100460 0.050000 0.100460
v -0.100000 0.200000 -0.000000
v -0.070711 0.200000 -0.070711
v -0.142073 0.050000 -0.000000
v -0.100000 0.200000 -0.000000
v -0.100460 0.050000 -0.100460
v -0.142073 0.050000 -0.000000
v -0.070711 0.200000 -0.070711
v 0.000000 0.200000 -0.100000
v -0.100460 0.050000 -0.100460
v -0.070711 0.200000 -0.070711
v 0.000000 0.050000 -0.142073
v -0.100460 0.050000 -0.100460
v 0.000000 0.200000 -0.100000
v 0.070711 0.200000 -0.070711
v 0.000000 0.050000 -0.142073
v 0.000000 0.200000 -0.100000
v 0.100461 0.050000 -0.100460
v 0.000000 0.050000 -0.142073
v 0.070711 0.200000 -0.070711
v 0.100000 0.200000 0.000000
v 0.100461 0.050000 -0.100460
v 0.070711 0.200000 -0.070711
v 0.142073 0.050000 0.000000
v 0.100461 0.050000 -0.100460
v 0.100000 0.200000 0.000000
v -0.100000 0.200000 -0.000000
v 0.000000 0.200000 -0.100000
v -0.070711 0.200000 -0.070711
v 0.070711 0.200000 0.070711
v 0.142073 0.050000 0.000000
v 0.100000 0.200000 0.000000
v 0.100461 0.050000 0.100460
v 0.142073 0.050000 0.000000
v 0.070711 0.200000 0.070711
v 0.000000 0.200000 0.100000
v 0.100461 0.050000 0.100460
v 0.070711 0.200000 0.070711
v 0.000000 0.050000 0.142073
v 0.100461 0.050000 0.100460
v 0.000000 0.200000 0.100000
v 0.000000 0.200000 0.100000
v -0.100000 0.200000 -0.000000
v -0.070711 0.200000 0.070711
v -0.100000 0.200000 -0.000000
v 0.000000 0.200000 0.100000
v 0.070711 0.200000 0.070711
v -0.100000 0.200000 -0.000000
v 0.070711 0.200000 0.070711
v 0.100000 0.200000 0.000000
v -0.100000 0.200000 -0.000000
v 0.100000 0.200000 0.000000
v 0.070711 0.200000 -0.070711
v -0.100000 0.200000 -0.000000
v 0.070711 0.200000 -0.070711
v 0.000000 0.200000 -0.100000

vt 0.246948 0.547794
vt 0.246948 0.639037
vt 0.223105 0.547794
vt 0.246948 0.639037
vt 0.223105 0.639037
vt 0.223105 0.547794
vt 0.246948 0.639037
vt 0.246948 0.730280
vt 0.223105 0.639037
vt 0.246948 0.730280
vt 0.223105 0.730280
vt 0.223105 0.639037
vt 0.246948 0.000337
vt 0.246948 0.091580
vt 0.223105 0.000337
vt 0.246948 0.091580
vt 0.223105 0.091580
vt 0.223105 0.000337
vt 0.246948 0.091580
vt 0.246948 0.182822
vt 0.223105 0.091580
vt 0.246948 0.182822
vt 0.223105 0.182822
vt 0.223105 0.091580
vt 0.246948 0.182822
vt 0.246948 0.274065
vt 0.223105 0.182822
vt 0.246948 0.274065
vt 0.223105 0.274065
vt 0.223105 0.182822
vt 0.246948 0.274065
vt 0.246948 0.365308
vt 0.223105 0.274065
vt 0.246948 0.365308
vt 0.223105 0.365308
vt 0.223105 0.274065
vt 0.381034 0.935145
vt 0.445552 0.779383
vt 0.536795 0.999663
vt 0.246948 0.365308
vt 0.246948 0.456551
vt 0.223105 0.365308
vt 0.246948 0.456551
vt 0.223105 0.456551
vt 0.223105 0.365308
vt 0.246948 0.456551
vt 0.246948 0.547794
vt 0.223105 0.456551
vt 0.246948 0.547794
vt 0.223105 0.547794
vt 0.223105 0.456551
vt 0.197714 0.182822
vt 0.000338 0.167003
vt 0.197714 0.091580
vt 0.000338 0.167003
vt 0.000338 0.107399
vt 0.197714 0.091580
vt 0.264377 0.681872
vt 0.222231 0.639726
vt 0.323981 0.681872
vt 0.197714 0.456551
vt 0.000337 0.440732
vt 0.197714 0.365308
vt 0.000337 0.440732
vt 0.000337 0.381128
vt 0.197714 0.365308
vt 0.197714 0.730280
vt 0.000337 0.714461
vt 0.197714 0.639037
vt 0.000337 0.714461
vt 0.000337 0.654857
vt 0.197714 0.639037
vt 0.197714 0.274065
vt 0.000337 0.258246
vt 0.197714 0.182822
vt 0.000337 0.258246
vt 0.000337 0.198642
vt 0.197714 0.182822
vt 0.197714 0.547794
vt 0.000337 0.531974
vt 0.197714 0.456551
vt 0.000337 0.531974
vt 0.000337 0.472371
vt 0.197714 0.456551
vt 0.197714 0.639037
vt 0.000337 0.623218
vt 0.197714 0.547794
vt 0.000337 0.623218
vt 0.000337 0.563614
vt 0.197714 0.547794
vt 0.197714 0.091580
vt 0.000338 0.075760
vt 0.197714 0.000337
vt 0.000338 0.075760
vt 0.000338 0.016156
vt 0.197714 0.000337
vt 0.197714 0.365308
vt 0.000337 0.349489
vt 0.197714 0.274065
vt 0.000337 0.349489
vt 0.000337 0.289885
vt 0.197714 0.274065
vt 0.222231 0.580122
vt 0.264377 0.537976
vt 0.222231 0.639726
vt 0.323981 0.537976
vt 0.222231 0.639726
vt 0.264377 0.537976
vt 0.366127 0.580122
vt 0.222231 0.639726
vt 0.323981 0.537976
vt 0.366127 0.639726
vt 0.222231 0.639726
vt 0.366127 0.580122
vt 0.323981 0.681872
vt 0.222231 0.639726
vt 0.366127 0.639726
vt 0.445552 0.999663
vt 0.381034 0.935145
vt 0.536795 0.999663
vt 0.381034 0.843902
vt 0.445552 0.779383
vt 0.381034 0.935145
vt 0.536795 0.779383
vt 0.601314 0.843902
vt 0.445552 0.779383
vt 0.601314 0.935145
vt 0.445552 0.779383
vt 0.601314 0.843902
vt 0.536795 0.999663
vt 0.445552 0.779383
vt 0.601314 0.935145
vt 0.698639 0.895932
vt 0.698639 0.867469
vt 0.983271 0.895932
vt 0.698639 0.867469
vt 0.983271 0.867469
vt 0.983271 0.895932
vt 0.698639 0.867469
vt 0.698639 0.839005
vt 0.983271 0.867469
vt 0.698639 0.839005
vt 0.983271 0.839006
vt 0.983271 0.867469
vt 0.698639 0.839005
vt 0.698639 0.810542
vt 0.983271 0.839006
vt 0.698639 0.810542
vt 0.983271 0.810542
vt 0.983271 0.839006
vt 0.698639 0.924395
vt 0.698639 0.895932
vt 0.983271 0.924395
vt 0.698639 0.895932
vt 0.983271 0.895932
vt 0.983271 0.924395
vt 0.899116 0.079973
vt 0.899116 0.128383
vt 0.801105 0.069789
vt 0.899116 0.128383
vt 0.801105 0.138567
vt 0.801105 0.069789
vt 0.899116 0.357781
vt 0.899116 0.406192
vt 0.801105 0.347597
vt 0.899116 0.406192
vt 0.801105 0.416375
vt 0.801105 0.347597
vt 0.801105 0.475644
vt 0.801105 0.427233
vt 0.899116 0.485827
vt 0.801105 0.427233
vt 0.899116 0.417049
vt 0.899116 0.485827
vt 0.249253 0.858687
vt 0.249253 0.810277
vt 0.347264 0.868871
vt 0.249253 0.810277
vt 0.347264 0.800093
vt 0.347264 0.868871
vt 0.801105 0.058931
vt 0.801105 0.010521
vt 0.899116 0.069115
vt 0.801105 0.010521
vt 0.899116 0.000337
vt 0.899116 0.069115
vt 0.801105 0.267287
vt 0.801105 0.218877
vt 0.899116 0.277471
vt 0.801105 0.218877
vt 0.899116 0.208693
vt 0.899116 0.277471
vt 0.249253 0.716777
vt 0.283485 0.682545
vt 0.249253 0.765188
vt 0.801105 0.336740
vt 0.801105 0.288329
vt 0.899116 0.346923
vt 0.801105 0.288329
vt 0.899116 0.278145
vt 0.899116 0.346923
vt 0.801105 0.197836
vt 0.801105 0.149425
vt 0.899116 0.208019
vt 0.801105 0.149425
vt 0.899116 0.139241
vt 0.899116 0.208019
vt 0.331895 0.682545
vt 0.366127 0.716777
vt 0.283485 0.682545
vt 0.366127 0.765188
vt 0.283485 0.682545
vt 0.366127 0.716777
vt 0.331895 0.799419
vt 0.283485 0.682545
vt 0.366127 0.765188
vt 0.283485 0.799419
vt 0.283485 0.682545
vt 0.331895 0.799419
vt 0.249253 0.765188
vt 0.283485 0.682545
vt 0.283485 0.799419

vn -0.382682 0.000000 0.923880
vn -0.382682 0.000000 0.923880
vn -0.382682 0.000000 0.923880
vn -0.382685 0.000000 0.923879
vn -0.382685 0.000000 0.923879
vn -0.382685 0.000000 0.923879
vn -0.923879 0.000000 0.382684
vn -0.923879 0.000000 0.382684
vn -0.923879 0.000000 0.382684
vn -0.923880 0.000000 0.382682
vn -0.923880 0.000000 0.382682
vn -0.923880 0.000000 0.382682
vn -0.923879 0.000000 -0.382684
vn -0.923879 0.000000 -0.382684
vn -0.923879 0.000000 -0.382684
vn -0.923880 0.000000 -0.382682
vn -0.923880 0.000000 -0.382682
vn -0.923880 0.000000 -0.382682
vn -0.382682 0.000000 -0.923880
vn -0.382682 0.000000 -0.923880
vn -0.382682 0.000000 -0.923880
vn -0.382685 0.000000 -0.923879
vn -0.382685 0.000000 -0.923879
vn -0.382685 0.000000 -0.923879
vn 0.382684 0.000000 -0.923880
vn 0.382684 0.000000 -0.923880
vn 0.382684 0.000000 -0.923880
vn 0.382684 0.000000 -0.923880
vn 0.382684 0.000000 -0.923880
vn 0.382684 0.000000 -0.923880
vn 0.923879 0.000000 -0.382684
vn 0.923879 0.000000 -0.382684
vn 0.923879 0.000000 -0.382684
vn 0.923880 0.000000 -0.382682
vn 0.923880 0.000000 -0.382682
vn 0.923880 0.000000 -0.382682
vn 0.000000 1.000000 0.000000
vn 0.000000 1.000000 0.000000
vn 0.000000 1.000000 0.000000
vn 0.923879 0.000000 0.382684
vn 0.923879 0.000000 0.382684
vn 0.923879 0.000000 0.382684
vn 0.923880 0.000000 0.382682
vn 0.923880 0.000000 0.382682
vn 0.923880 0.000000 0.382682
vn 0.382683 0.000000 0.923880
vn 0.382683 0.000000 0.923880
vn 0.382683 0.000000 0.923880
vn 0.382684 0.000000 0.923880
vn 0.382684 0.000000 0.923880
vn 0.382684 0.000000 0.923880
vn -0.375451 -0.193498 -0.906419
vn -0.375451 -0.193498 -0.906419
vn -0.375451 -0.193498 -0.906419
vn -0.375451 -0.193498 -0.906419
vn -0.375451 -0.193498 -0.906419
vn -0.375451 -0.193498 -0.906419
vn -0.000000 -1.000000 0.000000
vn -0.000000 -1.000000 0.000000
vn -0.000000 -1.000000 0.000000
vn 0.906419 -0.193498 0.375451
vn 0.906419 -0.193498 0.375451
vn 0.906419 -0.193498 0.375451
vn 0.906419 -0.193498 0.375451
vn 0.906419 -0.193498 0.375451
vn 0.906419 -0.193498 0.375451
vn -0.906419 -0.193498 0.375451
vn -0.906419 -0.193498 0.375451
vn -0.906419 -0.193498 0.375451
vn -0.906419 -0.193498 0.375451
vn -0.906419 -0.193498 0.375451
vn -0.906419 -0.193498 0.375451
vn 0.375451 -0.193498 -0.906419
vn 0.375451 -0.193498 -0.906419
vn 0.375451 -0.193498 -0.906419
vn 0.375451 -0.193498 -0.906419
vn 0.375451 -0.193498 -0.906419
vn 0.375451 -0.193498 -0.906419
vn 0.375451 -0.193498 0.906419
vn 0.375451 -0.193498 0.906419
vn 0.375451 -0.193498 0.906419
vn 0.375451 -0.193498 0.906419
vn 0.375451 -0.193498 0.906419
vn 0.375451 -0.193498 0.906419
vn -0.375451 -0.193498 0.906419
vn -0.375451 -0.193498 0.906419
vn -0.375451 -0.193498 0.906419
vn -0.375451 -0.193498 0.906419
vn -0.375451 -0.193498 0.906419
vn -0.375451 -0.193498 0.906419
vn -0.906419 -0.193498 -0.375451
vn -0.906419 -0.193498 -0.375451
vn -0.906419 -0.193498 -0.375451
vn -0.906419 -0.193498 -0.375451
vn -0.906419 -0.193498 -0.375451
vn -0.906419 -0.193498 -0.375451
vn 0.906419 -0.193498 -0.375451
vn 0.906419 -0.193498 -0.375451
vn 0.906419 -0.193498 -0.375451
vn 0.906419 -0.193498 -0.375451
vn 0.906419 -0.193498 -0.375451
vn 0.906419 -0.193498 -0.375451
vn -0.000000 -1.000000 0.000000
vn -0.000000 -1.000000 0.000000
vn -0.000000 -1.000000 0.000000
vn -0.000000 -1.000000 0.000000
vn -0.000000 -1.000000 0.000000
vn -0.000000 -1.000000 0.000000
vn -0.000000 -1.000000 0.000000
vn -0.000000 -1.000000 0.000000
vn -0.000000 -1.000000 0.000000
vn -0.000000 -1.000000 0.000000
vn -0.000000 -1.000000 0.000000
vn -0.000000 -1.000000 0.000000
vn -0.000000 -1.000000 0.000000
vn -0.000000 -1.000000 0.000000
vn -0.000000 -1.000000 0.000000
vn 0.000002 1.000000 0.000000
vn 0.000002 1.000000 0.000000
vn 0.000002 1.000000 0.000000
vn -0.000002 1.000000 0.000000
vn -0.000002 1.000000 0.000000
vn -0.000002 1.000000 0.000000
vn -0.000002 1.000000 0.000000
vn -0.000002 1.000000 0.000000
vn -0.000002 1.000000 0.000000
vn 0.000001 1.000000 0.000000
vn 0.000001 1.000000 0.000000
vn 0.000001 1.000000 0.000000
vn -0.000000 1.000000 0.000000
vn -0.000000 1.000000 0.000000
vn -0.000000 1.000000 0.000000
vn 1.000000 0.000000 0.000000
vn 1.000000 0.000000 0.000000
vn 1.000000 0.000000 0.000000
vn 1.000000 0.000000 0.000000
vn 1.000000 0.000000 0.000000
vn 1.000000 0.000000 0.000000
vn -0.000000 0.000000 1.000000
vn -0.000000 0.000000 1.000000
vn -0.000000 0.000000 1.000000
vn -0.000000 0.000000 1.000000
vn -0.000000 0.000000 1.000000
vn -0.000000 0.000000 1.000000
vn -1.000000 0.000000 0.000000
vn -1.000000 0.000000 0.000000
vn -1.000000 0.000000 0.000000
vn -1.000000 0.000000 0.000000
vn -1.000000 0.000000 0.000000
vn -1.000000 0.000000 0.000000
vn -0.000000 0.000000 -1.000000
vn -0.000000 0.000000 -1.000000
vn -0.000000 0.000000 -1.000000
vn -0.000000 0.000000 -1.000000
vn -0.000000 0.000000 -1.000000
vn -0.000000 0.000000 -1.000000
vn -0.370448 0.250848 0.894340
vn -0.370448 0.250848 0.894340
vn -0.370448 0.250848 0.894340
vn -0.370448 0.250848 0.894340
vn -0.370448 0.250848 0.894340
vn -0.370448 0.250848 0.894340
vn -0.894340 0.250848 0.370448
vn -0.894340 0.250848 0.370448
vn -0.894340 0.250848 0.370448
vn -0.894340 0.250848 0.370448
vn -0.894340 0.250848 0.370448
vn -0.894340 0.250848 0.370448
vn -0.894340 0.250848 -0.370448
vn -0.894340 0.250848 -0.370448
vn -0.894340 0.250848 -0.370448
vn -0.894340 0.250848 -0.370448
vn -0.894340 0.250848 -0.370448
vn -0.894340 0.250848 -0.370448
vn -0.370448 0.250848 -0.894340
vn -0.370448 0.250848 -0.894340
vn -0.370448 0.250848 -0.894340
vn -0.370448 0.250848 -0.894340
vn -0.370448 0.250848 -0.894340
vn -0.370448 0.250848 -0.894340
vn 0.370448 0.250848 -0.894340
vn 0.370448 0.250848 -0.894340
vn 0.370448 0.250848 -0.894340
vn 0.370448 0.250848 -0.894340
vn 0.370448 0.250848 -0.894340
vn 0.370448 0.250848 -0.894340
vn 0.894340 0.250848 -0.370448
vn 0.894340 0.250848 -0.370448
vn 0.894340 0.250848 -0.370448
vn 0.894340 0.250848 -0.370448
vn 0.894340 0.250848 -0.370448
vn 0.894340 0.250848 -0.370448
vn 0.000001 1.000000 0.000000
vn 0.000001 1.000000 0.000000
vn 0.000001 1.000000 0.000000
vn 0.894340 0.250848 0.370448
vn 0.894340 0.250848 0.370448
vn 0.894340 0.250848 0.370448
vn 0.894340 0.250848 0.370448
vn 0.894340 0.250848 0.370448
vn 0.894340 0.250848 0.370448
vn 0.370448 0.250848 0.894340
vn 0.370448 0.250848 0.894340
vn 0.370448 0.250848 0.894340
vn 0.370448 0.250848 0.894340
vn 0.370448 0.250848 0.894340
vn 0.370448 0.250848 0.894340
vn -0.000000 1.000000 0.000000
vn -0.000000 1.000000 0.000000
vn -0.000000 1.000000 0.000000
vn -0.000000 1.000000 0.000000
vn -0.000000 1.000000 0.000000
vn -0.000000 1.000000 0.000000
vn 0.000000 1.000000 0.000000
vn 0.000000 1.000000 0.000000
vn 0.000000 1.000000 0.000000
vn 0.000000 1.000000 0.000000
vn 0.000000 1.000000 0.000000
vn 0.000000 1.000000 0.000000
vn -0.000000 1.000000 0.000000
vn -0.000000 1.000000 0.000000
vn -0.000000 1.000000 0.000000

g Material.002
f 3/1/1 1/2/2 2/3/3
f 6/4/4 4/5/5 5/6/6
f 9/7/7 7/8/8 8/9/9
f 12/10/10 10/11/11 11/12/12
f 15/13/13 13/14/14 14/15/15
f 18/16/16 16/17/17 17/18/18
f 21/19/19 19/20/20 20/21/21
f 24/22/22 22/23/23 23/24/24
f 27/25/25 25/26/26 26/27/27
f 30/28/28 28/29/29 29/30/30
f 33/31/31 31/32/32 32/33/33
f 36/34/34 34/35/35 35/36/36
f 39/37/37 37/38/38 38/39/39
f 42/40/40 40/41/41 41/42/42
f 45/43/43 43/44/44 44/45/45
f 48/46/46 46/47/47 47/48/48
f 51/49/49 49/50/50 50/51/51
f 54/52/52 52/53/53 53/54/54
f 57/55/55 55/56/56 56/57/57
f 60/58/58 58/59/59 59/60/60
f 63/61/61 61/62/62 62/63/63
f 66/64/64 64/65/65 65/66/66
f 69/67/67 67/68/68 68/69/69
f 72/70/70 70/71/71 71/72/72
f 75/73/73 73/74/74 74/75/75
f 78/76/76 76/77/77 77/78/78
f 81/79/79 79/80/80 80/81/81
f 84/82/82 82/83/83 83/84/84
f 87/85/85 85/86/86 86/87/87
f 90/88/88 88/89/89 89/90/90
f 93/91/91 91/92/92 92/93/93
f 96/94/94 94/95/95 95/96/96
f 99/97/97 97/98/98 98/99/99
f 102/100/100 100/101/101 101/102/102
f 105/103/103 103/104/104 104/105/105
f 108/106/106 106/107/107 107/108/108
f 111/109/109 109/110/110 110/111/111
f 114/112/112 112/113/113 113/114/114
f 117/115/115 115/116/116 116/117/117
f 120/118/118 118/119/119 119/120/120
f 123/121/121 121/122/122 122/123/123
f 126/124/124 124/125/125 125/126/126
f 129/127/127 127/128/128 128/129/129
f 132/130/130 130/131/131 131/132/132
f 135/133/133 133/134/134 134/135/135
f 138/136/136 136/137/137 137/138/138
f 141/139/139 139/140/140 140/141/141
f 144/142/142 142/143/143 143/144/144
f 147/145/145 145/146/146 146/147/147
f 150/148/148 148/149/149 149/150/150
f 153/151/151 151/152/152 152/153/153
f 156/154/154 154/155/155 155/156/156
f 159/157/157 157/158/158 158/159/159
f 162/160/160 160/161/161 161/162/162
f 165/163/163 163/164/164 164/165/165
f 168/166/166 166/167/167 167/168/168
f 171/169/169 169/170/170 170/171/171
f 174/172/172 172/173/173 173/174/174
f 177/175/175 175/176/176 176/177/177
f 180/178/178 178/179/179 179/180/180
f 183/181/181 181/182/182 182/183/183
f 186/184/184 184/185/185 185/186/186
f 189/187/187 187/188/188 188/189/189
f 192/190/190 190/191/191 191/192/192
f 195/193/193 193/194/194 194/195/195
f 198/196/196 196/197/197 197/198/198
f 201/199/199 199/200/200 200/201/201
f 204/202/202 202/203/203 203/204/204
f 207/205/205 205/206/206 206/207/207
f 210/208/208 208/209/209 209/210/210
f 213/211/211 211/212/212 212/213/213
f 216/214/214 214/215/215 215/216/216
f 219/217/217 217/218/218 218/219/219
f 222/220/220 220/221/221 221/222/222

