# Converted from B3D for Luanti (With Correct Normals)
# Object Name: multidecor_louvers_medium

v 0.900000 -1.086603 0.050000
v 0.900000 -0.913397 -0.050000
v -0.900000 -0.913397 -0.050000
v -0.900000 -1.086603 0.050000
v 0.900000 -0.886603 0.050000
v 0.900000 -0.713397 -0.050000
v -0.900000 -0.713397 -0.050000
v -0.900000 -0.886603 0.050000
v 0.900000 -0.686603 0.050000
v 0.900000 -0.513397 -0.050000
v -0.900000 -0.513397 -0.050000
v -0.900000 -0.686603 0.050000
v 0.900000 -0.486603 0.050000
v 0.900000 -0.313397 -0.050000
v -0.900000 -0.313397 -0.050000
v -0.900000 -0.486603 0.050000
v 0.900000 -0.286603 0.050000
v 0.900000 -0.113397 -0.050000
v -0.900000 -0.113397 -0.050000
v -0.900000 -0.286603 0.050000
v 0.900000 -0.086603 0.050000
v 0.900000 0.086603 -0.050000
v -0.900000 0.086603 -0.050000
v -0.900000 -0.086603 0.050000
v 0.900000 0.113397 0.050000
v 0.900000 0.286603 -0.050000
v -0.900000 0.286603 -0.050000
v -0.900000 0.113397 0.050000
v 0.900000 0.313397 0.050000
v 0.900000 0.486603 -0.050000
v -0.900000 0.486603 -0.050000
v -0.900000 0.313397 0.050000
v 0.490000 -1.000000 -0.100000
v 0.490000 1.000000 -0.100000
v 0.510000 1.000000 -0.100000
v 0.510000 -1.000000 -0.100000
v 0.900000 0.913397 0.050000
v 0.900000 1.086602 -0.050000
v -0.900000 1.086602 -0.050000
v -0.900000 0.913397 0.050000
v 0.900000 0.713397 0.050000
v 0.900000 0.886603 -0.050000
v -0.900000 0.886603 -0.050000
v -0.900000 0.713397 0.050000
v 0.490000 -1.000000 0.100000
v 0.510000 -1.000000 0.100000
v 0.510000 -1.000000 0.100000
v 0.490000 -1.000000 0.100000
v 0.490000 -1.000000 0.100000
v 0.510000 -1.000000 0.100000
v 0.510000 1.000000 0.100000
v 0.490000 1.000000 0.100000
v -0.510000 -1.000000 -0.100000
v -0.510000 1.000000 -0.100000
v -0.490000 1.000000 -0.100000
v -0.490000 -1.000000 -0.100000
v 0.900000 0.513397 0.050000
v 0.900000 0.686603 -0.050000
v -0.900000 0.686603 -0.050000
v -0.900000 0.513397 0.050000
v -0.510000 -1.000000 0.100000
v -0.490000 -1.000000 0.100000
v -0.490000 1.000000 0.100000
v -0.510000 1.000000 0.100000

vt 0.566864 0.616274
vt 0.500269 0.016918
vt 0.566864 0.016918
vt 0.500269 0.616274
vt 0.500269 0.016918
vt 0.566864 0.616274
vt 0.834069 0.563877
vt 0.841938 0.000269
vt 0.841938 0.563844
vt 0.834069 0.000302
vt 0.841938 0.000269
vt 0.834069 0.563877
vt 0.824799 0.077440
vt 0.817099 0.077273
vt 0.824799 0.077305
vt 0.817098 0.077407
vt 0.817099 0.077273
vt 0.824799 0.077440
vt 0.825205 0.628937
vt 0.817098 0.077407
vt 0.824799 0.077440
vt 0.817505 0.628905
vt 0.817098 0.077407
vt 0.825205 0.628937
vt 0.842476 0.563877
vt 0.850345 0.000269
vt 0.850345 0.563844
vt 0.842476 0.000302
vt 0.850345 0.000269
vt 0.842476 0.563877
vt 0.825662 -0.112448
vt 0.833531 0.451173
vt 0.825662 0.451134
vt 0.833531 -0.112409
vt 0.833531 0.451173
vt 0.825662 -0.112448
vt 0.000269 0.799946
vt 0.599623 0.866542
vt 0.599623 0.799946
vt 0.000269 0.866541
vt 0.599623 0.866542
vt 0.000269 0.799946
vt 0.567402 0.599623
vt 0.633997 0.000269
vt 0.567402 0.000269
vt 0.633997 0.599623
vt 0.633997 0.000269
vt 0.567402 0.599623
vt 0.701668 0.599623
vt 0.768263 0.000269
vt 0.701668 0.000269
vt 0.768263 0.599623
vt 0.768263 0.000269
vt 0.701668 0.599623
vt 0.634535 0.599623
vt 0.701130 0.000269
vt 0.634535 0.000269
vt 0.701130 0.599623
vt 0.701130 0.000269
vt 0.634535 0.599623
vt 0.400377 0.700594
vt 0.999731 0.767189
vt 0.999731 0.700594
vt 0.400377 0.767189
vt 0.999731 0.767189
vt 0.400377 0.700594
vt 0.400377 0.633461
vt 0.999731 0.700056
vt 0.999731 0.633461
vt 0.400377 0.700056
vt 0.999731 0.700056
vt 0.400377 0.633461
vt 0.000269 0.867079
vt 0.599623 0.933675
vt 0.599623 0.867079
vt 0.000269 0.933674
vt 0.599623 0.933675
vt 0.000269 0.867079
vt 0.000269 0.867079
vt 0.599623 0.933675
vt 0.599623 0.867079
vt 0.000269 0.933674
vt 0.599623 0.933675
vt 0.000269 0.867079
vt 0.000269 0.867079
vt 0.599623 0.933675
vt 0.599623 0.867079
vt 0.000269 0.933674
vt 0.599623 0.933675
vt 0.000269 0.867079
vt 0.000269 0.867079
vt 0.599623 0.933675
vt 0.599623 0.867079
vt 0.000269 0.933674
vt 0.599623 0.933675
vt 0.000269 0.867079

vn -0.000000 0.500000 0.866025
vn -0.000000 0.500000 0.866025
vn -0.000000 0.500000 0.866025
vn -0.000000 0.500000 0.866025
vn -0.000000 0.500000 0.866025
vn -0.000000 0.500000 0.866025
vn -0.000000 0.000000 -1.000000
vn -0.000000 0.000000 -1.000000
vn -0.000000 0.000000 -1.000000
vn -0.000000 0.000000 -1.000000
vn -0.000000 0.000000 -1.000000
vn -0.000000 0.000000 -1.000000
vn -0.000000 1.000000 0.000000
vn -0.000000 1.000000 0.000000
vn -0.000000 1.000000 0.000000
vn -0.000000 1.000000 0.000000
vn -0.000000 1.000000 0.000000
vn -0.000000 1.000000 0.000000
vn -0.000000 0.000000 1.000000
vn -0.000000 0.000000 1.000000
vn -0.000000 0.000000 1.000000
vn -0.000000 0.000000 1.000000
vn -0.000000 0.000000 1.000000
vn -0.000000 0.000000 1.000000
vn -0.000000 0.000000 -1.000000
vn -0.000000 0.000000 -1.000000
vn -0.000000 0.000000 -1.000000
vn -0.000000 0.000000 -1.000000
vn -0.000000 0.000000 -1.000000
vn -0.000000 0.000000 -1.000000
vn -0.000000 0.000000 1.000000
vn -0.000000 0.000000 1.000000
vn -0.000000 0.000000 1.000000
vn -0.000000 0.000000 1.000000
vn -0.000000 0.000000 1.000000
vn -0.000000 0.000000 1.000000
vn -0.000000 0.500000 0.866025
vn -0.000000 0.500000 0.866025
vn -0.000000 0.500000 0.866025
vn -0.000000 0.500000 0.866025
vn -0.000000 0.500000 0.866025
vn -0.000000 0.500000 0.866025
vn -0.000000 0.500000 0.866025
vn -0.000000 0.500000 0.866025
vn -0.000000 0.500000 0.866025
vn -0.000000 0.500000 0.866025
vn -0.000000 0.500000 0.866025
vn -0.000000 0.500000 0.866025
vn -0.000000 0.500000 0.866025
vn -0.000000 0.500000 0.866025
vn -0.000000 0.500000 0.866025
vn -0.000000 0.500000 0.866025
vn -0.000000 0.500000 0.866025
vn -0.000000 0.500000 0.866025
vn -0.000000 0.500000 0.866025
vn -0.000000 0.500000 0.866025
vn -0.000000 0.500000 0.866025
vn -0.000000 0.500000 0.866025
vn -0.000000 0.500000 0.866025
vn -0.000000 0.500000 0.866025
vn -0.000000 0.500000 0.866025
vn -0.000000 0.500000 0.866025
vn -0.000000 0.500000 0.866025
vn -0.000000 0.500000 0.866025
vn -0.000000 0.500000 0.866025
vn -0.000000 0.500000 0.866025
vn -0.000000 0.500000 0.866025
vn -0.000000 0.500000 0.866025
vn -0.000000 0.500000 0.866025
vn -0.000000 0.500000 0.866025
vn -0.000000 0.500000 0.866025
vn -0.000000 0.500000 0.866025
vn -0.000000 0.500000 0.866025
vn -0.000000 0.500000 0.866025
vn -0.000000 0.500000 0.866025
vn -0.000000 0.500000 0.866025
vn -0.000000 0.500000 0.866025
vn -0.000000 0.500000 0.866025
vn -0.000000 0.500000 0.866025
vn -0.000000 0.500000 0.866025
vn -0.000000 0.500000 0.866025
vn -0.000000 0.500000 0.866025
vn -0.000000 0.500000 0.866025
vn -0.000000 0.500000 0.866025
vn -0.000000 0.500000 0.866025
vn -0.000000 0.500000 0.866025
vn -0.000000 0.500000 0.866025
vn -0.000000 0.500000 0.866025
vn -0.000000 0.500000 0.866025
vn -0.000000 0.500000 0.866025
vn -0.000000 0.500000 0.866025
vn -0.000000 0.500000 0.866025
vn -0.000000 0.500000 0.866025
vn -0.000000 0.500000 0.866025
vn -0.000000 0.500000 0.866025
vn -0.000000 0.500000 0.866025

g Material
f 3/1/1 1/2/2 2/3/3
f 4/4/4 1/5/5 3/6/6
f 35/7/7 33/8/8 34/9/9
f 36/10/10 33/11/11 35/12/12
f 47/13/13 45/14/14 46/15/15
f 48/16/16 45/17/17 47/18/18
f 51/19/19 49/20/20 50/21/21
f 52/22/22 49/23/23 51/24/24
f 55/25/25 53/26/26 54/27/27
f 56/28/28 53/29/29 55/30/30
f 63/31/31 61/32/32 62/33/33
f 64/34/34 61/35/35 63/36/36

g Material.001
f 7/37/37 5/38/38 6/39/39
f 8/40/40 5/41/41 7/42/42
f 11/43/43 9/44/44 10/45/45
f 12/46/46 9/47/47 11/48/48
f 15/49/49 13/50/50 14/51/51
f 16/52/52 13/53/53 15/54/54
f 19/55/55 17/56/56 18/57/57
f 20/58/58 17/59/59 19/60/60
f 23/61/61 21/62/62 22/63/63
f 24/64/64 21/65/65 23/66/66
f 27/67/67 25/68/68 26/69/69
f 28/70/70 25/71/71 27/72/72
f 31/73/73 29/74/74 30/75/75
f 32/76/76 29/77/77 31/78/78
f 39/79/79 37/80/80 38/81/81
f 40/82/82 37/83/83 39/84/84
f 43/85/85 41/86/86 42/87/87
f 44/88/88 41/89/89 43/90/90
f 59/91/91 57/92/92 58/93/93
f 60/94/94 57/95/95 59/96/96

