# Converted from B3D for Luanti (With Correct Normals)
# Object Name: multidecor_slatted_ceiling

v -1.000000 1.000000 1.000000
v 1.000000 1.000000 1.000000
v 1.000000 1.000000 -1.000000
v -1.000000 1.000000 -1.000000
v -1.000000 0.700000 -1.000000
v -1.000000 1.000000 -1.000000
v 1.000000 1.000000 -1.000000
v 1.000000 0.700000 -1.000000
v 1.000000 0.700000 -1.000000
v 1.000000 1.000000 -1.000000
v 1.000000 1.000000 1.000000
v 1.000000 0.700000 1.000000
v 1.000000 0.700000 1.000000
v -1.000000 0.700000 1.000000
v -1.000000 0.700000 -1.000000
v 1.000000 0.700000 -1.000000
v -1.000000 0.700000 1.000000
v -1.000000 1.000000 1.000000
v -1.000000 1.000000 -1.000000
v -1.000000 0.700000 -1.000000
v 1.000000 0.700000 1.000000
v 1.000000 1.000000 1.000000
v -1.000000 1.000000 1.000000
v -1.000000 0.700000 1.000000

vt 0.000000 1.156250
vt 1.000000 2.156250
vt 0.000000 2.156250
vt 1.000000 1.156250
vt 1.000000 2.156250
vt 0.000000 1.156250
vt 0.000000 1.156250
vt 1.000000 1.000000
vt 1.000000 1.156250
vt 0.000000 1.000000
vt 1.000000 1.000000
vt 0.000000 1.156250
vt -0.156250 0.000000
vt 0.000000 1.000000
vt -0.156250 1.000000
vt 0.000000 0.000000
vt 0.000000 1.000000
vt -0.156250 0.000000
vt 1.000000 1.000000
vt 0.000000 0.000000
vt 1.000000 0.000000
vt 0.000000 1.000000
vt 0.000000 0.000000
vt 1.000000 1.000000
vt 1.156250 1.000000
vt 1.000000 0.000000
vt 1.156250 0.000000
vt 1.000000 1.000000
vt 1.000000 0.000000
vt 1.156250 1.000000
vt 1.000000 -0.156250
vt 0.000000 0.000000
vt 0.000000 -0.156250
vt 1.000000 0.000000
vt 0.000000 0.000000
vt 1.000000 -0.156250

vn -0.000000 1.000000 0.000000
vn -0.000000 1.000000 0.000000
vn -0.000000 1.000000 0.000000
vn -0.000000 1.000000 0.000000
vn -0.000000 1.000000 0.000000
vn -0.000000 1.000000 0.000000
vn -0.000000 0.000000 -1.000000
vn -0.000000 0.000000 -1.000000
vn -0.000000 0.000000 -1.000000
vn -0.000000 0.000000 -1.000000
vn -0.000000 0.000000 -1.000000
vn -0.000000 0.000000 -1.000000
vn 1.000000 0.000000 0.000000
vn 1.000000 0.000000 0.000000
vn 1.000000 0.000000 0.000000
vn 1.000000 0.000000 0.000000
vn 1.000000 0.000000 0.000000
vn 1.000000 0.000000 0.000000
vn -0.000000 -1.000000 0.000000
vn -0.000000 -1.000000 0.000000
vn -0.000000 -1.000000 0.000000
vn -0.000000 -1.000000 0.000000
vn -0.000000 -1.000000 0.000000
vn -0.000000 -1.000000 0.000000
vn -1.000000 0.000000 0.000000
vn -1.000000 0.000000 0.000000
vn -1.000000 0.000000 0.000000
vn -1.000000 0.000000 0.000000
vn -1.000000 0.000000 0.000000
vn -1.000000 0.000000 0.000000
vn -0.000000 0.000000 1.000000
vn -0.000000 0.000000 1.000000
vn -0.000000 0.000000 1.000000
vn -0.000000 0.000000 1.000000
vn -0.000000 0.000000 1.000000
vn -0.000000 0.000000 1.000000

g Material
f 3/1/1 1/2/2 2/3/3
f 4/4/4 1/5/5 3/6/6
f 7/7/7 5/8/8 6/9/9
f 8/10/10 5/11/11 7/12/12
f 11/13/13 9/14/14 10/15/15
f 12/16/16 9/17/17 11/18/18
f 15/19/19 13/20/20 14/21/21
f 16/22/22 13/23/23 15/24/24
f 19/25/25 17/26/26 18/27/27
f 20/28/28 17/29/29 19/30/30
f 23/31/31 21/32/32 22/33/33
f 24/34/34 21/35/35 23/36/36

