# Blender v3.0.0 OBJ File: 'multidecor_kitchen_modern_wooden_table.blend'
# www.blender.org
o Cube
v 1.100000 1.250000 -1.100000
v 1.100000 1.000000 -1.100000
v 1.100000 1.250000 1.100000
v 1.100000 1.000000 1.100000
v -1.100000 1.250000 -1.100000
v -1.100000 1.000000 -1.100000
v -1.100000 1.250000 1.100000
v -1.100000 1.000000 1.100000
v 0.750000 -1.000000 -0.750000
v 0.750000 1.000000 -0.750000
v 0.750000 -1.000000 -1.000000
v 0.750000 1.000000 -1.000000
v 1.000000 -1.000000 -0.750000
v 1.000000 1.000000 -0.750000
v 1.000000 -1.000000 -1.000000
v 1.000000 1.000000 -1.000000
v -0.750000 -1.000000 -0.750000
v -0.750000 1.000000 -0.750000
v -1.000000 -1.000000 -0.750000
v -1.000000 1.000000 -0.750000
v -0.750000 -1.000000 -1.000000
v -0.750000 1.000000 -1.000000
v -1.000000 -1.000000 -1.000000
v -1.000000 1.000000 -1.000000
v -0.750000 -1.000000 0.750000
v -0.750000 1.000000 0.750000
v -0.750000 -1.000000 1.000000
v -0.750000 1.000000 1.000000
v -1.000000 -1.000000 0.750000
v -1.000000 1.000000 0.750000
v -1.000000 -1.000000 1.000000
v -1.000000 1.000000 1.000000
v 0.750000 -1.000000 0.750000
v 0.750000 1.000000 0.750000
v 1.000000 -1.000000 0.750000
v 1.000000 1.000000 0.750000
v 0.750000 -1.000000 1.000000
v 0.750000 1.000000 1.000000
v 1.000000 -1.000000 1.000000
v 1.000000 1.000000 1.000000
v -0.750000 0.212866 -0.803259
v -0.750000 0.356348 -0.803259
v -0.750000 0.212866 -0.946741
v -0.750000 0.356348 -0.946741
v 0.750000 0.212866 -0.803259
v 0.750000 0.356348 -0.803259
v 0.750000 0.212866 -0.946741
v 0.750000 0.356348 -0.946741
v -0.803259 0.212866 0.750000
v -0.803259 0.356348 0.750000
v -0.946741 0.212866 0.750000
v -0.946741 0.356348 0.750000
v -0.803259 0.212866 -0.750000
v -0.803259 0.356348 -0.750000
v -0.946741 0.212866 -0.750000
v -0.946741 0.356348 -0.750000
v 0.750000 0.212866 0.803259
v 0.750000 0.356348 0.803259
v 0.750000 0.212866 0.946741
v 0.750000 0.356348 0.946741
v -0.750000 0.212866 0.803259
v -0.750000 0.356348 0.803259
v -0.750000 0.212866 0.946741
v -0.750000 0.356348 0.946741
v 0.803259 0.212866 -0.750000
v 0.803259 0.356348 -0.750000
v 0.946741 0.212866 -0.750000
v 0.946741 0.356348 -0.750000
v 0.803259 0.212866 0.750000
v 0.803259 0.356348 0.750000
v 0.946741 0.212866 0.750000
v 0.946741 0.356348 0.750000
vt 0.042908 0.418395
vt 0.042908 0.042908
vt 0.418395 0.042908
vt 0.418395 0.418395
vt 0.461064 0.418395
vt 0.461064 0.042908
vt 0.418395 0.000239
vt 0.042908 0.000239
vt 0.836551 0.042908
vt 0.836551 0.418395
vt 0.042908 0.461064
vt 0.418395 0.461064
vt 0.000239 0.042908
vt 0.000239 0.418395
vt 0.085577 0.461542
vt 0.085577 0.802894
vt 0.042908 0.802894
vt 0.042908 0.461542
vt 0.000239 0.802894
vt 0.000239 0.461542
vt 0.170915 0.461542
vt 0.170915 0.802894
vt 0.128246 0.802894
vt 0.128246 0.461542
vt 0.684377 0.760703
vt 0.684377 0.718034
vt 0.727046 0.718034
vt 0.727046 0.760703
vt 0.085577 0.461542
vt 0.085577 0.802894
vt 0.042908 0.802894
vt 0.042908 0.461542
vt 0.000239 0.802894
vt 0.000239 0.461542
vt 0.170915 0.461542
vt 0.170915 0.802894
vt 0.128246 0.802894
vt 0.128246 0.461542
vt 0.813340 0.718034
vt 0.813340 0.760703
vt 0.770671 0.760703
vt 0.770671 0.718034
vt 0.085577 0.461542
vt 0.085577 0.802894
vt 0.042908 0.802894
vt 0.042908 0.461542
vt 0.000239 0.802894
vt 0.000239 0.461542
vt 0.170915 0.461542
vt 0.170915 0.802894
vt 0.128246 0.802894
vt 0.128246 0.461542
vt 0.727524 0.760703
vt 0.727524 0.718034
vt 0.770193 0.718034
vt 0.770193 0.760703
vt 0.085577 0.461542
vt 0.085577 0.802894
vt 0.042908 0.802894
vt 0.042908 0.461542
vt 0.000239 0.802894
vt 0.000239 0.461542
vt 0.170915 0.461542
vt 0.170915 0.802894
vt 0.128246 0.802894
vt 0.128246 0.461542
vt 0.813340 0.803850
vt 0.770671 0.803850
vt 0.770671 0.761181
vt 0.813340 0.761181
vt 0.733355 0.717556
vt 0.708866 0.717556
vt 0.708866 0.461542
vt 0.733355 0.461542
vt 0.757844 0.461542
vt 0.782333 0.461542
vt 0.782333 0.717556
vt 0.757844 0.717556
vt 0.684377 0.717556
vt 0.684377 0.461542
vt 0.733355 0.461542
vt 0.757844 0.461542
vt 0.757844 0.717556
vt 0.733355 0.717556
vt 0.708866 0.717556
vt 0.684377 0.717556
vt 0.684377 0.461542
vt 0.708866 0.461542
vt 0.782333 0.461542
vt 0.782333 0.717556
vt 0.757844 0.461542
vt 0.782333 0.461542
vt 0.782333 0.717556
vt 0.757844 0.717556
vt 0.733355 0.717556
vt 0.708866 0.717556
vt 0.708866 0.461542
vt 0.733355 0.461542
vt 0.684377 0.717556
vt 0.684377 0.461542
vt 0.733355 0.461542
vt 0.757844 0.461542
vt 0.757844 0.717556
vt 0.733355 0.717556
vt 0.708866 0.717556
vt 0.684377 0.717556
vt 0.684377 0.461542
vt 0.708866 0.461542
vt 0.782333 0.461542
vt 0.782333 0.717556
vn 0.0000 1.0000 0.0000
vn 0.0000 0.0000 1.0000
vn -1.0000 0.0000 0.0000
vn 0.0000 -1.0000 0.0000
vn 1.0000 0.0000 0.0000
vn 0.0000 0.0000 -1.0000
s off
f 1/1/1 5/2/1 7/3/1 3/4/1
f 4/5/2 3/4/2 7/3/2 8/6/2
f 8/7/3 7/3/3 5/2/3 6/8/3
f 6/9/4 2/10/4 4/5/4 8/6/4
f 2/11/5 1/1/5 3/4/5 4/12/5
f 6/13/6 5/2/6 1/1/6 2/14/6
f 9/15/3 10/16/3 12/17/3 11/18/3
f 11/18/6 12/17/6 16/19/6 15/20/6
f 15/21/5 16/22/5 14/23/5 13/24/5
f 13/24/2 14/23/2 10/16/2 9/15/2
f 11/25/4 15/26/4 13/27/4 9/28/4
f 17/29/2 18/30/2 20/31/2 19/32/2
f 19/32/3 20/31/3 24/33/3 23/34/3
f 23/35/6 24/36/6 22/37/6 21/38/6
f 21/38/5 22/37/5 18/30/5 17/29/5
f 19/39/4 23/40/4 21/41/4 17/42/4
f 25/43/5 26/44/5 28/45/5 27/46/5
f 27/46/2 28/45/2 32/47/2 31/48/2
f 31/49/3 32/50/3 30/51/3 29/52/3
f 29/52/6 30/51/6 26/44/6 25/43/6
f 27/53/4 31/54/4 29/55/4 25/56/4
f 33/57/6 34/58/6 36/59/6 35/60/6
f 35/60/5 36/59/5 40/61/5 39/62/5
f 39/63/2 40/64/2 38/65/2 37/66/2
f 37/66/3 38/65/3 34/58/3 33/57/3
f 35/67/4 39/68/4 37/69/4 33/70/4
f 43/71/6 44/72/6 48/73/6 47/74/6
f 45/75/2 46/76/2 42/77/2 41/78/2
f 43/71/4 47/74/4 45/75/4 41/78/4
f 48/73/1 44/72/1 42/79/1 46/80/1
f 51/81/3 52/82/3 56/83/3 55/84/3
f 53/85/5 54/86/5 50/87/5 49/88/5
f 51/81/4 55/84/4 53/85/4 49/88/4
f 56/83/1 52/82/1 50/89/1 54/90/1
f 59/91/2 60/92/2 64/93/2 63/94/2
f 61/95/6 62/96/6 58/97/6 57/98/6
f 59/91/4 63/94/4 61/95/4 57/98/4
f 64/99/1 60/100/1 58/97/1 62/96/1
f 67/101/5 68/102/5 72/103/5 71/104/5
f 69/105/3 70/106/3 66/107/3 65/108/3
f 67/101/4 71/104/4 69/105/4 65/108/4
f 72/103/1 68/102/1 66/109/1 70/110/1
