# Blender 5.2.0 LTS
# www.blender.org
o Cylinder.001
v 0.160683 -0.025000 -0.125000
v 0.212460 -0.025000 0.000000
v 0.212460 -0.100000 0.000000
v 0.002638 -0.025000 -0.209822
v 0.002638 0.050000 -0.209822
v 0.151005 0.050000 -0.148367
v 0.151005 -0.025000 -0.148367
v 0.202105 -0.025000 0.025000
v 0.151005 -0.025000 0.148367
v 0.151005 -0.100000 0.148367
v 0.212460 0.050000 0.000000
v 0.212460 -0.025000 0.000000
v 0.160683 -0.025000 -0.125000
v 0.033126 -0.025000 0.197194
v 0.002638 -0.025000 0.209822
v 0.002638 -0.100000 0.209822
v 0.151005 0.050000 0.148367
v 0.151005 -0.025000 0.148367
v 0.202105 -0.025000 0.025000
v -0.118420 -0.025000 0.159678
v -0.145729 -0.025000 0.148367
v -0.145729 -0.100000 0.148367
v 0.002638 0.050000 0.209822
v 0.002638 -0.025000 0.209822
v 0.033126 -0.025000 0.197194
v -0.145729 -0.100000 0.148367
v -0.145729 -0.025000 0.148367
v -0.207184 -0.025000 -0.000000
v -0.207184 -0.100000 -0.000000
v -0.145729 0.050000 0.148367
v -0.145729 -0.025000 0.148367
v -0.118420 -0.025000 0.159678
v -0.179829 -0.025000 -0.066042
v -0.145729 -0.025000 -0.148367
v -0.145729 -0.100000 -0.148367
v -0.145729 -0.025000 0.148367
v -0.145729 0.050000 0.148367
v -0.207184 0.050000 -0.000000
v -0.207184 -0.025000 -0.000000
v -0.207184 0.050000 -0.000000
v 0.002638 0.050000 0.209822
v 0.212460 0.050000 0.000000
v -0.071904 -0.025000 -0.179110
v 0.002638 -0.025000 -0.209822
v 0.002638 -0.100000 -0.209822
v -0.145729 0.050000 -0.148367
v -0.145729 -0.025000 -0.148367
v -0.179829 -0.025000 -0.066042
v 0.002638 -0.100000 -0.209822
v 0.002638 -0.025000 -0.209822
v 0.151005 -0.025000 -0.148367
v 0.151005 -0.100000 -0.148367
v 0.002638 0.050000 -0.209822
v 0.002638 -0.025000 -0.209822
v -0.071904 -0.025000 -0.179110
v -0.145729 -0.100000 -0.148367
v 0.151005 -0.100000 -0.148367
v 0.151005 -0.100000 0.148367
v -0.098864 -0.025000 -0.225806
v -0.036896 -0.025000 -0.318474
v -0.187139 -0.025000 -0.578704
v -0.187139 -0.025000 -0.578704
v -0.403646 -0.025000 -0.453704
v -0.098864 -0.025000 -0.225806
v -0.403646 -0.025000 -0.453704
v -0.228767 -0.025000 -0.150806
v -0.098864 -0.025000 -0.225806
v -0.574086 -0.025000 -0.789815
v -0.554296 -0.025000 -0.714638
v -0.337790 -0.025000 -0.839638
v -0.554296 -0.025000 -0.714638
v -0.403646 -0.025000 -0.453704
v -0.337790 -0.025000 -0.839638
v -0.403646 -0.025000 -0.453704
v -0.187139 -0.025000 -0.578704
v -0.337790 -0.025000 -0.839638
v -0.337790 -0.025000 -0.839638
v -0.387790 -0.025000 -0.926241
v -0.574086 -0.025000 -0.789815
v 0.212460 0.050000 0.000000
v 0.151005 0.050000 -0.148367
v 0.002638 0.050000 -0.209822
v 0.002638 0.050000 -0.209822
v -0.145729 0.050000 -0.148367
v 0.212460 0.050000 0.000000
v -0.145729 0.050000 -0.148367
v -0.207184 0.050000 -0.000000
v 0.212460 0.050000 0.000000
v -0.207184 0.050000 -0.000000
v -0.145729 0.050000 0.148367
v 0.002638 0.050000 0.209822
v 0.002638 0.050000 0.209822
v 0.151005 0.050000 0.148367
v 0.212460 0.050000 0.000000
v -0.145729 -0.100000 -0.148367
v 0.002638 -0.100000 -0.209822
v 0.151005 -0.100000 -0.148367
v 0.151005 -0.100000 -0.148367
v 0.212460 -0.100000 0.000000
v 0.151005 -0.100000 0.148367
v 0.151005 -0.100000 0.148367
v 0.002638 -0.100000 0.209822
v -0.145729 -0.100000 -0.148367
v 0.002638 -0.100000 0.209822
v -0.145729 -0.100000 0.148367
v -0.145729 -0.100000 -0.148367
v -0.145729 -0.100000 0.148367
v -0.207184 -0.100000 -0.000000
v -0.145729 -0.100000 -0.148367
v -0.387790 -0.025000 -0.926241
v -0.540658 -0.025000 -0.837983
v -0.574086 -0.025000 -0.789815
v -0.098864 -0.025000 -0.225806
v -0.228767 -0.025000 -0.150806
v -0.145729 -0.025000 -0.148367
v -0.228767 -0.025000 -0.150806
v -0.179829 -0.025000 -0.066042
v -0.145729 -0.025000 -0.148367
v -0.142165 -0.025000 0.200806
v -0.253402 -0.025000 0.193474
v -0.403646 -0.025000 0.453704
v -0.403646 -0.025000 0.453704
v -0.187139 -0.025000 0.578704
v -0.142165 -0.025000 0.200806
v -0.187139 -0.025000 0.578704
v -0.012261 -0.025000 0.275806
v -0.142165 -0.025000 0.200806
v -0.393000 -0.025000 0.894365
v -0.337790 -0.025000 0.839638
v -0.554296 -0.025000 0.714638
v -0.337790 -0.025000 0.839638
v -0.187139 -0.025000 0.578704
v -0.554296 -0.025000 0.714638
v -0.187139 -0.025000 0.578704
v -0.403646 -0.025000 0.453704
v -0.554296 -0.025000 0.714638
v -0.554296 -0.025000 0.714638
v -0.604296 -0.025000 0.801241
v -0.393000 -0.025000 0.894365
v -0.142165 -0.025000 0.200806
v -0.012261 -0.025000 0.275806
v 0.002638 -0.025000 0.209822
v -0.012261 -0.025000 0.275806
v 0.033126 -0.025000 0.197194
v 0.002638 -0.025000 0.209822
v 0.248942 -0.025000 0.025000
v 0.298212 -0.025000 0.125000
v 0.598699 -0.025000 0.125000
v 0.598699 -0.025000 0.125000
v 0.598699 -0.025000 -0.125000
v 0.248942 -0.025000 0.025000
v 0.598699 -0.025000 -0.125000
v 0.248942 -0.025000 -0.125000
v 0.248942 -0.025000 0.025000
v 0.975000 -0.025000 -0.104550
v 0.900000 -0.025000 -0.125000
v 0.900000 -0.025000 0.125000
v 0.900000 -0.025000 -0.125000
v 0.598699 -0.025000 -0.125000
v 0.900000 -0.025000 0.125000
v 0.598699 -0.025000 -0.125000
v 0.598699 -0.025000 0.125000
v 0.900000 -0.025000 0.125000
v 0.900000 -0.025000 0.125000
v 1.000000 -0.025000 0.125000
v 0.975000 -0.025000 -0.104550
v 1.000000 -0.025000 0.125000
v 1.000000 -0.025000 -0.051517
v 0.975000 -0.025000 -0.104550
v 0.248942 -0.025000 0.025000
v 0.248942 -0.025000 -0.125000
v 0.212460 -0.025000 0.000000
v 0.248942 -0.025000 -0.125000
v 0.160683 -0.025000 -0.125000
v 0.212460 -0.025000 0.000000
v -0.145729 -0.025000 -0.148367
v -0.071904 -0.025000 -0.179110
v -0.098864 -0.025000 -0.225806
v 0.212460 -0.025000 0.000000
v 0.202105 -0.025000 0.025000
v 0.248942 -0.025000 0.025000
v 0.002638 -0.025000 0.209822
v -0.118420 -0.025000 0.159678
v -0.142165 -0.025000 0.200806
v 0.160683 -0.025000 -0.125000
v 0.151005 -0.025000 -0.148367
v 0.151005 0.050000 -0.148367
v 0.151005 0.050000 -0.148367
v 0.212460 0.050000 0.000000
v 0.160683 -0.025000 -0.125000
v 0.202105 -0.025000 0.025000
v 0.212460 -0.025000 0.000000
v 0.212460 0.050000 0.000000
v 0.212460 0.050000 0.000000
v 0.151005 0.050000 0.148367
v 0.202105 -0.025000 0.025000
v 0.033126 -0.025000 0.197194
v 0.151005 -0.025000 0.148367
v 0.151005 0.050000 0.148367
v 0.151005 0.050000 0.148367
v 0.002638 0.050000 0.209822
v 0.033126 -0.025000 0.197194
v -0.118420 -0.025000 0.159678
v 0.002638 -0.025000 0.209822
v 0.002638 0.050000 0.209822
v 0.002638 0.050000 0.209822
v -0.145729 0.050000 0.148367
v -0.118420 -0.025000 0.159678
v -0.179829 -0.025000 -0.066042
v -0.207184 -0.025000 -0.000000
v -0.207184 0.050000 -0.000000
v -0.207184 0.050000 -0.000000
v -0.145729 0.050000 -0.148367
v -0.179829 -0.025000 -0.066042
v -0.071904 -0.025000 -0.179110
v -0.145729 -0.025000 -0.148367
v -0.145729 0.050000 -0.148367
v -0.145729 0.050000 -0.148367
v 0.002638 0.050000 -0.209822
v -0.071904 -0.025000 -0.179110
v 0.212460 -0.100000 0.000000
v 0.151005 -0.100000 -0.148367
v 0.160683 -0.025000 -0.125000
v 0.151005 -0.100000 -0.148367
v 0.151005 -0.025000 -0.148367
v 0.160683 -0.025000 -0.125000
v 0.151005 -0.100000 0.148367
v 0.212460 -0.100000 0.000000
v 0.202105 -0.025000 0.025000
v 0.212460 -0.100000 0.000000
v 0.212460 -0.025000 0.000000
v 0.202105 -0.025000 0.025000
v 0.002638 -0.100000 0.209822
v 0.151005 -0.100000 0.148367
v 0.033126 -0.025000 0.197194
v 0.151005 -0.100000 0.148367
v 0.151005 -0.025000 0.148367
v 0.033126 -0.025000 0.197194
v -0.145729 -0.100000 0.148367
v 0.002638 -0.100000 0.209822
v -0.118420 -0.025000 0.159678
v 0.002638 -0.100000 0.209822
v 0.002638 -0.025000 0.209822
v -0.118420 -0.025000 0.159678
v -0.145729 -0.100000 -0.148367
v -0.207184 -0.100000 -0.000000
v -0.179829 -0.025000 -0.066042
v -0.207184 -0.100000 -0.000000
v -0.207184 -0.025000 -0.000000
v -0.179829 -0.025000 -0.066042
v 0.002638 -0.100000 -0.209822
v -0.145729 -0.100000 -0.148367
v -0.071904 -0.025000 -0.179110
v -0.145729 -0.100000 -0.148367
v -0.145729 -0.025000 -0.148367
v -0.071904 -0.025000 -0.179110
vn 0.9239 -0.0000 -0.3827
vn 0.3827 -0.0000 -0.9239
vn 0.9239 -0.0000 0.3827
vn 0.3827 -0.0000 0.9239
vn -0.3827 -0.0000 0.9239
vn -0.9239 -0.0000 0.3827
vn -0.9239 -0.0000 -0.3827
vn -0.0000 1.0000 -0.0000
vn -0.3809 -0.0000 -0.9246
vn -0.0000 -1.0000 -0.0000
vn -0.3844 -0.0000 -0.9232
vn -0.3827 0.0020 -0.9239
vn -0.3827 -0.0020 -0.9239
vt 0.695546 0.809831
vt 0.742170 0.725809
vt 0.742133 0.809851
vt 0.788763 0.710117
vt 0.742220 0.610365
vt 0.788800 0.610367
vt 0.742177 0.710099
vt 0.691329 0.109337
vt 0.742159 0.018698
vt 0.742189 0.109231
vt 0.788723 0.809869
vt 0.742137 0.809850
vt 0.692266 0.218453
vt 0.742219 0.194928
vt 0.741977 0.219278
vt 0.793049 0.109303
vt 0.696520 0.315691
vt 0.742272 0.296695
vt 0.742290 0.314989
vt 0.792184 0.218417
vt 0.742484 0.219278
vt 0.742291 0.413068
vt 0.696786 0.412983
vt 0.787992 0.315620
vt 0.695930 0.510528
vt 0.742285 0.456748
vt 0.741813 0.510410
vt 0.787840 0.413001
vt 0.554435 0.778709
vt 0.452859 0.533482
vt 0.626261 0.605308
vt 0.695642 0.610324
vt 0.742243 0.560359
vt 0.788600 0.510568
vt 0.742713 0.510410
vt 0.695590 0.710078
vt 0.073393 0.735876
vt 0.174969 0.981102
vt 0.001567 0.909277
vt 0.380360 0.283473
vt 0.317108 0.062246
vt 0.380360 0.093410
vt 0.222231 0.283472
vt 0.222231 0.062246
vt 0.380360 0.474050
vt 0.235166 0.521489
vt 0.222231 0.474050
vt 0.380360 0.537302
vt 0.381034 0.706884
vt 0.452859 0.778709
vt 0.381034 0.605308
vt 0.554435 0.533482
vt 0.626261 0.706884
vt 0.073393 0.981102
vt 0.001567 0.807701
vt 0.174969 0.735876
vt 0.246794 0.807701
vt 0.246794 0.909277
vt 0.268710 0.537302
vt 0.266946 0.034648
vt 0.222231 0.000337
vt 0.539163 0.278979
vt 0.475911 0.057753
vt 0.539163 0.088916
vt 0.381034 0.278979
vt 0.381034 0.057753
vt 0.539163 0.469557
vt 0.393969 0.516996
vt 0.381034 0.469557
vt 0.539163 0.532809
vt 0.393740 0.016896
vt 0.381034 0.000337
vt 0.697966 0.277389
vt 0.634714 0.056162
vt 0.697966 0.087326
vt 0.539836 0.277389
vt 0.539836 0.056162
vt 0.697966 0.467967
vt 0.552772 0.515405
vt 0.539836 0.467967
vt 0.697966 0.531218
vt 0.586316 0.531218
vt 0.618901 0.033086
vt 0.539836 0.000337
vt 0.317108 0.028141
vt 0.634714 0.026537
vt 0.475911 0.027714
vt 0.793049 0.000337
vt 0.742159 0.000337
vt 0.691257 0.000371
vt 0.742147 0.000337
s 0
g Cylinder.001_Material.001
f 3/1/1 1/2/1 2/3/1
f 6/4/2 4/5/2 5/6/2
f 7/7/2 4/5/2 6/4/2
f 10/8/3 8/9/3 9/10/3
f 13/2/1 11/11/1 12/12/1
f 16/13/4 14/14/4 15/15/4
f 19/9/3 17/16/3 18/10/3
f 22/17/5 20/18/5 21/19/5
f 25/14/4 23/20/4 24/21/4
f 28/22/6 26/17/6 27/19/6
f 29/23/6 26/17/6 28/22/6
f 32/18/5 30/24/5 31/19/5
f 35/25/7 33/26/7 34/27/7
f 38/28/6 36/19/6 37/24/6
f 39/22/6 36/19/6 38/28/6
f 42/29/8 40/30/8 41/31/8
f 45/32/9 43/33/9 44/5/9
f 48/26/7 46/34/7 47/35/7
f 51/7/2 49/32/2 50/5/2
f 52/36/2 49/32/2 51/7/2
f 55/33/9 53/6/9 54/5/9
f 58/37/10 56/38/10 57/39/10
f 61/40/8 59/41/8 60/42/8
f 64/41/8 62/40/8 63/43/8
f 67/41/8 65/43/8 66/44/8
f 70/45/8 68/46/8 69/47/8
f 73/45/8 71/47/8 72/43/8
f 76/45/8 74/43/8 75/40/8
f 79/46/8 77/45/8 78/48/8
f 82/49/8 80/29/8 81/50/8
f 85/29/8 83/49/8 84/51/8
f 88/29/8 86/51/8 87/30/8
f 91/31/8 89/30/8 90/52/8
f 94/29/8 92/31/8 93/53/8
f 97/39/10 95/38/10 96/54/10
f 100/37/10 98/39/10 99/55/10
f 103/38/10 101/37/10 102/56/10
f 106/38/10 104/56/10 105/57/10
f 109/38/10 107/57/10 108/58/10
f 112/46/8 110/48/8 111/59/8
f 115/60/8 113/41/8 114/44/8
f 118/60/8 116/44/8 117/61/8
f 121/62/8 119/63/8 120/64/8
f 124/63/8 122/62/8 123/65/8
f 127/63/8 125/65/8 126/66/8
f 130/67/8 128/68/8 129/69/8
f 133/67/8 131/69/8 132/65/8
f 136/67/8 134/65/8 135/62/8
f 139/68/8 137/67/8 138/70/8
f 142/71/8 140/63/8 141/66/8
f 145/71/8 143/66/8 144/72/8
f 148/73/8 146/74/8 147/75/8
f 151/74/8 149/73/8 150/76/8
f 154/74/8 152/76/8 153/77/8
f 157/78/8 155/79/8 156/80/8
f 160/78/8 158/80/8 159/76/8
f 163/78/8 161/76/8 162/73/8
f 166/79/8 164/78/8 165/81/8
f 169/79/8 167/81/8 168/82/8
f 172/83/8 170/74/8 171/77/8
f 175/83/8 173/77/8 174/84/8
f 178/41/8 176/60/8 177/85/8
f 181/74/8 179/83/8 180/86/8
f 184/63/8 182/71/8 183/87/8
f 187/4/1 185/2/1 186/7/1
f 190/2/1 188/4/1 189/11/1
f 193/88/3 191/9/3 192/89/3
f 196/9/3 194/88/3 195/16/3
f 199/16/4 197/14/4 198/10/4
f 202/14/4 200/16/4 201/20/4
f 205/20/5 203/18/5 204/21/5
f 208/18/5 206/20/5 207/24/5
f 211/28/7 209/26/7 210/22/7
f 214/26/7 212/28/7 213/34/7
f 217/34/11 215/33/11 216/35/11
f 220/33/12 218/34/12 219/6/12
f 223/2/1 221/1/1 222/36/1
f 226/2/1 224/36/1 225/7/1
f 229/9/3 227/8/3 228/90/3
f 232/9/3 230/90/3 231/91/3
f 235/14/4 233/13/4 234/8/4
f 238/14/4 236/8/4 237/10/4
f 241/18/5 239/17/5 240/13/5
f 244/18/5 242/13/5 243/15/5
f 247/26/7 245/25/7 246/23/7
f 250/26/7 248/23/7 249/22/7
f 253/33/13 251/32/13 252/25/13
f 256/33/11 254/25/11 255/27/11
