# Converted from B3D for Luanti (With Correct Normals)
# Object Name: multidecor_bathroom_wall_cabinet

v -1.000000 -0.900000 -0.200000
v -1.000000 -0.900000 1.000000
v 1.000000 -0.900000 1.000000
v 1.000000 -0.900000 -0.200000
v 1.000000 -1.000000 -0.200000
v 1.000000 -0.900000 -0.200000
v 1.000000 -0.900000 1.000000
v 1.000000 -1.000000 1.000000
v 1.000000 -1.000000 1.000000
v 1.000000 -0.900000 1.000000
v -1.000000 -0.900000 1.000000
v -1.000000 -1.000000 1.000000
v -1.000000 -1.000000 1.000000
v -1.000000 -1.000000 -0.200000
v 1.000000 -1.000000 -0.200000
v 1.000000 -1.000000 1.000000
v -1.000000 -1.000000 -0.200000
v -1.000000 -0.900000 -0.200000
v 1.000000 -0.900000 -0.200000
v 1.000000 -1.000000 -0.200000
v -1.000000 -1.000000 1.000000
v -1.000000 -0.900000 1.000000
v -1.000000 -0.900000 -0.200000
v -1.000000 -1.000000 -0.200000
v 1.000000 0.900000 -0.200000
v 1.000000 0.900000 1.000000
v 1.000000 -0.900000 1.000000
v 1.000000 -0.900000 -0.200000
v -1.000000 0.900000 1.000000
v -1.000000 0.900000 -0.200000
v 1.000000 0.900000 -0.200000
v 1.000000 0.900000 1.000000
v 0.900000 -0.900000 1.000000
v 1.000000 -0.900000 1.000000
v 1.000000 0.900000 1.000000
v 0.900000 0.900000 1.000000
v 0.900000 0.900000 1.000000
v 0.900000 0.900000 -0.200000
v 0.900000 -0.900000 -0.200000
v 0.900000 -0.900000 1.000000
v 0.900000 0.900000 -0.200000
v 1.000000 0.900000 -0.200000
v 1.000000 -0.900000 -0.200000
v 0.900000 -0.900000 -0.200000
v 1.000000 0.900000 -0.200000
v 1.000000 1.000000 -0.200000
v 1.000000 1.000000 1.000000
v 1.000000 0.900000 1.000000
v -0.900000 0.900000 -0.200000
v -0.900000 0.900000 1.000000
v -0.900000 -0.900000 1.000000
v -0.900000 -0.900000 -0.200000
v 1.000000 0.900000 1.000000
v 1.000000 1.000000 1.000000
v -1.000000 1.000000 1.000000
v -1.000000 0.900000 1.000000
v -1.000000 -0.900000 1.000000
v -0.900000 -0.900000 1.000000
v -0.900000 0.900000 1.000000
v -1.000000 0.900000 1.000000
v -1.000000 0.900000 1.000000
v -1.000000 0.900000 -0.200000
v -1.000000 -0.900000 -0.200000
v -1.000000 -0.900000 1.000000
v -1.000000 0.900000 -0.200000
v -0.900000 0.900000 -0.200000
v -0.900000 -0.900000 -0.200000
v -1.000000 -0.900000 -0.200000
v -1.000000 1.000000 -0.200000
v -1.000000 1.000000 1.000000
v 1.000000 1.000000 1.000000
v 1.000000 1.000000 -0.200000
v 0.900000 0.900000 1.000000
v -0.900000 0.900000 1.000000
v -0.900000 -0.900000 1.000000
v 0.900000 -0.900000 1.000000
v -0.900000 0.900000 0.900000
v 0.900000 0.900000 0.900000
v 0.900000 -0.900000 0.900000
v -0.900000 -0.900000 0.900000
v -1.000000 0.900000 1.000000
v -1.000000 1.000000 1.000000
v -1.000000 1.000000 -0.200000
v -1.000000 0.900000 -0.200000
v -1.000000 0.900000 -0.200000
v -1.000000 1.000000 -0.200000
v 1.000000 1.000000 -0.200000
v 1.000000 0.900000 -0.200000
v 0.900000 -0.050000 0.900000
v -0.900000 -0.050000 0.899999
v -0.900000 -0.050000 -0.200000
v 0.900000 -0.050000 -0.200000
v 0.900000 0.050000 0.900000
v 0.900000 0.050000 -0.200000
v -0.900000 0.050000 -0.200000
v -0.900000 0.050000 0.899999
v 0.900000 -0.050000 -0.200000
v -0.900000 -0.050000 -0.200000
v -0.900000 0.050000 -0.200000
v 0.900000 0.050000 -0.200000

vt 0.206290 0.333086
vt 0.016097 0.016097
vt 0.206290 0.016097
vt 0.016097 0.333086
vt 0.016097 0.016097
vt 0.206290 0.333086
vt 0.206290 0.333086
vt 0.016097 0.348936
vt 0.016097 0.333086
vt 0.206290 0.348936
vt 0.016097 0.348936
vt 0.206290 0.333086
vt 0.206290 0.016097
vt 0.222140 0.333086
vt 0.206290 0.333086
vt 0.222140 0.016097
vt 0.222140 0.333086
vt 0.206290 0.016097
vt 0.412334 0.333086
vt 0.222140 0.016097
vt 0.412334 0.016097
vt 0.222140 0.333086
vt 0.222140 0.016097
vt 0.412334 0.333086
vt 0.016097 0.333086
vt 0.000247 0.016097
vt 0.016097 0.016097
vt 0.000247 0.333086
vt 0.000247 0.016097
vt 0.016097 0.333086
vt 0.016097 0.016097
vt 0.206290 0.000247
vt 0.206290 0.016097
vt 0.016097 0.000247
vt 0.206290 0.000247
vt 0.016097 0.016097
vt 0.618871 0.286032
vt 0.809065 0.571323
vt 0.618871 0.571323
vt 0.809065 0.286032
vt 0.809065 0.571323
vt 0.618871 0.286032
vt 0.000247 0.365280
vt 0.190441 0.682269
vt 0.000247 0.682269
vt 0.190441 0.365280
vt 0.190441 0.682269
vt 0.000247 0.365280
vt 0.618871 0.571323
vt 0.603022 0.286032
vt 0.618871 0.286032
vt 0.603022 0.571323
vt 0.603022 0.286032
vt 0.618871 0.571323
vt 0.412828 0.286032
vt 0.603022 0.571323
vt 0.412828 0.571323
vt 0.603022 0.286032
vt 0.603022 0.571323
vt 0.412828 0.286032
vt 0.809065 0.286032
vt 0.824915 0.571323
vt 0.809065 0.571323
vt 0.824915 0.286032
vt 0.824915 0.571323
vt 0.809065 0.286032
vt 0.206290 0.365280
vt 0.396484 0.349430
vt 0.396484 0.365280
vt 0.206290 0.349430
vt 0.396484 0.349430
vt 0.206290 0.365280
vt 0.634721 0.000247
vt 0.824915 0.285538
vt 0.634721 0.285538
vt 0.824915 0.000247
vt 0.824915 0.285538
vt 0.634721 0.000247
vt 0.206290 0.682269
vt 0.190441 0.365280
vt 0.206290 0.365280
vt 0.190441 0.682269
vt 0.190441 0.365280
vt 0.206290 0.682269
vt 0.634721 0.285538
vt 0.618871 0.000247
vt 0.634721 0.000247
vt 0.618871 0.285538
vt 0.618871 0.000247
vt 0.634721 0.285538
vt 0.428677 0.000247
vt 0.618871 0.285538
vt 0.428677 0.285538
vt 0.618871 0.000247
vt 0.618871 0.285538
vt 0.428677 0.000247
vt 0.412828 0.000247
vt 0.428677 0.285538
vt 0.412828 0.285538
vt 0.428677 0.000247
vt 0.428677 0.285538
vt 0.412828 0.000247
vt 0.206290 0.365280
vt 0.396484 0.682269
vt 0.206290 0.682269
vt 0.396484 0.365280
vt 0.396484 0.682269
vt 0.206290 0.365280
vt 0.412828 0.857108
vt 0.698119 0.571817
vt 0.698119 0.857108
vt 0.412828 0.571817
vt 0.698119 0.571817
vt 0.412828 0.857108
vt 0.000247 0.698613
vt 0.285538 0.983904
vt 0.000247 0.983904
vt 0.285538 0.698613
vt 0.285538 0.983904
vt 0.000247 0.698613
vt 0.396484 0.682269
vt 0.206290 0.698119
vt 0.206290 0.682269
vt 0.396484 0.698119
vt 0.206290 0.698119
vt 0.396484 0.682269
vt 0.396484 0.365280
vt 0.412334 0.682269
vt 0.396484 0.682269
vt 0.412334 0.365280
vt 0.412334 0.682269
vt 0.396484 0.365280
vt 0.714463 0.857108
vt 0.888807 0.571817
vt 0.888807 0.857108
vt 0.714463 0.571817
vt 0.888807 0.571817
vt 0.714463 0.857108
vt 0.999753 0.285538
vt 0.825409 0.000247
vt 0.999753 0.000247
vt 0.825409 0.285538
vt 0.825409 0.000247
vt 0.999753 0.285538
vt 0.698613 0.857108
vt 0.714463 0.571817
vt 0.714463 0.857108
vt 0.698613 0.571817
vt 0.714463 0.571817
vt 0.698613 0.857108

vn -0.000000 1.000000 0.000000
vn -0.000000 1.000000 0.000000
vn -0.000000 1.000000 0.000000
vn -0.000000 1.000000 0.000000
vn -0.000000 1.000000 0.000000
vn -0.000000 1.000000 0.000000
vn 1.000000 0.000000 0.000000
vn 1.000000 0.000000 0.000000
vn 1.000000 0.000000 0.000000
vn 1.000000 0.000000 0.000000
vn 1.000000 0.000000 0.000000
vn 1.000000 0.000000 0.000000
vn -0.000000 0.000000 1.000000
vn -0.000000 0.000000 1.000000
vn -0.000000 0.000000 1.000000
vn -0.000000 0.000000 1.000000
vn -0.000000 0.000000 1.000000
vn -0.000000 0.000000 1.000000
vn 0.000000 -1.000000 0.000000
vn 0.000000 -1.000000 0.000000
vn 0.000000 -1.000000 0.000000
vn -0.000000 -1.000000 0.000000
vn -0.000000 -1.000000 0.000000
vn -0.000000 -1.000000 0.000000
vn 0.000000 0.000000 -1.000000
vn 0.000000 0.000000 -1.000000
vn 0.000000 0.000000 -1.000000
vn 0.000000 0.000000 -1.000000
vn 0.000000 0.000000 -1.000000
vn 0.000000 0.000000 -1.000000
vn -1.000000 0.000000 0.000000
vn -1.000000 0.000000 0.000000
vn -1.000000 0.000000 0.000000
vn -1.000000 0.000000 0.000000
vn -1.000000 0.000000 0.000000
vn -1.000000 0.000000 0.000000
vn 1.000000 -0.000000 0.000000
vn 1.000000 -0.000000 0.000000
vn 1.000000 -0.000000 0.000000
vn 1.000000 -0.000000 0.000000
vn 1.000000 -0.000000 0.000000
vn 1.000000 -0.000000 0.000000
vn -0.000000 -1.000000 0.000000
vn -0.000000 -1.000000 0.000000
vn -0.000000 -1.000000 0.000000
vn 0.000000 -1.000000 0.000000
vn 0.000000 -1.000000 0.000000
vn 0.000000 -1.000000 0.000000
vn -0.000000 0.000000 1.000000
vn -0.000000 0.000000 1.000000
vn -0.000000 0.000000 1.000000
vn -0.000000 0.000000 1.000000
vn -0.000000 0.000000 1.000000
vn -0.000000 0.000000 1.000000
vn -1.000000 0.000000 0.000000
vn -1.000000 0.000000 0.000000
vn -1.000000 0.000000 0.000000
vn -1.000000 0.000000 0.000000
vn -1.000000 0.000000 0.000000
vn -1.000000 0.000000 0.000000
vn -0.000000 0.000000 -1.000000
vn -0.000000 0.000000 -1.000000
vn -0.000000 0.000000 -1.000000
vn -0.000000 0.000000 -1.000000
vn -0.000000 0.000000 -1.000000
vn -0.000000 0.000000 -1.000000
vn 1.000000 0.000000 0.000000
vn 1.000000 0.000000 0.000000
vn 1.000000 0.000000 0.000000
vn 1.000000 0.000000 0.000000
vn 1.000000 0.000000 0.000000
vn 1.000000 0.000000 0.000000
vn 1.000000 -0.000000 0.000000
vn 1.000000 -0.000000 0.000000
vn 1.000000 -0.000000 0.000000
vn 1.000000 -0.000000 0.000000
vn 1.000000 -0.000000 0.000000
vn 1.000000 -0.000000 0.000000
vn -0.000000 0.000000 1.000000
vn -0.000000 0.000000 1.000000
vn -0.000000 0.000000 1.000000
vn -0.000000 0.000000 1.000000
vn -0.000000 0.000000 1.000000
vn -0.000000 0.000000 1.000000
vn -0.000000 0.000000 1.000000
vn -0.000000 0.000000 1.000000
vn -0.000000 0.000000 1.000000
vn -0.000000 0.000000 1.000000
vn -0.000000 0.000000 1.000000
vn -0.000000 0.000000 1.000000
vn -1.000000 0.000000 -0.000000
vn -1.000000 0.000000 -0.000000
vn -1.000000 0.000000 -0.000000
vn -1.000000 0.000000 0.000000
vn -1.000000 0.000000 0.000000
vn -1.000000 0.000000 0.000000
vn -0.000000 0.000000 -1.000000
vn -0.000000 0.000000 -1.000000
vn -0.000000 0.000000 -1.000000
vn -0.000000 -0.000000 -1.000000
vn -0.000000 -0.000000 -1.000000
vn -0.000000 -0.000000 -1.000000
vn -0.000000 1.000000 0.000000
vn -0.000000 1.000000 0.000000
vn -0.000000 1.000000 0.000000
vn -0.000000 1.000000 0.000000
vn -0.000000 1.000000 0.000000
vn -0.000000 1.000000 0.000000
vn -0.000000 -0.000000 1.000000
vn -0.000000 -0.000000 1.000000
vn -0.000000 -0.000000 1.000000
vn -0.000000 -0.000000 1.000000
vn -0.000000 -0.000000 1.000000
vn -0.000000 -0.000000 1.000000
vn 0.000000 0.000000 -1.000000
vn 0.000000 0.000000 -1.000000
vn 0.000000 0.000000 -1.000000
vn 0.000000 0.000000 -1.000000
vn 0.000000 0.000000 -1.000000
vn 0.000000 0.000000 -1.000000
vn -1.000000 0.000000 0.000000
vn -1.000000 0.000000 0.000000
vn -1.000000 0.000000 0.000000
vn -1.000000 0.000000 0.000000
vn -1.000000 0.000000 0.000000
vn -1.000000 0.000000 0.000000
vn 0.000000 0.000000 -1.000000
vn 0.000000 0.000000 -1.000000
vn 0.000000 0.000000 -1.000000
vn 0.000000 0.000000 -1.000000
vn 0.000000 0.000000 -1.000000
vn 0.000000 0.000000 -1.000000
vn -0.000000 -1.000000 -0.000000
vn -0.000000 -1.000000 -0.000000
vn -0.000000 -1.000000 -0.000000
vn -0.000000 -1.000000 -0.000000
vn -0.000000 -1.000000 -0.000000
vn -0.000000 -1.000000 -0.000000
vn 0.000000 1.000000 0.000000
vn 0.000000 1.000000 0.000000
vn 0.000000 1.000000 0.000000
vn 0.000000 1.000000 0.000000
vn 0.000000 1.000000 0.000000
vn 0.000000 1.000000 0.000000
vn 0.000000 0.000000 -1.000000
vn 0.000000 0.000000 -1.000000
vn 0.000000 0.000000 -1.000000
vn 0.000000 0.000000 -1.000000
vn 0.000000 0.000000 -1.000000
vn 0.000000 0.000000 -1.000000

g Material
f 3/1/1 1/2/2 2/3/3
f 4/4/4 1/5/5 3/6/6
f 7/7/7 5/8/8 6/9/9
f 8/10/10 5/11/11 7/12/12
f 11/13/13 9/14/14 10/15/15
f 12/16/16 9/17/17 11/18/18
f 15/19/19 13/20/20 14/21/21
f 16/22/22 13/23/23 15/24/24
f 19/25/25 17/26/26 18/27/27
f 20/28/28 17/29/29 19/30/30
f 23/31/31 21/32/32 22/33/33
f 24/34/34 21/35/35 23/36/36
f 27/37/37 25/38/38 26/39/39
f 28/40/40 25/41/41 27/42/42
f 31/43/43 29/44/44 30/45/45
f 32/46/46 29/47/47 31/48/48
f 35/49/49 33/50/50 34/51/51
f 36/52/52 33/53/53 35/54/54
f 39/55/55 37/56/56 38/57/57
f 40/58/58 37/59/59 39/60/60
f 43/61/61 41/62/62 42/63/63
f 44/64/64 41/65/65 43/66/66
f 47/67/67 45/68/68 46/69/69
f 48/70/70 45/71/71 47/72/72
f 51/73/73 49/74/74 50/75/75
f 52/76/76 49/77/77 51/78/78
f 55/79/79 53/80/80 54/81/81
f 56/82/82 53/83/83 55/84/84
f 59/85/85 57/86/86 58/87/87
f 60/88/88 57/89/89 59/90/90
f 63/91/91 61/92/92 62/93/93
f 64/94/94 61/95/95 63/96/96
f 67/97/97 65/98/98 66/99/99
f 68/100/100 65/101/101 67/102/102
f 71/103/103 69/104/104 70/105/105
f 72/106/106 69/107/107 71/108/108
f 75/109/109 73/110/110 74/111/111
f 76/112/112 73/113/113 75/114/114
f 79/115/115 77/116/116 78/117/117
f 80/118/118 77/119/119 79/120/120
f 83/121/121 81/122/122 82/123/123
f 84/124/124 81/125/125 83/126/126
f 87/127/127 85/128/128 86/129/129
f 88/130/130 85/131/131 87/132/132
f 91/133/133 89/134/134 90/135/135
f 92/136/136 89/137/137 91/138/138
f 95/139/139 93/140/140 94/141/141
f 96/142/142 93/143/143 95/144/144
f 99/145/145 97/146/146 98/147/147
f 100/148/148 97/149/149 99/150/150

