# Converted from B3D for Luanti (With Correct Normals)
# Object Name: multidecor_underwear_tank

v -0.680000 -1.000000 -0.510000
v -0.516667 -1.000000 -0.325000
v -0.800000 -1.000000 -0.325000
v -0.516667 -1.000000 -0.600000
v -0.516667 -1.000000 -0.325000
v -0.680000 -1.000000 -0.510000
v 0.516667 -1.000000 -0.600000
v 0.800000 -1.000000 -0.325000
v 0.516667 -1.000000 -0.325000
v 0.680000 -1.000000 -0.510000
v 0.800000 -1.000000 -0.325000
v 0.516667 -1.000000 -0.600000
v -0.516667 -1.000000 -0.600000
v 0.516667 -1.000000 -0.325000
v -0.516667 -1.000000 -0.325000
v 0.516667 -1.000000 -0.600000
v 0.516667 -1.000000 -0.325000
v -0.516667 -1.000000 -0.600000
v -0.516667 -1.000000 0.325000
v 0.516667 -1.000000 0.600000
v -0.516667 -1.000000 0.600000
v 0.516667 -1.000000 0.325000
v 0.516667 -1.000000 0.600000
v -0.516667 -1.000000 0.325000
v -0.516667 -1.000000 -0.325000
v 0.516667 -1.000000 0.325000
v -0.516667 -1.000000 0.325000
v 0.516667 -1.000000 -0.325000
v 0.516667 -1.000000 0.325000
v -0.516667 -1.000000 -0.325000
v 0.516667 -1.000000 0.325000
v 0.680000 -1.000000 0.510000
v 0.516667 -1.000000 0.600000
v 0.800000 -1.000000 0.325000
v 0.680000 -1.000000 0.510000
v 0.516667 -1.000000 0.325000
v 0.516667 -1.000000 -0.325000
v 0.800000 -1.000000 0.325000
v 0.516667 -1.000000 0.325000
v 0.800000 -1.000000 -0.325000
v 0.800000 -1.000000 0.325000
v 0.516667 -1.000000 -0.325000
v -0.800000 -1.000000 0.325000
v -0.516667 -1.000000 0.600000
v -0.680000 -1.000000 0.510000
v -0.516667 -1.000000 0.325000
v -0.516667 -1.000000 0.600000
v -0.800000 -1.000000 0.325000
v -0.800000 -1.000000 -0.325000
v -0.516667 -1.000000 0.325000
v -0.800000 -1.000000 0.325000
v -0.516667 -1.000000 -0.325000
v -0.516667 -1.000000 0.325000
v -0.800000 -1.000000 -0.325000
v 0.800000 0.450000 0.325000
v 0.800000 -1.000000 -0.325000
v 0.800000 0.450000 -0.325000
v 0.800000 -1.000000 0.325000
v 0.800000 -1.000000 -0.325000
v 0.800000 0.450000 0.325000
v 0.800000 0.450000 -0.325000
v 0.680000 -1.000000 -0.510000
v 0.680000 0.450000 -0.510000
v 0.800000 -1.000000 -0.325000
v 0.680000 -1.000000 -0.510000
v 0.800000 0.450000 -0.325000
v -0.800000 0.450000 -0.325000
v -0.800000 -1.000000 0.325000
v -0.800000 0.450000 0.325000
v -0.800000 -1.000000 -0.325000
v -0.800000 -1.000000 0.325000
v -0.800000 0.450000 -0.325000
v -0.800000 0.450000 0.325000
v -0.680000 -1.000000 0.510000
v -0.680000 0.450000 0.510000
v -0.800000 -1.000000 0.325000
v -0.680000 -1.000000 0.510000
v -0.800000 0.450000 0.325000
v 0.516667 0.450000 -0.600000
v -0.516667 -1.000000 -0.600000
v -0.516667 0.450000 -0.600000
v 0.516667 -1.000000 -0.600000
v -0.516667 -1.000000 -0.600000
v 0.516667 0.450000 -0.600000
v -0.516667 0.450000 -0.600000
v -0.680000 -1.000000 -0.510000
v -0.680000 0.450000 -0.510000
v -0.516667 -1.000000 -0.600000
v -0.680000 -1.000000 -0.510000
v -0.516667 0.450000 -0.600000
v -0.516667 0.450000 0.600000
v 0.516667 -1.000000 0.600000
v 0.516667 0.450000 0.600000
v -0.516667 -1.000000 0.600000
v 0.516667 -1.000000 0.600000
v -0.516667 0.450000 0.600000
v 0.516667 0.450000 0.600000
v 0.680000 -1.000000 0.510000
v 0.680000 0.450000 0.510000
v 0.516667 -1.000000 0.600000
v 0.680000 -1.000000 0.510000
v 0.516667 0.450000 0.600000
v -0.680000 0.450000 0.510000
v -0.516667 -1.000000 0.600000
v -0.516667 0.450000 0.600000
v -0.680000 -1.000000 0.510000
v -0.516667 -1.000000 0.600000
v -0.680000 0.450000 0.510000
v -0.680000 0.450000 -0.510000
v -0.800000 -1.000000 -0.325000
v -0.800000 0.450000 -0.325000
v -0.680000 -1.000000 -0.510000
v -0.800000 -1.000000 -0.325000
v -0.680000 0.450000 -0.510000
v 0.680000 0.450000 0.510000
v 0.800000 -1.000000 0.325000
v 0.800000 0.450000 0.325000
v 0.680000 -1.000000 0.510000
v 0.800000 -1.000000 0.325000
v 0.680000 0.450000 0.510000
v 0.680000 0.450000 -0.510000
v 0.516667 -1.000000 -0.600000
v 0.516667 0.450000 -0.600000
v 0.680000 -1.000000 -0.510000
v 0.516667 -1.000000 -0.600000
v 0.680000 0.450000 -0.510000
v -0.578000 -0.737500 -0.433500
v -0.439167 -0.737500 -0.276250
v -0.680000 -0.737500 -0.276250
v -0.439167 -0.737500 -0.510000
v -0.439167 -0.737500 -0.276250
v -0.578000 -0.737500 -0.433500
v 0.439167 -0.737500 -0.510000
v 0.680000 -0.737500 -0.276250
v 0.439167 -0.737500 -0.276250
v 0.578000 -0.737500 -0.433500
v 0.680000 -0.737500 -0.276250
v 0.439167 -0.737500 -0.510000
v -0.439167 -0.737500 -0.510000
v 0.439167 -0.737500 -0.276250
v -0.439167 -0.737500 -0.276250
v 0.439167 -0.737500 -0.510000
v 0.439167 -0.737500 -0.276250
v -0.439167 -0.737500 -0.510000
v -0.439167 -0.737500 0.276250
v 0.439167 -0.737500 0.510000
v -0.439167 -0.737500 0.510000
v 0.439167 -0.737500 0.276250
v 0.439167 -0.737500 0.510000
v -0.439167 -0.737500 0.276250
v -0.439167 -0.737500 -0.276250
v 0.439167 -0.737500 0.276250
v -0.439167 -0.737500 0.276250
v 0.439167 -0.737500 -0.276250
v 0.439167 -0.737500 0.276250
v -0.439167 -0.737500 -0.276250
v 0.439167 -0.737500 0.276250
v 0.578000 -0.737500 0.433500
v 0.439167 -0.737500 0.510000
v 0.680000 -0.737500 0.276250
v 0.578000 -0.737500 0.433500
v 0.439167 -0.737500 0.276250
v 0.439167 -0.737500 -0.276250
v 0.680000 -0.737500 0.276250
v 0.439167 -0.737500 0.276250
v 0.680000 -0.737500 -0.276250
v 0.680000 -0.737500 0.276250
v 0.439167 -0.737500 -0.276250
v -0.680000 -0.737500 0.276250
v -0.439167 -0.737500 0.510000
v -0.578000 -0.737500 0.433500
v -0.439167 -0.737500 0.276250
v -0.439167 -0.737500 0.510000
v -0.680000 -0.737500 0.276250
v -0.680000 -0.737500 -0.276250
v -0.439167 -0.737500 0.276250
v -0.680000 -0.737500 0.276250
v -0.439167 -0.737500 -0.276250
v -0.439167 -0.737500 0.276250
v -0.680000 -0.737500 -0.276250
v 0.680000 0.450000 0.276250
v 0.680000 -0.737500 -0.276250
v 0.680000 0.450000 -0.276250
v 0.680000 -0.737500 0.276250
v 0.680000 -0.737500 -0.276250
v 0.680000 0.450000 0.276250
v 0.680000 0.450000 -0.276250
v 0.578000 -0.737500 -0.433500
v 0.578000 0.450000 -0.433500
v 0.680000 -0.737500 -0.276250
v 0.578000 -0.737500 -0.433500
v 0.680000 0.450000 -0.276250
v -0.680000 0.450000 -0.276250
v -0.680000 -0.737500 0.276250
v -0.680000 0.450000 0.276250
v -0.680000 -0.737500 -0.276250
v -0.680000 -0.737500 0.276250
v -0.680000 0.450000 -0.276250
v -0.680000 0.450000 0.276250
v -0.578000 -0.737500 0.433500
v -0.578000 0.450000 0.433500
v -0.680000 -0.737500 0.276250
v -0.578000 -0.737500 0.433500
v -0.680000 0.450000 0.276250
v 0.439167 0.450000 -0.510000
v -0.439167 -0.737500 -0.510000
v -0.439167 0.450000 -0.510000
v 0.439167 -0.737500 -0.510000
v -0.439167 -0.737500 -0.510000
v 0.439167 0.450000 -0.510000
v -0.439167 0.450000 -0.510000
v -0.578000 -0.737500 -0.433500
v -0.578000 0.450000 -0.433500
v -0.439167 -0.737500 -0.510000
v -0.578000 -0.737500 -0.433500
v -0.439167 0.450000 -0.510000
v -0.439167 0.450000 0.510000
v 0.439167 -0.737500 0.510000
v 0.439167 0.450000 0.510000
v -0.439167 -0.737500 0.510000
v 0.439167 -0.737500 0.510000
v -0.439167 0.450000 0.510000
v 0.439167 0.450000 0.510000
v 0.578000 -0.737500 0.433500
v 0.578000 0.450000 0.433500
v 0.439167 -0.737500 0.510000
v 0.578000 -0.737500 0.433500
v 0.439167 0.450000 0.510000
v -0.578000 0.450000 0.433500
v -0.439167 -0.737500 0.510000
v -0.439167 0.450000 0.510000
v -0.578000 -0.737500 0.433500
v -0.439167 -0.737500 0.510000
v -0.578000 0.450000 0.433500
v -0.578000 0.450000 -0.433500
v -0.680000 -0.737500 -0.276250
v -0.680000 0.450000 -0.276250
v -0.578000 -0.737500 -0.433500
v -0.680000 -0.737500 -0.276250
v -0.578000 0.450000 -0.433500
v 0.578000 0.450000 0.433500
v 0.680000 -0.737500 0.276250
v 0.680000 0.450000 0.276250
v 0.578000 -0.737500 0.433500
v 0.680000 -0.737500 0.276250
v 0.578000 0.450000 0.433500
v 0.578000 0.450000 -0.433500
v 0.439167 -0.737500 -0.510000
v 0.439167 0.450000 -0.510000
v 0.578000 -0.737500 -0.433500
v 0.439167 -0.737500 -0.510000
v 0.578000 0.450000 -0.433500
v 0.516667 0.450000 0.600000
v 0.439167 0.450000 0.510000
v 0.578000 0.450000 0.433500
v -0.578000 0.450000 -0.433500
v -0.516667 0.450000 -0.600000
v -0.439167 0.450000 -0.510000
v 0.578000 0.450000 -0.433500
v 0.516667 0.450000 -0.600000
v 0.680000 0.450000 -0.510000
v -0.578000 0.450000 0.433500
v -0.516667 0.450000 0.600000
v -0.680000 0.450000 0.510000
v -0.439167 0.450000 0.510000
v 0.439167 0.450000 0.510000
v 0.516667 0.450000 0.600000
v -0.578000 0.450000 0.433500
v -0.439167 0.450000 0.510000
v -0.516667 0.450000 0.600000
v -0.680000 0.450000 0.510000
v -0.800000 0.450000 0.325000
v -0.680000 0.450000 0.276250
v 0.680000 0.450000 0.276250
v 0.800000 0.450000 0.325000
v 0.680000 0.450000 0.510000
v 0.680000 0.450000 0.276250
v 0.680000 0.450000 0.510000
v 0.578000 0.450000 0.433500
v 0.680000 0.450000 0.276250
v 0.800000 0.450000 -0.325000
v 0.800000 0.450000 0.325000
v -0.800000 0.450000 -0.325000
v -0.680000 0.450000 0.276250
v -0.800000 0.450000 0.325000
v 0.680000 0.450000 -0.276250
v 0.800000 0.450000 -0.325000
v 0.680000 0.450000 0.276250
v -0.800000 0.450000 -0.325000
v -0.680000 0.450000 -0.276250
v -0.680000 0.450000 0.276250
v 0.680000 0.450000 -0.276250
v 0.578000 0.450000 -0.433500
v 0.680000 0.450000 -0.510000
v -0.680000 0.450000 -0.276250
v -0.800000 0.450000 -0.325000
v -0.680000 0.450000 -0.510000
v -0.680000 0.450000 0.510000
v -0.680000 0.450000 0.276250
v -0.578000 0.450000 0.433500
v 0.439167 0.450000 -0.510000
v -0.516667 0.450000 -0.600000
v 0.516667 0.450000 -0.600000
v 0.578000 0.450000 -0.433500
v 0.439167 0.450000 -0.510000
v 0.516667 0.450000 -0.600000
v -0.578000 0.450000 -0.433500
v -0.680000 0.450000 -0.510000
v -0.516667 0.450000 -0.600000
v 0.516667 0.450000 0.600000
v 0.578000 0.450000 0.433500
v 0.680000 0.450000 0.510000
v 0.439167 0.450000 -0.510000
v -0.439167 0.450000 -0.510000
v -0.516667 0.450000 -0.600000
v 0.680000 0.450000 -0.276250
v 0.680000 0.450000 -0.510000
v 0.800000 0.450000 -0.325000
v -0.680000 0.450000 -0.276250
v -0.680000 0.450000 -0.510000
v -0.578000 0.450000 -0.433500
v -0.439167 0.450000 0.510000
v 0.516667 0.450000 0.600000
v -0.516667 0.450000 0.600000

vt 0.864665 0.000228
vt 0.900768 0.023646
vt 0.864666 0.055520
vt 0.900768 0.023646
vt 0.918331 0.055520
vt 0.864666 0.055520
vt 0.864665 0.257172
vt 0.918331 0.257172
vt 0.864665 0.312463
vt 0.918331 0.257172
vt 0.900768 0.289045
vt 0.864665 0.312463
vt 0.864666 0.055520
vt 0.918331 0.055520
vt 0.864665 0.257172
vt 0.918331 0.055520
vt 0.918331 0.257172
vt 0.864665 0.257172
vt 0.684155 0.055520
vt 0.737820 0.055520
vt 0.684155 0.257171
vt 0.737820 0.055520
vt 0.737820 0.257171
vt 0.684155 0.257171
vt 0.737820 0.055520
vt 0.864666 0.055520
vt 0.737820 0.257171
vt 0.864666 0.055520
vt 0.864665 0.257172
vt 0.737820 0.257171
vt 0.684155 0.257171
vt 0.737820 0.257171
vt 0.701718 0.289045
vt 0.737820 0.257171
vt 0.737820 0.312463
vt 0.701718 0.289045
vt 0.737820 0.257171
vt 0.864665 0.257172
vt 0.737820 0.312463
vt 0.864665 0.257172
vt 0.864665 0.312463
vt 0.737820 0.312463
vt 0.701718 0.023646
vt 0.737820 0.000228
vt 0.684155 0.055520
vt 0.737820 0.000228
vt 0.737820 0.055520
vt 0.684155 0.055520
vt 0.737820 0.000228
vt 0.864665 0.000228
vt 0.737820 0.055520
vt 0.864665 0.000228
vt 0.864666 0.055520
vt 0.737820 0.055520
vt 0.058772 0.444543
vt 0.058772 0.317697
vt 0.341735 0.444543
vt 0.058772 0.317697
vt 0.341735 0.317697
vt 0.341735 0.444543
vt 0.058772 0.487575
vt 0.058772 0.444543
vt 0.341735 0.487575
vt 0.058772 0.444543
vt 0.341735 0.444543
vt 0.341735 0.487575
vt 0.625154 0.043260
vt 0.625154 0.170106
vt 0.342191 0.043260
vt 0.625154 0.170106
vt 0.342191 0.170106
vt 0.342191 0.043260
vt 0.625154 0.000228
vt 0.625154 0.043260
vt 0.342191 0.000228
vt 0.625154 0.043260
vt 0.342191 0.043260
vt 0.342191 0.000228
vt 0.625154 0.249530
vt 0.625154 0.451182
vt 0.342191 0.249530
vt 0.625154 0.451182
vt 0.342191 0.451182
vt 0.342191 0.249530
vt 0.625154 0.213138
vt 0.625154 0.249530
vt 0.342191 0.213138
vt 0.625154 0.249530
vt 0.342191 0.249530
vt 0.342191 0.213138
vt 0.058772 0.238272
vt 0.058772 0.036621
vt 0.341735 0.238272
vt 0.058772 0.036621
vt 0.341735 0.036621
vt 0.341735 0.238272
vt 0.058772 0.274665
vt 0.058772 0.238272
vt 0.341735 0.274665
vt 0.058772 0.238272
vt 0.341735 0.238272
vt 0.341735 0.274665
vt 0.058772 0.036621
vt 0.058772 0.000228
vt 0.341735 0.036621
vt 0.058772 0.000228
vt 0.341735 0.000228
vt 0.341735 0.036621
vt 0.625154 0.170106
vt 0.625154 0.213138
vt 0.342191 0.170106
vt 0.625154 0.213138
vt 0.342191 0.213138
vt 0.342191 0.170106
vt 0.058772 0.317697
vt 0.058772 0.274665
vt 0.341735 0.317697
vt 0.058772 0.274665
vt 0.341735 0.274665
vt 0.341735 0.317697
vt 0.625154 0.451182
vt 0.625154 0.487575
vt 0.342191 0.451182
vt 0.625154 0.487575
vt 0.342191 0.487575
vt 0.342191 0.451182
vt 0.847102 0.954156
vt 0.827197 0.984843
vt 0.800104 0.954156
vt 0.827197 0.984843
vt 0.800104 0.999772
vt 0.800104 0.954156
vt 0.628700 0.954156
vt 0.628700 0.999772
vt 0.581702 0.954156
vt 0.628700 0.999772
vt 0.601607 0.984843
vt 0.581702 0.954156
vt 0.800104 0.954156
vt 0.800104 0.999772
vt 0.628700 0.954156
vt 0.800104 0.999772
vt 0.628700 0.999772
vt 0.628700 0.954156
vt 0.800104 0.800722
vt 0.800104 0.846338
vt 0.628700 0.800722
vt 0.800104 0.846338
vt 0.628700 0.846338
vt 0.628700 0.800722
vt 0.800104 0.846338
vt 0.800104 0.954156
vt 0.628700 0.846338
vt 0.800104 0.954156
vt 0.628700 0.954156
vt 0.628700 0.846338
vt 0.628700 0.800722
vt 0.628700 0.846338
vt 0.601607 0.815651
vt 0.628700 0.846338
vt 0.581702 0.846338
vt 0.601607 0.815651
vt 0.628700 0.846338
vt 0.628700 0.954156
vt 0.581702 0.846338
vt 0.628700 0.954156
vt 0.581702 0.954156
vt 0.581702 0.846338
vt 0.827197 0.815651
vt 0.847102 0.846338
vt 0.800104 0.800722
vt 0.847102 0.846338
vt 0.800104 0.846338
vt 0.800104 0.800722
vt 0.847102 0.846338
vt 0.847102 0.954156
vt 0.800104 0.846338
vt 0.847102 0.954156
vt 0.800104 0.954156
vt 0.800104 0.846338
vt 0.349509 0.865698
vt 0.349509 0.757880
vt 0.581246 0.865698
vt 0.349509 0.757880
vt 0.581246 0.757880
vt 0.581246 0.865698
vt 0.349509 0.902276
vt 0.349509 0.865698
vt 0.581246 0.902276
vt 0.349509 0.865698
vt 0.581246 0.865698
vt 0.581246 0.902276
vt 0.231965 0.524608
vt 0.231965 0.632427
vt 0.000228 0.524608
vt 0.231965 0.632427
vt 0.000228 0.632427
vt 0.000228 0.524608
vt 0.231965 0.488031
vt 0.231965 0.524608
vt 0.000228 0.488031
vt 0.231965 0.524608
vt 0.000228 0.524608
vt 0.000228 0.488031
vt 0.231965 0.699938
vt 0.231965 0.871342
vt 0.000228 0.699938
vt 0.231965 0.871342
vt 0.000228 0.871342
vt 0.000228 0.699938
vt 0.231965 0.669004
vt 0.231965 0.699938
vt 0.000228 0.669004
vt 0.231965 0.699938
vt 0.000228 0.699938
vt 0.000228 0.669004
vt 0.349509 0.690369
vt 0.349509 0.518965
vt 0.581246 0.690369
vt 0.349509 0.518965
vt 0.581246 0.518965
vt 0.581246 0.690369
vt 0.349509 0.721302
vt 0.349509 0.690369
vt 0.581246 0.721302
vt 0.349509 0.690369
vt 0.581246 0.690369
vt 0.581246 0.721302
vt 0.349509 0.518965
vt 0.349509 0.488031
vt 0.581246 0.518965
vt 0.349509 0.488031
vt 0.581246 0.488031
vt 0.581246 0.518965
vt 0.231965 0.632427
vt 0.231965 0.669004
vt 0.000228 0.632427
vt 0.231965 0.669004
vt 0.000228 0.669004
vt 0.000228 0.632427
vt 0.349509 0.757880
vt 0.349509 0.721302
vt 0.581246 0.757880
vt 0.349509 0.721302
vt 0.581246 0.721302
vt 0.581246 0.757880
vt 0.231965 0.871342
vt 0.231965 0.902275
vt 0.000228 0.871342
vt 0.231965 0.902276
vt 0.000228 0.902276
vt 0.000228 0.871342
vt 0.783387 0.531353
vt 0.815879 0.543322
vt 0.798316 0.558446
vt 0.599266 0.729850
vt 0.614194 0.756943
vt 0.581702 0.744974
vt 0.599266 0.511449
vt 0.614194 0.531353
vt 0.581702 0.543323
vt 0.798316 0.776848
vt 0.783387 0.756943
vt 0.815879 0.744974
vt 0.815879 0.543322
vt 0.798316 0.729850
vt 0.798316 0.558446
vt 0.815879 0.744974
vt 0.783387 0.756943
vt 0.798316 0.729850
vt 0.752700 0.776848
vt 0.798316 0.776848
vt 0.762213 0.800266
vt 0.798316 0.511448
vt 0.752700 0.511448
vt 0.762213 0.488031
vt 0.783387 0.531353
vt 0.752700 0.511448
vt 0.798316 0.511448
vt 0.762213 0.488031
vt 0.752700 0.511448
vt 0.635368 0.488031
vt 0.762213 0.800266
vt 0.635368 0.800266
vt 0.752700 0.776848
vt 0.752700 0.511448
vt 0.644881 0.511449
vt 0.635368 0.488031
vt 0.752700 0.776848
vt 0.635368 0.800266
vt 0.644881 0.776848
vt 0.599266 0.511449
vt 0.644881 0.511449
vt 0.614194 0.531353
vt 0.599266 0.776848
vt 0.644881 0.776848
vt 0.635368 0.800266
vt 0.783387 0.756943
vt 0.798316 0.776848
vt 0.752700 0.776848
vt 0.581702 0.543323
vt 0.599266 0.558446
vt 0.581702 0.744974
vt 0.581702 0.543323
vt 0.614194 0.531353
vt 0.599266 0.558446
vt 0.581702 0.744974
vt 0.614194 0.756943
vt 0.599266 0.776848
vt 0.798316 0.511448
vt 0.815879 0.543322
vt 0.783387 0.531353
vt 0.581702 0.744974
vt 0.599266 0.558446
vt 0.599266 0.729850
vt 0.635368 0.488031
vt 0.644881 0.511449
vt 0.599266 0.511449
vt 0.614194 0.756943
vt 0.644881 0.776848
vt 0.599266 0.776848
vt 0.815879 0.744974
vt 0.798316 0.729850
vt 0.815879 0.543322

vn -0.000000 -1.000000 0.000000
vn -0.000000 -1.000000 0.000000
vn -0.000000 -1.000000 0.000000
vn -0.000000 -1.000000 0.000000
vn -0.000000 -1.000000 0.000000
vn -0.000000 -1.000000 0.000000
vn -0.000000 -1.000000 0.000000
vn -0.000000 -1.000000 0.000000
vn -0.000000 -1.000000 0.000000
vn -0.000000 -1.000000 0.000000
vn -0.000000 -1.000000 0.000000
vn -0.000000 -1.000000 0.000000
vn -0.000000 -1.000000 0.000000
vn -0.000000 -1.000000 0.000000
vn -0.000000 -1.000000 0.000000
vn -0.000000 -1.000000 0.000000
vn -0.000000 -1.000000 0.000000
vn -0.000000 -1.000000 0.000000
vn -0.000000 -1.000000 0.000000
vn -0.000000 -1.000000 0.000000
vn -0.000000 -1.000000 0.000000
vn -0.000000 -1.000000 0.000000
vn -0.000000 -1.000000 0.000000
vn -0.000000 -1.000000 0.000000
vn -0.000000 -1.000000 0.000000
vn -0.000000 -1.000000 0.000000
vn -0.000000 -1.000000 0.000000
vn -0.000000 -1.000000 0.000000
vn -0.000000 -1.000000 0.000000
vn -0.000000 -1.000000 0.000000
vn -0.000000 -1.000000 0.000000
vn -0.000000 -1.000000 0.000000
vn -0.000000 -1.000000 0.000000
vn -0.000000 -1.000000 0.000000
vn -0.000000 -1.000000 0.000000
vn -0.000000 -1.000000 0.000000
vn -0.000000 -1.000000 0.000000
vn -0.000000 -1.000000 0.000000
vn -0.000000 -1.000000 0.000000
vn -0.000000 -1.000000 0.000000
vn -0.000000 -1.000000 0.000000
vn -0.000000 -1.000000 0.000000
vn -0.000000 -1.000000 0.000000
vn -0.000000 -1.000000 0.000000
vn -0.000000 -1.000000 0.000000
vn -0.000000 -1.000000 0.000000
vn -0.000000 -1.000000 0.000000
vn -0.000000 -1.000000 0.000000
vn -0.000000 -1.000000 0.000000
vn -0.000000 -1.000000 0.000000
vn -0.000000 -1.000000 0.000000
vn -0.000000 -1.000000 0.000000
vn -0.000000 -1.000000 0.000000
vn -0.000000 -1.000000 0.000000
vn 1.000000 0.000000 0.000000
vn 1.000000 0.000000 0.000000
vn 1.000000 0.000000 0.000000
vn 1.000000 0.000000 0.000000
vn 1.000000 0.000000 0.000000
vn 1.000000 0.000000 0.000000
vn 0.838961 0.000000 -0.544191
vn 0.838961 0.000000 -0.544191
vn 0.838961 0.000000 -0.544191
vn 0.838961 0.000000 -0.544191
vn 0.838961 0.000000 -0.544191
vn 0.838961 0.000000 -0.544191
vn -1.000000 0.000000 0.000000
vn -1.000000 0.000000 0.000000
vn -1.000000 0.000000 0.000000
vn -1.000000 0.000000 0.000000
vn -1.000000 0.000000 0.000000
vn -1.000000 0.000000 0.000000
vn -0.838961 0.000000 0.544191
vn -0.838961 0.000000 0.544191
vn -0.838961 0.000000 0.544191
vn -0.838961 0.000000 0.544191
vn -0.838961 0.000000 0.544191
vn -0.838961 0.000000 0.544191
vn -0.000000 0.000000 -1.000000
vn -0.000000 0.000000 -1.000000
vn -0.000000 0.000000 -1.000000
vn -0.000000 0.000000 -1.000000
vn -0.000000 0.000000 -1.000000
vn -0.000000 0.000000 -1.000000
vn -0.482605 0.000000 -0.875838
vn -0.482605 0.000000 -0.875838
vn -0.482605 0.000000 -0.875838
vn -0.482604 0.000000 -0.875838
vn -0.482604 0.000000 -0.875838
vn -0.482604 0.000000 -0.875838
vn -0.000000 0.000000 1.000000
vn -0.000000 0.000000 1.000000
vn -0.000000 0.000000 1.000000
vn -0.000000 0.000000 1.000000
vn -0.000000 0.000000 1.000000
vn -0.000000 0.000000 1.000000
vn 0.482605 0.000000 0.875838
vn 0.482605 0.000000 0.875838
vn 0.482605 0.000000 0.875838
vn 0.482604 0.000000 0.875838
vn 0.482604 0.000000 0.875838
vn 0.482604 0.000000 0.875838
vn -0.482604 0.000000 0.875838
vn -0.482604 0.000000 0.875838
vn -0.482604 0.000000 0.875838
vn -0.482605 0.000000 0.875838
vn -0.482605 0.000000 0.875838
vn -0.482605 0.000000 0.875838
vn -0.838961 0.000000 -0.544191
vn -0.838961 0.000000 -0.544191
vn -0.838961 0.000000 -0.544191
vn -0.838961 0.000000 -0.544191
vn -0.838961 0.000000 -0.544191
vn -0.838961 0.000000 -0.544191
vn 0.838961 0.000000 0.544191
vn 0.838961 0.000000 0.544191
vn 0.838961 0.000000 0.544191
vn 0.838961 0.000000 0.544191
vn 0.838961 0.000000 0.544191
vn 0.838961 0.000000 0.544191
vn 0.482604 0.000000 -0.875838
vn 0.482604 0.000000 -0.875838
vn 0.482604 0.000000 -0.875838
vn 0.482605 0.000000 -0.875838
vn 0.482605 0.000000 -0.875838
vn 0.482605 0.000000 -0.875838
vn -0.000000 -1.000000 0.000000
vn -0.000000 -1.000000 0.000000
vn -0.000000 -1.000000 0.000000
vn -0.000000 -1.000000 0.000000
vn -0.000000 -1.000000 0.000000
vn -0.000000 -1.000000 0.000000
vn -0.000000 -1.000000 0.000000
vn -0.000000 -1.000000 0.000000
vn -0.000000 -1.000000 0.000000
vn -0.000000 -1.000000 0.000000
vn -0.000000 -1.000000 0.000000
vn -0.000000 -1.000000 0.000000
vn -0.000000 -1.000000 0.000000
vn -0.000000 -1.000000 0.000000
vn -0.000000 -1.000000 0.000000
vn -0.000000 -1.000000 0.000000
vn -0.000000 -1.000000 0.000000
vn -0.000000 -1.000000 0.000000
vn -0.000000 -1.000000 0.000000
vn -0.000000 -1.000000 0.000000
vn -0.000000 -1.000000 0.000000
vn -0.000000 -1.000000 0.000000
vn -0.000000 -1.000000 0.000000
vn -0.000000 -1.000000 0.000000
vn -0.000000 -1.000000 0.000000
vn -0.000000 -1.000000 0.000000
vn -0.000000 -1.000000 0.000000
vn -0.000000 -1.000000 0.000000
vn -0.000000 -1.000000 0.000000
vn -0.000000 -1.000000 0.000000
vn -0.000000 -1.000000 0.000000
vn -0.000000 -1.000000 0.000000
vn -0.000000 -1.000000 0.000000
vn -0.000000 -1.000000 0.000000
vn -0.000000 -1.000000 0.000000
vn -0.000000 -1.000000 0.000000
vn -0.000000 -1.000000 0.000000
vn -0.000000 -1.000000 0.000000
vn -0.000000 -1.000000 0.000000
vn -0.000000 -1.000000 0.000000
vn -0.000000 -1.000000 0.000000
vn -0.000000 -1.000000 0.000000
vn -0.000000 -1.000000 0.000000
vn -0.000000 -1.000000 0.000000
vn -0.000000 -1.000000 0.000000
vn -0.000000 -1.000000 0.000000
vn -0.000000 -1.000000 0.000000
vn -0.000000 -1.000000 0.000000
vn -0.000000 -1.000000 0.000000
vn -0.000000 -1.000000 0.000000
vn -0.000000 -1.000000 0.000000
vn 0.000000 -1.000000 0.000000
vn 0.000000 -1.000000 0.000000
vn 0.000000 -1.000000 0.000000
vn 1.000000 0.000000 0.000000
vn 1.000000 0.000000 0.000000
vn 1.000000 0.000000 0.000000
vn 1.000000 0.000000 0.000000
vn 1.000000 0.000000 0.000000
vn 1.000000 0.000000 0.000000
vn 0.838961 0.000000 -0.544191
vn 0.838961 0.000000 -0.544191
vn 0.838961 0.000000 -0.544191
vn 0.838961 0.000000 -0.544191
vn 0.838961 0.000000 -0.544191
vn 0.838961 0.000000 -0.544191
vn -1.000000 0.000000 0.000000
vn -1.000000 0.000000 0.000000
vn -1.000000 0.000000 0.000000
vn -1.000000 0.000000 0.000000
vn -1.000000 0.000000 0.000000
vn -1.000000 0.000000 0.000000
vn -0.838961 0.000000 0.544191
vn -0.838961 0.000000 0.544191
vn -0.838961 0.000000 0.544191
vn -0.838961 0.000000 0.544191
vn -0.838961 0.000000 0.544191
vn -0.838961 0.000000 0.544191
vn -0.000000 0.000000 -1.000000
vn -0.000000 0.000000 -1.000000
vn -0.000000 0.000000 -1.000000
vn -0.000000 0.000000 -1.000000
vn -0.000000 0.000000 -1.000000
vn -0.000000 0.000000 -1.000000
vn -0.482605 0.000000 -0.875838
vn -0.482605 0.000000 -0.875838
vn -0.482605 0.000000 -0.875838
vn -0.482605 0.000000 -0.875838
vn -0.482605 0.000000 -0.875838
vn -0.482605 0.000000 -0.875838
vn -0.000000 0.000000 1.000000
vn -0.000000 0.000000 1.000000
vn -0.000000 0.000000 1.000000
vn -0.000000 0.000000 1.000000
vn -0.000000 0.000000 1.000000
vn -0.000000 0.000000 1.000000
vn 0.482605 0.000000 0.875838
vn 0.482605 0.000000 0.875838
vn 0.482605 0.000000 0.875838
vn 0.482605 0.000000 0.875838
vn 0.482605 0.000000 0.875838
vn 0.482605 0.000000 0.875838
vn -0.482605 0.000000 0.875838
vn -0.482605 0.000000 0.875838
vn -0.482605 0.000000 0.875838
vn -0.482605 0.000000 0.875838
vn -0.482605 0.000000 0.875838
vn -0.482605 0.000000 0.875838
vn -0.838961 0.000000 -0.544191
vn -0.838961 0.000000 -0.544191
vn -0.838961 0.000000 -0.544191
vn -0.838961 0.000000 -0.544191
vn -0.838961 0.000000 -0.544191
vn -0.838961 0.000000 -0.544191
vn 0.838961 0.000000 0.544191
vn 0.838961 0.000000 0.544191
vn 0.838961 0.000000 0.544191
vn 0.838961 0.000000 0.544191
vn 0.838961 0.000000 0.544191
vn 0.838961 0.000000 0.544191
vn 0.482605 0.000000 -0.875838
vn 0.482605 0.000000 -0.875838
vn 0.482605 0.000000 -0.875838
vn 0.482605 0.000000 -0.875838
vn 0.482605 0.000000 -0.875838
vn 0.482605 0.000000 -0.875838
vn -0.000000 -1.000000 0.000000
vn -0.000000 -1.000000 0.000000
vn -0.000000 -1.000000 0.000000
vn -0.000000 -1.000000 0.000000
vn -0.000000 -1.000000 0.000000
vn -0.000000 -1.000000 0.000000
vn -0.000000 -1.000000 0.000000
vn -0.000000 -1.000000 0.000000
vn -0.000000 -1.000000 0.000000
vn -0.000000 -1.000000 0.000000
vn -0.000000 -1.000000 0.000000
vn -0.000000 -1.000000 0.000000
vn -0.000000 -1.000000 0.000000
vn -0.000000 -1.000000 0.000000
vn -0.000000 -1.000000 0.000000
vn -0.000000 -1.000000 0.000000
vn -0.000000 -1.000000 0.000000
vn -0.000000 -1.000000 0.000000
vn -0.000000 -1.000000 0.000000
vn -0.000000 -1.000000 0.000000
vn -0.000000 -1.000000 0.000000
vn -0.000000 -1.000000 0.000000
vn -0.000000 -1.000000 0.000000
vn -0.000000 -1.000000 0.000000
vn 0.000001 -1.000000 0.000000
vn 0.000001 -1.000000 0.000000
vn 0.000001 -1.000000 0.000000
vn -0.000000 -1.000000 0.000000
vn -0.000000 -1.000000 0.000000
vn -0.000000 -1.000000 0.000000
vn -0.000000 -1.000000 0.000000
vn -0.000000 -1.000000 0.000000
vn -0.000000 -1.000000 0.000000
vn -0.000000 -1.000000 0.000000
vn -0.000000 -1.000000 0.000000
vn -0.000000 -1.000000 0.000000
vn 0.000000 -1.000000 0.000000
vn 0.000000 -1.000000 0.000000
vn 0.000000 -1.000000 0.000000
vn 0.000001 -1.000000 0.000000
vn 0.000001 -1.000000 0.000000
vn 0.000001 -1.000000 0.000000
vn 0.000000 -1.000000 0.000000
vn 0.000000 -1.000000 0.000000
vn 0.000000 -1.000000 0.000000
vn -0.000001 -1.000000 0.000000
vn -0.000001 -1.000000 0.000000
vn -0.000001 -1.000000 0.000000
vn -0.000000 -1.000000 0.000000
vn -0.000000 -1.000000 0.000000
vn -0.000000 -1.000000 0.000000
vn -0.000000 -1.000000 0.000000
vn -0.000000 -1.000000 0.000000
vn -0.000000 -1.000000 0.000000
vn -0.000000 -1.000000 0.000000
vn -0.000000 -1.000000 0.000000
vn -0.000000 -1.000000 0.000000
vn -0.000000 -1.000000 0.000000
vn -0.000000 -1.000000 0.000000
vn -0.000000 -1.000000 0.000000
vn -0.000000 -1.000000 0.000000
vn -0.000000 -1.000000 0.000000
vn -0.000000 -1.000000 0.000000
vn -0.000001 -1.000000 0.000000
vn -0.000001 -1.000000 0.000000
vn -0.000001 -1.000000 0.000000
vn -0.000001 -1.000000 0.000000
vn -0.000001 -1.000000 0.000000
vn -0.000001 -1.000000 0.000000
vn -0.000000 -1.000000 0.000000
vn -0.000000 -1.000000 0.000000
vn -0.000000 -1.000000 0.000000

g Material.001
f 3/1/1 1/2/2 2/3/3
f 6/4/4 4/5/5 5/6/6
f 9/7/7 7/8/8 8/9/9
f 12/10/10 10/11/11 11/12/12
f 15/13/13 13/14/14 14/15/15
f 18/16/16 16/17/17 17/18/18
f 21/19/19 19/20/20 20/21/21
f 24/22/22 22/23/23 23/24/24
f 27/25/25 25/26/26 26/27/27
f 30/28/28 28/29/29 29/30/30
f 33/31/31 31/32/32 32/33/33
f 36/34/34 34/35/35 35/36/36
f 39/37/37 37/38/38 38/39/39
f 42/40/40 40/41/41 41/42/42
f 45/43/43 43/44/44 44/45/45
f 48/46/46 46/47/47 47/48/48
f 51/49/49 49/50/50 50/51/51
f 54/52/52 52/53/53 53/54/54
f 57/55/55 55/56/56 56/57/57
f 60/58/58 58/59/59 59/60/60
f 63/61/61 61/62/62 62/63/63
f 66/64/64 64/65/65 65/66/66
f 69/67/67 67/68/68 68/69/69
f 72/70/70 70/71/71 71/72/72
f 75/73/73 73/74/74 74/75/75
f 78/76/76 76/77/77 77/78/78
f 81/79/79 79/80/80 80/81/81
f 84/82/82 82/83/83 83/84/84
f 87/85/85 85/86/86 86/87/87
f 90/88/88 88/89/89 89/90/90
f 93/91/91 91/92/92 92/93/93
f 96/94/94 94/95/95 95/96/96
f 99/97/97 97/98/98 98/99/99
f 102/100/100 100/101/101 101/102/102
f 105/103/103 103/104/104 104/105/105
f 108/106/106 106/107/107 107/108/108
f 111/109/109 109/110/110 110/111/111
f 114/112/112 112/113/113 113/114/114
f 117/115/115 115/116/116 116/117/117
f 120/118/118 118/119/119 119/120/120
f 123/121/121 121/122/122 122/123/123
f 126/124/124 124/125/125 125/126/126
f 129/127/127 127/128/128 128/129/129
f 132/130/130 130/131/131 131/132/132
f 135/133/133 133/134/134 134/135/135
f 138/136/136 136/137/137 137/138/138
f 141/139/139 139/140/140 140/141/141
f 144/142/142 142/143/143 143/144/144
f 147/145/145 145/146/146 146/147/147
f 150/148/148 148/149/149 149/150/150
f 153/151/151 151/152/152 152/153/153
f 156/154/154 154/155/155 155/156/156
f 159/157/157 157/158/158 158/159/159
f 162/160/160 160/161/161 161/162/162
f 165/163/163 163/164/164 164/165/165
f 168/166/166 166/167/167 167/168/168
f 171/169/169 169/170/170 170/171/171
f 174/172/172 172/173/173 173/174/174
f 177/175/175 175/176/176 176/177/177
f 180/178/178 178/179/179 179/180/180
f 183/181/181 181/182/182 182/183/183
f 186/184/184 184/185/185 185/186/186
f 189/187/187 187/188/188 188/189/189
f 192/190/190 190/191/191 191/192/192
f 195/193/193 193/194/194 194/195/195
f 198/196/196 196/197/197 197/198/198
f 201/199/199 199/200/200 200/201/201
f 204/202/202 202/203/203 203/204/204
f 207/205/205 205/206/206 206/207/207
f 210/208/208 208/209/209 209/210/210
f 213/211/211 211/212/212 212/213/213
f 216/214/214 214/215/215 215/216/216
f 219/217/217 217/218/218 218/219/219
f 222/220/220 220/221/221 221/222/222
f 225/223/223 223/224/224 224/225/225
f 228/226/226 226/227/227 227/228/228
f 231/229/229 229/230/230 230/231/231
f 234/232/232 232/233/233 233/234/234
f 237/235/235 235/236/236 236/237/237
f 240/238/238 238/239/239 239/240/240
f 243/241/241 241/242/242 242/243/243
f 246/244/244 244/245/245 245/246/246
f 249/247/247 247/248/248 248/249/249
f 252/250/250 250/251/251 251/252/252
f 255/253/253 253/254/254 254/255/255
f 258/256/256 256/257/257 257/258/258
f 261/259/259 259/260/260 260/261/261
f 264/262/262 262/263/263 263/264/264
f 267/265/265 265/266/266 266/267/267
f 270/268/268 268/269/269 269/270/270
f 273/271/271 271/272/272 272/273/273
f 276/274/274 274/275/275 275/276/276
f 279/277/277 277/278/278 278/279/279
f 282/280/280 280/281/281 281/282/282
f 285/283/283 283/284/284 284/285/285
f 288/286/286 286/287/287 287/288/288
f 291/289/289 289/290/290 290/291/291
f 294/292/292 292/293/293 293/294/294
f 297/295/295 295/296/296 296/297/297
f 300/298/298 298/299/299 299/300/300
f 303/301/301 301/302/302 302/303/303
f 306/304/304 304/305/305 305/306/306
f 309/307/307 307/308/308 308/309/309
f 312/310/310 310/311/311 311/312/312
f 315/313/313 313/314/314 314/315/315
f 318/316/316 316/317/317 317/318/318
f 321/319/319 319/320/320 320/321/321
f 324/322/322 322/323/323 323/324/324

