# Converted from B3D for Luanti (With Correct Normals)
# Object Name: multidecor_curtain_with_rings

v -0.750000 1.000000 -0.088889
v -0.750000 -1.000000 -0.088889
v -1.000000 -1.000000 -0.088889
v -1.000000 1.000000 -0.088889
v 1.000000 1.000000 -0.088889
v 1.000000 -1.000000 -0.088889
v 0.750000 -1.000000 0.111111
v 0.750000 1.000000 0.111111
v 0.750000 1.000000 0.111111
v 0.750000 -1.000000 0.111111
v 0.500000 -1.000000 0.111111
v 0.500000 1.000000 0.111111
v 0.500000 1.000000 0.111111
v 0.500000 -1.000000 0.111111
v 0.250000 -1.000000 -0.088889
v 0.250000 1.000000 -0.088889
v 0.250000 1.000000 -0.088889
v 0.250000 -1.000000 -0.088889
v -0.000000 -1.000000 -0.088889
v 0.000000 1.000000 -0.088889
v 0.000000 1.000000 -0.088889
v -0.000000 -1.000000 -0.088889
v -0.250000 -1.000000 0.111111
v -0.250000 1.000000 0.111111
v -0.250000 1.000000 0.111111
v -0.250000 -1.000000 0.111111
v -0.500000 -1.000000 0.111111
v -0.500000 1.000000 0.111111
v -0.500000 1.000000 0.111111
v -0.500000 -1.000000 0.111111
v -0.750000 -1.000000 -0.088889
v -0.750000 1.000000 -0.088889
v 0.268934 1.218764 0.187888
v 0.310355 1.360186 0.146466
v 0.239645 1.360186 0.075756
v 0.198223 1.218764 0.117177
v 0.310355 1.077343 0.146466
v 0.268934 1.218764 0.187888
v 0.198223 1.218764 0.117177
v 0.239645 1.077343 0.075756
v 0.510355 1.077343 -0.053533
v 0.410355 1.018764 0.046467
v 0.339645 1.018764 -0.024244
v 0.439645 1.077343 -0.124244
v 0.510355 1.360186 -0.053533
v 0.551777 1.218764 -0.094955
v 0.481066 1.218764 -0.165665
v 0.439645 1.360186 -0.124244
v 0.310355 1.360186 0.146466
v 0.410355 1.418764 0.046466
v 0.339645 1.418764 -0.024244
v 0.239645 1.360186 0.075756
v 0.410355 1.018764 0.046467
v 0.310355 1.077343 0.146466
v 0.239645 1.077343 0.075756
v 0.339645 1.018764 -0.024244
v 0.551777 1.218764 -0.094955
v 0.510355 1.077343 -0.053533
v 0.439645 1.077343 -0.124244
v 0.481066 1.218764 -0.165665
v 0.410355 1.418764 0.046466
v 0.510355 1.360186 -0.053533
v 0.439645 1.360186 -0.124244
v 0.339645 1.418764 -0.024244
v 0.307202 1.218764 0.149620
v 0.337415 1.321917 0.119407
v 0.310355 1.360186 0.146466
v 0.268934 1.218764 0.187888
v 0.337415 1.321917 0.119407
v 0.410355 1.364645 0.046466
v 0.410355 1.418764 0.046466
v 0.310355 1.360186 0.146466
v 0.410355 1.364645 0.046466
v 0.483296 1.321917 -0.026474
v 0.510355 1.360186 -0.053533
v 0.410355 1.418764 0.046466
v 0.483296 1.321917 -0.026474
v 0.513508 1.218764 -0.056686
v 0.551777 1.218764 -0.094955
v 0.510355 1.360186 -0.053533
v 0.513508 1.218764 -0.056686
v 0.483296 1.115611 -0.026474
v 0.510355 1.077343 -0.053533
v 0.551777 1.218764 -0.094955
v 0.483296 1.115611 -0.026474
v 0.410355 1.072884 0.046467
v 0.410355 1.018764 0.046467
v 0.510355 1.077343 -0.053533
v 0.410355 1.072884 0.046467
v 0.337415 1.115611 0.119407
v 0.310355 1.077343 0.146466
v 0.410355 1.018764 0.046467
v 0.337415 1.115611 0.119407
v 0.307202 1.218764 0.149620
v 0.268934 1.218764 0.187888
v 0.310355 1.077343 0.146466
v 0.266705 1.321917 0.048696
v 0.236492 1.218764 0.078909
v 0.198223 1.218764 0.117177
v 0.239645 1.360186 0.075756
v 0.339645 1.364645 -0.024244
v 0.266705 1.321917 0.048696
v 0.239645 1.360186 0.075756
v 0.339645 1.418764 -0.024244
v 0.412585 1.321917 -0.097184
v 0.339645 1.364645 -0.024244
v 0.339645 1.418764 -0.024244
v 0.439645 1.360186 -0.124244
v 0.442798 1.218764 -0.127397
v 0.412585 1.321917 -0.097184
v 0.439645 1.360186 -0.124244
v 0.481066 1.218764 -0.165665
v 0.412585 1.115611 -0.097184
v 0.442798 1.218764 -0.127397
v 0.481066 1.218764 -0.165665
v 0.439645 1.077343 -0.124244
v 0.339645 1.072884 -0.024244
v 0.412585 1.115611 -0.097184
v 0.439645 1.077343 -0.124244
v 0.339645 1.018764 -0.024244
v 0.266705 1.115611 0.048696
v 0.339645 1.072884 -0.024244
v 0.339645 1.018764 -0.024244
v 0.239645 1.077343 0.075756
v 0.236492 1.218764 0.078909
v 0.266705 1.115611 0.048696
v 0.239645 1.077343 0.075756
v 0.198223 1.218764 0.117177
v 0.307202 1.218764 0.149620
v 0.236492 1.218764 0.078909
v 0.266705 1.321917 0.048696
v 0.337415 1.321917 0.119407
v 0.337415 1.115611 0.119407
v 0.266705 1.115611 0.048696
v 0.236492 1.218764 0.078909
v 0.307202 1.218764 0.149620
v 0.337415 1.321917 0.119407
v 0.266705 1.321917 0.048696
v 0.339645 1.364645 -0.024244
v 0.410355 1.364645 0.046466
v 0.410355 1.364645 0.046466
v 0.339645 1.364645 -0.024244
v 0.412585 1.321917 -0.097184
v 0.483296 1.321917 -0.026474
v 0.483296 1.321917 -0.026474
v 0.412585 1.321917 -0.097184
v 0.442798 1.218764 -0.127397
v 0.513508 1.218764 -0.056686
v 0.513508 1.218764 -0.056686
v 0.442798 1.218764 -0.127397
v 0.412585 1.115611 -0.097184
v 0.483296 1.115611 -0.026474
v 0.483296 1.115611 -0.026474
v 0.412585 1.115611 -0.097184
v 0.339645 1.072884 -0.024244
v 0.410355 1.072884 0.046467
v 0.410355 1.072884 0.046467
v 0.339645 1.072884 -0.024244
v 0.266705 1.115611 0.048696
v 0.337415 1.115611 0.119407
v 0.445711 0.868764 0.011111
v 0.445711 1.068764 0.011111
v 0.375000 1.068764 0.081822
v 0.375000 0.868764 0.081822
v 0.375000 0.868764 0.081822
v 0.375000 1.068764 0.081822
v 0.304289 1.068764 0.011111
v 0.304289 0.868764 0.011111
v 0.304289 0.868764 0.011111
v 0.304289 1.068764 0.011111
v 0.375000 1.068764 -0.059600
v 0.375000 0.868764 -0.059600
v 0.375000 0.868764 -0.059600
v 0.375000 1.068764 -0.059600
v 0.445711 1.068764 0.011111
v 0.445711 0.868764 0.011111
v 0.375000 0.868764 0.081822
v 0.304289 0.868764 0.011111
v 0.375000 0.868764 -0.059600
v 0.445711 0.868764 0.011111
v 0.051777 1.218764 0.117177
v 0.010355 1.360186 0.075756
v -0.060355 1.360186 0.146466
v -0.018934 1.218764 0.187888
v 0.010355 1.077343 0.075756
v 0.051777 1.218764 0.117177
v -0.018934 1.218764 0.187888
v -0.060355 1.077343 0.146466
v -0.189645 1.077343 -0.124244
v -0.089645 1.018764 -0.024244
v -0.160355 1.018764 0.046466
v -0.260355 1.077343 -0.053534
v -0.189645 1.360186 -0.124244
v -0.231066 1.218764 -0.165666
v -0.301777 1.218764 -0.094955
v -0.260355 1.360186 -0.053534
v 0.010355 1.360186 0.075756
v -0.089645 1.418764 -0.024244
v -0.160355 1.418764 0.046466
v -0.060355 1.360186 0.146466
v -0.089645 1.018764 -0.024244
v 0.010355 1.077343 0.075756
v -0.060355 1.077343 0.146466
v -0.160355 1.018764 0.046466
v -0.231066 1.218764 -0.165666
v -0.189645 1.077343 -0.124244
v -0.260355 1.077343 -0.053534
v -0.301777 1.218764 -0.094955
v -0.089645 1.418764 -0.024244
v -0.189645 1.360186 -0.124244
v -0.260355 1.360186 -0.053534
v -0.160355 1.418764 0.046466
v 0.013508 1.218764 0.078909
v -0.016704 1.321917 0.048696
v 0.010355 1.360186 0.075756
v 0.051777 1.218764 0.117177
v -0.016704 1.321917 0.048696
v -0.089645 1.364645 -0.024244
v -0.089645 1.418764 -0.024244
v 0.010355 1.360186 0.075756
v -0.089645 1.364645 -0.024244
v -0.162585 1.321917 -0.097184
v -0.189645 1.360186 -0.124244
v -0.089645 1.418764 -0.024244
v -0.162585 1.321917 -0.097184
v -0.192798 1.218764 -0.127397
v -0.231066 1.218764 -0.165666
v -0.189645 1.360186 -0.124244
v -0.192798 1.218764 -0.127397
v -0.162585 1.115611 -0.097184
v -0.189645 1.077343 -0.124244
v -0.231066 1.218764 -0.165666
v -0.162585 1.115611 -0.097184
v -0.089645 1.072884 -0.024244
v -0.089645 1.018764 -0.024244
v -0.189645 1.077343 -0.124244
v -0.089645 1.072884 -0.024244
v -0.016704 1.115611 0.048696
v 0.010355 1.077343 0.075756
v -0.089645 1.018764 -0.024244
v -0.016704 1.115611 0.048696
v 0.013508 1.218764 0.078909
v 0.051777 1.218764 0.117177
v 0.010355 1.077343 0.075756
v -0.087415 1.321917 0.119407
v -0.057202 1.218764 0.149619
v -0.018934 1.218764 0.187888
v -0.060355 1.360186 0.146466
v -0.160355 1.364645 0.046466
v -0.087415 1.321917 0.119407
v -0.060355 1.360186 0.146466
v -0.160355 1.418764 0.046466
v -0.233296 1.321917 -0.026474
v -0.160355 1.364645 0.046466
v -0.160355 1.418764 0.046466
v -0.260355 1.360186 -0.053534
v -0.263508 1.218764 -0.056687
v -0.233296 1.321917 -0.026474
v -0.260355 1.360186 -0.053534
v -0.301777 1.218764 -0.094955
v -0.233296 1.115611 -0.026474
v -0.263508 1.218764 -0.056687
v -0.301777 1.218764 -0.094955
v -0.260355 1.077343 -0.053534
v -0.160355 1.072884 0.046466
v -0.233296 1.115611 -0.026474
v -0.260355 1.077343 -0.053534
v -0.160355 1.018764 0.046466
v -0.087415 1.115611 0.119407
v -0.160355 1.072884 0.046466
v -0.160355 1.018764 0.046466
v -0.060355 1.077343 0.146466
v -0.057202 1.218764 0.149619
v -0.087415 1.115611 0.119407
v -0.060355 1.077343 0.146466
v -0.018934 1.218764 0.187888
v 0.013508 1.218764 0.078909
v -0.057202 1.218764 0.149619
v -0.087415 1.321917 0.119407
v -0.016704 1.321917 0.048696
v -0.016704 1.115611 0.048696
v -0.087415 1.115611 0.119407
v -0.057202 1.218764 0.149619
v 0.013508 1.218764 0.078909
v -0.016704 1.321917 0.048696
v -0.087415 1.321917 0.119407
v -0.160355 1.364645 0.046466
v -0.089645 1.364645 -0.024244
v -0.089645 1.364645 -0.024244
v -0.160355 1.364645 0.046466
v -0.233296 1.321917 -0.026474
v -0.162585 1.321917 -0.097184
v -0.162585 1.321917 -0.097184
v -0.233296 1.321917 -0.026474
v -0.263508 1.218764 -0.056687
v -0.192798 1.218764 -0.127397
v -0.192798 1.218764 -0.127397
v -0.263508 1.218764 -0.056687
v -0.233296 1.115611 -0.026474
v -0.162585 1.115611 -0.097184
v -0.162585 1.115611 -0.097184
v -0.233296 1.115611 -0.026474
v -0.160355 1.072884 0.046466
v -0.089645 1.072884 -0.024244
v -0.089645 1.072884 -0.024244
v -0.160355 1.072884 0.046466
v -0.087415 1.115611 0.119407
v -0.016704 1.115611 0.048696
v -0.125000 0.868764 -0.059600
v -0.125000 1.068764 -0.059600
v -0.054289 1.068764 0.011111
v -0.054289 0.868764 0.011111
v -0.054289 0.868764 0.011111
v -0.054289 1.068764 0.011111
v -0.125000 1.068764 0.081822
v -0.125000 0.868764 0.081822
v -0.125000 0.868764 0.081822
v -0.125000 1.068764 0.081822
v -0.195711 1.068764 0.011111
v -0.195711 0.868764 0.011111
v -0.195711 0.868764 0.011111
v -0.195711 1.068764 0.011111
v -0.125000 1.068764 -0.059600
v -0.125000 0.868764 -0.059600
v -0.054289 0.868764 0.011111
v -0.125000 0.868764 0.081822
v -0.195711 0.868764 0.011111
v -0.125000 0.868764 -0.059600
v -0.731066 1.218764 0.187888
v -0.689645 1.360186 0.146467
v -0.760355 1.360186 0.075756
v -0.801777 1.218764 0.117177
v -0.689645 1.077343 0.146466
v -0.731066 1.218764 0.187888
v -0.801777 1.218764 0.117177
v -0.760355 1.077343 0.075756
v -0.489645 1.077343 -0.053533
v -0.589645 1.018764 0.046467
v -0.660355 1.018764 -0.024244
v -0.560355 1.077343 -0.124244
v -0.489645 1.360186 -0.053533
v -0.448223 1.218764 -0.094955
v -0.518934 1.218764 -0.165665
v -0.560355 1.360186 -0.124244
v -0.689645 1.360186 0.146467
v -0.589645 1.418764 0.046467
v -0.660355 1.418764 -0.024244
v -0.760355 1.360186 0.075756
v -0.589645 1.018764 0.046467
v -0.689645 1.077343 0.146466
v -0.760355 1.077343 0.075756
v -0.660355 1.018764 -0.024244
v -0.448223 1.218764 -0.094955
v -0.489645 1.077343 -0.053533
v -0.560355 1.077343 -0.124244
v -0.518934 1.218764 -0.165665
v -0.589645 1.418764 0.046467
v -0.489645 1.360186 -0.053533
v -0.560355 1.360186 -0.124244
v -0.660355 1.418764 -0.024244
v -0.692798 1.218764 0.149620
v -0.662585 1.321917 0.119407
v -0.689645 1.360186 0.146467
v -0.731066 1.218764 0.187888
v -0.662585 1.321917 0.119407
v -0.589645 1.364645 0.046467
v -0.589645 1.418764 0.046467
v -0.689645 1.360186 0.146467
v -0.589645 1.364645 0.046467
v -0.516704 1.321917 -0.026474
v -0.489645 1.360186 -0.053533
v -0.589645 1.418764 0.046467
v -0.516704 1.321917 -0.026474
v -0.486492 1.218764 -0.056686
v -0.448223 1.218764 -0.094955
v -0.489645 1.360186 -0.053533
v -0.486492 1.218764 -0.056686
v -0.516704 1.115611 -0.026474
v -0.489645 1.077343 -0.053533
v -0.448223 1.218764 -0.094955
v -0.516704 1.115611 -0.026474
v -0.589645 1.072884 0.046467
v -0.589645 1.018764 0.046467
v -0.489645 1.077343 -0.053533
v -0.589645 1.072884 0.046467
v -0.662585 1.115611 0.119407
v -0.689645 1.077343 0.146466
v -0.589645 1.018764 0.046467
v -0.662585 1.115611 0.119407
v -0.692798 1.218764 0.149620
v -0.731066 1.218764 0.187888
v -0.689645 1.077343 0.146466
v -0.733295 1.321917 0.048696
v -0.763508 1.218764 0.078909
v -0.801777 1.218764 0.117177
v -0.760355 1.360186 0.075756
v -0.660355 1.364645 -0.024244
v -0.733295 1.321917 0.048696
v -0.760355 1.360186 0.075756
v -0.660355 1.418764 -0.024244
v -0.587415 1.321917 -0.097184
v -0.660355 1.364645 -0.024244
v -0.660355 1.418764 -0.024244
v -0.560355 1.360186 -0.124244
v -0.557202 1.218764 -0.127397
v -0.587415 1.321917 -0.097184
v -0.560355 1.360186 -0.124244
v -0.518934 1.218764 -0.165665
v -0.587415 1.115611 -0.097184
v -0.557202 1.218764 -0.127397
v -0.518934 1.218764 -0.165665
v -0.560355 1.077343 -0.124244
v -0.660355 1.072884 -0.024244
v -0.587415 1.115611 -0.097184
v -0.560355 1.077343 -0.124244
v -0.660355 1.018764 -0.024244
v -0.733295 1.115611 0.048696
v -0.660355 1.072884 -0.024244
v -0.660355 1.018764 -0.024244
v -0.760355 1.077343 0.075756
v -0.763508 1.218764 0.078909
v -0.733295 1.115611 0.048696
v -0.760355 1.077343 0.075756
v -0.801777 1.218764 0.117177
v -0.692798 1.218764 0.149620
v -0.763508 1.218764 0.078909
v -0.733295 1.321917 0.048696
v -0.662585 1.321917 0.119407
v -0.662585 1.115611 0.119407
v -0.733295 1.115611 0.048696
v -0.763508 1.218764 0.078909
v -0.692798 1.218764 0.149620
v -0.662585 1.321917 0.119407
v -0.733295 1.321917 0.048696
v -0.660355 1.364645 -0.024244
v -0.589645 1.364645 0.046467
v -0.589645 1.364645 0.046467
v -0.660355 1.364645 -0.024244
v -0.587415 1.321917 -0.097184
v -0.516704 1.321917 -0.026474
v -0.516704 1.321917 -0.026474
v -0.587415 1.321917 -0.097184
v -0.557202 1.218764 -0.127397
v -0.486492 1.218764 -0.056686
v -0.486492 1.218764 -0.056686
v -0.557202 1.218764 -0.127397
v -0.587415 1.115611 -0.097184
v -0.516704 1.115611 -0.026474
v -0.516704 1.115611 -0.026474
v -0.587415 1.115611 -0.097184
v -0.660355 1.072884 -0.024244
v -0.589645 1.072884 0.046467
v -0.589645 1.072884 0.046467
v -0.660355 1.072884 -0.024244
v -0.733295 1.115611 0.048696
v -0.662585 1.115611 0.119407
v -0.554289 0.868764 0.011111
v -0.554289 1.068764 0.011111
v -0.625000 1.068764 0.081822
v -0.625000 0.868764 0.081822
v -0.625000 0.868764 0.081822
v -0.625000 1.068764 0.081822
v -0.695711 1.068764 0.011111
v -0.695711 0.868764 0.011111
v -0.695711 0.868764 0.011111
v -0.695711 1.068764 0.011111
v -0.625000 1.068764 -0.059600
v -0.625000 0.868764 -0.059600
v -0.625000 0.868764 -0.059600
v -0.625000 1.068764 -0.059600
v -0.554289 1.068764 0.011111
v -0.554289 0.868764 0.011111
v -0.625000 0.868764 0.081822
v -0.695711 0.868764 0.011111
v -0.625000 0.868764 -0.059600
v -0.554289 0.868764 0.011111

vt 1.000000 1.000000
vt 0.000000 0.875000
vt 1.000000 0.875000
vt 0.000000 1.000000
vt 0.000000 0.875000
vt 1.000000 1.000000
vt 1.000000 0.125000
vt 0.000000 0.000000
vt 1.000000 0.000000
vt 0.000000 0.125000
vt 0.000000 0.000000
vt 1.000000 0.125000
vt 1.000000 0.250000
vt 0.000000 0.125000
vt 1.000000 0.125000
vt 0.000000 0.250000
vt 0.000000 0.125000
vt 1.000000 0.250000
vt 1.000000 0.375000
vt 0.000000 0.250000
vt 1.000000 0.250000
vt 0.000000 0.375000
vt 0.000000 0.250000
vt 1.000000 0.375000
vt 1.000000 0.500000
vt 0.000000 0.375000
vt 1.000000 0.375000
vt 0.000000 0.500000
vt 0.000000 0.375000
vt 1.000000 0.500000
vt 1.000000 0.625000
vt 0.000000 0.500000
vt 1.000000 0.500000
vt 0.000000 0.625000
vt 0.000000 0.500000
vt 1.000000 0.625000
vt 1.000000 0.750000
vt 0.000000 0.625000
vt 1.000000 0.625000
vt 0.000000 0.750000
vt 0.000000 0.625000
vt 1.000000 0.750000
vt 1.000000 0.875000
vt 0.000000 0.750000
vt 1.000000 0.750000
vt 0.000000 0.875000
vt 0.000000 0.750000
vt 1.000000 0.875000
vt 0.939246 0.531971
vt 0.879571 0.623319
vt 0.879571 0.531971
vt 0.939246 0.623319
vt 0.879571 0.623319
vt 0.939246 0.531971
vt 0.758782 0.862740
vt 0.818457 0.771392
vt 0.818457 0.862740
vt 0.758782 0.771392
vt 0.818457 0.771392
vt 0.758782 0.862740
vt 0.758782 0.680045
vt 0.818457 0.588698
vt 0.818457 0.680045
vt 0.758782 0.588698
vt 0.818457 0.588698
vt 0.758782 0.680045
vt 0.939246 0.257929
vt 0.879571 0.349276
vt 0.879571 0.257929
vt 0.939246 0.349277
vt 0.879571 0.349276
vt 0.939246 0.257929
vt 0.939246 0.440624
vt 0.879571 0.531971
vt 0.879571 0.440624
vt 0.939246 0.531971
vt 0.879571 0.531971
vt 0.939246 0.440624
vt 0.758782 0.771392
vt 0.818457 0.680045
vt 0.818457 0.771392
vt 0.758782 0.680045
vt 0.818457 0.680045
vt 0.758782 0.771392
vt 0.758782 0.588698
vt 0.818457 0.497350
vt 0.818457 0.588698
vt 0.758782 0.497350
vt 0.818457 0.497350
vt 0.758782 0.588698
vt 0.939246 0.349277
vt 0.879571 0.440624
vt 0.879571 0.349276
vt 0.939246 0.440624
vt 0.879571 0.440624
vt 0.939246 0.349277
vt 0.634514 0.699712
vt 0.555526 0.669874
vt 0.622155 0.669874
vt 0.543167 0.699712
vt 0.555526 0.669874
vt 0.634514 0.699712
vt 0.699106 0.635120
vt 0.622155 0.669874
vt 0.669268 0.622761
vt 0.634514 0.699712
vt 0.622155 0.669874
vt 0.699106 0.635120
vt 0.699106 0.543772
vt 0.669268 0.622761
vt 0.669268 0.556132
vt 0.699106 0.635120
vt 0.669268 0.622761
vt 0.699106 0.543772
vt 0.634514 0.479180
vt 0.669268 0.556132
vt 0.622155 0.509018
vt 0.699106 0.543772
vt 0.669268 0.556132
vt 0.634514 0.479180
vt 0.543166 0.479180
vt 0.622155 0.509018
vt 0.555526 0.509018
vt 0.634514 0.479180
vt 0.622155 0.509018
vt 0.543166 0.479180
vt 0.478574 0.543773
vt 0.555526 0.509018
vt 0.508412 0.556132
vt 0.543166 0.479180
vt 0.555526 0.509018
vt 0.478574 0.543773
vt 0.478574 0.635120
vt 0.508412 0.556132
vt 0.508412 0.622761
vt 0.478574 0.543773
vt 0.508412 0.556132
vt 0.478574 0.635120
vt 0.543167 0.699712
vt 0.508412 0.622761
vt 0.555526 0.669874
vt 0.478574 0.635120
vt 0.508412 0.622761
vt 0.543167 0.699712
vt 0.413263 0.478461
vt 0.334275 0.448623
vt 0.400904 0.448623
vt 0.321915 0.478461
vt 0.334275 0.448623
vt 0.413263 0.478461
vt 0.321915 0.478461
vt 0.287161 0.401510
vt 0.334275 0.448623
vt 0.257323 0.413869
vt 0.287161 0.401510
vt 0.321915 0.478461
vt 0.257323 0.413869
vt 0.287161 0.334881
vt 0.287161 0.401510
vt 0.257323 0.322521
vt 0.287161 0.334881
vt 0.257323 0.413869
vt 0.257323 0.322521
vt 0.334275 0.287767
vt 0.287161 0.334881
vt 0.321915 0.257929
vt 0.334275 0.287767
vt 0.257323 0.322521
vt 0.321915 0.257929
vt 0.400904 0.287767
vt 0.334275 0.287767
vt 0.413263 0.257929
vt 0.400904 0.287767
vt 0.321915 0.257929
vt 0.413263 0.257929
vt 0.448018 0.334881
vt 0.400904 0.287767
vt 0.477855 0.322521
vt 0.448018 0.334881
vt 0.413263 0.257929
vt 0.477855 0.322521
vt 0.448018 0.401510
vt 0.448018 0.334881
vt 0.477855 0.413869
vt 0.448018 0.401510
vt 0.477855 0.322521
vt 0.477855 0.413869
vt 0.400904 0.448623
vt 0.448018 0.401510
vt 0.413263 0.478461
vt 0.400904 0.448623
vt 0.477855 0.413869
vt 0.362142 0.190234
vt 0.257323 0.181723
vt 0.327047 0.158819
vt 0.330341 0.257210
vt 0.257323 0.181723
vt 0.362142 0.190234
vt 0.327047 0.158819
vt 0.260205 0.078783
vt 0.327892 0.109721
vt 0.257323 0.181723
vt 0.260205 0.078783
vt 0.327047 0.158819
vt 0.410117 0.186353
vt 0.330341 0.257210
vt 0.362142 0.190234
vt 0.436082 0.256460
vt 0.330341 0.257210
vt 0.410117 0.186353
vt 0.442361 0.149039
vt 0.436082 0.256460
vt 0.410117 0.186353
vt 0.510185 0.180823
vt 0.436082 0.256460
vt 0.442361 0.149039
vt 0.439789 0.099771
vt 0.510185 0.180823
vt 0.442361 0.149039
vt 0.510185 0.075142
vt 0.510185 0.180823
vt 0.439789 0.099771
vt 0.404246 0.067253
vt 0.510185 0.075142
vt 0.439789 0.099771
vt 0.435998 0.000359
vt 0.510185 0.075142
vt 0.404246 0.067253
vt 0.357240 0.070558
vt 0.435998 0.000359
vt 0.404246 0.067253
vt 0.330925 0.001821
vt 0.435998 0.000359
vt 0.357240 0.070558
vt 0.327892 0.109721
vt 0.330925 0.001821
vt 0.357240 0.070558
vt 0.260205 0.078783
vt 0.330925 0.001821
vt 0.327892 0.109721
vt 0.376674 0.700431
vt 0.316999 0.819782
vt 0.316999 0.700431
vt 0.376674 0.819782
vt 0.316999 0.819782
vt 0.376674 0.700431
vt 0.436350 0.700431
vt 0.376674 0.819782
vt 0.376674 0.700431
vt 0.436350 0.819782
vt 0.376674 0.819782
vt 0.436350 0.700431
vt 0.496025 0.700431
vt 0.436350 0.819782
vt 0.436350 0.700431
vt 0.496025 0.819782
vt 0.436350 0.819782
vt 0.496025 0.700431
vt 0.316999 0.700431
vt 0.257323 0.819782
vt 0.257323 0.700431
vt 0.316999 0.819782
vt 0.257323 0.819782
vt 0.316999 0.700431
vt 0.496025 0.819782
vt 0.436350 0.879458
vt 0.436350 0.819782
vt 0.496025 0.879458
vt 0.436350 0.879458
vt 0.496025 0.819782
vt 0.819176 0.588698
vt 0.878852 0.497350
vt 0.878852 0.588698
vt 0.819176 0.497350
vt 0.878852 0.497350
vt 0.819176 0.588698
vt 0.999641 0.257929
vt 0.939965 0.349276
vt 0.939965 0.257929
vt 0.999641 0.349276
vt 0.939965 0.349276
vt 0.999641 0.257929
vt 0.999641 0.440624
vt 0.939965 0.531971
vt 0.939965 0.440624
vt 0.999641 0.531971
vt 0.939965 0.531971
vt 0.999641 0.440624
vt 0.819176 0.862740
vt 0.878852 0.771392
vt 0.878852 0.862740
vt 0.819176 0.771392
vt 0.878852 0.771392
vt 0.819176 0.862740
vt 0.819176 0.680045
vt 0.878852 0.588698
vt 0.878852 0.680045
vt 0.819176 0.588698
vt 0.878852 0.588698
vt 0.819176 0.680045
vt 0.999641 0.349276
vt 0.939965 0.440624
vt 0.939965 0.349276
vt 0.999641 0.440624
vt 0.939965 0.440624
vt 0.999641 0.349276
vt 0.999641 0.531971
vt 0.939965 0.623319
vt 0.939965 0.531971
vt 0.999641 0.623319
vt 0.939965 0.623319
vt 0.999641 0.531971
vt 0.819176 0.771392
vt 0.878852 0.680045
vt 0.878852 0.771392
vt 0.819176 0.680045
vt 0.878852 0.680045
vt 0.819176 0.771392
vt 0.699106 0.322521
vt 0.669268 0.401510
vt 0.669268 0.334880
vt 0.699106 0.413869
vt 0.669268 0.401510
vt 0.699106 0.322521
vt 0.634514 0.257929
vt 0.669268 0.334880
vt 0.622155 0.287767
vt 0.699106 0.322521
vt 0.669268 0.334880
vt 0.634514 0.257929
vt 0.543166 0.257929
vt 0.622155 0.287767
vt 0.555526 0.287767
vt 0.634514 0.257929
vt 0.622155 0.287767
vt 0.543166 0.257929
vt 0.478574 0.322521
vt 0.555526 0.287767
vt 0.508412 0.334881
vt 0.543166 0.257929
vt 0.555526 0.287767
vt 0.478574 0.322521
vt 0.478574 0.413869
vt 0.508412 0.334881
vt 0.508412 0.401510
vt 0.478574 0.322521
vt 0.508412 0.334881
vt 0.478574 0.413869
vt 0.543167 0.478461
vt 0.508412 0.401510
vt 0.555526 0.448623
vt 0.478574 0.413869
vt 0.508412 0.401510
vt 0.543167 0.478461
vt 0.634514 0.478461
vt 0.555526 0.448623
vt 0.622155 0.448623
vt 0.543167 0.478461
vt 0.555526 0.448623
vt 0.634514 0.478461
vt 0.699106 0.413869
vt 0.622155 0.448623
vt 0.669268 0.401510
vt 0.634514 0.478461
vt 0.622155 0.448623
vt 0.699106 0.413869
vt 0.257323 0.543772
vt 0.334275 0.509018
vt 0.287161 0.556132
vt 0.321915 0.479180
vt 0.334275 0.509018
vt 0.257323 0.543772
vt 0.321915 0.479180
vt 0.400904 0.509018
vt 0.334275 0.509018
vt 0.413263 0.479180
vt 0.400904 0.509018
vt 0.321915 0.479180
vt 0.413263 0.479180
vt 0.448018 0.556132
vt 0.400904 0.509018
vt 0.477855 0.543772
vt 0.448018 0.556132
vt 0.413263 0.479180
vt 0.477855 0.543772
vt 0.448017 0.622761
vt 0.448018 0.556132
vt 0.477855 0.635120
vt 0.448017 0.622761
vt 0.477855 0.543772
vt 0.477855 0.635120
vt 0.400904 0.669874
vt 0.448017 0.622761
vt 0.413263 0.699712
vt 0.400904 0.669874
vt 0.477855 0.635120
vt 0.413263 0.699712
vt 0.334275 0.669874
vt 0.400904 0.669874
vt 0.321915 0.699712
vt 0.334275 0.669874
vt 0.413263 0.699712
vt 0.321915 0.699712
vt 0.287161 0.622761
vt 0.334275 0.669874
vt 0.257323 0.635120
vt 0.287161 0.622761
vt 0.321915 0.699712
vt 0.257323 0.635120
vt 0.287161 0.556132
vt 0.287161 0.622761
vt 0.257323 0.543772
vt 0.287161 0.556132
vt 0.257323 0.635120
vt 0.181563 0.001499
vt 0.099553 0.070960
vt 0.076229 0.000359
vt 0.149125 0.068889
vt 0.099553 0.070960
vt 0.181563 0.001499
vt 0.076229 0.000359
vt 0.066486 0.104793
vt 0.000359 0.072393
vt 0.099553 0.070960
vt 0.066486 0.104793
vt 0.076229 0.000359
vt 0.256604 0.076117
vt 0.149125 0.068889
vt 0.181563 0.001499
vt 0.186289 0.101510
vt 0.149125 0.068889
vt 0.256604 0.076117
vt 0.256604 0.181964
vt 0.186289 0.101510
vt 0.256604 0.076117
vt 0.189823 0.149546
vt 0.186289 0.101510
vt 0.256604 0.181964
vt 0.180283 0.254481
vt 0.189823 0.149546
vt 0.256604 0.181964
vt 0.158163 0.184311
vt 0.189823 0.149546
vt 0.180283 0.254481
vt 0.076900 0.250076
vt 0.158163 0.184311
vt 0.180283 0.254481
vt 0.109400 0.182997
vt 0.158163 0.184311
vt 0.076900 0.250076
vt 0.001348 0.177562
vt 0.109400 0.182997
vt 0.076900 0.250076
vt 0.070601 0.151534
vt 0.109400 0.182997
vt 0.001348 0.177562
vt 0.000359 0.072393
vt 0.070601 0.151534
vt 0.001348 0.177562
vt 0.066486 0.104793
vt 0.070601 0.151534
vt 0.000359 0.072393
vt 0.878852 0.377280
vt 0.759501 0.317605
vt 0.878852 0.317605
vt 0.759501 0.377280
vt 0.759501 0.317605
vt 0.878852 0.377280
vt 0.878852 0.436956
vt 0.759501 0.377280
vt 0.878852 0.377280
vt 0.759501 0.436956
vt 0.759501 0.377280
vt 0.878852 0.436956
vt 0.878852 0.496631
vt 0.759501 0.436956
vt 0.878852 0.436956
vt 0.759501 0.496631
vt 0.759501 0.436956
vt 0.878852 0.496631
vt 0.878852 0.317605
vt 0.759501 0.257929
vt 0.878852 0.257929
vt 0.759501 0.317605
vt 0.759501 0.257929
vt 0.878852 0.317605
vt 0.759501 0.496631
vt 0.699825 0.436956
vt 0.759501 0.436956
vt 0.699825 0.496631
vt 0.699825 0.436956
vt 0.759501 0.496631
vt 0.348670 0.939852
vt 0.257323 0.880177
vt 0.348670 0.880177
vt 0.257323 0.939852
vt 0.257323 0.880177
vt 0.348670 0.939852
vt 0.988821 0.939852
vt 0.897473 0.880177
vt 0.988821 0.880177
vt 0.897473 0.939852
vt 0.897473 0.880177
vt 0.988821 0.939852
vt 0.806126 0.939852
vt 0.714779 0.880177
vt 0.806126 0.880177
vt 0.714779 0.939852
vt 0.714779 0.880177
vt 0.806126 0.939852
vt 0.622713 0.939852
vt 0.531365 0.880177
vt 0.622713 0.880177
vt 0.531365 0.939852
vt 0.531365 0.880177
vt 0.622713 0.939852
vt 0.440018 0.939852
vt 0.348670 0.880177
vt 0.440018 0.880177
vt 0.348670 0.939852
vt 0.348670 0.880177
vt 0.440018 0.939852
vt 0.897473 0.939852
vt 0.806126 0.880177
vt 0.897473 0.880177
vt 0.806126 0.939852
vt 0.806126 0.880177
vt 0.897473 0.939852
vt 0.714779 0.939852
vt 0.623431 0.880177
vt 0.714779 0.880177
vt 0.623431 0.939852
vt 0.623431 0.880177
vt 0.714779 0.939852
vt 0.531365 0.939852
vt 0.440018 0.880177
vt 0.531365 0.880177
vt 0.440018 0.939852
vt 0.440018 0.880177
vt 0.531365 0.939852
vt 0.666844 0.000359
vt 0.701598 0.077311
vt 0.654485 0.030197
vt 0.731436 0.064952
vt 0.701598 0.077311
vt 0.666844 0.000359
vt 0.575497 0.000359
vt 0.654485 0.030197
vt 0.587856 0.030197
vt 0.666844 0.000359
vt 0.654485 0.030197
vt 0.575497 0.000359
vt 0.510904 0.064952
vt 0.587856 0.030197
vt 0.540742 0.077311
vt 0.575497 0.000359
vt 0.587856 0.030197
vt 0.510904 0.064952
vt 0.510904 0.156299
vt 0.540742 0.077311
vt 0.540742 0.143940
vt 0.510904 0.064952
vt 0.540742 0.077311
vt 0.510904 0.156299
vt 0.575496 0.220892
vt 0.540742 0.143940
vt 0.587856 0.191054
vt 0.510904 0.156299
vt 0.540742 0.143940
vt 0.575496 0.220892
vt 0.666844 0.220892
vt 0.587856 0.191054
vt 0.654485 0.191054
vt 0.575496 0.220892
vt 0.587856 0.191054
vt 0.666844 0.220892
vt 0.731436 0.156299
vt 0.654485 0.191054
vt 0.701598 0.143940
vt 0.666844 0.220892
vt 0.654485 0.191054
vt 0.731436 0.156299
vt 0.731436 0.064952
vt 0.701598 0.143940
vt 0.701598 0.077311
vt 0.731436 0.156299
vt 0.701598 0.143940
vt 0.731436 0.064952
vt 0.064952 0.736043
vt 0.030197 0.659092
vt 0.077311 0.706206
vt 0.000359 0.671451
vt 0.030197 0.659092
vt 0.064952 0.736043
vt 0.000359 0.671451
vt 0.030197 0.592463
vt 0.030197 0.659092
vt 0.000360 0.580104
vt 0.030197 0.592463
vt 0.000359 0.671451
vt 0.000360 0.580104
vt 0.077311 0.545349
vt 0.030197 0.592463
vt 0.064952 0.515511
vt 0.077311 0.545349
vt 0.000360 0.580104
vt 0.064952 0.515511
vt 0.143940 0.545349
vt 0.077311 0.545349
vt 0.156299 0.515511
vt 0.143940 0.545349
vt 0.064952 0.515511
vt 0.156299 0.515511
vt 0.191054 0.592463
vt 0.143940 0.545349
vt 0.220892 0.580104
vt 0.191054 0.592463
vt 0.156299 0.515511
vt 0.220892 0.580104
vt 0.191054 0.659092
vt 0.191054 0.592463
vt 0.220892 0.671451
vt 0.191054 0.659092
vt 0.220892 0.580104
vt 0.220892 0.671451
vt 0.143940 0.706206
vt 0.191054 0.659092
vt 0.156299 0.736043
vt 0.143940 0.706206
vt 0.220892 0.671451
vt 0.156299 0.736043
vt 0.077311 0.706206
vt 0.143940 0.706206
vt 0.064952 0.736043
vt 0.077311 0.706206
vt 0.156299 0.736043
vt 0.097892 0.324817
vt 0.178635 0.257815
vt 0.144667 0.323531
vt 0.073682 0.255199
vt 0.178635 0.257815
vt 0.097892 0.324817
vt 0.144667 0.323531
vt 0.250282 0.334229
vt 0.179428 0.358090
vt 0.178635 0.257815
vt 0.250282 0.334229
vt 0.144667 0.323531
vt 0.067987 0.361654
vt 0.073682 0.255199
vt 0.097892 0.324817
vt 0.000359 0.330692
vt 0.073682 0.255199
vt 0.067987 0.361654
vt 0.071187 0.412105
vt 0.000359 0.330692
vt 0.067987 0.361654
vt 0.000473 0.435352
vt 0.000359 0.330692
vt 0.071187 0.412105
vt 0.104433 0.447039
vt 0.000473 0.435352
vt 0.071187 0.412105
vt 0.070296 0.512309
vt 0.000473 0.435352
vt 0.104433 0.447039
vt 0.151242 0.444683
vt 0.070296 0.512309
vt 0.104433 0.447039
vt 0.175694 0.514792
vt 0.070296 0.512309
vt 0.151242 0.444683
vt 0.182654 0.407988
vt 0.175694 0.514792
vt 0.151242 0.444683
vt 0.250282 0.439764
vt 0.175694 0.514792
vt 0.182654 0.407988
vt 0.179428 0.358090
vt 0.250282 0.439764
vt 0.182654 0.407988
vt 0.250282 0.334229
vt 0.250282 0.439764
vt 0.179428 0.358090
vt 0.616095 0.700431
vt 0.556420 0.819782
vt 0.556420 0.700431
vt 0.616095 0.819782
vt 0.556420 0.819782
vt 0.616095 0.700431
vt 0.675771 0.700431
vt 0.616095 0.819782
vt 0.616095 0.700431
vt 0.675771 0.819782
vt 0.616095 0.819782
vt 0.675771 0.700431
vt 0.735447 0.700431
vt 0.675771 0.819782
vt 0.675771 0.700431
vt 0.735447 0.819782
vt 0.675771 0.819782
vt 0.735447 0.700431
vt 0.556420 0.700431
vt 0.496744 0.819782
vt 0.496744 0.700431
vt 0.556420 0.819782
vt 0.496744 0.819782
vt 0.556420 0.700431
vt 0.735447 0.819782
vt 0.675771 0.879458
vt 0.675771 0.819782
vt 0.735447 0.879458
vt 0.675771 0.879458
vt 0.735447 0.819782

vn -0.000000 -0.000000 -1.000000
vn -0.000000 -0.000000 -1.000000
vn -0.000000 -0.000000 -1.000000
vn -0.000000 0.000000 -1.000000
vn -0.000000 0.000000 -1.000000
vn -0.000000 0.000000 -1.000000
vn -0.624695 0.000000 -0.780869
vn -0.624695 0.000000 -0.780869
vn -0.624695 0.000000 -0.780869
vn -0.624695 0.000000 -0.780869
vn -0.624695 0.000000 -0.780869
vn -0.624695 0.000000 -0.780869
vn 0.000000 0.000000 -1.000000
vn 0.000000 0.000000 -1.000000
vn 0.000000 0.000000 -1.000000
vn -0.000000 0.000000 -1.000000
vn -0.000000 0.000000 -1.000000
vn -0.000000 0.000000 -1.000000
vn 0.624695 0.000000 -0.780869
vn 0.624695 0.000000 -0.780869
vn 0.624695 0.000000 -0.780869
vn 0.624695 -0.000000 -0.780869
vn 0.624695 -0.000000 -0.780869
vn 0.624695 -0.000000 -0.780869
vn 0.000000 0.000000 -1.000000
vn 0.000000 0.000000 -1.000000
vn 0.000000 0.000000 -1.000000
vn 0.000000 -0.000000 -1.000000
vn 0.000000 -0.000000 -1.000000
vn 0.000000 -0.000000 -1.000000
vn -0.624695 0.000000 -0.780869
vn -0.624695 0.000000 -0.780869
vn -0.624695 0.000000 -0.780869
vn -0.624695 0.000000 -0.780869
vn -0.624695 0.000000 -0.780869
vn -0.624695 0.000000 -0.780869
vn -0.000000 0.000000 -1.000000
vn -0.000000 0.000000 -1.000000
vn -0.000000 0.000000 -1.000000
vn -0.000000 0.000000 -1.000000
vn -0.000000 0.000000 -1.000000
vn -0.000000 0.000000 -1.000000
vn 0.624695 -0.000000 -0.780869
vn 0.624695 -0.000000 -0.780869
vn 0.624695 -0.000000 -0.780869
vn 0.624695 -0.000000 -0.780869
vn 0.624695 -0.000000 -0.780869
vn 0.624695 -0.000000 -0.780869
vn -0.653282 0.382683 0.653281
vn -0.653282 0.382683 0.653281
vn -0.653282 0.382683 0.653281
vn -0.653281 0.382683 0.653282
vn -0.653281 0.382683 0.653282
vn -0.653281 0.382683 0.653282
vn -0.653281 -0.382684 0.653281
vn -0.653281 -0.382684 0.653281
vn -0.653281 -0.382684 0.653281
vn -0.653282 -0.382684 0.653281
vn -0.653282 -0.382684 0.653281
vn -0.653282 -0.382684 0.653281
vn 0.270597 -0.923880 -0.270598
vn 0.270597 -0.923880 -0.270598
vn 0.270597 -0.923880 -0.270598
vn 0.270598 -0.923880 -0.270598
vn 0.270598 -0.923880 -0.270598
vn 0.270598 -0.923880 -0.270598
vn 0.653282 0.382683 -0.653281
vn 0.653282 0.382683 -0.653281
vn 0.653282 0.382683 -0.653281
vn 0.653282 0.382683 -0.653281
vn 0.653282 0.382683 -0.653281
vn 0.653282 0.382683 -0.653281
vn -0.270595 0.923881 0.270598
vn -0.270595 0.923881 0.270598
vn -0.270595 0.923881 0.270598
vn -0.270598 0.923880 0.270597
vn -0.270598 0.923880 0.270597
vn -0.270598 0.923880 0.270597
vn -0.270597 -0.923880 0.270598
vn -0.270597 -0.923880 0.270598
vn -0.270597 -0.923880 0.270598
vn -0.270598 -0.923880 0.270598
vn -0.270598 -0.923880 0.270598
vn -0.270598 -0.923880 0.270598
vn 0.653281 -0.382683 -0.653282
vn 0.653281 -0.382683 -0.653282
vn 0.653281 -0.382683 -0.653282
vn 0.653282 -0.382684 -0.653281
vn 0.653282 -0.382684 -0.653281
vn 0.653282 -0.382684 -0.653281
vn 0.270596 0.923880 -0.270597
vn 0.270596 0.923880 -0.270597
vn 0.270596 0.923880 -0.270597
vn 0.270598 0.923880 -0.270598
vn 0.270598 0.923880 -0.270598
vn 0.270598 0.923880 -0.270598
vn 0.707107 0.000000 0.707107
vn 0.707107 0.000000 0.707107
vn 0.707107 0.000000 0.707107
vn 0.707107 0.000000 0.707107
vn 0.707107 0.000000 0.707107
vn 0.707107 0.000000 0.707107
vn 0.707107 0.000000 0.707107
vn 0.707107 0.000000 0.707107
vn 0.707107 0.000000 0.707107
vn 0.707106 0.000000 0.707108
vn 0.707106 0.000000 0.707108
vn 0.707106 0.000000 0.707108
vn 0.707105 -0.000000 0.707109
vn 0.707105 -0.000000 0.707109
vn 0.707105 -0.000000 0.707109
vn 0.707106 0.000000 0.707107
vn 0.707106 0.000000 0.707107
vn 0.707106 0.000000 0.707107
vn 0.707107 0.000000 0.707107
vn 0.707107 0.000000 0.707107
vn 0.707107 0.000000 0.707107
vn 0.707107 -0.000000 0.707106
vn 0.707107 -0.000000 0.707106
vn 0.707107 -0.000000 0.707106
vn 0.707107 0.000000 0.707106
vn 0.707107 0.000000 0.707106
vn 0.707107 0.000000 0.707106
vn 0.707106 0.000000 0.707107
vn 0.707106 0.000000 0.707107
vn 0.707106 0.000000 0.707107
vn 0.707106 -0.000000 0.707108
vn 0.707106 -0.000000 0.707108
vn 0.707106 -0.000000 0.707108
vn 0.707105 0.000000 0.707108
vn 0.707105 0.000000 0.707108
vn 0.707105 0.000000 0.707108
vn 0.707106 0.000000 0.707108
vn 0.707106 0.000000 0.707108
vn 0.707106 0.000000 0.707108
vn 0.707107 0.000000 0.707107
vn 0.707107 0.000000 0.707107
vn 0.707107 0.000000 0.707107
vn 0.707106 -0.000000 0.707107
vn 0.707106 -0.000000 0.707107
vn 0.707106 -0.000000 0.707107
vn 0.707107 0.000000 0.707107
vn 0.707107 0.000000 0.707107
vn 0.707107 0.000000 0.707107
vn -0.707106 0.000000 -0.707107
vn -0.707106 0.000000 -0.707107
vn -0.707106 0.000000 -0.707107
vn -0.707106 0.000000 -0.707107
vn -0.707106 0.000000 -0.707107
vn -0.707106 0.000000 -0.707107
vn -0.707106 -0.000000 -0.707107
vn -0.707106 -0.000000 -0.707107
vn -0.707106 -0.000000 -0.707107
vn -0.707106 0.000000 -0.707107
vn -0.707106 0.000000 -0.707107
vn -0.707106 0.000000 -0.707107
vn -0.707107 0.000000 -0.707106
vn -0.707107 0.000000 -0.707106
vn -0.707107 0.000000 -0.707106
vn -0.707106 0.000000 -0.707108
vn -0.707106 0.000000 -0.707108
vn -0.707106 0.000000 -0.707108
vn -0.707108 0.000000 -0.707105
vn -0.707108 0.000000 -0.707105
vn -0.707108 0.000000 -0.707105
vn -0.707106 0.000000 -0.707107
vn -0.707106 0.000000 -0.707107
vn -0.707106 0.000000 -0.707107
vn -0.707107 -0.000000 -0.707107
vn -0.707107 -0.000000 -0.707107
vn -0.707107 -0.000000 -0.707107
vn -0.707106 0.000000 -0.707108
vn -0.707106 0.000000 -0.707108
vn -0.707106 0.000000 -0.707108
vn -0.707104 0.000000 -0.707109
vn -0.707104 0.000000 -0.707109
vn -0.707104 0.000000 -0.707109
vn -0.707106 0.000000 -0.707107
vn -0.707106 0.000000 -0.707107
vn -0.707106 0.000000 -0.707107
vn -0.707109 0.000000 -0.707105
vn -0.707109 0.000000 -0.707105
vn -0.707109 0.000000 -0.707105
vn -0.707106 0.000000 -0.707108
vn -0.707106 0.000000 -0.707108
vn -0.707106 0.000000 -0.707108
vn -0.707107 0.000000 -0.707107
vn -0.707107 0.000000 -0.707107
vn -0.707107 0.000000 -0.707107
vn -0.707107 0.000000 -0.707107
vn -0.707107 0.000000 -0.707107
vn -0.707107 0.000000 -0.707107
vn 0.653282 -0.382683 -0.653281
vn 0.653282 -0.382683 -0.653281
vn 0.653282 -0.382683 -0.653281
vn 0.653281 -0.382684 -0.653282
vn 0.653281 -0.382684 -0.653282
vn 0.653281 -0.382684 -0.653282
vn 0.653281 0.382684 -0.653281
vn 0.653281 0.382684 -0.653281
vn 0.653281 0.382684 -0.653281
vn 0.653281 0.382684 -0.653282
vn 0.653281 0.382684 -0.653282
vn 0.653281 0.382684 -0.653282
vn 0.270601 -0.923879 -0.270598
vn 0.270601 -0.923879 -0.270598
vn 0.270601 -0.923879 -0.270598
vn 0.270595 -0.923881 -0.270598
vn 0.270595 -0.923881 -0.270598
vn 0.270595 -0.923881 -0.270598
vn -0.270597 -0.923880 0.270598
vn -0.270597 -0.923880 0.270598
vn -0.270597 -0.923880 0.270598
vn -0.270600 -0.923879 0.270598
vn -0.270600 -0.923879 0.270598
vn -0.270600 -0.923879 0.270598
vn -0.653281 -0.382684 0.653281
vn -0.653281 -0.382684 0.653281
vn -0.653281 -0.382684 0.653281
vn -0.653281 -0.382684 0.653282
vn -0.653281 -0.382684 0.653282
vn -0.653281 -0.382684 0.653282
vn -0.653282 0.382683 0.653281
vn -0.653282 0.382683 0.653281
vn -0.653282 0.382683 0.653281
vn -0.653282 0.382683 0.653281
vn -0.653282 0.382683 0.653281
vn -0.653282 0.382683 0.653281
vn -0.270598 0.923879 0.270598
vn -0.270598 0.923879 0.270598
vn -0.270598 0.923879 0.270598
vn -0.270597 0.923880 0.270598
vn -0.270597 0.923880 0.270598
vn -0.270597 0.923880 0.270598
vn 0.270598 0.923879 -0.270598
vn 0.270598 0.923879 -0.270598
vn 0.270598 0.923879 -0.270598
vn 0.270599 0.923879 -0.270598
vn 0.270599 0.923879 -0.270598
vn 0.270599 0.923879 -0.270598
vn 0.707107 0.000000 0.707106
vn 0.707107 0.000000 0.707106
vn 0.707107 0.000000 0.707106
vn 0.707107 0.000000 0.707107
vn 0.707107 0.000000 0.707107
vn 0.707107 0.000000 0.707107
vn -0.707107 0.000000 0.707107
vn -0.707107 0.000000 0.707107
vn -0.707107 0.000000 0.707107
vn -0.707107 0.000000 0.707107
vn -0.707107 0.000000 0.707107
vn -0.707107 0.000000 0.707107
vn -0.707107 0.000000 -0.707107
vn -0.707107 0.000000 -0.707107
vn -0.707107 0.000000 -0.707107
vn -0.707107 0.000000 -0.707107
vn -0.707107 0.000000 -0.707107
vn -0.707107 0.000000 -0.707107
vn 0.707107 0.000000 -0.707107
vn 0.707107 0.000000 -0.707107
vn 0.707107 0.000000 -0.707107
vn 0.707107 0.000000 -0.707106
vn 0.707107 0.000000 -0.707106
vn 0.707107 0.000000 -0.707106
vn 0.000001 -1.000000 0.000000
vn 0.000001 -1.000000 0.000000
vn 0.000001 -1.000000 0.000000
vn -0.000000 -1.000000 0.000000
vn -0.000000 -1.000000 0.000000
vn -0.000000 -1.000000 0.000000
vn 0.653281 0.382683 0.653282
vn 0.653281 0.382683 0.653282
vn 0.653281 0.382683 0.653282
vn 0.653281 0.382683 0.653282
vn 0.653281 0.382683 0.653282
vn 0.653281 0.382683 0.653282
vn 0.653281 -0.382684 0.653282
vn 0.653281 -0.382684 0.653282
vn 0.653281 -0.382684 0.653282
vn 0.653282 -0.382684 0.653281
vn 0.653282 -0.382684 0.653281
vn 0.653282 -0.382684 0.653281
vn -0.270599 -0.923879 -0.270598
vn -0.270599 -0.923879 -0.270598
vn -0.270599 -0.923879 -0.270598
vn -0.270598 -0.923880 -0.270598
vn -0.270598 -0.923880 -0.270598
vn -0.270598 -0.923880 -0.270598
vn -0.653281 0.382683 -0.653282
vn -0.653281 0.382683 -0.653282
vn -0.653281 0.382683 -0.653282
vn -0.653281 0.382683 -0.653282
vn -0.653281 0.382683 -0.653282
vn -0.653281 0.382683 -0.653282
vn 0.270598 0.923880 0.270597
vn 0.270598 0.923880 0.270597
vn 0.270598 0.923880 0.270597
vn 0.270599 0.923879 0.270597
vn 0.270599 0.923879 0.270597
vn 0.270599 0.923879 0.270597
vn 0.270597 -0.923880 0.270598
vn 0.270597 -0.923880 0.270598
vn 0.270597 -0.923880 0.270598
vn 0.270598 -0.923880 0.270598
vn 0.270598 -0.923880 0.270598
vn 0.270598 -0.923880 0.270598
vn -0.653281 -0.382684 -0.653282
vn -0.653281 -0.382684 -0.653282
vn -0.653281 -0.382684 -0.653282
vn -0.653282 -0.382683 -0.653281
vn -0.653282 -0.382683 -0.653281
vn -0.653282 -0.382683 -0.653281
vn -0.270598 0.923880 -0.270597
vn -0.270598 0.923880 -0.270597
vn -0.270598 0.923880 -0.270597
vn -0.270597 0.923880 -0.270597
vn -0.270597 0.923880 -0.270597
vn -0.270597 0.923880 -0.270597
vn 0.707107 0.000000 -0.707107
vn 0.707107 0.000000 -0.707107
vn 0.707107 0.000000 -0.707107
vn 0.707107 -0.000000 -0.707107
vn 0.707107 -0.000000 -0.707107
vn 0.707107 -0.000000 -0.707107
vn 0.707107 0.000000 -0.707107
vn 0.707107 0.000000 -0.707107
vn 0.707107 0.000000 -0.707107
vn 0.707106 0.000000 -0.707108
vn 0.707106 0.000000 -0.707108
vn 0.707106 0.000000 -0.707108
vn 0.707105 -0.000000 -0.707108
vn 0.707105 -0.000000 -0.707108
vn 0.707105 -0.000000 -0.707108
vn 0.707106 0.000000 -0.707107
vn 0.707106 0.000000 -0.707107
vn 0.707106 0.000000 -0.707107
vn 0.707107 0.000000 -0.707106
vn 0.707107 0.000000 -0.707106
vn 0.707107 0.000000 -0.707106
vn 0.707107 -0.000000 -0.707107
vn 0.707107 -0.000000 -0.707107
vn 0.707107 -0.000000 -0.707107
vn 0.707107 0.000000 -0.707106
vn 0.707107 0.000000 -0.707106
vn 0.707107 0.000000 -0.707106
vn 0.707107 0.000000 -0.707107
vn 0.707107 0.000000 -0.707107
vn 0.707107 0.000000 -0.707107
vn 0.707107 -0.000000 -0.707107
vn 0.707107 -0.000000 -0.707107
vn 0.707107 -0.000000 -0.707107
vn 0.707105 0.000000 -0.707108
vn 0.707105 0.000000 -0.707108
vn 0.707105 0.000000 -0.707108
vn 0.707105 -0.000000 -0.707109
vn 0.707105 -0.000000 -0.707109
vn 0.707105 -0.000000 -0.707109
vn 0.707108 -0.000000 -0.707106
vn 0.707108 -0.000000 -0.707106
vn 0.707108 -0.000000 -0.707106
vn 0.707107 0.000000 -0.707107
vn 0.707107 0.000000 -0.707107
vn 0.707107 0.000000 -0.707107
vn 0.707106 -0.000000 -0.707107
vn 0.707106 -0.000000 -0.707107
vn 0.707106 -0.000000 -0.707107
vn -0.707106 0.000000 0.707107
vn -0.707106 0.000000 0.707107
vn -0.707106 0.000000 0.707107
vn -0.707107 -0.000000 0.707107
vn -0.707107 -0.000000 0.707107
vn -0.707107 -0.000000 0.707107
vn -0.707105 0.000000 0.707109
vn -0.707105 0.000000 0.707109
vn -0.707105 0.000000 0.707109
vn -0.707108 0.000000 0.707105
vn -0.707108 0.000000 0.707105
vn -0.707108 0.000000 0.707105
vn -0.707107 0.000000 0.707107
vn -0.707107 0.000000 0.707107
vn -0.707107 0.000000 0.707107
vn -0.707105 0.000000 0.707108
vn -0.707105 0.000000 0.707108
vn -0.707105 0.000000 0.707108
vn -0.707108 -0.000000 0.707105
vn -0.707108 -0.000000 0.707105
vn -0.707108 -0.000000 0.707105
vn -0.707106 -0.000000 0.707108
vn -0.707106 -0.000000 0.707108
vn -0.707106 -0.000000 0.707108
vn -0.707106 0.000000 0.707107
vn -0.707106 0.000000 0.707107
vn -0.707106 0.000000 0.707107
vn -0.707108 -0.000000 0.707106
vn -0.707108 -0.000000 0.707106
vn -0.707108 -0.000000 0.707106
vn -0.707104 -0.000000 0.707109
vn -0.707104 -0.000000 0.707109
vn -0.707104 -0.000000 0.707109
vn -0.707107 -0.000000 0.707107
vn -0.707107 -0.000000 0.707107
vn -0.707107 -0.000000 0.707107
vn -0.707109 0.000000 0.707105
vn -0.707109 0.000000 0.707105
vn -0.707109 0.000000 0.707105
vn -0.707106 0.000000 0.707108
vn -0.707106 0.000000 0.707108
vn -0.707106 0.000000 0.707108
vn -0.707107 -0.000000 0.707107
vn -0.707107 -0.000000 0.707107
vn -0.707107 -0.000000 0.707107
vn -0.707107 -0.000000 0.707107
vn -0.707107 -0.000000 0.707107
vn -0.707107 -0.000000 0.707107
vn -0.653281 -0.382683 -0.653282
vn -0.653281 -0.382683 -0.653282
vn -0.653281 -0.382683 -0.653282
vn -0.653281 -0.382683 -0.653282
vn -0.653281 -0.382683 -0.653282
vn -0.653281 -0.382683 -0.653282
vn -0.653281 0.382684 -0.653282
vn -0.653281 0.382684 -0.653282
vn -0.653281 0.382684 -0.653282
vn -0.653281 0.382684 -0.653282
vn -0.653281 0.382684 -0.653282
vn -0.653281 0.382684 -0.653282
vn -0.270600 -0.923879 -0.270598
vn -0.270600 -0.923879 -0.270598
vn -0.270600 -0.923879 -0.270598
vn -0.270598 -0.923880 -0.270598
vn -0.270598 -0.923880 -0.270598
vn -0.270598 -0.923880 -0.270598
vn 0.270597 -0.923880 0.270598
vn 0.270597 -0.923880 0.270598
vn 0.270597 -0.923880 0.270598
vn 0.270599 -0.923879 0.270598
vn 0.270599 -0.923879 0.270598
vn 0.270599 -0.923879 0.270598
vn 0.653282 -0.382683 0.653282
vn 0.653282 -0.382683 0.653282
vn 0.653282 -0.382683 0.653282
vn 0.653282 -0.382683 0.653281
vn 0.653282 -0.382683 0.653281
vn 0.653282 -0.382683 0.653281
vn 0.653282 0.382683 0.653281
vn 0.653282 0.382683 0.653281
vn 0.653282 0.382683 0.653281
vn 0.653282 0.382683 0.653281
vn 0.653282 0.382683 0.653281
vn 0.653282 0.382683 0.653281
vn 0.270597 0.923880 0.270598
vn 0.270597 0.923880 0.270598
vn 0.270597 0.923880 0.270598
vn 0.270597 0.923880 0.270598
vn 0.270597 0.923880 0.270598
vn 0.270597 0.923880 0.270598
vn -0.270600 0.923879 -0.270598
vn -0.270600 0.923879 -0.270598
vn -0.270600 0.923879 -0.270598
vn -0.270597 0.923880 -0.270598
vn -0.270597 0.923880 -0.270598
vn -0.270597 0.923880 -0.270598
vn 0.707107 0.000000 -0.707107
vn 0.707107 0.000000 -0.707107
vn 0.707107 0.000000 -0.707107
vn 0.707107 0.000000 -0.707107
vn 0.707107 0.000000 -0.707107
vn 0.707107 0.000000 -0.707107
vn 0.707107 0.000000 0.707107
vn 0.707107 0.000000 0.707107
vn 0.707107 0.000000 0.707107
vn 0.707107 0.000000 0.707107
vn 0.707107 0.000000 0.707107
vn 0.707107 0.000000 0.707107
vn -0.707107 0.000000 0.707107
vn -0.707107 0.000000 0.707107
vn -0.707107 0.000000 0.707107
vn -0.707107 0.000000 0.707107
vn -0.707107 0.000000 0.707107
vn -0.707107 0.000000 0.707107
vn -0.707107 0.000000 -0.707107
vn -0.707107 0.000000 -0.707107
vn -0.707107 0.000000 -0.707107
vn -0.707107 0.000000 -0.707107
vn -0.707107 0.000000 -0.707107
vn -0.707107 0.000000 -0.707107
vn -0.000000 -1.000000 0.000000
vn -0.000000 -1.000000 0.000000
vn -0.000000 -1.000000 0.000000
vn -0.000000 -1.000000 0.000000
vn -0.000000 -1.000000 0.000000
vn -0.000000 -1.000000 0.000000
vn -0.653282 0.382683 0.653281
vn -0.653282 0.382683 0.653281
vn -0.653282 0.382683 0.653281
vn -0.653281 0.382683 0.653282
vn -0.653281 0.382683 0.653282
vn -0.653281 0.382683 0.653282
vn -0.653282 -0.382684 0.653281
vn -0.653282 -0.382684 0.653281
vn -0.653282 -0.382684 0.653281
vn -0.653281 -0.382684 0.653281
vn -0.653281 -0.382684 0.653281
vn -0.653281 -0.382684 0.653281
vn 0.270598 -0.923880 -0.270598
vn 0.270598 -0.923880 -0.270598
vn 0.270598 -0.923880 -0.270598
vn 0.270598 -0.923880 -0.270598
vn 0.270598 -0.923880 -0.270598
vn 0.270598 -0.923880 -0.270598
vn 0.653281 0.382683 -0.653282
vn 0.653281 0.382683 -0.653282
vn 0.653281 0.382683 -0.653282
vn 0.653283 0.382683 -0.653280
vn 0.653283 0.382683 -0.653280
vn 0.653283 0.382683 -0.653280
vn -0.270596 0.923880 0.270598
vn -0.270596 0.923880 0.270598
vn -0.270596 0.923880 0.270598
vn -0.270598 0.923880 0.270597
vn -0.270598 0.923880 0.270597
vn -0.270598 0.923880 0.270597
vn -0.270597 -0.923880 0.270598
vn -0.270597 -0.923880 0.270598
vn -0.270597 -0.923880 0.270598
vn -0.270598 -0.923880 0.270598
vn -0.270598 -0.923880 0.270598
vn -0.270598 -0.923880 0.270598
vn 0.653281 -0.382683 -0.653282
vn 0.653281 -0.382683 -0.653282
vn 0.653281 -0.382683 -0.653282
vn 0.653282 -0.382684 -0.653281
vn 0.653282 -0.382684 -0.653281
vn 0.653282 -0.382684 -0.653281
vn 0.270600 0.923879 -0.270598
vn 0.270600 0.923879 -0.270598
vn 0.270600 0.923879 -0.270598
vn 0.270595 0.923881 -0.270597
vn 0.270595 0.923881 -0.270597
vn 0.270595 0.923881 -0.270597
vn 0.707108 0.000000 0.707105
vn 0.707108 0.000000 0.707105
vn 0.707108 0.000000 0.707105
vn 0.707106 0.000000 0.707107
vn 0.707106 0.000000 0.707107
vn 0.707106 0.000000 0.707107
vn 0.707107 0.000000 0.707106
vn 0.707107 0.000000 0.707106
vn 0.707107 0.000000 0.707106
vn 0.707107 -0.000000 0.707107
vn 0.707107 -0.000000 0.707107
vn 0.707107 -0.000000 0.707107
vn 0.707103 -0.000000 0.707110
vn 0.707103 -0.000000 0.707110
vn 0.707103 -0.000000 0.707110
vn 0.707108 0.000000 0.707106
vn 0.707108 0.000000 0.707106
vn 0.707108 0.000000 0.707106
vn 0.707105 0.000000 0.707108
vn 0.707105 0.000000 0.707108
vn 0.707105 0.000000 0.707108
vn 0.707107 -0.000000 0.707106
vn 0.707107 -0.000000 0.707106
vn 0.707107 -0.000000 0.707106
vn 0.707106 0.000000 0.707107
vn 0.707106 0.000000 0.707107
vn 0.707106 0.000000 0.707107
vn 0.707106 0.000000 0.707107
vn 0.707106 0.000000 0.707107
vn 0.707106 0.000000 0.707107
vn 0.707107 -0.000000 0.707107
vn 0.707107 -0.000000 0.707107
vn 0.707107 -0.000000 0.707107
vn 0.707105 0.000000 0.707108
vn 0.707105 0.000000 0.707108
vn 0.707105 0.000000 0.707108
vn 0.707105 -0.000000 0.707108
vn 0.707105 -0.000000 0.707108
vn 0.707105 -0.000000 0.707108
vn 0.707108 0.000000 0.707106
vn 0.707108 0.000000 0.707106
vn 0.707108 0.000000 0.707106
vn 0.707107 0.000000 0.707107
vn 0.707107 0.000000 0.707107
vn 0.707107 0.000000 0.707107
vn 0.707107 0.000000 0.707107
vn 0.707107 0.000000 0.707107
vn 0.707107 0.000000 0.707107
vn -0.707107 0.000000 -0.707107
vn -0.707107 0.000000 -0.707107
vn -0.707107 0.000000 -0.707107
vn -0.707106 -0.000000 -0.707108
vn -0.707106 -0.000000 -0.707108
vn -0.707106 -0.000000 -0.707108
vn -0.707104 -0.000001 -0.707109
vn -0.707104 -0.000001 -0.707109
vn -0.707104 -0.000001 -0.707109
vn -0.707106 0.000000 -0.707107
vn -0.707106 0.000000 -0.707107
vn -0.707106 0.000000 -0.707107
vn -0.707107 0.000000 -0.707106
vn -0.707107 0.000000 -0.707106
vn -0.707107 0.000000 -0.707106
vn -0.707104 0.000000 -0.707109
vn -0.707104 0.000000 -0.707109
vn -0.707104 0.000000 -0.707109
vn -0.707107 0.000000 -0.707107
vn -0.707107 0.000000 -0.707107
vn -0.707107 0.000000 -0.707107
vn -0.707105 0.000000 -0.707108
vn -0.707105 0.000000 -0.707108
vn -0.707105 0.000000 -0.707108
vn -0.707106 0.000000 -0.707107
vn -0.707106 0.000000 -0.707107
vn -0.707106 0.000000 -0.707107
vn -0.707106 -0.000000 -0.707108
vn -0.707106 -0.000000 -0.707108
vn -0.707106 -0.000000 -0.707108
vn -0.707104 -0.000001 -0.707109
vn -0.707104 -0.000001 -0.707109
vn -0.707104 -0.000001 -0.707109
vn -0.707107 0.000000 -0.707106
vn -0.707107 0.000000 -0.707106
vn -0.707107 0.000000 -0.707106
vn -0.707108 0.000000 -0.707106
vn -0.707108 0.000000 -0.707106
vn -0.707108 0.000000 -0.707106
vn -0.707105 -0.000000 -0.707109
vn -0.707105 -0.000000 -0.707109
vn -0.707105 -0.000000 -0.707109
vn -0.707107 0.000000 -0.707107
vn -0.707107 0.000000 -0.707107
vn -0.707107 0.000000 -0.707107
vn -0.707107 0.000000 -0.707106
vn -0.707107 0.000000 -0.707106
vn -0.707107 0.000000 -0.707106
vn 0.653281 -0.382684 -0.653282
vn 0.653281 -0.382684 -0.653282
vn 0.653281 -0.382684 -0.653282
vn 0.653283 -0.382683 -0.653280
vn 0.653283 -0.382683 -0.653280
vn 0.653283 -0.382683 -0.653280
vn 0.653281 0.382684 -0.653282
vn 0.653281 0.382684 -0.653282
vn 0.653281 0.382684 -0.653282
vn 0.653282 0.382684 -0.653281
vn 0.653282 0.382684 -0.653281
vn 0.653282 0.382684 -0.653281
vn 0.270600 -0.923879 -0.270597
vn 0.270600 -0.923879 -0.270597
vn 0.270600 -0.923879 -0.270597
vn 0.270595 -0.923881 -0.270598
vn 0.270595 -0.923881 -0.270598
vn 0.270595 -0.923881 -0.270598
vn -0.270598 -0.923879 0.270598
vn -0.270598 -0.923879 0.270598
vn -0.270598 -0.923879 0.270598
vn -0.270597 -0.923880 0.270598
vn -0.270597 -0.923880 0.270598
vn -0.270597 -0.923880 0.270598
vn -0.653282 -0.382683 0.653281
vn -0.653282 -0.382683 0.653281
vn -0.653282 -0.382683 0.653281
vn -0.653281 -0.382684 0.653281
vn -0.653281 -0.382684 0.653281
vn -0.653281 -0.382684 0.653281
vn -0.653281 0.382684 0.653281
vn -0.653281 0.382684 0.653281
vn -0.653281 0.382684 0.653281
vn -0.653282 0.382683 0.653281
vn -0.653282 0.382683 0.653281
vn -0.653282 0.382683 0.653281
vn -0.270598 0.923880 0.270598
vn -0.270598 0.923880 0.270598
vn -0.270598 0.923880 0.270598
vn -0.270598 0.923880 0.270598
vn -0.270598 0.923880 0.270598
vn -0.270598 0.923880 0.270598
vn 0.270597 0.923880 -0.270598
vn 0.270597 0.923880 -0.270598
vn 0.270597 0.923880 -0.270598
vn 0.270599 0.923879 -0.270598
vn 0.270599 0.923879 -0.270598
vn 0.270599 0.923879 -0.270598
vn 0.707107 0.000000 0.707106
vn 0.707107 0.000000 0.707106
vn 0.707107 0.000000 0.707106
vn 0.707106 0.000000 0.707107
vn 0.707106 0.000000 0.707107
vn 0.707106 0.000000 0.707107
vn -0.707106 0.000000 0.707107
vn -0.707106 0.000000 0.707107
vn -0.707106 0.000000 0.707107
vn -0.707107 0.000000 0.707106
vn -0.707107 0.000000 0.707106
vn -0.707107 0.000000 0.707106
vn -0.707107 0.000000 -0.707106
vn -0.707107 0.000000 -0.707106
vn -0.707107 0.000000 -0.707106
vn -0.707106 0.000000 -0.707107
vn -0.707106 0.000000 -0.707107
vn -0.707106 0.000000 -0.707107
vn 0.707106 0.000000 -0.707107
vn 0.707106 0.000000 -0.707107
vn 0.707106 0.000000 -0.707107
vn 0.707107 0.000000 -0.707106
vn 0.707107 0.000000 -0.707106
vn 0.707107 0.000000 -0.707106
vn 0.000001 -1.000000 0.000000
vn 0.000001 -1.000000 0.000000
vn 0.000001 -1.000000 0.000000
vn -0.000000 -1.000000 0.000000
vn -0.000000 -1.000000 0.000000
vn -0.000000 -1.000000 0.000000

g Material.004
f 3/1/1 1/2/2 2/3/3
f 4/4/4 1/5/5 3/6/6
f 7/7/7 5/8/8 6/9/9
f 8/10/10 5/11/11 7/12/12
f 11/13/13 9/14/14 10/15/15
f 12/16/16 9/17/17 11/18/18
f 15/19/19 13/20/20 14/21/21
f 16/22/22 13/23/23 15/24/24
f 19/25/25 17/26/26 18/27/27
f 20/28/28 17/29/29 19/30/30
f 23/31/31 21/32/32 22/33/33
f 24/34/34 21/35/35 23/36/36
f 27/37/37 25/38/38 26/39/39
f 28/40/40 25/41/41 27/42/42
f 31/43/43 29/44/44 30/45/45
f 32/46/46 29/47/47 31/48/48

g Material.005
f 35/49/49 33/50/50 34/51/51
f 36/52/52 33/53/53 35/54/54
f 39/55/55 37/56/56 38/57/57
f 40/58/58 37/59/59 39/60/60
f 43/61/61 41/62/62 42/63/63
f 44/64/64 41/65/65 43/66/66
f 47/67/67 45/68/68 46/69/69
f 48/70/70 45/71/71 47/72/72
f 51/73/73 49/74/74 50/75/75
f 52/76/76 49/77/77 51/78/78
f 55/79/79 53/80/80 54/81/81
f 56/82/82 53/83/83 55/84/84
f 59/85/85 57/86/86 58/87/87
f 60/88/88 57/89/89 59/90/90
f 63/91/91 61/92/92 62/93/93
f 64/94/94 61/95/95 63/96/96
f 67/97/97 65/98/98 66/99/99
f 68/100/100 65/101/101 67/102/102
f 71/103/103 69/104/104 70/105/105
f 72/106/106 69/107/107 71/108/108
f 75/109/109 73/110/110 74/111/111
f 76/112/112 73/113/113 75/114/114
f 79/115/115 77/116/116 78/117/117
f 80/118/118 77/119/119 79/120/120
f 83/121/121 81/122/122 82/123/123
f 84/124/124 81/125/125 83/126/126
f 87/127/127 85/128/128 86/129/129
f 88/130/130 85/131/131 87/132/132
f 91/133/133 89/134/134 90/135/135
f 92/136/136 89/137/137 91/138/138
f 95/139/139 93/140/140 94/141/141
f 96/142/142 93/143/143 95/144/144
f 99/145/145 97/146/146 98/147/147
f 100/148/148 97/149/149 99/150/150
f 103/151/151 101/152/152 102/153/153
f 104/154/154 101/155/155 103/156/156
f 107/157/157 105/158/158 106/159/159
f 108/160/160 105/161/161 107/162/162
f 111/163/163 109/164/164 110/165/165
f 112/166/166 109/167/167 111/168/168
f 115/169/169 113/170/170 114/171/171
f 116/172/172 113/173/173 115/174/174
f 119/175/175 117/176/176 118/177/177
f 120/178/178 117/179/179 119/180/180
f 123/181/181 121/182/182 122/183/183
f 124/184/184 121/185/185 123/186/186
f 127/187/187 125/188/188 126/189/189
f 128/190/190 125/191/191 127/192/192
f 131/193/193 129/194/194 130/195/195
f 132/196/196 129/197/197 131/198/198
f 135/199/199 133/200/200 134/201/201
f 136/202/202 133/203/203 135/204/204
f 139/205/205 137/206/206 138/207/207
f 140/208/208 137/209/209 139/210/210
f 143/211/211 141/212/212 142/213/213
f 144/214/214 141/215/215 143/216/216
f 147/217/217 145/218/218 146/219/219
f 148/220/220 145/221/221 147/222/222
f 151/223/223 149/224/224 150/225/225
f 152/226/226 149/227/227 151/228/228
f 155/229/229 153/230/230 154/231/231
f 156/232/232 153/233/233 155/234/234
f 159/235/235 157/236/236 158/237/237
f 160/238/238 157/239/239 159/240/240
f 163/241/241 161/242/242 162/243/243
f 164/244/244 161/245/245 163/246/246
f 167/247/247 165/248/248 166/249/249
f 168/250/250 165/251/251 167/252/252
f 171/253/253 169/254/254 170/255/255
f 172/256/256 169/257/257 171/258/258
f 175/259/259 173/260/260 174/261/261
f 176/262/262 173/263/263 175/264/264
f 179/265/265 177/266/266 178/267/267
f 180/268/268 177/269/269 179/270/270
f 183/271/271 181/272/272 182/273/273
f 184/274/274 181/275/275 183/276/276
f 187/277/277 185/278/278 186/279/279
f 188/280/280 185/281/281 187/282/282
f 191/283/283 189/284/284 190/285/285
f 192/286/286 189/287/287 191/288/288
f 195/289/289 193/290/290 194/291/291
f 196/292/292 193/293/293 195/294/294
f 199/295/295 197/296/296 198/297/297
f 200/298/298 197/299/299 199/300/300
f 203/301/301 201/302/302 202/303/303
f 204/304/304 201/305/305 203/306/306
f 207/307/307 205/308/308 206/309/309
f 208/310/310 205/311/311 207/312/312
f 211/313/313 209/314/314 210/315/315
f 212/316/316 209/317/317 211/318/318
f 215/319/319 213/320/320 214/321/321
f 216/322/322 213/323/323 215/324/324
f 219/325/325 217/326/326 218/327/327
f 220/328/328 217/329/329 219/330/330
f 223/331/331 221/332/332 222/333/333
f 224/334/334 221/335/335 223/336/336
f 227/337/337 225/338/338 226/339/339
f 228/340/340 225/341/341 227/342/342
f 231/343/343 229/344/344 230/345/345
f 232/346/346 229/347/347 231/348/348
f 235/349/349 233/350/350 234/351/351
f 236/352/352 233/353/353 235/354/354
f 239/355/355 237/356/356 238/357/357
f 240/358/358 237/359/359 239/360/360
f 243/361/361 241/362/362 242/363/363
f 244/364/364 241/365/365 243/366/366
f 247/367/367 245/368/368 246/369/369
f 248/370/370 245/371/371 247/372/372
f 251/373/373 249/374/374 250/375/375
f 252/376/376 249/377/377 251/378/378
f 255/379/379 253/380/380 254/381/381
f 256/382/382 253/383/383 255/384/384
f 259/385/385 257/386/386 258/387/387
f 260/388/388 257/389/389 259/390/390
f 263/391/391 261/392/392 262/393/393
f 264/394/394 261/395/395 263/396/396
f 267/397/397 265/398/398 266/399/399
f 268/400/400 265/401/401 267/402/402
f 271/403/403 269/404/404 270/405/405
f 272/406/406 269/407/407 271/408/408
f 275/409/409 273/410/410 274/411/411
f 276/412/412 273/413/413 275/414/414
f 279/415/415 277/416/416 278/417/417
f 280/418/418 277/419/419 279/420/420
f 283/421/421 281/422/422 282/423/423
f 284/424/424 281/425/425 283/426/426
f 287/427/427 285/428/428 286/429/429
f 288/430/430 285/431/431 287/432/432
f 291/433/433 289/434/434 290/435/435
f 292/436/436 289/437/437 291/438/438
f 295/439/439 293/440/440 294/441/441
f 296/442/442 293/443/443 295/444/444
f 299/445/445 297/446/446 298/447/447
f 300/448/448 297/449/449 299/450/450
f 303/451/451 301/452/452 302/453/453
f 304/454/454 301/455/455 303/456/456
f 307/457/457 305/458/458 306/459/459
f 308/460/460 305/461/461 307/462/462
f 311/463/463 309/464/464 310/465/465
f 312/466/466 309/467/467 311/468/468
f 315/469/469 313/470/470 314/471/471
f 316/472/472 313/473/473 315/474/474
f 319/475/475 317/476/476 318/477/477
f 320/478/478 317/479/479 319/480/480
f 323/481/481 321/482/482 322/483/483
f 324/484/484 321/485/485 323/486/486
f 327/487/487 325/488/488 326/489/489
f 328/490/490 325/491/491 327/492/492
f 331/493/493 329/494/494 330/495/495
f 332/496/496 329/497/497 331/498/498
f 335/499/499 333/500/500 334/501/501
f 336/502/502 333/503/503 335/504/504
f 339/505/505 337/506/506 338/507/507
f 340/508/508 337/509/509 339/510/510
f 343/511/511 341/512/512 342/513/513
f 344/514/514 341/515/515 343/516/516
f 347/517/517 345/518/518 346/519/519
f 348/520/520 345/521/521 347/522/522
f 351/523/523 349/524/524 350/525/525
f 352/526/526 349/527/527 351/528/528
f 355/529/529 353/530/530 354/531/531
f 356/532/532 353/533/533 355/534/534
f 359/535/535 357/536/536 358/537/537
f 360/538/538 357/539/539 359/540/540
f 363/541/541 361/542/542 362/543/543
f 364/544/544 361/545/545 363/546/546
f 367/547/547 365/548/548 366/549/549
f 368/550/550 365/551/551 367/552/552
f 371/553/553 369/554/554 370/555/555
f 372/556/556 369/557/557 371/558/558
f 375/559/559 373/560/560 374/561/561
f 376/562/562 373/563/563 375/564/564
f 379/565/565 377/566/566 378/567/567
f 380/568/568 377/569/569 379/570/570
f 383/571/571 381/572/572 382/573/573
f 384/574/574 381/575/575 383/576/576
f 387/577/577 385/578/578 386/579/579
f 388/580/580 385/581/581 387/582/582
f 391/583/583 389/584/584 390/585/585
f 392/586/586 389/587/587 391/588/588
f 395/589/589 393/590/590 394/591/591
f 396/592/592 393/593/593 395/594/594
f 399/595/595 397/596/596 398/597/597
f 400/598/598 397/599/599 399/600/600
f 403/601/601 401/602/602 402/603/603
f 404/604/604 401/605/605 403/606/606
f 407/607/607 405/608/608 406/609/609
f 408/610/610 405/611/611 407/612/612
f 411/613/613 409/614/614 410/615/615
f 412/616/616 409/617/617 411/618/618
f 415/619/619 413/620/620 414/621/621
f 416/622/622 413/623/623 415/624/624
f 419/625/625 417/626/626 418/627/627
f 420/628/628 417/629/629 419/630/630
f 423/631/631 421/632/632 422/633/633
f 424/634/634 421/635/635 423/636/636
f 427/637/637 425/638/638 426/639/639
f 428/640/640 425/641/641 427/642/642
f 431/643/643 429/644/644 430/645/645
f 432/646/646 429/647/647 431/648/648
f 435/649/649 433/650/650 434/651/651
f 436/652/652 433/653/653 435/654/654
f 439/655/655 437/656/656 438/657/657
f 440/658/658 437/659/659 439/660/660
f 443/661/661 441/662/662 442/663/663
f 444/664/664 441/665/665 443/666/666
f 447/667/667 445/668/668 446/669/669
f 448/670/670 445/671/671 447/672/672
f 451/673/673 449/674/674 450/675/675
f 452/676/676 449/677/677 451/678/678
f 455/679/679 453/680/680 454/681/681
f 456/682/682 453/683/683 455/684/684
f 459/685/685 457/686/686 458/687/687
f 460/688/688 457/689/689 459/690/690
f 463/691/691 461/692/692 462/693/693
f 464/694/694 461/695/695 463/696/696
f 467/697/697 465/698/698 466/699/699
f 468/700/700 465/701/701 467/702/702
f 471/703/703 469/704/704 470/705/705
f 472/706/706 469/707/707 471/708/708
f 475/709/709 473/710/710 474/711/711
f 476/712/712 473/713/713 475/714/714

