# Converted from B3D for Luanti (With Correct Normals)
# Object Name: multidecor_door_with_lock

v -1.000000 -1.000000 0.050000
v -1.000000 3.000000 -0.150000
v -1.000000 -1.000000 -0.150000
v -1.000000 3.000000 0.050000
v -1.000000 3.000000 -0.150000
v -1.000000 -1.000000 0.050000
v -1.000000 -1.000000 -0.150000
v 1.000000 3.000000 -0.150000
v 1.000000 -1.000000 -0.150000
v -1.000000 3.000000 -0.150000
v 1.000000 3.000000 -0.150000
v -1.000000 -1.000000 -0.150000
v -1.000000 3.000000 0.050000
v 1.000000 -1.000000 0.050000
v 1.000000 3.000000 0.050000
v -1.000000 -1.000000 0.050000
v 1.000000 -1.000000 0.050000
v -1.000000 3.000000 0.050000
v 1.000000 -1.000000 0.050000
v 1.000000 3.000000 -0.150000
v 1.000000 3.000000 0.050000
v 1.000000 -1.000000 -0.150000
v 1.000000 3.000000 -0.150000
v 1.000000 -1.000000 0.050000
v -1.000000 3.000000 -0.150000
v 1.000000 3.000000 0.050000
v 1.000000 3.000000 -0.150000
v -1.000000 3.000000 0.050000
v 1.000000 3.000000 0.050000
v -1.000000 3.000000 -0.150000
v -1.000000 -1.000000 0.050000
v 1.000000 -1.000000 -0.150000
v 1.000000 -1.000000 0.050000
v -1.000000 -1.000000 -0.150000
v 1.000000 -1.000000 -0.150000
v -1.000000 -1.000000 0.050000
v -0.825000 0.625423 -0.230000
v -0.945000 0.745423 -0.230000
v -0.705000 0.745423 -0.230000
v -0.825000 0.865424 -0.150000
v -0.825000 0.865424 -0.230000
v -0.909853 0.830276 -0.150000
v -0.825000 0.865424 -0.230000
v -0.909853 0.830276 -0.230000
v -0.909853 0.830276 -0.150000
v -0.945000 0.745423 -0.150000
v -0.945000 0.745423 -0.230000
v -0.909853 0.660571 -0.150000
v -0.945000 0.745423 -0.230000
v -0.909853 0.660571 -0.230000
v -0.909853 0.660571 -0.150000
v -0.825000 0.625423 -0.150000
v -0.825000 0.625423 -0.230000
v -0.740147 0.660571 -0.150000
v -0.825000 0.625423 -0.230000
v -0.740147 0.660571 -0.230000
v -0.740147 0.660571 -0.150000
v -0.705000 0.745423 -0.150000
v -0.705000 0.745423 -0.230000
v -0.740147 0.830276 -0.150000
v -0.705000 0.745423 -0.230000
v -0.740147 0.830276 -0.230000
v -0.740147 0.830276 -0.150000
v -0.909853 0.830276 -0.150000
v -0.909853 0.830276 -0.230000
v -0.945000 0.745423 -0.150000
v -0.909853 0.830276 -0.230000
v -0.945000 0.745423 -0.230000
v -0.945000 0.745423 -0.150000
v -0.909853 0.660571 -0.150000
v -0.909853 0.660571 -0.230000
v -0.825000 0.625423 -0.150000
v -0.909853 0.660571 -0.230000
v -0.825000 0.625423 -0.230000
v -0.825000 0.625423 -0.150000
v -0.740147 0.660571 -0.150000
v -0.740147 0.660571 -0.230000
v -0.705000 0.745423 -0.150000
v -0.740147 0.660571 -0.230000
v -0.705000 0.745423 -0.230000
v -0.705000 0.745423 -0.150000
v -0.740147 0.830276 -0.150000
v -0.740147 0.830276 -0.230000
v -0.825000 0.865424 -0.150000
v -0.740147 0.830276 -0.230000
v -0.825000 0.865424 -0.230000
v -0.825000 0.865424 -0.150000
v -0.485603 0.804820 -0.297092
v -0.485603 0.804820 -0.230000
v -0.485603 0.686026 -0.297092
v -0.485603 0.804820 -0.230000
v -0.485603 0.686026 -0.230000
v -0.485603 0.686026 -0.297092
v -0.884397 0.686027 -0.230000
v -0.485603 0.686026 -0.230000
v -0.884397 0.804820 -0.230000
v -0.485603 0.686026 -0.230000
v -0.485603 0.804820 -0.230000
v -0.884397 0.804820 -0.230000
v -0.884397 0.686027 -0.297092
v -0.485603 0.686026 -0.297092
v -0.884397 0.686027 -0.230000
v -0.485603 0.686026 -0.297092
v -0.485603 0.686026 -0.230000
v -0.884397 0.686027 -0.230000
v -0.884397 0.804820 -0.297092
v -0.884397 0.686027 -0.297092
v -0.884397 0.804820 -0.230000
v -0.884397 0.686027 -0.297092
v -0.884397 0.686027 -0.230000
v -0.884397 0.804820 -0.230000
v -0.485603 0.686026 -0.297092
v -0.884397 0.686027 -0.297092
v -0.485603 0.804820 -0.297092
v -0.884397 0.686027 -0.297092
v -0.884397 0.804820 -0.297092
v -0.485603 0.804820 -0.297092
v -0.884397 0.804820 -0.297092
v -0.884397 0.804820 -0.230000
v -0.485603 0.804820 -0.297092
v -0.884397 0.804820 -0.230000
v -0.485603 0.804820 -0.230000
v -0.485603 0.804820 -0.297092
v -0.909853 0.830276 -0.230000
v -0.825000 0.865424 -0.230000
v -0.945000 0.745423 -0.230000
v -0.740147 0.830276 -0.230000
v -0.945000 0.745423 -0.230000
v -0.825000 0.865424 -0.230000
v -0.705000 0.745423 -0.230000
v -0.945000 0.745423 -0.230000
v -0.740147 0.830276 -0.230000
v -0.740147 0.660571 -0.230000
v -0.825000 0.625423 -0.230000
v -0.705000 0.745423 -0.230000
v -0.909853 0.660571 -0.230000
v -0.945000 0.745423 -0.230000
v -0.825000 0.625423 -0.230000
v -0.945000 0.745423 0.130000
v -0.825000 0.625423 0.130000
v -0.705000 0.745423 0.130000
v -0.909853 0.830276 0.130000
v -0.825000 0.865424 0.130000
v -0.909853 0.830276 0.050000
v -0.825000 0.865424 0.130000
v -0.825000 0.865424 0.050000
v -0.909853 0.830276 0.050000
v -0.909853 0.660571 0.130000
v -0.945000 0.745423 0.130000
v -0.909853 0.660571 0.050000
v -0.945000 0.745423 0.130000
v -0.945000 0.745423 0.050000
v -0.909853 0.660571 0.050000
v -0.740147 0.660571 0.130000
v -0.825000 0.625423 0.130000
v -0.740147 0.660571 0.050000
v -0.825000 0.625423 0.130000
v -0.825000 0.625423 0.050000
v -0.740147 0.660571 0.050000
v -0.740147 0.830276 0.130000
v -0.705000 0.745423 0.130000
v -0.740147 0.830276 0.050000
v -0.705000 0.745423 0.130000
v -0.705000 0.745423 0.050000
v -0.740147 0.830276 0.050000
v -0.945000 0.745423 0.130000
v -0.909853 0.830276 0.130000
v -0.945000 0.745423 0.050000
v -0.909853 0.830276 0.130000
v -0.909853 0.830276 0.050000
v -0.945000 0.745423 0.050000
v -0.825000 0.625423 0.130000
v -0.909853 0.660571 0.130000
v -0.825000 0.625423 0.050000
v -0.909853 0.660571 0.130000
v -0.909853 0.660571 0.050000
v -0.825000 0.625423 0.050000
v -0.705000 0.745423 0.130000
v -0.740147 0.660571 0.130000
v -0.705000 0.745423 0.050000
v -0.740147 0.660571 0.130000
v -0.740147 0.660571 0.050000
v -0.705000 0.745423 0.050000
v -0.825000 0.865424 0.130000
v -0.740147 0.830276 0.130000
v -0.825000 0.865424 0.050000
v -0.740147 0.830276 0.130000
v -0.740147 0.830276 0.050000
v -0.825000 0.865424 0.050000
v -0.485603 0.804820 0.197093
v -0.485603 0.686026 0.197093
v -0.485603 0.804820 0.130000
v -0.485603 0.686026 0.197093
v -0.485603 0.686026 0.130000
v -0.485603 0.804820 0.130000
v -0.485603 0.686026 0.197093
v -0.884397 0.686027 0.197093
v -0.485603 0.686026 0.130000
v -0.884397 0.686027 0.130000
v -0.884397 0.686027 0.197093
v -0.884397 0.804820 0.130000
v -0.884397 0.686027 0.197093
v -0.884397 0.804820 0.197093
v -0.884397 0.804820 0.130000
v -0.600000 0.686026 0.130000
v -0.884397 0.686027 0.130000
v -0.600000 0.804820 0.130000
v -0.884397 0.686027 0.130000
v -0.884397 0.804820 0.130000
v -0.600000 0.804820 0.130000
v -0.600000 0.686026 0.130000
v -0.600000 0.804820 0.130000
v -0.485603 0.686026 0.130000
v -0.600000 0.804820 0.130000
v -0.485603 0.804820 0.130000
v -0.485603 0.686026 0.130000
v -0.884397 0.804820 0.197093
v -0.884397 0.686027 0.197093
v -0.485603 0.804820 0.197093
v -0.884397 0.686027 0.197093
v -0.485603 0.686026 0.197093
v -0.485603 0.804820 0.197093
v -0.825000 0.865424 0.130000
v -0.909853 0.830276 0.130000
v -0.945000 0.745423 0.130000
v -0.945000 0.745423 0.130000
v -0.740147 0.830276 0.130000
v -0.825000 0.865424 0.130000
v -0.945000 0.745423 0.130000
v -0.705000 0.745423 0.130000
v -0.740147 0.830276 0.130000
v -0.825000 0.625423 0.130000
v -0.740147 0.660571 0.130000
v -0.705000 0.745423 0.130000
v -0.945000 0.745423 0.130000
v -0.909853 0.660571 0.130000
v -0.825000 0.625423 0.130000
v -0.600000 0.804820 0.130000
v -0.884397 0.804820 0.130000
v -0.485603 0.804820 0.130000
v -0.825000 0.325424 -0.230000
v -0.945000 0.445424 -0.230000
v -0.705000 0.445424 -0.230000
v -0.825000 0.565424 -0.150000
v -0.825000 0.565424 -0.230000
v -0.909853 0.530276 -0.150000
v -0.825000 0.565424 -0.230000
v -0.909853 0.530276 -0.230000
v -0.909853 0.530276 -0.150000
v -0.945000 0.445424 -0.150000
v -0.945000 0.445424 -0.230000
v -0.909853 0.360571 -0.150000
v -0.945000 0.445424 -0.230000
v -0.909853 0.360571 -0.230000
v -0.909853 0.360571 -0.150000
v -0.825000 0.325424 -0.150000
v -0.825000 0.325424 -0.230000
v -0.740147 0.360571 -0.150000
v -0.825000 0.325424 -0.230000
v -0.740147 0.360571 -0.230000
v -0.740147 0.360571 -0.150000
v -0.705000 0.445424 -0.150000
v -0.705000 0.445424 -0.230000
v -0.740147 0.530276 -0.150000
v -0.705000 0.445424 -0.230000
v -0.740147 0.530276 -0.230000
v -0.740147 0.530276 -0.150000
v -0.909853 0.530276 -0.150000
v -0.909853 0.530276 -0.230000
v -0.945000 0.445424 -0.150000
v -0.909853 0.530276 -0.230000
v -0.945000 0.445424 -0.230000
v -0.945000 0.445424 -0.150000
v -0.909853 0.360571 -0.150000
v -0.909853 0.360571 -0.230000
v -0.825000 0.325424 -0.150000
v -0.909853 0.360571 -0.230000
v -0.825000 0.325424 -0.230000
v -0.825000 0.325424 -0.150000
v -0.740147 0.360571 -0.150000
v -0.740147 0.360571 -0.230000
v -0.705000 0.445424 -0.150000
v -0.740147 0.360571 -0.230000
v -0.705000 0.445424 -0.230000
v -0.705000 0.445424 -0.150000
v -0.740147 0.530276 -0.150000
v -0.740147 0.530276 -0.230000
v -0.825000 0.565424 -0.150000
v -0.740147 0.530276 -0.230000
v -0.825000 0.565424 -0.230000
v -0.825000 0.565424 -0.150000
v -0.909853 0.530276 -0.230000
v -0.825000 0.565424 -0.230000
v -0.945000 0.445424 -0.230000
v -0.740147 0.530276 -0.230000
v -0.945000 0.445424 -0.230000
v -0.825000 0.565424 -0.230000
v -0.705000 0.445424 -0.230000
v -0.945000 0.445424 -0.230000
v -0.740147 0.530276 -0.230000
v -0.740147 0.360571 -0.230000
v -0.825000 0.325424 -0.230000
v -0.705000 0.445424 -0.230000
v -0.909853 0.360571 -0.230000
v -0.945000 0.445424 -0.230000
v -0.825000 0.325424 -0.230000
v -0.945000 0.445424 0.130000
v -0.825000 0.325424 0.130000
v -0.705000 0.445424 0.130000
v -0.909853 0.530276 0.130000
v -0.825000 0.565424 0.130000
v -0.909853 0.530276 0.050000
v -0.825000 0.565424 0.130000
v -0.825000 0.565424 0.050000
v -0.909853 0.530276 0.050000
v -0.909853 0.360571 0.130000
v -0.945000 0.445424 0.130000
v -0.909853 0.360571 0.050000
v -0.945000 0.445424 0.130000
v -0.945000 0.445424 0.050000
v -0.909853 0.360571 0.050000
v -0.740147 0.360571 0.130000
v -0.825000 0.325424 0.130000
v -0.740147 0.360571 0.050000
v -0.825000 0.325424 0.130000
v -0.825000 0.325424 0.050000
v -0.740147 0.360571 0.050000
v -0.740147 0.530276 0.130000
v -0.705000 0.445424 0.130000
v -0.740147 0.530276 0.050000
v -0.705000 0.445424 0.130000
v -0.705000 0.445424 0.050000
v -0.740147 0.530276 0.050000
v -0.945000 0.445424 0.130000
v -0.909853 0.530276 0.130000
v -0.945000 0.445424 0.050000
v -0.909853 0.530276 0.130000
v -0.909853 0.530276 0.050000
v -0.945000 0.445424 0.050000
v -0.825000 0.325424 0.130000
v -0.909853 0.360571 0.130000
v -0.825000 0.325424 0.050000
v -0.909853 0.360571 0.130000
v -0.909853 0.360571 0.050000
v -0.825000 0.325424 0.050000
v -0.705000 0.445424 0.130000
v -0.740147 0.360571 0.130000
v -0.705000 0.445424 0.050000
v -0.740147 0.360571 0.130000
v -0.740147 0.360571 0.050000
v -0.705000 0.445424 0.050000
v -0.825000 0.565424 0.130000
v -0.740147 0.530276 0.130000
v -0.825000 0.565424 0.050000
v -0.740147 0.530276 0.130000
v -0.740147 0.530276 0.050000
v -0.825000 0.565424 0.050000
v -0.825000 0.565424 0.130000
v -0.909853 0.530276 0.130000
v -0.945000 0.445424 0.130000
v -0.945000 0.445424 0.130000
v -0.740147 0.530276 0.130000
v -0.825000 0.565424 0.130000
v -0.945000 0.445424 0.130000
v -0.705000 0.445424 0.130000
v -0.740147 0.530276 0.130000
v -0.825000 0.325424 0.130000
v -0.740147 0.360571 0.130000
v -0.705000 0.445424 0.130000
v -0.945000 0.445424 0.130000
v -0.909853 0.360571 0.130000
v -0.825000 0.325424 0.130000
v -0.025000 1.561423 -0.206000
v -0.109000 1.645423 -0.206000
v 0.059000 1.645423 -0.206000
v -0.025000 1.729424 -0.150000
v -0.025000 1.729424 -0.206000
v -0.084397 1.704820 -0.150000
v -0.025000 1.729424 -0.206000
v -0.084397 1.704820 -0.206000
v -0.084397 1.704820 -0.150000
v -0.109000 1.645423 -0.150000
v -0.109000 1.645423 -0.206000
v -0.084397 1.586026 -0.150000
v -0.109000 1.645423 -0.206000
v -0.084397 1.586026 -0.206000
v -0.084397 1.586026 -0.150000
v -0.025000 1.561423 -0.150000
v -0.025000 1.561423 -0.206000
v 0.034397 1.586026 -0.150000
v -0.025000 1.561423 -0.206000
v 0.034397 1.586026 -0.206000
v 0.034397 1.586026 -0.150000
v 0.059000 1.645423 -0.150000
v 0.059000 1.645423 -0.206000
v 0.034397 1.704820 -0.150000
v 0.059000 1.645423 -0.206000
v 0.034397 1.704820 -0.206000
v 0.034397 1.704820 -0.150000
v -0.084397 1.704820 -0.150000
v -0.084397 1.704820 -0.206000
v -0.109000 1.645423 -0.150000
v -0.084397 1.704820 -0.206000
v -0.109000 1.645423 -0.206000
v -0.109000 1.645423 -0.150000
v -0.084397 1.586026 -0.150000
v -0.084397 1.586026 -0.206000
v -0.025000 1.561423 -0.150000
v -0.084397 1.586026 -0.206000
v -0.025000 1.561423 -0.206000
v -0.025000 1.561423 -0.150000
v 0.034397 1.586026 -0.150000
v 0.034397 1.586026 -0.206000
v 0.059000 1.645423 -0.150000
v 0.034397 1.586026 -0.206000
v 0.059000 1.645423 -0.206000
v 0.059000 1.645423 -0.150000
v 0.034397 1.704820 -0.150000
v 0.034397 1.704820 -0.206000
v -0.025000 1.729424 -0.150000
v 0.034397 1.704820 -0.206000
v -0.025000 1.729424 -0.206000
v -0.025000 1.729424 -0.150000
v -0.084397 1.704820 -0.206000
v -0.025000 1.729424 -0.206000
v -0.109000 1.645423 -0.206000
v 0.034397 1.704820 -0.206000
v -0.109000 1.645423 -0.206000
v -0.025000 1.729424 -0.206000
v 0.059000 1.645423 -0.206000
v -0.109000 1.645423 -0.206000
v 0.034397 1.704820 -0.206000
v 0.034397 1.586026 -0.206000
v -0.025000 1.561423 -0.206000
v 0.059000 1.645423 -0.206000
v -0.084397 1.586026 -0.206000
v -0.109000 1.645423 -0.206000
v -0.025000 1.561423 -0.206000
v -0.109000 1.645424 0.106000
v -0.025000 1.561424 0.106000
v 0.059000 1.645424 0.106000
v -0.084397 1.704821 0.106000
v -0.025000 1.729424 0.106000
v -0.084397 1.704821 0.050000
v -0.025000 1.729424 0.106000
v -0.025000 1.729424 0.050000
v -0.084397 1.704821 0.050000
v -0.084397 1.586027 0.106000
v -0.109000 1.645424 0.106000
v -0.084397 1.586027 0.050000
v -0.109000 1.645424 0.106000
v -0.109000 1.645424 0.050000
v -0.084397 1.586027 0.050000
v 0.034397 1.586027 0.106000
v -0.025000 1.561424 0.106000
v 0.034397 1.586027 0.050000
v -0.025000 1.561424 0.106000
v -0.025000 1.561424 0.050000
v 0.034397 1.586027 0.050000
v 0.034397 1.704821 0.106000
v 0.059000 1.645424 0.106000
v 0.034397 1.704821 0.050000
v 0.059000 1.645424 0.106000
v 0.059000 1.645424 0.050000
v 0.034397 1.704821 0.050000
v -0.109000 1.645424 0.106000
v -0.084397 1.704821 0.106000
v -0.109000 1.645424 0.050000
v -0.084397 1.704821 0.106000
v -0.084397 1.704821 0.050000
v -0.109000 1.645424 0.050000
v -0.025000 1.561424 0.106000
v -0.084397 1.586027 0.106000
v -0.025000 1.561424 0.050000
v -0.084397 1.586027 0.106000
v -0.084397 1.586027 0.050000
v -0.025000 1.561424 0.050000
v 0.059000 1.645424 0.106000
v 0.034397 1.586027 0.106000
v 0.059000 1.645424 0.050000
v 0.034397 1.586027 0.106000
v 0.034397 1.586027 0.050000
v 0.059000 1.645424 0.050000
v -0.025000 1.729424 0.106000
v 0.034397 1.704821 0.106000
v -0.025000 1.729424 0.050000
v 0.034397 1.704821 0.106000
v 0.034397 1.704821 0.050000
v -0.025000 1.729424 0.050000
v -0.025000 1.729424 0.106000
v -0.084397 1.704821 0.106000
v -0.109000 1.645424 0.106000
v -0.109000 1.645424 0.106000
v 0.034397 1.704821 0.106000
v -0.025000 1.729424 0.106000
v -0.109000 1.645424 0.106000
v 0.059000 1.645424 0.106000
v 0.034397 1.704821 0.106000
v -0.025000 1.561424 0.106000
v 0.034397 1.586027 0.106000
v 0.059000 1.645424 0.106000
v -0.109000 1.645424 0.106000
v -0.084397 1.586027 0.106000
v -0.025000 1.561424 0.106000

vt 0.750000 1.000000
vt 0.703125 1.000000
vt 0.750000 0.000000
vt 0.703125 1.000000
vt 0.703125 0.000000
vt 0.750000 0.000000
vt 0.250000 0.000000
vt 0.750000 0.000000
vt 0.250000 1.000000
vt 0.750000 0.000000
vt 0.750000 1.000000
vt 0.250000 1.000000
vt 0.250000 1.000000
vt 0.750000 1.000000
vt 0.250000 0.000000
vt 0.750000 1.000000
vt 0.750000 0.000000
vt 0.250000 0.000000
vt 0.750000 0.000000
vt 0.750000 1.000000
vt 0.703125 0.000000
vt 0.750000 1.000000
vt 0.703125 1.000000
vt 0.703125 0.000000
vt 0.750000 0.000000
vt 0.250000 0.000000
vt 0.750000 -0.046875
vt 0.250000 0.000000
vt 0.250000 -0.046875
vt 0.750000 -0.046875
vt 0.750000 1.000000
vt 0.250000 1.000000
vt 0.750000 0.953125
vt 0.250000 1.000000
vt 0.250000 0.953125
vt 0.750000 0.953125
vt 0.840058 0.638818
vt 0.666074 0.710884
vt 0.594008 0.536901
vt 0.899760 0.286389
vt 1.001677 0.286389
vt 1.001677 0.375163
vt 0.899760 0.286389
vt 1.001677 0.375163
vt 0.899760 0.375163
vt 0.695925 0.286389
vt 0.797842 0.286389
vt 0.797842 0.375163
vt 0.695925 0.286389
vt 0.797842 0.375163
vt 0.695925 0.375163
vt 0.512160 0.131391
vt 0.410243 0.131391
vt 0.410243 0.042617
vt 0.512160 0.131391
vt 0.410243 0.042617
vt 0.512160 0.042617
vt 0.715995 0.131391
vt 0.614078 0.131391
vt 0.614078 0.042617
vt 0.715995 0.131391
vt 0.614078 0.042617
vt 0.715995 0.042617
vt 0.797842 0.286389
vt 0.899760 0.286389
vt 0.899760 0.375163
vt 0.797842 0.286389
vt 0.899760 0.375163
vt 0.797842 0.375163
vt 0.594008 0.286389
vt 0.695925 0.286389
vt 0.695925 0.375163
vt 0.594008 0.286389
vt 0.695925 0.375163
vt 0.594008 0.375163
vt 0.614078 0.131391
vt 0.512160 0.131391
vt 0.512160 0.042617
vt 0.614078 0.131391
vt 0.512160 0.042617
vt 0.614078 0.042617
vt 0.817912 0.131391
vt 0.715995 0.131391
vt 0.715995 0.042617
vt 0.817912 0.131391
vt 0.715995 0.042617
vt 0.817912 0.042617
vt 0.076576 0.338113
vt 0.076576 0.469936
vt 0.002125 0.469936
vt 0.076576 0.338113
vt 0.002125 0.469936
vt 0.002125 0.338113
vt 0.519109 0.131839
vt 0.519109 0.263663
vt 0.076576 0.263663
vt 0.519109 0.131839
vt 0.076576 0.263663
vt 0.076576 0.131840
vt 0.519109 0.263663
vt 0.519109 0.338113
vt 0.076576 0.338113
vt 0.519109 0.263663
vt 0.076576 0.338113
vt 0.076576 0.263663
vt 0.593559 0.469936
vt 0.519109 0.469936
vt 0.519109 0.338113
vt 0.593559 0.469936
vt 0.519109 0.338113
vt 0.593560 0.338113
vt 0.076576 0.469936
vt 0.076576 0.338113
vt 0.519109 0.338113
vt 0.076576 0.469936
vt 0.519109 0.338113
vt 0.519109 0.469936
vt 0.076576 0.469936
vt 0.519109 0.469936
vt 0.519109 0.544387
vt 0.076576 0.469936
vt 0.519109 0.544387
vt 0.076576 0.544387
vt 0.594008 0.536901
vt 0.666074 0.464834
vt 0.767992 0.464834
vt 0.767992 0.464834
vt 0.840058 0.536901
vt 0.594008 0.536901
vt 0.840058 0.536901
vt 0.840058 0.638818
vt 0.594008 0.536901
vt 0.840058 0.638818
vt 0.767992 0.710884
vt 0.666074 0.710884
vt 0.666074 0.710884
vt 0.594008 0.638818
vt 0.594008 0.536901
vt 0.840058 0.885317
vt 0.594008 0.783399
vt 0.666074 0.957383
vt 0.695925 0.464386
vt 0.695925 0.375612
vt 0.594008 0.375612
vt 0.695925 0.464386
vt 0.594008 0.375612
vt 0.594008 0.464386
vt 0.899760 0.464386
vt 0.899760 0.375612
vt 0.797843 0.375612
vt 0.899760 0.464386
vt 0.797843 0.375612
vt 0.797843 0.464386
vt 0.307877 0.042617
vt 0.307877 0.131391
vt 0.409795 0.131391
vt 0.307877 0.042617
vt 0.409795 0.131391
vt 0.409795 0.042617
vt 0.104042 0.042617
vt 0.104043 0.131391
vt 0.205960 0.131391
vt 0.104042 0.042617
vt 0.205960 0.131391
vt 0.205960 0.042617
vt 0.797843 0.464386
vt 0.797843 0.375612
vt 0.695925 0.375612
vt 0.797843 0.464386
vt 0.695925 0.375612
vt 0.695925 0.464386
vt 1.001677 0.464386
vt 1.001677 0.375612
vt 0.899760 0.375612
vt 1.001677 0.464386
vt 0.899760 0.375612
vt 0.899760 0.464386
vt 0.205960 0.042617
vt 0.205960 0.131391
vt 0.307877 0.131391
vt 0.205960 0.042617
vt 0.307877 0.131391
vt 0.307877 0.042617
vt 0.002125 0.042617
vt 0.002125 0.131391
vt 0.104043 0.131391
vt 0.002125 0.042617
vt 0.104043 0.131391
vt 0.104042 0.042617
vt 0.002125 0.882932
vt 0.076576 0.882932
vt 0.076576 0.751109
vt 0.002125 0.882932
vt 0.076576 0.751109
vt 0.002125 0.751109
vt 0.076576 0.676658
vt 0.076576 0.751109
vt 0.519109 0.751109
vt 0.593560 0.882932
vt 0.593560 0.751109
vt 0.519109 0.751109
vt 0.593560 0.882932
vt 0.519109 0.751109
vt 0.519109 0.882932
vt 0.203520 0.544835
vt 0.203520 0.676659
vt 0.519109 0.676658
vt 0.203520 0.544835
vt 0.519109 0.676658
vt 0.519109 0.544835
vt 0.076576 0.676658
vt 0.203520 0.676659
vt 0.203520 0.544835
vt 0.076576 0.676658
vt 0.203520 0.544835
vt 0.076576 0.544835
vt 0.076576 0.882932
vt 0.519109 0.882932
vt 0.519109 0.751109
vt 0.076576 0.882932
vt 0.519109 0.751109
vt 0.076576 0.751109
vt 0.594008 0.783399
vt 0.767992 0.711333
vt 0.666074 0.711333
vt 0.767992 0.711333
vt 0.594008 0.783399
vt 0.840058 0.783399
vt 0.840058 0.783399
vt 0.594008 0.783399
vt 0.840058 0.885317
vt 0.840058 0.885317
vt 0.666074 0.957383
vt 0.767992 0.957383
vt 0.666074 0.957383
vt 0.594008 0.783399
vt 0.594008 0.885316
vt 0.076576 0.957383
vt 0.203520 0.957383
vt 0.519109 0.957383
vt 0.840058 0.638818
vt 0.666074 0.710884
vt 0.594008 0.536901
vt 0.899760 0.286389
vt 1.001677 0.286389
vt 1.001677 0.375163
vt 0.899760 0.286389
vt 1.001677 0.375163
vt 0.899760 0.375163
vt 0.695925 0.286389
vt 0.797842 0.286389
vt 0.797842 0.375163
vt 0.695925 0.286389
vt 0.797842 0.375163
vt 0.695925 0.375163
vt 0.512160 0.131391
vt 0.410243 0.131391
vt 0.410243 0.042617
vt 0.512160 0.131391
vt 0.410243 0.042617
vt 0.512160 0.042617
vt 0.715995 0.131391
vt 0.614078 0.131391
vt 0.614078 0.042617
vt 0.715995 0.131391
vt 0.614078 0.042617
vt 0.715995 0.042617
vt 0.797842 0.286389
vt 0.899760 0.286389
vt 0.899760 0.375163
vt 0.797842 0.286389
vt 0.899760 0.375163
vt 0.797842 0.375163
vt 0.594008 0.286389
vt 0.695925 0.286389
vt 0.695925 0.375163
vt 0.594008 0.286389
vt 0.695925 0.375163
vt 0.594008 0.375163
vt 0.614078 0.131391
vt 0.512160 0.131391
vt 0.512160 0.042617
vt 0.614078 0.131391
vt 0.512160 0.042617
vt 0.614078 0.042617
vt 0.817912 0.131391
vt 0.715995 0.131391
vt 0.715995 0.042617
vt 0.817912 0.131391
vt 0.715995 0.042617
vt 0.817912 0.042617
vt 0.594008 0.536901
vt 0.666074 0.464834
vt 0.767992 0.464834
vt 0.767992 0.464834
vt 0.840058 0.536901
vt 0.594008 0.536901
vt 0.840058 0.536901
vt 0.840058 0.638818
vt 0.594008 0.536901
vt 0.840058 0.638818
vt 0.767992 0.710884
vt 0.666074 0.710884
vt 0.666074 0.710884
vt 0.594008 0.638818
vt 0.594008 0.536901
vt 0.840058 0.885317
vt 0.594008 0.783399
vt 0.666074 0.957383
vt 0.695925 0.464386
vt 0.695925 0.375612
vt 0.594008 0.375612
vt 0.695925 0.464386
vt 0.594008 0.375612
vt 0.594008 0.464386
vt 0.899760 0.464386
vt 0.899760 0.375612
vt 0.797843 0.375612
vt 0.899760 0.464386
vt 0.797843 0.375612
vt 0.797843 0.464386
vt 0.307877 0.042617
vt 0.307877 0.131391
vt 0.409795 0.131391
vt 0.307877 0.042617
vt 0.409795 0.131391
vt 0.409795 0.042617
vt 0.104042 0.042617
vt 0.104043 0.131391
vt 0.205960 0.131391
vt 0.104042 0.042617
vt 0.205960 0.131391
vt 0.205960 0.042617
vt 0.797843 0.464386
vt 0.797843 0.375612
vt 0.695925 0.375612
vt 0.797843 0.464386
vt 0.695925 0.375612
vt 0.695925 0.464386
vt 1.001677 0.464386
vt 1.001677 0.375612
vt 0.899760 0.375612
vt 1.001677 0.464386
vt 0.899760 0.375612
vt 0.899760 0.464386
vt 0.205960 0.042617
vt 0.205960 0.131391
vt 0.307877 0.131391
vt 0.205960 0.042617
vt 0.307877 0.131391
vt 0.307877 0.042617
vt 0.002125 0.042617
vt 0.002125 0.131391
vt 0.104043 0.131391
vt 0.002125 0.042617
vt 0.104043 0.131391
vt 0.104042 0.042617
vt 0.594008 0.783399
vt 0.767992 0.711333
vt 0.666074 0.711333
vt 0.767992 0.711333
vt 0.594008 0.783399
vt 0.840058 0.783399
vt 0.840058 0.783399
vt 0.594008 0.783399
vt 0.840058 0.885317
vt 0.840058 0.885317
vt 0.666074 0.957383
vt 0.767992 0.957383
vt 0.666074 0.957383
vt 0.594008 0.783399
vt 0.594008 0.885316
vt 0.899760 0.286389
vt 1.001677 0.286389
vt 1.001677 0.375163
vt 0.899760 0.286389
vt 1.001677 0.375163
vt 0.899760 0.375163
vt 0.695925 0.286389
vt 0.797842 0.286389
vt 0.797842 0.375163
vt 0.695925 0.286389
vt 0.797842 0.375163
vt 0.695925 0.375163
vt 0.512160 0.131391
vt 0.410243 0.131391
vt 0.410243 0.042617
vt 0.512160 0.131391
vt 0.410243 0.042617
vt 0.512160 0.042617
vt 0.715995 0.131391
vt 0.614078 0.131391
vt 0.614078 0.042617
vt 0.715995 0.131391
vt 0.614078 0.042617
vt 0.715995 0.042617
vt 0.797842 0.286389
vt 0.899760 0.286389
vt 0.899760 0.375163
vt 0.797842 0.286389
vt 0.899760 0.375163
vt 0.797842 0.375163
vt 0.594008 0.286389
vt 0.695925 0.286389
vt 0.695925 0.375163
vt 0.594008 0.286389
vt 0.695925 0.375163
vt 0.594008 0.375163
vt 0.614078 0.131391
vt 0.512160 0.131391
vt 0.512160 0.042617
vt 0.614078 0.131391
vt 0.512160 0.042617
vt 0.614078 0.042617
vt 0.817912 0.131391
vt 0.715995 0.131391
vt 0.715995 0.042617
vt 0.817912 0.131391
vt 0.715995 0.042617
vt 0.817912 0.042617
vt 0.695925 0.464386
vt 0.695925 0.375612
vt 0.594008 0.375612
vt 0.695925 0.464386
vt 0.594008 0.375612
vt 0.594008 0.464386
vt 0.899760 0.464386
vt 0.899760 0.375612
vt 0.797843 0.375612
vt 0.899760 0.464386
vt 0.797843 0.375612
vt 0.797843 0.464386
vt 0.307877 0.042617
vt 0.307877 0.131391
vt 0.409795 0.131391
vt 0.307877 0.042617
vt 0.409795 0.131391
vt 0.409795 0.042617
vt 0.104042 0.042617
vt 0.104043 0.131391
vt 0.205960 0.131391
vt 0.104042 0.042617
vt 0.205960 0.131391
vt 0.205960 0.042617
vt 0.797843 0.464386
vt 0.797843 0.375612
vt 0.695925 0.375612
vt 0.797843 0.464386
vt 0.695925 0.375612
vt 0.695925 0.464386
vt 1.001677 0.464386
vt 1.001677 0.375612
vt 0.899760 0.375612
vt 1.001677 0.464386
vt 0.899760 0.375612
vt 0.899760 0.464386
vt 0.205960 0.042617
vt 0.205960 0.131391
vt 0.307877 0.131391
vt 0.205960 0.042617
vt 0.307877 0.131391
vt 0.307877 0.042617
vt 0.002125 0.042617
vt 0.002125 0.131391
vt 0.104043 0.131391
vt 0.002125 0.042617
vt 0.104043 0.131391
vt 0.104042 0.042617
vt 0.840058 0.638818
vt 0.666074 0.710884
vt 0.594008 0.536901
vt 0.594008 0.536901
vt 0.666074 0.464834
vt 0.767992 0.464834
vt 0.767992 0.464834
vt 0.840058 0.536901
vt 0.594008 0.536901
vt 0.840058 0.536901
vt 0.840058 0.638818
vt 0.594008 0.536901
vt 0.840058 0.638818
vt 0.767992 0.710884
vt 0.666074 0.710884
vt 0.666074 0.710884
vt 0.594008 0.638818
vt 0.594008 0.536901
vt 0.840058 0.885317
vt 0.594008 0.783399
vt 0.666074 0.957383
vt 0.594008 0.783399
vt 0.767992 0.711333
vt 0.666074 0.711333
vt 0.767992 0.711333
vt 0.594008 0.783399
vt 0.840058 0.783399
vt 0.840058 0.783399
vt 0.594008 0.783399
vt 0.840058 0.885317
vt 0.840058 0.885317
vt 0.666074 0.957383
vt 0.767992 0.957383
vt 0.666074 0.957383
vt 0.594008 0.783399
vt 0.594008 0.885316

vn -1.000000 0.000000 0.000000
vn -1.000000 0.000000 0.000000
vn -1.000000 0.000000 0.000000
vn -1.000000 0.000000 0.000000
vn -1.000000 0.000000 0.000000
vn -1.000000 0.000000 0.000000
vn -0.000000 0.000000 -1.000000
vn -0.000000 0.000000 -1.000000
vn -0.000000 0.000000 -1.000000
vn -0.000000 0.000000 -1.000000
vn -0.000000 0.000000 -1.000000
vn -0.000000 0.000000 -1.000000
vn -0.000000 0.000000 1.000000
vn -0.000000 0.000000 1.000000
vn -0.000000 0.000000 1.000000
vn -0.000000 0.000000 1.000000
vn -0.000000 0.000000 1.000000
vn -0.000000 0.000000 1.000000
vn 1.000000 0.000000 0.000000
vn 1.000000 0.000000 0.000000
vn 1.000000 0.000000 0.000000
vn 1.000000 0.000000 0.000000
vn 1.000000 0.000000 0.000000
vn 1.000000 0.000000 0.000000
vn -0.000000 1.000000 0.000000
vn -0.000000 1.000000 0.000000
vn -0.000000 1.000000 0.000000
vn -0.000000 1.000000 0.000000
vn -0.000000 1.000000 0.000000
vn -0.000000 1.000000 0.000000
vn -0.000000 -1.000000 0.000000
vn -0.000000 -1.000000 0.000000
vn -0.000000 -1.000000 0.000000
vn -0.000000 -1.000000 0.000000
vn -0.000000 -1.000000 0.000000
vn -0.000000 -1.000000 0.000000
vn -0.000000 -0.000000 -1.000000
vn -0.000000 -0.000000 -1.000000
vn -0.000000 -0.000000 -1.000000
vn -0.382685 0.923879 0.000000
vn -0.382685 0.923879 0.000000
vn -0.382685 0.923879 0.000000
vn -0.382683 0.923880 0.000000
vn -0.382683 0.923880 0.000000
vn -0.382683 0.923880 0.000000
vn -0.923880 -0.382683 0.000000
vn -0.923880 -0.382683 0.000000
vn -0.923880 -0.382683 0.000000
vn -0.923880 -0.382684 0.000000
vn -0.923880 -0.382684 0.000000
vn -0.923880 -0.382684 0.000000
vn 0.382683 -0.923880 0.000000
vn 0.382683 -0.923880 0.000000
vn 0.382683 -0.923880 0.000000
vn 0.382683 -0.923880 0.000000
vn 0.382683 -0.923880 0.000000
vn 0.382683 -0.923880 0.000000
vn 0.923879 0.382684 0.000000
vn 0.923879 0.382684 0.000000
vn 0.923879 0.382684 0.000000
vn 0.923879 0.382684 0.000000
vn 0.923879 0.382684 0.000000
vn 0.923879 0.382684 0.000000
vn -0.923880 0.382683 0.000000
vn -0.923880 0.382683 0.000000
vn -0.923880 0.382683 0.000000
vn -0.923880 0.382683 0.000000
vn -0.923880 0.382683 0.000000
vn -0.923880 0.382683 0.000000
vn -0.382683 -0.923880 0.000000
vn -0.382683 -0.923880 0.000000
vn -0.382683 -0.923880 0.000000
vn -0.382683 -0.923880 0.000000
vn -0.382683 -0.923880 0.000000
vn -0.382683 -0.923880 0.000000
vn 0.923879 -0.382684 0.000000
vn 0.923879 -0.382684 0.000000
vn 0.923879 -0.382684 0.000000
vn 0.923879 -0.382684 0.000000
vn 0.923879 -0.382684 0.000000
vn 0.923879 -0.382684 0.000000
vn 0.382683 0.923880 0.000000
vn 0.382683 0.923880 0.000000
vn 0.382683 0.923880 0.000000
vn 0.382685 0.923879 0.000000
vn 0.382685 0.923879 0.000000
vn 0.382685 0.923879 0.000000
vn 1.000000 0.000000 0.000000
vn 1.000000 0.000000 0.000000
vn 1.000000 0.000000 0.000000
vn 1.000000 0.000000 0.000000
vn 1.000000 0.000000 0.000000
vn 1.000000 0.000000 0.000000
vn -0.000000 0.000000 1.000000
vn -0.000000 0.000000 1.000000
vn -0.000000 0.000000 1.000000
vn -0.000000 0.000000 1.000000
vn -0.000000 0.000000 1.000000
vn -0.000000 0.000000 1.000000
vn -0.000000 -1.000000 0.000000
vn -0.000000 -1.000000 0.000000
vn -0.000000 -1.000000 0.000000
vn -0.000000 -1.000000 0.000000
vn -0.000000 -1.000000 0.000000
vn -0.000000 -1.000000 0.000000
vn -1.000000 0.000000 0.000000
vn -1.000000 0.000000 0.000000
vn -1.000000 0.000000 0.000000
vn -1.000000 0.000000 0.000000
vn -1.000000 0.000000 0.000000
vn -1.000000 0.000000 0.000000
vn -0.000000 0.000000 -1.000000
vn -0.000000 0.000000 -1.000000
vn -0.000000 0.000000 -1.000000
vn -0.000000 0.000000 -1.000000
vn -0.000000 0.000000 -1.000000
vn -0.000000 0.000000 -1.000000
vn -0.000000 1.000000 0.000000
vn -0.000000 1.000000 0.000000
vn -0.000000 1.000000 0.000000
vn -0.000000 1.000000 0.000000
vn -0.000000 1.000000 0.000000
vn -0.000000 1.000000 0.000000
vn -0.000000 0.000001 -1.000000
vn -0.000000 0.000001 -1.000000
vn -0.000000 0.000001 -1.000000
vn -0.000000 0.000001 -1.000000
vn -0.000000 0.000001 -1.000000
vn -0.000000 0.000001 -1.000000
vn -0.000000 0.000000 -1.000000
vn -0.000000 0.000000 -1.000000
vn -0.000000 0.000000 -1.000000
vn -0.000000 0.000000 -1.000000
vn -0.000000 0.000000 -1.000000
vn -0.000000 0.000000 -1.000000
vn -0.000000 -0.000000 -1.000000
vn -0.000000 -0.000000 -1.000000
vn -0.000000 -0.000000 -1.000000
vn -0.000000 0.000000 1.000000
vn -0.000000 0.000000 1.000000
vn -0.000000 0.000000 1.000000
vn -0.382683 0.923880 0.000000
vn -0.382683 0.923880 0.000000
vn -0.382683 0.923880 0.000000
vn -0.382685 0.923879 0.000000
vn -0.382685 0.923879 0.000000
vn -0.382685 0.923879 0.000000
vn -0.923880 -0.382684 0.000000
vn -0.923880 -0.382684 0.000000
vn -0.923880 -0.382684 0.000000
vn -0.923880 -0.382684 0.000000
vn -0.923880 -0.382684 0.000000
vn -0.923880 -0.382684 0.000000
vn 0.382683 -0.923880 0.000000
vn 0.382683 -0.923880 0.000000
vn 0.382683 -0.923880 0.000000
vn 0.382683 -0.923880 0.000000
vn 0.382683 -0.923880 0.000000
vn 0.382683 -0.923880 0.000000
vn 0.923879 0.382684 0.000000
vn 0.923879 0.382684 0.000000
vn 0.923879 0.382684 0.000000
vn 0.923879 0.382684 0.000000
vn 0.923879 0.382684 0.000000
vn 0.923879 0.382684 0.000000
vn -0.923880 0.382683 0.000000
vn -0.923880 0.382683 0.000000
vn -0.923880 0.382683 0.000000
vn -0.923880 0.382684 0.000000
vn -0.923880 0.382684 0.000000
vn -0.923880 0.382684 0.000000
vn -0.382683 -0.923880 0.000000
vn -0.382683 -0.923880 0.000000
vn -0.382683 -0.923880 0.000000
vn -0.382683 -0.923880 0.000000
vn -0.382683 -0.923880 0.000000
vn -0.382683 -0.923880 0.000000
vn 0.923879 -0.382684 0.000000
vn 0.923879 -0.382684 0.000000
vn 0.923879 -0.382684 0.000000
vn 0.923879 -0.382684 0.000000
vn 0.923879 -0.382684 0.000000
vn 0.923879 -0.382684 0.000000
vn 0.382685 0.923879 0.000000
vn 0.382685 0.923879 0.000000
vn 0.382685 0.923879 0.000000
vn 0.382683 0.923880 0.000000
vn 0.382683 0.923880 0.000000
vn 0.382683 0.923880 0.000000
vn 1.000000 0.000000 0.000000
vn 1.000000 0.000000 0.000000
vn 1.000000 0.000000 0.000000
vn 1.000000 0.000000 0.000000
vn 1.000000 0.000000 0.000000
vn 1.000000 0.000000 0.000000
vn -0.000000 -1.000000 0.000000
vn -0.000000 -1.000000 0.000000
vn -0.000000 -1.000000 0.000000
vn -1.000000 0.000000 0.000000
vn -1.000000 0.000000 0.000000
vn -1.000000 0.000000 0.000000
vn -1.000000 0.000000 0.000000
vn -1.000000 0.000000 0.000000
vn -1.000000 0.000000 0.000000
vn -0.000000 0.000000 -1.000000
vn -0.000000 0.000000 -1.000000
vn -0.000000 0.000000 -1.000000
vn -0.000000 0.000000 -1.000000
vn -0.000000 0.000000 -1.000000
vn -0.000000 0.000000 -1.000000
vn -0.000000 0.000000 -1.000000
vn -0.000000 0.000000 -1.000000
vn -0.000000 0.000000 -1.000000
vn -0.000000 0.000000 -1.000000
vn -0.000000 0.000000 -1.000000
vn -0.000000 0.000000 -1.000000
vn -0.000000 0.000000 1.000000
vn -0.000000 0.000000 1.000000
vn -0.000000 0.000000 1.000000
vn -0.000000 0.000000 1.000000
vn -0.000000 0.000000 1.000000
vn -0.000000 0.000000 1.000000
vn -0.000000 -0.000000 1.000000
vn -0.000000 -0.000000 1.000000
vn -0.000000 -0.000000 1.000000
vn -0.000000 0.000000 1.000000
vn -0.000000 0.000000 1.000000
vn -0.000000 0.000000 1.000000
vn -0.000000 0.000000 1.000000
vn -0.000000 0.000000 1.000000
vn -0.000000 0.000000 1.000000
vn -0.000000 0.000000 1.000000
vn -0.000000 0.000000 1.000000
vn -0.000000 0.000000 1.000000
vn -0.000000 0.000000 1.000000
vn -0.000000 0.000000 1.000000
vn -0.000000 0.000000 1.000000
vn -0.000000 1.000000 0.000000
vn -0.000000 1.000000 0.000000
vn -0.000000 1.000000 0.000000
vn -0.000000 -0.000000 -1.000000
vn -0.000000 -0.000000 -1.000000
vn -0.000000 -0.000000 -1.000000
vn -0.382684 0.923879 0.000000
vn -0.382684 0.923879 0.000000
vn -0.382684 0.923879 0.000000
vn -0.382684 0.923879 0.000000
vn -0.382684 0.923879 0.000000
vn -0.382684 0.923879 0.000000
vn -0.923880 -0.382683 0.000000
vn -0.923880 -0.382683 0.000000
vn -0.923880 -0.382683 0.000000
vn -0.923880 -0.382683 0.000000
vn -0.923880 -0.382683 0.000000
vn -0.923880 -0.382683 0.000000
vn 0.382683 -0.923880 0.000000
vn 0.382683 -0.923880 0.000000
vn 0.382683 -0.923880 0.000000
vn 0.382683 -0.923880 0.000000
vn 0.382683 -0.923880 0.000000
vn 0.382683 -0.923880 0.000000
vn 0.923879 0.382684 0.000000
vn 0.923879 0.382684 0.000000
vn 0.923879 0.382684 0.000000
vn 0.923879 0.382684 0.000000
vn 0.923879 0.382684 0.000000
vn 0.923879 0.382684 0.000000
vn -0.923880 0.382683 0.000000
vn -0.923880 0.382683 0.000000
vn -0.923880 0.382683 0.000000
vn -0.923879 0.382684 0.000000
vn -0.923879 0.382684 0.000000
vn -0.923879 0.382684 0.000000
vn -0.382683 -0.923880 0.000000
vn -0.382683 -0.923880 0.000000
vn -0.382683 -0.923880 0.000000
vn -0.382683 -0.923880 0.000000
vn -0.382683 -0.923880 0.000000
vn -0.382683 -0.923880 0.000000
vn 0.923879 -0.382684 0.000000
vn 0.923879 -0.382684 0.000000
vn 0.923879 -0.382684 0.000000
vn 0.923879 -0.382684 0.000000
vn 0.923879 -0.382684 0.000000
vn 0.923879 -0.382684 0.000000
vn 0.382684 0.923879 0.000000
vn 0.382684 0.923879 0.000000
vn 0.382684 0.923879 0.000000
vn 0.382684 0.923879 0.000000
vn 0.382684 0.923879 0.000000
vn 0.382684 0.923879 0.000000
vn -0.000000 0.000001 -1.000000
vn -0.000000 0.000001 -1.000000
vn -0.000000 0.000001 -1.000000
vn -0.000000 0.000001 -1.000000
vn -0.000000 0.000001 -1.000000
vn -0.000000 0.000001 -1.000000
vn -0.000000 0.000000 -1.000000
vn -0.000000 0.000000 -1.000000
vn -0.000000 0.000000 -1.000000
vn -0.000000 0.000000 -1.000000
vn -0.000000 0.000000 -1.000000
vn -0.000000 0.000000 -1.000000
vn -0.000000 -0.000000 -1.000000
vn -0.000000 -0.000000 -1.000000
vn -0.000000 -0.000000 -1.000000
vn -0.000000 0.000000 1.000000
vn -0.000000 0.000000 1.000000
vn -0.000000 0.000000 1.000000
vn -0.382684 0.923879 0.000000
vn -0.382684 0.923879 0.000000
vn -0.382684 0.923879 0.000000
vn -0.382684 0.923879 0.000000
vn -0.382684 0.923879 0.000000
vn -0.382684 0.923879 0.000000
vn -0.923880 -0.382683 0.000000
vn -0.923880 -0.382683 0.000000
vn -0.923880 -0.382683 0.000000
vn -0.923880 -0.382684 0.000000
vn -0.923880 -0.382684 0.000000
vn -0.923880 -0.382684 0.000000
vn 0.382683 -0.923880 0.000000
vn 0.382683 -0.923880 0.000000
vn 0.382683 -0.923880 0.000000
vn 0.382683 -0.923880 0.000000
vn 0.382683 -0.923880 0.000000
vn 0.382683 -0.923880 0.000000
vn 0.923879 0.382684 0.000000
vn 0.923879 0.382684 0.000000
vn 0.923879 0.382684 0.000000
vn 0.923879 0.382684 0.000000
vn 0.923879 0.382684 0.000000
vn 0.923879 0.382684 0.000000
vn -0.923879 0.382684 0.000000
vn -0.923879 0.382684 0.000000
vn -0.923879 0.382684 0.000000
vn -0.923880 0.382683 0.000000
vn -0.923880 0.382683 0.000000
vn -0.923880 0.382683 0.000000
vn -0.382683 -0.923880 0.000000
vn -0.382683 -0.923880 0.000000
vn -0.382683 -0.923880 0.000000
vn -0.382683 -0.923880 0.000000
vn -0.382683 -0.923880 0.000000
vn -0.382683 -0.923880 0.000000
vn 0.923879 -0.382684 0.000000
vn 0.923879 -0.382684 0.000000
vn 0.923879 -0.382684 0.000000
vn 0.923879 -0.382684 0.000000
vn 0.923879 -0.382684 0.000000
vn 0.923879 -0.382684 0.000000
vn 0.382684 0.923879 0.000000
vn 0.382684 0.923879 0.000000
vn 0.382684 0.923879 0.000000
vn 0.382684 0.923879 0.000000
vn 0.382684 0.923879 0.000000
vn 0.382684 0.923879 0.000000
vn -0.000000 -0.000000 1.000000
vn -0.000000 -0.000000 1.000000
vn -0.000000 -0.000000 1.000000
vn -0.000000 0.000000 1.000000
vn -0.000000 0.000000 1.000000
vn -0.000000 0.000000 1.000000
vn -0.000000 0.000000 1.000000
vn -0.000000 0.000000 1.000000
vn -0.000000 0.000000 1.000000
vn -0.000000 0.000000 1.000000
vn -0.000000 0.000000 1.000000
vn -0.000000 0.000000 1.000000
vn -0.000000 0.000000 1.000000
vn -0.000000 0.000000 1.000000
vn -0.000000 0.000000 1.000000
vn -0.382685 0.923879 0.000000
vn -0.382685 0.923879 0.000000
vn -0.382685 0.923879 0.000000
vn -0.382685 0.923879 0.000000
vn -0.382685 0.923879 0.000000
vn -0.382685 0.923879 0.000000
vn -0.923879 -0.382684 0.000000
vn -0.923879 -0.382684 0.000000
vn -0.923879 -0.382684 0.000000
vn -0.923880 -0.382683 0.000000
vn -0.923880 -0.382683 0.000000
vn -0.923880 -0.382683 0.000000
vn 0.382685 -0.923879 0.000000
vn 0.382685 -0.923879 0.000000
vn 0.382685 -0.923879 0.000000
vn 0.382681 -0.923880 0.000000
vn 0.382681 -0.923880 0.000000
vn 0.382681 -0.923880 0.000000
vn 0.923880 0.382683 0.000000
vn 0.923880 0.382683 0.000000
vn 0.923880 0.382683 0.000000
vn 0.923879 0.382685 0.000000
vn 0.923879 0.382685 0.000000
vn 0.923879 0.382685 0.000000
vn -0.923879 0.382684 0.000000
vn -0.923879 0.382684 0.000000
vn -0.923879 0.382684 0.000000
vn -0.923880 0.382683 0.000000
vn -0.923880 0.382683 0.000000
vn -0.923880 0.382683 0.000000
vn -0.382681 -0.923880 0.000000
vn -0.382681 -0.923880 0.000000
vn -0.382681 -0.923880 0.000000
vn -0.382685 -0.923879 0.000000
vn -0.382685 -0.923879 0.000000
vn -0.382685 -0.923879 0.000000
vn 0.923880 -0.382683 0.000000
vn 0.923880 -0.382683 0.000000
vn 0.923880 -0.382683 0.000000
vn 0.923879 -0.382685 0.000000
vn 0.923879 -0.382685 0.000000
vn 0.923879 -0.382685 0.000000
vn 0.382685 0.923879 0.000000
vn 0.382685 0.923879 0.000000
vn 0.382685 0.923879 0.000000
vn 0.382685 0.923879 0.000000
vn 0.382685 0.923879 0.000000
vn 0.382685 0.923879 0.000000
vn -0.382685 0.923879 0.000000
vn -0.382685 0.923879 0.000000
vn -0.382685 0.923879 0.000000
vn -0.382685 0.923879 0.000000
vn -0.382685 0.923879 0.000000
vn -0.382685 0.923879 0.000000
vn -0.923879 -0.382684 0.000000
vn -0.923879 -0.382684 0.000000
vn -0.923879 -0.382684 0.000000
vn -0.923880 -0.382683 0.000000
vn -0.923880 -0.382683 0.000000
vn -0.923880 -0.382683 0.000000
vn 0.382685 -0.923879 0.000000
vn 0.382685 -0.923879 0.000000
vn 0.382685 -0.923879 0.000000
vn 0.382681 -0.923880 0.000000
vn 0.382681 -0.923880 0.000000
vn 0.382681 -0.923880 0.000000
vn 0.923880 0.382683 0.000000
vn 0.923880 0.382683 0.000000
vn 0.923880 0.382683 0.000000
vn 0.923879 0.382685 0.000000
vn 0.923879 0.382685 0.000000
vn 0.923879 0.382685 0.000000
vn -0.923879 0.382684 0.000000
vn -0.923879 0.382684 0.000000
vn -0.923879 0.382684 0.000000
vn -0.923880 0.382683 0.000000
vn -0.923880 0.382683 0.000000
vn -0.923880 0.382683 0.000000
vn -0.382681 -0.923880 0.000000
vn -0.382681 -0.923880 0.000000
vn -0.382681 -0.923880 0.000000
vn -0.382685 -0.923879 0.000000
vn -0.382685 -0.923879 0.000000
vn -0.382685 -0.923879 0.000000
vn 0.923880 -0.382683 0.000000
vn 0.923880 -0.382683 0.000000
vn 0.923880 -0.382683 0.000000
vn 0.923879 -0.382685 0.000000
vn 0.923879 -0.382685 0.000000
vn 0.923879 -0.382685 0.000000
vn 0.382685 0.923879 0.000000
vn 0.382685 0.923879 0.000000
vn 0.382685 0.923879 0.000000
vn 0.382685 0.923879 0.000000
vn 0.382685 0.923879 0.000000
vn 0.382685 0.923879 0.000000
vn -0.000000 0.000000 -1.000000
vn -0.000000 0.000000 -1.000000
vn -0.000000 0.000000 -1.000000
vn -0.000000 0.000000 -1.000000
vn -0.000000 0.000000 -1.000000
vn -0.000000 0.000000 -1.000000
vn -0.000000 0.000000 -1.000000
vn -0.000000 0.000000 -1.000000
vn -0.000000 0.000000 -1.000000
vn -0.000000 0.000000 -1.000000
vn -0.000000 0.000000 -1.000000
vn -0.000000 0.000000 -1.000000
vn -0.000000 0.000000 -1.000000
vn -0.000000 0.000000 -1.000000
vn -0.000000 0.000000 -1.000000
vn -0.000000 -0.000000 -1.000000
vn -0.000000 -0.000000 -1.000000
vn -0.000000 -0.000000 -1.000000
vn -0.000000 0.000000 1.000000
vn -0.000000 0.000000 1.000000
vn -0.000000 0.000000 1.000000
vn -0.000000 0.000000 1.000000
vn -0.000000 0.000000 1.000000
vn -0.000000 0.000000 1.000000
vn -0.000000 -0.000000 1.000000
vn -0.000000 -0.000000 1.000000
vn -0.000000 -0.000000 1.000000
vn -0.000000 0.000000 1.000000
vn -0.000000 0.000000 1.000000
vn -0.000000 0.000000 1.000000
vn -0.000000 -0.000000 1.000000
vn -0.000000 -0.000000 1.000000
vn -0.000000 -0.000000 1.000000
vn -0.000000 -0.000000 1.000000
vn -0.000000 -0.000000 1.000000
vn -0.000000 -0.000000 1.000000

g Material.001
f 3/1/1 1/2/2 2/3/3
f 6/4/4 4/5/5 5/6/6
f 9/7/7 7/8/8 8/9/9
f 12/10/10 10/11/11 11/12/12
f 15/13/13 13/14/14 14/15/15
f 18/16/16 16/17/17 17/18/18
f 21/19/19 19/20/20 20/21/21
f 24/22/22 22/23/23 23/24/24
f 27/25/25 25/26/26 26/27/27
f 30/28/28 28/29/29 29/30/30
f 33/31/31 31/32/32 32/33/33
f 36/34/34 34/35/35 35/36/36

g Material.002
f 39/37/37 37/38/38 38/39/39
f 42/40/40 40/41/41 41/42/42
f 45/43/43 43/44/44 44/45/45
f 48/46/46 46/47/47 47/48/48
f 51/49/49 49/50/50 50/51/51
f 54/52/52 52/53/53 53/54/54
f 57/55/55 55/56/56 56/57/57
f 60/58/58 58/59/59 59/60/60
f 63/61/61 61/62/62 62/63/63
f 66/64/64 64/65/65 65/66/66
f 69/67/67 67/68/68 68/69/69
f 72/70/70 70/71/71 71/72/72
f 75/73/73 73/74/74 74/75/75
f 78/76/76 76/77/77 77/78/78
f 81/79/79 79/80/80 80/81/81
f 84/82/82 82/83/83 83/84/84
f 87/85/85 85/86/86 86/87/87
f 90/88/88 88/89/89 89/90/90
f 93/91/91 91/92/92 92/93/93
f 96/94/94 94/95/95 95/96/96
f 99/97/97 97/98/98 98/99/99
f 102/100/100 100/101/101 101/102/102
f 105/103/103 103/104/104 104/105/105
f 108/106/106 106/107/107 107/108/108
f 111/109/109 109/110/110 110/111/111
f 114/112/112 112/113/113 113/114/114
f 117/115/115 115/116/116 116/117/117
f 120/118/118 118/119/119 119/120/120
f 123/121/121 121/122/122 122/123/123
f 126/124/124 124/125/125 125/126/126
f 129/127/127 127/128/128 128/129/129
f 132/130/130 130/131/131 131/132/132
f 135/133/133 133/134/134 134/135/135
f 138/136/136 136/137/137 137/138/138
f 141/139/139 139/140/140 140/141/141
f 144/142/142 142/143/143 143/144/144
f 147/145/145 145/146/146 146/147/147
f 150/148/148 148/149/149 149/150/150
f 153/151/151 151/152/152 152/153/153
f 156/154/154 154/155/155 155/156/156
f 159/157/157 157/158/158 158/159/159
f 162/160/160 160/161/161 161/162/162
f 165/163/163 163/164/164 164/165/165
f 168/166/166 166/167/167 167/168/168
f 171/169/169 169/170/170 170/171/171
f 174/172/172 172/173/173 173/174/174
f 177/175/175 175/176/176 176/177/177
f 180/178/178 178/179/179 179/180/180
f 183/181/181 181/182/182 182/183/183
f 186/184/184 184/185/185 185/186/186
f 189/187/187 187/188/188 188/189/189
f 192/190/190 190/191/191 191/192/192
f 195/193/193 193/194/194 194/195/195
f 198/196/196 196/197/197 197/198/198
f 201/199/199 199/200/200 200/201/201
f 204/202/202 202/203/203 203/204/204
f 207/205/205 205/206/206 206/207/207
f 210/208/208 208/209/209 209/210/210
f 213/211/211 211/212/212 212/213/213
f 216/214/214 214/215/215 215/216/216
f 219/217/217 217/218/218 218/219/219
f 222/220/220 220/221/221 221/222/222
f 225/223/223 223/224/224 224/225/225
f 228/226/226 226/227/227 227/228/228
f 231/229/229 229/230/230 230/231/231
f 234/232/232 232/233/233 233/234/234
f 237/235/235 235/236/236 236/237/237
f 240/238/238 238/239/239 239/240/240
f 243/241/241 241/242/242 242/243/243
f 246/244/244 244/245/245 245/246/246
f 249/247/247 247/248/248 248/249/249
f 252/250/250 250/251/251 251/252/252
f 255/253/253 253/254/254 254/255/255
f 258/256/256 256/257/257 257/258/258
f 261/259/259 259/260/260 260/261/261
f 264/262/262 262/263/263 263/264/264
f 267/265/265 265/266/266 266/267/267
f 270/268/268 268/269/269 269/270/270
f 273/271/271 271/272/272 272/273/273
f 276/274/274 274/275/275 275/276/276
f 279/277/277 277/278/278 278/279/279
f 282/280/280 280/281/281 281/282/282
f 285/283/283 283/284/284 284/285/285
f 288/286/286 286/287/287 287/288/288
f 291/289/289 289/290/290 290/291/291
f 294/292/292 292/293/293 293/294/294
f 297/295/295 295/296/296 296/297/297
f 300/298/298 298/299/299 299/300/300
f 303/301/301 301/302/302 302/303/303
f 306/304/304 304/305/305 305/306/306
f 309/307/307 307/308/308 308/309/309
f 312/310/310 310/311/311 311/312/312
f 315/313/313 313/314/314 314/315/315
f 318/316/316 316/317/317 317/318/318
f 321/319/319 319/320/320 320/321/321
f 324/322/322 322/323/323 323/324/324
f 327/325/325 325/326/326 326/327/327
f 330/328/328 328/329/329 329/330/330
f 333/331/331 331/332/332 332/333/333
f 336/334/334 334/335/335 335/336/336
f 339/337/337 337/338/338 338/339/339
f 342/340/340 340/341/341 341/342/342
f 345/343/343 343/344/344 344/345/345
f 348/346/346 346/347/347 347/348/348
f 351/349/349 349/350/350 350/351/351
f 354/352/352 352/353/353 353/354/354
f 357/355/355 355/356/356 356/357/357
f 360/358/358 358/359/359 359/360/360
f 363/361/361 361/362/362 362/363/363
f 366/364/364 364/365/365 365/366/366
f 369/367/367 367/368/368 368/369/369
f 372/370/370 370/371/371 371/372/372
f 378/373/373 376/374/374 377/375/375
f 381/376/376 379/377/377 380/378/378
f 384/379/379 382/380/380 383/381/381
f 387/382/382 385/383/383 386/384/384
f 390/385/385 388/386/386 389/387/387
f 393/388/388 391/389/389 392/390/390
f 396/391/391 394/392/392 395/393/393
f 399/394/394 397/395/395 398/396/396
f 402/397/397 400/398/398 401/399/399
f 405/400/400 403/401/401 404/402/402
f 408/403/403 406/404/404 407/405/405
f 411/406/406 409/407/407 410/408/408
f 414/409/409 412/410/410 413/411/411
f 417/412/412 415/413/413 416/414/414
f 420/415/415 418/416/416 419/417/417
f 423/418/418 421/419/419 422/420/420
f 444/421/421 442/422/422 443/423/423
f 447/424/424 445/425/425 446/426/426
f 450/427/427 448/428/428 449/429/429
f 453/430/430 451/431/431 452/432/432
f 456/433/433 454/434/434 455/435/435
f 459/436/436 457/437/437 458/438/438
f 462/439/439 460/440/440 461/441/441
f 465/442/442 463/443/443 464/444/444
f 468/445/445 466/446/446 467/447/447
f 471/448/448 469/449/449 470/450/450
f 474/451/451 472/452/452 473/453/453
f 477/454/454 475/455/455 476/456/456
f 480/457/457 478/458/458 479/459/459
f 483/460/460 481/461/461 482/462/462
f 486/463/463 484/464/464 485/465/465
f 489/466/466 487/467/467 488/468/468

g Material.003
f 375/469/469 373/470/470 374/471/471
f 426/472/472 424/473/473 425/474/474
f 429/475/475 427/476/476 428/477/477
f 432/478/478 430/479/479 431/480/480
f 435/481/481 433/482/482 434/483/483
f 438/484/484 436/485/485 437/486/486
f 441/487/487 439/488/488 440/489/489
f 492/490/490 490/491/491 491/492/492
f 495/493/493 493/494/494 494/495/495
f 498/496/496 496/497/497 497/498/498
f 501/499/499 499/500/500 500/501/501
f 504/502/502 502/503/503 503/504/504

