# Converted from B3D for Luanti (With Correct Normals)
# Object Name: multidecor_crooked_shower_head

v 0.000000 0.800000 1.000000
v 0.000000 0.800000 0.900000
v -0.212132 0.712132 0.900000
v -0.212132 0.712132 1.000000
v -0.212132 0.712132 1.000000
v -0.212132 0.712132 0.900000
v -0.300000 0.500000 0.900000
v -0.300000 0.500000 1.000000
v -0.300000 0.500000 1.000000
v -0.300000 0.500000 0.900000
v -0.212132 0.287868 0.900000
v -0.212132 0.287868 1.000000
v -0.212132 0.287868 1.000000
v -0.212132 0.287868 0.900000
v 0.000000 0.200000 0.900000
v 0.000000 0.200000 1.000000
v 0.000000 0.200000 1.000000
v 0.000000 0.200000 0.900000
v 0.212132 0.287868 0.900000
v 0.212132 0.287868 1.000000
v 0.212132 0.287868 1.000000
v 0.212132 0.287868 0.900000
v 0.300000 0.500000 0.900000
v 0.300000 0.500000 1.000000
v -0.212132 0.287868 0.900000
v -0.300000 0.500000 0.900000
v 0.300000 0.500000 0.900000
v 0.300000 0.500000 1.000000
v 0.300000 0.500000 0.900000
v 0.212132 0.712132 0.900000
v 0.212132 0.712132 1.000000
v 0.212132 0.712132 1.000000
v 0.212132 0.712132 0.900000
v 0.000000 0.800000 0.900000
v 0.000000 0.800000 1.000000
v -0.212132 0.712132 1.000000
v -0.212132 0.287868 1.000000
v 0.212132 0.287868 1.000000
v 0.075000 0.425000 0.075000
v 0.075000 0.575000 0.075000
v 0.075000 0.575000 0.900000
v 0.075000 0.425000 0.900000
v -0.075000 0.425000 -0.075000
v -0.075000 0.575000 -0.075000
v 0.075000 0.575000 -0.075000
v 0.075000 0.425000 -0.075000
v -0.075000 0.425000 0.900000
v -0.075000 0.575000 0.900000
v -0.075000 0.575000 0.075000
v -0.075000 0.425000 0.075000
v 0.075000 0.575000 0.075000
v 0.075000 0.425000 0.075000
v 0.075000 0.425000 -0.075000
v 0.075000 0.575000 -0.075000
v 0.075000 0.425000 0.900000
v -0.075000 0.425000 0.900000
v -0.075000 0.425000 0.075000
v 0.075000 0.425000 0.075000
v -0.075000 0.575000 0.900000
v 0.075000 0.575000 0.900000
v 0.075000 0.575000 0.075000
v -0.075000 0.575000 0.075000
v 0.075000 0.425000 -0.075000
v 0.075000 0.425000 0.075000
v 0.075000 -0.200000 0.075000
v 0.075000 -0.200000 -0.075000
v -0.075000 0.575000 0.075000
v 0.075000 0.575000 0.075000
v 0.075000 0.575000 -0.075000
v -0.075000 0.575000 -0.075000
v -0.075000 0.425000 0.075000
v -0.075000 0.575000 0.075000
v -0.075000 0.575000 -0.075000
v -0.075000 0.425000 -0.075000
v -0.075000 0.425000 -0.075000
v 0.075000 0.425000 -0.075000
v 0.075000 -0.200000 -0.075000
v -0.075000 -0.200000 -0.075000
v 0.075000 0.425000 0.075000
v -0.075000 0.425000 0.075000
v -0.075000 -0.200000 0.075000
v 0.075000 -0.200000 0.075000
v -0.075000 0.425000 0.075000
v -0.075000 0.425000 -0.075000
v -0.075000 -0.200000 -0.075000
v -0.075000 -0.200000 0.075000
v 0.250000 -0.200000 -0.000000
v -0.000000 -0.200000 0.250000
v -0.250000 -0.200000 0.000000
v -0.441942 -0.400000 0.441942
v -0.000000 -0.400000 0.625000
v 0.000000 -0.550000 0.625000
v -0.441942 -0.550000 0.441942
v -0.250000 -0.200000 0.000000
v -0.176777 -0.200000 0.176777
v -0.441942 -0.400000 0.441942
v -0.625000 -0.400000 0.000000
v -0.000000 -0.200000 -0.250000
v -0.176777 -0.200000 -0.176777
v -0.441942 -0.400000 -0.441942
v -0.000000 -0.400000 -0.625000
v 0.250000 -0.200000 -0.000000
v 0.176777 -0.200000 -0.176777
v 0.441942 -0.400000 -0.441942
v 0.625000 -0.400000 -0.000000
v -0.000000 -0.200000 0.250000
v 0.176777 -0.200000 0.176777
v 0.441942 -0.400000 0.441942
v -0.000000 -0.400000 0.625000
v -0.176777 -0.200000 0.176777
v -0.000000 -0.200000 0.250000
v -0.000000 -0.400000 0.625000
v -0.441942 -0.400000 0.441942
v -0.176777 -0.200000 -0.176777
v -0.250000 -0.200000 0.000000
v -0.625000 -0.400000 0.000000
v -0.441942 -0.400000 -0.441942
v 0.176777 -0.200000 -0.176777
v -0.000000 -0.200000 -0.250000
v -0.000000 -0.400000 -0.625000
v 0.441942 -0.400000 -0.441942
v 0.176777 -0.200000 0.176777
v 0.250000 -0.200000 -0.000000
v 0.625000 -0.400000 -0.000000
v 0.441942 -0.400000 0.441942
v -0.441942 -0.550000 0.441942
v 0.000000 -0.550000 0.625000
v -0.000000 -0.550000 -0.625000
v -0.441942 -0.400000 -0.441942
v -0.625000 -0.400000 0.000000
v -0.625000 -0.550000 0.000000
v -0.441942 -0.550000 -0.441942
v 0.441942 -0.400000 -0.441942
v -0.000000 -0.400000 -0.625000
v -0.000000 -0.550000 -0.625000
v 0.441942 -0.550000 -0.441942
v 0.441942 -0.400000 0.441942
v 0.625000 -0.400000 -0.000000
v 0.625000 -0.550000 -0.000000
v 0.441942 -0.550000 0.441942
v -0.625000 -0.400000 0.000000
v -0.441942 -0.400000 0.441942
v -0.441942 -0.550000 0.441942
v -0.625000 -0.550000 0.000000
v -0.000000 -0.400000 -0.625000
v -0.441942 -0.400000 -0.441942
v -0.441942 -0.550000 -0.441942
v -0.000000 -0.550000 -0.625000
v 0.625000 -0.400000 -0.000000
v 0.441942 -0.400000 -0.441942
v 0.441942 -0.550000 -0.441942
v 0.625000 -0.550000 -0.000000
v -0.000000 -0.400000 0.625000
v 0.441942 -0.400000 0.441942
v 0.441942 -0.550000 0.441942
v 0.000000 -0.550000 0.625000
v -0.300000 0.500000 0.900000
v -0.212132 0.712132 0.900000
v 0.300000 0.500000 0.900000
v -0.212132 0.712132 0.900000
v 0.000000 0.800000 0.900000
v 0.300000 0.500000 0.900000
v 0.000000 0.800000 0.900000
v 0.212132 0.712132 0.900000
v 0.300000 0.500000 0.900000
v 0.300000 0.500000 0.900000
v 0.212132 0.287868 0.900000
v 0.000000 0.200000 0.900000
v 0.000000 0.200000 0.900000
v -0.212132 0.287868 0.900000
v 0.300000 0.500000 0.900000
v 0.212132 0.712132 1.000000
v 0.000000 0.800000 1.000000
v -0.212132 0.712132 1.000000
v -0.212132 0.712132 1.000000
v -0.300000 0.500000 1.000000
v -0.212132 0.287868 1.000000
v -0.212132 0.287868 1.000000
v 0.000000 0.200000 1.000000
v 0.212132 0.287868 1.000000
v 0.212132 0.287868 1.000000
v 0.300000 0.500000 1.000000
v 0.212132 0.712132 1.000000
v 0.212132 0.712132 1.000000
v -0.212132 0.712132 1.000000
v 0.212132 0.287868 1.000000
v 0.250000 -0.200000 -0.000000
v 0.176777 -0.200000 0.176777
v -0.000000 -0.200000 0.250000
v -0.000000 -0.200000 0.250000
v -0.176777 -0.200000 0.176777
v -0.250000 -0.200000 0.000000
v -0.250000 -0.200000 0.000000
v -0.176777 -0.200000 -0.176777
v -0.000000 -0.200000 -0.250000
v -0.000000 -0.200000 -0.250000
v 0.176777 -0.200000 -0.176777
v -0.250000 -0.200000 0.000000
v 0.176777 -0.200000 -0.176777
v 0.250000 -0.200000 -0.000000
v -0.250000 -0.200000 0.000000
v 0.000000 -0.550000 0.625000
v 0.441942 -0.550000 0.441942
v 0.625000 -0.550000 -0.000000
v 0.625000 -0.550000 -0.000000
v 0.441942 -0.550000 -0.441942
v 0.000000 -0.550000 0.625000
v 0.441942 -0.550000 -0.441942
v -0.000000 -0.550000 -0.625000
v 0.000000 -0.550000 0.625000
v -0.000000 -0.550000 -0.625000
v -0.441942 -0.550000 -0.441942
v -0.625000 -0.550000 0.000000
v -0.625000 -0.550000 0.000000
v -0.441942 -0.550000 0.441942
v -0.000000 -0.550000 -0.625000

vt 0.962099 0.447124
vt 0.999636 0.533312
vt 0.962099 0.533312
vt 0.999636 0.447124
vt 0.999636 0.533312
vt 0.962099 0.447124
vt 0.962099 0.360936
vt 0.999636 0.447124
vt 0.962099 0.447124
vt 0.999636 0.360936
vt 0.999636 0.447124
vt 0.962099 0.360936
vt 0.962099 0.258928
vt 0.999636 0.345115
vt 0.962099 0.345115
vt 0.999636 0.258928
vt 0.999636 0.345115
vt 0.962099 0.258928
vt 0.962099 0.172740
vt 0.999636 0.258928
vt 0.962099 0.258928
vt 0.999636 0.172740
vt 0.999636 0.258928
vt 0.962099 0.172740
vt 0.962099 0.086552
vt 0.999636 0.172740
vt 0.962099 0.172740
vt 0.999636 0.086552
vt 0.999636 0.172740
vt 0.962099 0.086552
vt 0.962099 0.000364
vt 0.999636 0.086552
vt 0.962099 0.086552
vt 0.999636 0.000364
vt 0.999636 0.086552
vt 0.962099 0.000364
vt 0.606317 0.000364
vt 0.753449 0.147496
vt 0.692505 0.208440
vt 0.962099 0.619500
vt 0.999636 0.705688
vt 0.962099 0.705688
vt 0.999636 0.619500
vt 0.999636 0.705688
vt 0.962099 0.619500
vt 0.962099 0.533312
vt 0.999636 0.619500
vt 0.962099 0.619500
vt 0.999636 0.533312
vt 0.999636 0.619500
vt 0.962099 0.533312
vt 0.428018 0.367074
vt 0.514206 0.575150
vt 0.367074 0.514206
vt 0.253736 0.000364
vt 0.310041 0.310041
vt 0.253736 0.310041
vt 0.310041 0.000364
vt 0.310041 0.310041
vt 0.253736 0.000364
vt 0.366346 0.658711
vt 0.422651 0.715016
vt 0.366346 0.715016
vt 0.422651 0.658711
vt 0.422651 0.715016
vt 0.366346 0.658711
vt 0.310041 0.367074
vt 0.000364 0.423379
vt 0.000364 0.367074
vt 0.310041 0.423379
vt 0.000364 0.423379
vt 0.310041 0.367074
vt 0.310041 0.366346
vt 0.253736 0.310041
vt 0.310041 0.310041
vt 0.253736 0.366346
vt 0.253736 0.310041
vt 0.310041 0.366346
vt 0.310041 0.253736
vt 0.000364 0.310041
vt 0.000364 0.253736
vt 0.310041 0.310041
vt 0.000364 0.310041
vt 0.310041 0.253736
vt 0.310041 0.658711
vt 0.000364 0.715016
vt 0.000364 0.658711
vt 0.310041 0.715016
vt 0.000364 0.715016
vt 0.310041 0.658711
vt 0.544645 0.310041
vt 0.310041 0.366346
vt 0.310041 0.310041
vt 0.544645 0.366346
vt 0.310041 0.366346
vt 0.544645 0.310041
vt 0.366346 0.658711
vt 0.310041 0.715016
vt 0.310041 0.658711
vt 0.366346 0.715016
vt 0.310041 0.715016
vt 0.366346 0.658711
vt 0.366346 0.367074
vt 0.310041 0.423379
vt 0.310041 0.367074
vt 0.366346 0.423379
vt 0.310041 0.423379
vt 0.366346 0.367074
vt 0.657255 0.658711
vt 0.422651 0.715016
vt 0.422651 0.658711
vt 0.657255 0.715016
vt 0.422651 0.715016
vt 0.657255 0.658711
vt 0.544645 0.253736
vt 0.310041 0.310041
vt 0.310041 0.253736
vt 0.544645 0.310041
vt 0.310041 0.310041
vt 0.544645 0.253736
vt 0.366346 0.657983
vt 0.310041 0.423379
vt 0.366346 0.423379
vt 0.310041 0.657983
vt 0.310041 0.423379
vt 0.366346 0.657983
vt 0.626665 0.367074
vt 0.698488 0.540471
vt 0.575878 0.489684
vt 0.810482 0.359480
vt 0.754177 0.539038
vt 0.754177 0.359480
vt 0.810482 0.539038
vt 0.754177 0.539038
vt 0.810482 0.359480
vt 0.961371 0.360936
vt 0.811210 0.486627
vt 0.811210 0.414803
vt 0.961371 0.540494
vt 0.811210 0.486627
vt 0.961371 0.360936
vt 0.811210 0.360208
vt 0.961371 0.234517
vt 0.961371 0.306341
vt 0.811210 0.180650
vt 0.961371 0.234517
vt 0.811210 0.360208
vt 0.961371 0.000364
vt 0.811210 0.126055
vt 0.811210 0.054231
vt 0.961371 0.179922
vt 0.811210 0.126055
vt 0.961371 0.000364
vt 0.904338 0.719324
vt 0.754177 0.845015
vt 0.754177 0.773192
vt 0.904338 0.898882
vt 0.754177 0.845015
vt 0.904338 0.719324
vt 0.150525 0.715744
vt 0.000364 0.841435
vt 0.000364 0.769612
vt 0.150525 0.895302
vt 0.000364 0.841435
vt 0.150525 0.715744
vt 0.603192 0.715744
vt 0.453031 0.841435
vt 0.453031 0.769612
vt 0.603192 0.895302
vt 0.453031 0.841435
vt 0.603192 0.715744
vt 0.302142 0.895302
vt 0.452303 0.769612
vt 0.452303 0.841435
vt 0.302142 0.715744
vt 0.452303 0.769612
vt 0.302142 0.895302
vt 0.301414 0.715744
vt 0.151253 0.841435
vt 0.151253 0.769612
vt 0.301414 0.895302
vt 0.151253 0.841435
vt 0.301414 0.715744
vt 0.603920 0.895302
vt 0.660225 0.715744
vt 0.660225 0.895302
vt 0.603920 0.715744
vt 0.660225 0.715744
vt 0.603920 0.895302
vt 0.692970 0.900315
vt 0.749275 0.720757
vt 0.749275 0.900315
vt 0.692970 0.720757
vt 0.749275 0.720757
vt 0.692970 0.900315
vt 0.810482 0.000364
vt 0.754177 0.179922
vt 0.754177 0.000364
vt 0.810482 0.179922
vt 0.754177 0.179922
vt 0.810482 0.000364
vt 0.810482 0.539038
vt 0.754177 0.718596
vt 0.754177 0.539038
vt 0.810482 0.718596
vt 0.754177 0.718596
vt 0.810482 0.539038
vt 0.961371 0.719324
vt 0.905066 0.898882
vt 0.905066 0.719324
vt 0.961371 0.898882
vt 0.905066 0.898882
vt 0.961371 0.719324
vt 0.692970 0.720757
vt 0.749275 0.541199
vt 0.749275 0.720757
vt 0.692970 0.541199
vt 0.749275 0.541199
vt 0.692970 0.720757
vt 0.810482 0.179922
vt 0.754177 0.359480
vt 0.754177 0.179922
vt 0.810482 0.359480
vt 0.754177 0.359480
vt 0.810482 0.179922
vt 0.606317 0.000364
vt 0.692505 0.208440
vt 0.606317 0.208440
vt 0.606317 0.000364
vt 0.606317 0.208440
vt 0.545373 0.147496
vt 0.606317 0.000364
vt 0.545373 0.147496
vt 0.545373 0.061308
vt 0.753449 0.061308
vt 0.606317 0.000364
vt 0.692505 0.000364
vt 0.606317 0.000364
vt 0.753449 0.061308
vt 0.753449 0.147496
vt 0.514206 0.575150
vt 0.575150 0.428018
vt 0.575150 0.514206
vt 0.367074 0.514206
vt 0.514206 0.575150
vt 0.428018 0.575150
vt 0.428018 0.367074
vt 0.367074 0.514206
vt 0.367074 0.428018
vt 0.575150 0.428018
vt 0.428018 0.367074
vt 0.514206 0.367074
vt 0.428018 0.367074
vt 0.575150 0.428018
vt 0.514206 0.575150
vt 0.575878 0.489684
vt 0.698488 0.540471
vt 0.626665 0.540471
vt 0.626665 0.367074
vt 0.575878 0.489684
vt 0.575878 0.417861
vt 0.749275 0.417861
vt 0.626665 0.367074
vt 0.698488 0.367074
vt 0.626665 0.367074
vt 0.749275 0.417861
vt 0.749275 0.489684
vt 0.626665 0.367074
vt 0.749275 0.489684
vt 0.698488 0.540471
vt 0.707065 0.999900
vt 0.000100 0.292935
vt 0.292935 0.000100
vt 0.999900 0.292935
vt 0.292935 0.000100
vt 0.707065 0.000100
vt 0.292935 0.000100
vt 0.999900 0.292935
vt 0.999900 0.707065
vt 0.292935 0.000100
vt 0.999900 0.707065
vt 0.707065 0.999900
vt 0.000100 0.707065
vt 0.707065 0.999900
vt 0.292935 0.999900
vt 0.707065 0.999900
vt 0.000100 0.707065
vt 0.000100 0.292935

vn -0.382683 0.923880 0.000000
vn -0.382683 0.923880 0.000000
vn -0.382683 0.923880 0.000000
vn -0.382684 0.923879 0.000000
vn -0.382684 0.923879 0.000000
vn -0.382684 0.923879 0.000000
vn -0.923880 0.382683 0.000000
vn -0.923880 0.382683 0.000000
vn -0.923880 0.382683 0.000000
vn -0.923879 0.382684 0.000000
vn -0.923879 0.382684 0.000000
vn -0.923879 0.382684 0.000000
vn -0.923879 -0.382684 0.000000
vn -0.923879 -0.382684 0.000000
vn -0.923879 -0.382684 0.000000
vn -0.923879 -0.382684 0.000000
vn -0.923879 -0.382684 0.000000
vn -0.923879 -0.382684 0.000000
vn -0.382684 -0.923879 0.000000
vn -0.382684 -0.923879 0.000000
vn -0.382684 -0.923879 0.000000
vn -0.382684 -0.923879 0.000000
vn -0.382684 -0.923879 0.000000
vn -0.382684 -0.923879 0.000000
vn 0.382684 -0.923879 0.000000
vn 0.382684 -0.923879 0.000000
vn 0.382684 -0.923879 0.000000
vn 0.382684 -0.923879 0.000000
vn 0.382684 -0.923879 0.000000
vn 0.382684 -0.923879 0.000000
vn 0.923879 -0.382684 0.000000
vn 0.923879 -0.382684 0.000000
vn 0.923879 -0.382684 0.000000
vn 0.923879 -0.382684 0.000000
vn 0.923879 -0.382684 0.000000
vn 0.923879 -0.382684 0.000000
vn -0.000000 -0.000000 -1.000000
vn -0.000000 -0.000000 -1.000000
vn -0.000000 -0.000000 -1.000000
vn 0.923879 0.382684 0.000000
vn 0.923879 0.382684 0.000000
vn 0.923879 0.382684 0.000000
vn 0.923880 0.382683 -0.000000
vn 0.923880 0.382683 -0.000000
vn 0.923880 0.382683 -0.000000
vn 0.382684 0.923879 -0.000001
vn 0.382684 0.923879 -0.000001
vn 0.382684 0.923879 -0.000001
vn 0.382684 0.923879 0.000000
vn 0.382684 0.923879 0.000000
vn 0.382684 0.923879 0.000000
vn -0.000000 0.000000 1.000000
vn -0.000000 0.000000 1.000000
vn -0.000000 0.000000 1.000000
vn 1.000000 0.000000 0.000000
vn 1.000000 0.000000 0.000000
vn 1.000000 0.000000 0.000000
vn 1.000000 0.000000 0.000000
vn 1.000000 0.000000 0.000000
vn 1.000000 0.000000 0.000000
vn -0.000000 0.000000 -1.000000
vn -0.000000 0.000000 -1.000000
vn -0.000000 0.000000 -1.000000
vn -0.000000 0.000000 -1.000000
vn -0.000000 0.000000 -1.000000
vn -0.000000 0.000000 -1.000000
vn -1.000000 0.000000 0.000000
vn -1.000000 0.000000 0.000000
vn -1.000000 0.000000 0.000000
vn -1.000000 0.000000 0.000000
vn -1.000000 0.000000 0.000000
vn -1.000000 0.000000 0.000000
vn 1.000000 0.000000 0.000000
vn 1.000000 0.000000 0.000000
vn 1.000000 0.000000 0.000000
vn 1.000000 0.000000 0.000000
vn 1.000000 0.000000 0.000000
vn 1.000000 0.000000 0.000000
vn -0.000000 -1.000000 0.000000
vn -0.000000 -1.000000 0.000000
vn -0.000000 -1.000000 0.000000
vn -0.000000 -1.000000 0.000000
vn -0.000000 -1.000000 0.000000
vn -0.000000 -1.000000 0.000000
vn -0.000000 1.000000 0.000000
vn -0.000000 1.000000 0.000000
vn -0.000000 1.000000 0.000000
vn -0.000000 1.000000 0.000000
vn -0.000000 1.000000 0.000000
vn -0.000000 1.000000 0.000000
vn 1.000000 0.000000 0.000000
vn 1.000000 0.000000 0.000000
vn 1.000000 0.000000 0.000000
vn 1.000000 0.000000 0.000000
vn 1.000000 0.000000 0.000000
vn 1.000000 0.000000 0.000000
vn -0.000000 1.000000 0.000000
vn -0.000000 1.000000 0.000000
vn -0.000000 1.000000 0.000000
vn -0.000000 1.000000 0.000000
vn -0.000000 1.000000 0.000000
vn -0.000000 1.000000 0.000000
vn -1.000000 0.000000 0.000000
vn -1.000000 0.000000 0.000000
vn -1.000000 0.000000 0.000000
vn -1.000000 0.000000 0.000000
vn -1.000000 0.000000 0.000000
vn -1.000000 0.000000 0.000000
vn -0.000000 0.000000 -1.000000
vn -0.000000 0.000000 -1.000000
vn -0.000000 0.000000 -1.000000
vn -0.000000 0.000000 -1.000000
vn -0.000000 0.000000 -1.000000
vn -0.000000 0.000000 -1.000000
vn -0.000000 0.000000 1.000000
vn -0.000000 0.000000 1.000000
vn -0.000000 0.000000 1.000000
vn -0.000000 0.000000 1.000000
vn -0.000000 0.000000 1.000000
vn -0.000000 0.000000 1.000000
vn -1.000000 0.000000 0.000000
vn -1.000000 0.000000 0.000000
vn -1.000000 0.000000 0.000000
vn -1.000000 0.000000 0.000000
vn -1.000000 0.000000 0.000000
vn -1.000000 0.000000 0.000000
vn 0.000000 -1.000000 0.000000
vn 0.000000 -1.000000 0.000000
vn 0.000000 -1.000000 0.000000
vn 0.382684 0.000000 -0.923880
vn 0.382684 0.000000 -0.923880
vn 0.382684 0.000000 -0.923880
vn 0.382684 0.000000 -0.923879
vn 0.382684 0.000000 -0.923879
vn 0.382684 0.000000 -0.923879
vn 0.461895 -0.866053 -0.191323
vn 0.461895 -0.866053 -0.191323
vn 0.461895 -0.866053 -0.191323
vn 0.461895 -0.866053 -0.191323
vn 0.461895 -0.866053 -0.191323
vn 0.461895 -0.866053 -0.191323
vn 0.191323 -0.866053 0.461895
vn 0.191323 -0.866053 0.461895
vn 0.191323 -0.866053 0.461895
vn 0.191323 -0.866053 0.461895
vn 0.191323 -0.866053 0.461895
vn 0.191323 -0.866053 0.461895
vn -0.461895 -0.866053 0.191323
vn -0.461895 -0.866053 0.191323
vn -0.461895 -0.866053 0.191323
vn -0.461895 -0.866053 0.191323
vn -0.461895 -0.866053 0.191323
vn -0.461895 -0.866053 0.191323
vn -0.191323 -0.866053 -0.461895
vn -0.191323 -0.866053 -0.461895
vn -0.191323 -0.866053 -0.461895
vn -0.191323 -0.866053 -0.461895
vn -0.191323 -0.866053 -0.461895
vn -0.191323 -0.866053 -0.461895
vn 0.191323 -0.866053 -0.461895
vn 0.191323 -0.866053 -0.461895
vn 0.191323 -0.866053 -0.461895
vn 0.191323 -0.866053 -0.461895
vn 0.191323 -0.866053 -0.461895
vn 0.191323 -0.866053 -0.461895
vn 0.461895 -0.866053 0.191323
vn 0.461895 -0.866053 0.191323
vn 0.461895 -0.866053 0.191323
vn 0.461895 -0.866053 0.191323
vn 0.461895 -0.866053 0.191323
vn 0.461895 -0.866053 0.191323
vn -0.191323 -0.866053 0.461895
vn -0.191323 -0.866053 0.461895
vn -0.191323 -0.866053 0.461895
vn -0.191323 -0.866053 0.461895
vn -0.191323 -0.866053 0.461895
vn -0.191323 -0.866053 0.461895
vn -0.461895 -0.866053 -0.191323
vn -0.461895 -0.866053 -0.191323
vn -0.461895 -0.866053 -0.191323
vn -0.461895 -0.866053 -0.191323
vn -0.461895 -0.866053 -0.191323
vn -0.461895 -0.866053 -0.191323
vn 0.923880 0.000000 0.382683
vn 0.923880 0.000000 0.382683
vn 0.923880 0.000000 0.382683
vn 0.923879 0.000000 0.382684
vn 0.923879 0.000000 0.382684
vn 0.923879 0.000000 0.382684
vn -0.382684 0.000000 0.923880
vn -0.382684 0.000000 0.923880
vn -0.382684 0.000000 0.923880
vn -0.382683 0.000000 0.923880
vn -0.382683 0.000000 0.923880
vn -0.382683 0.000000 0.923880
vn -0.923880 0.000000 -0.382683
vn -0.923880 0.000000 -0.382683
vn -0.923880 0.000000 -0.382683
vn -0.923880 0.000000 -0.382683
vn -0.923880 0.000000 -0.382683
vn -0.923880 0.000000 -0.382683
vn 0.923880 0.000000 -0.382683
vn 0.923880 0.000000 -0.382683
vn 0.923880 0.000000 -0.382683
vn 0.923879 0.000000 -0.382684
vn 0.923879 0.000000 -0.382684
vn 0.923879 0.000000 -0.382684
vn 0.382684 0.000000 0.923880
vn 0.382684 0.000000 0.923880
vn 0.382684 0.000000 0.923880
vn 0.382683 0.000000 0.923880
vn 0.382683 0.000000 0.923880
vn 0.382683 0.000000 0.923880
vn -0.923880 0.000000 0.382683
vn -0.923880 0.000000 0.382683
vn -0.923880 0.000000 0.382683
vn -0.923880 0.000000 0.382683
vn -0.923880 0.000000 0.382683
vn -0.923880 0.000000 0.382683
vn -0.382684 0.000000 -0.923880
vn -0.382684 0.000000 -0.923880
vn -0.382684 0.000000 -0.923880
vn -0.382683 0.000000 -0.923880
vn -0.382683 0.000000 -0.923880
vn -0.382683 0.000000 -0.923880
vn -0.000000 0.000000 -1.000000
vn -0.000000 0.000000 -1.000000
vn -0.000000 0.000000 -1.000000
vn -0.000000 0.000000 -1.000000
vn -0.000000 0.000000 -1.000000
vn -0.000000 0.000000 -1.000000
vn -0.000000 0.000001 -1.000000
vn -0.000000 0.000001 -1.000000
vn -0.000000 0.000001 -1.000000
vn -0.000000 0.000000 -1.000000
vn -0.000000 0.000000 -1.000000
vn -0.000000 0.000000 -1.000000
vn 0.000000 -0.000001 -1.000000
vn 0.000000 -0.000001 -1.000000
vn 0.000000 -0.000001 -1.000000
vn -0.000000 -0.000001 1.000000
vn -0.000000 -0.000001 1.000000
vn -0.000000 -0.000001 1.000000
vn -0.000000 0.000000 1.000000
vn -0.000000 0.000000 1.000000
vn -0.000000 0.000000 1.000000
vn -0.000000 0.000001 1.000000
vn -0.000000 0.000001 1.000000
vn -0.000000 0.000001 1.000000
vn -0.000000 0.000000 1.000000
vn -0.000000 0.000000 1.000000
vn -0.000000 0.000000 1.000000
vn -0.000000 0.000000 1.000000
vn -0.000000 0.000000 1.000000
vn -0.000000 0.000000 1.000000
vn -0.000000 -1.000000 0.000000
vn -0.000000 -1.000000 0.000000
vn -0.000000 -1.000000 0.000000
vn -0.000000 -1.000000 0.000000
vn -0.000000 -1.000000 0.000000
vn -0.000000 -1.000000 0.000000
vn -0.000000 -1.000000 0.000000
vn -0.000000 -1.000000 0.000000
vn -0.000000 -1.000000 0.000000
vn -0.000000 -1.000000 0.000000
vn -0.000000 -1.000000 0.000000
vn -0.000000 -1.000000 0.000000
vn -0.000000 -1.000000 0.000000
vn -0.000000 -1.000000 0.000000
vn -0.000000 -1.000000 0.000000
vn 0.000000 1.000000 0.000000
vn 0.000000 1.000000 0.000000
vn 0.000000 1.000000 0.000000
vn 0.000000 1.000000 0.000000
vn 0.000000 1.000000 0.000000
vn 0.000000 1.000000 0.000000
vn -0.000000 1.000000 0.000000
vn -0.000000 1.000000 0.000000
vn -0.000000 1.000000 0.000000
vn -0.000000 1.000000 0.000000
vn -0.000000 1.000000 0.000000
vn -0.000000 1.000000 0.000000
vn -0.000000 1.000000 0.000000
vn -0.000000 1.000000 0.000000
vn -0.000000 1.000000 0.000000
vn 0.000000 1.000000 0.000000
vn 0.000000 1.000000 0.000000
vn 0.000000 1.000000 0.000000

g Material.001
f 3/1/1 1/2/2 2/3/3
f 4/4/4 1/5/5 3/6/6
f 7/7/7 5/8/8 6/9/9
f 8/10/10 5/11/11 7/12/12
f 11/13/13 9/14/14 10/15/15
f 12/16/16 9/17/17 11/18/18
f 15/19/19 13/20/20 14/21/21
f 16/22/22 13/23/23 15/24/24
f 19/25/25 17/26/26 18/27/27
f 20/28/28 17/29/29 19/30/30
f 23/31/31 21/32/32 22/33/33
f 24/34/34 21/35/35 23/36/36
f 27/37/37 25/38/38 26/39/39
f 30/40/40 28/41/41 29/42/42
f 31/43/43 28/44/44 30/45/45
f 34/46/46 32/47/47 33/48/48
f 35/49/49 32/50/50 34/51/51
f 38/52/52 36/53/53 37/54/54
f 41/55/55 39/56/56 40/57/57
f 42/58/58 39/59/59 41/60/60
f 45/61/61 43/62/62 44/63/63
f 46/64/64 43/65/65 45/66/66
f 49/67/67 47/68/68 48/69/69
f 50/70/70 47/71/71 49/72/72
f 53/73/73 51/74/74 52/75/75
f 54/76/76 51/77/77 53/78/78
f 57/79/79 55/80/80 56/81/81
f 58/82/82 55/83/83 57/84/84
f 61/85/85 59/86/86 60/87/87
f 62/88/88 59/89/89 61/90/90
f 65/91/91 63/92/92 64/93/93
f 66/94/94 63/95/95 65/96/96
f 69/97/97 67/98/98 68/99/99
f 70/100/100 67/101/101 69/102/102
f 73/103/103 71/104/104 72/105/105
f 74/106/106 71/107/107 73/108/108
f 77/109/109 75/110/110 76/111/111
f 78/112/112 75/113/113 77/114/114
f 81/115/115 79/116/116 80/117/117
f 82/118/118 79/119/119 81/120/120
f 85/121/121 83/122/122 84/123/123
f 86/124/124 83/125/125 85/126/126
f 89/127/127 87/128/128 88/129/129
f 92/130/130 90/131/131 91/132/132
f 93/133/133 90/134/134 92/135/135
f 96/136/136 94/137/137 95/138/138
f 97/139/139 94/140/140 96/141/141
f 100/142/142 98/143/143 99/144/144
f 101/145/145 98/146/146 100/147/147
f 104/148/148 102/149/149 103/150/150
f 105/151/151 102/152/152 104/153/153
f 108/154/154 106/155/155 107/156/156
f 109/157/157 106/158/158 108/159/159
f 112/160/160 110/161/161 111/162/162
f 113/163/163 110/164/164 112/165/165
f 116/166/166 114/167/167 115/168/168
f 117/169/169 114/170/170 116/171/171
f 120/172/172 118/173/173 119/174/174
f 121/175/175 118/176/176 120/177/177
f 124/178/178 122/179/179 123/180/180
f 125/181/181 122/182/182 124/183/183
f 131/184/184 129/185/185 130/186/186
f 132/187/187 129/188/188 131/189/189
f 135/190/190 133/191/191 134/192/192
f 136/193/193 133/194/194 135/195/195
f 139/196/196 137/197/197 138/198/198
f 140/199/199 137/200/200 139/201/201
f 143/202/202 141/203/203 142/204/204
f 144/205/205 141/206/206 143/207/207
f 147/208/208 145/209/209 146/210/210
f 148/211/211 145/212/212 147/213/213
f 151/214/214 149/215/215 150/216/216
f 152/217/217 149/218/218 151/219/219
f 155/220/220 153/221/221 154/222/222
f 156/223/223 153/224/224 155/225/225
f 159/226/226 157/227/227 158/228/228
f 162/229/229 160/230/230 161/231/231
f 165/232/232 163/233/233 164/234/234
f 168/235/235 166/236/236 167/237/237
f 171/238/238 169/239/239 170/240/240
f 174/241/241 172/242/242 173/243/243
f 177/244/244 175/245/245 176/246/246
f 180/247/247 178/248/248 179/249/249
f 183/250/250 181/251/251 182/252/252
f 186/253/253 184/254/254 185/255/255
f 189/256/256 187/257/257 188/258/258
f 192/259/259 190/260/260 191/261/261
f 195/262/262 193/263/263 194/264/264
f 198/265/265 196/266/266 197/267/267
f 201/268/268 199/269/269 200/270/270

g Material.002
f 128/271/271 126/272/272 127/273/273
f 204/274/274 202/275/275 203/276/276
f 207/277/277 205/278/278 206/279/279
f 210/280/280 208/281/281 209/282/282
f 213/283/283 211/284/284 212/285/285
f 216/286/286 214/287/287 215/288/288

