# Converted from B3D for Luanti (With Correct Normals)
# Object Name: multidecor_pine_door_activated

v 2.000000 3.000000 0.950000
v 2.000000 -1.000000 0.950000
v 2.000000 -1.000000 0.750000
v 2.000000 3.000000 0.750000
v -0.000000 3.000000 0.950000
v -0.000000 -1.000000 0.950000
v 2.000000 -1.000000 0.950000
v 2.000000 3.000000 0.950000
v -0.000000 -1.000000 0.750000
v -0.000000 3.000000 0.750000
v 2.000000 3.000000 0.750000
v 2.000000 -1.000000 0.750000
v -0.000000 3.000000 0.950000
v -0.000000 3.000000 0.750000
v -0.000000 -1.000000 0.750000
v -0.000000 -1.000000 0.950000
v -0.000000 3.000000 0.750000
v -0.000000 3.000000 0.950000
v 2.000000 3.000000 0.950000
v 2.000000 3.000000 0.750000
v 1.945000 0.745423 1.030000
v 1.705000 0.745423 1.030000
v 1.825000 0.625423 1.030000
v 1.825000 0.865424 1.030000
v 1.909853 0.830276 0.950000
v 1.825000 0.865424 0.950000
v 1.909853 0.830276 1.030000
v 1.909853 0.830276 0.950000
v 1.825000 0.865424 1.030000
v 1.945000 0.745423 1.030000
v 1.909853 0.660571 0.950000
v 1.945000 0.745423 0.950000
v 1.909853 0.660571 1.030000
v 1.909853 0.660571 0.950000
v 1.945000 0.745423 1.030000
v 1.825000 0.625423 1.030000
v 1.740147 0.660571 0.950000
v 1.825000 0.625423 0.950000
v 1.740147 0.660571 1.030000
v 1.740147 0.660571 0.950000
v 1.825000 0.625423 1.030000
v 1.705000 0.745423 1.030000
v 1.740147 0.830276 0.950000
v 1.705000 0.745423 0.950000
v 1.740147 0.830276 1.030000
v 1.740147 0.830276 0.950000
v 1.705000 0.745423 1.030000
v 1.909853 0.830276 1.030000
v 1.945000 0.745423 0.950000
v 1.909853 0.830276 0.950000
v 1.945000 0.745423 1.030000
v 1.945000 0.745423 0.950000
v 1.909853 0.830276 1.030000
v 1.909853 0.660571 1.030000
v 1.825000 0.625423 0.950000
v 1.909853 0.660571 0.950000
v 1.825000 0.625423 1.030000
v 1.825000 0.625423 0.950000
v 1.909853 0.660571 1.030000
v 1.740147 0.660571 1.030000
v 1.705000 0.745423 0.950000
v 1.740147 0.660571 0.950000
v 1.705000 0.745423 1.030000
v 1.705000 0.745423 0.950000
v 1.740147 0.660571 1.030000
v 1.740147 0.830276 1.030000
v 1.825000 0.865424 0.950000
v 1.740147 0.830276 0.950000
v 1.825000 0.865424 1.030000
v 1.825000 0.865424 0.950000
v 1.740147 0.830276 1.030000
v 1.485603 0.804820 1.030000
v 1.485603 0.686026 1.097092
v 1.485603 0.804820 1.097092
v 1.485603 0.686026 1.030000
v 1.485603 0.686026 1.097092
v 1.485603 0.804820 1.030000
v 1.485603 0.686026 1.030000
v 1.884397 0.804820 1.030000
v 1.884397 0.686027 1.030000
v 1.485603 0.804820 1.030000
v 1.884397 0.804820 1.030000
v 1.485603 0.686026 1.030000
v 1.485603 0.686026 1.097092
v 1.884397 0.686027 1.030000
v 1.884397 0.686027 1.097092
v 1.485603 0.686026 1.030000
v 1.884397 0.686027 1.030000
v 1.485603 0.686026 1.097092
v 1.884397 0.686027 1.097092
v 1.884397 0.804820 1.030000
v 1.884397 0.804820 1.097092
v 1.884397 0.686027 1.030000
v 1.884397 0.804820 1.030000
v 1.884397 0.686027 1.097092
v 1.884397 0.686027 1.097092
v 1.485603 0.804820 1.097092
v 1.485603 0.686026 1.097092
v 1.884397 0.804820 1.097092
v 1.485603 0.804820 1.097092
v 1.884397 0.686027 1.097092
v 1.884397 0.804820 1.030000
v 1.485603 0.804820 1.097092
v 1.884397 0.804820 1.097092
v 1.485603 0.804820 1.030000
v 1.485603 0.804820 1.097092
v 1.884397 0.804820 1.030000
v 1.825000 0.865424 1.030000
v 1.945000 0.745423 1.030000
v 1.909853 0.830276 1.030000
v 1.945000 0.745423 1.030000
v 1.825000 0.865424 1.030000
v 1.740147 0.830276 1.030000
v 1.945000 0.745423 1.030000
v 1.740147 0.830276 1.030000
v 1.705000 0.745423 1.030000
v 1.825000 0.625423 1.030000
v 1.705000 0.745423 1.030000
v 1.740147 0.660571 1.030000
v 1.945000 0.745423 1.030000
v 1.825000 0.625423 1.030000
v 1.909853 0.660571 1.030000
v 1.825000 0.625423 0.670000
v 1.705000 0.745423 0.670000
v 1.945000 0.745423 0.670000
v 1.825000 0.865424 0.670000
v 1.909853 0.830276 0.750000
v 1.909853 0.830276 0.670000
v 1.825000 0.865424 0.750000
v 1.909853 0.830276 0.750000
v 1.825000 0.865424 0.670000
v 1.945000 0.745423 0.670000
v 1.909853 0.660571 0.750000
v 1.909853 0.660571 0.670000
v 1.945000 0.745423 0.750000
v 1.909853 0.660571 0.750000
v 1.945000 0.745423 0.670000
v 1.825000 0.625423 0.670000
v 1.740147 0.660571 0.750000
v 1.740147 0.660571 0.670000
v 1.825000 0.625423 0.750000
v 1.740147 0.660571 0.750000
v 1.825000 0.625423 0.670000
v 1.705000 0.745423 0.670000
v 1.740147 0.830276 0.750000
v 1.740147 0.830276 0.670000
v 1.705000 0.745423 0.750000
v 1.740147 0.830276 0.750000
v 1.705000 0.745423 0.670000
v 1.909853 0.830276 0.670000
v 1.945000 0.745423 0.750000
v 1.945000 0.745423 0.670000
v 1.909853 0.830276 0.750000
v 1.945000 0.745423 0.750000
v 1.909853 0.830276 0.670000
v 1.909853 0.660571 0.670000
v 1.825000 0.625423 0.750000
v 1.825000 0.625423 0.670000
v 1.909853 0.660571 0.750000
v 1.825000 0.625423 0.750000
v 1.909853 0.660571 0.670000
v 1.740147 0.660571 0.670000
v 1.705000 0.745423 0.750000
v 1.705000 0.745423 0.670000
v 1.740147 0.660571 0.750000
v 1.705000 0.745423 0.750000
v 1.740147 0.660571 0.670000
v 1.740147 0.830276 0.670000
v 1.825000 0.865424 0.750000
v 1.825000 0.865424 0.670000
v 1.740147 0.830276 0.750000
v 1.825000 0.865424 0.750000
v 1.740147 0.830276 0.670000
v 1.485603 0.686026 0.602907
v 1.485603 0.804820 0.669999
v 1.485603 0.804820 0.602907
v 1.485603 0.686026 0.669999
v 1.485603 0.804820 0.669999
v 1.485603 0.686026 0.602907
v 1.884397 0.686027 0.602907
v 1.485603 0.686026 0.669999
v 1.485603 0.686026 0.602907
v 1.884397 0.686027 0.602907
v 1.884397 0.804820 0.669999
v 1.884397 0.686027 0.669999
v 1.884397 0.804820 0.602907
v 1.884397 0.804820 0.669999
v 1.884397 0.686027 0.602907
v 1.884397 0.686027 0.669999
v 1.600000 0.804820 0.669999
v 1.600000 0.686026 0.669999
v 1.884397 0.804820 0.669999
v 1.600000 0.804820 0.669999
v 1.884397 0.686027 0.669999
v 1.600000 0.804820 0.669999
v 1.485603 0.686026 0.669999
v 1.600000 0.686026 0.669999
v 1.485603 0.804820 0.669999
v 1.485603 0.686026 0.669999
v 1.600000 0.804820 0.669999
v 1.884397 0.686027 0.602907
v 1.485603 0.804820 0.602907
v 1.884397 0.804820 0.602907
v 1.485603 0.686026 0.602907
v 1.485603 0.804820 0.602907
v 1.884397 0.686027 0.602907
v 1.909853 0.830276 0.670000
v 1.945000 0.745423 0.670000
v 1.825000 0.865424 0.670000
v 1.740147 0.830276 0.670000
v 1.825000 0.865424 0.670000
v 1.945000 0.745423 0.670000
v 1.705000 0.745423 0.670000
v 1.740147 0.830276 0.670000
v 1.945000 0.745423 0.670000
v 1.740147 0.660571 0.670000
v 1.705000 0.745423 0.670000
v 1.825000 0.625423 0.670000
v 1.909853 0.660571 0.670000
v 1.825000 0.625423 0.670000
v 1.945000 0.745423 0.670000
v 1.884397 0.804820 0.669999
v 1.485603 0.804820 0.669999
v 1.600000 0.804820 0.669999
v -0.000000 -1.000000 0.950000
v -0.000000 -1.000000 0.750000
v 2.000000 -1.000000 0.750000
v 2.000000 -1.000000 0.950000

vt 0.703125 1.000000
vt 0.750000 0.000000
vt 0.750000 1.000000
vt 0.703125 0.000000
vt 0.750000 0.000000
vt 0.703125 1.000000
vt 0.750000 0.000000
vt 0.250000 1.000000
vt 0.250000 0.000000
vt 0.750000 1.000000
vt 0.250000 1.000000
vt 0.750000 0.000000
vt 0.750000 1.000000
vt 0.250000 0.000000
vt 0.250000 1.000000
vt 0.750000 0.000000
vt 0.250000 0.000000
vt 0.750000 1.000000
vt 0.750000 1.000000
vt 0.703125 0.000000
vt 0.750000 0.000000
vt 0.703125 1.000000
vt 0.703125 0.000000
vt 0.750000 1.000000
vt 0.250000 0.000000
vt 0.750000 -0.046875
vt 0.750000 0.000000
vt 0.250000 -0.046875
vt 0.750000 -0.046875
vt 0.250000 0.000000
vt 0.250000 1.000000
vt 0.750000 0.953125
vt 0.750000 1.000000
vt 0.250000 0.953125
vt 0.750000 0.953125
vt 0.250000 1.000000
vt 0.666074 0.710884
vt 0.594008 0.536901
vt 0.840058 0.638818
vt 1.001677 0.286389
vt 1.001677 0.375163
vt 0.899760 0.286389
vt 1.001677 0.375163
vt 0.899760 0.375163
vt 0.899760 0.286389
vt 0.797842 0.286389
vt 0.797842 0.375163
vt 0.695925 0.286389
vt 0.797842 0.375163
vt 0.695925 0.375163
vt 0.695925 0.286389
vt 0.410243 0.131391
vt 0.410243 0.042617
vt 0.512160 0.131391
vt 0.410243 0.042617
vt 0.512160 0.042617
vt 0.512160 0.131391
vt 0.614078 0.131391
vt 0.614078 0.042617
vt 0.715995 0.131391
vt 0.614078 0.042617
vt 0.715995 0.042617
vt 0.715995 0.131391
vt 0.899760 0.286389
vt 0.899760 0.375163
vt 0.797842 0.286389
vt 0.899760 0.375163
vt 0.797842 0.375163
vt 0.797842 0.286389
vt 0.695925 0.286389
vt 0.695925 0.375163
vt 0.594008 0.286389
vt 0.695925 0.375163
vt 0.594008 0.375163
vt 0.594008 0.286389
vt 0.512160 0.131391
vt 0.512160 0.042617
vt 0.614078 0.131391
vt 0.512160 0.042617
vt 0.614078 0.042617
vt 0.614078 0.131391
vt 0.715995 0.131391
vt 0.715995 0.042617
vt 0.817912 0.131391
vt 0.715995 0.042617
vt 0.817912 0.042617
vt 0.817912 0.131391
vt 0.076576 0.469936
vt 0.002125 0.469936
vt 0.076576 0.338113
vt 0.002125 0.469936
vt 0.002125 0.338113
vt 0.076576 0.338113
vt 0.519109 0.263663
vt 0.076576 0.263663
vt 0.519109 0.131839
vt 0.076576 0.263663
vt 0.076576 0.131840
vt 0.519109 0.131839
vt 0.519109 0.338113
vt 0.076576 0.338113
vt 0.519109 0.263663
vt 0.076576 0.338113
vt 0.076576 0.263663
vt 0.519109 0.263663
vt 0.519109 0.469936
vt 0.519109 0.338113
vt 0.593559 0.469936
vt 0.519109 0.338113
vt 0.593560 0.338113
vt 0.593559 0.469936
vt 0.076576 0.338113
vt 0.519109 0.338113
vt 0.076576 0.469936
vt 0.519109 0.338113
vt 0.519109 0.469936
vt 0.076576 0.469936
vt 0.519109 0.469936
vt 0.519109 0.544387
vt 0.076576 0.469936
vt 0.519109 0.544387
vt 0.076576 0.544387
vt 0.076576 0.469936
vt 0.666074 0.464834
vt 0.767992 0.464834
vt 0.594008 0.536901
vt 0.840058 0.536901
vt 0.594008 0.536901
vt 0.767992 0.464834
vt 0.840058 0.638818
vt 0.594008 0.536901
vt 0.840058 0.536901
vt 0.767992 0.710884
vt 0.666074 0.710884
vt 0.840058 0.638818
vt 0.594008 0.638818
vt 0.594008 0.536901
vt 0.666074 0.710884
vt 0.594008 0.783399
vt 0.666074 0.957383
vt 0.840058 0.885317
vt 0.695925 0.375612
vt 0.594008 0.375612
vt 0.695925 0.464386
vt 0.594008 0.375612
vt 0.594008 0.464386
vt 0.695925 0.464386
vt 0.899760 0.375612
vt 0.797843 0.375612
vt 0.899760 0.464386
vt 0.797843 0.375612
vt 0.797843 0.464386
vt 0.899760 0.464386
vt 0.307877 0.131391
vt 0.409795 0.131391
vt 0.307877 0.042617
vt 0.409795 0.131391
vt 0.409795 0.042617
vt 0.307877 0.042617
vt 0.104043 0.131391
vt 0.205960 0.131391
vt 0.104042 0.042617
vt 0.205960 0.131391
vt 0.205960 0.042617
vt 0.104042 0.042617
vt 0.797843 0.375612
vt 0.695925 0.375612
vt 0.797843 0.464386
vt 0.695925 0.375612
vt 0.695925 0.464386
vt 0.797843 0.464386
vt 1.001677 0.375612
vt 0.899760 0.375612
vt 1.001677 0.464386
vt 0.899760 0.375612
vt 0.899760 0.464386
vt 1.001677 0.464386
vt 0.205960 0.131391
vt 0.307877 0.131391
vt 0.205960 0.042617
vt 0.307877 0.131391
vt 0.307877 0.042617
vt 0.205960 0.042617
vt 0.002125 0.131391
vt 0.104043 0.131391
vt 0.002125 0.042617
vt 0.104043 0.131391
vt 0.104042 0.042617
vt 0.002125 0.042617
vt 0.076576 0.882932
vt 0.076576 0.751109
vt 0.002125 0.882932
vt 0.076576 0.751109
vt 0.002125 0.751109
vt 0.002125 0.882932
vt 0.076576 0.751109
vt 0.519109 0.751109
vt 0.076576 0.676658
vt 0.593560 0.751109
vt 0.519109 0.751109
vt 0.593560 0.882932
vt 0.519109 0.751109
vt 0.519109 0.882932
vt 0.593560 0.882932
vt 0.203520 0.676659
vt 0.519109 0.676658
vt 0.203520 0.544835
vt 0.519109 0.676658
vt 0.519109 0.544835
vt 0.203520 0.544835
vt 0.203520 0.676659
vt 0.203520 0.544835
vt 0.076576 0.676658
vt 0.203520 0.544835
vt 0.076576 0.544835
vt 0.076576 0.676658
vt 0.519109 0.882932
vt 0.519109 0.751109
vt 0.076576 0.882932
vt 0.519109 0.751109
vt 0.076576 0.751109
vt 0.076576 0.882932
vt 0.767992 0.711333
vt 0.666074 0.711333
vt 0.594008 0.783399
vt 0.594008 0.783399
vt 0.840058 0.783399
vt 0.767992 0.711333
vt 0.594008 0.783399
vt 0.840058 0.885317
vt 0.840058 0.783399
vt 0.666074 0.957383
vt 0.767992 0.957383
vt 0.840058 0.885317
vt 0.594008 0.783399
vt 0.594008 0.885316
vt 0.666074 0.957383
vt 0.203520 0.957383
vt 0.519109 0.957383
vt 0.076576 0.957383

vn 1.000000 0.000000 0.000000
vn 1.000000 0.000000 0.000000
vn 1.000000 0.000000 0.000000
vn 1.000000 0.000000 0.000000
vn 1.000000 0.000000 0.000000
vn 1.000000 0.000000 0.000000
vn 0.000000 0.000000 1.000000
vn 0.000000 0.000000 1.000000
vn 0.000000 0.000000 1.000000
vn 0.000000 0.000000 1.000000
vn 0.000000 0.000000 1.000000
vn 0.000000 0.000000 1.000000
vn -0.000000 0.000000 -1.000000
vn -0.000000 0.000000 -1.000000
vn -0.000000 0.000000 -1.000000
vn -0.000000 0.000000 -1.000000
vn -0.000000 0.000000 -1.000000
vn -0.000000 0.000000 -1.000000
vn -1.000000 0.000000 0.000000
vn -1.000000 0.000000 0.000000
vn -1.000000 0.000000 0.000000
vn -1.000000 0.000000 0.000000
vn -1.000000 0.000000 0.000000
vn -1.000000 0.000000 0.000000
vn -0.000000 1.000000 0.000000
vn -0.000000 1.000000 0.000000
vn -0.000000 1.000000 0.000000
vn -0.000000 1.000000 0.000000
vn -0.000000 1.000000 0.000000
vn -0.000000 1.000000 0.000000
vn -0.000000 -1.000000 0.000000
vn -0.000000 -1.000000 0.000000
vn -0.000000 -1.000000 0.000000
vn -0.000000 -1.000000 0.000000
vn -0.000000 -1.000000 0.000000
vn -0.000000 -1.000000 0.000000
vn -0.000000 0.000001 1.000000
vn -0.000000 0.000001 1.000000
vn -0.000000 0.000001 1.000000
vn 0.382684 0.923879 0.000000
vn 0.382684 0.923879 0.000000
vn 0.382684 0.923879 0.000000
vn 0.382686 0.923878 0.000000
vn 0.382686 0.923878 0.000000
vn 0.382686 0.923878 0.000000
vn 0.923880 -0.382683 0.000000
vn 0.923880 -0.382683 0.000000
vn 0.923880 -0.382683 0.000000
vn 0.923879 -0.382684 0.000000
vn 0.923879 -0.382684 0.000000
vn 0.923879 -0.382684 0.000000
vn -0.382683 -0.923880 0.000000
vn -0.382683 -0.923880 0.000000
vn -0.382683 -0.923880 0.000000
vn -0.382683 -0.923880 0.000000
vn -0.382683 -0.923880 0.000000
vn -0.382683 -0.923880 0.000000
vn -0.923879 0.382684 0.000000
vn -0.923879 0.382684 0.000000
vn -0.923879 0.382684 0.000000
vn -0.923879 0.382684 0.000000
vn -0.923879 0.382684 0.000000
vn -0.923879 0.382684 0.000000
vn 0.923880 0.382683 0.000000
vn 0.923880 0.382683 0.000000
vn 0.923880 0.382683 0.000000
vn 0.923880 0.382683 0.000000
vn 0.923880 0.382683 0.000000
vn 0.923880 0.382683 0.000000
vn 0.382684 -0.923879 0.000000
vn 0.382684 -0.923879 0.000000
vn 0.382684 -0.923879 0.000000
vn 0.382684 -0.923879 0.000000
vn 0.382684 -0.923879 0.000000
vn 0.382684 -0.923879 0.000000
vn -0.923879 -0.382684 0.000000
vn -0.923879 -0.382684 0.000000
vn -0.923879 -0.382684 0.000000
vn -0.923880 -0.382684 0.000000
vn -0.923880 -0.382684 0.000000
vn -0.923880 -0.382684 0.000000
vn -0.382685 0.923879 0.000000
vn -0.382685 0.923879 0.000000
vn -0.382685 0.923879 0.000000
vn -0.382683 0.923880 0.000000
vn -0.382683 0.923880 0.000000
vn -0.382683 0.923880 0.000000
vn -1.000000 0.000000 0.000000
vn -1.000000 0.000000 0.000000
vn -1.000000 0.000000 0.000000
vn -1.000000 0.000000 0.000000
vn -1.000000 0.000000 0.000000
vn -1.000000 0.000000 0.000000
vn -0.000000 0.000000 -1.000000
vn -0.000000 0.000000 -1.000000
vn -0.000000 0.000000 -1.000000
vn -0.000000 0.000000 -1.000000
vn -0.000000 0.000000 -1.000000
vn -0.000000 0.000000 -1.000000
vn 0.000000 -1.000000 0.000000
vn 0.000000 -1.000000 0.000000
vn 0.000000 -1.000000 0.000000
vn -0.000000 -1.000000 0.000000
vn -0.000000 -1.000000 0.000000
vn -0.000000 -1.000000 0.000000
vn 1.000000 0.000000 0.000000
vn 1.000000 0.000000 0.000000
vn 1.000000 0.000000 0.000000
vn 1.000000 0.000000 0.000000
vn 1.000000 0.000000 0.000000
vn 1.000000 0.000000 0.000000
vn -0.000000 0.000000 1.000000
vn -0.000000 0.000000 1.000000
vn -0.000000 0.000000 1.000000
vn -0.000000 0.000000 1.000000
vn -0.000000 0.000000 1.000000
vn -0.000000 0.000000 1.000000
vn -0.000000 1.000000 0.000000
vn -0.000000 1.000000 0.000000
vn -0.000000 1.000000 0.000000
vn -0.000000 1.000000 0.000000
vn -0.000000 1.000000 0.000000
vn -0.000000 1.000000 0.000000
vn -0.000000 0.000002 1.000000
vn -0.000000 0.000002 1.000000
vn -0.000000 0.000002 1.000000
vn -0.000000 0.000000 1.000000
vn -0.000000 0.000000 1.000000
vn -0.000000 0.000000 1.000000
vn -0.000000 0.000000 1.000000
vn -0.000000 0.000000 1.000000
vn -0.000000 0.000000 1.000000
vn -0.000000 0.000000 1.000000
vn -0.000000 0.000000 1.000000
vn -0.000000 0.000000 1.000000
vn -0.000000 -0.000002 1.000000
vn -0.000000 -0.000002 1.000000
vn -0.000000 -0.000002 1.000000
vn -0.000000 0.000000 -1.000000
vn -0.000000 0.000000 -1.000000
vn -0.000000 0.000000 -1.000000
vn 0.382686 0.923878 0.000000
vn 0.382686 0.923878 0.000000
vn 0.382686 0.923878 0.000000
vn 0.382684 0.923879 0.000000
vn 0.382684 0.923879 0.000000
vn 0.382684 0.923879 0.000000
vn 0.923879 -0.382684 0.000000
vn 0.923879 -0.382684 0.000000
vn 0.923879 -0.382684 0.000000
vn 0.923880 -0.382683 0.000000
vn 0.923880 -0.382683 0.000000
vn 0.923880 -0.382683 0.000000
vn -0.382683 -0.923880 0.000000
vn -0.382683 -0.923880 0.000000
vn -0.382683 -0.923880 0.000000
vn -0.382682 -0.923880 0.000000
vn -0.382682 -0.923880 0.000000
vn -0.382682 -0.923880 0.000000
vn -0.923879 0.382685 0.000000
vn -0.923879 0.382685 0.000000
vn -0.923879 0.382685 0.000000
vn -0.923879 0.382684 0.000000
vn -0.923879 0.382684 0.000000
vn -0.923879 0.382684 0.000000
vn 0.923880 0.382683 0.000000
vn 0.923880 0.382683 0.000000
vn 0.923880 0.382683 0.000000
vn 0.923879 0.382684 0.000000
vn 0.923879 0.382684 0.000000
vn 0.923879 0.382684 0.000000
vn 0.382684 -0.923879 0.000000
vn 0.382684 -0.923879 0.000000
vn 0.382684 -0.923879 0.000000
vn 0.382684 -0.923879 0.000000
vn 0.382684 -0.923879 0.000000
vn 0.382684 -0.923879 0.000000
vn -0.923879 -0.382685 0.000000
vn -0.923879 -0.382685 0.000000
vn -0.923879 -0.382685 0.000000
vn -0.923879 -0.382684 0.000000
vn -0.923879 -0.382684 0.000000
vn -0.923879 -0.382684 0.000000
vn -0.382683 0.923880 0.000000
vn -0.382683 0.923880 0.000000
vn -0.382683 0.923880 0.000000
vn -0.382685 0.923879 0.000000
vn -0.382685 0.923879 0.000000
vn -0.382685 0.923879 0.000000
vn -1.000000 0.000000 0.000000
vn -1.000000 0.000000 0.000000
vn -1.000000 0.000000 0.000000
vn -1.000000 0.000000 0.000000
vn -1.000000 0.000000 0.000000
vn -1.000000 0.000000 0.000000
vn -0.000000 -1.000000 0.000000
vn -0.000000 -1.000000 0.000000
vn -0.000000 -1.000000 0.000000
vn 1.000000 0.000000 0.000000
vn 1.000000 0.000000 0.000000
vn 1.000000 0.000000 0.000000
vn 1.000000 0.000000 0.000000
vn 1.000000 0.000000 0.000000
vn 1.000000 0.000000 0.000000
vn -0.000000 0.000000 1.000000
vn -0.000000 0.000000 1.000000
vn -0.000000 0.000000 1.000000
vn -0.000000 0.000000 1.000000
vn -0.000000 0.000000 1.000000
vn -0.000000 0.000000 1.000000
vn -0.000000 0.000000 1.000000
vn -0.000000 0.000000 1.000000
vn -0.000000 0.000000 1.000000
vn -0.000000 0.000000 1.000000
vn -0.000000 0.000000 1.000000
vn -0.000000 0.000000 1.000000
vn -0.000000 0.000000 -1.000000
vn -0.000000 0.000000 -1.000000
vn -0.000000 0.000000 -1.000000
vn -0.000000 0.000000 -1.000000
vn -0.000000 0.000000 -1.000000
vn -0.000000 0.000000 -1.000000
vn -0.000000 -0.000001 -1.000000
vn -0.000000 -0.000001 -1.000000
vn -0.000000 -0.000001 -1.000000
vn -0.000000 0.000001 -1.000000
vn -0.000000 0.000001 -1.000000
vn -0.000000 0.000001 -1.000000
vn -0.000000 -0.000001 -1.000000
vn -0.000000 -0.000001 -1.000000
vn -0.000000 -0.000001 -1.000000
vn -0.000000 0.000001 -1.000000
vn -0.000000 0.000001 -1.000000
vn -0.000000 0.000001 -1.000000
vn -0.000000 0.000001 -1.000000
vn -0.000000 0.000001 -1.000000
vn -0.000000 0.000001 -1.000000
vn -0.000000 1.000000 0.000000
vn -0.000000 1.000000 0.000000
vn -0.000000 1.000000 0.000000

g Material.001
f 3/1/1 1/2/2 2/3/3
f 4/4/4 1/5/5 3/6/6
f 7/7/7 5/8/8 6/9/9
f 8/10/10 5/11/11 7/12/12
f 11/13/13 9/14/14 10/15/15
f 12/16/16 9/17/17 11/18/18
f 15/19/19 13/20/20 14/21/21
f 16/22/22 13/23/23 15/24/24
f 19/25/25 17/26/26 18/27/27
f 20/28/28 17/29/29 19/30/30
f 227/31/31 225/32/32 226/33/33
f 228/34/34 225/35/35 227/36/36

g Material.002
f 23/37/37 21/38/38 22/39/39
f 26/40/40 24/41/41 25/42/42
f 29/43/43 27/44/44 28/45/45
f 32/46/46 30/47/47 31/48/48
f 35/49/49 33/50/50 34/51/51
f 38/52/52 36/53/53 37/54/54
f 41/55/55 39/56/56 40/57/57
f 44/58/58 42/59/59 43/60/60
f 47/61/61 45/62/62 46/63/63
f 50/64/64 48/65/65 49/66/66
f 53/67/67 51/68/68 52/69/69
f 56/70/70 54/71/71 55/72/72
f 59/73/73 57/74/74 58/75/75
f 62/76/76 60/77/77 61/78/78
f 65/79/79 63/80/80 64/81/81
f 68/82/82 66/83/83 67/84/84
f 71/85/85 69/86/86 70/87/87
f 74/88/88 72/89/89 73/90/90
f 77/91/91 75/92/92 76/93/93
f 80/94/94 78/95/95 79/96/96
f 83/97/97 81/98/98 82/99/99
f 86/100/100 84/101/101 85/102/102
f 89/103/103 87/104/104 88/105/105
f 92/106/106 90/107/107 91/108/108
f 95/109/109 93/110/110 94/111/111
f 98/112/112 96/113/113 97/114/114
f 101/115/115 99/116/116 100/117/117
f 104/118/118 102/119/119 103/120/120
f 107/121/121 105/122/122 106/123/123
f 110/124/124 108/125/125 109/126/126
f 113/127/127 111/128/128 112/129/129
f 116/130/130 114/131/131 115/132/132
f 119/133/133 117/134/134 118/135/135
f 122/136/136 120/137/137 121/138/138
f 125/139/139 123/140/140 124/141/141
f 128/142/142 126/143/143 127/144/144
f 131/145/145 129/146/146 130/147/147
f 134/148/148 132/149/149 133/150/150
f 137/151/151 135/152/152 136/153/153
f 140/154/154 138/155/155 139/156/156
f 143/157/157 141/158/158 142/159/159
f 146/160/160 144/161/161 145/162/162
f 149/163/163 147/164/164 148/165/165
f 152/166/166 150/167/167 151/168/168
f 155/169/169 153/170/170 154/171/171
f 158/172/172 156/173/173 157/174/174
f 161/175/175 159/176/176 160/177/177
f 164/178/178 162/179/179 163/180/180
f 167/181/181 165/182/182 166/183/183
f 170/184/184 168/185/185 169/186/186
f 173/187/187 171/188/188 172/189/189
f 176/190/190 174/191/191 175/192/192
f 179/193/193 177/194/194 178/195/195
f 182/196/196 180/197/197 181/198/198
f 185/199/199 183/200/200 184/201/201
f 188/202/202 186/203/203 187/204/204
f 191/205/205 189/206/206 190/207/207
f 194/208/208 192/209/209 193/210/210
f 197/211/211 195/212/212 196/213/213
f 200/214/214 198/215/215 199/216/216
f 203/217/217 201/218/218 202/219/219
f 206/220/220 204/221/221 205/222/222
f 209/223/223 207/224/224 208/225/225
f 212/226/226 210/227/227 211/228/228
f 215/229/229 213/230/230 214/231/231
f 218/232/232 216/233/233 217/234/234
f 221/235/235 219/236/236 220/237/237
f 224/238/238 222/239/239 223/240/240

