# Converted from B3D for Luanti (With Correct Normals)
# Object Name: multidecor_toilet_paper_reel

v 0.497746 0.562746 0.920000
v -0.497746 0.562746 1.000000
v 0.497746 0.562746 1.000000
v -0.497746 0.562746 0.920000
v -0.497746 0.562746 1.000000
v 0.497746 0.562746 0.920000
v 0.497746 0.562746 0.920000
v -0.497746 0.087254 0.920000
v -0.497746 0.562746 0.920000
v 0.497746 0.087254 0.920000
v -0.497746 0.087254 0.920000
v 0.497746 0.562746 0.920000
v 0.497746 0.562746 1.000000
v 0.497746 0.087254 0.920000
v 0.497746 0.562746 0.920000
v 0.497746 0.087254 1.000000
v 0.497746 0.087254 0.920000
v 0.497746 0.562746 1.000000
v -0.497746 0.087254 0.920000
v 0.497746 0.087254 1.000000
v -0.497746 0.087254 1.000000
v 0.497746 0.087254 0.920000
v 0.497746 0.087254 1.000000
v -0.497746 0.087254 0.920000
v -0.497746 0.562746 0.920000
v -0.497746 0.087254 1.000000
v -0.497746 0.562746 1.000000
v -0.497746 0.087254 0.920000
v -0.497746 0.087254 1.000000
v -0.497746 0.562746 0.920000
v -0.497746 0.562746 1.000000
v 0.497746 0.087254 1.000000
v 0.497746 0.562746 1.000000
v -0.497746 0.087254 1.000000
v 0.497746 0.087254 1.000000
v -0.497746 0.562746 1.000000
v -0.430000 0.445000 0.480000
v -0.430000 0.325000 0.560000
v -0.430000 0.445000 0.560000
v -0.430000 0.325000 0.480000
v -0.430000 0.325000 0.560000
v -0.430000 0.445000 0.480000
v 0.370000 0.325000 0.560000
v 0.430000 0.325000 0.920000
v 0.370000 0.325000 0.920000
v 0.430000 0.325000 0.560000
v 0.430000 0.325000 0.920000
v 0.370000 0.325000 0.560000
v -0.430000 0.445000 0.560000
v -0.430000 0.325000 0.920000
v -0.430000 0.445000 0.920000
v -0.430000 0.325000 0.560000
v -0.430000 0.325000 0.920000
v -0.430000 0.445000 0.560000
v -0.370000 0.325000 0.560000
v -0.370000 0.445000 0.920000
v -0.370000 0.325000 0.920000
v -0.370000 0.445000 0.560000
v -0.370000 0.445000 0.920000
v -0.370000 0.325000 0.560000
v 0.370000 0.445000 0.560000
v 0.370000 0.325000 0.920000
v 0.370000 0.445000 0.920000
v 0.370000 0.325000 0.560000
v 0.370000 0.325000 0.920000
v 0.370000 0.445000 0.560000
v 0.430000 0.325000 0.560000
v 0.430000 0.445000 0.920000
v 0.430000 0.325000 0.920000
v 0.430000 0.445000 0.560000
v 0.430000 0.445000 0.920000
v 0.430000 0.325000 0.560000
v -0.370000 0.445000 0.560000
v -0.430000 0.445000 0.920000
v -0.370000 0.445000 0.920000
v -0.430000 0.445000 0.560000
v -0.430000 0.445000 0.920000
v -0.370000 0.445000 0.560000
v -0.430000 0.325000 0.560000
v -0.370000 0.325000 0.920000
v -0.430000 0.325000 0.920000
v -0.370000 0.325000 0.560000
v -0.370000 0.325000 0.920000
v -0.430000 0.325000 0.560000
v 0.430000 0.445000 0.560000
v 0.370000 0.445000 0.920000
v 0.430000 0.445000 0.920000
v 0.370000 0.445000 0.560000
v 0.370000 0.445000 0.920000
v 0.430000 0.445000 0.560000
v 0.370000 0.445000 0.480000
v 0.430000 0.325000 0.480000
v 0.370000 0.325000 0.480000
v 0.430000 0.445000 0.480000
v 0.430000 0.325000 0.480000
v 0.370000 0.445000 0.480000
v -0.430000 0.445000 0.480000
v -0.370000 0.325000 0.480000
v -0.430000 0.325000 0.480000
v -0.370000 0.445000 0.480000
v -0.370000 0.325000 0.480000
v -0.430000 0.445000 0.480000
v 0.300000 0.325000 0.560000
v 0.370000 0.325000 0.480000
v 0.370000 0.325000 0.560000
v 0.300000 0.325000 0.480000
v 0.370000 0.325000 0.480000
v 0.300000 0.325000 0.560000
v 0.430000 0.325000 0.480000
v 0.430000 0.445000 0.560000
v 0.430000 0.325000 0.560000
v 0.430000 0.445000 0.480000
v 0.430000 0.445000 0.560000
v 0.430000 0.325000 0.480000
v -0.370000 0.445000 0.480000
v -0.430000 0.445000 0.560000
v -0.370000 0.445000 0.560000
v -0.430000 0.445000 0.480000
v -0.430000 0.445000 0.560000
v -0.370000 0.445000 0.480000
v -0.430000 0.325000 0.480000
v -0.370000 0.325000 0.560000
v -0.430000 0.325000 0.560000
v -0.370000 0.325000 0.480000
v -0.370000 0.325000 0.560000
v -0.430000 0.325000 0.480000
v 0.430000 0.445000 0.480000
v 0.370000 0.445000 0.560000
v 0.430000 0.445000 0.560000
v 0.370000 0.445000 0.480000
v 0.370000 0.445000 0.560000
v 0.430000 0.445000 0.480000
v 0.370000 0.325000 0.480000
v 0.430000 0.325000 0.560000
v 0.370000 0.325000 0.560000
v 0.430000 0.325000 0.480000
v 0.430000 0.325000 0.560000
v 0.370000 0.325000 0.480000
v 0.300000 0.325000 0.480000
v 0.370000 0.445000 0.480000
v 0.370000 0.325000 0.480000
v 0.300000 0.445000 0.480000
v 0.370000 0.445000 0.480000
v 0.300000 0.325000 0.480000
v 0.300000 0.445000 0.560000
v 0.370000 0.325000 0.560000
v 0.370000 0.445000 0.560000
v 0.300000 0.325000 0.560000
v 0.370000 0.325000 0.560000
v 0.300000 0.445000 0.560000
v 0.300000 0.445000 0.480000
v 0.370000 0.445000 0.560000
v 0.370000 0.445000 0.480000
v 0.300000 0.445000 0.560000
v 0.370000 0.445000 0.560000
v 0.300000 0.445000 0.480000
v -0.300000 0.158726 0.746274
v 0.300000 0.385000 0.840000
v -0.300000 0.385000 0.840000
v 0.300000 0.158726 0.746274
v 0.300000 0.385000 0.840000
v -0.300000 0.158726 0.746274
v -0.300000 0.445000 0.560000
v -0.370000 0.445000 0.480000
v -0.370000 0.445000 0.560000
v -0.300000 0.445000 0.480000
v -0.370000 0.445000 0.480000
v -0.300000 0.445000 0.560000
v -0.300000 0.445000 0.480000
v -0.370000 0.325000 0.480000
v -0.370000 0.445000 0.480000
v -0.300000 0.325000 0.480000
v -0.370000 0.325000 0.480000
v -0.300000 0.445000 0.480000
v -0.300000 0.325000 0.480000
v -0.370000 0.325000 0.560000
v -0.370000 0.325000 0.480000
v -0.300000 0.325000 0.560000
v -0.370000 0.325000 0.560000
v -0.300000 0.325000 0.480000
v -0.300000 0.325000 0.560000
v -0.370000 0.445000 0.560000
v -0.370000 0.325000 0.560000
v -0.300000 0.445000 0.560000
v -0.370000 0.445000 0.560000
v -0.300000 0.325000 0.560000
v -0.300000 0.065000 0.520000
v 0.300000 0.158726 0.746274
v -0.300000 0.158726 0.746274
v 0.300000 0.065000 0.520000
v 0.300000 0.158726 0.746274
v -0.300000 0.065000 0.520000
v -0.300000 0.158726 0.293726
v 0.300000 0.065000 0.520000
v -0.300000 0.065000 0.520000
v 0.300000 0.158726 0.293726
v 0.300000 0.065000 0.520000
v -0.300000 0.158726 0.293726
v -0.300000 0.385000 0.200000
v 0.300000 0.158726 0.293726
v -0.300000 0.158726 0.293726
v 0.300000 0.385000 0.200000
v 0.300000 0.158726 0.293726
v -0.300000 0.385000 0.200000
v -0.300000 0.611274 0.293726
v 0.300000 0.385000 0.200000
v -0.300000 0.385000 0.200000
v 0.300000 0.611274 0.293726
v 0.300000 0.385000 0.200000
v -0.300000 0.611274 0.293726
v -0.300000 0.705000 0.520000
v 0.300000 0.611274 0.293726
v -0.300000 0.611274 0.293726
v 0.300000 0.705000 0.520000
v 0.300000 0.611274 0.293726
v -0.300000 0.705000 0.520000
v -0.300000 0.705000 0.520000
v -0.300000 0.158726 0.293726
v -0.300000 0.065000 0.520000
v -0.300000 0.611274 0.746274
v 0.300000 0.705000 0.520000
v -0.300000 0.705000 0.520000
v 0.300000 0.611274 0.746274
v 0.300000 0.705000 0.520000
v -0.300000 0.611274 0.746274
v -0.300000 0.385000 0.840000
v 0.300000 0.611274 0.746274
v -0.300000 0.611274 0.746274
v 0.300000 0.385000 0.840000
v 0.300000 0.611274 0.746274
v -0.300000 0.385000 0.840000
v 0.300000 0.611274 0.746274
v 0.300000 0.611274 0.293726
v 0.300000 0.705000 0.520000
v -0.300000 0.385000 0.840000
v -0.300000 0.065000 0.520000
v -0.300000 0.158726 0.746274
v -0.300000 0.065000 0.520000
v -0.300000 0.385000 0.840000
v -0.300000 0.611274 0.746274
v -0.300000 0.065000 0.520000
v -0.300000 0.611274 0.746274
v -0.300000 0.705000 0.520000
v -0.300000 0.385000 0.200000
v -0.300000 0.705000 0.520000
v -0.300000 0.611274 0.293726
v -0.300000 0.705000 0.520000
v -0.300000 0.385000 0.200000
v -0.300000 0.158726 0.293726
v 0.300000 0.158726 0.293726
v 0.300000 0.611274 0.746274
v 0.300000 0.385000 0.840000
v 0.300000 0.158726 0.293726
v 0.300000 0.385000 0.840000
v 0.300000 0.158726 0.746274
v 0.300000 0.158726 0.293726
v 0.300000 0.158726 0.746274
v 0.300000 0.065000 0.520000
v 0.300000 0.611274 0.746274
v 0.300000 0.158726 0.293726
v 0.300000 0.385000 0.200000
v 0.300000 0.611274 0.746274
v 0.300000 0.385000 0.200000
v 0.300000 0.611274 0.293726

vt 0.350273 0.050631
vt 0.400686 0.050631
vt 0.350272 0.677961
vt 0.400686 0.050631
vt 0.400686 0.677961
vt 0.350272 0.677961
vt 0.400686 0.677961
vt 0.400686 0.050631
vt 0.700327 0.677961
vt 0.400686 0.050631
vt 0.700327 0.050631
vt 0.700327 0.677961
vt 0.350273 0.000218
vt 0.350273 0.050631
vt 0.050632 0.000217
vt 0.350273 0.050631
vt 0.050632 0.050631
vt 0.050632 0.000217
vt 0.050631 0.677960
vt 0.000217 0.677960
vt 0.050632 0.050631
vt 0.000217 0.677960
vt 0.000217 0.050631
vt 0.050632 0.050631
vt 0.350272 0.677961
vt 0.350272 0.728374
vt 0.050631 0.677960
vt 0.350272 0.728374
vt 0.050631 0.728374
vt 0.050631 0.677960
vt 0.350273 0.050631
vt 0.350272 0.677961
vt 0.050632 0.050631
vt 0.350272 0.677961
vt 0.050631 0.677960
vt 0.050632 0.050631
vt 0.700762 0.511090
vt 0.700762 0.460677
vt 0.776383 0.511090
vt 0.700762 0.460677
vt 0.776383 0.460677
vt 0.776383 0.511090
vt 0.896985 0.933739
vt 0.896985 0.706878
vt 0.934795 0.933739
vt 0.896985 0.706878
vt 0.934795 0.706878
vt 0.934795 0.933739
vt 0.700762 0.737952
vt 0.700762 0.511090
vt 0.776383 0.737952
vt 0.700762 0.511090
vt 0.776383 0.511090
vt 0.776383 0.737952
vt 0.855537 0.271191
vt 0.855537 0.044329
vt 0.931157 0.271191
vt 0.855537 0.044329
vt 0.931157 0.044329
vt 0.931157 0.271191
vt 0.631257 0.728809
vt 0.631257 0.955671
vt 0.555637 0.728809
vt 0.631257 0.955671
vt 0.555637 0.955671
vt 0.555637 0.728809
vt 0.776818 0.737952
vt 0.776818 0.511090
vt 0.852438 0.737952
vt 0.776818 0.511090
vt 0.852438 0.511090
vt 0.852438 0.737952
vt 0.896985 0.656029
vt 0.896985 0.429168
vt 0.934795 0.656029
vt 0.896985 0.429168
vt 0.934795 0.429168
vt 0.934795 0.656029
vt 0.277927 0.728809
vt 0.504788 0.728809
vt 0.277927 0.766620
vt 0.504788 0.728809
vt 0.504788 0.766620
vt 0.277927 0.766620
vt 0.000217 0.728809
vt 0.227079 0.728809
vt 0.000217 0.766620
vt 0.227079 0.728809
vt 0.227079 0.766620
vt 0.000217 0.766620
vt 0.776818 0.422866
vt 0.852438 0.422866
vt 0.776818 0.460677
vt 0.852438 0.422866
vt 0.852438 0.460677
vt 0.776818 0.460677
vt 0.776383 0.460677
vt 0.700762 0.460677
vt 0.776383 0.422866
vt 0.700762 0.460677
vt 0.700762 0.422866
vt 0.776383 0.422866
vt 0.896985 0.706878
vt 0.852873 0.706878
vt 0.896985 0.656464
vt 0.852873 0.706878
vt 0.852873 0.656464
vt 0.896985 0.656464
vt 0.776818 0.511090
vt 0.776818 0.460677
vt 0.852438 0.511090
vt 0.776818 0.460677
vt 0.852438 0.460677
vt 0.852438 0.511090
vt 0.896985 0.429168
vt 0.896985 0.378754
vt 0.934795 0.429168
vt 0.896985 0.378754
vt 0.934795 0.378754
vt 0.934795 0.429168
vt 0.504788 0.728809
vt 0.555202 0.728809
vt 0.504788 0.766620
vt 0.555202 0.728809
vt 0.555202 0.766620
vt 0.504788 0.766620
vt 0.227079 0.728809
vt 0.277492 0.728809
vt 0.227079 0.766620
vt 0.277492 0.728809
vt 0.277492 0.766620
vt 0.227079 0.766620
vt 0.896985 0.706878
vt 0.896985 0.656464
vt 0.934795 0.706878
vt 0.896985 0.656464
vt 0.934795 0.656464
vt 0.934795 0.706878
vt 0.776818 0.422866
vt 0.776818 0.378754
vt 0.852438 0.422866
vt 0.776818 0.378754
vt 0.852438 0.378755
vt 0.852438 0.422866
vt 0.631257 0.955671
vt 0.631257 0.999783
vt 0.555637 0.955671
vt 0.631257 0.999783
vt 0.555637 0.999783
vt 0.555637 0.955671
vt 0.277492 0.766620
vt 0.277492 0.810732
vt 0.227079 0.766620
vt 0.277492 0.810732
vt 0.227079 0.810732
vt 0.227079 0.766620
vt 0.700762 0.000217
vt 0.855102 0.000217
vt 0.700762 0.378320
vt 0.855102 0.000217
vt 0.855102 0.378320
vt 0.700762 0.378320
vt 0.896985 0.429168
vt 0.852873 0.429168
vt 0.896985 0.378754
vt 0.852873 0.429168
vt 0.852873 0.378755
vt 0.896985 0.378754
vt 0.700762 0.422866
vt 0.700762 0.378755
vt 0.776383 0.422866
vt 0.700762 0.378755
vt 0.776383 0.378754
vt 0.776383 0.422866
vt 0.555202 0.766620
vt 0.555202 0.810731
vt 0.504788 0.766620
vt 0.555202 0.810731
vt 0.504788 0.810731
vt 0.504788 0.766620
vt 0.855537 0.044329
vt 0.855537 0.000217
vt 0.931157 0.044329
vt 0.855537 0.000217
vt 0.931157 0.000217
vt 0.931157 0.044329
vt 0.763858 0.000166
vt 0.763858 0.155966
vt 0.382179 0.000166
vt 0.763858 0.155966
vt 0.382179 0.155966
vt 0.382179 0.000166
vt 0.763858 0.155966
vt 0.763858 0.311767
vt 0.382179 0.155966
vt 0.763858 0.311767
vt 0.382179 0.311766
vt 0.382179 0.155966
vt 0.763858 0.311767
vt 0.763858 0.467567
vt 0.382179 0.311766
vt 0.763858 0.467567
vt 0.382179 0.467566
vt 0.382179 0.311766
vt 0.000166 0.623367
vt 0.000166 0.467566
vt 0.381846 0.623367
vt 0.000166 0.467566
vt 0.381846 0.467566
vt 0.381846 0.623367
vt 0.000166 0.467566
vt 0.000166 0.311766
vt 0.381846 0.467566
vt 0.000166 0.311766
vt 0.381846 0.311767
vt 0.381846 0.467566
vt 0.266134 0.999834
vt 0.110334 0.623699
vt 0.376301 0.889666
vt 0.000166 0.311766
vt 0.000166 0.155966
vt 0.381846 0.311767
vt 0.000166 0.155966
vt 0.381846 0.155966
vt 0.381846 0.311767
vt 0.000166 0.155966
vt 0.000166 0.000166
vt 0.381846 0.155966
vt 0.000166 0.000166
vt 0.381846 0.000166
vt 0.381846 0.155966
vt 0.648146 0.467899
vt 0.758313 0.578066
vt 0.492346 0.467899
vt 0.110334 0.999834
vt 0.000166 0.889666
vt 0.266134 0.999834
vt 0.000166 0.733866
vt 0.266134 0.999834
vt 0.000166 0.889666
vt 0.110334 0.623699
vt 0.266134 0.999834
vt 0.000166 0.733866
vt 0.266134 0.623699
vt 0.376301 0.733866
vt 0.110334 0.623699
vt 0.376301 0.889666
vt 0.110334 0.623699
vt 0.376301 0.733866
vt 0.758313 0.733867
vt 0.382179 0.733866
vt 0.758313 0.578066
vt 0.648146 0.844034
vt 0.382179 0.733866
vt 0.758313 0.733867
vt 0.492346 0.844034
vt 0.382179 0.733866
vt 0.648146 0.844034
vt 0.382179 0.578066
vt 0.758313 0.578066
vt 0.382179 0.733866
vt 0.492346 0.467899
vt 0.758313 0.578066
vt 0.382179 0.578066

vn -0.000000 1.000000 0.000000
vn -0.000000 1.000000 0.000000
vn -0.000000 1.000000 0.000000
vn -0.000000 1.000000 0.000000
vn -0.000000 1.000000 0.000000
vn -0.000000 1.000000 0.000000
vn -0.000000 0.000000 -1.000000
vn -0.000000 0.000000 -1.000000
vn -0.000000 0.000000 -1.000000
vn -0.000000 0.000000 -1.000000
vn -0.000000 0.000000 -1.000000
vn -0.000000 0.000000 -1.000000
vn 1.000000 0.000000 0.000000
vn 1.000000 0.000000 0.000000
vn 1.000000 0.000000 0.000000
vn 1.000000 0.000000 0.000000
vn 1.000000 0.000000 0.000000
vn 1.000000 0.000000 0.000000
vn -0.000000 -1.000000 0.000000
vn -0.000000 -1.000000 0.000000
vn -0.000000 -1.000000 0.000000
vn -0.000000 -1.000000 0.000000
vn -0.000000 -1.000000 0.000000
vn -0.000000 -1.000000 0.000000
vn -1.000000 0.000000 0.000000
vn -1.000000 0.000000 0.000000
vn -1.000000 0.000000 0.000000
vn -1.000000 0.000000 0.000000
vn -1.000000 0.000000 0.000000
vn -1.000000 0.000000 0.000000
vn -0.000000 0.000000 1.000000
vn -0.000000 0.000000 1.000000
vn -0.000000 0.000000 1.000000
vn -0.000000 0.000000 1.000000
vn -0.000000 0.000000 1.000000
vn -0.000000 0.000000 1.000000
vn -1.000000 0.000000 0.000000
vn -1.000000 0.000000 0.000000
vn -1.000000 0.000000 0.000000
vn -1.000000 0.000000 0.000000
vn -1.000000 0.000000 0.000000
vn -1.000000 0.000000 0.000000
vn -0.000000 -1.000000 0.000000
vn -0.000000 -1.000000 0.000000
vn -0.000000 -1.000000 0.000000
vn -0.000000 -1.000000 0.000000
vn -0.000000 -1.000000 0.000000
vn -0.000000 -1.000000 0.000000
vn -1.000000 0.000000 0.000000
vn -1.000000 0.000000 0.000000
vn -1.000000 0.000000 0.000000
vn -1.000000 0.000000 0.000000
vn -1.000000 0.000000 0.000000
vn -1.000000 0.000000 0.000000
vn 1.000000 0.000000 0.000000
vn 1.000000 0.000000 0.000000
vn 1.000000 0.000000 0.000000
vn 1.000000 0.000000 0.000000
vn 1.000000 0.000000 0.000000
vn 1.000000 0.000000 0.000000
vn -1.000000 0.000000 0.000000
vn -1.000000 0.000000 0.000000
vn -1.000000 0.000000 0.000000
vn -1.000000 0.000000 0.000000
vn -1.000000 0.000000 0.000000
vn -1.000000 0.000000 0.000000
vn 1.000000 0.000000 0.000000
vn 1.000000 0.000000 0.000000
vn 1.000000 0.000000 0.000000
vn 1.000000 0.000000 0.000000
vn 1.000000 0.000000 0.000000
vn 1.000000 0.000000 0.000000
vn -0.000000 1.000000 0.000000
vn -0.000000 1.000000 0.000000
vn -0.000000 1.000000 0.000000
vn -0.000000 1.000000 0.000000
vn -0.000000 1.000000 0.000000
vn -0.000000 1.000000 0.000000
vn -0.000000 -1.000000 0.000000
vn -0.000000 -1.000000 0.000000
vn -0.000000 -1.000000 0.000000
vn -0.000000 -1.000000 0.000000
vn -0.000000 -1.000000 0.000000
vn -0.000000 -1.000000 0.000000
vn -0.000000 1.000000 0.000000
vn -0.000000 1.000000 0.000000
vn -0.000000 1.000000 0.000000
vn -0.000000 1.000000 0.000000
vn -0.000000 1.000000 0.000000
vn -0.000000 1.000000 0.000000
vn -0.000000 0.000000 -1.000000
vn -0.000000 0.000000 -1.000000
vn -0.000000 0.000000 -1.000000
vn -0.000000 0.000000 -1.000000
vn -0.000000 0.000000 -1.000000
vn -0.000000 0.000000 -1.000000
vn -0.000000 0.000000 -1.000000
vn -0.000000 0.000000 -1.000000
vn -0.000000 0.000000 -1.000000
vn -0.000000 0.000000 -1.000000
vn -0.000000 0.000000 -1.000000
vn -0.000000 0.000000 -1.000000
vn -0.000000 -1.000000 0.000000
vn -0.000000 -1.000000 0.000000
vn -0.000000 -1.000000 0.000000
vn -0.000000 -1.000000 0.000000
vn -0.000000 -1.000000 0.000000
vn -0.000000 -1.000000 0.000000
vn 1.000000 0.000000 0.000000
vn 1.000000 0.000000 0.000000
vn 1.000000 0.000000 0.000000
vn 1.000000 0.000000 0.000000
vn 1.000000 0.000000 0.000000
vn 1.000000 0.000000 0.000000
vn -0.000000 1.000000 0.000000
vn -0.000000 1.000000 0.000000
vn -0.000000 1.000000 0.000000
vn -0.000000 1.000000 0.000000
vn -0.000000 1.000000 0.000000
vn -0.000000 1.000000 0.000000
vn -0.000000 -1.000000 0.000000
vn -0.000000 -1.000000 0.000000
vn -0.000000 -1.000000 0.000000
vn -0.000000 -1.000000 0.000000
vn -0.000000 -1.000000 0.000000
vn -0.000000 -1.000000 0.000000
vn -0.000000 1.000000 0.000000
vn -0.000000 1.000000 0.000000
vn -0.000000 1.000000 0.000000
vn -0.000000 1.000000 0.000000
vn -0.000000 1.000000 0.000000
vn -0.000000 1.000000 0.000000
vn -0.000000 -1.000000 0.000000
vn -0.000000 -1.000000 0.000000
vn -0.000000 -1.000000 0.000000
vn -0.000000 -1.000000 0.000000
vn -0.000000 -1.000000 0.000000
vn -0.000000 -1.000000 0.000000
vn -0.000000 0.000000 -1.000000
vn -0.000000 0.000000 -1.000000
vn -0.000000 0.000000 -1.000000
vn -0.000000 0.000000 -1.000000
vn -0.000000 0.000000 -1.000000
vn -0.000000 0.000000 -1.000000
vn -0.000000 0.000000 1.000000
vn -0.000000 0.000000 1.000000
vn -0.000000 0.000000 1.000000
vn -0.000000 0.000000 1.000000
vn -0.000000 0.000000 1.000000
vn -0.000000 0.000000 1.000000
vn -0.000000 1.000000 0.000000
vn -0.000000 1.000000 0.000000
vn -0.000000 1.000000 0.000000
vn -0.000000 1.000000 0.000000
vn -0.000000 1.000000 0.000000
vn -0.000000 1.000000 0.000000
vn 0.000000 -0.382684 0.923879
vn 0.000000 -0.382684 0.923879
vn 0.000000 -0.382684 0.923879
vn -0.000000 -0.382683 0.923880
vn -0.000000 -0.382683 0.923880
vn -0.000000 -0.382683 0.923880
vn -0.000000 1.000000 0.000000
vn -0.000000 1.000000 0.000000
vn -0.000000 1.000000 0.000000
vn -0.000000 1.000000 0.000000
vn -0.000000 1.000000 0.000000
vn -0.000000 1.000000 0.000000
vn -0.000000 0.000000 -1.000000
vn -0.000000 0.000000 -1.000000
vn -0.000000 0.000000 -1.000000
vn -0.000000 0.000000 -1.000000
vn -0.000000 0.000000 -1.000000
vn -0.000000 0.000000 -1.000000
vn -0.000000 -1.000000 0.000000
vn -0.000000 -1.000000 0.000000
vn -0.000000 -1.000000 0.000000
vn -0.000000 -1.000000 0.000000
vn -0.000000 -1.000000 0.000000
vn -0.000000 -1.000000 0.000000
vn -0.000000 0.000000 1.000000
vn -0.000000 0.000000 1.000000
vn -0.000000 0.000000 1.000000
vn -0.000000 0.000000 1.000000
vn -0.000000 0.000000 1.000000
vn -0.000000 0.000000 1.000000
vn 0.000000 -0.923880 0.382684
vn 0.000000 -0.923880 0.382684
vn 0.000000 -0.923880 0.382684
vn 0.000000 -0.923880 0.382683
vn 0.000000 -0.923880 0.382683
vn 0.000000 -0.923880 0.382683
vn 0.000000 -0.923880 -0.382683
vn 0.000000 -0.923880 -0.382683
vn 0.000000 -0.923880 -0.382683
vn 0.000000 -0.923880 -0.382683
vn 0.000000 -0.923880 -0.382683
vn 0.000000 -0.923880 -0.382683
vn -0.000000 -0.382683 -0.923880
vn -0.000000 -0.382683 -0.923880
vn -0.000000 -0.382683 -0.923880
vn 0.000000 -0.382683 -0.923880
vn 0.000000 -0.382683 -0.923880
vn 0.000000 -0.382683 -0.923880
vn -0.000000 0.382683 -0.923880
vn -0.000000 0.382683 -0.923880
vn -0.000000 0.382683 -0.923880
vn -0.000000 0.382683 -0.923880
vn -0.000000 0.382683 -0.923880
vn -0.000000 0.382683 -0.923880
vn -0.000000 0.923880 -0.382683
vn -0.000000 0.923880 -0.382683
vn -0.000000 0.923880 -0.382683
vn -0.000000 0.923880 -0.382683
vn -0.000000 0.923880 -0.382683
vn -0.000000 0.923880 -0.382683
vn -1.000000 -0.000000 0.000000
vn -1.000000 -0.000000 0.000000
vn -1.000000 -0.000000 0.000000
vn -0.000000 0.923880 0.382683
vn -0.000000 0.923880 0.382683
vn -0.000000 0.923880 0.382683
vn -0.000000 0.923880 0.382683
vn -0.000000 0.923880 0.382683
vn -0.000000 0.923880 0.382683
vn -0.000000 0.382684 0.923879
vn -0.000000 0.382684 0.923879
vn -0.000000 0.382684 0.923879
vn -0.000000 0.382684 0.923879
vn -0.000000 0.382684 0.923879
vn -0.000000 0.382684 0.923879
vn 1.000000 0.000000 -0.000000
vn 1.000000 0.000000 -0.000000
vn 1.000000 0.000000 -0.000000
vn -1.000000 0.000000 -0.000000
vn -1.000000 0.000000 -0.000000
vn -1.000000 0.000000 -0.000000
vn -1.000000 -0.000000 -0.000000
vn -1.000000 -0.000000 -0.000000
vn -1.000000 -0.000000 -0.000000
vn -1.000000 -0.000000 0.000000
vn -1.000000 -0.000000 0.000000
vn -1.000000 -0.000000 0.000000
vn -1.000000 0.000000 0.000000
vn -1.000000 0.000000 0.000000
vn -1.000000 0.000000 0.000000
vn -1.000000 0.000000 0.000000
vn -1.000000 0.000000 0.000000
vn -1.000000 0.000000 0.000000
vn 1.000000 0.000000 0.000000
vn 1.000000 0.000000 0.000000
vn 1.000000 0.000000 0.000000
vn 1.000000 0.000000 0.000000
vn 1.000000 0.000000 0.000000
vn 1.000000 0.000000 0.000000
vn 1.000000 0.000000 0.000000
vn 1.000000 0.000000 0.000000
vn 1.000000 0.000000 0.000000
vn 1.000000 0.000000 0.000000
vn 1.000000 0.000000 0.000000
vn 1.000000 0.000000 0.000000
vn 1.000000 0.000000 -0.000000
vn 1.000000 0.000000 -0.000000
vn 1.000000 0.000000 -0.000000

g Material.001
f 3/1/1 1/2/2 2/3/3
f 6/4/4 4/5/5 5/6/6
f 9/7/7 7/8/8 8/9/9
f 12/10/10 10/11/11 11/12/12
f 15/13/13 13/14/14 14/15/15
f 18/16/16 16/17/17 17/18/18
f 21/19/19 19/20/20 20/21/21
f 24/22/22 22/23/23 23/24/24
f 27/25/25 25/26/26 26/27/27
f 30/28/28 28/29/29 29/30/30
f 33/31/31 31/32/32 32/33/33
f 36/34/34 34/35/35 35/36/36
f 39/37/37 37/38/38 38/39/39
f 42/40/40 40/41/41 41/42/42
f 45/43/43 43/44/44 44/45/45
f 48/46/46 46/47/47 47/48/48
f 51/49/49 49/50/50 50/51/51
f 54/52/52 52/53/53 53/54/54
f 57/55/55 55/56/56 56/57/57
f 60/58/58 58/59/59 59/60/60
f 63/61/61 61/62/62 62/63/63
f 66/64/64 64/65/65 65/66/66
f 69/67/67 67/68/68 68/69/69
f 72/70/70 70/71/71 71/72/72
f 75/73/73 73/74/74 74/75/75
f 78/76/76 76/77/77 77/78/78
f 81/79/79 79/80/80 80/81/81
f 84/82/82 82/83/83 83/84/84
f 87/85/85 85/86/86 86/87/87
f 90/88/88 88/89/89 89/90/90
f 93/91/91 91/92/92 92/93/93
f 96/94/94 94/95/95 95/96/96
f 99/97/97 97/98/98 98/99/99
f 102/100/100 100/101/101 101/102/102
f 105/103/103 103/104/104 104/105/105
f 108/106/106 106/107/107 107/108/108
f 111/109/109 109/110/110 110/111/111
f 114/112/112 112/113/113 113/114/114
f 117/115/115 115/116/116 116/117/117
f 120/118/118 118/119/119 119/120/120
f 123/121/121 121/122/122 122/123/123
f 126/124/124 124/125/125 125/126/126
f 129/127/127 127/128/128 128/129/129
f 132/130/130 130/131/131 131/132/132
f 135/133/133 133/134/134 134/135/135
f 138/136/136 136/137/137 137/138/138
f 141/139/139 139/140/140 140/141/141
f 144/142/142 142/143/143 143/144/144
f 147/145/145 145/146/146 146/147/147
f 150/148/148 148/149/149 149/150/150
f 153/151/151 151/152/152 152/153/153
f 156/154/154 154/155/155 155/156/156
f 159/157/157 157/158/158 158/159/159
f 162/160/160 160/161/161 161/162/162
f 165/163/163 163/164/164 164/165/165
f 168/166/166 166/167/167 167/168/168
f 171/169/169 169/170/170 170/171/171
f 174/172/172 172/173/173 173/174/174
f 177/175/175 175/176/176 176/177/177
f 180/178/178 178/179/179 179/180/180
f 183/181/181 181/182/182 182/183/183
f 186/184/184 184/185/185 185/186/186

g Material.002
f 189/187/187 187/188/188 188/189/189
f 192/190/190 190/191/191 191/192/192
f 195/193/193 193/194/194 194/195/195
f 198/196/196 196/197/197 197/198/198
f 201/199/199 199/200/200 200/201/201
f 204/202/202 202/203/203 203/204/204
f 207/205/205 205/206/206 206/207/207
f 210/208/208 208/209/209 209/210/210
f 213/211/211 211/212/212 212/213/213
f 216/214/214 214/215/215 215/216/216
f 219/217/217 217/218/218 218/219/219
f 222/220/220 220/221/221 221/222/222
f 225/223/223 223/224/224 224/225/225
f 228/226/226 226/227/227 227/228/228
f 231/229/229 229/230/230 230/231/231
f 234/232/232 232/233/233 233/234/234
f 237/235/235 235/236/236 236/237/237
f 240/238/238 238/239/239 239/240/240
f 243/241/241 241/242/242 242/243/243
f 246/244/244 244/245/245 245/246/246
f 249/247/247 247/248/248 248/249/249
f 252/250/250 250/251/251 251/252/252
f 255/253/253 253/254/254 254/255/255
f 258/256/256 256/257/257 257/258/258
f 261/259/259 259/260/260 260/261/261
f 264/262/262 262/263/263 263/264/264

