# Converted from B3D for Luanti (With Correct Normals)
# Object Name: multidecor_dark_rusty_gate

v -0.829289 0.675000 -0.050000
v 0.729290 -0.775000 -0.050000
v -0.829289 -0.775000 -0.050000
v -0.729290 0.775000 -0.050000
v 0.829289 -0.675000 -0.050000
v 0.829289 0.775000 -0.050000
v 0.929290 -0.675000 -0.100000
v 0.929290 0.775000 -0.100000
v 0.929290 0.775000 0.000000
v 0.929290 -0.675000 0.000000
v 0.729290 -0.775000 -0.100000
v 0.829289 -0.775000 -0.100000
v 0.829289 -0.875000 -0.100000
v 0.729290 -0.875000 -0.100000
v -0.829289 -0.775000 -0.100000
v 0.729290 -0.775000 -0.100000
v 0.729290 -0.875000 -0.100000
v -0.829289 -0.875000 -0.100000
v 0.729290 -0.775000 -0.100000
v -0.829289 -0.775000 -0.100000
v -0.829289 -0.775000 -0.050000
v 0.729290 -0.775000 -0.050000
v 0.729290 -0.775000 -0.050000
v -0.829289 -0.775000 -0.050000
v -0.829289 -0.775000 0.000000
v 0.729290 -0.775000 0.000000
v -0.829289 -0.191667 0.020711
v 0.829290 -0.191667 0.020711
v 0.829290 0.141667 0.020711
v -0.829289 0.141667 0.020711
v 0.814645 0.141667 -0.014644
v 0.814645 -0.191667 -0.014644
v -0.814644 -0.191667 -0.014644
v -0.814644 0.141667 -0.014644
v -0.814644 -0.191667 -0.014644
v 0.814645 -0.191667 -0.014644
v 0.829290 -0.191667 0.020711
v -0.829289 -0.191667 0.020711
v -0.814644 0.141667 -0.014644
v -0.829289 0.141667 0.020711
v 0.829290 0.141667 0.020711
v 0.814645 0.141667 -0.014644
v -0.729290 0.775000 -0.100000
v -0.829289 0.775000 -0.100000
v -0.829289 0.875000 -0.100000
v -0.729290 0.875000 -0.100000
v 0.829289 0.775000 -0.100000
v -0.729290 0.775000 -0.100000
v -0.729290 0.875000 -0.100000
v 0.829289 0.875000 -0.100000
v -0.729290 0.875000 0.000000
v -0.729290 0.875000 -0.100000
v -0.829289 0.875000 -0.100000
v -0.829289 0.875000 0.000000
v 0.729290 -0.775000 0.000000
v -0.829289 -0.775000 0.000000
v -0.829289 -0.875000 0.000000
v 0.729290 -0.875000 0.000000
v -0.829289 0.675000 -0.100000
v -0.829289 0.675000 -0.050000
v -0.829289 -0.775000 -0.050000
v -0.829289 -0.775000 -0.100000
v -0.829289 -0.875000 -0.100000
v -0.829289 -0.875000 0.000000
v -0.929289 -0.875000 0.000000
v -0.929289 -0.875000 -0.100000
v -0.829289 0.875000 -0.100000
v -0.829289 0.775000 -0.100000
v -0.929289 0.775000 -0.100000
v -0.929289 0.875000 -0.100000
v -0.829289 0.675000 -0.050000
v -0.829289 0.675000 0.000000
v -0.829289 -0.775000 0.000000
v -0.829289 -0.775000 -0.050000
v -0.829289 -0.875000 0.000000
v -0.829289 -0.775000 0.000000
v -0.929289 -0.775000 0.000000
v -0.929289 -0.875000 0.000000
v -0.829289 0.875000 0.000000
v -0.829289 0.875000 -0.100000
v -0.929289 0.875000 -0.100000
v -0.929289 0.875000 0.000000
v -0.829289 0.775000 0.000000
v -0.829289 0.875000 0.000000
v -0.929289 0.875000 0.000000
v -0.929289 0.775000 0.000000
v -0.829289 0.675000 0.000000
v -0.829289 0.775000 0.000000
v -0.929289 0.775000 0.000000
v -0.929289 0.675000 0.000000
v -0.829289 -0.775000 -0.100000
v -0.829289 -0.875000 -0.100000
v -0.929289 -0.875000 -0.100000
v -0.929289 -0.775000 -0.100000
v -0.929289 0.775000 -0.100000
v -0.929289 0.775000 0.000000
v -0.929289 0.875000 0.000000
v -0.929289 0.875000 -0.100000
v -0.929289 0.675000 -0.100000
v -0.929289 0.675000 0.000000
v -0.929289 0.775000 0.000000
v -0.929289 0.775000 -0.100000
v -0.929289 -0.875000 0.000000
v -0.929289 -0.775000 0.000000
v -0.929289 -0.775000 -0.100000
v -0.929289 -0.875000 -0.100000
v 0.729290 -0.775000 0.000000
v 0.829289 -0.775000 0.000000
v 0.829289 -0.675000 0.000000
v -0.729290 0.775000 0.000000
v 0.829289 -0.675000 0.000000
v 0.829289 -0.675000 -0.050000
v -0.729290 0.775000 -0.050000
v 0.829289 0.875000 0.000000
v 0.829289 0.775000 0.000000
v 0.929290 0.775000 0.000000
v 0.929290 0.875000 0.000000
v 0.829289 0.775000 -0.050000
v 0.829289 -0.675000 -0.050000
v 0.829289 -0.675000 0.000000
v 0.829289 0.775000 0.000000
v 0.829289 -0.875000 -0.100000
v 0.829289 -0.775000 -0.100000
v 0.929290 -0.775000 -0.100000
v 0.929290 -0.875000 -0.100000
v 0.829289 -0.875000 0.000000
v 0.829289 -0.875000 -0.100000
v 0.929290 -0.875000 -0.100000
v 0.929290 -0.875000 0.000000
v 0.829289 0.775000 -0.100000
v 0.829289 0.875000 -0.100000
v 0.929290 0.875000 -0.100000
v 0.929290 0.775000 -0.100000
v 0.829289 -0.775000 0.000000
v 0.829289 -0.875000 0.000000
v 0.929290 -0.875000 0.000000
v 0.929290 -0.775000 0.000000
v 0.829289 -0.675000 0.000000
v 0.829289 -0.775000 0.000000
v 0.929290 -0.775000 0.000000
v 0.929290 -0.675000 0.000000
v 0.829289 0.875000 -0.100000
v 0.829289 0.875000 0.000000
v 0.929290 0.875000 0.000000
v 0.929290 0.875000 -0.100000
v 0.929290 0.875000 -0.100000
v 0.929290 0.875000 0.000000
v 0.929290 0.775000 0.000000
v 0.929290 0.775000 -0.100000
v 0.829289 0.775000 0.000000
v 0.829289 -0.675000 0.000000
v 0.929290 -0.675000 0.000000
v 0.929290 0.775000 0.000000
v 0.929290 -0.875000 0.000000
v 0.929290 -0.875000 -0.100000
v 0.929290 -0.775000 -0.100000
v 0.929290 -0.775000 0.000000
v 0.929290 -0.775000 -0.100000
v 0.929290 -0.675000 -0.100000
v 0.929290 -0.675000 0.000000
v 0.929290 -0.775000 0.000000
v 0.829289 -0.675000 -0.100000
v 0.829289 0.775000 -0.100000
v 0.929290 0.775000 -0.100000
v 0.929290 -0.675000 -0.100000
v 0.829289 -0.775000 -0.100000
v 0.829289 -0.675000 -0.100000
v 0.929290 -0.675000 -0.100000
v 0.929290 -0.775000 -0.100000
v 0.829289 0.775000 -0.100000
v 0.829289 -0.675000 -0.100000
v 0.829289 -0.675000 -0.050000
v 0.829289 0.775000 -0.050000
v 0.829289 0.875000 -0.100000
v -0.729290 0.875000 -0.100000
v -0.729290 0.875000 0.000000
v 0.829289 0.875000 0.000000
v -0.829289 -0.775000 0.000000
v -0.829289 0.675000 0.000000
v -0.929289 0.675000 0.000000
v -0.929289 -0.775000 0.000000
v -0.829289 0.675000 -0.100000
v -0.829289 -0.775000 -0.100000
v -0.929289 -0.775000 -0.100000
v -0.929289 0.675000 -0.100000
v -0.829289 0.775000 -0.100000
v -0.829289 0.675000 -0.100000
v -0.929289 0.675000 -0.100000
v -0.929289 0.775000 -0.100000
v 0.729290 -0.775000 -0.100000
v 0.729290 -0.775000 -0.050000
v -0.829289 0.675000 -0.050000
v -0.829289 0.675000 -0.100000
v -0.829289 0.675000 -0.050000
v 0.729290 -0.775000 -0.050000
v 0.729290 -0.775000 0.000000
v -0.829289 0.675000 0.000000
v 0.829289 -0.775000 0.000000
v 0.729290 -0.775000 0.000000
v 0.729290 -0.875000 0.000000
v 0.829289 -0.875000 0.000000
v -0.729290 0.775000 -0.050000
v 0.829289 -0.675000 -0.050000
v 0.829289 -0.675000 -0.100000
v -0.729290 0.775000 -0.100000
v -0.729290 0.775000 -0.100000
v 0.829289 -0.675000 -0.100000
v 0.729290 -0.775000 -0.100000
v 0.729290 -0.875000 -0.100000
v 0.729290 -0.875000 0.000000
v -0.829289 -0.875000 0.000000
v -0.829289 -0.875000 -0.100000
v 0.829289 -0.875000 -0.100000
v 0.829289 -0.875000 0.000000
v 0.729290 -0.875000 0.000000
v 0.729290 -0.875000 -0.100000
v -0.729290 0.775000 0.000000
v 0.829289 0.775000 0.000000
v 0.829289 0.875000 0.000000
v -0.729290 0.875000 0.000000
v -0.829289 0.775000 0.000000
v -0.729290 0.775000 0.000000
v -0.729290 0.875000 0.000000
v -0.829289 0.875000 0.000000
v 0.829289 0.775000 -0.050000
v -0.729290 0.775000 -0.050000
v -0.729290 0.775000 -0.100000
v 0.829289 0.775000 -0.100000
v 0.829289 0.775000 0.000000
v -0.729290 0.775000 0.000000
v -0.729290 0.775000 -0.050000
v 0.829289 0.775000 -0.050000
v -0.929289 -0.775000 0.000000
v -0.929289 0.675000 0.000000
v -0.929289 0.675000 -0.100000
v -0.929289 -0.775000 -0.100000
v 0.929290 0.488169 0.000000
v 1.000000 0.488169 0.000000
v 1.000000 0.588169 0.000000
v 0.929290 0.588169 0.000000
v 0.929290 0.588169 0.000000
v 1.000000 0.588169 0.000000
v 1.000000 0.588169 -0.100000
v 0.929290 0.588169 -0.100000
v 0.929290 0.588169 -0.100000
v 1.000000 0.588169 -0.100000
v 1.000000 0.488169 -0.100000
v 0.929290 0.488169 -0.100000
v 0.929290 0.488169 -0.100000
v 1.000000 0.488169 -0.100000
v 1.000000 0.488169 0.000000
v 0.929290 0.488169 0.000000
v 1.000000 0.588169 -0.100000
v 1.000000 0.588169 0.000000
v 1.000000 0.488169 0.000000
v 1.000000 0.488169 -0.100000
v 0.929290 -0.388169 0.000000
v 1.000000 -0.388169 0.000000
v 1.000000 -0.488169 0.000000
v 0.929290 -0.488169 0.000000
v 0.929290 -0.488169 0.000000
v 1.000000 -0.488169 0.000000
v 1.000000 -0.488169 -0.100000
v 0.929290 -0.488169 -0.100000
v 0.929290 -0.488169 -0.100000
v 1.000000 -0.488169 -0.100000
v 1.000000 -0.388169 -0.100000
v 0.929290 -0.388169 -0.100000
v 0.929290 -0.388169 -0.100000
v 1.000000 -0.388169 -0.100000
v 1.000000 -0.388169 0.000000
v 0.929290 -0.388169 0.000000
v 1.000000 -0.488169 -0.100000
v 1.000000 -0.488169 0.000000
v 1.000000 -0.388169 0.000000
v 1.000000 -0.388169 -0.100000
v -0.914289 0.120495 -0.100000
v -0.914289 0.120495 -0.232842
v -0.844289 0.120495 -0.232842
v -0.844289 0.120495 -0.100000
v -0.844289 0.120495 -0.100000
v -0.844289 0.120495 -0.232842
v -0.844289 0.180495 -0.232842
v -0.844289 0.180495 -0.100000
v -0.844289 0.180495 -0.100000
v -0.844289 0.180495 -0.232842
v -0.914289 0.180495 -0.232842
v -0.914289 0.180495 -0.100000
v -0.914289 0.180495 -0.100000
v -0.914289 0.180495 -0.232842
v -0.914289 0.120495 -0.232842
v -0.914289 0.120495 -0.100000
v -0.844289 -0.228610 -0.100000
v -0.844289 -0.228610 -0.232842
v -0.914289 -0.228610 -0.232842
v -0.914289 -0.228610 -0.100000
v -0.844289 0.180495 -0.232842
v -0.844289 0.120495 -0.232842
v -0.914289 0.120495 -0.232842
v -0.914289 0.180495 -0.232842
v -0.914289 0.120495 -0.232842
v -0.914289 -0.024057 -0.232842
v -0.914289 -0.024057 -0.182842
v -0.914289 0.120495 -0.182842
v -0.914289 0.120495 -0.182842
v -0.914289 -0.024057 -0.182842
v -0.844289 -0.024057 -0.182842
v -0.844289 0.120495 -0.182842
v -0.844289 0.120495 -0.182842
v -0.844289 -0.024057 -0.182842
v -0.844289 -0.024057 -0.232842
v -0.844289 0.120495 -0.232842
v -0.844289 0.120495 -0.232842
v -0.844289 -0.024057 -0.232842
v -0.914289 -0.024057 -0.232842
v -0.914289 0.120495 -0.232842
v -0.844289 -0.168610 -0.100000
v -0.844289 -0.168610 -0.232842
v -0.844289 -0.228610 -0.232842
v -0.844289 -0.228610 -0.100000
v -0.914289 -0.168610 -0.100000
v -0.914289 -0.168610 -0.232842
v -0.844289 -0.168610 -0.232842
v -0.844289 -0.168610 -0.100000
v -0.914289 -0.228610 -0.100000
v -0.914289 -0.228610 -0.232842
v -0.914289 -0.168610 -0.232842
v -0.914289 -0.168610 -0.100000
v -0.844289 -0.228610 -0.232842
v -0.844289 -0.168610 -0.232842
v -0.914289 -0.168610 -0.232842
v -0.914289 -0.228610 -0.232842
v -0.914289 -0.168610 -0.232842
v -0.914289 -0.024057 -0.232842
v -0.914289 -0.024057 -0.182842
v -0.914289 -0.168610 -0.182842
v -0.914289 -0.168610 -0.182842
v -0.914289 -0.024057 -0.182842
v -0.844289 -0.024057 -0.182842
v -0.844289 -0.168610 -0.182842
v -0.844289 -0.168610 -0.182842
v -0.844289 -0.024057 -0.182842
v -0.844289 -0.024057 -0.232842
v -0.844289 -0.168610 -0.232842
v -0.844289 -0.168610 -0.232842
v -0.844289 -0.024057 -0.232842
v -0.914289 -0.024057 -0.232842
v -0.914289 -0.168610 -0.232842
v 0.829289 -0.675000 0.000000
v -0.729290 0.775000 0.000000
v 0.729290 -0.775000 0.000000
v -0.729290 0.775000 0.000000
v -0.829289 0.775000 0.000000
v -0.829289 0.675000 0.000000
v 0.729290 -0.775000 0.000000
v -0.729290 0.775000 0.000000
v -0.829289 0.675000 0.000000
v 0.829289 -0.675000 -0.100000
v 0.829289 -0.775000 -0.100000
v 0.729290 -0.775000 -0.100000
v 0.729290 -0.775000 -0.100000
v -0.829289 0.675000 -0.100000
v -0.729290 0.775000 -0.100000
v -0.829289 0.675000 -0.100000
v -0.829289 0.775000 -0.100000
v -0.729290 0.775000 -0.100000

vt 0.308769 -0.103450
vt 0.662176 0.249957
vt -0.071102 0.276421
vt 1.015729 0.603510
vt 0.635858 0.983381
vt 0.662322 0.250104
vt 0.353893 0.000209
vt 0.328461 0.368979
vt 0.328461 0.000209
vt 0.353894 0.368979
vt 0.328461 0.368979
vt 0.353893 0.000209
vt 0.000209 0.486028
vt 0.025642 0.511460
vt 0.000209 0.511460
vt 0.025642 0.486028
vt 0.025642 0.511460
vt 0.000209 0.486028
vt 0.025642 0.486028
vt 0.422028 0.511460
vt 0.025642 0.511460
vt 0.422028 0.486028
vt 0.422028 0.511460
vt 0.025642 0.486028
vt 0.422028 0.524176
vt 0.025642 0.511460
vt 0.422028 0.511460
vt 0.025642 0.524177
vt 0.025642 0.511460
vt 0.422028 0.524176
vt 0.422028 0.435163
vt 0.025642 0.422446
vt 0.422028 0.422446
vt 0.025642 0.435163
vt 0.025642 0.422446
vt 0.422028 0.435163
vt 0.486028 0.844265
vt 0.511461 0.818832
vt 0.511461 0.844265
vt 0.486028 0.818832
vt 0.511461 0.818832
vt 0.486028 0.844265
vt 0.486028 0.818832
vt 0.511460 0.422446
vt 0.511461 0.818832
vt 0.486028 0.422446
vt 0.511460 0.422446
vt 0.486028 0.818832
vt 0.486028 0.844265
vt 0.460596 0.818832
vt 0.486028 0.818832
vt 0.460596 0.844265
vt 0.460596 0.818832
vt 0.486028 0.844265
vt 0.422028 0.460595
vt 0.025642 0.435163
vt 0.422028 0.435163
vt 0.025642 0.460595
vt 0.025642 0.435163
vt 0.422028 0.460595
vt 0.289893 0.394412
vt 0.277177 0.025642
vt 0.289893 0.025642
vt 0.277177 0.394412
vt 0.277177 0.025642
vt 0.289893 0.394412
vt 0.417894 0.163815
vt 0.392461 0.189248
vt 0.392461 0.163815
vt 0.417894 0.189248
vt 0.392461 0.189248
vt 0.417894 0.163815
vt 0.392461 0.342680
vt 0.417894 0.368113
vt 0.392461 0.368113
vt 0.417894 0.342680
vt 0.417894 0.368113
vt 0.392461 0.342680
vt 0.200878 0.394412
vt 0.188163 0.025642
vt 0.200879 0.025642
vt 0.188162 0.394412
vt 0.188163 0.025642
vt 0.200878 0.394412
vt 0.443326 0.163815
vt 0.417894 0.138382
vt 0.443326 0.138382
vt 0.417894 0.163815
vt 0.417894 0.138382
vt 0.443326 0.163815
vt 0.417894 0.342680
vt 0.443326 0.317248
vt 0.443326 0.342680
vt 0.417894 0.317248
vt 0.443326 0.317248
vt 0.417894 0.342680
vt 0.417894 0.317248
vt 0.392461 0.291815
vt 0.417894 0.291815
vt 0.392461 0.317248
vt 0.392461 0.291815
vt 0.417894 0.317248
vt 0.226312 0.000209
vt 0.200879 0.025642
vt 0.200879 0.000210
vt 0.226312 0.025642
vt 0.200879 0.025642
vt 0.226312 0.000209
vt 0.417894 0.189248
vt 0.443326 0.214680
vt 0.417894 0.214680
vt 0.443326 0.189248
vt 0.443326 0.214680
vt 0.417894 0.189248
vt 0.417894 0.317248
vt 0.392461 0.342680
vt 0.392461 0.317248
vt 0.417894 0.342680
vt 0.392461 0.342680
vt 0.417894 0.317248
vt 0.226312 0.000209
vt 0.251744 0.025642
vt 0.226312 0.025642
vt 0.251744 0.000209
vt 0.251744 0.025642
vt 0.226312 0.000209
vt 0.443326 0.189248
vt 0.417894 0.163815
vt 0.443326 0.163815
vt 0.417894 0.189248
vt 0.417894 0.163815
vt 0.443326 0.189248
vt 0.635050 0.439769
vt 0.599107 0.441067
vt 0.616430 0.422446
vt 0.647767 0.439769
vt 0.635050 0.981170
vt 0.635050 0.439769
vt 0.647767 0.981170
vt 0.635050 0.981170
vt 0.647767 0.439769
vt 0.392461 0.112531
vt 0.417894 0.137964
vt 0.392461 0.137964
vt 0.417894 0.112531
vt 0.417894 0.137964
vt 0.392461 0.112531
vt 0.379326 0.368979
vt 0.392042 0.000209
vt 0.392042 0.368979
vt 0.379326 0.000209
vt 0.392042 0.000209
vt 0.379326 0.368979
vt 0.443326 0.240531
vt 0.417894 0.215099
vt 0.443326 0.215099
vt 0.417894 0.240531
vt 0.417894 0.215099
vt 0.443326 0.240531
vt 0.417894 0.240531
vt 0.392461 0.265964
vt 0.392461 0.240531
vt 0.417894 0.265964
vt 0.392461 0.265964
vt 0.417894 0.240531
vt 0.417894 0.087099
vt 0.392461 0.061666
vt 0.417894 0.061666
vt 0.392461 0.087099
vt 0.392461 0.061666
vt 0.417894 0.087099
vt 0.417894 0.265964
vt 0.443326 0.291396
vt 0.417894 0.291396
vt 0.443326 0.265964
vt 0.443326 0.291396
vt 0.417894 0.265964
vt 0.353894 0.394412
vt 0.379326 0.368979
vt 0.379326 0.394412
vt 0.353894 0.368979
vt 0.379326 0.368979
vt 0.353894 0.394412
vt 0.417894 0.112531
vt 0.443326 0.087099
vt 0.443326 0.112531
vt 0.417894 0.087099
vt 0.443326 0.087099
vt 0.417894 0.112531
vt 0.392461 0.112531
vt 0.417894 0.087099
vt 0.417894 0.112531
vt 0.392461 0.087099
vt 0.417894 0.087099
vt 0.392461 0.112531
vt 0.353894 0.368979
vt 0.379326 0.000209
vt 0.379326 0.368979
vt 0.353893 0.000209
vt 0.379326 0.000209
vt 0.353894 0.368979
vt 0.443326 0.240531
vt 0.417894 0.265964
vt 0.417894 0.240531
vt 0.443326 0.265964
vt 0.417894 0.265964
vt 0.443326 0.240531
vt 0.353894 0.368979
vt 0.328461 0.394412
vt 0.328461 0.368979
vt 0.353894 0.394412
vt 0.328461 0.394412
vt 0.353894 0.368979
vt 0.328461 0.000209
vt 0.303028 0.368979
vt 0.303028 0.000209
vt 0.328461 0.368979
vt 0.303028 0.368979
vt 0.328461 0.000209
vt 0.328461 0.368979
vt 0.303028 0.394412
vt 0.303028 0.368979
vt 0.328461 0.394412
vt 0.303028 0.394412
vt 0.328461 0.368979
vt 0.290312 0.368979
vt 0.303028 0.000209
vt 0.303028 0.368979
vt 0.290312 0.000209
vt 0.303028 0.000209
vt 0.290312 0.368979
vt 0.460596 0.818832
vt 0.486028 0.422446
vt 0.486028 0.818832
vt 0.460596 0.422446
vt 0.486028 0.422446
vt 0.460596 0.818832
vt 0.226312 0.025642
vt 0.200878 0.394412
vt 0.200879 0.025642
vt 0.226311 0.394412
vt 0.200878 0.394412
vt 0.226312 0.025642
vt 0.251744 0.394412
vt 0.277177 0.025642
vt 0.277177 0.394412
vt 0.251744 0.025642
vt 0.277177 0.025642
vt 0.251744 0.394412
vt 0.251744 0.025642
vt 0.277177 0.000209
vt 0.277177 0.025642
vt 0.251744 0.000209
vt 0.277177 0.000209
vt 0.251744 0.025642
vt 0.585972 0.982468
vt 0.573255 0.441066
vt 0.585972 0.441067
vt 0.573255 0.982468
vt 0.573255 0.441066
vt 0.585972 0.982468
vt 0.599107 0.441067
vt 0.586390 0.982467
vt 0.586391 0.441066
vt 0.599107 0.982467
vt 0.586390 0.982467
vt 0.599107 0.441067
vt 0.025642 0.460595
vt 0.000209 0.435163
vt 0.025642 0.435163
vt 0.000209 0.460595
vt 0.000209 0.435163
vt 0.025642 0.460595
vt 0.537312 0.439769
vt 0.524595 0.981170
vt 0.524596 0.439769
vt 0.537312 0.981170
vt 0.524595 0.981170
vt 0.537312 0.439769
vt 0.573255 0.441066
vt 0.537312 0.981170
vt 0.537312 0.439769
vt 0.422028 0.460595
vt 0.025642 0.486028
vt 0.025642 0.460595
vt 0.422028 0.486028
vt 0.025642 0.486028
vt 0.422028 0.460595
vt 0.025642 0.460595
vt 0.000209 0.486028
vt 0.000209 0.460595
vt 0.025642 0.486028
vt 0.000209 0.486028
vt 0.025642 0.460595
vt 0.460596 0.422446
vt 0.435163 0.818832
vt 0.435163 0.422446
vt 0.460596 0.818832
vt 0.435163 0.818832
vt 0.460596 0.422446
vt 0.460596 0.818832
vt 0.435163 0.844265
vt 0.435163 0.818832
vt 0.460596 0.844265
vt 0.435163 0.844265
vt 0.460596 0.818832
vt 0.511461 0.818832
vt 0.524177 0.422446
vt 0.524177 0.818832
vt 0.511460 0.422446
vt 0.524177 0.422446
vt 0.511461 0.818832
vt 0.422447 0.818832
vt 0.435163 0.422446
vt 0.435163 0.818832
vt 0.422446 0.422446
vt 0.435163 0.422446
vt 0.422447 0.818832
vt 0.251744 0.025642
vt 0.226311 0.394412
vt 0.226312 0.025642
vt 0.251744 0.394412
vt 0.226311 0.394412
vt 0.251744 0.025642
vt 0.231997 0.394831
vt 0.249980 0.420263
vt 0.231997 0.420263
vt 0.249980 0.394831
vt 0.249980 0.420263
vt 0.231997 0.394831
vt 0.374059 0.394831
vt 0.392042 0.420263
vt 0.374059 0.420263
vt 0.392042 0.394831
vt 0.392042 0.420263
vt 0.374059 0.394831
vt 0.286785 0.420263
vt 0.268801 0.394831
vt 0.286785 0.394831
vt 0.268801 0.420263
vt 0.268801 0.394831
vt 0.286785 0.420263
vt 0.206146 0.420263
vt 0.188162 0.394831
vt 0.206146 0.394831
vt 0.188162 0.420263
vt 0.188162 0.394831
vt 0.206146 0.420263
vt 0.206146 0.420263
vt 0.231578 0.394831
vt 0.231578 0.420263
vt 0.206146 0.394831
vt 0.231578 0.394831
vt 0.206146 0.420263
vt 0.355238 0.394831
vt 0.329805 0.412814
vt 0.329805 0.394831
vt 0.355238 0.412814
vt 0.329805 0.412814
vt 0.355238 0.394831
vt 0.250399 0.394831
vt 0.268382 0.420263
vt 0.250399 0.420263
vt 0.268382 0.394831
vt 0.268382 0.420263
vt 0.250399 0.394831
vt 0.373640 0.420263
vt 0.355657 0.394831
vt 0.373640 0.394831
vt 0.355657 0.420263
vt 0.355657 0.394831
vt 0.373640 0.420263
vt 0.417894 0.393964
vt 0.392461 0.411947
vt 0.392461 0.393964
vt 0.417894 0.411947
vt 0.392461 0.411947
vt 0.417894 0.393964
vt 0.417894 0.393964
vt 0.392461 0.368531
vt 0.417894 0.368531
vt 0.392461 0.393964
vt 0.392461 0.368531
vt 0.417894 0.393964
vt 0.599107 0.441067
vt 0.635050 0.439769
vt 0.635050 0.981170
vt 0.599107 0.982467
vt 0.635050 0.981170
vt 0.617727 0.999790
vt 0.599107 0.982467
vt 0.599107 0.441067
vt 0.635050 0.981170
vt 0.573255 0.441066
vt 0.537312 0.439769
vt 0.555933 0.422446
vt 0.537312 0.981170
vt 0.573255 0.441066
vt 0.573255 0.982468
vt 0.537312 0.981170
vt 0.573255 0.982468
vt 0.554635 0.999791
vt 0.187743 0.000210
vt 0.102968 0.422028
vt 0.102968 0.000210
vt 0.187743 0.422028
vt 0.102968 0.422028
vt 0.187743 0.000210
vt 0.093976 0.418303
vt 0.009202 0.003934
vt 0.093976 0.003934
vt 0.009201 0.418303
vt 0.009202 0.003934
vt 0.093976 0.418303
vt 0.102968 0.000210
vt 0.093976 0.418303
vt 0.093976 0.003934
vt 0.102968 0.422028
vt 0.093976 0.418303
vt 0.102968 0.000210
vt 0.000209 0.000209
vt 0.009201 0.418303
vt 0.000209 0.422027
vt 0.009202 0.003934
vt 0.009201 0.418303
vt 0.000209 0.000209
vt 0.120074 0.480154
vt 0.385607 0.620074
vt 0.120074 0.620074
vt 0.385607 0.480154
vt 0.385607 0.620074
vt 0.120074 0.480154
vt 0.120074 0.879926
vt 0.385607 0.999858
vt 0.120074 0.999858
vt 0.385607 0.879926
vt 0.385607 0.999858
vt 0.120074 0.879926
vt 0.120074 0.740006
vt 0.385607 0.879926
vt 0.120074 0.879926
vt 0.385607 0.740006
vt 0.385607 0.879926
vt 0.120074 0.740006
vt 0.120074 0.620074
vt 0.385607 0.740006
vt 0.120074 0.740006
vt 0.385607 0.620074
vt 0.385607 0.740006
vt 0.120074 0.620074
vt 0.698240 0.259994
vt 0.963774 0.399915
vt 0.698240 0.399915
vt 0.963774 0.259994
vt 0.963774 0.399915
vt 0.698240 0.259994
vt 0.000142 0.740006
vt 0.120074 0.879926
vt 0.000142 0.879926
vt 0.120074 0.740006
vt 0.120074 0.879926
vt 0.000142 0.740006
vt 0.289083 0.240006
vt 0.000143 0.339949
vt 0.289083 0.339949
vt 0.000142 0.240006
vt 0.000143 0.339949
vt 0.289083 0.240006
vt 0.289083 0.100085
vt 0.000142 0.240006
vt 0.289083 0.240006
vt 0.000142 0.100085
vt 0.000142 0.240006
vt 0.289083 0.100085
vt 0.289083 0.000142
vt 0.000142 0.100085
vt 0.289083 0.100085
vt 0.000143 0.000142
vt 0.000142 0.100085
vt 0.289083 0.000142
vt 0.289083 0.339949
vt 0.000143 0.479869
vt 0.289083 0.479869
vt 0.000143 0.339949
vt 0.000143 0.479869
vt 0.289083 0.339949
vt 0.698240 0.399915
vt 0.963774 0.519846
vt 0.698241 0.519846
vt 0.963774 0.399915
vt 0.963774 0.519846
vt 0.698240 0.399915
vt 0.698241 0.000142
vt 0.963774 0.140063
vt 0.698241 0.140063
vt 0.963774 0.000142
vt 0.963774 0.140063
vt 0.698241 0.000142
vt 0.698241 0.140063
vt 0.963774 0.259994
vt 0.698240 0.259994
vt 0.963774 0.140063
vt 0.963774 0.259994
vt 0.698241 0.140063
vt 0.578309 0.259994
vt 0.698240 0.399915
vt 0.578309 0.399915
vt 0.698240 0.259994
vt 0.698240 0.399915
vt 0.578309 0.259994
vt 0.289083 0.240006
vt 0.578024 0.339949
vt 0.289083 0.339949
vt 0.578023 0.240006
vt 0.578024 0.339949
vt 0.289083 0.240006
vt 0.289083 0.100085
vt 0.578023 0.240006
vt 0.289083 0.240006
vt 0.578023 0.100085
vt 0.578023 0.240006
vt 0.289083 0.100085
vt 0.289083 0.000142
vt 0.578023 0.100085
vt 0.289083 0.100085
vt 0.578024 0.000143
vt 0.578023 0.100085
vt 0.289083 0.000142
vt 0.289083 0.339949
vt 0.578024 0.479869
vt 0.289083 0.479869
vt 0.578024 0.339949
vt 0.578024 0.479869
vt 0.289083 0.339949

vn -0.000000 0.000000 -1.000000
vn -0.000000 0.000000 -1.000000
vn -0.000000 0.000000 -1.000000
vn -0.000000 0.000000 1.000000
vn -0.000000 0.000000 1.000000
vn -0.000000 0.000000 1.000000
vn 1.000000 0.000000 0.000000
vn 1.000000 0.000000 0.000000
vn 1.000000 0.000000 0.000000
vn 1.000000 0.000000 0.000000
vn 1.000000 0.000000 0.000000
vn 1.000000 0.000000 0.000000
vn -0.000000 0.000000 -1.000000
vn -0.000000 0.000000 -1.000000
vn -0.000000 0.000000 -1.000000
vn -0.000000 0.000000 -1.000000
vn -0.000000 0.000000 -1.000000
vn -0.000000 0.000000 -1.000000
vn -0.000000 0.000000 -1.000000
vn -0.000000 0.000000 -1.000000
vn -0.000000 0.000000 -1.000000
vn -0.000000 0.000000 -1.000000
vn -0.000000 0.000000 -1.000000
vn -0.000000 0.000000 -1.000000
vn -0.000000 1.000000 0.000000
vn -0.000000 1.000000 0.000000
vn -0.000000 1.000000 0.000000
vn -0.000000 1.000000 0.000000
vn -0.000000 1.000000 0.000000
vn -0.000000 1.000000 0.000000
vn -0.000000 1.000000 0.000000
vn -0.000000 1.000000 0.000000
vn -0.000000 1.000000 0.000000
vn -0.000000 1.000000 0.000000
vn -0.000000 1.000000 0.000000
vn -0.000000 1.000000 0.000000
vn -0.000000 0.000000 -1.000000
vn -0.000000 0.000000 -1.000000
vn -0.000000 0.000000 -1.000000
vn -0.000000 0.000000 -1.000000
vn -0.000000 0.000000 -1.000000
vn -0.000000 0.000000 -1.000000
vn -0.000000 0.000000 -1.000000
vn -0.000000 0.000000 -1.000000
vn -0.000000 0.000000 -1.000000
vn -0.000000 0.000000 -1.000000
vn -0.000000 0.000000 -1.000000
vn -0.000000 0.000000 -1.000000
vn -0.000000 1.000000 0.000000
vn -0.000000 1.000000 0.000000
vn -0.000000 1.000000 0.000000
vn -0.000000 1.000000 0.000000
vn -0.000000 1.000000 0.000000
vn -0.000000 1.000000 0.000000
vn -0.000000 0.000000 1.000000
vn -0.000000 0.000000 1.000000
vn -0.000000 0.000000 1.000000
vn -0.000000 0.000000 1.000000
vn -0.000000 0.000000 1.000000
vn -0.000000 0.000000 1.000000
vn 1.000000 0.000000 0.000000
vn 1.000000 0.000000 0.000000
vn 1.000000 0.000000 0.000000
vn 1.000000 0.000000 0.000000
vn 1.000000 0.000000 0.000000
vn 1.000000 0.000000 0.000000
vn -0.000000 -1.000000 0.000000
vn -0.000000 -1.000000 0.000000
vn -0.000000 -1.000000 0.000000
vn -0.000000 -1.000000 0.000000
vn -0.000000 -1.000000 0.000000
vn -0.000000 -1.000000 0.000000
vn -0.000000 0.000000 -1.000000
vn -0.000000 0.000000 -1.000000
vn -0.000000 0.000000 -1.000000
vn -0.000000 0.000000 -1.000000
vn -0.000000 0.000000 -1.000000
vn -0.000000 0.000000 -1.000000
vn 1.000000 0.000000 0.000000
vn 1.000000 0.000000 0.000000
vn 1.000000 0.000000 0.000000
vn 1.000000 0.000000 0.000000
vn 1.000000 0.000000 0.000000
vn 1.000000 0.000000 0.000000
vn -0.000000 0.000000 1.000000
vn -0.000000 0.000000 1.000000
vn -0.000000 0.000000 1.000000
vn -0.000000 0.000000 1.000000
vn -0.000000 0.000000 1.000000
vn -0.000000 0.000000 1.000000
vn -0.000000 1.000000 0.000000
vn -0.000000 1.000000 0.000000
vn -0.000000 1.000000 0.000000
vn -0.000000 1.000000 0.000000
vn -0.000000 1.000000 0.000000
vn -0.000000 1.000000 0.000000
vn -0.000000 0.000000 1.000000
vn -0.000000 0.000000 1.000000
vn -0.000000 0.000000 1.000000
vn -0.000000 0.000000 1.000000
vn -0.000000 0.000000 1.000000
vn -0.000000 0.000000 1.000000
vn -0.000000 0.000000 1.000000
vn -0.000000 0.000000 1.000000
vn -0.000000 0.000000 1.000000
vn -0.000000 0.000000 1.000000
vn -0.000000 0.000000 1.000000
vn -0.000000 0.000000 1.000000
vn -0.000000 0.000000 -1.000000
vn -0.000000 0.000000 -1.000000
vn -0.000000 0.000000 -1.000000
vn -0.000000 0.000000 -1.000000
vn -0.000000 0.000000 -1.000000
vn -0.000000 0.000000 -1.000000
vn -1.000000 0.000000 0.000000
vn -1.000000 0.000000 0.000000
vn -1.000000 0.000000 0.000000
vn -1.000000 0.000000 0.000000
vn -1.000000 0.000000 0.000000
vn -1.000000 0.000000 0.000000
vn -1.000000 0.000000 0.000000
vn -1.000000 0.000000 0.000000
vn -1.000000 0.000000 0.000000
vn -1.000000 0.000000 0.000000
vn -1.000000 0.000000 0.000000
vn -1.000000 0.000000 0.000000
vn -1.000000 0.000000 0.000000
vn -1.000000 0.000000 0.000000
vn -1.000000 0.000000 0.000000
vn -1.000000 0.000000 0.000000
vn -1.000000 0.000000 0.000000
vn -1.000000 0.000000 0.000000
vn -0.000000 0.000000 1.000000
vn -0.000000 0.000000 1.000000
vn -0.000000 0.000000 1.000000
vn 0.681144 0.732150 0.000000
vn 0.681144 0.732150 0.000000
vn 0.681144 0.732150 0.000000
vn 0.681144 0.732150 0.000000
vn 0.681144 0.732150 0.000000
vn 0.681144 0.732150 0.000000
vn -0.000000 0.000000 1.000000
vn -0.000000 0.000000 1.000000
vn -0.000000 0.000000 1.000000
vn -0.000000 0.000000 1.000000
vn -0.000000 0.000000 1.000000
vn -0.000000 0.000000 1.000000
vn -1.000000 0.000000 0.000000
vn -1.000000 0.000000 0.000000
vn -1.000000 0.000000 0.000000
vn -1.000000 0.000000 0.000000
vn -1.000000 0.000000 0.000000
vn -1.000000 0.000000 0.000000
vn -0.000000 0.000000 -1.000000
vn -0.000000 0.000000 -1.000000
vn -0.000000 0.000000 -1.000000
vn -0.000000 0.000000 -1.000000
vn -0.000000 0.000000 -1.000000
vn -0.000000 0.000000 -1.000000
vn -0.000000 -1.000000 0.000000
vn -0.000000 -1.000000 0.000000
vn -0.000000 -1.000000 0.000000
vn -0.000000 -1.000000 0.000000
vn -0.000000 -1.000000 0.000000
vn -0.000000 -1.000000 0.000000
vn -0.000000 0.000000 -1.000000
vn -0.000000 0.000000 -1.000000
vn -0.000000 0.000000 -1.000000
vn -0.000000 0.000000 -1.000000
vn -0.000000 0.000000 -1.000000
vn -0.000000 0.000000 -1.000000
vn -0.000000 0.000000 1.000000
vn -0.000000 0.000000 1.000000
vn -0.000000 0.000000 1.000000
vn -0.000000 0.000000 1.000000
vn -0.000000 0.000000 1.000000
vn -0.000000 0.000000 1.000000
vn -0.000000 0.000000 1.000000
vn -0.000000 0.000000 1.000000
vn -0.000000 0.000000 1.000000
vn -0.000000 0.000000 1.000000
vn -0.000000 0.000000 1.000000
vn -0.000000 0.000000 1.000000
vn -0.000000 1.000000 0.000000
vn -0.000000 1.000000 0.000000
vn -0.000000 1.000000 0.000000
vn -0.000000 1.000000 0.000000
vn -0.000000 1.000000 0.000000
vn -0.000000 1.000000 0.000000
vn 1.000000 0.000000 0.000000
vn 1.000000 0.000000 0.000000
vn 1.000000 0.000000 0.000000
vn 1.000000 0.000000 0.000000
vn 1.000000 0.000000 0.000000
vn 1.000000 0.000000 0.000000
vn -0.000000 0.000000 1.000000
vn -0.000000 0.000000 1.000000
vn -0.000000 0.000000 1.000000
vn -0.000000 0.000000 1.000000
vn -0.000000 0.000000 1.000000
vn -0.000000 0.000000 1.000000
vn 1.000000 0.000000 0.000000
vn 1.000000 0.000000 0.000000
vn 1.000000 0.000000 0.000000
vn 1.000000 0.000000 0.000000
vn 1.000000 0.000000 0.000000
vn 1.000000 0.000000 0.000000
vn 1.000000 0.000000 0.000000
vn 1.000000 0.000000 0.000000
vn 1.000000 0.000000 0.000000
vn 1.000000 0.000000 0.000000
vn 1.000000 0.000000 0.000000
vn 1.000000 0.000000 0.000000
vn -0.000000 0.000000 -1.000000
vn -0.000000 0.000000 -1.000000
vn -0.000000 0.000000 -1.000000
vn -0.000000 0.000000 -1.000000
vn -0.000000 0.000000 -1.000000
vn -0.000000 0.000000 -1.000000
vn -0.000000 0.000000 -1.000000
vn -0.000000 0.000000 -1.000000
vn -0.000000 0.000000 -1.000000
vn -0.000000 0.000000 -1.000000
vn -0.000000 0.000000 -1.000000
vn -0.000000 0.000000 -1.000000
vn -1.000000 0.000000 0.000000
vn -1.000000 0.000000 0.000000
vn -1.000000 0.000000 0.000000
vn -1.000000 0.000000 0.000000
vn -1.000000 0.000000 0.000000
vn -1.000000 0.000000 0.000000
vn -0.000000 1.000000 0.000000
vn -0.000000 1.000000 0.000000
vn -0.000000 1.000000 0.000000
vn -0.000000 1.000000 0.000000
vn -0.000000 1.000000 0.000000
vn -0.000000 1.000000 0.000000
vn -0.000000 0.000000 1.000000
vn -0.000000 0.000000 1.000000
vn -0.000000 0.000000 1.000000
vn -0.000000 0.000000 1.000000
vn -0.000000 0.000000 1.000000
vn -0.000000 0.000000 1.000000
vn -0.000000 0.000000 -1.000000
vn -0.000000 0.000000 -1.000000
vn -0.000000 0.000000 -1.000000
vn -0.000000 0.000000 -1.000000
vn -0.000000 0.000000 -1.000000
vn -0.000000 0.000000 -1.000000
vn -0.000000 0.000000 -1.000000
vn -0.000000 0.000000 -1.000000
vn -0.000000 0.000000 -1.000000
vn -0.000000 0.000000 -1.000000
vn -0.000000 0.000000 -1.000000
vn -0.000000 0.000000 -1.000000
vn -0.681144 -0.732150 0.000000
vn -0.681144 -0.732150 0.000000
vn -0.681144 -0.732150 0.000000
vn -0.681144 -0.732150 0.000000
vn -0.681144 -0.732150 0.000000
vn -0.681144 -0.732150 0.000000
vn -0.681144 -0.732150 0.000000
vn -0.681144 -0.732150 0.000000
vn -0.681144 -0.732150 0.000000
vn -0.681144 -0.732150 0.000000
vn -0.681144 -0.732150 0.000000
vn -0.681144 -0.732150 0.000000
vn -0.000000 0.000000 1.000000
vn -0.000000 0.000000 1.000000
vn -0.000000 0.000000 1.000000
vn -0.000000 0.000000 1.000000
vn -0.000000 0.000000 1.000000
vn -0.000000 0.000000 1.000000
vn 0.681144 0.732150 0.000000
vn 0.681144 0.732150 0.000000
vn 0.681144 0.732150 0.000000
vn 0.681144 0.732150 0.000000
vn 0.681144 0.732150 0.000000
vn 0.681144 0.732150 0.000000
vn -0.000000 0.000000 -1.000000
vn -0.000000 0.000000 -1.000000
vn -0.000000 0.000000 -1.000000
vn -0.000000 -1.000000 0.000000
vn -0.000000 -1.000000 0.000000
vn -0.000000 -1.000000 0.000000
vn -0.000000 -1.000000 0.000000
vn -0.000000 -1.000000 0.000000
vn -0.000000 -1.000000 0.000000
vn -0.000000 -1.000000 0.000000
vn -0.000000 -1.000000 0.000000
vn -0.000000 -1.000000 0.000000
vn -0.000000 -1.000000 0.000000
vn -0.000000 -1.000000 0.000000
vn -0.000000 -1.000000 0.000000
vn -0.000000 0.000000 1.000000
vn -0.000000 0.000000 1.000000
vn -0.000000 0.000000 1.000000
vn -0.000000 0.000000 1.000000
vn -0.000000 0.000000 1.000000
vn -0.000000 0.000000 1.000000
vn -0.000000 0.000000 1.000000
vn -0.000000 0.000000 1.000000
vn -0.000000 0.000000 1.000000
vn -0.000000 0.000000 1.000000
vn -0.000000 0.000000 1.000000
vn -0.000000 0.000000 1.000000
vn -0.000000 -1.000000 0.000000
vn -0.000000 -1.000000 0.000000
vn -0.000000 -1.000000 0.000000
vn -0.000000 -1.000000 0.000000
vn -0.000000 -1.000000 0.000000
vn -0.000000 -1.000000 0.000000
vn -0.000000 -1.000000 0.000000
vn -0.000000 -1.000000 0.000000
vn -0.000000 -1.000000 0.000000
vn -0.000000 -1.000000 0.000000
vn -0.000000 -1.000000 0.000000
vn -0.000000 -1.000000 0.000000
vn -1.000000 0.000000 0.000000
vn -1.000000 0.000000 0.000000
vn -1.000000 0.000000 0.000000
vn -1.000000 0.000000 0.000000
vn -1.000000 0.000000 0.000000
vn -1.000000 0.000000 0.000000
vn -0.000000 0.000000 1.000000
vn -0.000000 0.000000 1.000000
vn -0.000000 0.000000 1.000000
vn -0.000000 0.000000 1.000000
vn -0.000000 0.000000 1.000000
vn -0.000000 0.000000 1.000000
vn 0.000001 1.000000 0.000000
vn 0.000001 1.000000 0.000000
vn 0.000001 1.000000 0.000000
vn -0.000000 1.000000 0.000000
vn -0.000000 1.000000 0.000000
vn -0.000000 1.000000 0.000000
vn -0.000000 0.000000 -1.000000
vn -0.000000 0.000000 -1.000000
vn -0.000000 0.000000 -1.000000
vn -0.000000 0.000000 -1.000000
vn -0.000000 0.000000 -1.000000
vn -0.000000 0.000000 -1.000000
vn -0.000000 -1.000000 0.000000
vn -0.000000 -1.000000 0.000000
vn -0.000000 -1.000000 0.000000
vn -0.000001 -1.000000 0.000000
vn -0.000001 -1.000000 0.000000
vn -0.000001 -1.000000 0.000000
vn 1.000000 -0.000001 0.000000
vn 1.000000 -0.000001 0.000000
vn 1.000000 -0.000001 0.000000
vn 1.000000 0.000000 0.000000
vn 1.000000 0.000000 0.000000
vn 1.000000 0.000000 0.000000
vn 0.000000 0.000000 -1.000000
vn 0.000000 0.000000 -1.000000
vn 0.000000 0.000000 -1.000000
vn 0.000000 0.000000 -1.000000
vn 0.000000 0.000000 -1.000000
vn 0.000000 0.000000 -1.000000
vn -0.000001 1.000000 0.000000
vn -0.000001 1.000000 0.000000
vn -0.000001 1.000000 0.000000
vn -0.000000 1.000000 0.000000
vn -0.000000 1.000000 0.000000
vn -0.000000 1.000000 0.000000
vn -0.000000 0.000000 1.000000
vn -0.000000 0.000000 1.000000
vn -0.000000 0.000000 1.000000
vn -0.000000 0.000000 1.000000
vn -0.000000 0.000000 1.000000
vn -0.000000 0.000000 1.000000
vn -0.000000 -1.000000 0.000000
vn -0.000000 -1.000000 0.000000
vn -0.000000 -1.000000 0.000000
vn 0.000001 -1.000000 0.000000
vn 0.000001 -1.000000 0.000000
vn 0.000001 -1.000000 0.000000
vn -1.000000 -0.000001 0.000000
vn -1.000000 -0.000001 0.000000
vn -1.000000 -0.000001 0.000000
vn -1.000000 0.000000 0.000000
vn -1.000000 0.000000 0.000000
vn -1.000000 0.000000 0.000000
vn -0.000000 -0.000000 1.000000
vn -0.000000 -0.000000 1.000000
vn -0.000000 -0.000000 1.000000
vn -0.000000 0.000000 1.000000
vn -0.000000 0.000000 1.000000
vn -0.000000 0.000000 1.000000
vn -0.000000 -0.000000 1.000000
vn -0.000000 -0.000000 1.000000
vn -0.000000 -0.000000 1.000000
vn -0.000000 0.000000 -1.000000
vn -0.000000 0.000000 -1.000000
vn -0.000000 0.000000 -1.000000
vn -0.000000 -0.000000 -1.000000
vn -0.000000 -0.000000 -1.000000
vn -0.000000 -0.000000 -1.000000
vn -0.000000 0.000000 -1.000000
vn -0.000000 0.000000 -1.000000
vn -0.000000 0.000000 -1.000000
vn -0.000000 0.000000 1.000000
vn -0.000000 0.000000 1.000000
vn -0.000000 0.000000 1.000000
vn -0.000000 0.000000 1.000000
vn -0.000000 0.000000 1.000000
vn -0.000000 0.000000 1.000000
vn 0.000000 0.000000 -1.000000
vn 0.000000 0.000000 -1.000000
vn 0.000000 0.000000 -1.000000
vn 0.000000 0.000000 -1.000000
vn 0.000000 0.000000 -1.000000
vn 0.000000 0.000000 -1.000000
vn -0.000000 -1.000000 0.000000
vn -0.000000 -1.000000 0.000000
vn -0.000000 -1.000000 0.000000
vn -0.000000 -1.000000 0.000000
vn -0.000000 -1.000000 0.000000
vn -0.000000 -1.000000 0.000000
vn -0.000000 1.000000 0.000000
vn -0.000000 1.000000 0.000000
vn -0.000000 1.000000 0.000000
vn -0.000000 1.000000 0.000000
vn -0.000000 1.000000 0.000000
vn -0.000000 1.000000 0.000000
vn -0.000000 -1.000000 0.000000
vn -0.000000 -1.000000 0.000000
vn -0.000000 -1.000000 0.000000
vn -0.000000 -1.000000 0.000000
vn -0.000000 -1.000000 0.000000
vn -0.000000 -1.000000 0.000000
vn 1.000000 0.000000 -0.000001
vn 1.000000 0.000000 -0.000001
vn 1.000000 0.000000 -0.000001
vn 1.000000 0.000000 0.000000
vn 1.000000 0.000000 0.000000
vn 1.000000 0.000000 0.000000
vn -0.000000 1.000000 0.000000
vn -0.000000 1.000000 0.000000
vn -0.000000 1.000000 0.000000
vn -0.000000 1.000000 0.000000
vn -0.000000 1.000000 0.000000
vn -0.000000 1.000000 0.000000
vn -1.000000 0.000000 0.000000
vn -1.000000 0.000000 0.000000
vn -1.000000 0.000000 0.000000
vn -1.000000 0.000000 -0.000001
vn -1.000000 0.000000 -0.000001
vn -1.000000 0.000000 -0.000001
vn -0.000000 1.000000 0.000000
vn -0.000000 1.000000 0.000000
vn -0.000000 1.000000 0.000000
vn -0.000000 1.000000 0.000000
vn -0.000000 1.000000 0.000000
vn -0.000000 1.000000 0.000000
vn -0.000000 0.000002 -1.000000
vn -0.000000 0.000002 -1.000000
vn -0.000000 0.000002 -1.000000
vn -0.000000 0.000003 -1.000000
vn -0.000000 0.000003 -1.000000
vn -0.000000 0.000003 -1.000000
vn -1.000000 0.000000 0.000000
vn -1.000000 0.000000 0.000000
vn -1.000000 0.000000 0.000000
vn -1.000000 0.000000 0.000000
vn -1.000000 0.000000 0.000000
vn -1.000000 0.000000 0.000000
vn -0.000000 0.000000 1.000000
vn -0.000000 0.000000 1.000000
vn -0.000000 0.000000 1.000000
vn -0.000000 0.000000 1.000000
vn -0.000000 0.000000 1.000000
vn -0.000000 0.000000 1.000000
vn 1.000000 0.000000 0.000000
vn 1.000000 0.000000 0.000000
vn 1.000000 0.000000 0.000000
vn 1.000000 0.000000 0.000000
vn 1.000000 0.000000 0.000000
vn 1.000000 0.000000 0.000000
vn -0.000000 0.000000 -1.000000
vn -0.000000 0.000000 -1.000000
vn -0.000000 0.000000 -1.000000
vn -0.000000 0.000000 -1.000000
vn -0.000000 0.000000 -1.000000
vn -0.000000 0.000000 -1.000000
vn -1.000000 0.000000 0.000000
vn -1.000000 0.000000 0.000000
vn -1.000000 0.000000 0.000000
vn -1.000000 0.000000 0.000000
vn -1.000000 0.000000 0.000000
vn -1.000000 0.000000 0.000000
vn -0.000000 -1.000000 0.000000
vn -0.000000 -1.000000 0.000000
vn -0.000000 -1.000000 0.000000
vn -0.000000 -1.000000 0.000000
vn -0.000000 -1.000000 0.000000
vn -0.000000 -1.000000 0.000000
vn 1.000000 0.000000 0.000000
vn 1.000000 0.000000 0.000000
vn 1.000000 0.000000 0.000000
vn 1.000000 0.000000 0.000000
vn 1.000000 0.000000 0.000000
vn 1.000000 0.000000 0.000000
vn -0.000000 -0.000004 1.000000
vn -0.000000 -0.000004 1.000000
vn -0.000000 -0.000004 1.000000
vn -0.000000 -0.000004 1.000000
vn -0.000000 -0.000004 1.000000
vn -0.000000 -0.000004 1.000000
vn 1.000000 0.000000 0.000000
vn 1.000000 0.000000 0.000000
vn 1.000000 0.000000 0.000000
vn 1.000000 0.000000 0.000004
vn 1.000000 0.000000 0.000004
vn 1.000000 0.000000 0.000004
vn -0.000000 0.000000 -1.000000
vn -0.000000 0.000000 -1.000000
vn -0.000000 0.000000 -1.000000
vn -0.000000 0.000000 -1.000000
vn -0.000000 0.000000 -1.000000
vn -0.000000 0.000000 -1.000000
vn -1.000000 0.000000 0.000000
vn -1.000000 0.000000 0.000000
vn -1.000000 0.000000 0.000000
vn -1.000000 0.000000 0.000000
vn -1.000000 0.000000 0.000000
vn -1.000000 0.000000 0.000000
vn -0.000000 0.000001 1.000000
vn -0.000000 0.000001 1.000000
vn -0.000000 0.000001 1.000000
vn -0.000000 0.000001 1.000000
vn -0.000000 0.000001 1.000000
vn -0.000000 0.000001 1.000000

g Material.002
f 3/1/1 1/2/2 2/3/3
f 6/4/4 4/5/5 5/6/6

g Material.001
f 9/7/7 7/8/8 8/9/9
f 10/10/10 7/11/11 9/12/12
f 13/13/13 11/14/14 12/15/15
f 14/16/16 11/17/17 13/18/18
f 17/19/19 15/20/20 16/21/21
f 18/22/22 15/23/23 17/24/24
f 21/25/25 19/26/26 20/27/27
f 22/28/28 19/29/29 21/30/30
f 25/31/31 23/32/32 24/33/33
f 26/34/34 23/35/35 25/36/36
f 45/37/37 43/38/38 44/39/39
f 46/40/40 43/41/41 45/42/42
f 49/43/43 47/44/44 48/45/45
f 50/46/46 47/47/47 49/48/48
f 53/49/49 51/50/50 52/51/51
f 54/52/52 51/53/53 53/54/54
f 57/55/55 55/56/56 56/57/57
f 58/58/58 55/59/59 57/60/60
f 61/61/61 59/62/62 60/63/63
f 62/64/64 59/65/65 61/66/66
f 65/67/67 63/68/68 64/69/69
f 66/70/70 63/71/71 65/72/72
f 69/73/73 67/74/74 68/75/75
f 70/76/76 67/77/77 69/78/78
f 73/79/79 71/80/80 72/81/81
f 74/82/82 71/83/83 73/84/84
f 77/85/85 75/86/86 76/87/87
f 78/88/88 75/89/89 77/90/90
f 81/91/91 79/92/92 80/93/93
f 82/94/94 79/95/95 81/96/96
f 85/97/97 83/98/98 84/99/99
f 86/100/100 83/101/101 85/102/102
f 89/103/103 87/104/104 88/105/105
f 90/106/106 87/107/107 89/108/108
f 93/109/109 91/110/110 92/111/111
f 94/112/112 91/113/113 93/114/114
f 97/115/115 95/116/116 96/117/117
f 98/118/118 95/119/119 97/120/120
f 101/121/121 99/122/122 100/123/123
f 102/124/124 99/125/125 101/126/126
f 105/127/127 103/128/128 104/129/129
f 106/130/130 103/131/131 105/132/132
f 109/133/133 107/134/134 108/135/135
f 112/136/136 110/137/137 111/138/138
f 113/139/139 110/140/140 112/141/141
f 116/142/142 114/143/143 115/144/144
f 117/145/145 114/146/146 116/147/147
f 120/148/148 118/149/149 119/150/150
f 121/151/151 118/152/152 120/153/153
f 124/154/154 122/155/155 123/156/156
f 125/157/157 122/158/158 124/159/159
f 128/160/160 126/161/161 127/162/162
f 129/163/163 126/164/164 128/165/165
f 132/166/166 130/167/167 131/168/168
f 133/169/169 130/170/170 132/171/171
f 136/172/172 134/173/173 135/174/174
f 137/175/175 134/176/176 136/177/177
f 140/178/178 138/179/179 139/180/180
f 141/181/181 138/182/182 140/183/183
f 144/184/184 142/185/185 143/186/186
f 145/187/187 142/188/188 144/189/189
f 148/190/190 146/191/191 147/192/192
f 149/193/193 146/194/194 148/195/195
f 152/196/196 150/197/197 151/198/198
f 153/199/199 150/200/200 152/201/201
f 156/202/202 154/203/203 155/204/204
f 157/205/205 154/206/206 156/207/207
f 160/208/208 158/209/209 159/210/210
f 161/211/211 158/212/212 160/213/213
f 164/214/214 162/215/215 163/216/216
f 165/217/217 162/218/218 164/219/219
f 168/220/220 166/221/221 167/222/222
f 169/223/223 166/224/224 168/225/225
f 172/226/226 170/227/227 171/228/228
f 173/229/229 170/230/230 172/231/231
f 176/232/232 174/233/233 175/234/234
f 177/235/235 174/236/236 176/237/237
f 180/238/238 178/239/239 179/240/240
f 181/241/241 178/242/242 180/243/243
f 184/244/244 182/245/245 183/246/246
f 185/247/247 182/248/248 184/249/249
f 188/250/250 186/251/251 187/252/252
f 189/253/253 186/254/254 188/255/255
f 192/256/256 190/257/257 191/258/258
f 193/259/259 190/260/260 192/261/261
f 196/262/262 194/263/263 195/264/264
f 197/265/265 194/266/266 196/267/267
f 200/268/268 198/269/269 199/270/270
f 201/271/271 198/272/272 200/273/273
f 204/274/274 202/275/275 203/276/276
f 205/277/277 202/278/278 204/279/279
f 208/280/280 206/281/281 207/282/282
f 211/283/283 209/284/284 210/285/285
f 212/286/286 209/287/287 211/288/288
f 215/289/289 213/290/290 214/291/291
f 216/292/292 213/293/293 215/294/294
f 219/295/295 217/296/296 218/297/297
f 220/298/298 217/299/299 219/300/300
f 223/301/301 221/302/302 222/303/303
f 224/304/304 221/305/305 223/306/306
f 227/307/307 225/308/308 226/309/309
f 228/310/310 225/311/311 227/312/312
f 231/313/313 229/314/314 230/315/315
f 232/316/316 229/317/317 231/318/318
f 235/319/319 233/320/320 234/321/321
f 236/322/322 233/323/323 235/324/324
f 239/325/325 237/326/326 238/327/327
f 240/328/328 237/329/329 239/330/330
f 243/331/331 241/332/332 242/333/333
f 244/334/334 241/335/335 243/336/336
f 247/337/337 245/338/338 246/339/339
f 248/340/340 245/341/341 247/342/342
f 251/343/343 249/344/344 250/345/345
f 252/346/346 249/347/347 251/348/348
f 255/349/349 253/350/350 254/351/351
f 256/352/352 253/353/353 255/354/354
f 259/355/355 257/356/356 258/357/357
f 260/358/358 257/359/359 259/360/360
f 263/361/361 261/362/362 262/363/363
f 264/364/364 261/365/365 263/366/366
f 267/367/367 265/368/368 266/369/369
f 268/370/370 265/371/371 267/372/372
f 271/373/373 269/374/374 270/375/375
f 272/376/376 269/377/377 271/378/378
f 275/379/379 273/380/380 274/381/381
f 276/382/382 273/383/383 275/384/384
f 351/385/385 349/386/386 350/387/387
f 354/388/388 352/389/389 353/390/390
f 357/391/391 355/392/392 356/393/393
f 360/394/394 358/395/395 359/396/396
f 363/397/397 361/398/398 362/399/399
f 366/400/400 364/401/401 365/402/402

g Material.003
f 29/403/403 27/404/404 28/405/405
f 30/406/406 27/407/407 29/408/408
f 33/409/409 31/410/410 32/411/411
f 34/412/412 31/413/413 33/414/414
f 37/415/415 35/416/416 36/417/417
f 38/418/418 35/419/419 37/420/420
f 41/421/421 39/422/422 40/423/423
f 42/424/424 39/425/425 41/426/426

g Material
f 279/427/427 277/428/428 278/429/429
f 280/430/430 277/431/431 279/432/432
f 283/433/433 281/434/434 282/435/435
f 284/436/436 281/437/437 283/438/438
f 287/439/439 285/440/440 286/441/441
f 288/442/442 285/443/443 287/444/444
f 291/445/445 289/446/446 290/447/447
f 292/448/448 289/449/449 291/450/450
f 295/451/451 293/452/452 294/453/453
f 296/454/454 293/455/455 295/456/456
f 299/457/457 297/458/458 298/459/459
f 300/460/460 297/461/461 299/462/462
f 303/463/463 301/464/464 302/465/465
f 304/466/466 301/467/467 303/468/468
f 307/469/469 305/470/470 306/471/471
f 308/472/472 305/473/473 307/474/474
f 311/475/475 309/476/476 310/477/477
f 312/478/478 309/479/479 311/480/480
f 315/481/481 313/482/482 314/483/483
f 316/484/484 313/485/485 315/486/486
f 319/487/487 317/488/488 318/489/489
f 320/490/490 317/491/491 319/492/492
f 323/493/493 321/494/494 322/495/495
f 324/496/496 321/497/497 323/498/498
f 327/499/499 325/500/500 326/501/501
f 328/502/502 325/503/503 327/504/504
f 331/505/505 329/506/506 330/507/507
f 332/508/508 329/509/509 331/510/510
f 335/511/511 333/512/512 334/513/513
f 336/514/514 333/515/515 335/516/516
f 339/517/517 337/518/518 338/519/519
f 340/520/520 337/521/521 339/522/522
f 343/523/523 341/524/524 342/525/525
f 344/526/526 341/527/527 343/528/528
f 347/529/529 345/530/530 346/531/531
f 348/532/532 345/533/533 347/534/534

