# Converted from B3D for Luanti (With Correct Normals)
# Object Name: multidecor_modern_sofa

v 1.000000 -0.800000 1.000000
v 1.000000 -0.700000 1.000000
v -1.000000 -0.700000 1.000000
v -1.000000 -0.800000 1.000000
v -1.000000 -0.800000 1.000000
v -1.000000 -0.700000 1.000000
v -1.000000 -0.700000 -0.599999
v -1.000000 -0.800000 -0.599999
v -1.000000 -0.800000 -0.599999
v 1.000000 -0.800000 -0.600000
v 1.000000 -0.800000 1.000000
v -1.000000 -0.800000 1.000000
v 1.000000 -0.800000 -0.600000
v 1.000000 -0.700000 -0.600000
v 1.000000 -0.700000 1.000000
v 1.000000 -0.800000 1.000000
v -1.000000 -0.800000 -0.599999
v -1.000000 -0.700000 -0.599999
v 1.000000 -0.700000 -0.600000
v 1.000000 -0.800000 -0.600000
v 0.800000 -0.400000 -0.600000
v -0.800000 -0.400000 -0.599999
v -0.800000 -0.400000 0.900000
v 0.800000 -0.400000 0.900000
v 0.800000 -0.700000 -0.600000
v -0.800000 -0.700000 -0.599999
v -0.800000 -0.400000 -0.599999
v 0.800000 -0.400000 -0.600000
v -0.800000 -0.700000 0.900000
v 0.800000 -0.700000 0.900000
v 0.800000 -0.400000 0.900000
v -0.800000 -0.400000 0.900000
v 0.800000 0.800000 1.000000
v 0.800000 -0.700000 1.000000
v 1.000000 -0.700000 1.000000
v 1.000000 0.800000 1.000000
v 0.800000 0.800000 0.726829
v 0.800000 0.800000 1.000000
v 1.000000 0.800000 1.000000
v 1.000000 0.800000 0.726829
v 1.000000 -0.700000 -0.600000
v 0.800000 -0.700000 -0.600000
v 0.800000 0.300000 -0.600000
v 1.000000 0.300000 -0.600000
v 0.800000 0.300000 -0.600000
v 0.800000 0.302551 0.238415
v 1.000000 0.302551 0.238415
v 1.000000 0.300000 -0.600000
v 0.800000 0.302551 0.238415
v 0.800000 0.453335 0.474198
v 1.000000 0.453335 0.474198
v 1.000000 0.302551 0.238415
v 0.800000 0.453335 0.474198
v 0.800000 0.710306 0.600000
v 1.000000 0.710306 0.600000
v 1.000000 0.453335 0.474198
v 1.000000 -0.700000 0.726829
v 1.000000 -0.700000 0.600000
v 1.000000 0.710306 0.600000
v 1.000000 0.800000 0.726829
v 1.000000 -0.700000 0.600000
v 1.000000 -0.700000 0.474198
v 1.000000 0.453335 0.474198
v 1.000000 0.710306 0.600000
v 1.000000 -0.700000 0.474198
v 1.000000 -0.700000 0.238415
v 1.000000 0.302551 0.238415
v 1.000000 0.453335 0.474198
v 1.000000 -0.700000 0.238415
v 1.000000 -0.700000 -0.600000
v 1.000000 0.300000 -0.600000
v 1.000000 0.302551 0.238415
v 0.800000 -0.700000 0.726829
v 0.800000 0.800000 0.726829
v 0.800000 0.710306 0.600000
v 0.800000 -0.700000 0.600000
v 0.800000 -0.700000 0.600000
v 0.800000 0.710306 0.600000
v 0.800000 0.453335 0.474198
v 0.800000 -0.700000 0.474198
v 0.800000 -0.700000 0.474198
v 0.800000 0.453335 0.474198
v 0.800000 0.302551 0.238415
v 0.800000 -0.700000 0.238415
v 0.800000 -0.700000 0.238415
v 0.800000 0.302551 0.238415
v 0.800000 0.300000 -0.600000
v 0.800000 -0.700000 -0.600000
v 0.800000 -0.700000 1.000000
v 0.800000 0.800000 1.000000
v 0.800000 0.800000 0.726829
v 0.800000 -0.700000 0.726829
v 1.000000 -0.700000 1.000000
v 1.000000 -0.700000 0.726829
v 1.000000 0.800000 0.726829
v 1.000000 0.800000 1.000000
v 0.800000 0.710306 0.600000
v 0.800000 0.800000 0.726829
v 1.000000 0.800000 0.726829
v 1.000000 0.710306 0.600000
v -0.800000 0.800000 1.000000
v -1.000000 0.800000 1.000000
v -1.000000 -0.700000 1.000000
v -0.800000 -0.700000 1.000000
v -0.800000 0.800000 0.726829
v -1.000000 0.800000 0.726829
v -1.000000 0.800000 1.000000
v -0.800000 0.800000 1.000000
v -1.000000 -0.700000 -0.600000
v -1.000000 0.300000 -0.600000
v -0.800000 0.300000 -0.600000
v -0.800000 -0.700000 -0.600000
v -0.800000 0.300000 -0.600000
v -1.000000 0.300000 -0.600000
v -1.000000 0.302551 0.238416
v -0.800000 0.302551 0.238416
v -0.800000 0.302551 0.238416
v -1.000000 0.302551 0.238416
v -1.000000 0.453335 0.474199
v -0.800000 0.453335 0.474199
v -0.800000 0.453335 0.474199
v -1.000000 0.453335 0.474199
v -1.000000 0.710306 0.600000
v -0.800000 0.710306 0.600000
v -1.000000 -0.700000 0.726829
v -1.000000 0.800000 0.726829
v -1.000000 0.710306 0.600000
v -1.000000 -0.700000 0.600000
v -1.000000 -0.700000 0.600000
v -1.000000 0.710306 0.600000
v -1.000000 0.453335 0.474199
v -1.000000 -0.700000 0.474199
v -1.000000 -0.700000 0.474199
v -1.000000 0.453335 0.474199
v -1.000000 0.302551 0.238416
v -1.000000 -0.700000 0.238416
v -1.000000 -0.700000 0.238416
v -1.000000 0.302551 0.238416
v -1.000000 0.300000 -0.600000
v -1.000000 -0.700000 -0.600000
v -0.800000 -0.700000 0.726829
v -0.800000 -0.700000 0.600000
v -0.800000 0.710306 0.600000
v -0.800000 0.800000 0.726829
v -0.800000 -0.700000 0.600000
v -0.800000 -0.700000 0.474199
v -0.800000 0.453335 0.474199
v -0.800000 0.710306 0.600000
v -0.800000 -0.700000 0.474199
v -0.800000 -0.700000 0.238416
v -0.800000 0.302551 0.238416
v -0.800000 0.453335 0.474199
v -0.800000 -0.700000 0.238416
v -0.800000 -0.700000 -0.600000
v -0.800000 0.300000 -0.600000
v -0.800000 0.302551 0.238416
v -0.800000 -0.700000 1.000000
v -0.800000 -0.700000 0.726829
v -0.800000 0.800000 0.726829
v -0.800000 0.800000 1.000000
v -1.000000 -0.700000 1.000000
v -1.000000 0.800000 1.000000
v -1.000000 0.800000 0.726829
v -1.000000 -0.700000 0.726829
v -0.800000 0.710306 0.600000
v -1.000000 0.710306 0.600000
v -1.000000 0.800000 0.726829
v -0.800000 0.800000 0.726829
v -0.800000 -0.700000 0.900000
v -0.800000 0.800000 0.900000
v 0.800000 0.800000 0.900000
v 0.800000 -0.700000 0.900000
v 0.800000 -0.700000 1.000000
v 0.800000 0.800000 1.000000
v -0.800000 0.800000 1.000000
v -0.800000 -0.700000 1.000000
v 0.885435 -1.000000 -0.485434
v 0.835435 -0.800000 -0.435434
v 0.835435 -0.800000 -0.599999
v 0.885435 -1.000000 -0.599999
v 0.800000 0.800000 0.900000
v -0.800000 0.800000 0.900000
v -0.800000 0.800000 1.000000
v 0.800000 0.800000 1.000000
v 0.885435 -1.000000 -0.599999
v 0.835435 -0.800000 -0.599999
v 1.000000 -0.800000 -0.599999
v 1.000000 -1.000000 -0.599999
v 1.000000 -1.000000 -0.599999
v 1.000000 -0.800000 -0.599999
v 1.000000 -0.800000 -0.435434
v 1.000000 -1.000000 -0.485434
v 1.000000 -1.000000 -0.485434
v 1.000000 -0.800000 -0.435434
v 0.835435 -0.800000 -0.435434
v 0.885435 -1.000000 -0.485434
v 0.885435 -1.000000 -0.599999
v 1.000000 -1.000000 -0.599999
v 1.000000 -1.000000 -0.485434
v 0.885435 -1.000000 -0.485434
v -0.885435 -1.000000 -0.485435
v -0.835435 -0.800000 -0.435435
v -1.000000 -0.800000 -0.435434
v -1.000000 -1.000000 -0.485435
v -1.000000 -1.000000 -0.485435
v -1.000000 -0.800000 -0.435434
v -1.000000 -0.800000 -0.599999
v -1.000000 -1.000000 -0.599999
v -1.000000 -1.000000 -0.599999
v -1.000000 -0.800000 -0.599999
v -0.835435 -0.800000 -0.599999
v -0.885435 -1.000000 -0.599999
v -0.885435 -1.000000 -0.599999
v -0.835435 -0.800000 -0.599999
v -0.835435 -0.800000 -0.435435
v -0.885435 -1.000000 -0.485435
v -1.000000 -1.000000 -0.485435
v -1.000000 -1.000000 -0.599999
v -0.885435 -1.000000 -0.599999
v -0.885435 -1.000000 -0.485435
v -0.885435 -1.000000 0.885435
v -0.835435 -0.800000 0.835435
v -0.835435 -0.800000 1.000000
v -0.885435 -1.000000 1.000000
v -0.885435 -1.000000 1.000000
v -0.835435 -0.800000 1.000000
v -1.000000 -0.800000 1.000000
v -1.000000 -1.000000 1.000000
v -1.000000 -1.000000 1.000000
v -1.000000 -0.800000 1.000000
v -1.000000 -0.800000 0.835435
v -1.000000 -1.000000 0.885435
v -1.000000 -1.000000 0.885435
v -1.000000 -0.800000 0.835435
v -0.835435 -0.800000 0.835435
v -0.885435 -1.000000 0.885435
v -0.885435 -1.000000 1.000000
v -1.000000 -1.000000 1.000000
v -1.000000 -1.000000 0.885435
v -0.885435 -1.000000 0.885435
v 0.885435 -1.000000 0.885435
v 0.835435 -0.800000 0.835435
v 1.000000 -0.800000 0.835435
v 1.000000 -1.000000 0.885435
v 1.000000 -1.000000 0.885435
v 1.000000 -0.800000 0.835435
v 1.000000 -0.800000 1.000000
v 1.000000 -1.000000 1.000000
v 1.000000 -1.000000 1.000000
v 1.000000 -0.800000 1.000000
v 0.835435 -0.800000 1.000000
v 0.885435 -1.000000 1.000000
v 0.885435 -1.000000 1.000000
v 0.835435 -0.800000 1.000000
v 0.835435 -0.800000 0.835435
v 0.885435 -1.000000 0.885435
v 1.000000 -1.000000 0.885435
v 1.000000 -1.000000 1.000000
v 0.885435 -1.000000 1.000000
v 0.885435 -1.000000 0.885435
v -0.266667 -0.400000 0.400000
v -0.266666 -0.383333 0.837500
v -0.711111 -0.377778 0.816667
v -0.733333 -0.383333 0.400000
v -0.556423 0.080170 0.671647
v -0.711111 -0.022222 0.816667
v -0.266666 -0.016667 0.837500
v -0.800000 -0.133333 0.400000
v -0.733333 -0.133333 0.837500
v -0.711111 -0.022222 0.816667
v -0.733333 -0.016667 0.400000
v 0.266667 -0.133333 0.900000
v 0.733334 -0.133333 0.837500
v 0.711111 -0.022222 0.816667
v 0.266667 -0.016667 0.837500
v -0.266667 -0.133333 -0.600000
v -0.733334 -0.133333 -0.537499
v -0.711111 -0.022222 -0.516666
v -0.266667 -0.016667 -0.537500
v 0.800000 -0.133333 -0.100000
v 0.733333 -0.133333 -0.537500
v 0.711111 -0.022222 -0.516667
v 0.733333 -0.016667 -0.100000
v 0.733334 -0.133333 0.837500
v 0.800000 -0.133333 0.400000
v 0.733333 -0.016667 0.400000
v 0.711111 -0.022222 0.816667
v 0.800000 -0.133333 0.400000
v 0.800000 -0.133333 -0.100000
v 0.733333 -0.016667 -0.100000
v 0.733333 -0.016667 0.400000
v 0.711111 -0.377778 0.816667
v 0.733333 -0.383333 0.400000
v 0.800000 -0.266667 0.400000
v 0.733334 -0.266667 0.837500
v 0.733334 -0.266667 0.837500
v 0.800000 -0.266667 0.400000
v 0.800000 -0.133333 0.400000
v 0.733334 -0.133333 0.837500
v 0.733333 -0.383333 0.400000
v 0.733333 -0.383333 -0.100000
v 0.800000 -0.266667 -0.100000
v 0.800000 -0.266667 0.400000
v 0.800000 -0.266667 0.400000
v 0.800000 -0.266667 -0.100000
v 0.800000 -0.133333 -0.100000
v 0.800000 -0.133333 0.400000
v 0.733333 -0.383333 -0.100000
v 0.711111 -0.377778 -0.516667
v 0.733333 -0.266667 -0.537500
v 0.800000 -0.266667 -0.100000
v 0.800000 -0.266667 -0.100000
v 0.733333 -0.266667 -0.537500
v 0.733333 -0.133333 -0.537500
v 0.800000 -0.133333 -0.100000
v 0.733333 -0.133333 -0.537500
v 0.266666 -0.133333 -0.600000
v 0.266666 -0.016667 -0.537500
v 0.711111 -0.022222 -0.516667
v 0.266666 -0.133333 -0.600000
v -0.266667 -0.133333 -0.600000
v -0.266667 -0.016667 -0.537500
v 0.266666 -0.016667 -0.537500
v 0.711111 -0.377778 -0.516667
v 0.266666 -0.383333 -0.537500
v 0.266666 -0.266667 -0.600000
v 0.733333 -0.266667 -0.537500
v 0.733333 -0.266667 -0.537500
v 0.266666 -0.266667 -0.600000
v 0.266666 -0.133333 -0.600000
v 0.733333 -0.133333 -0.537500
v 0.266666 -0.383333 -0.537500
v -0.266667 -0.383333 -0.537500
v -0.266667 -0.266667 -0.600000
v 0.266666 -0.266667 -0.600000
v 0.266666 -0.266667 -0.600000
v -0.266667 -0.266667 -0.600000
v -0.266667 -0.133333 -0.600000
v 0.266666 -0.133333 -0.600000
v -0.266667 -0.383333 -0.537500
v -0.711111 -0.377778 -0.516666
v -0.733334 -0.266667 -0.537499
v -0.266667 -0.266667 -0.600000
v -0.266667 -0.266667 -0.600000
v -0.733334 -0.266667 -0.537499
v -0.733334 -0.133333 -0.537499
v -0.266667 -0.133333 -0.600000
v -0.733333 -0.133333 0.837500
v -0.266666 -0.133333 0.900000
v -0.266666 -0.016667 0.837500
v -0.711111 -0.022222 0.816667
v -0.266666 -0.133333 0.900000
v 0.266667 -0.133333 0.900000
v 0.266667 -0.016667 0.837500
v -0.266666 -0.016667 0.837500
v -0.711111 -0.377778 0.816667
v -0.266666 -0.383333 0.837500
v -0.266666 -0.266667 0.900000
v -0.733333 -0.266667 0.837500
v -0.733333 -0.266667 0.837500
v -0.266666 -0.266667 0.900000
v -0.266666 -0.133333 0.900000
v -0.733333 -0.133333 0.837500
v -0.266666 -0.383333 0.837500
v 0.266667 -0.383333 0.837500
v 0.266667 -0.266667 0.900000
v -0.266666 -0.266667 0.900000
v -0.266666 -0.266667 0.900000
v 0.266667 -0.266667 0.900000
v 0.266667 -0.133333 0.900000
v -0.266666 -0.133333 0.900000
v 0.266667 -0.383333 0.837500
v 0.711111 -0.377778 0.816667
v 0.733334 -0.266667 0.837500
v 0.266667 -0.266667 0.900000
v 0.266667 -0.266667 0.900000
v 0.733334 -0.266667 0.837500
v 0.733334 -0.133333 0.837500
v 0.266667 -0.133333 0.900000
v -0.733334 -0.133333 -0.537499
v -0.800000 -0.133333 -0.099999
v -0.733333 -0.016667 -0.100000
v -0.711111 -0.022222 -0.516666
v -0.800000 -0.133333 -0.099999
v -0.800000 -0.133333 0.400000
v -0.733333 -0.016667 0.400000
v -0.733333 -0.016667 -0.100000
v -0.711111 -0.377778 -0.516666
v -0.733333 -0.383333 -0.100000
v -0.800000 -0.266667 -0.099999
v -0.733334 -0.266667 -0.537499
v -0.733334 -0.266667 -0.537499
v -0.800000 -0.266667 -0.099999
v -0.800000 -0.133333 -0.099999
v -0.733334 -0.133333 -0.537499
v -0.733333 -0.383333 -0.100000
v -0.733333 -0.383333 0.400000
v -0.800000 -0.266667 0.400000
v -0.800000 -0.266667 -0.099999
v -0.800000 -0.266667 -0.099999
v -0.800000 -0.266667 0.400000
v -0.800000 -0.133333 0.400000
v -0.800000 -0.133333 -0.099999
v -0.733333 -0.383333 0.400000
v -0.711111 -0.377778 0.816667
v -0.733333 -0.266667 0.837500
v -0.800000 -0.266667 0.400000
v -0.800000 -0.266667 0.400000
v -0.733333 -0.266667 0.837500
v -0.733333 -0.133333 0.837500
v -0.800000 -0.133333 0.400000
v 0.556424 0.080170 0.671647
v 0.711111 -0.022222 0.816667
v 0.733333 -0.016667 0.400000
v 0.556424 0.080170 0.671647
v -0.556423 0.080170 0.671647
v -0.266666 -0.016667 0.837500
v 0.266667 -0.016667 0.837500
v 0.711111 -0.022222 -0.516667
v 0.556423 0.080170 -0.371647
v 0.733333 -0.016667 -0.100000
v 0.733333 -0.016667 -0.100000
v 0.556423 0.080170 -0.371647
v 0.556424 0.080170 0.671647
v 0.733333 -0.016667 0.400000
v 0.266666 -0.016667 -0.537500
v -0.266667 -0.016667 -0.537500
v -0.556424 0.080170 -0.371647
v 0.556423 0.080170 -0.371647
v 0.556423 0.080170 -0.371647
v -0.556424 0.080170 -0.371647
v -0.556423 0.080170 0.671647
v 0.556424 0.080170 0.671647
v -0.711111 -0.022222 -0.516666
v -0.556424 0.080170 -0.371647
v -0.266667 -0.016667 -0.537500
v -0.556424 0.080170 -0.371647
v -0.733333 -0.016667 -0.100000
v -0.733333 -0.016667 0.400000
v -0.556423 0.080170 0.671647
v -0.266667 -0.383333 -0.537500
v -0.266667 -0.400000 -0.100000
v -0.733333 -0.383333 -0.100000
v -0.711111 -0.377778 -0.516666
v -0.266667 -0.400000 -0.100000
v -0.266667 -0.400000 0.400000
v -0.733333 -0.383333 0.400000
v -0.733333 -0.383333 -0.100000
v 0.711111 -0.377778 -0.516667
v 0.733333 -0.383333 -0.100000
v 0.266667 -0.400000 -0.100000
v 0.266666 -0.383333 -0.537500
v 0.266666 -0.383333 -0.537500
v 0.266667 -0.400000 -0.100000
v -0.266667 -0.400000 -0.100000
v -0.266667 -0.383333 -0.537500
v 0.733333 -0.383333 -0.100000
v 0.733333 -0.383333 0.400000
v 0.266667 -0.400000 0.400000
v 0.266667 -0.400000 -0.100000
v 0.266667 -0.400000 -0.100000
v 0.266667 -0.400000 0.400000
v -0.266667 -0.400000 0.400000
v -0.266667 -0.400000 -0.100000
v 0.733333 -0.383333 0.400000
v 0.711111 -0.377778 0.816667
v 0.266667 -0.383333 0.837500
v 0.266667 -0.400000 0.400000
v 0.266667 -0.400000 0.400000
v 0.266667 -0.383333 0.837500
v -0.266666 -0.383333 0.837500
v -0.266667 -0.400000 0.400000
v -0.556423 0.080170 0.671647
v -0.733333 -0.016667 0.400000
v -0.711111 -0.022222 0.816667
v 0.556424 0.080170 0.671647
v 0.266667 -0.016667 0.837500
v 0.711111 -0.022222 0.816667
v 0.711111 -0.022222 -0.516667
v 0.266666 -0.016667 -0.537500
v 0.556423 0.080170 -0.371647
v -0.711111 -0.022222 -0.516666
v -0.733333 -0.016667 -0.100000
v -0.556424 0.080170 -0.371647
v -0.266666 0.801817 0.916667
v -0.266666 1.151817 0.900000
v -0.711111 1.135150 0.894445
v -0.733333 0.801817 0.900000
v -0.556423 1.019134 0.436497
v -0.711111 1.135150 0.538889
v -0.266666 1.151817 0.533333
v -0.800000 0.801817 0.650000
v -0.733333 1.151817 0.650000
v -0.711111 1.135150 0.538889
v -0.733333 0.801817 0.533334
v 0.266667 1.201817 0.650000
v 0.733334 1.151817 0.650000
v 0.711111 1.135150 0.538889
v 0.266667 1.151817 0.533333
v -0.266666 0.001817 0.650000
v -0.733333 0.051817 0.650000
v -0.711111 0.068484 0.538889
v -0.266666 0.051817 0.533333
v 0.800000 0.401817 0.650000
v 0.733334 0.051817 0.650000
v 0.711111 0.068484 0.538889
v 0.733333 0.401817 0.533333
v 0.733334 1.151817 0.650000
v 0.800000 0.801817 0.650000
v 0.733333 0.801817 0.533333
v 0.711111 1.135150 0.538889
v 0.800000 0.801817 0.650000
v 0.800000 0.401817 0.650000
v 0.733333 0.401817 0.533333
v 0.733333 0.801817 0.533333
v 0.711111 1.135150 0.894444
v 0.733334 0.801817 0.900000
v 0.800000 0.801817 0.783333
v 0.733334 1.151817 0.783333
v 0.733334 1.151817 0.783333
v 0.800000 0.801817 0.783333
v 0.800000 0.801817 0.650000
v 0.733334 1.151817 0.650000
v 0.733334 0.801817 0.900000
v 0.733334 0.401817 0.900000
v 0.800000 0.401817 0.783333
v 0.800000 0.801817 0.783333
v 0.800000 0.801817 0.783333
v 0.800000 0.401817 0.783333
v 0.800000 0.401817 0.650000
v 0.800000 0.801817 0.650000
v 0.733334 0.401817 0.900000
v 0.711111 0.068484 0.894444
v 0.733334 0.051817 0.783333
v 0.800000 0.401817 0.783333
v 0.800000 0.401817 0.783333
v 0.733334 0.051817 0.783333
v 0.733334 0.051817 0.650000
v 0.800000 0.401817 0.650000
v 0.733334 0.051817 0.650000
v 0.266667 0.001817 0.650000
v 0.266667 0.051817 0.533333
v 0.711111 0.068484 0.538889
v 0.266667 0.001817 0.650000
v -0.266666 0.001817 0.650000
v -0.266666 0.051817 0.533333
v 0.266667 0.051817 0.533333
v 0.711111 0.068484 0.894444
v 0.266667 0.051817 0.900000
v 0.266667 0.001817 0.783333
v 0.733334 0.051817 0.783333
v 0.733334 0.051817 0.783333
v 0.266667 0.001817 0.783333
v 0.266667 0.001817 0.650000
v 0.733334 0.051817 0.650000
v 0.266667 0.051817 0.900000
v -0.266666 0.051817 0.900000
v -0.266666 0.001817 0.783333
v 0.266667 0.001817 0.783333
v 0.266667 0.001817 0.783333
v -0.266666 0.001817 0.783333
v -0.266666 0.001817 0.650000
v 0.266667 0.001817 0.650000
v -0.266666 0.051817 0.900000
v -0.711111 0.068484 0.894445
v -0.733333 0.051817 0.783334
v -0.266666 0.001817 0.783333
v -0.266666 0.001817 0.783333
v -0.733333 0.051817 0.783334
v -0.733333 0.051817 0.650000
v -0.266666 0.001817 0.650000
v -0.733333 1.151817 0.650000
v -0.266666 1.201817 0.650000
v -0.266666 1.151817 0.533333
v -0.711111 1.135150 0.538889
v -0.266666 1.201817 0.650000
v 0.266667 1.201817 0.650000
v 0.266667 1.151817 0.533333
v -0.266666 1.151817 0.533333
v -0.711111 1.135150 0.894445
v -0.266666 1.151817 0.900000
v -0.266666 1.201817 0.783333
v -0.733333 1.151817 0.783334
v -0.733333 1.151817 0.783334
v -0.266666 1.201817 0.783333
v -0.266666 1.201817 0.650000
v -0.733333 1.151817 0.650000
v -0.266666 1.151817 0.900000
v 0.266667 1.151817 0.900000
v 0.266667 1.201817 0.783333
v -0.266666 1.201817 0.783333
v -0.266666 1.201817 0.783333
v 0.266667 1.201817 0.783333
v 0.266667 1.201817 0.650000
v -0.266666 1.201817 0.650000
v 0.266667 1.151817 0.900000
v 0.711111 1.135150 0.894444
v 0.733334 1.151817 0.783333
v 0.266667 1.201817 0.783333
v 0.266667 1.201817 0.783333
v 0.733334 1.151817 0.783333
v 0.733334 1.151817 0.650000
v 0.266667 1.201817 0.650000
v -0.733333 0.051817 0.650000
v -0.800000 0.401817 0.650000
v -0.733333 0.401817 0.533334
v -0.711111 0.068484 0.538889
v -0.800000 0.401817 0.650000
v -0.800000 0.801817 0.650000
v -0.733333 0.801817 0.533334
v -0.733333 0.401817 0.533334
v -0.711111 0.068484 0.894445
v -0.733333 0.401817 0.900000
v -0.800000 0.401817 0.783334
v -0.733333 0.051817 0.783334
v -0.733333 0.051817 0.783334
v -0.800000 0.401817 0.783334
v -0.800000 0.401817 0.650000
v -0.733333 0.051817 0.650000
v -0.733333 0.401817 0.900000
v -0.733333 0.801817 0.900000
v -0.800000 0.801817 0.783334
v -0.800000 0.401817 0.783334
v -0.800000 0.401817 0.783334
v -0.800000 0.801817 0.783334
v -0.800000 0.801817 0.650000
v -0.800000 0.401817 0.650000
v -0.733333 0.801817 0.900000
v -0.711111 1.135150 0.894445
v -0.733333 1.151817 0.783334
v -0.800000 0.801817 0.783334
v -0.800000 0.801817 0.783334
v -0.733333 1.151817 0.783334
v -0.733333 1.151817 0.650000
v -0.800000 0.801817 0.650000
v 0.556423 1.019134 0.436497
v 0.711111 1.135150 0.538889
v 0.733333 0.801817 0.533333
v 0.556423 1.019134 0.436497
v -0.556423 1.019134 0.436497
v -0.266666 1.151817 0.533333
v 0.266667 1.151817 0.533333
v 0.711111 0.068484 0.538889
v 0.556423 0.184499 0.436497
v 0.733333 0.401817 0.533333
v 0.733333 0.401817 0.533333
v 0.556423 0.184499 0.436497
v 0.556423 1.019134 0.436497
v 0.733333 0.801817 0.533333
v 0.266667 0.051817 0.533333
v -0.266666 0.051817 0.533333
v -0.556423 0.184499 0.436497
v 0.556423 0.184499 0.436497
v 0.556423 0.184499 0.436497
v -0.556423 0.184499 0.436497
v -0.556423 1.019134 0.436497
v 0.556423 1.019134 0.436497
v -0.711111 0.068484 0.538889
v -0.556423 0.184499 0.436497
v -0.266666 0.051817 0.533333
v -0.556423 0.184499 0.436497
v -0.733333 0.401817 0.533334
v -0.733333 0.801817 0.533334
v -0.556423 1.019134 0.436497
v -0.266666 0.051817 0.900000
v -0.266666 0.401817 0.916667
v -0.733333 0.401817 0.900000
v -0.711111 0.068484 0.894445
v -0.266666 0.401817 0.916667
v -0.266666 0.801817 0.916667
v -0.733333 0.801817 0.900000
v -0.733333 0.401817 0.900000
v 0.711111 0.068484 0.894444
v 0.733334 0.401817 0.900000
v 0.266667 0.401817 0.916667
v 0.266667 0.051817 0.900000
v 0.266667 0.051817 0.900000
v 0.266667 0.401817 0.916667
v -0.266666 0.401817 0.916667
v -0.266666 0.051817 0.900000
v 0.733334 0.401817 0.900000
v 0.733334 0.801817 0.900000
v 0.266667 0.801817 0.916667
v 0.266667 0.401817 0.916667
v 0.266667 0.401817 0.916667
v 0.266667 0.801817 0.916667
v -0.266666 0.801817 0.916667
v -0.266666 0.401817 0.916667
v 0.733334 0.801817 0.900000
v 0.711111 1.135150 0.894444
v 0.266667 1.151817 0.900000
v 0.266667 0.801817 0.916667
v 0.266667 0.801817 0.916667
v 0.266667 1.151817 0.900000
v -0.266666 1.151817 0.900000
v -0.266666 0.801817 0.916667
v -0.556423 1.019134 0.436497
v -0.733333 0.801817 0.533334
v -0.711111 1.135150 0.538889
v 0.556423 1.019134 0.436497
v 0.266667 1.151817 0.533333
v 0.711111 1.135150 0.538889
v 0.711111 0.068484 0.538889
v 0.266667 0.051817 0.533333
v 0.556423 0.184499 0.436497
v -0.711111 0.068484 0.538889
v -0.733333 0.401817 0.533334
v -0.556423 0.184499 0.436497

vt 0.036945 0.667371
vt 0.757990 0.631319
vt 0.757990 0.667371
vt 0.036945 0.631319
vt 0.757990 0.631319
vt 0.036945 0.667371
vt 0.000893 0.054484
vt 0.036945 0.631319
vt 0.000893 0.631319
vt 0.036945 0.054484
vt 0.036945 0.631319
vt 0.000893 0.054484
vt 0.757990 0.631319
vt 0.036945 0.054484
vt 0.757989 0.054483
vt 0.036945 0.631319
vt 0.036945 0.054484
vt 0.757990 0.631319
vt 0.794042 0.631319
vt 0.757989 0.054483
vt 0.794042 0.054483
vt 0.757990 0.631319
vt 0.757989 0.054483
vt 0.794042 0.631319
vt 0.757989 0.018431
vt 0.036945 0.054484
vt 0.036945 0.018431
vt 0.757989 0.054483
vt 0.036945 0.054484
vt 0.757989 0.018431
vt 0.128861 0.559680
vt 0.221837 0.584637
vt 0.145153 0.624845
vt 0.210496 0.539271
vt 0.221837 0.584637
vt 0.128861 0.559680
vt 0.128861 0.492509
vt 0.210496 0.539271
vt 0.128861 0.559680
vt 0.210496 0.492509
vt 0.210496 0.539271
vt 0.128861 0.492509
vt 0.128861 0.425339
vt 0.210496 0.492509
vt 0.128861 0.492509
vt 0.210496 0.445747
vt 0.210496 0.492509
vt 0.128861 0.425339
vt 0.145153 0.360173
vt 0.210496 0.445747
vt 0.128861 0.425339
vt 0.221837 0.400381
vt 0.210496 0.445747
vt 0.145153 0.360173
vt 0.210496 0.445747
vt 0.257258 0.492509
vt 0.210496 0.492509
vt 0.257258 0.445747
vt 0.257258 0.492509
vt 0.210496 0.445747
vt 0.386274 0.559680
vt 0.479250 0.584637
vt 0.402565 0.624845
vt 0.467908 0.539271
vt 0.479250 0.584637
vt 0.386274 0.559680
vt 0.386274 0.492509
vt 0.467908 0.539271
vt 0.386274 0.559680
vt 0.467908 0.492509
vt 0.467908 0.539271
vt 0.386274 0.492509
vt 0.386274 0.425338
vt 0.467908 0.492509
vt 0.386274 0.492509
vt 0.467908 0.445747
vt 0.467908 0.492509
vt 0.386274 0.425338
vt 0.402565 0.360173
vt 0.467908 0.445747
vt 0.386274 0.425338
vt 0.479250 0.400381
vt 0.467908 0.445747
vt 0.402565 0.360173
vt 0.514670 0.492509
vt 0.467908 0.539271
vt 0.467908 0.492509
vt 0.514670 0.539271
vt 0.467908 0.539271
vt 0.514670 0.492509
vt 0.257568 0.559680
vt 0.350543 0.584637
vt 0.273859 0.624845
vt 0.339202 0.539271
vt 0.350543 0.584637
vt 0.257568 0.559680
vt 0.257568 0.492509
vt 0.339202 0.539271
vt 0.257568 0.559680
vt 0.339202 0.492509
vt 0.339202 0.539271
vt 0.257568 0.492509
vt 0.257568 0.425338
vt 0.339202 0.492509
vt 0.257568 0.492509
vt 0.339202 0.445747
vt 0.339202 0.492509
vt 0.257568 0.425338
vt 0.273859 0.360173
vt 0.339202 0.445747
vt 0.257568 0.425338
vt 0.350543 0.400381
vt 0.339202 0.445747
vt 0.273859 0.360173
vt 0.339202 0.445747
vt 0.385964 0.492509
vt 0.339202 0.492509
vt 0.385964 0.445747
vt 0.385964 0.492509
vt 0.339202 0.445747
vt 0.000155 0.559680
vt 0.093131 0.584637
vt 0.016446 0.624845
vt 0.081789 0.539271
vt 0.093131 0.584637
vt 0.000155 0.559680
vt 0.000155 0.492509
vt 0.081789 0.539271
vt 0.000155 0.559680
vt 0.081789 0.492509
vt 0.081789 0.539271
vt 0.000155 0.492509
vt 0.000155 0.425338
vt 0.081789 0.492509
vt 0.000155 0.492509
vt 0.081789 0.445747
vt 0.081789 0.492509
vt 0.000155 0.425338
vt 0.016446 0.360173
vt 0.081789 0.445747
vt 0.000155 0.425338
vt 0.093131 0.400381
vt 0.081789 0.445747
vt 0.016446 0.360173
vt 0.128551 0.492509
vt 0.081789 0.539271
vt 0.081789 0.492509
vt 0.128551 0.539271
vt 0.081789 0.539271
vt 0.128551 0.492509
vt 0.257835 0.241747
vt 0.000413 0.000413
vt 0.257836 0.000413
vt 0.000413 0.241747
vt 0.000413 0.000413
vt 0.257835 0.241747
vt 0.999587 0.000413
vt 0.951320 0.257835
vt 0.951320 0.000413
vt 0.999587 0.257835
vt 0.951320 0.257835
vt 0.999587 0.000413
vt 0.000413 0.241747
vt 0.257835 0.290013
vt 0.000413 0.290013
vt 0.257835 0.241747
vt 0.257835 0.290013
vt 0.000413 0.241747
vt 0.241747 0.818140
vt 0.000413 0.785962
vt 0.241747 0.785962
vt 0.000413 0.818139
vt 0.000413 0.785962
vt 0.241747 0.818140
vt 0.963125 0.258662
vt 0.930947 0.302612
vt 0.930947 0.258662
vt 0.963125 0.302612
vt 0.930947 0.302612
vt 0.963125 0.258662
vt 0.930947 0.553558
vt 0.963125 0.714447
vt 0.930947 0.714447
vt 0.963125 0.553558
vt 0.963125 0.714447
vt 0.930947 0.553558
vt 0.963125 0.418666
vt 0.930947 0.553558
vt 0.930947 0.418666
vt 0.963125 0.553558
vt 0.930947 0.553558
vt 0.963125 0.418666
vt 0.963125 0.373637
vt 0.930947 0.418666
vt 0.930947 0.373637
vt 0.963125 0.418666
vt 0.930947 0.418666
vt 0.963125 0.373637
vt 0.963125 0.327605
vt 0.930947 0.373637
vt 0.930947 0.327605
vt 0.963125 0.373637
vt 0.930947 0.373637
vt 0.963125 0.327605
vt 0.515252 0.323018
vt 0.742155 0.302612
vt 0.742155 0.323018
vt 0.500821 0.302612
vt 0.742155 0.302612
vt 0.515252 0.323018
vt 0.556596 0.343258
vt 0.742155 0.323018
vt 0.742155 0.343258
vt 0.515252 0.323018
vt 0.742155 0.323018
vt 0.556596 0.343258
vt 0.580855 0.381193
vt 0.742155 0.343258
vt 0.742155 0.381193
vt 0.556596 0.343258
vt 0.742155 0.343258
vt 0.580855 0.381193
vt 0.581266 0.516084
vt 0.742155 0.381193
vt 0.742155 0.516085
vt 0.580855 0.381193
vt 0.742155 0.381193
vt 0.581266 0.516084
vt 0.531341 0.193480
vt 0.758244 0.213885
vt 0.516910 0.213885
vt 0.758244 0.193480
vt 0.758244 0.213885
vt 0.531341 0.193480
vt 0.572685 0.173240
vt 0.758244 0.193480
vt 0.531341 0.193480
vt 0.758244 0.173240
vt 0.758244 0.193480
vt 0.572685 0.173240
vt 0.596944 0.135305
vt 0.758244 0.173240
vt 0.572685 0.173240
vt 0.758244 0.135305
vt 0.758244 0.173240
vt 0.596944 0.135305
vt 0.597355 0.000413
vt 0.758244 0.135305
vt 0.596944 0.135305
vt 0.758244 0.000413
vt 0.758244 0.135305
vt 0.597355 0.000413
vt 0.516910 0.213885
vt 0.758244 0.257836
vt 0.516910 0.257836
vt 0.758244 0.213885
vt 0.758244 0.257836
vt 0.516910 0.213885
vt 0.500821 0.302612
vt 0.742155 0.258662
vt 0.742155 0.302612
vt 0.500821 0.258662
vt 0.742155 0.258662
vt 0.500821 0.302612
vt 0.963125 0.302612
vt 0.930947 0.327605
vt 0.930947 0.302612
vt 0.963125 0.327605
vt 0.930947 0.327605
vt 0.963125 0.302612
vt 0.940809 0.995112
vt 0.972986 0.753778
vt 0.940809 0.753778
vt 0.972986 0.995112
vt 0.972986 0.753778
vt 0.940809 0.995112
vt 0.996129 0.258662
vt 0.963951 0.302612
vt 0.996129 0.302612
vt 0.963951 0.258662
vt 0.963951 0.302612
vt 0.996129 0.258662
vt 0.963951 0.553558
vt 0.996129 0.714447
vt 0.996129 0.553558
vt 0.963951 0.714447
vt 0.996129 0.714447
vt 0.963951 0.553558
vt 0.996129 0.418666
vt 0.963951 0.553558
vt 0.996129 0.553558
vt 0.963951 0.418666
vt 0.963951 0.553558
vt 0.996129 0.418666
vt 0.996129 0.373637
vt 0.963951 0.418666
vt 0.996129 0.418666
vt 0.963951 0.373637
vt 0.963951 0.418666
vt 0.996129 0.373637
vt 0.996129 0.327605
vt 0.963951 0.373637
vt 0.996129 0.373637
vt 0.963951 0.327605
vt 0.963951 0.373637
vt 0.996129 0.327605
vt 0.273093 0.323018
vt 0.499995 0.302612
vt 0.258662 0.302612
vt 0.499995 0.323018
vt 0.499995 0.302612
vt 0.273093 0.323018
vt 0.314436 0.343258
vt 0.499995 0.323018
vt 0.273093 0.323018
vt 0.499995 0.343258
vt 0.499995 0.323018
vt 0.314436 0.343258
vt 0.338696 0.381193
vt 0.499995 0.343258
vt 0.314436 0.343258
vt 0.499995 0.381193
vt 0.499995 0.343258
vt 0.338696 0.381193
vt 0.339106 0.516084
vt 0.499995 0.381193
vt 0.338696 0.381193
vt 0.499995 0.516085
vt 0.499995 0.381193
vt 0.339106 0.516084
vt 0.014844 0.483906
vt 0.241747 0.504312
vt 0.241747 0.483906
vt 0.000413 0.504312
vt 0.241747 0.504312
vt 0.014844 0.483906
vt 0.056188 0.463666
vt 0.241747 0.483906
vt 0.241747 0.463666
vt 0.014844 0.483906
vt 0.241747 0.483906
vt 0.056188 0.463666
vt 0.080447 0.425731
vt 0.241747 0.463666
vt 0.241747 0.425731
vt 0.056188 0.463666
vt 0.241747 0.463666
vt 0.080447 0.425731
vt 0.080858 0.290839
vt 0.241747 0.425731
vt 0.241747 0.290840
vt 0.080447 0.425731
vt 0.241747 0.425731
vt 0.080858 0.290839
vt 0.000413 0.504312
vt 0.241747 0.548262
vt 0.241747 0.504312
vt 0.000413 0.548262
vt 0.241747 0.548262
vt 0.000413 0.504312
vt 0.258662 0.302612
vt 0.499995 0.258662
vt 0.258662 0.258662
vt 0.499995 0.302612
vt 0.499995 0.258662
vt 0.258662 0.302612
vt 0.996129 0.302612
vt 0.963951 0.327605
vt 0.996129 0.327605
vt 0.963951 0.302612
vt 0.963951 0.327605
vt 0.996129 0.302612
vt 0.258662 0.241747
vt 0.516084 0.000413
vt 0.516084 0.241747
vt 0.258662 0.000413
vt 0.516084 0.000413
vt 0.258662 0.241747
vt 0.258662 0.758244
vt 0.516084 0.516911
vt 0.516084 0.758244
vt 0.258662 0.516911
vt 0.516084 0.516911
vt 0.258662 0.758244
vt 0.516084 0.257836
vt 0.258662 0.241747
vt 0.516084 0.241747
vt 0.258662 0.257836
vt 0.258662 0.241747
vt 0.516084 0.257836
vt 0.218362 0.781549
vt 0.151278 0.710004
vt 0.221711 0.710022
vt 0.151304 0.785126
vt 0.151278 0.710004
vt 0.218362 0.781549
vt 0.746563 0.595977
vt 0.715664 0.549359
vt 0.744187 0.524427
vt 0.872173 0.756778
vt 0.853293 0.825015
vt 0.853598 0.753832
vt 0.874762 0.824422
vt 0.853293 0.825015
vt 0.872173 0.756778
vt 0.826157 0.233519
vt 0.844880 0.161013
vt 0.844635 0.236754
vt 0.823707 0.161508
vt 0.844880 0.161013
vt 0.826157 0.233519
vt 0.820430 0.003689
vt 0.801707 0.076196
vt 0.801952 0.000454
vt 0.822880 0.075701
vt 0.801707 0.076196
vt 0.820430 0.003689
vt 0.878177 0.972550
vt 0.897056 0.904314
vt 0.896751 0.975497
vt 0.875588 0.904907
vt 0.897056 0.904314
vt 0.878177 0.972550
vt 0.875588 0.824441
vt 0.897028 0.753778
vt 0.897217 0.825059
vt 0.878408 0.756669
vt 0.897028 0.753778
vt 0.875588 0.824441
vt 0.875588 0.904907
vt 0.897217 0.825059
vt 0.897056 0.904314
vt 0.875588 0.824441
vt 0.897217 0.825059
vt 0.875588 0.904907
vt 0.918514 0.825015
vt 0.937394 0.756778
vt 0.939983 0.824422
vt 0.918819 0.753832
vt 0.937394 0.756778
vt 0.918514 0.825015
vt 0.897217 0.825059
vt 0.918819 0.753832
vt 0.918514 0.825015
vt 0.897028 0.753778
vt 0.918819 0.753832
vt 0.897217 0.825059
vt 0.918353 0.904269
vt 0.939983 0.824422
vt 0.939983 0.904887
vt 0.918514 0.825015
vt 0.939983 0.824422
vt 0.918353 0.904269
vt 0.897056 0.904314
vt 0.918514 0.825015
vt 0.918353 0.904269
vt 0.897217 0.825059
vt 0.918514 0.825015
vt 0.897056 0.904314
vt 0.918542 0.975551
vt 0.939983 0.904887
vt 0.937162 0.972660
vt 0.918353 0.904269
vt 0.939983 0.904887
vt 0.918542 0.975551
vt 0.896751 0.975497
vt 0.918353 0.904269
vt 0.918542 0.975551
vt 0.897056 0.904314
vt 0.918353 0.904269
vt 0.896751 0.975497
vt 0.822880 0.161490
vt 0.801729 0.236796
vt 0.801577 0.160977
vt 0.820241 0.233603
vt 0.801729 0.236796
vt 0.822880 0.161490
vt 0.822880 0.075701
vt 0.801577 0.160977
vt 0.801707 0.076196
vt 0.822880 0.161490
vt 0.801577 0.160977
vt 0.822880 0.075701
vt 0.780244 0.161013
vt 0.761520 0.233519
vt 0.759070 0.161508
vt 0.779999 0.236754
vt 0.761520 0.233519
vt 0.780244 0.161013
vt 0.801577 0.160977
vt 0.779999 0.236754
vt 0.780244 0.161013
vt 0.801729 0.236796
vt 0.779999 0.236754
vt 0.801577 0.160977
vt 0.780374 0.076232
vt 0.759070 0.161508
vt 0.759070 0.075719
vt 0.780244 0.161013
vt 0.759070 0.161508
vt 0.780374 0.076232
vt 0.801707 0.076196
vt 0.780244 0.161013
vt 0.780374 0.076232
vt 0.801577 0.160977
vt 0.780244 0.161013
vt 0.801707 0.076196
vt 0.780221 0.000413
vt 0.759070 0.075719
vt 0.761710 0.003605
vt 0.780374 0.076232
vt 0.759070 0.075719
vt 0.780221 0.000413
vt 0.801952 0.000454
vt 0.780374 0.076232
vt 0.780221 0.000413
vt 0.801707 0.076196
vt 0.780374 0.076232
vt 0.801952 0.000454
vt 0.823707 0.075719
vt 0.844858 0.000413
vt 0.845010 0.076232
vt 0.826346 0.003605
vt 0.844858 0.000413
vt 0.823707 0.075719
vt 0.823707 0.161508
vt 0.845010 0.076232
vt 0.844880 0.161013
vt 0.823707 0.075719
vt 0.845010 0.076232
vt 0.823707 0.161508
vt 0.866343 0.076196
vt 0.885067 0.003689
vt 0.887517 0.075701
vt 0.866588 0.000454
vt 0.885067 0.003689
vt 0.866343 0.076196
vt 0.845010 0.076232
vt 0.866588 0.000454
vt 0.866343 0.076196
vt 0.844858 0.000413
vt 0.866588 0.000454
vt 0.845010 0.076232
vt 0.866213 0.160977
vt 0.887517 0.075701
vt 0.887517 0.161490
vt 0.866343 0.076196
vt 0.887517 0.075701
vt 0.866213 0.160977
vt 0.844880 0.161013
vt 0.866343 0.076196
vt 0.866213 0.160977
vt 0.845010 0.076232
vt 0.866343 0.076196
vt 0.844880 0.161013
vt 0.866366 0.236796
vt 0.887517 0.161490
vt 0.884877 0.233603
vt 0.866213 0.160977
vt 0.887517 0.161490
vt 0.866366 0.236796
vt 0.844635 0.236754
vt 0.866213 0.160977
vt 0.866366 0.236796
vt 0.844880 0.161013
vt 0.866213 0.160977
vt 0.844635 0.236754
vt 0.874762 0.904887
vt 0.853321 0.975551
vt 0.853132 0.904269
vt 0.871941 0.972660
vt 0.853321 0.975551
vt 0.874762 0.904887
vt 0.874762 0.824422
vt 0.853132 0.904269
vt 0.853293 0.825015
vt 0.874762 0.904887
vt 0.853132 0.904269
vt 0.874762 0.824422
vt 0.831835 0.904314
vt 0.812956 0.972550
vt 0.810367 0.904907
vt 0.831530 0.975497
vt 0.812956 0.972550
vt 0.831835 0.904314
vt 0.853132 0.904269
vt 0.831530 0.975497
vt 0.831835 0.904314
vt 0.853321 0.975551
vt 0.831530 0.975497
vt 0.853132 0.904269
vt 0.831996 0.825059
vt 0.810367 0.904907
vt 0.810367 0.824441
vt 0.831835 0.904314
vt 0.810367 0.904907
vt 0.831996 0.825059
vt 0.853293 0.825015
vt 0.831835 0.904314
vt 0.831996 0.825059
vt 0.853132 0.904269
vt 0.831835 0.904314
vt 0.853293 0.825015
vt 0.831807 0.753778
vt 0.810367 0.824441
vt 0.813188 0.756669
vt 0.831996 0.825059
vt 0.810367 0.824441
vt 0.831807 0.753778
vt 0.853598 0.753832
vt 0.831996 0.825059
vt 0.831807 0.753778
vt 0.853293 0.825015
vt 0.831996 0.825059
vt 0.853598 0.753832
vt 0.671959 0.760852
vt 0.715664 0.728404
vt 0.739045 0.758211
vt 0.746563 0.595977
vt 0.715664 0.728404
vt 0.715664 0.549359
vt 0.746563 0.681785
vt 0.715664 0.728404
vt 0.746563 0.595977
vt 0.591515 0.760852
vt 0.524428 0.758211
vt 0.547810 0.728404
vt 0.715664 0.728404
vt 0.591515 0.760852
vt 0.547810 0.728404
vt 0.671959 0.760852
vt 0.591515 0.760852
vt 0.715664 0.728404
vt 0.547810 0.549359
vt 0.516910 0.681785
vt 0.516910 0.595977
vt 0.547810 0.728404
vt 0.516910 0.681785
vt 0.547810 0.549359
vt 0.715664 0.549359
vt 0.547810 0.728404
vt 0.547810 0.549359
vt 0.715664 0.728404
vt 0.547810 0.728404
vt 0.715664 0.549359
vt 0.516910 0.595977
vt 0.519287 0.524427
vt 0.547810 0.549359
vt 0.671959 0.516911
vt 0.547810 0.549359
vt 0.591515 0.516911
vt 0.715664 0.549359
vt 0.547810 0.549359
vt 0.671959 0.516911
vt 0.070842 0.785136
vt 0.000413 0.710026
vt 0.070856 0.710003
vt 0.003771 0.781566
vt 0.000413 0.710026
vt 0.070842 0.785136
vt 0.151304 0.785126
vt 0.070856 0.710003
vt 0.151278 0.710004
vt 0.070842 0.785136
vt 0.070856 0.710003
vt 0.151304 0.785126
vt 0.070846 0.624220
vt 0.003763 0.552675
vt 0.070820 0.549097
vt 0.000413 0.624202
vt 0.003763 0.552675
vt 0.070846 0.624220
vt 0.070856 0.710003
vt 0.000413 0.624202
vt 0.070846 0.624220
vt 0.000413 0.710026
vt 0.000413 0.624202
vt 0.070856 0.710003
vt 0.151268 0.624221
vt 0.070820 0.549097
vt 0.151283 0.549088
vt 0.070846 0.624220
vt 0.070820 0.549097
vt 0.151268 0.624221
vt 0.151278 0.710004
vt 0.070846 0.624220
vt 0.151268 0.624221
vt 0.070856 0.710003
vt 0.070846 0.624220
vt 0.151278 0.710004
vt 0.221711 0.624198
vt 0.151283 0.549088
vt 0.218353 0.552658
vt 0.151268 0.624221
vt 0.151283 0.549088
vt 0.221711 0.624198
vt 0.221711 0.710022
vt 0.151268 0.624221
vt 0.221711 0.624198
vt 0.151278 0.710004
vt 0.151268 0.624221
vt 0.221711 0.710022
vt 0.739046 0.519551
vt 0.715664 0.549359
vt 0.671959 0.516911
vt 0.744187 0.753336
vt 0.715664 0.728404
vt 0.746563 0.681785
vt 0.547810 0.728404
vt 0.519287 0.753336
vt 0.516910 0.681785
vt 0.547810 0.549359
vt 0.524428 0.519551
vt 0.591515 0.516911
vt 0.750076 0.520491
vt 0.803756 0.592042
vt 0.747390 0.592020
vt 0.803730 0.516920
vt 0.803756 0.592042
vt 0.750076 0.520491
vt 0.930121 0.337729
vt 0.903693 0.291110
vt 0.928550 0.266184
vt 0.385655 0.761387
vt 0.366589 0.816430
vt 0.367017 0.759160
vt 0.388009 0.815732
vt 0.366589 0.816430
vt 0.385655 0.761387
vt 0.948575 0.003800
vt 0.930147 0.075943
vt 0.930309 0.000440
vt 0.950494 0.075628
vt 0.930147 0.075943
vt 0.948575 0.003800
vt 0.807622 0.757165
vt 0.789194 0.829308
vt 0.789355 0.753805
vt 0.809541 0.828992
vt 0.789194 0.829308
vt 0.807622 0.757165
vt 0.320568 0.761387
vt 0.301503 0.816430
vt 0.301931 0.759160
vt 0.322922 0.815732
vt 0.301503 0.816430
vt 0.320568 0.761387
vt 0.322922 0.880241
vt 0.301546 0.936919
vt 0.301291 0.879499
vt 0.320269 0.934783
vt 0.301546 0.936919
vt 0.322922 0.880241
vt 0.322922 0.815732
vt 0.301291 0.879499
vt 0.301503 0.816430
vt 0.322922 0.880241
vt 0.301291 0.879499
vt 0.322922 0.815732
vt 0.280081 0.879559
vt 0.261016 0.934603
vt 0.258662 0.880258
vt 0.279653 0.936829
vt 0.261016 0.934603
vt 0.280081 0.879559
vt 0.301291 0.879499
vt 0.279653 0.936829
vt 0.280081 0.879559
vt 0.301546 0.936919
vt 0.279653 0.936829
vt 0.301291 0.879499
vt 0.280293 0.816491
vt 0.258662 0.880258
vt 0.258662 0.815749
vt 0.280081 0.879559
vt 0.258662 0.880258
vt 0.280293 0.816491
vt 0.301503 0.816430
vt 0.280081 0.879559
vt 0.280293 0.816491
vt 0.301291 0.879499
vt 0.280081 0.879559
vt 0.301503 0.816430
vt 0.280038 0.759070
vt 0.258662 0.815749
vt 0.261315 0.761206
vt 0.280293 0.816491
vt 0.258662 0.815749
vt 0.280038 0.759070
vt 0.301931 0.759160
vt 0.280293 0.816491
vt 0.280038 0.759070
vt 0.301503 0.816430
vt 0.280293 0.816491
vt 0.301931 0.759160
vt 0.809541 0.914776
vt 0.789211 0.990004
vt 0.789111 0.914450
vt 0.807499 0.986672
vt 0.789211 0.990004
vt 0.809541 0.914776
vt 0.809541 0.828992
vt 0.789111 0.914450
vt 0.789194 0.829308
vt 0.809541 0.914776
vt 0.789111 0.914450
vt 0.809541 0.828992
vt 0.767736 0.914474
vt 0.749309 0.986617
vt 0.747390 0.914790
vt 0.767575 0.989977
vt 0.749309 0.986617
vt 0.767736 0.914474
vt 0.789111 0.914450
vt 0.767575 0.989977
vt 0.767736 0.914474
vt 0.789211 0.990004
vt 0.767575 0.989977
vt 0.789111 0.914450
vt 0.767819 0.829332
vt 0.747390 0.914790
vt 0.747390 0.829006
vt 0.767736 0.914474
vt 0.747390 0.914790
vt 0.767819 0.829332
vt 0.789194 0.829308
vt 0.767736 0.914474
vt 0.767819 0.829332
vt 0.789111 0.914450
vt 0.767736 0.914474
vt 0.789194 0.829308
vt 0.767719 0.753778
vt 0.747390 0.829006
vt 0.749431 0.757109
vt 0.767819 0.829332
vt 0.747390 0.829006
vt 0.767719 0.753778
vt 0.789355 0.753805
vt 0.767819 0.829332
vt 0.767719 0.753778
vt 0.789194 0.829308
vt 0.767819 0.829332
vt 0.789355 0.753805
vt 0.950494 0.161411
vt 0.930164 0.236639
vt 0.930065 0.161085
vt 0.948452 0.233308
vt 0.930164 0.236639
vt 0.950494 0.161411
vt 0.950494 0.075628
vt 0.930065 0.161085
vt 0.930147 0.075943
vt 0.950494 0.161411
vt 0.930065 0.161085
vt 0.950494 0.075628
vt 0.908690 0.161109
vt 0.890262 0.233253
vt 0.888343 0.161425
vt 0.908529 0.236612
vt 0.890262 0.233253
vt 0.908690 0.161109
vt 0.930065 0.161085
vt 0.908529 0.236612
vt 0.908690 0.161109
vt 0.930164 0.236639
vt 0.908529 0.236612
vt 0.930065 0.161085
vt 0.908772 0.075968
vt 0.888343 0.161425
vt 0.888343 0.075642
vt 0.908690 0.161109
vt 0.888343 0.161425
vt 0.908772 0.075968
vt 0.930147 0.075943
vt 0.908690 0.161109
vt 0.908772 0.075968
vt 0.930065 0.161085
vt 0.908690 0.161109
vt 0.930147 0.075943
vt 0.908673 0.000413
vt 0.888343 0.075642
vt 0.890385 0.003745
vt 0.908772 0.075968
vt 0.888343 0.075642
vt 0.908673 0.000413
vt 0.930309 0.000440
vt 0.908772 0.075968
vt 0.908673 0.000413
vt 0.930147 0.075943
vt 0.908772 0.075968
vt 0.930309 0.000440
vt 0.388009 0.880241
vt 0.366633 0.936919
vt 0.366378 0.879499
vt 0.385356 0.934783
vt 0.366633 0.936919
vt 0.388009 0.880241
vt 0.388009 0.815732
vt 0.366378 0.879499
vt 0.366589 0.816430
vt 0.388009 0.880241
vt 0.366378 0.879499
vt 0.388009 0.815732
vt 0.345168 0.879559
vt 0.326103 0.934603
vt 0.323748 0.880258
vt 0.344740 0.936829
vt 0.326103 0.934603
vt 0.345168 0.879559
vt 0.366378 0.879499
vt 0.344740 0.936829
vt 0.345168 0.879559
vt 0.366633 0.936919
vt 0.344740 0.936829
vt 0.366378 0.879499
vt 0.345380 0.816491
vt 0.323748 0.880258
vt 0.323748 0.815749
vt 0.345168 0.879559
vt 0.323748 0.880258
vt 0.345380 0.816491
vt 0.366589 0.816430
vt 0.345168 0.879559
vt 0.345380 0.816491
vt 0.366378 0.879499
vt 0.345168 0.879559
vt 0.366589 0.816430
vt 0.345125 0.759070
vt 0.323748 0.815749
vt 0.326402 0.761206
vt 0.345380 0.816491
vt 0.323748 0.815749
vt 0.345125 0.759070
vt 0.367017 0.759160
vt 0.345380 0.816491
vt 0.345125 0.759070
vt 0.366589 0.816430
vt 0.345380 0.816491
vt 0.367017 0.759160
vt 0.868729 0.502603
vt 0.903693 0.470155
vt 0.922420 0.499962
vt 0.930121 0.337729
vt 0.903693 0.470155
vt 0.903693 0.291110
vt 0.930121 0.423536
vt 0.903693 0.470155
vt 0.930121 0.337729
vt 0.804373 0.502603
vt 0.750682 0.499962
vt 0.769409 0.470155
vt 0.903693 0.470155
vt 0.804373 0.502603
vt 0.769409 0.470155
vt 0.868729 0.502603
vt 0.804373 0.502603
vt 0.903693 0.470155
vt 0.769409 0.291110
vt 0.742981 0.423536
vt 0.742981 0.337729
vt 0.769409 0.470155
vt 0.742981 0.423536
vt 0.769409 0.291110
vt 0.903693 0.291110
vt 0.769409 0.470155
vt 0.769409 0.291110
vt 0.903693 0.470155
vt 0.769409 0.470155
vt 0.903693 0.291110
vt 0.742981 0.337729
vt 0.744552 0.266184
vt 0.769409 0.291110
vt 0.868729 0.258662
vt 0.769409 0.291110
vt 0.804373 0.258662
vt 0.903693 0.291110
vt 0.769409 0.291110
vt 0.868729 0.258662
vt 0.868106 0.516911
vt 0.924469 0.592018
vt 0.868091 0.592045
vt 0.921771 0.520474
vt 0.924469 0.592018
vt 0.868106 0.516911
vt 0.803730 0.516920
vt 0.868091 0.592045
vt 0.803756 0.592042
vt 0.868106 0.516911
vt 0.868091 0.592045
vt 0.803730 0.516920
vt 0.868102 0.677820
vt 0.921782 0.749371
vt 0.868129 0.752943
vt 0.924469 0.677842
vt 0.921782 0.749371
vt 0.868102 0.677820
vt 0.868091 0.592045
vt 0.924469 0.677842
vt 0.868102 0.677820
vt 0.924469 0.592018
vt 0.924469 0.677842
vt 0.868091 0.592045
vt 0.803767 0.677818
vt 0.868129 0.752943
vt 0.803752 0.752952
vt 0.868102 0.677820
vt 0.868129 0.752943
vt 0.803767 0.677818
vt 0.803756 0.592042
vt 0.868102 0.677820
vt 0.803767 0.677818
vt 0.868091 0.592045
vt 0.868102 0.677820
vt 0.803756 0.592042
vt 0.747390 0.677844
vt 0.803752 0.752952
vt 0.750087 0.749388
vt 0.803767 0.677818
vt 0.803752 0.752952
vt 0.747390 0.677844
vt 0.747390 0.592020
vt 0.803767 0.677818
vt 0.747390 0.677844
vt 0.803756 0.592042
vt 0.803767 0.677818
vt 0.747390 0.592020
vt 0.922420 0.261303
vt 0.903693 0.291110
vt 0.868729 0.258662
vt 0.928550 0.495081
vt 0.903693 0.470155
vt 0.930121 0.423536
vt 0.769409 0.470155
vt 0.744552 0.495081
vt 0.742981 0.423536
vt 0.769409 0.291110
vt 0.750682 0.261303
vt 0.804373 0.258662

vn 0.000000 0.000000 1.000000
vn 0.000000 0.000000 1.000000
vn 0.000000 0.000000 1.000000
vn 0.000000 0.000000 1.000000
vn 0.000000 0.000000 1.000000
vn 0.000000 0.000000 1.000000
vn -1.000000 0.000000 0.000000
vn -1.000000 0.000000 0.000000
vn -1.000000 0.000000 0.000000
vn -1.000000 0.000000 0.000000
vn -1.000000 0.000000 0.000000
vn -1.000000 0.000000 0.000000
vn -0.000000 -1.000000 0.000000
vn -0.000000 -1.000000 0.000000
vn -0.000000 -1.000000 0.000000
vn -0.000000 -1.000000 0.000000
vn -0.000000 -1.000000 0.000000
vn -0.000000 -1.000000 0.000000
vn 1.000000 0.000000 -0.000000
vn 1.000000 0.000000 -0.000000
vn 1.000000 0.000000 -0.000000
vn 1.000000 0.000000 -0.000000
vn 1.000000 0.000000 -0.000000
vn 1.000000 0.000000 -0.000000
vn -0.000000 0.000000 -1.000000
vn -0.000000 0.000000 -1.000000
vn -0.000000 0.000000 -1.000000
vn -0.000000 0.000000 -1.000000
vn -0.000000 0.000000 -1.000000
vn -0.000000 0.000000 -1.000000
vn -0.970142 -0.242536 0.000000
vn -0.970142 -0.242536 0.000000
vn -0.970142 -0.242536 0.000000
vn -0.970143 -0.242536 0.000000
vn -0.970143 -0.242536 0.000000
vn -0.970143 -0.242536 0.000000
vn -0.000000 0.000000 -1.000000
vn -0.000000 0.000000 -1.000000
vn -0.000000 0.000000 -1.000000
vn -0.000000 0.000000 -1.000000
vn -0.000000 0.000000 -1.000000
vn -0.000000 0.000000 -1.000000
vn 1.000000 0.000000 -0.000001
vn 1.000000 0.000000 -0.000001
vn 1.000000 0.000000 -0.000001
vn 1.000000 -0.000000 0.000000
vn 1.000000 -0.000000 0.000000
vn 1.000000 -0.000000 0.000000
vn 0.000000 -0.242536 0.970143
vn 0.000000 -0.242536 0.970143
vn 0.000000 -0.242536 0.970143
vn 0.000000 -0.242536 0.970143
vn 0.000000 -0.242536 0.970143
vn 0.000000 -0.242536 0.970143
vn -0.000000 -1.000000 0.000000
vn -0.000000 -1.000000 0.000000
vn -0.000000 -1.000000 0.000000
vn -0.000000 -1.000000 0.000000
vn -0.000000 -1.000000 0.000000
vn -0.000000 -1.000000 0.000000
vn 0.000000 -0.242536 0.970142
vn 0.000000 -0.242536 0.970142
vn 0.000000 -0.242536 0.970142
vn 0.000000 -0.242536 0.970143
vn 0.000000 -0.242536 0.970143
vn 0.000000 -0.242536 0.970143
vn -1.000000 -0.000000 0.000001
vn -1.000000 -0.000000 0.000001
vn -1.000000 -0.000000 0.000001
vn -1.000000 0.000000 0.000000
vn -1.000000 0.000000 0.000000
vn -1.000000 0.000000 0.000000
vn -0.000000 0.000000 -1.000000
vn -0.000000 0.000000 -1.000000
vn -0.000000 0.000000 -1.000000
vn -0.000000 0.000000 -1.000000
vn -0.000000 0.000000 -1.000000
vn -0.000000 0.000000 -1.000000
vn 0.970142 -0.242536 0.000000
vn 0.970142 -0.242536 0.000000
vn 0.970142 -0.242536 0.000000
vn 0.970143 -0.242536 0.000000
vn 0.970143 -0.242536 0.000000
vn 0.970143 -0.242536 0.000000
vn -0.000000 -1.000000 0.000000
vn -0.000000 -1.000000 0.000000
vn -0.000000 -1.000000 0.000000
vn -0.000000 -1.000000 0.000000
vn -0.000000 -1.000000 0.000000
vn -0.000000 -1.000000 0.000000
vn 0.970142 -0.242536 0.000000
vn 0.970142 -0.242536 0.000000
vn 0.970142 -0.242536 0.000000
vn 0.970143 -0.242536 0.000000
vn 0.970143 -0.242536 0.000000
vn 0.970143 -0.242536 0.000000
vn 0.000001 -0.000000 1.000000
vn 0.000001 -0.000000 1.000000
vn 0.000001 -0.000000 1.000000
vn 0.000001 0.000000 1.000000
vn 0.000001 0.000000 1.000000
vn 0.000001 0.000000 1.000000
vn -1.000000 0.000000 0.000000
vn -1.000000 0.000000 0.000000
vn -1.000000 0.000000 0.000000
vn -1.000000 0.000000 0.000000
vn -1.000000 0.000000 0.000000
vn -1.000000 0.000000 0.000000
vn -0.000000 -0.242536 -0.970142
vn -0.000000 -0.242536 -0.970142
vn -0.000000 -0.242536 -0.970142
vn -0.000000 -0.242536 -0.970142
vn -0.000000 -0.242536 -0.970142
vn -0.000000 -0.242536 -0.970142
vn -0.000000 -1.000000 0.000000
vn -0.000000 -1.000000 0.000000
vn -0.000000 -1.000000 0.000000
vn -0.000000 -1.000000 0.000000
vn -0.000000 -1.000000 0.000000
vn -0.000000 -1.000000 0.000000
vn -0.000000 -0.242536 -0.970142
vn -0.000000 -0.242536 -0.970142
vn -0.000000 -0.242536 -0.970142
vn -0.000000 -0.242535 -0.970143
vn -0.000000 -0.242535 -0.970143
vn -0.000000 -0.242535 -0.970143
vn 1.000000 -0.000000 0.000000
vn 1.000000 -0.000000 0.000000
vn 1.000000 -0.000000 0.000000
vn 1.000000 0.000000 -0.000003
vn 1.000000 0.000000 -0.000003
vn 1.000000 0.000000 -0.000003
vn -0.000000 0.000000 1.000000
vn -0.000000 0.000000 1.000000
vn -0.000000 0.000000 1.000000
vn -0.000000 0.000001 1.000000
vn -0.000000 0.000001 1.000000
vn -0.000000 0.000001 1.000000
vn -0.970142 -0.242536 0.000000
vn -0.970142 -0.242536 0.000000
vn -0.970142 -0.242536 0.000000
vn -0.970143 -0.242535 0.000000
vn -0.970143 -0.242535 0.000000
vn -0.970143 -0.242535 0.000000
vn -0.000000 -1.000000 0.000000
vn -0.000000 -1.000000 0.000000
vn -0.000000 -1.000000 0.000000
vn -0.000000 -1.000000 0.000000
vn -0.000000 -1.000000 0.000000
vn -0.000000 -1.000000 0.000000
vn 0.000000 1.000000 0.000000
vn 0.000000 1.000000 0.000000
vn 0.000000 1.000000 0.000000
vn -0.000000 1.000000 0.000000
vn -0.000000 1.000000 0.000000
vn -0.000000 1.000000 0.000000
vn -0.000000 0.000000 -1.000000
vn -0.000000 0.000000 -1.000000
vn -0.000000 0.000000 -1.000000
vn -0.000000 0.000000 -1.000000
vn -0.000000 0.000000 -1.000000
vn -0.000000 0.000000 -1.000000
vn 0.000000 0.000000 1.000000
vn 0.000000 0.000000 1.000000
vn 0.000000 0.000000 1.000000
vn 0.000000 0.000000 1.000000
vn 0.000000 0.000000 1.000000
vn 0.000000 0.000000 1.000000
vn 0.000000 0.000000 1.000000
vn 0.000000 0.000000 1.000000
vn 0.000000 0.000000 1.000000
vn 0.000000 0.000000 1.000000
vn 0.000000 0.000000 1.000000
vn 0.000000 0.000000 1.000000
vn -0.000000 1.000000 0.000000
vn -0.000000 1.000000 0.000000
vn -0.000000 1.000000 0.000000
vn -0.000000 1.000000 0.000000
vn -0.000000 1.000000 0.000000
vn -0.000000 1.000000 0.000000
vn -0.000000 0.000000 -1.000000
vn -0.000000 0.000000 -1.000000
vn -0.000000 0.000000 -1.000000
vn -0.000000 0.000000 -1.000000
vn -0.000000 0.000000 -1.000000
vn -0.000000 0.000000 -1.000000
vn -0.000000 0.999995 -0.003043
vn -0.000000 0.999995 -0.003043
vn -0.000000 0.999995 -0.003043
vn 0.000000 0.999995 -0.003043
vn 0.000000 0.999995 -0.003043
vn 0.000000 0.999995 -0.003043
vn -0.000000 0.842461 -0.538757
vn -0.000000 0.842461 -0.538757
vn -0.000000 0.842461 -0.538757
vn -0.000000 0.842461 -0.538757
vn -0.000000 0.842461 -0.538757
vn -0.000000 0.842461 -0.538757
vn -0.000001 0.439695 -0.898147
vn -0.000001 0.439695 -0.898147
vn -0.000001 0.439695 -0.898147
vn -0.000000 0.439695 -0.898147
vn -0.000000 0.439695 -0.898147
vn -0.000000 0.439695 -0.898147
vn 1.000000 0.000000 0.000000
vn 1.000000 0.000000 0.000000
vn 1.000000 0.000000 0.000000
vn 1.000000 0.000000 0.000000
vn 1.000000 0.000000 0.000000
vn 1.000000 0.000000 0.000000
vn 1.000000 0.000000 0.000000
vn 1.000000 0.000000 0.000000
vn 1.000000 0.000000 0.000000
vn 1.000000 0.000000 -0.000001
vn 1.000000 0.000000 -0.000001
vn 1.000000 0.000000 -0.000001
vn 1.000000 0.000000 -0.000001
vn 1.000000 0.000000 -0.000001
vn 1.000000 0.000000 -0.000001
vn 1.000000 0.000000 0.000000
vn 1.000000 0.000000 0.000000
vn 1.000000 0.000000 0.000000
vn 1.000000 0.000000 -0.000000
vn 1.000000 0.000000 -0.000000
vn 1.000000 0.000000 -0.000000
vn 1.000000 0.000000 -0.000000
vn 1.000000 0.000000 -0.000000
vn 1.000000 0.000000 -0.000000
vn -1.000000 0.000000 0.000000
vn -1.000000 0.000000 0.000000
vn -1.000000 0.000000 0.000000
vn -1.000000 0.000000 0.000000
vn -1.000000 0.000000 0.000000
vn -1.000000 0.000000 0.000000
vn -1.000000 0.000000 0.000001
vn -1.000000 0.000000 0.000001
vn -1.000000 0.000000 0.000001
vn -1.000000 0.000000 0.000000
vn -1.000000 0.000000 0.000000
vn -1.000000 0.000000 0.000000
vn -1.000000 0.000000 0.000000
vn -1.000000 0.000000 0.000000
vn -1.000000 0.000000 0.000000
vn -1.000000 0.000000 0.000001
vn -1.000000 0.000000 0.000001
vn -1.000000 0.000000 0.000001
vn -1.000000 0.000000 0.000000
vn -1.000000 0.000000 0.000000
vn -1.000000 0.000000 0.000000
vn -1.000000 0.000000 0.000000
vn -1.000000 0.000000 0.000000
vn -1.000000 0.000000 0.000000
vn -1.000000 0.000000 0.000000
vn -1.000000 0.000000 0.000000
vn -1.000000 0.000000 0.000000
vn -1.000000 0.000000 0.000001
vn -1.000000 0.000000 0.000001
vn -1.000000 0.000000 0.000001
vn 1.000000 0.000000 -0.000001
vn 1.000000 0.000000 -0.000001
vn 1.000000 0.000000 -0.000001
vn 1.000000 0.000000 0.000000
vn 1.000000 0.000000 0.000000
vn 1.000000 0.000000 0.000000
vn -0.000000 0.816458 -0.577404
vn -0.000000 0.816458 -0.577404
vn -0.000000 0.816458 -0.577404
vn -0.000000 0.816458 -0.577405
vn -0.000000 0.816458 -0.577405
vn -0.000000 0.816458 -0.577405
vn 0.000001 0.000000 1.000000
vn 0.000001 0.000000 1.000000
vn 0.000001 0.000000 1.000000
vn 0.000001 0.000000 1.000000
vn 0.000001 0.000000 1.000000
vn 0.000001 0.000000 1.000000
vn 0.000000 1.000000 0.000000
vn 0.000000 1.000000 0.000000
vn 0.000000 1.000000 0.000000
vn -0.000000 1.000000 0.000000
vn -0.000000 1.000000 0.000000
vn -0.000000 1.000000 0.000000
vn -0.000000 0.000000 -1.000000
vn -0.000000 0.000000 -1.000000
vn -0.000000 0.000000 -1.000000
vn -0.000000 0.000000 -1.000000
vn -0.000000 0.000000 -1.000000
vn -0.000000 0.000000 -1.000000
vn 0.000000 0.999995 -0.003043
vn 0.000000 0.999995 -0.003043
vn 0.000000 0.999995 -0.003043
vn -0.000000 0.999995 -0.003043
vn -0.000000 0.999995 -0.003043
vn -0.000000 0.999995 -0.003043
vn 0.000000 0.842461 -0.538757
vn 0.000000 0.842461 -0.538757
vn 0.000000 0.842461 -0.538757
vn -0.000000 0.842461 -0.538757
vn -0.000000 0.842461 -0.538757
vn -0.000000 0.842461 -0.538757
vn -0.000000 0.439695 -0.898147
vn -0.000000 0.439695 -0.898147
vn -0.000000 0.439695 -0.898147
vn -0.000001 0.439695 -0.898147
vn -0.000001 0.439695 -0.898147
vn -0.000001 0.439695 -0.898147
vn -1.000000 0.000000 0.000001
vn -1.000000 0.000000 0.000001
vn -1.000000 0.000000 0.000001
vn -1.000000 0.000000 0.000000
vn -1.000000 0.000000 0.000000
vn -1.000000 0.000000 0.000000
vn -1.000000 0.000000 0.000000
vn -1.000000 0.000000 0.000000
vn -1.000000 0.000000 0.000000
vn -1.000000 0.000000 0.000000
vn -1.000000 0.000000 0.000000
vn -1.000000 0.000000 0.000000
vn -1.000000 0.000000 0.000001
vn -1.000000 0.000000 0.000001
vn -1.000000 0.000000 0.000001
vn -1.000000 0.000000 0.000000
vn -1.000000 0.000000 0.000000
vn -1.000000 0.000000 0.000000
vn -1.000000 0.000000 0.000001
vn -1.000000 0.000000 0.000001
vn -1.000000 0.000000 0.000001
vn -1.000000 0.000000 0.000000
vn -1.000000 0.000000 0.000000
vn -1.000000 0.000000 0.000000
vn 1.000000 0.000000 0.000000
vn 1.000000 0.000000 0.000000
vn 1.000000 0.000000 0.000000
vn 1.000000 0.000000 -0.000003
vn 1.000000 0.000000 -0.000003
vn 1.000000 0.000000 -0.000003
vn 1.000000 0.000000 0.000000
vn 1.000000 0.000000 0.000000
vn 1.000000 0.000000 0.000000
vn 1.000000 0.000000 0.000001
vn 1.000000 0.000000 0.000001
vn 1.000000 0.000000 0.000001
vn 1.000000 0.000000 -0.000001
vn 1.000000 0.000000 -0.000001
vn 1.000000 0.000000 -0.000001
vn 1.000000 0.000000 -0.000001
vn 1.000000 0.000000 -0.000001
vn 1.000000 0.000000 -0.000001
vn 1.000000 0.000000 -0.000000
vn 1.000000 0.000000 -0.000000
vn 1.000000 0.000000 -0.000000
vn 1.000000 0.000000 -0.000000
vn 1.000000 0.000000 -0.000000
vn 1.000000 0.000000 -0.000000
vn 1.000000 0.000000 -0.000001
vn 1.000000 0.000000 -0.000001
vn 1.000000 0.000000 -0.000001
vn 1.000000 0.000000 0.000000
vn 1.000000 0.000000 0.000000
vn 1.000000 0.000000 0.000000
vn -1.000000 0.000000 0.000001
vn -1.000000 0.000000 0.000001
vn -1.000000 0.000000 0.000001
vn -1.000000 0.000000 0.000000
vn -1.000000 0.000000 0.000000
vn -1.000000 0.000000 0.000000
vn -0.000000 0.816458 -0.577404
vn -0.000000 0.816458 -0.577404
vn -0.000000 0.816458 -0.577404
vn -0.000000 0.816458 -0.577405
vn -0.000000 0.816458 -0.577405
vn -0.000000 0.816458 -0.577405
vn -0.000000 0.000000 -1.000000
vn -0.000000 0.000000 -1.000000
vn -0.000000 0.000000 -1.000000
vn -0.000000 0.000000 -1.000000
vn -0.000000 0.000000 -1.000000
vn -0.000000 0.000000 -1.000000
vn 0.000000 0.000000 1.000000
vn 0.000000 0.000000 1.000000
vn 0.000000 0.000000 1.000000
vn 0.000000 0.000000 1.000000
vn 0.000000 0.000000 1.000000
vn 0.000000 0.000000 1.000000
vn 0.000000 1.000000 0.000000
vn 0.000000 1.000000 0.000000
vn 0.000000 1.000000 0.000000
vn -0.000000 1.000000 0.000000
vn -0.000000 1.000000 0.000000
vn -0.000000 1.000000 0.000000
vn -0.014274 -0.999173 0.038064
vn -0.014274 -0.999173 0.038064
vn -0.014274 -0.999173 0.038064
vn -0.035687 -0.999247 0.015227
vn -0.035687 -0.999247 0.015227
vn -0.035687 -0.999247 0.015227
vn -0.036223 0.834163 0.550328
vn -0.036223 0.834163 0.550328
vn -0.036223 0.834163 0.550328
vn -0.964277 0.220406 0.146938
vn -0.964277 0.220406 0.146938
vn -0.964277 0.220406 0.146938
vn -0.867030 0.495446 0.052848
vn -0.867030 0.495446 0.052848
vn -0.867030 0.495446 0.052848
vn 0.129847 0.207756 0.969524
vn 0.129847 0.207756 0.969524
vn 0.129847 0.207756 0.969524
vn 0.047170 0.471696 0.880499
vn 0.047170 0.471696 0.880499
vn 0.047170 0.471696 0.880499
vn -0.129847 0.207756 -0.969524
vn -0.129847 0.207756 -0.969524
vn -0.129847 0.207756 -0.969524
vn -0.047170 0.471696 -0.880499
vn -0.047170 0.471696 -0.880499
vn -0.047170 0.471696 -0.880499
vn 0.964277 0.220407 -0.146938
vn 0.964277 0.220407 -0.146938
vn 0.964277 0.220407 -0.146938
vn 0.867030 0.495446 -0.052848
vn 0.867030 0.495446 -0.052848
vn 0.867030 0.495446 -0.052848
vn 0.860743 0.491853 0.131160
vn 0.860743 0.491853 0.131160
vn 0.860743 0.491853 0.131160
vn 0.977076 0.205701 0.054853
vn 0.977076 0.205701 0.054853
vn 0.977076 0.205701 0.054853
vn 0.868243 0.496139 -0.000000
vn 0.868243 0.496139 -0.000000
vn 0.868243 0.496139 -0.000000
vn 0.868243 0.496139 -0.000000
vn 0.868243 0.496139 -0.000000
vn 0.868243 0.496139 -0.000000
vn 0.867030 -0.495446 0.052847
vn 0.867030 -0.495446 0.052847
vn 0.867030 -0.495446 0.052847
vn 0.964277 -0.220407 0.146937
vn 0.964277 -0.220407 0.146937
vn 0.964277 -0.220407 0.146937
vn 0.988588 0.000000 0.150642
vn 0.988588 0.000000 0.150642
vn 0.988588 0.000000 0.150642
vn 0.988588 0.000000 0.150642
vn 0.988588 0.000000 0.150642
vn 0.988588 0.000000 0.150642
vn 0.868243 -0.496139 -0.000000
vn 0.868243 -0.496139 -0.000000
vn 0.868243 -0.496139 -0.000000
vn 0.868243 -0.496139 -0.000000
vn 0.868243 -0.496139 -0.000000
vn 0.868243 -0.496139 -0.000000
vn 1.000000 0.000000 -0.000000
vn 1.000000 0.000000 -0.000000
vn 1.000000 0.000000 -0.000000
vn 1.000000 0.000000 -0.000000
vn 1.000000 0.000000 -0.000000
vn 1.000000 0.000000 -0.000000
vn 0.977076 -0.205701 -0.054854
vn 0.977076 -0.205701 -0.054854
vn 0.977076 -0.205701 -0.054854
vn 0.860742 -0.491853 -0.131161
vn 0.860742 -0.491853 -0.131161
vn 0.860742 -0.491853 -0.131161
vn 0.988588 0.000000 -0.150642
vn 0.988588 0.000000 -0.150642
vn 0.988588 0.000000 -0.150642
vn 0.988588 0.000000 -0.150642
vn 0.988588 0.000000 -0.150642
vn 0.988588 0.000000 -0.150642
vn 0.117241 0.468964 -0.875401
vn 0.117241 0.468964 -0.875401
vn 0.117241 0.468964 -0.875401
vn 0.048351 0.193405 -0.979927
vn 0.048351 0.193405 -0.979927
vn 0.048351 0.193405 -0.979927
vn -0.000000 0.472221 -0.881480
vn -0.000000 0.472221 -0.881480
vn -0.000000 0.472221 -0.881480
vn -0.000000 0.472222 -0.881480
vn -0.000000 0.472222 -0.881480
vn -0.000000 0.472222 -0.881480
vn 0.047169 -0.471696 -0.880499
vn 0.047169 -0.471696 -0.880499
vn 0.047169 -0.471696 -0.880499
vn 0.129847 -0.207754 -0.969525
vn 0.129847 -0.207754 -0.969525
vn 0.129847 -0.207754 -0.969525
vn 0.132743 0.000000 -0.991150
vn 0.132743 0.000000 -0.991150
vn 0.132743 0.000000 -0.991150
vn 0.132743 0.000000 -0.991150
vn 0.132743 0.000000 -0.991150
vn 0.132743 0.000000 -0.991150
vn -0.000000 -0.472220 -0.881480
vn -0.000000 -0.472220 -0.881480
vn -0.000000 -0.472220 -0.881480
vn -0.000000 -0.472222 -0.881479
vn -0.000000 -0.472222 -0.881479
vn -0.000000 -0.472222 -0.881479
vn -0.000000 0.000000 -1.000000
vn -0.000000 0.000000 -1.000000
vn -0.000000 0.000000 -1.000000
vn -0.000000 0.000000 -1.000000
vn -0.000000 0.000000 -1.000000
vn -0.000000 0.000000 -1.000000
vn -0.048352 -0.193407 -0.979926
vn -0.048352 -0.193407 -0.979926
vn -0.048352 -0.193407 -0.979926
vn -0.117242 -0.468964 -0.875401
vn -0.117242 -0.468964 -0.875401
vn -0.117242 -0.468964 -0.875401
vn -0.132744 0.000000 -0.991150
vn -0.132744 0.000000 -0.991150
vn -0.132744 0.000000 -0.991150
vn -0.132744 0.000000 -0.991150
vn -0.132744 0.000000 -0.991150
vn -0.132744 0.000000 -0.991150
vn -0.117241 0.468964 0.875401
vn -0.117241 0.468964 0.875401
vn -0.117241 0.468964 0.875401
vn -0.048351 0.193406 0.979927
vn -0.048351 0.193406 0.979927
vn -0.048351 0.193406 0.979927
vn 0.000000 0.472220 0.881481
vn 0.000000 0.472220 0.881481
vn 0.000000 0.472220 0.881481
vn 0.000000 0.472222 0.881479
vn 0.000000 0.472222 0.881479
vn 0.000000 0.472222 0.881479
vn -0.047169 -0.471695 0.880499
vn -0.047169 -0.471695 0.880499
vn -0.047169 -0.471695 0.880499
vn -0.129847 -0.207755 0.969525
vn -0.129847 -0.207755 0.969525
vn -0.129847 -0.207755 0.969525
vn -0.132743 0.000000 0.991150
vn -0.132743 0.000000 0.991150
vn -0.132743 0.000000 0.991150
vn -0.132743 0.000000 0.991150
vn -0.132743 0.000000 0.991150
vn -0.132743 0.000000 0.991150
vn 0.000000 -0.472221 0.881480
vn 0.000000 -0.472221 0.881480
vn 0.000000 -0.472221 0.881480
vn 0.000000 -0.472222 0.881480
vn 0.000000 -0.472222 0.881480
vn 0.000000 -0.472222 0.881480
vn 0.000000 0.000000 1.000000
vn 0.000000 0.000000 1.000000
vn 0.000000 0.000000 1.000000
vn 0.000000 0.000000 1.000000
vn 0.000000 0.000000 1.000000
vn 0.000000 0.000000 1.000000
vn 0.048352 -0.193408 0.979926
vn 0.048352 -0.193408 0.979926
vn 0.048352 -0.193408 0.979926
vn 0.117241 -0.468965 0.875401
vn 0.117241 -0.468965 0.875401
vn 0.117241 -0.468965 0.875401
vn 0.132744 0.000000 0.991150
vn 0.132744 0.000000 0.991150
vn 0.132744 0.000000 0.991150
vn 0.132744 0.000000 0.991150
vn 0.132744 0.000000 0.991150
vn 0.132744 0.000000 0.991150
vn -0.860743 0.491853 -0.131161
vn -0.860743 0.491853 -0.131161
vn -0.860743 0.491853 -0.131161
vn -0.977076 0.205701 -0.054853
vn -0.977076 0.205701 -0.054853
vn -0.977076 0.205701 -0.054853
vn -0.868243 0.496139 0.000000
vn -0.868243 0.496139 0.000000
vn -0.868243 0.496139 0.000000
vn -0.868243 0.496139 0.000000
vn -0.868243 0.496139 0.000000
vn -0.868243 0.496139 0.000000
vn -0.867030 -0.495446 -0.052848
vn -0.867030 -0.495446 -0.052848
vn -0.867030 -0.495446 -0.052848
vn -0.964277 -0.220406 -0.146937
vn -0.964277 -0.220406 -0.146937
vn -0.964277 -0.220406 -0.146937
vn -0.988588 0.000000 -0.150642
vn -0.988588 0.000000 -0.150642
vn -0.988588 0.000000 -0.150642
vn -0.988588 0.000000 -0.150642
vn -0.988588 0.000000 -0.150642
vn -0.988588 0.000000 -0.150642
vn -0.868243 -0.496139 0.000000
vn -0.868243 -0.496139 0.000000
vn -0.868243 -0.496139 0.000000
vn -0.868243 -0.496139 0.000000
vn -0.868243 -0.496139 0.000000
vn -0.868243 -0.496139 0.000000
vn -1.000000 0.000000 0.000000
vn -1.000000 0.000000 0.000000
vn -1.000000 0.000000 0.000000
vn -1.000000 0.000000 0.000000
vn -1.000000 0.000000 0.000000
vn -1.000000 0.000000 0.000000
vn -0.977077 -0.205700 0.054854
vn -0.977077 -0.205700 0.054854
vn -0.977077 -0.205700 0.054854
vn -0.860742 -0.491853 0.131161
vn -0.860742 -0.491853 0.131161
vn -0.860742 -0.491853 0.131161
vn -0.988588 0.000000 0.150642
vn -0.988588 0.000000 0.150642
vn -0.988588 0.000000 0.150642
vn -0.988588 0.000000 0.150642
vn -0.988588 0.000000 0.150642
vn -0.988588 0.000000 0.150642
vn 0.525612 0.849813 0.039363
vn 0.525612 0.849813 0.039363
vn 0.525612 0.849813 0.039363
vn 0.000000 0.863577 0.504217
vn 0.000000 0.863577 0.504217
vn 0.000000 0.863577 0.504217
vn 0.000000 0.863577 0.504217
vn 0.000000 0.863577 0.504217
vn 0.000000 0.863577 0.504217
vn 0.525612 0.849813 -0.039363
vn 0.525612 0.849813 -0.039363
vn 0.525612 0.849813 -0.039363
vn 0.480152 0.877185 -0.000000
vn 0.480152 0.877185 -0.000000
vn 0.480152 0.877185 -0.000000
vn 0.480152 0.877185 -0.000000
vn 0.480152 0.877185 -0.000000
vn 0.480152 0.877185 -0.000000
vn -0.000000 0.863577 -0.504217
vn -0.000000 0.863577 -0.504217
vn -0.000000 0.863577 -0.504217
vn -0.000000 0.863577 -0.504217
vn -0.000000 0.863577 -0.504217
vn -0.000000 0.863577 -0.504217
vn 0.000000 1.000000 0.000000
vn 0.000000 1.000000 0.000000
vn 0.000000 1.000000 0.000000
vn -0.000000 1.000000 0.000000
vn -0.000000 1.000000 0.000000
vn -0.000000 1.000000 0.000000
vn -0.036224 0.834162 -0.550328
vn -0.036224 0.834162 -0.550328
vn -0.036224 0.834162 -0.550328
vn -0.480152 0.877185 0.000000
vn -0.480152 0.877185 0.000000
vn -0.480152 0.877185 0.000000
vn -0.480152 0.877185 0.000000
vn -0.480152 0.877185 0.000000
vn -0.480152 0.877185 0.000000
vn -0.035666 -0.998639 -0.038043
vn -0.035666 -0.998639 -0.038043
vn -0.035666 -0.998639 -0.038043
vn -0.013156 -0.999815 -0.014033
vn -0.013156 -0.999815 -0.014033
vn -0.013156 -0.999815 -0.014033
vn -0.035691 -0.999363 0.000000
vn -0.035691 -0.999363 0.000000
vn -0.035691 -0.999363 0.000000
vn -0.035691 -0.999363 0.000000
vn -0.035691 -0.999363 0.000000
vn -0.035691 -0.999363 0.000000
vn 0.035687 -0.999247 -0.015227
vn 0.035687 -0.999247 -0.015227
vn 0.035687 -0.999247 -0.015227
vn 0.014274 -0.999173 -0.038064
vn 0.014274 -0.999173 -0.038064
vn 0.014274 -0.999173 -0.038064
vn -0.000000 -0.999275 -0.038068
vn -0.000000 -0.999275 -0.038068
vn -0.000000 -0.999275 -0.038068
vn -0.000000 -0.999275 -0.038068
vn -0.000000 -0.999275 -0.038068
vn -0.000000 -0.999275 -0.038068
vn 0.035691 -0.999363 -0.000000
vn 0.035691 -0.999363 -0.000000
vn 0.035691 -0.999363 -0.000000
vn 0.035692 -0.999363 -0.000000
vn 0.035692 -0.999363 -0.000000
vn 0.035692 -0.999363 -0.000000
vn -0.000000 -1.000000 0.000000
vn -0.000000 -1.000000 0.000000
vn -0.000000 -1.000000 0.000000
vn -0.000000 -1.000000 0.000000
vn -0.000000 -1.000000 0.000000
vn -0.000000 -1.000000 0.000000
vn 0.013156 -0.999815 0.014033
vn 0.013156 -0.999815 0.014033
vn 0.013156 -0.999815 0.014033
vn 0.035666 -0.998639 0.038043
vn 0.035666 -0.998639 0.038043
vn 0.035666 -0.998639 0.038043
vn -0.000000 -0.999275 0.038068
vn -0.000000 -0.999275 0.038068
vn -0.000000 -0.999275 0.038068
vn 0.000000 -0.999275 0.038068
vn 0.000000 -0.999275 0.038068
vn 0.000000 -0.999275 0.038068
vn -0.525612 0.849813 0.039364
vn -0.525612 0.849813 0.039364
vn -0.525612 0.849813 0.039364
vn 0.036224 0.834163 0.550328
vn 0.036224 0.834163 0.550328
vn 0.036224 0.834163 0.550328
vn 0.036223 0.834162 -0.550328
vn 0.036223 0.834162 -0.550328
vn 0.036223 0.834162 -0.550328
vn -0.525612 0.849813 -0.039364
vn -0.525612 0.849813 -0.039364
vn -0.525612 0.849813 -0.039364
vn -0.014268 0.047560 0.998766
vn -0.014268 0.047560 0.998766
vn -0.014268 0.047560 0.998766
vn -0.035685 0.019032 0.999182
vn -0.035685 0.019032 0.999182
vn -0.035685 0.019032 0.999182
vn -0.033484 0.635875 -0.771066
vn -0.033484 0.635875 -0.771066
vn -0.033484 0.635875 -0.771066
vn -0.958474 0.182567 -0.219080
vn -0.958474 0.182567 -0.219080
vn -0.958474 0.182567 -0.219080
vn -0.866350 0.066008 -0.495056
vn -0.866350 0.066008 -0.495056
vn -0.866350 0.066008 -0.495056
vn 0.105019 0.980172 -0.168028
vn 0.105019 0.980172 -0.168028
vn 0.105019 0.980172 -0.168028
vn 0.039361 0.918432 -0.393615
vn 0.039361 0.918432 -0.393615
vn 0.039361 0.918432 -0.393615
vn -0.105018 -0.980172 -0.168030
vn -0.105018 -0.980172 -0.168030
vn -0.105018 -0.980172 -0.168030
vn -0.039362 -0.918433 -0.393614
vn -0.039362 -0.918433 -0.393614
vn -0.039362 -0.918433 -0.393614
vn 0.958474 -0.182566 -0.219082
vn 0.958474 -0.182566 -0.219082
vn 0.958474 -0.182566 -0.219082
vn 0.866349 -0.066008 -0.495057
vn 0.866349 -0.066008 -0.495057
vn 0.866349 -0.066008 -0.495057
vn 0.856608 0.163163 -0.489491
vn 0.856608 0.163163 -0.489491
vn 0.856608 0.163163 -0.489491
vn 0.976251 0.068509 -0.205527
vn 0.976251 0.068509 -0.205527
vn 0.976251 0.068509 -0.205527
vn 0.868242 0.000000 -0.496140
vn 0.868242 0.000000 -0.496140
vn 0.868242 0.000000 -0.496140
vn 0.868243 0.000000 -0.496138
vn 0.868243 0.000000 -0.496138
vn 0.868243 0.000000 -0.496138
vn 0.866350 0.066008 0.495056
vn 0.866350 0.066008 0.495056
vn 0.866350 0.066008 0.495056
vn 0.958474 0.182567 0.219080
vn 0.958474 0.182567 0.219080
vn 0.958474 0.182567 0.219080
vn 0.982339 0.187112 0.000000
vn 0.982339 0.187112 0.000000
vn 0.982339 0.187112 0.000000
vn 0.982339 0.187112 0.000000
vn 0.982339 0.187112 0.000000
vn 0.982339 0.187112 0.000000
vn 0.868243 0.000000 0.496139
vn 0.868243 0.000000 0.496139
vn 0.868243 0.000000 0.496139
vn 0.868243 0.000000 0.496139
vn 0.868243 0.000000 0.496139
vn 0.868243 0.000000 0.496139
vn 1.000000 0.000000 0.000000
vn 1.000000 0.000000 0.000000
vn 1.000000 0.000000 0.000000
vn 1.000000 0.000000 0.000000
vn 1.000000 0.000000 0.000000
vn 1.000000 0.000000 0.000000
vn 0.976251 -0.068509 0.205527
vn 0.976251 -0.068509 0.205527
vn 0.976251 -0.068509 0.205527
vn 0.856608 -0.163164 0.489490
vn 0.856608 -0.163164 0.489490
vn 0.856608 -0.163164 0.489490
vn 0.982339 -0.187112 0.000000
vn 0.982339 -0.187112 0.000000
vn 0.982339 -0.187112 0.000000
vn 0.982339 -0.187112 0.000000
vn 0.982339 -0.187112 0.000000
vn 0.982339 -0.187112 0.000000
vn 0.098006 -0.914720 -0.392023
vn 0.098006 -0.914720 -0.392023
vn 0.098006 -0.914720 -0.392023
vn 0.038961 -0.987013 -0.155845
vn 0.038961 -0.987013 -0.155845
vn 0.038961 -0.987013 -0.155845
vn -0.000000 -0.919145 -0.393919
vn -0.000000 -0.919145 -0.393919
vn -0.000000 -0.919145 -0.393919
vn -0.000000 -0.919145 -0.393920
vn -0.000000 -0.919145 -0.393920
vn -0.000000 -0.919145 -0.393920
vn 0.039362 -0.918433 0.393614
vn 0.039362 -0.918433 0.393614
vn 0.039362 -0.918433 0.393614
vn 0.105019 -0.980172 0.168030
vn 0.105019 -0.980172 0.168030
vn 0.105019 -0.980172 0.168030
vn 0.106533 -0.994309 -0.000000
vn 0.106533 -0.994309 -0.000000
vn 0.106533 -0.994309 -0.000000
vn 0.106533 -0.994309 0.000000
vn 0.106533 -0.994309 0.000000
vn 0.106533 -0.994309 0.000000
vn 0.000000 -0.919145 0.393920
vn 0.000000 -0.919145 0.393920
vn 0.000000 -0.919145 0.393920
vn 0.000000 -0.919145 0.393919
vn 0.000000 -0.919145 0.393919
vn 0.000000 -0.919145 0.393919
vn -0.000000 -1.000000 0.000000
vn -0.000000 -1.000000 0.000000
vn -0.000000 -1.000000 0.000000
vn -0.000000 -1.000000 0.000000
vn -0.000000 -1.000000 0.000000
vn -0.000000 -1.000000 0.000000
vn -0.038961 -0.987013 0.155845
vn -0.038961 -0.987013 0.155845
vn -0.038961 -0.987013 0.155845
vn -0.098006 -0.914720 0.392023
vn -0.098006 -0.914720 0.392023
vn -0.098006 -0.914720 0.392023
vn -0.106533 -0.994309 0.000000
vn -0.106533 -0.994309 0.000000
vn -0.106533 -0.994309 0.000000
vn -0.106533 -0.994309 0.000000
vn -0.106533 -0.994309 0.000000
vn -0.106533 -0.994309 0.000000
vn -0.098006 0.914720 -0.392023
vn -0.098006 0.914720 -0.392023
vn -0.098006 0.914720 -0.392023
vn -0.038961 0.987013 -0.155843
vn -0.038961 0.987013 -0.155843
vn -0.038961 0.987013 -0.155843
vn -0.000000 0.919145 -0.393920
vn -0.000000 0.919145 -0.393920
vn -0.000000 0.919145 -0.393920
vn -0.000000 0.919145 -0.393920
vn -0.000000 0.919145 -0.393920
vn -0.000000 0.919145 -0.393920
vn -0.039362 0.918433 0.393614
vn -0.039362 0.918433 0.393614
vn -0.039362 0.918433 0.393614
vn -0.105018 0.980172 0.168030
vn -0.105018 0.980172 0.168030
vn -0.105018 0.980172 0.168030
vn -0.106533 0.994309 0.000000
vn -0.106533 0.994309 0.000000
vn -0.106533 0.994309 0.000000
vn -0.106534 0.994309 0.000000
vn -0.106534 0.994309 0.000000
vn -0.106534 0.994309 0.000000
vn -0.000000 0.919145 0.393920
vn -0.000000 0.919145 0.393920
vn -0.000000 0.919145 0.393920
vn 0.000000 0.919145 0.393920
vn 0.000000 0.919145 0.393920
vn 0.000000 0.919145 0.393920
vn 0.000000 1.000000 0.000000
vn 0.000000 1.000000 0.000000
vn 0.000000 1.000000 0.000000
vn -0.000000 1.000000 0.000000
vn -0.000000 1.000000 0.000000
vn -0.000000 1.000000 0.000000
vn 0.038961 0.987013 0.155844
vn 0.038961 0.987013 0.155844
vn 0.038961 0.987013 0.155844
vn 0.098006 0.914720 0.392023
vn 0.098006 0.914720 0.392023
vn 0.098006 0.914720 0.392023
vn 0.106534 0.994309 0.000000
vn 0.106534 0.994309 0.000000
vn 0.106534 0.994309 0.000000
vn 0.106533 0.994309 -0.000000
vn 0.106533 0.994309 -0.000000
vn 0.106533 0.994309 -0.000000
vn -0.856608 -0.163163 -0.489490
vn -0.856608 -0.163163 -0.489490
vn -0.856608 -0.163163 -0.489490
vn -0.976251 -0.068509 -0.205527
vn -0.976251 -0.068509 -0.205527
vn -0.976251 -0.068509 -0.205527
vn -0.868243 0.000000 -0.496139
vn -0.868243 0.000000 -0.496139
vn -0.868243 0.000000 -0.496139
vn -0.868243 0.000000 -0.496139
vn -0.868243 0.000000 -0.496139
vn -0.868243 0.000000 -0.496139
vn -0.866349 -0.066007 0.495058
vn -0.866349 -0.066007 0.495058
vn -0.866349 -0.066007 0.495058
vn -0.958474 -0.182567 0.219080
vn -0.958474 -0.182567 0.219080
vn -0.958474 -0.182567 0.219080
vn -0.982338 -0.187112 0.000000
vn -0.982338 -0.187112 0.000000
vn -0.982338 -0.187112 0.000000
vn -0.982339 -0.187112 0.000000
vn -0.982339 -0.187112 0.000000
vn -0.982339 -0.187112 0.000000
vn -0.868243 0.000000 0.496139
vn -0.868243 0.000000 0.496139
vn -0.868243 0.000000 0.496139
vn -0.868243 0.000000 0.496139
vn -0.868243 0.000000 0.496139
vn -0.868243 0.000000 0.496139
vn -1.000000 0.000000 0.000000
vn -1.000000 0.000000 0.000000
vn -1.000000 0.000000 0.000000
vn -1.000000 0.000000 0.000000
vn -1.000000 0.000000 0.000000
vn -1.000000 0.000000 0.000000
vn -0.976251 0.068509 0.205526
vn -0.976251 0.068509 0.205526
vn -0.976251 0.068509 0.205526
vn -0.856607 0.163163 0.489492
vn -0.856607 0.163163 0.489492
vn -0.856607 0.163163 0.489492
vn -0.982339 0.187112 0.000000
vn -0.982339 0.187112 0.000000
vn -0.982339 0.187112 0.000000
vn -0.982338 0.187112 0.000000
vn -0.982338 0.187112 0.000000
vn -0.982338 0.187112 0.000000
vn 0.525383 0.049183 -0.849443
vn 0.525383 0.049183 -0.849443
vn 0.525383 0.049183 -0.849443
vn -0.000000 0.589526 -0.807749
vn -0.000000 0.589526 -0.807749
vn -0.000000 0.589526 -0.807749
vn -0.000000 0.589526 -0.807749
vn -0.000000 0.589526 -0.807749
vn -0.000000 0.589526 -0.807749
vn 0.525383 -0.049183 -0.849443
vn 0.525383 -0.049183 -0.849443
vn 0.525383 -0.049183 -0.849443
vn 0.480152 -0.000000 -0.877186
vn 0.480152 -0.000000 -0.877186
vn 0.480152 -0.000000 -0.877186
vn 0.480151 -0.000000 -0.877186
vn 0.480151 -0.000000 -0.877186
vn 0.480151 -0.000000 -0.877186
vn -0.000000 -0.589526 -0.807749
vn -0.000000 -0.589526 -0.807749
vn -0.000000 -0.589526 -0.807749
vn -0.000000 -0.589526 -0.807749
vn -0.000000 -0.589526 -0.807749
vn -0.000000 -0.589526 -0.807749
vn -0.000000 -0.000000 -1.000000
vn -0.000000 -0.000000 -1.000000
vn -0.000000 -0.000000 -1.000000
vn -0.000000 -0.000000 -1.000000
vn -0.000000 -0.000000 -1.000000
vn -0.000000 -0.000000 -1.000000
vn -0.033484 -0.635875 -0.771065
vn -0.033484 -0.635875 -0.771065
vn -0.033484 -0.635875 -0.771065
vn -0.480152 0.000000 -0.877185
vn -0.480152 0.000000 -0.877185
vn -0.480152 0.000000 -0.877185
vn -0.480152 -0.000000 -0.877185
vn -0.480152 -0.000000 -0.877185
vn -0.480152 -0.000000 -0.877185
vn -0.035651 -0.047535 0.998233
vn -0.035651 -0.047535 0.998233
vn -0.035651 -0.047535 0.998233
vn -0.013154 -0.017539 0.999760
vn -0.013154 -0.017539 0.999760
vn -0.013154 -0.017539 0.999760
vn -0.035691 0.000000 0.999363
vn -0.035691 0.000000 0.999363
vn -0.035691 0.000000 0.999363
vn -0.035691 0.000000 0.999363
vn -0.035691 0.000000 0.999363
vn -0.035691 0.000000 0.999363
vn 0.035685 -0.019032 0.999182
vn 0.035685 -0.019032 0.999182
vn 0.035685 -0.019032 0.999182
vn 0.014269 -0.047560 0.998766
vn 0.014269 -0.047560 0.998766
vn 0.014269 -0.047560 0.998766
vn 0.000000 -0.047565 0.998868
vn 0.000000 -0.047565 0.998868
vn 0.000000 -0.047565 0.998868
vn 0.000000 -0.047565 0.998868
vn 0.000000 -0.047565 0.998868
vn 0.000000 -0.047565 0.998868
vn 0.035692 0.000000 0.999363
vn 0.035692 0.000000 0.999363
vn 0.035692 0.000000 0.999363
vn 0.035692 0.000000 0.999363
vn 0.035692 0.000000 0.999363
vn 0.035692 0.000000 0.999363
vn 0.000000 0.000000 1.000000
vn 0.000000 0.000000 1.000000
vn 0.000000 0.000000 1.000000
vn 0.000000 0.000000 1.000000
vn 0.000000 0.000000 1.000000
vn 0.000000 0.000000 1.000000
vn 0.013155 0.017539 0.999760
vn 0.013155 0.017539 0.999760
vn 0.013155 0.017539 0.999760
vn 0.035652 0.047535 0.998233
vn 0.035652 0.047535 0.998233
vn 0.035652 0.047535 0.998233
vn 0.000000 0.047565 0.998868
vn 0.000000 0.047565 0.998868
vn 0.000000 0.047565 0.998868
vn 0.000000 0.047565 0.998868
vn 0.000000 0.047565 0.998868
vn 0.000000 0.047565 0.998868
vn -0.525384 0.049183 -0.849443
vn -0.525384 0.049183 -0.849443
vn -0.525384 0.049183 -0.849443
vn 0.033483 0.635875 -0.771065
vn 0.033483 0.635875 -0.771065
vn 0.033483 0.635875 -0.771065
vn 0.033483 -0.635875 -0.771065
vn 0.033483 -0.635875 -0.771065
vn 0.033483 -0.635875 -0.771065
vn -0.525383 -0.049183 -0.849443
vn -0.525383 -0.049183 -0.849443
vn -0.525383 -0.049183 -0.849443

g Material.001
f 3/1/1 1/2/2 2/3/3
f 4/4/4 1/5/5 3/6/6
f 7/7/7 5/8/8 6/9/9
f 8/10/10 5/11/11 7/12/12
f 11/13/13 9/14/14 10/15/15
f 12/16/16 9/17/17 11/18/18
f 15/19/19 13/20/20 14/21/21
f 16/22/22 13/23/23 15/24/24
f 19/25/25 17/26/26 18/27/27
f 20/28/28 17/29/29 19/30/30
f 179/31/31 177/32/32 178/33/33
f 180/34/34 177/35/35 179/36/36
f 187/37/37 185/38/38 186/39/39
f 188/40/40 185/41/41 187/42/42
f 191/43/43 189/44/44 190/45/45
f 192/46/46 189/47/47 191/48/48
f 195/49/49 193/50/50 194/51/51
f 196/52/52 193/53/53 195/54/54
f 199/55/55 197/56/56 198/57/57
f 200/58/58 197/59/59 199/60/60
f 203/61/61 201/62/62 202/63/63
f 204/64/64 201/65/65 203/66/66
f 207/67/67 205/68/68 206/69/69
f 208/70/70 205/71/71 207/72/72
f 211/73/73 209/74/74 210/75/75
f 212/76/76 209/77/77 211/78/78
f 215/79/79 213/80/80 214/81/81
f 216/82/82 213/83/83 215/84/84
f 219/85/85 217/86/86 218/87/87
f 220/88/88 217/89/89 219/90/90
f 223/91/91 221/92/92 222/93/93
f 224/94/94 221/95/95 223/96/96
f 227/97/97 225/98/98 226/99/99
f 228/100/100 225/101/101 227/102/102
f 231/103/103 229/104/104 230/105/105
f 232/106/106 229/107/107 231/108/108
f 235/109/109 233/110/110 234/111/111
f 236/112/112 233/113/113 235/114/114
f 239/115/115 237/116/116 238/117/117
f 240/118/118 237/119/119 239/120/120
f 243/121/121 241/122/122 242/123/123
f 244/124/124 241/125/125 243/126/126
f 247/127/127 245/128/128 246/129/129
f 248/130/130 245/131/131 247/132/132
f 251/133/133 249/134/134 250/135/135
f 252/136/136 249/137/137 251/138/138
f 255/139/139 253/140/140 254/141/141
f 256/142/142 253/143/143 255/144/144
f 259/145/145 257/146/146 258/147/147
f 260/148/148 257/149/149 259/150/150

g Material
f 23/151/151 21/152/152 22/153/153
f 24/154/154 21/155/155 23/156/156
f 27/157/157 25/158/158 26/159/159
f 28/160/160 25/161/161 27/162/162
f 31/163/163 29/164/164 30/165/165
f 32/166/166 29/167/167 31/168/168
f 35/169/169 33/170/170 34/171/171
f 36/172/172 33/173/173 35/174/174
f 39/175/175 37/176/176 38/177/177
f 40/178/178 37/179/179 39/180/180
f 43/181/181 41/182/182 42/183/183
f 44/184/184 41/185/185 43/186/186
f 47/187/187 45/188/188 46/189/189
f 48/190/190 45/191/191 47/192/192
f 51/193/193 49/194/194 50/195/195
f 52/196/196 49/197/197 51/198/198
f 55/199/199 53/200/200 54/201/201
f 56/202/202 53/203/203 55/204/204
f 59/205/205 57/206/206 58/207/207
f 60/208/208 57/209/209 59/210/210
f 63/211/211 61/212/212 62/213/213
f 64/214/214 61/215/215 63/216/216
f 67/217/217 65/218/218 66/219/219
f 68/220/220 65/221/221 67/222/222
f 71/223/223 69/224/224 70/225/225
f 72/226/226 69/227/227 71/228/228
f 75/229/229 73/230/230 74/231/231
f 76/232/232 73/233/233 75/234/234
f 79/235/235 77/236/236 78/237/237
f 80/238/238 77/239/239 79/240/240
f 83/241/241 81/242/242 82/243/243
f 84/244/244 81/245/245 83/246/246
f 87/247/247 85/248/248 86/249/249
f 88/250/250 85/251/251 87/252/252
f 91/253/253 89/254/254 90/255/255
f 92/256/256 89/257/257 91/258/258
f 95/259/259 93/260/260 94/261/261
f 96/262/262 93/263/263 95/264/264
f 99/265/265 97/266/266 98/267/267
f 100/268/268 97/269/269 99/270/270
f 103/271/271 101/272/272 102/273/273
f 104/274/274 101/275/275 103/276/276
f 107/277/277 105/278/278 106/279/279
f 108/280/280 105/281/281 107/282/282
f 111/283/283 109/284/284 110/285/285
f 112/286/286 109/287/287 111/288/288
f 115/289/289 113/290/290 114/291/291
f 116/292/292 113/293/293 115/294/294
f 119/295/295 117/296/296 118/297/297
f 120/298/298 117/299/299 119/300/300
f 123/301/301 121/302/302 122/303/303
f 124/304/304 121/305/305 123/306/306
f 127/307/307 125/308/308 126/309/309
f 128/310/310 125/311/311 127/312/312
f 131/313/313 129/314/314 130/315/315
f 132/316/316 129/317/317 131/318/318
f 135/319/319 133/320/320 134/321/321
f 136/322/322 133/323/323 135/324/324
f 139/325/325 137/326/326 138/327/327
f 140/328/328 137/329/329 139/330/330
f 143/331/331 141/332/332 142/333/333
f 144/334/334 141/335/335 143/336/336
f 147/337/337 145/338/338 146/339/339
f 148/340/340 145/341/341 147/342/342
f 151/343/343 149/344/344 150/345/345
f 152/346/346 149/347/347 151/348/348
f 155/349/349 153/350/350 154/351/351
f 156/352/352 153/353/353 155/354/354
f 159/355/355 157/356/356 158/357/357
f 160/358/358 157/359/359 159/360/360
f 163/361/361 161/362/362 162/363/363
f 164/364/364 161/365/365 163/366/366
f 167/367/367 165/368/368 166/369/369
f 168/370/370 165/371/371 167/372/372
f 171/373/373 169/374/374 170/375/375
f 172/376/376 169/377/377 171/378/378
f 175/379/379 173/380/380 174/381/381
f 176/382/382 173/383/383 175/384/384
f 183/385/385 181/386/386 182/387/387
f 184/388/388 181/389/389 183/390/390
f 263/391/391 261/392/392 262/393/393
f 264/394/394 261/395/395 263/396/396
f 267/397/397 265/398/398 266/399/399
f 270/400/400 268/401/401 269/402/402
f 271/403/403 268/404/404 270/405/405
f 274/406/406 272/407/407 273/408/408
f 275/409/409 272/410/410 274/411/411
f 278/412/412 276/413/413 277/414/414
f 279/415/415 276/416/416 278/417/417
f 282/418/418 280/419/419 281/420/420
f 283/421/421 280/422/422 282/423/423
f 286/424/424 284/425/425 285/426/426
f 287/427/427 284/428/428 286/429/429
f 290/430/430 288/431/431 289/432/432
f 291/433/433 288/434/434 290/435/435
f 294/436/436 292/437/437 293/438/438
f 295/439/439 292/440/440 294/441/441
f 298/442/442 296/443/443 297/444/444
f 299/445/445 296/446/446 298/447/447
f 302/448/448 300/449/449 301/450/450
f 303/451/451 300/452/452 302/453/453
f 306/454/454 304/455/455 305/456/456
f 307/457/457 304/458/458 306/459/459
f 310/460/460 308/461/461 309/462/462
f 311/463/463 308/464/464 310/465/465
f 314/466/466 312/467/467 313/468/468
f 315/469/469 312/470/470 314/471/471
f 318/472/472 316/473/473 317/474/474
f 319/475/475 316/476/476 318/477/477
f 322/478/478 320/479/479 321/480/480
f 323/481/481 320/482/482 322/483/483
f 326/484/484 324/485/485 325/486/486
f 327/487/487 324/488/488 326/489/489
f 330/490/490 328/491/491 329/492/492
f 331/493/493 328/494/494 330/495/495
f 334/496/496 332/497/497 333/498/498
f 335/499/499 332/500/500 334/501/501
f 338/502/502 336/503/503 337/504/504
f 339/505/505 336/506/506 338/507/507
f 342/508/508 340/509/509 341/510/510
f 343/511/511 340/512/512 342/513/513
f 346/514/514 344/515/515 345/516/516
f 347/517/517 344/518/518 346/519/519
f 350/520/520 348/521/521 349/522/522
f 351/523/523 348/524/524 350/525/525
f 354/526/526 352/527/527 353/528/528
f 355/529/529 352/530/530 354/531/531
f 358/532/532 356/533/533 357/534/534
f 359/535/535 356/536/536 358/537/537
f 362/538/538 360/539/539 361/540/540
f 363/541/541 360/542/542 362/543/543
f 366/544/544 364/545/545 365/546/546
f 367/547/547 364/548/548 366/549/549
f 370/550/550 368/551/551 369/552/552
f 371/553/553 368/554/554 370/555/555
f 374/556/556 372/557/557 373/558/558
f 375/559/559 372/560/560 374/561/561
f 378/562/562 376/563/563 377/564/564
f 379/565/565 376/566/566 378/567/567
f 382/568/568 380/569/569 381/570/570
f 383/571/571 380/572/572 382/573/573
f 386/574/574 384/575/575 385/576/576
f 387/577/577 384/578/578 386/579/579
f 390/580/580 388/581/581 389/582/582
f 391/583/583 388/584/584 390/585/585
f 394/586/586 392/587/587 393/588/588
f 395/589/589 392/590/590 394/591/591
f 398/592/592 396/593/593 397/594/594
f 399/595/595 396/596/596 398/597/597
f 402/598/598 400/599/599 401/600/600
f 403/601/601 400/602/602 402/603/603
f 406/604/604 404/605/605 405/606/606
f 407/607/607 404/608/608 406/609/609
f 410/610/610 408/611/611 409/612/612
f 411/613/613 408/614/614 410/615/615
f 414/616/616 412/617/617 413/618/618
f 417/619/619 415/620/620 416/621/621
f 418/622/622 415/623/623 417/624/624
f 421/625/625 419/626/626 420/627/627
f 424/628/628 422/629/629 423/630/630
f 425/631/631 422/632/632 424/633/633
f 428/634/634 426/635/635 427/636/636
f 429/637/637 426/638/638 428/639/639
f 432/640/640 430/641/641 431/642/642
f 433/643/643 430/644/644 432/645/645
f 436/646/646 434/647/647 435/648/648
f 439/649/649 437/650/650 438/651/651
f 440/652/652 437/653/653 439/654/654
f 443/655/655 441/656/656 442/657/657
f 444/658/658 441/659/659 443/660/660
f 447/661/661 445/662/662 446/663/663
f 448/664/664 445/665/665 447/666/666
f 451/667/667 449/668/668 450/669/669
f 452/670/670 449/671/671 451/672/672
f 455/673/673 453/674/674 454/675/675
f 456/676/676 453/677/677 455/678/678
f 459/679/679 457/680/680 458/681/681
f 460/682/682 457/683/683 459/684/684
f 463/685/685 461/686/686 462/687/687
f 464/688/688 461/689/689 463/690/690
f 467/691/691 465/692/692 466/693/693
f 468/694/694 465/695/695 467/696/696
f 471/697/697 469/698/698 470/699/699
f 472/700/700 469/701/701 471/702/702
f 475/703/703 473/704/704 474/705/705
f 478/706/706 476/707/707 477/708/708
f 481/709/709 479/710/710 480/711/711
f 484/712/712 482/713/713 483/714/714
f 487/715/715 485/716/716 486/717/717
f 488/718/718 485/719/719 487/720/720
f 491/721/721 489/722/722 490/723/723
f 494/724/724 492/725/725 493/726/726
f 495/727/727 492/728/728 494/729/729
f 498/730/730 496/731/731 497/732/732
f 499/733/733 496/734/734 498/735/735
f 502/736/736 500/737/737 501/738/738
f 503/739/739 500/740/740 502/741/741
f 506/742/742 504/743/743 505/744/744
f 507/745/745 504/746/746 506/747/747
f 510/748/748 508/749/749 509/750/750
f 511/751/751 508/752/752 510/753/753
f 514/754/754 512/755/755 513/756/756
f 515/757/757 512/758/758 514/759/759
f 518/760/760 516/761/761 517/762/762
f 519/763/763 516/764/764 518/765/765
f 522/766/766 520/767/767 521/768/768
f 523/769/769 520/770/770 522/771/771
f 526/772/772 524/773/773 525/774/774
f 527/775/775 524/776/776 526/777/777
f 530/778/778 528/779/779 529/780/780
f 531/781/781 528/782/782 530/783/783
f 534/784/784 532/785/785 533/786/786
f 535/787/787 532/788/788 534/789/789
f 538/790/790 536/791/791 537/792/792
f 539/793/793 536/794/794 538/795/795
f 542/796/796 540/797/797 541/798/798
f 543/799/799 540/800/800 542/801/801
f 546/802/802 544/803/803 545/804/804
f 547/805/805 544/806/806 546/807/807
f 550/808/808 548/809/809 549/810/810
f 551/811/811 548/812/812 550/813/813
f 554/814/814 552/815/815 553/816/816
f 555/817/817 552/818/818 554/819/819
f 558/820/820 556/821/821 557/822/822
f 559/823/823 556/824/824 558/825/825
f 562/826/826 560/827/827 561/828/828
f 563/829/829 560/830/830 562/831/831
f 566/832/832 564/833/833 565/834/834
f 567/835/835 564/836/836 566/837/837
f 570/838/838 568/839/839 569/840/840
f 571/841/841 568/842/842 570/843/843
f 574/844/844 572/845/845 573/846/846
f 575/847/847 572/848/848 574/849/849
f 578/850/850 576/851/851 577/852/852
f 579/853/853 576/854/854 578/855/855
f 582/856/856 580/857/857 581/858/858
f 583/859/859 580/860/860 582/861/861
f 586/862/862 584/863/863 585/864/864
f 587/865/865 584/866/866 586/867/867
f 590/868/868 588/869/869 589/870/870
f 591/871/871 588/872/872 590/873/873
f 594/874/874 592/875/875 593/876/876
f 595/877/877 592/878/878 594/879/879
f 598/880/880 596/881/881 597/882/882
f 599/883/883 596/884/884 598/885/885
f 602/886/886 600/887/887 601/888/888
f 603/889/889 600/890/890 602/891/891
f 606/892/892 604/893/893 605/894/894
f 607/895/895 604/896/896 606/897/897
f 610/898/898 608/899/899 609/900/900
f 611/901/901 608/902/902 610/903/903
f 614/904/904 612/905/905 613/906/906
f 615/907/907 612/908/908 614/909/909
f 618/910/910 616/911/911 617/912/912
f 619/913/913 616/914/914 618/915/915
f 622/916/916 620/917/917 621/918/918
f 623/919/919 620/920/920 622/921/921
f 626/922/922 624/923/923 625/924/924
f 627/925/925 624/926/926 626/927/927
f 630/928/928 628/929/929 629/930/930
f 631/931/931 628/932/932 630/933/933
f 634/934/934 632/935/935 633/936/936
f 635/937/937 632/938/938 634/939/939
f 638/940/940 636/941/941 637/942/942
f 641/943/943 639/944/944 640/945/945
f 642/946/946 639/947/947 641/948/948
f 645/949/949 643/950/950 644/951/951
f 648/952/952 646/953/953 647/954/954
f 649/955/955 646/956/956 648/957/957
f 652/958/958 650/959/959 651/960/960
f 653/961/961 650/962/962 652/963/963
f 656/964/964 654/965/965 655/966/966
f 657/967/967 654/968/968 656/969/969
f 660/970/970 658/971/971 659/972/972
f 663/973/973 661/974/974 662/975/975
f 664/976/976 661/977/977 663/978/978
f 667/979/979 665/980/980 666/981/981
f 668/982/982 665/983/983 667/984/984
f 671/985/985 669/986/986 670/987/987
f 672/988/988 669/989/989 671/990/990
f 675/991/991 673/992/992 674/993/993
f 676/994/994 673/995/995 675/996/996
f 679/997/997 677/998/998 678/999/999
f 680/1000/1000 677/1001/1001 679/1002/1002
f 683/1003/1003 681/1004/1004 682/1005/1005
f 684/1006/1006 681/1007/1007 683/1008/1008
f 687/1009/1009 685/1010/1010 686/1011/1011
f 688/1012/1012 685/1013/1013 687/1014/1014
f 691/1015/1015 689/1016/1016 690/1017/1017
f 692/1018/1018 689/1019/1019 691/1020/1020
f 695/1021/1021 693/1022/1022 694/1023/1023
f 696/1024/1024 693/1025/1025 695/1026/1026
f 699/1027/1027 697/1028/1028 698/1029/1029
f 702/1030/1030 700/1031/1031 701/1032/1032
f 705/1033/1033 703/1034/1034 704/1035/1035
f 708/1036/1036 706/1037/1037 707/1038/1038

