# Converted from B3D for Luanti (With Correct Normals)
# Object Name: multidecor_window_door_with_thin_slats_open

v -1.000000 3.000000 1.000000
v 1.000000 3.000000 1.000000
v 1.000000 3.000000 0.750000
v -1.000000 3.000000 0.750000
v 0.800000 -0.800000 0.875000
v 0.800000 -0.800000 1.000000
v 0.800000 2.800000 1.000000
v 0.800000 2.800000 0.875000
v 1.000000 -1.000000 0.750000
v 1.000000 3.000000 0.750000
v 1.000000 3.000000 1.000000
v 1.000000 -1.000000 1.000000
v 1.000000 -1.000000 1.000000
v -1.000000 -1.000000 1.000000
v -1.000000 -1.000000 0.750000
v 1.000000 -1.000000 0.750000
v -1.000000 -1.000000 1.000000
v -1.000000 3.000000 1.000000
v -1.000000 3.000000 0.750000
v -1.000000 -1.000000 0.750000
v -0.800000 2.800000 0.875000
v -0.800000 2.800000 0.750000
v 0.800000 2.800000 0.750000
v 0.800000 2.800000 0.875000
v 0.800000 -0.800000 0.875000
v 0.800000 -0.800000 0.750000
v -0.800000 -0.800000 0.750000
v -0.800000 -0.800000 0.875000
v -0.800000 -0.800000 0.875000
v -0.800000 -0.800000 0.750000
v -0.800000 2.800000 0.750000
v -0.800000 2.800000 0.875000
v 1.000000 3.000000 0.750000
v 0.800000 2.800000 0.750000
v -0.800000 2.800000 0.750000
v -1.000000 3.000000 0.750000
v 1.000000 -1.000000 0.750000
v 0.800000 -0.800000 0.750000
v 0.800000 2.800000 0.750000
v 1.000000 3.000000 0.750000
v -1.000000 -1.000000 0.750000
v -0.800000 -0.800000 0.750000
v 0.800000 -0.800000 0.750000
v 1.000000 -1.000000 0.750000
v -1.000000 3.000000 0.750000
v -0.800000 2.800000 0.750000
v -0.800000 -0.800000 0.750000
v -1.000000 -1.000000 0.750000
v -1.000000 3.000000 1.000000
v -0.800000 2.800000 1.000000
v 0.800000 2.800000 1.000000
v 1.000000 3.000000 1.000000
v -1.000000 -1.000000 1.000000
v -0.800000 -0.800000 1.000000
v -0.800000 2.800000 1.000000
v -1.000000 3.000000 1.000000
v 1.000000 -1.000000 1.000000
v 0.800000 -0.800000 1.000000
v -0.800000 -0.800000 1.000000
v -1.000000 -1.000000 1.000000
v 1.000000 3.000000 1.000000
v 0.800000 2.800000 1.000000
v 0.800000 -0.800000 1.000000
v 1.000000 -1.000000 1.000000
v -0.800000 -0.800000 1.000000
v -0.800000 -0.800000 0.875000
v -0.800000 2.800000 0.875000
v -0.800000 2.800000 1.000000
v 0.800000 -0.800000 1.000000
v 0.800000 -0.800000 0.875000
v -0.800000 -0.800000 0.875000
v -0.800000 -0.800000 1.000000
v -0.800000 2.800000 1.000000
v -0.800000 2.800000 0.875000
v 0.800000 2.800000 0.875000
v 0.800000 2.800000 1.000000
v 0.800000 -0.800000 0.750000
v 0.800000 -0.800000 0.875000
v 0.800000 2.800000 0.875000
v 0.800000 2.800000 0.750000
v -0.964645 0.906659 0.750000
v -0.964645 0.906659 0.700000
v -0.835355 0.906659 0.700000
v -0.835355 0.906659 0.750000
v -0.835355 0.906659 0.750000
v -0.835355 0.906659 0.700000
v -0.835355 1.235949 0.700000
v -0.835355 1.235949 0.750000
v -0.835355 1.235949 0.750000
v -0.835355 1.235949 0.700000
v -0.964645 1.235949 0.700000
v -0.964645 1.235949 0.750000
v -0.964645 1.235949 0.750000
v -0.964645 1.235949 0.700000
v -0.964645 0.906659 0.700000
v -0.964645 0.906659 0.750000
v -0.835355 1.235949 0.700000
v -0.835355 0.906659 0.700000
v -0.964645 0.906659 0.700000
v -0.964645 1.235949 0.700000
v -0.862500 1.033804 0.612500
v -0.862500 1.108804 0.612500
v -0.862500 1.108804 0.700000
v -0.862500 1.033804 0.700000
v -0.937500 1.033804 0.700000
v -0.937500 1.108804 0.700000
v -0.937500 1.108804 0.612500
v -0.937500 1.033804 0.612500
v -0.862500 1.033804 0.700000
v -0.937500 1.033804 0.700000
v -0.937500 1.033804 0.612500
v -0.862500 1.033804 0.612500
v -0.937500 1.108804 0.700000
v -0.862500 1.108804 0.700000
v -0.862500 1.108804 0.612500
v -0.937500 1.108804 0.612500
v -0.965625 1.020679 0.612500
v -0.484375 1.020679 0.612500
v -0.484375 1.121929 0.612500
v -0.965625 1.121929 0.612500
v -0.965625 1.020679 0.562500
v -0.965625 1.121929 0.562500
v -0.484375 1.121929 0.562500
v -0.484375 1.020679 0.562500
v -0.965625 1.121929 0.612500
v -0.484375 1.121929 0.612500
v -0.484375 1.121929 0.562500
v -0.965625 1.121929 0.562500
v -0.965625 1.020679 0.612500
v -0.965625 1.121929 0.612500
v -0.965625 1.121929 0.562500
v -0.965625 1.020679 0.562500
v -0.484375 1.020679 0.612500
v -0.965625 1.020679 0.612500
v -0.965625 1.020679 0.562500
v -0.484375 1.020679 0.562500
v -0.484375 1.121929 0.612500
v -0.484375 1.020679 0.612500
v -0.484375 1.020679 0.562500
v -0.484375 1.121929 0.562500
v -0.800000 0.440000 0.875000
v -0.040000 0.440000 0.875000
v -0.040000 0.440000 0.810000
v -0.800000 0.440000 0.810000
v -0.800000 0.440000 0.940000
v -0.040000 0.440000 0.940000
v -0.040000 0.440000 0.875000
v -0.800000 0.440000 0.875000
v -0.040000 0.440000 0.875000
v -0.040000 1.000000 0.875000
v -0.040000 1.000000 0.810000
v -0.040000 0.440000 0.810000
v -0.040000 0.440000 0.940000
v -0.040000 1.000000 0.940000
v -0.040000 1.000000 0.875000
v -0.040000 0.440000 0.875000
v 0.800000 0.440000 0.875000
v 0.040000 0.440000 0.875000
v 0.040000 0.440000 0.940000
v 0.800000 0.440000 0.940000
v 0.800000 0.440000 0.810000
v 0.040000 0.440000 0.810000
v 0.040000 0.440000 0.875000
v 0.800000 0.440000 0.875000
v 0.040000 0.440000 0.810000
v 0.040000 1.000000 0.810000
v 0.040000 1.000000 0.875000
v 0.040000 0.440000 0.875000
v 0.040000 0.440000 0.875000
v 0.040000 1.000000 0.875000
v 0.040000 1.000000 0.940000
v 0.040000 0.440000 0.940000
v -0.800000 0.360000 0.810000
v -0.040000 0.360000 0.810000
v -0.040000 0.360000 0.875000
v -0.800000 0.360000 0.875000
v -0.800000 0.360000 0.875000
v -0.040000 0.360000 0.875000
v -0.040000 0.360000 0.940000
v -0.800000 0.360000 0.940000
v -0.040000 0.360000 0.875000
v -0.040000 -0.800000 0.875000
v -0.040000 -0.800000 0.940000
v -0.040000 0.360000 0.940000
v -0.040000 0.360000 0.810000
v -0.040000 -0.800000 0.810000
v -0.040000 -0.800000 0.875000
v -0.040000 0.360000 0.875000
v 0.800000 0.360000 0.940000
v 0.040000 0.360000 0.940000
v 0.040000 0.360000 0.875000
v 0.800000 0.360000 0.875000
v 0.800000 0.360000 0.875000
v 0.040000 0.360000 0.875000
v 0.040000 0.360000 0.810000
v 0.800000 0.360000 0.810000
v 0.040000 0.360000 0.875000
v 0.040000 -0.800000 0.875000
v 0.040000 -0.800000 0.810000
v 0.040000 0.360000 0.810000
v 0.040000 0.360000 0.940000
v 0.040000 -0.800000 0.940000
v 0.040000 -0.800000 0.875000
v 0.040000 0.360000 0.875000
v -0.800000 0.360000 0.940000
v -0.040000 0.360000 0.940000
v -0.040000 0.440000 0.940000
v -0.800000 0.440000 0.940000
v 0.040000 1.000000 0.940000
v -0.040000 1.000000 0.940000
v -0.040000 0.440000 0.940000
v 0.040000 0.440000 0.940000
v 0.800000 0.360000 0.940000
v 0.800000 0.440000 0.940000
v 0.040000 0.440000 0.940000
v 0.040000 0.360000 0.940000
v 0.040000 -0.800000 0.940000
v 0.040000 0.360000 0.940000
v -0.040000 0.360000 0.940000
v -0.040000 -0.800000 0.940000
v 0.040000 0.360000 0.940000
v 0.040000 0.440000 0.940000
v -0.040000 0.440000 0.940000
v -0.040000 0.360000 0.940000
v 0.040000 1.000000 0.810000
v 0.040000 0.440000 0.810000
v -0.040000 0.440000 0.810000
v -0.040000 1.000000 0.810000
v 0.800000 0.360000 0.810000
v 0.040000 0.360000 0.810000
v 0.040000 0.440000 0.810000
v 0.800000 0.440000 0.810000
v -0.800000 0.360000 0.810000
v -0.800000 0.440000 0.810000
v -0.040000 0.440000 0.810000
v -0.040000 0.360000 0.810000
v 0.040000 -0.800000 0.810000
v -0.040000 -0.800000 0.810000
v -0.040000 0.360000 0.810000
v 0.040000 0.360000 0.810000
v 0.040000 0.440000 0.810000
v 0.040000 0.360000 0.810000
v -0.040000 0.360000 0.810000
v -0.040000 0.440000 0.810000
v -0.040000 0.440000 0.875000
v -0.800000 0.440000 0.875000
v -0.800000 1.000000 0.875000
v -0.040000 1.000000 0.875000
v 0.040000 0.440000 0.875000
v 0.040000 1.000000 0.875000
v 0.800000 1.000000 0.875000
v 0.800000 0.440000 0.875000
v -0.040000 0.360000 0.875000
v -0.040000 -0.800000 0.875000
v -0.800000 -0.800000 0.875000
v -0.800000 0.360000 0.875000
v 0.040000 0.360000 0.875000
v 0.800000 0.360000 0.875000
v 0.800000 -0.800000 0.875000
v 0.040000 -0.800000 0.875000
v -0.800000 1.640000 0.875000
v -0.040000 1.640000 0.875000
v -0.040000 1.640000 0.810000
v -0.800000 1.640000 0.810000
v -0.800000 1.640000 0.940000
v -0.040000 1.640000 0.940000
v -0.040000 1.640000 0.875000
v -0.800000 1.640000 0.875000
v -0.040000 1.640000 0.875000
v -0.040000 2.800000 0.875000
v -0.040000 2.800000 0.810000
v -0.040000 1.640000 0.810000
v -0.040000 1.640000 0.940000
v -0.040000 2.800000 0.940000
v -0.040000 2.800000 0.875000
v -0.040000 1.640000 0.875000
v 0.800000 1.640000 0.875000
v 0.040000 1.640000 0.875000
v 0.040000 1.640000 0.940000
v 0.800000 1.640000 0.940000
v 0.800000 1.640000 0.810000
v 0.040000 1.640000 0.810000
v 0.040000 1.640000 0.875000
v 0.800000 1.640000 0.875000
v 0.040000 1.640000 0.810000
v 0.040000 2.800000 0.810000
v 0.040000 2.800000 0.875000
v 0.040000 1.640000 0.875000
v 0.040000 1.640000 0.875000
v 0.040000 2.800000 0.875000
v 0.040000 2.800000 0.940000
v 0.040000 1.640000 0.940000
v -0.800000 1.560000 0.810000
v -0.040000 1.560000 0.810000
v -0.040000 1.560000 0.875000
v -0.800000 1.560000 0.875000
v -0.800000 1.560000 0.875000
v -0.040000 1.560000 0.875000
v -0.040000 1.560000 0.940000
v -0.800000 1.560000 0.940000
v -0.040000 1.560000 0.875000
v -0.040000 1.000000 0.875000
v -0.040000 1.000000 0.940000
v -0.040000 1.560000 0.940000
v -0.040000 1.560000 0.810000
v -0.040000 1.000000 0.810000
v -0.040000 1.000000 0.875000
v -0.040000 1.560000 0.875000
v 0.800000 1.560000 0.940000
v 0.040000 1.560000 0.940000
v 0.040000 1.560000 0.875000
v 0.800000 1.560000 0.875000
v 0.800000 1.560000 0.875000
v 0.040000 1.560000 0.875000
v 0.040000 1.560000 0.810000
v 0.800000 1.560000 0.810000
v 0.040000 1.560000 0.875000
v 0.040000 1.000000 0.875000
v 0.040000 1.000000 0.810000
v 0.040000 1.560000 0.810000
v 0.040000 1.560000 0.940000
v 0.040000 1.000000 0.940000
v 0.040000 1.000000 0.875000
v 0.040000 1.560000 0.875000
v -0.800000 1.560000 0.940000
v -0.040000 1.560000 0.940000
v -0.040000 1.640000 0.940000
v -0.800000 1.640000 0.940000
v 0.040000 2.800000 0.940000
v -0.040000 2.800000 0.940000
v -0.040000 1.640000 0.940000
v 0.040000 1.640000 0.940000
v 0.800000 1.560000 0.940000
v 0.800000 1.640000 0.940000
v 0.040000 1.640000 0.940000
v 0.040000 1.560000 0.940000
v 0.040000 1.000000 0.940000
v 0.040000 1.560000 0.940000
v -0.040000 1.560000 0.940000
v -0.040000 1.000000 0.940000
v 0.040000 1.560000 0.940000
v 0.040000 1.640000 0.940000
v -0.040000 1.640000 0.940000
v -0.040000 1.560000 0.940000
v 0.040000 2.800000 0.810000
v 0.040000 1.640000 0.810000
v -0.040000 1.640000 0.810000
v -0.040000 2.800000 0.810000
v 0.800000 1.560000 0.810000
v 0.040000 1.560000 0.810000
v 0.040000 1.640000 0.810000
v 0.800000 1.640000 0.810000
v -0.800000 1.560000 0.810000
v -0.800000 1.640000 0.810000
v -0.040000 1.640000 0.810000
v -0.040000 1.560000 0.810000
v 0.040000 1.000000 0.810000
v -0.040000 1.000000 0.810000
v -0.040000 1.560000 0.810000
v 0.040000 1.560000 0.810000
v 0.040000 1.640000 0.810000
v 0.040000 1.560000 0.810000
v -0.040000 1.560000 0.810000
v -0.040000 1.640000 0.810000
v -0.040000 1.640000 0.875000
v -0.800000 1.640000 0.875000
v -0.800000 2.800000 0.875000
v -0.040000 2.800000 0.875000
v 0.040000 1.640000 0.875000
v 0.040000 2.800000 0.875000
v 0.800000 2.800000 0.875000
v 0.800000 1.640000 0.875000
v -0.040000 1.560000 0.875000
v -0.040000 1.000000 0.875000
v -0.800000 1.000000 0.875000
v -0.800000 1.560000 0.875000
v 0.040000 1.560000 0.875000
v 0.800000 1.560000 0.875000
v 0.800000 1.000000 0.875000
v 0.040000 1.000000 0.875000

vt 0.241023 0.000181
vt 0.194777 0.370147
vt 0.194777 0.000181
vt 0.241023 0.370147
vt 0.194777 0.370147
vt 0.241023 0.000181
vt 0.037178 1.018314
vt 0.703120 0.995187
vt 0.703120 1.018309
vt 0.037178 0.995191
vt 0.703120 0.995187
vt 0.037178 1.018314
vt 0.000181 0.731592
vt 0.740117 0.777839
vt 0.000181 0.777837
vt 0.740118 0.731593
vt 0.740117 0.777839
vt 0.000181 0.731592
vt 0.685346 0.370147
vt 0.731592 0.000181
vt 0.731592 0.370147
vt 0.685346 0.000181
vt 0.731592 0.000181
vt 0.685346 0.370147
vt 0.000182 0.610989
vt 0.740118 0.564743
vt 0.000182 0.564743
vt 0.740117 0.610989
vt 0.740118 0.564743
vt 0.000182 0.610989
vt 0.601741 0.037178
vt 0.624864 0.333151
vt 0.601741 0.333151
vt 0.624864 0.037178
vt 0.624864 0.333151
vt 0.601741 0.037178
vt 0.324629 0.333151
vt 0.301505 0.037179
vt 0.324628 0.037178
vt 0.301506 0.333151
vt 0.301505 0.037179
vt 0.324629 0.333151
vt 0.037179 0.971706
vt 0.703121 0.994819
vt 0.703121 0.971698
vt 0.037179 0.994828
vt 0.703121 0.994819
vt 0.037179 0.971706
vt 0.439880 0.333151
vt 0.402884 0.000182
vt 0.439880 0.037178
vt 0.402883 0.370147
vt 0.402884 0.000182
vt 0.439880 0.333151
vt 0.037178 0.976695
vt 0.740117 0.939699
vt 0.703121 0.976696
vt 0.000182 0.939699
vt 0.740117 0.939699
vt 0.037178 0.976695
vt 0.486489 0.037178
vt 0.523486 0.370147
vt 0.486489 0.333151
vt 0.523486 0.000182
vt 0.523486 0.370147
vt 0.486489 0.037178
vt 0.703121 0.809846
vt 0.000182 0.772850
vt 0.037178 0.809847
vt 0.740117 0.772850
vt 0.000182 0.772850
vt 0.703121 0.809846
vt 0.319641 0.037178
vt 0.356637 0.370147
vt 0.319641 0.333151
vt 0.356638 0.000181
vt 0.356637 0.370147
vt 0.319641 0.037178
vt 0.037178 0.689607
vt 0.740117 0.726604
vt 0.703121 0.689607
vt 0.000182 0.726604
vt 0.740117 0.726604
vt 0.037178 0.689607
vt 0.606728 0.333151
vt 0.569732 0.000181
vt 0.606728 0.037178
vt 0.569732 0.370147
vt 0.569732 0.000181
vt 0.606728 0.333151
vt 0.703121 0.856457
vt 0.000182 0.893452
vt 0.037178 0.856456
vt 0.740117 0.893454
vt 0.000182 0.893452
vt 0.703121 0.856457
vt 0.037178 0.828344
vt 0.703121 0.851460
vt 0.703120 0.828337
vt 0.037178 0.851466
vt 0.703121 0.851460
vt 0.037178 0.828344
vt 0.467991 0.333151
vt 0.444867 0.037178
vt 0.467990 0.037178
vt 0.444868 0.333151
vt 0.444867 0.037178
vt 0.467991 0.333151
vt 0.458379 0.037178
vt 0.481503 0.333151
vt 0.458379 0.333151
vt 0.481502 0.037178
vt 0.481503 0.333151
vt 0.458379 0.037178
vt 0.037179 1.161677
vt 0.703121 1.138547
vt 0.703121 1.161670
vt 0.037179 1.138555
vt 0.703121 1.138547
vt 0.037179 1.161677
vt 0.595959 0.379759
vt 0.605208 0.403676
vt 0.595960 0.403676
vt 0.605209 0.379759
vt 0.605208 0.403676
vt 0.595959 0.379759
vt 0.373187 0.217900
vt 0.434100 0.208650
vt 0.434099 0.217900
vt 0.373187 0.208650
vt 0.434100 0.208650
vt 0.373187 0.217900
vt 0.211326 0.403676
vt 0.202078 0.379760
vt 0.211326 0.379760
vt 0.202077 0.403676
vt 0.202078 0.379760
vt 0.211326 0.403676
vt 0.434099 0.565536
vt 0.373186 0.574785
vt 0.373186 0.565536
vt 0.434099 0.574785
vt 0.373186 0.574785
vt 0.434099 0.565536
vt 0.434099 0.403676
vt 0.373186 0.379760
vt 0.434099 0.379760
vt 0.373186 0.403676
vt 0.373186 0.379760
vt 0.434099 0.403676
vt 0.621758 0.384385
vt 0.605572 0.398258
vt 0.605572 0.384384
vt 0.621758 0.398258
vt 0.605572 0.398258
vt 0.621758 0.384385
vt 0.605572 0.426005
vt 0.621758 0.412131
vt 0.621758 0.426005
vt 0.605571 0.412132
vt 0.621758 0.412131
vt 0.605572 0.426005
vt 0.605572 0.412131
vt 0.621758 0.398258
vt 0.621758 0.412131
vt 0.605571 0.398258
vt 0.621758 0.398258
vt 0.605572 0.412131
vt 0.605572 0.384384
vt 0.621758 0.370511
vt 0.621758 0.384385
vt 0.605571 0.370511
vt 0.621758 0.370511
vt 0.605572 0.384384
vt 0.318022 0.379760
vt 0.299292 0.468783
vt 0.299292 0.379760
vt 0.318022 0.468783
vt 0.299292 0.468783
vt 0.318022 0.379760
vt 0.332821 0.379760
vt 0.351550 0.468783
vt 0.332821 0.468783
vt 0.351550 0.379760
vt 0.351550 0.468783
vt 0.332821 0.379760
vt 0.168186 0.444504
vt 0.158937 0.444504
vt 0.158937 0.444504
vt 0.168186 0.444504
vt 0.158937 0.444504
vt 0.168186 0.444504
vt 0.330046 0.630644
vt 0.330046 0.639892
vt 0.330046 0.639892
vt 0.330046 0.630644
vt 0.330046 0.639892
vt 0.330046 0.630644
vt 0.516184 0.468783
vt 0.525434 0.468783
vt 0.525434 0.468783
vt 0.516184 0.468783
vt 0.525434 0.468783
vt 0.516184 0.468783
vt 0.419069 0.217899
vt 0.419069 0.208650
vt 0.419069 0.208650
vt 0.419069 0.217899
vt 0.419069 0.208650
vt 0.419069 0.217899
vt 1.148459 0.698698
vt 1.164889 0.890814
vt 1.164890 0.698698
vt 1.148459 0.890814
vt 1.164889 0.890814
vt 1.148459 0.698698
vt 1.131354 0.698698
vt 1.147785 0.890814
vt 1.147786 0.698698
vt 1.131354 0.890815
vt 1.147785 0.890814
vt 1.131354 0.698698
vt 1.148458 0.456023
vt 1.164891 0.648140
vt 1.164890 0.456023
vt 1.148458 0.648140
vt 1.164891 0.648140
vt 1.148458 0.456023
vt 1.131356 0.456023
vt 1.147787 0.648141
vt 1.147787 0.456023
vt 1.131356 0.648140
vt 1.147787 0.648141
vt 1.131356 0.456023
vt 0.586358 0.698697
vt 0.602790 0.890813
vt 0.602790 0.698697
vt 0.586359 0.890813
vt 0.602790 0.890813
vt 0.586358 0.698697
vt 1.130682 0.698696
vt 1.114252 0.506580
vt 1.114251 0.698697
vt 1.130682 0.506580
vt 1.114252 0.506580
vt 1.130682 0.698696
vt 1.130682 0.941371
vt 1.114252 0.749252
vt 1.114251 0.941371
vt 1.130682 0.749253
vt 1.114252 0.749252
vt 1.130682 0.941371
vt 0.586359 0.456022
vt 0.602790 0.648139
vt 0.602788 0.456022
vt 0.586359 0.648140
vt 0.602790 0.648139
vt 0.586359 0.456022
vt 1.113579 0.698696
vt 1.097147 0.506580
vt 1.097147 0.698697
vt 1.113578 0.506580
vt 1.097147 0.506580
vt 1.113579 0.698696
vt 1.096475 0.698696
vt 1.080044 0.506580
vt 1.080045 0.698696
vt 1.096475 0.506579
vt 1.080044 0.506580
vt 1.096475 0.698696
vt 1.096475 0.890815
vt 1.080045 0.648139
vt 1.080045 0.890813
vt 1.096476 0.648139
vt 1.080045 0.648139
vt 1.096475 0.890815
vt 1.113579 0.890814
vt 1.097150 0.648139
vt 1.097148 0.890815
vt 1.113580 0.648139
vt 1.097150 0.648139
vt 1.113579 0.890814
vt 0.619893 0.698696
vt 0.603462 0.506579
vt 0.603461 0.698696
vt 0.619893 0.506580
vt 0.603462 0.506579
vt 0.619893 0.698696
vt 0.636997 0.698696
vt 0.620565 0.506580
vt 0.620565 0.698696
vt 0.636997 0.506580
vt 0.620565 0.506580
vt 0.636997 0.698696
vt 0.636998 0.890814
vt 0.620566 0.648139
vt 0.620567 0.890815
vt 0.636998 0.648139
vt 0.620566 0.648139
vt 0.636998 0.890814
vt 0.619894 0.890813
vt 0.603463 0.648139
vt 0.603463 0.890815
vt 0.619894 0.648139
vt 0.603463 0.648139
vt 0.619894 0.890813
vt 0.596059 0.646616
vt 0.616282 0.454499
vt 0.616282 0.646616
vt 0.596059 0.454499
vt 0.616282 0.454499
vt 0.596059 0.646616
vt 0.596059 0.646616
vt 0.403941 0.666839
vt 0.403941 0.646616
vt 0.596059 0.666839
vt 0.403941 0.666839
vt 0.596059 0.646616
vt 0.596059 0.666839
vt 0.616282 0.858955
vt 0.596059 0.858955
vt 0.616282 0.666839
vt 0.616282 0.858955
vt 0.596059 0.666839
vt 0.616282 0.646616
vt 0.858956 0.666839
vt 0.616282 0.666839
vt 0.858956 0.646616
vt 0.858956 0.666839
vt 0.616282 0.646616
vt 0.596059 0.646616
vt 0.616282 0.666839
vt 0.596059 0.666839
vt 0.616282 0.646616
vt 0.616282 0.666839
vt 0.596059 0.646616
vt 0.699911 0.214815
vt 0.720134 0.022698
vt 0.720134 0.214815
vt 0.699911 0.022698
vt 0.720134 0.022698
vt 0.699911 0.214815
vt 0.720134 0.214814
vt 0.912251 0.235037
vt 0.720134 0.235037
vt 0.912251 0.214814
vt 0.912251 0.235037
vt 0.720134 0.214814
vt 0.699911 0.214815
vt 0.507795 0.235038
vt 0.507795 0.214815
vt 0.699911 0.235037
vt 0.507795 0.235038
vt 0.699911 0.214815
vt 0.699911 0.235037
vt 0.720134 0.477713
vt 0.699911 0.477713
vt 0.720134 0.235037
vt 0.720134 0.477713
vt 0.699911 0.235037
vt 0.699911 0.235037
vt 0.720134 0.214815
vt 0.720134 0.235037
vt 0.699911 0.214815
vt 0.720134 0.214815
vt 0.699911 0.235037
vt 1.148459 0.698698
vt 1.164889 0.890814
vt 1.164890 0.698698
vt 1.148459 0.890814
vt 1.164889 0.890814
vt 1.148459 0.698698
vt 1.131354 0.698698
vt 1.147785 0.890814
vt 1.147786 0.698698
vt 1.131354 0.890815
vt 1.147785 0.890814
vt 1.131354 0.698698
vt 1.148459 0.001008
vt 1.164890 0.243683
vt 1.164892 0.001008
vt 1.148459 0.243683
vt 1.164890 0.243683
vt 1.148459 0.001008
vt 1.131354 0.001008
vt 1.147785 0.243683
vt 1.147784 0.001008
vt 1.131355 0.243683
vt 1.147785 0.243683
vt 1.131354 0.001008
vt 0.586358 0.698697
vt 0.602790 0.890813
vt 0.602790 0.698697
vt 0.586359 0.890813
vt 0.602790 0.890813
vt 0.586358 0.698697
vt 1.130682 0.698696
vt 1.114252 0.506580
vt 1.114251 0.698697
vt 1.130682 0.506580
vt 1.114252 0.506580
vt 1.130682 0.698696
vt 1.130685 1.396388
vt 1.114254 1.153713
vt 1.114254 1.396387
vt 1.130685 1.153713
vt 1.114254 1.153713
vt 1.130685 1.396388
vt 0.586360 0.001006
vt 0.602789 0.243680
vt 0.602790 0.001006
vt 0.586360 0.243680
vt 0.602789 0.243680
vt 0.586360 0.001006
vt 1.113579 0.698696
vt 1.097147 0.506580
vt 1.097147 0.698697
vt 1.113578 0.506580
vt 1.097147 0.506580
vt 1.113579 0.698696
vt 1.096475 0.698696
vt 1.080044 0.506580
vt 1.080045 0.698696
vt 1.096475 0.506579
vt 1.080044 0.506580
vt 1.096475 0.698696
vt 1.096478 0.435799
vt 1.080047 0.243682
vt 1.080047 0.435799
vt 1.096478 0.243682
vt 1.080047 0.243682
vt 1.096478 0.435799
vt 1.113583 0.435799
vt 1.097151 0.243682
vt 1.097151 0.435799
vt 1.113583 0.243682
vt 1.097151 0.243682
vt 1.113583 0.435799
vt 0.619893 0.698696
vt 0.603462 0.506579
vt 0.603461 0.698696
vt 0.619893 0.506580
vt 0.603462 0.506579
vt 0.619893 0.698696
vt 0.636997 0.698696
vt 0.620565 0.506580
vt 0.620565 0.698696
vt 0.636997 0.506580
vt 0.620565 0.506580
vt 0.636997 0.698696
vt 0.636997 0.435796
vt 0.620566 0.243679
vt 0.620566 0.435796
vt 0.636997 0.243679
vt 0.620566 0.243679
vt 0.636997 0.435796
vt 0.619892 0.435796
vt 0.603461 0.243679
vt 0.603461 0.435796
vt 0.619893 0.243679
vt 0.603461 0.243679
vt 0.619892 0.435796
vt 0.191597 0.646615
vt 0.211818 0.454499
vt 0.211818 0.646615
vt 0.191597 0.454500
vt 0.211818 0.454499
vt 0.191597 0.646615
vt 0.191599 0.646616
vt -0.051077 0.666840
vt -0.051077 0.646617
vt 0.191600 0.666839
vt -0.051077 0.666840
vt 0.191599 0.646616
vt 0.191603 0.666837
vt 0.211826 0.858953
vt 0.191603 0.858954
vt 0.211826 0.666836
vt 0.211826 0.858953
vt 0.191603 0.666837
vt 0.211825 0.646616
vt 0.403943 0.666839
vt 0.211825 0.666839
vt 0.403943 0.646616
vt 0.403943 0.666839
vt 0.211825 0.646616
vt 0.191602 0.646618
vt 0.211825 0.666840
vt 0.191602 0.666840
vt 0.211825 0.646618
vt 0.211825 0.666840
vt 0.191602 0.646618
vt 0.699911 -0.189642
vt 0.720134 -0.432317
vt 0.720134 -0.189642
vt 0.699911 -0.432317
vt 0.720134 -0.432317
vt 0.699911 -0.189642
vt 0.720133 -0.189644
vt 0.912250 -0.169422
vt 0.720132 -0.169421
vt 0.912250 -0.189645
vt 0.912250 -0.169422
vt 0.720133 -0.189644
vt 0.699909 -0.189641
vt 0.507795 -0.169419
vt 0.507795 -0.189642
vt 0.699908 -0.169418
vt 0.507795 -0.169419
vt 0.699909 -0.189641
vt 0.699911 -0.169423
vt 0.720134 0.022696
vt 0.699911 0.022696
vt 0.720134 -0.169423
vt 0.720134 0.022696
vt 0.699911 -0.169423
vt 0.699913 -0.169420
vt 0.720136 -0.189643
vt 0.720136 -0.169420
vt 0.699913 -0.189643
vt 0.720136 -0.189643
vt 0.699913 -0.169420
vt -0.131274 0.999800
vt 0.368326 0.500200
vt 0.368326 0.999800
vt -0.131274 0.500200
vt 0.368326 0.500200
vt -0.131274 0.999800
vt 0.499800 0.631274
vt 0.000200 0.131674
vt 0.000200 0.631274
vt 0.499800 0.131674
vt 0.000200 0.131674
vt 0.499800 0.631274
vt 0.999800 0.499800
vt 0.500200 -0.131274
vt 0.500200 0.499800
vt 0.999800 -0.131274
vt 0.500200 -0.131274
vt 0.999800 0.499800
vt 0.999800 0.999800
vt 0.500200 0.368726
vt 0.999800 0.368726
vt 0.500200 0.999800
vt 0.500200 0.368726
vt 0.999800 0.999800
vt -1.314538 0.999800
vt -0.683464 0.500200
vt -0.683464 0.999800
vt -1.314538 0.500200
vt -0.683464 0.500200
vt -1.314538 0.999800
vt 0.499800 1.814538
vt 0.000200 1.183464
vt 0.000200 1.814538
vt 0.499800 1.183464
vt 0.000200 1.183464
vt 0.499800 1.814538
vt 0.999800 -0.683464
vt 0.500200 -1.183064
vt 0.500200 -0.683464
vt 0.999800 -1.183064
vt 0.500200 -1.183064
vt 0.999800 -0.683464
vt 0.999800 -0.183464
vt 0.500200 -0.683064
vt 0.999801 -0.683064
vt 0.500200 -0.183464
vt 0.500200 -0.683064
vt 0.999800 -0.183464

vn -0.000000 1.000000 0.000000
vn -0.000000 1.000000 0.000000
vn -0.000000 1.000000 0.000000
vn -0.000000 1.000000 0.000000
vn -0.000000 1.000000 0.000000
vn -0.000000 1.000000 0.000000
vn -1.000000 0.000000 0.000000
vn -1.000000 0.000000 0.000000
vn -1.000000 0.000000 0.000000
vn -1.000000 0.000000 0.000000
vn -1.000000 0.000000 0.000000
vn -1.000000 0.000000 0.000000
vn 1.000000 0.000000 0.000000
vn 1.000000 0.000000 0.000000
vn 1.000000 0.000000 0.000000
vn 1.000000 0.000000 0.000000
vn 1.000000 0.000000 0.000000
vn 1.000000 0.000000 0.000000
vn -0.000000 -1.000000 0.000000
vn -0.000000 -1.000000 0.000000
vn -0.000000 -1.000000 0.000000
vn -0.000000 -1.000000 0.000000
vn -0.000000 -1.000000 0.000000
vn -0.000000 -1.000000 0.000000
vn -1.000000 0.000000 0.000000
vn -1.000000 0.000000 0.000000
vn -1.000000 0.000000 0.000000
vn -1.000000 0.000000 0.000000
vn -1.000000 0.000000 0.000000
vn -1.000000 0.000000 0.000000
vn -0.000000 -1.000000 0.000000
vn -0.000000 -1.000000 0.000000
vn -0.000000 -1.000000 0.000000
vn -0.000000 -1.000000 0.000000
vn -0.000000 -1.000000 0.000000
vn -0.000000 -1.000000 0.000000
vn -0.000000 1.000000 0.000000
vn -0.000000 1.000000 0.000000
vn -0.000000 1.000000 0.000000
vn -0.000000 1.000000 0.000000
vn -0.000000 1.000000 0.000000
vn -0.000000 1.000000 0.000000
vn 1.000000 0.000000 0.000000
vn 1.000000 0.000000 0.000000
vn 1.000000 0.000000 0.000000
vn 1.000000 0.000000 0.000000
vn 1.000000 0.000000 0.000000
vn 1.000000 0.000000 0.000000
vn -0.000000 -0.000001 -1.000000
vn -0.000000 -0.000001 -1.000000
vn -0.000000 -0.000001 -1.000000
vn -0.000000 0.000001 -1.000000
vn -0.000000 0.000001 -1.000000
vn -0.000000 0.000001 -1.000000
vn -0.000000 0.000000 -1.000000
vn -0.000000 0.000000 -1.000000
vn -0.000000 0.000000 -1.000000
vn -0.000000 0.000000 -1.000000
vn -0.000000 0.000000 -1.000000
vn -0.000000 0.000000 -1.000000
vn -0.000000 0.000001 -1.000000
vn -0.000000 0.000001 -1.000000
vn -0.000000 0.000001 -1.000000
vn -0.000000 -0.000001 -1.000000
vn -0.000000 -0.000001 -1.000000
vn -0.000000 -0.000001 -1.000000
vn -0.000000 0.000000 -1.000000
vn -0.000000 0.000000 -1.000000
vn -0.000000 0.000000 -1.000000
vn -0.000000 0.000000 -1.000000
vn -0.000000 0.000000 -1.000000
vn -0.000000 0.000000 -1.000000
vn -0.000000 0.000000 1.000000
vn -0.000000 0.000000 1.000000
vn -0.000000 0.000000 1.000000
vn -0.000000 0.000000 1.000000
vn -0.000000 0.000000 1.000000
vn -0.000000 0.000000 1.000000
vn -0.000000 0.000000 1.000000
vn -0.000000 0.000000 1.000000
vn -0.000000 0.000000 1.000000
vn -0.000000 0.000000 1.000000
vn -0.000000 0.000000 1.000000
vn -0.000000 0.000000 1.000000
vn -0.000000 -0.000000 1.000000
vn -0.000000 -0.000000 1.000000
vn -0.000000 -0.000000 1.000000
vn -0.000000 0.000000 1.000000
vn -0.000000 0.000000 1.000000
vn -0.000000 0.000000 1.000000
vn -0.000000 0.000000 1.000000
vn -0.000000 0.000000 1.000000
vn -0.000000 0.000000 1.000000
vn -0.000000 0.000000 1.000000
vn -0.000000 0.000000 1.000000
vn -0.000000 0.000000 1.000000
vn 1.000000 0.000000 0.000000
vn 1.000000 0.000000 0.000000
vn 1.000000 0.000000 0.000000
vn 1.000000 0.000000 0.000000
vn 1.000000 0.000000 0.000000
vn 1.000000 0.000000 0.000000
vn -0.000000 1.000000 0.000000
vn -0.000000 1.000000 0.000000
vn -0.000000 1.000000 0.000000
vn -0.000000 1.000000 0.000000
vn -0.000000 1.000000 0.000000
vn -0.000000 1.000000 0.000000
vn -0.000000 -1.000000 0.000000
vn -0.000000 -1.000000 0.000000
vn -0.000000 -1.000000 0.000000
vn -0.000000 -1.000000 0.000000
vn -0.000000 -1.000000 0.000000
vn -0.000000 -1.000000 0.000000
vn -1.000000 0.000000 0.000000
vn -1.000000 0.000000 0.000000
vn -1.000000 0.000000 0.000000
vn -1.000000 0.000000 0.000000
vn -1.000000 0.000000 0.000000
vn -1.000000 0.000000 0.000000
vn -0.000000 -1.000000 0.000002
vn -0.000000 -1.000000 0.000002
vn -0.000000 -1.000000 0.000002
vn -0.000001 -1.000000 0.000000
vn -0.000001 -1.000000 0.000000
vn -0.000001 -1.000000 0.000000
vn 1.000000 -0.000000 0.000000
vn 1.000000 -0.000000 0.000000
vn 1.000000 -0.000000 0.000000
vn 1.000000 0.000000 0.000000
vn 1.000000 0.000000 0.000000
vn 1.000000 0.000000 0.000000
vn -0.000000 1.000000 0.000000
vn -0.000000 1.000000 0.000000
vn -0.000000 1.000000 0.000000
vn -0.000000 1.000000 0.000000
vn -0.000000 1.000000 0.000000
vn -0.000000 1.000000 0.000000
vn -1.000000 0.000000 0.000000
vn -1.000000 0.000000 0.000000
vn -1.000000 0.000000 0.000000
vn -1.000000 0.000000 0.000000
vn -1.000000 0.000000 0.000000
vn -1.000000 0.000000 0.000000
vn -0.000000 -0.000000 -1.000000
vn -0.000000 -0.000000 -1.000000
vn -0.000000 -0.000000 -1.000000
vn -0.000000 0.000000 -1.000000
vn -0.000000 0.000000 -1.000000
vn -0.000000 0.000000 -1.000000
vn 1.000000 0.000000 0.000000
vn 1.000000 0.000000 0.000000
vn 1.000000 0.000000 0.000000
vn 1.000000 0.000000 0.000000
vn 1.000000 0.000000 0.000000
vn 1.000000 0.000000 0.000000
vn -1.000000 0.000000 0.000000
vn -1.000000 0.000000 0.000000
vn -1.000000 0.000000 0.000000
vn -1.000000 0.000000 0.000000
vn -1.000000 0.000000 0.000000
vn -1.000000 0.000000 0.000000
vn -0.000000 -1.000000 0.000000
vn -0.000000 -1.000000 0.000000
vn -0.000000 -1.000000 0.000000
vn -0.000000 -1.000000 0.000000
vn -0.000000 -1.000000 0.000000
vn -0.000000 -1.000000 0.000000
vn -0.000000 1.000000 0.000000
vn -0.000000 1.000000 0.000000
vn -0.000000 1.000000 0.000000
vn -0.000000 1.000000 0.000000
vn -0.000000 1.000000 0.000000
vn -0.000000 1.000000 0.000000
vn -0.000000 0.000000 1.000000
vn -0.000000 0.000000 1.000000
vn -0.000000 0.000000 1.000000
vn -0.000000 0.000000 1.000000
vn -0.000000 0.000000 1.000000
vn -0.000000 0.000000 1.000000
vn -0.000000 0.000000 -1.000000
vn -0.000000 0.000000 -1.000000
vn -0.000000 0.000000 -1.000000
vn -0.000000 0.000000 -1.000000
vn -0.000000 0.000000 -1.000000
vn -0.000000 0.000000 -1.000000
vn -0.000000 1.000000 0.000000
vn -0.000000 1.000000 0.000000
vn -0.000000 1.000000 0.000000
vn -0.000000 1.000000 0.000000
vn -0.000000 1.000000 0.000000
vn -0.000000 1.000000 0.000000
vn -1.000000 0.000000 0.000000
vn -1.000000 0.000000 0.000000
vn -1.000000 0.000000 0.000000
vn -1.000000 0.000000 0.000000
vn -1.000000 0.000000 0.000000
vn -1.000000 0.000000 0.000000
vn -0.000000 -1.000000 0.000000
vn -0.000000 -1.000000 0.000000
vn -0.000000 -1.000000 0.000000
vn -0.000000 -1.000000 0.000000
vn -0.000000 -1.000000 0.000000
vn -0.000000 -1.000000 0.000000
vn 1.000000 0.000000 0.000000
vn 1.000000 0.000000 0.000000
vn 1.000000 0.000000 0.000000
vn 1.000000 0.000000 0.000000
vn 1.000000 0.000000 0.000000
vn 1.000000 0.000000 0.000000
vn -0.000000 1.000000 0.000000
vn -0.000000 1.000000 0.000000
vn -0.000000 1.000000 0.000000
vn -0.000000 1.000000 0.000000
vn -0.000000 1.000000 0.000000
vn -0.000000 1.000000 0.000000
vn -0.000000 1.000000 0.000000
vn -0.000000 1.000000 0.000000
vn -0.000000 1.000000 0.000000
vn -0.000000 1.000000 0.000000
vn -0.000000 1.000000 0.000000
vn -0.000000 1.000000 0.000000
vn -1.000000 -0.000000 0.000000
vn -1.000000 -0.000000 0.000000
vn -1.000000 -0.000000 0.000000
vn -1.000000 -0.000000 0.000000
vn -1.000000 -0.000000 0.000000
vn -1.000000 -0.000000 0.000000
vn -1.000000 -0.000000 0.000000
vn -1.000000 -0.000000 0.000000
vn -1.000000 -0.000000 0.000000
vn -1.000000 -0.000000 0.000000
vn -1.000000 -0.000000 0.000000
vn -1.000000 -0.000000 0.000000
vn -0.000000 1.000000 0.000000
vn -0.000000 1.000000 0.000000
vn -0.000000 1.000000 0.000000
vn 0.000000 1.000000 0.000000
vn 0.000000 1.000000 0.000000
vn 0.000000 1.000000 0.000000
vn -0.000000 1.000000 0.000000
vn -0.000000 1.000000 0.000000
vn -0.000000 1.000000 0.000000
vn 0.000000 1.000000 0.000000
vn 0.000000 1.000000 0.000000
vn 0.000000 1.000000 0.000000
vn 1.000000 -0.000000 0.000000
vn 1.000000 -0.000000 0.000000
vn 1.000000 -0.000000 0.000000
vn 1.000000 -0.000000 0.000000
vn 1.000000 -0.000000 0.000000
vn 1.000000 -0.000000 0.000000
vn 1.000000 -0.000000 0.000000
vn 1.000000 -0.000000 0.000000
vn 1.000000 -0.000000 0.000000
vn 1.000000 -0.000000 0.000000
vn 1.000000 -0.000000 0.000000
vn 1.000000 -0.000000 0.000000
vn -0.000000 -1.000000 0.000000
vn -0.000000 -1.000000 0.000000
vn -0.000000 -1.000000 0.000000
vn -0.000000 -1.000000 0.000000
vn -0.000000 -1.000000 0.000000
vn -0.000000 -1.000000 0.000000
vn -0.000000 -1.000000 0.000000
vn -0.000000 -1.000000 0.000000
vn -0.000000 -1.000000 0.000000
vn -0.000000 -1.000000 0.000000
vn -0.000000 -1.000000 0.000000
vn -0.000000 -1.000000 0.000000
vn -1.000000 0.000000 0.000000
vn -1.000000 0.000000 0.000000
vn -1.000000 0.000000 0.000000
vn -1.000000 0.000000 0.000000
vn -1.000000 0.000000 0.000000
vn -1.000000 0.000000 0.000000
vn -1.000000 0.000000 0.000000
vn -1.000000 0.000000 0.000000
vn -1.000000 0.000000 0.000000
vn -1.000000 0.000000 0.000000
vn -1.000000 0.000000 0.000000
vn -1.000000 0.000000 0.000000
vn -0.000000 -1.000000 0.000000
vn -0.000000 -1.000000 0.000000
vn -0.000000 -1.000000 0.000000
vn 0.000000 -1.000000 0.000000
vn 0.000000 -1.000000 0.000000
vn 0.000000 -1.000000 0.000000
vn -0.000000 -1.000000 0.000000
vn -0.000000 -1.000000 0.000000
vn -0.000000 -1.000000 0.000000
vn 0.000000 -1.000000 0.000000
vn 0.000000 -1.000000 0.000000
vn 0.000000 -1.000000 0.000000
vn 1.000000 0.000000 0.000000
vn 1.000000 0.000000 0.000000
vn 1.000000 0.000000 0.000000
vn 1.000000 0.000000 0.000000
vn 1.000000 0.000000 0.000000
vn 1.000000 0.000000 0.000000
vn 1.000000 0.000000 0.000000
vn 1.000000 0.000000 0.000000
vn 1.000000 0.000000 0.000000
vn 1.000000 0.000000 0.000000
vn 1.000000 0.000000 0.000000
vn 1.000000 0.000000 0.000000
vn -0.000000 0.000000 1.000000
vn -0.000000 0.000000 1.000000
vn -0.000000 0.000000 1.000000
vn -0.000000 0.000000 1.000000
vn -0.000000 0.000000 1.000000
vn -0.000000 0.000000 1.000000
vn -0.000000 0.000000 1.000000
vn -0.000000 0.000000 1.000000
vn -0.000000 0.000000 1.000000
vn -0.000000 0.000000 1.000000
vn -0.000000 0.000000 1.000000
vn -0.000000 0.000000 1.000000
vn -0.000000 0.000000 1.000000
vn -0.000000 0.000000 1.000000
vn -0.000000 0.000000 1.000000
vn -0.000000 0.000000 1.000000
vn -0.000000 0.000000 1.000000
vn -0.000000 0.000000 1.000000
vn -0.000000 0.000000 1.000000
vn -0.000000 0.000000 1.000000
vn -0.000000 0.000000 1.000000
vn -0.000000 0.000000 1.000000
vn -0.000000 0.000000 1.000000
vn -0.000000 0.000000 1.000000
vn -0.000000 0.000000 1.000000
vn -0.000000 0.000000 1.000000
vn -0.000000 0.000000 1.000000
vn -0.000000 0.000000 1.000000
vn -0.000000 0.000000 1.000000
vn -0.000000 0.000000 1.000000
vn -0.000000 0.000000 -1.000000
vn -0.000000 0.000000 -1.000000
vn -0.000000 0.000000 -1.000000
vn -0.000000 0.000000 -1.000000
vn -0.000000 0.000000 -1.000000
vn -0.000000 0.000000 -1.000000
vn -0.000000 0.000000 -1.000000
vn -0.000000 0.000000 -1.000000
vn -0.000000 0.000000 -1.000000
vn -0.000000 0.000000 -1.000000
vn -0.000000 0.000000 -1.000000
vn -0.000000 0.000000 -1.000000
vn -0.000000 0.000000 -1.000000
vn -0.000000 0.000000 -1.000000
vn -0.000000 0.000000 -1.000000
vn -0.000000 0.000000 -1.000000
vn -0.000000 0.000000 -1.000000
vn -0.000000 0.000000 -1.000000
vn -0.000000 0.000000 -1.000000
vn -0.000000 0.000000 -1.000000
vn -0.000000 0.000000 -1.000000
vn -0.000000 -0.000000 -1.000000
vn -0.000000 -0.000000 -1.000000
vn -0.000000 -0.000000 -1.000000
vn -0.000000 0.000000 -1.000000
vn -0.000000 0.000000 -1.000000
vn -0.000000 0.000000 -1.000000
vn -0.000000 0.000000 -1.000000
vn -0.000000 0.000000 -1.000000
vn -0.000000 0.000000 -1.000000
vn -0.000000 1.000000 0.000000
vn -0.000000 1.000000 0.000000
vn -0.000000 1.000000 0.000000
vn -0.000000 1.000000 0.000000
vn -0.000000 1.000000 0.000000
vn -0.000000 1.000000 0.000000
vn -0.000000 1.000000 0.000000
vn -0.000000 1.000000 0.000000
vn -0.000000 1.000000 0.000000
vn -0.000000 1.000000 0.000000
vn -0.000000 1.000000 0.000000
vn -0.000000 1.000000 0.000000
vn -1.000000 -0.000000 0.000000
vn -1.000000 -0.000000 0.000000
vn -1.000000 -0.000000 0.000000
vn -1.000000 -0.000000 0.000000
vn -1.000000 -0.000000 0.000000
vn -1.000000 -0.000000 0.000000
vn -1.000000 -0.000000 0.000000
vn -1.000000 -0.000000 0.000000
vn -1.000000 -0.000000 0.000000
vn -1.000000 -0.000000 0.000000
vn -1.000000 -0.000000 0.000000
vn -1.000000 -0.000000 0.000000
vn -0.000000 1.000000 0.000000
vn -0.000000 1.000000 0.000000
vn -0.000000 1.000000 0.000000
vn -0.000000 1.000000 0.000000
vn -0.000000 1.000000 0.000000
vn -0.000000 1.000000 0.000000
vn -0.000000 1.000000 0.000000
vn -0.000000 1.000000 0.000000
vn -0.000000 1.000000 0.000000
vn -0.000000 1.000000 0.000000
vn -0.000000 1.000000 0.000000
vn -0.000000 1.000000 0.000000
vn 1.000000 -0.000000 0.000000
vn 1.000000 -0.000000 0.000000
vn 1.000000 -0.000000 0.000000
vn 1.000000 -0.000000 0.000000
vn 1.000000 -0.000000 0.000000
vn 1.000000 -0.000000 0.000000
vn 1.000000 -0.000000 0.000000
vn 1.000000 -0.000000 0.000000
vn 1.000000 -0.000000 0.000000
vn 1.000000 -0.000000 0.000000
vn 1.000000 -0.000000 0.000000
vn 1.000000 -0.000000 0.000000
vn -0.000000 -1.000000 0.000000
vn -0.000000 -1.000000 0.000000
vn -0.000000 -1.000000 0.000000
vn -0.000000 -1.000000 0.000000
vn -0.000000 -1.000000 0.000000
vn -0.000000 -1.000000 0.000000
vn -0.000000 -1.000000 0.000000
vn -0.000000 -1.000000 0.000000
vn -0.000000 -1.000000 0.000000
vn -0.000000 -1.000000 0.000000
vn -0.000000 -1.000000 0.000000
vn -0.000000 -1.000000 0.000000
vn -1.000000 0.000000 0.000000
vn -1.000000 0.000000 0.000000
vn -1.000000 0.000000 0.000000
vn -1.000000 0.000000 0.000000
vn -1.000000 0.000000 0.000000
vn -1.000000 0.000000 0.000000
vn -1.000000 0.000000 0.000000
vn -1.000000 0.000000 0.000000
vn -1.000000 0.000000 0.000000
vn -1.000000 0.000000 0.000000
vn -1.000000 0.000000 0.000000
vn -1.000000 0.000000 0.000000
vn -0.000000 -1.000000 0.000000
vn -0.000000 -1.000000 0.000000
vn -0.000000 -1.000000 0.000000
vn -0.000000 -1.000000 0.000000
vn -0.000000 -1.000000 0.000000
vn -0.000000 -1.000000 0.000000
vn -0.000000 -1.000000 0.000000
vn -0.000000 -1.000000 0.000000
vn -0.000000 -1.000000 0.000000
vn -0.000000 -1.000000 0.000000
vn -0.000000 -1.000000 0.000000
vn -0.000000 -1.000000 0.000000
vn 1.000000 0.000000 0.000000
vn 1.000000 0.000000 0.000000
vn 1.000000 0.000000 0.000000
vn 1.000000 0.000000 0.000000
vn 1.000000 0.000000 0.000000
vn 1.000000 0.000000 0.000000
vn 1.000000 0.000000 0.000000
vn 1.000000 0.000000 0.000000
vn 1.000000 0.000000 0.000000
vn 1.000000 0.000000 0.000000
vn 1.000000 0.000000 0.000000
vn 1.000000 0.000000 0.000000
vn -0.000000 0.000000 1.000000
vn -0.000000 0.000000 1.000000
vn -0.000000 0.000000 1.000000
vn -0.000000 0.000000 1.000000
vn -0.000000 0.000000 1.000000
vn -0.000000 0.000000 1.000000
vn -0.000000 0.000000 1.000000
vn -0.000000 0.000000 1.000000
vn -0.000000 0.000000 1.000000
vn -0.000000 0.000000 1.000000
vn -0.000000 0.000000 1.000000
vn -0.000000 0.000000 1.000000
vn -0.000000 0.000000 1.000000
vn -0.000000 0.000000 1.000000
vn -0.000000 0.000000 1.000000
vn -0.000000 0.000000 1.000000
vn -0.000000 0.000000 1.000000
vn -0.000000 0.000000 1.000000
vn -0.000000 0.000000 1.000000
vn -0.000000 0.000000 1.000000
vn -0.000000 0.000000 1.000000
vn -0.000000 0.000000 1.000000
vn -0.000000 0.000000 1.000000
vn -0.000000 0.000000 1.000000
vn -0.000000 0.000000 1.000000
vn -0.000000 0.000000 1.000000
vn -0.000000 0.000000 1.000000
vn -0.000000 0.000000 1.000000
vn -0.000000 0.000000 1.000000
vn -0.000000 0.000000 1.000000
vn -0.000000 0.000000 -1.000000
vn -0.000000 0.000000 -1.000000
vn -0.000000 0.000000 -1.000000
vn -0.000000 0.000000 -1.000000
vn -0.000000 0.000000 -1.000000
vn -0.000000 0.000000 -1.000000
vn -0.000000 0.000000 -1.000000
vn -0.000000 0.000000 -1.000000
vn -0.000000 0.000000 -1.000000
vn -0.000000 0.000000 -1.000000
vn -0.000000 0.000000 -1.000000
vn -0.000000 0.000000 -1.000000
vn -0.000000 0.000000 -1.000000
vn -0.000000 0.000000 -1.000000
vn -0.000000 0.000000 -1.000000
vn -0.000000 0.000000 -1.000000
vn -0.000000 0.000000 -1.000000
vn -0.000000 0.000000 -1.000000
vn -0.000000 0.000000 -1.000000
vn -0.000000 0.000000 -1.000000
vn -0.000000 0.000000 -1.000000
vn -0.000000 -0.000000 -1.000000
vn -0.000000 -0.000000 -1.000000
vn -0.000000 -0.000000 -1.000000
vn -0.000000 0.000000 -1.000000
vn -0.000000 0.000000 -1.000000
vn -0.000000 0.000000 -1.000000
vn -0.000000 0.000000 -1.000000
vn -0.000000 0.000000 -1.000000
vn -0.000000 0.000000 -1.000000
vn -0.000000 0.000000 -1.000000
vn -0.000000 0.000000 -1.000000
vn -0.000000 0.000000 -1.000000
vn -0.000000 -0.000000 -1.000000
vn -0.000000 -0.000000 -1.000000
vn -0.000000 -0.000000 -1.000000
vn -0.000000 -0.000000 -1.000000
vn -0.000000 -0.000000 -1.000000
vn -0.000000 -0.000000 -1.000000
vn -0.000000 0.000000 -1.000000
vn -0.000000 0.000000 -1.000000
vn -0.000000 0.000000 -1.000000
vn -0.000000 0.000000 -1.000000
vn -0.000000 0.000000 -1.000000
vn -0.000000 0.000000 -1.000000
vn -0.000000 0.000000 -1.000000
vn -0.000000 0.000000 -1.000000
vn -0.000000 0.000000 -1.000000
vn -0.000000 0.000000 -1.000000
vn -0.000000 0.000000 -1.000000
vn -0.000000 0.000000 -1.000000
vn -0.000000 0.000000 -1.000000
vn -0.000000 0.000000 -1.000000
vn -0.000000 0.000000 -1.000000
vn -0.000000 0.000000 -1.000000
vn -0.000000 0.000000 -1.000000
vn -0.000000 0.000000 -1.000000
vn -0.000000 -0.000000 -1.000000
vn -0.000000 -0.000000 -1.000000
vn -0.000000 -0.000000 -1.000000
vn -0.000000 -0.000000 -1.000000
vn -0.000000 -0.000000 -1.000000
vn -0.000000 -0.000000 -1.000000
vn -0.000000 0.000000 -1.000000
vn -0.000000 0.000000 -1.000000
vn -0.000000 0.000000 -1.000000
vn -0.000000 0.000000 -1.000000
vn -0.000000 0.000000 -1.000000
vn -0.000000 0.000000 -1.000000
vn -0.000000 0.000000 -1.000000
vn -0.000000 0.000000 -1.000000
vn -0.000000 0.000000 -1.000000
vn -0.000000 0.000000 -1.000000
vn -0.000000 0.000000 -1.000000
vn -0.000000 0.000000 -1.000000
vn -0.000000 0.000000 -1.000000
vn -0.000000 0.000000 -1.000000
vn -0.000000 0.000000 -1.000000

g Material
f 3/1/1 1/2/2 2/3/3
f 4/4/4 1/5/5 3/6/6
f 7/7/7 5/8/8 6/9/9
f 8/10/10 5/11/11 7/12/12
f 11/13/13 9/14/14 10/15/15
f 12/16/16 9/17/17 11/18/18
f 15/19/19 13/20/20 14/21/21
f 16/22/22 13/23/23 15/24/24
f 19/25/25 17/26/26 18/27/27
f 20/28/28 17/29/29 19/30/30
f 23/31/31 21/32/32 22/33/33
f 24/34/34 21/35/35 23/36/36
f 27/37/37 25/38/38 26/39/39
f 28/40/40 25/41/41 27/42/42
f 31/43/43 29/44/44 30/45/45
f 32/46/46 29/47/47 31/48/48
f 35/49/49 33/50/50 34/51/51
f 36/52/52 33/53/53 35/54/54
f 39/55/55 37/56/56 38/57/57
f 40/58/58 37/59/59 39/60/60
f 43/61/61 41/62/62 42/63/63
f 44/64/64 41/65/65 43/66/66
f 47/67/67 45/68/68 46/69/69
f 48/70/70 45/71/71 47/72/72
f 51/73/73 49/74/74 50/75/75
f 52/76/76 49/77/77 51/78/78
f 55/79/79 53/80/80 54/81/81
f 56/82/82 53/83/83 55/84/84
f 59/85/85 57/86/86 58/87/87
f 60/88/88 57/89/89 59/90/90
f 63/91/91 61/92/92 62/93/93
f 64/94/94 61/95/95 63/96/96
f 67/97/97 65/98/98 66/99/99
f 68/100/100 65/101/101 67/102/102
f 71/103/103 69/104/104 70/105/105
f 72/106/106 69/107/107 71/108/108
f 75/109/109 73/110/110 74/111/111
f 76/112/112 73/113/113 75/114/114
f 79/115/115 77/116/116 78/117/117
f 80/118/118 77/119/119 79/120/120
f 83/121/121 81/122/122 82/123/123
f 84/124/124 81/125/125 83/126/126
f 87/127/127 85/128/128 86/129/129
f 88/130/130 85/131/131 87/132/132
f 91/133/133 89/134/134 90/135/135
f 92/136/136 89/137/137 91/138/138
f 95/139/139 93/140/140 94/141/141
f 96/142/142 93/143/143 95/144/144
f 99/145/145 97/146/146 98/147/147
f 100/148/148 97/149/149 99/150/150
f 103/151/151 101/152/152 102/153/153
f 104/154/154 101/155/155 103/156/156
f 107/157/157 105/158/158 106/159/159
f 108/160/160 105/161/161 107/162/162
f 111/163/163 109/164/164 110/165/165
f 112/166/166 109/167/167 111/168/168
f 115/169/169 113/170/170 114/171/171
f 116/172/172 113/173/173 115/174/174
f 119/175/175 117/176/176 118/177/177
f 120/178/178 117/179/179 119/180/180
f 123/181/181 121/182/182 122/183/183
f 124/184/184 121/185/185 123/186/186
f 127/187/187 125/188/188 126/189/189
f 128/190/190 125/191/191 127/192/192
f 131/193/193 129/194/194 130/195/195
f 132/196/196 129/197/197 131/198/198
f 135/199/199 133/200/200 134/201/201
f 136/202/202 133/203/203 135/204/204
f 139/205/205 137/206/206 138/207/207
f 140/208/208 137/209/209 139/210/210
f 143/211/211 141/212/212 142/213/213
f 144/214/214 141/215/215 143/216/216
f 147/217/217 145/218/218 146/219/219
f 148/220/220 145/221/221 147/222/222
f 151/223/223 149/224/224 150/225/225
f 152/226/226 149/227/227 151/228/228
f 155/229/229 153/230/230 154/231/231
f 156/232/232 153/233/233 155/234/234
f 159/235/235 157/236/236 158/237/237
f 160/238/238 157/239/239 159/240/240
f 163/241/241 161/242/242 162/243/243
f 164/244/244 161/245/245 163/246/246
f 167/247/247 165/248/248 166/249/249
f 168/250/250 165/251/251 167/252/252
f 171/253/253 169/254/254 170/255/255
f 172/256/256 169/257/257 171/258/258
f 175/259/259 173/260/260 174/261/261
f 176/262/262 173/263/263 175/264/264
f 179/265/265 177/266/266 178/267/267
f 180/268/268 177/269/269 179/270/270
f 183/271/271 181/272/272 182/273/273
f 184/274/274 181/275/275 183/276/276
f 187/277/277 185/278/278 186/279/279
f 188/280/280 185/281/281 187/282/282
f 191/283/283 189/284/284 190/285/285
f 192/286/286 189/287/287 191/288/288
f 195/289/289 193/290/290 194/291/291
f 196/292/292 193/293/293 195/294/294
f 199/295/295 197/296/296 198/297/297
f 200/298/298 197/299/299 199/300/300
f 203/301/301 201/302/302 202/303/303
f 204/304/304 201/305/305 203/306/306
f 207/307/307 205/308/308 206/309/309
f 208/310/310 205/311/311 207/312/312
f 211/313/313 209/314/314 210/315/315
f 212/316/316 209/317/317 211/318/318
f 215/319/319 213/320/320 214/321/321
f 216/322/322 213/323/323 215/324/324
f 219/325/325 217/326/326 218/327/327
f 220/328/328 217/329/329 219/330/330
f 223/331/331 221/332/332 222/333/333
f 224/334/334 221/335/335 223/336/336
f 227/337/337 225/338/338 226/339/339
f 228/340/340 225/341/341 227/342/342
f 231/343/343 229/344/344 230/345/345
f 232/346/346 229/347/347 231/348/348
f 235/349/349 233/350/350 234/351/351
f 236/352/352 233/353/353 235/354/354
f 239/355/355 237/356/356 238/357/357
f 240/358/358 237/359/359 239/360/360
f 243/361/361 241/362/362 242/363/363
f 244/364/364 241/365/365 243/366/366
f 263/367/367 261/368/368 262/369/369
f 264/370/370 261/371/371 263/372/372
f 267/373/373 265/374/374 266/375/375
f 268/376/376 265/377/377 267/378/378
f 271/379/379 269/380/380 270/381/381
f 272/382/382 269/383/383 271/384/384
f 275/385/385 273/386/386 274/387/387
f 276/388/388 273/389/389 275/390/390
f 279/391/391 277/392/392 278/393/393
f 280/394/394 277/395/395 279/396/396
f 283/397/397 281/398/398 282/399/399
f 284/400/400 281/401/401 283/402/402
f 287/403/403 285/404/404 286/405/405
f 288/406/406 285/407/407 287/408/408
f 291/409/409 289/410/410 290/411/411
f 292/412/412 289/413/413 291/414/414
f 295/415/415 293/416/416 294/417/417
f 296/418/418 293/419/419 295/420/420
f 299/421/421 297/422/422 298/423/423
f 300/424/424 297/425/425 299/426/426
f 303/427/427 301/428/428 302/429/429
f 304/430/430 301/431/431 303/432/432
f 307/433/433 305/434/434 306/435/435
f 308/436/436 305/437/437 307/438/438
f 311/439/439 309/440/440 310/441/441
f 312/442/442 309/443/443 311/444/444
f 315/445/445 313/446/446 314/447/447
f 316/448/448 313/449/449 315/450/450
f 319/451/451 317/452/452 318/453/453
f 320/454/454 317/455/455 319/456/456
f 323/457/457 321/458/458 322/459/459
f 324/460/460 321/461/461 323/462/462
f 327/463/463 325/464/464 326/465/465
f 328/466/466 325/467/467 327/468/468
f 331/469/469 329/470/470 330/471/471
f 332/472/472 329/473/473 331/474/474
f 335/475/475 333/476/476 334/477/477
f 336/478/478 333/479/479 335/480/480
f 339/481/481 337/482/482 338/483/483
f 340/484/484 337/485/485 339/486/486
f 343/487/487 341/488/488 342/489/489
f 344/490/490 341/491/491 343/492/492
f 347/493/493 345/494/494 346/495/495
f 348/496/496 345/497/497 347/498/498
f 351/499/499 349/500/500 350/501/501
f 352/502/502 349/503/503 351/504/504
f 355/505/505 353/506/506 354/507/507
f 356/508/508 353/509/509 355/510/510
f 359/511/511 357/512/512 358/513/513
f 360/514/514 357/515/515 359/516/516
f 363/517/517 361/518/518 362/519/519
f 364/520/520 361/521/521 363/522/522

g Material.004
f 247/523/523 245/524/524 246/525/525
f 248/526/526 245/527/527 247/528/528
f 251/529/529 249/530/530 250/531/531
f 252/532/532 249/533/533 251/534/534
f 255/535/535 253/536/536 254/537/537
f 256/538/538 253/539/539 255/540/540
f 259/541/541 257/542/542 258/543/543
f 260/544/544 257/545/545 259/546/546
f 367/547/547 365/548/548 366/549/549
f 368/550/550 365/551/551 367/552/552
f 371/553/553 369/554/554 370/555/555
f 372/556/556 369/557/557 371/558/558
f 375/559/559 373/560/560 374/561/561
f 376/562/562 373/563/563 375/564/564
f 379/565/565 377/566/566 378/567/567
f 380/568/568 377/569/569 379/570/570

